<?xml version="1.0" standalone="no"?>
<!DOCTYPE svg PUBLIC "-//W3C//DTD SVG 20010904//EN"
 "http://www.w3.org/TR/2001/REC-SVG-20010904/DTD/svg10.dtd">
<svg version="1.0" xmlns="http://www.w3.org/2000/svg"
 width="330.000000pt" height="590.000000pt" viewBox="0 0 330.000000 590.000000"
 preserveAspectRatio="xMidYMid meet">
<metadata>
Created by potrace 1.16, written by Peter Selinger 2001-2019
</metadata>
<g transform="translate(0.000000,590.000000) scale(0.500000,-0.500000)"
fill="#000000" stroke="none">
<path d="M46 1176 c0 -11 14 -28 31 -38 30 -17 59 -56 46 -60 -32 -8 -37 -6
-64 20 -23 22 -31 27 -34 19 -2 -6 -1 -7 13 -22 15 -16 19 -22 16 -26 -2 -2
-36 -9 -46 -9 l-8 0 0 -25 c0 -19 1 -25 3 -25 5 0 19 -14 22 -23 4 -10 8 -13
16 -13 7 0 17 -8 38 -28 10 -9 20 -19 24 -21 14 -9 8 -11 -52 -21 -47 -7 -48
-10 -18 -42 7 -7 16 -14 21 -17 31 -16 66 -64 51 -68 -27 -9 -34 -7 -63 19
-25 23 -32 26 -38 19 -2 -3 0 -6 16 -22 26 -26 26 -26 3 -34 -28 -9 -16 -21
14 -14 20 5 29 4 38 -3 11 -9 9 -14 -4 -17 -13 -2 -21 -9 -18 -15 2 -2 7 -3
30 -4 34 -1 30 1 75 -41 49 -45 49 -44 -1 -52 -29 -5 -30 -4 -51 16 -10 10
-22 20 -26 23 -5 3 -15 12 -22 19 -18 18 -25 22 -31 16 -7 -7 8 -28 27 -38 10
-5 40 -35 40 -40 0 -4 -5 -7 -19 -10 -20 -4 -24 -3 -43 14 -24 22 -32 25 -32
9 0 -7 1 -10 3 -10 17 0 21 -22 4 -25 -21 -4 -9 -16 15 -14 26 1 24 2 55 -27
27 -25 31 -32 19 -32 -3 0 -9 -2 -13 -3 -4 -2 -17 -4 -27 -5 -42 -3 -43 -33
-3 -54 3 -1 19 -15 34 -30 15 -15 33 -31 39 -35 28 -17 29 -35 2 -35 -3 0 -11
-2 -16 -4 -8 -3 -13 -4 -22 -4 -13 1 -12 1 -43 28 -20 19 -27 22 -31 14 -3 -6
-1 -11 16 -26 19 -18 20 -21 17 -29 -5 -11 1 -15 19 -17 16 -2 11 2 72 -53 59
-54 58 -51 27 -64 -28 -12 -33 -10 -58 17 -8 8 -19 18 -25 22 -6 3 -18 14 -27
22 -18 18 -25 21 -31 14 -8 -7 4 -26 25 -38 33 -19 62 -57 48 -64 -25 -10 -29
-12 -37 -19 -11 -9 -20 -11 -32 -5 -10 6 -15 4 -16 -8 -1 -9 -5 -14 -10 -14
-3 0 -4 -2 -4 -10 0 -12 3 -13 21 -7 13 5 63 -34 63 -49 0 -3 -7 -10 -10 -10
-1 0 -3 -2 -5 -5 -7 -11 4 -17 20 -10 13 5 16 4 31 -10 8 -8 15 -16 15 -18 2
-8 61 -7 70 1 30 26 86 27 100 1 4 -7 4 -7 17 -7 17 0 17 2 -2 23 -20 21 -12
30 32 36 16 3 61 -44 51 -53 -6 -5 -2 -6 23 -6 14 0 26 1 26 2 0 5 54 26 68
26 7 0 27 -17 29 -24 1 -3 3 -4 14 -4 18 0 17 2 -3 24 -13 13 -11 16 17 26 24
8 26 8 52 -16 12 -11 22 -20 23 -20 1 0 3 -1 5 -1 7 -3 4 20 -3 23 -30 12 -29
40 2 40 3 0 4 1 4 7 0 9 -9 10 -33 2 -20 -7 -21 -7 -48 18 -32 29 -32 33 -1
43 22 6 26 6 40 -6 32 -25 42 -29 42 -15 0 7 -1 9 -4 9 -6 0 -24 21 -24 28 0
8 -6 15 -16 17 -36 10 -66 46 -45 55 31 15 33 15 53 -3 34 -29 36 -30 36 -14
0 9 -1 11 -4 11 -5 0 -26 20 -26 26 0 5 5 9 20 13 10 3 10 4 10 11 0 10 -4 10
-28 0 -23 -10 -25 -9 -55 21 -23 21 -22 22 8 33 24 8 24 8 48 -7 27 -18 27
-18 27 -5 0 9 0 10 -4 10 -6 0 -16 11 -16 17 0 6 5 9 14 9 6 0 6 1 6 7 0 8
-15 12 -27 7 -10 -4 -16 -2 -26 6 -6 5 -14 12 -20 15 -39 25 -49 50 -23 54 5
1 15 4 22 6 7 3 13 5 13 5 1 0 2 3 4 6 5 9 11 7 26 -8 12 -12 14 -13 26 -12 5
0 8 18 3 18 -7 0 -32 20 -58 45 -16 16 -33 30 -37 33 -17 8 -20 18 -6 21 15 3
18 1 51 -32 47 -47 52 -50 52 -31 0 11 0 12 -4 12 -6 0 -55 48 -54 53 1 3 4 4
11 6 6 1 12 3 15 5 3 1 12 2 19 3 13 2 13 2 13 10 0 10 -15 13 -32 6 -10 -5
-39 -6 -50 -3 -8 2 -14 7 -38 31 -39 39 -39 38 18 48 40 7 37 7 68 -22 31 -30
34 -31 34 -11 0 12 0 14 -4 14 -4 0 -19 13 -23 20 -4 8 -1 12 15 14 12 3 12 3
12 10 0 9 -5 10 -28 5 -29 -6 -29 -6 -60 24 -36 35 -32 41 26 41 19 0 26 1 35
4 7 2 15 4 19 4 l8 0 0 24 c0 24 0 24 -5 25 -3 1 -12 7 -19 15 -7 7 -16 15
-20 18 -11 9 -7 12 21 18 23 5 23 5 23 13 0 9 -2 9 -35 1 -29 -7 -35 -7 -43
-2 -15 11 -14 20 3 20 5 0 13 2 19 4 6 2 15 4 23 4 6 0 17 1 22 2 l11 3 0 24
c0 19 -1 25 -3 25 -4 0 -23 14 -23 17 0 4 5 6 17 8 8 1 16 17 7 17 -1 0 -10
-1 -21 -3 -21 -3 -29 -2 -36 5 -13 13 2 22 38 24 l21 0 0 9 0 9 -22 0 c-17 -1
-25 -2 -29 -5 -26 -13 -51 -4 -82 30 -11 12 -24 24 -29 28 -10 7 -12 11 -8 14
3 2 68 13 85 14 l16 2 19 -17 c9 -9 20 -19 22 -22 17 -22 28 -24 28 -5 0 14 0
15 -4 15 -18 0 -34 32 -19 38 25 10 16 19 -14 15 -26 -4 -47 5 -47 19 0 4 -2
4 -14 4 -17 0 -18 -3 -8 -15 12 -15 10 -17 -38 -25 -40 -7 -49 -7 -55 -3 -7 3
-43 38 -43 41 0 1 -5 2 -15 2 -19 0 -19 0 4 -22 29 -28 28 -30 -5 -36 -75 -13
-77 -13 -103 12 -26 26 -21 36 18 36 22 0 31 2 31 7 0 5 -139 5 -143 0 -3 -2
-9 -3 -27 -3 -20 0 -24 -1 -34 -5 -23 -11 -71 -6 -75 7 -2 6 -23 6 -23 0z
m203 -22 c4 -3 17 -14 27 -25 25 -25 31 -22 -65 -38 -49 -8 -47 -9 -79 25 -28
28 -28 30 1 30 6 0 14 1 19 3 5 2 15 4 33 5 15 0 28 2 32 3 11 5 23 4 32 -3z
m214 -49 c15 -7 61 -54 61 -62 0 -8 -5 -9 -40 -9 -24 0 -34 -1 -39 -3 -14 -6
-22 -4 -33 6 -6 5 -13 11 -18 13 -8 4 -40 36 -40 41 0 5 6 7 24 10 11 2 26 4
34 6 25 4 39 4 51 -2z m-126 -31 c10 -9 23 -21 30 -26 20 -14 22 -18 7 -22 -4
-1 -11 -3 -15 -5 -6 -2 -16 -3 -38 -3 -25 0 -31 -1 -39 -4 -23 -11 -35 -6 -65
25 -33 32 -33 32 20 40 19 3 40 6 48 8 31 6 33 5 52 -13z m-152 -33 c30 -29
26 -39 -12 -39 -16 0 -65 37 -65 49 0 8 16 13 40 13 15 0 15 0 37 -23z m-104
9 c24 -13 44 -44 33 -51 -23 -15 -63 -7 -84 16 -5 7 -13 14 -18 17 -13 8 -12
8 25 15 28 5 38 6 44 3z m481 -32 c13 -9 18 -23 11 -25 -50 -14 -94 -16 -112
-5 -29 18 -20 27 29 28 27 1 39 2 45 5 9 4 19 2 27 -3z m-146 -16 c38 -29 38
-30 -14 -39 -95 -16 -88 -17 -110 6 -22 23 -17 29 27 29 24 0 32 1 40 4 16 6
48 6 57 0z m-170 -15 c17 -11 37 -36 34 -41 -2 -4 -20 -8 -39 -9 l-19 -2 -19
19 c-11 11 -19 21 -19 22 4 11 49 19 62 11z m-95 -8 c8 -3 45 -39 45 -43 0
-26 -61 -18 -90 11 -18 18 -20 22 -14 25 19 9 47 12 59 7z m461 -6 c5 -3 15
-10 21 -17 22 -24 20 -27 -11 -28 -13 -1 -24 -3 -29 -5 -26 -11 -59 -4 -79 17
-19 21 -17 24 17 29 10 2 24 4 31 6 22 4 39 4 50 -2z m-141 -20 c11 -5 39 -36
37 -38 -6 -5 -29 -11 -43 -11 -8 0 -16 -1 -21 -3 -4 -2 -15 -4 -28 -5 -12 -1
-25 -2 -29 -3 -14 -2 -51 34 -42 42 7 7 118 23 126 18z m-157 -26 c43 -29 38
-49 -11 -49 -22 0 -57 22 -57 35 0 11 56 22 68 14z m-92 -16 c16 -8 36 -35 28
-39 -18 -9 -41 -12 -53 -7 -8 3 -33 29 -33 35 0 10 43 19 58 11z m-91 -13 c6
-2 41 -36 41 -39 0 -4 -5 -5 -20 -5 -8 0 -16 -1 -19 -2 -28 -11 -55 -7 -71 10
-21 20 -19 23 11 29 10 2 24 5 31 6 17 3 21 3 27 1z m404 -6 c16 -4 24 -18 12
-23 -10 -4 -107 -23 -112 -22 -21 5 -30 27 -12 29 7 1 15 3 19 5 4 2 16 3 28
4 12 0 23 1 26 3 10 6 25 7 39 4z m-145 -33 c19 -18 16 -22 -21 -29 -31 -6
-35 -6 -48 6 -19 17 -19 22 -1 25 5 1 13 2 16 4 15 7 45 3 54 -6z m196 -8 c11
-5 57 -51 56 -56 -3 -7 -20 -12 -51 -13 -21 -1 -33 -2 -39 -5 -23 -9 -39 -5
-61 17 -9 9 -20 18 -25 20 -22 11 -15 17 33 28 76 16 74 16 87 9z m-303 -1
c15 -8 27 -26 20 -32 -22 -18 -83 6 -71 28 4 8 38 10 51 4z m-77 -17 c32 -29
31 -31 -23 -41 -37 -8 -54 -1 -69 27 -5 8 16 17 40 17 9 0 20 1 24 3 13 5 17
4 28 -6z m221 -13 c4 -3 11 -6 15 -8 10 -5 36 -33 36 -38 0 -6 -7 -8 -29 -8
-13 0 -27 -1 -34 -3 -15 -4 -16 -4 -39 19 -29 27 -28 30 14 38 27 5 28 5 37 0z
m-78 -35 c23 -23 24 -29 2 -29 -3 0 -10 -1 -14 -3 -11 -4 -11 -4 -32 17 -23
22 -23 26 -2 31 23 6 26 5 46 -16z m-91 2 c10 -5 30 -28 30 -33 -3 -14 -80
-20 -97 -7 -16 12 -21 25 -10 28 26 9 70 16 77 12z m-115 -23 c5 -2 25 -22 25
-25 0 -4 -3 -5 -21 -7 -9 -1 -19 -3 -23 -3 -14 -2 -35 21 -25 28 7 4 37 10 44
7z m370 -18 c10 -6 55 -49 55 -53 0 -8 -65 -23 -79 -19 -7 2 -65 59 -65 65 0
5 7 7 32 7 17 0 27 1 31 3 9 4 15 3 26 -3z m-118 -10 c20 -7 68 -65 59 -70
-23 -12 -116 54 -99 71 2 2 34 1 40 -1z m-70 -9 c8 -4 69 -65 69 -69 -1 -3 -4
-4 -35 -10 -52 -9 -54 -8 -101 39 -33 33 -34 35 -16 35 11 0 19 2 37 7 11 3
39 2 46 -2z m-120 -17 c3 -2 18 -15 32 -30 14 -14 29 -28 33 -30 19 -10 12
-16 -27 -22 -22 -4 -117 77 -98 85 7 3 54 1 60 -3z m278 -61 c6 -3 65 -61 65
-65 0 -12 -26 -8 -42 7 -5 5 -14 11 -18 13 -25 13 -41 41 -26 45 12 3 13 3 21
0z m-44 -27 c10 -9 22 -19 26 -22 7 -3 16 -11 23 -20 4 -6 -1 -10 -9 -10 -4 0
-12 -2 -19 -4 -6 -2 -19 -4 -28 -5 -9 0 -19 -1 -22 -2 -5 -1 -8 1 -19 11 -8 7
-17 14 -20 15 -10 5 -35 31 -35 36 0 6 0 7 33 13 47 10 48 9 70 -12z m-128
-10 c6 -4 14 -11 18 -16 4 -5 11 -10 16 -12 23 -12 27 -26 11 -33 -28 -13 -44
-7 -81 28 -32 30 -32 32 -3 38 23 5 28 4 39 -5z m-89 -9 c9 -5 59 -52 61 -57
2 -6 -2 -8 -16 -8 -8 0 -18 -2 -25 -4 -23 -8 -26 -7 -60 26 -37 36 -37 35 3
42 28 5 30 5 37 1z m-89 -23 c7 -4 48 -47 49 -51 2 -10 -46 -11 -57 -2 -11 8
-45 41 -47 46 -7 12 37 18 55 7z m392 -37 c7 -4 15 -10 18 -12 17 -12 54 -54
49 -56 -12 -3 -39 -12 -46 -15 -24 -10 -33 -6 -68 29 -16 16 -33 31 -38 33
-19 11 -18 19 3 21 8 1 20 3 26 5 18 7 42 5 56 -5z m-118 -17 c54 -33 90 -86
59 -86 -3 0 -9 -1 -13 -3 -18 -7 -28 0 -102 71 -23 23 23 38 56 18z m-63 -34
c69 -64 69 -63 50 -70 -46 -16 -42 -16 -65 7 -10 10 -24 22 -30 26 -51 33 -61
61 -23 63 42 2 34 6 68 -26z m-105 -10 c14 -14 30 -27 34 -30 17 -8 52 -49 45
-51 -2 0 -9 -2 -16 -5 -29 -9 -27 -10 -91 50 -55 52 -58 56 -34 56 5 0 10 1
13 3 14 8 20 5 49 -23z m-109 10 c6 -2 16 -10 38 -31 17 -15 40 -37 52 -48 27
-24 27 -37 0 -37 -3 0 -12 -2 -19 -4 -16 -5 -18 -4 -31 7 -6 5 -14 11 -17 12
-3 2 -19 17 -36 33 -16 16 -33 31 -36 33 -23 11 -27 29 -6 29 3 0 10 2 15 4
10 4 29 5 40 2z m382 -64 c4 -1 13 -8 23 -18 9 -9 20 -18 25 -21 36 -22 34
-38 -7 -48 -18 -4 -14 -7 -59 34 -41 38 -43 41 -25 46 6 2 14 4 18 6 9 3 16 4
25 1z m-75 -24 c2 0 19 -16 39 -35 44 -41 45 -44 16 -52 -30 -9 -37 -5 -85 42
-37 36 -36 34 -14 40 25 8 37 9 44 5z m-85 -21 c3 -1 17 -15 31 -29 14 -15 29
-28 32 -29 24 -13 27 -26 7 -34 -29 -11 -34 -10 -59 13 -74 70 -76 71 -48 76
6 1 13 3 14 4 6 3 16 2 23 -1z m-32 -62 c55 -52 55 -49 19 -61 -31 -10 -36 -8
-79 35 -17 17 -33 31 -34 31 -4 0 -18 14 -18 18 0 5 6 10 17 11 6 1 12 2 14 4
23 12 30 9 81 -38z m-127 6 c8 -5 27 -22 42 -37 15 -15 32 -29 36 -32 15 -7
17 -16 4 -21 -5 -2 -14 -6 -22 -10 -34 -17 -32 -18 -128 73 -19 19 -19 26 -1
29 4 1 12 3 18 5 19 7 34 5 51 -7z m348 -20 c12 -6 43 -39 43 -43 -2 -14 -43
-24 -54 -15 -4 4 -12 10 -18 13 -30 20 -32 31 -7 41 21 7 29 9 36 4z m-82 -27
c3 -1 9 -5 12 -8 3 -3 11 -9 17 -13 32 -20 31 -30 -3 -42 -19 -7 -21 -7 -48
18 -29 27 -30 32 -5 40 6 2 12 4 14 5 4 3 6 2 13 0z m-66 -28 c9 -4 47 -43 47
-47 0 -7 -31 -23 -44 -23 -12 0 -60 39 -60 48 0 13 44 29 57 22z m-84 -30 c2
-1 8 -6 13 -11 5 -5 15 -13 22 -18 28 -18 27 -24 -9 -39 -39 -15 -37 -16 -77
24 -20 19 -20 25 1 30 4 1 14 5 22 9 15 7 21 8 28 5z m225 -8 c1 0 6 -4 12 -9
6 -5 14 -11 18 -13 18 -9 24 -30 9 -30 -2 0 -6 -1 -9 -3 -25 -13 -36 -10 -61
15 -21 21 -2 50 27 41 1 -1 3 -1 4 -1z m-307 -32 c52 -41 55 -50 20 -64 -29
-11 -27 -12 -58 22 -26 28 -27 30 -13 36 29 13 40 14 51 6z m242 0 c27 -20 41
-39 33 -45 -29 -18 -56 -15 -79 9 -20 21 22 54 46 36z m-302 -50 c36 -35 36
-32 -13 -52 -47 -18 -42 -19 -70 9 -23 25 -27 31 -21 37 3 3 57 28 67 30 7 2
14 -2 37 -24z m221 19 c3 -1 8 -5 11 -9 3 -3 11 -9 17 -13 23 -14 20 -19 -25
-34 -30 -10 -35 -9 -55 10 -22 22 -22 24 10 37 33 13 34 13 42 9z m145 -29
c50 -27 54 -61 8 -65 -17 -2 -65 34 -63 47 2 9 45 23 55 18z m-229 -11 c38
-32 38 -34 0 -47 -23 -8 -25 -7 -41 9 -21 19 -22 24 -3 32 29 14 34 14 44 6z
m155 -23 c4 -3 11 -9 15 -13 4 -4 11 -10 16 -12 15 -9 18 -19 7 -23 -65 -26
-64 -26 -99 7 -24 24 -23 26 20 40 26 8 31 9 41 1z m-232 -10 c5 -3 12 -10 17
-15 14 -16 12 -19 -21 -29 -14 -4 -33 -11 -41 -14 -24 -10 -23 -10 -38 6 -21
21 -20 22 22 40 49 21 49 21 61 12z"/>
</g>
</svg>
