<?xml version="1.0" standalone="no"?>
<!DOCTYPE svg PUBLIC "-//W3C//DTD SVG 20010904//EN"
 "http://www.w3.org/TR/2001/REC-SVG-20010904/DTD/svg10.dtd">
<svg version="1.0" xmlns="http://www.w3.org/2000/svg"
 width="55.000000pt" height="100.000000pt" viewBox="0 0 55.000000 100.000000"
 preserveAspectRatio="xMidYMid meet">
<metadata>
Created by potrace 1.16, written by Peter Selinger 2001-2019
</metadata>
<g transform="translate(0.000000,100.000000) scale(0.100000,-0.100000)"
fill="#000000" stroke="none">
<path d="M40 986 c0 -6 12 -20 28 -32 32 -26 23 -42 -13 -26 -21 10 -25 9 -25
-4 0 -8 -7 -17 -15 -20 -29 -11 -18 -60 20 -88 38 -30 45 -46 18 -46 -10 0
-25 -5 -33 -10 -12 -8 -8 -16 24 -49 42 -43 42 -62 1 -43 -34 16 -35 15 -32
-6 8 -52 90 -99 124 -70 11 9 20 7 40 -9 40 -29 42 -47 5 -40 -21 4 -32 2 -36
-8 -9 -23 -38 -18 -77 15 -42 34 -60 28 -27 -8 l23 -25 -32 6 c-30 6 -33 4
-33 -17 0 -18 8 -25 32 -32 38 -11 44 -37 11 -42 -36 -5 -28 -37 17 -73 22
-18 40 -38 40 -46 0 -18 -30 -17 -57 2 -27 19 -40 3 -21 -24 8 -11 36 -35 64
-53 47 -31 62 -57 38 -65 -6 -2 -28 10 -49 27 -21 16 -42 30 -46 30 -18 0 -8
-28 16 -44 35 -23 31 -42 -10 -56 -41 -14 -45 -36 -10 -52 14 -6 25 -19 25
-29 0 -35 117 -68 136 -38 6 11 32 9 67 -6 13 -5 17 -2 17 14 0 28 35 28 52 1
14 -22 57 -27 76 -8 9 9 18 9 37 0 33 -15 35 -15 35 2 0 24 19 29 45 12 33
-22 36 -20 33 12 -4 34 -53 50 -80 25 -19 -17 -58 -9 -58 13 0 12 14 19 23 12
2 -2 15 5 29 14 21 14 33 16 54 8 42 -16 43 -1 2 35 -57 48 -50 66 15 40 15
-6 17 -3 14 21 -3 23 -9 30 -32 32 -15 2 -32 -1 -38 -7 -6 -6 -19 -11 -28 -11
-9 0 -22 -7 -29 -15 -7 -8 -23 -15 -36 -15 -13 0 -27 -7 -32 -16 -7 -12 -17
-15 -36 -10 -34 9 -31 40 4 44 14 2 29 8 35 13 5 5 22 9 37 9 15 0 28 5 28 10
0 6 11 10 24 10 14 0 28 5 31 10 3 6 22 10 41 10 51 0 47 32 -7 53 -30 12 -40
21 -37 34 3 14 13 18 41 17 34 -1 37 1 37 26 0 17 -9 34 -22 44 l-23 16 23 16
c12 9 22 19 22 23 0 3 -33 7 -74 8 -55 2 -77 -1 -86 -12 -16 -19 -50 -19 -78
1 -37 25 -25 34 44 32 52 -2 69 1 79 15 16 23 40 22 81 -4 l34 -21 0 34 c0 31
-3 35 -37 44 -50 12 -50 36 0 47 29 7 37 14 37 32 0 13 -7 25 -15 29 -8 3 -15
15 -15 26 0 11 -6 20 -12 21 -7 0 -1 5 15 11 23 8 27 15 27 49 0 28 -4 39 -15
39 -20 0 -19 10 2 26 16 12 12 13 -28 14 -45 0 -79 21 -79 48 0 20 55 13 84
-9 33 -26 43 -19 27 18 -18 42 -83 69 -95 38 -3 -9 -18 -15 -34 -15 -16 0 -35
7 -42 15 -19 23 -40 18 -40 -10 0 -21 -5 -25 -27 -25 -37 0 -57 14 -50 34 6
15 -5 16 -103 14 -65 -1 -110 -6 -110 -12z m178 -38 c4 -21 -45 -32 -81 -19
-35 14 -35 39 1 43 40 5 77 -6 80 -24z m41 -39 c52 -18 35 -49 -28 -49 -29 0
-51 16 -51 36 0 11 12 17 41 23 3 0 20 -4 38 -10z m197 -63 c3 -8 19 -19 35
-25 16 -5 29 -17 29 -26 0 -13 -9 -16 -42 -13 -35 2 -44 7 -46 24 -2 12 -12
24 -24 27 -11 3 -17 10 -13 16 9 16 55 13 61 -3z m-103 -26 c9 -11 24 -20 33
-20 9 0 14 -7 12 -17 -3 -14 -13 -18 -48 -18 -41 0 -45 2 -43 23 2 18 -2 22
-27 22 -20 0 -30 5 -30 15 0 24 81 20 103 -5z m-37 -104 c3 -8 19 -19 36 -25
41 -14 31 -36 -18 -37 -21 -1 -43 -2 -49 -4 -19 -5 -35 0 -35 10 0 6 9 10 19
10 27 0 38 20 17 32 -9 5 -16 13 -16 18 0 16 40 11 46 -4z m179 -10 c49 -36
-33 -65 -84 -29 -23 15 -23 17 -6 30 24 17 66 17 90 -1z m-323 -14 c7 -11 23
-24 36 -31 12 -7 20 -16 17 -22 -10 -16 -51 -10 -70 11 -10 11 -24 20 -31 20
-7 0 -16 5 -19 10 -19 31 45 42 67 12z m263 -76 c33 -24 12 -42 -46 -41 -30 0
-60 4 -66 8 -20 13 -15 27 10 27 12 0 29 5 37 10 21 14 43 12 65 -4z m-161
-112 c9 -3 16 -13 16 -21 0 -12 -8 -14 -35 -10 -19 3 -37 1 -40 -4 -9 -13 -49
-11 -63 3 -22 22 -12 31 28 25 22 -3 40 -1 40 4 0 10 31 12 54 3z m180 -57
c21 -15 18 -50 -5 -55 -19 -4 -69 35 -69 54 0 18 50 19 74 1z m-96 -23 c34
-23 29 -48 -8 -40 -22 4 -30 2 -30 -9 0 -25 -44 -17 -73 13 -37 38 -34 46 13
38 25 -4 40 -2 40 4 0 15 33 12 58 -6z m-213 -45 c39 -34 45 -59 16 -59 -21 0
-91 60 -91 79 0 21 39 11 75 -20z m309 -44 c27 -20 14 -47 -19 -39 -19 5 -25
2 -25 -10 0 -20 -29 -21 -58 0 -32 22 -28 44 7 44 17 0 33 5 36 10 9 14 37 12
59 -5z m-275 -81 c30 -25 42 -64 21 -64 -17 0 -65 27 -79 44 -16 19 -8 46 13
46 8 0 28 -12 45 -26z m96 -87 c24 -18 11 -37 -26 -37 -17 0 -32 -6 -35 -15
-8 -19 -38 -19 -54 0 -16 19 -5 35 24 35 13 0 29 7 36 15 15 19 31 19 55 2z"/>
</g>
</svg>
