<?xml version="1.0" standalone="no"?>
<!DOCTYPE svg PUBLIC "-//W3C//DTD SVG 20010904//EN"
 "http://www.w3.org/TR/2001/REC-SVG-20010904/DTD/svg10.dtd">
<svg version="1.0" xmlns="http://www.w3.org/2000/svg"
 width="170.000000pt" height="590.000000pt" viewBox="0 0 170.000000 590.000000"
 preserveAspectRatio="xMidYMid meet">
<metadata>
Created by potrace 1.16, written by Peter Selinger 2001-2019
</metadata>
<g transform="translate(0.000000,590.000000) scale(0.500000,-0.500000)"
fill="#000000" stroke="none">
<path d="M55 1160 c-10 -3 -9 2 -10 -158 0 -81 -1 -156 -2 -165 -3 -31 1 -35
33 -35 36 0 36 -1 34 66 -1 26 -2 101 -2 166 0 141 3 126 -27 127 -11 1 -23 0
-26 -1z"/>
<path d="M230 1160 c-8 -3 -8 1 -9 -165 -1 -86 -2 -162 -2 -169 0 -22 3 -24
33 -24 34 0 38 4 35 34 -1 7 -2 81 -2 164 0 83 -1 153 -2 154 -3 7 -39 11 -53
6z"/>
</g>
</svg>
