<?xml version="1.0" standalone="no"?>
<!DOCTYPE svg PUBLIC "-//W3C//DTD SVG 20010904//EN"
 "http://www.w3.org/TR/2001/REC-SVG-20010904/DTD/svg10.dtd">
<svg version="1.0" xmlns="http://www.w3.org/2000/svg"
 width="28.000000pt" height="100.000000pt" viewBox="0 0 28.000000 100.000000"
 preserveAspectRatio="xMidYMid meet">
<metadata>
Created by potrace 1.16, written by Peter Selinger 2001-2019
</metadata>
<g transform="translate(0.000000,100.000000) scale(0.100000,-0.100000)"
fill="#000000" stroke="none">
<path d="M42 978 c-8 -8 -12 -54 -12 -143 0 -138 10 -175 44 -162 14 6 16 26
16 150 0 134 -6 167 -30 167 -3 0 -11 -5 -18 -12z"/>
<path d="M187 984 c-4 -4 -7 -74 -7 -156 0 -129 2 -149 16 -155 33 -13 44 24
43 146 -1 64 -4 127 -8 141 -7 25 -30 37 -44 24z"/>
</g>
</svg>
