<?xml version="1.0" standalone="no"?>
<!DOCTYPE svg PUBLIC "-//W3C//DTD SVG 20010904//EN"
 "http://www.w3.org/TR/2001/REC-SVG-20010904/DTD/svg10.dtd">
<svg version="1.0" xmlns="http://www.w3.org/2000/svg"
 width="438.000000pt" height="590.000000pt" viewBox="0 0 438.000000 590.000000"
 preserveAspectRatio="xMidYMid meet">
<metadata>
Created by potrace 1.16, written by Peter Selinger 2001-2019
</metadata>
<g transform="translate(0.000000,590.000000) scale(0.500000,-0.500000)"
fill="#000000" stroke="none">
<path d="M99 912 c-4 -1 -8 -3 -9 -5 -5 -6 -3 -611 2 -616 9 -9 65 -6 70 3 3
6 3 606 0 612 -4 7 -45 11 -63 6z"/>
<path d="M393 912 c-12 -4 -12 18 -11 -312 0 -304 0 -304 4 -309 7 -7 59 -7
67 -1 5 5 9 607 4 616 -5 7 -46 11 -64 6z"/>
<path d="M734 913 c-16 -6 -16 3 -13 -170 1 -94 1 -210 0 -296 -2 -151 -2
-153 7 -158 14 -7 64 -3 67 6 5 13 2 609 -3 614 -4 4 -49 7 -58 4z"/>
</g>
</svg>
