<?xml version="1.0" standalone="no"?>
<!DOCTYPE svg PUBLIC "-//W3C//DTD SVG 20010904//EN"
 "http://www.w3.org/TR/2001/REC-SVG-20010904/DTD/svg10.dtd">
<svg version="1.0" xmlns="http://www.w3.org/2000/svg"
 width="546.000000pt" height="590.000000pt" viewBox="0 0 546.000000 590.000000"
 preserveAspectRatio="xMidYMid meet">
<metadata>
Created by potrace 1.16, written by Peter Selinger 2001-2019
</metadata>
<g transform="translate(0.000000,590.000000) scale(0.500000,-0.500000)"
fill="#000000" stroke="none">
<path d="M96 885 c-12 -4 -12 -4 -10 -91 2 -102 2 -340 0 -435 -2 -95 -6 -88
46 -88 44 0 39 -33 38 248 0 132 1 265 2 295 2 77 4 74 -43 74 -15 0 -29 -1
-33 -3z"/>
<path d="M363 886 c-4 -1 -7 -3 -8 -4 -5 -9 -1 -603 4 -607 7 -5 64 -6 73 -1
7 4 8 7 5 155 -1 103 -1 186 0 295 3 168 4 158 -10 162 -10 2 -56 2 -64 0z"/>
<path d="M638 884 c-10 -4 -10 -5 -8 -76 2 -81 2 -388 0 -463 -2 -79 -5 -74
43 -74 50 0 45 -14 43 130 0 65 0 198 0 296 1 104 1 180 -1 182 -4 9 -61 14
-77 5z"/>
<path d="M926 885 c-9 -4 -10 -6 -8 -89 2 -97 2 -347 0 -439 -2 -93 -5 -86 43
-86 50 0 45 -19 43 157 -2 102 -2 189 -1 296 3 162 3 157 -8 161 -9 4 -59 4
-69 0z"/>
</g>
</svg>
