<?xml version="1.0" standalone="no"?>
<!DOCTYPE svg PUBLIC "-//W3C//DTD SVG 20010904//EN"
 "http://www.w3.org/TR/2001/REC-SVG-20010904/DTD/svg10.dtd">
<svg version="1.0" xmlns="http://www.w3.org/2000/svg"
 width="136.000000pt" height="148.000000pt" viewBox="0 0 136.000000 148.000000"
 preserveAspectRatio="xMidYMid meet">
<metadata>
Created by potrace 1.16, written by Peter Selinger 2001-2019
</metadata>
<g transform="translate(0.000000,148.000000) scale(0.100000,-0.100000)"
fill="#000000" stroke="none">
<path d="M115 1100 c-3 -5 -6 -177 -6 -382 l0 -373 50 -3 51 -3 0 379 c0 337
-2 381 -16 386 -24 9 -72 7 -79 -4z"/>
<path d="M446 1101 c-11 -18 -8 -754 3 -760 6 -4 28 -5 51 -3 l40 4 -2 382 -3
381 -42 3 c-22 2 -44 -1 -47 -7z"/>
<path d="M795 1104 c-11 -4 -12 -750 -2 -761 10 -10 77 -11 83 -1 8 13 7 745
-1 758 -6 10 -60 13 -80 4z"/>
<path d="M1153 1103 c-10 -4 -13 -89 -13 -378 0 -288 3 -376 13 -382 16 -10
77 -12 83 -2 7 12 6 748 -1 759 -6 10 -60 12 -82 3z"/>
</g>
</svg>
