<?xml version="1.0" standalone="no"?>
<!DOCTYPE svg PUBLIC "-//W3C//DTD SVG 20010904//EN"
 "http://www.w3.org/TR/2001/REC-SVG-20010904/DTD/svg10.dtd">
<svg version="1.0" xmlns="http://www.w3.org/2000/svg"
 width="666.000000pt" height="590.000000pt" viewBox="0 0 666.000000 590.000000"
 preserveAspectRatio="xMidYMid meet">
<metadata>
Created by potrace 1.16, written by Peter Selinger 2001-2019
</metadata>
<g transform="translate(0.000000,590.000000) scale(0.500000,-0.500000)"
fill="#000000" stroke="none">
<path d="M87 881 c-10 -4 -11 -5 -9 -82 2 -106 2 -334 0 -428 -2 -103 -5 -97
41 -97 48 0 45 -5 43 86 -2 91 -2 342 0 436 2 79 1 81 -9 85 -9 4 -57 4 -66 0z"/>
<path d="M326 881 c-9 -5 -9 -6 -8 -77 2 -80 2 -374 0 -453 -2 -81 -4 -77 44
-77 42 0 43 2 41 45 -1 39 -1 480 0 521 2 42 -36 62 -77 41z"/>
<path d="M595 881 c-4 -2 -7 -4 -7 -5 0 -2 0 -136 0 -298 -1 -347 -6 -303 37
-304 51 -1 49 -5 47 79 -2 79 -2 361 0 448 1 76 1 74 -7 79 -8 5 -60 6 -70 1z"/>
<path d="M875 881 c-4 -2 -7 -4 -7 -5 -3 -67 0 -593 4 -597 6 -5 59 -7 71 -2
10 4 11 5 9 92 -2 103 -2 306 0 416 2 91 2 91 -8 96 -8 4 -60 4 -69 0z"/>
<path d="M1167 882 c-10 -4 -9 11 -9 -303 0 -296 0 -296 4 -300 8 -8 71 -7 78
2 5 6 3 593 -2 598 -4 4 -62 7 -71 3z"/>
</g>
</svg>
