<?xml version="1.0" standalone="no"?>
<!DOCTYPE svg PUBLIC "-//W3C//DTD SVG 20010904//EN"
 "http://www.w3.org/TR/2001/REC-SVG-20010904/DTD/svg10.dtd">
<svg version="1.0" xmlns="http://www.w3.org/2000/svg"
 width="100.000000pt" height="89.000000pt" viewBox="0 0 100.000000 89.000000"
 preserveAspectRatio="xMidYMid meet">
<metadata>
Created by potrace 1.16, written by Peter Selinger 2001-2019
</metadata>
<g transform="translate(0.000000,89.000000) scale(0.100000,-0.100000)"
fill="#000000" stroke="none">
<path d="M67 664 c-4 -4 -7 -110 -7 -236 l0 -229 28 3 27 3 0 230 c0 224 -1
230 -20 233 -12 2 -24 0 -28 -4z"/>
<path d="M235 457 c-4 -118 -4 -224 0 -235 4 -16 14 -22 36 -22 l29 0 0 235 0
235 -29 0 -29 0 -7 -213z"/>
<path d="M440 434 l0 -235 28 3 c27 3 27 3 32 98 3 52 4 157 1 233 l-4 137
-28 0 -29 0 0 -236z"/>
<path d="M650 434 l0 -235 28 3 27 3 3 233 2 232 -30 0 -30 0 0 -236z"/>
<path d="M865 608 c-3 -35 -5 -139 -3 -233 l3 -170 30 0 30 0 0 230 0 230 -27
3 c-25 3 -26 1 -33 -60z"/>
</g>
</svg>
