<?xml version="1.0" standalone="no"?>
<!DOCTYPE svg PUBLIC "-//W3C//DTD SVG 20010904//EN"
 "http://www.w3.org/TR/2001/REC-SVG-20010904/DTD/svg10.dtd">
<svg version="1.0" xmlns="http://www.w3.org/2000/svg"
 width="166.000000pt" height="148.000000pt" viewBox="0 0 166.000000 148.000000"
 preserveAspectRatio="xMidYMid meet">
<metadata>
Created by potrace 1.16, written by Peter Selinger 2001-2019
</metadata>
<g transform="translate(0.000000,148.000000) scale(0.100000,-0.100000)"
fill="#000000" stroke="none">
<path d="M99 1093 c0 -4 -1 -173 -2 -375 -2 -394 -4 -378 48 -378 52 0 50 -16
50 383 l-1 372 -47 3 c-26 2 -47 -1 -48 -5z"/>
<path d="M399 1096 c0 -4 -1 -174 -2 -378 l0 -373 28 -3 c15 -2 37 -1 49 2 21
5 21 6 20 378 l-1 373 -47 3 c-25 2 -46 1 -47 -2z"/>
<path d="M732 723 l3 -378 39 -3 c21 -2 43 1 47 5 5 5 9 176 10 379 l0 369
-51 3 -50 3 2 -378z"/>
<path d="M1080 1095 c-6 -103 2 -741 8 -747 5 -5 27 -8 48 -6 l39 3 3 378 2
377 -50 0 c-27 0 -50 -2 -50 -5z"/>
<path d="M1440 1093 c-5 -142 2 -739 9 -746 4 -4 26 -7 47 -5 l39 3 3 378 2
377 -50 0 c-27 0 -50 -3 -50 -7z"/>
</g>
</svg>
