<?xml version="1.0" standalone="no"?>
<!DOCTYPE svg PUBLIC "-//W3C//DTD SVG 20010904//EN"
 "http://www.w3.org/TR/2001/REC-SVG-20010904/DTD/svg10.dtd">
<svg version="1.0" xmlns="http://www.w3.org/2000/svg"
 width="100.000000pt" height="84.000000pt" viewBox="0 0 100.000000 84.000000"
 preserveAspectRatio="xMidYMid meet">
<metadata>
Created by potrace 1.16, written by Peter Selinger 2001-2019
</metadata>
<g transform="translate(0.000000,84.000000) scale(0.100000,-0.100000)"
fill="#000000" stroke="none">
<path d="M38 409 c-3 -157 1 -174 39 -167 15 3 19 16 23 78 3 41 4 112 1 158
l-4 82 -28 0 -28 0 -3 -151z"/>
<path d="M190 405 c0 -135 2 -156 16 -162 9 -3 24 -2 33 4 13 8 17 33 19 129
2 65 0 134 -3 152 -5 27 -10 32 -35 32 l-30 0 0 -155z"/>
<path d="M364 547 c-2 -7 -3 -75 -2 -151 3 -115 6 -141 19 -149 9 -6 24 -7 33
-4 14 6 16 27 16 162 l0 155 -30 0 c-17 0 -33 -6 -36 -13z"/>
<path d="M540 406 c0 -147 1 -155 20 -161 45 -14 51 7 48 164 l-3 146 -32 3
-33 3 0 -155z"/>
<path d="M716 538 c-3 -13 -6 -77 -6 -144 0 -133 9 -162 48 -150 21 7 22 12
22 162 l0 154 -29 0 c-21 0 -30 -6 -35 -22z"/>
<path d="M885 548 c-3 -8 -4 -79 -3 -158 l3 -145 30 0 30 0 0 155 0 155 -28 3
c-16 2 -29 -2 -32 -10z"/>
</g>
</svg>
