<?xml version="1.0" standalone="no"?>
<!DOCTYPE svg PUBLIC "-//W3C//DTD SVG 20010904//EN"
 "http://www.w3.org/TR/2001/REC-SVG-20010904/DTD/svg10.dtd">
<svg version="1.0" xmlns="http://www.w3.org/2000/svg"
 width="704.000000pt" height="590.000000pt" viewBox="0 0 704.000000 590.000000"
 preserveAspectRatio="xMidYMid meet">
<metadata>
Created by potrace 1.16, written by Peter Selinger 2001-2019
</metadata>
<g transform="translate(0.000000,590.000000) scale(0.500000,-0.500000)"
fill="#000000" stroke="none">
<path d="M67 786 c-13 -4 -13 -2 -11 -92 2 -78 2 -253 -1 -305 -2 -36 -3 -35
47 -35 52 0 47 -7 46 63 -1 31 -1 101 -1 155 0 54 0 123 1 152 1 69 5 63 -42
63 -18 1 -36 0 -39 -1z"/>
<path d="M278 786 c-13 -3 -12 -1 -10 -111 2 -93 2 -158 -1 -267 -2 -58 -5
-54 48 -54 35 0 39 0 42 4 3 4 6 411 2 422 -2 7 -61 12 -81 6z"/>
<path d="M523 786 c-7 -3 -10 -8 -10 -19 0 -5 1 -68 2 -138 1 -70 1 -158 0
-194 -3 -90 -7 -82 46 -82 52 0 49 -5 47 62 -1 24 -1 112 0 195 0 83 1 155 1
160 -1 15 -61 27 -86 16z"/>
<path d="M769 785 c-4 -2 -7 -4 -7 -5 -2 -29 0 -421 2 -422 7 -8 81 -8 89 0 1
1 3 395 1 422 0 8 -69 12 -85 5z"/>
<path d="M1017 786 c-7 -3 -10 -8 -10 -17 0 -4 1 -68 2 -141 1 -73 1 -161 0
-196 -3 -87 -7 -79 46 -79 54 0 49 -8 47 89 -2 73 -1 268 1 312 2 30 -47 49
-86 32z"/>
<path d="M1251 785 c-4 -2 -7 -4 -7 -5 -3 -43 0 -421 3 -423 10 -7 78 -7 85 0
4 4 7 360 4 423 0 8 -69 12 -85 5z"/>
</g>
</svg>
