<?xml version="1.0" standalone="no"?>
<!DOCTYPE svg PUBLIC "-//W3C//DTD SVG 20010904//EN"
 "http://www.w3.org/TR/2001/REC-SVG-20010904/DTD/svg10.dtd">
<svg version="1.0" xmlns="http://www.w3.org/2000/svg"
 width="176.000000pt" height="148.000000pt" viewBox="0 0 176.000000 148.000000"
 preserveAspectRatio="xMidYMid meet">
<metadata>
Created by potrace 1.16, written by Peter Selinger 2001-2019
</metadata>
<g transform="translate(0.000000,148.000000) scale(0.100000,-0.100000)"
fill="#000000" stroke="none">
<path d="M70 709 l0 -270 53 3 52 3 3 268 2 267 -55 0 -55 0 0 -271z"/>
<path d="M332 713 l3 -268 54 0 54 0 -1 265 -1 265 -56 3 -55 3 2 -268z"/>
<path d="M640 710 l0 -271 56 3 56 3 0 265 1 265 -57 3 -56 3 0 -271z"/>
<path d="M950 710 l0 -270 54 0 c30 0 56 4 58 10 2 5 2 127 0 270 l-3 260 -54
0 -55 0 0 -270z"/>
<path d="M1260 975 c0 -3 -1 -120 -1 -260 0 -140 1 -259 1 -265 0 -5 25 -10
55 -10 30 0 55 5 55 10 0 6 1 126 1 268 l0 257 -55 3 c-31 2 -56 1 -56 -3z"/>
<path d="M1552 713 l3 -268 53 0 54 0 0 265 -1 265 -56 3 -55 3 2 -268z"/>
</g>
</svg>
