<?xml version="1.0" standalone="no"?>
<!DOCTYPE svg PUBLIC "-//W3C//DTD SVG 20010904//EN"
 "http://www.w3.org/TR/2001/REC-SVG-20010904/DTD/svg10.dtd">
<svg version="1.0" xmlns="http://www.w3.org/2000/svg"
 width="266.000000pt" height="148.000000pt" viewBox="0 0 266.000000 148.000000"
 preserveAspectRatio="xMidYMid meet">
<metadata>
Created by potrace 1.16, written by Peter Selinger 2001-2019
</metadata>
<g transform="translate(0.000000,148.000000) scale(0.100000,-0.100000)"
fill="#000000" stroke="none">
<path d="M79 1096 c-2 -2 -4 -186 -3 -408 l1 -403 44 0 44 0 3 408 2 407 -43
0 c-24 0 -46 -2 -48 -4z"/>
<path d="M489 1096 c-2 -2 -4 -186 -3 -408 l0 -403 45 0 44 0 3 408 2 407 -43
0 c-24 0 -46 -2 -48 -4z"/>
<path d="M880 1095 c-4 -98 1 -799 5 -806 5 -8 29 -8 85 0 3 1 5 183 5 406 l0
405 -47 0 c-27 0 -48 -2 -48 -5z"/>
<path d="M1295 1087 c-3 -6 -4 -190 -3 -407 l3 -395 48 -3 47 -3 0 410 0 411
-45 0 c-27 0 -48 -5 -50 -13z"/>
<path d="M1709 1096 c-2 -2 -4 -186 -3 -408 l0 -403 45 0 44 0 3 408 2 407
-43 0 c-24 0 -46 -2 -48 -4z"/>
<path d="M2109 1098 c0 -2 -1 -184 -2 -405 -1 -261 2 -404 8 -406 6 -2 26 -3
45 -3 l35 1 3 408 2 407 -45 0 c-25 0 -45 -1 -46 -2z"/>
<path d="M2485 1090 c-4 -7 -8 -624 -5 -801 0 -6 18 -9 46 -7 l45 3 0 395 c0
217 0 401 0 408 -1 14 -77 17 -86 2z"/>
</g>
</svg>
