<?xml version="1.0" standalone="no"?>
<!DOCTYPE svg PUBLIC "-//W3C//DTD SVG 20010904//EN"
 "http://www.w3.org/TR/2001/REC-SVG-20010904/DTD/svg10.dtd">
<svg version="1.0" xmlns="http://www.w3.org/2000/svg"
 width="1064.000000pt" height="590.000000pt" viewBox="0 0 1064.000000 590.000000"
 preserveAspectRatio="xMidYMid meet">
<metadata>
Created by potrace 1.16, written by Peter Selinger 2001-2019
</metadata>
<g transform="translate(0.000000,590.000000) scale(0.500000,-0.500000)"
fill="#000000" stroke="none">
<path d="M708 880 c-4 -3 -8 -607 -4 -644 1 -12 75 -11 79 0 4 13 1 641 -3
644 -7 6 -65 6 -72 0z"/>
<path d="M1065 882 c-18 -1 -24 -2 -26 -4 -5 -6 -5 -642 0 -648 5 -5 66 -6 73
-1 6 5 7 643 1 649 -4 4 -20 5 -48 4z"/>
<path d="M1688 880 c-4 -3 -8 -604 -4 -644 1 -11 75 -11 79 0 4 11 1 641 -3
644 -7 6 -65 6 -72 0z"/>
<path d="M69 880 c-11 -4 -11 -5 -9 -85 2 -95 2 -393 0 -485 -2 -90 -5 -84 41
-84 45 0 41 -10 39 99 -2 111 -2 337 0 452 2 95 1 99 -7 103 -6 2 -58 3 -64 0z"/>
<path d="M395 880 c-3 -1 -5 -3 -6 -4 -4 -6 -2 -642 2 -646 5 -5 66 -6 73 -1
7 6 7 644 0 649 -5 4 -60 6 -69 2z"/>
<path d="M1368 878 c-6 -5 -7 -641 -1 -648 5 -5 66 -6 73 -1 7 6 7 644 0 649
-7 6 -65 6 -72 0z"/>
<path d="M1997 879 c-11 -3 -14 -10 -14 -30 0 -10 1 -105 2 -212 1 -122 1
-232 -1 -295 -2 -128 -6 -116 40 -116 46 0 42 -11 40 112 -2 61 -2 170 -1 296
1 109 2 207 2 216 0 27 -27 38 -68 29z"/>
</g>
</svg>
