<?xml version="1.0" standalone="no"?>
<!DOCTYPE svg PUBLIC "-//W3C//DTD SVG 20010904//EN"
 "http://www.w3.org/TR/2001/REC-SVG-20010904/DTD/svg10.dtd">
<svg version="1.0" xmlns="http://www.w3.org/2000/svg"
 width="100.000000pt" height="56.000000pt" viewBox="0 0 100.000000 56.000000"
 preserveAspectRatio="xMidYMid meet">
<metadata>
Created by potrace 1.16, written by Peter Selinger 2001-2019
</metadata>
<g transform="translate(0.000000,56.000000) scale(0.100000,-0.100000)"
fill="#000000" stroke="none">
<path d="M31 411 c-12 -21 -15 -250 -5 -289 4 -14 13 -22 23 -20 14 3 16 24
16 162 0 114 -3 160 -12 163 -6 2 -16 -5 -22 -16z"/>
<path d="M181 411 c-12 -21 -15 -212 -5 -274 5 -27 11 -37 26 -37 17 0 18 9
16 162 -2 113 -7 163 -15 165 -6 2 -16 -5 -22 -16z"/>
<path d="M326 393 c-8 -49 -8 -207 0 -256 5 -27 11 -37 26 -37 17 0 18 9 16
162 -3 140 -5 163 -19 166 -12 2 -18 -7 -23 -35z"/>
<path d="M487 423 c-4 -3 -7 -78 -7 -165 l0 -159 23 3 c21 3 22 6 25 143 1 77
0 150 -3 163 -5 21 -25 29 -38 15z"/>
<path d="M636 393 c-10 -61 -7 -263 4 -283 6 -11 16 -17 25 -13 24 8 17 326
-6 331 -12 2 -18 -7 -23 -35z"/>
<path d="M794 418 c-11 -17 -18 -217 -9 -273 5 -35 10 -45 25 -45 16 0 19 12
25 85 12 144 -12 280 -41 233z"/>
<path d="M927 333 c-3 -49 -3 -121 0 -161 5 -60 9 -72 22 -70 14 3 16 26 19
161 2 148 1 157 -16 157 -17 0 -20 -10 -25 -87z"/>
</g>
</svg>
