<?xml version="1.0" standalone="no"?>
<!DOCTYPE svg PUBLIC "-//W3C//DTD SVG 20010904//EN"
 "http://www.w3.org/TR/2001/REC-SVG-20010904/DTD/svg10.dtd">
<svg version="1.0" xmlns="http://www.w3.org/2000/svg"
 width="20.000000pt" height="148.000000pt" viewBox="0 0 20.000000 148.000000"
 preserveAspectRatio="xMidYMid meet">
<metadata>
Created by potrace 1.16, written by Peter Selinger 2001-2019
</metadata>
<g transform="translate(0.000000,148.000000) scale(0.100000,-0.100000)"
fill="#000000" stroke="none">
<path d="M40 1405 c-4 -42 0 -437 4 -443 3 -5 29 -9 58 -8 l52 1 1 228 0 227
-57 0 c-32 0 -58 -2 -58 -5z"/>
<path d="M40 493 c-1 -5 -1 -105 -1 -223 l0 -215 57 0 58 0 0 223 1 222 -57 0
c-32 0 -58 -3 -58 -7z"/>
</g>
</svg>
