<?xml version="1.0" standalone="no"?>
<!DOCTYPE svg PUBLIC "-//W3C//DTD SVG 20010904//EN"
 "http://www.w3.org/TR/2001/REC-SVG-20010904/DTD/svg10.dtd">
<svg version="1.0" xmlns="http://www.w3.org/2000/svg"
 width="52.000000pt" height="148.000000pt" viewBox="0 0 52.000000 148.000000"
 preserveAspectRatio="xMidYMid meet">
<metadata>
Created by potrace 1.16, written by Peter Selinger 2001-2019
</metadata>
<g transform="translate(0.000000,148.000000) scale(0.100000,-0.100000)"
fill="#000000" stroke="none">
<path d="M48 1423 c-2 -4 -4 -141 -4 -303 l1 -295 50 0 49 0 -1 300 0 300 -46
3 c-25 2 -47 -1 -49 -5z"/>
<path d="M379 1428 c0 -2 -1 -138 -1 -303 l-1 -300 36 -6 c24 -4 41 -1 47 6 7
8 9 119 8 306 l-3 294 -42 3 c-24 2 -43 2 -44 0z"/>
<path d="M215 667 c-3 -7 -4 -149 -3 -317 l3 -305 45 0 45 0 2 310 c2 236 0
311 -10 317 -19 12 -77 9 -82 -5z"/>
</g>
</svg>
