<?xml version="1.0" standalone="no"?>
<!DOCTYPE svg PUBLIC "-//W3C//DTD SVG 20010904//EN"
 "http://www.w3.org/TR/2001/REC-SVG-20010904/DTD/svg10.dtd">
<svg version="1.0" xmlns="http://www.w3.org/2000/svg"
 width="204.000000pt" height="590.000000pt" viewBox="0 0 204.000000 590.000000"
 preserveAspectRatio="xMidYMid meet">
<metadata>
Created by potrace 1.16, written by Peter Selinger 2001-2019
</metadata>
<g transform="translate(0.000000,590.000000) scale(0.500000,-0.500000)"
fill="#000000" stroke="none">
<path d="M310 1142 c-11 -2 -15 -6 -14 -17 0 -4 0 -110 1 -234 0 -267 -5 -234
36 -235 43 -1 38 -34 37 242 0 230 -1 240 -7 243 -5 2 -44 3 -53 1z"/>
<path d="M41 1137 c-5 -5 -5 -5 -5 -156 1 -82 1 -188 0 -233 -1 -79 -1 -84 3
-87 5 -6 71 -6 76 -1 5 6 5 476 0 479 -8 6 -68 4 -74 -2z"/>
<path d="M177 539 c-9 -4 -9 8 -9 -254 0 -244 0 -244 4 -247 10 -8 61 -8 69 0
4 4 8 480 4 495 -3 9 -52 13 -68 6z"/>
</g>
</svg>
