<?xml version="1.0" standalone="no"?>
<!DOCTYPE svg PUBLIC "-//W3C//DTD SVG 20010904//EN"
 "http://www.w3.org/TR/2001/REC-SVG-20010904/DTD/svg10.dtd">
<svg version="1.0" xmlns="http://www.w3.org/2000/svg"
 width="35.000000pt" height="100.000000pt" viewBox="0 0 35.000000 100.000000"
 preserveAspectRatio="xMidYMid meet">
<metadata>
Created by potrace 1.16, written by Peter Selinger 2001-2019
</metadata>
<g transform="translate(0.000000,100.000000) scale(0.100000,-0.100000)"
fill="#000000" stroke="none">
<path d="M35 958 c-3 -8 -4 -101 -3 -208 l3 -195 33 -3 32 -3 -2 208 -3 208
-28 3 c-16 2 -29 -2 -32 -10z"/>
<path d="M250 765 c0 -187 2 -205 18 -214 10 -5 23 -7 29 -3 16 10 27 203 18
321 l-7 101 -29 0 -29 0 0 -205z"/>
<path d="M145 448 c-3 -7 -4 -106 -3 -218 l3 -205 30 0 30 0 0 215 0 215 -28
3 c-16 2 -29 -2 -32 -10z"/>
</g>
</svg>
