<?xml version="1.0" standalone="no"?>
<!DOCTYPE svg PUBLIC "-//W3C//DTD SVG 20010904//EN"
 "http://www.w3.org/TR/2001/REC-SVG-20010904/DTD/svg10.dtd">
<svg version="1.0" xmlns="http://www.w3.org/2000/svg"
 width="226.000000pt" height="590.000000pt" viewBox="0 0 226.000000 590.000000"
 preserveAspectRatio="xMidYMid meet">
<metadata>
Created by potrace 1.16, written by Peter Selinger 2001-2019
</metadata>
<g transform="translate(0.000000,590.000000) scale(0.500000,-0.500000)"
fill="#000000" stroke="none">
<path d="M44 1150 c-8 -2 -10 -5 -10 -14 -1 -479 -1 -486 3 -490 11 -9 88 -7
93 2 3 7 1 496 -3 500 -4 3 -70 5 -83 2z"/>
<path d="M325 1150 c-7 -3 -7 4 -7 -254 -1 -293 -8 -257 50 -255 54 2 50 -7
48 86 -1 39 -2 148 -2 243 1 165 1 174 -3 177 -4 4 -78 7 -86 3z"/>
<path d="M59 532 c-35 -1 -33 3 -31 -71 1 -30 2 -139 2 -243 -1 -175 0 -188 3
-192 5 -5 86 -5 90 1 3 4 5 491 2 498 -3 9 -11 10 -66 7z"/>
<path d="M335 531 c-9 -3 -8 32 -7 -255 0 -215 1 -247 3 -250 6 -6 84 -4 89 2
5 5 5 6 3 127 -1 67 0 177 1 244 2 132 2 130 -9 132 -13 3 -74 3 -80 0z"/>
</g>
</svg>
