<?xml version="1.0" standalone="no"?>
<!DOCTYPE svg PUBLIC "-//W3C//DTD SVG 20010904//EN"
 "http://www.w3.org/TR/2001/REC-SVG-20010904/DTD/svg10.dtd">
<svg version="1.0" xmlns="http://www.w3.org/2000/svg"
 width="38.000000pt" height="100.000000pt" viewBox="0 0 38.000000 100.000000"
 preserveAspectRatio="xMidYMid meet">
<metadata>
Created by potrace 1.16, written by Peter Selinger 2001-2019
</metadata>
<g transform="translate(0.000000,100.000000) scale(0.100000,-0.100000)"
fill="#000000" stroke="none">
<path d="M37 963 c-4 -3 -7 -100 -7 -214 0 -190 1 -207 18 -211 10 -3 28 -1
40 3 22 8 22 11 22 203 0 107 -3 201 -6 210 -6 16 -54 22 -67 9z"/>
<path d="M266 939 c-3 -17 -6 -100 -6 -184 0 -84 3 -167 6 -184 6 -27 11 -31
39 -31 21 0 35 6 39 16 8 21 8 343 0 383 -6 27 -11 31 -39 31 -28 0 -33 -4
-39 -31z"/>
<path d="M283 453 c-10 -3 -13 -54 -13 -203 0 -109 3 -205 6 -214 8 -21 60
-21 68 0 3 9 6 105 6 214 0 171 -2 199 -16 204 -18 7 -33 7 -51 -1z"/>
<path d="M26 413 c-7 -47 -6 -248 3 -328 6 -59 7 -60 36 -60 l30 0 9 100 c4
55 5 150 1 212 l-7 113 -33 0 c-30 0 -33 -3 -39 -37z"/>
</g>
</svg>
