<?xml version="1.0" standalone="no"?>
<!DOCTYPE svg PUBLIC "-//W3C//DTD SVG 20010904//EN"
 "http://www.w3.org/TR/2001/REC-SVG-20010904/DTD/svg10.dtd">
<svg version="1.0" xmlns="http://www.w3.org/2000/svg"
 width="428.000000pt" height="590.000000pt" viewBox="0 0 428.000000 590.000000"
 preserveAspectRatio="xMidYMid meet">
<metadata>
Created by potrace 1.16, written by Peter Selinger 2001-2019
</metadata>
<g transform="translate(0.000000,590.000000) scale(0.500000,-0.500000)"
fill="#000000" stroke="none">
<path d="M94 1139 c-18 -2 -17 21 -17 -233 0 -264 -5 -231 35 -231 42 0 37
-32 36 231 0 122 -1 223 -1 225 -3 6 -29 10 -53 8z"/>
<path d="M427 1139 c-1 0 -4 -1 -7 -2 -10 -2 -10 3 -10 -231 0 -263 -5 -231
35 -232 28 0 39 2 39 10 2 58 0 447 -3 449 -5 6 -43 10 -54 6z"/>
<path d="M731 1139 c-1 0 -4 -1 -7 -2 -13 -3 -13 6 -11 -139 1 -72 0 -171 -1
-220 -2 -112 -5 -104 38 -104 39 0 35 -32 34 231 0 222 0 229 -7 232 -4 1 -43
3 -46 2z"/>
<path d="M86 511 c-10 -4 -9 10 -9 -241 1 -276 -4 -242 35 -242 41 0 36 -32
36 242 1 274 5 241 -34 241 -14 1 -26 0 -28 0z"/>
<path d="M417 507 c-6 -4 -6 -6 -6 -19 0 -8 1 -113 1 -234 1 -253 -2 -225 27
-227 20 -2 38 0 43 5 4 3 8 462 4 472 -3 10 -59 12 -69 3z"/>
</g>
</svg>
