<?xml version="1.0" standalone="no"?>
<!DOCTYPE svg PUBLIC "-//W3C//DTD SVG 20010904//EN"
 "http://www.w3.org/TR/2001/REC-SVG-20010904/DTD/svg10.dtd">
<svg version="1.0" xmlns="http://www.w3.org/2000/svg"
 width="73.000000pt" height="100.000000pt" viewBox="0 0 73.000000 100.000000"
 preserveAspectRatio="xMidYMid meet">
<metadata>
Created by potrace 1.16, written by Peter Selinger 2001-2019
</metadata>
<g transform="translate(0.000000,100.000000) scale(0.100000,-0.100000)"
fill="#000000" stroke="none">
<path d="M65 948 c-3 -13 -4 -104 -3 -203 l3 -180 25 0 c25 0 25 1 30 104 3
57 3 147 0 200 -5 90 -6 96 -27 99 -16 2 -24 -3 -28 -20z"/>
<path d="M355 960 c-3 -6 -9 -92 -12 -193 -5 -159 -4 -184 10 -195 9 -8 24
-12 34 -10 17 3 18 19 18 203 0 197 0 200 -22 203 -11 2 -24 -2 -28 -8z"/>
<path d="M615 960 c-11 -17 -8 -381 3 -392 6 -6 20 -7 31 -3 21 6 21 10 19
203 -3 193 -3 197 -25 200 -11 2 -24 -2 -28 -8z"/>
<path d="M64 427 c-2 -7 -3 -100 -2 -207 l3 -195 26 -3 26 -3 6 105 c4 59 4
153 0 211 -6 102 -7 105 -30 105 -13 0 -26 -6 -29 -13z"/>
<path d="M355 428 c-3 -8 -4 -101 -3 -208 l3 -195 25 0 c24 0 25 4 31 70 8 91
8 272 0 310 -7 32 -46 48 -56 23z"/>
</g>
</svg>
