<?xml version="1.0" standalone="no"?>
<!DOCTYPE svg PUBLIC "-//W3C//DTD SVG 20010904//EN"
 "http://www.w3.org/TR/2001/REC-SVG-20010904/DTD/svg10.dtd">
<svg version="1.0" xmlns="http://www.w3.org/2000/svg"
 width="74.000000pt" height="148.000000pt" viewBox="0 0 74.000000 148.000000"
 preserveAspectRatio="xMidYMid meet">
<metadata>
Created by potrace 1.16, written by Peter Selinger 2001-2019
</metadata>
<g transform="translate(0.000000,148.000000) scale(0.100000,-0.100000)"
fill="#000000" stroke="none">
<path d="M35 1440 c-4 -6 -7 -136 -8 -291 l-2 -280 22 -6 c48 -12 48 -13 46
288 -1 156 -2 287 -2 292 -1 11 -49 9 -56 -3z"/>
<path d="M336 1442 c-8 -13 -9 -560 -1 -572 3 -5 19 -10 36 -10 l29 0 -2 293
-3 292 -27 3 c-14 2 -29 -1 -32 -6z"/>
<path d="M644 1438 c-5 -7 -9 -139 -9 -293 l1 -280 34 0 34 0 -1 282 c-1 155
-4 287 -8 292 -9 15 -41 14 -51 -1z"/>
<path d="M35 604 c-8 -3 -11 -422 -5 -576 0 -12 48 -9 55 3 4 5 8 136 8 290 2
224 -1 280 -11 284 -15 6 -32 5 -47 -1z"/>
<path d="M335 601 c-6 -6 -8 -112 -5 -293 l5 -283 30 0 30 0 0 290 0 290 -25
3 c-14 2 -30 -2 -35 -7z"/>
<path d="M645 604 c-7 -3 -10 -101 -8 -287 1 -155 2 -285 2 -289 1 -12 49 -10
56 2 4 6 7 136 8 290 2 225 -1 281 -11 285 -15 6 -32 5 -47 -1z"/>
</g>
</svg>
