<?xml version="1.0" standalone="no"?>
<!DOCTYPE svg PUBLIC "-//W3C//DTD SVG 20010904//EN"
 "http://www.w3.org/TR/2001/REC-SVG-20010904/DTD/svg10.dtd">
<svg version="1.0" xmlns="http://www.w3.org/2000/svg"
 width="50.000000pt" height="100.000000pt" viewBox="0 0 50.000000 100.000000"
 preserveAspectRatio="xMidYMid meet">
<metadata>
Created by potrace 1.16, written by Peter Selinger 2001-2019
</metadata>
<g transform="translate(0.000000,100.000000) scale(0.100000,-0.100000)"
fill="#000000" stroke="none">
<path d="M14 953 c-11 -44 5 -366 18 -374 32 -20 38 12 38 191 0 98 -3 185 -6
194 -10 26 -43 19 -50 -11z"/>
<path d="M227 973 c-4 -3 -7 -93 -7 -199 0 -198 4 -216 41 -194 17 11 24 170
14 305 -6 81 -9 95 -24 95 -10 0 -21 -3 -24 -7z"/>
<path d="M428 818 c-3 -182 1 -239 19 -245 7 -3 17 7 23 22 11 28 14 343 4
369 -3 9 -14 16 -24 16 -17 0 -19 -14 -22 -162z"/>
<path d="M26 412 c-3 -5 -8 -92 -12 -193 -6 -164 -5 -186 10 -198 13 -11 19
-11 31 -1 12 10 15 44 15 190 0 98 -3 185 -6 194 -7 17 -29 22 -38 8z"/>
<path d="M224 407 c-2 -7 -3 -98 -2 -202 3 -185 4 -190 24 -193 20 -3 22 2 29
118 4 66 4 158 0 205 -6 75 -10 85 -26 85 -11 0 -22 -6 -25 -13z"/>
<path d="M431 402 c-11 -21 -2 -380 10 -387 4 -3 14 -2 23 1 14 5 16 31 16
189 0 101 -3 190 -6 199 -8 21 -31 20 -43 -2z"/>
</g>
</svg>
