<?xml version="1.0" standalone="no"?>
<!DOCTYPE svg PUBLIC "-//W3C//DTD SVG 20010904//EN"
 "http://www.w3.org/TR/2001/REC-SVG-20010904/DTD/svg10.dtd">
<svg version="1.0" xmlns="http://www.w3.org/2000/svg"
 width="292.000000pt" height="590.000000pt" viewBox="0 0 292.000000 590.000000"
 preserveAspectRatio="xMidYMid meet">
<metadata>
Created by potrace 1.16, written by Peter Selinger 2001-2019
</metadata>
<g transform="translate(0.000000,590.000000) scale(0.500000,-0.500000)"
fill="#000000" stroke="none">
<path d="M35 1157 c-14 -2 -13 13 -14 -233 0 -264 -4 -233 28 -233 34 0 30
-30 30 232 -1 260 1 233 -22 234 -8 0 -18 0 -22 0z"/>
<path d="M267 1156 c-3 -2 -5 -4 -6 -6 -1 -3 -2 -445 -1 -451 1 -12 59 -12 62
-1 4 11 -1 450 -4 455 -4 5 -43 7 -51 3z"/>
<path d="M514 1156 c-12 -3 -11 17 -10 -168 0 -81 -1 -177 -2 -214 -2 -75 -2
-76 8 -80 12 -6 46 -5 50 2 3 5 0 454 -2 457 -4 4 -34 6 -44 3z"/>
<path d="M31 487 c-11 -3 -10 13 -10 -233 1 -184 2 -228 4 -230 8 -7 50 -4 52
5 4 22 2 451 -3 455 -5 3 -34 5 -43 3z"/>
<path d="M266 485 c-6 -3 -10 -438 -5 -457 3 -9 47 -12 56 -3 4 4 9 441 5 455
-2 8 -44 12 -56 5z"/>
<path d="M510 484 c-9 -4 -9 -5 -8 -74 1 -31 2 -129 2 -218 0 -89 0 -163 1
-164 3 -8 45 -11 52 -4 3 3 6 453 3 458 -4 7 -38 9 -50 2z"/>
</g>
</svg>
