<?xml version="1.0" standalone="no"?>
<!DOCTYPE svg PUBLIC "-//W3C//DTD SVG 20010904//EN"
 "http://www.w3.org/TR/2001/REC-SVG-20010904/DTD/svg10.dtd">
<svg version="1.0" xmlns="http://www.w3.org/2000/svg"
 width="426.000000pt" height="590.000000pt" viewBox="0 0 426.000000 590.000000"
 preserveAspectRatio="xMidYMid meet">
<metadata>
Created by potrace 1.16, written by Peter Selinger 2001-2019
</metadata>
<g transform="translate(0.000000,590.000000) scale(0.500000,-0.500000)"
fill="#000000" stroke="none">
<path d="M63 1138 c-15 -3 -14 18 -14 -241 0 -147 1 -233 2 -235 7 -12 48 -11
52 1 3 9 2 466 -1 469 -5 7 -22 9 -39 6z"/>
<path d="M265 1137 c-4 -1 -7 -4 -8 -6 -2 -6 -1 -474 1 -479 6 -11 48 -11 54
0 3 5 3 475 0 480 -4 8 -34 11 -47 5z"/>
<path d="M501 1137 c-9 -4 -9 8 -9 -246 0 -276 -4 -246 30 -246 33 0 29 -31
29 248 0 276 3 246 -27 247 -11 0 -19 -1 -23 -3z"/>
<path d="M739 1138 c-10 -4 -10 8 -10 -247 0 -279 -4 -248 30 -247 32 1 28
-31 28 248 0 277 3 246 -26 247 -10 1 -20 0 -22 -1z"/>
<path d="M281 542 c-17 -3 -15 21 -15 -246 0 -276 -4 -245 26 -246 17 0 29 3
30 8 0 0 1 108 1 238 0 265 1 246 -14 246 -3 0 -9 0 -13 1 -4 0 -10 0 -15 -1z"/>
<path d="M493 541 c-4 -1 -7 -4 -8 -6 -2 -5 -2 -470 0 -476 5 -17 57 -11 57 6
1 193 0 468 -2 471 -7 8 -34 11 -47 5z"/>
<path d="M57 540 c-8 -3 -8 -5 -8 -244 0 -276 -3 -245 28 -245 31 0 28 -31 28
245 0 218 0 237 -3 241 -4 4 -37 7 -45 3z"/>
</g>
</svg>
