<?xml version="1.0" standalone="no"?>
<!DOCTYPE svg PUBLIC "-//W3C//DTD SVG 20010904//EN"
 "http://www.w3.org/TR/2001/REC-SVG-20010904/DTD/svg10.dtd">
<svg version="1.0" xmlns="http://www.w3.org/2000/svg"
 width="72.000000pt" height="100.000000pt" viewBox="0 0 72.000000 100.000000"
 preserveAspectRatio="xMidYMid meet">
<metadata>
Created by potrace 1.16, written by Peter Selinger 2001-2019
</metadata>
<g transform="translate(0.000000,100.000000) scale(0.100000,-0.100000)"
fill="#000000" stroke="none">
<path d="M35 873 c-9 -108 0 -312 13 -325 5 -5 16 -6 26 -2 15 6 16 27 14 213
-3 202 -3 206 -25 209 -20 3 -21 -2 -28 -95z"/>
<path d="M214 957 c-2 -7 -3 -102 -2 -212 l3 -200 25 0 25 0 3 199 c2 201 -1
226 -35 226 -7 0 -16 -6 -19 -13z"/>
<path d="M414 957 c-2 -7 -3 -102 -2 -212 3 -195 4 -200 24 -203 28 -4 34 32
34 204 0 174 -7 224 -32 224 -10 0 -21 -6 -24 -13z"/>
<path d="M614 957 c-2 -7 -3 -102 -2 -212 3 -195 4 -200 24 -203 29 -4 34 26
34 207 0 181 -6 221 -32 221 -10 0 -21 -6 -24 -13z"/>
<path d="M44 456 c-3 -8 -6 -102 -7 -209 -2 -200 2 -224 36 -211 15 5 17 29
17 208 0 144 -3 205 -12 214 -16 16 -27 15 -34 -2z"/>
<path d="M231 457 c-13 -13 -15 -395 -2 -416 5 -8 16 -11 25 -8 14 6 16 33 16
216 0 168 -3 210 -14 214 -7 3 -19 0 -25 -6z"/>
<path d="M413 453 c-4 -10 -7 -104 -8 -210 0 -201 6 -231 40 -203 13 11 15 42
13 219 -3 187 -5 206 -21 209 -9 2 -20 -4 -24 -15z"/>
</g>
</svg>
