<?xml version="1.0" standalone="no"?>
<!DOCTYPE svg PUBLIC "-//W3C//DTD SVG 20010904//EN"
 "http://www.w3.org/TR/2001/REC-SVG-20010904/DTD/svg10.dtd">
<svg version="1.0" xmlns="http://www.w3.org/2000/svg"
 width="454.000000pt" height="590.000000pt" viewBox="0 0 454.000000 590.000000"
 preserveAspectRatio="xMidYMid meet">
<metadata>
Created by potrace 1.16, written by Peter Selinger 2001-2019
</metadata>
<g transform="translate(0.000000,590.000000) scale(0.500000,-0.500000)"
fill="#000000" stroke="none">
<path d="M89 1074 c-16 -3 -15 14 -15 -210 0 -210 0 -210 9 -214 12 -5 42 -1
46 6 2 3 3 405 1 410 -2 6 -25 11 -41 8z"/>
<path d="M298 1074 c-16 -4 -15 16 -14 -212 0 -135 1 -203 2 -206 5 -10 42
-11 51 -2 7 7 9 407 2 414 -7 7 -25 10 -41 6z"/>
<path d="M537 1074 c-15 -4 -14 13 -14 -213 1 -112 1 -204 2 -205 7 -11 56
-10 57 1 3 33 0 408 -2 411 -7 7 -29 10 -43 6z"/>
<path d="M777 1074 c-15 -4 -14 13 -13 -212 0 -111 1 -203 1 -205 4 -10 45
-13 53 -3 4 4 7 338 4 401 0 18 -21 26 -45 19z"/>
<path d="M80 494 c-8 -8 -8 -410 0 -416 7 -6 38 -6 45 1 6 4 10 404 4 413 -6
9 -40 11 -49 2z"/>
<path d="M293 497 c-10 -4 -9 3 -9 -212 0 -235 -3 -211 27 -211 18 0 27 3 30
9 5 13 1 406 -4 411 -6 6 -33 8 -44 3z"/>
<path d="M533 497 c-10 -4 -9 3 -9 -213 0 -197 0 -201 4 -204 8 -9 40 -10 49
-1 5 4 8 324 5 410 0 9 -33 15 -49 8z"/>
<path d="M775 498 c-12 -5 -11 10 -11 -211 0 -131 1 -203 2 -205 6 -11 43 -13
51 -3 7 8 8 407 1 415 -4 5 -34 8 -43 4z"/>
</g>
</svg>
