<?xml version="1.0" standalone="no"?>
<!DOCTYPE svg PUBLIC "-//W3C//DTD SVG 20010904//EN"
 "http://www.w3.org/TR/2001/REC-SVG-20010904/DTD/svg10.dtd">
<svg version="1.0" xmlns="http://www.w3.org/2000/svg"
 width="77.000000pt" height="100.000000pt" viewBox="0 0 77.000000 100.000000"
 preserveAspectRatio="xMidYMid meet">
<metadata>
Created by potrace 1.16, written by Peter Selinger 2001-2019
</metadata>
<g transform="translate(0.000000,100.000000) scale(0.100000,-0.100000)"
fill="#000000" stroke="none">
<path d="M73 913 c-10 -3 -13 -51 -13 -190 l0 -184 23 3 c22 3 22 4 22 187 0
181 -3 196 -32 184z"/>
<path d="M247 914 c-4 -4 -7 -90 -7 -191 l0 -184 23 3 c22 3 22 4 22 188 0
159 -2 185 -15 188 -9 1 -19 0 -23 -4z"/>
<path d="M452 912 c-9 -7 -12 -51 -10 -188 3 -173 4 -179 24 -182 19 -3 22 3
28 59 10 96 7 278 -4 300 -12 21 -18 23 -38 11z"/>
<path d="M652 908 c-8 -8 -12 -58 -12 -159 0 -181 5 -211 34 -207 20 3 21 8
24 177 2 119 -1 178 -9 187 -14 17 -22 17 -37 2z"/>
<path d="M65 418 c-3 -8 -4 -92 -3 -188 3 -167 4 -175 23 -175 19 0 20 7 20
185 0 168 -2 185 -18 188 -9 2 -19 -3 -22 -10z"/>
<path d="M245 418 c-3 -8 -4 -92 -3 -188 3 -167 4 -175 23 -175 19 0 20 7 20
185 0 168 -2 185 -18 188 -9 2 -19 -3 -22 -10z"/>
<path d="M447 424 c-4 -4 -7 -88 -7 -186 0 -150 2 -180 15 -184 45 -18 53 48
36 281 -5 70 -9 90 -21 93 -9 1 -19 0 -23 -4z"/>
<path d="M646 369 c-10 -96 -7 -278 4 -300 14 -26 38 -24 45 3 3 13 4 97 3
188 -3 159 -4 165 -24 168 -19 3 -22 -3 -28 -59z"/>
</g>
</svg>
