<?xml version="1.0" standalone="no"?>
<!DOCTYPE svg PUBLIC "-//W3C//DTD SVG 20010904//EN"
 "http://www.w3.org/TR/2001/REC-SVG-20010904/DTD/svg10.dtd">
<svg version="1.0" xmlns="http://www.w3.org/2000/svg"
 width="114.000000pt" height="148.000000pt" viewBox="0 0 114.000000 148.000000"
 preserveAspectRatio="xMidYMid meet">
<metadata>
Created by potrace 1.16, written by Peter Selinger 2001-2019
</metadata>
<g transform="translate(0.000000,148.000000) scale(0.100000,-0.100000)"
fill="#000000" stroke="none">
<path d="M90 1074 l0 -265 33 3 32 3 3 263 2 262 -35 0 -35 0 0 -266z"/>
<path d="M355 1327 c-3 -7 -4 -125 -3 -262 l3 -250 33 -3 32 -3 0 265 0 266
-30 0 c-17 0 -33 -6 -35 -13z"/>
<path d="M660 1336 c-3 -2 -5 -121 -4 -263 l1 -258 32 0 32 0 0 260 1 260 -29
3 c-16 2 -31 1 -33 -2z"/>
<path d="M960 1336 c0 -3 -1 -118 -1 -256 0 -137 1 -255 1 -261 0 -5 14 -9 31
-7 l31 3 0 260 0 260 -31 3 c-17 2 -31 1 -31 -2z"/>
<path d="M90 355 l0 -265 35 0 35 0 0 265 0 265 -35 0 -35 0 0 -265z"/>
<path d="M355 607 c-3 -7 -4 -125 -3 -262 l3 -250 33 0 c17 0 32 3 32 8 0 4 0
122 0 262 l0 255 -30 0 c-17 0 -33 -6 -35 -13z"/>
<path d="M660 616 c-3 -2 -5 -121 -4 -263 l1 -258 32 0 32 0 0 260 0 260 -28
3 c-16 2 -31 1 -33 -2z"/>
<path d="M958 613 c-1 -4 -2 -124 0 -266 l3 -258 30 3 31 3 0 260 0 260 -30 3
c-16 2 -32 -1 -34 -5z"/>
</g>
</svg>
