<?xml version="1.0" standalone="no"?>
<!DOCTYPE svg PUBLIC "-//W3C//DTD SVG 20010904//EN"
 "http://www.w3.org/TR/2001/REC-SVG-20010904/DTD/svg10.dtd">
<svg version="1.0" xmlns="http://www.w3.org/2000/svg"
 width="100.000000pt" height="96.000000pt" viewBox="0 0 100.000000 96.000000"
 preserveAspectRatio="xMidYMid meet">
<metadata>
Created by potrace 1.16, written by Peter Selinger 2001-2019
</metadata>
<g transform="translate(0.000000,96.000000) scale(0.100000,-0.100000)"
fill="#000000" stroke="none">
<path d="M70 711 c0 -190 1 -199 20 -204 35 -9 58 3 64 35 8 39 8 316 0 346
-5 18 -13 22 -45 22 l-39 0 0 -199z"/>
<path d="M250 711 c0 -190 1 -199 20 -204 11 -3 29 -3 40 0 19 5 20 14 20 204
l0 199 -40 0 -40 0 0 -199z"/>
<path d="M455 864 c-3 -26 -3 -115 1 -200 7 -160 11 -173 54 -159 25 8 30 46
30 214 0 182 -2 191 -45 191 -31 0 -33 -2 -40 -46z"/>
<path d="M658 804 c-2 -58 -2 -148 0 -200 l3 -94 38 0 38 0 6 100 c3 55 3 145
0 200 l-6 100 -38 0 -38 0 -3 -106z"/>
<path d="M866 873 c-8 -50 -8 -267 0 -327 6 -44 8 -46 39 -46 21 0 35 6 39 16
3 9 6 101 6 205 l0 189 -39 0 c-37 0 -39 -2 -45 -37z"/>
<path d="M77 423 c-4 -3 -7 -93 -7 -200 l0 -193 39 0 c38 0 38 0 45 46 8 59 8
302 0 332 -5 17 -14 22 -38 22 -18 0 -36 -3 -39 -7z"/>
<path d="M257 423 c-4 -3 -7 -93 -7 -200 l0 -193 40 0 40 0 0 200 0 200 -33 0
c-19 0 -37 -3 -40 -7z"/>
<path d="M459 423 c0 -5 -1 -93 0 -198 l0 -190 34 -3 c31 -3 35 0 41 29 8 40
8 316 0 347 -5 17 -14 22 -40 22 -19 0 -34 -3 -35 -7z"/>
<path d="M660 230 l0 -200 40 0 40 0 0 200 0 200 -40 0 -40 0 0 -200z"/>
</g>
</svg>
