<?xml version="1.0" standalone="no"?>
<!DOCTYPE svg PUBLIC "-//W3C//DTD SVG 20010904//EN"
 "http://www.w3.org/TR/2001/REC-SVG-20010904/DTD/svg10.dtd">
<svg version="1.0" xmlns="http://www.w3.org/2000/svg"
 width="614.000000pt" height="590.000000pt" viewBox="0 0 614.000000 590.000000"
 preserveAspectRatio="xMidYMid meet">
<metadata>
Created by potrace 1.16, written by Peter Selinger 2001-2019
</metadata>
<g transform="translate(0.000000,590.000000) scale(0.500000,-0.500000)"
fill="#000000" stroke="none">
<path d="M96 1120 c-9 -4 -10 -8 -8 -106 1 -50 2 -155 1 -234 -2 -162 -2 -152
14 -152 39 -1 80 0 85 4 5 3 8 472 4 482 -4 7 -80 12 -96 6z"/>
<path d="M319 1119 c-4 -2 -7 -4 -7 -5 -3 -40 0 -479 4 -482 5 -6 82 -7 87 -2
6 6 6 481 0 488 -6 5 -72 6 -84 1z"/>
<path d="M570 1118 c-7 -5 -8 -481 -1 -488 5 -5 83 -5 88 0 6 7 6 481 0 488
-7 6 -79 7 -87 0z"/>
<path d="M814 1118 c-4 -4 -7 -425 -4 -483 0 -10 97 -12 103 -3 4 6 2 481 -1
485 -6 7 -92 7 -98 1z"/>
<path d="M1067 1117 c-5 -5 -5 -5 -4 -177 1 -95 1 -201 0 -235 -2 -64 -2 -73
5 -77 7 -4 91 -3 96 2 7 5 7 480 0 487 -7 7 -90 7 -97 0z"/>
<path d="M851 530 c-31 -1 -38 -2 -40 -4 -5 -7 -2 -482 3 -486 8 -7 90 -6 97
1 4 3 8 324 5 478 0 11 -11 13 -65 11z"/>
<path d="M92 526 c-2 -2 -5 -447 -2 -482 1 -9 89 -12 98 -3 7 7 7 480 0 485
-7 6 -90 6 -96 0z"/>
<path d="M316 526 c-7 -5 -7 -478 0 -485 8 -8 84 -7 88 1 5 9 3 482 -1 485 -6
5 -81 4 -87 -1z"/>
<path d="M569 527 c-6 -6 -6 -481 0 -487 5 -5 83 -5 88 0 6 6 6 481 1 487 -4
3 -9 3 -45 3 -36 0 -41 0 -44 -3z"/>
</g>
</svg>
