<?xml version="1.0" standalone="no"?>
<!DOCTYPE svg PUBLIC "-//W3C//DTD SVG 20010904//EN"
 "http://www.w3.org/TR/2001/REC-SVG-20010904/DTD/svg10.dtd">
<svg version="1.0" xmlns="http://www.w3.org/2000/svg"
 width="154.000000pt" height="148.000000pt" viewBox="0 0 154.000000 148.000000"
 preserveAspectRatio="xMidYMid meet">
<metadata>
Created by potrace 1.16, written by Peter Selinger 2001-2019
</metadata>
<g transform="translate(0.000000,148.000000) scale(0.100000,-0.100000)"
fill="#000000" stroke="none">
<path d="M112 1093 l3 -308 60 0 60 0 0 305 0 305 -63 3 -62 3 2 -308z"/>
<path d="M392 1093 l3 -308 54 0 54 0 -1 305 0 305 -56 3 -56 3 2 -308z"/>
<path d="M709 1393 c0 -7 0 -587 1 -605 0 -12 98 -10 105 2 3 5 6 143 6 307
l1 298 -56 3 c-31 2 -56 -1 -57 -5z"/>
<path d="M1012 1093 l3 -308 54 -3 c30 -2 58 1 62 5 5 5 9 143 9 308 l2 300
-66 3 -66 3 2 -308z"/>
<path d="M1332 1093 l3 -308 60 0 60 0 3 308 2 307 -65 0 -65 0 2 -307z"/>
<path d="M112 353 l3 -308 60 0 60 0 0 305 0 305 -63 3 -62 3 2 -308z"/>
<path d="M388 653 c-1 -4 -1 -143 2 -308 l5 -300 54 0 54 0 0 305 0 305 -56 3
c-30 2 -57 -1 -59 -5z"/>
<path d="M710 655 c-1 -3 -1 -138 -1 -300 0 -162 0 -299 1 -305 0 -13 97 -13
105 0 3 5 6 143 6 307 l1 298 -56 3 c-31 2 -56 1 -56 -3z"/>
<path d="M1012 353 l3 -308 60 0 60 0 5 298 c3 163 4 302 2 307 -2 6 -33 10
-68 10 l-64 0 2 -307z"/>
</g>
</svg>
