<?xml version="1.0" standalone="no"?>
<!DOCTYPE svg PUBLIC "-//W3C//DTD SVG 20010904//EN"
 "http://www.w3.org/TR/2001/REC-SVG-20010904/DTD/svg10.dtd">
<svg version="1.0" xmlns="http://www.w3.org/2000/svg"
 width="624.000000pt" height="590.000000pt" viewBox="0 0 624.000000 590.000000"
 preserveAspectRatio="xMidYMid meet">
<metadata>
Created by potrace 1.16, written by Peter Selinger 2001-2019
</metadata>
<g transform="translate(0.000000,590.000000) scale(0.500000,-0.500000)"
fill="#000000" stroke="none">
<path d="M86 1136 c-8 -6 -8 -488 0 -494 13 -11 101 -4 102 7 4 30 -1 484 -6
487 -7 6 -89 6 -96 0z"/>
<path d="M314 1136 c-2 -2 -4 -6 -4 -7 -3 -130 0 -484 4 -487 7 -6 81 -6 88 0
7 5 7 489 0 494 -7 6 -82 6 -88 0z"/>
<path d="M573 1135 c-4 -4 -6 -479 -3 -491 1 -7 84 -9 92 -2 4 3 7 432 4 488
-1 11 -85 17 -93 5z"/>
<path d="M824 1136 c-7 -5 -7 -488 0 -494 7 -6 91 -6 98 0 4 3 7 417 4 488 0
11 -89 17 -102 6z"/>
<path d="M1083 1135 c-4 -3 -7 -477 -3 -491 1 -6 87 -9 99 -4 8 4 8 10 7 107
-1 51 -1 157 -1 237 2 146 2 146 -4 151 -7 8 -90 8 -98 0z"/>
<path d="M86 536 c-7 -5 -8 -487 -1 -494 5 -6 90 -6 97 0 5 4 10 469 5 488 -2
11 -88 16 -101 6z"/>
<path d="M314 536 c-5 -3 -5 -6 -4 -485 0 -12 4 -13 48 -13 35 0 40 0 44 4 7
5 7 489 0 494 -7 6 -81 6 -88 0z"/>
<path d="M575 538 c-2 -2 -4 -3 -5 -4 -4 -6 -1 -488 3 -492 5 -5 17 -5 82 -4
12 0 11 -12 12 252 0 243 0 243 -5 246 -5 5 -80 6 -87 2z"/>
<path d="M824 536 c-6 -5 -7 -487 -1 -494 10 -11 103 -5 103 7 3 121 0 484 -4
487 -7 6 -91 6 -98 0z"/>
<path d="M1085 538 c-2 -2 -4 -3 -5 -4 -5 -7 -1 -489 4 -492 8 -7 90 -6 97 1
5 5 5 5 4 154 -1 81 0 188 1 237 1 94 1 100 -7 104 -7 3 -88 3 -94 0z"/>
</g>
</svg>
