<?xml version="1.0" standalone="no"?>
<!DOCTYPE svg PUBLIC "-//W3C//DTD SVG 20010904//EN"
 "http://www.w3.org/TR/2001/REC-SVG-20010904/DTD/svg10.dtd">
<svg version="1.0" xmlns="http://www.w3.org/2000/svg"
 width="100.000000pt" height="95.000000pt" viewBox="0 0 100.000000 95.000000"
 preserveAspectRatio="xMidYMid meet">
<metadata>
Created by potrace 1.16, written by Peter Selinger 2001-2019
</metadata>
<g transform="translate(0.000000,95.000000) scale(0.100000,-0.100000)"
fill="#000000" stroke="none">
<path d="M65 908 c-3 -8 -4 -99 -3 -203 l3 -190 40 0 40 0 0 200 0 200 -38 3
c-24 2 -39 -1 -42 -10z"/>
<path d="M257 914 c-4 -4 -7 -96 -7 -205 0 -173 2 -198 16 -203 54 -21 65 20
63 228 -1 157 -6 180 -40 184 -14 2 -28 0 -32 -4z"/>
<path d="M457 883 c-9 -49 -9 -301 -1 -342 6 -27 10 -31 40 -31 l34 0 -2 203
-3 202 -31 3 c-29 3 -32 0 -37 -35z"/>
<path d="M656 898 c-3 -13 -6 -100 -6 -195 0 -182 5 -203 49 -203 38 0 42 21
39 221 l-3 194 -36 3 c-31 3 -37 -1 -43 -20z"/>
<path d="M865 908 c-3 -8 -4 -99 -3 -203 l3 -190 40 0 40 0 0 200 0 200 -38 3
c-24 2 -39 -1 -42 -10z"/>
<path d="M73 434 c-10 -4 -13 -47 -13 -167 0 -89 3 -179 6 -200 6 -35 8 -37
45 -37 l39 0 0 200 c0 153 -3 200 -12 200 -7 0 -22 2 -33 5 -11 2 -26 2 -32
-1z"/>
<path d="M257 434 c-4 -4 -7 -97 -7 -206 l0 -198 34 0 c31 0 34 3 40 37 8 49
6 265 -2 323 -6 39 -11 45 -32 48 -14 2 -29 0 -33 -4z"/>
<path d="M455 399 c-4 -23 -4 -116 0 -206 l7 -163 34 0 34 0 -2 203 -3 202
-32 3 c-29 3 -31 1 -38 -39z"/>
<path d="M663 434 c-10 -4 -13 -52 -13 -189 0 -101 3 -190 6 -199 4 -11 19
-16 45 -16 l39 0 -2 203 -3 202 -30 2 c-16 1 -36 0 -42 -3z"/>
<path d="M867 434 c-4 -4 -7 -97 -7 -206 l0 -199 43 3 42 3 0 200 0 200 -35 3
c-20 2 -39 0 -43 -4z"/>
</g>
</svg>
