<?xml version="1.0" standalone="no"?>
<!DOCTYPE svg PUBLIC "-//W3C//DTD SVG 20010904//EN"
 "http://www.w3.org/TR/2001/REC-SVG-20010904/DTD/svg10.dtd">
<svg version="1.0" xmlns="http://www.w3.org/2000/svg"
 width="156.000000pt" height="148.000000pt" viewBox="0 0 156.000000 148.000000"
 preserveAspectRatio="xMidYMid meet">
<metadata>
Created by potrace 1.16, written by Peter Selinger 2001-2019
</metadata>
<g transform="translate(0.000000,148.000000) scale(0.100000,-0.100000)"
fill="#000000" stroke="none">
<path d="M152 1420 l-53 -5 0 -303 c0 -166 2 -306 5 -310 3 -5 31 -8 63 -7
l58 1 3 311 c2 244 0 312 -10 315 -7 2 -37 1 -66 -2z"/>
<path d="M392 1420 c-8 -6 -10 -619 -2 -621 27 -5 103 -3 106 3 7 11 6 609 -1
616 -7 7 -94 9 -103 2z"/>
<path d="M714 1415 c-3 -6 -3 -147 -2 -315 l3 -305 47 -1 c26 0 52 2 58 6 7 4
9 105 8 316 l-3 309 -54 0 c-29 0 -55 -5 -57 -10z"/>
<path d="M1031 1422 c-17 -6 -15 -622 2 -623 12 -1 107 -1 117 0 4 1 4 546 0
622 0 6 -101 7 -119 1z"/>
<path d="M1353 1417 c-8 -12 -8 -617 0 -618 4 0 33 -1 65 -2 l57 -1 0 314 0
313 -58 1 c-33 1 -61 -2 -64 -7z"/>
<path d="M392 670 c-8 -6 -10 -619 -2 -621 38 -7 101 -6 105 1 8 12 8 611 0
618 -7 7 -94 9 -103 2z"/>
<path d="M714 665 c-3 -6 -3 -147 -2 -315 l3 -305 55 0 55 0 3 313 c1 171 -1
313 -5 313 -36 6 -106 2 -109 -6z"/>
<path d="M1029 669 c-5 -3 -8 -135 -7 -314 l3 -309 63 -2 c34 -1 62 1 62 5 4
80 4 621 0 622 -33 4 -114 3 -121 -2z"/>
<path d="M1353 667 c-6 -10 -6 -604 0 -614 3 -4 31 -8 64 -8 l58 0 0 314 0
314 -58 1 c-33 1 -61 -3 -64 -7z"/>
<path d="M100 663 c-1 -8 -1 -603 0 -613 0 -3 28 -5 63 -5 l62 0 3 313 2 312
-65 0 c-36 0 -65 -3 -65 -7z"/>
</g>
</svg>
