<?xml version="1.0" standalone="no"?>
<!DOCTYPE svg PUBLIC "-//W3C//DTD SVG 20010904//EN"
 "http://www.w3.org/TR/2001/REC-SVG-20010904/DTD/svg10.dtd">
<svg version="1.0" xmlns="http://www.w3.org/2000/svg"
 width="84.000000pt" height="148.000000pt" viewBox="0 0 84.000000 148.000000"
 preserveAspectRatio="xMidYMid meet">
<metadata>
Created by potrace 1.16, written by Peter Selinger 2001-2019
</metadata>
<g transform="translate(0.000000,148.000000) scale(0.100000,-0.100000)"
fill="#000000" stroke="none">
<path d="M228 1383 c-8 -10 -28 -40 -43 -68 -16 -27 -37 -60 -48 -73 -24 -26
-47 -86 -47 -123 0 -34 39 -69 76 -69 35 0 84 45 84 76 0 12 9 29 20 39 11 10
20 24 20 30 0 7 14 29 30 50 17 21 33 48 36 61 6 24 -10 62 -35 81 -24 18 -76
16 -93 -4z"/>
<path d="M613 1376 c-10 -13 -29 -42 -43 -65 -14 -24 -36 -56 -49 -73 -14 -16
-30 -53 -38 -81 -13 -50 -12 -52 14 -79 38 -39 83 -38 117 3 14 17 26 37 26
45 0 8 8 27 19 42 59 86 81 128 81 157 0 66 -88 102 -127 51z"/>
<path d="M617 930 c-14 -11 -29 -35 -33 -52 -3 -18 -10 -39 -15 -48 -25 -45
-59 -136 -59 -160 0 -35 38 -70 76 -70 30 0 74 34 74 57 0 6 7 16 15 23 8 7
15 25 15 40 0 15 6 33 14 39 13 11 19 32 33 109 11 67 -64 106 -120 62z"/>
<path d="M96 897 c-27 -27 -36 -80 -16 -92 6 -3 10 -17 10 -30 0 -13 11 -41
25 -61 14 -20 25 -43 25 -50 0 -19 57 -101 76 -108 28 -11 51 -6 78 15 30 24
36 81 11 113 -8 11 -15 26 -15 34 0 8 -9 25 -20 39 -11 14 -25 43 -30 64 -14
51 -47 88 -87 95 -25 5 -37 1 -57 -19z"/>
<path d="M367 462 c-11 -12 -17 -36 -17 -65 0 -25 -5 -49 -11 -52 -7 -5 -9
-38 -6 -94 3 -50 0 -94 -6 -106 -15 -28 -10 -75 10 -97 26 -29 84 -24 116 10
26 27 27 33 27 134 0 61 4 110 10 113 6 3 10 34 10 69 0 52 -4 66 -23 84 -29
28 -87 29 -110 4z"/>
</g>
</svg>
