<?xml version="1.0" standalone="no"?>
<!DOCTYPE svg PUBLIC "-//W3C//DTD SVG 20010904//EN"
 "http://www.w3.org/TR/2001/REC-SVG-20010904/DTD/svg10.dtd">
<svg version="1.0" xmlns="http://www.w3.org/2000/svg"
 width="57.000000pt" height="100.000000pt" viewBox="0 0 57.000000 100.000000"
 preserveAspectRatio="xMidYMid meet">
<metadata>
Created by potrace 1.16, written by Peter Selinger 2001-2019
</metadata>
<g transform="translate(0.000000,100.000000) scale(0.100000,-0.100000)"
fill="#000000" stroke="none">
<path d="M155 934 c-8 -9 -22 -29 -30 -45 -9 -15 -26 -45 -40 -65 -30 -45 -33
-89 -6 -104 31 -16 59 -12 76 13 41 58 87 144 87 164 1 48 -53 71 -87 37z"/>
<path d="M419 933 c-35 -42 -90 -136 -95 -162 -11 -52 53 -83 89 -43 18 20 58
88 83 140 14 31 14 36 -1 58 -18 28 -56 32 -76 7z"/>
<path d="M412 628 c-6 -8 -25 -51 -41 -97 -37 -100 -32 -124 27 -119 34 3 39
7 66 63 20 41 30 76 30 110 l1 50 -36 3 c-21 2 -40 -2 -47 -10z"/>
<path d="M62 608 c-21 -21 -13 -64 28 -146 41 -82 61 -99 100 -87 37 12 35 50
-5 138 -20 45 -42 88 -47 95 -13 15 -60 16 -76 0z"/>
<path d="M256 317 c-15 -11 -20 -37 -28 -146 -11 -144 -9 -151 40 -151 41 0
62 34 62 99 0 32 3 85 6 118 5 48 3 62 -10 76 -21 20 -46 22 -70 4z"/>
</g>
</svg>
