<?xml version="1.0" standalone="no"?>
<!DOCTYPE svg PUBLIC "-//W3C//DTD SVG 20010904//EN"
 "http://www.w3.org/TR/2001/REC-SVG-20010904/DTD/svg10.dtd">
<svg version="1.0" xmlns="http://www.w3.org/2000/svg"
 width="336.000000pt" height="590.000000pt" viewBox="0 0 336.000000 590.000000"
 preserveAspectRatio="xMidYMid meet">
<metadata>
Created by potrace 1.16, written by Peter Selinger 2001-2019
</metadata>
<g transform="translate(0.000000,590.000000) scale(0.500000,-0.500000)"
fill="#000000" stroke="none">
<path d="M526 1118 c-20 -1 -21 -2 -37 -18 -9 -9 -13 -16 -15 -22 -1 -5 -6
-13 -13 -20 -6 -7 -11 -15 -12 -18 0 -3 -3 -9 -6 -13 -2 -3 -6 -10 -7 -14 -2
-6 -8 -14 -20 -26 -17 -18 -18 -18 -19 -30 -1 -8 -3 -15 -7 -21 -6 -8 -6 -9
-6 -34 0 -29 1 -31 23 -50 l12 -10 26 0 26 1 15 14 c27 24 31 31 33 46 1 13 2
14 13 26 7 7 12 15 12 17 0 2 3 8 7 14 4 6 7 13 7 15 0 2 6 9 13 17 7 8 13 16
13 18 0 2 3 8 6 13 23 37 -6 101 -44 97 -2 -1 -11 -1 -20 -2z"/>
<path d="M195 1114 c-11 -6 -29 -27 -31 -35 -1 -5 -6 -13 -12 -19 -6 -7 -11
-15 -13 -20 -2 -5 -5 -11 -7 -13 -2 -3 -5 -9 -6 -14 -2 -6 -7 -12 -19 -25 -19
-18 -21 -22 -21 -33 0 -5 -2 -12 -6 -18 -6 -11 -6 -11 -6 -37 l1 -26 13 -13
c18 -18 51 -26 72 -17 17 6 47 43 48 59 1 12 2 14 13 25 6 6 11 14 12 17 1 3
4 10 7 15 3 5 6 12 7 15 1 3 7 11 13 18 6 6 12 14 13 17 1 3 4 9 7 14 18 28 8
67 -23 90 -8 6 -52 6 -62 0z"/>
<path d="M511 758 c-9 -3 -32 -27 -36 -38 -2 -5 -5 -12 -8 -15 -2 -3 -4 -11
-5 -18 -1 -8 -3 -15 -6 -19 -2 -3 -5 -10 -7 -14 -2 -5 -5 -11 -7 -13 -3 -3 -5
-9 -6 -18 -1 -7 -4 -16 -6 -19 -2 -3 -5 -9 -8 -15 -2 -5 -6 -12 -8 -14 -5 -6
-6 -51 -2 -60 20 -39 75 -47 105 -15 9 9 13 16 15 22 1 6 6 12 12 19 12 13 14
17 14 36 0 16 1 18 16 33 9 10 9 10 10 28 1 16 2 20 6 27 5 7 6 11 7 27 1 30
0 34 -18 52 l-15 15 -24 0 c-12 1 -26 0 -29 -1z"/>
<path d="M95 732 c-8 -3 -33 -31 -34 -39 -3 -18 0 -44 7 -54 5 -9 6 -11 6 -23
0 -18 2 -22 15 -36 6 -7 11 -14 12 -18 0 -3 3 -9 6 -14 3 -4 5 -9 5 -12 0 -14
3 -21 13 -32 7 -7 12 -14 13 -20 2 -7 7 -13 18 -24 l15 -16 28 0 27 0 15 14
c20 20 28 65 14 80 -3 3 -6 9 -8 14 -2 4 -5 11 -7 13 -2 3 -4 8 -5 12 -1 4 -1
10 -2 14 -1 5 -5 10 -12 18 -6 7 -12 15 -13 19 -1 4 -4 10 -6 13 -3 3 -5 10
-6 18 -1 9 -3 16 -7 21 -2 4 -6 10 -7 15 -9 29 -57 49 -87 37z"/>
<path d="M313 385 c-7 -4 -27 -25 -31 -32 -1 -3 -2 -16 -2 -33 0 -28 0 -29 -5
-37 -6 -8 -6 -8 -7 -83 -1 -75 -1 -75 -7 -85 -9 -12 -10 -50 -3 -62 11 -19 29
-30 51 -31 32 -1 33 -1 56 22 26 26 24 15 24 107 0 80 0 80 6 89 9 13 14 99 6
114 -3 6 -26 29 -32 32 -8 4 -49 3 -56 -1z"/>
</g>
</svg>
