<?xml version="1.0" standalone="no"?>
<!DOCTYPE svg PUBLIC "-//W3C//DTD SVG 20010904//EN"
 "http://www.w3.org/TR/2001/REC-SVG-20010904/DTD/svg10.dtd">
<svg version="1.0" xmlns="http://www.w3.org/2000/svg"
 width="318.000000pt" height="590.000000pt" viewBox="0 0 318.000000 590.000000"
 preserveAspectRatio="xMidYMid meet">
<metadata>
Created by potrace 1.16, written by Peter Selinger 2001-2019
</metadata>
<g transform="translate(0.000000,590.000000) scale(0.500000,-0.500000)"
fill="#000000" stroke="none">
<path d="M59 1119 c-7 -7 -8 -213 -1 -221 8 -10 89 -8 94 2 6 11 3 214 -3 220
-8 7 -83 6 -90 -1z"/>
<path d="M501 1115 c-12 -3 -12 1 -12 -115 0 -130 -6 -116 51 -116 56 0 50
-14 50 115 0 130 6 115 -47 116 -21 0 -40 0 -42 0z"/>
<path d="M275 830 c-9 -5 -9 -8 -9 -116 0 -128 -5 -115 45 -116 40 0 47 0 53
6 6 6 6 215 0 222 -4 6 -80 9 -89 4z"/>
<path d="M53 557 c-9 -4 -9 -1 -9 -114 0 -130 -6 -115 50 -115 57 0 50 -15 51
116 0 112 0 109 -10 113 -9 4 -73 4 -82 0z"/>
<path d="M485 545 c-5 -4 -8 -126 -5 -214 0 -13 79 -21 95 -9 5 4 8 214 3 221
-5 9 -83 11 -93 2z"/>
<path d="M263 264 c-6 -5 -6 -13 -6 -117 1 -127 -5 -113 49 -113 41 0 48 1 51
10 4 17 1 212 -4 217 -6 6 -82 8 -90 3z"/>
</g>
</svg>
