<?xml version="1.0" standalone="no"?>
<!DOCTYPE svg PUBLIC "-//W3C//DTD SVG 20010904//EN"
 "http://www.w3.org/TR/2001/REC-SVG-20010904/DTD/svg10.dtd">
<svg version="1.0" xmlns="http://www.w3.org/2000/svg"
 width="80.000000pt" height="148.000000pt" viewBox="0 0 80.000000 148.000000"
 preserveAspectRatio="xMidYMid meet">
<metadata>
Created by potrace 1.16, written by Peter Selinger 2001-2019
</metadata>
<g transform="translate(0.000000,148.000000) scale(0.100000,-0.100000)"
fill="#000000" stroke="none">
<path d="M72 1259 l3 -141 48 -2 c26 -1 52 3 57 9 4 5 8 70 9 143 l0 132 -60
0 -60 0 3 -141z"/>
<path d="M617 1382 c-3 -9 -4 -73 -3 -142 l1 -125 60 0 60 0 0 133 c1 73 -2
136 -5 140 -3 4 -28 8 -57 9 -41 1 -53 -2 -56 -15z"/>
<path d="M337 1033 c-2 -4 -4 -69 -3 -143 l1 -135 60 0 60 0 0 140 0 140 -57
3 c-31 2 -58 -1 -61 -5z"/>
<path d="M57 693 c-2 -4 -3 -69 -2 -143 l1 -135 59 0 60 0 0 140 0 140 -57 3
c-31 2 -58 -1 -61 -5z"/>
<path d="M600 540 c0 -77 3 -140 8 -141 4 0 30 -1 57 -2 l50 -2 3 143 3 142
-61 0 -60 0 0 -140z"/>
<path d="M324 317 c-2 -7 -3 -71 -2 -143 l3 -129 58 -3 57 -3 0 146 0 145 -55
0 c-37 0 -57 -4 -61 -13z"/>
</g>
</svg>
