<?xml version="1.0" standalone="no"?>
<!DOCTYPE svg PUBLIC "-//W3C//DTD SVG 20010904//EN"
 "http://www.w3.org/TR/2001/REC-SVG-20010904/DTD/svg10.dtd">
<svg version="1.0" xmlns="http://www.w3.org/2000/svg"
 width="322.000000pt" height="590.000000pt" viewBox="0 0 322.000000 590.000000"
 preserveAspectRatio="xMidYMid meet">
<metadata>
Created by potrace 1.16, written by Peter Selinger 2001-2019
</metadata>
<g transform="translate(0.000000,590.000000) scale(0.500000,-0.500000)"
fill="#000000" stroke="none">
<path d="M162 1136 c-8 -2 -33 -26 -35 -32 -1 -3 -2 -57 -1 -121 l1 -117 14
-14 c16 -16 21 -18 42 -18 17 0 23 3 39 19 l13 13 1 115 c1 149 -11 174 -74
155z"/>
<path d="M398 1136 c-4 -1 -11 -6 -21 -16 l-15 -15 1 -117 c0 -64 1 -118 1
-119 1 -14 35 -35 56 -35 18 0 52 22 52 34 2 38 1 236 -1 239 -13 24 -43 36
-73 29z"/>
<path d="M489 772 c-11 -1 -36 -24 -39 -35 0 -3 -1 -67 0 -142 l1 -137 14 -14
c16 -16 21 -18 43 -18 11 0 16 1 20 4 8 5 30 28 30 30 1 44 0 281 -1 283 -13
22 -39 34 -68 29z"/>
<path d="M285 769 c-6 -4 -29 -26 -29 -29 0 -2 0 -66 0 -142 l0 -139 15 -15
c16 -16 39 -22 57 -14 9 4 32 29 32 35 0 3 0 66 0 140 1 79 0 135 -1 137 -14
24 -53 38 -74 27z"/>
<path d="M95 749 c-3 -1 -12 -8 -19 -16 l-13 -13 1 -129 c0 -72 0 -131 0 -132
2 -32 63 -42 90 -15 l16 15 0 130 0 129 -11 13 c-19 20 -44 27 -64 18z"/>
<path d="M182 384 c-3 -1 -11 -8 -19 -16 l-14 -14 -1 -117 c-1 -130 -2 -121
15 -138 26 -27 56 -25 83 4 l13 14 -2 45 c0 24 -1 78 -1 118 l0 74 -15 15
c-10 10 -17 15 -21 16 -10 2 -32 1 -38 -1z"/>
<path d="M398 384 c-32 -9 -34 -19 -35 -153 l-1 -116 13 -13 c16 -18 20 -20
45 -20 l21 0 16 17 17 16 -1 119 c-1 65 -2 120 -3 121 -12 23 -47 37 -72 29z"/>
</g>
</svg>
