<?xml version="1.0" standalone="no"?>
<!DOCTYPE svg PUBLIC "-//W3C//DTD SVG 20010904//EN"
 "http://www.w3.org/TR/2001/REC-SVG-20010904/DTD/svg10.dtd">
<svg version="1.0" xmlns="http://www.w3.org/2000/svg"
 width="80.000000pt" height="148.000000pt" viewBox="0 0 80.000000 148.000000"
 preserveAspectRatio="xMidYMid meet">
<metadata>
Created by potrace 1.16, written by Peter Selinger 2001-2019
</metadata>
<g transform="translate(0.000000,148.000000) scale(0.100000,-0.100000)"
fill="#000000" stroke="none">
<path d="M174 1398 c-18 -21 -20 -37 -19 -172 1 -143 2 -149 24 -167 31 -25
63 -24 89 4 21 22 22 33 22 174 0 149 0 151 -25 167 -34 22 -68 20 -91 -6z"/>
<path d="M467 1402 c-14 -16 -17 -43 -17 -168 0 -137 2 -152 20 -172 27 -28
61 -28 88 1 21 22 22 33 22 174 0 133 -2 152 -18 166 -25 22 -75 21 -95 -1z"/>
<path d="M328 943 c-12 -15 -14 -51 -13 -196 3 -196 9 -217 65 -217 55 0 61
20 61 215 0 153 -2 180 -17 196 -22 24 -76 25 -96 2z"/>
<path d="M572 944 c-10 -11 -13 -60 -13 -197 0 -175 0 -182 21 -199 28 -23 59
-22 88 1 21 19 22 25 22 199 0 161 -2 181 -18 195 -23 21 -82 21 -100 1z"/>
<path d="M95 920 c-15 -17 -17 -40 -18 -185 0 -145 2 -168 18 -185 24 -27 67
-25 92 3 18 20 20 36 21 182 0 149 -1 162 -21 183 -25 27 -68 29 -92 2z"/>
<path d="M202 457 c-21 -22 -22 -33 -22 -168 0 -139 1 -146 23 -167 29 -28 68
-28 92 -2 16 18 18 38 17 171 -1 127 -4 154 -18 170 -23 26 -66 24 -92 -4z"/>
<path d="M467 462 c-14 -16 -17 -43 -17 -170 0 -171 7 -192 66 -192 58 0 64
18 64 192 0 137 -2 157 -18 171 -25 22 -75 21 -95 -1z"/>
</g>
</svg>
