<?xml version="1.0" standalone="no"?>
<!DOCTYPE svg PUBLIC "-//W3C//DTD SVG 20010904//EN"
 "http://www.w3.org/TR/2001/REC-SVG-20010904/DTD/svg10.dtd">
<svg version="1.0" xmlns="http://www.w3.org/2000/svg"
 width="54.000000pt" height="100.000000pt" viewBox="0 0 54.000000 100.000000"
 preserveAspectRatio="xMidYMid meet">
<metadata>
Created by potrace 1.16, written by Peter Selinger 2001-2019
</metadata>
<g transform="translate(0.000000,100.000000) scale(0.100000,-0.100000)"
fill="#000000" stroke="none">
<path d="M121 954 c-22 -16 -23 -21 -19 -120 3 -116 16 -142 61 -130 31 7 37
29 37 143 0 84 -2 93 -22 107 -28 20 -28 20 -57 0z"/>
<path d="M322 954 c-20 -14 -22 -23 -22 -107 0 -51 3 -102 6 -114 7 -25 39
-36 66 -22 16 9 18 23 18 124 0 103 -2 115 -19 125 -25 13 -22 13 -49 -6z"/>
<path d="M231 651 c-10 -6 -15 -41 -18 -122 -6 -130 4 -169 40 -169 42 0 47
16 47 146 0 98 -3 126 -16 138 -17 18 -32 20 -53 7z"/>
<path d="M391 643 c-24 -16 -24 -18 -18 -141 6 -130 10 -142 53 -142 38 0 44
18 44 142 0 105 -2 120 -20 138 -24 24 -29 25 -59 3z"/>
<path d="M62 628 c-17 -17 -17 -239 0 -256 15 -15 51 -15 66 0 8 8 12 51 12
130 0 106 -2 118 -19 128 -26 13 -44 13 -59 -2z"/>
<path d="M140 310 c-17 -17 -20 -33 -20 -115 0 -82 3 -98 20 -115 24 -24 30
-24 56 -6 17 13 19 27 18 122 -1 92 -3 109 -19 120 -25 18 -31 18 -55 -6z"/>
<path d="M319 314 c-16 -19 -25 -145 -15 -199 8 -41 36 -61 66 -45 18 10 20
21 20 125 0 103 -2 115 -19 125 -27 14 -36 13 -52 -6z"/>
</g>
</svg>
