<?xml version="1.0" standalone="no"?>
<!DOCTYPE svg PUBLIC "-//W3C//DTD SVG 20010904//EN"
 "http://www.w3.org/TR/2001/REC-SVG-20010904/DTD/svg10.dtd">
<svg version="1.0" xmlns="http://www.w3.org/2000/svg"
 width="76.000000pt" height="148.000000pt" viewBox="0 0 76.000000 148.000000"
 preserveAspectRatio="xMidYMid meet">
<metadata>
Created by potrace 1.16, written by Peter Selinger 2001-2019
</metadata>
<g transform="translate(0.000000,148.000000) scale(0.100000,-0.100000)"
fill="#000000" stroke="none">
<path d="M62 1268 l3 -183 46 -3 c32 -2 48 1 50 10 2 7 3 91 1 186 l-3 172
-50 0 -49 0 2 -182z"/>
<path d="M574 1263 l1 -188 50 0 50 0 0 185 0 185 -51 3 -50 3 0 -188z"/>
<path d="M309 1396 c-4 -40 0 -367 5 -375 8 -13 65 -15 84 -3 9 7 12 52 10
193 l-3 184 -47 3 c-27 2 -48 1 -49 -2z"/>
<path d="M309 903 c0 -8 0 -351 1 -366 0 -4 21 -7 48 -5 l47 3 3 188 2 187
-50 0 c-27 0 -50 -3 -51 -7z"/>
<path d="M75 861 c-3 -2 -5 -89 -5 -193 l0 -188 50 0 50 0 0 180 c0 99 1 183
3 188 2 8 -91 21 -98 13z"/>
<path d="M577 853 c-2 -4 -4 -89 -3 -188 l1 -180 50 0 50 0 0 185 0 185 -47 3
c-25 2 -48 -1 -51 -5z"/>
<path d="M418 400 c-1 -5 -2 -91 0 -190 l3 -180 49 0 50 0 0 190 0 190 -49 0
c-27 0 -51 -4 -53 -10z"/>
<path d="M210 215 l0 -185 50 0 50 0 0 185 0 185 -50 0 -50 0 0 -185z"/>
</g>
</svg>
