<?xml version="1.0" standalone="no"?>
<!DOCTYPE svg PUBLIC "-//W3C//DTD SVG 20010904//EN"
 "http://www.w3.org/TR/2001/REC-SVG-20010904/DTD/svg10.dtd">
<svg version="1.0" xmlns="http://www.w3.org/2000/svg"
 width="51.000000pt" height="100.000000pt" viewBox="0 0 51.000000 100.000000"
 preserveAspectRatio="xMidYMid meet">
<metadata>
Created by potrace 1.16, written by Peter Selinger 2001-2019
</metadata>
<g transform="translate(0.000000,100.000000) scale(0.100000,-0.100000)"
fill="#000000" stroke="none">
<path d="M47 973 c-4 -3 -7 -60 -7 -125 l0 -118 35 0 35 0 0 125 0 125 -28 0
c-16 0 -32 -3 -35 -7z"/>
<path d="M386 934 c-8 -59 -8 -177 0 -198 7 -19 45 -21 62 -4 13 13 17 161 6
217 -5 26 -11 31 -34 31 -25 0 -28 -4 -34 -46z"/>
<path d="M204 936 c-10 -27 0 -234 13 -247 7 -7 22 -9 38 -5 l26 7 -3 127 -3
127 -33 3 c-22 2 -34 -2 -38 -12z"/>
<path d="M207 613 c-11 -10 -8 -223 3 -244 6 -10 19 -19 30 -19 30 0 40 32 40
132 0 121 -5 138 -39 138 -15 0 -31 -3 -34 -7z"/>
<path d="M45 516 c-4 -41 -4 -102 0 -135 7 -59 8 -61 36 -61 24 0 29 5 34 33
3 17 5 77 3 132 l-3 100 -32 3 -31 3 -7 -75z"/>
<path d="M386 558 c-9 -34 -7 -211 3 -226 5 -8 21 -12 37 -10 l29 3 3 105 c4
135 0 150 -37 150 -21 0 -30 -6 -35 -22z"/>
<path d="M147 273 c-4 -3 -7 -59 -7 -124 0 -101 2 -119 17 -128 11 -6 24 -6
35 0 16 8 18 25 18 128 0 99 -3 120 -16 125 -20 8 -39 8 -47 -1z"/>
<path d="M284 267 c-2 -7 -3 -65 -2 -128 l3 -114 33 -3 32 -3 0 130 0 131 -30
0 c-17 0 -33 -6 -36 -13z"/>
</g>
</svg>
