<?xml version="1.0" standalone="no"?>
<!DOCTYPE svg PUBLIC "-//W3C//DTD SVG 20010904//EN"
 "http://www.w3.org/TR/2001/REC-SVG-20010904/DTD/svg10.dtd">
<svg version="1.0" xmlns="http://www.w3.org/2000/svg"
 width="300.000000pt" height="590.000000pt" viewBox="0 0 300.000000 590.000000"
 preserveAspectRatio="xMidYMid meet">
<metadata>
Created by potrace 1.16, written by Peter Selinger 2001-2019
</metadata>
<g transform="translate(0.000000,590.000000) scale(0.500000,-0.500000)"
fill="#000000" stroke="none">
<path d="M58 1161 c-5 -3 -6 -14 -6 -150 -1 -166 -6 -147 38 -147 31 0 40 2
42 8 2 4 1 277 -1 282 -2 7 -59 12 -73 7z"/>
<path d="M460 1158 c-4 -4 -8 -285 -4 -292 4 -8 10 -9 43 -9 45 0 40 -20 39
150 0 138 -1 150 -7 153 -5 4 -67 2 -71 -2z"/>
<path d="M257 1119 c-14 -2 -13 7 -14 -151 0 -79 0 -145 1 -147 5 -13 76 -13
81 0 5 10 2 289 -3 294 -4 4 -47 6 -65 4z"/>
<path d="M247 725 c-4 -4 -6 -275 -2 -292 2 -10 65 -14 76 -5 8 7 9 290 2 297
-7 7 -69 7 -76 0z"/>
<path d="M62 688 c-7 -5 -7 -293 0 -298 8 -6 66 -6 73 1 6 6 7 290 0 297 -5 6
-66 6 -73 0z"/>
<path d="M465 685 c-10 -4 -10 -1 -10 -149 0 -141 0 -141 4 -145 7 -7 70 -8
76 -1 4 5 5 282 1 290 -4 8 -56 12 -71 5z"/>
<path d="M345 329 c-13 -3 -12 7 -11 -165 0 -157 -5 -139 40 -140 50 -1 44
-20 44 151 0 152 0 149 -11 153 -5 2 -53 2 -62 1z"/>
<path d="M180 323 c-15 -3 -14 4 -14 -150 0 -168 -5 -149 40 -149 47 0 42 -19
42 150 0 166 4 148 -30 148 -12 0 -24 0 -27 1 -3 0 -8 0 -11 0z"/>
</g>
</svg>
