<?xml version="1.0" standalone="no"?>
<!DOCTYPE svg PUBLIC "-//W3C//DTD SVG 20010904//EN"
 "http://www.w3.org/TR/2001/REC-SVG-20010904/DTD/svg10.dtd">
<svg version="1.0" xmlns="http://www.w3.org/2000/svg"
 width="258.000000pt" height="590.000000pt" viewBox="0 0 258.000000 590.000000"
 preserveAspectRatio="xMidYMid meet">
<metadata>
Created by potrace 1.16, written by Peter Selinger 2001-2019
</metadata>
<g transform="translate(0.000000,590.000000) scale(0.500000,-0.500000)"
fill="#000000" stroke="none">
<path d="M127 1113 c-5 -3 -10 -15 -22 -53 -9 -28 -16 -47 -26 -75 -42 -113
-42 -133 -2 -133 25 0 25 0 45 58 8 26 22 64 29 85 26 75 27 77 27 96 0 23
-31 37 -51 22z"/>
<path d="M252 1114 c-8 -3 -14 -10 -15 -18 -1 -4 -4 -12 -7 -18 -5 -9 -6 -13
-6 -28 0 -20 -4 -39 -11 -55 -3 -6 -5 -13 -5 -15 0 -2 -2 -8 -5 -13 -3 -6 -6
-15 -7 -24 -1 -11 -4 -20 -10 -32 -19 -39 -11 -60 23 -59 29 1 29 1 45 61 3
11 8 30 12 42 4 12 9 31 13 42 3 11 9 32 14 47 20 60 3 87 -41 70z"/>
<path d="M393 1110 c-9 -4 -17 -30 -17 -57 0 -7 -2 -13 -7 -23 -9 -17 -13 -31
-15 -52 -1 -16 -2 -18 -9 -30 -12 -17 -15 -27 -15 -53 -1 -41 0 -42 21 -44 28
-3 38 2 43 22 1 7 5 20 8 30 3 10 6 19 6 21 0 2 4 16 9 31 5 15 11 37 14 47 3
10 8 28 12 40 18 56 -4 87 -50 68z"/>
<path d="M47 748 c-9 -4 -10 -8 -10 -29 0 -21 0 -20 17 -74 3 -10 8 -29 12
-42 4 -13 10 -33 13 -45 4 -12 10 -34 15 -51 14 -51 14 -53 19 -57 7 -7 42 -7
49 -1 6 6 6 30 -2 55 -3 10 -9 28 -12 40 -3 12 -10 32 -14 46 -12 38 -14 50
-12 58 2 8 1 11 -6 19 -3 4 -6 10 -7 14 -10 55 -33 80 -62 67z"/>
<path d="M174 749 c-19 -4 -17 -15 23 -134 23 -65 29 -89 29 -109 0 -9 1 -13
5 -18 3 -4 5 -11 6 -16 3 -17 19 -28 42 -28 38 0 39 13 3 114 -8 22 -32 96
-44 134 -18 58 -25 64 -64 57z"/>
<path d="M329 745 c-11 -9 -8 -43 10 -100 5 -15 10 -34 12 -41 2 -7 4 -17 6
-23 1 -5 8 -32 14 -58 20 -84 17 -79 45 -79 28 0 36 24 24 64 -2 6 -7 22 -10
36 -7 31 -21 87 -25 103 -2 6 -4 16 -6 23 -2 6 -6 23 -9 38 -9 40 -11 42 -39
42 -15 0 -17 -1 -22 -5z"/>
<path d="M136 374 c-13 -3 -19 -18 -38 -94 -1 -5 -7 -24 -13 -42 -6 -18 -14
-44 -17 -57 -4 -13 -10 -32 -13 -43 -6 -15 -7 -22 -7 -37 -1 -29 1 -31 27 -31
29 0 27 -3 51 86 5 17 11 40 15 52 4 12 9 31 13 44 3 13 10 34 15 48 19 58 8
84 -33 74z"/>
<path d="M421 374 c-8 -2 -13 -9 -18 -23 -2 -5 -6 -14 -10 -20 -5 -7 -8 -14
-10 -26 -5 -29 -7 -34 -12 -45 -3 -6 -5 -13 -5 -15 0 -2 -2 -8 -5 -13 -3 -6
-6 -14 -6 -19 -1 -6 -4 -15 -7 -21 -2 -6 -7 -18 -10 -27 -3 -9 -7 -20 -10 -26
-24 -61 -22 -69 18 -69 31 0 36 3 39 21 2 14 11 44 17 59 3 7 12 31 19 54 7
23 15 43 16 46 2 3 7 17 11 29 4 13 11 34 16 47 15 44 1 61 -43 48z"/>
<path d="M266 371 c-7 -9 -18 -31 -19 -40 0 -5 -3 -14 -5 -20 -2 -5 -9 -25
-16 -44 -22 -65 -32 -90 -35 -96 -8 -18 -25 -70 -25 -81 0 -31 60 -28 66 3 1
7 5 18 7 25 3 7 10 26 15 41 12 35 23 66 33 92 32 88 37 109 27 119 -6 6 -44
6 -48 1z"/>
</g>
</svg>
