<?xml version="1.0" standalone="no"?>
<!DOCTYPE svg PUBLIC "-//W3C//DTD SVG 20010904//EN"
 "http://www.w3.org/TR/2001/REC-SVG-20010904/DTD/svg10.dtd">
<svg version="1.0" xmlns="http://www.w3.org/2000/svg"
 width="64.000000pt" height="148.000000pt" viewBox="0 0 64.000000 148.000000"
 preserveAspectRatio="xMidYMid meet">
<metadata>
Created by potrace 1.16, written by Peter Selinger 2001-2019
</metadata>
<g transform="translate(0.000000,148.000000) scale(0.100000,-0.100000)"
fill="#000000" stroke="none">
<path d="M153 1388 c-5 -7 -31 -78 -57 -157 -47 -137 -48 -145 -31 -158 23
-16 40 -17 53 0 18 23 105 295 99 311 -8 19 -51 21 -64 4z"/>
<path d="M301 1386 c-7 -8 -14 -31 -17 -53 -5 -36 -31 -124 -60 -204 -13 -37
-9 -52 16 -61 22 -8 60 9 60 27 0 9 16 70 36 137 19 66 34 130 32 142 -4 26
-49 34 -67 12z"/>
<path d="M477 1383 c-4 -3 -7 -21 -7 -39 0 -17 -7 -45 -15 -60 -8 -16 -15 -40
-15 -54 0 -14 -7 -36 -16 -48 -10 -14 -14 -38 -12 -69 3 -46 4 -48 32 -48 33
0 25 -16 85 186 17 58 29 114 25 123 -6 16 -63 23 -77 9z"/>
<path d="M53 933 c-20 -7 -16 -35 23 -172 63 -219 57 -206 90 -206 41 0 41 23
5 146 -17 56 -29 105 -26 109 3 4 -2 21 -10 36 -8 16 -15 37 -15 46 0 33 -35
54 -67 41z"/>
<path d="M197 933 c-3 -5 10 -56 29 -113 19 -58 41 -134 50 -170 9 -36 23 -73
31 -82 20 -22 62 -23 69 -3 5 13 -84 312 -105 355 -9 16 -66 26 -74 13z"/>
<path d="M402 923 c-6 -10 -5 -34 4 -67 7 -28 25 -100 40 -161 33 -136 35
-140 70 -140 28 0 29 1 25 44 -1 25 -14 88 -28 140 -14 53 -28 114 -32 136 -4
23 -11 46 -15 53 -11 18 -54 15 -64 -5z"/>
<path d="M155 459 c-9 -14 -94 -291 -102 -331 -4 -22 0 -30 21 -39 37 -17 50
-1 70 81 10 38 31 111 47 162 35 108 35 132 -3 136 -14 2 -29 -2 -33 -9z"/>
<path d="M332 462 c-7 -5 -35 -73 -63 -153 -73 -211 -73 -210 -57 -220 11 -7
57 -5 62 3 2 3 64 183 99 284 11 34 17 69 14 78 -7 17 -34 21 -55 8z"/>
<path d="M514 458 c-18 -24 -40 -81 -86 -220 -48 -143 -48 -158 -2 -158 28 0
54 25 54 52 0 12 23 84 51 160 28 76 49 146 47 156 -4 21 -51 28 -64 10z"/>
</g>
</svg>
