<?xml version="1.0" standalone="no"?>
<!DOCTYPE svg PUBLIC "-//W3C//DTD SVG 20010904//EN"
 "http://www.w3.org/TR/2001/REC-SVG-20010904/DTD/svg10.dtd">
<svg version="1.0" xmlns="http://www.w3.org/2000/svg"
 width="43.000000pt" height="100.000000pt" viewBox="0 0 43.000000 100.000000"
 preserveAspectRatio="xMidYMid meet">
<metadata>
Created by potrace 1.16, written by Peter Selinger 2001-2019
</metadata>
<g transform="translate(0.000000,100.000000) scale(0.100000,-0.100000)"
fill="#000000" stroke="none">
<path d="M96 928 c-7 -13 -26 -61 -41 -106 -24 -73 -25 -86 -13 -98 8 -8 21
-12 30 -9 18 7 80 198 72 220 -9 22 -31 18 -48 -7z"/>
<path d="M203 938 c-15 -21 -56 -205 -49 -217 11 -17 34 -13 44 7 18 35 54
191 49 206 -8 19 -31 21 -44 4z"/>
<path d="M328 939 c-10 -5 -18 -20 -18 -33 0 -13 -9 -49 -20 -81 -31 -89 -25
-124 18 -111 27 9 80 199 62 221 -15 17 -19 18 -42 4z"/>
<path d="M30 608 c0 -41 45 -205 61 -224 15 -18 38 -18 45 1 6 16 -52 222 -68
243 -20 23 -38 13 -38 -20z"/>
<path d="M138 628 c-3 -7 7 -54 23 -103 15 -50 28 -99 28 -110 1 -26 19 -45
42 -45 29 0 28 22 -10 145 -30 100 -40 120 -57 123 -12 2 -24 -3 -26 -10z"/>
<path d="M271 626 c-9 -11 -5 -39 18 -127 17 -62 35 -117 40 -122 16 -16 41 1
41 29 0 28 -35 176 -50 212 -11 25 -32 29 -49 8z"/>
<path d="M101 306 c-6 -7 -25 -61 -42 -121 -28 -98 -29 -109 -15 -123 14 -14
18 -14 30 -2 17 19 79 229 72 247 -7 17 -30 17 -45 -1z"/>
<path d="M217 313 c-3 -5 -22 -58 -42 -120 -38 -112 -40 -147 -8 -141 13 2 30
37 59 123 23 66 39 126 37 133 -6 13 -39 17 -46 5z"/>
<path d="M322 268 c-71 -195 -75 -223 -31 -216 17 2 29 24 60 113 46 132 49
155 15 155 -20 0 -28 -9 -44 -52z"/>
</g>
</svg>
