<?xml version="1.0" standalone="no"?>
<!DOCTYPE svg PUBLIC "-//W3C//DTD SVG 20010904//EN"
 "http://www.w3.org/TR/2001/REC-SVG-20010904/DTD/svg10.dtd">
<svg version="1.0" xmlns="http://www.w3.org/2000/svg"
 width="200.000000pt" height="590.000000pt" viewBox="0 0 200.000000 590.000000"
 preserveAspectRatio="xMidYMid meet">
<metadata>
Created by potrace 1.16, written by Peter Selinger 2001-2019
</metadata>
<g transform="translate(0.000000,590.000000) scale(0.500000,-0.500000)"
fill="#000000" stroke="none">
<path d="M99 1172 c-9 -4 -9 14 -9 -579 0 -570 0 -570 5 -574 11 -10 49 -5 53
5 4 14 1 1140 -4 1144 -5 5 -36 8 -45 4z"/>
<path d="M258 1172 c-3 -1 -7 -3 -9 -4 -2 -2 -5 -1121 -3 -1139 5 -42 59 -19
59 25 1 601 -1 1110 -5 1114 -4 5 -28 8 -42 4z"/>
</g>
</svg>
