<?xml version="1.0" standalone="no"?>
<!DOCTYPE svg PUBLIC "-//W3C//DTD SVG 20010904//EN"
 "http://www.w3.org/TR/2001/REC-SVG-20010904/DTD/svg10.dtd">
<svg version="1.0" xmlns="http://www.w3.org/2000/svg"
 width="210.000000pt" height="550.000000pt" viewBox="0 0 210.000000 550.000000"
 preserveAspectRatio="xMidYMid meet">
<metadata>
Created by potrace 1.16, written by Peter Selinger 2001-2019
</metadata>
<g transform="translate(0.000000,550.000000) scale(0.500000,-0.500000)"
fill="#000000" stroke="none">
<path d="M41 1077 c-4 -1 -8 -3 -9 -4 -3 -4 -3 -1041 0 -1047 4 -7 40 -8 45
-1 3 4 4 1042 1 1047 -3 5 -19 7 -37 5z"/>
<path d="M180 1076 c-10 -3 -10 22 -9 -529 0 -495 0 -519 4 -522 5 -6 38 -7
45 -2 6 5 7 1044 1 1051 -3 3 -32 5 -41 2z"/>
<path d="M346 1077 c-2 -1 -5 -3 -6 -5 -4 -8 -3 -1044 1 -1048 5 -4 39 -4 44
0 5 5 5 1044 0 1049 -3 4 -29 6 -39 4z"/>
</g>
</svg>
