<?xml version="1.0" standalone="no"?>
<!DOCTYPE svg PUBLIC "-//W3C//DTD SVG 20010904//EN"
 "http://www.w3.org/TR/2001/REC-SVG-20010904/DTD/svg10.dtd">
<svg version="1.0" xmlns="http://www.w3.org/2000/svg"
 width="296.000000pt" height="548.000000pt" viewBox="0 0 296.000000 548.000000"
 preserveAspectRatio="xMidYMid meet">
<metadata>
Created by potrace 1.16, written by Peter Selinger 2001-2019
</metadata>
<g transform="translate(0.000000,548.000000) scale(0.500000,-0.500000)"
fill="#000000" stroke="none">
<path d="M37 1076 c-9 -4 -9 12 -9 -525 0 -512 0 -515 4 -519 8 -8 42 -5 45 4
2 5 1 1030 -1 1034 -4 7 -28 11 -39 6z"/>
<path d="M512 1074 c-3 -3 -4 -7 -4 -12 -2 -589 0 -1027 4 -1031 17 -17 46 -2
47 23 2 149 -1 1016 -5 1020 -3 3 -7 4 -21 4 -14 0 -18 -1 -21 -4z"/>
<path d="M179 1074 c-7 -4 -7 -3 -7 -523 0 -502 0 -513 4 -517 5 -6 39 -8 45
-2 6 6 5 1037 0 1041 -4 3 -38 4 -42 1z"/>
<path d="M351 1074 c-9 -4 -9 12 -9 -523 0 -496 0 -513 4 -517 5 -5 41 -7 48
-3 4 3 7 1027 2 1040 -2 5 -34 8 -45 3z"/>
</g>
</svg>
