<?xml version="1.0" standalone="no"?>
<!DOCTYPE svg PUBLIC "-//W3C//DTD SVG 20010904//EN"
 "http://www.w3.org/TR/2001/REC-SVG-20010904/DTD/svg10.dtd">
<svg version="1.0" xmlns="http://www.w3.org/2000/svg"
 width="54.000000pt" height="100.000000pt" viewBox="0 0 54.000000 100.000000"
 preserveAspectRatio="xMidYMid meet">
<metadata>
Created by potrace 1.16, written by Peter Selinger 2001-2019
</metadata>
<g transform="translate(0.000000,100.000000) scale(0.100000,-0.100000)"
fill="#000000" stroke="none">
<path d="M465 978 c-3 -7 -4 -224 -3 -483 3 -462 3 -470 23 -470 20 0 20 7 20
480 0 449 -1 480 -18 483 -9 2 -19 -2 -22 -10z"/>
<path d="M30 500 c0 -463 1 -480 19 -480 18 0 19 13 23 238 2 130 2 346 0 480
-4 229 -5 242 -23 242 -18 0 -19 -17 -19 -480z"/>
<path d="M160 501 c0 -473 0 -481 20 -481 12 0 22 9 25 22 3 13 4 228 3 478
l-3 455 -22 3 -23 3 0 -480z"/>
<path d="M307 973 c-8 -8 -7 -602 2 -803 6 -141 7 -145 29 -148 l22 -3 0 480
0 481 -23 0 c-13 0 -27 -3 -30 -7z"/>
</g>
</svg>
