<?xml version="1.0" standalone="no"?>
<!DOCTYPE svg PUBLIC "-//W3C//DTD SVG 20010904//EN"
 "http://www.w3.org/TR/2001/REC-SVG-20010904/DTD/svg10.dtd">
<svg version="1.0" xmlns="http://www.w3.org/2000/svg"
 width="444.000000pt" height="590.000000pt" viewBox="0 0 444.000000 590.000000"
 preserveAspectRatio="xMidYMid meet">
<metadata>
Created by potrace 1.16, written by Peter Selinger 2001-2019
</metadata>
<g transform="translate(0.000000,590.000000) scale(0.500000,-0.500000)"
fill="#000000" stroke="none">
<path d="M44 1153 c-11 -5 -10 44 -10 -564 0 -557 0 -557 5 -561 9 -6 39 -6
46 1 7 7 7 1114 0 1120 -3 4 -34 6 -41 4z"/>
<path d="M408 1152 c-5 -1 -10 -3 -12 -6 -6 -7 -6 -1110 0 -1116 8 -8 39 -8
48 1 7 6 7 1110 0 1116 -6 5 -22 7 -36 5z"/>
<path d="M206 1149 c-6 -6 -7 -1114 0 -1119 8 -7 41 -7 47 0 5 6 5 1112 0
1118 -5 6 -40 6 -47 1z"/>
<path d="M592 1150 c-3 -1 -6 -4 -7 -5 -1 -5 -1 -1108 0 -1112 4 -10 48 -10
52 0 4 11 1 1110 -3 1114 -5 5 -33 7 -42 3z"/>
<path d="M803 1147 c-8 -8 -8 -1108 0 -1116 7 -7 35 -7 42 0 8 8 8 1108 0
1116 -4 4 -6 5 -21 5 -15 0 -17 -1 -21 -5z"/>
</g>
</svg>
