<?xml version="1.0" standalone="no"?>
<!DOCTYPE svg PUBLIC "-//W3C//DTD SVG 20010904//EN"
 "http://www.w3.org/TR/2001/REC-SVG-20010904/DTD/svg10.dtd">
<svg version="1.0" xmlns="http://www.w3.org/2000/svg"
 width="76.000000pt" height="100.000000pt" viewBox="0 0 76.000000 100.000000"
 preserveAspectRatio="xMidYMid meet">
<metadata>
Created by potrace 1.16, written by Peter Selinger 2001-2019
</metadata>
<g transform="translate(0.000000,100.000000) scale(0.100000,-0.100000)"
fill="#000000" stroke="none">
<path d="M26 735 c-4 -134 -4 -350 0 -480 6 -214 8 -235 24 -235 10 0 21 7 24
16 8 20 8 908 0 928 -3 9 -14 16 -24 16 -16 0 -18 -21 -24 -245z"/>
<path d="M177 974 c-4 -4 -7 -220 -7 -480 0 -399 2 -473 14 -477 34 -13 36 14
34 489 -3 414 -5 469 -18 472 -9 1 -19 0 -23 -4z"/>
<path d="M337 973 c-4 -3 -7 -219 -7 -480 l0 -473 23 0 24 0 7 240 c4 132 4
348 0 480 -6 215 -9 240 -24 240 -9 0 -20 -3 -23 -7z"/>
<path d="M498 738 c-3 -134 -3 -350 0 -480 4 -218 6 -238 22 -238 10 0 21 7
24 16 8 20 8 908 0 928 -3 9 -14 16 -24 16 -16 0 -17 -21 -22 -242z"/>
<path d="M687 974 c-4 -4 -7 -221 -7 -481 l0 -474 23 3 22 3 0 475 c0 421 -2
475 -15 478 -9 1 -19 0 -23 -4z"/>
</g>
</svg>
