<?xml version="1.0" standalone="no"?>
<!DOCTYPE svg PUBLIC "-//W3C//DTD SVG 20010904//EN"
 "http://www.w3.org/TR/2001/REC-SVG-20010904/DTD/svg10.dtd">
<svg version="1.0" xmlns="http://www.w3.org/2000/svg"
 width="522.000000pt" height="590.000000pt" viewBox="0 0 522.000000 590.000000"
 preserveAspectRatio="xMidYMid meet">
<metadata>
Created by potrace 1.16, written by Peter Selinger 2001-2019
</metadata>
<g transform="translate(0.000000,590.000000) scale(0.500000,-0.500000)"
fill="#000000" stroke="none">
<path d="M63 1135 c-5 -5 -6 -1079 -1 -1083 4 -5 61 -4 65 0 6 6 5 1078 -1
1082 -7 6 -58 6 -63 1z"/>
<path d="M219 1136 c-8 -3 -8 -6 -7 -278 1 -146 1 -385 0 -531 -1 -292 -2
-272 6 -276 9 -5 50 -4 56 1 7 5 7 1077 0 1082 -5 4 -47 6 -55 2z"/>
<path d="M390 1135 c-6 -5 -7 -1077 -1 -1083 5 -5 53 -6 59 -1 6 6 7 1080 1
1084 -6 5 -53 4 -59 0z"/>
<path d="M565 1135 c-6 -4 -6 -9 -4 -337 1 -178 1 -409 0 -525 -2 -209 -2
-219 5 -223 7 -4 51 -3 56 2 6 5 7 1079 1 1083 -5 4 -53 4 -58 0z"/>
<path d="M732 1135 c-7 -6 -7 -1078 0 -1083 7 -6 57 -6 64 0 6 5 7 1075 1
1082 -5 6 -58 6 -65 1z"/>
<path d="M905 1134 c-6 -6 -5 -1078 1 -1082 6 -5 59 -6 65 -1 6 4 6 1078 1
1084 -6 5 -62 5 -67 -1z"/>
</g>
</svg>
