<?xml version="1.0" standalone="no"?>
<!DOCTYPE svg PUBLIC "-//W3C//DTD SVG 20010904//EN"
 "http://www.w3.org/TR/2001/REC-SVG-20010904/DTD/svg10.dtd">
<svg version="1.0" xmlns="http://www.w3.org/2000/svg"
 width="88.000000pt" height="100.000000pt" viewBox="0 0 88.000000 100.000000"
 preserveAspectRatio="xMidYMid meet">
<metadata>
Created by potrace 1.16, written by Peter Selinger 2001-2019
</metadata>
<g transform="translate(0.000000,100.000000) scale(0.100000,-0.100000)"
fill="#000000" stroke="none">
<path d="M56 961 c-12 -19 -18 -363 -11 -633 6 -242 10 -288 22 -293 42 -15
43 -4 43 464 0 334 -3 450 -12 459 -14 14 -35 16 -42 3z"/>
<path d="M187 964 c-4 -4 -7 -213 -7 -465 0 -417 1 -457 17 -463 9 -4 20 -3
25 2 4 4 7 215 6 467 -3 406 -5 460 -18 463 -9 1 -19 0 -23 -4z"/>
<path d="M332 958 c-9 -9 -12 -119 -12 -459 0 -383 2 -448 15 -459 8 -7 22
-10 30 -6 13 5 15 61 13 468 -3 405 -5 463 -18 466 -9 1 -21 -3 -28 -10z"/>
<path d="M477 963 c-4 -3 -7 -212 -7 -464 0 -413 2 -457 16 -463 43 -17 44 -7
44 463 0 452 -1 471 -35 471 -7 0 -15 -3 -18 -7z"/>
<path d="M622 958 c-9 -9 -12 -120 -12 -464 0 -392 2 -453 15 -458 8 -3 22 -3
30 0 13 5 15 64 13 467 -3 404 -5 462 -18 465 -9 1 -21 -3 -28 -10z"/>
<path d="M766 958 c-11 -34 -17 -394 -10 -642 l7 -276 27 0 27 0 6 212 c8 247
7 544 -2 643 -5 63 -8 70 -29 73 -12 2 -24 -3 -26 -10z"/>
</g>
</svg>
