<?xml version="1.0" standalone="no"?>
<!DOCTYPE svg PUBLIC "-//W3C//DTD SVG 20010904//EN"
 "http://www.w3.org/TR/2001/REC-SVG-20010904/DTD/svg10.dtd">
<svg version="1.0" xmlns="http://www.w3.org/2000/svg"
 width="100.000000pt" height="96.000000pt" viewBox="0 0 100.000000 96.000000"
 preserveAspectRatio="xMidYMid meet">
<metadata>
Created by potrace 1.16, written by Peter Selinger 2001-2019
</metadata>
<g transform="translate(0.000000,96.000000) scale(0.100000,-0.100000)"
fill="#000000" stroke="none">
<path d="M47 705 c-4 -124 -4 -326 0 -450 6 -223 6 -225 28 -225 21 0 22 4 28
158 9 202 9 499 0 635 -6 101 -7 107 -28 107 -22 0 -22 -2 -28 -225z"/>
<path d="M175 918 c-3 -7 -4 -209 -3 -448 l3 -435 25 0 25 0 0 445 0 445 -23
3 c-12 2 -24 -3 -27 -10z"/>
<path d="M315 918 c-3 -7 -4 -209 -3 -448 l3 -435 25 0 25 0 0 445 0 445 -23
3 c-12 2 -24 -3 -27 -10z"/>
<path d="M455 918 c-3 -7 -4 -209 -3 -448 l3 -435 25 0 25 0 0 445 0 445 -23
3 c-12 2 -24 -3 -27 -10z"/>
<path d="M588 683 c-1 -136 -1 -338 2 -448 l5 -200 25 0 25 0 0 445 0 445 -27
3 -26 3 -4 -248z"/>
<path d="M735 918 c-3 -7 -4 -209 -3 -448 l3 -435 25 0 25 0 0 445 0 445 -23
3 c-12 2 -24 -3 -27 -10z"/>
<path d="M875 918 c-3 -7 -4 -209 -3 -448 l3 -435 25 0 25 0 3 448 2 447 -25
0 c-14 0 -28 -6 -30 -12z"/>
</g>
</svg>
