<?xml version="1.0" standalone="no"?>
<!DOCTYPE svg PUBLIC "-//W3C//DTD SVG 20010904//EN"
 "http://www.w3.org/TR/2001/REC-SVG-20010904/DTD/svg10.dtd">
<svg version="1.0" xmlns="http://www.w3.org/2000/svg"
 width="758.000000pt" height="590.000000pt" viewBox="0 0 758.000000 590.000000"
 preserveAspectRatio="xMidYMid meet">
<metadata>
Created by potrace 1.16, written by Peter Selinger 2001-2019
</metadata>
<g transform="translate(0.000000,590.000000) scale(0.500000,-0.500000)"
fill="#000000" stroke="none">
<path d="M203 1133 c-4 -1 -8 -3 -9 -4 -4 -5 -3 -1077 1 -1081 5 -5 50 -5 59
0 2 1 3 76 3 530 0 291 1 533 1 537 0 12 -2 15 -10 17 -7 2 -32 2 -45 1z"/>
<path d="M371 1131 c-5 -2 -7 -4 -7 -7 0 -4 0 -1061 0 -1071 0 -11 66 -13 66
-2 3 66 0 1076 -3 1079 -4 4 -47 5 -56 1z"/>
<path d="M545 1132 c-3 -1 -5 -3 -6 -4 -3 -5 -1 -1076 2 -1080 4 -4 55 -5 59
0 4 3 4 1077 1 1082 -3 4 -49 5 -56 2z"/>
<path d="M713 1133 c-3 -1 -6 -2 -7 -4 -4 -5 -3 -1077 1 -1081 5 -4 61 -5 66
0 5 5 5 1077 0 1082 -3 3 -49 5 -60 3z"/>
<path d="M886 1133 c-3 -1 -6 -2 -7 -4 -3 -4 -2 -1078 1 -1082 4 -4 61 -3 65
1 5 5 5 1077 0 1082 -3 3 -46 5 -59 3z"/>
<path d="M1060 1133 c-3 -1 -7 -3 -8 -4 -4 -5 -3 -1077 1 -1081 5 -5 56 -6 65
0 2 1 4 1047 2 1079 0 6 -38 9 -60 6z"/>
<path d="M1226 1132 c-3 -1 -7 -2 -8 -4 -4 -3 -3 -1076 1 -1080 6 -6 58 -5 66
1 3 2 5 1073 2 1079 -3 5 -43 8 -61 4z"/>
<path d="M1397 1132 c-10 -3 -11 -4 -9 -151 2 -76 2 -306 1 -521 -2 -431 -2
-401 0 -407 3 -13 68 -12 72 1 2 3 2 87 0 212 -1 127 -1 332 0 530 2 351 3
332 -7 335 -8 3 -48 3 -57 1z"/>
<path d="M44 1130 c-5 -3 -5 -17 -3 -155 0 -76 1 -315 0 -531 0 -343 0 -392 2
-395 5 -4 61 -4 65 0 4 4 4 1076 0 1080 -3 3 -59 4 -64 1z"/>
</g>
</svg>
