<?xml version="1.0" standalone="no"?>
<!DOCTYPE svg PUBLIC "-//W3C//DTD SVG 20010904//EN"
 "http://www.w3.org/TR/2001/REC-SVG-20010904/DTD/svg10.dtd">
<svg version="1.0" xmlns="http://www.w3.org/2000/svg"
 width="190.000000pt" height="148.000000pt" viewBox="0 0 190.000000 148.000000"
 preserveAspectRatio="xMidYMid meet">
<metadata>
Created by potrace 1.16, written by Peter Selinger 2001-2019
</metadata>
<g transform="translate(0.000000,148.000000) scale(0.100000,-0.100000)"
fill="#000000" stroke="none">
<path d="M55 1414 c-7 -2 -9 -237 -8 -681 l3 -678 41 0 40 0 0 680 1 680 -34
2 c-18 1 -37 0 -43 -3z"/>
<path d="M240 1413 c-1 -4 -1 -312 -1 -683 l0 -675 38 0 38 0 0 680 0 680 -37
3 c-21 2 -38 0 -38 -5z"/>
<path d="M455 1408 c-3 -7 -4 -314 -3 -683 l3 -670 40 0 40 0 0 680 0 680 -38
3 c-24 2 -39 -1 -42 -10z"/>
<path d="M675 1408 c-3 -7 -4 -314 -3 -683 l3 -670 38 0 37 0 1 680 0 680 -35
3 c-23 2 -38 -2 -41 -10z"/>
<path d="M880 1413 c0 -4 0 -312 0 -683 l0 -675 42 0 43 0 0 680 0 680 -42 3
c-24 2 -43 0 -43 -5z"/>
<path d="M1099 1413 c0 -4 0 -312 0 -683 l0 -675 41 0 41 0 0 680 0 680 -41 3
c-22 2 -40 0 -41 -5z"/>
<path d="M1315 1408 c-3 -7 -4 -314 -3 -683 l3 -670 40 0 40 0 0 680 0 680
-38 3 c-24 2 -39 -1 -42 -10z"/>
<path d="M1520 1416 c0 -3 0 -311 0 -683 l0 -678 42 0 43 0 0 680 0 680 -42 3
c-24 2 -43 1 -43 -2z"/>
<path d="M1740 1418 c0 -2 -1 -309 -1 -683 l0 -680 43 0 43 0 0 680 0 680 -42
3 c-24 2 -43 2 -43 0z"/>
</g>
</svg>
