<?xml version="1.0" standalone="no"?>
<!DOCTYPE svg PUBLIC "-//W3C//DTD SVG 20010904//EN"
 "http://www.w3.org/TR/2001/REC-SVG-20010904/DTD/svg10.dtd">
<svg version="1.0" xmlns="http://www.w3.org/2000/svg"
 width="76.000000pt" height="100.000000pt" viewBox="0 0 76.000000 100.000000"
 preserveAspectRatio="xMidYMid meet">
<metadata>
Created by potrace 1.16, written by Peter Selinger 2001-2019
</metadata>
<g transform="translate(0.000000,100.000000) scale(0.100000,-0.100000)"
fill="#000000" stroke="none">
<path d="M343 968 c-11 -17 -16 -784 -6 -873 7 -60 11 -70 29 -73 20 -3 21 3
27 89 13 171 8 844 -5 857 -16 16 -35 15 -45 0z"/>
<path d="M27 964 c-10 -10 -8 -136 2 -153 5 -8 16 -11 25 -8 24 9 19 160 -4
165 -9 1 -19 0 -23 -4z"/>
<path d="M114 956 c-3 -7 -4 -41 -2 -76 2 -47 7 -66 21 -74 24 -15 37 6 37 60
0 70 -10 104 -32 104 -10 0 -21 -6 -24 -14z"/>
<path d="M590 951 c-20 -38 -8 -149 17 -158 8 -3 19 0 24 8 10 16 12 129 3
153 -8 22 -31 20 -44 -3z"/>
<path d="M687 964 c-4 -4 -7 -40 -7 -79 0 -53 4 -76 15 -85 27 -22 36 2 33 86
-2 62 -6 79 -18 82 -9 1 -19 0 -23 -4z"/>
<path d="M26 194 c-12 -32 -6 -141 9 -154 25 -21 35 -1 35 70 0 76 -6 100 -25
100 -7 0 -16 -7 -19 -16z"/>
<path d="M114 197 c-3 -8 -4 -45 -2 -82 2 -51 7 -71 20 -79 9 -5 20 -7 24 -3
13 13 16 120 5 150 -11 28 -38 36 -47 14z"/>
<path d="M586 184 c-9 -24 -7 -100 4 -128 12 -31 46 -35 55 -6 4 11 3 50 0 85
-7 59 -9 65 -30 65 -13 0 -26 -7 -29 -16z"/>
</g>
</svg>
