<?xml version="1.0" standalone="no"?>
<!DOCTYPE svg PUBLIC "-//W3C//DTD SVG 20010904//EN"
 "http://www.w3.org/TR/2001/REC-SVG-20010904/DTD/svg10.dtd">
<svg version="1.0" xmlns="http://www.w3.org/2000/svg"
 width="112.000000pt" height="148.000000pt" viewBox="0 0 112.000000 148.000000"
 preserveAspectRatio="xMidYMid meet">
<metadata>
Created by potrace 1.16, written by Peter Selinger 2001-2019
</metadata>
<g transform="translate(0.000000,148.000000) scale(0.100000,-0.100000)"
fill="#000000" stroke="none">
<path d="M506 1431 c-10 -16 -7 -1384 3 -1394 5 -5 21 -7 37 -5 l29 3 0 700 0
700 -32 3 c-17 2 -34 -1 -37 -7z"/>
<path d="M36 1422 c-3 -5 -5 -52 -5 -104 1 -100 13 -133 46 -126 16 3 18 15
18 118 l0 115 -27 3 c-14 2 -29 -1 -32 -6z"/>
<path d="M166 1421 c-3 -5 -6 -51 -5 -102 1 -104 12 -133 51 -127 22 3 23 6
24 108 1 58 -3 111 -9 118 -11 14 -53 16 -61 3z"/>
<path d="M870 1318 c0 -111 11 -143 46 -136 17 3 19 13 19 118 l0 115 -32 3
-33 3 0 -103z"/>
<path d="M1000 1318 c0 -111 11 -143 46 -136 17 3 19 13 19 118 l0 115 -32 3
-33 3 0 -103z"/>
<path d="M36 292 c-3 -5 -5 -54 -5 -109 1 -86 3 -104 19 -118 11 -10 26 -15
35 -11 13 5 15 24 13 123 l-3 118 -27 3 c-14 2 -29 -1 -32 -6z"/>
<path d="M173 292 c-9 -6 -12 -38 -12 -105 1 -79 5 -102 20 -120 14 -18 21
-20 36 -11 15 10 18 26 19 110 0 54 -3 107 -8 117 -9 18 -34 22 -55 9z"/>
<path d="M877 284 c-4 -4 -7 -53 -7 -109 0 -87 3 -104 19 -119 10 -9 25 -14
35 -10 14 6 16 21 14 123 -3 116 -3 116 -28 119 -14 2 -29 0 -33 -4z"/>
</g>
</svg>
