<?xml version="1.0" standalone="no"?>
<!DOCTYPE svg PUBLIC "-//W3C//DTD SVG 20010904//EN"
 "http://www.w3.org/TR/2001/REC-SVG-20010904/DTD/svg10.dtd">
<svg version="1.0" xmlns="http://www.w3.org/2000/svg"
 width="448.000000pt" height="590.000000pt" viewBox="0 0 448.000000 590.000000"
 preserveAspectRatio="xMidYMid meet">
<metadata>
Created by potrace 1.16, written by Peter Selinger 2001-2019
</metadata>
<g transform="translate(0.000000,590.000000) scale(0.500000,-0.500000)"
fill="#000000" stroke="none">
<path d="M405 1145 c-7 -7 -8 -1104 -1 -1110 7 -6 51 -7 59 -1 8 6 8 1103 0
1111 -5 5 -6 5 -29 5 -23 0 -24 0 -29 -5z"/>
<path d="M43 1142 c-14 -3 -14 -2 -14 -63 0 -30 -1 -63 -1 -73 -2 -46 36 -77
56 -46 3 5 4 149 1 165 -3 15 -19 21 -42 17z"/>
<path d="M140 1141 c-10 -5 -15 -136 -7 -163 9 -26 34 -37 52 -22 7 6 10 164
3 176 -6 11 -34 17 -48 9z"/>
<path d="M704 1135 c-8 -4 -10 -42 -8 -151 0 -35 46 -56 59 -28 6 12 1 168 -5
175 -7 7 -36 10 -46 4z"/>
<path d="M806 1132 c-4 -4 -6 -53 -5 -142 0 -40 42 -65 58 -34 7 13 1 166 -6
174 -8 8 -40 9 -47 2z"/>
<path d="M44 239 c-16 -3 -19 -11 -17 -41 1 -12 1 -44 1 -71 0 -56 1 -58 18
-74 13 -12 30 -10 38 5 3 5 3 164 0 170 -4 8 -24 14 -40 11z"/>
<path d="M141 238 c-11 -4 -11 -5 -11 -86 1 -84 1 -82 20 -101 11 -11 29 -9
37 4 5 7 7 162 2 171 -6 12 -32 19 -48 12z"/>
<path d="M705 234 c-11 -4 -11 -5 -11 -85 1 -78 1 -82 10 -95 16 -22 44 -24
53 -3 4 9 4 163 0 171 -6 12 -35 19 -52 12z"/>
</g>
</svg>
