<?xml version="1.0" standalone="no"?>
<!DOCTYPE svg PUBLIC "-//W3C//DTD SVG 20010904//EN"
 "http://www.w3.org/TR/2001/REC-SVG-20010904/DTD/svg10.dtd">
<svg version="1.0" xmlns="http://www.w3.org/2000/svg"
 width="124.000000pt" height="154.000000pt" viewBox="0 0 124.000000 154.000000"
 preserveAspectRatio="xMidYMid meet">
<metadata>
Created by potrace 1.16, written by Peter Selinger 2001-2019
</metadata>
<g transform="translate(0.000000,154.000000) scale(0.100000,-0.100000)"
fill="#000000" stroke="none">
<path d="M54 1467 c-3 -8 -4 -54 -2 -103 l3 -89 34 -3 c20 -2 37 2 42 10 13
21 11 172 -3 186 -16 16 -67 15 -74 -1z"/>
<path d="M325 1470 c-3 -4 -5 -324 -5 -711 l-1 -704 80 -3 79 -3 -1 712 -2
713 -73 1 c-40 1 -75 -2 -77 -5z"/>
<path d="M680 763 l0 -714 78 3 77 3 0 710 0 710 -77 0 -78 1 0 -713z"/>
<path d="M1083 1468 c-6 -7 -11 -50 -11 -95 0 -93 8 -106 60 -101 l33 3 0 100
0 100 -36 3 c-21 2 -40 -2 -46 -10z"/>
<path d="M69 253 c0 -5 -1 -48 -2 -96 -2 -97 6 -114 48 -103 25 6 25 8 25 106
l0 100 -35 0 c-19 0 -35 -3 -36 -7z"/>
<path d="M1075 248 c-2 -7 -4 -51 -2 -98 l2 -85 48 -3 48 -3 -3 98 -3 98 -43
3 c-28 2 -44 -1 -47 -10z"/>
</g>
</svg>
