<?xml version="1.0" standalone="no"?>
<!DOCTYPE svg PUBLIC "-//W3C//DTD SVG 20010904//EN"
 "http://www.w3.org/TR/2001/REC-SVG-20010904/DTD/svg10.dtd">
<svg version="1.0" xmlns="http://www.w3.org/2000/svg"
 width="472.000000pt" height="590.000000pt" viewBox="0 0 472.000000 590.000000"
 preserveAspectRatio="xMidYMid meet">
<metadata>
Created by potrace 1.16, written by Peter Selinger 2001-2019
</metadata>
<g transform="translate(0.000000,590.000000) scale(0.500000,-0.500000)"
fill="#000000" stroke="none">
<path d="M51 1133 c-12 -3 -12 -4 -13 -75 0 -84 -2 -81 37 -80 33 2 31 -3 31
78 0 82 -4 87 -55 77z"/>
<path d="M829 1131 c-9 -4 -15 -117 -9 -140 6 -19 70 -19 75 0 5 17 0 134 -6
138 -6 6 -48 7 -60 2z"/>
<path d="M250 1129 c-2 -2 -2 -82 -3 -330 -1 -181 -1 -424 -2 -541 -2 -254
-11 -220 60 -220 70 0 61 -25 61 166 0 87 1 324 2 525 3 436 3 397 -1 400 -6
4 -114 4 -117 0z"/>
<path d="M522 1129 c-4 -5 -3 -1081 1 -1084 6 -4 114 -4 117 0 3 4 3 1080 0
1084 -4 4 -114 4 -118 0z"/>
<path d="M61 200 c-11 -4 -11 -6 -11 -76 0 -80 -1 -76 27 -78 37 -1 37 -2 37
77 0 67 -1 72 -11 76 -8 3 -35 4 -42 1z"/>
<path d="M829 200 c-9 -5 -9 -5 -9 -76 0 -84 -3 -79 44 -78 33 1 31 -4 32 75
0 87 3 81 -36 81 -16 0 -29 -1 -31 -2z"/>
</g>
</svg>
