<?xml version="1.0" standalone="no"?>
<!DOCTYPE svg PUBLIC "-//W3C//DTD SVG 20010904//EN"
 "http://www.w3.org/TR/2001/REC-SVG-20010904/DTD/svg10.dtd">
<svg version="1.0" xmlns="http://www.w3.org/2000/svg"
 width="294.000000pt" height="574.000000pt" viewBox="0 0 294.000000 574.000000"
 preserveAspectRatio="xMidYMid meet">
<metadata>
Created by potrace 1.16, written by Peter Selinger 2001-2019
</metadata>
<g transform="translate(0.000000,574.000000) scale(0.500000,-0.500000)"
fill="#000000" stroke="none">
<path d="M257 1118 c-3 -1 -9 -5 -14 -8 -4 -4 -11 -9 -14 -11 -3 -2 -12 -9
-20 -16 -8 -7 -22 -17 -32 -24 -9 -7 -23 -17 -30 -23 -8 -7 -14 -12 -15 -12
-1 0 -6 -4 -12 -8 -6 -5 -15 -12 -20 -16 -6 -4 -15 -11 -22 -17 -6 -5 -14 -12
-18 -14 -20 -14 -26 -19 -28 -23 -3 -7 -3 -23 -1 -30 5 -14 43 -13 56 2 2 2 8
7 13 11 5 3 14 11 21 16 6 6 12 11 13 11 1 0 6 4 12 9 6 5 14 11 19 14 4 3 14
11 21 17 6 7 13 12 14 12 1 0 5 3 9 7 5 3 12 9 17 12 5 3 14 10 20 16 21 20
28 20 64 -4 5 -4 18 -11 29 -17 11 -6 23 -13 27 -16 8 -6 25 -16 57 -34 11 -6
23 -13 26 -15 3 -3 11 -8 18 -11 7 -4 14 -8 16 -10 28 -26 69 -22 69 7 0 17
-15 32 -48 47 -5 3 -13 7 -17 10 -8 5 -43 25 -69 39 -8 4 -18 10 -21 13 -3 2
-14 8 -23 12 -9 5 -20 10 -23 13 -3 2 -11 7 -17 10 -6 3 -15 8 -19 11 -29 19
-32 20 -42 21 -5 1 -13 0 -16 -1z"/>
<path d="M401 850 c-18 -2 -20 -4 -20 -25 1 -9 1 -190 1 -402 1 -367 1 -387 5
-390 6 -7 49 -7 55 -1 5 6 7 806 1 813 -4 6 -17 8 -42 5z"/>
<path d="M134 846 c-8 -6 -7 -808 0 -814 7 -6 48 -5 54 1 6 7 7 808 0 813 -7
6 -47 6 -54 0z"/>
<path d="M262 846 c-7 -5 -7 -806 0 -813 6 -6 44 -6 50 0 7 7 7 808 0 813 -7
6 -43 6 -50 0z"/>
</g>
</svg>
