<?xml version="1.0" standalone="no"?>
<!DOCTYPE svg PUBLIC "-//W3C//DTD SVG 20010904//EN"
 "http://www.w3.org/TR/2001/REC-SVG-20010904/DTD/svg10.dtd">
<svg version="1.0" xmlns="http://www.w3.org/2000/svg"
 width="70.000000pt" height="100.000000pt" viewBox="0 0 70.000000 100.000000"
 preserveAspectRatio="xMidYMid meet">
<metadata>
Created by potrace 1.16, written by Peter Selinger 2001-2019
</metadata>
<g transform="translate(0.000000,100.000000) scale(0.100000,-0.100000)"
fill="#000000" stroke="none">
<path d="M533 954 c-3 -9 6 -28 26 -48 17 -17 31 -37 31 -44 0 -24 -34 -11
-67 24 -27 30 -35 34 -48 24 -21 -18 -19 -25 20 -64 22 -22 33 -41 29 -51 -9
-23 -25 -18 -64 20 -33 32 -38 34 -50 20 -11 -13 -9 -20 13 -43 15 -16 27 -35
27 -43 0 -23 -68 -85 -80 -73 -5 5 -11 70 -12 144 l-3 135 -25 0 -25 0 -3
-459 c-1 -267 2 -464 7 -469 5 -5 18 -6 30 -2 21 6 21 11 21 284 l0 278 45 32
c65 47 249 219 253 238 4 17 -85 113 -105 113 -8 0 -16 -7 -20 -16z"/>
<path d="M32 948 c-13 -13 -15 -409 -3 -743 5 -165 8 -180 25 -183 10 -2 22 2
27 10 10 15 12 887 3 912 -7 19 -35 21 -52 4z"/>
<path d="M166 945 c-3 -9 -6 -216 -6 -460 0 -379 2 -444 15 -455 8 -7 21 -10
29 -7 16 6 24 353 16 712 -5 215 -6 220 -26 223 -13 2 -24 -4 -28 -13z"/>
</g>
</svg>
