<?xml version="1.0" standalone="no"?>
<!DOCTYPE svg PUBLIC "-//W3C//DTD SVG 20010904//EN"
 "http://www.w3.org/TR/2001/REC-SVG-20010904/DTD/svg10.dtd">
<svg version="1.0" xmlns="http://www.w3.org/2000/svg"
 width="102.000000pt" height="146.000000pt" viewBox="0 0 102.000000 146.000000"
 preserveAspectRatio="xMidYMid meet">
<metadata>
Created by potrace 1.16, written by Peter Selinger 2001-2019
</metadata>
<g transform="translate(0.000000,146.000000) scale(0.100000,-0.100000)"
fill="#000000" stroke="none">
<path d="M787 1402 c-10 -10 -17 -23 -17 -27 0 -5 23 -32 50 -60 l51 -51 -21
-19 c-20 -19 -21 -18 -81 41 l-60 59 -20 -24 c-10 -13 -19 -26 -19 -30 0 -4
23 -29 50 -55 52 -49 61 -74 34 -96 -13 -11 -24 -5 -73 44 -54 53 -60 57 -80
44 -11 -7 -21 -17 -21 -22 0 -5 22 -35 49 -66 l50 -57 -66 -62 c-48 -46 -69
-59 -77 -51 -7 7 -12 79 -13 207 -1 108 -6 200 -11 205 -5 5 -24 8 -42 6 l-33
-3 -4 -672 c-3 -637 -3 -672 14 -677 10 -3 27 -4 38 -1 11 2 23 4 28 4 4 1 7
183 7 406 l0 404 86 73 c48 40 105 88 128 106 68 55 226 216 226 230 0 13
-138 162 -151 162 -3 0 -13 -8 -22 -18z"/>
<path d="M45 1381 c-6 -6 -9 -265 -7 -675 l2 -666 45 0 45 0 0 669 c0 601 -2
669 -16 675 -23 9 -59 7 -69 -3z"/>
<path d="M240 1383 c-1 -5 -1 -307 -1 -673 l0 -665 41 0 40 0 1 663 c0 364 -3
667 -6 672 -7 12 -75 14 -75 3z"/>
</g>
</svg>
