<?xml version="1.0" standalone="no"?>
<!DOCTYPE svg PUBLIC "-//W3C//DTD SVG 20010904//EN"
 "http://www.w3.org/TR/2001/REC-SVG-20010904/DTD/svg10.dtd">
<svg version="1.0" xmlns="http://www.w3.org/2000/svg"
 width="108.000000pt" height="148.000000pt" viewBox="0 0 108.000000 148.000000"
 preserveAspectRatio="xMidYMid meet">
<metadata>
Created by potrace 1.16, written by Peter Selinger 2001-2019
</metadata>
<g transform="translate(0.000000,148.000000) scale(0.100000,-0.100000)"
fill="#000000" stroke="none">
<path d="M659 1422 c-18 -24 -20 -37 -16 -132 3 -58 8 -120 12 -138 7 -32 4
-38 -56 -98 -35 -35 -68 -63 -74 -61 -6 2 -10 79 -10 213 l0 209 -45 0 -45 0
-3 -697 -2 -698 50 0 50 0 0 419 0 420 96 88 c52 48 104 103 115 121 19 29 25
32 68 32 54 0 110 32 186 105 44 44 62 82 51 110 -14 38 -37 27 -114 -54 -73
-76 -94 -92 -106 -73 -2 4 15 37 40 72 45 67 53 97 32 118 -32 32 -70 1 -122
-99 -18 -35 -37 -64 -42 -64 -17 0 -16 67 2 131 19 72 16 89 -20 96 -20 4 -32
-1 -47 -20z"/>
<path d="M37 1414 c-4 -4 -7 -320 -7 -701 l0 -694 41 3 40 3 1 695 0 695 -34
3 c-18 2 -37 0 -41 -4z"/>
<path d="M215 1408 c-3 -7 -4 -321 -3 -698 l3 -685 42 -3 43 -3 2 691 c2 427
-1 695 -6 701 -14 13 -76 11 -81 -3z"/>
</g>
</svg>
