<?xml version="1.0" standalone="no"?>
<!DOCTYPE svg PUBLIC "-//W3C//DTD SVG 20010904//EN"
 "http://www.w3.org/TR/2001/REC-SVG-20010904/DTD/svg10.dtd">
<svg version="1.0" xmlns="http://www.w3.org/2000/svg"
 width="430.000000pt" height="590.000000pt" viewBox="0 0 430.000000 590.000000"
 preserveAspectRatio="xMidYMid meet">
<metadata>
Created by potrace 1.16, written by Peter Selinger 2001-2019
</metadata>
<g transform="translate(0.000000,590.000000) scale(0.500000,-0.500000)"
fill="#000000" stroke="none">
<path d="M539 1149 c-12 -8 -17 -16 -24 -36 -9 -27 -5 -156 5 -175 18 -33 11
-46 -51 -104 -59 -55 -54 -67 -52 131 1 87 0 159 0 160 -6 8 -66 11 -75 3 -6
-4 -9 -1097 -3 -1105 4 -5 69 -7 76 -2 4 3 4 5 4 331 0 202 1 330 2 332 3 5
25 30 31 35 3 2 16 15 31 29 14 14 31 29 37 32 13 9 50 46 55 56 2 4 6 10 10
14 3 4 8 11 11 15 6 12 10 13 43 13 27 0 30 0 41 5 6 3 16 8 23 11 7 3 18 11
25 17 24 21 44 38 53 44 14 9 27 23 34 37 4 7 9 17 12 21 18 30 -10 67 -38 52
-8 -5 -27 -26 -32 -35 -5 -9 -32 -37 -42 -44 -4 -2 -13 -9 -19 -15 -33 -31
-51 -22 -23 12 3 3 8 11 11 17 3 6 8 14 11 17 2 4 7 11 9 17 2 6 6 13 8 15 12
13 7 47 -9 57 -13 8 -47 -4 -55 -21 -1 -2 -6 -9 -10 -14 -5 -6 -8 -11 -8 -12
0 -2 -18 -31 -23 -38 -3 -3 -5 -7 -5 -8 0 -18 -22 -45 -27 -33 -10 25 -7 50
14 119 10 32 5 45 -21 53 -17 5 -17 5 -29 -3z"/>
<path d="M33 1131 c-8 -2 -10 -6 -10 -25 1 -9 1 -256 2 -549 0 -407 1 -532 3
-534 3 -3 58 -4 63 -1 5 4 6 1100 0 1106 -3 3 -46 5 -58 3z"/>
<path d="M180 1130 c-3 -1 -5 -3 -6 -4 -3 -6 0 -1101 3 -1103 6 -4 60 -4 64 0
3 3 3 50 3 491 0 268 1 514 1 547 2 76 4 71 -34 71 -14 0 -28 -1 -31 -2z"/>
</g>
</svg>
