<?xml version="1.0" standalone="no"?>
<!DOCTYPE svg PUBLIC "-//W3C//DTD SVG 20010904//EN"
 "http://www.w3.org/TR/2001/REC-SVG-20010904/DTD/svg10.dtd">
<svg version="1.0" xmlns="http://www.w3.org/2000/svg"
 width="80.000000pt" height="100.000000pt" viewBox="0 0 80.000000 100.000000"
 preserveAspectRatio="xMidYMid meet">
<metadata>
Created by potrace 1.16, written by Peter Selinger 2001-2019
</metadata>
<g transform="translate(0.000000,100.000000) scale(0.100000,-0.100000)"
fill="#000000" stroke="none">
<path d="M163 958 c-46 -50 -106 -204 -124 -316 -5 -36 -10 -115 -10 -176 0
-93 5 -126 26 -192 32 -101 105 -238 129 -242 42 -8 37 17 -28 149 -80 164
-95 237 -77 380 15 115 60 257 106 333 19 32 35 65 35 72 0 22 -34 16 -57 -8z"/>
<path d="M580 961 c0 -11 13 -41 30 -68 38 -63 75 -177 96 -294 29 -169 7
-285 -91 -465 -44 -81 -46 -109 -9 -102 23 4 103 154 133 248 30 93 30 312 1
426 -24 89 -81 218 -112 252 -26 27 -48 29 -48 3z"/>
<path d="M245 907 c-3 -6 -4 -194 -3 -417 3 -404 3 -405 24 -408 21 -3 21 0
26 207 3 116 3 305 0 421 -4 198 -6 210 -24 210 -10 0 -21 -6 -23 -13z"/>
<path d="M376 859 c-8 -80 -8 -638 0 -718 6 -56 9 -62 28 -59 21 3 21 4 21
418 0 414 0 415 -21 418 -19 3 -22 -3 -28 -59z"/>
<path d="M517 914 c-4 -4 -7 -191 -7 -416 0 -362 2 -409 16 -415 37 -14 39 8
42 391 2 205 -1 388 -5 407 -9 32 -31 48 -46 33z"/>
</g>
</svg>
