<?xml version="1.0" standalone="no"?>
<!DOCTYPE svg PUBLIC "-//W3C//DTD SVG 20010904//EN"
 "http://www.w3.org/TR/2001/REC-SVG-20010904/DTD/svg10.dtd">
<svg version="1.0" xmlns="http://www.w3.org/2000/svg"
 width="468.000000pt" height="590.000000pt" viewBox="0 0 468.000000 590.000000"
 preserveAspectRatio="xMidYMid meet">
<metadata>
Created by potrace 1.16, written by Peter Selinger 2001-2019
</metadata>
<g transform="translate(0.000000,590.000000) scale(0.500000,-0.500000)"
fill="#000000" stroke="none">
<path d="M226 1158 c-19 -4 -79 -90 -92 -131 -1 -4 -3 -9 -4 -10 -1 -1 -3 -6
-4 -10 -1 -4 -6 -16 -11 -26 -9 -17 -14 -32 -25 -74 -9 -35 -16 -54 -22 -67
-3 -7 -6 -18 -7 -25 0 -7 -2 -15 -4 -20 -2 -4 -3 -13 -3 -20 0 -8 -2 -21 -4
-29 -2 -7 -4 -17 -4 -20 0 -3 -2 -14 -4 -23 -4 -19 -6 -231 -2 -252 1 -6 3
-18 4 -28 1 -10 4 -24 6 -32 2 -8 6 -21 8 -30 8 -30 12 -44 22 -65 6 -12 10
-24 10 -26 0 -3 2 -10 4 -16 2 -6 5 -15 6 -20 1 -4 9 -18 16 -29 8 -12 15 -24
16 -27 2 -4 7 -16 13 -26 6 -11 12 -24 14 -29 2 -6 6 -15 11 -20 4 -6 12 -19
18 -31 20 -40 31 -44 57 -22 17 15 16 24 -2 44 -10 11 -32 44 -34 51 -1 3 -3
9 -6 13 -2 4 -19 36 -38 72 -18 36 -34 68 -36 71 -2 2 -5 13 -8 24 -3 11 -9
29 -14 40 -5 11 -10 24 -10 30 -1 6 -3 13 -4 16 -4 7 -7 36 -8 80 -1 25 -2 38
-4 41 -4 8 -4 73 0 83 1 5 3 16 4 26 3 47 5 64 11 93 3 16 7 34 9 38 2 5 3 13
3 18 0 6 3 21 8 35 4 14 10 33 12 42 3 9 9 28 13 42 5 14 12 33 14 42 6 18 23
54 31 66 3 5 9 15 13 23 3 8 9 19 13 24 4 5 10 13 12 18 3 5 10 13 15 17 30
25 21 67 -13 59z"/>
<path d="M692 1153 c-18 -18 -18 -42 0 -55 7 -5 36 -48 41 -60 2 -4 6 -13 10
-19 11 -18 25 -48 30 -65 3 -9 7 -19 8 -23 2 -3 5 -11 7 -18 2 -7 5 -16 7 -21
1 -5 5 -16 7 -25 2 -9 8 -28 12 -42 5 -14 8 -29 8 -35 0 -5 1 -13 3 -18 9 -24
17 -78 20 -132 1 -9 3 -20 4 -25 4 -10 4 -75 1 -82 -2 -2 -3 -17 -4 -39 -2
-44 -5 -77 -9 -84 -1 -3 -3 -9 -4 -15 0 -6 -5 -19 -10 -30 -5 -11 -11 -29 -14
-39 -3 -11 -7 -24 -11 -30 -3 -6 -19 -38 -36 -71 -17 -33 -33 -64 -35 -68 -3
-4 -5 -10 -6 -13 -2 -7 -25 -41 -35 -52 -13 -16 -13 -29 3 -46 21 -22 31 -17
53 26 6 12 13 25 17 29 8 10 12 18 14 26 1 4 4 10 7 15 7 12 17 32 19 38 1 3
7 14 14 24 13 19 24 48 28 68 1 4 5 15 9 24 9 19 17 41 19 53 1 4 4 17 7 27 4
10 7 25 8 33 1 8 3 20 4 27 2 8 3 59 3 130 1 128 2 124 -11 180 -2 10 -4 23
-4 30 0 8 -1 17 -3 20 -1 4 -4 13 -5 21 -1 8 -4 19 -7 24 -4 10 -16 45 -22 71
-7 26 -17 57 -24 69 -3 7 -8 16 -9 20 -3 9 -13 35 -21 51 -4 10 -17 30 -39 65
-22 33 -42 46 -54 36z"/>
<path d="M449 1082 c-3 -1 -5 -3 -6 -4 -4 -6 -2 -971 2 -973 7 -5 50 -4 54 1
3 4 3 11 3 132 -1 165 -1 402 0 645 1 225 4 200 -29 200 -11 1 -22 0 -24 -1z"/>
<path d="M283 1077 c-8 -8 -8 -962 0 -970 7 -7 46 -8 54 0 4 3 8 673 5 963 0
13 -47 19 -59 7z"/>
<path d="M606 1078 c-7 -5 -7 -967 0 -972 8 -7 47 -6 53 1 8 7 8 964 0 971 -6
6 -46 6 -53 0z"/>
</g>
</svg>
