<?xml version="1.0" standalone="no"?>
<!DOCTYPE svg PUBLIC "-//W3C//DTD SVG 20010904//EN"
 "http://www.w3.org/TR/2001/REC-SVG-20010904/DTD/svg10.dtd">
<svg version="1.0" xmlns="http://www.w3.org/2000/svg"
 width="160.000000pt" height="148.000000pt" viewBox="0 0 160.000000 148.000000"
 preserveAspectRatio="xMidYMid meet">
<metadata>
Created by potrace 1.16, written by Peter Selinger 2001-2019
</metadata>
<g transform="translate(0.000000,148.000000) scale(0.100000,-0.100000)"
fill="#000000" stroke="none">
<path d="M1293 1440 c-13 -5 -23 -13 -23 -17 0 -5 16 -30 35 -57 19 -27 35
-54 35 -59 0 -5 8 -21 18 -35 10 -15 33 -72 52 -127 18 -55 36 -104 40 -110 4
-5 11 -37 14 -70 4 -33 14 -85 23 -115 12 -44 14 -83 9 -200 -4 -80 -12 -149
-17 -155 -5 -5 -9 -18 -9 -29 0 -34 -49 -172 -69 -195 -11 -12 -25 -36 -32
-54 -7 -17 -32 -60 -56 -95 -46 -67 -50 -81 -31 -100 21 -21 46 -13 74 26 16
20 36 44 45 52 26 23 111 189 125 245 7 28 20 76 28 108 28 103 12 500 -23
566 -6 11 -11 31 -11 44 0 14 -13 58 -30 98 -16 41 -30 80 -30 88 0 40 -107
202 -133 200 -7 0 -22 -4 -34 -9z"/>
<path d="M215 1369 c-20 -39 -49 -89 -66 -111 -16 -23 -29 -47 -29 -55 0 -8
-11 -29 -25 -47 -14 -18 -25 -45 -25 -60 0 -16 -7 -44 -16 -63 -15 -30 -16
-67 -12 -296 5 -226 9 -274 27 -346 13 -47 29 -97 37 -112 8 -16 14 -41 15
-56 0 -41 80 -174 117 -195 26 -14 33 -15 49 -3 15 12 16 17 6 34 -7 12 -13
29 -13 38 0 10 -9 29 -20 43 -11 14 -20 30 -20 36 0 6 -6 17 -14 23 -15 12
-50 105 -67 171 -25 105 -31 143 -34 228 -1 51 -5 96 -8 99 -3 3 -2 16 3 29 6
14 6 26 0 29 -10 6 -5 127 9 220 4 33 22 87 38 120 43 87 93 179 104 190 5 5
9 16 9 26 0 9 9 28 20 42 25 31 25 49 2 70 -34 31 -50 20 -87 -54z"/>
<path d="M447 1381 l-28 -6 -1 -300 -2 -300 42 -3 42 -3 -2 307 c-2 195 -7
308 -13 309 -5 2 -23 0 -38 -4z"/>
<path d="M672 1382 c-9 -7 -12 -75 -10 -308 l3 -299 38 -3 37 -3 -2 308 -3
308 -25 3 c-14 1 -31 -2 -38 -6z"/>
<path d="M1154 1379 c-4 -7 -7 -495 -4 -600 0 -6 16 -9 38 -7 l37 3 0 300 0
299 -33 7 c-18 4 -35 3 -38 -2z"/>
<path d="M902 1078 l3 -303 38 0 38 0 0 300 0 300 -41 3 -40 3 2 -303z"/>
<path d="M435 627 c-3 -7 -4 -145 -3 -307 l3 -295 29 -3 c16 -2 32 0 37 5 4 4
9 140 9 302 1 235 -1 295 -12 302 -20 13 -58 11 -63 -4z"/>
<path d="M675 628 c-3 -7 -4 -146 -3 -308 l3 -295 38 -3 c20 -2 37 0 37 5 0 4
1 143 2 308 l2 300 -37 3 c-24 2 -39 -1 -42 -10z"/>
<path d="M942 632 l-32 -3 2 -302 3 -302 40 0 40 0 3 301 c3 328 5 312 -56
306z"/>
</g>
</svg>
