<?xml version="1.0" standalone="no"?>
<!DOCTYPE svg PUBLIC "-//W3C//DTD SVG 20010904//EN"
 "http://www.w3.org/TR/2001/REC-SVG-20010904/DTD/svg10.dtd">
<svg version="1.0" xmlns="http://www.w3.org/2000/svg"
 width="100.000000pt" height="93.000000pt" viewBox="0 0 100.000000 93.000000"
 preserveAspectRatio="xMidYMid meet">
<metadata>
Created by potrace 1.16, written by Peter Selinger 2001-2019
</metadata>
<g transform="translate(0.000000,93.000000) scale(0.100000,-0.100000)"
fill="#000000" stroke="none">
<path d="M153 898 c-34 -41 -113 -212 -124 -265 -18 -86 0 -362 29 -449 36
-109 76 -174 108 -174 29 0 26 31 -10 100 -58 112 -70 172 -70 361 l-1 166 60
117 c48 92 58 119 49 133 -14 23 -29 26 -41 11z"/>
<path d="M800 894 c0 -8 11 -35 25 -58 35 -59 81 -200 95 -290 15 -89 8 -221
-14 -292 -8 -27 -38 -88 -66 -134 -52 -86 -56 -110 -20 -110 22 0 67 56 107
134 70 137 71 407 2 603 -32 90 -52 129 -78 151 -21 17 -51 15 -51 -4z"/>
<path d="M270 870 c-11 -7 -15 -43 -18 -174 -5 -192 -1 -216 32 -216 32 0 36
27 35 204 -1 180 -9 211 -49 186z"/>
<path d="M415 868 c-3 -8 -4 -97 -3 -198 l3 -185 25 0 25 0 0 195 c0 195 0
195 -23 198 -12 2 -24 -3 -27 -10z"/>
<path d="M572 872 c-9 -7 -12 -53 -10 -198 l3 -189 25 0 25 0 3 189 c2 184 -1
206 -28 206 -3 0 -11 -4 -18 -8z"/>
<path d="M720 861 c-11 -21 -14 -298 -4 -350 5 -24 12 -31 30 -31 13 0 24 6
25 13 5 78 -5 365 -13 374 -15 18 -26 16 -38 -6z"/>
<path d="M276 395 c-18 -18 -21 -95 -9 -279 6 -101 7 -107 27 -104 20 3 21 11
29 156 11 204 -3 270 -47 227z"/>
<path d="M427 403 c-4 -3 -7 -91 -7 -195 0 -162 2 -189 16 -195 8 -3 20 -1 27
6 16 16 23 341 8 369 -12 22 -31 28 -44 15z"/>
<path d="M583 403 c-10 -3 -13 -52 -13 -194 0 -160 2 -191 15 -195 8 -4 22 -1
30 6 12 10 15 45 15 189 0 192 -5 212 -47 194z"/>
</g>
</svg>
