<?xml version="1.0" standalone="no"?>
<!DOCTYPE svg PUBLIC "-//W3C//DTD SVG 20010904//EN"
 "http://www.w3.org/TR/2001/REC-SVG-20010904/DTD/svg10.dtd">
<svg version="1.0" xmlns="http://www.w3.org/2000/svg"
 width="638.000000pt" height="590.000000pt" viewBox="0 0 638.000000 590.000000"
 preserveAspectRatio="xMidYMid meet">
<metadata>
Created by potrace 1.16, written by Peter Selinger 2001-2019
</metadata>
<g transform="translate(0.000000,590.000000) scale(0.500000,-0.500000)"
fill="#000000" stroke="none">
<path d="M1057 1160 c-3 -1 -12 -3 -19 -4 -25 -4 -27 -27 -3 -55 2 -3 6 -10 9
-14 3 -4 8 -12 12 -17 8 -9 14 -23 14 -30 0 -2 3 -7 7 -11 3 -5 8 -12 10 -16
2 -4 5 -10 8 -13 3 -3 6 -10 8 -16 1 -6 7 -24 13 -40 18 -51 32 -91 34 -99 1
-6 4 -11 9 -14 7 -6 7 -6 7 -20 -1 -15 4 -48 9 -68 2 -7 3 -16 3 -22 0 -6 2
-16 4 -22 2 -6 5 -16 5 -22 1 -5 3 -14 6 -18 5 -9 6 -84 2 -188 -2 -60 -3 -61
-14 -77 -4 -5 -5 -9 -5 -16 0 -10 -8 -38 -18 -66 -3 -9 -10 -28 -14 -41 -13
-38 -16 -44 -27 -51 -8 -6 -15 -16 -15 -24 0 -2 -3 -8 -7 -13 -4 -6 -9 -15
-11 -22 -2 -9 -7 -17 -14 -28 -7 -7 -13 -17 -15 -21 -2 -4 -11 -19 -21 -33
-30 -44 -25 -66 14 -66 22 1 31 7 47 35 14 24 18 28 28 33 10 5 11 6 14 16 2
6 6 14 9 18 7 8 10 14 10 19 0 2 2 6 4 8 2 1 6 5 9 8 3 2 5 6 5 9 0 2 2 9 5
14 2 6 5 13 6 17 1 5 3 10 6 13 2 3 6 9 8 13 2 4 7 11 10 17 5 7 7 12 7 18 0
4 2 12 3 16 2 4 4 16 5 25 2 16 5 23 12 34 2 3 4 12 6 22 1 9 4 25 7 35 7 22
7 21 8 152 1 100 1 100 -4 108 -3 5 -5 10 -5 13 1 11 0 37 -3 57 -1 12 -3 30
-4 39 -1 12 -2 19 -5 23 -3 4 -5 13 -6 24 -2 12 -4 21 -7 26 -5 8 -5 10 -4 22
1 12 1 14 -7 30 -5 10 -9 21 -9 25 -1 4 -3 10 -5 14 -2 4 -4 10 -5 14 0 4 -7
19 -14 33 -11 24 -13 27 -14 43 -1 18 -9 36 -27 65 -4 7 -9 16 -10 20 -1 6 -5
11 -13 19 -6 6 -13 15 -15 20 -8 17 -31 33 -43 30z"/>
<path d="M206 1150 c-9 -5 -24 -31 -44 -74 -3 -5 -7 -12 -9 -16 -3 -3 -7 -10
-8 -16 -2 -5 -7 -14 -12 -20 -26 -33 -33 -45 -33 -61 0 -11 -1 -14 -13 -22 -4
-3 -10 -10 -13 -17 -3 -6 -8 -14 -11 -18 -3 -4 -5 -9 -5 -15 0 -29 -9 -65 -19
-73 -9 -7 -9 -8 -9 -167 0 -156 1 -174 8 -187 2 -4 3 -18 4 -52 1 -42 2 -49 7
-66 3 -10 5 -21 5 -24 0 -3 2 -10 4 -15 2 -6 4 -14 5 -18 1 -4 3 -14 5 -21 2
-7 4 -16 5 -20 1 -4 4 -12 8 -16 10 -13 17 -37 15 -46 -4 -12 -2 -17 16 -49 9
-18 22 -40 27 -50 26 -49 34 -59 48 -59 6 0 10 -2 16 -6 22 -17 52 9 35 30 -6
7 -7 10 -8 24 -1 19 -4 23 -24 47 -8 9 -10 13 -10 18 0 9 -3 16 -9 20 -10 6
-33 55 -33 69 0 3 -3 10 -6 17 -10 21 -14 32 -16 49 -1 9 -3 18 -4 20 -1 1 -2
7 -3 12 -1 5 -3 12 -5 16 -3 5 -4 12 -4 20 0 8 -2 16 -5 24 -4 9 -5 16 -6 42
-1 21 -2 34 -4 41 -4 9 -4 9 1 18 5 10 5 22 1 29 -3 6 -4 14 -1 17 3 4 3 16
-1 21 -4 6 -4 23 0 30 4 7 4 15 -2 23 -6 9 -6 56 0 71 4 9 4 13 -1 21 -6 11
-5 22 1 33 6 8 6 11 7 39 1 20 2 31 4 33 1 2 3 10 5 17 2 9 5 17 10 24 4 5 8
14 9 20 2 11 22 51 29 60 3 3 7 9 10 12 3 4 6 11 7 15 1 5 5 13 9 18 3 5 8 14
9 19 2 5 6 13 11 19 11 11 20 30 22 43 1 12 6 20 17 32 15 15 14 38 -2 52 -20
18 -26 20 -40 13z"/>
<path d="M543 1109 c-15 -4 -14 15 -14 -247 1 -277 -4 -247 35 -246 35 1 31
-31 32 241 1 237 1 242 -6 248 -4 4 -36 6 -47 4z"/>
<path d="M344 1105 c-10 -6 -10 5 -10 -245 0 -193 1 -234 3 -237 9 -12 61 -9
64 3 4 18 0 475 -5 478 -6 5 -44 6 -52 1z"/>
<path d="M731 1106 c-7 -3 -9 -8 -10 -21 -2 -112 1 -459 5 -463 8 -10 58 -8
61 3 2 6 2 469 0 474 -3 8 -42 13 -56 7z"/>
<path d="M925 1106 c-9 -4 -9 -3 -9 -244 -1 -276 -4 -248 34 -248 30 0 35 4
35 27 -1 188 -3 456 -5 459 -4 7 -43 11 -55 6z"/>
<path d="M550 508 c-14 -4 -13 18 -12 -244 0 -129 1 -236 2 -238 5 -10 53 -12
60 -3 4 5 7 470 4 477 -4 8 -36 13 -54 8z"/>
<path d="M347 503 c-6 -5 -6 -5 -4 -120 0 -62 1 -168 1 -234 0 -144 -4 -129
33 -129 39 0 34 -33 35 244 0 276 5 244 -35 244 -24 0 -25 0 -30 -5z"/>
<path d="M739 505 c-4 -1 -7 -4 -8 -6 -1 -6 0 -468 2 -472 5 -11 58 -10 64 1
4 7 5 465 1 471 -4 9 -44 13 -59 6z"/>
</g>
</svg>
