<?xml version="1.0" standalone="no"?>
<!DOCTYPE svg PUBLIC "-//W3C//DTD SVG 20010904//EN"
 "http://www.w3.org/TR/2001/REC-SVG-20010904/DTD/svg10.dtd">
<svg version="1.0" xmlns="http://www.w3.org/2000/svg"
 width="708.000000pt" height="590.000000pt" viewBox="0 0 708.000000 590.000000"
 preserveAspectRatio="xMidYMid meet">
<metadata>
Created by potrace 1.16, written by Peter Selinger 2001-2019
</metadata>
<g transform="translate(0.000000,590.000000) scale(0.500000,-0.500000)"
fill="#000000" stroke="none">
<path d="M1028 1147 c0 -20 1 -35 2 -38 5 -8 33 -35 46 -43 7 -5 16 -10 19
-13 4 -2 11 -6 16 -9 5 -3 11 -9 13 -12 1 -4 7 -12 12 -19 5 -7 10 -16 11 -19
2 -10 4 -14 11 -17 3 -2 6 -5 7 -7 1 -2 5 -8 9 -13 5 -5 9 -12 11 -16 1 -3 6
-10 9 -14 5 -5 8 -12 9 -17 1 -8 10 -26 21 -40 3 -5 6 -11 6 -14 0 -2 4 -13 9
-23 5 -10 9 -21 10 -25 1 -4 4 -10 7 -14 8 -10 10 -15 10 -24 0 -4 2 -12 5
-18 4 -8 5 -14 5 -24 0 -12 1 -14 7 -22 3 -5 7 -10 8 -13 5 -7 4 -221 0 -230
-3 -4 -4 -13 -5 -31 -1 -20 -2 -27 -6 -34 -2 -6 -4 -13 -4 -17 0 -4 -2 -12 -5
-19 -3 -7 -5 -15 -5 -19 0 -3 -2 -10 -4 -15 -2 -5 -4 -14 -5 -20 -1 -6 -3 -13
-4 -16 -2 -3 -4 -10 -5 -15 -1 -6 -5 -13 -9 -19 -5 -5 -8 -12 -9 -18 -2 -11
-8 -17 -22 -21 -11 -4 -11 -4 -15 -15 -2 -9 -6 -15 -13 -22 -6 -6 -12 -14 -14
-18 -4 -8 -8 -12 -19 -18 -9 -4 -26 -20 -28 -26 -1 -2 -5 -5 -9 -8 -4 -2 -14
-10 -21 -17 -8 -6 -18 -15 -22 -18 -17 -10 4 -41 32 -46 4 0 11 -4 15 -7 12
-8 16 -8 29 4 5 5 14 11 19 14 12 6 59 52 65 64 3 6 8 12 13 15 5 4 12 11 15
16 4 5 14 17 23 26 17 17 26 33 29 49 1 5 4 11 8 16 4 5 8 11 8 14 2 8 5 17 8
25 1 4 3 14 3 21 0 13 1 14 7 22 8 10 9 11 10 35 0 12 1 20 4 25 2 4 4 13 4
22 1 8 3 19 5 24 4 9 4 16 4 166 0 173 1 154 -13 174 -2 2 -4 10 -5 17 -1 6
-3 15 -5 18 -1 4 -3 10 -3 15 0 4 -1 11 -3 16 -2 5 -4 17 -5 26 -1 16 -2 17
-9 23 -4 4 -11 15 -16 24 -5 9 -11 18 -13 20 -5 6 -14 25 -15 33 -2 10 -12 30
-19 39 -4 4 -7 11 -9 14 -1 3 -7 11 -12 17 -6 6 -12 15 -15 19 -2 4 -11 16
-21 25 -10 9 -19 21 -21 25 -8 15 -27 33 -47 42 -27 14 -47 32 -47 45 0 6 0 6
-31 6 l-31 0 0 -33z"/>
<path d="M329 1172 c-14 -3 -29 -13 -48 -32 -57 -54 -82 -80 -85 -87 -3 -4
-15 -18 -27 -31 -19 -20 -24 -26 -31 -40 -4 -10 -10 -20 -13 -23 -7 -9 -9 -14
-9 -24 0 -11 -14 -41 -27 -59 -8 -10 -8 -10 -9 -33 -1 -20 -2 -23 -9 -36 -7
-15 -7 -15 -7 -42 0 -26 0 -28 -5 -39 -5 -11 -5 -11 -5 -93 1 -79 1 -82 -3
-88 -4 -5 -4 -10 -5 -55 l0 -49 9 -12 c9 -11 9 -11 9 -31 0 -15 1 -21 4 -28 3
-7 4 -13 4 -35 0 -22 1 -27 4 -35 2 -5 4 -13 4 -19 0 -17 2 -24 10 -34 5 -6 8
-11 8 -15 0 -4 4 -15 9 -25 5 -10 9 -21 9 -23 0 -10 12 -31 26 -45 7 -8 15
-18 18 -23 6 -11 25 -31 35 -36 4 -3 15 -11 23 -19 8 -8 19 -16 23 -19 5 -2
12 -7 17 -11 9 -8 16 -9 29 -6 3 1 7 6 13 16 5 9 11 19 15 24 13 17 4 35 -20
47 -6 2 -15 9 -21 14 -6 5 -14 11 -18 13 -9 4 -15 10 -17 19 -1 5 -6 11 -18
23 -21 21 -26 30 -28 49 -1 19 -2 21 -10 26 -5 3 -7 6 -8 11 -1 5 -4 12 -8 17
-4 6 -6 11 -5 15 0 4 -1 10 -3 14 -2 4 -3 10 -3 14 0 4 -1 10 -3 15 -2 4 -4
16 -5 27 -1 13 -3 23 -5 27 -3 5 -4 14 -5 34 -1 18 -3 27 -5 30 -4 6 -4 15 0
22 4 6 4 18 0 24 -4 7 -4 15 0 22 3 5 3 7 0 13 -4 9 -4 16 0 23 3 5 3 7 -1 16
-6 16 -5 132 1 145 3 4 5 13 6 19 0 7 3 15 5 18 2 4 4 9 4 12 0 3 4 13 8 22 5
10 9 21 10 28 1 9 6 21 19 46 9 20 17 37 17 39 0 13 15 36 27 41 4 2 8 8 15
20 6 13 14 22 26 35 9 9 16 18 16 19 0 1 5 5 10 8 7 4 12 10 15 16 7 12 34 39
45 45 9 5 25 15 34 23 9 6 9 43 0 52 -6 6 -43 9 -61 4z"/>
<path d="M388 747 c-22 -5 -28 -23 -26 -86 2 -29 2 -100 1 -159 -1 -117 -1
-111 11 -123 21 -19 67 -18 71 2 2 6 4 13 6 17 6 12 4 62 -3 74 -5 9 -5 9 -4
130 l1 121 -9 10 c-13 14 -26 18 -48 14z"/>
<path d="M255 736 c-16 -4 -28 -19 -30 -38 -1 -7 -3 -15 -4 -19 -3 -4 -5 -226
-3 -282 0 -17 23 -29 52 -29 35 0 31 -22 31 177 l0 169 -10 10 c-12 13 -21 16
-36 12z"/>
<path d="M544 733 c-15 -12 -18 -18 -20 -35 -1 -9 -3 -17 -4 -19 -3 -4 -4
-282 -1 -289 4 -9 20 -22 28 -23 16 -3 45 0 49 5 6 5 6 -7 3 127 -1 59 -1 115
1 151 2 65 2 64 -14 79 -13 12 -30 13 -42 4z"/>
<path d="M692 729 c-12 -12 -16 -19 -16 -33 0 -6 -1 -13 -3 -16 -2 -5 -5 -256
-3 -286 1 -15 24 -28 50 -28 39 0 36 -6 34 98 -1 50 -1 115 0 164 2 86 2 83
-7 95 -15 19 -38 21 -55 6z"/>
<path d="M850 733 c-15 -12 -19 -18 -20 -35 -1 -8 -2 -17 -4 -19 -1 -3 -2 -47
-2 -145 -1 -159 -2 -146 17 -161 10 -8 57 -9 63 -2 7 9 4 341 -3 351 -15 17
-37 22 -51 11z"/>
<path d="M1006 733 c-13 -8 -20 -20 -20 -32 0 -6 -1 -14 -3 -19 -3 -6 -4 -22
-4 -149 l0 -142 9 -10 c21 -23 74 -22 74 2 0 3 -1 78 -1 167 -1 190 1 164 -8
174 -14 15 -33 19 -47 9z"/>
<path d="M1158 731 c-20 -15 -18 0 -18 -184 l1 -165 7 -6 c9 -10 52 -12 63 -3
5 3 7 332 2 341 -11 21 -39 29 -55 17z"/>
</g>
</svg>
