<?xml version="1.0" standalone="no"?>
<!DOCTYPE svg PUBLIC "-//W3C//DTD SVG 20010904//EN"
 "http://www.w3.org/TR/2001/REC-SVG-20010904/DTD/svg10.dtd">
<svg version="1.0" xmlns="http://www.w3.org/2000/svg"
 width="100.000000pt" height="83.000000pt" viewBox="0 0 100.000000 83.000000"
 preserveAspectRatio="xMidYMid meet">
<metadata>
Created by potrace 1.16, written by Peter Selinger 2001-2019
</metadata>
<g transform="translate(0.000000,83.000000) scale(0.100000,-0.100000)"
fill="#000000" stroke="none">
<path d="M160 763 c-85 -88 -109 -145 -121 -301 -16 -197 24 -355 108 -419 35
-27 60 -27 77 -1 8 14 2 24 -36 57 -61 54 -87 128 -95 271 -9 163 22 250 127
361 63 67 71 92 31 97 -18 3 -39 -12 -91 -65z"/>
<path d="M720 806 c0 -15 19 -43 53 -77 54 -57 108 -153 128 -234 15 -59 6
-212 -16 -276 -11 -31 -36 -66 -77 -107 -65 -65 -71 -92 -21 -92 19 0 41 15
79 54 79 81 97 149 92 343 l-3 148 -43 82 c-67 127 -192 231 -192 159z"/>
<path d="M267 524 c-4 -4 -7 -65 -7 -136 0 -108 3 -130 16 -135 35 -13 43 16
36 147 -6 101 -10 125 -22 128 -9 1 -19 0 -23 -4z"/>
<path d="M160 495 c-5 -14 -10 -70 -10 -124 0 -103 11 -131 45 -117 13 5 15
26 13 133 -3 112 -5 128 -20 131 -12 2 -21 -6 -28 -23z"/>
<path d="M377 513 c-2 -5 -8 -56 -11 -115 -8 -115 0 -148 34 -148 19 0 20 7
20 135 0 127 -1 135 -19 135 -11 0 -22 -3 -24 -7z"/>
<path d="M482 508 c-19 -19 -17 -232 3 -248 8 -7 22 -10 30 -6 23 8 18 259 -5
264 -9 1 -21 -3 -28 -10z"/>
<path d="M591 506 c-8 -9 -11 -54 -9 -132 3 -107 5 -119 22 -122 10 -2 22 2
27 10 10 15 12 218 3 242 -8 20 -28 21 -43 2z"/>
<path d="M695 498 c-3 -13 -5 -72 -3 -133 3 -103 4 -110 24 -113 18 -3 22 4
27 35 8 48 9 181 1 211 -4 13 -14 22 -25 22 -11 0 -21 -9 -24 -22z"/>
<path d="M806 505 c-9 -25 -7 -228 3 -244 5 -8 16 -11 25 -8 14 6 16 24 14
134 -3 109 -5 128 -19 131 -9 2 -19 -4 -23 -13z"/>
</g>
</svg>
