<?xml version="1.0" standalone="no"?>
<!DOCTYPE svg PUBLIC "-//W3C//DTD SVG 20010904//EN"
 "http://www.w3.org/TR/2001/REC-SVG-20010904/DTD/svg10.dtd">
<svg version="1.0" xmlns="http://www.w3.org/2000/svg"
 width="178.000000pt" height="148.000000pt" viewBox="0 0 178.000000 148.000000"
 preserveAspectRatio="xMidYMid meet">
<metadata>
Created by potrace 1.16, written by Peter Selinger 2001-2019
</metadata>
<g transform="translate(0.000000,148.000000) scale(0.100000,-0.100000)"
fill="#000000" stroke="none">
<path d="M1292 1428 c3 -51 4 -53 62 -93 32 -23 65 -55 74 -71 8 -16 25 -41
37 -55 34 -42 124 -233 131 -281 4 -23 11 -49 17 -56 17 -21 1 -355 -21 -442
-23 -90 -57 -160 -77 -160 -8 0 -15 -7 -15 -15 0 -15 -105 -125 -146 -151 -35
-23 -30 -41 17 -64 l42 -20 37 30 c105 83 218 241 220 305 0 12 4 25 9 30 26
30 48 517 24 548 -6 6 -16 41 -23 77 -8 35 -25 80 -38 100 -13 19 -34 58 -46
85 -32 71 -133 193 -179 216 -21 11 -43 31 -49 44 -9 19 -19 25 -45 25 l-34 0
3 -52z"/>
<path d="M374 1441 c-33 -20 -178 -175 -204 -218 -9 -16 -21 -47 -28 -69 -7
-23 -19 -47 -27 -54 -8 -7 -15 -26 -15 -42 0 -16 -5 -39 -11 -50 -6 -11 -15
-93 -20 -182 -5 -88 -11 -186 -13 -216 -3 -35 1 -60 9 -70 7 -8 18 -58 24
-110 12 -105 56 -228 97 -269 13 -13 24 -27 24 -31 0 -11 117 -100 132 -100
15 0 58 52 58 69 0 6 -25 27 -55 47 -30 20 -55 42 -55 49 0 6 -13 24 -29 39
-20 19 -27 34 -23 51 2 15 0 25 -7 25 -11 0 -32 40 -37 70 -27 173 -34 223
-28 231 3 5 1 16 -6 24 -8 9 -8 15 0 20 6 3 8 11 4 16 -3 6 -6 57 -5 114 1
101 14 190 32 209 5 6 9 18 9 27 0 20 58 147 76 169 110 125 149 167 179 188
26 19 35 32 35 54 0 26 -2 28 -42 28 -24 0 -56 -8 -74 -19z"/>
<path d="M474 926 c-19 -13 -20 -25 -19 -230 1 -132 5 -220 11 -226 6 -6 27
-12 47 -13 34 -3 38 -1 46 29 5 19 5 53 -1 85 -6 30 -8 116 -6 192 4 137 4
139 -20 158 -29 23 -32 23 -58 5z"/>
<path d="M289 903 c-20 -23 -27 -407 -8 -429 8 -10 26 -14 52 -12 l39 3 0 213
c0 152 -4 217 -12 227 -17 20 -54 19 -71 -2z"/>
<path d="M667 903 c-13 -15 -16 -51 -17 -219 -1 -234 0 -236 88 -225 17 2 18
431 0 449 -17 17 -52 15 -71 -5z"/>
<path d="M859 903 c-20 -23 -26 -415 -7 -430 19 -15 76 -24 83 -12 11 18 5
432 -7 446 -15 18 -53 16 -69 -4z"/>
<path d="M1048 898 c-8 -16 -13 -87 -14 -220 -3 -219 -3 -219 62 -222 l37 -1
0 218 c-1 157 -4 221 -13 232 -19 23 -57 18 -72 -7z"/>
<path d="M1248 903 c-13 -15 -16 -53 -18 -217 -1 -174 1 -200 16 -217 17 -19
40 -24 68 -13 14 5 16 34 16 223 0 155 -3 220 -12 229 -17 17 -53 15 -70 -5z"/>
<path d="M1441 906 c-8 -9 -11 -78 -9 -227 l3 -214 43 -3 42 -3 0 218 c0 157
-3 222 -12 231 -16 16 -53 15 -67 -2z"/>
</g>
</svg>
