<?xml version="1.0" standalone="no"?>
<!DOCTYPE svg PUBLIC "-//W3C//DTD SVG 20010904//EN"
 "http://www.w3.org/TR/2001/REC-SVG-20010904/DTD/svg10.dtd">
<svg version="1.0" xmlns="http://www.w3.org/2000/svg"
 width="178.000000pt" height="126.000000pt" viewBox="0 0 178.000000 126.000000"
 preserveAspectRatio="xMidYMid meet">
<metadata>
Created by potrace 1.16, written by Peter Selinger 2001-2019
</metadata>
<g transform="translate(0.000000,126.000000) scale(0.100000,-0.100000)"
fill="#000000" stroke="none">
<path d="M227 1168 c-55 -87 -137 -260 -137 -290 0 -16 -4 -36 -9 -46 -59
-119 -50 -364 19 -502 58 -115 80 -151 120 -197 23 -26 49 -60 58 -75 19 -33
26 -34 53 -9 24 23 27 17 -61 131 -36 46 -76 105 -89 130 -13 25 -30 57 -37
71 -24 44 -38 230 -24 321 11 80 47 203 76 268 37 81 78 157 102 189 24 33 25
34 7 47 -31 23 -43 17 -78 -38z"/>
<path d="M1460 1205 c-10 -12 -8 -21 12 -47 29 -38 110 -204 128 -263 7 -22
19 -56 26 -76 26 -74 36 -191 25 -299 -9 -89 -16 -115 -48 -180 -33 -65 -158
-241 -188 -263 -6 -4 1 -17 20 -34 27 -24 30 -24 40 -8 5 10 33 45 60 78 55
65 103 146 149 247 43 98 55 292 24 405 -11 39 -23 89 -28 112 -12 54 -80 199
-133 281 -40 63 -63 76 -87 47z"/>
<path d="M695 1166 c-13 -10 -15 -71 -13 -541 l3 -530 30 0 30 0 3 536 c2 526
2 537 -17 542 -11 3 -27 0 -36 -7z"/>
<path d="M1021 1170 c-9 -5 -12 -145 -12 -541 l-1 -534 31 -3 c20 -2 31 1 31
10 1 14 1 1049 0 1059 0 11 -37 17 -49 9z"/>
<path d="M1181 1171 c-8 -6 -11 -140 -11 -532 0 -288 0 -530 0 -537 0 -9 11
-12 31 -10 l31 3 0 534 c0 522 0 535 -19 542 -11 4 -25 4 -32 0z"/>
<path d="M355 1158 c-3 -7 -4 -247 -3 -532 3 -465 5 -520 19 -529 9 -6 24 -7
33 -4 15 6 16 55 16 542 l0 535 -30 0 c-17 0 -33 -6 -35 -12z"/>
<path d="M520 1158 c0 -12 0 -1044 0 -1061 0 -5 15 -7 33 -5 l32 3 0 535 0
535 -32 3 c-22 2 -33 -1 -33 -10z"/>
<path d="M845 1158 c-3 -7 -4 -249 -3 -538 l3 -525 33 -3 c18 -2 32 1 32 7 0
6 0 245 0 531 0 286 0 525 0 530 0 15 -60 12 -65 -2z"/>
<path d="M1340 1163 c-1 -4 -1 -246 -1 -538 l0 -530 24 -3 c13 -2 29 3 35 11
9 11 12 149 10 538 l-3 524 -32 3 c-18 2 -33 0 -33 -5z"/>
</g>
</svg>
