<?xml version="1.0" standalone="no"?>
<!DOCTYPE svg PUBLIC "-//W3C//DTD SVG 20010904//EN"
 "http://www.w3.org/TR/2001/REC-SVG-20010904/DTD/svg10.dtd">
<svg version="1.0" xmlns="http://www.w3.org/2000/svg"
 width="100.000000pt" height="71.000000pt" viewBox="0 0 100.000000 71.000000"
 preserveAspectRatio="xMidYMid meet">
<metadata>
Created by potrace 1.16, written by Peter Selinger 2001-2019
</metadata>
<g transform="translate(0.000000,71.000000) scale(0.100000,-0.100000)"
fill="#000000" stroke="none">
<path d="M126 668 c-8 -13 -31 -58 -51 -101 -66 -144 -70 -290 -11 -412 27
-54 91 -135 107 -135 5 0 23 10 39 22 l30 22 0 293 c0 255 -2 294 -15 300 -9
3 -17 4 -19 2 -2 -2 -7 -133 -11 -291 -4 -159 -11 -288 -16 -288 -11 0 -42 45
-74 109 -54 107 -44 231 31 390 24 51 41 97 38 102 -10 16 -33 9 -48 -13z"/>
<path d="M820 675 c0 -9 15 -46 34 -84 45 -89 68 -179 67 -266 0 -59 -6 -81
-35 -140 -19 -39 -46 -81 -59 -93 l-24 -23 -6 107 c-4 59 -7 192 -7 296 0 181
-1 188 -20 188 -20 0 -20 -7 -20 -298 l0 -298 30 -22 c16 -12 36 -22 44 -22
18 0 79 83 114 153 61 126 30 359 -64 485 -26 34 -54 43 -54 17z"/>
<path d="M297 664 c-4 -4 -7 -144 -7 -311 0 -297 0 -303 20 -303 20 0 20 5 18
307 -3 291 -7 331 -31 307z"/>
<path d="M385 658 c-3 -7 -4 -146 -3 -308 3 -272 4 -295 21 -298 16 -3 17 15
15 304 -2 235 -6 308 -15 312 -7 2 -15 -2 -18 -10z"/>
<path d="M475 658 c-3 -7 -4 -146 -3 -308 3 -272 4 -295 21 -298 16 -3 17 15
15 304 -2 235 -6 308 -15 312 -7 2 -15 -2 -18 -10z"/>
<path d="M566 633 c-8 -50 -8 -511 0 -552 4 -17 12 -31 19 -31 17 0 26 219 18
444 -4 128 -9 176 -18 176 -7 0 -15 -17 -19 -37z"/>
<path d="M658 503 c-6 -246 2 -453 17 -453 17 0 27 223 19 442 -5 130 -10 178
-19 178 -9 0 -14 -44 -17 -167z"/>
</g>
</svg>
