<?xml version="1.0" standalone="no"?>
<!DOCTYPE svg PUBLIC "-//W3C//DTD SVG 20010904//EN"
 "http://www.w3.org/TR/2001/REC-SVG-20010904/DTD/svg10.dtd">
<svg version="1.0" xmlns="http://www.w3.org/2000/svg"
 width="100.000000pt" height="85.000000pt" viewBox="0 0 100.000000 85.000000"
 preserveAspectRatio="xMidYMid meet">
<metadata>
Created by potrace 1.16, written by Peter Selinger 2001-2019
</metadata>
<g transform="translate(0.000000,85.000000) scale(0.100000,-0.100000)"
fill="#000000" stroke="none">
<path d="M64 813 c-20 -4 -21 -13 -28 -140 -5 -96 -3 -139 5 -149 15 -18 24
-18 43 2 13 12 16 38 16 118 l0 103 98 6 c53 4 189 7 302 7 113 0 249 -3 303
-7 l97 -6 0 -114 0 -114 28 3 27 3 3 138 3 137 -26 10 c-25 10 -824 12 -871 3z"/>
<path d="M327 683 c-3 -5 -8 -65 -11 -134 -8 -137 -2 -154 46 -147 23 3 23 6
26 137 3 139 0 150 -40 151 -9 0 -19 -3 -21 -7z"/>
<path d="M480 664 c-6 -14 -10 -76 -10 -139 0 -105 2 -114 20 -120 11 -3 29
-3 40 0 19 6 20 15 20 140 0 112 -2 134 -16 139 -30 11 -44 6 -54 -20z"/>
<path d="M648 679 c-16 -9 -18 -27 -18 -140 0 -140 3 -148 55 -135 25 6 25 6
25 130 0 100 -3 128 -16 140 -18 19 -23 19 -46 5z"/>
<path d="M160 545 c0 -134 0 -135 24 -141 14 -3 29 -3 34 0 15 9 22 98 15 191
l-6 85 -33 0 -34 0 0 -135z"/>
<path d="M782 543 l3 -138 30 0 30 0 0 135 0 135 -33 3 -33 3 3 -138z"/>
<path d="M167 334 c-4 -4 -7 -74 -7 -156 l0 -148 34 0 33 0 5 88 c3 48 2 116
-1 152 -6 60 -8 65 -31 68 -14 2 -29 0 -33 -4z"/>
<path d="M327 334 c-4 -4 -7 -74 -7 -156 l0 -148 35 0 36 0 -3 152 -3 153 -25
3 c-14 2 -29 0 -33 -4z"/>
<path d="M476 325 c-8 -21 -8 -223 0 -264 5 -26 11 -31 34 -31 l27 0 6 107 c3
60 2 128 -1 153 -6 39 -10 45 -33 48 -17 2 -29 -3 -33 -13z"/>
<path d="M635 328 c-3 -8 -4 -77 -3 -153 l3 -140 33 -3 33 -3 -3 153 -3 153
-28 3 c-16 2 -29 -2 -32 -10z"/>
</g>
</svg>
