<?xml version="1.0" standalone="no"?>
<!DOCTYPE svg PUBLIC "-//W3C//DTD SVG 20010904//EN"
 "http://www.w3.org/TR/2001/REC-SVG-20010904/DTD/svg10.dtd">
<svg version="1.0" xmlns="http://www.w3.org/2000/svg"
 width="648.000000pt" height="552.000000pt" viewBox="0 0 648.000000 552.000000"
 preserveAspectRatio="xMidYMid meet">
<metadata>
Created by potrace 1.16, written by Peter Selinger 2001-2019
</metadata>
<g transform="translate(0.000000,552.000000) scale(0.500000,-0.500000)"
fill="#000000" stroke="none">
<path d="M64 1061 c-4 -3 -4 -5 -4 -29 0 -25 -1 -32 -7 -47 -6 -16 -5 -297 1
-301 7 -6 64 -5 69 1 4 3 4 12 4 150 0 144 0 147 4 150 7 5 1027 4 1032 -1 3
-3 3 -16 3 -148 0 -176 -5 -155 40 -155 43 0 38 -25 37 185 -1 206 0 184 -16
192 l-12 6 -573 0 c-511 0 -574 0 -578 -3z"/>
<path d="M219 887 c-11 -2 -10 4 -12 -179 -1 -202 -8 -176 47 -176 44 0 47 1
49 11 4 14 0 337 -4 340 -3 4 -63 6 -80 4z"/>
<path d="M418 884 c-7 -5 -8 -340 -1 -347 9 -9 86 -7 90 3 5 12 1 339 -4 344
-7 6 -77 7 -85 0z"/>
<path d="M625 886 c-8 -3 -8 -5 -8 -176 -1 -159 0 -168 3 -173 6 -7 82 -8 89
-1 7 8 7 342 -1 348 -5 4 -74 6 -83 2z"/>
<path d="M828 884 c-7 -5 -8 -340 -1 -347 10 -11 87 -6 90 4 4 13 0 338 -4
342 -5 6 -78 7 -85 1z"/>
<path d="M1019 887 c-11 -2 -11 4 -11 -177 -1 -168 -1 -174 6 -177 9 -4 81 -4
86 1 9 6 7 345 -2 350 -3 2 -70 4 -79 3z"/>
<path d="M210 432 c-4 -4 -7 -379 -2 -385 6 -9 89 -10 95 -1 3 5 1 382 -2 386
-6 5 -85 6 -91 0z"/>
<path d="M423 435 c-10 -2 -10 4 -10 -198 0 -182 0 -190 4 -192 6 -5 83 -4 88
1 3 3 5 374 2 382 -3 7 -60 11 -84 7z"/>
<path d="M625 434 c-9 -4 -9 -2 -9 -197 0 -181 0 -187 4 -191 5 -6 75 -8 81
-2 5 5 5 383 0 388 -4 3 -68 5 -76 2z"/>
<path d="M826 432 c-5 -5 -6 -380 -1 -387 4 -6 74 -7 81 -1 4 3 6 149 4 380 0
11 -5 12 -44 12 -33 0 -36 0 -40 -4z"/>
</g>
</svg>
