<?xml version="1.0" standalone="no"?>
<!DOCTYPE svg PUBLIC "-//W3C//DTD SVG 20010904//EN"
 "http://www.w3.org/TR/2001/REC-SVG-20010904/DTD/svg10.dtd">
<svg version="1.0" xmlns="http://www.w3.org/2000/svg"
 width="370.000000pt" height="590.000000pt" viewBox="0 0 370.000000 590.000000"
 preserveAspectRatio="xMidYMid meet">
<metadata>
Created by potrace 1.16, written by Peter Selinger 2001-2019
</metadata>
<g transform="translate(0.000000,590.000000) scale(0.500000,-0.500000)"
fill="#000000" stroke="none">
<path d="M53 1134 c-13 -4 -13 4 -13 -136 0 -93 0 -128 2 -131 6 -13 47 -11
52 1 2 8 1 254 -2 259 -4 8 -24 11 -39 7z"/>
<path d="M227 1133 c-9 -4 -9 1 -9 -138 -1 -137 -1 -130 10 -135 29 -12 53 0
53 28 0 186 -1 238 -5 242 -5 6 -38 8 -49 3z"/>
<path d="M437 1134 c-11 -4 -11 0 -11 -138 0 -97 1 -128 3 -130 8 -12 51 -11
57 0 3 5 3 255 1 261 -3 8 -37 13 -50 7z"/>
<path d="M641 1134 c-4 -1 -8 -4 -9 -6 -3 -6 -4 -252 -2 -260 6 -15 57 -14 61
2 5 19 0 256 -5 261 -7 4 -34 6 -45 3z"/>
<path d="M441 722 c-19 -3 -18 7 -18 -126 0 -65 1 -119 2 -121 4 -12 48 -16
59 -5 7 7 6 241 0 247 -6 5 -27 8 -43 5z"/>
<path d="M45 720 c-9 -4 -9 -5 -9 -127 0 -140 -3 -127 31 -127 35 0 32 -13 31
128 0 141 4 127 -29 127 -11 1 -22 0 -24 -1z"/>
<path d="M224 719 c-8 -4 -8 -4 -8 -126 0 -108 0 -117 4 -121 8 -11 52 -11 58
0 2 4 4 189 2 238 0 11 -40 18 -56 9z"/>
<path d="M634 717 c-8 -8 -8 -241 -1 -247 15 -12 59 -6 59 9 2 110 0 234 -5
238 -9 8 -45 7 -53 0z"/>
<path d="M53 318 c-18 -3 -17 8 -17 -136 0 -152 -3 -137 29 -138 35 -1 32 -15
33 132 1 133 1 136 -7 140 -7 3 -27 4 -38 2z"/>
<path d="M227 317 c-10 -4 -10 -2 -9 -137 0 -149 -2 -136 27 -138 18 -1 30 2
33 8 5 8 3 260 -2 265 -5 5 -39 7 -49 2z"/>
<path d="M432 317 c-9 -5 -9 -4 -8 -137 0 -151 -3 -137 32 -137 35 0 32 -14
32 138 0 70 -1 128 -1 130 -4 9 -42 13 -55 6z"/>
<path d="M638 317 c-9 -4 -9 -3 -9 -136 1 -152 -2 -138 32 -138 33 0 30 -13
31 133 1 138 1 138 -10 141 -10 4 -36 3 -44 0z"/>
</g>
</svg>
