<?xml version="1.0" standalone="no"?>
<!DOCTYPE svg PUBLIC "-//W3C//DTD SVG 20010904//EN"
 "http://www.w3.org/TR/2001/REC-SVG-20010904/DTD/svg10.dtd">
<svg version="1.0" xmlns="http://www.w3.org/2000/svg"
 width="63.000000pt" height="100.000000pt" viewBox="0 0 63.000000 100.000000"
 preserveAspectRatio="xMidYMid meet">
<metadata>
Created by potrace 1.16, written by Peter Selinger 2001-2019
</metadata>
<g transform="translate(0.000000,100.000000) scale(0.100000,-0.100000)"
fill="#000000" stroke="none">
<path d="M42 962 c-9 -6 -12 -38 -10 -123 3 -110 4 -114 26 -117 l23 -3 -3
122 c-3 120 -8 138 -36 121z"/>
<path d="M186 955 c-9 -25 -7 -208 3 -223 5 -8 17 -12 27 -10 17 3 19 14 19
123 0 115 -1 120 -21 123 -13 2 -24 -4 -28 -13z"/>
<path d="M364 957 c-2 -7 -3 -62 -2 -123 3 -97 5 -109 22 -112 10 -2 22 2 27
10 14 21 11 212 -3 226 -16 16 -37 15 -44 -1z"/>
<path d="M542 962 c-9 -6 -12 -38 -10 -123 l3 -114 25 0 25 0 3 114 c3 109 -2
131 -28 131 -3 0 -11 -4 -18 -8z"/>
<path d="M43 613 c-9 -3 -13 -36 -13 -114 0 -108 0 -109 24 -109 31 0 36 15
36 119 0 98 -10 120 -47 104z"/>
<path d="M185 607 c-3 -7 -4 -58 -3 -113 3 -98 3 -99 28 -99 l25 0 0 110 c0
107 -1 110 -23 113 -12 2 -24 -3 -27 -11z"/>
<path d="M360 594 c-11 -28 -12 -146 -1 -184 10 -35 39 -38 51 -5 13 34 13
171 0 196 -15 27 -39 24 -50 -7z"/>
<path d="M543 613 c-9 -3 -13 -36 -13 -114 l0 -110 28 3 27 3 0 110 c0 113 -4
124 -42 108z"/>
<path d="M42 272 c-9 -6 -12 -38 -10 -123 3 -102 5 -114 22 -117 29 -6 36 16
36 124 0 111 -11 139 -48 116z"/>
<path d="M191 266 c-8 -9 -11 -49 -9 -122 l3 -109 28 -3 28 -3 -3 123 c-3 103
-6 123 -19 126 -9 1 -21 -4 -28 -12z"/>
<path d="M367 273 c-4 -3 -7 -60 -7 -125 l0 -119 28 3 27 3 3 96 c1 53 -2 108
-7 122 -10 26 -30 35 -44 20z"/>
<path d="M534 267 c-2 -7 -3 -62 -2 -123 3 -109 3 -109 28 -109 25 0 25 0 28
109 3 109 -4 136 -35 136 -7 0 -16 -6 -19 -13z"/>
</g>
</svg>
