<?xml version="1.0" standalone="no"?>
<!DOCTYPE svg PUBLIC "-//W3C//DTD SVG 20010904//EN"
 "http://www.w3.org/TR/2001/REC-SVG-20010904/DTD/svg10.dtd">
<svg version="1.0" xmlns="http://www.w3.org/2000/svg"
 width="92.000000pt" height="148.000000pt" viewBox="0 0 92.000000 148.000000"
 preserveAspectRatio="xMidYMid meet">
<metadata>
Created by potrace 1.16, written by Peter Selinger 2001-2019
</metadata>
<g transform="translate(0.000000,148.000000) scale(0.100000,-0.100000)"
fill="#000000" stroke="none">
<path d="M50 1245 l0 -176 32 3 32 3 0 170 0 170 -32 3 -32 3 0 -176z"/>
<path d="M272 1248 l3 -173 33 -3 32 -3 0 165 c0 91 1 169 3 174 1 4 -15 8
-36 10 l-37 3 2 -173z"/>
<path d="M532 1248 l3 -173 30 0 30 0 3 173 2 172 -35 0 -35 0 2 -172z"/>
<path d="M783 1406 c-4 -8 -6 -86 -3 -173 l5 -158 35 0 35 0 0 170 0 170 -32
3 c-20 2 -34 -2 -40 -12z"/>
<path d="M45 888 c-3 -8 -4 -79 -3 -158 l3 -145 35 0 35 0 0 155 0 155 -33 3
c-20 2 -34 -2 -37 -10z"/>
<path d="M270 896 c-3 -2 -4 -74 -2 -160 l3 -156 34 0 35 0 0 150 c0 83 1 153
3 158 2 8 -66 16 -73 8z"/>
<path d="M529 898 c-3 -9 -4 -295 -1 -305 2 -7 19 -13 38 -13 l34 0 0 160 0
160 -35 0 c-19 0 -35 -1 -36 -2z"/>
<path d="M778 753 c-2 -81 -1 -154 1 -161 2 -8 16 -12 40 -10 l36 3 0 155 0
155 -37 3 -37 3 -3 -148z"/>
<path d="M45 388 c-3 -8 -4 -86 -3 -173 l3 -160 35 0 35 0 0 170 0 170 -33 3
c-20 2 -34 -2 -37 -10z"/>
<path d="M277 393 c-4 -3 -7 -82 -7 -175 l0 -168 35 0 35 0 0 175 0 175 -28 0
c-16 0 -32 -3 -35 -7z"/>
<path d="M529 388 c-3 -7 -4 -85 -4 -173 l1 -160 37 -3 37 -3 -2 173 -3 173
-31 3 c-19 2 -33 -2 -35 -10z"/>
<path d="M785 388 c-3 -8 -4 -86 -3 -173 l3 -160 35 0 35 0 0 170 0 170 -33 3
c-20 2 -34 -2 -37 -10z"/>
</g>
</svg>
