<?xml version="1.0" standalone="no"?>
<!DOCTYPE svg PUBLIC "-//W3C//DTD SVG 20010904//EN"
 "http://www.w3.org/TR/2001/REC-SVG-20010904/DTD/svg10.dtd">
<svg version="1.0" xmlns="http://www.w3.org/2000/svg"
 width="100.000000pt" height="73.000000pt" viewBox="0 0 100.000000 73.000000"
 preserveAspectRatio="xMidYMid meet">
<metadata>
Created by potrace 1.16, written by Peter Selinger 2001-2019
</metadata>
<g transform="translate(0.000000,73.000000) scale(0.100000,-0.100000)"
fill="#000000" stroke="none">
<path d="M27 703 c-4 -3 -7 -42 -7 -85 0 -62 3 -80 15 -85 22 -8 27 0 33 56 8
86 -12 143 -41 114z"/>
<path d="M136 688 c-11 -42 -7 -145 7 -156 28 -23 38 3 35 89 -2 68 -6 84 -19
87 -10 2 -19 -6 -23 -20z"/>
<path d="M267 703 c-13 -13 -8 -160 6 -172 26 -21 37 9 37 96 0 74 -2 83 -18
83 -10 0 -22 -3 -25 -7z"/>
<path d="M397 703 c-4 -3 -7 -44 -7 -90 0 -82 1 -84 23 -81 21 3 22 8 25 91 3
79 1 87 -16 87 -10 0 -22 -3 -25 -7z"/>
<path d="M576 688 c-12 -47 -7 -145 9 -158 27 -23 36 2 33 91 -2 68 -6 84 -19
87 -10 2 -19 -6 -23 -20z"/>
<path d="M690 621 c0 -92 8 -113 36 -90 11 9 14 31 12 93 -3 75 -5 81 -25 84
-22 3 -23 1 -23 -87z"/>
<path d="M820 620 c0 -74 3 -92 16 -97 26 -10 34 17 32 102 -3 74 -5 80 -25
83 -22 3 -23 1 -23 -88z"/>
<path d="M957 704 c-4 -4 -7 -45 -7 -91 0 -82 1 -84 23 -81 21 3 22 7 22 88 0
69 -3 85 -15 88 -9 1 -19 0 -23 -4z"/>
<path d="M32 448 c-7 -7 -12 -40 -12 -85 0 -58 3 -75 16 -80 24 -9 34 15 34
83 0 66 -17 103 -38 82z"/>
<path d="M271 447 c-14 -14 -14 -150 0 -164 6 -6 18 -9 25 -6 20 7 20 169 0
176 -7 3 -19 0 -25 -6z"/>
<path d="M401 447 c-6 -6 -11 -44 -11 -88 0 -61 3 -78 16 -83 28 -11 34 4 34
89 0 61 -4 84 -14 88 -7 3 -19 0 -25 -6z"/>
<path d="M134 437 c-3 -8 -4 -45 -2 -83 3 -61 5 -69 23 -69 18 0 20 8 23 83 3
77 2 82 -18 82 -11 0 -23 -6 -26 -13z"/>
<path d="M574 437 c-3 -8 -4 -47 -2 -88 3 -66 5 -74 23 -74 18 0 20 8 23 88 3
82 2 87 -18 87 -11 0 -23 -6 -26 -13z"/>
<path d="M690 366 c0 -86 6 -101 34 -90 14 5 16 20 14 88 -3 75 -5 81 -25 84
-22 3 -23 1 -23 -82z"/>
<path d="M814 405 c-7 -51 0 -113 15 -128 7 -7 15 -6 26 3 12 10 15 29 13 89
-3 69 -5 76 -25 79 -19 3 -23 -3 -29 -43z"/>
<path d="M957 444 c-4 -4 -7 -43 -7 -86 0 -77 1 -79 23 -76 21 3 22 8 22 83 0
64 -3 80 -15 83 -9 1 -19 0 -23 -4z"/>
<path d="M27 193 c-4 -3 -7 -44 -7 -90 0 -66 3 -85 15 -90 23 -8 28 1 33 62 7
91 -12 148 -41 118z"/>
<path d="M137 194 c-10 -10 -8 -156 2 -173 5 -8 16 -11 25 -8 24 9 19 180 -4
185 -9 1 -19 0 -23 -4z"/>
<path d="M265 187 c-3 -7 -5 -49 -3 -93 3 -71 5 -79 23 -79 19 0 20 7 20 90 0
78 -2 90 -18 93 -9 2 -19 -3 -22 -11z"/>
<path d="M397 194 c-10 -10 -8 -156 2 -173 5 -8 16 -11 25 -8 24 9 19 180 -4
185 -9 1 -19 0 -23 -4z"/>
<path d="M582 188 c-14 -14 -16 -146 -3 -167 5 -8 16 -11 25 -8 14 6 16 21 14
94 -3 85 -12 105 -36 81z"/>
<path d="M694 187 c-3 -8 -4 -49 -2 -93 3 -71 5 -79 23 -79 18 0 20 8 23 70 2
38 0 80 -3 92 -6 25 -33 31 -41 10z"/>
<path d="M827 193 c-4 -3 -7 -46 -7 -95 0 -87 1 -89 23 -86 20 3 22 9 25 73 2
38 0 80 -3 92 -5 22 -24 30 -38 16z"/>
<path d="M950 105 c0 -84 1 -86 23 -83 21 3 22 8 22 83 0 75 -1 80 -22 83 -22
3 -23 1 -23 -83z"/>
</g>
</svg>
