<?xml version="1.0" standalone="no"?>
<!DOCTYPE svg PUBLIC "-//W3C//DTD SVG 20010904//EN"
 "http://www.w3.org/TR/2001/REC-SVG-20010904/DTD/svg10.dtd">
<svg version="1.0" xmlns="http://www.w3.org/2000/svg"
 width="204.000000pt" height="148.000000pt" viewBox="0 0 204.000000 148.000000"
 preserveAspectRatio="xMidYMid meet">
<metadata>
Created by potrace 1.16, written by Peter Selinger 2001-2019
</metadata>
<g transform="translate(0.000000,148.000000) scale(0.100000,-0.100000)"
fill="#000000" stroke="none">
<path d="M55 1428 c-3 -8 -4 -88 -3 -178 l3 -165 30 0 30 0 0 175 0 175 -28 3
c-16 2 -29 -2 -32 -10z"/>
<path d="M287 1433 c-11 -17 -11 -333 0 -344 6 -6 23 -9 39 -7 l29 3 0 175 0
175 -32 3 c-17 2 -33 -1 -36 -5z"/>
<path d="M552 1263 l3 -178 30 0 30 0 3 178 2 177 -35 0 -35 0 2 -177z"/>
<path d="M817 1434 c-4 -4 -7 -83 -7 -176 0 -182 2 -187 54 -174 l23 6 -1 172
-1 173 -30 3 c-17 2 -34 0 -38 -4z"/>
<path d="M1193 1426 c-4 -8 -6 -90 -3 -183 l5 -168 30 0 30 0 3 169 c2 116 -1
173 -9 182 -15 18 -46 18 -56 0z"/>
<path d="M1430 1430 c-12 -8 -15 -39 -16 -172 0 -91 3 -169 9 -175 5 -7 20
-13 33 -13 12 0 26 6 31 13 4 6 8 85 8 175 1 145 -1 165 -16 173 -22 11 -30
11 -49 -1z"/>
<path d="M1695 1430 c-10 -17 -8 -341 3 -352 5 -5 20 -8 33 -6 l24 3 0 180 0
180 -27 3 c-14 2 -29 -2 -33 -8z"/>
<path d="M1950 1256 l0 -176 35 0 35 0 -2 173 -3 172 -32 3 -33 3 0 -175z"/>
<path d="M60 900 c-10 -6 -13 -47 -14 -160 -1 -161 3 -174 46 -168 23 3 23 4
26 166 1 89 -1 162 -5 163 -5 0 -15 2 -24 4 -9 1 -22 -1 -29 -5z"/>
<path d="M557 899 c-12 -7 -15 -34 -13 -158 1 -159 6 -175 47 -169 l24 3 0
165 c0 161 0 165 -21 166 -12 1 -28 -3 -37 -7z"/>
<path d="M815 898 c-3 -8 -4 -83 -3 -168 3 -153 3 -155 26 -158 46 -7 50 8 50
173 0 144 -1 155 -18 155 -10 0 -25 3 -34 6 -9 3 -18 0 -21 -8z"/>
<path d="M279 898 c0 -2 -1 -72 -2 -156 -2 -166 1 -176 50 -170 l28 3 3 163 2
162 -40 0 c-22 0 -40 -1 -41 -2z"/>
<path d="M1182 738 l3 -163 35 0 35 0 3 163 2 162 -40 0 -40 0 2 -162z"/>
<path d="M1415 888 c-3 -8 -4 -81 -3 -163 l3 -150 40 0 40 0 0 160 0 160 -38
3 c-24 2 -39 -1 -42 -10z"/>
<path d="M1684 887 c-2 -7 -3 -80 -2 -162 l3 -150 38 -3 37 -3 0 165 0 166
-35 0 c-20 0 -38 -6 -41 -13z"/>
<path d="M1950 735 l0 -166 33 3 32 3 0 160 0 160 -32 3 -33 3 0 -166z"/>
<path d="M55 379 c-4 -6 -8 -85 -9 -176 -1 -162 -1 -164 21 -170 52 -12 54 -7
51 179 l-3 173 -27 3 c-14 2 -29 -2 -33 -9z"/>
<path d="M285 379 c-6 -9 -8 -144 -5 -342 0 -5 17 -7 38 -5 l37 3 0 175 0 175
-32 3 c-17 2 -34 -2 -38 -9z"/>
<path d="M554 383 c-7 -5 -10 -66 -10 -178 l1 -170 35 0 35 0 0 175 0 175 -25
3 c-14 1 -30 -1 -36 -5z"/>
<path d="M814 377 c-2 -7 -3 -87 -2 -177 l3 -165 35 0 35 0 1 170 c0 112 -3
172 -10 177 -18 12 -56 9 -62 -5z"/>
<path d="M1182 208 l3 -173 35 0 35 0 3 173 2 172 -40 0 -40 0 2 -172z"/>
<path d="M1418 373 c-3 -4 -4 -82 -3 -173 l1 -165 39 0 39 0 1 170 0 170 -37
3 c-20 2 -38 -1 -40 -5z"/>
<path d="M1684 367 c-2 -7 -3 -85 -2 -172 l3 -160 38 -3 37 -3 0 175 0 176
-35 0 c-20 0 -38 -6 -41 -13z"/>
<path d="M1950 205 l0 -176 33 3 32 3 0 170 0 170 -32 3 -33 3 0 -176z"/>
</g>
</svg>
