<?xml version="1.0" standalone="no"?>
<!DOCTYPE svg PUBLIC "-//W3C//DTD SVG 20010904//EN"
 "http://www.w3.org/TR/2001/REC-SVG-20010904/DTD/svg10.dtd">
<svg version="1.0" xmlns="http://www.w3.org/2000/svg"
 width="150.000000pt" height="156.000000pt" viewBox="0 0 150.000000 156.000000"
 preserveAspectRatio="xMidYMid meet">
<metadata>
Created by potrace 1.16, written by Peter Selinger 2001-2019
</metadata>
<g transform="translate(0.000000,156.000000) scale(0.100000,-0.100000)"
fill="#000000" stroke="none">
<path d="M1227 1503 c-22 -25 -21 -39 2 -72 85 -119 151 -400 158 -671 5 -169
0 -225 -29 -320 -23 -76 -112 -297 -130 -323 -27 -38 -20 -71 15 -75 25 -3 30
2 62 72 19 42 35 78 35 81 0 2 12 30 27 62 14 32 30 74 34 93 4 19 14 60 23
90 20 71 36 206 36 295 -1 268 -95 635 -194 759 -21 27 -22 27 -39 9z"/>
<path d="M46 1485 c-16 -25 -16 -27 13 -68 71 -99 122 -284 161 -585 13 -95 0
-281 -26 -372 -31 -112 -125 -343 -144 -355 -14 -9 -13 -48 2 -63 26 -26 48
-13 72 41 70 156 104 248 143 395 18 71 20 368 3 487 -15 101 -45 228 -76 325
-30 91 -95 214 -116 218 -8 2 -23 -9 -32 -23z"/>
<path d="M346 1472 c-7 -11 -6 -309 1 -334 3 -12 14 -18 34 -18 16 0 29 3 29
8 0 4 1 84 2 177 l2 170 -31 3 c-17 2 -34 -1 -37 -6z"/>
<path d="M574 1467 c-2 -7 -3 -87 -2 -177 l3 -165 35 0 35 0 5 163 c3 90 1
170 -3 178 -10 18 -66 19 -73 1z"/>
<path d="M845 1468 c-3 -8 -4 -88 -3 -178 l3 -165 35 0 35 0 0 175 0 175 -33
3 c-20 2 -34 -2 -37 -10z"/>
<path d="M1105 1468 c-3 -8 -4 -88 -3 -178 l3 -165 35 0 35 0 0 175 0 175 -33
3 c-20 2 -34 -2 -37 -10z"/>
<path d="M342 778 l3 -163 35 0 35 0 0 160 0 160 -38 3 -38 3 3 -163z"/>
<path d="M572 778 l3 -163 29 -3 c16 -2 33 1 38 6 5 5 9 78 9 163 l0 154 -41
3 -41 3 3 -163z"/>
<path d="M839 935 c0 -3 -1 -76 -1 -162 l-1 -158 39 0 39 0 3 163 2 162 -40 0
c-22 0 -40 -2 -41 -5z"/>
<path d="M1102 778 l3 -163 35 0 35 0 3 163 2 162 -40 0 -40 0 2 -162z"/>
<path d="M338 266 c-1 -86 -2 -164 -2 -173 -1 -14 7 -18 39 -18 l40 0 0 170 0
170 -37 3 -38 3 -2 -155z"/>
<path d="M570 245 l0 -175 40 0 39 0 3 165 c2 91 2 170 0 175 -2 6 -21 10 -43
10 l-39 0 0 -175z"/>
<path d="M839 416 c-3 -3 -4 -80 -2 -173 l2 -168 38 0 38 0 3 173 2 172 -38 0
c-21 0 -41 -2 -43 -4z"/>
<path d="M1104 407 c-2 -7 -3 -85 -2 -172 l3 -160 35 0 35 0 3 173 2 172 -35
0 c-20 0 -38 -6 -41 -13z"/>
</g>
</svg>
