<?xml version="1.0" standalone="no"?>
<!DOCTYPE svg PUBLIC "-//W3C//DTD SVG 20010904//EN"
 "http://www.w3.org/TR/2001/REC-SVG-20010904/DTD/svg10.dtd">
<svg version="1.0" xmlns="http://www.w3.org/2000/svg"
 width="600.000000pt" height="620.000000pt" viewBox="0 0 600.000000 620.000000"
 preserveAspectRatio="xMidYMid meet">
<metadata>
Created by potrace 1.16, written by Peter Selinger 2001-2019
</metadata>
<g transform="translate(0.000000,620.000000) scale(0.500000,-0.500000)"
fill="#000000" stroke="none">
<path d="M991 1206 c-6 -2 -18 -19 -21 -28 -4 -10 -1 -18 14 -38 8 -10 14 -20
15 -22 1 -3 5 -11 9 -19 5 -7 10 -19 13 -26 3 -7 7 -18 10 -23 7 -15 17 -40
23 -64 16 -61 20 -78 28 -110 4 -19 9 -38 9 -44 1 -5 5 -29 9 -53 5 -24 9 -53
10 -65 1 -12 3 -33 4 -48 6 -56 0 -221 -8 -243 -1 -3 -2 -11 -3 -16 -1 -6 -5
-22 -10 -36 -5 -14 -10 -32 -11 -39 -1 -7 -6 -21 -10 -31 -4 -10 -12 -30 -18
-44 -6 -14 -16 -39 -22 -55 -6 -16 -15 -37 -19 -47 -9 -23 -21 -47 -32 -62 -7
-10 -8 -13 -9 -24 -3 -51 52 -50 67 1 2 8 15 37 19 42 3 3 7 13 10 22 3 10 8
23 12 31 3 7 7 17 9 23 1 5 8 19 14 30 6 12 11 25 12 29 1 4 3 12 4 17 1 5 3
13 4 17 1 4 6 21 11 38 6 16 11 37 13 47 2 9 5 26 8 37 3 11 5 28 6 37 1 9 2
25 3 34 5 48 6 58 4 139 -2 81 -7 148 -13 157 -1 2 -2 13 -3 25 -3 38 -6 54
-12 74 -3 10 -8 27 -10 37 -10 44 -23 96 -28 109 -3 8 -10 28 -15 44 -12 39
-41 95 -63 124 -20 26 -22 28 -33 23z"/>
<path d="M52 1201 c-9 -6 -20 -26 -20 -34 0 -11 1 -14 15 -32 21 -27 60 -113
68 -147 2 -7 5 -20 8 -28 3 -8 7 -25 10 -37 3 -12 9 -36 13 -54 4 -18 9 -39
10 -48 1 -9 5 -34 9 -55 4 -22 8 -49 9 -62 1 -13 3 -34 4 -48 6 -62 0 -208 -9
-239 -2 -5 -3 -12 -3 -16 0 -3 -4 -17 -9 -32 -5 -14 -10 -34 -12 -43 -2 -9 -6
-23 -10 -31 -4 -8 -12 -27 -18 -42 -11 -27 -14 -34 -27 -67 -16 -43 -34 -79
-43 -92 -28 -38 -5 -81 34 -64 5 3 19 25 22 36 1 3 7 17 14 31 7 14 14 30 15
34 1 4 6 17 11 28 5 11 10 24 11 29 1 4 6 15 11 23 10 18 13 25 19 54 2 11 9
35 15 53 18 55 24 88 30 155 2 21 4 38 4 39 0 1 0 42 -1 92 -2 93 -4 119 -12
159 -2 10 -4 25 -4 32 0 18 -5 53 -10 64 -3 10 -7 22 -24 95 -5 19 -11 43 -15
53 -4 10 -11 32 -17 50 -16 51 -41 97 -75 141 -6 7 -17 8 -23 3z"/>
<path d="M287 1177 c-11 -5 -11 -1 -11 -138 0 -144 -1 -139 14 -143 13 -4 33
-1 39 4 5 5 8 261 3 270 -5 9 -31 13 -45 7z"/>
<path d="M473 1178 c-14 -4 -14 5 -13 -139 0 -72 0 -132 0 -134 0 -11 47 -17
59 -6 6 4 9 262 3 273 -4 7 -33 11 -49 6z"/>
<path d="M687 1179 c-13 -3 -13 2 -13 -143 0 -157 -3 -142 32 -142 35 0 32
-15 32 142 0 156 1 154 -51 143z"/>
<path d="M893 1176 c-10 -4 -9 0 -10 -139 0 -158 -4 -142 32 -142 36 0 33 -15
32 142 0 155 3 140 -30 140 -11 1 -22 0 -24 -1z"/>
<path d="M469 752 c-10 -4 -10 0 -10 -130 0 -144 -3 -132 33 -132 35 0 32 -14
32 132 0 145 3 132 -31 132 -11 0 -22 -1 -24 -2z"/>
<path d="M677 749 c-9 -7 -9 -247 0 -254 8 -8 49 -7 56 0 8 8 8 246 0 254 -7
7 -48 8 -56 0z"/>
<path d="M888 748 c-10 -9 -9 -243 0 -252 8 -9 49 -9 56 0 4 4 6 239 3 249 -5
11 -49 13 -59 3z"/>
<path d="M279 747 c-8 -8 -8 -242 0 -250 10 -10 53 -7 56 3 1 3 2 205 1 240 0
13 -45 19 -57 7z"/>
<path d="M292 338 c-19 -3 -17 9 -19 -138 -1 -157 -4 -144 33 -144 34 0 31
-13 31 140 0 71 -1 131 -2 133 -2 8 -23 12 -43 9z"/>
<path d="M468 337 c-8 -4 -8 -3 -8 -141 0 -155 -3 -140 32 -140 36 0 32 -15
32 142 0 157 3 142 -31 142 -13 0 -22 -1 -25 -3z"/>
<path d="M679 336 c-5 -2 -7 -6 -7 -8 -3 -75 1 -264 5 -267 7 -7 48 -7 55 -1
5 4 9 242 5 267 -2 13 -42 19 -58 9z"/>
<path d="M891 336 c-4 -2 -7 -5 -7 -6 -2 -4 0 -258 1 -264 3 -11 50 -14 59 -3
5 6 4 264 -1 270 -6 8 -42 10 -52 3z"/>
</g>
</svg>
