<?xml version="1.0" standalone="no"?>
<!DOCTYPE svg PUBLIC "-//W3C//DTD SVG 20010904//EN"
 "http://www.w3.org/TR/2001/REC-SVG-20010904/DTD/svg10.dtd">
<svg version="1.0" xmlns="http://www.w3.org/2000/svg"
 width="96.000000pt" height="100.000000pt" viewBox="0 0 96.000000 100.000000"
 preserveAspectRatio="xMidYMid meet">
<metadata>
Created by potrace 1.16, written by Peter Selinger 2001-2019
</metadata>
<g transform="translate(0.000000,100.000000) scale(0.100000,-0.100000)"
fill="#000000" stroke="none">
<path d="M24 955 c-4 -9 8 -44 25 -79 59 -120 98 -325 87 -460 -7 -98 -25
-161 -78 -279 -41 -91 -43 -117 -10 -117 22 0 76 110 112 228 20 67 22 88 18
250 -4 140 -9 195 -27 262 -37 142 -107 249 -127 195z"/>
<path d="M775 960 c-4 -6 7 -40 24 -75 51 -103 84 -267 85 -415 0 -112 -3
-134 -28 -210 -16 -47 -39 -109 -52 -139 -26 -59 -30 -86 -13 -97 19 -11 46
28 82 121 52 133 60 190 54 377 -4 124 -10 182 -27 243 -37 136 -100 235 -125
195z"/>
<path d="M221 946 c-9 -11 -10 -44 -4 -123 7 -99 10 -108 28 -108 19 0 20 8
23 109 2 71 -1 113 -9 122 -15 18 -24 18 -38 0z"/>
<path d="M370 941 c-11 -21 -14 -171 -4 -209 5 -16 13 -22 28 -20 20 3 21 10
24 117 2 85 -1 117 -10 123 -20 12 -26 10 -38 -11z"/>
<path d="M540 941 c-12 -24 -13 -200 -1 -219 5 -8 17 -12 27 -10 17 3 19 15
22 117 2 85 -1 117 -10 123 -20 12 -26 10 -38 -11z"/>
<path d="M704 937 c-2 -7 -3 -60 -2 -118 3 -92 5 -104 22 -107 28 -6 36 15 36
93 0 105 -9 145 -32 145 -10 0 -21 -6 -24 -13z"/>
<path d="M225 597 c-3 -7 -4 -56 -3 -108 3 -86 5 -94 23 -94 19 0 20 7 20 105
0 92 -2 105 -18 108 -9 2 -19 -3 -22 -11z"/>
<path d="M366 588 c-8 -30 -7 -146 0 -176 5 -16 13 -22 28 -20 20 3 21 10 24
111 l3 107 -24 0 c-17 0 -27 -7 -31 -22z"/>
<path d="M535 597 c-3 -7 -4 -56 -3 -108 3 -93 3 -94 28 -94 l25 0 0 105 c0
101 -1 105 -23 108 -12 2 -24 -3 -27 -11z"/>
<path d="M705 597 c-3 -7 -4 -56 -3 -108 3 -93 3 -94 28 -94 l25 0 0 105 c0
101 -1 105 -23 108 -12 2 -24 -3 -27 -11z"/>
<path d="M225 270 c-11 -17 -19 -173 -11 -205 5 -20 12 -26 29 -23 21 3 22 7
22 118 0 99 -2 115 -17 118 -9 2 -19 -2 -23 -8z"/>
<path d="M366 265 c-8 -21 -8 -173 0 -203 5 -16 13 -22 28 -20 20 3 21 8 21
118 0 110 -1 115 -21 118 -13 2 -24 -4 -28 -13z"/>
<path d="M542 268 c-14 -14 -17 -195 -3 -216 5 -8 17 -12 27 -10 17 3 19 14
19 118 0 95 -3 115 -15 118 -9 1 -21 -3 -28 -10z"/>
<path d="M705 268 c-3 -8 -4 -61 -3 -119 3 -98 4 -104 25 -107 20 -3 22 2 28
80 10 120 5 152 -23 156 -12 2 -24 -3 -27 -10z"/>
</g>
</svg>
