<?xml version="1.0" standalone="no"?>
<!DOCTYPE svg PUBLIC "-//W3C//DTD SVG 20010904//EN"
 "http://www.w3.org/TR/2001/REC-SVG-20010904/DTD/svg10.dtd">
<svg version="1.0" xmlns="http://www.w3.org/2000/svg"
 width="396.000000pt" height="590.000000pt" viewBox="0 0 396.000000 590.000000"
 preserveAspectRatio="xMidYMid meet">
<metadata>
Created by potrace 1.16, written by Peter Selinger 2001-2019
</metadata>
<g transform="translate(0.000000,590.000000) scale(0.500000,-0.500000)"
fill="#000000" stroke="none">
<path d="M57 1154 c-4 -1 -8 -4 -10 -6 -6 -7 -5 -1110 2 -1115 9 -8 41 -6 44
3 2 5 1 1108 -1 1112 -4 7 -22 10 -35 6z"/>
<path d="M267 1151 c-5 -4 -8 -1108 -3 -1117 5 -10 38 -11 47 -2 6 5 6 5 4
195 -1 230 -21 197 116 197 61 0 114 0 119 0 17 0 16 -16 16 185 0 174 0 177
-4 181 -5 5 6 5 -128 4 -100 0 -111 0 -115 3 -5 3 -5 3 -4 173 2 182 2 179 -8
184 -10 4 -35 3 -40 -3z m245 -419 c5 -4 4 -249 -1 -253 -5 -6 -185 -7 -192
-2 -6 4 -8 250 -2 256 5 4 191 4 195 -1z"/>
<path d="M704 1154 c-3 -1 -7 -3 -9 -4 -5 -5 -3 -1112 3 -1118 6 -6 42 -6 48
1 6 8 5 1112 -2 1117 -2 2 -6 4 -9 4 -2 0 -8 0 -14 1 -5 0 -13 0 -17 -1z"/>
</g>
</svg>
