<?xml version="1.0" standalone="no"?>
<!DOCTYPE svg PUBLIC "-//W3C//DTD SVG 20010904//EN"
 "http://www.w3.org/TR/2001/REC-SVG-20010904/DTD/svg10.dtd">
<svg version="1.0" xmlns="http://www.w3.org/2000/svg"
 width="68.000000pt" height="100.000000pt" viewBox="0 0 68.000000 100.000000"
 preserveAspectRatio="xMidYMid meet">
<metadata>
Created by potrace 1.16, written by Peter Selinger 2001-2019
</metadata>
<g transform="translate(0.000000,100.000000) scale(0.100000,-0.100000)"
fill="#000000" stroke="none">
<path d="M37 904 c-9 -99 -9 -694 0 -801 5 -72 8 -83 25 -83 18 0 18 18 16
477 -3 429 -5 478 -19 481 -13 2 -17 -11 -22 -74z"/>
<path d="M227 974 c-4 -4 -7 -218 -7 -476 0 -416 2 -469 16 -475 31 -12 36 13
35 171 l-1 156 90 0 c135 0 130 -7 130 165 0 88 -4 146 -10 150 -6 4 -50 8
-98 10 -48 1 -93 3 -99 4 -9 1 -13 41 -15 148 -3 124 -5 148 -18 151 -9 1 -19
0 -23 -4z m207 -370 c8 -22 7 -167 -2 -180 -9 -13 -96 -24 -134 -17 l-28 5 0
97 c0 54 3 101 7 104 3 4 39 7 79 7 56 0 73 -3 78 -16z"/>
<path d="M595 958 c-3 -13 -4 -228 -3 -478 l3 -455 21 -3 c21 -3 22 0 29 220
3 123 3 338 -2 478 -7 229 -10 255 -25 258 -11 2 -19 -5 -23 -20z"/>
</g>
</svg>
