<?xml version="1.0" standalone="no"?>
<!DOCTYPE svg PUBLIC "-//W3C//DTD SVG 20010904//EN"
 "http://www.w3.org/TR/2001/REC-SVG-20010904/DTD/svg10.dtd">
<svg version="1.0" xmlns="http://www.w3.org/2000/svg"
 width="100.000000pt" height="148.000000pt" viewBox="0 0 100.000000 148.000000"
 preserveAspectRatio="xMidYMid meet">
<metadata>
Created by potrace 1.16, written by Peter Selinger 2001-2019
</metadata>
<g transform="translate(0.000000,148.000000) scale(0.100000,-0.100000)"
fill="#000000" stroke="none">
<path d="M52 738 l3 -703 30 0 30 0 0 700 0 700 -33 3 -32 3 2 -703z"/>
<path d="M330 735 l0 -706 32 3 32 3 -3 248 -3 247 161 0 161 0 0 230 0 230
-161 0 -161 0 3 223 3 222 -32 3 -32 3 0 -706z m320 20 l0 -165 -130 0 -130 0
0 165 0 165 130 0 130 0 0 -165z"/>
<path d="M872 738 l3 -703 30 0 30 0 3 703 2 702 -35 0 -35 0 2 -702z"/>
</g>
</svg>
