<?xml version="1.0" standalone="no"?>
<!DOCTYPE svg PUBLIC "-//W3C//DTD SVG 20010904//EN"
 "http://www.w3.org/TR/2001/REC-SVG-20010904/DTD/svg10.dtd">
<svg version="1.0" xmlns="http://www.w3.org/2000/svg"
 width="100.000000pt" height="148.000000pt" viewBox="0 0 100.000000 148.000000"
 preserveAspectRatio="xMidYMid meet">
<metadata>
Created by potrace 1.16, written by Peter Selinger 2001-2019
</metadata>
<g transform="translate(0.000000,148.000000) scale(0.100000,-0.100000)"
fill="#000000" stroke="none">
<path d="M291 1324 c-57 -57 -111 -104 -121 -104 -25 0 -42 -25 -38 -57 3 -24
8 -28 39 -31 33 -3 45 4 107 60 39 35 89 84 112 111 23 26 50 47 60 47 26 0
43 26 36 55 -6 22 -11 25 -49 24 -40 -1 -48 -7 -146 -105z"/>
<path d="M716 1310 c-60 -61 -115 -110 -122 -110 -18 0 -64 -58 -64 -81 0 -10
11 -26 25 -35 30 -19 4 -38 205 150 69 65 129 124 133 132 13 23 -11 54 -41
54 -21 0 -51 -24 -136 -110z"/>
<path d="M271 985 c-34 -30 -65 -55 -70 -55 -4 0 -14 -11 -21 -25 -7 -14 -18
-25 -24 -25 -6 0 -22 -14 -36 -31 -14 -17 -35 -43 -47 -57 -27 -31 -30 -77 -7
-86 39 -15 50 -6 182 141 41 45 84 84 98 87 32 8 58 59 44 86 -18 34 -53 24
-119 -35z"/>
<path d="M765 889 c-44 -39 -97 -82 -117 -95 -30 -19 -38 -31 -38 -54 0 -23 5
-31 24 -36 28 -7 66 3 66 17 0 5 6 9 13 9 6 0 32 19 57 41 25 23 64 57 88 77
38 31 43 39 40 71 -2 30 -7 36 -28 39 -19 2 -44 -14 -105 -69z"/>
<path d="M373 624 c-63 -83 -100 -118 -143 -137 -62 -27 -100 -64 -100 -99 0
-53 51 -53 115 0 29 25 62 42 80 42 9 0 19 8 23 18 7 17 49 66 111 128 26 27
32 40 27 59 -5 21 -12 25 -46 25 -33 0 -43 -5 -67 -36z"/>
<path d="M620 322 c-20 -24 -152 -102 -172 -102 -13 0 -128 -78 -141 -94 -4
-6 -6 -24 -5 -41 3 -25 8 -31 32 -33 16 -2 32 1 35 6 9 13 135 93 224 142 116
63 146 97 115 128 -18 18 -71 14 -88 -6z"/>
</g>
</svg>
