<?xml version="1.0" standalone="no"?>
<!DOCTYPE svg PUBLIC "-//W3C//DTD SVG 20010904//EN"
 "http://www.w3.org/TR/2001/REC-SVG-20010904/DTD/svg10.dtd">
<svg version="1.0" xmlns="http://www.w3.org/2000/svg"
 width="396.000000pt" height="590.000000pt" viewBox="0 0 396.000000 590.000000"
 preserveAspectRatio="xMidYMid meet">
<metadata>
Created by potrace 1.16, written by Peter Selinger 2001-2019
</metadata>
<g transform="translate(0.000000,590.000000) scale(0.500000,-0.500000)"
fill="#000000" stroke="none">
<path d="M318 1145 c-8 -2 -26 -18 -30 -29 -6 -12 -69 -76 -83 -83 -6 -3 -20
-15 -35 -30 -22 -21 -27 -25 -33 -26 -22 -3 -31 -14 -31 -38 0 -33 24 -50 53
-35 4 2 12 5 17 6 12 3 19 8 24 18 2 4 7 9 10 11 4 2 14 10 23 19 9 8 20 17
24 20 10 5 33 28 39 39 4 9 55 60 61 62 2 0 7 1 11 2 22 4 31 38 14 56 -8 8
-39 12 -64 8z"/>
<path d="M649 1132 c-7 -4 -23 -22 -23 -25 0 -2 -5 -6 -11 -10 -15 -10 -49
-46 -55 -58 -4 -8 -7 -11 -14 -15 -5 -3 -21 -16 -35 -30 -15 -14 -29 -26 -34
-28 -57 -25 -69 -104 -15 -104 15 0 15 0 23 10 19 20 21 22 32 27 10 5 187
178 193 188 16 32 -28 65 -61 45z"/>
<path d="M265 832 c-2 -2 -7 -5 -11 -8 -3 -3 -9 -7 -13 -9 -3 -1 -17 -13 -30
-27 -15 -15 -27 -26 -33 -28 -13 -7 -25 -19 -32 -32 -5 -10 -7 -12 -17 -17
-13 -7 -45 -38 -50 -50 -2 -4 -9 -13 -17 -21 -19 -19 -20 -20 -20 -42 0 -36
30 -52 56 -30 4 3 11 8 16 11 11 6 17 12 21 22 2 4 8 13 14 19 6 6 12 14 14
17 2 4 6 9 11 11 10 5 32 29 38 41 7 15 42 46 63 56 51 25 57 89 9 89 -8 0
-17 -1 -19 -2z"/>
<path d="M671 767 c-3 -1 -8 -4 -10 -7 -2 -2 -8 -7 -13 -9 -5 -3 -22 -18 -42
-38 -22 -22 -36 -35 -43 -38 -5 -3 -14 -10 -20 -15 -5 -5 -15 -12 -20 -15 -31
-16 -48 -49 -36 -71 8 -16 46 -21 63 -7 5 4 13 9 18 12 5 2 13 9 18 14 5 5 14
12 19 14 7 4 22 17 44 39 20 19 37 35 41 37 26 11 40 44 29 70 -6 14 -31 22
-48 14z"/>
<path d="M339 532 c-20 -3 -45 -23 -52 -40 -2 -4 -6 -10 -9 -14 -4 -4 -8 -10
-10 -15 -6 -14 -44 -49 -62 -58 -8 -4 -17 -9 -20 -10 -3 -1 -9 -3 -13 -4 -29
-5 -67 -50 -67 -78 0 -34 33 -51 58 -29 4 3 10 8 13 10 14 8 18 12 23 20 4 7
7 9 13 11 4 1 16 6 25 11 10 4 20 8 22 8 10 0 23 11 25 21 2 12 3 13 14 20 13
9 30 27 34 36 2 4 6 10 10 15 3 4 8 11 11 15 3 7 7 10 16 15 46 25 21 75 -31
66z"/>
<path d="M517 278 c-9 -2 -16 -7 -30 -22 -10 -11 -17 -15 -39 -27 -15 -7 -30
-16 -34 -20 -5 -4 -10 -7 -16 -8 -6 -1 -12 -4 -19 -9 -5 -5 -12 -8 -17 -9 -12
-2 -32 -13 -45 -25 -6 -6 -15 -12 -19 -14 -4 -1 -10 -5 -14 -8 -4 -4 -10 -8
-15 -10 -30 -13 -42 -57 -21 -76 12 -12 36 -12 50 0 4 5 11 9 15 11 3 1 10 6
14 9 5 4 15 11 24 15 10 5 21 12 27 18 9 9 19 15 48 29 20 10 39 20 42 23 5 5
19 12 45 24 75 35 78 118 4 99z"/>
</g>
</svg>
