<?xml version="1.0" standalone="no"?>
<!DOCTYPE svg PUBLIC "-//W3C//DTD SVG 20010904//EN"
 "http://www.w3.org/TR/2001/REC-SVG-20010904/DTD/svg10.dtd">
<svg version="1.0" xmlns="http://www.w3.org/2000/svg"
 width="68.000000pt" height="100.000000pt" viewBox="0 0 68.000000 100.000000"
 preserveAspectRatio="xMidYMid meet">
<metadata>
Created by potrace 1.16, written by Peter Selinger 2001-2019
</metadata>
<g transform="translate(0.000000,100.000000) scale(0.100000,-0.100000)"
fill="#000000" stroke="none">
<path d="M228 925 c-22 -24 -62 -59 -89 -77 -26 -18 -51 -39 -53 -45 -10 -24
6 -43 35 -43 21 0 47 18 108 75 44 41 85 75 90 75 15 0 22 32 10 46 -22 27
-59 16 -101 -31z"/>
<path d="M458 866 c-54 -52 -98 -101 -98 -109 0 -21 27 -40 42 -31 7 4 57 48
111 98 72 66 97 95 95 110 -2 14 -11 22 -28 23 -19 2 -46 -18 -122 -91z"/>
<path d="M173 662 c-124 -103 -173 -182 -118 -190 30 -4 217 182 213 211 -5
37 -33 30 -95 -21z"/>
<path d="M522 608 c-27 -24 -64 -54 -82 -68 -26 -20 -31 -30 -26 -48 5 -13 15
-22 28 -22 27 0 166 109 174 137 16 56 -29 57 -94 1z"/>
<path d="M285 450 c-12 -4 -38 -29 -59 -54 -21 -26 -55 -55 -77 -66 -21 -11
-46 -32 -55 -46 -16 -24 -16 -26 0 -42 15 -16 18 -16 44 0 15 9 43 26 62 37
36 19 140 131 140 150 0 17 -33 29 -55 21z"/>
<path d="M415 220 c-16 -12 -70 -44 -120 -73 -75 -44 -91 -57 -93 -80 -6 -47
21 -42 140 29 137 82 150 92 146 118 -4 29 -37 31 -73 6z"/>
</g>
</svg>
