<?xml version="1.0" standalone="no"?>
<!DOCTYPE svg PUBLIC "-//W3C//DTD SVG 20010904//EN"
 "http://www.w3.org/TR/2001/REC-SVG-20010904/DTD/svg10.dtd">
<svg version="1.0" xmlns="http://www.w3.org/2000/svg"
 width="35.000000pt" height="100.000000pt" viewBox="0 0 35.000000 100.000000"
 preserveAspectRatio="xMidYMid meet">
<metadata>
Created by potrace 1.16, written by Peter Selinger 2001-2019
</metadata>
<g transform="translate(0.000000,100.000000) scale(0.100000,-0.100000)"
fill="#000000" stroke="none">
<path d="M54 957 c-2 -7 -3 -89 -2 -182 l3 -170 31 -3 32 -3 4 89 c2 49 2 133
0 186 l-4 96 -30 0 c-16 0 -31 -6 -34 -13z"/>
<path d="M234 956 c-4 -9 -1 -74 5 -144 10 -107 9 -142 -5 -222 -23 -140 -56
-198 -145 -257 -32 -21 -39 -32 -37 -52 2 -22 8 -26 31 -24 33 2 118 62 148
104 59 83 87 274 73 484 l-9 120 -28 3 c-18 2 -29 -2 -33 -12z"/>
</g>
</svg>
