<?xml version="1.0" standalone="no"?>
<!DOCTYPE svg PUBLIC "-//W3C//DTD SVG 20010904//EN"
 "http://www.w3.org/TR/2001/REC-SVG-20010904/DTD/svg10.dtd">
<svg version="1.0" xmlns="http://www.w3.org/2000/svg"
 width="300.000000pt" height="590.000000pt" viewBox="0 0 300.000000 590.000000"
 preserveAspectRatio="xMidYMid meet">
<metadata>
Created by potrace 1.16, written by Peter Selinger 2001-2019
</metadata>
<g transform="translate(0.000000,590.000000) scale(0.500000,-0.500000)"
fill="#000000" stroke="none">
<path d="M341 1136 c-12 -7 -20 -21 -25 -47 -5 -29 -17 -74 -22 -83 -2 -4 -4
-9 -4 -13 0 -3 -1 -8 -3 -13 -2 -4 -4 -13 -5 -20 -1 -9 -3 -14 -8 -19 -6 -7
-7 -11 -9 -36 -1 -9 -3 -22 -5 -30 -10 -31 -24 -80 -31 -105 -1 -6 -5 -15 -9
-20 -4 -7 -6 -12 -7 -25 -1 -9 -3 -18 -4 -21 -2 -3 -4 -10 -4 -15 -2 -13 -11
-41 -16 -48 -2 -3 -4 -11 -5 -19 -4 -33 -12 -55 -24 -71 -6 -9 -7 -10 -8 -35
-1 -16 -3 -30 -5 -35 -1 -4 -3 -9 -3 -11 0 -2 -3 -8 -6 -15 -4 -8 -7 -17 -9
-30 -2 -11 -4 -21 -5 -23 -1 -2 -3 -10 -5 -18 -3 -15 -10 -36 -16 -50 -2 -5
-3 -11 -3 -14 0 -4 -4 -21 -9 -39 -9 -32 -11 -40 -23 -77 -3 -10 -7 -25 -9
-33 -2 -8 -7 -26 -12 -40 -16 -52 -12 -82 13 -84 30 -3 42 2 47 21 5 20 15 57
20 74 3 9 9 32 14 50 5 18 11 39 13 46 6 22 30 106 48 172 5 16 10 35 12 42 2
7 6 22 9 32 3 10 7 24 9 31 2 7 8 26 13 44 5 18 11 37 12 42 2 6 7 24 12 41 5
17 13 45 18 62 5 17 14 47 19 66 6 19 13 46 17 59 4 13 9 30 11 37 5 18 15 54
21 73 3 9 9 30 14 48 5 18 13 43 17 57 4 14 10 33 13 43 8 25 5 31 -14 38 -6
2 -12 5 -13 6 -8 9 -19 11 -31 5z"/>
<path d="M327 524 c-31 -15 -41 -33 -29 -49 7 -10 42 -80 45 -91 1 -5 5 -14 9
-19 3 -5 9 -16 13 -25 4 -9 9 -21 11 -25 13 -23 20 -38 20 -41 0 -2 3 -8 8
-14 4 -7 10 -18 13 -25 3 -8 15 -31 25 -52 11 -21 23 -47 28 -57 36 -80 40
-85 65 -71 15 8 17 12 17 40 0 36 1 32 -60 156 -31 63 -64 129 -73 148 -9 19
-27 55 -39 80 -27 56 -29 58 -53 45z"/>
</g>
</svg>
