<?xml version="1.0" standalone="no"?>
<!DOCTYPE svg PUBLIC "-//W3C//DTD SVG 20010904//EN"
 "http://www.w3.org/TR/2001/REC-SVG-20010904/DTD/svg10.dtd">
<svg version="1.0" xmlns="http://www.w3.org/2000/svg"
 width="76.000000pt" height="148.000000pt" viewBox="0 0 76.000000 148.000000"
 preserveAspectRatio="xMidYMid meet">
<metadata>
Created by potrace 1.16, written by Peter Selinger 2001-2019
</metadata>
<g transform="translate(0.000000,148.000000) scale(0.100000,-0.100000)"
fill="#000000" stroke="none">
<path d="M412 1398 c-6 -13 -14 -39 -17 -58 -4 -19 -19 -78 -35 -130 -15 -52
-38 -133 -51 -180 -12 -47 -25 -89 -29 -95 -4 -5 -12 -37 -19 -70 -7 -33 -17
-64 -21 -70 -4 -5 -10 -27 -13 -49 -3 -21 -13 -46 -21 -55 -7 -9 -16 -36 -19
-61 -5 -41 -40 -170 -112 -414 -32 -107 -31 -159 3 -164 31 -5 49 12 57 51 4
18 24 93 46 167 22 74 44 151 49 170 34 121 229 794 254 875 21 68 20 78 -11
93 -38 17 -48 15 -61 -10z"/>
<path d="M393 643 c-13 -8 -23 -20 -23 -25 0 -23 272 -558 283 -558 7 0 22 6
32 14 16 11 17 19 9 54 -14 65 -247 531 -264 531 -8 0 -25 -7 -37 -16z"/>
</g>
</svg>
