<?xml version="1.0" standalone="no"?>
<!DOCTYPE svg PUBLIC "-//W3C//DTD SVG 20010904//EN"
 "http://www.w3.org/TR/2001/REC-SVG-20010904/DTD/svg10.dtd">
<svg version="1.0" xmlns="http://www.w3.org/2000/svg"
 width="51.000000pt" height="100.000000pt" viewBox="0 0 51.000000 100.000000"
 preserveAspectRatio="xMidYMid meet">
<metadata>
Created by potrace 1.16, written by Peter Selinger 2001-2019
</metadata>
<g transform="translate(0.000000,100.000000) scale(0.100000,-0.100000)"
fill="#000000" stroke="none">
<path d="M276 952 c-3 -5 -9 -26 -14 -48 -18 -74 -73 -269 -107 -379 -61 -197
-126 -445 -123 -468 3 -23 25 -32 44 -19 14 10 267 899 259 912 -7 12 -52 14
-59 2z"/>
<path d="M262 438 c-7 -7 -12 -17 -12 -22 0 -6 39 -93 88 -193 73 -154 90
-183 107 -181 42 6 30 52 -59 233 -48 99 -91 175 -98 175 -8 0 -19 -5 -26 -12z"/>
</g>
</svg>
