<?xml version="1.0" standalone="no"?>
<!DOCTYPE svg PUBLIC "-//W3C//DTD SVG 20010904//EN"
 "http://www.w3.org/TR/2001/REC-SVG-20010904/DTD/svg10.dtd">
<svg version="1.0" xmlns="http://www.w3.org/2000/svg"
 width="300.000000pt" height="590.000000pt" viewBox="0 0 300.000000 590.000000"
 preserveAspectRatio="xMidYMid meet">
<metadata>
Created by potrace 1.16, written by Peter Selinger 2001-2019
</metadata>
<g transform="translate(0.000000,590.000000) scale(0.500000,-0.500000)"
fill="#000000" stroke="none">
<path d="M230 1134 c-5 -4 -13 -8 -18 -9 -22 -8 -22 -8 0 -81 14 -46 29 -98
49 -167 3 -9 8 -29 13 -44 11 -37 24 -85 26 -92 1 -5 11 -38 32 -111 5 -15 10
-32 11 -38 2 -6 6 -21 10 -33 4 -12 8 -27 10 -33 1 -6 7 -26 13 -45 5 -19 12
-43 15 -54 3 -11 7 -26 9 -33 2 -7 8 -28 13 -46 5 -18 11 -41 14 -50 3 -9 6
-22 8 -29 2 -7 5 -20 8 -29 7 -25 17 -60 29 -103 27 -98 22 -90 56 -90 35 0
42 24 23 82 -4 13 -9 31 -11 40 -2 9 -7 25 -10 36 -14 44 -16 51 -23 76 -4 14
-8 31 -9 38 -1 7 -3 15 -4 17 -4 7 -12 34 -15 48 -2 7 -4 16 -5 19 -1 3 -3 14
-5 24 -2 11 -5 23 -9 30 -10 20 -14 38 -14 58 0 22 -2 30 -11 41 -9 11 -16 32
-20 60 -2 12 -4 22 -7 26 -4 6 -13 35 -15 48 -1 5 -2 11 -4 14 -1 3 -3 12 -4
21 -1 13 -3 18 -8 27 -4 7 -9 21 -14 37 -4 14 -12 43 -18 64 -8 29 -11 43 -13
59 -1 19 -2 21 -8 28 -5 6 -7 11 -8 21 -1 6 -3 15 -5 19 -2 5 -3 10 -3 13 0 4
-2 9 -4 13 -4 8 -13 38 -15 51 -1 4 -3 14 -5 21 -2 7 -4 17 -5 22 -4 30 -30
48 -49 34z"/>
<path d="M244 529 c-2 -1 -58 -113 -58 -116 0 0 -31 -63 -68 -138 -74 -148
-72 -145 -72 -179 0 -29 2 -33 18 -42 23 -11 33 -2 58 60 3 6 15 31 27 56 13
25 26 53 31 62 4 10 10 22 14 26 3 5 7 13 8 17 3 9 11 26 16 33 2 3 8 15 13
26 5 12 12 26 15 31 3 5 8 14 9 19 3 11 37 79 46 91 6 9 7 20 1 26 -16 19 -45
33 -58 28z"/>
</g>
</svg>
