<?xml version="1.0" standalone="no"?>
<!DOCTYPE svg PUBLIC "-//W3C//DTD SVG 20010904//EN"
 "http://www.w3.org/TR/2001/REC-SVG-20010904/DTD/svg10.dtd">
<svg version="1.0" xmlns="http://www.w3.org/2000/svg"
 width="51.000000pt" height="100.000000pt" viewBox="0 0 51.000000 100.000000"
 preserveAspectRatio="xMidYMid meet">
<metadata>
Created by potrace 1.16, written by Peter Selinger 2001-2019
</metadata>
<g transform="translate(0.000000,100.000000) scale(0.100000,-0.100000)"
fill="#000000" stroke="none">
<path d="M168 948 c-3 -7 17 -87 43 -178 26 -91 83 -291 126 -444 82 -289 95
-319 129 -284 15 15 13 30 -36 205 -29 103 -65 229 -81 279 -26 83 -97 341
-113 407 -5 22 -12 27 -35 27 -16 0 -31 -6 -33 -12z"/>
<path d="M135 313 c-104 -211 -121 -273 -74 -273 14 0 37 39 95 158 110 228
107 218 88 236 -8 9 -21 16 -28 16 -7 0 -43 -62 -81 -137z"/>
</g>
</svg>
