<?xml version="1.0" standalone="no"?>
<!DOCTYPE svg PUBLIC "-//W3C//DTD SVG 20010904//EN"
 "http://www.w3.org/TR/2001/REC-SVG-20010904/DTD/svg10.dtd">
<svg version="1.0" xmlns="http://www.w3.org/2000/svg"
 width="76.000000pt" height="148.000000pt" viewBox="0 0 76.000000 148.000000"
 preserveAspectRatio="xMidYMid meet">
<metadata>
Created by potrace 1.16, written by Peter Selinger 2001-2019
</metadata>
<g transform="translate(0.000000,148.000000) scale(0.100000,-0.100000)"
fill="#000000" stroke="none">
<path d="M376 1408 c-6 -17 -141 -524 -165 -618 -11 -41 -51 -191 -90 -334
-56 -203 -71 -273 -71 -327 0 -70 7 -84 39 -74 14 4 24 27 39 88 33 133 111
438 117 458 9 27 30 23 44 -7 23 -51 363 -544 375 -544 43 0 48 70 9 126 -108
155 -293 439 -299 457 -3 12 -24 44 -46 70 l-40 48 37 132 c33 117 46 164 85
307 5 19 19 67 30 106 11 39 20 83 20 98 0 24 -3 26 -40 26 -24 0 -42 -5 -44
-12z"/>
</g>
</svg>
