<?xml version="1.0" standalone="no"?>
<!DOCTYPE svg PUBLIC "-//W3C//DTD SVG 20010904//EN"
 "http://www.w3.org/TR/2001/REC-SVG-20010904/DTD/svg10.dtd">
<svg version="1.0" xmlns="http://www.w3.org/2000/svg"
 width="51.000000pt" height="100.000000pt" viewBox="0 0 51.000000 100.000000"
 preserveAspectRatio="xMidYMid meet">
<metadata>
Created by potrace 1.16, written by Peter Selinger 2001-2019
</metadata>
<g transform="translate(0.000000,100.000000) scale(0.100000,-0.100000)"
fill="#000000" stroke="none">
<path d="M251 948 c-10 -25 -147 -536 -193 -718 -33 -133 -34 -195 -3 -195 18
0 25 22 66 185 25 102 51 185 57 185 6 0 61 -76 122 -170 120 -183 142 -211
159 -201 31 19 9 70 -99 234 -104 157 -139 211 -154 239 -5 9 46 208 103 402
8 24 7 38 0 48 -18 20 -48 15 -58 -9z"/>
</g>
</svg>
