<?xml version="1.0" standalone="no"?>
<!DOCTYPE svg PUBLIC "-//W3C//DTD SVG 20010904//EN"
 "http://www.w3.org/TR/2001/REC-SVG-20010904/DTD/svg10.dtd">
<svg version="1.0" xmlns="http://www.w3.org/2000/svg"
 width="304.000000pt" height="590.000000pt" viewBox="0 0 304.000000 590.000000"
 preserveAspectRatio="xMidYMid meet">
<metadata>
Created by potrace 1.16, written by Peter Selinger 2001-2019
</metadata>
<g transform="translate(0.000000,590.000000) scale(0.500000,-0.500000)"
fill="#000000" stroke="none">
<path d="M307 1135 c-5 -3 -7 -9 -13 -34 -17 -67 -26 -102 -32 -117 -3 -10 -6
-21 -7 -27 0 -5 -3 -15 -5 -23 -3 -12 -6 -21 -16 -60 -2 -8 -6 -21 -8 -28 -2
-7 -6 -22 -9 -34 -3 -12 -7 -27 -9 -34 -2 -7 -5 -20 -8 -28 -2 -8 -5 -22 -8
-31 -2 -9 -12 -45 -21 -81 -9 -36 -20 -74 -23 -85 -3 -11 -7 -26 -9 -33 -5
-21 -14 -55 -33 -123 -6 -22 -13 -49 -27 -99 -3 -10 -6 -23 -8 -29 -1 -5 -7
-25 -12 -44 -5 -19 -12 -42 -14 -51 -11 -40 -9 -121 3 -126 37 -13 41 -6 70
114 7 27 12 47 17 62 2 5 4 16 6 24 1 9 3 17 5 19 1 2 2 8 3 13 1 5 3 14 5 20
5 15 14 49 18 68 1 5 4 14 5 19 2 6 4 15 6 22 6 27 20 76 22 81 7 10 7 10 78
-96 31 -46 78 -115 105 -155 27 -40 66 -97 87 -128 45 -67 53 -73 76 -63 10 5
13 63 5 79 -4 6 -52 76 -64 93 -4 5 -11 16 -16 24 -10 16 -31 48 -58 87 -9 14
-19 28 -21 31 -3 4 -8 12 -12 17 -4 6 -10 14 -12 18 -3 4 -13 19 -22 32 -9 13
-20 30 -25 39 -5 8 -11 19 -14 23 -4 4 -6 10 -6 12 0 9 -5 20 -12 28 -5 5 -11
13 -15 19 -11 17 -18 27 -30 41 -8 10 -11 15 -10 18 2 10 6 25 8 33 2 5 5 14
6 20 1 6 5 17 7 24 4 12 8 27 17 61 2 7 5 18 7 25 2 7 7 27 12 44 4 17 10 37
12 45 2 8 6 19 7 26 1 6 4 15 6 19 2 5 3 10 3 12 0 3 9 32 13 44 2 4 3 10 4
14 1 4 3 13 5 20 34 117 36 125 23 137 -9 9 -52 11 -62 2z"/>
</g>
</svg>
