<?xml version="1.0" standalone="no"?>
<!DOCTYPE svg PUBLIC "-//W3C//DTD SVG 20010904//EN"
 "http://www.w3.org/TR/2001/REC-SVG-20010904/DTD/svg10.dtd">
<svg version="1.0" xmlns="http://www.w3.org/2000/svg"
 width="340.000000pt" height="590.000000pt" viewBox="0 0 340.000000 590.000000"
 preserveAspectRatio="xMidYMid meet">
<metadata>
Created by potrace 1.16, written by Peter Selinger 2001-2019
</metadata>
<g transform="translate(0.000000,590.000000) scale(0.500000,-0.500000)"
fill="#000000" stroke="none">
<path d="M53 1150 c-9 -5 -30 -23 -32 -28 -4 -8 0 -16 22 -45 4 -6 7 -11 7
-12 0 -1 3 -6 8 -13 4 -6 10 -15 13 -19 3 -4 12 -18 20 -30 17 -26 23 -35 35
-53 5 -7 12 -18 15 -22 3 -5 10 -15 14 -22 5 -7 25 -39 46 -70 21 -31 42 -64
47 -72 11 -17 19 -29 31 -46 4 -6 13 -18 18 -27 l10 -16 0 -44 c0 -38 -3 -311
-4 -352 -6 -261 -6 -259 39 -259 47 0 45 -4 43 79 0 32 -2 111 -2 175 -1 64
-2 129 -2 143 0 14 -1 78 -1 142 l-1 116 10 16 c5 9 13 20 16 24 3 4 9 12 12
17 3 5 9 14 12 18 3 5 17 26 31 47 13 21 27 42 30 46 3 4 12 17 19 29 15 24
34 53 43 66 7 10 9 14 33 50 9 14 20 30 24 36 5 6 9 12 10 15 1 2 4 8 8 12 45
65 46 67 21 87 -20 17 -26 18 -39 6 -12 -12 -125 -176 -216 -314 -56 -84 -41
-88 -119 29 -55 82 -142 210 -178 261 -21 30 -31 36 -43 30z"/>
</g>
</svg>
