<?xml version="1.0" standalone="no"?>
<!DOCTYPE svg PUBLIC "-//W3C//DTD SVG 20010904//EN"
 "http://www.w3.org/TR/2001/REC-SVG-20010904/DTD/svg10.dtd">
<svg version="1.0" xmlns="http://www.w3.org/2000/svg"
 width="58.000000pt" height="100.000000pt" viewBox="0 0 58.000000 100.000000"
 preserveAspectRatio="xMidYMid meet">
<metadata>
Created by potrace 1.16, written by Peter Selinger 2001-2019
</metadata>
<g transform="translate(0.000000,100.000000) scale(0.100000,-0.100000)"
fill="#000000" stroke="none">
<path d="M24 955 c-7 -17 -15 -3 124 -214 l115 -173 -4 -272 -4 -271 31 -3 31
-3 6 102 c4 57 4 179 0 273 l-6 171 122 184 c67 101 121 191 119 200 -2 9 -13
17 -24 19 -18 3 -41 -25 -129 -157 -59 -89 -111 -161 -115 -161 -5 0 -56 72
-114 160 -79 120 -111 160 -126 160 -11 0 -23 -7 -26 -15z"/>
</g>
</svg>
