<?xml version="1.0" standalone="no"?>
<!DOCTYPE svg PUBLIC "-//W3C//DTD SVG 20010904//EN"
 "http://www.w3.org/TR/2001/REC-SVG-20010904/DTD/svg10.dtd">
<svg version="1.0" xmlns="http://www.w3.org/2000/svg"
 width="50.000000pt" height="148.000000pt" viewBox="0 0 50.000000 148.000000"
 preserveAspectRatio="xMidYMid meet">
<metadata>
Created by potrace 1.16, written by Peter Selinger 2001-2019
</metadata>
<g transform="translate(0.000000,148.000000) scale(0.100000,-0.100000)"
fill="#000000" stroke="none">
<path d="M55 1426 c-14 -10 -16 -81 -15 -668 0 -406 4 -667 10 -683 9 -23 15
-26 47 -23 l38 3 -1 50 c-7 456 -6 569 6 573 7 3 15 0 19 -5 3 -4 49 -44 101
-88 52 -44 104 -88 115 -98 11 -10 29 -16 40 -15 17 3 20 12 23 59 l3 55 -53
37 c-29 20 -72 54 -95 74 -24 21 -70 58 -103 81 l-60 44 0 297 0 297 -30 11
c-21 8 -33 8 -45 -1z"/>
</g>
</svg>
