<?xml version="1.0" standalone="no"?>
<!DOCTYPE svg PUBLIC "-//W3C//DTD SVG 20010904//EN"
 "http://www.w3.org/TR/2001/REC-SVG-20010904/DTD/svg10.dtd">
<svg version="1.0" xmlns="http://www.w3.org/2000/svg"
 width="34.000000pt" height="100.000000pt" viewBox="0 0 34.000000 100.000000"
 preserveAspectRatio="xMidYMid meet">
<metadata>
Created by potrace 1.16, written by Peter Selinger 2001-2019
</metadata>
<g transform="translate(0.000000,100.000000) scale(0.100000,-0.100000)"
fill="#000000" stroke="none">
<path d="M32 503 l3 -468 28 -3 c17 -2 27 2 28 10 1 7 0 104 -1 216 -1 111 2
202 7 202 4 0 43 -32 86 -70 91 -82 117 -89 117 -32 0 37 -4 42 -102 118
l-103 80 -5 204 -5 205 -28 3 -27 3 2 -468z"/>
</g>
</svg>
