<?xml version="1.0" standalone="no"?>
<!DOCTYPE svg PUBLIC "-//W3C//DTD SVG 20010904//EN"
 "http://www.w3.org/TR/2001/REC-SVG-20010904/DTD/svg10.dtd">
<svg version="1.0" xmlns="http://www.w3.org/2000/svg"
 width="94.000000pt" height="148.000000pt" viewBox="0 0 94.000000 148.000000"
 preserveAspectRatio="xMidYMid meet">
<metadata>
Created by potrace 1.16, written by Peter Selinger 2001-2019
</metadata>
<g transform="translate(0.000000,148.000000) scale(0.100000,-0.100000)"
fill="#000000" stroke="none">
<path d="M513 1393 c-16 -43 -179 -470 -245 -643 -33 -85 -73 -189 -88 -230
-15 -41 -53 -141 -84 -222 -46 -120 -57 -156 -54 -195 3 -47 4 -48 39 -51 41
-3 52 7 66 63 6 22 25 78 43 125 17 47 38 105 47 130 9 25 22 52 29 61 8 8 14
26 14 40 0 13 9 38 20 54 11 17 20 40 20 51 0 12 9 33 20 47 11 14 20 37 20
52 0 14 5 36 11 47 10 19 48 118 91 238 11 30 24 64 29 75 5 11 18 48 28 82
25 78 40 108 51 97 5 -5 32 -61 60 -124 28 -63 63 -140 77 -170 37 -77 60
-130 73 -167 7 -17 20 -39 31 -49 16 -14 23 -15 49 -4 50 21 43 65 -45 246
-41 85 -75 157 -75 160 0 4 -101 220 -133 284 -9 18 -22 26 -48 28 -32 3 -37
0 -46 -25z"/>
</g>
</svg>
