<?xml version="1.0" standalone="no"?>
<!DOCTYPE svg PUBLIC "-//W3C//DTD SVG 20010904//EN"
 "http://www.w3.org/TR/2001/REC-SVG-20010904/DTD/svg10.dtd">
<svg version="1.0" xmlns="http://www.w3.org/2000/svg"
 width="64.000000pt" height="100.000000pt" viewBox="0 0 64.000000 100.000000"
 preserveAspectRatio="xMidYMid meet">
<metadata>
Created by potrace 1.16, written by Peter Selinger 2001-2019
</metadata>
<g transform="translate(0.000000,100.000000) scale(0.100000,-0.100000)"
fill="#000000" stroke="none">
<path d="M345 928 c-7 -18 -36 -91 -64 -163 -28 -71 -92 -236 -142 -365 -123
-316 -132 -349 -93 -364 27 -10 51 12 62 57 6 24 32 95 58 158 25 63 61 155
79 204 18 50 54 149 79 220 26 72 51 134 55 138 12 12 22 -6 91 -168 35 -82
68 -156 73 -163 6 -7 22 -12 36 -10 49 6 40 43 -65 260 -53 112 -101 209 -107
216 -18 23 -47 13 -62 -20z"/>
</g>
</svg>
