<?xml version="1.0" standalone="no"?>
<!DOCTYPE svg PUBLIC "-//W3C//DTD SVG 20010904//EN"
 "http://www.w3.org/TR/2001/REC-SVG-20010904/DTD/svg10.dtd">
<svg version="1.0" xmlns="http://www.w3.org/2000/svg"
 width="374.000000pt" height="590.000000pt" viewBox="0 0 374.000000 590.000000"
 preserveAspectRatio="xMidYMid meet">
<metadata>
Created by potrace 1.16, written by Peter Selinger 2001-2019
</metadata>
<g transform="translate(0.000000,590.000000) scale(0.500000,-0.500000)"
fill="#000000" stroke="none">
<path d="M422 1134 c-6 -3 -20 -30 -22 -42 -3 -12 -9 -30 -18 -54 -4 -8 -7
-18 -8 -21 -2 -7 -12 -33 -14 -36 -1 -1 -5 -13 -10 -27 -5 -14 -10 -29 -13
-33 -2 -4 -5 -13 -7 -19 -6 -17 -21 -57 -36 -93 -6 -14 -10 -24 -22 -58 -6
-16 -11 -28 -21 -46 -1 -3 -5 -14 -8 -24 -2 -10 -9 -29 -14 -42 -5 -13 -14
-35 -18 -48 -12 -32 -22 -58 -27 -68 -2 -4 -5 -13 -7 -20 -2 -6 -7 -20 -12
-30 -5 -10 -9 -22 -10 -25 -1 -4 -3 -11 -5 -15 -3 -4 -6 -14 -9 -23 -6 -21
-13 -38 -23 -58 -4 -10 -8 -20 -8 -22 0 -3 -2 -10 -5 -17 -3 -7 -9 -22 -13
-34 -12 -33 -17 -44 -25 -64 -3 -10 -9 -25 -12 -33 -3 -8 -9 -22 -13 -30 -10
-22 -12 -91 -2 -102 18 -21 70 -6 75 23 1 4 3 11 5 15 3 3 5 13 6 21 1 8 4 19
8 26 3 7 8 20 11 30 3 10 8 25 12 33 4 8 8 21 10 28 2 7 8 22 13 34 9 20 13
31 19 50 5 17 11 29 19 35 7 7 7 7 8 25 1 17 2 19 14 44 17 34 19 41 21 54 1
13 9 28 17 34 7 5 9 12 11 33 1 19 3 27 21 64 3 7 7 17 9 24 2 7 5 14 6 17 2
2 4 9 5 15 1 7 5 17 8 24 4 7 8 18 11 26 3 7 7 16 9 19 5 7 12 26 14 40 1 6 4
13 6 17 2 3 6 12 7 20 2 8 7 23 12 34 5 11 9 24 11 28 1 4 4 16 8 25 3 9 7 20
8 24 1 4 5 14 9 23 4 9 8 19 9 23 8 21 23 3 46 -57 4 -11 11 -24 14 -28 3 -5
8 -14 10 -19 2 -6 10 -25 18 -42 9 -17 16 -34 17 -38 2 -8 7 -19 15 -32 7 -11
20 -43 20 -49 0 -5 1 -7 15 -28 6 -9 10 -20 13 -29 17 -64 44 -93 72 -78 33
17 31 13 30 50 0 29 0 30 -18 67 -4 9 -10 22 -13 28 -3 7 -8 17 -12 22 -5 9
-27 56 -27 60 0 1 -10 22 -23 47 -12 25 -24 49 -25 54 -1 5 -6 16 -11 24 -10
17 -25 50 -25 54 0 4 -30 64 -35 71 -5 6 -15 30 -23 53 -14 39 -25 48 -57 48
-10 0 -19 -1 -21 -2z"/>
</g>
</svg>
