<?xml version="1.0" standalone="no"?>
<!DOCTYPE svg PUBLIC "-//W3C//DTD SVG 20010904//EN"
 "http://www.w3.org/TR/2001/REC-SVG-20010904/DTD/svg10.dtd">
<svg version="1.0" xmlns="http://www.w3.org/2000/svg"
 width="47.000000pt" height="100.000000pt" viewBox="0 0 47.000000 100.000000"
 preserveAspectRatio="xMidYMid meet">
<metadata>
Created by potrace 1.16, written by Peter Selinger 2001-2019
</metadata>
<g transform="translate(0.000000,100.000000) scale(0.100000,-0.100000)"
fill="#000000" stroke="none">
<path d="M274 703 c-49 -54 -122 -130 -161 -169 -40 -40 -73 -79 -73 -87 0
-17 35 -50 49 -46 23 9 321 330 321 347 0 17 -28 52 -42 52 -3 0 -45 -44 -94
-97z"/>
<path d="M400 440 c0 -87 4 -140 10 -140 6 0 10 53 10 140 0 87 -4 140 -10
140 -6 0 -10 -53 -10 -140z"/>
<path d="M218 443 c-18 -5 -25 -76 -30 -298 l-3 -110 33 -3 c20 -2 34 2 37 10
2 7 9 98 14 202 12 213 11 216 -51 199z"/>
</g>
</svg>
