<?xml version="1.0" standalone="no"?>
<!DOCTYPE svg PUBLIC "-//W3C//DTD SVG 20010904//EN"
 "http://www.w3.org/TR/2001/REC-SVG-20010904/DTD/svg10.dtd">
<svg version="1.0" xmlns="http://www.w3.org/2000/svg"
 width="278.000000pt" height="590.000000pt" viewBox="0 0 278.000000 590.000000"
 preserveAspectRatio="xMidYMid meet">
<metadata>
Created by potrace 1.16, written by Peter Selinger 2001-2019
</metadata>
<g transform="translate(0.000000,590.000000) scale(0.500000,-0.500000)"
fill="#000000" stroke="none">
<path d="M432 941 c-9 -3 -16 -10 -54 -53 -24 -26 -53 -58 -66 -71 -13 -13
-42 -43 -63 -67 -22 -24 -43 -45 -47 -48 -4 -3 -11 -11 -16 -17 -17 -23 -66
-73 -78 -80 -9 -5 -13 -9 -22 -22 -5 -9 -14 -20 -18 -25 -26 -26 -26 -32 -6
-53 7 -8 15 -17 18 -22 15 -24 43 -10 84 43 20 25 144 156 161 168 7 6 15 14
18 19 5 9 58 66 115 123 41 42 43 48 22 71 -6 6 -14 15 -17 20 -7 10 -22 17
-31 14z"/>
<path d="M245 521 c-4 -3 -7 -16 -7 -40 0 -14 -1 -21 -6 -36 -7 -19 -7 -19 -3
-31 5 -16 2 -122 -4 -144 -3 -11 -3 -14 -1 -25 2 -10 2 -18 0 -43 -2 -17 -3
-40 -3 -50 0 -10 -1 -38 -2 -61 -2 -55 -3 -53 46 -52 13 1 26 1 29 1 14 0 17
11 19 62 0 14 2 58 3 99 1 41 3 88 4 104 1 17 3 48 4 70 1 32 3 42 6 52 4 11
4 12 1 24 -3 9 -3 17 -2 34 2 37 0 39 -50 39 -22 0 -31 -1 -34 -3z"/>
</g>
</svg>
