<?xml version="1.0" standalone="no"?>
<!DOCTYPE svg PUBLIC "-//W3C//DTD SVG 20010904//EN"
 "http://www.w3.org/TR/2001/REC-SVG-20010904/DTD/svg10.dtd">
<svg version="1.0" xmlns="http://www.w3.org/2000/svg"
 width="70.000000pt" height="148.000000pt" viewBox="0 0 70.000000 148.000000"
 preserveAspectRatio="xMidYMid meet">
<metadata>
Created by potrace 1.16, written by Peter Selinger 2001-2019
</metadata>
<g transform="translate(0.000000,148.000000) scale(0.100000,-0.100000)"
fill="#000000" stroke="none">
<path d="M498 1133 c-101 -109 -240 -255 -335 -353 -57 -57 -103 -111 -103
-120 1 -21 46 -70 64 -70 9 0 35 21 58 47 24 26 132 141 242 255 178 186 197
210 185 225 -36 45 -53 63 -60 63 -4 0 -27 -21 -51 -47z"/>
<path d="M297 598 c-3 -29 -8 -129 -11 -223 -3 -93 -8 -205 -12 -248 l-7 -78
59 3 59 3 7 225 c4 124 11 234 15 245 5 11 6 43 3 70 l-5 50 -51 3 -51 3 -6
-53z"/>
</g>
</svg>
