<?xml version="1.0" standalone="no"?>
<!DOCTYPE svg PUBLIC "-//W3C//DTD SVG 20010904//EN"
 "http://www.w3.org/TR/2001/REC-SVG-20010904/DTD/svg10.dtd">
<svg version="1.0" xmlns="http://www.w3.org/2000/svg"
 width="64.000000pt" height="148.000000pt" viewBox="0 0 64.000000 148.000000"
 preserveAspectRatio="xMidYMid meet">
<metadata>
Created by potrace 1.16, written by Peter Selinger 2001-2019
</metadata>
<g transform="translate(0.000000,148.000000) scale(0.100000,-0.100000)"
fill="#000000" stroke="none">
<path d="M87 1404 c-4 -4 -7 -110 -7 -235 l0 -227 52 -4 c28 -1 56 2 62 8 7 7
11 88 11 235 l0 224 -55 3 c-31 2 -59 0 -63 -4z"/>
<path d="M272 842 c-122 -119 -222 -222 -222 -227 0 -6 18 -29 40 -50 l40 -39
153 151 c83 83 185 181 225 218 39 38 72 73 72 79 -1 14 -65 86 -77 86 -4 -1
-108 -98 -231 -218z"/>
<path d="M356 521 c-8 -12 -9 -449 -1 -461 8 -13 102 -13 110 -1 8 14 9 446 1
459 -8 14 -102 16 -110 3z"/>
</g>
</svg>
