<?xml version="1.0" standalone="no"?>
<!DOCTYPE svg PUBLIC "-//W3C//DTD SVG 20010904//EN"
 "http://www.w3.org/TR/2001/REC-SVG-20010904/DTD/svg10.dtd">
<svg version="1.0" xmlns="http://www.w3.org/2000/svg"
 width="43.000000pt" height="100.000000pt" viewBox="0 0 43.000000 100.000000"
 preserveAspectRatio="xMidYMid meet">
<metadata>
Created by potrace 1.16, written by Peter Selinger 2001-2019
</metadata>
<g transform="translate(0.000000,100.000000) scale(0.100000,-0.100000)"
fill="#000000" stroke="none">
<path d="M70 950 c-12 -7 -16 -37 -19 -140 -4 -171 -1 -182 47 -178 l37 3 3
154 c3 159 0 171 -38 171 -8 0 -22 -5 -30 -10z"/>
<path d="M188 575 c-90 -87 -148 -151 -148 -163 0 -21 33 -56 48 -51 22 9 302
287 302 300 0 14 -40 60 -51 59 -2 -1 -70 -66 -151 -145z"/>
<path d="M236 345 c-8 -21 -8 -268 0 -289 4 -11 19 -16 45 -16 l40 0 -3 158
-3 157 -36 3 c-26 2 -38 -1 -43 -13z"/>
</g>
</svg>
