<?xml version="1.0" standalone="no"?>
<!DOCTYPE svg PUBLIC "-//W3C//DTD SVG 20010904//EN"
 "http://www.w3.org/TR/2001/REC-SVG-20010904/DTD/svg10.dtd">
<svg version="1.0" xmlns="http://www.w3.org/2000/svg"
 width="170.000000pt" height="148.000000pt" viewBox="0 0 170.000000 148.000000"
 preserveAspectRatio="xMidYMid meet">
<metadata>
Created by potrace 1.16, written by Peter Selinger 2001-2019
</metadata>
<g transform="translate(0.000000,148.000000) scale(0.100000,-0.100000)"
fill="#000000" stroke="none">
<path d="M377 1443 c-4 -3 -7 -53 -7 -109 l0 -103 -42 -30 c-24 -16 -98 -67
-166 -112 -78 -53 -125 -91 -128 -105 -6 -23 21 -74 39 -74 8 0 203 143 217
160 13 16 72 52 77 47 3 -3 6 -246 7 -539 l1 -533 36 -3 c21 -2 39 2 45 10 5
8 7 225 4 533 -3 286 -2 524 2 529 4 5 66 -31 138 -80 72 -49 137 -93 145 -99
23 -15 49 7 53 43 4 40 -23 66 -117 116 -38 19 -74 42 -81 51 -7 8 -18 15 -25
15 -6 0 -20 9 -30 20 -10 11 -24 20 -31 20 -7 0 -23 10 -34 23 -19 19 -21 32
-19 112 2 50 -1 96 -5 103 -8 13 -68 17 -79 5z"/>
<path d="M1245 1440 c-4 -6 -5 -54 -3 -106 3 -93 2 -96 -24 -117 -41 -34 -127
-95 -193 -137 -33 -21 -75 -52 -94 -67 l-34 -29 18 -37 c9 -20 21 -37 26 -37
15 0 57 29 174 122 60 49 115 88 120 88 7 0 9 -182 7 -534 l-4 -533 43 -6 c24
-3 47 -3 52 0 5 3 7 239 6 534 -1 291 0 531 3 535 3 3 69 -38 146 -90 77 -53
147 -96 155 -96 17 0 27 21 27 56 0 32 -34 63 -120 108 -38 20 -73 42 -77 49
-5 7 -30 23 -56 37 -78 41 -82 48 -82 164 l0 101 -42 3 c-22 2 -44 -2 -48 -8z"/>
</g>
</svg>
