<?xml version="1.0" standalone="no"?>
<!DOCTYPE svg PUBLIC "-//W3C//DTD SVG 20010904//EN"
 "http://www.w3.org/TR/2001/REC-SVG-20010904/DTD/svg10.dtd">
<svg version="1.0" xmlns="http://www.w3.org/2000/svg"
 width="100.000000pt" height="87.000000pt" viewBox="0 0 100.000000 87.000000"
 preserveAspectRatio="xMidYMid meet">
<metadata>
Created by potrace 1.16, written by Peter Selinger 2001-2019
</metadata>
<g transform="translate(0.000000,87.000000) scale(0.100000,-0.100000)"
fill="#000000" stroke="none">
<path d="M216 835 c-3 -9 -6 -38 -6 -65 l0 -48 -92 -64 c-95 -66 -114 -92 -83
-118 13 -10 22 -6 61 26 60 51 106 84 117 84 5 0 7 -137 5 -304 -3 -322 0
-345 40 -320 15 10 17 38 17 312 0 165 3 303 6 307 4 3 42 -19 85 -50 43 -30
82 -54 88 -52 6 2 12 15 14 28 4 31 -17 50 -111 104 l-72 40 -5 65 c-5 61 -7
65 -31 68 -17 2 -29 -3 -33 -13z"/>
<path d="M737 844 c-4 -4 -7 -31 -7 -60 0 -61 1 -59 -114 -137 -53 -36 -86
-65 -86 -75 0 -18 18 -42 31 -42 4 0 40 27 81 60 40 33 76 60 81 60 4 0 7
-139 7 -309 0 -265 2 -310 15 -315 8 -3 22 -3 30 0 13 5 15 49 15 310 0 245 3
304 13 304 7 0 42 -20 78 -45 73 -51 99 -57 99 -22 0 29 -14 42 -110 101 l-75
46 -5 63 c-4 53 -8 62 -25 65 -12 2 -24 0 -28 -4z"/>
<path d="M17 403 c-13 -20 4 -385 17 -380 6 3 9 11 6 18 -2 8 -7 95 -10 194
-3 99 -9 174 -13 168z"/>
</g>
</svg>
