<?xml version="1.0" standalone="no"?>
<!DOCTYPE svg PUBLIC "-//W3C//DTD SVG 20010904//EN"
 "http://www.w3.org/TR/2001/REC-SVG-20010904/DTD/svg10.dtd">
<svg version="1.0" xmlns="http://www.w3.org/2000/svg"
 width="680.000000pt" height="590.000000pt" viewBox="0 0 680.000000 590.000000"
 preserveAspectRatio="xMidYMid meet">
<metadata>
Created by potrace 1.16, written by Peter Selinger 2001-2019
</metadata>
<g transform="translate(0.000000,590.000000) scale(0.500000,-0.500000)"
fill="#000000" stroke="none">
<path d="M1012 1158 c-7 -1 -11 -2 -13 -5 -3 -4 -3 -3 -3 -89 0 -80 2 -76 -37
-102 -9 -6 -21 -15 -27 -20 -31 -25 -46 -36 -61 -44 -22 -12 -35 -20 -64 -41
-13 -9 -31 -22 -39 -27 -39 -27 -42 -30 -42 -52 0 -31 26 -55 47 -43 5 2 14 7
21 11 7 3 19 12 26 19 7 7 18 16 25 20 6 4 15 10 19 14 4 4 15 12 23 18 21 15
39 29 53 42 22 21 54 36 57 28 0 -1 0 -190 -1 -420 -3 -416 -3 -417 1 -423 6
-7 68 -9 75 -2 5 5 6 443 2 699 -3 175 -8 166 59 118 15 -10 31 -21 36 -25 6
-3 16 -9 22 -14 7 -5 19 -13 27 -18 8 -5 20 -13 25 -17 6 -5 17 -12 24 -16 8
-3 19 -10 25 -15 27 -20 48 -6 48 32 0 30 -9 42 -41 59 -5 3 -14 9 -20 14 -12
10 -18 14 -32 19 -16 6 -54 28 -59 34 -7 9 -10 12 -16 13 -7 2 -31 16 -40 24
-4 3 -14 10 -22 14 -10 5 -19 12 -26 19 l-11 11 2 74 c1 77 1 87 -6 90 -6 2
-45 3 -57 1z"/>
<path d="M302 1154 c-5 -4 -5 -4 -5 -82 0 -91 3 -81 -27 -102 -20 -14 -27 -20
-50 -37 -21 -17 -48 -36 -63 -44 -17 -9 -47 -29 -66 -44 -8 -6 -20 -15 -28
-19 -34 -21 -43 -41 -29 -69 14 -27 30 -34 48 -19 4 3 11 7 15 9 4 2 14 9 21
16 8 7 19 17 26 20 6 4 14 10 18 14 6 6 21 16 42 31 4 3 17 14 29 24 11 10 26
22 32 25 7 4 16 9 20 11 13 7 14 6 14 -30 -3 -441 -4 -804 -2 -810 2 -10 10
-13 43 -12 29 1 33 2 36 11 1 2 1 191 0 420 -1 229 -1 417 -1 418 3 6 29 -4
47 -17 16 -13 35 -26 46 -32 6 -4 16 -10 23 -15 23 -16 61 -42 74 -50 6 -4 18
-12 26 -17 34 -22 53 -9 51 38 -2 27 -9 36 -44 55 -5 3 -15 10 -23 16 -8 6
-17 12 -21 13 -17 6 -62 31 -66 37 -4 7 -15 15 -20 15 -4 0 -32 18 -38 25 -3
3 -6 5 -7 5 -4 0 -31 14 -31 16 0 1 -4 6 -8 10 l-9 8 1 78 c0 96 4 88 -40 88
-26 0 -30 0 -34 -4z"/>
</g>
</svg>
