<?xml version="1.0" standalone="no"?>
<!DOCTYPE svg PUBLIC "-//W3C//DTD SVG 20010904//EN"
 "http://www.w3.org/TR/2001/REC-SVG-20010904/DTD/svg10.dtd">
<svg version="1.0" xmlns="http://www.w3.org/2000/svg"
 width="352.000000pt" height="588.000000pt" viewBox="0 0 352.000000 588.000000"
 preserveAspectRatio="xMidYMid meet">
<metadata>
Created by potrace 1.16, written by Peter Selinger 2001-2019
</metadata>
<g transform="translate(0.000000,588.000000) scale(0.500000,-0.500000)"
fill="#000000" stroke="none">
<path d="M318 1150 c-5 -4 -5 -4 -5 -81 0 -92 4 -80 -43 -115 -8 -5 -22 -16
-31 -23 -20 -16 -51 -37 -66 -45 -17 -9 -38 -23 -62 -41 -12 -9 -26 -18 -30
-21 -43 -25 -50 -52 -22 -86 10 -14 24 -15 40 -4 4 3 12 7 16 10 4 2 10 6 12
8 5 6 29 25 35 28 3 1 9 6 13 10 4 4 17 13 28 21 20 14 38 28 56 45 11 10 48
32 52 31 5 -2 5 -14 3 -137 -3 -178 -3 -705 0 -710 11 -20 80 -9 80 12 1 155
-1 613 -2 701 -2 130 -2 131 8 129 7 -1 34 -15 43 -23 8 -7 34 -24 49 -33 14
-8 67 -45 74 -51 3 -3 12 -8 20 -12 7 -5 18 -11 24 -15 32 -23 54 -1 48 48 -2
20 -12 30 -47 51 -6 3 -14 9 -20 13 -5 4 -16 11 -24 14 -8 3 -21 10 -30 14 -8
5 -18 11 -22 12 -3 2 -9 7 -12 11 -4 5 -10 9 -18 13 -16 7 -30 16 -38 25 -4 4
-8 7 -10 7 -8 0 -25 11 -34 21 l-10 12 0 78 c0 73 0 79 -4 82 -5 6 -64 7 -71
1z"/>
</g>
</svg>
