<?xml version="1.0" standalone="no"?>
<!DOCTYPE svg PUBLIC "-//W3C//DTD SVG 20010904//EN"
 "http://www.w3.org/TR/2001/REC-SVG-20010904/DTD/svg10.dtd">
<svg version="1.0" xmlns="http://www.w3.org/2000/svg"
 width="59.000000pt" height="100.000000pt" viewBox="0 0 59.000000 100.000000"
 preserveAspectRatio="xMidYMid meet">
<metadata>
Created by potrace 1.16, written by Peter Selinger 2001-2019
</metadata>
<g transform="translate(0.000000,100.000000) scale(0.100000,-0.100000)"
fill="#000000" stroke="none">
<path d="M267 974 c-4 -4 -7 -38 -7 -75 l0 -69 -103 -68 c-125 -84 -134 -94
-119 -127 7 -14 17 -25 23 -25 14 0 62 36 131 97 27 24 54 43 61 43 9 0 12
-84 12 -362 l0 -363 30 0 30 0 1 357 c0 197 3 361 7 364 3 3 47 -24 98 -60 50
-37 97 -65 103 -63 16 5 20 56 5 73 -6 8 -51 37 -100 65 -48 28 -93 56 -98 63
-6 6 -11 43 -13 81 -3 67 -4 70 -28 73 -14 2 -29 0 -33 -4z"/>
</g>
</svg>
