<?xml version="1.0" standalone="no"?>
<!DOCTYPE svg PUBLIC "-//W3C//DTD SVG 20010904//EN"
 "http://www.w3.org/TR/2001/REC-SVG-20010904/DTD/svg10.dtd">
<svg version="1.0" xmlns="http://www.w3.org/2000/svg"
 width="88.000000pt" height="148.000000pt" viewBox="0 0 88.000000 148.000000"
 preserveAspectRatio="xMidYMid meet">
<metadata>
Created by potrace 1.16, written by Peter Selinger 2001-2019
</metadata>
<g transform="translate(0.000000,148.000000) scale(0.100000,-0.100000)"
fill="#000000" stroke="none">
<path d="M397 1443 c-4 -3 -7 -50 -7 -103 0 -62 -4 -101 -12 -111 -16 -18 -50
-43 -198 -144 -63 -43 -118 -83 -122 -89 -14 -20 -8 -53 12 -71 17 -16 23 -16
47 -4 29 15 121 84 207 157 27 23 54 41 59 39 6 -2 10 -226 11 -542 l1 -539
38 -1 c20 -1 42 4 48 11 8 10 10 166 8 539 -3 327 -1 525 5 525 6 0 70 -41
143 -91 147 -100 176 -108 181 -52 5 54 -8 67 -139 137 -25 13 -51 32 -58 40
-8 9 -19 16 -26 16 -6 0 -20 9 -30 20 -10 11 -24 20 -31 20 -7 0 -22 10 -33
22 -19 19 -20 30 -14 109 4 65 3 93 -7 104 -12 15 -71 21 -83 8z"/>
</g>
</svg>
