<?xml version="1.0" standalone="no"?>
<!DOCTYPE svg PUBLIC "-//W3C//DTD SVG 20010904//EN"
 "http://www.w3.org/TR/2001/REC-SVG-20010904/DTD/svg10.dtd">
<svg version="1.0" xmlns="http://www.w3.org/2000/svg"
 width="47.000000pt" height="100.000000pt" viewBox="0 0 47.000000 100.000000"
 preserveAspectRatio="xMidYMid meet">
<metadata>
Created by potrace 1.16, written by Peter Selinger 2001-2019
</metadata>
<g transform="translate(0.000000,100.000000) scale(0.100000,-0.100000)"
fill="#000000" stroke="none">
<path d="M205 958 c-2 -7 -6 -38 -7 -68 l-3 -55 -52 3 c-43 3 -54 1 -60 -13
-12 -33 10 -50 67 -50 32 0 55 -5 57 -12 2 -6 -37 -39 -86 -73 -50 -33 -91
-67 -91 -75 0 -17 27 -45 44 -45 6 0 34 23 61 50 27 28 54 49 59 47 5 -2 8
-128 7 -315 -2 -286 -1 -313 15 -319 9 -3 24 -2 33 4 14 9 16 45 16 316 0 168
3 309 8 313 4 4 32 -16 61 -45 l54 -53 21 21 c11 11 18 27 15 34 -3 8 -41 40
-84 72 -44 33 -80 62 -80 66 0 11 29 19 71 19 43 0 60 20 39 45 -8 10 -25 12
-62 8 l-49 -6 3 69 c3 69 3 69 -25 72 -16 2 -29 -2 -32 -10z"/>
</g>
</svg>
