<?xml version="1.0" standalone="no"?>
<!DOCTYPE svg PUBLIC "-//W3C//DTD SVG 20010904//EN"
 "http://www.w3.org/TR/2001/REC-SVG-20010904/DTD/svg10.dtd">
<svg version="1.0" xmlns="http://www.w3.org/2000/svg"
 width="278.000000pt" height="590.000000pt" viewBox="0 0 278.000000 590.000000"
 preserveAspectRatio="xMidYMid meet">
<metadata>
Created by potrace 1.16, written by Peter Selinger 2001-2019
</metadata>
<g transform="translate(0.000000,590.000000) scale(0.500000,-0.500000)"
fill="#000000" stroke="none">
<path d="M256 1140 c-16 -3 -16 -3 -14 -76 2 -81 3 -79 -31 -76 -15 1 -71 3
-90 2 -11 0 -13 -5 -13 -33 0 -41 -3 -39 69 -36 75 3 96 -24 40 -52 -5 -3 -14
-9 -19 -14 -5 -5 -13 -11 -18 -13 -5 -2 -13 -8 -18 -12 -5 -4 -13 -10 -17 -13
-5 -3 -18 -13 -30 -21 -11 -8 -21 -15 -22 -16 -1 -1 -7 -6 -15 -10 -42 -25
-48 -40 -24 -67 26 -30 43 -31 68 -5 10 10 46 43 84 76 42 37 41 38 38 -67 -2
-94 -5 -647 -3 -653 5 -14 70 -14 74 0 1 3 1 141 0 307 -1 166 -2 311 -2 323
1 12 1 37 1 57 0 52 21 78 33 41 1 -2 6 -7 12 -11 10 -7 44 -40 75 -71 21 -22
24 -22 48 2 29 29 28 33 -12 65 -21 16 -48 38 -62 52 -7 7 -18 16 -24 20 -6 4
-20 16 -32 27 -12 11 -25 23 -30 26 -29 22 -13 30 55 30 63 1 59 -1 61 22 4
41 5 41 -66 39 -68 -2 -80 10 -62 54 6 14 5 96 -1 100 -6 4 -40 6 -53 3z"/>
</g>
</svg>
