<?xml version="1.0" standalone="no"?>
<!DOCTYPE svg PUBLIC "-//W3C//DTD SVG 20010904//EN"
 "http://www.w3.org/TR/2001/REC-SVG-20010904/DTD/svg10.dtd">
<svg version="1.0" xmlns="http://www.w3.org/2000/svg"
 width="53.000000pt" height="100.000000pt" viewBox="0 0 53.000000 100.000000"
 preserveAspectRatio="xMidYMid meet">
<metadata>
Created by potrace 1.16, written by Peter Selinger 2001-2019
</metadata>
<g transform="translate(0.000000,100.000000) scale(0.100000,-0.100000)"
fill="#000000" stroke="none">
<path d="M233 962 c-12 -2 -40 -23 -62 -47 -39 -43 -41 -48 -41 -109 0 -63 25
-146 49 -160 23 -15 8 -41 -69 -127 -63 -70 -80 -96 -80 -119 0 -51 28 -50 72
1 22 24 51 62 66 83 54 79 56 73 49 -198 l-5 -246 25 -6 c50 -13 55 10 48 216
-3 102 -8 211 -11 243 -7 79 7 75 96 -23 80 -89 112 -101 118 -46 4 29 0 33
-138 154 -26 23 -33 34 -25 45 6 8 18 25 28 39 27 38 41 136 27 187 -20 74
-84 123 -147 113z m57 -104 c22 -36 25 -84 10 -139 -21 -74 -60 -74 -84 -1
-20 58 -20 105 -1 142 21 40 50 39 75 -2z"/>
</g>
</svg>
