<?xml version="1.0" standalone="no"?>
<!DOCTYPE svg PUBLIC "-//W3C//DTD SVG 20010904//EN"
 "http://www.w3.org/TR/2001/REC-SVG-20010904/DTD/svg10.dtd">
<svg version="1.0" xmlns="http://www.w3.org/2000/svg"
 width="78.000000pt" height="148.000000pt" viewBox="0 0 78.000000 148.000000"
 preserveAspectRatio="xMidYMid meet">
<metadata>
Created by potrace 1.16, written by Peter Selinger 2001-2019
</metadata>
<g transform="translate(0.000000,148.000000) scale(0.100000,-0.100000)"
fill="#000000" stroke="none">
<path d="M347 1420 c-44 -8 -121 -77 -143 -127 -21 -48 -18 -169 6 -237 11
-32 36 -80 56 -107 29 -40 33 -50 20 -55 -9 -3 -67 -66 -131 -139 -119 -137
-133 -166 -99 -199 8 -9 21 -16 27 -16 16 0 132 130 177 197 62 93 62 95 59
-315 l-3 -367 38 -3 c21 -2 43 1 48 6 11 11 12 659 1 725 -9 59 14 47 119 -62
52 -55 109 -111 127 -126 31 -27 32 -27 52 -9 15 14 19 27 15 53 -4 36 -29 62
-185 196 -38 33 -70 64 -70 69 -1 5 14 24 33 41 48 43 70 123 70 243 -1 87 -3
95 -31 135 -32 44 -93 92 -128 100 -11 2 -37 1 -58 -3z m49 -118 c11 -9 31
-32 44 -50 41 -61 16 -216 -44 -264 -11 -10 -24 -18 -28 -18 -13 0 -56 84 -73
143 -21 74 -13 127 27 173 34 38 44 41 74 16z"/>
</g>
</svg>
