<?xml version="1.0" standalone="no"?>
<!DOCTYPE svg PUBLIC "-//W3C//DTD SVG 20010904//EN"
 "http://www.w3.org/TR/2001/REC-SVG-20010904/DTD/svg10.dtd">
<svg version="1.0" xmlns="http://www.w3.org/2000/svg"
 width="308.000000pt" height="590.000000pt" viewBox="0 0 308.000000 590.000000"
 preserveAspectRatio="xMidYMid meet">
<metadata>
Created by potrace 1.16, written by Peter Selinger 2001-2019
</metadata>
<g transform="translate(0.000000,590.000000) scale(0.500000,-0.500000)"
fill="#000000" stroke="none">
<path d="M289 1138 c-3 -1 -10 -2 -14 -2 -43 -1 -113 -78 -119 -130 -1 -9 -3
-25 -5 -34 -10 -59 11 -140 52 -203 29 -43 27 -40 25 -45 -1 -3 -6 -8 -11 -12
-5 -3 -9 -7 -9 -8 0 -1 -8 -10 -17 -20 -9 -9 -18 -20 -19 -22 -4 -7 -49 -59
-63 -73 -7 -7 -19 -21 -28 -32 -9 -11 -22 -26 -29 -34 -16 -16 -17 -18 -16
-48 2 -53 54 -53 81 0 2 3 17 19 33 35 27 26 30 31 38 46 4 9 12 22 16 27 4 6
13 17 20 25 32 42 33 40 31 -68 -3 -160 -5 -479 -3 -484 5 -14 73 -15 77 -1 2
5 2 186 -1 414 -3 194 -3 191 7 186 3 -2 38 -36 48 -47 4 -4 11 -11 17 -15 5
-5 13 -14 17 -20 4 -6 11 -14 16 -17 4 -3 15 -14 23 -23 79 -91 114 -96 110
-14 -1 21 -1 21 -12 32 -7 5 -14 14 -18 19 -3 5 -12 14 -18 19 -7 4 -16 12
-20 17 -4 4 -11 9 -15 12 -5 2 -11 7 -14 12 -4 4 -12 12 -18 17 -7 4 -16 13
-20 18 -4 5 -12 12 -17 15 -5 3 -14 11 -19 17 -5 6 -12 12 -15 14 -15 9 -9 28
12 39 16 8 36 44 44 76 17 71 21 111 14 149 -1 9 -3 23 -4 31 -5 39 -28 73
-71 105 -35 27 -59 34 -86 27z m10 -87 c15 -6 46 -41 57 -63 7 -16 9 -81 3
-114 -10 -52 -52 -103 -71 -86 -14 11 -35 50 -45 80 -18 59 -19 83 -7 126 4
16 26 42 45 55 9 6 9 6 18 2z"/>
</g>
</svg>
