<?xml version="1.0" standalone="no"?>
<!DOCTYPE svg PUBLIC "-//W3C//DTD SVG 20010904//EN"
 "http://www.w3.org/TR/2001/REC-SVG-20010904/DTD/svg10.dtd">
<svg version="1.0" xmlns="http://www.w3.org/2000/svg"
 width="94.000000pt" height="100.000000pt" viewBox="0 0 94.000000 100.000000"
 preserveAspectRatio="xMidYMid meet">
<metadata>
Created by potrace 1.16, written by Peter Selinger 2001-2019
</metadata>
<g transform="translate(0.000000,100.000000) scale(0.100000,-0.100000)"
fill="#000000" stroke="none">
<path d="M433 963 c-10 -3 -13 -43 -13 -149 l0 -145 -45 -19 c-35 -15 -45 -24
-45 -43 0 -37 18 -48 52 -31 16 8 33 12 38 9 5 -3 7 -99 3 -239 -7 -268 -4
-289 35 -284 l27 3 0 260 c1 143 2 263 3 268 1 4 20 -2 42 -13 39 -20 39 -20
50 -1 20 38 11 52 -46 77 l-57 25 7 134 c7 127 7 134 -13 144 -11 6 -21 11
-23 10 -2 0 -9 -3 -15 -6z"/>
<path d="M47 953 c-18 -17 -2 -44 52 -92 67 -58 114 -141 131 -230 22 -116 5
-281 -36 -364 -9 -18 -50 -66 -91 -108 -80 -81 -91 -111 -42 -117 21 -2 39 12
98 74 105 110 140 204 140 374 0 204 -61 360 -172 441 -39 28 -67 36 -80 22z"/>
<path d="M763 887 c-96 -100 -129 -186 -139 -362 -5 -81 -2 -117 15 -188 27
-113 38 -132 118 -218 73 -77 94 -92 117 -83 32 12 15 47 -59 120 -84 81 -96
103 -119 216 -26 128 -20 224 25 343 18 48 37 74 97 132 79 76 88 103 34 103
-22 0 -43 -14 -89 -63z"/>
</g>
</svg>
