<?xml version="1.0" standalone="no"?>
<!DOCTYPE svg PUBLIC "-//W3C//DTD SVG 20010904//EN"
 "http://www.w3.org/TR/2001/REC-SVG-20010904/DTD/svg10.dtd">
<svg version="1.0" xmlns="http://www.w3.org/2000/svg"
 width="540.000000pt" height="574.000000pt" viewBox="0 0 540.000000 574.000000"
 preserveAspectRatio="xMidYMid meet">
<metadata>
Created by potrace 1.16, written by Peter Selinger 2001-2019
</metadata>
<g transform="translate(0.000000,574.000000) scale(0.500000,-0.500000)"
fill="#000000" stroke="none">
<path d="M502 1106 c-4 -1 -9 -4 -11 -6 -9 -8 -9 -6 -6 -131 4 -218 8 -196
-36 -214 -81 -34 -82 -35 -69 -74 14 -40 18 -43 45 -27 65 38 66 38 65 -21 -1
-26 0 -44 2 -52 2 -10 2 -23 0 -67 -3 -66 -6 -412 -3 -422 2 -9 10 -12 38 -12
41 0 38 -15 35 152 -6 404 -6 450 -4 453 5 6 10 5 64 -20 42 -18 41 -19 54 23
12 41 9 45 -47 62 -8 3 -23 9 -35 14 -12 5 -23 10 -25 11 -14 4 -13 -5 -12
165 2 153 2 153 -3 158 -7 9 -33 13 -52 8z"/>
<path d="M76 1098 c-48 -6 -32 -50 33 -94 25 -17 76 -70 84 -88 3 -6 8 -14 12
-18 6 -7 21 -33 24 -42 1 -3 4 -8 6 -12 7 -10 16 -37 20 -58 2 -9 6 -23 9 -31
3 -8 7 -20 8 -28 1 -8 3 -17 4 -20 3 -6 4 -28 8 -93 1 -21 2 -39 3 -40 1 -1 0
-12 -2 -23 -6 -36 -7 -47 -9 -75 -1 -15 -3 -31 -5 -35 -1 -4 -5 -17 -7 -27 -6
-27 -11 -43 -23 -74 -6 -15 -12 -31 -13 -35 -2 -8 -13 -26 -33 -52 -5 -8 -22
-25 -36 -38 -14 -13 -29 -29 -33 -35 -5 -7 -13 -16 -20 -20 -30 -23 -62 -59
-62 -71 0 -43 36 -55 68 -23 7 7 17 15 22 18 6 3 18 16 32 31 12 13 25 27 29
29 4 3 11 10 15 16 10 15 19 26 27 31 10 6 28 29 33 42 2 6 8 16 13 23 4 7 10
16 11 20 1 4 7 15 11 25 6 11 10 23 11 31 1 7 4 19 5 26 2 7 4 21 5 30 1 9 2
22 3 28 1 6 4 15 6 19 11 20 19 134 13 178 -1 9 -3 31 -4 50 -3 61 -8 90 -19
120 -3 8 -6 21 -8 28 -1 8 -5 19 -8 25 -3 7 -6 16 -7 21 -2 6 -4 14 -7 18 -2
4 -5 13 -7 18 -2 6 -6 14 -8 17 -2 3 -5 10 -7 15 -4 12 -17 32 -37 57 -8 11
-18 23 -22 29 -4 5 -17 18 -29 28 -12 10 -26 23 -32 28 -5 5 -13 10 -17 12 -4
2 -11 7 -16 10 -11 8 -27 11 -44 9z"/>
<path d="M942 1081 c-9 -6 -24 -17 -33 -25 -9 -8 -22 -20 -29 -25 -7 -6 -17
-16 -23 -23 -5 -7 -17 -21 -26 -31 -15 -17 -48 -74 -54 -93 -1 -3 -3 -9 -6
-15 -7 -16 -17 -47 -20 -63 -4 -19 -4 -20 -12 -36 -9 -20 -16 -68 -19 -125 -1
-19 -2 -37 -4 -41 -8 -25 3 -158 14 -177 2 -4 5 -16 8 -33 2 -14 5 -29 6 -32
1 -3 4 -15 5 -28 2 -19 4 -26 11 -40 4 -9 10 -22 12 -28 3 -6 9 -16 14 -23 6
-6 11 -16 13 -22 4 -12 17 -30 27 -36 8 -5 23 -21 31 -33 3 -4 9 -11 14 -14 4
-3 11 -10 14 -15 9 -12 34 -37 50 -50 7 -5 16 -13 20 -17 20 -24 53 -22 63 3
8 20 7 34 -3 42 -4 3 -16 15 -27 25 -10 10 -26 25 -34 33 -8 8 -19 19 -24 25
-5 6 -17 18 -28 28 -10 9 -21 20 -24 24 -3 4 -10 14 -17 22 -16 20 -23 32 -25
44 -1 6 -3 12 -4 14 -1 3 -5 13 -9 24 -4 10 -9 25 -12 33 -3 8 -7 23 -10 34
-3 11 -6 23 -7 26 -2 3 -3 17 -4 30 -1 25 -4 45 -9 79 -2 11 -3 21 -2 22 1 1
2 19 3 40 4 66 6 89 9 100 2 6 3 14 3 19 0 4 3 14 6 22 4 8 9 23 12 35 3 12 7
27 10 34 5 18 30 66 41 79 5 5 11 15 14 21 10 19 65 73 94 93 61 41 64 83 6
83 -18 0 -18 0 -35 -9z"/>
</g>
</svg>
