<?xml version="1.0" standalone="no"?>
<!DOCTYPE svg PUBLIC "-//W3C//DTD SVG 20010904//EN"
 "http://www.w3.org/TR/2001/REC-SVG-20010904/DTD/svg10.dtd">
<svg version="1.0" xmlns="http://www.w3.org/2000/svg"
 width="136.000000pt" height="144.000000pt" viewBox="0 0 136.000000 144.000000"
 preserveAspectRatio="xMidYMid meet">
<metadata>
Created by potrace 1.16, written by Peter Selinger 2001-2019
</metadata>
<g transform="translate(0.000000,144.000000) scale(0.100000,-0.100000)"
fill="#000000" stroke="none">
<path d="M64 1359 c-18 -21 -18 -21 31 -66 28 -25 67 -61 87 -80 113 -105 170
-263 170 -472 0 -145 -5 -181 -45 -301 -12 -36 -32 -81 -44 -100 -26 -40 -169
-187 -195 -201 -24 -13 -23 -52 2 -74 19 -17 21 -17 47 0 15 10 68 61 118 112
105 108 155 199 175 318 31 183 32 200 20 315 -25 252 -102 412 -253 526 -66
49 -85 53 -113 23z"/>
<path d="M610 1172 l0 -209 -70 -31 c-74 -33 -81 -43 -60 -96 12 -33 30 -33
81 -1 22 14 44 23 48 20 5 -3 7 -173 4 -379 l-5 -374 36 -4 c20 -2 41 -1 47 3
8 4 10 119 8 383 -3 301 -1 376 9 376 7 0 36 -12 64 -26 28 -14 54 -22 59 -17
5 5 12 29 15 54 l6 44 -71 23 c-39 13 -74 28 -78 35 -4 7 -8 100 -8 207 l0
195 -42 3 -43 3 0 -209z"/>
<path d="M1145 1318 c-114 -97 -169 -187 -214 -348 -37 -135 -45 -338 -17
-432 8 -29 20 -80 26 -113 6 -34 23 -81 40 -108 17 -27 30 -51 30 -53 0 -3 46
-52 103 -110 89 -92 106 -104 132 -102 25 3 31 8 33 31 3 25 -9 40 -85 112
-108 101 -134 137 -168 235 -56 161 -61 382 -11 541 41 133 100 213 230 312
51 39 47 71 -9 75 -35 3 -47 -3 -90 -40z"/>
</g>
</svg>
