<?xml version="1.0" standalone="no"?>
<!DOCTYPE svg PUBLIC "-//W3C//DTD SVG 20010904//EN"
 "http://www.w3.org/TR/2001/REC-SVG-20010904/DTD/svg10.dtd">
<svg version="1.0" xmlns="http://www.w3.org/2000/svg"
 width="278.000000pt" height="590.000000pt" viewBox="0 0 278.000000 590.000000"
 preserveAspectRatio="xMidYMid meet">
<metadata>
Created by potrace 1.16, written by Peter Selinger 2001-2019
</metadata>
<g transform="translate(0.000000,590.000000) scale(0.500000,-0.500000)"
fill="#000000" stroke="none">
<path d="M448 1126 c-8 -4 -9 -6 -11 -15 -4 -15 0 -10 -175 -184 -181 -181
-169 -169 -179 -164 -17 9 -41 8 -45 -3 -14 -36 19 -73 68 -75 57 -3 125 3
148 13 33 15 30 52 28 -320 -1 -205 -1 -322 0 -325 5 -14 55 -16 62 -2 3 4 3
387 1 577 l-2 97 20 19 c11 11 25 25 33 33 18 19 22 22 32 30 6 4 12 11 17 20
5 8 13 20 18 27 6 8 9 15 11 24 1 6 4 14 6 17 1 3 3 11 4 18 1 7 5 18 10 28
l8 16 0 77 c1 58 0 78 -2 81 -7 14 -35 20 -52 11z m-12 -117 c1 -3 1 -10 0
-14 -1 -4 -4 -17 -6 -29 -10 -51 -45 -106 -84 -134 -7 -5 -19 -15 -27 -22 -8
-7 -17 -15 -21 -17 -4 -1 -12 -6 -16 -10 -5 -4 -14 -10 -20 -12 -6 -3 -19 -9
-29 -14 -9 -5 -19 -9 -22 -9 -3 0 -8 -1 -12 -3 -27 -10 -48 -3 -33 11 3 3 61
61 130 129 144 143 137 137 140 124z"/>
</g>
</svg>
