<?xml version="1.0" standalone="no"?>
<!DOCTYPE svg PUBLIC "-//W3C//DTD SVG 20010904//EN"
 "http://www.w3.org/TR/2001/REC-SVG-20010904/DTD/svg10.dtd">
<svg version="1.0" xmlns="http://www.w3.org/2000/svg"
 width="47.000000pt" height="100.000000pt" viewBox="0 0 47.000000 100.000000"
 preserveAspectRatio="xMidYMid meet">
<metadata>
Created by potrace 1.16, written by Peter Selinger 2001-2019
</metadata>
<g transform="translate(0.000000,100.000000) scale(0.100000,-0.100000)"
fill="#000000" stroke="none">
<path d="M370 949 c0 -6 -64 -76 -142 -155 -116 -118 -147 -144 -170 -144 -23
0 -28 -4 -28 -25 0 -52 56 -65 179 -39 l34 7 -7 -249 c-7 -271 -4 -314 25
-314 10 0 21 6 25 12 5 7 8 140 9 295 l0 282 47 48 c26 26 54 64 62 83 21 52
32 176 16 195 -14 17 -50 20 -50 4z m-15 -155 c-20 -48 -65 -97 -124 -135 -44
-29 -86 -38 -79 -19 7 23 203 209 211 201 5 -5 1 -25 -8 -47z"/>
</g>
</svg>
