<?xml version="1.0" standalone="no"?>
<!DOCTYPE svg PUBLIC "-//W3C//DTD SVG 20010904//EN"
 "http://www.w3.org/TR/2001/REC-SVG-20010904/DTD/svg10.dtd">
<svg version="1.0" xmlns="http://www.w3.org/2000/svg"
 width="80.000000pt" height="148.000000pt" viewBox="0 0 80.000000 148.000000"
 preserveAspectRatio="xMidYMid meet">
<metadata>
Created by potrace 1.16, written by Peter Selinger 2001-2019
</metadata>
<g transform="translate(0.000000,148.000000) scale(0.100000,-0.100000)"
fill="#000000" stroke="none">
<path d="M354 1413 c-45 -9 -100 -84 -148 -203 -26 -63 -58 -137 -71 -165 -14
-27 -30 -72 -36 -100 -6 -27 -20 -77 -31 -110 -13 -40 -18 -81 -16 -120 3 -57
4 -60 28 -60 26 0 26 0 66 140 51 183 64 226 86 280 13 33 31 61 40 63 8 2 34
-16 57 -40 l42 -43 -2 -500 -3 -500 34 0 35 0 5 512 c5 502 5 512 26 535 12
13 24 31 28 41 14 42 31 12 91 -153 13 -36 35 -96 50 -135 15 -38 30 -86 32
-105 7 -45 19 -60 50 -60 25 0 25 1 21 73 -2 50 -10 85 -27 117 -12 24 -32 69
-43 100 -11 30 -26 69 -33 85 -7 17 -30 68 -51 115 -48 109 -120 219 -151 231
-25 9 -41 10 -79 2z m69 -91 c9 -10 19 -35 22 -57 5 -32 2 -47 -17 -74 -29
-44 -39 -46 -71 -21 -23 18 -27 29 -27 71 0 40 5 55 25 74 29 30 46 31 68 7z"/>
</g>
</svg>
