<?xml version="1.0" standalone="no"?>
<!DOCTYPE svg PUBLIC "-//W3C//DTD SVG 20010904//EN"
 "http://www.w3.org/TR/2001/REC-SVG-20010904/DTD/svg10.dtd">
<svg version="1.0" xmlns="http://www.w3.org/2000/svg"
 width="54.000000pt" height="100.000000pt" viewBox="0 0 54.000000 100.000000"
 preserveAspectRatio="xMidYMid meet">
<metadata>
Created by potrace 1.16, written by Peter Selinger 2001-2019
</metadata>
<g transform="translate(0.000000,100.000000) scale(0.100000,-0.100000)"
fill="#000000" stroke="none">
<path d="M203 933 c-60 -66 -173 -359 -173 -451 0 -64 53 -51 63 16 10 59 76
260 89 268 6 4 24 -7 41 -26 l30 -34 -6 -293 c-7 -325 -4 -383 23 -383 10 0
21 7 24 16 3 9 6 168 6 353 0 315 1 339 18 354 10 10 23 17 28 17 9 0 44 -91
90 -232 25 -78 40 -92 64 -63 17 20 7 64 -39 176 -61 149 -96 221 -130 267
-26 36 -36 42 -67 42 -25 0 -42 -7 -61 -27z m91 -64 c5 -14 6 -38 2 -53 -5
-22 -12 -27 -34 -24 -37 4 -52 46 -28 83 21 32 47 29 60 -6z"/>
</g>
</svg>
