<?xml version="1.0" standalone="no"?>
<!DOCTYPE svg PUBLIC "-//W3C//DTD SVG 20010904//EN"
 "http://www.w3.org/TR/2001/REC-SVG-20010904/DTD/svg10.dtd">
<svg version="1.0" xmlns="http://www.w3.org/2000/svg"
 width="322.000000pt" height="590.000000pt" viewBox="0 0 322.000000 590.000000"
 preserveAspectRatio="xMidYMid meet">
<metadata>
Created by potrace 1.16, written by Peter Selinger 2001-2019
</metadata>
<g transform="translate(0.000000,590.000000) scale(0.500000,-0.500000)"
fill="#000000" stroke="none">
<path d="M307 1135 c-4 -2 -14 -4 -21 -5 -21 -3 -71 -51 -84 -81 -3 -6 -6 -14
-8 -17 -1 -3 -4 -7 -6 -10 -2 -3 -5 -11 -7 -18 -2 -7 -6 -17 -9 -21 -7 -10
-17 -34 -19 -44 -1 -4 -3 -11 -5 -15 -2 -4 -5 -12 -7 -18 -2 -6 -5 -14 -8 -19
-2 -4 -5 -12 -6 -16 -1 -4 -3 -11 -5 -15 -19 -32 -35 -69 -40 -95 -1 -5 -3
-17 -6 -25 -2 -8 -5 -21 -7 -29 -2 -7 -6 -20 -10 -29 -3 -8 -7 -19 -8 -25 -1
-5 -4 -14 -7 -21 -7 -15 -9 -80 -3 -92 14 -26 51 -20 58 10 2 6 4 15 6 19 1 4
3 12 3 18 0 9 13 53 20 67 2 4 4 13 5 21 0 8 2 17 3 19 2 3 6 16 9 30 4 14 9
31 12 39 3 7 6 20 8 28 3 13 14 41 23 59 2 4 7 16 10 27 14 42 35 44 66 4 5
-7 14 -15 19 -19 16 -12 15 -3 13 -160 -1 -112 -3 -454 -3 -614 0 -42 0 -42
35 -42 25 0 32 2 32 12 1 15 -1 518 -2 634 -2 174 -4 162 22 189 9 9 19 22 23
29 12 23 22 17 28 -18 1 -4 6 -18 13 -30 16 -29 29 -64 33 -86 3 -13 9 -29 14
-38 9 -14 16 -30 19 -42 1 -5 3 -13 5 -16 2 -4 4 -12 5 -18 1 -8 4 -16 8 -22
6 -10 8 -16 13 -44 8 -41 24 -56 49 -43 16 8 21 70 8 100 -3 7 -8 19 -10 28
-3 9 -7 21 -12 27 -11 17 -18 33 -31 70 -4 10 -9 24 -12 29 -2 6 -5 15 -6 20
-2 11 -3 14 -12 26 -4 5 -7 12 -8 17 -2 11 -7 25 -17 45 -21 42 -37 80 -44
100 -2 6 -7 14 -14 22 -6 7 -21 27 -33 44 -24 37 -29 42 -45 46 -6 2 -16 5
-22 7 -12 5 -14 5 -25 1z m26 -71 c5 -3 21 -24 21 -29 0 -2 2 -8 4 -14 16 -47
-25 -108 -59 -88 -58 34 -25 158 34 131z"/>
</g>
</svg>
