<?xml version="1.0" standalone="no"?>
<!DOCTYPE svg PUBLIC "-//W3C//DTD SVG 20010904//EN"
 "http://www.w3.org/TR/2001/REC-SVG-20010904/DTD/svg10.dtd">
<svg version="1.0" xmlns="http://www.w3.org/2000/svg"
 width="66.000000pt" height="146.000000pt" viewBox="0 0 66.000000 146.000000"
 preserveAspectRatio="xMidYMid meet">
<metadata>
Created by potrace 1.16, written by Peter Selinger 2001-2019
</metadata>
<g transform="translate(0.000000,146.000000) scale(0.100000,-0.100000)"
fill="#000000" stroke="none">
<path d="M90 1375 l-24 -26 104 -104 105 -105 -113 -113 c-61 -62 -112 -119
-112 -127 1 -24 25 -50 46 -50 12 0 52 37 103 96 46 52 86 92 90 89 3 -4 6
-226 6 -493 l0 -487 43 -3 44 -3 -4 490 c-1 270 -1 491 1 491 2 0 38 -36 78
-80 77 -82 104 -96 129 -62 26 33 14 54 -92 155 l-106 102 103 97 103 98 -20
27 c-35 47 -52 40 -144 -62 -47 -52 -90 -95 -95 -95 -6 0 -50 43 -99 95 -48
52 -96 95 -105 95 -10 0 -28 -11 -41 -25z"/>
</g>
</svg>
