<?xml version="1.0" standalone="no"?>
<!DOCTYPE svg PUBLIC "-//W3C//DTD SVG 20010904//EN"
 "http://www.w3.org/TR/2001/REC-SVG-20010904/DTD/svg10.dtd">
<svg version="1.0" xmlns="http://www.w3.org/2000/svg"
 width="45.000000pt" height="100.000000pt" viewBox="0 0 45.000000 100.000000"
 preserveAspectRatio="xMidYMid meet">
<metadata>
Created by potrace 1.16, written by Peter Selinger 2001-2019
</metadata>
<g transform="translate(0.000000,100.000000) scale(0.100000,-0.100000)"
fill="#000000" stroke="none">
<path d="M62 948 c-20 -20 -15 -30 55 -100 l67 -68 -78 -79 c-63 -64 -77 -83
-71 -100 11 -36 41 -24 96 39 29 33 57 59 63 57 6 -2 9 -115 7 -323 -1 -176 2
-325 7 -332 5 -8 18 -12 28 -10 18 3 19 20 22 338 l3 335 53 -59 c43 -48 56
-57 74 -52 40 13 27 48 -43 115 -36 35 -65 68 -65 75 0 7 27 37 61 66 63 55
72 82 36 104 -16 9 -28 1 -84 -59 l-64 -70 -62 68 c-62 67 -82 78 -105 55z"/>
</g>
</svg>
