<?xml version="1.0" standalone="no"?>
<!DOCTYPE svg PUBLIC "-//W3C//DTD SVG 20010904//EN"
 "http://www.w3.org/TR/2001/REC-SVG-20010904/DTD/svg10.dtd">
<svg version="1.0" xmlns="http://www.w3.org/2000/svg"
 width="264.000000pt" height="580.000000pt" viewBox="0 0 264.000000 580.000000"
 preserveAspectRatio="xMidYMid meet">
<metadata>
Created by potrace 1.16, written by Peter Selinger 2001-2019
</metadata>
<g transform="translate(0.000000,580.000000) scale(0.500000,-0.500000)"
fill="#000000" stroke="none">
<path d="M372 1069 c-27 -28 -54 -56 -61 -64 -6 -8 -15 -16 -18 -19 -4 -3 -9
-8 -11 -10 -7 -10 -26 -11 -26 -2 0 1 -7 10 -16 19 -8 9 -18 19 -21 24 -3 4
-9 9 -13 12 -4 3 -13 12 -20 20 -6 8 -16 18 -21 23 -6 6 -18 17 -27 27 -19 19
-27 22 -44 13 -43 -22 -36 -54 20 -98 9 -8 96 -95 99 -99 3 -6 -1 -12 -18 -32
-25 -28 -66 -68 -70 -70 -2 0 -12 -10 -22 -21 -10 -11 -22 -23 -27 -27 -28
-21 -39 -49 -26 -69 20 -30 49 -25 74 14 3 5 8 10 11 12 3 1 9 8 15 16 6 7 14
16 17 19 4 3 9 10 12 14 38 58 64 58 62 1 -1 -55 -5 -714 -4 -720 3 -12 57
-18 68 -7 6 5 6 422 1 664 -3 122 -3 122 32 79 39 -49 91 -96 106 -96 46 0 51
49 10 90 -22 21 -73 70 -87 82 -14 12 -37 38 -41 45 -3 6 7 20 27 38 11 9 39
37 95 91 32 31 33 35 9 60 -28 29 -25 30 -85 -29z"/>
</g>
</svg>
