<?xml version="1.0" standalone="no"?>
<!DOCTYPE svg PUBLIC "-//W3C//DTD SVG 20010904//EN"
 "http://www.w3.org/TR/2001/REC-SVG-20010904/DTD/svg10.dtd">
<svg version="1.0" xmlns="http://www.w3.org/2000/svg"
 width="69.000000pt" height="100.000000pt" viewBox="0 0 69.000000 100.000000"
 preserveAspectRatio="xMidYMid meet">
<metadata>
Created by potrace 1.16, written by Peter Selinger 2001-2019
</metadata>
<g transform="translate(0.000000,100.000000) scale(0.100000,-0.100000)"
fill="#000000" stroke="none">
<path d="M542 935 c-22 -19 -52 -53 -67 -75 -15 -22 -34 -40 -42 -40 -8 0 -50
32 -94 71 -51 46 -84 69 -94 65 -8 -3 -27 -27 -43 -53 -15 -26 -60 -82 -100
-124 -40 -42 -72 -84 -72 -96 0 -14 15 -27 54 -46 91 -45 96 -41 106 77 8 82
34 156 55 156 7 0 40 -26 74 -57 l63 -58 -81 -81 c-45 -44 -81 -86 -81 -92 0
-15 29 -42 44 -42 7 0 38 31 67 69 30 38 58 69 64 67 6 -1 9 -124 10 -317 l0
-314 30 0 30 0 -4 323 c-2 256 -1 322 10 322 7 0 40 -27 75 -60 34 -33 69 -60
78 -60 18 0 40 36 32 55 -2 7 -41 41 -85 74 -45 34 -81 68 -81 76 0 7 28 38
63 69 74 65 99 102 77 116 -27 17 -49 11 -88 -25z"/>
</g>
</svg>
