<?xml version="1.0" standalone="no"?>
<!DOCTYPE svg PUBLIC "-//W3C//DTD SVG 20010904//EN"
 "http://www.w3.org/TR/2001/REC-SVG-20010904/DTD/svg10.dtd">
<svg version="1.0" xmlns="http://www.w3.org/2000/svg"
 width="102.000000pt" height="148.000000pt" viewBox="0 0 102.000000 148.000000"
 preserveAspectRatio="xMidYMid meet">
<metadata>
Created by potrace 1.16, written by Peter Selinger 2001-2019
</metadata>
<g transform="translate(0.000000,148.000000) scale(0.100000,-0.100000)"
fill="#000000" stroke="none">
<path d="M782 1363 c-35 -38 -78 -87 -95 -110 -29 -39 -69 -57 -79 -35 -6 14
-227 202 -238 202 -17 0 -35 -21 -59 -68 -49 -96 -101 -165 -176 -233 -44 -40
-83 -78 -87 -84 -17 -28 6 -51 90 -93 92 -45 121 -47 123 -8 0 11 2 32 4 46 2
14 6 63 9 108 5 64 13 97 36 142 45 89 43 89 147 -10 37 -36 78 -72 90 -80 22
-15 20 -17 -98 -140 -129 -134 -135 -147 -86 -184 l29 -21 59 65 c32 36 76 86
96 113 20 26 41 47 46 47 6 0 8 -187 6 -477 l-4 -477 35 -7 c23 -5 39 -4 46 4
7 8 9 150 5 476 -4 344 -3 468 6 480 10 14 18 9 65 -34 125 -115 151 -136 165
-133 23 4 55 51 48 70 -4 9 -62 60 -131 114 -68 54 -124 100 -124 102 0 2 51
58 113 124 61 66 114 124 116 130 6 17 -29 38 -63 38 -24 0 -43 -13 -94 -67z
m-546 -270 c5 -40 -8 -48 -41 -27 l-26 17 23 24 c28 30 40 26 44 -14z m-38
-71 c35 -26 36 -30 23 -52 -8 -12 -17 -10 -60 10 -55 25 -60 34 -35 61 18 20
21 19 72 -19z"/>
</g>
</svg>
