<?xml version="1.0" standalone="no"?>
<!DOCTYPE svg PUBLIC "-//W3C//DTD SVG 20010904//EN"
 "http://www.w3.org/TR/2001/REC-SVG-20010904/DTD/svg10.dtd">
<svg version="1.0" xmlns="http://www.w3.org/2000/svg"
 width="404.000000pt" height="590.000000pt" viewBox="0 0 404.000000 590.000000"
 preserveAspectRatio="xMidYMid meet">
<metadata>
Created by potrace 1.16, written by Peter Selinger 2001-2019
</metadata>
<g transform="translate(0.000000,590.000000) scale(0.500000,-0.500000)"
fill="#000000" stroke="none">
<path d="M676 1140 c-10 -2 -18 -8 -34 -26 -7 -8 -18 -19 -23 -25 -6 -5 -21
-22 -32 -36 -30 -36 -68 -80 -73 -84 -10 -6 -11 -6 -76 52 -22 19 -48 42 -60
52 -12 10 -28 25 -37 32 -46 40 -45 40 -67 18 -9 -10 -16 -19 -18 -24 -4 -12
-33 -64 -63 -111 -19 -31 -40 -54 -63 -70 -7 -5 -12 -10 -14 -14 -2 -4 -8 -10
-17 -17 -8 -6 -21 -18 -29 -26 -7 -9 -16 -17 -19 -19 -28 -15 -15 -57 20 -66
5 -1 12 -5 17 -10 5 -4 15 -10 23 -13 8 -3 16 -6 18 -8 2 -1 9 -4 16 -7 7 -2
16 -7 21 -10 32 -22 46 -2 49 68 3 79 7 129 11 140 11 28 51 99 57 101 7 3 49
-30 60 -47 3 -5 9 -9 15 -12 10 -4 38 -32 38 -36 0 -1 3 -4 8 -6 4 -3 12 -9
18 -15 6 -5 14 -11 18 -13 13 -6 -2 -28 -51 -74 -6 -5 -14 -14 -19 -20 -5 -5
-11 -12 -15 -14 -4 -2 -10 -8 -15 -14 -4 -7 -23 -28 -42 -48 -46 -46 -46 -47
-11 -81 27 -27 20 -31 130 96 62 72 63 72 60 8 -2 -52 -5 -355 -5 -538 0 -185
-2 -173 19 -173 4 0 15 -1 24 -2 19 -3 26 -2 30 5 5 7 5 384 1 616 -3 153 -3
157 15 149 8 -4 33 -27 39 -37 3 -4 8 -9 13 -11 10 -6 51 -41 79 -67 32 -31
32 -31 59 -5 18 16 20 21 18 37 -2 15 6 8 -135 121 -30 24 -57 46 -59 49 -10
11 -11 9 61 83 110 114 116 120 112 131 -7 20 -37 28 -72 21z m-489 -242 c4
-16 0 -54 -6 -54 -9 0 -40 23 -38 29 5 13 41 33 44 25z m-50 -67 c43 -27 46
-30 41 -46 -5 -18 -8 -18 -53 5 -43 21 -43 22 -21 43 12 11 12 11 33 -2z"/>
</g>
</svg>
