<?xml version="1.0" standalone="no"?>
<!DOCTYPE svg PUBLIC "-//W3C//DTD SVG 20010904//EN"
 "http://www.w3.org/TR/2001/REC-SVG-20010904/DTD/svg10.dtd">
<svg version="1.0" xmlns="http://www.w3.org/2000/svg"
 width="378.000000pt" height="590.000000pt" viewBox="0 0 378.000000 590.000000"
 preserveAspectRatio="xMidYMid meet">
<metadata>
Created by potrace 1.16, written by Peter Selinger 2001-2019
</metadata>
<g transform="translate(0.000000,590.000000) scale(0.500000,-0.500000)"
fill="#000000" stroke="none">
<path d="M629 1123 c-4 -4 -14 -15 -22 -24 -7 -9 -26 -28 -41 -42 -15 -14 -32
-31 -39 -39 -37 -42 -53 -50 -65 -32 -3 5 -10 14 -15 19 -6 6 -13 14 -17 19
-4 6 -10 12 -15 15 -4 3 -17 17 -29 30 -13 13 -25 26 -28 28 -3 2 -11 10 -18
18 -16 15 -20 16 -38 7 -28 -14 -39 -36 -49 -102 -3 -17 -6 -34 -7 -37 -4 -10
-12 -45 -15 -63 -1 -11 -6 -31 -10 -46 -4 -15 -8 -34 -10 -43 -1 -9 -4 -19 -5
-22 -5 -12 -16 -58 -19 -78 -2 -11 -5 -26 -7 -33 -5 -18 -13 -54 -16 -71 -1
-8 -6 -29 -11 -47 -5 -18 -10 -40 -11 -49 -1 -9 -6 -29 -10 -44 -4 -15 -9 -37
-11 -47 -2 -10 -5 -25 -7 -33 -8 -31 -14 -57 -17 -74 -5 -31 -9 -49 -14 -66
-3 -9 -6 -22 -7 -29 -1 -7 -6 -26 -10 -43 -4 -16 -8 -37 -9 -45 -1 -8 -3 -20
-4 -25 -11 -39 2 -57 43 -61 12 -1 23 -3 24 -3 2 -1 12 -3 52 -11 32 -7 46 4
41 31 -2 10 -37 51 -84 97 l-16 16 3 17 c1 9 4 21 6 27 4 13 11 44 14 61 1 7
5 24 9 38 4 14 8 34 10 44 3 19 5 28 15 63 3 12 7 29 8 38 1 8 4 21 6 28 9 32
14 52 15 62 1 11 5 26 14 61 3 11 6 27 7 36 1 9 5 25 8 37 3 12 8 34 11 50 3
16 9 42 13 58 4 16 9 36 10 44 1 9 5 27 9 41 4 14 10 38 12 52 10 53 23 93 29
93 6 0 120 -112 120 -118 0 -9 -65 -80 -94 -104 -6 -4 -18 -16 -27 -26 -10
-10 -21 -21 -25 -25 -18 -12 -17 -22 3 -41 22 -21 26 -22 36 -8 4 4 16 17 29
30 13 13 27 28 31 35 4 6 11 14 15 17 4 3 13 11 21 19 21 20 24 18 24 -17 -3
-355 -4 -746 -3 -749 4 -11 59 -15 68 -6 5 5 6 314 2 621 -3 166 -2 170 4 170
4 0 31 -28 47 -48 12 -16 66 -70 72 -72 10 -4 14 -2 29 14 27 29 27 31 -2 60
-32 31 -69 66 -80 75 -17 14 -52 52 -52 56 0 4 21 25 80 81 90 85 85 77 62
102 -25 26 -29 28 -43 13z m-498 -997 c26 -27 25 -30 -13 -26 -31 3 -31 4 -24
26 9 27 11 27 37 0z"/>
</g>
</svg>
