<?xml version="1.0" standalone="no"?>
<!DOCTYPE svg PUBLIC "-//W3C//DTD SVG 20010904//EN"
 "http://www.w3.org/TR/2001/REC-SVG-20010904/DTD/svg10.dtd">
<svg version="1.0" xmlns="http://www.w3.org/2000/svg"
 width="370.000000pt" height="590.000000pt" viewBox="0 0 370.000000 590.000000"
 preserveAspectRatio="xMidYMid meet">
<metadata>
Created by potrace 1.16, written by Peter Selinger 2001-2019
</metadata>
<g transform="translate(0.000000,590.000000) scale(0.500000,-0.500000)"
fill="#000000" stroke="none">
<path d="M327 1135 c-3 -2 -10 -7 -16 -11 -5 -4 -15 -11 -20 -15 -6 -4 -15
-13 -21 -20 -7 -7 -18 -16 -27 -22 -9 -5 -21 -14 -27 -18 -6 -5 -17 -11 -23
-14 -8 -4 -18 -12 -32 -25 -11 -11 -28 -26 -38 -33 -19 -14 -32 -25 -47 -40
-5 -5 -12 -10 -15 -12 -22 -11 -24 -29 -6 -52 13 -17 20 -21 28 -17 9 6 40 29
53 41 8 7 18 15 23 17 6 3 11 7 14 12 5 8 9 11 30 27 8 5 18 13 23 17 5 4 12
8 15 10 8 3 29 21 36 29 3 4 9 10 14 12 4 3 13 10 18 15 6 6 15 12 20 15 6 2
12 6 15 8 12 8 20 5 80 -36 2 -2 6 -7 9 -11 4 -6 7 -8 14 -10 5 -1 18 -8 29
-15 11 -7 21 -13 22 -13 1 0 12 -7 23 -14 12 -8 26 -18 31 -21 5 -3 13 -9 18
-14 5 -5 14 -11 21 -14 14 -6 27 -16 33 -25 13 -18 50 -32 59 -21 27 30 24 61
-8 77 -4 3 -14 8 -21 13 -7 4 -24 15 -38 23 -14 8 -31 18 -38 22 -7 5 -16 11
-20 15 -7 7 -45 34 -52 36 -9 4 -62 37 -68 44 -4 4 -11 9 -15 11 -4 2 -14 8
-22 13 -29 20 -56 25 -74 16z"/>
<path d="M354 885 c-12 -6 -17 -39 -11 -67 7 -35 4 -78 -7 -78 -11 0 -53 38
-76 69 -4 6 -12 14 -17 18 -6 4 -17 15 -26 23 -18 18 -23 21 -36 21 -31 0 -48
-42 -23 -54 5 -2 11 -7 13 -11 3 -4 7 -11 11 -15 6 -9 43 -42 55 -49 8 -5 23
-21 23 -24 0 -1 14 -15 30 -31 38 -37 38 -37 4 -72 -20 -22 -35 -39 -42 -49
-3 -3 -13 -13 -22 -21 -9 -7 -18 -16 -20 -18 -2 -2 -9 -10 -16 -17 -6 -8 -14
-18 -16 -23 -3 -8 -11 -15 -24 -24 -23 -14 1 -61 31 -61 10 0 72 66 96 103 5
8 35 42 41 47 15 12 27 -10 26 -48 0 -2 -1 -21 -2 -42 -4 -97 -5 -425 0 -430
9 -12 50 -7 57 6 4 8 5 154 1 388 -3 140 -2 143 6 141 3 -1 39 -39 60 -64 5
-7 13 -15 18 -18 4 -3 12 -10 16 -16 34 -44 59 -62 76 -56 31 11 40 40 19 58
-5 5 -12 11 -15 14 -7 8 -52 51 -68 66 -7 6 -19 18 -26 25 -7 7 -27 26 -45 43
-36 34 -37 37 -24 49 5 4 11 10 14 14 3 4 12 13 18 20 7 8 17 19 21 26 9 14
21 25 39 38 40 27 70 73 55 86 -3 1 -10 7 -16 13 -17 15 -23 15 -40 -1 -6 -5
-14 -11 -18 -14 -3 -2 -10 -10 -15 -16 -4 -7 -11 -16 -14 -21 -3 -4 -11 -14
-16 -20 -6 -7 -13 -16 -16 -21 -13 -18 -29 -24 -34 -14 -4 8 -3 54 1 62 21 37
-12 84 -46 65z"/>
</g>
</svg>
