<?xml version="1.0" standalone="no"?>
<!DOCTYPE svg PUBLIC "-//W3C//DTD SVG 20010904//EN"
 "http://www.w3.org/TR/2001/REC-SVG-20010904/DTD/svg10.dtd">
<svg version="1.0" xmlns="http://www.w3.org/2000/svg"
 width="63.000000pt" height="100.000000pt" viewBox="0 0 63.000000 100.000000"
 preserveAspectRatio="xMidYMid meet">
<metadata>
Created by potrace 1.16, written by Peter Selinger 2001-2019
</metadata>
<g transform="translate(0.000000,100.000000) scale(0.100000,-0.100000)"
fill="#000000" stroke="none">
<path d="M152 864 c-67 -52 -122 -98 -122 -100 0 -12 21 -44 29 -44 5 0 58 38
117 85 60 46 115 85 123 85 15 0 153 -85 212 -132 44 -34 75 -36 84 -7 9 26 9
26 -145 127 -74 48 -136 82 -151 82 -17 0 -66 -32 -147 -96z"/>
<path d="M291 742 c-6 -11 -6 -33 -1 -57 5 -21 7 -43 4 -47 -9 -15 -32 -8 -47
15 -31 47 -67 77 -92 77 -44 0 -29 -34 45 -104 38 -36 70 -70 70 -74 0 -5 -34
-46 -75 -91 -41 -44 -75 -88 -75 -96 0 -8 8 -19 18 -24 20 -11 49 14 106 92
15 20 31 37 37 37 5 0 9 -90 9 -225 l0 -225 25 0 c36 0 39 24 30 251 -4 126
-3 199 3 199 5 0 35 -29 67 -65 58 -67 79 -75 99 -42 10 16 -1 30 -78 103
l-89 85 66 67 c67 68 83 104 51 116 -28 11 -33 7 -70 -44 -20 -27 -40 -50 -45
-50 -5 0 -9 27 -9 60 0 53 -2 60 -20 60 -10 0 -24 -8 -29 -18z"/>
</g>
</svg>
