<?xml version="1.0" standalone="no"?>
<!DOCTYPE svg PUBLIC "-//W3C//DTD SVG 20010904//EN"
 "http://www.w3.org/TR/2001/REC-SVG-20010904/DTD/svg10.dtd">
<svg version="1.0" xmlns="http://www.w3.org/2000/svg"
 width="330.000000pt" height="594.000000pt" viewBox="0 0 330.000000 594.000000"
 preserveAspectRatio="xMidYMid meet">
<metadata>
Created by potrace 1.16, written by Peter Selinger 2001-2019
</metadata>
<g transform="translate(0.000000,594.000000) scale(0.500000,-0.500000)"
fill="#000000" stroke="none">
<path d="M313 1157 c-2 -1 -13 -10 -23 -20 -10 -10 -26 -23 -34 -30 -9 -6 -18
-14 -21 -18 -3 -4 -10 -10 -16 -14 -31 -23 -73 -70 -88 -99 -2 -4 -6 -10 -10
-14 -10 -11 -45 -78 -52 -102 -1 -3 -6 -13 -12 -23 -9 -18 -13 -28 -25 -75
-18 -70 -17 -74 18 -74 23 0 29 4 31 22 4 32 19 84 30 103 3 4 7 15 11 23 15
39 49 99 67 118 7 8 18 22 25 30 22 26 50 58 52 58 1 0 9 8 18 19 34 39 53 42
78 13 6 -7 17 -19 24 -26 15 -15 48 -52 62 -70 6 -7 16 -18 22 -25 9 -10 34
-51 34 -56 0 -1 5 -10 11 -21 6 -10 13 -26 17 -35 3 -8 9 -22 13 -30 12 -22
23 -64 28 -98 3 -20 9 -25 32 -25 31 0 34 9 19 68 -16 62 -17 67 -28 85 -3 6
-10 21 -14 32 -20 51 -44 90 -77 126 -10 11 -22 26 -26 34 -9 16 -22 29 -42
44 -8 6 -17 14 -21 19 -3 4 -12 12 -18 16 -6 4 -18 14 -26 21 -23 20 -43 28
-59 24z"/>
<path d="M316 920 c-7 -6 -7 -6 -5 -75 2 -99 -1 -101 -70 -28 -45 47 -51 47
-70 9 -8 -17 -9 -15 55 -78 67 -65 65 -62 57 -75 -8 -14 -100 -111 -105 -111
-1 0 -6 -6 -12 -14 -6 -8 -11 -15 -13 -15 -20 -8 -19 -26 2 -46 24 -23 31 -24
44 -6 3 6 13 17 20 25 8 9 18 21 22 27 13 21 52 62 61 64 7 2 11 -25 9 -68 -6
-108 -6 -476 -1 -482 9 -9 52 -7 59 3 4 4 4 192 1 356 -4 185 -4 193 1 194 4
1 41 -36 57 -56 39 -53 68 -70 92 -56 36 21 35 23 -69 120 -81 76 -81 76 -61
99 5 5 12 14 15 18 6 8 18 21 62 66 26 26 27 28 21 44 -16 43 -45 35 -82 -23
-9 -14 -36 -40 -42 -40 -6 0 -7 5 -5 76 1 68 1 68 -4 73 -8 8 -31 7 -39 -1z"/>
</g>
</svg>
