<?xml version="1.0" standalone="no"?>
<!DOCTYPE svg PUBLIC "-//W3C//DTD SVG 20010904//EN"
 "http://www.w3.org/TR/2001/REC-SVG-20010904/DTD/svg10.dtd">
<svg version="1.0" xmlns="http://www.w3.org/2000/svg"
 width="82.000000pt" height="148.000000pt" viewBox="0 0 82.000000 148.000000"
 preserveAspectRatio="xMidYMid meet">
<metadata>
Created by potrace 1.16, written by Peter Selinger 2001-2019
</metadata>
<g transform="translate(0.000000,148.000000) scale(0.100000,-0.100000)"
fill="#000000" stroke="none">
<path d="M289 1347 c-53 -51 -111 -111 -128 -133 -66 -88 -157 -332 -133 -356
5 -5 22 -8 38 -6 26 3 30 7 35 48 7 58 62 187 108 255 51 76 176 205 198 205
11 0 54 -40 103 -96 97 -109 164 -229 190 -339 16 -67 18 -70 46 -70 23 0 30
5 32 24 9 62 -72 250 -153 355 -76 100 -193 206 -225 206 -8 0 -58 -42 -111
-93z"/>
<path d="M383 1134 c-3 -8 -3 -52 0 -95 7 -107 -7 -113 -81 -34 -57 61 -76 65
-93 18 -6 -18 5 -34 72 -97 43 -42 79 -80 79 -84 0 -4 -43 -50 -95 -102 -52
-52 -95 -100 -95 -106 0 -6 11 -21 25 -34 29 -28 23 -32 110 75 31 39 62 70
69 70 6 0 11 -16 10 -40 0 -22 -2 -177 -4 -345 l-3 -305 39 0 39 0 -3 325 c-1
179 -4 335 -7 348 -9 37 19 26 61 -25 46 -56 103 -113 113 -113 9 0 51 39 51
47 0 3 -47 51 -105 105 -58 55 -105 104 -105 109 0 5 30 41 68 80 83 88 85 91
66 117 -23 34 -40 27 -91 -38 -26 -33 -51 -59 -57 -57 -6 2 -9 41 -7 100 l3
97 -27 0 c-14 0 -28 -7 -32 -16z"/>
</g>
</svg>
