<?xml version="1.0" standalone="no"?>
<!DOCTYPE svg PUBLIC "-//W3C//DTD SVG 20010904//EN"
 "http://www.w3.org/TR/2001/REC-SVG-20010904/DTD/svg10.dtd">
<svg version="1.0" xmlns="http://www.w3.org/2000/svg"
 width="55.000000pt" height="100.000000pt" viewBox="0 0 55.000000 100.000000"
 preserveAspectRatio="xMidYMid meet">
<metadata>
Created by potrace 1.16, written by Peter Selinger 2001-2019
</metadata>
<g transform="translate(0.000000,100.000000) scale(0.100000,-0.100000)"
fill="#000000" stroke="none">
<path d="M178 903 c-82 -80 -148 -199 -156 -283 -4 -49 -4 -52 18 -48 19 2 26
14 40 64 9 34 29 82 43 107 34 57 134 167 153 167 18 0 127 -133 155 -190 13
-25 28 -67 34 -95 9 -39 16 -51 32 -53 46 -7 35 63 -30 197 -40 83 -154 201
-192 201 -20 0 -46 -19 -97 -67z"/>
<path d="M261 781 c-11 -7 -12 -23 -7 -70 8 -72 -6 -81 -48 -30 -15 17 -33 29
-43 27 -35 -7 -25 -37 29 -87 l53 -50 -70 -71 c-59 -59 -68 -73 -59 -88 21
-32 42 -25 79 27 21 28 42 51 49 51 9 0 12 -57 11 -227 l0 -228 25 0 25 0 0
227 c0 124 3 229 6 232 3 3 25 -17 48 -45 46 -54 83 -64 89 -23 2 15 -14 35
-62 75 -36 30 -65 62 -65 72 -1 9 17 37 39 61 43 46 50 73 24 83 -11 4 -25 -4
-43 -25 -14 -18 -30 -32 -36 -32 -6 0 -10 27 -10 62 0 61 -8 75 -34 59z"/>
</g>
</svg>
