<?xml version="1.0" standalone="no"?>
<!DOCTYPE svg PUBLIC "-//W3C//DTD SVG 20010904//EN"
 "http://www.w3.org/TR/2001/REC-SVG-20010904/DTD/svg10.dtd">
<svg version="1.0" xmlns="http://www.w3.org/2000/svg"
 width="96.000000pt" height="146.000000pt" viewBox="0 0 96.000000 146.000000"
 preserveAspectRatio="xMidYMid meet">
<metadata>
Created by potrace 1.16, written by Peter Selinger 2001-2019
</metadata>
<g transform="translate(0.000000,146.000000) scale(0.100000,-0.100000)"
fill="#000000" stroke="none">
<path d="M192 1386 c-23 -39 -71 -192 -101 -321 -48 -211 -53 -490 -10 -651
11 -43 25 -97 30 -119 6 -22 17 -50 25 -62 8 -12 14 -27 14 -33 0 -6 15 -45
34 -86 30 -63 38 -74 60 -74 14 0 31 9 39 20 13 18 11 27 -13 78 -43 89 -89
206 -113 287 -26 84 -39 273 -26 378 27 231 71 421 117 510 27 52 28 57 13 81
-21 35 -45 33 -69 -8z"/>
<path d="M471 1411 c-11 -7 -13 -31 -9 -110 4 -71 2 -101 -6 -101 -7 0 -37 34
-69 75 -59 76 -76 84 -97 44 -8 -14 4 -35 70 -112 44 -52 80 -101 80 -109 0
-7 -20 -34 -45 -58 -49 -48 -58 -83 -25 -100 17 -9 24 -5 47 29 34 49 58 54
50 12 -5 -22 -11 -819 -7 -929 0 -9 11 -12 33 -10 l32 3 0 483 0 483 32 -38
c27 -32 35 -36 50 -27 31 19 25 37 -27 96 -27 31 -50 59 -50 63 0 4 41 56 90
116 50 59 90 114 90 121 0 7 -10 19 -22 27 -20 12 -24 11 -50 -20 -15 -19 -42
-55 -58 -81 -17 -25 -38 -49 -47 -52 -13 -5 -14 5 -8 84 9 108 -7 141 -54 111z"/>
<path d="M786 1388 c-41 -93 -98 -325 -117 -475 -15 -122 -6 -382 15 -463 40
-150 60 -207 129 -362 24 -55 42 -60 83 -24 26 21 27 25 12 39 -8 9 -37 67
-62 129 -26 62 -51 122 -55 133 -59 142 -72 388 -32 635 12 76 61 259 78 292
32 64 33 75 12 102 -27 35 -45 33 -63 -6z"/>
</g>
</svg>
