<?xml version="1.0" standalone="no"?>
<!DOCTYPE svg PUBLIC "-//W3C//DTD SVG 20010904//EN"
 "http://www.w3.org/TR/2001/REC-SVG-20010904/DTD/svg10.dtd">
<svg version="1.0" xmlns="http://www.w3.org/2000/svg"
 width="66.000000pt" height="100.000000pt" viewBox="0 0 66.000000 100.000000"
 preserveAspectRatio="xMidYMid meet">
<metadata>
Created by potrace 1.16, written by Peter Selinger 2001-2019
</metadata>
<g transform="translate(0.000000,100.000000) scale(0.100000,-0.100000)"
fill="#000000" stroke="none">
<path d="M135 958 c-19 -27 -58 -154 -80 -256 -10 -47 -15 -128 -15 -227 0
-148 1 -158 34 -258 48 -145 71 -189 99 -185 12 2 23 11 25 20 2 9 -17 68 -42
130 -25 62 -50 147 -57 188 -20 129 6 335 61 485 34 92 35 102 12 114 -17 9
-24 7 -37 -11z"/>
<path d="M315 961 c-3 -6 -3 -38 1 -71 8 -74 -3 -77 -47 -15 -34 48 -62 55
-67 19 -2 -14 14 -40 47 -77 28 -30 51 -58 51 -63 0 -4 -16 -24 -35 -44 -49
-50 -33 -94 19 -55 11 8 22 15 25 15 3 0 5 -141 3 -313 -3 -275 -2 -315 12
-326 13 -11 19 -11 31 -1 14 12 16 54 15 319 -1 168 -1 310 -1 316 1 5 6 4 13
-3 7 -7 20 -12 30 -12 25 0 23 32 -3 56 -44 40 -44 51 4 107 68 81 81 105 67
121 -16 21 -31 12 -65 -39 -41 -62 -54 -58 -52 13 2 51 0 57 -20 60 -11 2 -24
-2 -28 -7z"/>
<path d="M542 958 c-17 -23 -61 -193 -78 -305 -30 -195 -9 -353 69 -538 35
-83 60 -103 87 -70 11 13 7 28 -23 93 -19 42 -47 115 -62 162 -26 81 -27 92
-21 225 6 148 20 224 62 343 21 58 24 75 14 87 -15 18 -34 19 -48 3z"/>
</g>
</svg>
