<?xml version="1.0" standalone="no"?>
<!DOCTYPE svg PUBLIC "-//W3C//DTD SVG 20010904//EN"
 "http://www.w3.org/TR/2001/REC-SVG-20010904/DTD/svg10.dtd">
<svg version="1.0" xmlns="http://www.w3.org/2000/svg"
 width="386.000000pt" height="580.000000pt" viewBox="0 0 386.000000 580.000000"
 preserveAspectRatio="xMidYMid meet">
<metadata>
Created by potrace 1.16, written by Peter Selinger 2001-2019
</metadata>
<g transform="translate(0.000000,580.000000) scale(0.500000,-0.500000)"
fill="#000000" stroke="none">
<path d="M175 1132 c-4 -2 -17 -25 -33 -56 -4 -9 -24 -65 -24 -69 0 -1 -3 -8
-6 -16 -5 -13 -15 -51 -29 -111 -3 -13 -8 -30 -10 -38 -6 -18 -11 -49 -11 -67
0 -8 -2 -22 -4 -31 -18 -81 -18 -297 0 -373 2 -9 6 -25 8 -37 2 -12 9 -34 14
-50 6 -17 10 -31 10 -33 0 -13 11 -48 22 -69 7 -12 12 -24 12 -26 0 -1 4 -12
9 -23 5 -11 10 -26 13 -34 2 -8 6 -16 8 -19 2 -3 7 -13 11 -22 15 -31 47 -34
68 -6 9 12 8 19 -4 41 -9 17 -18 38 -31 70 -3 8 -8 20 -11 28 -10 22 -14 32
-23 56 -5 12 -11 27 -14 33 -3 6 -7 18 -9 27 -2 9 -7 28 -12 42 -5 15 -9 29
-9 32 0 3 -1 11 -3 17 -9 32 -14 167 -9 226 1 15 3 38 4 51 1 13 3 31 5 40 6
30 11 64 13 79 1 8 5 30 10 48 4 18 10 41 12 52 2 10 7 28 11 40 4 11 7 25 8
30 2 10 11 34 22 57 3 8 8 18 10 23 2 5 6 15 10 21 14 23 14 26 0 46 -16 23
-24 28 -38 21z"/>
<path d="M650 1127 c-9 -4 -26 -41 -39 -86 -3 -10 -7 -24 -10 -30 -5 -13 -22
-76 -24 -91 -2 -12 -13 -54 -15 -58 -3 -6 -8 -31 -10 -57 -1 -14 -4 -35 -6
-46 -5 -25 -9 -57 -11 -79 -3 -28 -2 -190 1 -213 1 -11 3 -29 4 -40 1 -11 4
-29 7 -41 3 -12 6 -27 7 -34 1 -7 7 -28 13 -46 6 -18 13 -44 16 -57 4 -19 7
-28 16 -44 6 -11 12 -24 13 -28 1 -4 6 -17 11 -28 5 -11 10 -24 11 -29 1 -5 5
-13 8 -19 3 -5 9 -18 13 -27 16 -37 18 -39 38 -38 10 1 30 12 45 24 5 4 0 22
-8 31 -5 6 -23 38 -28 52 -2 6 -6 15 -8 19 -2 4 -5 12 -8 19 -2 7 -7 20 -11
29 -8 19 -24 60 -27 68 -1 3 -5 11 -8 19 -4 8 -9 21 -11 30 -1 9 -7 28 -12 43
-5 15 -9 30 -9 33 0 3 -1 11 -3 16 -9 31 -14 161 -9 221 1 16 3 40 4 54 1 14
3 30 4 36 6 29 14 80 14 85 0 4 3 18 6 31 9 36 11 46 17 70 3 12 7 29 11 39 3
10 6 22 7 26 2 9 13 39 21 55 25 49 23 71 -7 88 -12 7 -16 7 -23 3z"/>
<path d="M378 1120 c-4 -4 -4 -7 -4 -83 0 -88 0 -89 -12 -76 -26 30 -36 43
-43 53 -5 6 -14 17 -20 24 -7 7 -15 17 -19 22 -10 15 -20 16 -35 5 -24 -19
-22 -25 30 -84 6 -7 20 -23 32 -37 11 -14 27 -31 34 -39 22 -25 22 -25 -16
-68 -47 -52 -52 -63 -35 -78 23 -20 28 -18 66 30 7 8 13 15 15 14 2 0 2 6 1
-447 -1 -362 -5 -321 35 -320 26 1 25 -30 21 539 -1 202 -1 218 3 218 2 0 20
-19 36 -38 11 -12 23 -9 39 10 10 11 -1 31 -36 68 -24 25 -38 43 -38 49 0 4
28 40 44 57 5 6 13 15 18 22 5 7 15 18 22 26 8 8 17 19 21 25 3 6 9 13 11 15
35 31 36 49 5 64 -14 7 -19 5 -31 -9 -4 -6 -15 -20 -24 -30 -8 -10 -19 -24
-23 -31 -44 -64 -48 -62 -48 24 0 85 2 79 -27 79 -15 0 -19 -1 -22 -4z"/>
</g>
</svg>
