<?xml version="1.0" standalone="no"?>
<!DOCTYPE svg PUBLIC "-//W3C//DTD SVG 20010904//EN"
 "http://www.w3.org/TR/2001/REC-SVG-20010904/DTD/svg10.dtd">
<svg version="1.0" xmlns="http://www.w3.org/2000/svg"
 width="66.000000pt" height="140.000000pt" viewBox="0 0 66.000000 140.000000"
 preserveAspectRatio="xMidYMid meet">
<metadata>
Created by potrace 1.16, written by Peter Selinger 2001-2019
</metadata>
<g transform="translate(0.000000,140.000000) scale(0.100000,-0.100000)"
fill="#000000" stroke="none">
<path d="M274 1338 c-4 -13 -6 -67 -5 -120 2 -86 0 -99 -18 -117 -12 -12 -30
-21 -40 -21 -11 0 -22 -4 -26 -10 -3 -5 -34 -23 -68 -41 -82 -41 -87 -46 -87
-83 0 -39 31 -64 51 -40 7 9 22 20 34 25 11 5 45 25 75 44 83 52 83 52 75 -67
-3 -57 -8 -157 -10 -223 -3 -121 -10 -152 -68 -285 -150 -343 -156 -365 -86
-365 31 0 34 3 49 50 9 28 24 66 33 86 8 19 19 48 23 65 4 16 12 36 19 44 8 8
25 53 40 100 15 47 28 91 31 98 2 7 8 11 13 8 8 -5 128 -219 202 -361 41 -78
60 -96 86 -79 31 19 26 57 -15 130 -21 38 -45 85 -52 104 -8 19 -32 64 -54
100 -22 36 -55 94 -73 130 -19 36 -40 76 -48 90 -11 19 -15 62 -14 185 1 88
-2 177 -6 197 -9 50 1 65 29 40 32 -30 177 -122 191 -122 16 0 45 33 45 52 0
20 -19 35 -105 82 -11 6 -29 18 -40 27 -11 9 -37 22 -57 28 -57 19 -60 26 -50
140 7 88 5 104 -8 116 -25 22 -57 19 -66 -7z"/>
</g>
</svg>
