<?xml version="1.0" standalone="no"?>
<!DOCTYPE svg PUBLIC "-//W3C//DTD SVG 20010904//EN"
 "http://www.w3.org/TR/2001/REC-SVG-20010904/DTD/svg10.dtd">
<svg version="1.0" xmlns="http://www.w3.org/2000/svg"
 width="266.000000pt" height="560.000000pt" viewBox="0 0 266.000000 560.000000"
 preserveAspectRatio="xMidYMid meet">
<metadata>
Created by potrace 1.16, written by Peter Selinger 2001-2019
</metadata>
<g transform="translate(0.000000,560.000000) scale(0.500000,-0.500000)"
fill="#000000" stroke="none">
<path d="M236 1086 c-19 -7 -23 -20 -20 -79 5 -109 0 -128 -34 -134 -12 -3
-32 -13 -39 -20 -4 -5 -11 -9 -22 -14 -9 -3 -23 -10 -30 -14 -8 -4 -18 -10
-24 -12 -36 -18 -44 -29 -43 -56 2 -38 30 -48 58 -20 9 9 15 13 20 14 5 1 12
5 17 9 6 5 17 11 25 16 8 4 25 13 38 19 24 13 31 15 33 10 2 -5 -3 -192 -6
-221 -1 -14 -2 -44 -1 -68 0 -47 -2 -59 -20 -98 -3 -7 -7 -18 -9 -24 -4 -17
-17 -47 -25 -62 -5 -8 -10 -22 -15 -39 -7 -26 -11 -34 -25 -58 -4 -8 -10 -19
-11 -25 -4 -13 -31 -77 -39 -91 -31 -55 -22 -94 19 -94 28 0 31 4 48 63 5 17
10 28 14 35 5 7 11 22 19 48 17 51 16 48 23 57 4 4 8 12 10 17 2 6 5 15 7 20
7 17 11 28 25 71 20 63 21 63 47 17 5 -10 10 -19 10 -19 0 -3 42 -76 55 -96
12 -20 14 -23 26 -48 4 -10 14 -29 22 -42 7 -12 15 -27 17 -33 6 -15 11 -23
19 -33 4 -4 9 -14 11 -21 10 -30 38 -39 56 -18 15 18 18 31 10 46 -3 4 -13 24
-22 43 -10 19 -21 40 -25 45 -6 10 -14 27 -25 57 -10 25 -26 54 -40 69 -3 3
-8 11 -10 17 -2 7 -10 21 -17 31 -8 11 -15 24 -17 28 -1 4 -7 17 -13 29 -6 12
-13 26 -16 33 -3 6 -11 18 -17 27 -19 26 -18 22 -19 95 -1 70 -1 72 -1 123 1
19 0 57 -2 83 -3 64 -4 63 26 41 11 -7 28 -18 37 -24 10 -7 22 -15 27 -18 79
-54 94 -58 110 -26 14 28 4 53 -23 62 -16 5 -19 6 -37 19 -8 6 -19 12 -25 14
-7 2 -14 7 -21 14 -13 12 -25 19 -46 25 -46 13 -46 12 -40 124 3 73 2 78 -15
86 -10 5 -23 5 -35 0z"/>
</g>
</svg>
