<?xml version="1.0" standalone="no"?>
<!DOCTYPE svg PUBLIC "-//W3C//DTD SVG 20010904//EN"
 "http://www.w3.org/TR/2001/REC-SVG-20010904/DTD/svg10.dtd">
<svg version="1.0" xmlns="http://www.w3.org/2000/svg"
 width="91.000000pt" height="100.000000pt" viewBox="0 0 91.000000 100.000000"
 preserveAspectRatio="xMidYMid meet">
<metadata>
Created by potrace 1.16, written by Peter Selinger 2001-2019
</metadata>
<g transform="translate(0.000000,100.000000) scale(0.100000,-0.100000)"
fill="#000000" stroke="none">
<path d="M212 948 c-7 -7 -12 -42 -12 -90 l0 -77 -82 -43 c-70 -36 -83 -47
-83 -68 0 -38 30 -36 91 4 29 20 59 36 66 36 10 0 12 -32 9 -147 l-3 -147 -63
-146 c-34 -80 -68 -157 -75 -172 -11 -22 -11 -30 0 -43 28 -34 50 -13 90 87
22 54 45 117 51 140 14 49 28 70 40 63 4 -3 43 -71 85 -151 55 -103 82 -144
93 -142 43 8 9 105 -106 298 l-51 85 -6 143 c-3 85 -2 142 4 142 5 0 44 -22
87 -50 43 -27 87 -50 98 -50 11 0 51 20 89 45 38 25 72 42 77 40 4 -3 5 -72 2
-153 l-6 -147 -69 -163 c-38 -90 -68 -171 -66 -180 4 -21 48 -23 59 -2 13 27
87 224 94 253 4 15 13 27 20 27 7 0 43 -57 80 -127 71 -137 99 -175 121 -166
29 11 11 63 -80 225 l-94 166 -4 141 c-2 94 0 141 7 141 6 0 35 -18 64 -41 63
-47 106 -51 106 -10 0 20 -14 32 -85 71 l-85 46 0 79 c0 71 -2 80 -19 83 -31
6 -47 -25 -40 -79 10 -78 3 -89 -88 -138 l-83 -43 -90 48 -90 49 -5 85 c-4 65
-9 85 -20 88 -9 1 -21 -3 -28 -10z"/>
</g>
</svg>
