<?xml version="1.0" standalone="no"?>
<!DOCTYPE svg PUBLIC "-//W3C//DTD SVG 20010904//EN"
 "http://www.w3.org/TR/2001/REC-SVG-20010904/DTD/svg10.dtd">
<svg version="1.0" xmlns="http://www.w3.org/2000/svg"
 width="538.000000pt" height="590.000000pt" viewBox="0 0 538.000000 590.000000"
 preserveAspectRatio="xMidYMid meet">
<metadata>
Created by potrace 1.16, written by Peter Selinger 2001-2019
</metadata>
<g transform="translate(0.000000,590.000000) scale(0.500000,-0.500000)"
fill="#000000" stroke="none">
<path d="M263 1122 c-18 -8 -26 -41 -19 -76 4 -18 3 -95 -1 -107 -5 -15 -16
-24 -42 -36 -12 -5 -27 -13 -32 -17 -5 -4 -11 -8 -14 -9 -8 -3 -31 -13 -43
-20 -6 -4 -16 -9 -23 -11 -26 -10 -50 -40 -45 -58 8 -30 33 -37 59 -17 7 5 17
12 23 15 7 3 15 8 18 11 14 10 90 53 94 53 8 0 8 -3 5 -86 -2 -45 -3 -94 -3
-109 0 -18 -1 -36 -4 -53 -3 -21 -4 -30 -3 -63 1 -38 1 -38 -8 -64 -5 -14 -13
-38 -18 -52 -9 -27 -20 -54 -28 -68 -4 -8 -6 -13 -21 -53 -4 -9 -11 -26 -17
-38 -6 -12 -12 -25 -13 -29 -3 -9 -15 -40 -20 -52 -2 -4 -5 -11 -6 -15 -2 -4
-6 -11 -10 -16 -11 -15 -25 -60 -23 -75 3 -23 44 -34 63 -16 7 7 11 17 19 47
5 22 9 32 18 48 10 19 25 60 31 81 1 5 5 12 8 16 7 11 11 19 13 27 1 4 4 14 8
22 3 8 9 23 12 33 5 20 26 73 30 80 6 8 11 6 20 -10 13 -23 43 -74 58 -101 7
-14 22 -39 32 -57 10 -18 23 -41 29 -53 6 -11 13 -24 15 -28 3 -5 9 -16 13
-27 5 -10 11 -22 15 -27 4 -5 10 -16 14 -25 13 -29 37 -33 57 -7 12 15 11 17
-14 68 -12 25 -25 50 -30 56 -4 6 -10 16 -12 22 -2 6 -5 15 -7 19 -3 4 -6 13
-8 20 -6 21 -21 47 -35 62 -4 4 -11 15 -15 24 -4 9 -11 21 -16 27 -7 10 -12
20 -34 70 -10 24 -15 31 -29 47 -16 19 -23 45 -20 84 1 6 1 24 1 40 -2 100 -3
159 -4 195 -2 57 -4 57 89 -6 6 -4 18 -12 27 -17 9 -5 34 -20 55 -33 50 -30
62 -32 88 -11 14 10 122 74 155 91 18 9 20 7 18 -17 -1 -9 -2 -61 -4 -115 -2
-54 -4 -104 -5 -111 -1 -7 -2 -30 -2 -53 0 -46 -1 -55 -15 -90 -4 -10 -11 -30
-15 -43 -4 -13 -13 -35 -20 -49 -6 -14 -16 -38 -22 -53 -6 -15 -15 -36 -20
-46 -5 -10 -11 -23 -13 -30 -2 -7 -5 -15 -6 -18 -2 -3 -7 -17 -12 -30 -5 -13
-12 -28 -15 -32 -13 -17 -26 -56 -26 -75 0 -21 33 -35 57 -23 9 5 15 17 23 50
6 23 10 35 15 43 11 19 20 40 33 80 3 10 8 21 11 25 8 10 10 14 13 27 1 6 5
16 8 23 3 7 7 19 10 28 6 21 27 75 32 82 8 10 9 9 32 -33 7 -13 33 -59 58
-102 25 -43 47 -84 50 -91 3 -7 9 -17 13 -24 4 -6 9 -18 12 -25 3 -8 9 -19 13
-25 4 -5 11 -18 16 -28 19 -37 68 -30 68 11 0 9 -42 92 -54 109 -4 6 -9 15
-12 22 -2 7 -5 13 -6 14 -1 2 -5 11 -8 20 -7 23 -20 46 -34 62 -6 7 -13 17
-15 22 -2 6 -9 19 -17 31 -7 12 -17 29 -21 38 -23 56 -25 59 -43 79 -17 19
-23 43 -20 81 1 20 1 71 -1 87 -1 10 -1 22 1 36 2 17 2 27 -1 60 -5 71 -4 103
4 103 5 0 59 -34 76 -49 7 -6 17 -13 21 -15 5 -3 17 -10 27 -16 41 -28 58 -31
71 -10 19 31 10 58 -24 68 -9 3 -20 8 -30 15 -9 6 -22 13 -28 15 -8 3 -17 8
-26 15 -14 12 -26 19 -46 26 -47 18 -45 13 -38 140 3 60 1 70 -21 74 -40 8
-53 -21 -43 -97 9 -73 -5 -110 -45 -125 -9 -3 -20 -9 -26 -13 -5 -5 -29 -18
-53 -29 -35 -18 -46 -24 -58 -34 -19 -17 -23 -17 -47 1 -6 4 -17 11 -26 16
-15 7 -25 13 -84 48 -13 8 -36 21 -50 28 -44 24 -42 14 -35 137 3 55 3 57 -9
67 -10 7 -26 8 -38 2z"/>
</g>
</svg>
