<?xml version="1.0" standalone="no"?>
<!DOCTYPE svg PUBLIC "-//W3C//DTD SVG 20010904//EN"
 "http://www.w3.org/TR/2001/REC-SVG-20010904/DTD/svg10.dtd">
<svg version="1.0" xmlns="http://www.w3.org/2000/svg"
 width="134.000000pt" height="148.000000pt" viewBox="0 0 134.000000 148.000000"
 preserveAspectRatio="xMidYMid meet">
<metadata>
Created by potrace 1.16, written by Peter Selinger 2001-2019
</metadata>
<g transform="translate(0.000000,148.000000) scale(0.100000,-0.100000)"
fill="#000000" stroke="none">
<path d="M328 1403 c-23 -6 -28 -30 -25 -139 1 -63 -2 -96 -11 -107 -7 -9 -55
-37 -105 -62 -127 -64 -160 -98 -125 -133 19 -19 30 -15 133 48 54 32 102 57
107 54 5 -3 7 -18 4 -32 -3 -15 -8 -114 -12 -221 -7 -214 -11 -231 -94 -421
-23 -52 -48 -115 -57 -140 -8 -25 -23 -56 -33 -70 -38 -55 -29 -120 16 -120
21 0 54 37 54 62 0 11 11 44 24 73 27 56 37 82 91 230 20 55 40 104 45 109 6
6 14 -2 20 -19 6 -16 44 -88 84 -159 41 -72 91 -165 112 -206 42 -81 64 -95
89 -56 16 23 14 28 -34 124 -28 55 -51 104 -51 108 0 5 -20 42 -45 83 -26 40
-59 100 -75 134 -17 33 -38 69 -47 80 -16 17 -18 45 -20 238 -1 120 0 219 2
219 2 0 63 -38 136 -85 72 -47 135 -85 138 -85 4 0 29 14 57 32 175 111 222
131 210 90 -3 -10 -8 -107 -12 -217 -7 -209 -13 -238 -77 -385 -9 -19 -32 -75
-52 -125 -20 -49 -45 -108 -55 -130 -33 -70 -34 -91 -9 -109 33 -22 60 -2 79
60 9 27 24 66 33 88 9 21 17 41 17 44 0 3 9 24 19 46 11 23 34 83 52 134 26
76 34 91 45 80 17 -18 136 -234 231 -420 17 -33 43 -36 68 -8 18 20 18 22 -10
78 -16 31 -37 68 -45 82 -9 14 -25 45 -34 70 -10 25 -33 69 -53 98 -19 29 -48
81 -64 115 -16 34 -38 73 -48 87 -18 23 -20 46 -23 237 -2 116 0 215 4 219 5
4 34 -13 65 -37 32 -25 80 -57 106 -73 47 -27 49 -27 68 -10 34 31 21 69 -31
88 -8 3 -33 17 -55 31 -22 14 -65 37 -95 53 l-55 28 0 119 0 120 -35 0 -35 0
-5 -122 c-3 -67 -7 -124 -10 -126 -3 -3 -45 -26 -95 -52 -49 -26 -99 -56 -111
-66 -27 -25 -41 -24 -83 4 -20 13 -70 43 -111 67 -136 78 -125 61 -121 185 2
82 0 110 -11 116 -7 5 -15 8 -18 8 -3 -1 -13 -3 -22 -6z"/>
</g>
</svg>
