<?xml version="1.0" standalone="no"?>
<!DOCTYPE svg PUBLIC "-//W3C//DTD SVG 20010904//EN"
 "http://www.w3.org/TR/2001/REC-SVG-20010904/DTD/svg10.dtd">
<svg version="1.0" xmlns="http://www.w3.org/2000/svg"
 width="422.000000pt" height="590.000000pt" viewBox="0 0 422.000000 590.000000"
 preserveAspectRatio="xMidYMid meet">
<metadata>
Created by potrace 1.16, written by Peter Selinger 2001-2019
</metadata>
<g transform="translate(0.000000,590.000000) scale(0.500000,-0.500000)"
fill="#000000" stroke="none">
<path d="M42 1136 c-23 -23 1 -58 40 -58 39 0 27 13 109 -124 40 -65 76 -126
81 -134 35 -57 42 -69 46 -79 2 -6 6 -13 9 -15 7 -7 22 -31 25 -41 1 -4 6 -13
11 -20 l8 -12 1 -98 c1 -70 2 -100 4 -104 2 -6 4 -79 1 -83 -5 -7 -32 7 -53
27 -8 8 -18 16 -22 18 -4 2 -15 11 -24 20 -10 9 -19 17 -20 17 -1 0 -10 8 -20
17 -9 9 -20 18 -24 20 -4 2 -14 11 -23 19 -22 21 -34 22 -57 2 -24 -19 -5 -59
36 -80 5 -3 15 -10 22 -17 7 -7 18 -15 23 -18 6 -3 16 -10 23 -17 7 -7 16 -14
21 -16 4 -3 14 -10 21 -17 7 -7 18 -15 23 -18 6 -2 13 -8 17 -12 8 -8 16 -13
22 -13 3 0 8 -3 12 -8 4 -4 9 -9 12 -11 11 -6 11 -4 7 -115 -4 -128 -6 -122
33 -122 37 0 35 -8 33 120 l-1 103 10 9 c6 6 15 12 19 14 4 3 11 7 15 10 4 3
10 7 13 8 3 2 9 5 13 8 4 3 11 7 15 10 5 2 10 5 11 7 2 2 11 8 21 12 10 5 21
12 25 15 4 3 10 7 13 8 3 1 9 5 14 9 4 4 11 8 15 10 4 2 11 6 16 10 19 12 23
15 34 21 6 3 12 7 14 9 1 2 6 5 10 7 22 11 20 27 -7 51 -17 16 -31 17 -49 2
-6 -5 -12 -9 -12 -9 -1 0 -6 -3 -11 -8 -6 -4 -14 -9 -18 -12 -4 -2 -11 -7 -14
-9 -7 -6 -24 -18 -32 -23 -3 -1 -10 -6 -15 -10 -5 -4 -16 -11 -25 -16 -9 -5
-18 -11 -22 -14 -3 -3 -9 -7 -13 -9 -4 -2 -10 -6 -13 -9 -27 -25 -31 -15 -27
62 1 24 3 76 3 116 2 99 2 99 30 136 3 5 10 16 15 25 4 9 11 20 15 24 3 5 8
11 9 14 4 6 12 18 24 34 3 4 9 15 14 23 4 9 11 20 15 25 4 5 7 10 7 11 0 1 4
6 8 11 4 6 8 11 8 12 0 1 3 7 8 12 4 6 11 17 15 25 4 8 10 18 14 23 6 9 14 22
23 36 3 5 7 11 10 15 4 3 9 13 13 22 4 8 11 19 14 23 4 4 7 9 7 10 0 1 4 7 8
13 7 8 9 13 10 22 2 16 3 16 41 16 43 0 64 28 44 57 -4 7 -745 7 -751 1z m586
-60 c6 -3 7 -11 2 -18 -2 -3 -8 -13 -14 -23 -5 -10 -12 -20 -14 -22 -3 -2 -7
-8 -9 -13 -3 -5 -6 -10 -8 -12 -2 -1 -6 -7 -8 -12 -3 -5 -8 -12 -11 -16 -4 -3
-9 -13 -13 -21 -4 -8 -10 -18 -14 -22 -5 -7 -13 -19 -22 -34 -2 -3 -7 -10 -11
-15 -4 -5 -11 -17 -15 -26 -5 -9 -12 -20 -15 -24 -3 -4 -6 -8 -6 -9 0 -1 -4
-7 -9 -14 -5 -7 -9 -13 -9 -14 0 -1 -3 -6 -7 -10 -3 -4 -10 -15 -15 -24 -12
-25 -18 -26 -28 -6 -4 6 -9 15 -11 18 -3 3 -11 17 -17 30 -7 13 -15 27 -17 30
-3 3 -9 13 -13 22 -5 9 -11 20 -15 24 -4 4 -12 18 -18 31 -6 13 -14 27 -18 31
-4 4 -8 10 -9 13 -3 8 -12 23 -18 30 -3 4 -11 18 -18 31 -7 13 -15 27 -18 30
-3 3 -7 10 -8 16 -1 5 -5 12 -8 16 -7 9 -7 13 0 15 9 2 410 0 414 -2z"/>
</g>
</svg>
