<?xml version="1.0" standalone="no"?>
<!DOCTYPE svg PUBLIC "-//W3C//DTD SVG 20010904//EN"
 "http://www.w3.org/TR/2001/REC-SVG-20010904/DTD/svg10.dtd">
<svg version="1.0" xmlns="http://www.w3.org/2000/svg"
 width="106.000000pt" height="148.000000pt" viewBox="0 0 106.000000 148.000000"
 preserveAspectRatio="xMidYMid meet">
<metadata>
Created by potrace 1.16, written by Peter Selinger 2001-2019
</metadata>
<g transform="translate(0.000000,148.000000) scale(0.100000,-0.100000)"
fill="#000000" stroke="none">
<path d="M48 1413 c-6 -7 -7 -24 -4 -38 6 -22 11 -25 54 -25 l48 0 134 -225
c202 -336 182 -287 187 -455 2 -80 4 -161 6 -180 3 -45 -18 -49 -58 -12 -16
15 -70 61 -119 101 -87 72 -90 74 -115 60 -49 -28 -35 -51 89 -150 63 -50 135
-102 159 -117 l44 -25 -5 -139 c-6 -151 -2 -162 49 -156 l28 3 -3 135 c-2 74
1 140 5 145 4 6 83 58 176 115 92 58 167 108 167 111 0 14 -43 59 -56 59 -8 0
-38 -17 -67 -38 -42 -32 -135 -94 -215 -145 -10 -7 -11 30 -5 180 l6 188 45
70 c25 38 64 99 87 135 135 207 195 307 195 323 0 14 9 17 49 17 53 0 75 15
69 50 l-3 22 -468 1 c-362 2 -471 -1 -479 -10z m745 -72 c4 -4 -39 -77 -95
-162 -57 -84 -119 -182 -138 -216 -19 -34 -39 -61 -45 -59 -5 1 -21 22 -34 47
-13 24 -71 122 -127 218 -57 95 -102 176 -100 180 6 9 529 1 539 -8z"/>
</g>
</svg>
