<?xml version="1.0" standalone="no"?>
<!DOCTYPE svg PUBLIC "-//W3C//DTD SVG 20010904//EN"
 "http://www.w3.org/TR/2001/REC-SVG-20010904/DTD/svg10.dtd">
<svg version="1.0" xmlns="http://www.w3.org/2000/svg"
 width="72.000000pt" height="100.000000pt" viewBox="0 0 72.000000 100.000000"
 preserveAspectRatio="xMidYMid meet">
<metadata>
Created by potrace 1.16, written by Peter Selinger 2001-2019
</metadata>
<g transform="translate(0.000000,100.000000) scale(0.100000,-0.100000)"
fill="#000000" stroke="none">
<path d="M34 961 c-2 -2 -4 -15 -4 -28 0 -20 5 -23 35 -23 34 0 36 -2 137
-172 100 -167 103 -175 110 -248 10 -113 9 -180 -2 -180 -6 0 -45 30 -86 66
-80 69 -116 80 -122 37 -3 -18 17 -38 107 -104 l110 -82 -6 -93 c-5 -84 -4
-94 12 -100 38 -15 50 8 50 97 0 46 3 89 8 96 4 6 42 33 85 58 124 76 144 93
132 116 -17 31 -51 21 -135 -41 -43 -32 -83 -56 -88 -53 -5 3 -6 55 -2 122 l7
116 92 145 c51 80 103 162 115 183 19 31 28 37 57 37 33 0 35 2 32 28 l-3 27
-318 0 c-175 0 -320 -2 -323 -4z m496 -63 c0 -12 -130 -220 -165 -263 -13 -17
-17 -18 -26 -5 -27 40 -159 266 -159 273 0 4 79 7 175 7 133 0 175 -3 175 -12z"/>
</g>
</svg>
