<?xml version="1.0" standalone="no"?>
<!DOCTYPE svg PUBLIC "-//W3C//DTD SVG 20010904//EN"
 "http://www.w3.org/TR/2001/REC-SVG-20010904/DTD/svg10.dtd">
<svg version="1.0" xmlns="http://www.w3.org/2000/svg"
 width="258.000000pt" height="590.000000pt" viewBox="0 0 258.000000 590.000000"
 preserveAspectRatio="xMidYMid meet">
<metadata>
Created by potrace 1.16, written by Peter Selinger 2001-2019
</metadata>
<g transform="translate(0.000000,590.000000) scale(0.500000,-0.500000)"
fill="#000000" stroke="none">
<path d="M236 1162 c-13 -6 -13 -4 -11 -105 1 -104 3 -95 -19 -107 -5 -3 -14
-9 -21 -13 -6 -4 -13 -7 -14 -7 -1 0 -4 -2 -8 -5 -3 -2 -11 -7 -18 -11 -7 -3
-18 -10 -26 -15 -28 -16 -34 -20 -48 -28 -8 -4 -18 -10 -24 -14 -5 -3 -15 -8
-21 -12 -15 -8 -21 -38 -10 -49 10 -10 52 -5 73 9 6 3 17 11 26 16 8 6 22 14
30 19 8 5 18 12 23 15 5 3 18 11 30 18 22 14 29 15 32 9 5 -9 0 -312 -5 -320
-5 -8 -19 -37 -19 -40 0 -2 -5 -13 -11 -25 -6 -12 -15 -34 -19 -47 -5 -14 -10
-28 -12 -32 -2 -4 -7 -17 -11 -29 -4 -12 -10 -28 -13 -36 -6 -14 -13 -34 -35
-96 -6 -17 -12 -33 -14 -36 -1 -3 -7 -19 -12 -34 -5 -15 -11 -31 -12 -34 -26
-49 -32 -105 -13 -115 27 -14 40 -3 57 46 20 59 32 93 35 98 1 2 6 17 11 31 5
15 11 31 13 35 2 4 6 14 9 23 2 9 7 22 10 29 13 34 16 42 20 56 3 9 6 18 8 22
2 3 8 19 13 35 5 15 12 33 14 39 3 6 6 16 9 21 9 23 21 19 21 -7 0 -7 2 -15 5
-23 3 -7 9 -24 14 -38 5 -15 10 -29 11 -31 2 -3 7 -18 13 -35 6 -16 14 -40 19
-53 5 -13 9 -26 10 -30 2 -4 4 -11 7 -16 2 -5 7 -17 10 -26 3 -9 8 -25 12 -34
7 -18 19 -51 37 -104 14 -41 20 -48 40 -48 36 0 37 41 3 120 -5 11 -18 48 -36
99 -6 17 -11 32 -13 34 -1 3 -6 17 -11 32 -5 16 -11 31 -13 35 -2 4 -7 17 -11
30 -4 13 -9 27 -12 31 -2 4 -6 16 -9 25 -12 34 -14 39 -24 59 -5 11 -10 21
-10 23 0 2 -7 17 -17 39 -10 22 -13 323 -3 323 4 0 36 -20 77 -49 48 -35 49
-35 63 -37 55 -8 67 31 18 62 -11 7 -32 21 -48 31 -15 10 -30 20 -34 22 -4 2
-12 8 -19 12 -7 4 -15 10 -19 12 -48 30 -43 14 -42 130 0 82 0 97 -3 100 -4 6
-40 7 -53 1z"/>
<path d="M242 216 c-4 -4 -8 -168 -4 -178 4 -11 43 -15 54 -6 7 5 7 179 0 185
-7 5 -44 5 -50 -1z"/>
</g>
</svg>
