<?xml version="1.0" standalone="no"?>
<!DOCTYPE svg PUBLIC "-//W3C//DTD SVG 20010904//EN"
 "http://www.w3.org/TR/2001/REC-SVG-20010904/DTD/svg10.dtd">
<svg version="1.0" xmlns="http://www.w3.org/2000/svg"
 width="43.000000pt" height="100.000000pt" viewBox="0 0 43.000000 100.000000"
 preserveAspectRatio="xMidYMid meet">
<metadata>
Created by potrace 1.16, written by Peter Selinger 2001-2019
</metadata>
<g transform="translate(0.000000,100.000000) scale(0.100000,-0.100000)"
fill="#000000" stroke="none">
<path d="M196 975 c-12 -12 -16 -36 -16 -93 l0 -77 -83 -46 c-58 -32 -83 -52
-85 -68 -5 -34 45 -27 104 14 27 19 55 35 61 35 10 0 13 -31 13 -124 l0 -123
-53 -134 c-61 -151 -107 -283 -107 -303 0 -20 24 -36 39 -27 7 5 41 89 76 187
34 98 66 179 71 181 5 1 36 -78 68 -178 33 -99 66 -185 73 -190 18 -15 43 -4
43 20 0 26 -72 232 -121 346 -38 88 -39 93 -39 211 0 66 3 124 6 127 4 4 23
-7 44 -23 59 -47 88 -57 107 -37 22 22 8 38 -73 83 -34 19 -67 40 -73 47 -5 7
-11 51 -13 97 -3 87 -13 104 -42 75z"/>
<path d="M194 177 c-3 -8 -4 -45 -2 -83 3 -66 4 -69 28 -69 24 0 25 4 28 60 4
78 -3 105 -29 105 -11 0 -22 -6 -25 -13z"/>
</g>
</svg>
