<?xml version="1.0" standalone="no"?>
<!DOCTYPE svg PUBLIC "-//W3C//DTD SVG 20010904//EN"
 "http://www.w3.org/TR/2001/REC-SVG-20010904/DTD/svg10.dtd">
<svg version="1.0" xmlns="http://www.w3.org/2000/svg"
 width="64.000000pt" height="148.000000pt" viewBox="0 0 64.000000 148.000000"
 preserveAspectRatio="xMidYMid meet">
<metadata>
Created by potrace 1.16, written by Peter Selinger 2001-2019
</metadata>
<g transform="translate(0.000000,148.000000) scale(0.100000,-0.100000)"
fill="#000000" stroke="none">
<path d="M286 1445 c-14 -14 -15 -33 -10 -128 8 -126 11 -118 -71 -161 -27
-14 -81 -45 -120 -69 -56 -34 -70 -47 -70 -67 0 -21 5 -26 32 -28 24 -2 52 10
126 57 51 34 99 61 104 61 7 0 10 -66 7 -204 l-4 -203 -35 -76 c-19 -42 -35
-82 -35 -91 0 -8 -4 -17 -9 -20 -5 -3 -11 -16 -14 -28 -4 -21 -33 -100 -111
-313 -39 -105 -34 -144 17 -131 23 5 24 10 159 396 22 63 46 130 54 148 14 35
34 35 34 1 0 -20 38 -138 80 -249 20 -51 66 -181 93 -259 14 -39 37 -57 61
-48 32 13 24 46 -74 312 -10 28 -34 93 -53 145 -20 52 -46 120 -60 150 -22 51
-25 71 -30 258 -4 150 -2 202 6 202 7 0 45 -25 86 -56 62 -47 79 -55 110 -52
42 3 52 27 24 53 -10 10 -65 47 -123 84 l-105 67 0 130 0 129 -26 3 c-15 2
-34 -4 -43 -13z"/>
<path d="M302 272 c-9 -6 -12 -38 -10 -123 l3 -114 33 -3 c21 -2 32 1 33 10 4
90 -4 224 -14 230 -15 10 -29 10 -45 0z"/>
</g>
</svg>
