<?xml version="1.0" standalone="no"?>
<!DOCTYPE svg PUBLIC "-//W3C//DTD SVG 20010904//EN"
 "http://www.w3.org/TR/2001/REC-SVG-20010904/DTD/svg10.dtd">
<svg version="1.0" xmlns="http://www.w3.org/2000/svg"
 width="46.000000pt" height="100.000000pt" viewBox="0 0 46.000000 100.000000"
 preserveAspectRatio="xMidYMid meet">
<metadata>
Created by potrace 1.16, written by Peter Selinger 2001-2019
</metadata>
<g transform="translate(0.000000,100.000000) scale(0.100000,-0.100000)"
fill="#000000" stroke="none">
<path d="M180 951 c-5 -11 -7 -39 -4 -64 6 -43 6 -44 -47 -88 -102 -85 -111
-96 -99 -119 6 -11 15 -20 21 -20 6 0 34 23 63 50 29 28 56 50 60 50 4 0 6
-35 4 -77 l-3 -78 -67 -3 c-82 -4 -80 1 -76 -162 3 -107 4 -115 23 -115 18 0
20 8 25 110 l5 110 49 3 49 3 -5 -88 c-4 -85 -7 -92 -75 -228 -79 -157 -87
-182 -60 -199 27 -16 46 13 108 159 29 69 57 125 63 125 6 0 42 -61 81 -136
38 -74 75 -140 82 -146 19 -16 43 -2 43 26 0 21 -117 238 -166 311 -9 12 -14
48 -14 98 l0 78 43 -3 42 -3 5 -107 c5 -110 17 -145 42 -120 15 15 23 194 11
242 l-9 35 -66 3 -65 3 -7 66 c-4 39 -3 70 3 76 6 6 28 -5 62 -32 57 -45 94
-60 111 -43 19 19 1 40 -90 101 l-89 59 5 56 c5 57 -7 86 -34 86 -7 0 -18 -9
-24 -19z"/>
</g>
</svg>
