<?xml version="1.0" standalone="no"?>
<!DOCTYPE svg PUBLIC "-//W3C//DTD SVG 20010904//EN"
 "http://www.w3.org/TR/2001/REC-SVG-20010904/DTD/svg10.dtd">
<svg version="1.0" xmlns="http://www.w3.org/2000/svg"
 width="56.000000pt" height="122.000000pt" viewBox="0 0 56.000000 122.000000"
 preserveAspectRatio="xMidYMid meet">
<metadata>
Created by potrace 1.16, written by Peter Selinger 2001-2019
</metadata>
<g transform="translate(0.000000,122.000000) scale(0.100000,-0.100000)"
fill="#000000" stroke="none">
<path d="M214 1155 c-4 -9 -4 -42 0 -74 l7 -58 -68 -60 c-37 -33 -80 -68 -95
-78 -30 -18 -36 -43 -16 -63 20 -20 31 -15 98 48 36 33 68 60 73 60 4 0 6 -44
5 -97 l-3 -98 -85 -5 -85 -5 0 -165 0 -165 25 0 25 0 0 140 0 139 60 1 60 0 3
-103 c3 -100 2 -104 -32 -170 -84 -163 -157 -325 -154 -340 4 -19 36 -27 55
-14 7 4 46 84 87 177 40 94 79 170 86 170 6 0 51 -76 100 -170 48 -93 94 -174
102 -179 9 -5 23 -6 33 -2 31 12 15 52 -120 291 -58 105 -77 135 -86 140 -12
8 -12 192 0 200 5 3 35 2 65 -1 l55 -7 3 -141 c3 -133 4 -141 23 -141 19 0 20
8 23 173 l2 172 -85 0 c-62 0 -87 4 -91 13 -3 8 -4 53 -2 102 l3 88 50 -40
c97 -77 133 -97 150 -83 30 25 13 46 -90 119 -58 40 -106 78 -107 85 -1 6 -2
43 -2 81 l-1 70 -33 3 c-22 2 -34 -2 -38 -13z"/>
</g>
</svg>
