<?xml version="1.0" standalone="no"?>
<!DOCTYPE svg PUBLIC "-//W3C//DTD SVG 20010904//EN"
 "http://www.w3.org/TR/2001/REC-SVG-20010904/DTD/svg10.dtd">
<svg version="1.0" xmlns="http://www.w3.org/2000/svg"
 width="78.000000pt" height="148.000000pt" viewBox="0 0 78.000000 148.000000"
 preserveAspectRatio="xMidYMid meet">
<metadata>
Created by potrace 1.16, written by Peter Selinger 2001-2019
</metadata>
<g transform="translate(0.000000,148.000000) scale(0.100000,-0.100000)"
fill="#000000" stroke="none">
<path d="M321 1406 c-9 -11 -11 -41 -6 -114 l7 -100 -58 -36 c-33 -19 -94 -56
-136 -82 -95 -57 -113 -76 -99 -101 23 -44 37 -47 83 -15 94 65 189 122 205
122 14 0 15 -21 11 -207 -6 -198 -7 -211 -34 -278 -15 -38 -38 -89 -51 -111
-12 -23 -31 -64 -42 -90 -10 -27 -46 -106 -80 -177 -34 -70 -61 -131 -61 -137
0 -17 59 -42 76 -32 9 5 35 58 59 118 23 60 53 134 67 164 14 30 38 88 53 128
16 39 33 72 39 72 6 0 37 -51 68 -112 32 -62 73 -142 91 -178 19 -36 49 -96
67 -133 30 -64 34 -68 58 -62 57 14 63 33 28 85 -12 19 -65 116 -116 215 -51
99 -105 203 -120 230 -28 50 -28 50 -32 279 -2 159 0 230 8 233 6 2 64 -24
129 -57 65 -33 131 -60 147 -60 15 0 28 1 29 3 0 1 3 92 5 202 5 181 4 201
-12 212 -23 17 -29 16 -49 -3 -14 -14 -15 -35 -9 -159 5 -108 4 -144 -6 -150
-10 -6 -104 31 -220 89 -25 12 -25 14 -25 131 l0 120 -31 3 c-18 2 -36 -3 -43
-12z"/>
</g>
</svg>
