<?xml version="1.0" standalone="no"?>
<!DOCTYPE svg PUBLIC "-//W3C//DTD SVG 20010904//EN"
 "http://www.w3.org/TR/2001/REC-SVG-20010904/DTD/svg10.dtd">
<svg version="1.0" xmlns="http://www.w3.org/2000/svg"
 width="312.000000pt" height="590.000000pt" viewBox="0 0 312.000000 590.000000"
 preserveAspectRatio="xMidYMid meet">
<metadata>
Created by potrace 1.16, written by Peter Selinger 2001-2019
</metadata>
<g transform="translate(0.000000,590.000000) scale(0.500000,-0.500000)"
fill="#000000" stroke="none">
<path d="M280 1135 c-18 -4 -30 -14 -30 -25 0 -11 4 -78 6 -91 8 -57 -1 -71
-58 -97 -7 -4 -17 -11 -23 -16 -17 -15 -81 -55 -102 -64 -12 -5 -31 -19 -49
-36 -9 -8 -8 -15 5 -35 17 -27 24 -29 44 -16 16 11 67 42 82 50 8 4 22 13 32
20 83 54 76 64 74 -98 -1 -176 -3 -196 -17 -230 -4 -10 -12 -29 -17 -42 -11
-28 -28 -61 -39 -79 -4 -6 -11 -21 -15 -33 -4 -12 -12 -31 -18 -44 -40 -84
-83 -176 -93 -195 -19 -38 -18 -42 14 -60 33 -18 52 -6 65 40 3 10 8 23 11 28
3 5 8 15 10 23 2 8 6 19 8 24 2 6 9 23 14 38 6 15 12 31 15 35 3 3 7 11 9 17
2 5 7 15 10 21 3 6 7 16 9 21 7 23 49 119 54 125 5 5 8 5 12 0 4 -4 6 -7 41
-74 11 -21 22 -42 24 -45 6 -11 57 -107 70 -132 6 -14 13 -30 15 -37 2 -8 7
-17 13 -25 8 -12 16 -28 20 -44 8 -28 36 -32 66 -10 19 15 19 17 -18 83 -16
29 -35 65 -43 80 -7 15 -16 32 -20 38 -4 6 -12 19 -17 29 -5 10 -11 21 -13 24
-2 3 -6 13 -9 22 -3 9 -9 20 -14 26 -4 5 -11 17 -14 26 -9 20 -27 58 -32 65
-33 46 -33 49 -36 184 -1 62 -3 137 -4 167 -3 69 -2 75 10 75 6 0 80 -35 107
-50 7 -3 18 -9 25 -11 6 -3 24 -11 38 -18 39 -20 62 -21 70 -3 5 9 8 306 4
315 -5 10 -23 16 -36 13 -23 -6 -26 -18 -24 -88 8 -187 11 -180 -72 -141 -28
14 -63 30 -79 36 -49 21 -46 15 -43 93 6 121 3 131 -42 121z"/>
</g>
</svg>
