<?xml version="1.0" standalone="no"?>
<!DOCTYPE svg PUBLIC "-//W3C//DTD SVG 20010904//EN"
 "http://www.w3.org/TR/2001/REC-SVG-20010904/DTD/svg10.dtd">
<svg version="1.0" xmlns="http://www.w3.org/2000/svg"
 width="53.000000pt" height="100.000000pt" viewBox="0 0 53.000000 100.000000"
 preserveAspectRatio="xMidYMid meet">
<metadata>
Created by potrace 1.16, written by Peter Selinger 2001-2019
</metadata>
<g transform="translate(0.000000,100.000000) scale(0.100000,-0.100000)"
fill="#000000" stroke="none">
<path d="M226 958 c-15 -8 -17 -21 -14 -81 l3 -70 -97 -59 c-81 -49 -98 -64
-98 -84 0 -41 24 -38 105 15 43 28 82 51 87 51 7 0 9 -55 6 -147 l-3 -148 -89
-187 c-50 -106 -86 -194 -83 -202 8 -19 52 -21 64 -3 4 6 18 37 29 67 58 147
98 240 106 240 4 0 44 -72 88 -160 72 -143 83 -160 105 -160 34 0 43 26 21 64
-10 17 -54 99 -98 181 l-81 150 -5 146 c-3 95 -1 148 6 153 5 3 49 -13 96 -35
47 -23 92 -39 101 -35 22 8 22 284 0 292 -8 4 -22 0 -31 -7 -13 -10 -15 -31
-12 -108 3 -93 2 -96 -19 -94 -11 1 -47 15 -80 31 l-58 28 3 76 c2 66 0 78
-15 87 -12 6 -25 6 -37 -1z"/>
</g>
</svg>
