<?xml version="1.0" standalone="no"?>
<!DOCTYPE svg PUBLIC "-//W3C//DTD SVG 20010904//EN"
 "http://www.w3.org/TR/2001/REC-SVG-20010904/DTD/svg10.dtd">
<svg version="1.0" xmlns="http://www.w3.org/2000/svg"
 width="70.000000pt" height="148.000000pt" viewBox="0 0 70.000000 148.000000"
 preserveAspectRatio="xMidYMid meet">
<metadata>
Created by potrace 1.16, written by Peter Selinger 2001-2019
</metadata>
<g transform="translate(0.000000,148.000000) scale(0.100000,-0.100000)"
fill="#000000" stroke="none">
<path d="M298 1418 c-18 -18 -19 -29 -14 -114 6 -109 -2 -140 -41 -154 -16 -6
-35 -14 -43 -20 -8 -5 -42 -24 -75 -41 -33 -17 -68 -38 -77 -47 -32 -27 -18
-92 20 -92 7 0 30 13 50 29 43 33 159 97 165 91 2 -3 -1 -108 -5 -235 -9 -223
-10 -233 -39 -310 -17 -44 -35 -84 -39 -90 -4 -5 -10 -23 -14 -40 -4 -16 -18
-52 -31 -80 -41 -88 -93 -209 -99 -231 -9 -29 19 -56 52 -52 29 3 35 12 82
138 18 47 43 108 55 135 13 28 34 84 46 125 26 90 33 99 52 69 36 -60 185
-336 191 -356 4 -11 13 -27 21 -33 8 -7 15 -21 15 -31 0 -11 11 -24 25 -31 21
-9 28 -8 45 7 28 25 25 42 -18 121 -21 39 -46 90 -56 114 -10 25 -36 74 -59
110 -22 36 -52 88 -65 115 -13 28 -37 71 -53 96 l-29 45 2 165 c1 90 -2 187
-6 215 -7 49 3 79 19 55 10 -17 204 -141 220 -141 8 0 21 13 30 30 14 27 14
32 -1 55 -9 14 -24 25 -34 25 -9 0 -29 9 -43 20 -14 11 -28 20 -32 20 -3 0
-21 11 -39 25 -18 14 -42 25 -53 25 -10 0 -29 10 -42 21 -21 20 -22 27 -16 93
4 39 9 73 11 75 3 4 36 -9 161 -65 61 -26 63 -27 83 -9 28 25 25 52 -7 69 -45
22 -153 63 -226 84 l-68 21 -21 -21z"/>
</g>
</svg>
