<?xml version="1.0" standalone="no"?>
<!DOCTYPE svg PUBLIC "-//W3C//DTD SVG 20010904//EN"
 "http://www.w3.org/TR/2001/REC-SVG-20010904/DTD/svg10.dtd">
<svg version="1.0" xmlns="http://www.w3.org/2000/svg"
 width="266.000000pt" height="560.000000pt" viewBox="0 0 266.000000 560.000000"
 preserveAspectRatio="xMidYMid meet">
<metadata>
Created by potrace 1.16, written by Peter Selinger 2001-2019
</metadata>
<g transform="translate(0.000000,560.000000) scale(0.500000,-0.500000)"
fill="#000000" stroke="none">
<path d="M242 1087 c-25 -10 -25 -9 -25 -104 0 -97 -1 -101 -34 -110 -19 -6
-33 -13 -40 -20 -4 -5 -11 -9 -23 -14 -9 -4 -22 -10 -30 -14 -7 -4 -20 -11
-29 -16 -31 -16 -38 -26 -37 -54 2 -36 30 -45 58 -18 9 9 15 13 20 14 5 1 12
5 17 9 6 5 19 12 29 18 10 5 29 14 41 21 29 15 36 -57 20 -215 -1 -14 -2 -44
-1 -68 0 -47 -2 -59 -20 -98 -3 -7 -7 -18 -9 -24 -4 -17 -17 -47 -25 -62 -5
-8 -10 -22 -15 -39 -7 -26 -11 -34 -25 -58 -4 -8 -10 -19 -11 -25 -4 -13 -31
-77 -39 -91 -31 -55 -22 -94 19 -94 28 0 31 4 48 63 5 17 9 28 14 35 5 7 11
21 19 48 16 50 15 48 24 58 5 6 9 14 11 22 2 6 6 16 8 21 3 5 7 16 9 24 32
109 35 110 71 35 8 -16 40 -72 54 -93 12 -20 14 -23 26 -48 4 -10 14 -29 22
-42 7 -12 15 -27 17 -33 6 -15 11 -23 19 -33 4 -4 9 -14 11 -21 10 -30 38 -39
56 -18 15 18 18 31 10 46 -3 4 -13 24 -23 44 -10 20 -22 41 -25 45 -3 5 -7 13
-9 19 -2 5 -6 14 -8 19 -2 5 -6 14 -8 20 -6 20 -25 52 -39 67 -3 3 -8 12 -11
18 -2 7 -10 22 -17 32 -8 11 -15 25 -18 31 -11 27 -35 72 -45 85 -18 24 -18
22 -17 82 0 29 -1 60 -2 69 -2 12 -2 22 0 37 2 17 2 32 -1 90 -4 73 -3 77 2
77 3 0 54 -33 83 -53 82 -58 101 -62 116 -23 11 27 0 48 -28 56 -9 3 -19 8
-32 17 -11 7 -23 14 -28 15 -6 2 -12 6 -21 14 -15 14 -24 19 -44 24 -45 13
-48 19 -45 86 3 65 -5 63 99 19 37 -16 63 -26 69 -26 40 -5 53 47 15 64 -54
23 -138 53 -169 61 -9 2 -20 5 -25 7 -7 3 -23 4 -29 2z"/>
</g>
</svg>
