<?xml version="1.0" standalone="no"?>
<!DOCTYPE svg PUBLIC "-//W3C//DTD SVG 20010904//EN"
 "http://www.w3.org/TR/2001/REC-SVG-20010904/DTD/svg10.dtd">
<svg version="1.0" xmlns="http://www.w3.org/2000/svg"
 width="47.000000pt" height="100.000000pt" viewBox="0 0 47.000000 100.000000"
 preserveAspectRatio="xMidYMid meet">
<metadata>
Created by potrace 1.16, written by Peter Selinger 2001-2019
</metadata>
<g transform="translate(0.000000,100.000000) scale(0.100000,-0.100000)"
fill="#000000" stroke="none">
<path d="M197 963 c-4 -3 -7 -40 -7 -82 0 -42 -4 -81 -8 -88 -4 -6 -29 -21
-56 -33 -73 -31 -106 -58 -106 -86 0 -40 26 -39 91 5 34 23 66 41 71 41 6 0 7
-58 3 -162 l-8 -163 -69 -162 c-73 -170 -80 -208 -39 -208 13 0 27 7 32 15 16
31 88 218 99 258 6 24 16 42 22 40 5 -2 46 -72 90 -156 69 -130 84 -152 104
-152 52 0 23 80 -111 310 l-55 94 0 87 c0 47 -3 114 -6 148 -5 43 -3 61 5 61
6 0 39 -20 74 -45 65 -48 83 -52 101 -23 17 28 -2 47 -92 92 l-82 41 0 47 c0
26 4 49 9 52 5 4 38 -7 73 -24 74 -35 84 -36 97 -12 17 33 -15 55 -133 91 -73
22 -89 25 -99 14z"/>
</g>
</svg>
