<?xml version="1.0" standalone="no"?>
<!DOCTYPE svg PUBLIC "-//W3C//DTD SVG 20010904//EN"
 "http://www.w3.org/TR/2001/REC-SVG-20010904/DTD/svg10.dtd">
<svg version="1.0" xmlns="http://www.w3.org/2000/svg"
 width="106.000000pt" height="140.000000pt" viewBox="0 0 106.000000 140.000000"
 preserveAspectRatio="xMidYMid meet">
<metadata>
Created by potrace 1.16, written by Peter Selinger 2001-2019
</metadata>
<g transform="translate(0.000000,140.000000) scale(0.100000,-0.100000)"
fill="#000000" stroke="none">
<path d="M77 1334 c-4 -4 -7 -295 -7 -646 l0 -639 43 3 42 3 0 640 0 640 -35
3 c-20 2 -39 0 -43 -4z"/>
<path d="M474 1245 l6 -95 -42 -30 c-24 -17 -67 -48 -96 -68 -30 -20 -70 -51
-90 -68 -35 -31 -36 -33 -22 -59 27 -50 26 -51 203 89 32 25 40 28 47 16 5 -8
8 -116 7 -240 l-2 -225 -63 -165 c-35 -91 -75 -196 -89 -235 -14 -38 -29 -74
-34 -80 -22 -23 -8 -35 41 -35 47 0 50 1 59 33 32 109 140 402 150 405 6 2 20
-18 31 -45 11 -26 55 -125 98 -220 l77 -172 43 -1 c27 0 42 4 42 13 0 14 -160
366 -240 527 -25 52 -27 66 -33 230 -3 96 -9 183 -12 193 -10 26 27 22 62 -6
48 -40 160 -117 170 -117 5 0 17 14 27 30 23 40 21 41 -118 136 -61 42 -117
83 -123 92 -8 10 -13 49 -13 104 l0 88 -46 0 -47 0 7 -95z"/>
<path d="M893 698 l2 -643 43 -3 42 -3 0 645 0 646 -45 0 -44 0 2 -642z"/>
</g>
</svg>
