<?xml version="1.0" standalone="no"?>
<!DOCTYPE svg PUBLIC "-//W3C//DTD SVG 20010904//EN"
 "http://www.w3.org/TR/2001/REC-SVG-20010904/DTD/svg10.dtd">
<svg version="1.0" xmlns="http://www.w3.org/2000/svg"
 width="426.000000pt" height="556.000000pt" viewBox="0 0 426.000000 556.000000"
 preserveAspectRatio="xMidYMid meet">
<metadata>
Created by potrace 1.16, written by Peter Selinger 2001-2019
</metadata>
<g transform="translate(0.000000,556.000000) scale(0.500000,-0.500000)"
fill="#000000" stroke="none">
<path d="M69 1067 c-12 -5 -12 -3 -11 -109 1 -53 1 -280 0 -503 -1 -453 -2
-411 13 -414 13 -3 53 0 56 3 6 6 5 1015 -1 1021 -5 5 -47 7 -57 2z"/>
<path d="M386 1068 c-7 -4 -7 -3 -3 -108 2 -44 2 -44 -17 -58 -9 -6 -23 -16
-32 -23 -9 -7 -20 -14 -25 -17 -4 -2 -12 -8 -17 -13 -12 -10 -32 -24 -53 -36
-10 -5 -22 -14 -30 -21 -6 -7 -16 -16 -22 -21 -13 -10 -12 -18 8 -44 20 -27
18 -28 141 67 37 29 43 32 51 25 8 -9 10 -348 1 -367 -3 -7 -7 -18 -10 -25
-13 -41 -42 -116 -47 -124 -2 -2 -5 -12 -7 -21 -2 -9 -6 -20 -8 -24 -2 -4 -5
-12 -6 -17 -2 -9 -12 -31 -24 -52 -2 -4 -4 -9 -4 -11 0 -2 -2 -10 -5 -17 -3
-8 -7 -21 -9 -31 -2 -9 -6 -20 -9 -26 -2 -5 -6 -13 -7 -17 -1 -4 -5 -12 -7
-17 -12 -25 -7 -30 32 -30 38 0 42 3 53 40 2 7 7 23 12 36 16 44 20 55 24 68
2 7 6 18 8 23 3 6 6 17 9 25 2 8 6 17 7 20 1 3 5 12 7 20 7 24 18 54 23 64 2
5 4 11 4 13 0 6 15 37 19 38 6 3 11 -5 29 -45 11 -24 17 -38 25 -54 4 -7 7
-15 8 -18 2 -5 5 -12 27 -59 7 -16 18 -40 24 -53 6 -13 15 -33 21 -45 6 -12
12 -25 13 -29 2 -4 5 -11 7 -15 3 -4 6 -11 7 -16 4 -11 11 -14 42 -13 44 2 44
3 6 82 -14 30 -28 59 -30 64 -2 5 -9 19 -15 31 -5 12 -12 25 -13 29 -1 4 -10
23 -20 42 -16 34 -25 54 -34 76 -7 16 -9 22 -18 36 -4 7 -10 19 -12 26 -3 7
-6 17 -9 21 -2 4 -6 12 -8 17 -1 5 -8 16 -14 25 -14 21 -13 15 -14 84 -1 34
-2 72 -3 84 -1 12 -2 38 -3 58 -1 20 -2 47 -3 61 -4 57 -3 57 115 -27 69 -48
64 -48 88 -12 20 30 25 25 -97 108 -119 81 -107 64 -107 151 0 61 0 66 -4 69
-4 5 -57 7 -65 3z"/>
<path d="M722 1066 c-5 -4 -5 -4 -5 -40 3 -990 3 -977 7 -981 5 -5 58 -6 63
-1 2 3 6 996 3 1019 -1 8 -59 11 -68 3z"/>
</g>
</svg>
