<?xml version="1.0" standalone="no"?>
<!DOCTYPE svg PUBLIC "-//W3C//DTD SVG 20010904//EN"
 "http://www.w3.org/TR/2001/REC-SVG-20010904/DTD/svg10.dtd">
<svg version="1.0" xmlns="http://www.w3.org/2000/svg"
 width="76.000000pt" height="100.000000pt" viewBox="0 0 76.000000 100.000000"
 preserveAspectRatio="xMidYMid meet">
<metadata>
Created by potrace 1.16, written by Peter Selinger 2001-2019
</metadata>
<g transform="translate(0.000000,100.000000) scale(0.100000,-0.100000)"
fill="#000000" stroke="none">
<path d="M347 955 c-11 -11 -14 -30 -11 -72 3 -32 1 -62 -3 -68 -4 -5 -41 -32
-81 -59 -76 -51 -96 -74 -86 -100 11 -28 41 -17 100 34 32 28 62 49 68 47 7
-2 12 -60 14 -158 l2 -154 -66 -175 c-36 -96 -67 -184 -68 -195 -1 -16 6 -21
30 -23 l32 -3 52 156 c38 115 56 155 67 153 8 -2 41 -65 75 -148 33 -80 66
-148 72 -152 19 -13 46 -9 53 8 3 9 -33 98 -85 212 -88 191 -91 200 -97 287
-3 50 -8 111 -11 138 -8 62 8 62 87 1 65 -50 92 -53 97 -12 3 23 -7 33 -82 83
-47 31 -89 61 -92 67 -4 6 -6 37 -5 69 1 48 -2 60 -18 69 -25 13 -27 13 -44
-5z"/>
<path d="M658 962 c-17 -3 -18 -33 -18 -452 0 -247 3 -455 6 -464 3 -9 16 -16
29 -16 21 0 22 3 28 152 14 313 4 774 -17 781 -6 2 -19 2 -28 -1z"/>
<path d="M55 948 c-3 -7 -4 -215 -3 -463 l3 -450 26 -3 27 -3 4 233 c2 128 2
338 -1 466 l-3 232 -24 0 c-14 0 -27 -6 -29 -12z"/>
</g>
</svg>
