<?xml version="1.0" standalone="no"?>
<!DOCTYPE svg PUBLIC "-//W3C//DTD SVG 20010904//EN"
 "http://www.w3.org/TR/2001/REC-SVG-20010904/DTD/svg10.dtd">
<svg version="1.0" xmlns="http://www.w3.org/2000/svg"
 width="286.000000pt" height="590.000000pt" viewBox="0 0 286.000000 590.000000"
 preserveAspectRatio="xMidYMid meet">
<metadata>
Created by potrace 1.16, written by Peter Selinger 2001-2019
</metadata>
<g transform="translate(0.000000,590.000000) scale(0.500000,-0.500000)"
fill="#000000" stroke="none">
<path d="M270 1144 c-11 -5 -13 -16 -12 -76 l0 -54 -13 -13 c-16 -15 -21 -18
-80 -58 -14 -10 -28 -20 -32 -23 -8 -7 -38 -26 -50 -33 -24 -12 -37 -44 -29
-75 6 -23 51 -27 74 -5 5 4 17 13 27 20 10 6 23 17 30 23 7 6 16 14 21 17 5 3
12 8 16 11 16 14 20 9 20 -26 0 -22 1 -28 4 -36 7 -15 5 -121 -2 -133 -4 -8
-4 -9 -4 -80 0 -80 0 -78 -15 -95 -8 -9 -9 -11 -10 -22 -1 -9 -3 -14 -7 -19
-3 -4 -7 -11 -8 -16 -1 -4 -4 -13 -7 -19 -3 -6 -5 -12 -5 -14 0 -1 -3 -6 -7
-12 -4 -6 -10 -18 -14 -27 -4 -8 -11 -22 -15 -29 -4 -8 -8 -14 -8 -15 0 -1 -3
-5 -7 -9 -4 -4 -7 -10 -8 -13 -4 -20 -18 -52 -27 -66 -3 -5 -10 -18 -15 -29
-5 -11 -11 -23 -13 -26 -2 -3 -5 -9 -7 -13 -3 -10 -13 -31 -21 -45 -8 -14 -9
-71 -2 -80 12 -16 53 -6 65 15 9 18 23 47 23 49 0 1 3 7 7 13 4 5 9 17 13 25
3 8 11 23 16 33 5 11 11 24 13 29 2 6 6 15 9 20 3 5 9 18 14 28 4 10 10 22 13
26 2 4 7 14 11 23 3 9 9 21 13 27 3 6 10 21 15 33 22 49 26 47 49 -22 2 -5 7
-19 11 -31 4 -12 9 -24 10 -28 1 -4 5 -14 8 -22 4 -8 8 -19 9 -25 2 -5 4 -13
6 -16 5 -10 11 -27 11 -29 0 -2 2 -6 4 -11 5 -11 12 -28 15 -39 1 -5 7 -21 12
-35 5 -14 10 -30 12 -35 12 -39 37 -54 74 -42 12 4 17 51 7 71 -2 5 -4 13 -5
19 -1 9 -3 14 -8 21 -4 5 -8 13 -9 17 -1 4 -6 15 -10 25 -12 29 -20 49 -24 59
-1 5 -4 14 -6 19 -3 6 -7 18 -11 29 -4 10 -8 19 -9 21 -1 1 -2 5 -3 8 -1 7 -9
28 -14 36 -2 3 -3 7 -3 9 0 2 -4 12 -9 23 -5 11 -9 22 -9 24 0 2 -2 7 -4 11
-2 5 -5 15 -6 24 -1 9 -3 18 -4 19 -1 2 -2 9 -3 14 -1 11 -9 33 -15 41 -3 4
-3 11 -2 51 0 25 -1 100 -2 168 -3 158 -8 151 64 86 7 -7 20 -17 28 -24 7 -6
14 -12 14 -13 0 -14 69 -17 76 -3 3 8 3 44 -1 51 -8 16 -27 34 -43 42 -30 14
-39 27 -29 40 2 3 8 11 13 18 5 7 13 18 19 25 5 7 15 19 21 28 6 8 17 23 25
32 19 25 18 30 -9 59 -23 26 -48 21 -67 -14 -7 -13 -24 -37 -36 -53 -6 -6 -11
-14 -13 -17 -9 -16 -28 -36 -34 -35 -11 3 -19 17 -17 31 7 53 1 132 -10 139
-7 5 -50 7 -59 3z"/>
</g>
</svg>
