<?xml version="1.0" standalone="no"?>
<!DOCTYPE svg PUBLIC "-//W3C//DTD SVG 20010904//EN"
 "http://www.w3.org/TR/2001/REC-SVG-20010904/DTD/svg10.dtd">
<svg version="1.0" xmlns="http://www.w3.org/2000/svg"
 width="49.000000pt" height="100.000000pt" viewBox="0 0 49.000000 100.000000"
 preserveAspectRatio="xMidYMid meet">
<metadata>
Created by potrace 1.16, written by Peter Selinger 2001-2019
</metadata>
<g transform="translate(0.000000,100.000000) scale(0.100000,-0.100000)"
fill="#000000" stroke="none">
<path d="M220 911 l0 -61 -87 -58 c-78 -51 -88 -61 -88 -87 0 -47 39 -45 99 5
26 22 52 37 57 34 5 -3 9 -68 9 -145 l0 -139 -90 -181 c-95 -191 -108 -239
-66 -239 32 0 38 9 111 167 35 76 67 138 72 138 4 0 29 -61 55 -135 65 -186
63 -182 96 -178 19 2 28 9 30 25 2 12 -23 88 -56 170 -76 190 -80 211 -85 376
-4 158 -1 162 70 96 52 -48 86 -50 91 -7 3 23 -3 32 -32 49 -20 12 -36 27 -36
34 0 7 18 33 40 58 44 49 48 67 24 91 -26 27 -41 18 -79 -45 -51 -83 -70 -78
-70 16 l0 70 -32 3 -33 3 0 -60z"/>
</g>
</svg>
