<?xml version="1.0" standalone="no"?>
<!DOCTYPE svg PUBLIC "-//W3C//DTD SVG 20010904//EN"
 "http://www.w3.org/TR/2001/REC-SVG-20010904/DTD/svg10.dtd">
<svg version="1.0" xmlns="http://www.w3.org/2000/svg"
 width="72.000000pt" height="148.000000pt" viewBox="0 0 72.000000 148.000000"
 preserveAspectRatio="xMidYMid meet">
<metadata>
Created by potrace 1.16, written by Peter Selinger 2001-2019
</metadata>
<g transform="translate(0.000000,148.000000) scale(0.100000,-0.100000)"
fill="#000000" stroke="none">
<path d="M332 1428 c-7 -7 -12 -42 -12 -88 0 -61 -4 -80 -17 -93 -21 -18 -116
-85 -185 -129 -37 -24 -49 -38 -54 -64 -8 -41 8 -64 43 -64 25 0 67 27 136 88
67 59 68 55 59 -251 -3 -132 -8 -182 -18 -192 -8 -7 -14 -20 -14 -28 0 -12
-55 -128 -93 -197 -8 -14 -40 -78 -71 -142 -49 -101 -57 -124 -54 -165 3 -46
4 -48 33 -48 29 0 33 7 122 185 50 102 100 206 109 232 10 27 23 48 29 48 6 0
22 -30 34 -68 28 -80 109 -307 123 -342 21 -51 25 -55 68 -58 l43 -3 -6 56
c-3 31 -10 62 -15 68 -10 13 -33 69 -106 263 -25 67 -46 126 -46 132 0 6 -6
31 -14 54 -20 61 -27 478 -8 478 7 0 32 -18 55 -39 76 -71 95 -82 129 -79 29
3 33 7 36 35 4 39 -22 81 -53 89 -13 3 -31 14 -39 23 -14 16 -10 24 49 99 36
45 65 88 65 95 0 22 -46 59 -68 55 -12 -2 -42 -35 -75 -83 -30 -44 -61 -81
-70 -83 -26 -5 -36 28 -26 83 13 71 3 132 -24 139 -34 9 -52 7 -65 -6z"/>
</g>
</svg>
