<?xml version="1.0" standalone="no"?>
<!DOCTYPE svg PUBLIC "-//W3C//DTD SVG 20010904//EN"
 "http://www.w3.org/TR/2001/REC-SVG-20010904/DTD/svg10.dtd">
<svg version="1.0" xmlns="http://www.w3.org/2000/svg"
 width="54.000000pt" height="100.000000pt" viewBox="0 0 54.000000 100.000000"
 preserveAspectRatio="xMidYMid meet">
<metadata>
Created by potrace 1.16, written by Peter Selinger 2001-2019
</metadata>
<g transform="translate(0.000000,100.000000) scale(0.100000,-0.100000)"
fill="#000000" stroke="none">
<path d="M227 963 c-4 -3 -7 -40 -7 -82 l0 -76 -85 -34 c-89 -36 -121 -60
-112 -86 10 -23 41 -18 118 20 38 20 74 33 79 30 6 -4 10 -71 10 -155 l0 -150
-49 -92 c-65 -121 -121 -253 -121 -284 0 -19 5 -24 24 -24 13 0 28 6 34 13 5
6 33 73 63 147 29 74 59 142 66 150 11 12 15 10 26 -20 6 -19 35 -91 63 -160
l50 -125 35 0 c45 0 43 6 -38 175 -87 182 -94 198 -84 204 5 3 46 -19 92 -49
46 -30 86 -55 91 -55 10 0 28 35 28 54 0 10 -40 36 -109 70 l-109 55 -7 116
c-9 142 -5 150 62 107 108 -69 153 -77 153 -28 0 22 -13 32 -103 74 -60 28
-107 57 -111 68 -4 10 -4 42 0 72 5 41 3 56 -7 63 -17 10 -43 12 -52 2z"/>
</g>
</svg>
