<?xml version="1.0" standalone="no"?>
<!DOCTYPE svg PUBLIC "-//W3C//DTD SVG 20010904//EN"
 "http://www.w3.org/TR/2001/REC-SVG-20010904/DTD/svg10.dtd">
<svg version="1.0" xmlns="http://www.w3.org/2000/svg"
 width="322.000000pt" height="590.000000pt" viewBox="0 0 322.000000 590.000000"
 preserveAspectRatio="xMidYMid meet">
<metadata>
Created by potrace 1.16, written by Peter Selinger 2001-2019
</metadata>
<g transform="translate(0.000000,590.000000) scale(0.500000,-0.500000)"
fill="#000000" stroke="none">
<path d="M272 1142 c-6 -4 -6 -10 -4 -123 1 -69 2 -65 -17 -67 -9 -1 -14 -3
-20 -7 -8 -6 -45 -24 -54 -26 -3 -1 -13 -5 -22 -9 -9 -4 -26 -12 -37 -18 -12
-5 -26 -13 -30 -16 -4 -3 -12 -6 -16 -7 -9 -2 -34 -14 -37 -18 -4 -6 -4 -48 0
-52 9 -9 56 -7 76 3 8 4 18 9 22 11 4 2 11 6 16 10 4 4 15 10 23 15 13 7 20
10 36 13 3 0 15 6 27 13 29 17 35 16 35 -4 0 -6 0 -90 0 -186 -1 -197 0 -176
-17 -203 -7 -11 -26 -49 -32 -63 -2 -5 -8 -15 -14 -22 -8 -9 -12 -17 -16 -28
-3 -8 -7 -19 -9 -25 -2 -5 -6 -13 -10 -17 -3 -5 -8 -12 -9 -18 -1 -5 -4 -12
-6 -15 -2 -3 -3 -8 -3 -10 0 -2 -2 -8 -5 -14 -3 -5 -5 -11 -5 -12 0 -1 -4 -8
-8 -16 -4 -7 -8 -14 -8 -16 0 -4 -17 -38 -26 -52 -5 -8 -8 -16 -10 -24 -1 -8
-5 -18 -10 -28 -12 -22 -14 -57 -5 -66 10 -10 57 -7 67 4 9 10 22 40 22 49 0
3 1 9 3 14 2 4 4 11 5 16 1 5 5 14 9 20 4 6 8 16 9 21 1 5 3 11 5 14 1 2 4 10
6 16 3 14 10 29 19 42 3 4 6 12 7 16 1 4 3 12 6 16 2 4 6 12 7 16 3 10 11 27
18 39 3 5 7 14 7 19 1 6 4 14 9 21 4 6 8 15 9 18 6 28 29 48 29 25 0 -4 9 -26
14 -33 2 -3 6 -11 8 -18 2 -7 8 -19 12 -28 4 -8 8 -19 9 -24 0 -4 6 -18 12
-31 14 -29 18 -39 24 -58 3 -9 8 -20 12 -25 3 -5 7 -13 8 -18 1 -5 4 -14 8
-21 4 -7 8 -17 9 -24 1 -8 6 -21 14 -36 6 -14 13 -29 14 -33 4 -19 11 -22 46
-22 43 0 49 9 29 49 -5 10 -9 20 -9 22 0 3 -9 21 -16 31 -4 7 -9 19 -11 28 -2
7 -9 23 -18 35 -3 5 -7 14 -9 20 -8 24 -12 36 -16 41 -5 7 -14 26 -14 29 0 1
-1 4 -3 7 -7 15 -14 25 -17 29 -6 6 -8 12 -11 28 -2 11 -6 21 -11 30 -5 7 -9
17 -10 23 -1 7 -4 13 -8 18 -4 5 -8 13 -10 20 -4 14 -7 20 -14 26 -7 7 -8 15
-2 17 4 1 19 -6 42 -18 7 -4 20 -11 28 -15 8 -5 22 -13 31 -18 9 -5 25 -15 36
-21 11 -6 24 -15 28 -18 43 -34 72 -34 82 0 2 6 4 11 5 12 4 2 4 18 1 25 -3 7
-11 13 -50 33 -27 14 -33 17 -45 27 -6 4 -16 10 -21 12 -6 2 -15 6 -20 10 -5
3 -11 6 -12 6 -7 0 -58 25 -79 39 -5 4 -15 9 -21 13 -20 10 -18 -3 -19 155 -1
163 -3 151 20 137 8 -5 36 -20 40 -21 6 -2 31 -16 40 -23 4 -3 13 -9 21 -13 8
-4 17 -9 20 -11 3 -2 10 -5 16 -7 5 -2 15 -7 21 -11 13 -9 29 -11 55 -10 44 3
22 76 -27 89 -6 2 -15 5 -21 7 -5 2 -13 5 -17 5 -10 2 -25 10 -34 18 -4 3 -12
8 -18 10 -6 2 -13 5 -16 7 -3 2 -18 10 -34 18 -16 8 -30 16 -32 17 -2 1 -8 5
-14 8 -20 9 -19 2 -18 93 1 90 1 86 -17 94 -12 6 -47 6 -53 0z"/>
</g>
</svg>
