<?xml version="1.0" standalone="no"?>
<!DOCTYPE svg PUBLIC "-//W3C//DTD SVG 20010904//EN"
 "http://www.w3.org/TR/2001/REC-SVG-20010904/DTD/svg10.dtd">
<svg version="1.0" xmlns="http://www.w3.org/2000/svg"
 width="80.000000pt" height="148.000000pt" viewBox="0 0 80.000000 148.000000"
 preserveAspectRatio="xMidYMid meet">
<metadata>
Created by potrace 1.16, written by Peter Selinger 2001-2019
</metadata>
<g transform="translate(0.000000,148.000000) scale(0.100000,-0.100000)"
fill="#000000" stroke="none">
<path d="M331 1315 l4 -116 -148 -67 c-150 -68 -170 -84 -153 -127 8 -22 69
-19 113 7 84 47 183 96 184 90 0 -4 1 -113 1 -242 l0 -236 -36 -69 c-20 -39
-40 -77 -45 -85 -12 -19 -61 -127 -61 -134 0 -6 -76 -172 -90 -198 -6 -10 -10
-34 -10 -53 0 -34 1 -35 40 -35 45 0 46 1 85 115 15 44 39 105 52 135 53 116
61 136 74 173 12 35 35 66 42 56 2 -2 16 -38 31 -79 16 -41 36 -93 46 -115 21
-48 49 -112 60 -140 4 -11 19 -47 33 -80 25 -58 27 -60 67 -63 48 -4 59 13 37
55 -29 54 -77 158 -77 167 0 9 -46 109 -118 256 -20 41 -38 78 -40 83 -11 23
48 -3 153 -68 66 -41 128 -75 137 -75 18 0 38 36 38 68 0 17 -22 30 -220 133
-52 27 -98 53 -102 57 -9 9 -18 371 -9 377 4 2 40 -16 80 -41 136 -82 166 -96
202 -92 32 3 34 5 31 38 -4 39 -20 56 -72 71 -19 5 -82 36 -140 67 l-105 57 0
110 0 110 -43 3 -44 3 3 -116z"/>
</g>
</svg>
