<?xml version="1.0" standalone="no"?>
<!DOCTYPE svg PUBLIC "-//W3C//DTD SVG 20010904//EN"
 "http://www.w3.org/TR/2001/REC-SVG-20010904/DTD/svg10.dtd">
<svg version="1.0" xmlns="http://www.w3.org/2000/svg"
 width="264.000000pt" height="556.000000pt" viewBox="0 0 264.000000 556.000000"
 preserveAspectRatio="xMidYMid meet">
<metadata>
Created by potrace 1.16, written by Peter Selinger 2001-2019
</metadata>
<g transform="translate(0.000000,556.000000) scale(0.500000,-0.500000)"
fill="#000000" stroke="none">
<path d="M120 1082 c-10 -10 -10 -10 -9 -19 1 -18 5 -38 9 -47 2 -6 4 -13 4
-17 0 -3 2 -12 4 -19 2 -7 4 -17 5 -21 1 -4 3 -12 5 -16 2 -4 4 -12 4 -16 0
-4 2 -12 4 -17 11 -23 0 -46 -31 -62 -9 -4 -14 -9 -59 -61 -38 -45 -38 -75 3
-75 12 0 41 26 63 58 4 6 10 13 14 16 3 2 7 7 9 11 2 3 10 13 19 21 8 9 20 21
25 27 10 10 11 11 18 11 16 -2 15 13 13 -194 -1 -208 1 -184 -21 -216 -10 -15
-17 -30 -27 -61 -4 -10 -10 -25 -15 -33 -9 -17 -14 -32 -17 -44 -1 -5 -5 -17
-9 -26 -4 -9 -7 -18 -7 -19 0 0 -2 -6 -5 -12 -2 -5 -6 -15 -9 -21 -2 -6 -9
-21 -14 -33 -12 -26 -12 -25 -22 -50 -12 -31 -23 -58 -31 -75 -17 -34 -10 -52
20 -52 22 0 42 15 47 35 4 15 5 18 13 27 7 7 8 11 16 43 10 40 21 65 34 82 4
6 6 10 8 26 1 11 4 23 6 26 5 9 11 27 11 31 0 5 16 43 27 65 5 10 9 19 9 21 0
6 9 23 13 25 4 1 12 -11 19 -31 8 -18 21 -48 27 -60 8 -15 21 -42 21 -45 0 -3
20 -44 26 -55 3 -5 7 -13 9 -17 1 -5 9 -22 18 -39 8 -17 16 -36 17 -41 1 -6 6
-17 12 -25 5 -8 11 -20 13 -25 10 -31 23 -43 45 -43 29 0 37 10 27 34 -3 6 -5
13 -5 15 0 8 -9 30 -20 46 -6 10 -12 21 -13 24 -3 10 -25 57 -34 72 -5 8 -9
15 -9 16 0 1 -2 6 -5 12 -7 16 -14 33 -20 50 -3 11 -8 20 -14 28 -5 6 -13 19
-17 27 -5 9 -10 19 -12 22 -2 3 -6 12 -9 21 -3 9 -8 21 -12 25 -3 5 -12 20
-18 33 l-13 24 0 48 c0 87 -2 227 -3 281 -1 58 -1 58 11 58 8 0 82 -70 89 -84
4 -8 25 -27 40 -36 8 -5 19 -13 24 -17 18 -15 25 -16 38 -5 22 20 18 43 -10
62 -19 13 -42 33 -60 51 -10 10 -25 24 -34 30 -23 18 -27 30 -20 50 2 4 4 12
6 17 4 14 13 33 18 41 3 4 6 13 8 19 2 6 5 16 7 21 2 6 5 13 6 17 1 4 3 11 5
16 9 25 -5 46 -32 46 -19 0 -36 -25 -41 -63 -2 -14 -7 -36 -11 -43 -1 -3 -3
-9 -4 -13 -1 -4 -3 -10 -4 -13 -1 -3 -4 -12 -5 -20 -2 -19 -15 -30 -21 -19
-13 19 -15 65 -7 110 8 40 1 52 -31 52 -29 0 -27 7 -27 -83 0 -81 0 -83 -10
-82 -7 1 -14 16 -16 33 -1 8 -3 18 -5 23 -2 5 -3 11 -3 14 0 3 -1 9 -3 14 -2
5 -4 18 -5 29 -1 10 -3 21 -4 23 -1 2 -3 8 -4 14 -7 34 -31 44 -52 22z"/>
</g>
</svg>
