<?xml version="1.0" standalone="no"?>
<!DOCTYPE svg PUBLIC "-//W3C//DTD SVG 20010904//EN"
 "http://www.w3.org/TR/2001/REC-SVG-20010904/DTD/svg10.dtd">
<svg version="1.0" xmlns="http://www.w3.org/2000/svg"
 width="66.000000pt" height="140.000000pt" viewBox="0 0 66.000000 140.000000"
 preserveAspectRatio="xMidYMid meet">
<metadata>
Created by potrace 1.16, written by Peter Selinger 2001-2019
</metadata>
<g transform="translate(0.000000,140.000000) scale(0.100000,-0.100000)"
fill="#000000" stroke="none">
<path d="M140 1355 c-13 -16 -11 -30 32 -177 l20 -68 -75 -75 c-80 -80 -96
-107 -77 -130 24 -29 46 -14 125 80 47 57 86 94 95 93 13 -3 15 -34 11 -248
-3 -211 -6 -248 -21 -270 -9 -14 -36 -74 -60 -135 -23 -60 -46 -119 -51 -130
-61 -143 -99 -238 -99 -249 0 -20 35 -29 60 -16 22 12 48 63 74 146 9 28 23
60 31 70 8 10 15 28 15 39 0 19 29 106 50 150 5 11 14 33 20 49 6 17 14 25 19
20 8 -8 74 -151 139 -299 15 -33 41 -87 58 -120 27 -53 34 -60 60 -60 41 0 43
31 6 102 -17 32 -49 99 -72 148 -44 95 -54 114 -119 237 l-41 77 1 224 c0 123
-3 231 -7 240 -4 11 0 19 12 24 13 5 36 -13 93 -73 89 -92 115 -114 138 -114
14 0 42 26 43 41 0 3 -43 44 -96 90 -105 91 -103 87 -65 173 35 77 43 104 39
132 -2 23 -9 30 -31 32 -23 3 -30 -2 -42 -32 -8 -19 -15 -46 -16 -58 -1 -33
-35 -133 -45 -133 -22 0 -32 51 -23 119 10 79 1 99 -40 94 l-26 -3 4 -97 c2
-53 0 -101 -4 -108 -14 -23 -34 12 -45 83 -20 127 -28 147 -54 147 -13 0 -29
-7 -36 -15z"/>
</g>
</svg>
