<?xml version="1.0" standalone="no"?>
<!DOCTYPE svg PUBLIC "-//W3C//DTD SVG 20010904//EN"
 "http://www.w3.org/TR/2001/REC-SVG-20010904/DTD/svg10.dtd">
<svg version="1.0" xmlns="http://www.w3.org/2000/svg"
 width="84.000000pt" height="100.000000pt" viewBox="0 0 84.000000 100.000000"
 preserveAspectRatio="xMidYMid meet">
<metadata>
Created by potrace 1.16, written by Peter Selinger 2001-2019
</metadata>
<g transform="translate(0.000000,100.000000) scale(0.100000,-0.100000)"
fill="#000000" stroke="none">
<path d="M253 953 c-15 -6 -17 -55 -3 -102 13 -45 45 -79 98 -102 24 -10 40
-23 37 -29 -3 -6 -30 -25 -58 -43 -70 -45 -81 -60 -67 -86 14 -28 20 -27 69
15 23 20 45 33 49 30 3 -4 5 -64 3 -133 l-3 -127 -70 -152 c-69 -151 -78 -186
-47 -192 28 -5 46 23 95 148 25 67 51 119 57 117 6 -2 32 -50 58 -108 26 -57
54 -116 63 -131 16 -30 53 -38 62 -14 3 8 -31 89 -75 181 l-81 168 0 128 c0
70 4 130 8 133 4 2 31 -13 59 -35 56 -42 74 -47 93 -24 19 23 8 36 -70 79 -79
44 -98 66 -56 66 62 0 108 48 121 127 9 57 -1 85 -28 81 -18 -2 -23 -12 -28
-53 -3 -27 -9 -58 -14 -68 -9 -21 -62 -50 -76 -42 -5 4 -8 40 -7 83 l3 77 -27
3 -28 3 0 -75 c0 -79 -4 -85 -45 -70 -22 9 -45 57 -45 97 0 18 -5 38 -12 45
-13 13 -16 13 -35 5z"/>
<path d="M14 925 c-6 -16 -1 -25 50 -89 42 -53 75 -154 87 -269 20 -179 -5
-308 -82 -427 -43 -67 -48 -103 -13 -108 37 -5 115 136 149 273 14 58 16 93
10 200 -8 166 -17 209 -58 298 -49 107 -125 171 -143 122z"/>
<path d="M630 924 c0 -9 16 -42 35 -73 62 -100 83 -179 91 -331 5 -110 3 -147
-11 -199 -17 -67 -64 -169 -96 -210 -11 -13 -19 -32 -19 -41 0 -26 30 -33 52
-13 31 28 85 132 109 212 20 68 21 88 17 245 -5 150 -9 180 -32 244 -27 78
-51 122 -86 160 -24 26 -60 30 -60 6z"/>
</g>
</svg>
