<?xml version="1.0" standalone="no"?>
<!DOCTYPE svg PUBLIC "-//W3C//DTD SVG 20010904//EN"
 "http://www.w3.org/TR/2001/REC-SVG-20010904/DTD/svg10.dtd">
<svg version="1.0" xmlns="http://www.w3.org/2000/svg"
 width="496.000000pt" height="590.000000pt" viewBox="0 0 496.000000 590.000000"
 preserveAspectRatio="xMidYMid meet">
<metadata>
Created by potrace 1.16, written by Peter Selinger 2001-2019
</metadata>
<g transform="translate(0.000000,590.000000) scale(0.500000,-0.500000)"
fill="#000000" stroke="none">
<path d="M307 1121 c-17 -7 -20 -17 -18 -54 4 -91 61 -168 141 -188 19 -5 23
-7 26 -13 6 -15 4 -17 -79 -75 -90 -63 -85 -57 -70 -88 15 -33 16 -33 85 20
73 56 67 59 64 -34 -1 -39 -2 -104 -2 -146 0 -91 -4 -113 -28 -147 -2 -3 -6
-12 -9 -21 -3 -8 -11 -28 -19 -45 -7 -16 -18 -38 -23 -50 -5 -12 -16 -35 -24
-52 -72 -154 -65 -138 -65 -156 -1 -23 1 -25 30 -24 30 1 39 9 56 55 5 13 12
29 16 34 4 5 10 20 15 34 13 37 32 82 42 99 5 8 12 25 17 38 23 68 24 68 55 5
50 -103 90 -184 106 -219 23 -46 22 -45 47 -46 51 -1 52 4 19 68 -12 25 -26
53 -30 63 -4 10 -17 35 -28 57 -11 21 -22 45 -25 52 -2 7 -8 21 -14 30 -6 9
-11 20 -12 24 -7 20 -35 78 -55 113 -6 10 -6 17 -5 190 0 165 -12 153 84 89
84 -57 79 -55 97 -36 17 19 21 32 14 44 -4 6 -3 5 -38 25 -167 96 -175 104
-115 105 79 3 138 73 144 172 4 72 -7 90 -44 73 -16 -8 -18 -13 -17 -54 3 -78
-38 -129 -108 -136 -17 -2 -18 12 -11 136 3 53 0 58 -37 57 -31 -1 -29 5 -29
-94 0 -96 2 -91 -26 -83 -59 17 -84 57 -84 133 0 40 -17 57 -43 45z"/>
<path d="M758 1104 c-19 -12 -19 -35 0 -55 5 -5 14 -16 20 -23 5 -7 14 -18 20
-25 15 -18 29 -45 42 -80 7 -18 16 -42 21 -53 15 -31 23 -57 26 -88 12 -115
17 -171 17 -222 0 -20 1 -35 3 -43 7 -29 -4 -94 -24 -145 -4 -10 -9 -28 -12
-41 -10 -46 -35 -104 -70 -158 -7 -12 -15 -24 -16 -26 -2 -3 -10 -12 -19 -20
-32 -31 -30 -56 5 -68 26 -8 44 10 101 105 14 24 23 42 33 70 5 12 11 29 14
36 2 6 6 17 7 24 1 6 6 22 10 36 31 99 33 118 22 345 -1 22 -3 40 -5 47 -2 6
-3 17 -3 24 0 35 -6 82 -13 99 -1 5 -4 12 -5 17 -1 5 -8 20 -14 34 -6 14 -15
37 -20 52 -28 91 -106 179 -140 158z"/>
<path d="M29 1102 c-22 -4 -19 -48 5 -62 20 -13 43 -38 64 -71 11 -16 16 -28
30 -67 7 -18 15 -38 19 -45 13 -27 24 -64 26 -87 0 -12 2 -25 3 -29 1 -4 3
-24 4 -43 1 -27 2 -36 5 -42 4 -9 7 -50 7 -137 0 -71 1 -62 -11 -117 -2 -8 -7
-24 -12 -37 -8 -23 -10 -29 -15 -54 -5 -25 -33 -91 -49 -118 -34 -54 -37 -60
-47 -71 -32 -35 -27 -76 9 -78 25 -1 43 19 92 102 20 36 25 44 34 67 15 40 19
51 24 69 3 10 8 27 11 36 27 74 31 120 26 255 -1 32 -3 76 -4 99 -1 31 -2 43
-5 50 -2 6 -4 20 -5 42 -3 50 -9 76 -33 127 -6 14 -14 36 -19 50 -30 96 -105
172 -159 161z"/>
</g>
</svg>
