<?xml version="1.0" standalone="no"?>
<!DOCTYPE svg PUBLIC "-//W3C//DTD SVG 20010904//EN"
 "http://www.w3.org/TR/2001/REC-SVG-20010904/DTD/svg10.dtd">
<svg version="1.0" xmlns="http://www.w3.org/2000/svg"
 width="124.000000pt" height="148.000000pt" viewBox="0 0 124.000000 148.000000"
 preserveAspectRatio="xMidYMid meet">
<metadata>
Created by potrace 1.16, written by Peter Selinger 2001-2019
</metadata>
<g transform="translate(0.000000,148.000000) scale(0.100000,-0.100000)"
fill="#000000" stroke="none">
<path d="M360 1380 c-12 -22 2 -114 22 -155 28 -55 115 -125 156 -125 23 0 44
-22 34 -36 -4 -5 -51 -40 -104 -77 -60 -42 -98 -75 -98 -85 1 -21 23 -52 39
-52 6 0 42 25 78 55 68 56 89 63 86 29 -1 -10 -4 -99 -7 -199 l-5 -181 -106
-230 c-58 -126 -104 -238 -103 -249 5 -34 51 -31 82 5 14 17 26 40 26 50 0 10
4 21 9 24 5 3 21 36 36 73 14 38 35 86 45 108 10 22 24 58 32 79 22 66 21 67
124 -149 36 -77 73 -155 80 -172 14 -33 50 -51 79 -39 24 9 18 30 -44 159 -32
67 -86 179 -119 248 l-61 127 1 196 c0 119 5 196 10 196 6 0 52 -29 103 -65
l93 -64 26 26 c14 14 26 30 26 34 0 10 -27 28 -149 100 -99 57 -121 85 -66 83
52 -3 93 16 133 62 46 52 64 108 60 184 -3 49 -6 55 -27 58 -35 5 -46 -13 -46
-81 -1 -50 -6 -70 -24 -96 -21 -29 -94 -71 -123 -71 -7 0 -9 43 -7 123 l4 122
-40 0 -40 0 0 -109 c0 -74 -4 -111 -12 -113 -22 -8 -87 32 -106 65 -12 20 -20
55 -22 86 -1 29 -5 57 -9 64 -12 19 -54 14 -66 -8z"/>
<path d="M947 1379 c-27 -16 -20 -48 22 -95 78 -88 135 -251 150 -424 19 -214
14 -321 -19 -405 -4 -11 -13 -40 -20 -65 -18 -70 -78 -188 -117 -230 -44 -49
-43 -84 3 -88 27 -3 35 3 71 55 57 83 97 172 132 297 26 92 31 127 30 215 0
152 -23 389 -41 436 -9 22 -26 67 -38 100 -32 83 -100 183 -140 205 -9 5 -23
4 -33 -1z"/>
<path d="M17 1373 c-15 -15 -4 -36 52 -98 40 -44 67 -85 81 -123 11 -31 27
-70 34 -87 22 -48 24 -61 42 -225 9 -85 14 -191 12 -235 -8 -142 -90 -368
-168 -460 -38 -45 -31 -95 14 -95 18 0 35 17 74 78 60 91 81 137 124 269 32
96 33 101 31 267 -3 238 -16 338 -59 449 -49 128 -62 152 -118 213 -39 44 -54
54 -80 54 -18 0 -36 -3 -39 -7z"/>
</g>
</svg>
