<?xml version="1.0" standalone="no"?>
<!DOCTYPE svg PUBLIC "-//W3C//DTD SVG 20010904//EN"
 "http://www.w3.org/TR/2001/REC-SVG-20010904/DTD/svg10.dtd">
<svg version="1.0" xmlns="http://www.w3.org/2000/svg"
 width="522.000000pt" height="590.000000pt" viewBox="0 0 522.000000 590.000000"
 preserveAspectRatio="xMidYMid meet">
<metadata>
Created by potrace 1.16, written by Peter Selinger 2001-2019
</metadata>
<g transform="translate(0.000000,590.000000) scale(0.500000,-0.500000)"
fill="#000000" stroke="none">
<path d="M639 1142 c-12 -3 -13 -5 -13 -22 1 -53 -3 -79 -16 -103 -3 -6 -6
-13 -6 -14 0 -10 -39 -48 -48 -47 -7 1 -7 6 -6 90 2 99 3 95 -26 95 -27 0 -30
-7 -26 -61 2 -27 1 -111 -1 -121 -2 -8 -10 -6 -17 2 -4 4 -12 12 -17 18 -22
21 -43 78 -45 119 -2 44 -3 45 -34 44 -21 -2 -22 -3 -20 -52 2 -50 5 -64 19
-87 2 -4 5 -12 6 -16 2 -13 10 -31 18 -39 4 -4 10 -11 14 -16 4 -4 13 -11 19
-14 6 -4 15 -8 19 -11 4 -3 13 -6 19 -8 16 -5 23 -19 14 -27 -24 -21 -30 -26
-34 -27 -3 -1 -10 -6 -16 -12 -6 -6 -19 -14 -28 -19 -11 -6 -21 -13 -28 -20
-6 -6 -25 -21 -41 -33 -39 -27 -42 -33 -28 -54 17 -26 32 -21 96 32 5 4 15 12
21 16 6 4 19 14 27 22 38 32 36 38 33 -90 -1 -58 -2 -125 -2 -149 0 -40 0 -43
-4 -50 -6 -9 -12 -25 -14 -38 -1 -6 -6 -23 -10 -37 -5 -14 -10 -32 -12 -40 -2
-8 -6 -18 -7 -23 -2 -5 -6 -20 -10 -34 -11 -39 -17 -58 -25 -75 -5 -10 -8 -21
-9 -28 0 -7 -4 -21 -8 -33 -3 -12 -7 -25 -8 -30 -1 -4 -4 -15 -7 -24 -3 -8 -8
-22 -12 -31 -15 -43 -9 -55 27 -52 20 1 23 4 30 28 3 10 8 27 12 38 4 11 7 24
8 30 1 5 3 13 5 18 2 4 4 10 4 13 0 3 2 11 4 18 2 7 6 19 8 26 2 7 5 18 7 23
2 6 4 15 6 21 1 6 3 12 4 14 2 3 10 34 12 43 6 33 29 81 29 60 0 0 2 -6 5 -14
5 -14 15 -54 15 -61 0 -2 2 -6 4 -8 5 -7 13 -28 15 -40 1 -5 4 -18 8 -29 4
-12 7 -22 7 -24 0 -2 2 -10 5 -18 3 -8 5 -16 5 -18 0 -2 3 -10 7 -18 11 -23
17 -45 21 -71 4 -27 10 -32 39 -32 31 0 36 15 20 56 -4 11 -8 24 -9 29 -1 6
-4 15 -6 20 -8 19 -19 52 -27 77 -4 14 -11 34 -15 45 -4 11 -8 21 -8 22 0 2
-13 45 -19 63 -2 5 -5 15 -6 22 -2 7 -4 15 -6 18 -1 3 -3 10 -4 15 -1 6 -2 12
-4 14 -1 2 -2 11 -3 19 -1 8 -4 19 -6 25 -10 23 -11 34 -11 177 -1 142 -1 143
5 142 8 -2 73 -62 84 -79 2 -4 8 -9 12 -11 4 -2 11 -6 15 -9 16 -11 45 6 45
27 0 7 -36 47 -53 59 -5 3 -12 10 -15 15 -4 4 -15 13 -26 21 -61 41 -79 79
-42 91 4 1 14 7 20 13 7 6 13 11 14 11 3 0 29 38 35 50 3 6 9 15 12 19 20 24
35 132 21 146 -4 4 -27 6 -37 3z"/>
<path d="M260 1119 c-3 -2 -13 -12 -21 -22 -8 -9 -20 -21 -25 -25 -10 -9 -20
-23 -30 -45 -3 -7 -9 -16 -12 -19 -5 -7 -20 -34 -23 -44 -1 -2 -4 -9 -7 -14
-3 -5 -6 -10 -6 -12 0 -1 -5 -13 -11 -26 -6 -14 -12 -30 -14 -38 -5 -25 -9
-39 -14 -50 -3 -6 -6 -19 -8 -29 -1 -10 -4 -21 -6 -25 -2 -4 -4 -15 -5 -28 -1
-12 -4 -27 -6 -34 -7 -23 -11 -142 -6 -175 1 -6 3 -26 4 -45 1 -18 4 -39 5
-46 2 -7 4 -24 5 -37 1 -14 3 -27 5 -31 2 -5 3 -11 3 -15 0 -5 1 -13 3 -19 2
-6 3 -14 3 -17 0 -3 3 -12 8 -21 5 -11 8 -19 9 -29 1 -8 3 -17 5 -20 1 -3 6
-15 10 -26 5 -13 10 -24 15 -30 4 -4 13 -22 20 -38 24 -54 56 -101 74 -110 46
-22 68 44 25 75 -15 10 -16 12 -26 31 -6 11 -12 22 -14 24 -5 6 -27 49 -31 61
-1 5 -4 12 -6 15 -1 4 -4 12 -6 18 -3 14 -8 27 -14 44 -8 22 -22 79 -24 98 -1
7 -2 20 -4 29 -3 18 -8 66 -7 74 0 3 0 19 1 36 0 18 1 35 3 40 2 7 2 12 0 23
-2 10 -2 17 0 26 1 6 2 17 2 24 0 7 1 17 2 24 1 7 3 20 5 30 1 10 3 20 5 22 1
2 3 13 4 23 1 11 3 22 4 25 1 3 3 13 5 23 2 11 6 25 11 37 16 36 32 76 32 80
0 1 4 8 9 15 4 7 11 18 15 25 4 7 10 16 14 21 4 5 11 16 16 24 9 15 18 23 43
45 36 31 4 79 -39 58z"/>
<path d="M940 1102 c-35 -17 -66 -48 -78 -80 -3 -6 -8 -15 -12 -21 -4 -5 -10
-16 -14 -24 -3 -8 -10 -21 -14 -30 -4 -9 -8 -18 -9 -21 -1 -3 -6 -14 -11 -25
-6 -11 -13 -30 -16 -43 -3 -13 -8 -30 -11 -38 -6 -18 -7 -25 -8 -54 0 -18 -2
-28 -7 -48 -11 -43 -16 -240 -7 -273 1 -5 3 -23 4 -39 1 -19 2 -32 4 -36 2 -4
4 -13 5 -21 3 -23 8 -43 15 -57 4 -8 7 -19 9 -28 1 -8 3 -17 5 -20 2 -4 6 -14
10 -24 4 -10 10 -21 13 -25 5 -6 10 -17 34 -65 6 -14 14 -26 23 -38 5 -6 11
-14 13 -19 22 -51 76 -46 76 7 0 16 -7 29 -22 41 -16 12 -30 31 -46 64 -3 7
-9 18 -14 25 -4 7 -10 18 -12 25 -2 7 -5 13 -6 14 -1 1 -3 6 -4 11 -4 18 -14
48 -18 53 -6 7 -8 12 -11 27 -2 8 -5 19 -7 24 -3 6 -5 18 -7 37 -1 15 -4 32
-6 37 -5 13 -5 188 0 199 2 5 4 16 4 29 1 12 3 28 5 37 7 30 10 48 12 72 1 15
3 27 5 30 1 4 3 11 4 17 1 9 9 26 33 76 18 36 34 68 35 72 8 22 16 35 27 40 5
2 10 8 13 12 4 5 11 11 19 16 49 30 24 88 -28 64z"/>
</g>
</svg>
