<?xml version="1.0" standalone="no"?>
<!DOCTYPE svg PUBLIC "-//W3C//DTD SVG 20010904//EN"
 "http://www.w3.org/TR/2001/REC-SVG-20010904/DTD/svg10.dtd">
<svg version="1.0" xmlns="http://www.w3.org/2000/svg"
 width="672.000000pt" height="604.000000pt" viewBox="0 0 672.000000 604.000000"
 preserveAspectRatio="xMidYMid meet">
<metadata>
Created by potrace 1.16, written by Peter Selinger 2001-2019
</metadata>
<g transform="translate(0.000000,604.000000) scale(0.500000,-0.500000)"
fill="#000000" stroke="none">
<path d="M1014 1178 c-12 -12 -4 -64 10 -64 3 0 8 -2 12 -4 4 -2 10 -5 14 -7
4 -2 10 -5 13 -8 3 -2 12 -6 19 -9 7 -2 16 -7 19 -10 14 -12 32 -24 39 -26 9
-3 11 -5 13 -13 1 -3 5 -9 10 -13 7 -7 8 -9 9 -23 1 -11 3 -17 6 -20 2 -2 6
-9 9 -15 3 -6 7 -12 8 -15 2 -2 3 -7 3 -10 0 -4 2 -12 4 -19 6 -19 6 -105 0
-124 -2 -7 -4 -15 -4 -17 0 -2 -2 -5 -5 -8 -2 -2 -6 -8 -9 -12 -2 -5 -5 -9 -6
-9 -3 0 -6 -12 -6 -23 0 -12 -3 -19 -11 -30 -3 -4 -6 -11 -8 -15 -2 -5 -6 -12
-11 -17 -8 -9 -13 -23 -16 -43 -3 -18 -7 -35 -13 -52 -3 -10 -5 -20 -5 -27 0
-7 -1 -15 -2 -19 -1 -4 -3 -13 -5 -19 -2 -7 -5 -16 -8 -20 -5 -8 -5 -8 -4 -84
0 -79 1 -82 9 -104 8 -18 12 -34 16 -53 1 -6 3 -12 4 -14 2 -3 2 -8 2 -13 0
-10 14 -39 23 -48 3 -4 9 -11 13 -16 13 -21 19 -30 28 -40 6 -6 12 -15 15 -19
3 -4 8 -10 13 -13 4 -2 11 -9 16 -15 7 -8 11 -11 19 -13 6 -1 14 -5 19 -10 24
-20 46 -8 46 26 0 31 -3 37 -29 50 -14 7 -15 7 -17 16 -2 8 -3 9 -10 12 -14 6
-21 13 -23 27 0 4 -3 9 -5 11 -2 2 -6 7 -7 11 -2 3 -6 10 -10 14 -4 4 -7 10
-8 12 0 3 -1 8 -2 11 -1 3 -3 8 -6 11 -7 8 -11 22 -13 41 -1 16 -2 19 -6 25
-4 4 -6 9 -7 16 -1 6 -4 14 -6 18 -5 7 -5 10 -6 36 -1 18 -2 34 -4 41 -4 11
-4 12 -1 21 2 5 4 13 5 17 3 17 9 35 13 37 9 5 12 14 12 32 0 10 1 20 3 25 2
5 4 18 4 33 1 32 2 33 13 45 5 5 12 15 16 22 4 7 8 14 10 16 11 14 32 56 32
66 0 13 7 36 13 46 9 13 9 127 0 141 -5 7 -6 11 -7 31 -2 28 -5 42 -12 51 -3
4 -7 12 -10 18 -2 6 -7 14 -9 17 -3 3 -6 8 -6 11 -6 23 -36 55 -68 72 -11 6
-22 12 -25 14 -3 2 -13 9 -22 15 -9 6 -19 13 -21 15 -14 13 -69 20 -79 10z"/>
<path d="M36 1175 c-19 -4 -17 -67 2 -67 3 0 8 -2 12 -4 4 -2 10 -5 14 -7 4
-2 9 -5 12 -8 3 -2 11 -7 19 -9 8 -3 17 -7 22 -12 21 -18 26 -21 36 -24 9 -3
10 -4 13 -13 2 -5 7 -12 11 -16 7 -6 7 -7 8 -21 1 -12 3 -16 7 -21 3 -4 6 -7
6 -8 0 -1 3 -7 7 -13 4 -7 7 -13 7 -18 0 -4 1 -12 3 -18 9 -31 2 -136 -11
-152 -3 -4 -6 -8 -6 -9 0 -1 -3 -4 -6 -8 -5 -6 -6 -9 -7 -22 -1 -16 -4 -23
-12 -34 -2 -3 -6 -9 -7 -14 -1 -4 -6 -11 -10 -16 -8 -9 -16 -31 -16 -44 0 -4
-1 -10 -3 -13 -1 -3 -3 -9 -4 -14 -1 -5 -4 -16 -6 -24 -3 -8 -6 -24 -7 -34 -2
-23 -8 -43 -14 -52 -7 -9 -8 -148 -2 -164 2 -4 4 -10 4 -12 0 -3 3 -11 6 -18
7 -15 18 -58 20 -76 1 -9 3 -15 7 -21 3 -4 5 -9 5 -10 0 -2 3 -6 7 -10 6 -8
22 -29 32 -46 3 -4 9 -12 14 -17 5 -5 11 -13 14 -17 2 -5 9 -11 14 -15 6 -3
13 -10 17 -15 3 -5 8 -9 9 -9 7 0 18 -5 28 -13 24 -18 44 -7 45 24 1 34 -3 41
-28 53 -14 6 -15 8 -18 16 -3 8 -4 10 -14 14 -12 6 -18 13 -18 22 0 5 -4 12
-7 15 -2 1 -5 5 -7 10 -2 5 -5 10 -7 10 -4 2 -11 15 -12 25 -1 5 -4 11 -7 15
-8 9 -12 22 -13 41 0 14 -1 17 -6 22 -4 4 -6 9 -7 17 -1 7 -4 15 -7 19 -5 8
-6 10 -7 41 -1 17 -2 37 -3 43 -1 6 0 12 1 16 1 3 3 10 4 15 4 21 8 32 14 37
11 10 12 13 12 34 0 13 1 22 3 27 2 5 3 14 3 31 0 27 0 29 14 43 5 6 12 15 15
20 2 6 10 18 16 27 6 9 13 20 14 25 2 4 5 9 7 12 2 3 4 10 5 20 2 17 7 35 15
46 8 12 8 126 -1 140 -5 7 -6 10 -7 30 -1 12 -2 24 -3 26 -2 2 -3 8 -4 13 -1
4 -3 11 -6 14 -2 3 -5 7 -6 10 -1 2 -4 9 -7 14 -6 9 -11 19 -18 35 -6 15 -38
46 -58 56 -19 9 -50 29 -67 43 -18 13 -51 21 -75 17z"/>
<path d="M431 1152 c-21 -7 -22 -64 -1 -87 2 -2 6 -9 9 -15 3 -6 9 -14 13 -19
10 -11 24 -33 24 -37 0 -5 14 -20 27 -29 5 -4 12 -9 14 -12 3 -4 8 -7 12 -9 5
-1 12 -5 16 -9 4 -3 11 -8 14 -10 8 -4 38 -32 43 -40 2 -4 7 -8 11 -11 17 -10
16 -19 -4 -29 -6 -3 -15 -8 -19 -12 -4 -3 -11 -8 -15 -11 -13 -7 -22 -13 -31
-20 -5 -4 -16 -11 -24 -16 -56 -33 -74 -60 -60 -89 8 -16 57 -19 76 -5 5 3 10
6 12 6 2 0 8 3 13 8 6 4 15 10 21 14 6 4 19 15 30 24 32 29 35 28 42 -4 3 -15
-1 -168 -5 -176 -2 -6 -3 -14 -3 -29 0 -24 -5 -45 -14 -54 -4 -5 -10 -16 -10
-19 0 -2 -4 -12 -10 -24 -6 -13 -10 -25 -11 -33 -1 -6 -4 -17 -7 -24 -3 -6 -6
-13 -6 -15 0 -1 -4 -8 -8 -14 -4 -7 -9 -17 -11 -22 -1 -5 -7 -17 -12 -28 -5
-10 -9 -19 -9 -21 0 -1 -9 -20 -20 -42 -11 -22 -20 -41 -20 -43 0 -1 -5 -13
-12 -26 -6 -13 -13 -30 -16 -38 -10 -34 -13 -41 -18 -47 -21 -22 -1 -56 34
-57 33 -1 41 4 47 29 1 7 31 67 37 75 2 3 5 10 6 15 1 6 4 15 7 21 3 6 5 12 5
14 0 4 6 16 13 26 5 7 13 30 13 37 0 11 9 31 15 37 8 6 11 14 11 28 0 8 6 22
12 30 2 3 4 8 5 11 7 28 31 53 31 32 0 -4 16 -35 21 -43 6 -6 13 -25 13 -31 0
-11 31 -82 43 -98 7 -9 9 -14 16 -36 4 -11 9 -22 11 -25 6 -9 11 -21 13 -29 1
-5 3 -10 6 -13 7 -6 29 -51 31 -64 3 -17 55 -25 69 -11 10 10 7 62 -5 80 -5 7
-12 18 -14 25 -2 6 -9 20 -14 32 -6 12 -10 23 -10 26 0 3 -16 37 -36 77 -20
40 -36 73 -36 75 0 2 -4 8 -8 15 -13 19 -29 54 -31 68 -1 7 -4 18 -7 25 -3 7
-6 15 -6 18 0 3 -4 14 -9 24 -9 17 -10 21 -11 37 -1 17 -2 20 -7 25 -6 6 -6 6
-7 105 -2 122 -2 121 17 108 10 -8 36 -21 39 -21 2 0 14 -6 29 -14 14 -8 31
-17 38 -20 6 -2 14 -6 16 -8 8 -7 58 -11 72 -6 8 3 13 48 6 65 -2 4 -31 19
-38 19 -2 0 -9 3 -16 7 -22 13 -38 21 -47 23 -12 3 -23 9 -25 13 -2 6 -17 11
-37 12 -38 2 -49 16 -28 38 6 6 13 15 15 18 4 8 40 41 50 47 13 6 27 25 45 59
7 13 15 27 17 30 3 3 5 9 6 12 2 8 8 18 18 29 17 19 21 52 7 64 -16 15 -45 7
-56 -17 -3 -6 -7 -13 -9 -15 -1 -2 -4 -6 -6 -10 -2 -3 -8 -11 -13 -17 -6 -6
-10 -11 -10 -12 0 -9 -5 -23 -12 -31 -4 -5 -11 -15 -15 -22 -16 -28 -21 -34
-34 -43 -7 -5 -15 -12 -18 -16 -17 -22 -17 -20 -16 83 2 109 6 98 -35 98 -38
0 -35 4 -34 -49 4 -169 4 -170 -29 -130 -3 4 -10 10 -16 12 -5 3 -13 8 -17 12
-4 4 -11 9 -15 12 -11 8 -41 40 -47 50 -3 4 -8 11 -11 15 -4 5 -7 10 -8 16 -1
6 -4 13 -9 20 -5 6 -9 15 -12 24 -6 22 -8 25 -13 29 -6 4 -29 6 -38 3z"/>
</g>
</svg>
