<?xml version="1.0" standalone="no"?>
<!DOCTYPE svg PUBLIC "-//W3C//DTD SVG 20010904//EN"
 "http://www.w3.org/TR/2001/REC-SVG-20010904/DTD/svg10.dtd">
<svg version="1.0" xmlns="http://www.w3.org/2000/svg"
 width="100.000000pt" height="90.000000pt" viewBox="0 0 100.000000 90.000000"
 preserveAspectRatio="xMidYMid meet">
<metadata>
Created by potrace 1.16, written by Peter Selinger 2001-2019
</metadata>
<g transform="translate(0.000000,90.000000) scale(0.100000,-0.100000)"
fill="#000000" stroke="none">
<path d="M750 865 c-16 -19 -7 -31 40 -55 62 -32 93 -81 98 -154 3 -52 0 -71
-21 -112 -44 -87 -60 -164 -55 -266 3 -79 8 -101 33 -146 30 -56 89 -116 108
-109 6 2 15 10 21 19 8 13 1 26 -30 60 -23 24 -49 66 -60 94 -33 86 -20 215
31 307 35 62 43 144 21 219 -20 70 -46 103 -107 133 -56 29 -63 30 -79 10z"/>
<path d="M16 855 c-4 -10 9 -25 37 -44 62 -43 82 -66 95 -109 18 -60 14 -108
-12 -161 -29 -57 -66 -194 -66 -246 0 -59 29 -157 58 -195 57 -75 102 -100
116 -64 8 22 10 18 -33 63 -96 100 -105 248 -25 401 24 46 28 67 28 130 0 104
-27 164 -94 208 -52 34 -94 41 -104 17z"/>
<path d="M303 843 c-11 -28 40 -105 100 -151 32 -24 57 -47 57 -52 0 -5 -27
-25 -59 -44 -63 -38 -78 -60 -60 -82 17 -20 31 -17 80 16 67 45 69 43 62 -57
-6 -90 -11 -106 -113 -344 -36 -83 -35 -109 4 -109 21 0 29 11 56 78 18 42 40
99 50 126 9 28 22 52 28 54 7 2 19 -14 28 -35 8 -21 34 -80 57 -131 37 -85 43
-93 66 -90 15 2 27 10 29 20 2 9 -26 79 -61 155 -72 155 -82 186 -92 290 -8
88 2 98 64 59 22 -14 54 -26 71 -26 25 0 30 4 30 24 0 30 -11 39 -87 66 -35
13 -63 29 -63 36 0 7 16 25 35 40 40 30 98 125 93 151 -7 40 -41 18 -82 -51
-54 -92 -68 -96 -66 -20 2 87 3 86 -27 82 l-28 -3 4 -73 c3 -71 2 -73 -16 -63
-30 15 -81 77 -98 116 -15 38 -51 48 -62 18z"/>
</g>
</svg>
