<?xml version="1.0" standalone="no"?>
<!DOCTYPE svg PUBLIC "-//W3C//DTD SVG 20010904//EN"
 "http://www.w3.org/TR/2001/REC-SVG-20010904/DTD/svg10.dtd">
<svg version="1.0" xmlns="http://www.w3.org/2000/svg"
 width="168.000000pt" height="152.000000pt" viewBox="0 0 168.000000 152.000000"
 preserveAspectRatio="xMidYMid meet">
<metadata>
Created by potrace 1.16, written by Peter Selinger 2001-2019
</metadata>
<g transform="translate(0.000000,152.000000) scale(0.100000,-0.100000)"
fill="#000000" stroke="none">
<path d="M34 1467 c-15 -41 1 -68 61 -103 33 -19 72 -39 86 -46 14 -6 31 -25
38 -42 7 -17 22 -52 33 -77 26 -61 24 -225 -4 -256 -10 -11 -18 -27 -18 -37 0
-10 -13 -43 -29 -74 -17 -31 -35 -84 -41 -117 -6 -33 -18 -80 -26 -105 -20
-63 -18 -175 5 -246 10 -33 22 -75 26 -94 13 -62 100 -173 168 -217 50 -32 67
-25 67 26 0 34 -5 43 -27 56 -16 8 -36 25 -45 37 -37 48 -68 99 -68 113 0 8
-4 17 -10 20 -5 3 -10 19 -10 34 0 15 -4 31 -8 36 -35 40 -40 208 -8 244 8 9
17 48 21 86 6 49 15 79 30 100 38 50 65 104 65 130 0 13 5 27 10 30 6 3 10 46
10 95 0 49 -4 92 -10 95 -5 3 -10 22 -10 41 0 41 -60 156 -94 180 -67 46 -129
83 -149 89 -12 4 -30 9 -40 11 -9 3 -20 -1 -23 -9z"/>
<path d="M1257 1473 c-3 -5 -3 -22 0 -39 4 -23 12 -33 37 -42 78 -28 166 -99
170 -137 1 -5 10 -26 20 -45 30 -54 32 -190 3 -244 -12 -22 -22 -48 -23 -56 0
-9 -12 -34 -26 -55 -13 -22 -32 -78 -42 -125 -10 -47 -22 -95 -27 -108 -17
-43 -11 -211 10 -276 11 -34 22 -72 25 -86 11 -51 110 -170 168 -200 45 -24
68 -15 68 26 0 23 -6 31 -66 84 -16 14 -35 36 -42 50 -7 14 -24 45 -37 70 -13
25 -24 53 -24 63 -1 10 -8 34 -16 53 -23 56 -24 175 -1 209 11 17 20 54 23 92
4 54 11 74 44 124 22 32 42 73 46 91 3 18 11 44 18 58 12 27 11 135 -3 210
-12 61 -65 163 -99 189 -83 65 -150 101 -185 101 -20 0 -39 -3 -41 -7z"/>
<path d="M517 1434 c-16 -16 -5 -62 26 -108 17 -27 39 -61 48 -75 8 -14 35
-40 60 -58 71 -51 129 -105 129 -119 0 -7 -15 -20 -32 -29 -18 -8 -64 -37
-103 -63 -55 -37 -71 -53 -73 -75 -10 -82 69 -72 183 23 49 41 49 41 58 18 5
-13 6 -59 2 -103 -3 -44 -6 -108 -7 -142 0 -47 -7 -77 -29 -124 -16 -33 -29
-66 -29 -73 0 -7 -34 -85 -75 -175 -42 -89 -78 -176 -82 -192 -3 -16 -10 -32
-14 -35 -13 -8 -11 -48 3 -62 16 -16 63 -15 75 1 6 6 27 50 48 97 20 47 46
103 56 126 10 22 19 47 19 56 0 9 7 21 15 28 8 7 15 25 15 41 0 15 5 31 10 34
6 3 10 14 10 24 0 10 9 26 20 36 19 17 20 17 26 -1 33 -98 69 -182 150 -347
19 -38 34 -75 34 -83 0 -16 37 -27 71 -22 20 2 24 9 24 38 0 19 -12 58 -26 85
-14 28 -30 61 -34 75 -4 14 -38 88 -75 165 -105 218 -114 252 -125 453 -6 114
-5 132 8 132 9 0 17 -3 19 -7 2 -5 40 -27 86 -51 63 -33 91 -42 120 -40 36 3
37 4 40 45 3 36 0 42 -20 48 -13 4 -54 23 -92 41 -37 19 -78 34 -90 34 -23 1
-56 22 -56 36 0 5 30 37 67 72 60 56 93 104 155 220 15 29 1 55 -30 60 -22 3
-50 -31 -104 -132 -27 -49 -94 -126 -111 -126 -4 0 -6 24 -3 53 5 48 9 155 7
185 -1 17 -80 16 -87 -1 -2 -7 0 -64 5 -127 5 -63 5 -119 1 -123 -4 -4 -43 26
-87 68 -74 70 -118 132 -125 180 -2 15 -12 21 -38 23 -20 2 -39 0 -43 -4z"/>
</g>
</svg>
