<?xml version="1.0" standalone="no"?>
<!DOCTYPE svg PUBLIC "-//W3C//DTD SVG 20010904//EN"
 "http://www.w3.org/TR/2001/REC-SVG-20010904/DTD/svg10.dtd">
<svg version="1.0" xmlns="http://www.w3.org/2000/svg"
 width="77.000000pt" height="100.000000pt" viewBox="0 0 77.000000 100.000000"
 preserveAspectRatio="xMidYMid meet">
<metadata>
Created by potrace 1.16, written by Peter Selinger 2001-2019
</metadata>
<g transform="translate(0.000000,100.000000) scale(0.100000,-0.100000)"
fill="#000000" stroke="none">
<path d="M227 963 c-4 -3 -7 -43 -7 -88 l0 -82 -90 -64 c-94 -68 -107 -83 -89
-105 19 -23 38 -16 105 41 36 30 70 53 75 50 5 -4 9 -68 9 -145 0 -133 -1
-141 -31 -207 -84 -184 -128 -295 -123 -308 4 -8 16 -15 29 -15 19 0 30 19 85
152 34 84 66 157 70 162 5 5 45 -63 89 -153 71 -141 84 -161 105 -161 22 0 28
11 65 123 44 129 56 156 66 145 4 -4 23 -62 42 -130 19 -68 40 -129 48 -137
17 -17 45 -7 45 16 0 10 -27 102 -61 205 -81 254 -83 253 -169 -19 -18 -57
-36 -103 -40 -103 -4 0 -26 39 -49 88 -24 48 -58 112 -77 143 -30 49 -34 65
-35 125 0 38 -4 104 -8 147 -3 43 -3 81 2 84 5 3 42 -16 83 -41 86 -53 124
-60 124 -21 0 21 -15 32 -102 77 l-103 53 -3 75 c-2 41 -8 80 -14 87 -11 14
-31 17 -41 6z"/>
</g>
</svg>
