<?xml version="1.0" standalone="no"?>
<!DOCTYPE svg PUBLIC "-//W3C//DTD SVG 20010904//EN"
 "http://www.w3.org/TR/2001/REC-SVG-20010904/DTD/svg10.dtd">
<svg version="1.0" xmlns="http://www.w3.org/2000/svg"
 width="114.000000pt" height="148.000000pt" viewBox="0 0 114.000000 148.000000"
 preserveAspectRatio="xMidYMid meet">
<metadata>
Created by potrace 1.16, written by Peter Selinger 2001-2019
</metadata>
<g transform="translate(0.000000,148.000000) scale(0.100000,-0.100000)"
fill="#000000" stroke="none">
<path d="M333 1412 c-3 -7 -3 -63 0 -123 3 -60 3 -109 -1 -109 -4 0 -27 -18
-50 -41 -24 -22 -59 -50 -77 -62 -117 -79 -155 -110 -155 -125 0 -44 63 -57
96 -21 33 37 175 139 185 134 5 -4 9 -102 9 -225 l0 -219 -40 -80 c-22 -43
-40 -82 -40 -85 0 -3 -12 -31 -26 -63 -14 -32 -30 -67 -34 -78 -4 -11 -24 -58
-43 -105 -52 -128 -52 -128 -22 -142 21 -9 28 -9 39 3 12 13 96 200 96 215 0
3 17 43 38 88 22 44 47 103 57 129 15 39 21 46 31 35 6 -7 65 -117 129 -245
118 -235 139 -264 170 -232 7 8 34 77 60 154 53 162 95 265 106 265 5 0 17
-30 28 -67 11 -38 31 -106 45 -153 60 -208 59 -205 91 -205 26 0 30 4 33 29 2
16 -1 39 -7 50 -6 12 -20 53 -32 91 -35 115 -120 378 -131 408 -14 37 -43 35
-62 -5 -19 -42 -108 -294 -131 -373 -10 -33 -21 -64 -25 -68 -4 -5 -42 61 -84
145 -42 84 -96 189 -120 233 l-44 80 -9 220 c-10 232 -7 251 32 216 11 -11 36
-27 55 -38 19 -10 61 -35 93 -56 39 -25 69 -37 93 -37 34 0 35 1 32 32 -3 27
-11 36 -63 63 -72 37 -213 114 -237 129 -15 9 -17 23 -14 91 2 44 2 96 -1 117
-5 31 -9 37 -35 40 -20 3 -32 0 -35 -10z"/>
</g>
</svg>
