<?xml version="1.0" standalone="no"?>
<!DOCTYPE svg PUBLIC "-//W3C//DTD SVG 20010904//EN"
 "http://www.w3.org/TR/2001/REC-SVG-20010904/DTD/svg10.dtd">
<svg version="1.0" xmlns="http://www.w3.org/2000/svg"
 width="456.000000pt" height="590.000000pt" viewBox="0 0 456.000000 590.000000"
 preserveAspectRatio="xMidYMid meet">
<metadata>
Created by potrace 1.16, written by Peter Selinger 2001-2019
</metadata>
<g transform="translate(0.000000,590.000000) scale(0.500000,-0.500000)"
fill="#000000" stroke="none">
<path d="M269 1135 c-7 -7 -7 -127 0 -141 10 -18 6 -44 -7 -48 -6 -2 -10 -5
-12 -9 -4 -8 -19 -22 -28 -26 -4 -2 -10 -7 -14 -13 -4 -6 -12 -14 -20 -19 -8
-5 -14 -10 -15 -11 -1 -1 -7 -5 -13 -8 -7 -4 -19 -11 -26 -18 -7 -6 -20 -15
-28 -20 -68 -44 -82 -77 -39 -92 25 -9 34 -6 58 19 10 10 26 24 36 31 16 12
31 23 71 53 18 14 33 20 39 15 3 -2 3 -23 2 -175 -1 -191 -1 -187 -17 -207 -5
-7 -26 -49 -29 -60 -1 -3 -5 -13 -10 -22 -5 -10 -9 -19 -9 -21 0 -1 -5 -12
-10 -23 -6 -11 -10 -21 -10 -22 0 -2 -9 -22 -28 -64 -5 -10 -9 -21 -9 -25 -1
-4 -5 -16 -10 -26 -5 -10 -9 -20 -10 -23 -1 -3 -5 -13 -10 -22 -5 -9 -9 -19
-10 -22 -1 -3 -4 -11 -7 -18 -11 -25 -10 -57 2 -63 25 -13 47 1 59 37 2 6 7
18 11 27 5 9 8 17 8 18 0 2 3 10 7 18 4 9 9 21 11 26 2 6 6 16 10 23 3 7 7 18
8 24 1 6 5 16 8 22 3 6 7 17 10 23 4 15 11 28 18 37 3 4 7 10 8 14 1 4 6 13 9
20 4 7 8 18 10 24 2 6 6 17 10 24 4 7 8 18 10 23 8 26 13 23 34 -17 9 -17 18
-34 20 -38 3 -4 12 -22 22 -41 9 -19 20 -39 24 -45 9 -16 18 -33 23 -48 4 -12
9 -22 23 -45 4 -7 19 -37 34 -67 33 -68 32 -66 58 -66 21 0 28 8 39 42 4 15
15 47 33 98 5 14 9 27 9 29 0 5 8 27 15 44 2 7 8 21 11 32 4 11 8 22 11 25 3
3 8 14 11 24 18 50 22 49 40 -7 6 -17 13 -41 17 -52 4 -11 7 -22 7 -24 0 -2 2
-11 5 -19 3 -8 5 -16 5 -18 0 -2 4 -15 8 -29 4 -13 13 -41 20 -62 6 -21 15
-47 18 -58 8 -25 15 -29 45 -26 25 3 26 16 4 80 -8 24 -18 54 -22 67 -4 13
-13 41 -20 63 -7 22 -13 41 -13 43 0 2 -16 52 -22 68 -1 3 -6 19 -12 37 -39
122 -40 125 -57 125 -19 0 -33 -12 -33 -29 0 -3 -2 -8 -6 -11 -3 -4 -7 -13 -9
-20 -7 -25 -15 -51 -21 -65 -3 -8 -12 -33 -19 -56 -8 -23 -16 -47 -18 -52 -8
-17 -24 -67 -26 -80 -1 -4 -3 -12 -6 -17 -2 -5 -6 -15 -9 -23 -5 -15 -8 -20
-13 -18 -3 1 -27 46 -32 61 -2 5 -5 12 -7 15 -2 2 -11 20 -21 38 -9 19 -20 41
-25 49 -5 8 -15 27 -22 42 -8 15 -17 32 -21 38 -4 6 -15 26 -24 44 -9 18 -21
41 -27 50 -14 24 -14 24 -14 89 1 48 0 58 -3 68 -2 10 -3 22 -3 74 0 62 -2
105 -5 120 -6 26 7 31 30 13 5 -4 17 -11 27 -17 35 -19 43 -24 58 -34 8 -6 22
-14 31 -19 9 -5 20 -12 24 -16 18 -16 63 -22 76 -11 14 12 8 42 -10 54 -6 4
-13 9 -16 13 -4 3 -9 6 -12 7 -12 2 -32 11 -43 18 -6 4 -18 11 -27 15 -8 5
-18 10 -21 12 -3 2 -11 7 -19 11 -8 3 -21 11 -30 16 -9 5 -23 12 -31 16 -37
18 -38 20 -38 71 1 21 0 44 -1 49 -1 7 -1 12 1 15 3 5 3 29 0 37 -1 3 -3 12
-3 20 -2 23 -40 35 -56 18z"/>
</g>
</svg>
