<?xml version="1.0" standalone="no"?>
<!DOCTYPE svg PUBLIC "-//W3C//DTD SVG 20010904//EN"
 "http://www.w3.org/TR/2001/REC-SVG-20010904/DTD/svg10.dtd">
<svg version="1.0" xmlns="http://www.w3.org/2000/svg"
 width="78.000000pt" height="148.000000pt" viewBox="0 0 78.000000 148.000000"
 preserveAspectRatio="xMidYMid meet">
<metadata>
Created by potrace 1.16, written by Peter Selinger 2001-2019
</metadata>
<g transform="translate(0.000000,148.000000) scale(0.100000,-0.100000)"
fill="#000000" stroke="none">
<path d="M335 1432 c-3 -3 -5 -54 -5 -113 0 -102 -1 -107 -22 -113 -24 -6
-160 -90 -235 -146 -50 -36 -56 -66 -17 -76 21 -5 47 8 142 72 64 44 121 79
126 79 5 0 8 -119 7 -265 l-2 -265 -38 -80 c-22 -44 -49 -105 -62 -135 -28
-69 -72 -166 -112 -246 -38 -75 -33 -97 20 -92 33 3 38 7 44 34 3 17 13 44 21
60 9 16 31 63 48 104 18 41 41 93 51 115 9 22 27 63 39 90 l21 50 25 -30 c13
-16 24 -34 24 -38 0 -5 17 -39 39 -75 63 -109 81 -142 81 -151 0 -5 21 -43 46
-85 39 -66 49 -76 74 -76 39 0 44 37 12 92 -13 24 -33 58 -43 76 -34 59 -62
106 -87 152 -13 25 -30 52 -36 60 -7 8 -31 47 -54 86 l-41 71 -2 267 c-1 147
1 269 4 273 6 6 155 -68 199 -99 18 -12 40 -18 60 -16 28 2 33 7 33 28 0 21
-16 32 -130 90 -71 36 -128 70 -125 75 3 6 57 9 143 6 l137 -3 0 23 c-1 34
-33 100 -61 125 -34 29 -94 44 -183 44 -58 0 -76 3 -76 14 0 13 -55 28 -65 18z
m155 -96 c34 -42 -22 -92 -75 -68 -25 11 -25 13 -10 41 20 39 63 52 85 27z
m133 -34 c27 -24 20 -32 -28 -32 -43 0 -45 1 -45 28 0 16 3 32 6 35 8 7 41 -8
67 -31z"/>
</g>
</svg>
