<?xml version="1.0" standalone="no"?>
<!DOCTYPE svg PUBLIC "-//W3C//DTD SVG 20010904//EN"
 "http://www.w3.org/TR/2001/REC-SVG-20010904/DTD/svg10.dtd">
<svg version="1.0" xmlns="http://www.w3.org/2000/svg"
 width="312.000000pt" height="590.000000pt" viewBox="0 0 312.000000 590.000000"
 preserveAspectRatio="xMidYMid meet">
<metadata>
Created by potrace 1.16, written by Peter Selinger 2001-2019
</metadata>
<g transform="translate(0.000000,590.000000) scale(0.500000,-0.500000)"
fill="#000000" stroke="none">
<path d="M269 1141 c-4 -4 -4 1 -3 -87 0 -86 3 -77 -30 -93 -13 -6 -27 -14
-32 -18 -5 -4 -9 -7 -11 -7 -1 0 -5 -3 -10 -7 -5 -4 -14 -10 -21 -13 -7 -3
-17 -10 -23 -15 -5 -4 -15 -10 -21 -13 -22 -9 -34 -16 -44 -26 -7 -5 -12 -10
-13 -10 -21 0 -41 -50 -25 -62 10 -8 41 -5 54 5 6 5 15 11 20 13 5 2 13 8 18
12 6 4 11 8 12 8 1 0 6 4 11 8 5 4 11 8 13 9 3 1 8 4 12 7 3 3 11 8 16 11 10
5 29 18 45 32 9 7 21 12 26 10 2 -1 3 -30 2 -209 -1 -231 -1 -217 -15 -236 -3
-5 -8 -13 -9 -17 -2 -5 -12 -27 -23 -49 -14 -28 -20 -42 -21 -49 0 -7 -5 -19
-14 -37 -7 -14 -14 -31 -16 -37 -3 -11 -8 -21 -32 -66 -4 -7 -7 -15 -8 -19 -2
-7 -4 -13 -26 -56 -35 -67 -33 -91 8 -91 28 0 29 1 39 31 4 13 13 34 21 48 7
14 13 28 14 33 1 4 9 23 19 43 10 20 19 40 19 44 2 7 26 61 34 75 2 4 5 11 6
15 2 9 26 58 31 64 5 5 3 7 19 -13 4 -5 11 -18 17 -30 6 -12 14 -26 18 -32 4
-5 12 -19 17 -29 5 -10 11 -21 13 -24 3 -3 7 -11 11 -19 4 -8 9 -18 12 -21 6
-9 23 -43 23 -47 0 -8 22 -48 30 -56 5 -5 9 -11 11 -18 2 -6 5 -13 7 -16 3 -3
9 -13 13 -21 16 -31 52 -37 66 -12 6 12 4 37 -4 48 -4 5 -10 16 -15 25 -4 9
-10 18 -12 20 -2 2 -9 14 -15 27 -6 13 -14 26 -18 30 -3 4 -10 16 -16 26 -5
11 -12 22 -15 26 -3 4 -8 13 -12 21 -4 8 -9 17 -12 21 -3 4 -10 16 -16 28 -6
12 -13 24 -16 28 -3 3 -11 16 -17 29 -6 12 -14 25 -17 28 -3 3 -9 13 -14 22
-4 9 -9 18 -11 19 -13 11 -13 11 -13 149 0 69 -1 162 -2 206 -3 113 -9 107 72
62 7 -3 19 -9 26 -12 18 -6 34 -15 40 -20 34 -31 94 -37 97 -9 3 21 0 25 -27
38 -13 6 -26 13 -30 16 -3 2 -20 11 -36 18 -17 8 -33 16 -36 19 -4 3 -20 12
-37 20 -59 29 -55 30 78 27 118 -2 113 -5 102 47 -4 23 -16 45 -36 65 -17 18
-24 22 -50 30 -8 2 -20 6 -27 8 -13 4 -18 4 -73 4 -64 -1 -63 -1 -63 10 0 13
-44 22 -55 11z m119 -68 c6 -5 10 -33 6 -47 -4 -19 -68 -18 -70 1 -2 30 46 64
64 46z m82 -15 c4 -2 9 -4 12 -4 11 0 33 -28 27 -35 -17 -17 -65 -2 -65 20 0
27 4 30 26 19z"/>
</g>
</svg>
