<?xml version="1.0" standalone="no"?>
<!DOCTYPE svg PUBLIC "-//W3C//DTD SVG 20010904//EN"
 "http://www.w3.org/TR/2001/REC-SVG-20010904/DTD/svg10.dtd">
<svg version="1.0" xmlns="http://www.w3.org/2000/svg"
 width="53.000000pt" height="100.000000pt" viewBox="0 0 53.000000 100.000000"
 preserveAspectRatio="xMidYMid meet">
<metadata>
Created by potrace 1.16, written by Peter Selinger 2001-2019
</metadata>
<g transform="translate(0.000000,100.000000) scale(0.100000,-0.100000)"
fill="#000000" stroke="none">
<path d="M220 909 c1 -35 2 -69 1 -76 0 -6 -38 -32 -84 -57 -91 -49 -123 -77
-114 -101 11 -26 41 -17 116 36 40 28 75 48 79 44 4 -4 6 -84 4 -178 l-3 -172
-81 -172 c-46 -98 -78 -178 -75 -187 8 -19 40 -21 55 -3 5 6 33 68 62 137 29
69 58 131 65 138 10 11 27 -14 91 -135 70 -130 82 -148 104 -148 46 0 35 35
-64 198 l-94 158 -7 178 c-6 132 -4 180 4 186 7 4 43 -12 82 -35 72 -43 111
-49 117 -17 3 13 -16 27 -82 58 -47 22 -86 45 -86 51 0 6 30 9 88 7 83 -4 87
-3 90 18 4 28 -23 79 -49 93 -11 6 -50 15 -87 20 -37 5 -82 12 -100 16 l-34 7
2 -64z"/>
</g>
</svg>
