<?xml version="1.0" standalone="no"?>
<!DOCTYPE svg PUBLIC "-//W3C//DTD SVG 20010904//EN"
 "http://www.w3.org/TR/2001/REC-SVG-20010904/DTD/svg10.dtd">
<svg version="1.0" xmlns="http://www.w3.org/2000/svg"
 width="292.000000pt" height="576.000000pt" viewBox="0 0 292.000000 576.000000"
 preserveAspectRatio="xMidYMid meet">
<metadata>
Created by potrace 1.16, written by Peter Selinger 2001-2019
</metadata>
<g transform="translate(0.000000,576.000000) scale(0.500000,-0.500000)"
fill="#000000" stroke="none">
<path d="M267 1122 c-5 -3 -7 -10 -7 -21 0 -7 -1 -14 -3 -17 -2 -5 -3 -6 -30
-18 -9 -4 -20 -11 -25 -15 -4 -4 -25 -16 -47 -27 -22 -11 -41 -21 -43 -23 -2
-1 -7 -4 -11 -7 -51 -25 -60 -40 -59 -93 1 -31 10 -45 29 -48 4 -1 11 -3 15
-4 10 -5 13 -4 76 18 65 23 86 27 95 18 6 -6 4 -80 -2 -90 -5 -7 -31 -27 -36
-27 -1 0 -6 -3 -11 -8 -5 -4 -13 -10 -18 -12 -5 -3 -14 -10 -19 -15 -6 -4 -14
-10 -19 -13 -5 -2 -12 -7 -16 -10 -4 -3 -10 -7 -14 -9 -4 -2 -11 -7 -16 -12
-5 -4 -13 -9 -17 -11 -4 -2 -17 -11 -27 -19 -10 -9 -22 -19 -27 -22 -10 -8
-13 -14 -13 -33 0 -31 16 -35 46 -10 7 5 17 13 24 18 25 19 46 35 58 44 23 17
51 38 58 41 4 2 13 10 21 17 32 31 31 37 30 -132 -2 -156 -1 -152 -21 -184 -5
-7 -11 -19 -15 -28 -3 -8 -11 -23 -16 -32 -17 -28 -20 -34 -42 -76 -11 -23
-25 -48 -30 -56 -6 -8 -22 -38 -36 -67 -14 -29 -29 -56 -32 -61 -26 -35 -25
-54 3 -56 25 -1 37 8 47 34 3 7 7 16 10 21 3 4 29 55 58 112 84 165 100 195
105 195 3 0 9 -9 49 -83 22 -40 51 -93 65 -118 41 -73 54 -98 54 -100 0 -1 2
-4 4 -8 3 -3 9 -14 15 -25 13 -24 18 -28 38 -28 34 0 34 6 5 57 -11 20 -30 54
-42 76 -33 59 -97 171 -126 222 -14 24 -28 48 -30 53 -5 10 -11 299 -6 308 4
7 16 4 31 -6 4 -4 17 -12 27 -20 10 -7 23 -16 29 -19 5 -3 21 -14 35 -24 14
-9 28 -19 31 -20 3 -2 12 -8 20 -13 34 -23 48 -23 60 -1 8 17 1 29 -27 44 -8
5 -20 11 -26 15 -6 4 -21 13 -34 21 -13 7 -28 17 -34 21 -6 4 -15 9 -20 12 -5
3 -13 8 -18 11 -5 4 -16 10 -25 15 -9 4 -20 10 -24 14 -4 4 -11 8 -15 10 -12
6 -12 8 -12 52 1 53 -4 50 55 37 124 -26 123 -26 148 0 33 32 29 94 -7 108 -4
2 -9 5 -11 7 -12 10 -46 25 -65 27 -6 1 -15 3 -20 5 -4 2 -13 5 -19 6 -5 1
-15 3 -21 5 -6 2 -15 3 -19 3 -5 0 -12 1 -17 3 -5 1 -12 3 -16 4 -14 2 -17 8
-18 36 -1 31 -3 33 -23 33 -6 0 -13 -1 -14 -2z m-5 -101 c1 -2 2 -16 3 -30 2
-41 -3 -53 -25 -54 l-11 0 -1 34 c0 39 1 42 16 47 4 1 8 3 9 4 3 3 7 2 9 -1z
m72 -11 c3 -3 4 -7 4 -13 0 -4 1 -18 1 -29 2 -25 1 -27 -14 -29 -21 -3 -36 66
-16 74 6 2 21 1 25 -3z m62 -12 c6 -3 15 -7 20 -8 11 -3 12 -7 12 -35 0 -31
-1 -32 -20 -31 -40 1 -42 3 -43 43 -2 40 3 45 31 31z m-196 -12 c5 -5 3 -61
-2 -66 -14 -12 -41 -18 -46 -10 -11 21 -4 57 14 63 5 2 11 5 14 7 5 4 13 8 16
8 1 0 2 -1 4 -2z m276 -13 c10 -5 20 -26 20 -43 0 -8 -12 -18 -20 -18 -19 0
-21 4 -20 37 1 28 5 32 20 24z m-355 -37 c5 -32 3 -36 -11 -41 -21 -7 -27 1
-15 22 13 24 24 32 26 19z"/>
</g>
</svg>
