<?xml version="1.0" standalone="no"?>
<!DOCTYPE svg PUBLIC "-//W3C//DTD SVG 20010904//EN"
 "http://www.w3.org/TR/2001/REC-SVG-20010904/DTD/svg10.dtd">
<svg version="1.0" xmlns="http://www.w3.org/2000/svg"
 width="74.000000pt" height="144.000000pt" viewBox="0 0 74.000000 144.000000"
 preserveAspectRatio="xMidYMid meet">
<metadata>
Created by potrace 1.16, written by Peter Selinger 2001-2019
</metadata>
<g transform="translate(0.000000,144.000000) scale(0.100000,-0.100000)"
fill="#000000" stroke="none">
<path d="M330 1376 c0 -25 -15 -35 -194 -132 -66 -36 -86 -61 -86 -108 0 -46
20 -73 56 -78 10 -2 58 10 105 26 47 16 93 27 102 23 21 -8 24 -95 5 -119 -7
-8 -67 -52 -133 -97 -66 -45 -127 -87 -136 -94 -23 -18 -31 -50 -16 -70 12
-17 13 -17 32 0 11 10 66 51 122 92 57 40 106 77 109 82 3 5 12 9 20 9 13 0
14 -26 11 -188 l-5 -187 -34 -65 c-19 -36 -48 -90 -65 -120 -16 -30 -54 -100
-83 -155 -29 -55 -62 -112 -72 -128 -17 -23 -17 -28 -4 -33 29 -11 60 1 76 31
9 17 60 116 114 220 54 105 101 193 105 197 3 4 17 -14 31 -40 14 -26 54 -99
90 -162 36 -63 75 -135 88 -160 13 -25 31 -55 40 -66 22 -28 60 -40 67 -21 5
11 -234 445 -265 482 -12 14 -21 403 -10 410 5 3 63 -30 129 -75 66 -44 127
-80 134 -80 38 0 46 54 10 67 -10 4 -78 42 -150 86 l-133 79 0 53 c0 30 4 57
10 60 5 3 35 -1 67 -9 32 -8 80 -18 106 -22 44 -6 51 -4 78 22 73 70 13 151
-136 183 -143 32 -135 27 -135 71 0 36 -3 40 -25 40 -20 0 -25 -5 -25 -24z
m10 -154 c0 -37 -4 -44 -26 -52 -14 -6 -27 -10 -30 -10 -2 0 -4 22 -4 49 0 39
4 51 23 64 28 19 37 7 37 -51z m78 36 c7 -7 12 -29 12 -50 0 -34 -3 -38 -25
-38 -14 0 -25 3 -26 8 0 4 -2 16 -5 27 -10 50 16 81 44 53z m120 -68 c-3 -33
-5 -35 -38 -35 -33 0 -35 2 -38 39 -5 62 1 69 43 49 32 -15 36 -21 33 -53z
m-278 6 c0 -43 -20 -69 -51 -64 -20 2 -24 9 -24 37 0 28 6 38 30 51 37 21 45
17 45 -24z m360 -9 c13 -24 13 -28 -2 -43 -25 -25 -48 -11 -48 29 0 55 23 62
50 14z m-464 -50 c-1 -13 -9 -23 -20 -25 -31 -6 -38 13 -15 42 23 29 37 23 35
-17z"/>
</g>
</svg>
