<?xml version="1.0" standalone="no"?>
<!DOCTYPE svg PUBLIC "-//W3C//DTD SVG 20010904//EN"
 "http://www.w3.org/TR/2001/REC-SVG-20010904/DTD/svg10.dtd">
<svg version="1.0" xmlns="http://www.w3.org/2000/svg"
 width="330.000000pt" height="590.000000pt" viewBox="0 0 330.000000 590.000000"
 preserveAspectRatio="xMidYMid meet">
<metadata>
Created by potrace 1.16, written by Peter Selinger 2001-2019
</metadata>
<g transform="translate(0.000000,590.000000) scale(0.500000,-0.500000)"
fill="#000000" stroke="none">
<path d="M235 1142 c-13 -4 -13 5 -10 -152 2 -120 2 -120 -4 -125 -3 -3 -15
-14 -26 -25 -23 -22 -36 -32 -50 -42 -5 -4 -22 -19 -37 -33 -15 -14 -35 -32
-44 -39 -25 -20 -32 -32 -30 -54 3 -28 45 -30 66 -3 5 7 16 18 23 24 8 7 21
19 30 27 9 9 20 18 24 22 4 3 15 13 24 23 28 29 35 7 27 -78 -1 -11 -3 -55 -4
-98 -2 -100 -4 -127 -11 -144 -3 -6 -6 -15 -7 -18 -9 -28 -12 -42 -14 -53 -1
-8 -6 -20 -13 -35 -6 -13 -13 -31 -17 -44 -3 -13 -10 -34 -14 -46 -5 -13 -11
-35 -14 -49 -9 -36 -16 -57 -35 -97 -11 -24 -11 -31 -3 -43 11 -16 12 -17 34
-17 32 0 23 -18 80 159 53 162 51 158 58 154 4 -2 23 -40 97 -192 64 -133 65
-134 99 -116 20 10 20 20 -2 66 -26 55 -39 81 -52 105 -7 14 -16 31 -18 38 -9
26 -13 35 -24 58 -6 13 -13 28 -14 32 -1 4 -4 11 -6 15 -2 4 -4 8 -4 9 0 3
-20 45 -32 66 -11 20 -11 20 -12 44 -1 13 -3 35 -4 48 -3 41 -7 225 -4 230 4
9 36 -9 59 -33 3 -4 12 -9 19 -13 7 -4 20 -12 28 -19 37 -30 73 -24 91 16 9
19 15 28 32 51 10 13 20 28 23 32 7 11 28 43 42 63 36 51 36 84 0 88 -13 1
-32 -12 -32 -23 0 -1 -3 -6 -7 -11 -4 -5 -8 -13 -10 -17 -3 -8 -27 -44 -51
-79 -14 -20 -19 -27 -34 -49 -15 -24 -14 -24 -70 14 -14 9 -29 18 -32 20 -57
29 -57 50 -2 65 4 1 14 5 20 9 22 13 32 17 50 18 13 1 19 3 26 6 4 3 12 7 18
8 9 3 21 14 28 27 3 6 5 38 3 48 -6 31 -59 65 -118 76 -13 2 -32 6 -41 7 -9 2
-21 4 -27 5 -16 3 -19 10 -19 48 1 24 -1 26 -24 26 -8 0 -17 0 -19 1 -2 0 -7
0 -10 -1z m83 -145 c11 -11 18 -68 10 -78 -9 -11 -32 -15 -38 -7 -5 6 -5 79 0
85 4 5 22 6 28 0z m94 -15 c22 -13 21 -20 -5 -33 -23 -11 -29 -9 -29 11 0 24
15 33 34 22z"/>
</g>
</svg>
