<?xml version="1.0" standalone="no"?>
<!DOCTYPE svg PUBLIC "-//W3C//DTD SVG 20010904//EN"
 "http://www.w3.org/TR/2001/REC-SVG-20010904/DTD/svg10.dtd">
<svg version="1.0" xmlns="http://www.w3.org/2000/svg"
 width="82.000000pt" height="148.000000pt" viewBox="0 0 82.000000 148.000000"
 preserveAspectRatio="xMidYMid meet">
<metadata>
Created by potrace 1.16, written by Peter Selinger 2001-2019
</metadata>
<g transform="translate(0.000000,148.000000) scale(0.100000,-0.100000)"
fill="#000000" stroke="none">
<path d="M278 1423 c-1 -5 -2 -84 -2 -177 l-1 -169 -65 -55 c-144 -122 -171
-151 -168 -180 2 -20 9 -28 27 -30 19 -3 43 15 112 84 49 48 91 85 95 81 10
-9 5 -289 -6 -367 -10 -71 -25 -124 -68 -245 -16 -45 -34 -103 -41 -130 -7
-26 -21 -66 -32 -89 -10 -22 -19 -47 -19 -57 0 -24 25 -41 55 -37 25 3 30 12
71 138 24 74 51 162 60 195 10 33 21 64 25 69 4 5 28 -36 54 -90 117 -253 149
-309 174 -309 50 0 48 25 -11 146 -31 63 -72 155 -93 204 -21 50 -46 105 -57
122 -16 28 -21 63 -29 225 -5 112 -5 196 0 201 5 5 42 -17 86 -52 43 -34 88
-61 100 -61 17 0 43 31 119 144 53 79 96 150 96 158 0 39 -53 51 -71 16 -24
-47 -144 -228 -151 -228 -17 0 -168 105 -168 117 0 8 12 18 28 24 15 6 47 20
71 30 24 11 46 18 48 15 9 -9 80 32 87 49 10 28 7 60 -10 84 -23 32 -108 69
-176 77 -44 5 -59 11 -63 25 -4 10 -3 23 0 29 3 6 3 19 0 30 -5 15 -15 20 -41
20 -19 0 -35 -3 -36 -7z m123 -190 c5 -15 9 -43 7 -62 -3 -31 -7 -36 -30 -39
-28 -3 -28 -3 -28 56 0 32 3 62 7 65 14 15 34 6 44 -20z m110 -3 c10 -6 19
-17 19 -24 0 -15 -47 -39 -61 -31 -13 9 -11 39 3 53 15 15 15 15 39 2z"/>
</g>
</svg>
