<?xml version="1.0" standalone="no"?>
<!DOCTYPE svg PUBLIC "-//W3C//DTD SVG 20010904//EN"
 "http://www.w3.org/TR/2001/REC-SVG-20010904/DTD/svg10.dtd">
<svg version="1.0" xmlns="http://www.w3.org/2000/svg"
 width="55.000000pt" height="100.000000pt" viewBox="0 0 55.000000 100.000000"
 preserveAspectRatio="xMidYMid meet">
<metadata>
Created by potrace 1.16, written by Peter Selinger 2001-2019
</metadata>
<g transform="translate(0.000000,100.000000) scale(0.100000,-0.100000)"
fill="#000000" stroke="none">
<path d="M183 954 c-3 -9 -3 -62 0 -119 l6 -102 -70 -57 c-85 -70 -107 -100
-89 -121 19 -23 29 -19 85 40 29 30 59 55 66 55 9 0 10 -31 5 -132 -6 -126 -9
-141 -63 -301 -59 -177 -60 -191 -8 -185 16 3 27 25 57 127 21 68 41 128 46
133 5 5 32 -44 62 -114 61 -140 65 -148 92 -148 36 0 31 31 -25 148 -95 198
-95 198 -103 336 -5 89 -4 126 4 126 6 0 26 -13 44 -29 41 -35 69 -50 85 -44
7 3 40 45 74 95 62 93 73 133 34 133 -13 0 -33 -23 -65 -75 -25 -41 -52 -76
-60 -77 -8 -2 -37 11 -63 28 -59 36 -53 51 29 75 30 8 61 22 69 30 16 16 20
52 7 70 -10 16 -61 40 -102 49 -45 9 -60 22 -60 51 0 19 -5 24 -25 24 -14 0
-28 -7 -32 -16z"/>
</g>
</svg>
