<?xml version="1.0" standalone="no"?>
<!DOCTYPE svg PUBLIC "-//W3C//DTD SVG 20010904//EN"
 "http://www.w3.org/TR/2001/REC-SVG-20010904/DTD/svg10.dtd">
<svg version="1.0" xmlns="http://www.w3.org/2000/svg"
 width="560.000000pt" height="590.000000pt" viewBox="0 0 560.000000 590.000000"
 preserveAspectRatio="xMidYMid meet">
<metadata>
Created by potrace 1.16, written by Peter Selinger 2001-2019
</metadata>
<g transform="translate(0.000000,590.000000) scale(0.500000,-0.500000)"
fill="#000000" stroke="none">
<path d="M89 1120 c-3 -2 -6 -6 -7 -8 -9 -17 -1 -728 8 -741 3 -4 6 -10 7 -14
2 -9 11 -27 18 -36 4 -5 6 -10 7 -19 1 -11 18 -48 26 -57 2 -2 7 -11 12 -20 4
-9 10 -19 13 -22 2 -3 6 -9 8 -13 5 -10 30 -35 41 -42 5 -2 11 -7 14 -9 25
-20 63 -3 83 36 5 10 12 21 16 25 13 12 13 13 13 68 0 46 0 52 4 60 2 5 4 12
4 15 0 4 2 12 4 18 7 15 8 235 1 247 -6 11 -7 89 -1 108 2 7 4 15 5 19 2 8 6
6 19 -6 18 -16 60 -22 88 -11 5 2 13 4 17 4 4 0 9 2 13 5 4 3 11 7 16 10 5 3
13 9 17 12 4 4 9 7 10 7 2 0 6 3 11 7 5 4 11 9 15 10 3 2 11 8 16 13 10 9 28
20 34 20 4 0 4 0 1 -110 -2 -75 -3 -84 -6 -90 -4 -7 -4 -13 -4 -75 0 -73 1
-69 -13 -87 -7 -9 -10 -12 -16 -13 -9 -1 -91 -41 -101 -49 -20 -16 -21 -18
-22 -64 -1 -36 -2 -42 -6 -50 -4 -8 -4 -12 -4 -53 0 -58 -1 -60 -27 -70 -10
-4 -17 -5 -28 -5 -32 0 -49 -24 -30 -43 12 -12 93 -13 110 -1 4 3 11 8 15 10
23 12 26 20 26 62 0 27 1 35 3 40 2 4 4 11 4 17 1 5 3 14 5 19 3 8 4 15 4 40
0 33 5 43 24 51 3 2 10 6 14 10 5 4 10 7 16 8 6 1 11 4 21 13 8 7 15 12 16 12
2 0 7 3 12 8 13 12 16 13 23 8 9 -7 19 -15 25 -19 3 -1 9 -5 13 -8 4 -3 9 -5
15 -5 20 0 43 -16 49 -34 4 -11 1 -74 -4 -84 -3 -6 -4 -13 -4 -57 -2 -61 -2
-59 21 -81 19 -18 19 -18 58 -18 24 0 30 -1 39 -4 32 -13 62 -3 62 21 0 24
-27 37 -76 35 -36 -1 -51 26 -34 59 2 3 4 11 5 16 1 6 3 15 5 21 3 6 4 15 4
25 0 11 1 17 4 23 5 10 6 84 1 94 -4 7 -14 17 -24 22 -5 2 -11 6 -15 9 -3 3
-10 6 -16 7 -6 1 -12 3 -13 4 -4 3 -43 19 -52 22 -14 3 -20 10 -22 22 -1 6 -2
13 -4 16 -5 11 -8 65 -5 84 1 6 1 44 0 96 -2 83 -2 87 2 97 2 5 4 13 4 17 0
13 10 18 21 10 10 -9 31 -22 45 -30 8 -5 19 -12 25 -16 5 -5 10 -8 11 -8 1 0
6 -3 11 -7 4 -3 11 -8 14 -9 7 -4 31 -28 31 -31 0 -1 4 -7 8 -14 5 -6 11 -17
14 -25 4 -7 10 -17 15 -22 5 -6 12 -17 16 -26 12 -26 26 -33 51 -28 11 3 25 0
37 -6 29 -14 60 4 51 31 -2 7 -22 27 -27 27 -1 0 -6 3 -11 7 -5 3 -13 8 -17
11 -8 4 -29 24 -29 28 0 2 -4 8 -9 14 -5 7 -9 13 -9 14 0 1 -7 9 -15 18 -8 8
-16 19 -19 23 -2 4 -5 10 -8 12 -2 2 -5 8 -7 14 -2 9 -4 12 -9 14 -4 2 -15 12
-25 21 -11 11 -23 20 -28 22 -6 3 -10 6 -13 10 -5 11 -9 13 -22 15 -12 1 -12
2 -16 9 -5 10 -11 14 -25 16 -10 1 -13 3 -18 8 -6 8 -18 15 -29 17 -14 3 -17
48 -6 74 7 15 10 141 4 149 -11 15 -74 10 -74 -6 0 -3 -2 -9 -4 -14 -4 -9 -4
-12 -3 -38 3 -92 3 -141 -2 -145 -10 -8 -24 -19 -26 -19 -2 0 -7 -3 -12 -8 -6
-4 -21 -12 -33 -19 -14 -7 -24 -13 -25 -15 -2 -7 -11 -16 -18 -19 -3 -1 -9 -5
-13 -8 -4 -4 -11 -8 -15 -11 -5 -2 -10 -5 -11 -7 -3 -4 -22 -13 -27 -13 -5 0
-35 22 -47 34 -7 7 -14 12 -17 13 -24 5 -26 13 -25 105 0 4 1 25 2 48 3 75 3
101 -2 109 -11 18 -44 18 -55 0 -4 -6 -1 -404 3 -414 2 -6 2 -8 -1 -16 -3 -9
-3 -24 -3 -173 0 -158 0 -162 -4 -170 -4 -7 -4 -12 -4 -44 0 -28 -1 -39 -3
-45 -2 -4 -5 -12 -6 -17 -3 -10 -18 -28 -22 -28 -9 0 -23 11 -29 22 -2 5 -8
12 -13 18 -5 6 -10 13 -12 17 -2 3 -6 9 -9 13 -4 4 -7 12 -9 18 -1 5 -5 13 -9
17 -5 7 -7 11 -7 21 -2 19 -2 21 -12 32 -10 12 -13 17 -13 27 0 3 -1 9 -2 13
-2 5 -2 8 0 14 2 7 2 10 -1 19 -3 9 -3 13 -1 18 3 8 2 13 -3 26 -5 10 -5 12
-3 20 3 13 3 30 -1 39 -6 11 -7 194 -2 213 6 18 7 83 2 97 -2 7 -3 13 -2 19 2
11 2 22 -1 38 -2 16 0 42 4 59 2 6 2 10 0 18 -4 12 -5 37 -2 48 2 6 2 11 0 19
-2 9 -2 12 2 25 4 13 4 16 2 23 -1 4 -3 12 -5 18 -5 17 -31 25 -46 13z"/>
</g>
</svg>
