<?xml version="1.0" standalone="no"?>
<!DOCTYPE svg PUBLIC "-//W3C//DTD SVG 20010904//EN"
 "http://www.w3.org/TR/2001/REC-SVG-20010904/DTD/svg10.dtd">
<svg version="1.0" xmlns="http://www.w3.org/2000/svg"
 width="140.000000pt" height="148.000000pt" viewBox="0 0 140.000000 148.000000"
 preserveAspectRatio="xMidYMid meet">
<metadata>
Created by potrace 1.16, written by Peter Selinger 2001-2019
</metadata>
<g transform="translate(0.000000,148.000000) scale(0.100000,-0.100000)"
fill="#000000" stroke="none">
<path d="M100 1393 c-1 -5 0 -210 0 -458 l0 -450 26 -55 c78 -170 109 -219
160 -250 45 -28 70 -19 111 43 39 56 46 133 47 459 1 130 4 240 9 244 4 4 17
-2 30 -14 46 -43 119 -25 219 52 39 31 75 56 79 56 5 0 6 -12 4 -27 -8 -46
-25 -292 -25 -362 0 -37 -4 -70 -8 -76 -4 -5 -36 -23 -71 -40 -112 -52 -108
-46 -116 -195 -4 -72 -11 -133 -16 -136 -5 -3 -28 -8 -51 -12 -37 -6 -43 -11
-46 -35 -3 -27 -3 -27 60 -27 57 0 82 8 118 37 4 4 11 51 26 197 6 51 10 60
36 75 17 9 50 31 74 49 l44 33 33 -26 c19 -14 43 -25 54 -25 11 0 28 -9 38
-20 16 -18 17 -31 9 -142 -9 -120 -9 -123 14 -150 20 -24 31 -28 76 -28 29 0
57 -5 64 -12 18 -18 64 10 60 36 -3 23 -32 34 -94 35 -24 1 -44 6 -46 13 -3 7
3 54 13 103 10 50 18 111 19 137 0 42 -4 50 -33 72 -19 15 -39 26 -45 26 -6 0
-31 9 -55 19 -37 16 -46 26 -52 53 -12 51 -9 378 3 390 21 21 222 -131 222
-169 0 -5 8 -18 18 -29 9 -10 23 -31 29 -46 11 -24 18 -28 53 -28 23 0 50 -5
61 -11 15 -7 24 -7 35 2 25 21 15 47 -29 78 -24 16 -67 62 -97 103 -66 90
-110 138 -127 138 -7 0 -13 4 -13 9 0 6 -11 16 -25 23 -13 7 -49 26 -80 42
-41 22 -54 34 -49 45 3 9 8 71 11 139 l6 122 -46 0 c-45 0 -45 -1 -51 -37 -3
-21 -4 -79 -2 -130 l4 -92 -39 -25 c-21 -14 -43 -26 -49 -26 -6 0 -22 -11 -36
-25 -33 -33 -96 -75 -112 -75 -7 0 -36 19 -63 42 l-49 41 0 158 c0 150 -1 158
-20 164 -49 16 -49 15 -49 -468 0 -600 -7 -687 -56 -687 -23 0 -105 131 -105
168 0 9 -7 23 -15 32 -22 25 -27 101 -30 545 -2 215 -3 396 -4 403 -1 13 -61
18 -61 5z"/>
</g>
</svg>
