<?xml version="1.0" standalone="no"?>
<!DOCTYPE svg PUBLIC "-//W3C//DTD SVG 20010904//EN"
 "http://www.w3.org/TR/2001/REC-SVG-20010904/DTD/svg10.dtd">
<svg version="1.0" xmlns="http://www.w3.org/2000/svg"
 width="95.000000pt" height="100.000000pt" viewBox="0 0 95.000000 100.000000"
 preserveAspectRatio="xMidYMid meet">
<metadata>
Created by potrace 1.16, written by Peter Selinger 2001-2019
</metadata>
<g transform="translate(0.000000,100.000000) scale(0.100000,-0.100000)"
fill="#000000" stroke="none">
<path d="M71 951 c-11 -7 -12 -64 -9 -317 5 -345 9 -364 83 -466 41 -56 76
-69 107 -42 45 40 51 77 53 286 0 108 3 200 7 203 3 3 17 1 31 -6 34 -15 66
-6 121 36 26 19 50 35 56 35 11 0 1 -267 -11 -292 -5 -9 -33 -29 -61 -45 -58
-31 -65 -45 -67 -144 -1 -60 -9 -72 -54 -83 -20 -5 -27 -12 -25 -24 3 -14 14
-17 57 -17 68 1 77 13 86 114 l7 78 44 32 c53 37 54 37 103 11 45 -23 49 -34
41 -122 -9 -105 0 -116 100 -121 36 -2 45 1 48 17 5 23 -14 36 -54 36 -18 0
-34 6 -37 13 -2 7 2 47 10 90 9 48 11 83 5 93 -5 9 -33 28 -63 43 -52 25 -54
27 -61 76 -12 90 -9 212 5 223 19 16 115 -62 156 -126 26 -40 40 -53 66 -58
74 -14 101 21 42 56 -18 11 -53 47 -77 80 -41 56 -68 79 -152 129 l-36 22 5
95 6 95 -34 -3 -34 -3 -3 -87 -3 -86 -75 -51 -76 -52 -34 21 c-42 27 -48 51
-40 149 7 83 -6 120 -37 108 -14 -5 -16 -51 -19 -375 -2 -296 -6 -372 -17
-386 -19 -23 -37 -6 -75 74 l-31 65 -3 305 c-4 325 -7 349 -51 321z"/>
</g>
</svg>
