<?xml version="1.0" standalone="no"?>
<!DOCTYPE svg PUBLIC "-//W3C//DTD SVG 20010904//EN"
 "http://www.w3.org/TR/2001/REC-SVG-20010904/DTD/svg10.dtd">
<svg version="1.0" xmlns="http://www.w3.org/2000/svg"
 width="476.000000pt" height="576.000000pt" viewBox="0 0 476.000000 576.000000"
 preserveAspectRatio="xMidYMid meet">
<metadata>
Created by potrace 1.16, written by Peter Selinger 2001-2019
</metadata>
<g transform="translate(0.000000,576.000000) scale(0.500000,-0.500000)"
fill="#000000" stroke="none">
<path d="M300 1094 c-18 -10 -18 -11 -15 -120 2 -69 6 -62 -66 -109 -12 -8
-23 -16 -25 -18 -3 -4 -77 -59 -85 -64 -3 -1 -11 -5 -17 -8 -22 -10 -36 -33
-29 -47 17 -34 35 -38 62 -13 18 15 49 41 60 49 5 4 18 14 28 22 10 8 27 22
39 31 38 30 35 34 33 -57 -1 -40 -2 -115 -3 -166 -2 -104 -1 -98 -17 -121 -3
-6 -8 -16 -10 -22 -3 -11 -66 -137 -141 -282 -52 -102 -52 -101 -23 -115 28
-13 51 -3 59 28 6 20 20 49 30 61 13 16 20 32 31 73 6 20 9 28 20 42 3 5 9 17
12 26 7 25 60 130 65 130 5 0 9 -5 18 -25 5 -10 18 -37 29 -60 11 -23 27 -55
35 -72 7 -16 21 -47 31 -67 12 -26 18 -41 20 -52 3 -16 8 -26 23 -52 20 -34
29 -40 49 -30 36 18 36 18 -13 115 -23 44 -43 85 -46 92 -3 6 -8 17 -11 24 -4
7 -17 33 -30 59 -13 26 -30 61 -39 79 -9 18 -16 35 -17 38 -1 3 -5 13 -10 21
l-8 14 2 66 c2 67 2 76 0 199 -1 81 -1 81 12 75 8 -4 55 -41 69 -55 12 -11 56
-41 68 -46 10 -5 20 -3 46 9 24 10 31 12 36 8 1 -2 2 -36 2 -141 0 -192 2
-248 10 -265 3 -7 7 -17 9 -22 15 -44 67 -73 130 -73 47 0 43 -1 86 12 37 11
72 61 79 114 1 6 3 15 4 18 2 9 1 198 -2 232 -2 20 -2 74 -2 167 1 135 1 138
-3 142 -12 14 -42 13 -55 -1 -6 -6 -6 -8 -3 -98 3 -67 6 -272 6 -393 0 -89 2
-83 -33 -120 -33 -36 -124 -33 -149 4 -10 14 -11 28 -16 147 -2 58 -5 344 -3
359 11 88 6 110 -25 110 -35 0 -40 -9 -37 -64 4 -55 1 -61 -41 -78 -28 -11
-11 -21 -137 74 -50 37 -45 26 -43 97 2 89 2 98 -3 107 -7 15 -29 20 -46 12z"/>
</g>
</svg>
