<?xml version="1.0" standalone="no"?>
<!DOCTYPE svg PUBLIC "-//W3C//DTD SVG 20010904//EN"
 "http://www.w3.org/TR/2001/REC-SVG-20010904/DTD/svg10.dtd">
<svg version="1.0" xmlns="http://www.w3.org/2000/svg"
 width="83.000000pt" height="100.000000pt" viewBox="0 0 83.000000 100.000000"
 preserveAspectRatio="xMidYMid meet">
<metadata>
Created by potrace 1.16, written by Peter Selinger 2001-2019
</metadata>
<g transform="translate(0.000000,100.000000) scale(0.100000,-0.100000)"
fill="#000000" stroke="none">
<path d="M250 945 c-7 -9 -11 -38 -9 -72 1 -32 1 -65 1 -74 -1 -9 -45 -45 -97
-79 -93 -62 -109 -82 -83 -108 19 -19 30 -15 101 48 38 33 73 58 78 54 7 -4 8
-57 4 -147 l-7 -142 -90 -177 c-52 -102 -88 -184 -85 -193 4 -8 18 -15 31 -15
27 0 51 42 129 224 18 44 38 81 44 83 9 3 41 -62 121 -248 11 -26 25 -50 31
-53 16 -11 51 3 51 20 0 8 -38 90 -84 182 l-84 167 -3 147 c-2 80 -1 149 3
153 3 4 30 -12 59 -35 45 -35 58 -41 93 -38 l41 3 5 -182 c5 -174 6 -182 29
-207 72 -76 213 -46 241 52 11 41 14 354 4 450 -5 40 -12 63 -22 67 -36 14
-39 -7 -34 -260 l5 -246 -23 -24 c-19 -20 -34 -25 -71 -25 -30 0 -51 5 -60 16
-10 12 -14 77 -16 272 l-2 257 -28 0 c-27 0 -28 -3 -33 -55 -5 -53 -6 -55 -35
-57 -22 -2 -46 9 -90 40 l-60 43 3 74 c2 72 -7 100 -33 100 -7 0 -18 -7 -25
-15z"/>
</g>
</svg>
