<?xml version="1.0" standalone="no"?>
<!DOCTYPE svg PUBLIC "-//W3C//DTD SVG 20010904//EN"
 "http://www.w3.org/TR/2001/REC-SVG-20010904/DTD/svg10.dtd">
<svg version="1.0" xmlns="http://www.w3.org/2000/svg"
 width="120.000000pt" height="144.000000pt" viewBox="0 0 120.000000 144.000000"
 preserveAspectRatio="xMidYMid meet">
<metadata>
Created by potrace 1.16, written by Peter Selinger 2001-2019
</metadata>
<g transform="translate(0.000000,144.000000) scale(0.100000,-0.100000)"
fill="#000000" stroke="none">
<path d="M367 1359 c-16 -10 -18 -21 -12 -112 3 -56 2 -107 -2 -113 -4 -6 -35
-29 -68 -52 -178 -124 -207 -146 -212 -159 -6 -15 24 -53 41 -53 6 0 62 41
123 90 62 50 115 90 118 90 3 0 2 -100 -2 -222 l-6 -222 -105 -205 c-57 -113
-115 -225 -128 -249 -31 -55 -30 -76 2 -91 33 -15 53 1 73 56 8 21 22 49 33
62 10 13 25 48 34 77 8 29 21 58 29 64 8 7 15 19 15 26 0 21 79 174 89 174 6
0 13 -10 16 -21 4 -12 38 -87 76 -166 38 -80 69 -149 69 -154 0 -18 52 -109
64 -110 22 -3 39 3 52 16 16 15 18 32 6 37 -4 2 -61 111 -127 243 l-119 240
-2 223 c-2 142 1 222 8 222 5 0 39 -25 74 -55 36 -30 79 -62 95 -70 27 -14 32
-14 69 5 31 16 41 17 45 8 2 -7 6 -121 8 -253 4 -280 9 -297 83 -345 56 -35
116 -40 193 -14 53 17 83 50 107 116 19 54 21 707 2 726 -18 18 -56 15 -66 -5
-4 -10 -5 -94 -1 -188 4 -93 8 -249 8 -346 l1 -176 -34 -39 c-32 -38 -35 -39
-99 -39 -59 0 -70 3 -93 27 l-27 27 -3 365 c-1 201 -5 370 -9 376 -9 15 -51
12 -64 -4 -7 -8 -9 -35 -5 -74 l7 -61 -34 -20 c-19 -12 -40 -21 -47 -21 -14 0
-167 107 -198 138 -14 14 -15 31 -10 118 7 96 6 103 -13 113 -24 13 -31 13
-54 0z"/>
</g>
</svg>
