<?xml version="1.0" standalone="no"?>
<!DOCTYPE svg PUBLIC "-//W3C//DTD SVG 20010904//EN"
 "http://www.w3.org/TR/2001/REC-SVG-20010904/DTD/svg10.dtd">
<svg version="1.0" xmlns="http://www.w3.org/2000/svg"
 width="122.000000pt" height="146.000000pt" viewBox="0 0 122.000000 146.000000"
 preserveAspectRatio="xMidYMid meet">
<metadata>
Created by potrace 1.16, written by Peter Selinger 2001-2019
</metadata>
<g transform="translate(0.000000,146.000000) scale(0.100000,-0.100000)"
fill="#000000" stroke="none">
<path d="M369 1405 c-3 -3 -4 -62 -2 -133 l4 -127 -140 -110 c-78 -60 -146
-111 -151 -113 -17 -6 -11 -48 8 -65 25 -23 32 -21 68 11 118 103 198 167 207
167 9 0 11 -61 8 -225 l-3 -225 -65 -165 c-36 -91 -71 -178 -78 -195 -7 -16
-18 -46 -25 -65 -7 -19 -19 -50 -27 -68 -18 -40 -11 -52 31 -52 48 0 40 -16
142 270 61 170 66 181 75 178 5 -2 57 -100 114 -217 58 -118 111 -218 117
-223 19 -11 76 -10 83 2 4 6 2 16 -3 23 -14 17 -62 108 -180 343 l-101 201 -1
202 c-1 112 1 205 4 208 3 3 52 -27 110 -66 57 -39 108 -71 113 -71 5 0 29 20
53 45 24 25 48 44 53 42 5 -1 9 -95 8 -211 -2 -208 -2 -208 24 -247 28 -43 72
-66 150 -79 42 -7 57 -4 95 15 87 44 82 18 76 407 -3 189 -5 351 -6 361 0 13
-9 17 -40 17 l-39 0 2 -347 2 -348 -51 -13 c-61 -17 -101 -4 -120 38 -8 16
-14 133 -18 335 -7 341 -9 355 -60 321 -23 -15 -26 -23 -26 -79 0 -62 0 -62
-49 -104 -28 -24 -57 -43 -66 -43 -9 0 -35 13 -58 28 -23 16 -68 43 -99 61
-32 18 -58 38 -59 44 0 7 -1 71 -2 142 l-2 130 -35 3 c-20 2 -38 0 -41 -3z"/>
<path d="M942 1308 c-6 -8 -9 -119 -7 -298 l2 -285 24 0 24 0 1 285 c2 269 -2
310 -26 310 -4 0 -12 -6 -18 -12z"/>
</g>
</svg>
