<?xml version="1.0" standalone="no"?>
<!DOCTYPE svg PUBLIC "-//W3C//DTD SVG 20010904//EN"
 "http://www.w3.org/TR/2001/REC-SVG-20010904/DTD/svg10.dtd">
<svg version="1.0" xmlns="http://www.w3.org/2000/svg"
 width="490.000000pt" height="580.000000pt" viewBox="0 0 490.000000 580.000000"
 preserveAspectRatio="xMidYMid meet">
<metadata>
Created by potrace 1.16, written by Peter Selinger 2001-2019
</metadata>
<g transform="translate(0.000000,580.000000) scale(0.500000,-0.500000)"
fill="#000000" stroke="none">
<path d="M315 1122 c-10 -1 -14 -2 -17 -5 -6 -6 -6 0 -2 -110 3 -104 13 -83
-72 -150 -26 -21 -98 -76 -126 -98 -52 -39 -52 -40 -32 -66 24 -33 27 -33 63
-2 10 8 32 27 49 41 17 14 49 41 70 59 58 49 52 65 52 -140 l1 -168 -7 -19
c-3 -10 -9 -23 -11 -29 -3 -5 -10 -22 -15 -37 -17 -48 -27 -73 -49 -123 -5
-11 -9 -22 -10 -25 -4 -12 -20 -53 -30 -73 -6 -12 -11 -25 -12 -28 -3 -13 -12
-39 -23 -67 -19 -44 -18 -46 23 -46 31 0 35 1 41 13 4 9 27 70 81 214 49 131
49 131 58 122 1 -2 40 -80 87 -173 96 -194 83 -175 120 -177 39 -1 51 8 36 28
-2 2 -37 69 -65 123 -11 21 -20 40 -21 41 -1 1 -17 33 -36 70 -19 37 -42 83
-52 101 -53 100 -50 74 -51 377 0 53 -5 52 67 6 130 -84 113 -80 155 -39 55
53 50 68 52 -136 l2 -167 11 -19 c20 -35 20 -35 67 -54 75 -29 123 -23 179 23
28 23 26 12 23 176 -1 57 0 94 1 104 2 14 1 18 -2 33 -5 16 -5 22 -5 88 0 39
-1 74 -2 77 0 3 0 21 1 40 5 77 1 86 -37 85 -34 -1 -34 -2 -32 -43 4 -104 8
-271 9 -437 1 -78 3 -72 -28 -82 -93 -29 -116 -5 -120 120 -1 43 -3 99 -4 124
-1 25 -3 101 -3 168 -1 140 0 131 -16 138 -12 5 -20 5 -36 -3 -17 -8 -17 -9
-16 -55 1 -50 0 -55 -22 -71 -8 -6 -17 -14 -21 -19 -38 -42 -55 -44 -100 -8
-4 3 -16 10 -26 16 -29 16 -86 52 -92 57 -5 5 -5 5 -6 111 -1 130 3 119 -49
114z"/>
<path d="M761 1043 c-11 -4 -11 -9 -9 -71 1 -30 2 -130 2 -222 0 -195 -2 -177
21 -176 23 1 21 -16 21 176 0 92 1 192 2 222 3 73 -4 86 -37 71z"/>
</g>
</svg>
