<?xml version="1.0" standalone="no"?>
<!DOCTYPE svg PUBLIC "-//W3C//DTD SVG 20010904//EN"
 "http://www.w3.org/TR/2001/REC-SVG-20010904/DTD/svg10.dtd">
<svg version="1.0" xmlns="http://www.w3.org/2000/svg"
 width="84.000000pt" height="100.000000pt" viewBox="0 0 84.000000 100.000000"
 preserveAspectRatio="xMidYMid meet">
<metadata>
Created by potrace 1.16, written by Peter Selinger 2001-2019
</metadata>
<g transform="translate(0.000000,100.000000) scale(0.100000,-0.100000)"
fill="#000000" stroke="none">
<path d="M250 876 l0 -94 -77 -57 c-86 -64 -133 -105 -133 -116 0 -10 29 -39
39 -39 5 0 44 32 87 70 67 60 80 68 87 53 6 -9 7 -77 4 -157 l-6 -141 -70
-174 c-39 -96 -68 -178 -65 -182 3 -5 18 -9 34 -9 26 0 30 5 58 82 16 46 37
106 46 134 9 28 23 60 31 70 13 18 15 17 30 -21 9 -22 42 -91 72 -152 54 -111
55 -113 89 -113 19 0 34 4 34 9 0 4 -44 91 -97 192 l-98 184 -3 143 c-2 78 0
142 5 142 5 0 38 -20 73 -45 35 -25 69 -45 75 -45 6 0 22 11 35 25 13 14 27
25 32 25 4 0 8 -46 9 -102 1 -57 4 -128 7 -158 7 -53 9 -56 52 -77 57 -29 108
-29 151 0 l34 23 -1 248 c-2 258 -6 283 -42 260 -15 -10 -17 -32 -14 -235 2
-123 -1 -230 -6 -237 -13 -20 -74 -26 -96 -9 -17 12 -19 36 -27 237 -5 123
-13 228 -18 233 -21 21 -41 -2 -41 -46 0 -36 -6 -49 -33 -75 -18 -18 -39 -32
-46 -32 -15 0 -132 70 -143 85 -4 5 -8 52 -8 103 l0 92 -30 0 -30 0 0 -94z"/>
<path d="M644 897 c-2 -7 -3 -100 -2 -207 3 -165 5 -195 18 -195 13 0 16 31
20 195 3 107 1 201 -4 208 -11 16 -25 15 -32 -1z"/>
</g>
</svg>
