<?xml version="1.0" standalone="no"?>
<!DOCTYPE svg PUBLIC "-//W3C//DTD SVG 20010904//EN"
 "http://www.w3.org/TR/2001/REC-SVG-20010904/DTD/svg10.dtd">
<svg version="1.0" xmlns="http://www.w3.org/2000/svg"
 width="69.000000pt" height="100.000000pt" viewBox="0 0 69.000000 100.000000"
 preserveAspectRatio="xMidYMid meet">
<metadata>
Created by potrace 1.16, written by Peter Selinger 2001-2019
</metadata>
<g transform="translate(0.000000,100.000000) scale(0.100000,-0.100000)"
fill="#000000" stroke="none">
<path d="M191 956 c-7 -8 -9 -38 -5 -87 l6 -74 -71 -63 c-90 -80 -98 -95 -70
-123 l21 -21 52 51 c28 28 55 51 60 51 4 0 6 -62 4 -137 l-3 -138 -78 -171
c-42 -95 -77 -179 -77 -188 0 -23 58 -25 72 -3 4 7 26 59 48 117 64 165 59
155 74 139 6 -8 34 -69 61 -137 29 -71 57 -128 68 -133 23 -13 57 -2 57 19 0
9 -34 88 -77 177 -67 142 -77 169 -84 240 -12 121 -11 235 2 235 6 0 31 -18
56 -40 30 -26 55 -40 74 -40 15 0 31 -5 34 -11 4 -5 -5 -48 -21 -93 -25 -78
-26 -87 -14 -130 19 -70 57 -106 112 -106 57 0 79 17 122 94 l36 64 0 136 c0
190 -34 310 -95 338 -52 24 -77 -24 -30 -59 29 -21 62 -108 70 -185 l6 -53
-80 -85 c-43 -47 -82 -82 -86 -78 -4 4 0 26 10 50 19 48 31 177 21 230 -8 42
-60 124 -88 139 -16 8 -24 7 -36 -4 -17 -17 -17 -17 40 -89 34 -42 40 -81 15
-86 -16 -3 -121 66 -139 92 -4 6 -8 43 -8 82 0 68 -10 94 -36 94 -6 0 -17 -6
-23 -14z"/>
</g>
</svg>
