<?xml version="1.0" standalone="no"?>
<!DOCTYPE svg PUBLIC "-//W3C//DTD SVG 20010904//EN"
 "http://www.w3.org/TR/2001/REC-SVG-20010904/DTD/svg10.dtd">
<svg version="1.0" xmlns="http://www.w3.org/2000/svg"
 width="102.000000pt" height="148.000000pt" viewBox="0 0 102.000000 148.000000"
 preserveAspectRatio="xMidYMid meet">
<metadata>
Created by potrace 1.16, written by Peter Selinger 2001-2019
</metadata>
<g transform="translate(0.000000,148.000000) scale(0.100000,-0.100000)"
fill="#000000" stroke="none">
<path d="M276 1413 c-4 -4 -4 -62 0 -129 l7 -122 -29 -15 c-16 -9 -69 -57
-119 -107 l-89 -90 16 -28 c31 -50 58 -42 134 42 38 42 72 76 76 76 5 0 8 -90
8 -201 l0 -201 -30 -71 c-17 -40 -39 -90 -50 -112 -67 -146 -151 -358 -148
-377 2 -18 10 -24 39 -26 40 -3 52 9 83 88 9 25 40 101 68 170 28 69 54 135
59 148 10 26 27 29 35 5 5 -15 86 -206 139 -328 8 -16 16 -40 20 -52 7 -24 38
-37 76 -31 36 5 35 43 -6 126 -19 40 -35 74 -35 77 0 4 -51 112 -128 275 l-36
75 -2 175 c-2 96 -5 199 -8 228 -4 33 -2 52 4 52 12 0 138 -95 157 -118 9 -11
24 -13 64 -8 47 6 51 5 44 -11 -4 -10 -10 -40 -14 -68 -4 -27 -20 -74 -35
-104 -24 -46 -27 -64 -24 -110 6 -73 38 -142 85 -180 32 -26 46 -31 92 -31 48
0 58 4 95 37 38 35 72 84 119 178 19 37 20 53 14 236 -5 187 -14 250 -47 334
-5 11 -11 33 -15 50 -9 41 -82 107 -115 103 -19 -2 -26 -10 -28 -30 -2 -20 5
-32 32 -53 24 -18 40 -41 48 -69 6 -22 15 -45 18 -51 9 -13 26 -84 41 -169
l12 -68 -141 -141 c-78 -78 -144 -138 -148 -134 -4 4 6 35 24 70 33 66 39 97
51 247 7 84 6 102 -13 153 -12 32 -40 81 -63 108 -22 26 -43 53 -45 58 -1 5
-16 11 -33 13 -26 3 -30 0 -33 -25 -3 -21 4 -36 27 -58 37 -35 78 -98 87 -134
6 -24 -16 -65 -36 -65 -9 0 -193 140 -202 154 -4 6 -8 47 -8 91 0 44 -3 97 -6
118 -6 35 -9 37 -44 37 -20 0 -40 -3 -44 -7z m635 -614 c12 -48 -13 -65 -44
-31 -15 17 -15 20 -1 41 19 27 36 23 45 -10z m-48 -84 l37 -44 -18 -30 -18
-30 -50 50 -49 50 28 25 c15 13 29 24 30 24 2 0 20 -20 40 -45z m-69 -97 c44
-52 45 -53 26 -72 -19 -19 -20 -19 -69 25 -50 45 -60 66 -39 87 21 21 35 14
82 -40z m-81 -62 c20 -25 37 -50 37 -55 0 -6 -15 -11 -32 -11 -26 0 -39 8 -60
34 -31 39 -33 47 -16 64 20 20 32 14 71 -32z"/>
</g>
</svg>
