<?xml version="1.0" standalone="no"?>
<!DOCTYPE svg PUBLIC "-//W3C//DTD SVG 20010904//EN"
 "http://www.w3.org/TR/2001/REC-SVG-20010904/DTD/svg10.dtd">
<svg version="1.0" xmlns="http://www.w3.org/2000/svg"
 width="77.000000pt" height="100.000000pt" viewBox="0 0 77.000000 100.000000"
 preserveAspectRatio="xMidYMid meet">
<metadata>
Created by potrace 1.16, written by Peter Selinger 2001-2019
</metadata>
<g transform="translate(0.000000,100.000000) scale(0.100000,-0.100000)"
fill="#000000" stroke="none">
<path d="M646 961 c-4 -5 -2 -59 4 -118 19 -207 9 -333 -26 -333 -28 0 -61
120 -84 305 -16 133 -17 137 -43 133 -23 -3 -25 -18 -16 -127 4 -43 2 -46 -39
-75 -41 -29 -51 -31 -160 -38 -64 -4 -130 -10 -145 -14 -25 -6 -28 -4 -25 12
1 11 20 27 41 37 41 21 45 31 21 67 -25 37 -45 50 -74 50 -53 0 -77 -61 -44
-108 14 -20 15 -53 8 -268 -8 -276 -13 -254 75 -296 40 -18 55 -20 156 -13 73
4 115 3 119 -3 7 -11 -7 -17 -66 -27 -46 -9 -70 -35 -66 -72 4 -39 33 -42 52
-5 24 47 96 51 96 6 0 -21 46 -47 70 -39 26 8 25 23 -2 52 l-22 24 37 34 c54
50 48 81 -18 87 -36 3 -40 6 -50 43 -5 22 -14 46 -18 53 -13 19 -56 14 -166
-19 -71 -22 -106 -28 -113 -21 -7 7 -7 54 1 153 11 143 17 163 51 155 8 -3 63
-7 121 -11 l106 -7 35 31 c20 17 40 31 45 31 5 0 15 -27 21 -60 15 -73 66
-145 102 -145 19 0 30 11 53 56 36 71 43 161 25 344 -12 121 -15 130 -35 133
-11 2 -24 -1 -27 -7z m-146 -250 c0 -5 -16 -23 -35 -40 l-36 -31 -139 0 c-141
0 -185 12 -87 24 28 3 91 6 139 6 78 0 90 3 115 25 30 26 43 31 43 16z m-100
-455 c0 -30 -16 -36 -95 -36 -80 0 -132 10 -113 21 7 5 27 9 43 10 17 0 50 6
75 13 73 21 90 20 90 -8z"/>
</g>
</svg>
