<?xml version="1.0" standalone="no"?>
<!DOCTYPE svg PUBLIC "-//W3C//DTD SVG 20010904//EN"
 "http://www.w3.org/TR/2001/REC-SVG-20010904/DTD/svg10.dtd">
<svg version="1.0" xmlns="http://www.w3.org/2000/svg"
 width="452.000000pt" height="590.000000pt" viewBox="0 0 452.000000 590.000000"
 preserveAspectRatio="xMidYMid meet">
<metadata>
Created by potrace 1.16, written by Peter Selinger 2001-2019
</metadata>
<g transform="translate(0.000000,590.000000) scale(0.500000,-0.500000)"
fill="#000000" stroke="none">
<path d="M766 1136 c-7 -5 -8 -33 -2 -51 5 -14 5 -23 1 -36 -3 -8 -3 -11 -1
-17 4 -14 8 -50 6 -78 0 -20 0 -28 3 -35 1 -4 3 -12 4 -17 1 -4 3 -12 5 -16 3
-6 4 -11 3 -17 -3 -25 -3 -35 0 -45 11 -39 2 -151 -14 -174 -4 -7 -8 -15 -9
-22 -13 -64 -69 -17 -75 62 -1 12 -3 16 -8 21 -8 10 -19 52 -19 73 0 9 -1 19
-3 23 -1 5 -3 18 -4 30 0 16 -2 24 -5 31 -2 5 -4 14 -5 20 -1 6 -3 15 -4 21
-3 7 -3 14 -2 27 1 15 0 20 -3 29 -2 7 -4 17 -4 24 0 7 -2 20 -5 30 -3 10 -5
23 -5 28 0 6 -1 13 -2 16 -2 3 -3 14 -4 25 -2 23 -4 26 -23 28 -30 2 -42 -24
-28 -62 2 -5 3 -15 3 -24 0 -16 0 -17 16 -68 9 -27 2 -40 -34 -63 -9 -6 -22
-16 -27 -21 -6 -5 -13 -11 -16 -13 -3 -1 -8 -5 -10 -7 -5 -6 -8 -7 -31 -16
-19 -7 -19 -7 -140 -8 -108 -1 -122 -2 -128 -5 -5 -1 -11 -3 -15 -3 -3 0 -11
-3 -18 -6 -28 -15 -41 -4 -31 28 4 14 24 28 40 28 8 0 18 4 22 9 1 2 7 5 12 8
14 7 18 13 18 26 0 12 0 12 -17 27 -4 3 -8 11 -11 18 -27 79 -146 69 -146 -12
0 -27 6 -51 16 -58 22 -18 30 -60 17 -83 -6 -10 -6 -10 -7 -269 0 -291 -2
-265 16 -272 5 -2 11 -7 15 -11 3 -4 8 -8 12 -9 4 -1 12 -7 18 -14 14 -15 16
-16 28 -16 6 0 15 -2 25 -7 15 -6 15 -6 52 -5 31 0 40 0 49 -3 15 -4 131 -3
148 2 12 4 38 4 47 1 15 -6 7 -20 -12 -20 -3 0 -9 -1 -13 -3 -4 -2 -13 -3 -23
-3 -10 0 -22 -1 -28 -3 -6 -2 -14 -3 -17 -3 -51 0 -86 -105 -40 -120 18 -6 33
7 36 32 2 19 6 23 38 34 30 10 67 8 73 -3 4 -8 10 -27 11 -36 2 -16 3 -17 13
-23 6 -3 13 -6 16 -8 8 -4 51 -4 59 1 22 14 12 47 -17 51 -17 2 -24 10 -24 29
0 10 1 11 19 17 11 4 16 7 28 18 8 7 17 15 21 18 15 11 23 46 14 65 -10 24
-22 28 -68 27 -48 0 -46 -2 -49 44 -1 10 -3 23 -4 29 -1 5 -3 14 -4 19 -4 29
-68 42 -116 24 -9 -3 -21 -6 -27 -7 -7 -1 -13 -3 -17 -7 -5 -4 -10 -6 -14 -6
-4 0 -14 -3 -24 -6 -9 -3 -20 -6 -25 -7 -5 -1 -12 -3 -15 -4 -4 -2 -10 -3 -13
-3 -7 0 -13 -3 -19 -8 -3 -3 -10 -5 -16 -6 -7 -1 -17 -3 -23 -4 -23 -4 -40 1
-37 11 0 3 -1 12 -2 19 -3 15 -2 57 1 67 2 3 3 21 4 40 1 20 2 36 4 38 1 3 2
15 2 35 0 20 1 36 3 45 2 9 3 25 3 42 0 20 1 31 3 37 2 5 3 13 3 18 0 19 1 19
46 18 26 0 42 -1 48 -3 6 -2 27 -3 68 -4 46 -1 61 -2 67 -4 43 -18 100 -1 143
44 16 16 31 30 32 31 10 6 20 -13 20 -39 0 -19 8 -50 19 -73 3 -8 8 -21 10
-29 2 -11 5 -18 12 -26 12 -18 15 -22 19 -34 3 -8 6 -12 14 -18 5 -3 14 -11
19 -18 24 -28 24 -28 35 -27 12 2 18 6 26 22 3 6 10 16 15 21 8 10 11 16 14
29 0 3 4 9 8 13 9 11 13 19 15 31 1 6 4 16 7 22 4 9 5 13 5 27 -1 14 0 18 6
32 7 19 9 57 3 79 -3 11 -3 15 -1 28 1 9 1 17 1 18 -1 2 -2 15 -3 30 -3 40 -5
64 -8 71 -1 3 -2 13 -2 23 0 10 -1 24 -3 30 -3 11 -3 13 0 23 3 10 3 12 0 22
-2 6 -3 18 -3 29 0 11 -1 23 -3 29 -2 6 -3 16 -3 24 0 27 -4 31 -30 31 -12 0
-16 -1 -20 -4z m-172 -288 c1 -9 -4 -18 -14 -24 -4 -3 -11 -9 -16 -13 -5 -5
-13 -11 -18 -14 -5 -3 -17 -13 -27 -23 -10 -10 -21 -19 -24 -20 -7 -3 -185 -3
-195 0 -4 1 -28 2 -60 2 -57 0 -58 0 -69 10 -12 11 -7 15 22 17 10 0 20 1 22
3 4 1 44 2 144 2 162 0 148 -2 174 23 50 48 47 45 54 45 5 -1 6 -2 7 -8z
m-126 -516 c7 -8 8 -15 5 -27 -1 -5 -3 -14 -4 -19 -2 -16 -2 -16 -66 -16 -42
0 -60 -1 -70 -3 -12 -2 -18 -3 -34 -1 -11 1 -35 3 -54 4 -49 3 -61 9 -29 15 7
2 16 4 19 5 3 1 16 2 29 2 15 0 28 1 35 3 7 2 20 3 30 3 12 0 21 1 26 3 4 2 9
3 12 3 3 0 13 4 22 8 10 4 20 9 22 9 3 1 13 5 21 8 18 8 29 9 36 3z"/>
</g>
</svg>
