<?xml version="1.0" standalone="no"?>
<!DOCTYPE svg PUBLIC "-//W3C//DTD SVG 20010904//EN"
 "http://www.w3.org/TR/2001/REC-SVG-20010904/DTD/svg10.dtd">
<svg version="1.0" xmlns="http://www.w3.org/2000/svg"
 width="114.000000pt" height="148.000000pt" viewBox="0 0 114.000000 148.000000"
 preserveAspectRatio="xMidYMid meet">
<metadata>
Created by potrace 1.16, written by Peter Selinger 2001-2019
</metadata>
<g transform="translate(0.000000,148.000000) scale(0.100000,-0.100000)"
fill="#000000" stroke="none">
<path d="M966 1417 c-14 -10 -17 -20 -12 -38 4 -13 10 -71 12 -129 3 -58 9
-116 14 -130 5 -14 8 -83 6 -155 -2 -136 -17 -199 -51 -220 -21 -13 -51 21
-66 78 -6 23 -16 53 -21 67 -10 25 -31 145 -49 280 -27 209 -44 253 -84 220
-19 -16 -13 -92 13 -174 l15 -49 -30 -26 c-17 -14 -53 -42 -79 -61 l-47 -35
-181 -6 c-122 -3 -190 -10 -209 -19 -21 -10 -30 -11 -40 -1 -17 17 11 63 48
76 51 18 75 35 75 54 0 11 -7 22 -15 25 -9 3 -21 19 -27 36 -11 33 -52 60 -90
60 -13 0 -38 -9 -57 -21 -32 -19 -33 -22 -29 -70 4 -33 13 -58 28 -74 19 -20
21 -30 15 -62 -4 -21 -10 -185 -12 -364 l-4 -326 57 -42 c52 -39 61 -42 147
-50 51 -5 145 -6 210 -4 101 5 117 4 117 -10 0 -11 -18 -18 -63 -26 -35 -6
-70 -11 -79 -11 -35 0 -77 -84 -62 -125 4 -9 19 -15 35 -15 25 0 30 5 36 30 7
36 45 60 96 60 40 0 57 -15 57 -52 0 -30 15 -41 67 -51 22 -4 37 -2 48 9 25
25 15 47 -26 57 -15 4 -30 14 -33 23 -7 17 9 44 26 44 17 0 70 45 79 68 13 33
1 70 -24 78 -12 4 -42 6 -66 5 -53 -2 -61 7 -61 72 0 86 -59 109 -179 68 -153
-52 -224 -72 -244 -69 -21 3 -22 7 -20 88 2 47 9 153 16 235 12 140 14 150 32
148 11 -1 98 -7 194 -13 196 -12 193 -13 263 64 31 34 39 38 48 26 5 -8 10
-27 10 -41 0 -32 39 -144 65 -184 28 -44 87 -105 102 -105 8 0 17 10 22 23 5
13 16 29 25 36 9 7 16 20 16 28 0 7 8 25 17 39 34 52 46 207 30 369 -4 39 -10
104 -13 145 -11 152 -24 179 -68 147z m-216 -355 c0 -24 -115 -122 -143 -122
-116 -3 -381 2 -392 6 -8 4 -15 12 -15 19 0 17 89 25 278 25 l155 0 48 45 c52
49 69 55 69 27z m-155 -652 c3 -5 3 -25 -1 -45 l-6 -35 -169 0 c-150 0 -198 7
-170 24 5 4 33 8 63 11 151 13 164 16 218 46 21 11 58 11 65 -1z"/>
</g>
</svg>
