<?xml version="1.0" standalone="no"?>
<!DOCTYPE svg PUBLIC "-//W3C//DTD SVG 20010904//EN"
 "http://www.w3.org/TR/2001/REC-SVG-20010904/DTD/svg10.dtd">
<svg version="1.0" xmlns="http://www.w3.org/2000/svg"
 width="146.000000pt" height="148.000000pt" viewBox="0 0 146.000000 148.000000"
 preserveAspectRatio="xMidYMid meet">
<metadata>
Created by potrace 1.16, written by Peter Selinger 2001-2019
</metadata>
<g transform="translate(0.000000,148.000000) scale(0.100000,-0.100000)"
fill="#000000" stroke="none">
<path d="M684 1409 c-3 -6 -3 -53 1 -104 l7 -93 -36 -36 c-20 -20 -43 -36 -51
-36 -8 0 -37 -13 -63 -30 -59 -36 -69 -37 -77 -7 -7 25 -15 46 -38 97 -20 46
-154 190 -176 190 -23 0 -170 -150 -188 -190 -15 -37 -19 -315 -4 -324 5 -3
12 -31 16 -61 3 -30 10 -55 15 -55 5 0 18 -19 29 -42 12 -24 30 -56 41 -73 11
-16 23 -38 26 -47 3 -9 30 -24 60 -34 62 -19 91 -11 121 35 9 14 25 32 35 39
10 7 18 20 18 28 0 8 9 27 20 42 17 22 21 49 27 153 6 121 7 126 32 141 14 9
55 35 91 57 107 67 101 77 98 -181 -4 -222 -4 -223 -35 -309 -18 -47 -43 -108
-57 -136 -15 -28 -26 -57 -26 -64 0 -8 -9 -29 -20 -47 -11 -18 -20 -41 -20
-52 0 -10 -4 -21 -9 -24 -4 -3 -11 -19 -14 -35 -4 -16 -15 -38 -26 -48 -13
-12 -21 -34 -23 -63 -3 -44 -2 -45 28 -48 37 -4 46 7 69 73 9 28 31 86 50 130
18 44 50 124 71 178 21 53 42 96 47 94 5 -1 62 -106 126 -232 65 -126 125
-233 133 -239 8 -5 23 -6 31 -3 14 5 16 15 10 54 -3 26 -13 59 -22 73 -10 14
-28 48 -41 75 -13 28 -27 58 -32 67 -4 10 -8 24 -8 33 0 8 -8 19 -19 24 -10 6
-24 25 -32 43 -7 18 -25 49 -40 68 -15 19 -37 60 -48 90 -19 50 -21 77 -21
283 0 125 3 227 6 227 4 0 32 -15 63 -34 31 -18 75 -43 98 -55 32 -16 47 -33
67 -73 41 -85 68 -123 120 -168 47 -40 52 -41 95 -35 65 9 123 67 155 154 22
59 25 85 29 253 3 127 1 190 -6 197 -15 15 -57 14 -57 -1 -1 -7 -2 -99 -3
-203 l-2 -191 -43 -66 c-56 -86 -79 -96 -133 -56 -31 24 -69 80 -69 104 0 8
-12 33 -27 55 -26 40 -27 48 -33 207 -4 143 -7 167 -21 170 -9 2 -25 -5 -34
-15 -16 -15 -17 -31 -11 -140 5 -98 4 -123 -7 -123 -7 0 -18 5 -24 11 -5 5
-24 18 -41 27 -17 9 -54 30 -83 47 l-51 29 4 102 c3 57 1 110 -4 118 -10 18
-53 22 -64 5z m-377 -141 c11 -13 32 -49 47 -80 15 -32 33 -58 40 -58 18 0 25
-92 18 -248 -4 -114 -6 -124 -27 -138 -13 -8 -26 -25 -29 -37 -3 -12 -18 -37
-34 -56 -23 -28 -33 -33 -53 -27 -26 7 -77 72 -95 121 -6 17 -22 48 -35 70
-22 38 -23 50 -24 205 l0 165 45 53 c41 47 49 52 86 52 29 0 46 -6 61 -22z"/>
</g>
</svg>
