<?xml version="1.0" standalone="no"?>
<!DOCTYPE svg PUBLIC "-//W3C//DTD SVG 20010904//EN"
 "http://www.w3.org/TR/2001/REC-SVG-20010904/DTD/svg10.dtd">
<svg version="1.0" xmlns="http://www.w3.org/2000/svg"
 width="99.000000pt" height="100.000000pt" viewBox="0 0 99.000000 100.000000"
 preserveAspectRatio="xMidYMid meet">
<metadata>
Created by potrace 1.16, written by Peter Selinger 2001-2019
</metadata>
<g transform="translate(0.000000,100.000000) scale(0.100000,-0.100000)"
fill="#000000" stroke="none">
<path d="M467 963 c-4 -3 -7 -39 -7 -78 0 -56 -4 -75 -17 -87 -21 -18 -98 -58
-111 -58 -6 0 -19 24 -31 53 -24 58 -102 147 -129 147 -21 -1 -72 -43 -112
-94 -29 -37 -30 -42 -30 -141 0 -116 14 -172 62 -252 53 -88 106 -105 158 -50
51 51 70 102 70 185 l0 72 62 40 c33 22 67 40 75 40 10 0 13 -29 13 -141 l0
-140 -46 -112 c-25 -62 -64 -151 -86 -199 -22 -48 -38 -94 -35 -103 8 -20 40
-19 59 3 11 13 74 167 112 275 3 10 11 17 17 15 6 -2 46 -71 88 -153 76 -151
99 -176 120 -137 8 16 1 38 -34 112 -25 50 -67 124 -93 163 l-47 72 -3 168
c-2 92 -1 167 3 167 10 0 97 -51 119 -69 10 -9 27 -34 38 -56 11 -22 36 -57
56 -77 64 -67 137 -47 188 53 23 47 24 57 22 187 l-3 137 -25 0 -25 0 0 -135
0 -135 -33 -47 c-51 -74 -77 -64 -132 51 -27 56 -30 70 -30 166 0 89 -3 107
-16 112 -32 12 -46 -25 -40 -103 4 -38 3 -73 0 -77 -7 -7 -113 49 -127 67 -4
6 -5 37 -2 68 4 34 2 66 -5 78 -11 20 -31 26 -43 13z m-262 -117 c13 -13 34
-43 47 -67 20 -39 23 -56 21 -146 -2 -95 -5 -106 -34 -152 -35 -58 -56 -64
-86 -23 -50 68 -67 123 -71 228 l-4 102 37 41 c43 47 57 50 90 17z"/>
</g>
</svg>
