<?xml version="1.0" standalone="no"?>
<!DOCTYPE svg PUBLIC "-//W3C//DTD SVG 20010904//EN"
 "http://www.w3.org/TR/2001/REC-SVG-20010904/DTD/svg10.dtd">
<svg version="1.0" xmlns="http://www.w3.org/2000/svg"
 width="586.000000pt" height="590.000000pt" viewBox="0 0 586.000000 590.000000"
 preserveAspectRatio="xMidYMid meet">
<metadata>
Created by potrace 1.16, written by Peter Selinger 2001-2019
</metadata>
<g transform="translate(0.000000,590.000000) scale(0.500000,-0.500000)"
fill="#000000" stroke="none">
<path d="M562 1137 c-12 -7 -12 -8 -11 -91 2 -75 2 -75 -5 -81 -4 -3 -7 -8 -9
-15 -3 -9 -4 -10 -15 -15 -7 -3 -16 -10 -20 -14 -7 -7 -9 -8 -20 -9 -9 -1 -14
-3 -19 -8 -8 -7 -67 -36 -73 -36 -5 0 -11 10 -14 24 -1 6 -5 16 -9 22 -4 6 -7
14 -8 17 -1 3 -3 11 -5 16 -2 6 -5 15 -7 21 -3 11 -6 15 -22 30 -11 10 -22 25
-27 34 -2 7 -7 12 -14 17 -5 4 -10 9 -11 11 -1 1 -8 9 -16 17 -9 8 -20 18 -25
23 -19 19 -32 19 -53 0 -5 -5 -16 -13 -23 -18 -7 -5 -15 -13 -19 -18 -3 -5
-20 -23 -38 -40 -32 -33 -42 -46 -48 -66 -1 -6 -5 -14 -7 -18 -5 -7 -5 -7 -5
-121 l0 -113 8 -7 c7 -6 8 -7 9 -22 1 -9 3 -19 5 -22 2 -4 3 -11 3 -17 0 -18
3 -26 13 -32 10 -6 11 -7 18 -31 3 -10 6 -20 7 -23 2 -6 16 -20 20 -20 1 0 3
-4 5 -10 4 -14 8 -22 17 -31 4 -4 9 -11 10 -16 3 -9 8 -12 20 -14 5 -1 13 -4
18 -6 45 -27 79 -18 113 31 7 10 14 17 20 21 9 5 10 7 14 26 1 3 6 13 13 22
17 23 23 42 23 72 -1 18 0 22 3 29 4 7 4 12 4 65 l0 58 8 8 c4 5 11 10 15 13
5 2 10 6 12 9 4 5 12 10 35 22 8 4 18 10 21 13 4 4 14 10 23 15 66 35 60 51
58 -161 l-1 -165 -9 -21 c-18 -43 -22 -55 -23 -62 -1 -4 -4 -11 -6 -16 -3 -5
-6 -14 -6 -18 -3 -18 -16 -46 -27 -60 -5 -6 -8 -13 -9 -18 -1 -5 -3 -12 -5
-16 -2 -5 -4 -9 -4 -11 0 -3 -6 -20 -16 -42 -2 -7 -8 -16 -12 -22 -6 -7 -8
-12 -9 -21 -1 -6 -5 -17 -9 -26 -4 -8 -9 -22 -12 -30 -5 -17 -11 -27 -25 -41
-10 -11 -10 -11 -11 -28 -1 -10 -3 -24 -4 -32 -9 -47 68 -30 80 18 1 4 4 13 6
18 2 6 7 18 10 27 12 33 55 139 96 240 27 65 21 67 65 -19 15 -30 28 -55 29
-56 1 -1 13 -24 27 -52 14 -27 29 -57 34 -66 8 -15 33 -63 55 -107 13 -25 35
-35 56 -24 15 8 4 76 -16 101 -3 4 -7 12 -9 18 -2 8 -6 14 -15 24 -7 8 -12 15
-12 18 0 2 -2 9 -5 15 -3 6 -5 12 -5 14 0 2 -4 11 -9 21 -4 10 -9 22 -10 26
-1 6 -5 11 -18 25 -16 17 -24 30 -29 50 -2 6 -6 13 -18 25 -9 9 -16 19 -17 22
-1 3 -4 9 -7 13 -10 12 -15 25 -21 44 -3 10 -8 23 -11 28 -5 9 -5 9 -5 141 0
73 -1 151 -2 175 -2 51 -1 58 6 58 7 0 66 -31 74 -38 3 -3 12 -9 19 -12 79
-42 76 -40 76 -55 0 -9 10 -30 18 -36 3 -3 7 -9 8 -13 2 -9 11 -25 17 -33 3
-3 5 -6 5 -7 0 -2 4 -7 8 -12 4 -6 8 -12 8 -13 0 -5 10 -15 20 -20 5 -3 16
-12 25 -21 27 -28 27 -28 58 -28 45 0 52 3 90 39 26 25 39 44 47 66 2 6 7 19
12 29 16 38 15 31 17 195 2 169 3 156 -19 162 -38 11 -45 -15 -36 -132 3 -39
3 -154 -1 -167 -1 -6 -3 -15 -4 -20 -1 -9 -11 -26 -26 -45 -4 -4 -10 -13 -14
-20 -4 -7 -10 -16 -15 -20 -4 -4 -9 -10 -11 -13 -8 -13 -33 -20 -47 -13 -28
14 -44 28 -52 44 -5 8 -11 19 -15 25 -10 13 -11 16 -13 31 -1 10 -3 15 -9 21
-3 5 -8 12 -10 16 -2 4 -6 10 -9 14 -7 7 -8 10 -9 31 0 11 -2 20 -5 28 -5 11
-5 11 -2 113 3 122 3 118 -25 118 -26 0 -32 -11 -32 -56 0 -19 -1 -47 -2 -62
-1 -23 -1 -30 2 -37 4 -11 4 -53 1 -59 -4 -8 -21 -2 -31 11 -4 5 -7 7 -12 7
-13 0 -21 4 -32 14 -7 7 -18 13 -37 23 -15 7 -29 15 -32 18 -3 2 -8 6 -11 8
-9 4 -10 6 -7 88 3 97 -9 122 -46 102z m-331 -109 c2 -1 6 -5 8 -8 2 -3 8 -10
13 -14 7 -6 12 -13 15 -19 3 -6 8 -16 13 -23 5 -7 9 -17 11 -26 4 -18 11 -29
19 -32 12 -4 13 -5 18 -15 4 -9 4 -11 2 -19 -3 -13 -3 -33 2 -44 6 -13 5 -177
-1 -188 -2 -3 -4 -11 -4 -17 -2 -9 -3 -11 -18 -26 -14 -14 -17 -18 -19 -26 -1
-5 -5 -13 -9 -18 -4 -4 -7 -9 -7 -10 0 -44 -67 -51 -88 -9 -3 7 -12 19 -20 27
-16 17 -23 31 -27 51 -2 13 -4 15 -12 23 -5 5 -10 12 -11 16 -1 5 -5 13 -8 19
-5 8 -6 15 -7 28 -1 10 -3 20 -5 24 -6 12 -6 200 0 212 2 4 4 10 5 14 2 13 12
25 21 28 8 2 14 8 19 18 1 4 9 14 17 22 l14 14 27 0 c15 0 29 -1 32 -2z"/>
</g>
</svg>
