<?xml version="1.0" standalone="no"?>
<!DOCTYPE svg PUBLIC "-//W3C//DTD SVG 20010904//EN"
 "http://www.w3.org/TR/2001/REC-SVG-20010904/DTD/svg10.dtd">
<svg version="1.0" xmlns="http://www.w3.org/2000/svg"
 width="100.000000pt" height="88.000000pt" viewBox="0 0 100.000000 88.000000"
 preserveAspectRatio="xMidYMid meet">
<metadata>
Created by potrace 1.16, written by Peter Selinger 2001-2019
</metadata>
<g transform="translate(0.000000,88.000000) scale(0.100000,-0.100000)"
fill="#000000" stroke="none">
<path d="M247 843 c-4 -3 -7 -47 -7 -96 l0 -90 -88 -136 c-49 -75 -99 -153
-111 -174 l-23 -38 22 -24 c37 -40 98 -78 115 -71 29 11 17 45 -25 66 -30 16
-40 26 -40 45 0 31 21 33 61 4 28 -20 49 -19 49 4 0 6 -14 25 -31 43 l-30 31
47 78 c33 55 49 73 55 63 5 -7 9 -81 9 -164 0 -167 1 -169 78 -208 20 -10 38
-29 44 -46 11 -32 37 -45 68 -35 27 9 25 39 -4 59 -14 8 -27 24 -30 34 -4 10
-22 26 -41 35 -25 12 -35 23 -35 40 0 29 34 67 60 67 27 0 60 -47 60 -86 0
-52 15 -81 46 -87 15 -3 34 -3 41 0 19 7 16 43 -4 50 -24 9 -33 23 -33 53 0
45 -20 100 -40 110 -33 18 -108 15 -130 -5 -11 -10 -23 -15 -27 -11 -12 12
-15 200 -3 216 9 12 20 4 68 -48 31 -34 62 -62 67 -62 6 0 35 27 64 61 29 33
55 58 58 55 3 -3 11 -38 19 -78 43 -231 118 -427 167 -436 50 -10 114 104 157
281 26 103 31 144 32 260 1 114 -2 141 -15 154 -20 21 -47 10 -47 -19 0 -90
-23 -353 -35 -406 -18 -74 -71 -182 -91 -182 -8 0 -19 22 -27 53 -56 208 -98
390 -114 492 -7 44 -11 50 -33 50 -23 0 -25 -4 -28 -55 -3 -50 -7 -59 -50
-102 -25 -27 -51 -48 -57 -48 -6 0 -41 30 -78 68 l-67 67 6 66 c4 42 2 73 -5
87 -12 22 -31 28 -44 15z"/>
</g>
</svg>
