<?xml version="1.0" standalone="no"?>
<!DOCTYPE svg PUBLIC "-//W3C//DTD SVG 20010904//EN"
 "http://www.w3.org/TR/2001/REC-SVG-20010904/DTD/svg10.dtd">
<svg version="1.0" xmlns="http://www.w3.org/2000/svg"
 width="168.000000pt" height="148.000000pt" viewBox="0 0 168.000000 148.000000"
 preserveAspectRatio="xMidYMid meet">
<metadata>
Created by potrace 1.16, written by Peter Selinger 2001-2019
</metadata>
<g transform="translate(0.000000,148.000000) scale(0.100000,-0.100000)"
fill="#000000" stroke="none">
<path d="M417 1414 c-4 -4 -7 -75 -7 -158 l0 -151 -66 -100 c-92 -141 -302
-479 -306 -493 -2 -6 44 -43 102 -81 97 -66 105 -69 122 -54 23 21 23 52 1 60
-32 12 -133 84 -133 95 0 15 40 78 50 78 4 0 30 -17 57 -38 67 -53 69 -54 87
-36 28 27 18 48 -44 88 -33 21 -60 40 -60 42 0 6 36 72 63 114 12 20 44 73 70
118 27 45 53 79 59 76 6 -4 9 -59 7 -148 -2 -77 -3 -204 -1 -280 l2 -140 53
-51 c29 -29 67 -55 83 -59 50 -13 71 -32 78 -74 8 -52 21 -60 86 -53 53 6 55
7 55 36 0 25 -5 32 -35 41 -26 9 -38 21 -52 54 -22 52 -43 69 -84 70 -40 0
-54 16 -54 63 0 47 33 105 67 118 50 19 77 11 109 -31 28 -36 32 -49 37 -135
3 -52 8 -99 12 -105 9 -14 118 -13 133 2 29 29 2 68 -47 68 -19 0 -21 6 -21
56 0 75 -26 159 -60 197 -26 29 -34 32 -103 35 -66 4 -80 1 -107 -18 -16 -12
-37 -35 -46 -51 -8 -16 -18 -28 -22 -25 -11 7 -14 438 -3 454 7 12 99 -79 203
-202 l24 -29 94 104 c129 144 124 141 132 77 4 -29 10 -78 14 -108 4 -30 14
-65 22 -78 8 -12 12 -34 9 -49 -3 -15 3 -45 12 -68 18 -39 38 -108 68 -230 8
-33 19 -68 24 -77 5 -10 9 -25 9 -33 0 -31 59 -131 103 -174 l45 -44 31 22
c35 25 101 100 101 115 0 6 16 42 35 80 19 39 37 90 41 115 3 25 12 55 18 66
7 11 21 61 30 110 10 50 22 110 28 135 13 51 20 187 20 372 0 140 -13 178 -58
178 -40 0 -41 -4 -47 -295 -1 -66 -5 -125 -9 -131 -4 -6 -12 -71 -17 -145 -8
-101 -17 -152 -37 -209 -32 -91 -67 -165 -97 -206 -12 -18 -27 -40 -33 -50
-18 -30 -39 -4 -64 79 -12 40 -26 82 -31 95 -5 13 -9 42 -9 64 0 23 -9 60 -20
83 -19 38 -47 160 -53 230 -2 17 -8 39 -14 50 -6 11 -13 43 -17 70 -3 28 -13
68 -21 90 -8 22 -14 58 -15 80 0 23 -4 45 -9 50 -6 6 -11 32 -13 59 -4 57 -29
76 -67 50 -18 -13 -21 -25 -21 -97 l-1 -82 -89 -95 -90 -95 -100 105 c-154
160 -140 134 -141 263 -2 147 -7 171 -39 175 -14 2 -29 0 -33 -4z"/>
</g>
</svg>
