<?xml version="1.0" standalone="no"?>
<!DOCTYPE svg PUBLIC "-//W3C//DTD SVG 20010904//EN"
 "http://www.w3.org/TR/2001/REC-SVG-20010904/DTD/svg10.dtd">
<svg version="1.0" xmlns="http://www.w3.org/2000/svg"
 width="142.000000pt" height="148.000000pt" viewBox="0 0 142.000000 148.000000"
 preserveAspectRatio="xMidYMid meet">
<metadata>
Created by potrace 1.16, written by Peter Selinger 2001-2019
</metadata>
<g transform="translate(0.000000,148.000000) scale(0.100000,-0.100000)"
fill="#000000" stroke="none">
<path d="M1003 1391 c-42 -31 -146 -178 -157 -223 -3 -15 -13 -33 -22 -40 -9
-7 -43 -41 -76 -75 -66 -68 -57 -67 -145 -10 -24 15 -46 27 -50 28 -5 0 -35
20 -68 43 l-60 44 0 108 c-1 60 -4 115 -9 122 -9 16 -62 16 -73 0 -4 -7 -6
-61 -4 -119 l3 -107 -93 -69 c-52 -39 -107 -78 -124 -88 -76 -47 -94 -76 -79
-132 9 -34 36 -28 85 17 24 22 62 52 84 67 22 15 49 35 60 44 11 10 32 21 47
24 l27 7 -3 -204 c-2 -183 -4 -209 -23 -249 -22 -46 -78 -167 -119 -256 -13
-28 -24 -55 -24 -59 0 -4 -11 -30 -24 -58 -69 -148 -70 -156 -23 -156 17 0 37
4 43 8 13 8 44 66 44 81 0 6 14 39 31 73 16 35 53 121 81 191 28 70 55 126 61
124 9 -3 40 -70 123 -267 93 -220 84 -204 126 -208 56 -5 63 15 27 84 -17 32
-51 106 -76 164 -24 58 -53 123 -63 145 -90 191 -94 203 -95 325 -1 63 -6 147
-11 187 -5 39 -8 76 -6 82 5 16 23 14 41 -4 9 -9 50 -40 91 -70 41 -30 80 -59
87 -65 27 -22 68 -11 108 30 21 22 42 40 45 40 3 0 5 -48 6 -107 0 -122 12
-203 37 -250 9 -18 17 -38 17 -45 1 -31 164 -226 195 -234 29 -7 54 7 108 60
21 20 41 36 45 36 14 1 75 87 88 126 8 21 24 66 36 99 19 52 22 81 22 220 0
166 -8 205 -59 315 -40 86 -96 154 -172 208 -41 29 -62 28 -110 -7z m122 -98
c90 -92 127 -167 146 -288 27 -170 -2 -363 -68 -452 -12 -17 -23 -34 -23 -37
0 -2 -19 -25 -42 -50 -49 -55 -91 -62 -126 -21 -47 54 -132 206 -132 237 0 9
-7 45 -16 80 -27 104 -7 282 42 376 8 15 14 32 14 38 0 6 7 18 16 25 9 8 28
32 42 54 35 57 63 85 83 85 10 0 39 -21 64 -47z"/>
<path d="M1037 1139 c-14 -11 -43 -48 -64 -82 l-38 -62 0 -115 c1 -130 11
-161 82 -237 47 -51 65 -49 121 11 47 50 82 146 82 225 0 79 -36 173 -85 223
-57 57 -68 61 -98 37z m79 -82 c53 -67 75 -176 50 -247 -9 -25 -16 -51 -16
-58 0 -7 -14 -31 -32 -53 -46 -58 -68 -53 -109 24 -31 58 -33 68 -33 158 0 92
2 99 34 153 41 67 66 73 106 23z"/>
</g>
</svg>
