<?xml version="1.0" standalone="no"?>
<!DOCTYPE svg PUBLIC "-//W3C//DTD SVG 20010904//EN"
 "http://www.w3.org/TR/2001/REC-SVG-20010904/DTD/svg10.dtd">
<svg version="1.0" xmlns="http://www.w3.org/2000/svg"
 width="96.000000pt" height="100.000000pt" viewBox="0 0 96.000000 100.000000"
 preserveAspectRatio="xMidYMid meet">
<metadata>
Created by potrace 1.16, written by Peter Selinger 2001-2019
</metadata>
<g transform="translate(0.000000,100.000000) scale(0.100000,-0.100000)"
fill="#000000" stroke="none">
<path d="M652 921 c-20 -21 -48 -61 -62 -87 -34 -66 -108 -154 -128 -153 -9 0
-51 22 -92 48 l-75 48 -3 64 c-3 94 -8 109 -36 109 -32 0 -38 -21 -30 -100 l6
-66 -91 -63 c-100 -68 -123 -95 -114 -129 7 -29 34 -28 64 4 31 34 114 94 128
94 8 0 11 -42 11 -135 l0 -136 -85 -181 c-47 -99 -85 -184 -85 -189 0 -13 38
-21 57 -10 15 8 51 84 129 279 7 17 17 32 22 32 5 0 36 -66 68 -147 32 -80 65
-152 72 -160 18 -17 51 -17 58 2 3 8 -32 99 -79 202 -84 186 -85 189 -91 288
-3 55 -9 115 -12 133 -9 45 8 42 90 -18 75 -55 94 -60 121 -30 25 28 35 16 35
-40 0 -121 37 -215 117 -300 70 -75 76 -75 162 8 48 47 62 69 80 122 28 87 35
169 22 261 -14 103 -41 160 -107 230 -71 74 -97 77 -152 20z m122 -71 c69 -78
88 -141 84 -275 -3 -97 -6 -117 -31 -166 -34 -67 -81 -119 -107 -119 -26 0
-83 78 -111 150 -30 77 -37 202 -15 268 17 50 88 170 110 184 18 12 22 10 70
-42z"/>
<path d="M674 747 c-34 -52 -46 -104 -42 -176 4 -84 47 -161 89 -161 54 0 99
83 99 185 0 73 -17 123 -54 160 -35 35 -66 32 -92 -8z m75 -43 c33 -42 45 -99
31 -153 -14 -56 -35 -91 -56 -91 -23 0 -54 78 -54 135 0 51 31 135 49 135 5 0
19 -12 30 -26z"/>
</g>
</svg>
