<?xml version="1.0" standalone="no"?>
<!DOCTYPE svg PUBLIC "-//W3C//DTD SVG 20010904//EN"
 "http://www.w3.org/TR/2001/REC-SVG-20010904/DTD/svg10.dtd">
<svg version="1.0" xmlns="http://www.w3.org/2000/svg"
 width="564.000000pt" height="590.000000pt" viewBox="0 0 564.000000 590.000000"
 preserveAspectRatio="xMidYMid meet">
<metadata>
Created by potrace 1.16, written by Peter Selinger 2001-2019
</metadata>
<g transform="translate(0.000000,590.000000) scale(0.500000,-0.500000)"
fill="#000000" stroke="none">
<path d="M840 1138 c-7 -2 -23 -11 -33 -19 -3 -2 -11 -7 -16 -10 -6 -3 -12 -7
-14 -10 -2 -3 -8 -10 -13 -16 -6 -6 -11 -14 -13 -17 -2 -4 -8 -12 -14 -18 -7
-8 -11 -14 -13 -21 -1 -6 -5 -13 -12 -20 -5 -6 -13 -18 -18 -27 -4 -9 -10 -19
-12 -21 -6 -7 -8 -12 -8 -21 0 -18 -12 -37 -27 -44 -16 -7 -23 -13 -32 -27
-14 -21 -61 -67 -69 -67 -2 0 -8 3 -13 7 -5 3 -13 7 -18 9 -5 1 -12 6 -20 12
-7 6 -14 11 -20 12 -4 1 -11 5 -15 8 -4 3 -13 9 -21 13 -8 3 -19 11 -26 17 -6
5 -12 10 -14 10 -2 0 -8 5 -14 10 -7 6 -15 12 -19 14 -24 12 -25 15 -23 89 1
49 1 61 -2 69 -1 5 -3 15 -4 22 -2 22 -6 25 -38 24 -34 -1 -32 5 -29 -95 3
-96 3 -96 -22 -108 -4 -2 -13 -9 -20 -16 -8 -7 -17 -15 -21 -16 -3 -2 -9 -5
-12 -8 -3 -2 -9 -6 -12 -8 -4 -1 -8 -5 -11 -8 -2 -3 -8 -8 -12 -11 -5 -4 -13
-10 -17 -14 -4 -3 -13 -9 -21 -12 -7 -4 -17 -11 -23 -16 -7 -7 -13 -10 -20
-12 -7 -2 -10 -4 -14 -9 -2 -4 -9 -10 -14 -15 -20 -15 -23 -28 -16 -57 9 -38
18 -42 45 -25 23 15 23 15 35 30 6 8 14 15 17 17 4 2 12 9 19 15 7 7 14 12 15
12 1 0 5 3 9 7 5 4 15 10 24 15 9 5 21 13 27 19 8 8 14 11 21 13 5 1 11 4 14
5 9 7 13 3 13 -12 0 -5 1 -11 2 -14 2 -5 2 -9 0 -16 -2 -10 -2 -12 2 -23 5
-15 5 -36 -2 -50 -5 -11 -5 -19 0 -32 5 -15 6 -82 0 -95 -2 -6 -3 -15 -3 -42
l0 -34 -12 -25 c-7 -14 -13 -28 -14 -32 -1 -3 -7 -17 -13 -30 -7 -13 -12 -25
-12 -27 0 -5 -10 -23 -17 -32 -5 -6 -8 -12 -9 -20 -2 -12 -2 -13 -10 -23 -3
-4 -7 -11 -8 -15 -4 -17 -11 -35 -17 -42 -7 -9 -17 -30 -17 -36 0 -2 -2 -7 -4
-11 -2 -4 -4 -10 -4 -12 0 -2 -3 -8 -7 -14 -5 -7 -8 -14 -9 -21 -1 -7 -4 -14
-9 -21 -4 -6 -7 -13 -7 -15 0 -2 -4 -13 -9 -23 -5 -10 -9 -21 -9 -23 0 -2 -1
-6 -3 -9 -10 -17 -1 -24 33 -24 34 0 47 13 62 64 2 8 10 26 18 41 7 16 14 31
15 35 1 3 7 17 13 30 7 13 12 26 12 28 0 2 7 18 16 36 8 18 16 36 17 40 0 4 6
16 11 28 6 11 11 25 12 30 5 21 19 43 26 39 4 -3 33 -62 35 -71 1 -4 8 -21 17
-39 8 -18 16 -35 17 -38 1 -3 6 -16 12 -28 6 -13 11 -26 12 -30 1 -4 6 -17 12
-30 8 -15 12 -25 12 -33 1 -6 3 -13 6 -17 7 -11 16 -29 18 -36 1 -10 16 -39
21 -44 9 -8 62 -7 71 2 9 9 9 9 -5 37 -7 13 -12 25 -12 27 0 2 -9 21 -20 43
-11 21 -20 42 -21 46 -1 4 -6 16 -12 28 -6 12 -12 25 -13 30 -1 5 -5 13 -9 18
-4 5 -7 11 -7 13 0 2 -2 8 -4 13 -2 5 -4 10 -4 12 0 5 -10 24 -18 34 -6 9 -8
12 -8 19 0 6 -3 15 -13 35 -7 14 -13 27 -13 29 0 2 -6 15 -13 29 -9 19 -13 28
-13 34 0 6 -2 11 -8 19 l-8 12 0 91 c-1 88 -1 91 -6 100 -6 14 -7 107 -1 111
6 4 8 4 19 -6 6 -5 13 -10 17 -12 3 -2 10 -7 15 -10 10 -8 17 -13 33 -24 6 -4
11 -9 12 -12 2 -3 6 -6 12 -8 5 -1 14 -7 19 -12 5 -4 15 -12 22 -16 7 -4 16
-11 19 -15 13 -15 58 -11 68 7 3 5 8 10 11 12 3 1 10 7 15 12 23 21 24 18 22
-47 -1 -50 -1 -54 3 -66 2 -6 4 -17 4 -23 0 -6 1 -14 3 -17 2 -4 4 -11 4 -17
1 -5 2 -12 4 -14 1 -2 2 -13 3 -24 1 -20 2 -22 13 -44 7 -16 11 -27 12 -34 0
-7 2 -12 7 -18 3 -4 9 -15 13 -23 4 -8 12 -19 16 -24 5 -5 11 -13 14 -17 2 -5
9 -11 13 -13 5 -3 10 -8 12 -12 2 -5 8 -12 13 -18 5 -6 11 -14 13 -19 5 -9 36
-42 45 -47 19 -10 61 0 75 18 4 5 11 10 15 12 5 2 10 6 12 9 8 12 26 29 35 34
6 3 12 9 14 12 2 4 8 10 13 14 5 4 11 11 13 16 3 4 9 13 14 18 9 10 12 17 12
29 0 3 5 15 10 27 6 12 12 28 13 35 4 17 15 54 21 66 2 5 3 16 4 40 1 24 2 34
4 38 5 8 6 106 1 118 -3 7 -4 18 -5 42 -1 24 -2 35 -5 40 -6 15 -21 64 -21 71
0 3 -5 15 -11 28 -6 12 -11 26 -12 30 -1 4 -4 9 -8 13 -8 7 -14 18 -16 29 -2
9 -27 37 -40 45 -4 2 -9 7 -11 11 -2 4 -8 9 -12 12 -5 4 -9 8 -11 12 -2 8 -6
13 -15 17 -4 2 -8 5 -10 7 -2 2 -6 5 -11 7 -4 3 -11 7 -15 10 -8 7 -21 9 -32
6z m15 -73 c13 -4 32 -19 35 -28 2 -5 5 -9 13 -14 12 -8 31 -27 36 -37 2 -4 8
-11 13 -17 11 -13 36 -63 36 -73 0 -4 3 -13 6 -20 15 -31 18 -45 19 -76 1 -23
2 -31 5 -38 6 -15 6 -109 0 -122 -3 -7 -4 -13 -4 -33 0 -32 -3 -44 -17 -75 -4
-8 -8 -20 -9 -26 -2 -15 -23 -57 -36 -72 -6 -7 -11 -14 -12 -19 -2 -7 -4 -10
-11 -15 -5 -3 -11 -10 -13 -14 -4 -8 -36 -41 -45 -45 -2 -2 -12 -3 -22 -3
l-18 0 -22 24 c-12 12 -24 26 -26 30 -2 4 -6 10 -9 13 -3 4 -8 13 -12 20 -4 8
-9 17 -12 21 -7 7 -17 26 -19 35 -1 3 -4 10 -8 15 -4 5 -7 12 -8 15 -1 3 -3
10 -5 14 -2 4 -4 13 -4 18 0 6 -2 15 -4 20 -2 6 -4 15 -5 21 -1 6 -2 13 -4 16
-2 3 -3 12 -4 19 -1 8 -3 18 -5 22 -5 12 -6 111 -1 121 2 4 4 15 5 27 1 15 3
24 8 37 4 9 7 23 8 31 1 8 3 17 4 20 2 3 4 9 5 13 1 3 5 11 9 16 4 6 8 13 8
16 0 10 4 19 14 30 6 6 12 14 13 17 2 3 8 10 12 16 5 5 13 17 17 26 7 13 13
20 29 37 22 22 23 22 40 17z"/>
<path d="M824 911 c-9 -6 -16 -13 -18 -16 -1 -3 -4 -8 -6 -11 -9 -12 -22 -32
-28 -45 -4 -7 -9 -16 -12 -20 -7 -9 -8 -11 -9 -32 0 -11 -2 -18 -4 -23 -6 -11
-7 -100 -1 -116 3 -7 4 -16 4 -26 0 -16 6 -34 16 -47 4 -4 8 -12 9 -17 3 -8 5
-11 12 -15 4 -4 10 -10 13 -16 23 -39 43 -48 72 -35 12 5 24 15 24 20 0 1 4 5
10 8 6 4 11 9 15 15 2 6 8 13 11 16 9 9 13 17 15 28 0 6 4 17 8 25 4 8 8 20 8
25 1 6 3 14 5 19 6 14 6 101 0 113 -2 4 -4 12 -5 16 -1 4 -2 10 -4 12 -1 2 -3
8 -5 13 -4 17 -11 35 -16 42 -3 4 -7 10 -9 13 -1 3 -7 10 -13 15 -6 5 -14 13
-18 17 -4 4 -9 9 -10 11 -28 27 -40 29 -64 11z m40 -43 c3 -3 9 -7 13 -9 6 -2
9 -4 13 -12 2 -5 6 -10 9 -12 8 -5 15 -19 16 -31 1 -6 5 -18 9 -27 5 -10 8
-20 8 -24 0 -5 2 -12 4 -17 3 -7 4 -13 4 -31 0 -18 -1 -24 -4 -31 -2 -5 -4
-12 -4 -16 0 -4 -2 -11 -4 -16 -2 -5 -4 -11 -4 -13 0 -2 -2 -7 -4 -11 -2 -4
-4 -13 -5 -19 -1 -12 -2 -14 -14 -27 -15 -18 -17 -20 -23 -25 -2 -2 -7 -7 -10
-11 -12 -15 -33 -9 -44 12 -2 4 -6 10 -10 15 -3 4 -6 11 -7 15 -1 5 -4 11 -7
15 -12 14 -18 30 -18 50 0 14 -1 21 -4 29 -5 14 -6 55 -1 65 3 4 4 12 4 24 1
12 3 21 5 27 2 6 4 11 4 13 0 3 3 9 7 14 17 24 21 30 24 37 5 11 6 13 13 18
10 6 23 6 30 -2z"/>
</g>
</svg>
