<?xml version="1.0" standalone="no"?>
<!DOCTYPE svg PUBLIC "-//W3C//DTD SVG 20010904//EN"
 "http://www.w3.org/TR/2001/REC-SVG-20010904/DTD/svg10.dtd">
<svg version="1.0" xmlns="http://www.w3.org/2000/svg"
 width="98.000000pt" height="148.000000pt" viewBox="0 0 98.000000 148.000000"
 preserveAspectRatio="xMidYMid meet">
<metadata>
Created by potrace 1.16, written by Peter Selinger 2001-2019
</metadata>
<g transform="translate(0.000000,148.000000) scale(0.100000,-0.100000)"
fill="#000000" stroke="none">
<path d="M433 1394 c-3 -8 -3 -46 -1 -85 3 -43 1 -74 -6 -83 -6 -7 -42 -35
-81 -62 -87 -60 -97 -70 -93 -92 6 -34 47 -26 108 22 32 25 63 46 69 46 8 0 9
-52 4 -177 -6 -174 -7 -181 -48 -308 -24 -71 -47 -131 -52 -132 -6 -2 -20 23
-32 56 -22 60 -92 161 -112 161 -12 0 -79 -69 -79 -82 0 -5 -9 -21 -20 -36
-52 -70 -64 -306 -20 -397 11 -23 20 -46 20 -51 0 -5 21 -30 46 -56 52 -54 82
-60 115 -27 31 31 85 156 94 214 3 28 13 70 21 95 9 25 35 106 59 180 24 74
48 136 53 138 6 2 13 -7 17 -20 7 -24 90 -221 106 -250 5 -10 9 -48 9 -85 0
-70 15 -135 45 -194 25 -50 96 -119 121 -119 41 0 108 107 135 216 24 93 -4
249 -63 350 -65 114 -97 129 -137 66 -13 -20 -32 -49 -43 -64 -10 -15 -18 -31
-18 -36 0 -5 -6 -15 -13 -21 -11 -9 -26 18 -75 134 l-61 144 -2 158 c-1 89 2
157 7 155 5 -1 39 -29 76 -62 65 -59 89 -67 102 -34 9 25 -3 40 -95 115 l-90
74 1 70 c1 39 2 76 1 83 -2 18 -60 15 -68 -4z m-251 -866 c4 -77 -4 -77 -49
-1 -27 47 -26 63 14 110 l18 22 6 -32 c4 -18 9 -62 11 -99z m67 76 c12 -19 21
-41 21 -49 0 -22 -41 -86 -51 -79 -12 7 -12 164 0 164 5 0 18 -16 30 -36z
m499 -76 l4 -93 -36 52 c-20 29 -36 58 -36 64 0 6 10 29 22 50 30 54 41 37 46
-73z m73 50 c17 -34 19 -45 9 -68 -7 -16 -20 -36 -31 -46 -19 -17 -19 -15 -19
75 0 100 7 106 41 39z m-682 -125 c35 -52 34 -69 -8 -120 -44 -53 -51 -44 -51
67 0 117 10 127 59 53z m171 -15 c5 -23 5 -67 2 -96 l-7 -54 -42 52 c-49 60
-51 70 -22 96 12 10 25 30 31 43 12 32 28 16 38 -41z m395 5 c34 -52 37 -59
24 -78 -8 -12 -23 -36 -34 -53 -27 -43 -42 -40 -50 8 -9 53 5 180 19 180 2 0
20 -26 41 -57z m174 -90 c0 -40 -3 -73 -7 -73 -9 0 -82 93 -82 104 0 4 17 27
38 52 l37 45 6 -28 c4 -15 7 -61 8 -100z m-689 -124 l0 -112 -35 44 c-52 65
-54 81 -10 134 20 25 38 45 41 45 2 0 4 -50 4 -111z m69 55 l33 -45 -23 -45
c-27 -50 -34 -54 -43 -21 -6 23 -9 157 -3 157 2 0 18 -21 36 -46z m501 -64 c0
-55 -4 -100 -8 -100 -11 0 -72 85 -72 100 0 15 61 100 72 100 4 0 8 -45 8
-100z m73 40 l27 -39 -26 -51 c-14 -28 -29 -49 -32 -46 -10 10 -14 176 -4 176
5 0 21 -18 35 -40z"/>
</g>
</svg>
