<?xml version="1.0" standalone="no"?>
<!DOCTYPE svg PUBLIC "-//W3C//DTD SVG 20010904//EN"
 "http://www.w3.org/TR/2001/REC-SVG-20010904/DTD/svg10.dtd">
<svg version="1.0" xmlns="http://www.w3.org/2000/svg"
 width="66.000000pt" height="100.000000pt" viewBox="0 0 66.000000 100.000000"
 preserveAspectRatio="xMidYMid meet">
<metadata>
Created by potrace 1.16, written by Peter Selinger 2001-2019
</metadata>
<g transform="translate(0.000000,100.000000) scale(0.100000,-0.100000)"
fill="#000000" stroke="none">
<path d="M297 953 c-4 -3 -7 -34 -7 -67 l0 -61 -53 -32 c-73 -44 -85 -59 -64
-81 16 -15 20 -14 62 16 25 18 48 32 50 32 3 0 5 -49 5 -108 0 -92 -4 -120
-28 -192 -16 -46 -33 -85 -38 -86 -5 -2 -23 25 -39 59 -38 78 -60 84 -104 30
-39 -47 -52 -92 -53 -186 -1 -98 15 -149 61 -197 44 -46 54 -48 85 -17 27 27
42 67 95 256 22 79 42 146 45 148 20 21 84 -142 96 -244 9 -79 39 -144 82
-176 26 -19 28 -19 53 -3 93 61 101 286 15 405 -40 54 -64 52 -100 -9 -15 -25
-31 -45 -36 -44 -5 0 -23 35 -41 78 -27 63 -34 96 -39 181 -8 121 -4 125 58
69 32 -28 42 -33 54 -23 25 21 15 38 -51 90 l-66 51 7 44 c4 29 2 49 -6 59
-13 16 -32 19 -43 8z"/>
</g>
</svg>
