<?xml version="1.0" standalone="no"?>
<!DOCTYPE svg PUBLIC "-//W3C//DTD SVG 20010904//EN"
 "http://www.w3.org/TR/2001/REC-SVG-20010904/DTD/svg10.dtd">
<svg version="1.0" xmlns="http://www.w3.org/2000/svg"
 width="390.000000pt" height="590.000000pt" viewBox="0 0 390.000000 590.000000"
 preserveAspectRatio="xMidYMid meet">
<metadata>
Created by potrace 1.16, written by Peter Selinger 2001-2019
</metadata>
<g transform="translate(0.000000,590.000000) scale(0.500000,-0.500000)"
fill="#000000" stroke="none">
<path d="M355 1126 c-9 -5 -10 -10 -8 -71 2 -74 0 -77 -56 -111 -18 -11 -60
-41 -72 -50 -22 -20 -21 -48 3 -54 15 -4 35 7 79 41 33 26 44 31 47 22 4 -9 0
-247 -4 -261 -2 -7 -6 -20 -8 -29 -3 -9 -8 -25 -11 -36 -4 -11 -9 -24 -10 -29
-3 -9 -6 -18 -13 -39 -2 -5 -8 -25 -14 -43 -10 -31 -17 -48 -20 -48 -4 0 -12
13 -13 20 -1 4 -3 10 -5 14 -2 4 -4 11 -5 16 -1 4 -4 12 -7 16 -3 4 -10 17
-16 28 -5 12 -13 25 -17 30 -5 5 -10 13 -13 17 -28 47 -67 37 -97 -24 -4 -8
-12 -21 -18 -28 -7 -8 -11 -17 -12 -21 -1 -4 -4 -11 -6 -16 -3 -5 -5 -14 -6
-21 -1 -6 -2 -14 -3 -17 -10 -25 -18 -130 -12 -163 1 -7 4 -22 6 -35 2 -13 4
-25 6 -27 1 -2 2 -8 3 -14 1 -5 4 -12 7 -17 4 -5 9 -16 13 -25 12 -31 18 -40
30 -49 6 -5 13 -12 16 -16 23 -36 75 -38 91 -4 3 5 7 12 10 15 5 6 16 27 32
61 9 21 22 60 23 74 1 7 3 19 4 26 2 8 3 18 3 23 0 10 1 11 10 27 4 5 7 14 7
19 1 6 3 14 5 19 2 6 4 12 4 16 0 6 9 30 12 35 1 1 3 8 5 15 3 15 7 26 15 49
7 18 7 17 17 49 20 61 23 68 29 61 5 -6 35 -71 69 -152 5 -12 11 -25 12 -28 2
-4 3 -8 3 -10 0 -1 4 -11 9 -21 9 -18 9 -18 9 -59 0 -29 1 -45 3 -53 1 -6 3
-17 4 -25 1 -7 3 -18 4 -23 2 -5 4 -13 5 -19 1 -5 5 -14 9 -20 4 -6 7 -12 7
-13 0 -6 26 -52 33 -58 4 -4 15 -14 24 -23 32 -33 73 -32 87 3 2 5 7 12 10 15
7 8 32 61 43 94 15 40 20 125 11 170 -2 11 -4 24 -4 30 0 8 -2 14 -7 25 -7 17
-18 47 -20 58 0 3 -4 10 -7 14 -3 4 -10 16 -15 26 -5 11 -12 23 -17 28 -4 5
-12 16 -19 26 -21 30 -39 32 -59 8 -4 -5 -11 -13 -15 -18 -4 -5 -9 -12 -10
-15 -4 -9 -15 -26 -25 -39 -5 -7 -9 -16 -11 -22 -2 -9 -12 -24 -15 -24 -4 0
-24 41 -24 48 0 1 -5 13 -12 26 -6 14 -12 27 -13 30 -1 2 -4 11 -8 19 -4 8 -9
21 -12 28 -3 8 -7 18 -9 23 -2 5 -4 11 -5 14 -1 3 -5 12 -9 21 l-8 16 0 122
c1 112 1 122 4 123 4 0 36 -26 67 -56 27 -26 35 -31 47 -31 33 1 39 40 9 61
-2 2 -16 15 -32 29 -15 14 -31 28 -36 31 -4 3 -13 9 -19 14 -6 6 -17 15 -24
20 -16 14 -16 11 -14 74 1 60 0 63 -8 67 -7 4 -36 4 -43 1z m-220 -615 c0 -4
3 -13 4 -19 2 -7 3 -21 3 -37 0 -17 1 -30 3 -38 5 -19 3 -36 -4 -34 -4 2 -29
36 -33 45 -1 4 -6 10 -9 15 -12 13 -8 26 17 60 14 19 16 20 19 8z m54 -12 c7
-8 13 -17 14 -19 1 -3 5 -10 8 -17 8 -15 9 -24 2 -32 -2 -3 -7 -10 -9 -15 -6
-12 -24 -38 -26 -38 -4 0 -5 26 -4 98 0 44 0 43 15 23z m400 2 c1 -5 2 -12 3
-18 2 -5 3 -24 4 -41 1 -17 2 -38 3 -47 3 -35 -9 -29 -36 16 -4 7 -9 15 -13
19 -11 12 -6 27 18 59 16 21 19 23 21 12z m56 -19 c5 -6 10 -13 11 -18 1 -4 5
-11 7 -15 10 -17 4 -34 -21 -69 -13 -19 -14 -16 -14 47 0 72 0 73 17 55z
m-564 -77 c6 -3 36 -44 47 -64 10 -21 3 -48 -15 -59 -4 -3 -9 -9 -12 -14 -25
-48 -35 -37 -37 41 -1 77 3 101 17 96z m158 -13 c1 -3 4 -14 6 -24 2 -11 4
-23 6 -27 5 -11 3 -83 -2 -94 -5 -10 -7 -9 -21 10 -7 9 -15 19 -18 23 -11 12
-26 33 -28 37 -4 8 5 24 27 46 5 5 9 11 10 14 4 17 15 25 20 15z m304 -9 c6
-7 12 -15 14 -19 2 -4 8 -12 13 -19 5 -7 12 -18 15 -25 l5 -14 -6 -12 c-4 -7
-12 -18 -18 -25 -6 -7 -13 -16 -16 -21 -12 -20 -22 -25 -26 -12 -1 4 -3 11 -4
15 -7 24 -4 90 4 118 1 3 2 9 2 14 0 15 4 15 17 0z m149 -5 c1 -2 3 -9 4 -16
1 -7 3 -16 5 -20 4 -9 5 -102 1 -111 -3 -9 -12 -3 -25 18 -2 3 -7 10 -12 15
-5 5 -10 12 -12 15 -1 4 -6 10 -10 15 -12 14 -8 27 15 49 6 6 12 14 14 19 8
18 16 24 20 16z m-543 -184 c0 -89 1 -88 -28 -53 -38 46 -38 60 4 103 3 4 9
11 13 16 11 13 11 13 11 -66z m456 58 c4 -20 0 -148 -5 -150 -8 -2 -56 64 -56
80 0 6 13 25 41 56 4 5 10 12 12 15 4 7 6 6 8 -1z m-404 -14 c29 -36 33 -46
24 -61 -3 -4 -10 -18 -17 -30 -20 -36 -22 -34 -25 22 0 7 -1 23 -3 37 -1 23
-1 40 1 48 2 4 6 1 20 -16z m449 -9 c19 -24 34 -44 34 -48 1 -9 0 -13 -6 -19
-6 -8 -20 -33 -20 -37 0 -4 -12 -17 -15 -17 -5 0 -9 56 -9 109 -1 30 1 31 16
12z"/>
</g>
</svg>
