<?xml version="1.0" standalone="no"?>
<!DOCTYPE svg PUBLIC "-//W3C//DTD SVG 20010904//EN"
 "http://www.w3.org/TR/2001/REC-SVG-20010904/DTD/svg10.dtd">
<svg version="1.0" xmlns="http://www.w3.org/2000/svg"
 width="548.000000pt" height="590.000000pt" viewBox="0 0 548.000000 590.000000"
 preserveAspectRatio="xMidYMid meet">
<metadata>
Created by potrace 1.16, written by Peter Selinger 2001-2019
</metadata>
<g transform="translate(0.000000,590.000000) scale(0.500000,-0.500000)"
fill="#000000" stroke="none">
<path d="M272 1145 c-23 -3 -22 -1 -20 -116 2 -107 2 -106 -9 -112 -4 -1 -16
-11 -26 -22 -11 -10 -24 -20 -28 -23 -8 -4 -62 -58 -70 -69 -2 -3 -6 -6 -10
-8 -3 -2 -15 -13 -27 -24 -12 -11 -25 -23 -30 -26 -29 -20 -13 -52 26 -51 l24
1 25 26 c13 14 25 25 27 25 1 0 11 8 21 18 10 9 22 19 26 22 5 2 15 11 23 20
17 18 24 23 28 19 4 -5 1 -334 -3 -342 -2 -3 -5 -10 -6 -16 -5 -18 -9 -30 -16
-44 -4 -8 -9 -17 -10 -22 -1 -4 -5 -14 -8 -22 -3 -8 -7 -18 -8 -24 -4 -14 -19
-48 -26 -58 -3 -4 -7 -12 -10 -18 -15 -33 -19 -41 -19 -43 0 -3 -7 -18 -16
-34 -4 -7 -8 -16 -9 -19 -1 -3 -6 -15 -11 -26 -5 -11 -12 -26 -15 -33 -2 -7
-7 -18 -10 -25 -17 -39 -3 -63 35 -58 14 2 36 29 36 45 0 2 6 15 13 30 7 15
13 28 13 30 0 2 4 12 9 23 5 10 12 25 15 34 3 9 10 25 16 37 5 12 11 26 13 31
1 6 7 19 13 30 5 12 10 24 11 27 0 4 6 18 13 32 7 13 12 26 12 27 0 5 10 21
13 21 5 0 33 -40 33 -47 0 -2 45 -92 48 -97 2 -3 20 -38 41 -79 21 -41 39 -75
40 -77 1 -2 5 -8 9 -15 14 -28 22 -35 46 -36 39 -3 37 55 -4 110 -7 8 -30 51
-53 95 -9 19 -20 38 -23 42 -3 4 -16 27 -28 52 -27 54 -35 69 -43 79 -4 4 -12
18 -18 31 -6 13 -15 28 -20 35 l-8 12 -2 168 c-1 188 -1 183 14 170 3 -2 12
-8 20 -12 8 -4 18 -10 22 -14 4 -3 14 -10 21 -14 8 -4 15 -9 16 -10 2 -2 10
-7 19 -11 9 -5 19 -11 22 -13 3 -3 12 -9 20 -12 8 -4 16 -9 18 -11 24 -23 79
-21 105 3 3 2 11 7 18 10 7 4 16 9 21 13 4 3 8 6 9 6 2 0 6 3 10 6 10 8 28 15
30 13 3 -3 -26 -65 -35 -75 -5 -5 -43 -73 -43 -76 0 -1 -3 -6 -7 -10 -31 -36
-33 -76 -7 -103 8 -9 17 -20 20 -24 2 -4 13 -17 25 -29 12 -12 23 -25 25 -29
3 -4 12 -15 20 -24 9 -9 17 -19 19 -23 2 -4 13 -17 25 -29 12 -12 23 -25 25
-29 2 -3 10 -14 18 -23 9 -9 17 -19 19 -24 10 -18 49 -19 61 0 4 5 10 13 14
19 4 5 11 15 15 21 7 11 13 18 25 29 3 3 8 10 9 15 4 11 11 22 21 32 4 3 10
12 14 20 4 8 13 19 18 26 6 6 11 13 11 14 0 1 3 6 8 12 4 5 9 13 11 16 1 3 6
9 9 12 4 3 8 9 10 13 6 11 21 34 30 44 19 21 17 48 -5 72 -7 7 -14 16 -16 20
-2 4 -7 10 -10 14 -4 5 -9 12 -12 16 -3 5 -11 15 -18 22 -7 7 -14 17 -17 21
-2 4 -8 12 -13 17 -5 5 -13 15 -18 22 -5 7 -10 14 -12 16 -2 2 -6 8 -10 13 -4
6 -13 17 -20 25 -7 8 -13 16 -13 17 0 2 -5 8 -11 15 -6 6 -12 15 -14 18 -20
41 -78 63 -104 40 -4 -4 -13 -10 -18 -13 -6 -3 -14 -8 -18 -12 -22 -15 -29
-19 -42 -26 -8 -4 -16 -10 -19 -12 -3 -3 -12 -8 -21 -13 -9 -5 -19 -12 -24
-15 -4 -4 -8 -7 -9 -7 -2 0 -5 -2 -9 -5 -19 -14 -40 -20 -59 -14 -6 2 -15 4
-19 5 -4 2 -11 5 -14 7 -3 2 -12 8 -20 12 -8 4 -18 10 -22 13 -3 3 -13 9 -20
13 -8 4 -17 10 -21 13 -4 3 -13 8 -20 12 -7 4 -16 8 -19 11 -3 2 -13 8 -21 12
-8 4 -19 10 -25 15 l-10 7 1 96 c1 122 1 123 -46 118z m533 -307 c6 -7 13 -15
14 -19 2 -4 7 -11 13 -17 5 -6 11 -14 13 -18 4 -7 12 -19 25 -36 5 -6 11 -14
13 -18 8 -15 20 -30 26 -34 4 -3 10 -8 13 -13 3 -5 13 -16 22 -25 9 -8 18 -20
21 -26 3 -5 6 -10 7 -11 5 -3 2 -16 -5 -26 -4 -6 -9 -13 -11 -18 -2 -4 -8 -11
-12 -16 -4 -4 -10 -12 -12 -16 -7 -12 -18 -26 -29 -39 -6 -6 -12 -15 -14 -18
-2 -4 -7 -11 -11 -16 -4 -5 -9 -11 -10 -14 -5 -10 -24 -37 -29 -42 -3 -3 -9
-10 -12 -15 -10 -16 -20 -19 -24 -7 -1 2 -11 13 -23 24 -14 14 -23 24 -25 29
-2 4 -10 15 -18 23 -8 8 -17 19 -20 24 -3 5 -15 19 -27 31 -12 12 -22 24 -22
26 0 1 -6 9 -13 17 -15 17 -16 21 -6 35 4 6 15 27 25 47 10 20 21 39 23 42 3
3 10 15 15 27 16 35 19 40 26 50 4 6 15 25 24 43 24 48 24 47 43 26z"/>
</g>
</svg>
