<?xml version="1.0" standalone="no"?>
<!DOCTYPE svg PUBLIC "-//W3C//DTD SVG 20010904//EN"
 "http://www.w3.org/TR/2001/REC-SVG-20010904/DTD/svg10.dtd">
<svg version="1.0" xmlns="http://www.w3.org/2000/svg"
 width="93.000000pt" height="100.000000pt" viewBox="0 0 93.000000 100.000000"
 preserveAspectRatio="xMidYMid meet">
<metadata>
Created by potrace 1.16, written by Peter Selinger 2001-2019
</metadata>
<g transform="translate(0.000000,100.000000) scale(0.100000,-0.100000)"
fill="#000000" stroke="none">
<path d="M217 964 c-4 -4 -7 -47 -7 -95 l0 -87 -85 -74 c-83 -71 -103 -97 -90
-118 14 -22 50 -7 104 45 32 30 61 55 64 55 4 0 7 -65 7 -144 0 -160 0 -161
-105 -379 -49 -103 -53 -130 -18 -135 28 -4 40 15 98 163 26 66 53 126 60 134
11 11 24 -7 78 -115 75 -149 97 -180 120 -171 36 14 18 57 -118 292 l-52 90
-5 143 c-2 79 -1 145 3 148 4 2 42 -18 85 -46 42 -27 83 -50 92 -50 8 0 39 14
68 31 68 38 69 26 9 -67 -24 -38 -45 -78 -45 -89 0 -27 186 -245 209 -245 22
0 42 22 129 146 40 56 72 110 72 121 0 11 -45 76 -101 146 -74 93 -107 127
-122 127 -12 0 -60 -23 -107 -50 -47 -28 -93 -50 -103 -50 -9 0 -55 21 -102
46 l-84 45 -3 92 c-3 84 -5 92 -23 95 -12 2 -24 0 -28 -4z m533 -349 c82 -105
82 -89 9 -193 -35 -50 -67 -92 -70 -92 -10 0 -139 154 -139 166 0 6 25 59 57
119 l56 108 21 -25 c12 -14 41 -52 66 -83z"/>
</g>
</svg>
