<?xml version="1.0" standalone="no"?>
<!DOCTYPE svg PUBLIC "-//W3C//DTD SVG 20010904//EN"
 "http://www.w3.org/TR/2001/REC-SVG-20010904/DTD/svg10.dtd">
<svg version="1.0" xmlns="http://www.w3.org/2000/svg"
 width="138.000000pt" height="148.000000pt" viewBox="0 0 138.000000 148.000000"
 preserveAspectRatio="xMidYMid meet">
<metadata>
Created by potrace 1.16, written by Peter Selinger 2001-2019
</metadata>
<g transform="translate(0.000000,148.000000) scale(0.100000,-0.100000)"
fill="#000000" stroke="none">
<path d="M313 1414 c-3 -8 -3 -69 1 -134 l7 -118 -37 -34 c-192 -171 -234
-213 -234 -235 0 -20 5 -23 36 -23 31 0 48 11 125 83 50 45 94 84 100 85 5 2
8 -83 5 -220 l-3 -223 -32 -74 c-17 -40 -31 -77 -31 -81 0 -5 -22 -55 -49
-112 -91 -193 -103 -222 -104 -248 -2 -22 2 -25 33 -28 l36 -3 81 188 c44 103
88 209 98 236 14 38 20 45 32 36 7 -7 54 -93 104 -193 109 -217 131 -248 167
-244 36 4 39 34 9 89 -135 252 -250 460 -258 464 -10 7 -13 438 -3 448 4 4 23
-6 43 -22 67 -52 208 -131 235 -131 14 0 60 22 102 50 43 27 81 47 85 44 8 -5
0 -19 -99 -185 -29 -47 -52 -93 -52 -103 0 -10 28 -50 63 -90 34 -40 98 -116
142 -169 101 -120 115 -123 177 -39 24 31 48 64 53 73 18 29 48 72 112 160 60
83 75 120 53 134 -6 4 -22 23 -35 43 -13 21 -77 102 -142 182 -139 170 -144
173 -232 114 -31 -20 -74 -49 -96 -62 -22 -14 -53 -34 -69 -45 -40 -28 -86
-18 -176 35 -41 25 -97 57 -124 73 l-49 27 7 120 c5 86 4 123 -5 134 -16 19
-68 18 -76 -2z m751 -436 c36 -51 83 -113 106 -138 65 -70 66 -75 28 -125 -43
-57 -100 -137 -142 -198 -31 -45 -35 -47 -50 -32 -28 29 -206 243 -206 249 0
3 19 38 43 78 23 40 62 114 87 165 25 50 50 92 57 92 7 1 41 -41 77 -91z"/>
</g>
</svg>
