<?xml version="1.0" standalone="no"?>
<!DOCTYPE svg PUBLIC "-//W3C//DTD SVG 20010904//EN"
 "http://www.w3.org/TR/2001/REC-SVG-20010904/DTD/svg10.dtd">
<svg version="1.0" xmlns="http://www.w3.org/2000/svg"
 width="374.000000pt" height="590.000000pt" viewBox="0 0 374.000000 590.000000"
 preserveAspectRatio="xMidYMid meet">
<metadata>
Created by potrace 1.16, written by Peter Selinger 2001-2019
</metadata>
<g transform="translate(0.000000,590.000000) scale(0.500000,-0.500000)"
fill="#000000" stroke="none">
<path d="M588 1137 c-35 -14 -90 -60 -90 -76 0 -19 -19 -58 -30 -60 -11 -2
-34 -17 -49 -32 -63 -63 -74 -64 -116 -21 -19 19 -18 16 -16 86 2 82 2 82 -30
82 -30 0 -28 7 -28 -84 0 -76 0 -76 -6 -81 -3 -3 -8 -7 -11 -10 -10 -9 -26
-19 -37 -24 -26 -11 -43 -21 -63 -34 -12 -8 -28 -18 -36 -22 -29 -14 -38 -29
-28 -50 13 -26 26 -26 66 -1 42 27 58 37 67 40 5 3 13 5 17 7 4 1 10 4 14 7
21 12 21 12 19 -90 -1 -47 -2 -142 -2 -212 l0 -127 -8 -14 c-4 -7 -9 -19 -12
-27 -3 -7 -7 -19 -11 -27 -3 -8 -7 -19 -9 -25 -2 -6 -8 -18 -13 -27 -8 -13
-38 -80 -38 -84 0 -1 -5 -13 -12 -28 -6 -14 -12 -28 -13 -31 -1 -6 -16 -39
-27 -64 -25 -53 -22 -67 13 -68 30 -1 37 6 50 50 3 10 14 38 22 56 9 20 41 96
49 116 15 41 32 76 36 76 6 0 19 -22 23 -40 2 -6 6 -15 9 -20 6 -10 12 -26 18
-43 3 -7 7 -15 9 -19 5 -7 12 -27 18 -46 1 -6 7 -17 12 -25 5 -8 9 -15 9 -15
0 -33 40 -91 61 -90 40 2 40 20 -1 108 -6 12 -13 29 -17 38 -4 9 -10 25 -15
35 -9 20 -18 42 -30 72 -5 11 -11 26 -14 33 -26 54 -45 107 -49 141 -5 41 -5
52 -2 65 3 10 3 18 2 34 -1 12 -1 27 -1 34 0 7 0 70 0 140 -1 154 -2 147 23
124 15 -14 26 -20 40 -20 12 0 12 0 56 39 32 29 44 38 47 36 3 -2 2 -14 -2
-25 -2 -5 -6 -17 -9 -26 -5 -15 -15 -35 -30 -58 -3 -4 -6 -13 -7 -21 -1 -8 -5
-24 -7 -35 -3 -12 -6 -29 -7 -38 -1 -10 -3 -20 -4 -23 -3 -8 -2 -31 1 -41 3
-10 6 -36 9 -74 1 -19 2 -25 5 -28 3 -4 4 -7 4 -20 0 -13 1 -17 6 -28 4 -7 7
-19 8 -25 2 -14 9 -27 21 -34 4 -3 10 -9 13 -14 4 -4 11 -11 16 -14 6 -3 16
-12 23 -19 13 -14 13 -14 26 -14 26 0 28 4 28 55 0 34 3 71 8 116 1 9 2 31 2
49 0 34 1 44 10 66 6 19 12 37 12 41 0 6 19 44 32 67 21 34 40 75 50 108 4 10
11 28 18 40 22 41 21 36 21 94 0 57 -1 61 -14 85 -8 14 -15 20 -29 23 -5 1
-15 4 -21 7 -13 5 -40 7 -49 4z m41 -57 c16 -15 24 -43 11 -43 -9 1 -62 25
-65 29 -9 15 40 27 54 14z m-68 -55 c6 -2 15 -6 22 -9 7 -3 22 -10 34 -15 29
-13 32 -19 20 -40 -7 -12 -6 -12 -63 10 -43 16 -45 18 -40 37 5 21 9 23 27 17z
m8 -93 c41 -17 45 -21 39 -40 -4 -12 -16 -10 -75 9 -28 9 -31 14 -21 33 8 16
13 16 57 -2z m-52 -65 c5 -1 17 -6 29 -9 36 -11 39 -13 33 -28 -6 -16 -11 -16
-50 -3 -41 13 -39 12 -39 22 0 19 9 25 27 18z m-10 -72 c41 -14 43 -15 36 -32
-9 -21 -14 -23 -36 -17 -54 16 -52 14 -45 37 8 24 9 24 45 12z m-35 -78 c48
-14 47 -14 41 -37 -1 -6 -3 -14 -4 -19 -2 -13 -7 -14 -32 -8 -35 8 -35 8 -35
36 0 31 5 35 30 28z m8 -105 c19 -5 18 -4 18 -19 0 -26 -36 -25 -45 1 -7 23
-3 26 27 18z m4 -78 c12 -4 15 -40 4 -40 -10 0 -29 29 -25 39 2 4 12 4 21 1z"/>
</g>
</svg>
