<?xml version="1.0" standalone="no"?>
<!DOCTYPE svg PUBLIC "-//W3C//DTD SVG 20010904//EN"
 "http://www.w3.org/TR/2001/REC-SVG-20010904/DTD/svg10.dtd">
<svg version="1.0" xmlns="http://www.w3.org/2000/svg"
 width="64.000000pt" height="100.000000pt" viewBox="0 0 64.000000 100.000000"
 preserveAspectRatio="xMidYMid meet">
<metadata>
Created by potrace 1.16, written by Peter Selinger 2001-2019
</metadata>
<g transform="translate(0.000000,100.000000) scale(0.100000,-0.100000)"
fill="#000000" stroke="none">
<path d="M454 935 c-14 -14 -30 -38 -35 -53 -12 -31 -100 -102 -128 -102 -30
0 -40 21 -43 95 -3 67 -4 70 -28 70 -24 0 -25 -3 -30 -75 l-5 -75 -70 -37
c-82 -43 -97 -60 -73 -84 15 -15 21 -14 77 21 34 21 64 35 68 32 3 -4 5 -88 4
-188 l-2 -181 -71 -155 c-73 -160 -76 -182 -25 -169 20 5 32 25 69 123 25 64
50 119 55 120 6 2 30 -44 53 -102 48 -120 69 -151 93 -142 27 10 21 37 -37
158 -29 63 -58 130 -64 149 -6 19 -12 115 -15 213 l-4 177 34 -6 c27 -5 40 -1
69 21 19 15 38 24 41 21 4 -3 -7 -34 -23 -68 -25 -53 -29 -72 -28 -142 1 -106
17 -158 60 -202 58 -57 68 -46 75 76 7 127 7 127 75 267 45 94 54 121 54 167
0 71 -21 96 -80 96 -30 0 -47 -7 -66 -25z"/>
</g>
</svg>
