<?xml version="1.0" standalone="no"?>
<!DOCTYPE svg PUBLIC "-//W3C//DTD SVG 20010904//EN"
 "http://www.w3.org/TR/2001/REC-SVG-20010904/DTD/svg10.dtd">
<svg version="1.0" xmlns="http://www.w3.org/2000/svg"
 width="686.000000pt" height="590.000000pt" viewBox="0 0 686.000000 590.000000"
 preserveAspectRatio="xMidYMid meet">
<metadata>
Created by potrace 1.16, written by Peter Selinger 2001-2019
</metadata>
<g transform="translate(0.000000,590.000000) scale(0.500000,-0.500000)"
fill="#000000" stroke="none">
<path d="M300 1137 c-13 -6 -13 -8 -12 -64 2 -93 3 -84 -12 -98 -50 -46 -93
-83 -103 -91 -7 -5 -29 -24 -49 -42 -20 -18 -44 -38 -52 -45 -24 -19 -29 -51
-9 -59 33 -12 24 -18 130 79 87 79 88 80 94 78 5 -2 5 -12 3 -122 -1 -60 -2
-152 -2 -204 0 -107 1 -100 -14 -123 -13 -19 -31 -49 -41 -65 -4 -8 -16 -27
-26 -41 -9 -15 -22 -34 -28 -44 -19 -31 -48 -75 -82 -127 -49 -74 -47 -68 -25
-85 31 -23 42 -21 58 10 5 9 13 23 18 31 5 8 11 17 13 20 36 59 150 241 156
248 9 10 9 11 60 -72 22 -36 50 -82 62 -101 12 -19 37 -61 57 -92 45 -73 49
-77 70 -61 4 3 10 7 13 8 12 8 16 12 16 18 0 7 -20 42 -33 61 -9 11 -19 27
-37 58 -6 11 -14 24 -18 28 -6 9 -10 15 -37 60 -8 14 -17 29 -21 34 -3 5 -9
14 -12 19 -7 13 -22 38 -35 59 -6 9 -12 18 -12 20 -1 2 -9 14 -18 26 -8 13
-16 25 -17 27 -1 4 -4 263 -4 374 0 68 -3 67 48 19 18 -18 38 -36 45 -42 7 -6
33 -29 57 -53 79 -76 82 -77 129 -29 48 48 164 158 171 161 24 13 22 29 20
-188 -3 -225 -5 -210 29 -210 20 0 31 10 81 72 4 6 12 15 18 21 17 19 48 54
57 66 30 37 52 60 56 60 5 0 36 -34 71 -77 10 -12 75 -87 96 -111 30 -32 49
-29 78 13 9 14 22 32 27 40 22 31 14 55 -16 55 -18 0 -28 -6 -40 -24 -10 -14
-13 -18 -18 -18 -3 0 -40 39 -70 74 -7 8 -20 22 -28 31 -61 64 -62 65 -44 84
6 7 34 38 63 70 85 95 77 89 93 67 22 -30 62 -28 62 3 0 19 -7 32 -44 83 -19
26 -47 17 -86 -28 -22 -27 -30 -37 -68 -80 -7 -9 -18 -22 -25 -30 -20 -24 -45
-52 -48 -53 -6 -2 -25 17 -79 80 -36 43 -92 106 -99 113 -20 20 -61 22 -66 4
0 -4 -2 -9 -3 -11 0 -3 -21 -23 -46 -46 -25 -23 -67 -63 -93 -88 -57 -55 -86
-82 -92 -85 -7 -3 -12 0 -47 31 -40 37 -109 97 -123 109 -6 5 -17 15 -26 23
-8 7 -20 16 -25 19 -14 7 -14 3 -12 80 1 65 1 65 -6 71 -7 6 -38 8 -48 2z
m593 -205 c9 -10 23 -25 32 -36 9 -10 22 -26 30 -34 24 -26 56 -63 61 -69 7
-10 5 -13 -22 -42 -14 -14 -28 -30 -32 -36 -23 -28 -83 -91 -87 -91 -5 0 -9
314 -4 322 3 4 6 2 22 -14z"/>
</g>
</svg>
