<?xml version="1.0" standalone="no"?>
<!DOCTYPE svg PUBLIC "-//W3C//DTD SVG 20010904//EN"
 "http://www.w3.org/TR/2001/REC-SVG-20010904/DTD/svg10.dtd">
<svg version="1.0" xmlns="http://www.w3.org/2000/svg"
 width="100.000000pt" height="86.000000pt" viewBox="0 0 100.000000 86.000000"
 preserveAspectRatio="xMidYMid meet">
<metadata>
Created by potrace 1.16, written by Peter Selinger 2001-2019
</metadata>
<g transform="translate(0.000000,86.000000) scale(0.100000,-0.100000)"
fill="#000000" stroke="none">
<path d="M207 816 c-3 -8 -3 -31 0 -50 5 -32 1 -40 -33 -74 -22 -20 -61 -55
-87 -77 -53 -44 -66 -78 -31 -83 15 -2 41 15 82 52 33 31 62 56 66 56 3 0 6
-67 6 -149 l0 -149 -69 -105 c-100 -152 -107 -166 -87 -185 15 -15 17 -15 32
-1 8 9 43 63 78 120 34 57 66 104 72 104 5 0 37 -47 71 -104 33 -57 68 -110
76 -119 18 -18 47 -9 47 14 0 15 -78 148 -141 240 -26 39 -27 45 -30 187 -2
80 0 150 4 153 4 4 38 -23 77 -60 39 -36 76 -66 82 -66 6 0 46 33 87 73 l76
72 3 -143 c2 -118 5 -144 18 -149 17 -6 79 49 121 109 14 21 33 38 42 38 9 0
36 -25 61 -56 46 -57 76 -84 95 -84 6 0 22 18 34 41 28 50 17 71 -25 48 -26
-13 -28 -12 -75 41 -27 30 -49 58 -49 61 0 4 21 30 46 58 43 48 49 51 80 45
30 -5 34 -4 34 14 0 29 -43 77 -63 69 -8 -3 -39 -34 -68 -69 -28 -35 -57 -64
-64 -66 -7 -2 -40 29 -75 68 -34 38 -70 70 -79 70 -9 0 -46 -30 -81 -66 -36
-36 -77 -74 -92 -85 l-28 -20 -80 67 -80 67 0 54 c0 49 -2 53 -24 53 -13 0
-26 -6 -29 -14z m482 -189 c22 -27 41 -53 41 -58 0 -5 -19 -30 -42 -55 -41
-45 -43 -46 -49 -23 -14 50 -9 205 6 187 2 -2 21 -25 44 -51z"/>
</g>
</svg>
