<?xml version="1.0" standalone="no"?>
<!DOCTYPE svg PUBLIC "-//W3C//DTD SVG 20010904//EN"
 "http://www.w3.org/TR/2001/REC-SVG-20010904/DTD/svg10.dtd">
<svg version="1.0" xmlns="http://www.w3.org/2000/svg"
 width="172.000000pt" height="148.000000pt" viewBox="0 0 172.000000 148.000000"
 preserveAspectRatio="xMidYMid meet">
<metadata>
Created by potrace 1.16, written by Peter Selinger 2001-2019
</metadata>
<g transform="translate(0.000000,148.000000) scale(0.100000,-0.100000)"
fill="#000000" stroke="none">
<path d="M359 1413 c0 -5 0 -47 1 -95 l1 -87 -43 -39 c-24 -22 -70 -62 -103
-90 -138 -116 -158 -137 -151 -159 4 -11 16 -23 27 -26 21 -6 53 20 187 144
34 33 67 60 73 62 9 1 11 -71 10 -272 l-3 -274 -105 -166 c-58 -91 -123 -192
-144 -223 -22 -31 -39 -61 -39 -66 0 -14 47 -35 65 -29 8 4 18 15 22 24 4 10
30 54 58 98 29 44 80 125 114 180 34 55 67 100 73 100 10 0 105 -147 218 -336
52 -88 62 -96 94 -72 32 23 32 26 -3 76 -27 40 -95 150 -131 212 -9 17 -45 74
-78 128 l-61 97 -5 275 c-2 151 -1 275 2 275 2 0 57 -49 121 -108 111 -103
158 -142 172 -142 3 0 26 19 50 43 189 181 228 217 239 217 9 0 11 -57 10
-242 -1 -134 -2 -249 -1 -255 0 -7 13 -13 29 -13 23 0 46 21 137 126 60 69
114 133 120 141 10 13 19 6 56 -38 94 -116 194 -219 210 -219 9 0 35 25 58 55
49 64 52 98 9 103 -20 2 -30 -4 -44 -27 -10 -17 -22 -31 -26 -31 -5 0 -23 17
-41 37 -18 21 -63 71 -100 111 l-68 74 58 62 c32 33 78 83 102 111 l43 50 23
-28 c26 -34 68 -35 73 -2 4 26 -53 112 -80 120 -25 9 -51 -16 -171 -158 l-91
-109 -35 44 c-20 23 -72 84 -117 133 -64 72 -87 91 -111 93 -24 2 -33 -2 -38
-17 -3 -11 -20 -32 -38 -47 -18 -14 -75 -67 -127 -118 -150 -144 -122 -139
-226 -45 -49 44 -114 101 -145 125 l-56 45 5 89 5 90 -42 0 c-22 0 -41 -3 -42
-7z m830 -328 l92 -105 -93 -105 c-51 -58 -96 -105 -100 -105 -5 0 -8 95 -8
210 0 116 4 210 9 210 5 0 50 -47 100 -105z"/>
</g>
</svg>
