<?xml version="1.0" standalone="no"?>
<!DOCTYPE svg PUBLIC "-//W3C//DTD SVG 20010904//EN"
 "http://www.w3.org/TR/2001/REC-SVG-20010904/DTD/svg10.dtd">
<svg version="1.0" xmlns="http://www.w3.org/2000/svg"
 width="904.000000pt" height="590.000000pt" viewBox="0 0 904.000000 590.000000"
 preserveAspectRatio="xMidYMid meet">
<metadata>
Created by potrace 1.16, written by Peter Selinger 2001-2019
</metadata>
<g transform="translate(0.000000,590.000000) scale(0.500000,-0.500000)"
fill="#000000" stroke="none">
<path d="M375 1140 c-4 -4 -4 -8 -3 -59 1 -71 25 -62 -167 -63 -100 0 -158 -1
-162 -2 -18 -6 -15 -59 4 -74 13 -10 56 -56 61 -65 3 -4 18 -22 35 -39 17 -17
33 -35 36 -40 10 -16 30 -25 46 -19 4 1 13 5 20 7 14 5 19 10 33 27 15 20 40
46 51 53 6 4 16 13 21 19 24 27 25 23 22 -99 -1 -56 -2 -125 -2 -154 0 -54 0
-54 -7 -63 -3 -6 -7 -13 -8 -17 -1 -4 -3 -10 -5 -15 -2 -4 -4 -10 -4 -12 0 -2
-2 -8 -4 -12 -2 -4 -6 -15 -8 -23 -2 -8 -7 -20 -11 -26 -7 -12 -17 -34 -17
-38 0 -2 -3 -8 -7 -13 -6 -9 -7 -13 -8 -25 -1 -8 -3 -18 -5 -22 -2 -5 -4 -9
-4 -11 0 -2 -4 -13 -9 -23 -5 -10 -9 -20 -9 -21 0 -2 -5 -14 -10 -27 -12 -29
-21 -54 -24 -65 -1 -4 -5 -12 -8 -19 -3 -6 -7 -15 -8 -20 -2 -5 -6 -16 -10
-24 -4 -8 -10 -23 -14 -33 -3 -10 -7 -22 -9 -26 -15 -35 -3 -58 29 -58 34 0
52 15 52 42 0 5 2 12 3 16 4 10 6 16 9 32 2 7 6 20 10 29 4 9 11 28 16 42 4
14 9 30 12 35 2 6 5 13 6 17 4 11 11 29 18 46 3 8 8 22 10 30 2 8 8 22 12 31
5 9 8 18 8 20 0 2 3 11 7 19 4 7 7 17 8 21 1 5 3 10 4 13 2 3 4 10 5 15 7 31
25 26 33 -9 1 -4 5 -15 10 -24 5 -10 11 -24 13 -31 2 -8 9 -25 16 -39 6 -14
13 -30 14 -36 1 -6 5 -17 9 -24 4 -7 8 -17 8 -22 2 -15 3 -18 9 -24 3 -4 10
-16 16 -27 6 -11 12 -23 14 -27 2 -4 4 -9 4 -11 0 -2 7 -18 16 -36 9 -18 17
-36 18 -40 10 -39 21 -48 52 -47 25 2 32 37 14 65 -3 6 -7 14 -8 18 -3 9 -15
39 -25 58 -4 8 -8 17 -8 21 -1 4 -5 14 -10 22 -4 8 -9 21 -11 29 -2 9 -11 28
-20 47 -9 17 -16 33 -16 35 0 2 -7 18 -16 36 -8 18 -16 35 -17 39 -1 4 -6 16
-12 28 -6 12 -11 23 -12 26 -1 3 -8 19 -17 37 -19 40 -22 59 -22 166 0 36 -1
97 -2 134 -3 86 -2 90 22 71 6 -5 14 -11 18 -14 4 -2 14 -11 22 -19 8 -8 18
-16 21 -18 4 -2 12 -8 17 -13 6 -6 14 -12 18 -14 4 -2 12 -9 19 -16 15 -15 16
-16 34 -18 8 -1 17 -3 22 -3 18 -3 32 13 36 40 2 13 6 23 18 49 9 18 18 38 20
43 3 6 5 11 5 12 0 21 16 34 44 36 15 1 24 2 29 4 39 22 78 -6 59 -43 -2 -4
-4 -12 -4 -17 0 -5 -2 -13 -4 -18 -2 -6 -4 -16 -5 -24 0 -8 -3 -18 -5 -23 -2
-5 -4 -12 -4 -15 0 -4 -1 -9 -2 -12 -1 -3 -3 -13 -4 -22 -1 -8 -3 -18 -5 -21
-2 -4 -4 -14 -5 -23 -1 -9 -3 -18 -4 -21 -1 -3 -4 -11 -5 -18 -1 -7 -4 -17 -6
-21 -1 -4 -3 -12 -3 -17 0 -4 -1 -11 -3 -15 -2 -3 -4 -13 -5 -22 -1 -9 -3 -19
-5 -23 -2 -4 -4 -13 -4 -21 -1 -9 -2 -18 -4 -21 -1 -3 -3 -10 -4 -16 -1 -6 -3
-14 -5 -17 -1 -3 -3 -13 -4 -22 -1 -9 -3 -19 -5 -23 -2 -3 -3 -11 -3 -16 0 -7
-2 -15 -4 -20 -2 -5 -4 -13 -4 -20 0 -6 -2 -15 -3 -19 -2 -4 -4 -13 -5 -20 -1
-7 -3 -15 -5 -18 -2 -4 -3 -12 -3 -19 0 -7 -1 -16 -4 -22 -2 -5 -4 -15 -5 -22
0 -8 -2 -16 -4 -19 -1 -4 -3 -11 -4 -16 -1 -5 -3 -13 -5 -18 -2 -5 -4 -13 -4
-20 0 -8 -2 -15 -4 -20 -2 -5 -4 -12 -4 -20 0 -7 -2 -15 -4 -21 -3 -6 -4 -13
-4 -22 0 -8 -1 -17 -3 -21 -5 -13 -4 -64 2 -68 3 -2 29 -3 157 -4 84 -1 163
-2 175 -3 127 -12 161 3 135 60 -2 5 -4 12 -4 15 0 4 -2 13 -5 21 -3 7 -5 16
-5 18 0 2 -2 8 -4 12 -8 20 -13 38 -18 72 -1 6 -3 14 -5 18 -2 5 -3 11 -3 15
0 4 -1 10 -3 15 -2 4 -5 13 -6 20 -3 14 -7 27 -13 42 -2 4 -4 12 -4 16 0 4 -2
11 -4 16 -2 5 -4 12 -4 16 0 5 -2 12 -4 18 -2 6 -4 13 -4 17 0 4 -2 11 -4 17
-2 6 -4 12 -4 15 0 3 -1 8 -3 13 -2 4 -5 13 -6 20 -1 7 -4 17 -6 21 -1 4 -3
11 -3 15 0 4 -1 10 -3 13 -2 3 -3 9 -4 13 -1 4 -3 10 -5 14 -2 4 -4 12 -5 17
0 6 -2 14 -4 17 -2 4 -4 15 -5 29 -1 12 -3 26 -5 30 -1 4 -3 11 -3 15 0 3 -2
10 -4 16 -2 5 -4 13 -5 18 0 6 -4 16 -7 23 -5 10 -7 19 -8 29 -1 8 -3 18 -5
22 -2 3 -4 13 -5 21 -1 13 -3 17 -9 24 -5 7 -7 13 -10 25 -2 8 -5 20 -7 25 -2
6 -4 14 -5 20 -1 5 -3 14 -5 19 -12 25 -8 26 77 25 83 -1 73 3 93 -38 9 -18
20 -39 25 -46 5 -8 12 -22 16 -30 25 -57 31 -64 51 -64 28 0 23 -4 89 65 71
74 71 74 73 45 1 -13 2 -16 7 -21 6 -6 6 -6 4 -41 -1 -20 -2 -81 -3 -137 -1
-87 -2 -102 -5 -110 -2 -6 -3 -12 -2 -20 1 -8 0 -14 -2 -20 -2 -5 -3 -11 -3
-14 0 -3 -2 -9 -3 -13 -2 -4 -5 -12 -6 -17 -2 -5 -6 -17 -9 -27 -3 -10 -6 -20
-6 -22 0 -2 -1 -6 -3 -9 -2 -4 -5 -11 -6 -16 -3 -10 -8 -25 -13 -38 -2 -5 -5
-14 -8 -20 -2 -7 -5 -17 -6 -23 -1 -7 -3 -15 -5 -19 -1 -4 -4 -13 -7 -21 -2
-8 -6 -18 -8 -23 -2 -5 -6 -17 -9 -27 -3 -10 -7 -21 -8 -25 -1 -4 -5 -15 -8
-25 -3 -10 -6 -21 -8 -24 -2 -4 -3 -10 -4 -14 -1 -5 -3 -10 -4 -13 -3 -5 -9
-21 -14 -38 -1 -5 -4 -13 -6 -18 -11 -30 -2 -42 31 -42 28 0 36 4 39 21 0 4 3
12 5 16 2 4 4 10 4 12 0 2 1 6 3 9 2 3 4 12 6 20 3 13 29 97 39 125 8 23 14
43 14 48 0 4 1 10 3 14 2 5 5 12 6 17 2 9 11 36 19 57 2 6 8 24 13 40 12 38
12 38 17 41 8 4 15 -8 48 -78 6 -13 14 -27 19 -33 4 -5 11 -18 16 -29 22 -46
51 -104 58 -115 4 -7 15 -27 24 -45 9 -19 19 -36 22 -40 3 -3 12 -20 20 -38
18 -38 18 -37 46 -37 38 0 45 46 13 88 -1 1 -3 7 -6 13 -2 6 -6 14 -9 16 -7 6
-15 22 -21 38 -3 7 -8 18 -12 25 -4 7 -10 18 -14 26 -5 8 -10 16 -13 19 -3 3
-10 16 -17 29 -24 50 -45 88 -50 95 -4 3 -18 30 -32 60 -15 29 -28 56 -31 59
-2 3 -8 13 -13 22 -4 9 -11 20 -15 25 -6 8 -6 8 -8 131 -3 209 -3 220 3 226 9
10 24 5 32 -12 6 -11 16 -22 26 -30 6 -4 12 -11 15 -15 3 -5 12 -16 20 -25 8
-9 16 -19 18 -22 2 -5 6 -8 13 -12 6 -2 15 -7 19 -10 13 -9 46 -3 54 11 2 3 9
12 16 20 6 7 13 17 15 21 2 4 10 15 19 25 8 9 15 17 15 18 0 1 4 7 10 13 5 6
12 15 14 19 3 5 11 15 18 23 24 25 33 72 17 89 -6 6 -88 9 -130 4 -148 -17
-193 -7 -193 45 0 54 -1 55 -45 55 -31 0 -30 3 -29 -64 1 -49 26 -44 -205 -45
-103 0 -194 -2 -213 -3 -18 -1 -93 -3 -167 -4 -74 -1 -178 -3 -232 -4 -118 -3
-103 -11 -102 58 2 68 5 62 -34 62 -26 0 -29 0 -32 -4z m919 -170 c7 -2 7 -7
1 -16 -4 -4 -9 -11 -11 -16 -5 -9 -57 -60 -68 -67 -8 -5 -12 -2 -22 16 -5 9
-11 18 -13 21 -6 7 -27 48 -27 54 0 6 3 7 50 8 68 2 85 2 90 0z m361 -1 c4 -2
4 -10 -1 -14 -3 -2 -9 -10 -14 -18 -15 -21 -42 -51 -47 -52 -8 -2 -31 17 -31
26 0 1 -8 10 -18 20 -24 24 -30 36 -18 40 5 1 125 0 129 -2z m-1041 -16 c2 -2
10 -5 18 -7 8 -2 16 -5 17 -6 4 -4 -29 -77 -38 -83 -5 -3 -35 15 -69 42 -23
18 -32 24 -46 34 -15 10 -19 16 -13 20 5 4 127 3 131 0z m-285 -2 c4 -2 4 -3
-1 -6 -2 -2 -11 -10 -20 -18 -8 -7 -19 -15 -24 -18 -5 -3 -16 -12 -24 -20 -16
-16 -30 -25 -40 -25 -8 0 -47 39 -54 53 -3 4 -7 11 -10 15 -7 8 -8 15 -2 17 8
4 170 6 175 2z m576 -215 c13 -3 15 -6 20 -38 2 -13 -42 -15 -60 -3 -24 15 9
48 40 41z m34 -105 c3 -2 6 -9 10 -17 8 -22 5 -25 -27 -27 -12 0 -34 -2 -49
-3 -32 -3 -39 -1 -36 10 0 3 2 10 3 16 3 15 6 21 12 22 8 3 82 1 87 -1z m25
-98 c5 -2 6 -3 12 -19 6 -15 6 -30 1 -33 -7 -5 -152 -4 -157 1 -8 8 -3 35 8
45 4 4 8 4 45 5 22 1 41 2 42 3 3 2 44 1 49 -2z m-115 -109 c6 -1 14 -3 20 -4
8 -2 14 -2 35 1 59 8 99 0 102 -22 1 -7 3 -14 3 -17 2 -9 -3 -11 -54 -12 -38
-1 -47 -2 -54 -5 -36 -16 -115 3 -108 26 11 36 18 40 56 33z m132 -118 c23 -1
42 -1 42 -2 6 -5 12 -16 13 -27 1 -7 3 -16 5 -19 14 -27 -25 -31 -208 -25 -69
3 -64 1 -65 25 0 20 11 42 24 49 5 3 105 3 189 -1z m-72 -135 c144 -1 157 -3
161 -19 1 -5 4 -12 5 -16 4 -10 3 -24 -2 -28 -3 -2 -15 -2 -64 -1 -33 1 -74 1
-92 1 -18 0 -51 1 -74 3 -23 2 -50 3 -61 3 -33 0 -38 4 -38 30 0 27 5 31 40
29 13 -1 69 -1 125 -2z"/>
</g>
</svg>
