<?xml version="1.0" standalone="no"?>
<!DOCTYPE svg PUBLIC "-//W3C//DTD SVG 20010904//EN"
 "http://www.w3.org/TR/2001/REC-SVG-20010904/DTD/svg10.dtd">
<svg version="1.0" xmlns="http://www.w3.org/2000/svg"
 width="226.000000pt" height="148.000000pt" viewBox="0 0 226.000000 148.000000"
 preserveAspectRatio="xMidYMid meet">
<metadata>
Created by potrace 1.16, written by Peter Selinger 2001-2019
</metadata>
<g transform="translate(0.000000,148.000000) scale(0.100000,-0.100000)"
fill="#000000" stroke="none">
<path d="M460 1350 l0 -80 -210 0 -210 0 0 -35 c0 -31 13 -50 102 -148 67 -74
109 -113 126 -115 19 -3 40 13 99 72 41 42 81 76 87 76 18 0 9 -395 -10 -432
-8 -15 -14 -33 -14 -40 0 -8 -16 -46 -35 -87 -19 -40 -35 -79 -35 -87 0 -13
-19 -63 -106 -285 -19 -48 -34 -99 -34 -113 0 -24 4 -26 39 -26 46 0 53 8 70
77 7 28 28 93 48 145 19 51 52 142 73 202 42 118 55 141 66 110 20 -57 107
-281 115 -294 24 -40 79 -167 79 -183 0 -22 34 -47 63 -47 50 0 42 25 -111
380 -25 58 -60 134 -77 170 l-32 65 -6 223 c-5 235 -3 248 39 201 35 -39 159
-136 181 -141 27 -7 63 17 63 41 0 16 41 117 69 171 9 16 121 36 148 26 16 -7
15 -31 -6 -121 -82 -346 -201 -925 -201 -981 l0 -31 283 -5 c155 -3 287 -3
294 -1 23 9 22 34 -3 120 -14 49 -31 115 -39 148 -15 66 -88 349 -105 405 -5
19 -10 47 -10 62 0 15 -11 60 -24 100 -14 40 -28 91 -32 113 -3 22 -10 45 -14
50 -9 12 -40 113 -40 132 0 9 24 12 99 12 l99 -1 58 -114 c75 -148 79 -148
193 -28 78 82 99 94 100 56 3 -60 -1 -374 -5 -410 -3 -36 -124 -422 -170 -545
-8 -20 -14 -51 -14 -68 0 -29 2 -30 37 -27 44 4 32 -23 129 293 37 121 73 226
80 234 11 12 15 11 23 -10 15 -41 127 -259 218 -427 43 -79 47 -83 77 -80 54
5 48 34 -38 193 -18 33 -51 94 -73 135 -22 41 -70 131 -107 198 l-67 124 -3
216 c-4 230 0 257 35 226 11 -10 19 -23 19 -31 0 -7 4 -13 9 -13 5 0 28 -23
50 -52 71 -88 111 -95 157 -25 16 23 33 47 38 52 55 52 99 121 103 160 3 23 1
45 -3 47 -5 3 -94 2 -199 -2 -104 -3 -194 -3 -199 1 -5 4 -9 34 -10 66 l-1 58
-45 0 -45 0 0 -65 0 -65 -395 -6 c-217 -3 -476 -8 -575 -10 l-180 -4 4 78 3
77 -46 0 -46 0 0 -80z m1165 -140 c6 -10 -101 -130 -115 -130 -12 0 -81 121
-74 131 7 12 181 12 189 -1z m449 2 c5 -9 -69 -104 -86 -111 -12 -4 -97 89
-98 107 0 14 175 18 184 4z m-1669 -27 c1 -11 -122 -115 -136 -115 -4 0 -29
26 -54 57 -37 45 -44 58 -31 63 28 9 221 5 221 -5z m365 9 c17 -4 34 -13 37
-19 7 -20 -36 -105 -53 -105 -9 0 -41 20 -72 43 -31 24 -67 49 -80 56 -12 7
-20 16 -17 22 7 10 136 12 185 3z m350 -168 c0 -8 3 -21 6 -30 4 -11 1 -16
-10 -16 -19 0 -31 23 -22 45 7 19 26 20 26 1z m35 -133 c8 -35 -7 -47 -49 -39
-29 6 -36 11 -36 31 0 48 73 54 85 8z m28 -126 c5 -16 7 -30 6 -31 -2 -2 -37
-6 -76 -9 -79 -6 -83 -4 -63 48 9 24 13 26 67 23 52 -3 57 -5 66 -31z m36
-129 c6 -18 7 -36 3 -40 -5 -5 -53 -7 -108 -6 -92 3 -99 4 -102 24 -5 38 18
49 110 51 l86 2 11 -31z m18 -119 c15 -6 23 -17 23 -33 0 -23 -2 -24 -126 -31
-142 -8 -163 -1 -145 47 9 25 11 26 117 26 59 0 118 -4 131 -9z m51 -157 c6
-9 12 -28 12 -43 0 -36 -14 -38 -195 -30 -148 6 -150 6 -153 29 -2 14 5 33 18
47 20 22 25 22 163 18 114 -4 144 -8 155 -21z m-116 -152 l156 0 11 -31 c6
-17 8 -35 5 -40 -6 -10 -267 -10 -359 0 -57 6 -60 7 -63 35 -4 36 13 48 58 41
19 -2 105 -5 192 -5z"/>
</g>
</svg>
