<?xml version="1.0" standalone="no"?>
<!DOCTYPE svg PUBLIC "-//W3C//DTD SVG 20010904//EN"
 "http://www.w3.org/TR/2001/REC-SVG-20010904/DTD/svg10.dtd">
<svg version="1.0" xmlns="http://www.w3.org/2000/svg"
 width="100.000000pt" height="65.000000pt" viewBox="0 0 100.000000 65.000000"
 preserveAspectRatio="xMidYMid meet">
<metadata>
Created by potrace 1.16, written by Peter Selinger 2001-2019
</metadata>
<g transform="translate(0.000000,65.000000) scale(0.100000,-0.100000)"
fill="#000000" stroke="none">
<path d="M207 624 c-4 -4 -7 -20 -7 -36 l0 -28 -90 0 c-82 0 -90 -2 -90 -19 0
-19 60 -99 86 -114 8 -5 26 4 47 23 19 16 37 30 41 30 3 0 6 -34 6 -75 0 -67
-6 -91 -50 -205 -60 -154 -63 -174 -34 -178 18 -3 25 5 38 40 9 24 27 72 40
108 13 36 27 65 31 65 4 0 23 -40 42 -90 19 -50 40 -95 47 -102 16 -17 291
-30 310 -14 12 10 6 42 -39 219 -29 114 -58 219 -63 233 -13 34 -8 39 38 39
33 0 39 -4 55 -40 30 -66 40 -69 85 -25 34 33 40 36 46 21 15 -40 -6 -191 -41
-295 -39 -118 -45 -164 -18 -159 18 3 30 30 63 146 12 40 25 72 29 70 5 -2 33
-50 63 -108 40 -79 59 -105 73 -105 37 0 27 35 -46 163 l-73 127 -4 93 c-5
103 2 112 45 61 16 -19 33 -29 46 -27 28 4 89 85 85 112 -3 20 -8 21 -86 18
l-82 -3 -6 30 c-8 40 -44 44 -44 6 0 -32 -1 -33 -272 -39 l-227 -6 -3 32 c-3
31 -25 48 -41 32z m253 -124 c0 -17 -29 -159 -81 -392 -6 -27 -15 -48 -19 -48
-5 0 -17 24 -28 52 -11 29 -33 82 -50 118 -22 50 -30 85 -34 153 -3 48 -3 89
1 91 4 3 27 -11 51 -30 l45 -35 17 21 c10 12 18 27 18 34 0 24 32 56 56 56 17
0 24 -5 24 -20z m94 -336 c28 -11 17 -31 -19 -37 -68 -11 -125 10 -98 36 8 9
96 9 117 1z m31 -89 c0 -11 -107 -19 -142 -10 -13 3 -23 10 -23 16 0 6 31 9
83 7 46 -2 82 -7 82 -13z"/>
</g>
</svg>
