<?xml version="1.0" standalone="no"?>
<!DOCTYPE svg PUBLIC "-//W3C//DTD SVG 20010904//EN"
 "http://www.w3.org/TR/2001/REC-SVG-20010904/DTD/svg10.dtd">
<svg version="1.0" xmlns="http://www.w3.org/2000/svg"
 width="506.000000pt" height="590.000000pt" viewBox="0 0 506.000000 590.000000"
 preserveAspectRatio="xMidYMid meet">
<metadata>
Created by potrace 1.16, written by Peter Selinger 2001-2019
</metadata>
<g transform="translate(0.000000,590.000000) scale(0.500000,-0.500000)"
fill="#000000" stroke="none">
<path d="M921 1157 c-10 -4 -24 -18 -33 -35 -4 -7 -10 -17 -13 -22 -4 -5 -10
-17 -13 -25 -4 -10 -10 -21 -17 -29 -6 -9 -11 -17 -13 -23 -8 -33 -24 -33 -52
0 -11 13 -19 20 -28 25 -16 10 -19 13 -25 25 -7 11 -34 33 -47 38 -5 2 -14 6
-22 10 -32 18 -30 17 -42 16 -13 -1 -26 -7 -32 -14 -4 -5 -4 -8 -3 -121 0
-130 1 -120 -17 -138 -6 -6 -13 -11 -22 -14 -8 -3 -15 -7 -20 -12 -4 -4 -13
-12 -21 -17 -8 -5 -21 -15 -29 -21 -23 -18 -27 -17 -49 8 -8 9 -29 32 -47 51
-69 74 -64 66 -66 116 0 23 0 46 2 57 7 60 3 100 -10 107 -51 27 -77 -30 -57
-125 4 -20 6 -75 3 -86 -6 -19 -61 -60 -90 -69 -10 -3 -13 -5 -22 -15 -16 -19
-22 -24 -34 -30 -12 -6 -19 -13 -25 -24 -3 -5 -8 -9 -19 -13 -14 -7 -17 -10
-36 -35 -10 -15 0 -42 19 -48 16 -5 55 12 65 29 6 9 66 64 83 76 6 4 19 15 30
25 21 20 27 22 31 13 3 -7 1 -66 -2 -86 -2 -12 -2 -17 0 -28 3 -20 5 -47 4
-56 -1 -4 -2 -15 -2 -23 0 -9 -1 -19 -3 -24 -4 -10 -4 -51 -1 -62 5 -17 3 -46
-6 -63 -4 -9 -8 -17 -8 -18 0 -1 -4 -6 -8 -10 -8 -8 -13 -18 -24 -44 -4 -8
-12 -24 -18 -36 -7 -12 -15 -26 -17 -30 -2 -4 -7 -12 -12 -17 -5 -5 -9 -12
-10 -15 -1 -3 -4 -12 -7 -19 -3 -7 -10 -23 -14 -35 -5 -12 -12 -27 -16 -34 -9
-15 -15 -28 -17 -38 -3 -15 -31 -80 -45 -105 -34 -59 -33 -64 15 -64 38 0 40
1 45 25 2 14 13 41 25 62 4 7 10 21 14 33 4 12 10 25 13 30 4 6 8 16 10 23 4
11 15 34 83 171 27 55 22 57 68 -28 18 -34 38 -71 45 -83 7 -12 23 -41 35 -64
12 -23 26 -48 31 -55 14 -23 36 -70 41 -86 8 -28 10 -29 46 -28 37 2 40 28 8
71 -19 25 -45 82 -50 110 -3 18 -6 24 -14 33 -5 5 -27 42 -27 45 0 2 -14 22
-23 34 -11 13 -19 29 -25 48 -6 19 -15 34 -28 48 -8 9 -13 16 -15 23 -1 6 -6
17 -10 26 -16 35 -15 31 -17 165 -1 89 -2 128 -5 152 -5 53 -1 64 18 42 6 -7
15 -17 21 -24 6 -7 13 -17 15 -22 5 -10 14 -20 36 -38 5 -4 13 -14 19 -23 20
-31 39 -34 59 -8 5 6 15 17 23 23 8 6 23 18 33 27 17 15 39 32 43 32 8 0 8
-44 5 -289 -5 -402 -2 -471 23 -474 26 -2 34 2 62 38 10 12 14 15 27 21 12 7
16 10 26 22 13 17 24 28 37 38 5 3 12 13 17 21 5 8 15 20 22 27 7 7 13 15 15
17 3 6 20 31 31 44 5 6 11 17 13 24 3 10 6 15 16 24 13 13 15 16 18 33 1 6 5
16 8 21 3 5 8 13 10 18 3 6 8 11 13 15 12 8 15 15 18 42 3 24 4 29 14 67 5 22
7 83 3 111 -3 22 -10 88 -10 99 0 15 -4 26 -17 49 -7 12 -12 24 -14 33 -2 9
-8 22 -16 37 -7 13 -14 27 -16 31 -1 5 -5 12 -7 17 -6 12 -20 52 -20 58 0 7 7
16 29 43 13 16 19 25 24 38 7 17 10 20 30 41 30 30 33 39 30 65 -3 23 -26 39
-46 32z m-250 -118 c15 -8 23 -14 27 -23 6 -12 13 -17 29 -25 15 -7 28 -20 35
-35 2 -5 6 -12 10 -15 10 -10 9 -15 -14 -53 -26 -43 -39 -63 -47 -73 -3 -4
-14 -24 -25 -44 -35 -61 -47 -68 -46 -27 0 9 -1 36 -2 60 -2 41 -2 66 2 101 1
9 3 40 4 69 3 76 3 77 27 65z m158 -206 c19 -18 20 -20 22 -35 1 -6 3 -17 6
-25 3 -8 7 -21 9 -30 2 -9 5 -21 8 -28 8 -25 13 -50 14 -81 1 -17 2 -33 3 -36
1 -3 0 -18 -1 -34 -1 -16 -3 -41 -4 -55 -2 -32 -3 -35 -15 -59 -6 -10 -12 -24
-14 -29 -3 -6 -9 -15 -14 -22 -9 -11 -18 -28 -20 -42 -1 -5 -4 -10 -11 -17 -7
-7 -11 -14 -16 -26 -6 -14 -9 -19 -18 -28 -7 -6 -15 -16 -19 -23 -4 -7 -10
-15 -12 -18 -3 -3 -8 -12 -12 -19 -5 -9 -12 -18 -24 -30 -10 -9 -20 -21 -22
-26 -10 -16 -30 -34 -40 -34 -9 0 -10 4 -10 35 2 74 5 181 7 209 2 24 2 34 0
45 -2 12 -2 18 1 33 2 13 3 29 3 60 -1 92 -2 85 15 109 31 45 41 61 53 84 6
13 16 29 21 35 9 11 13 17 37 57 7 12 15 22 18 24 3 2 8 7 11 12 7 11 5 12 24
-6z"/>
</g>
</svg>
