<?xml version="1.0" standalone="no"?>
<!DOCTYPE svg PUBLIC "-//W3C//DTD SVG 20010904//EN"
 "http://www.w3.org/TR/2001/REC-SVG-20010904/DTD/svg10.dtd">
<svg version="1.0" xmlns="http://www.w3.org/2000/svg"
 width="85.000000pt" height="100.000000pt" viewBox="0 0 85.000000 100.000000"
 preserveAspectRatio="xMidYMid meet">
<metadata>
Created by potrace 1.16, written by Peter Selinger 2001-2019
</metadata>
<g transform="translate(0.000000,100.000000) scale(0.100000,-0.100000)"
fill="#000000" stroke="none">
<path d="M735 940 c-14 -23 -31 -52 -37 -66 -6 -13 -16 -24 -21 -24 -5 0 -36
25 -69 55 -44 41 -67 55 -88 55 -36 0 -39 -10 -43 -134 l-2 -90 -48 -34 -49
-35 -56 57 -57 56 -1 83 c-1 112 0 109 -32 105 l-27 -3 0 -95 0 -95 -46 -30
c-65 -43 -136 -103 -143 -122 -7 -18 10 -43 30 -43 8 0 45 29 83 65 37 36 72
65 76 65 5 0 5 -66 1 -147 l-7 -147 -42 -76 c-56 -101 -139 -292 -132 -307 2
-7 16 -13 30 -13 19 0 29 7 36 28 30 87 127 287 139 287 8 0 49 -69 92 -155
57 -114 83 -156 98 -158 50 -8 26 65 -91 278 l-57 105 -7 148 c-5 93 -4 147 2
147 5 0 24 -20 42 -45 58 -81 56 -80 110 -35 26 22 53 40 60 40 9 0 10 -49 5
-217 -8 -261 0 -411 24 -420 26 -11 179 158 237 263 l50 89 0 120 c-1 119 -1
120 -42 207 l-41 87 49 71 c54 76 61 113 22 118 -17 2 -28 -7 -48 -38z m-128
-105 l45 -44 -39 -68 c-62 -112 -61 -109 -73 -97 -14 14 -2 254 13 254 5 0 30
-20 54 -45z m107 -186 c10 -30 21 -94 24 -142 5 -87 4 -89 -32 -160 -43 -84
-135 -219 -153 -225 -10 -3 -13 39 -13 188 0 181 1 195 22 229 74 121 110 172
121 169 7 -3 20 -29 31 -59z"/>
</g>
</svg>
