<?xml version="1.0" standalone="no"?>
<!DOCTYPE svg PUBLIC "-//W3C//DTD SVG 20010904//EN"
 "http://www.w3.org/TR/2001/REC-SVG-20010904/DTD/svg10.dtd">
<svg version="1.0" xmlns="http://www.w3.org/2000/svg"
 width="126.000000pt" height="148.000000pt" viewBox="0 0 126.000000 148.000000"
 preserveAspectRatio="xMidYMid meet">
<metadata>
Created by potrace 1.16, written by Peter Selinger 2001-2019
</metadata>
<g transform="translate(0.000000,148.000000) scale(0.100000,-0.100000)"
fill="#000000" stroke="none">
<path d="M1128 1437 c-9 -7 -30 -41 -48 -75 -17 -34 -35 -64 -40 -67 -6 -4
-10 -14 -10 -25 0 -41 -30 -29 -99 40 -73 72 -143 114 -183 108 -23 -3 -23 -5
-28 -167 -4 -147 -7 -165 -24 -175 -10 -6 -45 -30 -78 -54 -33 -24 -63 -42
-67 -40 -5 2 -45 43 -90 92 l-83 89 3 121 c2 67 0 127 -4 134 -14 21 -55 14
-73 -13 -12 -19 -15 -37 -10 -73 4 -26 9 -77 13 -113 l5 -66 -43 -35 c-24 -20
-53 -38 -64 -42 -11 -3 -44 -28 -73 -55 -30 -27 -60 -52 -67 -55 -23 -9 -47
-54 -40 -76 10 -32 67 -27 97 8 47 55 177 164 188 157 7 -5 9 -21 5 -47 -4
-22 -8 -117 -9 -212 -1 -152 -4 -176 -21 -202 -10 -16 -34 -58 -53 -94 -18
-36 -40 -76 -47 -90 -17 -30 -67 -141 -85 -190 -7 -19 -29 -66 -47 -104 -39
-77 -35 -89 23 -84 30 2 39 8 44 28 4 14 17 48 30 75 12 28 29 66 38 85 8 19
38 85 67 145 29 61 55 120 59 133 9 26 34 29 43 4 4 -9 55 -108 115 -218 59
-111 108 -208 108 -216 0 -24 26 -40 57 -36 38 4 42 38 11 86 -25 38 -68 133
-68 150 0 5 -17 36 -38 70 -46 75 -93 161 -126 227 -21 45 -25 67 -30 220 -3
94 -9 191 -12 218 -5 36 -3 47 7 47 13 0 69 -61 69 -75 0 -11 97 -105 109
-105 6 0 41 29 78 65 40 38 71 61 77 55 5 -5 8 -208 7 -467 -2 -376 0 -461 12
-477 18 -25 50 -14 83 30 15 19 31 34 38 34 6 0 30 22 53 48 37 42 61 72 130
159 13 15 23 33 23 39 0 6 9 19 20 29 11 10 20 28 20 39 0 12 13 37 28 56 39
47 47 97 46 275 l-1 150 -45 95 c-82 172 -82 170 -58 200 11 14 28 38 38 54 9
16 34 48 55 71 41 47 47 83 19 108 -22 20 -31 21 -54 4z m-300 -136 c20 -11
112 -97 131 -124 12 -15 6 -28 -41 -105 -30 -48 -66 -107 -79 -132 -14 -25
-29 -43 -34 -40 -9 5 -15 368 -6 398 4 14 7 15 29 3z m248 -377 c21 -79 26
-121 26 -209 0 -118 -6 -137 -72 -250 -16 -27 -35 -63 -43 -80 -8 -16 -22 -36
-31 -44 -10 -8 -24 -28 -33 -45 -23 -44 -104 -136 -121 -136 -11 0 -12 48 -7
298 l7 297 43 65 c48 73 100 156 134 213 l23 38 24 -24 c16 -16 33 -57 50
-123z"/>
</g>
</svg>
