<?xml version="1.0" standalone="no"?>
<!DOCTYPE svg PUBLIC "-//W3C//DTD SVG 20010904//EN"
 "http://www.w3.org/TR/2001/REC-SVG-20010904/DTD/svg10.dtd">
<svg version="1.0" xmlns="http://www.w3.org/2000/svg"
 width="500.000000pt" height="590.000000pt" viewBox="0 0 500.000000 590.000000"
 preserveAspectRatio="xMidYMid meet">
<metadata>
Created by potrace 1.16, written by Peter Selinger 2001-2019
</metadata>
<g transform="translate(0.000000,590.000000) scale(0.500000,-0.500000)"
fill="#000000" stroke="none">
<path d="M58 1138 c-30 -7 -24 -28 24 -97 19 -26 39 -54 43 -60 17 -23 17 -23
-21 -96 -9 -18 -18 -37 -19 -41 -5 -14 -18 -64 -21 -76 -1 -7 -5 -17 -8 -24
-26 -49 -5 -313 26 -338 5 -4 8 -8 9 -13 2 -10 20 -47 27 -55 3 -3 7 -10 8
-15 2 -7 5 -11 13 -19 6 -5 23 -23 36 -41 14 -18 33 -40 42 -49 17 -17 54 -56
77 -81 7 -8 18 -18 25 -23 7 -4 17 -12 22 -16 11 -9 30 -16 46 -17 12 -2 13 1
16 38 2 17 4 35 5 40 1 4 2 57 2 127 1 141 1 115 -1 350 -1 195 -1 196 7 196
4 0 30 -20 46 -35 5 -6 14 -14 19 -17 5 -3 19 -16 32 -29 36 -36 24 -43 124
71 51 57 48 64 45 -100 -3 -186 -1 -177 -48 -261 -8 -14 -23 -42 -34 -62 -19
-35 -34 -62 -42 -73 -2 -3 -6 -11 -9 -18 -3 -7 -10 -19 -15 -26 -5 -7 -11 -17
-12 -22 -3 -13 -20 -45 -66 -128 -31 -55 -31 -56 -2 -72 19 -10 27 -8 36 9 3
5 9 14 14 18 6 6 8 10 10 19 3 12 9 26 32 67 27 49 83 153 132 247 26 48 29
53 35 48 4 -3 5 -6 40 -82 13 -28 31 -67 39 -86 9 -19 26 -55 38 -80 11 -25
27 -60 36 -79 9 -19 20 -43 25 -55 15 -33 18 -36 39 -36 22 0 32 36 18 65 -2
4 -4 11 -5 14 -1 3 -4 10 -7 15 -9 14 -34 67 -36 78 -2 5 -4 12 -6 16 -2 4 -5
13 -5 19 -1 10 -3 13 -9 19 -4 4 -8 9 -9 12 -1 3 -5 13 -10 23 -5 11 -9 22
-10 25 -2 11 -19 42 -28 53 -5 5 -11 16 -15 24 -3 7 -11 25 -18 38 -6 13 -12
27 -14 31 -1 4 -5 13 -10 20 -23 34 -24 39 -25 134 0 47 -1 116 -2 154 -2 73
-1 78 7 78 5 0 24 -13 24 -16 0 -1 4 -5 9 -8 11 -8 34 -26 59 -48 9 -8 22 -19
28 -23 5 -4 15 -14 22 -22 35 -43 65 -39 64 8 -1 28 -5 32 -76 85 -10 7 -23
18 -30 25 -7 6 -16 13 -20 15 -4 2 -15 10 -24 17 -10 8 -27 21 -38 30 -26 21
-25 16 -23 85 4 132 5 128 -32 128 -33 0 -31 9 -29 -125 l1 -58 -9 -13 c-4 -7
-17 -23 -29 -35 -11 -12 -25 -29 -32 -36 -50 -59 -64 -70 -74 -61 -4 3 -9 6
-12 7 -6 1 -25 15 -61 45 -10 9 -24 20 -31 24 -24 18 -24 17 -22 120 3 115 3
113 -3 119 -22 23 -99 10 -135 -24 -7 -6 -21 -17 -32 -25 -11 -8 -29 -24 -40
-35 -11 -12 -22 -21 -23 -21 -5 0 -10 5 -15 14 -2 5 -9 14 -14 19 -8 10 -11
16 -14 29 0 3 -6 10 -11 17 -6 6 -13 16 -16 21 -8 14 -29 21 -50 16z m289 -81
c6 -4 12 -271 6 -292 -3 -14 -9 -8 -48 49 -14 22 -41 60 -58 86 -36 52 -38 56
-30 61 3 2 9 11 14 20 5 10 12 19 15 21 2 1 9 7 13 12 5 4 11 8 12 8 2 0 9 5
16 12 23 23 48 32 60 23z m-152 -184 c2 -4 3 -9 3 -11 0 -3 4 -8 10 -13 20
-19 23 -23 33 -39 6 -9 14 -21 18 -27 12 -15 21 -30 36 -59 8 -14 18 -31 24
-37 6 -7 12 -15 13 -17 1 -3 5 -9 9 -15 l7 -10 -1 -228 c0 -177 -1 -229 -2
-231 -6 -6 -32 13 -44 31 -4 6 -11 15 -17 20 -6 6 -12 15 -16 22 -4 9 -9 15
-17 22 -6 5 -14 14 -17 19 -4 5 -14 17 -23 26 -9 9 -17 19 -18 22 -1 3 -5 9
-8 13 -4 4 -12 19 -19 32 -6 13 -14 27 -18 30 -13 12 -14 15 -16 40 -1 20 -2
23 -6 29 -4 4 -6 9 -7 17 -1 6 -3 15 -4 20 -6 17 -7 173 0 186 2 7 5 16 6 20
1 4 3 12 4 17 2 5 3 15 4 22 1 7 3 17 4 21 2 4 4 14 5 21 3 14 8 21 19 28 7 4
15 17 15 23 0 17 17 21 23 6z"/>
</g>
</svg>
