<?xml version="1.0" standalone="no"?>
<!DOCTYPE svg PUBLIC "-//W3C//DTD SVG 20010904//EN"
 "http://www.w3.org/TR/2001/REC-SVG-20010904/DTD/svg10.dtd">
<svg version="1.0" xmlns="http://www.w3.org/2000/svg"
 width="126.000000pt" height="148.000000pt" viewBox="0 0 126.000000 148.000000"
 preserveAspectRatio="xMidYMid meet">
<metadata>
Created by potrace 1.16, written by Peter Selinger 2001-2019
</metadata>
<g transform="translate(0.000000,148.000000) scale(0.100000,-0.100000)"
fill="#000000" stroke="none">
<path d="M50 1397 c0 -13 27 -60 60 -105 33 -45 60 -89 60 -98 0 -8 -16 -46
-35 -83 -61 -118 -70 -164 -70 -366 0 -162 2 -184 19 -210 11 -16 32 -53 47
-82 35 -66 108 -156 214 -260 86 -86 129 -113 149 -93 8 8 12 158 14 475 2
256 6 465 9 465 4 0 42 -32 85 -71 l79 -72 25 24 c14 13 51 54 81 91 31 37 61
65 66 61 5 -3 7 -86 3 -206 l-6 -201 -69 -125 c-37 -69 -78 -142 -89 -161 -11
-19 -50 -93 -87 -164 -62 -121 -66 -131 -49 -143 38 -28 43 -24 112 107 27 52
66 124 86 160 20 36 57 106 83 157 26 50 51 89 56 86 5 -3 19 -29 32 -57 12
-28 36 -80 53 -116 16 -36 53 -114 81 -175 82 -179 83 -180 111 -180 40 0 37
41 -9 139 -23 47 -41 90 -41 95 0 9 -50 118 -75 161 -7 14 -36 70 -64 125
l-49 100 -5 208 c-3 114 -1 207 3 207 11 0 159 -125 185 -156 11 -13 35 -27
53 -30 31 -6 32 -6 32 29 0 30 -6 41 -37 64 -102 76 -229 177 -234 185 -4 5
-4 61 -1 124 l5 114 -43 0 -43 0 6 -114 6 -115 -85 -95 c-97 -108 -83 -107
-192 -22 -35 28 -65 60 -69 74 -3 13 -3 75 -1 137 4 74 2 117 -5 124 -6 6 -32
11 -57 11 -54 0 -118 -37 -189 -110 -39 -41 -44 -43 -55 -27 -6 10 -28 45 -48
78 -34 54 -41 59 -73 59 -30 0 -35 -3 -35 -23z m390 -134 c0 -38 3 -125 7
-195 4 -90 3 -128 -5 -128 -6 0 -39 42 -74 93 -35 50 -74 106 -86 123 -22 29
-23 31 -6 60 21 35 121 114 146 114 16 0 18 -9 18 -67z m-195 -172 c3 -11 18
-33 33 -49 15 -16 38 -48 52 -72 14 -23 43 -70 66 -104 l41 -61 2 -293 c1
-208 -2 -292 -9 -292 -22 0 -187 194 -221 260 -11 21 -27 44 -35 51 -8 6 -14
26 -14 43 0 18 -5 37 -11 43 -6 6 -11 65 -12 144 -1 144 18 254 53 294 9 11
20 28 23 38 8 23 24 22 32 -2z"/>
</g>
</svg>
