<?xml version="1.0" standalone="no"?>
<!DOCTYPE svg PUBLIC "-//W3C//DTD SVG 20010904//EN"
 "http://www.w3.org/TR/2001/REC-SVG-20010904/DTD/svg10.dtd">
<svg version="1.0" xmlns="http://www.w3.org/2000/svg"
 width="594.000000pt" height="590.000000pt" viewBox="0 0 594.000000 590.000000"
 preserveAspectRatio="xMidYMid meet">
<metadata>
Created by potrace 1.16, written by Peter Selinger 2001-2019
</metadata>
<g transform="translate(0.000000,590.000000) scale(0.500000,-0.500000)"
fill="#000000" stroke="none">
<path d="M49 1138 c-18 -8 -15 -49 6 -81 13 -20 33 -52 74 -119 10 -18 22 -37
26 -42 19 -26 20 -30 11 -50 -11 -26 -26 -87 -26 -105 0 -12 -1 -21 -5 -32 -6
-22 -9 -45 -9 -67 0 -10 -1 -37 -2 -59 -5 -81 -3 -127 7 -167 17 -69 21 -80
37 -111 5 -11 12 -27 16 -36 4 -10 12 -24 23 -39 10 -13 20 -30 24 -38 13 -27
68 -92 85 -101 3 -2 11 -7 17 -12 18 -14 34 -16 41 -4 2 4 3 68 5 191 0 28 1
52 2 54 2 3 5 93 7 235 5 231 5 235 10 235 2 0 10 -10 33 -40 25 -32 37 -31
80 10 52 50 69 62 72 52 2 -7 -3 -294 -5 -304 -2 -5 -3 -16 -4 -25 -2 -21 -11
-45 -22 -58 -9 -10 -12 -18 -12 -29 0 -9 -3 -19 -16 -46 -5 -12 -12 -28 -15
-36 -7 -23 -53 -133 -85 -207 -15 -34 -15 -35 -3 -47 20 -19 33 -14 46 16 9
21 11 26 20 41 4 7 7 14 7 18 0 6 3 16 23 63 9 20 19 46 23 57 4 11 10 26 14
34 3 8 8 21 12 29 7 18 25 60 29 68 7 14 15 2 48 -79 14 -33 31 -75 46 -108 6
-14 15 -35 20 -47 5 -12 11 -27 15 -35 3 -7 9 -21 12 -29 14 -38 26 -46 50
-33 9 4 11 11 8 21 -6 20 -13 38 -19 52 -4 8 -14 31 -22 50 -9 19 -17 39 -19
43 -2 4 -7 17 -12 29 -4 11 -10 25 -13 30 -2 5 -11 23 -18 41 -7 18 -18 43
-24 56 -13 26 -18 40 -20 52 -1 4 -4 12 -8 18 -12 18 -14 36 -11 116 1 36 2
106 2 157 -1 123 -3 120 56 63 61 -58 69 -59 115 -10 40 43 39 44 38 -43 -1
-37 -2 -124 -2 -193 -1 -69 -2 -131 -3 -137 -1 -6 -1 -14 0 -20 2 -12 2 -196
0 -211 -4 -27 -5 -36 -1 -45 2 -6 3 -14 3 -30 0 -26 2 -35 9 -38 15 -6 32 0
49 20 6 7 16 18 22 24 6 6 13 14 15 17 2 3 8 10 13 16 6 6 10 12 10 13 0 1 4
7 43 54 12 15 24 33 28 41 4 7 10 18 14 24 4 7 10 17 13 24 3 7 9 16 13 21 8
10 14 21 19 39 2 7 7 20 11 29 4 10 7 21 7 25 0 4 2 13 4 19 18 49 18 47 18
89 0 21 1 49 2 63 3 36 3 46 0 56 -2 8 -2 12 0 22 2 12 2 15 -2 31 -2 9 -4 22
-4 28 0 6 -2 17 -4 25 -2 8 -5 20 -6 27 -1 7 -4 17 -7 24 -3 7 -6 17 -7 24 -1
6 -4 14 -6 17 -2 3 -8 15 -12 27 -4 11 -10 24 -14 28 -21 27 -16 67 13 106 3
4 13 23 23 42 10 20 22 41 25 47 18 27 18 55 2 60 -14 5 -30 0 -34 -11 -14
-34 -68 -136 -73 -138 -4 -2 -4 -1 -41 48 -15 20 -31 40 -35 43 -5 4 -15 12
-22 19 -41 38 -69 46 -81 23 -3 -6 -3 -19 -3 -123 1 -110 1 -116 -3 -123 -5
-10 -78 -80 -83 -80 -5 0 -22 13 -49 38 -5 5 -23 22 -39 37 -37 34 -34 18 -30
165 2 73 2 78 -8 83 -14 7 -35 5 -40 -5 -2 -4 -2 -30 -2 -106 0 -116 0 -115
-13 -123 -5 -3 -12 -10 -17 -16 -7 -10 -29 -31 -41 -42 -4 -3 -12 -7 -18 -10
-6 -2 -16 -8 -21 -13 -15 -13 -17 -12 -37 16 -10 12 -23 28 -29 35 -8 7 -12
14 -13 18 -1 9 3 96 5 110 3 20 5 105 2 111 -13 23 -46 18 -81 -14 -11 -10
-24 -21 -28 -24 -8 -6 -36 -35 -46 -49 -3 -4 -9 -12 -13 -16 -8 -9 -11 -16
-13 -28 -1 -9 -14 -22 -25 -27 -7 -3 -12 0 -18 13 -3 4 -9 14 -14 22 -11 16
-41 68 -53 93 -5 9 -14 24 -20 33 -6 8 -12 20 -14 25 -5 15 -16 21 -28 16z
m861 -117 c9 -11 28 -31 41 -45 25 -26 36 -40 38 -48 1 -6 -22 -52 -74 -150
-36 -67 -34 -73 -32 109 1 178 -1 166 27 134z m-558 -5 c4 -5 0 -233 -5 -265
-2 -9 -3 -26 -3 -38 0 -33 -6 -35 -21 -7 -4 7 -11 18 -15 24 -4 6 -14 23 -23
38 -8 15 -19 32 -23 39 -37 60 -38 62 -29 79 2 5 6 12 7 17 1 4 8 14 14 22 6
8 13 18 16 22 2 4 8 11 12 14 4 4 9 11 12 17 3 7 7 12 14 17 5 4 12 10 15 14
9 12 22 15 29 7z m674 -157 c2 -4 6 -12 9 -20 3 -8 8 -21 12 -29 12 -23 23
-66 23 -86 0 -4 2 -15 5 -24 5 -14 5 -19 5 -35 -1 -10 0 -26 1 -36 3 -24 -2
-137 -7 -148 -1 -3 -3 -12 -4 -19 -1 -6 -4 -16 -7 -22 -2 -5 -5 -12 -6 -16 -7
-34 -58 -133 -79 -154 -11 -12 -16 -19 -25 -42 -11 -29 -59 -85 -66 -77 -4 4
-5 444 -1 466 2 11 15 40 23 50 3 4 7 11 8 16 2 5 6 15 9 21 4 6 9 16 12 22 3
6 10 18 14 25 5 8 11 19 14 26 5 13 39 78 43 83 5 6 12 5 17 -1z m-807 -69 c6
-6 14 -19 19 -28 5 -9 16 -26 25 -38 15 -19 19 -27 33 -62 5 -11 16 -31 26
-47 14 -20 18 -31 19 -49 0 -21 -3 -93 -4 -114 -1 -9 -2 -75 -3 -145 -2 -131
-2 -139 -10 -139 -4 0 -33 33 -43 49 -10 18 -25 40 -33 48 -12 15 -20 29 -31
62 -6 18 -13 35 -15 40 -2 4 -9 21 -15 38 l-11 30 0 46 c0 35 -1 51 -3 62 -2
10 -3 20 -2 32 0 9 2 40 3 70 2 50 3 68 8 109 1 14 9 35 16 44 5 5 11 2 21 -8z"/>
</g>
</svg>
