<?xml version="1.0" standalone="no"?>
<!DOCTYPE svg PUBLIC "-//W3C//DTD SVG 20010904//EN"
 "http://www.w3.org/TR/2001/REC-SVG-20010904/DTD/svg10.dtd">
<svg version="1.0" xmlns="http://www.w3.org/2000/svg"
 width="148.000000pt" height="148.000000pt" viewBox="0 0 148.000000 148.000000"
 preserveAspectRatio="xMidYMid meet">
<metadata>
Created by potrace 1.16, written by Peter Selinger 2001-2019
</metadata>
<g transform="translate(0.000000,148.000000) scale(0.100000,-0.100000)"
fill="#000000" stroke="none">
<path d="M57 1423 c-10 -10 -8 -78 2 -88 5 -6 18 -26 29 -45 11 -19 38 -64 61
-100 67 -106 66 -103 46 -162 -26 -78 -35 -146 -41 -313 -5 -132 -3 -159 15
-228 23 -85 50 -143 108 -235 37 -58 107 -142 119 -142 3 0 12 -7 21 -15 42
-43 47 -1 58 538 5 196 11 357 15 357 4 0 20 -18 35 -40 15 -22 36 -40 46 -40
10 0 45 25 77 55 33 30 64 55 70 55 11 0 10 -38 -3 -348 -3 -81 -8 -110 -24
-136 -12 -18 -21 -42 -21 -53 0 -10 -4 -23 -9 -28 -4 -6 -25 -53 -45 -105 -21
-52 -53 -132 -73 -178 -34 -80 -35 -84 -17 -103 16 -18 18 -18 36 -3 10 10 18
23 18 30 0 7 7 25 15 41 8 15 44 102 79 193 36 91 68 165 72 165 3 0 28 -54
55 -120 27 -66 56 -133 63 -150 8 -16 26 -60 41 -98 15 -37 31 -69 35 -72 4
-3 17 3 29 13 l21 17 -56 130 c-30 72 -61 144 -68 160 -8 17 -26 56 -40 88
-14 32 -26 63 -26 70 0 7 -4 17 -9 22 -7 8 -16 377 -12 463 2 23 23 12 80 -43
32 -30 64 -55 72 -55 8 0 33 18 54 40 55 56 69 53 61 -12 -3 -29 -6 -217 -7
-418 -1 -500 -4 -460 24 -460 13 0 36 14 53 32 51 56 142 174 165 214 11 22
29 53 39 69 10 17 32 73 49 125 27 84 31 109 31 211 0 163 -28 297 -81 383
-11 17 -19 40 -19 52 0 11 27 69 61 127 34 59 58 114 55 122 -3 8 -16 15 -29
15 -21 0 -31 -14 -71 -97 l-48 -98 -29 35 c-16 19 -36 46 -45 60 -23 37 -101
95 -127 95 -22 0 -22 -2 -25 -161 l-2 -160 -55 -54 -54 -53 -76 69 -77 68 4
136 3 135 -30 0 -29 0 -2 -138 -1 -139 -49 -49 c-26 -27 -53 -49 -60 -49 -6 0
-17 -7 -24 -15 -19 -23 -25 -19 -65 35 l-37 50 4 143 3 142 -32 3 c-26 3 -41
-6 -96 -58 -36 -34 -75 -81 -87 -105 -28 -59 -45 -63 -73 -17 -24 37 -78 133
-104 183 -16 32 -37 51 -46 42z m1168 -255 c7 -19 -114 -260 -127 -252 -8 5
-8 373 0 388 6 10 118 -110 127 -136z m-791 7 c-1 -55 -2 -150 -3 -212 -1 -86
-4 -111 -14 -108 -6 3 -32 40 -56 83 -24 42 -53 93 -65 114 -19 33 -19 39 -6
67 25 53 114 161 130 158 12 -2 15 -21 14 -102z m856 -131 c0 -6 7 -25 15 -42
9 -17 23 -84 31 -149 13 -95 14 -135 5 -205 -13 -100 -65 -236 -118 -304 -18
-24 -33 -48 -33 -52 0 -16 -81 -122 -89 -117 -5 2 -6 141 -4 307 l5 303 30 60
c17 33 49 96 71 140 51 104 56 110 73 88 7 -10 14 -23 14 -29z m-988 -101 c18
-32 52 -93 75 -136 l43 -80 -7 -263 c-3 -145 -10 -264 -14 -264 -17 0 -118
160 -139 220 -12 36 -28 71 -34 79 -16 20 -22 233 -10 381 11 138 32 154 86
63z"/>
</g>
</svg>
