<?xml version="1.0" standalone="no"?>
<!DOCTYPE svg PUBLIC "-//W3C//DTD SVG 20010904//EN"
 "http://www.w3.org/TR/2001/REC-SVG-20010904/DTD/svg10.dtd">
<svg version="1.0" xmlns="http://www.w3.org/2000/svg"
 width="408.000000pt" height="590.000000pt" viewBox="0 0 408.000000 590.000000"
 preserveAspectRatio="xMidYMid meet">
<metadata>
Created by potrace 1.16, written by Peter Selinger 2001-2019
</metadata>
<g transform="translate(0.000000,590.000000) scale(0.500000,-0.500000)"
fill="#000000" stroke="none">
<path d="M559 1133 c-1 0 -6 -2 -10 -3 -22 -5 -30 -22 -44 -87 -6 -25 -6 -25
-1 -60 5 -40 5 -41 -10 -53 -16 -11 -16 -12 -46 -71 -36 -74 -32 -71 -60 -41
-10 10 -24 23 -33 29 -9 6 -21 15 -28 20 -7 6 -16 10 -25 13 -24 7 -28 17 -16
38 28 51 30 81 10 123 -33 64 -60 74 -85 32 -29 -47 -31 -105 -6 -149 8 -15 7
-16 -18 -29 -64 -33 -119 -113 -128 -187 -14 -113 -7 -155 24 -155 25 0 30 12
26 65 -4 65 11 123 44 165 4 5 9 13 13 18 13 22 44 42 52 35 2 -3 3 -43 0 -79
-1 -13 -3 -46 -4 -73 -1 -27 -3 -79 -5 -116 -2 -37 -4 -84 -5 -105 -2 -42 -4
-52 -20 -79 -4 -7 -11 -19 -16 -27 -4 -7 -9 -17 -9 -21 -3 -13 -25 -57 -43
-81 -3 -5 -9 -17 -12 -28 -4 -10 -9 -22 -12 -27 -4 -6 -8 -14 -9 -19 -2 -5 -8
-17 -14 -27 -31 -51 -27 -103 6 -83 23 13 30 14 39 4 16 -17 54 -18 65 -3 11
16 -3 35 -32 42 -33 9 -32 18 8 92 8 15 27 50 43 79 45 84 46 85 57 65 3 -6
13 -25 23 -43 10 -18 23 -42 29 -55 6 -13 16 -31 22 -41 6 -10 19 -34 29 -53
40 -79 43 -84 55 -89 10 -5 18 -4 26 3 10 8 16 8 30 -2 42 -28 89 -10 72 27
-10 21 -23 27 -64 28 -39 1 -41 2 -54 33 -3 7 -11 22 -18 33 -7 12 -13 22 -13
22 0 5 -28 58 -39 74 -7 11 -18 28 -23 40 -10 21 -19 36 -34 57 -26 35 -30 49
-28 83 4 46 4 111 1 122 -2 8 -2 22 -2 69 2 73 2 84 0 121 -2 43 1 52 15 48
17 -4 76 -58 90 -81 41 -70 82 -53 108 47 4 17 8 31 8 32 0 0 4 6 10 13 11 13
15 20 17 30 4 19 14 21 24 5 9 -13 22 -26 31 -31 4 -2 13 -9 21 -16 7 -7 14
-12 15 -12 0 0 6 -4 11 -8 46 -38 107 -24 107 25 0 11 -7 26 -30 66 -5 9 -10
18 -11 20 -8 13 -21 47 -21 53 0 11 36 41 68 57 7 3 27 20 31 24 14 18 -15 52
-35 41 -4 -2 -14 -8 -23 -12 -12 -6 -19 -11 -27 -19 -13 -15 -37 -33 -43 -33
-8 0 -21 24 -38 66 -14 36 -22 44 -36 39z m23 -108 c19 -19 18 -26 -3 -38 -18
-11 -28 0 -26 29 1 28 8 30 29 9z m-335 -1 c13 -8 18 -74 6 -85 -13 -13 -21
10 -20 55 1 30 4 37 14 30z m369 -78 c5 -2 9 -10 14 -26 2 -6 7 -15 10 -20 3
-5 7 -14 9 -20 1 -5 5 -13 8 -17 16 -24 -13 -28 -39 -5 -6 5 -15 11 -19 14
-35 17 -26 66 13 76 0 0 2 -1 4 -2z"/>
</g>
</svg>
