<?xml version="1.0" standalone="no"?>
<!DOCTYPE svg PUBLIC "-//W3C//DTD SVG 20010904//EN"
 "http://www.w3.org/TR/2001/REC-SVG-20010904/DTD/svg10.dtd">
<svg version="1.0" xmlns="http://www.w3.org/2000/svg"
 width="102.000000pt" height="148.000000pt" viewBox="0 0 102.000000 148.000000"
 preserveAspectRatio="xMidYMid meet">
<metadata>
Created by potrace 1.16, written by Peter Selinger 2001-2019
</metadata>
<g transform="translate(0.000000,148.000000) scale(0.100000,-0.100000)"
fill="#000000" stroke="none">
<path d="M668 1403 c-26 -29 -49 -132 -38 -177 7 -34 6 -41 -16 -61 -13 -12
-40 -57 -59 -99 -19 -42 -38 -76 -43 -76 -4 0 -25 18 -45 39 -20 22 -57 49
-82 61 -51 24 -53 32 -25 75 26 39 25 84 -1 140 -38 81 -69 85 -105 15 -27
-53 -30 -87 -9 -137 20 -49 19 -60 -9 -67 -38 -9 -112 -88 -139 -147 -19 -42
-26 -76 -29 -152 -5 -104 3 -132 38 -125 17 3 20 15 25 103 5 92 9 105 42 162
39 65 90 112 102 92 4 -6 4 -29 1 -52 -3 -23 -11 -141 -16 -262 -7 -138 -16
-229 -24 -245 -7 -14 -17 -34 -23 -45 -6 -11 -20 -38 -31 -60 -11 -22 -27 -53
-35 -70 -9 -16 -36 -70 -59 -119 -41 -85 -42 -89 -23 -102 16 -12 22 -12 41 1
20 13 24 12 40 -6 26 -29 69 -22 69 11 0 18 -7 27 -30 35 -36 12 -45 23 -37
44 12 32 144 271 153 277 5 2 14 -8 21 -24 38 -85 182 -344 194 -349 8 -3 21
0 29 7 12 10 20 9 40 -4 49 -32 109 -10 86 32 -13 25 -32 32 -86 32 l-44 0
-47 92 c-25 51 -57 109 -70 130 -13 21 -24 40 -24 43 0 3 -16 29 -35 58 l-34
52 -2 255 c-1 173 2 255 10 258 17 6 81 -49 123 -105 23 -32 46 -53 58 -53 23
0 54 43 69 95 13 50 53 134 64 135 4 0 22 -16 39 -36 72 -82 156 -115 191 -76
25 27 21 45 -23 126 -22 40 -40 80 -40 90 0 10 26 33 65 57 68 43 74 53 51 84
-14 19 -15 19 -50 0 -21 -11 -49 -32 -63 -47 -15 -16 -32 -28 -38 -28 -7 0
-20 19 -29 43 -41 100 -57 114 -88 80z m71 -155 c-22 -41 -58 -31 -59 18 0 36
21 47 47 23 18 -17 20 -26 12 -41z m-418 -4 c4 -21 2 -50 -3 -64 -9 -24 -10
-24 -24 -6 -14 20 -20 97 -7 110 14 14 28 -2 34 -40z m479 -116 c36 -74 36
-78 9 -78 -26 0 -99 58 -99 80 0 18 35 60 50 60 5 0 23 -28 40 -62z"/>
</g>
</svg>
