<?xml version="1.0" standalone="no"?>
<!DOCTYPE svg PUBLIC "-//W3C//DTD SVG 20010904//EN"
 "http://www.w3.org/TR/2001/REC-SVG-20010904/DTD/svg10.dtd">
<svg version="1.0" xmlns="http://www.w3.org/2000/svg"
 width="150.000000pt" height="148.000000pt" viewBox="0 0 150.000000 148.000000"
 preserveAspectRatio="xMidYMid meet">
<metadata>
Created by potrace 1.16, written by Peter Selinger 2001-2019
</metadata>
<g transform="translate(0.000000,148.000000) scale(0.100000,-0.100000)"
fill="#000000" stroke="none">
<path d="M52 1418 c-20 -20 -14 -56 16 -88 46 -50 52 -59 52 -70 0 -5 -4 -10
-10 -10 -17 0 -32 -73 -40 -190 -12 -182 8 -193 101 -55 40 61 69 95 81 95 10
0 18 -4 18 -9 0 -5 19 -29 43 -54 23 -24 65 -72 92 -105 51 -63 81 -76 105
-47 6 8 21 17 33 21 12 4 34 19 48 33 47 46 89 73 104 67 12 -4 15 -32 15
-150 l0 -144 -33 -21 c-47 -29 -110 -107 -141 -175 -26 -57 -27 -64 -25 -229
2 -178 -3 -198 -42 -174 -13 8 -21 7 -33 -2 -37 -31 2 -68 58 -57 17 4 40 8
51 9 40 4 42 10 39 194 -3 180 3 231 34 266 8 9 20 27 26 39 6 11 28 35 49 52
30 24 42 28 55 20 22 -14 74 -116 90 -177 17 -65 26 -211 18 -278 -6 -45 -11
-56 -33 -66 -15 -7 -33 -13 -40 -13 -19 0 -16 -37 3 -44 29 -11 85 -6 109 10
25 16 25 17 25 185 0 155 -11 259 -30 284 -4 6 -11 21 -15 35 -4 14 -17 39
-29 55 -12 17 -26 37 -31 46 -6 9 -18 27 -27 40 -14 20 -17 52 -19 172 -1 81
1 150 4 153 3 3 25 -10 50 -28 85 -62 102 -73 147 -96 24 -12 50 -21 58 -20 7
2 48 44 90 93 43 50 84 90 92 90 9 0 30 -32 50 -72 36 -76 55 -88 91 -60 31
24 70 128 63 170 -8 51 -22 104 -34 129 -12 25 -10 30 30 76 43 52 48 77 17
96 -16 9 -25 4 -61 -38 l-43 -49 -27 18 c-14 10 -30 24 -34 32 -10 17 -72 35
-127 37 -39 1 -40 0 -43 -35 -2 -29 5 -50 33 -94 20 -31 43 -72 51 -91 16 -38
24 -24 -98 -157 -64 -70 -54 -70 -170 6 -31 20 -62 37 -67 37 -6 0 -21 5 -35
11 -33 15 -45 79 -22 114 9 13 16 30 16 37 0 6 9 22 21 34 18 19 19 26 10 61
-21 78 -93 119 -135 78 -8 -8 -19 -15 -24 -15 -12 0 -32 -54 -32 -87 0 -13 12
-36 27 -51 22 -22 28 -38 31 -89 l4 -62 -42 -28 c-23 -15 -58 -42 -78 -58 -49
-41 -88 -65 -105 -65 -15 0 -53 39 -88 92 -13 21 -45 54 -70 74 l-46 36 18 38
c10 21 22 40 27 42 5 1 25 29 46 62 42 67 46 109 9 114 -33 5 -144 -36 -174
-64 -14 -13 -29 -24 -35 -24 -5 1 -27 23 -48 50 -42 54 -46 56 -64 38z m699
-74 c19 -17 15 -50 -8 -58 -22 -9 -33 2 -33 33 0 43 13 51 41 25z m-452 -21
c-16 -43 -48 -90 -65 -97 -13 -5 -34 27 -34 52 0 8 92 70 107 72 1 0 -2 -12
-8 -27z m961 -19 l32 -37 -26 -26 c-29 -29 -42 -23 -61 31 -7 18 -16 41 -20
51 -6 13 -2 17 18 17 16 0 36 -13 57 -36z m-1060 -149 c0 -6 -18 -32 -40 -59
l-40 -48 0 33 c0 34 17 91 34 118 7 11 13 9 27 -10 10 -13 19 -29 19 -34z
m1135 28 c3 -16 10 -42 16 -60 8 -26 7 -37 -7 -58 -9 -14 -18 -25 -20 -25 -8
0 -64 94 -64 108 0 22 33 61 52 62 11 0 20 -10 23 -27z"/>
</g>
</svg>
