<?xml version="1.0" standalone="no"?>
<!DOCTYPE svg PUBLIC "-//W3C//DTD SVG 20010904//EN"
 "http://www.w3.org/TR/2001/REC-SVG-20010904/DTD/svg10.dtd">
<svg version="1.0" xmlns="http://www.w3.org/2000/svg"
 width="600.000000pt" height="590.000000pt" viewBox="0 0 600.000000 590.000000"
 preserveAspectRatio="xMidYMid meet">
<metadata>
Created by potrace 1.16, written by Peter Selinger 2001-2019
</metadata>
<g transform="translate(0.000000,590.000000) scale(0.500000,-0.500000)"
fill="#000000" stroke="none">
<path d="M572 1140 c-5 -1 -12 -5 -19 -11 -6 -6 -14 -12 -18 -14 -7 -3 -9 -6
-11 -13 -1 -5 -4 -13 -6 -17 -12 -29 1 -70 27 -86 3 -2 5 -5 5 -6 0 -2 2 -9 5
-15 4 -10 7 -34 7 -69 0 -13 -18 -36 -35 -44 -5 -2 -12 -7 -15 -10 -3 -3 -9
-7 -13 -9 -5 -2 -19 -14 -32 -26 -21 -19 -27 -24 -42 -31 -10 -5 -22 -12 -26
-15 -12 -10 -15 -9 -44 20 -14 14 -27 29 -30 34 -3 5 -7 11 -10 14 -3 2 -6 8
-7 11 -3 9 -56 61 -67 66 -17 8 -21 15 -12 23 6 6 11 16 11 23 0 4 4 10 18 24
15 16 40 53 40 61 0 0 4 6 8 11 25 30 27 57 5 68 -8 5 -41 4 -51 -1 -4 -2 -12
-4 -18 -5 -8 -1 -18 -4 -28 -9 -8 -4 -19 -9 -24 -10 -6 -1 -12 -5 -20 -13 -6
-6 -15 -13 -20 -15 -6 -2 -11 -6 -12 -7 -5 -6 -11 -4 -17 7 -4 7 -9 12 -16 17
-8 5 -11 9 -18 22 -21 43 -54 30 -50 -19 2 -16 10 -28 27 -39 5 -3 10 -10 15
-18 4 -8 9 -16 11 -19 6 -8 5 -11 -5 -23 -9 -10 -10 -12 -11 -25 -1 -7 -3 -15
-5 -18 -1 -3 -3 -8 -4 -13 -1 -4 -3 -11 -5 -15 -5 -10 -8 -170 -3 -179 11 -22
34 -19 47 5 4 7 11 18 16 23 5 6 11 14 13 18 2 4 5 10 8 13 2 3 7 10 10 15 2
6 8 13 12 17 4 4 10 12 13 19 15 28 34 31 46 7 7 -13 24 -31 37 -38 7 -4 11
-7 14 -13 2 -5 7 -13 11 -17 4 -5 8 -12 10 -16 2 -4 16 -20 31 -35 15 -16 29
-32 31 -36 9 -20 40 -19 60 2 7 7 12 10 22 13 12 4 15 5 33 24 15 15 24 22 36
29 9 5 18 11 21 14 13 14 30 18 38 10 17 -18 3 -239 -15 -239 -1 0 -7 -4 -13
-9 -6 -5 -12 -9 -13 -9 -5 0 -35 -30 -38 -38 -2 -4 -10 -14 -20 -24 -13 -12
-17 -17 -18 -23 -1 -5 -7 -21 -15 -36 -8 -16 -14 -31 -14 -33 0 -2 -2 -8 -4
-13 -5 -8 -5 -8 -4 -140 0 -155 1 -151 -29 -143 -40 10 -64 -27 -28 -45 13 -8
45 -8 57 -2 5 3 13 4 30 5 36 2 32 -17 32 165 0 149 0 153 4 161 2 4 4 9 4 11
0 8 11 28 18 32 6 3 8 8 14 21 8 19 30 45 46 53 5 2 12 7 17 11 16 13 34 0 54
-39 5 -10 11 -20 14 -23 3 -3 6 -10 8 -16 1 -6 4 -15 6 -19 1 -4 3 -11 3 -16
0 -4 2 -10 4 -15 2 -4 4 -11 5 -15 1 -4 3 -11 4 -14 3 -4 4 -14 5 -33 1 -18 2
-29 4 -32 4 -7 5 -111 2 -137 -1 -10 -3 -24 -3 -31 -1 -14 -5 -20 -14 -20 -2
0 -8 -2 -12 -4 -4 -2 -13 -5 -19 -6 -26 -6 -30 -24 -8 -36 29 -16 84 -8 105
14 8 9 10 281 2 294 -3 5 -5 12 -6 23 -1 9 -3 20 -5 25 -2 5 -4 10 -4 12 0 2
-4 11 -9 22 -5 10 -10 21 -10 25 -2 8 -6 15 -11 20 -2 2 -6 8 -8 12 -3 4 -7
10 -9 13 -3 3 -9 13 -14 23 -5 10 -13 23 -19 30 -22 24 -21 20 -23 145 -2 133
-2 133 28 106 7 -6 15 -12 18 -13 2 -1 8 -5 13 -10 6 -6 12 -9 17 -10 12 -2
27 -11 30 -18 6 -11 13 -17 25 -20 15 -5 31 -13 42 -22 10 -8 34 -10 44 -3 7
5 31 30 37 39 3 4 10 12 16 16 6 5 12 11 15 18 6 13 61 69 67 69 8 0 19 -11
28 -31 14 -29 31 -68 31 -70 0 -14 31 -22 46 -12 21 12 50 61 50 84 0 5 2 12
4 17 6 12 5 60 -2 74 -3 6 -4 13 -4 22 0 8 -1 15 -4 20 -2 4 -4 10 -5 14 0 3
-4 13 -8 21 -9 19 -9 19 13 40 10 10 20 21 22 27 3 5 7 12 11 17 6 7 7 9 7 21
0 38 -46 38 -64 0 -13 -27 -37 -40 -52 -28 -3 3 -11 7 -16 10 -6 4 -10 8 -14
15 -4 8 -6 9 -13 11 -4 1 -11 4 -14 5 -3 2 -12 5 -20 6 -8 1 -18 4 -22 6 -11
4 -62 4 -68 0 -6 -4 -7 -37 -1 -50 2 -6 5 -14 6 -19 1 -4 5 -12 9 -16 3 -4 10
-14 14 -22 4 -8 11 -18 14 -22 8 -8 21 -33 21 -39 0 -3 2 -9 4 -13 8 -17 2
-36 -17 -48 -6 -4 -12 -11 -16 -17 -3 -5 -14 -19 -25 -30 -11 -11 -21 -22 -22
-25 -1 -2 -6 -6 -10 -9 -5 -3 -11 -9 -15 -14 -11 -16 -23 -20 -34 -11 -4 3
-12 7 -18 8 -8 2 -13 4 -22 13 -7 6 -19 14 -30 19 -10 4 -20 10 -23 13 -7 6
-27 16 -36 18 -7 1 -41 17 -45 21 -1 1 -2 8 -3 15 -1 7 -3 15 -5 18 -8 10 -2
32 15 53 6 8 8 12 9 21 1 14 3 17 15 30 12 12 14 20 9 32 -2 4 -4 14 -5 22 -1
11 -3 14 -8 22 -4 4 -9 11 -11 15 -12 23 -41 34 -75 26z m27 -62 c3 -3 7 -9 9
-13 9 -22 -13 -44 -28 -29 -19 19 -1 58 19 42z m370 -11 c3 -1 7 -1 10 -2 3
-1 11 -6 18 -13 7 -6 14 -12 17 -13 21 -6 5 -57 -18 -57 -9 0 -20 12 -20 23 0
2 -4 13 -8 22 -17 37 -19 45 -8 42 2 0 5 -1 9 -2z m-729 -4 c1 -4 -11 -31 -18
-40 -4 -4 -8 -10 -9 -15 -10 -24 -33 -32 -37 -12 -1 5 -4 12 -7 15 -6 9 -4 13
7 19 4 2 11 8 16 13 16 16 46 29 48 20z m824 -101 c2 -2 4 -6 4 -8 0 -2 2 -8
4 -14 2 -5 4 -16 5 -24 0 -10 2 -18 5 -23 6 -12 5 -17 -3 -35 -11 -21 -19 -23
-28 -5 -2 3 -7 9 -10 13 -4 4 -9 11 -11 15 -2 5 -7 15 -11 23 -8 17 -8 20 2
32 4 4 8 11 10 15 6 14 24 20 33 11z m-917 -14 c15 -19 15 -28 3 -42 -4 -5 -9
-13 -12 -17 -5 -11 -31 -36 -33 -33 -6 10 -4 37 5 55 7 12 10 22 11 30 1 12 7
21 12 21 1 0 8 -6 14 -14z"/>
</g>
</svg>
