<?xml version="1.0" standalone="no"?>
<!DOCTYPE svg PUBLIC "-//W3C//DTD SVG 20010904//EN"
 "http://www.w3.org/TR/2001/REC-SVG-20010904/DTD/svg10.dtd">
<svg version="1.0" xmlns="http://www.w3.org/2000/svg"
 width="100.000000pt" height="99.000000pt" viewBox="0 0 100.000000 99.000000"
 preserveAspectRatio="xMidYMid meet">
<metadata>
Created by potrace 1.16, written by Peter Selinger 2001-2019
</metadata>
<g transform="translate(0.000000,99.000000) scale(0.100000,-0.100000)"
fill="#000000" stroke="none">
<path d="M25 940 c-4 -14 2 -30 19 -51 31 -36 30 -33 11 -91 -10 -29 -15 -71
-13 -114 4 -92 22 -96 74 -15 21 34 44 61 49 61 6 0 39 -34 74 -75 34 -41 68
-75 75 -75 7 0 41 20 76 45 35 25 68 45 72 45 4 0 8 -42 8 -93 l0 -94 -40 -32
c-68 -55 -84 -97 -90 -241 -5 -115 -7 -125 -25 -128 -34 -7 -47 -22 -33 -39 9
-11 25 -14 56 -10 23 2 45 7 47 9 3 2 7 67 10 143 5 143 9 159 58 213 32 34
52 28 78 -25 19 -40 24 -68 27 -169 l4 -121 -27 -7 c-18 -5 -25 -12 -23 -24 4
-21 58 -28 88 -12 18 10 20 20 20 129 0 134 -12 186 -63 270 -31 50 -35 65
-39 149 -3 51 -2 94 2 97 4 2 36 -16 70 -40 35 -25 74 -45 86 -45 15 0 40 20
73 57 58 65 75 65 96 2 16 -47 48 -51 74 -8 30 48 34 94 16 150 l-17 49 27 31
c14 18 25 39 23 48 -5 27 -36 24 -62 -6 l-24 -28 -33 24 c-17 13 -51 26 -75
29 -61 7 -67 -15 -26 -89 18 -32 32 -66 32 -76 0 -20 -88 -113 -106 -113 -6 0
-42 17 -80 38 -79 43 -86 59 -55 121 26 51 26 72 0 105 -32 41 -90 30 -110
-21 -7 -20 -5 -34 11 -65 11 -21 20 -54 20 -72 0 -29 -8 -39 -62 -80 -35 -25
-68 -46 -73 -46 -6 0 -39 31 -73 69 l-62 69 40 59 c50 72 53 103 10 103 -17 0
-54 -12 -82 -26 l-52 -26 -25 31 c-30 36 -47 39 -56 11z"/>
</g>
</svg>
