<?xml version="1.0" standalone="no"?>
<!DOCTYPE svg PUBLIC "-//W3C//DTD SVG 20010904//EN"
 "http://www.w3.org/TR/2001/REC-SVG-20010904/DTD/svg10.dtd">
<svg version="1.0" xmlns="http://www.w3.org/2000/svg"
 width="74.000000pt" height="100.000000pt" viewBox="0 0 74.000000 100.000000"
 preserveAspectRatio="xMidYMid meet">
<metadata>
Created by potrace 1.16, written by Peter Selinger 2001-2019
</metadata>
<g transform="translate(0.000000,100.000000) scale(0.100000,-0.100000)"
fill="#000000" stroke="none">
<path d="M237 934 c-4 -4 -7 -42 -7 -84 l0 -76 -77 -55 c-61 -43 -78 -60 -78
-79 0 -43 32 -36 91 20 31 30 59 49 64 44 5 -5 4 -67 -1 -139 l-10 -130 -80
-189 c-73 -173 -79 -190 -64 -205 28 -28 48 1 107 155 31 82 60 150 65 151 5
2 36 -56 68 -129 32 -73 64 -143 72 -155 15 -25 51 -31 59 -10 3 8 -34 95 -81
195 l-85 181 0 131 c0 85 4 130 11 130 5 0 31 -16 56 -35 58 -44 94 -46 123
-5 27 38 42 38 90 -1 l39 -31 35 27 c42 32 69 72 62 91 -8 22 -30 17 -61 -16
-52 -54 -83 -32 -34 24 18 21 29 42 25 51 -8 23 -23 18 -57 -20 -54 -59 -81
-39 -34 25 28 38 33 70 11 70 -14 0 -36 -24 -62 -66 -9 -15 -15 -16 -24 -7
-10 9 -6 22 19 59 34 52 35 67 4 72 -16 2 -29 -11 -57 -55 -20 -31 -36 -65
-36 -74 0 -9 16 -29 35 -43 41 -32 44 -52 11 -67 -21 -10 -33 -6 -85 26 l-60
37 -3 92 c-3 83 -5 91 -23 94 -12 2 -24 0 -28 -4z"/>
</g>
</svg>
