<?xml version="1.0" standalone="no"?>
<!DOCTYPE svg PUBLIC "-//W3C//DTD SVG 20010904//EN"
 "http://www.w3.org/TR/2001/REC-SVG-20010904/DTD/svg10.dtd">
<svg version="1.0" xmlns="http://www.w3.org/2000/svg"
 width="110.000000pt" height="148.000000pt" viewBox="0 0 110.000000 148.000000"
 preserveAspectRatio="xMidYMid meet">
<metadata>
Created by potrace 1.16, written by Peter Selinger 2001-2019
</metadata>
<g transform="translate(0.000000,148.000000) scale(0.100000,-0.100000)"
fill="#000000" stroke="none">
<path d="M357 1383 c-4 -3 -7 -58 -7 -122 l-1 -116 -119 -88 c-118 -86 -135
-108 -108 -135 21 -21 38 -13 126 63 86 75 109 85 105 49 -1 -10 -6 -105 -12
-209 -7 -129 -15 -200 -25 -220 -13 -26 -115 -271 -156 -375 -8 -19 -27 -60
-41 -90 l-28 -55 21 -18 c11 -9 26 -17 34 -17 17 0 43 40 55 82 14 57 157 402
166 405 6 2 24 -29 41 -69 17 -40 51 -116 75 -168 25 -52 59 -125 75 -162 28
-63 33 -68 62 -68 18 0 33 6 37 15 3 9 -13 53 -35 98 -48 99 -129 271 -147
312 -7 17 -25 56 -39 87 -25 55 -26 63 -26 252 0 107 4 197 8 200 5 3 49 -24
97 -59 49 -36 99 -65 111 -65 14 0 38 19 69 55 25 30 52 55 58 55 7 0 35 -20
62 -44 77 -67 80 -67 159 20 l68 75 -22 19 c-13 11 -27 20 -31 20 -4 0 -27
-22 -50 -50 -45 -54 -55 -58 -85 -36 -18 14 -17 17 34 68 57 58 64 81 30 99
-20 11 -27 6 -76 -50 -46 -52 -57 -59 -73 -51 -28 15 -24 29 28 99 l46 62 -21
21 c-26 27 -39 17 -83 -58 -32 -57 -62 -71 -74 -33 -7 20 7 44 67 120 23 30
17 69 -10 69 -26 0 -34 -9 -91 -92 -64 -94 -63 -106 15 -166 l56 -44 -38 -39
c-21 -21 -42 -39 -46 -39 -4 0 -51 28 -104 63 l-96 62 5 128 5 128 -25 10
c-29 11 -37 11 -46 2z"/>
</g>
</svg>
