<?xml version="1.0" standalone="no"?>
<!DOCTYPE svg PUBLIC "-//W3C//DTD SVG 20010904//EN"
 "http://www.w3.org/TR/2001/REC-SVG-20010904/DTD/svg10.dtd">
<svg version="1.0" xmlns="http://www.w3.org/2000/svg"
 width="134.000000pt" height="148.000000pt" viewBox="0 0 134.000000 148.000000"
 preserveAspectRatio="xMidYMid meet">
<metadata>
Created by potrace 1.16, written by Peter Selinger 2001-2019
</metadata>
<g transform="translate(0.000000,148.000000) scale(0.100000,-0.100000)"
fill="#000000" stroke="none">
<path d="M346 1401 c-15 -16 -17 -38 -15 -144 l2 -125 -34 -30 c-19 -17 -38
-32 -44 -32 -5 -1 -32 -19 -60 -41 -27 -21 -72 -54 -98 -71 -43 -30 -48 -36
-45 -68 5 -62 37 -53 166 50 62 49 118 90 123 90 22 0 2 -92 -41 -185 -10 -22
-35 -87 -55 -145 -20 -58 -42 -118 -50 -135 -7 -16 -16 -41 -20 -55 -6 -21
-27 -80 -55 -155 -5 -11 -13 -36 -20 -55 -15 -42 -29 -79 -41 -102 -14 -28
-10 -60 8 -74 29 -22 52 -17 59 14 4 15 49 140 99 277 51 138 102 282 115 320
24 75 46 110 53 84 3 -8 12 -41 21 -74 10 -33 52 -168 95 -300 43 -132 84
-261 92 -287 11 -38 18 -48 35 -48 11 0 29 8 38 19 16 18 16 22 -4 77 -12 33
-39 114 -60 182 -22 67 -76 230 -121 362 -102 303 -101 338 8 237 85 -80 251
-217 263 -217 6 0 15 11 20 25 5 14 18 38 29 53 10 15 33 51 51 80 19 28 37
52 42 52 14 0 56 -30 136 -93 98 -79 110 -76 203 52 l39 55 -20 30 c-30 48
-46 44 -79 -21 -43 -84 -54 -97 -79 -89 -44 14 -38 54 20 128 32 41 34 74 5
92 -20 12 -34 -1 -80 -74 -25 -39 -52 -48 -81 -27 -19 14 -19 15 -1 53 10 22
26 51 36 66 24 33 24 50 1 71 -37 33 -58 22 -94 -50 -34 -69 -56 -85 -83 -63
-24 20 -18 47 26 112 35 53 39 65 30 85 -23 51 -59 39 -89 -31 -23 -50 -44
-69 -74 -64 -36 5 -32 32 16 105 34 52 42 71 35 85 -17 31 -56 22 -84 -19 -14
-21 -37 -53 -50 -72 -16 -22 -25 -47 -25 -72 0 -34 5 -41 48 -71 26 -17 55
-42 65 -55 10 -13 24 -23 30 -23 7 0 27 -13 46 -29 l35 -29 -43 -66 c-24 -36
-49 -66 -56 -66 -7 0 -41 22 -76 50 -35 27 -89 67 -119 89 -114 80 -111 75
-109 205 1 95 -2 119 -17 145 -21 35 -43 39 -68 12z"/>
<path d="M347 293 c-3 -5 -7 -51 -8 -103 l-4 -95 40 0 40 0 -2 40 c-1 22 -5
68 -9 103 -6 56 -9 62 -30 62 -12 0 -25 -3 -27 -7z"/>
</g>
</svg>
