<?xml version="1.0" standalone="no"?>
<!DOCTYPE svg PUBLIC "-//W3C//DTD SVG 20010904//EN"
 "http://www.w3.org/TR/2001/REC-SVG-20010904/DTD/svg10.dtd">
<svg version="1.0" xmlns="http://www.w3.org/2000/svg"
 width="91.000000pt" height="100.000000pt" viewBox="0 0 91.000000 100.000000"
 preserveAspectRatio="xMidYMid meet">
<metadata>
Created by potrace 1.16, written by Peter Selinger 2001-2019
</metadata>
<g transform="translate(0.000000,100.000000) scale(0.100000,-0.100000)"
fill="#000000" stroke="none">
<path d="M484 962 c-21 -13 -74 -106 -74 -128 0 -15 22 -38 75 -78 41 -31 75
-59 75 -63 0 -13 -52 -73 -63 -73 -15 0 -187 128 -193 144 -3 7 -6 48 -7 91
-3 91 -9 105 -42 105 -30 0 -35 -16 -35 -116 l0 -83 -95 -68 c-83 -58 -96 -70
-93 -92 5 -45 37 -37 112 29 39 33 75 59 80 57 16 -6 8 -51 -18 -111 -13 -29
-58 -146 -101 -261 -80 -213 -85 -240 -40 -240 20 0 44 56 127 300 28 83 54
157 58 165 11 20 16 8 90 -230 34 -107 66 -205 71 -218 10 -26 36 -26 52 0 12
18 2 51 -120 396 -65 181 -73 229 -34 201 10 -8 58 -49 106 -91 48 -43 91 -78
96 -78 5 0 29 31 54 70 25 39 49 70 54 70 5 0 36 -22 68 -50 32 -27 68 -50 80
-50 21 0 67 47 93 96 11 20 11 27 -5 44 -22 24 -37 15 -66 -42 -11 -21 -26
-38 -33 -38 -28 0 -26 33 3 77 16 25 27 51 24 59 -9 25 -41 15 -62 -21 -23
-40 -47 -53 -64 -36 -9 9 -5 24 16 62 23 40 26 53 17 64 -24 29 -50 17 -70
-30 -14 -33 -25 -45 -40 -45 -34 0 -34 27 -2 77 31 47 32 67 6 77 -9 3 -23 -9
-39 -35 -28 -44 -50 -58 -67 -41 -8 8 -1 25 22 62 26 41 30 53 20 65 -14 17
-20 18 -36 7z"/>
<path d="M662 958 c7 -19 155 -33 193 -18 48 18 12 30 -98 30 -75 0 -98 -3
-95 -12z"/>
<path d="M244 212 c-6 -4 -14 -35 -18 -68 -5 -50 -4 -65 9 -78 38 -37 59 -5
50 73 -7 60 -21 86 -41 73z"/>
<path d="M824 70 c-5 -5 -63 -11 -129 -12 -162 -4 -158 -22 5 -26 142 -3 170
1 170 26 0 19 -31 27 -46 12z"/>
</g>
</svg>
