<?xml version="1.0" standalone="no"?>
<!DOCTYPE svg PUBLIC "-//W3C//DTD SVG 20010904//EN"
 "http://www.w3.org/TR/2001/REC-SVG-20010904/DTD/svg10.dtd">
<svg version="1.0" xmlns="http://www.w3.org/2000/svg"
 width="422.000000pt" height="590.000000pt" viewBox="0 0 422.000000 590.000000"
 preserveAspectRatio="xMidYMid meet">
<metadata>
Created by potrace 1.16, written by Peter Selinger 2001-2019
</metadata>
<g transform="translate(0.000000,590.000000) scale(0.500000,-0.500000)"
fill="#000000" stroke="none">
<path d="M299 1136 c-11 -4 -12 -8 -10 -62 2 -69 5 -137 7 -165 3 -36 -5 -47
-46 -61 -15 -5 -24 -9 -33 -16 -11 -9 -31 -18 -53 -24 -4 -2 -11 -6 -15 -9
-11 -12 -26 -22 -36 -26 -30 -10 -40 -40 -21 -62 17 -19 32 -17 60 6 24 20
123 81 133 82 15 3 18 -14 16 -93 -2 -62 -2 -99 0 -147 1 -36 1 -36 -6 -53 -9
-20 -26 -68 -38 -108 -10 -31 -23 -67 -39 -107 -6 -14 -13 -35 -17 -45 -14
-41 -25 -69 -33 -83 -9 -16 -21 -47 -25 -67 -2 -7 -5 -18 -7 -24 -7 -20 -2
-26 24 -26 21 0 27 3 33 18 3 6 11 22 18 36 9 18 14 31 17 44 5 20 7 25 17 42
5 8 8 16 9 25 1 8 5 21 9 30 4 9 9 26 13 39 6 23 12 42 24 72 3 8 8 23 10 32
16 62 19 62 51 2 8 -16 33 -63 55 -105 22 -42 57 -109 77 -150 43 -87 41 -84
67 -85 40 -1 42 4 20 50 -9 18 -16 34 -16 35 0 1 -2 4 -5 8 -13 17 -54 90
-113 200 -8 13 -16 28 -19 33 -3 5 -8 17 -11 27 -4 11 -11 25 -18 36 -6 10
-14 22 -17 27 -3 5 -8 13 -11 17 -8 11 -9 21 -12 166 -1 55 -3 115 -3 133 -2
48 3 52 36 29 35 -24 104 -73 120 -85 14 -12 41 -26 46 -26 7 0 15 6 33 28 38
43 108 117 149 160 53 55 54 64 4 114 -18 18 -37 36 -42 40 -19 13 -27 21 -39
35 -25 31 -54 31 -70 0 -7 -13 -5 -17 31 -45 94 -76 93 -75 71 -99 -30 -36
-24 -38 -87 26 -62 63 -63 64 -83 39 -13 -16 3 -47 33 -62 13 -7 69 -64 69
-71 0 -7 -23 -31 -30 -31 -10 0 -34 22 -49 44 -30 44 -64 64 -81 49 -21 -19
-21 -20 32 -71 57 -55 62 -63 51 -74 -10 -10 -19 -8 -40 8 -7 5 -18 13 -26 18
-8 5 -19 13 -26 19 -25 21 -46 36 -60 41 -25 9 -42 23 -44 37 -1 9 -4 71 -7
150 -3 88 -3 87 -28 87 -8 0 -17 -1 -19 -2z"/>
</g>
</svg>
