<?xml version="1.0" standalone="no"?>
<!DOCTYPE svg PUBLIC "-//W3C//DTD SVG 20010904//EN"
 "http://www.w3.org/TR/2001/REC-SVG-20010904/DTD/svg10.dtd">
<svg version="1.0" xmlns="http://www.w3.org/2000/svg"
 width="72.000000pt" height="100.000000pt" viewBox="0 0 72.000000 100.000000"
 preserveAspectRatio="xMidYMid meet">
<metadata>
Created by potrace 1.16, written by Peter Selinger 2001-2019
</metadata>
<g transform="translate(0.000000,100.000000) scale(0.100000,-0.100000)"
fill="#000000" stroke="none">
<path d="M244 959 c-3 -6 -5 -59 -3 -117 l4 -107 -74 -36 c-85 -43 -115 -68
-105 -92 10 -27 42 -20 103 23 31 22 62 40 69 40 9 0 12 -33 12 -120 l0 -120
-56 -148 c-31 -81 -64 -166 -72 -189 -13 -34 -14 -45 -4 -55 30 -30 75 49 125
223 14 46 30 84 36 84 7 0 49 -70 94 -155 72 -137 85 -155 107 -155 39 0 30
26 -74 212 l-94 168 -7 138 c-5 90 -4 137 2 137 6 0 41 -22 79 -50 38 -27 75
-50 84 -50 21 0 190 184 190 208 0 23 -111 132 -135 132 -8 0 -19 -8 -22 -17
-5 -12 9 -30 47 -64 46 -41 52 -50 41 -63 -20 -24 -33 -20 -76 24 -21 22 -47
40 -57 40 -32 0 -20 -34 28 -75 33 -29 44 -45 39 -57 -11 -29 -30 -21 -69 27
-21 25 -44 45 -52 45 -26 0 -14 -36 26 -75 43 -42 49 -55 25 -55 -16 0 -133
76 -147 95 -4 6 -8 47 -8 93 0 46 -5 92 -10 103 -12 21 -35 25 -46 8z"/>
</g>
</svg>
