<?xml version="1.0" standalone="no"?>
<!DOCTYPE svg PUBLIC "-//W3C//DTD SVG 20010904//EN"
 "http://www.w3.org/TR/2001/REC-SVG-20010904/DTD/svg10.dtd">
<svg version="1.0" xmlns="http://www.w3.org/2000/svg"
 width="106.000000pt" height="148.000000pt" viewBox="0 0 106.000000 148.000000"
 preserveAspectRatio="xMidYMid meet">
<metadata>
Created by potrace 1.16, written by Peter Selinger 2001-2019
</metadata>
<g transform="translate(0.000000,148.000000) scale(0.100000,-0.100000)"
fill="#000000" stroke="none">
<path d="M361 1253 l4 -168 -93 -46 c-51 -25 -100 -54 -110 -63 -10 -9 -23
-16 -29 -16 -20 0 -35 -29 -29 -54 11 -46 38 -40 140 29 53 37 104 65 114 63
15 -3 17 -20 15 -183 l-2 -180 -44 -125 c-53 -148 -96 -263 -130 -345 -14 -33
-27 -71 -29 -85 -3 -22 1 -25 26 -25 33 0 48 21 85 120 31 83 97 281 111 334
17 64 11 73 192 -279 44 -85 85 -161 90 -167 14 -18 57 -16 64 2 5 13 -7 39
-78 165 -56 99 -93 168 -121 225 -17 33 -43 80 -58 105 -31 50 -37 101 -39
334 -1 141 -2 136 10 136 6 0 61 -36 122 -80 62 -44 118 -79 124 -78 15 4 258
267 274 298 12 22 7 28 -81 112 -52 48 -101 88 -110 88 -14 0 -49 -29 -49 -42
0 -2 36 -33 80 -67 44 -34 80 -66 80 -71 0 -5 -14 -24 -30 -42 l-30 -33 -70
73 c-55 58 -74 72 -90 67 -34 -11 -25 -49 23 -88 82 -68 89 -75 85 -98 -2 -12
-11 -27 -21 -33 -15 -9 -27 -1 -80 57 -64 69 -89 81 -106 48 -9 -16 0 -29 59
-84 48 -45 68 -71 64 -81 -10 -26 -31 -19 -114 42 -44 31 -94 66 -111 77 -32
20 -32 21 -36 110 -2 50 -6 118 -9 153 -6 61 -6 62 -36 62 l-30 0 3 -167z"/>
</g>
</svg>
