<?xml version="1.0" standalone="no"?>
<!DOCTYPE svg PUBLIC "-//W3C//DTD SVG 20010904//EN"
 "http://www.w3.org/TR/2001/REC-SVG-20010904/DTD/svg10.dtd">
<svg version="1.0" xmlns="http://www.w3.org/2000/svg"
 width="464.000000pt" height="590.000000pt" viewBox="0 0 464.000000 590.000000"
 preserveAspectRatio="xMidYMid meet">
<metadata>
Created by potrace 1.16, written by Peter Selinger 2001-2019
</metadata>
<g transform="translate(0.000000,590.000000) scale(0.500000,-0.500000)"
fill="#000000" stroke="none">
<path d="M251 1141 c-22 -4 -24 -14 -22 -123 l2 -93 -18 -19 c-9 -10 -17 -19
-17 -21 0 -2 -6 -9 -13 -17 -7 -8 -13 -16 -13 -17 0 -2 -7 -11 -16 -20 -8 -9
-17 -19 -19 -23 -2 -4 -11 -15 -19 -24 -22 -23 -25 -26 -33 -32 -4 -4 -10 -12
-14 -21 -5 -10 -13 -21 -19 -28 -18 -19 -16 -33 5 -53 17 -16 34 -10 44 15 2
4 7 12 12 17 5 5 11 13 13 18 2 5 10 15 17 22 7 8 14 17 16 21 2 4 9 14 17 22
8 9 15 19 17 23 3 7 32 38 36 38 5 0 5 -11 4 -187 l-2 -180 -6 -13 c-4 -7 -8
-15 -11 -17 -5 -5 -41 -76 -43 -86 -2 -8 -13 -29 -20 -37 -5 -6 -15 -26 -15
-31 0 -7 -11 -25 -17 -30 -5 -3 -8 -8 -9 -14 -1 -4 -6 -15 -10 -24 -4 -9 -8
-18 -8 -20 0 -6 -18 -41 -25 -51 -4 -4 -9 -12 -10 -18 -4 -13 -9 -28 -13 -38
-11 -24 -4 -33 26 -33 26 0 25 -1 40 28 6 12 14 26 17 31 4 5 8 12 8 16 1 4
14 33 30 65 37 76 39 80 39 84 0 5 11 27 18 36 3 4 6 11 7 15 2 9 26 59 32 65
8 10 21 -2 24 -21 0 -4 4 -12 8 -16 3 -5 11 -19 17 -32 33 -67 42 -86 43 -92
1 -4 4 -11 7 -15 8 -10 25 -44 27 -54 2 -9 20 -46 26 -53 6 -7 14 -24 16 -34
4 -25 55 -36 73 -16 9 10 13 -1 -44 110 -15 31 -28 58 -28 61 0 2 -3 9 -8 14
-4 6 -8 12 -9 15 -2 3 -5 9 -9 12 -8 10 -44 82 -44 88 0 4 -3 9 -7 13 -4 5
-19 32 -34 62 l-28 54 -2 175 c-2 195 -1 198 12 176 2 -4 10 -13 17 -20 6 -8
12 -15 12 -17 0 -1 3 -7 8 -12 4 -6 8 -12 9 -15 1 -2 4 -7 7 -11 4 -4 10 -14
14 -23 5 -10 10 -19 13 -22 3 -3 6 -8 8 -12 1 -4 5 -10 8 -13 2 -3 7 -11 10
-16 2 -6 6 -12 8 -13 2 -2 5 -7 7 -11 13 -29 47 -26 64 7 5 10 9 15 15 19 14
9 70 69 75 79 4 10 22 28 28 28 5 0 13 -7 47 -45 41 -44 44 -45 62 -29 22 20
18 29 -27 71 -45 42 -45 43 -34 57 3 4 7 11 10 15 10 21 20 23 35 7 7 -7 16
-15 21 -17 5 -3 19 -16 32 -29 29 -30 39 -30 53 2 8 17 11 13 -42 63 -40 38
-40 36 -17 58 25 24 24 24 68 -21 43 -44 40 -42 58 -34 30 16 28 26 -15 70
-43 43 -47 52 -34 68 9 12 9 17 -2 30 -22 27 -31 28 -55 3 -16 -17 -18 -17
-36 1 -22 23 -27 23 -48 1 -20 -20 -19 -23 7 -48 23 -22 24 -19 -14 -59 -17
-17 -31 -33 -31 -34 0 -3 -6 -8 -10 -8 -1 0 -20 18 -41 39 -45 47 -43 46 -64
25 -23 -23 -23 -24 20 -64 46 -43 53 -57 29 -60 -7 -1 -11 1 -32 23 -13 13
-26 25 -29 26 -3 2 -10 7 -14 10 -13 11 -19 10 -34 -5 -20 -19 -22 -33 -6 -41
11 -6 63 -58 63 -64 0 -2 -4 -8 -9 -14 -5 -6 -10 -12 -12 -15 -2 -3 -6 -7 -9
-9 -3 -1 -9 -6 -14 -10 -5 -4 -9 -7 -11 -7 -1 0 -5 -2 -10 -5 -10 -7 -29 7
-40 29 -2 4 -6 11 -10 15 -4 4 -7 10 -8 13 -1 3 -6 10 -12 16 -6 6 -12 14 -14
18 -1 4 -5 9 -7 11 -2 2 -7 8 -9 14 -3 5 -10 15 -16 21 -6 7 -11 13 -11 15 0
1 -3 6 -7 11 -3 4 -10 15 -14 23 -4 9 -10 20 -14 25 l-7 8 1 90 c1 75 1 90 -1
93 -5 5 -21 8 -37 6z"/>
</g>
</svg>
