<?xml version="1.0" standalone="no"?>
<!DOCTYPE svg PUBLIC "-//W3C//DTD SVG 20010904//EN"
 "http://www.w3.org/TR/2001/REC-SVG-20010904/DTD/svg10.dtd">
<svg version="1.0" xmlns="http://www.w3.org/2000/svg"
 width="78.000000pt" height="100.000000pt" viewBox="0 0 78.000000 100.000000"
 preserveAspectRatio="xMidYMid meet">
<metadata>
Created by potrace 1.16, written by Peter Selinger 2001-2019
</metadata>
<g transform="translate(0.000000,100.000000) scale(0.100000,-0.100000)"
fill="#000000" stroke="none">
<path d="M197 963 c-4 -3 -7 -47 -7 -97 l-1 -91 -75 -84 c-72 -82 -93 -118
-79 -140 14 -24 37 -7 90 65 31 42 60 73 63 69 4 -4 5 -71 3 -151 l-3 -144
-79 -157 c-43 -87 -79 -166 -79 -176 0 -26 29 -33 49 -11 10 10 44 76 77 147
32 70 63 126 68 124 5 -2 35 -59 67 -128 72 -155 75 -159 99 -159 42 0 33 32
-55 202 l-87 170 -6 149 c-3 86 -1 149 4 149 5 0 31 -36 58 -81 26 -44 55 -83
63 -86 16 -6 63 38 110 102 l22 30 41 -44 c33 -36 42 -41 55 -31 22 18 19 30
-20 70 -24 25 -34 42 -29 53 9 24 21 21 67 -18 37 -32 43 -34 56 -20 14 13 11
19 -23 54 -25 25 -37 45 -33 55 10 26 45 18 69 -14 24 -32 55 -39 65 -14 3 9
-6 28 -26 48 -18 19 -31 42 -31 58 0 32 -20 50 -40 38 -8 -5 -32 -7 -52 -3
-34 5 -38 3 -38 -15 0 -12 5 -24 10 -27 17 -11 11 -41 -14 -64 -27 -25 -39
-22 -69 16 -21 27 -45 30 -54 7 -3 -9 6 -28 26 -48 28 -29 40 -56 25 -56 -4 0
-22 14 -41 30 -39 35 -46 36 -64 14 -11 -14 -9 -20 19 -45 18 -16 32 -35 32
-44 0 -18 -45 -49 -59 -41 -6 4 -35 42 -66 85 -55 79 -55 79 -55 154 0 42 -3
82 -6 91 -6 16 -35 22 -47 9z"/>
</g>
</svg>
