<?xml version="1.0" standalone="no"?>
<!DOCTYPE svg PUBLIC "-//W3C//DTD SVG 20010904//EN"
 "http://www.w3.org/TR/2001/REC-SVG-20010904/DTD/svg10.dtd">
<svg version="1.0" xmlns="http://www.w3.org/2000/svg"
 width="100.000000pt" height="90.000000pt" viewBox="0 0 100.000000 90.000000"
 preserveAspectRatio="xMidYMid meet">
<metadata>
Created by potrace 1.16, written by Peter Selinger 2001-2019
</metadata>
<g transform="translate(0.000000,90.000000) scale(0.100000,-0.100000)"
fill="#000000" stroke="none">
<path d="M457 863 c-4 -3 -7 -42 -7 -85 0 -43 -4 -78 -8 -78 -4 0 -33 -22 -64
-50 -51 -45 -88 -63 -88 -42 0 4 16 23 35 42 19 19 35 40 35 46 0 30 -25 23
-65 -16 -28 -28 -49 -41 -59 -37 -24 10 -20 21 24 56 40 32 52 61 25 61 -8 0
-30 -13 -48 -30 -19 -16 -42 -30 -51 -30 -29 0 -17 27 24 54 22 14 40 33 40
41 0 30 -31 28 -70 -4 -29 -23 -48 -31 -72 -29 -30 3 -33 0 -34 -25 -1 -17
-10 -34 -23 -43 -24 -17 -28 -54 -6 -54 9 0 29 10 45 21 32 24 71 20 51 -5 -7
-8 -25 -19 -41 -26 -31 -13 -43 -32 -34 -55 9 -23 23 -18 65 20 22 19 46 35
54 35 23 0 18 -28 -9 -45 -30 -20 -40 -43 -25 -61 16 -20 24 -18 62 16 33 28
36 29 62 16 34 -18 46 -13 113 41 30 24 58 43 63 43 5 0 9 -42 9 -93 0 -90 -2
-98 -64 -264 -76 -200 -86 -240 -62 -249 29 -11 44 15 96 172 29 85 55 152 59
150 4 -3 40 -69 80 -148 81 -157 92 -174 115 -165 29 11 17 47 -70 216 -84
163 -87 169 -96 265 -7 66 -7 101 0 108 6 6 35 -5 88 -36 85 -50 108 -55 135
-30 17 15 20 15 49 -10 18 -14 40 -26 50 -26 37 0 33 23 -9 59 -23 20 -41 39
-41 42 0 20 34 14 66 -12 21 -16 45 -28 53 -27 28 5 17 32 -21 57 -21 13 -38
30 -38 38 0 17 31 17 56 -2 10 -8 27 -15 37 -15 24 0 22 37 -3 52 -12 8 -20
24 -20 40 0 26 -3 28 -38 28 -26 0 -45 7 -57 20 -22 25 -65 27 -65 3 0 -9 14
-28 32 -43 21 -17 29 -32 25 -42 -8 -21 -39 -13 -68 18 -27 29 -59 32 -59 5 0
-10 17 -30 41 -45 38 -26 46 -45 22 -53 -6 -2 -29 12 -53 32 -23 19 -48 35
-56 35 -27 0 -14 -38 21 -60 19 -12 35 -28 35 -36 0 -20 -19 -14 -114 38 l-76
41 0 84 c0 80 -1 83 -23 83 -13 0 -27 -3 -30 -7z"/>
</g>
</svg>
