<?xml version="1.0" standalone="no"?>
<!DOCTYPE svg PUBLIC "-//W3C//DTD SVG 20010904//EN"
 "http://www.w3.org/TR/2001/REC-SVG-20010904/DTD/svg10.dtd">
<svg version="1.0" xmlns="http://www.w3.org/2000/svg"
 width="164.000000pt" height="148.000000pt" viewBox="0 0 164.000000 148.000000"
 preserveAspectRatio="xMidYMid meet">
<metadata>
Created by potrace 1.16, written by Peter Selinger 2001-2019
</metadata>
<g transform="translate(0.000000,148.000000) scale(0.100000,-0.100000)"
fill="#000000" stroke="none">
<path d="M750 1416 c-5 -5 -7 -60 -3 -138 6 -122 5 -128 -13 -128 -11 0 -60
-36 -109 -81 -98 -88 -129 -106 -151 -88 -22 18 -18 25 44 75 62 50 85 84 76
108 -12 32 -49 16 -114 -49 -35 -36 -69 -65 -75 -65 -5 0 -21 9 -34 19 l-24
19 67 48 c68 49 92 88 65 105 -19 12 -35 11 -51 -3 -72 -69 -101 -88 -127 -88
-59 0 -50 20 37 84 52 39 62 51 62 76 0 49 -40 40 -115 -25 -65 -58 -84 -65
-105 -40 -16 19 -59 19 -66 1 -3 -8 2 -29 12 -45 10 -17 16 -32 13 -34 -2 -1
-23 -16 -46 -31 -34 -23 -43 -35 -43 -57 0 -44 42 -39 102 12 49 41 73 45 84
14 7 -18 -22 -55 -43 -55 -7 0 -29 -10 -48 -22 -29 -20 -35 -29 -35 -60 0 -35
2 -38 28 -38 19 0 45 16 87 55 62 56 97 67 103 31 4 -19 -42 -65 -66 -66 -21
0 -34 -42 -23 -73 17 -43 55 -37 103 18 44 50 73 57 102 24 32 -38 82 -22 179
59 79 66 96 76 123 73 8 -1 11 -47 11 -148 0 -135 -2 -155 -27 -228 -16 -44
-48 -139 -73 -212 -25 -73 -52 -145 -60 -160 -8 -15 -23 -54 -32 -85 -9 -32
-20 -60 -25 -63 -4 -3 -7 -26 -6 -52 1 -44 3 -48 28 -51 34 -4 43 13 93 168
21 63 52 153 70 200 17 47 38 106 45 133 7 26 18 47 25 47 7 0 29 -33 48 -72
70 -144 235 -443 249 -452 25 -15 48 1 48 32 0 17 -58 145 -140 310 -115 232
-140 289 -140 325 0 23 -5 48 -11 54 -6 6 -11 61 -12 129 l-2 119 25 3 c14 1
41 -7 60 -19 77 -48 224 -119 244 -119 12 0 35 13 51 30 l28 29 60 -50 c69
-58 110 -64 115 -18 3 22 -7 33 -62 70 -36 24 -66 48 -66 52 0 15 28 37 46 37
10 0 40 -18 66 -41 61 -51 111 -59 116 -18 3 23 -6 32 -67 70 -39 24 -71 46
-71 50 0 3 11 16 24 28 l24 23 57 -43 57 -43 19 23 c11 13 19 27 19 31 0 5
-23 25 -51 45 -36 27 -47 41 -40 48 6 6 11 24 11 39 0 22 -5 28 -22 28 -12 0
-30 -7 -40 -16 -17 -16 -21 -14 -72 30 -59 50 -84 56 -110 28 -15 -18 -13 -22
45 -77 48 -46 59 -62 52 -74 -19 -30 -50 -23 -113 23 -73 54 -113 61 -108 19
2 -21 18 -38 63 -68 46 -32 60 -47 60 -66 0 -42 -34 -34 -107 26 -70 58 -112
71 -121 36 -7 -27 1 -35 71 -80 42 -28 62 -47 62 -61 0 -35 -39 -23 -190 59
l-145 79 3 130 4 130 -36 4 c-20 2 -40 0 -46 -6z"/>
</g>
</svg>
