<?xml version="1.0" standalone="no"?>
<!DOCTYPE svg PUBLIC "-//W3C//DTD SVG 20010904//EN"
 "http://www.w3.org/TR/2001/REC-SVG-20010904/DTD/svg10.dtd">
<svg version="1.0" xmlns="http://www.w3.org/2000/svg"
 width="652.000000pt" height="590.000000pt" viewBox="0 0 652.000000 590.000000"
 preserveAspectRatio="xMidYMid meet">
<metadata>
Created by potrace 1.16, written by Peter Selinger 2001-2019
</metadata>
<g transform="translate(0.000000,590.000000) scale(0.500000,-0.500000)"
fill="#000000" stroke="none">
<path d="M601 1138 c-9 -3 -9 -9 -7 -112 3 -112 4 -103 -15 -106 -9 -1 -13 -3
-20 -10 -4 -4 -13 -11 -19 -15 -6 -5 -21 -19 -33 -31 -12 -12 -26 -25 -31 -29
-12 -8 -28 -22 -43 -36 -11 -11 -14 -13 -22 -14 -6 -1 -12 -2 -14 -2 -9 -2
-23 9 -23 18 0 4 24 29 37 39 67 47 89 100 42 100 -18 0 -22 -2 -43 -24 -76
-77 -82 -81 -104 -62 -20 17 -18 22 19 48 6 4 15 11 18 14 3 3 10 8 15 11 41
25 47 69 9 69 -20 0 -18 1 -61 -37 -12 -12 -21 -19 -35 -28 -7 -6 -38 -7 -47
-2 -13 6 -8 16 19 35 8 6 19 14 24 17 4 4 14 11 21 16 18 12 29 23 33 32 18
42 -23 60 -61 26 -11 -10 -32 -27 -50 -42 -10 -9 -25 -20 -34 -26 -8 -4 -12
-3 -26 10 -24 22 -56 17 -56 -8 0 -17 2 -22 12 -34 6 -6 10 -12 10 -13 0 -5
-9 -12 -18 -14 -5 -1 -10 -3 -11 -5 -2 -5 -7 -9 -28 -27 -19 -16 -20 -19 -19
-40 2 -25 39 -27 64 -3 14 12 29 25 38 31 4 3 9 7 12 9 11 10 34 1 34 -14 0
-14 -17 -33 -30 -33 -8 0 -14 -3 -22 -10 -7 -7 -15 -12 -35 -24 -39 -23 -8
-82 34 -66 3 1 11 7 17 13 7 5 19 17 29 25 10 8 22 20 29 25 30 27 50 27 50
-1 0 -11 -2 -13 -17 -23 -8 -5 -17 -12 -20 -16 -4 -4 -10 -7 -15 -9 -38 -9
-24 -79 15 -78 23 1 23 1 46 26 9 10 20 21 25 24 5 4 12 10 17 13 12 12 20 10
38 -7 21 -20 33 -23 70 -14 19 5 16 2 65 48 7 6 18 15 23 19 6 3 19 14 30 24
25 23 29 25 44 25 23 0 22 5 22 -83 0 -42 1 -90 2 -108 1 -32 1 -33 -4 -45 -3
-6 -5 -14 -5 -17 0 -6 -32 -104 -37 -114 -4 -6 -15 -38 -28 -76 -37 -112 -50
-143 -60 -151 -5 -5 -6 -7 -7 -22 -2 -17 -6 -31 -14 -42 -3 -4 -5 -10 -6 -22
-1 -15 -1 -16 -10 -25 -8 -8 -8 -9 -8 -21 0 -7 0 -22 -1 -32 -2 -32 1 -36 30
-36 21 0 27 5 35 25 2 6 6 15 9 20 3 5 5 11 5 15 0 4 3 12 6 19 3 7 6 14 6 16
0 3 1 7 2 10 1 3 6 16 9 29 4 13 10 28 12 34 7 15 13 37 13 49 0 7 2 13 6 20
13 22 16 30 23 52 4 12 10 28 13 36 3 8 8 22 11 32 24 82 30 87 50 47 5 -10
12 -23 15 -27 3 -5 12 -21 19 -36 7 -15 14 -29 17 -32 2 -4 10 -19 18 -35 8
-16 16 -31 18 -34 3 -3 9 -15 14 -26 6 -11 13 -24 16 -29 3 -4 12 -21 20 -37
8 -16 15 -30 16 -31 1 -1 4 -8 7 -16 4 -8 11 -22 17 -31 6 -9 15 -24 19 -31
11 -23 43 -32 56 -16 13 15 -3 78 -29 112 -3 4 -30 59 -30 61 0 2 -22 47 -53
107 -49 95 -63 123 -65 130 -1 4 -10 23 -19 41 -22 42 -25 54 -25 85 0 24 0
25 -6 33 -5 8 -6 11 -6 22 0 7 -1 18 -3 24 -3 8 -3 16 -2 35 3 73 3 73 0 87
-10 40 46 44 80 5 4 -4 10 -8 17 -10 17 -6 89 -43 107 -55 33 -23 68 -28 82
-13 36 42 37 42 68 15 50 -43 57 -47 73 -49 30 -3 37 3 36 29 -1 14 -1 15 -9
21 -4 3 -13 11 -19 16 -7 6 -18 14 -25 17 -8 4 -16 10 -18 13 -3 4 -8 8 -12
10 -19 10 -20 15 -3 31 16 16 28 15 49 -4 3 -3 13 -11 22 -17 9 -7 20 -16 26
-20 21 -20 62 -21 67 -3 7 23 0 34 -31 53 -12 7 -24 16 -27 18 -3 3 -14 9 -23
15 -26 16 -27 20 -6 39 16 15 18 15 29 5 5 -4 12 -9 16 -11 4 -2 16 -10 27
-18 33 -24 34 -24 48 -8 20 25 13 41 -30 70 -23 16 -28 22 -25 28 28 45 -2 80
-42 49 -13 -11 -19 -11 -33 2 -6 5 -20 16 -31 25 -12 10 -24 20 -28 23 -14 12
-34 9 -51 -6 -17 -16 -17 -16 34 -67 43 -43 46 -46 40 -55 -9 -11 -42 -14 -54
-5 -6 5 -12 9 -49 36 -12 8 -25 16 -29 17 -4 1 -10 3 -13 4 -24 10 -36 -6 -25
-34 8 -19 8 -19 36 -36 52 -33 59 -41 56 -60 -3 -22 -22 -23 -46 -2 -5 4 -15
12 -22 18 -14 10 -29 22 -47 37 -6 5 -14 9 -18 10 -4 1 -12 3 -18 4 -17 5 -21
3 -26 -10 -8 -23 -4 -31 35 -58 5 -3 15 -11 24 -17 8 -6 20 -14 25 -18 22 -15
23 -36 2 -36 -9 0 -37 10 -46 16 -3 2 -12 7 -20 10 -8 3 -20 10 -28 15 -8 5
-31 17 -51 27 -20 10 -39 20 -42 23 -3 2 -17 9 -30 16 -34 17 -31 10 -29 93 4
146 7 136 -32 136 -14 0 -27 -1 -29 -2z"/>
</g>
</svg>
