<?xml version="1.0" standalone="no"?>
<!DOCTYPE svg PUBLIC "-//W3C//DTD SVG 20010904//EN"
 "http://www.w3.org/TR/2001/REC-SVG-20010904/DTD/svg10.dtd">
<svg version="1.0" xmlns="http://www.w3.org/2000/svg"
 width="94.000000pt" height="148.000000pt" viewBox="0 0 94.000000 148.000000"
 preserveAspectRatio="xMidYMid meet">
<metadata>
Created by potrace 1.16, written by Peter Selinger 2001-2019
</metadata>
<g transform="translate(0.000000,148.000000) scale(0.100000,-0.100000)"
fill="#000000" stroke="none">
<path d="M418 1413 c-1 -5 -2 -57 -2 -118 l-1 -109 -40 -23 c-53 -30 -64 -29
-72 8 -7 39 -29 47 -55 22 -19 -20 -19 -20 1 -54 19 -31 19 -35 4 -51 -10 -11
-30 -18 -53 -18 -32 0 -39 4 -50 31 -14 33 -45 37 -64 7 -8 -13 -5 -24 13 -48
l23 -32 -23 -24 c-12 -13 -28 -24 -36 -24 -18 0 -16 -45 2 -60 13 -11 23 -9
56 9 l40 23 24 -22 c16 -15 30 -20 44 -15 24 7 26 17 10 48 -10 18 -7 25 20
49 17 15 36 28 41 28 5 0 16 -16 24 -35 15 -36 42 -46 52 -20 3 8 -2 29 -11
47 -16 33 -16 33 12 55 35 29 43 29 43 1 4 -213 -3 -396 -15 -422 -8 -16 -15
-33 -15 -38 0 -16 -155 -432 -171 -458 -5 -8 -17 -32 -28 -52 l-19 -38 31 -15
c42 -21 68 -3 86 61 7 27 24 81 38 119 13 39 40 116 59 173 18 57 39 112 45
124 11 20 11 20 34 -2 13 -12 29 -36 35 -53 13 -34 36 -82 80 -162 15 -27 37
-70 50 -95 71 -142 90 -175 103 -178 7 -2 24 5 37 16 l22 18 -21 43 c-12 23
-28 44 -36 48 -8 3 -15 10 -15 15 0 11 -51 127 -75 168 -7 14 -42 81 -76 150
l-63 125 -7 235 c-4 129 -6 236 -4 239 2 2 26 -11 54 -28 l49 -32 -21 -38
c-18 -32 -19 -41 -8 -54 18 -22 39 -11 56 30 l15 35 26 -21 c15 -12 33 -21 40
-21 24 0 26 -20 5 -56 -26 -44 -26 -60 -2 -74 32 -17 39 -12 60 35 l20 46 27
-17 c25 -17 27 -17 45 7 18 24 18 24 -1 41 -11 9 -26 18 -33 21 -9 3 -6 17 11
50 20 39 22 48 10 66 -17 28 -28 23 -56 -27 -25 -44 -42 -52 -62 -27 -7 8 -21
15 -32 15 -30 0 -32 26 -4 67 30 43 33 68 10 77 -22 9 -43 -10 -61 -56 -15
-36 -35 -49 -48 -28 -3 5 -28 21 -56 36 l-50 28 2 107 c1 59 -2 112 -5 118 -8
12 -65 15 -68 4z"/>
</g>
</svg>
