<?xml version="1.0" standalone="no"?>
<!DOCTYPE svg PUBLIC "-//W3C//DTD SVG 20010904//EN"
 "http://www.w3.org/TR/2001/REC-SVG-20010904/DTD/svg10.dtd">
<svg version="1.0" xmlns="http://www.w3.org/2000/svg"
 width="374.000000pt" height="590.000000pt" viewBox="0 0 374.000000 590.000000"
 preserveAspectRatio="xMidYMid meet">
<metadata>
Created by potrace 1.16, written by Peter Selinger 2001-2019
</metadata>
<g transform="translate(0.000000,590.000000) scale(0.500000,-0.500000)"
fill="#000000" stroke="none">
<path d="M343 1133 c-8 -7 -12 -20 -10 -32 15 -99 3 -151 -39 -172 -38 -20
-44 -18 -49 13 -4 23 -27 31 -44 14 -15 -15 -15 -17 -1 -44 6 -13 12 -26 12
-29 0 -10 -23 -23 -43 -23 -9 0 -16 -1 -20 -3 -8 -5 -10 -3 -19 16 -17 36 -31
41 -52 19 -7 -7 -12 -14 -12 -16 0 -6 11 -26 18 -33 13 -13 16 -19 9 -25 -3
-2 -8 -8 -11 -13 -4 -6 -9 -10 -23 -17 -23 -11 -25 -17 -16 -38 8 -18 25 -24
42 -15 44 24 46 24 58 14 4 -4 9 -7 10 -7 1 0 5 -3 8 -7 7 -8 12 -8 34 1 8 3
8 14 2 27 -11 23 -11 26 1 32 3 2 9 8 12 13 17 25 44 27 49 3 4 -22 12 -31 27
-31 21 0 25 19 10 50 -11 23 -10 28 7 36 4 3 11 7 15 10 8 7 15 8 18 1 4 -8 0
-313 -4 -320 -2 -3 -4 -10 -5 -14 -1 -4 -5 -12 -9 -17 -6 -8 -7 -11 -9 -27 -3
-20 -6 -30 -18 -57 -5 -10 -9 -21 -9 -23 0 -2 -1 -6 -3 -9 -2 -4 -5 -11 -6
-16 -4 -13 -9 -27 -13 -38 -2 -4 -4 -10 -4 -11 0 -2 -4 -11 -8 -21 -5 -9 -10
-21 -11 -26 -6 -19 -10 -30 -17 -46 -4 -9 -8 -18 -8 -20 0 -1 -4 -11 -9 -22
-5 -10 -9 -20 -9 -21 0 -2 -2 -9 -5 -15 -2 -7 -7 -19 -10 -27 -3 -8 -7 -17
-10 -19 -7 -7 -11 -15 -11 -23 0 -9 -4 -19 -10 -24 -7 -6 -5 -12 5 -18 4 -3
11 -8 15 -11 25 -20 53 0 67 49 3 10 7 22 9 27 2 6 4 13 4 17 0 5 2 12 4 18 4
12 9 26 13 39 5 18 10 29 17 47 8 20 13 33 17 48 1 6 4 14 6 18 1 4 3 10 3 12
0 2 1 6 3 9 1 3 4 10 6 15 5 18 17 50 24 64 4 8 8 17 10 22 3 8 5 9 10 2 2 -2
8 -6 13 -9 9 -5 28 -38 31 -55 2 -9 19 -45 26 -53 2 -3 9 -15 14 -25 26 -54
42 -84 46 -89 6 -6 22 -40 25 -52 3 -11 19 -43 26 -52 3 -4 11 -18 17 -31 19
-38 73 -38 73 0 0 14 -29 65 -40 71 -10 5 -12 9 -14 24 -1 9 -3 14 -9 20 -8
10 -25 44 -25 50 0 2 -4 11 -9 21 -4 10 -9 21 -10 26 -1 5 -5 11 -12 19 -6 6
-14 19 -19 28 -5 9 -12 23 -15 30 -4 7 -7 15 -7 17 0 3 -6 17 -14 31 -49 96
-46 90 -47 105 -1 8 -3 18 -5 23 -4 9 -4 15 -4 76 0 37 -1 108 -2 157 -2 121
-2 122 22 103 6 -4 11 -8 12 -8 2 0 7 -4 12 -8 5 -4 12 -9 15 -10 10 -4 12
-11 5 -21 -3 -6 -6 -13 -7 -17 -1 -4 -3 -10 -5 -14 -8 -17 -5 -29 9 -37 16 -8
32 7 43 42 4 12 17 14 22 3 3 -8 12 -15 21 -17 27 -5 34 -17 22 -39 -25 -46
-27 -53 -19 -58 39 -24 45 -23 59 8 20 43 21 44 35 33 25 -17 52 -3 52 26 0
11 -3 14 -19 22 -23 11 -23 18 -6 52 10 20 11 31 4 46 -14 31 -25 25 -51 -27
-8 -17 -12 -22 -18 -22 -6 0 -20 8 -25 15 -4 6 -6 7 -18 8 -27 3 -29 21 -6 52
12 16 21 43 16 50 -16 25 -37 16 -56 -23 -23 -47 -23 -48 -39 -32 -8 7 -19 13
-36 22 -14 6 -27 13 -28 15 -2 2 -7 6 -11 8 -14 8 -14 5 -11 94 3 89 2 92 -10
94 -3 1 -10 3 -15 5 -14 5 -18 5 -26 -3z"/>
</g>
</svg>
