<?xml version="1.0" standalone="no"?>
<!DOCTYPE svg PUBLIC "-//W3C//DTD SVG 20010904//EN"
 "http://www.w3.org/TR/2001/REC-SVG-20010904/DTD/svg10.dtd">
<svg version="1.0" xmlns="http://www.w3.org/2000/svg"
 width="64.000000pt" height="100.000000pt" viewBox="0 0 64.000000 100.000000"
 preserveAspectRatio="xMidYMid meet">
<metadata>
Created by potrace 1.16, written by Peter Selinger 2001-2019
</metadata>
<g transform="translate(0.000000,100.000000) scale(0.100000,-0.100000)"
fill="#000000" stroke="none">
<path d="M293 963 c-9 -3 -13 -29 -13 -83 0 -70 -2 -81 -22 -95 -22 -15 -24
-14 -46 11 -32 37 -55 26 -46 -22 5 -26 3 -39 -7 -45 -20 -13 -23 -12 -54 17
-24 22 -30 24 -42 11 -12 -11 -12 -19 -1 -42 11 -24 10 -29 -10 -45 -43 -35
-29 -48 48 -47 69 1 70 1 70 28 0 15 7 33 16 40 15 12 19 11 32 -9 21 -32 30
-27 34 15 2 27 8 39 22 41 17 4 18 -3 11 -135 -7 -137 -8 -139 -67 -298 -33
-88 -69 -177 -80 -198 -24 -48 -18 -69 19 -65 27 3 31 12 83 162 30 88 60 161
66 163 6 2 49 -70 94 -161 46 -91 90 -168 98 -171 18 -7 42 12 42 33 0 8 -10
29 -23 46 -13 17 -55 94 -94 172 l-72 140 -7 157 c-6 134 -5 157 8 157 24 0
38 -22 38 -62 0 -43 5 -46 35 -18 22 21 22 21 46 1 19 -16 22 -22 12 -32 -19
-19 -16 -56 4 -63 16 -7 43 16 43 36 0 4 13 8 29 8 38 0 47 15 27 45 -12 18
-14 30 -6 51 8 19 7 31 -2 41 -10 13 -16 11 -37 -15 -21 -25 -30 -29 -48 -21
-26 10 -29 35 -8 62 7 11 11 25 8 33 -9 23 -33 16 -51 -16 -20 -35 -27 -36
-69 -10 -33 19 -33 21 -33 95 0 61 -3 76 -17 83 -10 5 -24 7 -30 5z"/>
</g>
</svg>
