<?xml version="1.0" standalone="no"?>
<!DOCTYPE svg PUBLIC "-//W3C//DTD SVG 20010904//EN"
 "http://www.w3.org/TR/2001/REC-SVG-20010904/DTD/svg10.dtd">
<svg version="1.0" xmlns="http://www.w3.org/2000/svg"
 width="88.000000pt" height="148.000000pt" viewBox="0 0 88.000000 148.000000"
 preserveAspectRatio="xMidYMid meet">
<metadata>
Created by potrace 1.16, written by Peter Selinger 2001-2019
</metadata>
<g transform="translate(0.000000,148.000000) scale(0.100000,-0.100000)"
fill="#000000" stroke="none">
<path d="M310 1291 l0 -130 -27 -19 c-16 -11 -51 -33 -78 -48 -141 -81 -146
-85 -137 -126 7 -32 49 -19 140 42 48 33 94 60 101 60 8 0 11 -27 9 -102 l-3
-103 -113 -2 c-63 -1 -116 -3 -118 -6 -3 -3 -6 -40 -7 -83 -2 -75 -1 -79 20
-82 21 -3 23 0 23 47 l0 51 40 0 40 0 0 -50 c0 -43 3 -50 20 -50 17 0 20 7 20
50 0 45 3 50 25 56 49 12 58 0 52 -67 -3 -34 -14 -80 -26 -103 -27 -55 -101
-214 -140 -301 -17 -38 -40 -87 -51 -107 -11 -20 -20 -44 -20 -52 0 -8 -7 -22
-16 -30 -9 -10 -14 -28 -12 -47 l3 -32 96 -3 c81 -3 99 -1 111 14 25 27 30 58
13 72 -12 10 -19 7 -42 -19 -27 -31 -46 -37 -77 -25 -22 8 -21 17 15 93 53
114 101 220 122 271 8 19 23 53 32 75 16 39 17 39 32 20 8 -11 21 -33 29 -50
8 -16 29 -55 48 -85 19 -30 50 -79 68 -109 18 -29 43 -70 56 -90 12 -20 26
-45 31 -56 5 -12 16 -27 25 -34 9 -7 16 -21 16 -31 0 -10 6 -22 13 -28 10 -9
68 -16 103 -13 20 2 72 61 77 89 14 70 -28 99 -46 33 -9 -37 -32 -60 -58 -61
-8 0 -34 32 -60 76 -24 42 -54 93 -67 113 -12 20 -25 43 -29 51 -4 8 -21 33
-39 55 -18 22 -52 75 -76 118 -23 43 -49 88 -56 100 -7 13 -11 49 -10 92 l3
70 45 0 45 0 3 -42 c3 -38 6 -43 27 -43 21 0 24 5 27 43 3 37 6 42 28 42 22 0
25 -5 28 -42 3 -38 6 -43 28 -43 23 0 24 3 24 64 0 87 -6 91 -144 91 l-111 0
-3 108 c-2 98 4 127 23 97 11 -17 152 -128 172 -134 30 -9 53 3 53 28 0 17
-26 42 -105 100 -150 111 -146 105 -138 242 l6 114 -41 0 -42 0 0 -129z"/>
</g>
</svg>
