<?xml version="1.0" standalone="no"?>
<!DOCTYPE svg PUBLIC "-//W3C//DTD SVG 20010904//EN"
 "http://www.w3.org/TR/2001/REC-SVG-20010904/DTD/svg10.dtd">
<svg version="1.0" xmlns="http://www.w3.org/2000/svg"
 width="352.000000pt" height="590.000000pt" viewBox="0 0 352.000000 590.000000"
 preserveAspectRatio="xMidYMid meet">
<metadata>
Created by potrace 1.16, written by Peter Selinger 2001-2019
</metadata>
<g transform="translate(0.000000,590.000000) scale(0.500000,-0.500000)"
fill="#000000" stroke="none">
<path d="M259 1138 c-9 -4 -15 -25 -12 -47 1 -6 2 -21 2 -33 0 -12 1 -38 2
-58 2 -62 -5 -79 -42 -97 -7 -3 -15 -8 -18 -10 -3 -3 -10 -7 -15 -10 -5 -3
-10 -6 -12 -8 -1 -1 -7 -5 -14 -7 -6 -2 -13 -6 -16 -9 -4 -3 -10 -7 -15 -9 -5
-2 -14 -8 -19 -13 -6 -5 -13 -9 -16 -10 -15 -4 -30 -20 -30 -33 1 -40 27 -49
61 -21 6 5 16 10 21 12 7 3 16 8 24 16 9 8 18 14 28 18 10 4 18 9 26 16 36 33
40 27 40 -63 0 -94 17 -82 -113 -80 -83 1 -76 8 -76 -76 0 -66 -1 -64 16 -64
17 0 18 3 19 41 0 41 -1 39 33 39 32 0 30 2 30 -39 1 -36 2 -39 17 -39 16 0
17 3 18 41 0 40 -1 39 28 39 31 0 42 -78 16 -114 -8 -11 -24 -44 -24 -49 0 -8
-7 -23 -17 -38 -9 -14 -19 -39 -19 -47 0 -2 -4 -9 -9 -15 -7 -9 -21 -35 -21
-40 0 -1 -2 -6 -5 -12 -3 -5 -5 -11 -5 -13 0 -1 -3 -8 -7 -16 -4 -7 -8 -17 -9
-22 -2 -7 -5 -12 -12 -18 -10 -9 -10 -10 -12 -23 -1 -7 -4 -18 -6 -23 -3 -6
-6 -14 -7 -18 -1 -4 -4 -10 -7 -13 -7 -6 -11 -14 -15 -34 -4 -20 -7 -26 -16
-31 -17 -10 -17 -56 0 -59 20 -4 159 0 163 4 18 17 23 55 8 63 -11 6 -35 -5
-40 -20 -7 -18 -27 -26 -49 -17 -19 7 -22 14 -11 30 3 4 7 13 10 20 8 24 10
30 17 38 5 6 8 13 11 24 4 17 12 33 24 53 4 7 8 16 9 20 2 11 6 20 16 35 7 11
19 42 19 50 0 2 3 8 6 13 3 5 6 12 8 16 1 4 5 11 7 15 3 4 6 12 7 16 1 4 4 11
6 14 2 3 5 10 6 14 2 9 7 15 10 15 3 0 25 -33 31 -48 3 -6 7 -13 9 -15 1 -2 5
-7 8 -12 3 -5 9 -15 15 -23 5 -8 11 -20 14 -27 4 -8 10 -18 15 -24 6 -7 11
-15 14 -22 2 -7 8 -17 13 -24 5 -7 12 -18 16 -25 4 -7 11 -18 16 -24 5 -6 11
-16 13 -22 2 -6 10 -19 18 -30 9 -12 15 -22 17 -29 3 -9 5 -13 12 -18 7 -7 10
-10 14 -23 12 -36 15 -38 62 -38 46 0 50 2 76 32 33 37 33 103 1 95 -10 -2
-16 -11 -18 -26 -2 -21 -6 -28 -16 -33 -5 -3 -13 -7 -17 -10 -13 -8 -23 -8
-23 1 0 1 -3 5 -7 9 -5 4 -12 16 -18 30 -6 13 -14 26 -17 29 -3 3 -9 13 -13
21 -4 8 -10 18 -14 21 -4 3 -9 11 -11 16 -5 14 -15 30 -24 41 -5 5 -9 11 -9
14 -4 16 -12 30 -19 34 -4 3 -8 6 -9 7 -1 2 -6 9 -11 16 -17 22 -24 33 -24 38
0 3 -3 9 -8 14 -9 10 -17 22 -23 39 -3 7 -8 16 -11 20 -4 4 -9 12 -11 18 -2 6
-6 13 -12 18 -15 15 -19 41 -17 114 0 36 -1 35 39 34 40 -1 38 0 38 -31 -1
-36 4 -43 25 -40 13 2 14 6 14 35 0 33 1 35 24 34 23 -1 23 -2 23 -35 0 -33 2
-35 21 -37 31 -2 34 114 3 126 -8 3 -38 4 -50 2 -117 -20 -137 -9 -137 80 0
90 1 93 19 77 25 -22 41 -35 48 -39 5 -2 10 -7 12 -10 2 -4 10 -10 18 -15 8
-5 18 -13 24 -19 19 -20 56 -27 70 -13 9 9 7 34 -2 42 -4 3 -11 10 -17 14 -5
5 -13 11 -18 14 -4 3 -11 8 -16 12 -4 4 -11 8 -15 10 -4 2 -12 7 -17 12 -5 4
-19 15 -30 23 -67 49 -75 61 -73 108 4 87 4 139 -1 144 -4 5 -43 8 -53 4z"/>
</g>
</svg>
