<?xml version="1.0" standalone="no"?>
<!DOCTYPE svg PUBLIC "-//W3C//DTD SVG 20010904//EN"
 "http://www.w3.org/TR/2001/REC-SVG-20010904/DTD/svg10.dtd">
<svg version="1.0" xmlns="http://www.w3.org/2000/svg"
 width="59.000000pt" height="100.000000pt" viewBox="0 0 59.000000 100.000000"
 preserveAspectRatio="xMidYMid meet">
<metadata>
Created by potrace 1.16, written by Peter Selinger 2001-2019
</metadata>
<g transform="translate(0.000000,100.000000) scale(0.100000,-0.100000)"
fill="#000000" stroke="none">
<path d="M213 958 c-4 -7 -8 -49 -8 -93 l0 -79 -83 -51 c-64 -39 -82 -54 -80
-70 5 -33 34 -29 97 14 33 23 63 41 66 41 3 0 5 -30 3 -67 l-3 -68 -55 3 c-88
4 -97 -1 -103 -55 -3 -26 -3 -53 0 -60 10 -25 32 -13 39 22 8 44 41 50 46 8 4
-39 26 -40 36 -1 11 43 36 43 40 1 2 -22 -11 -63 -39 -125 -115 -255 -139
-311 -139 -323 0 -12 62 -25 121 -25 34 0 65 36 47 57 -14 17 -33 17 -48 -2
-13 -16 -50 -21 -50 -6 0 4 20 50 44 102 24 52 51 115 61 142 10 26 22 47 27
47 5 0 17 -14 26 -31 72 -132 175 -295 190 -300 50 -19 103 18 105 72 3 45
-24 50 -40 9 -17 -45 -38 -37 -74 28 -18 31 -65 107 -103 167 -65 101 -70 114
-71 165 0 52 1 55 25 55 20 0 26 -6 28 -28 4 -34 35 -34 40 1 4 26 32 30 32 5
0 -10 4 -24 9 -32 8 -13 12 -13 26 -1 12 10 15 23 11 48 -8 54 -22 63 -90 62
-34 -1 -67 -1 -73 -1 -9 1 -13 21 -13 66 0 36 3 65 6 65 3 0 30 -21 59 -46 37
-31 61 -45 77 -42 45 6 31 35 -45 92 -41 30 -79 61 -83 68 -5 7 -9 49 -9 93 0
74 -2 80 -22 83 -11 2 -25 -3 -30 -10z"/>
</g>
</svg>
