<?xml version="1.0" standalone="no"?>
<!DOCTYPE svg PUBLIC "-//W3C//DTD SVG 20010904//EN"
 "http://www.w3.org/TR/2001/REC-SVG-20010904/DTD/svg10.dtd">
<svg version="1.0" xmlns="http://www.w3.org/2000/svg"
 width="338.000000pt" height="590.000000pt" viewBox="0 0 338.000000 590.000000"
 preserveAspectRatio="xMidYMid meet">
<metadata>
Created by potrace 1.16, written by Peter Selinger 2001-2019
</metadata>
<g transform="translate(0.000000,590.000000) scale(0.500000,-0.500000)"
fill="#000000" stroke="none">
<path d="M284 1140 c-17 -3 -17 -4 -14 -89 2 -76 2 -77 -11 -85 -6 -3 -15 -9
-21 -14 -6 -5 -23 -17 -39 -27 -15 -10 -32 -22 -36 -25 -5 -3 -20 -13 -34 -22
-27 -16 -32 -20 -61 -40 -36 -25 -37 -35 -13 -61 11 -12 16 -12 39 4 11 7 24
15 30 18 6 3 15 9 20 14 20 18 56 45 74 56 6 4 16 12 23 17 34 27 32 42 30
-170 -1 -207 -1 -208 -21 -236 -4 -6 -33 -62 -45 -85 -4 -9 -9 -18 -11 -21 -2
-3 -16 -30 -32 -61 -15 -30 -30 -58 -32 -61 -2 -3 -13 -25 -26 -49 -12 -24
-26 -52 -32 -61 -44 -74 -46 -97 -6 -96 25 1 25 2 52 58 12 25 25 50 28 56 4
6 8 16 11 22 3 6 7 15 10 20 3 5 12 23 20 39 8 17 19 38 25 47 5 9 19 37 32
62 12 25 24 47 26 50 2 3 7 12 12 21 13 26 15 27 26 8 3 -4 8 -12 13 -17 5 -5
10 -14 13 -20 2 -6 11 -25 20 -43 25 -49 20 -57 -36 -73 -7 -2 -14 -5 -16 -7
-2 -2 -19 -11 -37 -20 -36 -18 -37 -18 -40 -33 -2 -9 8 -35 19 -52 6 -8 16
-25 23 -37 18 -33 9 -34 94 11 63 33 67 35 73 33 6 -3 15 -21 19 -39 4 -18 19
-50 32 -68 11 -16 15 -18 39 -18 35 0 35 9 2 70 -18 32 -38 73 -38 79 0 8 1 9
84 48 20 10 41 20 46 23 4 4 12 8 16 10 14 7 19 30 9 42 -15 19 -21 29 -25 35
-2 5 -6 10 -9 13 -2 3 -7 10 -10 16 -14 26 -8 27 -107 -23 -25 -12 -48 -23
-51 -23 -21 -2 -27 4 -41 37 -5 13 -14 33 -20 43 -5 10 -13 27 -17 36 -3 9
-11 26 -17 38 -17 36 -16 25 -17 217 -1 94 -2 174 -2 179 0 22 16 13 71 -41 7
-7 16 -14 19 -16 3 -2 12 -9 20 -16 87 -79 91 -80 112 -45 12 20 4 39 -23 52
-14 6 -33 21 -55 43 -15 15 -26 24 -34 29 -7 3 -18 11 -24 17 -7 5 -21 16 -30
24 -10 8 -21 17 -26 21 -4 4 -12 11 -18 15 -14 11 -16 17 -14 47 2 38 2 110 0
116 -2 7 -24 12 -41 8z m276 -818 c9 -9 -6 -36 -20 -36 -6 0 -18 -6 -26 -13
-24 -19 -51 -29 -58 -20 -17 22 -3 35 67 63 9 3 17 7 19 8 5 3 14 2 18 -2z
m-163 -70 c7 -4 8 -10 4 -24 -5 -17 -4 -16 -60 -42 -5 -2 -11 -4 -15 -4 -3 0
-10 -2 -14 -4 -20 -10 -36 9 -19 24 8 8 88 50 98 52 1 0 3 -1 6 -2z"/>
</g>
</svg>
