<?xml version="1.0" standalone="no"?>
<!DOCTYPE svg PUBLIC "-//W3C//DTD SVG 20010904//EN"
 "http://www.w3.org/TR/2001/REC-SVG-20010904/DTD/svg10.dtd">
<svg version="1.0" xmlns="http://www.w3.org/2000/svg"
 width="57.000000pt" height="100.000000pt" viewBox="0 0 57.000000 100.000000"
 preserveAspectRatio="xMidYMid meet">
<metadata>
Created by potrace 1.16, written by Peter Selinger 2001-2019
</metadata>
<g transform="translate(0.000000,100.000000) scale(0.100000,-0.100000)"
fill="#000000" stroke="none">
<path d="M227 964 c-4 -4 -7 -38 -7 -76 l0 -68 -95 -62 c-75 -49 -95 -67 -93
-83 5 -35 37 -29 100 20 33 25 66 49 73 52 23 8 28 -40 22 -184 l-7 -133 -90
-168 c-97 -179 -109 -207 -92 -224 22 -22 43 6 120 159 45 90 85 158 93 158
16 0 49 -61 49 -90 0 -14 -13 -25 -44 -38 -61 -25 -71 -39 -57 -79 6 -17 19
-40 28 -50 16 -17 18 -17 69 12 30 16 58 30 63 30 6 0 15 -18 21 -40 12 -45
33 -70 60 -70 32 0 33 19 1 75 -17 30 -31 57 -31 59 0 3 29 19 65 36 69 33 74
43 51 89 -27 52 -39 55 -95 27 -28 -14 -57 -26 -66 -26 -8 0 -29 29 -49 67
-33 67 -33 70 -38 231 -3 94 -1 162 5 162 5 0 39 -27 76 -60 69 -61 94 -72
105 -44 11 29 20 21 -183 171 -3 2 -5 36 -5 76 -1 65 -3 72 -21 75 -12 2 -24
0 -28 -4z"/>
</g>
</svg>
