<?xml version="1.0" standalone="no"?>
<!DOCTYPE svg PUBLIC "-//W3C//DTD SVG 20010904//EN"
 "http://www.w3.org/TR/2001/REC-SVG-20010904/DTD/svg10.dtd">
<svg version="1.0" xmlns="http://www.w3.org/2000/svg"
 width="84.000000pt" height="148.000000pt" viewBox="0 0 84.000000 148.000000"
 preserveAspectRatio="xMidYMid meet">
<metadata>
Created by potrace 1.16, written by Peter Selinger 2001-2019
</metadata>
<g transform="translate(0.000000,148.000000) scale(0.100000,-0.100000)"
fill="#000000" stroke="none">
<path d="M332 1319 l3 -102 -98 -68 c-54 -38 -100 -69 -103 -69 -3 0 -23 -14
-45 -32 -41 -33 -49 -57 -24 -78 18 -15 50 4 172 97 44 35 86 63 91 63 7 0 9
-84 5 -247 l-5 -248 -68 -130 c-37 -71 -96 -184 -131 -250 -34 -66 -69 -133
-77 -148 -19 -37 -9 -59 25 -55 24 3 39 27 157 260 l130 257 20 -32 c25 -41
76 -146 76 -158 0 -5 -40 -28 -90 -51 -76 -35 -90 -44 -90 -65 0 -32 58 -133
77 -133 8 0 50 20 93 44 43 24 83 40 89 37 6 -4 18 -30 26 -58 19 -65 49 -103
81 -103 39 0 38 21 -6 102 -22 42 -40 82 -39 89 0 8 45 35 100 61 62 30 99 53
99 63 0 12 -34 71 -77 134 -2 2 -44 -17 -94 -43 -49 -26 -97 -45 -104 -42 -8
3 -21 20 -29 38 -7 18 -31 69 -52 113 l-39 80 -5 235 c-3 129 -2 239 2 244 4
5 59 -37 122 -93 63 -55 118 -101 122 -101 11 0 33 34 34 52 0 10 -18 29 -39
42 -22 14 -42 30 -46 36 -3 5 -49 44 -101 85 l-94 75 0 100 0 100 -36 0 -36 0
4 -101z m366 -931 c-2 -15 -22 -32 -66 -56 -64 -34 -82 -35 -82 -1 0 15 17 28
63 49 75 36 89 37 85 8z m-198 -96 c0 -24 -7 -32 -47 -50 -65 -30 -98 -33 -98
-8 0 13 19 30 60 52 74 41 85 42 85 6z"/>
</g>
</svg>
