<?xml version="1.0" standalone="no"?>
<!DOCTYPE svg PUBLIC "-//W3C//DTD SVG 20010904//EN"
 "http://www.w3.org/TR/2001/REC-SVG-20010904/DTD/svg10.dtd">
<svg version="1.0" xmlns="http://www.w3.org/2000/svg"
 width="360.000000pt" height="590.000000pt" viewBox="0 0 360.000000 590.000000"
 preserveAspectRatio="xMidYMid meet">
<metadata>
Created by potrace 1.16, written by Peter Selinger 2001-2019
</metadata>
<g transform="translate(0.000000,590.000000) scale(0.500000,-0.500000)"
fill="#000000" stroke="none">
<path d="M338 1140 c-14 -3 -13 0 -12 -86 0 -86 0 -87 -17 -109 -3 -4 -10 -15
-14 -24 -4 -9 -9 -18 -12 -21 -3 -3 -11 -18 -19 -33 -8 -15 -17 -31 -20 -34
-3 -3 -12 -18 -19 -32 -7 -14 -16 -29 -19 -32 -3 -3 -10 -14 -15 -24 -5 -10
-11 -20 -14 -23 -2 -3 -11 -17 -18 -32 -7 -15 -16 -30 -20 -34 -6 -6 -8 -10
-21 -35 -9 -19 -5 -26 22 -37 19 -8 21 -7 33 16 5 10 11 21 14 24 3 4 10 18
17 32 7 14 15 29 19 33 4 5 10 15 14 24 4 9 11 20 14 24 5 7 27 49 27 52 0 1
2 5 6 9 3 3 12 20 20 36 26 51 27 48 25 -95 l-1 -108 -14 -28 c-8 -15 -14 -30
-14 -32 0 -3 -4 -13 -9 -23 -5 -10 -9 -20 -9 -23 0 -2 -6 -16 -14 -32 -8 -15
-14 -31 -15 -34 -1 -4 -5 -15 -10 -25 -5 -9 -9 -19 -9 -22 0 -3 -6 -18 -14
-33 -8 -16 -14 -31 -14 -34 0 -6 -15 -38 -20 -43 -4 -4 -11 -2 -58 17 -25 10
-28 11 -45 7 -16 -3 -24 -11 -26 -25 -1 -5 -2 -12 -4 -14 -1 -2 -3 -9 -5 -14
-1 -6 -3 -13 -5 -16 -4 -8 -4 -51 0 -59 2 -6 23 -15 53 -24 34 -11 35 -12 25
-33 -3 -8 -8 -18 -10 -24 -2 -5 -5 -13 -6 -17 -6 -16 -2 -40 7 -43 28 -7 46
11 55 54 7 33 11 34 52 19 29 -11 44 -12 61 -6 8 3 43 78 44 95 1 19 -22 41
-43 41 -2 0 -7 2 -13 4 -5 2 -13 5 -17 6 -17 4 -18 13 -5 35 2 3 4 8 4 11 0 2
6 16 13 29 7 14 14 29 15 34 2 6 6 17 10 26 4 9 9 19 9 23 1 4 7 19 14 34 7
14 13 28 13 31 0 2 5 13 10 25 6 12 10 23 10 26 0 6 11 24 15 24 6 0 35 -53
35 -64 0 -2 2 -10 5 -16 15 -32 21 -45 22 -51 1 -4 5 -15 9 -23 5 -8 9 -18 9
-22 1 -4 8 -19 15 -34 8 -15 14 -30 15 -33 1 -3 4 -11 7 -18 7 -14 7 -18 2
-21 -3 -2 -9 -7 -15 -12 -10 -10 -21 -16 -29 -16 -2 0 -6 -3 -9 -7 -6 -7 -23
-19 -27 -19 -11 0 -16 -27 -9 -41 2 -3 4 -10 5 -16 4 -18 47 -59 62 -59 2 0 7
1 10 3 4 1 12 3 17 4 6 1 17 5 28 11 22 12 27 13 31 8 5 -5 10 -15 10 -21 0
-3 1 -8 3 -13 2 -4 4 -11 5 -16 6 -33 26 -50 51 -45 16 3 21 30 10 51 -3 6 -5
12 -5 14 0 3 -2 8 -20 40 -12 24 -13 23 13 35 60 29 60 29 60 52 0 12 -1 16
-9 30 -4 10 -8 19 -8 22 0 5 -4 10 -19 21 -5 5 -7 8 -8 14 -4 23 -29 26 -66 6
-24 -13 -29 -14 -33 -8 -5 5 -14 27 -14 32 0 3 -6 17 -13 32 -7 15 -14 30 -14
34 -1 4 -6 15 -10 24 -5 10 -9 20 -9 22 0 3 -5 14 -10 25 -6 11 -10 22 -10 25
0 2 -2 7 -4 11 -2 3 -4 10 -5 14 -1 4 -3 11 -5 15 -2 5 -4 9 -4 11 0 2 -4 14
-10 26 -5 12 -10 24 -10 26 0 2 -2 6 -4 11 -2 4 -4 13 -4 23 -1 12 -2 18 -5
22 -4 5 -4 11 -5 56 -1 47 -1 50 -6 58 -4 9 -6 80 -2 92 4 10 15 5 23 -11 2
-4 6 -10 8 -13 3 -3 7 -10 10 -16 3 -5 9 -14 14 -19 5 -5 11 -13 13 -18 2 -5
7 -11 9 -14 3 -3 6 -9 8 -13 2 -4 8 -13 14 -19 6 -6 12 -15 15 -19 2 -4 6 -12
10 -16 3 -4 8 -11 9 -15 2 -3 7 -11 13 -18 5 -6 12 -15 14 -21 9 -18 24 -23
46 -13 23 9 26 20 12 36 -4 5 -9 12 -11 16 -2 4 -9 12 -15 19 -6 7 -13 16 -16
20 -2 4 -6 10 -8 12 -2 2 -7 8 -9 13 -3 5 -8 13 -13 17 -5 4 -11 12 -13 18 -3
5 -8 12 -12 17 -3 4 -8 11 -11 15 -2 4 -8 12 -13 17 -5 5 -11 13 -14 18 -2 5
-7 11 -9 13 -2 2 -7 8 -9 13 -3 5 -9 14 -15 21 -6 7 -13 15 -14 19 -2 4 -9 14
-17 22 -20 20 -19 15 -18 96 1 71 1 71 -4 76 -5 5 -28 7 -41 4z m261 -871 c16
-15 12 -24 -14 -38 -19 -9 -26 -6 -30 16 -4 16 -3 17 14 25 16 8 20 8 30 -3z
m-471 -4 c26 -6 34 -13 34 -29 0 -24 -13 -34 -36 -26 -6 2 -16 6 -22 8 -42 15
-20 58 24 47z m116 -40 c28 -12 30 -13 23 -28 -11 -24 -28 -29 -57 -15 -17 7
-17 9 -8 29 11 24 14 25 42 14z m269 2 c18 -27 -41 -67 -62 -43 -8 9 -8 11 4
22 20 19 52 30 58 21z"/>
</g>
</svg>
