<?xml version="1.0" standalone="no"?>
<!DOCTYPE svg PUBLIC "-//W3C//DTD SVG 20010904//EN"
 "http://www.w3.org/TR/2001/REC-SVG-20010904/DTD/svg10.dtd">
<svg version="1.0" xmlns="http://www.w3.org/2000/svg"
 width="61.000000pt" height="100.000000pt" viewBox="0 0 61.000000 100.000000"
 preserveAspectRatio="xMidYMid meet">
<metadata>
Created by potrace 1.16, written by Peter Selinger 2001-2019
</metadata>
<g transform="translate(0.000000,100.000000) scale(0.100000,-0.100000)"
fill="#000000" stroke="none">
<path d="M277 964 c-4 -4 -7 -40 -7 -79 l0 -71 -86 -140 c-48 -76 -89 -146
-91 -156 -3 -9 3 -21 15 -27 26 -14 37 -1 102 122 28 53 56 97 62 97 7 0 9
-31 4 -93 -6 -82 -14 -109 -60 -220 -29 -70 -56 -131 -60 -134 -3 -3 -24 0
-46 7 -51 17 -67 4 -76 -62 l-6 -46 37 -12 c31 -10 36 -15 30 -34 -14 -44 -11
-71 9 -71 19 0 29 13 40 48 5 15 13 17 50 12 42 -7 45 -6 61 25 23 44 16 83
-15 90 -34 8 -31 33 15 145 44 107 51 116 64 84 5 -13 27 -64 47 -113 l37 -89
-24 -18 c-52 -39 -60 -50 -53 -72 13 -45 35 -58 87 -55 48 3 49 2 61 -32 12
-38 42 -52 53 -24 6 15 2 29 -21 85 -5 12 3 22 28 37 42 25 44 37 13 83 -20
30 -28 34 -66 34 l-43 0 -34 85 c-19 47 -43 112 -53 145 -23 73 -38 225 -23
225 6 0 39 -43 73 -96 55 -84 65 -95 88 -92 17 2 26 9 25 20 -1 9 -42 69 -92
135 l-91 118 -3 70 c-3 62 -5 70 -23 73 -12 2 -24 0 -28 -4z"/>
</g>
</svg>
