<?xml version="1.0" standalone="no"?>
<!DOCTYPE svg PUBLIC "-//W3C//DTD SVG 20010904//EN"
 "http://www.w3.org/TR/2001/REC-SVG-20010904/DTD/svg10.dtd">
<svg version="1.0" xmlns="http://www.w3.org/2000/svg"
 width="90.000000pt" height="148.000000pt" viewBox="0 0 90.000000 148.000000"
 preserveAspectRatio="xMidYMid meet">
<metadata>
Created by potrace 1.16, written by Peter Selinger 2001-2019
</metadata>
<g transform="translate(0.000000,148.000000) scale(0.100000,-0.100000)"
fill="#000000" stroke="none">
<path d="M414 1418 c-4 -7 -7 -54 -5 -105 3 -90 1 -95 -30 -146 -17 -28 -40
-65 -49 -82 -9 -16 -45 -76 -79 -133 -33 -56 -61 -105 -61 -109 0 -4 -9 -16
-19 -27 -11 -12 -23 -33 -26 -48 -6 -23 -3 -29 16 -37 18 -6 29 -5 42 7 9 8
17 18 17 22 0 4 33 66 73 137 39 71 79 143 87 159 9 16 20 29 25 29 5 0 8 -62
6 -145 l-2 -145 -61 -145 c-33 -80 -66 -158 -73 -175 -7 -16 -21 -49 -30 -71
l-17 -42 -53 24 c-70 32 -97 23 -114 -38 -7 -24 -11 -59 -9 -78 3 -30 8 -35
53 -50 54 -19 55 -21 30 -88 -17 -49 -14 -62 19 -62 22 0 46 33 46 64 0 6 6
20 13 30 11 16 15 16 49 1 67 -27 83 -22 113 39 37 75 32 97 -27 116 -26 8
-50 18 -54 22 -3 4 2 27 13 50 12 24 31 68 43 98 12 30 33 81 46 113 13 32 24
64 24 71 0 7 6 21 14 31 13 18 15 17 34 -25 11 -25 35 -81 52 -125 18 -44 45
-106 60 -138 l28 -57 -65 -43 c-62 -40 -64 -43 -59 -76 5 -34 59 -101 81 -101
7 0 33 11 58 24 52 26 60 22 72 -34 10 -52 33 -82 58 -78 32 4 33 39 3 99 -14
28 -26 56 -26 62 0 7 20 20 44 30 67 27 72 38 46 92 -12 25 -25 45 -30 45 -4
0 -11 11 -14 25 -8 30 -29 32 -78 5 -28 -14 -38 -16 -45 -7 -8 11 -61 142
-138 342 -22 56 -29 99 -38 213 -12 169 -5 188 41 115 67 -105 174 -258 183
-261 5 -2 21 4 35 13 l25 16 -21 27 c-11 15 -56 77 -99 138 -44 62 -101 138
-126 169 l-47 57 7 88 c7 82 6 89 -13 99 -27 14 -39 14 -48 -1z m340 -1091 c9
-15 6 -21 -14 -37 -33 -26 -39 -25 -51 7 -8 23 -7 30 8 40 22 17 43 13 57 -10z
m-585 2 c25 -9 31 -16 31 -40 0 -38 -22 -46 -66 -26 -45 22 -44 63 2 77 1 0
15 -5 33 -11z m159 -62 c30 -23 -8 -62 -52 -53 -40 8 -47 23 -28 56 14 25 19
27 42 17 14 -6 31 -15 38 -20z m322 -2 c0 -20 -51 -56 -74 -53 -33 5 -26 39
13 65 35 24 61 18 61 -12z"/>
</g>
</svg>
