<?xml version="1.0" standalone="no"?>
<!DOCTYPE svg PUBLIC "-//W3C//DTD SVG 20010904//EN"
 "http://www.w3.org/TR/2001/REC-SVG-20010904/DTD/svg10.dtd">
<svg version="1.0" xmlns="http://www.w3.org/2000/svg"
 width="84.000000pt" height="148.000000pt" viewBox="0 0 84.000000 148.000000"
 preserveAspectRatio="xMidYMid meet">
<metadata>
Created by potrace 1.16, written by Peter Selinger 2001-2019
</metadata>
<g transform="translate(0.000000,148.000000) scale(0.100000,-0.100000)"
fill="#000000" stroke="none">
<path d="M430 1420 c-12 -7 -14 -28 -12 -104 l4 -94 -97 -79 c-53 -43 -119
-95 -146 -116 -27 -21 -49 -40 -49 -43 0 -11 33 -54 42 -54 9 0 65 49 206 178
14 12 29 22 33 22 5 0 6 -111 2 -247 l-6 -248 -51 -107 c-28 -59 -56 -110 -64
-113 -8 -3 -54 16 -103 41 -50 26 -91 45 -92 43 -1 -2 -12 -18 -25 -36 -15
-23 -22 -47 -22 -81 l0 -50 85 -40 c47 -23 85 -45 85 -50 0 -5 -20 -47 -45
-94 -24 -47 -42 -88 -38 -91 3 -4 19 -7 34 -7 34 0 60 34 84 108 10 29 21 54
25 57 4 3 48 -18 96 -45 l89 -49 17 22 c10 12 18 26 18 30 0 4 9 21 21 36 37
50 24 71 -71 117 -46 23 -86 46 -87 51 -3 8 22 64 72 163 5 11 14 19 19 17 10
-3 235 -446 236 -463 0 -20 38 -46 62 -42 33 5 33 29 -2 88 -17 29 -54 98 -82
154 -28 55 -81 155 -117 221 l-66 120 -3 248 c-2 174 0 247 8 247 6 0 39 -22
73 -48 87 -68 165 -122 176 -122 5 0 16 11 25 24 19 29 25 24 -159 150 l-120
82 0 94 c0 116 -11 138 -55 110z m-222 -1040 c62 -29 75 -47 47 -70 -12 -10
-22 -7 -52 12 -21 12 -47 28 -58 33 -23 12 -33 55 -13 55 7 0 41 -13 76 -30z
m197 -94 c100 -56 67 -98 -36 -45 -40 20 -64 52 -54 69 10 16 26 11 90 -24z"/>
</g>
</svg>
