<?xml version="1.0" standalone="no"?>
<!DOCTYPE svg PUBLIC "-//W3C//DTD SVG 20010904//EN"
 "http://www.w3.org/TR/2001/REC-SVG-20010904/DTD/svg10.dtd">
<svg version="1.0" xmlns="http://www.w3.org/2000/svg"
 width="57.000000pt" height="100.000000pt" viewBox="0 0 57.000000 100.000000"
 preserveAspectRatio="xMidYMid meet">
<metadata>
Created by potrace 1.16, written by Peter Selinger 2001-2019
</metadata>
<g transform="translate(0.000000,100.000000) scale(0.100000,-0.100000)"
fill="#000000" stroke="none">
<path d="M287 963 c-4 -3 -7 -36 -7 -73 l0 -67 -96 -73 c-74 -56 -94 -77 -92
-94 6 -39 37 -29 107 33 38 34 71 61 75 61 3 0 6 -69 6 -152 -1 -151 -1 -154
-34 -228 -19 -43 -40 -76 -50 -78 -9 -2 -40 8 -70 22 -30 14 -57 26 -60 26
-13 0 -37 -63 -34 -88 2 -22 14 -32 56 -51 60 -29 64 -42 26 -102 -28 -45 -26
-69 6 -69 22 0 60 52 60 83 0 30 26 29 77 -2 28 -17 53 -31 57 -31 13 0 46 66
46 93 0 24 -7 31 -56 53 -61 27 -63 34 -22 102 27 44 30 41 118 -133 39 -77
77 -146 85 -154 16 -16 45 -8 45 13 0 8 -44 94 -97 193 l-97 178 -4 163 c-3
130 -1 162 10 162 7 0 38 -20 68 -45 75 -62 120 -71 120 -26 0 12 -29 36 -84
71 -114 71 -120 78 -113 140 3 28 4 57 0 65 -5 15 -34 20 -46 8z"/>
</g>
</svg>
