<?xml version="1.0" standalone="no"?>
<!DOCTYPE svg PUBLIC "-//W3C//DTD SVG 20010904//EN"
 "http://www.w3.org/TR/2001/REC-SVG-20010904/DTD/svg10.dtd">
<svg version="1.0" xmlns="http://www.w3.org/2000/svg"
 width="338.000000pt" height="590.000000pt" viewBox="0 0 338.000000 590.000000"
 preserveAspectRatio="xMidYMid meet">
<metadata>
Created by potrace 1.16, written by Peter Selinger 2001-2019
</metadata>
<g transform="translate(0.000000,590.000000) scale(0.500000,-0.500000)"
fill="#000000" stroke="none">
<path d="M352 1140 c-14 -3 -13 0 -12 -81 0 -81 1 -79 -13 -90 -5 -3 -14 -11
-21 -17 -7 -5 -18 -15 -25 -20 -7 -5 -19 -15 -27 -22 -8 -7 -21 -16 -28 -20
-9 -5 -20 -14 -32 -28 -19 -20 -34 -32 -52 -41 -34 -17 -40 -38 -19 -63 15
-17 26 -16 51 8 9 7 22 19 31 26 9 7 21 18 28 24 7 6 15 13 20 16 4 2 9 7 12
11 3 4 11 12 18 17 6 6 19 16 28 24 27 24 29 22 27 -34 -1 -23 -2 -104 -3
-180 -1 -158 1 -145 -19 -186 -6 -14 -12 -27 -13 -30 -1 -3 -8 -19 -17 -36 -8
-17 -19 -39 -23 -50 -12 -28 -18 -34 -38 -32 -3 0 -34 15 -70 32 -35 18 -67
32 -70 32 -4 0 -17 -12 -17 -16 0 -1 -4 -7 -10 -15 -16 -22 -18 -31 -18 -67 1
-37 -6 -31 70 -67 77 -37 74 -34 60 -60 -4 -8 -9 -17 -10 -21 -2 -4 -10 -20
-19 -37 -36 -66 -31 -83 21 -69 15 4 46 56 50 84 7 44 15 46 73 16 109 -56 96
-54 113 -23 6 11 16 28 22 37 32 48 28 64 -20 87 -17 8 -33 17 -35 19 -3 2
-12 6 -20 8 -15 5 -39 16 -45 21 -7 6 -7 14 1 29 31 67 41 86 46 89 3 2 7 7
10 13 9 19 14 18 24 -2 4 -8 11 -20 15 -27 4 -7 18 -33 30 -57 12 -25 26 -51
30 -58 4 -7 14 -26 22 -42 7 -16 16 -34 20 -40 7 -14 18 -36 32 -64 45 -93 44
-92 71 -92 38 0 35 29 -8 97 -4 5 -16 29 -28 52 -11 24 -25 49 -29 56 -4 7
-19 35 -32 61 -13 27 -28 54 -32 61 -4 7 -9 16 -11 21 -2 5 -6 12 -8 16 -3 4
-11 19 -18 34 -7 14 -16 31 -20 37 -21 32 -20 29 -21 237 -1 209 -4 194 29
169 8 -6 20 -15 27 -19 17 -11 44 -32 61 -47 8 -7 22 -17 31 -23 10 -5 24 -14
32 -20 20 -13 26 -13 36 -2 17 17 21 32 12 42 -4 6 -53 41 -64 47 -11 5 -118
77 -130 87 -6 4 -14 10 -18 12 -17 9 -16 5 -15 91 2 76 2 76 -3 80 -6 6 -28 8
-40 5z m-222 -819 c5 -2 13 -6 17 -7 41 -13 70 -32 68 -45 -2 -26 -24 -25 -62
3 -7 5 -17 11 -23 13 -13 4 -14 4 -22 14 -15 19 -1 34 22 22z m185 -86 c63
-32 64 -32 64 -45 0 -15 -10 -19 -25 -12 -5 2 -12 4 -15 4 -5 0 -50 19 -62 26
-13 8 -19 38 -9 43 7 4 8 3 47 -16z"/>
</g>
</svg>
