<?xml version="1.0" standalone="no"?>
<!DOCTYPE svg PUBLIC "-//W3C//DTD SVG 20010904//EN"
 "http://www.w3.org/TR/2001/REC-SVG-20010904/DTD/svg10.dtd">
<svg version="1.0" xmlns="http://www.w3.org/2000/svg"
 width="86.000000pt" height="148.000000pt" viewBox="0 0 86.000000 148.000000"
 preserveAspectRatio="xMidYMid meet">
<metadata>
Created by potrace 1.16, written by Peter Selinger 2001-2019
</metadata>
<g transform="translate(0.000000,148.000000) scale(0.100000,-0.100000)"
fill="#000000" stroke="none">
<path d="M385 1411 c-3 -6 -5 -49 -4 -96 1 -61 -2 -91 -13 -107 -29 -44 -100
-118 -112 -118 -7 0 -41 43 -75 95 -34 53 -68 98 -76 101 -18 7 -55 -13 -55
-31 0 -8 8 -23 18 -33 31 -33 82 -101 82 -110 0 -5 7 -16 16 -23 33 -27 36
-59 11 -98 -24 -37 -47 -84 -67 -136 -12 -31 -16 -210 -6 -243 9 -27 57 -51
91 -45 39 7 144 82 179 127 15 20 32 34 37 31 26 -16 6 -81 -70 -233 -101
-201 -151 -307 -151 -319 0 -6 -9 -18 -20 -28 -25 -23 -25 -37 1 -61 34 -31
50 -14 105 111 58 131 98 223 123 284 15 36 32 66 37 68 5 1 24 -37 43 -85 19
-48 44 -109 56 -137 29 -64 91 -215 99 -237 3 -10 12 -18 20 -18 50 0 59 33
26 97 -19 37 -58 123 -87 193 -8 19 -22 53 -32 75 -10 22 -29 64 -41 93 -13
29 -30 58 -37 64 -16 13 -18 78 -2 78 6 0 31 -18 56 -40 25 -22 56 -40 69 -40
12 0 26 -4 29 -10 10 -17 65 -11 94 10 25 17 29 27 34 98 6 75 4 84 -27 159
-53 125 -92 182 -193 279 l-95 91 3 99 4 99 -32 3 c-17 2 -34 -2 -38 -7z m98
-304 c45 -41 67 -70 67 -85 0 -22 -105 -172 -120 -172 -4 0 -24 24 -44 53 -20
28 -48 67 -61 86 -33 45 -32 60 11 100 19 19 42 45 51 58 8 12 18 23 22 23 4
0 37 -28 74 -63z m-216 -144 c10 -10 33 -39 50 -64 17 -25 38 -51 47 -58 9 -8
16 -26 16 -41 0 -51 -162 -180 -205 -164 -14 6 -16 21 -13 108 3 88 8 110 35
169 18 37 36 67 41 67 5 0 18 -8 29 -17z m391 -76 c17 -35 36 -92 41 -128 22
-130 12 -143 -81 -108 -45 17 -67 33 -103 76 -25 31 -45 59 -45 64 0 5 26 43
57 84 73 96 88 98 131 12z"/>
</g>
</svg>
