<?xml version="1.0" standalone="no"?>
<!DOCTYPE svg PUBLIC "-//W3C//DTD SVG 20010904//EN"
 "http://www.w3.org/TR/2001/REC-SVG-20010904/DTD/svg10.dtd">
<svg version="1.0" xmlns="http://www.w3.org/2000/svg"
 width="58.000000pt" height="100.000000pt" viewBox="0 0 58.000000 100.000000"
 preserveAspectRatio="xMidYMid meet">
<metadata>
Created by potrace 1.16, written by Peter Selinger 2001-2019
</metadata>
<g transform="translate(0.000000,100.000000) scale(0.100000,-0.100000)"
fill="#000000" stroke="none">
<path d="M261 956 c-7 -8 -11 -38 -10 -70 2 -49 -1 -61 -28 -94 -17 -20 -37
-38 -45 -40 -9 -2 -32 23 -57 63 -43 65 -57 75 -79 53 -18 -18 -16 -21 40 -94
l51 -68 -36 -67 c-33 -59 -37 -75 -37 -135 0 -38 6 -80 13 -94 25 -49 93 -33
161 39 17 17 33 31 38 31 21 0 1 -54 -84 -225 -84 -167 -91 -186 -77 -200 8
-9 23 -13 32 -10 9 4 44 73 80 158 36 84 68 152 73 152 5 0 17 -22 27 -50 37
-103 99 -244 112 -255 15 -12 45 -3 45 15 0 15 -75 186 -125 285 -50 99 -45
111 23 65 40 -27 109 -34 130 -13 7 7 12 39 12 73 0 88 -49 185 -140 279 l-69
71 -3 70 c-2 54 -7 70 -19 73 -9 1 -21 -4 -28 -12z m69 -220 l43 -45 -34 -50
c-19 -28 -39 -51 -44 -51 -12 0 -85 94 -85 109 0 12 59 81 69 81 4 0 26 -20
51 -44z m-116 -130 c20 -24 36 -53 36 -63 0 -35 -96 -111 -126 -99 -24 9 -15
94 18 179 15 38 30 34 72 -17z m241 -49 c8 -28 15 -66 15 -84 0 -27 -4 -33
-21 -33 -25 0 -56 16 -87 44 -45 40 -45 50 -1 106 39 50 41 51 60 34 11 -9 26
-40 34 -67z"/>
</g>
</svg>
