<?xml version="1.0" standalone="no"?>
<!DOCTYPE svg PUBLIC "-//W3C//DTD SVG 20010904//EN"
 "http://www.w3.org/TR/2001/REC-SVG-20010904/DTD/svg10.dtd">
<svg version="1.0" xmlns="http://www.w3.org/2000/svg"
 width="108.000000pt" height="148.000000pt" viewBox="0 0 108.000000 148.000000"
 preserveAspectRatio="xMidYMid meet">
<metadata>
Created by potrace 1.16, written by Peter Selinger 2001-2019
</metadata>
<g transform="translate(0.000000,148.000000) scale(0.100000,-0.100000)"
fill="#000000" stroke="none">
<path d="M242 1388 c-7 -7 -12 -19 -12 -28 0 -21 106 -172 193 -274 l38 -44
-45 -91 c-52 -102 -57 -147 -26 -198 19 -31 34 -39 90 -45 42 -5 38 -52 -13
-154 -25 -49 -66 -134 -92 -189 -114 -242 -105 -218 -88 -237 9 -10 22 -18 29
-18 11 0 124 214 124 233 0 3 18 43 39 90 22 46 43 96 47 111 12 50 28 42 57
-29 9 -22 32 -78 53 -125 20 -47 46 -110 59 -140 49 -122 59 -140 82 -140 34
0 43 27 22 69 -33 65 -79 171 -79 181 0 5 -7 26 -16 47 -26 59 -41 94 -60 143
-10 25 -23 50 -29 55 -20 18 -35 53 -35 84 l0 31 58 0 c53 0 61 3 90 33 27 27
32 41 32 80 0 55 -32 147 -60 172 -11 10 -20 24 -20 32 0 8 -23 37 -51 64
l-51 50 10 72 c6 40 14 87 18 105 5 24 2 38 -11 52 -27 29 -57 24 -95 -15
l-34 -35 17 -57 c10 -32 23 -75 29 -95 12 -41 6 -68 -16 -68 -8 0 -58 65 -112
145 -95 142 -115 160 -142 133z m397 -397 c32 -51 61 -129 61 -168 0 -26 -49
-56 -83 -51 -21 3 -22 8 -25 136 -1 72 1 132 6 132 5 0 23 -22 41 -49z m-118
-8 c6 -55 2 -189 -7 -201 -14 -20 -52 -7 -66 23 -8 19 -4 38 23 104 29 71 47
98 50 74z"/>
<path d="M175 1081 c-56 -34 -75 -70 -94 -171 -26 -136 -41 -543 -21 -555 6
-3 10 -31 10 -61 0 -30 6 -67 14 -82 8 -15 18 -46 22 -67 11 -62 51 -115 85
-115 26 0 29 4 29 30 0 17 -4 38 -9 48 -61 116 -76 226 -68 523 7 261 17 332
53 363 13 12 33 29 44 39 24 21 25 31 4 51 -20 21 -32 20 -69 -3z"/>
<path d="M822 1088 c-19 -19 -14 -40 17 -73 18 -19 38 -61 55 -113 26 -82 26
-87 26 -386 0 -329 -5 -368 -54 -427 -30 -35 -30 -49 0 -59 38 -15 59 5 95 91
l35 84 -7 340 c-6 309 -8 346 -27 402 -28 83 -47 119 -74 137 -27 19 -50 20
-66 4z"/>
</g>
</svg>
