<?xml version="1.0" standalone="no"?>
<!DOCTYPE svg PUBLIC "-//W3C//DTD SVG 20010904//EN"
 "http://www.w3.org/TR/2001/REC-SVG-20010904/DTD/svg10.dtd">
<svg version="1.0" xmlns="http://www.w3.org/2000/svg"
 width="430.000000pt" height="590.000000pt" viewBox="0 0 430.000000 590.000000"
 preserveAspectRatio="xMidYMid meet">
<metadata>
Created by potrace 1.16, written by Peter Selinger 2001-2019
</metadata>
<g transform="translate(0.000000,590.000000) scale(0.500000,-0.500000)"
fill="#000000" stroke="none">
<path d="M205 1116 c-19 -12 -21 -19 -14 -54 1 -2 4 -7 8 -12 3 -4 8 -11 11
-15 2 -4 6 -10 9 -13 3 -3 7 -9 9 -13 3 -4 9 -12 14 -18 5 -5 12 -14 15 -19 4
-5 9 -13 12 -16 5 -7 10 -13 28 -40 4 -7 15 -19 24 -27 8 -7 18 -18 21 -24 4
-5 11 -14 15 -19 11 -12 11 -10 -2 -36 -6 -11 -13 -28 -17 -36 -3 -8 -13 -29
-22 -47 -42 -84 -16 -151 61 -161 27 -4 27 -4 30 -12 5 -10 3 -32 -4 -46 -23
-52 -31 -67 -35 -72 -3 -3 -7 -9 -8 -13 -1 -5 -8 -18 -14 -30 -6 -12 -13 -30
-16 -39 -4 -10 -9 -21 -14 -28 -5 -6 -11 -16 -13 -23 -3 -7 -10 -24 -16 -38
-7 -14 -16 -35 -21 -47 -5 -11 -13 -26 -17 -32 -5 -8 -10 -16 -11 -22 -1 -6
-5 -17 -8 -24 -10 -24 -7 -37 11 -43 24 -8 36 1 47 36 1 4 6 13 9 18 4 6 8 15
10 20 4 15 11 29 18 38 4 5 7 12 8 15 1 4 5 15 10 25 5 10 9 21 10 24 2 7 3
11 30 68 12 24 23 49 25 54 5 14 25 57 29 61 6 7 16 -6 24 -34 1 -5 6 -16 10
-24 16 -31 39 -88 44 -106 2 -6 6 -16 10 -23 13 -22 35 -76 37 -91 2 -15 3
-18 14 -31 4 -5 12 -19 17 -31 13 -30 21 -33 47 -20 16 8 16 14 -2 53 -7 16
-15 35 -17 42 -2 7 -5 14 -7 17 -6 8 -24 48 -29 63 -10 29 -15 43 -22 54 -5 8
-7 15 -8 23 -2 17 -2 18 -11 30 -12 16 -16 25 -18 39 -1 8 -5 19 -10 29 -4 9
-9 20 -10 25 -2 7 -5 11 -13 18 -16 13 -23 29 -23 46 1 8 0 18 -1 22 -3 16 1
17 41 17 43 0 72 15 94 48 6 8 6 83 0 94 -2 4 -4 11 -5 15 -1 4 -3 11 -5 15
-2 4 -4 10 -5 14 -2 10 -12 27 -23 39 -6 7 -15 22 -24 38 -16 32 -34 52 -55
63 -20 11 -27 42 -14 72 3 8 5 16 6 34 0 19 1 25 5 32 18 34 -1 78 -34 80 -25
1 -43 -9 -64 -39 -8 -11 -9 -44 -1 -61 3 -6 5 -12 5 -14 0 -2 2 -7 4 -12 3 -5
5 -16 6 -24 1 -10 4 -19 8 -28 15 -31 -1 -63 -21 -41 -3 4 -11 13 -16 19 -14
15 -18 22 -23 35 -3 8 -8 14 -16 23 -7 6 -15 16 -18 23 -4 7 -10 17 -14 22 -5
5 -9 12 -10 14 -2 2 -9 13 -16 23 -8 10 -17 26 -22 34 -14 26 -31 35 -47 24z
m285 -298 c4 -5 10 -13 13 -19 3 -5 10 -14 14 -19 8 -9 23 -36 23 -42 0 -2 2
-7 4 -13 26 -71 16 -99 -37 -103 -34 -2 -31 -10 -32 105 0 108 0 109 15 91z
m-74 -39 c2 -10 4 -126 2 -137 -4 -19 -20 -25 -43 -14 -17 7 -22 37 -10 63 3
7 13 29 21 50 20 47 26 54 30 38z"/>
<path d="M667 879 c-25 -11 -24 -37 3 -65 16 -17 29 -41 32 -61 2 -11 6 -21
16 -45 3 -5 5 -14 6 -21 0 -7 2 -15 4 -19 6 -11 7 -493 1 -504 -2 -4 -4 -13
-5 -21 -1 -7 -4 -17 -6 -21 -2 -4 -4 -11 -5 -15 -1 -6 -4 -11 -17 -23 -35 -34
-30 -62 11 -62 27 0 48 18 52 46 1 5 6 19 12 31 6 12 12 26 13 30 1 4 5 14 7
21 5 13 8 429 3 479 -1 10 -3 28 -4 39 -2 22 -10 59 -15 74 -2 5 -7 23 -11 39
-18 67 -63 113 -97 98z"/>
<path d="M160 876 c-64 -21 -90 -74 -102 -211 -1 -13 -3 -29 -4 -36 -1 -7 -2
-33 -2 -59 0 -41 0 -47 -4 -57 -6 -18 -6 -212 0 -223 10 -18 10 -20 12 -64 2
-42 3 -43 8 -52 7 -12 10 -20 11 -35 1 -6 3 -16 5 -21 2 -5 5 -14 6 -21 2 -12
10 -27 26 -48 3 -4 8 -11 11 -15 11 -18 49 -17 55 1 5 15 2 32 -8 48 -6 11 -9
18 -10 28 -2 10 -4 16 -8 22 -12 17 -29 77 -32 114 -1 11 -3 25 -4 30 -2 11
-4 117 -5 226 0 60 0 60 5 69 5 9 5 10 6 76 1 62 2 68 6 78 2 7 4 14 4 17 0 7
9 34 15 45 4 6 10 11 25 21 46 30 33 83 -16 67z"/>
</g>
</svg>
