<?xml version="1.0" standalone="no"?>
<!DOCTYPE svg PUBLIC "-//W3C//DTD SVG 20010904//EN"
 "http://www.w3.org/TR/2001/REC-SVG-20010904/DTD/svg10.dtd">
<svg version="1.0" xmlns="http://www.w3.org/2000/svg"
 width="73.000000pt" height="100.000000pt" viewBox="0 0 73.000000 100.000000"
 preserveAspectRatio="xMidYMid meet">
<metadata>
Created by potrace 1.16, written by Peter Selinger 2001-2019
</metadata>
<g transform="translate(0.000000,100.000000) scale(0.100000,-0.100000)"
fill="#000000" stroke="none">
<path d="M161 936 c-16 -20 1 -53 79 -149 33 -41 60 -80 60 -86 0 -7 -11 -34
-25 -61 -28 -55 -33 -121 -11 -139 8 -7 27 -16 43 -20 38 -10 41 -41 10 -94
-32 -55 -127 -265 -127 -282 0 -7 6 -18 13 -24 21 -17 39 9 100 154 31 72 61
130 68 130 8 0 31 -43 52 -95 64 -157 85 -200 101 -200 32 0 26 40 -24 161
-28 68 -62 143 -75 166 -36 61 -34 83 10 83 47 0 85 37 85 82 0 44 -40 127
-85 176 l-36 41 6 79 c7 76 6 80 -14 87 -27 8 -71 -18 -71 -43 0 -9 7 -39 15
-66 33 -110 1 -101 -74 19 -58 91 -78 108 -100 81z m271 -268 c23 -36 40 -96
33 -118 -8 -24 -50 -27 -59 -4 -9 24 -7 144 3 144 5 0 15 -10 23 -22z m-82
-78 c0 -54 -2 -60 -20 -60 -11 0 -23 7 -27 15 -6 18 24 105 38 105 5 0 9 -27
9 -60z"/>
<path d="M102 725 c-50 -42 -57 -83 -57 -335 0 -194 3 -233 19 -280 21 -63 41
-90 67 -90 31 0 31 18 3 88 -26 62 -28 79 -32 238 -2 95 1 203 7 240 9 59 15
73 43 96 28 22 31 30 22 45 -17 27 -38 27 -72 -2z"/>
<path d="M553 739 c-8 -8 -1 -30 25 -83 l37 -71 0 -231 c-1 -219 -2 -232 -23
-268 -28 -48 -28 -66 1 -66 30 0 50 22 72 83 16 43 17 72 12 265 -5 181 -9
228 -27 284 -25 82 -66 118 -97 87z"/>
</g>
</svg>
