<?xml version="1.0" standalone="no"?>
<!DOCTYPE svg PUBLIC "-//W3C//DTD SVG 20010904//EN"
 "http://www.w3.org/TR/2001/REC-SVG-20010904/DTD/svg10.dtd">
<svg version="1.0" xmlns="http://www.w3.org/2000/svg"
 width="92.000000pt" height="148.000000pt" viewBox="0 0 92.000000 148.000000"
 preserveAspectRatio="xMidYMid meet">
<metadata>
Created by potrace 1.16, written by Peter Selinger 2001-2019
</metadata>
<g transform="translate(0.000000,148.000000) scale(0.100000,-0.100000)"
fill="#000000" stroke="none">
<path d="M310 1313 c1 -65 2 -123 1 -129 -1 -7 -40 -33 -88 -59 -100 -53 -142
-79 -186 -116 -27 -23 -29 -29 -18 -43 7 -9 22 -16 34 -16 22 0 118 52 137 75
7 8 28 24 47 36 29 18 39 20 59 10 l25 -11 -4 -148 c-2 -81 0 -177 5 -213 l9
-67 -76 -158 c-42 -88 -85 -177 -95 -199 -10 -22 -35 -76 -55 -119 l-38 -80
23 -18 c12 -10 28 -18 36 -18 20 0 21 3 79 154 14 38 32 81 40 95 8 14 35 73
61 131 25 58 50 109 55 114 5 5 13 -2 19 -18 5 -15 55 -117 110 -227 55 -110
100 -206 100 -213 0 -39 72 -45 84 -8 5 16 -65 163 -245 512 l-34 65 -6 200
c-3 110 -9 210 -13 223 -11 34 18 39 57 10 17 -14 54 -35 80 -46 26 -12 59
-30 73 -41 38 -30 78 -35 118 -16 64 31 63 35 70 -262 13 -538 17 -638 29
-645 19 -12 34 -9 52 8 14 14 15 32 10 113 -8 129 -31 921 -31 1046 l1 100
-43 3 -43 3 7 -103 c8 -123 -4 -159 -62 -183 -36 -15 -37 -15 -158 44 -66 32
-129 61 -138 64 -15 5 -18 24 -20 134 l-3 128 -33 3 -34 3 2 -118z"/>
</g>
</svg>
