<?xml version="1.0" standalone="no"?>
<!DOCTYPE svg PUBLIC "-//W3C//DTD SVG 20010904//EN"
 "http://www.w3.org/TR/2001/REC-SVG-20010904/DTD/svg10.dtd">
<svg version="1.0" xmlns="http://www.w3.org/2000/svg"
 width="63.000000pt" height="100.000000pt" viewBox="0 0 63.000000 100.000000"
 preserveAspectRatio="xMidYMid meet">
<metadata>
Created by potrace 1.16, written by Peter Selinger 2001-2019
</metadata>
<g transform="translate(0.000000,100.000000) scale(0.100000,-0.100000)"
fill="#000000" stroke="none">
<path d="M209 958 c-1 -7 0 -47 1 -88 l2 -75 -45 -22 c-86 -42 -158 -94 -155
-111 6 -32 47 -25 108 17 32 23 65 41 73 41 19 0 27 -50 27 -186 l0 -111 -85
-178 c-47 -97 -85 -183 -85 -191 0 -18 39 -39 52 -26 5 5 38 78 73 163 35 84
67 155 72 156 5 2 44 -69 87 -157 44 -87 84 -161 90 -163 6 -3 19 0 28 4 16 8
16 13 2 52 -8 23 -51 112 -96 197 l-81 155 -7 145 c-5 80 -5 148 -2 152 4 3
41 -14 82 -38 68 -40 79 -43 123 -38 l47 6 0 -44 c1 -179 21 -563 30 -572 7
-7 16 -7 28 0 15 10 17 26 13 125 -1 63 -6 252 -10 421 -4 210 -10 311 -17
319 -7 6 -21 8 -33 4 -19 -6 -21 -14 -21 -90 0 -79 -2 -86 -25 -101 -24 -16
-29 -15 -113 22 -48 21 -93 45 -100 53 -9 11 -12 40 -10 91 l3 75 -27 3 c-18
2 -28 -2 -29 -10z"/>
</g>
</svg>
