<?xml version="1.0" standalone="no"?>
<!DOCTYPE svg PUBLIC "-//W3C//DTD SVG 20010904//EN"
 "http://www.w3.org/TR/2001/REC-SVG-20010904/DTD/svg10.dtd">
<svg version="1.0" xmlns="http://www.w3.org/2000/svg"
 width="364.000000pt" height="590.000000pt" viewBox="0 0 364.000000 590.000000"
 preserveAspectRatio="xMidYMid meet">
<metadata>
Created by potrace 1.16, written by Peter Selinger 2001-2019
</metadata>
<g transform="translate(0.000000,590.000000) scale(0.500000,-0.500000)"
fill="#000000" stroke="none">
<path d="M256 1142 c-16 -8 -17 -11 -7 -166 2 -32 -10 -44 -72 -74 -48 -23
-62 -30 -74 -42 -9 -9 -17 -14 -35 -23 -44 -21 -67 -48 -54 -64 6 -7 30 -17
37 -16 10 2 36 14 47 22 5 4 14 9 20 12 6 3 15 10 21 15 34 31 67 52 84 52 28
0 30 -7 29 -90 -2 -109 -1 -214 2 -223 8 -29 4 -51 -15 -82 -7 -11 -10 -18
-30 -64 -18 -42 -29 -65 -35 -74 -9 -13 -20 -36 -26 -55 -6 -19 -13 -34 -23
-48 -3 -5 -9 -18 -13 -29 -7 -23 -16 -45 -36 -86 -20 -41 -20 -45 4 -64 24
-20 42 -11 54 26 3 11 9 25 13 31 4 6 8 16 9 21 1 5 3 12 5 15 1 3 7 19 13 36
6 18 16 42 24 58 8 14 14 28 14 29 0 2 4 13 10 25 5 12 10 22 10 23 0 0 9 19
19 41 11 23 22 47 25 55 13 27 15 26 36 -17 8 -16 28 -56 43 -88 16 -32 47
-94 68 -137 21 -43 41 -84 44 -92 12 -34 29 -43 53 -31 30 15 26 38 -23 123
-5 9 -19 37 -31 63 -12 26 -25 53 -29 60 -4 7 -11 21 -15 30 -5 9 -12 22 -16
28 -4 7 -8 16 -9 20 -2 11 -15 39 -26 56 -17 27 -47 89 -51 105 -1 4 -3 51 -5
104 -2 53 -4 116 -5 140 -6 129 -9 122 36 92 24 -16 52 -31 58 -31 5 0 37 -18
49 -28 40 -32 86 -40 113 -20 18 13 37 10 42 -7 2 -6 4 -108 5 -254 1 -48 1
-88 2 -89 2 -3 4 -57 7 -152 1 -43 3 -91 4 -106 1 -15 2 -44 2 -65 0 -46 2
-51 21 -54 36 -6 51 24 42 85 -3 23 -7 140 -6 163 1 9 0 21 -2 30 -2 12 -3 40
-5 101 -1 47 -3 106 -4 131 -1 25 -3 85 -4 133 -1 48 -3 94 -3 103 -1 9 -2 72
-2 140 0 149 3 136 -34 137 -32 1 -36 -3 -34 -32 0 -10 2 -45 4 -77 l3 -58
-11 -22 c-13 -27 -17 -31 -45 -41 -28 -11 -26 -11 -74 13 -24 12 -58 28 -76
36 -18 9 -43 20 -54 26 -12 6 -22 11 -23 11 -1 0 -5 3 -9 6 l-7 6 0 69 c0 39
1 79 1 91 1 31 -7 42 -32 42 -6 0 -14 -1 -18 -4z"/>
</g>
</svg>
