<?xml version="1.0" standalone="no"?>
<!DOCTYPE svg PUBLIC "-//W3C//DTD SVG 20010904//EN"
 "http://www.w3.org/TR/2001/REC-SVG-20010904/DTD/svg10.dtd">
<svg version="1.0" xmlns="http://www.w3.org/2000/svg"
 width="430.000000pt" height="590.000000pt" viewBox="0 0 430.000000 590.000000"
 preserveAspectRatio="xMidYMid meet">
<metadata>
Created by potrace 1.16, written by Peter Selinger 2001-2019
</metadata>
<g transform="translate(0.000000,590.000000) scale(0.500000,-0.500000)"
fill="#000000" stroke="none">
<path d="M383 1137 c-12 -6 -12 -7 -10 -97 2 -97 2 -97 -25 -110 -8 -5 -19
-12 -24 -16 -9 -9 -18 -15 -37 -26 -5 -3 -16 -12 -25 -21 -10 -9 -20 -18 -23
-20 -4 -1 -11 -7 -17 -12 -17 -15 -31 -21 -39 -16 -10 5 -51 48 -58 61 -26 45
-70 70 -82 46 -5 -10 -4 -860 1 -866 8 -10 39 -6 47 7 3 5 5 637 2 702 -2 38
2 48 16 35 3 -3 10 -7 14 -10 4 -2 16 -12 25 -21 34 -35 52 -36 86 -6 7 6 13
11 14 11 1 0 9 7 18 15 9 8 19 16 22 18 8 4 28 19 34 26 2 2 7 5 10 6 3 1 11
5 16 9 12 9 21 12 25 8 2 -2 2 -357 0 -368 -1 -3 -15 -34 -32 -69 -50 -108
-89 -191 -117 -250 -50 -105 -48 -102 -48 -109 2 -15 51 -24 68 -13 5 4 24 41
29 56 1 6 8 21 14 34 6 13 11 25 11 27 0 1 9 21 20 43 11 22 20 43 21 47 1 3
9 23 19 43 10 20 18 39 19 42 3 13 28 63 31 62 4 0 12 -13 87 -138 72 -121 86
-146 90 -160 11 -38 32 -58 63 -59 45 -1 48 29 9 81 -4 4 -11 18 -18 29 -6 12
-13 25 -16 28 -2 4 -10 17 -16 29 -7 12 -14 25 -16 28 -3 3 -8 12 -12 20 -4 8
-10 17 -13 21 -3 4 -7 11 -9 16 -1 6 -5 14 -9 18 -15 22 -21 30 -31 50 -6 12
-13 24 -16 27 -2 3 -12 20 -21 38 -13 25 -19 35 -28 44 -6 7 -13 14 -14 16 -4
8 -3 286 1 295 2 6 3 16 3 47 0 47 0 47 21 38 6 -3 12 -5 13 -5 2 0 8 -2 13
-5 9 -4 17 -9 44 -29 4 -3 13 -8 20 -12 7 -3 16 -8 20 -12 10 -8 37 -22 49
-25 15 -4 29 -9 36 -12 11 -5 23 -1 42 13 4 3 10 7 13 9 4 2 10 7 15 10 9 6
19 5 30 -4 5 -5 5 -5 5 -363 0 -419 -3 -388 39 -383 18 2 16 -34 16 355 -1
190 -1 384 0 432 0 68 0 88 -2 90 -8 9 -23 11 -34 3 -11 -6 -48 -43 -52 -51
-6 -11 -24 -27 -40 -35 -8 -4 -17 -9 -19 -11 -10 -8 -23 -3 -62 26 -4 3 -14 8
-21 12 -7 4 -16 9 -19 11 -7 6 -23 14 -42 22 -8 3 -17 8 -21 12 -7 7 -22 15
-29 15 -7 0 -24 9 -29 15 -5 6 -5 6 -3 86 1 91 1 90 -14 97 -13 6 -40 7 -48 3z"/>
</g>
</svg>
