<?xml version="1.0" standalone="no"?>
<!DOCTYPE svg PUBLIC "-//W3C//DTD SVG 20010904//EN"
 "http://www.w3.org/TR/2001/REC-SVG-20010904/DTD/svg10.dtd">
<svg version="1.0" xmlns="http://www.w3.org/2000/svg"
 width="73.000000pt" height="100.000000pt" viewBox="0 0 73.000000 100.000000"
 preserveAspectRatio="xMidYMid meet">
<metadata>
Created by potrace 1.16, written by Peter Selinger 2001-2019
</metadata>
<g transform="translate(0.000000,100.000000) scale(0.100000,-0.100000)"
fill="#000000" stroke="none">
<path d="M323 963 c-9 -3 -13 -31 -13 -86 l0 -82 -68 -45 c-37 -25 -73 -47
-81 -49 -8 -1 -36 21 -62 50 -40 45 -50 51 -59 39 -6 -9 -10 -150 -10 -383 l0
-368 22 3 23 3 3 318 c1 174 5 317 8 317 3 0 19 -11 36 -25 16 -14 36 -25 44
-25 8 0 39 20 70 45 30 25 61 45 68 45 10 0 12 -34 8 -161 l-5 -162 -78 -163
c-44 -90 -79 -170 -79 -179 0 -20 24 -29 46 -17 10 6 45 75 79 154 34 78 65
143 70 142 10 -1 71 -101 130 -216 19 -37 44 -72 54 -78 23 -12 51 -3 51 16 0
12 -152 280 -191 336 -17 23 -19 46 -19 187 0 175 1 177 55 140 17 -11 52 -32
79 -46 48 -24 51 -24 83 -9 19 9 39 14 44 11 5 -4 9 -133 9 -309 0 -303 2
-326 35 -326 18 0 25 182 18 488 -7 296 -8 300 -60 238 -51 -61 -61 -62 -162
-10 l-91 47 0 77 c0 62 -3 79 -16 84 -18 7 -23 7 -41 -1z"/>
</g>
</svg>
