<?xml version="1.0" standalone="no"?>
<!DOCTYPE svg PUBLIC "-//W3C//DTD SVG 20010904//EN"
 "http://www.w3.org/TR/2001/REC-SVG-20010904/DTD/svg10.dtd">
<svg version="1.0" xmlns="http://www.w3.org/2000/svg"
 width="108.000000pt" height="148.000000pt" viewBox="0 0 108.000000 148.000000"
 preserveAspectRatio="xMidYMid meet">
<metadata>
Created by potrace 1.16, written by Peter Selinger 2001-2019
</metadata>
<g transform="translate(0.000000,148.000000) scale(0.100000,-0.100000)"
fill="#000000" stroke="none">
<path d="M42 1418 c-8 -8 -12 -45 -12 -100 0 -73 3 -90 16 -95 37 -14 48 9 49
101 1 73 -2 89 -16 97 -22 11 -23 11 -37 -3z"/>
<path d="M983 1408 c-6 -7 -10 -53 -9 -103 l2 -90 30 0 29 0 0 100 c0 94 -1
100 -21 103 -11 2 -25 -3 -31 -10z"/>
<path d="M434 1395 c-4 -9 -4 -70 -2 -135 l5 -119 -36 -29 c-20 -16 -89 -55
-153 -87 -109 -54 -118 -61 -118 -87 0 -23 4 -28 26 -28 26 0 117 46 211 107
28 18 56 33 61 33 12 0 6 -425 -6 -455 -5 -11 -27 -58 -49 -105 -125 -262
-173 -372 -173 -395 0 -22 4 -25 34 -25 34 0 46 13 46 48 0 9 22 64 49 122 61
132 118 260 125 283 10 32 24 18 75 -75 185 -338 207 -373 237 -373 25 0 29 3
26 24 -2 13 -20 52 -40 88 -20 35 -46 81 -57 101 -11 21 -28 50 -37 64 -18 27
-24 38 -93 158 -20 36 -42 72 -50 80 -9 11 -14 75 -17 238 -3 122 -2 225 2
227 4 2 56 -20 116 -50 60 -30 114 -55 121 -55 6 0 33 25 59 55 26 30 50 53
52 50 2 -2 5 -210 6 -462 l1 -458 25 0 25 0 0 520 0 520 -23 3 c-14 2 -24 -3
-29 -15 -13 -34 -116 -133 -139 -133 -24 0 -188 70 -206 88 -7 7 -12 63 -12
149 l-1 138 -28 3 c-18 2 -29 -2 -33 -13z"/>
<path d="M34 247 c-3 -8 -4 -54 -2 -103 3 -88 3 -89 28 -89 24 0 25 3 30 80 7
111 4 125 -26 125 -14 0 -27 -6 -30 -13z"/>
<path d="M985 247 c-3 -7 -5 -54 -3 -103 3 -88 3 -89 28 -89 l25 0 0 100 c0
96 -1 100 -23 103 -12 2 -24 -3 -27 -11z"/>
</g>
</svg>
