<?xml version="1.0" standalone="no"?>
<!DOCTYPE svg PUBLIC "-//W3C//DTD SVG 20010904//EN"
 "http://www.w3.org/TR/2001/REC-SVG-20010904/DTD/svg10.dtd">
<svg version="1.0" xmlns="http://www.w3.org/2000/svg"
 width="434.000000pt" height="590.000000pt" viewBox="0 0 434.000000 590.000000"
 preserveAspectRatio="xMidYMid meet">
<metadata>
Created by potrace 1.16, written by Peter Selinger 2001-2019
</metadata>
<g transform="translate(0.000000,590.000000) scale(0.500000,-0.500000)"
fill="#000000" stroke="none">
<path d="M39 1140 c-10 -4 -10 -4 -10 -81 0 -87 -1 -83 24 -83 27 0 26 -3 27
80 0 86 -6 98 -41 84z"/>
<path d="M795 1130 c-17 -8 -13 -154 4 -161 15 -6 33 -2 36 9 4 11 4 138 0
146 -4 8 -28 12 -40 6z"/>
<path d="M367 1129 c-18 -3 -18 -3 -16 -114 1 -112 2 -105 -14 -113 -4 -3 -13
-9 -19 -15 -9 -8 -17 -14 -40 -25 -16 -7 -31 -15 -32 -17 -3 -3 -15 -10 -60
-30 -79 -37 -82 -39 -83 -59 0 -23 9 -30 36 -27 18 2 120 52 140 70 12 10 59
35 67 35 7 0 7 -4 7 -164 -1 -172 -1 -163 -16 -195 -6 -12 -11 -24 -11 -27 0
-4 -31 -68 -55 -111 -6 -11 -12 -25 -13 -30 -1 -6 -17 -39 -34 -74 -17 -35
-32 -67 -33 -71 -1 -3 -8 -19 -15 -34 -25 -51 -21 -73 16 -73 26 0 36 11 39
42 0 7 3 16 5 21 2 5 4 11 4 13 0 3 15 34 33 70 18 36 33 67 33 70 0 5 16 42
43 96 13 25 23 47 23 49 0 26 20 9 41 -36 7 -15 15 -29 18 -32 4 -5 29 -52 29
-56 0 0 3 -5 7 -9 3 -4 10 -16 15 -25 5 -9 11 -20 14 -23 3 -4 13 -20 21 -36
8 -17 16 -31 18 -33 2 -1 9 -15 17 -31 8 -15 17 -32 21 -36 3 -4 10 -15 14
-24 11 -22 34 -29 48 -15 11 12 3 56 -15 75 -3 3 -11 18 -19 32 -7 14 -16 30
-19 34 -3 4 -10 15 -14 23 -15 29 -20 39 -25 44 -3 3 -9 14 -14 24 -5 10 -11
21 -14 24 -2 3 -11 17 -18 31 -7 14 -16 30 -20 34 -4 5 -11 17 -16 27 -16 31
-16 33 -25 43 -4 5 -8 11 -8 12 0 1 -4 7 -8 12 -6 8 -8 12 -9 21 -1 6 -2 15
-4 21 -3 8 -3 28 -4 137 0 70 -1 137 -2 149 -2 44 0 46 33 29 14 -6 28 -13 32
-13 6 -2 25 -11 71 -35 61 -33 56 -34 104 14 38 38 44 42 46 34 0 -3 0 -90 0
-194 -2 -309 0 -523 6 -530 6 -7 28 -8 35 0 9 8 11 815 3 827 -7 11 -35 9 -42
-3 -5 -8 -71 -80 -84 -92 -22 -19 -35 -19 -75 1 -15 7 -29 13 -32 13 -10 0
-90 41 -93 48 -3 6 -3 17 -1 103 2 106 1 115 -8 120 -4 3 -20 5 -29 4z"/>
<path d="M37 207 c-10 -7 -11 -147 -2 -156 8 -9 38 -6 42 4 0 2 2 118 1 139 0
14 -28 23 -41 13z"/>
<path d="M794 203 c-5 -5 -9 -130 -5 -146 3 -12 35 -15 43 -5 7 8 5 147 -2
152 -7 6 -30 6 -36 -1z"/>
</g>
</svg>
