<?xml version="1.0" standalone="no"?>
<!DOCTYPE svg PUBLIC "-//W3C//DTD SVG 20010904//EN"
 "http://www.w3.org/TR/2001/REC-SVG-20010904/DTD/svg10.dtd">
<svg version="1.0" xmlns="http://www.w3.org/2000/svg"
 width="136.000000pt" height="148.000000pt" viewBox="0 0 136.000000 148.000000"
 preserveAspectRatio="xMidYMid meet">
<metadata>
Created by potrace 1.16, written by Peter Selinger 2001-2019
</metadata>
<g transform="translate(0.000000,148.000000) scale(0.100000,-0.100000)"
fill="#000000" stroke="none">
<path d="M343 1404 c-3 -9 -3 -50 0 -92 8 -115 4 -126 -62 -158 -31 -16 -63
-33 -71 -40 -8 -6 -40 -24 -70 -40 -74 -37 -90 -52 -90 -86 0 -58 29 -49 198
59 46 30 87 51 92 48 5 -3 9 -90 9 -193 0 -103 3 -200 6 -215 6 -21 0 -38 -24
-75 -17 -27 -31 -56 -31 -64 0 -9 -18 -52 -40 -96 -22 -44 -40 -86 -40 -95 0
-8 -7 -20 -15 -27 -8 -7 -15 -25 -15 -40 0 -15 -7 -33 -15 -40 -8 -7 -15 -16
-15 -21 0 -5 -14 -39 -32 -75 -36 -74 -32 -99 17 -99 26 0 32 10 97 150 38 83
87 193 109 245 48 112 55 122 68 88 14 -38 222 -461 232 -475 11 -13 69 11 69
29 0 13 -221 462 -261 529 -26 45 -27 49 -30 260 -4 188 -2 214 11 213 9 -1
47 -24 86 -51 39 -28 81 -56 95 -63 13 -7 33 -21 44 -31 20 -17 21 -17 70 41
28 33 53 60 56 60 13 0 15 -27 9 -115 -4 -49 -4 -94 0 -98 4 -5 20 -7 35 -5
l27 3 0 220 1 220 -34 0 -34 0 3 -50 c3 -49 2 -52 -56 -114 l-60 -63 -43 22
c-24 12 -51 26 -59 31 -109 62 -142 84 -150 99 -6 10 -10 64 -10 119 l0 101
-35 0 c-23 0 -38 -6 -42 -16z"/>
<path d="M1237 1283 c-4 -3 -7 -107 -7 -230 l0 -224 31 3 31 3 0 220 c0 203
-2 220 -19 226 -24 10 -28 10 -36 2z"/>
<path d="M940 1055 l0 -225 30 0 30 0 0 225 0 225 -30 0 -30 0 0 -225z"/>
<path d="M1078 1273 c-1 -4 -2 -106 0 -226 l3 -218 35 3 35 3 0 220 0 220 -34
3 c-20 2 -37 -1 -39 -5z"/>
</g>
</svg>
