<?xml version="1.0" standalone="no"?>
<!DOCTYPE svg PUBLIC "-//W3C//DTD SVG 20010904//EN"
 "http://www.w3.org/TR/2001/REC-SVG-20010904/DTD/svg10.dtd">
<svg version="1.0" xmlns="http://www.w3.org/2000/svg"
 width="92.000000pt" height="100.000000pt" viewBox="0 0 92.000000 100.000000"
 preserveAspectRatio="xMidYMid meet">
<metadata>
Created by potrace 1.16, written by Peter Selinger 2001-2019
</metadata>
<g transform="translate(0.000000,100.000000) scale(0.100000,-0.100000)"
fill="#000000" stroke="none">
<path d="M237 964 c-4 -4 -7 -42 -7 -84 l0 -77 -100 -53 c-91 -48 -100 -55
-100 -81 0 -42 22 -38 115 21 43 27 81 48 83 45 3 -3 6 -67 8 -142 l2 -138
-55 -125 c-30 -69 -70 -158 -89 -199 -26 -57 -32 -77 -23 -87 32 -39 54 -11
130 168 35 82 68 148 73 148 6 0 46 -72 88 -160 63 -131 80 -160 98 -160 11 0
23 7 27 16 6 17 -60 160 -148 316 l-49 88 0 134 c0 74 4 137 8 140 5 3 39 -17
78 -44 38 -27 73 -49 78 -50 4 0 25 14 45 32 l36 32 5 -75 c5 -72 7 -75 40
-70 6 0 10 58 10 150 0 115 -3 151 -14 160 -20 17 -46 -12 -46 -53 0 -23 -9
-42 -31 -64 -17 -18 -36 -32 -41 -32 -14 0 -145 70 -157 84 -5 6 -11 45 -13
86 -3 67 -5 75 -23 78 -12 2 -24 0 -28 -4z"/>
<path d="M647 874 c-10 -10 -9 -312 1 -318 4 -2 13 -1 20 3 9 6 12 48 10 161
-3 143 -9 175 -31 154z"/>
<path d="M743 873 c-19 -7 -18 -296 0 -312 29 -24 37 9 37 160 0 148 -4 163
-37 152z"/>
<path d="M835 868 c-3 -8 -4 -81 -3 -163 3 -142 4 -150 23 -150 19 0 20 7 20
160 0 144 -2 160 -18 163 -9 2 -19 -3 -22 -10z"/>
</g>
</svg>
