<?xml version="1.0" standalone="no"?>
<!DOCTYPE svg PUBLIC "-//W3C//DTD SVG 20010904//EN"
 "http://www.w3.org/TR/2001/REC-SVG-20010904/DTD/svg10.dtd">
<svg version="1.0" xmlns="http://www.w3.org/2000/svg"
 width="78.000000pt" height="100.000000pt" viewBox="0 0 78.000000 100.000000"
 preserveAspectRatio="xMidYMid meet">
<metadata>
Created by potrace 1.16, written by Peter Selinger 2001-2019
</metadata>
<g transform="translate(0.000000,100.000000) scale(0.100000,-0.100000)"
fill="#000000" stroke="none">
<path d="M447 963 c-18 -17 -2 -47 58 -112 36 -39 65 -78 65 -86 0 -20 -88
-115 -106 -115 -8 0 -53 21 -100 46 l-86 47 3 95 c3 79 1 96 -12 105 -9 6 -24
7 -33 4 -13 -5 -16 -23 -16 -110 l0 -104 -73 -37 c-85 -45 -112 -68 -104 -90
13 -32 37 -28 92 13 90 68 87 72 83 -70 l-4 -124 -79 -178 c-76 -170 -79 -179
-61 -193 34 -24 51 0 107 151 30 80 58 144 63 142 6 -2 38 -67 72 -145 68
-157 78 -172 106 -172 35 0 30 29 -26 149 -31 65 -56 122 -56 126 0 4 -13 33
-29 64 -25 50 -29 69 -33 175 -3 81 -1 119 7 122 6 3 49 -18 95 -46 46 -27 88
-50 94 -50 6 0 39 30 73 67 l63 68 19 -23 c30 -34 55 -162 48 -242 -6 -73 -42
-156 -102 -240 -66 -91 -83 -150 -45 -150 41 0 175 216 199 321 14 58 14 121
0 213 -10 64 -19 87 -65 158 -120 188 -185 254 -217 221z"/>
</g>
</svg>
