<?xml version="1.0" standalone="no"?>
<!DOCTYPE svg PUBLIC "-//W3C//DTD SVG 20010904//EN"
 "http://www.w3.org/TR/2001/REC-SVG-20010904/DTD/svg10.dtd">
<svg version="1.0" xmlns="http://www.w3.org/2000/svg"
 width="424.000000pt" height="546.000000pt" viewBox="0 0 424.000000 546.000000"
 preserveAspectRatio="xMidYMid meet">
<metadata>
Created by potrace 1.16, written by Peter Selinger 2001-2019
</metadata>
<g transform="translate(0.000000,546.000000) scale(0.500000,-0.500000)"
fill="#000000" stroke="none">
<path d="M504 1056 c-35 -8 -30 -49 10 -85 28 -25 69 -66 77 -78 6 -8 13 -18
16 -22 27 -34 25 -45 -12 -82 -13 -13 -30 -32 -37 -41 -42 -54 -64 -53 -151 9
-22 16 -44 27 -61 33 -40 13 -52 59 -38 148 12 80 -6 111 -52 91 -19 -9 -18
-1 -15 -137 l2 -82 -7 -6 c-4 -4 -14 -11 -23 -15 -9 -4 -26 -14 -39 -22 -13
-8 -43 -25 -67 -39 -64 -37 -66 -38 -49 -66 16 -26 30 -25 78 10 7 5 18 12 24
16 6 4 21 14 34 22 37 25 44 28 48 20 5 -11 0 -240 -5 -247 -3 -3 -10 -20 -18
-38 -17 -43 -33 -81 -44 -108 -9 -21 -15 -36 -36 -86 -5 -12 -13 -32 -18 -44
-5 -12 -15 -36 -22 -53 -34 -77 -34 -81 -6 -93 31 -13 41 -6 55 38 7 21 29 80
36 96 4 8 14 34 22 58 9 24 19 48 21 53 6 10 14 30 16 39 2 9 17 40 20 41 4 3
37 -53 37 -63 0 0 4 -9 9 -19 5 -11 17 -38 28 -61 19 -42 30 -64 58 -124 8
-18 15 -34 16 -37 1 -6 17 -35 22 -40 6 -6 19 -4 36 4 26 13 25 17 -12 92 -19
36 -29 59 -33 73 -3 10 -11 29 -17 41 -6 12 -12 25 -13 30 -1 5 -5 14 -9 20
-10 15 -15 25 -17 42 -3 19 -10 38 -20 52 -5 6 -11 18 -14 27 -4 12 -8 20 -14
27 -16 19 -16 16 -17 116 0 40 -1 92 -2 116 -2 70 -5 69 60 30 44 -26 135 -79
144 -84 16 -9 18 -7 75 55 88 98 86 95 97 75 4 -7 11 -17 16 -23 14 -18 24
-42 31 -73 3 -15 7 -31 9 -35 1 -4 3 -17 4 -27 0 -11 2 -24 4 -31 9 -32 2
-128 -10 -150 -6 -11 -7 -15 -7 -26 0 -12 0 -13 -13 -31 -15 -23 -21 -34 -27
-53 -7 -23 -23 -51 -37 -65 -20 -21 -64 -84 -70 -101 -2 -6 -7 -19 -12 -29
-11 -27 -10 -44 3 -52 22 -13 42 2 73 54 3 5 10 13 16 18 14 10 14 10 22 29 4
11 7 14 13 17 11 6 14 9 17 22 2 6 6 17 10 24 17 34 25 49 32 58 5 7 9 15 10
22 2 7 7 20 11 28 5 10 9 21 10 29 1 7 3 15 5 18 1 4 3 10 4 14 1 4 3 11 5 14
9 18 11 149 3 181 -2 6 -4 23 -5 37 -1 18 -3 31 -7 43 -3 9 -6 24 -7 32 -1 9
-4 21 -7 29 -4 8 -8 17 -9 21 -1 4 -5 10 -8 13 -4 3 -8 9 -10 13 -2 4 -7 11
-12 15 -5 4 -12 15 -16 24 -5 9 -13 22 -18 29 -5 7 -12 21 -16 31 -9 22 -16
32 -43 61 -27 29 -56 63 -70 84 -23 31 -40 40 -67 34z"/>
</g>
</svg>
