<?xml version="1.0" standalone="no"?>
<!DOCTYPE svg PUBLIC "-//W3C//DTD SVG 20010904//EN"
 "http://www.w3.org/TR/2001/REC-SVG-20010904/DTD/svg10.dtd">
<svg version="1.0" xmlns="http://www.w3.org/2000/svg"
 width="106.000000pt" height="136.000000pt" viewBox="0 0 106.000000 136.000000"
 preserveAspectRatio="xMidYMid meet">
<metadata>
Created by potrace 1.16, written by Peter Selinger 2001-2019
</metadata>
<g transform="translate(0.000000,136.000000) scale(0.100000,-0.100000)"
fill="#000000" stroke="none">
<path d="M605 1296 c-19 -13 -18 -15 8 -53 14 -21 45 -53 67 -72 48 -39 100
-112 100 -138 0 -10 -32 -51 -71 -91 -82 -85 -85 -86 -180 -21 -32 22 -79 48
-104 59 -25 11 -46 25 -47 32 -2 7 -3 69 -3 138 l0 125 -33 3 c-43 4 -45 -5
-46 -157 l-1 -125 -115 -68 c-63 -37 -116 -74 -118 -82 -2 -8 6 -24 18 -36
l21 -21 95 66 c53 37 99 64 102 60 3 -3 5 -73 3 -155 l-3 -150 -55 -133 c-30
-72 -71 -170 -90 -217 -19 -47 -42 -99 -50 -117 -21 -46 -14 -67 24 -71 29 -3
32 0 48 45 10 26 28 73 41 103 23 57 86 221 98 254 5 13 10 16 17 9 9 -9 94
-190 184 -390 22 -49 25 -51 52 -44 15 4 30 15 31 25 2 10 -15 55 -37 100 -23
46 -41 86 -41 89 0 4 -16 40 -35 81 -19 41 -35 82 -35 90 0 15 -32 80 -62 126
-14 21 -17 55 -18 193 0 116 3 167 11 167 6 0 68 -34 137 -76 l127 -75 40 43
c22 24 62 67 88 96 26 28 52 52 57 52 20 0 69 -109 84 -189 26 -138 20 -238
-20 -311 -7 -14 -21 -41 -30 -60 -35 -73 -49 -96 -81 -135 -42 -49 -97 -161
-89 -181 11 -29 53 -16 77 23 13 21 42 61 66 89 24 28 43 55 43 61 0 5 13 30
29 55 16 25 43 88 61 139 32 92 32 97 26 219 -7 150 -31 246 -75 301 -18 21
-46 65 -64 98 -18 32 -59 90 -92 128 -33 39 -68 80 -77 92 -20 24 -55 27 -83
7z"/>
</g>
</svg>
