<?xml version="1.0" standalone="no"?>
<!DOCTYPE svg PUBLIC "-//W3C//DTD SVG 20010904//EN"
 "http://www.w3.org/TR/2001/REC-SVG-20010904/DTD/svg10.dtd">
<svg version="1.0" xmlns="http://www.w3.org/2000/svg"
 width="374.000000pt" height="590.000000pt" viewBox="0 0 374.000000 590.000000"
 preserveAspectRatio="xMidYMid meet">
<metadata>
Created by potrace 1.16, written by Peter Selinger 2001-2019
</metadata>
<g transform="translate(0.000000,590.000000) scale(0.500000,-0.500000)"
fill="#000000" stroke="none">
<path d="M407 1137 c-26 -7 -37 -36 -26 -69 2 -10 6 -23 7 -30 1 -7 3 -17 5
-22 3 -10 8 -93 6 -99 -1 -3 -38 -42 -83 -88 -99 -103 -95 -98 -79 -115 21
-21 17 -24 105 75 62 69 59 72 58 -63 l-1 -70 -7 -7 c-4 -3 -26 -15 -47 -26
-22 -11 -57 -29 -78 -40 -21 -11 -59 -30 -85 -43 -25 -13 -47 -25 -49 -26 -1
-1 -16 -8 -32 -17 -50 -25 -47 -15 -45 -136 2 -69 2 -117 0 -171 -4 -149 -7
-147 61 -51 17 24 51 70 92 125 29 39 46 63 68 92 74 100 97 124 81 82 -2 -5
-45 -91 -94 -190 -107 -215 -103 -201 -59 -201 30 0 25 -6 66 82 35 75 116
248 129 275 24 51 25 51 46 -31 16 -62 22 -86 29 -113 3 -10 7 -25 9 -33 2 -8
6 -23 9 -34 3 -11 6 -24 8 -30 3 -11 14 -54 21 -79 10 -36 12 -38 41 -38 29 0
33 4 27 28 -2 8 -5 20 -6 25 -4 23 -14 61 -19 73 -2 7 -5 17 -6 22 -1 5 -2 11
-4 13 -1 2 -4 11 -6 21 -3 9 -8 27 -11 39 -3 12 -8 28 -10 36 -2 8 -5 19 -8
25 -2 6 -5 16 -7 23 -5 20 -10 41 -15 54 -2 7 -5 20 -8 29 -2 9 -7 26 -11 38
-4 11 -8 25 -9 30 -4 17 -8 33 -12 44 -6 18 -2 263 5 284 3 9 11 1 49 -46 51
-63 59 -63 85 0 17 42 57 126 63 133 6 6 6 -2 5 -431 0 -429 0 -429 4 -433 8
-10 32 -8 36 2 4 8 2 987 -1 990 -7 7 -31 7 -35 1 0 -2 -4 -8 -8 -15 -11 -18
-10 -16 -54 -115 -23 -51 -43 -96 -45 -100 -8 -13 -10 -12 -53 38 -16 18 -33
37 -38 41 -12 10 -14 16 -12 47 3 57 3 60 14 81 36 72 1 132 -66 114z m-19
-547 c5 -10 2 -28 -5 -36 -4 -4 -16 -18 -27 -32 -31 -40 -36 -41 -36 -7 0 34
5 44 31 61 26 18 33 21 37 14z m-102 -65 c4 -4 4 -6 3 -12 -1 -5 -2 -24 -3
-43 -1 -40 -2 -41 -19 -60 -20 -24 -23 -20 -23 31 0 21 -1 44 -2 50 -5 29 26
53 44 34z m-73 -36 c2 -2 3 -15 4 -64 2 -81 2 -82 -17 -101 -16 -17 -18 -13
-18 31 0 19 -1 35 -3 44 -12 56 10 114 34 90z m-70 -37 c2 -3 3 -29 4 -76 0
-39 2 -79 2 -89 2 -29 -32 -85 -43 -72 -4 4 -7 79 -7 159 l0 62 8 8 c17 15 32
18 36 8z"/>
</g>
</svg>
