<?xml version="1.0" standalone="no"?>
<!DOCTYPE svg PUBLIC "-//W3C//DTD SVG 20010904//EN"
 "http://www.w3.org/TR/2001/REC-SVG-20010904/DTD/svg10.dtd">
<svg version="1.0" xmlns="http://www.w3.org/2000/svg"
 width="94.000000pt" height="148.000000pt" viewBox="0 0 94.000000 148.000000"
 preserveAspectRatio="xMidYMid meet">
<metadata>
Created by potrace 1.16, written by Peter Selinger 2001-2019
</metadata>
<g transform="translate(0.000000,148.000000) scale(0.100000,-0.100000)"
fill="#000000" stroke="none">
<path d="M486 1404 c-20 -19 -20 -29 -1 -101 8 -31 15 -81 15 -109 0 -57 9
-44 -169 -227 l-56 -58 25 -20 c20 -17 26 -18 35 -6 5 7 37 44 70 81 33 38 64
74 68 82 18 32 27 -3 27 -109 0 -62 -4 -117 -8 -123 -4 -6 -72 -44 -152 -84
-80 -40 -173 -88 -207 -107 l-63 -35 0 -218 c0 -119 -3 -232 -6 -249 -10 -49
18 -39 58 22 42 62 266 367 307 417 16 19 32 32 35 29 3 -3 -53 -122 -125
-263 -86 -170 -128 -261 -121 -268 5 -5 22 -8 38 -6 32 3 40 18 183 328 42 91
81 167 86 170 6 3 24 -49 41 -115 83 -319 97 -371 108 -377 18 -12 56 -9 62 5
2 7 -2 38 -10 68 -39 143 -90 323 -115 409 -16 52 -32 109 -36 125 -9 38 -6
367 3 377 4 4 30 -21 57 -57 28 -35 56 -64 62 -65 17 0 33 28 84 142 23 54 45
95 48 93 2 -3 5 -252 5 -553 l1 -547 23 -3 22 -3 0 630 c0 477 -3 632 -12 637
-18 11 -45 -31 -105 -168 -30 -68 -59 -127 -64 -133 -6 -6 -31 13 -69 55 -58
62 -60 66 -60 120 0 30 7 68 15 84 18 34 20 117 3 134 -17 17 -84 15 -102 -4z
m4 -685 c0 -24 -78 -121 -91 -113 -15 9 -10 58 8 84 35 52 83 68 83 29z m-130
-129 c-4 -43 -12 -66 -28 -82 -12 -12 -23 -20 -26 -17 -4 4 -9 112 -7 147 1
16 43 32 56 21 7 -5 9 -32 5 -69z m-92 -68 c3 -93 -7 -132 -33 -132 -20 0 -26
185 -7 212 26 36 37 14 40 -80z m-86 -80 c5 -120 4 -125 -19 -153 -14 -16 -29
-29 -34 -29 -5 0 -9 64 -9 144 0 138 1 146 22 160 12 9 25 12 29 8 4 -4 9 -63
11 -130z"/>
</g>
</svg>
