<?xml version="1.0" standalone="no"?>
<!DOCTYPE svg PUBLIC "-//W3C//DTD SVG 20010904//EN"
 "http://www.w3.org/TR/2001/REC-SVG-20010904/DTD/svg10.dtd">
<svg version="1.0" xmlns="http://www.w3.org/2000/svg"
 width="64.000000pt" height="100.000000pt" viewBox="0 0 64.000000 100.000000"
 preserveAspectRatio="xMidYMid meet">
<metadata>
Created by potrace 1.16, written by Peter Selinger 2001-2019
</metadata>
<g transform="translate(0.000000,100.000000) scale(0.100000,-0.100000)"
fill="#000000" stroke="none">
<path d="M326 945 c-3 -9 0 -49 6 -91 l12 -75 -79 -79 c-53 -54 -76 -83 -72
-94 12 -30 42 -16 85 39 24 30 48 53 53 50 14 -9 11 -132 -3 -145 -7 -6 -74
-41 -148 -79 l-135 -67 -3 -173 c-2 -135 0 -172 10 -169 7 3 58 69 114 147
110 155 121 168 130 158 3 -3 -28 -71 -70 -151 -76 -145 -85 -169 -66 -181 12
-8 60 21 60 35 0 13 119 273 131 284 5 5 11 7 14 5 2 -3 19 -61 35 -130 42
-168 48 -186 67 -193 9 -4 22 -1 30 6 10 11 2 50 -47 221 -56 194 -60 214 -60
312 0 57 4 106 9 110 6 3 22 -10 38 -30 15 -19 34 -35 41 -35 7 0 27 29 44 65
18 36 35 65 38 65 3 0 3 -157 1 -348 -3 -312 -1 -349 13 -361 9 -8 20 -11 24
-7 10 11 15 521 7 704 -9 187 -17 193 -81 57 -24 -52 -50 -95 -57 -95 -7 0
-28 15 -46 34 l-34 35 13 79 c7 44 10 87 7 96 -8 21 -73 22 -81 1z m-202 -617
c11 -95 -24 -175 -38 -87 -6 36 -2 90 9 127 9 28 23 9 29 -40z"/>
</g>
</svg>
