<?xml version="1.0" standalone="no"?>
<!DOCTYPE svg PUBLIC "-//W3C//DTD SVG 20010904//EN"
 "http://www.w3.org/TR/2001/REC-SVG-20010904/DTD/svg10.dtd">
<svg version="1.0" xmlns="http://www.w3.org/2000/svg"
 width="58.000000pt" height="100.000000pt" viewBox="0 0 58.000000 100.000000"
 preserveAspectRatio="xMidYMid meet">
<metadata>
Created by potrace 1.16, written by Peter Selinger 2001-2019
</metadata>
<g transform="translate(0.000000,100.000000) scale(0.100000,-0.100000)"
fill="#000000" stroke="none">
<path d="M264 945 c-4 -15 -4 -46 0 -71 6 -44 5 -44 -63 -112 -50 -49 -79 -90
-110 -152 -39 -77 -42 -90 -38 -138 3 -29 11 -60 18 -68 18 -22 77 -17 129 13
27 15 52 25 55 21 4 -3 -6 -30 -21 -60 -15 -29 -53 -111 -85 -182 -43 -97 -55
-133 -47 -143 29 -36 46 -11 118 172 24 61 49 116 55 123 10 11 19 -4 48 -75
88 -219 111 -254 144 -221 13 14 4 36 -82 207 -53 105 -94 198 -91 206 8 21
23 19 35 -4 15 -26 100 -81 127 -81 43 0 54 24 54 118 0 78 -3 92 -30 137 -16
28 -30 57 -30 66 0 9 20 43 45 75 48 62 56 99 20 99 -14 0 -33 -20 -60 -62
-22 -34 -47 -63 -55 -63 -8 0 -28 17 -45 38 -25 31 -31 48 -35 107 -4 63 -7
70 -27 73 -17 3 -24 -3 -29 -23z m94 -259 c-17 -33 -69 -96 -78 -96 -12 0 -70
85 -70 103 0 8 18 31 41 52 l41 37 39 -38 c33 -32 37 -40 27 -58z m84 -86 c9
-25 17 -71 17 -102 1 -51 -1 -58 -18 -58 -25 0 -121 76 -121 95 0 24 73 116
90 113 8 -2 22 -23 32 -48z m-228 -7 c20 -25 36 -52 36 -58 0 -36 -81 -95
-130 -95 -21 0 -22 3 -16 49 9 71 44 151 66 151 4 0 24 -21 44 -47z"/>
</g>
</svg>
