<?xml version="1.0" standalone="no"?>
<!DOCTYPE svg PUBLIC "-//W3C//DTD SVG 20010904//EN"
 "http://www.w3.org/TR/2001/REC-SVG-20010904/DTD/svg10.dtd">
<svg version="1.0" xmlns="http://www.w3.org/2000/svg"
 width="344.000000pt" height="590.000000pt" viewBox="0 0 344.000000 590.000000"
 preserveAspectRatio="xMidYMid meet">
<metadata>
Created by potrace 1.16, written by Peter Selinger 2001-2019
</metadata>
<g transform="translate(0.000000,590.000000) scale(0.500000,-0.500000)"
fill="#000000" stroke="none">
<path d="M338 1140 c-19 -4 -24 -20 -20 -61 10 -98 -7 -136 -82 -187 -17 -12
-57 -53 -67 -70 -5 -7 -12 -18 -16 -23 -3 -6 -8 -14 -10 -20 -2 -5 -7 -14 -11
-19 -4 -6 -13 -22 -19 -37 -23 -51 -25 -56 -26 -61 -1 -3 -5 -13 -10 -22 -10
-19 -12 -32 -7 -86 1 -13 1 -30 1 -36 -4 -47 50 -70 113 -49 12 3 26 8 32 10
6 2 14 6 18 9 11 7 41 32 50 40 22 19 32 -18 13 -45 -11 -15 -43 -82 -45 -94
-2 -6 -6 -16 -10 -23 -13 -22 -16 -28 -19 -39 -3 -12 -12 -30 -20 -43 -3 -4
-6 -13 -8 -20 -4 -17 -13 -38 -21 -49 -3 -5 -9 -16 -12 -26 -3 -9 -13 -30 -22
-48 -31 -63 -28 -80 13 -80 20 0 22 3 35 41 2 7 7 19 11 26 10 17 12 22 19 42
10 31 23 63 34 85 6 12 12 25 13 28 2 9 29 73 39 94 4 6 8 18 11 26 19 51 21
49 51 -31 3 -6 8 -17 12 -24 4 -7 10 -19 13 -27 3 -8 9 -20 12 -27 4 -7 12
-28 19 -46 7 -18 15 -37 18 -43 4 -5 9 -17 12 -26 4 -9 8 -20 11 -24 7 -13 18
-39 20 -48 4 -20 28 -48 42 -48 35 1 46 32 22 62 -4 5 -10 16 -14 28 -4 10
-11 24 -15 31 -12 18 -33 63 -39 83 -8 24 -11 30 -24 50 -7 10 -15 25 -19 34
-3 9 -9 21 -12 27 -3 6 -7 15 -8 19 -1 4 -5 12 -8 18 -12 16 -21 34 -31 55 -5
12 -12 27 -16 33 -6 13 -6 13 -6 43 0 41 4 45 21 22 5 -6 14 -17 20 -24 7 -6
14 -15 15 -17 2 -3 10 -8 18 -12 8 -4 17 -9 20 -13 14 -15 46 -35 63 -39 6 -1
16 -4 23 -6 32 -9 67 21 67 58 0 10 1 29 2 43 3 30 3 24 0 76 l-2 43 -15 34
c-17 39 -31 67 -38 76 -23 31 -26 61 -8 77 13 12 18 18 21 25 1 5 9 17 16 27
8 11 18 24 22 30 4 6 13 16 19 22 27 26 29 49 6 63 -18 11 -47 -3 -54 -25 -2
-7 -20 -33 -29 -43 -4 -4 -11 -14 -15 -22 -23 -42 -42 -65 -50 -61 -8 3 -37
29 -45 39 -13 16 -20 26 -34 42 -22 27 -20 21 -20 100 1 77 1 79 -18 82 -4 1
-9 2 -11 2 -2 0 -7 0 -11 -1z m19 -207 c2 -1 9 -9 15 -18 19 -24 34 -40 42
-45 34 -19 35 -52 2 -87 -12 -13 -25 -31 -41 -55 -34 -53 -38 -54 -58 -24 -5
9 -14 20 -19 26 -5 6 -13 16 -17 22 -5 6 -13 18 -20 26 -27 33 -25 66 7 83 5
3 16 12 24 20 8 8 20 18 27 23 6 5 11 9 11 10 0 1 4 5 9 11 8 9 11 10 18 8z
m143 -159 c8 -6 23 -35 32 -60 3 -9 8 -21 11 -27 2 -5 5 -14 6 -21 1 -6 3 -15
4 -20 11 -37 3 -124 -11 -135 -12 -8 -63 17 -97 49 -7 6 -17 15 -22 18 -54 39
-57 62 -15 114 11 14 26 33 33 43 27 39 46 51 59 39z m-280 -24 c7 -7 15 -17
18 -22 4 -5 12 -16 19 -24 57 -68 56 -65 25 -104 -11 -14 -25 -32 -31 -40 -13
-17 -25 -25 -44 -30 -8 -2 -18 -6 -24 -8 -42 -18 -54 -18 -64 -3 -4 7 -4 34 0
54 2 8 3 19 2 24 -2 19 9 63 20 79 3 5 7 13 8 17 1 5 4 13 8 18 3 6 10 17 15
26 16 28 30 32 48 13z"/>
</g>
</svg>
