<?xml version="1.0" standalone="no"?>
<!DOCTYPE svg PUBLIC "-//W3C//DTD SVG 20010904//EN"
 "http://www.w3.org/TR/2001/REC-SVG-20010904/DTD/svg10.dtd">
<svg version="1.0" xmlns="http://www.w3.org/2000/svg"
 width="86.000000pt" height="148.000000pt" viewBox="0 0 86.000000 148.000000"
 preserveAspectRatio="xMidYMid meet">
<metadata>
Created by potrace 1.16, written by Peter Selinger 2001-2019
</metadata>
<g transform="translate(0.000000,148.000000) scale(0.100000,-0.100000)"
fill="#000000" stroke="none">
<path d="M396 1411 c-4 -6 -4 -51 0 -102 l7 -91 -95 -92 c-102 -97 -141 -153
-194 -279 -31 -75 -33 -84 -27 -159 5 -71 9 -81 34 -98 15 -11 37 -20 48 -20
44 0 105 26 146 63 24 20 48 37 54 37 16 0 14 -65 -2 -78 -7 -6 -24 -35 -37
-64 -12 -29 -31 -71 -41 -93 -10 -22 -24 -56 -32 -75 -33 -80 -72 -167 -89
-198 -31 -57 -21 -92 28 -92 8 0 17 8 20 18 10 28 65 162 94 227 15 33 42 99
61 147 19 48 38 86 43 85 5 -2 22 -32 37 -68 25 -61 65 -153 123 -284 55 -125
71 -142 105 -111 26 24 26 38 1 61 -11 10 -20 22 -20 28 0 12 -50 118 -151
319 -76 152 -96 217 -70 233 5 3 22 -11 37 -31 33 -42 138 -119 177 -128 32
-8 84 18 93 46 10 33 6 212 -6 243 -20 52 -43 99 -67 136 -25 39 -22 71 11 98
9 7 16 18 16 23 0 9 51 77 83 110 9 10 17 25 17 33 0 18 -37 38 -55 31 -8 -3
-42 -48 -76 -101 -34 -52 -68 -95 -75 -95 -12 0 -83 74 -111 117 -10 15 -15
52 -16 115 l-2 93 -32 3 c-17 2 -34 -1 -37 -7z m67 -264 c9 -13 32 -39 51 -58
43 -40 44 -55 11 -100 -13 -19 -41 -58 -61 -86 -20 -29 -40 -53 -44 -53 -16 0
-120 149 -120 171 0 16 20 44 63 85 34 33 67 61 73 62 7 1 19 -9 27 -21z m194
-248 c29 -65 33 -85 33 -165 0 -74 -3 -93 -16 -98 -42 -16 -204 114 -204 164
0 15 7 33 16 41 9 7 30 33 47 58 36 54 66 83 81 78 6 -2 26 -37 43 -78z m-333
-25 c31 -40 56 -78 56 -83 0 -5 -20 -33 -45 -64 -36 -43 -58 -59 -103 -76 -93
-35 -101 -24 -83 106 9 59 61 180 84 195 18 11 33 -2 91 -78z"/>
</g>
</svg>
