<?xml version="1.0" standalone="no"?>
<!DOCTYPE svg PUBLIC "-//W3C//DTD SVG 20010904//EN"
 "http://www.w3.org/TR/2001/REC-SVG-20010904/DTD/svg10.dtd">
<svg version="1.0" xmlns="http://www.w3.org/2000/svg"
 width="360.000000pt" height="590.000000pt" viewBox="0 0 360.000000 590.000000"
 preserveAspectRatio="xMidYMid meet">
<metadata>
Created by potrace 1.16, written by Peter Selinger 2001-2019
</metadata>
<g transform="translate(0.000000,590.000000) scale(0.500000,-0.500000)"
fill="#000000" stroke="none">
<path d="M328 1136 c-8 -3 -8 -5 -8 -51 1 -55 1 -59 -3 -63 -4 -4 -15 -4 -157
-1 -109 3 -113 3 -116 -3 -3 -6 -3 -271 0 -280 2 -4 2 -23 2 -49 0 -23 1 -43
1 -44 4 -5 11 -7 21 -7 6 0 15 -1 20 -3 12 -4 17 -2 30 11 6 6 19 16 28 23 9
7 22 16 28 21 6 4 15 11 21 13 6 3 12 7 13 9 1 2 9 7 17 11 8 4 16 9 17 11 4
5 37 30 48 35 5 3 10 6 12 8 4 5 13 9 19 9 9 0 8 8 6 -135 -2 -121 -2 -126
-19 -155 -3 -4 -7 -16 -10 -26 -3 -10 -8 -22 -11 -26 -4 -7 -16 -36 -18 -47
-1 -3 -4 -11 -7 -17 -7 -14 -14 -32 -20 -52 -2 -8 -7 -19 -10 -24 -4 -6 -8
-15 -9 -21 -2 -7 -5 -15 -7 -19 -5 -8 -15 -32 -19 -47 -2 -7 -5 -14 -7 -17 -4
-6 -11 -22 -13 -30 0 -3 -4 -9 -7 -15 -5 -6 -8 -14 -10 -27 -2 -9 -5 -21 -8
-25 -12 -23 -2 -40 24 -41 30 -1 45 8 51 30 6 19 12 38 18 50 2 6 7 18 9 27 2
9 7 19 9 22 3 4 8 18 13 34 4 15 9 29 12 32 5 6 6 7 9 24 2 10 6 20 9 25 5 8
14 33 17 48 1 4 5 12 8 18 4 6 7 12 7 14 0 6 18 55 22 59 7 7 17 -6 31 -42 4
-9 9 -21 13 -26 3 -5 7 -15 8 -21 2 -7 5 -15 7 -19 6 -7 9 -13 16 -31 3 -7 7
-16 8 -19 2 -3 6 -14 10 -24 4 -10 9 -21 10 -24 9 -16 19 -36 19 -38 0 -3 13
-32 32 -70 6 -10 10 -21 10 -23 0 -13 12 -37 24 -48 17 -17 24 -16 48 6 12 11
8 53 -6 74 -3 4 -8 16 -11 25 -3 10 -8 21 -11 25 -3 4 -10 16 -15 27 -10 21
-12 27 -24 57 -4 10 -10 22 -13 26 -8 11 -10 15 -11 28 -2 20 -2 21 -10 26 -5
3 -8 6 -9 13 -2 6 -5 12 -9 16 -4 4 -8 11 -11 20 -5 15 -13 33 -21 44 -3 4 -7
15 -10 24 -3 9 -7 18 -9 21 -2 3 -6 11 -9 18 -4 8 -9 16 -14 20 -6 5 -8 9 -9
16 -3 16 -2 72 1 85 2 10 2 13 0 22 -3 13 -6 116 -3 123 7 18 26 19 47 3 4 -3
14 -10 21 -14 7 -4 15 -9 17 -11 2 -3 9 -7 15 -10 7 -3 15 -9 18 -12 4 -3 12
-8 17 -11 6 -3 14 -8 17 -11 4 -3 14 -9 22 -13 8 -4 19 -10 24 -14 21 -16 64
-22 74 -12 5 5 5 -4 4 181 0 181 2 164 -21 166 -9 1 -19 3 -22 4 -5 2 -33 2
-116 1 -133 -2 -117 -8 -117 47 0 61 -21 82 -64 66z m260 -177 c2 -2 9 -6 15
-9 13 -7 13 -7 13 -108 -1 -98 0 -97 -42 -67 -5 3 -15 9 -23 13 -8 4 -19 10
-25 15 -6 5 -17 11 -24 15 -7 4 -15 8 -18 10 -14 10 -29 18 -47 28 -45 24 -48
28 -47 65 1 37 -5 34 74 33 63 0 63 0 73 5 13 7 44 7 51 0z m-270 -11 c17 -17
4 -88 -18 -95 -28 -9 -37 -14 -46 -25 -6 -7 -13 -12 -23 -17 -8 -4 -18 -10
-23 -14 -5 -4 -16 -10 -23 -13 -8 -3 -17 -9 -20 -12 -3 -3 -10 -7 -14 -9 -4
-2 -11 -6 -14 -9 -15 -15 -23 -10 -25 15 -1 11 -3 24 -4 28 -1 4 -2 14 -2 22
0 11 -1 16 -5 24 -9 18 -7 66 3 76 4 5 9 11 11 14 5 10 7 10 48 12 25 0 42 2
48 4 17 5 102 4 107 -1z"/>
</g>
</svg>
