<?xml version="1.0" standalone="no"?>
<!DOCTYPE svg PUBLIC "-//W3C//DTD SVG 20010904//EN"
 "http://www.w3.org/TR/2001/REC-SVG-20010904/DTD/svg10.dtd">
<svg version="1.0" xmlns="http://www.w3.org/2000/svg"
 width="90.000000pt" height="148.000000pt" viewBox="0 0 90.000000 148.000000"
 preserveAspectRatio="xMidYMid meet">
<metadata>
Created by potrace 1.16, written by Peter Selinger 2001-2019
</metadata>
<g transform="translate(0.000000,148.000000) scale(0.100000,-0.100000)"
fill="#000000" stroke="none">
<path d="M398 1413 c0 -5 -2 -37 -2 -73 l-1 -65 -170 0 -170 0 0 -240 0 -239
32 -3 c25 -2 47 8 96 45 129 95 168 122 178 122 5 0 9 4 9 9 0 5 9 11 20 14
19 5 20 0 20 -150 0 -161 1 -158 -55 -288 -7 -16 -34 -84 -60 -150 -25 -66
-59 -149 -74 -185 -48 -109 -47 -140 4 -140 22 0 55 28 55 46 0 5 34 101 76
214 42 113 78 211 80 218 6 20 32 14 39 -10 4 -13 18 -47 31 -76 13 -29 24
-54 24 -56 0 -3 23 -53 50 -113 57 -121 63 -134 80 -180 6 -17 20 -39 29 -47
16 -14 19 -14 39 4 30 28 28 52 -12 134 -57 119 -96 208 -96 222 0 7 -3 14 -8
16 -7 3 -92 171 -92 183 0 4 -8 17 -17 29 -15 19 -18 45 -18 177 0 177 4 183
78 132 23 -15 47 -30 52 -33 6 -3 43 -26 83 -53 45 -29 83 -47 102 -47 l30 0
0 219 0 219 -52 7 c-28 4 -106 6 -172 4 l-121 -4 0 60 c0 33 -4 66 -8 73 -9
13 -76 17 -79 5z m347 -219 c24 -16 25 -20 25 -135 0 -76 -4 -119 -10 -119 -6
0 -38 18 -70 39 -33 22 -89 56 -124 76 -80 45 -88 54 -84 102 l3 38 92 0 c50
0 95 3 99 8 12 12 43 8 69 -9z m-347 -53 c3 -58 -6 -76 -44 -85 -13 -4 -32
-14 -42 -22 -32 -29 -167 -112 -174 -107 -5 2 -8 28 -8 56 -1 29 -5 72 -10 97
-6 35 -5 51 7 71 15 25 22 27 132 36 64 5 121 9 126 8 6 -1 11 -25 13 -54z"/>
</g>
</svg>
