<?xml version="1.0" standalone="no"?>
<!DOCTYPE svg PUBLIC "-//W3C//DTD SVG 20010904//EN"
 "http://www.w3.org/TR/2001/REC-SVG-20010904/DTD/svg10.dtd">
<svg version="1.0" xmlns="http://www.w3.org/2000/svg"
 width="61.000000pt" height="100.000000pt" viewBox="0 0 61.000000 100.000000"
 preserveAspectRatio="xMidYMid meet">
<metadata>
Created by potrace 1.16, written by Peter Selinger 2001-2019
</metadata>
<g transform="translate(0.000000,100.000000) scale(0.100000,-0.100000)"
fill="#000000" stroke="none">
<path d="M268 918 l-3 -53 -107 3 c-136 5 -132 11 -121 -188 7 -127 10 -145
26 -148 10 -2 56 25 107 63 49 37 94 64 100 60 7 -4 8 -42 4 -113 -7 -103 -10
-114 -81 -286 -40 -99 -73 -183 -73 -188 0 -4 8 -12 19 -17 32 -18 49 9 105
164 30 82 58 151 63 152 5 2 41 -70 79 -159 63 -148 72 -163 94 -163 45 0 35
40 -60 239 l-90 189 0 98 c0 65 4 99 11 99 6 0 49 -25 94 -55 46 -30 93 -55
103 -55 27 0 32 25 32 167 0 149 2 146 -139 141 l-96 -3 -3 45 c-3 46 -14 60
-44 60 -13 0 -18 -11 -20 -52z m237 -118 c3 -5 9 -41 12 -80 7 -86 3 -87 -99
-25 -77 47 -105 80 -86 102 13 16 164 18 173 3z m-235 -33 c0 -31 -6 -37 -72
-79 -102 -65 -101 -65 -110 12 -10 90 0 100 104 100 l78 0 0 -33z"/>
</g>
</svg>
