<?xml version="1.0" standalone="no"?>
<!DOCTYPE svg PUBLIC "-//W3C//DTD SVG 20010904//EN"
 "http://www.w3.org/TR/2001/REC-SVG-20010904/DTD/svg10.dtd">
<svg version="1.0" xmlns="http://www.w3.org/2000/svg"
 width="130.000000pt" height="148.000000pt" viewBox="0 0 130.000000 148.000000"
 preserveAspectRatio="xMidYMid meet">
<metadata>
Created by potrace 1.16, written by Peter Selinger 2001-2019
</metadata>
<g transform="translate(0.000000,148.000000) scale(0.100000,-0.100000)"
fill="#000000" stroke="none">
<path d="M574 1449 c-3 -6 -5 -65 -3 -132 l4 -122 -35 1 c-19 1 -114 2 -210 4
l-175 3 -3 -234 c-2 -212 -4 -235 -21 -254 -10 -11 -34 -49 -52 -85 l-34 -65
0 -146 0 -146 44 -87 c27 -54 57 -97 77 -112 31 -24 34 -24 57 -9 27 17 86
102 105 150 22 54 40 210 31 266 -13 82 -49 191 -75 226 -13 17 -24 36 -24 40
0 5 21 27 47 48 27 22 95 85 151 140 57 55 108 102 113 103 5 2 9 -89 9 -213
l0 -217 -30 -71 c-17 -40 -37 -85 -45 -102 -7 -16 -29 -73 -48 -125 -19 -52
-50 -130 -68 -172 -28 -65 -30 -79 -19 -93 7 -9 24 -15 38 -13 23 3 33 24 114
233 48 126 93 234 98 239 6 6 12 2 16 -10 21 -56 183 -428 203 -464 11 -21 55
-24 70 -6 10 12 5 30 -28 99 -23 47 -41 88 -41 91 0 4 -15 39 -34 79 -18 40
-61 133 -94 207 l-60 135 -4 208 c-2 114 0 207 3 207 4 0 321 -314 348 -345 3
-3 -7 -29 -21 -58 -14 -29 -31 -72 -37 -97 -7 -25 -16 -58 -21 -74 -5 -16 -6
-34 -1 -40 4 -6 11 -40 14 -76 9 -95 59 -225 105 -272 20 -21 46 -38 57 -38
32 0 93 47 115 89 40 79 47 115 45 237 -2 105 -6 130 -34 214 -18 53 -44 107
-58 122 l-26 27 2 220 c2 157 -1 221 -9 226 -7 4 -118 8 -248 9 l-237 1 0 120
c0 66 -4 126 -8 133 -10 15 -53 16 -63 1z m-35 -336 c0 -10 -19 -33 -42 -52
-23 -18 -62 -49 -87 -69 -25 -20 -68 -61 -97 -90 -77 -81 -87 -74 -91 64 -1
61 2 123 7 138 l11 26 150 0 c136 0 150 -2 149 -17z m349 5 c92 -1 156 -6 162
-13 13 -16 16 -313 2 -327 -8 -8 -35 14 -106 88 -52 54 -130 130 -174 169 -45
40 -77 75 -75 83 3 7 13 10 22 7 9 -3 86 -6 169 -7z m-661 -420 c6 -7 18 -35
27 -63 10 -27 22 -58 27 -68 14 -27 24 -95 24 -177 0 -60 -6 -89 -29 -145 -49
-122 -82 -135 -127 -52 -58 109 -69 274 -24 392 40 106 76 146 102 113z m914
-65 c20 -44 42 -111 49 -153 14 -80 8 -210 -10 -251 -54 -120 -81 -128 -133
-42 -45 75 -61 154 -53 263 10 129 58 260 95 260 10 0 30 -29 52 -77z"/>
</g>
</svg>
