<?xml version="1.0" standalone="no"?>
<!DOCTYPE svg PUBLIC "-//W3C//DTD SVG 20010904//EN"
 "http://www.w3.org/TR/2001/REC-SVG-20010904/DTD/svg10.dtd">
<svg version="1.0" xmlns="http://www.w3.org/2000/svg"
 width="88.000000pt" height="100.000000pt" viewBox="0 0 88.000000 100.000000"
 preserveAspectRatio="xMidYMid meet">
<metadata>
Created by potrace 1.16, written by Peter Selinger 2001-2019
</metadata>
<g transform="translate(0.000000,100.000000) scale(0.100000,-0.100000)"
fill="#000000" stroke="none">
<path d="M390 975 c-9 -11 -10 -36 -5 -91 l7 -77 -144 4 -143 4 -3 -152 -3
-151 -34 -58 c-34 -57 -35 -60 -35 -166 0 -91 3 -116 21 -151 36 -71 59 -97
84 -97 51 0 115 141 115 251 0 50 -34 174 -50 184 -24 15 -3 46 84 128 52 48
97 87 100 87 3 0 6 -63 6 -140 l0 -140 -43 -103 c-113 -266 -119 -287 -78
-287 27 0 32 10 91 168 30 78 58 141 63 139 6 -2 38 -70 73 -152 35 -82 70
-155 78 -164 14 -13 17 -13 34 3 19 16 18 20 -48 164 -37 81 -76 165 -88 188
-17 33 -22 68 -28 187 -4 81 -3 147 1 147 4 0 56 -50 116 -110 l109 -110 -26
-78 c-21 -62 -25 -88 -20 -132 15 -131 81 -249 130 -234 65 20 95 87 96 215 0
102 -17 180 -49 220 -15 20 -20 50 -26 174 -4 95 -11 153 -18 157 -7 4 -81 8
-164 8 l-153 0 0 84 c0 67 -3 85 -16 90 -21 8 -20 8 -34 -9z m-30 -228 c0 -7
-29 -35 -65 -61 -35 -26 -75 -61 -89 -78 -17 -22 -29 -29 -41 -24 -16 6 -17
16 -11 83 4 42 9 80 12 85 3 4 48 8 100 8 71 0 94 -3 94 -13z m270 3 l78 0 7
-99 c8 -111 4 -128 -25 -108 -47 33 -210 199 -204 209 4 5 20 7 36 4 17 -3 65
-6 108 -6z m-450 -356 c26 -90 25 -178 -5 -239 -29 -58 -51 -57 -77 2 -32 70
-31 189 1 261 34 76 53 70 81 -24z m599 11 c64 -159 -3 -394 -73 -260 -43 82
-18 333 33 323 9 -2 26 -29 40 -63z"/>
</g>
</svg>
