<?xml version="1.0" standalone="no"?>
<!DOCTYPE svg PUBLIC "-//W3C//DTD SVG 20010904//EN"
 "http://www.w3.org/TR/2001/REC-SVG-20010904/DTD/svg10.dtd">
<svg version="1.0" xmlns="http://www.w3.org/2000/svg"
 width="520.000000pt" height="590.000000pt" viewBox="0 0 520.000000 590.000000"
 preserveAspectRatio="xMidYMid meet">
<metadata>
Created by potrace 1.16, written by Peter Selinger 2001-2019
</metadata>
<g transform="translate(0.000000,590.000000) scale(0.500000,-0.500000)"
fill="#000000" stroke="none">
<path d="M473 1164 c-18 -2 -21 -27 -15 -117 4 -53 3 -82 -1 -86 -4 -5 -3 -5
-74 -1 -26 1 -84 3 -128 4 -44 1 -82 2 -84 3 -2 1 -12 0 -23 -1 -30 -3 -27 20
-26 -189 0 -120 0 -180 -2 -182 -1 -2 -8 -11 -15 -20 -8 -9 -15 -20 -17 -27
-2 -6 -7 -14 -9 -19 -3 -4 -7 -11 -8 -16 -2 -4 -7 -14 -11 -21 -12 -19 -16
-31 -19 -48 -1 -8 -4 -23 -6 -32 -3 -16 -4 -20 -1 -43 1 -16 1 -34 0 -46 -3
-50 6 -111 22 -137 4 -7 10 -18 12 -25 2 -6 7 -17 12 -23 4 -6 9 -17 12 -23 2
-7 9 -18 14 -24 6 -7 12 -15 14 -19 4 -9 27 -22 40 -24 19 -1 44 19 65 54 6 9
14 22 19 30 4 7 14 24 20 37 13 26 13 26 18 78 1 10 3 22 5 26 7 22 10 82 5
107 -2 8 -5 23 -7 33 -4 20 -13 54 -24 87 -3 12 -7 25 -8 29 -2 11 -9 24 -26
45 -20 25 -24 18 50 86 52 48 95 88 136 128 58 56 52 71 52 -134 -1 -181 0
-175 -15 -199 -7 -12 -26 -57 -30 -71 -3 -8 -9 -23 -14 -33 -5 -10 -10 -22
-11 -26 -1 -5 -6 -18 -10 -31 -5 -13 -11 -27 -13 -33 -8 -23 -25 -64 -36 -91
-24 -60 -30 -73 -37 -90 -12 -30 -10 -42 12 -54 21 -11 37 -3 47 25 6 18 20
53 53 136 17 42 31 79 64 164 24 60 26 62 40 29 30 -67 46 -103 60 -136 9 -20
21 -48 27 -62 6 -14 17 -39 25 -56 17 -36 23 -49 32 -72 19 -50 27 -56 57 -41
26 13 26 15 -4 80 -39 87 -42 94 -53 124 -3 8 -10 22 -15 31 -6 10 -14 27 -18
37 -5 11 -15 34 -23 52 -15 32 -23 50 -35 80 -4 9 -13 27 -19 41 -23 44 -21
32 -23 152 -1 58 -3 130 -4 161 -3 86 -19 93 144 -69 155 -155 142 -138 126
-165 -11 -17 -21 -40 -29 -66 -7 -25 -8 -26 -14 -40 -3 -7 -5 -16 -5 -21 0 -4
-2 -18 -4 -30 -5 -21 -5 -21 0 -34 4 -10 4 -15 3 -25 -1 -10 0 -13 3 -19 3 -5
4 -12 4 -18 0 -26 22 -104 41 -148 4 -9 7 -17 7 -18 0 -7 13 -24 25 -35 7 -7
20 -18 27 -25 26 -25 56 -19 98 21 26 25 61 108 60 146 -1 26 2 90 4 103 1 9
1 15 -2 28 -2 9 -4 21 -4 26 0 11 -5 30 -11 42 -3 6 -5 13 -5 19 0 9 -7 29
-20 58 -4 10 -9 25 -11 32 -4 19 -12 31 -26 44 -18 16 -22 25 -18 40 3 11 3
19 2 79 -1 37 -2 101 -2 142 -1 135 29 117 -199 117 -228 -1 -196 -17 -196
102 1 117 2 114 -47 107z m-47 -265 c16 -7 -2 -29 -69 -83 -9 -7 -24 -20 -33
-29 -9 -9 -22 -19 -29 -23 -14 -8 -32 -24 -53 -49 -18 -21 -29 -29 -42 -29
-18 0 -18 -3 -16 104 1 102 2 105 18 111 7 2 219 1 224 -2z m255 -5 c44 -1 96
-2 115 -3 54 -1 52 2 53 -67 1 -26 1 -54 2 -63 1 -15 2 -104 1 -121 0 -10 -6
-16 -14 -16 -6 0 -15 8 -81 74 -41 40 -98 96 -127 123 -58 55 -69 66 -67 70 1
5 10 7 24 6 8 0 50 -2 94 -3z m205 -331 c5 -5 24 -39 24 -44 0 -5 10 -26 17
-34 11 -14 21 -43 19 -57 0 -3 1 -10 4 -17 2 -5 4 -15 5 -22 0 -7 2 -16 4 -20
4 -9 6 -45 3 -65 -2 -8 -1 -16 0 -24 2 -11 1 -22 -6 -51 -1 -4 -4 -17 -6 -29
-4 -19 -4 -21 -15 -35 -6 -8 -13 -19 -15 -26 -17 -49 -49 -41 -83 21 -6 12
-15 25 -18 31 -6 8 -8 12 -9 24 -1 8 -3 18 -5 22 -7 18 -13 102 -8 124 1 8 4
25 5 38 8 90 57 186 84 164z m-703 -5 c4 -5 9 -13 11 -19 2 -5 7 -16 11 -24 4
-8 7 -15 7 -16 0 -7 13 -42 20 -56 7 -13 8 -17 8 -27 0 -6 1 -18 3 -25 7 -34
8 -43 6 -76 -2 -54 -5 -75 -17 -93 -4 -7 -11 -23 -17 -40 -20 -59 -48 -80 -74
-56 -12 11 -41 77 -46 103 -2 10 -4 22 -6 27 -1 5 -3 16 -4 25 -1 9 -3 20 -4
24 -5 11 -4 36 1 54 3 10 4 20 4 36 0 30 10 66 29 103 4 7 7 15 8 18 0 3 4 9
7 12 3 4 9 12 12 18 15 23 28 26 41 12z"/>
</g>
</svg>
