<?xml version="1.0" standalone="no"?>
<!DOCTYPE svg PUBLIC "-//W3C//DTD SVG 20010904//EN"
 "http://www.w3.org/TR/2001/REC-SVG-20010904/DTD/svg10.dtd">
<svg version="1.0" xmlns="http://www.w3.org/2000/svg"
 width="46.000000pt" height="100.000000pt" viewBox="0 0 46.000000 100.000000"
 preserveAspectRatio="xMidYMid meet">
<metadata>
Created by potrace 1.16, written by Peter Selinger 2001-2019
</metadata>
<g transform="translate(0.000000,100.000000) scale(0.100000,-0.100000)"
fill="#000000" stroke="none">
<path d="M44 955 c-9 -22 5 -33 46 -37 42 -4 45 -18 7 -36 -36 -17 -32 -46 6
-50 20 -3 28 -10 32 -30 4 -15 15 -50 26 -77 10 -28 19 -55 19 -61 0 -5 -34
-26 -75 -47 -75 -37 -88 -54 -60 -77 12 -10 23 -8 57 10 23 12 53 30 66 41 14
10 28 16 33 13 5 -3 9 -56 9 -117 l0 -112 -66 -150 c-74 -166 -81 -198 -47
-203 29 -4 43 19 89 151 21 59 43 107 48 107 6 0 39 -54 73 -119 66 -125 83
-147 108 -137 31 11 17 47 -88 219 l-62 102 -3 112 c-5 146 -2 151 68 107 62
-38 93 -40 98 -6 3 19 -7 27 -72 58 -42 20 -79 40 -82 45 -2 5 3 20 12 34 10
15 22 50 29 78 11 50 13 52 51 57 49 6 52 29 7 49 -40 18 -43 41 -5 41 36 0
56 14 49 34 -6 14 -19 16 -69 14 l-63 -3 -7 -85 c-18 -217 -76 -219 -95 -3
l-8 88 -63 3 c-50 2 -63 0 -68 -13z"/>
</g>
</svg>
