<?xml version="1.0" standalone="no"?>
<!DOCTYPE svg PUBLIC "-//W3C//DTD SVG 20010904//EN"
 "http://www.w3.org/TR/2001/REC-SVG-20010904/DTD/svg10.dtd">
<svg version="1.0" xmlns="http://www.w3.org/2000/svg"
 width="68.000000pt" height="148.000000pt" viewBox="0 0 68.000000 148.000000"
 preserveAspectRatio="xMidYMid meet">
<metadata>
Created by potrace 1.16, written by Peter Selinger 2001-2019
</metadata>
<g transform="translate(0.000000,148.000000) scale(0.100000,-0.100000)"
fill="#000000" stroke="none">
<path d="M76 1433 c-10 -11 -7 -48 6 -61 7 -7 33 -12 59 -12 34 0 49 -4 53
-16 8 -21 9 -20 -39 -36 -35 -11 -40 -17 -40 -43 0 -28 2 -30 39 -30 43 0 54
-14 55 -73 1 -18 5 -40 10 -50 6 -9 17 -38 27 -64 9 -26 23 -49 31 -52 23 -9
9 -21 -99 -76 -130 -66 -136 -71 -118 -105 16 -30 36 -31 70 -5 14 11 30 20
35 20 6 0 35 16 65 35 89 58 88 59 83 -117 -2 -84 -5 -164 -7 -178 -7 -49
-144 -390 -177 -441 -36 -56 -28 -99 20 -99 33 0 42 10 60 65 7 22 16 49 21
60 5 11 28 73 51 137 23 65 47 125 53 134 10 14 30 -16 122 -186 60 -111 115
-205 122 -207 21 -9 62 7 62 23 0 9 -8 28 -18 42 -10 15 -38 65 -62 112 -23
47 -48 92 -55 100 -7 8 -32 51 -55 95 -23 44 -47 86 -53 93 -13 16 -17 402 -5
402 5 0 24 -11 41 -24 39 -30 147 -86 164 -86 15 0 37 49 28 59 -10 10 -96 57
-167 92 -38 17 -68 37 -68 42 0 6 10 22 23 36 27 30 47 92 47 145 0 64 13 78
68 70 38 -5 51 -3 62 11 20 24 3 45 -47 60 -58 17 -65 23 -53 45 8 15 19 18
56 15 40 -2 46 0 54 21 17 45 4 54 -74 53 -108 -2 -106 0 -106 -77 -1 -102
-15 -191 -41 -257 -29 -72 -52 -82 -72 -32 -20 47 -47 208 -50 292 l-2 70 -86
2 c-48 1 -89 -1 -93 -4z"/>
</g>
</svg>
