<?xml version="1.0" standalone="no"?>
<!DOCTYPE svg PUBLIC "-//W3C//DTD SVG 20010904//EN"
 "http://www.w3.org/TR/2001/REC-SVG-20010904/DTD/svg10.dtd">
<svg version="1.0" xmlns="http://www.w3.org/2000/svg"
 width="124.000000pt" height="148.000000pt" viewBox="0 0 124.000000 148.000000"
 preserveAspectRatio="xMidYMid meet">
<metadata>
Created by potrace 1.16, written by Peter Selinger 2001-2019
</metadata>
<g transform="translate(0.000000,148.000000) scale(0.100000,-0.100000)"
fill="#000000" stroke="none">
<path d="M367 1424 c-4 -4 -7 -20 -7 -35 0 -22 6 -30 25 -35 14 -3 34 -4 45
-1 24 6 59 -18 45 -31 -5 -5 -27 -15 -48 -22 -33 -10 -38 -16 -35 -38 3 -24 7
-27 41 -27 45 0 57 -15 57 -71 0 -22 3 -44 7 -47 3 -4 14 -30 24 -58 10 -28
25 -56 33 -63 22 -16 9 -29 -61 -65 -62 -31 -100 -40 -88 -21 3 5 1 17 -4 27
-5 10 -15 33 -22 51 -15 40 -70 100 -120 129 -36 20 -38 21 -66 3 -38 -23
-116 -116 -134 -160 -22 -55 -14 -319 12 -374 25 -53 116 -156 137 -156 28 1
97 71 135 137 23 40 43 93 55 153 11 50 22 93 24 94 52 35 143 86 154 86 12 0
14 -27 14 -161 0 -174 -5 -195 -88 -395 -16 -39 -40 -100 -52 -135 -13 -35
-26 -66 -30 -69 -4 -3 -12 -20 -18 -39 -10 -29 -10 -37 4 -53 36 -39 62 -14
97 92 14 41 32 93 40 115 9 22 27 73 42 113 15 39 30 72 35 72 7 0 101 -172
198 -362 13 -27 25 -48 27 -48 2 0 16 5 30 12 30 14 32 40 6 77 -11 15 -37 64
-59 108 -21 45 -43 88 -49 95 -6 7 -33 56 -61 108 l-50 95 -3 183 c-1 100 0
185 3 188 6 6 149 -83 160 -100 4 -6 8 -29 8 -52 0 -86 51 -193 123 -262 30
-28 63 -52 72 -52 24 0 114 98 139 150 18 39 21 64 21 190 0 80 -4 162 -8 182
-9 45 -84 138 -131 163 -29 16 -38 17 -64 6 -16 -7 -41 -25 -55 -39 -36 -38
-97 -150 -97 -178 0 -27 -12 -31 -30 -9 -7 8 -16 15 -21 15 -10 0 -119 69
-119 75 0 2 11 16 25 30 27 30 55 115 55 168 0 43 12 52 70 52 43 0 45 1 45
30 0 26 -4 30 -40 37 -64 13 -67 15 -55 38 8 15 21 20 55 20 52 0 77 27 49 54
-19 19 -149 23 -160 5 -4 -7 -8 -62 -10 -123 -3 -104 -9 -132 -46 -211 -18
-38 -38 -59 -47 -49 -25 26 -52 145 -58 257 -4 72 -10 120 -17 122 -27 8 -153
15 -159 9z m-59 -454 c38 -68 42 -81 42 -143 0 -37 -4 -75 -9 -85 -6 -9 -21
-49 -36 -88 -14 -40 -40 -87 -60 -109 -35 -38 -35 -38 -57 -19 -11 10 -37 53
-56 94 -34 74 -35 76 -29 177 4 63 12 114 21 130 8 16 21 39 27 53 25 49 52
71 84 68 26 -3 36 -13 73 -78z m746 49 c14 -17 26 -37 26 -45 0 -8 7 -17 15
-20 22 -9 32 -60 34 -170 2 -106 -12 -157 -62 -231 -30 -45 -57 -43 -94 10
-40 56 -93 210 -93 270 0 45 32 125 78 194 21 34 64 30 96 -8z"/>
</g>
</svg>
