<?xml version="1.0" standalone="no"?>
<!DOCTYPE svg PUBLIC "-//W3C//DTD SVG 20010904//EN"
 "http://www.w3.org/TR/2001/REC-SVG-20010904/DTD/svg10.dtd">
<svg version="1.0" xmlns="http://www.w3.org/2000/svg"
 width="84.000000pt" height="100.000000pt" viewBox="0 0 84.000000 100.000000"
 preserveAspectRatio="xMidYMid meet">
<metadata>
Created by potrace 1.16, written by Peter Selinger 2001-2019
</metadata>
<g transform="translate(0.000000,100.000000) scale(0.100000,-0.100000)"
fill="#000000" stroke="none">
<path d="M244 955 c-8 -19 3 -35 24 -35 9 0 24 -5 32 -10 13 -8 10 -14 -15
-34 -33 -27 -28 -42 15 -48 20 -2 26 -10 28 -33 2 -16 13 -54 25 -83 21 -54
21 -54 2 -68 -26 -19 -68 -30 -72 -18 -19 51 -64 112 -95 129 -37 20 -37 20
-64 -1 -16 -11 -41 -37 -58 -58 -28 -34 -30 -44 -34 -131 -5 -119 1 -150 40
-209 56 -86 96 -83 156 11 27 43 37 69 56 155 4 19 21 36 52 54 24 14 48 23
52 20 3 -4 5 -57 4 -119 -3 -110 -4 -114 -58 -247 -65 -156 -74 -197 -49 -206
26 -11 41 13 83 136 24 71 45 115 53 115 7 0 43 -56 79 -125 50 -97 70 -125
85 -125 39 0 27 41 -54 189 l-81 147 0 119 c0 66 4 120 8 120 17 0 90 -59 95
-77 3 -10 8 -36 12 -58 4 -21 15 -55 25 -75 20 -38 82 -100 102 -100 22 0 76
50 94 87 25 52 27 252 1 299 -18 35 -81 94 -100 94 -36 -1 -79 -44 -116 -117
l-21 -43 -45 22 c-50 24 -52 28 -30 66 9 15 21 50 28 77 11 47 14 50 47 55 45
6 46 30 3 49 -42 19 -42 28 3 37 38 7 56 30 33 45 -8 5 -36 8 -64 7 l-50 -3
-7 -85 c-7 -91 -32 -170 -54 -170 -18 0 -33 58 -40 155 -5 55 -11 84 -22 93
-22 17 -101 16 -108 -3z m505 -342 c19 -66 13 -143 -14 -200 -26 -57 -42 -64
-69 -34 -21 23 -66 146 -66 181 0 34 44 125 67 139 15 9 23 5 45 -19 15 -16
32 -46 37 -67z m-535 24 l29 -58 -17 -65 c-8 -37 -26 -85 -39 -108 -30 -56
-55 -55 -85 4 -20 39 -23 57 -20 131 3 76 6 90 31 123 41 53 64 46 101 -27z"/>
</g>
</svg>
