<?xml version="1.0" standalone="no"?>
<!DOCTYPE svg PUBLIC "-//W3C//DTD SVG 20010904//EN"
 "http://www.w3.org/TR/2001/REC-SVG-20010904/DTD/svg10.dtd">
<svg version="1.0" xmlns="http://www.w3.org/2000/svg"
 width="496.000000pt" height="590.000000pt" viewBox="0 0 496.000000 590.000000"
 preserveAspectRatio="xMidYMid meet">
<metadata>
Created by potrace 1.16, written by Peter Selinger 2001-2019
</metadata>
<g transform="translate(0.000000,590.000000) scale(0.500000,-0.500000)"
fill="#000000" stroke="none">
<path d="M299 1140 c-9 -7 -13 -38 -6 -48 5 -6 22 -10 48 -11 32 -1 46 -8 39
-22 -2 -4 -3 -5 -34 -16 -40 -14 -42 -19 -27 -53 5 -10 23 -11 48 -3 12 5 15
3 18 -11 2 -5 4 -12 5 -15 2 -2 3 -17 4 -32 1 -27 1 -29 7 -36 3 -4 10 -20 16
-39 15 -42 18 -49 28 -61 14 -14 19 -10 -77 -59 -36 -18 -36 -18 -39 2 -1 6
-3 12 -5 14 -2 3 -4 9 -5 13 -4 24 -39 80 -56 91 -5 3 -12 10 -16 15 -4 6 -9
12 -14 14 -4 2 -15 8 -25 14 -33 19 -73 -1 -114 -59 -4 -5 -13 -15 -20 -23
-12 -13 -18 -23 -18 -32 0 -1 -2 -6 -4 -10 -3 -4 -6 -16 -8 -25 -2 -9 -5 -23
-7 -31 -4 -18 -4 -43 0 -65 2 -13 3 -30 3 -65 -1 -41 -1 -49 2 -55 2 -4 4 -14
5 -23 1 -9 3 -20 5 -24 2 -5 4 -12 5 -17 1 -6 3 -11 6 -14 3 -3 8 -9 10 -15 7
-12 11 -18 19 -24 3 -2 10 -10 15 -16 9 -13 39 -44 47 -49 10 -7 27 -5 37 4 4
4 11 9 14 11 23 15 48 41 52 55 0 3 4 8 9 12 8 6 11 13 18 36 4 13 6 16 14 21
9 6 12 11 12 24 0 4 1 12 3 17 1 5 4 20 5 33 2 18 4 26 7 32 3 5 5 13 6 23 2
27 6 33 39 51 12 6 30 17 40 23 46 28 57 32 60 23 5 -13 1 -261 -4 -271 -2 -5
-6 -13 -7 -18 -2 -5 -7 -22 -13 -37 -5 -15 -11 -33 -14 -40 -2 -7 -7 -19 -11
-28 -10 -24 -17 -43 -29 -73 -6 -15 -14 -33 -17 -40 -4 -7 -8 -18 -10 -24 -3
-11 -9 -27 -19 -50 -3 -7 -8 -17 -11 -21 -9 -12 -10 -15 -12 -27 -1 -6 -2 -16
-4 -21 -5 -17 5 -30 28 -34 27 -5 35 5 58 77 6 19 13 37 14 40 2 3 4 9 5 13 1
5 5 15 8 24 3 9 10 27 14 39 4 13 9 27 11 30 1 4 4 10 5 14 1 4 5 14 8 22 4 8
8 19 9 24 8 27 17 38 24 34 6 -3 6 -3 25 -43 8 -16 17 -34 20 -38 3 -4 9 -15
13 -24 12 -24 36 -70 46 -87 5 -9 14 -26 20 -39 6 -13 14 -27 16 -30 2 -3 9
-15 14 -25 17 -33 23 -37 48 -25 26 12 27 20 6 59 -8 14 -18 32 -22 41 -5 9
-10 19 -12 22 -7 10 -37 72 -40 81 -1 3 -4 8 -7 11 -9 10 -15 19 -26 39 -5 11
-14 27 -19 35 -5 9 -11 21 -13 27 -2 6 -7 15 -10 20 -4 5 -8 12 -9 15 -1 3 -4
10 -8 15 -3 5 -7 11 -9 13 -3 8 -5 297 -2 300 3 2 6 1 16 -5 7 -4 19 -11 26
-15 7 -4 18 -11 24 -16 6 -5 17 -12 24 -16 42 -24 40 -21 40 -60 0 -22 1 -31
3 -35 2 -3 4 -12 6 -19 1 -8 4 -18 6 -23 2 -5 3 -13 4 -19 1 -7 3 -11 8 -17 4
-4 9 -15 14 -27 4 -11 10 -23 13 -27 16 -23 49 -56 65 -67 6 -4 11 -8 12 -9
23 -37 132 47 142 110 1 5 3 12 4 15 2 3 4 13 5 24 1 10 3 21 5 25 4 10 3 174
-1 182 -2 3 -3 14 -4 27 -1 15 -2 24 -5 27 -1 3 -3 9 -4 14 -2 12 -5 17 -17
30 -5 6 -14 17 -19 25 -40 57 -81 78 -115 58 -8 -4 -19 -10 -24 -13 -8 -3 -11
-6 -17 -15 -4 -7 -10 -14 -14 -17 -3 -3 -8 -9 -10 -15 -3 -5 -7 -12 -10 -15
-5 -4 -16 -25 -27 -51 -2 -5 -7 -12 -11 -17 -7 -7 -7 -9 -8 -24 -2 -24 -7 -25
-27 -7 -6 5 -12 9 -14 9 -4 0 -21 9 -27 14 -2 2 -13 9 -25 15 -42 23 -43 26
-19 51 10 11 15 17 16 22 1 4 3 10 5 14 2 4 4 11 5 15 0 5 3 15 6 24 4 11 6
24 8 47 3 45 13 62 32 55 20 -8 48 -8 55 -1 19 19 9 54 -16 54 -3 0 -38 9 -46
12 -9 4 -9 14 0 24 5 6 5 6 38 7 41 2 44 4 44 27 0 29 -6 32 -71 32 -64 0 -74
-5 -70 -34 1 -6 1 -15 1 -19 -1 -60 -3 -81 -5 -88 -2 -5 -3 -20 -4 -36 -1 -31
-2 -38 -10 -47 -2 -3 -5 -9 -6 -12 -3 -16 -12 -38 -18 -47 -3 -5 -10 -14 -14
-20 -9 -14 -25 -14 -25 0 0 1 -3 8 -7 16 -4 7 -8 18 -10 24 -1 7 -6 24 -10 38
-6 22 -8 31 -9 53 -1 15 -3 30 -4 33 -1 3 -2 16 -2 29 0 13 -1 31 -2 40 -2 12
-2 19 0 29 5 30 1 33 -44 35 -18 1 -40 3 -48 4 -23 3 -37 3 -43 -2z m-98 -301
c8 -2 17 -11 28 -30 7 -10 14 -21 16 -24 3 -4 9 -14 13 -24 4 -10 11 -25 15
-33 12 -22 12 -105 1 -131 -4 -9 -10 -25 -14 -36 -16 -53 -33 -89 -50 -108 -5
-5 -12 -14 -15 -19 -5 -9 -17 -16 -27 -16 -9 0 -32 26 -44 51 -4 8 -11 20 -14
28 -24 46 -35 139 -22 174 1 3 3 17 4 31 2 34 6 44 19 57 7 7 12 13 14 20 7
20 15 33 24 38 4 3 11 9 16 14 9 10 16 12 36 8z m631 -11 c7 -7 16 -15 19 -18
5 -5 9 -13 20 -39 1 -4 5 -9 9 -10 13 -8 22 -33 22 -62 0 -11 1 -24 3 -31 3
-11 3 -21 3 -64 l-1 -51 -11 -28 c-6 -15 -14 -32 -18 -39 -4 -6 -9 -15 -11
-21 -7 -18 -32 -47 -42 -47 -7 0 -20 7 -25 14 -3 3 -9 10 -13 16 -14 17 -31
44 -36 58 -2 8 -10 31 -17 50 -6 19 -14 39 -16 44 -9 17 -7 113 2 130 4 6 11
19 15 28 6 14 33 60 42 71 13 16 38 16 55 -1z"/>
</g>
</svg>
