<?xml version="1.0" standalone="no"?>
<!DOCTYPE svg PUBLIC "-//W3C//DTD SVG 20010904//EN"
 "http://www.w3.org/TR/2001/REC-SVG-20010904/DTD/svg10.dtd">
<svg version="1.0" xmlns="http://www.w3.org/2000/svg"
 width="89.000000pt" height="100.000000pt" viewBox="0 0 89.000000 100.000000"
 preserveAspectRatio="xMidYMid meet">
<metadata>
Created by potrace 1.16, written by Peter Selinger 2001-2019
</metadata>
<g transform="translate(0.000000,100.000000) scale(0.100000,-0.100000)"
fill="#000000" stroke="none">
<path d="M244 936 c-9 -23 4 -36 36 -36 38 0 60 -9 60 -25 0 -17 -20 -24 -53
-18 -19 4 -29 0 -33 -12 -8 -21 14 -37 39 -29 21 7 50 -14 41 -28 -4 -6 -47
-9 -108 -7 l-101 4 -2 -147 c-2 -147 -2 -147 -32 -192 -38 -54 -56 -128 -47
-187 7 -50 72 -176 99 -193 25 -16 46 1 87 69 27 46 35 72 38 122 6 88 -3 123
-48 191 l-40 60 0 111 0 111 104 0 103 0 6 -82 c14 -173 9 -248 -19 -308 -50
-106 -114 -263 -114 -280 0 -18 25 -34 40 -25 4 3 31 64 60 137 29 73 56 137
60 141 10 12 16 2 80 -143 45 -101 60 -126 78 -128 12 -2 24 3 28 11 5 13
-115 284 -140 316 -13 17 -22 349 -10 360 5 5 56 6 114 2 l105 -6 3 -104 3
-104 -40 -59 c-68 -101 -65 -208 9 -335 40 -70 69 -78 116 -32 77 77 95 229
41 336 -15 28 -36 58 -47 66 -19 13 -21 28 -27 151 l-6 136 -114 0 c-92 0
-113 3 -113 14 0 11 14 16 47 18 36 2 49 7 51 21 3 14 -4 17 -41 17 -85 0 -82
46 3 52 37 2 45 6 45 23 0 18 -7 20 -75 20 l-75 0 -3 -83 -3 -83 -32 3 -32 3
0 80 0 80 -68 3 c-52 2 -69 0 -73 -12z m514 -543 c34 -72 34 -137 2 -211 -28
-65 -43 -65 -85 2 -38 62 -41 145 -8 219 31 67 56 65 91 -10z m-563 6 c29 -49
29 -180 -1 -229 -11 -19 -26 -35 -33 -35 -20 0 -60 104 -61 158 0 67 38 153
64 144 6 -2 20 -19 31 -38z"/>
</g>
</svg>
