<?xml version="1.0" standalone="no"?>
<!DOCTYPE svg PUBLIC "-//W3C//DTD SVG 20010904//EN"
 "http://www.w3.org/TR/2001/REC-SVG-20010904/DTD/svg10.dtd">
<svg version="1.0" xmlns="http://www.w3.org/2000/svg"
 width="528.000000pt" height="590.000000pt" viewBox="0 0 528.000000 590.000000"
 preserveAspectRatio="xMidYMid meet">
<metadata>
Created by potrace 1.16, written by Peter Selinger 2001-2019
</metadata>
<g transform="translate(0.000000,590.000000) scale(0.500000,-0.500000)"
fill="#000000" stroke="none">
<path d="M300 1117 c-6 -9 -5 -50 2 -51 0 0 23 -1 50 -1 58 0 54 2 54 -27 0
-26 4 -24 -52 -24 -58 0 -56 1 -56 -24 0 -26 1 -27 50 -25 51 2 54 1 54 -22 0
-17 1 -17 -74 -15 -162 5 -178 4 -184 -14 -2 -8 1 -125 8 -277 3 -53 3 -52
-11 -67 -14 -15 -19 -22 -28 -39 -3 -8 -9 -16 -11 -18 -18 -16 -38 -75 -42
-124 -1 -13 -3 -29 -3 -36 -1 -8 0 -16 2 -25 2 -7 4 -24 5 -37 1 -20 2 -26 7
-37 3 -7 7 -18 10 -24 2 -6 7 -15 10 -20 7 -10 16 -26 18 -34 1 -3 6 -15 12
-27 6 -12 12 -26 13 -31 3 -8 5 -11 21 -23 47 -35 63 -31 94 23 5 7 11 17 15
22 10 12 17 24 22 40 3 7 12 27 21 45 l17 31 0 58 c1 49 1 58 -2 63 -2 3 -4
12 -5 19 0 6 -2 15 -4 18 -1 3 -3 10 -4 17 -1 6 -3 15 -5 20 -2 4 -4 10 -4 12
0 5 -12 29 -20 40 -5 5 -8 10 -8 12 0 1 -3 6 -7 11 -5 6 -10 14 -13 19 -3 5
-11 12 -17 17 -23 17 -24 20 -25 133 -1 54 -2 107 -3 119 -4 54 -2 55 59 55
26 1 62 1 80 2 18 1 34 1 36 1 2 0 21 -1 44 -2 l41 -1 3 -8 c2 -6 3 -24 3 -78
1 -38 2 -117 3 -175 3 -149 7 -127 -34 -211 -6 -13 -13 -28 -14 -32 -4 -13
-13 -34 -28 -64 -8 -15 -16 -34 -18 -42 -2 -8 -5 -18 -8 -23 -2 -4 -7 -16 -11
-25 -4 -10 -10 -22 -13 -27 -6 -9 -13 -25 -20 -48 -2 -6 -7 -19 -11 -27 -9
-20 -12 -28 -10 -36 4 -19 37 -36 49 -24 3 4 24 48 24 52 0 2 9 25 14 36 2 4
5 13 8 19 10 24 12 30 21 49 5 11 16 39 26 62 34 85 51 123 56 123 4 0 2 4 71
-139 9 -19 19 -40 23 -48 4 -8 13 -27 21 -43 12 -27 18 -41 24 -65 5 -19 26
-42 38 -42 36 0 45 22 25 59 -10 21 -27 59 -27 63 0 0 -5 9 -11 19 -6 10 -15
27 -19 38 -5 11 -11 26 -15 34 -4 7 -7 15 -8 18 -2 7 -8 20 -19 42 -5 10 -12
25 -15 33 -13 33 -17 41 -31 62 -24 35 -26 45 -26 138 0 71 -3 161 -6 192 -12
116 -10 120 49 120 110 0 220 -2 223 -5 6 -4 8 -123 5 -222 l-2 -49 -18 -27
c-10 -15 -25 -34 -34 -44 -17 -18 -23 -30 -28 -58 0 -4 -4 -11 -7 -16 -5 -9
-6 -11 -7 -32 -1 -13 -2 -34 -3 -49 -3 -25 -2 -38 2 -56 1 -5 3 -18 4 -29 1
-12 4 -22 7 -29 3 -6 6 -15 7 -21 6 -29 20 -60 31 -72 5 -6 13 -15 16 -21 48
-83 83 -90 137 -28 31 35 37 45 50 83 3 10 11 30 16 43 29 68 23 161 -15 242
-5 10 -13 28 -17 39 -14 36 -19 42 -53 67 -22 16 -20 7 -22 131 -2 166 -3 197
-7 201 -7 7 -44 8 -196 6 -87 -2 -88 -1 -82 23 4 14 6 15 59 13 64 -1 65 -1
65 28 0 26 -5 29 -42 25 -75 -7 -93 3 -77 45 2 5 10 6 60 5 56 0 56 0 59 13 5
19 1 39 -7 43 -8 3 -161 1 -167 -3 -5 -4 -4 -94 1 -170 2 -21 1 -21 -40 -21
-52 0 -48 -14 -40 160 2 34 3 33 -84 35 -70 2 -70 2 -75 -4z m555 -576 c14 -4
34 -31 42 -54 1 -3 6 -13 11 -22 6 -11 12 -23 13 -31 2 -7 7 -22 10 -34 18
-55 2 -174 -28 -208 -6 -7 -15 -19 -20 -26 -20 -31 -24 -31 -41 -7 -7 10 -18
23 -25 30 -42 43 -69 125 -58 177 2 8 3 20 3 27 0 15 7 47 12 57 2 4 7 14 11
22 15 28 45 70 53 73 3 1 3 1 17 -4z m-658 -22 c18 -10 21 -13 25 -21 2 -4 9
-15 15 -24 57 -88 41 -252 -32 -322 -14 -14 -26 0 -58 63 -40 79 -50 138 -30
181 3 6 6 17 7 25 2 15 20 51 42 84 16 25 14 24 31 14z"/>
</g>
</svg>
