<?xml version="1.0" standalone="no"?>
<!DOCTYPE svg PUBLIC "-//W3C//DTD SVG 20010904//EN"
 "http://www.w3.org/TR/2001/REC-SVG-20010904/DTD/svg10.dtd">
<svg version="1.0" xmlns="http://www.w3.org/2000/svg"
 width="486.000000pt" height="590.000000pt" viewBox="0 0 486.000000 590.000000"
 preserveAspectRatio="xMidYMid meet">
<metadata>
Created by potrace 1.16, written by Peter Selinger 2001-2019
</metadata>
<g transform="translate(0.000000,590.000000) scale(0.500000,-0.500000)"
fill="#000000" stroke="none">
<path d="M282 1142 c-10 -1 -13 -7 -12 -30 0 -16 1 -17 47 -18 45 -1 46 -2 48
-20 2 -14 2 -14 -41 -14 -51 0 -53 -2 -52 -30 2 -23 0 -22 59 -22 39 0 49 -1
51 -3 2 -3 12 -30 12 -34 0 -1 2 -8 4 -15 10 -32 9 -33 -49 -31 -184 5 -183 5
-211 -74 -7 -20 -14 -41 -20 -62 -4 -14 -10 -28 -15 -37 -5 -9 -11 -21 -13
-28 -2 -7 -5 -17 -7 -21 -1 -4 -3 -12 -3 -18 0 -5 -2 -19 -5 -30 -5 -22 -7
-35 -13 -86 -14 -126 -15 -154 -2 -217 15 -73 18 -87 22 -96 2 -5 5 -14 6 -21
2 -10 15 -42 25 -62 11 -20 18 -31 26 -39 5 -5 11 -13 14 -19 15 -25 62 -22
69 6 1 5 5 13 9 18 4 5 7 11 7 13 0 1 3 9 6 17 4 8 9 22 12 31 3 9 9 22 13 29
3 6 7 15 8 18 1 4 4 11 7 16 7 10 10 25 10 43 0 8 2 16 6 27 8 19 11 134 5
159 -2 6 -3 20 -3 31 0 12 -2 32 -4 44 -2 13 -5 31 -6 39 -1 8 -3 20 -4 27 -1
7 -4 18 -8 25 -3 7 -6 14 -6 15 0 2 -3 11 -6 21 -3 11 -7 27 -9 36 -6 31 -18
65 -31 85 -25 40 -16 63 24 57 7 -1 38 -1 84 0 104 4 106 4 110 -2 5 -5 5 -45
2 -88 -1 -14 -3 -83 -3 -154 0 -138 -1 -149 -12 -170 -2 -3 -14 -34 -28 -67
-14 -34 -27 -67 -30 -74 -3 -7 -13 -31 -22 -54 -10 -23 -19 -47 -22 -53 -5
-12 -24 -56 -33 -76 -23 -50 -23 -58 -1 -69 25 -11 35 -4 49 36 5 15 24 62 37
93 6 15 18 44 26 64 29 72 51 127 54 130 8 9 12 1 72 -125 19 -41 45 -94 57
-118 12 -24 22 -46 23 -49 11 -35 27 -47 51 -36 24 10 23 17 -7 76 -14 27 -31
61 -38 75 -44 90 -61 126 -62 132 -1 4 -5 13 -10 20 -9 14 -23 39 -23 43 0 2
-5 15 -12 30 l-12 27 -1 204 c-1 188 -1 205 2 208 4 4 47 3 65 -2 5 -1 39 -2
75 -3 79 -1 75 0 77 -24 0 -11 0 -15 -7 -32 -4 -10 -10 -28 -13 -40 -3 -11 -8
-25 -12 -30 -5 -9 -7 -14 -9 -37 -2 -14 -5 -33 -8 -41 -3 -10 -5 -22 -6 -36
-1 -12 -3 -26 -5 -32 -15 -46 -10 -255 7 -289 6 -11 13 -35 13 -43 0 -3 3 -12
7 -20 4 -8 8 -19 10 -24 2 -6 4 -13 6 -15 1 -3 5 -14 8 -26 5 -24 18 -61 26
-74 12 -21 55 -22 66 -1 3 5 9 14 14 21 10 12 18 28 33 62 4 11 13 27 19 37 9
16 11 21 14 37 2 10 4 22 6 27 2 5 3 13 4 17 1 4 4 16 6 26 3 10 6 27 7 37 1
10 3 27 5 37 5 28 4 65 -2 97 -3 15 -6 39 -8 54 -2 17 -6 35 -10 48 -4 12 -7
29 -8 37 -2 16 -4 23 -17 42 -3 6 -8 19 -12 32 -7 27 -26 83 -33 98 -3 6 -5
12 -5 14 0 1 -2 5 -5 8 -8 10 -9 15 -13 38 -4 28 -9 44 -13 47 -3 3 -23 3
-116 3 -132 0 -120 -4 -108 31 20 59 13 54 79 54 63 -1 59 -3 59 26 0 28 3 27
-49 27 -44 0 -46 0 -46 9 0 12 7 15 44 16 43 1 43 1 43 28 0 28 3 27 -59 25
-67 -1 -60 5 -88 -77 -52 -151 -47 -139 -65 -140 -20 0 -19 -2 -31 45 -1 6 -4
16 -6 23 -4 15 -9 33 -13 50 -13 55 -23 87 -29 94 -4 5 -91 10 -118 6z m-97
-357 c2 -2 4 -12 5 -20 1 -10 3 -19 6 -25 2 -5 7 -19 11 -32 4 -13 8 -27 10
-31 2 -4 3 -13 3 -19 0 -19 7 -58 12 -69 3 -6 5 -16 6 -28 1 -12 4 -23 8 -33
8 -20 13 -60 11 -83 -1 -9 -2 -34 -3 -56 -1 -36 -1 -41 -5 -48 -5 -8 -15 -38
-15 -43 0 -2 -3 -14 -7 -25 -4 -12 -9 -28 -11 -36 -2 -8 -7 -19 -11 -25 -4 -6
-8 -14 -9 -20 -4 -19 -9 -24 -17 -15 -2 3 -7 9 -11 14 -10 11 -22 37 -22 47 0
8 -16 57 -22 70 -7 15 -8 18 -12 49 -2 19 -5 41 -6 50 -3 27 -2 64 2 81 3 10
4 21 4 36 0 26 3 45 9 67 3 9 6 26 7 38 5 45 16 89 33 127 4 8 8 18 9 22 2 7
6 12 10 12 1 0 3 -2 5 -5z m586 2 c1 -2 4 -15 7 -28 7 -28 7 -30 18 -44 7 -10
14 -27 20 -54 1 -4 3 -10 5 -13 2 -3 3 -13 4 -22 2 -19 7 -42 14 -61 4 -11 5
-17 5 -33 0 -11 1 -24 3 -31 2 -7 4 -24 5 -38 6 -77 3 -115 -9 -130 -8 -9 -10
-16 -14 -40 -2 -16 -5 -27 -11 -39 -4 -10 -8 -21 -9 -24 -2 -9 -8 -22 -13 -27
-2 -3 -6 -9 -8 -14 -6 -18 -11 -14 -31 23 -9 17 -11 24 -13 36 -2 17 -4 24
-22 73 -18 49 -17 38 -16 165 0 106 0 114 4 126 13 42 18 62 20 74 4 24 10 46
23 83 6 18 15 26 18 18z"/>
<path d="M463 1118 c-9 -3 -10 -67 -2 -73 6 -5 27 -4 33 1 27 21 -1 84 -31 72z"/>
</g>
</svg>
