<?xml version="1.0" standalone="no"?>
<!DOCTYPE svg PUBLIC "-//W3C//DTD SVG 20010904//EN"
 "http://www.w3.org/TR/2001/REC-SVG-20010904/DTD/svg10.dtd">
<svg version="1.0" xmlns="http://www.w3.org/2000/svg"
 width="122.000000pt" height="148.000000pt" viewBox="0 0 122.000000 148.000000"
 preserveAspectRatio="xMidYMid meet">
<metadata>
Created by potrace 1.16, written by Peter Selinger 2001-2019
</metadata>
<g transform="translate(0.000000,148.000000) scale(0.100000,-0.100000)"
fill="#000000" stroke="none">
<path d="M334 1415 c-13 -32 4 -44 63 -47 50 -3 58 -6 58 -23 0 -17 -8 -21
-60 -25 -39 -3 -60 -9 -59 -17 3 -44 2 -43 74 -43 l69 0 14 -47 c8 -27 13 -51
11 -55 -3 -4 -67 -4 -143 -1 l-138 6 -27 -48 c-14 -27 -34 -73 -43 -104 -9
-31 -21 -65 -28 -76 -31 -51 -65 -278 -60 -408 1 -51 10 -117 18 -147 9 -30
19 -66 22 -80 10 -37 25 -69 63 -127 34 -53 58 -65 91 -44 16 11 89 179 104
241 21 91 12 388 -14 445 -5 11 -16 47 -24 80 -8 33 -27 83 -41 112 -40 79
-38 80 123 85 76 2 141 3 145 1 4 -2 5 -115 2 -252 l-4 -248 -39 -94 c-21 -52
-62 -150 -91 -219 -29 -69 -57 -137 -63 -152 -8 -20 -8 -30 2 -42 18 -21 50
-20 57 1 3 10 10 26 15 35 5 10 9 22 9 28 0 6 9 30 21 54 11 24 42 100 68 168
27 67 51 123 55 123 3 0 34 -61 69 -135 123 -261 142 -295 163 -292 49 9 46
20 -76 266 l-118 239 -1 258 c-1 142 2 260 7 262 4 3 65 3 135 0 102 -5 130
-9 135 -21 6 -17 -12 -93 -34 -136 -8 -16 -14 -43 -14 -61 0 -17 -4 -35 -9
-40 -15 -16 -23 -102 -24 -255 -1 -154 2 -171 62 -322 5 -13 15 -43 22 -68 15
-55 35 -80 64 -80 26 0 50 31 97 125 53 106 73 192 73 320 0 105 -22 243 -46
288 -6 10 -24 57 -41 105 -16 48 -33 92 -38 97 -4 6 -10 27 -13 48 -10 66 -13
67 -162 61 -94 -5 -134 -3 -139 5 -4 6 0 32 10 56 l17 45 73 0 c62 0 74 3 79
19 12 40 -4 53 -64 49 -45 -2 -56 0 -56 12 0 11 14 16 50 20 48 5 50 6 50 35
l0 30 -70 0 -70 0 -46 -130 c-68 -192 -89 -192 -134 -1 -15 61 -32 117 -37
124 -16 19 -157 16 -164 -3z m-96 -451 c1 -10 9 -41 16 -69 12 -43 31 -136 42
-200 2 -11 8 -38 14 -60 11 -42 5 -189 -11 -240 -17 -58 -59 -178 -64 -183
-13 -14 -44 36 -60 96 -10 37 -22 72 -26 78 -9 11 -26 178 -21 204 2 8 7 47
12 85 24 177 34 221 61 288 13 31 32 31 37 1z m736 -6 c4 -18 15 -51 27 -74
11 -23 24 -66 29 -95 4 -30 13 -66 19 -80 12 -32 13 -53 15 -184 0 -62 -5
-113 -13 -135 -7 -19 -25 -65 -38 -102 -14 -38 -30 -68 -37 -68 -15 0 -32 39
-70 160 -23 75 -27 101 -26 220 0 114 5 153 29 251 15 64 31 121 35 128 12 20
23 12 30 -21z"/>
<path d="M572 1353 c3 -40 6 -48 23 -48 17 0 20 8 23 48 3 45 2 47 -23 47 -25
0 -26 -2 -23 -47z"/>
</g>
</svg>
