<?xml version="1.0" standalone="no"?>
<!DOCTYPE svg PUBLIC "-//W3C//DTD SVG 20010904//EN"
 "http://www.w3.org/TR/2001/REC-SVG-20010904/DTD/svg10.dtd">
<svg version="1.0" xmlns="http://www.w3.org/2000/svg"
 width="82.000000pt" height="100.000000pt" viewBox="0 0 82.000000 100.000000"
 preserveAspectRatio="xMidYMid meet">
<metadata>
Created by potrace 1.16, written by Peter Selinger 2001-2019
</metadata>
<g transform="translate(0.000000,100.000000) scale(0.100000,-0.100000)"
fill="#000000" stroke="none">
<path d="M225 960 c-8 -13 14 -42 26 -34 12 7 49 -5 49 -17 0 -5 -13 -9 -29
-9 -31 0 -60 -25 -45 -40 5 -5 29 -10 54 -12 43 -3 45 -5 45 -33 l0 -30 -91
-3 c-88 -3 -92 -4 -104 -30 -81 -173 -109 -356 -75 -500 24 -99 68 -172 106
-172 19 0 45 51 80 151 37 109 16 327 -44 446 -11 24 -19 45 -16 47 2 2 46 7
97 11 l94 8 -4 -179 -4 -179 -67 -160 c-57 -138 -65 -162 -52 -174 23 -24 40
1 86 127 57 159 61 162 98 81 100 -219 99 -219 120 -219 34 0 26 33 -48 185
l-68 142 -4 184 -4 184 85 -4 c47 -1 87 -5 89 -7 3 -3 -1 -24 -8 -47 -37 -124
-42 -159 -43 -272 -1 -111 2 -127 32 -213 31 -89 50 -122 70 -122 37 0 107
154 116 257 9 96 -8 186 -63 331 l-47 122 -87 0 c-48 0 -90 4 -93 9 -4 5 -2
21 4 35 8 23 15 26 60 26 47 0 50 2 50 25 0 22 -4 25 -35 25 -41 0 -47 17 -7
22 19 2 28 9 30 26 3 20 -1 22 -41 22 -25 0 -49 -6 -54 -12 -6 -7 -20 -43 -32
-79 -25 -75 -43 -105 -59 -95 -6 3 -18 38 -27 78 -23 103 -27 108 -85 108 -27
0 -52 -5 -55 -10z m-56 -345 c5 -20 18 -81 27 -136 15 -85 16 -113 6 -180 -12
-83 -36 -143 -55 -136 -6 2 -19 28 -28 59 -27 91 -31 166 -14 275 22 153 44
191 64 118z m498 -11 c23 -63 43 -181 43 -247 0 -61 -27 -168 -47 -188 -29
-29 -63 101 -63 242 0 92 4 123 25 217 8 33 26 23 42 -24z"/>
</g>
</svg>
