<?xml version="1.0" standalone="no"?>
<!DOCTYPE svg PUBLIC "-//W3C//DTD SVG 20010904//EN"
 "http://www.w3.org/TR/2001/REC-SVG-20010904/DTD/svg10.dtd">
<svg version="1.0" xmlns="http://www.w3.org/2000/svg"
 width="128.000000pt" height="148.000000pt" viewBox="0 0 128.000000 148.000000"
 preserveAspectRatio="xMidYMid meet">
<metadata>
Created by potrace 1.16, written by Peter Selinger 2001-2019
</metadata>
<g transform="translate(0.000000,148.000000) scale(0.100000,-0.100000)"
fill="#000000" stroke="none">
<path d="M319 1409 c-17 -33 2 -42 83 -43 l73 -1 0 -35 0 -35 -75 -5 c-68 -5
-75 -7 -78 -27 -4 -26 -1 -27 88 -28 l65 0 0 -34 0 -35 -170 0 -170 -1 0 -65
c1 -36 5 -136 9 -223 l9 -158 -26 -27 c-14 -15 -42 -57 -62 -95 -36 -66 -37
-70 -37 -175 -1 -107 -1 -108 46 -205 25 -53 46 -101 46 -106 0 -14 64 -61 83
-61 20 0 68 69 119 169 35 70 38 81 38 162 0 49 -4 98 -9 111 -5 13 -14 41
-21 63 -7 22 -34 66 -61 97 -71 82 -69 93 44 203 52 49 126 125 166 169 43 46
77 74 82 69 5 -5 10 -124 12 -263 4 -286 13 -237 -82 -444 -23 -49 -41 -93
-41 -98 0 -5 -13 -37 -28 -71 -16 -34 -35 -78 -42 -97 -7 -19 -17 -39 -22 -45
-14 -16 -9 -40 13 -53 29 -18 38 -7 73 83 15 39 34 85 42 103 21 49 38 88 79
190 31 74 40 90 51 81 8 -6 14 -15 14 -20 0 -5 36 -84 80 -175 44 -92 80 -171
80 -178 0 -6 9 -26 20 -43 21 -35 50 -43 69 -19 11 13 -8 64 -51 141 -16 27
-32 62 -53 110 -9 22 -43 94 -75 160 l-58 120 -6 267 c-4 168 -2 269 4 273 8
5 69 -47 184 -158 34 -34 144 -131 178 -158 30 -23 16 -76 -38 -136 -60 -69
-77 -125 -76 -248 0 -122 26 -201 97 -293 62 -83 83 -88 141 -31 25 24 51 58
58 74 36 81 58 144 62 180 8 55 -10 173 -34 226 -11 24 -27 60 -35 80 -8 20
-29 45 -45 55 -17 9 -35 28 -41 41 -7 15 -11 98 -11 213 0 185 -1 190 -22 201
-16 8 -70 10 -185 6 -99 -3 -165 -1 -169 5 -3 5 -3 20 0 34 6 23 10 24 92 24
66 0 86 3 90 15 13 33 -13 44 -89 38 -85 -6 -106 6 -90 54 10 27 11 28 89 28
l79 0 0 30 0 30 -110 0 -110 0 2 -127 c2 -126 2 -128 -21 -134 -12 -3 -40 -4
-62 -2 l-39 3 -1 120 c0 66 -1 126 -2 133 -1 9 -30 12 -102 12 -91 0 -100 -2
-111 -21z m146 -299 c6 -10 -237 -260 -254 -260 -13 0 -15 228 -3 247 5 8 45
13 117 16 61 1 115 4 122 5 6 1 14 -2 18 -8z m436 0 c105 0 109 -1 113 -22 10
-48 13 -228 4 -228 -6 0 -33 24 -62 53 -28 28 -87 83 -129 120 -43 38 -74 73
-71 78 3 6 13 8 21 5 8 -3 64 -6 124 -6z m185 -445 c23 -16 63 -92 89 -168 19
-56 22 -146 6 -176 -6 -11 -11 -30 -11 -43 -1 -36 -73 -153 -95 -153 -29 0
-121 141 -134 207 -16 78 -1 190 35 256 49 90 70 106 110 77z m-881 -21 c33
-21 76 -98 91 -160 19 -82 2 -213 -36 -279 -58 -102 -74 -99 -137 26 -52 104
-62 167 -38 250 15 54 78 179 91 179 3 0 16 -7 29 -16z"/>
</g>
</svg>
