<?xml version="1.0" standalone="no"?>
<!DOCTYPE svg PUBLIC "-//W3C//DTD SVG 20010904//EN"
 "http://www.w3.org/TR/2001/REC-SVG-20010904/DTD/svg10.dtd">
<svg version="1.0" xmlns="http://www.w3.org/2000/svg"
 width="510.000000pt" height="590.000000pt" viewBox="0 0 510.000000 590.000000"
 preserveAspectRatio="xMidYMid meet">
<metadata>
Created by potrace 1.16, written by Peter Selinger 2001-2019
</metadata>
<g transform="translate(0.000000,590.000000) scale(0.500000,-0.500000)"
fill="#000000" stroke="none">
<path d="M266 1142 c-9 -5 -14 -30 -9 -40 6 -12 9 -12 67 -11 64 2 60 4 60
-24 0 -32 -3 -34 -50 -32 -66 3 -73 0 -73 -24 0 -25 -2 -24 60 -24 62 0 64 -1
64 -28 0 -26 1 -26 -67 -24 -186 5 -195 5 -204 -4 -6 -6 -6 -70 -1 -163 2 -28
4 -63 5 -77 3 -41 2 -113 0 -118 -2 -2 -9 -11 -16 -19 -10 -9 -16 -19 -21 -29
-4 -8 -11 -20 -17 -27 -5 -6 -11 -15 -12 -19 -1 -5 -6 -16 -11 -25 -11 -23
-14 -33 -17 -62 -1 -14 -3 -35 -4 -47 -2 -19 -2 -24 1 -33 2 -7 3 -18 3 -32 0
-19 1 -23 7 -41 4 -11 9 -25 11 -31 2 -5 7 -14 10 -18 6 -7 13 -22 25 -50 3
-7 9 -18 12 -25 4 -6 8 -16 9 -21 3 -13 13 -23 42 -41 28 -17 43 -10 72 38 4
7 11 18 16 23 10 12 14 20 21 38 6 15 26 55 36 73 9 16 13 110 5 132 -2 7 -4
16 -4 22 0 5 -2 12 -4 17 -3 5 -5 14 -5 21 -1 7 -3 15 -5 18 -2 3 -4 9 -5 13
-2 10 -12 30 -20 39 -3 4 -8 11 -10 15 -6 11 -22 30 -45 50 -28 26 -12 75 34
105 18 11 82 76 94 93 8 14 69 77 84 89 6 4 15 14 19 20 13 19 24 21 32 8 4
-5 4 -12 4 -81 0 -41 1 -132 1 -201 l1 -126 -10 -20 c-5 -11 -11 -23 -12 -27
-1 -4 -5 -12 -9 -17 -7 -13 -17 -36 -19 -44 -2 -7 -16 -40 -32 -73 -7 -13 -13
-28 -15 -34 -6 -18 -10 -28 -14 -37 -7 -14 -14 -31 -14 -34 0 -1 -4 -8 -8 -15
-4 -7 -11 -23 -15 -35 -4 -12 -11 -29 -15 -39 -17 -36 -18 -42 -10 -54 14 -18
35 -22 43 -6 8 14 19 41 21 47 1 5 5 16 9 25 4 9 9 21 10 25 2 4 4 9 5 10 1 1
2 4 3 7 1 5 11 28 16 39 9 20 13 29 13 30 0 2 12 29 15 35 2 3 3 7 3 8 0 1 2
8 5 14 3 7 7 18 10 25 8 19 12 28 24 55 6 14 11 27 12 29 7 23 14 16 39 -36
19 -40 26 -56 60 -126 36 -74 45 -95 56 -121 2 -5 4 -13 5 -18 2 -11 3 -14 16
-31 14 -19 22 -22 41 -12 18 9 21 20 8 41 -5 9 -13 24 -25 53 -1 3 -4 9 -5 13
-1 4 -7 15 -12 24 -10 16 -22 40 -25 50 -1 3 -5 13 -10 22 -5 9 -12 27 -16 39
-5 15 -10 26 -15 33 -7 9 -26 49 -26 54 0 4 -14 30 -25 45 -13 21 -21 36 -23
52 -3 23 -6 78 -6 121 1 67 -3 169 -10 233 -8 82 7 97 53 53 13 -12 33 -31 44
-41 11 -9 33 -30 48 -46 15 -15 40 -39 55 -51 15 -13 41 -36 57 -52 16 -15 33
-30 37 -32 17 -9 18 -44 0 -70 -4 -6 -11 -16 -15 -23 -4 -6 -17 -21 -28 -33
-17 -18 -21 -23 -23 -30 -3 -17 -12 -44 -16 -52 -4 -7 -5 -13 -5 -34 -1 -14
-2 -29 -4 -34 -6 -20 -6 -30 3 -75 2 -12 4 -26 4 -32 0 -7 2 -14 6 -24 3 -7 8
-21 10 -30 2 -10 5 -20 7 -22 2 -3 4 -9 5 -14 4 -14 6 -18 20 -33 6 -7 13 -16
15 -20 40 -78 78 -89 127 -39 36 38 52 64 59 95 2 8 7 21 20 51 16 36 23 89
15 122 -1 4 -2 13 -2 19 0 25 -13 70 -30 105 -5 9 -11 25 -15 35 -15 39 -21
47 -51 70 -32 24 -29 13 -31 136 -3 261 21 227 -162 227 -163 0 -149 -3 -140
31 4 18 16 20 92 15 47 -3 51 0 51 26 0 23 3 22 -67 21 -85 -1 -86 0 -73 47 5
18 5 18 68 17 67 -1 64 -2 64 23 0 30 4 29 -92 28 -96 -2 -89 3 -87 -53 1 -17
2 -47 2 -67 0 -20 1 -46 2 -59 2 -28 -55 -45 -94 -28 -10 5 -10 68 0 169 2 14
-4 29 -12 34 -5 3 -150 6 -155 3z m105 -256 c5 -5 8 -3 -96 -107 -111 -110
-112 -111 -108 -70 0 6 0 39 -1 72 -4 109 -7 104 62 104 55 1 121 4 124 6 2 2
15 -1 19 -5z m364 -1 c85 -2 75 6 77 -62 1 -28 3 -57 4 -64 2 -13 2 -48 1 -57
-3 -13 -11 -7 -64 44 -18 17 -42 39 -55 50 -31 25 -92 82 -92 86 0 6 3 7 32 5
16 0 60 -2 97 -2z m122 -347 c21 -9 25 -14 41 -46 6 -12 15 -30 21 -40 6 -11
11 -23 12 -28 1 -9 9 -36 14 -47 4 -9 10 -52 8 -64 -1 -19 -5 -38 -8 -46 -2
-5 -4 -14 -6 -22 -8 -40 -12 -51 -30 -81 -6 -10 -14 -24 -18 -30 -6 -13 -26
-32 -33 -32 -16 0 -94 115 -100 148 -1 7 -4 18 -6 24 -7 18 -6 91 2 125 2 9 4
20 5 25 1 6 4 14 7 19 4 6 9 16 13 24 12 27 43 70 54 74 8 4 10 4 24 -3z
m-694 -22 c7 -5 15 -10 17 -11 4 -1 8 -7 20 -27 4 -6 11 -17 15 -24 6 -8 10
-19 13 -28 2 -9 6 -20 8 -26 2 -6 4 -14 4 -20 0 -5 1 -15 3 -21 2 -7 3 -15 2
-20 -1 -4 -2 -25 -3 -45 -3 -51 -7 -78 -17 -97 -42 -81 -60 -99 -78 -83 -23
21 -73 121 -79 160 -1 7 -3 17 -5 22 -6 18 -2 67 7 87 3 7 7 18 8 25 2 13 9
32 16 42 2 3 7 12 12 21 29 55 36 61 57 45z"/>
</g>
</svg>
