<?xml version="1.0" standalone="no"?>
<!DOCTYPE svg PUBLIC "-//W3C//DTD SVG 20010904//EN"
 "http://www.w3.org/TR/2001/REC-SVG-20010904/DTD/svg10.dtd">
<svg version="1.0" xmlns="http://www.w3.org/2000/svg"
 width="86.000000pt" height="100.000000pt" viewBox="0 0 86.000000 100.000000"
 preserveAspectRatio="xMidYMid meet">
<metadata>
Created by potrace 1.16, written by Peter Selinger 2001-2019
</metadata>
<g transform="translate(0.000000,100.000000) scale(0.100000,-0.100000)"
fill="#000000" stroke="none">
<path d="M213 954 c-8 -23 7 -32 57 -36 33 -2 46 -8 48 -20 3 -15 -4 -18 -40
-18 -24 0 -49 -5 -56 -12 -20 -20 6 -38 55 -38 37 0 44 -3 41 -17 -3 -16 -16
-18 -103 -18 -55 0 -106 -2 -114 -3 -12 -2 -13 -27 -8 -150 7 -147 6 -149 -18
-182 -44 -59 -58 -111 -53 -197 7 -138 87 -264 138 -218 10 9 32 43 50 76 60
112 51 241 -21 323 -21 24 -39 49 -39 56 0 6 28 39 63 73 34 34 81 83 105 110
24 26 47 47 53 47 5 0 9 -71 9 -173 l0 -173 -66 -154 c-71 -164 -83 -215 -50
-215 15 0 31 29 77 145 32 80 63 145 69 145 9 0 51 -84 118 -237 15 -34 27
-48 41 -48 11 0 22 4 26 10 3 5 -17 59 -45 119 -27 61 -50 113 -50 115 0 3
-13 27 -28 53 -27 46 -29 58 -39 233 -6 103 -7 189 -2 194 8 9 241 -206 247
-228 1 -6 -15 -35 -37 -64 -46 -61 -55 -97 -49 -191 6 -77 31 -142 78 -194 38
-44 49 -45 88 -12 49 41 76 117 76 215 0 96 -22 162 -74 215 -29 30 -29 31
-32 165 l-3 135 -123 3 c-110 2 -123 4 -120 20 2 13 17 18 58 22 41 4 56 9 58
22 3 14 -6 17 -55 20 -50 3 -58 6 -58 23 0 17 8 21 52 25 58 6 68 12 59 35 -5
13 -19 15 -78 13 l-73 -3 -5 -85 -5 -85 -37 -3 -38 -3 0 90 0 91 -70 0 c-55 0
-72 -3 -77 -16z m85 -212 c-1 -5 -33 -42 -70 -83 -79 -85 -91 -83 -86 12 3 58
5 64 28 70 36 10 132 10 128 1z m371 -6 c13 -8 15 -139 2 -134 -18 7 -141 128
-141 139 0 12 117 8 139 -5z m88 -336 c46 -95 45 -178 -2 -271 -21 -40 -45
-36 -77 14 -56 89 -59 190 -7 274 29 47 57 41 86 -17z m-582 -22 c40 -85 31
-198 -20 -255 -24 -27 -25 -28 -40 -9 -25 33 -55 124 -55 169 0 58 42 147 70
147 15 0 27 -14 45 -52z"/>
</g>
</svg>
