<?xml version="1.0" standalone="no"?>
<!DOCTYPE svg PUBLIC "-//W3C//DTD SVG 20010904//EN"
 "http://www.w3.org/TR/2001/REC-SVG-20010904/DTD/svg10.dtd">
<svg version="1.0" xmlns="http://www.w3.org/2000/svg"
 width="70.000000pt" height="100.000000pt" viewBox="0 0 70.000000 100.000000"
 preserveAspectRatio="xMidYMid meet">
<metadata>
Created by potrace 1.16, written by Peter Selinger 2001-2019
</metadata>
<g transform="translate(0.000000,100.000000) scale(0.100000,-0.100000)"
fill="#000000" stroke="none">
<path d="M188 963 c-10 -2 -18 -9 -18 -14 0 -5 -1 -12 -2 -16 -2 -5 24 -10 57
-13 44 -4 60 -9 60 -20 0 -11 -12 -15 -45 -16 -67 -1 -70 -2 -70 -24 0 -17 7
-20 48 -20 58 0 68 -6 76 -47 9 -39 -5 -45 -106 -42 -41 2 -79 -1 -86 -5 -9
-5 -12 -40 -10 -124 2 -114 1 -118 -27 -160 -23 -34 -29 -57 -33 -116 -9 -137
62 -258 127 -219 33 19 63 99 68 180 l5 78 -46 75 c-29 48 -42 78 -36 84 15
15 131 19 163 7 26 -10 27 -13 27 -84 0 -68 -5 -87 -65 -233 -66 -161 -73
-188 -55 -199 31 -19 49 8 95 141 27 77 53 133 59 131 6 -2 34 -61 63 -133 46
-115 54 -129 77 -132 22 -3 26 1 26 21 0 22 -45 137 -115 291 -19 44 -27 78
-28 130 l-2 71 90 0 90 0 3 -251 c2 -211 5 -254 18 -264 36 -30 39 -2 40 343
0 183 -3 343 -8 356 -8 23 -11 24 -93 19 -94 -6 -111 2 -99 46 7 28 10 30 70
27 25 -2 45 3 52 12 18 21 -4 35 -63 39 -36 2 -50 7 -50 18 0 11 14 16 57 18
36 2 58 8 62 17 10 27 -19 35 -90 28 l-69 -8 -5 -92 c-5 -101 -15 -121 -46
-99 -16 12 -20 30 -24 108 l-5 93 -60 2 c-33 0 -68 -1 -77 -4z m150 -291 c5
-51 -11 -62 -88 -62 -38 0 -75 3 -84 6 -17 6 -22 50 -8 71 8 13 57 21 127 19
49 -1 50 -2 53 -34z m233 23 c5 -4 9 -21 9 -40 0 -33 -1 -34 -52 -40 -29 -4
-71 -5 -93 -3 -37 3 -40 5 -43 36 -6 62 -1 66 89 59 44 -4 84 -9 90 -12z
m-412 -290 c33 -87 20 -215 -22 -223 -27 -5 -57 68 -57 137 0 66 24 141 45
141 8 0 23 -25 34 -55z"/>
</g>
</svg>
