<?xml version="1.0" standalone="no"?>
<!DOCTYPE svg PUBLIC "-//W3C//DTD SVG 20010904//EN"
 "http://www.w3.org/TR/2001/REC-SVG-20010904/DTD/svg10.dtd">
<svg version="1.0" xmlns="http://www.w3.org/2000/svg"
 width="104.000000pt" height="148.000000pt" viewBox="0 0 104.000000 148.000000"
 preserveAspectRatio="xMidYMid meet">
<metadata>
Created by potrace 1.16, written by Peter Selinger 2001-2019
</metadata>
<g transform="translate(0.000000,148.000000) scale(0.100000,-0.100000)"
fill="#000000" stroke="none">
<path d="M355 1421 c-99 -6 -100 -6 -100 -31 0 -25 2 -25 87 -28 89 -3 105
-11 91 -48 -5 -13 -20 -15 -82 -14 -100 3 -101 3 -101 -19 0 -29 14 -33 99
-33 l77 0 13 -59 c6 -33 9 -64 5 -71 -5 -7 -48 -9 -136 -6 -84 3 -134 1 -143
-6 -11 -9 -14 -48 -16 -186 l-1 -175 -35 -51 c-47 -70 -57 -112 -57 -234 -1
-97 2 -110 29 -163 36 -70 84 -127 108 -127 23 0 107 84 107 107 0 10 6 36 14
58 8 22 17 81 21 130 l7 90 -48 80 c-26 44 -58 92 -72 107 -20 22 -23 31 -15
55 l10 28 140 3 140 3 7 -32 c3 -17 6 -72 6 -121 0 -85 -3 -97 -56 -231 -88
-227 -127 -317 -136 -323 -14 -9 -9 -64 7 -70 23 -9 65 5 71 24 3 9 23 62 44
117 21 55 54 142 72 192 18 51 37 92 41 90 7 -2 78 -162 161 -364 19 -48 24
-53 54 -53 30 0 32 2 32 33 0 30 -46 145 -132 327 -16 36 -39 89 -50 117 -10
29 -24 55 -29 58 -5 4 -9 58 -9 121 0 107 1 114 20 115 11 0 72 0 135 0 63 0
120 0 125 0 6 -1 10 -136 10 -386 0 -348 2 -386 16 -392 9 -3 24 -2 33 4 14 9
16 62 16 524 0 283 -3 519 -7 525 -6 8 -51 10 -148 6 l-140 -5 1 44 c1 24 4
55 8 69 7 24 9 25 88 22 75 -4 82 -2 88 17 11 37 -3 43 -89 40 l-81 -4 -3 37
-3 37 88 3 c80 3 88 5 88 23 0 19 -8 20 -104 23 -57 1 -108 -1 -113 -6 -5 -5
-11 -69 -14 -143 -3 -73 -10 -139 -16 -146 -16 -19 -36 -16 -63 12 -24 23 -25
30 -25 148 0 113 -8 153 -29 145 -4 -1 -51 -4 -106 -7z m143 -443 l-3 -73
-139 -2 -139 -2 5 64 c3 34 9 68 12 74 5 7 53 11 137 11 l130 0 -3 -72z m347
62 c25 -9 26 -13 23 -72 l-3 -63 -142 -1 c-124 -1 -143 1 -147 15 -4 13 -2 79
3 124 1 11 236 9 266 -3z m-624 -388 c7 -20 18 -46 25 -57 7 -11 18 -48 25
-83 14 -74 1 -155 -35 -224 -34 -64 -52 -58 -98 32 -32 64 -38 85 -38 142 0
37 5 70 10 73 5 3 10 17 10 29 0 24 12 56 43 114 22 40 39 32 58 -26z"/>
</g>
</svg>
