<?xml version="1.0" standalone="no"?>
<!DOCTYPE svg PUBLIC "-//W3C//DTD SVG 20010904//EN"
 "http://www.w3.org/TR/2001/REC-SVG-20010904/DTD/svg10.dtd">
<svg version="1.0" xmlns="http://www.w3.org/2000/svg"
 width="416.000000pt" height="590.000000pt" viewBox="0 0 416.000000 590.000000"
 preserveAspectRatio="xMidYMid meet">
<metadata>
Created by potrace 1.16, written by Peter Selinger 2001-2019
</metadata>
<g transform="translate(0.000000,590.000000) scale(0.500000,-0.500000)"
fill="#000000" stroke="none">
<path d="M357 1138 c-2 -1 -35 -2 -72 -2 -83 0 -80 1 -80 -25 0 -26 -2 -25 73
-24 74 2 70 3 70 -22 0 -23 4 -22 -71 -21 -74 1 -71 2 -71 -21 0 -20 2 -22 30
-23 13 -1 24 -2 26 -3 2 -1 19 -2 39 -1 46 0 46 1 47 -22 1 -10 4 -26 7 -37
13 -51 21 -48 -110 -47 -123 1 -114 2 -123 -18 -4 -11 -6 -109 -2 -130 2 -8 2
-20 0 -42 -1 -17 -2 -49 -2 -71 -1 -40 -1 -40 -9 -49 -9 -10 -28 -37 -36 -52
-5 -8 -14 -34 -24 -73 -9 -31 -10 -98 -2 -133 2 -8 4 -24 6 -34 3 -22 10 -40
20 -54 4 -5 9 -15 12 -22 6 -14 15 -28 26 -39 4 -4 11 -12 14 -16 12 -16 30
-20 52 -10 31 14 66 59 71 94 1 8 5 23 9 34 7 22 8 23 13 116 4 54 4 57 -1 64
-3 3 -5 9 -7 13 -1 4 -4 9 -6 11 -4 4 -15 24 -30 52 -12 22 -30 49 -44 62 -16
17 -17 24 -9 53 5 17 -3 16 117 16 121 0 111 1 113 -17 1 -7 3 -15 4 -20 4
-11 4 -149 0 -159 -1 -4 -5 -13 -8 -20 -3 -7 -7 -18 -9 -24 -2 -6 -7 -16 -9
-22 -3 -6 -8 -17 -10 -24 -3 -7 -8 -21 -12 -30 -4 -9 -10 -26 -14 -36 -8 -22
-13 -36 -22 -56 -4 -8 -7 -16 -7 -18 0 -1 -2 -7 -5 -12 -10 -22 -17 -39 -21
-50 -4 -12 -22 -54 -26 -61 -30 -49 -1 -86 46 -61 5 2 13 16 16 26 2 8 10 30
21 58 4 10 10 24 12 31 3 7 8 21 12 31 4 10 10 25 12 32 3 7 9 24 14 37 17 47
27 72 35 86 2 4 4 10 4 13 0 18 13 19 20 1 2 -5 8 -19 13 -29 5 -11 12 -29 17
-40 5 -12 9 -22 10 -23 1 -2 6 -11 10 -22 7 -19 11 -28 37 -86 6 -13 12 -29
14 -36 2 -7 6 -16 9 -22 2 -5 7 -14 9 -19 3 -5 6 -14 7 -20 3 -18 7 -20 33
-20 42 0 44 29 6 107 -6 12 -11 24 -12 27 -1 3 -6 14 -12 25 -5 11 -11 25 -13
30 -2 6 -9 20 -15 33 -6 13 -11 25 -11 26 0 1 -5 13 -12 26 -7 13 -12 25 -12
27 0 2 -4 12 -10 22 -5 11 -11 24 -13 30 -2 5 -6 14 -8 19 -2 5 -5 12 -6 17
-1 7 -3 10 -20 39 l-8 13 -1 80 c-2 93 -3 88 16 93 25 7 206 5 210 -2 1 -2 2
-126 2 -300 0 -185 0 -299 2 -302 7 -19 40 -22 49 -4 3 6 3 37 3 411 0 222 0
407 0 411 0 15 5 15 -118 13 -87 -1 -111 -1 -113 1 -4 3 -4 54 -1 63 1 3 3 12
4 20 2 21 -2 20 70 19 73 -1 72 -1 72 23 0 22 3 22 -71 21 -75 -1 -69 -4 -69
27 0 32 -5 30 70 28 72 -2 82 3 69 34 -4 11 -70 15 -119 7 -10 -2 -17 -2 -27
0 -33 5 -36 0 -36 -63 0 -35 -1 -50 -3 -57 -2 -7 -3 -20 -2 -53 0 -58 -2 -63
-26 -66 -23 -3 -41 9 -51 35 -6 13 -6 13 -6 107 0 108 -3 115 -36 101z m44
-304 c7 -10 4 -106 -4 -109 -7 -2 -211 1 -215 4 -4 4 -4 49 1 66 1 6 3 17 3
23 0 20 -7 19 95 20 108 2 115 1 120 -4z m276 -2 c20 -8 19 -6 19 -56 0 -56
10 -50 -81 -50 -40 0 -77 -1 -84 -2 -20 -3 -59 0 -62 5 -5 6 -4 98 0 105 6 7
187 6 208 -2z m-517 -273 c6 -7 22 -41 25 -54 2 -8 6 -17 10 -23 11 -14 15
-25 20 -50 3 -13 6 -29 8 -34 5 -17 6 -45 2 -59 -2 -7 -3 -15 -3 -19 0 -3 -3
-13 -6 -22 -3 -9 -6 -20 -6 -24 0 -10 -2 -14 -12 -26 -4 -4 -9 -13 -11 -19
-13 -39 -33 -44 -49 -12 -2 5 -9 17 -15 26 -6 9 -11 17 -11 18 0 1 -5 13 -12
27 -19 40 -24 113 -10 141 4 8 7 18 9 30 4 25 15 53 28 70 6 8 12 17 14 21 6
13 13 16 19 9z"/>
</g>
</svg>
