<?xml version="1.0" standalone="no"?>
<!DOCTYPE svg PUBLIC "-//W3C//DTD SVG 20010904//EN"
 "http://www.w3.org/TR/2001/REC-SVG-20010904/DTD/svg10.dtd">
<svg version="1.0" xmlns="http://www.w3.org/2000/svg"
 width="81.000000pt" height="100.000000pt" viewBox="0 0 81.000000 100.000000"
 preserveAspectRatio="xMidYMid meet">
<metadata>
Created by potrace 1.16, written by Peter Selinger 2001-2019
</metadata>
<g transform="translate(0.000000,100.000000) scale(0.100000,-0.100000)"
fill="#000000" stroke="none">
<path d="M115 934 c-84 -44 -107 -76 -64 -89 14 -5 33 2 59 20 37 25 75 31 75
10 0 -5 -24 -23 -52 -40 -50 -29 -66 -56 -43 -70 6 -4 36 8 67 25 l56 32 20
-21 c23 -22 19 -35 -28 -100 -40 -55 -65 -171 -65 -307 0 -152 36 -156 218
-27 43 30 24 -10 -59 -122 -105 -143 -112 -157 -94 -181 25 -34 54 -1 160 183
20 35 40 63 46 63 11 0 30 -31 101 -163 29 -54 59 -102 66 -104 15 -6 42 15
42 33 0 18 -103 187 -151 248 -38 48 -50 86 -28 86 7 0 31 -18 54 -39 54 -50
138 -93 173 -89 43 5 57 61 42 162 -18 121 -51 204 -99 247 -45 40 -49 55 -26
99 18 35 20 36 63 10 42 -26 72 -26 72 -1 0 13 -15 28 -42 43 -24 13 -43 28
-42 33 1 21 33 15 64 -11 24 -21 36 -25 48 -18 36 23 17 53 -64 96 -34 18 -48
21 -61 12 -10 -6 -57 -85 -104 -175 -48 -90 -92 -164 -99 -164 -6 0 -58 77
-114 170 -70 114 -110 171 -122 172 -11 1 -41 -9 -69 -23z m223 -308 c29 -47
52 -96 52 -109 0 -13 -10 -39 -23 -57 -30 -46 -127 -120 -152 -117 -18 2 -20
9 -18 82 3 120 51 285 82 285 4 0 31 -38 59 -84z m255 -2 c29 -56 67 -189 67
-242 0 -63 -40 -50 -157 54 -66 57 -68 80 -12 175 48 84 63 85 102 13z"/>
</g>
</svg>
