<?xml version="1.0" standalone="no"?>
<!DOCTYPE svg PUBLIC "-//W3C//DTD SVG 20010904//EN"
 "http://www.w3.org/TR/2001/REC-SVG-20010904/DTD/svg10.dtd">
<svg version="1.0" xmlns="http://www.w3.org/2000/svg"
 width="120.000000pt" height="148.000000pt" viewBox="0 0 120.000000 148.000000"
 preserveAspectRatio="xMidYMid meet">
<metadata>
Created by potrace 1.16, written by Peter Selinger 2001-2019
</metadata>
<g transform="translate(0.000000,148.000000) scale(0.100000,-0.100000)"
fill="#000000" stroke="none">
<path d="M215 1394 c-22 -14 -66 -38 -98 -55 -67 -34 -78 -52 -49 -81 l20 -21
34 21 c18 12 55 33 82 48 47 25 50 25 63 8 7 -10 12 -22 10 -27 -2 -6 -37 -28
-79 -51 -42 -22 -80 -44 -84 -49 -9 -9 16 -57 30 -57 7 0 44 20 84 45 40 25
79 45 87 45 8 0 26 -21 41 -46 l27 -45 -29 -32 c-16 -17 -36 -38 -45 -46 -32
-31 -64 -132 -79 -251 -4 -36 -13 -81 -19 -100 -8 -23 -9 -70 -5 -135 6 -97
15 -132 38 -147 21 -14 83 -8 107 11 13 10 40 26 59 36 19 10 63 40 98 67 98
77 90 42 -34 -134 -59 -84 -125 -176 -146 -204 -45 -60 -49 -90 -12 -104 38
-15 56 0 97 77 20 38 45 80 57 93 12 14 45 65 73 114 29 49 57 91 63 93 10 3
121 -177 178 -287 63 -123 73 -131 115 -86 l23 24 -38 58 c-20 33 -45 70 -54
84 -10 15 -30 50 -44 78 -15 29 -48 80 -74 113 -72 93 -85 116 -78 144 4 14
12 25 19 25 6 0 41 -29 76 -65 44 -43 79 -69 109 -80 25 -8 52 -21 61 -29 9
-8 33 -19 53 -24 32 -9 41 -7 61 9 35 27 52 119 37 202 -28 159 -32 173 -82
310 -6 16 -37 51 -69 79 -66 57 -71 75 -40 137 34 66 44 69 107 27 65 -43 89
-44 89 -2 0 25 -9 34 -60 65 -62 38 -72 56 -43 74 14 9 26 3 67 -31 59 -50 97
-56 107 -17 6 25 -17 65 -38 65 -5 0 -36 18 -69 40 -33 22 -66 40 -73 40 -21
0 -52 -36 -76 -87 -13 -26 -63 -120 -110 -208 -48 -88 -98 -180 -111 -204
l-23 -44 -19 24 c-10 13 -47 71 -82 129 -35 58 -81 133 -102 168 -84 139 -139
217 -153 219 -8 2 -33 -9 -55 -23z m267 -431 c109 -167 107 -163 101 -214 -5
-40 -15 -57 -65 -113 -33 -37 -79 -76 -102 -88 -22 -11 -51 -29 -63 -40 -15
-14 -29 -19 -46 -14 -49 12 -47 118 4 361 20 93 74 205 100 205 4 0 36 -44 71
-97z m350 35 c67 -50 135 -244 145 -415 7 -109 -2 -113 -107 -52 -25 14 -116
88 -177 144 -42 39 -52 88 -28 136 27 51 125 209 131 209 3 0 19 -10 36 -22z"/>
</g>
</svg>
