<?xml version="1.0" standalone="no"?>
<!DOCTYPE svg PUBLIC "-//W3C//DTD SVG 20010904//EN"
 "http://www.w3.org/TR/2001/REC-SVG-20010904/DTD/svg10.dtd">
<svg version="1.0" xmlns="http://www.w3.org/2000/svg"
 width="482.000000pt" height="590.000000pt" viewBox="0 0 482.000000 590.000000"
 preserveAspectRatio="xMidYMid meet">
<metadata>
Created by potrace 1.16, written by Peter Selinger 2001-2019
</metadata>
<g transform="translate(0.000000,590.000000) scale(0.500000,-0.500000)"
fill="#000000" stroke="none">
<path d="M209 1134 c-6 -2 -29 -15 -64 -35 -5 -4 -27 -15 -47 -25 -47 -24 -55
-31 -54 -46 4 -40 42 -44 85 -9 32 26 74 43 83 34 18 -20 12 -29 -38 -55 -83
-42 -89 -48 -72 -78 9 -16 23 -17 45 -4 46 27 58 34 70 41 20 12 36 19 40 19
9 -2 45 -58 45 -71 0 -6 -35 -48 -50 -61 -9 -8 -12 -12 -17 -23 -3 -8 -8 -20
-11 -26 -3 -7 -6 -14 -6 -16 0 -2 -2 -8 -4 -12 -6 -11 -12 -34 -12 -44 0 -4
-4 -19 -9 -33 -8 -25 -9 -28 -9 -46 0 -29 -3 -52 -12 -73 -8 -22 -10 -107 -2
-134 2 -7 4 -22 5 -38 2 -59 8 -65 61 -66 38 0 42 1 64 20 5 4 24 15 41 24 23
12 35 19 47 29 20 18 66 48 72 48 9 0 2 -22 -13 -40 -4 -6 -18 -25 -30 -43
-12 -18 -25 -35 -28 -40 -4 -4 -11 -14 -16 -22 -13 -19 -40 -58 -49 -69 -4 -5
-17 -22 -28 -39 -11 -16 -25 -36 -31 -44 -35 -45 -39 -58 -21 -75 33 -32 60
-13 104 73 16 34 19 38 35 56 16 16 19 21 26 37 4 11 13 26 19 34 6 8 15 23
20 32 35 63 45 71 60 45 5 -8 22 -36 38 -63 16 -27 34 -57 39 -66 5 -9 12 -21
16 -26 7 -10 25 -46 25 -49 0 -6 13 -31 22 -40 6 -7 11 -15 16 -27 17 -40 32
-44 60 -16 23 23 23 25 0 56 -14 20 -34 54 -40 67 -2 5 -10 17 -18 27 -12 18
-22 35 -44 80 -6 12 -12 21 -21 30 -7 7 -14 17 -17 21 -5 11 -17 27 -28 40
-30 34 -40 56 -37 82 3 27 20 22 51 -14 6 -7 17 -17 25 -23 8 -6 17 -13 22
-21 9 -12 27 -25 44 -30 35 -11 53 -20 78 -37 39 -28 91 -16 102 24 2 6 5 15
6 19 2 4 3 15 4 24 0 9 2 25 3 34 3 16 3 18 -1 31 -3 7 -6 23 -7 36 -1 13 -3
27 -4 31 -1 4 -4 14 -5 23 -1 8 -4 23 -6 32 -2 9 -4 24 -6 34 -2 9 -4 19 -6
22 -1 3 -5 11 -8 19 -3 8 -7 19 -10 25 -3 6 -8 20 -11 30 -11 34 -41 71 -84
103 -29 23 -31 27 -26 53 3 16 28 62 42 78 6 6 15 5 29 -3 7 -4 17 -10 22 -14
6 -3 19 -11 29 -18 27 -17 40 -17 49 1 12 23 6 40 -20 53 -9 4 -19 10 -22 13
-3 2 -7 4 -8 4 -16 0 -45 28 -40 39 9 22 28 18 63 -15 37 -36 69 -41 82 -15
12 23 3 44 -25 58 -13 6 -34 19 -49 30 -6 5 -16 10 -23 12 -7 2 -14 6 -20 11
-17 16 -54 7 -66 -16 -3 -5 -7 -12 -10 -16 -3 -4 -8 -12 -11 -18 -19 -43 -32
-69 -40 -82 -6 -8 -17 -29 -26 -46 -8 -17 -19 -38 -24 -47 -5 -9 -13 -23 -17
-31 -32 -59 -42 -77 -60 -107 -36 -62 -31 -62 -66 -5 -6 10 -14 22 -16 26 -2
4 -7 12 -11 19 -4 7 -15 25 -25 40 -17 27 -32 52 -45 77 -4 6 -9 14 -12 18 -3
4 -10 15 -16 25 -7 10 -18 27 -25 38 -7 11 -15 24 -18 29 -2 5 -7 14 -10 19
-3 6 -8 13 -11 16 -3 4 -11 15 -17 25 -25 43 -35 51 -54 46z m136 -297 c3 -3
8 -10 10 -14 7 -13 17 -29 21 -34 4 -5 37 -54 72 -109 28 -44 29 -46 23 -62
-2 -5 -3 -15 -3 -25 0 -23 -2 -30 -16 -43 -6 -6 -14 -16 -17 -22 -6 -13 -19
-26 -37 -38 -7 -5 -15 -12 -17 -16 -3 -4 -6 -9 -8 -11 -4 -6 -42 -28 -60 -34
-9 -4 -17 -9 -26 -17 -28 -26 -52 -20 -59 15 -4 20 -6 68 -4 76 1 5 3 19 4 32
2 28 5 53 9 69 2 6 5 23 7 38 2 15 6 32 8 39 2 7 4 14 4 17 0 3 1 10 3 15 1 6
4 15 6 22 2 7 8 21 14 32 5 11 14 28 18 37 14 33 35 47 48 33z m316 -32 c4 -4
13 -12 18 -16 16 -11 23 -20 35 -44 6 -12 12 -25 14 -29 2 -4 5 -12 7 -18 2
-7 6 -15 9 -18 3 -4 6 -9 8 -10 1 -2 3 -11 4 -19 1 -8 4 -22 7 -30 5 -14 7
-27 11 -58 1 -8 3 -17 4 -19 16 -30 21 -127 8 -140 -11 -11 -34 -6 -66 15 -9
6 -21 12 -28 15 -9 3 -15 7 -23 16 -5 6 -16 14 -23 18 -8 4 -21 14 -31 24 -31
31 -48 45 -56 51 -14 8 -24 25 -28 50 -5 30 -1 47 20 79 7 10 17 26 22 36 16
26 17 28 27 43 43 68 45 70 61 54z"/>
</g>
</svg>
