<?xml version="1.0" standalone="no"?>
<!DOCTYPE svg PUBLIC "-//W3C//DTD SVG 20010904//EN"
 "http://www.w3.org/TR/2001/REC-SVG-20010904/DTD/svg10.dtd">
<svg version="1.0" xmlns="http://www.w3.org/2000/svg"
 width="116.000000pt" height="148.000000pt" viewBox="0 0 116.000000 148.000000"
 preserveAspectRatio="xMidYMid meet">
<metadata>
Created by potrace 1.16, written by Peter Selinger 2001-2019
</metadata>
<g transform="translate(0.000000,148.000000) scale(0.100000,-0.100000)"
fill="#000000" stroke="none">
<path d="M449 1336 c-125 -124 -272 -301 -323 -390 -31 -53 -56 -155 -56 -225
0 -55 18 -159 33 -186 6 -11 19 -37 30 -59 10 -21 37 -58 59 -82 50 -55 96
-61 119 -17 7 16 25 48 40 73 84 148 81 345 -8 473 -55 79 -62 92 -54 100 4 4
61 6 127 5 l119 -3 -4 -315 -4 -315 -39 -75 c-22 -41 -43 -79 -47 -85 -4 -5
-14 -26 -21 -45 -7 -19 -21 -47 -31 -61 -10 -14 -20 -36 -24 -50 -4 -19 0 -26
21 -36 20 -9 31 -10 41 -2 7 7 40 68 73 136 33 68 64 122 69 118 8 -5 51 -75
115 -190 31 -56 44 -68 71 -61 14 4 28 13 31 21 4 9 -26 66 -69 132 -131 205
-120 154 -111 518 l7 315 108 0 c125 0 131 -5 82 -76 -68 -101 -89 -263 -49
-384 36 -109 108 -200 158 -200 45 0 59 11 102 79 61 97 70 130 69 258 0 150
-15 181 -169 339 -63 65 -132 139 -152 164 -62 75 -199 210 -214 210 -8 0 -52
-38 -99 -84z m311 -233 c0 -10 -49 -12 -207 -12 -114 0 -211 3 -216 6 -4 2 41
56 100 118 l108 114 108 -107 c59 -59 107 -112 107 -119z m-475 -198 c22 -33
46 -81 53 -108 44 -170 -40 -433 -115 -359 -8 9 -30 46 -47 82 -30 63 -31 70
-30 195 0 114 3 136 23 180 44 95 58 96 116 10z m652 33 c97 -104 109 -306 27
-452 -22 -39 -31 -47 -52 -44 -23 3 -50 33 -68 78 -29 73 -35 104 -36 194 -1
90 1 108 26 166 45 104 54 109 103 58z"/>
</g>
</svg>
