<?xml version="1.0" standalone="no"?>
<!DOCTYPE svg PUBLIC "-//W3C//DTD SVG 20010904//EN"
 "http://www.w3.org/TR/2001/REC-SVG-20010904/DTD/svg10.dtd">
<svg version="1.0" xmlns="http://www.w3.org/2000/svg"
 width="78.000000pt" height="100.000000pt" viewBox="0 0 78.000000 100.000000"
 preserveAspectRatio="xMidYMid meet">
<metadata>
Created by potrace 1.16, written by Peter Selinger 2001-2019
</metadata>
<g transform="translate(0.000000,100.000000) scale(0.100000,-0.100000)"
fill="#000000" stroke="none">
<path d="M292 898 c-98 -103 -191 -219 -219 -277 -53 -107 -31 -261 51 -358
38 -45 69 -44 100 4 42 65 59 135 54 223 -5 79 -9 90 -73 176 -19 27 9 36 81
27 l69 -8 -4 -215 c-3 -184 -6 -219 -21 -245 -10 -16 -35 -63 -55 -103 -35
-68 -36 -75 -21 -90 25 -25 45 -6 81 79 18 41 38 74 45 74 8 0 31 -31 51 -70
45 -84 69 -104 93 -80 18 18 14 28 -54 130 -59 88 -60 91 -60 277 0 95 3 189
6 209 6 33 10 37 41 42 75 13 120 -18 78 -53 -8 -7 -22 -38 -31 -68 -29 -97
-1 -236 58 -299 33 -35 81 -31 112 10 44 58 56 100 56 201 0 93 0 95 -37 143
-20 26 -57 68 -82 93 -25 25 -86 89 -134 143 -50 55 -96 97 -107 97 -9 0 -45
-28 -78 -62z m152 -80 c41 -44 53 -64 44 -70 -18 -11 -220 -10 -237 1 -11 7
-2 22 44 70 32 34 66 61 76 61 9 0 43 -28 73 -62z m-247 -220 c24 -46 28 -64
27 -138 -1 -155 -49 -209 -95 -107 -43 93 -25 297 25 297 9 0 28 -24 43 -52z
m429 35 c29 -30 54 -96 54 -149 0 -94 -45 -196 -77 -176 -7 4 -21 28 -32 52
-28 62 -29 181 -1 244 21 50 30 55 56 29z"/>
</g>
</svg>
