<?xml version="1.0" standalone="no"?>
<!DOCTYPE svg PUBLIC "-//W3C//DTD SVG 20010904//EN"
 "http://www.w3.org/TR/2001/REC-SVG-20010904/DTD/svg10.dtd">
<svg version="1.0" xmlns="http://www.w3.org/2000/svg"
 width="460.000000pt" height="590.000000pt" viewBox="0 0 460.000000 590.000000"
 preserveAspectRatio="xMidYMid meet">
<metadata>
Created by potrace 1.16, written by Peter Selinger 2001-2019
</metadata>
<g transform="translate(0.000000,590.000000) scale(0.500000,-0.500000)"
fill="#000000" stroke="none">
<path d="M426 1133 c-5 -3 -15 -11 -23 -19 -8 -7 -25 -22 -38 -34 -13 -11 -24
-22 -26 -24 -7 -11 -21 -26 -33 -35 -9 -7 -14 -13 -17 -20 -3 -6 -14 -20 -29
-36 -13 -15 -30 -35 -38 -44 -8 -10 -20 -23 -26 -30 -16 -17 -28 -32 -37 -47
-4 -7 -15 -21 -24 -31 -14 -16 -17 -21 -23 -36 -3 -9 -10 -22 -15 -29 -11 -14
-24 -49 -27 -70 -1 -8 -4 -20 -5 -27 -2 -7 -3 -22 -4 -34 -1 -12 -3 -27 -4
-33 -4 -13 -3 -25 3 -55 2 -11 6 -33 9 -48 8 -45 10 -52 20 -64 5 -5 9 -11 9
-12 0 -5 23 -50 33 -65 51 -74 102 -85 124 -27 2 6 8 16 12 22 20 29 47 88 47
101 0 5 2 12 6 19 5 9 6 13 8 34 1 13 3 27 4 31 2 8 0 53 -4 87 -3 27 -20 81
-32 99 -3 5 -8 15 -12 23 -4 9 -11 19 -18 26 -20 21 -35 52 -30 61 5 9 178 10
189 1 6 -4 6 -8 1 -156 -5 -137 -5 -118 -4 -213 2 -119 0 -133 -16 -157 -11
-15 -19 -29 -33 -60 -7 -16 -16 -33 -20 -39 -9 -12 -18 -29 -20 -40 -2 -9 -16
-36 -26 -51 -25 -37 -24 -52 2 -65 26 -13 40 -5 55 30 35 81 81 170 88 170 6
0 23 -26 53 -82 6 -10 13 -23 15 -27 3 -5 8 -14 12 -21 3 -7 8 -16 12 -21 3
-4 6 -9 6 -10 0 -4 29 -40 33 -42 13 -5 49 17 49 30 0 6 -42 77 -53 89 -1 2
-11 18 -22 36 -11 18 -24 39 -29 46 -5 7 -15 22 -21 34 -6 12 -13 26 -17 33
-7 13 -7 29 -5 347 2 158 2 167 5 170 8 8 162 4 167 -3 5 -8 -13 -52 -30 -71
-10 -11 -12 -14 -15 -28 -1 -6 -4 -14 -6 -18 -4 -9 -9 -26 -13 -45 -1 -8 -4
-17 -5 -20 -7 -18 -10 -50 -6 -69 1 -7 3 -21 4 -31 1 -10 3 -21 4 -24 1 -3 2
-10 2 -16 0 -8 2 -15 7 -26 4 -10 8 -21 9 -29 2 -15 11 -35 29 -63 6 -10 15
-24 20 -31 26 -42 59 -57 97 -45 22 7 41 29 62 71 5 10 12 22 16 27 7 9 16 27
16 34 0 2 3 11 6 21 3 10 6 21 6 25 0 3 1 11 2 17 4 23 6 75 4 97 -1 12 -3 33
-4 46 -1 13 -4 26 -5 29 -2 3 -3 9 -4 14 -3 17 -27 57 -49 81 -8 8 -19 22 -26
32 -15 21 -27 33 -41 41 -6 4 -17 13 -24 22 -8 8 -23 25 -35 37 -12 12 -24 26
-27 30 -2 5 -9 12 -14 16 -11 9 -39 41 -50 58 -4 6 -10 13 -13 16 -3 2 -10 9
-16 16 -5 7 -15 16 -22 21 -12 8 -32 30 -47 50 -20 29 -46 43 -63 33z m25 -89
c5 -7 10 -12 11 -12 3 0 34 -30 61 -59 16 -18 41 -43 54 -57 26 -27 29 -32 25
-37 -3 -3 -293 -4 -316 -1 -22 3 -25 -1 61 88 100 105 90 97 104 78z m-250
-282 c16 -17 32 -39 38 -53 3 -7 8 -15 12 -19 11 -12 24 -58 27 -99 1 -14 2
-26 3 -27 2 -3 -3 -68 -6 -81 -1 -7 -3 -16 -4 -22 -14 -96 -70 -148 -100 -92
-5 9 -11 18 -13 20 -3 3 -7 12 -10 20 -3 9 -7 21 -10 26 -14 35 -16 43 -18 56
-1 8 -2 16 -4 18 -4 8 -3 98 1 109 2 6 4 15 4 29 0 12 2 23 4 27 1 4 3 11 4
16 1 6 5 16 11 26 6 10 11 21 12 28 3 13 4 15 16 24 13 9 19 8 33 -6z m522 8
c11 -9 45 -43 48 -49 1 -3 6 -14 10 -24 4 -10 10 -25 14 -32 4 -9 7 -17 8 -25
1 -6 2 -18 4 -27 6 -33 5 -93 -2 -115 -4 -10 -8 -27 -9 -37 -3 -19 -14 -46
-28 -66 -3 -4 -7 -12 -9 -16 -13 -32 -41 -33 -59 -1 -5 8 -12 20 -16 25 -5 6
-11 19 -16 33 -5 13 -10 29 -13 36 -9 24 -12 57 -11 124 0 50 2 63 22 104 5
12 11 26 13 32 10 29 31 47 44 38z"/>
</g>
</svg>
