<?xml version="1.0" standalone="no"?>
<!DOCTYPE svg PUBLIC "-//W3C//DTD SVG 20010904//EN"
 "http://www.w3.org/TR/2001/REC-SVG-20010904/DTD/svg10.dtd">
<svg version="1.0" xmlns="http://www.w3.org/2000/svg"
 width="128.000000pt" height="148.000000pt" viewBox="0 0 128.000000 148.000000"
 preserveAspectRatio="xMidYMid meet">
<metadata>
Created by potrace 1.16, written by Peter Selinger 2001-2019
</metadata>
<g transform="translate(0.000000,148.000000) scale(0.100000,-0.100000)"
fill="#000000" stroke="none">
<path d="M592 1383 c-10 -16 -22 -35 -25 -43 -4 -8 -20 -37 -37 -65 -17 -27
-48 -85 -70 -127 l-40 -78 -189 0 c-220 0 -219 1 -170 -88 18 -32 45 -81 60
-110 16 -30 37 -66 48 -80 10 -15 21 -37 25 -49 10 -31 45 -73 61 -73 15 0 57
67 142 228 l55 103 77 -3 c69 -3 76 -5 74 -23 -1 -11 -4 -136 -7 -278 l-5
-258 -72 -117 c-40 -64 -77 -126 -83 -137 -6 -11 -19 -31 -28 -45 -9 -14 -18
-38 -20 -55 -3 -29 -1 -30 35 -30 l39 0 64 120 c36 66 75 139 86 163 12 23 26
41 31 39 5 -1 50 -75 101 -162 86 -151 93 -160 124 -163 21 -2 34 2 38 11 3 8
-45 98 -110 206 l-114 192 1 267 2 267 58 0 59 0 43 -80 c24 -44 56 -102 70
-130 67 -123 87 -131 128 -52 15 28 39 72 53 97 14 25 46 80 71 123 25 44 43
88 41 100 -3 22 -5 22 -190 22 l-188 0 -75 133 c-41 73 -75 135 -75 138 0 14
-43 64 -55 64 -8 0 -22 -12 -33 -27z m125 -230 c23 -39 39 -74 35 -77 -3 -3
-63 -6 -134 -6 -105 0 -128 3 -128 14 0 8 4 17 9 20 5 4 26 37 47 74 20 37 46
80 56 95 l20 28 27 -38 c15 -21 45 -70 68 -110z m-337 -167 c0 -8 -4 -17 -8
-20 -5 -3 -29 -40 -54 -83 -68 -118 -65 -117 -128 -5 -30 53 -56 103 -58 110
-3 9 27 12 122 12 103 0 126 -3 126 -14z m732 8 c5 -5 -13 -37 -91 -166 -9
-15 -21 -30 -27 -32 -6 -2 -27 26 -48 62 -20 37 -45 81 -55 97 -10 17 -16 33
-14 38 5 8 227 10 235 1z"/>
</g>
</svg>
