<?xml version="1.0" standalone="no"?>
<!DOCTYPE svg PUBLIC "-//W3C//DTD SVG 20010904//EN"
 "http://www.w3.org/TR/2001/REC-SVG-20010904/DTD/svg10.dtd">
<svg version="1.0" xmlns="http://www.w3.org/2000/svg"
 width="86.000000pt" height="100.000000pt" viewBox="0 0 86.000000 100.000000"
 preserveAspectRatio="xMidYMid meet">
<metadata>
Created by potrace 1.16, written by Peter Selinger 2001-2019
</metadata>
<g transform="translate(0.000000,100.000000) scale(0.100000,-0.100000)"
fill="#000000" stroke="none">
<path d="M383 918 c-16 -24 -44 -76 -63 -115 l-35 -72 -126 0 c-104 -1 -128
-4 -133 -16 -9 -24 122 -265 143 -265 18 0 40 31 87 124 51 99 67 113 119 100
l25 -6 0 -180 0 -180 -70 -115 c-77 -127 -87 -166 -44 -161 23 3 36 19 83 108
31 58 60 105 64 105 4 0 34 -47 66 -105 47 -86 62 -106 83 -108 15 -2 28 3 31
11 3 7 -31 72 -74 143 l-79 129 0 166 c0 180 6 204 50 197 19 -2 35 -24 80
-108 72 -137 80 -139 142 -28 70 126 89 168 83 178 -4 6 -61 10 -129 10 l-123
0 -64 112 c-35 62 -70 114 -76 116 -7 2 -25 -16 -40 -40z m84 -118 c18 -30 33
-58 33 -62 0 -5 -36 -8 -80 -8 -44 0 -80 3 -80 6 0 20 67 124 79 122 8 -2 30
-28 48 -58z m-220 -134 c2 -2 -12 -31 -32 -65 -42 -71 -50 -70 -91 11 -29 57
-29 55 -6 62 17 5 123 -2 129 -8z m485 -2 c9 -6 -24 -67 -53 -98 -17 -18 -18
-17 -48 30 -34 54 -37 70 -18 78 13 6 106 -2 119 -10z"/>
</g>
</svg>
