<?xml version="1.0" standalone="no"?>
<!DOCTYPE svg PUBLIC "-//W3C//DTD SVG 20010904//EN"
 "http://www.w3.org/TR/2001/REC-SVG-20010904/DTD/svg10.dtd">
<svg version="1.0" xmlns="http://www.w3.org/2000/svg"
 width="508.000000pt" height="590.000000pt" viewBox="0 0 508.000000 590.000000"
 preserveAspectRatio="xMidYMid meet">
<metadata>
Created by potrace 1.16, written by Peter Selinger 2001-2019
</metadata>
<g transform="translate(0.000000,590.000000) scale(0.500000,-0.500000)"
fill="#000000" stroke="none">
<path d="M483 1124 c-6 -5 -24 -33 -32 -51 -4 -8 -12 -22 -18 -32 -6 -9 -11
-19 -12 -22 -1 -2 -4 -8 -8 -13 -4 -5 -9 -13 -11 -19 -3 -5 -10 -19 -16 -31
-6 -12 -14 -26 -18 -32 -3 -6 -10 -18 -14 -28 -20 -41 -7 -38 -153 -37 -168 2
-169 2 -169 -26 0 -17 2 -24 14 -41 4 -7 11 -18 14 -25 3 -6 9 -17 13 -24 4
-7 15 -26 24 -43 8 -17 17 -33 20 -37 2 -3 7 -11 10 -17 3 -6 9 -17 14 -24 5
-7 12 -21 16 -30 20 -41 32 -55 49 -55 11 0 13 1 16 5 6 7 25 40 33 57 3 8 10
20 15 28 4 7 12 21 16 30 4 9 12 23 18 32 5 9 11 20 13 24 1 5 6 13 9 18 4 6
13 22 20 36 19 37 122 55 134 23 2 -7 0 -190 -2 -203 -2 -6 -3 -52 -4 -116 -1
-102 -1 -106 -5 -115 -4 -9 -50 -86 -99 -165 -61 -101 -58 -95 -58 -104 0 -5
-1 -12 -3 -16 -9 -22 -1 -30 28 -31 30 0 29 -2 57 49 50 93 83 155 95 177 25
47 20 50 74 -44 57 -98 86 -148 93 -160 12 -20 15 -22 38 -22 36 0 42 18 20
54 -21 32 -84 135 -105 171 -70 116 -65 101 -65 192 0 48 1 73 2 76 3 7 3 125
1 209 -2 63 -5 59 46 59 43 0 44 0 54 -20 3 -7 10 -20 16 -30 6 -10 17 -31 25
-47 8 -16 17 -32 19 -35 3 -3 6 -10 8 -14 2 -4 8 -15 13 -24 6 -8 13 -22 16
-29 28 -61 56 -77 74 -42 4 7 9 17 12 22 4 4 10 15 13 24 4 8 12 22 17 30 5 8
11 19 14 25 2 5 9 18 16 29 7 11 14 24 17 31 3 6 9 16 13 23 4 6 12 19 17 29
5 10 13 24 17 31 10 15 12 48 4 56 -4 4 -24 8 -28 5 -1 -1 -43 -1 -92 -1 -71
0 -93 -1 -106 -3 -55 -10 -71 -3 -90 36 -6 12 -13 26 -16 30 -4 5 -10 16 -13
25 -4 8 -12 22 -18 31 -5 9 -12 21 -15 28 -3 7 -9 18 -13 24 -4 7 -12 21 -18
32 -32 61 -45 73 -66 57z m20 -98 c4 -4 9 -11 12 -16 3 -5 9 -13 14 -18 4 -5
11 -15 14 -23 4 -8 11 -21 17 -30 6 -9 14 -22 17 -30 4 -8 10 -19 15 -26 15
-22 12 -25 -19 -25 -39 -1 -76 -1 -97 0 -12 0 -33 0 -49 0 -37 -1 -39 1 -21
27 4 7 10 17 13 23 2 6 10 21 18 32 7 11 16 26 19 33 3 6 11 20 17 30 7 10 14
21 15 25 5 8 8 8 15 -2z m-204 -229 c4 -4 4 -4 -5 -20 -5 -7 -10 -18 -13 -23
-2 -5 -9 -17 -15 -26 -6 -9 -13 -22 -16 -29 -3 -7 -9 -17 -14 -23 -5 -6 -12
-14 -14 -18 -19 -28 -22 -30 -28 -20 -1 4 -8 15 -15 25 -6 10 -14 24 -18 32
-3 8 -11 22 -17 31 -15 23 -37 65 -35 69 2 6 184 8 190 2z m582 -1 c4 -3 3 -7
-4 -18 -2 -4 -6 -11 -8 -15 -1 -5 -7 -15 -12 -23 -5 -8 -13 -22 -17 -31 -5 -9
-12 -21 -17 -26 -5 -6 -10 -13 -12 -17 -13 -25 -24 -30 -32 -15 -3 5 -10 17
-16 25 -5 8 -12 20 -15 27 -3 7 -10 20 -16 28 -22 32 -36 65 -29 68 6 2 174 0
178 -3z"/>
</g>
</svg>
