<?xml version="1.0" standalone="no"?>
<!DOCTYPE svg PUBLIC "-//W3C//DTD SVG 20010904//EN"
 "http://www.w3.org/TR/2001/REC-SVG-20010904/DTD/svg10.dtd">
<svg version="1.0" xmlns="http://www.w3.org/2000/svg"
 width="544.000000pt" height="590.000000pt" viewBox="0 0 544.000000 590.000000"
 preserveAspectRatio="xMidYMid meet">
<metadata>
Created by potrace 1.16, written by Peter Selinger 2001-2019
</metadata>
<g transform="translate(0.000000,590.000000) scale(0.500000,-0.500000)"
fill="#000000" stroke="none">
<path d="M522 1136 c-18 -11 -65 -60 -76 -79 -3 -6 -12 -17 -19 -24 -7 -8 -17
-21 -23 -29 -6 -8 -16 -19 -22 -25 l-11 -10 -93 2 c-122 1 -122 1 -136 -74 -1
-6 -6 -17 -9 -25 -7 -12 -11 -21 -19 -43 -2 -5 -7 -13 -11 -17 -7 -8 -14 -22
-16 -34 -1 -4 -5 -16 -8 -27 -13 -38 -19 -51 -26 -59 -10 -10 -16 -33 -13 -49
1 -7 2 -13 0 -18 -3 -14 -7 -51 -5 -60 0 -5 0 -13 -1 -19 -12 -55 -8 -177 7
-218 2 -5 3 -14 3 -25 -1 -14 0 -17 4 -26 3 -6 7 -15 8 -22 2 -11 16 -61 20
-71 1 -3 5 -9 9 -14 4 -5 8 -12 10 -18 2 -7 7 -15 19 -30 9 -12 20 -26 24 -31
24 -33 61 -32 78 2 3 6 11 19 19 29 7 11 17 28 22 38 5 11 12 22 15 25 9 9 12
15 14 34 1 14 3 19 8 27 8 12 14 30 16 46 1 7 3 19 5 26 1 7 4 21 5 30 1 11 4
21 8 30 6 13 6 13 6 50 0 20 1 41 2 45 4 18 5 52 1 62 -6 20 -8 111 -2 120 5
7 42 37 59 46 7 4 20 13 27 18 61 52 74 53 74 4 0 -13 -1 -71 -2 -129 -1 -58
-2 -108 -3 -112 -1 -4 -2 -10 -2 -15 0 -7 -4 -16 -13 -29 -3 -3 -5 -10 -6 -15
-1 -4 -5 -15 -9 -24 -4 -9 -10 -24 -13 -34 -3 -10 -7 -23 -10 -28 -2 -6 -6
-15 -7 -20 -1 -6 -7 -19 -12 -28 -7 -11 -11 -21 -12 -28 -1 -6 -3 -14 -5 -18
-3 -8 -13 -36 -20 -58 -6 -20 -11 -32 -22 -57 -26 -56 -25 -65 2 -75 31 -10
51 9 51 48 0 13 11 46 24 70 6 10 12 25 14 34 7 28 25 82 37 111 4 9 10 25 14
36 14 38 16 38 40 -15 7 -16 18 -39 23 -51 12 -25 19 -42 22 -54 1 -5 8 -20
14 -34 8 -16 13 -30 15 -40 3 -12 5 -18 13 -29 7 -11 11 -19 14 -31 7 -27 20
-37 43 -33 27 4 35 28 18 54 -5 7 -13 24 -19 37 -6 12 -13 28 -17 34 -4 6 -8
17 -11 23 -2 7 -8 19 -13 28 -5 9 -10 21 -12 28 -2 7 -7 18 -11 26 -4 8 -9 19
-10 25 -2 7 -6 16 -14 27 -6 9 -13 21 -15 28 -3 7 -10 21 -15 32 -15 30 -16
38 -16 153 1 93 -1 161 -3 181 -2 12 2 26 6 28 5 2 46 -17 63 -29 3 -2 10 -6
17 -10 7 -3 18 -10 26 -15 8 -5 17 -9 22 -10 12 -2 53 -20 60 -27 9 -9 12 -33
6 -56 -1 -7 -2 -21 -2 -37 0 -17 0 -31 -2 -40 -3 -14 -5 -127 -2 -131 1 -1 2
-12 3 -24 1 -13 4 -30 6 -38 2 -8 4 -17 4 -20 0 -3 2 -13 4 -22 2 -9 6 -27 8
-38 2 -13 7 -28 11 -36 3 -8 9 -23 13 -33 8 -23 13 -32 21 -41 3 -4 10 -14 14
-22 26 -55 89 -56 124 -2 5 8 14 19 20 26 6 6 12 15 14 21 2 6 6 18 10 27 4 9
7 21 8 26 1 8 6 20 19 43 4 9 6 14 6 22 0 6 1 15 2 21 5 31 7 54 7 102 0 35 1
57 3 65 3 13 2 18 -3 45 -2 12 -3 22 -2 35 1 14 1 21 -2 32 -2 8 -4 24 -4 36
-1 28 -5 49 -13 61 -5 8 -11 26 -18 53 -1 4 -5 18 -9 30 -4 12 -9 27 -10 32
-4 11 -19 37 -31 52 -9 11 -16 30 -16 41 0 12 -8 30 -18 41 -15 16 -8 15 -120
16 -54 1 -102 2 -105 2 -7 1 -12 7 -52 61 -8 10 -18 23 -22 28 -4 5 -16 21
-27 35 -38 50 -46 56 -64 45z m25 -78 c4 -5 9 -13 12 -18 2 -5 10 -16 18 -24
47 -49 44 -51 -49 -50 -98 0 -95 -3 -47 51 52 56 51 56 66 41z m-64 -131 c11
-4 21 -74 13 -94 -2 -7 -41 -33 -81 -56 -5 -3 -16 -10 -23 -15 -96 -69 -97
-69 -110 3 -5 29 -8 36 -22 52 -5 6 -12 15 -14 20 -31 63 -27 90 15 86 26 -2
142 -1 162 2 19 3 55 4 60 2z m194 -7 c12 -1 36 -3 52 -5 28 -3 31 -3 47 0 74
14 98 -4 63 -49 -5 -6 -11 -17 -13 -24 -3 -7 -8 -18 -12 -25 -8 -12 -15 -30
-17 -45 -1 -10 -17 -43 -23 -48 -4 -3 -26 5 -43 16 -14 9 -39 21 -51 25 -6 2
-26 11 -44 20 -18 9 -39 18 -46 21 -36 13 -40 19 -40 61 -1 59 6 62 127 53z
m225 -68 c4 -5 16 -38 21 -59 6 -22 7 -26 15 -37 9 -13 15 -30 18 -49 1 -7 3
-15 4 -17 1 -2 3 -10 4 -18 1 -7 4 -19 7 -27 5 -12 5 -15 4 -37 -1 -20 -1 -25
3 -41 5 -20 5 -36 3 -148 -1 -49 -1 -64 -4 -71 -2 -5 -3 -13 -3 -19 0 -7 -3
-18 -8 -33 -4 -12 -9 -29 -10 -37 -3 -13 -4 -15 -13 -25 -6 -6 -12 -15 -14
-20 -1 -5 -5 -14 -7 -20 -7 -20 -37 -45 -45 -38 -9 8 -61 104 -61 113 0 2 -2
10 -5 18 -3 9 -5 18 -5 21 0 3 -2 10 -5 16 -4 9 -5 14 -5 28 0 10 -1 22 -2 27
-2 12 -2 9 -1 139 l0 103 9 23 c5 13 10 27 11 32 5 32 12 51 36 92 7 12 19 37
26 54 16 36 18 39 27 30z m-706 -20 c2 -7 6 -15 9 -19 14 -17 36 -72 44 -110
1 -3 5 -10 10 -15 7 -8 9 -11 9 -17 0 -5 1 -11 2 -14 2 -8 7 -57 6 -69 0 -5 1
-13 2 -18 2 -5 3 -18 3 -28 0 -10 2 -24 4 -31 3 -11 3 -13 0 -23 -2 -6 -3 -13
-2 -18 2 -10 -4 -50 -10 -72 -4 -15 -5 -19 -3 -26 4 -16 -2 -58 -10 -73 -2 -3
-5 -12 -7 -20 -2 -8 -6 -19 -9 -26 -5 -10 -13 -36 -19 -56 -1 -3 -6 -8 -11
-13 -7 -6 -12 -13 -18 -24 -18 -34 -28 -33 -46 5 -4 9 -8 17 -8 18 0 1 -4 7
-9 13 -8 10 -11 17 -11 27 0 2 -3 10 -7 18 -3 8 -8 19 -9 25 -1 6 -4 18 -7 27
-6 18 -10 45 -12 77 -1 12 -3 27 -4 35 -2 8 -3 19 -3 26 -1 36 2 105 5 129 2
15 3 32 3 38 0 6 3 20 6 32 4 14 7 29 8 45 3 26 7 36 22 59 3 5 6 10 6 12 0 1
2 7 5 14 2 6 9 22 14 35 17 45 40 63 47 37z"/>
</g>
</svg>
