<?xml version="1.0" standalone="no"?>
<!DOCTYPE svg PUBLIC "-//W3C//DTD SVG 20010904//EN"
 "http://www.w3.org/TR/2001/REC-SVG-20010904/DTD/svg10.dtd">
<svg version="1.0" xmlns="http://www.w3.org/2000/svg"
 width="136.000000pt" height="148.000000pt" viewBox="0 0 136.000000 148.000000"
 preserveAspectRatio="xMidYMid meet">
<metadata>
Created by potrace 1.16, written by Peter Selinger 2001-2019
</metadata>
<g transform="translate(0.000000,148.000000) scale(0.100000,-0.100000)"
fill="#000000" stroke="none">
<path d="M612 1383 c-26 -27 -69 -77 -95 -111 l-49 -62 -128 0 c-90 0 -131 -4
-136 -12 -4 -7 -20 -48 -35 -91 -15 -43 -34 -86 -41 -95 -8 -9 -22 -42 -32
-73 -9 -31 -23 -64 -30 -75 -8 -12 -19 -81 -27 -179 -11 -140 -10 -171 3 -250
25 -138 47 -204 96 -277 64 -98 89 -100 142 -15 18 29 41 64 51 79 11 15 19
34 19 43 0 9 6 28 14 43 31 60 56 272 48 413 l-5 96 39 28 c22 16 63 46 91 68
29 22 59 37 67 34 11 -4 13 -38 9 -189 -4 -163 -7 -188 -27 -233 -13 -27 -31
-75 -41 -105 -10 -30 -21 -59 -25 -65 -4 -5 -15 -35 -25 -65 -10 -30 -31 -89
-47 -130 -28 -71 -29 -75 -11 -87 36 -27 56 -12 73 52 8 33 21 71 29 84 7 13
21 51 31 85 27 91 56 166 68 178 8 8 15 0 26 -27 9 -21 28 -66 42 -99 14 -34
35 -83 47 -111 57 -138 67 -155 92 -155 57 0 50 25 -76 282 -5 10 -9 23 -9 29
0 6 -8 23 -18 37 -10 15 -28 50 -40 78 -19 45 -21 71 -23 250 -2 224 -1 225
68 181 21 -13 70 -39 110 -57 39 -18 73 -41 76 -50 2 -9 0 -68 -6 -130 -9
-109 -3 -203 21 -340 10 -56 76 -190 107 -220 33 -31 84 -20 123 28 33 42 62
95 62 114 0 7 10 31 22 53 22 38 23 50 22 265 0 210 -2 228 -22 272 -12 26
-22 53 -22 60 0 27 -32 104 -56 135 -13 17 -24 43 -24 57 0 14 -10 37 -23 51
-22 26 -25 27 -142 27 -66 0 -128 2 -137 4 -10 3 -52 51 -94 107 -42 56 -83
106 -91 110 -10 6 -28 -5 -61 -40z m108 -108 c29 -37 40 -59 33 -66 -14 -14
-198 -7 -198 7 0 18 103 126 113 120 5 -3 28 -30 52 -61z m-108 -129 c4 -6 8
-34 8 -62 l0 -52 -67 -40 c-38 -22 -88 -56 -113 -76 -25 -20 -50 -36 -57 -36
-16 0 -29 26 -38 77 -4 24 -11 45 -16 49 -12 7 -59 100 -59 117 0 7 4 17 10
23 13 13 323 14 332 0z m308 1 c138 -2 145 -3 148 -23 2 -11 -6 -28 -18 -39
-11 -10 -20 -24 -20 -31 0 -8 -9 -28 -20 -46 -11 -18 -20 -42 -20 -54 0 -11
-6 -29 -14 -39 -13 -19 -17 -18 -101 24 -48 24 -112 54 -141 67 l-54 24 0 59
c0 66 6 72 60 64 19 -2 100 -5 180 -6z m225 -129 c9 -29 21 -61 26 -72 14 -24
49 -158 49 -188 0 -13 2 -84 4 -158 3 -95 0 -154 -11 -200 -16 -73 -65 -179
-93 -205 -18 -16 -20 -16 -35 2 -9 11 -28 46 -42 79 -14 32 -29 66 -33 75 -14
27 -28 160 -29 279 -1 88 4 131 20 190 26 90 99 250 116 250 6 0 19 -24 28
-52z m-881 -13 c14 -30 28 -67 32 -82 4 -16 14 -41 24 -58 9 -16 18 -50 19
-75 2 -25 6 -73 10 -107 4 -34 3 -92 -1 -130 -5 -37 -11 -87 -13 -109 -9 -94
-90 -283 -122 -284 -25 0 -97 178 -107 265 -15 126 -16 169 -7 255 16 151 21
170 58 260 35 83 58 120 74 120 5 0 20 -25 33 -55z"/>
</g>
</svg>
