<?xml version="1.0" standalone="no"?>
<!DOCTYPE svg PUBLIC "-//W3C//DTD SVG 20010904//EN"
 "http://www.w3.org/TR/2001/REC-SVG-20010904/DTD/svg10.dtd">
<svg version="1.0" xmlns="http://www.w3.org/2000/svg"
 width="92.000000pt" height="100.000000pt" viewBox="0 0 92.000000 100.000000"
 preserveAspectRatio="xMidYMid meet">
<metadata>
Created by potrace 1.16, written by Peter Selinger 2001-2019
</metadata>
<g transform="translate(0.000000,100.000000) scale(0.100000,-0.100000)"
fill="#000000" stroke="none">
<path d="M372 893 l-60 -68 -87 -4 -87 -3 -14 -37 c-8 -20 -21 -49 -29 -64 -8
-16 -27 -59 -42 -95 -25 -62 -27 -78 -27 -212 -1 -162 11 -220 64 -303 37 -58
54 -66 84 -38 67 63 122 264 110 402 l-6 75 62 47 c35 25 66 44 71 42 4 -3 5
-58 2 -123 -5 -115 -7 -120 -70 -281 -35 -90 -62 -170 -59 -177 3 -8 16 -14
29 -14 22 0 28 11 69 133 25 72 49 132 53 132 5 0 24 -36 42 -80 66 -159 75
-176 97 -173 12 2 22 11 24 20 3 15 -48 133 -103 238 -21 39 -25 66 -31 188
-8 166 -12 161 92 104 l69 -37 1 -140 c1 -143 11 -199 46 -270 28 -55 47 -75
73 -75 32 0 82 59 107 126 19 51 22 79 22 204 0 158 -10 204 -65 310 -16 30
-29 60 -29 67 0 21 -23 28 -115 33 l-89 5 -54 68 c-30 37 -62 67 -72 67 -10 0
-45 -30 -78 -67z m105 -25 c13 -12 23 -27 23 -35 0 -25 -99 -32 -107 -7 -4 13
35 64 50 64 6 0 21 -10 34 -22z m-61 -113 c3 -14 4 -31 1 -39 -8 -21 -137
-107 -155 -104 -9 2 -19 17 -23 35 -3 17 -16 43 -28 58 -39 50 -30 64 47 68
162 8 151 9 158 -18z m302 10 c2 -2 -57 -135 -64 -144 -4 -5 -153 58 -171 72
-13 9 -18 69 -7 79 5 6 235 -1 242 -7z m78 -150 c24 -77 26 -95 22 -227 -3
-133 -5 -147 -31 -196 -16 -29 -33 -52 -40 -50 -7 2 -23 26 -37 53 -23 46 -25
64 -28 201 -4 145 -3 154 23 220 31 77 43 96 56 88 5 -3 20 -43 35 -89z m-600
13 c27 -69 29 -81 28 -213 -1 -120 -4 -148 -23 -197 -12 -31 -30 -67 -40 -79
l-18 -23 -17 26 c-9 13 -26 63 -37 109 -27 106 -22 250 12 350 42 125 54 128
95 27z"/>
</g>
</svg>
