<?xml version="1.0" standalone="no"?>
<!DOCTYPE svg PUBLIC "-//W3C//DTD SVG 20010904//EN"
 "http://www.w3.org/TR/2001/REC-SVG-20010904/DTD/svg10.dtd">
<svg version="1.0" xmlns="http://www.w3.org/2000/svg"
 width="420.000000pt" height="574.000000pt" viewBox="0 0 420.000000 574.000000"
 preserveAspectRatio="xMidYMid meet">
<metadata>
Created by potrace 1.16, written by Peter Selinger 2001-2019
</metadata>
<g transform="translate(0.000000,574.000000) scale(0.500000,-0.500000)"
fill="#000000" stroke="none">
<path d="M426 1085 c-10 -2 -53 -24 -71 -36 -10 -7 -27 -17 -37 -22 -36 -17
-81 -56 -91 -79 -3 -7 -9 -15 -17 -22 -10 -9 -14 -14 -22 -32 -6 -11 -14 -26
-18 -31 -4 -6 -11 -17 -16 -26 -4 -9 -9 -18 -11 -21 -2 -3 -7 -15 -12 -27 -5
-12 -13 -27 -18 -33 -14 -18 -26 -52 -31 -89 -2 -12 -5 -24 -11 -39 -2 -6 -3
-12 -2 -20 1 -8 0 -15 -2 -24 -2 -9 -3 -17 -2 -25 0 -7 0 -16 -1 -21 -1 -6 0
-16 1 -24 4 -21 7 -48 7 -55 0 -4 3 -16 7 -28 3 -12 7 -28 8 -35 2 -15 8 -28
18 -38 4 -4 7 -9 8 -14 2 -10 4 -15 12 -25 9 -11 13 -20 16 -35 3 -15 11 -29
18 -36 3 -3 8 -11 11 -18 3 -6 8 -16 12 -21 3 -4 9 -15 14 -24 8 -18 24 -34
53 -56 8 -6 16 -13 17 -15 1 -2 7 -7 13 -11 7 -4 22 -15 34 -24 30 -21 38 -20
69 10 5 5 12 10 16 13 12 7 27 25 37 44 6 12 20 32 30 45 5 5 7 11 9 19 1 7 6
20 10 29 7 15 8 19 8 30 0 14 0 12 0 72 0 45 -2 95 -6 121 -1 8 -3 25 -4 37
-2 32 -10 49 -27 57 -32 16 -57 -15 -42 -52 3 -7 6 -18 8 -26 2 -8 4 -17 6
-20 2 -3 3 -11 3 -17 0 -6 1 -17 3 -24 8 -37 8 -98 -1 -134 -3 -9 -6 -24 -7
-34 -3 -19 -5 -26 -25 -61 -33 -61 -92 -53 -143 19 -4 6 -12 17 -16 23 -4 6
-13 16 -19 22 -10 10 -12 13 -18 31 -3 11 -9 26 -13 34 -4 8 -8 18 -10 23 -2
6 -6 14 -10 18 -25 32 -24 28 -34 82 -3 15 -6 31 -8 36 -6 19 -4 96 4 139 3
17 6 38 7 47 2 22 5 33 13 46 10 17 25 44 30 54 10 19 21 44 25 54 7 17 12 26
21 36 5 5 16 20 25 33 9 13 21 30 28 38 7 8 15 18 19 23 3 4 16 15 28 24 12 9
29 21 37 27 23 17 44 23 71 19 23 -3 25 -5 44 -25 13 -14 20 -20 30 -25 12 -6
19 -13 30 -30 3 -4 14 -18 26 -29 17 -18 22 -24 26 -35 5 -12 8 -17 23 -35 7
-9 24 -47 30 -67 8 -25 20 -54 28 -64 9 -13 10 -15 17 -46 7 -33 8 -205 2
-222 -2 -5 -5 -13 -6 -19 -10 -33 -15 -48 -22 -64 -4 -10 -8 -25 -9 -32 -1 -8
-8 -27 -14 -44 -18 -50 -22 -62 -22 -65 0 -2 -6 -12 -13 -22 -7 -11 -16 -27
-20 -36 -4 -10 -10 -23 -14 -29 -33 -55 9 -81 54 -34 13 13 16 19 18 39 2 15
12 36 25 52 14 18 20 29 24 51 2 10 5 22 7 27 2 5 3 12 3 16 0 4 2 12 4 17 2
6 8 23 13 38 5 15 12 35 16 43 5 11 7 19 8 31 0 9 3 28 6 43 3 17 5 37 6 57 1
21 2 34 5 43 5 18 5 33 0 45 -3 7 -5 16 -6 35 -1 14 -3 28 -4 31 -1 3 -4 16
-7 29 -6 30 -7 32 -16 43 -4 5 -8 14 -10 21 -8 28 -29 72 -42 89 -13 17 -26
44 -30 61 -4 20 -15 38 -29 47 -15 9 -20 14 -28 27 -9 14 -22 26 -44 41 -10 6
-19 14 -22 17 -2 3 -10 9 -16 13 -7 4 -19 13 -25 19 -18 17 -32 21 -57 17z"/>
</g>
</svg>
