<?xml version="1.0" standalone="no"?>
<!DOCTYPE svg PUBLIC "-//W3C//DTD SVG 20010904//EN"
 "http://www.w3.org/TR/2001/REC-SVG-20010904/DTD/svg10.dtd">
<svg version="1.0" xmlns="http://www.w3.org/2000/svg"
 width="74.000000pt" height="100.000000pt" viewBox="0 0 74.000000 100.000000"
 preserveAspectRatio="xMidYMid meet">
<metadata>
Created by potrace 1.16, written by Peter Selinger 2001-2019
</metadata>
<g transform="translate(0.000000,100.000000) scale(0.100000,-0.100000)"
fill="#000000" stroke="none">
<path d="M360 943 c-45 -16 -144 -91 -174 -132 -105 -144 -148 -284 -126 -409
21 -125 130 -294 220 -342 41 -22 133 80 149 165 9 47 -1 234 -13 254 -10 15
-41 14 -55 -3 -9 -11 -8 -27 5 -72 33 -114 -4 -274 -63 -274 -62 0 -179 189
-190 306 -11 122 59 286 168 389 79 76 102 75 180 -5 43 -44 71 -86 104 -155
43 -90 45 -99 45 -183 0 -73 -6 -105 -34 -188 -18 -54 -45 -122 -60 -151 -30
-60 -32 -81 -11 -89 23 -9 44 13 77 85 70 154 102 325 79 431 -16 76 -94 227
-144 279 -49 50 -115 101 -131 100 -6 0 -18 -3 -26 -6z"/>
</g>
</svg>
