<?xml version="1.0" standalone="no"?>
<!DOCTYPE svg PUBLIC "-//W3C//DTD SVG 20010904//EN"
 "http://www.w3.org/TR/2001/REC-SVG-20010904/DTD/svg10.dtd">
<svg version="1.0" xmlns="http://www.w3.org/2000/svg"
 width="106.000000pt" height="144.000000pt" viewBox="0 0 106.000000 144.000000"
 preserveAspectRatio="xMidYMid meet">
<metadata>
Created by potrace 1.16, written by Peter Selinger 2001-2019
</metadata>
<g transform="translate(0.000000,144.000000) scale(0.100000,-0.100000)"
fill="#000000" stroke="none">
<path d="M480 1329 c-30 -18 -68 -38 -84 -47 -42 -22 -137 -121 -165 -173 -14
-24 -38 -71 -54 -104 -17 -33 -33 -62 -37 -65 -17 -12 -30 -53 -46 -151 -14
-87 -15 -119 -6 -180 18 -121 23 -140 52 -183 15 -23 33 -58 39 -78 7 -21 16
-38 19 -38 4 0 18 -23 32 -51 23 -47 68 -92 161 -161 l35 -26 46 36 c51 41
106 117 127 176 7 22 14 71 15 110 3 97 -17 271 -33 290 -17 20 -38 20 -58 0
-14 -14 -14 -20 1 -67 41 -125 28 -313 -28 -398 -23 -34 -31 -39 -66 -39 -32
0 -46 7 -77 38 -59 60 -99 114 -112 154 -7 20 -24 54 -38 75 -29 42 -53 142
-53 216 0 64 19 187 32 212 6 11 29 56 51 100 74 149 202 288 272 295 60 6 73
-1 159 -84 47 -47 86 -89 86 -95 0 -6 11 -26 24 -46 14 -20 32 -59 42 -88 9
-29 26 -65 37 -81 18 -25 21 -49 25 -167 4 -130 3 -143 -23 -221 -65 -198 -80
-236 -112 -292 -41 -70 -42 -113 -4 -108 34 3 58 27 65 65 4 17 18 49 31 69
14 21 30 59 36 85 7 27 22 75 34 108 43 117 60 301 36 405 -14 64 -28 98 -93
228 -27 52 -48 100 -48 107 0 7 -12 21 -27 31 -16 9 -34 25 -41 35 -22 32
-161 139 -179 139 -10 0 -43 -14 -73 -31z"/>
</g>
</svg>
