<?xml version="1.0" standalone="no"?>
<!DOCTYPE svg PUBLIC "-//W3C//DTD SVG 20010904//EN"
 "http://www.w3.org/TR/2001/REC-SVG-20010904/DTD/svg10.dtd">
<svg version="1.0" xmlns="http://www.w3.org/2000/svg"
 width="460.000000pt" height="590.000000pt" viewBox="0 0 460.000000 590.000000"
 preserveAspectRatio="xMidYMid meet">
<metadata>
Created by potrace 1.16, written by Peter Selinger 2001-2019
</metadata>
<g transform="translate(0.000000,590.000000) scale(0.500000,-0.500000)"
fill="#000000" stroke="none">
<path d="M427 1112 c-5 -3 -13 -6 -17 -7 -4 -2 -9 -7 -13 -10 -8 -12 -24 -23
-37 -26 -9 -3 -15 -6 -23 -13 -6 -5 -18 -15 -26 -21 -9 -7 -18 -14 -19 -16 -1
-2 -7 -4 -14 -6 -12 -4 -49 -38 -68 -63 -5 -7 -13 -15 -17 -18 -17 -12 -23
-23 -29 -50 -4 -20 -12 -33 -30 -53 -8 -9 -20 -32 -20 -40 0 -11 -25 -71 -35
-85 -11 -14 -17 -40 -17 -77 0 -9 -1 -18 -3 -22 -11 -25 -9 -118 2 -167 3 -12
5 -27 6 -34 2 -17 4 -21 14 -32 7 -8 9 -11 13 -24 2 -9 7 -25 12 -36 4 -12 9
-26 11 -32 2 -9 6 -15 13 -23 8 -8 12 -15 19 -33 12 -33 18 -43 31 -57 6 -7
17 -20 25 -30 8 -10 18 -22 22 -27 23 -28 57 -47 84 -47 22 0 26 1 43 14 5 4
15 10 22 14 15 8 32 24 42 41 4 6 11 18 17 25 14 18 17 24 24 50 3 12 8 27 11
33 4 7 8 22 11 34 2 12 6 24 8 27 8 12 8 56 0 86 -3 9 -4 22 -4 52 -1 48 -3
70 -10 93 -3 9 -7 22 -8 29 -9 39 -49 65 -78 51 -26 -13 -27 -44 0 -75 4 -6
10 -17 15 -29 4 -11 10 -24 13 -29 12 -20 13 -149 2 -167 -9 -16 -14 -32 -18
-58 -4 -29 -3 -28 -17 -49 -33 -53 -72 -68 -112 -44 -13 7 -37 39 -45 59 -2 5
-9 17 -15 27 -8 11 -14 23 -16 32 -7 23 -13 38 -25 62 -6 12 -11 23 -11 24 0
2 -4 7 -8 13 -18 22 -26 58 -30 129 -3 50 -3 56 2 75 3 11 5 27 6 46 2 30 14
61 34 88 7 9 17 36 26 68 6 24 30 67 48 85 8 9 18 20 22 25 34 39 50 55 60 60
9 4 15 10 22 19 12 15 19 18 41 22 13 2 20 5 27 9 5 3 14 8 20 10 6 2 13 6 16
9 10 8 14 7 36 -15 11 -10 20 -20 20 -22 0 -3 36 -41 45 -48 6 -4 8 -7 13 -25
9 -27 13 -34 23 -40 12 -8 19 -15 24 -26 3 -5 8 -14 11 -18 7 -10 8 -13 10
-26 1 -6 4 -13 6 -16 2 -3 5 -10 6 -15 3 -17 15 -62 28 -104 8 -27 6 -143 -4
-189 -3 -17 -6 -35 -6 -41 0 -5 -2 -16 -4 -25 -2 -9 -4 -22 -4 -30 0 -16 -5
-36 -15 -55 -7 -14 -11 -30 -15 -57 -1 -8 -5 -21 -8 -29 -4 -9 -6 -17 -6 -24
0 -11 -5 -32 -9 -40 -2 -4 -4 -11 -5 -18 -1 -6 -6 -19 -11 -29 -19 -36 -10
-53 27 -53 30 0 48 24 48 61 0 4 3 10 7 17 12 18 15 25 15 42 0 12 1 20 6 33
4 11 6 22 6 28 0 6 2 15 4 21 2 6 6 19 8 29 2 10 5 20 6 23 1 3 4 15 6 27 3
14 6 25 9 31 5 8 6 12 7 39 1 16 4 37 5 45 7 32 4 218 -4 242 -2 6 -8 15 -14
22 -8 8 -11 14 -12 19 -4 27 -8 41 -12 49 -5 8 -5 10 -4 22 3 34 7 39 62 80
22 17 44 33 49 37 5 4 20 15 33 25 38 27 40 33 24 65 -17 34 -43 35 -77 5 -9
-9 -21 -18 -27 -21 -5 -3 -12 -9 -15 -13 -16 -22 -69 -71 -89 -81 -7 -4 -11
-1 -18 10 -3 6 -11 15 -17 22 -21 23 -31 36 -45 59 -15 24 -43 53 -67 67 -6 4
-16 12 -22 18 -17 16 -32 19 -53 11z"/>
</g>
</svg>
