<?xml version="1.0" standalone="no"?>
<!DOCTYPE svg PUBLIC "-//W3C//DTD SVG 20010904//EN"
 "http://www.w3.org/TR/2001/REC-SVG-20010904/DTD/svg10.dtd">
<svg version="1.0" xmlns="http://www.w3.org/2000/svg"
 width="116.000000pt" height="148.000000pt" viewBox="0 0 116.000000 148.000000"
 preserveAspectRatio="xMidYMid meet">
<metadata>
Created by potrace 1.16, written by Peter Selinger 2001-2019
</metadata>
<g transform="translate(0.000000,148.000000) scale(0.100000,-0.100000)"
fill="#000000" stroke="none">
<path d="M519 1375 c-19 -13 -45 -30 -59 -37 -14 -6 -44 -27 -67 -45 -23 -18
-45 -33 -50 -33 -20 0 -125 -123 -139 -162 -8 -23 -23 -52 -33 -63 -10 -11
-24 -38 -31 -60 -7 -22 -23 -59 -36 -82 -13 -23 -24 -57 -24 -75 0 -19 -5 -60
-11 -92 -12 -69 5 -231 27 -257 8 -8 23 -42 34 -74 11 -32 26 -66 34 -74 7 -9
18 -31 24 -49 14 -42 95 -140 145 -176 44 -33 65 -30 131 14 53 36 98 104 121
185 9 33 22 70 27 82 7 13 8 43 4 75 -4 29 -9 85 -12 123 -7 133 -50 205 -113
188 -32 -8 -36 -40 -9 -81 38 -59 47 -91 51 -189 3 -66 0 -98 -9 -111 -7 -11
-16 -39 -20 -63 -17 -103 -90 -163 -157 -128 -29 16 -48 41 -78 103 -112 227
-109 218 -119 314 -5 59 -5 103 1 118 5 14 9 42 9 61 0 22 12 58 30 90 17 29
30 58 30 65 0 35 63 139 118 193 92 93 105 103 137 111 17 4 45 16 64 26 33
19 34 19 60 -4 14 -13 28 -27 30 -32 2 -5 18 -23 36 -40 18 -18 36 -43 40 -56
4 -14 24 -44 44 -66 28 -32 41 -62 59 -130 13 -49 28 -97 33 -106 5 -10 9 -36
9 -59 0 -78 -32 -324 -47 -359 -8 -19 -23 -75 -34 -123 -16 -73 -35 -129 -56
-168 -7 -12 29 -39 52 -39 26 0 55 38 55 73 0 12 5 28 11 34 7 7 18 42 25 80
7 37 17 86 23 108 38 154 42 186 43 343 0 150 -1 165 -20 185 -18 20 -23 36
-38 122 -7 38 13 60 131 141 74 52 84 63 84 89 1 38 -15 55 -49 55 -18 0 -52
-24 -119 -85 -51 -47 -98 -85 -105 -85 -6 0 -18 11 -26 24 -54 86 -189 226
-218 226 -5 0 -24 -11 -43 -25z"/>
</g>
</svg>
