<?xml version="1.0" standalone="no"?>
<!DOCTYPE svg PUBLIC "-//W3C//DTD SVG 20010904//EN"
 "http://www.w3.org/TR/2001/REC-SVG-20010904/DTD/svg10.dtd">
<svg version="1.0" xmlns="http://www.w3.org/2000/svg"
 width="120.000000pt" height="148.000000pt" viewBox="0 0 120.000000 148.000000"
 preserveAspectRatio="xMidYMid meet">
<metadata>
Created by potrace 1.16, written by Peter Selinger 2001-2019
</metadata>
<g transform="translate(0.000000,148.000000) scale(0.100000,-0.100000)"
fill="#000000" stroke="none">
<path d="M535 1387 c-33 -18 -84 -49 -112 -69 -28 -21 -55 -38 -61 -38 -20 0
-157 -161 -177 -208 -11 -26 -32 -67 -47 -92 -51 -87 -74 -182 -77 -323 -2
-92 2 -139 12 -170 8 -23 21 -62 28 -87 7 -25 25 -68 41 -96 15 -28 28 -58 28
-66 0 -8 9 -23 20 -33 11 -10 20 -24 20 -31 0 -23 100 -104 129 -104 52 0 68
29 76 136 9 119 1 202 -25 261 -25 57 -156 189 -196 198 -59 13 -57 11 -52 83
3 37 12 81 21 97 8 17 27 57 42 90 68 151 165 266 280 331 36 19 67 40 71 45
10 18 77 9 108 -14 17 -12 42 -28 56 -35 40 -21 160 -141 184 -186 6 -11 25
-41 41 -65 41 -60 41 -60 64 -113 12 -26 21 -58 21 -71 0 -13 4 -27 9 -32 5
-6 11 -28 15 -51 7 -50 -9 -76 -61 -93 -21 -7 -63 -30 -93 -50 -46 -30 -61
-49 -92 -111 -38 -74 -38 -76 -38 -195 0 -131 13 -187 50 -217 44 -36 77 -21
145 63 27 33 105 193 105 216 0 10 7 41 15 68 9 28 21 111 26 185 11 136 9
164 -23 290 -11 44 -81 167 -139 245 -17 22 -39 54 -50 72 -11 18 -42 46 -67
63 -102 67 -115 76 -152 108 -46 39 -68 39 -145 -1z m-348 -797 c18 -10 49
-44 69 -75 20 -30 41 -55 45 -55 13 0 39 -99 46 -176 7 -81 -6 -117 -39 -112
-31 4 -156 257 -170 343 -10 61 -7 95 9 95 4 0 22 -9 40 -20z m850 -16 c10
-26 -39 -226 -62 -254 -7 -8 -27 -48 -46 -87 -38 -83 -58 -92 -89 -41 -15 25
-18 45 -14 102 2 39 8 80 13 91 5 11 16 39 26 62 19 45 47 75 110 117 46 30
53 32 62 10z"/>
</g>
</svg>
