<?xml version="1.0" standalone="no"?>
<!DOCTYPE svg PUBLIC "-//W3C//DTD SVG 20010904//EN"
 "http://www.w3.org/TR/2001/REC-SVG-20010904/DTD/svg10.dtd">
<svg version="1.0" xmlns="http://www.w3.org/2000/svg"
 width="81.000000pt" height="100.000000pt" viewBox="0 0 81.000000 100.000000"
 preserveAspectRatio="xMidYMid meet">
<metadata>
Created by potrace 1.16, written by Peter Selinger 2001-2019
</metadata>
<g transform="translate(0.000000,100.000000) scale(0.100000,-0.100000)"
fill="#000000" stroke="none">
<path d="M365 944 c-158 -83 -246 -187 -306 -363 -24 -68 -25 -206 -3 -280 41
-140 117 -251 172 -251 41 0 49 14 57 96 11 109 -7 176 -62 235 -25 27 -63 56
-84 66 -34 16 -39 22 -39 54 0 38 59 170 109 243 28 40 166 146 191 146 52 0
175 -111 237 -215 45 -76 80 -174 70 -198 -3 -8 -33 -30 -68 -48 -40 -22 -70
-47 -88 -73 -24 -37 -26 -47 -26 -157 0 -101 3 -120 19 -138 43 -47 94 -10
154 113 48 98 74 294 52 388 -29 121 -119 253 -231 338 -82 63 -104 69 -154
44z m-196 -594 c42 -52 56 -88 64 -157 6 -53 -13 -87 -37 -63 -20 21 -96 194
-103 235 -9 54 27 47 76 -15z m526 30 c16 -25 -80 -270 -105 -270 -18 0 -32
54 -26 102 9 67 30 111 71 147 38 33 50 37 60 21z"/>
</g>
</svg>
