<?xml version="1.0" standalone="no"?>
<!DOCTYPE svg PUBLIC "-//W3C//DTD SVG 20010904//EN"
 "http://www.w3.org/TR/2001/REC-SVG-20010904/DTD/svg10.dtd">
<svg version="1.0" xmlns="http://www.w3.org/2000/svg"
 width="482.000000pt" height="590.000000pt" viewBox="0 0 482.000000 590.000000"
 preserveAspectRatio="xMidYMid meet">
<metadata>
Created by potrace 1.16, written by Peter Selinger 2001-2019
</metadata>
<g transform="translate(0.000000,590.000000) scale(0.500000,-0.500000)"
fill="#000000" stroke="none">
<path d="M488 1138 c-2 -1 -7 -4 -10 -6 -3 -2 -9 -5 -13 -6 -4 -1 -21 -9 -38
-17 -27 -14 -47 -26 -105 -66 -12 -8 -28 -18 -36 -22 -13 -6 -17 -9 -37 -31
-12 -13 -29 -31 -37 -40 -7 -9 -14 -17 -14 -18 0 -1 -8 -10 -17 -20 -19 -20
-25 -30 -29 -45 -4 -16 -17 -44 -35 -73 -19 -31 -34 -64 -38 -81 -5 -23 -14
-50 -20 -62 -5 -10 -5 -13 -6 -44 0 -21 -2 -40 -4 -51 -2 -10 -3 -20 -2 -25 4
-24 6 -54 6 -85 0 -35 0 -35 8 -50 4 -8 7 -17 7 -20 0 -3 2 -9 4 -14 3 -5 5
-15 6 -23 1 -7 5 -22 10 -34 4 -11 9 -25 11 -31 2 -8 6 -15 12 -22 11 -13 18
-28 23 -49 6 -20 8 -24 21 -38 6 -8 12 -17 16 -26 6 -13 44 -56 59 -65 55 -33
104 -10 105 49 0 14 2 28 3 32 6 15 8 129 2 142 -1 3 -3 12 -4 19 -6 45 -21
79 -48 109 -6 7 -14 16 -17 21 -17 31 -100 90 -135 97 -8 1 -15 3 -17 5 -3 3
-3 66 2 80 1 6 3 15 4 20 1 7 4 14 11 24 6 10 11 20 13 28 2 7 8 23 14 36 6
13 11 26 13 30 1 4 7 15 13 24 6 9 14 22 18 29 3 7 9 14 12 17 9 8 21 28 27
42 10 24 50 68 73 80 7 3 16 10 23 18 8 8 17 14 25 19 8 4 20 11 27 16 7 5 18
11 24 12 8 3 14 6 23 15 15 15 19 16 49 14 27 -1 22 1 58 -26 7 -6 17 -12 23
-14 15 -5 43 -26 57 -42 8 -9 17 -16 22 -19 15 -7 23 -16 31 -31 5 -9 13 -20
24 -30 12 -13 18 -21 23 -32 4 -8 11 -19 15 -24 4 -5 10 -14 13 -21 7 -17 17
-30 28 -41 8 -7 11 -13 17 -27 4 -10 11 -28 16 -40 7 -17 10 -26 11 -38 1 -14
3 -19 9 -30 8 -14 10 -24 12 -58 2 -30 -4 -37 -50 -55 -19 -8 -36 -16 -43 -20
-6 -5 -15 -11 -21 -14 -37 -22 -43 -27 -56 -45 -4 -7 -12 -17 -16 -23 -8 -10
-20 -37 -31 -65 -6 -18 -10 -39 -10 -56 0 -8 -1 -22 -2 -30 -3 -17 1 -109 5
-135 18 -100 98 -119 145 -34 3 5 10 13 17 18 12 9 19 21 22 34 1 4 6 17 12
29 6 12 14 30 19 40 4 10 11 22 15 27 9 12 9 14 11 37 1 13 4 27 8 40 3 10 7
24 7 30 1 5 3 16 5 23 2 7 4 17 4 22 0 5 1 13 3 18 2 6 3 12 2 19 -1 6 0 15 1
21 9 40 9 156 0 190 -2 8 -4 19 -5 24 -1 11 -8 37 -14 55 -3 7 -5 16 -5 20 0
9 -3 16 -12 29 -5 6 -15 23 -23 37 -9 14 -17 28 -19 30 -2 2 -7 12 -12 21 -6
13 -11 20 -21 30 -9 9 -14 17 -18 25 -3 7 -7 15 -8 18 -2 4 -8 11 -15 15 -8 7
-13 13 -19 24 -9 17 -30 34 -59 50 -12 7 -19 12 -28 22 -10 11 -16 16 -28 21
-23 12 -40 23 -59 41 -27 25 -46 33 -63 26z m-341 -663 c31 -17 39 -26 64 -68
6 -10 16 -22 26 -32 13 -13 17 -18 19 -25 1 -5 4 -13 5 -18 7 -20 15 -55 15
-64 0 -5 2 -17 4 -27 5 -24 3 -65 -5 -82 -12 -27 -41 -23 -50 7 -1 3 -5 11
-10 19 -4 8 -13 24 -19 36 -7 11 -14 24 -16 27 -2 3 -6 11 -8 17 -2 6 -6 14
-9 18 -3 5 -6 13 -8 18 -2 6 -6 16 -10 22 -21 34 -27 54 -33 106 -6 50 4 63
35 46z m683 -11 c4 -8 5 -28 0 -47 -2 -10 -4 -23 -5 -29 -1 -6 -3 -17 -5 -24
-2 -7 -4 -18 -5 -23 0 -6 -2 -14 -4 -17 -2 -4 -4 -12 -5 -18 -1 -6 -4 -16 -7
-22 -3 -6 -5 -13 -5 -14 0 -2 -4 -8 -8 -12 -9 -9 -16 -24 -27 -52 -3 -8 -9
-18 -14 -24 -6 -7 -10 -14 -13 -25 -9 -31 -42 -32 -50 0 -1 4 -5 11 -7 14 -8
10 -9 22 -6 39 2 10 2 17 1 25 -4 25 0 59 9 73 6 8 9 16 11 24 7 34 35 78 61
94 7 4 19 12 28 18 31 22 47 28 51 20z"/>
</g>
</svg>
