<?xml version="1.0" standalone="no"?>
<!DOCTYPE svg PUBLIC "-//W3C//DTD SVG 20010904//EN"
 "http://www.w3.org/TR/2001/REC-SVG-20010904/DTD/svg10.dtd">
<svg version="1.0" xmlns="http://www.w3.org/2000/svg"
 width="66.000000pt" height="100.000000pt" viewBox="0 0 66.000000 100.000000"
 preserveAspectRatio="xMidYMid meet">
<metadata>
Created by potrace 1.16, written by Peter Selinger 2001-2019
</metadata>
<g transform="translate(0.000000,100.000000) scale(0.100000,-0.100000)"
fill="#000000" stroke="none">
<path d="M264 941 c-61 -35 -122 -102 -175 -191 -48 -81 -64 -173 -55 -315 7
-128 28 -199 71 -242 54 -54 80 -43 96 43 23 124 -8 254 -78 325 -31 33 -34
41 -28 70 9 42 42 109 54 109 5 0 38 -34 75 -77 l66 -76 2 -281 3 -281 28 -3
27 -3 0 286 0 286 66 85 c36 46 70 84 75 84 4 0 21 -25 35 -55 l28 -56 -42
-42 c-64 -65 -86 -125 -86 -232 0 -103 23 -171 69 -201 27 -18 28 -17 46 5 10
12 30 61 45 109 36 112 40 294 11 380 -31 87 -127 223 -183 259 -72 46 -91 48
-150 14z m127 -63 c50 -36 61 -48 54 -65 -7 -21 -117 -163 -126 -163 -16 0
-124 132 -124 153 0 23 106 106 136 107 9 0 36 -14 60 -32z m179 -369 c0 -62
-32 -226 -52 -262 -10 -19 -12 -19 -23 -4 -7 9 -15 55 -18 102 -5 72 -3 94 15
140 22 58 53 99 69 90 5 -4 9 -33 9 -66z m-442 -42 c30 -76 41 -207 19 -225
-22 -19 -31 3 -56 125 -22 106 -25 145 -14 157 14 14 29 -2 51 -57z"/>
</g>
</svg>
