<?xml version="1.0" standalone="no"?>
<!DOCTYPE svg PUBLIC "-//W3C//DTD SVG 20010904//EN"
 "http://www.w3.org/TR/2001/REC-SVG-20010904/DTD/svg10.dtd">
<svg version="1.0" xmlns="http://www.w3.org/2000/svg"
 width="168.000000pt" height="148.000000pt" viewBox="0 0 168.000000 148.000000"
 preserveAspectRatio="xMidYMid meet">
<metadata>
Created by potrace 1.16, written by Peter Selinger 2001-2019
</metadata>
<g transform="translate(0.000000,148.000000) scale(0.100000,-0.100000)"
fill="#000000" stroke="none">
<path d="M300 1382 c-137 -148 -181 -226 -239 -416 -30 -98 -30 -341 -1 -434
11 -35 17 -68 14 -73 -3 -5 3 -26 14 -47 30 -58 62 -132 62 -142 0 -31 122
-167 177 -198 13 -6 53 -12 89 -12 113 0 182 57 257 215 67 137 86 212 79 310
l-5 85 72 0 71 0 0 -42 c0 -40 12 -89 32 -134 5 -11 8 -27 6 -35 -2 -11 34
-106 76 -199 26 -57 118 -161 163 -184 52 -26 155 -22 207 9 43 25 126 114
126 134 0 6 4 19 9 29 67 127 94 220 96 337 2 55 3 107 4 115 3 28 -28 205
-47 275 -29 103 -78 212 -112 251 -16 19 -30 39 -30 43 0 5 -31 41 -70 80 -67
68 -71 71 -118 71 -46 0 -50 -2 -109 -67 -97 -108 -112 -129 -134 -180 -12
-26 -29 -66 -38 -88 -35 -78 -56 -161 -61 -240 l-5 -80 -65 0 -65 0 -8 50 c-8
49 -16 83 -38 168 -22 81 -73 202 -99 232 -14 17 -44 56 -65 88 -21 31 -43 57
-49 57 -6 0 -24 14 -40 30 -24 25 -38 30 -75 30 -40 0 -50 -5 -81 -38z m163
-114 c32 -35 67 -82 77 -106 11 -24 33 -63 49 -87 17 -25 37 -75 46 -112 9
-37 23 -86 32 -108 11 -28 16 -85 18 -190 3 -130 1 -155 -16 -192 -10 -23 -19
-47 -19 -54 0 -23 -88 -194 -115 -222 -32 -33 -96 -67 -128 -67 -62 0 -179
143 -231 285 -10 28 -23 54 -27 60 -5 5 -9 23 -9 40 0 17 -4 35 -9 41 -14 13
-29 188 -23 269 2 39 11 79 18 90 8 11 14 32 14 47 0 15 5 30 10 33 6 3 10 13
10 22 0 23 57 140 88 182 47 64 117 130 136 131 12 0 45 -27 79 -62z m844 5
c30 -32 67 -83 83 -113 15 -30 39 -71 53 -91 13 -19 32 -69 42 -110 10 -41 24
-89 32 -107 21 -51 21 -347 -1 -387 -9 -16 -16 -36 -16 -43 0 -20 -76 -173
-104 -211 -31 -41 -98 -81 -136 -81 -46 0 -134 84 -191 184 -15 25 -48 104
-61 146 -8 25 -20 61 -27 82 -28 86 -35 329 -11 363 4 6 17 44 30 85 12 41 33
97 47 124 30 60 100 156 113 156 5 0 17 14 27 30 27 46 56 40 120 -27z"/>
</g>
</svg>
