<?xml version="1.0" standalone="no"?>
<!DOCTYPE svg PUBLIC "-//W3C//DTD SVG 20010904//EN"
 "http://www.w3.org/TR/2001/REC-SVG-20010904/DTD/svg10.dtd">
<svg version="1.0" xmlns="http://www.w3.org/2000/svg"
 width="670.000000pt" height="590.000000pt" viewBox="0 0 670.000000 590.000000"
 preserveAspectRatio="xMidYMid meet">
<metadata>
Created by potrace 1.16, written by Peter Selinger 2001-2019
</metadata>
<g transform="translate(0.000000,590.000000) scale(0.500000,-0.500000)"
fill="#000000" stroke="none">
<path d="M270 1132 c-8 -5 -27 -23 -30 -29 -1 -1 -7 -7 -14 -12 -7 -5 -16 -15
-20 -21 -5 -6 -11 -14 -14 -17 -33 -37 -48 -55 -63 -77 -6 -10 -11 -18 -11
-20 0 -3 -10 -26 -19 -44 -4 -7 -7 -16 -8 -20 -2 -10 -7 -21 -14 -34 -5 -7 -8
-15 -9 -24 -1 -7 -3 -17 -6 -21 -2 -4 -5 -13 -6 -18 -1 -6 -6 -23 -11 -38
l-10 -28 0 -130 c0 -141 0 -141 11 -161 2 -5 5 -14 6 -20 1 -7 4 -16 5 -19 2
-4 4 -14 5 -29 1 -21 2 -24 7 -32 4 -5 8 -12 9 -16 1 -4 4 -10 6 -13 2 -3 6
-12 8 -21 3 -10 7 -22 11 -28 9 -14 16 -33 19 -47 2 -10 4 -13 12 -21 10 -10
12 -14 16 -30 2 -6 4 -9 10 -13 8 -5 39 -37 50 -52 4 -6 10 -12 13 -14 3 -2 9
-7 12 -10 4 -4 10 -7 14 -8 5 -1 12 -4 17 -7 20 -15 120 -14 138 0 4 3 8 6 9
6 1 0 6 3 10 6 5 3 11 7 15 9 4 2 9 6 12 8 3 3 10 8 15 12 7 4 12 10 16 17 6
11 12 19 30 40 6 7 9 12 10 18 2 11 4 15 10 22 3 3 6 9 7 14 1 5 9 23 17 39
14 30 17 36 25 63 2 7 5 18 8 24 16 47 21 66 19 84 -4 41 -5 99 -3 106 3 10 3
10 53 10 54 0 50 3 51 -34 1 -26 2 -30 6 -36 2 -4 4 -9 4 -12 0 -3 3 -11 6
-18 3 -7 6 -15 6 -19 0 -4 2 -12 5 -19 4 -10 5 -15 5 -30 0 -18 2 -26 9 -34 2
-2 4 -7 6 -11 1 -5 5 -12 8 -16 3 -4 5 -9 5 -12 0 -7 7 -26 12 -34 7 -10 15
-31 19 -48 2 -9 5 -14 12 -21 10 -10 12 -14 16 -28 2 -6 5 -11 8 -13 9 -6 40
-39 50 -52 5 -6 12 -14 16 -17 5 -3 10 -7 12 -10 2 -2 9 -6 15 -7 6 -2 13 -5
15 -7 9 -8 13 -8 62 -10 52 -1 66 1 75 9 2 2 8 6 12 8 18 10 29 17 38 25 6 4
11 8 12 8 3 0 14 12 18 21 2 4 10 15 17 23 17 20 21 25 22 36 1 6 4 11 9 16 4
5 7 11 8 17 1 5 9 23 18 41 10 21 18 40 20 50 2 9 7 23 10 31 3 8 6 16 6 18 0
2 2 8 5 15 8 19 12 38 10 54 -4 40 -3 116 1 124 5 10 5 26 0 38 -3 7 -4 13 -4
36 0 27 0 28 -6 39 -6 11 -6 13 -6 32 0 17 -1 23 -5 33 -5 13 -11 38 -11 46 0
2 -2 9 -4 14 -2 6 -5 18 -6 27 -2 11 -4 20 -9 30 -10 20 -27 61 -33 81 -7 21
-17 36 -30 49 -6 6 -12 12 -13 15 -1 3 -6 10 -11 15 -4 6 -9 14 -11 20 -2 8
-5 12 -14 20 -7 6 -15 16 -19 22 -9 17 -17 25 -29 30 -8 3 -12 7 -17 14 -3 5
-10 11 -16 14 -5 3 -13 9 -18 12 -36 28 -91 1 -153 -75 -7 -8 -16 -19 -20 -24
-16 -18 -36 -43 -39 -48 -1 -3 -5 -8 -8 -12 -4 -4 -8 -13 -10 -18 -6 -18 -14
-37 -18 -42 -2 -3 -5 -11 -7 -18 -4 -16 -8 -25 -15 -36 -5 -6 -7 -12 -8 -22
-1 -7 -4 -18 -7 -24 -3 -6 -5 -12 -5 -14 0 -3 -5 -19 -11 -38 -14 -44 -15 -50
-15 -99 0 -52 5 -47 -52 -47 -53 0 -52 0 -53 21 -1 9 -3 16 -6 21 -3 6 -4 11
-5 33 -1 20 -2 28 -4 31 -4 6 -9 24 -12 46 -1 6 -3 14 -5 19 -2 4 -4 15 -5 25
-2 11 -4 20 -7 25 -2 4 -8 16 -12 27 -4 10 -11 26 -15 36 -4 9 -9 21 -10 27
-4 13 -14 31 -26 42 -6 6 -12 13 -15 17 -2 4 -7 11 -11 16 -4 5 -9 14 -11 20
-2 9 -4 12 -12 18 -5 3 -12 12 -17 19 -16 24 -18 27 -31 33 -9 4 -14 9 -19 15
-3 5 -9 11 -12 13 -4 1 -9 5 -13 7 -18 14 -16 13 -47 13 -29 0 -29 0 -38 -6z
m55 -73 c3 -2 8 -7 12 -13 3 -5 9 -12 13 -15 39 -35 72 -74 72 -83 0 -5 24
-51 36 -68 4 -7 10 -17 13 -22 3 -5 9 -14 14 -20 8 -10 14 -26 19 -51 3 -16 8
-34 13 -48 3 -7 5 -16 5 -20 0 -8 4 -21 8 -27 6 -8 12 -35 12 -52 0 -8 1 -19
3 -25 4 -13 6 -69 3 -82 -2 -8 -2 -21 0 -58 3 -60 1 -75 -14 -95 -5 -6 -12
-30 -12 -38 0 -3 -2 -11 -5 -17 -3 -6 -7 -15 -8 -19 -2 -5 -5 -11 -7 -14 -5
-7 -35 -72 -37 -79 -1 -3 -9 -17 -20 -29 -10 -13 -21 -27 -24 -31 -3 -4 -10
-9 -17 -13 -6 -3 -17 -9 -23 -14 -42 -28 -67 -25 -105 9 -5 4 -12 10 -16 13
-10 7 -27 28 -33 40 -2 6 -7 13 -9 15 -2 2 -7 8 -9 13 -3 5 -10 14 -17 20 -11
10 -12 12 -14 23 -2 8 -5 17 -9 23 -4 6 -9 15 -11 20 -2 5 -6 13 -9 18 -3 6
-6 14 -6 18 -2 11 -12 37 -17 45 -3 3 -5 11 -6 19 -2 18 -7 39 -11 45 -3 4 -4
12 -5 21 -1 11 -3 19 -7 26 -7 13 -9 86 -6 175 1 38 1 38 12 60 11 23 17 40
17 51 0 3 3 12 6 20 3 7 7 18 8 24 1 6 10 27 20 47 10 20 20 41 22 46 2 5 9
16 15 24 6 8 13 18 16 23 7 13 33 43 40 46 8 3 15 10 18 17 16 31 41 44 60 32z
m675 1 c4 -2 10 -9 15 -15 5 -7 12 -15 17 -19 9 -7 49 -48 58 -60 3 -4 7 -12
9 -19 2 -6 8 -19 13 -27 5 -8 10 -18 11 -22 2 -3 6 -10 9 -14 3 -4 9 -13 14
-21 4 -8 12 -19 17 -26 9 -13 11 -20 22 -66 3 -12 7 -27 9 -33 2 -5 5 -16 5
-23 1 -7 4 -16 7 -23 8 -15 12 -34 12 -53 0 -8 1 -20 3 -27 3 -11 4 -38 3 -96
-1 -9 0 -38 0 -63 1 -51 1 -49 -15 -76 -3 -4 -6 -14 -7 -21 -4 -22 -15 -54
-24 -66 -5 -7 -33 -68 -36 -77 -1 -5 -8 -15 -16 -25 -8 -9 -18 -22 -22 -28 -6
-8 -11 -13 -19 -17 -5 -3 -16 -10 -24 -15 -46 -29 -75 -27 -108 8 -3 4 -9 8
-13 10 -10 5 -29 28 -36 43 -3 7 -7 14 -10 16 -2 2 -6 8 -8 12 -2 5 -9 13 -16
19 -6 6 -12 12 -13 14 0 2 -2 8 -3 14 -1 8 -5 16 -11 25 -5 7 -10 16 -11 20
-1 4 -4 10 -6 13 -2 3 -5 11 -6 16 -2 12 -11 35 -18 46 -2 4 -4 9 -4 12 0 11
-8 45 -12 51 -3 5 -5 12 -5 21 -1 10 -3 19 -7 27 -14 29 -10 205 5 231 9 17
19 45 19 57 0 3 3 12 6 18 3 7 6 16 7 20 2 11 12 35 21 51 4 7 12 23 17 35 6
13 14 27 18 31 3 5 11 15 15 23 15 23 33 44 43 49 7 4 12 9 18 17 23 35 38 44
57 33z"/>
</g>
</svg>
