<?xml version="1.0" standalone="no"?>
<!DOCTYPE svg PUBLIC "-//W3C//DTD SVG 20010904//EN"
 "http://www.w3.org/TR/2001/REC-SVG-20010904/DTD/svg10.dtd">
<svg version="1.0" xmlns="http://www.w3.org/2000/svg"
 width="100.000000pt" height="88.000000pt" viewBox="0 0 100.000000 88.000000"
 preserveAspectRatio="xMidYMid meet">
<metadata>
Created by potrace 1.16, written by Peter Selinger 2001-2019
</metadata>
<g transform="translate(0.000000,88.000000) scale(0.100000,-0.100000)"
fill="#000000" stroke="none">
<path d="M151 795 c-143 -151 -172 -402 -72 -619 71 -153 202 -192 285 -83 47
61 79 147 85 227 6 69 8 75 30 78 32 5 38 -3 60 -88 40 -154 100 -250 171
-271 101 -31 179 39 235 210 14 43 16 75 12 160 -8 177 -48 286 -140 384 -70
76 -93 76 -161 5 -69 -74 -136 -229 -136 -315 0 -19 -5 -23 -30 -23 -35 0 -38
6 -64 115 -23 98 -52 151 -116 218 -73 74 -90 75 -159 2z m117 -39 c46 -52 99
-153 116 -222 25 -95 21 -226 -8 -297 -44 -107 -101 -166 -146 -152 -31 10
-97 104 -126 181 -52 135 -44 263 23 397 24 47 88 127 103 127 4 0 22 -15 38
-34z m535 -38 c51 -79 66 -112 88 -195 30 -119 26 -202 -16 -297 -38 -88 -62
-118 -108 -137 -30 -13 -31 -12 -79 41 -61 69 -118 217 -118 310 0 92 56 235
120 304 50 54 61 52 113 -26z"/>
</g>
</svg>
