<?xml version="1.0" standalone="no"?>
<!DOCTYPE svg PUBLIC "-//W3C//DTD SVG 20010904//EN"
 "http://www.w3.org/TR/2001/REC-SVG-20010904/DTD/svg10.dtd">
<svg version="1.0" xmlns="http://www.w3.org/2000/svg"
 width="934.000000pt" height="590.000000pt" viewBox="0 0 934.000000 590.000000"
 preserveAspectRatio="xMidYMid meet">
<metadata>
Created by potrace 1.16, written by Peter Selinger 2001-2019
</metadata>
<g transform="translate(0.000000,590.000000) scale(0.500000,-0.500000)"
fill="#000000" stroke="none">
<path d="M1502 1144 c-29 -7 -31 14 18 -187 25 -103 29 -122 51 -215 8 -36 18
-76 21 -90 3 -14 14 -61 24 -104 10 -43 21 -90 24 -104 3 -14 8 -33 10 -43 2
-10 8 -36 13 -58 5 -22 12 -53 16 -70 4 -16 11 -46 15 -66 9 -39 18 -79 29
-128 10 -45 12 -46 42 -39 29 7 29 3 3 109 -20 84 -40 168 -71 296 -9 40 -20
83 -23 96 -3 13 -10 42 -15 63 -5 21 -16 69 -25 105 -20 82 -29 122 -42 178
-6 24 -13 55 -16 69 -3 14 -10 43 -15 66 -32 142 -26 131 -59 122z"/>
<path d="M552 1135 c-8 -4 -61 -58 -79 -79 -7 -8 -16 -19 -20 -24 -17 -20 -38
-47 -41 -52 -1 -3 -5 -8 -7 -11 -3 -4 -7 -11 -9 -17 -5 -16 -12 -32 -17 -40
-3 -4 -6 -13 -8 -20 -4 -14 -6 -19 -16 -36 -5 -8 -7 -15 -8 -23 -1 -7 -3 -16
-6 -21 -3 -5 -5 -13 -6 -17 -1 -4 -5 -18 -9 -30 -5 -12 -10 -26 -12 -31 -5
-16 -6 -254 0 -270 2 -7 4 -13 4 -15 0 -2 2 -7 5 -13 2 -5 5 -14 6 -20 1 -6 3
-14 5 -18 3 -6 4 -12 4 -23 0 -20 2 -29 9 -39 3 -4 6 -10 7 -14 1 -4 5 -10 7
-13 2 -3 6 -14 9 -23 2 -9 7 -20 10 -25 7 -10 15 -31 19 -48 2 -9 4 -13 12
-21 10 -10 12 -14 16 -28 2 -7 5 -11 9 -13 7 -6 45 -45 52 -54 3 -5 9 -11 13
-13 3 -3 9 -8 13 -11 4 -5 9 -7 14 -8 5 -1 12 -4 16 -8 20 -14 123 -13 139 1
4 3 8 6 10 6 1 0 7 3 13 8 6 4 14 9 17 10 3 2 10 7 14 10 5 4 11 9 14 11 3 2
7 8 10 13 3 6 12 18 19 27 8 9 16 17 17 19 2 2 4 8 5 14 1 7 4 13 9 18 4 5 7
11 8 15 1 5 5 15 9 24 4 9 12 25 18 37 5 12 11 26 12 33 1 6 5 17 8 25 3 7 6
16 7 20 1 4 3 12 6 19 11 27 13 45 8 68 -4 19 -4 91 0 96 19 27 104 3 104 -29
0 -23 1 -28 4 -35 3 -4 5 -11 6 -15 1 -4 4 -11 6 -16 3 -6 5 -13 5 -16 0 -4 2
-12 4 -18 3 -7 5 -18 6 -34 1 -20 2 -23 7 -31 4 -4 8 -12 9 -15 1 -4 4 -10 7
-14 3 -4 5 -8 5 -10 0 -7 9 -31 13 -37 3 -4 8 -14 11 -22 7 -18 7 -19 9 -29 1
-6 4 -11 12 -19 9 -9 11 -13 15 -25 4 -12 5 -14 11 -17 7 -4 44 -43 52 -55 3
-4 6 -8 7 -8 1 0 6 -4 13 -10 7 -6 14 -10 19 -11 4 -1 11 -4 16 -7 18 -13 121
-14 136 -2 3 2 9 6 13 8 5 2 9 5 10 6 1 1 6 4 11 7 5 3 14 8 19 13 5 4 10 8
11 8 3 0 14 13 17 20 2 4 8 12 13 18 5 6 13 15 17 20 7 8 9 12 10 20 1 8 3 12
9 19 5 5 8 11 9 17 0 4 4 15 9 23 21 42 26 55 29 67 2 8 6 21 9 29 3 8 6 16 6
18 0 2 2 8 5 15 8 19 11 38 10 55 -4 50 -3 117 1 125 5 10 5 26 1 35 -3 5 -4
13 -5 37 -1 29 -2 32 -6 40 -5 8 -6 12 -7 34 -1 16 -2 26 -4 29 -3 4 -9 27
-12 45 -1 4 -3 13 -6 21 -2 8 -5 20 -6 28 -1 8 -3 16 -5 19 -2 3 -5 10 -7 15
-3 6 -9 21 -15 34 -6 13 -13 31 -15 39 -6 19 -19 40 -29 48 -4 4 -10 11 -12
15 -3 4 -9 12 -13 17 -4 4 -8 11 -8 14 -1 3 -2 7 -2 9 -1 2 -8 9 -15 17 -7 7
-15 17 -18 22 -6 12 -16 22 -28 28 -7 3 -13 8 -17 14 -4 6 -12 12 -17 15 -5 3
-11 8 -14 10 -11 10 -60 13 -77 5 -9 -4 -60 -54 -83 -81 -36 -42 -54 -64 -57
-70 -2 -3 -6 -9 -10 -14 -4 -5 -7 -11 -7 -12 0 -4 -10 -28 -19 -45 -4 -7 -7
-17 -8 -21 -1 -7 -6 -17 -18 -39 -3 -5 -5 -12 -5 -16 0 -4 -3 -15 -6 -23 -3
-8 -6 -16 -6 -18 0 -2 -5 -18 -11 -36 -14 -45 -15 -53 -15 -99 1 -50 6 -46
-51 -46 -55 0 -55 0 -55 22 0 6 -2 13 -6 21 -5 11 -6 14 -6 35 0 18 -1 24 -4
30 -2 4 -5 15 -7 25 -2 10 -6 27 -9 38 -3 11 -6 24 -6 30 0 6 -1 12 -4 16 -2
3 -6 11 -9 18 -20 47 -29 70 -30 76 -2 10 -15 31 -26 42 -15 15 -37 45 -37 51
0 7 -6 15 -14 21 -5 3 -12 11 -17 20 -13 19 -20 27 -32 32 -7 3 -12 7 -17 13
-3 5 -10 11 -15 14 -4 3 -12 8 -17 12 -11 9 -62 12 -76 5z m49 -74 c3 -1 9 -6
12 -11 3 -5 10 -13 16 -18 53 -51 69 -69 73 -86 1 -5 4 -12 7 -16 2 -4 8 -14
12 -22 4 -8 11 -20 16 -27 5 -7 11 -16 14 -22 3 -5 10 -15 15 -22 9 -12 11
-18 22 -65 3 -10 7 -24 9 -31 3 -7 6 -19 7 -27 1 -8 4 -17 6 -21 7 -12 12 -31
12 -48 0 -9 1 -21 3 -26 6 -19 8 -63 5 -84 -3 -15 -3 -24 -2 -56 4 -62 1 -79
-13 -97 -5 -7 -9 -22 -12 -40 -1 -5 -4 -13 -6 -18 -2 -5 -6 -13 -7 -17 -1 -4
-4 -10 -6 -13 -8 -12 -37 -72 -39 -82 -1 -3 -8 -15 -18 -26 -9 -11 -19 -24
-23 -29 -5 -7 -11 -12 -22 -17 -8 -4 -18 -11 -23 -14 -28 -20 -56 -25 -73 -13
-4 2 -11 7 -15 10 -5 3 -12 8 -16 12 -3 4 -9 8 -13 10 -9 5 -30 29 -36 42 -3
7 -8 14 -10 16 -2 2 -6 8 -9 13 -3 5 -11 15 -18 21 -9 9 -13 14 -13 17 0 10
-6 25 -13 35 -4 5 -9 13 -10 17 -2 5 -5 12 -7 16 -2 4 -5 11 -6 17 -2 12 -13
38 -18 44 -2 3 -4 9 -4 12 0 11 -8 43 -13 54 -4 7 -5 14 -5 22 0 8 -1 14 -6
23 -8 16 -10 81 -7 175 2 42 2 42 11 59 10 17 17 38 19 56 0 6 3 14 6 20 2 5
5 13 6 17 2 11 12 36 19 48 4 5 11 21 18 35 6 13 15 30 20 36 5 6 12 16 16 22
12 20 35 45 44 49 5 2 10 6 14 11 26 39 40 48 61 39z m693 -9 c5 -6 13 -15 18
-20 60 -58 70 -69 74 -84 1 -5 6 -15 10 -22 4 -7 10 -18 13 -24 3 -6 8 -14 11
-18 3 -4 10 -14 15 -23 5 -9 13 -20 16 -24 7 -8 15 -30 18 -48 2 -12 8 -34 14
-51 3 -9 5 -19 5 -24 0 -4 2 -12 5 -17 9 -17 13 -35 13 -54 0 -12 1 -22 3 -27
3 -9 4 -50 3 -101 -1 -9 0 -36 0 -60 1 -49 0 -57 -12 -72 -6 -8 -9 -16 -13
-38 -3 -14 -8 -28 -18 -48 -20 -37 -37 -75 -39 -82 -2 -6 -7 -14 -19 -28 -9
-11 -19 -24 -22 -29 -5 -7 -11 -11 -24 -19 -10 -5 -21 -12 -24 -14 -35 -26
-72 -22 -104 11 -3 4 -9 8 -13 10 -9 5 -30 30 -37 45 -3 6 -6 12 -8 12 -1 1
-5 6 -8 12 -4 7 -10 15 -18 22 -11 10 -13 12 -14 21 -2 11 -6 22 -16 36 -4 6
-7 12 -7 14 0 1 -2 7 -5 12 -3 5 -7 14 -8 20 -3 14 -11 33 -17 43 -3 4 -5 12
-6 21 -3 20 -6 32 -10 41 -3 5 -5 15 -6 24 -1 13 -3 19 -7 26 -7 12 -11 99 -7
145 1 14 2 35 2 47 0 21 0 21 10 39 10 17 17 38 19 55 0 5 4 15 7 23 3 7 6 17
7 21 1 4 11 27 22 50 12 24 21 44 21 45 0 1 5 8 10 15 6 8 14 19 18 26 14 22
33 44 44 49 6 3 11 8 16 15 28 43 48 51 68 27z"/>
<path d="M341 1134 c-7 -3 -10 -9 -16 -35 -3 -13 -9 -40 -13 -60 -5 -20 -11
-48 -14 -62 -3 -14 -10 -45 -16 -69 -6 -24 -13 -55 -16 -69 -3 -14 -10 -43
-15 -64 -5 -21 -12 -51 -16 -67 -4 -16 -11 -46 -16 -67 -5 -21 -13 -53 -17
-71 -4 -18 -14 -57 -21 -87 -7 -30 -17 -73 -23 -97 -6 -24 -13 -54 -16 -67 -3
-13 -9 -39 -14 -58 -4 -19 -17 -72 -28 -118 -27 -113 -27 -107 -1 -114 32 -8
33 -7 46 51 6 26 14 61 18 77 4 17 11 46 15 66 5 20 11 49 15 65 4 16 11 49
17 74 24 106 64 279 78 339 4 18 11 46 15 64 8 33 22 94 34 146 4 17 17 68 28
114 22 90 23 92 18 99 -5 6 -34 14 -42 10z"/>
</g>
</svg>
