<?xml version="1.0" standalone="no"?>
<!DOCTYPE svg PUBLIC "-//W3C//DTD SVG 20010904//EN"
 "http://www.w3.org/TR/2001/REC-SVG-20010904/DTD/svg10.dtd">
<svg version="1.0" xmlns="http://www.w3.org/2000/svg"
 width="234.000000pt" height="148.000000pt" viewBox="0 0 234.000000 148.000000"
 preserveAspectRatio="xMidYMid meet">
<metadata>
Created by potrace 1.16, written by Peter Selinger 2001-2019
</metadata>
<g transform="translate(0.000000,148.000000) scale(0.100000,-0.100000)"
fill="#000000" stroke="none">
<path d="M1866 1427 c-22 -16 -25 3 38 -242 41 -156 181 -762 238 -1030 23
-105 29 -116 66 -106 32 9 32 6 -2 146 -15 61 -31 128 -36 150 -6 22 -30 126
-55 230 -25 105 -52 217 -60 250 -8 33 -27 116 -43 185 -17 69 -40 170 -53
225 -49 218 -51 223 -93 192z"/>
<path d="M417 1413 c-5 -10 -19 -66 -58 -238 -17 -77 -47 -205 -66 -285 -19
-80 -45 -192 -59 -250 -33 -137 -59 -250 -84 -357 -22 -93 -37 -149 -51 -197
-11 -35 3 -56 37 -56 24 0 28 8 53 120 19 86 40 176 60 260 11 47 45 198 75
335 30 138 76 331 102 430 57 219 59 239 22 243 -14 2 -28 0 -31 -5z"/>
<path d="M630 1363 c-29 -32 -69 -80 -90 -108 -31 -43 -46 -73 -91 -180 -5
-11 -20 -57 -34 -102 -25 -77 -26 -90 -22 -250 4 -167 18 -256 50 -326 8 -18
24 -52 34 -77 11 -25 23 -52 27 -60 25 -58 122 -168 165 -186 56 -24 155 -18
205 11 41 24 126 114 126 133 0 4 13 35 29 68 15 32 40 93 54 134 22 66 25 86
20 163 l-6 87 72 0 71 0 0 -38 c0 -21 9 -63 20 -95 11 -31 20 -66 20 -78 0
-12 16 -55 35 -96 19 -41 35 -79 35 -86 0 -31 127 -179 174 -202 17 -9 58 -15
99 -15 61 0 75 4 117 31 76 49 135 147 195 321 68 195 -2 642 -127 812 -18 24
-44 61 -58 80 -14 20 -48 54 -76 76 -40 32 -59 40 -91 40 -38 0 -46 -5 -113
-77 -93 -100 -112 -126 -139 -193 -12 -30 -26 -64 -31 -75 -32 -72 -55 -161
-59 -230 l-6 -80 -65 0 -65 0 -11 65 c-26 145 -37 188 -65 248 -16 35 -29 68
-29 75 0 7 -18 35 -40 62 -22 28 -40 53 -40 57 0 6 -35 49 -57 70 -74 71 -86
78 -133 78 -44 0 -50 -3 -100 -57z m170 -84 c33 -33 72 -84 87 -112 14 -29 38
-70 54 -93 15 -22 37 -78 49 -124 12 -46 26 -93 32 -104 17 -32 19 -329 2
-361 -8 -15 -14 -35 -14 -44 0 -21 -94 -210 -117 -237 -30 -34 -100 -74 -130
-74 -63 0 -162 108 -221 240 -62 141 -81 222 -88 379 -4 96 -2 127 10 153 9
18 24 62 35 98 34 110 92 209 160 274 23 21 41 42 41 47 0 4 8 10 18 12 9 3
18 5 19 6 1 0 30 -26 63 -60z m863 -7 c31 -31 69 -81 84 -109 16 -29 41 -73
56 -98 16 -26 41 -95 58 -163 26 -102 29 -135 29 -256 0 -121 -3 -147 -24
-205 -59 -162 -111 -245 -181 -286 -56 -32 -83 -32 -132 4 -42 31 -133 142
-133 164 0 7 -5 18 -10 23 -15 15 -48 105 -76 209 -22 79 -25 105 -21 215 3
108 8 137 35 212 16 48 45 114 62 147 42 79 149 201 175 201 12 0 45 -25 78
-58z"/>
</g>
</svg>
