<?xml version="1.0" standalone="no"?>
<!DOCTYPE svg PUBLIC "-//W3C//DTD SVG 20010904//EN"
 "http://www.w3.org/TR/2001/REC-SVG-20010904/DTD/svg10.dtd">
<svg version="1.0" xmlns="http://www.w3.org/2000/svg"
 width="100.000000pt" height="63.000000pt" viewBox="0 0 100.000000 63.000000"
 preserveAspectRatio="xMidYMid meet">
<metadata>
Created by potrace 1.16, written by Peter Selinger 2001-2019
</metadata>
<g transform="translate(0.000000,63.000000) scale(0.100000,-0.100000)"
fill="#000000" stroke="none">
<path d="M173 598 c-6 -7 -14 -31 -17 -53 -4 -22 -32 -140 -62 -262 -58 -238
-63 -273 -39 -273 20 0 27 21 59 175 29 137 46 178 46 110 0 -51 21 -128 48
-181 64 -125 177 -125 236 0 14 30 26 66 26 79 0 92 40 121 60 45 21 -80 31
-105 60 -152 69 -108 183 -81 230 56 11 32 20 80 20 108 0 27 5 50 10 50 6 0
10 -3 10 -8 0 -4 12 -63 26 -132 26 -128 43 -165 66 -142 9 9 -2 69 -50 269
-34 142 -64 273 -68 291 -4 23 -11 32 -25 32 -22 0 -24 -17 -8 -73 17 -63 5
-64 -37 -4 -44 63 -80 85 -113 68 -53 -29 -109 -133 -126 -234 -5 -31 -10 -38
-27 -35 -16 2 -24 17 -39 76 -10 41 -28 89 -39 107 -25 41 -85 95 -105 95 -21
0 -78 -54 -100 -94 -28 -51 -35 -45 -21 17 16 69 6 99 -21 65z m187 -89 c47
-66 70 -139 70 -228 0 -67 -4 -86 -31 -139 -38 -77 -61 -92 -98 -65 -52 39
-101 161 -101 253 1 79 71 220 111 220 11 0 32 -17 49 -41z m377 -16 c46 -73
63 -129 63 -215 0 -69 -27 -144 -68 -190 -24 -29 -67 -23 -92 12 -90 126 -92
302 -5 416 37 49 59 44 102 -23z"/>
</g>
</svg>
