<?xml version="1.0" standalone="no"?>
<!DOCTYPE svg PUBLIC "-//W3C//DTD SVG 20010904//EN"
 "http://www.w3.org/TR/2001/REC-SVG-20010904/DTD/svg10.dtd">
<svg version="1.0" xmlns="http://www.w3.org/2000/svg"
 width="96.000000pt" height="100.000000pt" viewBox="0 0 96.000000 100.000000"
 preserveAspectRatio="xMidYMid meet">
<metadata>
Created by potrace 1.16, written by Peter Selinger 2001-2019
</metadata>
<g transform="translate(0.000000,100.000000) scale(0.100000,-0.100000)"
fill="#000000" stroke="none">
<path d="M147 929 c-53 -46 -102 -137 -117 -216 -24 -129 38 -312 126 -375 49
-35 116 -40 164 -12 54 32 102 124 115 222 4 28 11 52 17 52 6 0 7 -90 2 -259
-4 -142 -4 -275 0 -295 7 -35 27 -48 41 -25 4 6 6 137 6 292 -1 172 2 278 7
272 5 -6 19 -41 31 -78 36 -115 102 -193 167 -197 66 -5 85 1 124 36 146 132
127 433 -37 585 -34 31 -50 39 -81 39 -34 0 -45 -7 -96 -59 -61 -65 -94 -130
-103 -203 -6 -46 -7 -48 -39 -48 -32 0 -33 2 -44 58 -27 130 -127 252 -207
252 -21 0 -44 -12 -76 -41z m133 -50 c68 -70 120 -203 120 -306 0 -42 -49
-138 -92 -182 -22 -22 -40 -31 -63 -31 -89 0 -196 225 -164 345 24 87 110 215
145 215 8 0 32 -19 54 -41z m483 2 c114 -127 146 -288 82 -415 -77 -152 -168
-137 -252 41 -32 67 -35 79 -31 145 3 54 11 87 32 128 28 57 101 140 122 140
6 0 27 -17 47 -39z"/>
</g>
</svg>
