<?xml version="1.0" standalone="no"?>
<!DOCTYPE svg PUBLIC "-//W3C//DTD SVG 20010904//EN"
 "http://www.w3.org/TR/2001/REC-SVG-20010904/DTD/svg10.dtd">
<svg version="1.0" xmlns="http://www.w3.org/2000/svg"
 width="564.000000pt" height="590.000000pt" viewBox="0 0 564.000000 590.000000"
 preserveAspectRatio="xMidYMid meet">
<metadata>
Created by potrace 1.16, written by Peter Selinger 2001-2019
</metadata>
<g transform="translate(0.000000,590.000000) scale(0.500000,-0.500000)"
fill="#000000" stroke="none">
<path d="M245 1150 c-10 -2 -18 -7 -30 -19 -7 -5 -14 -12 -17 -14 -8 -5 -69
-67 -79 -79 -9 -11 -31 -51 -36 -67 -2 -4 -6 -12 -9 -17 -3 -5 -8 -15 -10 -22
-4 -15 -13 -39 -21 -58 -12 -28 -13 -185 -2 -213 3 -8 7 -18 8 -23 2 -5 5 -12
6 -16 2 -4 4 -13 4 -21 1 -13 3 -16 12 -32 6 -10 13 -24 15 -30 2 -6 6 -14 8
-17 6 -8 16 -30 16 -35 0 -2 4 -7 9 -13 5 -5 11 -13 13 -19 3 -6 8 -12 13 -15
5 -3 18 -15 30 -26 26 -26 30 -29 43 -34 6 -2 14 -5 18 -7 10 -5 97 -6 107 -1
43 23 67 39 71 47 1 3 8 11 16 20 9 9 15 18 17 23 2 5 5 11 7 13 2 2 5 7 6 11
2 4 9 18 16 32 8 14 15 29 16 33 1 4 8 21 14 36 l11 28 -1 49 c0 54 0 54 12
54 13 0 13 27 12 -349 -1 -395 -4 -353 26 -353 31 0 30 -13 23 380 -4 203 -4
313 -1 318 7 13 16 2 17 -19 1 -16 3 -23 14 -46 3 -6 5 -12 5 -14 0 -1 2 -7 4
-13 2 -6 4 -15 4 -21 0 -11 5 -24 19 -43 1 -3 4 -10 6 -15 2 -6 6 -14 9 -20 7
-10 16 -31 16 -36 0 -2 4 -7 9 -13 5 -5 11 -13 13 -18 2 -6 6 -11 10 -14 4 -3
18 -16 32 -29 24 -23 28 -26 56 -38 13 -6 13 -6 60 -6 l47 0 22 12 c24 13 51
30 51 33 0 1 8 10 17 21 10 11 18 22 20 27 2 5 5 11 8 14 2 3 6 8 7 13 1 4 8
16 14 28 7 11 15 28 18 37 3 10 10 26 14 37 11 27 13 40 10 53 -3 15 -3 70 1
79 2 4 3 11 3 16 0 5 -1 12 -3 16 -2 4 -3 13 -3 24 0 15 -1 20 -5 28 -3 7 -5
13 -5 22 0 7 -2 18 -6 29 -3 10 -6 20 -6 21 0 2 -2 8 -4 15 -2 6 -5 16 -6 22
-1 7 -8 22 -18 42 -9 17 -18 36 -20 43 -4 9 -8 15 -25 32 -13 14 -23 25 -26
32 -3 7 -7 12 -13 16 -4 3 -11 10 -16 16 -8 11 -16 17 -24 20 -2 1 -8 5 -13 9
-37 34 -81 36 -119 4 -71 -61 -111 -110 -130 -161 -1 -4 -5 -11 -9 -17 -4 -6
-7 -14 -8 -18 -1 -4 -3 -11 -5 -16 -21 -51 -26 -72 -26 -108 0 -37 3 -34 -46
-34 -40 1 -42 2 -42 15 0 3 -2 10 -4 14 -3 5 -5 13 -5 24 -1 9 -3 19 -4 23 -2
4 -5 16 -8 27 -3 11 -7 24 -8 30 -2 5 -3 11 -3 13 0 2 -8 19 -18 39 -10 20
-18 38 -18 40 0 4 -11 19 -30 37 -9 9 -18 21 -20 25 -2 5 -8 12 -13 16 -5 4
-13 13 -18 19 -6 8 -13 14 -20 17 -5 3 -14 9 -18 13 -24 20 -57 29 -84 22z
m37 -59 c3 -1 8 -6 11 -10 3 -4 9 -10 15 -13 19 -14 48 -42 53 -54 10 -20 32
-52 55 -80 5 -6 9 -14 12 -23 2 -8 8 -25 12 -38 4 -14 8 -26 8 -27 0 -2 2 -8
5 -13 6 -11 11 -29 11 -39 0 -4 1 -13 3 -19 4 -16 6 -42 3 -56 -1 -8 -1 -21 0
-44 2 -38 1 -48 -9 -63 -4 -5 -9 -16 -11 -23 -4 -17 -11 -31 -30 -62 -8 -13
-16 -28 -19 -33 -20 -45 -102 -90 -133 -74 -31 15 -57 37 -69 56 -4 6 -14 17
-22 25 -11 11 -16 18 -19 26 -2 6 -6 14 -9 17 -6 7 -18 30 -20 37 -1 3 -5 13
-9 21 -4 9 -9 21 -10 27 -1 7 -5 17 -7 24 -3 7 -6 17 -7 23 -1 6 -4 13 -5 16
-11 17 -8 143 4 163 5 8 11 22 14 31 2 9 6 20 8 24 1 4 5 13 8 21 5 13 9 21
31 56 18 30 48 63 62 70 6 3 12 9 17 15 15 21 31 27 47 19z m570 0 c3 -1 8 -6
11 -10 3 -4 9 -10 15 -13 5 -4 13 -10 18 -15 5 -5 14 -13 19 -18 7 -6 13 -14
16 -21 10 -19 36 -58 58 -85 3 -3 7 -12 9 -20 3 -7 7 -21 9 -29 3 -8 7 -20 8
-27 2 -7 6 -18 9 -25 5 -10 7 -17 8 -30 1 -9 3 -20 4 -24 3 -11 5 -44 2 -55
-1 -8 -1 -20 0 -43 3 -39 1 -49 -9 -64 -4 -6 -9 -16 -11 -25 -3 -14 -11 -31
-18 -41 -6 -9 -26 -45 -30 -54 -17 -39 -97 -85 -129 -73 -18 7 -56 33 -64 46
-4 4 -9 11 -12 15 -3 4 -8 10 -11 14 -3 4 -9 10 -14 13 -6 4 -9 9 -11 16 -2 6
-6 14 -10 19 -9 13 -18 29 -22 41 -2 6 -6 15 -9 21 -4 6 -8 17 -9 25 -2 8 -5
19 -8 24 -2 6 -5 15 -6 20 -1 5 -3 13 -5 18 -5 8 -9 72 -7 85 1 3 2 19 3 36 1
31 1 31 9 44 5 7 10 18 12 25 2 7 5 16 6 20 10 27 15 38 19 45 3 5 11 19 18
31 7 12 15 25 19 29 3 4 9 11 13 16 11 15 27 30 36 35 6 3 13 9 18 16 15 20
31 26 46 18z"/>
</g>
</svg>
