<?xml version="1.0" standalone="no"?>
<!DOCTYPE svg PUBLIC "-//W3C//DTD SVG 20010904//EN"
 "http://www.w3.org/TR/2001/REC-SVG-20010904/DTD/svg10.dtd">
<svg version="1.0" xmlns="http://www.w3.org/2000/svg"
 width="576.000000pt" height="590.000000pt" viewBox="0 0 576.000000 590.000000"
 preserveAspectRatio="xMidYMid meet">
<metadata>
Created by potrace 1.16, written by Peter Selinger 2001-2019
</metadata>
<g transform="translate(0.000000,590.000000) scale(0.500000,-0.500000)"
fill="#000000" stroke="none">
<path d="M551 1145 c-418 -1 -418 -1 -422 -5 -4 -4 -4 -11 -4 -205 0 -226 2
-199 -20 -214 -5 -4 -11 -11 -14 -15 -6 -9 -14 -19 -24 -31 -6 -8 -14 -32 -18
-59 -1 -11 -4 -21 -5 -24 -2 -5 -11 -57 -13 -77 -1 -5 -2 -17 -4 -26 -5 -30
-6 -68 -1 -88 2 -10 6 -29 8 -43 2 -13 5 -31 7 -40 2 -13 6 -37 10 -68 1 -4 4
-13 8 -19 4 -7 12 -22 18 -34 27 -55 75 -92 97 -76 4 3 13 9 20 14 7 5 16 12
19 16 3 4 10 12 15 18 5 5 12 17 16 27 5 9 12 21 16 26 12 14 14 20 14 36 0 8
1 20 3 26 5 20 11 80 13 128 1 26 2 49 3 51 1 2 -1 15 -3 28 -2 13 -5 33 -7
43 -2 10 -4 22 -5 26 -1 4 -3 16 -5 27 -6 38 -28 78 -66 117 l-24 24 2 24 c1
12 2 93 2 178 0 147 0 156 4 159 4 5 338 7 344 2 3 -2 3 -36 3 -518 0 -540 0
-529 9 -537 8 -8 34 -8 42 -1 6 5 8 218 4 514 -2 103 -2 101 13 101 3 0 14 2
25 5 11 3 25 6 32 7 7 1 15 4 19 7 4 3 12 6 16 6 5 1 14 4 20 7 6 3 18 8 27
11 16 5 37 12 82 27 13 4 27 10 31 12 14 7 50 18 59 18 18 0 20 -5 12 -22 -3
-6 -5 -14 -5 -19 0 -5 -3 -13 -8 -24 -15 -31 -26 -62 -38 -106 -4 -13 -9 -30
-12 -37 -14 -32 -18 -74 -11 -103 2 -6 3 -19 3 -30 0 -27 3 -45 12 -72 4 -13
9 -29 10 -35 6 -28 13 -52 20 -67 5 -9 10 -20 11 -26 4 -12 21 -29 38 -38 8
-3 14 -8 18 -13 12 -16 39 -23 53 -14 42 28 74 93 85 170 1 5 3 13 6 17 12 19
11 18 11 45 0 14 0 33 -1 42 0 10 1 23 3 33 5 27 -6 86 -24 131 -6 13 -11 30
-12 36 -1 6 -4 14 -6 18 -5 8 -16 37 -16 42 0 13 -17 39 -34 51 -17 13 -17 8
-16 123 3 306 4 293 -28 293 -10 0 -207 0 -437 0z m409 -56 c3 -3 3 -19 3
-130 0 -131 0 -135 -8 -137 -2 0 -18 -5 -36 -11 -18 -6 -41 -13 -53 -17 -12
-4 -28 -9 -36 -11 -8 -3 -16 -5 -18 -5 -6 0 -42 -12 -74 -26 -16 -6 -42 -15
-57 -20 -15 -5 -39 -13 -52 -18 -26 -11 -29 -11 -34 -7 -3 2 -5 101 -6 354 0
24 0 26 5 29 6 5 361 4 366 -1z m37 -394 c1 -2 4 -8 5 -13 1 -5 6 -14 10 -21
10 -15 13 -23 15 -37 2 -12 4 -18 14 -33 9 -13 15 -31 17 -58 1 -12 3 -24 5
-26 1 -2 2 -15 3 -28 1 -13 3 -39 4 -58 2 -33 2 -34 -2 -45 -3 -7 -4 -15 -4
-24 0 -7 -1 -18 -3 -23 -2 -6 -4 -16 -5 -24 -1 -10 -3 -16 -8 -23 -3 -5 -11
-19 -17 -31 -30 -59 -50 -61 -69 -6 -8 22 -12 31 -22 44 -8 10 -11 18 -13 33
-1 5 -3 18 -5 28 -11 57 -12 157 -2 187 4 10 9 28 11 39 3 12 7 27 11 34 3 7
7 17 8 23 2 9 20 49 27 61 4 5 15 6 20 1z m-825 -27 c7 -7 13 -16 15 -19 5
-10 13 -34 15 -43 1 -5 6 -22 12 -38 11 -31 13 -42 16 -102 1 -23 3 -34 6 -43
5 -15 5 -21 0 -36 -3 -8 -5 -23 -7 -44 -2 -27 -4 -33 -8 -41 -12 -22 -17 -34
-20 -49 -13 -67 -34 -79 -67 -36 -7 9 -15 20 -19 24 -10 13 -22 65 -27 120 -1
9 -3 22 -5 28 -9 37 -11 116 -2 133 5 10 7 18 14 67 1 10 4 21 6 24 1 3 4 12
6 19 11 41 43 59 65 36z"/>
</g>
</svg>
