<?xml version="1.0" standalone="no"?>
<!DOCTYPE svg PUBLIC "-//W3C//DTD SVG 20010904//EN"
 "http://www.w3.org/TR/2001/REC-SVG-20010904/DTD/svg10.dtd">
<svg version="1.0" xmlns="http://www.w3.org/2000/svg"
 width="144.000000pt" height="148.000000pt" viewBox="0 0 144.000000 148.000000"
 preserveAspectRatio="xMidYMid meet">
<metadata>
Created by potrace 1.16, written by Peter Selinger 2001-2019
</metadata>
<g transform="translate(0.000000,148.000000) scale(0.100000,-0.100000)"
fill="#000000" stroke="none">
<path d="M156 1423 c-4 -4 -6 -119 -5 -255 l1 -248 -36 -37 c-20 -21 -40 -51
-46 -68 -16 -49 -40 -204 -40 -256 0 -81 29 -241 52 -289 24 -51 73 -112 98
-122 21 -8 59 16 91 57 56 71 64 91 78 196 15 113 14 177 -4 276 -17 94 -38
143 -86 193 l-34 35 3 233 4 232 219 0 219 0 0 -659 c0 -703 -1 -688 47 -679
17 3 18 26 18 391 0 336 2 388 15 391 8 3 31 7 50 11 19 3 44 10 55 15 11 5
63 23 115 41 52 17 107 38 122 45 30 16 78 19 78 5 0 -5 -18 -54 -40 -109 -22
-54 -40 -109 -40 -120 0 -11 -4 -23 -9 -26 -38 -24 -7 -275 50 -396 21 -44 94
-110 122 -110 19 0 73 60 90 100 7 19 20 60 27 90 7 30 16 60 21 65 11 15 10
192 -2 240 -23 90 -74 212 -101 241 l-30 32 4 243 3 244 -551 3 c-303 1 -554
-1 -558 -5z m1039 -227 l0 -170 -95 -29 c-52 -16 -149 -48 -215 -72 -66 -24
-126 -45 -134 -47 -12 -3 -15 36 -17 237 -1 132 0 243 3 247 2 5 106 7 231 6
l227 -3 0 -169z m65 -360 c11 -25 20 -50 20 -55 0 -6 9 -28 20 -49 25 -47 41
-217 28 -299 -9 -61 -47 -151 -72 -172 -19 -16 -44 -8 -52 16 -4 10 -17 41
-30 69 -59 129 -42 368 36 513 16 31 27 26 50 -23z m-1039 -8 c10 -13 21 -39
25 -58 4 -19 11 -44 17 -55 6 -11 16 -62 22 -115 14 -103 4 -208 -21 -245 -8
-11 -14 -30 -14 -43 0 -36 -28 -81 -52 -82 -3 0 -21 18 -38 40 -27 34 -35 58
-51 148 -20 118 -24 204 -10 248 5 16 14 55 21 87 18 89 61 121 101 75z"/>
</g>
</svg>
