<?xml version="1.0" standalone="no"?>
<!DOCTYPE svg PUBLIC "-//W3C//DTD SVG 20010904//EN"
 "http://www.w3.org/TR/2001/REC-SVG-20010904/DTD/svg10.dtd">
<svg version="1.0" xmlns="http://www.w3.org/2000/svg"
 width="97.000000pt" height="100.000000pt" viewBox="0 0 97.000000 100.000000"
 preserveAspectRatio="xMidYMid meet">
<metadata>
Created by potrace 1.16, written by Peter Selinger 2001-2019
</metadata>
<g transform="translate(0.000000,100.000000) scale(0.100000,-0.100000)"
fill="#000000" stroke="none">
<path d="M107 963 c-4 -3 -7 -81 -7 -173 0 -165 0 -167 -25 -190 -37 -35 -49
-91 -49 -225 1 -138 11 -185 54 -237 36 -44 67 -49 97 -15 43 47 57 89 61 189
6 143 -3 199 -44 259 l-35 52 3 146 3 146 140 0 140 0 5 -445 5 -445 23 -3 22
-3 0 265 c0 257 1 266 20 266 10 0 63 16 117 36 54 20 109 38 122 41 28 7 28
12 -14 -107 -25 -67 -27 -85 -22 -165 6 -108 28 -176 69 -210 43 -36 73 -33
102 13 71 109 62 342 -18 450 -22 30 -23 37 -18 188 4 126 2 158 -9 165 -16
10 -732 12 -742 2z m693 -155 l0 -113 -138 -45 c-75 -25 -143 -46 -149 -48
-10 -3 -13 34 -13 157 l0 161 150 0 150 0 0 -112z m68 -302 c38 -113 29 -268
-19 -312 -24 -21 -34 -13 -54 44 -28 83 -30 167 -5 260 28 104 44 106 78 8z
m-704 9 c37 -95 23 -325 -21 -342 -61 -24 -98 245 -49 361 21 51 45 45 70 -19z"/>
</g>
</svg>
