<?xml version="1.0" standalone="no"?>
<!DOCTYPE svg PUBLIC "-//W3C//DTD SVG 20010904//EN"
 "http://www.w3.org/TR/2001/REC-SVG-20010904/DTD/svg10.dtd">
<svg version="1.0" xmlns="http://www.w3.org/2000/svg"
 width="73.000000pt" height="100.000000pt" viewBox="0 0 73.000000 100.000000"
 preserveAspectRatio="xMidYMid meet">
<metadata>
Created by potrace 1.16, written by Peter Selinger 2001-2019
</metadata>
<g transform="translate(0.000000,100.000000) scale(0.100000,-0.100000)"
fill="#000000" stroke="none">
<path d="M145 928 c-3 -13 -5 -66 -3 -118 3 -84 5 -95 22 -98 28 -6 35 15 29
90 -8 87 1 98 78 98 32 0 61 -5 64 -10 4 -6 8 -200 10 -431 2 -231 5 -423 8
-426 3 -2 14 -2 24 1 17 5 18 29 18 448 0 244 -4 449 -8 456 -6 8 -42 12 -122
12 -111 0 -115 -1 -120 -22z"/>
<path d="M134 628 c-15 -18 -39 -58 -53 -88 -22 -47 -26 -72 -29 -175 l-4
-120 42 -83 c78 -155 135 -148 199 23 35 93 38 185 10 280 -27 92 -89 195
-118 195 -11 0 -32 -15 -47 -32z m96 -128 c36 -72 40 -87 40 -155 0 -62 -6
-89 -31 -150 -18 -41 -38 -75 -45 -75 -18 0 -49 46 -75 111 -28 71 -28 173 0
254 20 56 45 95 62 95 5 0 27 -36 49 -80z"/>
<path d="M489 613 c-39 -63 -59 -130 -66 -229 -7 -96 7 -165 49 -245 36 -68
82 -99 121 -82 66 30 111 148 108 281 -3 105 -18 156 -72 238 -65 100 -94 108
-140 37z m98 -71 c41 -62 66 -142 66 -217 0 -57 -6 -82 -31 -138 -40 -87 -61
-88 -109 -8 -63 106 -66 224 -7 350 28 61 46 64 81 13z"/>
</g>
</svg>
