<?xml version="1.0" standalone="no"?>
<!DOCTYPE svg PUBLIC "-//W3C//DTD SVG 20010904//EN"
 "http://www.w3.org/TR/2001/REC-SVG-20010904/DTD/svg10.dtd">
<svg version="1.0" xmlns="http://www.w3.org/2000/svg"
 width="430.000000pt" height="590.000000pt" viewBox="0 0 430.000000 590.000000"
 preserveAspectRatio="xMidYMid meet">
<metadata>
Created by potrace 1.16, written by Peter Selinger 2001-2019
</metadata>
<g transform="translate(0.000000,590.000000) scale(0.500000,-0.500000)"
fill="#000000" stroke="none">
<path d="M181 1116 c-11 -5 -11 0 -11 -137 0 -147 -2 -139 30 -139 28 0 26 -7
26 112 0 104 0 109 9 112 8 3 168 3 172 0 4 -4 6 -215 6 -666 0 -324 0 -345 4
-347 17 -13 46 -3 46 16 0 7 -2 128 -3 270 -1 142 -2 302 -2 356 2 343 1 415
-7 420 -5 4 -263 7 -270 3z"/>
<path d="M628 781 c-4 -2 -24 -23 -30 -32 -3 -3 -8 -10 -12 -14 -14 -16 -19
-25 -20 -36 -2 -9 -4 -14 -9 -19 -4 -4 -8 -11 -9 -15 -1 -5 -5 -11 -8 -15 -8
-9 -14 -27 -15 -45 -1 -9 -3 -17 -6 -22 -2 -4 -6 -15 -7 -23 -1 -8 -4 -19 -5
-25 -2 -6 -4 -21 -5 -37 0 -24 -1 -28 -5 -33 -12 -16 -13 -97 -1 -114 5 -7 6
-11 7 -30 0 -13 2 -23 4 -27 2 -3 4 -13 6 -21 1 -9 5 -20 8 -26 3 -5 5 -11 5
-13 0 -1 2 -7 5 -12 3 -5 7 -14 9 -20 3 -8 6 -14 12 -18 9 -7 13 -15 17 -33 3
-11 5 -16 11 -21 3 -5 10 -13 13 -19 6 -11 7 -12 24 -21 10 -5 22 -12 26 -15
21 -19 68 -7 89 23 9 13 22 26 30 31 5 3 9 8 12 15 3 5 6 11 7 12 2 1 4 7 5
14 1 6 3 13 4 14 1 2 3 10 5 18 2 8 5 17 7 21 2 3 4 10 5 14 2 14 10 37 18 56
6 15 8 153 2 171 -1 5 -3 17 -4 27 -1 17 -1 18 -7 24 -6 6 -7 9 -8 22 -1 8 -3
18 -6 23 -2 4 -5 14 -7 21 -4 19 -12 41 -17 46 -2 2 -5 8 -7 12 -2 5 -9 13
-17 21 -13 11 -15 15 -19 26 -17 52 -78 105 -107 95z m36 -95 c6 -6 12 -14 14
-18 2 -4 11 -15 19 -24 10 -11 15 -17 16 -23 1 -3 5 -12 10 -19 10 -13 19 -35
19 -44 0 -3 3 -11 6 -17 4 -7 7 -17 8 -23 1 -6 5 -15 7 -19 3 -5 5 -13 6 -20
1 -7 3 -15 4 -19 17 -40 11 -146 -10 -176 -2 -5 -5 -13 -7 -22 -1 -8 -4 -19
-7 -24 -3 -5 -7 -15 -10 -23 -3 -8 -8 -17 -11 -21 -3 -4 -7 -11 -8 -16 -2 -4
-7 -13 -12 -19 -6 -6 -12 -14 -13 -16 -8 -11 -23 -14 -33 -6 -3 3 -9 6 -12 7
-10 3 -14 7 -16 16 -1 4 -6 13 -12 19 -5 6 -12 16 -16 22 -3 7 -8 15 -12 18
-3 3 -7 10 -9 15 -2 6 -7 16 -12 22 -9 12 -10 13 -11 29 -1 9 -3 19 -5 23 -2
3 -3 8 -3 10 0 2 -3 12 -7 22 -9 21 -13 95 -6 117 2 5 4 18 5 27 1 9 3 21 5
25 1 4 3 11 3 14 0 3 2 12 4 19 2 7 4 18 4 24 0 14 3 21 10 25 2 2 7 9 10 16
4 8 10 18 14 23 4 6 8 12 8 13 0 7 13 29 22 39 18 18 24 19 38 4z"/>
<path d="M198 776 c-23 -15 -64 -63 -69 -80 -2 -7 -6 -15 -10 -20 -9 -11 -14
-20 -18 -35 -4 -16 -8 -26 -14 -34 -7 -10 -13 -32 -14 -53 -2 -39 -4 -55 -9
-63 -8 -13 -8 -155 1 -170 3 -5 5 -12 5 -14 0 -2 2 -11 5 -20 3 -9 5 -18 5
-20 0 -3 3 -11 7 -18 4 -7 9 -20 12 -28 3 -10 9 -20 15 -29 13 -18 14 -20 16
-38 2 -16 2 -17 10 -24 4 -4 11 -12 14 -18 27 -43 85 -60 109 -32 4 6 12 12
17 15 11 6 15 10 17 19 1 7 8 26 13 35 13 23 31 60 32 67 1 4 5 12 8 17 6 8 7
11 8 27 1 19 3 24 13 38 4 5 5 9 5 18 0 6 2 16 4 23 4 10 4 16 4 73 0 68 -1
74 -13 93 -3 4 -6 12 -7 19 -1 6 -3 14 -4 17 -1 3 -4 14 -6 23 -3 9 -6 19 -7
20 -2 2 -4 10 -5 17 -1 12 -3 14 -17 34 -13 17 -17 24 -19 34 -5 17 -15 34
-25 41 -6 4 -9 7 -11 14 -2 6 -7 14 -11 18 -5 5 -11 13 -14 18 -12 18 -33 26
-47 16z m31 -96 c9 -10 15 -19 19 -30 2 -5 6 -11 8 -13 2 -3 5 -8 5 -12 3 -21
3 -21 11 -26 7 -4 10 -9 17 -24 5 -11 12 -23 16 -29 6 -9 17 -39 17 -47 0 -3
1 -8 3 -13 4 -12 4 -153 0 -166 -1 -5 -3 -12 -4 -16 -1 -4 -4 -11 -7 -15 -3
-4 -7 -11 -8 -16 -1 -4 -4 -12 -7 -17 -2 -5 -6 -14 -8 -20 -2 -5 -7 -14 -10
-19 -4 -5 -9 -13 -10 -17 -19 -52 -34 -72 -46 -65 -19 10 -52 49 -55 66 -3 14
-4 17 -15 30 -5 7 -9 14 -10 18 -2 13 -5 20 -9 24 -6 6 -9 13 -11 25 -1 6 -5
18 -8 28 -11 27 -11 138 0 170 6 19 7 24 7 41 0 21 1 25 11 34 6 6 11 19 11
33 0 10 4 19 12 27 5 5 9 12 11 17 2 7 5 10 9 12 3 1 11 8 17 14 15 15 24 16
34 6z"/>
</g>
</svg>
