<?xml version="1.0" standalone="no"?>
<!DOCTYPE svg PUBLIC "-//W3C//DTD SVG 20010904//EN"
 "http://www.w3.org/TR/2001/REC-SVG-20010904/DTD/svg10.dtd">
<svg version="1.0" xmlns="http://www.w3.org/2000/svg"
 width="378.000000pt" height="590.000000pt" viewBox="0 0 378.000000 590.000000"
 preserveAspectRatio="xMidYMid meet">
<metadata>
Created by potrace 1.16, written by Peter Selinger 2001-2019
</metadata>
<g transform="translate(0.000000,590.000000) scale(0.500000,-0.500000)"
fill="#000000" stroke="none">
<path d="M325 1101 c-20 -9 -22 -42 -4 -70 7 -12 10 -18 12 -32 4 -25 7 -28
26 -37 12 -6 19 -15 19 -26 0 -14 8 -26 30 -44 12 -9 28 -24 37 -33 15 -16 43
-33 54 -33 5 0 42 -20 56 -30 16 -12 29 -17 47 -19 17 -1 21 -4 24 -17 1 -6 4
-15 6 -19 3 -7 5 -18 6 -51 3 -54 3 -56 0 -71 -1 -7 -1 -17 -1 -23 1 -10 1
-13 -5 -25 -5 -11 -7 -20 -10 -43 -6 -42 -13 -60 -38 -97 -8 -11 -17 -27 -21
-35 -4 -8 -10 -20 -13 -26 -3 -6 -11 -17 -19 -25 -15 -15 -21 -25 -32 -57 -3
-8 -11 -25 -18 -38 -7 -13 -14 -26 -16 -29 -8 -17 -19 -21 -36 -13 -12 5 -22
26 -40 79 -3 11 -11 30 -17 42 -18 38 -40 94 -48 126 -2 9 -7 21 -11 27 -10
17 -13 23 -15 33 -11 49 -80 60 -80 12 0 -25 -24 -79 -38 -87 -8 -4 -12 -14
-14 -30 -2 -16 -9 -34 -17 -42 -6 -6 -12 -21 -14 -32 -2 -12 -9 -26 -21 -41
-11 -14 -14 -20 -14 -30 0 -21 -14 -57 -48 -125 -35 -70 -31 -91 20 -91 30 0
39 8 45 41 2 13 3 14 15 26 9 9 12 13 13 19 1 9 7 29 14 54 3 9 6 21 7 27 1 6
3 16 6 21 2 6 5 15 6 21 1 6 11 29 22 51 11 22 22 47 25 55 13 34 38 35 50 2
7 -19 8 -21 15 -32 7 -10 18 -38 18 -45 0 -1 3 -7 6 -13 3 -6 6 -15 8 -20 1
-5 5 -16 8 -23 5 -10 7 -19 8 -31 2 -23 9 -40 21 -51 8 -8 9 -10 9 -17 0 -70
45 -103 80 -60 9 13 28 41 33 50 2 4 9 14 16 23 8 8 14 18 16 21 1 3 6 10 10
17 5 7 10 16 13 21 2 5 9 14 14 19 11 12 13 15 17 35 4 21 14 36 40 64 10 11
14 16 19 30 10 26 48 104 58 120 11 15 13 21 11 40 -1 12 0 20 2 29 11 45 12
147 2 171 -2 5 -3 14 -3 27 0 12 -1 26 -3 33 -3 9 -3 21 -3 38 0 23 -1 28 -5
40 -3 8 -5 18 -5 22 0 10 -9 32 -18 47 -6 10 -10 19 -14 35 -11 40 -20 54 -44
67 -14 8 -23 15 -41 35 -10 12 -46 26 -64 26 -6 0 -17 2 -24 4 -6 3 -20 5 -30
6 -10 1 -22 3 -28 5 -14 5 -83 6 -92 2z m148 -77 c6 -2 13 -4 17 -5 4 -1 13
-5 20 -9 8 -5 17 -9 21 -10 8 -2 20 -15 32 -34 4 -6 14 -18 21 -27 11 -12 14
-17 16 -25 1 -6 4 -14 6 -18 2 -4 4 -9 4 -10 0 -1 2 -6 4 -11 15 -34 -24 -33
-76 0 -23 14 -38 23 -54 31 -13 7 -16 9 -22 19 -11 19 -16 27 -25 35 -22 21
-28 63 -9 67 3 1 6 2 7 2 4 2 30 -1 38 -5z"/>
</g>
</svg>
