<?xml version="1.0" standalone="no"?>
<!DOCTYPE svg PUBLIC "-//W3C//DTD SVG 20010904//EN"
 "http://www.w3.org/TR/2001/REC-SVG-20010904/DTD/svg10.dtd">
<svg version="1.0" xmlns="http://www.w3.org/2000/svg"
 width="94.000000pt" height="148.000000pt" viewBox="0 0 94.000000 148.000000"
 preserveAspectRatio="xMidYMid meet">
<metadata>
Created by potrace 1.16, written by Peter Selinger 2001-2019
</metadata>
<g transform="translate(0.000000,148.000000) scale(0.100000,-0.100000)"
fill="#000000" stroke="none">
<path d="M389 1357 c-9 -20 -8 -32 5 -58 9 -17 16 -40 16 -50 0 -10 14 -27 30
-39 18 -13 30 -30 30 -44 0 -27 92 -109 147 -133 21 -8 51 -24 67 -36 15 -11
42 -23 59 -26 41 -9 50 -44 44 -170 -6 -133 -20 -194 -62 -263 -19 -33 -35
-63 -35 -67 0 -4 -14 -23 -30 -41 -17 -18 -30 -38 -30 -43 0 -5 -14 -38 -31
-73 -26 -52 -36 -64 -56 -64 -19 0 -28 10 -43 43 -11 23 -20 48 -20 54 0 7
-13 41 -29 75 -15 35 -33 79 -40 98 -31 95 -61 156 -84 170 -34 19 -53 3 -61
-55 -4 -26 -19 -59 -37 -81 -16 -20 -29 -47 -29 -59 0 -12 -7 -28 -15 -35 -8
-7 -15 -20 -15 -30 0 -9 -11 -33 -23 -52 -13 -19 -26 -51 -30 -71 -3 -20 -24
-75 -47 -123 -23 -48 -39 -93 -36 -100 3 -8 17 -19 30 -26 33 -14 76 12 76 46
0 12 8 30 18 40 11 9 24 42 31 74 28 125 93 275 118 270 22 -4 55 -70 88 -171
15 -45 35 -100 45 -122 10 -22 22 -58 27 -80 7 -35 12 -40 39 -43 30 -3 35 3
103 107 40 61 76 113 81 116 6 4 10 16 10 28 0 12 13 38 28 57 16 19 52 81 80
138 50 100 52 107 58 210 8 135 -18 367 -46 421 -11 20 -22 47 -24 61 -6 27
-14 36 -81 93 -58 48 -81 55 -252 73 -60 6 -63 6 -74 -19z m232 -88 c53 -23
103 -81 133 -154 16 -37 16 -40 0 -52 -19 -14 -24 -12 -116 44 -86 53 -151
147 -121 176 12 13 54 7 104 -14z"/>
</g>
</svg>
