<?xml version="1.0" standalone="no"?>
<!DOCTYPE svg PUBLIC "-//W3C//DTD SVG 20010904//EN"
 "http://www.w3.org/TR/2001/REC-SVG-20010904/DTD/svg10.dtd">
<svg version="1.0" xmlns="http://www.w3.org/2000/svg"
 width="64.000000pt" height="100.000000pt" viewBox="0 0 64.000000 100.000000"
 preserveAspectRatio="xMidYMid meet">
<metadata>
Created by potrace 1.16, written by Peter Selinger 2001-2019
</metadata>
<g transform="translate(0.000000,100.000000) scale(0.100000,-0.100000)"
fill="#000000" stroke="none">
<path d="M267 923 c-16 -15 -5 -54 32 -111 42 -64 109 -120 170 -142 52 -18
59 -26 66 -79 10 -75 -12 -166 -59 -246 -22 -38 -52 -92 -66 -120 -25 -51 -46
-62 -61 -35 -5 8 -32 74 -60 147 -28 72 -57 134 -65 137 -16 6 -44 -19 -44
-41 0 -9 -9 -30 -19 -47 -11 -17 -36 -69 -56 -116 -20 -47 -48 -111 -61 -143
-30 -68 -26 -90 13 -85 33 4 47 29 93 164 17 50 37 100 45 110 12 17 15 17 28
4 8 -8 31 -67 53 -130 21 -63 46 -124 57 -135 18 -20 18 -20 42 7 33 39 132
200 176 288 45 91 53 153 39 284 -21 184 -74 264 -190 286 -61 11 -124 13
-133 3z m152 -71 c37 -18 85 -73 96 -109 10 -34 -23 -30 -81 10 -56 38 -89 79
-81 101 8 20 23 20 66 -2z"/>
</g>
</svg>
