<?xml version="1.0" standalone="no"?>
<!DOCTYPE svg PUBLIC "-//W3C//DTD SVG 20010904//EN"
 "http://www.w3.org/TR/2001/REC-SVG-20010904/DTD/svg10.dtd">
<svg version="1.0" xmlns="http://www.w3.org/2000/svg"
 width="85.000000pt" height="100.000000pt" viewBox="0 0 85.000000 100.000000"
 preserveAspectRatio="xMidYMid meet">
<metadata>
Created by potrace 1.16, written by Peter Selinger 2001-2019
</metadata>
<g transform="translate(0.000000,100.000000) scale(0.100000,-0.100000)"
fill="#000000" stroke="none">
<path d="M348 949 c-43 -24 -5 -166 66 -246 48 -54 87 -73 156 -73 l50 0 0
-47 c-1 -27 -9 -62 -18 -79 -28 -50 -144 -194 -157 -194 -6 0 -26 19 -43 43
-55 75 -129 147 -151 147 -24 0 -40 -29 -158 -285 -73 -160 -74 -160 -53 -177
12 -9 27 -15 34 -12 10 4 106 212 159 345 8 20 19 39 24 42 9 6 81 -73 206
-225 49 -60 70 -68 90 -37 8 13 3 26 -21 57 -39 48 -40 62 -7 99 l25 28 39
-42 c40 -45 83 -57 95 -28 8 23 -1 37 -44 68 -22 16 -40 35 -40 44 0 19 38 73
52 73 6 0 28 -16 49 -35 31 -28 43 -33 61 -26 40 14 27 42 -39 89 -41 28 -63
50 -63 63 0 31 26 33 63 5 44 -34 77 -35 77 -2 0 23 -48 65 -115 102 -13 7
-24 30 -33 70 -18 79 -33 111 -76 161 -56 64 -177 102 -228 72z m127 -72 c43
-24 125 -134 125 -168 0 -25 -48 -26 -97 -2 -42 19 -101 104 -110 156 -5 34
-4 37 18 37 13 0 42 -10 64 -23z"/>
</g>
</svg>
