<?xml version="1.0" standalone="no"?>
<!DOCTYPE svg PUBLIC "-//W3C//DTD SVG 20010904//EN"
 "http://www.w3.org/TR/2001/REC-SVG-20010904/DTD/svg10.dtd">
<svg version="1.0" xmlns="http://www.w3.org/2000/svg"
 width="500.000000pt" height="590.000000pt" viewBox="0 0 500.000000 590.000000"
 preserveAspectRatio="xMidYMid meet">
<metadata>
Created by potrace 1.16, written by Peter Selinger 2001-2019
</metadata>
<g transform="translate(0.000000,590.000000) scale(0.500000,-0.500000)"
fill="#000000" stroke="none">
<path d="M438 1133 c-37 -9 -55 -37 -47 -75 2 -7 3 -18 3 -24 0 -23 4 -38 12
-52 9 -13 18 -38 22 -58 3 -17 13 -37 24 -47 12 -11 23 -26 32 -41 6 -12 15
-21 43 -44 20 -17 36 -28 43 -29 3 -1 10 -3 15 -5 23 -9 36 -10 72 -9 85 3 80
7 80 -60 0 -38 0 -38 -9 -62 -4 -13 -8 -28 -9 -32 -2 -12 -5 -16 -19 -32 -8
-8 -21 -24 -31 -36 -27 -35 -44 -54 -72 -84 -14 -16 -29 -34 -33 -40 -25 -42
-45 -49 -60 -20 -10 17 -17 27 -35 44 -44 44 -65 70 -85 104 -4 6 -9 10 -15
14 -11 5 -16 10 -33 29 -31 35 -60 27 -83 -23 -7 -17 -17 -35 -21 -42 -4 -7
-12 -20 -17 -30 -5 -10 -11 -20 -13 -23 -2 -3 -5 -10 -8 -17 -7 -18 -15 -33
-24 -45 -5 -7 -8 -14 -10 -22 -4 -23 -9 -37 -17 -55 -5 -10 -12 -26 -17 -36
-4 -10 -12 -25 -17 -33 -5 -9 -12 -24 -16 -34 -3 -11 -13 -32 -20 -49 -13 -27
-19 -38 -34 -59 -8 -11 -11 -38 -6 -48 15 -28 69 -28 77 1 1 4 4 11 6 15 2 4
5 12 6 19 2 11 11 28 17 33 6 5 13 21 16 36 2 8 6 20 9 28 3 7 9 22 13 33 8
22 20 46 34 67 10 14 14 25 27 66 6 17 15 37 27 61 10 20 20 40 22 45 14 42
18 43 41 17 8 -10 22 -25 31 -35 25 -28 49 -56 64 -73 7 -9 15 -18 17 -19 2
-2 10 -11 19 -21 9 -10 23 -26 31 -35 29 -32 63 -74 73 -89 23 -35 51 -52 68
-41 33 20 31 53 -6 82 -23 18 -34 34 -38 56 -2 9 4 23 15 35 5 5 14 18 19 28
19 34 27 39 41 23 12 -13 24 -25 43 -44 10 -10 17 -19 20 -25 19 -42 83 -30
83 16 0 10 -7 20 -26 34 -78 57 -94 84 -63 110 18 15 24 22 29 35 14 38 42 29
77 -23 6 -10 23 -22 32 -24 3 -1 12 -3 18 -5 21 -7 32 -3 43 17 13 23 11 27
-41 66 -95 72 -92 69 -93 92 -2 54 0 54 83 -2 27 -19 31 -21 43 -21 32 0 47
39 22 57 -4 3 -16 14 -26 24 -23 22 -44 39 -54 44 -4 2 -10 6 -13 8 -3 3 -12
6 -19 8 -23 6 -29 11 -35 32 -2 6 -6 17 -10 24 -5 9 -7 16 -8 28 -2 24 -7 53
-11 62 -4 9 -11 36 -13 48 -1 7 -8 16 -38 49 -8 9 -16 20 -22 32 -10 20 -23
33 -46 46 -7 5 -16 11 -20 14 -9 8 -17 11 -28 13 -6 0 -15 4 -23 8 -10 5 -17
8 -30 9 -19 2 -28 4 -44 9 -16 4 -39 5 -54 2z m64 -68 c21 -3 39 -10 56 -20 5
-4 17 -11 26 -15 13 -7 18 -10 27 -22 7 -8 15 -16 19 -19 5 -3 10 -9 14 -17 4
-7 12 -21 19 -31 6 -10 14 -23 16 -29 2 -6 8 -17 13 -23 9 -13 17 -38 19 -60
2 -18 3 -18 -42 -17 -43 1 -43 1 -78 23 -10 7 -22 13 -27 15 -15 5 -35 29 -64
78 -43 71 -55 149 -22 141 2 -1 13 -2 24 -4z"/>
</g>
</svg>
