<?xml version="1.0" standalone="no"?>
<!DOCTYPE svg PUBLIC "-//W3C//DTD SVG 20010904//EN"
 "http://www.w3.org/TR/2001/REC-SVG-20010904/DTD/svg10.dtd">
<svg version="1.0" xmlns="http://www.w3.org/2000/svg"
 width="78.000000pt" height="100.000000pt" viewBox="0 0 78.000000 100.000000"
 preserveAspectRatio="xMidYMid meet">
<metadata>
Created by potrace 1.16, written by Peter Selinger 2001-2019
</metadata>
<g transform="translate(0.000000,100.000000) scale(0.100000,-0.100000)"
fill="#000000" stroke="none">
<path d="M121 944 c-50 -35 -66 -139 -35 -231 9 -25 36 -79 60 -119 24 -40 44
-77 44 -82 0 -6 -23 -24 -50 -41 -56 -34 -69 -54 -50 -76 17 -21 23 -19 70 20
23 19 48 35 55 35 14 0 55 -98 48 -116 -2 -6 -24 -26 -49 -44 -33 -23 -44 -38
-42 -53 5 -35 36 -32 80 9 l41 37 19 -23 c35 -43 33 -67 -6 -110 -41 -45 -46
-75 -15 -85 16 -5 32 6 77 56 31 34 71 83 88 108 44 64 68 85 81 69 6 -7 32
-66 58 -130 26 -65 54 -123 61 -129 17 -14 42 -5 51 16 5 16 -118 295 -143
324 -21 24 -57 4 -112 -64 -29 -36 -57 -65 -62 -65 -11 0 -120 224 -120 247 0
8 13 30 29 49 83 94 48 293 -67 381 -48 37 -76 41 -111 17z m95 -81 c50 -54
74 -111 74 -172 0 -55 -31 -132 -53 -130 -6 0 -34 46 -62 100 -40 83 -49 110
-49 154 0 90 35 109 90 48z"/>
</g>
</svg>
