<?xml version="1.0" standalone="no"?>
<!DOCTYPE svg PUBLIC "-//W3C//DTD SVG 20010904//EN"
 "http://www.w3.org/TR/2001/REC-SVG-20010904/DTD/svg10.dtd">
<svg version="1.0" xmlns="http://www.w3.org/2000/svg"
 width="116.000000pt" height="148.000000pt" viewBox="0 0 116.000000 148.000000"
 preserveAspectRatio="xMidYMid meet">
<metadata>
Created by potrace 1.16, written by Peter Selinger 2001-2019
</metadata>
<g transform="translate(0.000000,148.000000) scale(0.100000,-0.100000)"
fill="#000000" stroke="none">
<path d="M195 1401 c-54 -23 -88 -98 -88 -199 0 -90 37 -210 80 -263 15 -18
103 -180 103 -189 0 -3 -38 -33 -85 -65 -47 -32 -85 -61 -85 -64 0 -12 31 -51
41 -51 6 0 41 25 79 56 38 31 74 54 80 52 6 -2 29 -42 50 -90 l38 -86 -31 -29
c-18 -16 -53 -47 -79 -68 -53 -41 -57 -54 -30 -78 25 -23 32 -22 70 13 41 37
97 80 105 80 6 0 77 -130 77 -141 0 -4 -27 -35 -61 -69 -66 -67 -70 -88 -19
-107 26 -10 31 -8 44 12 9 13 49 59 90 103 40 44 79 90 86 103 20 37 100 137
115 143 9 3 22 -12 36 -42 12 -26 38 -81 59 -122 21 -41 40 -93 43 -115 4 -22
12 -44 19 -50 7 -5 21 -27 30 -47 18 -39 35 -46 69 -28 28 15 24 34 -25 140
-24 52 -70 151 -102 220 -31 69 -62 131 -67 138 -14 18 -70 15 -87 -6 -9 -9
-48 -56 -88 -104 -40 -48 -78 -85 -85 -82 -6 2 -54 88 -105 189 l-93 186 29
37 c17 20 39 46 51 56 12 11 21 27 21 36 0 9 5 21 11 27 6 6 12 52 13 105 1
105 -22 195 -61 239 -13 14 -23 32 -23 41 0 16 -86 95 -127 116 -25 14 -69 15
-98 3z m125 -113 c74 -76 125 -181 121 -253 0 -11 -1 -35 -1 -52 1 -46 -66
-173 -91 -173 -5 0 -29 42 -53 94 -24 51 -49 96 -55 100 -20 13 -52 87 -62
144 -16 99 18 191 72 192 9 0 40 -24 69 -52z"/>
</g>
</svg>
