<?xml version="1.0" standalone="no"?>
<!DOCTYPE svg PUBLIC "-//W3C//DTD SVG 20010904//EN"
 "http://www.w3.org/TR/2001/REC-SVG-20010904/DTD/svg10.dtd">
<svg version="1.0" xmlns="http://www.w3.org/2000/svg"
 width="460.000000pt" height="590.000000pt" viewBox="0 0 460.000000 590.000000"
 preserveAspectRatio="xMidYMid meet">
<metadata>
Created by potrace 1.16, written by Peter Selinger 2001-2019
</metadata>
<g transform="translate(0.000000,590.000000) scale(0.500000,-0.500000)"
fill="#000000" stroke="none">
<path d="M162 1124 c-29 -10 -42 -24 -55 -57 -3 -8 -8 -18 -11 -23 -6 -9 -6
-10 -6 -32 0 -20 -1 -24 -5 -33 -6 -13 -6 -21 0 -35 4 -9 5 -13 5 -33 0 -19 1
-23 5 -32 3 -5 5 -12 5 -15 0 -8 12 -40 23 -63 6 -11 12 -25 14 -31 2 -9 5
-13 9 -16 9 -7 20 -24 38 -62 9 -18 21 -40 26 -49 25 -42 21 -51 -38 -86 -7
-4 -18 -12 -27 -18 -8 -7 -20 -16 -28 -21 -22 -17 -23 -33 -1 -50 16 -12 25
-11 49 9 8 6 18 14 24 18 6 4 16 12 23 18 36 34 46 33 64 -4 23 -48 29 -62 31
-67 1 -2 4 -10 7 -17 11 -23 5 -31 -85 -105 -32 -26 -35 -32 -23 -47 17 -24
29 -28 44 -16 5 4 12 8 16 10 4 2 13 10 20 17 7 8 16 16 21 18 4 3 12 8 16 12
31 28 35 25 61 -31 8 -18 17 -36 21 -42 12 -17 10 -21 -49 -79 -40 -40 -40
-40 -31 -59 4 -10 5 -11 20 -17 24 -10 25 -9 42 9 8 8 15 15 16 15 4 0 12 10
15 18 2 9 15 22 37 41 6 5 13 13 15 17 2 5 5 8 6 8 4 0 26 23 31 32 3 5 8 12
11 15 2 3 7 11 10 18 14 28 85 113 92 111 10 -4 34 -45 37 -64 2 -9 4 -13 12
-23 14 -17 50 -99 52 -119 1 -7 3 -16 6 -21 3 -5 5 -12 5 -15 0 -7 5 -15 12
-21 3 -3 9 -14 16 -28 14 -31 14 -32 33 -33 44 -2 55 22 33 69 -3 7 -7 16 -8
21 -1 5 -6 14 -10 20 -12 18 -43 86 -45 99 -1 8 -20 49 -32 69 -6 9 -34 71
-50 107 -11 26 -25 34 -57 29 -17 -3 -70 -55 -82 -79 -4 -9 -11 -19 -19 -27
-7 -7 -17 -19 -23 -26 -33 -40 -39 -40 -57 -4 -5 10 -13 25 -17 32 -8 14 -58
111 -74 144 -52 104 -52 92 2 149 24 24 30 34 30 44 0 2 3 11 7 18 6 11 8 18
11 39 2 14 5 30 6 37 3 21 4 46 2 55 -1 5 -3 14 -5 20 -1 6 -4 19 -5 28 -1 14
-3 20 -12 38 -7 16 -10 24 -10 31 0 13 -2 16 -20 37 -11 13 -16 20 -17 26 -3
15 -6 21 -20 36 -12 13 -17 16 -26 19 -8 3 -14 8 -27 20 -35 33 -63 41 -106
27z m54 -62 c3 -2 8 -7 13 -10 26 -18 70 -67 81 -89 11 -24 20 -43 20 -44 0
-1 4 -6 8 -13 8 -11 9 -12 10 -32 1 -12 2 -24 4 -27 3 -7 3 -20 0 -26 -2 -2
-3 -17 -4 -39 -1 -36 -1 -36 -8 -43 -4 -5 -11 -16 -16 -26 -21 -45 -45 -68
-53 -51 -9 18 -27 56 -28 60 0 3 -5 11 -10 19 -5 7 -12 20 -15 28 -8 19 -14
29 -26 42 -11 12 -34 54 -36 67 -1 5 -3 13 -5 17 -2 5 -4 18 -5 30 -1 12 -3
29 -3 37 -2 16 1 32 7 45 3 4 5 14 5 21 2 14 2 14 10 20 4 3 10 7 11 9 10 12
29 14 40 5z"/>
</g>
</svg>
