<?xml version="1.0" standalone="no"?>
<!DOCTYPE svg PUBLIC "-//W3C//DTD SVG 20010904//EN"
 "http://www.w3.org/TR/2001/REC-SVG-20010904/DTD/svg10.dtd">
<svg version="1.0" xmlns="http://www.w3.org/2000/svg"
 width="81.000000pt" height="100.000000pt" viewBox="0 0 81.000000 100.000000"
 preserveAspectRatio="xMidYMid meet">
<metadata>
Created by potrace 1.16, written by Peter Selinger 2001-2019
</metadata>
<g transform="translate(0.000000,100.000000) scale(0.100000,-0.100000)"
fill="#000000" stroke="none">
<path d="M381 949 c-25 -28 -151 -272 -151 -294 0 -9 45 -67 101 -128 84 -93
100 -115 96 -136 -10 -49 -90 -261 -99 -261 -5 0 -44 31 -87 68 -93 83 -184
152 -199 152 -10 0 -20 -188 -14 -262 4 -38 19 -52 42 -38 9 5 12 35 11 104
-1 53 2 96 7 96 5 0 61 -47 125 -105 65 -59 124 -105 136 -105 16 0 28 25 72
158 28 86 54 161 57 166 2 5 37 -26 77 -68 75 -78 93 -87 115 -61 11 13 -1 28
-79 101 -50 48 -91 91 -91 96 0 5 7 25 15 45 l16 37 92 -92 c76 -75 95 -89
110 -81 9 5 17 16 17 24 0 7 -46 56 -101 107 -97 90 -101 96 -94 126 4 20 13
32 23 32 9 0 51 -23 94 -52 73 -47 80 -50 95 -35 15 15 15 18 -1 36 -10 11
-27 23 -37 26 -27 9 -23 25 5 25 32 0 44 20 21 36 -10 7 -53 25 -96 39 -72 24
-80 30 -105 73 -42 72 -122 179 -139 186 -8 3 -24 -4 -34 -15z m96 -150 c29
-41 52 -85 53 -99 0 -26 -57 -209 -70 -223 -3 -4 -44 36 -89 88 l-83 97 47 96
c54 110 64 124 79 119 6 -2 34 -37 63 -78z"/>
</g>
</svg>
