<?xml version="1.0" standalone="no"?>
<!DOCTYPE svg PUBLIC "-//W3C//DTD SVG 20010904//EN"
 "http://www.w3.org/TR/2001/REC-SVG-20010904/DTD/svg10.dtd">
<svg version="1.0" xmlns="http://www.w3.org/2000/svg"
 width="120.000000pt" height="148.000000pt" viewBox="0 0 120.000000 148.000000"
 preserveAspectRatio="xMidYMid meet">
<metadata>
Created by potrace 1.16, written by Peter Selinger 2001-2019
</metadata>
<g transform="translate(0.000000,148.000000) scale(0.100000,-0.100000)"
fill="#000000" stroke="none">
<path d="M540 1358 c-18 -35 -54 -103 -80 -153 -91 -174 -108 -206 -120 -220
-15 -18 -11 -23 67 -105 62 -65 176 -195 217 -245 l29 -36 -43 -112 c-23 -62
-46 -121 -50 -132 -5 -11 -19 -51 -31 -90 -13 -38 -28 -75 -33 -82 -8 -9 -29
4 -82 50 -234 203 -347 291 -365 285 -9 -3 -12 -63 -11 -218 l0 -215 29 -6
c55 -11 55 -10 47 152 -8 168 -5 173 56 116 20 -17 78 -68 130 -112 52 -44
118 -104 148 -133 57 -55 76 -63 91 -34 5 9 44 123 87 252 43 129 79 237 81
239 2 3 55 -48 119 -112 118 -120 148 -138 160 -93 5 20 -10 39 -98 123 -57
55 -116 111 -132 125 -28 24 -28 25 -15 64 7 21 17 43 21 48 4 6 8 20 8 33 0
13 5 23 10 23 10 0 170 -162 225 -228 22 -26 34 -32 59 -30 60 6 44 31 -108
179 -85 82 -146 149 -146 160 0 10 7 36 16 58 11 28 20 38 31 34 8 -3 72 -39
141 -79 69 -40 130 -70 134 -68 4 3 8 16 8 29 0 28 -25 46 -162 116 -140 71
-121 89 22 20 72 -34 117 -40 127 -15 9 24 -14 40 -107 73 -181 64 -173 59
-200 117 -14 30 -36 66 -50 82 -14 15 -29 35 -35 43 -59 90 -98 145 -108 151
-32 21 -53 8 -87 -54z m113 -83 c39 -68 54 -91 73 -111 12 -13 34 -48 49 -78
l27 -54 -41 -114 c-22 -62 -48 -139 -57 -170 -10 -32 -22 -58 -27 -58 -10 0
-150 147 -156 164 -2 6 -26 34 -53 63 -56 57 -58 77 -15 137 12 17 38 65 57
106 20 41 48 97 64 123 27 46 29 47 48 31 10 -10 24 -27 31 -39z"/>
</g>
</svg>
