<?xml version="1.0" standalone="no"?>
<!DOCTYPE svg PUBLIC "-//W3C//DTD SVG 20010904//EN"
 "http://www.w3.org/TR/2001/REC-SVG-20010904/DTD/svg10.dtd">
<svg version="1.0" xmlns="http://www.w3.org/2000/svg"
 width="482.000000pt" height="590.000000pt" viewBox="0 0 482.000000 590.000000"
 preserveAspectRatio="xMidYMid meet">
<metadata>
Created by potrace 1.16, written by Peter Selinger 2001-2019
</metadata>
<g transform="translate(0.000000,590.000000) scale(0.500000,-0.500000)"
fill="#000000" stroke="none">
<path d="M470 1139 c-6 -2 -11 -8 -14 -16 -2 -5 -8 -15 -14 -23 -6 -8 -12 -19
-14 -25 -2 -6 -7 -15 -11 -21 -4 -5 -9 -14 -12 -19 -3 -6 -6 -12 -8 -15 -2 -3
-5 -10 -8 -16 -3 -6 -6 -13 -8 -16 -6 -11 -23 -47 -23 -49 0 -1 -3 -6 -6 -10
-3 -4 -7 -12 -9 -18 -2 -5 -6 -13 -11 -18 -4 -5 -9 -12 -10 -17 -1 -4 -5 -11
-8 -15 -3 -4 -6 -10 -7 -14 -1 -4 -4 -11 -8 -17 -4 -5 -8 -13 -8 -17 -1 -3 -5
-10 -9 -14 -9 -9 -12 -19 -9 -32 1 -7 8 -14 50 -56 36 -36 50 -50 53 -57 4 -9
51 -59 72 -76 5 -5 12 -12 14 -16 2 -4 5 -8 7 -10 2 -1 6 -9 10 -16 8 -14 14
-22 34 -39 6 -6 11 -12 11 -14 0 -6 -9 -30 -17 -47 -5 -10 -9 -21 -9 -23 0 -6
-8 -26 -12 -33 -2 -3 -5 -9 -6 -14 -4 -15 -10 -32 -25 -71 -3 -8 -7 -19 -9
-26 -2 -7 -6 -16 -9 -22 -3 -5 -6 -16 -8 -22 -2 -7 -5 -18 -9 -24 -3 -7 -6
-17 -7 -23 -3 -30 -17 -37 -37 -18 -6 5 -14 11 -18 14 -4 3 -13 10 -20 17 -8
7 -14 13 -16 13 -1 0 -6 5 -12 11 -6 6 -15 14 -19 17 -5 3 -13 9 -18 14 -13
11 -29 24 -43 35 -6 4 -20 16 -31 26 -11 10 -23 20 -26 23 -4 3 -15 12 -25 20
-17 14 -33 25 -78 55 -14 10 -28 12 -35 5 -3 -4 -6 -327 -2 -337 3 -11 51 -13
61 -3 4 4 4 8 3 116 -2 144 -8 137 64 71 8 -7 18 -15 23 -18 5 -4 12 -9 15
-13 3 -4 11 -10 17 -15 6 -4 17 -13 24 -20 44 -39 58 -51 68 -58 10 -7 65 -62
77 -76 7 -8 7 -8 26 -9 27 -1 26 -3 50 71 19 60 24 73 32 93 5 12 12 32 30 89
6 20 14 42 17 50 2 8 11 32 18 53 17 52 12 52 63 -1 66 -69 123 -124 137 -132
33 -21 60 28 27 50 -10 6 -74 68 -176 168 -17 17 -17 14 -9 36 4 10 7 22 8 26
2 10 7 20 12 25 1 2 4 11 5 19 3 18 5 21 12 18 7 -3 149 -148 158 -162 23 -36
53 -53 74 -43 31 15 24 46 -17 73 -10 6 -144 134 -183 174 -18 18 -18 18 -6
56 16 49 22 52 63 25 4 -4 21 -13 36 -21 16 -8 31 -17 35 -20 3 -3 14 -9 24
-13 10 -5 25 -14 33 -19 44 -31 70 -30 70 2 0 15 -2 17 -42 42 -13 7 -29 17
-36 21 -7 5 -21 12 -30 16 -9 5 -22 12 -28 16 -6 4 -18 11 -26 15 -17 7 -23
13 -17 13 7 0 20 -4 25 -8 3 -2 11 -6 16 -8 6 -2 20 -8 30 -13 11 -5 23 -9 26
-9 3 0 9 -1 14 -3 27 -12 56 -2 56 18 0 14 -20 31 -38 34 -5 1 -12 3 -15 5 -3
2 -16 7 -29 11 -53 17 -65 22 -91 34 -14 7 -28 13 -31 13 -18 0 -24 5 -35 33
-5 13 -12 24 -16 29 -4 4 -8 11 -9 16 -1 5 -6 12 -13 19 -6 6 -12 15 -14 18
-2 4 -6 11 -10 15 -4 4 -7 10 -8 13 -1 3 -8 12 -15 21 -8 8 -16 18 -18 22 -2
4 -6 10 -10 13 -3 3 -7 9 -7 13 -1 4 -5 11 -11 17 -5 5 -11 13 -12 18 -2 7
-16 19 -31 27 -6 4 -22 5 -29 3z m35 -95 c2 -3 7 -10 12 -15 4 -5 8 -12 8 -15
1 -6 15 -23 24 -30 3 -2 6 -9 9 -14 2 -6 7 -14 10 -17 3 -3 7 -9 8 -13 3 -8 9
-15 18 -20 3 -3 8 -8 10 -13 3 -4 7 -12 11 -17 10 -14 19 -35 21 -48 1 -6 3
-14 3 -18 2 -8 -25 -92 -38 -124 -2 -4 -13 -37 -25 -73 -12 -36 -24 -68 -25
-69 -7 -8 -19 -2 -24 11 -2 3 -7 10 -12 15 -5 5 -16 16 -23 25 -13 15 -29 32
-55 57 -7 7 -14 15 -17 22 -4 9 -13 20 -40 47 -42 43 -42 44 -35 58 2 5 6 15
8 21 4 11 12 26 23 39 4 4 9 12 10 16 1 5 4 11 6 14 2 2 6 10 8 16 3 7 7 15 9
18 3 4 7 11 9 18 2 6 6 14 9 18 3 3 7 12 9 18 2 6 7 15 10 20 3 4 6 9 6 11 0
2 3 7 6 11 4 4 11 15 16 24 13 22 13 22 21 17 3 -2 8 -6 10 -10z"/>
</g>
</svg>
