<?xml version="1.0" standalone="no"?>
<!DOCTYPE svg PUBLIC "-//W3C//DTD SVG 20010904//EN"
 "http://www.w3.org/TR/2001/REC-SVG-20010904/DTD/svg10.dtd">
<svg version="1.0" xmlns="http://www.w3.org/2000/svg"
 width="542.000000pt" height="590.000000pt" viewBox="0 0 542.000000 590.000000"
 preserveAspectRatio="xMidYMid meet">
<metadata>
Created by potrace 1.16, written by Peter Selinger 2001-2019
</metadata>
<g transform="translate(0.000000,590.000000) scale(0.500000,-0.500000)"
fill="#000000" stroke="none">
<path d="M481 1113 c-6 -2 -14 -9 -27 -23 -10 -11 -24 -23 -30 -27 -14 -10
-40 -53 -40 -65 0 -5 -7 -19 -18 -33 -5 -8 -12 -20 -14 -26 -2 -6 -8 -20 -14
-30 -5 -10 -11 -22 -13 -28 -2 -5 -7 -17 -12 -26 -5 -9 -10 -23 -12 -31 -2 -8
-5 -22 -7 -30 -5 -19 -12 -66 -12 -78 0 -4 -1 -17 -3 -29 -6 -36 -5 -78 1
-102 11 -39 -1 -64 -33 -73 -5 -1 -22 -7 -37 -13 -16 -6 -33 -11 -39 -13 -5
-1 -18 -7 -28 -12 -11 -6 -21 -10 -22 -10 -4 0 -40 -12 -47 -15 -17 -9 -19
-34 -4 -49 10 -12 20 -10 62 11 22 11 68 30 130 54 26 10 36 8 36 -7 0 -4 1
-16 3 -26 5 -28 0 -39 -22 -47 -10 -3 -18 -7 -50 -20 -9 -4 -20 -8 -24 -9 -4
-1 -16 -6 -25 -10 -10 -5 -23 -9 -32 -10 -53 -8 -69 -47 -25 -64 15 -5 12 -6
72 23 134 66 138 67 145 37 8 -38 -1 -60 -29 -71 -8 -3 -18 -9 -24 -13 -5 -4
-16 -12 -25 -16 -8 -5 -22 -14 -31 -20 -20 -14 -27 -18 -52 -26 -37 -12 -47
-21 -47 -45 -1 -34 36 -38 75 -9 12 9 37 25 56 37 18 12 39 26 46 31 15 10 50
32 64 38 5 2 14 8 20 14 11 11 99 56 156 80 15 7 31 15 36 18 4 3 24 13 43 23
19 9 73 36 120 59 110 54 98 55 117 -8 3 -9 6 -18 7 -20 4 -8 8 -35 8 -53 0
-19 1 -23 11 -29 7 -5 18 -26 20 -43 2 -12 7 -34 13 -50 2 -7 4 -17 4 -21 0
-9 3 -17 11 -27 3 -4 5 -7 5 -8 0 -1 3 -8 7 -16 5 -11 7 -18 9 -33 4 -35 18
-50 41 -44 30 8 35 38 13 81 -6 13 -14 32 -17 42 -3 10 -8 25 -10 33 -3 8 -6
22 -8 30 -2 8 -7 23 -12 33 -9 20 -14 35 -21 63 -2 10 -6 22 -8 26 -2 4 -7 18
-10 31 -4 15 -9 31 -13 39 -4 8 -10 25 -14 37 -10 34 -14 40 -25 45 -23 11
-39 10 -56 -5 -17 -15 -36 -23 -68 -30 -17 -3 -36 -13 -47 -23 -5 -4 -13 -9
-19 -11 -6 -2 -14 -5 -19 -7 -4 -2 -15 -7 -25 -10 -62 -21 -67 -23 -78 -39
-10 -16 -13 -18 -28 -24 -15 -6 -29 -14 -39 -22 -12 -10 -67 -37 -84 -40 -28
-6 -38 3 -46 41 -1 3 -3 10 -5 15 -2 5 -4 16 -5 27 -1 10 -4 29 -6 41 -8 34
-11 55 -12 73 -1 31 -5 63 -8 71 -6 13 -4 51 4 64 4 10 5 13 5 30 0 32 14 104
26 137 3 8 7 20 9 26 2 6 6 15 9 20 3 5 9 17 12 26 10 29 26 60 37 69 4 4 10
10 11 13 5 12 30 54 38 63 11 12 27 12 37 -2 3 -5 11 -12 17 -16 14 -9 27 -22
38 -41 5 -8 12 -19 15 -24 4 -5 11 -18 16 -28 6 -15 10 -21 17 -26 7 -5 10
-10 12 -15 3 -11 6 -20 12 -35 3 -7 6 -14 6 -16 0 -1 2 -7 5 -14 5 -11 15 -47
18 -60 1 -4 3 -11 4 -15 2 -4 4 -18 5 -31 1 -13 3 -26 4 -30 1 -4 3 -15 4 -26
4 -35 24 -48 55 -34 15 7 18 63 4 100 -5 15 -8 26 -9 40 -2 26 -7 40 -18 50
-6 5 -8 9 -9 16 -4 24 -13 51 -23 66 -5 8 -11 19 -13 24 -4 11 -18 30 -28 38
-4 4 -9 11 -12 16 -3 5 -15 21 -28 35 -16 18 -25 30 -30 40 -8 16 -17 25 -32
33 -5 2 -13 7 -19 12 -18 14 -31 17 -49 11z"/>
</g>
</svg>
