<?xml version="1.0" standalone="no"?>
<!DOCTYPE svg PUBLIC "-//W3C//DTD SVG 20010904//EN"
 "http://www.w3.org/TR/2001/REC-SVG-20010904/DTD/svg10.dtd">
<svg version="1.0" xmlns="http://www.w3.org/2000/svg"
 width="92.000000pt" height="100.000000pt" viewBox="0 0 92.000000 100.000000"
 preserveAspectRatio="xMidYMid meet">
<metadata>
Created by potrace 1.16, written by Peter Selinger 2001-2019
</metadata>
<g transform="translate(0.000000,100.000000) scale(0.100000,-0.100000)"
fill="#000000" stroke="none">
<path d="M381 924 c-41 -34 -128 -212 -142 -289 -6 -33 -9 -86 -6 -118 6 -68
2 -72 -105 -106 -71 -24 -94 -41 -84 -66 8 -22 37 -18 108 15 81 39 98 39 98
1 0 -28 -5 -31 -81 -58 -85 -29 -102 -45 -77 -69 12 -13 24 -10 93 21 78 36
105 39 105 11 0 -23 -34 -51 -105 -85 -76 -38 -93 -55 -75 -76 20 -24 37 -18
130 44 106 71 444 244 468 239 11 -2 21 -21 28 -53 16 -71 80 -255 92 -267 16
-16 42 -2 42 23 0 26 -106 338 -122 356 -12 15 -41 17 -66 4 -9 -6 -55 -27
-102 -47 -47 -20 -98 -47 -115 -59 -39 -30 -110 -65 -129 -65 -31 0 -62 207
-47 310 15 106 90 272 128 287 22 8 74 -52 112 -129 26 -51 37 -88 57 -194 5
-29 30 -37 49 -17 49 48 -86 338 -183 396 -38 22 -35 22 -71 -9z"/>
</g>
</svg>
