<?xml version="1.0" standalone="no"?>
<!DOCTYPE svg PUBLIC "-//W3C//DTD SVG 20010904//EN"
 "http://www.w3.org/TR/2001/REC-SVG-20010904/DTD/svg10.dtd">
<svg version="1.0" xmlns="http://www.w3.org/2000/svg"
 width="136.000000pt" height="148.000000pt" viewBox="0 0 136.000000 148.000000"
 preserveAspectRatio="xMidYMid meet">
<metadata>
Created by potrace 1.16, written by Peter Selinger 2001-2019
</metadata>
<g transform="translate(0.000000,148.000000) scale(0.100000,-0.100000)"
fill="#000000" stroke="none">
<path d="M560 1354 c-39 -37 -64 -75 -119 -188 -66 -136 -70 -146 -85 -264
-12 -97 -14 -133 -5 -168 17 -67 4 -78 -146 -134 -117 -43 -130 -51 -133 -74
-3 -20 2 -27 21 -31 15 -4 35 -1 49 8 42 28 208 89 223 83 16 -6 21 -72 7 -92
-8 -12 -160 -74 -180 -74 -26 0 -72 -31 -72 -48 0 -9 9 -23 21 -30 19 -12 34
-7 137 43 127 63 145 63 150 6 3 -32 -19 -71 -40 -71 -5 0 -35 -17 -66 -38
-31 -22 -78 -47 -104 -56 -48 -19 -67 -48 -46 -73 18 -22 45 -15 111 32 36 25
69 45 74 45 6 0 18 9 28 20 10 11 22 20 28 20 5 0 29 14 54 30 40 27 575 300
588 300 9 0 26 -51 42 -125 8 -38 20 -77 28 -85 7 -8 17 -33 21 -54 4 -21 16
-62 26 -90 11 -28 24 -69 30 -91 13 -49 33 -68 59 -54 20 10 27 73 11 83 -5 3
-19 38 -31 78 -13 40 -31 96 -41 123 -10 28 -27 79 -38 115 -31 97 -52 153
-64 167 -15 18 -46 16 -76 -6 -15 -10 -45 -24 -67 -31 -22 -7 -53 -21 -70 -30
-16 -10 -61 -30 -99 -44 -38 -15 -76 -35 -83 -46 -8 -11 -29 -27 -46 -35 -18
-9 -57 -29 -87 -45 -61 -32 -83 -36 -97 -17 -19 25 -43 139 -58 282 -15 136 7
276 65 410 9 22 23 55 31 73 8 17 17 32 21 32 3 0 21 25 38 55 19 34 38 55 49
55 24 0 102 -78 125 -126 11 -21 28 -48 37 -59 25 -30 59 -136 78 -244 17 -96
17 -96 48 -99 23 -2 32 2 35 16 9 33 -21 182 -46 227 -9 17 -16 39 -16 50 0
11 -9 31 -20 45 -11 14 -20 29 -20 34 0 7 -57 80 -102 130 -10 11 -18 23 -18
27 0 10 -90 79 -102 79 -5 0 -31 -21 -58 -46z"/>
</g>
</svg>
