<?xml version="1.0" standalone="no"?>
<!DOCTYPE svg PUBLIC "-//W3C//DTD SVG 20010904//EN"
 "http://www.w3.org/TR/2001/REC-SVG-20010904/DTD/svg10.dtd">
<svg version="1.0" xmlns="http://www.w3.org/2000/svg"
 width="100.000000pt" height="59.000000pt" viewBox="0 0 100.000000 59.000000"
 preserveAspectRatio="xMidYMid meet">
<metadata>
Created by potrace 1.16, written by Peter Selinger 2001-2019
</metadata>
<g transform="translate(0.000000,59.000000) scale(0.100000,-0.100000)"
fill="#000000" stroke="none">
<path d="M430 387 c-50 -25 -33 -81 64 -202 31 -38 56 -73 56 -77 0 -5 -11 -8
-24 -8 -16 0 -62 31 -133 90 -108 90 -136 103 -141 65 -2 -14 10 -28 40 -47
24 -15 63 -47 88 -72 39 -40 41 -46 22 -46 -12 0 -56 29 -103 70 -44 39 -87
70 -95 70 -30 0 -11 -31 46 -75 62 -48 73 -65 42 -65 -27 0 -88 46 -112 85
-13 20 -30 35 -41 35 -30 0 -23 -36 11 -62 30 -22 40 -48 19 -48 -7 0 -34 23
-61 50 -51 51 -70 58 -76 26 -5 -23 31 -61 88 -94 l44 -26 215 1 c172 2 224
-1 263 -14 35 -11 75 -14 146 -11 84 3 102 7 140 31 42 27 42 27 42 89 l0 62
-58 56 c-60 59 -137 102 -213 119 -63 15 -239 13 -269 -2z m283 -54 c65 -19
147 -73 183 -120 30 -39 36 -89 13 -104 -50 -32 -184 -42 -254 -18 -33 12 -54
32 -117 118 -76 101 -91 134 -65 145 21 10 186 -5 240 -21z"/>
</g>
</svg>
