<?xml version="1.0" standalone="no"?>
<!DOCTYPE svg PUBLIC "-//W3C//DTD SVG 20010904//EN"
 "http://www.w3.org/TR/2001/REC-SVG-20010904/DTD/svg10.dtd">
<svg version="1.0" xmlns="http://www.w3.org/2000/svg"
 width="250.000000pt" height="148.000000pt" viewBox="0 0 250.000000 148.000000"
 preserveAspectRatio="xMidYMid meet">
<metadata>
Created by potrace 1.16, written by Peter Selinger 2001-2019
</metadata>
<g transform="translate(0.000000,148.000000) scale(0.100000,-0.100000)"
fill="#000000" stroke="none">
<path d="M1228 995 c-2 -3 -25 -9 -49 -14 -97 -21 -122 -31 -150 -57 -29 -28
-37 -58 -19 -69 5 -3 17 -31 26 -61 8 -29 19 -54 24 -54 5 0 25 -33 44 -74 19
-40 42 -76 50 -79 9 -4 29 -28 45 -54 17 -27 43 -58 59 -70 16 -12 43 -46 59
-75 17 -29 40 -62 52 -72 24 -22 27 -58 6 -76 -38 -32 -216 36 -247 94 -19 35
-88 97 -126 113 -21 8 -50 31 -66 50 -16 19 -38 39 -50 44 -48 21 -112 67
-121 86 -21 41 -37 53 -75 53 -37 0 -51 -9 -63 -42 -7 -21 28 -68 52 -68 22 0
134 -84 212 -160 34 -33 66 -60 70 -60 5 0 25 -18 46 -41 21 -23 50 -47 66
-55 15 -8 27 -21 27 -29 0 -22 -132 -21 -151 1 -7 9 -32 29 -55 45 -24 16 -45
38 -49 48 -3 11 -26 30 -51 42 -25 12 -48 28 -51 36 -3 7 -30 30 -60 50 -30
19 -66 51 -80 70 -14 19 -39 41 -55 49 -27 14 -32 14 -54 -1 -42 -27 -24 -66
53 -111 42 -24 197 -145 261 -203 13 -12 20 -26 17 -31 -3 -6 -36 -10 -72 -10
-50 0 -71 5 -90 20 -14 11 -31 20 -37 20 -12 0 -151 143 -235 241 l-45 51 -33
-36 c-28 -30 -32 -40 -23 -56 6 -11 17 -20 25 -20 7 0 34 -19 59 -42 25 -24
64 -58 86 -77 51 -43 53 -71 5 -71 -19 0 -47 5 -62 12 -49 22 -174 131 -194
170 -32 62 -79 75 -118 34 -16 -17 -20 -29 -14 -39 20 -36 103 -116 137 -132
21 -10 49 -30 64 -44 38 -38 116 -72 187 -82 98 -13 626 -13 826 1 170 12 190
11 240 -5 30 -9 66 -26 81 -36 17 -12 60 -23 115 -30 123 -16 177 -16 342 1
141 14 146 15 176 46 18 18 47 35 64 39 18 4 53 26 77 50 l45 42 -7 124 -6
124 -35 29 c-18 16 -43 46 -54 67 -11 22 -23 39 -27 39 -4 0 -33 25 -65 55
-32 30 -78 65 -103 76 -24 12 -50 29 -57 39 -7 10 -46 33 -87 50 -41 18 -94
41 -117 51 -24 11 -51 19 -62 19 -10 0 -38 8 -62 19 -26 11 -72 19 -114 20
-38 1 -87 6 -110 10 -43 10 -288 14 -297 6z m432 -102 c38 -16 160 -50 228
-62 29 -5 55 -20 80 -44 21 -21 46 -37 56 -37 39 0 100 -49 205 -164 92 -102
126 -198 98 -275 -15 -44 -108 -97 -204 -117 -118 -24 -298 -29 -375 -9 -37 9
-71 14 -76 11 -5 -3 -22 2 -38 11 -16 9 -56 30 -89 47 -42 22 -61 38 -63 53
-2 13 -21 39 -43 60 -21 20 -39 43 -39 50 0 7 -10 19 -23 28 -13 8 -31 33 -41
55 -9 22 -31 49 -48 61 -17 13 -41 46 -55 77 -13 31 -39 69 -57 86 -40 38 -70
115 -61 156 6 29 8 29 78 32 170 7 431 -4 467 -19z"/>
</g>
</svg>
