<?xml version="1.0" standalone="no"?>
<!DOCTYPE svg PUBLIC "-//W3C//DTD SVG 20010904//EN"
 "http://www.w3.org/TR/2001/REC-SVG-20010904/DTD/svg10.dtd">
<svg version="1.0" xmlns="http://www.w3.org/2000/svg"
 width="996.000000pt" height="590.000000pt" viewBox="0 0 996.000000 590.000000"
 preserveAspectRatio="xMidYMid meet">
<metadata>
Created by potrace 1.16, written by Peter Selinger 2001-2019
</metadata>
<g transform="translate(0.000000,590.000000) scale(0.500000,-0.500000)"
fill="#000000" stroke="none">
<path d="M1022 798 c-40 -1 -46 -2 -58 -6 -7 -2 -20 -5 -29 -5 -11 -1 -20 -3
-29 -7 -7 -3 -17 -6 -21 -7 -69 -12 -106 -58 -76 -97 13 -17 14 -19 18 -41 6
-29 6 -30 22 -47 13 -13 16 -18 27 -42 7 -15 14 -31 17 -37 3 -5 6 -13 7 -17
3 -9 11 -18 28 -27 11 -7 13 -9 19 -22 14 -27 40 -61 47 -61 7 0 46 -43 48
-52 1 -6 6 -15 10 -22 4 -6 10 -15 13 -21 3 -5 12 -16 20 -24 44 -43 17 -89
-41 -70 -5 2 -17 4 -27 5 -17 1 -24 4 -40 16 -5 4 -20 13 -32 19 -25 12 -31
18 -41 38 -5 9 -13 19 -33 39 -15 15 -30 30 -33 33 -4 5 -11 8 -23 12 -25 8
-43 18 -49 25 -26 36 -39 49 -58 56 -6 2 -16 8 -22 12 -6 5 -16 11 -23 14 -31
16 -37 22 -48 43 -23 44 -72 57 -104 29 -27 -24 -4 -73 36 -79 13 -2 19 -5 31
-16 5 -5 20 -16 34 -25 15 -10 31 -23 42 -34 10 -10 22 -20 29 -24 17 -8 30
-20 42 -38 13 -19 20 -25 41 -36 14 -8 20 -12 41 -35 26 -30 31 -34 49 -43 18
-9 24 -20 15 -29 -4 -4 -4 -4 -50 -4 -52 1 -53 2 -64 17 -5 8 -11 13 -33 26
-32 20 -38 26 -47 45 -10 19 -11 20 -27 25 -16 5 -51 28 -56 37 -6 12 -18 22
-37 33 -10 5 -20 12 -22 14 -2 1 -9 7 -16 13 -6 5 -23 23 -38 39 -31 34 -40
40 -59 40 -57 0 -52 -60 7 -89 5 -3 13 -8 16 -10 3 -3 13 -8 22 -13 9 -5 21
-13 28 -20 7 -6 22 -19 34 -28 12 -9 29 -23 38 -32 38 -34 47 -42 59 -49 17
-9 23 -16 29 -28 9 -19 6 -21 -53 -21 -50 0 -48 0 -62 14 -6 7 -11 11 -17 12
-4 1 -11 3 -15 4 -14 4 -82 67 -104 97 -3 5 -10 12 -16 16 -14 11 -38 39 -50
59 -10 17 -42 50 -52 56 -7 4 -17 1 -24 -8 -4 -5 -12 -13 -18 -20 -15 -15 -16
-18 -16 -27 0 -13 10 -23 28 -30 20 -8 33 -19 56 -47 5 -6 12 -11 21 -16 19
-9 67 -60 67 -70 0 -13 -43 -16 -69 -5 -7 2 -17 6 -23 8 -11 4 -29 18 -55 44
-7 7 -21 18 -31 25 -24 16 -29 21 -46 52 -33 57 -67 70 -102 36 -20 -20 -15
-38 22 -78 42 -45 48 -51 63 -57 8 -3 18 -8 22 -11 5 -3 15 -9 23 -14 8 -6 21
-16 29 -24 9 -10 16 -16 25 -19 6 -3 19 -9 29 -14 10 -5 19 -9 21 -9 1 0 8 -3
16 -6 11 -5 16 -6 28 -6 8 0 24 -2 35 -4 11 -2 26 -5 33 -6 9 -1 69 -2 190 -2
143 0 181 -1 195 -3 15 -2 21 -3 27 -1 5 1 34 3 65 4 52 1 57 2 68 6 11 4 16
5 74 6 34 1 67 3 74 4 26 5 91 -1 109 -10 4 -2 13 -5 19 -7 22 -6 37 -13 47
-22 11 -11 21 -15 31 -15 4 0 13 -1 19 -3 16 -4 56 -9 74 -9 11 0 19 -1 30 -5
18 -6 54 -9 78 -5 8 1 25 3 37 4 13 1 24 2 25 3 1 1 20 2 42 3 31 1 41 2 49 6
8 3 19 4 50 6 52 2 54 3 71 29 11 15 21 22 40 27 44 11 85 42 101 75 4 11 5
81 1 93 -1 3 -2 11 -1 19 1 10 0 19 -2 29 -2 8 -4 27 -4 41 -2 31 -3 34 -20
42 -10 5 -43 37 -43 41 0 8 -17 38 -24 43 -14 8 -47 37 -63 55 -12 13 -39 36
-48 40 -45 20 -62 32 -80 53 -8 10 -27 20 -48 26 -6 2 -21 8 -33 14 -11 6 -28
13 -36 15 -8 2 -27 10 -41 17 -25 12 -27 13 -50 16 -24 3 -31 6 -42 14 -11 8
-17 9 -54 11 -74 4 -84 4 -103 9 -13 4 -26 5 -44 6 -45 2 -132 2 -178 1z m30
-64 c18 -5 73 -7 100 -3 9 1 21 1 34 -1 10 -1 40 -3 65 -4 52 -2 63 -4 80 -15
11 -7 48 -18 75 -22 5 -1 14 -3 19 -5 6 -2 16 -5 24 -7 8 -1 18 -5 23 -7 5 -2
15 -5 26 -6 38 -4 55 -13 77 -41 15 -19 20 -22 43 -25 28 -4 55 -21 71 -43 2
-3 9 -9 17 -14 14 -9 51 -47 60 -62 5 -8 15 -17 31 -30 5 -4 10 -10 12 -14 2
-5 7 -12 11 -16 8 -9 18 -26 22 -40 1 -4 4 -11 6 -15 12 -24 20 -70 15 -87 -3
-9 -5 -20 -6 -25 -2 -18 -18 -32 -61 -54 -12 -6 -25 -14 -31 -17 -22 -11 -34
-15 -52 -17 -10 -1 -24 -4 -32 -6 -11 -4 -22 -5 -53 -6 -36 -1 -40 -2 -54 -7
-17 -7 -114 -9 -134 -3 -29 8 -83 19 -103 20 -24 1 -24 1 -52 20 -24 16 -39
24 -59 30 -28 9 -40 21 -43 41 -2 18 -8 26 -37 52 -18 15 -19 17 -26 36 -4 10
-5 12 -16 17 -13 7 -20 14 -26 30 -13 32 -27 51 -51 67 -20 12 -35 36 -43 66
-3 9 -8 20 -16 32 -17 26 -19 28 -31 34 -12 7 -22 20 -26 35 -2 6 -5 16 -8 23
-8 21 -10 29 -8 48 2 33 2 33 53 34 29 1 42 2 60 6 29 6 25 6 44 1z"/>
</g>
</svg>
