<?xml version="1.0" standalone="no"?>
<!DOCTYPE svg PUBLIC "-//W3C//DTD SVG 20010904//EN"
 "http://www.w3.org/TR/2001/REC-SVG-20010904/DTD/svg10.dtd">
<svg version="1.0" xmlns="http://www.w3.org/2000/svg"
 width="344.000000pt" height="590.000000pt" viewBox="0 0 344.000000 590.000000"
 preserveAspectRatio="xMidYMid meet">
<metadata>
Created by potrace 1.16, written by Peter Selinger 2001-2019
</metadata>
<g transform="translate(0.000000,590.000000) scale(0.500000,-0.500000)"
fill="#000000" stroke="none">
<path d="M300 1138 c-6 -2 -14 -14 -18 -23 -1 -3 -4 -22 -5 -41 -2 -19 -4 -41
-6 -49 -2 -8 -4 -21 -5 -29 -1 -8 -3 -19 -5 -23 -2 -4 -3 -14 -3 -21 0 -7 -3
-26 -6 -42 -3 -16 -7 -35 -8 -42 -4 -31 -8 -40 -15 -40 -11 0 -11 0 -8 203 1
109 1 107 -26 107 -22 0 -27 -12 -25 -53 0 -4 1 -26 1 -48 0 -22 1 -79 2 -126
2 -98 1 -107 -7 -115 -8 -9 -16 -8 -18 2 -1 4 -3 15 -5 24 -2 9 -4 29 -5 45
-1 24 -2 30 -7 40 -4 8 -6 18 -8 35 -2 13 -3 25 -4 26 -1 2 -2 33 -3 70 -1 67
-1 67 -6 75 -3 4 -6 10 -7 14 -2 8 -8 11 -24 11 -30 0 -33 -8 -24 -60 2 -10 5
-30 7 -43 2 -13 6 -33 8 -45 2 -12 4 -26 5 -33 1 -7 3 -18 4 -25 2 -7 4 -21 5
-32 1 -10 4 -27 6 -37 2 -10 6 -30 8 -44 2 -14 6 -38 8 -52 3 -15 4 -28 3 -33
-2 -11 -11 -33 -15 -37 -2 -2 -6 -9 -8 -16 -2 -7 -7 -17 -11 -21 -8 -10 -8
-10 -10 -44 0 -18 -2 -30 -4 -34 -4 -9 -4 -47 -1 -55 2 -3 4 -19 5 -36 2 -33
4 -38 24 -61 11 -12 13 -16 14 -32 2 -19 -1 -42 -7 -49 -2 -4 -4 -11 -5 -21
-1 -8 -2 -19 -4 -24 -1 -5 -3 -13 -4 -18 -1 -5 -4 -13 -8 -19 -5 -7 -7 -13 -8
-21 -1 -14 -8 -31 -14 -38 -3 -4 -4 -7 -5 -31 -1 -14 -3 -31 -5 -38 -7 -30 -5
-77 5 -82 17 -9 24 -2 31 29 2 13 6 30 9 38 5 19 6 25 13 53 3 12 9 36 13 53
5 17 10 38 12 47 12 46 17 56 24 48 6 -8 6 -103 0 -119 -6 -16 -7 -131 0 -145
5 -11 11 -14 27 -13 21 2 19 -6 21 167 1 165 0 152 16 157 14 4 17 -4 20 -55
1 -16 3 -37 4 -46 1 -9 2 -35 2 -58 0 -42 0 -43 5 -52 4 -8 5 -12 5 -25 0 -9
1 -18 2 -21 2 -3 3 -18 4 -32 1 -34 2 -36 26 -36 26 0 33 17 23 55 -2 6 -4 24
-6 39 -2 15 -5 37 -6 48 -2 12 -3 25 -2 34 0 8 0 18 -1 22 -1 4 -3 24 -4 43
-2 29 -3 37 -7 46 -7 16 -9 39 -4 54 1 5 2 13 2 16 -1 3 0 10 3 16 2 6 6 15 7
20 10 34 22 31 53 -12 92 -128 102 -142 168 -249 14 -22 28 -43 32 -48 4 -5
14 -20 21 -33 19 -35 20 -36 37 -30 19 7 28 19 23 31 -10 23 -47 85 -59 98 -7
8 -24 31 -37 52 -35 55 -57 86 -125 176 -71 95 -68 91 -68 104 0 23 2 27 20
45 11 12 19 22 25 33 4 8 16 26 26 38 10 12 21 27 24 33 4 6 9 14 12 18 5 7
11 15 24 36 3 5 9 12 12 16 3 4 8 14 11 23 8 19 17 37 23 44 6 8 16 28 18 37
1 4 4 10 7 14 3 4 7 10 9 14 2 4 6 10 9 13 5 7 16 29 21 45 2 6 6 15 9 20 7
11 24 47 24 50 0 2 6 15 13 29 18 37 18 46 -3 56 -24 12 -42 4 -49 -23 0 -3
-10 -25 -21 -47 -11 -23 -22 -48 -25 -55 -11 -28 -36 -81 -58 -121 -7 -13 -14
-28 -15 -32 -2 -8 -7 -15 -39 -66 -11 -17 -23 -35 -26 -41 -3 -5 -8 -12 -12
-16 -4 -4 -11 -14 -17 -23 -21 -33 -26 -27 -37 48 -5 30 -6 32 -30 71 -8 13 1
76 13 91 6 8 6 9 5 22 -2 34 8 114 17 128 8 13 16 93 11 101 -8 9 -20 13 -33
8z m-53 -384 c14 -7 18 -12 20 -22 0 -4 5 -14 9 -23 8 -17 8 -17 8 -60 0 -40
0 -45 4 -53 7 -15 6 -37 -4 -57 -6 -12 -8 -20 -9 -32 -1 -13 -2 -16 -8 -24 -3
-4 -8 -11 -10 -15 -2 -4 -6 -9 -8 -12 -3 -3 -9 -12 -13 -20 -14 -23 -36 -31
-55 -21 -37 21 -65 50 -65 65 0 3 -2 9 -4 13 -9 19 -11 100 -2 113 3 5 5 10 6
23 2 18 5 25 16 39 3 3 6 8 6 11 0 9 4 19 11 27 4 4 8 10 9 14 2 4 7 10 11 14
4 4 10 11 13 16 8 15 42 17 65 4z"/>
</g>
</svg>
