<?xml version="1.0" standalone="no"?>
<!DOCTYPE svg PUBLIC "-//W3C//DTD SVG 20010904//EN"
 "http://www.w3.org/TR/2001/REC-SVG-20010904/DTD/svg10.dtd">
<svg version="1.0" xmlns="http://www.w3.org/2000/svg"
 width="58.000000pt" height="100.000000pt" viewBox="0 0 58.000000 100.000000"
 preserveAspectRatio="xMidYMid meet">
<metadata>
Created by potrace 1.16, written by Peter Selinger 2001-2019
</metadata>
<g transform="translate(0.000000,100.000000) scale(0.100000,-0.100000)"
fill="#000000" stroke="none">
<path d="M43 954 c-3 -10 3 -79 15 -153 26 -162 27 -180 6 -229 -22 -50 -22
-158 0 -199 21 -42 20 -57 -9 -159 -30 -103 -34 -177 -9 -172 13 2 23 29 39
101 32 145 48 149 39 10 -6 -102 -5 -113 11 -119 29 -12 36 16 33 143 -3 116
4 153 21 124 5 -7 11 -64 15 -127 8 -130 12 -146 35 -142 13 3 16 17 14 83 -2
44 -7 109 -13 145 -12 69 -1 125 21 118 7 -2 58 -76 116 -163 102 -157 132
-188 147 -148 6 16 -104 190 -216 341 l-32 42 62 90 c77 110 195 341 190 372
-2 13 -10 24 -20 26 -12 2 -36 -37 -97 -160 -83 -169 -126 -236 -134 -208 -2
8 -11 38 -21 67 -13 40 -14 61 -6 95 22 97 41 219 35 228 -8 14 -32 13 -41 -2
-4 -6 -13 -56 -20 -110 -15 -115 -22 -141 -35 -132 -6 3 -7 52 -3 124 6 108 5
120 -11 126 -31 12 -36 -16 -30 -148 4 -89 3 -128 -5 -133 -18 -11 -20 -3 -31
96 -19 165 -23 183 -42 187 -9 2 -20 -4 -24 -14z m177 -334 c17 -31 23 -132
11 -176 -14 -51 -46 -94 -71 -94 -25 0 -56 42 -64 85 -8 41 13 122 44 173 23
37 63 44 80 12z"/>
</g>
</svg>
