<?xml version="1.0" standalone="no"?>
<!DOCTYPE svg PUBLIC "-//W3C//DTD SVG 20010904//EN"
 "http://www.w3.org/TR/2001/REC-SVG-20010904/DTD/svg10.dtd">
<svg version="1.0" xmlns="http://www.w3.org/2000/svg"
 width="86.000000pt" height="148.000000pt" viewBox="0 0 86.000000 148.000000"
 preserveAspectRatio="xMidYMid meet">
<metadata>
Created by potrace 1.16, written by Peter Selinger 2001-2019
</metadata>
<g transform="translate(0.000000,148.000000) scale(0.100000,-0.100000)"
fill="#000000" stroke="none">
<path d="M78 1423 c-22 -6 -29 -26 -18 -60 12 -38 70 -401 70 -438 0 -16 -12
-50 -26 -75 -24 -41 -27 -56 -28 -156 -1 -105 0 -112 27 -150 29 -43 32 -60
18 -108 -5 -17 -17 -58 -27 -91 -9 -33 -23 -69 -30 -81 -17 -29 -22 -180 -5
-196 17 -17 41 15 41 53 0 16 4 38 9 51 5 13 16 59 26 103 22 102 35 137 49
132 11 -4 11 -13 -3 -216 -5 -88 -4 -107 10 -124 10 -13 22 -18 32 -14 15 6
17 29 17 200 0 152 3 197 14 206 10 8 16 8 24 -1 8 -11 33 -247 36 -357 1 -38
23 -58 51 -47 15 5 17 14 11 64 -3 31 -11 110 -16 175 -5 64 -14 126 -20 136
-12 24 1 101 25 137 l17 26 31 -44 c160 -225 297 -435 297 -454 0 -17 9 -18
45 -4 l26 10 -31 57 c-18 32 -40 67 -50 78 -10 11 -42 58 -73 105 -30 47 -91
134 -136 195 -83 112 -97 149 -65 176 19 16 174 237 174 248 0 7 50 101 88
166 6 11 25 52 42 90 17 39 37 84 45 100 13 28 13 31 -8 47 -12 10 -26 16 -31
15 -11 -4 -13 -7 -53 -97 -107 -236 -243 -475 -267 -467 -6 2 -15 26 -19 53
-5 27 -17 67 -28 89 -23 48 -25 104 -4 131 8 11 14 41 15 74 0 30 10 97 22
149 20 90 20 95 3 107 -34 25 -51 2 -63 -88 -20 -147 -42 -279 -47 -289 -21
-33 -26 4 -25 174 1 100 1 188 1 195 -1 7 -14 12 -32 12 l-32 0 7 -208 c7
-184 5 -210 -9 -222 -22 -19 -28 -8 -37 68 -4 37 -12 87 -17 112 -6 25 -10 82
-11 128 0 59 -5 90 -16 107 -9 14 -19 24 -23 24 -3 -1 -13 -3 -23 -6z m221
-477 c34 -18 48 -62 55 -171 7 -94 -8 -153 -54 -220 -38 -56 -62 -58 -117 -10
-32 27 -42 44 -50 84 -14 69 0 153 37 226 39 76 51 91 75 98 11 2 21 5 23 6 2
0 15 -5 31 -13z"/>
</g>
</svg>
