<?xml version="1.0" standalone="no"?>
<!DOCTYPE svg PUBLIC "-//W3C//DTD SVG 20010904//EN"
 "http://www.w3.org/TR/2001/REC-SVG-20010904/DTD/svg10.dtd">
<svg version="1.0" xmlns="http://www.w3.org/2000/svg"
 width="100.000000pt" height="88.000000pt" viewBox="0 0 100.000000 88.000000"
 preserveAspectRatio="xMidYMid meet">
<metadata>
Created by potrace 1.16, written by Peter Selinger 2001-2019
</metadata>
<g transform="translate(0.000000,88.000000) scale(0.100000,-0.100000)"
fill="#000000" stroke="none">
<path d="M46 841 c-3 -4 3 -59 14 -122 23 -134 24 -185 5 -219 -19 -34 -19
-133 1 -172 18 -35 16 -56 -16 -180 -19 -73 -21 -90 -10 -103 19 -23 29 -7 47
76 15 77 31 118 34 89 0 -8 0 -53 -1 -98 -2 -76 0 -83 17 -80 16 3 18 16 21
121 1 67 7 117 12 117 6 0 10 -6 10 -12 2 -70 21 -213 28 -220 6 -6 18 -8 28
-4 12 5 15 14 11 34 -3 16 -11 76 -18 135 -13 107 -7 140 20 123 6 -4 50 -66
97 -139 48 -73 91 -135 97 -139 16 -10 27 0 27 26 0 21 -100 178 -169 265 -17
21 -31 47 -31 56 0 9 25 52 54 94 65 91 158 277 154 306 -2 11 -11 21 -20 23
-12 2 -34 -32 -87 -140 -99 -202 -109 -211 -131 -118 -10 43 -9 65 10 161 16
77 19 114 12 121 -21 21 -41 0 -47 -49 -3 -26 -11 -73 -17 -103 -11 -53 -11
-54 -20 -25 -5 17 -6 57 -3 90 7 66 0 95 -21 95 -11 0 -14 -25 -14 -125 0 -69
-4 -125 -9 -125 -13 0 -20 35 -27 135 -4 50 -11 96 -17 103 -11 14 -33 16 -41
3z m164 -311 c18 -45 9 -153 -17 -187 -26 -36 -46 -39 -72 -12 -34 37 -22 165
20 216 21 24 56 16 69 -17z"/>
<path d="M530 818 c0 -18 9 -84 20 -146 19 -113 19 -114 0 -163 -23 -58 -25
-143 -5 -179 20 -35 18 -81 -5 -140 -21 -53 -27 -144 -11 -155 13 -7 27 20 35
70 12 68 26 115 35 115 5 0 8 -42 7 -92 -1 -77 2 -93 14 -93 12 0 15 20 18
105 3 116 9 148 22 115 5 -11 9 -40 9 -65 2 -85 14 -152 28 -157 30 -12 34 13
18 122 -18 127 -18 145 -5 165 14 20 39 -10 132 -158 39 -62 74 -115 78 -117
14 -9 40 7 40 24 0 16 -112 186 -177 268 -18 22 -33 50 -33 61 0 11 19 44 41
72 47 59 182 315 176 333 -2 7 -13 12 -25 12 -19 0 -35 -26 -100 -155 -45 -91
-83 -155 -91 -155 -9 0 -20 20 -28 51 -13 46 -13 62 6 165 12 67 17 117 11
123 -19 19 -38 -4 -45 -56 -10 -86 -26 -160 -33 -153 -3 3 -6 52 -6 108 -1 89
-3 102 -18 105 -16 3 -18 -8 -18 -122 0 -173 -22 -167 -36 8 -8 103 -12 116
-34 116 -16 0 -20 -7 -20 -32z m158 -283 c20 -43 15 -145 -8 -183 -29 -47 -48
-51 -78 -17 -21 25 -24 36 -19 85 6 75 39 140 71 140 15 0 27 -9 34 -25z"/>
</g>
</svg>
