<?xml version="1.0" standalone="no"?>
<!DOCTYPE svg PUBLIC "-//W3C//DTD SVG 20010904//EN"
 "http://www.w3.org/TR/2001/REC-SVG-20010904/DTD/svg10.dtd">
<svg version="1.0" xmlns="http://www.w3.org/2000/svg"
 width="168.000000pt" height="148.000000pt" viewBox="0 0 168.000000 148.000000"
 preserveAspectRatio="xMidYMid meet">
<metadata>
Created by potrace 1.16, written by Peter Selinger 2001-2019
</metadata>
<g transform="translate(0.000000,148.000000) scale(0.100000,-0.100000)"
fill="#000000" stroke="none">
<path d="M103 1422 c-13 -2 -23 -9 -23 -16 0 -14 25 -170 70 -436 9 -50 7 -59
-19 -115 -49 -101 -51 -242 -5 -311 26 -38 30 -70 14 -118 -5 -17 -17 -58 -26
-91 -10 -33 -21 -65 -26 -71 -5 -7 -11 -47 -14 -90 -3 -44 -8 -82 -10 -85 -2
-4 3 -12 11 -19 20 -16 45 3 45 35 0 26 56 260 70 293 19 44 32 13 25 -62 -17
-209 -18 -261 -1 -275 9 -7 23 -11 31 -7 13 4 15 35 15 199 0 163 2 197 15
207 10 8 19 10 25 4 5 -5 14 -77 20 -159 17 -234 20 -250 50 -250 23 0 25 3
24 50 0 64 -11 188 -26 291 -12 90 -6 142 20 174 18 22 18 22 87 -76 105 -151
175 -255 175 -261 0 -3 16 -27 35 -52 19 -26 39 -60 44 -74 12 -30 28 -34 55
-14 18 13 18 15 0 43 -69 111 -195 297 -268 394 -47 64 -86 125 -86 137 0 12
13 37 28 55 15 18 34 43 42 54 8 12 34 49 58 83 53 76 144 246 218 409 l35 76
-22 17 c-27 20 -46 15 -55 -14 -30 -101 -228 -472 -291 -546 -7 -9 -14 8 -24
65 -6 32 -19 74 -30 93 -16 28 -19 44 -14 83 4 26 11 50 16 54 5 3 9 31 9 62
0 31 9 90 20 131 11 41 20 87 20 103 0 24 -4 28 -30 28 -34 0 -30 12 -55 -160
-28 -196 -36 -230 -52 -230 -13 0 -14 28 -12 193 l4 192 -30 0 -30 0 4 -205
c3 -181 1 -208 -13 -219 -9 -8 -19 -11 -22 -9 -3 3 -9 37 -14 74 -5 38 -13 92
-19 119 -5 28 -10 87 -10 131 -1 91 -17 124 -58 116z m234 -482 c11 0 33 -75
34 -115 1 -27 6 -66 11 -86 8 -28 7 -42 -6 -67 -9 -17 -16 -38 -16 -47 0 -16
-47 -95 -65 -107 -22 -17 -55 -6 -96 31 l-44 39 0 98 c0 89 3 105 29 156 15
31 41 70 56 87 26 27 31 29 61 21 19 -6 35 -10 36 -10z"/>
<path d="M906 1422 c-22 -5 -20 -19 25 -292 35 -213 35 -223 5 -276 -26 -45
-28 -58 -29 -161 -1 -105 1 -113 26 -150 15 -22 27 -48 27 -58 0 -19 -2 -26
-46 -165 -28 -88 -29 -96 -40 -192 -4 -40 -3 -58 5 -59 6 -1 16 -2 22 -3 7 -1
29 72 54 174 23 96 46 173 51 170 5 -3 7 -82 5 -176 -3 -150 -1 -172 13 -177
43 -17 46 -5 46 203 0 175 2 199 17 204 9 4 20 3 24 -1 4 -4 12 -75 18 -158
17 -227 22 -249 49 -253 12 -2 24 3 27 10 3 7 -4 94 -16 193 -24 205 -25 254
-7 293 26 53 38 41 218 -226 39 -57 70 -105 70 -108 0 -2 16 -27 35 -55 19
-28 35 -55 35 -59 0 -12 28 -20 45 -14 21 8 18 44 -5 74 -11 14 -20 30 -20 36
0 5 -13 23 -30 39 -16 16 -30 33 -30 37 0 13 -93 148 -182 266 -87 114 -93
136 -50 187 69 83 140 192 199 310 6 11 18 34 27 50 9 17 33 64 52 105 20 41
44 91 55 111 24 47 24 46 -11 64 l-30 15 -36 -77 c-112 -239 -161 -334 -215
-414 -33 -49 -64 -87 -69 -84 -5 3 -12 31 -15 63 -4 31 -16 71 -26 88 -23 38
-25 102 -3 132 9 13 14 31 11 41 -6 23 12 153 23 166 4 5 10 35 11 65 3 52 2
55 -22 58 -33 4 -46 -23 -53 -108 -8 -107 -34 -262 -44 -272 -24 -24 -28 10
-24 192 l5 190 -33 0 -33 0 6 -209 c6 -179 4 -211 -8 -221 -9 -7 -18 -10 -22
-6 -12 12 -42 239 -43 319 0 102 -15 130 -64 119z m256 -513 c18 -39 26 -208
13 -268 -4 -19 -23 -57 -42 -83 -27 -37 -41 -48 -62 -48 -37 0 -99 62 -107
108 -10 53 2 180 20 207 9 13 16 29 16 36 0 6 12 28 28 50 25 37 30 39 72 37
41 -3 47 -6 62 -39z"/>
</g>
</svg>
