<?xml version="1.0" standalone="no"?>
<!DOCTYPE svg PUBLIC "-//W3C//DTD SVG 20010904//EN"
 "http://www.w3.org/TR/2001/REC-SVG-20010904/DTD/svg10.dtd">
<svg version="1.0" xmlns="http://www.w3.org/2000/svg"
 width="53.000000pt" height="100.000000pt" viewBox="0 0 53.000000 100.000000"
 preserveAspectRatio="xMidYMid meet">
<metadata>
Created by potrace 1.16, written by Peter Selinger 2001-2019
</metadata>
<g transform="translate(0.000000,100.000000) scale(0.100000,-0.100000)"
fill="#000000" stroke="none">
<path d="M140 965 c-10 -12 -11 -45 -6 -140 4 -81 3 -125 -3 -125 -16 0 -20
13 -36 121 -23 148 -23 149 -46 149 -11 0 -22 -6 -25 -13 -2 -7 9 -77 25 -155
l30 -143 -19 -42 c-14 -30 -20 -65 -20 -122 0 -80 3 -90 51 -156 10 -13 7 -29
-13 -80 -35 -88 -62 -194 -55 -213 14 -37 37 -15 57 57 39 133 44 135 50 22 4
-84 8 -100 22 -103 16 -3 18 10 20 135 3 115 6 138 18 138 11 0 19 -27 32
-115 23 -154 25 -160 49 -160 11 0 22 6 25 14 3 8 -8 83 -24 166 l-30 151 19
44 c11 24 23 47 28 49 15 10 91 -54 121 -101 35 -54 39 -118 15 -218 -12 -51
-12 -62 0 -74 18 -19 43 -7 56 26 7 16 12 75 13 133 1 84 -3 112 -17 138 -31
56 -83 107 -136 132 -28 13 -51 27 -51 31 0 5 25 24 55 43 64 42 121 121 133
186 11 59 -4 210 -22 228 -8 8 -22 12 -32 8 -15 -6 -16 -15 -8 -74 15 -122 11
-163 -23 -213 -43 -61 -88 -102 -108 -97 -10 1 -27 15 -39 31 l-20 28 28 137
c37 184 37 177 1 177 l-30 0 -12 -103 c-15 -128 -22 -162 -34 -162 -5 0 -8 56
-7 137 3 138 -3 163 -32 128z m66 -369 c30 -30 34 -40 34 -86 0 -60 -23 -115
-56 -137 -22 -14 -26 -14 -50 2 -62 40 -72 176 -18 236 25 28 52 23 90 -15z"/>
<path d="M130 541 c-16 -31 -12 -77 10 -102 20 -24 20 -24 35 -5 15 20 20 81
9 110 -8 22 -41 20 -54 -3z"/>
</g>
</svg>
