<?xml version="1.0" standalone="no"?>
<!DOCTYPE svg PUBLIC "-//W3C//DTD SVG 20010904//EN"
 "http://www.w3.org/TR/2001/REC-SVG-20010904/DTD/svg10.dtd">
<svg version="1.0" xmlns="http://www.w3.org/2000/svg"
 width="80.000000pt" height="152.000000pt" viewBox="0 0 80.000000 152.000000"
 preserveAspectRatio="xMidYMid meet">
<metadata>
Created by potrace 1.16, written by Peter Selinger 2001-2019
</metadata>
<g transform="translate(0.000000,152.000000) scale(0.100000,-0.100000)"
fill="#000000" stroke="none">
<path d="M207 1451 c-13 -25 -14 -56 -6 -193 12 -228 12 -220 -8 -216 -17 3
-32 70 -68 303 -16 106 -30 131 -64 120 -30 -9 -28 -35 23 -278 37 -182 41
-209 28 -220 -31 -26 -51 -109 -56 -235 -3 -73 12 -116 61 -173 24 -28 42 -57
40 -63 -2 -6 -12 -35 -21 -63 -10 -29 -22 -55 -27 -58 -5 -4 -9 -16 -9 -28 0
-11 -16 -70 -36 -130 -42 -130 -42 -162 0 -162 26 0 30 5 43 50 7 28 18 64 23
80 16 52 31 109 39 145 5 19 14 48 20 64 17 42 32 21 22 -29 -5 -22 -12 -104
-16 -182 -6 -138 -6 -141 15 -148 46 -15 50 3 50 214 0 151 3 202 14 216 13
18 14 18 23 -1 14 -25 25 -86 28 -156 2 -31 8 -65 14 -75 5 -11 16 -59 23
-107 11 -76 15 -87 34 -92 13 -3 28 -3 33 1 13 8 14 75 2 124 -5 20 -15 68
-21 106 -6 39 -21 118 -32 178 -19 98 -19 109 -5 125 8 9 24 39 34 67 10 27
25 51 33 53 8 1 28 -9 44 -23 16 -14 33 -25 37 -25 21 0 81 -67 114 -126 33
-59 36 -70 34 -137 -3 -99 -18 -220 -30 -232 -18 -18 -10 -55 16 -67 58 -26
89 66 88 264 l-1 137 -38 63 c-41 68 -108 139 -152 161 -15 7 -36 19 -47 25
-11 7 -32 16 -47 22 -39 14 -37 45 5 67 19 10 54 29 79 42 29 15 56 41 78 75
18 28 41 63 51 78 31 45 59 140 59 198 0 46 -11 123 -36 248 -6 28 -49 31 -63
4 -10 -19 -2 -104 18 -195 10 -44 2 -132 -16 -177 -6 -14 -26 -44 -44 -67 -19
-23 -42 -53 -51 -66 -23 -34 -104 -80 -122 -70 -7 4 -30 29 -49 55 l-35 46 18
84 c53 246 71 342 68 371 -3 30 -5 32 -38 29 -19 -2 -36 -5 -38 -7 -2 -1 -7
-38 -12 -81 -32 -277 -47 -355 -69 -362 -10 -3 -11 14 -7 74 4 44 7 147 9 229
2 147 2 150 -19 153 -16 2 -26 -5 -37 -27z m82 -521 c58 -50 71 -77 71 -155 0
-93 -14 -138 -57 -186 -47 -51 -79 -52 -127 -3 -40 41 -67 120 -59 174 14 105
25 141 54 170 39 38 74 38 118 0z"/>
<path d="M215 852 c-34 -24 -46 -131 -20 -181 42 -83 99 -22 88 95 -7 79 -33
112 -68 86z"/>
</g>
</svg>
