<?xml version="1.0" standalone="no"?>
<!DOCTYPE svg PUBLIC "-//W3C//DTD SVG 20010904//EN"
 "http://www.w3.org/TR/2001/REC-SVG-20010904/DTD/svg10.dtd">
<svg version="1.0" xmlns="http://www.w3.org/2000/svg"
 width="316.000000pt" height="606.000000pt" viewBox="0 0 316.000000 606.000000"
 preserveAspectRatio="xMidYMid meet">
<metadata>
Created by potrace 1.16, written by Peter Selinger 2001-2019
</metadata>
<g transform="translate(0.000000,606.000000) scale(0.500000,-0.500000)"
fill="#000000" stroke="none">
<path d="M513 1179 c-17 -7 -23 -31 -15 -55 2 -5 2 -8 0 -15 -2 -8 -2 -11 3
-29 3 -12 6 -26 7 -33 2 -14 5 -32 9 -46 4 -13 4 -38 0 -49 -2 -5 -3 -16 -3
-28 0 -16 -1 -21 -5 -29 -2 -6 -6 -14 -7 -18 -7 -20 -26 -50 -43 -67 -6 -6
-14 -16 -17 -23 -10 -18 -28 -38 -45 -47 -8 -5 -16 -10 -18 -12 -4 -4 -29 -17
-37 -19 -7 -2 -21 8 -27 19 -3 6 -10 16 -17 23 -7 7 -12 14 -12 15 0 1 -4 6
-8 11 -6 7 -8 11 -8 17 0 10 6 45 9 57 2 5 3 12 3 15 0 3 1 9 3 14 2 5 3 12 3
15 0 4 1 10 3 14 2 4 3 10 3 14 0 4 1 10 3 15 2 5 3 11 3 14 0 3 1 10 3 15 1
6 4 15 5 22 1 7 3 18 5 25 1 7 4 20 6 28 2 14 4 22 9 44 2 5 3 14 4 20 1 6 2
13 4 16 3 6 3 44 -1 50 -7 10 -61 5 -64 -6 -4 -21 -6 -31 -7 -58 -1 -17 -2
-34 -4 -37 -1 -3 -2 -11 -2 -19 0 -11 -1 -15 -6 -21 -5 -8 -5 -9 -6 -43 -1
-19 -3 -40 -4 -46 -1 -6 -4 -18 -5 -26 -2 -8 -4 -21 -6 -28 -2 -8 -3 -15 -3
-17 0 -2 -1 -8 -3 -12 -2 -4 -3 -11 -3 -15 0 -10 -8 -22 -11 -17 -4 7 -4 93 0
105 3 10 7 229 4 241 -4 17 -46 11 -48 -7 -1 -7 -3 -12 -6 -15 -6 -7 -8 -114
-2 -132 2 -6 3 -12 2 -20 -1 -7 -1 -16 -1 -20 2 -72 1 -142 -2 -143 -7 -1 -14
8 -16 22 -1 7 -3 16 -4 19 -1 3 -2 8 -2 12 0 4 -1 10 -3 15 -2 5 -3 13 -3 18
0 5 -1 13 -3 18 -2 5 -3 11 -3 15 0 3 -1 10 -3 16 -6 22 -8 30 -13 74 -2 20
-4 32 -8 49 -1 6 -3 16 -4 23 -5 39 -17 59 -33 55 -5 -1 -12 -2 -15 -2 -14 0
-19 -34 -10 -68 3 -13 6 -25 9 -42 2 -8 5 -21 6 -29 6 -26 9 -42 11 -55 1 -7
4 -20 5 -28 2 -8 5 -22 6 -30 2 -8 4 -19 5 -24 2 -5 3 -14 4 -20 1 -6 3 -14 4
-17 1 -3 2 -8 2 -12 0 -4 1 -9 2 -12 2 -2 3 -10 4 -18 1 -8 3 -17 3 -22 1 -6
0 -8 -6 -16 -27 -34 -33 -52 -39 -121 -1 -13 -3 -26 -4 -30 -6 -18 0 -95 8
-120 9 -27 16 -38 48 -73 19 -21 21 -25 17 -37 -2 -5 -3 -10 -3 -13 0 -4 -7
-25 -14 -39 -2 -5 -4 -11 -4 -14 0 -5 -8 -22 -14 -30 -3 -3 -4 -8 -4 -14 0 -6
-1 -14 -3 -18 -1 -5 -3 -13 -4 -17 -1 -4 -3 -12 -6 -17 -2 -5 -5 -13 -6 -17
-2 -10 -9 -34 -25 -82 -14 -42 -17 -76 -8 -85 9 -9 46 -4 46 6 0 2 1 8 3 12 1
5 5 16 7 24 3 8 8 21 11 29 4 7 7 18 8 25 1 6 5 22 9 35 5 13 8 25 8 27 0 2 5
20 12 40 6 19 12 38 13 42 2 11 9 23 11 20 3 -5 2 -38 -1 -48 -2 -7 -3 -33 -3
-116 -1 -124 -4 -112 24 -112 25 0 24 -1 24 41 0 27 1 37 3 44 3 9 3 18 2 78
-1 58 -1 69 2 78 2 7 3 20 3 48 0 45 7 66 18 51 2 -2 5 -7 8 -11 5 -5 6 -9 7
-23 1 -10 3 -20 6 -27 5 -11 5 -14 5 -43 0 -17 1 -34 2 -38 1 -4 3 -15 4 -24
1 -14 2 -19 6 -22 7 -9 11 -23 16 -72 1 -8 3 -18 4 -21 1 -3 2 -10 2 -16 1
-37 17 -52 48 -44 15 4 16 61 2 102 -2 3 -3 18 -4 33 -1 23 -2 28 -6 37 -4 6
-6 15 -7 24 -1 7 -2 15 -3 17 -1 2 -3 11 -3 20 -1 10 -3 21 -4 26 -2 4 -3 12
-3 17 0 5 -1 12 -3 17 -2 5 -3 12 -3 17 0 5 -1 12 -3 17 -2 5 -3 12 -3 17 0 5
-3 17 -6 27 -9 26 -8 35 2 47 8 10 22 35 22 41 0 2 3 7 6 12 3 5 6 11 6 14 0
35 28 39 62 8 5 -4 13 -9 17 -10 19 -5 81 -67 81 -80 0 -4 11 -23 17 -31 4 -4
7 -9 7 -11 0 -1 2 -7 5 -11 3 -4 6 -11 7 -15 1 -4 3 -12 5 -19 4 -16 4 -58 0
-73 -2 -8 -3 -28 -4 -56 -1 -44 -2 -45 -7 -58 -4 -8 -6 -17 -6 -22 0 -11 -4
-22 -11 -31 -12 -16 -7 -31 13 -41 27 -15 47 -3 56 31 1 4 4 17 7 27 6 23 9
38 11 58 1 8 3 18 4 21 3 9 3 92 -1 103 -2 6 -3 17 -3 39 0 36 -3 50 -15 64
-7 9 -15 24 -15 29 0 4 -17 28 -25 36 -4 4 -10 11 -13 16 -17 25 -56 59 -84
73 -5 2 -16 9 -25 15 -17 11 -52 28 -59 28 -31 0 0 47 31 48 7 0 13 5 18 13 3
6 6 8 14 11 6 2 14 6 18 9 4 4 12 8 16 9 10 2 19 9 19 13 0 4 8 13 16 17 6 2
7 5 9 12 1 5 5 13 8 17 3 4 5 9 5 10 0 1 2 4 4 6 2 2 6 9 7 15 2 7 6 14 13 21
12 13 22 31 22 38 0 4 2 10 4 14 2 4 4 9 4 10 0 2 4 10 9 20 9 17 13 107 7
137 -4 21 -8 41 -10 53 -1 7 -2 14 -3 14 -2 4 -7 32 -9 46 -5 41 -16 51 -43
38z m-311 -417 c9 -3 16 -7 25 -15 6 -6 12 -11 13 -11 6 0 31 -30 36 -44 11
-27 16 -72 12 -92 -1 -6 -3 -19 -4 -29 -1 -10 -3 -21 -4 -25 -12 -43 -15 -50
-42 -77 -35 -35 -76 -33 -101 5 -3 4 -9 12 -13 17 -9 11 -13 20 -22 56 -9 35
-9 38 -5 51 2 7 3 20 3 30 0 11 1 23 2 28 1 5 3 15 4 21 1 7 3 15 4 16 1 2 2
8 3 12 7 42 51 70 89 57z"/>
<path d="M170 683 c-4 -5 -9 -13 -12 -20 -2 -7 -6 -15 -9 -19 -3 -6 -4 -11 -5
-34 0 -25 0 -33 6 -60 9 -42 51 -58 63 -24 2 5 6 12 8 15 11 15 14 37 8 55 -2
6 -3 16 -3 34 0 49 -31 78 -56 53z"/>
</g>
</svg>
