<?xml version="1.0" standalone="no"?>
<!DOCTYPE svg PUBLIC "-//W3C//DTD SVG 20010904//EN"
 "http://www.w3.org/TR/2001/REC-SVG-20010904/DTD/svg10.dtd">
<svg version="1.0" xmlns="http://www.w3.org/2000/svg"
 width="82.000000pt" height="148.000000pt" viewBox="0 0 82.000000 148.000000"
 preserveAspectRatio="xMidYMid meet">
<metadata>
Created by potrace 1.16, written by Peter Selinger 2001-2019
</metadata>
<g transform="translate(0.000000,148.000000) scale(0.100000,-0.100000)"
fill="#000000" stroke="none">
<path d="M340 1396 c-8 -16 -11 -44 -7 -78 4 -46 -4 -195 -18 -322 -5 -43 -20
-66 -34 -50 -5 5 -12 81 -15 169 -10 252 -12 265 -27 281 -13 12 -18 12 -34 1
-18 -14 -18 -19 0 -216 14 -151 16 -204 7 -213 -14 -14 -12 -25 -61 216 -23
109 -44 203 -47 207 -9 15 -54 10 -60 -6 -3 -8 1 -36 9 -62 8 -26 18 -59 20
-73 3 -14 15 -60 26 -104 12 -43 21 -98 21 -122 0 -23 5 -46 10 -49 14 -9 12
-71 -3 -98 -6 -12 -24 -38 -39 -57 -34 -46 -48 -159 -27 -223 7 -23 16 -44 19
-47 3 -3 14 -16 23 -30 19 -27 23 -115 7 -125 -5 -3 -10 -30 -10 -60 0 -32 -6
-59 -14 -67 -12 -13 -24 -84 -29 -178 -2 -34 -1 -35 33 -35 l35 0 2 55 c2 30
12 102 24 160 11 58 23 115 25 128 2 12 8 22 13 22 16 0 21 -44 21 -196 0
-140 1 -152 19 -157 42 -11 45 3 31 141 -12 123 -9 177 9 156 17 -19 34 -102
36 -169 1 -82 25 -145 53 -145 27 0 45 25 39 52 -4 13 -18 77 -32 143 -15 66
-30 124 -35 130 -4 5 -11 29 -15 53 -6 35 -3 49 19 87 18 30 31 42 41 39 8 -4
15 -11 15 -16 0 -5 9 -22 19 -37 19 -26 51 -83 98 -170 12 -25 23 -52 23 -62
0 -17 27 -39 48 -39 9 0 48 55 61 85 2 5 33 52 68 103 64 96 75 130 48 152
-12 10 -21 5 -50 -27 -19 -21 -42 -54 -51 -73 -27 -58 -68 -120 -80 -120 -6 0
-26 30 -44 68 -54 111 -87 170 -104 187 -24 25 -30 78 -12 114 9 17 21 31 26
31 6 0 10 9 10 19 0 11 5 23 11 26 5 4 14 17 20 28 5 12 13 29 18 37 15 23 61
128 61 138 0 5 11 19 25 32 l24 23 10 -25 c5 -14 13 -43 17 -64 4 -21 19 -68
34 -104 22 -54 31 -65 50 -65 30 0 48 46 31 78 -16 32 -97 228 -105 255 -4 12
-17 27 -29 33 -18 10 -24 8 -43 -17 -12 -16 -58 -99 -102 -184 -44 -85 -84
-156 -89 -157 -20 -7 -35 66 -24 120 13 63 31 220 40 342 4 50 10 96 14 102
12 20 -11 53 -37 53 -14 0 -28 -9 -36 -24z m-56 -528 c9 -12 16 -32 16 -43 0
-11 8 -32 17 -45 24 -34 24 -136 1 -173 -10 -14 -18 -34 -18 -43 0 -10 -11
-32 -26 -51 -45 -59 -94 -36 -129 62 -10 28 -22 54 -27 60 -11 13 -10 73 2 80
5 3 10 13 10 22 0 22 32 93 42 93 4 0 8 8 8 18 0 45 76 60 104 20z"/>
</g>
</svg>
