<?xml version="1.0" standalone="no"?>
<!DOCTYPE svg PUBLIC "-//W3C//DTD SVG 20010904//EN"
 "http://www.w3.org/TR/2001/REC-SVG-20010904/DTD/svg10.dtd">
<svg version="1.0" xmlns="http://www.w3.org/2000/svg"
 width="55.000000pt" height="100.000000pt" viewBox="0 0 55.000000 100.000000"
 preserveAspectRatio="xMidYMid meet">
<metadata>
Created by potrace 1.16, written by Peter Selinger 2001-2019
</metadata>
<g transform="translate(0.000000,100.000000) scale(0.100000,-0.100000)"
fill="#000000" stroke="none">
<path d="M232 953 c-5 -10 -12 -80 -14 -155 -3 -76 -8 -141 -11 -145 -16 -16
-22 17 -27 147 -5 142 -15 179 -42 152 -9 -9 -9 -41 0 -144 6 -72 10 -134 7
-136 -8 -8 -24 47 -48 161 -20 100 -25 112 -45 115 -29 4 -29 -18 2 -148 42
-170 42 -184 11 -231 -41 -63 -44 -130 -10 -203 l27 -57 -21 -87 c-11 -48 -22
-109 -23 -137 -3 -47 -2 -50 22 -50 21 0 25 5 28 35 2 38 20 144 28 173 13 44
24 8 26 -90 2 -88 6 -108 18 -108 12 0 15 15 13 88 -1 48 2 87 6 87 13 0 20
-24 27 -95 4 -36 12 -72 19 -82 15 -21 45 -10 45 16 0 23 -24 126 -46 196 -12
39 -13 56 -5 78 18 47 41 29 94 -73 64 -123 72 -124 149 -10 60 90 74 140 39
140 -21 0 -46 -30 -80 -97 -12 -24 -27 -43 -34 -43 -6 0 -36 47 -66 105 l-54
105 35 57 c20 32 46 81 58 110 36 85 45 85 70 1 12 -40 28 -79 35 -87 18 -18
45 -7 45 19 0 28 -67 201 -85 219 -24 25 -44 3 -102 -114 -32 -63 -61 -115
-65 -115 -17 0 -18 48 -3 151 9 61 17 145 18 187 2 64 -1 77 -15 80 -9 2 -21
-5 -26 -15z m-34 -387 c8 -15 16 -53 19 -85 4 -45 0 -65 -19 -101 -40 -79 -75
-64 -108 47 -12 39 -11 46 18 108 27 56 35 66 54 63 13 -2 29 -15 36 -32z"/>
</g>
</svg>
