<?xml version="1.0" standalone="no"?>
<!DOCTYPE svg PUBLIC "-//W3C//DTD SVG 20010904//EN"
 "http://www.w3.org/TR/2001/REC-SVG-20010904/DTD/svg10.dtd">
<svg version="1.0" xmlns="http://www.w3.org/2000/svg"
 width="330.000000pt" height="590.000000pt" viewBox="0 0 330.000000 590.000000"
 preserveAspectRatio="xMidYMid meet">
<metadata>
Created by potrace 1.16, written by Peter Selinger 2001-2019
</metadata>
<g transform="translate(0.000000,590.000000) scale(0.500000,-0.500000)"
fill="#000000" stroke="none">
<path d="M294 1134 c-21 -15 -22 -19 -23 -98 0 -39 -1 -80 -3 -92 -1 -12 -3
-35 -4 -53 -3 -46 -6 -69 -9 -78 -2 -4 -3 -13 -3 -19 1 -33 -21 -54 -25 -23 0
4 -2 21 -4 36 -3 22 -4 43 -4 99 0 64 0 71 -4 76 -2 4 -3 9 -3 20 0 9 -1 20
-3 25 -4 13 -4 27 0 39 3 9 4 11 1 16 -1 4 -3 11 -5 17 -8 33 -38 32 -50 -2
-3 -9 -3 -12 1 -47 2 -20 5 -47 6 -59 1 -12 3 -38 5 -57 2 -19 5 -54 7 -78 6
-63 5 -80 -2 -80 -6 0 -15 34 -36 129 -2 11 -6 27 -8 35 -2 8 -6 24 -8 35 -2
11 -6 27 -8 35 -2 9 -4 18 -4 21 0 3 -2 12 -4 20 -2 7 -6 22 -8 32 -7 31 -9
33 -32 33 -30 0 -36 -17 -19 -53 7 -14 8 -16 9 -43 2 -28 2 -29 9 -39 8 -12
19 -47 19 -64 0 -5 1 -13 3 -16 8 -15 13 -40 13 -67 0 -40 2 -50 10 -61 14
-17 13 -48 0 -65 -5 -5 -9 -12 -9 -16 -2 -9 -4 -13 -12 -22 -3 -4 -8 -10 -9
-14 -2 -3 -7 -8 -12 -10 -9 -5 -10 -6 -12 -32 -1 -15 -3 -24 -6 -31 -8 -17 -8
-73 0 -93 3 -8 6 -19 7 -25 2 -14 6 -20 16 -27 7 -5 9 -8 11 -14 1 -4 5 -11 9
-16 10 -12 14 -85 4 -91 -13 -7 -12 -5 -13 -49 -1 -46 -2 -49 -15 -56 -10 -6
-11 -9 -11 -47 0 -38 0 -40 -9 -72 -6 -26 -6 -31 0 -37 9 -9 14 -10 34 -10 28
0 27 -2 27 50 0 34 1 45 4 58 2 8 5 24 8 35 15 68 32 139 35 143 9 12 10 -5
15 -241 0 -30 5 -35 29 -36 21 0 30 48 18 96 -5 19 -9 126 -5 134 6 13 13 2
20 -31 1 -5 4 -20 7 -33 8 -37 9 -39 7 -78 -1 -41 1 -48 10 -53 5 -3 6 -5 7
-15 2 -21 10 -29 27 -29 29 0 44 20 32 44 -5 10 -22 75 -23 92 -1 7 -3 16 -5
20 -3 5 -4 15 -5 30 -1 14 -3 25 -5 29 -1 3 -3 11 -4 18 -1 8 -3 15 -8 21 -7
10 -18 54 -18 70 0 10 7 27 17 39 4 5 8 11 10 14 2 6 17 21 20 21 6 0 13 -7
15 -15 1 -4 3 -10 5 -12 9 -16 15 -25 23 -33 4 -5 14 -21 22 -37 7 -14 17 -32
21 -38 17 -25 41 -75 41 -85 0 -7 12 -29 16 -31 25 -6 46 0 49 15 1 5 5 12 11
19 6 7 15 21 20 32 6 11 15 26 21 34 6 8 14 19 17 26 10 19 25 40 33 46 4 3 8
9 10 15 2 5 6 14 10 19 11 17 11 47 -1 56 -15 11 -30 4 -46 -20 -3 -4 -8 -11
-12 -15 -11 -11 -19 -25 -36 -59 -10 -20 -20 -37 -26 -44 -5 -7 -12 -17 -15
-23 -11 -20 -16 -16 -47 43 -18 31 -20 36 -20 42 0 7 -8 17 -12 17 -1 0 -5 6
-9 13 -4 8 -11 19 -14 24 -5 7 -8 14 -9 21 -2 14 -4 19 -15 26 -9 6 -16 16
-19 28 -1 4 -4 12 -6 16 -9 19 5 59 23 69 10 6 17 16 17 25 0 11 2 16 9 20 5
2 7 6 8 10 2 11 11 30 15 31 7 2 12 11 12 21 0 8 1 11 7 18 8 11 27 48 27 53
0 2 2 9 5 14 3 6 5 11 5 12 0 2 4 7 9 13 5 6 9 11 9 12 0 2 14 10 18 10 4 0
14 -24 14 -35 0 -5 2 -14 4 -18 2 -5 4 -14 5 -20 1 -7 4 -17 8 -25 4 -8 8 -18
9 -23 1 -6 5 -13 8 -18 5 -5 7 -10 8 -20 4 -35 51 -56 57 -25 1 3 4 10 6 15 6
13 6 16 -10 53 -6 15 -14 32 -16 38 -2 6 -11 27 -19 46 -8 19 -22 54 -31 77
-19 47 -19 47 -35 53 -21 8 -28 5 -43 -20 -5 -8 -12 -18 -14 -21 -3 -3 -5 -8
-6 -13 -1 -7 -29 -62 -74 -145 -12 -22 -25 -46 -28 -53 -25 -47 -25 -47 -37
-11 -10 29 -12 41 -6 53 2 6 4 17 6 37 1 15 3 33 4 39 1 6 3 29 5 50 4 55 8
85 13 95 4 7 5 13 6 65 1 50 2 59 6 70 13 42 -10 77 -38 58z m-74 -425 c6 -2
7 -3 10 -11 3 -10 3 -11 11 -22 5 -7 6 -11 7 -24 1 -15 2 -18 8 -26 6 -8 8
-12 9 -22 1 -7 3 -16 5 -19 4 -8 4 -53 -1 -62 -1 -4 -3 -10 -4 -15 -2 -16 -3
-17 -10 -26 -6 -7 -7 -9 -8 -25 -1 -17 -2 -18 -11 -28 -5 -5 -13 -16 -19 -22
-15 -20 -42 -25 -59 -11 -12 11 -23 26 -25 33 -1 4 -7 19 -13 32 -6 13 -12 28
-13 32 -1 6 -3 10 -8 14 -13 11 -11 55 4 70 2 4 4 9 5 20 1 13 2 16 8 23 5 5
8 10 9 17 1 13 6 20 15 26 8 5 9 7 11 21 2 15 10 23 24 26 10 2 37 2 45 -1z"/>
</g>
</svg>
