<?xml version="1.0" standalone="no"?>
<!DOCTYPE svg PUBLIC "-//W3C//DTD SVG 20010904//EN"
 "http://www.w3.org/TR/2001/REC-SVG-20010904/DTD/svg10.dtd">
<svg version="1.0" xmlns="http://www.w3.org/2000/svg"
 width="354.000000pt" height="590.000000pt" viewBox="0 0 354.000000 590.000000"
 preserveAspectRatio="xMidYMid meet">
<metadata>
Created by potrace 1.16, written by Peter Selinger 2001-2019
</metadata>
<g transform="translate(0.000000,590.000000) scale(0.500000,-0.500000)"
fill="#000000" stroke="none">
<path d="M604 982 c-10 -9 -14 -27 -14 -57 0 -26 0 -26 -13 -54 -7 -15 -14
-31 -15 -35 -4 -14 -20 -34 -31 -40 -9 -4 -11 -6 -14 -13 -4 -10 -11 -17 -17
-17 -4 0 -10 -7 -14 -14 -2 -6 -2 -6 -26 -20 -8 -5 -17 -10 -19 -12 -5 -5 -50
-18 -62 -19 -7 0 -18 14 -20 27 -1 4 -5 13 -8 21 -5 10 -7 16 -7 24 0 14 -4
23 -12 29 -4 3 -12 10 -18 16 -6 7 -14 13 -18 15 -5 2 -12 6 -16 9 -31 25 -86
29 -124 9 -31 -16 -83 -83 -92 -119 -1 -5 -3 -12 -5 -16 -1 -4 -3 -11 -4 -15
0 -4 -3 -10 -6 -13 -4 -4 -5 -7 -5 -16 0 -7 -2 -17 -4 -24 -5 -17 -6 -95 -1
-107 1 -4 4 -12 5 -18 1 -6 4 -14 6 -17 2 -3 5 -9 5 -13 2 -11 10 -38 15 -46
2 -5 4 -9 4 -10 0 -3 21 -35 29 -44 3 -4 9 -12 12 -16 6 -11 18 -21 31 -29 6
-3 16 -10 23 -16 9 -8 14 -10 21 -11 5 -1 12 -3 17 -4 21 -8 48 -1 57 16 3 6
8 12 12 14 12 7 46 42 51 54 3 5 8 13 10 17 6 7 23 43 23 48 0 1 2 6 5 10 3 5
6 13 7 18 2 12 6 19 13 22 20 7 24 8 31 5 4 -1 11 -3 15 -4 10 -1 36 -12 41
-16 2 -1 10 -6 19 -11 19 -10 22 -13 26 -21 2 -5 6 -8 14 -12 8 -4 11 -7 14
-13 5 -12 6 -13 16 -18 10 -5 26 -25 28 -36 1 -3 6 -15 12 -28 12 -24 16 -34
18 -42 3 -15 54 -22 66 -9 10 10 7 32 -6 58 -6 11 -13 27 -16 35 -6 17 -21 46
-29 56 -3 4 -7 10 -10 14 -12 21 -77 74 -90 74 -1 0 -7 4 -13 8 -13 8 -26 13
-45 16 -6 1 -20 6 -31 11 -19 9 -21 10 -41 11 -17 1 -21 2 -23 5 -6 8 -2 20 8
23 5 1 11 5 15 9 8 8 31 19 40 19 4 0 11 2 15 3 4 2 12 4 16 6 5 1 12 5 15 8
4 2 11 6 15 8 23 10 80 56 91 75 2 5 7 12 10 16 7 7 24 41 28 53 1 4 7 18 14
31 12 25 17 76 9 102 -2 6 -3 13 -3 16 0 16 -37 26 -50 14z m-370 -190 c35
-19 69 -72 77 -121 1 -9 4 -19 6 -23 5 -12 4 -92 -1 -106 -2 -6 -4 -16 -5 -21
-3 -25 -24 -70 -39 -85 -5 -5 -11 -13 -14 -17 -17 -34 -78 -28 -104 9 -14 20
-34 58 -34 66 0 3 -2 10 -4 16 -2 6 -4 12 -4 15 0 3 -2 9 -4 15 -6 15 -6 98 0
112 2 5 4 12 4 16 0 18 19 65 30 72 3 2 7 8 9 14 12 34 54 53 83 38z"/>
<path d="M198 681 c-11 -5 -28 -29 -28 -42 0 -3 -2 -10 -4 -16 -3 -10 -4 -17
-4 -37 0 -20 1 -28 4 -38 2 -7 4 -15 4 -17 0 -54 67 -52 75 2 1 5 3 12 4 15 4
8 4 66 0 74 -1 3 -3 10 -4 15 -4 30 -27 51 -47 44z"/>
</g>
</svg>
