<?xml version="1.0" standalone="no"?>
<!DOCTYPE svg PUBLIC "-//W3C//DTD SVG 20010904//EN"
 "http://www.w3.org/TR/2001/REC-SVG-20010904/DTD/svg10.dtd">
<svg version="1.0" xmlns="http://www.w3.org/2000/svg"
 width="59.000000pt" height="100.000000pt" viewBox="0 0 59.000000 100.000000"
 preserveAspectRatio="xMidYMid meet">
<metadata>
Created by potrace 1.16, written by Peter Selinger 2001-2019
</metadata>
<g transform="translate(0.000000,100.000000) scale(0.100000,-0.100000)"
fill="#000000" stroke="none">
<path d="M496 832 c-3 -5 -8 -29 -12 -53 -9 -61 -26 -90 -79 -137 -72 -63 -95
-63 -117 3 -8 25 -25 48 -47 62 -98 66 -199 -24 -209 -187 -4 -63 0 -85 17
-127 25 -57 83 -119 122 -128 37 -9 82 32 119 111 36 75 46 78 113 33 51 -33
82 -71 98 -118 11 -30 40 -48 59 -36 37 23 -34 159 -104 200 -23 13 -62 29
-88 36 -52 12 -63 34 -25 48 117 45 142 67 183 156 26 54 31 114 12 133 -14
14 -35 16 -42 4z m-278 -184 c51 -56 62 -175 21 -253 -31 -62 -59 -73 -98 -39
-39 33 -54 81 -49 164 6 119 72 185 126 128z"/>
<path d="M150 561 c-17 -32 -12 -117 7 -136 16 -16 18 -16 35 5 22 28 24 97 2
128 -19 27 -30 28 -44 3z"/>
</g>
</svg>
