<?xml version="1.0" standalone="no"?>
<!DOCTYPE svg PUBLIC "-//W3C//DTD SVG 20010904//EN"
 "http://www.w3.org/TR/2001/REC-SVG-20010904/DTD/svg10.dtd">
<svg version="1.0" xmlns="http://www.w3.org/2000/svg"
 width="88.000000pt" height="148.000000pt" viewBox="0 0 88.000000 148.000000"
 preserveAspectRatio="xMidYMid meet">
<metadata>
Created by potrace 1.16, written by Peter Selinger 2001-2019
</metadata>
<g transform="translate(0.000000,148.000000) scale(0.100000,-0.100000)"
fill="#000000" stroke="none">
<path d="M740 1211 c-5 -11 -10 -38 -10 -61 0 -48 -53 -160 -75 -160 -8 0 -15
-6 -15 -12 -1 -19 -83 -78 -131 -94 -45 -16 -69 -7 -69 27 0 10 -4 21 -10 24
-5 3 -10 17 -10 30 0 29 -62 84 -115 104 -120 43 -243 -98 -262 -300 -14 -156
93 -345 212 -375 31 -8 65 4 65 22 0 8 4 14 9 14 28 0 131 154 131 196 0 26
35 35 81 19 83 -30 169 -112 208 -199 29 -63 32 -66 66 -66 30 0 35 3 35 24 0
38 -64 169 -103 212 -47 51 -171 113 -239 119 -16 1 -32 3 -38 4 -5 0 -10 7
-10 15 0 17 53 52 95 62 144 34 288 247 254 377 -8 30 -14 37 -34 37 -14 0
-29 -8 -35 -19z m-427 -241 c73 -63 106 -212 73 -321 -53 -176 -153 -210 -224
-79 -54 99 -54 233 0 338 47 94 93 113 151 62z"/>
<path d="M222 829 c-35 -55 -22 -201 19 -214 43 -14 75 54 66 142 -9 82 -55
121 -85 72z"/>
</g>
</svg>
