<?xml version="1.0" standalone="no"?>
<!DOCTYPE svg PUBLIC "-//W3C//DTD SVG 20010904//EN"
 "http://www.w3.org/TR/2001/REC-SVG-20010904/DTD/svg10.dtd">
<svg version="1.0" xmlns="http://www.w3.org/2000/svg"
 width="332.000000pt" height="590.000000pt" viewBox="0 0 332.000000 590.000000"
 preserveAspectRatio="xMidYMid meet">
<metadata>
Created by potrace 1.16, written by Peter Selinger 2001-2019
</metadata>
<g transform="translate(0.000000,590.000000) scale(0.500000,-0.500000)"
fill="#000000" stroke="none">
<path d="M397 1134 c-8 -5 -12 -16 -17 -40 -1 -6 -4 -21 -7 -34 -3 -13 -7 -31
-9 -41 -2 -10 -6 -31 -10 -46 -3 -15 -8 -39 -11 -52 -14 -67 -16 -70 -41 -57
-17 8 -16 0 -16 135 0 142 2 136 -33 131 -17 -3 -18 -9 -11 -181 3 -68 3 -68
-9 -73 -5 -2 -13 -7 -18 -11 -4 -3 -13 -7 -18 -9 -8 -2 -9 -3 -11 -10 -4 -16
-11 -12 -14 8 -1 7 -3 18 -4 24 -2 10 -6 43 -13 95 -2 12 -3 24 -4 27 -1 5 -5
29 -11 82 -5 39 -8 43 -28 42 -27 -3 -30 -8 -24 -37 2 -11 4 -24 5 -30 1 -5 3
-19 5 -31 2 -12 7 -38 10 -59 3 -21 8 -48 10 -60 18 -103 19 -109 5 -124 -4
-6 -11 -15 -14 -21 -3 -6 -8 -16 -12 -22 -4 -6 -7 -14 -8 -19 -1 -4 -3 -13 -6
-18 -11 -25 -15 -32 -17 -40 -1 -4 -3 -12 -5 -16 -2 -6 -3 -15 -3 -34 0 -19
-1 -28 -4 -37 -9 -27 -9 -111 0 -128 1 -2 3 -9 4 -15 1 -6 4 -15 7 -19 3 -4 7
-13 10 -19 2 -7 10 -22 17 -35 7 -13 15 -28 18 -34 4 -6 9 -14 13 -17 8 -7 8
-8 5 -16 -1 -3 -4 -18 -5 -34 -2 -15 -4 -33 -5 -39 -1 -6 -4 -26 -6 -44 -5
-44 -9 -76 -13 -102 -5 -38 -4 -42 16 -43 29 -3 30 0 39 106 1 12 3 28 4 36 1
8 3 27 5 44 4 40 10 47 33 35 4 -2 11 -4 15 -4 16 0 16 5 15 -106 0 -80 0
-100 2 -103 6 -8 32 -8 39 -1 4 4 4 10 3 103 -1 109 -1 107 12 107 3 0 9 2 13
4 9 5 14 5 16 1 1 -4 8 -47 10 -61 1 -6 2 -20 4 -31 5 -37 9 -64 12 -88 4 -36
7 -40 24 -42 28 -4 32 7 23 52 -5 25 -14 79 -23 132 -2 10 -4 25 -6 34 -5 28
-5 32 7 42 15 15 26 15 30 1 17 -63 109 -108 151 -74 6 4 13 9 16 11 21 10 30
68 16 98 -4 8 -7 17 -7 19 0 6 -11 27 -21 39 -5 5 -10 14 -12 18 -1 4 -8 13
-15 20 -6 6 -14 16 -18 21 -7 9 -15 14 -23 14 -17 0 -36 17 -38 35 -1 6 -3 14
-5 17 -2 4 -3 13 -4 55 -1 37 -2 53 -5 61 -3 9 -3 11 0 18 6 14 7 14 34 14 18
0 25 1 30 3 3 2 10 4 15 5 47 10 99 59 117 111 14 42 9 99 -12 116 -17 15 -96
21 -122 11 -7 -3 -15 -6 -19 -7 -4 -1 -10 -3 -12 -5 -3 -2 -8 -5 -13 -7 -9 -4
-37 -32 -40 -40 -2 -3 -4 -10 -6 -15 -2 -5 -5 -12 -7 -16 l-4 -7 -12 13 c-14
14 -14 15 -6 40 3 10 11 37 16 58 6 21 12 45 14 53 5 18 14 53 21 79 3 12 7
27 9 35 10 33 7 43 -13 47 -5 1 -11 3 -13 3 -2 1 -5 0 -7 -1z m166 -281 c23
-11 22 -51 -2 -80 -3 -4 -8 -11 -10 -14 -21 -41 -106 -64 -118 -32 -30 78 56
162 130 126z m-274 -39 c11 -5 18 -13 26 -31 10 -22 10 -22 16 -25 5 -2 17
-24 17 -31 0 -2 2 -8 4 -13 2 -5 4 -10 4 -13 0 -2 2 -8 4 -12 2 -4 5 -11 5
-15 1 -4 3 -10 5 -14 3 -6 4 -12 4 -25 0 -12 1 -23 4 -33 3 -12 5 -24 6 -58 2
-44 1 -48 -7 -63 -2 -5 -3 -12 -3 -34 0 -22 -1 -28 -4 -35 -2 -4 -4 -10 -5
-15 -1 -4 -3 -11 -5 -15 -2 -4 -4 -9 -4 -12 0 -10 -21 -33 -34 -39 -4 -1 -12
-8 -19 -13 -13 -12 -53 -32 -63 -32 -16 0 -61 41 -75 68 -4 7 -13 22 -21 32
-24 31 -32 51 -40 98 -3 20 -3 26 -2 33 1 6 3 26 4 45 1 19 2 35 2 36 0 0 4 4
8 9 10 11 12 16 12 36 0 12 1 18 4 23 10 17 22 42 22 45 0 8 17 38 30 53 5 5
11 13 15 19 16 26 65 43 90 31z m188 -414 c29 -30 47 -65 49 -90 1 -36 -3 -40
-44 -40 l-30 0 -10 10 c-7 7 -10 11 -11 18 0 4 -3 11 -5 16 -27 50 17 124 51
86z"/>
</g>
</svg>
