<?xml version="1.0" standalone="no"?>
<!DOCTYPE svg PUBLIC "-//W3C//DTD SVG 20010904//EN"
 "http://www.w3.org/TR/2001/REC-SVG-20010904/DTD/svg10.dtd">
<svg version="1.0" xmlns="http://www.w3.org/2000/svg"
 width="84.000000pt" height="148.000000pt" viewBox="0 0 84.000000 148.000000"
 preserveAspectRatio="xMidYMid meet">
<metadata>
Created by potrace 1.16, written by Peter Selinger 2001-2019
</metadata>
<g transform="translate(0.000000,148.000000) scale(0.100000,-0.100000)"
fill="#000000" stroke="none">
<path d="M303 1408 c-7 -9 -8 -61 -2 -158 8 -142 7 -145 -14 -162 -12 -10 -26
-18 -31 -18 -5 0 -15 -8 -22 -17 -7 -10 -15 -16 -17 -13 -3 3 -10 43 -16 90
-25 203 -32 254 -37 262 -6 9 -48 11 -56 3 -5 -6 -4 -12 36 -247 l26 -148 -28
-42 c-40 -62 -63 -132 -73 -218 -5 -41 -11 -81 -14 -87 -14 -40 43 -198 92
-255 13 -14 13 -31 -1 -130 -9 -62 -17 -140 -19 -173 -2 -58 -1 -60 23 -60 25
0 25 1 40 140 16 151 19 156 73 136 l26 -10 -6 -129 c-6 -126 -5 -130 15 -137
40 -12 44 1 40 135 -1 71 -1 130 2 132 3 2 15 9 27 15 27 15 27 15 43 -128 14
-124 22 -153 44 -157 39 -8 39 2 1 221 -16 89 -16 100 -2 114 19 19 47 10 47
-15 0 -19 41 -62 77 -81 68 -35 153 11 153 84 0 74 -78 196 -137 216 -39 13
-50 44 -55 164 l-3 80 50 7 c67 9 127 42 166 90 27 34 33 51 37 108 4 59 2 70
-16 88 -28 28 -103 38 -155 21 -63 -20 -84 -36 -108 -85 l-21 -45 -20 20 c-18
20 -18 24 -4 65 17 51 65 225 76 278 8 39 -2 58 -30 58 -18 0 -30 -32 -50
-130 -40 -203 -44 -215 -70 -215 l-25 0 -5 170 c-5 163 -6 170 -26 173 -11 2
-25 -3 -31 -10z m419 -344 c17 -11 7 -66 -19 -105 -27 -41 -56 -61 -105 -73
-47 -11 -58 1 -58 59 0 43 5 60 27 85 14 18 36 36 47 41 20 8 90 4 108 -7z
m-321 -91 c17 -27 40 -72 50 -101 17 -50 38 -218 31 -252 -2 -8 -7 -40 -12
-70 -12 -82 -24 -105 -80 -149 -68 -54 -94 -60 -127 -30 -47 44 -114 143 -128
194 -17 56 -11 167 11 200 8 11 14 29 14 41 0 36 47 128 88 172 34 36 45 42
80 42 37 0 43 -4 73 -47z m227 -508 c25 -39 32 -59 30 -90 -3 -36 -6 -40 -32
-43 -69 -8 -96 22 -96 104 0 98 44 111 98 29z"/>
</g>
</svg>
