<?xml version="1.0" standalone="no"?>
<!DOCTYPE svg PUBLIC "-//W3C//DTD SVG 20010904//EN"
 "http://www.w3.org/TR/2001/REC-SVG-20010904/DTD/svg10.dtd">
<svg version="1.0" xmlns="http://www.w3.org/2000/svg"
 width="57.000000pt" height="100.000000pt" viewBox="0 0 57.000000 100.000000"
 preserveAspectRatio="xMidYMid meet">
<metadata>
Created by potrace 1.16, written by Peter Selinger 2001-2019
</metadata>
<g transform="translate(0.000000,100.000000) scale(0.100000,-0.100000)"
fill="#000000" stroke="none">
<path d="M211 961 c-9 -6 -12 -35 -10 -111 3 -97 2 -104 -19 -118 -13 -8 -25
-12 -28 -9 -4 3 -11 43 -16 89 -13 114 -21 142 -41 146 -29 6 -31 -27 -8 -155
l23 -123 -22 -37 c-29 -50 -50 -136 -50 -209 0 -48 6 -74 32 -124 l31 -63 -11
-87 c-18 -129 -17 -142 11 -138 20 3 23 11 32 93 9 80 12 90 30 90 18 0 20 -8
25 -90 4 -74 8 -90 22 -93 15 -3 18 8 20 90 2 75 6 93 18 93 11 0 17 -17 23
-60 16 -122 17 -125 37 -125 10 0 21 4 25 9 3 5 -4 53 -16 106 -16 73 -18 100
-10 108 9 9 18 4 37 -20 13 -17 40 -37 60 -43 32 -11 40 -10 63 7 37 28 39 73
6 129 -14 24 -41 55 -60 67 -38 25 -45 41 -45 114 l0 51 42 7 c27 5 54 19 81
44 32 30 40 45 44 84 8 64 -13 87 -76 87 -53 -1 -80 -14 -111 -53 -40 -50 -44
-17 -12 84 43 136 44 145 26 159 -26 22 -43 -8 -60 -106 -19 -114 -22 -124
-40 -124 -11 0 -14 21 -14 109 0 110 -9 140 -39 122z m276 -257 c9 -24 -19
-65 -61 -88 -36 -21 -37 -21 -51 -2 -18 23 -11 52 18 84 25 27 84 31 94 6z
m-220 -41 c34 -51 45 -87 50 -169 8 -123 -2 -172 -44 -211 -63 -60 -110 -38
-162 77 -24 53 -26 98 -7 161 44 145 118 209 163 142z m161 -364 c24 -48 20
-69 -13 -69 -33 0 -55 26 -55 64 0 62 39 64 68 5z"/>
</g>
</svg>
