<?xml version="1.0" standalone="no"?>
<!DOCTYPE svg PUBLIC "-//W3C//DTD SVG 20010904//EN"
 "http://www.w3.org/TR/2001/REC-SVG-20010904/DTD/svg10.dtd">
<svg version="1.0" xmlns="http://www.w3.org/2000/svg"
 width="186.000000pt" height="590.000000pt" viewBox="0 0 186.000000 590.000000"
 preserveAspectRatio="xMidYMid meet">
<metadata>
Created by potrace 1.16, written by Peter Selinger 2001-2019
</metadata>
<g transform="translate(0.000000,590.000000) scale(0.500000,-0.500000)"
fill="#000000" stroke="none">
<path d="M170 1137 c-3 -1 -11 -9 -17 -18 -7 -9 -17 -21 -23 -27 -15 -16 -42
-65 -50 -90 -2 -6 -6 -15 -9 -18 -2 -4 -6 -12 -8 -18 -1 -6 -5 -19 -9 -28 -10
-27 -10 -28 -10 -47 0 -9 -1 -24 -3 -31 -3 -13 -3 -15 0 -28 1 -7 3 -26 4 -43
1 -32 -1 -25 25 -81 4 -7 8 -18 10 -24 2 -5 7 -14 12 -19 4 -5 10 -14 14 -21
4 -7 10 -17 13 -22 11 -15 14 -22 12 -30 -1 -4 -2 -9 -2 -11 -1 -15 -4 -23
-15 -38 -14 -21 -39 -73 -42 -88 -3 -16 -7 -33 -11 -40 -8 -16 -9 -133 -2
-157 2 -6 4 -19 5 -29 1 -16 2 -20 10 -32 4 -8 8 -15 8 -16 0 -1 4 -9 10 -18
5 -8 12 -19 15 -25 2 -6 10 -17 17 -25 7 -8 16 -20 19 -27 29 -52 71 -44 105
21 4 7 9 16 12 21 5 8 20 41 23 52 1 3 4 9 7 13 3 4 7 13 8 18 2 10 7 25 14
41 4 7 5 16 7 37 2 42 2 50 -4 119 0 5 -2 13 -4 18 -2 4 -9 18 -15 31 -6 14
-13 29 -15 35 -2 6 -7 14 -11 19 -4 5 -11 15 -15 23 -4 7 -10 16 -12 19 -17
23 -19 44 -5 64 3 5 6 12 7 16 1 3 7 13 13 21 14 19 14 18 16 31 1 7 7 21 12
32 9 20 9 20 11 52 2 20 4 35 6 41 9 23 5 116 -5 141 -4 8 -10 23 -14 34 -4
11 -11 25 -16 31 -4 6 -10 17 -14 23 -3 7 -12 19 -19 27 -11 14 -21 30 -35 57
-8 15 -19 20 -30 14z m13 -70 c3 -2 13 -16 22 -33 10 -16 21 -32 24 -37 9 -11
21 -39 21 -51 0 -9 4 -21 9 -32 2 -3 3 -11 3 -17 0 -6 1 -13 2 -16 4 -11 5
-47 1 -58 -2 -5 -3 -16 -3 -26 0 -12 -1 -19 -4 -25 -8 -20 -10 -24 -11 -33 -3
-21 -3 -23 -9 -30 -3 -3 -13 -21 -21 -40 -19 -43 -32 -56 -46 -46 -8 5 -38 49
-40 59 -3 13 -10 28 -15 33 -11 10 -26 47 -27 68 -1 10 -3 21 -4 26 -4 10 -4
49 0 63 1 6 3 15 4 20 1 10 3 14 19 66 23 70 58 121 75 109z m12 -518 c12 -12
31 -43 38 -63 4 -9 9 -20 13 -24 12 -15 24 -47 26 -69 1 -11 3 -24 5 -28 3 -9
1 -60 -3 -70 -1 -3 -2 -8 -2 -11 0 -3 -2 -11 -5 -19 -2 -8 -7 -21 -9 -29 -18
-60 -40 -103 -62 -123 -12 -10 -23 0 -48 41 -6 10 -13 22 -16 25 -3 4 -7 10
-10 15 -13 28 -16 36 -16 41 0 3 -1 9 -3 13 -18 57 -16 122 7 177 2 6 4 13 5
16 1 3 5 9 9 14 9 9 10 12 12 27 7 50 39 87 59 67z"/>
</g>
</svg>
