<?xml version="1.0" standalone="no"?>
<!DOCTYPE svg PUBLIC "-//W3C//DTD SVG 20010904//EN"
 "http://www.w3.org/TR/2001/REC-SVG-20010904/DTD/svg10.dtd">
<svg version="1.0" xmlns="http://www.w3.org/2000/svg"
 width="31.000000pt" height="100.000000pt" viewBox="0 0 31.000000 100.000000"
 preserveAspectRatio="xMidYMid meet">
<metadata>
Created by potrace 1.16, written by Peter Selinger 2001-2019
</metadata>
<g transform="translate(0.000000,100.000000) scale(0.100000,-0.100000)"
fill="#000000" stroke="none">
<path d="M101 924 c-81 -123 -93 -251 -33 -358 18 -31 32 -62 32 -70 0 -7 -12
-35 -26 -61 -29 -52 -42 -148 -30 -228 9 -58 78 -167 105 -167 49 0 111 116
119 221 5 73 -7 122 -45 181 -29 47 -29 59 3 124 31 64 43 181 24 240 -16 51
-89 164 -105 164 -7 0 -27 -21 -44 -46z m80 -81 c33 -69 36 -159 7 -243 -15
-41 -29 -65 -38 -65 -8 0 -28 25 -43 55 -25 49 -28 63 -25 130 4 82 36 170 62
170 8 0 25 -21 37 -47z m13 -448 c31 -78 33 -136 6 -212 -28 -81 -42 -92 -69
-57 -23 29 -51 113 -51 153 0 14 12 61 26 103 35 101 52 103 88 13z"/>
</g>
</svg>
