<?xml version="1.0" standalone="no"?>
<!DOCTYPE svg PUBLIC "-//W3C//DTD SVG 20010904//EN"
 "http://www.w3.org/TR/2001/REC-SVG-20010904/DTD/svg10.dtd">
<svg version="1.0" xmlns="http://www.w3.org/2000/svg"
 width="46.000000pt" height="148.000000pt" viewBox="0 0 46.000000 148.000000"
 preserveAspectRatio="xMidYMid meet">
<metadata>
Created by potrace 1.16, written by Peter Selinger 2001-2019
</metadata>
<g transform="translate(0.000000,148.000000) scale(0.100000,-0.100000)"
fill="#000000" stroke="none">
<path d="M171 1380 c-35 -44 -81 -132 -105 -201 -24 -67 -21 -209 4 -261 11
-23 20 -46 20 -50 0 -5 16 -32 35 -61 40 -59 43 -89 15 -132 -54 -80 -73 -156
-72 -288 1 -101 4 -112 33 -167 17 -32 39 -67 50 -79 10 -11 19 -24 19 -29 0
-4 13 -21 28 -36 l29 -27 36 37 c31 32 65 90 87 149 4 11 13 34 20 50 46 114
23 255 -62 382 -15 23 -28 52 -28 66 0 25 25 83 40 92 5 3 14 22 21 43 36 117
44 277 16 331 -9 19 -17 38 -17 43 0 5 -22 42 -50 82 -27 40 -50 79 -50 85 0
25 -39 9 -69 -29z m96 -112 c57 -101 72 -188 49 -289 -9 -41 -27 -96 -41 -124
-13 -27 -25 -55 -25 -62 0 -15 -39 -28 -50 -16 -5 4 -29 49 -54 99 -41 82 -46
99 -46 160 0 112 72 304 113 304 8 0 32 -33 54 -72z m-25 -585 c37 -42 88
-165 94 -225 10 -98 -43 -275 -96 -323 -16 -15 -20 -12 -52 37 -65 99 -73 124
-73 233 0 82 4 107 21 140 12 22 27 58 34 80 12 39 36 75 50 75 4 0 14 -8 22
-17z"/>
</g>
</svg>
