<?xml version="1.0" standalone="no"?>
<!DOCTYPE svg PUBLIC "-//W3C//DTD SVG 20010904//EN"
 "http://www.w3.org/TR/2001/REC-SVG-20010904/DTD/svg10.dtd">
<svg version="1.0" xmlns="http://www.w3.org/2000/svg"
 width="86.000000pt" height="148.000000pt" viewBox="0 0 86.000000 148.000000"
 preserveAspectRatio="xMidYMid meet">
<metadata>
Created by potrace 1.16, written by Peter Selinger 2001-2019
</metadata>
<g transform="translate(0.000000,148.000000) scale(0.100000,-0.100000)"
fill="#000000" stroke="none">
<path d="M149 1373 c-40 -42 -55 -68 -89 -159 -12 -31 -10 -264 3 -304 6 -19
35 -70 64 -112 29 -43 53 -86 53 -96 0 -10 -14 -31 -30 -47 -17 -16 -43 -50
-58 -75 -24 -40 -27 -57 -30 -155 -5 -130 16 -207 76 -290 53 -72 59 -76 121
-72 62 4 69 12 126 123 34 67 35 73 35 185 0 64 -5 131 -11 148 -10 28 -9 35
7 51 22 21 356 246 374 252 15 5 17 55 3 69 -6 6 -17 2 -29 -10 -60 -55 -82
-46 -111 46 l-18 56 43 36 c45 39 53 69 23 88 -17 10 -25 7 -63 -26 -101 -87
-190 -152 -202 -148 -11 4 -14 34 -13 124 1 113 -1 121 -33 193 -35 78 -55
103 -118 145 -52 35 -71 32 -123 -22z m123 -70 c8 -10 27 -44 42 -77 24 -53
27 -71 29 -180 2 -116 1 -123 -26 -171 -54 -92 -93 -117 -115 -72 -6 12 -24
44 -40 71 -16 27 -27 57 -25 67 3 9 0 20 -6 23 -7 5 -11 45 -11 105 0 105 21
181 63 229 24 26 68 29 89 5z m316 -355 c6 -7 20 -37 31 -67 21 -55 16 -81
-13 -81 -16 0 -56 84 -56 119 0 40 17 53 38 29z m-60 -113 c28 -57 28 -91 1
-105 -27 -15 -46 1 -74 65 -26 57 -17 85 25 85 21 0 30 -9 48 -45z m-104 -79
c15 -36 26 -73 24 -83 -2 -10 -20 -27 -41 -38 l-38 -20 -36 39 c-29 31 -34 44
-30 70 6 36 54 95 78 96 10 0 26 -23 43 -64z m-152 -163 c50 -54 72 -119 76
-226 5 -122 2 -135 -48 -186 -48 -49 -70 -51 -104 -11 -54 64 -85 275 -51 343
8 17 15 34 15 39 0 6 9 23 21 39 26 37 57 37 91 2z"/>
</g>
</svg>
