<?xml version="1.0" standalone="no"?>
<!DOCTYPE svg PUBLIC "-//W3C//DTD SVG 20010904//EN"
 "http://www.w3.org/TR/2001/REC-SVG-20010904/DTD/svg10.dtd">
<svg version="1.0" xmlns="http://www.w3.org/2000/svg"
 width="58.000000pt" height="100.000000pt" viewBox="0 0 58.000000 100.000000"
 preserveAspectRatio="xMidYMid meet">
<metadata>
Created by potrace 1.16, written by Peter Selinger 2001-2019
</metadata>
<g transform="translate(0.000000,100.000000) scale(0.100000,-0.100000)"
fill="#000000" stroke="none">
<path d="M98 928 c-56 -60 -71 -110 -65 -221 5 -101 3 -96 76 -212 14 -21 13
-26 -18 -60 -44 -50 -51 -73 -51 -163 0 -64 5 -87 29 -137 42 -89 70 -108 131
-92 19 5 34 24 59 76 34 68 34 70 28 168 l-7 98 93 62 c50 34 111 73 135 87
26 16 42 34 42 46 0 28 -17 34 -45 16 -33 -22 -40 -20 -53 9 -18 39 -15 59 13
85 29 27 32 55 9 64 -18 7 -24 3 -103 -66 -30 -27 -61 -48 -68 -48 -10 0 -13
21 -13 80 0 69 -4 89 -30 139 -29 59 -77 101 -115 101 -9 0 -31 -15 -47 -32z
m86 -57 c29 -32 45 -92 46 -169 0 -75 -19 -132 -55 -162 -15 -12 -19 -12 -32
5 -37 49 -53 100 -53 177 0 79 10 120 37 150 21 23 36 23 57 -1z m173 -316
c15 -32 15 -37 1 -51 -14 -14 -17 -13 -37 12 -28 35 -28 74 -1 74 13 0 26 -12
37 -35z m-61 -71 c8 -30 -11 -54 -40 -54 -48 0 -63 63 -24 102 l21 21 19 -23
c10 -12 21 -33 24 -46z m-99 -102 c28 -42 47 -131 38 -183 -9 -50 -54 -105
-79 -96 -46 18 -75 185 -46 262 25 65 51 70 87 17z"/>
</g>
</svg>
