<?xml version="1.0" standalone="no"?>
<!DOCTYPE svg PUBLIC "-//W3C//DTD SVG 20010904//EN"
 "http://www.w3.org/TR/2001/REC-SVG-20010904/DTD/svg10.dtd">
<svg version="1.0" xmlns="http://www.w3.org/2000/svg"
 width="186.000000pt" height="590.000000pt" viewBox="0 0 186.000000 590.000000"
 preserveAspectRatio="xMidYMid meet">
<metadata>
Created by potrace 1.16, written by Peter Selinger 2001-2019
</metadata>
<g transform="translate(0.000000,590.000000) scale(0.500000,-0.500000)"
fill="#000000" stroke="none">
<path d="M169 1136 c-3 -2 -11 -10 -18 -19 -6 -9 -16 -21 -22 -26 -13 -14 -44
-71 -48 -89 -2 -7 -7 -16 -11 -21 -2 -2 -5 -9 -7 -16 -1 -7 -6 -20 -9 -29 -6
-15 -7 -21 -8 -43 -1 -14 -2 -29 -4 -32 -3 -7 -3 -22 1 -32 1 -4 3 -22 4 -38
1 -31 1 -31 16 -63 8 -18 16 -37 18 -42 2 -6 6 -13 9 -17 7 -8 20 -27 20 -30
0 -1 3 -6 7 -11 13 -19 18 -29 15 -36 -1 -4 -2 -9 -2 -13 0 -11 -6 -25 -16
-39 -11 -15 -40 -75 -40 -83 0 -5 -8 -34 -13 -45 -8 -19 -7 -133 1 -163 1 -4
2 -14 2 -20 0 -13 14 -45 30 -68 3 -4 9 -14 13 -22 3 -8 12 -20 19 -27 6 -8
15 -20 20 -29 11 -20 29 -35 41 -35 9 0 17 6 31 22 7 8 15 17 17 18 8 7 40 67
46 88 1 4 5 12 9 18 3 5 7 14 8 19 1 6 3 13 5 17 11 26 13 34 13 54 0 11 1 23
3 29 4 13 4 22 0 33 -2 5 -3 15 -3 24 0 38 -2 45 -20 84 -8 19 -17 38 -18 42
-1 3 -6 10 -10 16 -4 5 -11 14 -14 21 -4 7 -9 16 -13 21 -15 21 -17 39 -8 56
9 16 11 21 12 27 1 3 5 10 10 15 13 13 15 16 17 31 2 10 6 21 17 45 14 28 16
32 17 48 1 9 3 24 5 32 5 24 3 73 -4 98 -3 10 -6 26 -8 34 -1 8 -6 22 -10 30
-4 8 -7 16 -7 18 0 3 -9 21 -16 31 -3 4 -8 14 -12 20 -4 7 -12 19 -19 27 -8 9
-18 25 -27 42 -18 32 -25 37 -39 28z m18 -72 c3 -4 9 -13 13 -21 5 -8 13 -19
18 -25 9 -11 41 -74 45 -90 1 -5 4 -13 6 -17 2 -7 3 -19 3 -73 0 -72 -1 -77
-15 -90 -3 -3 -7 -7 -8 -10 -6 -12 -25 2 -44 33 -22 35 -42 28 -78 -25 -14
-22 -17 -23 -23 -13 -11 18 -16 32 -16 46 0 8 -2 20 -4 27 -4 15 -3 63 2 75 1
3 2 8 2 11 0 3 2 9 3 13 2 4 5 13 6 20 7 28 24 74 33 88 32 54 44 66 57 51z
m-2 -325 c3 -4 13 -15 21 -25 23 -26 22 -24 12 -47 -3 -7 -7 -16 -10 -22 -17
-37 -35 -35 -64 10 -17 26 -17 26 -4 47 26 43 35 50 45 37z m7 -184 c23 -20
42 -59 34 -73 -35 -58 -36 -58 -64 -28 -31 34 -30 31 -14 67 16 35 30 46 44
34z m71 -122 c8 -16 11 -30 11 -45 0 -5 1 -14 3 -19 10 -28 0 -82 -31 -170
-13 -40 -48 -93 -60 -93 -4 0 -24 25 -38 48 -5 9 -13 20 -16 25 -7 9 -25 45
-27 55 -1 8 -6 28 -10 44 -4 15 -6 76 -3 90 1 6 4 17 5 24 1 7 5 18 8 24 2 6
6 15 7 20 4 15 18 7 38 -22 28 -41 44 -39 80 11 17 24 18 25 22 25 2 -1 6 -8
11 -17z"/>
</g>
</svg>
