<?xml version="1.0" standalone="no"?>
<!DOCTYPE svg PUBLIC "-//W3C//DTD SVG 20010904//EN"
 "http://www.w3.org/TR/2001/REC-SVG-20010904/DTD/svg10.dtd">
<svg version="1.0" xmlns="http://www.w3.org/2000/svg"
 width="46.000000pt" height="148.000000pt" viewBox="0 0 46.000000 148.000000"
 preserveAspectRatio="xMidYMid meet">
<metadata>
Created by potrace 1.16, written by Peter Selinger 2001-2019
</metadata>
<g transform="translate(0.000000,148.000000) scale(0.100000,-0.100000)"
fill="#000000" stroke="none">
<path d="M172 1381 c-39 -48 -59 -87 -111 -214 -6 -15 -11 -68 -11 -116 0 -96
18 -150 85 -256 35 -55 34 -80 -3 -132 -42 -59 -63 -150 -63 -271 1 -94 4
-118 21 -150 39 -71 62 -107 71 -110 5 -2 9 -9 9 -16 0 -7 13 -25 28 -40 l29
-27 34 35 c57 59 116 194 133 303 3 24 2 44 -4 48 -5 3 -10 25 -10 49 0 37
-21 99 -50 146 -5 8 -21 34 -35 57 l-26 43 21 44 c11 25 24 48 30 51 5 3 10
14 10 23 0 10 11 38 25 64 21 39 25 61 25 129 0 78 -14 153 -32 174 -4 5 -8
16 -8 25 0 8 -17 38 -38 65 -21 28 -45 65 -53 83 -18 42 -39 40 -77 -7z m84
-89 c16 -26 36 -63 44 -82 7 -19 17 -39 22 -44 4 -6 8 -57 8 -115 -1 -80 -4
-111 -16 -126 -15 -20 -16 -19 -53 23 -20 23 -42 42 -48 42 -7 0 -25 -17 -40
-37 -39 -54 -46 -56 -60 -21 -15 35 -17 166 -4 200 5 13 17 48 25 79 18 61 60
129 79 129 7 0 26 -22 43 -48z m-4 -397 c28 -32 28 -33 12 -71 -28 -67 -51
-70 -88 -14 l-26 40 25 40 c14 22 31 40 38 39 6 0 24 -15 39 -34z m2 -228 c32
-42 32 -53 0 -100 -28 -42 -36 -40 -75 14 l-20 28 22 45 c12 26 27 46 35 46 7
0 24 -15 38 -33z m80 -188 c8 -66 -1 -166 -15 -175 -5 -3 -9 -14 -9 -25 0 -26
-48 -124 -70 -144 -16 -15 -20 -12 -52 37 -68 103 -72 114 -72 228 0 64 4 117
12 135 l13 30 42 -48 42 -48 26 28 c15 15 32 39 39 52 12 23 14 23 25 8 7 -10
16 -45 19 -78z"/>
</g>
</svg>
