<?xml version="1.0" standalone="no"?>
<!DOCTYPE svg PUBLIC "-//W3C//DTD SVG 20010904//EN"
 "http://www.w3.org/TR/2001/REC-SVG-20010904/DTD/svg10.dtd">
<svg version="1.0" xmlns="http://www.w3.org/2000/svg"
 width="31.000000pt" height="100.000000pt" viewBox="0 0 31.000000 100.000000"
 preserveAspectRatio="xMidYMid meet">
<metadata>
Created by potrace 1.16, written by Peter Selinger 2001-2019
</metadata>
<g transform="translate(0.000000,100.000000) scale(0.100000,-0.100000)"
fill="#000000" stroke="none">
<path d="M92 913 c-71 -112 -79 -232 -23 -342 36 -71 36 -76 -3 -166 -19 -46
-25 -77 -25 -130 0 -81 13 -123 58 -188 43 -64 71 -64 111 -1 74 117 79 233
16 346 l-36 66 35 73 c29 61 35 85 35 139 0 37 -7 86 -15 111 -21 59 -80 139
-104 139 -12 0 -31 -18 -49 -47z m77 -49 c63 -79 68 -282 6 -214 -23 25 -33
25 -61 -1 l-23 -22 -12 27 c-10 22 -10 40 0 89 14 71 45 147 60 147 5 0 19
-12 30 -26z m4 -526 c38 35 47 28 47 -36 0 -67 -22 -150 -48 -182 l-18 -23
-22 28 c-43 54 -68 195 -40 223 9 9 17 7 35 -10 l23 -21 23 21z"/>
</g>
</svg>
