<?xml version="1.0" standalone="no"?>
<!DOCTYPE svg PUBLIC "-//W3C//DTD SVG 20010904//EN"
 "http://www.w3.org/TR/2001/REC-SVG-20010904/DTD/svg10.dtd">
<svg version="1.0" xmlns="http://www.w3.org/2000/svg"
 width="59.000000pt" height="100.000000pt" viewBox="0 0 59.000000 100.000000"
 preserveAspectRatio="xMidYMid meet">
<metadata>
Created by potrace 1.16, written by Peter Selinger 2001-2019
</metadata>
<g transform="translate(0.000000,100.000000) scale(0.100000,-0.100000)"
fill="#000000" stroke="none">
<path d="M41 971 c-11 -7 -14 -87 -14 -465 0 -251 2 -458 4 -460 2 -2 13 -6
24 -8 30 -5 33 26 34 349 l1 293 26 6 c14 4 48 3 76 -2 49 -9 51 -11 69 -58
10 -27 33 -67 50 -89 29 -36 31 -42 19 -61 -41 -64 -50 -92 -50 -165 0 -64 5
-84 35 -146 33 -70 91 -135 120 -135 18 0 70 67 98 127 17 37 22 67 22 128 0
88 -14 126 -68 182 l-30 32 27 39 c71 103 59 242 -31 364 -54 75 -78 83 -118
41 -33 -35 -59 -84 -76 -143 -17 -60 -31 -70 -106 -70 l-63 0 0 106 c0 126
-12 158 -49 135z m391 -143 c27 -53 32 -74 33 -133 0 -129 -56 -193 -108 -123
-46 61 -59 95 -45 117 9 16 9 25 0 43 -11 19 -10 31 3 68 39 111 70 118 117
28z m36 -428 c18 -30 36 -66 39 -80 8 -31 -21 -147 -46 -180 -31 -43 -52 -32
-91 44 -42 85 -46 154 -12 229 19 43 25 48 49 45 22 -2 35 -15 61 -58z"/>
</g>
</svg>
