<?xml version="1.0" standalone="no"?>
<!DOCTYPE svg PUBLIC "-//W3C//DTD SVG 20010904//EN"
 "http://www.w3.org/TR/2001/REC-SVG-20010904/DTD/svg10.dtd">
<svg version="1.0" xmlns="http://www.w3.org/2000/svg"
 width="88.000000pt" height="148.000000pt" viewBox="0 0 88.000000 148.000000"
 preserveAspectRatio="xMidYMid meet">
<metadata>
Created by potrace 1.16, written by Peter Selinger 2001-2019
</metadata>
<g transform="translate(0.000000,148.000000) scale(0.100000,-0.100000)"
fill="#000000" stroke="none">
<path d="M57 1432 c-16 -7 -17 -46 -17 -680 0 -370 2 -677 5 -683 8 -12 62
-12 70 2 4 5 6 221 5 480 l-1 469 120 0 c134 0 132 1 145 -74 7 -37 76 -152
100 -168 52 -33 53 -34 25 -65 -37 -40 -53 -70 -78 -139 -28 -81 -29 -187 -1
-229 11 -16 20 -37 20 -45 0 -34 68 -147 117 -197 63 -63 89 -67 124 -21 13
17 31 38 40 47 44 42 97 194 100 281 3 113 -52 245 -127 302 -16 12 -31 23
-33 25 -3 2 9 18 26 36 53 56 85 140 91 237 4 78 2 89 -22 134 -14 27 -26 57
-26 66 0 45 -109 188 -168 219 -20 11 -26 9 -50 -20 -15 -17 -38 -43 -51 -58
-28 -31 -81 -142 -81 -170 0 -11 -4 -23 -10 -26 -5 -3 -10 -21 -10 -40 l0 -34
-112 -3 c-62 -2 -119 -1 -126 1 -11 3 -13 39 -11 171 1 91 -1 172 -5 178 -8
13 -31 14 -59 4z m560 -150 c23 -28 47 -71 53 -94 6 -24 18 -56 26 -71 15 -31
20 -166 6 -183 -5 -5 -14 -28 -22 -51 -7 -23 -28 -56 -46 -74 -32 -31 -35 -32
-52 -16 -10 9 -23 17 -29 17 -5 0 -17 8 -25 18 -16 17 -98 166 -98 177 0 3 11
10 25 15 31 12 34 49 5 57 -15 4 -20 14 -20 37 0 18 3 36 6 39 4 4 17 31 29
60 25 63 73 129 89 124 6 -2 30 -27 53 -55z m16 -603 c34 -23 90 -104 121
-176 14 -33 17 -54 12 -95 -9 -65 -34 -148 -52 -169 -8 -8 -14 -20 -14 -25 0
-5 -13 -24 -28 -43 -25 -30 -31 -32 -49 -21 -27 17 -92 123 -100 163 -3 18
-12 44 -19 59 -33 66 0 235 57 294 18 19 34 34 36 34 2 0 18 -10 36 -21z"/>
</g>
</svg>
