<?xml version="1.0" standalone="no"?>
<!DOCTYPE svg PUBLIC "-//W3C//DTD SVG 20010904//EN"
 "http://www.w3.org/TR/2001/REC-SVG-20010904/DTD/svg10.dtd">
<svg version="1.0" xmlns="http://www.w3.org/2000/svg"
 width="52.000000pt" height="148.000000pt" viewBox="0 0 52.000000 148.000000"
 preserveAspectRatio="xMidYMid meet">
<metadata>
Created by potrace 1.16, written by Peter Selinger 2001-2019
</metadata>
<g transform="translate(0.000000,148.000000) scale(0.100000,-0.100000)"
fill="#000000" stroke="none">
<path d="M190 1401 c-5 -11 -10 -28 -10 -38 0 -11 -4 -23 -10 -29 -5 -5 -12
-32 -15 -59 -9 -79 -25 -127 -56 -173 -16 -24 -29 -49 -29 -57 0 -8 -4 -16 -9
-20 -13 -7 -6 -180 8 -226 6 -20 18 -42 26 -49 20 -16 19 -32 -3 -61 -25 -32
-46 -112 -39 -146 4 -15 9 -43 13 -60 3 -18 23 -52 44 -76 33 -37 64 -109 59
-134 -1 -4 0 -15 4 -23 3 -8 10 -37 17 -65 24 -108 30 -124 51 -130 13 -4 28
0 40 11 17 15 17 19 5 33 -20 22 -76 197 -76 235 0 31 20 16 41 -31 86 -190
88 -193 112 -193 13 0 26 3 30 6 5 6 -32 82 -98 199 -19 33 -35 71 -35 84 l0
24 23 -21 c12 -12 49 -64 82 -116 38 -61 66 -96 78 -96 36 0 13 88 -41 150
-12 14 -38 48 -59 75 -37 49 -38 53 -40 142 -2 72 -7 99 -23 125 -25 42 -25
75 0 113 25 38 27 145 4 216 -16 49 -16 51 4 65 12 8 34 36 49 62 15 26 44 73
65 104 42 64 48 94 18 103 -26 8 -38 0 -54 -40 -23 -55 -96 -175 -106 -175
-18 0 -10 22 42 125 45 88 50 105 39 119 -7 9 -19 16 -27 16 -13 0 -54 -80
-54 -104 0 -7 -12 -36 -26 -65 -18 -37 -29 -50 -36 -43 -7 7 -1 39 22 106 18
56 29 104 25 116 -8 25 -41 26 -55 1z m3 -328 c15 -17 59 -171 52 -182 -1 -3
-6 -23 -9 -44 -7 -47 -33 -87 -55 -87 -10 0 -28 12 -42 26 -22 24 -24 33 -24
138 0 90 3 117 18 139 20 31 38 34 60 10z m30 -400 c8 -16 19 -48 26 -73 25
-92 -33 -208 -86 -174 -51 32 -56 219 -7 267 17 17 54 6 67 -20z"/>
</g>
</svg>
