<?xml version="1.0" standalone="no"?>
<!DOCTYPE svg PUBLIC "-//W3C//DTD SVG 20010904//EN"
 "http://www.w3.org/TR/2001/REC-SVG-20010904/DTD/svg10.dtd">
<svg version="1.0" xmlns="http://www.w3.org/2000/svg"
 width="35.000000pt" height="100.000000pt" viewBox="0 0 35.000000 100.000000"
 preserveAspectRatio="xMidYMid meet">
<metadata>
Created by potrace 1.16, written by Peter Selinger 2001-2019
</metadata>
<g transform="translate(0.000000,100.000000) scale(0.100000,-0.100000)"
fill="#000000" stroke="none">
<path d="M130 955 c-7 -8 -19 -49 -27 -91 -8 -45 -27 -99 -45 -131 -28 -50
-30 -60 -24 -116 3 -33 11 -75 18 -93 9 -26 8 -42 -6 -87 -20 -65 -11 -118 30
-166 17 -21 29 -54 40 -113 17 -88 35 -128 60 -128 20 0 28 24 16 47 -19 35
-41 123 -31 123 5 0 23 -29 38 -64 33 -71 43 -82 61 -61 10 12 4 29 -34 93
-48 83 -52 92 -36 92 5 0 29 -29 52 -65 44 -67 76 -82 70 -35 -2 23 -22 55
-75 123 -32 41 -48 195 -32 309 4 28 2 61 -5 82 -11 35 -10 38 44 117 56 81
67 113 43 122 -21 8 -32 -3 -62 -63 -16 -30 -30 -49 -32 -42 -3 7 7 32 21 56
14 25 23 52 20 60 -12 32 -33 15 -55 -44 -35 -97 -53 -92 -23 6 22 69 7 109
-26 69z m11 -252 c6 -16 12 -56 12 -90 2 -48 -2 -66 -16 -80 -18 -17 -19 -17
-38 6 -14 18 -19 39 -19 88 0 69 12 103 36 103 8 0 19 -12 25 -27z m17 -285
c17 -60 2 -128 -28 -128 -27 0 -40 30 -40 90 0 98 44 122 68 38z"/>
</g>
</svg>
