<?xml version="1.0" standalone="no"?>
<!DOCTYPE svg PUBLIC "-//W3C//DTD SVG 20010904//EN"
 "http://www.w3.org/TR/2001/REC-SVG-20010904/DTD/svg10.dtd">
<svg version="1.0" xmlns="http://www.w3.org/2000/svg"
 width="204.000000pt" height="590.000000pt" viewBox="0 0 204.000000 590.000000"
 preserveAspectRatio="xMidYMid meet">
<metadata>
Created by potrace 1.16, written by Peter Selinger 2001-2019
</metadata>
<g transform="translate(0.000000,590.000000) scale(0.500000,-0.500000)"
fill="#000000" stroke="none">
<path d="M158 1130 c-11 -12 -14 -18 -15 -36 -1 -12 -3 -17 -7 -24 -3 -5 -6
-12 -6 -14 0 -3 -1 -10 -3 -15 -2 -6 -3 -16 -3 -22 0 -7 -1 -16 -3 -21 -2 -5
-3 -11 -3 -14 0 -3 -2 -10 -4 -15 -2 -5 -4 -13 -4 -18 0 -4 -2 -12 -3 -16 -2
-4 -4 -11 -5 -15 -1 -3 -5 -11 -9 -17 -3 -5 -8 -14 -10 -20 -2 -5 -8 -14 -12
-20 -5 -5 -10 -14 -12 -19 -3 -11 -8 -20 -14 -28 -3 -5 -3 -7 -2 -14 3 -22 3
-49 0 -61 -4 -11 -4 -12 0 -22 1 -5 3 -19 4 -31 1 -18 2 -22 6 -29 4 -5 6 -12
7 -21 2 -15 7 -28 18 -39 13 -15 11 -31 -6 -51 -10 -13 -11 -15 -13 -25 0 -5
-3 -13 -6 -19 -2 -6 -5 -16 -6 -21 -1 -6 -2 -14 -3 -19 -3 -14 0 -44 7 -56 3
-6 6 -16 7 -25 1 -9 3 -17 3 -18 8 -14 22 -32 38 -47 17 -18 19 -20 21 -31 1
-7 4 -16 5 -21 7 -24 9 -37 8 -47 -1 -8 -1 -10 3 -14 5 -5 8 -15 8 -26 0 -5 1
-12 3 -16 2 -5 4 -13 5 -19 1 -7 3 -15 5 -18 2 -3 3 -8 3 -11 0 -2 2 -10 4
-17 2 -7 5 -18 6 -24 4 -21 11 -26 31 -27 29 0 44 19 26 35 -7 7 -12 18 -14
36 -1 6 -3 15 -6 19 -7 12 -16 45 -24 80 -1 7 -4 17 -6 24 -3 13 -4 28 -1 30
3 2 11 -11 34 -59 29 -61 33 -70 37 -80 16 -42 28 -53 48 -43 20 9 20 14 1 52
-9 17 -17 36 -19 43 -2 9 -5 15 -11 22 -5 5 -14 19 -20 32 -6 13 -14 29 -18
36 -20 34 -22 67 -2 45 12 -14 79 -113 83 -123 4 -10 25 -39 31 -42 24 -13 38
24 20 52 -10 17 -20 36 -20 42 0 5 -5 16 -8 16 -4 0 -23 20 -29 31 -4 7 -11
17 -15 21 -4 4 -9 12 -11 18 -2 7 -6 11 -11 16 -5 4 -10 10 -11 13 -2 4 -6 11
-8 15 -6 8 -6 8 -5 68 2 68 2 67 -16 97 -20 32 -19 68 3 99 5 8 6 11 7 27 1
10 2 20 4 23 1 4 1 8 -1 17 -3 11 -3 12 1 26 5 16 3 26 -7 57 -16 43 -16 58
-4 64 8 4 11 8 19 21 6 9 14 22 19 30 10 15 31 50 44 72 4 8 14 24 22 36 24
36 24 46 4 59 -19 12 -38 3 -46 -23 -2 -5 -5 -13 -8 -16 -3 -4 -8 -15 -12 -24
-4 -10 -9 -20 -12 -23 -6 -7 -21 -31 -27 -42 -2 -5 -7 -13 -11 -17 -3 -4 -7
-10 -9 -12 -1 -3 -3 -5 -5 -5 -6 0 38 98 68 153 8 15 7 24 -4 34 -17 16 -33
16 -39 0 -3 -6 -5 -10 -17 -33 -5 -9 -7 -16 -9 -28 -1 -14 -3 -18 -9 -27 -4
-6 -8 -15 -9 -20 -1 -4 -4 -14 -8 -20 -4 -7 -9 -15 -10 -18 -11 -21 -14 -3 -5
27 4 14 9 30 10 35 3 9 6 20 18 60 10 32 11 34 4 46 -10 21 -25 24 -39 9z m-7
-272 c13 -13 21 -32 21 -47 0 -3 3 -12 7 -20 5 -10 7 -18 8 -29 1 -8 3 -19 4
-25 4 -13 4 -22 0 -33 -2 -5 -4 -18 -4 -28 -1 -18 -2 -20 -9 -30 -4 -6 -9 -15
-12 -20 -14 -28 -65 -2 -71 38 -1 5 -3 12 -4 15 -4 10 -4 113 0 125 1 5 3 14
4 21 4 32 37 52 56 33z m16 -304 c8 -7 18 -29 20 -44 1 -8 4 -18 9 -30 12 -24
12 -44 1 -69 -5 -10 -8 -21 -9 -31 -2 -18 -6 -23 -21 -31 -34 -17 -54 -2 -60
45 -1 6 -3 14 -7 19 -8 12 -8 76 0 87 3 4 6 11 7 15 6 34 39 55 60 39z"/>
</g>
</svg>
