<?xml version="1.0" standalone="no"?>
<!DOCTYPE svg PUBLIC "-//W3C//DTD SVG 20010904//EN"
 "http://www.w3.org/TR/2001/REC-SVG-20010904/DTD/svg10.dtd">
<svg version="1.0" xmlns="http://www.w3.org/2000/svg"
 width="73.000000pt" height="100.000000pt" viewBox="0 0 73.000000 100.000000"
 preserveAspectRatio="xMidYMid meet">
<metadata>
Created by potrace 1.16, written by Peter Selinger 2001-2019
</metadata>
<g transform="translate(0.000000,100.000000) scale(0.100000,-0.100000)"
fill="#000000" stroke="none">
<path d="M220 913 c-32 -50 -35 -57 -45 -116 -3 -21 -13 -41 -21 -44 -28 -10
-59 6 -71 38 -14 36 -34 35 -47 -4 -14 -39 15 -77 57 -77 41 0 72 -21 64 -44
-9 -22 -50 -20 -72 4 -25 28 -55 26 -55 -3 0 -39 39 -67 93 -67 45 0 47 -2 62
-37 9 -21 26 -48 38 -61 l22 -23 -22 -17 c-12 -9 -34 -43 -47 -74 -31 -70 -51
-74 -93 -21 -32 39 -53 38 -53 -3 0 -33 42 -74 77 -74 37 0 56 -13 51 -36 -5
-27 -43 -29 -84 -3 -40 24 -59 14 -45 -25 11 -29 48 -46 99 -46 38 0 45 -4 60
-31 68 -123 106 -139 166 -66 19 23 40 55 45 70 17 45 13 132 -9 198 -12 34
-18 64 -14 68 9 8 109 -103 128 -144 9 -18 21 -68 27 -111 11 -79 20 -97 46
-87 17 7 16 43 -2 122 -21 86 -59 154 -112 197 -41 34 -54 54 -33 54 5 0 35
-25 66 -56 66 -67 111 -154 120 -236 8 -66 26 -90 51 -66 14 15 14 23 0 87
-22 96 -66 179 -126 236 -28 27 -51 54 -51 59 0 6 23 31 51 55 28 24 64 64 79
88 36 57 88 239 72 255 -22 22 -40 -2 -61 -89 -24 -94 -42 -131 -97 -199 -40
-48 -126 -110 -167 -120 -53 -12 -27 28 47 72 116 70 185 193 189 337 2 60 1
62 -23 62 -24 0 -25 -3 -31 -75 -10 -118 -67 -237 -128 -269 -16 -9 -17 -2
-17 92 1 92 -2 108 -27 162 -58 124 -108 146 -157 68z m79 -35 c52 -83 68
-246 31 -325 -29 -65 -54 -59 -92 23 l-31 66 17 106 c15 96 34 152 54 152 4 0
13 -10 21 -22z m25 -481 c18 -25 21 -42 21 -132 0 -89 -3 -107 -21 -131 -11
-15 -25 -29 -32 -32 -15 -5 -46 47 -67 116 -15 47 -16 65 -7 108 21 102 62
129 106 71z"/>
</g>
</svg>
