<?xml version="1.0" standalone="no"?>
<!DOCTYPE svg PUBLIC "-//W3C//DTD SVG 20010904//EN"
 "http://www.w3.org/TR/2001/REC-SVG-20010904/DTD/svg10.dtd">
<svg version="1.0" xmlns="http://www.w3.org/2000/svg"
 width="108.000000pt" height="148.000000pt" viewBox="0 0 108.000000 148.000000"
 preserveAspectRatio="xMidYMid meet">
<metadata>
Created by potrace 1.16, written by Peter Selinger 2001-2019
</metadata>
<g transform="translate(0.000000,148.000000) scale(0.100000,-0.100000)"
fill="#000000" stroke="none">
<path d="M378 1406 c-39 -29 -89 -119 -104 -184 -27 -119 -25 -117 -67 -120
-52 -4 -85 18 -89 60 -3 38 -34 51 -54 24 -15 -21 -7 -95 12 -115 7 -8 46 -19
86 -25 l73 -11 0 -40 c0 -34 -3 -40 -23 -43 -35 -5 -90 17 -97 39 -7 22 -41
43 -55 34 -20 -12 -9 -70 19 -103 28 -33 30 -33 102 -30 l73 3 10 -36 c13 -41
62 -119 76 -119 5 0 14 -9 20 -19 8 -16 4 -22 -24 -39 -33 -19 -72 -86 -93
-157 -8 -27 -13 -30 -54 -33 -46 -3 -47 -2 -73 43 -17 29 -34 45 -46 45 -46 0
-7 -130 43 -144 12 -3 40 -6 63 -6 47 0 64 -14 64 -51 0 -39 -21 -52 -75 -43
-35 5 -51 14 -67 35 -23 30 -47 38 -49 17 -3 -38 5 -66 29 -91 24 -25 32 -27
104 -27 l78 0 26 -52 c63 -125 115 -174 165 -156 33 11 101 99 129 164 36 84
24 239 -26 335 -27 52 -31 79 -11 79 6 0 51 -40 99 -88 109 -111 136 -164 150
-307 11 -108 18 -125 53 -125 30 0 33 11 22 79 -34 217 -76 299 -209 405 -47
38 -58 59 -38 71 6 3 50 -30 98 -74 125 -115 183 -232 201 -406 6 -59 7 -60
36 -60 l30 0 -3 73 c-5 148 -67 277 -194 404 l-92 92 35 25 c74 56 177 168
202 222 35 74 89 271 85 311 -2 28 -7 33 -28 33 -28 0 -27 1 -60 -145 -47
-209 -153 -344 -355 -450 -58 -30 -85 -30 -85 0 0 21 8 28 84 69 138 75 205
145 270 284 35 73 63 224 55 292 -4 27 -8 30 -39 30 l-35 0 -2 -60 c-3 -103
-15 -168 -44 -238 -36 -86 -78 -144 -143 -197 l-51 -42 -3 32 c-2 17 1 45 7
62 6 17 11 67 11 111 0 67 -5 94 -32 161 -35 91 -55 124 -107 179 -37 39 -55
44 -83 23z m79 -124 c82 -149 94 -374 27 -489 -44 -76 -82 -66 -134 37 -41 81
-48 117 -39 185 5 33 13 98 19 144 11 82 27 128 58 164 24 27 35 21 69 -41z
m-3 -662 c67 -59 94 -208 64 -354 -10 -47 -21 -69 -52 -101 l-38 -40 -31 38
c-17 21 -43 66 -57 100 -21 53 -25 77 -24 168 0 85 4 112 18 135 23 36 67 84
78 84 4 0 23 -14 42 -30z"/>
</g>
</svg>
