<?xml version="1.0" standalone="no"?>
<!DOCTYPE svg PUBLIC "-//W3C//DTD SVG 20010904//EN"
 "http://www.w3.org/TR/2001/REC-SVG-20010904/DTD/svg10.dtd">
<svg version="1.0" xmlns="http://www.w3.org/2000/svg"
 width="434.000000pt" height="590.000000pt" viewBox="0 0 434.000000 590.000000"
 preserveAspectRatio="xMidYMid meet">
<metadata>
Created by potrace 1.16, written by Peter Selinger 2001-2019
</metadata>
<g transform="translate(0.000000,590.000000) scale(0.500000,-0.500000)"
fill="#000000" stroke="none">
<path d="M322 1133 c-21 -10 -33 -19 -38 -27 -2 -5 -12 -20 -22 -33 -22 -29
-36 -61 -43 -96 -2 -8 -4 -20 -6 -28 -2 -8 -4 -19 -5 -25 -6 -42 -5 -41 -52
-38 -46 3 -51 6 -53 39 -2 30 -20 43 -40 31 -13 -8 -14 -11 -14 -48 1 -54 15
-68 73 -72 14 -1 29 -3 33 -4 4 -1 13 -2 19 -2 19 0 29 -47 13 -60 -17 -13
-81 2 -86 21 -10 39 -61 41 -61 1 0 -54 35 -79 108 -77 41 1 52 1 54 -1 5 -4
18 -35 18 -42 0 -3 1 -7 3 -10 2 -3 5 -10 9 -17 3 -7 11 -18 18 -26 6 -8 12
-15 12 -15 0 -1 6 -6 13 -11 26 -20 26 -25 -4 -45 -18 -12 -25 -20 -40 -48
-26 -46 -27 -49 -27 -60 0 -7 -1 -14 -4 -18 -2 -4 -6 -11 -8 -15 -3 -6 -5 -9
-9 -10 -46 -9 -69 -2 -82 25 -20 39 -35 50 -51 39 -19 -12 -17 -30 6 -72 20
-35 38 -47 70 -45 51 2 64 -4 66 -34 2 -37 -18 -48 -65 -35 -5 1 -14 3 -18 4
-11 2 -24 13 -35 30 -11 18 -17 21 -28 12 -16 -14 -4 -66 18 -82 5 -4 13 -10
18 -14 8 -7 8 -7 46 -7 73 0 83 -2 93 -21 12 -22 27 -53 27 -55 0 -1 3 -5 7
-9 3 -4 8 -12 11 -16 2 -4 6 -11 10 -14 3 -3 10 -12 14 -19 7 -13 17 -21 39
-33 8 -6 37 -2 52 6 8 4 15 12 32 35 8 10 17 21 20 24 7 7 26 39 34 58 4 8 8
19 11 24 10 22 13 133 5 150 -3 5 -5 12 -5 16 0 4 -2 11 -4 16 -3 6 -5 15 -6
25 -1 18 -5 28 -27 65 -12 21 -14 28 -6 34 9 7 12 5 40 -22 14 -14 37 -35 49
-47 49 -44 77 -81 90 -118 11 -31 14 -40 14 -44 0 -2 2 -9 4 -16 4 -10 4 -15
4 -38 -1 -25 -1 -26 5 -35 5 -9 5 -10 5 -36 -1 -41 5 -50 34 -50 25 0 31 7 26
30 -1 6 -3 23 -5 38 -2 15 -4 36 -5 46 -1 10 -6 31 -10 45 -4 14 -8 27 -8 29
0 6 -24 68 -30 79 -23 39 -44 62 -95 105 -59 50 -64 55 -54 64 10 9 14 7 51
-28 19 -18 38 -35 42 -38 20 -14 54 -51 66 -71 6 -11 14 -25 18 -31 4 -6 9
-15 11 -20 2 -5 7 -15 11 -22 9 -14 15 -35 22 -65 2 -11 6 -25 7 -32 2 -7 4
-16 5 -22 2 -5 4 -16 7 -24 3 -11 4 -19 3 -39 0 -34 15 -46 45 -33 6 2 18 33
14 38 0 1 -2 13 -3 27 -5 54 -18 102 -37 143 -10 20 -19 41 -21 47 -2 6 -6 14
-9 17 -3 4 -6 10 -8 14 -1 3 -8 13 -14 22 -7 9 -16 22 -20 28 -7 9 -16 18 -32
30 -32 24 -75 69 -83 88 -4 8 1 14 22 28 12 8 25 16 30 20 21 13 74 67 95 96
22 29 26 36 33 54 2 5 7 15 11 22 7 12 13 27 18 46 1 7 5 20 8 30 3 10 6 23 7
30 1 6 4 14 5 18 2 3 5 10 6 15 2 5 4 13 6 17 1 4 3 12 3 17 0 5 2 15 4 21 6
16 7 46 1 54 -16 25 -50 12 -54 -21 -2 -14 -10 -52 -14 -64 -1 -5 -5 -19 -7
-31 -6 -29 -16 -62 -33 -106 -12 -29 -51 -87 -85 -124 -14 -16 -28 -32 -32
-37 -3 -4 -13 -12 -21 -17 -8 -5 -19 -13 -25 -18 -6 -5 -15 -11 -21 -13 -5 -2
-15 -8 -21 -12 -6 -4 -17 -10 -24 -13 -14 -6 -20 -9 -44 -21 -23 -13 -42 -8
-42 10 0 8 22 28 41 36 9 4 21 10 28 15 7 5 20 12 29 17 9 4 20 11 25 15 4 3
18 13 30 21 12 8 25 19 29 24 4 5 11 12 15 17 9 8 25 28 33 42 3 4 9 12 13 17
12 13 22 29 26 41 2 6 8 19 14 29 25 43 33 66 33 93 0 13 4 43 7 58 3 13 4 52
1 87 -1 25 -4 28 -22 30 -36 2 -43 -8 -40 -59 1 -21 1 -36 0 -44 -3 -17 -8
-53 -10 -70 -1 -8 -3 -17 -5 -20 -1 -4 -4 -11 -5 -16 -1 -6 -4 -12 -5 -14 -3
-6 -9 -19 -19 -46 -7 -20 -23 -48 -37 -63 -3 -4 -9 -11 -12 -16 -16 -23 -84
-78 -97 -78 -5 0 -2 47 3 55 5 7 6 11 7 30 1 12 3 25 4 30 2 8 2 45 -1 91 -2
22 -3 24 -13 46 -5 13 -10 26 -10 29 0 3 -2 10 -5 16 -7 15 -17 38 -17 41 0 3
-14 28 -20 36 -3 4 -8 11 -10 17 -3 5 -8 12 -13 16 -4 3 -16 14 -24 24 -26 29
-32 31 -51 22z m20 -66 c3 -3 9 -12 13 -20 4 -8 10 -17 13 -21 6 -6 22 -36 25
-46 1 -3 4 -10 6 -15 3 -6 5 -14 5 -18 0 -11 13 -57 22 -81 6 -14 8 -93 3
-106 -2 -5 -4 -19 -5 -30 -1 -12 -3 -23 -4 -26 -1 -3 -4 -9 -5 -15 -7 -28 -10
-34 -30 -63 -29 -43 -51 -40 -83 8 -15 22 -39 73 -41 84 -1 5 -3 12 -4 16 -6
14 -9 33 -7 44 1 6 2 19 2 29 0 14 1 22 4 29 2 6 4 19 5 28 0 11 2 20 4 24 3
6 4 13 5 37 1 23 2 31 5 37 2 3 4 13 5 22 2 17 16 47 28 62 4 4 10 12 15 17 8
10 10 11 19 4z m3 -554 c22 -10 57 -50 60 -69 1 -5 4 -15 8 -23 7 -13 13 -36
17 -62 2 -16 -1 -99 -5 -113 -2 -6 -3 -16 -4 -22 -1 -6 -3 -13 -4 -16 -2 -3
-4 -11 -5 -18 -1 -8 -3 -14 -7 -19 -4 -5 -8 -12 -11 -16 -6 -12 -31 -35 -45
-40 -16 -5 -62 61 -69 99 -1 7 -5 18 -9 25 -3 8 -7 16 -8 19 -1 3 -3 9 -6 14
-5 12 -6 99 -1 119 2 7 5 19 6 28 4 29 8 35 36 69 22 27 32 32 47 25z"/>
</g>
</svg>
