<?xml version="1.0" standalone="no"?>
<!DOCTYPE svg PUBLIC "-//W3C//DTD SVG 20010904//EN"
 "http://www.w3.org/TR/2001/REC-SVG-20010904/DTD/svg10.dtd">
<svg version="1.0" xmlns="http://www.w3.org/2000/svg"
 width="78.000000pt" height="148.000000pt" viewBox="0 0 78.000000 148.000000"
 preserveAspectRatio="xMidYMid meet">
<metadata>
Created by potrace 1.16, written by Peter Selinger 2001-2019
</metadata>
<g transform="translate(0.000000,148.000000) scale(0.100000,-0.100000)"
fill="#000000" stroke="none">
<path d="M192 1417 c-8 -9 0 -34 31 -94 38 -76 41 -85 29 -113 -20 -50 -31
-83 -37 -113 -5 -26 -8 -28 -48 -24 -31 3 -45 10 -53 26 -20 40 -32 47 -51 29
-14 -15 -14 -21 -3 -50 19 -47 22 -49 81 -56 l54 -7 0 -40 c0 -39 -1 -40 -38
-43 -24 -2 -48 3 -64 13 -34 23 -57 12 -48 -22 10 -40 33 -52 101 -53 66 0 73
-4 94 -60 7 -19 22 -44 32 -56 24 -28 23 -38 -13 -90 -16 -24 -36 -61 -43 -82
-12 -34 -16 -37 -54 -40 -35 -3 -42 0 -42 16 0 31 -24 55 -48 48 -27 -9 -27
-22 -2 -80 l19 -46 61 0 60 0 0 -35 0 -35 -54 0 c-45 0 -56 3 -61 19 -7 24
-34 35 -41 17 -3 -8 -4 -31 -2 -52 l3 -39 70 3 c39 1 75 -1 81 -5 6 -5 19 -24
29 -43 10 -19 26 -45 36 -58 17 -22 16 -24 -27 -100 -52 -91 -54 -104 -16
-100 22 2 33 14 60 68 18 36 38 65 45 65 8 0 13 -22 15 -63 2 -47 7 -65 19
-69 26 -10 43 25 43 89 0 32 4 58 10 58 5 0 25 -21 44 -48 84 -114 89 -117
119 -84 17 19 24 10 -96 138 l-28 31 30 67 30 67 28 -15 c34 -18 77 -58 99
-91 40 -61 74 -12 74 104 l0 85 -62 61 c-43 40 -79 66 -113 78 -39 13 -58 29
-88 68 -20 27 -37 59 -37 70 0 10 15 41 32 68 27 40 41 51 78 61 69 18 91 31
143 82 l47 47 0 81 c0 61 -5 91 -21 125 -25 52 -54 60 -70 19 -9 -25 -102
-135 -120 -142 -8 -3 -18 17 -58 116 l-22 53 38 56 c21 30 42 61 47 68 15 20
-1 47 -26 43 -21 -3 -38 -25 -75 -95 -10 -20 -24 -33 -36 -33 -17 0 -19 5 -12
33 3 17 9 49 12 70 5 35 4 37 -20 37 -23 0 -26 -5 -32 -47 -14 -100 -27 -103
-59 -13 -10 28 -26 55 -36 60 -24 13 -25 13 -38 -3z m180 -199 c8 -7 21 -29
28 -48 7 -19 22 -54 32 -78 23 -49 26 -172 6 -219 -32 -73 -58 -103 -89 -103
-27 0 -32 6 -59 66 -23 50 -30 81 -30 127 0 94 16 172 45 222 28 47 41 53 67
33z m302 -100 c16 -46 -1 -93 -54 -144 -69 -67 -120 -79 -120 -27 0 35 14 57
75 115 30 29 58 60 61 70 8 25 27 18 38 -14z m-304 -441 c63 -49 108 -171 97
-261 -8 -70 -42 -150 -69 -165 -24 -14 -28 -13 -61 15 -51 43 -71 101 -71 209
0 87 1 93 38 153 20 34 40 62 44 62 4 0 14 -6 22 -13z m228 -180 c36 -34 72
-102 72 -135 0 -30 -20 -38 -39 -15 -9 11 -37 36 -62 56 -37 30 -48 45 -53 78
-4 22 -4 45 0 50 9 15 46 0 82 -34z"/>
</g>
</svg>
