<?xml version="1.0" standalone="no"?>
<!DOCTYPE svg PUBLIC "-//W3C//DTD SVG 20010904//EN"
 "http://www.w3.org/TR/2001/REC-SVG-20010904/DTD/svg10.dtd">
<svg version="1.0" xmlns="http://www.w3.org/2000/svg"
 width="53.000000pt" height="100.000000pt" viewBox="0 0 53.000000 100.000000"
 preserveAspectRatio="xMidYMid meet">
<metadata>
Created by potrace 1.16, written by Peter Selinger 2001-2019
</metadata>
<g transform="translate(0.000000,100.000000) scale(0.100000,-0.100000)"
fill="#000000" stroke="none">
<path d="M125 960 c-4 -7 5 -35 20 -63 26 -47 27 -54 16 -96 -20 -74 -43 -89
-80 -50 -21 23 -51 20 -51 -6 0 -23 37 -55 65 -55 28 0 48 -29 35 -50 -7 -11
-16 -11 -48 -2 -52 16 -52 16 -52 -13 0 -29 32 -49 64 -41 29 7 56 -13 80 -59
l20 -36 -30 -56 c-36 -68 -50 -75 -80 -38 -37 47 -69 19 -43 -39 12 -24 35
-36 77 -36 15 0 22 -6 22 -20 0 -15 -7 -20 -27 -20 -16 0 -37 7 -47 15 -25 19
-36 11 -36 -26 0 -28 1 -29 50 -29 38 0 54 -5 70 -22 35 -37 36 -66 6 -120
-29 -51 -27 -68 5 -68 14 0 26 14 40 47 22 51 36 49 41 -7 5 -53 32 -47 36 7
2 24 7 43 12 43 5 0 23 -20 40 -45 19 -28 39 -45 51 -45 38 0 33 29 -15 80
l-46 50 15 37 c9 20 17 39 19 41 8 7 44 -18 71 -50 40 -47 59 -30 63 55 3 63
2 67 -33 106 -20 22 -55 47 -78 56 -26 10 -51 29 -66 51 -21 31 -23 37 -11 59
20 37 49 65 67 65 24 0 101 48 113 70 15 28 12 152 -5 173 -19 26 -38 19 -76
-32 -44 -57 -56 -60 -73 -19 -28 68 -28 73 4 113 33 41 36 68 8 73 -11 2 -26
-11 -43 -37 -34 -54 -46 -52 -38 5 5 42 4 46 -13 42 -13 -2 -21 -14 -24 -38
-6 -44 -16 -44 -38 0 -17 36 -45 50 -57 30z m154 -191 c39 -96 19 -229 -37
-237 -18 -3 -26 5 -42 43 -23 53 -25 83 -9 157 15 68 25 88 48 88 13 0 25 -16
40 -51z m179 -37 c4 -29 -64 -104 -91 -100 -35 5 -30 26 19 78 49 53 67 58 72
22z m-196 -289 c32 -37 48 -83 48 -140 0 -59 -23 -123 -47 -131 -39 -12 -93
119 -77 184 9 39 42 104 53 104 4 0 15 -8 23 -17z m152 -123 c34 -38 48 -80
26 -80 -18 0 -90 72 -90 89 0 19 8 31 21 31 3 0 23 -18 43 -40z"/>
</g>
</svg>
