<?xml version="1.0" standalone="no"?>
<!DOCTYPE svg PUBLIC "-//W3C//DTD SVG 20010904//EN"
 "http://www.w3.org/TR/2001/REC-SVG-20010904/DTD/svg10.dtd">
<svg version="1.0" xmlns="http://www.w3.org/2000/svg"
 width="94.000000pt" height="148.000000pt" viewBox="0 0 94.000000 148.000000"
 preserveAspectRatio="xMidYMid meet">
<metadata>
Created by potrace 1.16, written by Peter Selinger 2001-2019
</metadata>
<g transform="translate(0.000000,148.000000) scale(0.100000,-0.100000)"
fill="#000000" stroke="none">
<path d="M348 1390 c-19 -21 -39 -49 -45 -62 -36 -78 -47 -108 -57 -153 l-11
-50 -60 0 c-51 0 -61 3 -70 21 -6 12 -17 30 -25 39 -13 16 -15 16 -26 0 -13
-18 -8 -81 9 -102 6 -8 36 -13 83 -13 83 0 98 -12 92 -73 -3 -32 -3 -32 -66
-35 -62 -3 -63 -3 -73 28 -7 19 -18 30 -30 30 -28 0 -26 -68 2 -99 19 -20 27
-21 89 -15 61 6 71 4 99 -17 17 -12 31 -27 31 -32 0 -5 16 -27 36 -49 30 -34
34 -44 29 -71 -4 -18 -20 -49 -36 -70 -41 -52 -69 -115 -69 -159 0 -35 -2 -38
-29 -38 -59 0 -97 22 -92 54 5 24 -12 47 -32 44 -19 -3 -22 -10 -25 -65 l-3
-61 53 -11 c29 -6 70 -13 90 -17 43 -7 56 -19 64 -62 8 -41 -1 -44 -96 -35
l-75 8 -3 33 c-3 28 -7 33 -25 30 -20 -3 -22 -9 -22 -63 l0 -60 109 -1 c123 0
107 9 175 -100 22 -34 55 -71 75 -83 34 -21 38 -22 61 -7 34 23 74 78 95 133
25 67 42 75 80 38 43 -41 90 -112 97 -146 3 -16 12 -34 19 -40 21 -17 52 15
60 60 4 20 11 44 16 54 5 9 9 58 9 108 0 81 -3 96 -25 130 -59 89 -130 138
-225 154 -33 5 -45 13 -54 33 -6 15 -22 41 -34 58 -29 39 -30 89 -4 104 11 5
34 32 51 59 28 43 37 50 88 62 64 15 140 71 183 134 41 61 44 175 8 310 -12
43 -18 50 -41 53 -24 3 -28 -1 -38 -40 -7 -23 -21 -56 -33 -73 -21 -31 -116
-125 -126 -125 -3 0 -20 30 -37 68 -33 68 -128 193 -163 212 -16 8 -25 4 -53
-30z m81 -92 c98 -110 140 -310 86 -415 -55 -107 -89 -119 -136 -48 -78 117
-98 236 -59 349 25 73 61 146 72 146 5 0 21 -15 37 -32z m371 -111 c0 -93 -65
-203 -137 -233 -57 -24 -63 -20 -63 42 0 48 4 59 28 82 16 15 54 51 85 80 31
29 57 58 57 63 0 5 7 9 15 9 11 0 15 -11 15 -43z m-298 -627 c26 -54 32 -80
36 -160 4 -83 2 -102 -18 -145 -12 -28 -28 -65 -36 -83 -7 -17 -20 -32 -27
-32 -26 0 -76 66 -96 128 -55 164 -50 290 14 358 l34 36 31 -19 c20 -12 41
-40 62 -83z m144 -75 c44 -18 91 -67 115 -120 19 -42 26 -149 10 -159 -5 -3
-18 10 -29 29 -12 19 -48 55 -80 80 -33 26 -63 56 -66 68 -8 30 -7 102 1 110
9 9 8 9 49 -8z"/>
</g>
</svg>
