<?xml version="1.0" standalone="no"?>
<!DOCTYPE svg PUBLIC "-//W3C//DTD SVG 20010904//EN"
 "http://www.w3.org/TR/2001/REC-SVG-20010904/DTD/svg10.dtd">
<svg version="1.0" xmlns="http://www.w3.org/2000/svg"
 width="64.000000pt" height="100.000000pt" viewBox="0 0 64.000000 100.000000"
 preserveAspectRatio="xMidYMid meet">
<metadata>
Created by potrace 1.16, written by Peter Selinger 2001-2019
</metadata>
<g transform="translate(0.000000,100.000000) scale(0.100000,-0.100000)"
fill="#000000" stroke="none">
<path d="M232 938 c-23 -25 -56 -97 -67 -146 -6 -28 -10 -32 -41 -32 -25 0
-38 6 -50 25 -26 40 -46 32 -42 -17 3 -42 4 -43 43 -46 75 -5 87 -10 83 -40
-4 -37 -50 -43 -83 -12 -13 12 -28 19 -34 15 -14 -8 -14 -41 0 -66 9 -18 17
-19 64 -14 54 7 54 7 94 -36 23 -24 41 -53 41 -64 0 -11 -14 -38 -30 -60 -17
-21 -33 -57 -37 -78 -3 -21 -12 -41 -19 -44 -17 -6 -64 23 -64 40 0 23 -22 38
-37 26 -17 -14 -17 -73 0 -87 7 -6 36 -14 65 -18 52 -7 81 -31 67 -54 -11 -18
-84 -11 -105 10 -31 31 -50 26 -50 -13 0 -49 14 -57 85 -50 69 6 68 7 115 -70
55 -88 107 -82 154 18 15 30 30 55 34 55 15 0 60 -55 79 -95 20 -44 46 -56 62
-27 18 34 31 145 21 187 -12 55 -82 120 -145 136 -35 9 -52 20 -71 48 -13 19
-24 43 -24 52 0 30 63 99 100 109 51 14 94 43 126 85 23 31 28 47 28 89 -2
111 -22 176 -55 176 -5 0 -21 -25 -35 -55 -24 -50 -73 -105 -94 -105 -4 0 -13
14 -21 31 -21 53 -97 149 -117 149 -10 0 -28 -10 -40 -22z m66 -75 c36 -51 53
-94 63 -154 8 -51 7 -66 -9 -102 -22 -49 -46 -72 -66 -64 -9 4 -29 34 -47 69
-28 55 -31 69 -26 123 5 62 39 155 56 155 5 0 18 -12 29 -27z m241 -96 c-29
-103 -146 -176 -124 -79 8 39 113 141 125 122 4 -7 4 -26 -1 -43z m-212 -369
c38 -57 45 -173 15 -242 -12 -26 -28 -46 -37 -46 -23 0 -53 57 -71 136 -17 78
-9 141 23 177 24 26 40 21 70 -25z m143 -94 c17 -15 37 -39 45 -55 16 -29 20
-89 8 -89 -5 0 -32 22 -60 49 -45 42 -53 54 -53 85 0 44 16 47 60 10z"/>
</g>
</svg>
