<?xml version="1.0" standalone="no"?>
<!DOCTYPE svg PUBLIC "-//W3C//DTD SVG 20010904//EN"
 "http://www.w3.org/TR/2001/REC-SVG-20010904/DTD/svg10.dtd">
<svg version="1.0" xmlns="http://www.w3.org/2000/svg"
 width="88.000000pt" height="148.000000pt" viewBox="0 0 88.000000 148.000000"
 preserveAspectRatio="xMidYMid meet">
<metadata>
Created by potrace 1.16, written by Peter Selinger 2001-2019
</metadata>
<g transform="translate(0.000000,148.000000) scale(0.100000,-0.100000)"
fill="#000000" stroke="none">
<path d="M358 1377 c-48 -42 -64 -77 -98 -214 l-11 -43 -52 0 c-61 0 -69 4
-91 48 -10 20 -24 32 -36 32 -30 0 -26 -55 6 -97 24 -32 27 -33 95 -33 l70 0
-3 -52 -3 -53 -51 -3 c-49 -3 -51 -2 -78 38 -14 22 -33 40 -41 40 -22 0 -19
-59 5 -95 19 -29 23 -30 106 -35 l86 -5 21 -55 c11 -30 31 -73 45 -94 l24 -39
-40 -86 c-23 -47 -44 -97 -48 -111 -10 -37 -23 -50 -55 -50 -46 0 -76 17 -87
49 -13 37 -38 49 -59 29 -13 -14 -12 -21 10 -64 l25 -49 73 -10 c67 -9 73 -12
82 -38 15 -45 4 -57 -53 -57 -43 0 -55 5 -87 35 -42 39 -57 40 -61 3 -2 -19 7
-33 45 -62 45 -36 51 -38 103 -33 61 5 80 1 80 -16 2 -50 112 -197 147 -197
22 0 98 82 122 133 28 58 44 131 45 202 1 54 3 60 23 63 18 3 27 -7 51 -55 43
-87 75 -199 68 -237 -4 -18 -3 -35 0 -39 11 -10 44 12 44 30 0 9 7 24 15 33
12 13 15 45 16 141 1 174 -22 256 -97 338 -32 36 -34 41 -22 67 7 16 29 51 49
77 68 91 96 259 68 402 -6 28 -13 74 -18 103 -8 57 -21 78 -45 69 -13 -5 -16
-26 -16 -117 l0 -110 -46 -80 c-70 -121 -94 -120 -87 2 2 46 0 92 -5 103 -75
165 -125 235 -166 235 -12 0 -42 -19 -68 -43z m97 -64 c36 -38 49 -71 77 -193
18 -82 18 -123 -1 -185 -22 -71 -80 -185 -94 -185 -5 0 -24 7 -42 16 -25 11
-40 30 -61 77 -24 53 -29 77 -32 172 -3 85 0 120 13 155 9 25 20 59 24 76 5
17 17 45 27 63 23 39 54 40 89 4z m305 -262 c0 -27 -47 -151 -65 -171 -8 -9
-15 -20 -15 -25 0 -4 -18 -34 -40 -67 -22 -33 -40 -64 -40 -68 0 -5 15 -28 33
-52 18 -24 42 -59 52 -78 11 -19 30 -49 41 -67 12 -18 25 -49 28 -70 4 -21 12
-51 18 -66 7 -18 8 -31 1 -38 -10 -10 -61 57 -103 136 -33 64 -121 172 -153
190 -44 24 -46 43 -9 87 16 18 48 62 73 98 24 36 62 88 84 115 23 28 49 63 58
78 19 29 37 28 37 -2z m-290 -418 c68 -64 83 -107 75 -208 -9 -105 -21 -148
-63 -218 -41 -67 -60 -72 -103 -24 -72 78 -94 198 -60 329 23 89 67 168 93
168 4 0 31 -21 58 -47z"/>
<path d="M397 1204 c-10 -11 -8 -302 2 -308 5 -4 16 -3 25 0 14 6 16 26 14
158 -3 127 -5 151 -18 154 -9 1 -19 0 -23 -4z"/>
<path d="M407 553 c-4 -3 -7 -73 -7 -155 0 -149 0 -149 23 -146 21 3 22 7 25
133 1 72 0 140 -3 153 -5 21 -25 29 -38 15z"/>
</g>
</svg>
