<?xml version="1.0" standalone="no"?>
<!DOCTYPE svg PUBLIC "-//W3C//DTD SVG 20010904//EN"
 "http://www.w3.org/TR/2001/REC-SVG-20010904/DTD/svg10.dtd">
<svg version="1.0" xmlns="http://www.w3.org/2000/svg"
 width="59.000000pt" height="100.000000pt" viewBox="0 0 59.000000 100.000000"
 preserveAspectRatio="xMidYMid meet">
<metadata>
Created by potrace 1.16, written by Peter Selinger 2001-2019
</metadata>
<g transform="translate(0.000000,100.000000) scale(0.100000,-0.100000)"
fill="#000000" stroke="none">
<path d="M232 932 c-18 -17 -35 -47 -42 -73 -21 -81 -31 -99 -57 -99 -14 0
-36 13 -53 31 -30 33 -50 32 -50 -4 1 -32 24 -57 53 -57 63 0 97 -36 65 -68
-18 -18 -33 -15 -67 14 -46 38 -71 7 -35 -44 12 -17 25 -22 62 -22 59 0 64 -4
91 -64 27 -63 26 -78 -12 -156 -28 -56 -35 -65 -57 -62 -14 1 -30 10 -37 20
-30 42 -35 45 -50 29 -13 -13 -13 -19 -2 -42 16 -33 29 -41 87 -55 32 -8 42
-15 40 -28 -5 -25 -44 -26 -83 -2 -58 36 -78 1 -24 -44 22 -19 42 -26 73 -26
36 0 45 -4 56 -28 31 -59 74 -112 93 -112 52 0 117 120 117 216 0 24 4 45 9
48 23 15 67 -82 77 -169 8 -66 25 -71 48 -15 34 86 13 256 -39 318 -32 38 -31
59 0 102 52 71 68 188 44 329 -13 74 -23 91 -41 72 -8 -7 -13 -41 -13 -89 0
-69 -3 -82 -30 -122 -17 -25 -35 -45 -40 -45 -6 0 -12 32 -15 70 -7 102 -65
205 -116 205 -12 0 -35 -13 -52 -28z m84 -69 c27 -40 48 -140 42 -197 -3 -25
-16 -67 -29 -93 -19 -38 -29 -48 -49 -48 -19 0 -30 9 -45 40 -30 60 -29 221 2
288 26 56 46 59 79 10z m184 -181 c0 -16 -20 -60 -45 -101 -25 -40 -45 -82
-45 -93 0 -10 11 -34 24 -51 32 -43 62 -105 71 -147 7 -30 6 -33 -7 -22 -9 7
-44 53 -78 102 -35 50 -67 90 -72 90 -25 0 -17 36 22 93 70 100 114 157 122
157 4 0 8 -13 8 -28z m-169 -274 c29 -41 31 -47 27 -119 -5 -90 -40 -174 -73
-174 -27 0 -63 57 -71 113 -13 84 29 222 67 222 11 0 32 -19 50 -42z"/>
<path d="M266 805 c-3 -9 -6 -57 -6 -107 0 -80 2 -89 18 -86 15 3 17 16 17
102 0 65 -4 101 -11 103 -6 2 -14 -3 -18 -12z"/>
<path d="M275 368 c-10 -25 -1 -193 10 -193 13 0 19 185 6 198 -7 7 -12 5 -16
-5z"/>
</g>
</svg>
