<?xml version="1.0" standalone="no"?>
<!DOCTYPE svg PUBLIC "-//W3C//DTD SVG 20010904//EN"
 "http://www.w3.org/TR/2001/REC-SVG-20010904/DTD/svg10.dtd">
<svg version="1.0" xmlns="http://www.w3.org/2000/svg"
 width="348.000000pt" height="590.000000pt" viewBox="0 0 348.000000 590.000000"
 preserveAspectRatio="xMidYMid meet">
<metadata>
Created by potrace 1.16, written by Peter Selinger 2001-2019
</metadata>
<g transform="translate(0.000000,590.000000) scale(0.500000,-0.500000)"
fill="#000000" stroke="none">
<path d="M321 1131 c-5 -3 -15 -10 -22 -16 -6 -6 -13 -11 -14 -11 -10 0 -36
-35 -46 -64 -4 -10 -9 -24 -11 -29 -2 -6 -5 -15 -5 -21 -1 -6 -3 -15 -5 -20
-2 -6 -4 -11 -4 -13 0 -2 -1 -7 -3 -10 -2 -3 -4 -11 -4 -18 -4 -40 -93 -48
-110 -10 -28 63 -71 57 -52 -7 15 -47 24 -53 89 -54 61 -1 56 3 56 -43 0 -45
-1 -46 -52 -45 -29 1 -37 5 -43 21 -4 12 -26 40 -32 42 -27 7 -30 -40 -5 -77
5 -6 8 -12 8 -14 0 -1 3 -5 7 -9 l7 -7 61 0 c69 0 83 -7 83 -39 0 -2 4 -11 8
-19 4 -9 8 -19 9 -24 1 -5 4 -11 9 -17 4 -5 8 -12 9 -16 1 -4 4 -11 8 -17 12
-18 3 -61 -19 -89 -8 -10 -29 -61 -39 -93 -6 -20 -12 -30 -19 -31 -3 -1 -7 -2
-9 -2 -30 -7 -70 9 -78 30 -12 36 -15 38 -32 36 -26 -2 -30 -17 -14 -48 5 -10
9 -20 10 -23 6 -21 16 -28 41 -29 10 -1 21 -3 26 -5 7 -3 16 -4 34 -4 27 -1
30 -3 30 -14 0 -3 2 -10 4 -16 7 -18 3 -36 -8 -36 -8 0 -56 -2 -59 -2 -9 0
-15 3 -40 27 -31 28 -35 30 -47 20 -15 -13 -6 -46 18 -58 5 -2 13 -8 17 -13
21 -22 18 -21 76 -22 61 -1 61 -1 65 -22 1 -6 4 -14 7 -18 3 -3 7 -10 8 -15 7
-21 20 -44 35 -60 8 -9 21 -23 28 -33 28 -36 70 -28 94 19 7 15 10 18 18 24 8
5 10 8 12 14 3 10 13 31 19 37 6 6 9 14 9 23 0 4 1 10 3 14 1 4 3 13 4 20 1 6
3 14 4 17 2 3 4 12 5 19 1 8 3 18 5 23 3 7 3 11 1 21 -3 19 -3 55 1 60 7 10
28 7 35 -5 1 -4 6 -11 9 -17 3 -5 9 -17 13 -25 3 -8 8 -18 10 -22 2 -4 5 -13
7 -20 2 -7 7 -22 12 -33 6 -13 9 -23 9 -28 0 -5 3 -15 8 -26 10 -22 11 -44 4
-64 -6 -19 2 -28 17 -20 12 7 16 11 22 28 3 10 8 19 12 23 10 11 11 13 10 71
-1 45 -1 55 2 63 2 8 2 10 0 19 -3 8 -3 15 -2 33 1 21 1 25 -3 35 -3 7 -6 21
-8 32 -7 34 -20 66 -36 90 -3 4 -9 14 -14 22 -5 9 -13 18 -22 26 -16 15 -18
21 -12 37 2 6 6 15 8 21 2 5 8 14 13 21 31 37 53 74 56 94 1 5 6 23 12 39 l10
30 1 72 c2 68 2 72 -2 83 -3 8 -4 16 -4 34 0 23 0 24 -6 31 -9 12 -10 14 -11
49 -1 44 -9 58 -29 53 -17 -4 -21 -32 -18 -112 2 -58 2 -58 -3 -71 -7 -17 -25
-50 -31 -58 -3 -4 -7 -11 -10 -15 -2 -4 -6 -11 -10 -16 -3 -4 -6 -11 -7 -15
-2 -8 -5 -12 -16 -20 -21 -14 -34 0 -26 27 3 10 3 12 0 22 -2 8 -3 18 -3 49 1
39 1 39 -5 50 -6 13 -12 29 -15 41 -1 5 -5 13 -8 17 -3 5 -6 10 -6 12 0 6 -8
19 -17 30 -5 5 -10 13 -10 16 -4 15 -20 38 -31 44 -4 2 -10 7 -14 11 -14 15
-29 17 -47 8z m25 -65 c4 -3 9 -9 13 -15 6 -10 16 -19 24 -24 2 -1 4 -7 6 -13
1 -7 5 -15 8 -18 2 -4 6 -12 7 -19 1 -6 2 -12 3 -13 1 -1 2 -8 3 -16 1 -10 3
-15 7 -22 6 -7 7 -10 8 -27 0 -12 2 -21 4 -25 6 -10 7 -83 2 -96 -2 -5 -4 -15
-5 -22 -1 -8 -4 -16 -8 -22 -3 -5 -7 -14 -8 -20 -2 -13 -9 -33 -13 -36 -2 -1
-4 -7 -6 -12 -2 -7 -7 -13 -12 -19 -7 -6 -10 -11 -13 -22 -6 -18 -8 -20 -21
-18 -5 1 -14 2 -20 2 -8 1 -11 2 -19 10 -5 4 -12 10 -14 12 -9 5 -36 64 -41
88 -2 8 -4 18 -5 22 -4 11 -5 155 -2 164 1 3 3 12 4 19 1 8 5 19 12 33 8 17
10 22 11 36 1 13 2 18 7 24 3 4 7 11 8 15 10 30 41 48 60 34z m254 -212 c5
-10 -2 -48 -14 -71 -2 -4 -5 -13 -6 -20 -4 -20 -10 -32 -23 -50 -15 -20 -17
-24 -21 -36 -1 -4 -5 -11 -8 -15 -3 -4 -7 -10 -9 -13 -2 -4 -7 -11 -12 -17 -5
-5 -10 -14 -12 -20 -2 -5 -4 -11 -5 -11 -3 -2 -12 -22 -12 -26 0 -1 3 -7 7
-12 4 -5 9 -14 11 -19 3 -8 8 -14 16 -22 6 -6 13 -15 16 -20 2 -6 9 -18 16
-28 7 -10 13 -22 14 -26 1 -5 5 -12 10 -16 9 -9 28 -46 28 -55 0 -3 1 -10 3
-16 2 -5 3 -15 3 -22 0 -10 1 -14 6 -22 11 -16 10 -35 -1 -35 -4 0 -6 2 -8 7
-6 14 -20 36 -26 40 -5 4 -17 25 -17 30 0 2 -3 5 -7 8 -3 3 -10 13 -14 21 -4
9 -12 21 -17 27 -6 6 -14 19 -18 28 -4 9 -11 20 -15 24 -4 5 -8 12 -10 16 -2
4 -8 12 -14 18 -5 6 -14 16 -20 22 -7 8 -16 14 -31 23 -34 20 -34 34 2 71 15
16 20 22 21 27 1 5 3 10 8 14 4 3 11 12 16 20 5 8 12 18 16 22 9 11 20 30 22
37 1 3 9 14 22 27 12 12 21 23 21 24 0 1 4 6 8 11 5 5 14 18 20 28 19 28 29
36 34 27z m-255 -319 c8 -4 14 -10 18 -15 9 -13 26 -29 35 -34 8 -4 28 -39 28
-49 0 -2 2 -8 4 -12 4 -7 4 -10 4 -77 l-1 -69 -9 -19 c-4 -11 -8 -23 -8 -26 0
-8 -11 -33 -18 -42 -3 -4 -8 -12 -12 -19 -33 -58 -47 -62 -82 -23 -36 40 -52
77 -56 128 -6 68 -5 93 5 115 5 11 9 30 9 43 0 10 8 33 15 43 3 3 7 12 11 20
17 35 37 47 57 36z"/>
<path d="M317 961 c-4 -6 -5 -21 -6 -140 -1 -107 -2 -101 15 -103 21 -1 21 -3
22 70 1 35 3 86 4 114 1 30 1 52 0 55 -4 10 -29 13 -35 4z"/>
<path d="M324 444 c-8 -6 -9 -229 -1 -237 6 -7 23 -7 29 -1 5 5 6 226 2 235
-5 8 -22 10 -30 3z"/>
</g>
</svg>
