<?xml version="1.0" standalone="no"?>
<!DOCTYPE svg PUBLIC "-//W3C//DTD SVG 20010904//EN"
 "http://www.w3.org/TR/2001/REC-SVG-20010904/DTD/svg10.dtd">
<svg version="1.0" xmlns="http://www.w3.org/2000/svg"
 width="68.000000pt" height="100.000000pt" viewBox="0 0 68.000000 100.000000"
 preserveAspectRatio="xMidYMid meet">
<metadata>
Created by potrace 1.16, written by Peter Selinger 2001-2019
</metadata>
<g transform="translate(0.000000,100.000000) scale(0.100000,-0.100000)"
fill="#000000" stroke="none">
<path d="M495 915 c-44 -30 -86 -54 -92 -54 -7 -1 -20 11 -30 27 -53 85 -88
93 -133 30 -28 -38 -40 -70 -55 -140 -4 -23 -11 -28 -36 -28 -23 0 -34 7 -51
35 -24 41 -51 43 -56 5 -4 -37 45 -80 97 -87 36 -5 42 -9 39 -27 -5 -34 -63
-34 -98 -1 -16 15 -33 24 -39 21 -19 -12 -12 -52 14 -80 22 -23 29 -26 67 -20
24 4 50 8 58 8 16 1 69 -88 70 -116 0 -10 -9 -32 -20 -50 -11 -18 -25 -50 -31
-70 -14 -55 -42 -53 -84 7 -11 16 -18 18 -31 9 -26 -15 -26 -25 -4 -61 14 -24
27 -33 46 -33 14 0 34 -5 45 -11 16 -8 18 -13 8 -25 -17 -21 -44 -17 -78 12
-49 41 -76 18 -50 -40 11 -23 18 -25 78 -28 l66 -3 45 -68 c68 -103 89 -107
131 -25 11 22 26 41 34 44 8 3 53 -22 101 -55 70 -49 90 -59 105 -50 11 5 19
15 19 22 0 7 -42 39 -92 72 -110 69 -128 84 -128 102 0 26 36 13 117 -43 85
-58 117 -65 111 -22 -2 16 -31 39 -107 84 l-105 61 -29 69 c-40 97 -42 109
-19 146 11 18 28 63 37 99 l17 66 98 59 c55 33 102 65 105 73 3 8 -1 21 -9 30
-14 13 -25 8 -101 -42 -85 -57 -115 -68 -115 -44 0 19 22 37 115 95 78 48 100
76 73 93 -18 12 -13 14 -103 -46z m-167 -37 c23 -23 13 -45 -28 -62 -67 -27
-75 -18 -39 40 21 35 46 43 67 22z m38 -106 c-3 -5 -33 -19 -67 -31 -44 -17
-64 -20 -72 -12 -15 15 1 30 65 57 44 19 55 20 67 9 7 -7 11 -17 7 -23z m12
-54 c2 -11 -17 -23 -63 -42 -79 -31 -87 -32 -83 -5 2 16 19 27 63 44 66 26 78
26 83 3z m-8 -68 c0 -13 -14 -27 -40 -40 -46 -23 -80 -26 -80 -6 0 17 11 25
65 47 53 22 55 22 55 -1z m-58 -342 c103 -37 99 -87 -4 -52 -65 22 -78 31 -78
55 0 24 10 24 82 -3z m-8 -79 c31 -11 58 -24 61 -29 8 -13 -6 -40 -21 -40 -25
0 -93 39 -104 59 -20 38 -13 39 64 10z"/>
</g>
</svg>
