<?xml version="1.0" standalone="no"?>
<!DOCTYPE svg PUBLIC "-//W3C//DTD SVG 20010904//EN"
 "http://www.w3.org/TR/2001/REC-SVG-20010904/DTD/svg10.dtd">
<svg version="1.0" xmlns="http://www.w3.org/2000/svg"
 width="100.000000pt" height="148.000000pt" viewBox="0 0 100.000000 148.000000"
 preserveAspectRatio="xMidYMid meet">
<metadata>
Created by potrace 1.16, written by Peter Selinger 2001-2019
</metadata>
<g transform="translate(0.000000,148.000000) scale(0.100000,-0.100000)"
fill="#000000" stroke="none">
<path d="M389 1393 c-47 -52 -87 -128 -105 -198 -9 -38 -18 -76 -20 -82 -2 -8
-20 -13 -42 -13 -42 0 -67 20 -96 78 -19 38 -28 39 -55 11 -22 -24 -19 -32 41
-111 27 -35 33 -37 91 -40 58 -3 62 -5 65 -29 4 -33 -12 -45 -70 -52 -46 -6
-48 -6 -75 33 -45 63 -73 64 -73 3 0 -37 29 -86 61 -104 19 -10 49 -6 156 17
20 4 27 -5 55 -63 18 -38 36 -69 41 -71 11 -5 8 -100 -3 -107 -17 -11 -54 -87
-65 -135 -10 -41 -14 -45 -43 -48 -43 -4 -68 12 -76 48 -5 28 -9 31 -38 28
-43 -4 -47 -30 -14 -89 25 -44 26 -44 88 -49 59 -5 63 -7 63 -30 0 -24 -3 -25
-61 -28 -61 -3 -62 -3 -82 33 -23 38 -42 44 -63 19 -10 -13 -10 -22 0 -52 25
-69 35 -74 135 -70 l90 3 22 -40 c12 -22 30 -53 40 -70 9 -16 33 -49 52 -73
48 -59 75 -55 124 18 20 30 39 67 42 82 3 16 10 28 16 28 6 0 71 -43 144 -95
73 -52 138 -95 143 -95 13 0 43 33 43 47 0 6 -21 24 -47 39 -27 15 -82 52
-123 81 -41 30 -91 64 -110 76 -26 17 -36 31 -38 55 -3 25 0 32 15 32 21 0
163 -92 213 -138 48 -45 69 -50 91 -21 28 36 24 46 -33 79 -57 34 -116 70
-219 136 -58 36 -67 47 -73 80 -4 21 -26 75 -48 120 -38 79 -39 84 -24 111 45
83 74 155 81 202 9 63 35 96 116 143 103 60 208 133 208 144 1 6 -10 21 -23
33 l-23 22 -29 -24 c-44 -37 -223 -157 -234 -157 -5 0 -13 7 -18 16 -11 19 12
74 31 74 6 0 20 9 32 20 12 11 44 33 72 48 77 41 163 101 163 113 0 16 -26 39
-44 39 -14 0 -131 -71 -232 -141 -46 -31 -48 -31 -78 29 -27 52 -86 112 -110
112 -12 0 -34 -12 -47 -27z m108 -103 c24 -37 19 -54 -20 -66 -12 -4 -46 -18
-76 -31 -59 -27 -78 -21 -57 17 62 114 67 120 100 116 21 -2 37 -14 53 -36z
m43 -109 c19 -37 10 -46 -83 -79 -121 -44 -132 -45 -132 -8 0 27 7 32 85 66
99 44 116 47 130 21z m15 -116 c0 -27 -6 -31 -94 -67 -52 -21 -102 -38 -112
-38 -21 0 -36 37 -21 52 14 14 204 87 217 84 6 -2 10 -15 10 -31z m0 -76 c4
-5 2 -23 -5 -39 -9 -23 -28 -35 -91 -60 -64 -26 -82 -30 -94 -20 -32 27 -17
47 53 74 37 15 78 33 92 41 30 17 37 18 45 4z m-40 -146 c-10 -40 -44 -83 -65
-83 -19 0 -45 30 -52 59 -2 8 16 20 47 31 71 26 78 25 70 -7z m-38 -195 c33
-36 47 -65 34 -73 -10 -6 -88 20 -108 36 -10 9 -9 17 8 40 11 16 24 29 28 29
4 0 21 -15 38 -32z m-22 -94 c73 -27 108 -55 99 -79 -4 -11 -24 -7 -97 19 -91
33 -104 43 -93 71 7 20 9 19 91 -11z m-53 -75 c29 -11 73 -28 98 -36 59 -20
70 -30 70 -62 0 -50 -14 -50 -135 -2 -120 48 -129 56 -105 102 13 23 8 23 72
-2z m58 -145 c47 -18 85 -36 85 -41 -1 -31 -19 -74 -28 -70 -128 51 -148 62
-168 95 -23 40 -19 68 9 57 9 -5 55 -23 102 -41z m0 -122 c46 -23 46 -47 1
-47 -29 0 -38 6 -54 33 -18 31 -18 32 0 32 10 -1 34 -9 53 -18z"/>
</g>
</svg>
