<?xml version="1.0" standalone="no"?>
<!DOCTYPE svg PUBLIC "-//W3C//DTD SVG 20010904//EN"
 "http://www.w3.org/TR/2001/REC-SVG-20010904/DTD/svg10.dtd">
<svg version="1.0" xmlns="http://www.w3.org/2000/svg"
 width="396.000000pt" height="590.000000pt" viewBox="0 0 396.000000 590.000000"
 preserveAspectRatio="xMidYMid meet">
<metadata>
Created by potrace 1.16, written by Peter Selinger 2001-2019
</metadata>
<g transform="translate(0.000000,590.000000) scale(0.500000,-0.500000)"
fill="#000000" stroke="none">
<path d="M671 1136 c-7 -3 -110 -68 -173 -109 -33 -21 -37 -23 -43 -14 -8 10
-19 31 -20 36 -1 4 -4 10 -8 14 -3 5 -8 12 -11 17 -20 40 -69 67 -90 50 -27
-24 -42 -40 -43 -48 -1 -5 -4 -12 -8 -17 -3 -4 -9 -13 -11 -19 -3 -6 -10 -15
-14 -21 -4 -5 -8 -11 -9 -14 -4 -17 -9 -36 -12 -47 -8 -24 -9 -30 -11 -44 -3
-32 -7 -36 -35 -36 -33 0 -37 2 -51 15 -12 12 -14 15 -30 49 -10 22 -20 23
-39 6 -17 -15 -12 -49 11 -69 3 -2 6 -8 8 -12 6 -11 20 -29 29 -37 7 -6 7 -6
50 -6 53 0 51 1 51 -27 0 -26 -6 -31 -37 -31 -5 0 -18 -1 -27 -3 -25 -5 -31
-2 -41 18 -13 27 -41 49 -55 42 -12 -6 -17 -42 -8 -59 35 -65 41 -69 104 -58
95 16 87 18 107 -33 4 -10 10 -21 13 -26 3 -4 7 -11 7 -15 2 -9 6 -16 11 -21
12 -11 15 -59 5 -73 -3 -4 -7 -11 -10 -17 -4 -5 -9 -13 -12 -18 -4 -4 -8 -12
-9 -16 -3 -9 -7 -16 -14 -23 -3 -4 -5 -9 -5 -16 -1 -6 -3 -15 -4 -19 -2 -4 -3
-15 -4 -23 -2 -22 -2 -23 -39 -21 -38 1 -40 2 -51 37 -5 16 -10 22 -20 24 -36
10 -54 -23 -32 -59 4 -6 11 -20 16 -30 13 -27 10 -26 57 -26 55 -1 54 -1 54
-23 0 -21 0 -21 -41 -23 -49 -2 -52 0 -66 28 -16 32 -33 36 -56 14 -9 -10 -9
-13 3 -44 24 -61 21 -59 113 -54 66 3 69 3 69 -5 0 -6 20 -42 28 -51 10 -13
21 -31 24 -41 2 -6 6 -13 18 -25 9 -9 16 -18 16 -20 0 -2 5 -8 11 -14 32 -35
55 -31 79 12 4 7 9 15 12 19 4 4 7 11 8 16 2 6 5 12 11 18 7 7 9 12 13 26 5
20 9 25 17 22 5 -2 161 -113 177 -126 31 -26 54 -26 68 -2 13 22 13 22 -35 54
-57 38 -75 50 -90 62 -8 6 -18 14 -22 17 -4 2 -13 9 -20 15 -7 6 -15 10 -20
12 -10 2 -35 19 -46 29 -20 21 -10 62 14 50 10 -5 107 -67 117 -75 4 -4 11 -8
13 -10 3 -2 7 -7 10 -11 3 -3 10 -10 16 -13 6 -4 15 -10 21 -15 32 -27 65 -12
62 29 -1 15 0 14 -43 40 -20 13 -41 27 -47 31 -6 5 -12 9 -13 9 -2 0 -9 4 -16
9 -7 5 -17 11 -23 14 -22 11 -101 61 -107 68 -10 12 -18 30 -21 53 -1 7 -4 17
-7 22 -2 5 -6 14 -8 19 -2 6 -5 13 -7 15 -5 6 -13 24 -15 30 0 3 -4 9 -7 13
-17 21 -19 64 -5 79 6 5 11 12 13 19 3 5 7 13 10 16 5 5 7 10 9 21 3 15 5 21
10 26 5 5 15 39 15 49 0 5 1 12 3 17 2 4 4 15 5 24 1 18 10 35 20 42 2 1 5 4
6 7 2 3 6 7 10 10 20 13 36 23 49 29 31 16 46 25 53 32 4 5 23 19 43 32 84 56
81 52 60 74 -5 6 -12 14 -14 17 -7 10 -15 7 -51 -21 -8 -6 -33 -23 -55 -38
-127 -87 -119 -82 -124 -68 -6 13 -6 21 0 30 2 5 5 11 6 14 2 8 9 14 18 16 5
2 14 8 27 20 12 10 23 19 27 20 5 1 12 5 16 8 7 5 16 9 35 16 3 1 9 5 12 9 3
4 21 17 40 30 55 36 54 34 44 53 -11 23 -23 30 -39 22z m-294 -82 c4 -2 8 -8
12 -15 3 -7 9 -16 12 -20 13 -14 11 -24 -6 -32 -9 -4 -89 -39 -106 -46 -26
-11 -25 23 2 53 5 6 11 15 13 22 3 7 8 16 12 20 4 4 9 11 12 16 7 9 34 10 49
2z m44 -102 c24 -23 22 -40 -7 -51 -31 -12 -41 -16 -80 -31 -20 -7 -40 -15
-44 -17 -22 -9 -38 6 -32 29 4 14 11 20 38 32 14 6 41 18 61 27 35 15 48 21
52 21 1 0 6 -5 12 -10z m22 -82 c10 -27 4 -37 -33 -53 -14 -6 -45 -19 -70 -30
-59 -25 -67 -25 -76 -5 -10 23 -2 33 42 50 33 12 62 23 100 38 28 10 33 10 37
0z m-3 -81 c5 -11 -7 -47 -18 -53 -17 -9 -112 -44 -118 -44 -8 0 -24 20 -24
29 0 13 -1 13 108 58 44 18 48 19 52 10z m-28 -93 c3 -4 3 -11 -2 -23 -2 -5
-4 -12 -5 -16 -1 -3 -4 -9 -8 -13 -4 -4 -7 -9 -7 -10 0 -3 -18 -22 -23 -24
-12 -4 -29 9 -41 31 -11 22 -10 24 24 37 58 22 57 22 62 18z m-45 -168 c6 -5
12 -10 13 -10 10 0 35 -47 29 -56 -5 -9 -89 24 -89 35 0 31 28 49 47 31z m-23
-78 c92 -33 96 -36 96 -62 0 -17 -2 -16 -80 12 -75 27 -76 28 -70 48 5 18 11
18 54 2z m5 -75 c105 -38 101 -36 101 -70 0 -24 -4 -33 -14 -33 -4 0 -142 54
-163 64 -15 7 -17 28 -6 49 10 17 6 18 82 -10z m8 -102 c87 -35 84 -33 73 -55
-2 -4 -4 -12 -5 -17 -3 -23 -5 -23 -71 5 -56 24 -59 26 -67 44 -1 3 -4 8 -8
12 -12 15 -16 31 -9 38 6 6 5 6 87 -27z m4 -100 c34 -15 37 -17 32 -27 -6 -13
-8 -14 -24 -14 -23 0 -32 7 -44 34 -12 27 -12 26 36 7z"/>
</g>
</svg>
