<?xml version="1.0" standalone="no"?>
<!DOCTYPE svg PUBLIC "-//W3C//DTD SVG 20010904//EN"
 "http://www.w3.org/TR/2001/REC-SVG-20010904/DTD/svg10.dtd">
<svg version="1.0" xmlns="http://www.w3.org/2000/svg"
 width="56.000000pt" height="148.000000pt" viewBox="0 0 56.000000 148.000000"
 preserveAspectRatio="xMidYMid meet">
<metadata>
Created by potrace 1.16, written by Peter Selinger 2001-2019
</metadata>
<g transform="translate(0.000000,148.000000) scale(0.100000,-0.100000)"
fill="#000000" stroke="none">
<path d="M162 1397 c-70 -37 -112 -115 -112 -207 0 -93 39 -164 111 -201 45
-23 43 -31 -12 -59 -21 -11 -39 -25 -39 -31 0 -5 -8 -22 -17 -36 -41 -63 -51
-123 -31 -182 23 -65 44 -96 92 -131 l47 -35 -28 -23 c-82 -66 -103 -107 -105
-201 -1 -60 3 -75 30 -122 30 -52 86 -99 116 -99 8 0 18 -4 21 -10 14 -22 96
-5 162 34 63 38 132 217 93 241 -5 3 -10 14 -10 24 0 45 -80 141 -117 141 -23
0 -13 29 15 44 33 17 54 39 81 89 44 79 18 227 -48 278 -82 63 -78 58 -56 71
63 36 125 141 125 211 0 34 -26 105 -55 148 -49 75 -175 102 -263 56z m167
-47 c49 -28 82 -81 88 -144 4 -43 0 -60 -24 -105 -63 -120 -200 -123 -265 -5
-35 63 -36 118 -3 183 41 81 130 112 204 71z m33 -466 c69 -65 85 -155 42
-234 -44 -82 -129 -111 -204 -71 -43 23 -90 107 -90 161 0 54 47 138 90 162
51 28 121 20 162 -18z m-12 -435 c45 -25 78 -80 86 -143 5 -37 2 -55 -20 -100
-22 -44 -35 -59 -72 -76 -81 -40 -164 -8 -204 77 -26 55 -25 112 1 168 42 88
129 119 209 74z"/>
</g>
</svg>
