<?xml version="1.0" standalone="no"?>
<!DOCTYPE svg PUBLIC "-//W3C//DTD SVG 20010904//EN"
 "http://www.w3.org/TR/2001/REC-SVG-20010904/DTD/svg10.dtd">
<svg version="1.0" xmlns="http://www.w3.org/2000/svg"
 width="38.000000pt" height="100.000000pt" viewBox="0 0 38.000000 100.000000"
 preserveAspectRatio="xMidYMid meet">
<metadata>
Created by potrace 1.16, written by Peter Selinger 2001-2019
</metadata>
<g transform="translate(0.000000,100.000000) scale(0.100000,-0.100000)"
fill="#000000" stroke="none">
<path d="M99 937 c-19 -12 -42 -38 -51 -57 -34 -68 -15 -170 38 -205 31 -20
30 -31 -6 -61 -35 -30 -54 -91 -45 -146 5 -29 19 -52 48 -80 l41 -39 -33 -31
c-39 -36 -51 -65 -51 -121 1 -86 69 -157 150 -157 142 0 204 204 89 289 l-31
23 35 32 c69 63 70 168 1 233 -19 17 -34 35 -34 38 0 4 12 16 26 28 54 42 68
121 34 194 -36 80 -138 109 -211 60z m134 -47 c78 -62 40 -200 -55 -200 -43 0
-72 23 -94 76 -13 30 -12 39 1 72 29 70 95 93 148 52z m-19 -280 c59 -22 84
-116 47 -176 -41 -68 -127 -58 -165 19 -16 33 -17 45 -7 77 11 39 61 90 86 90
8 0 25 -4 39 -10z m11 -306 c71 -33 84 -133 25 -186 -40 -36 -80 -36 -120 0
-58 51 -49 143 19 185 32 20 36 21 76 1z"/>
</g>
</svg>
