<?xml version="1.0" standalone="no"?>
<!DOCTYPE svg PUBLIC "-//W3C//DTD SVG 20010904//EN"
 "http://www.w3.org/TR/2001/REC-SVG-20010904/DTD/svg10.dtd">
<svg version="1.0" xmlns="http://www.w3.org/2000/svg"
 width="222.000000pt" height="590.000000pt" viewBox="0 0 222.000000 590.000000"
 preserveAspectRatio="xMidYMid meet">
<metadata>
Created by potrace 1.16, written by Peter Selinger 2001-2019
</metadata>
<g transform="translate(0.000000,590.000000) scale(0.500000,-0.500000)"
fill="#000000" stroke="none">
<path d="M163 1133 c-28 -10 -61 -29 -72 -41 -15 -17 -42 -67 -45 -85 -1 -5
-3 -14 -5 -19 -5 -13 -4 -59 1 -73 2 -7 4 -14 4 -17 0 -6 21 -51 31 -64 14
-20 28 -32 58 -48 22 -13 22 -17 2 -29 -36 -21 -39 -24 -44 -34 -2 -3 -7 -11
-11 -16 -10 -12 -27 -49 -29 -60 -1 -4 -3 -12 -4 -17 -5 -13 -4 -62 1 -78 2
-7 4 -14 4 -17 0 -5 20 -46 27 -54 2 -3 8 -11 12 -17 7 -12 11 -15 44 -34 26
-15 23 -25 -15 -46 -17 -9 -62 -76 -62 -93 0 -2 -2 -11 -4 -20 -4 -18 -6 -57
-2 -69 1 -4 4 -13 5 -20 3 -14 21 -53 30 -64 2 -3 6 -7 7 -10 10 -19 46 -43
86 -56 59 -20 138 8 175 63 12 18 29 53 30 65 1 5 3 12 5 15 5 9 5 55 1 71 -2
7 -4 17 -5 23 -3 13 -22 50 -36 70 -12 17 -21 24 -53 42 -22 12 -22 17 -4 28
6 3 16 9 22 13 22 13 57 67 63 96 1 6 3 14 5 19 11 32 -1 98 -25 138 -21 35
-28 42 -61 61 -17 9 -22 15 -20 21 2 5 5 8 28 22 19 12 35 31 53 65 11 22 14
30 20 64 2 13 2 45 0 55 -1 4 -3 14 -5 21 -20 94 -127 160 -212 129z m79 -45
c7 -3 18 -8 24 -12 6 -4 14 -9 18 -12 11 -6 42 -55 42 -66 0 -2 2 -7 4 -12 17
-38 -12 -125 -50 -151 -79 -52 -161 -18 -191 79 -20 64 20 149 81 171 5 2 12
5 16 6 11 4 40 3 56 -3z m2 -356 c72 -23 117 -109 92 -179 -10 -28 -32 -67
-41 -71 -2 -1 -9 -6 -14 -10 -45 -35 -123 -22 -156 24 -8 12 -27 49 -27 53 0
2 -1 6 -3 9 -6 11 -4 58 2 77 11 30 32 65 43 72 4 2 10 6 15 10 20 16 63 23
89 15z m6 -359 c4 -1 11 -4 16 -6 71 -25 105 -130 66 -201 -63 -111 -180 -96
-228 30 -12 32 -1 91 23 126 3 5 7 11 9 14 4 7 33 27 46 31 5 2 13 5 18 7 11
5 39 5 50 -1z"/>
</g>
</svg>
