<?xml version="1.0" standalone="no"?>
<!DOCTYPE svg PUBLIC "-//W3C//DTD SVG 20010904//EN"
 "http://www.w3.org/TR/2001/REC-SVG-20010904/DTD/svg10.dtd">
<svg version="1.0" xmlns="http://www.w3.org/2000/svg"
 width="54.000000pt" height="148.000000pt" viewBox="0 0 54.000000 148.000000"
 preserveAspectRatio="xMidYMid meet">
<metadata>
Created by potrace 1.16, written by Peter Selinger 2001-2019
</metadata>
<g transform="translate(0.000000,148.000000) scale(0.100000,-0.100000)"
fill="#000000" stroke="none">
<path d="M181 1409 c-83 -33 -131 -111 -131 -212 0 -100 38 -170 111 -207 21
-11 39 -22 39 -25 0 -2 -16 -12 -35 -21 -40 -19 -86 -79 -105 -138 -32 -98 31
-237 123 -269 27 -10 20 -24 -22 -48 -114 -64 -130 -256 -31 -364 20 -21 65
-45 117 -62 28 -10 40 -7 94 20 69 34 99 72 125 155 15 47 16 60 4 105 -17 67
-52 119 -102 152 -22 15 -36 30 -32 34 5 4 25 19 44 33 56 40 80 97 80 184 0
103 -34 163 -114 202 l-39 19 29 19 c74 46 111 102 121 183 10 89 -44 193
-120 230 -46 22 -115 27 -156 10z m129 -54 c82 -42 115 -165 68 -255 -22 -43
-81 -94 -101 -87 -12 4 -18 357 -5 357 5 0 22 -7 38 -15z m-97 -107 c12 -193
10 -228 -11 -228 -22 0 -63 42 -86 87 -36 71 -7 199 53 236 14 9 29 17 32 17
3 0 9 -51 12 -112z m129 -351 c59 -43 85 -157 53 -232 -17 -41 -72 -95 -97
-95 -16 0 -18 12 -17 123 0 67 -3 141 -7 164 -12 75 6 85 68 40z m-117 11 c2
-7 6 -84 8 -171 5 -177 2 -186 -54 -146 -88 62 -92 221 -8 300 34 32 47 36 54
17z m162 -501 c50 -79 37 -196 -28 -252 -49 -41 -55 -35 -62 63 -8 125 -9 241
-2 252 10 17 65 -21 92 -63z m-146 56 c3 -36 4 -343 1 -343 -21 0 -84 50 -101
80 -42 76 -20 198 45 249 27 21 53 28 55 14z"/>
</g>
</svg>
