<?xml version="1.0" standalone="no"?>
<!DOCTYPE svg PUBLIC "-//W3C//DTD SVG 20010904//EN"
 "http://www.w3.org/TR/2001/REC-SVG-20010904/DTD/svg10.dtd">
<svg version="1.0" xmlns="http://www.w3.org/2000/svg"
 width="218.000000pt" height="590.000000pt" viewBox="0 0 218.000000 590.000000"
 preserveAspectRatio="xMidYMid meet">
<metadata>
Created by potrace 1.16, written by Peter Selinger 2001-2019
</metadata>
<g transform="translate(0.000000,590.000000) scale(0.500000,-0.500000)"
fill="#000000" stroke="none">
<path d="M174 1136 c-2 -1 -7 -3 -11 -4 -18 -5 -55 -25 -70 -38 -13 -11 -44
-69 -46 -86 -1 -5 -3 -12 -4 -17 -4 -10 -4 -64 0 -74 1 -4 3 -11 4 -16 2 -11
20 -51 27 -60 3 -3 7 -9 9 -13 8 -13 23 -24 55 -41 12 -7 15 -9 15 -13 0 -5 0
-5 -32 -25 -13 -8 -21 -14 -25 -20 -3 -4 -9 -12 -13 -17 -9 -13 -29 -53 -29
-60 0 -3 -2 -10 -3 -15 -5 -14 -5 -66 0 -80 1 -5 3 -12 3 -15 0 -7 19 -47 31
-63 15 -22 30 -34 61 -49 20 -10 20 -15 -1 -27 -34 -20 -41 -25 -46 -36 -2 -3
-6 -9 -9 -13 -9 -10 -30 -54 -30 -60 0 -3 -1 -10 -3 -14 -5 -16 -5 -60 -1 -77
2 -8 4 -16 4 -19 0 -11 38 -77 50 -86 24 -19 49 -32 74 -39 10 -3 22 -7 25 -8
10 -5 33 -3 42 4 4 3 12 7 18 8 50 15 102 73 110 124 1 5 3 12 4 16 4 10 4 64
0 74 -1 4 -4 12 -5 18 -2 13 -21 52 -30 62 -3 4 -6 8 -6 9 0 7 -25 26 -51 39
-23 12 -21 16 13 38 16 11 24 18 27 24 3 4 8 12 12 16 10 12 27 49 29 61 1 6
3 14 4 17 3 8 3 64 -1 76 -2 5 -3 13 -4 17 -1 10 -19 46 -30 61 -19 25 -18 25
-60 48 -23 13 -23 15 -4 26 41 23 40 23 57 48 16 23 30 52 32 65 1 7 3 14 4
16 3 6 3 65 -1 75 -2 4 -3 11 -3 14 0 16 -39 83 -54 92 -31 21 -40 26 -66 34
-16 5 -66 7 -72 3z m62 -46 c80 -27 114 -122 74 -208 -3 -8 -7 -14 -8 -15 -1
-1 -5 -6 -8 -11 -10 -19 -59 -47 -71 -43 -5 2 -6 15 -4 101 1 79 1 86 -2 94
-5 11 -7 75 -3 82 3 5 8 5 22 0z m-67 -9 c0 -2 1 -22 1 -45 0 -37 0 -43 4 -53
6 -18 6 -160 0 -163 -6 -3 -11 -2 -24 7 -7 4 -16 10 -20 13 -23 13 -48 73 -48
114 0 59 72 165 87 127z m91 -352 c4 -2 12 -7 17 -11 6 -4 12 -9 15 -11 8 -5
36 -54 36 -63 0 -2 2 -7 4 -12 24 -54 -35 -171 -87 -171 -13 0 -13 -2 -11 68
0 53 0 57 -4 69 -5 17 -6 131 -1 137 3 3 19 0 31 -6z m-78 1 c3 -2 3 -14 4
-81 1 -55 2 -82 4 -87 3 -10 3 -96 0 -100 -10 -9 -51 14 -68 39 -37 54 -42
109 -16 164 16 33 24 42 53 61 10 6 18 7 23 4z m85 -357 c5 -3 13 -8 16 -11 4
-3 10 -7 13 -9 29 -15 58 -109 45 -144 -2 -4 -4 -11 -5 -15 -3 -9 -15 -33 -21
-41 -2 -3 -6 -9 -8 -13 -4 -8 -40 -32 -49 -32 -9 0 -10 4 -10 38 0 25 -1 34
-4 45 -5 17 -6 180 -2 185 4 4 15 2 25 -3z m-76 -2 c8 -9 9 -15 8 -109 -2 -88
-2 -89 3 -102 5 -15 5 -51 1 -56 -7 -7 -61 20 -69 34 -2 4 -6 10 -9 14 -51 65
-27 183 45 219 12 6 15 6 21 0z"/>
</g>
</svg>
