<?xml version="1.0" standalone="no"?>
<!DOCTYPE svg PUBLIC "-//W3C//DTD SVG 20010904//EN"
 "http://www.w3.org/TR/2001/REC-SVG-20010904/DTD/svg10.dtd">
<svg version="1.0" xmlns="http://www.w3.org/2000/svg"
 width="36.000000pt" height="100.000000pt" viewBox="0 0 36.000000 100.000000"
 preserveAspectRatio="xMidYMid meet">
<metadata>
Created by potrace 1.16, written by Peter Selinger 2001-2019
</metadata>
<g transform="translate(0.000000,100.000000) scale(0.100000,-0.100000)"
fill="#000000" stroke="none">
<path d="M91 944 c-32 -23 -61 -90 -61 -142 0 -50 19 -92 55 -120 32 -25 31
-28 -4 -61 -36 -33 -54 -95 -45 -153 5 -33 17 -52 48 -81 l41 -39 -29 -21
c-81 -58 -73 -205 14 -265 91 -62 210 15 210 136 0 55 -22 106 -54 127 -31 21
-33 36 -6 52 31 20 53 72 52 129 0 61 -13 89 -56 127 l-31 27 29 22 c78 59 70
219 -13 262 -40 21 -120 21 -150 0z m135 -55 c25 -26 29 -38 29 -84 0 -39 -6
-61 -21 -82 -40 -53 -49 -39 -52 85 -1 61 1 112 6 112 4 0 21 -14 38 -31z
m-86 -96 c0 -51 -4 -93 -9 -93 -17 0 -49 49 -55 84 -7 36 6 80 31 109 25 27
33 4 33 -100z m94 -203 c38 -46 43 -91 15 -147 -40 -81 -54 -66 -57 65 -2 67
1 112 7 112 5 0 21 -14 35 -30z m-82 -65 c1 -47 2 -95 2 -107 1 -32 -22 -29
-48 5 -28 37 -29 120 -2 160 34 50 46 36 48 -58z m10 -317 c2 -57 -1 -107 -5
-113 -5 -6 -20 2 -38 23 -36 40 -40 109 -9 160 36 59 48 43 52 -70z m88 70
c29 -48 27 -119 -4 -155 -13 -15 -28 -24 -32 -20 -5 4 -10 53 -12 107 -4 87
-2 100 12 100 9 0 25 -15 36 -32z"/>
</g>
</svg>
