<?xml version="1.0" standalone="no"?>
<!DOCTYPE svg PUBLIC "-//W3C//DTD SVG 20010904//EN"
 "http://www.w3.org/TR/2001/REC-SVG-20010904/DTD/svg10.dtd">
<svg version="1.0" xmlns="http://www.w3.org/2000/svg"
 width="64.000000pt" height="100.000000pt" viewBox="0 0 64.000000 100.000000"
 preserveAspectRatio="xMidYMid meet">
<metadata>
Created by potrace 1.16, written by Peter Selinger 2001-2019
</metadata>
<g transform="translate(0.000000,100.000000) scale(0.100000,-0.100000)"
fill="#000000" stroke="none">
<path d="M43 963 c-10 -4 -13 -106 -13 -464 0 -412 2 -460 16 -466 9 -3 20 0
25 8 5 8 9 212 9 455 0 449 -2 480 -37 467z"/>
<path d="M557 963 c-6 -9 -10 -411 -8 -716 l1 -218 23 3 22 3 3 459 c2 361 0
461 -10 468 -16 10 -26 10 -31 1z"/>
<path d="M243 920 c-46 -27 -67 -74 -68 -146 0 -51 4 -66 28 -97 15 -19 27
-39 27 -42 0 -4 -11 -20 -25 -37 -54 -64 -54 -156 1 -221 28 -34 29 -40 8 -58
-67 -55 -61 -199 10 -254 67 -51 155 -42 204 23 24 31 27 44 27 107 0 63 -3
76 -28 108 l-27 36 31 50 c28 45 31 57 27 109 -3 44 -11 67 -32 95 l-29 38 26
27 c52 55 61 130 25 202 -38 75 -134 103 -205 60z m143 -64 c29 -29 34 -41 34
-81 0 -40 -5 -52 -34 -81 -44 -44 -86 -46 -126 -6 -53 53 -49 138 8 182 38 31
78 26 118 -14z m-5 -287 c23 -25 29 -40 29 -76 0 -76 -36 -123 -95 -123 -41 0
-65 18 -86 66 -17 37 -18 50 -9 83 22 82 107 108 161 50z m-20 -269 c28 -15
49 -63 49 -111 0 -33 -6 -47 -34 -75 -43 -43 -74 -44 -120 -3 -56 49 -57 119
-4 177 23 24 75 30 109 12z"/>
</g>
</svg>
