<?xml version="1.0" standalone="no"?>
<!DOCTYPE svg PUBLIC "-//W3C//DTD SVG 20010904//EN"
 "http://www.w3.org/TR/2001/REC-SVG-20010904/DTD/svg10.dtd">
<svg version="1.0" xmlns="http://www.w3.org/2000/svg"
 width="378.000000pt" height="590.000000pt" viewBox="0 0 378.000000 590.000000"
 preserveAspectRatio="xMidYMid meet">
<metadata>
Created by potrace 1.16, written by Peter Selinger 2001-2019
</metadata>
<g transform="translate(0.000000,590.000000) scale(0.500000,-0.500000)"
fill="#000000" stroke="none">
<path d="M50 1139 c-11 -3 -10 38 -10 -550 0 -353 1 -541 2 -543 5 -9 39 -10
46 -2 4 4 6 510 5 1062 0 32 -10 40 -43 33z"/>
<path d="M660 1137 c-6 -3 -11 -979 -6 -1091 0 -10 50 -10 50 0 0 4 0 1083 0
1086 0 7 -33 11 -44 5z"/>
<path d="M336 1106 c-27 -10 -55 -25 -71 -40 -15 -14 -45 -69 -49 -90 -1 -6
-3 -14 -5 -18 -4 -11 -4 -63 0 -74 2 -4 4 -12 5 -18 5 -28 39 -83 61 -98 16
-11 25 -20 22 -21 -35 -14 -84 -77 -91 -119 -1 -6 -3 -14 -5 -18 -5 -12 -4
-59 1 -71 2 -6 4 -14 5 -19 3 -20 39 -82 54 -92 39 -28 39 -22 0 -50 -15 -10
-55 -79 -55 -94 0 -3 -2 -10 -4 -16 -6 -15 -6 -61 0 -76 2 -6 4 -13 4 -15 0
-13 35 -78 49 -91 26 -25 74 -45 108 -47 78 -4 161 61 173 136 1 5 3 13 5 17
4 11 4 65 0 76 -2 4 -4 12 -5 17 -5 29 -38 84 -61 98 -5 4 -13 10 -18 13 l-7
7 9 8 c6 4 13 10 18 13 8 5 12 9 26 28 10 13 31 57 33 69 1 6 3 13 5 17 4 11
4 63 0 74 -2 4 -4 12 -5 19 -5 28 -39 82 -62 98 -23 16 -23 18 11 40 19 13 59
78 59 98 0 3 2 10 4 15 6 13 6 63 0 78 -2 6 -4 13 -4 16 0 6 -21 51 -31 66
-36 55 -121 85 -179 64z m78 -48 c56 -20 91 -71 93 -134 4 -77 -57 -150 -126
-150 -82 0 -149 103 -121 185 10 31 32 67 45 76 4 2 12 7 17 11 4 3 12 7 18 9
5 2 12 5 15 6 12 5 42 4 59 -3z m-7 -343 c8 -2 18 -7 21 -9 4 -3 12 -8 19 -13
15 -10 37 -44 48 -76 6 -16 5 -70 0 -85 -10 -24 -27 -56 -38 -67 -11 -10 -34
-24 -46 -28 -6 -2 -14 -4 -19 -6 -11 -4 -33 -3 -44 2 -4 1 -12 4 -18 7 -72 28
-105 129 -66 206 31 61 89 89 143 69z m-20 -339 c27 -6 67 -27 74 -40 2 -3 6
-9 9 -13 36 -53 40 -111 12 -162 -20 -36 -24 -41 -55 -60 -30 -19 -76 -19
-107 0 -28 17 -33 22 -53 55 -41 69 -15 169 53 206 23 12 50 18 67 14z"/>
</g>
</svg>
