<?xml version="1.0" standalone="no"?>
<!DOCTYPE svg PUBLIC "-//W3C//DTD SVG 20010904//EN"
 "http://www.w3.org/TR/2001/REC-SVG-20010904/DTD/svg10.dtd">
<svg version="1.0" xmlns="http://www.w3.org/2000/svg"
 width="500.000000pt" height="590.000000pt" viewBox="0 0 500.000000 590.000000"
 preserveAspectRatio="xMidYMid meet">
<metadata>
Created by potrace 1.16, written by Peter Selinger 2001-2019
</metadata>
<g transform="translate(0.000000,590.000000) scale(0.500000,-0.500000)"
fill="#000000" stroke="none">
<path d="M199 1122 c-24 -23 -37 -43 -48 -69 -5 -11 -10 -23 -13 -26 -2 -4 -5
-10 -5 -13 -1 -4 -7 -18 -14 -32 -10 -22 -12 -27 -13 -41 -2 -15 -6 -29 -19
-62 -9 -22 -6 -121 6 -200 10 -65 9 -129 -2 -144 -4 -4 -8 -12 -9 -17 -1 -5
-4 -11 -5 -14 -5 -9 -18 -39 -20 -44 -1 -3 -4 -11 -8 -18 -4 -7 -9 -18 -11
-23 -2 -6 -7 -18 -11 -28 -13 -32 -6 -49 21 -49 17 0 21 8 56 99 9 24 32 76
35 80 8 8 9 8 39 -60 42 -92 46 -124 26 -185 -4 -13 -9 -29 -10 -35 -1 -7 -5
-18 -8 -25 -3 -7 -7 -18 -9 -24 -4 -15 -8 -28 -14 -42 -3 -6 -5 -12 -5 -14 0
-6 -11 -39 -18 -54 -15 -33 -10 -38 39 -36 22 0 25 3 26 20 1 7 2 15 4 17 1 2
2 14 3 27 1 18 2 23 5 28 8 9 10 17 12 29 0 7 2 15 4 19 1 4 5 14 7 23 6 22
16 20 16 -2 0 -3 2 -11 4 -17 2 -7 5 -18 5 -25 1 -9 3 -14 8 -23 7 -10 7 -12
8 -30 1 -10 2 -22 3 -25 1 -3 3 -12 4 -20 2 -19 5 -21 29 -21 47 -2 53 5 37
37 -4 8 -10 23 -13 33 -6 23 -8 29 -18 55 -4 11 -7 21 -7 23 0 1 -4 11 -8 21
-5 10 -9 22 -9 29 -1 6 -3 15 -5 20 -20 51 -14 120 15 183 4 9 11 23 15 32 23
52 25 53 36 29 11 -20 29 -64 35 -80 14 -40 31 -79 37 -83 37 -25 45 39 13 96
-3 5 -6 12 -7 16 -2 5 -8 19 -14 32 -6 13 -12 27 -13 31 0 4 -4 11 -9 16 -10
12 -11 84 -1 144 12 84 15 177 5 202 -11 27 -18 48 -19 62 -1 11 -3 18 -12 36
-6 13 -12 27 -13 32 -2 5 -5 12 -7 16 -3 4 -9 16 -13 26 -23 57 -58 86 -101
86 l-24 0 -18 -18z m59 -40 c9 -6 20 -21 22 -31 1 -4 5 -13 9 -19 16 -27 34
-69 36 -84 1 -12 9 -37 16 -48 3 -6 6 -15 7 -24 1 -8 4 -20 6 -26 6 -15 6 -90
0 -118 -2 -10 -5 -32 -6 -49 -2 -37 -5 -59 -9 -64 -1 -2 -7 -15 -12 -28 -5
-13 -13 -29 -16 -35 -4 -7 -8 -16 -10 -22 -2 -5 -6 -16 -10 -24 -4 -8 -10 -22
-14 -31 -26 -60 -35 -71 -40 -49 -1 4 -11 27 -22 52 -12 26 -21 48 -21 49 0 2
-4 11 -9 20 -5 10 -11 22 -13 28 -10 23 -13 30 -17 40 -5 10 -8 31 -10 69 -1
12 -3 30 -5 42 -6 32 -6 107 0 121 2 6 5 16 6 24 1 9 4 19 7 25 7 14 17 44 17
52 0 7 8 30 16 43 3 6 6 12 7 15 1 3 5 11 10 19 5 8 10 18 11 24 6 23 30 39
44 29z"/>
<path d="M703 1122 c-22 -22 -38 -45 -47 -67 -3 -9 -9 -21 -12 -26 -3 -5 -7
-12 -7 -16 -1 -3 -7 -17 -13 -31 -10 -21 -13 -27 -13 -38 -1 -13 -8 -37 -20
-64 -8 -22 -6 -127 6 -200 10 -66 10 -130 -1 -144 -4 -5 -9 -13 -10 -18 -1 -5
-4 -11 -5 -14 -5 -10 -21 -44 -21 -46 0 -1 -3 -8 -7 -16 -4 -8 -9 -18 -11 -23
-2 -6 -7 -18 -11 -28 -19 -46 24 -75 45 -30 9 19 28 67 28 69 0 3 20 48 32 76
13 26 14 26 35 -20 53 -114 59 -149 37 -210 -3 -9 -7 -24 -9 -32 -1 -8 -6 -22
-10 -30 -4 -9 -7 -17 -7 -19 0 -4 -9 -29 -17 -50 -1 -4 -5 -17 -8 -28 -3 -11
-9 -26 -13 -34 -16 -32 -7 -41 37 -38 25 2 29 5 29 21 0 6 1 13 3 17 2 4 4 17
4 28 1 19 2 22 8 31 5 7 7 13 8 22 0 7 3 19 6 28 3 8 6 19 8 24 5 16 9 12 14
-13 1 -8 4 -17 5 -19 1 -2 3 -11 4 -19 1 -12 3 -16 8 -24 6 -9 7 -11 8 -32 1
-12 2 -23 3 -25 1 -1 2 -9 3 -17 2 -19 4 -20 31 -22 43 -3 51 5 36 37 -7 14
-19 49 -19 56 0 1 -2 6 -4 11 -5 10 -16 43 -16 47 0 2 -3 10 -7 18 -5 10 -8
20 -9 28 -1 8 -3 16 -5 19 -15 31 -17 86 -4 128 2 6 4 16 6 23 2 11 37 93 45
106 7 10 13 6 22 -17 19 -43 30 -70 37 -87 23 -63 29 -72 43 -72 30 0 30 41 1
101 -13 27 -33 74 -33 77 0 2 -3 8 -8 14 -11 15 -13 80 -3 142 6 40 9 78 11
130 1 60 2 55 -12 93 -8 21 -11 32 -12 44 -1 14 -3 19 -13 40 -7 13 -13 27
-14 31 0 4 -4 11 -7 16 -3 5 -8 17 -12 26 -20 52 -58 84 -101 84 l-24 0 -18
-18z m57 -39 c8 -4 19 -18 23 -29 2 -5 5 -12 6 -15 28 -51 38 -75 40 -91 1
-12 9 -37 16 -48 3 -6 6 -15 7 -24 1 -8 4 -20 6 -26 6 -15 6 -90 0 -118 -2
-10 -5 -33 -6 -50 -2 -35 -5 -58 -8 -61 -1 -1 -7 -15 -13 -29 -6 -15 -13 -32
-16 -36 -3 -5 -8 -16 -11 -24 -6 -15 -22 -53 -39 -88 -12 -26 -20 -31 -24 -13
-2 7 -7 20 -18 43 -3 8 -11 24 -16 35 -5 11 -9 22 -9 24 0 1 -5 12 -11 23 -6
12 -14 30 -18 40 -4 10 -9 21 -10 24 -4 5 -9 45 -9 67 0 9 -2 27 -5 41 -7 35
-7 106 -1 122 3 6 5 17 6 25 1 8 4 18 8 26 7 14 16 41 16 49 0 6 9 33 15 42 2
4 6 11 8 16 2 5 7 15 11 22 4 7 9 17 10 21 6 23 27 40 42 32z"/>
</g>
</svg>
