<?xml version="1.0" standalone="no"?>
<!DOCTYPE svg PUBLIC "-//W3C//DTD SVG 20010904//EN"
 "http://www.w3.org/TR/2001/REC-SVG-20010904/DTD/svg10.dtd">
<svg version="1.0" xmlns="http://www.w3.org/2000/svg"
 width="45.000000pt" height="100.000000pt" viewBox="0 0 45.000000 100.000000"
 preserveAspectRatio="xMidYMid meet">
<metadata>
Created by potrace 1.16, written by Peter Selinger 2001-2019
</metadata>
<g transform="translate(0.000000,100.000000) scale(0.100000,-0.100000)"
fill="#000000" stroke="none">
<path d="M192 954 c-27 -18 -72 -106 -98 -187 -16 -52 -17 -70 -7 -170 l11
-112 -34 -78 c-36 -82 -41 -111 -23 -123 17 -10 37 16 62 81 12 32 27 60 33
62 12 4 51 -77 60 -124 4 -18 -8 -67 -31 -136 -38 -113 -39 -137 -6 -137 24 0
41 28 41 67 1 15 7 42 14 58 l14 30 9 -25 c6 -14 13 -46 17 -72 7 -49 26 -65
60 -52 19 7 20 3 -23 122 -17 46 -31 101 -31 122 0 48 38 152 53 147 6 -2 22
-30 35 -63 26 -66 45 -90 61 -80 19 12 12 48 -20 116 l-31 65 7 131 c6 112 5
140 -10 185 -48 148 -108 211 -163 173z m74 -100 c48 -108 58 -164 46 -253
-10 -85 -72 -238 -91 -227 -5 3 -24 41 -42 84 -45 106 -52 228 -19 328 27 83
50 124 68 124 7 0 24 -25 38 -56z"/>
</g>
</svg>
