<?xml version="1.0" standalone="no"?>
<!DOCTYPE svg PUBLIC "-//W3C//DTD SVG 20010904//EN"
 "http://www.w3.org/TR/2001/REC-SVG-20010904/DTD/svg10.dtd">
<svg version="1.0" xmlns="http://www.w3.org/2000/svg"
 width="66.000000pt" height="148.000000pt" viewBox="0 0 66.000000 148.000000"
 preserveAspectRatio="xMidYMid meet">
<metadata>
Created by potrace 1.16, written by Peter Selinger 2001-2019
</metadata>
<g transform="translate(0.000000,148.000000) scale(0.100000,-0.100000)"
fill="#000000" stroke="none">
<path d="M263 1388 c-33 -35 -97 -164 -114 -232 -6 -22 -13 -53 -17 -69 -7
-27 -1 -155 14 -310 6 -68 4 -83 -14 -120 -87 -177 -100 -227 -59 -227 25 0
27 5 92 163 16 37 32 67 37 67 5 0 12 -10 17 -22 5 -13 20 -48 35 -79 46 -101
49 -139 17 -249 -14 -51 -60 -181 -73 -207 -18 -36 -3 -55 39 -51 l38 3 3 55
c2 30 7 59 11 65 4 5 14 36 21 68 8 36 17 54 23 48 10 -10 37 -108 42 -156 8
-65 22 -85 60 -85 19 0 35 5 35 11 0 6 -22 78 -50 160 -54 161 -57 187 -36
269 17 64 64 170 75 170 8 0 41 -73 77 -170 20 -54 41 -75 60 -59 22 18 8 68
-55 199 -31 66 -32 80 -15 243 16 152 18 209 5 223 -6 5 -17 36 -26 69 -20 80
-75 193 -110 228 -40 39 -91 38 -132 -5z m131 -111 c53 -116 76 -203 76 -287
-1 -119 -16 -211 -43 -270 -48 -106 -68 -150 -77 -176 -6 -14 -15 -24 -21 -22
-6 2 -24 35 -40 73 -17 39 -43 97 -58 130 -21 44 -30 84 -36 150 -4 50 -8 106
-10 125 -2 19 1 46 5 60 4 14 18 59 31 100 23 78 62 162 87 192 23 28 49 5 86
-75z"/>
</g>
</svg>
