<?xml version="1.0" standalone="no"?>
<!DOCTYPE svg PUBLIC "-//W3C//DTD SVG 20010904//EN"
 "http://www.w3.org/TR/2001/REC-SVG-20010904/DTD/svg10.dtd">
<svg version="1.0" xmlns="http://www.w3.org/2000/svg"
 width="260.000000pt" height="590.000000pt" viewBox="0 0 260.000000 590.000000"
 preserveAspectRatio="xMidYMid meet">
<metadata>
Created by potrace 1.16, written by Peter Selinger 2001-2019
</metadata>
<g transform="translate(0.000000,590.000000) scale(0.500000,-0.500000)"
fill="#000000" stroke="none">
<path d="M233 1136 c-15 -9 -59 -61 -59 -69 0 -4 -14 -34 -19 -42 -3 -4 -5
-10 -5 -12 0 -3 -5 -16 -12 -29 -11 -22 -12 -27 -14 -42 -1 -12 -4 -24 -11
-42 -5 -14 -11 -28 -12 -32 -5 -16 5 -195 12 -206 9 -14 4 -115 -5 -128 -5 -6
-8 -12 -8 -13 0 -4 -22 -55 -33 -78 -33 -67 -36 -92 -13 -99 15 -4 23 -2 30 8
4 7 32 76 32 79 0 9 41 95 45 95 13 0 66 -131 72 -178 1 -11 -3 -53 -7 -60 -4
-7 -13 -36 -14 -47 -1 -7 -5 -19 -9 -27 -4 -8 -7 -16 -7 -17 0 -4 -13 -43 -17
-50 -2 -3 -3 -7 -3 -9 0 -7 -12 -44 -19 -58 -14 -29 -9 -35 29 -34 31 1 34 2
35 21 1 7 3 15 4 20 2 4 3 14 3 23 0 17 2 23 9 34 4 5 6 12 7 22 1 9 3 17 4
20 1 3 4 11 6 19 8 32 15 33 20 0 1 -7 3 -16 5 -19 1 -4 3 -13 4 -20 1 -11 3
-16 8 -24 7 -10 7 -12 7 -28 0 -11 1 -21 4 -30 2 -7 4 -16 4 -20 0 -15 4 -17
33 -18 39 -1 45 7 30 36 -3 7 -9 22 -12 32 -6 23 -8 29 -18 54 -3 11 -7 23 -8
27 0 3 -4 13 -8 20 -4 9 -7 19 -8 26 -1 7 -3 15 -4 19 -13 30 -17 69 -11 100
9 52 15 67 46 134 18 39 21 40 35 9 3 -8 11 -27 18 -43 7 -16 13 -30 13 -32 0
-2 24 -63 29 -72 8 -15 25 -18 34 -7 12 13 5 57 -14 90 -3 5 -6 12 -7 16 -3 8
-17 41 -23 51 -1 3 -3 8 -4 13 -1 4 -4 10 -7 14 -10 11 -10 12 -10 58 0 35 0
50 4 72 9 59 10 78 12 138 2 62 2 62 -4 78 -14 33 -20 55 -20 66 0 9 -2 15
-12 36 -7 13 -13 28 -13 31 -1 4 -4 10 -6 14 -5 7 -19 39 -19 43 0 1 -2 4 -4
7 -2 3 -8 11 -13 18 -26 38 -76 59 -102 42z m41 -53 c10 -6 22 -23 23 -31 1
-4 5 -13 10 -21 5 -8 9 -15 9 -16 0 -1 4 -11 10 -22 9 -19 16 -39 16 -48 0 -5
10 -32 17 -47 3 -6 5 -16 6 -23 1 -7 3 -16 6 -22 6 -15 6 -94 -1 -125 -2 -11
-4 -26 -4 -33 0 -23 -6 -70 -10 -77 -4 -7 -7 -16 -18 -42 -2 -6 -8 -16 -11
-23 -4 -7 -8 -16 -10 -21 -3 -12 -43 -100 -48 -107 -6 -8 -13 -6 -16 5 -3 8
-15 36 -34 78 -5 10 -9 22 -10 25 -1 3 -6 15 -12 26 -6 11 -12 24 -13 28 -1 4
-6 15 -10 24 -8 16 -8 17 -11 56 -2 22 -5 50 -7 62 -6 33 -6 109 0 123 2 5 5
16 6 24 1 9 4 19 8 27 8 15 13 33 15 45 3 18 17 52 35 84 4 7 9 17 10 22 6 22
30 38 44 29z"/>
</g>
</svg>
