<?xml version="1.0" standalone="no"?>
<!DOCTYPE svg PUBLIC "-//W3C//DTD SVG 20010904//EN"
 "http://www.w3.org/TR/2001/REC-SVG-20010904/DTD/svg10.dtd">
<svg version="1.0" xmlns="http://www.w3.org/2000/svg"
 width="486.000000pt" height="590.000000pt" viewBox="0 0 486.000000 590.000000"
 preserveAspectRatio="xMidYMid meet">
<metadata>
Created by potrace 1.16, written by Peter Selinger 2001-2019
</metadata>
<g transform="translate(0.000000,590.000000) scale(0.500000,-0.500000)"
fill="#000000" stroke="none">
<path d="M686 1140 c-12 -3 -26 -17 -26 -27 0 -8 30 -48 43 -58 4 -3 12 -13
19 -23 36 -50 39 -55 51 -63 9 -7 12 -10 14 -17 2 -4 7 -16 13 -26 5 -9 12
-25 15 -34 3 -9 8 -23 11 -30 3 -8 7 -20 8 -28 1 -8 3 -21 4 -27 1 -7 2 -14 3
-15 3 -4 7 -36 9 -62 1 -14 3 -29 4 -33 1 -4 2 -25 2 -46 0 -28 1 -39 3 -44 2
-6 3 -15 3 -39 0 -17 1 -38 2 -47 2 -15 2 -17 -3 -34 -3 -10 -5 -21 -5 -24 0
-3 -2 -12 -4 -21 -2 -8 -4 -17 -4 -19 1 -21 -5 -44 -14 -58 -4 -6 -5 -10 -5
-27 0 -13 -1 -21 -3 -25 -2 -3 -6 -13 -10 -23 -3 -9 -10 -23 -15 -32 -5 -9
-11 -22 -12 -28 -2 -6 -5 -15 -8 -19 -2 -4 -5 -10 -6 -13 -1 -3 -6 -12 -12
-21 -6 -9 -13 -22 -15 -29 -2 -7 -7 -16 -10 -20 -27 -34 -37 -63 -25 -74 19
-18 48 -8 67 25 4 7 13 22 21 34 7 12 13 25 14 29 2 9 6 16 14 27 4 5 7 12 8
16 2 9 14 36 20 44 3 4 5 9 5 13 0 3 1 9 3 14 19 42 28 70 28 77 -1 5 1 15 3
23 2 8 4 17 4 19 0 3 3 13 6 23 5 14 6 21 6 34 0 11 2 23 5 37 4 16 5 23 4 34
0 8 -2 33 -3 57 -1 24 -3 47 -4 51 -1 4 -2 24 -2 44 0 26 -1 39 -3 46 -2 7 -3
19 -3 40 0 28 0 32 -5 44 -4 10 -5 17 -5 30 0 9 -1 21 -3 26 -2 6 -4 16 -4 23
-1 10 -3 15 -11 28 -6 8 -12 20 -13 26 -12 42 -25 68 -45 92 -5 6 -14 18 -21
27 -7 8 -17 20 -22 25 -13 10 -27 27 -44 53 -16 23 -28 30 -47 25z"/>
<path d="M231 1126 c-9 -5 -24 -22 -29 -32 -3 -5 -7 -13 -10 -17 -3 -5 -6 -9
-6 -10 0 -1 -3 -6 -6 -11 -3 -5 -9 -15 -13 -23 -4 -7 -11 -17 -15 -22 -4 -5
-9 -12 -10 -17 -3 -11 -17 -39 -23 -47 -3 -3 -6 -8 -6 -11 -1 -3 -4 -9 -6 -13
-3 -5 -6 -12 -8 -16 -1 -4 -5 -14 -8 -22 -12 -31 -25 -75 -25 -83 0 -3 -4 -16
-8 -30 -4 -13 -8 -28 -8 -32 0 -4 -2 -16 -5 -27 -6 -22 -8 -296 -3 -313 1 -4
3 -20 4 -37 3 -48 8 -72 16 -82 1 -1 5 -11 9 -22 4 -10 11 -25 16 -33 4 -7 11
-17 13 -21 3 -4 10 -13 15 -19 6 -7 16 -19 23 -28 31 -42 40 -52 49 -58 5 -4
28 -22 43 -35 33 -30 52 -26 59 13 2 14 -8 27 -41 50 -15 9 -38 32 -55 55 -5
6 -10 11 -12 13 -2 1 -5 6 -7 11 -2 4 -8 11 -12 16 -5 6 -11 15 -15 26 -4 10
-8 19 -10 21 -9 10 -26 49 -27 64 -1 10 -4 20 -7 26 -4 9 -5 12 -5 32 0 13 -1
25 -3 31 -6 22 -4 245 3 266 3 10 6 23 7 30 1 7 5 23 9 35 4 13 8 27 8 31 0
12 4 23 10 32 5 6 6 12 8 23 3 21 17 55 41 93 5 8 9 15 9 16 0 4 17 37 26 50
5 8 13 21 18 29 4 9 9 16 10 17 2 1 26 36 31 46 14 23 -20 50 -44 35z"/>
<path d="M438 1112 c-4 -2 -10 -7 -13 -12 -3 -5 -11 -14 -17 -20 -11 -10 -22
-28 -22 -35 0 -2 -2 -5 -5 -8 -6 -8 -19 -34 -20 -42 -1 -4 -5 -11 -8 -15 -6
-6 -8 -10 -9 -20 -1 -7 -6 -19 -10 -28 -5 -9 -10 -25 -14 -41 -3 -14 -7 -28
-8 -31 -1 -3 -3 -10 -4 -15 -1 -6 -4 -19 -6 -31 -2 -11 -4 -26 -4 -34 0 -7 -1
-17 -3 -21 -4 -11 -4 -83 0 -94 1 -5 3 -12 4 -17 1 -5 4 -19 8 -31 8 -25 8
-25 3 -35 -3 -4 -6 -14 -8 -22 -2 -8 -5 -19 -7 -24 -1 -5 -5 -17 -8 -27 -7
-22 -28 -89 -39 -121 -11 -33 -10 -43 5 -50 21 -10 37 -4 46 18 5 14 6 19 13
55 3 14 7 28 11 38 5 11 8 20 9 31 2 22 8 30 17 21 4 -4 13 -22 13 -26 0 -2 6
-11 13 -22 12 -18 16 -25 18 -39 1 -4 5 -13 11 -20 20 -26 30 -55 24 -70 -6
-14 -14 -43 -14 -49 0 -2 -5 -19 -11 -37 -6 -18 -12 -37 -12 -43 -1 -5 -3 -13
-6 -17 -2 -4 -5 -12 -7 -19 -2 -7 -5 -16 -7 -21 -23 -68 -20 -86 13 -86 29 0
31 2 36 45 1 9 4 20 6 25 6 14 18 54 18 60 0 43 24 79 36 55 4 -9 13 -22 20
-30 7 -7 14 -17 16 -22 3 -4 7 -12 10 -16 3 -4 6 -10 7 -12 0 -2 8 -16 17 -31
10 -18 17 -32 18 -39 3 -12 28 -38 39 -40 50 -10 55 10 17 66 -8 12 -19 29
-24 37 -5 8 -14 24 -20 34 -7 11 -13 24 -15 30 -1 5 -7 17 -12 25 -6 9 -13 22
-17 29 -4 7 -12 21 -18 30 -7 10 -12 20 -13 25 -1 4 -3 11 -5 15 -5 8 -5 20 0
30 2 4 4 10 4 13 0 2 3 11 8 20 4 9 9 21 10 27 1 6 3 13 5 15 4 6 10 23 13 33
2 8 13 22 17 22 2 0 17 -26 24 -44 24 -61 31 -83 32 -95 4 -32 34 -44 56 -22
6 6 6 12 -5 37 -27 67 -40 99 -42 103 -1 2 -3 9 -5 14 -1 6 -5 16 -7 23 -2 7
-7 22 -10 32 -4 11 -9 23 -11 27 -5 6 -5 9 -4 19 2 24 7 123 9 175 1 30 2 56
2 58 1 7 -2 28 -7 42 -3 8 -5 20 -6 27 0 9 -2 16 -6 22 -2 5 -6 14 -8 21 -9
30 -12 39 -23 60 -6 12 -13 26 -16 30 -3 4 -8 12 -10 17 -6 11 -59 65 -67 69
-8 4 -7 4 -15 -1z m23 -86 c5 -4 11 -13 15 -23 4 -9 11 -21 15 -27 4 -6 8 -15
9 -21 1 -5 5 -17 9 -25 3 -8 7 -19 8 -24 1 -5 3 -12 4 -17 2 -4 3 -12 3 -18 0
-6 2 -16 4 -23 8 -23 9 -72 6 -171 -2 -60 -4 -79 -12 -94 -3 -8 -7 -21 -12
-44 -1 -6 -5 -15 -8 -19 -6 -10 -15 -33 -18 -46 -11 -52 -38 -69 -49 -32 -1 5
-7 18 -12 28 -5 11 -9 21 -9 21 0 1 -7 16 -15 33 -9 18 -17 39 -20 50 -3 10
-7 22 -10 26 -22 32 -28 133 -12 202 2 12 6 27 7 34 1 7 5 18 7 25 3 6 5 15 5
20 1 15 10 35 28 57 2 3 4 6 4 7 0 1 2 7 5 12 3 6 8 17 11 26 16 44 25 53 37
43z"/>
</g>
</svg>
