<?xml version="1.0" standalone="no"?>
<!DOCTYPE svg PUBLIC "-//W3C//DTD SVG 20010904//EN"
 "http://www.w3.org/TR/2001/REC-SVG-20010904/DTD/svg10.dtd">
<svg version="1.0" xmlns="http://www.w3.org/2000/svg"
 width="82.000000pt" height="100.000000pt" viewBox="0 0 82.000000 100.000000"
 preserveAspectRatio="xMidYMid meet">
<metadata>
Created by potrace 1.16, written by Peter Selinger 2001-2019
</metadata>
<g transform="translate(0.000000,100.000000) scale(0.100000,-0.100000)"
fill="#000000" stroke="none">
<path d="M557 963 c-15 -14 -5 -34 52 -102 67 -80 87 -130 101 -252 22 -193 6
-297 -71 -450 -45 -90 -49 -103 -36 -117 8 -8 20 -11 26 -7 38 23 115 196 135
305 16 83 5 314 -19 399 -33 116 -154 259 -188 224z"/>
<path d="M154 904 c-44 -68 -75 -137 -103 -228 -18 -58 -21 -94 -21 -235 l0
-168 31 -63 c30 -60 135 -180 158 -180 5 0 15 9 21 20 9 16 2 27 -43 73 -30
29 -66 79 -82 110 -25 52 -28 71 -33 190 -4 114 -2 143 17 210 21 78 71 188
117 257 27 40 24 70 -7 70 -12 0 -32 -20 -55 -56z"/>
<path d="M329 898 c-68 -115 -100 -254 -79 -351 9 -47 8 -60 -20 -141 -34
-101 -37 -124 -15 -132 24 -10 42 13 50 63 14 92 21 94 64 13 l33 -61 -31
-101 c-39 -126 -40 -148 -6 -148 26 0 25 -3 45 103 7 34 17 57 24 57 7 0 33
-37 57 -82 43 -81 68 -103 91 -80 7 7 -11 50 -57 132 -71 127 -71 129 -40 204
20 48 38 36 55 -35 14 -55 33 -81 55 -73 23 9 18 34 -20 124 -34 80 -35 85
-35 216 0 151 -14 207 -69 288 -42 60 -67 61 -102 4z m81 -78 c26 -52 43 -177
35 -260 -7 -74 -44 -191 -62 -197 -6 -2 -26 31 -44 74 -38 91 -49 195 -28 271
18 66 57 152 69 152 5 0 19 -18 30 -40z"/>
</g>
</svg>
