<?xml version="1.0" standalone="no"?>
<!DOCTYPE svg PUBLIC "-//W3C//DTD SVG 20010904//EN"
 "http://www.w3.org/TR/2001/REC-SVG-20010904/DTD/svg10.dtd">
<svg version="1.0" xmlns="http://www.w3.org/2000/svg"
 width="122.000000pt" height="148.000000pt" viewBox="0 0 122.000000 148.000000"
 preserveAspectRatio="xMidYMid meet">
<metadata>
Created by potrace 1.16, written by Peter Selinger 2001-2019
</metadata>
<g transform="translate(0.000000,148.000000) scale(0.100000,-0.100000)"
fill="#000000" stroke="none">
<path d="M287 1407 c-36 -28 -151 -235 -184 -332 -48 -141 -55 -199 -51 -447
4 -215 6 -237 27 -289 25 -63 137 -206 202 -258 46 -38 72 -34 77 10 2 20 -7
32 -43 58 -98 70 -179 209 -195 333 -17 135 -12 340 11 431 42 169 84 263 170
389 21 32 39 67 39 78 0 26 -32 43 -53 27z"/>
<path d="M837 1413 c-15 -14 -6 -41 23 -68 17 -16 47 -53 67 -82 20 -29 42
-53 50 -53 7 0 13 -8 13 -18 0 -10 4 -22 9 -27 16 -17 49 -128 60 -200 10 -65
28 -318 24 -340 -3 -13 -30 -147 -43 -208 -5 -27 -18 -65 -28 -85 -10 -21 -37
-74 -60 -120 -23 -45 -49 -93 -57 -106 -14 -22 -14 -25 0 -40 37 -36 63 -10
131 131 62 130 86 192 91 237 2 22 9 48 14 57 32 60 4 540 -36 624 -8 17 -25
55 -39 85 -13 30 -48 80 -76 110 -28 30 -58 67 -67 83 -17 26 -59 38 -76 20z"/>
<path d="M518 1358 c-114 -149 -184 -440 -139 -575 13 -40 12 -47 -29 -175
-24 -73 -47 -138 -52 -144 -12 -16 0 -42 24 -50 38 -12 51 18 86 186 4 19 11
35 15 35 5 0 22 -27 39 -60 17 -33 35 -67 39 -75 5 -8 16 -28 25 -43 14 -26
14 -34 0 -85 -21 -78 -41 -144 -49 -162 -17 -40 -36 -135 -28 -143 5 -5 21 -7
37 -5 25 3 30 8 36 43 12 71 49 210 58 219 6 6 14 -2 20 -20 6 -16 17 -36 25
-44 21 -23 85 -140 85 -155 0 -33 88 -72 104 -46 3 5 -11 35 -32 67 -21 33
-51 86 -68 119 -17 33 -42 78 -55 100 -50 82 -51 87 -19 167 15 40 31 81 34
90 12 39 34 16 65 -68 17 -47 31 -92 31 -100 0 -18 28 -33 51 -27 20 6 26 41
11 58 -8 9 -26 53 -90 225 -13 35 -16 62 -11 120 18 219 2 337 -60 451 -32 57
-96 129 -115 129 -7 0 -25 -15 -38 -32z m84 -111 c23 -42 36 -81 57 -170 17
-72 14 -283 -5 -348 -21 -73 -75 -208 -85 -215 -9 -5 -53 85 -106 214 -25 59
-28 80 -27 167 1 105 21 204 55 260 9 17 25 50 35 75 32 82 39 84 76 17z"/>
</g>
</svg>
