<?xml version="1.0" standalone="no"?>
<!DOCTYPE svg PUBLIC "-//W3C//DTD SVG 20010904//EN"
 "http://www.w3.org/TR/2001/REC-SVG-20010904/DTD/svg10.dtd">
<svg version="1.0" xmlns="http://www.w3.org/2000/svg"
 width="122.000000pt" height="148.000000pt" viewBox="0 0 122.000000 148.000000"
 preserveAspectRatio="xMidYMid meet">
<metadata>
Created by potrace 1.16, written by Peter Selinger 2001-2019
</metadata>
<g transform="translate(0.000000,148.000000) scale(0.100000,-0.100000)"
fill="#000000" stroke="none">
<path d="M838 1422 c-16 -2 -28 -7 -28 -11 0 -8 60 -81 145 -175 19 -22 35
-45 35 -52 0 -7 4 -15 9 -19 14 -8 47 -120 60 -200 10 -65 28 -317 24 -340 -3
-13 -30 -147 -43 -208 -5 -27 -18 -65 -28 -85 -10 -21 -37 -74 -60 -120 -23
-45 -49 -93 -57 -106 -14 -22 -14 -25 0 -40 37 -36 63 -10 131 131 62 130 86
192 91 237 2 22 9 48 14 57 21 40 15 359 -11 524 -10 61 -37 137 -72 199 -8
16 -6 23 15 38 16 11 32 40 43 75 17 54 17 56 -1 69 -16 12 -22 11 -44 -3 -83
-54 -112 -56 -143 -9 -25 37 -37 43 -80 38z m199 -129 c-17 -17 -51 -10 -45 9
5 15 52 28 57 15 2 -5 -4 -16 -12 -24z"/>
<path d="M287 1407 c-36 -28 -151 -235 -184 -332 -48 -141 -55 -199 -51 -447
5 -277 10 -296 118 -429 99 -123 165 -168 208 -141 20 13 4 38 -54 82 -108 81
-187 215 -204 342 -17 135 -12 340 11 431 42 169 84 263 170 389 21 32 39 67
39 78 0 26 -32 43 -53 27z"/>
<path d="M518 1358 c-114 -149 -184 -440 -139 -575 13 -40 12 -47 -29 -175
-24 -73 -47 -138 -52 -144 -12 -16 0 -42 24 -50 38 -12 51 18 86 186 4 19 11
35 15 35 5 0 22 -27 39 -60 17 -33 35 -67 39 -75 5 -8 16 -28 25 -43 14 -26
14 -34 0 -85 -30 -110 -41 -147 -47 -157 -3 -5 -12 -32 -19 -60 -7 -27 -17
-55 -22 -61 -13 -17 16 -36 49 -32 24 3 29 9 35 43 12 71 49 210 58 219 6 6
14 -2 20 -20 6 -16 17 -36 25 -44 21 -23 85 -140 85 -155 0 -33 88 -72 104
-46 3 5 -11 35 -32 67 -21 33 -51 86 -68 119 -17 33 -42 78 -55 100 -50 82
-51 87 -19 167 15 40 31 81 34 90 12 39 34 16 65 -68 17 -47 31 -92 31 -100 0
-18 28 -33 51 -27 20 6 26 41 11 58 -8 9 -26 53 -90 225 -13 35 -16 62 -11
120 18 219 2 337 -60 451 -32 57 -96 129 -115 129 -7 0 -25 -15 -38 -32z m84
-111 c23 -42 36 -81 57 -170 17 -72 14 -283 -5 -348 -21 -73 -75 -208 -85
-215 -9 -5 -53 85 -106 214 -25 59 -28 80 -27 167 1 105 21 204 55 260 9 17
25 50 35 75 32 82 39 84 76 17z"/>
</g>
</svg>
