<?xml version="1.0" standalone="no"?>
<!DOCTYPE svg PUBLIC "-//W3C//DTD SVG 20010904//EN"
 "http://www.w3.org/TR/2001/REC-SVG-20010904/DTD/svg10.dtd">
<svg version="1.0" xmlns="http://www.w3.org/2000/svg"
 width="82.000000pt" height="100.000000pt" viewBox="0 0 82.000000 100.000000"
 preserveAspectRatio="xMidYMid meet">
<metadata>
Created by potrace 1.16, written by Peter Selinger 2001-2019
</metadata>
<g transform="translate(0.000000,100.000000) scale(0.100000,-0.100000)"
fill="#000000" stroke="none">
<path d="M547 963 c-12 -11 -8 -18 53 -89 71 -81 94 -136 109 -259 24 -197 8
-301 -70 -456 -45 -90 -49 -103 -36 -117 8 -8 20 -11 26 -7 20 12 61 84 92
162 48 120 59 194 48 350 -9 139 -20 196 -46 247 -14 27 -13 32 12 78 15 27
24 55 21 63 -7 19 -37 19 -62 0 -29 -22 -60 -18 -78 10 -16 24 -54 34 -69 18z"/>
<path d="M154 904 c-44 -68 -75 -137 -103 -228 -18 -58 -21 -94 -21 -235 l0
-168 31 -63 c37 -73 137 -180 168 -180 44 0 35 30 -27 92 -34 33 -73 84 -88
114 -23 48 -27 70 -32 187 -4 114 -2 143 17 210 21 78 71 188 117 257 27 40
24 70 -7 70 -12 0 -32 -20 -55 -56z"/>
<path d="M329 898 c-68 -115 -100 -254 -79 -351 9 -47 8 -60 -20 -141 -34
-101 -37 -124 -15 -132 24 -10 42 13 50 63 14 92 21 94 64 13 l32 -60 -30 -99
c-39 -124 -40 -151 -7 -151 25 0 29 9 51 128 4 17 12 32 19 32 7 0 33 -37 57
-82 43 -81 68 -103 91 -80 7 7 -11 50 -57 132 -71 127 -71 129 -40 204 20 48
38 36 55 -35 14 -55 33 -81 55 -73 23 9 18 34 -20 124 -34 80 -35 85 -35 216
0 151 -14 207 -69 288 -42 60 -67 61 -102 4z m81 -78 c26 -52 43 -177 35 -260
-7 -74 -44 -191 -62 -197 -6 -2 -26 31 -44 74 -38 91 -49 195 -28 271 18 66
57 152 69 152 5 0 19 -18 30 -40z"/>
</g>
</svg>
