<?xml version="1.0" standalone="no"?>
<!DOCTYPE svg PUBLIC "-//W3C//DTD SVG 20010904//EN"
 "http://www.w3.org/TR/2001/REC-SVG-20010904/DTD/svg10.dtd">
<svg version="1.0" xmlns="http://www.w3.org/2000/svg"
 width="90.000000pt" height="148.000000pt" viewBox="0 0 90.000000 148.000000"
 preserveAspectRatio="xMidYMid meet">
<metadata>
Created by potrace 1.16, written by Peter Selinger 2001-2019
</metadata>
<g transform="translate(0.000000,148.000000) scale(0.100000,-0.100000)"
fill="#000000" stroke="none">
<path d="M45 1418 c-3 -7 -4 -314 -3 -683 l3 -670 34 0 33 0 0 680 0 680 -31
3 c-19 2 -33 -2 -36 -10z"/>
<path d="M389 1387 c-34 -43 -75 -119 -101 -192 -8 -22 -23 -62 -33 -90 -27
-72 -31 -221 -9 -291 16 -52 16 -58 -1 -117 -41 -142 -57 -193 -66 -215 -17
-42 -12 -54 23 -50 31 3 33 5 51 78 10 41 21 90 24 108 3 18 10 31 16 29 6 -2
24 -30 40 -63 17 -32 33 -66 38 -74 42 -74 41 -68 25 -128 -27 -98 -44 -155
-69 -232 -14 -41 -23 -78 -20 -82 2 -5 20 -8 38 -8 30 0 36 4 41 28 7 33 29
121 45 185 6 26 17 47 23 47 11 0 103 -148 128 -205 7 -16 17 -33 23 -37 17
-13 52 -9 65 7 9 11 6 21 -18 52 -34 42 -72 108 -72 123 0 6 -18 40 -40 76
-22 36 -40 72 -40 79 0 8 -4 16 -9 19 -5 4 2 36 16 74 14 37 29 81 35 97 17
47 25 50 43 15 18 -35 55 -146 55 -165 0 -19 26 -36 44 -29 23 9 20 34 -17
132 -64 165 -70 194 -63 284 16 192 12 278 -15 330 -5 10 -9 23 -9 30 0 42
-101 194 -145 220 -8 5 -25 -8 -46 -35z m85 -116 c35 -69 54 -137 64 -226 11
-96 -1 -273 -22 -335 -48 -143 -70 -190 -82 -182 -16 10 -92 185 -104 238 -6
25 -18 60 -27 77 -21 42 -13 174 16 240 12 27 21 57 21 66 0 10 9 26 19 35 11
10 22 29 26 43 13 54 39 101 52 96 8 -3 24 -26 37 -52z"/>
<path d="M760 1416 c-3 -2 -4 -309 -2 -681 2 -732 0 -695 55 -682 l22 6 -2
678 -2 678 -33 3 c-19 2 -36 1 -38 -2z"/>
</g>
</svg>
