<?xml version="1.0" standalone="no"?>
<!DOCTYPE svg PUBLIC "-//W3C//DTD SVG 20010904//EN"
 "http://www.w3.org/TR/2001/REC-SVG-20010904/DTD/svg10.dtd">
<svg version="1.0" xmlns="http://www.w3.org/2000/svg"
 width="61.000000pt" height="100.000000pt" viewBox="0 0 61.000000 100.000000"
 preserveAspectRatio="xMidYMid meet">
<metadata>
Created by potrace 1.16, written by Peter Selinger 2001-2019
</metadata>
<g transform="translate(0.000000,100.000000) scale(0.100000,-0.100000)"
fill="#000000" stroke="none">
<path d="M35 948 c-3 -13 -4 -221 -3 -463 l3 -440 23 -3 22 -3 -2 463 c-3 428
-4 463 -20 466 -11 2 -19 -5 -23 -20z"/>
<path d="M267 952 c-24 -27 -85 -162 -102 -228 -18 -70 -19 -91 -3 -165 11
-53 9 -64 -15 -146 -30 -96 -33 -118 -16 -129 18 -11 37 17 51 75 7 30 18 56
23 58 13 4 65 -100 65 -130 0 -12 -16 -69 -35 -127 -31 -95 -33 -106 -18 -117
28 -22 51 2 63 64 18 97 20 103 30 103 5 0 28 -35 49 -79 42 -82 64 -102 89
-77 13 13 11 20 -15 63 -58 93 -93 163 -93 186 0 30 29 117 40 117 15 0 29
-27 36 -68 3 -23 12 -50 20 -59 12 -16 14 -17 29 -2 14 14 12 24 -20 114 -36
98 -36 100 -29 210 8 143 -18 241 -86 318 -37 42 -41 44 -63 19z m54 -94 c25
-46 39 -127 39 -225 0 -82 -5 -118 -25 -182 -14 -45 -30 -81 -36 -81 -13 0
-51 87 -80 180 -25 84 -21 114 32 250 33 82 50 96 70 58z"/>
<path d="M517 963 c-9 -8 -9 -790 -1 -872 6 -49 10 -61 24 -61 10 0 20 10 24
23 8 29 8 881 0 901 -6 16 -35 22 -47 9z"/>
</g>
</svg>
