<?xml version="1.0" standalone="no"?>
<!DOCTYPE svg PUBLIC "-//W3C//DTD SVG 20010904//EN"
 "http://www.w3.org/TR/2001/REC-SVG-20010904/DTD/svg10.dtd">
<svg version="1.0" xmlns="http://www.w3.org/2000/svg"
 width="73.000000pt" height="100.000000pt" viewBox="0 0 73.000000 100.000000"
 preserveAspectRatio="xMidYMid meet">
<metadata>
Created by potrace 1.16, written by Peter Selinger 2001-2019
</metadata>
<g transform="translate(0.000000,100.000000) scale(0.100000,-0.100000)"
fill="#000000" stroke="none">
<path d="M292 948 c-44 -56 -92 -198 -92 -274 0 -49 -3 -55 -35 -80 -19 -14
-35 -35 -35 -46 0 -17 6 -19 42 -16 39 3 42 1 48 -27 4 -16 23 -63 43 -102 21
-40 37 -81 37 -91 0 -10 -18 -62 -40 -115 -47 -112 -51 -150 -17 -145 18 2 28
19 54 88 17 47 36 85 43 85 6 0 26 -38 44 -84 38 -93 48 -106 70 -98 27 11 18
54 -34 164 -27 58 -50 114 -50 124 0 9 13 46 30 81 16 34 30 77 30 95 0 55 6
61 56 55 44 -5 46 -4 42 19 -2 18 -13 26 -43 35 l-40 11 -7 70 c-9 83 -37 165
-78 222 -31 42 -50 50 -68 29z m67 -138 c22 -57 25 -80 25 -180 -1 -119 -23
-218 -52 -228 -7 -2 -25 23 -44 65 -29 62 -32 77 -32 168 -1 78 4 116 22 173
29 92 45 92 81 2z"/>
<path d="M565 948 c-3 -7 -4 -215 -3 -463 3 -442 3 -450 23 -450 20 0 20 8 23
315 l2 314 29 31 c36 38 47 60 56 111 8 52 -6 63 -41 35 -15 -12 -30 -21 -35
-21 -4 0 -9 30 -11 67 -2 55 -6 68 -21 71 -9 2 -19 -2 -22 -10z"/>
<path d="M57 944 c-4 -4 -7 -209 -7 -455 0 -364 2 -448 13 -452 36 -14 37 0
35 459 -3 396 -5 449 -18 452 -9 1 -19 0 -23 -4z"/>
</g>
</svg>
