<?xml version="1.0" standalone="no"?>
<!DOCTYPE svg PUBLIC "-//W3C//DTD SVG 20010904//EN"
 "http://www.w3.org/TR/2001/REC-SVG-20010904/DTD/svg10.dtd">
<svg version="1.0" xmlns="http://www.w3.org/2000/svg"
 width="430.000000pt" height="590.000000pt" viewBox="0 0 430.000000 590.000000"
 preserveAspectRatio="xMidYMid meet">
<metadata>
Created by potrace 1.16, written by Peter Selinger 2001-2019
</metadata>
<g transform="translate(0.000000,590.000000) scale(0.500000,-0.500000)"
fill="#000000" stroke="none">
<path d="M361 1134 c-3 -2 -6 -7 -8 -10 -2 -3 -7 -10 -12 -16 -5 -6 -9 -12 -9
-13 0 -2 -5 -9 -11 -17 -12 -16 -14 -21 -30 -69 -3 -8 -8 -23 -13 -32 -5 -10
-11 -23 -14 -30 -3 -7 -6 -14 -6 -16 0 -4 -3 -18 -9 -45 -5 -22 -7 -41 -9
-100 -1 -62 0 -59 -26 -75 -60 -35 -66 -42 -61 -69 4 -24 35 -23 72 2 24 16
28 14 33 -19 5 -35 22 -84 33 -97 3 -3 7 -11 9 -17 2 -6 7 -15 10 -20 3 -4 6
-11 7 -15 1 -4 4 -12 8 -18 4 -6 7 -13 8 -16 1 -3 4 -8 7 -12 3 -5 7 -12 8
-17 1 -5 4 -12 9 -17 8 -10 9 -18 3 -30 -2 -4 -6 -16 -8 -26 -2 -10 -6 -22 -8
-27 -2 -6 -6 -16 -9 -24 -7 -22 -20 -52 -32 -79 -6 -14 -14 -32 -17 -40 -3 -8
-9 -23 -13 -32 -19 -41 -13 -74 12 -74 25 0 27 2 51 68 5 15 13 36 18 47 5 11
10 26 13 34 6 20 28 69 32 73 6 7 16 -7 22 -30 2 -7 5 -16 8 -21 2 -4 7 -18
11 -30 3 -12 11 -31 16 -41 5 -10 13 -27 18 -36 4 -9 10 -23 14 -30 14 -31 26
-41 46 -40 24 3 28 40 9 80 -5 12 -14 31 -19 43 -6 12 -12 24 -14 27 -3 5 -13
27 -54 116 -25 57 -30 86 -15 104 9 13 10 15 14 32 2 8 6 19 9 25 4 7 8 17 10
22 2 6 6 14 9 19 3 4 5 9 5 10 0 1 3 5 6 9 11 16 11 15 16 96 2 41 2 41 39 30
59 -17 79 -13 79 16 0 23 -2 25 -36 34 -82 22 -76 16 -76 75 0 45 0 48 -5 64
-3 9 -5 18 -5 20 0 2 -3 13 -7 25 -4 12 -8 28 -9 37 -2 15 -13 45 -25 64 -5 9
-8 17 -10 26 -1 4 -5 14 -10 21 -5 8 -9 15 -9 16 0 4 -31 50 -41 59 -11 11
-24 13 -34 6z m26 -87 c3 -3 7 -9 9 -15 3 -5 14 -30 25 -57 17 -37 22 -51 25
-67 2 -10 6 -22 7 -26 2 -4 4 -15 5 -30 1 -13 3 -28 5 -34 5 -19 6 -123 1
-132 -3 -6 -4 -12 -4 -29 0 -20 -3 -41 -11 -69 -2 -6 -3 -13 -3 -15 0 -2 -3
-9 -6 -16 -3 -7 -7 -18 -9 -25 -2 -7 -8 -21 -13 -31 -5 -10 -11 -22 -13 -27
-4 -12 -10 -13 -15 -3 -1 3 -9 11 -15 18 -17 16 -22 24 -29 42 -3 8 -9 21 -14
29 -4 7 -8 15 -9 18 -1 3 -5 12 -8 21 -5 11 -8 20 -9 32 -1 9 -2 18 -3 19 -2
3 -4 25 -7 64 -1 16 -3 34 -5 40 -4 14 -2 53 5 95 1 7 3 17 4 24 2 13 11 40
18 52 2 5 4 11 4 15 0 4 3 14 7 22 4 8 8 19 9 24 3 11 7 19 13 26 3 4 5 10 6
16 3 20 19 30 30 19z"/>
<path d="M675 1121 c-8 -6 -9 -13 -7 -106 1 -50 1 -283 1 -521 -2 -502 -5
-449 28 -448 24 2 22 -46 21 380 l-1 370 7 7 c4 4 12 10 18 14 32 20 62 77 70
136 1 9 4 23 5 31 7 31 -7 39 -31 18 -15 -14 -45 -35 -56 -39 -14 -5 -13 -7
-12 75 0 74 0 74 -6 80 -7 7 -29 9 -37 3z m105 -175 c0 -12 -7 -36 -14 -49 -4
-7 -9 -16 -10 -20 -4 -10 -20 -28 -28 -31 -11 -5 -12 -2 -12 37 0 39 1 42 25
51 7 3 17 8 24 12 12 8 16 8 15 0z"/>
<path d="M76 1115 c-9 -5 -9 -9 -8 -142 1 -69 1 -302 1 -516 -1 -215 -1 -392
0 -395 4 -13 42 -14 46 -1 4 13 1 1047 -3 1052 -5 5 -28 7 -36 2z"/>
</g>
</svg>
