<?xml version="1.0" standalone="no"?>
<!DOCTYPE svg PUBLIC "-//W3C//DTD SVG 20010904//EN"
 "http://www.w3.org/TR/2001/REC-SVG-20010904/DTD/svg10.dtd">
<svg version="1.0" xmlns="http://www.w3.org/2000/svg"
 width="140.000000pt" height="148.000000pt" viewBox="0 0 140.000000 148.000000"
 preserveAspectRatio="xMidYMid meet">
<metadata>
Created by potrace 1.16, written by Peter Selinger 2001-2019
</metadata>
<g transform="translate(0.000000,148.000000) scale(0.100000,-0.100000)"
fill="#000000" stroke="none">
<path d="M607 1370 c-21 -28 -42 -63 -48 -78 -6 -15 -23 -54 -39 -87 -30 -65
-50 -161 -50 -246 l0 -54 -61 -33 c-53 -29 -60 -37 -57 -60 4 -36 37 -40 85
-12 20 11 42 19 48 16 7 -2 16 -27 20 -54 4 -28 21 -73 39 -103 18 -30 39 -69
47 -86 7 -18 17 -33 21 -33 4 0 14 -16 23 -35 21 -43 15 -62 -66 -234 -61
-129 -74 -186 -43 -198 28 -11 46 10 82 93 77 176 93 207 101 198 5 -5 19 -34
31 -64 28 -71 89 -190 108 -213 10 -11 26 -17 41 -15 43 5 39 50 -12 143 -83
150 -137 262 -137 282 0 11 9 30 20 43 11 13 20 29 20 36 0 13 25 62 56 108 9
15 15 48 15 90 1 36 5 68 10 71 4 3 33 -1 64 -10 69 -21 95 -14 95 25 0 24 -5
31 -27 35 -16 4 -50 12 -78 19 l-50 13 -5 79 c-6 75 -30 178 -51 217 -5 10
-24 44 -40 75 -75 138 -103 151 -162 72z m110 -120 c59 -118 75 -181 75 -315
1 -66 -4 -140 -11 -165 -15 -57 -73 -200 -80 -200 -15 0 -64 64 -98 127 -28
52 -39 85 -45 143 -4 41 -10 97 -14 123 -8 65 20 170 82 305 32 69 49 66 91
-18z"/>
<path d="M90 736 c0 -456 3 -667 11 -671 5 -4 20 -4 32 -1 l22 5 -2 663 -2
663 -30 3 -31 3 0 -665z"/>
<path d="M235 1388 c-3 -7 -4 -308 -3 -668 l3 -655 30 0 30 0 0 665 0 665 -28
3 c-16 2 -29 -2 -32 -10z"/>
<path d="M1083 728 l2 -673 30 0 30 0 3 673 2 672 -34 0 -34 0 1 -672z"/>
<path d="M1230 1390 c-3 -268 1 -1324 5 -1331 8 -12 42 -12 50 0 4 7 7 831 5
1324 0 12 -8 17 -30 17 -16 0 -30 -4 -30 -10z"/>
</g>
</svg>
