<?xml version="1.0" standalone="no"?>
<!DOCTYPE svg PUBLIC "-//W3C//DTD SVG 20010904//EN"
 "http://www.w3.org/TR/2001/REC-SVG-20010904/DTD/svg10.dtd">
<svg version="1.0" xmlns="http://www.w3.org/2000/svg"
 width="95.000000pt" height="100.000000pt" viewBox="0 0 95.000000 100.000000"
 preserveAspectRatio="xMidYMid meet">
<metadata>
Created by potrace 1.16, written by Peter Selinger 2001-2019
</metadata>
<g transform="translate(0.000000,100.000000) scale(0.100000,-0.100000)"
fill="#000000" stroke="none">
<path d="M62 948 c-14 -14 -16 -364 -5 -706 6 -188 7 -202 25 -202 17 0 18 18
16 457 -2 304 -6 457 -13 460 -6 2 -16 -2 -23 -9z"/>
<path d="M403 918 c-53 -85 -76 -149 -81 -226 -5 -72 -5 -74 -43 -99 -48 -32
-53 -63 -10 -63 17 0 33 5 36 10 12 20 24 9 35 -31 6 -23 31 -73 56 -112 24
-39 44 -75 44 -80 0 -5 -23 -58 -51 -118 -55 -118 -58 -144 -19 -144 22 0 29
10 61 89 19 50 40 91 46 93 6 2 23 -28 38 -66 33 -84 74 -137 98 -128 29 11
19 48 -43 159 -33 59 -60 117 -60 129 0 12 16 50 35 85 24 42 35 75 35 103 0
22 4 42 8 45 5 3 26 1 47 -5 30 -9 41 -8 53 5 20 20 3 42 -41 52 -46 9 -57 22
-57 63 0 96 -93 281 -140 281 -12 0 -30 -16 -47 -42z m91 -97 c34 -77 48 -202
30 -287 -15 -73 -39 -134 -53 -134 -15 0 -57 66 -74 115 -24 68 -29 154 -13
215 21 80 53 150 69 150 8 0 26 -27 41 -59z"/>
<path d="M742 952 c-10 -7 -12 -106 -10 -463 3 -446 3 -454 23 -454 20 0 20 8
23 440 1 242 0 450 -3 463 -6 24 -13 26 -33 14z"/>
<path d="M160 495 c0 -436 1 -455 19 -455 16 0 19 11 24 83 9 106 9 435 0 655
-6 158 -8 172 -25 172 -17 0 -18 -20 -18 -455z"/>
<path d="M837 944 c-10 -11 -8 -887 2 -903 5 -8 16 -11 25 -8 15 6 16 51 14
459 -3 399 -5 453 -18 456 -9 1 -19 0 -23 -4z"/>
</g>
</svg>
