<?xml version="1.0" standalone="no"?>
<!DOCTYPE svg PUBLIC "-//W3C//DTD SVG 20010904//EN"
 "http://www.w3.org/TR/2001/REC-SVG-20010904/DTD/svg10.dtd">
<svg version="1.0" xmlns="http://www.w3.org/2000/svg"
 width="560.000000pt" height="590.000000pt" viewBox="0 0 560.000000 590.000000"
 preserveAspectRatio="xMidYMid meet">
<metadata>
Created by potrace 1.16, written by Peter Selinger 2001-2019
</metadata>
<g transform="translate(0.000000,590.000000) scale(0.500000,-0.500000)"
fill="#000000" stroke="none">
<path d="M528 1139 c-8 -2 -14 -7 -20 -17 -3 -5 -9 -12 -14 -16 -5 -4 -10 -10
-11 -13 -2 -4 -7 -11 -12 -17 -5 -6 -12 -16 -14 -22 -5 -10 -8 -16 -18 -45 -5
-13 -11 -25 -17 -34 -4 -5 -7 -13 -9 -17 -2 -5 -4 -10 -6 -13 -2 -2 -3 -5 -3
-7 0 -2 -2 -9 -4 -15 -7 -22 -14 -57 -14 -69 0 -7 -1 -15 -3 -19 -2 -6 -3 -17
-3 -53 0 -57 1 -55 -30 -71 -13 -7 -26 -14 -29 -16 -3 -3 -11 -7 -18 -11 -36
-18 -30 -58 9 -58 21 0 25 1 57 21 18 11 25 9 28 -6 1 -4 3 -11 4 -14 2 -4 3
-10 3 -14 0 -18 22 -73 35 -87 4 -4 8 -10 9 -15 1 -4 6 -12 10 -17 4 -6 8 -14
9 -18 0 -4 4 -11 8 -16 4 -5 8 -12 9 -16 1 -5 6 -11 10 -16 5 -5 8 -9 9 -16 1
-6 3 -10 10 -17 11 -11 11 -15 3 -33 -3 -7 -6 -14 -6 -16 0 -4 -9 -30 -14 -40
-2 -4 -4 -9 -4 -10 0 -2 -3 -10 -8 -18 -4 -8 -8 -17 -9 -20 -1 -3 -11 -25 -23
-50 -51 -103 -45 -88 -46 -112 -2 -62 57 -43 80 26 2 6 10 25 19 42 8 17 16
36 18 42 5 15 33 74 39 80 6 7 24 -14 24 -28 0 -5 3 -13 9 -22 3 -4 9 -18 13
-32 6 -18 11 -29 18 -40 5 -8 16 -27 23 -42 30 -59 45 -72 75 -64 28 8 8 91
-35 149 -5 7 -16 27 -61 117 l-28 55 0 20 c1 20 1 20 11 32 9 10 12 15 15 28
2 8 7 20 11 27 4 6 9 16 11 22 2 6 6 14 9 16 3 3 8 10 10 15 3 6 7 12 9 15 5
6 8 20 7 30 -1 4 0 14 2 22 2 9 3 25 3 37 0 39 3 40 47 27 45 -13 81 -14 86
-1 2 5 1 33 -1 37 -2 5 -17 11 -37 15 -9 2 -24 6 -34 9 -10 3 -25 7 -33 9 -22
5 -21 2 -20 56 0 42 0 47 -4 56 -2 6 -5 17 -7 25 -2 8 -6 19 -8 24 -6 11 -11
33 -11 43 0 9 -18 49 -30 66 -5 8 -8 15 -11 27 -1 3 -5 10 -10 16 -5 6 -12 16
-15 23 -3 6 -9 16 -13 21 -5 5 -10 12 -12 16 -2 3 -7 8 -10 11 -4 2 -10 6 -13
9 -7 6 -16 8 -24 7z m20 -92 c4 -4 14 -22 34 -62 27 -56 33 -71 36 -94 1 -8 3
-15 6 -19 5 -6 5 -8 6 -44 1 -23 2 -39 3 -41 5 -8 6 -28 2 -35 -5 -10 -5 -24
1 -32 7 -10 7 -19 1 -31 -5 -9 -6 -13 -7 -37 -2 -27 -2 -31 -11 -60 -3 -8 -5
-18 -6 -22 -1 -4 -3 -9 -4 -12 -2 -2 -6 -13 -10 -24 -4 -10 -10 -23 -13 -28
-3 -5 -9 -16 -13 -24 -11 -24 -14 -25 -24 -7 -3 5 -9 11 -14 14 -12 7 -25 23
-31 39 -3 8 -10 21 -16 29 -5 8 -12 20 -14 25 -2 6 -6 13 -7 15 -11 17 -15 42
-17 97 -1 39 -1 39 -7 47 -11 14 -14 49 -6 64 1 2 2 9 3 16 2 11 3 20 11 55 3
14 9 30 17 46 2 4 4 11 5 16 1 5 4 14 8 20 3 6 9 18 12 28 4 10 8 19 12 23 4
4 7 9 8 12 3 16 6 21 11 26 8 6 16 6 24 0z"/>
<path d="M86 1123 c-13 -3 -12 47 -12 -535 0 -527 0 -527 5 -532 8 -6 36 -6
43 1 7 7 7 1056 0 1061 -5 4 -26 7 -36 5z"/>
<path d="M877 1122 c-12 -5 -11 7 -9 -211 1 -110 1 -345 0 -523 -1 -356 -2
-334 8 -339 10 -5 36 -3 42 2 6 7 7 1061 0 1068 -4 4 -33 7 -41 3z"/>
<path d="M199 1117 c-3 -1 -6 -3 -8 -5 -4 -5 -5 -1046 -1 -1054 3 -5 12 -7 30
-6 25 2 22 -52 21 426 -1 239 -1 459 1 519 2 128 2 128 -43 120z"/>
<path d="M991 1115 c-11 -5 -10 1 -9 -195 1 -101 1 -335 0 -520 0 -186 0 -340
1 -343 3 -11 39 -16 49 -6 6 6 6 1055 0 1062 -5 5 -31 7 -41 2z"/>
</g>
</svg>
