<?xml version="1.0" standalone="no"?>
<!DOCTYPE svg PUBLIC "-//W3C//DTD SVG 20010904//EN"
 "http://www.w3.org/TR/2001/REC-SVG-20010904/DTD/svg10.dtd">
<svg version="1.0" xmlns="http://www.w3.org/2000/svg"
 width="66.000000pt" height="100.000000pt" viewBox="0 0 66.000000 100.000000"
 preserveAspectRatio="xMidYMid meet">
<metadata>
Created by potrace 1.16, written by Peter Selinger 2001-2019
</metadata>
<g transform="translate(0.000000,100.000000) scale(0.100000,-0.100000)"
fill="#000000" stroke="none">
<path d="M34 959 c-11 -19 -9 -118 3 -130 25 -25 43 -2 43 55 0 30 -3 61 -6
70 -7 19 -30 21 -40 5z"/>
<path d="M574 957 c-3 -8 -4 -41 -2 -73 2 -47 7 -59 20 -62 26 -5 41 43 31 98
-8 46 -37 68 -49 37z"/>
<path d="M282 935 c-16 -13 -40 -48 -53 -77 -20 -46 -24 -73 -27 -208 l-4
-155 -40 -77 c-41 -77 -45 -113 -11 -106 10 2 30 28 46 61 15 31 31 57 35 57
4 0 25 -34 45 -76 l38 -77 -52 -108 c-51 -105 -57 -139 -24 -139 11 0 31 31
58 90 22 49 45 90 49 90 5 0 17 -19 27 -42 48 -112 64 -138 82 -138 30 0 23
32 -32 142 l-51 101 29 75 c15 41 34 77 40 79 7 3 28 -21 48 -51 20 -31 37
-56 39 -56 17 0 36 15 36 27 0 8 -22 46 -49 83 l-49 67 -4 134 c-4 118 -7 142
-31 199 -27 64 -79 130 -103 130 -7 0 -26 -11 -42 -25z m85 -102 c34 -73 52
-249 35 -329 -14 -66 -51 -154 -66 -154 -6 0 -28 33 -49 73 -36 72 -37 76 -37
183 0 250 57 359 117 227z"/>
<path d="M27 138 c-6 -45 0 -95 13 -103 5 -3 16 -2 25 1 13 5 15 19 13 73 -3
58 -5 66 -24 69 -18 3 -22 -3 -27 -40z"/>
<path d="M581 171 c-8 -5 -11 -30 -9 -72 2 -51 6 -64 20 -67 25 -5 40 41 32
94 -6 43 -21 58 -43 45z"/>
</g>
</svg>
