<?xml version="1.0" standalone="no"?>
<!DOCTYPE svg PUBLIC "-//W3C//DTD SVG 20010904//EN"
 "http://www.w3.org/TR/2001/REC-SVG-20010904/DTD/svg10.dtd">
<svg version="1.0" xmlns="http://www.w3.org/2000/svg"
 width="98.000000pt" height="148.000000pt" viewBox="0 0 98.000000 148.000000"
 preserveAspectRatio="xMidYMid meet">
<metadata>
Created by potrace 1.16, written by Peter Selinger 2001-2019
</metadata>
<g transform="translate(0.000000,148.000000) scale(0.100000,-0.100000)"
fill="#000000" stroke="none">
<path d="M54 1419 c-5 -9 -9 -128 -5 -176 1 -7 14 -13 31 -13 l30 0 0 88 c0
87 -8 112 -36 112 -7 0 -16 -5 -20 -11z"/>
<path d="M857 1423 c-4 -3 -7 -49 -7 -100 l0 -94 33 3 32 3 3 83 c2 53 -1 89
-9 98 -12 15 -41 19 -52 7z"/>
<path d="M429 1388 c-106 -114 -129 -204 -132 -516 -1 -110 -6 -186 -12 -190
-6 -4 -24 -34 -41 -67 -18 -33 -40 -75 -50 -93 -19 -32 -19 -33 1 -48 10 -8
24 -13 29 -11 6 2 32 47 59 100 26 53 51 97 55 97 4 0 27 -44 51 -97 25 -54
51 -106 59 -115 23 -28 10 -73 -68 -232 -39 -80 -69 -150 -65 -156 3 -5 17
-10 31 -10 26 0 26 0 114 200 19 41 37 79 42 84 4 5 17 -13 29 -40 11 -27 38
-85 58 -129 21 -44 41 -88 44 -98 7 -19 52 -24 62 -7 4 6 -21 65 -54 133 -33
67 -68 144 -79 170 -18 47 -18 51 -1 100 37 109 76 192 90 192 7 0 28 -22 46
-50 76 -120 82 -126 103 -115 30 16 25 36 -29 109 -105 143 -98 123 -104 336
-5 179 -7 195 -35 273 -39 109 -118 212 -162 212 -6 0 -25 -15 -41 -32z m91
-88 c19 -23 44 -78 61 -132 29 -92 30 -96 26 -278 l-4 -185 -39 -90 c-67 -154
-65 -153 -120 -37 -20 42 -47 93 -60 112 -23 33 -24 42 -24 202 0 157 4 197
32 325 11 53 58 123 83 123 7 0 28 -18 45 -40z"/>
<path d="M54 249 c-10 -18 -7 -180 4 -191 6 -6 18 -8 28 -6 17 3 19 15 22 93
2 76 0 92 -14 102 -22 16 -31 16 -40 2z"/>
<path d="M852 148 l3 -93 30 0 30 0 0 90 0 90 -33 3 -33 3 3 -93z"/>
</g>
</svg>
