<?xml version="1.0" standalone="no"?>
<!DOCTYPE svg PUBLIC "-//W3C//DTD SVG 20010904//EN"
 "http://www.w3.org/TR/2001/REC-SVG-20010904/DTD/svg10.dtd">
<svg version="1.0" xmlns="http://www.w3.org/2000/svg"
 width="338.000000pt" height="590.000000pt" viewBox="0 0 338.000000 590.000000"
 preserveAspectRatio="xMidYMid meet">
<metadata>
Created by potrace 1.16, written by Peter Selinger 2001-2019
</metadata>
<g transform="translate(0.000000,590.000000) scale(0.500000,-0.500000)"
fill="#000000" stroke="none">
<path d="M307 1138 c-9 -2 -15 -6 -21 -15 -2 -4 -7 -11 -11 -15 -3 -3 -7 -11
-10 -17 -2 -5 -12 -21 -21 -35 -8 -14 -19 -30 -23 -36 -7 -11 -10 -22 -16 -52
-2 -9 -4 -21 -5 -25 -1 -4 -3 -17 -4 -27 -1 -11 -3 -22 -4 -25 -1 -3 -2 -8 -2
-11 0 -4 -3 -11 -6 -17 -6 -11 -6 -11 -6 -82 1 -79 1 -78 -21 -93 -5 -3 -19
-15 -31 -26 -20 -18 -35 -31 -56 -45 -13 -9 -30 -28 -31 -36 -1 -7 -1 -10 7
-29 8 -19 11 -20 24 -9 4 3 10 8 13 9 14 9 27 19 44 35 69 65 71 66 71 7 0
-18 1 -22 6 -34 9 -21 3 -37 -18 -51 -5 -3 -14 -10 -19 -15 -6 -5 -17 -13 -26
-19 -16 -9 -23 -14 -57 -40 -22 -17 -39 -34 -41 -43 -3 -15 10 -32 27 -34 19
-1 21 0 48 27 19 18 29 26 40 32 10 5 21 14 36 28 37 36 47 40 53 24 2 -4 6
-13 10 -19 4 -6 8 -17 10 -24 3 -10 6 -14 14 -23 10 -10 13 -14 27 -38 10 -17
10 -26 3 -39 -4 -5 -6 -14 -7 -20 -1 -7 -3 -14 -6 -17 -6 -8 -10 -24 -13 -49
-2 -19 -2 -20 -10 -27 -4 -5 -7 -10 -8 -15 -1 -4 -2 -11 -3 -15 -1 -4 -2 -11
-3 -15 -1 -3 -4 -9 -7 -12 -9 -7 -12 -16 -12 -33 0 -17 -3 -27 -12 -40 -14
-19 -3 -33 23 -33 29 0 41 7 41 20 0 4 3 12 7 19 7 13 15 38 15 48 0 4 1 10 3
14 2 4 3 9 3 11 0 3 2 9 5 15 11 22 15 36 17 47 5 37 15 49 25 31 18 -31 21
-37 27 -46 3 -5 9 -16 13 -24 3 -8 10 -19 14 -26 4 -6 7 -13 7 -15 0 -2 5 -13
11 -26 6 -13 12 -28 14 -35 10 -33 30 -45 56 -34 14 6 19 34 8 53 -5 10 -22
39 -30 52 -3 4 -7 11 -9 14 -1 3 -7 12 -12 21 -6 9 -10 18 -10 20 0 1 -3 8 -7
16 -4 8 -7 16 -7 18 0 2 -4 10 -8 17 -4 7 -9 16 -10 20 -1 4 -5 13 -9 18 -4 6
-9 13 -10 16 -2 3 -6 9 -9 13 -3 3 -7 10 -8 15 -1 4 -4 11 -6 15 -6 10 -7 22
-2 36 2 7 6 18 8 26 2 8 7 19 10 26 3 7 6 15 7 18 1 3 4 12 6 18 3 7 5 14 5
16 0 13 12 25 24 25 5 0 28 -16 28 -20 0 -1 6 -8 13 -16 7 -8 15 -18 18 -24 3
-6 7 -10 13 -14 6 -3 10 -8 16 -18 5 -8 11 -15 16 -19 4 -3 10 -9 13 -14 16
-28 63 -28 63 -1 0 27 -27 64 -63 90 -8 5 -16 13 -21 20 -4 6 -19 22 -32 34
-13 12 -26 26 -28 30 -3 4 -9 11 -14 16 -11 10 -14 28 -10 54 3 21 8 22 21 4
4 -5 11 -12 15 -15 5 -3 15 -11 23 -19 11 -10 18 -15 29 -19 8 -3 18 -9 22
-12 30 -25 45 -24 54 4 8 25 7 30 -13 39 -20 11 -33 20 -53 38 -16 14 -21 18
-28 19 -6 1 -9 3 -14 9 -3 4 -11 14 -19 22 -29 31 -29 31 -29 97 1 58 1 58 -5
75 -3 9 -5 18 -5 20 0 2 -1 6 -2 9 -2 2 -3 14 -4 27 -1 15 -3 27 -6 36 -2 7
-5 20 -6 28 -1 11 -4 19 -8 29 -4 8 -8 16 -9 19 0 3 -4 10 -8 14 -3 5 -13 18
-20 29 -29 41 -52 53 -82 45z m34 -83 c6 -5 8 -9 12 -23 4 -14 6 -18 13 -24 8
-8 12 -17 12 -31 0 -5 3 -15 6 -24 6 -13 6 -17 6 -39 0 -24 0 -24 8 -43 l9
-18 1 -76 c1 -61 1 -78 -1 -88 -2 -7 -3 -17 -3 -23 0 -7 -2 -17 -5 -25 -2 -8
-5 -18 -6 -22 -1 -4 -3 -14 -6 -22 -3 -8 -6 -21 -7 -28 -1 -8 -3 -19 -4 -25
-2 -11 -8 -31 -27 -81 -14 -38 -18 -40 -30 -17 -3 6 -9 16 -13 23 -4 7 -9 16
-10 20 -4 12 -19 44 -27 57 -11 17 -17 40 -19 64 -1 12 -2 24 -4 27 -1 3 -2
12 -2 21 0 8 -1 18 -2 22 -7 22 -10 111 -5 137 6 31 9 46 11 54 1 4 3 14 4 22
1 8 2 15 3 16 0 2 2 10 3 19 5 41 12 60 28 77 5 5 9 12 12 20 11 32 27 44 43
30z"/>
</g>
</svg>
