<?xml version="1.0" standalone="no"?>
<!DOCTYPE svg PUBLIC "-//W3C//DTD SVG 20010904//EN"
 "http://www.w3.org/TR/2001/REC-SVG-20010904/DTD/svg10.dtd">
<svg version="1.0" xmlns="http://www.w3.org/2000/svg"
 width="73.000000pt" height="100.000000pt" viewBox="0 0 73.000000 100.000000"
 preserveAspectRatio="xMidYMid meet">
<metadata>
Created by potrace 1.16, written by Peter Selinger 2001-2019
</metadata>
<g transform="translate(0.000000,100.000000) scale(0.100000,-0.100000)"
fill="#000000" stroke="none">
<path d="M295 907 c-59 -61 -75 -106 -75 -214 0 -37 -3 -77 -6 -88 -3 -11 -41
-45 -86 -75 -81 -56 -99 -75 -91 -97 9 -24 38 -13 107 42 38 30 74 55 81 55
14 0 29 -46 20 -61 -4 -5 -32 -27 -64 -48 -78 -53 -89 -67 -68 -88 17 -17 11
-20 101 51 39 30 66 29 66 -3 0 -13 -20 -34 -60 -61 -33 -22 -60 -45 -60 -49
0 -5 7 -14 15 -21 13 -11 21 -10 43 7 15 10 41 30 59 42 65 48 70 -5 13 -139
-43 -100 -44 -133 -7 -128 18 2 27 18 46 76 27 86 35 84 66 -11 16 -49 25 -63
43 -65 37 -6 36 22 -7 127 -42 103 -47 126 -31 151 8 12 13 11 39 -8 17 -12
44 -32 61 -44 24 -17 32 -19 45 -8 8 7 15 16 15 21 0 4 -27 27 -60 49 -40 27
-60 48 -60 61 0 37 28 32 90 -17 54 -42 62 -46 76 -33 22 23 10 40 -56 82 -32
21 -64 45 -70 53 -14 16 -5 64 12 64 6 0 44 -25 84 -56 73 -56 106 -65 112
-32 2 12 -19 33 -65 65 -122 86 -123 88 -123 191 0 79 -3 95 -31 150 -31 63
-78 112 -107 112 -9 0 -39 -24 -67 -53z m114 -62 c19 -31 32 -69 40 -119 12
-86 6 -132 -39 -278 -44 -140 -60 -135 -110 35 -29 98 -32 119 -28 205 3 67
10 108 22 132 44 84 73 91 115 25z"/>
</g>
</svg>
