<?xml version="1.0" standalone="no"?>
<!DOCTYPE svg PUBLIC "-//W3C//DTD SVG 20010904//EN"
 "http://www.w3.org/TR/2001/REC-SVG-20010904/DTD/svg10.dtd">
<svg version="1.0" xmlns="http://www.w3.org/2000/svg"
 width="434.000000pt" height="590.000000pt" viewBox="0 0 434.000000 590.000000"
 preserveAspectRatio="xMidYMid meet">
<metadata>
Created by potrace 1.16, written by Peter Selinger 2001-2019
</metadata>
<g transform="translate(0.000000,590.000000) scale(0.500000,-0.500000)"
fill="#000000" stroke="none">
<path d="M418 1125 c-19 -8 -44 -28 -44 -35 0 -1 -8 -8 -19 -16 -19 -14 -51
-56 -57 -74 -2 -4 -4 -9 -6 -13 -6 -7 -20 -50 -20 -59 0 -4 -1 -13 -3 -21 -2
-10 -3 -21 -2 -43 1 -23 1 -32 -2 -45 -3 -14 -3 -23 -2 -65 l2 -49 -16 -13
c-19 -15 -33 -26 -65 -49 -13 -9 -28 -21 -34 -26 -5 -4 -14 -11 -19 -14 -4 -3
-17 -13 -29 -21 -12 -9 -26 -20 -33 -24 -26 -20 -27 -21 -15 -40 19 -31 20
-31 62 3 4 3 14 11 22 17 8 7 20 16 26 21 12 10 34 27 51 40 6 4 19 14 29 22
34 26 36 26 39 10 1 -4 4 -13 6 -19 3 -7 5 -16 5 -20 0 -5 1 -13 3 -17 8 -22
10 -19 -58 -66 -12 -8 -27 -19 -33 -23 -6 -5 -21 -15 -33 -23 -12 -8 -24 -16
-27 -18 -19 -14 -21 -19 -12 -38 12 -26 25 -26 52 -2 4 4 14 12 23 18 9 7 23
18 32 24 8 7 21 17 28 22 8 5 17 12 22 16 26 21 30 20 37 -5 2 -8 7 -21 11
-28 10 -21 9 -22 -66 -68 -8 -5 -18 -12 -22 -15 -4 -4 -16 -11 -26 -17 -34
-20 -36 -25 -19 -43 23 -24 18 -26 96 32 71 53 75 55 82 30 1 -4 5 -14 9 -22
4 -8 7 -16 8 -18 2 -8 -7 -35 -20 -62 -9 -19 -14 -32 -18 -48 -3 -14 -7 -25
-11 -30 -3 -5 -7 -13 -8 -18 -7 -30 -14 -45 -31 -74 -5 -8 -7 -35 -4 -44 5
-13 50 -12 56 1 8 15 19 45 19 51 0 7 5 24 11 36 3 4 5 12 6 16 1 4 4 14 8 21
6 10 8 15 9 28 2 23 12 21 19 -4 2 -6 7 -15 11 -21 5 -6 9 -13 10 -21 1 -6 5
-15 7 -20 7 -10 9 -17 11 -34 1 -11 8 -30 19 -52 4 -9 34 -14 48 -8 10 5 12
38 3 54 -17 28 -21 36 -27 61 -2 7 -6 18 -10 26 -4 8 -8 19 -10 26 -7 27 -10
33 -21 56 -20 41 -22 55 -10 79 4 9 8 19 9 22 4 19 12 19 34 4 9 -7 25 -18 34
-25 10 -7 22 -15 26 -19 12 -11 45 -34 52 -37 9 -4 15 -1 30 13 18 18 16 23
-19 45 -10 6 -26 16 -34 22 -8 6 -26 17 -40 26 -47 29 -49 32 -40 49 4 7 9 21
12 30 8 24 12 25 34 7 5 -4 15 -12 23 -17 8 -4 17 -11 21 -15 4 -3 9 -8 12
-10 23 -17 48 -36 52 -40 29 -27 58 -18 58 19 0 8 -12 18 -52 45 -8 5 -20 13
-26 17 -6 4 -21 15 -33 23 -63 43 -62 42 -60 54 3 23 7 43 11 51 2 5 4 13 5
18 2 14 10 12 34 -7 10 -7 21 -16 47 -36 6 -4 17 -13 25 -20 8 -7 19 -16 25
-20 12 -9 31 -24 49 -39 26 -21 31 -21 49 6 13 20 12 23 -28 51 -12 9 -27 20
-34 26 -7 5 -13 9 -14 9 -1 0 -6 4 -12 10 -11 9 -22 17 -38 28 -4 3 -12 9 -17
13 -6 4 -16 12 -23 17 -7 5 -17 13 -22 17 -5 4 -12 10 -15 13 -6 4 -6 4 -6 59
-1 83 -4 146 -8 156 -1 4 -3 12 -3 17 0 45 -59 135 -120 183 -21 17 -29 18
-48 10z m33 -66 c26 -29 34 -40 42 -55 4 -10 12 -21 17 -27 14 -14 18 -25 18
-43 0 -13 2 -26 9 -48 1 -5 3 -16 4 -24 0 -9 2 -18 3 -20 4 -13 3 -120 -2
-131 -5 -12 -12 -40 -12 -52 0 -4 -3 -14 -6 -22 -3 -9 -6 -17 -6 -19 0 -7 -9
-36 -14 -46 -6 -11 -9 -22 -12 -47 -1 -9 -4 -16 -8 -22 -3 -4 -10 -22 -16 -38
-25 -77 -52 -77 -77 0 -5 17 -12 34 -15 39 -3 5 -6 11 -6 14 0 10 -7 35 -13
51 -7 15 -9 23 -16 51 -1 6 -5 16 -7 22 -2 5 -4 14 -4 19 0 10 -3 21 -11 47
-6 19 -8 113 -2 135 2 6 3 16 3 22 0 5 2 19 5 29 3 10 6 28 7 39 2 22 3 27 17
43 5 6 13 17 17 25 4 8 11 17 14 20 4 4 11 13 17 21 16 24 41 31 54 17z"/>
</g>
</svg>
