<?xml version="1.0" standalone="no"?>
<!DOCTYPE svg PUBLIC "-//W3C//DTD SVG 20010904//EN"
 "http://www.w3.org/TR/2001/REC-SVG-20010904/DTD/svg10.dtd">
<svg version="1.0" xmlns="http://www.w3.org/2000/svg"
 width="45.000000pt" height="100.000000pt" viewBox="0 0 45.000000 100.000000"
 preserveAspectRatio="xMidYMid meet">
<metadata>
Created by potrace 1.16, written by Peter Selinger 2001-2019
</metadata>
<g transform="translate(0.000000,100.000000) scale(0.100000,-0.100000)"
fill="#000000" stroke="none">
<path d="M92 958 c-29 -29 -3 -105 31 -92 9 3 17 11 17 18 0 6 3 20 6 32 3 13
-1 28 -11 38 -20 19 -27 20 -43 4z"/>
<path d="M192 958 c-7 -7 -12 -28 -12 -48 0 -24 -12 -54 -35 -89 -46 -72 -59
-141 -52 -275 6 -106 5 -109 -25 -171 -32 -65 -32 -99 -1 -93 10 2 25 22 34
48 9 24 21 46 27 48 13 4 62 -84 62 -114 0 -12 -13 -59 -30 -104 -34 -93 -36
-108 -14 -117 24 -9 43 17 62 87 9 35 22 65 28 67 6 2 21 -20 33 -49 37 -91
45 -103 71 -103 14 0 26 7 28 15 1 9 -25 64 -59 124 l-63 109 20 55 c10 31 24
57 31 59 7 3 26 -23 43 -57 23 -45 35 -60 46 -56 9 3 18 6 20 6 16 0 -3 46
-45 109 l-50 74 6 81 c7 106 -16 215 -56 271 -20 27 -31 56 -33 85 -3 46 -15
59 -36 38z m51 -204 c15 -48 18 -81 14 -179 -5 -124 -29 -231 -49 -219 -42 26
-75 203 -58 310 13 81 44 158 62 152 7 -3 21 -31 31 -64z"/>
<path d="M283 963 c-19 -7 -17 -92 2 -99 36 -14 63 64 33 94 -13 13 -16 13
-35 5z"/>
</g>
</svg>
