<?xml version="1.0" standalone="no"?>
<!DOCTYPE svg PUBLIC "-//W3C//DTD SVG 20010904//EN"
 "http://www.w3.org/TR/2001/REC-SVG-20010904/DTD/svg10.dtd">
<svg version="1.0" xmlns="http://www.w3.org/2000/svg"
 width="264.000000pt" height="590.000000pt" viewBox="0 0 264.000000 590.000000"
 preserveAspectRatio="xMidYMid meet">
<metadata>
Created by potrace 1.16, written by Peter Selinger 2001-2019
</metadata>
<g transform="translate(0.000000,590.000000) scale(0.500000,-0.500000)"
fill="#000000" stroke="none">
<path d="M115 1138 c-10 -4 -10 -6 -9 -52 0 -59 2 -61 35 -60 30 2 31 4 31 55
0 40 -2 50 -12 55 -6 3 -40 5 -45 2z"/>
<path d="M331 1138 c-14 -4 -15 -7 -15 -57 0 -60 0 -60 33 -60 31 0 30 -1 32
67 2 53 3 51 -26 51 -10 1 -21 0 -24 -1z"/>
<path d="M219 1133 c-5 -5 -5 -5 -5 -49 0 -49 -1 -53 -12 -67 -3 -3 -8 -10
-10 -15 -3 -5 -11 -18 -18 -29 -25 -37 -29 -46 -44 -91 -13 -38 -15 -45 -16
-64 -1 -12 -2 -23 -3 -24 -3 -5 -2 -165 1 -171 3 -6 7 -22 12 -45 1 -6 3 -16
4 -22 5 -24 6 -22 -62 -167 -16 -34 -15 -41 2 -48 21 -8 27 -3 41 32 27 69 37
89 43 89 4 0 16 -16 21 -27 2 -5 6 -12 9 -17 3 -5 6 -12 7 -15 2 -9 7 -17 16
-28 26 -28 34 -49 25 -67 -3 -8 -6 -16 -6 -21 0 -4 -2 -13 -5 -19 -5 -12 -13
-40 -13 -48 0 -2 -3 -10 -7 -17 -4 -8 -10 -21 -12 -32 -3 -10 -7 -23 -11 -29
-3 -6 -6 -15 -7 -21 -1 -5 -4 -16 -7 -24 -13 -33 -10 -39 23 -39 22 0 30 4 32
18 1 5 4 14 8 21 4 7 8 18 9 24 5 27 9 41 16 59 9 19 10 22 15 47 6 27 11 29
22 10 5 -7 12 -19 16 -27 16 -27 32 -58 38 -73 4 -9 10 -24 14 -34 17 -44 22
-50 42 -49 36 0 41 27 14 70 -41 67 -48 79 -56 106 -2 5 -5 13 -8 18 -4 5 -8
14 -10 19 -2 6 -10 19 -18 30 -7 12 -14 24 -15 27 -1 3 -4 9 -6 13 -5 10 -5
24 0 34 2 5 5 14 7 21 2 7 5 18 8 23 5 11 14 36 17 48 8 30 19 39 30 24 5 -7
11 -15 14 -18 3 -4 14 -23 25 -42 35 -64 36 -65 42 -68 36 -19 41 16 10 68
-13 22 -33 56 -45 76 -51 86 -46 74 -40 105 8 40 7 181 -2 212 -5 17 -8 31 -9
43 0 11 -2 23 -5 30 -2 7 -5 17 -5 24 -1 8 -4 18 -9 28 -4 9 -8 18 -9 20 -1 5
-30 43 -42 56 -13 15 -13 16 -13 64 0 54 1 53 -29 53 -18 0 -20 0 -24 -5z m36
-161 c9 -7 11 -10 15 -24 3 -9 7 -17 12 -23 5 -6 8 -12 9 -17 1 -4 3 -11 4
-16 8 -25 11 -38 11 -45 0 -4 2 -12 4 -18 11 -33 10 -199 -1 -238 -12 -42 -14
-50 -18 -74 -4 -25 -7 -33 -26 -84 -12 -32 -16 -34 -28 -11 -3 6 -8 14 -11 19
-3 5 -7 14 -9 20 -4 11 -17 37 -24 49 -7 12 -15 39 -15 54 0 7 -1 18 -3 25 -2
7 -3 17 -3 23 0 7 -1 16 -2 20 -12 50 -11 92 3 160 4 21 5 24 7 42 6 51 14 72
29 90 5 5 9 13 10 16 5 24 24 41 36 32z"/>
</g>
</svg>
