<?xml version="1.0" standalone="no"?>
<!DOCTYPE svg PUBLIC "-//W3C//DTD SVG 20010904//EN"
 "http://www.w3.org/TR/2001/REC-SVG-20010904/DTD/svg10.dtd">
<svg version="1.0" xmlns="http://www.w3.org/2000/svg"
 width="66.000000pt" height="148.000000pt" viewBox="0 0 66.000000 148.000000"
 preserveAspectRatio="xMidYMid meet">
<metadata>
Created by potrace 1.16, written by Peter Selinger 2001-2019
</metadata>
<g transform="translate(0.000000,148.000000) scale(0.100000,-0.100000)"
fill="#000000" stroke="none">
<path d="M130 1356 c0 -36 4 -67 8 -70 5 -3 22 -2 38 3 28 7 29 10 29 67 l0
59 -37 3 -38 3 0 -65z"/>
<path d="M269 1413 c-1 -4 0 -32 1 -61 2 -49 -2 -60 -45 -124 -25 -38 -56 -98
-67 -131 -24 -74 -36 -269 -20 -325 31 -111 33 -99 -24 -217 -39 -81 -50 -113
-42 -122 25 -30 43 -13 77 73 l34 87 18 -24 c10 -13 19 -29 19 -35 0 -5 17
-36 38 -69 l38 -58 -19 -61 c-10 -34 -25 -76 -33 -94 -8 -18 -14 -41 -14 -52
0 -10 -4 -22 -10 -25 -5 -3 -10 -17 -10 -30 0 -13 -5 -27 -10 -30 -6 -3 -10
-15 -10 -26 0 -15 7 -19 34 -19 l34 0 31 96 c17 52 31 101 31 108 0 7 6 21 14
31 13 18 18 12 65 -84 28 -57 51 -110 51 -117 0 -22 41 -44 62 -33 21 12 23
37 4 64 -7 11 -46 83 -86 160 l-72 140 33 98 c19 53 37 97 41 97 9 0 98 -151
98 -167 0 -8 13 -13 30 -13 21 0 30 5 30 16 0 14 -40 85 -118 207 -27 43 -29
52 -20 84 11 41 5 231 -11 313 -17 93 -29 124 -72 181 -37 50 -40 58 -37 109
l3 55 -32 3 c-18 2 -34 0 -34 -5z m75 -246 c36 -80 48 -149 50 -276 1 -82 -4
-138 -17 -191 -28 -114 -58 -200 -68 -200 -22 0 -86 165 -99 257 -25 180 8
371 79 457 18 22 28 13 55 -47z"/>
<path d="M394 1407 c-3 -8 -4 -38 -2 -68 3 -47 6 -53 29 -60 40 -10 47 0 50
71 l4 65 -38 3 c-25 2 -39 -1 -43 -11z"/>
</g>
</svg>
