<?xml version="1.0" standalone="no"?>
<!DOCTYPE svg PUBLIC "-//W3C//DTD SVG 20010904//EN"
 "http://www.w3.org/TR/2001/REC-SVG-20010904/DTD/svg10.dtd">
<svg version="1.0" xmlns="http://www.w3.org/2000/svg"
 width="254.000000pt" height="590.000000pt" viewBox="0 0 254.000000 590.000000"
 preserveAspectRatio="xMidYMid meet">
<metadata>
Created by potrace 1.16, written by Peter Selinger 2001-2019
</metadata>
<g transform="translate(0.000000,590.000000) scale(0.500000,-0.500000)"
fill="#000000" stroke="none">
<path d="M293 1138 c-4 -3 -10 -15 -28 -60 -21 -55 -21 -55 -41 -13 -35 71
-35 71 -50 67 -26 -8 -25 -15 4 -69 38 -71 38 -70 27 -83 -13 -14 -14 -14 -51
56 -25 48 -45 65 -64 56 -23 -12 -24 -10 42 -112 31 -48 33 -54 25 -68 -12
-17 -24 -44 -30 -62 -4 -12 -9 -23 -10 -26 -1 -3 -3 -10 -4 -17 0 -7 -2 -16
-4 -20 -3 -7 -5 -19 -8 -64 -2 -16 1 -43 6 -78 2 -10 4 -29 5 -43 1 -14 3 -28
4 -32 14 -46 16 -67 10 -85 -11 -31 -43 -121 -52 -145 -6 -15 -14 -35 -17 -45
-12 -32 -6 -45 21 -45 11 0 14 4 33 62 32 96 41 120 46 120 3 0 22 -37 38 -74
5 -11 11 -23 14 -27 7 -10 6 -14 -2 -38 -4 -11 -10 -29 -13 -39 -4 -10 -8 -23
-11 -27 -2 -4 -5 -12 -6 -17 -4 -15 -10 -31 -14 -38 -2 -4 -6 -16 -9 -27 -3
-11 -10 -33 -16 -49 -15 -43 -13 -52 13 -57 23 -5 28 -1 32 27 2 19 15 62 28
101 11 31 12 34 19 59 12 42 19 40 31 -7 3 -11 8 -27 11 -35 3 -8 9 -27 14
-42 4 -15 10 -32 12 -39 4 -12 7 -27 9 -46 2 -18 10 -23 33 -18 24 5 26 13 12
54 -6 17 -13 40 -16 51 -3 12 -8 26 -11 31 -4 9 -9 21 -16 41 -1 5 -8 24 -15
43 -21 58 -21 61 -13 73 3 4 10 19 17 34 43 94 38 96 83 -32 30 -84 31 -85 37
-90 6 -5 11 -5 23 1 20 9 20 10 -6 74 -66 167 -71 184 -65 210 2 10 5 23 6 29
1 6 3 15 5 19 2 6 3 25 4 90 1 79 1 90 -5 123 -1 6 -3 20 -5 30 -2 18 -4 23
-14 46 -8 17 -11 10 47 90 41 56 40 55 31 66 -18 21 -27 17 -53 -22 -46 -68
-54 -77 -59 -71 -5 4 26 81 40 102 24 35 21 61 -8 61 -13 0 -20 -8 -32 -41
-27 -75 -32 -83 -45 -69 -10 11 -10 11 29 97 17 37 18 40 15 48 -3 9 -24 16
-33 11z m-36 -193 c18 -11 61 -89 68 -126 8 -38 11 -193 4 -218 -2 -7 -3 -15
-3 -19 0 -10 -14 -80 -18 -94 -4 -12 -15 -36 -43 -95 -16 -35 -25 -35 -41 -1
-46 98 -44 95 -55 155 -5 27 -10 53 -11 57 -3 9 -3 138 0 148 1 4 3 16 4 27 7
63 18 96 48 138 24 34 31 38 47 28z"/>
</g>
</svg>
