<?xml version="1.0" standalone="no"?>
<!DOCTYPE svg PUBLIC "-//W3C//DTD SVG 20010904//EN"
 "http://www.w3.org/TR/2001/REC-SVG-20010904/DTD/svg10.dtd">
<svg version="1.0" xmlns="http://www.w3.org/2000/svg"
 width="64.000000pt" height="148.000000pt" viewBox="0 0 64.000000 148.000000"
 preserveAspectRatio="xMidYMid meet">
<metadata>
Created by potrace 1.16, written by Peter Selinger 2001-2019
</metadata>
<g transform="translate(0.000000,148.000000) scale(0.100000,-0.100000)"
fill="#000000" stroke="none">
<path d="M363 1418 c-6 -7 -18 -35 -27 -63 -28 -86 -31 -86 -68 -9 -33 68 -52
83 -70 54 -7 -11 1 -34 32 -83 27 -45 39 -75 35 -88 -11 -34 -34 -20 -64 39
-45 85 -64 106 -89 97 -12 -3 -22 -11 -22 -16 0 -5 25 -46 55 -92 59 -87 63
-101 41 -132 -22 -32 -47 -115 -56 -180 -6 -54 3 -165 26 -286 4 -26 0 -55
-14 -96 -27 -79 -52 -143 -63 -168 -5 -11 -11 -33 -12 -50 -2 -25 2 -30 21
-30 21 0 27 12 60 113 21 68 41 112 49 112 7 0 13 -5 13 -11 0 -5 14 -39 31
-75 l31 -64 -17 -43 c-35 -87 -95 -262 -95 -278 0 -17 40 -34 50 -21 4 4 23
66 44 137 21 72 42 134 46 138 9 10 80 -203 80 -238 0 -30 21 -46 49 -38 20 5
22 10 16 42 -4 20 -11 40 -16 46 -5 5 -9 16 -9 24 0 8 -19 64 -41 124 l-41
109 38 77 c22 42 43 76 48 76 5 0 23 -40 41 -90 17 -49 34 -97 37 -105 4 -8 9
-23 12 -32 6 -21 44 -24 52 -4 3 7 -20 77 -52 155 -53 133 -56 145 -48 194 4
29 8 120 8 202 0 116 -3 160 -16 194 -19 50 -18 53 65 154 32 39 37 50 27 62
-22 27 -38 16 -84 -55 -44 -67 -66 -86 -66 -56 0 8 19 51 42 96 40 79 41 83
23 96 -25 18 -33 10 -64 -73 -27 -70 -37 -79 -54 -52 -8 13 -1 35 26 94 29 60
35 81 26 91 -14 17 -24 18 -36 2z m-19 -261 c55 -72 68 -121 69 -272 1 -85 -3
-168 -12 -210 -14 -73 -79 -220 -96 -220 -16 0 -81 141 -96 208 -17 77 -17
315 0 377 17 63 71 150 93 150 9 0 28 -15 42 -33z"/>
</g>
</svg>
