<?xml version="1.0" standalone="no"?>
<!DOCTYPE svg PUBLIC "-//W3C//DTD SVG 20010904//EN"
 "http://www.w3.org/TR/2001/REC-SVG-20010904/DTD/svg10.dtd">
<svg version="1.0" xmlns="http://www.w3.org/2000/svg"
 width="43.000000pt" height="100.000000pt" viewBox="0 0 43.000000 100.000000"
 preserveAspectRatio="xMidYMid meet">
<metadata>
Created by potrace 1.16, written by Peter Selinger 2001-2019
</metadata>
<g transform="translate(0.000000,100.000000) scale(0.100000,-0.100000)"
fill="#000000" stroke="none">
<path d="M242 958 c-6 -7 -14 -26 -17 -41 -11 -42 -22 -41 -45 3 -11 22 -25
40 -31 40 -20 0 -20 -30 0 -63 22 -36 27 -67 11 -67 -5 0 -18 17 -29 38 -23
45 -46 66 -61 57 -18 -11 -11 -36 26 -86 l36 -50 -20 -47 c-30 -70 -36 -132
-22 -235 l12 -93 -36 -93 c-20 -51 -33 -97 -30 -102 3 -5 14 -9 24 -9 14 0 24
16 40 65 12 36 26 67 30 70 12 8 40 -48 40 -79 0 -13 -14 -59 -31 -101 -40
-101 -42 -130 -10 -130 22 0 27 8 46 80 12 44 26 80 31 80 5 0 18 -36 30 -80
17 -67 24 -81 42 -83 36 -5 35 20 -2 121 -20 52 -36 105 -36 117 0 27 31 81
44 77 5 -2 17 -26 27 -54 25 -73 37 -93 59 -93 28 0 25 16 -19 127 l-38 98 10
90 c7 67 7 109 -2 163 l-13 73 36 46 c40 52 43 61 20 70 -11 4 -27 -6 -50 -33
-37 -43 -46 -28 -14 21 25 38 26 68 3 63 -11 -2 -23 -20 -31 -46 -8 -23 -20
-42 -28 -42 -19 0 -18 2 12 62 22 44 24 53 11 65 -11 11 -16 12 -25 1z m2
-204 c32 -60 35 -250 7 -342 -29 -94 -37 -103 -60 -74 -64 75 -67 375 -5 443
23 26 33 21 58 -27z"/>
</g>
</svg>
