<?xml version="1.0" standalone="no"?>
<!DOCTYPE svg PUBLIC "-//W3C//DTD SVG 20010904//EN"
 "http://www.w3.org/TR/2001/REC-SVG-20010904/DTD/svg10.dtd">
<svg version="1.0" xmlns="http://www.w3.org/2000/svg"
 width="49.000000pt" height="100.000000pt" viewBox="0 0 49.000000 100.000000"
 preserveAspectRatio="xMidYMid meet">
<metadata>
Created by potrace 1.16, written by Peter Selinger 2001-2019
</metadata>
<g transform="translate(0.000000,100.000000) scale(0.100000,-0.100000)"
fill="#000000" stroke="none">
<path d="M166 927 c-65 -84 -91 -199 -83 -355 5 -103 4 -108 -25 -165 -29 -58
-34 -107 -11 -114 7 -3 24 18 38 46 14 28 29 51 34 51 4 0 25 -27 45 -60 l38
-61 -52 -106 c-53 -109 -57 -137 -18 -131 19 2 30 21 62 101 21 53 42 97 46
97 4 0 25 -44 47 -97 40 -99 57 -117 91 -95 10 7 1 35 -44 125 l-58 115 20 29
c10 15 24 41 30 57 6 17 15 31 21 33 6 2 23 -22 39 -54 21 -42 35 -58 49 -58
35 0 28 37 -25 120 l-50 79 0 126 c0 147 -13 203 -68 291 -33 52 -41 59 -69
59 -24 0 -38 -8 -57 -33z m84 -56 c41 -58 52 -110 57 -261 4 -130 3 -151 -16
-201 -12 -30 -28 -64 -36 -75 -14 -18 -16 -18 -44 12 -16 18 -39 58 -52 90
-45 116 -25 355 36 442 21 29 29 28 55 -7z"/>
<path d="M204 727 c-2 -7 -3 -69 -2 -138 3 -116 4 -124 23 -124 19 0 20 8 23
115 1 63 0 125 -3 138 -6 24 -33 30 -41 9z"/>
</g>
</svg>
