<?xml version="1.0" standalone="no"?>
<!DOCTYPE svg PUBLIC "-//W3C//DTD SVG 20010904//EN"
 "http://www.w3.org/TR/2001/REC-SVG-20010904/DTD/svg10.dtd">
<svg version="1.0" xmlns="http://www.w3.org/2000/svg"
 width="286.000000pt" height="590.000000pt" viewBox="0 0 286.000000 590.000000"
 preserveAspectRatio="xMidYMid meet">
<metadata>
Created by potrace 1.16, written by Peter Selinger 2001-2019
</metadata>
<g transform="translate(0.000000,590.000000) scale(0.500000,-0.500000)"
fill="#000000" stroke="none">
<path d="M239 1137 c-3 -1 -10 -7 -16 -13 -5 -6 -12 -14 -15 -17 -3 -4 -12
-16 -19 -27 -7 -12 -16 -25 -20 -29 -10 -12 -22 -38 -25 -53 -4 -22 -6 -27
-13 -38 -10 -15 -13 -22 -13 -32 0 -13 -7 -56 -12 -74 -2 -9 -4 -26 -5 -39 -1
-13 -2 -28 -3 -34 -6 -27 -6 -90 0 -115 23 -101 17 -132 -44 -226 -21 -33 -22
-63 -3 -84 12 -14 16 -9 52 62 40 78 33 78 72 7 19 -34 32 -55 38 -61 5 -5 11
-14 14 -20 4 -6 7 -13 9 -15 5 -7 1 -18 -32 -87 -16 -35 -36 -77 -45 -95 -8
-18 -19 -40 -24 -50 -18 -36 -19 -46 -1 -51 26 -7 54 6 54 24 0 3 4 14 8 24 5
11 10 24 12 30 3 6 9 21 15 34 6 13 13 31 17 40 4 9 12 29 19 44 7 15 13 28
13 29 0 7 10 12 14 8 4 -4 31 -61 57 -123 9 -19 18 -39 21 -45 4 -9 10 -25 17
-47 5 -14 10 -17 30 -19 28 -2 42 5 37 20 -5 19 -12 34 -18 41 -7 7 -16 28
-19 40 0 3 -4 9 -8 14 -9 11 -56 107 -59 120 -1 6 -3 13 -5 16 -2 3 -3 8 -3
11 0 3 -2 10 -5 14 -9 15 -8 17 31 68 13 19 18 27 19 33 6 36 31 82 31 57 0
-2 4 -8 9 -13 6 -7 15 -21 26 -43 10 -19 19 -36 21 -39 2 -3 8 -13 13 -22 14
-27 26 -34 42 -23 13 8 13 46 0 63 -5 6 -9 13 -10 15 0 2 -4 8 -8 13 -11 13
-67 111 -79 136 -6 14 -6 14 -6 133 0 78 -1 122 -2 127 -1 4 -3 23 -4 42 -2
38 -1 31 -25 108 -2 8 -5 18 -6 21 -1 5 -8 16 -48 77 -6 8 -13 19 -16 25 -9
16 -29 37 -37 39 -10 3 -36 2 -43 -1z m33 -68 c21 -21 59 -86 68 -116 3 -12 7
-26 9 -31 11 -31 14 -47 15 -83 1 -35 1 -36 7 -46 10 -17 9 -204 -1 -223 -2
-4 -4 -10 -4 -14 0 -4 -2 -13 -4 -19 -2 -7 -5 -17 -5 -23 -7 -62 -59 -151 -79
-134 -4 3 -11 9 -15 12 -32 22 -69 72 -69 94 0 8 -1 9 -15 44 -5 13 -11 29
-12 35 -2 7 -4 15 -6 18 -2 4 -3 12 -3 22 0 12 -1 20 -4 27 -11 27 -3 197 10
236 2 7 4 14 4 17 0 3 2 10 4 14 2 4 4 14 5 21 1 7 3 17 5 22 2 6 4 13 4 16 0
6 2 12 13 38 4 8 48 69 54 74 6 5 14 5 19 -1z"/>
<path d="M249 863 c-9 -4 -9 2 -9 -155 0 -173 -2 -164 27 -162 20 2 18 -11 20
155 1 176 1 179 -38 162z"/>
</g>
</svg>
