<?xml version="1.0" standalone="no"?>
<!DOCTYPE svg PUBLIC "-//W3C//DTD SVG 20010904//EN"
 "http://www.w3.org/TR/2001/REC-SVG-20010904/DTD/svg10.dtd">
<svg version="1.0" xmlns="http://www.w3.org/2000/svg"
 width="394.000000pt" height="590.000000pt" viewBox="0 0 394.000000 590.000000"
 preserveAspectRatio="xMidYMid meet">
<metadata>
Created by potrace 1.16, written by Peter Selinger 2001-2019
</metadata>
<g transform="translate(0.000000,590.000000) scale(0.500000,-0.500000)"
fill="#000000" stroke="none">
<path d="M46 1138 c-2 -1 -5 -4 -6 -7 -3 -8 -3 -153 0 -160 6 -12 44 -12 50
-1 5 10 2 161 -3 166 -6 4 -31 6 -41 2z"/>
<path d="M700 1136 c-5 -4 -9 -130 -5 -152 3 -14 38 -19 48 -7 8 9 8 151 0
158 -7 7 -36 7 -43 1z"/>
<path d="M377 1132 c-14 -6 -35 -28 -40 -40 -2 -4 -6 -10 -10 -14 -21 -22 -58
-88 -67 -120 -1 -4 -4 -10 -6 -13 -2 -4 -4 -12 -5 -21 -1 -8 -3 -22 -5 -31 -3
-9 -5 -26 -6 -38 -1 -12 -2 -29 -3 -37 -1 -13 5 -74 8 -86 1 -2 2 -20 4 -40 2
-26 4 -41 7 -49 18 -52 18 -72 0 -111 -2 -5 -7 -19 -12 -32 -11 -30 -25 -67
-31 -77 -25 -50 -19 -73 17 -73 10 0 29 35 35 62 2 8 4 16 5 18 1 1 4 13 8 26
13 49 20 50 38 10 6 -12 12 -24 13 -27 2 -2 6 -12 10 -21 8 -20 12 -27 18 -35
8 -9 3 -39 -9 -63 -2 -5 -7 -17 -10 -28 -3 -10 -8 -22 -11 -27 -2 -4 -5 -12
-7 -17 -5 -21 -10 -37 -15 -45 -3 -4 -6 -13 -8 -23 -4 -18 -8 -32 -14 -44 -19
-38 -19 -74 1 -77 4 -1 10 -2 15 -3 17 -4 25 5 27 32 1 10 3 21 5 26 2 5 7 21
11 35 4 14 12 40 18 56 5 17 12 38 15 47 3 9 6 22 8 28 9 29 19 26 28 -8 1 -7
4 -17 6 -22 1 -5 4 -13 6 -19 1 -5 7 -22 12 -36 4 -14 11 -34 14 -44 3 -10 8
-24 10 -32 3 -8 6 -22 7 -32 2 -28 9 -35 27 -31 4 1 11 2 15 3 22 3 20 32 -4
89 -3 8 -7 21 -9 30 -3 16 -5 22 -10 28 -3 3 -8 17 -13 39 -1 4 -5 13 -7 19
-3 6 -9 20 -12 31 -4 11 -10 28 -14 38 -10 25 -12 42 -4 51 3 3 10 16 15 28
40 88 44 94 54 72 7 -16 24 -71 24 -79 0 -2 3 -10 6 -16 3 -7 7 -15 9 -19 7
-18 14 -22 33 -18 15 3 21 10 19 22 -1 8 -31 88 -35 93 -1 1 -5 11 -9 22 -4
11 -10 27 -13 36 -14 37 -15 40 -8 63 3 11 7 28 8 38 1 9 4 20 6 24 2 6 3 16
4 61 1 30 2 73 3 97 1 41 1 50 -5 89 -1 6 -2 11 -3 13 0 2 -2 9 -3 16 -1 12
-11 37 -31 79 -11 24 -27 49 -44 70 -5 6 -10 14 -13 19 -5 9 -30 35 -41 41 -8
4 -18 4 -32 -3z m31 -67 c2 -2 8 -9 13 -17 6 -7 13 -17 16 -21 12 -15 22 -34
33 -62 16 -39 16 -39 18 -68 1 -14 3 -35 4 -45 4 -33 4 -152 0 -167 -2 -7 -4
-15 -4 -19 0 -3 -3 -21 -7 -40 -4 -19 -8 -42 -10 -50 -4 -18 -5 -21 -18 -48
-5 -12 -16 -34 -23 -50 -36 -78 -41 -78 -73 1 -4 9 -8 19 -10 22 -1 2 -5 10
-8 17 -3 7 -7 15 -9 18 -7 10 -12 30 -19 69 -4 22 -8 40 -8 41 -3 5 -8 38 -8
59 -3 123 -3 128 0 143 1 8 3 22 4 31 1 16 11 60 19 88 5 16 19 43 30 56 4 6
11 16 16 22 15 23 30 30 44 20z"/>
<path d="M373 886 c-15 -3 -14 3 -13 -138 0 -176 -1 -168 38 -163 20 3 19 -7
21 121 2 179 3 173 -7 178 -5 3 -31 4 -39 2z"/>
<path d="M707 205 c-13 -3 -13 -4 -13 -86 1 -87 -1 -81 27 -81 29 0 27 -5 27
83 0 80 0 79 -11 83 -5 2 -22 2 -30 1z"/>
<path d="M43 191 c-7 -7 -7 -142 0 -148 6 -7 37 -7 44 -1 4 5 8 94 5 140 -1
15 -37 21 -49 9z"/>
</g>
</svg>
