<?xml version="1.0" standalone="no"?>
<!DOCTYPE svg PUBLIC "-//W3C//DTD SVG 20010904//EN"
 "http://www.w3.org/TR/2001/REC-SVG-20010904/DTD/svg10.dtd">
<svg version="1.0" xmlns="http://www.w3.org/2000/svg"
 width="72.000000pt" height="148.000000pt" viewBox="0 0 72.000000 148.000000"
 preserveAspectRatio="xMidYMid meet">
<metadata>
Created by potrace 1.16, written by Peter Selinger 2001-2019
</metadata>
<g transform="translate(0.000000,148.000000) scale(0.100000,-0.100000)"
fill="#000000" stroke="none">
<path d="M241 1353 c-28 -37 -54 -79 -57 -93 -3 -14 -11 -38 -19 -55 -35 -78
-52 -271 -35 -412 l13 -108 -47 -84 c-32 -58 -46 -95 -46 -122 0 -75 31 -58
75 42 18 41 39 75 46 77 9 1 28 -26 49 -69 19 -39 40 -73 47 -76 6 -2 16 -17
22 -32 11 -24 6 -40 -44 -146 -31 -66 -65 -137 -77 -158 -23 -45 -18 -67 16
-67 25 0 56 32 56 57 0 7 13 41 28 75 16 35 39 89 52 121 19 46 26 55 36 45
11 -11 109 -229 127 -280 8 -22 65 -25 73 -5 3 8 -27 75 -66 150 -38 75 -70
144 -70 152 0 8 -5 24 -11 34 -10 15 -5 27 28 72 22 30 45 72 49 93 5 22 14
41 20 43 6 2 35 -41 64 -97 29 -55 58 -100 66 -100 37 0 35 66 -4 122 -33 49
-67 106 -94 160 -15 32 -18 63 -18 225 0 172 -2 195 -25 264 -15 47 -45 107
-77 155 -49 72 -57 79 -90 82 -34 3 -39 -1 -87 -65z m132 -57 c47 -71 76 -160
89 -275 8 -76 8 -95 -3 -102 -8 -5 -72 -8 -144 -7 l-130 3 -3 37 c-5 62 54
284 90 337 31 44 46 61 59 61 3 0 22 -24 42 -54z m1 -456 l98 0 -5 -72 c-9
-123 -42 -230 -90 -293 -14 -19 -16 -18 -61 18 -42 35 -65 71 -80 122 -3 11
-14 45 -25 75 -20 55 -28 140 -13 154 4 4 23 5 42 2 19 -3 79 -6 134 -6z"/>
</g>
</svg>
