<?xml version="1.0" standalone="no"?>
<!DOCTYPE svg PUBLIC "-//W3C//DTD SVG 20010904//EN"
 "http://www.w3.org/TR/2001/REC-SVG-20010904/DTD/svg10.dtd">
<svg version="1.0" xmlns="http://www.w3.org/2000/svg"
 width="49.000000pt" height="100.000000pt" viewBox="0 0 49.000000 100.000000"
 preserveAspectRatio="xMidYMid meet">
<metadata>
Created by potrace 1.16, written by Peter Selinger 2001-2019
</metadata>
<g transform="translate(0.000000,100.000000) scale(0.100000,-0.100000)"
fill="#000000" stroke="none">
<path d="M160 919 c-62 -86 -74 -137 -76 -314 -1 -155 -2 -161 -28 -207 -28
-48 -32 -98 -9 -105 7 -3 24 18 38 46 14 28 29 51 34 51 4 0 25 -27 45 -60
l38 -61 -52 -106 c-53 -109 -57 -137 -18 -131 19 2 30 21 62 101 21 53 42 97
46 97 4 0 25 -44 47 -97 40 -99 57 -117 91 -95 10 7 1 35 -44 125 l-58 115 20
29 c10 15 24 41 30 57 6 17 15 31 21 33 6 2 23 -22 39 -54 21 -42 35 -58 49
-58 35 0 28 34 -24 120 l-51 82 0 125 c0 148 -13 205 -66 287 -34 54 -43 61
-71 61 -27 0 -38 -7 -63 -41z m82 -36 c36 -40 89 -236 69 -256 -4 -4 -46 -7
-92 -5 -83 3 -84 3 -87 30 -7 58 59 248 86 248 5 0 16 -8 24 -17z m26 -323
l55 0 -7 -51 c-8 -59 -42 -157 -62 -178 -12 -13 -17 -12 -38 8 -47 44 -94 200
-69 225 5 4 21 5 37 2 16 -3 53 -6 84 -6z"/>
</g>
</svg>
