<?xml version="1.0" standalone="no"?>
<!DOCTYPE svg PUBLIC "-//W3C//DTD SVG 20010904//EN"
 "http://www.w3.org/TR/2001/REC-SVG-20010904/DTD/svg10.dtd">
<svg version="1.0" xmlns="http://www.w3.org/2000/svg"
 width="286.000000pt" height="590.000000pt" viewBox="0 0 286.000000 590.000000"
 preserveAspectRatio="xMidYMid meet">
<metadata>
Created by potrace 1.16, written by Peter Selinger 2001-2019
</metadata>
<g transform="translate(0.000000,590.000000) scale(0.500000,-0.500000)"
fill="#000000" stroke="none">
<path d="M239 1137 c-3 -1 -10 -7 -16 -13 -5 -6 -12 -14 -15 -18 -4 -3 -12
-15 -19 -27 -8 -11 -16 -24 -20 -28 -10 -12 -22 -38 -25 -53 -4 -22 -6 -27
-13 -38 -10 -14 -13 -22 -13 -32 0 -11 -8 -60 -11 -71 -4 -11 -8 -56 -11 -117
-3 -42 -2 -48 5 -85 18 -97 13 -122 -47 -215 -21 -33 -22 -63 -3 -84 12 -14
17 -8 50 57 33 66 34 67 39 67 5 -1 10 -9 43 -69 11 -20 24 -40 28 -45 5 -5
12 -14 15 -21 4 -7 9 -14 10 -16 5 -7 1 -18 -32 -87 -16 -35 -36 -77 -45 -95
-8 -18 -19 -40 -24 -50 -18 -36 -19 -46 -1 -51 26 -7 54 6 54 24 0 3 4 14 8
24 5 11 10 24 12 30 3 6 9 21 15 34 6 13 13 31 17 40 10 27 34 77 38 81 7 7
18 -13 65 -123 9 -19 18 -39 21 -45 4 -9 10 -25 17 -47 5 -14 10 -17 30 -19
28 -2 42 5 37 20 -5 19 -12 34 -18 41 -7 7 -16 28 -19 40 0 3 -4 9 -8 14 -9
11 -56 107 -59 120 -1 6 -3 13 -5 16 -2 3 -3 8 -3 11 0 3 -2 10 -5 14 -9 15
-9 15 29 66 16 22 19 27 22 40 11 44 30 77 30 52 0 -2 4 -8 9 -13 6 -7 15 -21
26 -43 10 -19 19 -36 21 -39 2 -3 8 -13 13 -22 14 -27 26 -34 42 -23 13 8 13
46 0 63 -5 6 -9 13 -10 15 0 2 -4 8 -8 13 -10 13 -66 110 -79 137 l-7 14 1
117 c0 79 0 120 -2 126 -1 5 -3 25 -4 44 -2 31 -3 38 -8 53 -6 18 -15 49 -22
72 -2 9 -8 19 -18 34 -9 12 -19 28 -23 35 -4 7 -10 17 -14 21 -4 4 -9 13 -12
18 -7 14 -26 35 -35 37 -10 3 -36 2 -43 -1z m32 -67 c5 -4 49 -68 56 -82 5 -9
16 -44 18 -55 1 -4 3 -10 4 -13 8 -16 14 -45 15 -81 1 -34 2 -36 7 -47 5 -9 6
-13 6 -28 0 -32 4 -31 -116 -33 -116 -1 -109 -2 -112 21 -1 18 9 97 15 114 2
7 4 14 4 17 0 3 2 10 4 15 2 6 4 16 5 22 1 6 3 16 5 22 2 6 4 16 6 21 3 18 12
36 35 68 31 43 36 48 48 39z m82 -400 c24 -2 25 -4 25 -29 0 -31 -3 -61 -8
-70 -2 -4 -4 -11 -4 -15 0 -4 -2 -13 -4 -19 -2 -5 -5 -17 -6 -25 -5 -35 -22
-80 -46 -113 -20 -28 -23 -30 -39 -13 -3 4 -9 8 -13 10 -23 12 -64 69 -64 90
0 4 -5 20 -13 40 -7 17 -13 35 -14 39 -1 5 -3 12 -5 16 -5 12 -7 84 -2 89 4 4
150 4 193 0z"/>
</g>
</svg>
