<?xml version="1.0" standalone="no"?>
<!DOCTYPE svg PUBLIC "-//W3C//DTD SVG 20010904//EN"
 "http://www.w3.org/TR/2001/REC-SVG-20010904/DTD/svg10.dtd">
<svg version="1.0" xmlns="http://www.w3.org/2000/svg"
 width="68.000000pt" height="100.000000pt" viewBox="0 0 68.000000 100.000000"
 preserveAspectRatio="xMidYMid meet">
<metadata>
Created by potrace 1.16, written by Peter Selinger 2001-2019
</metadata>
<g transform="translate(0.000000,100.000000) scale(0.100000,-0.100000)"
fill="#000000" stroke="none">
<path d="M37 964 c-4 -4 -7 -41 -7 -81 0 -71 1 -74 23 -71 21 3 22 8 22 78 0
60 -3 75 -15 78 -9 1 -19 0 -23 -4z"/>
<path d="M597 964 c-10 -11 -9 -142 2 -148 5 -4 17 -3 26 0 23 9 18 147 -5
152 -9 1 -19 0 -23 -4z"/>
<path d="M282 925 c-75 -92 -97 -200 -73 -364 12 -79 12 -81 -19 -155 -34 -82
-36 -111 -5 -111 15 0 24 13 39 58 10 31 22 57 26 57 4 0 18 -21 30 -47 l22
-47 -42 -114 c-23 -62 -40 -121 -38 -130 5 -25 52 -22 56 3 9 58 46 165 56
162 6 -2 22 -44 36 -93 22 -75 29 -90 48 -92 36 -5 35 19 -4 124 -20 54 -38
111 -41 125 -6 30 32 113 47 104 6 -4 15 -26 21 -50 14 -57 34 -75 56 -52 15
15 14 22 -15 91 l-32 76 11 96 c20 168 1 263 -72 355 -39 50 -68 51 -107 4z
m108 -107 c12 -27 22 -69 23 -91 l2 -42 -84 -3 -84 -3 7 53 c9 62 42 145 65
158 22 12 44 -10 71 -72z m25 -197 c17 -28 -52 -240 -81 -248 -23 -7 -94 207
-80 242 4 12 22 15 80 15 41 0 77 -4 81 -9z"/>
<path d="M594 177 c-3 -8 -4 -43 -2 -78 3 -56 5 -64 23 -64 18 0 20 7 20 75 0
63 -3 75 -18 78 -9 2 -20 -3 -23 -11z"/>
<path d="M35 169 c-12 -18 -9 -119 3 -131 6 -6 18 -8 27 -4 23 9 18 139 -7
144 -9 2 -19 -2 -23 -9z"/>
</g>
</svg>
