<?xml version="1.0" standalone="no"?>
<!DOCTYPE svg PUBLIC "-//W3C//DTD SVG 20010904//EN"
 "http://www.w3.org/TR/2001/REC-SVG-20010904/DTD/svg10.dtd">
<svg version="1.0" xmlns="http://www.w3.org/2000/svg"
 width="396.000000pt" height="590.000000pt" viewBox="0 0 396.000000 590.000000"
 preserveAspectRatio="xMidYMid meet">
<metadata>
Created by potrace 1.16, written by Peter Selinger 2001-2019
</metadata>
<g transform="translate(0.000000,590.000000) scale(0.500000,-0.500000)"
fill="#000000" stroke="none">
<path d="M50 1140 c-12 -3 -12 -3 -12 -65 -2 -118 -4 -109 26 -109 29 0 27 -7
28 86 0 94 -2 98 -42 88z"/>
<path d="M699 1140 c-10 -4 -10 -6 -10 -84 0 -86 -1 -82 28 -82 29 0 28 -4 27
82 0 40 -1 75 -1 77 -3 7 -31 12 -44 7z"/>
<path d="M375 1133 c-15 -7 -41 -31 -41 -38 0 -1 -5 -9 -12 -18 -15 -19 -24
-32 -30 -42 -11 -20 -35 -69 -37 -77 -2 -5 -4 -13 -6 -17 -1 -4 -3 -12 -3 -18
0 -5 -2 -16 -4 -23 -2 -7 -5 -24 -6 -37 -5 -58 -5 -60 4 -127 2 -15 4 -36 5
-47 1 -22 3 -30 13 -69 8 -33 9 -44 0 -65 -3 -9 -10 -25 -14 -37 -4 -12 -9
-23 -10 -26 -49 -114 -51 -131 -15 -135 15 -2 34 25 41 58 4 24 25 83 30 86 5
3 23 -28 46 -82 6 -13 12 -26 14 -28 8 -8 9 -15 3 -32 -7 -24 -29 -85 -31 -88
-1 -1 -3 -7 -5 -13 -5 -20 -9 -31 -16 -45 -4 -8 -8 -21 -10 -29 -1 -8 -5 -20
-7 -26 -3 -6 -7 -19 -10 -28 -3 -9 -7 -21 -9 -25 -7 -18 -2 -33 11 -37 36 -9
42 -5 46 28 1 10 4 24 6 31 2 7 9 29 15 50 6 21 14 43 16 49 3 6 7 16 8 22 11
41 16 55 21 58 8 4 11 -3 26 -58 2 -7 6 -18 8 -24 3 -6 8 -21 12 -33 3 -12 8
-26 9 -30 10 -31 15 -51 18 -77 2 -19 10 -23 35 -18 29 5 30 20 1 92 -2 7 -6
20 -8 29 -2 11 -5 20 -8 25 -3 4 -7 12 -8 18 -4 12 -9 27 -13 39 -3 6 -8 21
-13 35 -5 14 -12 34 -16 45 -9 24 -9 30 -1 40 3 4 11 19 17 33 16 39 37 79 41
80 6 1 28 -57 34 -88 6 -31 26 -59 41 -57 30 5 33 13 16 54 -60 148 -62 155
-52 190 2 9 5 24 6 32 1 8 3 17 5 21 2 6 3 18 4 61 5 151 5 150 1 168 -2 9 -3
18 -2 19 1 1 0 5 -2 8 -1 4 -3 12 -4 18 -3 25 -41 104 -67 138 -10 13 -19 27
-22 31 -15 31 -48 47 -71 36z m30 -67 c25 -22 68 -100 76 -138 6 -29 11 -120
7 -125 -4 -5 -190 -4 -195 0 -4 4 -4 33 0 49 1 6 3 19 4 29 2 35 16 86 29 114
10 21 50 74 56 76 8 1 19 -1 23 -5z m82 -317 c5 -4 5 -40 0 -57 -1 -6 -3 -16
-4 -23 -3 -24 -16 -90 -22 -106 -7 -21 -55 -126 -60 -131 -12 -13 -21 -4 -42
43 -3 6 -11 24 -19 41 -20 42 -23 51 -29 83 -5 25 -14 72 -19 96 -1 4 -1 13 0
19 1 6 1 16 1 22 -2 15 176 27 194 13z"/>
<path d="M700 212 c-12 -4 -12 -9 -12 -86 1 -85 1 -85 35 -81 21 2 20 -2 22
80 1 91 -5 102 -45 87z"/>
<path d="M43 199 c-9 -7 -9 -139 -1 -148 7 -7 38 -8 45 0 8 8 8 140 0 148 -7
7 -36 7 -44 0z"/>
</g>
</svg>
