<?xml version="1.0" standalone="no"?>
<!DOCTYPE svg PUBLIC "-//W3C//DTD SVG 20010904//EN"
 "http://www.w3.org/TR/2001/REC-SVG-20010904/DTD/svg10.dtd">
<svg version="1.0" xmlns="http://www.w3.org/2000/svg"
 width="100.000000pt" height="148.000000pt" viewBox="0 0 100.000000 148.000000"
 preserveAspectRatio="xMidYMid meet">
<metadata>
Created by potrace 1.16, written by Peter Selinger 2001-2019
</metadata>
<g transform="translate(0.000000,148.000000) scale(0.100000,-0.100000)"
fill="#000000" stroke="none">
<path d="M55 1420 c-4 -6 -7 -54 -7 -108 l0 -97 31 -3 31 -3 0 104 c0 86 -3
106 -16 111 -22 9 -32 8 -39 -4z"/>
<path d="M877 1423 c-4 -3 -7 -50 -7 -104 0 -103 5 -114 48 -98 21 8 22 14 22
99 0 88 -1 91 -26 100 -30 12 -29 12 -37 3z"/>
<path d="M458 1408 c-26 -21 -81 -99 -114 -163 -56 -108 -64 -271 -24 -453 15
-66 13 -81 -35 -200 -25 -61 -45 -118 -45 -126 0 -7 10 -16 23 -20 28 -7 42
11 62 83 9 31 21 69 28 84 12 28 12 28 56 -61 l44 -89 -32 -89 c-18 -49 -36
-98 -40 -109 -22 -56 -44 -123 -48 -147 -4 -23 -1 -29 22 -38 35 -13 42 -8 47
37 5 39 73 261 83 271 3 3 7 3 10 1 7 -7 65 -196 77 -249 6 -25 15 -50 22 -57
14 -14 56 0 56 20 0 7 -23 78 -51 157 -28 80 -55 159 -61 176 -9 26 -5 41 28
112 22 45 43 80 49 78 5 -1 21 -40 35 -85 14 -45 31 -86 39 -90 17 -11 51 -2
51 13 0 7 -21 63 -46 126 l-46 115 17 75 c13 59 16 108 13 230 -4 143 -6 159
-32 214 -47 101 -121 196 -153 196 -10 0 -26 -6 -35 -12z m82 -113 c50 -73 67
-124 71 -215 l4 -83 -125 1 c-145 0 -139 -6 -120 111 13 84 38 148 76 198 34
45 57 42 94 -12z m77 -371 c3 -8 -4 -64 -15 -123 -22 -116 -86 -266 -112 -266
-19 0 -84 134 -99 205 -7 30 -17 71 -22 91 -5 20 -9 53 -9 73 l0 36 125 0
c105 0 127 -3 132 -16z"/>
<path d="M872 158 l3 -103 30 0 30 0 0 100 0 100 -33 3 -33 3 3 -103z"/>
<path d="M48 240 c-1 -5 -1 -49 2 -97 5 -86 6 -88 30 -88 25 0 25 1 28 98 l3
97 -30 0 c-16 0 -31 -4 -33 -10z"/>
</g>
</svg>
