<?xml version="1.0" standalone="no"?>
<!DOCTYPE svg PUBLIC "-//W3C//DTD SVG 20010904//EN"
 "http://www.w3.org/TR/2001/REC-SVG-20010904/DTD/svg10.dtd">
<svg version="1.0" xmlns="http://www.w3.org/2000/svg"
 width="290.000000pt" height="590.000000pt" viewBox="0 0 290.000000 590.000000"
 preserveAspectRatio="xMidYMid meet">
<metadata>
Created by potrace 1.16, written by Peter Selinger 2001-2019
</metadata>
<g transform="translate(0.000000,590.000000) scale(0.500000,-0.500000)"
fill="#000000" stroke="none">
<path d="M304 1137 c-24 -13 -35 -20 -43 -30 -6 -6 -17 -17 -26 -23 -9 -7 -23
-19 -31 -26 -13 -12 -91 -75 -127 -103 -21 -16 -24 -24 -13 -38 9 -13 15 -18
23 -18 7 0 8 1 47 34 41 33 65 53 101 83 21 17 43 35 49 40 35 29 32 30 70 -9
162 -166 158 -162 173 -153 22 13 20 39 -4 59 -8 6 -52 49 -97 95 -46 46 -85
86 -88 87 -9 4 -28 6 -34 2z"/>
<path d="M288 912 c-13 -4 -19 -8 -23 -17 -2 -3 -8 -11 -14 -17 -6 -6 -12 -15
-15 -19 -2 -5 -5 -10 -7 -11 -2 -2 -7 -9 -10 -18 -4 -8 -10 -18 -13 -23 -4 -5
-7 -13 -9 -23 -3 -17 -10 -57 -12 -69 -1 -4 -3 -14 -5 -21 -4 -12 -5 -15 -3
-68 2 -50 2 -70 1 -132 0 -26 -11 -39 -105 -124 -17 -16 -17 -18 -5 -39 14
-24 16 -23 71 33 48 48 52 51 63 45 5 -2 44 -57 44 -62 0 -2 4 -7 8 -13 15
-20 14 -22 -13 -53 -12 -13 -32 -37 -45 -52 -13 -15 -28 -31 -33 -36 -5 -4
-14 -14 -19 -22 -13 -18 -15 -20 -27 -30 -5 -4 -13 -12 -16 -17 -3 -5 -10 -15
-15 -22 -13 -17 -13 -23 -1 -35 18 -17 33 -15 48 7 11 17 40 51 54 66 8 8 18
19 22 25 4 5 11 12 15 15 18 13 42 42 52 62 23 48 31 50 52 10 6 -13 24 -46
39 -74 35 -66 56 -107 58 -116 4 -20 33 -24 50 -7 10 10 6 28 -12 56 -3 5 -8
13 -10 18 -2 4 -12 22 -23 40 -40 66 -78 133 -78 139 0 2 5 8 11 13 8 7 11 12
15 21 5 14 29 46 34 46 4 0 19 -13 63 -56 39 -38 57 -41 64 -10 3 15 3 16 -51
65 -33 30 -36 34 -44 49 l-8 16 0 127 c1 128 1 128 -5 142 -4 8 -15 37 -24 65
-16 49 -18 52 -32 73 -8 13 -15 24 -15 25 0 8 -22 23 -43 29 -15 4 -13 4 -29
-1z m29 -60 c13 -5 38 -52 42 -81 1 -6 5 -20 10 -33 5 -12 11 -29 13 -37 2 -8
5 -17 7 -21 5 -9 5 -167 0 -177 -3 -5 -4 -12 -4 -36 -1 -38 4 -28 -51 -103
-26 -34 -24 -34 -53 13 -9 14 -20 32 -25 40 -14 21 -17 29 -19 40 -1 6 -3 15
-4 21 -7 24 -7 191 0 204 3 8 5 15 5 22 0 6 1 13 3 16 2 4 4 14 4 24 2 32 14
60 37 87 19 21 25 25 35 21z"/>
</g>
</svg>
