<?xml version="1.0" standalone="no"?>
<!DOCTYPE svg PUBLIC "-//W3C//DTD SVG 20010904//EN"
 "http://www.w3.org/TR/2001/REC-SVG-20010904/DTD/svg10.dtd">
<svg version="1.0" xmlns="http://www.w3.org/2000/svg"
 width="49.000000pt" height="100.000000pt" viewBox="0 0 49.000000 100.000000"
 preserveAspectRatio="xMidYMid meet">
<metadata>
Created by potrace 1.16, written by Peter Selinger 2001-2019
</metadata>
<g transform="translate(0.000000,100.000000) scale(0.100000,-0.100000)"
fill="#000000" stroke="none">
<path d="M144 880 c-98 -79 -119 -112 -79 -118 13 -2 51 23 105 68 46 38 89
70 95 70 5 0 44 -34 86 -76 53 -53 82 -75 93 -71 31 12 15 42 -67 124 -61 61
-90 83 -109 83 -18 0 -58 -26 -124 -80z"/>
<path d="M226 759 c-58 -46 -90 -159 -80 -283 l7 -72 -50 -44 c-61 -56 -68
-67 -53 -85 18 -22 24 -19 70 28 l41 42 24 -28 c14 -15 25 -37 25 -48 0 -11
-34 -56 -76 -100 -76 -81 -91 -120 -53 -127 15 -3 53 37 152 158 15 19 30 30
33 24 2 -6 23 -48 47 -94 44 -88 68 -113 88 -93 15 15 7 37 -51 133 -28 45
-50 84 -50 88 0 4 11 20 23 36 l24 29 41 -38 c42 -37 72 -42 72 -10 0 8 -20
35 -45 58 l-45 44 0 117 c0 112 -1 120 -34 191 -28 61 -56 95 -79 95 -2 0 -16
-9 -31 -21z m73 -118 c15 -50 21 -96 21 -169 0 -87 -3 -103 -23 -133 -12 -19
-29 -34 -37 -34 -8 0 -25 18 -38 40 -21 37 -22 49 -19 165 3 139 20 200 56
200 15 0 23 -14 40 -69z"/>
</g>
</svg>
