<?xml version="1.0" standalone="no"?>
<!DOCTYPE svg PUBLIC "-//W3C//DTD SVG 20010904//EN"
 "http://www.w3.org/TR/2001/REC-SVG-20010904/DTD/svg10.dtd">
<svg version="1.0" xmlns="http://www.w3.org/2000/svg"
 width="72.000000pt" height="148.000000pt" viewBox="0 0 72.000000 148.000000"
 preserveAspectRatio="xMidYMid meet">
<metadata>
Created by potrace 1.16, written by Peter Selinger 2001-2019
</metadata>
<g transform="translate(0.000000,148.000000) scale(0.100000,-0.100000)"
fill="#000000" stroke="none">
<path d="M334 1393 c-30 -28 -186 -160 -237 -199 -32 -26 -33 -35 -8 -58 15
-14 21 -15 32 -4 61 58 259 218 270 217 8 -1 64 -54 124 -119 61 -65 115 -119
122 -119 10 -1 33 28 33 42 0 2 -58 63 -128 136 -141 145 -156 152 -208 104z"/>
<path d="M308 1093 c-73 -101 -90 -176 -88 -373 l2 -136 -77 -73 c-73 -69 -77
-74 -64 -97 7 -13 16 -24 20 -24 4 0 35 29 70 65 34 36 66 65 70 65 4 0 26
-30 49 -66 36 -58 40 -68 27 -82 -46 -56 -163 -190 -176 -203 -44 -45 -54 -63
-44 -78 19 -30 48 -24 76 16 14 21 54 67 87 103 34 36 69 81 79 100 30 64 42
53 122 -109 42 -85 80 -150 88 -150 8 -1 22 6 32 15 20 18 16 26 -76 179 -82
137 -80 125 -38 189 l36 56 26 -22 c14 -12 42 -40 63 -61 24 -27 41 -38 52
-34 33 13 17 50 -44 107 l-60 56 0 175 c0 96 -4 179 -8 184 -5 6 -19 42 -31
81 -13 38 -38 91 -57 117 -29 40 -39 47 -68 47 -29 0 -39 -7 -68 -47z m103
-44 c6 -12 27 -69 46 -127 32 -98 34 -113 29 -196 -10 -183 -12 -190 -60 -256
l-45 -61 -48 73 -47 73 -4 130 c-6 177 15 295 62 357 25 33 51 35 67 7z"/>
</g>
</svg>
