<?xml version="1.0" standalone="no"?>
<!DOCTYPE svg PUBLIC "-//W3C//DTD SVG 20010904//EN"
 "http://www.w3.org/TR/2001/REC-SVG-20010904/DTD/svg10.dtd">
<svg version="1.0" xmlns="http://www.w3.org/2000/svg"
 width="386.000000pt" height="590.000000pt" viewBox="0 0 386.000000 590.000000"
 preserveAspectRatio="xMidYMid meet">
<metadata>
Created by potrace 1.16, written by Peter Selinger 2001-2019
</metadata>
<g transform="translate(0.000000,590.000000) scale(0.500000,-0.500000)"
fill="#000000" stroke="none">
<path d="M47 1140 c-11 -4 -11 -6 -11 -75 0 -79 3 -84 36 -75 15 4 23 132 9
146 -5 5 -26 8 -34 4z"/>
<path d="M685 1140 c-9 -5 -9 -6 -9 -74 0 -73 0 -72 14 -76 16 -4 31 0 34 12
5 15 2 129 -3 134 -6 6 -29 8 -36 4z"/>
<path d="M393 1109 c-3 -2 -28 -23 -56 -47 -52 -45 -80 -68 -113 -95 -64 -52
-65 -55 -49 -73 18 -20 17 -20 91 45 16 14 35 30 43 36 8 6 15 12 16 13 1 1 6
5 11 9 6 3 12 10 15 13 3 4 9 10 14 14 5 4 14 12 21 18 18 15 23 14 37 -8 2
-4 9 -11 16 -15 7 -5 13 -12 17 -18 7 -12 77 -83 90 -91 5 -4 13 -10 17 -14
27 -26 37 -27 55 -7 13 15 13 15 -24 50 -18 17 -63 59 -99 95 -83 82 -85 84
-102 75z"/>
<path d="M367 917 c-5 -7 -13 -15 -17 -18 -29 -26 -38 -39 -49 -70 -2 -4 -6
-12 -10 -18 -8 -13 -18 -46 -25 -89 -1 -8 -4 -20 -6 -26 -6 -18 -6 -178 0
-199 8 -30 -4 -56 -35 -71 -4 -3 -13 -10 -20 -16 -7 -6 -16 -13 -20 -16 -10
-5 -65 -59 -66 -65 -5 -19 22 -37 37 -26 27 18 36 25 49 40 14 15 50 48 64 58
12 10 17 6 41 -29 8 -12 18 -26 23 -33 19 -24 24 -37 19 -49 -3 -8 -99 -142
-135 -188 -26 -33 -28 -43 -9 -53 17 -9 31 -2 50 25 35 50 113 156 123 166 5
5 7 6 17 6 15 0 9 6 75 -75 43 -53 53 -65 70 -86 30 -38 38 -41 57 -20 11 13
9 20 -15 45 -9 9 -26 29 -38 44 -12 15 -31 38 -42 51 -89 106 -82 91 -58 127
9 14 18 29 20 33 10 19 27 45 31 46 7 2 51 -35 83 -70 12 -13 31 -30 49 -41
15 -10 40 10 34 27 -4 11 -49 57 -66 68 -5 3 -13 9 -18 14 -5 5 -14 12 -20 16
-29 18 -42 37 -37 51 5 12 4 216 0 233 -2 5 -6 21 -9 35 -11 44 -37 94 -66
127 -5 5 -14 16 -21 24 -26 34 -43 40 -60 22z m46 -78 c25 -24 31 -35 39 -61
3 -8 7 -19 9 -24 3 -6 8 -21 11 -33 3 -13 8 -28 9 -34 3 -8 4 -21 4 -69 1 -66
2 -61 -14 -117 -15 -50 -20 -63 -41 -105 -34 -66 -34 -66 -55 -38 -44 55 -49
63 -51 84 -1 8 -4 20 -6 26 -2 6 -5 18 -6 26 -2 18 -5 35 -10 52 -5 17 -6 97
-1 114 2 6 7 29 12 51 5 22 9 44 11 48 1 4 2 12 3 17 8 59 55 94 86 63z"/>
<path d="M47 196 c-11 -4 -11 -6 -11 -77 1 -77 0 -73 25 -73 25 0 24 -2 25 72
0 79 -6 92 -39 78z"/>
<path d="M693 191 c-20 -3 -27 -133 -9 -143 34 -18 54 40 41 123 -2 16 -13 22
-32 20z"/>
</g>
</svg>
