<?xml version="1.0" standalone="no"?>
<!DOCTYPE svg PUBLIC "-//W3C//DTD SVG 20010904//EN"
 "http://www.w3.org/TR/2001/REC-SVG-20010904/DTD/svg10.dtd">
<svg version="1.0" xmlns="http://www.w3.org/2000/svg"
 width="65.000000pt" height="100.000000pt" viewBox="0 0 65.000000 100.000000"
 preserveAspectRatio="xMidYMid meet">
<metadata>
Created by potrace 1.16, written by Peter Selinger 2001-2019
</metadata>
<g transform="translate(0.000000,100.000000) scale(0.100000,-0.100000)"
fill="#000000" stroke="none">
<path d="M33 958 c-12 -20 -7 -118 6 -131 30 -30 56 76 31 124 -12 22 -25 24
-37 7z"/>
<path d="M567 964 c-14 -14 -8 -121 8 -134 20 -17 31 -6 38 37 11 65 -18 125
-46 97z"/>
<path d="M235 864 c-99 -83 -113 -100 -96 -117 16 -16 49 3 118 67 33 31 66
56 74 56 7 0 45 -32 85 -71 64 -62 76 -69 94 -59 11 6 20 14 20 19 0 13 -177
181 -191 181 -8 0 -54 -34 -104 -76z"/>
<path d="M283 753 c-52 -56 -67 -107 -71 -245 l-4 -128 -49 -36 c-51 -38 -74
-68 -64 -84 12 -19 37 -10 82 30 25 22 49 40 54 40 4 0 19 -14 33 -31 27 -32
34 -63 16 -74 -18 -11 -120 -154 -120 -169 0 -17 30 -30 43 -17 5 5 33 42 61
83 32 44 59 73 70 73 11 0 42 -31 75 -75 36 -47 65 -75 77 -75 37 0 24 34 -45
116 -39 46 -71 89 -71 96 0 15 40 83 49 83 4 0 27 -20 51 -45 27 -27 53 -45
67 -45 41 0 27 35 -36 89 l-58 50 1 118 c1 130 -12 174 -73 241 -36 39 -54 40
-88 5z m103 -142 c10 -40 14 -88 12 -125 -5 -70 -46 -179 -68 -184 -21 -4 -56
60 -65 117 -17 102 0 230 37 276 l21 27 23 -24 c13 -13 30 -51 40 -87z"/>
<path d="M37 172 c-3 -4 -9 -30 -12 -58 -11 -83 35 -118 48 -37 10 60 -17 128
-36 95z"/>
<path d="M566 154 c-20 -51 4 -138 33 -120 15 10 23 80 12 109 -12 30 -35 36
-45 11z"/>
</g>
</svg>
