<?xml version="1.0" standalone="no"?>
<!DOCTYPE svg PUBLIC "-//W3C//DTD SVG 20010904//EN"
 "http://www.w3.org/TR/2001/REC-SVG-20010904/DTD/svg10.dtd">
<svg version="1.0" xmlns="http://www.w3.org/2000/svg"
 width="65.000000pt" height="100.000000pt" viewBox="0 0 65.000000 100.000000"
 preserveAspectRatio="xMidYMid meet">
<metadata>
Created by potrace 1.16, written by Peter Selinger 2001-2019
</metadata>
<g transform="translate(0.000000,100.000000) scale(0.100000,-0.100000)"
fill="#000000" stroke="none">
<path d="M32 958 c-13 -13 -16 -85 -6 -112 8 -21 40 -21 48 0 17 44 1 124 -24
124 -3 0 -11 -5 -18 -12z"/>
<path d="M567 963 c-4 -3 -7 -32 -7 -63 0 -41 5 -61 16 -71 14 -11 18 -10 30
6 17 23 18 107 2 123 -13 13 -31 16 -41 5z"/>
<path d="M287 763 c-14 -16 -36 -50 -49 -78 -20 -43 -23 -67 -24 -174 l-1
-124 -62 -49 c-64 -51 -76 -80 -35 -86 14 -2 36 11 63 37 24 23 49 41 56 41
16 0 55 -51 55 -72 0 -8 -29 -52 -65 -98 -66 -86 -79 -125 -41 -125 13 0 38
25 72 74 83 116 71 115 148 17 66 -85 91 -101 103 -70 6 17 -15 49 -90 136
-53 62 -56 82 -18 129 l19 24 55 -53 c59 -55 74 -62 84 -36 9 24 -8 48 -67 96
l-55 44 3 101 c5 129 -13 196 -67 253 -21 22 -42 40 -48 40 -5 0 -21 -12 -36
-27z m78 -83 c8 -16 15 -34 15 -39 0 -14 -109 -95 -117 -87 -9 9 15 109 33
134 21 31 51 28 69 -8z m35 -108 c0 -22 -127 -119 -140 -106 -13 13 -2 27 64
73 59 41 76 48 76 33z m0 -86 c0 -17 -97 -106 -116 -106 -32 0 -12 41 39 79
55 42 77 50 77 27z"/>
<path d="M29 159 c-11 -22 -8 -113 5 -126 4 -4 15 -2 24 3 12 8 18 27 20 63 4
72 -24 106 -49 60z"/>
<path d="M566 154 c-3 -9 -6 -33 -6 -54 0 -48 8 -70 26 -70 26 0 44 82 28 124
-8 21 -40 21 -48 0z"/>
</g>
</svg>
