<?xml version="1.0" standalone="no"?>
<!DOCTYPE svg PUBLIC "-//W3C//DTD SVG 20010904//EN"
 "http://www.w3.org/TR/2001/REC-SVG-20010904/DTD/svg10.dtd">
<svg version="1.0" xmlns="http://www.w3.org/2000/svg"
 width="66.000000pt" height="102.000000pt" viewBox="0 0 66.000000 102.000000"
 preserveAspectRatio="xMidYMid meet">
<metadata>
Created by potrace 1.16, written by Peter Selinger 2001-2019
</metadata>
<g transform="translate(0.000000,102.000000) scale(0.100000,-0.100000)"
fill="#000000" stroke="none">
<path d="M30 915 c0 -58 2 -65 20 -65 18 0 20 7 20 65 0 58 -2 65 -20 65 -18
0 -20 -7 -20 -65z"/>
<path d="M570 915 c0 -63 1 -65 25 -65 24 0 25 2 25 65 0 63 -1 65 -25 65 -24
0 -25 -2 -25 -65z"/>
<path d="M286 770 c-56 -68 -81 -167 -72 -289 l7 -88 -44 -39 c-25 -21 -55
-47 -67 -57 -17 -15 -19 -21 -10 -33 18 -21 24 -18 80 39 l51 52 29 -35 c46
-55 46 -64 -5 -132 -81 -111 -97 -137 -90 -147 15 -25 37 -6 96 79 34 50 68
90 74 90 7 0 42 -39 80 -86 45 -57 72 -83 82 -80 8 3 17 6 19 6 9 0 3 18 -13
36 -24 27 -115 135 -131 155 -11 14 -8 24 15 63 15 25 33 46 38 46 6 0 33 -22
59 -50 26 -27 54 -50 62 -50 24 0 15 44 -14 67 -15 12 -42 35 -61 50 l-33 29
1 121 c2 104 -1 128 -19 165 -25 54 -77 118 -95 118 -7 0 -25 -14 -39 -30z
m60 -47 c11 -10 26 -31 34 -47 14 -27 13 -29 -15 -52 -56 -45 -105 -77 -111
-71 -10 9 25 128 47 158 24 34 21 33 45 12z m64 -137 c0 -14 -133 -126 -151
-126 -27 0 3 40 66 87 74 56 85 61 85 39z m0 -82 c0 -15 -82 -97 -118 -118
-15 -9 -35 11 -25 26 7 13 127 107 136 108 4 0 7 -7 7 -16z m-10 -92 c0 -8
-37 -45 -72 -71 -9 -7 -22 -10 -29 -6 -7 5 4 21 32 46 42 36 69 49 69 31z"/>
<path d="M37 164 c-4 -4 -7 -36 -7 -71 0 -56 2 -64 18 -61 14 3 17 14 17 67 0
59 -10 82 -28 65z"/>
<path d="M574 146 c-3 -7 -4 -35 -2 -62 3 -41 6 -49 23 -49 18 0 20 8 23 63 3
57 1 62 -18 62 -11 0 -23 -6 -26 -14z"/>
</g>
</svg>
