<?xml version="1.0" standalone="no"?>
<!DOCTYPE svg PUBLIC "-//W3C//DTD SVG 20010904//EN"
 "http://www.w3.org/TR/2001/REC-SVG-20010904/DTD/svg10.dtd">
<svg version="1.0" xmlns="http://www.w3.org/2000/svg"
 width="386.000000pt" height="590.000000pt" viewBox="0 0 386.000000 590.000000"
 preserveAspectRatio="xMidYMid meet">
<metadata>
Created by potrace 1.16, written by Peter Selinger 2001-2019
</metadata>
<g transform="translate(0.000000,590.000000) scale(0.500000,-0.500000)"
fill="#000000" stroke="none">
<path d="M45 1140 c-8 -4 -9 -9 -9 -75 0 -78 -1 -77 26 -77 26 0 25 -1 25 93
-1 60 -11 74 -42 59z"/>
<path d="M681 1137 c-10 -8 -10 -134 -1 -143 9 -9 31 -9 40 0 9 9 9 135 -1
143 -8 7 -30 7 -38 0z"/>
<path d="M375 928 c-4 -2 -10 -8 -14 -13 -4 -5 -15 -17 -24 -26 -18 -16 -30
-35 -37 -58 -1 -4 -6 -13 -9 -19 -7 -12 -13 -32 -21 -70 -2 -10 -6 -27 -8 -37
-6 -26 -6 -183 0 -207 8 -33 -3 -55 -40 -75 -7 -4 -17 -13 -27 -24 -11 -12
-21 -20 -30 -26 -26 -15 -49 -42 -46 -54 9 -35 36 -26 95 33 67 67 66 67 95
24 6 -9 14 -21 19 -27 33 -44 34 -49 9 -83 -8 -12 -23 -33 -34 -47 -10 -14
-38 -52 -62 -84 -56 -75 -59 -89 -20 -89 18 0 19 2 56 53 31 44 106 146 110
149 15 12 12 15 143 -147 35 -45 40 -49 49 -49 10 0 26 13 27 23 1 10 -1 14
-17 30 -9 10 -30 35 -47 55 -31 38 -47 57 -81 97 -38 44 -37 42 -23 64 19 28
23 36 30 49 19 35 29 47 37 42 7 -3 57 -51 74 -69 21 -24 52 -47 61 -47 12 0
28 18 25 29 -2 11 -48 59 -65 68 -5 3 -14 10 -21 16 -7 6 -16 13 -21 16 -10 6
-33 27 -39 36 -8 11 -7 34 1 71 14 57 0 209 -23 259 -5 11 -11 26 -15 34 -3 8
-8 16 -11 19 -2 3 -7 10 -11 15 -4 6 -11 15 -16 20 -5 6 -13 15 -17 20 -17 25
-39 37 -52 29z m38 -89 c37 -37 57 -81 42 -95 -5 -5 -78 -59 -123 -91 -33 -24
-42 -22 -33 9 2 6 7 28 12 49 5 21 10 42 12 47 2 5 3 11 3 15 0 8 16 40 24 50
4 5 12 15 19 23 16 19 16 19 44 -7z m71 -144 c12 -16 10 -19 -64 -77 -111 -87
-113 -89 -120 -73 -11 24 -10 24 68 81 106 76 109 78 116 69z m3 -90 c7 -19 1
-31 -28 -57 -12 -10 -36 -31 -52 -45 -73 -64 -79 -67 -89 -44 -8 21 -8 22 29
51 113 88 136 104 140 95z m-19 -117 c-1 -20 -6 -26 -57 -67 -52 -41 -57 -43
-63 -30 -3 8 -1 11 21 29 11 9 35 29 53 44 44 36 48 38 46 24z"/>
<path d="M46 195 c-10 -5 -10 -7 -10 -77 1 -76 0 -72 25 -72 25 0 24 -2 25 71
0 80 -7 95 -40 78z"/>
<path d="M682 184 c-11 -11 -9 -132 3 -137 9 -3 30 -1 34 4 5 5 9 107 5 124
-4 16 -29 22 -42 9z"/>
</g>
</svg>
