<?xml version="1.0" standalone="no"?>
<!DOCTYPE svg PUBLIC "-//W3C//DTD SVG 20010904//EN"
 "http://www.w3.org/TR/2001/REC-SVG-20010904/DTD/svg10.dtd">
<svg version="1.0" xmlns="http://www.w3.org/2000/svg"
 width="278.000000pt" height="590.000000pt" viewBox="0 0 278.000000 590.000000"
 preserveAspectRatio="xMidYMid meet">
<metadata>
Created by potrace 1.16, written by Peter Selinger 2001-2019
</metadata>
<g transform="translate(0.000000,590.000000) scale(0.500000,-0.500000)"
fill="#000000" stroke="none">
<path d="M43 1135 c-14 -14 -9 -29 35 -102 28 -46 43 -73 58 -101 2 -4 3 -9 3
-11 -2 -8 -2 -178 -1 -251 2 -90 1 -96 -21 -126 -4 -5 -10 -16 -14 -24 -10
-19 -28 -50 -37 -63 -34 -49 -38 -89 -9 -94 10 -2 14 3 27 25 5 9 13 23 17 31
5 7 12 18 15 25 47 97 47 97 82 18 9 -19 18 -37 21 -41 19 -25 20 -59 3 -83
-6 -8 -9 -15 -10 -23 -2 -13 -8 -27 -16 -37 -3 -4 -7 -11 -9 -16 -2 -5 -6 -15
-10 -22 -4 -7 -9 -18 -10 -25 -3 -12 -10 -27 -19 -40 -3 -4 -7 -12 -9 -16 -2
-4 -6 -12 -9 -17 -3 -5 -6 -13 -7 -18 -1 -5 -6 -20 -11 -33 -16 -37 -12 -46
18 -46 19 1 24 3 31 16 6 9 17 42 17 48 0 3 3 10 7 17 3 7 8 18 10 23 2 6 8
20 14 32 6 12 11 24 11 26 0 2 4 11 9 19 5 8 11 22 13 31 12 45 27 63 34 41 1
-5 4 -12 7 -16 3 -4 7 -15 9 -25 2 -10 7 -26 10 -35 3 -9 8 -25 10 -34 3 -9 8
-28 12 -42 4 -14 10 -34 13 -45 15 -54 16 -56 42 -56 24 0 30 7 22 26 -5 14
-25 77 -30 99 -3 11 -8 28 -12 38 -6 15 -20 57 -33 102 -5 15 -9 27 -17 47 -7
17 -6 31 1 41 2 3 7 15 11 26 8 21 39 94 46 106 6 10 9 9 15 -8 3 -8 7 -18 9
-21 5 -7 21 -43 21 -47 0 -1 5 -14 11 -28 6 -14 15 -33 18 -42 11 -26 18 -30
36 -22 24 11 24 15 -5 79 -3 7 -13 30 -21 50 -8 20 -19 45 -24 56 -19 45 -18
38 -18 90 2 233 4 298 9 306 16 25 88 171 88 179 1 13 -6 18 -23 18 -19 0 -20
-1 -51 -65 -40 -81 -44 -85 -59 -55 -23 46 -28 56 -37 65 -5 6 -11 15 -14 20
-20 42 -73 41 -91 -3 -2 -4 -8 -14 -13 -22 -5 -8 -14 -23 -19 -32 -38 -68 -35
-68 -81 13 -41 71 -41 72 -48 76 -9 5 -21 4 -27 -2z m245 -78 c9 -9 64 -108
64 -117 0 -3 2 -9 4 -14 5 -10 6 -188 2 -196 -1 -3 -4 -14 -5 -26 -2 -12 -4
-24 -6 -27 -1 -3 -3 -11 -4 -18 0 -6 -3 -14 -4 -18 -3 -4 -4 -12 -4 -30 0 -14
-1 -26 -3 -29 -1 -2 -3 -10 -5 -18 -9 -43 -35 -97 -50 -102 -29 -10 -72 63
-75 127 -1 18 -3 44 -6 59 -3 22 -4 37 -5 82 0 47 -1 56 -4 63 -3 7 -3 8 0 18
3 8 4 17 4 48 0 40 3 71 7 76 1 1 3 6 4 11 5 23 42 87 61 108 7 7 18 8 25 3z"/>
</g>
</svg>
