<?xml version="1.0" standalone="no"?>
<!DOCTYPE svg PUBLIC "-//W3C//DTD SVG 20010904//EN"
 "http://www.w3.org/TR/2001/REC-SVG-20010904/DTD/svg10.dtd">
<svg version="1.0" xmlns="http://www.w3.org/2000/svg"
 width="70.000000pt" height="148.000000pt" viewBox="0 0 70.000000 148.000000"
 preserveAspectRatio="xMidYMid meet">
<metadata>
Created by potrace 1.16, written by Peter Selinger 2001-2019
</metadata>
<g transform="translate(0.000000,148.000000) scale(0.100000,-0.100000)"
fill="#000000" stroke="none">
<path d="M49 1414 c-14 -18 1 -53 75 -169 l45 -70 0 -228 1 -229 -58 -96 c-69
-117 -72 -124 -65 -151 11 -44 38 -22 88 75 28 52 55 100 61 105 15 12 94
-146 94 -186 0 -24 -44 -127 -109 -255 -60 -119 -63 -170 -9 -157 19 5 29 22
50 79 46 126 102 258 110 258 9 0 25 -36 39 -87 5 -18 13 -48 18 -65 6 -18 18
-62 28 -98 23 -82 28 -90 60 -90 22 0 25 3 20 28 -9 44 -43 159 -85 281 l-38
115 44 105 c25 58 46 107 47 109 1 1 23 -52 50 -118 43 -106 51 -120 72 -120
34 0 38 24 13 78 -12 26 -37 81 -56 122 l-33 75 3 225 3 225 62 115 c57 105
60 116 44 127 -32 24 -39 17 -88 -85 -22 -46 -43 -86 -47 -88 -4 -3 -19 19
-34 48 -39 78 -82 128 -108 128 -28 0 -42 -16 -95 -108 -24 -40 -47 -72 -53
-70 -10 4 -51 70 -84 136 -21 42 -47 57 -65 36z m353 -156 l43 -73 3 -133 c3
-92 -1 -154 -11 -205 -9 -39 -18 -91 -21 -114 -8 -56 -51 -152 -71 -159 -43
-17 -90 82 -101 211 -4 50 -7 154 -7 233 0 116 4 151 19 185 26 61 73 127 89
127 8 0 33 -33 57 -72z"/>
</g>
</svg>
