<?xml version="1.0" standalone="no"?>
<!DOCTYPE svg PUBLIC "-//W3C//DTD SVG 20010904//EN"
 "http://www.w3.org/TR/2001/REC-SVG-20010904/DTD/svg10.dtd">
<svg version="1.0" xmlns="http://www.w3.org/2000/svg"
 width="47.000000pt" height="100.000000pt" viewBox="0 0 47.000000 100.000000"
 preserveAspectRatio="xMidYMid meet">
<metadata>
Created by potrace 1.16, written by Peter Selinger 2001-2019
</metadata>
<g transform="translate(0.000000,100.000000) scale(0.100000,-0.100000)"
fill="#000000" stroke="none">
<path d="M26 954 c-4 -12 9 -43 39 -91 l45 -74 0 -152 0 -152 -40 -63 c-24
-38 -40 -75 -40 -93 0 -49 29 -32 68 39 18 34 38 59 43 56 16 -9 49 -82 49
-106 0 -12 -25 -76 -56 -140 -58 -121 -62 -152 -22 -146 18 2 30 22 63 108 22
58 45 105 50 105 6 0 21 -43 35 -95 28 -106 35 -120 56 -120 30 0 26 35 -17
160 -41 121 -43 130 -30 167 18 51 40 85 51 78 4 -3 18 -34 30 -70 19 -56 25
-65 46 -65 33 0 31 22 -12 116 l-36 79 1 148 2 147 40 70 c42 72 46 102 17
108 -13 2 -25 -12 -45 -52 -15 -31 -31 -56 -35 -56 -5 0 -23 23 -40 50 -43 69
-66 68 -113 -6 -41 -63 -43 -63 -84 13 -27 50 -54 65 -65 37z m246 -120 c23
-41 28 -61 28 -124 0 -116 -31 -270 -62 -307 -9 -11 -14 -11 -28 2 -32 29 -42
93 -38 255 3 142 5 158 27 193 13 21 28 36 35 34 6 -2 23 -26 38 -53z"/>
</g>
</svg>
