<?xml version="1.0" standalone="no"?>
<!DOCTYPE svg PUBLIC "-//W3C//DTD SVG 20010904//EN"
 "http://www.w3.org/TR/2001/REC-SVG-20010904/DTD/svg10.dtd">
<svg version="1.0" xmlns="http://www.w3.org/2000/svg"
 width="100.000000pt" height="148.000000pt" viewBox="0 0 100.000000 148.000000"
 preserveAspectRatio="xMidYMid meet">
<metadata>
Created by potrace 1.16, written by Peter Selinger 2001-2019
</metadata>
<g transform="translate(0.000000,148.000000) scale(0.100000,-0.100000)"
fill="#000000" stroke="none">
<path d="M57 1424 c-4 -4 -7 -54 -7 -111 l0 -103 30 0 30 0 0 105 c0 58 -4
105 -9 105 -5 0 -16 2 -23 5 -8 3 -17 2 -21 -1z"/>
<path d="M883 1423 c-9 -3 -13 -34 -13 -104 l0 -100 33 3 32 3 2 90 c2 74 0
92 -14 103 -18 13 -21 13 -40 5z"/>
<path d="M458 1408 c-27 -21 -82 -100 -106 -150 -12 -27 -25 -48 -30 -48 -4 1
-35 39 -70 85 -56 75 -66 84 -83 75 -10 -6 -19 -16 -19 -23 0 -7 33 -53 72
-102 l73 -90 1 -115 c1 -63 7 -146 13 -185 6 -38 14 -87 17 -107 5 -30 -3 -61
-40 -153 -25 -63 -46 -121 -46 -129 0 -7 10 -16 23 -20 28 -7 42 11 62 83 9
31 21 69 28 84 12 28 12 28 56 -61 l44 -89 -32 -89 c-18 -49 -36 -98 -40 -109
-22 -56 -44 -123 -48 -147 -4 -23 -1 -29 22 -38 35 -13 42 -8 47 37 5 39 73
261 83 271 3 3 7 3 10 1 7 -7 65 -196 77 -249 6 -25 15 -50 22 -57 14 -14 56
0 56 20 0 7 -23 78 -51 157 -28 80 -55 159 -61 176 -9 26 -5 41 28 112 22 45
43 80 49 78 5 -1 21 -40 35 -85 14 -45 31 -86 39 -90 17 -11 51 -2 51 13 0 7
-21 63 -46 126 l-46 115 16 70 c11 48 16 116 16 221 l0 151 77 97 c62 79 75
101 66 115 -19 29 -37 17 -98 -66 -33 -45 -63 -82 -67 -82 -4 -1 -20 22 -34
51 -23 46 -66 108 -101 145 -15 16 -45 17 -65 1z m82 -113 c64 -94 71 -122 73
-293 2 -124 -2 -174 -17 -237 -22 -94 -85 -230 -106 -230 -15 0 -69 100 -90
165 -46 146 -49 418 -6 522 23 55 75 118 96 118 11 0 31 -18 50 -45z"/>
<path d="M872 158 l3 -103 30 0 30 0 0 100 0 100 -33 3 -33 3 3 -103z"/>
<path d="M48 240 c-1 -5 -1 -49 2 -97 5 -86 6 -88 30 -88 25 0 25 1 28 98 l3
97 -30 0 c-16 0 -31 -4 -33 -10z"/>
</g>
</svg>
