<?xml version="1.0" standalone="no"?>
<!DOCTYPE svg PUBLIC "-//W3C//DTD SVG 20010904//EN"
 "http://www.w3.org/TR/2001/REC-SVG-20010904/DTD/svg10.dtd">
<svg version="1.0" xmlns="http://www.w3.org/2000/svg"
 width="68.000000pt" height="100.000000pt" viewBox="0 0 68.000000 100.000000"
 preserveAspectRatio="xMidYMid meet">
<metadata>
Created by potrace 1.16, written by Peter Selinger 2001-2019
</metadata>
<g transform="translate(0.000000,100.000000) scale(0.100000,-0.100000)"
fill="#000000" stroke="none">
<path d="M34 957 c-3 -8 -4 -43 -2 -78 3 -56 5 -64 23 -64 18 0 20 7 20 75 0
63 -3 75 -18 78 -9 2 -20 -3 -23 -11z"/>
<path d="M597 964 c-10 -10 -9 -126 1 -142 5 -7 16 -10 26 -6 14 5 16 18 14
78 -2 54 -7 71 -18 74 -9 1 -19 0 -23 -4z"/>
<path d="M289 933 c-13 -16 -33 -46 -44 -66 -11 -20 -23 -37 -26 -37 -4 0 -23
23 -43 50 -39 54 -47 58 -66 35 -10 -12 -4 -25 39 -77 l51 -63 0 -84 c0 -46 5
-112 11 -146 10 -60 9 -66 -21 -138 -34 -83 -36 -112 -5 -112 15 0 24 13 39
58 10 31 22 57 26 57 4 0 18 -21 30 -47 l22 -47 -42 -114 c-23 -62 -40 -121
-38 -130 5 -25 52 -22 56 3 9 58 46 165 56 162 6 -2 22 -44 36 -93 22 -75 29
-90 48 -92 36 -5 35 19 -4 124 -20 54 -38 111 -41 125 -6 30 32 113 47 104 6
-4 15 -26 21 -50 14 -56 34 -75 56 -52 15 14 13 22 -17 95 -30 74 -32 82 -21
131 6 29 11 95 11 148 l0 97 46 58 c44 56 54 93 24 93 -8 0 -29 -20 -48 -45
-19 -25 -37 -46 -41 -47 -3 -1 -24 26 -46 60 -48 75 -78 85 -116 40z m68 -55
c47 -52 56 -86 55 -213 -1 -130 -23 -231 -62 -277 -17 -20 -21 -21 -30 -8 -44
65 -77 244 -66 352 7 61 54 168 74 168 5 0 18 -10 29 -22z"/>
<path d="M594 177 c-3 -8 -4 -43 -2 -78 3 -56 5 -64 23 -64 18 0 20 7 20 75 0
63 -3 75 -18 78 -9 2 -20 -3 -23 -11z"/>
<path d="M35 169 c-12 -18 -9 -119 3 -131 6 -6 18 -8 27 -4 23 9 18 139 -7
144 -9 2 -19 -2 -23 -9z"/>
</g>
</svg>
