<?xml version="1.0" standalone="no"?>
<!DOCTYPE svg PUBLIC "-//W3C//DTD SVG 20010904//EN"
 "http://www.w3.org/TR/2001/REC-SVG-20010904/DTD/svg10.dtd">
<svg version="1.0" xmlns="http://www.w3.org/2000/svg"
 width="396.000000pt" height="590.000000pt" viewBox="0 0 396.000000 590.000000"
 preserveAspectRatio="xMidYMid meet">
<metadata>
Created by potrace 1.16, written by Peter Selinger 2001-2019
</metadata>
<g transform="translate(0.000000,590.000000) scale(0.500000,-0.500000)"
fill="#000000" stroke="none">
<path d="M44 1136 c-6 -4 -9 -148 -4 -160 5 -13 42 -14 48 -2 5 9 2 156 -3
161 -7 7 -34 7 -41 1z"/>
<path d="M696 1136 c-8 -6 -8 -149 0 -156 7 -8 36 -7 43 1 8 8 7 149 -1 155
-7 6 -35 6 -42 0z"/>
<path d="M373 1132 c-13 -7 -31 -24 -37 -35 -2 -4 -12 -19 -21 -31 -18 -24
-26 -38 -42 -73 -14 -30 -7 -35 -88 70 -34 44 -43 46 -64 19 -6 -9 -2 -15 56
-88 65 -81 62 -76 60 -96 0 -8 -2 -30 -3 -48 -1 -19 -2 -35 -3 -36 -1 -2 3
-44 8 -77 2 -10 4 -30 5 -46 1 -15 4 -32 5 -38 21 -77 23 -66 -36 -216 -28
-69 -27 -76 6 -80 15 -2 34 25 41 58 5 27 27 87 32 87 4 0 23 -35 44 -83 6
-13 12 -26 15 -30 7 -8 7 -16 1 -35 -10 -30 -28 -81 -30 -83 -1 -1 -3 -7 -5
-13 -5 -20 -9 -31 -16 -45 -4 -8 -8 -21 -10 -29 -1 -8 -5 -20 -7 -26 -3 -6 -7
-19 -10 -28 -3 -9 -7 -21 -9 -25 -7 -18 -2 -33 11 -37 36 -9 42 -5 46 28 1 10
4 24 6 31 2 7 9 29 15 50 6 21 14 43 16 49 3 6 7 16 8 22 11 41 16 55 21 58 8
4 11 -3 26 -58 2 -7 6 -18 8 -24 3 -6 8 -21 12 -33 3 -12 8 -26 9 -30 10 -31
15 -51 18 -77 2 -19 10 -23 35 -18 30 5 30 20 1 92 -2 7 -6 20 -8 29 -2 11 -5
20 -8 25 -3 4 -7 12 -8 18 -4 12 -9 27 -13 39 -3 6 -8 21 -13 35 -5 14 -12 34
-16 45 -9 25 -9 30 -1 40 3 4 9 14 12 23 8 20 39 82 43 87 7 9 29 -42 37 -86
6 -31 26 -58 41 -56 31 5 33 13 15 56 -19 48 -48 122 -54 142 -5 14 -5 19 3
45 3 10 6 26 7 35 1 9 3 20 5 23 7 12 9 194 4 222 -6 30 -8 28 59 111 69 86
67 83 54 96 -22 21 -26 19 -56 -19 -72 -93 -73 -95 -79 -94 -4 1 -6 5 -25 44
-8 16 -18 33 -29 48 -9 12 -19 25 -21 30 -4 7 -27 32 -37 38 -9 6 -22 5 -36
-2z m29 -62 c16 -9 60 -80 74 -122 10 -29 19 -211 12 -247 -1 -5 -3 -16 -4
-23 -17 -105 -17 -106 -53 -185 -35 -76 -43 -82 -59 -45 -3 6 -14 30 -25 53
-29 63 -32 71 -41 129 -1 8 -5 25 -8 38 -5 22 -5 33 -4 55 0 6 0 16 -2 24 -2
17 -3 85 0 97 1 5 3 24 5 42 2 18 4 38 6 44 1 6 3 14 4 19 9 54 72 133 95 121z"/>
<path d="M700 212 c-12 -4 -12 -9 -12 -86 1 -85 1 -85 35 -81 21 2 20 -2 22
80 1 91 -5 102 -45 87z"/>
<path d="M43 199 c-9 -7 -9 -139 -1 -148 7 -7 38 -8 45 0 8 8 8 140 0 148 -7
7 -36 7 -44 0z"/>
</g>
</svg>
