<?xml version="1.0" standalone="no"?>
<!DOCTYPE svg PUBLIC "-//W3C//DTD SVG 20010904//EN"
 "http://www.w3.org/TR/2001/REC-SVG-20010904/DTD/svg10.dtd">
<svg version="1.0" xmlns="http://www.w3.org/2000/svg"
 width="330.000000pt" height="590.000000pt" viewBox="0 0 330.000000 590.000000"
 preserveAspectRatio="xMidYMid meet">
<metadata>
Created by potrace 1.16, written by Peter Selinger 2001-2019
</metadata>
<g transform="translate(0.000000,590.000000) scale(0.500000,-0.500000)"
fill="#000000" stroke="none">
<path d="M303 1132 c-14 -7 -31 -23 -36 -34 -2 -4 -11 -16 -19 -28 -16 -22
-26 -38 -36 -59 -15 -29 -13 -30 -70 42 -50 63 -50 62 -78 35 -20 -19 -23 -12
49 -97 68 -78 65 -73 59 -95 -4 -15 -5 -28 -9 -75 -2 -13 0 -26 7 -82 2 -15 4
-37 5 -49 2 -22 3 -29 13 -68 3 -14 7 -31 7 -38 1 -7 2 -16 3 -20 3 -10 -31
-44 -97 -98 -41 -33 -41 -34 -27 -55 20 -31 23 -30 79 12 89 68 81 68 111 0 6
-15 14 -30 17 -34 7 -9 7 -20 -1 -41 -4 -9 -11 -29 -16 -44 -5 -15 -11 -29
-12 -32 -2 -3 -4 -9 -5 -15 -5 -18 -13 -39 -17 -46 -3 -3 -7 -14 -9 -26 -4
-18 -10 -35 -24 -73 -12 -29 -6 -43 20 -47 26 -5 32 0 35 31 1 9 5 26 8 37 13
46 25 83 30 93 2 6 6 16 7 22 19 77 27 78 46 2 2 -6 5 -17 9 -26 3 -8 10 -28
15 -45 5 -16 11 -38 14 -47 3 -9 6 -25 8 -36 4 -31 9 -36 30 -32 31 6 37 17
25 49 -16 42 -21 56 -24 72 -2 10 -6 22 -9 26 -5 8 -17 42 -17 47 0 2 -2 7 -4
11 -2 5 -9 21 -14 36 -5 16 -12 34 -15 42 -8 24 -9 32 -1 42 3 5 10 18 15 30
15 34 38 82 42 85 6 5 13 0 61 -47 32 -32 49 -47 53 -48 3 -1 10 -4 15 -6 16
-8 27 -3 42 21 12 18 11 20 -43 63 -82 66 -96 86 -87 123 2 8 4 21 5 28 1 7 3
16 5 19 6 11 8 203 3 227 -2 7 -3 14 -2 16 1 2 0 7 -2 11 -4 10 -4 26 0 32 3
5 63 59 80 72 46 36 49 44 28 67 -25 26 -25 26 -81 -30 -60 -59 -55 -57 -73
-25 -6 11 -19 31 -28 43 -9 12 -17 24 -17 25 0 4 -25 30 -36 37 -11 8 -21 8
-37 0z m29 -62 c4 -2 36 -44 46 -59 9 -15 28 -60 32 -77 7 -25 12 -124 7 -131
-3 -5 -188 -6 -194 -1 -4 3 -5 40 -1 49 1 3 3 16 4 28 3 42 13 83 28 114 9 19
42 66 52 76 5 3 20 4 26 1z m85 -321 c5 -4 5 -37 -1 -61 -2 -9 -4 -20 -4 -23
0 -13 -18 -97 -24 -111 -50 -127 -68 -146 -92 -96 -51 107 -47 97 -64 188 -2
12 -6 29 -8 38 -4 15 -4 19 -2 29 1 7 1 17 0 23 0 9 0 11 3 13 6 4 187 4 192
0z"/>
</g>
</svg>
