<?xml version="1.0" standalone="no"?>
<!DOCTYPE svg PUBLIC "-//W3C//DTD SVG 20010904//EN"
 "http://www.w3.org/TR/2001/REC-SVG-20010904/DTD/svg10.dtd">
<svg version="1.0" xmlns="http://www.w3.org/2000/svg"
 width="55.000000pt" height="100.000000pt" viewBox="0 0 55.000000 100.000000"
 preserveAspectRatio="xMidYMid meet">
<metadata>
Created by potrace 1.16, written by Peter Selinger 2001-2019
</metadata>
<g transform="translate(0.000000,100.000000) scale(0.100000,-0.100000)"
fill="#000000" stroke="none">
<path d="M229 943 c-9 -10 -26 -35 -38 -55 -13 -21 -26 -38 -29 -38 -4 0 -26
21 -48 47 -36 42 -44 46 -58 34 -24 -20 -20 -31 34 -95 l51 -58 -7 -57 c-4
-35 0 -93 11 -155 l17 -100 -58 -52 c-50 -44 -57 -55 -48 -70 17 -29 30 -27
80 17 l48 41 18 -22 c35 -43 33 -67 -11 -194 -38 -110 -40 -122 -25 -133 21
-15 43 -6 48 21 22 109 40 166 51 166 9 0 21 -34 36 -95 19 -86 24 -95 45 -95
12 0 25 4 29 9 3 5 -13 60 -35 123 -22 62 -40 121 -40 130 0 20 41 108 50 108
4 0 27 -20 52 -45 50 -49 59 -52 82 -30 21 21 13 36 -44 79 -28 21 -51 43 -51
50 -1 6 -1 81 0 166 l2 155 51 45 c35 32 49 52 47 65 -7 33 -41 29 -79 -10
-18 -19 -39 -35 -44 -34 -6 0 -24 21 -41 47 -34 53 -70 66 -96 35z m77 -88
c18 -32 28 -65 32 -110 l5 -65 -78 0 -78 0 6 66 c7 71 46 154 72 154 8 0 26
-20 41 -45z m31 -285 c-8 -68 -40 -167 -62 -190 -14 -13 -17 -13 -25 0 -17 26
-50 140 -56 196 l-7 54 78 0 78 0 -6 -60z"/>
</g>
</svg>
