<?xml version="1.0" standalone="no"?>
<!DOCTYPE svg PUBLIC "-//W3C//DTD SVG 20010904//EN"
 "http://www.w3.org/TR/2001/REC-SVG-20010904/DTD/svg10.dtd">
<svg version="1.0" xmlns="http://www.w3.org/2000/svg"
 width="46.000000pt" height="100.000000pt" viewBox="0 0 46.000000 100.000000"
 preserveAspectRatio="xMidYMid meet">
<metadata>
Created by potrace 1.16, written by Peter Selinger 2001-2019
</metadata>
<g transform="translate(0.000000,100.000000) scale(0.100000,-0.100000)"
fill="#000000" stroke="none">
<path d="M128 909 c-88 -71 -107 -94 -101 -119 3 -11 10 -20 17 -20 6 1 43 28
81 61 106 92 93 92 190 -1 46 -44 86 -80 89 -80 3 0 10 9 16 20 15 29 2 48
-85 124 -98 85 -118 87 -207 15z"/>
<path d="M195 812 c-119 -101 -134 -280 -40 -468 l46 -92 -36 -97 c-38 -100
-39 -125 -7 -125 29 0 39 18 57 98 10 41 22 72 29 72 7 0 27 -32 46 -70 19
-39 42 -78 51 -86 19 -17 59 -11 59 8 0 6 -27 55 -60 108 -33 53 -60 105 -60
114 0 9 14 42 30 73 25 46 30 67 30 125 0 144 -36 278 -92 338 -23 24 -27 24
-53 2z m80 -167 c0 -24 -9 -33 -62 -62 -56 -31 -64 -33 -70 -18 -9 25 6 45 62
83 55 37 70 37 70 -3z m10 -106 c0 -19 -12 -30 -60 -56 -63 -33 -75 -34 -75
-3 0 13 20 31 58 54 64 39 77 40 77 5z m11 -107 c-9 -28 -92 -70 -107 -55 -19
19 -3 40 48 67 50 25 69 22 59 -12z"/>
</g>
</svg>
