<?xml version="1.0" standalone="no"?>
<!DOCTYPE svg PUBLIC "-//W3C//DTD SVG 20010904//EN"
 "http://www.w3.org/TR/2001/REC-SVG-20010904/DTD/svg10.dtd">
<svg version="1.0" xmlns="http://www.w3.org/2000/svg"
 width="68.000000pt" height="148.000000pt" viewBox="0 0 68.000000 148.000000"
 preserveAspectRatio="xMidYMid meet">
<metadata>
Created by potrace 1.16, written by Peter Selinger 2001-2019
</metadata>
<g transform="translate(0.000000,148.000000) scale(0.100000,-0.100000)"
fill="#000000" stroke="none">
<path d="M168 1322 c-122 -101 -147 -138 -116 -169 13 -12 30 -1 133 89 64 57
124 107 132 111 17 10 9 16 170 -132 62 -57 117 -100 122 -96 6 3 11 21 11 39
0 29 -11 43 -82 108 -174 157 -162 148 -209 148 -41 -1 -53 -8 -161 -98z"/>
<path d="M285 1199 c-136 -119 -179 -371 -102 -589 23 -65 65 -149 94 -187 17
-21 24 -41 20 -55 -10 -43 -89 -263 -99 -275 -18 -23 -1 -43 36 -43 19 0 37 4
40 9 5 8 20 59 54 190 9 36 22 66 28 68 7 2 43 -55 80 -127 51 -97 75 -132 91
-137 29 -7 53 2 53 20 0 8 -42 85 -94 172 l-95 159 25 43 c13 24 36 64 50 90
24 42 27 57 28 152 1 138 -12 251 -35 325 -21 66 -101 201 -124 210 -9 3 -30
-8 -50 -25z m70 -84 l19 -37 -24 -19 c-14 -11 -47 -36 -75 -55 -40 -27 -51
-31 -53 -19 -8 35 86 184 106 171 4 -2 16 -21 27 -41z m62 -137 c8 -29 8 -47
1 -55 -12 -15 -196 -123 -209 -123 -13 0 -11 73 4 93 19 25 160 125 177 126
10 1 20 -14 27 -41z m18 -167 l0 -43 -93 -54 c-100 -58 -116 -63 -126 -38 -17
45 -7 62 62 100 37 20 83 48 102 61 19 13 39 22 45 20 5 -2 10 -23 10 -46z
m10 -148 c-7 -51 -20 -73 -40 -73 -7 0 -33 -11 -56 -25 -53 -30 -75 -31 -89
-6 -18 34 -11 48 30 65 22 9 61 32 88 51 66 48 76 46 67 -12z m-70 -189 c-19
-29 -68 -31 -73 -2 -4 23 81 65 86 42 2 -8 -4 -26 -13 -40z"/>
</g>
</svg>
