<?xml version="1.0" standalone="no"?>
<!DOCTYPE svg PUBLIC "-//W3C//DTD SVG 20010904//EN"
 "http://www.w3.org/TR/2001/REC-SVG-20010904/DTD/svg10.dtd">
<svg version="1.0" xmlns="http://www.w3.org/2000/svg"
 width="274.000000pt" height="590.000000pt" viewBox="0 0 274.000000 590.000000"
 preserveAspectRatio="xMidYMid meet">
<metadata>
Created by potrace 1.16, written by Peter Selinger 2001-2019
</metadata>
<g transform="translate(0.000000,590.000000) scale(0.500000,-0.500000)"
fill="#000000" stroke="none">
<path d="M232 1133 c-4 -2 -23 -17 -41 -32 -19 -15 -47 -38 -62 -51 -98 -81
-91 -73 -91 -101 0 -43 13 -45 51 -12 59 52 172 147 177 148 7 2 43 -29 168
-145 58 -55 64 -56 66 -12 1 40 11 27 -112 136 -95 84 -79 74 -118 74 -29 0
-32 0 -38 -5z"/>
<path d="M252 977 c-11 -6 -59 -57 -67 -70 -4 -8 -12 -21 -18 -28 -11 -14 -12
-17 -19 -43 -4 -16 -8 -32 -10 -35 -7 -22 -10 -32 -10 -35 0 -2 -3 -7 -6 -12
-11 -14 -10 -141 1 -163 7 -15 9 -24 8 -39 -1 -11 -1 -15 5 -27 3 -8 9 -26 14
-40 6 -19 11 -32 18 -42 5 -9 10 -18 11 -22 1 -3 4 -11 8 -18 3 -7 7 -15 9
-19 1 -4 8 -14 15 -23 7 -8 13 -16 13 -17 0 -1 4 -7 8 -12 10 -13 12 -40 3
-56 -5 -9 -11 -28 -32 -93 -6 -20 -14 -39 -16 -44 -3 -4 -6 -12 -7 -18 -5 -24
-7 -28 -14 -40 -17 -26 -10 -35 26 -35 38 0 34 -6 62 98 34 125 37 128 61 78
3 -7 7 -14 8 -16 2 -2 20 -35 42 -74 48 -89 45 -85 70 -86 51 -1 51 3 -21 124
-107 179 -98 146 -58 218 42 75 42 74 42 85 0 12 5 49 9 72 4 19 4 28 0 47 -1
8 -4 26 -5 39 -1 13 -3 32 -5 42 -1 10 -3 32 -4 48 -1 30 -3 38 -13 72 -2 7
-7 22 -10 35 -7 25 -11 35 -20 46 -3 4 -19 28 -35 55 -16 26 -31 48 -33 49 -5
3 -24 2 -30 -1z m17 -59 c6 -6 31 -47 31 -51 0 -6 -81 -68 -104 -80 -28 -14
-1 64 35 103 5 5 10 12 12 15 11 18 18 22 26 13z m54 -102 c5 -2 21 -56 21
-67 0 -10 -18 -22 -113 -77 -12 -7 -28 -16 -35 -20 -24 -14 -28 -11 -28 22 0
40 1 42 59 82 90 63 91 64 96 60z m26 -135 c4 -6 8 -51 5 -58 -3 -7 -98 -65
-145 -89 -23 -11 -33 0 -34 37 0 18 2 21 29 36 10 7 26 16 35 21 9 5 23 13 32
17 8 4 22 12 31 18 14 10 38 23 42 23 1 0 3 -2 5 -5z m12 -118 c8 -21 -9 -81
-24 -84 -22 -4 -29 -7 -38 -15 -22 -18 -61 -30 -75 -23 -13 7 -22 36 -14 44 6
6 32 17 38 17 5 0 25 11 44 26 6 4 16 12 23 16 37 23 43 26 46 19z m-43 -149
c0 -4 -16 -37 -22 -44 -12 -12 -38 -11 -46 2 -9 16 -3 21 37 37 24 9 30 10 31
5z"/>
</g>
</svg>
