<?xml version="1.0" standalone="no"?>
<!DOCTYPE svg PUBLIC "-//W3C//DTD SVG 20010904//EN"
 "http://www.w3.org/TR/2001/REC-SVG-20010904/DTD/svg10.dtd">
<svg version="1.0" xmlns="http://www.w3.org/2000/svg"
 width="582.000000pt" height="590.000000pt" viewBox="0 0 582.000000 590.000000"
 preserveAspectRatio="xMidYMid meet">
<metadata>
Created by potrace 1.16, written by Peter Selinger 2001-2019
</metadata>
<g transform="translate(0.000000,590.000000) scale(0.500000,-0.500000)"
fill="#000000" stroke="none">
<path d="M567 1130 c-8 -3 -11 -10 -11 -24 0 -15 -3 -20 -18 -37 -10 -12 -24
-32 -28 -41 -2 -4 -7 -12 -10 -17 -10 -14 -14 -25 -14 -36 0 -7 -3 -16 -9 -32
-10 -23 -14 -36 -17 -57 -2 -14 -4 -26 -8 -49 -2 -11 -2 -16 0 -25 4 -17 -7
-39 -33 -58 -10 -8 -24 -20 -31 -27 -50 -49 -62 -60 -69 -64 -4 -3 -13 -9 -20
-14 -22 -14 -36 -7 -61 29 -9 14 -18 26 -26 32 -6 5 -16 14 -22 21 -56 59 -80
54 -113 -25 -4 -12 -11 -26 -14 -32 -7 -13 -17 -46 -17 -55 0 -3 -2 -16 -4
-28 -16 -92 30 -154 69 -92 33 51 31 51 58 11 7 -10 18 -24 23 -31 6 -7 13
-16 15 -22 3 -5 9 -14 14 -19 4 -5 13 -15 20 -23 6 -8 16 -19 23 -25 8 -7 14
-14 18 -22 14 -28 47 -33 70 -9 4 4 10 8 14 9 6 2 34 22 64 45 6 4 13 9 17 11
5 1 15 7 23 13 22 16 28 14 38 -10 3 -8 13 -28 23 -43 23 -37 23 -45 2 -87 -3
-5 -8 -16 -10 -23 -3 -7 -10 -22 -16 -34 -6 -12 -17 -34 -25 -49 -7 -15 -15
-29 -17 -31 -1 -1 -5 -8 -8 -16 -3 -7 -8 -19 -12 -25 -4 -6 -10 -16 -14 -22
-18 -29 -14 -51 9 -51 13 0 39 36 49 66 2 6 9 21 15 34 7 13 18 37 25 55 26
63 25 64 25 -51 -1 -107 -2 -102 15 -102 20 0 22 9 21 103 -1 72 -1 93 3 94 3
0 35 -65 56 -116 29 -71 46 -92 63 -75 12 11 10 24 -8 54 -6 9 -11 21 -13 27
-2 5 -5 12 -7 16 -6 11 -22 41 -28 56 -8 18 -24 49 -28 55 -2 3 -7 12 -10 20
-3 7 -9 19 -14 26 -21 34 -21 52 3 81 20 25 28 37 38 58 10 22 16 26 23 20 2
-2 9 -6 14 -9 9 -5 12 -9 26 -35 3 -4 12 -16 22 -25 17 -17 31 -35 36 -48 13
-32 43 -41 67 -20 6 5 13 11 17 13 7 4 20 20 33 43 7 11 13 18 19 23 6 4 14
14 20 22 6 8 13 18 16 21 3 4 8 12 10 17 10 19 20 36 29 45 5 6 9 11 9 12 0 2
13 10 17 10 2 0 11 -7 20 -16 28 -27 60 -20 83 18 13 22 13 24 -19 75 -33 52
-56 91 -70 113 -24 41 -37 44 -58 14 -3 -5 -8 -12 -11 -15 -3 -3 -9 -11 -13
-18 -4 -7 -9 -14 -11 -16 -2 -2 -8 -11 -12 -19 -29 -55 -45 -62 -65 -31 -6 9
-12 17 -14 19 -2 2 -9 12 -16 22 -7 10 -19 26 -27 35 -29 32 -47 54 -51 64 -4
10 -25 37 -34 43 -11 9 -19 23 -21 36 -2 15 -7 35 -13 56 -3 8 -7 21 -9 28 -2
7 -7 21 -11 30 -7 17 -10 27 -15 46 -4 19 -22 50 -36 65 -7 8 -8 9 -8 23 -1
20 -10 28 -25 22z m-14 -124 c3 -29 3 -489 0 -501 -4 -15 -4 -64 -1 -79 4 -14
0 -18 -8 -8 -7 8 -26 45 -26 51 0 2 -2 6 -4 11 -12 25 -24 76 -24 108 0 13 -1
23 -4 32 -2 7 -4 17 -4 23 0 6 -1 15 -3 20 -4 12 -4 33 -1 40 2 4 3 25 4 55 2
65 6 95 20 134 2 6 6 20 9 32 6 23 7 25 19 54 17 41 21 46 23 28z m51 -5 c4
-5 9 -16 12 -24 2 -8 7 -22 10 -32 3 -10 7 -22 7 -26 1 -4 3 -12 5 -16 8 -16
14 -44 14 -70 0 -13 1 -28 2 -32 5 -17 9 -154 6 -176 -1 -7 -3 -19 -4 -27 -1
-8 -4 -25 -6 -37 -3 -12 -5 -27 -6 -33 -2 -11 -5 -21 -16 -43 -3 -7 -8 -17
-11 -24 -3 -6 -9 -16 -14 -21 -17 -17 -16 -38 -14 254 0 181 0 261 -2 270 -1
11 -1 17 1 27 5 26 5 26 16 10z m99 -239 c9 -7 24 -23 37 -41 3 -4 10 -13 15
-19 6 -7 15 -18 22 -26 7 -8 16 -20 20 -26 5 -7 11 -15 15 -19 3 -3 8 -10 11
-15 4 -5 9 -11 11 -13 5 -4 30 -38 34 -44 3 -7 24 -35 30 -42 5 -6 14 -21 17
-30 7 -23 -42 -61 -57 -45 -5 5 -21 22 -36 37 -27 28 -36 38 -44 55 -5 11 -12
20 -32 42 -8 9 -18 21 -21 25 -3 4 -8 10 -11 13 -19 15 -21 26 -25 124 -2 36
-1 37 14 24z m-560 -43 c7 -6 16 -13 20 -16 9 -5 36 -34 47 -49 3 -5 11 -14
17 -19 18 -16 19 -22 8 -46 -23 -52 -35 -61 -55 -41 -8 7 -16 15 -19 18 -13
12 -25 26 -30 34 -6 11 -10 14 -19 14 -7 0 -8 -1 -22 -26 -11 -18 -21 -32 -24
-32 -6 0 -1 39 8 59 3 8 7 20 10 28 27 81 38 96 59 76z m309 -16 c9 -62 3 -76
-46 -111 -18 -12 -24 -17 -66 -54 -7 -6 -19 -15 -26 -19 -7 -4 -18 -12 -24
-18 -39 -36 -38 -36 -54 -17 -19 22 15 90 57 117 4 3 12 9 17 14 5 5 15 12 23
16 8 4 19 13 25 19 6 6 22 19 35 30 13 10 30 24 36 30 17 16 19 16 23 -7z
m551 -12 c7 -11 16 -25 20 -32 5 -6 15 -22 23 -35 8 -13 18 -27 23 -33 12 -14
16 -22 12 -26 -5 -7 -17 5 -28 27 -20 39 -47 29 -77 -29 -9 -17 -36 -44 -41
-41 -13 7 -45 54 -45 66 0 4 17 31 28 43 5 6 16 19 25 31 45 57 43 57 60 29z
m-536 -115 c2 -3 3 -13 3 -23 0 -12 1 -24 4 -33 2 -9 3 -17 2 -19 -2 -5 -24
-35 -26 -35 0 0 -10 -8 -20 -17 -15 -13 -21 -18 -29 -20 -6 -2 -14 -6 -18 -8
-5 -3 -11 -8 -15 -11 -37 -25 -52 -25 -68 -1 -5 6 -11 15 -14 19 -9 9 -8 15 3
22 5 3 11 9 14 13 3 4 10 9 15 12 14 7 31 18 34 22 1 2 6 4 9 6 9 3 17 11 50
41 42 39 51 43 56 32z m239 -3 c5 -6 15 -16 22 -22 7 -7 17 -18 21 -25 14 -24
18 -28 32 -42 8 -7 18 -19 24 -26 5 -7 16 -20 23 -29 17 -18 17 -24 6 -41 -10
-14 -35 -9 -51 11 -4 4 -15 17 -25 27 -10 10 -22 23 -25 27 -3 5 -13 14 -21
21 -8 7 -16 15 -19 18 -2 3 -6 7 -9 10 -12 9 -12 22 -3 53 10 31 10 32 25 18z"/>
</g>
</svg>
