<?xml version="1.0" standalone="no"?>
<!DOCTYPE svg PUBLIC "-//W3C//DTD SVG 20010904//EN"
 "http://www.w3.org/TR/2001/REC-SVG-20010904/DTD/svg10.dtd">
<svg version="1.0" xmlns="http://www.w3.org/2000/svg"
 width="146.000000pt" height="148.000000pt" viewBox="0 0 146.000000 148.000000"
 preserveAspectRatio="xMidYMid meet">
<metadata>
Created by potrace 1.16, written by Peter Selinger 2001-2019
</metadata>
<g transform="translate(0.000000,148.000000) scale(0.100000,-0.100000)"
fill="#000000" stroke="none">
<path d="M697 1414 c-4 -4 -7 -20 -7 -36 0 -16 -10 -40 -23 -53 -47 -52 -97
-191 -99 -280 l-2 -60 -85 -82 c-106 -101 -122 -111 -156 -93 -14 7 -25 19
-25 26 0 18 -118 124 -139 124 -29 0 -47 -27 -96 -145 -23 -56 -23 -180 1
-206 25 -28 41 -24 72 21 15 21 32 39 39 40 7 0 27 -21 44 -47 18 -27 60 -81
93 -121 62 -74 90 -88 116 -57 7 8 17 15 22 15 5 0 41 23 80 50 39 28 75 50
79 50 4 0 14 -12 22 -27 8 -16 25 -46 38 -69 l23 -41 -86 -173 c-83 -166 -94
-204 -59 -198 18 3 78 114 112 207 12 34 24 59 27 56 4 -3 5 -61 3 -129 -3
-129 7 -160 36 -120 10 14 12 43 7 131 -4 64 -3 113 2 113 5 0 24 -35 43 -78
71 -162 76 -172 94 -172 24 0 33 28 17 54 -21 34 -160 314 -160 323 0 4 17 33
38 64 20 31 42 64 47 74 9 15 12 15 35 -8 41 -40 75 -82 109 -131 18 -25 38
-46 45 -46 22 0 158 150 186 207 18 37 51 73 65 73 6 0 17 -9 25 -20 25 -34
73 -23 104 25 16 25 16 27 -24 85 -22 32 -40 64 -40 69 0 6 -3 11 -8 11 -4 0
-13 13 -20 29 -17 39 -60 84 -72 76 -6 -4 -32 -39 -59 -78 -75 -112 -67 -111
-152 -6 -41 51 -79 101 -85 111 -6 11 -23 32 -38 47 -14 15 -26 32 -26 37 0
22 -70 225 -92 266 -13 23 -25 54 -28 68 -5 24 -29 38 -43 24z m-7 -528 c-4
-277 -8 -375 -16 -365 -67 87 -98 424 -53 587 12 43 25 86 29 97 4 11 14 35
21 53 8 22 14 29 18 20 3 -7 4 -184 1 -392z m86 314 c9 -30 20 -64 24 -75 8
-19 17 -110 26 -255 4 -76 -19 -215 -48 -282 -41 -95 -44 -71 -42 320 1 202 3
369 3 372 3 12 22 -30 37 -80z m192 -352 c54 -68 109 -139 122 -158 13 -19 27
-37 30 -40 20 -15 28 -46 18 -65 -15 -27 -34 -45 -48 -45 -14 0 -90 82 -127
136 -13 20 -31 43 -39 51 -55 55 -64 78 -64 161 0 45 2 82 5 82 2 0 48 -55
103 -122z m-732 -5 c35 -36 64 -73 64 -80 0 -17 -36 -90 -49 -97 -9 -6 -91 72
-91 87 0 21 -38 2 -54 -28 -41 -76 -38 -4 4 100 4 11 13 35 20 53 7 17 19 32
27 32 9 0 44 -30 79 -67z m329 13 c9 -56 -2 -75 -71 -128 -31 -24 -72 -56 -92
-71 -20 -16 -48 -39 -63 -53 -31 -30 -33 -30 -52 0 -15 22 -14 27 19 79 21 34
54 69 87 91 29 19 75 56 102 80 28 25 53 45 57 46 4 0 10 -20 13 -44z m685 23
c0 -6 25 -47 55 -91 30 -44 55 -81 55 -84 0 -2 -6 -4 -12 -4 -7 0 -23 16 -36
35 -27 43 -38 39 -91 -31 -20 -27 -43 -49 -51 -49 -13 0 -60 59 -60 75 0 7 73
109 105 147 13 15 35 17 35 2z m-666 -165 c3 -9 6 -35 6 -59 0 -36 -6 -49 -32
-74 -43 -40 -149 -103 -164 -97 -6 2 -21 18 -32 34 l-21 29 22 20 c12 11 47
36 77 55 30 20 71 52 89 72 39 40 46 43 55 20z m412 -131 c40 -44 55 -69 52
-85 -6 -41 -41 -34 -89 18 -24 26 -61 63 -81 82 -41 38 -44 49 -26 100 l13 34
38 -44 c20 -24 62 -71 93 -105z m314 98 c0 -11 -3 -11 -15 -1 -8 7 -15 22 -15
33 0 20 0 20 15 1 8 -10 15 -25 15 -33z m-1180 -11 c-25 -35 -46 -41 -29 -7
18 34 43 60 47 48 2 -6 -6 -24 -18 -41z"/>
</g>
</svg>
