<?xml version="1.0" standalone="no"?>
<!DOCTYPE svg PUBLIC "-//W3C//DTD SVG 20010904//EN"
 "http://www.w3.org/TR/2001/REC-SVG-20010904/DTD/svg10.dtd">
<svg version="1.0" xmlns="http://www.w3.org/2000/svg"
 width="99.000000pt" height="100.000000pt" viewBox="0 0 99.000000 100.000000"
 preserveAspectRatio="xMidYMid meet">
<metadata>
Created by potrace 1.16, written by Peter Selinger 2001-2019
</metadata>
<g transform="translate(0.000000,100.000000) scale(0.100000,-0.100000)"
fill="#000000" stroke="none">
<path d="M432 871 c-26 -53 -47 -112 -51 -147 -8 -54 -12 -62 -70 -116 -34
-32 -65 -58 -70 -58 -4 0 -33 25 -64 56 -34 34 -63 54 -74 52 -9 -2 -30 -27
-45 -57 -21 -40 -28 -67 -28 -111 0 -32 3 -65 6 -74 9 -22 41 -20 56 4 7 11
18 20 24 20 6 0 37 -34 69 -75 69 -90 83 -93 169 -36 33 22 63 38 68 35 19
-12 39 -67 33 -93 -3 -14 -28 -65 -56 -113 -49 -88 -57 -112 -40 -122 20 -13
41 9 67 70 37 88 48 91 42 13 -6 -73 -2 -89 18 -89 11 0 14 16 14 71 0 86 12
87 46 4 30 -74 39 -84 60 -64 13 14 9 28 -47 137 l-62 122 28 40 c15 22 33 40
40 40 6 0 33 -27 58 -60 26 -33 51 -60 56 -60 19 0 73 54 117 116 25 35 50 64
54 64 5 0 21 -5 34 -12 22 -9 29 -8 46 7 11 10 20 24 20 32 0 20 -74 144 -99
167 -25 23 -38 14 -76 -50 -26 -44 -48 -56 -58 -31 -3 7 -33 48 -66 90 -41 50
-67 94 -77 129 -24 77 -75 188 -88 188 -6 0 -31 -40 -54 -89z m103 -93 c10
-35 15 -93 14 -182 0 -130 -12 -196 -36 -204 -10 -3 -13 46 -13 223 0 234 6
261 35 163z m-65 -165 c0 -120 -4 -224 -8 -231 -24 -37 -58 151 -48 269 7 84
31 179 46 179 6 0 10 -85 10 -217z m180 -40 c114 -144 120 -154 110 -174 -6
-10 -17 -19 -24 -19 -11 0 -81 81 -128 150 -18 25 -25 100 -10 100 4 0 27 -26
52 -57z m-497 -7 c39 -35 48 -74 23 -95 -10 -8 -19 -5 -40 14 -15 14 -36 25
-47 25 -10 0 -19 5 -19 10 0 19 29 80 38 80 4 0 25 -15 45 -34z m230 10 c8
-20 -22 -55 -97 -115 -68 -55 -86 -61 -86 -33 0 23 42 70 108 121 59 45 67 48
75 27z m479 -21 c10 -23 8 -29 -27 -65 -30 -30 -42 -37 -52 -29 -21 18 -15 52
16 87 36 39 48 40 63 7z m-462 -110 c0 -24 -53 -78 -96 -97 -27 -13 -54 -5
-54 16 0 17 129 118 142 110 4 -3 8 -16 8 -29z m259 -36 c49 -58 56 -79 27
-79 -20 0 -106 97 -106 120 0 35 27 22 79 -41z"/>
</g>
</svg>
