<?xml version="1.0" standalone="no"?>
<!DOCTYPE svg PUBLIC "-//W3C//DTD SVG 20010904//EN"
 "http://www.w3.org/TR/2001/REC-SVG-20010904/DTD/svg10.dtd">
<svg version="1.0" xmlns="http://www.w3.org/2000/svg"
 width="64.000000pt" height="148.000000pt" viewBox="0 0 64.000000 148.000000"
 preserveAspectRatio="xMidYMid meet">
<metadata>
Created by potrace 1.16, written by Peter Selinger 2001-2019
</metadata>
<g transform="translate(0.000000,148.000000) scale(0.100000,-0.100000)"
fill="#000000" stroke="none">
<path d="M423 1421 c-4 -3 -15 -22 -24 -41 -69 -151 -129 -275 -220 -459
l-107 -214 90 -118 c49 -65 93 -121 99 -124 22 -14 3 -50 -95 -188 -134 -187
-130 -180 -106 -209 25 -30 43 -19 90 55 61 97 134 207 153 230 l18 22 19 -25
c45 -59 150 -210 150 -216 0 -14 62 -84 75 -84 18 0 26 25 18 63 -7 36 -32 75
-141 222 -41 55 -77 106 -79 113 -3 7 12 37 33 68 l39 56 4 144 c4 157 0 174
-71 318 l-29 58 24 37 c13 20 28 47 32 61 4 14 28 64 52 113 25 48 43 94 40
101 -6 15 -51 27 -64 17z m-83 -495 c16 -48 20 -85 20 -197 0 -138 -8 -182
-37 -193 -8 -3 -23 4 -34 17 -39 41 -119 158 -119 171 0 8 18 50 40 95 22 44
40 85 40 91 0 21 52 92 61 83 5 -5 18 -35 29 -67z"/>
</g>
</svg>
