<?xml version="1.0" standalone="no"?>
<!DOCTYPE svg PUBLIC "-//W3C//DTD SVG 20010904//EN"
 "http://www.w3.org/TR/2001/REC-SVG-20010904/DTD/svg10.dtd">
<svg version="1.0" xmlns="http://www.w3.org/2000/svg"
 width="256.000000pt" height="590.000000pt" viewBox="0 0 256.000000 590.000000"
 preserveAspectRatio="xMidYMid meet">
<metadata>
Created by potrace 1.16, written by Peter Selinger 2001-2019
</metadata>
<g transform="translate(0.000000,590.000000) scale(0.500000,-0.500000)"
fill="#000000" stroke="none">
<path d="M343 1141 c-7 -2 -11 -7 -17 -24 -3 -9 -9 -21 -13 -27 -7 -12 -15
-29 -15 -33 0 -5 -19 -40 -25 -47 -5 -6 -8 -10 -9 -18 -1 -7 -7 -22 -17 -42
-8 -17 -18 -38 -21 -46 -3 -8 -11 -23 -17 -33 -6 -10 -12 -22 -13 -26 -2 -9
-112 -228 -123 -248 -14 -23 -14 -31 -1 -47 5 -7 19 -26 31 -42 127 -167 120
-156 107 -173 -4 -6 -9 -14 -12 -18 -3 -7 -76 -109 -101 -142 -58 -77 -68
-100 -53 -118 21 -23 54 -9 74 32 8 16 37 61 50 77 4 5 9 12 11 16 2 3 7 10
11 15 4 4 10 13 12 18 6 14 48 75 53 78 7 2 11 -2 35 -35 10 -15 27 -38 37
-52 21 -29 49 -70 57 -81 3 -4 8 -13 10 -19 4 -7 8 -13 13 -17 4 -3 9 -9 11
-14 19 -45 54 -40 54 8 0 34 1 31 -38 84 -16 22 -33 47 -39 55 -5 8 -14 19
-18 25 -5 5 -10 13 -12 16 -2 4 -8 12 -14 19 -6 6 -13 17 -17 24 -3 6 -11 17
-17 23 -30 31 -29 40 10 89 15 18 21 35 22 60 1 9 3 21 4 25 7 17 1 201 -6
216 -4 9 -12 27 -18 46 -3 8 -12 28 -19 43 -8 15 -14 29 -14 31 0 3 -3 9 -7
13 -13 14 -10 28 15 63 7 11 11 20 15 32 5 17 47 103 60 122 14 22 20 47 14
56 -7 10 -37 19 -50 16z m-93 -352 c5 -4 9 -11 16 -31 3 -8 10 -27 15 -41 l10
-26 -1 -103 c0 -78 -1 -105 -3 -112 -1 -5 -4 -13 -5 -17 -9 -34 -51 -28 -64 8
-2 4 -8 13 -15 21 -6 7 -17 21 -24 32 -6 10 -17 25 -23 33 -20 24 -20 42 1 70
3 4 7 11 9 18 2 6 8 19 14 29 5 11 12 24 15 29 5 10 8 19 14 40 2 5 5 12 9 16
3 3 8 12 12 20 8 18 11 20 20 14z"/>
</g>
</svg>
