<?xml version="1.0" standalone="no"?>
<!DOCTYPE svg PUBLIC "-//W3C//DTD SVG 20010904//EN"
 "http://www.w3.org/TR/2001/REC-SVG-20010904/DTD/svg10.dtd">
<svg version="1.0" xmlns="http://www.w3.org/2000/svg"
 width="43.000000pt" height="100.000000pt" viewBox="0 0 43.000000 100.000000"
 preserveAspectRatio="xMidYMid meet">
<metadata>
Created by potrace 1.16, written by Peter Selinger 2001-2019
</metadata>
<g transform="translate(0.000000,100.000000) scale(0.100000,-0.100000)"
fill="#000000" stroke="none">
<path d="M277 953 c-8 -10 -33 -59 -55 -108 -22 -50 -70 -151 -107 -225 -76
-152 -77 -138 9 -245 31 -38 56 -73 56 -77 0 -4 -34 -53 -75 -109 -82 -111
-95 -153 -48 -147 21 2 38 21 87 100 34 54 66 98 72 98 6 0 33 -33 59 -73 83
-125 95 -139 111 -126 28 23 14 58 -61 157 -41 55 -75 104 -75 111 0 6 10 25
23 42 20 28 22 42 22 142 0 105 -2 116 -31 178 l-31 65 48 94 c52 100 58 124
33 134 -21 8 -19 9 -37 -11z m-52 -310 c4 -10 10 -70 13 -133 4 -97 2 -118
-11 -129 -21 -17 -25 -13 -71 53 l-38 56 38 85 c38 84 55 101 69 68z"/>
</g>
</svg>
