<?xml version="1.0" standalone="no"?>
<!DOCTYPE svg PUBLIC "-//W3C//DTD SVG 20010904//EN"
 "http://www.w3.org/TR/2001/REC-SVG-20010904/DTD/svg10.dtd">
<svg version="1.0" xmlns="http://www.w3.org/2000/svg"
 width="68.000000pt" height="148.000000pt" viewBox="0 0 68.000000 148.000000"
 preserveAspectRatio="xMidYMid meet">
<metadata>
Created by potrace 1.16, written by Peter Selinger 2001-2019
</metadata>
<g transform="translate(0.000000,148.000000) scale(0.100000,-0.100000)"
fill="#000000" stroke="none">
<path d="M195 1339 c-153 -93 -156 -95 -149 -114 11 -27 44 -28 84 -1 50 33
65 33 79 -3 7 -16 37 -73 68 -127 l55 -99 -32 -59 c-42 -76 -59 -151 -60 -251
0 -98 18 -171 55 -226 20 -28 26 -45 19 -54 -5 -8 -56 -78 -112 -156 l-104
-142 24 -24 c25 -24 54 -24 60 1 6 23 173 265 183 265 6 0 55 -66 110 -147 73
-107 105 -147 120 -147 15 0 21 8 23 33 3 26 -5 45 -36 85 -100 135 -172 235
-172 242 0 10 124 180 159 218 21 23 23 31 14 46 -6 10 -31 54 -54 97 -23 44
-45 84 -49 89 -7 9 -22 37 -123 225 -22 41 -55 101 -74 133 -19 32 -33 63 -30
70 2 7 30 25 62 41 31 15 59 35 62 42 7 18 -15 44 -36 43 -9 -1 -74 -37 -146
-80z m247 -550 l60 -116 -58 -87 c-36 -55 -63 -86 -73 -84 -8 2 -24 18 -34 36
-28 49 -36 228 -13 297 19 54 34 77 48 73 5 -2 37 -56 70 -119z"/>
</g>
</svg>
