<?xml version="1.0" standalone="no"?>
<!DOCTYPE svg PUBLIC "-//W3C//DTD SVG 20010904//EN"
 "http://www.w3.org/TR/2001/REC-SVG-20010904/DTD/svg10.dtd">
<svg version="1.0" xmlns="http://www.w3.org/2000/svg"
 width="46.000000pt" height="100.000000pt" viewBox="0 0 46.000000 100.000000"
 preserveAspectRatio="xMidYMid meet">
<metadata>
Created by potrace 1.16, written by Peter Selinger 2001-2019
</metadata>
<g transform="translate(0.000000,100.000000) scale(0.100000,-0.100000)"
fill="#000000" stroke="none">
<path d="M195 949 c-16 -11 -60 -38 -97 -60 -46 -27 -68 -46 -68 -59 0 -27 21
-30 55 -9 17 10 35 15 41 11 15 -11 84 -140 84 -159 0 -9 -10 -37 -22 -62 -33
-66 -33 -217 0 -279 12 -23 22 -46 22 -50 0 -5 -32 -50 -71 -101 -73 -97 -84
-133 -43 -139 17 -2 33 16 83 93 34 53 66 93 71 90 6 -4 37 -46 70 -95 68
-101 78 -110 96 -86 17 24 11 37 -63 137 -59 81 -75 120 -54 134 5 3 30 33 55
66 35 46 45 67 40 82 -4 12 -53 105 -110 208 -57 102 -104 191 -104 197 0 6
18 21 40 32 42 21 54 53 24 64 -20 8 -14 9 -49 -15z m100 -414 c19 -41 35 -77
35 -80 0 -3 -16 -31 -36 -63 l-36 -56 -19 23 c-33 40 -22 251 12 251 5 0 24
-34 44 -75z"/>
</g>
</svg>
