<?xml version="1.0" standalone="no"?>
<!DOCTYPE svg PUBLIC "-//W3C//DTD SVG 20010904//EN"
 "http://www.w3.org/TR/2001/REC-SVG-20010904/DTD/svg10.dtd">
<svg version="1.0" xmlns="http://www.w3.org/2000/svg"
 width="274.000000pt" height="590.000000pt" viewBox="0 0 274.000000 590.000000"
 preserveAspectRatio="xMidYMid meet">
<metadata>
Created by potrace 1.16, written by Peter Selinger 2001-2019
</metadata>
<g transform="translate(0.000000,590.000000) scale(0.500000,-0.500000)"
fill="#000000" stroke="none">
<path d="M269 1138 c-2 -2 -9 -6 -15 -10 -6 -4 -15 -10 -20 -12 -4 -2 -12 -7
-17 -11 -4 -3 -11 -7 -15 -9 -4 -1 -12 -7 -19 -11 -7 -5 -18 -11 -24 -15 -7
-3 -17 -9 -22 -12 -5 -3 -9 -6 -10 -6 -1 0 -8 -4 -17 -9 -8 -6 -18 -12 -23
-14 -4 -1 -12 -6 -17 -10 -5 -3 -13 -8 -17 -11 -21 -10 -19 -29 5 -47 8 -7 31
2 63 24 32 22 26 28 84 -78 10 -19 27 -49 38 -68 25 -45 25 -47 1 -85 -8 -12
-15 -25 -17 -29 -1 -5 -5 -12 -7 -17 -3 -5 -6 -17 -8 -27 -7 -37 -10 -49 -13
-55 -7 -13 -5 -136 3 -174 5 -25 26 -69 43 -93 17 -23 16 -28 -3 -50 -5 -5
-12 -14 -15 -19 -3 -5 -9 -14 -14 -20 -5 -6 -12 -16 -16 -22 -4 -6 -19 -26
-32 -44 -14 -18 -28 -37 -31 -41 -3 -4 -14 -20 -25 -34 -32 -43 -32 -42 -7
-65 24 -21 36 -19 51 10 3 5 6 10 8 12 2 1 5 6 7 11 3 4 21 32 42 62 21 30 45
65 54 78 35 51 32 50 55 17 142 -205 144 -208 162 -208 32 0 28 47 -8 97 -33
46 -104 142 -119 161 -18 24 -19 28 -13 39 8 15 124 170 133 178 6 5 5 16 -2
28 -55 100 -106 190 -149 269 -29 53 -67 122 -84 153 -30 55 -34 64 -28 69 1
1 15 9 32 17 16 8 33 18 38 21 5 3 11 6 12 6 1 0 5 3 10 6 21 18 -10 61 -34
48z m52 -438 c18 -33 55 -103 68 -128 5 -10 10 -20 12 -22 5 -6 2 -17 -7 -27
-4 -6 -12 -17 -17 -25 -5 -8 -12 -19 -17 -25 -9 -12 -17 -25 -23 -38 -3 -5 -6
-10 -8 -10 -2 -1 -6 -5 -9 -10 -8 -11 -13 -14 -19 -11 -13 7 -39 55 -39 72 0
5 -2 17 -5 26 -9 30 -6 130 5 153 4 9 9 22 11 28 5 18 21 43 29 43 3 0 8 -7
19 -26z"/>
</g>
</svg>
