<?xml version="1.0" standalone="no"?>
<!DOCTYPE svg PUBLIC "-//W3C//DTD SVG 20010904//EN"
 "http://www.w3.org/TR/2001/REC-SVG-20010904/DTD/svg10.dtd">
<svg version="1.0" xmlns="http://www.w3.org/2000/svg"
 width="70.000000pt" height="148.000000pt" viewBox="0 0 70.000000 148.000000"
 preserveAspectRatio="xMidYMid meet">
<metadata>
Created by potrace 1.16, written by Peter Selinger 2001-2019
</metadata>
<g transform="translate(0.000000,148.000000) scale(0.100000,-0.100000)"
fill="#000000" stroke="none">
<path d="M452 1350 c-40 -39 -79 -82 -88 -95 -9 -14 -22 -25 -29 -25 -7 0 -46
26 -86 58 -41 32 -81 62 -89 65 -8 4 -30 16 -49 28 -58 35 -62 26 -59 -128 l3
-138 27 -3 c35 -4 42 19 33 109 -4 38 -3 69 1 69 5 0 25 -10 45 -23 98 -61
139 -91 139 -103 0 -7 -14 -35 -31 -63 -52 -84 -79 -209 -79 -371 0 -128 2
-144 29 -217 43 -116 79 -189 117 -239 19 -24 34 -48 34 -52 0 -10 66 -72 128
-120 56 -44 94 -57 122 -42 33 18 20 40 -50 82 -80 49 -108 75 -172 161 -45
61 -56 97 -30 97 21 0 102 120 113 166 6 27 18 70 25 96 16 53 19 220 5 264
-5 16 -12 41 -15 55 -3 14 -28 57 -56 95 -27 38 -50 72 -50 76 0 15 141 177
160 183 11 4 28 17 36 31 13 19 14 27 4 39 -27 33 -64 18 -138 -55z m-54 -324
c18 -30 32 -64 32 -77 0 -12 5 -38 12 -56 10 -26 10 -38 0 -53 -7 -12 -8 -21
-2 -25 28 -18 2 -175 -43 -260 -6 -11 -17 -32 -24 -46 -7 -14 -22 -34 -32 -43
-19 -17 -20 -17 -36 8 -32 49 -57 174 -51 256 9 111 27 234 37 245 4 6 10 22
13 37 6 36 35 78 50 72 6 -2 26 -29 44 -58z"/>
</g>
</svg>
