<?xml version="1.0" standalone="no"?>
<!DOCTYPE svg PUBLIC "-//W3C//DTD SVG 20010904//EN"
 "http://www.w3.org/TR/2001/REC-SVG-20010904/DTD/svg10.dtd">
<svg version="1.0" xmlns="http://www.w3.org/2000/svg"
 width="47.000000pt" height="100.000000pt" viewBox="0 0 47.000000 100.000000"
 preserveAspectRatio="xMidYMid meet">
<metadata>
Created by potrace 1.16, written by Peter Selinger 2001-2019
</metadata>
<g transform="translate(0.000000,100.000000) scale(0.100000,-0.100000)"
fill="#000000" stroke="none">
<path d="M293 905 c-34 -36 -66 -65 -72 -65 -5 0 -28 16 -52 36 -51 42 -116
77 -129 69 -17 -10 -12 -181 5 -195 24 -20 35 -2 35 56 0 33 4 54 11 54 15 0
111 -71 107 -79 -2 -3 -15 -31 -30 -61 -37 -74 -57 -223 -41 -309 26 -138 140
-314 237 -366 72 -39 93 17 22 59 -46 27 -136 122 -136 143 0 7 16 33 35 59
46 60 67 135 66 237 0 100 -10 134 -52 187 -30 37 -31 42 -18 66 7 15 40 50
71 79 32 28 58 57 58 63 0 11 -31 32 -47 32 -4 0 -36 -29 -70 -65z m-22 -230
c14 -32 21 -70 22 -133 2 -76 -2 -95 -27 -155 -33 -78 -54 -85 -72 -22 -22 72
-13 254 16 330 15 38 39 30 61 -20z"/>
</g>
</svg>
