<?xml version="1.0" standalone="no"?>
<!DOCTYPE svg PUBLIC "-//W3C//DTD SVG 20010904//EN"
 "http://www.w3.org/TR/2001/REC-SVG-20010904/DTD/svg10.dtd">
<svg version="1.0" xmlns="http://www.w3.org/2000/svg"
 width="282.000000pt" height="590.000000pt" viewBox="0 0 282.000000 590.000000"
 preserveAspectRatio="xMidYMid meet">
<metadata>
Created by potrace 1.16, written by Peter Selinger 2001-2019
</metadata>
<g transform="translate(0.000000,590.000000) scale(0.500000,-0.500000)"
fill="#000000" stroke="none">
<path d="M424 1135 c-15 -9 -91 -81 -97 -92 -1 -4 -7 -10 -13 -14 -5 -4 -13
-11 -16 -15 -12 -18 -14 -20 -21 -20 -12 0 -35 18 -65 49 -49 51 -104 56 -104
10 0 -12 19 -40 31 -45 12 -5 38 -24 41 -30 2 -2 9 -8 17 -11 47 -24 54 -34
36 -57 -6 -8 -14 -20 -17 -27 -21 -39 -28 -55 -29 -64 -1 -5 -2 -12 -3 -13 -1
-2 -4 -12 -7 -22 -3 -11 -6 -23 -8 -29 -5 -18 -11 -61 -11 -83 0 -15 -1 -24
-3 -29 -5 -11 -5 -142 0 -155 1 -5 4 -14 5 -21 3 -16 23 -71 29 -81 3 -4 7
-14 9 -22 2 -8 6 -19 8 -25 10 -18 9 -19 -3 -32 -7 -7 -16 -14 -25 -18 -12 -6
-19 -11 -33 -26 -20 -21 -28 -27 -41 -32 -5 -3 -13 -8 -17 -11 -5 -4 -11 -9
-15 -12 -33 -19 -29 -55 5 -62 21 -4 31 1 59 27 21 19 59 48 73 56 8 5 18 12
24 16 5 4 10 7 11 7 6 0 12 -7 28 -30 4 -5 10 -13 15 -18 4 -5 11 -16 14 -23
5 -10 10 -17 16 -22 4 -4 12 -12 16 -18 4 -7 13 -15 20 -20 7 -5 14 -10 15
-12 2 -2 11 -9 21 -15 9 -7 24 -18 33 -26 10 -9 19 -15 24 -16 4 -1 11 -2 17
-4 31 -7 53 3 53 25 0 16 -9 24 -45 41 -4 2 -14 8 -21 13 -17 12 -30 21 -45
29 -6 4 -13 9 -16 12 -2 3 -10 11 -17 19 -8 8 -18 21 -24 29 -6 8 -14 19 -18
23 -15 16 -34 43 -35 50 -2 8 0 12 14 29 6 7 14 19 19 26 4 6 12 16 17 22 26
29 35 44 42 67 3 9 7 19 9 23 3 5 5 12 6 26 1 11 3 24 6 30 2 7 4 14 4 16 0 2
3 13 6 23 11 33 8 172 -5 199 -3 6 -5 14 -5 17 0 21 -18 60 -37 80 -6 6 -12
14 -14 17 -2 4 -8 12 -13 20 -25 35 -25 41 -3 66 6 6 14 16 18 22 4 6 11 15
15 19 4 4 14 17 23 28 25 32 34 41 53 49 25 10 34 24 31 47 -2 21 -35 33 -57
20z m-127 -281 c5 -5 11 -13 14 -18 3 -5 11 -17 17 -26 18 -27 24 -43 24 -69
0 -12 1 -16 6 -26 8 -16 8 -29 1 -42 -3 -5 -5 -11 -5 -14 0 -3 2 -9 5 -15 9
-17 6 -82 -6 -116 -2 -4 -4 -14 -5 -22 -2 -9 -4 -16 -9 -23 -4 -6 -8 -14 -9
-21 -1 -6 -3 -12 -4 -14 -2 -2 -7 -7 -11 -13 -5 -5 -9 -14 -12 -23 -3 -10 -6
-14 -11 -18 -4 -2 -9 -8 -12 -13 -15 -31 -50 16 -58 80 -1 8 -3 17 -6 21 -11
19 -13 100 -2 122 5 11 5 20 1 32 -5 13 -4 25 2 35 5 8 6 13 7 36 4 57 4 59
14 73 9 13 15 27 22 56 3 10 22 31 27 29 1 -1 6 -5 10 -11z"/>
</g>
</svg>
