<?xml version="1.0" standalone="no"?>
<!DOCTYPE svg PUBLIC "-//W3C//DTD SVG 20010904//EN"
 "http://www.w3.org/TR/2001/REC-SVG-20010904/DTD/svg10.dtd">
<svg version="1.0" xmlns="http://www.w3.org/2000/svg"
 width="47.000000pt" height="100.000000pt" viewBox="0 0 47.000000 100.000000"
 preserveAspectRatio="xMidYMid meet">
<metadata>
Created by potrace 1.16, written by Peter Selinger 2001-2019
</metadata>
<g transform="translate(0.000000,100.000000) scale(0.100000,-0.100000)"
fill="#000000" stroke="none">
<path d="M293 904 l-63 -65 -28 19 c-15 11 -36 29 -46 41 -23 25 -49 27 -66 6
-11 -13 -9 -20 11 -41 13 -14 35 -32 49 -40 55 -30 55 -27 21 -95 -53 -111
-66 -268 -30 -367 37 -100 38 -94 -35 -147 -50 -35 -66 -53 -66 -71 0 -38 38
-30 100 21 30 25 58 45 62 45 4 0 22 -23 40 -50 40 -60 132 -132 162 -128 13
2 22 12 24 24 2 16 -8 28 -41 47 -49 29 -137 121 -137 144 0 8 16 35 35 60 45
59 67 134 67 232 0 92 -14 142 -55 194 -27 34 -28 41 -17 62 7 14 39 50 72 81
32 31 58 60 58 65 0 9 -32 29 -47 29 -4 0 -36 -30 -70 -66z m-24 -226 c25 -57
35 -167 20 -221 -18 -69 -50 -137 -65 -137 -29 0 -39 44 -39 165 0 86 5 136
18 178 21 69 41 74 66 15z"/>
</g>
</svg>
