<?xml version="1.0" standalone="no"?>
<!DOCTYPE svg PUBLIC "-//W3C//DTD SVG 20010904//EN"
 "http://www.w3.org/TR/2001/REC-SVG-20010904/DTD/svg10.dtd">
<svg version="1.0" xmlns="http://www.w3.org/2000/svg"
 width="100.000000pt" height="148.000000pt" viewBox="0 0 100.000000 148.000000"
 preserveAspectRatio="xMidYMid meet">
<metadata>
Created by potrace 1.16, written by Peter Selinger 2001-2019
</metadata>
<g transform="translate(0.000000,148.000000) scale(0.100000,-0.100000)"
fill="#000000" stroke="none">
<path d="M327 1359 c-31 -34 -57 -65 -57 -69 0 -5 -13 -21 -30 -37 -51 -48
-42 -76 51 -156 78 -68 95 -97 69 -123 -15 -15 -23 -172 -12 -239 10 -61 50
-165 63 -165 4 0 16 -15 27 -34 l20 -34 -26 -39 c-28 -42 -99 -124 -118 -135
-13 -9 -182 116 -208 154 -13 18 -20 21 -34 12 -29 -18 -25 -48 14 -115 21
-35 66 -117 99 -183 34 -65 69 -122 78 -127 31 -18 62 4 172 120 160 169 140
160 211 93 32 -31 75 -68 94 -82 19 -14 50 -39 70 -57 27 -24 39 -29 53 -22
36 21 18 47 -102 143 -149 121 -148 119 -127 151 10 15 24 29 31 32 9 3 59
-36 130 -102 64 -58 121 -105 127 -103 6 2 15 14 19 26 8 22 -22 53 -214 213
l-28 24 29 70 c49 115 66 220 52 322 -6 47 -20 103 -31 124 -25 49 -24 64 5
102 35 46 65 111 63 134 0 11 5 39 12 61 17 49 1 102 -30 102 -34 0 -153 -64
-197 -107 -24 -24 -48 -43 -53 -43 -5 0 -19 12 -32 28 -26 32 -120 122 -127
122 -3 0 -31 -28 -63 -61z m159 -143 c-9 -14 -22 -26 -29 -26 -7 0 -35 22 -61
49 l-49 49 28 28 27 27 51 -51 c50 -50 50 -51 33 -76z m281 85 c-6 -50 -56
-161 -72 -161 -13 0 -85 82 -85 97 0 24 113 101 149 103 10 0 12 -10 8 -39z
m-390 -114 c39 -37 45 -48 39 -70 -3 -15 -12 -27 -19 -27 -24 0 -107 81 -107
104 0 50 29 48 87 -7z m234 -37 c31 -34 42 -53 35 -59 -6 -5 -59 -41 -118 -79
-76 -51 -108 -67 -112 -57 -5 14 9 65 27 100 6 11 17 34 25 50 25 51 62 95 80
95 9 0 38 -23 63 -50z m93 -146 c14 -33 16 -51 9 -63 -8 -13 -284 -158 -304
-160 -12 -2 -19 47 -10 70 5 15 59 57 142 110 74 48 136 87 139 88 3 1 14 -20
24 -45z m22 -146 c11 -18 5 -89 -9 -102 -7 -7 -28 -18 -47 -26 -19 -8 -74 -33
-122 -57 -48 -24 -92 -43 -98 -43 -6 0 -15 12 -21 27 -23 61 -23 61 126 138
152 78 160 81 171 63z m-30 -192 c7 -19 -95 -226 -112 -226 -15 0 -94 109 -94
130 0 9 36 34 93 61 107 54 106 53 113 35z m-175 -265 l24 -19 -60 -64 c-33
-34 -64 -66 -70 -70 -5 -3 -23 4 -39 17 l-29 23 59 65 c33 36 66 66 75 66 9 1
27 -8 40 -18z m-263 -139 c-5 -28 -27 -24 -47 9 -11 18 -18 36 -15 41 8 13 65
-32 62 -50z m86 -54 c8 -13 5 -23 -14 -43 -30 -32 -47 -32 -62 0 -22 48 48 88
76 43z"/>
</g>
</svg>
