<?xml version="1.0" standalone="no"?>
<!DOCTYPE svg PUBLIC "-//W3C//DTD SVG 20010904//EN"
 "http://www.w3.org/TR/2001/REC-SVG-20010904/DTD/svg10.dtd">
<svg version="1.0" xmlns="http://www.w3.org/2000/svg"
 width="68.000000pt" height="100.000000pt" viewBox="0 0 68.000000 100.000000"
 preserveAspectRatio="xMidYMid meet">
<metadata>
Created by potrace 1.16, written by Peter Selinger 2001-2019
</metadata>
<g transform="translate(0.000000,100.000000) scale(0.100000,-0.100000)"
fill="#000000" stroke="none">
<path d="M196 891 c-31 -37 -56 -76 -56 -86 0 -10 25 -41 55 -69 55 -50 56
-52 45 -86 -24 -81 -5 -210 39 -266 11 -15 21 -34 21 -44 0 -20 -76 -110 -94
-110 -7 0 -43 25 -80 56 -65 54 -96 63 -96 29 0 -13 58 -122 124 -232 14 -24
33 -43 42 -43 9 0 57 41 107 90 49 50 92 90 94 90 2 0 40 -31 84 -70 81 -70
112 -83 123 -55 5 14 -56 71 -145 138 -32 23 -36 39 -14 57 12 10 28 0 96 -59
65 -58 84 -70 95 -60 26 21 15 38 -63 100 -43 34 -79 65 -81 70 -2 4 6 37 17
73 32 105 36 156 15 242 l-18 77 29 50 c22 39 28 64 29 111 1 55 -1 61 -21 64
-26 4 -110 -38 -137 -67 -11 -12 -24 -21 -30 -21 -7 0 -32 20 -56 45 -24 25
-49 45 -56 45 -6 0 -37 -31 -68 -69z m310 -55 c-23 -59 -33 -64 -64 -33 -22
23 -24 28 -11 43 23 28 72 55 83 44 6 -6 2 -26 -8 -54z m-99 -58 c13 -12 23
-27 23 -33 0 -7 -27 -29 -59 -49 -87 -53 -98 -48 -60 27 25 48 48 77 62 77 6
0 21 -10 34 -22z m73 -123 c0 -19 -17 -32 -91 -70 -50 -26 -97 -44 -105 -41
-32 12 -10 39 78 96 96 62 118 64 118 15z m14 -91 c11 -29 -16 -56 -90 -90
-92 -42 -114 -43 -114 -9 0 22 12 31 93 70 50 24 95 44 98 45 4 0 10 -7 13
-16z m-30 -136 c-15 -49 -55 -118 -68 -118 -18 0 -60 66 -51 80 8 13 95 59
113 60 9 0 11 -7 6 -22z m-106 -166 c5 -17 -66 -84 -86 -80 -27 5 -24 25 12
63 34 36 65 43 74 17z"/>
</g>
</svg>
