<?xml version="1.0" standalone="no"?>
<!DOCTYPE svg PUBLIC "-//W3C//DTD SVG 20010904//EN"
 "http://www.w3.org/TR/2001/REC-SVG-20010904/DTD/svg10.dtd">
<svg version="1.0" xmlns="http://www.w3.org/2000/svg"
 width="126.000000pt" height="148.000000pt" viewBox="0 0 126.000000 148.000000"
 preserveAspectRatio="xMidYMid meet">
<metadata>
Created by potrace 1.16, written by Peter Selinger 2001-2019
</metadata>
<g transform="translate(0.000000,148.000000) scale(0.100000,-0.100000)"
fill="#000000" stroke="none">
<path d="M597 1413 c-4 -3 -7 -40 -7 -81 0 -67 4 -81 41 -152 l41 -79 -11
-101 c-5 -56 -12 -105 -15 -107 -3 -3 -92 -35 -198 -70 -106 -35 -221 -76
-256 -90 -34 -14 -65 -24 -68 -21 -3 3 -6 158 -7 344 l-2 339 -30 0 -30 0 0
-670 0 -670 30 0 30 0 3 295 2 296 225 73 c123 40 236 80 252 88 25 13 29 12
40 -3 7 -10 13 -40 13 -66 0 -35 10 -68 36 -121 19 -39 42 -80 51 -89 8 -9 13
-21 12 -27 -7 -17 -150 -171 -160 -171 -14 0 -168 129 -180 151 -13 24 -31 24
-53 0 -17 -19 -16 -22 27 -93 24 -40 72 -128 107 -195 84 -164 76 -165 259 17
l141 140 43 -43 c23 -24 80 -77 126 -117 67 -59 87 -71 100 -63 44 28 23 55
-151 195 -49 39 -88 74 -88 78 0 5 10 21 23 37 12 15 31 46 41 68 10 22 25 51
32 65 57 105 77 202 68 325 -4 58 -13 100 -25 119 l-18 29 70 65 c38 35 74 72
79 81 9 18 -14 50 -107 149 -24 25 -43 49 -43 53 0 5 -9 13 -19 19 -17 8 -31
-1 -96 -63 -43 -39 -81 -73 -85 -75 -4 -2 -20 11 -36 28 -16 17 -49 43 -74 58
-25 14 -54 34 -64 44 -20 18 -57 24 -69 11z m134 -129 c32 -25 59 -49 59 -54
0 -14 -63 -80 -76 -80 -12 0 -74 130 -74 153 0 16 9 27 22 27 5 0 36 -21 69
-46z m297 23 c25 -26 22 -30 -40 -81 -46 -37 -47 -37 -72 -21 -14 10 -26 22
-26 29 0 13 90 95 106 96 6 0 20 -10 32 -23z m72 -92 c18 -22 3 -51 -46 -91
-43 -36 -45 -36 -64 -19 -29 26 -25 38 28 84 52 44 64 48 82 26z m-224 -40
c15 -23 12 -45 -6 -45 -5 0 -37 -18 -72 -39 -65 -42 -85 -44 -67 -8 16 31 101
117 116 117 7 0 20 -11 29 -25z m66 -89 c15 -35 7 -48 -48 -76 -27 -13 -75
-42 -107 -63 -65 -43 -91 -43 -81 0 3 16 13 33 21 38 67 47 190 124 196 125 4
0 12 -11 19 -24z m88 -126 c0 -21 -107 -104 -165 -127 -11 -4 -39 -21 -62 -36
-23 -16 -57 -30 -75 -30 -30 -2 -33 1 -36 30 -3 35 -15 26 138 103 49 25 126
75 149 98 13 13 17 11 33 -8 10 -12 18 -26 18 -30z m8 -141 c4 -46 -11 -58
-145 -119 -145 -64 -158 -68 -173 -40 -14 26 -8 34 44 50 22 7 60 26 85 41 25
16 50 29 55 29 6 0 34 18 61 40 28 22 55 38 60 37 6 -2 11 -19 13 -38z m-38
-157 c0 -11 -11 -24 -25 -30 -14 -7 -31 -17 -38 -22 -32 -28 -120 -90 -128
-90 -14 0 -31 40 -24 59 6 19 164 99 198 100 10 1 17 -6 17 -17z m-60 -132 c0
-18 -52 -90 -65 -90 -16 0 -50 38 -41 47 13 13 81 51 94 52 6 1 12 -4 12 -9z
m-123 -112 c13 -12 23 -26 23 -33 0 -6 -30 -40 -67 -77 -71 -69 -89 -74 -122
-34 -12 14 -5 26 54 91 37 41 72 75 78 75 6 0 21 -10 34 -22z m-257 -137 c0
-9 -22 -31 -31 -31 -9 0 -49 64 -49 79 0 6 18 -1 40 -15 22 -15 40 -30 40 -33z
m75 -61 c18 -20 18 -21 -10 -50 -35 -36 -40 -37 -61 -5 -16 25 -16 27 6 50 28
30 41 31 65 5z"/>
</g>
</svg>
