<?xml version="1.0" standalone="no"?>
<!DOCTYPE svg PUBLIC "-//W3C//DTD SVG 20010904//EN"
 "http://www.w3.org/TR/2001/REC-SVG-20010904/DTD/svg10.dtd">
<svg version="1.0" xmlns="http://www.w3.org/2000/svg"
 width="85.000000pt" height="100.000000pt" viewBox="0 0 85.000000 100.000000"
 preserveAspectRatio="xMidYMid meet">
<metadata>
Created by potrace 1.16, written by Peter Selinger 2001-2019
</metadata>
<g transform="translate(0.000000,100.000000) scale(0.100000,-0.100000)"
fill="#000000" stroke="none">
<path d="M396 920 c-8 -50 0 -83 32 -138 21 -37 24 -51 18 -97 -3 -29 -9 -60
-12 -69 -3 -9 -37 -25 -78 -37 -39 -11 -113 -37 -165 -56 -75 -28 -95 -32
-102 -21 -5 7 -6 94 -3 194 8 206 3 254 -26 254 -12 0 -22 -9 -25 -22 -3 -13
-4 -219 -3 -458 l3 -435 25 0 25 0 5 200 5 200 150 52 c83 28 158 52 167 52
12 1 19 -13 27 -51 6 -28 23 -73 38 -100 26 -47 26 -48 7 -70 -44 -54 -79 -88
-88 -88 -6 0 -39 25 -74 56 -57 51 -92 64 -92 35 0 -5 32 -71 71 -145 50 -95
77 -136 89 -136 10 0 60 40 111 90 52 49 98 90 103 90 4 0 41 -31 80 -70 69
-67 97 -82 111 -60 13 22 -9 50 -85 110 -44 35 -80 65 -80 68 0 3 20 44 44 91
60 118 72 178 56 278 l-12 78 29 25 c17 14 38 37 47 52 l17 26 -61 71 c-33 39
-66 71 -73 71 -6 0 -33 -21 -59 -47 -36 -35 -52 -45 -62 -38 -7 6 -35 27 -62
47 -66 51 -90 50 -98 -2z m95 -51 c16 -11 29 -29 29 -38 0 -22 -25 -45 -40
-36 -17 11 -42 66 -36 81 7 19 13 18 47 -7z m144 -149 c0 -21 -136 -103 -149
-90 -16 16 5 41 65 78 56 33 84 37 84 12z m50 -61 c4 -6 -2 -21 -14 -33 -32
-34 -169 -109 -186 -102 -31 11 -13 35 53 72 37 20 78 45 91 56 27 20 47 23
56 7z m10 -99 c14 -23 -26 -58 -100 -89 -73 -30 -111 -34 -103 -10 3 9 172
106 190 108 4 1 10 -4 13 -9z m-35 -120 c0 -15 -92 -81 -109 -78 -33 7 -17 43
29 65 48 24 80 29 80 13z m-103 -166 c4 -11 -10 -31 -40 -62 -43 -43 -48 -45
-63 -30 -15 15 -13 20 26 62 45 48 66 57 77 30z"/>
</g>
</svg>
