<?xml version="1.0" standalone="no"?>
<!DOCTYPE svg PUBLIC "-//W3C//DTD SVG 20010904//EN"
 "http://www.w3.org/TR/2001/REC-SVG-20010904/DTD/svg10.dtd">
<svg version="1.0" xmlns="http://www.w3.org/2000/svg"
 width="370.000000pt" height="590.000000pt" viewBox="0 0 370.000000 590.000000"
 preserveAspectRatio="xMidYMid meet">
<metadata>
Created by potrace 1.16, written by Peter Selinger 2001-2019
</metadata>
<g transform="translate(0.000000,590.000000) scale(0.500000,-0.500000)"
fill="#000000" stroke="none">
<path d="M44 1134 c-5 -5 -5 -5 -3 -79 2 -159 4 -630 1 -730 -6 -301 -8 -279
20 -279 31 0 29 -7 26 117 -3 145 -4 130 7 140 8 8 9 9 18 9 16 0 23 3 32 13
7 9 8 9 18 9 14 0 27 5 35 13 16 16 38 2 43 -28 1 -6 4 -11 12 -18 5 -6 15
-16 21 -23 14 -16 18 -20 23 -24 3 -2 6 -5 7 -7 2 -2 6 -7 10 -10 5 -3 10 -8
12 -12 3 -5 7 -8 16 -11 10 -3 13 -6 17 -12 3 -5 9 -10 15 -12 12 -6 25 -17
31 -26 4 -6 7 -8 15 -11 7 -2 13 -6 17 -10 27 -30 89 3 79 41 -2 6 -6 12 -13
19 -10 9 -15 19 -15 29 0 3 -10 13 -33 36 -5 4 -13 8 -23 12 -10 3 -19 7 -22
10 -3 2 -12 7 -20 9 -8 3 -17 7 -20 9 -3 2 -8 5 -13 7 -4 1 -16 11 -27 22 -11
11 -26 26 -35 34 -18 16 -20 23 -9 29 4 1 15 11 25 21 10 10 21 20 24 22 3 2
7 9 10 15 4 12 15 23 34 39 4 3 9 8 10 12 2 4 5 10 8 14 3 5 5 10 5 15 0 11 4
19 13 24 7 4 15 23 15 36 0 7 4 16 6 16 4 0 8 14 8 25 0 6 1 14 3 18 3 7 4 19
3 124 0 145 -1 141 20 123 10 -9 12 -12 16 -24 3 -10 7 -18 12 -24 4 -4 9 -13
11 -18 2 -6 6 -12 10 -16 6 -4 7 -7 9 -18 2 -8 4 -16 7 -20 3 -3 8 -14 10 -25
4 -14 6 -19 11 -23 6 -5 14 -20 14 -26 0 -2 4 -11 9 -20 7 -16 8 -18 9 -36 0
-24 1 -26 7 -34 6 -7 6 -7 6 -34 0 -44 10 -55 49 -55 36 0 52 17 35 35 -10 10
-11 15 -13 36 -1 17 -2 19 -6 23 -8 6 -10 11 -10 28 0 19 -6 43 -13 53 -3 4
-5 9 -5 12 0 10 -4 19 -13 28 -10 10 -15 22 -15 34 0 8 -5 20 -8 20 -2 0 -6 8
-12 24 -2 7 -6 15 -9 19 -3 3 -5 7 -5 10 0 7 -10 24 -17 30 -4 3 -9 9 -10 13
-2 4 -6 10 -10 14 -4 4 -9 12 -11 17 -3 6 -9 14 -14 19 -5 5 -11 11 -12 13 -2
2 -9 9 -15 14 -6 6 -18 17 -26 25 -36 37 -41 42 -50 46 -5 2 -14 8 -19 12 -9
8 -9 8 -37 8 -32 0 -27 2 -54 -24 -10 -10 -11 -10 -22 -10 -6 0 -13 -1 -16 -2
-3 -1 -13 -3 -23 -4 -15 -2 -17 -2 -24 -9 -7 -6 -9 -7 -20 -7 -14 0 -33 -6
-40 -13 -4 -3 -9 -5 -17 -7 -7 -1 -15 -3 -18 -4 -16 -7 -17 -2 -16 71 2 68 3
62 -18 78 -10 7 -36 8 -43 1z m304 -162 c2 -5 5 -10 8 -11 4 -3 12 -26 12 -36
0 -6 3 -12 9 -20 10 -11 7 -49 -4 -61 -17 -17 -38 -38 -40 -38 -3 0 -26 -11
-32 -15 -3 -2 -13 -7 -21 -10 -9 -3 -17 -8 -20 -11 -16 -17 -27 -1 -19 26 2 6
3 15 3 19 0 13 9 47 15 55 3 4 6 11 7 16 1 4 5 13 9 19 4 6 8 16 10 21 2 5 8
13 13 18 5 5 10 10 11 12 19 22 34 28 39 16z m-108 -9 c0 -6 -3 -12 -8 -18 -3
-2 -7 -11 -10 -19 -3 -8 -8 -17 -10 -20 -3 -4 -5 -10 -6 -20 -1 -8 -2 -16 -3
-17 0 -2 -2 -7 -3 -13 -1 -7 -4 -13 -8 -17 -4 -4 -7 -11 -10 -21 -3 -9 -7 -18
-10 -22 -5 -5 -6 -8 -6 -16 0 -38 -17 -52 -48 -38 -21 9 -32 58 -19 83 3 5 4
14 5 56 1 63 2 65 48 65 17 0 18 0 25 7 17 14 63 22 63 10z m139 -182 c6 -6 4
-55 -2 -61 -6 -6 -9 -14 -9 -23 0 -8 -7 -28 -11 -31 -2 -2 -5 -7 -8 -12 -6
-14 -21 -27 -41 -35 -12 -5 -19 -9 -23 -14 -3 -4 -8 -8 -12 -9 -4 -1 -9 -5
-11 -7 -2 -3 -9 -7 -15 -10 -7 -2 -15 -6 -19 -8 -12 -7 -12 -5 -12 60 1 74 10
92 45 96 7 1 14 3 18 6 6 4 10 5 18 5 15 0 23 4 31 14 4 5 9 9 16 11 5 2 13 7
18 12 9 10 12 11 17 6z m-253 -80 c25 -5 27 -8 25 -38 -1 -11 -2 -43 -3 -70
-1 -62 0 -58 -27 -58 -29 0 -27 -6 -27 82 0 94 -1 91 32 84z m180 -137 c5 -9
-2 -34 -11 -42 -3 -3 -7 -7 -10 -10 -34 -38 -53 -53 -59 -46 -21 23 -10 58 22
72 5 3 12 7 16 11 13 13 38 22 42 15z m-165 -70 c4 -2 7 -9 7 -15 0 -3 1 -9 3
-12 8 -13 15 -29 16 -34 1 -2 4 -7 6 -9 11 -10 5 -23 -11 -25 -16 -2 -31 -7
-34 -10 -4 -4 -12 -8 -20 -10 -12 -2 -13 0 -14 46 0 45 0 48 12 52 4 2 10 7
14 11 7 8 15 10 21 6z"/>
</g>
</svg>
