<?xml version="1.0" standalone="no"?>
<!DOCTYPE svg PUBLIC "-//W3C//DTD SVG 20010904//EN"
 "http://www.w3.org/TR/2001/REC-SVG-20010904/DTD/svg10.dtd">
<svg version="1.0" xmlns="http://www.w3.org/2000/svg"
 width="63.000000pt" height="100.000000pt" viewBox="0 0 63.000000 100.000000"
 preserveAspectRatio="xMidYMid meet">
<metadata>
Created by potrace 1.16, written by Peter Selinger 2001-2019
</metadata>
<g transform="translate(0.000000,100.000000) scale(0.100000,-0.100000)"
fill="#000000" stroke="none">
<path d="M35 958 c-3 -7 -4 -218 -3 -468 3 -447 3 -455 23 -455 19 0 20 8 23
107 l3 108 39 20 c54 27 73 25 94 -11 10 -16 52 -57 93 -90 77 -61 106 -70
126 -38 12 20 -28 83 -63 99 -40 18 -119 74 -125 88 -3 8 16 37 41 65 77 85
94 132 94 264 0 66 4 114 10 118 20 12 100 -182 115 -277 5 -29 11 -39 31 -44
48 -12 54 8 29 91 -41 133 -91 221 -166 296 -54 54 -75 69 -98 69 -16 0 -32
-4 -35 -9 -7 -10 -135 -51 -160 -51 -12 0 -16 14 -18 63 -3 56 -5 62 -26 65
-12 2 -24 -3 -27 -10z m275 -157 c12 -23 13 -71 2 -87 -10 -15 -74 -54 -89
-54 -17 0 -16 28 2 81 26 73 63 100 85 60z m-116 -3 c-4 -6 -20 -48 -34 -92
-21 -63 -31 -81 -46 -81 -17 0 -19 9 -22 73 -3 78 5 98 41 105 46 9 68 7 61
-5z m126 -168 c0 -41 -29 -89 -69 -114 -22 -14 -45 -26 -50 -26 -13 0 -20 37
-14 74 4 28 13 37 57 58 65 32 76 33 76 8z m-195 -110 c0 -58 -2 -65 -20 -65
-17 0 -20 8 -23 54 -4 65 2 84 25 79 15 -3 18 -14 18 -68z m15 -141 c15 -34 7
-47 -30 -51 -27 -3 -36 17 -26 58 9 35 41 31 56 -7z"/>
</g>
</svg>
