<?xml version="1.0" standalone="no"?>
<!DOCTYPE svg PUBLIC "-//W3C//DTD SVG 20010904//EN"
 "http://www.w3.org/TR/2001/REC-SVG-20010904/DTD/svg10.dtd">
<svg version="1.0" xmlns="http://www.w3.org/2000/svg"
 width="92.000000pt" height="148.000000pt" viewBox="0 0 92.000000 148.000000"
 preserveAspectRatio="xMidYMid meet">
<metadata>
Created by potrace 1.16, written by Peter Selinger 2001-2019
</metadata>
<g transform="translate(0.000000,148.000000) scale(0.100000,-0.100000)"
fill="#000000" stroke="none">
<path d="M48 748 c-2 -370 -1 -679 1 -686 4 -16 51 -16 52 1 1 6 0 76 -1 155
-2 152 3 172 45 172 12 0 28 7 35 15 7 8 21 15 31 15 10 0 21 5 24 10 14 22
46 10 60 -22 19 -45 205 -218 234 -218 6 0 11 -4 11 -10 0 -18 66 -11 83 8 22
24 21 35 -3 57 -11 10 -20 23 -20 30 0 19 -52 62 -110 90 -46 22 -150 102
-150 116 0 2 32 38 71 79 39 41 73 87 76 102 3 15 14 35 24 44 11 9 19 27 19
39 0 11 6 27 13 34 9 9 11 58 9 192 -2 103 1 179 6 179 11 0 42 -33 42 -45 0
-4 13 -29 29 -54 16 -25 34 -63 41 -84 7 -21 23 -57 36 -80 13 -23 24 -56 24
-74 0 -17 5 -35 10 -38 6 -4 10 -23 9 -44 -2 -20 0 -42 4 -48 11 -17 53 -24
82 -13 25 10 26 11 12 37 -8 16 -20 46 -25 68 -6 22 -16 60 -22 85 -6 25 -18
55 -26 67 -8 12 -23 46 -35 75 -40 103 -160 253 -249 312 -35 23 -77 20 -112
-9 -19 -16 -42 -25 -63 -25 -19 0 -37 -4 -40 -10 -3 -5 -16 -10 -29 -10 -12 0
-40 -9 -62 -19 -57 -28 -66 -16 -58 75 8 84 -1 104 -47 104 l-29 0 -2 -672z
m391 464 c15 -28 41 -105 41 -122 0 -24 -68 -83 -136 -117 l-61 -31 13 63 c16
78 54 161 88 198 31 32 42 34 55 9z m-164 -53 c-13 -24 -25 -52 -25 -62 0 -9
-11 -40 -25 -69 -14 -28 -25 -61 -25 -73 0 -33 -18 -45 -51 -33 -34 12 -43 36
-33 91 4 23 7 64 5 90 -3 58 11 77 55 77 18 0 36 4 39 10 8 13 68 29 78 20 4
-4 -4 -27 -18 -51z m203 -211 c5 -42 -52 -156 -85 -170 -15 -7 -44 -25 -64
-40 -63 -48 -72 -41 -67 53 4 92 18 113 86 125 20 4 53 20 72 36 40 33 54 32
58 -4z m-300 -80 c6 -8 8 -49 5 -106 -6 -99 -14 -113 -52 -92 -19 10 -21 20
-21 104 0 51 3 96 7 99 11 12 50 8 61 -5z m202 -180 c0 -23 -82 -118 -100
-118 -12 0 -24 46 -17 65 8 18 85 75 104 75 7 0 13 -10 13 -22z m-200 -83 c0
-8 9 -31 21 -51 24 -43 19 -64 -15 -64 -14 0 -28 -4 -31 -10 -3 -5 -15 -10
-26 -10 -17 0 -19 7 -19 59 0 49 3 61 23 74 28 20 47 21 47 2z"/>
</g>
</svg>
