<?xml version="1.0" standalone="no"?>
<!DOCTYPE svg PUBLIC "-//W3C//DTD SVG 20010904//EN"
 "http://www.w3.org/TR/2001/REC-SVG-20010904/DTD/svg10.dtd">
<svg version="1.0" xmlns="http://www.w3.org/2000/svg"
 width="278.000000pt" height="590.000000pt" viewBox="0 0 278.000000 590.000000"
 preserveAspectRatio="xMidYMid meet">
<metadata>
Created by potrace 1.16, written by Peter Selinger 2001-2019
</metadata>
<g transform="translate(0.000000,590.000000) scale(0.500000,-0.500000)"
fill="#000000" stroke="none">
<path d="M269 1155 c-9 -6 -15 -11 -18 -17 -3 -5 -9 -13 -14 -18 -9 -9 -10
-10 -11 -25 -1 -12 -2 -18 -6 -23 -7 -9 -5 -105 3 -119 12 -20 9 -55 -5 -71
-5 -6 -10 -13 -11 -16 -2 -8 -14 -37 -16 -41 -2 -2 -4 -8 -5 -13 -7 -22 -40
-38 -71 -34 -12 1 -13 2 -15 40 -3 46 -3 48 -10 54 -11 11 -21 7 -23 -8 -1 -5
-3 -13 -6 -17 -2 -4 -4 -13 -4 -20 -1 -7 -3 -16 -5 -21 -2 -6 -4 -13 -4 -17 0
-5 -2 -11 -5 -16 -6 -9 -6 -20 -2 -30 1 -3 3 -13 4 -22 3 -31 28 -38 61 -16
43 29 73 24 61 -8 -3 -8 -3 -13 -2 -36 1 -17 0 -30 -1 -35 -4 -18 0 -74 8 -88
9 -18 9 -19 -16 -44 -11 -12 -24 -23 -28 -25 -4 -2 -9 -5 -12 -7 -10 -8 -36 8
-51 31 -3 5 -8 10 -11 12 -3 1 -9 4 -14 8 -21 12 -34 -27 -20 -58 2 -4 4 -11
5 -16 1 -4 3 -10 5 -14 2 -3 5 -10 6 -16 1 -6 6 -14 10 -20 4 -5 9 -14 10 -18
6 -22 21 -22 37 -1 4 7 10 12 19 16 6 3 16 11 22 16 6 5 21 16 34 24 13 9 26
18 31 22 9 7 21 8 30 2 22 -14 20 -12 20 -26 0 -11 1 -14 6 -21 6 -8 6 -9 0
-20 -5 -9 -5 -12 -4 -21 3 -24 1 -74 -3 -84 -3 -5 -5 -15 -5 -26 -1 -13 -2
-19 -6 -24 -3 -4 -5 -10 -6 -13 -1 -3 -6 -15 -11 -25 -6 -10 -10 -21 -10 -24
0 -4 -3 -9 -9 -16 -5 -6 -11 -15 -13 -19 -2 -5 -12 -17 -21 -26 -9 -10 -19
-21 -21 -26 -2 -6 -8 -14 -13 -19 -19 -22 -14 -54 9 -54 17 0 23 5 33 26 3 5
7 11 10 14 3 3 7 9 9 13 6 11 13 19 24 24 6 3 11 7 13 11 2 3 8 10 14 16 7 7
12 15 14 22 2 6 7 17 10 25 14 31 18 49 21 87 1 19 3 38 4 41 1 3 1 23 0 47
-3 62 1 80 19 93 7 5 8 8 10 16 2 16 4 19 11 19 9 0 22 -7 26 -15 3 -7 15 -19
18 -19 5 0 17 -11 22 -20 21 -33 67 -30 77 5 6 20 17 37 28 44 13 7 14 9 18
28 5 29 6 56 1 59 -10 5 -25 1 -29 -9 -4 -8 -21 -22 -35 -27 -6 -2 -14 -5 -17
-7 -41 -22 -73 31 -70 118 2 79 1 119 -5 138 -5 18 17 28 38 18 4 -1 11 -3 16
-4 5 -1 12 -3 16 -6 22 -16 41 0 43 36 2 29 3 36 12 45 4 5 7 10 8 13 1 4 3
10 4 15 4 11 4 22 0 28 -2 3 -3 10 -3 16 0 19 -7 21 -27 9 -14 -8 -15 -10 -15
-25 0 -11 0 -12 -10 -21 -5 -5 -12 -13 -15 -19 -3 -5 -6 -10 -7 -10 -1 0 -6
-4 -11 -8 -11 -10 -12 -10 -25 -1 -6 4 -12 7 -13 7 -2 0 -10 6 -18 14 -8 7
-19 17 -25 21 -6 4 -14 9 -18 12 -24 17 -25 14 3 71 16 31 16 31 17 52 5 71
-5 117 -30 132 -5 3 -10 8 -12 10 -3 6 -12 5 -27 -5z m32 -60 c19 -46 -11
-157 -39 -143 -17 9 -18 12 -13 43 2 10 4 27 5 38 4 46 36 88 47 62z m6 -314
c22 -1 37 -7 37 -17 0 -17 -50 -44 -89 -49 -6 -1 -17 -4 -24 -6 -22 -9 -26 -5
-24 26 2 28 15 41 42 41 5 0 11 2 15 4 6 3 9 4 18 3 6 -1 17 -2 25 -2z m45
-60 c3 -3 0 -35 -4 -43 -6 -11 -136 -51 -139 -43 -11 28 9 55 44 60 17 2 46
12 71 25 14 6 22 7 28 1z m-6 -87 c10 -10 4 -46 -8 -46 -4 0 -27 -5 -52 -11
-60 -15 -68 -13 -68 15 0 9 37 28 54 28 1 0 8 2 14 5 28 13 53 16 60 9z m-10
-81 c5 -6 -3 -31 -14 -40 -28 -23 -103 -6 -82 19 7 9 91 27 96 21z"/>
</g>
</svg>
