<?xml version="1.0" standalone="no"?>
<!DOCTYPE svg PUBLIC "-//W3C//DTD SVG 20010904//EN"
 "http://www.w3.org/TR/2001/REC-SVG-20010904/DTD/svg10.dtd">
<svg version="1.0" xmlns="http://www.w3.org/2000/svg"
 width="70.000000pt" height="148.000000pt" viewBox="0 0 70.000000 148.000000"
 preserveAspectRatio="xMidYMid meet">
<metadata>
Created by potrace 1.16, written by Peter Selinger 2001-2019
</metadata>
<g transform="translate(0.000000,148.000000) scale(0.100000,-0.100000)"
fill="#000000" stroke="none">
<path d="M315 1424 c-14 -15 -29 -43 -35 -63 -13 -49 -13 -147 2 -187 10 -29
8 -39 -25 -108 -39 -80 -61 -99 -105 -94 -25 3 -27 7 -32 63 -4 46 -9 61 -22
63 -13 2 -18 -6 -23 -35 -4 -21 -12 -56 -18 -78 -16 -53 -10 -102 13 -115 14
-7 31 -4 68 16 28 14 55 23 60 20 6 -4 8 -43 5 -99 -3 -59 0 -105 8 -130 12
-37 12 -38 -26 -72 -47 -44 -67 -44 -100 -1 -30 40 -62 52 -70 27 -9 -31 49
-190 70 -191 5 0 18 9 30 20 32 34 143 110 159 110 30 0 41 -31 39 -113 -3
-159 -31 -244 -117 -349 -52 -63 -60 -98 -23 -98 20 0 67 46 67 65 0 3 17 20
38 39 58 53 81 126 85 274 3 90 8 127 19 140 8 9 18 25 21 35 4 9 10 17 15 17
5 0 34 -25 66 -56 33 -31 65 -54 74 -52 9 2 27 22 39 45 12 23 31 51 42 62 14
14 21 34 21 61 0 45 -16 52 -45 20 -25 -27 -75 -51 -94 -45 -9 3 -24 16 -34
30 -14 20 -18 50 -21 176 l-3 151 41 -7 c88 -15 91 -14 96 30 3 22 13 54 22
72 23 40 15 93 -14 93 -12 0 -24 -12 -33 -32 -17 -42 -53 -88 -68 -88 -16 0
-137 90 -137 102 0 5 11 29 25 54 43 77 31 228 -20 248 -27 10 -35 7 -60 -20z
m65 -119 c0 -77 -29 -132 -60 -115 -11 6 -20 12 -20 13 0 34 33 153 46 168 24
27 34 9 34 -66z m46 -340 c10 -25 -15 -44 -86 -65 -88 -26 -90 -26 -90 15 0
30 5 37 33 49 45 20 136 21 143 1z m14 -83 c0 -31 -16 -43 -98 -72 -63 -22
-82 -26 -86 -15 -13 35 25 75 73 75 9 0 35 9 57 19 42 21 54 19 54 -7z m-9
-89 c9 -53 7 -55 -71 -74 -77 -18 -94 -15 -88 17 2 12 25 25 73 40 80 26 85
27 86 17z m-11 -123 c0 -23 -36 -50 -68 -50 -57 0 -85 44 -34 56 15 3 41 9 57
14 36 9 45 5 45 -20z"/>
</g>
</svg>
