<?xml version="1.0" standalone="no"?>
<!DOCTYPE svg PUBLIC "-//W3C//DTD SVG 20010904//EN"
 "http://www.w3.org/TR/2001/REC-SVG-20010904/DTD/svg10.dtd">
<svg version="1.0" xmlns="http://www.w3.org/2000/svg"
 width="47.000000pt" height="100.000000pt" viewBox="0 0 47.000000 100.000000"
 preserveAspectRatio="xMidYMid meet">
<metadata>
Created by potrace 1.16, written by Peter Selinger 2001-2019
</metadata>
<g transform="translate(0.000000,100.000000) scale(0.100000,-0.100000)"
fill="#000000" stroke="none">
<path d="M204 959 c-16 -18 -19 -36 -19 -113 0 -107 -22 -172 -62 -182 -30 -8
-34 -4 -40 45 -6 41 -25 55 -36 27 -12 -31 -17 -132 -8 -146 9 -12 15 -12 47
3 20 10 39 15 43 12 3 -4 7 -47 7 -96 2 -85 1 -91 -22 -106 -24 -15 -26 -15
-54 12 -49 47 -66 7 -30 -73 10 -23 23 -42 27 -42 5 0 33 18 62 40 77 58 87
53 83 -45 -3 -99 -13 -131 -63 -197 -40 -54 -48 -81 -27 -94 7 -5 30 13 60 46
57 64 78 123 78 222 0 110 24 133 80 78 17 -16 37 -30 44 -30 7 0 25 18 39 39
51 76 44 121 -12 82 -62 -45 -77 -25 -83 112 l-5 98 45 -3 c45 -3 46 -2 55 32
5 19 11 52 14 73 5 33 3 38 -13 35 -9 -1 -25 -16 -34 -32 -25 -46 -45 -54 -76
-30 -44 33 -49 47 -31 87 45 94 -10 211 -69 146z m73 -321 c-4 -12 -1 -28 5
-35 15 -18 -3 -37 -52 -53 -45 -15 -60 -8 -43 20 10 14 9 21 -2 30 -19 16 -19
25 1 44 9 9 32 16 56 16 37 0 40 -2 35 -22z"/>
</g>
</svg>
