<?xml version="1.0" standalone="no"?>
<!DOCTYPE svg PUBLIC "-//W3C//DTD SVG 20010904//EN"
 "http://www.w3.org/TR/2001/REC-SVG-20010904/DTD/svg10.dtd">
<svg version="1.0" xmlns="http://www.w3.org/2000/svg"
 width="102.000000pt" height="148.000000pt" viewBox="0 0 102.000000 148.000000"
 preserveAspectRatio="xMidYMid meet">
<metadata>
Created by potrace 1.16, written by Peter Selinger 2001-2019
</metadata>
<g transform="translate(0.000000,148.000000) scale(0.100000,-0.100000)"
fill="#000000" stroke="none">
<path d="M117 1409 c-17 -10 -47 -66 -47 -87 0 -20 58 -65 125 -97 126 -61
118 -40 130 -378 l10 -292 39 -64 c21 -35 72 -95 112 -134 41 -38 74 -77 74
-86 0 -9 -25 -41 -55 -71 -53 -52 -56 -57 -53 -100 3 -41 5 -45 28 -45 20 0
25 5 26 26 1 15 24 56 53 95 54 70 59 94 36 147 -6 16 -4 18 16 15 20 -2 27
-13 41 -68 l18 -64 -44 -70 c-25 -39 -42 -74 -40 -78 3 -5 16 -8 29 -8 18 0
34 15 65 59 44 65 52 115 25 161 -25 44 -19 56 43 78 78 29 144 85 181 153
l31 57 0 179 c0 167 -2 184 -25 242 -17 45 -42 81 -82 123 -67 68 -85 80 -108
72 -15 -6 -17 -29 -14 -228 l4 -221 -110 0 c-99 1 -116 4 -171 29 l-62 28 -5
217 c-3 135 -10 233 -19 262 -19 67 -62 126 -104 144 -42 17 -121 19 -147 4z
m122 -66 c57 -33 51 -81 -8 -68 -35 7 -66 46 -57 70 7 20 27 19 65 -2z m576
-283 c7 -12 7 -351 0 -359 -3 -2 -11 2 -20 9 -12 10 -15 42 -15 180 0 91 3
170 7 173 9 10 21 9 28 -3z m83 -142 c6 -24 11 -88 12 -143 2 -135 4 -128 -20
-115 -19 10 -20 21 -20 155 0 80 4 145 9 145 5 0 13 -19 19 -42z m-439 -227
c15 -15 18 -29 14 -63 -8 -70 -23 -118 -36 -118 -35 0 -73 153 -47 185 17 21
46 19 69 -4z m185 -19 c4 -7 -6 -56 -35 -172 -13 -51 -46 -100 -67 -100 -10 0
-29 11 -41 24 l-22 24 20 67 c12 37 21 80 21 97 0 53 15 68 70 68 27 0 51 -4
54 -8z m118 -32 c-1 -19 -11 -53 -22 -75 -10 -22 -24 -62 -31 -90 -17 -72 -36
-105 -60 -105 -30 0 -32 21 -6 81 13 29 30 86 36 124 19 108 19 107 54 103 30
-3 32 -5 29 -38z m105 -32 c18 -13 33 -31 33 -40 0 -20 -39 -88 -50 -88 -5 0
-26 -16 -47 -35 -32 -29 -63 -45 -63 -32 0 16 35 116 46 132 8 11 14 31 14 46
0 46 17 50 67 17z"/>
</g>
</svg>
