<?xml version="1.0" standalone="no"?>
<!DOCTYPE svg PUBLIC "-//W3C//DTD SVG 20010904//EN"
 "http://www.w3.org/TR/2001/REC-SVG-20010904/DTD/svg10.dtd">
<svg version="1.0" xmlns="http://www.w3.org/2000/svg"
 width="69.000000pt" height="100.000000pt" viewBox="0 0 69.000000 100.000000"
 preserveAspectRatio="xMidYMid meet">
<metadata>
Created by potrace 1.16, written by Peter Selinger 2001-2019
</metadata>
<g transform="translate(0.000000,100.000000) scale(0.100000,-0.100000)"
fill="#000000" stroke="none">
<path d="M67 943 c-38 -42 -20 -75 63 -119 38 -20 72 -43 75 -52 4 -10 9 -102
12 -207 l5 -190 30 -48 c17 -26 50 -65 74 -86 24 -21 44 -45 44 -53 0 -8 -14
-27 -31 -44 -17 -16 -35 -40 -40 -53 -12 -29 -3 -61 16 -61 22 0 95 120 95
157 0 41 18 52 25 16 4 -15 8 -37 10 -48 3 -11 -7 -37 -21 -57 -28 -40 -26
-72 3 -66 10 2 28 21 41 43 19 33 22 49 17 92 l-6 52 56 26 c37 18 67 41 86
68 29 40 29 41 29 184 0 165 -7 188 -83 262 -32 31 -51 42 -63 37 -15 -6 -17
-20 -11 -150 6 -126 4 -145 -10 -150 -22 -9 -142 4 -179 19 l-31 13 -6 143
c-6 154 -23 233 -57 264 -12 11 -41 20 -73 23 -42 3 -55 0 -70 -15z m492 -328
c1 -63 -9 -125 -20 -125 -11 0 -12 204 -2 214 11 11 21 -30 22 -89z m-245
-162 c8 -20 -3 -81 -16 -89 -23 -14 -48 76 -28 101 13 16 36 10 44 -12z m116
-10 c7 -6 -28 -134 -41 -150 -15 -17 -34 -17 -48 1 -8 10 -7 29 5 77 9 35 21
70 26 77 10 11 43 8 58 -5z m84 9 c3 -5 -8 -48 -23 -98 -19 -60 -33 -90 -44
-92 -22 -4 -21 3 4 96 12 42 23 83 25 90 4 13 30 16 38 4z m74 -44 c21 -21 13
-43 -28 -83 -59 -57 -62 -44 -19 73 9 24 28 29 47 10z"/>
</g>
</svg>
