<?xml version="1.0" standalone="no"?>
<!DOCTYPE svg PUBLIC "-//W3C//DTD SVG 20010904//EN"
 "http://www.w3.org/TR/2001/REC-SVG-20010904/DTD/svg10.dtd">
<svg version="1.0" xmlns="http://www.w3.org/2000/svg"
 width="404.000000pt" height="590.000000pt" viewBox="0 0 404.000000 590.000000"
 preserveAspectRatio="xMidYMid meet">
<metadata>
Created by potrace 1.16, written by Peter Selinger 2001-2019
</metadata>
<g transform="translate(0.000000,590.000000) scale(0.500000,-0.500000)"
fill="#000000" stroke="none">
<path d="M115 1136 c-39 -10 -66 -64 -47 -98 11 -20 84 -64 126 -77 3 -1 10
-7 17 -13 7 -6 15 -13 18 -16 21 -14 25 -34 27 -165 1 -57 3 -121 4 -141 1
-20 3 -66 3 -102 1 -76 -1 -69 25 -113 41 -69 44 -73 68 -95 13 -11 28 -25 33
-31 6 -5 20 -19 33 -31 36 -34 40 -25 -41 -113 -38 -41 -39 -95 -2 -95 23 0
27 4 27 29 0 15 0 15 14 30 8 9 16 19 17 23 2 3 7 11 12 17 5 5 12 14 15 18 2
4 10 15 17 24 14 16 15 20 10 29 -1 3 -3 10 -4 16 -1 6 -4 17 -8 25 -7 15 -6
17 7 17 14 0 18 -5 27 -38 3 -10 7 -24 9 -31 7 -24 7 -45 0 -54 -4 -4 -9 -13
-12 -20 -4 -7 -10 -18 -15 -24 -37 -52 -37 -63 1 -61 20 2 20 2 69 82 16 26
17 47 4 76 -21 44 -22 56 -2 62 4 1 11 4 15 6 4 2 18 8 32 14 13 5 26 11 28
13 2 1 7 5 12 8 36 20 77 70 96 115 15 36 14 21 14 172 0 153 2 134 -20 194
-5 13 -10 27 -11 33 -5 19 -107 118 -122 120 -24 3 -34 -8 -32 -38 1 -11 2
-40 2 -64 1 -82 5 -212 7 -223 4 -22 1 -32 -13 -35 -20 -4 -158 1 -165 5 -3 2
-9 4 -13 5 -4 1 -12 4 -17 7 -5 3 -17 9 -27 13 -37 14 -43 22 -40 49 3 28 3
237 0 264 -4 34 -7 48 -11 57 -2 4 -4 13 -5 19 -1 7 -3 17 -5 23 -2 6 -4 13
-4 15 0 9 -27 50 -45 69 -22 22 -90 38 -128 29z m70 -62 c8 -5 16 -10 19 -11
18 -12 15 -45 -4 -42 -32 5 -35 7 -48 25 -21 32 -2 48 33 28z m459 -224 l6 -5
1 -135 c1 -100 1 -136 -1 -140 -3 -6 -10 -5 -18 2 l-7 6 2 135 c1 154 1 151
17 137z m60 -96 c2 -3 5 -9 6 -14 1 -5 4 -11 5 -14 8 -14 9 -32 10 -105 2 -92
1 -97 -18 -87 -16 8 -16 5 -14 118 1 113 1 116 11 102z m-351 -192 c26 -10 27
-16 20 -74 -9 -71 -19 -89 -38 -63 -18 26 -20 33 -24 66 -7 65 4 85 42 71z
m245 -19 c17 -6 9 -61 -15 -101 -4 -6 -8 -16 -10 -22 -1 -6 -6 -22 -10 -35
-24 -83 -26 -85 -48 -82 -20 3 -24 13 -11 35 4 8 10 20 12 27 3 8 8 22 13 31
6 14 8 20 9 35 1 10 3 21 4 25 1 3 3 13 4 22 2 14 8 45 12 58 1 6 11 10 24 10
5 0 12 -1 16 -3z m-87 -2 c6 -4 -2 -52 -13 -72 -1 -4 -3 -15 -4 -29 -2 -25 -4
-33 -30 -87 -17 -36 -34 -38 -65 -9 -19 17 -18 16 -10 34 13 28 25 81 29 126
3 26 5 35 10 38 8 3 78 3 83 -1z m162 -44 c7 -4 15 -10 18 -13 3 -3 9 -7 13
-9 18 -9 18 -15 4 -43 -17 -31 -25 -41 -41 -51 -8 -4 -22 -16 -33 -27 -33 -33
-46 -33 -37 1 14 50 18 63 28 82 6 12 11 23 11 26 0 5 7 36 9 39 3 4 17 2 28
-5z"/>
</g>
</svg>
