<?xml version="1.0" standalone="no"?>
<!DOCTYPE svg PUBLIC "-//W3C//DTD SVG 20010904//EN"
 "http://www.w3.org/TR/2001/REC-SVG-20010904/DTD/svg10.dtd">
<svg version="1.0" xmlns="http://www.w3.org/2000/svg"
 width="186.000000pt" height="148.000000pt" viewBox="0 0 186.000000 148.000000"
 preserveAspectRatio="xMidYMid meet">
<metadata>
Created by potrace 1.16, written by Peter Selinger 2001-2019
</metadata>
<g transform="translate(0.000000,148.000000) scale(0.100000,-0.100000)"
fill="#000000" stroke="none">
<path d="M115 1395 c-18 -17 -25 -35 -25 -63 0 -34 5 -43 38 -65 20 -14 60
-36 87 -48 68 -30 102 -67 109 -121 3 -23 8 -154 10 -289 l3 -246 43 -71 c26
-44 69 -96 111 -134 38 -35 71 -68 73 -75 3 -7 -22 -43 -54 -80 -55 -62 -60
-72 -58 -108 3 -35 6 -40 28 -40 19 0 25 6 31 32 3 17 29 61 57 97 44 56 51
70 46 96 -4 17 -11 33 -15 36 -16 10 -9 24 11 24 22 0 34 -23 50 -97 10 -42 8
-46 -30 -103 -47 -69 -50 -90 -15 -90 19 0 34 14 65 59 44 65 52 115 25 161
-25 43 -18 54 45 78 75 29 154 100 186 165 23 48 24 61 24 224 0 222 -13 262
-118 371 -39 39 -74 72 -79 72 -33 -1 -35 -16 -32 -236 l4 -219 -90 -3 c-77
-2 -101 1 -163 24 -39 14 -75 31 -79 38 -4 6 -6 85 -5 176 5 331 -53 460 -210
460 -39 0 -54 -5 -73 -25z m136 -56 c38 -27 41 -69 4 -69 -28 0 -75 40 -75 63
0 33 30 36 71 6z m565 -278 c5 -6 8 -84 6 -185 -2 -140 -6 -176 -16 -176 -23
0 -26 25 -26 194 0 174 5 197 36 167z m84 -149 c5 -20 10 -86 10 -145 0 -98
-2 -108 -17 -105 -16 3 -18 20 -21 151 -3 149 6 178 28 99z m-442 -218 c21
-14 23 -21 17 -72 -8 -73 -24 -124 -36 -116 -23 14 -49 86 -49 137 0 29 3 57
7 60 11 12 38 8 61 -9z m188 -27 c3 -8 -2 -34 -10 -58 -9 -24 -16 -54 -16 -66
0 -29 -29 -103 -48 -125 -20 -24 -36 -23 -67 5 -27 23 -27 23 -11 61 9 22 21
71 27 110 6 39 13 74 16 79 8 13 103 8 109 -6z m120 -1 c3 -7 -4 -40 -16 -72
-12 -33 -31 -90 -42 -129 -27 -94 -41 -109 -77 -86 -12 8 -10 19 12 70 20 46
57 194 57 227 0 11 61 2 66 -10z m101 -58 c18 -13 33 -29 33 -36 0 -27 -30
-69 -83 -114 -53 -46 -77 -58 -77 -40 0 13 32 104 47 131 7 15 13 35 13 47 0
40 19 44 67 12z"/>
<path d="M901 1393 c-54 -68 -36 -104 85 -165 49 -25 96 -56 106 -69 16 -21
20 -60 29 -314 l11 -290 40 -67 c22 -37 72 -97 114 -137 85 -80 84 -73 9 -156
-48 -52 -59 -77 -53 -116 2 -18 9 -24 28 -24 20 0 26 6 28 29 2 17 27 59 59
98 58 73 57 69 28 141 -5 13 -2 17 13 17 26 0 28 -4 47 -75 16 -64 14 -71 -47
-159 -31 -43 -29 -56 7 -56 19 0 34 16 70 71 l46 72 -16 46 c-31 88 -32 84 34
109 77 30 151 96 185 165 25 52 26 61 26 224 0 158 -2 176 -25 237 -20 53 -39
81 -96 138 -104 106 -104 105 -103 -171 l1 -223 -111 4 c-99 3 -118 7 -171 33
l-60 30 -6 220 c-6 239 -14 284 -61 350 -34 46 -72 63 -145 64 -44 1 -54 -3
-72 -26z m140 -54 c37 -26 41 -69 5 -69 -30 0 -76 36 -76 59 0 37 28 41 71 10z
m569 -460 c0 -95 -2 -175 -4 -176 -2 -2 -11 -1 -20 3 -14 5 -16 28 -16 183 0
98 3 181 7 185 4 3 13 0 21 -8 11 -11 14 -50 12 -187z m89 -106 c1 -87 -2
-113 -12 -113 -31 0 -37 24 -37 156 0 162 7 187 31 118 12 -35 18 -82 18 -161z
m-449 -81 c21 -17 22 -21 11 -92 -16 -100 -30 -114 -59 -57 -21 43 -31 145
-15 160 12 12 40 7 63 -11z m184 -20 c3 -4 0 -26 -5 -48 -6 -21 -14 -61 -19
-87 -11 -58 -49 -131 -71 -135 -9 -2 -29 8 -45 21 l-28 25 17 38 c9 22 21 68
28 104 6 36 12 71 15 78 4 13 99 17 108 4z m122 -5 c2 -7 -5 -39 -17 -72 -11
-33 -30 -91 -42 -130 -27 -85 -33 -95 -58 -95 -30 0 -32 21 -6 81 13 29 30 86
37 124 7 39 17 78 22 88 10 20 56 23 64 4z m118 -72 c14 -11 17 -21 11 -42 -8
-34 -136 -156 -149 -143 -5 5 2 39 18 82 15 40 30 84 33 98 11 57 16 57 87 5z"/>
</g>
</svg>
