<?xml version="1.0" standalone="no"?>
<!DOCTYPE svg PUBLIC "-//W3C//DTD SVG 20010904//EN"
 "http://www.w3.org/TR/2001/REC-SVG-20010904/DTD/svg10.dtd">
<svg version="1.0" xmlns="http://www.w3.org/2000/svg"
 width="100.000000pt" height="80.000000pt" viewBox="0 0 100.000000 80.000000"
 preserveAspectRatio="xMidYMid meet">
<metadata>
Created by potrace 1.16, written by Peter Selinger 2001-2019
</metadata>
<g transform="translate(0.000000,80.000000) scale(0.100000,-0.100000)"
fill="#000000" stroke="none">
<path d="M56 754 c-36 -35 -23 -53 90 -120 16 -9 19 -32 26 -178 l8 -168 36
-49 c20 -27 40 -49 45 -49 5 0 14 -11 21 -25 9 -21 7 -29 -21 -60 -34 -39 -38
-57 -17 -74 11 -9 18 -6 35 18 12 16 30 49 41 73 16 35 20 39 26 24 4 -10 2
-33 -5 -50 -24 -60 -25 -66 -2 -66 30 0 55 53 47 101 -6 36 -4 40 26 55 88 44
108 84 108 216 0 96 -2 107 -30 155 -29 51 -63 83 -87 83 -9 0 -13 -33 -15
-122 l-3 -123 -55 3 c-30 2 -66 9 -80 16 -24 11 -25 16 -31 126 -7 132 -20
181 -56 210 -31 24 -85 26 -107 4z m284 -411 c0 -26 -20 -96 -32 -110 -5 -6
-16 -9 -24 -6 -12 5 -14 16 -9 57 4 28 12 57 17 64 16 18 48 15 48 -5z"/>
<path d="M482 758 c-7 -7 -12 -25 -12 -40 0 -23 8 -32 48 -52 27 -13 54 -31
61 -40 8 -10 14 -67 18 -168 6 -173 11 -188 80 -260 l46 -47 -32 -40 c-20 -25
-31 -49 -29 -63 6 -43 32 -24 68 47 33 67 35 68 38 38 2 -17 -4 -45 -12 -62
-20 -38 -20 -41 4 -41 32 0 61 57 54 105 -5 40 -5 41 40 63 73 35 86 66 86
200 0 128 -9 158 -65 212 -57 55 -66 41 -63 -97 l3 -118 -50 3 c-74 5 -114 20
-120 45 -2 12 -6 72 -8 132 -5 152 -29 195 -109 195 -19 0 -39 -5 -46 -12z
m278 -425 c0 -53 -20 -103 -40 -103 -28 0 -32 14 -20 62 17 66 18 68 40 68 15
0 20 -7 20 -27z"/>
</g>
</svg>
