<?xml version="1.0" standalone="no"?>
<!DOCTYPE svg PUBLIC "-//W3C//DTD SVG 20010904//EN"
 "http://www.w3.org/TR/2001/REC-SVG-20010904/DTD/svg10.dtd">
<svg version="1.0" xmlns="http://www.w3.org/2000/svg"
 width="90.000000pt" height="148.000000pt" viewBox="0 0 90.000000 148.000000"
 preserveAspectRatio="xMidYMid meet">
<metadata>
Created by potrace 1.16, written by Peter Selinger 2001-2019
</metadata>
<g transform="translate(0.000000,148.000000) scale(0.100000,-0.100000)"
fill="#000000" stroke="none">
<path d="M550 1313 c-50 -50 -120 -138 -120 -151 0 -4 -13 -23 -30 -42 -16
-19 -29 -41 -30 -48 0 -7 -9 -30 -19 -50 -35 -66 -50 -106 -65 -180 -8 -41
-26 -97 -40 -125 -13 -29 -29 -71 -35 -94 -7 -27 -18 -43 -27 -43 -20 0 -67
25 -83 44 -8 9 -17 16 -22 16 -16 0 -37 -30 -32 -49 5 -19 15 -26 101 -60 53
-22 72 -21 72 3 0 8 7 19 15 26 12 10 16 9 21 -6 3 -11 9 -27 14 -36 11 -20
-56 -128 -79 -128 -8 0 -26 11 -40 23 -34 32 -89 53 -102 40 -13 -13 6 -63 24
-63 7 0 33 -18 57 -40 64 -58 82 -53 125 33 34 65 43 67 84 18 l36 -44 0 -151
c0 -144 1 -151 20 -151 19 0 20 7 20 117 0 66 4 121 10 127 7 7 21 4 44 -10
l33 -20 -4 -82 c-3 -45 -7 -88 -9 -95 -7 -23 27 -38 47 -22 15 13 16 29 10
142 l-6 127 30 48 c26 41 30 56 30 119 0 95 -16 166 -52 234 -44 81 -75 118
-117 139 -65 34 -67 41 -30 118 17 37 51 93 73 123 23 30 52 71 64 91 24 39
44 49 103 49 38 0 89 -31 89 -55 0 -7 7 -18 15 -25 22 -18 19 -31 -20 -96 -30
-50 -35 -67 -35 -120 0 -56 3 -66 30 -92 36 -37 39 -76 9 -126 -22 -38 -23
-91 0 -91 17 0 49 53 68 115 32 99 43 175 38 264 -4 79 -9 98 -41 159 -20 38
-58 92 -83 118 -64 67 -95 67 -161 2z m244 -298 c7 -61 0 -105 -17 -105 -21 0
-47 34 -47 61 0 35 30 99 45 99 7 0 15 -23 19 -55z m-429 -155 c4 -6 1 -18 -6
-26 -11 -14 -13 -14 -21 0 -15 26 12 51 27 26z m12 -110 c-32 -34 -57 -68 -57
-76 0 -16 -16 -19 -25 -4 -9 14 33 88 74 133 31 32 37 35 50 23 12 -13 7 -23
-42 -76z m93 8 c0 -5 -20 -35 -44 -66 -24 -31 -55 -81 -70 -110 -15 -29 -31
-50 -36 -47 -6 3 -10 28 -10 55 0 46 4 55 51 107 28 32 58 63 66 70 16 13 43
7 43 -9z m2 -135 c-27 -32 -60 -82 -72 -110 -23 -55 -38 -64 -60 -38 -10 13
-8 22 14 53 14 21 26 42 26 48 0 10 58 94 87 126 16 18 17 18 36 -1 20 -19 19
-20 -31 -78z m68 0 c0 -10 3 -27 6 -38 4 -15 -6 -34 -34 -65 -22 -25 -49 -64
-61 -88 -23 -44 -36 -49 -55 -19 -8 12 -8 22 1 35 7 9 20 33 28 52 20 43 92
140 105 140 6 0 10 -8 10 -17z m-4 -193 c-9 -19 -24 -46 -34 -58 -17 -23 -20
-23 -36 -7 -15 16 -14 20 20 68 54 75 58 79 62 53 2 -12 -4 -37 -12 -56z"/>
</g>
</svg>
