<?xml version="1.0" standalone="no"?>
<!DOCTYPE svg PUBLIC "-//W3C//DTD SVG 20010904//EN"
 "http://www.w3.org/TR/2001/REC-SVG-20010904/DTD/svg10.dtd">
<svg version="1.0" xmlns="http://www.w3.org/2000/svg"
 width="61.000000pt" height="100.000000pt" viewBox="0 0 61.000000 100.000000"
 preserveAspectRatio="xMidYMid meet">
<metadata>
Created by potrace 1.16, written by Peter Selinger 2001-2019
</metadata>
<g transform="translate(0.000000,100.000000) scale(0.100000,-0.100000)"
fill="#000000" stroke="none">
<path d="M357 878 c-85 -89 -117 -152 -177 -345 -17 -56 -37 -109 -45 -119
-12 -17 -14 -17 -38 -1 -36 23 -67 22 -67 -3 0 -37 76 -66 130 -50 23 8 23
-33 0 -63 l-21 -27 -48 25 c-50 25 -61 24 -61 -5 0 -20 77 -80 102 -80 11 0
28 15 39 35 12 19 28 35 38 35 32 0 42 -36 39 -140 -1 -55 1 -102 5 -106 3 -4
13 -4 22 0 13 5 16 19 14 81 -3 78 1 91 26 82 12 -5 15 -23 15 -82 0 -73 1
-76 23 -73 21 3 22 6 19 90 -2 73 1 94 19 130 48 94 -2 273 -93 333 -44 29
-44 39 0 110 88 143 111 162 161 134 39 -22 49 -62 26 -102 -25 -42 -27 -128
-2 -154 21 -24 22 -43 0 -88 -13 -28 -14 -38 -5 -47 38 -38 82 66 89 207 6
114 -6 150 -74 225 -49 55 -82 54 -136 -2z m-49 -373 c18 -25 32 -49 32 -53 0
-4 -11 -20 -25 -37 -14 -16 -32 -45 -40 -62 -16 -38 -35 -43 -35 -11 0 12 -7
29 -16 39 -14 16 -15 27 -5 80 18 102 40 113 89 44z m52 -107 c0 -13 -9 -38
-20 -56 l-21 -34 21 7 c15 5 20 2 20 -12 0 -11 -6 -27 -13 -36 -11 -17 -15
-17 -45 -2 -17 9 -32 21 -32 26 0 25 65 129 81 129 5 0 9 -10 9 -22z"/>
</g>
</svg>
