<?xml version="1.0" standalone="no"?>
<!DOCTYPE svg PUBLIC "-//W3C//DTD SVG 20010904//EN"
 "http://www.w3.org/TR/2001/REC-SVG-20010904/DTD/svg10.dtd">
<svg version="1.0" xmlns="http://www.w3.org/2000/svg"
 width="360.000000pt" height="590.000000pt" viewBox="0 0 360.000000 590.000000"
 preserveAspectRatio="xMidYMid meet">
<metadata>
Created by potrace 1.16, written by Peter Selinger 2001-2019
</metadata>
<g transform="translate(0.000000,590.000000) scale(0.500000,-0.500000)"
fill="#000000" stroke="none">
<path d="M480 1087 c-5 -3 -12 -8 -16 -12 -3 -4 -12 -11 -19 -16 -8 -5 -15
-12 -21 -21 -5 -7 -12 -16 -17 -20 -7 -7 -11 -12 -26 -35 -4 -7 -12 -17 -18
-23 -6 -6 -14 -18 -19 -27 -12 -22 -20 -36 -31 -49 -12 -16 -17 -24 -21 -38
-2 -8 -6 -16 -8 -20 -8 -10 -18 -31 -18 -36 0 -2 -5 -14 -10 -26 -12 -27 -20
-52 -20 -66 0 -6 -2 -15 -4 -21 -2 -7 -4 -14 -4 -17 0 -3 -4 -19 -9 -34 -5
-16 -10 -33 -12 -37 -1 -4 -5 -12 -8 -16 -13 -16 -25 -46 -28 -70 -1 -12 -9
-33 -13 -35 -8 -5 -48 10 -58 21 -31 33 -75 18 -59 -20 4 -10 25 -24 43 -29 4
-1 18 -7 29 -12 46 -22 64 -20 71 5 5 22 17 24 22 4 1 -4 5 -14 8 -22 8 -18 0
-38 -28 -69 -5 -6 -11 -14 -14 -19 -12 -18 -26 -17 -42 3 -10 12 -26 24 -34
24 -2 0 -13 5 -25 11 -28 14 -33 12 -33 -17 0 -20 5 -30 14 -30 10 0 32 -14
45 -29 7 -8 16 -17 20 -18 3 -2 11 -7 16 -11 25 -19 54 -7 60 25 1 4 6 13 14
24 7 9 14 20 17 24 13 22 23 23 36 5 10 -12 18 -23 34 -41 9 -9 11 -49 6 -117
-2 -35 -3 -120 -1 -125 5 -13 41 -11 44 2 4 14 0 96 -5 109 -11 31 -3 76 14
76 7 0 37 -16 43 -22 6 -7 5 -115 -1 -132 -11 -31 23 -52 45 -28 6 7 7 129 1
158 -4 20 0 62 7 72 32 45 35 55 35 129 0 55 0 61 -4 69 -2 5 -4 13 -4 18 0
18 -13 55 -26 72 -3 5 -7 14 -10 22 -2 8 -8 18 -14 27 -5 7 -10 14 -10 15 0 4
-21 32 -25 34 -2 2 -8 7 -14 12 -5 5 -18 14 -28 19 -42 22 -45 28 -38 55 4 14
17 39 25 49 3 4 8 13 9 19 5 15 9 23 18 34 9 9 31 43 31 46 0 1 6 9 14 17 8 9
17 20 19 25 5 8 11 17 22 34 12 17 58 27 84 18 6 -2 15 -4 18 -5 11 -3 25 -15
30 -27 3 -6 7 -13 10 -16 4 -4 10 -15 18 -29 3 -6 -13 -41 -21 -46 -3 -2 -24
-46 -24 -49 0 -2 -2 -8 -4 -14 -18 -46 -3 -108 33 -135 21 -15 19 -48 -3 -78
-18 -25 -24 -74 -9 -80 12 -4 23 4 32 25 4 8 10 18 12 21 7 9 13 23 16 34 4
16 11 34 18 52 6 14 7 19 7 32 0 9 1 20 3 26 2 8 3 26 3 101 l0 92 -8 9 c-4 4
-12 17 -18 29 -6 12 -12 23 -14 26 -2 3 -4 8 -5 11 -2 9 -7 17 -15 27 -4 5
-10 13 -13 19 -6 10 -39 45 -51 52 -17 11 -50 14 -66 6z m147 -237 c2 -3 3 -9
3 -18 0 -9 1 -17 4 -23 9 -21 3 -75 -8 -79 -7 -3 -30 15 -34 27 -11 30 20 114
35 93z m-292 -191 c11 -11 9 -14 -36 -62 -22 -23 -33 -36 -37 -45 -9 -17 -24
-22 -19 -6 0 2 2 8 4 15 2 6 6 16 10 21 4 5 8 15 10 20 8 27 57 68 68 57z m33
-43 c13 -7 9 -21 -13 -46 -8 -9 -17 -20 -19 -24 -2 -4 -8 -13 -13 -19 -6 -7
-13 -17 -16 -22 -3 -6 -7 -14 -10 -18 -3 -4 -7 -13 -9 -19 -15 -38 -45 -37
-33 2 1 2 0 9 -2 14 -7 21 5 41 52 90 42 42 51 48 63 42z m38 -55 c13 -15 12
-18 -17 -49 -8 -9 -17 -20 -19 -24 -3 -5 -10 -15 -17 -22 -9 -9 -15 -17 -18
-25 -23 -58 -40 -80 -51 -67 -16 17 -14 25 14 65 4 6 7 13 8 21 3 18 9 29 18
35 6 3 13 13 25 31 29 44 41 52 57 35z m25 -51 c0 -1 1 -8 2 -16 1 -8 3 -19 4
-25 4 -12 -9 -35 -38 -66 -14 -16 -20 -24 -26 -35 -20 -45 -37 -57 -52 -37
-10 13 -9 18 7 37 6 7 10 14 11 19 3 15 27 60 41 76 7 8 15 18 17 22 12 19 30
32 34 25z m9 -117 c3 -8 1 -19 -5 -31 -2 -5 -6 -15 -9 -23 -3 -9 -7 -17 -13
-23 -4 -5 -11 -13 -14 -17 -8 -8 -11 -9 -20 -3 -12 7 -8 26 10 50 5 5 10 13
13 18 12 21 35 37 38 29z"/>
</g>
</svg>
