<?xml version="1.0" standalone="no"?>
<!DOCTYPE svg PUBLIC "-//W3C//DTD SVG 20010904//EN"
 "http://www.w3.org/TR/2001/REC-SVG-20010904/DTD/svg10.dtd">
<svg version="1.0" xmlns="http://www.w3.org/2000/svg"
 width="65.000000pt" height="100.000000pt" viewBox="0 0 65.000000 100.000000"
 preserveAspectRatio="xMidYMid meet">
<metadata>
Created by potrace 1.16, written by Peter Selinger 2001-2019
</metadata>
<g transform="translate(0.000000,100.000000) scale(0.100000,-0.100000)"
fill="#000000" stroke="none">
<path d="M151 956 c-10 -12 -8 -18 7 -33 10 -10 58 -55 105 -101 48 -46 87
-87 87 -92 0 -27 -82 -207 -101 -222 -32 -26 -43 -23 -87 27 -41 46 -68 57
-79 29 -4 -10 12 -33 47 -69 48 -48 56 -53 86 -48 26 4 34 2 34 -9 0 -19 -52
-68 -72 -68 -8 0 -38 27 -67 60 -56 65 -81 75 -81 35 0 -17 21 -46 64 -92 l65
-68 31 18 c18 9 36 17 41 17 5 0 9 -43 9 -95 0 -52 5 -107 12 -122 41 -96 80
-107 145 -40 23 23 45 55 49 71 4 16 35 60 69 97 91 98 95 111 95 278 0 177
-7 184 -91 93 -31 -34 -61 -62 -66 -62 -5 0 -23 32 -38 72 l-28 72 18 46 c28
71 31 140 6 171 -26 33 -61 40 -129 27 -46 -9 -58 -9 -82 5 -34 21 -35 21 -49
3z m211 -63 c19 -17 25 -78 8 -88 -5 -3 -31 14 -57 39 -40 38 -45 48 -33 56
23 15 61 12 82 -7z m26 -310 c28 -74 26 -80 -34 -143 -31 -33 -61 -57 -66 -54
-11 7 -2 52 22 108 10 22 25 58 34 79 18 44 30 47 44 10z m173 -99 c-3 -92
-23 -145 -71 -189 -18 -16 -20 -16 -26 -2 -3 9 -4 59 -2 111 l3 95 40 41 c21
22 44 39 49 37 6 -2 9 -39 7 -93z m-141 -107 c0 -53 -1 -55 -59 -110 -33 -32
-64 -57 -70 -57 -6 0 -11 19 -11 44 0 39 6 51 58 109 31 36 63 66 70 66 8 1
12 -16 12 -52z m0 -146 c0 -31 -27 -85 -58 -114 -27 -26 -31 -27 -46 -12 -24
25 -20 35 36 92 57 57 68 63 68 34z"/>
</g>
</svg>
