<?xml version="1.0" standalone="no"?>
<!DOCTYPE svg PUBLIC "-//W3C//DTD SVG 20010904//EN"
 "http://www.w3.org/TR/2001/REC-SVG-20010904/DTD/svg10.dtd">
<svg version="1.0" xmlns="http://www.w3.org/2000/svg"
 width="96.000000pt" height="148.000000pt" viewBox="0 0 96.000000 148.000000"
 preserveAspectRatio="xMidYMid meet">
<metadata>
Created by potrace 1.16, written by Peter Selinger 2001-2019
</metadata>
<g transform="translate(0.000000,148.000000) scale(0.100000,-0.100000)"
fill="#000000" stroke="none">
<path d="M236 1417 c-10 -7 -14 -19 -10 -27 3 -8 71 -75 151 -149 l144 -134
-6 -41 c-3 -23 -19 -72 -35 -111 -16 -38 -39 -97 -52 -130 -21 -54 -28 -63
-77 -89 l-54 -29 -42 45 c-23 25 -50 58 -61 73 -16 21 -26 26 -42 21 -13 -5
-22 -16 -22 -28 0 -22 135 -168 156 -168 7 0 29 10 49 21 20 12 38 19 41 16 3
-3 2 -21 -2 -42 -5 -28 -18 -45 -59 -76 -28 -21 -56 -39 -62 -39 -6 0 -47 43
-92 95 -81 94 -103 110 -115 79 -11 -27 -7 -33 62 -107 38 -39 84 -89 103
-110 l35 -39 52 41 c28 23 53 41 56 41 2 0 1 -49 -2 -108 -8 -171 17 -268 87
-344 39 -44 65 -37 136 37 47 50 67 78 80 121 13 42 31 69 80 119 68 68 110
126 139 189 16 33 18 69 19 245 l1 206 -23 3 c-17 3 -33 -8 -59 -39 -79 -93
-151 -161 -161 -155 -6 4 -11 18 -11 32 0 14 -16 59 -35 101 -30 66 -34 82
-30 134 3 41 12 71 31 98 23 35 25 47 21 106 -5 76 -25 105 -92 131 -40 15
-46 15 -112 -5 -84 -25 -106 -26 -123 -5 -23 27 -46 34 -64 21z m285 -67 c25
-14 49 -62 49 -99 0 -34 -19 -83 -31 -79 -19 7 -169 151 -164 157 6 6 88 27
113 30 7 0 22 -4 33 -9z m48 -462 c10 -24 24 -67 30 -96 l11 -53 -92 -100
c-51 -54 -96 -99 -100 -99 -23 0 7 124 61 260 21 52 41 103 44 113 10 28 25
20 46 -25z m266 -155 c-6 -149 -8 -161 -36 -208 -33 -57 -105 -138 -117 -131
-4 2 -7 82 -5 176 l3 172 72 74 c39 41 76 74 81 74 6 0 7 -59 2 -157z m-205
-160 l0 -96 -102 -98 c-57 -54 -106 -98 -110 -99 -5 0 -8 38 -8 86 l0 85 71
77 c81 88 136 142 144 142 3 0 5 -43 5 -97z m-5 -228 c-9 -77 -39 -139 -91
-192 -50 -52 -59 -50 -89 18 l-19 41 99 94 c54 52 101 94 103 94 2 0 1 -25 -3
-55z"/>
</g>
</svg>
