<?xml version="1.0" standalone="no"?>
<!DOCTYPE svg PUBLIC "-//W3C//DTD SVG 20010904//EN"
 "http://www.w3.org/TR/2001/REC-SVG-20010904/DTD/svg10.dtd">
<svg version="1.0" xmlns="http://www.w3.org/2000/svg"
 width="386.000000pt" height="590.000000pt" viewBox="0 0 386.000000 590.000000"
 preserveAspectRatio="xMidYMid meet">
<metadata>
Created by potrace 1.16, written by Peter Selinger 2001-2019
</metadata>
<g transform="translate(0.000000,590.000000) scale(0.500000,-0.500000)"
fill="#000000" stroke="none">
<path d="M189 1136 c-16 -18 -13 -24 27 -61 27 -25 138 -127 178 -166 21 -20
22 -22 22 -45 0 -34 -3 -46 -21 -83 -5 -10 -9 -19 -9 -20 0 -1 -3 -10 -7 -18
-4 -9 -10 -23 -12 -31 -3 -8 -8 -21 -10 -28 -3 -7 -7 -18 -9 -24 -18 -49 -20
-51 -75 -75 -38 -17 -32 -21 -106 67 -30 37 -36 39 -56 18 -15 -16 -11 -24 34
-70 12 -13 31 -33 42 -45 36 -39 41 -40 78 -22 43 21 48 20 38 -7 -3 -9 -5
-19 -5 -22 0 -13 0 -14 -62 -62 -26 -20 -28 -20 -43 -4 -16 16 -60 65 -72 79
-23 28 -50 55 -56 57 -18 6 -27 -2 -27 -24 0 -19 -1 -17 44 -64 21 -23 50 -53
63 -67 13 -14 28 -30 32 -35 21 -23 32 -22 61 2 8 6 16 12 44 30 10 7 13 -3 6
-22 -6 -18 -8 -158 -2 -177 2 -8 4 -18 4 -23 0 -4 2 -14 4 -22 2 -7 4 -16 5
-20 0 -4 4 -12 8 -18 4 -6 12 -20 19 -32 21 -39 40 -55 69 -55 27 0 31 3 90
65 31 31 28 26 51 90 9 26 14 36 20 41 3 2 12 13 21 23 9 11 29 30 43 43 26
24 73 87 80 109 1 4 4 10 6 13 17 21 27 351 11 364 -13 12 -32 8 -46 -9 -45
-51 -133 -142 -139 -142 -4 0 -8 9 -12 28 -5 24 -18 60 -31 82 -5 8 -10 18
-11 22 -1 4 -4 12 -8 17 -6 9 -6 9 -5 30 0 12 1 30 2 40 1 30 13 60 33 82 l10
11 -1 50 c-2 78 -12 95 -70 117 -28 11 -53 11 -80 2 -4 -1 -19 -5 -32 -8 -13
-3 -29 -7 -34 -8 -24 -7 -34 -5 -50 11 -23 22 -43 28 -54 16z m228 -56 c25
-11 49 -61 44 -89 -3 -14 -19 -47 -24 -49 -5 -3 -8 -1 -71 60 -69 65 -68 60
-19 72 54 13 53 13 70 6z m30 -349 c21 -33 25 -43 41 -117 5 -21 5 -21 -10
-37 -21 -24 -96 -103 -113 -121 -26 -27 -40 -9 -24 31 1 3 3 12 4 19 1 14 15
63 22 80 2 6 14 33 25 60 11 27 24 57 28 68 14 32 16 34 27 17z m228 -22 c1
-5 1 -130 -1 -189 -2 -54 -4 -66 -18 -81 -3 -3 -11 -16 -18 -28 -14 -25 -35
-51 -59 -73 -26 -24 -31 -23 -31 5 0 204 1 244 4 249 4 6 85 90 103 108 14 12
18 14 20 9z m-171 -180 c3 -3 5 -134 2 -143 -3 -11 -156 -156 -164 -156 -7 0
-8 9 -8 68 0 67 -1 62 33 98 10 11 28 30 40 44 35 39 88 92 91 92 2 0 4 -1 6
-3z m3 -218 c2 -5 1 -17 -1 -25 -1 -4 -4 -19 -6 -33 -7 -49 -23 -80 -63 -121
-45 -47 -48 -46 -71 3 -18 40 -22 31 43 93 89 87 94 92 98 83z"/>
</g>
</svg>
