<?xml version="1.0" standalone="no"?>
<!DOCTYPE svg PUBLIC "-//W3C//DTD SVG 20010904//EN"
 "http://www.w3.org/TR/2001/REC-SVG-20010904/DTD/svg10.dtd">
<svg version="1.0" xmlns="http://www.w3.org/2000/svg"
 width="72.000000pt" height="148.000000pt" viewBox="0 0 72.000000 148.000000"
 preserveAspectRatio="xMidYMid meet">
<metadata>
Created by potrace 1.16, written by Peter Selinger 2001-2019
</metadata>
<g transform="translate(0.000000,148.000000) scale(0.100000,-0.100000)"
fill="#000000" stroke="none">
<path d="M190 1406 c0 -18 7 -25 28 -30 31 -7 62 -33 113 -96 63 -78 65 -86
33 -132 -30 -43 -54 -101 -54 -131 0 -10 -9 -46 -19 -80 -11 -34 -22 -79 -26
-100 -5 -29 -15 -43 -46 -64 l-41 -27 -50 57 c-53 61 -71 69 -87 38 -8 -15 -6
-25 11 -47 36 -48 102 -114 114 -114 6 0 28 11 48 25 20 14 41 25 46 25 6 0
10 -20 10 -45 0 -48 -25 -97 -65 -127 -21 -16 -23 -15 -65 23 -45 41 -57 44
-74 16 -9 -14 -1 -27 44 -72 62 -63 86 -68 118 -25 13 17 27 30 32 30 6 0 18
-17 26 -38 45 -103 61 -132 106 -190 47 -61 48 -64 52 -142 4 -86 17 -113 50
-108 18 3 21 9 18 43 -7 109 -4 131 19 176 13 25 43 82 66 127 42 79 73 191
73 261 0 73 -36 228 -72 307 -10 22 -18 44 -18 49 0 5 -25 45 -55 90 l-56 81
16 40 c9 21 20 48 25 59 26 55 38 109 30 126 -9 15 -30 17 -180 18 l-170 1 0
-24z m287 -40 c5 -4 -40 -136 -46 -136 -3 0 -12 13 -19 28 -7 16 -28 47 -47
69 -19 23 -35 44 -35 48 0 5 140 -3 147 -9z m-21 -253 c25 -35 81 -151 86
-178 2 -16 -9 -26 -52 -47 -57 -28 -157 -54 -167 -44 -4 3 -1 16 5 29 7 12 14
36 16 52 2 17 16 56 30 88 14 32 26 64 26 73 0 19 18 54 28 54 5 0 17 -12 28
-27z m124 -267 c7 -14 10 -31 7 -39 -5 -15 -135 -67 -166 -67 -9 0 -21 -4 -26
-9 -6 -5 -26 -11 -45 -13 -38 -3 -47 12 -36 57 5 18 15 24 53 30 55 7 114 26
158 49 39 20 39 20 55 -8z m30 -145 c0 -24 -25 -61 -41 -61 -5 0 -32 -11 -61
-24 -29 -13 -82 -32 -117 -41 -74 -19 -82 -14 -73 49 6 45 15 56 50 56 30 0
169 46 196 66 19 13 22 13 33 -3 7 -9 13 -28 13 -42z m-6 -128 c-15 -88 -70
-144 -177 -182 -26 -10 -29 -7 -57 42 -38 66 -39 97 -4 97 41 0 111 21 172 51
31 16 61 29 65 29 4 0 5 -17 1 -37z m-90 -201 c3 -5 -8 -22 -24 -37 -24 -23
-32 -26 -45 -15 -22 18 -19 24 18 43 38 19 44 20 51 9z"/>
</g>
</svg>
