<?xml version="1.0" standalone="no"?>
<!DOCTYPE svg PUBLIC "-//W3C//DTD SVG 20010904//EN"
 "http://www.w3.org/TR/2001/REC-SVG-20010904/DTD/svg10.dtd">
<svg version="1.0" xmlns="http://www.w3.org/2000/svg"
 width="560.000000pt" height="590.000000pt" viewBox="0 0 560.000000 590.000000"
 preserveAspectRatio="xMidYMid meet">
<metadata>
Created by potrace 1.16, written by Peter Selinger 2001-2019
</metadata>
<g transform="translate(0.000000,590.000000) scale(0.500000,-0.500000)"
fill="#000000" stroke="none">
<path d="M213 1136 c-12 -7 -33 -34 -40 -51 -2 -7 -14 -30 -24 -53 -26 -53
-37 -84 -59 -175 -10 -41 -20 -81 -22 -89 -7 -26 -15 -142 -15 -211 0 -49 5
-171 7 -177 1 -4 3 -16 4 -26 1 -10 4 -27 6 -38 4 -16 4 -20 2 -30 -2 -14 -2
-16 12 -53 5 -14 10 -30 11 -34 2 -10 4 -14 12 -23 5 -6 9 -15 17 -40 12 -39
14 -44 23 -54 3 -5 9 -13 12 -20 14 -26 68 -25 58 2 -4 12 -23 48 -30 58 -4 5
-8 13 -10 18 -24 71 -32 93 -37 104 -3 7 -6 13 -6 15 0 1 -2 5 -4 10 -2 4 -5
14 -6 22 -1 7 -3 21 -5 29 -2 8 -5 27 -8 42 -9 45 -13 185 -8 249 2 22 4 55 5
73 1 21 3 36 5 41 1 4 3 13 4 19 1 6 3 13 4 16 2 4 4 12 4 20 1 7 3 17 5 22 2
6 4 12 4 15 0 6 3 19 17 72 17 65 61 161 93 204 19 26 20 34 3 41 -9 4 -28 5
-34 2z"/>
<path d="M903 1128 c-23 -10 -23 -13 7 -74 23 -47 34 -76 42 -104 9 -32 21
-80 23 -94 1 -8 4 -19 6 -23 1 -4 3 -13 3 -19 0 -6 2 -13 4 -18 2 -4 4 -12 5
-19 0 -6 2 -15 4 -19 2 -5 4 -20 5 -52 1 -25 3 -56 4 -70 3 -31 3 -65 0 -117
-1 -23 -2 -55 -3 -70 -1 -15 -3 -37 -5 -48 -6 -32 -12 -65 -14 -78 -1 -7 -3
-15 -4 -17 -2 -3 -4 -11 -5 -18 -2 -7 -5 -20 -9 -29 -3 -9 -10 -28 -15 -43 -6
-15 -13 -34 -16 -42 -3 -8 -8 -24 -12 -35 -9 -25 -13 -38 -13 -46 0 -4 -2 -13
-5 -21 -9 -24 12 -36 41 -24 11 5 45 85 49 114 0 7 5 24 10 38 5 15 11 32 12
38 3 11 11 36 18 54 3 7 3 13 2 27 -1 13 0 21 2 29 2 6 4 21 6 33 1 12 4 29 6
39 3 14 5 90 6 170 0 56 -9 186 -14 205 -1 5 -4 16 -6 24 -24 113 -48 189 -81
255 -30 61 -33 63 -53 54z"/>
<path d="M559 1125 c-20 -9 -20 -12 -8 -48 5 -16 10 -33 11 -39 2 -7 4 -13 8
-17 3 -4 8 -14 12 -23 4 -9 9 -21 12 -25 8 -11 17 -34 20 -49 2 -8 5 -16 9
-22 4 -6 7 -13 7 -16 0 -9 4 -16 11 -22 10 -9 9 -45 -1 -58 -3 -5 -7 -11 -8
-14 -2 -3 -6 -9 -10 -13 -3 -4 -10 -16 -15 -26 -5 -10 -11 -20 -13 -22 -3 -2
-6 -8 -8 -12 -2 -5 -7 -13 -12 -17 -4 -5 -9 -12 -12 -16 -2 -4 -8 -14 -13 -23
-6 -8 -13 -20 -16 -25 -4 -6 -6 -14 -8 -26 -2 -10 -4 -20 -5 -22 -1 -2 -2 -9
-2 -15 -1 -16 -2 -23 -7 -26 -2 -1 -8 -5 -14 -8 -12 -9 -9 -9 -124 -14 l-22
-2 -49 24 c-137 64 -137 64 -145 55 -9 -10 -14 -28 -8 -35 3 -4 72 -39 86 -44
6 -1 20 -7 31 -13 12 -5 33 -15 47 -21 l26 -12 58 0 c42 0 61 1 67 3 36 11 58
3 60 -22 1 -10 4 -25 6 -32 7 -21 5 -28 -8 -28 -3 0 -8 -1 -11 -3 -3 -2 -13
-5 -21 -7 -61 -17 -70 -17 -96 -8 -31 12 -49 18 -64 23 -8 3 -23 9 -33 12 -10
4 -23 9 -29 11 -6 2 -23 8 -37 13 -73 26 -72 26 -80 18 -17 -16 -7 -47 15 -47
5 0 23 -6 85 -29 174 -64 166 -62 208 -50 104 31 105 31 118 19 3 -3 11 -8 16
-9 6 -2 13 -6 16 -9 8 -7 28 -22 41 -30 15 -9 14 -3 13 -131 -2 -136 -3 -129
26 -129 30 0 29 -6 27 127 -2 124 -3 114 16 123 18 9 33 23 47 45 6 9 13 20
17 23 7 9 13 21 15 31 1 4 4 15 7 24 3 9 7 22 8 28 1 7 6 20 11 30 13 26 19
62 15 91 -1 9 -3 24 -4 32 -2 17 -9 35 -17 44 -2 3 -5 9 -6 12 -6 29 -22 67
-33 79 -5 6 -11 16 -15 25 -7 13 -29 46 -46 65 -8 10 -9 14 -2 24 3 4 5 10 5
13 0 13 10 35 25 54 14 18 18 24 32 55 4 8 18 34 31 57 14 22 27 45 29 49 15
26 -1 37 -53 37 -38 0 -73 2 -104 6 -26 3 -67 6 -88 7 -10 0 -22 1 -25 3 -8 3
-11 3 -22 -3z m173 -56 c59 -5 63 -8 39 -37 -3 -3 -10 -15 -16 -26 -10 -20
-16 -32 -49 -87 -22 -38 -21 -39 -47 25 -8 20 -21 52 -29 71 -27 68 -35 64
102 54z m-35 -276 c7 -3 34 -41 44 -62 4 -8 9 -18 13 -22 17 -21 24 -17 -92
-62 -16 -6 -37 -15 -47 -18 -40 -16 -46 -9 -19 22 5 7 15 21 22 32 8 11 18 26
24 32 10 11 18 24 37 59 11 21 11 21 18 19z m86 -152 c2 -2 3 -5 3 -6 0 -2 2
-6 4 -11 2 -4 4 -14 5 -26 0 -11 3 -24 5 -31 4 -12 5 -22 2 -34 -3 -8 -4 -9
-48 -28 -16 -7 -44 -19 -62 -27 -78 -34 -102 -44 -104 -44 -7 0 -12 6 -14 19
-1 8 -5 19 -7 26 -10 22 -8 71 3 82 4 5 32 16 105 44 15 6 40 15 54 21 23 9
46 17 49 18 1 0 3 -1 5 -3z m-4 -180 c4 -10 -31 -92 -45 -107 -17 -19 -63 -20
-79 -2 -2 2 -9 8 -15 12 -15 10 -30 24 -30 27 0 5 15 12 119 56 48 20 48 20
50 14z"/>
</g>
</svg>
