<?xml version="1.0" standalone="no"?>
<!DOCTYPE svg PUBLIC "-//W3C//DTD SVG 20010904//EN"
 "http://www.w3.org/TR/2001/REC-SVG-20010904/DTD/svg10.dtd">
<svg version="1.0" xmlns="http://www.w3.org/2000/svg"
 width="95.000000pt" height="100.000000pt" viewBox="0 0 95.000000 100.000000"
 preserveAspectRatio="xMidYMid meet">
<metadata>
Created by potrace 1.16, written by Peter Selinger 2001-2019
</metadata>
<g transform="translate(0.000000,100.000000) scale(0.100000,-0.100000)"
fill="#000000" stroke="none">
<path d="M162 947 c-30 -31 -65 -123 -97 -248 -25 -98 -27 -114 -22 -274 5
-183 15 -232 68 -337 20 -41 35 -58 49 -58 31 0 34 19 7 68 -13 26 -35 79 -48
117 -22 64 -24 86 -23 245 0 161 2 182 28 265 15 50 43 119 62 154 34 63 38
91 11 91 -7 0 -23 -10 -35 -23z"/>
<path d="M467 954 c-14 -14 -6 -48 33 -140 22 -52 40 -102 40 -111 0 -10 -14
-38 -31 -63 -43 -64 -69 -116 -69 -139 0 -62 -97 -70 -217 -17 -68 31 -80 33
-93 20 -20 -20 -3 -34 87 -73 59 -26 84 -31 147 -31 62 0 78 -3 83 -16 10 -26
-10 -48 -51 -57 -31 -8 -54 -3 -146 29 -90 32 -112 36 -122 26 -20 -21 15 -43
131 -82 l101 -34 55 18 c59 18 77 14 123 -27 22 -20 23 -26 16 -112 -5 -76 -4
-93 10 -104 9 -7 23 -11 31 -7 12 4 15 25 15 105 0 89 2 102 19 111 44 23 91
137 91 222 0 51 -25 117 -72 192 l-31 48 52 99 c29 55 50 106 48 113 -4 9 -30
16 -74 20 -37 4 -91 9 -118 12 -28 3 -54 2 -58 -2z m182 -71 c-1 -26 -53 -108
-68 -108 -10 0 -61 102 -61 122 0 2 29 3 65 3 56 0 65 -3 64 -17z m-34 -254
c9 -17 14 -37 11 -44 -5 -14 -115 -59 -123 -51 -7 6 76 126 87 126 5 0 17 -14
25 -31z m53 -144 l3 -40 -85 -37 c-97 -41 -110 -37 -104 28 3 37 5 39 73 66
93 36 109 34 113 -17z m-18 -117 c0 -7 -9 -28 -20 -45 -21 -34 -46 -41 -81
-23 -30 17 -23 34 24 57 48 25 77 29 77 11z"/>
<path d="M754 945 c-3 -7 6 -42 19 -77 90 -224 98 -471 22 -697 -37 -111 -39
-141 -11 -141 25 0 43 37 78 160 31 110 32 123 33 290 0 161 -2 183 -28 275
-35 125 -71 205 -92 205 -8 0 -18 -7 -21 -15z"/>
</g>
</svg>
