<?xml version="1.0" standalone="no"?>
<!DOCTYPE svg PUBLIC "-//W3C//DTD SVG 20010904//EN"
 "http://www.w3.org/TR/2001/REC-SVG-20010904/DTD/svg10.dtd">
<svg version="1.0" xmlns="http://www.w3.org/2000/svg"
 width="140.000000pt" height="148.000000pt" viewBox="0 0 140.000000 148.000000"
 preserveAspectRatio="xMidYMid meet">
<metadata>
Created by potrace 1.16, written by Peter Selinger 2001-2019
</metadata>
<g transform="translate(0.000000,148.000000) scale(0.100000,-0.100000)"
fill="#000000" stroke="none">
<path d="M247 1402 c-19 -21 -85 -152 -99 -197 -5 -16 -25 -91 -44 -165 -34
-133 -35 -139 -35 -342 0 -255 17 -387 62 -478 9 -19 23 -51 30 -70 25 -67 50
-100 74 -100 38 0 38 15 3 82 -90 172 -123 340 -115 578 10 275 68 497 169
648 16 23 26 47 23 52 -10 16 -51 11 -68 -8z"/>
<path d="M1118 1403 c-16 -15 -14 -21 16 -82 36 -71 60 -147 96 -305 19 -84
23 -128 23 -290 0 -241 -11 -311 -86 -517 -20 -53 -37 -109 -39 -125 -3 -25 1
-29 24 -32 24 -3 30 3 47 40 11 24 24 59 29 78 6 19 20 66 32 104 71 225 75
569 9 836 -30 119 -107 310 -126 310 -5 0 -16 -7 -25 -17z"/>
<path d="M680 1395 c-8 -10 -9 -19 -3 -27 6 -7 13 -26 17 -42 6 -26 32 -84 97
-221 26 -54 24 -79 -10 -128 -74 -108 -131 -204 -132 -222 -3 -82 -18 -94
-119 -96 -105 -3 -95 -5 -214 51 -59 27 -111 50 -116 50 -11 0 -23 -37 -16
-49 3 -4 58 -32 122 -61 l117 -53 112 6 113 6 6 -39 c3 -21 8 -45 12 -53 3 -9
-3 -17 -18 -21 -104 -31 -129 -35 -150 -26 -13 5 -85 33 -162 61 -119 43 -141
49 -153 37 -20 -21 -6 -46 30 -57 18 -5 84 -28 147 -52 147 -54 166 -56 258
-29 85 24 83 24 170 -34 l42 -29 0 -159 0 -159 28 3 27 3 3 151 c2 148 3 151
26 162 38 17 83 92 117 194 26 76 30 103 26 151 -3 32 -12 69 -21 82 -9 13
-16 33 -16 43 0 10 -13 39 -30 65 -16 26 -30 50 -30 53 0 3 -14 23 -31 44 -30
37 -30 40 -19 77 7 21 26 56 41 77 16 22 29 43 29 47 0 4 18 38 40 77 63 109
66 107 -120 117 -63 4 -136 8 -161 11 -33 3 -50 0 -59 -11z m293 -65 c9 -8
-104 -219 -118 -220 -9 0 -95 203 -95 226 0 12 199 7 213 -6z m-66 -388 c14
-26 33 -55 41 -64 17 -20 26 -14 -122 -73 -50 -19 -94 -35 -98 -35 -17 0 -6
24 36 80 25 32 52 74 62 92 35 70 41 70 81 0z m88 -219 c5 -41 3 -59 -7 -68
-14 -14 -247 -115 -264 -115 -15 0 -35 101 -26 134 7 27 21 35 138 81 148 59
147 59 159 -32z m-40 -209 c-39 -101 -87 -120 -163 -62 -23 18 -39 35 -34 39
4 4 48 23 97 44 50 21 95 42 100 47 18 16 18 -22 0 -68z"/>
</g>
</svg>
