<?xml version="1.0" standalone="no"?>
<!DOCTYPE svg PUBLIC "-//W3C//DTD SVG 20010904//EN"
 "http://www.w3.org/TR/2001/REC-SVG-20010904/DTD/svg10.dtd">
<svg version="1.0" xmlns="http://www.w3.org/2000/svg"
 width="57.000000pt" height="100.000000pt" viewBox="0 0 57.000000 100.000000"
 preserveAspectRatio="xMidYMid meet">
<metadata>
Created by potrace 1.16, written by Peter Selinger 2001-2019
</metadata>
<g transform="translate(0.000000,100.000000) scale(0.100000,-0.100000)"
fill="#000000" stroke="none">
<path d="M224 956 c-3 -7 20 -50 50 -96 31 -46 56 -93 56 -104 0 -45 -21 -91
-59 -127 -21 -21 -45 -57 -53 -81 -14 -42 -16 -43 -59 -43 -41 0 -44 2 -49 30
-4 22 -11 30 -25 30 -16 0 -21 -8 -23 -44 -2 -24 2 -49 8 -55 6 -6 39 -11 73
-11 l62 0 3 -32 c3 -28 -2 -36 -30 -53 -45 -27 -59 -25 -89 12 -18 21 -32 29
-43 25 -23 -9 -20 -29 14 -75 35 -48 51 -51 115 -20 l45 22 43 -42 42 -43 0
-102 0 -102 44 -3 44 -3 -7 101 c-6 82 -4 101 6 98 9 -3 14 -32 16 -95 2 -61
7 -95 16 -102 28 -23 35 10 26 114 l-9 100 37 53 c30 45 36 62 36 105 0 81
-52 196 -113 251 -19 17 -21 30 -21 115 0 53 -4 101 -8 107 -12 18 -113 84
-128 84 -8 0 -17 -6 -20 -14z m154 -338 c7 -7 12 -17 12 -24 0 -14 -106 -71
-116 -62 -8 9 32 75 54 88 23 13 36 12 50 -2z m56 -84 c9 -24 2 -30 -78 -68
-87 -42 -98 -44 -94 -13 2 16 22 32 73 59 79 42 90 45 99 22z m34 -91 c4 -26
-9 -36 -101 -72 -93 -37 -97 -37 -97 -8 0 19 14 30 88 64 48 23 92 40 97 39 6
-2 11 -12 13 -23z m-28 -97 c0 -24 -50 -56 -86 -56 -56 0 -44 20 31 52 50 21
55 21 55 4z"/>
</g>
</svg>
