<?xml version="1.0" standalone="no"?>
<!DOCTYPE svg PUBLIC "-//W3C//DTD SVG 20010904//EN"
 "http://www.w3.org/TR/2001/REC-SVG-20010904/DTD/svg10.dtd">
<svg version="1.0" xmlns="http://www.w3.org/2000/svg"
 width="84.000000pt" height="148.000000pt" viewBox="0 0 84.000000 148.000000"
 preserveAspectRatio="xMidYMid meet">
<metadata>
Created by potrace 1.16, written by Peter Selinger 2001-2019
</metadata>
<g transform="translate(0.000000,148.000000) scale(0.100000,-0.100000)"
fill="#000000" stroke="none">
<path d="M328 1414 c-9 -8 3 -42 17 -47 7 -3 36 -45 65 -94 29 -48 59 -96 67
-105 11 -12 14 -35 10 -88 l-4 -71 -66 -67 c-63 -64 -107 -139 -107 -183 0
-25 -37 -39 -100 -39 l-49 0 -7 56 c-7 59 -23 76 -50 53 -13 -11 -15 -25 -9
-79 4 -36 12 -68 18 -72 6 -3 52 -4 104 -1 l93 6 0 -62 0 -61 -62 -30 c-34
-17 -68 -30 -75 -30 -7 0 -29 25 -49 55 -30 48 -37 54 -54 45 -11 -6 -20 -18
-20 -26 0 -21 78 -134 98 -141 9 -4 47 10 87 30 39 20 75 37 79 37 5 0 38 -30
74 -68 l66 -67 0 -155 c1 -148 2 -155 21 -155 19 0 20 8 23 152 1 84 6 153 11
153 10 0 21 -122 21 -227 0 -66 2 -73 19 -73 11 0 22 4 25 8 3 5 1 74 -4 152
-7 96 -7 147 0 154 22 22 31 -16 37 -162 5 -122 9 -152 21 -157 36 -13 40 13
27 180 l-12 160 37 40 c43 46 80 129 80 177 -1 18 -8 51 -16 73 -9 22 -18 51
-21 65 -5 27 -18 62 -36 95 -6 11 -17 32 -25 48 -7 15 -35 45 -61 67 l-48 41
5 148 5 148 -42 29 c-23 16 -61 44 -84 61 -38 30 -93 44 -109 27z m172 -161
c0 -20 -18 -15 -30 6 -15 28 -12 33 10 19 11 -7 20 -18 20 -25z m57 -335 c18
-18 33 -35 33 -39 0 -16 -195 -127 -206 -117 -15 15 21 79 73 132 32 31 60 56
62 56 3 0 20 -14 38 -32z m86 -128 c18 -46 18 -46 -73 -86 -36 -16 -91 -43
-123 -61 -33 -18 -63 -31 -67 -28 -4 3 -7 24 -6 46 2 39 6 44 47 64 24 12 76
40 114 63 39 22 75 40 81 41 6 1 18 -17 27 -39z m51 -112 c13 -52 7 -68 -31
-84 -95 -38 -210 -88 -226 -98 -15 -9 -22 -7 -38 13 -34 41 -25 53 68 96 47
22 109 52 137 67 64 33 82 34 90 6z m-24 -142 c0 -7 -17 -32 -37 -55 -29 -32
-50 -45 -93 -55 -49 -13 -57 -13 -73 2 -24 22 -12 32 98 81 102 45 105 46 105
27z"/>
</g>
</svg>
