<?xml version="1.0" standalone="no"?>
<!DOCTYPE svg PUBLIC "-//W3C//DTD SVG 20010904//EN"
 "http://www.w3.org/TR/2001/REC-SVG-20010904/DTD/svg10.dtd">
<svg version="1.0" xmlns="http://www.w3.org/2000/svg"
 width="338.000000pt" height="590.000000pt" viewBox="0 0 338.000000 590.000000"
 preserveAspectRatio="xMidYMid meet">
<metadata>
Created by potrace 1.16, written by Peter Selinger 2001-2019
</metadata>
<g transform="translate(0.000000,590.000000) scale(0.500000,-0.500000)"
fill="#000000" stroke="none">
<path d="M275 1138 c-17 -7 -14 -33 5 -47 12 -9 25 -26 29 -37 3 -8 5 -12 36
-61 10 -15 21 -33 25 -40 3 -7 10 -17 15 -23 13 -14 16 -32 11 -53 -1 -4 -3
-20 -4 -34 -2 -35 -4 -39 -36 -71 -14 -13 -34 -33 -46 -45 -26 -25 -31 -32
-39 -57 -4 -10 -10 -25 -13 -33 -4 -9 -7 -18 -8 -27 -2 -24 -13 -29 -71 -28
-52 1 -48 -4 -53 55 -2 29 -17 40 -38 29 -9 -5 -11 -108 -2 -119 4 -4 60 -6
128 -2 43 2 60 -83 21 -103 -103 -52 -92 -52 -129 3 -29 43 -31 45 -46 39 -24
-11 -24 -27 0 -61 4 -6 10 -15 13 -21 32 -63 49 -68 117 -32 78 41 72 40 93
10 10 -16 17 -23 29 -32 8 -7 19 -17 23 -23 5 -6 13 -13 18 -17 17 -12 16 2
14 -132 -2 -139 -4 -127 21 -127 23 0 21 -11 21 122 0 107 0 116 3 118 8 5 9
0 10 -71 3 -174 3 -168 25 -168 25 0 25 -1 17 140 -6 105 -6 106 7 109 7 1 13
-3 13 -9 0 -1 1 -28 3 -58 2 -30 4 -81 5 -113 2 -71 2 -71 28 -71 21 0 22 4
17 62 -2 18 -5 63 -7 99 -2 36 -5 75 -5 85 -2 25 -1 29 10 36 11 8 40 41 45
51 32 68 34 75 34 106 0 15 -1 25 -3 31 -2 5 -3 12 -3 17 0 6 -3 14 -8 25 -10
22 -18 48 -18 58 0 4 -2 11 -5 17 -3 5 -5 12 -6 16 -2 12 -12 31 -24 46 -6 7
-12 17 -13 21 -3 9 -28 38 -49 55 -38 31 -45 43 -36 67 2 7 3 19 3 53 0 38 1
46 4 59 18 67 3 95 -73 140 -7 4 -22 15 -34 24 -29 22 -56 30 -74 22z m156
-385 c16 -9 48 -45 46 -52 -2 -4 -37 -28 -60 -40 -10 -5 -22 -13 -27 -16 -5
-4 -16 -9 -24 -13 -9 -3 -22 -10 -29 -14 -24 -15 -29 -9 -19 22 13 37 13 38
61 83 37 35 39 36 52 30z m73 -93 c2 -1 5 -6 8 -12 2 -6 8 -18 12 -27 9 -21 2
-30 -37 -44 -8 -3 -22 -10 -31 -15 -10 -6 -23 -12 -30 -15 -12 -4 -33 -14 -83
-41 -32 -17 -41 -13 -34 15 3 12 3 16 1 23 -5 17 -2 22 23 31 22 9 37 16 55
30 9 7 22 14 27 16 6 2 13 5 17 7 4 2 12 6 18 9 6 2 16 7 21 11 16 11 27 15
33 12z m46 -101 c38 -33 15 -77 -50 -95 -9 -2 -18 -6 -22 -10 -5 -3 -15 -9
-23 -12 -23 -9 -49 -19 -58 -22 -4 -1 -17 -7 -28 -12 -30 -15 -37 -13 -50 12
-12 25 -9 34 16 44 14 6 37 18 58 32 5 3 11 6 12 6 1 0 9 4 19 8 9 4 27 11 38
15 26 8 36 13 49 23 9 7 17 11 33 14 1 0 3 -2 6 -3z m-9 -125 c1 -2 -7 -17
-20 -38 -20 -29 -46 -46 -77 -50 -9 -1 -22 -4 -29 -5 -22 -5 -39 2 -44 17 -2
6 33 30 44 30 1 0 9 3 16 7 7 4 21 10 31 14 10 4 21 8 24 10 21 11 52 20 55
15z"/>
</g>
</svg>
