<?xml version="1.0" standalone="no"?>
<!DOCTYPE svg PUBLIC "-//W3C//DTD SVG 20010904//EN"
 "http://www.w3.org/TR/2001/REC-SVG-20010904/DTD/svg10.dtd">
<svg version="1.0" xmlns="http://www.w3.org/2000/svg"
 width="64.000000pt" height="100.000000pt" viewBox="0 0 64.000000 100.000000"
 preserveAspectRatio="xMidYMid meet">
<metadata>
Created by potrace 1.16, written by Peter Selinger 2001-2019
</metadata>
<g transform="translate(0.000000,100.000000) scale(0.100000,-0.100000)"
fill="#000000" stroke="none">
<path d="M254 955 c-3 -8 10 -48 30 -89 50 -103 50 -165 1 -229 -20 -26 -37
-62 -41 -86 -8 -47 -25 -65 -53 -56 -13 4 -21 17 -23 38 -2 24 -8 32 -23 32
-16 0 -21 -8 -23 -37 -5 -57 12 -80 56 -78 58 3 62 1 62 -25 0 -27 -32 -65
-55 -65 -8 0 -19 9 -25 20 -11 21 -35 27 -45 10 -9 -14 22 -79 40 -87 9 -3 32
2 51 11 19 9 37 16 39 16 3 0 16 -18 30 -40 23 -36 25 -50 25 -144 l0 -104 53
1 52 2 5 110 c4 94 9 118 32 165 17 34 28 71 28 97 0 57 -42 185 -74 228 -24
31 -26 41 -26 137 l0 104 -43 42 c-45 44 -64 51 -73 27z m149 -428 c3 -8 2
-18 -1 -23 -12 -16 -91 -64 -107 -64 -30 0 -15 39 28 68 46 33 72 39 80 19z
m24 -83 c7 -19 -16 -43 -77 -77 -32 -18 -50 -23 -60 -17 -22 14 -2 39 61 77
62 38 67 39 76 17z m-27 -106 c0 -7 -7 -22 -15 -32 -9 -12 -15 -43 -16 -75 0
-31 -4 -76 -8 -101 -6 -42 -7 -38 -14 45 -4 50 -10 102 -13 117 -5 22 -1 29
22 42 36 19 44 20 44 4z"/>
<path d="M443 933 c-3 -9 0 -26 8 -39 8 -12 26 -42 41 -66 48 -77 68 -181 68
-353 0 -143 -2 -157 -30 -234 -16 -45 -39 -99 -51 -121 -23 -40 -20 -70 6 -70
18 0 53 68 94 183 29 84 31 96 31 235 0 212 -36 358 -107 441 -38 45 -50 50
-60 24z"/>
<path d="M119 893 c-18 -25 -43 -80 -57 -122 -23 -68 -26 -97 -30 -266 l-4
-190 31 -95 c37 -111 70 -174 93 -178 29 -6 31 34 3 82 -14 24 -39 81 -56 127
-31 84 -31 84 -26 244 4 136 9 172 31 240 14 44 41 102 60 128 19 27 32 55 29
63 -10 28 -42 14 -74 -33z"/>
</g>
</svg>
