<?xml version="1.0" standalone="no"?>
<!DOCTYPE svg PUBLIC "-//W3C//DTD SVG 20010904//EN"
 "http://www.w3.org/TR/2001/REC-SVG-20010904/DTD/svg10.dtd">
<svg version="1.0" xmlns="http://www.w3.org/2000/svg"
 width="94.000000pt" height="148.000000pt" viewBox="0 0 94.000000 148.000000"
 preserveAspectRatio="xMidYMid meet">
<metadata>
Created by potrace 1.16, written by Peter Selinger 2001-2019
</metadata>
<g transform="translate(0.000000,148.000000) scale(0.100000,-0.100000)"
fill="#000000" stroke="none">
<path d="M371 1416 c-8 -10 -6 -17 8 -30 10 -9 21 -35 25 -57 7 -44 18 -67 59
-121 27 -35 27 -39 21 -118 -6 -72 -11 -88 -41 -129 -62 -86 -71 -103 -84
-163 -15 -66 -31 -81 -82 -76 -30 3 -32 5 -35 50 -4 55 -25 80 -49 56 -12 -13
-14 -29 -8 -88 l7 -73 79 6 79 6 0 -54 c0 -53 -1 -55 -46 -85 -25 -18 -48 -30
-51 -27 -2 3 -12 20 -21 39 -22 43 -62 52 -62 14 0 -27 37 -115 49 -117 3 0
15 -2 25 -4 11 -2 38 9 60 26 51 37 64 37 81 -3 8 -18 26 -46 40 -63 24 -29
25 -34 25 -188 0 -134 2 -159 16 -164 34 -13 39 13 36 180 -3 143 -6 164 -23
183 -10 11 -19 25 -19 31 0 12 129 93 148 93 7 0 12 -2 12 -3 0 -14 -34 -67
-55 -87 -25 -23 -25 -24 -25 -207 0 -158 2 -184 16 -190 33 -12 38 13 35 171
-3 155 -3 155 24 191 32 41 75 153 75 193 0 23 -15 87 -46 202 -12 45 -47 114
-78 154 l-31 38 4 153 3 152 -55 55 c-58 59 -97 77 -116 54z m103 -122 c3 -8
2 -12 -4 -9 -6 3 -10 10 -10 16 0 14 7 11 14 -7z m62 -379 c22 -29 24 -38 14
-50 -17 -20 -130 -105 -140 -105 -18 0 16 89 53 138 22 28 41 52 43 52 2 0 15
-16 30 -35z m58 -111 c18 -47 8 -62 -85 -123 -51 -34 -95 -61 -100 -61 -4 0
-7 20 -7 45 0 25 3 45 7 45 5 0 41 25 82 55 79 58 93 64 103 39z m37 -131 c15
-39 4 -68 -33 -87 -18 -10 -62 -34 -98 -56 -71 -41 -90 -39 -90 9 0 22 12 35
58 68 31 22 67 43 78 47 12 3 29 15 39 26 24 27 34 25 46 -7z"/>
<path d="M650 1373 c1 -10 22 -47 49 -81 36 -48 56 -88 79 -160 49 -158 52
-180 52 -425 0 -186 -3 -241 -16 -277 -9 -25 -22 -67 -29 -95 -16 -60 -58
-150 -87 -187 -15 -18 -19 -34 -14 -52 9 -37 29 -32 52 11 11 21 25 47 31 58
29 53 54 116 73 180 12 39 26 80 31 93 16 41 11 487 -7 567 -8 39 -19 86 -23
105 -11 46 -47 136 -73 180 -47 79 -119 129 -118 83z"/>
<path d="M192 1328 c-36 -48 -46 -66 -72 -133 -22 -57 -42 -128 -59 -213 -13
-64 -15 -512 -2 -544 5 -13 14 -43 21 -68 18 -65 30 -100 51 -145 10 -22 20
-47 23 -55 16 -43 55 -95 72 -95 30 0 28 32 -4 83 -36 56 -68 126 -77 167 -4
17 -17 57 -28 90 -20 55 -22 79 -21 283 1 239 6 275 57 432 26 79 68 156 98
180 9 8 29 47 29 59 0 6 -11 11 -24 11 -17 0 -35 -15 -64 -52z"/>
</g>
</svg>
