<?xml version="1.0" standalone="no"?>
<!DOCTYPE svg PUBLIC "-//W3C//DTD SVG 20010904//EN"
 "http://www.w3.org/TR/2001/REC-SVG-20010904/DTD/svg10.dtd">
<svg version="1.0" xmlns="http://www.w3.org/2000/svg"
 width="378.000000pt" height="590.000000pt" viewBox="0 0 378.000000 590.000000"
 preserveAspectRatio="xMidYMid meet">
<metadata>
Created by potrace 1.16, written by Peter Selinger 2001-2019
</metadata>
<g transform="translate(0.000000,590.000000) scale(0.500000,-0.500000)"
fill="#000000" stroke="none">
<path d="M302 1137 c-10 -5 -8 -13 7 -29 14 -15 14 -16 16 -37 2 -27 21 -72
41 -97 5 -7 10 -13 10 -14 0 -1 4 -6 9 -12 10 -11 11 -32 5 -74 -1 -7 -2 -23
-3 -36 -1 -31 -14 -58 -41 -87 -21 -22 -42 -58 -46 -78 -1 -7 -6 -22 -9 -34
-4 -12 -7 -25 -7 -30 0 -21 -11 -27 -50 -27 -40 0 -38 -3 -41 52 -2 28 -6 34
-23 34 -18 0 -21 -7 -19 -51 0 -20 1 -44 2 -55 0 -29 -2 -28 65 -22 74 6 66
11 66 -41 1 -45 4 -39 -39 -66 -37 -23 -39 -23 -46 -8 -20 45 -22 47 -40 49
-24 1 -30 -14 -15 -45 4 -10 10 -24 13 -32 13 -34 17 -39 35 -40 21 -2 27 0
76 34 24 17 26 16 40 -12 7 -13 16 -26 23 -33 6 -7 13 -16 15 -20 2 -4 6 -10
9 -13 13 -16 13 -17 8 -163 -3 -108 -5 -102 23 -102 29 0 26 -12 25 138 l-2
128 -14 17 c-18 21 -22 28 -18 34 7 11 105 69 117 69 9 0 -15 -51 -30 -64 -32
-27 -29 -10 -30 -204 -1 -128 -3 -117 22 -118 27 -1 24 -14 24 133 0 141 -2
130 16 150 14 15 32 44 36 60 3 8 7 21 10 29 21 56 22 85 3 148 -3 9 -7 22 -9
29 -2 7 -4 16 -5 21 -1 5 -3 14 -5 21 -2 7 -5 18 -7 25 -2 8 -7 20 -12 27 -4
8 -9 19 -11 26 -4 12 -25 43 -40 60 -22 24 -27 36 -24 55 2 10 3 35 7 158 2
61 4 55 -46 105 -22 22 -43 41 -46 42 -9 4 -38 4 -45 0z m122 -392 c36 -38 35
-42 -20 -86 -50 -41 -72 -53 -72 -40 0 34 23 77 68 127 8 8 15 8 24 -1z m51
-93 c4 -8 13 -40 13 -47 0 -7 -12 -20 -30 -29 -6 -3 -16 -9 -21 -13 -6 -4 -15
-11 -22 -15 -7 -3 -23 -14 -37 -24 -37 -26 -38 -26 -44 -26 -20 3 -6 66 18 80
10 6 25 17 34 25 8 8 17 16 20 17 9 5 39 25 47 31 10 9 18 9 22 1z m29 -98
c10 -20 13 -57 5 -65 -9 -8 -26 -19 -38 -23 -6 -3 -15 -8 -20 -12 -4 -4 -21
-14 -38 -23 -16 -9 -35 -19 -42 -23 -19 -13 -25 -11 -34 10 -8 19 -7 33 4 41
4 3 17 12 29 21 29 21 44 31 70 43 15 7 26 14 33 21 16 15 26 18 31 10z"/>
<path d="M536 1111 c-16 -9 -8 -39 17 -65 23 -23 53 -69 57 -85 4 -17 13 -42
21 -62 5 -12 11 -29 13 -38 2 -9 6 -20 8 -25 2 -5 4 -12 4 -16 0 -4 3 -20 6
-36 7 -34 7 -29 11 -125 6 -123 2 -271 -6 -287 -2 -3 -5 -13 -7 -21 -2 -8 -6
-18 -8 -23 -2 -4 -6 -15 -8 -23 -2 -8 -5 -18 -7 -23 -2 -5 -5 -18 -7 -28 -3
-16 -7 -26 -18 -47 -7 -14 -15 -30 -16 -34 -4 -12 -16 -32 -27 -45 -16 -18
-20 -30 -17 -48 6 -31 35 -21 51 17 1 5 8 17 14 27 6 11 12 23 14 28 1 5 9 23
18 40 8 17 16 35 17 40 1 5 6 22 11 37 5 15 11 34 12 42 2 7 6 22 10 33 13 34
21 322 11 396 -5 38 -8 59 -12 70 -2 6 -4 13 -4 15 0 14 -19 91 -28 112 -12
29 -16 40 -21 53 -5 15 -12 28 -18 37 -2 3 -7 11 -10 17 -10 18 -47 59 -60 65
-12 6 -14 6 -21 2z"/>
<path d="M194 1103 c-6 -3 -13 -9 -18 -16 -5 -5 -14 -15 -20 -21 -6 -7 -13
-17 -17 -23 -3 -6 -10 -17 -15 -25 -5 -8 -11 -22 -14 -30 -3 -8 -10 -27 -16
-42 -14 -32 -29 -88 -34 -122 -1 -7 -3 -16 -4 -19 -6 -15 -12 -59 -13 -100 -3
-56 -2 -267 1 -292 1 -13 3 -32 4 -42 1 -12 3 -23 8 -34 3 -8 7 -20 8 -27 7
-35 30 -101 46 -134 6 -13 12 -26 13 -29 1 -3 6 -15 12 -25 6 -10 14 -27 19
-36 15 -32 32 -41 45 -23 11 15 6 41 -13 62 -12 13 -23 31 -28 46 -2 7 -7 17
-11 23 -11 18 -19 37 -23 58 -3 10 -6 23 -8 28 -2 5 -5 14 -6 19 -1 6 -5 16
-8 23 -3 7 -7 19 -9 26 -2 7 -5 15 -7 18 -9 15 -10 353 0 384 1 4 4 20 7 36 6
32 7 36 13 58 8 26 11 37 20 56 4 10 10 29 14 42 10 34 32 70 62 100 36 36 30
80 -8 61z"/>
</g>
</svg>
