<?xml version="1.0" standalone="no"?>
<!DOCTYPE svg PUBLIC "-//W3C//DTD SVG 20010904//EN"
 "http://www.w3.org/TR/2001/REC-SVG-20010904/DTD/svg10.dtd">
<svg version="1.0" xmlns="http://www.w3.org/2000/svg"
 width="346.000000pt" height="590.000000pt" viewBox="0 0 346.000000 590.000000"
 preserveAspectRatio="xMidYMid meet">
<metadata>
Created by potrace 1.16, written by Peter Selinger 2001-2019
</metadata>
<g transform="translate(0.000000,590.000000) scale(0.500000,-0.500000)"
fill="#000000" stroke="none">
<path d="M349 1114 c-4 -2 -11 -4 -15 -5 -9 -1 -13 -6 -15 -14 -1 -3 -3 -10
-5 -15 -5 -12 -5 -23 0 -35 2 -6 4 -13 5 -17 5 -22 57 -81 84 -95 20 -9 20
-16 5 -53 -3 -8 -8 -20 -11 -28 -6 -16 -18 -44 -37 -83 -19 -39 -21 -44 -30
-56 -9 -12 -19 -34 -30 -64 -4 -12 -10 -29 -13 -37 -4 -11 -6 -20 -7 -41 -1
-19 -3 -29 -6 -38 -5 -11 -5 -15 -5 -69 0 -63 1 -60 -13 -66 -5 -2 -31 -16
-57 -30 -64 -34 -56 -36 -92 15 -27 37 -30 38 -56 17 -18 -14 -18 -16 11 -54
21 -26 21 -27 10 -29 -34 -5 -43 -29 -22 -60 6 -10 20 -31 30 -48 39 -62 33
-62 121 -8 56 35 89 55 103 62 9 5 14 -1 25 -32 17 -46 23 -56 41 -76 9 -10
24 -27 32 -39 24 -33 34 -42 71 -57 17 -8 24 -12 31 -20 17 -16 52 -22 72 -12
11 5 34 28 34 33 0 3 2 12 4 21 11 45 4 71 -44 149 -19 31 -19 34 -8 51 7 11
26 58 36 92 20 64 21 201 3 253 -26 74 -45 110 -72 137 -12 12 -26 28 -30 35
-14 21 -18 25 -26 31 -18 11 -18 12 -7 41 3 9 8 25 11 34 2 9 8 25 12 34 22
49 27 138 8 138 -1 0 -5 3 -10 7 -4 3 -11 8 -15 10 -4 2 -10 6 -14 9 -4 3 -12
6 -16 7 -5 1 -11 3 -14 5 -8 5 -68 6 -79 0z m63 -63 c29 -10 35 -16 35 -38 -1
-32 -16 -35 -40 -7 -36 42 -34 58 5 45z m60 -323 c14 -14 19 -34 13 -42 -7 -8
-124 -85 -133 -87 -10 -3 -4 34 11 57 15 25 21 32 27 35 4 2 11 6 15 10 4 4
11 8 15 10 4 2 9 6 12 8 16 14 32 18 40 9z m63 -95 c8 -11 17 -35 17 -44 0 -4
-6 -7 -14 -7 -6 0 -22 -10 -88 -54 -137 -91 -125 -86 -125 -49 0 39 -4 34 91
99 114 77 106 73 119 55z m19 -105 c8 -6 10 -29 5 -48 -2 -6 -3 -14 -3 -18 0
-17 -3 -19 -153 -111 -54 -34 -52 -34 -65 -7 -16 31 -17 54 -3 54 8 0 -4 -7
123 76 93 60 90 59 96 54z m-26 -168 c4 -8 -3 -30 -15 -42 -2 -3 -7 -11 -11
-19 -9 -17 -93 -63 -113 -61 -37 4 -19 36 40 72 93 56 95 57 99 50z m-246 -27
c7 -21 9 -19 -43 -48 -25 -14 -54 -29 -63 -33 -9 -5 -20 -11 -23 -13 -15 -11
-18 -10 -35 17 -23 33 -29 48 -15 39 5 -4 11 -6 22 -7 9 -1 19 -2 22 -3 8 -2
15 2 70 33 51 29 49 28 56 27 5 0 6 -1 9 -12z m235 -119 c16 -24 14 -27 -27
-46 -38 -18 -43 -18 -56 0 -13 19 1 39 31 45 4 1 12 4 17 8 18 11 24 10 35 -7z
m37 -79 c3 -7 4 -26 1 -30 -9 -12 -59 -1 -52 11 7 11 47 26 51 19z"/>
</g>
</svg>
