<?xml version="1.0" standalone="no"?>
<!DOCTYPE svg PUBLIC "-//W3C//DTD SVG 20010904//EN"
 "http://www.w3.org/TR/2001/REC-SVG-20010904/DTD/svg10.dtd">
<svg version="1.0" xmlns="http://www.w3.org/2000/svg"
 width="58.000000pt" height="100.000000pt" viewBox="0 0 58.000000 100.000000"
 preserveAspectRatio="xMidYMid meet">
<metadata>
Created by potrace 1.16, written by Peter Selinger 2001-2019
</metadata>
<g transform="translate(0.000000,100.000000) scale(0.100000,-0.100000)"
fill="#000000" stroke="none">
<path d="M278 939 c-36 -21 -8 -112 43 -139 30 -16 21 -60 -31 -163 -41 -79
-70 -189 -70 -263 0 -30 -5 -36 -50 -59 l-49 -25 -23 30 c-37 51 -89 29 -55
-24 14 -21 14 -25 -1 -40 -15 -15 -15 -19 8 -62 39 -71 51 -73 131 -20 38 25
71 46 74 46 2 0 14 -19 26 -42 34 -66 68 -107 114 -133 52 -31 89 -32 109 -3
22 31 20 51 -11 120 l-26 59 21 62 c16 46 22 85 22 150 0 103 -12 138 -77 221
l-46 59 22 83 c25 97 20 117 -34 140 -40 16 -73 18 -97 3z m120 -345 c2 -16
-9 -29 -44 -52 -44 -30 -64 -33 -64 -11 0 5 16 27 37 49 38 43 66 48 71 14z
m52 -69 c16 -20 13 -23 -85 -85 -77 -49 -104 -53 -91 -14 7 19 131 111 152
113 6 1 17 -6 24 -14z m16 -99 c10 -25 -15 -55 -84 -101 -70 -47 -96 -55 -106
-30 -6 16 2 45 13 45 4 0 41 22 82 50 81 54 87 57 95 36z m-38 -161 c-14 -30
-95 -72 -110 -57 -15 15 -3 29 55 62 57 32 72 31 55 -5z m-190 7 c2 -6 -24
-25 -58 -42 -49 -25 -65 -29 -76 -19 -17 14 -18 29 -1 29 6 0 35 11 62 24 53
26 66 27 73 8z"/>
</g>
</svg>
