<?xml version="1.0" standalone="no"?>
<!DOCTYPE svg PUBLIC "-//W3C//DTD SVG 20010904//EN"
 "http://www.w3.org/TR/2001/REC-SVG-20010904/DTD/svg10.dtd">
<svg version="1.0" xmlns="http://www.w3.org/2000/svg"
 width="86.000000pt" height="148.000000pt" viewBox="0 0 86.000000 148.000000"
 preserveAspectRatio="xMidYMid meet">
<metadata>
Created by potrace 1.16, written by Peter Selinger 2001-2019
</metadata>
<g transform="translate(0.000000,148.000000) scale(0.100000,-0.100000)"
fill="#000000" stroke="none">
<path d="M422 1390 c-27 -11 -43 -49 -35 -81 8 -34 62 -103 101 -129 17 -13
32 -28 32 -35 0 -20 -67 -172 -107 -243 -54 -97 -70 -163 -80 -314 l-5 -87
-75 -41 c-41 -22 -78 -40 -81 -40 -4 0 -20 20 -35 45 -35 55 -41 59 -67 43
-31 -20 -24 -49 26 -101 56 -58 81 -60 163 -12 32 19 66 35 75 35 13 0 34 -37
24 -44 -1 -2 -46 -26 -99 -55 l-97 -51 -36 55 c-21 30 -39 55 -42 55 -14 0
-44 -22 -44 -33 0 -18 89 -147 105 -153 8 -3 64 24 125 61 62 37 115 63 119
59 4 -5 17 -33 29 -62 24 -59 122 -177 155 -188 12 -4 34 -15 49 -25 37 -27
89 -25 116 4 17 18 22 36 22 78 0 45 -7 66 -41 124 -38 65 -40 71 -26 95 37
65 60 157 65 263 4 94 2 115 -18 170 -36 98 -65 147 -125 211 l-55 59 30 86
c40 117 48 176 25 201 -42 47 -138 72 -193 50z m129 -96 c16 -19 3 -64 -19
-64 -25 1 -75 70 -61 86 12 15 60 2 80 -22z m-13 -336 c-6 -18 -28 -21 -28 -4
0 9 7 16 16 16 9 0 14 -5 12 -12z m58 -63 c13 -19 14 -28 5 -39 -20 -24 -171
-119 -178 -112 -4 3 2 27 13 53 14 33 35 59 69 85 59 45 69 46 91 13z m72
-110 c17 -36 15 -55 -5 -62 -10 -3 -71 -42 -136 -86 -74 -50 -122 -76 -128
-70 -17 17 3 73 35 99 64 49 201 143 212 143 6 1 16 -10 22 -24z m27 -185 c-4
-21 -14 -45 -23 -53 -26 -23 -228 -147 -239 -147 -13 0 -33 45 -33 75 0 15 6
25 14 25 8 0 72 38 142 85 140 92 152 93 139 15z m-35 -161 c0 -5 -12 -28 -27
-50 -19 -29 -45 -50 -87 -70 -66 -32 -86 -31 -86 3 0 18 20 35 93 79 87 53
107 60 107 38z m-17 -172 c18 -28 13 -39 -30 -61 -42 -21 -70 -20 -82 2 -13
24 -1 41 45 62 51 24 49 24 67 -3z m47 -121 c0 -16 -7 -26 -21 -29 -44 -12
-68 21 -31 42 31 18 52 13 52 -13z"/>
</g>
</svg>
