<?xml version="1.0" standalone="no"?>
<!DOCTYPE svg PUBLIC "-//W3C//DTD SVG 20010904//EN"
 "http://www.w3.org/TR/2001/REC-SVG-20010904/DTD/svg10.dtd">
<svg version="1.0" xmlns="http://www.w3.org/2000/svg"
 width="73.000000pt" height="100.000000pt" viewBox="0 0 73.000000 100.000000"
 preserveAspectRatio="xMidYMid meet">
<metadata>
Created by potrace 1.16, written by Peter Selinger 2001-2019
</metadata>
<g transform="translate(0.000000,100.000000) scale(0.100000,-0.100000)"
fill="#000000" stroke="none">
<path d="M234 959 c-7 -12 12 -29 34 -29 7 0 19 -18 28 -40 11 -27 24 -42 40
-46 22 -6 24 -11 24 -70 0 -52 -6 -76 -31 -125 -16 -33 -33 -83 -36 -111 l-6
-50 -36 5 c-20 3 -48 9 -63 12 -21 6 -29 3 -35 -10 -10 -27 24 -45 84 -45 39
0 53 -4 53 -14 0 -20 -68 -42 -83 -27 -19 19 -57 13 -57 -8 0 -31 90 -66 105
-41 3 6 12 10 19 10 10 0 15 -36 20 -142 3 -78 11 -147 17 -155 6 -7 24 -13
39 -13 39 0 64 35 80 110 10 49 18 64 40 75 29 15 91 80 111 116 17 32 4 189
-20 244 -14 31 -36 55 -79 85 l-59 42 -7 76 c-8 88 -25 126 -66 147 -34 18
-106 20 -116 4z m271 -362 c0 -24 -149 -107 -165 -91 -18 18 -1 40 63 77 67
38 102 43 102 14z m33 -74 c3 -17 -14 -30 -94 -72 -53 -28 -101 -51 -105 -51
-5 0 -9 11 -9 25 0 20 14 32 93 73 50 27 97 48 102 47 6 -1 11 -11 13 -22z m6
-78 c3 -8 3 -22 0 -30 -6 -15 -178 -135 -194 -135 -13 0 -20 30 -14 56 5 18
25 34 75 59 38 19 79 41 91 50 28 19 34 19 42 0z"/>
<path d="M480 899 c0 -11 23 -46 50 -77 97 -108 128 -219 116 -412 -5 -81 -11
-105 -38 -159 -18 -36 -55 -89 -81 -118 -47 -51 -57 -81 -29 -91 25 -8 122
105 159 186 l35 77 -4 185 c-3 183 -4 186 -34 250 -56 116 -174 224 -174 159z"/>
<path d="M153 841 c-96 -119 -116 -161 -124 -269 -12 -148 -1 -267 29 -327 33
-67 93 -154 130 -189 54 -50 74 -2 23 56 -51 59 -111 161 -128 217 -19 68 -14
266 9 321 8 20 45 75 81 123 69 91 82 127 47 127 -11 0 -38 -23 -67 -59z"/>
</g>
</svg>
