<?xml version="1.0" standalone="no"?>
<!DOCTYPE svg PUBLIC "-//W3C//DTD SVG 20010904//EN"
 "http://www.w3.org/TR/2001/REC-SVG-20010904/DTD/svg10.dtd">
<svg version="1.0" xmlns="http://www.w3.org/2000/svg"
 width="108.000000pt" height="148.000000pt" viewBox="0 0 108.000000 148.000000"
 preserveAspectRatio="xMidYMid meet">
<metadata>
Created by potrace 1.16, written by Peter Selinger 2001-2019
</metadata>
<g transform="translate(0.000000,148.000000) scale(0.100000,-0.100000)"
fill="#000000" stroke="none">
<path d="M356 1422 c-16 -15 -2 -30 37 -38 37 -8 42 -12 39 -34 -4 -41 32 -87
78 -101 l42 -13 -4 -90 c-4 -85 -7 -98 -53 -191 -37 -76 -50 -115 -54 -164 -6
-64 -6 -64 -44 -77 -36 -13 -42 -12 -89 12 -55 28 -78 26 -78 -6 0 -26 101
-75 137 -66 80 20 75 21 71 -10 -2 -24 -8 -30 -33 -32 -16 -2 -38 -11 -48 -20
-16 -14 -21 -14 -40 -2 -69 43 -101 45 -95 7 2 -13 25 -32 64 -54 l61 -33 38
30 c20 16 41 27 46 24 5 -3 9 -96 9 -207 0 -184 2 -205 20 -234 17 -28 25 -33
59 -33 56 0 86 43 110 157 l18 88 54 38 c72 50 115 93 143 142 22 36 23 50 21
146 -2 58 -9 134 -16 169 -11 55 -19 70 -70 124 -34 37 -81 74 -116 92 l-58
30 0 104 c0 120 -16 164 -75 211 -28 22 -49 28 -102 32 -36 3 -69 3 -72 -1z
m168 -83 c28 -33 34 -59 14 -59 -19 1 -56 33 -58 50 -7 49 8 52 44 9z m131
-350 c20 -12 33 -25 28 -29 -17 -17 -143 -82 -152 -78 -4 1 5 31 22 66 33 70
45 74 102 41z m100 -89 c16 -16 27 -31 24 -33 -2 -2 -53 -30 -114 -62 -60 -32
-119 -64 -130 -71 -39 -28 -51 -18 -45 33 l5 48 105 57 c58 31 110 57 116 57
5 1 23 -12 39 -29z m55 -136 c0 -18 -29 -39 -135 -94 -55 -29 -116 -63 -137
-76 -32 -20 -38 -21 -49 -8 -9 11 -10 25 -3 50 8 32 19 41 119 93 61 32 126
68 145 80 l35 21 12 -27 c7 -16 12 -33 13 -39z m0 -118 l0 -55 -62 -37 c-35
-21 -102 -64 -149 -96 -47 -32 -91 -58 -98 -58 -8 0 -11 19 -9 66 l3 65 120
63 c66 34 136 72 155 84 19 12 36 22 38 22 1 0 2 -24 2 -54z m-40 -135 c0 -10
-40 -45 -123 -106 -43 -32 -85 -44 -100 -29 -6 6 200 143 216 144 4 0 7 -4 7
-9z m-190 -178 c0 -10 -66 -53 -80 -53 -11 0 -14 43 -3 53 9 10 83 9 83 0z
m10 -64 c-10 -17 -81 -69 -95 -69 -3 0 -5 7 -5 15 0 17 90 86 102 79 5 -3 3
-14 -2 -25z m-40 -104 c-13 -16 -50 -21 -50 -6 0 5 10 15 23 24 26 18 46 5 27
-18z"/>
<path d="M723 1345 c-22 -24 -15 -39 48 -100 126 -124 164 -209 184 -415 9
-89 11 -174 6 -250 -7 -100 -12 -125 -41 -190 -19 -41 -46 -91 -62 -111 -15
-20 -28 -40 -28 -43 0 -3 -27 -33 -60 -66 -53 -52 -60 -62 -50 -80 6 -11 17
-20 25 -20 8 0 45 31 83 68 64 65 99 120 155 252 24 55 27 77 33 220 7 184 -8
356 -40 443 -14 37 -28 73 -33 80 -35 57 -186 227 -201 227 -4 -1 -13 -7 -19
-15z"/>
<path d="M264 1273 c-32 -37 -61 -70 -65 -73 -12 -11 -106 -157 -125 -195 -17
-36 -19 -67 -22 -294 l-3 -253 37 -77 c62 -129 190 -310 230 -325 21 -8 46 22
35 42 -9 16 -19 28 -84 102 -52 59 -122 184 -152 274 -24 70 -18 408 9 481 21
57 122 209 181 273 57 62 61 71 38 94 -19 19 -20 18 -79 -49z"/>
</g>
</svg>
