<?xml version="1.0" standalone="no"?>
<!DOCTYPE svg PUBLIC "-//W3C//DTD SVG 20010904//EN"
 "http://www.w3.org/TR/2001/REC-SVG-20010904/DTD/svg10.dtd">
<svg version="1.0" xmlns="http://www.w3.org/2000/svg"
 width="430.000000pt" height="590.000000pt" viewBox="0 0 430.000000 590.000000"
 preserveAspectRatio="xMidYMid meet">
<metadata>
Created by potrace 1.16, written by Peter Selinger 2001-2019
</metadata>
<g transform="translate(0.000000,590.000000) scale(0.500000,-0.500000)"
fill="#000000" stroke="none">
<path d="M284 1136 c-16 -16 -2 -28 35 -30 31 -2 32 -3 29 -17 -6 -25 14 -73
33 -79 5 -1 13 -5 19 -8 7 -3 17 -7 22 -8 18 -4 17 1 15 -70 -1 -72 -1 -71
-21 -116 -6 -15 -18 -42 -26 -60 -8 -18 -17 -37 -21 -42 -16 -22 -16 -22 -17
-72 -1 -53 2 -48 -36 -60 -32 -10 -28 -11 -69 10 -39 20 -45 21 -54 12 -7 -8
-12 -23 -8 -30 3 -7 26 -21 50 -30 8 -3 20 -8 28 -11 17 -7 24 -6 50 2 33 11
35 10 35 -11 0 -18 -4 -21 -28 -23 -18 -1 -18 -1 -29 -13 -16 -16 -16 -16 -54
5 -36 21 -48 22 -56 7 -7 -14 -2 -27 14 -37 75 -44 92 -48 117 -22 13 13 19
17 29 17 13 0 12 9 11 -165 l0 -158 6 -12 c23 -44 73 -59 100 -30 22 24 34 47
41 83 3 13 8 36 11 51 3 15 7 33 8 39 2 15 -1 12 49 46 51 34 87 67 99 91 3 7
10 19 15 27 15 25 16 29 13 68 -2 20 -2 48 -1 69 1 34 1 34 -7 75 -17 86 -17
87 -62 133 -40 41 -54 52 -95 73 -48 25 -43 14 -42 100 1 69 1 71 -3 82 -2 5
-4 12 -4 13 0 20 -30 65 -53 80 -5 4 -13 9 -16 13 -10 11 -13 11 -70 12 -51 0
-53 0 -57 -4z m119 -52 c40 -28 49 -69 11 -50 -26 13 -39 39 -27 53 5 4 7 4
16 -3z m95 -280 c4 -1 12 -5 18 -9 7 -5 16 -10 22 -13 17 -10 16 -12 -35 -39
-90 -49 -88 -49 -58 15 23 50 27 53 53 46z m98 -73 c33 -32 33 -34 -28 -67
-26 -14 -65 -35 -87 -47 -97 -53 -92 -52 -87 -13 1 10 2 24 3 31 2 19 4 20
165 104 14 8 18 7 34 -8z m39 -80 c24 -36 11 -58 -51 -92 -74 -39 -118 -63
-147 -79 -43 -24 -45 -24 -46 9 -3 47 -6 43 63 80 29 15 79 42 110 58 62 34
64 34 71 24z m12 -102 c17 -62 17 -62 -165 -178 -15 -10 -31 -20 -35 -24 -39
-31 -52 -30 -52 7 -1 14 -2 34 -2 45 -2 25 -4 23 69 61 31 17 84 45 116 62 62
34 67 36 69 27z m-33 -138 c0 -7 -35 -43 -41 -43 -2 0 -7 -4 -13 -9 -5 -5 -12
-10 -15 -12 -4 -1 -10 -6 -15 -10 -5 -4 -9 -7 -11 -7 -2 0 -19 -12 -31 -22 -7
-6 -7 -6 -24 -6 -33 2 -31 4 45 52 100 63 105 66 105 57z m-157 -140 c6 -5
-40 -41 -52 -41 -9 0 -15 29 -7 37 7 7 51 10 59 4z m16 -43 c1 -4 -2 -12 -8
-19 -8 -10 -63 -42 -68 -40 -12 4 -1 17 39 44 29 19 35 22 37 15z"/>
<path d="M583 1080 c-18 -13 -20 -26 -5 -43 16 -19 51 -55 77 -83 32 -33 59
-77 74 -120 8 -21 15 -42 18 -50 6 -14 13 -55 15 -84 1 -16 3 -44 5 -62 3 -34
6 -91 6 -100 0 -3 -2 -16 -3 -30 -1 -14 -3 -47 -4 -73 -1 -51 -2 -54 -14 -80
-3 -6 -7 -16 -9 -22 -2 -5 -8 -20 -14 -31 -6 -12 -12 -27 -14 -33 -2 -8 -7
-15 -16 -26 -7 -9 -15 -20 -18 -25 -3 -5 -6 -10 -8 -12 -2 -2 -5 -7 -8 -12 -3
-6 -11 -15 -19 -22 -8 -7 -17 -17 -20 -22 -7 -11 -14 -18 -33 -33 -19 -14 -22
-21 -18 -36 8 -28 24 -26 67 9 27 22 29 25 77 86 15 19 38 65 63 127 26 63 26
62 28 134 1 43 2 53 5 59 5 12 5 124 -1 141 -3 9 -4 17 -4 59 0 35 -1 52 -3
59 -2 6 -4 16 -5 21 -1 6 -6 22 -11 36 -5 14 -11 32 -12 40 -6 26 -26 61 -58
103 -4 5 -10 14 -13 19 -3 5 -8 11 -12 13 -3 3 -12 12 -20 21 -56 67 -78 84
-93 72z"/>
<path d="M254 1065 c-3 -1 -16 -15 -29 -30 -13 -15 -31 -36 -40 -46 -29 -32
-38 -43 -71 -94 -48 -73 -51 -79 -59 -104 -4 -12 -7 -23 -7 -25 0 -2 -2 -12
-5 -23 -5 -20 -5 -20 -5 -191 0 -193 -1 -177 18 -216 8 -16 20 -41 26 -55 29
-63 73 -131 114 -174 12 -14 23 -27 24 -30 10 -21 49 -36 58 -23 14 18 9 29
-31 74 -32 36 -50 60 -69 89 -7 12 -17 26 -20 31 -10 13 -49 92 -55 110 -2 8
-7 23 -10 33 -3 10 -7 22 -9 27 -3 11 -6 241 -2 259 12 61 35 128 50 146 3 3
9 13 14 22 5 9 13 21 19 28 6 7 12 15 14 19 2 4 8 11 13 17 5 5 12 15 16 22 3
7 17 25 32 42 56 64 57 66 43 81 -12 13 -20 16 -29 11z"/>
</g>
</svg>
