<?xml version="1.0" standalone="no"?>
<!DOCTYPE svg PUBLIC "-//W3C//DTD SVG 20010904//EN"
 "http://www.w3.org/TR/2001/REC-SVG-20010904/DTD/svg10.dtd">
<svg version="1.0" xmlns="http://www.w3.org/2000/svg"
 width="154.000000pt" height="148.000000pt" viewBox="0 0 154.000000 148.000000"
 preserveAspectRatio="xMidYMid meet">
<metadata>
Created by potrace 1.16, written by Peter Selinger 2001-2019
</metadata>
<g transform="translate(0.000000,148.000000) scale(0.100000,-0.100000)"
fill="#000000" stroke="none">
<path d="M385 1407 c-121 -75 -152 -106 -222 -217 -107 -172 -116 -211 -110
-480 5 -228 11 -274 38 -309 11 -13 19 -34 19 -46 0 -12 9 -30 20 -40 11 -10
20 -27 20 -37 0 -10 6 -21 14 -24 7 -3 28 -26 47 -52 18 -26 57 -71 87 -100
45 -45 59 -53 85 -50 52 5 44 30 -33 110 -162 166 -229 311 -233 502 -2 47 -5
87 -8 91 -14 13 11 166 39 245 20 54 100 193 138 238 15 19 61 56 101 84 59
39 74 54 71 71 -4 26 -42 33 -73 14z"/>
<path d="M1028 1414 c-16 -16 11 -45 68 -74 44 -22 84 -53 129 -102 36 -39 65
-75 65 -80 0 -5 11 -24 24 -41 21 -28 35 -66 67 -173 5 -17 9 -47 9 -67 0 -20
5 -39 11 -43 6 -3 8 -15 6 -26 -3 -11 -2 -70 3 -131 5 -67 5 -116 -1 -122 -5
-5 -9 -19 -9 -30 0 -59 -144 -280 -235 -362 -36 -32 -65 -65 -65 -73 0 -20 20
-40 40 -40 16 0 147 126 177 170 9 14 32 43 50 64 18 22 33 43 33 48 0 5 16
41 35 81 l35 72 0 220 c0 240 -5 270 -68 406 -74 160 -234 309 -332 309 -20 0
-39 -3 -42 -6z"/>
<path d="M458 1334 c-19 -9 -28 -23 -28 -38 0 -30 19 -38 62 -25 53 15 119 11
178 -12 30 -11 61 -25 68 -31 17 -15 15 -48 -3 -48 -35 0 -38 -40 -27 -337 8
-209 15 -302 26 -338 9 -27 16 -60 16 -73 0 -13 7 -37 16 -53 l15 -31 -65 -68
c-36 -37 -66 -72 -66 -77 0 -13 33 -43 47 -43 14 0 129 131 144 163 12 26 11
29 -41 207 -16 53 -21 109 -25 299 -3 129 -3 247 0 262 4 17 15 31 28 35 33
10 57 35 57 58 0 32 -86 111 -154 140 -47 21 -74 26 -140 26 -52 -1 -91 -6
-108 -16z"/>
<path d="M868 1060 c-25 -15 -30 -55 -30 -248 0 -174 1 -179 32 -272 18 -52
46 -119 63 -148 36 -64 34 -69 -55 -163 -62 -66 -73 -101 -31 -107 26 -4 75
38 133 112 53 69 58 121 17 182 -15 21 -27 41 -27 44 0 3 67 6 149 7 170 2
209 13 241 65 35 55 11 114 -68 167 -68 47 -200 161 -228 199 -36 47 -160 172
-171 172 -4 0 -16 -5 -25 -10z m92 -161 c0 -12 -57 -49 -64 -42 -8 8 -8 77 1
99 6 15 10 13 35 -16 15 -19 28 -37 28 -41z m79 -78 c12 -16 21 -33 21 -38 0
-12 -136 -143 -148 -143 -6 0 -12 24 -15 53 -4 52 -4 52 49 105 29 28 57 52
62 52 6 0 20 -13 31 -29z m109 -224 l-73 -68 -62 4 c-84 4 -99 20 -53 55 19
15 63 55 96 90 l62 63 51 -38 52 -38 -73 -68z m140 11 c21 -21 13 -47 -18 -63
-29 -15 -90 -21 -90 -8 0 11 74 83 86 83 5 0 15 -5 22 -12z"/>
</g>
</svg>
