<?xml version="1.0" standalone="no"?>
<!DOCTYPE svg PUBLIC "-//W3C//DTD SVG 20010904//EN"
 "http://www.w3.org/TR/2001/REC-SVG-20010904/DTD/svg10.dtd">
<svg version="1.0" xmlns="http://www.w3.org/2000/svg"
 width="100.000000pt" height="96.000000pt" viewBox="0 0 100.000000 96.000000"
 preserveAspectRatio="xMidYMid meet">
<metadata>
Created by potrace 1.16, written by Peter Selinger 2001-2019
</metadata>
<g transform="translate(0.000000,96.000000) scale(0.100000,-0.100000)"
fill="#000000" stroke="none">
<path d="M212 894 c-36 -24 -67 -57 -96 -102 -84 -131 -81 -118 -81 -313 l0
-175 37 -75 c45 -92 139 -199 174 -199 46 0 39 28 -23 93 -109 114 -143 200
-143 361 1 69 6 117 18 151 25 71 103 187 141 208 32 19 32 19 38 -2 5 -19 13
-21 73 -21 69 0 130 -15 130 -31 0 -5 -7 -21 -17 -35 -14 -22 -15 -47 -9 -197
4 -114 13 -199 26 -252 l19 -80 -41 -41 c-41 -43 -48 -76 -17 -82 20 -4 84 61
100 100 9 22 7 43 -9 105 -17 61 -22 115 -24 241 l-3 163 28 21 c35 26 34 47
-5 86 -45 43 -96 62 -167 62 -54 0 -60 2 -63 22 -5 34 -27 32 -86 -8z"/>
<path d="M667 923 c-16 -15 -4 -34 34 -54 138 -70 217 -247 207 -464 -4 -89
-5 -94 -48 -161 -25 -37 -69 -92 -98 -121 -56 -55 -64 -85 -26 -91 30 -4 142
119 188 208 l38 71 -4 162 -3 162 -37 77 c-41 86 -113 170 -170 199 -38 19
-69 24 -81 12z"/>
<path d="M556 678 c-11 -34 -14 -142 -7 -218 5 -55 18 -110 36 -155 16 -38 28
-78 27 -88 0 -10 -19 -38 -41 -63 -44 -47 -51 -71 -24 -81 12 -5 30 9 65 46
57 62 66 91 45 136 -9 18 -13 36 -10 39 4 3 42 6 86 6 92 0 144 19 153 57 10
37 -9 66 -78 123 -35 29 -96 88 -136 131 -70 75 -107 96 -116 67z m122 -161
c4 -18 -57 -87 -77 -87 -20 0 -12 63 11 87 25 27 61 27 66 0z m83 -67 l24 -20
-44 -40 c-34 -32 -51 -40 -81 -40 -20 0 -40 3 -44 7 -7 7 100 113 114 113 4 0
18 -9 31 -20z"/>
</g>
</svg>
