<?xml version="1.0" standalone="no"?>
<!DOCTYPE svg PUBLIC "-//W3C//DTD SVG 20010904//EN"
 "http://www.w3.org/TR/2001/REC-SVG-20010904/DTD/svg10.dtd">
<svg version="1.0" xmlns="http://www.w3.org/2000/svg"
 width="612.000000pt" height="590.000000pt" viewBox="0 0 612.000000 590.000000"
 preserveAspectRatio="xMidYMid meet">
<metadata>
Created by potrace 1.16, written by Peter Selinger 2001-2019
</metadata>
<g transform="translate(0.000000,590.000000) scale(0.500000,-0.500000)"
fill="#000000" stroke="none">
<path d="M829 1140 c-31 -9 -10 -46 37 -67 53 -23 135 -100 162 -153 9 -16 14
-24 22 -33 7 -8 16 -25 20 -38 1 -4 7 -18 11 -30 7 -17 9 -24 9 -34 0 -8 1
-13 4 -17 2 -3 5 -10 6 -16 1 -6 3 -13 5 -15 1 -2 2 -16 3 -31 1 -27 1 -27 8
-36 8 -12 8 -25 1 -40 -6 -10 -6 -10 0 -18 10 -14 10 -158 1 -169 -6 -6 -6 -8
-7 -25 -1 -19 -10 -48 -15 -51 -1 -1 -7 -12 -13 -24 -6 -13 -14 -27 -18 -31
-4 -5 -7 -11 -8 -14 -1 -5 -10 -19 -22 -38 -4 -5 -12 -17 -18 -26 -26 -39 -86
-103 -114 -121 -47 -32 -25 -86 26 -64 18 7 108 103 130 137 5 8 13 19 18 24
28 31 36 45 49 81 5 15 13 32 21 45 25 42 23 26 25 218 2 179 2 184 -8 215 -3
10 -8 27 -11 38 -5 18 -12 35 -32 85 -16 39 -65 110 -92 136 -7 6 -17 17 -24
25 -23 27 -36 39 -50 46 -8 4 -21 12 -30 17 -38 23 -71 31 -96 24z"/>
<path d="M312 1127 c-23 -11 -38 -19 -60 -36 -7 -6 -17 -12 -22 -14 -13 -5
-58 -56 -77 -87 -6 -9 -16 -26 -23 -38 -7 -12 -18 -30 -25 -41 -7 -11 -18 -31
-24 -45 -7 -14 -15 -29 -18 -34 -3 -6 -6 -15 -7 -25 -1 -9 -4 -23 -7 -32 -9
-29 -9 -41 -9 -198 1 -148 1 -148 8 -167 4 -14 7 -26 8 -43 3 -23 3 -24 10
-31 8 -10 21 -39 24 -55 2 -13 5 -18 16 -30 9 -10 13 -16 17 -31 2 -9 5 -13
15 -22 6 -5 19 -19 27 -31 8 -11 18 -23 21 -27 3 -4 7 -11 10 -16 2 -7 6 -11
9 -12 11 -5 17 -10 22 -20 3 -5 8 -12 12 -15 5 -3 13 -10 19 -16 19 -17 61
-22 74 -9 15 14 7 29 -29 59 -5 4 -14 14 -20 22 -7 8 -23 26 -36 40 -15 16
-30 34 -38 47 -7 12 -19 28 -25 36 -32 43 -60 101 -64 136 -1 8 -4 18 -6 21
-9 15 -19 71 -18 100 0 7 0 43 -1 72 0 16 -1 21 -4 25 -4 6 -3 31 2 48 2 7 2
12 0 19 -1 9 -1 12 3 22 2 7 7 26 10 42 6 34 26 88 36 102 3 4 12 18 18 31 7
13 15 27 18 31 3 4 9 15 14 24 33 62 53 82 120 124 50 31 51 32 56 42 17 35
-13 52 -56 32z"/>
<path d="M434 1082 c-67 -2 -89 -11 -93 -39 -5 -30 18 -40 57 -27 35 12 88 10
121 -5 8 -4 19 -8 26 -10 46 -13 65 -41 39 -55 -27 -15 -29 -21 -27 -119 1
-66 1 -76 5 -88 4 -14 4 -20 4 -117 0 -95 0 -104 4 -118 2 -8 4 -25 5 -37 1
-26 8 -61 16 -78 3 -9 5 -17 5 -23 0 -17 9 -52 17 -68 4 -7 7 -15 7 -17 0 -3
-32 -36 -63 -64 -36 -33 -42 -57 -21 -79 16 -18 39 -5 77 42 6 7 15 17 19 21
21 19 48 61 48 76 0 12 -11 51 -19 67 -4 9 -6 15 -7 31 -1 17 -3 24 -9 38 -4
10 -8 23 -9 29 -1 6 -3 15 -5 21 -2 5 -3 16 -3 24 0 8 -1 23 -3 34 -2 15 -3
42 -3 125 0 88 0 107 -3 115 -2 9 -3 13 -1 24 1 8 2 27 2 43 0 56 4 64 32 74
16 7 32 21 41 35 12 22 -71 105 -122 121 -8 2 -22 9 -31 14 -20 11 -31 12
-106 10z"/>
<path d="M693 850 c-10 -4 -16 -13 -18 -25 -1 -4 -3 -11 -5 -16 -6 -13 -6 -18
-6 -127 0 -148 3 -176 24 -232 5 -11 14 -38 20 -58 10 -31 15 -41 26 -60 36
-60 36 -66 1 -104 -10 -11 -22 -26 -26 -33 -5 -6 -13 -16 -19 -21 -44 -33 -50
-73 -11 -76 21 -1 65 35 91 73 5 8 14 19 19 25 37 40 40 95 8 140 -27 37 -26
38 28 37 115 -4 198 4 228 20 76 42 59 126 -36 178 -7 4 -18 12 -24 17 -5 5
-16 13 -23 19 -7 6 -20 18 -29 26 -9 8 -21 18 -27 21 -19 11 -62 57 -62 66 0
1 -5 8 -11 14 -7 6 -13 14 -14 18 -5 10 -10 16 -22 21 -8 4 -15 11 -38 39 -36
42 -50 49 -74 38z m53 -106 c17 -23 17 -26 5 -37 -28 -26 -34 -21 -32 23 1 41
6 44 27 14z m64 -70 c9 -5 36 -38 36 -44 0 -7 -5 -12 -63 -68 -63 -61 -62 -61
-64 2 -2 45 -4 39 31 73 37 36 49 43 60 37z m94 -89 c3 -1 9 -7 14 -12 5 -5
15 -14 23 -19 33 -23 33 -23 -24 -72 -6 -5 -21 -18 -34 -30 -33 -29 -58 -34
-100 -21 -8 3 -17 5 -19 5 -20 0 -22 22 -3 32 4 3 14 10 21 17 7 7 17 15 22
18 10 4 27 23 34 37 2 5 9 11 15 16 5 4 13 10 16 14 15 16 25 20 35 15z m122
-102 c18 -28 1 -47 -48 -52 -38 -3 -39 0 -10 28 41 39 46 41 58 24z"/>
</g>
</svg>
