<?xml version="1.0" standalone="no"?>
<!DOCTYPE svg PUBLIC "-//W3C//DTD SVG 20010904//EN"
 "http://www.w3.org/TR/2001/REC-SVG-20010904/DTD/svg10.dtd">
<svg version="1.0" xmlns="http://www.w3.org/2000/svg"
 width="106.000000pt" height="148.000000pt" viewBox="0 0 106.000000 148.000000"
 preserveAspectRatio="xMidYMid meet">
<metadata>
Created by potrace 1.16, written by Peter Selinger 2001-2019
</metadata>
<g transform="translate(0.000000,148.000000) scale(0.100000,-0.100000)"
fill="#000000" stroke="none">
<path d="M363 1404 c-3 -8 -3 -59 -1 -112 4 -81 10 -106 33 -152 16 -30 36
-64 46 -75 17 -20 17 -23 -7 -90 -13 -39 -27 -95 -29 -125 -2 -30 -7 -68 -11
-85 -7 -33 -50 -85 -71 -85 -7 0 -36 16 -65 35 -39 27 -54 33 -64 24 -26 -21
-13 -44 45 -81 67 -43 81 -46 106 -18 22 24 45 26 45 5 0 -22 -24 -67 -48 -88
-20 -18 -21 -17 -70 17 -27 20 -54 36 -60 36 -5 0 -12 7 -16 15 -8 22 -36 18
-36 -4 0 -29 119 -131 152 -131 15 0 30 4 33 10 3 5 14 14 24 20 16 8 21 1 40
-58 12 -37 33 -83 46 -102 13 -19 28 -55 35 -80 6 -25 15 -54 20 -65 12 -26
46 -115 54 -137 4 -14 17 -18 60 -18 62 0 75 15 47 52 -36 46 -131 211 -131
227 0 9 9 27 20 41 11 14 20 29 20 33 0 4 10 21 22 38 19 26 23 45 26 154 5
138 -14 240 -65 353 -29 62 -36 160 -14 200 14 27 14 93 -1 166 -9 48 -17 62
-42 77 -40 24 -134 27 -143 3z m97 -29 c38 -20 47 -38 54 -110 6 -62 -13 -180
-29 -180 -4 0 -24 29 -43 64 -28 51 -37 79 -42 138 -8 102 3 118 60 88z m53
-408 c8 -18 20 -56 27 -85 7 -29 20 -68 29 -85 22 -44 19 -240 -6 -309 -18
-52 -48 -91 -65 -86 -12 4 -32 42 -48 91 -17 54 -13 287 6 379 9 40 18 88 21
105 6 38 17 35 36 -10z"/>
<path d="M243 1388 c-6 -7 -13 -26 -16 -43 -5 -30 -59 -253 -96 -395 -11 -41
-29 -115 -41 -165 -11 -49 -26 -111 -32 -137 -13 -52 -12 -56 49 -308 20 -80
41 -172 47 -205 l11 -60 48 -3 c29 -2 47 1 47 8 0 6 -13 59 -29 118 -15 59
-33 127 -40 152 -73 283 -72 276 -27 435 15 50 33 122 41 160 9 39 19 81 24
95 16 44 85 340 80 344 -13 13 -57 16 -66 4z"/>
<path d="M664 1360 c-35 -13 -36 -24 -10 -102 14 -40 48 -149 76 -243 29 -93
65 -210 81 -259 16 -49 29 -107 30 -130 1 -36 -32 -186 -101 -458 -11 -43 -20
-82 -20 -88 0 -7 17 -10 43 -8 l42 3 18 75 c10 41 27 109 37 150 83 331 82
306 20 480 -21 58 -52 152 -70 210 -17 58 -35 116 -40 130 -5 14 -18 59 -30
100 -48 163 -42 152 -76 140z"/>
</g>
</svg>
