<?xml version="1.0" standalone="no"?>
<!DOCTYPE svg PUBLIC "-//W3C//DTD SVG 20010904//EN"
 "http://www.w3.org/TR/2001/REC-SVG-20010904/DTD/svg10.dtd">
<svg version="1.0" xmlns="http://www.w3.org/2000/svg"
 width="72.000000pt" height="100.000000pt" viewBox="0 0 72.000000 100.000000"
 preserveAspectRatio="xMidYMid meet">
<metadata>
Created by potrace 1.16, written by Peter Selinger 2001-2019
</metadata>
<g transform="translate(0.000000,100.000000) scale(0.100000,-0.100000)"
fill="#000000" stroke="none">
<path d="M244 956 c-13 -35 6 -160 32 -209 24 -47 25 -50 10 -95 -8 -26 -18
-69 -22 -97 -12 -87 -27 -100 -82 -68 -18 10 -36 14 -48 9 -17 -7 -16 -10 14
-37 24 -22 42 -29 72 -29 43 0 45 -2 30 -31 -14 -24 -37 -24 -75 1 -61 41 -74
17 -20 -37 32 -32 38 -34 75 -28 31 5 40 4 40 -7 0 -8 11 -36 24 -64 13 -27
39 -87 58 -134 33 -84 34 -85 71 -88 49 -4 48 10 -3 98 -22 38 -40 75 -40 83
0 8 12 36 27 63 25 44 27 58 27 149 -1 86 -5 111 -32 183 -29 78 -30 87 -25
190 5 96 4 109 -14 130 -25 32 -109 44 -119 18z m86 -57 c16 -29 13 -139 -4
-139 -14 0 -38 51 -51 108 -12 55 30 79 55 31z m30 -291 c6 -24 16 -58 22 -77
15 -49 6 -193 -15 -225 -10 -14 -21 -26 -26 -26 -16 0 -34 56 -38 121 -5 62
10 220 22 240 12 19 25 7 35 -33z"/>
<path d="M162 933 c-5 -10 -37 -132 -72 -271 l-62 -254 37 -161 c48 -205 48
-207 80 -207 14 0 28 6 31 13 3 8 -16 89 -42 181 -28 103 -44 180 -41 199 2
18 30 130 61 250 32 120 56 228 54 240 -4 28 -34 34 -46 10z"/>
<path d="M435 908 c-4 -14 18 -98 56 -218 92 -291 89 -244 29 -494 -17 -71
-29 -135 -26 -143 9 -21 45 -15 56 10 17 39 82 311 82 342 0 26 -73 269 -140
470 -19 55 -47 72 -57 33z"/>
</g>
</svg>
