<?xml version="1.0" standalone="no"?>
<!DOCTYPE svg PUBLIC "-//W3C//DTD SVG 20010904//EN"
 "http://www.w3.org/TR/2001/REC-SVG-20010904/DTD/svg10.dtd">
<svg version="1.0" xmlns="http://www.w3.org/2000/svg"
 width="422.000000pt" height="590.000000pt" viewBox="0 0 422.000000 590.000000"
 preserveAspectRatio="xMidYMid meet">
<metadata>
Created by potrace 1.16, written by Peter Selinger 2001-2019
</metadata>
<g transform="translate(0.000000,590.000000) scale(0.500000,-0.500000)"
fill="#000000" stroke="none">
<path d="M306 1138 c-16 -4 -16 -4 -16 -77 0 -63 0 -64 5 -83 3 -10 7 -24 8
-29 2 -6 6 -18 11 -26 4 -9 10 -23 14 -32 5 -13 10 -20 18 -30 22 -24 22 -24
9 -59 -4 -12 -9 -25 -10 -30 -2 -5 -5 -18 -9 -30 -3 -11 -6 -23 -6 -26 0 -3
-1 -8 -2 -11 -2 -4 -3 -18 -3 -36 0 -23 -1 -32 -4 -40 -1 -5 -3 -14 -3 -21 0
-12 -12 -32 -18 -32 -1 0 -9 -7 -18 -16 -21 -21 -23 -21 -51 -1 -8 5 -17 13
-21 16 -29 25 -54 29 -64 10 -8 -18 -6 -23 17 -37 10 -6 26 -17 36 -25 38 -29
57 -32 80 -11 22 19 31 19 31 -1 0 -13 -11 -37 -18 -42 -1 -1 -5 -6 -9 -12
-15 -23 -22 -24 -45 -6 -10 6 -21 15 -27 18 -5 3 -14 9 -18 12 -5 4 -13 9 -20
12 -7 3 -12 7 -14 11 -10 20 -31 14 -31 -9 0 -13 3 -17 22 -31 14 -12 31 -27
47 -42 33 -32 61 -38 82 -18 22 21 37 19 40 -4 1 -6 5 -21 10 -33 5 -12 9 -24
9 -26 0 -11 18 -44 29 -54 11 -10 15 -17 15 -27 0 -3 3 -13 7 -22 4 -9 7 -20
7 -24 0 -11 9 -38 16 -49 3 -5 6 -11 6 -13 0 -4 16 -42 21 -50 3 -4 6 -12 7
-19 4 -29 10 -34 44 -35 62 -1 77 14 47 49 -8 10 -20 28 -31 48 -12 22 -17 30
-23 37 -3 5 -12 18 -18 29 -6 12 -13 23 -14 25 -1 2 -6 10 -11 19 l-9 16 8 15
c4 8 12 19 16 25 6 7 10 13 11 20 2 7 5 14 11 20 11 14 17 29 19 47 1 8 3 20
5 26 6 22 4 173 -2 195 -3 10 -7 23 -8 30 -2 7 -5 18 -7 25 -2 7 -5 17 -7 22
-1 5 -3 13 -4 18 0 5 -4 14 -7 21 -3 6 -6 13 -6 15 0 1 -4 12 -10 24 -5 12
-11 26 -12 32 -1 6 -5 17 -8 24 -7 16 -7 23 -2 38 7 22 10 34 10 43 0 6 1 14
3 19 4 11 4 100 1 109 -1 3 -3 14 -3 24 -2 55 -66 92 -133 75z m57 -36 c30
-15 42 -32 45 -60 1 -9 3 -19 5 -22 6 -10 7 -53 2 -66 -2 -5 -4 -15 -6 -23 -1
-8 -4 -17 -5 -20 -1 -3 -2 -8 -2 -12 0 -9 -6 -25 -10 -27 -13 -5 -61 84 -68
127 -1 5 -3 14 -5 18 -4 10 -4 67 -1 77 5 12 28 16 45 8z m47 -327 c11 -24 17
-42 22 -68 4 -22 10 -39 22 -64 8 -17 12 -27 12 -32 0 -4 1 -10 3 -14 2 -6 3
-16 3 -40 0 -24 -1 -35 -3 -41 -2 -6 -3 -18 -3 -50 0 -41 0 -41 -7 -58 -4 -9
-9 -23 -11 -30 -3 -7 -7 -16 -10 -20 -3 -4 -8 -11 -11 -15 -11 -18 -39 -24
-39 -8 0 1 -3 7 -7 13 -9 13 -15 28 -15 36 0 7 -9 38 -12 45 -5 8 -3 211 2
225 2 5 4 15 4 21 0 6 1 14 3 18 1 5 4 14 6 22 2 8 7 25 11 38 3 13 7 27 7 31
3 24 8 23 23 -9z"/>
<path d="M194 1110 c-4 -4 -12 -29 -12 -36 0 -3 -4 -17 -8 -30 -4 -14 -8 -28
-8 -31 0 -3 -1 -10 -3 -16 -1 -5 -4 -18 -6 -28 -2 -10 -5 -23 -7 -29 -2 -6 -4
-13 -4 -16 0 -3 -2 -10 -4 -16 -7 -22 -10 -32 -12 -44 -1 -7 -4 -21 -7 -31 -3
-10 -5 -20 -5 -23 0 -3 -1 -9 -3 -13 -6 -18 -12 -37 -13 -46 -1 -5 -4 -19 -7
-31 -5 -24 -9 -40 -11 -55 -1 -9 -4 -18 -12 -41 -1 -5 -3 -14 -4 -20 -1 -6 -4
-20 -7 -31 -3 -12 -5 -23 -5 -26 0 -5 -3 -15 -10 -37 -8 -21 -5 -50 7 -85 2
-4 3 -10 3 -14 0 -3 1 -11 3 -16 2 -6 3 -13 3 -17 0 -6 2 -16 10 -41 2 -7 4
-15 4 -19 0 -3 1 -9 3 -14 2 -4 4 -12 5 -19 1 -7 4 -20 7 -30 3 -10 5 -21 5
-25 0 -7 4 -23 10 -39 2 -6 4 -13 4 -16 0 -3 2 -11 4 -17 2 -6 4 -14 4 -17 0
-4 3 -17 6 -29 3 -12 6 -25 6 -29 0 -22 10 -29 45 -29 34 0 41 6 32 32 -2 5
-3 11 -3 13 0 3 -3 16 -7 29 -4 13 -7 26 -7 28 0 2 -4 15 -8 28 -5 14 -9 29
-10 35 -1 5 -4 16 -6 24 -2 8 -5 20 -6 26 -1 7 -3 15 -4 18 -1 3 -3 11 -4 17
-1 6 -3 14 -5 18 -5 12 -11 34 -11 39 0 2 -2 12 -5 22 -3 10 -6 23 -7 28 -1 6
-4 16 -6 23 -2 7 -4 15 -4 17 0 3 -2 9 -4 15 -6 15 -6 51 0 66 2 6 4 13 4 16
0 3 1 9 3 14 4 10 10 30 13 45 1 7 3 17 5 22 2 6 4 16 6 23 2 7 7 24 11 38 4
14 8 29 9 34 0 5 3 15 5 23 2 8 5 20 7 28 4 19 9 38 12 49 5 16 10 33 11 43 1
6 4 19 6 29 3 10 6 23 7 27 1 4 4 17 8 28 4 11 7 25 8 30 1 6 4 19 7 31 3 12
6 23 6 26 0 5 6 26 12 39 5 12 4 28 -2 33 -7 6 -48 6 -54 0z"/>
<path d="M535 1090 c-30 -11 -33 -17 -24 -45 3 -8 11 -35 19 -60 8 -25 16 -51
18 -57 5 -14 16 -51 24 -78 3 -12 9 -31 13 -44 4 -13 10 -33 14 -46 4 -13 11
-36 16 -53 5 -16 12 -40 16 -53 7 -23 15 -45 28 -81 4 -9 7 -20 7 -23 0 -3 2
-12 4 -20 4 -16 5 -42 2 -55 -1 -4 -3 -15 -5 -23 -7 -36 -11 -51 -19 -76 -2
-6 -4 -15 -5 -20 0 -5 -3 -15 -5 -23 -2 -8 -5 -20 -6 -28 -1 -7 -3 -15 -4 -17
-1 -1 -2 -7 -3 -13 -1 -5 -4 -19 -8 -30 -4 -12 -7 -25 -8 -30 -1 -6 -4 -20 -7
-33 -3 -13 -6 -24 -6 -26 0 -5 -9 -37 -12 -42 -1 -2 -2 -8 -3 -14 -1 -6 -3
-13 -4 -16 -10 -21 -1 -28 33 -28 32 0 38 4 41 24 1 10 6 27 12 45 2 4 3 9 3
11 0 3 2 13 4 23 2 10 6 24 7 32 2 8 4 16 5 19 1 3 4 11 5 19 1 8 5 23 9 34 6
21 9 37 12 55 1 6 2 14 4 18 8 26 12 41 12 45 0 3 1 8 3 11 2 3 4 12 5 19 1 6
4 20 7 30 7 25 7 52 0 78 -3 11 -6 25 -7 31 -1 6 -3 14 -5 17 -2 4 -3 8 -3 11
0 2 -4 12 -9 22 -5 11 -11 25 -13 32 -2 7 -14 45 -27 83 -12 39 -28 87 -34
108 -6 21 -13 43 -15 49 -4 10 -20 64 -49 163 -18 62 -19 63 -42 55z"/>
</g>
</svg>
