<?xml version="1.0" standalone="no"?>
<!DOCTYPE svg PUBLIC "-//W3C//DTD SVG 20010904//EN"
 "http://www.w3.org/TR/2001/REC-SVG-20010904/DTD/svg10.dtd">
<svg version="1.0" xmlns="http://www.w3.org/2000/svg"
 width="77.000000pt" height="100.000000pt" viewBox="0 0 77.000000 100.000000"
 preserveAspectRatio="xMidYMid meet">
<metadata>
Created by potrace 1.16, written by Peter Selinger 2001-2019
</metadata>
<g transform="translate(0.000000,100.000000) scale(0.100000,-0.100000)"
fill="#000000" stroke="none">
<path d="M214 956 c-8 -21 97 -126 127 -126 19 0 21 -4 15 -32 -3 -17 -28 -80
-55 -139 -57 -123 -67 -156 -76 -257 -7 -72 -8 -73 -46 -92 -21 -11 -43 -20
-48 -20 -6 0 -23 18 -37 40 -15 22 -33 40 -41 40 -23 0 -28 -31 -9 -63 15 -27
15 -31 1 -48 -18 -19 -13 -35 29 -91 26 -36 44 -35 110 7 30 19 61 35 69 35 8
0 38 -31 66 -70 56 -75 97 -110 130 -110 34 0 38 30 8 52 -14 10 -36 27 -49
38 l-23 19 37 31 c41 34 66 90 92 213 18 79 32 97 75 97 16 0 20 -6 18 -22 -2
-20 4 -24 43 -29 46 -5 39 -16 -14 -21 -45 -5 -43 -25 3 -33 31 -5 41 -11 41
-26 0 -15 -10 -20 -50 -25 -53 -7 -67 -27 -27 -39 21 -6 20 -7 -10 -21 -42
-18 -46 -54 -8 -54 37 0 77 23 114 65 29 34 31 40 31 115 0 68 -3 82 -22 99
-36 35 -82 44 -140 31 -46 -12 -52 -11 -65 6 -25 34 -15 52 46 84 89 48 105
78 102 191 -1 27 -10 45 -37 73 -33 34 -40 37 -82 34 -39 -3 -47 -6 -47 -23 0
-15 8 -21 33 -23 36 -4 41 -16 12 -32 -36 -19 -23 -33 25 -28 57 7 67 -7 20
-26 -40 -17 -39 -36 3 -36 l27 -1 -27 -20 c-16 -11 -28 -27 -28 -34 0 -20 -49
-55 -76 -55 -29 0 -83 56 -84 85 0 11 9 44 20 73 41 108 20 151 -78 163 -31 4
-69 11 -84 14 -21 6 -29 3 -34 -9z m177 -332 l24 -26 -40 -35 c-57 -49 -75
-58 -75 -36 0 24 47 123 58 123 5 0 19 -12 33 -26z m64 -103 c0 -19 -17 -35
-85 -77 -47 -29 -88 -53 -92 -54 -5 0 -8 10 -8 23 0 18 19 37 78 80 82 60 107
66 107 28z m15 -106 c0 -40 -3 -42 -93 -96 -74 -44 -102 -47 -102 -11 0 18 20
37 85 81 47 32 91 59 98 60 7 1 12 -12 12 -34z m-30 -133 c0 -9 -14 -34 -31
-55 -24 -29 -37 -37 -58 -35 -20 2 -26 8 -26 28 0 20 11 31 50 52 59 33 65 33
65 10z m-202 -14 c-2 -7 -30 -26 -61 -43 -54 -29 -57 -29 -74 -12 -16 15 -16
19 -3 27 8 5 24 10 35 10 11 0 31 7 45 15 31 18 63 19 58 3z"/>
</g>
</svg>
