<?xml version="1.0" standalone="no"?>
<!DOCTYPE svg PUBLIC "-//W3C//DTD SVG 20010904//EN"
 "http://www.w3.org/TR/2001/REC-SVG-20010904/DTD/svg10.dtd">
<svg version="1.0" xmlns="http://www.w3.org/2000/svg"
 width="114.000000pt" height="148.000000pt" viewBox="0 0 114.000000 148.000000"
 preserveAspectRatio="xMidYMid meet">
<metadata>
Created by potrace 1.16, written by Peter Selinger 2001-2019
</metadata>
<g transform="translate(0.000000,148.000000) scale(0.100000,-0.100000)"
fill="#000000" stroke="none">
<path d="M313 1404 c-7 -18 18 -41 54 -50 12 -3 29 -21 38 -40 22 -47 78 -88
111 -81 16 3 28 0 31 -9 5 -14 -22 -94 -57 -169 -10 -22 -33 -71 -50 -110 -17
-38 -35 -79 -41 -89 -35 -61 -68 -218 -69 -323 l0 -51 -73 -36 c-40 -20 -75
-36 -79 -36 -3 0 -25 29 -47 65 -23 36 -45 65 -50 65 -4 0 -15 -8 -24 -18 -15
-17 -14 -21 17 -68 19 -27 48 -62 66 -79 l31 -30 84 44 c84 44 105 46 105 11
0 -14 -17 -28 -52 -46 -29 -15 -70 -38 -91 -51 -22 -13 -45 -22 -52 -19 -7 2
-27 30 -45 60 -27 49 -34 55 -51 46 -10 -6 -19 -17 -19 -25 0 -18 99 -165 111
-165 6 0 25 11 42 24 48 36 177 107 185 102 4 -2 25 -31 47 -63 21 -32 74 -93
117 -135 68 -67 83 -78 113 -78 30 0 35 3 34 23 0 16 -21 37 -74 76 -41 29
-71 59 -69 65 3 7 21 19 40 26 68 27 125 144 161 330 3 14 11 46 19 72 13 39
21 49 55 62 46 19 82 20 110 5 25 -13 14 -32 -15 -25 -28 7 -51 -8 -43 -28 5
-13 22 -16 77 -16 63 0 71 -2 68 -18 -3 -14 -16 -18 -71 -20 -64 -3 -68 -4
-65 -25 3 -20 8 -22 60 -19 65 4 80 -9 60 -54 -10 -21 -18 -24 -66 -24 -67 0
-86 -7 -86 -30 0 -24 23 -31 73 -24 42 7 42 7 23 -14 -11 -13 -38 -24 -70 -29
-41 -7 -52 -12 -54 -29 -5 -36 22 -49 71 -33 63 20 80 31 114 69 50 57 66 105
66 202 1 80 -2 90 -24 114 -13 14 -48 37 -76 51 -50 25 -56 26 -110 14 -32 -7
-69 -20 -82 -28 -28 -18 -38 -10 -62 51 -16 44 -16 45 5 64 11 11 41 30 66 42
60 30 127 85 145 120 10 20 15 59 15 120 l0 91 -54 55 c-54 53 -56 54 -114 54
-42 0 -63 -5 -73 -16 -17 -20 1 -50 27 -46 11 2 31 6 47 9 26 5 57 -10 57 -27
0 -5 -17 -14 -37 -21 -39 -12 -63 -27 -63 -38 0 -3 9 -12 20 -19 16 -10 27 -9
56 3 50 21 84 20 84 -3 0 -14 -13 -22 -51 -31 -52 -14 -73 -36 -48 -52 8 -5
23 -7 34 -4 68 18 77 18 74 0 -3 -12 -22 -24 -53 -35 -53 -17 -65 -32 -46 -55
12 -15 6 -35 -11 -35 -5 0 -26 -11 -47 -23 -71 -45 -81 -44 -145 28 -31 35
-57 70 -57 77 0 7 18 62 41 122 40 107 41 109 24 145 -26 58 -59 76 -142 78
-40 1 -81 7 -92 12 -30 16 -71 13 -78 -5z m230 -65 c52 -28 50 -59 -3 -59 -30
0 -47 7 -65 25 -14 13 -25 29 -25 35 0 14 66 13 93 -1z m37 -410 c23 -28 39
-54 34 -59 -38 -34 -187 -140 -192 -136 -11 12 90 246 106 246 5 0 28 -23 52
-51z m105 -168 c3 -13 5 -24 3 -25 -2 -2 -21 -13 -43 -26 -22 -13 -84 -52
-137 -87 -97 -63 -136 -78 -124 -47 3 9 6 26 6 39 0 19 27 44 128 119 l127 96
17 -23 c9 -12 20 -33 23 -46z m21 -113 c-14 -101 -17 -108 -60 -130 -23 -11
-81 -45 -129 -75 -49 -31 -92 -52 -96 -47 -15 17 -33 74 -28 87 3 7 54 43 113
80 60 37 123 78 139 92 44 36 67 33 61 -7z m-46 -209 c0 -41 -59 -135 -99
-157 -21 -12 -44 -22 -50 -22 -6 0 -23 19 -38 42 -23 35 -25 42 -13 50 8 4 51
30 95 57 91 56 105 59 105 30z"/>
</g>
</svg>
