<?xml version="1.0" standalone="no"?>
<!DOCTYPE svg PUBLIC "-//W3C//DTD SVG 20010904//EN"
 "http://www.w3.org/TR/2001/REC-SVG-20010904/DTD/svg10.dtd">
<svg version="1.0" xmlns="http://www.w3.org/2000/svg"
 width="456.000000pt" height="590.000000pt" viewBox="0 0 456.000000 590.000000"
 preserveAspectRatio="xMidYMid meet">
<metadata>
Created by potrace 1.16, written by Peter Selinger 2001-2019
</metadata>
<g transform="translate(0.000000,590.000000) scale(0.500000,-0.500000)"
fill="#000000" stroke="none">
<path d="M262 1137 c-5 -4 -12 -18 -12 -25 0 -9 6 -13 35 -27 31 -15 34 -17
36 -26 8 -36 54 -73 90 -73 28 0 36 -5 28 -20 -1 -3 -4 -9 -5 -13 -1 -5 -5
-16 -8 -25 -3 -9 -8 -22 -10 -29 -10 -33 -21 -60 -25 -65 -5 -6 -16 -29 -42
-90 -16 -36 -20 -46 -33 -69 -4 -8 -11 -25 -16 -39 -5 -14 -10 -30 -13 -36 -6
-14 -13 -58 -15 -95 -1 -15 -3 -42 -4 -60 -1 -18 -3 -35 -4 -38 -1 -3 -2 -8
-2 -11 0 -8 -7 -14 -21 -20 -16 -6 -48 -21 -58 -28 -9 -6 -30 -14 -37 -14 -5
0 -10 6 -29 36 -41 65 -40 64 -53 60 -28 -8 -30 -29 -8 -59 4 -5 11 -17 16
-25 38 -69 60 -74 136 -35 74 38 69 37 76 22 9 -21 9 -20 -48 -52 -99 -56 -99
-56 -106 -47 -4 5 -32 52 -32 53 0 3 -19 28 -23 30 -10 7 -34 -9 -34 -22 0 -7
20 -45 33 -62 4 -5 12 -17 18 -25 17 -28 34 -46 40 -46 6 0 27 12 46 27 15 11
47 31 75 46 10 5 25 13 34 18 26 14 31 10 85 -72 27 -41 103 -116 133 -132 11
-5 51 -4 58 1 14 11 7 22 -33 52 -91 68 -91 68 -48 91 17 9 33 19 35 21 8 11
22 32 31 50 6 10 12 21 14 24 2 3 5 11 6 18 1 7 6 22 11 35 5 12 9 27 10 32 1
6 4 18 6 29 3 10 5 20 5 22 0 1 2 7 5 13 3 7 6 20 9 38 2 16 6 32 8 37 2 5 5
13 6 18 9 34 82 55 125 36 19 -9 12 -15 -15 -14 -33 1 -45 -20 -22 -38 8 -6
18 -6 70 -3 33 2 36 1 36 -12 0 -11 -2 -12 -50 -13 -48 -1 -56 -3 -59 -17 -5
-18 8 -24 55 -25 46 -1 46 -1 46 -19 0 -24 -10 -35 -33 -35 -9 0 -21 -1 -28
-3 -7 -2 -18 -3 -25 -3 -28 0 -41 -10 -36 -29 4 -13 11 -15 46 -15 32 0 33 0
26 -10 -7 -9 -15 -14 -28 -16 -7 -1 -15 -3 -18 -5 -3 -1 -12 -3 -21 -4 -37 -2
-45 -42 -11 -51 21 -6 94 17 109 34 4 4 14 15 22 24 41 43 52 75 54 154 1 29
1 39 -2 50 -2 7 -4 19 -5 27 -4 27 -27 45 -101 76 -16 7 -37 7 -53 1 -6 -2
-16 -5 -23 -6 -20 -2 -47 -12 -58 -19 -19 -13 -20 -11 -39 38 -19 49 -14 56
61 92 59 28 97 63 118 107 9 20 11 123 3 144 -26 70 -138 125 -184 90 -31 -23
-14 -56 22 -43 10 4 46 4 53 1 14 -8 19 -19 10 -22 -4 -1 -10 -4 -15 -6 -4 -2
-10 -4 -12 -4 -5 0 -30 -13 -34 -17 -22 -25 22 -45 59 -27 19 9 43 11 52 4 11
-9 5 -19 -12 -21 -6 -1 -18 -5 -27 -9 -10 -4 -20 -8 -24 -9 -16 -3 -23 -20
-12 -31 11 -11 30 -13 53 -4 23 8 26 9 30 5 7 -7 2 -17 -10 -20 -3 -1 -10 -3
-14 -6 -4 -2 -15 -6 -25 -9 -34 -12 -42 -27 -24 -47 10 -11 10 -11 -10 -21 -8
-5 -18 -11 -21 -13 -9 -8 -41 -23 -54 -26 -7 -2 -16 -4 -21 -5 -11 -4 -16 -1
-29 17 -5 8 -18 22 -28 33 -20 22 -37 41 -40 47 -5 8 -3 16 12 58 9 23 17 47
19 52 4 10 22 57 26 68 4 10 0 39 -8 50 -3 4 -8 12 -11 18 -4 7 -9 12 -15 15
-5 3 -12 7 -15 10 -18 15 -71 22 -116 15 -7 -1 -11 0 -30 10 -24 12 -44 15
-55 8z m164 -63 c28 -9 50 -40 33 -46 -34 -13 -96 19 -88 44 3 10 30 11 55 2z
m15 -302 c4 -3 9 -11 13 -17 5 -10 30 -35 34 -35 3 0 8 -14 7 -19 -1 -5 -1 -5
-73 -57 -87 -64 -86 -63 -75 -31 9 27 13 36 19 50 4 8 8 18 8 22 1 8 13 35 21
50 2 3 7 13 12 21 13 25 20 28 34 16z m91 -126 c11 -16 13 -19 17 -35 4 -18 4
-20 -11 -28 -6 -3 -14 -8 -18 -11 -4 -3 -18 -12 -31 -20 -37 -23 -51 -32 -61
-40 -5 -5 -10 -8 -11 -8 -1 0 -7 -3 -12 -8 -6 -4 -17 -11 -26 -15 -9 -4 -23
-12 -32 -18 -32 -20 -34 -19 -32 11 2 38 14 55 57 77 6 3 13 9 17 13 7 9 33
29 48 37 6 2 15 9 20 15 6 6 17 15 26 21 9 6 20 14 25 17 10 7 13 6 24 -8z
m33 -111 c3 -13 0 -45 -4 -53 -2 -4 -4 -13 -5 -21 -1 -22 -7 -31 -22 -36 -5
-2 -14 -7 -21 -11 -7 -4 -18 -11 -26 -14 -8 -4 -19 -10 -25 -15 -6 -5 -20 -14
-31 -20 -11 -6 -31 -18 -45 -27 -43 -26 -47 -25 -56 8 -1 5 -6 15 -9 21 -13
23 -16 21 134 115 20 12 47 30 61 39 42 28 46 29 49 14z m-37 -171 c5 -9 2
-26 -6 -41 -4 -8 -13 -25 -20 -39 -18 -34 -29 -45 -60 -61 -34 -16 -40 -14
-59 21 -4 7 -9 15 -12 18 -11 10 -7 16 21 33 13 7 33 19 46 26 86 50 86 50 90
43z"/>
</g>
</svg>
