<?xml version="1.0" standalone="no"?>
<!DOCTYPE svg PUBLIC "-//W3C//DTD SVG 20010904//EN"
 "http://www.w3.org/TR/2001/REC-SVG-20010904/DTD/svg10.dtd">
<svg version="1.0" xmlns="http://www.w3.org/2000/svg"
 width="260.000000pt" height="590.000000pt" viewBox="0 0 260.000000 590.000000"
 preserveAspectRatio="xMidYMid meet">
<metadata>
Created by potrace 1.16, written by Peter Selinger 2001-2019
</metadata>
<g transform="translate(0.000000,590.000000) scale(0.500000,-0.500000)"
fill="#000000" stroke="none">
<path d="M257 1135 c-4 -2 -13 -4 -19 -5 -6 -1 -14 -4 -19 -8 -5 -3 -12 -6
-15 -6 -3 0 -11 -2 -18 -4 -7 -2 -14 -4 -15 -4 -1 0 -6 -3 -11 -6 -4 -3 -14
-9 -21 -13 -13 -6 -47 -37 -47 -43 0 -1 -4 -7 -10 -13 -11 -12 -25 -35 -27
-44 -1 -3 -4 -10 -7 -14 -9 -12 -10 -25 -4 -42 3 -8 4 -17 4 -26 0 -9 2 -20 4
-27 2 -7 4 -16 4 -20 0 -4 2 -13 4 -20 6 -21 9 -32 10 -46 1 -7 3 -18 5 -24 1
-6 4 -15 5 -20 5 -22 8 -29 24 -59 9 -18 18 -33 19 -35 2 -2 4 -7 7 -12 2 -5
6 -12 8 -14 4 -3 6 -9 8 -17 2 -14 5 -17 18 -23 10 -4 10 -5 13 -17 2 -8 8
-13 16 -13 5 0 9 -3 40 -33 7 -7 16 -17 22 -24 5 -6 14 -14 19 -17 5 -4 12
-10 16 -14 6 -6 9 -8 18 -9 8 -1 12 -3 20 -10 6 -5 19 -13 28 -18 27 -14 32
-25 22 -52 -2 -7 -4 -15 -4 -19 0 -5 -1 -11 -3 -16 -2 -4 -4 -13 -5 -21 -1 -9
-3 -15 -7 -20 -7 -9 -22 -39 -26 -50 -2 -6 -8 -18 -14 -27 -7 -11 -13 -22 -18
-38 -10 -30 -27 -62 -40 -76 -21 -23 -25 -38 -14 -53 22 -29 61 -15 85 30 5 9
11 19 13 22 8 11 20 38 22 48 1 10 12 33 24 50 3 6 9 17 11 24 3 10 7 17 13
23 11 11 19 29 19 41 0 5 1 12 3 17 2 5 4 15 5 24 1 8 3 18 4 21 1 3 2 18 2
34 0 19 1 31 3 38 2 5 3 13 3 18 0 4 3 18 7 29 4 13 7 27 8 36 0 8 2 18 4 23
5 11 4 205 -1 215 -2 4 -8 22 -14 40 -14 46 -20 63 -25 79 -3 8 -7 18 -8 23
-2 5 -7 22 -13 38 -5 16 -15 45 -21 65 -6 20 -14 42 -16 50 -9 28 -24 48 -43
58 -4 2 -13 9 -20 15 -7 7 -15 12 -18 13 -11 2 -29 1 -37 -2z m22 -88 c4 -5
12 -12 17 -16 9 -7 10 -7 11 -19 1 -9 3 -14 7 -20 12 -16 13 -31 6 -51 -2 -6
-38 -21 -54 -22 -10 -1 -13 -3 -19 -8 -4 -4 -9 -7 -14 -8 -13 -2 -15 -3 -19
-10 -3 -5 -7 -9 -13 -11 -6 -3 -13 -7 -16 -10 -72 -68 -115 43 -46 120 5 5 10
12 12 15 7 14 37 33 59 37 6 1 15 3 20 4 5 1 14 4 19 5 18 5 22 4 30 -6z m78
-165 c2 -1 3 -8 4 -14 1 -10 3 -14 8 -20 29 -32 19 -86 -20 -105 -7 -4 -15
-10 -18 -13 -3 -3 -9 -7 -13 -8 -4 -1 -10 -4 -13 -7 -18 -13 -32 -18 -37 -12
-4 5 -13 4 -20 -3 -43 -37 -90 -26 -90 22 0 6 -2 15 -3 19 -2 4 -4 12 -6 16
-1 5 -4 11 -7 14 -10 14 9 33 32 33 5 0 11 2 18 7 6 4 12 7 14 7 4 0 41 21 67
40 27 18 75 32 84 24z m55 -182 c4 -6 3 -125 -2 -136 -3 -6 -4 -13 -4 -22 0
-8 -2 -18 -4 -25 -2 -7 -4 -15 -5 -19 -3 -19 -13 -22 -25 -8 -6 7 -11 11 -18
13 -6 3 -12 6 -14 10 -3 3 -9 7 -15 10 -5 3 -15 10 -21 16 -29 27 -53 53 -58
60 -3 4 -8 10 -10 13 -8 10 10 26 28 26 4 0 13 3 20 6 6 3 16 7 20 8 5 1 14 6
20 10 6 4 18 11 26 15 8 4 20 11 25 15 17 13 30 16 37 8z"/>
</g>
</svg>
