<?xml version="1.0" standalone="no"?>
<!DOCTYPE svg PUBLIC "-//W3C//DTD SVG 20010904//EN"
 "http://www.w3.org/TR/2001/REC-SVG-20010904/DTD/svg10.dtd">
<svg version="1.0" xmlns="http://www.w3.org/2000/svg"
 width="45.000000pt" height="100.000000pt" viewBox="0 0 45.000000 100.000000"
 preserveAspectRatio="xMidYMid meet">
<metadata>
Created by potrace 1.16, written by Peter Selinger 2001-2019
</metadata>
<g transform="translate(0.000000,100.000000) scale(0.100000,-0.100000)"
fill="#000000" stroke="none">
<path d="M150 933 c-73 -38 -115 -91 -113 -144 4 -85 34 -185 74 -247 39 -60
126 -140 188 -174 41 -22 38 -37 -38 -190 -58 -117 -61 -138 -21 -138 24 0 41
23 92 130 53 109 78 230 78 380 0 79 -5 103 -46 222 -49 143 -81 188 -134 188
-15 0 -51 -12 -80 -27z m110 -75 c22 -37 22 -57 0 -68 -159 -80 -170 -82 -170
-32 0 39 38 93 80 114 50 25 68 22 90 -14z m60 -153 c7 -20 9 -42 6 -50 -5
-14 -135 -85 -156 -85 -13 0 -38 40 -42 69 -3 20 7 29 67 61 91 50 110 50 125
5z m35 -125 c11 -18 -7 -151 -21 -157 -18 -7 -124 73 -124 93 0 9 9 18 20 21
11 3 39 16 62 29 49 27 55 28 63 14z"/>
</g>
</svg>
