<?xml version="1.0" standalone="no"?>
<!DOCTYPE svg PUBLIC "-//W3C//DTD SVG 20010904//EN"
 "http://www.w3.org/TR/2001/REC-SVG-20010904/DTD/svg10.dtd">
<svg version="1.0" xmlns="http://www.w3.org/2000/svg"
 width="66.000000pt" height="148.000000pt" viewBox="0 0 66.000000 148.000000"
 preserveAspectRatio="xMidYMid meet">
<metadata>
Created by potrace 1.16, written by Peter Selinger 2001-2019
</metadata>
<g transform="translate(0.000000,148.000000) scale(0.100000,-0.100000)"
fill="#000000" stroke="none">
<path d="M285 1406 c-16 -8 -51 -21 -77 -30 -50 -19 -91 -58 -133 -130 -25
-43 -26 -49 -16 -108 19 -117 42 -213 61 -253 37 -76 74 -140 87 -148 7 -4 13
-15 13 -22 0 -8 6 -15 13 -15 8 0 39 -24 71 -54 31 -30 82 -68 114 -84 l57
-30 -2 -58 c-2 -45 -12 -77 -53 -160 -27 -57 -50 -106 -50 -110 0 -3 -13 -26
-30 -51 -44 -64 -38 -93 20 -93 20 0 100 117 100 145 0 17 43 98 66 125 8 9
18 49 24 90 15 98 26 164 39 220 6 25 10 99 11 165 l0 120 -71 210 c-66 199
-72 212 -112 247 -46 41 -81 47 -132 24z m81 -108 c25 -29 44 -72 44 -102 0
-22 -33 -46 -64 -46 -16 0 -43 -14 -110 -58 -78 -50 -106 -40 -106 38 0 35 8
58 30 92 37 56 49 67 97 84 56 19 87 17 109 -8z m90 -205 c3 -10 9 -25 13 -33
5 -9 12 -35 16 -58 l7 -41 -70 -46 c-42 -26 -77 -43 -86 -39 -8 3 -27 -4 -42
-15 -60 -47 -103 -6 -117 113 -1 14 9 23 43 34 25 8 68 29 95 47 84 53 132 66
141 38z m62 -330 c-3 -65 -11 -130 -17 -146 l-11 -27 -45 32 c-66 47 -155 135
-155 152 0 9 12 18 28 21 38 8 141 56 154 72 6 7 20 13 31 13 19 0 20 -5 15
-117z"/>
</g>
</svg>
