<?xml version="1.0" standalone="no"?>
<!DOCTYPE svg PUBLIC "-//W3C//DTD SVG 20010904//EN"
 "http://www.w3.org/TR/2001/REC-SVG-20010904/DTD/svg10.dtd">
<svg version="1.0" xmlns="http://www.w3.org/2000/svg"
 width="66.000000pt" height="148.000000pt" viewBox="0 0 66.000000 148.000000"
 preserveAspectRatio="xMidYMid meet">
<metadata>
Created by potrace 1.16, written by Peter Selinger 2001-2019
</metadata>
<g transform="translate(0.000000,148.000000) scale(0.100000,-0.100000)"
fill="#000000" stroke="none">
<path d="M317 1413 c-13 -12 -7 -50 8 -63 9 -7 25 -34 36 -59 12 -25 38 -81
60 -123 38 -78 67 -183 57 -209 -3 -8 -32 -27 -63 -43 -32 -16 -81 -53 -110
-83 -29 -29 -56 -53 -60 -53 -15 0 -62 -61 -99 -131 -39 -73 -53 -119 -82
-283 -16 -84 -16 -91 1 -120 50 -87 131 -156 183 -156 10 0 22 -4 28 -10 5 -5
30 -12 54 -15 41 -5 48 -3 86 32 39 35 47 53 114 250 l72 212 -4 148 c-3 90
-9 157 -16 171 -7 12 -15 52 -18 90 -7 86 -23 163 -39 182 -22 27 -65 112 -65
129 0 9 -9 27 -20 41 -11 14 -20 30 -20 35 0 6 -12 22 -25 38 -22 25 -63 36
-78 20z m192 -591 c13 -63 15 -219 2 -226 -5 -3 -19 3 -32 13 -39 30 -122 71
-145 71 -11 0 -28 6 -37 13 -15 11 -14 15 16 49 40 47 170 148 178 139 4 -3
12 -30 18 -59z m-215 -203 c15 -11 33 -18 41 -15 21 8 135 -63 146 -91 9 -25
2 -80 -12 -89 -5 -3 -9 -14 -9 -25 0 -43 -50 -34 -145 27 -28 17 -71 39 -95
47 -48 16 -47 14 -34 89 7 42 36 78 63 78 10 0 30 -9 45 -21z m-56 -231 c58
-41 90 -58 108 -58 30 0 64 -24 64 -45 0 -35 -27 -91 -55 -113 -27 -22 -50
-19 -125 17 -52 24 -100 101 -100 160 0 79 33 91 108 39z"/>
</g>
</svg>
