<?xml version="1.0" standalone="no"?>
<!DOCTYPE svg PUBLIC "-//W3C//DTD SVG 20010904//EN"
 "http://www.w3.org/TR/2001/REC-SVG-20010904/DTD/svg10.dtd">
<svg version="1.0" xmlns="http://www.w3.org/2000/svg"
 width="45.000000pt" height="100.000000pt" viewBox="0 0 45.000000 100.000000"
 preserveAspectRatio="xMidYMid meet">
<metadata>
Created by potrace 1.16, written by Peter Selinger 2001-2019
</metadata>
<g transform="translate(0.000000,100.000000) scale(0.100000,-0.100000)"
fill="#000000" stroke="none">
<path d="M208 949 c-2 -6 22 -64 54 -128 79 -159 80 -162 26 -194 -67 -39
-138 -106 -179 -170 -42 -64 -86 -226 -75 -272 4 -14 25 -45 49 -69 32 -33 56
-48 101 -61 99 -29 112 -16 180 181 41 118 46 140 46 220 0 49 -9 136 -19 194
-15 87 -27 122 -70 208 -48 93 -56 102 -81 102 -16 0 -30 -5 -32 -11z m146
-456 c4 -39 3 -74 -2 -77 -13 -8 -141 57 -142 71 0 7 26 33 57 58 70 54 78 50
87 -52z m-112 -91 c84 -38 94 -51 79 -102 -15 -50 -24 -50 -121 -1 -81 40 -89
56 -55 108 19 29 20 29 97 -5z m-60 -153 c35 -17 70 -35 78 -39 23 -11 22 -31
0 -68 -22 -36 -39 -38 -100 -9 -58 28 -98 147 -48 147 4 0 36 -14 70 -31z"/>
</g>
</svg>
