<?xml version="1.0" standalone="no"?>
<!DOCTYPE svg PUBLIC "-//W3C//DTD SVG 20010904//EN"
 "http://www.w3.org/TR/2001/REC-SVG-20010904/DTD/svg10.dtd">
<svg version="1.0" xmlns="http://www.w3.org/2000/svg"
 width="260.000000pt" height="590.000000pt" viewBox="0 0 260.000000 590.000000"
 preserveAspectRatio="xMidYMid meet">
<metadata>
Created by potrace 1.16, written by Peter Selinger 2001-2019
</metadata>
<g transform="translate(0.000000,590.000000) scale(0.500000,-0.500000)"
fill="#000000" stroke="none">
<path d="M275 1137 c-3 -1 -9 -3 -13 -4 -25 -4 -28 -32 -5 -57 15 -17 33 -49
42 -76 8 -25 13 -36 19 -43 6 -7 16 -26 16 -29 0 -4 17 -36 25 -48 5 -8 7 -12
7 -19 0 -5 2 -14 4 -20 2 -7 4 -15 4 -19 0 -4 2 -13 4 -19 10 -27 5 -38 -22
-51 -9 -5 -21 -12 -27 -17 -5 -5 -11 -9 -14 -10 -2 0 -7 -1 -11 -2 -6 -1 -10
-3 -13 -8 -4 -4 -10 -10 -15 -13 -5 -3 -14 -11 -20 -18 -6 -7 -16 -17 -23 -24
-6 -6 -16 -16 -22 -22 -8 -8 -12 -10 -18 -11 -10 -2 -14 -6 -16 -14 -2 -12 -3
-13 -12 -16 -12 -5 -18 -12 -20 -24 -1 -7 -3 -12 -8 -17 -4 -5 -7 -9 -7 -11 0
-2 -4 -10 -9 -18 -12 -20 -33 -62 -36 -73 -2 -5 -4 -12 -5 -15 -3 -11 -9 -36
-10 -48 -2 -14 -4 -26 -10 -44 -2 -7 -4 -16 -4 -21 0 -4 -1 -11 -3 -16 -2 -4
-4 -15 -4 -26 -1 -11 -3 -23 -5 -30 -6 -17 -5 -34 4 -43 2 -2 5 -8 7 -13 4
-11 16 -31 27 -44 5 -6 11 -14 14 -18 7 -12 28 -31 42 -38 7 -4 17 -9 21 -12
8 -6 20 -10 42 -15 7 -1 15 -5 19 -7 5 -4 11 -6 19 -8 7 -1 15 -3 17 -4 17 -9
42 -4 59 12 6 6 15 13 18 15 22 11 32 26 46 71 5 15 12 36 15 46 4 10 7 22 8
25 1 5 9 28 20 58 1 3 6 17 10 31 4 14 9 28 10 31 1 3 5 15 8 25 3 10 7 22 8
25 1 3 6 17 10 30 l8 25 0 96 c0 83 0 97 -3 104 -2 4 -4 14 -4 23 -1 10 -4 23
-8 37 -4 11 -7 24 -7 29 0 5 -1 12 -3 17 -2 6 -3 17 -3 37 0 16 -1 31 -2 34
-1 3 -3 13 -4 21 -1 9 -3 19 -5 24 -2 5 -3 13 -3 18 0 12 -7 26 -20 43 -6 6
-10 13 -10 14 0 5 -8 24 -15 33 -10 15 -20 36 -23 49 -2 13 -11 32 -21 47 -3
5 -9 15 -13 22 -15 30 -42 50 -57 43z m118 -436 c1 -3 4 -10 5 -16 1 -7 3 -15
5 -19 2 -5 3 -13 3 -20 0 -7 2 -16 4 -22 6 -14 6 -132 1 -138 -6 -7 -22 -3
-36 8 -3 3 -16 11 -28 17 -12 6 -25 14 -28 16 -3 3 -9 6 -13 7 -4 1 -13 5 -20
8 -7 3 -17 6 -23 7 -18 2 -34 14 -30 22 15 23 44 55 60 66 5 3 10 7 11 10 2 3
9 9 17 13 8 5 16 12 19 15 4 4 9 7 13 8 5 1 10 5 19 13 12 13 15 13 21 5z
m-176 -193 c6 -2 19 -11 31 -21 9 -8 12 -9 20 -3 7 5 17 2 35 -11 4 -3 9 -6
13 -7 4 -2 10 -5 14 -9 4 -4 12 -9 18 -12 41 -21 51 -78 20 -108 -4 -4 -6 -8
-6 -12 0 -25 -9 -28 -49 -15 -22 8 -34 14 -53 28 -4 3 -13 9 -21 13 -8 4 -16
9 -19 11 -3 2 -9 5 -15 7 -5 1 -12 5 -15 8 -4 3 -10 5 -16 6 -30 4 -40 16 -30
36 11 22 12 28 13 44 3 34 32 56 60 45z m-54 -179 c8 -4 19 -11 23 -14 4 -4
11 -8 16 -10 4 -2 8 -4 8 -5 0 -5 12 -14 21 -16 6 -1 12 -4 17 -9 7 -6 9 -7
18 -7 8 0 15 -2 28 -8 10 -4 19 -8 20 -8 12 0 13 -42 1 -56 -5 -7 -6 -9 -8
-24 -1 -9 -2 -11 -10 -16 -4 -3 -12 -10 -17 -16 -11 -11 -11 -11 -32 -6 -17 4
-25 6 -38 9 -26 5 -52 21 -60 37 -2 4 -7 11 -12 16 -58 66 -39 164 25 133z"/>
</g>
</svg>
