<?xml version="1.0" standalone="no"?>
<!DOCTYPE svg PUBLIC "-//W3C//DTD SVG 20010904//EN"
 "http://www.w3.org/TR/2001/REC-SVG-20010904/DTD/svg10.dtd">
<svg version="1.0" xmlns="http://www.w3.org/2000/svg"
 width="252.000000pt" height="590.000000pt" viewBox="0 0 252.000000 590.000000"
 preserveAspectRatio="xMidYMid meet">
<metadata>
Created by potrace 1.16, written by Peter Selinger 2001-2019
</metadata>
<g transform="translate(0.000000,590.000000) scale(0.500000,-0.500000)"
fill="#000000" stroke="none">
<path d="M309 1139 c-40 -10 -55 -23 -55 -47 0 -10 -5 -30 -16 -58 -3 -8 -7
-22 -10 -31 -2 -9 -7 -22 -10 -28 -3 -7 -7 -18 -8 -23 -2 -12 -83 -253 -87
-263 -17 -33 -15 -65 9 -106 2 -3 7 -13 10 -22 4 -9 11 -25 17 -37 6 -12 11
-23 12 -26 1 -3 6 -14 11 -26 10 -21 19 -43 30 -69 4 -8 10 -22 15 -32 5 -10
9 -20 10 -23 1 -3 5 -12 9 -21 5 -8 10 -21 13 -28 2 -6 8 -19 12 -28 29 -57
23 -77 -29 -96 -6 -2 -16 -7 -23 -11 -6 -5 -15 -10 -19 -11 -4 -1 -11 -4 -15
-7 -27 -13 -54 -5 -67 20 -2 4 -7 9 -11 12 -3 2 -12 10 -19 18 -31 33 -61 11
-50 -37 1 -5 4 -10 8 -13 4 -3 11 -10 17 -15 36 -39 119 -49 163 -21 5 3 13 7
17 8 5 1 11 4 14 7 36 29 56 37 64 25 11 -14 25 -35 25 -38 0 -1 3 -8 6 -16 3
-7 7 -18 8 -25 4 -18 12 -25 29 -25 36 0 41 30 14 72 -4 5 -10 19 -13 30 -4
10 -10 25 -14 32 -4 7 -8 16 -9 20 0 4 -4 12 -8 19 -4 7 -9 19 -12 30 -3 11
-7 22 -10 25 -7 10 -13 23 -13 29 0 10 -3 19 -12 31 -4 7 -9 17 -11 23 -2 6
-6 17 -10 24 -4 8 -9 20 -12 27 -2 7 -7 18 -10 24 -19 38 -15 66 12 86 5 4 13
11 16 15 3 4 9 11 13 14 4 3 9 8 12 11 3 3 9 8 15 10 7 3 10 6 12 10 1 4 7 10
12 14 5 5 10 11 11 15 1 4 5 12 9 19 18 28 35 67 40 88 13 58 15 66 15 69 0 2
3 9 6 17 4 10 6 17 6 24 0 6 1 14 2 17 9 31 1 157 -10 171 -5 7 -7 11 -8 22
-3 22 -5 25 -34 55 -16 15 -30 31 -33 35 -6 10 -40 19 -56 15z m45 -75 c21
-20 36 -43 39 -62 1 -5 4 -14 6 -21 6 -14 7 -35 2 -39 -4 -3 -17 3 -47 21 -7
4 -17 9 -22 10 -5 1 -13 4 -18 7 -5 2 -12 5 -15 6 -12 4 -15 27 -6 43 4 8 6
13 7 28 1 23 3 25 21 25 13 0 13 0 33 -18z m-56 -124 c5 -2 11 -6 14 -9 7 -6
18 -11 28 -11 10 0 19 -3 28 -10 4 -3 11 -7 16 -10 9 -5 9 -5 10 -30 1 -14 2
-35 3 -46 3 -45 -21 -55 -57 -26 -4 3 -8 6 -9 6 -1 0 -4 2 -7 5 -3 3 -9 7 -14
10 -5 2 -11 5 -14 7 -3 2 -9 4 -14 5 -34 5 -50 27 -35 47 13 18 13 18 13 34 0
33 10 40 38 28z m-51 -142 c12 -3 23 -9 33 -15 26 -18 60 -36 73 -39 20 -5 21
-9 12 -35 -3 -8 -5 -18 -5 -22 0 -27 -30 -39 -53 -23 -15 11 -17 12 -26 10 -8
-2 -29 7 -45 20 -4 3 -11 8 -16 11 -23 13 -29 63 -8 76 1 0 2 4 3 8 4 16 7 17
32 9z m-46 -133 c23 -14 74 -39 84 -41 24 -5 23 -18 -5 -46 -54 -53 -53 -54
-80 17 -2 5 -6 14 -9 19 -6 11 -14 33 -17 45 -5 15 8 18 27 6z"/>
</g>
</svg>
