<?xml version="1.0" standalone="no"?>
<!DOCTYPE svg PUBLIC "-//W3C//DTD SVG 20010904//EN"
 "http://www.w3.org/TR/2001/REC-SVG-20010904/DTD/svg10.dtd">
<svg version="1.0" xmlns="http://www.w3.org/2000/svg"
 width="64.000000pt" height="148.000000pt" viewBox="0 0 64.000000 148.000000"
 preserveAspectRatio="xMidYMid meet">
<metadata>
Created by potrace 1.16, written by Peter Selinger 2001-2019
</metadata>
<g transform="translate(0.000000,148.000000) scale(0.100000,-0.100000)"
fill="#000000" stroke="none">
<path d="M342 1404 c-12 -8 -22 -25 -22 -37 0 -12 -41 -141 -90 -287 -50 -145
-90 -272 -90 -281 0 -9 22 -63 49 -120 26 -57 63 -137 80 -178 18 -40 48 -107
67 -148 19 -42 34 -82 32 -90 -4 -20 -136 -92 -168 -93 -18 0 -40 14 -70 45
-48 49 -75 57 -83 24 -9 -35 9 -66 55 -93 85 -49 132 -44 242 27 l49 31 21
-27 c12 -16 28 -49 36 -75 17 -54 50 -69 70 -32 10 18 7 32 -18 83 -16 34 -36
78 -44 97 -8 19 -25 60 -38 90 -13 30 -32 75 -43 100 -49 112 -57 133 -57 154
0 16 24 46 74 92 86 81 117 136 151 272 29 113 34 260 10 302 -8 14 -14 34
-15 45 0 11 -22 41 -48 68 -42 40 -55 47 -88 47 -22 0 -50 -7 -62 -16z m100
-66 c37 -35 58 -73 65 -123 3 -25 3 -45 0 -45 -3 0 -31 14 -62 30 -31 17 -64
30 -72 30 -13 0 -14 10 -8 58 4 31 9 60 12 65 8 14 40 7 65 -15z m-51 -174 c6
-8 23 -14 38 -14 50 -1 70 -28 72 -98 3 -80 -8 -91 -58 -63 -21 12 -62 32 -90
46 -37 17 -53 31 -53 44 0 11 5 23 10 26 6 3 10 19 10 34 0 15 5 32 11 38 13
13 44 6 60 -13z m-13 -200 c48 -25 88 -47 90 -49 2 -2 -2 -21 -8 -44 -13 -49
-39 -67 -66 -46 -11 8 -28 15 -38 15 -11 0 -39 11 -63 25 -38 23 -43 30 -43
61 0 29 23 84 36 84 2 0 44 -21 92 -46z m-15 -184 c30 0 27 -19 -9 -60 -59
-65 -72 -68 -90 -23 -8 21 -24 59 -36 84 -30 68 -18 75 56 34 35 -19 70 -35
79 -35z"/>
</g>
</svg>
