<?xml version="1.0" standalone="no"?>
<!DOCTYPE svg PUBLIC "-//W3C//DTD SVG 20010904//EN"
 "http://www.w3.org/TR/2001/REC-SVG-20010904/DTD/svg10.dtd">
<svg version="1.0" xmlns="http://www.w3.org/2000/svg"
 width="43.000000pt" height="100.000000pt" viewBox="0 0 43.000000 100.000000"
 preserveAspectRatio="xMidYMid meet">
<metadata>
Created by potrace 1.16, written by Peter Selinger 2001-2019
</metadata>
<g transform="translate(0.000000,100.000000) scale(0.100000,-0.100000)"
fill="#000000" stroke="none">
<path d="M226 952 c-3 -4 -35 -99 -71 -211 l-67 -203 76 -166 c42 -92 76 -174
76 -184 0 -17 -73 -58 -105 -58 -11 0 -33 14 -51 31 -28 27 -33 29 -47 15 -36
-37 24 -96 97 -96 24 0 56 10 83 26 50 29 67 23 78 -26 8 -35 27 -52 49 -44
24 9 20 37 -19 113 -41 82 -105 235 -105 251 0 6 24 37 54 68 63 67 78 94 100
183 30 121 18 214 -36 274 -24 29 -37 35 -68 35 -22 0 -41 -4 -44 -8z m83 -69
c22 -27 37 -70 28 -79 -2 -3 -23 3 -46 12 -31 12 -41 22 -41 39 0 59 26 71 59
28z m-20 -111 c35 -17 56 -58 44 -88 -7 -20 -24 -18 -77 12 -50 28 -51 30 -36
68 11 30 22 31 69 8z m-29 -127 c53 -27 53 -27 44 -62 -8 -29 -32 -29 -85 -3
-46 24 -55 40 -39 69 14 27 20 26 80 -4z m-49 -107 c22 -12 39 -25 39 -28 0
-14 -49 -52 -59 -45 -11 6 -41 70 -41 86 0 15 20 10 61 -13z"/>
</g>
</svg>
