<?xml version="1.0" standalone="no"?>
<!DOCTYPE svg PUBLIC "-//W3C//DTD SVG 20010904//EN"
 "http://www.w3.org/TR/2001/REC-SVG-20010904/DTD/svg10.dtd">
<svg version="1.0" xmlns="http://www.w3.org/2000/svg"
 width="252.000000pt" height="590.000000pt" viewBox="0 0 252.000000 590.000000"
 preserveAspectRatio="xMidYMid meet">
<metadata>
Created by potrace 1.16, written by Peter Selinger 2001-2019
</metadata>
<g transform="translate(0.000000,590.000000) scale(0.500000,-0.500000)"
fill="#000000" stroke="none">
<path d="M155 1137 c-17 -4 -22 -6 -26 -12 -4 -7 -13 -16 -41 -43 -21 -21 -24
-27 -26 -48 -2 -12 -3 -15 -8 -21 -3 -4 -6 -9 -7 -12 -1 -2 -2 -10 -4 -17 -3
-15 -4 -117 -1 -132 1 -5 3 -17 4 -27 1 -12 3 -20 6 -25 2 -4 4 -11 5 -15 1
-4 3 -14 5 -22 2 -8 4 -18 5 -23 5 -31 21 -76 35 -96 2 -3 9 -15 15 -27 8 -16
13 -23 17 -26 3 -2 8 -7 10 -11 3 -6 7 -9 13 -12 6 -2 16 -12 31 -26 13 -13
25 -25 29 -28 24 -18 25 -47 4 -89 -4 -8 -7 -16 -7 -16 0 -1 -4 -12 -10 -24
-5 -12 -11 -26 -13 -32 -2 -5 -7 -14 -11 -21 -6 -9 -9 -15 -10 -24 -2 -11 -9
-28 -16 -38 -2 -2 -4 -8 -5 -12 -2 -12 -7 -26 -15 -42 -5 -8 -8 -16 -8 -17 0
-2 -4 -10 -8 -18 -4 -8 -10 -23 -14 -34 -4 -11 -11 -25 -16 -34 -24 -38 -17
-67 15 -67 20 0 26 6 32 31 1 7 4 15 6 19 2 3 4 10 6 15 16 51 37 55 88 15 5
-5 11 -8 13 -8 2 0 11 -4 21 -9 50 -27 126 -17 163 22 5 5 13 13 17 16 9 8 11
45 3 55 -12 15 -28 13 -46 -5 -7 -8 -17 -17 -23 -22 -5 -4 -9 -8 -9 -10 0 -9
-25 -25 -38 -25 -12 0 -49 14 -61 23 -4 3 -14 8 -23 12 -16 7 -44 26 -48 33
-5 10 0 29 20 68 5 10 11 23 12 27 1 4 6 13 9 20 4 7 9 18 12 25 2 7 7 19 11
25 3 7 8 18 11 25 2 7 7 19 11 25 3 7 8 18 11 25 2 7 7 18 11 25 3 7 8 18 11
26 3 8 9 21 14 30 5 9 9 18 10 21 1 3 7 18 14 33 20 43 21 44 22 54 1 9 -6 41
-12 54 -3 5 -16 44 -65 190 -11 33 -22 66 -23 73 -2 7 -5 15 -7 19 -4 6 -8 20
-14 41 -2 7 -8 25 -13 39 -6 16 -9 29 -9 35 0 35 -41 59 -85 49z m34 -58 c3
-2 4 -6 5 -23 1 -16 2 -21 6 -26 18 -25 4 -45 -39 -57 -5 -1 -13 -5 -19 -9
-51 -32 -65 -28 -50 12 2 6 6 17 7 24 12 50 65 97 90 79z m36 -136 c6 -4 9
-18 9 -36 0 -12 1 -13 8 -22 20 -25 9 -46 -29 -54 -7 -1 -15 -4 -17 -6 -1 -1
-6 -4 -11 -6 -4 -2 -10 -5 -14 -8 -51 -42 -81 -37 -76 11 0 7 1 25 2 39 1 33
2 34 9 37 3 1 9 5 14 9 10 8 22 13 32 13 10 0 22 5 32 13 12 10 33 16 41 10z
m47 -141 c2 -1 4 -5 5 -8 1 -4 4 -10 6 -15 17 -26 15 -58 -4 -70 -6 -4 -14 -9
-18 -12 -19 -14 -42 -26 -45 -24 -5 3 -16 1 -23 -4 -30 -24 -55 -15 -61 21 -1
7 -4 19 -7 27 -7 17 -3 24 17 28 11 2 37 16 70 38 22 13 52 23 60 19z m48
-137 c0 -6 -1 -10 -30 -79 -23 -58 -23 -58 -64 -20 -42 39 -45 49 -15 59 19 6
43 18 83 41 15 8 25 8 26 -1z"/>
</g>
</svg>
