<?xml version="1.0" standalone="no"?>
<!DOCTYPE svg PUBLIC "-//W3C//DTD SVG 20010904//EN"
 "http://www.w3.org/TR/2001/REC-SVG-20010904/DTD/svg10.dtd">
<svg version="1.0" xmlns="http://www.w3.org/2000/svg"
 width="64.000000pt" height="148.000000pt" viewBox="0 0 64.000000 148.000000"
 preserveAspectRatio="xMidYMid meet">
<metadata>
Created by potrace 1.16, written by Peter Selinger 2001-2019
</metadata>
<g transform="translate(0.000000,148.000000) scale(0.100000,-0.100000)"
fill="#000000" stroke="none">
<path d="M122 1365 c-32 -33 -52 -64 -52 -78 0 -13 -5 -28 -11 -34 -16 -16 -5
-226 16 -308 29 -115 74 -191 154 -263 51 -46 71 -70 71 -88 0 -13 -21 -70
-46 -126 -26 -57 -50 -112 -54 -123 -35 -88 -53 -131 -61 -140 -5 -5 -9 -16
-9 -26 0 -9 -9 -28 -20 -42 -29 -37 -26 -75 6 -83 30 -8 37 -2 53 52 8 23 24
54 36 70 l23 28 38 -25 c109 -72 161 -82 235 -44 56 29 81 59 77 91 -5 47 -39
44 -91 -10 -29 -31 -52 -46 -68 -46 -33 1 -163 73 -167 93 -3 15 68 181 180
419 37 78 49 114 45 135 -3 15 -44 140 -91 277 -47 137 -86 260 -86 272 0 31
-36 54 -85 54 -37 0 -47 -6 -93 -55z m114 -13 c6 -4 15 -30 19 -59 l7 -51 -73
-36 c-83 -41 -93 -37 -73 29 17 60 29 80 60 104 28 22 42 25 60 13z m54 -182
c6 -11 8 -24 5 -29 -3 -5 3 -23 12 -39 14 -25 15 -32 4 -46 -7 -9 -21 -16 -30
-16 -9 0 -41 -16 -71 -35 -63 -40 -64 -40 -84 -20 -22 23 -10 124 18 147 11
10 29 18 38 18 10 0 32 9 50 20 41 25 45 25 58 0z m65 -190 c8 -16 15 -43 15
-59 0 -25 -7 -35 -43 -56 -24 -14 -53 -25 -65 -25 -11 0 -24 -4 -27 -10 -9
-14 -51 -12 -62 3 -6 6 -13 28 -17 48 l-6 35 87 47 c49 25 91 46 95 47 4 0 14
-13 23 -30z m55 -149 c0 -5 -13 -38 -30 -73 -16 -34 -30 -69 -30 -75 0 -27
-39 -11 -79 32 -45 49 -46 60 -3 70 15 3 46 17 67 30 41 25 75 32 75 16z"/>
</g>
</svg>
