<?xml version="1.0" standalone="no"?>
<!DOCTYPE svg PUBLIC "-//W3C//DTD SVG 20010904//EN"
 "http://www.w3.org/TR/2001/REC-SVG-20010904/DTD/svg10.dtd">
<svg version="1.0" xmlns="http://www.w3.org/2000/svg"
 width="76.000000pt" height="148.000000pt" viewBox="0 0 76.000000 148.000000"
 preserveAspectRatio="xMidYMid meet">
<metadata>
Created by potrace 1.16, written by Peter Selinger 2001-2019
</metadata>
<g transform="translate(0.000000,148.000000) scale(0.100000,-0.100000)"
fill="#000000" stroke="none">
<path d="M268 1387 c-18 -18 -46 -58 -62 -87 -16 -30 -53 -86 -82 -123 -54
-71 -74 -128 -53 -153 7 -9 30 -14 62 -14 38 0 58 -6 83 -25 18 -14 36 -25 41
-25 11 0 65 -58 82 -89 7 -14 22 -43 33 -63 10 -21 22 -38 26 -38 11 0 33
-132 36 -215 1 -38 6 -80 10 -92 7 -19 -1 -29 -63 -74 -40 -29 -71 -59 -71
-69 0 -25 32 -50 64 -50 41 0 83 -26 94 -59 13 -36 8 -41 -34 -41 -28 0 -36
-6 -57 -44 -19 -35 -22 -46 -12 -60 18 -24 31 -20 54 19 26 45 54 45 114 0 39
-30 47 -32 58 -19 10 12 9 20 -2 42 -17 33 -51 85 -61 92 -14 10 -28 105 -31
199 l-3 94 45 59 c25 32 53 72 62 88 9 16 21 35 26 42 6 7 13 29 17 49 4 21
14 52 23 69 19 40 29 185 18 293 -6 74 -8 78 -54 124 -26 27 -62 58 -81 71
-163 107 -206 132 -235 132 -8 0 -29 -15 -47 -33z m86 -56 c11 -17 -98 -162
-186 -249 -25 -25 -39 -11 -15 16 8 9 29 43 46 75 17 32 40 68 51 80 11 11 20
27 20 34 0 7 15 22 33 33 36 22 43 24 51 11z m76 -45 c0 -15 -42 -70 -86 -114
-16 -16 -48 -52 -72 -80 -24 -29 -50 -52 -58 -52 -29 0 -17 20 75 120 22 25
41 50 41 57 0 7 8 17 18 22 10 5 24 21 32 35 14 27 50 36 50 12z m83 -29 c5
-12 -25 -57 -81 -123 -9 -11 -28 -34 -42 -50 -34 -41 -102 -86 -113 -75 -8 8
89 141 104 141 3 0 27 27 53 60 47 59 69 73 79 47z m42 -104 c-13 -29 -30 -55
-38 -60 -7 -4 -34 -35 -61 -68 -26 -33 -57 -68 -70 -77 -20 -15 -23 -15 -45 1
l-24 18 38 29 c57 43 94 82 137 146 65 94 107 101 63 11z m79 -15 c16 -63 -9
-106 -131 -222 l-83 -78 -18 22 c-19 23 -19 24 22 64 48 48 154 175 175 211
19 31 27 31 35 3z m16 -172 c0 -67 -12 -87 -94 -157 -45 -38 -87 -69 -93 -69
-15 0 -17 38 -4 59 15 23 175 190 184 190 4 1 7 -10 7 -23z m-54 -228 c-3 -16
-16 -43 -28 -61 -13 -18 -28 -41 -34 -52 -17 -30 -38 -29 -52 4 -16 37 -6 60
40 92 18 13 39 31 46 41 19 26 35 11 28 -24z"/>
</g>
</svg>
