<?xml version="1.0" standalone="no"?>
<!DOCTYPE svg PUBLIC "-//W3C//DTD SVG 20010904//EN"
 "http://www.w3.org/TR/2001/REC-SVG-20010904/DTD/svg10.dtd">
<svg version="1.0" xmlns="http://www.w3.org/2000/svg"
 width="304.000000pt" height="590.000000pt" viewBox="0 0 304.000000 590.000000"
 preserveAspectRatio="xMidYMid meet">
<metadata>
Created by potrace 1.16, written by Peter Selinger 2001-2019
</metadata>
<g transform="translate(0.000000,590.000000) scale(0.500000,-0.500000)"
fill="#000000" stroke="none">
<path d="M245 1130 c-26 -14 -29 -17 -33 -22 -5 -5 -11 -14 -27 -37 -6 -8 -17
-27 -25 -42 -8 -16 -17 -31 -22 -36 -4 -4 -10 -14 -14 -21 -4 -7 -12 -19 -19
-26 -7 -8 -13 -15 -13 -16 0 -1 -6 -9 -14 -17 -12 -13 -13 -15 -18 -31 -2 -9
-6 -23 -8 -29 -8 -26 2 -41 28 -41 11 0 20 -1 27 -4 8 -2 17 -4 25 -4 15 0 44
-12 48 -20 2 -4 18 -13 27 -15 4 -1 9 -4 14 -10 10 -12 21 -22 31 -31 5 -4 10
-10 11 -13 1 -3 4 -10 6 -15 2 -5 8 -14 13 -19 14 -15 16 -20 19 -33 3 -13 9
-23 17 -29 7 -5 10 -11 10 -20 0 -4 2 -12 4 -18 2 -7 4 -16 4 -20 0 -5 1 -12
3 -17 3 -6 7 -48 7 -62 -2 -50 -2 -69 1 -76 15 -36 10 -60 -17 -74 -4 -2 -12
-7 -17 -12 -5 -4 -11 -8 -12 -8 -1 0 -6 -3 -11 -8 -5 -4 -14 -11 -20 -15 -40
-25 -23 -71 26 -71 16 0 33 -5 54 -16 18 -9 19 -11 21 -24 1 -5 4 -13 6 -19 8
-17 5 -19 -28 -19 -25 0 -29 -2 -37 -18 -11 -24 -12 -27 -17 -34 -10 -13 -5
-33 9 -39 13 -6 26 0 31 14 14 39 43 42 86 11 4 -3 12 -9 16 -12 4 -3 10 -8
13 -10 11 -9 28 -2 31 12 2 11 -13 47 -26 62 -4 4 -8 11 -10 16 -2 5 -7 13
-12 18 -12 13 -17 24 -19 44 -1 9 -3 20 -4 23 -1 3 -2 17 -2 31 0 20 -1 27 -4
37 -4 12 -5 29 -2 42 4 16 4 19 1 32 -4 15 -3 27 3 35 2 3 6 8 8 11 1 3 7 10
12 16 5 5 11 12 13 15 12 18 17 25 24 29 5 4 10 11 21 34 10 20 18 32 23 37 6
6 7 9 7 16 0 5 1 14 3 19 2 6 4 18 5 27 1 16 1 17 10 24 6 5 8 9 9 15 2 12 9
43 12 50 3 10 4 171 0 182 -1 4 -3 15 -4 23 -2 22 -8 38 -17 46 -5 3 -8 8 -10
14 -3 10 -10 19 -21 26 -5 3 -11 8 -15 13 -4 4 -11 9 -16 12 -11 5 -31 20 -36
26 -2 2 -8 6 -14 9 -6 3 -14 8 -17 11 -3 2 -11 7 -17 10 -16 8 -33 19 -45 29
-11 10 -28 19 -46 25 -6 2 -13 5 -17 8 -9 7 -20 7 -33 -1z m32 -67 c7 -2 8 -7
2 -15 -3 -4 -5 -8 -5 -9 0 -2 -3 -7 -6 -12 -4 -6 -9 -13 -11 -17 -2 -4 -8 -13
-13 -19 -6 -7 -13 -17 -17 -22 -4 -6 -11 -14 -15 -17 -5 -4 -11 -11 -13 -17
-7 -13 -16 -22 -27 -28 -6 -3 -11 -8 -13 -11 -4 -8 -18 -20 -24 -20 -4 0 -3 1
3 7 5 3 8 9 9 13 1 3 4 11 7 17 3 6 6 12 6 14 0 5 10 26 14 31 3 3 6 8 8 12 2
6 11 18 27 34 4 5 7 9 7 11 0 23 39 54 61 48z m63 -25 c10 -5 -5 -42 -20 -50
-2 -2 -9 -10 -14 -19 -9 -16 -17 -24 -27 -26 -10 -2 -16 -8 -19 -18 -2 -7 -5
-11 -14 -18 -8 -6 -11 -10 -14 -18 -4 -11 -10 -18 -20 -23 -4 -3 -9 -7 -11
-10 -6 -10 -16 -18 -24 -18 -9 0 -10 3 -3 11 3 3 6 9 7 12 1 3 5 8 9 11 5 4 9
10 10 15 2 6 6 10 15 17 17 13 48 52 52 65 3 8 7 13 20 22 3 1 8 9 12 16 12
21 32 36 41 31z m69 -31 c6 -6 -7 -41 -18 -48 -10 -5 -19 -16 -23 -27 -4 -10
-6 -13 -13 -17 -13 -9 -20 -17 -23 -26 -2 -9 -6 -12 -19 -22 -3 -1 -8 -8 -12
-14 -7 -10 -13 -15 -26 -19 -4 -1 -10 -5 -13 -10 -4 -4 -8 -8 -9 -8 -1 0 -7
-2 -13 -5 -21 -9 -24 9 -5 24 20 17 23 19 25 28 2 8 15 23 20 23 1 0 4 5 7 11
5 12 8 15 22 22 10 5 21 18 34 40 3 5 9 11 13 14 5 3 10 9 14 17 12 23 27 29
39 17z m53 -41 c3 -4 3 -7 -5 -18 -4 -6 -8 -16 -10 -22 -4 -14 -18 -39 -23
-41 -5 -2 -23 -20 -27 -27 -2 -3 -5 -7 -7 -8 -2 -1 -6 -5 -9 -9 -2 -3 -7 -11
-11 -17 -4 -7 -12 -14 -16 -17 -6 -4 -11 -9 -14 -16 -7 -14 -10 -17 -22 -26
-6 -4 -13 -10 -15 -12 -5 -7 -8 -6 -18 2 -5 3 -11 8 -15 9 -12 7 2 25 36 45
14 8 17 11 22 21 7 13 13 19 22 21 4 1 8 4 10 7 7 14 26 42 29 43 4 1 17 21
22 32 3 7 6 11 11 14 3 2 11 8 16 12 9 9 19 12 24 7z m43 -55 c3 -7 5 -17 5
-21 0 -4 1 -10 2 -14 2 -10 -2 -23 -12 -36 -4 -5 -9 -13 -11 -17 -1 -3 -6 -10
-11 -15 -4 -6 -9 -13 -10 -17 -2 -6 -4 -8 -11 -11 -10 -4 -27 -18 -38 -30 -3
-3 -11 -11 -17 -17 -6 -6 -18 -18 -27 -27 -33 -33 -38 -35 -47 -18 -3 6 -8 13
-10 16 -6 7 -4 13 5 16 3 2 11 7 16 12 6 6 13 11 16 13 3 2 7 8 9 13 4 9 23
35 27 37 1 0 8 8 14 18 7 10 14 19 18 21 9 5 21 16 25 24 2 4 7 10 11 12 7 5
9 7 21 28 18 34 17 33 25 13z m12 -124 c9 -23 -4 -82 -20 -92 -4 -3 -12 -11
-17 -18 -7 -8 -13 -14 -22 -19 -7 -4 -16 -11 -20 -16 -4 -4 -13 -12 -21 -17
-8 -5 -18 -13 -23 -17 -16 -15 -21 -15 -26 0 -3 10 -2 17 3 27 3 5 5 11 5 13
0 5 7 13 16 18 4 2 9 7 11 10 6 10 15 20 23 24 4 3 12 10 16 17 5 7 13 14 19
18 8 5 13 11 20 21 16 24 33 39 36 31z m-38 -180 c-1 -22 -7 -41 -18 -53 -4
-4 -8 -11 -10 -15 -2 -5 -6 -11 -10 -15 -3 -4 -7 -11 -10 -16 -8 -20 -29 -28
-32 -13 0 5 -3 10 -7 14 -12 13 -10 34 3 43 4 2 10 9 14 14 5 7 9 10 15 12 10
3 21 12 28 23 13 19 27 22 27 6z"/>
</g>
</svg>
