<?xml version="1.0" standalone="no"?>
<!DOCTYPE svg PUBLIC "-//W3C//DTD SVG 20010904//EN"
 "http://www.w3.org/TR/2001/REC-SVG-20010904/DTD/svg10.dtd">
<svg version="1.0" xmlns="http://www.w3.org/2000/svg"
 width="51.000000pt" height="100.000000pt" viewBox="0 0 51.000000 100.000000"
 preserveAspectRatio="xMidYMid meet">
<metadata>
Created by potrace 1.16, written by Peter Selinger 2001-2019
</metadata>
<g transform="translate(0.000000,100.000000) scale(0.100000,-0.100000)"
fill="#000000" stroke="none">
<path d="M180 945 c-42 -50 -140 -213 -140 -232 0 -16 7 -24 25 -28 14 -3 36
-7 50 -10 41 -9 102 -72 134 -139 23 -48 31 -81 36 -153 l7 -91 -40 -27 c-22
-15 -43 -33 -46 -41 -8 -20 21 -44 53 -44 56 0 69 -47 18 -70 -34 -16 -48 -53
-28 -73 8 -8 17 -4 34 11 29 27 42 27 75 2 22 -18 27 -19 40 -6 13 13 11 21
-19 68 -31 47 -34 61 -37 138 -4 83 -3 86 28 125 64 80 100 184 100 290 0 130
-17 157 -160 249 -74 48 -109 56 -130 31z m50 -62 c0 -19 -76 -123 -90 -123
-24 0 7 68 53 118 24 26 37 28 37 5z m86 -88 c-34 -44 -96 -105 -108 -105 -17
0 -7 26 23 60 82 93 91 102 102 91 7 -7 2 -21 -17 -46z m52 -18 c-19 -37 -110
-137 -124 -137 -25 0 -15 22 34 75 26 28 55 61 65 74 22 28 42 19 25 -12z m55
-29 c7 -21 -11 -49 -71 -110 -55 -57 -82 -71 -82 -45 0 15 128 167 140 167 5
0 10 -6 13 -12z m7 -124 c0 -19 -91 -114 -109 -114 -25 0 -9 37 36 82 49 50
73 60 73 32z"/>
</g>
</svg>
