<?xml version="1.0" standalone="no"?>
<!DOCTYPE svg PUBLIC "-//W3C//DTD SVG 20010904//EN"
 "http://www.w3.org/TR/2001/REC-SVG-20010904/DTD/svg10.dtd">
<svg version="1.0" xmlns="http://www.w3.org/2000/svg"
 width="274.000000pt" height="590.000000pt" viewBox="0 0 274.000000 590.000000"
 preserveAspectRatio="xMidYMid meet">
<metadata>
Created by potrace 1.16, written by Peter Selinger 2001-2019
</metadata>
<g transform="translate(0.000000,590.000000) scale(0.500000,-0.500000)"
fill="#000000" stroke="none">
<path d="M294 1133 c-4 -2 -12 -3 -32 -3 -39 0 -55 -17 -75 -78 -7 -21 -11
-32 -16 -41 -2 -6 -5 -13 -6 -17 -1 -4 -5 -14 -9 -23 -5 -8 -9 -21 -11 -28 -1
-6 -5 -18 -8 -26 -9 -28 -19 -61 -19 -65 0 -3 -3 -10 -8 -16 -4 -6 -9 -15 -11
-21 -5 -16 -9 -36 -9 -43 0 -9 -6 -29 -13 -41 -5 -11 -17 -41 -23 -59 -2 -6
-4 -18 -5 -27 -1 -9 -3 -18 -4 -21 -6 -11 -4 -28 4 -40 4 -6 7 -12 7 -13 0 -1
3 -5 7 -9 11 -13 18 -25 21 -33 1 -4 4 -10 6 -13 2 -3 4 -8 5 -11 1 -3 6 -9
11 -13 7 -6 11 -12 17 -25 6 -12 11 -18 18 -24 6 -5 10 -10 12 -17 5 -15 14
-30 22 -39 6 -5 10 -12 12 -19 4 -11 13 -26 21 -33 2 -2 7 -8 9 -14 3 -5 7
-13 9 -17 7 -12 6 -15 -12 -32 -8 -8 -20 -22 -25 -30 l-10 -14 -1 -38 c-1 -50
5 -60 33 -60 21 0 26 9 21 33 -4 19 0 38 9 43 5 3 13 10 22 20 6 8 24 6 31 -4
3 -4 8 -9 11 -11 9 -6 19 -15 23 -23 3 -5 9 -11 15 -15 6 -4 14 -11 17 -15 3
-5 8 -9 13 -11 26 -11 29 -33 4 -33 -4 0 -10 -1 -15 -3 -5 -2 -16 -3 -28 -3
-29 0 -35 -4 -37 -24 -4 -32 34 -49 68 -31 6 2 12 3 36 3 26 0 30 1 49 6 11 3
24 6 29 6 25 0 25 52 0 71 -5 3 -8 8 -9 13 -1 5 -7 13 -13 21 -6 6 -13 16 -15
21 -2 5 -8 13 -13 18 -5 6 -9 12 -10 17 0 4 -3 11 -6 15 -6 8 -18 41 -21 56
-1 5 -5 13 -8 18 -3 5 -7 15 -9 22 -8 31 -12 45 -14 50 -1 3 -3 9 -4 14 -1 5
-3 11 -4 14 -1 3 -3 8 -4 13 -1 4 -3 11 -6 15 -3 4 -6 12 -7 18 -4 21 -9 43
-16 60 -3 9 -6 18 -6 20 0 2 -2 6 -5 10 -5 6 -8 13 -14 41 -2 7 -6 17 -9 24
-3 6 -6 13 -6 14 0 10 20 60 27 67 5 5 20 36 25 51 1 4 5 11 9 16 4 5 8 13 9
18 4 19 19 50 33 72 5 8 9 15 9 17 0 1 2 6 4 12 2 5 5 14 7 21 2 6 7 16 11 21
5 5 9 13 11 18 7 19 19 45 24 50 6 6 13 21 13 27 0 8 12 38 19 47 8 10 10 17
9 37 -1 20 -4 23 -26 23 -9 0 -18 1 -23 3 -10 4 -139 4 -147 0z m96 -62 c7 -3
7 -13 1 -31 -14 -43 -12 -42 -80 -42 -66 -1 -65 -2 -52 38 10 29 11 30 39 30
16 0 23 1 30 4 11 5 54 6 62 1z m-99 -108 c60 -2 62 -3 48 -23 -7 -10 -11 -21
-11 -28 0 -5 -6 -9 -14 -11 -4 -1 -10 -3 -14 -5 -9 -3 -92 -7 -94 -3 -3 4 -2
9 3 14 5 7 14 28 16 39 2 12 8 21 14 19 2 -1 26 -2 52 -2z m5 -107 c4 -4 2
-13 -4 -22 -6 -10 -14 -28 -14 -34 0 -8 -6 -10 -31 -11 -13 -1 -27 -3 -32 -4
-8 -3 -34 -4 -42 -1 -10 4 -9 21 2 34 4 4 9 13 12 19 7 15 8 15 39 15 17 0 30
1 35 3 10 3 31 4 35 1z m-65 -108 c8 -1 8 -8 0 -27 -2 -6 -6 -18 -8 -25 -8
-33 -9 -35 -14 -39 -3 -2 -7 -7 -9 -12 -6 -13 -8 -13 -45 -13 -45 0 -47 2 -35
30 3 7 6 15 6 17 0 2 1 8 3 14 2 5 3 12 4 15 1 3 3 8 6 12 3 3 6 10 8 16 2 7
4 10 8 11 2 0 6 1 8 2 6 1 61 1 68 -1z m-14 -152 c7 -3 13 -15 15 -32 1 -7 2
-17 3 -22 6 -37 -62 -40 -75 -3 -5 15 -11 25 -20 36 -9 11 -10 18 -3 21 6 2
73 2 80 0z m42 -112 c5 -3 7 -6 7 -11 0 -2 3 -8 6 -12 17 -25 18 -43 1 -59
-14 -14 -30 -7 -40 17 -6 15 -11 24 -19 35 -12 15 -11 17 14 26 17 6 24 7 31
4z m45 -133 c6 -6 11 -18 15 -38 3 -12 -11 -10 -20 3 -12 17 -15 35 -6 40 3 3
4 3 11 -5z"/>
</g>
</svg>
