<?xml version="1.0" standalone="no"?>
<!DOCTYPE svg PUBLIC "-//W3C//DTD SVG 20010904//EN"
 "http://www.w3.org/TR/2001/REC-SVG-20010904/DTD/svg10.dtd">
<svg version="1.0" xmlns="http://www.w3.org/2000/svg"
 width="46.000000pt" height="100.000000pt" viewBox="0 0 46.000000 100.000000"
 preserveAspectRatio="xMidYMid meet">
<metadata>
Created by potrace 1.16, written by Peter Selinger 2001-2019
</metadata>
<g transform="translate(0.000000,100.000000) scale(0.100000,-0.100000)"
fill="#000000" stroke="none">
<path d="M193 952 c-31 -19 -168 -409 -157 -445 3 -12 40 -74 81 -138 l74
-117 -25 -37 c-29 -42 -34 -86 -11 -105 21 -18 43 3 47 43 4 46 33 46 88 -2
25 -21 42 -42 38 -47 -4 -4 -25 -10 -45 -13 -29 -5 -38 -11 -38 -26 0 -18 7
-20 60 -19 125 2 139 19 79 98 -26 34 -51 92 -90 209 -30 89 -54 171 -54 184
0 12 38 102 85 199 47 97 85 185 85 194 0 10 -7 21 -16 24 -23 9 -187 7 -201
-2z m135 -63 c5 -29 -27 -50 -72 -47 -33 2 -41 7 -41 23 0 39 106 62 113 24z
m-48 -91 c0 -23 -16 -38 -45 -43 -39 -7 -59 6 -50 34 5 17 14 21 51 21 29 0
44 -4 44 -12z m-40 -98 c0 -32 -56 -52 -89 -31 -10 7 -11 13 -2 30 16 30 91
31 91 1z m-54 -109 c-6 -38 -28 -61 -58 -61 -40 0 -31 75 12 97 37 18 53 6 46
-36z m-2 -97 c9 -8 16 -21 16 -28 0 -16 -21 -36 -37 -36 -18 0 -46 47 -39 65
7 20 40 19 60 -1z"/>
</g>
</svg>
