<?xml version="1.0" standalone="no"?>
<!DOCTYPE svg PUBLIC "-//W3C//DTD SVG 20010904//EN"
 "http://www.w3.org/TR/2001/REC-SVG-20010904/DTD/svg10.dtd">
<svg version="1.0" xmlns="http://www.w3.org/2000/svg"
 width="68.000000pt" height="148.000000pt" viewBox="0 0 68.000000 148.000000"
 preserveAspectRatio="xMidYMid meet">
<metadata>
Created by potrace 1.16, written by Peter Selinger 2001-2019
</metadata>
<g transform="translate(0.000000,148.000000) scale(0.100000,-0.100000)"
fill="#000000" stroke="none">
<path d="M319 1413 c-57 -5 -54 1 -151 -268 -22 -60 -44 -128 -50 -150 -6 -22
-21 -67 -33 -100 -12 -33 -25 -81 -29 -106 -6 -40 -3 -52 28 -104 20 -31 42
-65 51 -75 8 -9 15 -21 15 -27 0 -5 9 -18 20 -28 11 -10 20 -23 20 -29 0 -6
17 -36 39 -67 65 -94 65 -91 27 -132 -25 -27 -35 -49 -39 -84 -7 -61 6 -85 41
-81 25 3 27 6 24 41 -3 29 2 43 20 62 13 14 28 25 35 25 7 0 34 -21 60 -46 26
-26 57 -53 70 -61 46 -30 20 -53 -59 -53 -41 0 -57 -24 -38 -60 12 -23 19 -24
69 -10 20 5 66 12 103 15 44 4 68 11 72 21 5 13 -11 62 -24 74 -19 17 -90 136
-100 167 -6 21 -15 47 -20 58 -5 11 -16 47 -25 80 -9 33 -19 69 -24 80 -4 11
-25 70 -45 132 l-37 112 51 108 c28 59 59 126 69 148 11 22 42 90 71 150 29
61 56 119 62 131 5 11 8 34 6 50 l-3 29 -115 1 c-63 1 -136 -1 -161 -3z m160
-72 c12 -8 13 -16 3 -50 -14 -45 -22 -48 -107 -47 l-60 1 1 38 c1 21 4 41 8
45 4 3 31 9 59 13 78 9 81 9 96 0z m-51 -146 c8 -7 -30 -65 -47 -75 -24 -12
-128 -13 -135 -1 -3 5 1 14 9 21 8 7 15 22 15 35 0 12 3 25 7 28 5 6 143 -2
151 -8z m-63 -125 c3 -5 -3 -27 -14 -48 -19 -37 -23 -39 -78 -45 -74 -8 -85 2
-57 51 19 33 27 38 70 43 27 3 54 7 61 7 6 1 15 -2 18 -8z m-70 -147 c-4 -10
-13 -39 -21 -64 -17 -57 -28 -66 -79 -70 -52 -4 -67 5 -56 34 5 12 17 43 26
70 l17 47 60 0 c53 0 59 -2 53 -17z m-15 -199 c18 -46 12 -74 -17 -85 -35 -13
-50 -4 -80 47 -33 59 -31 64 32 64 50 0 56 -2 65 -26z m60 -155 c20 -38 20
-42 5 -65 -20 -32 -33 -27 -67 22 -33 48 -35 62 -5 74 38 15 46 11 67 -31z
m53 -164 c17 -49 9 -57 -23 -23 -19 21 -27 58 -14 71 12 11 22 -2 37 -48z"/>
</g>
</svg>
