<?xml version="1.0" standalone="no"?>
<!DOCTYPE svg PUBLIC "-//W3C//DTD SVG 20010904//EN"
 "http://www.w3.org/TR/2001/REC-SVG-20010904/DTD/svg10.dtd">
<svg version="1.0" xmlns="http://www.w3.org/2000/svg"
 width="508.000000pt" height="590.000000pt" viewBox="0 0 508.000000 590.000000"
 preserveAspectRatio="xMidYMid meet">
<metadata>
Created by potrace 1.16, written by Peter Selinger 2001-2019
</metadata>
<g transform="translate(0.000000,590.000000) scale(0.500000,-0.500000)"
fill="#000000" stroke="none">
<path d="M312 1137 c-6 -5 -11 -16 -17 -40 -6 -25 -9 -38 -16 -63 -3 -9 -11
-43 -19 -75 -8 -32 -15 -62 -17 -67 -3 -10 -15 -54 -22 -84 -2 -11 -6 -25 -9
-32 -2 -7 -5 -19 -7 -27 -2 -8 -4 -19 -6 -25 -2 -6 -5 -20 -8 -32 -3 -11 -6
-23 -7 -26 -1 -3 -6 -19 -10 -37 -5 -18 -10 -36 -11 -40 -2 -5 -8 -30 -15 -56
-7 -26 -13 -50 -14 -53 -1 -3 -8 -27 -15 -55 -7 -27 -14 -52 -15 -55 -1 -3 -7
-26 -13 -51 -6 -25 -12 -48 -13 -51 -1 -3 -8 -26 -14 -51 -7 -26 -13 -50 -15
-55 -12 -35 -15 -79 -6 -89 14 -17 46 -6 53 18 2 8 6 20 8 27 4 14 9 36 17 69
3 12 7 27 9 34 2 7 10 35 17 63 7 28 15 59 18 69 2 10 7 30 11 45 4 15 9 34
11 43 4 14 12 44 36 140 4 15 10 37 13 48 3 11 8 28 10 37 5 23 18 70 19 72 0
1 6 23 13 48 6 26 13 51 15 56 1 5 4 13 5 17 3 15 20 78 27 102 3 13 11 39 16
58 5 19 11 42 14 51 8 26 9 58 2 65 -6 6 -36 8 -45 2z"/>
<path d="M677 1136 c-5 -4 -5 -5 -5 -24 0 -18 1 -27 6 -50 5 -20 8 -34 12 -54
2 -12 5 -27 7 -34 2 -7 3 -15 3 -17 0 -2 1 -8 3 -14 1 -5 4 -16 5 -24 2 -15 5
-29 13 -64 2 -12 6 -27 7 -34 1 -7 4 -18 5 -25 1 -7 4 -24 7 -37 2 -13 5 -29
7 -35 1 -6 5 -24 8 -41 3 -16 7 -35 8 -41 2 -6 4 -20 6 -30 2 -10 6 -27 8 -38
3 -10 7 -28 9 -41 2 -12 5 -26 6 -30 4 -17 8 -39 11 -56 2 -10 4 -21 5 -25 2
-10 7 -34 11 -55 2 -10 5 -26 8 -36 3 -10 6 -27 8 -37 2 -10 5 -24 6 -31 3
-14 8 -35 11 -56 1 -8 4 -19 5 -26 2 -7 5 -22 7 -35 12 -73 13 -74 44 -74 26
0 33 26 21 76 -2 8 -4 20 -5 27 -1 7 -3 16 -5 21 -1 5 -4 16 -5 24 -1 8 -4 20
-5 26 -2 6 -3 13 -3 16 0 2 -1 8 -3 13 -1 6 -5 20 -7 32 -2 12 -5 27 -6 33 -1
6 -4 16 -5 21 -2 6 -4 16 -5 23 -1 7 -4 18 -5 24 -3 13 -5 22 -12 59 -8 42
-19 99 -22 111 -9 37 -12 51 -14 63 -2 8 -4 19 -5 24 -1 6 -3 15 -4 21 -3 15
-8 40 -10 49 -1 4 -4 18 -6 30 -5 25 -9 45 -13 61 -1 6 -4 18 -5 26 -1 8 -5
24 -7 34 -3 10 -7 28 -9 40 -2 11 -5 27 -7 35 -2 7 -4 20 -6 27 -2 7 -4 20 -5
28 -1 8 -3 20 -5 26 -3 13 -6 28 -10 53 -7 41 -10 45 -36 45 -14 0 -17 -1 -22
-4z"/>
<path d="M530 1118 c-16 -5 -16 -5 -33 -49 -3 -8 -8 -20 -11 -27 -3 -7 -11
-25 -17 -40 -6 -15 -14 -33 -17 -40 -3 -7 -9 -22 -13 -32 -4 -10 -10 -26 -14
-34 -4 -8 -9 -20 -12 -27 -2 -7 -9 -22 -14 -34 -5 -12 -12 -28 -15 -36 -3 -8
-7 -17 -9 -20 -2 -3 -8 -19 -15 -35 -6 -16 -16 -39 -21 -51 -5 -12 -13 -31
-18 -42 -8 -18 -16 -36 -29 -67 -13 -28 -13 -42 1 -69 4 -10 12 -26 16 -36 4
-10 17 -38 29 -62 12 -24 24 -50 27 -58 3 -8 18 -38 32 -67 15 -29 27 -55 28
-58 1 -3 5 -11 8 -19 7 -13 7 -15 6 -31 -2 -35 -3 -37 -11 -48 -4 -5 -8 -13
-9 -16 0 -4 -4 -11 -9 -16 -18 -23 -17 -46 3 -46 7 0 37 29 48 45 15 23 14 24
33 -18 13 -28 16 -32 22 -36 13 -7 33 -1 37 11 1 2 5 5 9 7 18 7 16 17 -4 37
-9 8 -16 17 -16 18 0 3 -5 19 -19 65 -5 15 -11 37 -15 49 -3 12 -8 30 -12 41
-3 11 -8 29 -11 39 -3 10 -8 28 -11 38 -3 10 -8 29 -12 41 -4 12 -10 35 -15
50 -31 98 -31 81 2 148 16 31 29 58 30 61 1 3 29 59 62 125 l60 120 1 45 c0
31 0 50 -2 59 -1 8 -3 24 -4 36 -2 38 -9 57 -24 69 -7 6 -13 9 -28 13 -2 0 -8
-1 -14 -3z m17 -124 c13 -1 15 -3 15 -17 0 -19 -13 -23 -43 -15 -20 5 -20 6
-16 17 6 16 10 20 22 18 5 -1 15 -2 22 -3z m-18 -72 c55 -4 30 -54 -27 -54
-46 1 -48 4 -28 44 8 16 4 15 55 10z m-18 -92 c8 -3 -2 -34 -15 -45 -6 -6 -69
-6 -73 -1 -17 28 47 62 88 46z m-40 -92 c2 -4 -15 -41 -22 -48 -10 -10 -67 -8
-67 2 0 7 13 40 20 47 4 5 65 4 69 -1z m-49 -92 c7 -4 -7 -42 -23 -64 -8 -10
-21 16 -26 51 -2 14 31 23 49 13z m-73 -52 c2 -3 6 -15 10 -27 15 -49 26 -82
27 -90 2 -4 6 -21 11 -36 5 -16 11 -36 13 -45 2 -9 6 -23 8 -30 8 -27 3 -25
-11 4 -4 8 -20 41 -36 73 -56 114 -54 106 -39 138 9 18 12 20 17 13z"/>
</g>
</svg>
