<?xml version="1.0" standalone="no"?>
<!DOCTYPE svg PUBLIC "-//W3C//DTD SVG 20010904//EN"
 "http://www.w3.org/TR/2001/REC-SVG-20010904/DTD/svg10.dtd">
<svg version="1.0" xmlns="http://www.w3.org/2000/svg"
 width="86.000000pt" height="100.000000pt" viewBox="0 0 86.000000 100.000000"
 preserveAspectRatio="xMidYMid meet">
<metadata>
Created by potrace 1.16, written by Peter Selinger 2001-2019
</metadata>
<g transform="translate(0.000000,100.000000) scale(0.100000,-0.100000)"
fill="#000000" stroke="none">
<path d="M263 962 c-6 -4 -20 -45 -31 -92 -11 -47 -61 -238 -111 -425 -50
-187 -91 -350 -91 -363 0 -27 24 -39 44 -23 8 7 17 28 21 49 7 40 73 294 162
624 30 114 53 214 50 223 -7 16 -25 19 -44 7z"/>
<path d="M564 956 c-3 -7 31 -191 75 -407 44 -217 83 -413 87 -436 7 -47 25
-68 49 -59 21 8 19 30 -21 221 -19 94 -58 280 -85 415 -27 135 -52 253 -55
263 -6 20 -42 23 -50 3z"/>
<path d="M432 938 c-16 -20 -192 -459 -192 -480 0 -10 29 -80 65 -155 36 -75
65 -142 65 -150 0 -8 -10 -32 -22 -53 -18 -31 -20 -42 -11 -51 10 -10 18 -8
38 11 l26 24 23 -29 c20 -25 26 -28 40 -16 20 17 20 29 -2 72 -10 20 -38 103
-61 186 l-43 150 77 154 78 154 -6 83 c-2 45 -10 89 -17 97 -15 18 -44 19 -58
3z"/>
</g>
</svg>
