<?xml version="1.0" standalone="no"?>
<!DOCTYPE svg PUBLIC "-//W3C//DTD SVG 20010904//EN"
 "http://www.w3.org/TR/2001/REC-SVG-20010904/DTD/svg10.dtd">
<svg version="1.0" xmlns="http://www.w3.org/2000/svg"
 width="278.000000pt" height="590.000000pt" viewBox="0 0 278.000000 590.000000"
 preserveAspectRatio="xMidYMid meet">
<metadata>
Created by potrace 1.16, written by Peter Selinger 2001-2019
</metadata>
<g transform="translate(0.000000,590.000000) scale(0.500000,-0.500000)"
fill="#000000" stroke="none">
<path d="M233 1131 c-49 -30 -60 -39 -94 -72 -17 -17 -20 -23 -14 -32 4 -7 44
-54 55 -65 4 -4 11 -11 15 -17 4 -5 14 -17 22 -26 12 -14 24 -30 37 -51 4 -5
4 -29 4 -131 0 -11 0 -32 0 -48 l1 -27 -20 -20 c-13 -12 -24 -25 -31 -36 -43
-66 -49 -78 -50 -99 0 -9 -1 -28 -1 -44 -1 -22 -1 -30 2 -42 6 -26 4 -34 -15
-77 -24 -50 -36 -79 -36 -82 0 -4 -25 -62 -60 -137 -19 -42 -13 -77 13 -77 19
0 22 3 34 32 5 13 11 28 14 34 3 6 17 39 32 74 52 122 63 147 69 146 5 -1 5
-111 1 -205 -4 -85 -5 -81 27 -81 32 0 30 -5 30 107 1 161 1 167 18 167 17 0
19 -13 21 -193 1 -86 -1 -81 32 -81 33 0 33 -3 21 145 -6 65 -8 145 -4 153 8
18 15 5 34 -58 6 -19 11 -37 12 -40 1 -3 3 -9 4 -12 1 -4 4 -16 8 -28 3 -12 8
-27 10 -34 2 -7 8 -27 13 -45 5 -18 10 -34 10 -36 2 -6 9 -29 11 -35 6 -14 40
-14 46 0 5 12 2 53 -6 75 -4 11 -10 29 -14 41 -4 12 -8 26 -10 32 -2 6 -8 25
-13 41 -5 17 -13 41 -17 54 -4 13 -10 32 -13 42 -3 10 -7 23 -9 30 -3 8 -4 20
-5 35 -1 13 -2 29 -3 36 -2 9 -2 18 -1 25 5 28 -11 69 -45 121 -4 6 -10 15
-13 20 -2 5 -10 13 -16 19 l-10 9 -2 34 c0 19 -2 68 -3 109 -3 98 -10 85 72
145 31 23 33 40 6 62 -15 12 -20 11 -48 -10 -8 -6 -17 -13 -20 -14 -3 -1 -12
-10 -21 -18 -20 -19 -24 -20 -35 -8 -15 15 -14 17 31 59 50 47 53 55 31 74
-20 16 -26 14 -69 -30 -42 -43 -41 -42 -56 -27 -15 17 -15 17 41 59 36 27 37
29 22 49 -14 18 -27 21 -45 9z m61 -518 c10 -10 36 -45 44 -61 4 -8 10 -20 14
-27 24 -47 16 -100 -21 -128 -59 -45 -102 -33 -124 34 -12 39 12 116 50 159 6
7 14 16 18 21 8 8 11 9 19 2z"/>
</g>
</svg>
