<?xml version="1.0" standalone="no"?>
<!DOCTYPE svg PUBLIC "-//W3C//DTD SVG 20010904//EN"
 "http://www.w3.org/TR/2001/REC-SVG-20010904/DTD/svg10.dtd">
<svg version="1.0" xmlns="http://www.w3.org/2000/svg"
 width="47.000000pt" height="100.000000pt" viewBox="0 0 47.000000 100.000000"
 preserveAspectRatio="xMidYMid meet">
<metadata>
Created by potrace 1.16, written by Peter Selinger 2001-2019
</metadata>
<g transform="translate(0.000000,100.000000) scale(0.100000,-0.100000)"
fill="#000000" stroke="none">
<path d="M146 925 c-25 -20 -46 -40 -46 -46 0 -6 27 -41 60 -80 l60 -70 0 -78
c0 -72 -2 -81 -31 -117 -48 -60 -59 -88 -59 -150 0 -47 -9 -80 -50 -175 -49
-116 -60 -162 -40 -174 19 -12 36 13 75 112 59 152 69 153 62 10 -6 -103 -4
-119 10 -124 32 -12 44 25 41 129 -2 53 0 99 4 103 20 20 28 -14 28 -116 0
-90 3 -111 16 -116 32 -12 37 11 26 124 -11 108 -5 156 16 117 5 -10 22 -66
36 -124 28 -111 36 -126 60 -117 25 10 19 53 -20 168 -19 57 -39 138 -43 180
-7 62 -14 85 -39 120 -28 39 -32 55 -38 133 l-7 90 49 42 c46 41 48 44 32 60
-16 16 -19 16 -56 -9 -69 -48 -85 -27 -26 34 20 21 33 42 30 48 -13 20 -45 11
-66 -19 -21 -30 -50 -40 -50 -18 0 7 14 26 31 44 58 60 8 74 -65 19z m132
-465 c30 -59 28 -95 -4 -125 -31 -29 -51 -31 -76 -8 -24 22 -23 79 2 138 25
58 46 57 78 -5z"/>
</g>
</svg>
