<?xml version="1.0" standalone="no"?>
<!DOCTYPE svg PUBLIC "-//W3C//DTD SVG 20010904//EN"
 "http://www.w3.org/TR/2001/REC-SVG-20010904/DTD/svg10.dtd">
<svg version="1.0" xmlns="http://www.w3.org/2000/svg"
 width="70.000000pt" height="148.000000pt" viewBox="0 0 70.000000 148.000000"
 preserveAspectRatio="xMidYMid meet">
<metadata>
Created by potrace 1.16, written by Peter Selinger 2001-2019
</metadata>
<g transform="translate(0.000000,148.000000) scale(0.100000,-0.100000)"
fill="#000000" stroke="none">
<path d="M265 1397 c-61 -44 -115 -91 -115 -99 0 -5 33 -47 74 -92 104 -118
106 -120 103 -265 -2 -117 -3 -122 -28 -144 -28 -23 -77 -94 -96 -138 -6 -14
-11 -66 -10 -115 1 -96 1 -95 -109 -333 -37 -80 -45 -147 -18 -158 25 -9 39
13 109 187 64 158 94 214 96 180 2 -36 -2 -154 -7 -251 -6 -101 -5 -107 13
-113 49 -16 52 -6 55 172 3 165 3 167 26 170 22 3 22 2 24 -125 1 -70 1 -147
0 -170 -3 -39 -1 -42 29 -48 17 -4 35 -3 41 3 6 6 4 72 -5 188 -8 99 -13 182
-10 186 10 18 33 6 39 -19 3 -16 28 -102 54 -193 35 -121 52 -166 64 -168 22
-5 46 16 46 38 0 10 -27 100 -60 201 -46 142 -60 198 -61 249 0 36 -6 81 -12
100 -11 35 -79 144 -96 154 -4 3 -9 70 -10 149 l-2 144 31 26 c17 15 44 34 60
44 31 18 39 50 18 71 -21 21 -42 13 -94 -32 -39 -34 -54 -42 -67 -35 -29 16
-19 38 38 91 30 27 55 56 55 64 0 8 -11 20 -25 26 -24 11 -29 8 -74 -43 -42
-46 -52 -52 -68 -43 -30 18 -21 39 34 83 48 37 52 43 41 61 -16 26 -45 25 -83
-3z m145 -689 c46 -74 61 -145 36 -183 -9 -13 -36 -36 -60 -50 -43 -25 -46
-26 -76 -10 -33 17 -60 66 -60 109 0 56 76 196 106 196 8 0 32 -28 54 -62z"/>
</g>
</svg>
