<?xml version="1.0" standalone="no"?>
<!DOCTYPE svg PUBLIC "-//W3C//DTD SVG 20010904//EN"
 "http://www.w3.org/TR/2001/REC-SVG-20010904/DTD/svg10.dtd">
<svg version="1.0" xmlns="http://www.w3.org/2000/svg"
 width="58.000000pt" height="100.000000pt" viewBox="0 0 58.000000 100.000000"
 preserveAspectRatio="xMidYMid meet">
<metadata>
Created by potrace 1.16, written by Peter Selinger 2001-2019
</metadata>
<g transform="translate(0.000000,100.000000) scale(0.100000,-0.100000)"
fill="#000000" stroke="none">
<path d="M343 963 c-22 -8 -15 -27 22 -63 19 -19 35 -40 35 -46 0 -29 -24 -24
-60 11 -25 24 -44 35 -54 32 -25 -10 -19 -31 19 -66 34 -30 46 -61 25 -61 -6
0 -29 9 -52 21 -36 18 -42 19 -55 6 -20 -19 -10 -34 33 -52 19 -8 34 -21 34
-29 0 -8 -23 -43 -50 -78 -86 -109 -100 -133 -112 -196 -10 -51 -9 -67 5 -104
10 -24 17 -50 17 -58 0 -8 -28 -55 -61 -105 -61 -92 -71 -128 -34 -133 16 -2
33 19 81 100 87 146 122 145 68 -1 -28 -75 -27 -101 5 -101 15 0 23 10 30 38
6 20 11 42 11 47 0 24 22 85 30 85 4 0 20 -36 35 -79 30 -90 48 -113 71 -89
14 13 11 25 -25 105 -46 102 -48 113 -23 113 11 0 34 -27 62 -72 77 -125 121
-163 135 -118 4 14 -15 48 -75 127 -77 102 -81 110 -73 143 15 69 7 117 -35
205 -33 67 -39 90 -32 109 4 13 40 63 79 111 79 98 78 95 12 165 -38 40 -44
43 -68 33z m-30 -454 c37 -85 34 -160 -7 -196 -38 -32 -69 -29 -101 9 -25 29
-27 38 -22 91 4 45 14 71 42 113 20 31 41 54 48 51 7 -2 24 -33 40 -68z"/>
</g>
</svg>
