<?xml version="1.0" standalone="no"?>
<!DOCTYPE svg PUBLIC "-//W3C//DTD SVG 20010904//EN"
 "http://www.w3.org/TR/2001/REC-SVG-20010904/DTD/svg10.dtd">
<svg version="1.0" xmlns="http://www.w3.org/2000/svg"
 width="344.000000pt" height="590.000000pt" viewBox="0 0 344.000000 590.000000"
 preserveAspectRatio="xMidYMid meet">
<metadata>
Created by potrace 1.16, written by Peter Selinger 2001-2019
</metadata>
<g transform="translate(0.000000,590.000000) scale(0.500000,-0.500000)"
fill="#000000" stroke="none">
<path d="M416 1134 c-22 -11 -22 -27 2 -51 71 -74 71 -74 50 -94 -16 -14 -21
-12 -44 17 -12 15 -37 38 -53 49 -33 21 -59 -17 -30 -44 84 -80 78 -71 59 -91
-10 -10 -13 -12 -16 -11 -8 1 -37 14 -43 19 -39 27 -68 30 -80 8 -9 -18 8 -44
29 -44 2 0 7 -2 12 -5 5 -2 14 -6 21 -9 25 -10 31 -27 16 -50 -4 -6 -7 -13 -7
-15 0 -6 -6 -18 -14 -27 -4 -5 -10 -14 -13 -20 -4 -8 -15 -20 -36 -40 -16 -16
-33 -34 -37 -40 -11 -16 -27 -36 -34 -43 -3 -3 -8 -11 -10 -17 -2 -6 -6 -17
-10 -25 -22 -52 -27 -75 -27 -128 0 -53 8 -83 31 -119 13 -20 12 -30 -6 -50
-4 -5 -9 -12 -11 -17 -1 -4 -7 -11 -12 -15 -6 -6 -10 -12 -12 -19 -2 -6 -8
-17 -13 -24 -6 -7 -19 -26 -30 -42 -37 -55 -46 -68 -51 -76 -8 -11 -9 -46 -2
-53 21 -21 61 10 84 66 1 4 4 9 7 12 2 3 5 8 7 12 2 4 8 11 13 16 7 7 10 12
13 20 2 6 6 16 11 23 21 34 25 40 31 47 3 4 8 11 10 16 11 20 23 31 36 30 26
-3 27 -21 7 -77 -53 -150 -56 -171 -21 -171 18 0 27 11 35 46 2 9 8 28 12 42
4 14 11 38 16 54 23 81 33 91 43 44 1 -4 4 -11 7 -17 2 -5 6 -14 8 -20 4 -11
10 -28 21 -55 4 -10 10 -25 12 -33 21 -58 25 -64 46 -64 39 0 36 14 -31 167
-37 84 -37 82 -20 94 14 10 22 8 31 -8 3 -5 9 -13 14 -18 4 -5 11 -15 15 -23
4 -8 11 -18 17 -24 12 -12 18 -20 26 -34 3 -5 9 -14 13 -19 4 -5 14 -20 23
-33 9 -13 18 -27 20 -31 3 -4 11 -15 18 -25 14 -21 23 -26 40 -24 30 3 38 27
17 50 -4 4 -13 16 -19 25 -7 9 -21 29 -32 44 -10 15 -23 32 -27 39 -48 65 -79
108 -85 117 -14 21 -15 41 -4 65 4 8 7 16 7 18 0 3 1 8 3 13 5 15 4 58 -2 75
-3 7 -5 17 -5 21 0 19 -5 32 -34 84 -13 23 -19 36 -26 59 -3 8 -7 16 -14 24
-6 7 -11 14 -11 16 -8 34 -8 38 5 64 10 19 46 69 54 74 1 1 6 7 11 15 4 7 13
17 19 22 7 5 12 12 14 18 3 6 14 18 38 42 51 51 49 65 -21 135 -8 8 -18 19
-23 24 -17 19 -42 27 -58 19z m-82 -447 c21 -31 37 -63 52 -104 2 -6 7 -15 11
-21 4 -6 8 -14 9 -19 1 -4 3 -11 4 -14 6 -16 2 -74 -5 -91 -4 -8 -7 -18 -7
-21 0 -34 -50 -74 -92 -74 -37 0 -82 33 -87 65 -1 5 -3 11 -4 15 -4 6 -8 30
-8 43 1 19 5 54 8 59 1 4 4 12 6 19 4 20 15 43 29 64 7 10 17 24 21 32 22 34
54 58 63 47z"/>
</g>
</svg>
