<?xml version="1.0" standalone="no"?>
<!DOCTYPE svg PUBLIC "-//W3C//DTD SVG 20010904//EN"
 "http://www.w3.org/TR/2001/REC-SVG-20010904/DTD/svg10.dtd">
<svg version="1.0" xmlns="http://www.w3.org/2000/svg"
 width="86.000000pt" height="148.000000pt" viewBox="0 0 86.000000 148.000000"
 preserveAspectRatio="xMidYMid meet">
<metadata>
Created by potrace 1.16, written by Peter Selinger 2001-2019
</metadata>
<g transform="translate(0.000000,148.000000) scale(0.100000,-0.100000)"
fill="#000000" stroke="none">
<path d="M500 1404 c-11 -13 -5 -24 44 -73 60 -60 67 -84 33 -105 -14 -9 -25
-3 -65 42 -35 38 -54 52 -75 52 -46 0 -35 -36 31 -96 l57 -52 -23 -24 -22 -23
-65 35 c-60 32 -66 34 -81 18 -25 -25 -10 -46 46 -70 39 -16 50 -26 50 -43 0
-36 -45 -111 -95 -160 -103 -100 -145 -192 -145 -317 0 -68 4 -88 26 -129 l27
-49 -29 -40 c-16 -23 -37 -55 -47 -73 -11 -18 -41 -62 -68 -100 -63 -87 -67
-151 -9 -132 17 6 56 62 126 184 70 124 93 146 121 118 15 -15 13 -25 -22
-124 -46 -129 -50 -177 -18 -181 28 -4 33 7 74 156 18 67 37 121 42 119 5 -1
31 -63 58 -137 48 -133 60 -152 89 -147 30 5 21 54 -35 176 -30 67 -55 128
-55 136 0 7 7 18 16 25 23 20 33 7 187 -222 46 -70 55 -78 83 -78 50 0 49 24
-4 93 -125 161 -192 265 -192 295 0 17 5 34 11 38 8 4 10 35 7 90 -4 77 -8 91
-61 196 -31 62 -57 125 -57 139 0 32 31 79 124 187 118 139 110 125 93 158 -9
16 -39 53 -67 82 -53 54 -86 66 -110 36z m-38 -634 c54 -109 61 -169 30 -254
-21 -60 -59 -91 -112 -91 -55 0 -91 30 -112 92 -21 62 -12 140 26 218 30 60
93 137 110 133 6 -2 32 -46 58 -98z"/>
</g>
</svg>
