<?xml version="1.0" standalone="no"?>
<!DOCTYPE svg PUBLIC "-//W3C//DTD SVG 20010904//EN"
 "http://www.w3.org/TR/2001/REC-SVG-20010904/DTD/svg10.dtd">
<svg version="1.0" xmlns="http://www.w3.org/2000/svg"
 width="54.000000pt" height="148.000000pt" viewBox="0 0 54.000000 148.000000"
 preserveAspectRatio="xMidYMid meet">
<metadata>
Created by potrace 1.16, written by Peter Selinger 2001-2019
</metadata>
<g transform="translate(0.000000,148.000000) scale(0.100000,-0.100000)"
fill="#000000" stroke="none">
<path d="M97 1413 c-12 -11 -8 -38 13 -81 11 -22 20 -45 20 -50 0 -5 11 -36
25 -71 l25 -62 -26 -67 c-14 -37 -29 -76 -34 -87 -4 -11 -22 -64 -39 -119 -26
-83 -31 -114 -31 -200 0 -106 3 -114 56 -184 l31 -41 -2 -185 c-3 -169 -2
-186 16 -202 10 -9 25 -14 35 -10 15 6 16 25 11 191 -5 169 -4 186 12 195 20
10 61 3 61 -12 0 -17 153 -270 167 -275 8 -3 22 2 31 10 19 20 14 32 -73 167
-92 143 -89 134 -70 191 21 62 16 120 -23 273 -6 21 -32 81 -58 133 l-48 94
19 52 c20 56 44 108 94 201 31 58 39 100 22 110 -21 14 -43 -11 -81 -92 -44
-94 -58 -98 -67 -20 -4 33 0 53 16 81 28 50 27 69 -1 65 -16 -2 -24 -11 -26
-30 -4 -34 -32 -47 -32 -15 0 33 -26 57 -43 40z m108 -540 c40 -86 58 -160 63
-250 3 -78 2 -84 -23 -109 -20 -20 -32 -24 -53 -20 -80 19 -115 179 -69 316 9
25 21 64 27 88 6 23 15 40 20 37 6 -3 21 -31 35 -62z"/>
</g>
</svg>
