<?xml version="1.0" standalone="no"?>
<!DOCTYPE svg PUBLIC "-//W3C//DTD SVG 20010904//EN"
 "http://www.w3.org/TR/2001/REC-SVG-20010904/DTD/svg10.dtd">
<svg version="1.0" xmlns="http://www.w3.org/2000/svg"
 width="36.000000pt" height="100.000000pt" viewBox="0 0 36.000000 100.000000"
 preserveAspectRatio="xMidYMid meet">
<metadata>
Created by potrace 1.16, written by Peter Selinger 2001-2019
</metadata>
<g transform="translate(0.000000,100.000000) scale(0.100000,-0.100000)"
fill="#000000" stroke="none">
<path d="M120 960 c-8 -5 -25 -7 -37 -3 -31 7 -30 -19 2 -99 14 -34 25 -68 25
-76 0 -8 -18 -68 -40 -133 -32 -96 -40 -133 -40 -192 0 -65 3 -79 28 -113 25
-37 27 -47 32 -174 5 -127 6 -135 25 -135 19 0 20 7 20 120 0 116 6 150 26
143 5 -2 33 -46 62 -98 39 -71 58 -96 75 -98 36 -5 28 31 -29 124 -50 84 -51
85 -44 148 8 73 -19 192 -61 263 -13 23 -24 50 -24 59 0 10 23 64 51 121 51
102 54 123 20 123 -13 0 -25 -16 -39 -50 -32 -77 -62 -61 -35 19 15 45 8 67
-17 51z m29 -413 c29 -95 35 -144 21 -178 -15 -34 -39 -37 -66 -8 -34 38 -20
276 16 254 5 -3 18 -34 29 -68z"/>
</g>
</svg>
