<?xml version="1.0" standalone="no"?>
<!DOCTYPE svg PUBLIC "-//W3C//DTD SVG 20010904//EN"
 "http://www.w3.org/TR/2001/REC-SVG-20010904/DTD/svg10.dtd">
<svg version="1.0" xmlns="http://www.w3.org/2000/svg"
 width="218.000000pt" height="590.000000pt" viewBox="0 0 218.000000 590.000000"
 preserveAspectRatio="xMidYMid meet">
<metadata>
Created by potrace 1.16, written by Peter Selinger 2001-2019
</metadata>
<g transform="translate(0.000000,590.000000) scale(0.500000,-0.500000)"
fill="#000000" stroke="none">
<path d="M155 1137 c-6 -2 -9 -8 -12 -20 -2 -9 -12 -30 -15 -32 -4 -3 -8 4
-12 19 -6 24 -23 35 -34 21 -8 -11 -6 -25 10 -64 6 -13 12 -30 14 -38 2 -7 6
-18 9 -23 8 -16 24 -58 27 -71 3 -13 -5 -40 -23 -79 -4 -9 -9 -23 -11 -30 -3
-7 -7 -18 -10 -23 -3 -6 -6 -14 -7 -18 -2 -10 -9 -36 -16 -57 -3 -8 -5 -17 -5
-20 0 -3 -4 -15 -9 -28 -20 -50 -26 -120 -17 -192 4 -35 15 -59 31 -71 3 -3 9
-8 12 -13 3 -5 9 -13 13 -19 13 -18 19 -48 13 -68 -3 -11 -3 -19 0 -131 1 -27
1 -36 -2 -45 -3 -12 -4 -27 -1 -38 1 -4 3 -14 4 -22 3 -30 37 -41 52 -17 5 9
4 159 -1 184 -7 31 -8 41 -5 52 1 5 2 20 2 31 0 29 1 30 26 30 23 -1 27 -2 31
-14 2 -6 13 -26 26 -46 13 -20 25 -41 28 -47 8 -17 11 -22 22 -38 6 -8 12 -17
13 -22 1 -4 6 -11 9 -16 4 -5 10 -15 13 -23 20 -43 67 -31 55 14 -2 10 -10 22
-38 65 -20 29 -38 58 -41 65 -3 7 -8 16 -11 20 -3 4 -9 13 -13 19 -4 6 -11 17
-15 24 -10 17 -12 32 -5 47 4 10 15 48 17 60 1 4 0 11 -2 17 -2 6 -3 18 -3 28
0 10 -2 24 -4 33 -2 9 -4 22 -5 29 0 8 -3 19 -7 28 -3 8 -7 20 -8 27 -1 7 -3
16 -5 21 -2 5 -4 13 -5 18 -1 4 -4 12 -7 16 -2 4 -8 15 -12 25 -22 46 -27 58
-41 80 -20 34 -20 29 0 78 7 17 13 34 14 39 1 5 6 15 10 22 4 7 11 19 14 26 3
8 9 20 14 26 10 18 28 52 28 55 0 1 4 10 10 19 16 26 17 40 4 52 -17 16 -42 4
-51 -24 -5 -15 -46 -97 -50 -100 -5 -4 -9 0 -14 14 -13 35 -13 52 -1 71 4 7 9
17 10 22 1 6 3 12 4 13 5 9 8 26 6 32 -3 9 -13 12 -23 7z m-11 -393 c3 -5 32
-62 37 -74 2 -7 8 -21 12 -31 3 -10 8 -25 10 -33 2 -8 6 -22 8 -30 3 -11 5
-21 5 -30 0 -8 1 -20 3 -26 29 -107 -63 -167 -113 -74 -19 36 -27 118 -15 157
2 9 5 19 6 23 0 5 5 18 10 31 5 12 9 24 9 26 0 2 2 8 4 12 2 5 6 16 8 24 7 27
10 31 16 25z"/>
</g>
</svg>
