<?xml version="1.0" standalone="no"?>
<!DOCTYPE svg PUBLIC "-//W3C//DTD SVG 20010904//EN"
 "http://www.w3.org/TR/2001/REC-SVG-20010904/DTD/svg10.dtd">
<svg version="1.0" xmlns="http://www.w3.org/2000/svg"
 width="98.000000pt" height="150.000000pt" viewBox="0 0 98.000000 150.000000"
 preserveAspectRatio="xMidYMid meet">
<metadata>
Created by potrace 1.16, written by Peter Selinger 2001-2019
</metadata>
<g transform="translate(0.000000,150.000000) scale(0.100000,-0.100000)"
fill="#000000" stroke="none">
<path d="M247 1393 c-66 -156 -185 -455 -218 -548 -22 -61 -29 -98 -29 -154
l0 -74 99 -191 c54 -105 124 -237 155 -294 31 -56 56 -109 56 -117 0 -11 12
-15 40 -15 33 0 40 3 40 19 0 26 -249 504 -291 559 -10 13 -25 47 -33 76 -15
51 -15 54 14 132 16 43 40 102 54 129 14 28 26 56 26 64 0 8 22 62 49 120 27
58 68 156 92 218 23 62 49 115 57 118 17 6 91 -25 115 -49 15 -16 16 -20 1
-54 -9 -20 -52 -125 -96 -232 -44 -107 -100 -242 -124 -300 -32 -73 -43 -112
-39 -130 10 -38 272 -568 308 -622 27 -41 37 -48 65 -48 17 0 32 3 32 8 -1 13
-170 334 -250 472 -65 112 -93 178 -86 204 8 32 32 44 51 25 7 -8 86 -151 175
-319 214 -403 206 -390 253 -390 21 0 37 3 35 8 -2 4 -12 25 -22 46 -10 22
-39 71 -65 110 -45 67 -74 119 -221 401 -35 66 -76 140 -92 164 -46 69 -45 83
12 221 29 69 66 159 82 200 16 41 37 93 46 115 9 22 22 48 30 57 13 16 17 16
43 3 15 -8 35 -15 44 -15 21 0 116 -50 121 -64 2 -6 -46 -132 -107 -281 -61
-148 -113 -279 -115 -290 -3 -13 55 -126 175 -337 100 -174 181 -322 181 -327
0 -6 16 -11 35 -11 32 0 35 3 35 28 0 16 -9 37 -20 47 -11 10 -48 70 -82 134
-34 64 -96 175 -138 246 -89 154 -104 187 -97 217 3 13 33 88 67 168 119 282
172 420 166 435 -3 8 -22 22 -43 31 -130 56 -402 167 -420 171 -13 3 -23 9
-23 14 0 5 -22 9 -49 9 l-49 0 -45 -107z"/>
</g>
</svg>
