<?xml version="1.0" standalone="no"?>
<!DOCTYPE svg PUBLIC "-//W3C//DTD SVG 20010904//EN"
 "http://www.w3.org/TR/2001/REC-SVG-20010904/DTD/svg10.dtd">
<svg version="1.0" xmlns="http://www.w3.org/2000/svg"
 width="65.000000pt" height="100.000000pt" viewBox="0 0 65.000000 100.000000"
 preserveAspectRatio="xMidYMid meet">
<metadata>
Created by potrace 1.16, written by Peter Selinger 2001-2019
</metadata>
<g transform="translate(0.000000,100.000000) scale(0.100000,-0.100000)"
fill="#000000" stroke="none">
<path d="M127 843 c-164 -386 -163 -368 -23 -638 91 -175 107 -200 130 -203
18 -2 26 1 26 13 0 20 -92 203 -161 320 -71 122 -71 128 22 345 42 96 83 196
93 223 20 54 40 60 80 25 l25 -23 -90 -219 c-49 -120 -89 -224 -89 -231 0 -17
122 -272 178 -373 37 -66 50 -82 69 -82 13 0 23 6 23 13 0 6 -34 75 -76 152
-125 231 -146 274 -138 297 6 20 7 20 24 2 10 -11 66 -109 126 -219 135 -251
131 -245 154 -245 31 0 30 13 -4 75 -18 33 -74 136 -125 230 -51 93 -99 178
-107 189 -28 40 -19 72 97 345 16 37 22 42 42 37 38 -9 95 -35 102 -46 3 -5
-26 -90 -65 -188 -38 -98 -70 -186 -70 -197 0 -20 41 -98 162 -307 59 -101 85
-138 99 -138 13 0 19 7 19 24 0 14 -5 28 -10 31 -6 4 -24 34 -42 68 -17 34
-60 114 -96 177 -43 74 -66 125 -65 145 0 16 35 113 79 214 l78 184 -22 18
c-12 9 -77 39 -145 64 -67 26 -132 54 -144 61 -12 8 -37 14 -56 14 l-33 0 -67
-157z"/>
</g>
</svg>
