<?xml version="1.0" standalone="no"?>
<!DOCTYPE svg PUBLIC "-//W3C//DTD SVG 20010904//EN"
 "http://www.w3.org/TR/2001/REC-SVG-20010904/DTD/svg10.dtd">
<svg version="1.0" xmlns="http://www.w3.org/2000/svg"
 width="658.000000pt" height="1000.000000pt" viewBox="0 0 658.000000 1000.000000"
 preserveAspectRatio="xMidYMid meet">
<metadata>
Created by potrace 1.16, written by Peter Selinger 2001-2019
</metadata>
<g transform="translate(0.000000,1000.000000) scale(0.500000,-0.500000)"
fill="#000000" stroke="none">
<path d="M394 1997 c0 -2 -2 -6 -4 -10 -6 -11 -58 -133 -136 -326 -28 -68 -58
-143 -68 -167 -25 -61 -110 -273 -133 -333 -10 -27 -25 -65 -32 -84 -8 -18
-15 -35 -17 -37 -8 -8 -6 -210 2 -218 3 -3 7 -12 10 -20 3 -9 9 -21 15 -30 11
-16 30 -52 62 -117 11 -20 23 -43 27 -50 8 -12 75 -137 118 -219 12 -24 36
-67 52 -96 40 -72 55 -102 73 -139 8 -18 21 -42 28 -53 31 -47 39 -71 30 -95
-1 -3 2 -3 56 -3 l57 0 -1 22 c-2 29 -6 42 -28 81 -11 19 -29 53 -40 76 -12
23 -27 52 -34 65 -8 13 -17 31 -22 41 -5 10 -14 27 -20 39 -6 12 -24 45 -39
75 -16 29 -32 60 -37 69 -5 8 -14 27 -22 41 -22 44 -67 127 -74 137 -10 14
-16 26 -28 53 -15 36 -23 49 -43 70 -24 25 -36 50 -46 95 -2 11 -8 31 -13 45
-13 36 -11 44 30 157 7 19 16 44 20 56 8 23 15 38 34 71 22 39 40 83 53 131
12 46 18 59 50 123 16 32 35 72 41 87 7 16 19 43 26 61 33 79 104 258 116 292
16 45 47 44 134 -1 79 -40 79 -39 33 -146 -15 -36 -43 -103 -63 -149 -19 -46
-40 -97 -47 -112 -7 -15 -18 -41 -24 -58 -11 -29 -74 -183 -98 -240 -7 -15
-23 -55 -36 -88 -14 -33 -28 -67 -32 -75 -5 -8 -10 -19 -13 -24 -3 -5 -7 -15
-9 -23 -2 -8 -7 -19 -11 -25 -8 -13 -9 -21 -2 -31 8 -11 9 -14 12 -29 2 -8 6
-19 9 -26 3 -6 9 -22 14 -35 9 -26 11 -31 22 -47 10 -14 67 -128 127 -249 25
-53 71 -146 102 -208 30 -61 55 -112 55 -112 0 -7 64 -128 72 -136 5 -5 12
-14 16 -20 4 -5 10 -14 13 -18 3 -5 9 -14 12 -22 l6 -13 47 0 c54 0 51 -1 43
17 -3 6 -7 17 -9 25 -2 7 -8 19 -12 26 -10 15 -18 31 -34 67 -18 41 -38 77
-60 112 -11 16 -29 46 -38 66 -11 21 -25 45 -34 58 -19 27 -28 43 -44 80 -17
39 -21 47 -41 78 -24 39 -34 57 -41 81 -8 27 -11 32 -25 48 -34 39 -117 202
-117 230 0 60 32 92 67 66 18 -14 23 -21 54 -81 26 -49 227 -425 360 -673 33
-61 63 -115 66 -121 4 -5 12 -17 18 -25 17 -26 29 -46 30 -50 1 -4 3 -4 52 -4
62 0 60 -3 31 43 -4 7 -11 22 -16 35 -10 30 -24 56 -37 73 -10 13 -19 28 -39
62 -4 8 -13 21 -19 27 -6 7 -14 18 -17 24 -3 6 -9 13 -12 15 -8 4 -12 12 -66
116 -11 21 -28 52 -37 69 -20 38 -124 234 -188 355 -47 90 -63 119 -78 142
-16 26 -20 32 -30 43 -36 43 -38 108 -6 173 6 11 12 26 15 34 10 29 30 81 38
98 5 10 14 29 19 42 5 13 16 39 25 57 9 18 20 46 26 62 6 16 17 44 25 62 8 18
22 55 32 81 20 55 23 62 33 83 4 9 13 27 18 41 22 54 33 59 79 37 20 -10 29
-13 54 -19 38 -9 48 -12 74 -28 12 -8 33 -18 46 -23 63 -26 62 -22 17 -132
-18 -43 -69 -170 -113 -281 -124 -309 -135 -335 -142 -345 -4 -6 -7 -14 -8
-18 -1 -5 -3 -13 -5 -18 -7 -14 -5 -24 10 -49 6 -13 14 -29 17 -36 7 -21 21
-49 34 -64 6 -7 14 -19 17 -26 6 -11 24 -41 56 -97 23 -39 53 -94 64 -115 10
-21 13 -27 58 -102 16 -26 32 -55 36 -64 5 -9 14 -24 20 -34 6 -10 16 -26 22
-35 6 -9 23 -40 39 -69 15 -29 34 -64 42 -79 8 -15 17 -33 20 -40 4 -7 12 -21
19 -30 16 -21 22 -35 25 -54 l2 -16 42 0 43 0 0 42 c0 41 0 41 -5 44 -2 1 -7
6 -10 11 -6 10 -15 20 -24 25 -2 2 -11 15 -18 28 -8 14 -17 31 -21 38 -5 7
-15 25 -23 42 -8 16 -21 40 -29 54 -8 14 -24 42 -35 62 -11 20 -26 47 -33 60
-7 13 -18 31 -23 41 -18 33 -68 122 -81 143 -8 12 -18 31 -25 43 -6 13 -19 34
-29 48 -11 15 -24 37 -32 54 -7 15 -16 32 -20 36 -12 15 -29 56 -43 103 -3 10
0 35 6 46 3 5 60 140 79 186 5 13 17 40 26 61 8 21 17 45 19 53 2 9 6 20 11
28 13 21 26 53 112 266 27 68 54 132 59 144 21 51 19 57 -26 74 -9 4 -22 10
-29 14 -7 4 -26 13 -42 20 -16 6 -53 21 -82 34 -29 12 -76 31 -105 43 -29 11
-67 27 -86 36 -19 8 -68 27 -109 43 -79 30 -91 35 -102 44 -12 9 -27 15 -45
18 -18 3 -28 7 -31 12 -4 6 -126 6 -126 1z"/>
</g>
</svg>
