<?xml version="1.0" standalone="no"?>
<!DOCTYPE svg PUBLIC "-//W3C//DTD SVG 20010904//EN"
 "http://www.w3.org/TR/2001/REC-SVG-20010904/DTD/svg10.dtd">
<svg version="1.0" xmlns="http://www.w3.org/2000/svg"
 width="348.000000pt" height="590.000000pt" viewBox="0 0 348.000000 590.000000"
 preserveAspectRatio="xMidYMid meet">
<metadata>
Created by potrace 1.16, written by Peter Selinger 2001-2019
</metadata>
<g transform="translate(0.000000,590.000000) scale(0.500000,-0.500000)"
fill="#000000" stroke="none">
<path d="M419 1125 c-7 -8 -14 -17 -15 -21 -2 -4 -6 -12 -11 -18 -5 -5 -11
-15 -14 -20 -2 -6 -8 -15 -13 -19 -5 -4 -11 -12 -13 -18 -3 -5 -8 -13 -11 -17
-3 -4 -9 -13 -12 -20 -4 -7 -10 -16 -14 -19 -3 -3 -6 -8 -7 -11 -1 -3 -5 -11
-10 -18 -5 -8 -11 -19 -13 -24 -5 -17 -12 -28 -20 -37 -4 -5 -9 -12 -10 -16
-1 -4 -6 -13 -10 -20 -5 -6 -8 -13 -8 -14 0 -3 -18 -31 -30 -45 -6 -7 -14 -21
-19 -31 -11 -21 -22 -41 -30 -51 -4 -4 -11 -17 -18 -28 -16 -31 -34 -59 -47
-75 -7 -7 -15 -19 -18 -25 -3 -7 -12 -21 -19 -32 -19 -29 -20 -35 -8 -48 5 -6
7 -10 8 -17 1 -6 2 -12 3 -14 4 -11 14 -49 18 -69 2 -11 6 -25 9 -30 2 -5 7
-19 10 -32 3 -13 8 -33 12 -45 4 -12 9 -29 11 -37 2 -8 8 -28 12 -45 4 -16 10
-38 12 -48 2 -9 4 -18 5 -19 2 -3 10 -33 17 -60 8 -33 9 -34 38 -34 34 0 35 3
19 54 -3 8 -5 16 -5 19 0 3 -1 8 -3 13 -5 11 -10 26 -17 53 -4 13 -8 29 -10
36 -4 11 -8 28 -19 67 -10 33 -11 37 -12 45 -1 4 -4 14 -6 22 -3 8 -10 31 -15
52 -6 21 -13 46 -15 56 -13 44 -12 44 18 92 40 63 43 67 64 102 12 19 29 46
38 60 9 14 21 33 26 43 10 16 130 211 169 274 19 31 19 31 26 31 13 -1 45 -12
55 -20 4 -3 11 -7 17 -9 43 -15 54 -28 39 -48 -4 -5 -9 -14 -12 -19 -2 -6 -6
-12 -9 -14 -2 -2 -8 -11 -12 -19 -5 -8 -11 -18 -14 -22 -3 -3 -8 -10 -10 -14
-2 -4 -7 -12 -12 -17 -4 -5 -8 -11 -9 -15 -1 -3 -5 -10 -9 -15 -10 -12 -11
-14 -13 -25 -2 -12 -9 -26 -21 -39 -6 -7 -11 -16 -13 -21 -2 -6 -4 -10 -5 -11
-1 -1 -7 -11 -12 -22 -7 -13 -15 -26 -24 -37 -14 -17 -22 -30 -27 -44 -2 -5
-5 -12 -9 -17 -3 -4 -7 -11 -8 -16 -2 -4 -8 -14 -14 -22 -8 -9 -12 -17 -13
-22 -1 -4 -5 -13 -10 -20 -5 -7 -11 -16 -13 -21 -2 -5 -8 -16 -12 -25 -13 -27
-16 -16 33 -160 51 -152 89 -271 89 -278 0 -22 30 -36 61 -28 13 3 9 32 -13
88 -5 11 -14 42 -19 63 -2 7 -5 16 -8 20 -3 4 -6 12 -7 18 -1 5 -3 12 -5 15
-1 4 -3 9 -4 12 -1 3 -4 12 -8 20 -6 12 -8 17 -8 30 -1 14 -3 19 -12 39 -6 13
-11 27 -12 31 -2 14 -11 39 -20 57 -20 39 -16 49 58 165 5 8 10 17 12 21 2 3
8 14 14 23 6 9 11 17 11 18 0 1 10 19 23 40 12 21 30 52 40 68 10 17 33 56 52
88 64 109 75 128 77 137 2 5 4 11 5 14 9 18 3 30 -23 44 -30 15 -56 30 -82 45
-62 36 -56 34 -87 35 l-27 0 -13 -13z"/>
<path d="M192 488 c-24 -7 -24 -10 -11 -57 15 -52 17 -59 24 -85 4 -14 8 -30
10 -36 1 -6 5 -21 9 -34 3 -13 9 -32 11 -42 9 -34 13 -47 18 -67 3 -11 10 -39
16 -63 15 -58 14 -56 43 -56 31 0 33 3 21 43 -4 13 -9 29 -10 34 -1 6 -5 19
-9 31 -3 12 -8 27 -10 35 -2 8 -5 19 -7 24 -3 12 -14 49 -20 74 -5 17 -9 31
-17 63 -3 8 -6 21 -8 28 -2 7 -8 29 -13 48 -14 54 -15 56 -18 60 -4 5 -12 5
-29 0z"/>
</g>
</svg>
