<?xml version="1.0" standalone="no"?>
<!DOCTYPE svg PUBLIC "-//W3C//DTD SVG 20010904//EN"
 "http://www.w3.org/TR/2001/REC-SVG-20010904/DTD/svg10.dtd">
<svg version="1.0" xmlns="http://www.w3.org/2000/svg"
 width="88.000000pt" height="148.000000pt" viewBox="0 0 88.000000 148.000000"
 preserveAspectRatio="xMidYMid meet">
<metadata>
Created by potrace 1.16, written by Peter Selinger 2001-2019
</metadata>
<g transform="translate(0.000000,148.000000) scale(0.100000,-0.100000)"
fill="#000000" stroke="none">
<path d="M517 1388 c-13 -18 -31 -44 -40 -58 -79 -117 -109 -165 -122 -193
-17 -36 -39 -72 -102 -168 -23 -37 -43 -69 -43 -72 0 -3 -36 -60 -80 -126
l-80 -121 19 -62 c37 -120 58 -194 101 -353 24 -88 48 -166 53 -173 11 -14 53
-16 62 -2 6 10 4 20 -84 325 -33 116 -61 223 -61 238 0 16 13 47 29 70 31 47
220 350 327 526 38 62 74 115 80 118 13 5 164 -62 164 -73 0 -4 -19 -34 -42
-68 -84 -123 -96 -142 -112 -176 -28 -59 -62 -119 -79 -138 -8 -9 -28 -39 -43
-67 -15 -27 -38 -68 -51 -90 -13 -22 -31 -57 -42 -78 l-18 -38 89 -272 c50
-150 92 -275 95 -279 6 -11 61 -10 68 1 6 10 -82 280 -96 296 -5 5 -9 23 -9
40 0 17 -4 35 -8 40 -16 18 -52 132 -52 164 0 18 8 45 19 59 66 94 361 604
361 625 0 18 -9 28 -40 42 -22 10 -68 35 -102 56 -83 51 -127 53 -161 7z"/>
<path d="M244 610 c-12 -5 -24 -12 -27 -17 -3 -4 16 -82 42 -173 26 -91 58
-208 71 -260 23 -94 31 -110 60 -110 38 0 41 14 20 81 -12 35 -46 156 -76 269
-31 113 -59 208 -63 211 -3 4 -16 3 -27 -1z"/>
</g>
</svg>
