<?xml version="1.0" standalone="no"?>
<!DOCTYPE svg PUBLIC "-//W3C//DTD SVG 20010904//EN"
 "http://www.w3.org/TR/2001/REC-SVG-20010904/DTD/svg10.dtd">
<svg version="1.0" xmlns="http://www.w3.org/2000/svg"
 width="59.000000pt" height="100.000000pt" viewBox="0 0 59.000000 100.000000"
 preserveAspectRatio="xMidYMid meet">
<metadata>
Created by potrace 1.16, written by Peter Selinger 2001-2019
</metadata>
<g transform="translate(0.000000,100.000000) scale(0.100000,-0.100000)"
fill="#000000" stroke="none">
<path d="M369 963 c-14 -3 -99 -123 -129 -183 -7 -14 -55 -93 -106 -176 -52
-83 -94 -158 -94 -168 0 -27 100 -390 110 -400 14 -14 40 1 40 23 0 10 -20 89
-45 175 -25 87 -45 167 -45 180 0 12 25 62 56 112 31 49 94 153 141 232 47 78
89 142 94 142 20 0 89 -41 89 -53 0 -7 -11 -29 -25 -49 -36 -54 -152 -253
-187 -322 l-30 -59 53 -176 c29 -97 56 -184 61 -193 10 -21 46 -24 54 -5 2 7
-20 87 -51 178 -30 90 -55 172 -55 183 0 10 56 113 125 229 69 116 125 221
125 233 0 34 -136 107 -181 97z"/>
<path d="M153 405 c-6 -18 -5 -24 45 -214 38 -143 58 -179 82 -155 8 8 -1 51
-28 150 -22 76 -43 155 -47 174 -11 55 -39 78 -52 45z"/>
</g>
</svg>
