<?xml version="1.0" standalone="no"?>
<!DOCTYPE svg PUBLIC "-//W3C//DTD SVG 20010904//EN"
 "http://www.w3.org/TR/2001/REC-SVG-20010904/DTD/svg10.dtd">
<svg version="1.0" xmlns="http://www.w3.org/2000/svg"
 width="308.000000pt" height="590.000000pt" viewBox="0 0 308.000000 590.000000"
 preserveAspectRatio="xMidYMid meet">
<metadata>
Created by potrace 1.16, written by Peter Selinger 2001-2019
</metadata>
<g transform="translate(0.000000,590.000000) scale(0.500000,-0.500000)"
fill="#000000" stroke="none">
<path d="M420 1130 c-7 -5 -14 -18 -33 -59 -5 -11 -24 -47 -41 -80 -39 -72
-99 -185 -129 -240 -12 -22 -35 -66 -53 -98 -42 -79 -64 -123 -64 -128 0 -3
-1 -8 -3 -12 -4 -6 -7 -31 -11 -80 -5 -55 -11 -104 -13 -111 -3 -5 -4 -18 -5
-42 -1 -19 -2 -38 -4 -42 -5 -17 -8 -36 -8 -50 0 -8 -1 -25 -2 -36 -10 -110
-12 -105 25 -104 24 1 25 2 27 34 1 14 3 33 4 43 1 10 2 26 3 36 1 10 2 29 4
42 1 13 3 32 4 42 1 10 2 24 3 31 1 7 3 27 5 44 2 18 4 37 6 42 1 6 3 24 4 39
1 15 3 37 5 48 2 11 4 23 4 27 0 4 3 12 6 19 3 7 6 13 6 15 0 6 7 25 13 35 4
6 11 18 17 27 6 9 13 22 16 29 3 7 8 15 12 18 7 7 18 28 18 36 0 3 4 9 12 18
6 8 13 17 14 21 1 5 6 12 10 17 9 10 18 27 18 33 0 2 3 8 7 14 4 6 7 15 8 21
1 7 4 12 11 20 11 13 32 54 41 79 2 5 4 10 6 12 4 5 19 31 20 36 1 3 3 7 5 11
2 3 4 8 4 10 0 5 7 17 15 27 4 5 7 9 7 10 0 2 19 44 27 58 7 14 23 11 42 -7
11 -10 12 -7 -23 -89 -10 -24 -22 -51 -26 -61 -7 -17 -31 -73 -52 -122 -5 -12
-12 -27 -14 -34 -3 -7 -16 -37 -29 -67 -13 -30 -26 -60 -30 -66 -10 -15 -11
-25 -4 -48 7 -26 14 -49 23 -78 4 -14 10 -34 14 -46 3 -12 9 -32 13 -46 24
-85 29 -104 52 -186 4 -15 9 -33 11 -41 2 -8 8 -30 13 -49 14 -57 17 -60 50
-50 24 8 26 11 16 43 -11 34 -15 51 -17 61 -1 5 -4 15 -7 22 -3 7 -7 20 -9 29
-3 9 -5 17 -6 18 -1 2 -3 9 -4 16 -1 7 -3 16 -5 19 -2 3 -4 10 -4 15 -1 6 -3
14 -5 19 -2 6 -4 12 -4 14 0 3 -2 9 -4 14 -2 5 -6 18 -8 28 -3 12 -8 26 -14
38 -8 17 -9 21 -10 39 -1 11 -3 24 -5 28 -1 4 -3 10 -3 13 0 3 -2 9 -5 14 -7
13 -19 60 -19 72 0 16 6 41 15 58 4 9 9 20 10 23 3 11 11 31 18 41 4 5 9 16
11 23 2 7 6 15 8 18 2 3 5 10 6 16 2 12 5 18 17 45 5 10 11 24 13 31 3 7 12
29 21 49 21 50 30 71 40 96 5 12 13 30 18 41 27 56 24 65 -32 94 -12 7 -34 20
-49 29 -30 20 -34 21 -44 12z"/>
<path d="M259 466 c-10 -4 -13 -39 -5 -70 3 -13 4 -27 5 -54 1 -24 2 -40 4
-46 3 -9 3 -11 0 -21 -3 -10 -3 -11 1 -20 6 -13 11 -52 13 -90 0 -16 2 -33 3
-37 1 -4 3 -21 4 -38 3 -41 4 -43 39 -42 21 1 28 5 28 17 -3 51 -3 58 -8 67
-5 9 -8 22 -13 73 -1 11 -3 25 -4 31 -3 17 -11 86 -16 144 -8 86 -17 101 -51
86z"/>
<path d="M184 449 c-19 -6 -18 0 -16 -106 1 -58 1 -95 0 -99 -1 -4 -1 -10 0
-15 1 -4 2 -42 2 -84 0 -94 -2 -88 29 -88 31 0 29 -42 21 320 -1 84 -2 84 -36
72z"/>
</g>
</svg>
