<?xml version="1.0" standalone="no"?>
<!DOCTYPE svg PUBLIC "-//W3C//DTD SVG 20010904//EN"
 "http://www.w3.org/TR/2001/REC-SVG-20010904/DTD/svg10.dtd">
<svg version="1.0" xmlns="http://www.w3.org/2000/svg"
 width="78.000000pt" height="148.000000pt" viewBox="0 0 78.000000 148.000000"
 preserveAspectRatio="xMidYMid meet">
<metadata>
Created by potrace 1.16, written by Peter Selinger 2001-2019
</metadata>
<g transform="translate(0.000000,148.000000) scale(0.100000,-0.100000)"
fill="#000000" stroke="none">
<path d="M527 1413 c-3 -5 -34 -64 -69 -133 -36 -69 -74 -141 -85 -160 -11
-19 -72 -133 -137 -253 l-118 -217 -14 -123 c-8 -67 -21 -185 -29 -262 -8 -77
-18 -155 -21 -172 -7 -37 9 -49 49 -39 22 5 23 13 41 193 28 296 34 346 44
368 23 53 59 123 80 153 12 18 22 37 22 42 0 6 15 31 33 57 19 27 40 64 47 83
7 19 19 42 25 50 7 8 45 82 86 164 41 81 80 151 87 154 8 2 23 -5 35 -16 19
-20 20 -23 5 -59 -28 -68 -189 -437 -210 -482 -25 -51 -34 -7 76 -386 36 -127
69 -246 72 -265 9 -49 29 -63 65 -45 27 14 27 16 14 52 -13 36 -42 134 -80
273 -10 36 -24 77 -32 92 -7 15 -13 38 -13 52 0 14 -8 45 -17 68 -29 73 -23
131 25 230 23 48 42 90 42 95 1 4 9 26 20 48 11 22 19 43 20 47 0 4 14 36 30
71 17 36 30 68 30 70 0 3 14 35 30 70 17 36 30 69 30 74 0 9 -54 53 -65 53 -4
0 -26 14 -50 30 -44 31 -60 36 -68 23z"/>
<path d="M315 570 c-3 -6 -4 -24 0 -40 4 -17 10 -76 15 -133 21 -262 33 -336
52 -343 10 -3 27 -2 39 1 24 8 24 13 -9 225 -11 69 -24 163 -28 210 -9 82 -10
85 -36 88 -14 2 -29 -2 -33 -8z"/>
<path d="M232 559 l-22 -8 2 -238 3 -238 34 -3 34 -4 -7 244 c-4 133 -10 246
-14 249 -4 4 -17 3 -30 -2z"/>
</g>
</svg>
