<?xml version="1.0" standalone="no"?>
<!DOCTYPE svg PUBLIC "-//W3C//DTD SVG 20010904//EN"
 "http://www.w3.org/TR/2001/REC-SVG-20010904/DTD/svg10.dtd">
<svg version="1.0" xmlns="http://www.w3.org/2000/svg"
 width="53.000000pt" height="100.000000pt" viewBox="0 0 53.000000 100.000000"
 preserveAspectRatio="xMidYMid meet">
<metadata>
Created by potrace 1.16, written by Peter Selinger 2001-2019
</metadata>
<g transform="translate(0.000000,100.000000) scale(0.100000,-0.100000)"
fill="#000000" stroke="none">
<path d="M339 933 c-6 -15 -66 -132 -135 -259 l-125 -232 -20 -157 c-24 -192
-23 -250 6 -250 18 0 21 9 28 80 27 270 31 288 106 424 37 69 94 177 126 239
31 61 60 112 65 112 4 0 13 -6 19 -14 10 -12 -4 -52 -70 -198 -94 -211 -92
-159 -14 -448 26 -96 53 -181 59 -188 16 -16 46 -5 46 17 0 9 -16 70 -36 136
-60 200 -73 249 -74 275 0 14 36 107 80 208 44 101 80 192 80 203 0 21 -82 78
-113 79 -10 0 -22 -12 -28 -27z"/>
<path d="M222 388 c-8 -10 -8 -34 -2 -78 5 -36 12 -109 15 -162 8 -100 19
-126 51 -114 18 7 18 -1 -11 211 -18 132 -31 168 -53 143z"/>
<path d="M157 373 c-8 -14 -18 -298 -12 -315 4 -10 16 -18 26 -18 18 0 19 10
19 154 0 85 -3 161 -6 170 -6 17 -20 21 -27 9z"/>
</g>
</svg>
