<?xml version="1.0" standalone="no"?>
<!DOCTYPE svg PUBLIC "-//W3C//DTD SVG 20010904//EN"
 "http://www.w3.org/TR/2001/REC-SVG-20010904/DTD/svg10.dtd">
<svg version="1.0" xmlns="http://www.w3.org/2000/svg"
 width="100.000000pt" height="148.000000pt" viewBox="0 0 100.000000 148.000000"
 preserveAspectRatio="xMidYMid meet">
<metadata>
Created by potrace 1.16, written by Peter Selinger 2001-2019
</metadata>
<g transform="translate(0.000000,148.000000) scale(0.100000,-0.100000)"
fill="#000000" stroke="none">
<path d="M342 1398 c-6 -13 -41 -90 -78 -173 -36 -82 -78 -175 -91 -205 -102
-222 -123 -277 -123 -316 0 -42 16 -72 210 -384 29 -47 73 -119 98 -160 62
-103 71 -112 106 -108 16 2 31 8 33 14 2 6 -23 51 -55 100 -33 49 -69 107 -81
129 -12 22 -72 123 -134 225 -110 179 -113 187 -101 215 36 86 99 226 148 330
23 50 55 123 71 163 44 112 43 111 105 82 28 -13 58 -33 65 -43 14 -19 8 -33
-184 -428 -28 -59 -51 -113 -51 -120 0 -8 12 -34 26 -59 31 -53 142 -249 190
-335 158 -285 147 -270 187 -273 48 -4 48 9 0 90 -21 35 -49 84 -63 110 -14
25 -75 136 -136 246 -62 110 -115 208 -118 219 -4 13 29 91 103 244 60 123
112 234 115 247 4 12 12 22 17 22 22 0 119 -63 119 -77 0 -9 -38 -94 -85 -189
-47 -95 -85 -176 -85 -180 0 -4 -9 -18 -21 -30 l-21 -22 103 -184 c56 -100
111 -199 122 -218 17 -30 60 -109 128 -234 24 -44 47 -55 65 -32 18 25 18 56
0 81 -7 11 -24 40 -38 65 -14 25 -35 63 -48 85 -13 22 -34 60 -48 85 -38 68
-167 292 -181 315 -14 22 -13 24 140 344 56 116 67 147 57 158 -6 8 -86 52
-177 97 -91 46 -182 93 -201 105 -45 27 -74 27 -88 -1z"/>
</g>
</svg>
