<?xml version="1.0" standalone="no"?>
<!DOCTYPE svg PUBLIC "-//W3C//DTD SVG 20010904//EN"
 "http://www.w3.org/TR/2001/REC-SVG-20010904/DTD/svg10.dtd">
<svg version="1.0" xmlns="http://www.w3.org/2000/svg"
 width="396.000000pt" height="590.000000pt" viewBox="0 0 396.000000 590.000000"
 preserveAspectRatio="xMidYMid meet">
<metadata>
Created by potrace 1.16, written by Peter Selinger 2001-2019
</metadata>
<g transform="translate(0.000000,590.000000) scale(0.500000,-0.500000)"
fill="#000000" stroke="none">
<path d="M287 1134 c-10 -5 -11 -6 -45 -83 -13 -30 -44 -99 -68 -153 -24 -54
-51 -115 -60 -135 -9 -20 -19 -43 -23 -51 -13 -28 -43 -97 -47 -108 -3 -9 -4
-15 -4 -39 0 -34 -1 -33 24 -71 9 -16 23 -38 29 -50 7 -12 19 -32 28 -46 9
-14 30 -49 48 -79 19 -30 37 -60 42 -67 10 -17 33 -55 75 -124 53 -88 46 -81
75 -82 38 -1 43 4 29 30 -4 8 -11 20 -14 27 -3 7 -10 17 -15 23 -5 6 -13 18
-18 27 -6 10 -13 22 -17 28 -22 33 -48 79 -48 84 0 2 -3 7 -8 12 -4 4 -15 21
-24 36 -9 15 -18 29 -19 31 -2 2 -8 12 -14 23 -12 22 -28 50 -36 62 -3 4 -9
13 -12 19 -4 6 -10 17 -14 24 -5 7 -12 19 -16 27 -4 8 -9 16 -11 18 -2 2 -6 9
-9 14 -2 6 -8 15 -12 21 -9 13 -9 20 -1 32 4 5 8 14 10 24 3 9 7 20 12 27 4 7
8 16 9 20 0 4 6 18 12 30 6 12 12 26 14 31 2 5 6 13 9 18 3 5 6 12 7 16 2 9
12 30 17 36 2 3 7 14 10 24 3 10 13 32 21 49 8 16 15 31 15 32 0 2 3 7 7 13 7
11 19 39 19 45 0 2 3 11 8 20 4 9 13 28 19 43 21 51 26 55 50 43 4 -3 20 -10
34 -18 45 -22 49 -31 30 -69 -5 -10 -12 -26 -16 -35 -4 -9 -18 -38 -30 -64
-145 -302 -141 -291 -124 -321 46 -81 79 -141 104 -187 17 -30 43 -77 59 -106
26 -46 62 -111 99 -180 15 -26 16 -27 40 -28 46 -3 46 8 3 79 -14 22 -50 88
-51 94 -2 8 -7 16 -16 28 -5 6 -11 16 -15 23 -4 7 -9 17 -13 22 -4 6 -15 26
-25 46 -10 20 -21 40 -25 45 -4 5 -14 23 -22 40 -9 17 -18 35 -22 40 -4 5 -13
22 -21 37 -8 16 -18 34 -22 41 -4 6 -9 15 -10 20 -1 5 -3 13 -5 17 -4 9 -3 13
17 54 8 15 14 27 14 28 0 0 8 16 17 36 9 19 17 35 17 36 0 1 4 7 8 15 4 7 9
16 10 21 1 4 5 13 9 19 3 6 7 14 9 18 1 4 5 11 8 16 3 5 7 13 8 17 4 13 34 77
42 91 4 7 8 16 9 19 9 38 14 38 88 -2 30 -17 30 -19 6 -68 -4 -7 -9 -18 -11
-24 -2 -5 -9 -21 -16 -35 -7 -14 -12 -26 -12 -27 0 0 -8 -18 -19 -39 -10 -22
-20 -43 -21 -47 -2 -4 -7 -12 -12 -18 -7 -8 -10 -13 -12 -20 -1 -6 -4 -14 -7
-18 -2 -4 -5 -11 -6 -15 -3 -13 -10 -27 -18 -34 -17 -14 -17 -15 6 -55 27 -48
71 -128 73 -134 2 -3 8 -15 15 -27 7 -12 23 -40 35 -63 61 -111 100 -182 122
-224 28 -52 31 -55 49 -52 28 4 32 55 8 88 -2 3 -10 18 -18 32 -7 14 -16 30
-19 34 -3 4 -11 20 -19 34 -7 14 -15 28 -17 30 -2 2 -8 13 -13 23 -5 10 -12
23 -16 28 -4 5 -12 20 -19 33 -7 13 -14 26 -16 29 -2 3 -7 12 -12 21 -5 9 -12
21 -15 26 -3 6 -12 22 -20 36 -7 14 -17 31 -21 37 -4 6 -12 20 -18 32 -6 11
-13 25 -17 31 -11 15 -12 11 29 96 15 32 58 121 73 155 4 8 13 27 20 41 55
114 59 100 -49 155 -81 40 -187 95 -223 114 -29 17 -38 19 -52 12z"/>
</g>
</svg>
