<?xml version="1.0" standalone="no"?>
<!DOCTYPE svg PUBLIC "-//W3C//DTD SVG 20010904//EN"
 "http://www.w3.org/TR/2001/REC-SVG-20010904/DTD/svg10.dtd">
<svg version="1.0" xmlns="http://www.w3.org/2000/svg"
 width="434.000000pt" height="590.000000pt" viewBox="0 0 434.000000 590.000000"
 preserveAspectRatio="xMidYMid meet">
<metadata>
Created by potrace 1.16, written by Peter Selinger 2001-2019
</metadata>
<g transform="translate(0.000000,590.000000) scale(0.500000,-0.500000)"
fill="#000000" stroke="none">
<path d="M400 1124 c-8 -8 -15 -18 -16 -22 -2 -4 -7 -12 -12 -18 -6 -7 -11
-15 -12 -20 -2 -9 -4 -11 -15 -19 -4 -3 -10 -10 -14 -19 -18 -33 -23 -42 -30
-53 -5 -7 -13 -19 -20 -29 -6 -9 -13 -22 -15 -29 -6 -19 -9 -25 -18 -33 -5 -5
-8 -10 -10 -16 -1 -5 -5 -12 -8 -16 -4 -5 -8 -13 -9 -18 -3 -13 -9 -21 -26
-39 -13 -14 -27 -38 -27 -45 0 -2 -3 -7 -6 -12 -3 -4 -8 -13 -11 -19 -2 -6 -7
-13 -11 -15 -4 -3 -8 -9 -11 -18 -3 -7 -7 -16 -10 -20 -2 -4 -9 -16 -15 -26
-7 -11 -18 -26 -26 -35 -8 -8 -14 -15 -14 -16 0 -10 -5 -23 -14 -34 l-9 -12
-1 -41 c0 -41 0 -44 8 -73 2 -9 6 -24 9 -34 3 -10 7 -27 11 -38 3 -11 8 -29
11 -40 3 -11 7 -24 8 -29 1 -5 5 -19 9 -32 3 -13 8 -30 10 -37 2 -8 6 -22 8
-30 3 -9 6 -20 7 -25 2 -5 8 -28 14 -52 17 -65 15 -62 46 -62 31 0 37 13 23
48 -2 5 -4 15 -5 22 -1 8 -3 14 -6 18 -7 8 -9 12 -10 26 -1 7 -3 17 -5 23 -2
5 -4 12 -4 15 0 3 -2 10 -5 15 -3 6 -8 19 -11 31 -3 12 -8 29 -12 38 -4 11 -7
26 -8 39 -2 18 -4 23 -8 30 -5 7 -11 24 -26 82 -17 63 -19 58 25 127 16 26 41
66 56 89 14 23 33 55 43 70 34 54 85 139 175 286 35 58 36 59 43 59 8 0 33
-10 50 -20 73 -43 69 -40 57 -58 -4 -5 -8 -13 -10 -17 -1 -4 -6 -11 -11 -15
-4 -5 -10 -13 -13 -19 -3 -5 -11 -17 -16 -26 -6 -9 -11 -20 -12 -24 -1 -4 -6
-12 -16 -23 -12 -13 -16 -20 -20 -31 -8 -20 -13 -31 -24 -44 -5 -6 -9 -13 -9
-14 0 -1 -4 -8 -8 -14 -4 -7 -9 -17 -12 -22 -5 -11 -20 -35 -30 -47 -7 -8 -22
-35 -22 -39 0 0 -4 -6 -8 -13 -4 -7 -8 -13 -8 -15 0 -1 -5 -9 -12 -19 -6 -9
-14 -23 -18 -30 -6 -12 -13 -24 -30 -51 -11 -16 -10 -23 1 -57 5 -15 13 -40
18 -57 5 -16 13 -41 17 -54 4 -13 16 -49 25 -80 23 -74 23 -76 31 -102 4 -12
9 -31 12 -41 11 -35 16 -52 17 -60 3 -21 10 -26 37 -27 34 -2 37 3 23 43 -5
15 -9 30 -9 32 0 3 -2 10 -5 15 -4 10 -14 42 -20 64 -1 6 -4 14 -7 18 -2 5 -4
10 -4 12 0 4 -9 33 -15 47 -8 19 -11 30 -12 47 -1 14 -2 17 -8 26 -5 7 -9 18
-14 34 -3 13 -9 32 -13 42 -21 59 -17 84 23 142 7 10 13 20 13 21 0 1 6 10 13
21 7 11 13 20 13 21 0 1 4 9 10 17 5 8 13 22 18 30 7 13 90 153 154 261 17 27
23 33 29 31 5 -2 133 -79 138 -83 7 -6 4 -10 -90 -136 -52 -68 -98 -130 -103
-137 -5 -7 -12 -16 -16 -21 -4 -5 -10 -14 -15 -20 -4 -6 -12 -17 -19 -25 -7
-7 -12 -16 -12 -18 0 -9 3 -19 46 -160 4 -15 9 -33 9 -41 1 -8 3 -16 6 -21 2
-4 8 -20 13 -35 5 -15 10 -31 11 -36 2 -5 4 -11 5 -15 1 -3 6 -20 11 -38 5
-18 11 -38 13 -46 8 -30 23 -78 26 -83 9 -16 53 -14 61 3 4 8 6 1 -15 66 -6
18 -11 40 -13 48 -2 8 -5 19 -8 24 -2 4 -5 11 -6 15 -1 4 -3 12 -5 19 -2 6 -4
14 -4 18 0 4 -2 13 -5 19 -9 22 -17 45 -20 56 -1 6 -4 16 -6 21 -1 6 -6 21 -9
34 -4 13 -9 32 -13 41 -4 9 -7 21 -8 25 -1 4 -3 12 -5 16 -2 4 -4 10 -4 13 0
3 -2 10 -4 16 -8 21 -5 40 9 51 4 3 9 9 12 15 6 12 26 36 41 50 7 6 15 16 19
23 4 6 13 18 21 25 9 9 14 16 16 22 1 5 5 10 10 14 4 3 9 10 12 16 2 6 7 15
11 20 4 5 8 13 11 17 6 13 23 33 35 43 10 8 13 12 23 32 7 13 15 27 18 33 21
34 11 70 -24 89 -10 6 -21 12 -23 14 -2 2 -15 10 -29 17 -34 18 -57 32 -68 41
-5 4 -13 10 -18 13 -5 3 -12 8 -15 11 -6 6 -75 42 -80 42 -1 0 -8 3 -14 8 -59
38 -90 52 -113 52 l-20 0 -14 -14z"/>
<path d="M174 484 c-18 -4 -23 -18 -16 -41 2 -8 6 -21 9 -30 5 -16 16 -56 31
-106 13 -47 41 -148 47 -169 25 -94 23 -90 47 -90 15 0 25 4 29 12 3 6 3 9 -3
29 -2 7 -8 28 -14 47 -6 19 -14 45 -17 58 -4 13 -8 26 -9 29 -2 6 -10 37 -26
91 -8 27 -19 65 -34 122 -15 52 -17 54 -44 48z"/>
</g>
</svg>
