<?xml version="1.0" standalone="no"?>
<!DOCTYPE svg PUBLIC "-//W3C//DTD SVG 20010904//EN"
 "http://www.w3.org/TR/2001/REC-SVG-20010904/DTD/svg10.dtd">
<svg version="1.0" xmlns="http://www.w3.org/2000/svg"
 width="108.000000pt" height="148.000000pt" viewBox="0 0 108.000000 148.000000"
 preserveAspectRatio="xMidYMid meet">
<metadata>
Created by potrace 1.16, written by Peter Selinger 2001-2019
</metadata>
<g transform="translate(0.000000,148.000000) scale(0.100000,-0.100000)"
fill="#000000" stroke="none">
<path d="M478 1381 c-16 -22 -28 -44 -28 -49 0 -5 -7 -15 -15 -22 -7 -6 -29
-37 -47 -68 -18 -31 -45 -77 -60 -102 -15 -25 -37 -65 -49 -90 -12 -25 -32
-58 -45 -73 -13 -16 -24 -33 -24 -39 0 -6 -11 -26 -25 -44 -14 -18 -25 -37
-25 -42 0 -5 -17 -33 -38 -63 -82 -117 -89 -169 -47 -324 35 -125 74 -270 90
-334 17 -64 30 -81 62 -81 34 0 37 21 15 87 -11 32 -32 103 -47 158 -15 55
-36 125 -45 155 -10 30 -24 82 -31 115 l-12 61 84 134 c46 74 145 235 218 358
119 198 136 222 155 216 28 -9 125 -64 131 -75 3 -5 -12 -35 -33 -66 -54 -80
-81 -124 -141 -228 -29 -49 -62 -106 -73 -125 -110 -185 -120 -204 -115 -229
11 -56 165 -543 174 -552 13 -13 68 -8 67 6 -2 10 -76 249 -135 432 -16 50
-29 101 -29 113 0 13 58 120 129 239 70 119 147 248 170 288 23 40 45 75 50
78 8 4 159 -82 185 -105 5 -5 -29 -59 -76 -122 -46 -62 -117 -157 -156 -210
-40 -53 -76 -99 -81 -102 -10 -6 -4 -34 29 -141 12 -38 26 -86 30 -105 17 -69
105 -355 113 -367 12 -18 54 -16 65 3 6 11 3 34 -9 68 -11 28 -19 59 -19 68 0
10 -4 26 -10 36 -5 9 -23 64 -40 122 -17 58 -42 141 -56 184 -28 92 -29 114
-9 135 58 63 139 164 166 211 18 30 48 72 65 92 47 53 66 94 62 136 -3 34 -8
40 -88 87 -48 27 -99 59 -115 71 -17 11 -61 38 -100 59 -38 21 -87 49 -107 62
-58 36 -97 31 -130 -16z"/>
<path d="M194 586 c-4 -11 52 -226 129 -491 13 -44 44 -58 66 -31 10 12 9 23
-2 58 -8 24 -40 135 -72 248 -31 113 -58 211 -60 218 -6 16 -54 15 -61 -2z"/>
</g>
</svg>
