<?xml version="1.0" standalone="no"?>
<!DOCTYPE svg PUBLIC "-//W3C//DTD SVG 20010904//EN"
 "http://www.w3.org/TR/2001/REC-SVG-20010904/DTD/svg10.dtd">
<svg version="1.0" xmlns="http://www.w3.org/2000/svg"
 width="53.000000pt" height="100.000000pt" viewBox="0 0 53.000000 100.000000"
 preserveAspectRatio="xMidYMid meet">
<metadata>
Created by potrace 1.16, written by Peter Selinger 2001-2019
</metadata>
<g transform="translate(0.000000,100.000000) scale(0.100000,-0.100000)"
fill="#000000" stroke="none">
<path d="M252 913 c-17 -32 -71 -130 -121 -218 -51 -88 -94 -169 -97 -180 -5
-19 45 -193 114 -400 22 -64 31 -80 47 -80 35 0 29 39 -40 240 -65 190 -76
250 -45 250 9 0 45 -77 106 -233 50 -129 98 -241 107 -249 20 -20 51 -9 44 15
-3 9 -53 134 -111 276 -58 143 -106 265 -106 273 0 18 57 130 70 138 13 8 13
1 -2 -82 -11 -67 -11 -69 26 -158 20 -49 71 -175 114 -280 71 -175 79 -190
102 -190 20 0 25 5 24 25 -1 14 -52 140 -114 280 -127 291 -124 274 -74 465
35 130 36 159 7 163 -18 3 -27 -7 -51 -55z"/>
</g>
</svg>
