<?xml version="1.0" standalone="no"?>
<!DOCTYPE svg PUBLIC "-//W3C//DTD SVG 20010904//EN"
 "http://www.w3.org/TR/2001/REC-SVG-20010904/DTD/svg10.dtd">
<svg version="1.0" xmlns="http://www.w3.org/2000/svg"
 width="78.000000pt" height="148.000000pt" viewBox="0 0 78.000000 148.000000"
 preserveAspectRatio="xMidYMid meet">
<metadata>
Created by potrace 1.16, written by Peter Selinger 2001-2019
</metadata>
<g transform="translate(0.000000,148.000000) scale(0.100000,-0.100000)"
fill="#000000" stroke="none">
<path d="M377 1358 c-19 -35 -54 -99 -77 -143 -52 -96 -71 -130 -144 -258 -31
-54 -56 -101 -56 -103 0 -3 -11 -22 -25 -42 -33 -49 -32 -82 9 -205 39 -117
93 -288 126 -397 41 -136 51 -155 81 -155 17 0 25 6 27 21 3 18 -64 232 -172
555 l-32 97 20 41 c11 22 25 41 31 41 6 0 17 -21 24 -47 8 -27 18 -55 22 -63
4 -8 50 -123 102 -255 164 -412 155 -395 194 -395 35 0 38 24 10 88 -14 31
-80 194 -147 362 -66 168 -125 313 -130 322 -6 10 -10 23 -10 30 0 6 -7 19
-16 29 -15 17 -14 22 19 76 19 32 52 91 72 131 37 69 64 97 51 50 -4 -13 -13
-54 -21 -92 -8 -37 -18 -73 -22 -79 -3 -5 -7 -22 -9 -38 -2 -15 -4 -31 -5 -36
-1 -4 6 -26 15 -48 39 -88 259 -613 286 -680 4 -11 14 -35 21 -53 16 -44 35
-62 65 -62 37 0 38 19 4 88 -16 34 -30 64 -30 67 0 2 -14 35 -31 72 -17 38
-37 85 -45 106 -7 20 -20 52 -28 70 -8 17 -40 93 -71 167 -31 74 -65 153 -75
175 -46 102 -46 123 -3 300 13 55 26 113 29 129 4 30 19 80 35 124 5 13 9 34
9 47 0 22 -5 25 -35 25 -32 0 -36 -4 -68 -62z"/>
</g>
</svg>
