<?xml version="1.0" standalone="no"?>
<!DOCTYPE svg PUBLIC "-//W3C//DTD SVG 20010904//EN"
 "http://www.w3.org/TR/2001/REC-SVG-20010904/DTD/svg10.dtd">
<svg version="1.0" xmlns="http://www.w3.org/2000/svg"
 width="308.000000pt" height="590.000000pt" viewBox="0 0 308.000000 590.000000"
 preserveAspectRatio="xMidYMid meet">
<metadata>
Created by potrace 1.16, written by Peter Selinger 2001-2019
</metadata>
<g transform="translate(0.000000,590.000000) scale(0.500000,-0.500000)"
fill="#000000" stroke="none">
<path d="M331 1133 c-11 -5 -13 -7 -20 -21 -4 -8 -10 -18 -13 -22 -3 -4 -24
-43 -46 -88 -22 -44 -42 -84 -46 -88 -3 -4 -12 -21 -21 -39 -9 -18 -18 -35
-20 -38 -3 -3 -10 -16 -16 -28 -6 -13 -14 -26 -16 -30 -3 -3 -11 -17 -17 -30
-7 -13 -14 -25 -16 -28 -2 -2 -11 -19 -20 -37 -9 -17 -19 -35 -22 -39 -23 -26
-24 -62 -4 -109 2 -4 4 -10 4 -12 0 -2 2 -8 4 -12 4 -11 9 -25 13 -39 3 -11 8
-27 12 -37 6 -16 10 -28 11 -39 2 -7 4 -15 5 -19 4 -11 9 -26 12 -37 1 -5 4
-13 6 -17 2 -5 3 -9 3 -11 0 -2 2 -8 4 -12 2 -4 4 -10 4 -13 0 -2 2 -8 4 -12
2 -4 4 -10 4 -12 0 -3 2 -9 4 -13 2 -4 4 -11 4 -15 0 -5 2 -13 4 -18 4 -12 9
-30 16 -52 3 -8 6 -19 8 -25 2 -5 6 -17 8 -25 3 -8 6 -19 8 -24 2 -6 4 -12 4
-14 0 -23 25 -38 50 -30 12 4 15 33 5 56 -3 7 -5 13 -5 15 0 2 -1 6 -3 9 -2 4
-5 11 -6 16 -1 5 -11 33 -21 62 -10 29 -19 58 -20 64 -1 6 -3 14 -4 18 -4 9
-10 25 -13 38 -2 6 -4 12 -5 13 -1 1 -2 6 -4 11 -1 5 -7 23 -13 41 -6 18 -11
34 -11 37 0 3 -3 14 -7 25 -4 11 -8 24 -10 29 -1 5 -4 12 -6 16 -2 5 -3 9 -3
11 0 2 -2 8 -4 12 -2 4 -4 10 -4 12 0 2 -2 7 -4 11 -2 4 -4 11 -5 15 -1 4 -3
10 -4 13 -4 9 -4 10 10 39 19 38 29 43 34 18 1 -4 5 -15 9 -24 4 -9 8 -19 8
-21 0 -2 4 -11 8 -20 4 -9 8 -19 8 -21 0 -2 3 -10 7 -18 3 -8 8 -20 10 -26 2
-7 6 -17 9 -23 3 -7 6 -13 6 -15 0 -2 4 -12 8 -21 8 -17 13 -30 16 -45 2 -4 6
-15 10 -25 5 -9 8 -18 8 -20 0 -2 4 -11 8 -20 4 -9 8 -19 9 -22 1 -4 5 -14 9
-23 4 -10 8 -19 8 -21 0 -2 3 -10 8 -19 4 -9 8 -19 9 -23 1 -4 5 -14 9 -23 5
-9 8 -17 8 -19 0 -5 11 -27 17 -35 3 -3 6 -9 7 -14 1 -4 3 -11 5 -15 1 -4 3
-10 4 -13 8 -36 26 -55 51 -55 28 0 34 5 26 22 -2 5 -4 11 -4 13 0 1 -3 10 -8
19 -4 8 -8 18 -9 22 -1 4 -3 10 -5 14 -2 5 -4 9 -4 11 0 2 -4 11 -8 19 -4 9
-8 17 -8 19 0 2 -4 13 -9 23 -5 10 -9 21 -9 23 0 1 -3 10 -8 19 -4 8 -8 18 -9
22 -1 4 -3 10 -5 14 -2 4 -4 9 -4 11 0 3 -4 12 -8 21 -4 9 -9 19 -9 22 -1 4
-5 14 -9 22 -4 8 -8 18 -9 22 -1 3 -5 13 -9 22 -4 9 -8 17 -8 19 0 2 -4 10 -8
19 -7 16 -11 26 -17 46 -1 5 -6 16 -10 23 -4 8 -7 17 -7 19 0 2 -3 10 -8 19
-4 9 -8 19 -9 23 -1 4 -5 14 -9 23 -5 9 -8 18 -8 20 0 2 -2 8 -4 13 -2 5 -4
10 -4 12 0 1 -4 11 -8 20 -4 9 -9 21 -10 25 -1 5 -6 13 -10 18 -11 12 -10 21
5 38 2 3 10 17 17 30 6 13 13 25 15 27 2 2 11 18 20 37 10 19 20 37 24 41 3 4
8 11 10 14 2 4 5 7 7 8 3 1 3 -20 -1 -25 -2 -3 -3 -10 -4 -16 -1 -7 -3 -16 -5
-21 -2 -6 -4 -15 -4 -21 0 -8 -2 -15 -4 -21 -2 -5 -4 -11 -4 -15 0 -4 -2 -11
-4 -17 -2 -6 -4 -15 -4 -21 0 -6 -2 -15 -4 -21 -5 -14 -5 -15 5 -30 10 -16 16
-29 24 -58 1 -5 7 -19 14 -31 6 -13 11 -26 12 -29 1 -4 5 -14 9 -23 5 -9 8
-18 8 -20 0 -2 5 -14 12 -28 6 -13 12 -27 13 -30 1 -3 7 -17 13 -30 7 -14 12
-27 12 -29 0 -2 3 -10 8 -19 4 -9 8 -19 9 -23 1 -4 7 -18 13 -31 7 -14 12 -26
12 -29 0 -2 4 -11 8 -20 4 -9 8 -19 8 -21 0 -2 4 -12 8 -21 12 -24 16 -34 16
-38 0 -2 5 -14 12 -28 7 -14 12 -27 12 -29 0 -2 3 -11 8 -20 4 -9 8 -19 9 -23
1 -8 11 -29 23 -52 7 -14 14 -17 36 -16 31 2 32 16 3 75 -7 15 -13 28 -13 30
0 2 -3 10 -7 17 -4 7 -8 17 -9 22 -1 5 -7 18 -12 28 -6 11 -11 25 -13 31 -1 5
-8 20 -14 33 -6 12 -11 24 -11 26 0 2 -3 11 -8 20 -4 8 -8 18 -9 22 0 4 -6 17
-12 30 -6 12 -12 25 -12 29 -1 3 -5 13 -9 22 -5 9 -8 18 -8 20 0 2 -6 16 -13
30 -7 14 -13 28 -13 30 0 2 -5 15 -12 28 -7 13 -13 27 -13 31 -1 4 -5 13 -9
21 -4 8 -8 17 -9 21 0 4 -6 18 -13 30 -7 15 -12 26 -12 30 0 4 -2 11 -3 15
-16 43 -18 57 -11 74 2 6 4 17 5 25 1 8 3 17 4 19 2 3 4 11 5 18 1 7 3 15 5
19 2 3 3 9 3 13 0 5 2 12 4 17 2 4 4 15 5 24 1 8 3 18 5 22 2 5 4 11 4 15 0 5
2 12 4 17 2 5 4 13 4 18 0 5 2 13 3 17 2 4 4 13 5 18 1 6 4 15 6 20 2 6 4 16
5 23 1 12 3 19 13 44 16 41 -10 64 -49 43z"/>
</g>
</svg>
