<?xml version="1.0" standalone="no"?>
<!DOCTYPE svg PUBLIC "-//W3C//DTD SVG 20010904//EN"
 "http://www.w3.org/TR/2001/REC-SVG-20010904/DTD/svg10.dtd">
<svg version="1.0" xmlns="http://www.w3.org/2000/svg"
 width="78.000000pt" height="148.000000pt" viewBox="0 0 78.000000 148.000000"
 preserveAspectRatio="xMidYMid meet">
<metadata>
Created by potrace 1.16, written by Peter Selinger 2001-2019
</metadata>
<g transform="translate(0.000000,148.000000) scale(0.100000,-0.100000)"
fill="#000000" stroke="none">
<path d="M552 1407 c-13 -15 -410 -671 -428 -707 -7 -14 -17 -86 -23 -160 -6
-74 -20 -211 -30 -304 -11 -93 -18 -173 -15 -178 8 -12 50 -9 61 5 10 12 40
288 53 483 3 55 9 104 12 110 50 90 246 414 258 429 10 11 44 66 75 123 56
101 69 114 93 90 19 -19 14 -44 -18 -107 -16 -33 -38 -81 -49 -108 -61 -155
-145 -329 -192 -401 -54 -81 -55 -85 -48 -130 4 -26 20 -139 34 -252 30 -239
34 -253 73 -248 26 3 27 6 26 53 -1 28 -9 84 -18 125 -19 90 -33 188 -41 291
-6 65 -4 78 13 99 l19 24 12 -22 c6 -12 20 -61 30 -109 24 -113 90 -403 97
-426 4 -14 14 -17 37 -15 29 3 32 6 30 33 -1 17 -6 50 -13 75 -6 25 -15 63
-20 85 -4 22 -31 130 -59 240 -54 215 -56 226 -41 253 5 9 28 62 51 117 23 55
49 118 59 140 10 22 34 81 55 130 21 50 42 94 46 100 12 12 11 52 -1 75 -5 10
-24 27 -42 38 -18 12 -45 30 -59 41 -21 17 -29 18 -37 8z"/>
<path d="M222 562 c-9 -7 -12 -65 -10 -258 l3 -249 30 0 30 0 3 115 c1 63 -1
178 -5 255 -7 112 -11 140 -23 142 -8 2 -21 -1 -28 -5z"/>
</g>
</svg>
