<?xml version="1.0" standalone="no"?>
<!DOCTYPE svg PUBLIC "-//W3C//DTD SVG 20010904//EN"
 "http://www.w3.org/TR/2001/REC-SVG-20010904/DTD/svg10.dtd">
<svg version="1.0" xmlns="http://www.w3.org/2000/svg"
 width="308.000000pt" height="590.000000pt" viewBox="0 0 308.000000 590.000000"
 preserveAspectRatio="xMidYMid meet">
<metadata>
Created by potrace 1.16, written by Peter Selinger 2001-2019
</metadata>
<g transform="translate(0.000000,590.000000) scale(0.500000,-0.500000)"
fill="#000000" stroke="none">
<path d="M438 1125 c-7 -4 -21 -25 -58 -89 -10 -18 -33 -57 -51 -87 -60 -100
-118 -198 -145 -243 -15 -25 -37 -63 -50 -84 -12 -21 -25 -42 -28 -46 -12 -15
-17 -39 -17 -82 0 -39 -13 -162 -18 -177 -2 -5 -3 -16 -3 -34 0 -14 -1 -30 -2
-34 -5 -21 -10 -47 -10 -54 0 -4 -2 -38 -5 -74 -7 -77 -8 -72 17 -73 34 -1 35
0 38 44 1 17 3 32 3 34 0 2 2 17 3 33 1 17 3 37 4 45 1 8 3 30 5 49 2 19 4 45
6 58 2 13 3 27 3 31 0 4 2 13 4 19 4 13 7 63 6 103 -1 41 9 69 41 120 12 20
60 101 127 214 18 30 36 59 41 64 5 5 13 17 19 27 6 10 13 21 16 25 3 4 7 11
9 16 2 5 8 17 14 27 6 10 18 32 28 48 26 44 27 45 45 30 14 -13 14 -17 -4 -59
-8 -18 -16 -37 -18 -43 -2 -5 -8 -17 -12 -26 -4 -9 -9 -21 -12 -28 -8 -22 -38
-91 -42 -97 -2 -4 -4 -9 -5 -12 -2 -9 -11 -31 -17 -41 -2 -5 -8 -19 -12 -29
-33 -83 -41 -98 -66 -128 -3 -4 -12 -18 -19 -31 -7 -13 -15 -26 -18 -29 -3 -4
-5 -7 -5 -8 0 -1 -4 -6 -8 -11 -10 -11 -10 -14 -4 -47 6 -34 12 -73 13 -86 1
-6 3 -22 5 -35 2 -13 4 -33 4 -43 0 -15 1 -22 4 -30 2 -6 4 -13 4 -17 0 -4 1
-14 3 -22 2 -9 4 -29 5 -44 1 -15 3 -34 5 -41 2 -7 4 -25 6 -39 5 -41 7 -42
40 -41 25 1 26 3 23 29 -1 10 -2 25 -2 32 0 10 -1 15 -5 23 -5 10 -11 40 -15
81 -1 10 -4 23 -6 30 -2 7 -5 22 -7 35 -3 20 -4 32 -11 75 -1 6 -2 25 -2 44 0
25 -1 35 -3 39 -9 15 -2 43 14 62 14 15 27 -3 32 -45 1 -5 3 -15 5 -22 8 -25
12 -42 13 -53 1 -6 3 -16 5 -23 4 -14 12 -45 24 -99 3 -15 7 -33 9 -40 2 -7 6
-27 10 -45 4 -18 9 -40 11 -50 2 -10 6 -25 7 -34 7 -32 26 -41 55 -25 13 8 13
9 3 51 -4 15 -7 32 -7 38 0 5 -2 13 -4 18 -7 16 -12 34 -15 56 -2 18 -4 25 -9
36 -3 7 -6 14 -6 15 0 2 -4 20 -9 40 -5 20 -11 45 -13 54 -3 9 -6 23 -7 30 -2
7 -5 21 -8 31 -5 17 -14 57 -17 78 -1 6 -4 17 -6 25 -14 52 -14 56 -2 73 4 5
7 14 9 21 2 7 8 24 15 37 13 26 22 46 30 69 3 8 9 23 13 32 4 9 11 26 16 38
10 24 74 175 82 193 13 28 13 40 -1 64 -7 13 -9 14 -32 27 -10 6 -26 16 -34
23 -26 21 -31 23 -44 14z"/>
<path d="M186 455 c-8 -2 -16 -4 -18 -6 -3 -3 -3 -4 -1 -92 1 -40 2 -80 2 -90
0 -10 -1 -22 -1 -27 -2 -166 2 -191 31 -191 29 0 28 -1 27 39 0 17 -1 73 -2
124 -1 51 -3 100 -4 109 -1 9 -2 39 -2 67 0 61 -3 72 -16 70 0 0 -8 -2 -16 -3z"/>
</g>
</svg>
