<?xml version="1.0" standalone="no"?>
<!DOCTYPE svg PUBLIC "-//W3C//DTD SVG 20010904//EN"
 "http://www.w3.org/TR/2001/REC-SVG-20010904/DTD/svg10.dtd">
<svg version="1.0" xmlns="http://www.w3.org/2000/svg"
 width="80.000000pt" height="148.000000pt" viewBox="0 0 80.000000 148.000000"
 preserveAspectRatio="xMidYMid meet">
<metadata>
Created by potrace 1.16, written by Peter Selinger 2001-2019
</metadata>
<g transform="translate(0.000000,148.000000) scale(0.100000,-0.100000)"
fill="#000000" stroke="none">
<path d="M213 1097 l-162 -324 14 -159 c8 -87 21 -244 30 -349 9 -104 18 -196
20 -203 3 -8 16 -12 32 -10 l28 3 -2 95 c0 52 -6 140 -12 195 -21 205 -34 346
-34 383 0 27 23 82 81 197 44 88 85 171 91 185 6 14 15 32 20 40 6 8 28 54 51
102 22 48 44 89 48 92 13 8 82 -26 82 -41 0 -14 -28 -77 -90 -208 -16 -33 -59
-134 -95 -225 -37 -91 -71 -170 -76 -176 -6 -7 -1 -96 11 -230 11 -120 22
-257 26 -304 6 -94 15 -112 53 -108 31 4 31 -15 2 258 -22 218 -27 359 -12
388 5 9 24 53 42 97 18 44 54 132 81 195 27 63 65 154 85 203 19 48 41 87 48
87 24 0 86 -31 91 -45 4 -8 -12 -52 -34 -97 -22 -46 -91 -186 -152 -313 l-111
-230 11 -110 c7 -60 14 -114 17 -119 3 -5 10 -52 14 -105 17 -184 24 -211 55
-211 16 0 46 29 40 39 -3 4 -19 99 -35 212 -17 112 -34 221 -37 241 -7 39 7
68 30 68 11 0 117 -357 138 -464 13 -67 34 -96 69 -96 36 0 38 19 10 99 -11
31 -38 121 -61 201 -23 80 -56 188 -73 240 -17 52 -30 108 -29 123 2 16 17 54
33 85 16 31 29 61 29 66 0 5 40 90 90 188 49 98 90 187 90 197 0 10 -7 24 -15
31 -30 25 -310 140 -340 140 -30 0 -33 -5 -192 -323z"/>
</g>
</svg>
