<?xml version="1.0" standalone="no"?>
<!DOCTYPE svg PUBLIC "-//W3C//DTD SVG 20010904//EN"
 "http://www.w3.org/TR/2001/REC-SVG-20010904/DTD/svg10.dtd">
<svg version="1.0" xmlns="http://www.w3.org/2000/svg"
 width="54.000000pt" height="100.000000pt" viewBox="0 0 54.000000 100.000000"
 preserveAspectRatio="xMidYMid meet">
<metadata>
Created by potrace 1.16, written by Peter Selinger 2001-2019
</metadata>
<g transform="translate(0.000000,100.000000) scale(0.100000,-0.100000)"
fill="#000000" stroke="none">
<path d="M234 933 c-8 -16 -57 -115 -109 -220 l-95 -193 21 -232 c11 -128 22
-239 24 -246 3 -7 15 -12 27 -10 28 4 28 2 4 278 l-19 205 97 193 c77 154 100
192 116 192 33 0 34 -25 1 -97 -65 -144 -149 -356 -146 -367 2 -6 11 -96 20
-201 9 -104 19 -193 22 -197 6 -12 31 -10 38 3 4 5 -1 96 -10 202 l-18 192 26
65 c50 128 144 350 150 356 8 9 67 -16 67 -27 0 -5 -25 -58 -55 -118 -30 -60
-75 -155 -100 -211 l-46 -102 17 -147 c20 -178 30 -221 50 -221 27 0 28 32 6
169 -24 147 -28 211 -12 211 11 0 28 -55 71 -229 17 -69 36 -132 41 -138 13
-16 44 -17 53 -3 4 6 -24 107 -61 225 l-67 214 82 172 c44 94 81 179 81 189 0
25 -26 44 -119 84 -104 44 -136 46 -157 9z"/>
</g>
</svg>
