<?xml version="1.0" standalone="no"?>
<!DOCTYPE svg PUBLIC "-//W3C//DTD SVG 20010904//EN"
 "http://www.w3.org/TR/2001/REC-SVG-20010904/DTD/svg10.dtd">
<svg version="1.0" xmlns="http://www.w3.org/2000/svg"
 width="322.000000pt" height="590.000000pt" viewBox="0 0 322.000000 590.000000"
 preserveAspectRatio="xMidYMid meet">
<metadata>
Created by potrace 1.16, written by Peter Selinger 2001-2019
</metadata>
<g transform="translate(0.000000,590.000000) scale(0.500000,-0.500000)"
fill="#000000" stroke="none">
<path d="M303 1133 c-3 -3 -52 -99 -109 -215 -58 -115 -109 -216 -115 -225 -6
-9 -12 -20 -13 -26 -1 -7 -5 -14 -11 -21 -14 -17 -14 -17 -9 -58 2 -21 4 -42
4 -47 0 -6 2 -25 4 -44 5 -43 12 -119 14 -156 1 -16 2 -30 3 -31 0 -1 2 -20 4
-43 2 -23 4 -49 5 -58 1 -9 3 -32 4 -51 1 -19 3 -43 4 -53 1 -10 3 -25 3 -34
2 -22 3 -23 31 -23 29 0 31 2 29 24 0 8 -2 41 -4 72 -3 55 -3 57 -9 68 -5 10
-5 13 -7 46 0 19 -3 51 -5 71 -2 20 -4 50 -5 66 0 17 -2 33 -3 36 -3 8 -13
138 -12 165 0 14 1 16 16 47 9 17 30 58 45 90 41 83 47 93 54 102 4 4 8 11 9
16 5 19 24 59 32 66 6 5 9 12 11 22 2 10 9 27 17 37 3 5 6 11 7 14 1 3 5 8 8
12 6 6 8 11 10 21 10 47 24 56 60 41 36 -15 35 -22 -7 -109 -7 -13 -12 -27
-13 -30 -2 -9 -28 -61 -36 -70 -5 -7 -7 -11 -8 -23 -1 -12 -3 -16 -10 -27 -5
-8 -9 -15 -9 -17 0 -5 -7 -24 -16 -42 -4 -9 -8 -20 -9 -24 -1 -3 -5 -13 -8
-22 -4 -8 -11 -24 -15 -35 -15 -41 -40 -96 -51 -116 -4 -6 -4 -20 1 -62 2 -20
5 -47 6 -60 1 -13 3 -38 5 -56 1 -18 4 -54 6 -82 2 -27 4 -54 5 -58 4 -16 8
-66 8 -90 0 -15 1 -29 2 -33 1 -4 3 -17 4 -29 3 -29 4 -31 31 -31 31 0 32 3
23 71 -2 17 -5 42 -6 56 -1 14 -3 31 -4 38 -1 6 -3 23 -4 37 -1 14 -4 42 -6
63 -17 169 -18 219 -3 243 4 6 8 16 9 21 2 11 12 36 39 98 25 57 39 89 72 167
83 195 76 179 85 180 40 3 84 -39 68 -65 -3 -5 -6 -11 -7 -14 -1 -3 -4 -9 -8
-15 -4 -6 -8 -13 -8 -16 -1 -3 -5 -12 -10 -20 -5 -8 -11 -22 -15 -30 -3 -8
-32 -68 -64 -132 -143 -289 -125 -250 -121 -276 2 -10 3 -25 3 -32 0 -7 1 -18
3 -23 4 -12 8 -54 7 -75 0 -14 3 -30 12 -48 2 -5 3 -14 3 -29 0 -12 2 -29 3
-38 1 -8 2 -26 2 -40 0 -21 1 -25 5 -35 4 -7 6 -20 10 -43 6 -45 8 -46 39 -41
23 3 26 10 19 45 -2 9 -4 23 -5 31 -1 8 -4 25 -6 38 -4 26 -11 71 -13 83 0 4
-3 20 -5 34 -2 14 -6 42 -9 62 -3 20 -7 48 -9 63 -8 53 -8 59 0 71 16 22 33 2
39 -46 1 -6 5 -18 8 -27 4 -10 7 -21 8 -25 1 -5 5 -21 10 -36 5 -15 11 -37 14
-47 3 -10 9 -29 12 -41 4 -12 7 -23 7 -25 0 -2 2 -9 4 -16 2 -7 5 -18 7 -25 1
-7 5 -17 7 -24 2 -7 5 -20 6 -29 7 -64 26 -91 63 -90 30 2 30 0 7 75 -10 32
-22 72 -27 90 -8 28 -20 65 -31 102 -2 7 -6 21 -9 31 -3 10 -7 23 -8 28 -2 5
-5 15 -7 24 -2 8 -8 28 -14 44 -5 16 -15 46 -21 67 -6 21 -12 39 -13 41 -4 7
2 42 8 52 3 5 6 11 6 12 0 2 2 6 4 9 2 4 4 9 5 13 2 9 10 26 17 33 3 4 6 11 8
16 1 6 4 15 6 21 2 6 4 14 5 19 1 4 5 11 9 17 8 10 23 38 76 147 16 33 33 66
38 73 29 43 15 66 -58 94 -14 5 -33 14 -44 19 -10 5 -28 13 -39 17 -34 13 -51
20 -83 34 -38 17 -66 20 -77 9z"/>
</g>
</svg>
