<?xml version="1.0" standalone="no"?>
<!DOCTYPE svg PUBLIC "-//W3C//DTD SVG 20010904//EN"
 "http://www.w3.org/TR/2001/REC-SVG-20010904/DTD/svg10.dtd">
<svg version="1.0" xmlns="http://www.w3.org/2000/svg"
 width="94.000000pt" height="148.000000pt" viewBox="0 0 94.000000 148.000000"
 preserveAspectRatio="xMidYMid meet">
<metadata>
Created by potrace 1.16, written by Peter Selinger 2001-2019
</metadata>
<g transform="translate(0.000000,148.000000) scale(0.100000,-0.100000)"
fill="#000000" stroke="none">
<path d="M456 1404 c-3 -8 -44 -79 -89 -157 -46 -78 -136 -231 -201 -341
l-116 -198 0 -76 c0 -74 16 -140 80 -332 10 -30 30 -95 45 -145 28 -94 36
-105 73 -105 28 0 38 24 23 53 -13 25 -98 284 -111 337 -5 19 -20 66 -34 103
-28 73 -32 107 -16 138 14 25 24 24 38 -3 23 -47 255 -564 264 -591 12 -32 53
-47 74 -25 14 14 -41 139 -267 605 -27 56 -49 105 -49 109 0 3 35 65 78 137
43 73 119 201 168 284 54 92 95 153 105 153 8 0 23 -6 34 -13 17 -13 12 -23
-72 -158 -49 -79 -118 -190 -152 -246 -34 -56 -68 -107 -76 -113 -8 -7 -15
-17 -15 -23 0 -10 61 -118 215 -382 101 -172 150 -263 160 -293 9 -30 48 -72
67 -72 8 0 22 8 31 18 15 17 15 20 0 42 -63 90 -394 667 -390 681 9 32 299
499 311 499 7 0 21 -7 32 -15 23 -17 38 10 -173 -331 -51 -83 -93 -160 -93
-172 0 -19 74 -150 138 -246 15 -21 31 -47 37 -57 5 -10 56 -92 111 -181 56
-90 109 -177 118 -195 16 -32 47 -50 66 -38 16 10 12 60 -8 86 -10 13 -49 74
-86 134 -95 153 -151 242 -235 372 -39 62 -71 118 -71 124 0 9 213 355 280
454 34 50 26 74 -32 100 -23 10 -71 35 -108 56 -74 43 -142 53 -154 23z"/>
</g>
</svg>
