<?xml version="1.0" standalone="no"?>
<!DOCTYPE svg PUBLIC "-//W3C//DTD SVG 20010904//EN"
 "http://www.w3.org/TR/2001/REC-SVG-20010904/DTD/svg10.dtd">
<svg version="1.0" xmlns="http://www.w3.org/2000/svg"
 width="64.000000pt" height="100.000000pt" viewBox="0 0 64.000000 100.000000"
 preserveAspectRatio="xMidYMid meet">
<metadata>
Created by potrace 1.16, written by Peter Selinger 2001-2019
</metadata>
<g transform="translate(0.000000,100.000000) scale(0.100000,-0.100000)"
fill="#000000" stroke="none">
<path d="M308 943 c-15 -19 -232 -383 -262 -440 -26 -52 -19 -110 34 -284 52
-167 66 -196 94 -186 25 10 20 34 -35 189 -28 78 -55 156 -60 173 -9 30 -4 65
10 65 9 0 78 -144 141 -295 23 -55 50 -108 59 -118 18 -19 51 -14 51 7 0 7
-50 115 -110 240 l-110 226 16 33 c37 71 196 336 209 347 18 15 38 3 32 -20
-3 -10 -51 -91 -107 -181 l-102 -162 22 -46 c12 -25 61 -113 110 -196 48 -82
99 -173 113 -201 14 -28 32 -54 39 -56 20 -7 38 2 38 19 0 8 -56 108 -124 221
-163 273 -150 245 -127 289 58 109 180 288 196 288 10 0 20 -5 22 -11 2 -5
-31 -63 -72 -128 -92 -144 -105 -168 -105 -199 0 -13 28 -68 63 -123 35 -54
98 -156 141 -226 43 -71 82 -131 87 -134 16 -10 40 17 33 38 -3 11 -66 114
-140 229 -74 115 -134 214 -134 220 0 7 40 75 89 153 114 181 115 184 101 201
-17 20 -151 85 -176 85 -12 0 -28 -8 -36 -17z"/>
</g>
</svg>
