<?xml version="1.0" standalone="no"?>
<!DOCTYPE svg PUBLIC "-//W3C//DTD SVG 20010904//EN"
 "http://www.w3.org/TR/2001/REC-SVG-20010904/DTD/svg10.dtd">
<svg version="1.0" xmlns="http://www.w3.org/2000/svg"
 width="378.000000pt" height="590.000000pt" viewBox="0 0 378.000000 590.000000"
 preserveAspectRatio="xMidYMid meet">
<metadata>
Created by potrace 1.16, written by Peter Selinger 2001-2019
</metadata>
<g transform="translate(0.000000,590.000000) scale(0.500000,-0.500000)"
fill="#000000" stroke="none">
<path d="M390 1136 c-13 -2 -14 -3 -30 -31 -8 -13 -28 -47 -45 -75 -17 -28
-33 -55 -36 -61 -3 -5 -8 -13 -11 -17 -3 -4 -8 -11 -10 -17 -4 -9 -78 -137
-82 -142 -1 -1 -9 -15 -19 -31 -9 -16 -22 -39 -29 -51 -7 -12 -20 -34 -29 -49
-8 -15 -20 -32 -25 -39 -5 -7 -11 -18 -14 -25 -3 -7 -8 -17 -12 -23 -6 -10 -6
-10 -6 -68 l0 -57 23 -75 c13 -41 25 -80 27 -87 3 -7 6 -18 8 -25 2 -7 10 -31
17 -54 7 -23 17 -53 21 -67 26 -92 27 -95 60 -95 33 0 36 5 21 43 -6 15 -11
30 -28 83 -2 6 -7 24 -12 40 -5 17 -11 35 -14 41 -3 6 -6 16 -8 21 -1 6 -5 18
-9 27 -10 27 -15 48 -17 62 0 8 -2 14 -5 18 -6 8 -12 21 -14 31 -1 4 -4 15 -8
24 -17 48 -16 44 -17 70 0 22 1 25 5 34 15 28 20 23 48 -41 5 -10 13 -28 18
-39 5 -11 14 -29 19 -41 5 -12 15 -34 23 -49 7 -15 16 -36 20 -45 4 -9 12 -26
16 -36 5 -10 12 -25 15 -32 3 -7 11 -24 17 -38 6 -14 16 -35 22 -48 6 -13 13
-28 15 -34 3 -6 11 -23 17 -38 24 -54 23 -52 49 -52 41 0 40 9 -9 106 -15 29
-102 213 -102 215 0 1 -8 19 -19 40 -16 32 -52 109 -82 174 -4 8 -10 18 -13
22 -10 12 -11 10 30 76 9 15 21 35 26 45 5 9 14 23 20 30 6 8 12 19 14 25 2 6
7 15 11 20 4 6 9 15 12 21 10 19 99 169 106 176 2 3 8 12 12 21 4 8 9 19 13
23 3 4 8 12 11 17 10 21 16 23 38 11 22 -12 24 -6 -32 -98 -22 -34 -48 -76
-58 -93 -129 -211 -132 -216 -146 -226 -16 -12 -16 -10 19 -69 11 -18 23 -39
28 -48 5 -9 12 -21 15 -27 17 -27 36 -60 38 -65 2 -3 6 -11 11 -17 4 -7 14
-24 22 -38 15 -25 35 -59 73 -124 30 -51 45 -77 49 -86 2 -4 7 -13 11 -19 4
-5 9 -15 11 -21 2 -7 6 -14 8 -17 2 -3 6 -14 10 -26 6 -20 7 -21 15 -26 5 -3
10 -7 11 -11 9 -21 63 -12 62 11 0 4 -24 47 -85 148 -46 77 -102 170 -123 206
-21 36 -54 92 -74 124 -43 72 -45 75 -43 83 1 6 31 56 136 224 16 25 42 67 58
93 53 86 53 86 79 70 16 -10 14 -28 -5 -51 -3 -3 -7 -9 -9 -14 -3 -4 -7 -11
-11 -15 -4 -4 -13 -19 -20 -33 -13 -25 -20 -38 -44 -74 -6 -9 -19 -31 -30 -49
-11 -18 -24 -39 -29 -46 -5 -7 -12 -18 -15 -24 -3 -6 -9 -14 -13 -19 -4 -4 -9
-12 -11 -17 -1 -5 -7 -15 -11 -22 -6 -10 -9 -17 -10 -26 -1 -7 -2 -14 -3 -16
-1 -4 1 -10 14 -31 5 -8 9 -17 11 -21 1 -4 4 -9 6 -12 9 -9 34 -48 38 -59 2
-6 8 -16 13 -22 5 -6 9 -14 11 -20 1 -6 4 -10 8 -13 10 -8 31 -41 35 -55 1 -3
5 -9 9 -14 7 -8 15 -20 24 -36 3 -4 8 -13 13 -20 5 -7 15 -23 23 -36 8 -13 17
-28 21 -33 4 -5 9 -13 11 -18 3 -5 8 -14 12 -20 15 -22 30 -46 45 -71 9 -14
17 -28 19 -31 2 -3 7 -12 11 -20 11 -21 20 -30 31 -32 40 -8 50 19 22 63 -11
18 -86 136 -117 184 -4 8 -27 43 -49 78 -53 84 -89 140 -124 194 -29 46 -31
51 -26 62 2 3 22 34 72 112 6 10 35 55 63 100 28 44 63 99 77 121 37 57 36 53
24 73 -4 8 -8 12 -14 14 -18 8 -94 47 -107 55 -48 29 -76 37 -109 32z"/>
</g>
</svg>
