<?xml version="1.0" standalone="no"?>
<!DOCTYPE svg PUBLIC "-//W3C//DTD SVG 20010904//EN"
 "http://www.w3.org/TR/2001/REC-SVG-20010904/DTD/svg10.dtd">
<svg version="1.0" xmlns="http://www.w3.org/2000/svg"
 width="66.000000pt" height="100.000000pt" viewBox="0 0 66.000000 100.000000"
 preserveAspectRatio="xMidYMid meet">
<metadata>
Created by potrace 1.16, written by Peter Selinger 2001-2019
</metadata>
<g transform="translate(0.000000,100.000000) scale(0.100000,-0.100000)"
fill="#000000" stroke="none">
<path d="M228 957 c-9 -6 -42 -79 -73 -162 -31 -82 -72 -190 -91 -239 -19 -49
-34 -100 -34 -113 0 -25 169 -362 198 -395 20 -23 52 -23 52 0 0 9 -43 96 -95
194 -52 97 -95 187 -95 200 0 25 155 446 170 462 12 12 60 -2 66 -19 4 -8 -10
-54 -29 -102 -20 -49 -57 -148 -82 -220 l-47 -133 100 -192 c99 -192 121 -223
143 -201 8 8 -17 64 -93 211 -94 184 -102 202 -87 217 14 15 22 3 97 -137 44
-84 97 -186 117 -226 26 -51 41 -72 55 -72 34 0 31 18 -13 97 -105 188 -217
403 -217 420 0 27 103 302 115 306 13 6 124 -28 137 -41 5 -5 -21 -82 -63
-186 -67 -165 -72 -181 -62 -216 5 -21 52 -115 103 -209 68 -125 98 -171 112
-171 35 0 18 49 -78 220 l-97 170 18 48 c10 26 44 110 77 186 32 76 58 151 58
166 0 25 -8 30 -147 82 -179 67 -195 71 -215 55z"/>
</g>
</svg>
