<?xml version="1.0" standalone="no"?>
<!DOCTYPE svg PUBLIC "-//W3C//DTD SVG 20010904//EN"
 "http://www.w3.org/TR/2001/REC-SVG-20010904/DTD/svg10.dtd">
<svg version="1.0" xmlns="http://www.w3.org/2000/svg"
 width="98.000000pt" height="148.000000pt" viewBox="0 0 98.000000 148.000000"
 preserveAspectRatio="xMidYMid meet">
<metadata>
Created by potrace 1.16, written by Peter Selinger 2001-2019
</metadata>
<g transform="translate(0.000000,148.000000) scale(0.100000,-0.100000)"
fill="#000000" stroke="none">
<path d="M323 1393 c-21 -50 -24 -59 -72 -188 -23 -60 -48 -123 -56 -138 -8
-16 -15 -35 -15 -43 0 -9 -11 -39 -24 -67 -13 -29 -33 -77 -44 -107 -11 -30
-32 -85 -46 -123 -27 -71 -31 -97 -17 -112 4 -6 30 -50 56 -100 27 -49 62
-115 78 -145 16 -30 43 -82 60 -115 110 -222 99 -205 134 -205 17 0 34 4 38 9
3 5 -10 36 -28 68 -19 32 -65 116 -102 188 -37 72 -81 149 -96 172 -16 23 -29
44 -29 47 0 3 -12 31 -26 62 l-26 57 37 96 c20 53 50 130 65 171 16 41 61 159
101 261 l73 185 33 -11 c19 -7 46 -21 60 -32 l27 -19 -18 -50 c-21 -56 -53
-131 -67 -156 -5 -10 -9 -23 -9 -30 0 -7 -7 -26 -15 -41 -8 -15 -19 -42 -24
-60 -20 -71 -102 -291 -112 -303 -8 -10 16 -64 98 -221 60 -114 130 -248 155
-298 42 -81 49 -90 77 -93 19 -2 31 1 31 9 0 6 -22 53 -49 103 -27 50 -94 179
-149 287 -96 187 -100 199 -91 233 5 20 15 36 22 36 7 0 30 -35 51 -77 34 -71
206 -393 241 -453 8 -14 27 -51 41 -82 25 -54 29 -58 60 -58 39 0 42 10 16 48
-22 31 -73 126 -167 307 -37 72 -76 144 -85 160 -10 17 -43 78 -74 137 l-57
107 20 48 c10 26 38 98 61 158 23 61 46 118 51 127 5 10 9 22 9 27 0 6 9 35
21 65 l20 55 52 -18 c29 -10 80 -27 115 -37 61 -18 63 -20 59 -49 -3 -16 -28
-84 -57 -150 -28 -66 -55 -131 -59 -145 -5 -14 -20 -51 -35 -83 -14 -32 -26
-62 -26 -68 0 -5 -9 -29 -20 -51 -11 -23 -20 -48 -20 -55 0 -7 28 -63 61 -125
88 -162 199 -366 225 -413 15 -28 29 -41 48 -43 36 -5 41 18 15 64 -12 22 -31
55 -42 74 -26 46 -53 95 -112 205 -27 50 -66 121 -87 159 l-39 69 36 86 c118
283 206 513 201 526 -3 9 -11 17 -18 19 -37 12 -258 93 -356 132 -141 55 -157
56 -179 7z"/>
</g>
</svg>
