<?xml version="1.0" standalone="no"?>
<!DOCTYPE svg PUBLIC "-//W3C//DTD SVG 20010904//EN"
 "http://www.w3.org/TR/2001/REC-SVG-20010904/DTD/svg10.dtd">
<svg version="1.0" xmlns="http://www.w3.org/2000/svg"
 width="394.000000pt" height="590.000000pt" viewBox="0 0 394.000000 590.000000"
 preserveAspectRatio="xMidYMid meet">
<metadata>
Created by potrace 1.16, written by Peter Selinger 2001-2019
</metadata>
<g transform="translate(0.000000,590.000000) scale(0.500000,-0.500000)"
fill="#000000" stroke="none">
<path d="M274 1139 c-7 -6 -12 -16 -20 -41 -3 -10 -8 -24 -11 -29 -3 -6 -8
-20 -12 -31 -4 -12 -9 -27 -13 -34 -3 -7 -6 -14 -6 -16 0 -1 -3 -8 -6 -16 -4
-7 -9 -22 -13 -33 -4 -11 -9 -25 -12 -31 -3 -5 -6 -13 -7 -17 -4 -16 -10 -31
-15 -37 -8 -12 -13 -23 -14 -37 -1 -11 -3 -16 -7 -23 -4 -5 -7 -12 -8 -19 -1
-11 -7 -23 -16 -36 -3 -4 -6 -9 -6 -11 0 -5 -10 -33 -19 -52 -6 -11 -10 -23
-11 -30 -1 -7 -3 -13 -4 -15 -1 -1 -2 -5 -3 -9 -1 -4 -5 -14 -8 -22 -4 -8 -7
-16 -7 -18 0 -1 -5 -13 -11 -25 -15 -31 -16 -52 -3 -65 4 -4 12 -16 20 -33 7
-14 14 -28 17 -31 6 -7 12 -20 15 -31 1 -5 3 -10 5 -11 2 -2 7 -10 11 -18 4
-8 10 -18 13 -21 2 -3 14 -25 26 -48 11 -23 24 -47 27 -52 9 -12 44 -83 44
-88 0 -2 3 -9 6 -17 4 -7 8 -17 9 -21 2 -8 9 -19 23 -38 3 -4 9 -14 13 -22 13
-25 59 -31 66 -9 2 5 -25 61 -35 74 -3 4 -13 22 -23 41 -9 19 -20 38 -23 42
-3 4 -6 9 -6 12 0 5 -23 52 -30 61 -3 4 -12 19 -19 34 -7 15 -16 30 -19 34 -2
3 -8 12 -12 20 -3 7 -10 17 -14 21 -7 8 -24 39 -27 50 0 3 -7 18 -15 34 -23
48 -23 50 -7 87 7 15 12 30 15 41 1 3 4 12 7 19 7 14 12 29 15 40 1 4 5 13 8
20 4 7 7 16 8 19 3 11 8 26 15 41 4 8 7 17 8 20 1 3 4 11 7 18 4 7 7 16 8 19
4 14 9 27 15 41 4 8 7 16 7 17 0 2 3 10 7 18 4 9 8 18 8 21 1 3 5 12 8 20 4 8
7 16 7 17 0 1 3 9 7 18 9 22 19 47 22 54 1 3 5 13 8 22 4 9 7 18 8 21 10 34
23 45 42 33 4 -3 12 -6 18 -7 5 -1 13 -4 18 -7 4 -3 11 -8 16 -11 17 -11 16
-23 -1 -61 -6 -12 -12 -29 -16 -43 -1 -4 -7 -16 -12 -27 -5 -11 -10 -24 -11
-30 -1 -6 -4 -13 -6 -17 -7 -8 -17 -37 -17 -45 0 -4 -3 -10 -7 -16 -4 -5 -7
-12 -8 -16 -1 -3 -4 -12 -8 -19 -3 -7 -6 -18 -7 -23 -1 -7 -4 -14 -7 -18 -4
-5 -6 -11 -7 -19 -1 -6 -3 -14 -5 -18 -4 -10 -7 -20 -10 -30 -1 -5 -5 -14 -8
-20 -3 -6 -6 -15 -7 -19 -1 -4 -5 -13 -8 -20 -3 -6 -6 -13 -6 -14 0 -2 -2 -7
-4 -13 -2 -5 -6 -17 -9 -27 -3 -9 -8 -20 -11 -25 -10 -12 13 -75 38 -106 3 -4
22 -40 43 -81 20 -41 38 -75 40 -77 2 -2 18 -33 36 -70 18 -36 35 -69 38 -72
7 -8 28 -53 30 -63 3 -18 23 -29 48 -26 22 3 20 10 -25 96 -4 8 -12 23 -18 35
-6 12 -12 23 -14 25 -5 5 -8 11 -48 91 -19 37 -36 70 -39 74 -3 4 -5 8 -5 10
0 5 -8 22 -15 29 -6 8 -14 24 -16 33 0 3 -3 9 -6 13 -6 6 -15 25 -15 30 0 2
-3 6 -7 11 -10 11 -17 32 -13 41 1 3 4 10 5 15 7 23 12 34 17 34 4 0 10 -10
29 -47 12 -23 24 -45 27 -49 3 -4 12 -22 22 -41 9 -18 19 -37 22 -41 3 -4 15
-26 27 -50 12 -24 23 -45 25 -47 2 -3 13 -21 23 -42 11 -21 21 -40 23 -42 2
-2 12 -20 22 -41 10 -20 20 -39 23 -43 2 -3 14 -24 24 -47 24 -49 22 -47 48
-47 33 0 35 20 7 54 -3 3 -13 21 -23 40 -10 19 -20 37 -23 41 -3 4 -15 26 -27
49 -11 23 -23 45 -26 48 -2 3 -13 23 -24 44 -10 21 -20 39 -22 41 -2 2 -13 22
-25 46 -12 24 -24 47 -26 50 -3 4 -13 23 -23 42 -10 19 -20 38 -22 41 -7 9
-53 102 -54 110 -2 9 4 28 17 57 8 19 11 27 15 40 1 5 5 15 9 22 9 21 24 60
29 76 1 5 5 15 9 22 3 7 8 21 11 31 3 10 8 20 10 23 3 4 6 10 7 18 1 6 3 15 5
19 2 4 3 8 3 10 0 1 3 9 7 18 4 8 7 16 7 18 0 4 5 15 10 20 3 3 10 4 16 1 2
-1 11 -3 19 -4 11 -1 16 -3 23 -8 5 -3 12 -6 18 -7 5 -1 12 -3 15 -4 3 -1 11
-3 16 -4 5 -1 19 -6 29 -11 11 -6 24 -11 29 -11 12 -2 20 -8 18 -15 0 -3 -2
-10 -3 -17 -1 -6 -5 -18 -9 -25 -4 -8 -7 -15 -7 -17 0 -2 -5 -13 -11 -26 -6
-12 -11 -23 -11 -25 0 -2 -4 -11 -8 -20 -4 -9 -8 -19 -8 -21 0 -2 -3 -9 -7
-17 -3 -7 -7 -16 -8 -19 -1 -3 -6 -15 -11 -26 -5 -11 -10 -23 -11 -26 -1 -3
-5 -13 -8 -21 -4 -8 -7 -16 -7 -17 0 -2 -5 -13 -11 -26 -6 -13 -11 -24 -11
-26 0 -1 -3 -9 -7 -17 -3 -8 -7 -18 -8 -22 -1 -4 -4 -12 -7 -18 -3 -6 -6 -14
-7 -18 -1 -4 -5 -14 -9 -23 -11 -24 -11 -24 -3 -42 4 -8 9 -17 12 -20 2 -3 13
-22 23 -42 10 -20 20 -39 23 -42 2 -3 11 -19 19 -35 8 -16 16 -31 18 -33 2 -2
5 -8 6 -12 3 -12 19 -44 23 -47 2 -1 5 -6 7 -11 3 -4 7 -10 9 -13 2 -3 9 -14
14 -25 5 -11 12 -23 15 -27 3 -4 11 -19 18 -33 7 -14 15 -29 18 -33 3 -4 12
-20 20 -37 19 -37 26 -43 51 -38 19 4 14 44 -10 76 -3 4 -10 16 -16 28 -6 12
-13 24 -15 26 -2 2 -12 20 -22 40 -10 20 -20 39 -23 42 -2 3 -12 22 -22 41
-10 19 -20 38 -23 42 -3 4 -13 23 -23 42 -10 19 -20 37 -22 40 -33 39 -46 92
-30 117 4 6 7 14 8 19 1 5 5 15 8 23 4 8 7 16 7 18 0 1 6 15 13 29 14 27 22
46 25 61 1 4 5 12 8 19 3 6 7 15 8 19 1 5 6 17 11 27 5 10 10 20 10 23 1 4 5
12 8 20 4 8 7 17 8 20 1 3 5 12 8 20 4 8 7 16 7 18 0 2 5 13 11 25 6 12 11 24
11 26 0 1 3 10 7 18 4 8 8 18 9 21 1 3 3 10 5 14 11 30 -1 52 -31 56 -6 1 -16
4 -22 7 -7 3 -15 7 -19 8 -11 3 -27 8 -44 15 -8 4 -21 9 -30 12 -9 3 -22 7
-27 10 -6 2 -19 7 -29 10 -10 3 -25 8 -33 12 -8 4 -17 7 -19 7 -1 0 -9 3 -17
7 -15 7 -28 11 -42 15 -4 1 -12 4 -18 7 -12 6 -29 12 -40 15 -4 1 -10 3 -14 5
-13 5 -40 4 -48 -2z"/>
</g>
</svg>
