<?xml version="1.0" standalone="no"?>
<!DOCTYPE svg PUBLIC "-//W3C//DTD SVG 20010904//EN"
 "http://www.w3.org/TR/2001/REC-SVG-20010904/DTD/svg10.dtd">
<svg version="1.0" xmlns="http://www.w3.org/2000/svg"
 width="370.000000pt" height="590.000000pt" viewBox="0 0 370.000000 590.000000"
 preserveAspectRatio="xMidYMid meet">
<metadata>
Created by potrace 1.16, written by Peter Selinger 2001-2019
</metadata>
<g transform="translate(0.000000,590.000000) scale(0.500000,-0.500000)"
fill="#000000" stroke="none">
<path d="M397 1135 c-7 -4 -31 -42 -53 -81 -4 -7 -9 -16 -11 -19 -3 -3 -10
-15 -16 -26 -6 -11 -16 -26 -21 -34 -6 -7 -10 -15 -10 -16 0 -1 -4 -8 -9 -15
-5 -7 -10 -15 -11 -19 -2 -3 -7 -12 -11 -19 -5 -7 -16 -26 -26 -43 -10 -16
-21 -35 -25 -42 -8 -13 -17 -29 -45 -75 -10 -17 -21 -35 -24 -39 -2 -5 -15
-26 -27 -47 -13 -21 -28 -47 -34 -56 -6 -9 -13 -21 -16 -26 -2 -5 -7 -14 -10
-20 -7 -13 -9 -68 -3 -85 7 -18 12 -35 16 -60 3 -16 6 -29 9 -33 5 -8 14 -40
14 -48 0 -3 3 -14 6 -24 4 -11 9 -29 12 -41 3 -12 10 -35 14 -52 4 -16 9 -36
10 -43 1 -7 4 -15 5 -18 3 -5 15 -51 20 -74 7 -29 11 -33 39 -33 36 0 37 3 16
66 -2 7 -4 14 -4 16 0 1 -3 11 -6 21 -3 9 -8 25 -11 34 -3 9 -8 29 -13 44 -19
66 -27 92 -32 112 -3 12 -10 37 -16 56 -6 19 -11 38 -12 41 -1 3 -4 16 -8 29
-15 52 -15 68 -3 68 8 0 191 -358 202 -394 1 -3 10 -23 22 -46 23 -47 22 -46
52 -46 39 0 40 4 6 64 -5 8 -16 29 -25 47 -9 18 -20 39 -25 48 -25 46 -64 124
-69 136 -3 8 -9 19 -13 24 -3 6 -8 14 -9 18 -1 5 -5 12 -8 16 -6 9 -25 46 -32
63 -3 6 -10 20 -16 32 -7 11 -12 21 -12 22 0 0 -8 17 -17 37 -24 49 -28 35 36
136 45 74 70 114 143 234 7 12 29 48 48 79 48 79 42 75 73 54 36 -25 47 1 -76
-191 -16 -25 -34 -53 -40 -62 -5 -9 -16 -26 -24 -38 -8 -12 -20 -30 -26 -40
-11 -17 -16 -26 -31 -47 -3 -5 -13 -20 -21 -33 -8 -13 -17 -28 -21 -33 -33
-48 -34 -55 -11 -94 7 -11 18 -30 26 -44 37 -64 92 -161 101 -177 6 -10 21
-36 33 -57 12 -21 29 -52 38 -67 8 -15 20 -36 25 -45 12 -22 19 -36 21 -42 6
-23 29 -40 53 -40 35 0 39 9 17 40 -9 13 -102 169 -118 199 -4 8 -10 18 -13
22 -3 4 -8 13 -10 19 -3 6 -9 15 -12 20 -4 5 -14 20 -21 33 -8 13 -17 29 -21
36 -4 7 -16 26 -25 43 -58 99 -56 94 -43 113 16 25 21 22 67 -57 7 -12 15 -25
19 -30 3 -5 9 -14 12 -21 3 -6 9 -15 12 -19 4 -4 13 -17 20 -29 7 -12 17 -27
21 -34 5 -7 12 -18 17 -25 4 -7 17 -27 28 -45 11 -18 24 -37 28 -44 4 -7 22
-34 39 -62 17 -27 41 -66 53 -86 48 -78 45 -75 79 -75 44 0 44 0 -10 81 -41
63 -68 105 -137 211 -95 148 -110 170 -147 227 -57 88 -57 85 3 162 5 7 12 17
15 23 3 6 10 18 16 27 7 9 18 26 27 38 8 12 17 25 19 28 3 3 8 11 11 18 6 14
27 45 39 60 5 5 10 14 13 19 5 13 19 33 31 46 6 7 12 16 16 24 2 7 7 17 10 22
10 18 0 41 -22 52 -6 2 -14 8 -19 11 -5 4 -16 10 -24 14 -8 4 -22 12 -31 18
-18 11 -55 16 -66 8z"/>
</g>
</svg>
