<?xml version="1.0" standalone="no"?>
<!DOCTYPE svg PUBLIC "-//W3C//DTD SVG 20010904//EN"
 "http://www.w3.org/TR/2001/REC-SVG-20010904/DTD/svg10.dtd">
<svg version="1.0" xmlns="http://www.w3.org/2000/svg"
 width="63.000000pt" height="100.000000pt" viewBox="0 0 63.000000 100.000000"
 preserveAspectRatio="xMidYMid meet">
<metadata>
Created by potrace 1.16, written by Peter Selinger 2001-2019
</metadata>
<g transform="translate(0.000000,100.000000) scale(0.100000,-0.100000)"
fill="#000000" stroke="none">
<path d="M337 959 c-17 -10 -267 -423 -294 -486 -8 -21 -12 -48 -8 -67 9 -46
85 -327 96 -353 10 -26 46 -31 55 -9 3 8 -20 95 -50 193 -59 187 -62 203 -45
203 9 0 43 -67 157 -313 40 -86 63 -110 85 -88 8 8 -16 64 -95 218 -58 115
-109 218 -112 229 -5 16 20 67 100 200 117 197 135 220 158 211 27 -11 18 -39
-42 -133 -94 -144 -172 -279 -172 -294 0 -22 225 -423 244 -435 10 -6 19 -6
27 2 13 13 9 22 -121 240 -92 153 -120 221 -87 211 6 -2 62 -85 124 -184 61
-98 124 -199 140 -224 17 -28 37 -46 51 -48 39 -6 37 25 -5 86 -69 99 -273
419 -273 427 0 5 45 76 99 160 117 177 121 191 79 219 -46 30 -93 45 -111 35z"/>
</g>
</svg>
