<?xml version="1.0" standalone="no"?>
<!DOCTYPE svg PUBLIC "-//W3C//DTD SVG 20010904//EN"
 "http://www.w3.org/TR/2001/REC-SVG-20010904/DTD/svg10.dtd">
<svg version="1.0" xmlns="http://www.w3.org/2000/svg"
 width="53.000000pt" height="100.000000pt" viewBox="0 0 53.000000 100.000000"
 preserveAspectRatio="xMidYMid meet">
<metadata>
Created by potrace 1.16, written by Peter Selinger 2001-2019
</metadata>
<g transform="translate(0.000000,100.000000) scale(0.100000,-0.100000)"
fill="#000000" stroke="none">
<path d="M302 948 c-7 -7 -12 -16 -12 -21 0 -5 -57 -126 -127 -269 l-126 -261
16 -66 c43 -171 78 -296 87 -305 15 -15 40 2 40 26 0 13 -18 85 -40 161 -40
140 -49 200 -29 212 6 4 13 5 16 2 3 -3 27 -92 54 -198 26 -106 53 -197 58
-202 13 -13 31 0 31 22 0 15 -64 254 -113 423 -9 29 -8 41 1 50 10 10 15 10
21 -1 9 -13 99 -329 122 -426 13 -55 25 -75 44 -75 26 0 23 32 -10 137 -18 59
-56 185 -84 280 l-52 172 52 103 c28 57 60 116 72 131 17 26 21 27 35 14 13
-14 9 -26 -42 -114 -64 -113 -66 -131 -35 -237 61 -209 142 -463 152 -474 16
-20 52 -11 50 13 -1 11 -40 139 -87 284 -47 146 -86 272 -86 280 0 9 27 61 60
116 33 55 60 112 60 127 0 19 -13 38 -46 67 -50 44 -63 48 -82 29z"/>
</g>
</svg>
