<?xml version="1.0" standalone="no"?>
<!DOCTYPE svg PUBLIC "-//W3C//DTD SVG 20010904//EN"
 "http://www.w3.org/TR/2001/REC-SVG-20010904/DTD/svg10.dtd">
<svg version="1.0" xmlns="http://www.w3.org/2000/svg"
 width="310.000000pt" height="590.000000pt" viewBox="0 0 310.000000 590.000000"
 preserveAspectRatio="xMidYMid meet">
<metadata>
Created by potrace 1.16, written by Peter Selinger 2001-2019
</metadata>
<g transform="translate(0.000000,590.000000) scale(0.500000,-0.500000)"
fill="#000000" stroke="none">
<path d="M369 1132 c-8 -5 -12 -10 -16 -23 -1 -5 -5 -11 -7 -14 -5 -7 -30 -58
-30 -63 0 -3 0 -3 -58 -120 -22 -45 -40 -84 -41 -88 -1 -6 -31 -68 -78 -163
-13 -25 -23 -47 -23 -50 0 -3 -14 -32 -30 -64 -35 -68 -39 -86 -28 -116 2 -6
4 -14 4 -16 0 -2 4 -15 8 -28 4 -13 8 -27 8 -30 0 -3 1 -8 3 -11 2 -3 4 -10 4
-15 1 -6 3 -14 5 -19 6 -16 10 -31 12 -41 2 -9 3 -14 8 -35 1 -5 3 -15 5 -22
1 -7 5 -21 8 -31 4 -10 7 -22 8 -28 0 -5 2 -12 4 -15 2 -3 3 -9 3 -12 0 -3 2
-10 4 -16 7 -19 10 -29 12 -40 6 -36 36 -55 55 -35 6 5 5 49 -1 61 -2 5 -4 11
-4 14 0 3 -4 15 -8 28 -4 13 -8 25 -8 28 0 3 -2 10 -4 16 -2 5 -4 12 -4 15 0
2 -3 14 -7 26 -4 11 -7 23 -7 26 0 3 -2 9 -4 15 -2 6 -4 13 -4 16 0 4 -2 10
-4 16 -2 5 -4 13 -5 17 -1 5 -2 12 -4 15 -4 11 -9 26 -12 39 -1 7 -3 13 -4 15
0 1 -2 7 -3 13 -1 7 -5 20 -8 30 -9 27 -9 33 6 63 16 31 21 34 26 15 2 -7 6
-20 10 -29 3 -9 6 -19 6 -22 0 -3 2 -11 4 -17 2 -6 4 -14 4 -17 0 -3 1 -9 3
-13 2 -4 3 -9 3 -13 0 -3 4 -16 8 -29 4 -13 8 -26 8 -29 0 -3 2 -10 4 -16 2
-6 4 -13 4 -16 0 -3 1 -9 3 -12 2 -3 4 -11 5 -17 1 -7 3 -16 5 -20 1 -4 3 -10
3 -13 0 -3 1 -9 3 -13 6 -17 11 -35 11 -39 0 -3 1 -9 3 -13 1 -5 3 -13 4 -19
1 -6 3 -13 4 -16 2 -3 3 -9 3 -12 0 -7 6 -26 12 -40 1 -4 3 -12 4 -18 5 -32
11 -39 32 -39 24 1 34 33 20 65 -2 4 -4 12 -6 17 -1 6 -4 18 -8 28 -6 19 -11
40 -14 55 -1 5 -3 12 -5 16 -2 5 -3 10 -3 13 0 5 -6 25 -14 44 -1 3 -2 8 -2
12 0 3 -2 10 -4 15 -2 5 -4 11 -4 14 0 3 -2 10 -4 16 -2 6 -4 12 -4 15 0 3 -2
10 -4 16 -2 7 -4 14 -4 17 0 4 -6 25 -11 38 -2 3 -3 9 -3 12 0 3 -2 10 -4 17
-5 16 -10 36 -12 48 -1 6 -3 13 -4 17 -6 14 -10 27 -12 39 -2 13 -4 17 -13 28
-9 9 -9 12 2 34 14 28 25 32 28 12 2 -10 3 -14 15 -49 5 -16 10 -31 10 -34 0
-5 3 -14 10 -36 2 -6 4 -13 4 -15 0 -5 14 -50 21 -65 2 -5 3 -10 3 -13 0 -3 4
-16 8 -29 4 -13 8 -26 8 -29 0 -3 3 -15 7 -26 4 -12 7 -24 7 -27 0 -2 5 -19
11 -37 6 -18 11 -36 12 -41 1 -5 5 -17 8 -28 4 -10 7 -21 7 -25 0 -3 2 -10 3
-14 2 -4 4 -12 6 -17 1 -5 5 -17 8 -27 3 -9 5 -19 5 -22 0 -6 8 -32 14 -43 7
-13 37 -17 46 -6 7 8 5 36 -4 64 -4 13 -8 26 -8 29 0 3 -1 7 -2 10 -2 2 -4 8
-5 13 -2 5 -5 15 -8 23 -3 8 -6 19 -7 24 -1 6 -4 15 -6 20 -2 6 -4 11 -4 12 0
2 -2 6 -4 11 -2 5 -4 12 -4 15 0 3 -5 20 -11 38 -6 19 -11 36 -11 38 0 3 -3
14 -7 25 -4 12 -8 26 -9 31 -1 6 -4 18 -8 27 -3 9 -7 22 -8 27 -1 6 -7 25 -13
43 -6 18 -11 35 -11 38 0 3 -3 14 -7 25 -4 11 -7 23 -7 26 0 3 -1 8 -3 13 -2
4 -4 10 -5 14 -1 4 -5 16 -9 27 -4 11 -7 22 -7 25 0 3 -3 14 -7 25 -4 11 -8
23 -10 27 -2 7 -1 10 46 102 26 52 61 122 78 155 36 72 36 73 62 49 13 -12 10
-28 -8 -53 -2 -3 -9 -15 -14 -25 -5 -11 -11 -22 -14 -26 -3 -3 -9 -13 -13 -21
-5 -9 -10 -19 -13 -22 -2 -3 -9 -15 -15 -27 -5 -11 -12 -23 -15 -27 -2 -3 -7
-11 -10 -17 -3 -6 -9 -15 -12 -20 -20 -27 -21 -62 -4 -106 2 -4 4 -10 5 -14 1
-4 4 -15 8 -24 3 -9 6 -21 8 -27 2 -10 5 -22 11 -37 6 -16 17 -54 19 -63 1 -6
8 -29 16 -52 7 -23 14 -46 15 -52 2 -5 5 -18 9 -27 3 -9 9 -28 13 -41 4 -13 9
-29 11 -36 2 -6 4 -13 4 -16 0 -2 5 -17 10 -33 6 -16 12 -33 13 -38 1 -5 4
-12 5 -15 1 -3 3 -10 4 -16 2 -10 4 -16 18 -62 5 -14 9 -29 10 -34 1 -4 5 -11
8 -15 3 -4 6 -12 8 -17 6 -26 68 -29 65 -3 0 7 -20 69 -31 99 -1 3 -4 12 -5
19 -2 7 -5 19 -8 27 -3 8 -6 18 -8 23 -2 5 -6 18 -10 29 -4 11 -7 22 -7 25 0
2 -3 14 -7 26 -4 11 -9 27 -11 35 -3 8 -5 16 -6 19 -5 13 -12 35 -14 44 -1 6
-4 17 -7 25 -9 24 -25 73 -25 77 0 4 -4 16 -17 55 -4 13 -9 28 -11 33 -1 5 -4
13 -6 18 -2 6 -4 13 -4 16 0 3 -1 9 -3 12 -2 3 -4 9 -5 13 -1 5 -5 16 -8 25
-3 9 -7 20 -8 23 -1 3 -4 11 -7 18 -7 15 -6 18 2 30 3 5 9 14 11 19 3 5 7 12
10 16 3 4 10 16 16 27 6 11 13 23 16 27 3 4 8 12 10 17 2 6 8 15 12 20 4 6 12
19 17 29 6 10 14 25 19 32 5 8 11 18 15 23 3 6 8 15 13 22 16 26 10 63 -13 78
-5 4 -14 11 -19 16 -5 4 -11 10 -14 11 -3 2 -7 8 -9 13 -2 7 -5 10 -11 13 -4
2 -13 9 -21 14 -26 19 -35 22 -44 16z"/>
</g>
</svg>
