<?xml version="1.0" standalone="no"?>
<!DOCTYPE svg PUBLIC "-//W3C//DTD SVG 20010904//EN"
 "http://www.w3.org/TR/2001/REC-SVG-20010904/DTD/svg10.dtd">
<svg version="1.0" xmlns="http://www.w3.org/2000/svg"
 width="78.000000pt" height="148.000000pt" viewBox="0 0 78.000000 148.000000"
 preserveAspectRatio="xMidYMid meet">
<metadata>
Created by potrace 1.16, written by Peter Selinger 2001-2019
</metadata>
<g transform="translate(0.000000,148.000000) scale(0.100000,-0.100000)"
fill="#000000" stroke="none">
<path d="M401 1298 c-32 -68 -119 -249 -193 -403 -74 -154 -138 -292 -141
-306 -4 -16 5 -65 24 -130 17 -57 37 -131 44 -164 33 -139 66 -249 77 -257 24
-15 43 -3 46 29 2 18 -10 81 -27 140 -16 60 -37 133 -45 163 -8 30 -24 88 -35
128 -20 70 -20 73 -4 109 10 20 23 38 29 40 6 2 18 -31 28 -74 10 -43 26 -107
36 -143 10 -36 35 -130 55 -210 20 -80 39 -152 41 -161 5 -18 31 -29 52 -22
14 5 16 52 2 87 -9 26 -64 219 -80 286 -42 173 -76 287 -93 307 -11 15 19 87
33 78 9 -5 28 -65 69 -210 11 -38 41 -140 65 -225 25 -85 55 -191 66 -235 12
-44 27 -83 33 -87 18 -12 33 -9 47 7 11 13 8 31 -14 103 -16 48 -61 200 -101
337 -74 252 -80 274 -95 310 -4 11 -13 38 -19 60 -11 39 -10 43 89 238 55 108
106 197 114 197 7 0 21 -9 31 -20 18 -20 18 -22 -5 -63 -12 -23 -34 -60 -47
-82 -83 -137 -113 -193 -113 -217 0 -14 18 -82 39 -150 21 -67 50 -161 64
-208 56 -189 140 -455 150 -479 7 -15 16 -29 22 -33 16 -12 65 -9 65 4 0 6
-20 75 -44 152 -25 78 -66 209 -91 291 -26 83 -67 212 -91 288 l-45 138 44 72
c90 148 145 243 152 265 6 20 -4 34 -70 98 -42 41 -83 74 -91 74 -9 0 -38 -47
-73 -122z"/>
</g>
</svg>
