<?xml version="1.0" standalone="no"?>
<!DOCTYPE svg PUBLIC "-//W3C//DTD SVG 20010904//EN"
 "http://www.w3.org/TR/2001/REC-SVG-20010904/DTD/svg10.dtd">
<svg version="1.0" xmlns="http://www.w3.org/2000/svg"
 width="76.000000pt" height="148.000000pt" viewBox="0 0 76.000000 148.000000"
 preserveAspectRatio="xMidYMid meet">
<metadata>
Created by potrace 1.16, written by Peter Selinger 2001-2019
</metadata>
<g transform="translate(0.000000,148.000000) scale(0.100000,-0.100000)"
fill="#000000" stroke="none">
<path d="M426 1388 c-10 -25 -278 -574 -348 -715 -14 -28 -10 -48 55 -308 31
-121 59 -237 62 -257 8 -44 25 -61 57 -56 33 4 30 25 -45 317 -36 139 -63 261
-60 270 31 88 335 701 348 701 7 0 20 -9 29 -19 17 -18 15 -25 -44 -153 -34
-73 -76 -162 -92 -198 -16 -36 -63 -137 -104 -225 l-74 -160 60 -239 c33 -132
60 -248 60 -258 0 -21 41 -41 65 -32 8 4 15 7 15 8 0 0 -7 24 -16 51 -12 42
-45 165 -109 408 -9 37 -10 56 -2 78 23 59 25 53 123 -316 31 -115 61 -216 66
-222 14 -17 47 -16 54 1 3 7 -36 155 -85 329 -50 174 -91 327 -91 339 1 31 37
79 44 58 22 -66 196 -689 196 -702 0 -20 29 -38 59 -38 29 0 33 13 15 61 -19
55 -45 140 -192 634 -19 66 -35 134 -35 150 0 17 39 112 91 223 51 106 92 201
92 211 0 24 -111 91 -151 91 -23 0 -32 -6 -43 -32z"/>
</g>
</svg>
