<?xml version="1.0" standalone="no"?>
<!DOCTYPE svg PUBLIC "-//W3C//DTD SVG 20010904//EN"
 "http://www.w3.org/TR/2001/REC-SVG-20010904/DTD/svg10.dtd">
<svg version="1.0" xmlns="http://www.w3.org/2000/svg"
 width="304.000000pt" height="590.000000pt" viewBox="0 0 304.000000 590.000000"
 preserveAspectRatio="xMidYMid meet">
<metadata>
Created by potrace 1.16, written by Peter Selinger 2001-2019
</metadata>
<g transform="translate(0.000000,590.000000) scale(0.500000,-0.500000)"
fill="#000000" stroke="none">
<path d="M361 1136 c-4 -1 -22 -37 -76 -144 -39 -79 -73 -147 -76 -152 -3 -5
-12 -23 -20 -41 -8 -18 -34 -72 -58 -120 -24 -48 -45 -92 -47 -98 -2 -5 -9
-20 -15 -33 -13 -26 -16 -53 -7 -71 5 -11 12 -36 19 -64 6 -23 12 -47 16 -65
2 -6 4 -16 6 -23 2 -7 5 -19 7 -28 2 -9 5 -22 7 -30 2 -8 5 -21 7 -29 7 -27
11 -46 16 -65 2 -10 5 -24 7 -32 4 -16 10 -44 14 -63 5 -27 9 -30 35 -30 37 0
39 5 23 60 -12 45 -23 82 -29 107 -2 8 -6 23 -9 34 -3 11 -6 25 -8 31 -1 6 -4
16 -6 22 -7 26 -11 42 -11 45 0 2 -2 12 -5 23 -6 22 -11 41 -18 70 -3 12 -7
29 -9 38 -7 27 -2 49 16 77 3 5 6 12 7 15 1 4 3 9 5 13 2 3 8 16 14 29 14 33
217 440 223 448 7 8 16 7 35 -7 11 -9 10 -10 -50 -139 -8 -17 -19 -40 -24 -52
-5 -12 -13 -29 -18 -39 -5 -10 -22 -49 -39 -86 -17 -37 -34 -76 -39 -85 -5 -9
-12 -26 -17 -38 -18 -41 -52 -111 -57 -119 -10 -13 -8 -42 5 -90 15 -57 59
-230 70 -277 20 -85 16 -78 47 -78 27 0 29 3 23 25 -9 30 -26 93 -32 116 -3
11 -7 27 -9 35 -2 8 -6 23 -9 33 -3 10 -7 27 -10 37 -21 82 -41 160 -41 164 0
5 15 37 19 40 8 6 10 0 43 -119 4 -16 9 -34 11 -40 2 -5 4 -15 6 -21 1 -6 6
-21 9 -34 16 -59 23 -82 26 -95 2 -8 6 -23 9 -34 3 -11 9 -33 13 -50 4 -16 9
-35 11 -41 4 -15 18 -21 44 -17 19 3 19 4 -2 71 -2 8 -7 24 -10 34 -3 10 -7
24 -9 31 -5 16 -19 66 -35 123 -7 26 -15 53 -17 60 -2 7 -8 28 -13 46 -5 17
-13 47 -18 65 -5 17 -11 39 -13 47 -3 8 -6 21 -9 29 -7 23 -5 37 5 57 18 37
15 44 59 -110 20 -67 32 -108 35 -119 2 -7 11 -36 19 -65 8 -29 17 -57 18 -63
2 -5 4 -14 6 -20 1 -5 6 -20 9 -33 4 -13 10 -32 13 -44 3 -12 7 -27 9 -34 2
-7 4 -14 4 -16 0 -2 2 -8 4 -13 2 -6 4 -14 5 -19 3 -23 10 -28 37 -28 31 0 36
8 25 37 -1 5 -5 18 -9 30 -3 12 -9 30 -13 40 -4 10 -10 29 -14 43 -4 14 -8 27
-9 30 -1 3 -5 15 -8 27 -3 12 -7 25 -8 28 -3 8 -11 36 -19 63 -4 13 -10 36
-15 51 -14 45 -21 71 -28 94 -4 12 -10 33 -14 47 -8 27 -23 79 -30 101 -2 8
-5 19 -5 24 -1 6 -5 18 -9 27 -13 27 -14 23 27 107 10 22 19 40 19 40 0 0 5
11 11 24 6 13 22 46 34 73 13 27 31 64 39 82 24 49 23 60 -8 76 -8 5 -19 11
-23 14 -4 3 -9 6 -10 6 -1 0 -8 4 -16 8 -26 16 -53 22 -68 16z"/>
</g>
</svg>
