<?xml version="1.0" standalone="no"?>
<!DOCTYPE svg PUBLIC "-//W3C//DTD SVG 20010904//EN"
 "http://www.w3.org/TR/2001/REC-SVG-20010904/DTD/svg10.dtd">
<svg version="1.0" xmlns="http://www.w3.org/2000/svg"
 width="51.000000pt" height="100.000000pt" viewBox="0 0 51.000000 100.000000"
 preserveAspectRatio="xMidYMid meet">
<metadata>
Created by potrace 1.16, written by Peter Selinger 2001-2019
</metadata>
<g transform="translate(0.000000,100.000000) scale(0.100000,-0.100000)"
fill="#000000" stroke="none">
<path d="M172 709 c-76 -156 -122 -262 -122 -282 0 -40 79 -368 92 -384 12
-15 18 -16 37 -4 11 7 5 42 -34 192 -42 165 -46 187 -35 218 29 80 214 451
226 451 6 0 14 -6 17 -13 2 -7 -42 -117 -99 -245 -57 -128 -104 -243 -103
-255 0 -12 17 -94 38 -182 33 -143 39 -160 59 -163 12 -2 22 0 22 5 0 4 -18
81 -41 170 -39 151 -45 213 -17 185 6 -6 30 -88 54 -183 24 -95 50 -176 56
-180 15 -10 38 8 33 24 -24 67 -115 406 -115 428 0 34 16 46 28 22 5 -10 35
-112 66 -228 31 -115 61 -220 66 -232 10 -23 44 -31 55 -14 3 5 -31 128 -75
272 -44 145 -80 275 -80 290 0 14 25 79 56 143 68 144 70 162 25 193 -19 13
-46 23 -61 23 -25 0 -34 -15 -148 -251z"/>
</g>
</svg>
