<?xml version="1.0" standalone="no"?>
<!DOCTYPE svg PUBLIC "-//W3C//DTD SVG 20010904//EN"
 "http://www.w3.org/TR/2001/REC-SVG-20010904/DTD/svg10.dtd">
<svg version="1.0" xmlns="http://www.w3.org/2000/svg"
 width="404.000000pt" height="590.000000pt" viewBox="0 0 404.000000 590.000000"
 preserveAspectRatio="xMidYMid meet">
<metadata>
Created by potrace 1.16, written by Peter Selinger 2001-2019
</metadata>
<g transform="translate(0.000000,590.000000) scale(0.500000,-0.500000)"
fill="#000000" stroke="none">
<path d="M397 1136 c-5 -2 -23 -27 -32 -44 -3 -6 -8 -14 -11 -18 -2 -4 -9 -14
-13 -22 -27 -49 -36 -64 -43 -73 -5 -5 -10 -14 -12 -19 -2 -6 -7 -14 -11 -19
-4 -4 -8 -13 -11 -19 -2 -6 -6 -12 -8 -15 -2 -2 -9 -14 -15 -26 -17 -31 -28
-50 -37 -63 -4 -6 -10 -16 -13 -22 -3 -6 -8 -14 -10 -17 -3 -3 -9 -15 -15 -26
-5 -11 -16 -29 -23 -40 -7 -11 -18 -29 -24 -41 -15 -30 -32 -57 -43 -69 -6 -7
-10 -13 -12 -19 -1 -5 -3 -10 -3 -12 -1 -2 -5 -9 -10 -17 l-9 -14 0 -41 c0
-44 3 -58 25 -127 7 -21 10 -31 29 -96 4 -15 11 -38 15 -51 13 -43 15 -49 16
-58 1 -5 3 -12 5 -16 5 -10 17 -51 19 -65 4 -25 14 -38 30 -39 42 -3 46 5 30
53 -5 16 -10 31 -11 35 -1 4 -5 16 -9 27 -7 22 -10 30 -30 94 -7 23 -15 47
-17 53 -2 6 -6 19 -8 29 -2 9 -6 20 -8 25 -9 18 -40 121 -40 134 0 13 10 30
18 30 6 0 17 -23 115 -241 26 -57 57 -126 69 -153 41 -92 35 -85 67 -86 37 -1
45 5 33 23 -3 5 -6 13 -7 18 -2 11 -4 14 -15 27 -6 6 -10 11 -10 12 0 1 -4 8
-9 15 -6 9 -9 17 -11 25 -2 13 -7 23 -19 41 -5 7 -10 17 -12 23 -2 6 -6 15 -8
19 -3 4 -7 13 -9 19 -2 7 -7 17 -12 23 -9 15 -17 37 -19 50 -1 8 -3 12 -9 18
-5 5 -9 12 -12 20 -2 6 -6 14 -8 16 -5 6 -25 45 -30 61 -2 7 -10 23 -16 36 -7
12 -12 23 -12 25 0 1 -7 17 -16 35 -17 34 -18 37 -13 47 7 13 82 137 89 146 4
6 9 14 11 18 4 10 119 203 130 219 4 5 9 15 13 22 3 7 10 18 14 25 4 7 10 17
14 23 16 27 17 27 48 9 34 -19 38 -27 26 -45 -7 -12 -35 -52 -44 -65 -9 -13
-14 -20 -33 -48 -3 -4 -12 -17 -19 -28 -7 -11 -14 -22 -16 -25 -4 -6 -64 -94
-72 -106 -3 -4 -10 -15 -16 -24 -25 -36 -32 -46 -59 -86 -15 -23 -32 -47 -38
-54 -12 -16 -12 -18 10 -55 18 -30 58 -100 96 -166 13 -23 33 -59 45 -79 11
-20 26 -47 33 -59 7 -12 23 -41 36 -64 13 -23 27 -49 31 -58 17 -40 31 -53 58
-53 37 0 39 5 16 40 -11 18 -49 82 -86 144 -9 16 -20 36 -25 44 -4 8 -12 22
-18 31 -6 9 -12 20 -14 25 -2 5 -6 12 -10 17 -3 4 -13 19 -20 32 -7 13 -17 29
-21 36 -9 14 -33 56 -61 105 -22 37 -22 39 -11 55 20 29 27 30 39 3 3 -7 6
-12 7 -13 6 -4 42 -63 42 -70 0 -2 4 -7 8 -12 4 -5 9 -13 11 -19 2 -5 6 -12
11 -17 8 -8 25 -34 32 -50 2 -5 7 -13 10 -16 3 -4 8 -11 11 -16 3 -6 14 -24
25 -41 24 -39 45 -72 57 -93 123 -205 107 -184 137 -185 42 -1 42 6 -8 80 -6
9 -20 31 -30 47 -10 17 -25 39 -32 51 -7 12 -29 45 -47 75 -19 30 -60 96 -92
147 -59 96 -106 172 -116 188 -10 17 -8 23 22 63 10 14 26 37 36 50 9 13 32
47 52 75 144 206 126 185 148 171 21 -14 23 -10 -57 -132 -75 -115 -140 -216
-143 -225 -1 -4 -4 -10 -6 -14 -5 -10 -5 -10 23 -52 32 -49 118 -182 134 -206
7 -11 28 -44 47 -72 51 -77 125 -192 142 -220 25 -40 54 -38 54 3 0 27 20 -5
-244 391 -117 175 -121 121 22 335 66 98 120 182 120 185 3 12 -10 28 -28 37
-5 3 -11 7 -13 8 -2 2 -14 9 -27 16 -13 8 -29 17 -35 21 -6 4 -15 9 -20 12 -4
2 -24 14 -44 26 -47 30 -76 38 -101 28z"/>
</g>
</svg>
