<?xml version="1.0" standalone="no"?>
<!DOCTYPE svg PUBLIC "-//W3C//DTD SVG 20010904//EN"
 "http://www.w3.org/TR/2001/REC-SVG-20010904/DTD/svg10.dtd">
<svg version="1.0" xmlns="http://www.w3.org/2000/svg"
 width="69.000000pt" height="100.000000pt" viewBox="0 0 69.000000 100.000000"
 preserveAspectRatio="xMidYMid meet">
<metadata>
Created by potrace 1.16, written by Peter Selinger 2001-2019
</metadata>
<g transform="translate(0.000000,100.000000) scale(0.100000,-0.100000)"
fill="#000000" stroke="none">
<path d="M287 888 c-25 -40 -93 -154 -152 -253 -124 -210 -122 -196 -61 -395
19 -63 39 -134 45 -157 8 -28 18 -44 32 -48 46 -15 44 9 -14 188 -31 96 -57
184 -57 196 0 52 29 4 103 -170 79 -185 98 -219 124 -219 32 0 20 38 -60 197
-47 92 -95 192 -107 221 l-23 52 118 196 c64 107 124 198 132 201 20 8 48 -10
47 -29 -1 -7 -24 -45 -52 -83 -28 -39 -84 -123 -126 -188 l-75 -119 20 -41
c53 -106 212 -387 225 -398 19 -16 47 -3 42 19 -3 10 -58 104 -122 210 -110
179 -128 220 -99 229 10 4 167 -238 251 -388 41 -72 58 -87 77 -68 12 12 -5
43 -116 219 -151 238 -172 276 -166 299 7 29 188 281 201 281 37 0 33 -10 -75
-176 -44 -66 -79 -130 -79 -140 0 -11 45 -89 100 -172 55 -83 118 -182 141
-219 56 -92 69 -106 86 -92 7 6 13 18 13 25 0 8 -63 109 -141 225 -77 116
-142 216 -145 223 -3 7 38 80 92 161 53 81 97 154 98 162 2 23 -162 122 -201
123 -29 0 -36 -7 -76 -72z"/>
</g>
</svg>
