<?xml version="1.0" standalone="no"?>
<!DOCTYPE svg PUBLIC "-//W3C//DTD SVG 20010904//EN"
 "http://www.w3.org/TR/2001/REC-SVG-20010904/DTD/svg10.dtd">
<svg version="1.0" xmlns="http://www.w3.org/2000/svg"
 width="102.000000pt" height="148.000000pt" viewBox="0 0 102.000000 148.000000"
 preserveAspectRatio="xMidYMid meet">
<metadata>
Created by potrace 1.16, written by Peter Selinger 2001-2019
</metadata>
<g transform="translate(0.000000,148.000000) scale(0.100000,-0.100000)"
fill="#000000" stroke="none">
<path d="M470 1383 c-13 -21 -30 -51 -40 -68 -9 -16 -44 -75 -77 -130 -33 -55
-73 -122 -89 -149 -16 -28 -41 -70 -57 -95 -15 -25 -37 -64 -48 -86 -12 -22
-41 -70 -65 -107 -39 -60 -44 -73 -44 -125 0 -54 34 -181 119 -448 11 -33 22
-72 25 -87 7 -33 50 -49 72 -27 11 12 9 27 -16 99 -102 299 -150 462 -140 481
14 25 24 24 38 -3 22 -43 204 -443 229 -503 32 -78 39 -85 79 -85 54 0 53 11
-9 107 -15 24 -27 46 -27 50 0 4 -22 53 -49 108 -112 228 -201 416 -201 423 0
7 59 106 114 192 26 39 165 271 205 340 54 94 45 88 88 64 21 -12 39 -29 41
-37 2 -9 -50 -94 -116 -189 -246 -358 -273 -401 -267 -416 3 -9 69 -126 147
-261 78 -135 152 -268 166 -296 14 -27 32 -58 40 -67 16 -19 67 -24 77 -8 3 5
-25 61 -63 123 -38 62 -79 131 -91 153 -12 21 -26 46 -31 54 -25 39 -110 182
-110 186 0 2 -17 29 -37 60 -35 53 -36 57 -23 82 22 38 37 37 60 -5 11 -21 38
-65 59 -98 21 -33 66 -105 100 -160 34 -55 103 -167 154 -250 79 -129 96 -150
120 -153 17 -2 29 2 33 11 5 13 -131 237 -302 499 -24 37 -44 70 -44 73 0 2
-22 39 -50 81 -27 42 -50 86 -50 97 0 11 22 49 48 86 27 36 95 132 151 214 57
81 105 147 107 147 15 0 44 -22 44 -33 0 -7 -61 -105 -135 -217 -74 -113 -138
-214 -141 -226 -4 -16 39 -89 168 -285 96 -145 200 -306 232 -357 64 -101 89
-114 94 -52 3 31 -21 72 -213 358 -119 178 -215 326 -213 330 2 4 72 110 156
235 147 220 153 230 136 248 -9 10 -21 19 -26 19 -5 0 -21 8 -36 18 -119 82
-196 122 -232 122 -33 0 -41 -5 -60 -37z"/>
</g>
</svg>
