<?xml version="1.0" standalone="no"?>
<!DOCTYPE svg PUBLIC "-//W3C//DTD SVG 20010904//EN"
 "http://www.w3.org/TR/2001/REC-SVG-20010904/DTD/svg10.dtd">
<svg version="1.0" xmlns="http://www.w3.org/2000/svg"
 width="102.000000pt" height="148.000000pt" viewBox="0 0 102.000000 148.000000"
 preserveAspectRatio="xMidYMid meet">
<metadata>
Created by potrace 1.16, written by Peter Selinger 2001-2019
</metadata>
<g transform="translate(0.000000,148.000000) scale(0.100000,-0.100000)"
fill="#000000" stroke="none">
<path d="M466 1397 c-7 -12 -94 -157 -192 -322 -98 -165 -189 -315 -201 -334
-40 -60 -33 -140 37 -394 33 -120 60 -226 60 -236 0 -28 30 -61 56 -61 36 0
38 19 10 106 -25 80 -111 387 -127 457 -9 35 -5 45 54 145 250 418 340 564
354 569 8 3 21 -1 28 -8 12 -12 -17 -65 -186 -347 -109 -183 -199 -338 -199
-344 0 -6 31 -108 69 -227 38 -119 77 -241 86 -273 9 -31 22 -62 30 -68 20
-17 50 -8 53 16 2 17 -54 205 -109 359 -54 155 -62 187 -53 213 5 15 15 27 22
27 7 0 36 -49 63 -110 28 -60 80 -171 116 -245 35 -74 76 -162 91 -195 30 -68
36 -75 75 -75 40 0 42 21 9 76 -66 108 -315 621 -309 635 4 8 27 46 52 84 25
39 58 92 73 118 76 135 195 317 207 317 20 0 75 -33 75 -45 0 -5 -36 -62 -81
-125 -208 -299 -269 -389 -269 -399 0 -6 8 -25 19 -43 136 -236 298 -523 317
-559 12 -26 30 -49 39 -53 48 -18 81 9 53 42 -14 16 -61 94 -273 457 -84 144
-86 150 -72 174 9 14 20 27 25 29 6 2 38 -43 72 -100 312 -520 366 -603 391
-603 46 0 36 42 -39 161 -37 60 -110 179 -162 264 -51 85 -120 197 -153 249
-55 88 -59 97 -46 117 20 33 164 238 222 317 68 94 66 97 -117 189 -43 22 -96
46 -117 53 -37 13 -40 13 -53 -8z"/>
</g>
</svg>
