<?xml version="1.0" standalone="no"?>
<!DOCTYPE svg PUBLIC "-//W3C//DTD SVG 20010904//EN"
 "http://www.w3.org/TR/2001/REC-SVG-20010904/DTD/svg10.dtd">
<svg version="1.0" xmlns="http://www.w3.org/2000/svg"
 width="404.000000pt" height="590.000000pt" viewBox="0 0 404.000000 590.000000"
 preserveAspectRatio="xMidYMid meet">
<metadata>
Created by potrace 1.16, written by Peter Selinger 2001-2019
</metadata>
<g transform="translate(0.000000,590.000000) scale(0.500000,-0.500000)"
fill="#000000" stroke="none">
<path d="M376 1124 c-6 -5 -10 -10 -17 -25 -5 -10 -12 -24 -16 -30 -4 -7 -15
-25 -23 -39 -8 -15 -21 -35 -27 -45 -7 -10 -14 -22 -16 -26 -1 -4 -6 -12 -11
-18 -4 -7 -8 -13 -8 -14 0 -1 -3 -8 -8 -14 -4 -7 -12 -20 -17 -29 -11 -19 -64
-109 -91 -155 -10 -16 -28 -47 -39 -67 -12 -20 -27 -45 -34 -55 -7 -10 -13
-19 -13 -20 0 0 -3 -7 -7 -16 -9 -18 -11 -96 -3 -124 2 -8 6 -24 8 -37 3 -13
6 -26 8 -30 4 -8 14 -44 14 -51 0 -2 1 -8 3 -13 4 -12 12 -39 14 -48 1 -4 3
-13 5 -20 2 -7 6 -21 8 -30 2 -9 6 -22 7 -28 2 -6 4 -16 6 -23 2 -7 5 -20 8
-30 3 -10 8 -31 12 -48 10 -40 11 -41 39 -41 30 0 37 5 29 23 -3 7 -6 20 -14
50 -2 7 -7 23 -11 37 -4 14 -10 34 -13 44 -3 10 -7 25 -9 32 -2 7 -9 34 -16
59 -7 25 -14 52 -16 59 -2 7 -5 18 -6 23 -1 6 -4 15 -6 21 -2 6 -4 12 -4 14 0
2 -2 10 -4 16 -4 14 -9 30 -13 48 -1 6 -4 17 -6 24 -6 24 -5 27 28 81 7 12 19
31 25 42 6 11 19 32 27 46 9 14 19 30 22 36 9 14 23 36 31 48 3 5 10 16 14 24
10 19 28 50 55 95 12 20 29 48 37 62 8 14 21 35 29 47 8 12 17 28 21 34 3 7 9
16 12 19 3 4 8 12 12 17 7 13 9 14 20 10 23 -8 20 -20 -22 -84 -5 -8 -10 -17
-10 -18 0 -1 -4 -7 -8 -14 -4 -6 -10 -15 -12 -20 -3 -4 -9 -15 -14 -24 -17
-28 -68 -115 -86 -145 -9 -16 -20 -35 -25 -43 -5 -8 -19 -32 -31 -53 -12 -21
-27 -45 -32 -53 -5 -8 -12 -19 -14 -23 -10 -20 -30 -51 -37 -58 -9 -9 -9 -11
5 -53 6 -20 18 -55 25 -78 7 -23 15 -47 17 -53 2 -6 10 -30 17 -53 7 -23 15
-47 17 -54 8 -25 20 -64 24 -76 2 -7 7 -24 12 -38 4 -14 9 -31 10 -36 5 -28
13 -35 38 -35 31 0 33 9 17 56 -5 14 -9 27 -9 28 0 1 -3 11 -8 22 -4 10 -8 22
-9 26 -1 4 -3 12 -5 17 -2 6 -5 15 -7 20 -2 6 -7 19 -10 29 -12 31 -26 82 -28
95 -1 7 -3 15 -6 19 -5 10 -13 29 -16 43 -2 7 -5 18 -8 26 -15 41 -17 48 -17
67 0 30 12 53 23 44 5 -4 84 -167 109 -225 2 -4 9 -20 16 -34 16 -34 35 -75
56 -120 9 -20 20 -43 23 -51 4 -8 12 -24 17 -35 12 -26 12 -26 37 -27 40 -1
45 4 30 31 -5 10 -21 41 -35 68 -14 28 -28 54 -30 58 -8 12 -62 121 -69 138
-3 8 -7 17 -10 21 -7 11 -99 198 -99 201 0 1 -4 8 -8 15 -11 15 -11 22 -3 34
3 5 9 13 12 19 13 23 30 50 35 57 3 4 8 13 12 20 4 7 9 17 13 21 10 13 21 30
31 50 12 23 30 55 47 80 7 11 15 25 19 32 4 7 13 21 20 32 7 11 16 25 20 32 4
7 12 21 19 31 7 10 14 21 16 24 9 15 24 13 50 -7 6 -4 13 -10 16 -12 10 -7 7
-12 -74 -129 -10 -15 -27 -40 -38 -55 -11 -15 -26 -38 -35 -51 -9 -13 -20 -29
-25 -37 -6 -8 -12 -17 -15 -20 -3 -3 -11 -15 -18 -26 -7 -11 -16 -24 -20 -29
-4 -5 -9 -13 -12 -17 -6 -10 -22 -34 -28 -41 -10 -13 0 -49 21 -72 3 -3 12
-20 36 -64 7 -13 16 -28 20 -35 4 -7 13 -21 18 -31 6 -10 13 -24 17 -31 5 -6
17 -28 27 -47 11 -19 22 -39 26 -45 9 -16 29 -50 41 -73 6 -12 19 -35 29 -52
9 -17 22 -40 29 -52 18 -36 19 -37 47 -38 36 -1 41 7 24 32 -10 15 -67 111
-88 148 -5 9 -11 19 -13 22 -2 3 -8 14 -14 25 -5 10 -15 27 -21 37 -17 27 -86
146 -135 231 -13 23 -13 26 3 48 16 22 20 21 33 -4 11 -20 20 -35 30 -48 5 -7
12 -18 16 -24 3 -7 10 -20 15 -28 5 -9 12 -20 14 -26 3 -5 9 -14 14 -20 4 -5
13 -19 20 -31 6 -12 15 -27 20 -34 17 -26 22 -35 24 -39 1 -2 5 -10 10 -18 5
-8 12 -19 16 -25 3 -6 11 -19 17 -28 6 -9 14 -23 18 -30 4 -7 15 -26 24 -41
10 -15 29 -48 44 -73 15 -25 30 -50 33 -57 10 -16 14 -18 34 -18 35 0 36 27 4
74 -4 7 -16 26 -26 42 -10 17 -30 49 -44 72 -25 41 -71 117 -104 171 -26 43
-67 110 -109 178 -47 75 -47 75 -45 83 1 5 18 30 29 42 3 3 14 19 25 35 11 16
24 35 30 42 6 7 19 27 30 43 11 17 39 56 61 88 43 60 49 70 47 76 -6 14 -29
38 -41 42 -5 2 -12 6 -15 9 -3 3 -13 9 -22 13 -9 4 -22 12 -29 16 -6 5 -17 10
-24 12 -6 2 -21 8 -33 14 -50 25 -86 34 -99 25z"/>
</g>
</svg>
