<?xml version="1.0" standalone="no"?>
<!DOCTYPE svg PUBLIC "-//W3C//DTD SVG 20010904//EN"
 "http://www.w3.org/TR/2001/REC-SVG-20010904/DTD/svg10.dtd">
<svg version="1.0" xmlns="http://www.w3.org/2000/svg"
 width="69.000000pt" height="100.000000pt" viewBox="0 0 69.000000 100.000000"
 preserveAspectRatio="xMidYMid meet">
<metadata>
Created by potrace 1.16, written by Peter Selinger 2001-2019
</metadata>
<g transform="translate(0.000000,100.000000) scale(0.100000,-0.100000)"
fill="#000000" stroke="none">
<path d="M306 938 c-7 -13 -29 -50 -48 -83 -19 -33 -78 -132 -132 -219 -82
-136 -96 -166 -96 -203 0 -34 43 -219 86 -370 7 -26 32 -37 49 -23 14 12 15
10 -49 230 -20 68 -37 139 -38 156 -1 23 15 58 54 120 30 49 88 144 127 212
68 116 92 144 109 128 8 -8 4 -14 -147 -270 l-112 -188 56 -187 c61 -198 74
-226 100 -200 13 13 8 35 -46 197 -58 174 -68 236 -34 201 8 -8 51 -95 96
-194 44 -99 88 -188 96 -197 19 -21 42 -23 49 -5 2 7 -45 111 -106 230 -60
119 -110 224 -110 232 0 15 166 291 202 334 15 20 23 23 36 14 9 -5 18 -16 20
-24 1 -8 -37 -70 -85 -139 -49 -69 -99 -146 -112 -171 l-24 -46 95 -169 c53
-93 106 -189 119 -213 28 -52 53 -71 70 -54 14 14 7 27 -128 250 -56 95 -103
182 -103 193 0 53 40 6 147 -170 183 -302 173 -289 203 -270 12 8 12 13 -2 42
-14 31 -175 294 -255 416 -19 30 -32 59 -30 66 3 7 44 67 92 134 58 83 85 130
83 145 -2 17 -25 33 -98 69 -52 26 -101 48 -107 48 -7 0 -19 -10 -27 -22z"/>
</g>
</svg>
