<?xml version="1.0" standalone="no"?>
<!DOCTYPE svg PUBLIC "-//W3C//DTD SVG 20010904//EN"
 "http://www.w3.org/TR/2001/REC-SVG-20010904/DTD/svg10.dtd">
<svg version="1.0" xmlns="http://www.w3.org/2000/svg"
 width="100.000000pt" height="148.000000pt" viewBox="0 0 100.000000 148.000000"
 preserveAspectRatio="xMidYMid meet">
<metadata>
Created by potrace 1.16, written by Peter Selinger 2001-2019
</metadata>
<g transform="translate(0.000000,148.000000) scale(0.100000,-0.100000)"
fill="#000000" stroke="none">
<path d="M429 1178 c-67 -134 -141 -280 -164 -326 -39 -75 -59 -103 -114 -156
-31 -29 -48 -75 -56 -146 -3 -36 -15 -135 -26 -220 -10 -85 -19 -181 -19 -213
l0 -58 33 3 c30 3 32 6 35 43 1 22 12 117 23 210 12 94 25 197 29 230 3 33 11
71 17 85 12 28 50 66 58 58 5 -4 27 -266 44 -518 3 -52 10 -101 14 -107 9 -14
53 -18 61 -5 9 15 -42 617 -58 686 -3 11 23 74 61 150 37 72 102 202 146 289
84 166 95 177 142 143 18 -13 18 -15 1 -57 -32 -77 -128 -321 -157 -399 -15
-41 -37 -100 -49 -130 -22 -57 -22 -79 -4 -390 6 -106 24 -282 29 -291 10 -15
55 -10 61 6 4 8 1 59 -5 113 -7 53 -18 184 -25 291 -12 165 -12 199 0 225 7
17 36 92 64 166 80 212 161 414 170 423 4 5 28 -2 54 -14 57 -28 60 -52 17
-137 -15 -31 -72 -156 -126 -277 -54 -121 -106 -230 -117 -241 -21 -24 -21
-28 31 -409 19 -141 23 -155 49 -155 44 1 44 8 12 206 -17 104 -34 212 -38
239 -9 55 9 120 30 113 14 -5 18 -21 94 -317 30 -118 60 -221 66 -228 6 -8 23
-13 37 -11 29 3 32 24 12 88 -5 19 -19 69 -30 110 -27 104 -46 174 -86 321
-19 69 -35 135 -35 146 0 12 34 91 75 178 41 86 75 158 75 160 0 2 16 37 36
79 42 92 44 143 4 163 -87 44 -291 123 -317 123 -32 0 -33 -2 -154 -242z"/>
</g>
</svg>
