<?xml version="1.0" standalone="no"?>
<!DOCTYPE svg PUBLIC "-//W3C//DTD SVG 20010904//EN"
 "http://www.w3.org/TR/2001/REC-SVG-20010904/DTD/svg10.dtd">
<svg version="1.0" xmlns="http://www.w3.org/2000/svg"
 width="396.000000pt" height="590.000000pt" viewBox="0 0 396.000000 590.000000"
 preserveAspectRatio="xMidYMid meet">
<metadata>
Created by potrace 1.16, written by Peter Selinger 2001-2019
</metadata>
<g transform="translate(0.000000,590.000000) scale(0.500000,-0.500000)"
fill="#000000" stroke="none">
<path d="M441 1135 c-4 -2 -173 -333 -253 -497 -7 -15 -12 -22 -22 -31 -6 -6
-12 -13 -12 -14 0 -4 -10 -15 -17 -18 -9 -5 -15 -11 -19 -20 -3 -4 -9 -12 -14
-18 -12 -13 -17 -28 -20 -56 -1 -11 -3 -31 -5 -45 -2 -14 -5 -42 -8 -63 -3
-21 -7 -54 -9 -74 -2 -20 -6 -43 -7 -52 -2 -9 -5 -30 -6 -47 -1 -17 -4 -37 -6
-43 -3 -14 -6 -83 -3 -92 2 -8 9 -13 24 -15 24 -4 29 1 32 38 1 11 4 32 5 46
2 14 3 31 4 38 1 7 3 27 5 44 4 37 8 63 10 86 6 54 9 72 12 83 3 9 5 23 7 53
2 42 2 42 9 52 5 6 9 16 10 22 2 9 4 12 15 23 19 19 23 18 25 -6 1 -8 3 -26 5
-40 1 -14 3 -35 4 -47 1 -12 3 -33 4 -47 2 -14 4 -50 5 -79 1 -38 2 -55 4 -58
3 -6 12 -93 12 -121 0 -73 7 -89 37 -89 33 0 32 -2 23 72 -2 18 -4 54 -5 83
-1 45 -2 53 -5 61 -5 11 -9 41 -14 110 -2 29 -5 61 -6 70 -5 46 -10 102 -10
115 0 7 -1 23 -3 35 -4 24 -3 26 6 40 4 6 8 14 9 18 2 4 5 13 9 21 3 8 7 16 8
19 0 3 6 13 12 22 12 18 20 32 22 40 1 3 4 10 8 15 4 6 8 14 9 19 2 9 13 29
26 45 3 5 9 17 12 26 4 9 10 23 14 32 4 9 8 20 9 24 1 4 5 11 8 15 8 10 13 19
17 31 1 4 5 11 9 15 4 4 8 11 10 16 1 4 6 13 10 19 4 6 8 15 10 24 9 40 32 48
68 23 8 -6 -9 -68 -26 -95 -1 -2 -4 -8 -5 -13 -3 -13 -25 -68 -35 -90 -5 -10
-9 -21 -9 -23 0 -5 -10 -31 -14 -38 -1 -2 -4 -11 -7 -20 -3 -8 -8 -21 -11 -28
-3 -7 -9 -22 -13 -34 -4 -12 -9 -26 -11 -30 -2 -4 -6 -16 -9 -25 -3 -9 -8 -23
-11 -31 -7 -15 -21 -54 -25 -70 -3 -8 -3 -23 -2 -84 2 -97 2 -102 5 -113 2 -6
2 -26 3 -66 0 -52 0 -58 4 -64 3 -6 4 -13 5 -59 1 -29 3 -56 4 -62 1 -5 3 -20
4 -33 2 -29 36 -47 55 -28 5 5 5 14 -5 114 -2 21 -4 46 -5 54 0 8 -3 37 -5 64
-6 76 -12 151 -13 174 -1 12 -2 32 -3 45 -3 28 -1 38 9 54 3 4 7 15 10 24 2 9
9 27 14 40 5 13 12 31 15 40 10 26 15 39 25 64 5 13 15 40 22 59 8 19 17 43
21 53 5 10 9 21 10 25 4 14 21 58 32 81 6 13 14 31 17 40 3 9 6 18 8 21 1 3 4
9 5 14 3 11 8 11 42 -5 51 -22 53 -31 18 -105 -8 -17 -17 -37 -20 -44 -7 -17
-29 -66 -41 -91 -5 -11 -9 -20 -9 -20 0 -1 -3 -7 -6 -14 -8 -17 -21 -47 -33
-74 -5 -12 -15 -34 -22 -49 -7 -16 -15 -33 -17 -39 -15 -38 -29 -68 -37 -76
-21 -20 -26 -35 -21 -56 1 -4 3 -16 4 -26 1 -10 4 -30 6 -44 2 -14 5 -35 5
-47 0 -12 2 -25 4 -30 2 -5 3 -13 3 -19 0 -5 2 -18 4 -27 5 -20 12 -82 12 -99
0 -7 2 -17 4 -23 2 -6 4 -18 5 -27 4 -50 8 -55 36 -55 30 0 32 4 25 42 -2 11
-4 24 -4 28 0 4 -2 14 -4 22 -2 8 -5 23 -6 33 -1 10 -3 21 -4 26 -1 4 -3 16
-5 28 -1 11 -5 31 -7 45 -10 62 -19 130 -21 159 -1 16 -1 16 8 33 16 27 22 27
27 0 2 -9 6 -22 8 -28 2 -6 4 -13 4 -14 0 -2 2 -8 5 -13 3 -6 7 -17 8 -26 2
-9 6 -26 10 -38 7 -23 52 -202 59 -235 12 -58 16 -63 45 -64 31 -1 36 5 27 34
-2 7 -5 18 -7 25 -2 7 -4 17 -6 22 -1 6 -5 20 -9 33 -3 13 -8 31 -11 41 -3 10
-6 25 -8 33 -2 8 -6 23 -9 33 -3 10 -10 32 -14 50 -5 18 -11 40 -13 49 -3 9
-6 24 -8 32 -2 8 -4 16 -5 18 -2 4 -17 60 -22 84 -2 9 -4 17 -5 18 -4 6 -12
45 -12 57 0 14 0 14 29 75 50 107 53 114 72 156 46 103 54 120 63 139 27 57
14 88 -47 108 -13 4 -29 11 -36 15 -7 4 -18 10 -25 13 -22 9 -48 19 -59 23 -6
2 -26 10 -44 19 -35 16 -65 21 -79 12z"/>
</g>
</svg>
