<?xml version="1.0" standalone="no"?>
<!DOCTYPE svg PUBLIC "-//W3C//DTD SVG 20010904//EN"
 "http://www.w3.org/TR/2001/REC-SVG-20010904/DTD/svg10.dtd">
<svg version="1.0" xmlns="http://www.w3.org/2000/svg"
 width="68.000000pt" height="100.000000pt" viewBox="0 0 68.000000 100.000000"
 preserveAspectRatio="xMidYMid meet">
<metadata>
Created by potrace 1.16, written by Peter Selinger 2001-2019
</metadata>
<g transform="translate(0.000000,100.000000) scale(0.100000,-0.100000)"
fill="#000000" stroke="none">
<path d="M265 750 c-70 -138 -122 -228 -151 -261 -24 -27 -44 -51 -44 -52 0
-1 -9 -72 -20 -157 -23 -181 -25 -224 -7 -238 29 -24 39 6 58 179 20 181 32
229 55 229 8 0 14 -3 14 -7 0 -67 33 -400 41 -408 6 -6 15 -6 27 2 19 12 19 1
-3 243 -25 266 -31 231 76 438 91 176 114 205 134 171 4 -5 -30 -103 -75 -216
l-83 -206 13 -204 c13 -210 21 -240 56 -226 13 5 15 16 11 52 -3 25 -11 116
-18 201 l-12 155 43 105 c23 58 58 148 77 200 20 52 39 99 43 104 13 13 58 -2
64 -22 5 -16 -108 -288 -166 -398 l-21 -41 17 -149 c9 -82 19 -161 22 -176 6
-29 24 -41 44 -28 11 7 8 39 -13 169 -14 89 -24 168 -20 177 13 36 31 -3 73
-164 25 -95 50 -177 57 -183 15 -15 43 -4 43 17 0 9 -25 103 -55 209 -30 105
-55 201 -55 213 0 11 34 93 75 182 41 89 75 170 75 181 0 24 -24 39 -132 83
-138 57 -121 69 -243 -174z"/>
</g>
</svg>
