<?xml version="1.0" standalone="no"?>
<!DOCTYPE svg PUBLIC "-//W3C//DTD SVG 20010904//EN"
 "http://www.w3.org/TR/2001/REC-SVG-20010904/DTD/svg10.dtd">
<svg version="1.0" xmlns="http://www.w3.org/2000/svg"
 width="94.000000pt" height="148.000000pt" viewBox="0 0 94.000000 148.000000"
 preserveAspectRatio="xMidYMid meet">
<metadata>
Created by potrace 1.16, written by Peter Selinger 2001-2019
</metadata>
<g transform="translate(0.000000,148.000000) scale(0.100000,-0.100000)"
fill="#000000" stroke="none">
<path d="M456 1327 c-78 -167 -210 -427 -313 -615 l-35 -63 15 -57 c97 -372
127 -493 127 -510 0 -22 18 -32 56 -32 29 0 30 15 9 86 -8 27 -39 142 -69 256
l-55 208 68 147 c38 82 100 213 138 293 38 80 84 180 103 223 34 77 44 86 81
67 25 -14 25 -17 -17 -107 -20 -43 -76 -168 -126 -278 -49 -110 -101 -225
-114 -255 -14 -30 -31 -61 -38 -70 -11 -13 -2 -59 58 -290 70 -273 71 -275 99
-278 16 -2 29 2 32 10 3 8 -10 68 -29 134 -19 66 -42 153 -51 194 -9 41 -21
93 -26 115 -6 22 -13 51 -15 65 -4 18 20 80 79 210 46 102 93 205 105 230 11
25 41 92 67 150 26 58 50 109 55 113 10 11 60 -21 60 -38 0 -6 -41 -97 -91
-201 -50 -104 -102 -214 -116 -244 -14 -30 -41 -86 -60 -123 -19 -39 -31 -73
-26 -80 4 -7 30 -126 58 -266 48 -236 53 -255 75 -263 43 -16 45 4 17 129 -14
65 -34 154 -43 198 -9 44 -20 98 -25 120 -5 22 -12 56 -15 75 -6 40 9 71 26
54 9 -9 82 -294 130 -504 14 -62 25 -80 49 -80 37 1 41 13 21 76 -10 33 -39
139 -64 235 -25 96 -52 201 -62 234 -34 126 -38 155 -22 171 13 13 17 10 31
-28 28 -77 164 -511 187 -596 13 -49 29 -86 38 -89 20 -8 46 10 50 34 2 11
-53 188 -122 393 -70 206 -126 381 -126 390 0 8 41 98 91 200 66 135 88 189
81 200 -16 26 -243 150 -274 150 -27 0 -32 -7 -72 -93z"/>
</g>
</svg>
