<?xml version="1.0" standalone="no"?>
<!DOCTYPE svg PUBLIC "-//W3C//DTD SVG 20010904//EN"
 "http://www.w3.org/TR/2001/REC-SVG-20010904/DTD/svg10.dtd">
<svg version="1.0" xmlns="http://www.w3.org/2000/svg"
 width="374.000000pt" height="590.000000pt" viewBox="0 0 374.000000 590.000000"
 preserveAspectRatio="xMidYMid meet">
<metadata>
Created by potrace 1.16, written by Peter Selinger 2001-2019
</metadata>
<g transform="translate(0.000000,590.000000) scale(0.500000,-0.500000)"
fill="#000000" stroke="none">
<path d="M402 1136 c-4 -2 -40 -72 -40 -77 0 -2 -27 -60 -32 -69 -4 -7 -7 -12
-22 -45 -10 -22 -75 -152 -99 -198 -11 -21 -35 -65 -53 -99 -17 -34 -40 -76
-50 -95 -20 -38 -19 -36 -14 -51 5 -16 26 -94 58 -219 4 -16 12 -46 17 -66 5
-20 11 -41 12 -47 6 -25 9 -40 12 -49 2 -6 4 -17 6 -25 9 -48 9 -48 39 -48 34
0 35 2 26 36 -4 13 -8 28 -9 33 -1 6 -5 19 -8 30 -3 11 -9 34 -14 52 -5 18
-11 41 -14 52 -12 46 -22 83 -25 97 -4 18 -19 73 -28 106 -8 30 -9 25 25 98
16 35 36 76 43 92 50 108 73 156 104 220 20 40 37 76 38 80 4 15 55 122 59
124 5 4 22 -1 38 -12 8 -7 7 -14 -7 -45 -9 -20 -122 -275 -129 -290 -5 -11
-13 -29 -18 -40 -5 -11 -11 -24 -14 -30 -2 -5 -7 -15 -10 -21 -2 -6 -7 -16
-10 -23 -22 -54 -47 -107 -55 -114 -9 -8 -10 0 17 -105 5 -19 12 -46 15 -59
16 -61 31 -121 45 -177 22 -88 23 -94 27 -98 6 -6 38 -7 49 -2 4 3 4 13 0 28
-13 45 -33 119 -44 161 -13 51 -23 91 -24 101 -1 6 -3 16 -6 23 -2 7 -6 20 -7
29 -1 9 -5 22 -7 29 -5 13 -13 39 -13 45 0 5 30 75 65 150 11 24 41 89 98 215
97 213 84 192 110 177 29 -17 31 -10 -21 -116 -19 -40 -42 -89 -57 -122 -5
-12 -17 -36 -25 -54 -9 -18 -19 -38 -21 -45 -3 -7 -13 -26 -21 -43 -9 -17 -16
-33 -17 -36 -1 -3 -13 -28 -26 -56 -27 -54 -28 -59 -21 -71 4 -7 10 -32 21
-89 3 -14 25 -125 30 -150 7 -34 28 -144 30 -160 2 -15 7 -18 31 -18 30 0 30
0 18 54 -3 15 -8 36 -10 46 -2 10 -6 27 -8 36 -2 9 -6 28 -9 42 -3 14 -7 33
-9 43 -2 10 -6 29 -9 43 -10 49 -13 61 -18 86 -3 14 -7 33 -9 44 -6 25 -6 43
0 55 13 27 19 15 41 -81 1 -6 16 -64 32 -129 28 -115 34 -139 40 -164 2 -7 5
-21 8 -33 2 -12 5 -24 6 -27 3 -14 29 -22 50 -15 12 4 12 6 -5 66 -4 13 -8 28
-9 33 -1 6 -5 20 -9 32 -3 12 -10 38 -15 58 -5 20 -11 43 -13 51 -7 24 -20 75
-29 111 -5 19 -12 45 -15 58 -13 51 -31 118 -33 128 -4 18 11 37 19 24 8 -13
43 -115 86 -251 6 -18 13 -42 17 -53 26 -80 50 -158 58 -190 13 -57 21 -69 43
-69 23 0 23 -1 23 36 l0 31 -58 174 c-33 96 -68 201 -79 233 -11 32 -26 79
-34 103 -8 24 -16 47 -17 50 -11 20 -12 15 50 141 66 134 90 184 92 189 3 10
-15 27 -51 46 -15 8 -31 17 -34 19 -3 2 -14 8 -26 14 -12 6 -23 12 -26 14 -5
3 -22 13 -51 30 -17 9 -49 14 -61 8z"/>
</g>
</svg>
