<?xml version="1.0" standalone="no"?>
<!DOCTYPE svg PUBLIC "-//W3C//DTD SVG 20010904//EN"
 "http://www.w3.org/TR/2001/REC-SVG-20010904/DTD/svg10.dtd">
<svg version="1.0" xmlns="http://www.w3.org/2000/svg"
 width="64.000000pt" height="100.000000pt" viewBox="0 0 64.000000 100.000000"
 preserveAspectRatio="xMidYMid meet">
<metadata>
Created by potrace 1.16, written by Peter Selinger 2001-2019
</metadata>
<g transform="translate(0.000000,100.000000) scale(0.100000,-0.100000)"
fill="#000000" stroke="none">
<path d="M211 703 c-72 -141 -131 -265 -131 -275 0 -10 21 -101 46 -203 47
-185 60 -213 90 -183 11 11 6 40 -27 158 -60 220 -62 193 21 370 121 262 154
325 170 325 8 0 16 -7 18 -16 2 -9 -45 -119 -103 -245 l-106 -227 36 -151 c47
-200 53 -216 74 -216 10 0 20 2 23 5 3 3 -15 83 -39 177 l-45 171 40 91 c96
218 163 361 174 367 16 10 28 2 28 -20 0 -10 -43 -111 -95 -223 l-95 -204 29
-135 c16 -74 33 -154 37 -179 7 -37 13 -46 33 -48 28 -4 29 -20 -19 210 -31
147 -33 186 -11 162 5 -5 28 -87 50 -182 23 -96 43 -178 47 -183 8 -14 44 -11
44 4 0 7 -7 36 -15 63 -47 161 -103 378 -99 386 3 4 9 8 13 8 8 0 65 -170 126
-372 25 -85 44 -116 65 -103 5 3 10 18 10 31 0 24 -62 217 -137 424 l-34 95
61 123 c33 68 60 132 60 142 0 13 -26 32 -86 64 -47 25 -94 46 -104 46 -14 0
-51 -63 -149 -257z"/>
</g>
</svg>
