<?xml version="1.0" standalone="no"?>
<!DOCTYPE svg PUBLIC "-//W3C//DTD SVG 20010904//EN"
 "http://www.w3.org/TR/2001/REC-SVG-20010904/DTD/svg10.dtd">
<svg version="1.0" xmlns="http://www.w3.org/2000/svg"
 width="336.000000pt" height="590.000000pt" viewBox="0 0 336.000000 590.000000"
 preserveAspectRatio="xMidYMid meet">
<metadata>
Created by potrace 1.16, written by Peter Selinger 2001-2019
</metadata>
<g transform="translate(0.000000,590.000000) scale(0.500000,-0.500000)"
fill="#000000" stroke="none">
<path d="M350 1146 c-6 -5 -18 -22 -28 -40 -4 -8 -9 -16 -11 -18 -4 -4 -14
-23 -16 -32 -1 -3 -6 -15 -11 -26 -5 -10 -10 -22 -11 -26 -1 -5 -6 -12 -15
-21 -13 -13 -14 -15 -15 -26 -1 -12 -20 -53 -30 -64 -2 -3 -9 -14 -14 -24 -5
-12 -11 -21 -15 -23 -4 -3 -7 -8 -8 -12 -1 -5 -7 -17 -12 -28 -6 -14 -10 -24
-10 -28 0 -8 -35 -82 -45 -95 -42 -55 -89 -183 -77 -213 2 -5 4 -13 4 -16 0
-3 2 -10 4 -17 2 -6 4 -13 4 -16 0 -3 1 -7 2 -10 2 -2 4 -10 5 -17 2 -7 4 -17
5 -22 5 -19 6 -25 9 -37 1 -7 4 -15 5 -18 1 -3 2 -8 2 -11 0 -3 2 -10 4 -16 2
-6 4 -15 4 -20 0 -6 1 -13 3 -16 1 -3 3 -10 4 -16 1 -6 3 -13 4 -16 2 -3 3 -9
3 -13 0 -4 2 -11 4 -17 2 -6 4 -13 4 -16 0 -3 1 -9 3 -13 1 -3 3 -11 4 -17 1
-6 3 -13 4 -16 2 -3 3 -9 3 -13 0 -4 1 -10 3 -13 1 -3 3 -10 4 -16 1 -6 3 -13
4 -16 2 -3 3 -9 3 -12 0 -22 35 -37 52 -22 6 4 7 36 2 42 -1 2 -3 9 -4 16 -1
7 -3 15 -5 18 -2 3 -3 9 -3 12 0 3 -2 10 -4 16 -2 6 -4 13 -4 16 0 3 -1 9 -3
12 -2 3 -4 10 -4 15 -1 6 -3 12 -4 15 -1 3 -3 9 -4 15 -1 5 -2 12 -4 16 -1 3
-3 10 -4 16 -1 5 -3 12 -4 15 -2 3 -3 9 -3 12 0 3 -2 10 -4 16 -2 6 -4 14 -4
19 0 5 -2 13 -4 19 -2 6 -4 13 -4 16 0 3 -1 9 -3 12 -1 3 -3 10 -4 16 -1 6 -3
13 -4 16 -2 3 -3 9 -3 12 0 3 -2 10 -4 16 -2 6 -4 13 -4 16 0 3 -2 10 -4 16
-2 6 -4 13 -4 17 0 3 -1 8 -3 11 -8 14 -6 20 32 95 19 39 37 72 39 74 2 3 38
71 78 152 41 81 77 151 79 154 3 4 17 29 31 57 35 70 32 67 50 56 24 -15 24
-16 11 -44 -5 -10 -10 -21 -10 -25 -1 -3 -23 -48 -48 -99 -26 -51 -48 -97 -49
-102 -1 -4 -23 -51 -49 -103 -26 -52 -47 -96 -47 -98 0 -2 -13 -30 -30 -63
l-30 -60 0 -23 c0 -14 1 -25 2 -28 2 -2 4 -9 5 -16 3 -12 4 -18 11 -36 2 -6 4
-13 4 -17 0 -3 1 -9 3 -13 1 -3 3 -10 4 -15 1 -5 2 -12 4 -16 7 -18 11 -33 11
-38 0 -3 2 -10 4 -16 2 -6 4 -13 4 -16 0 -3 1 -9 3 -12 1 -3 3 -10 4 -15 0 -6
2 -13 4 -17 5 -12 11 -35 11 -41 0 -3 1 -8 3 -11 2 -3 3 -8 3 -11 0 -6 6 -29
11 -41 2 -3 3 -9 3 -12 0 -32 33 -56 52 -37 4 4 4 47 0 55 -1 3 -4 10 -5 17
-3 12 -4 17 -11 36 -2 6 -4 13 -4 16 0 3 -2 10 -4 15 -2 5 -4 11 -4 13 0 3 -4
16 -8 29 -4 13 -8 26 -8 29 0 3 -1 8 -3 11 -1 3 -3 9 -4 15 -1 5 -3 12 -4 15
-2 3 -3 8 -3 10 0 5 -7 29 -11 40 -2 3 -4 11 -4 16 -1 5 -3 12 -4 16 -2 4 -4
12 -5 17 -2 11 -7 26 -11 37 -6 12 -4 20 10 48 16 30 23 36 26 19 1 -3 3 -10
5 -16 7 -21 8 -24 11 -37 1 -7 3 -15 5 -17 1 -3 2 -7 2 -11 0 -3 2 -10 4 -16
2 -6 4 -13 4 -15 0 -3 3 -15 7 -26 3 -11 7 -24 9 -30 1 -5 3 -14 4 -18 5 -21
6 -27 9 -38 1 -7 4 -15 5 -18 1 -3 2 -7 2 -10 0 -4 7 -28 11 -38 2 -4 3 -12 4
-17 1 -6 3 -13 4 -16 2 -3 3 -9 3 -12 0 -3 1 -9 3 -14 2 -4 4 -12 5 -18 1 -6
2 -14 4 -17 7 -21 9 -29 10 -38 5 -30 9 -35 31 -35 23 0 33 33 18 61 -1 4 -3
10 -3 13 0 3 -2 10 -4 16 -6 15 -8 23 -10 31 -1 4 -4 13 -6 20 -2 7 -4 15 -4
18 0 3 -1 8 -3 11 -2 3 -4 10 -5 16 -2 12 -6 27 -11 38 -2 3 -3 8 -3 11 0 3
-2 10 -4 16 -2 7 -4 14 -4 17 0 3 -2 10 -4 16 -2 6 -4 13 -4 16 0 3 -1 9 -3
12 -2 3 -3 9 -4 14 -1 5 -4 18 -8 29 -4 11 -7 24 -8 28 0 5 -2 11 -4 14 -2 3
-3 9 -3 12 0 4 -2 11 -4 17 -2 6 -4 13 -4 16 0 2 -2 9 -4 15 -7 19 -8 24 -10
34 -2 12 -8 24 -15 31 -8 7 -4 21 13 50 7 11 17 6 20 -11 2 -10 6 -23 11 -37
6 -15 9 -27 11 -36 1 -9 6 -23 11 -38 2 -4 4 -11 5 -17 2 -13 7 -31 10 -36 2
-5 7 -21 11 -38 3 -12 5 -18 11 -36 2 -6 4 -13 4 -16 0 -3 2 -10 4 -16 7 -19
8 -24 10 -35 1 -6 3 -14 5 -18 1 -4 4 -14 7 -22 2 -8 6 -18 7 -22 2 -3 3 -8 3
-11 0 -4 7 -28 11 -39 2 -3 4 -11 4 -16 1 -5 2 -12 4 -16 1 -4 4 -14 7 -22 2
-8 5 -17 7 -20 1 -3 3 -11 4 -18 9 -47 17 -56 45 -53 17 1 24 30 13 53 -4 10
-9 26 -12 39 -1 7 -5 18 -8 26 -3 8 -6 17 -7 21 -1 4 -3 10 -5 13 -2 3 -3 9
-3 13 0 3 -2 10 -4 16 -7 18 -9 23 -11 36 -3 14 -7 29 -12 40 -2 3 -3 7 -3 9
0 1 -2 6 -4 11 -2 5 -4 12 -4 16 0 3 -1 9 -3 13 -4 10 -9 25 -11 36 -1 6 -5
19 -9 30 -4 11 -7 23 -7 25 0 3 -3 13 -6 22 -4 9 -7 21 -9 26 -1 5 -3 11 -5
13 -1 3 -2 7 -2 10 0 3 -3 15 -7 26 -4 11 -8 25 -9 30 -2 10 -5 22 -11 37 -6
16 -9 28 -11 37 -2 10 -5 21 -14 42 -6 17 -9 9 52 131 107 213 95 193 112 185
27 -12 29 -33 7 -62 -3 -3 -9 -15 -15 -26 -5 -11 -12 -23 -15 -26 -3 -4 -8
-12 -11 -19 -3 -6 -8 -15 -11 -19 -2 -3 -9 -16 -16 -28 -6 -12 -12 -23 -14
-25 -2 -1 -6 -8 -9 -16 -4 -7 -9 -16 -12 -20 -15 -20 -21 -61 -11 -79 1 -4 3
-8 3 -10 0 -2 2 -8 4 -12 2 -4 4 -9 4 -11 0 -3 7 -27 11 -35 2 -4 3 -9 3 -13
0 -5 2 -11 10 -34 1 -4 4 -11 5 -16 2 -5 6 -17 9 -26 3 -9 6 -19 6 -22 0 -4
11 -40 19 -62 7 -21 11 -34 11 -38 0 -3 1 -9 3 -12 3 -8 8 -24 11 -34 1 -4 3
-10 5 -13 2 -3 3 -7 3 -9 0 -2 2 -7 4 -13 7 -19 8 -24 11 -37 1 -7 3 -16 5
-19 6 -16 15 -43 16 -49 1 -4 3 -10 5 -14 2 -5 3 -10 3 -13 0 -5 11 -40 19
-63 6 -17 11 -33 11 -36 0 -1 3 -6 6 -11 3 -4 7 -12 8 -16 4 -14 9 -18 31 -19
37 -1 39 2 22 48 -2 4 -4 11 -6 16 -7 24 -14 44 -17 52 -2 6 -4 12 -4 16 0 3
-1 9 -3 12 -3 7 -7 19 -12 36 -3 10 -6 20 -10 30 -2 4 -4 12 -5 18 -2 10 -4
20 -11 38 -1 4 -4 13 -7 21 -2 8 -6 17 -7 21 -5 14 -9 27 -12 40 -1 7 -4 16
-5 20 -1 4 -4 12 -6 17 -2 6 -5 13 -6 17 -1 4 -4 11 -5 16 -2 5 -4 12 -5 14
-1 2 -2 6 -2 9 0 6 -5 23 -12 41 -2 6 -4 11 -4 12 0 1 -1 5 -3 9 -3 7 -8 23
-11 34 -2 4 -3 9 -4 10 -1 2 -3 8 -4 14 -1 7 -3 15 -5 19 -4 11 -7 20 -10 30
-6 18 -10 29 -15 41 -7 15 -7 19 -1 26 2 3 7 12 11 19 4 7 9 15 11 18 3 3 10
15 16 27 6 12 14 24 16 27 3 3 8 11 12 19 3 8 8 15 10 17 2 2 9 13 15 26 6 13
13 24 15 26 2 1 7 9 11 18 5 8 11 17 13 20 21 26 19 72 -4 83 -3 2 -11 8 -17
14 -6 6 -14 12 -17 14 -3 2 -7 7 -9 12 -3 6 -6 10 -18 17 -8 5 -19 12 -24 17
-6 4 -12 7 -13 7 -1 0 -5 3 -9 7 -4 4 -11 10 -16 12 -5 3 -15 12 -23 19 -21
20 -21 20 -41 20 -14 0 -18 -1 -22 -4z"/>
</g>
</svg>
