<?xml version="1.0" standalone="no"?>
<!DOCTYPE svg PUBLIC "-//W3C//DTD SVG 20010904//EN"
 "http://www.w3.org/TR/2001/REC-SVG-20010904/DTD/svg10.dtd">
<svg version="1.0" xmlns="http://www.w3.org/2000/svg"
 width="84.000000pt" height="148.000000pt" viewBox="0 0 84.000000 148.000000"
 preserveAspectRatio="xMidYMid meet">
<metadata>
Created by potrace 1.16, written by Peter Selinger 2001-2019
</metadata>
<g transform="translate(0.000000,148.000000) scale(0.100000,-0.100000)"
fill="#000000" stroke="none">
<path d="M421 1414 c-21 -27 -81 -147 -81 -162 0 -5 -9 -17 -20 -27 -11 -10
-20 -25 -20 -35 0 -9 -20 -49 -45 -89 -24 -40 -51 -91 -59 -114 -8 -23 -48
-108 -90 -188 -42 -80 -76 -156 -76 -168 0 -12 14 -77 31 -144 17 -67 32 -131
34 -142 1 -11 5 -27 9 -35 3 -8 8 -28 10 -45 13 -82 48 -211 62 -221 21 -16
54 -6 54 18 0 10 -18 87 -39 171 -39 149 -57 225 -82 338 l-12 57 80 153 c45
85 127 245 183 357 56 111 108 202 114 202 6 0 20 -7 30 -15 16 -12 18 -19 9
-37 -6 -13 -42 -88 -81 -168 -38 -80 -95 -199 -127 -265 -31 -66 -74 -154 -95
-196 -49 -98 -52 -77 50 -439 10 -36 23 -91 30 -122 11 -55 13 -58 41 -58 25
0 29 4 29 29 0 16 -7 51 -15 77 -8 27 -37 130 -64 229 -48 176 -49 180 -33
214 25 52 39 49 52 -11 23 -101 29 -124 82 -328 53 -200 55 -205 81 -208 25
-3 27 0 27 30 0 19 -9 61 -19 94 -10 32 -29 97 -41 144 -21 78 -43 162 -71
265 -16 55 -29 96 -41 121 -8 16 -6 28 7 48 28 43 22 56 95 -194 58 -194 107
-370 122 -435 14 -62 24 -75 54 -75 31 0 32 33 3 121 -12 35 -26 80 -31 99
-15 59 -24 88 -82 285 -31 105 -60 201 -65 215 -38 109 -42 88 59 290 50 102
95 189 99 193 11 11 34 0 48 -22 10 -15 4 -32 -37 -100 -82 -138 -130 -229
-130 -247 0 -10 8 -43 19 -73 10 -31 33 -103 51 -161 17 -58 45 -148 61 -200
16 -52 39 -126 51 -165 11 -38 33 -106 47 -150 27 -79 27 -80 64 -83 20 -2 37
1 37 7 0 6 -18 68 -41 138 -22 70 -52 166 -66 213 -39 127 -112 357 -134 421
l-19 57 95 159 c52 88 95 169 95 180 0 32 -222 223 -259 223 -11 0 -29 -12
-40 -26z"/>
</g>
</svg>
