<?xml version="1.0" standalone="no"?>
<!DOCTYPE svg PUBLIC "-//W3C//DTD SVG 20010904//EN"
 "http://www.w3.org/TR/2001/REC-SVG-20010904/DTD/svg10.dtd">
<svg version="1.0" xmlns="http://www.w3.org/2000/svg"
 width="57.000000pt" height="100.000000pt" viewBox="0 0 57.000000 100.000000"
 preserveAspectRatio="xMidYMid meet">
<metadata>
Created by potrace 1.16, written by Peter Selinger 2001-2019
</metadata>
<g transform="translate(0.000000,100.000000) scale(0.100000,-0.100000)"
fill="#000000" stroke="none">
<path d="M282 958 c-16 -21 -240 -467 -252 -503 -9 -28 -5 -62 29 -213 22
-100 45 -190 51 -201 11 -22 35 -28 45 -11 4 6 -15 95 -41 198 l-47 187 122
243 c114 225 138 261 156 231 4 -5 -46 -120 -110 -255 -88 -183 -116 -251
-112 -272 16 -96 84 -332 96 -337 33 -13 31 17 -8 167 -23 85 -41 167 -41 181
0 25 16 45 27 33 3 -3 25 -85 49 -182 43 -172 57 -210 75 -198 16 10 9 48 -42
234 -57 203 -66 250 -51 250 20 0 30 -30 87 -245 57 -216 72 -254 94 -241 19
12 13 42 -64 295 -41 136 -75 255 -75 264 0 21 108 239 124 249 6 4 17 1 24
-6 11 -11 3 -31 -44 -115 -69 -123 -70 -105 20 -396 90 -288 93 -297 120 -293
14 2 21 10 20 23 -1 11 -32 117 -69 235 -37 118 -75 238 -83 267 l-15 51 62
103 c33 56 61 110 61 119 0 9 -19 34 -42 56 -91 87 -141 112 -166 82z"/>
</g>
</svg>
