<?xml version="1.0" standalone="no"?>
<!DOCTYPE svg PUBLIC "-//W3C//DTD SVG 20010904//EN"
 "http://www.w3.org/TR/2001/REC-SVG-20010904/DTD/svg10.dtd">
<svg version="1.0" xmlns="http://www.w3.org/2000/svg"
 width="59.000000pt" height="100.000000pt" viewBox="0 0 59.000000 100.000000"
 preserveAspectRatio="xMidYMid meet">
<metadata>
Created by potrace 1.16, written by Peter Selinger 2001-2019
</metadata>
<g transform="translate(0.000000,100.000000) scale(0.100000,-0.100000)"
fill="#000000" stroke="none">
<path d="M87 963 c-22 -3 -32 -13 -44 -41 -20 -48 -13 -83 34 -167 22 -38 66
-120 98 -182 l59 -111 -53 -201 c-29 -111 -50 -208 -47 -216 7 -18 30 -19 43
-2 10 13 103 392 103 421 0 9 -34 82 -76 162 -42 79 -71 144 -65 144 24 0 204
-282 197 -309 -96 -365 -107 -414 -98 -423 18 -18 41 -1 50 39 39 157 92 391
92 405 0 16 -88 158 -164 263 -20 27 -36 56 -36 63 0 38 44 -8 137 -143 121
-174 115 -124 52 -419 -22 -104 -38 -195 -35 -203 8 -19 34 -16 44 5 5 9 20
83 32 164 22 139 32 179 44 167 3 -3 15 -77 27 -165 12 -87 26 -165 31 -171
15 -19 36 -16 43 6 6 20 -58 411 -75 457 -6 16 -64 103 -129 194 -65 91 -126
181 -135 201 -23 49 -68 70 -129 62z m68 -94 c0 -19 -6 -25 -29 -27 -43 -5
-61 32 -30 63 14 14 19 14 38 2 11 -8 21 -25 21 -38z"/>
</g>
</svg>
