<?xml version="1.0" standalone="no"?>
<!DOCTYPE svg PUBLIC "-//W3C//DTD SVG 20010904//EN"
 "http://www.w3.org/TR/2001/REC-SVG-20010904/DTD/svg10.dtd">
<svg version="1.0" xmlns="http://www.w3.org/2000/svg"
 width="88.000000pt" height="148.000000pt" viewBox="0 0 88.000000 148.000000"
 preserveAspectRatio="xMidYMid meet">
<metadata>
Created by potrace 1.16, written by Peter Selinger 2001-2019
</metadata>
<g transform="translate(0.000000,148.000000) scale(0.100000,-0.100000)"
fill="#000000" stroke="none">
<path d="M97 1409 c-28 -16 -47 -71 -47 -133 0 -43 5 -61 24 -83 13 -15 74
-125 136 -243 62 -118 119 -226 127 -239 8 -13 13 -33 10 -45 -14 -65 -128
-499 -142 -540 -9 -26 -14 -54 -11 -62 6 -15 44 -19 61 -6 9 6 150 539 163
614 4 25 -11 58 -108 233 -128 231 -141 258 -132 267 12 12 35 -20 252 -336
49 -71 87 -133 84 -137 -3 -5 -34 -115 -69 -245 -36 -130 -74 -266 -85 -301
-28 -90 -27 -103 9 -103 39 0 48 14 67 106 9 43 45 189 80 323 l65 244 -85
126 c-46 69 -119 176 -162 238 -65 95 -75 114 -65 127 19 23 33 11 94 -79 30
-44 102 -147 161 -229 116 -163 113 -153 86 -271 -6 -22 -26 -116 -45 -210
-20 -93 -45 -212 -56 -262 -11 -51 -18 -97 -14 -103 12 -19 55 -11 65 13 5 12
28 125 50 252 23 127 43 241 46 255 l6 25 13 -30 c8 -16 28 -129 45 -250 39
-267 39 -270 71 -270 23 0 24 2 23 80 -1 101 -89 597 -112 634 -29 46 -293
414 -327 456 -18 22 -42 64 -55 92 -32 74 -73 103 -147 103 -32 0 -66 -5 -76
-11z m120 -71 c33 -31 30 -64 -9 -88 -42 -25 -64 -25 -78 -1 -40 75 28 145 87
89z"/>
</g>
</svg>
