<?xml version="1.0" standalone="no"?>
<!DOCTYPE svg PUBLIC "-//W3C//DTD SVG 20010904//EN"
 "http://www.w3.org/TR/2001/REC-SVG-20010904/DTD/svg10.dtd">
<svg version="1.0" xmlns="http://www.w3.org/2000/svg"
 width="59.000000pt" height="100.000000pt" viewBox="0 0 59.000000 100.000000"
 preserveAspectRatio="xMidYMid meet">
<metadata>
Created by potrace 1.16, written by Peter Selinger 2001-2019
</metadata>
<g transform="translate(0.000000,100.000000) scale(0.100000,-0.100000)"
fill="#000000" stroke="none">
<path d="M426 955 c-46 -16 -60 -30 -73 -70 -6 -16 -58 -96 -115 -177 -58 -80
-110 -159 -116 -175 -15 -37 -81 -369 -89 -444 -5 -49 -3 -59 9 -59 28 0 36
24 61 183 23 148 30 177 41 166 3 -3 16 -78 31 -168 14 -90 28 -167 31 -172 8
-14 34 -11 40 5 3 7 -11 92 -32 187 -20 96 -39 203 -41 239 -5 62 -3 67 29
110 19 25 65 89 102 143 46 66 74 97 87 97 10 0 19 -7 19 -15 0 -8 -45 -77
-100 -154 -61 -85 -100 -149 -100 -164 0 -32 77 -405 90 -434 9 -22 34 -31 44
-15 2 4 -18 97 -45 207 -27 110 -49 210 -49 223 0 12 32 71 72 130 140 210
178 240 80 65 -33 -59 -69 -127 -81 -151 l-22 -42 46 -198 c25 -108 50 -207
55 -219 11 -26 38 -31 46 -9 3 8 -17 100 -45 205 -28 104 -51 198 -51 207 0
17 107 217 168 313 30 49 34 61 30 108 -7 80 -46 106 -122 78z m70 -61 c16
-24 16 -26 -4 -46 -18 -19 -25 -20 -47 -10 -37 17 -43 41 -16 64 31 25 47 23
67 -8z"/>
</g>
</svg>
