<?xml version="1.0" standalone="no"?>
<!DOCTYPE svg PUBLIC "-//W3C//DTD SVG 20010904//EN"
 "http://www.w3.org/TR/2001/REC-SVG-20010904/DTD/svg10.dtd">
<svg version="1.0" xmlns="http://www.w3.org/2000/svg"
 width="88.000000pt" height="148.000000pt" viewBox="0 0 88.000000 148.000000"
 preserveAspectRatio="xMidYMid meet">
<metadata>
Created by potrace 1.16, written by Peter Selinger 2001-2019
</metadata>
<g transform="translate(0.000000,148.000000) scale(0.100000,-0.100000)"
fill="#000000" stroke="none">
<path d="M598 1390 c-51 -32 -68 -54 -61 -79 3 -14 -55 -113 -76 -131 -4 -3
-40 -52 -81 -110 -41 -58 -97 -134 -123 -170 -70 -93 -82 -121 -106 -250 -12
-63 -26 -133 -30 -155 -11 -45 -24 -118 -41 -220 -7 -38 -16 -83 -21 -99 -5
-16 -9 -51 -9 -78 0 -45 2 -49 22 -46 20 3 25 15 44 113 39 195 64 339 64 366
0 15 6 42 14 60 14 33 14 34 20 9 3 -14 13 -68 21 -120 9 -52 20 -113 25 -135
4 -22 13 -71 20 -110 29 -175 41 -203 74 -176 9 8 11 22 5 53 -19 101 -41 207
-54 263 -8 34 -17 88 -21 120 -3 33 -12 78 -19 100 -7 23 -17 73 -20 112 -7
69 -6 73 22 110 17 21 90 122 163 226 73 103 138 187 144 187 19 -1 46 -26 46
-44 0 -9 -30 -56 -67 -105 -102 -136 -216 -290 -237 -323 -18 -28 -18 -32 -3
-91 9 -34 39 -163 67 -287 76 -342 71 -325 101 -328 29 -3 47 22 30 42 -5 6
-37 124 -71 261 -33 138 -67 273 -74 302 -17 61 -30 38 173 321 129 181 171
227 171 190 0 -6 -6 -19 -14 -27 -8 -9 -28 -43 -45 -76 -18 -33 -36 -67 -41
-75 -48 -78 -160 -285 -160 -295 0 -8 30 -130 66 -272 37 -142 70 -274 74
-293 9 -48 28 -80 46 -80 24 0 27 25 11 87 -159 610 -149 544 -99 630 21 37
50 88 64 113 14 25 35 63 48 85 12 22 43 76 68 120 25 44 55 93 68 108 44 52
21 186 -35 217 -39 20 -113 12 -163 -20z m141 -46 c63 -80 -29 -155 -108 -88
-17 14 -31 31 -31 38 0 25 68 73 107 75 6 1 21 -11 32 -25z"/>
</g>
</svg>
