<?xml version="1.0" standalone="no"?>
<!DOCTYPE svg PUBLIC "-//W3C//DTD SVG 20010904//EN"
 "http://www.w3.org/TR/2001/REC-SVG-20010904/DTD/svg10.dtd">
<svg version="1.0" xmlns="http://www.w3.org/2000/svg"
 width="54.000000pt" height="100.000000pt" viewBox="0 0 54.000000 100.000000"
 preserveAspectRatio="xMidYMid meet">
<metadata>
Created by potrace 1.16, written by Peter Selinger 2001-2019
</metadata>
<g transform="translate(0.000000,100.000000) scale(0.100000,-0.100000)"
fill="#000000" stroke="none">
<path d="M377 958 c-9 -7 -37 -65 -62 -128 -26 -63 -50 -118 -54 -123 -9 -9
-37 21 -85 92 -26 38 -34 60 -30 76 9 37 -4 65 -30 65 -20 0 -24 -6 -30 -52
-3 -29 -6 -124 -6 -211 0 -143 -2 -162 -22 -200 -18 -35 -23 -63 -26 -173 -3
-83 0 -145 7 -166 14 -43 64 -93 85 -85 24 9 19 37 -13 84 -35 52 -49 161 -31
247 21 101 28 85 46 -94 8 -87 82 -250 114 -250 30 0 35 25 11 59 -61 85 -96
227 -89 360 2 48 7 67 21 75 30 19 37 -10 38 -164 l0 -145 42 -85 c40 -82 68
-106 75 -68 2 10 -15 55 -37 100 -37 76 -41 91 -41 161 0 42 4 77 9 77 14 0
39 -61 56 -135 17 -72 63 -173 89 -194 13 -11 19 -11 31 -1 21 17 19 27 -15
79 -16 26 -36 78 -45 116 -17 73 -42 124 -94 189 -23 28 -31 49 -31 77 0 22 4
39 10 39 5 0 40 -40 76 -89 37 -50 73 -92 80 -95 21 -8 37 15 64 92 22 66 23
73 8 88 -22 22 -34 12 -53 -46 -9 -28 -20 -50 -23 -49 -10 0 -114 141 -119
160 -4 15 12 57 83 219 l16 35 21 -27 c12 -15 30 -38 40 -53 15 -21 22 -24 33
-14 27 23 9 70 -53 137 -34 35 -42 38 -66 20z m-182 -265 c19 -25 34 -51 32
-57 -6 -19 -75 -68 -86 -62 -12 8 -15 123 -5 150 10 25 21 19 59 -31z"/>
</g>
</svg>
