<?xml version="1.0" standalone="no"?>
<!DOCTYPE svg PUBLIC "-//W3C//DTD SVG 20010904//EN"
 "http://www.w3.org/TR/2001/REC-SVG-20010904/DTD/svg10.dtd">
<svg version="1.0" xmlns="http://www.w3.org/2000/svg"
 width="316.000000pt" height="590.000000pt" viewBox="0 0 316.000000 590.000000"
 preserveAspectRatio="xMidYMid meet">
<metadata>
Created by potrace 1.16, written by Peter Selinger 2001-2019
</metadata>
<g transform="translate(0.000000,590.000000) scale(0.500000,-0.500000)"
fill="#000000" stroke="none">
<path d="M447 1138 c-9 -3 -10 -5 -29 -49 -8 -21 -24 -59 -35 -85 -11 -26 -31
-75 -44 -109 -31 -77 -35 -82 -47 -69 -5 6 -87 115 -112 151 l-13 18 1 50 c1
63 2 60 -30 61 -33 1 -33 1 -33 -50 -1 -23 -2 -129 -3 -237 -2 -214 -2 -207
-14 -225 -9 -15 -29 -64 -39 -97 -7 -23 -7 -23 -7 -164 l0 -140 7 -22 c12 -38
23 -56 42 -71 6 -4 13 -12 17 -18 21 -33 56 -22 56 17 0 18 -4 25 -23 45 -25
27 -51 85 -53 118 -8 123 -5 164 19 239 22 66 36 67 28 2 -4 -32 -2 -63 6 -99
4 -14 6 -32 7 -52 4 -66 11 -97 30 -136 6 -13 15 -32 20 -43 4 -11 11 -25 15
-31 4 -6 8 -15 10 -20 2 -4 5 -12 9 -17 15 -22 21 -32 25 -40 7 -12 13 -16 29
-16 37 1 42 25 13 67 -5 7 -14 20 -20 28 -15 22 -26 41 -31 57 -2 8 -10 26
-17 41 -13 28 -23 65 -23 85 0 5 -2 14 -4 20 -2 7 -4 19 -5 27 -1 8 -4 28 -8
44 -9 37 -10 56 -6 78 4 24 5 51 3 79 -2 24 -2 24 4 34 24 34 49 49 59 36 5
-5 6 -241 2 -311 -3 -49 24 -130 60 -179 6 -8 13 -22 17 -32 17 -44 28 -57 48
-54 27 3 32 23 15 59 -6 12 -16 34 -22 49 -16 37 -18 41 -30 53 -9 9 -13 16
-23 39 l-13 28 -1 95 c0 129 2 134 32 74 7 -14 15 -29 18 -33 16 -23 26 -51
26 -71 0 -6 1 -16 3 -22 1 -6 4 -20 6 -31 9 -56 34 -117 71 -175 4 -5 10 -14
13 -19 9 -14 15 -18 28 -18 41 -3 41 44 0 94 -7 9 -15 21 -17 27 -3 6 -9 19
-14 29 -11 21 -15 34 -17 55 -2 28 -12 75 -24 115 -5 13 -14 31 -30 53 -7 10
-18 26 -23 36 -14 23 -23 35 -47 60 -25 25 -38 106 -22 130 9 12 19 0 163
-195 34 -46 60 -45 76 5 12 36 30 86 37 103 19 46 10 82 -20 78 -18 -2 -18 -2
-38 -62 -27 -81 -17 -82 -85 7 -25 33 -56 73 -69 90 -32 42 -33 31 6 117 44
101 57 130 57 132 0 1 4 10 9 21 5 10 11 26 15 35 16 40 16 40 71 -34 34 -45
39 -49 54 -43 7 4 9 10 9 34 0 29 1 27 -43 84 -21 27 -41 53 -44 59 -9 12 -36
17 -58 11z m-266 -257 c6 -8 21 -27 34 -44 13 -16 29 -38 37 -47 26 -32 26
-33 0 -55 -10 -9 -28 -24 -40 -34 -61 -53 -59 -53 -57 17 5 197 4 189 26 163z"/>
</g>
</svg>
