<?xml version="1.0" standalone="no"?>
<!DOCTYPE svg PUBLIC "-//W3C//DTD SVG 20010904//EN"
 "http://www.w3.org/TR/2001/REC-SVG-20010904/DTD/svg10.dtd">
<svg version="1.0" xmlns="http://www.w3.org/2000/svg"
 width="80.000000pt" height="148.000000pt" viewBox="0 0 80.000000 148.000000"
 preserveAspectRatio="xMidYMid meet">
<metadata>
Created by potrace 1.16, written by Peter Selinger 2001-2019
</metadata>
<g transform="translate(0.000000,148.000000) scale(0.100000,-0.100000)"
fill="#000000" stroke="none">
<path d="M487 1263 c-36 -87 -74 -177 -83 -200 -9 -24 -20 -43 -25 -43 -4 0
-46 51 -93 113 l-84 112 1 65 2 65 -37 3 -38 3 -1 -203 c-2 -332 -7 -418 -22
-442 -8 -11 -24 -47 -35 -79 -20 -51 -22 -78 -22 -242 0 -159 3 -189 19 -227
24 -54 88 -121 108 -114 8 3 17 6 19 6 14 0 1 71 -17 91 -12 13 -32 45 -45 72
-50 97 -42 323 16 436 16 32 18 33 24 14 4 -11 3 -38 -2 -60 -9 -38 -5 -94 19
-253 9 -59 24 -100 71 -192 70 -136 78 -146 113 -130 33 15 32 30 -9 90 -87
126 -126 268 -133 488 l-5 120 33 32 c18 18 38 31 44 29 6 -2 12 -91 15 -248
l5 -244 33 -65 c19 -36 47 -91 63 -122 30 -61 59 -76 78 -40 11 20 -25 110
-83 207 l-36 59 0 133 c0 81 4 133 10 133 19 0 87 -154 95 -215 9 -75 38 -153
85 -230 31 -51 41 -60 66 -60 26 0 29 3 27 33 0 18 -12 47 -26 65 -40 53 -64
109 -71 168 -4 31 -13 76 -21 101 -15 50 -80 153 -131 208 -29 31 -33 42 -36
104 -2 47 1 71 9 73 6 2 58 -58 115 -134 56 -76 107 -141 113 -146 5 -4 21 -6
34 -5 20 3 29 16 54 83 17 46 30 101 31 130 1 45 -1 50 -21 53 -26 4 -33 -9
-58 -100 -9 -32 -20 -60 -24 -62 -4 -3 -42 41 -84 97 -43 56 -87 114 -99 129
l-21 27 21 49 c12 26 36 82 55 123 18 41 44 102 56 136 13 34 29 64 36 67 8 3
32 -23 60 -64 65 -95 85 -100 85 -25 0 29 -6 47 -20 60 -10 9 -36 42 -56 71
-34 49 -41 54 -74 54 l-37 0 -66 -157z m-184 -257 l48 -61 -24 -20 c-13 -11
-45 -39 -72 -62 -27 -23 -53 -39 -57 -37 -10 7 -10 288 0 298 4 4 18 -7 32
-25 14 -18 47 -60 73 -93z"/>
</g>
</svg>
