<?xml version="1.0" standalone="no"?>
<!DOCTYPE svg PUBLIC "-//W3C//DTD SVG 20010904//EN"
 "http://www.w3.org/TR/2001/REC-SVG-20010904/DTD/svg10.dtd">
<svg version="1.0" xmlns="http://www.w3.org/2000/svg"
 width="360.000000pt" height="590.000000pt" viewBox="0 0 360.000000 590.000000"
 preserveAspectRatio="xMidYMid meet">
<metadata>
Created by potrace 1.16, written by Peter Selinger 2001-2019
</metadata>
<g transform="translate(0.000000,590.000000) scale(0.500000,-0.500000)"
fill="#000000" stroke="none">
<path d="M244 1131 c-3 -1 -8 -3 -13 -4 -10 -2 -22 -7 -33 -15 -5 -4 -12 -8
-17 -9 -5 -2 -14 -9 -26 -21 -46 -45 -56 -57 -68 -81 -10 -20 -15 -26 -27 -35
-16 -13 -19 -31 -19 -135 l0 -74 9 -26 c7 -21 12 -30 23 -47 8 -12 18 -28 23
-37 4 -9 11 -20 15 -26 4 -5 8 -13 9 -18 1 -4 3 -13 5 -19 2 -5 4 -18 5 -28 1
-10 3 -20 4 -23 1 -3 3 -11 5 -19 2 -7 6 -18 10 -24 5 -8 9 -19 13 -36 3 -14
8 -32 10 -40 3 -13 4 -22 4 -52 0 -43 0 -44 -24 -76 -25 -33 -32 -67 -24 -111
5 -26 46 -76 77 -94 43 -25 136 -27 152 -3 19 27 -2 44 -55 46 -44 2 -66 10
-79 27 -3 5 -11 13 -16 19 -26 27 -23 59 7 92 20 22 19 18 20 89 0 35 -1 65
-2 70 -1 4 -5 22 -10 40 -4 18 -8 35 -9 39 -1 4 -5 14 -9 22 -22 43 -20 63 6
57 7 -2 16 -3 19 -3 8 0 15 -8 15 -17 0 -11 5 -25 14 -34 4 -6 10 -15 13 -21
3 -6 10 -15 14 -20 15 -16 14 -9 13 -116 0 -126 3 -137 51 -169 7 -5 19 -15
27 -22 9 -8 23 -18 31 -23 11 -6 23 -15 40 -32 37 -36 60 -42 79 -21 22 25 5
43 -96 105 -67 41 -68 42 -68 89 0 17 -1 35 -3 44 -2 9 -3 35 -4 79 -1 78 -2
83 -22 106 -11 13 -25 36 -25 42 0 5 76 82 82 82 8 0 23 -24 28 -47 3 -14 10
-36 16 -48 8 -19 30 -78 35 -93 6 -17 7 -48 2 -66 -2 -7 -4 -18 -5 -25 -1 -8
-4 -20 -5 -27 -3 -12 -3 -16 -1 -26 1 -7 2 -16 3 -20 5 -34 143 -114 172 -100
35 18 22 51 -29 75 -90 44 -90 43 -77 95 7 29 8 96 1 114 -8 23 -31 80 -40
100 -7 15 -11 26 -13 39 -2 14 -5 22 -23 58 -22 47 -22 47 -14 62 13 24 16 41
16 111 1 70 1 70 -19 100 -4 6 -8 14 -8 19 -1 5 -6 14 -12 23 -6 8 -14 22 -17
29 -5 10 -13 20 -27 35 -11 12 -23 26 -28 31 -9 13 -22 22 -37 26 -17 5 -32
11 -41 16 -10 6 -16 6 -23 2z m38 -79 c6 -2 11 -5 19 -17 7 -8 17 -19 22 -25
6 -7 13 -16 15 -20 2 -5 11 -19 18 -31 17 -27 22 -41 24 -71 1 -13 3 -26 4
-30 5 -18 6 -33 3 -48 -2 -8 -5 -21 -6 -29 -6 -28 -16 -53 -28 -68 -4 -4 -10
-13 -14 -20 -4 -7 -14 -19 -22 -27 -7 -8 -15 -18 -18 -21 -11 -14 -45 -16 -85
-5 -7 2 -17 4 -23 4 -14 0 -30 14 -41 34 -3 6 -14 24 -24 39 -17 27 -18 30
-22 47 -2 11 -5 23 -6 27 -10 41 2 115 22 137 7 7 16 18 19 23 3 6 9 15 14 21
5 6 12 17 17 24 7 10 13 15 28 25 10 8 23 17 27 21 12 12 36 16 57 10z"/>
</g>
</svg>
