<?xml version="1.0" standalone="no"?>
<!DOCTYPE svg PUBLIC "-//W3C//DTD SVG 20010904//EN"
 "http://www.w3.org/TR/2001/REC-SVG-20010904/DTD/svg10.dtd">
<svg version="1.0" xmlns="http://www.w3.org/2000/svg"
 width="90.000000pt" height="148.000000pt" viewBox="0 0 90.000000 148.000000"
 preserveAspectRatio="xMidYMid meet">
<metadata>
Created by potrace 1.16, written by Peter Selinger 2001-2019
</metadata>
<g transform="translate(0.000000,148.000000) scale(0.100000,-0.100000)"
fill="#000000" stroke="none">
<path d="M265 1399 c-42 -21 -155 -126 -155 -144 0 -6 -13 -25 -30 -43 -30
-33 -30 -33 -30 -157 0 -122 0 -124 36 -192 20 -37 42 -75 49 -83 7 -8 20 -46
28 -85 8 -38 23 -90 32 -115 10 -25 20 -75 22 -112 5 -63 4 -69 -26 -109 -26
-36 -31 -52 -31 -97 0 -63 10 -86 59 -130 46 -42 72 -53 142 -59 43 -4 60 -1
72 12 37 36 9 65 -63 65 -49 0 -90 20 -119 56 -29 37 -26 75 9 119 27 34 30
45 30 107 0 72 -20 168 -46 225 -7 17 -14 41 -14 53 0 19 4 21 33 15 33 -8 47
-20 47 -43 0 -7 13 -33 30 -57 30 -43 30 -45 30 -180 l0 -136 57 -55 c31 -30
60 -54 64 -54 4 0 31 -20 61 -45 63 -55 103 -59 103 -12 0 25 -13 37 -100 95
l-100 67 -6 60 c-4 33 -7 103 -8 156 -1 91 -3 98 -31 134 -16 21 -30 43 -30
49 0 7 24 36 54 65 l55 54 14 -34 c8 -19 32 -78 52 -132 39 -103 39 -100 19
-238 -6 -41 -3 -49 22 -77 31 -33 157 -102 186 -102 21 0 36 46 19 63 -6 6
-41 27 -79 47 l-67 35 3 105 c4 109 4 108 -54 237 -8 17 -14 38 -14 46 0 8
-13 40 -29 72 -27 54 -29 61 -15 86 9 19 14 60 14 124 0 91 -2 99 -36 162 -53
99 -101 151 -163 179 -29 13 -54 24 -55 24 0 -1 -19 -10 -41 -21z m122 -116
c55 -72 83 -123 83 -150 0 -16 5 -44 10 -64 13 -46 -9 -137 -45 -188 -43 -62
-86 -102 -103 -97 -10 2 -35 7 -57 11 -68 10 -72 14 -116 87 -41 68 -43 74
-43 153 -1 81 0 83 43 146 63 92 117 138 163 139 30 0 41 -6 65 -37z"/>
</g>
</svg>
