<?xml version="1.0" standalone="no"?>
<!DOCTYPE svg PUBLIC "-//W3C//DTD SVG 20010904//EN"
 "http://www.w3.org/TR/2001/REC-SVG-20010904/DTD/svg10.dtd">
<svg version="1.0" xmlns="http://www.w3.org/2000/svg"
 width="100.000000pt" height="148.000000pt" viewBox="0 0 100.000000 148.000000"
 preserveAspectRatio="xMidYMid meet">
<metadata>
Created by potrace 1.16, written by Peter Selinger 2001-2019
</metadata>
<g transform="translate(0.000000,148.000000) scale(0.100000,-0.100000)"
fill="#000000" stroke="none">
<path d="M437 1413 c-4 -3 -7 -15 -7 -25 0 -10 -4 -26 -9 -36 -6 -9 -42 -107
-81 -217 -39 -110 -84 -234 -99 -275 -59 -154 -110 -296 -116 -321 -3 -14 1
-67 9 -118 14 -88 14 -96 -3 -130 -10 -20 -22 -47 -26 -60 -4 -12 -18 -39 -31
-59 -19 -27 -24 -47 -22 -77 4 -56 26 -52 63 14 37 67 55 76 55 27 0 -38 15
-86 27 -86 5 0 14 4 22 9 13 8 12 24 -2 117 l-16 108 34 37 c71 79 82 140 42
232 -45 99 -44 125 8 254 15 38 19 41 48 37 18 -3 56 1 85 9 29 8 55 10 58 6
3 -5 -18 -66 -46 -136 -49 -124 -60 -185 -41 -221 5 -9 17 -56 27 -103 l17
-86 -33 -84 c-18 -46 -37 -88 -42 -94 -12 -14 -10 -73 4 -81 17 -11 46 31 64
92 9 33 21 54 30 54 8 0 14 -7 14 -15 0 -7 5 -37 11 -65 9 -43 14 -50 35 -50
32 0 31 23 -2 152 -22 85 -24 105 -14 127 7 14 15 74 18 132 4 101 3 107 -22
145 l-26 40 26 69 c38 105 32 100 118 103 42 2 76 -1 76 -6 0 -4 -18 -60 -40
-125 -22 -64 -40 -128 -40 -142 0 -14 16 -72 36 -128 32 -92 34 -105 24 -136
-7 -19 -21 -66 -31 -105 -10 -39 -21 -81 -24 -93 -5 -15 -1 -24 12 -31 32 -17
44 1 57 84 6 43 16 79 21 79 6 0 21 -35 35 -77 28 -85 41 -104 64 -95 26 10
19 54 -25 166 l-41 104 18 61 c26 92 22 194 -10 256 -14 27 -26 57 -26 66 0
16 37 129 165 503 31 90 53 167 48 172 -4 4 -99 12 -211 18 -237 13 -276 13
-285 4z m231 -58 c2 -2 -6 -26 -18 -53 -17 -38 -28 -51 -48 -55 -15 -3 -42 -8
-60 -12 -39 -8 -82 15 -82 44 0 10 7 35 15 55 l16 37 87 -7 c48 -4 88 -8 90
-9z m162 -5 l38 0 -13 -42 c-9 -34 -20 -47 -50 -61 -46 -22 -95 -29 -111 -16
-10 8 -8 20 5 52 10 23 21 50 25 61 5 15 13 17 37 12 18 -3 48 -6 69 -6z
m-298 -160 c77 0 81 -6 50 -70 -20 -40 -54 -51 -127 -40 -63 10 -68 18 -48 70
19 50 33 64 47 50 6 -6 41 -10 78 -10z m273 -32 c-4 -18 -13 -45 -21 -59 -12
-24 -19 -26 -78 -28 -38 -1 -67 3 -71 9 -4 7 0 31 10 55 l16 44 72 4 c40 1 73
4 75 5 2 1 0 -13 -3 -30z m-319 -128 c62 0 64 -5 35 -73 l-19 -45 -87 -7 c-47
-4 -88 -5 -90 -3 -5 5 28 109 41 129 4 6 19 8 36 5 17 -3 55 -6 84 -6z m264
-17 c2 -2 -5 -30 -16 -61 l-20 -57 -77 -3 c-42 -2 -77 1 -77 5 0 11 33 105 42
119 6 9 137 7 148 -3z m-32 -443 c13 -53 6 -125 -12 -125 -15 0 -46 115 -40
144 15 60 34 53 52 -19z m-248 1 c13 -25 13 -128 0 -136 -11 -7 -13 -4 -30 76
-12 55 -9 79 10 79 5 0 14 -9 20 -19z m-256 -13 c2 -7 10 -36 19 -65 14 -48
13 -54 -4 -82 -34 -56 -49 -36 -49 64 0 35 3 70 6 79 7 19 23 21 28 4z"/>
</g>
</svg>
