<?xml version="1.0" standalone="no"?>
<!DOCTYPE svg PUBLIC "-//W3C//DTD SVG 20010904//EN"
 "http://www.w3.org/TR/2001/REC-SVG-20010904/DTD/svg10.dtd">
<svg version="1.0" xmlns="http://www.w3.org/2000/svg"
 width="400.000000pt" height="590.000000pt" viewBox="0 0 400.000000 590.000000"
 preserveAspectRatio="xMidYMid meet">
<metadata>
Created by potrace 1.16, written by Peter Selinger 2001-2019
</metadata>
<g transform="translate(0.000000,590.000000) scale(0.500000,-0.500000)"
fill="#000000" stroke="none">
<path d="M359 1135 c-3 -2 -7 -10 -12 -25 -4 -11 -9 -27 -12 -35 -3 -8 -8 -22
-11 -31 -3 -10 -7 -21 -9 -24 -2 -4 -5 -11 -6 -16 -5 -16 -9 -29 -14 -40 -6
-13 -16 -42 -20 -54 -1 -5 -4 -11 -5 -14 -3 -6 -24 -62 -36 -98 -4 -13 -11
-32 -15 -42 -4 -10 -9 -24 -11 -31 -3 -7 -6 -15 -7 -19 -2 -4 -6 -13 -8 -20
-3 -7 -8 -21 -12 -31 -3 -10 -8 -21 -9 -25 -1 -4 -4 -11 -6 -17 -4 -10 -14
-37 -23 -61 -3 -7 -8 -22 -12 -33 -4 -11 -11 -31 -15 -44 -5 -13 -10 -27 -11
-31 -4 -10 -4 -58 0 -67 2 -4 4 -14 5 -28 3 -39 6 -68 7 -78 1 -10 1 -12 -5
-22 -9 -16 -17 -33 -19 -41 -1 -4 -3 -10 -5 -14 -2 -5 -4 -9 -4 -11 0 -5 -9
-22 -17 -32 -34 -42 -38 -101 -7 -102 16 0 22 7 47 58 17 36 29 37 31 1 0 -10
1 -21 2 -23 2 -2 3 -9 4 -17 2 -18 23 -27 37 -16 4 4 5 56 0 67 -3 7 -6 28 -9
72 -1 12 -2 25 -3 29 -2 10 9 28 25 42 12 10 32 40 44 67 13 27 5 81 -19 131
-7 14 -17 45 -17 52 0 2 -2 8 -4 14 -6 14 -5 20 3 39 4 9 8 20 10 25 1 5 6 19
11 31 5 12 10 27 12 34 7 20 7 21 44 21 26 0 33 1 42 4 7 2 17 4 23 4 6 0 14
1 18 3 21 9 28 -2 17 -26 -3 -7 -8 -19 -11 -28 -3 -9 -7 -18 -8 -20 -2 -2 -4
-8 -5 -12 -2 -10 -16 -48 -21 -57 -2 -3 -5 -12 -7 -19 -3 -8 -6 -18 -9 -24
-14 -30 -15 -66 -3 -100 6 -17 12 -40 14 -55 1 -9 3 -18 4 -21 2 -2 4 -10 5
-17 1 -7 4 -17 6 -22 7 -18 5 -42 -6 -64 -4 -10 -9 -22 -10 -25 0 -3 -4 -14
-9 -23 -4 -9 -8 -20 -9 -23 -1 -3 -7 -17 -13 -31 -22 -45 -21 -72 4 -72 20 0
37 30 51 94 1 7 12 20 16 20 3 0 10 -16 12 -27 1 -6 3 -13 4 -17 2 -5 3 -14 4
-20 6 -52 49 -63 49 -13 0 16 -1 23 -4 29 -2 5 -5 16 -7 25 -5 27 -8 40 -12
48 -1 4 -4 16 -6 25 -2 9 -5 24 -7 33 -4 17 -4 17 1 28 3 7 6 19 7 28 2 9 4
18 5 21 10 19 14 128 6 150 -4 10 -19 34 -29 45 -9 10 -10 18 -4 35 3 7 7 16
8 20 11 32 16 44 19 50 2 3 6 15 9 25 10 28 16 32 40 26 9 -2 23 -3 48 -3 49
0 47 2 33 -41 -6 -18 -14 -42 -18 -54 -4 -12 -11 -31 -15 -43 -28 -79 -28 -79
-3 -148 3 -7 7 -19 9 -27 3 -8 8 -22 11 -31 4 -9 8 -21 9 -26 1 -5 4 -13 5
-18 5 -14 4 -27 -3 -40 -3 -6 -6 -15 -7 -19 -1 -4 -4 -13 -6 -18 -2 -6 -5 -16
-6 -22 -1 -7 -4 -19 -6 -27 -3 -8 -7 -22 -8 -32 -2 -9 -5 -23 -8 -31 -9 -25
-2 -37 22 -37 15 0 19 4 22 21 4 24 9 46 12 54 2 4 4 18 5 30 1 18 2 22 6 26
8 8 10 4 25 -44 4 -12 9 -26 11 -32 2 -5 6 -18 9 -29 7 -23 12 -28 27 -28 28
0 32 23 13 74 -9 24 -18 50 -35 96 -4 13 -10 29 -13 35 -6 13 -6 13 -1 28 4
15 5 20 10 43 1 5 5 18 8 29 4 11 7 23 8 27 3 11 2 38 -1 47 -2 4 -4 18 -5 30
-2 25 -7 41 -20 62 -5 6 -8 12 -8 13 0 1 -4 10 -8 20 -9 19 -8 32 4 56 2 4 6
16 10 27 3 10 8 22 10 26 2 4 6 16 9 27 3 11 7 24 10 30 2 5 7 18 10 28 2 11
8 27 12 37 3 10 9 25 11 33 2 9 6 21 9 27 3 7 7 18 9 26 2 8 6 20 10 28 3 8 7
19 8 24 1 6 6 19 10 29 4 10 8 19 8 21 0 4 11 39 17 52 3 7 7 18 9 26 2 8 5
18 7 23 13 36 -3 48 -59 45 -26 -1 -31 -1 -43 3 -13 4 -20 4 -90 4 -66 0 -76
0 -83 3 -11 5 -107 7 -113 2z m124 -44 c60 -2 57 0 46 -32 -16 -45 -22 -54
-41 -57 -8 -1 -17 -4 -23 -7 -18 -11 -64 -9 -77 2 -30 28 -6 98 33 96 11 -1
39 -2 62 -2z m129 -5 c8 -3 15 -4 40 -4 42 0 45 -2 36 -25 -2 -5 -6 -18 -9
-29 -6 -19 -10 -24 -22 -24 -2 0 -14 -5 -26 -11 -35 -18 -84 -16 -77 2 1 3 5
15 9 25 11 28 19 52 19 57 0 11 13 15 30 9z m-245 -130 c12 -6 12 -6 62 -6 62
0 62 0 48 -29 -4 -9 -9 -20 -10 -26 -5 -14 -10 -25 -15 -26 -19 -6 -85 -9 -96
-4 -5 2 -10 3 -13 3 -22 0 -27 16 -14 48 4 9 8 21 10 26 6 21 11 23 28 14z
m280 -13 c1 -2 0 -10 -3 -17 -2 -8 -6 -21 -8 -28 -6 -18 -15 -32 -22 -34 -20
-6 -69 -9 -85 -6 -24 4 -27 10 -17 30 3 6 7 16 8 21 3 10 13 30 17 32 1 1 24
2 51 3 27 1 51 1 54 2 2 0 5 -1 5 -3z m-308 -117 c9 -4 13 -4 45 -3 42 1 49 0
50 -7 0 -5 -9 -37 -14 -45 -3 -6 -11 -26 -13 -30 -3 -10 -7 -12 -38 -13 -15
-1 -29 -2 -30 -2 -3 -2 -46 -7 -58 -6 -20 0 -20 4 -7 44 6 16 11 33 13 38 9
30 21 36 52 24z m166 -7 c4 -2 20 -3 48 -4 49 -1 49 -2 49 -8 0 -7 -9 -40 -14
-49 -2 -4 -5 -12 -7 -19 -4 -13 -9 -20 -18 -24 -8 -5 -68 -5 -85 -1 -7 2 -15
4 -18 5 -8 1 -9 7 -4 17 2 5 5 13 6 18 1 5 5 15 8 22 3 7 7 18 9 24 5 19 13
25 26 19z m60 -329 c9 -18 15 -38 15 -50 0 -6 1 -14 2 -19 2 -7 2 -12 0 -21
-1 -7 -3 -17 -4 -24 -5 -25 -12 -20 -25 17 -16 44 -19 57 -18 64 2 16 9 35 16
45 3 5 8 1 14 -12z m-196 -21 c15 -16 25 -88 14 -109 -7 -14 -14 -5 -19 23 -4
24 -8 38 -13 49 -8 21 5 49 18 37z m-198 -21 c1 -3 5 -15 8 -28 3 -13 8 -31
12 -40 9 -20 8 -23 -3 -43 -29 -47 -38 -33 -39 62 0 43 11 69 22 49z"/>
</g>
</svg>
