<?xml version="1.0" standalone="no"?>
<!DOCTYPE svg PUBLIC "-//W3C//DTD SVG 20010904//EN"
 "http://www.w3.org/TR/2001/REC-SVG-20010904/DTD/svg10.dtd">
<svg version="1.0" xmlns="http://www.w3.org/2000/svg"
 width="68.000000pt" height="100.000000pt" viewBox="0 0 68.000000 100.000000"
 preserveAspectRatio="xMidYMid meet">
<metadata>
Created by potrace 1.16, written by Peter Selinger 2001-2019
</metadata>
<g transform="translate(0.000000,100.000000) scale(0.100000,-0.100000)"
fill="#000000" stroke="none">
<path d="M291 939 c-14 -34 -159 -430 -187 -513 -20 -59 -23 -82 -18 -145 6
-72 4 -79 -25 -135 -36 -67 -40 -106 -12 -106 11 0 23 12 31 30 16 38 29 38
37 0 6 -35 20 -47 35 -32 8 8 8 33 1 84 -10 72 -10 73 18 106 42 47 45 74 19
153 -21 66 -21 70 -5 118 9 27 21 54 28 59 15 12 96 22 101 14 2 -4 -9 -38
-25 -77 -32 -81 -35 -118 -13 -211 l15 -68 -30 -73 c-33 -78 -37 -98 -20 -109
14 -9 32 10 45 48 15 44 29 45 40 1 5 -20 15 -38 21 -41 23 -7 26 29 9 102
-13 57 -15 82 -7 117 15 64 13 124 -5 161 -14 31 -14 37 3 83 18 49 19 50 66
53 26 2 47 0 47 -4 0 -3 -11 -43 -25 -89 l-25 -83 24 -78 25 -79 -19 -64 c-26
-81 -26 -124 -2 -119 11 2 21 19 28 48 13 54 25 57 37 10 10 -40 24 -60 42
-60 26 0 24 32 -7 111 -29 74 -31 84 -20 125 17 61 15 108 -5 165 -20 57 -23
46 68 306 48 136 61 185 53 193 -8 7 -72 14 -172 17 l-161 6 -10 -24z m149
-49 c0 -35 -23 -50 -75 -50 -41 0 -53 19 -37 56 10 21 18 24 62 24 49 0 50 -1
50 -30z m137 3 c8 -21 -40 -63 -73 -63 -27 0 -32 26 -14 61 14 25 78 27 87 2z
m-177 -118 c0 -31 -29 -47 -78 -43 -26 2 -38 8 -40 21 -7 38 5 47 63 47 52 0
55 -1 55 -25z m138 2 c6 -29 -17 -47 -59 -47 -35 0 -39 3 -39 25 0 29 25 46
65 42 20 -1 31 -8 33 -20z m-200 -83 c24 -7 29 -31 10 -57 -9 -11 -30 -18 -63
-19 -49 -3 -50 -3 -48 25 4 52 36 68 101 51z m146 -10 c37 -14 2 -84 -42 -84
-47 0 -56 12 -42 54 10 30 16 36 40 36 16 0 35 -3 44 -6z"/>
</g>
</svg>
