<?xml version="1.0" standalone="no"?>
<!DOCTYPE svg PUBLIC "-//W3C//DTD SVG 20010904//EN"
 "http://www.w3.org/TR/2001/REC-SVG-20010904/DTD/svg10.dtd">
<svg version="1.0" xmlns="http://www.w3.org/2000/svg"
 width="55.000000pt" height="100.000000pt" viewBox="0 0 55.000000 100.000000"
 preserveAspectRatio="xMidYMid meet">
<metadata>
Created by potrace 1.16, written by Peter Selinger 2001-2019
</metadata>
<g transform="translate(0.000000,100.000000) scale(0.100000,-0.100000)"
fill="#000000" stroke="none">
<path d="M37 964 c-4 -4 -7 -216 -7 -471 l0 -464 23 3 c22 3 22 4 25 215 l2
211 63 7 c34 3 116 5 182 3 l120 -3 5 -215 c5 -214 5 -215 28 -218 l22 -3 0
471 0 471 -22 -3 c-23 -3 -23 -3 -26 -225 l-2 -223 -185 0 -185 0 -2 222 c-3
192 -5 223 -18 226 -9 1 -19 0 -23 -4z"/>
</g>
</svg>
