<?xml version="1.0" standalone="no"?>
<!DOCTYPE svg PUBLIC "-//W3C//DTD SVG 20010904//EN"
 "http://www.w3.org/TR/2001/REC-SVG-20010904/DTD/svg10.dtd">
<svg version="1.0" xmlns="http://www.w3.org/2000/svg"
 width="330.000000pt" height="590.000000pt" viewBox="0 0 330.000000 590.000000"
 preserveAspectRatio="xMidYMid meet">
<metadata>
Created by potrace 1.16, written by Peter Selinger 2001-2019
</metadata>
<g transform="translate(0.000000,590.000000) scale(0.500000,-0.500000)"
fill="#000000" stroke="none">
<path d="M560 1141 c-11 -3 -11 13 -9 -268 1 -205 0 -257 -2 -260 -5 -7 -455
-6 -458 1 -2 4 -2 71 -1 259 1 141 1 256 0 258 -4 11 -40 14 -47 4 -7 -8 -6
-1080 1 -1085 5 -4 31 -6 39 -3 9 4 9 -2 7 256 -1 182 -1 245 1 249 2 6 452 8
458 2 3 -2 3 -46 2 -251 -2 -290 -5 -258 24 -258 14 0 18 1 23 4 5 5 5 -18 6
534 1 410 0 548 -3 552 -5 6 -24 9 -41 6z"/>
</g>
</svg>
