<?xml version="1.0" standalone="no"?>
<!DOCTYPE svg PUBLIC "-//W3C//DTD SVG 20010904//EN"
 "http://www.w3.org/TR/2001/REC-SVG-20010904/DTD/svg10.dtd">
<svg version="1.0" xmlns="http://www.w3.org/2000/svg"
 width="68.000000pt" height="100.000000pt" viewBox="0 0 68.000000 100.000000"
 preserveAspectRatio="xMidYMid meet">
<metadata>
Created by potrace 1.16, written by Peter Selinger 2001-2019
</metadata>
<g transform="translate(0.000000,100.000000) scale(0.100000,-0.100000)"
fill="#000000" stroke="none">
<path d="M53 963 c-10 -4 -13 -106 -13 -463 0 -490 -1 -476 49 -463 20 5 21
13 23 176 l3 170 115 53 c63 29 159 74 212 99 53 25 102 45 107 45 8 0 11 -87
11 -269 0 -254 1 -270 19 -276 10 -3 26 -3 35 1 14 6 16 49 16 464 0 438 -1
459 -19 465 -10 3 -26 3 -35 -1 -14 -5 -16 -26 -16 -155 l0 -149 -32 -20 c-18
-11 -42 -20 -52 -20 -17 0 -18 6 -13 73 6 83 0 100 -34 95 -23 -3 -24 -5 -24
-103 l0 -99 -65 -32 c-36 -18 -68 -33 -72 -33 -4 -1 -9 56 -10 127 l-3 127
-25 0 -25 0 -3 -147 -3 -147 -39 -12 c-22 -7 -43 -9 -48 -5 -4 4 -6 116 -5
249 2 262 0 272 -54 250z"/>
</g>
</svg>
