<?xml version="1.0" standalone="no"?>
<!DOCTYPE svg PUBLIC "-//W3C//DTD SVG 20010904//EN"
 "http://www.w3.org/TR/2001/REC-SVG-20010904/DTD/svg10.dtd">
<svg version="1.0" xmlns="http://www.w3.org/2000/svg"
 width="100.000000pt" height="148.000000pt" viewBox="0 0 100.000000 148.000000"
 preserveAspectRatio="xMidYMid meet">
<metadata>
Created by potrace 1.16, written by Peter Selinger 2001-2019
</metadata>
<g transform="translate(0.000000,148.000000) scale(0.100000,-0.100000)"
fill="#000000" stroke="none">
<path d="M60 1413 c-4 -130 2 -1348 6 -1354 6 -10 54 -12 77 -4 12 5 13 39 9
204 -3 109 -2 223 2 253 l7 56 62 27 c34 14 91 41 127 59 36 19 76 37 89 41
25 8 297 135 343 160 14 8 31 15 38 15 8 0 11 -101 9 -401 -1 -261 2 -404 8
-410 6 -6 26 -9 44 -7 l34 3 3 683 2 683 -47 -3 -48 -3 4 -160 c4 -198 -5
-294 -28 -302 -9 -3 -38 -16 -65 -29 -27 -13 -53 -21 -58 -18 -6 4 -9 57 -7
128 l4 121 -38 3 -38 3 2 -146 c1 -80 0 -147 -2 -149 -20 -16 -203 -96 -212
-93 -9 3 -11 52 -8 186 l3 182 -43 -3 c-42 -3 -44 -4 -43 -33 7 -161 5 -378
-4 -387 -6 -6 -32 -18 -59 -28 -26 -9 -56 -20 -66 -25 -18 -7 -18 8 -16 371
l2 379 -46 3 c-26 2 -47 -1 -47 -5z"/>
</g>
</svg>
