<?xml version="1.0" standalone="no"?>
<!DOCTYPE svg PUBLIC "-//W3C//DTD SVG 20010904//EN"
 "http://www.w3.org/TR/2001/REC-SVG-20010904/DTD/svg10.dtd">
<svg version="1.0" xmlns="http://www.w3.org/2000/svg"
 width="400.000000pt" height="590.000000pt" viewBox="0 0 400.000000 590.000000"
 preserveAspectRatio="xMidYMid meet">
<metadata>
Created by potrace 1.16, written by Peter Selinger 2001-2019
</metadata>
<g transform="translate(0.000000,590.000000) scale(0.500000,-0.500000)"
fill="#000000" stroke="none">
<path d="M67 1138 c-19 -2 -18 2 -18 -62 0 -112 0 -913 0 -967 0 -68 -4 -61
39 -61 46 0 41 -14 40 114 -2 237 -1 280 8 289 6 6 75 40 90 44 9 3 20 8 100
48 17 8 34 16 38 16 4 1 31 14 61 28 30 15 56 27 59 27 2 0 11 4 19 8 39 20
92 46 96 46 4 0 31 14 40 20 18 13 33 -2 26 -27 -5 -17 -5 -604 0 -609 8 -7
64 -8 71 0 5 4 6 194 3 566 -1 71 0 214 1 318 2 227 7 204 -40 204 -45 0 -41
16 -38 -162 1 -80 2 -147 1 -148 -1 -1 -2 -12 -3 -23 -2 -28 -8 -41 -22 -44
-5 -1 -25 -10 -44 -19 -57 -27 -53 -33 -51 82 2 113 4 106 -33 106 -31 0 -29
11 -27 -120 1 -78 1 -112 -1 -115 -2 -5 -36 -22 -46 -24 -4 -1 -26 -11 -49
-23 -94 -47 -84 -61 -81 115 3 163 6 149 -33 149 -38 0 -34 16 -31 -149 3
-199 4 -176 -10 -189 -9 -7 -15 -11 -23 -13 -19 -5 -36 -11 -54 -20 -19 -10
-25 -11 -29 -6 -2 3 -2 57 0 286 3 309 3 306 0 310 -5 6 -27 8 -59 5z"/>
</g>
</svg>
