<?xml version="1.0" standalone="no"?>
<!DOCTYPE svg PUBLIC "-//W3C//DTD SVG 20010904//EN"
 "http://www.w3.org/TR/2001/REC-SVG-20010904/DTD/svg10.dtd">
<svg version="1.0" xmlns="http://www.w3.org/2000/svg"
 width="70.000000pt" height="148.000000pt" viewBox="0 0 70.000000 148.000000"
 preserveAspectRatio="xMidYMid meet">
<metadata>
Created by potrace 1.16, written by Peter Selinger 2001-2019
</metadata>
<g transform="translate(0.000000,148.000000) scale(0.100000,-0.100000)"
fill="#000000" stroke="none">
<path d="M55 1420 c-10 -16 -6 -1353 4 -1363 5 -5 17 -7 27 -5 17 3 20 17 24
133 l5 130 70 -2 c39 0 141 -4 229 -8 l158 -7 -3 -122 -4 -121 33 0 34 0 -1
679 c0 609 -1 680 -16 688 -8 5 -24 7 -34 3 -17 -5 -18 -15 -13 -140 l5 -135
-232 0 -231 0 0 134 c0 113 -2 135 -16 140 -22 8 -32 8 -39 -4z m513 -496 l-3
-166 -225 -1 -225 0 -3 166 -2 167 230 0 230 0 -2 -166z m2 -395 l0 -169 -53
0 c-30 0 -57 3 -61 8 -4 4 -49 7 -99 8 -51 0 -127 1 -169 2 l-78 2 0 153 c0
85 2 156 5 159 3 3 107 6 230 6 l225 0 0 -169z"/>
</g>
</svg>
