<?xml version="1.0" standalone="no"?>
<!DOCTYPE svg PUBLIC "-//W3C//DTD SVG 20010904//EN"
 "http://www.w3.org/TR/2001/REC-SVG-20010904/DTD/svg10.dtd">
<svg version="1.0" xmlns="http://www.w3.org/2000/svg"
 width="282.000000pt" height="590.000000pt" viewBox="0 0 282.000000 590.000000"
 preserveAspectRatio="xMidYMid meet">
<metadata>
Created by potrace 1.16, written by Peter Selinger 2001-2019
</metadata>
<g transform="translate(0.000000,590.000000) scale(0.500000,-0.500000)"
fill="#000000" stroke="none">
<path d="M44 1137 c-6 -5 -7 -1081 -1 -1087 4 -4 33 -5 41 -2 10 4 10 5 9 107
-2 114 -7 102 45 100 23 -1 38 -2 43 -4 8 -3 53 -5 216 -9 65 -1 87 -53 60
-142 -5 -16 -4 -43 2 -49 9 -9 50 -7 54 3 1 2 2 1039 1 1075 0 12 -45 17 -56
6 -5 -5 -6 -31 -1 -50 4 -19 6 -152 2 -158 -4 -6 -354 -8 -363 -3 -5 2 -5 3
-3 104 2 121 4 111 -25 112 -16 0 -20 0 -24 -3z m412 -266 c7 -2 9 -254 2
-261 -4 -4 -359 -5 -363 -1 -5 5 -4 258 1 261 4 3 351 4 360 1z m2 -317 c4 -4
6 -245 3 -257 -3 -11 -75 -12 -88 -1 -6 5 -6 5 -85 6 -147 3 -192 5 -194 8 -5
4 -3 242 2 246 6 6 358 4 362 -2z"/>
</g>
</svg>
