<?xml version="1.0" standalone="no"?>
<!DOCTYPE svg PUBLIC "-//W3C//DTD SVG 20010904//EN"
 "http://www.w3.org/TR/2001/REC-SVG-20010904/DTD/svg10.dtd">
<svg version="1.0" xmlns="http://www.w3.org/2000/svg"
 width="47.000000pt" height="100.000000pt" viewBox="0 0 47.000000 100.000000"
 preserveAspectRatio="xMidYMid meet">
<metadata>
Created by potrace 1.16, written by Peter Selinger 2001-2019
</metadata>
<g transform="translate(0.000000,100.000000) scale(0.100000,-0.100000)"
fill="#000000" stroke="none">
<path d="M37 964 c-10 -11 -8 -907 2 -923 5 -8 16 -11 25 -8 13 5 16 23 16 92
l0 85 43 0 c24 0 92 -3 151 -7 l108 -6 -3 -81 c-4 -81 -4 -81 21 -81 l25 0 0
465 0 465 -25 0 -25 0 4 -87 c4 -105 13 -100 -169 -96 l-125 3 -5 90 c-4 70
-8 90 -20 93 -9 1 -19 0 -23 -4z m343 -338 l0 -103 -123 -7 c-68 -4 -135 -4
-150 -1 l-27 7 0 104 0 104 150 0 150 0 0 -104z m-2 -268 l3 -107 -138 5 c-76
3 -144 7 -150 10 -18 5 -18 190 0 198 6 2 73 4 147 3 l135 -2 3 -107z"/>
</g>
</svg>
