<?xml version="1.0" standalone="no"?>
<!DOCTYPE svg PUBLIC "-//W3C//DTD SVG 20010904//EN"
 "http://www.w3.org/TR/2001/REC-SVG-20010904/DTD/svg10.dtd">
<svg version="1.0" xmlns="http://www.w3.org/2000/svg"
 width="66.000000pt" height="100.000000pt" viewBox="0 0 66.000000 100.000000"
 preserveAspectRatio="xMidYMid meet">
<metadata>
Created by potrace 1.16, written by Peter Selinger 2001-2019
</metadata>
<g transform="translate(0.000000,100.000000) scale(0.100000,-0.100000)"
fill="#000000" stroke="none">
<path d="M45 960 c-11 -18 -18 -570 -10 -753 6 -135 10 -170 22 -174 8 -3 19
0 24 8 5 8 9 123 9 257 l0 243 53 -3 52 -3 5 -250 c5 -242 6 -250 25 -250 19
0 20 8 25 250 l5 250 51 3 52 3 6 -53 c4 -29 6 -140 5 -246 -2 -196 2 -221 35
-209 13 5 16 41 18 254 l3 248 68 3 67 3 0 -249 c0 -213 2 -251 15 -256 8 -3
22 -3 30 0 13 5 15 66 15 464 0 457 0 459 -21 465 -12 4 -25 3 -30 -2 -5 -5
-10 -92 -11 -193 l-3 -185 -210 -3 c-115 -1 -220 0 -232 3 -22 5 -23 8 -25
193 -3 165 -5 187 -20 190 -9 2 -19 -2 -23 -8z"/>
</g>
</svg>
