<?xml version="1.0" standalone="no"?>
<!DOCTYPE svg PUBLIC "-//W3C//DTD SVG 20010904//EN"
 "http://www.w3.org/TR/2001/REC-SVG-20010904/DTD/svg10.dtd">
<svg version="1.0" xmlns="http://www.w3.org/2000/svg"
 width="390.000000pt" height="590.000000pt" viewBox="0 0 390.000000 590.000000"
 preserveAspectRatio="xMidYMid meet">
<metadata>
Created by potrace 1.16, written by Peter Selinger 2001-2019
</metadata>
<g transform="translate(0.000000,590.000000) scale(0.500000,-0.500000)"
fill="#000000" stroke="none">
<path d="M52 1136 c-7 -5 -7 -1078 0 -1085 6 -6 44 -6 49 0 4 3 4 18 4 297 0
239 0 294 3 296 5 5 124 4 127 -1 3 -3 3 -41 3 -295 0 -160 0 -293 1 -294 4
-11 52 -11 56 0 1 2 1 134 1 294 0 269 0 292 3 295 5 4 128 5 134 0 4 -3 4 -8
4 -296 0 -278 0 -293 4 -296 8 -8 51 -6 54 3 1 2 1 134 1 294 0 268 0 292 3
295 3 3 72 5 151 4 25 0 23 36 21 -299 -2 -342 -6 -301 29 -301 18 0 22 1 25
4 3 3 7 897 5 1066 0 27 -59 37 -60 11 -1 -15 0 -291 1 -355 1 -72 1 -76 -2
-80 -6 -8 -556 -8 -562 -1 -3 5 -3 8 -2 54 4 159 2 386 -3 390 -7 6 -43 6 -50
0z"/>
</g>
</svg>
