<?xml version="1.0" standalone="no"?>
<!DOCTYPE svg PUBLIC "-//W3C//DTD SVG 20010904//EN"
 "http://www.w3.org/TR/2001/REC-SVG-20010904/DTD/svg10.dtd">
<svg version="1.0" xmlns="http://www.w3.org/2000/svg"
 width="73.000000pt" height="100.000000pt" viewBox="0 0 73.000000 100.000000"
 preserveAspectRatio="xMidYMid meet">
<metadata>
Created by potrace 1.16, written by Peter Selinger 2001-2019
</metadata>
<g transform="translate(0.000000,100.000000) scale(0.100000,-0.100000)"
fill="#000000" stroke="none">
<path d="M637 963 c-4 -3 -7 -80 -7 -170 l0 -163 -258 0 c-160 0 -262 4 -268
10 -7 7 -7 38 -2 88 5 42 7 109 6 147 -3 68 -4 70 -30 73 -19 2 -28 -2 -31
-15 -3 -10 -7 -216 -9 -458 l-3 -440 25 0 25 0 8 155 c4 85 10 157 13 160 3 3
121 5 262 5 l257 0 0 -155 0 -155 26 -3 c16 -2 29 3 32 11 8 23 12 892 3 905
-8 13 -38 16 -49 5z m-289 -408 c2 -16 1 -58 -3 -92 l-7 -63 -50 0 -51 0 5 83
c2 45 8 88 12 95 5 8 24 12 49 10 38 -3 42 -6 45 -33z m126 -12 c3 -26 3 -69
0 -96 -7 -47 -8 -48 -38 -45 l-31 3 2 79 c2 96 6 106 36 106 21 0 25 -6 31
-47z m141 -48 l0 -90 -40 0 c-39 0 -40 1 -47 45 -8 41 -3 113 9 133 3 4 21 7
41 5 l37 -3 0 -90z m-430 -3 c0 -90 -8 -104 -55 -100 -24 3 -25 5 -28 96 l-3
93 43 -3 43 -3 0 -83z"/>
</g>
</svg>
