<?xml version="1.0" standalone="no"?>
<!DOCTYPE svg PUBLIC "-//W3C//DTD SVG 20010904//EN"
 "http://www.w3.org/TR/2001/REC-SVG-20010904/DTD/svg10.dtd">
<svg version="1.0" xmlns="http://www.w3.org/2000/svg"
 width="108.000000pt" height="148.000000pt" viewBox="0 0 108.000000 148.000000"
 preserveAspectRatio="xMidYMid meet">
<metadata>
Created by potrace 1.16, written by Peter Selinger 2001-2019
</metadata>
<g transform="translate(0.000000,148.000000) scale(0.100000,-0.100000)"
fill="#000000" stroke="none">
<path d="M939 1413 c0 -5 0 -117 1 -251 l2 -242 -399 2 -398 3 1 50 c0 28 2
133 5 235 l4 185 -41 3 -42 3 -6 -313 c-4 -172 -7 -475 -9 -673 l-2 -360 28
-3 c51 -6 55 7 50 141 -2 67 -1 171 4 230 l8 108 393 4 393 3 -2 -232 -1 -231
41 0 40 0 7 673 6 672 -41 0 c-23 0 -41 -3 -42 -7z m-424 -687 l0 -146 -89 0
-88 0 7 68 c4 37 6 100 6 140 -1 40 0 76 3 80 2 4 39 6 83 6 l78 -1 0 -147z
m179 148 c14 -5 16 -27 16 -139 0 -151 -3 -158 -72 -153 l-43 3 2 138 c1 76 5
142 8 147 7 11 65 13 89 4z m221 -144 l0 -145 -70 0 -70 0 -3 134 c-1 74 -1
140 2 146 2 6 32 10 72 10 l69 0 0 -145z m-634 118 c8 -15 10 -58 5 -142 -3
-65 -7 -120 -9 -122 -1 -1 -31 -3 -67 -5 l-65 -4 -3 148 -3 147 65 0 c57 0 67
-3 77 -22z"/>
</g>
</svg>
