<?xml version="1.0" standalone="no"?>
<!DOCTYPE svg PUBLIC "-//W3C//DTD SVG 20010904//EN"
 "http://www.w3.org/TR/2001/REC-SVG-20010904/DTD/svg10.dtd">
<svg version="1.0" xmlns="http://www.w3.org/2000/svg"
 width="434.000000pt" height="590.000000pt" viewBox="0 0 434.000000 590.000000"
 preserveAspectRatio="xMidYMid meet">
<metadata>
Created by potrace 1.16, written by Peter Selinger 2001-2019
</metadata>
<g transform="translate(0.000000,590.000000) scale(0.500000,-0.500000)"
fill="#000000" stroke="none">
<path d="M763 1138 c-10 -4 -10 5 -8 -186 2 -220 2 -207 0 -210 -6 -6 -625 -4
-632 2 -8 7 -8 46 -1 66 5 14 10 294 5 304 -4 9 -10 10 -37 10 -39 -1 -35 11
-34 -112 1 -139 1 -138 -3 -145 -3 -6 -3 -25 -3 -246 0 -228 0 -239 -4 -248
-8 -20 -10 -315 -2 -321 5 -4 43 -7 55 -4 14 3 14 -4 12 130 -1 119 -1 122 3
132 4 9 4 15 4 63 0 43 1 53 3 55 5 4 620 4 624 -1 3 -2 3 -20 2 -180 -3 -214
-7 -194 39 -192 29 1 33 3 33 24 0 4 -1 115 -2 246 -2 231 -2 239 2 245 4 7 5
78 7 455 1 127 5 114 -33 114 -15 1 -28 0 -30 -1z m-25 -442 c5 -6 6 -211 1
-220 -4 -9 -101 -10 -112 -2 -6 6 -8 211 -1 222 1 2 9 3 38 4 59 2 70 2 74 -4z
m-320 0 c5 -5 5 -133 0 -146 -5 -12 -6 -63 -2 -76 5 -12 -121 -20 -132 -8 -5
5 -5 84 0 96 4 9 4 13 4 68 0 59 1 67 7 69 9 2 121 0 123 -3z m147 1 c5 -3 6
-218 1 -223 -4 -5 -78 -5 -84 0 -7 5 -9 79 -3 94 3 8 4 18 5 67 1 72 -3 65 44
65 26 0 34 -1 37 -3z m-343 -7 c2 -1 4 -5 5 -10 1 -4 3 -13 5 -19 6 -18 5
-115 -1 -128 -3 -6 -4 -15 -5 -37 -1 -37 4 -34 -55 -34 -61 -1 -54 -17 -55
113 0 116 0 116 10 118 8 1 93 -1 96 -3z"/>
</g>
</svg>
