<?xml version="1.0" standalone="no"?>
<!DOCTYPE svg PUBLIC "-//W3C//DTD SVG 20010904//EN"
 "http://www.w3.org/TR/2001/REC-SVG-20010904/DTD/svg10.dtd">
<svg version="1.0" xmlns="http://www.w3.org/2000/svg"
 width="400.000000pt" height="590.000000pt" viewBox="0 0 400.000000 590.000000"
 preserveAspectRatio="xMidYMid meet">
<metadata>
Created by potrace 1.16, written by Peter Selinger 2001-2019
</metadata>
<g transform="translate(0.000000,590.000000) scale(0.500000,-0.500000)"
fill="#000000" stroke="none">
<path d="M639 1130 c-6 -4 -9 -8 -10 -18 -1 -5 -3 -18 -5 -29 -4 -20 -4 -23
-13 -75 -11 -61 -15 -90 -17 -119 -1 -16 -3 -30 -3 -31 0 0 -2 -15 -3 -32 -6
-84 -9 -100 -20 -100 -47 -1 -340 1 -342 2 -5 3 -6 6 -7 40 -1 17 -2 39 -3 48
-1 9 -3 32 -4 51 -1 19 -4 47 -5 63 -2 15 -4 51 -4 79 -1 59 -2 72 -5 79 -1 3
-2 10 -3 16 -3 24 -7 27 -36 26 -31 -2 -35 -7 -30 -34 1 -11 3 -29 4 -41 1
-12 3 -37 5 -56 2 -19 4 -47 5 -62 1 -15 3 -36 4 -46 2 -10 4 -32 5 -49 1 -17
3 -42 5 -55 8 -66 8 -198 0 -213 -3 -5 -4 -14 -5 -32 -1 -13 -3 -29 -4 -35 -1
-5 -2 -17 -3 -25 -1 -14 -3 -28 -13 -94 -2 -14 -5 -30 -5 -36 -2 -14 -9 -46
-17 -72 -3 -12 -8 -31 -12 -44 -13 -46 -25 -88 -32 -112 -13 -41 -13 -46 -7
-59 17 -33 55 -20 64 21 2 9 5 22 6 27 2 6 6 21 9 35 4 17 8 27 11 32 5 5 5 8
4 16 -1 8 0 13 4 25 10 26 15 46 18 67 1 12 4 24 5 27 1 3 3 14 4 26 1 11 3
25 5 32 2 7 3 17 3 23 0 11 7 44 10 50 3 5 97 5 106 0 5 -3 6 -17 0 -30 -2 -5
-5 -14 -6 -21 -3 -16 -11 -44 -17 -55 -3 -6 -6 -18 -8 -33 -2 -13 -4 -28 -6
-33 -1 -5 -5 -18 -8 -29 -3 -11 -7 -27 -10 -36 -2 -9 -6 -23 -9 -31 -2 -8 -8
-29 -13 -47 -13 -48 -13 -44 -1 -63 14 -21 18 -23 38 -16 18 7 18 8 20 38 1
14 3 30 5 36 4 16 12 45 19 74 3 14 11 46 18 72 6 26 18 72 26 103 15 57 17
66 23 68 6 2 37 1 44 -2 8 -3 7 -1 23 -77 7 -36 12 -58 16 -76 2 -10 4 -20 4
-22 0 -3 1 -10 3 -16 3 -12 10 -40 14 -63 2 -8 4 -21 6 -29 2 -8 5 -24 7 -36
16 -77 14 -74 34 -74 37 0 44 11 34 52 -2 8 -6 25 -9 38 -11 47 -15 68 -20 87
-11 45 -13 56 -22 94 -5 22 -12 55 -16 73 -4 18 -8 35 -8 37 -3 11 13 13 65 9
30 -3 32 -3 34 -9 2 -6 7 -47 9 -75 3 -44 40 -173 75 -260 19 -47 20 -48 47
-48 32 0 41 17 24 44 -3 6 -8 15 -9 19 -1 4 -6 15 -10 23 -4 8 -10 22 -12 31
-2 9 -6 19 -8 23 -5 10 -13 37 -15 48 -1 5 -3 12 -5 16 -6 12 -17 52 -19 67
-1 8 -3 18 -5 22 -3 6 -5 14 -6 33 -1 14 -3 30 -4 37 -6 38 -10 151 -6 186 1
9 1 24 0 33 -3 35 2 173 6 190 2 9 4 22 4 30 0 26 4 63 8 78 2 8 6 29 8 45 2
17 6 35 7 41 1 6 4 18 5 27 1 9 5 25 9 36 12 35 9 46 -12 52 -14 4 -35 6 -40
3z m-65 -475 c9 -2 16 -131 8 -150 -5 -10 -54 -12 -127 -5 -11 1 -47 2 -81 3
-111 2 -158 7 -162 16 -3 5 -3 76 0 87 1 4 2 15 1 25 0 29 -22 26 181 26 96
-1 177 -1 180 -2z"/>
</g>
</svg>
