<?xml version="1.0" standalone="no"?>
<!DOCTYPE svg PUBLIC "-//W3C//DTD SVG 20010904//EN"
 "http://www.w3.org/TR/2001/REC-SVG-20010904/DTD/svg10.dtd">
<svg version="1.0" xmlns="http://www.w3.org/2000/svg"
 width="100.000000pt" height="148.000000pt" viewBox="0 0 100.000000 148.000000"
 preserveAspectRatio="xMidYMid meet">
<metadata>
Created by potrace 1.16, written by Peter Selinger 2001-2019
</metadata>
<g transform="translate(0.000000,148.000000) scale(0.100000,-0.100000)"
fill="#000000" stroke="none">
<path d="M790 1394 c-6 -14 -15 -54 -20 -88 -5 -33 -13 -86 -19 -116 -5 -30
-12 -98 -16 -150 -3 -52 -8 -105 -11 -117 l-4 -23 -220 0 c-120 0 -221 4 -224
8 -3 5 -10 87 -16 183 -7 96 -15 206 -18 244 l-7 70 -38 3 c-36 3 -44 -4 -37
-33 8 -38 41 -467 40 -536 0 -173 -53 -482 -112 -662 -22 -66 -21 -121 2 -124
27 -5 49 23 64 78 8 30 26 96 40 147 14 52 31 136 38 188 l12 94 73 0 c83 0
82 2 54 -86 -11 -32 -31 -108 -46 -168 -14 -60 -33 -129 -41 -153 -13 -38 -13
-46 1 -72 11 -22 20 -29 33 -24 32 11 42 25 42 59 0 40 95 423 109 437 5 5 21
7 37 5 28 -3 29 -5 51 -113 12 -60 36 -173 51 -250 l30 -140 27 2 c54 4 56
-21 -34 358 -15 66 -26 123 -24 128 2 4 31 7 63 7 68 0 64 5 75 -110 7 -65 94
-350 116 -376 15 -18 53 -18 68 0 10 11 7 25 -14 67 -28 55 -54 128 -87 249
-17 63 -21 114 -25 325 -5 264 3 392 39 570 10 54 21 102 24 106 5 9 -15 25
-43 33 -19 6 -25 2 -33 -20z m-62 -675 c2 -72 -1 -98 -10 -101 -7 -2 -60 -1
-118 3 -58 4 -155 7 -217 8 -76 1 -114 5 -119 13 -10 16 -5 171 6 178 4 3 109
3 232 0 l223 -5 3 -96z"/>
</g>
</svg>
