<?xml version="1.0" standalone="no"?>
<!DOCTYPE svg PUBLIC "-//W3C//DTD SVG 20010904//EN"
 "http://www.w3.org/TR/2001/REC-SVG-20010904/DTD/svg10.dtd">
<svg version="1.0" xmlns="http://www.w3.org/2000/svg"
 width="68.000000pt" height="100.000000pt" viewBox="0 0 68.000000 100.000000"
 preserveAspectRatio="xMidYMid meet">
<metadata>
Created by potrace 1.16, written by Peter Selinger 2001-2019
</metadata>
<g transform="translate(0.000000,100.000000) scale(0.100000,-0.100000)"
fill="#000000" stroke="none">
<path d="M110 945 c-6 -8 -9 -22 -6 -32 10 -35 27 -249 27 -334 0 -113 -24
-267 -63 -406 -30 -108 -31 -114 -14 -131 16 -16 18 -16 36 6 16 19 45 128 78
292 7 33 9 35 47 35 49 0 49 4 2 -175 -37 -139 -37 -160 4 -160 11 0 20 9 23
23 27 129 69 294 78 304 7 9 16 10 28 3 13 -7 24 -45 45 -157 29 -157 38 -183
59 -183 35 0 35 25 1 169 -19 79 -35 150 -35 158 0 10 10 13 37 11 l37 -3 13
-73 c6 -40 17 -90 24 -110 43 -135 59 -159 94 -146 21 8 19 19 -14 100 -55
134 -64 203 -58 428 3 135 10 228 22 283 19 90 16 113 -14 113 -26 0 -37 -22
-45 -90 -3 -30 -11 -98 -17 -150 -6 -52 -16 -98 -22 -102 -16 -11 -259 -10
-275 1 -10 6 -17 54 -24 162 -5 85 -14 160 -20 166 -14 17 -33 16 -48 -2z
m380 -455 c0 -40 -4 -62 -12 -65 -7 -2 -76 -1 -153 3 l-140 7 -3 44 c-5 73
-10 71 158 71 l150 0 0 -60z"/>
</g>
</svg>
