<?xml version="1.0" standalone="no"?>
<!DOCTYPE svg PUBLIC "-//W3C//DTD SVG 20010904//EN"
 "http://www.w3.org/TR/2001/REC-SVG-20010904/DTD/svg10.dtd">
<svg version="1.0" xmlns="http://www.w3.org/2000/svg"
 width="604.000000pt" height="590.000000pt" viewBox="0 0 604.000000 590.000000"
 preserveAspectRatio="xMidYMid meet">
<metadata>
Created by potrace 1.16, written by Peter Selinger 2001-2019
</metadata>
<g transform="translate(0.000000,590.000000) scale(0.500000,-0.500000)"
fill="#000000" stroke="none">
<path d="M1075 1137 c-13 -6 -27 -22 -28 -31 -1 -5 -5 -14 -9 -20 -8 -11 -9
-14 -10 -30 -1 -9 -3 -20 -4 -23 -1 -3 -2 -8 -2 -11 0 -6 -6 -33 -13 -54 -3
-8 -5 -20 -6 -26 -1 -6 -2 -12 -3 -14 -1 -2 -3 -15 -3 -28 0 -12 -1 -27 -3
-31 -1 -4 -3 -14 -5 -22 -6 -24 -8 -35 -13 -52 -3 -9 -6 -21 -7 -27 -5 -21 7
-19 -141 -20 -71 -1 -170 -3 -221 -4 -171 -4 -161 -5 -163 17 -1 8 -3 22 -6
33 -2 10 -4 23 -4 28 0 5 -1 13 -3 18 -2 5 -3 11 -3 15 0 3 -1 11 -3 17 -1 6
-4 16 -5 23 -1 8 -5 16 -10 24 -5 7 -10 17 -12 23 -3 6 -6 14 -8 17 -2 3 -4
10 -5 15 -2 11 -15 48 -24 66 -4 7 -8 17 -9 21 -18 56 -48 87 -73 74 -17 -8
-23 -30 -13 -49 3 -6 7 -15 8 -19 1 -5 5 -12 9 -16 9 -11 18 -28 21 -40 1 -5
5 -18 8 -27 3 -10 6 -19 6 -21 0 -2 3 -11 8 -20 4 -9 8 -19 10 -23 1 -4 5 -13
8 -20 3 -7 8 -20 11 -30 3 -9 7 -19 9 -21 4 -4 5 -9 6 -22 1 -9 3 -19 4 -21 5
-8 7 -87 3 -96 -2 -4 -4 -15 -4 -29 -2 -26 -2 -28 -13 -30 -5 -1 -14 -4 -21
-8 -12 -6 -15 -7 -65 -25 -16 -6 -51 -19 -78 -28 -57 -21 -65 -23 -67 -15 -1
3 -1 65 0 138 4 453 7 415 -32 415 -35 0 -32 5 -32 -67 0 -104 0 -873 0 -936
0 -72 -3 -67 32 -67 38 0 35 -23 33 220 -2 237 -5 212 20 220 21 7 32 11 57
21 12 5 28 11 36 13 8 2 18 6 23 8 4 2 9 4 11 4 1 0 8 3 15 6 55 27 74 28 74
6 0 -5 1 -14 3 -20 1 -6 3 -17 4 -24 1 -7 3 -18 4 -24 3 -12 2 -61 -1 -70 -3
-7 -4 -38 -2 -43 4 -7 3 -23 -4 -32 -7 -11 -9 -29 -8 -76 0 -22 -1 -33 -3 -42
-2 -6 -3 -15 -3 -19 0 -4 -3 -15 -6 -24 -3 -9 -6 -22 -7 -29 -1 -7 -4 -16 -7
-23 -3 -6 -6 -13 -6 -16 0 -3 -1 -10 -3 -15 -10 -32 3 -54 31 -53 23 2 29 9
36 41 5 20 8 29 17 40 4 5 4 8 5 42 2 45 5 65 12 86 5 15 5 19 6 61 5 135 4
128 11 133 9 8 129 8 134 0 5 -7 3 -138 -2 -159 -4 -13 -4 -14 0 -26 3 -11 3
-19 2 -85 l-1 -72 7 -12 c28 -47 83 -24 70 30 -4 15 -5 41 -6 159 -1 68 -2 86
-4 94 -2 7 -3 15 -2 21 6 60 1 55 59 55 31 0 44 1 51 3 50 15 83 -18 67 -66
-2 -7 -2 -10 0 -15 2 -7 2 -71 0 -188 -1 -90 -2 -87 21 -95 11 -4 11 -4 23 0
26 7 28 9 28 22 0 5 1 14 3 21 3 11 3 14 0 25 -8 34 -10 49 -7 62 2 11 2 14
-1 24 -4 15 -4 24 0 36 3 9 3 22 2 96 -2 106 -8 96 50 95 38 -1 41 -1 45 -5 5
-5 10 -22 10 -33 0 -5 1 -14 3 -20 2 -6 3 -20 3 -30 0 -18 0 -20 6 -28 5 -7 6
-11 6 -21 0 -7 1 -17 3 -23 2 -6 3 -19 3 -28 0 -17 4 -37 9 -53 2 -5 3 -14 3
-21 0 -14 7 -40 18 -67 5 -12 6 -18 6 -29 0 -36 24 -60 49 -49 31 13 35 96 6
131 -4 5 -6 10 -8 21 -1 8 -5 19 -8 26 -4 11 -5 15 -5 37 0 26 -5 48 -14 63
-3 4 -4 11 -4 26 -1 11 -3 25 -5 30 -1 6 -4 15 -6 21 -2 7 -4 21 -5 39 0 23
-2 31 -6 42 -4 12 -5 19 -6 49 0 19 -2 36 -3 38 -8 12 -12 95 -6 116 2 6 3 14
3 19 0 4 2 13 4 20 2 6 4 12 4 14 0 2 3 11 6 20 5 15 6 20 6 39 0 15 1 24 3
30 3 7 4 19 5 44 1 35 1 35 8 43 7 8 9 10 10 23 1 7 3 16 4 19 1 3 3 15 3 26
1 16 2 21 6 27 3 4 6 12 7 17 1 6 4 13 7 16 3 3 6 9 8 13 1 4 6 10 9 14 25 29
-15 65 -51 47z m-118 -467 c3 -4 5 -8 5 -13 0 -3 3 -17 6 -30 20 -75 15 -83
-58 -83 -42 0 -57 -1 -64 -3 -7 -2 -35 -3 -146 -4 -119 -1 -138 -1 -144 -4
-10 -4 -103 -5 -108 0 -9 7 -15 43 -10 56 2 3 3 19 4 35 2 40 0 38 38 38 21 0
32 1 40 3 9 3 21 3 72 3 53 -1 62 0 70 3 7 3 19 3 84 3 41 0 83 1 93 2 49 4
112 0 118 -6z"/>
</g>
</svg>
