<?xml version="1.0" standalone="no"?>
<!DOCTYPE svg PUBLIC "-//W3C//DTD SVG 20010904//EN"
 "http://www.w3.org/TR/2001/REC-SVG-20010904/DTD/svg10.dtd">
<svg version="1.0" xmlns="http://www.w3.org/2000/svg"
 width="152.000000pt" height="148.000000pt" viewBox="0 0 152.000000 148.000000"
 preserveAspectRatio="xMidYMid meet">
<metadata>
Created by potrace 1.16, written by Peter Selinger 2001-2019
</metadata>
<g transform="translate(0.000000,148.000000) scale(0.100000,-0.100000)"
fill="#000000" stroke="none">
<path d="M1365 1422 c-42 -9 -62 -41 -75 -122 -5 -25 -15 -70 -24 -100 -9 -30
-16 -71 -16 -90 -1 -19 -9 -66 -19 -105 l-19 -70 -323 -6 c-178 -4 -327 -5
-330 -3 -4 2 -10 30 -14 61 -9 76 -25 143 -41 168 -7 11 -20 43 -29 70 -10 28
-32 83 -51 123 -31 68 -35 73 -61 70 -41 -4 -42 -45 -4 -112 17 -29 31 -59 31
-66 0 -7 16 -52 35 -101 39 -95 56 -204 46 -278 l-6 -44 -140 -53 c-77 -30
-146 -55 -154 -56 -12 -3 -14 52 -15 347 l-1 350 -38 3 c-20 2 -37 0 -37 -5 0
-4 0 -305 0 -668 l-1 -660 38 0 38 0 1 269 1 270 114 41 c63 23 124 47 137 54
13 7 28 11 35 8 21 -7 34 -119 25 -214 -22 -230 -27 -270 -33 -303 -4 -19 -11
-39 -15 -45 -4 -5 -10 -24 -13 -41 -5 -24 -1 -36 13 -49 24 -22 47 -14 61 22
6 15 17 41 25 56 8 16 14 52 14 80 0 29 4 67 10 86 5 18 10 79 12 135 1 55 6
107 11 114 6 8 38 12 93 12 l83 0 0 -226 c0 -158 3 -230 12 -240 14 -17 65
-19 71 -1 3 6 2 102 -2 212 -4 110 -4 211 0 225 6 24 11 25 91 31 53 4 93 2
108 -5 l24 -11 -2 -218 c-2 -195 -1 -218 15 -224 9 -3 28 -2 43 3 l26 10 -4
228 c-2 150 0 230 7 235 5 3 35 4 65 3 l56 -4 9 -45 c6 -25 8 -52 5 -60 -3 -7
-1 -19 5 -26 6 -6 15 -56 22 -110 6 -55 18 -117 26 -140 8 -22 17 -54 20 -71
3 -17 13 -39 23 -50 18 -18 19 -18 40 3 26 26 28 94 5 148 -31 71 -33 78 -38
128 -2 28 -9 73 -15 100 -14 63 -32 169 -36 215 -15 151 -16 199 -5 240 7 25
17 88 24 140 6 52 17 105 24 117 6 12 12 40 12 62 0 36 26 99 51 126 26 27 -5
66 -46 57z m-147 -650 c15 -85 7 -107 -37 -99 -14 3 -161 1 -325 -4 -165 -5
-302 -6 -305 -3 -8 8 -2 147 7 155 4 4 115 10 247 14 132 4 242 9 244 11 2 2
38 3 80 1 l76 -2 13 -73z"/>
</g>
</svg>
