<?xml version="1.0" standalone="no"?>
<!DOCTYPE svg PUBLIC "-//W3C//DTD SVG 20010904//EN"
 "http://www.w3.org/TR/2001/REC-SVG-20010904/DTD/svg10.dtd">
<svg version="1.0" xmlns="http://www.w3.org/2000/svg"
 width="530.000000pt" height="590.000000pt" viewBox="0 0 530.000000 590.000000"
 preserveAspectRatio="xMidYMid meet">
<metadata>
Created by potrace 1.16, written by Peter Selinger 2001-2019
</metadata>
<g transform="translate(0.000000,590.000000) scale(0.500000,-0.500000)"
fill="#000000" stroke="none">
<path d="M85 1123 c-6 -4 -6 -15 -5 -138 2 -68 2 -301 1 -525 -1 -398 -1 -403
3 -408 4 -5 5 -5 29 -5 38 0 33 -36 32 261 -2 251 -2 251 2 255 8 8 106 9 116
2 5 -3 4 11 3 -311 -1 -235 -6 -206 36 -207 42 0 37 -37 35 261 -2 250 -1 251
2 255 10 8 121 10 148 2 6 -2 7 -10 5 -257 -2 -290 -4 -262 27 -262 31 0 29
-28 27 264 -1 249 -1 257 5 259 6 2 140 2 144 0 7 -2 8 -8 6 -125 -5 -410 -6
-397 32 -397 38 0 34 -37 32 265 -1 256 -1 256 3 259 8 5 134 5 139 1 4 -4 4
-108 2 -380 -2 -163 -6 -145 36 -145 29 0 29 0 33 5 4 4 4 11 3 417 -1 227 0
462 0 523 3 147 7 134 -39 134 -47 0 -43 13 -41 -118 3 -171 6 -153 -22 -153
-9 0 -109 1 -223 2 -126 1 -263 1 -349 -1 -78 -1 -144 -1 -146 0 -9 3 -9 4 -7
133 3 133 3 130 -7 135 -7 3 -57 3 -62 -1z m810 -331 c10 -2 14 -4 16 -7 4 -5
5 -148 1 -152 -4 -4 -754 -5 -759 -1 -4 4 -4 149 1 155 2 3 22 3 249 3 135 0
287 1 337 2 50 1 103 1 117 2 14 0 31 -1 38 -2z"/>
</g>
</svg>
