<?xml version="1.0" standalone="no"?>
<!DOCTYPE svg PUBLIC "-//W3C//DTD SVG 20010904//EN"
 "http://www.w3.org/TR/2001/REC-SVG-20010904/DTD/svg10.dtd">
<svg version="1.0" xmlns="http://www.w3.org/2000/svg"
 width="89.000000pt" height="100.000000pt" viewBox="0 0 89.000000 100.000000"
 preserveAspectRatio="xMidYMid meet">
<metadata>
Created by potrace 1.16, written by Peter Selinger 2001-2019
</metadata>
<g transform="translate(0.000000,100.000000) scale(0.100000,-0.100000)"
fill="#000000" stroke="none">
<path d="M73 948 c-4 -7 -9 -211 -11 -454 -3 -385 -2 -442 12 -453 10 -9 20
-10 32 -3 15 9 17 32 18 223 l1 214 48 3 47 3 0 -219 c0 -186 2 -221 15 -226
42 -16 44 -4 47 222 l3 217 60 0 60 0 5 -220 c5 -212 6 -220 25 -220 19 0 20
8 23 222 l2 223 59 0 59 0 7 -62 c4 -34 6 -132 4 -217 -4 -137 -2 -155 13
-165 38 -24 43 3 40 225 l-3 209 28 11 c15 6 42 8 60 4 l33 -6 0 -213 c0 -183
2 -215 16 -227 11 -9 20 -10 32 -2 15 9 17 51 17 458 0 416 -1 449 -17 459
-13 8 -23 8 -35 0 -16 -10 -18 -26 -15 -116 l2 -105 -52 -7 c-68 -8 -491 -8
-540 0 l-38 7 0 107 c0 89 -3 109 -16 114 -23 9 -32 7 -41 -6z m687 -342 l0
-64 -82 -7 c-46 -3 -186 -5 -313 -3 l-230 3 -3 62 -3 62 148 4 c81 1 223 4
316 5 l167 2 0 -64z"/>
</g>
</svg>
