<?xml version="1.0" standalone="no"?>
<!DOCTYPE svg PUBLIC "-//W3C//DTD SVG 20010904//EN"
 "http://www.w3.org/TR/2001/REC-SVG-20010904/DTD/svg10.dtd">
<svg version="1.0" xmlns="http://www.w3.org/2000/svg"
 width="100.000000pt" height="96.000000pt" viewBox="0 0 100.000000 96.000000"
 preserveAspectRatio="xMidYMid meet">
<metadata>
Created by potrace 1.16, written by Peter Selinger 2001-2019
</metadata>
<g transform="translate(0.000000,96.000000) scale(0.100000,-0.100000)"
fill="#000000" stroke="none">
<path d="M42 473 l3 -438 30 0 30 0 5 210 5 210 40 0 40 0 3 -207 2 -208 42 0
41 0 -6 179 c-4 99 -4 193 -1 211 6 29 9 31 48 28 l41 -3 3 -208 2 -207 35 0
c32 0 34 2 41 45 3 25 5 119 3 208 l-4 162 43 3 c51 4 46 23 47 -228 l0 -185
37 -3 38 -3 2 208 3 208 45 0 45 0 5 -202 c3 -111 7 -204 10 -206 6 -6 29 -10
52 -8 16 1 18 20 20 209 l3 207 45 0 45 0 5 -210 c5 -203 6 -210 26 -213 46
-7 47 0 39 453 l-7 425 -29 0 -28 0 -3 -107 -3 -108 -345 -3 c-190 -2 -364 0
-387 3 l-43 6 0 105 0 104 -35 0 -35 0 2 -437z m843 102 l0 -60 -388 -3 -387
-2 0 60 0 60 263 3 c144 1 318 2 387 2 l125 0 0 -60z"/>
</g>
</svg>
