<?xml version="1.0" standalone="no"?>
<!DOCTYPE svg PUBLIC "-//W3C//DTD SVG 20010904//EN"
 "http://www.w3.org/TR/2001/REC-SVG-20010904/DTD/svg10.dtd">
<svg version="1.0" xmlns="http://www.w3.org/2000/svg"
 width="616.000000pt" height="590.000000pt" viewBox="0 0 616.000000 590.000000"
 preserveAspectRatio="xMidYMid meet">
<metadata>
Created by potrace 1.16, written by Peter Selinger 2001-2019
</metadata>
<g transform="translate(0.000000,590.000000) scale(0.500000,-0.500000)"
fill="#000000" stroke="none">
<path d="M66 1119 c-8 -2 -12 -7 -12 -17 0 -575 2 -1047 5 -1050 7 -4 70 -2
74 3 3 4 3 17 2 114 -4 379 -3 394 12 393 5 0 12 1 17 3 21 6 67 5 78 -3 8 -5
8 -4 6 -259 -2 -290 -9 -254 47 -253 51 1 48 -2 46 45 -3 77 -4 452 -1 460 7
22 109 22 116 0 3 -8 2 -366 -1 -455 -2 -53 -5 -50 47 -50 55 0 48 -37 46 252
-1 248 -1 254 5 260 9 9 104 8 108 -2 2 -4 2 -332 0 -430 -2 -88 -7 -80 47
-80 54 0 47 -37 46 253 -1 260 -1 256 9 261 13 6 91 8 105 3 15 -5 15 -7 15
-276 0 -233 0 -233 5 -237 9 -8 87 -5 88 3 0 1 0 114 0 250 0 267 -1 255 10
260 11 6 105 6 110 1 4 -4 4 -4 3 -258 -2 -253 -2 -253 3 -257 8 -5 68 -5 73
1 5 5 4 -34 2 377 -1 242 -1 393 1 509 3 201 7 180 -37 180 -49 0 -45 13 -44
-138 2 -152 9 -133 -51 -131 -102 3 -376 3 -631 1 -324 -2 -282 -11 -280 57 6
222 6 204 -7 209 -6 2 -50 2 -62 1z m1026 -330 c8 -7 13 -151 6 -158 -4 -4
-959 -5 -963 -1 -2 2 -2 8 -1 82 0 81 -21 70 147 70 75 0 177 0 228 0 321 4
473 6 495 8 48 3 83 2 88 -1z"/>
</g>
</svg>
