<?xml version="1.0" standalone="no"?>
<!DOCTYPE svg PUBLIC "-//W3C//DTD SVG 20010904//EN"
 "http://www.w3.org/TR/2001/REC-SVG-20010904/DTD/svg10.dtd">
<svg version="1.0" xmlns="http://www.w3.org/2000/svg"
 width="100.000000pt" height="148.000000pt" viewBox="0 0 100.000000 148.000000"
 preserveAspectRatio="xMidYMid meet">
<metadata>
Created by potrace 1.16, written by Peter Selinger 2001-2019
</metadata>
<g transform="translate(0.000000,148.000000) scale(0.100000,-0.100000)"
fill="#000000" stroke="none">
<path d="M172 1412 c-9 -7 -10 -52 -2 -218 16 -345 13 -574 -10 -721 -21 -138
-50 -254 -73 -300 -39 -75 -27 -134 23 -115 18 7 28 25 42 73 48 164 67 247
73 327 8 95 16 112 50 112 13 0 25 -6 27 -12 2 -7 1 -119 -2 -248 -3 -129 -4
-241 -2 -248 3 -8 17 -12 36 -10 l31 3 5 254 5 255 98 0 c58 1 97 -3 97 -9 1
-5 2 -120 3 -255 l2 -245 30 0 30 0 2 245 c1 135 2 251 3 258 0 7 14 12 35 12
43 0 43 -2 80 -160 14 -63 43 -164 63 -225 36 -108 38 -110 70 -113 43 -4 48
13 22 79 -32 79 -65 182 -92 279 -21 79 -23 102 -21 315 1 139 9 288 19 375
23 197 24 294 3 298 -9 1 -25 -5 -36 -15 -19 -16 -23 -39 -38 -238 -9 -121
-17 -231 -18 -245 l-2 -25 -235 0 -235 0 -1 60 c-2 193 -18 451 -28 457 -14
10 -38 10 -54 0z m127 -596 c8 -9 11 -45 9 -98 -3 -77 -5 -83 -25 -86 -33 -5
-45 28 -40 107 3 38 8 74 11 80 10 15 31 14 45 -3z m276 -91 l0 -90 -100 0
-100 0 -3 93 -3 93 103 -3 103 -3 0 -90z m143 3 l-3 -93 -37 -3 -38 -3 0 95 0
96 40 0 41 0 -3 -92z"/>
</g>
</svg>
