<?xml version="1.0" standalone="no"?>
<!DOCTYPE svg PUBLIC "-//W3C//DTD SVG 20010904//EN"
 "http://www.w3.org/TR/2001/REC-SVG-20010904/DTD/svg10.dtd">
<svg version="1.0" xmlns="http://www.w3.org/2000/svg"
 width="400.000000pt" height="590.000000pt" viewBox="0 0 400.000000 590.000000"
 preserveAspectRatio="xMidYMid meet">
<metadata>
Created by potrace 1.16, written by Peter Selinger 2001-2019
</metadata>
<g transform="translate(0.000000,590.000000) scale(0.500000,-0.500000)"
fill="#000000" stroke="none">
<path d="M139 1130 c-9 -4 -12 -10 -10 -32 0 -10 2 -39 3 -64 3 -70 8 -158 10
-189 5 -69 5 -354 0 -381 -2 -14 -4 -30 -5 -37 -1 -7 -3 -24 -5 -38 -2 -14 -5
-35 -7 -47 -5 -36 -7 -49 -11 -62 -2 -7 -6 -22 -9 -34 -13 -51 -38 -122 -45
-131 -5 -6 -10 -42 -7 -51 11 -31 54 -22 63 13 10 37 12 43 17 55 7 18 15 45
34 118 6 20 13 68 17 106 1 13 3 24 3 24 0 1 2 15 4 31 4 40 8 45 36 43 18 -2
18 -3 18 -39 -1 -16 -2 -92 -3 -168 -3 -208 -3 -191 2 -196 5 -5 35 -7 46 -2
12 5 12 0 10 204 -2 199 -2 196 9 199 7 1 139 1 145 -1 7 -2 7 -1 5 -104 -5
-279 -5 -287 -3 -292 4 -7 11 -9 33 -9 31 1 28 -23 26 203 -1 142 -1 193 1
196 3 7 14 10 34 8 27 -2 26 -1 35 -40 3 -13 7 -29 8 -36 2 -7 7 -30 12 -53 5
-23 13 -52 17 -65 4 -13 8 -27 9 -30 3 -17 54 -166 57 -169 10 -9 36 -8 47 0
15 12 16 16 8 34 -6 12 -7 14 -27 75 -27 78 -44 131 -50 155 -8 31 -11 45 -15
62 -2 7 -4 16 -5 20 -1 4 -2 16 -3 27 -1 11 -3 24 -4 29 -4 12 -4 105 0 124 1
7 2 27 2 44 0 17 1 42 2 55 1 13 2 46 3 73 1 27 3 56 5 64 2 8 3 22 3 31 0 25
4 61 8 81 2 10 4 25 4 34 0 10 1 23 3 30 2 7 4 29 5 48 1 19 2 43 3 52 2 29
-7 37 -38 32 -25 -4 -29 -10 -29 -40 0 -11 -1 -28 -3 -38 -2 -10 -3 -32 -4
-47 -1 -15 -3 -38 -4 -51 -2 -13 -4 -39 -5 -60 -1 -20 -3 -37 -3 -38 0 -1 -2
-26 -3 -55 -4 -100 25 -87 -193 -87 -216 0 -188 -8 -187 55 1 33 0 48 -2 52
-1 3 -2 13 -2 23 1 27 -4 142 -5 145 -1 1 -2 31 -3 66 -1 69 -2 70 -10 74 -6
3 -40 4 -47 1z m103 -476 c6 -6 6 -133 0 -139 -11 -10 -36 -3 -40 10 -3 12 -2
70 1 85 2 10 3 15 1 23 -4 20 -1 25 20 25 11 0 15 -1 18 -4z m216 0 c5 -3 7
-133 2 -142 -5 -9 -149 -6 -157 3 -8 9 -5 136 4 141 8 4 146 3 151 -2z m112 0
c7 -5 7 -133 0 -142 -4 -6 -41 -9 -49 -3 -9 6 -9 138 1 145 7 6 41 6 48 0z"/>
</g>
</svg>
