<?xml version="1.0" standalone="no"?>
<!DOCTYPE svg PUBLIC "-//W3C//DTD SVG 20010904//EN"
 "http://www.w3.org/TR/2001/REC-SVG-20010904/DTD/svg10.dtd">
<svg version="1.0" xmlns="http://www.w3.org/2000/svg"
 width="508.000000pt" height="590.000000pt" viewBox="0 0 508.000000 590.000000"
 preserveAspectRatio="xMidYMid meet">
<metadata>
Created by potrace 1.16, written by Peter Selinger 2001-2019
</metadata>
<g transform="translate(0.000000,590.000000) scale(0.500000,-0.500000)"
fill="#000000" stroke="none">
<path d="M117 1127 c-12 -5 -14 -67 -6 -240 5 -122 6 -258 2 -269 -4 -11 -4
-26 1 -42 5 -15 6 -71 2 -79 -3 -4 -6 -51 -7 -97 0 -29 0 -29 -7 -41 -5 -10
-6 -13 -6 -27 0 -14 -1 -16 -6 -25 -4 -5 -7 -12 -7 -17 -1 -4 -2 -16 -3 -28
-1 -12 -6 -33 -10 -49 -4 -15 -9 -33 -11 -40 -1 -7 -4 -18 -6 -26 -2 -8 -6
-23 -9 -33 -13 -49 -6 -61 37 -60 45 2 49 7 49 72 -1 45 -1 45 6 54 6 9 6 9 6
34 0 28 2 40 8 49 4 5 5 10 6 31 1 23 4 36 13 71 1 7 3 14 4 17 2 10 6 11 58
12 65 1 60 6 58 -59 -8 -294 -9 -285 33 -283 29 2 30 6 22 266 -2 64 -2 70 6
74 8 4 107 3 112 -2 6 -4 6 3 3 -147 -5 -209 -8 -189 23 -191 43 -2 41 -16 33
285 -2 64 -10 57 67 57 76 0 71 3 69 -41 -2 -39 -5 -197 -5 -249 0 -52 -1 -51
32 -51 37 0 37 10 27 294 -2 50 -6 47 55 47 64 0 65 -1 68 -19 1 -7 3 -14 6
-18 5 -6 5 -8 6 -41 1 -35 1 -35 9 -44 12 -13 13 -18 15 -60 1 -37 1 -38 7
-46 4 -6 6 -11 7 -22 1 -7 3 -16 5 -20 2 -4 4 -14 5 -25 4 -44 19 -57 55 -47
17 5 22 29 12 59 -4 10 -12 52 -14 68 -1 7 -3 16 -5 21 -4 9 -7 28 -10 64 -1
20 -2 22 -7 29 -6 8 -6 8 -7 53 -1 45 -1 45 -7 54 -8 11 -10 43 -4 62 3 11 3
13 1 23 -5 21 -1 208 5 217 4 7 6 138 7 367 0 64 2 61 -32 61 -28 0 -38 -4
-45 -22 -3 -9 -1 -175 3 -185 3 -8 6 -134 2 -138 -1 -1 -7 -6 -13 -9 l-11 -6
-317 0 c-382 1 -326 -30 -323 178 3 185 3 175 -9 180 -8 3 -51 2 -58 -1z m166
-428 c11 -4 10 -80 -2 -103 -3 -6 -7 -16 -8 -23 -2 -6 -5 -16 -8 -20 -3 -7 -4
-13 -5 -36 -1 -37 0 -36 -33 -36 -27 0 -29 1 -33 13 -1 4 -5 11 -8 15 -7 10
-8 180 -1 186 5 6 85 9 98 4z m152 -4 c9 -10 7 -103 -2 -116 -3 -6 -7 -13 -9
-16 -1 -4 -11 -17 -21 -29 -14 -17 -19 -26 -21 -32 -1 -5 -3 -11 -3 -13 -3
-11 -51 -15 -61 -4 -6 7 -5 16 3 26 5 6 6 10 7 28 2 24 6 40 17 75 9 25 9 29
10 53 2 36 0 35 47 34 28 0 28 0 33 -6z m158 3 c3 -3 3 -4 0 -11 -1 -5 -3 -16
-4 -25 -1 -9 -4 -26 -6 -37 -16 -66 -23 -81 -48 -111 -5 -6 -10 -15 -11 -20
-4 -14 -8 -15 -43 -15 -41 0 -44 3 -28 24 5 7 10 15 12 19 2 4 7 12 12 18 21
27 24 39 18 71 -5 26 -4 79 2 85 6 7 89 9 96 2z m137 1 c5 -4 5 -33 0 -49 -2
-4 -3 -17 -4 -29 -1 -21 -2 -23 -7 -30 -3 -5 -7 -12 -8 -20 -2 -8 -6 -19 -9
-27 -7 -16 -18 -49 -18 -52 0 -8 -8 -11 -33 -13 -58 -4 -68 -2 -59 12 2 3 8
15 14 27 6 12 13 26 16 32 4 7 6 16 7 24 2 20 5 34 9 42 2 4 5 16 7 26 2 14 4
21 10 30 4 6 7 12 7 14 0 14 52 24 68 13z m96 -10 l8 -9 0 -93 c0 -115 5 -104
-47 -106 -39 -2 -47 5 -31 30 4 6 7 13 8 20 1 8 3 14 8 20 6 8 6 11 9 35 1 18
3 29 6 34 2 4 4 13 5 27 1 18 2 21 6 27 3 3 6 9 7 12 3 15 9 16 21 3z"/>
</g>
</svg>
