<?xml version="1.0" standalone="no"?>
<!DOCTYPE svg PUBLIC "-//W3C//DTD SVG 20010904//EN"
 "http://www.w3.org/TR/2001/REC-SVG-20010904/DTD/svg10.dtd">
<svg version="1.0" xmlns="http://www.w3.org/2000/svg"
 width="128.000000pt" height="148.000000pt" viewBox="0 0 128.000000 148.000000"
 preserveAspectRatio="xMidYMid meet">
<metadata>
Created by potrace 1.16, written by Peter Selinger 2001-2019
</metadata>
<g transform="translate(0.000000,148.000000) scale(0.100000,-0.100000)"
fill="#000000" stroke="none">
<path d="M138 1405 c-4 -4 -4 -163 0 -353 9 -489 8 -538 -15 -622 -8 -30 -19
-75 -23 -100 -5 -25 -18 -83 -30 -129 -11 -46 -20 -95 -18 -110 3 -24 6 -26
43 -23 22 2 45 8 51 13 7 5 14 44 18 87 9 118 23 209 44 287 8 28 12 30 73 36
35 3 68 3 73 1 4 -2 7 -95 5 -206 -2 -110 0 -207 4 -213 10 -17 54 -17 63 -1
4 7 8 105 8 217 l1 205 68 1 c38 0 72 -4 76 -10 4 -5 4 -98 1 -205 -6 -213 -3
-224 50 -218 l25 3 0 214 0 214 78 -1 c43 0 81 -3 84 -6 3 -3 6 -99 7 -213 l1
-208 35 0 35 0 -3 211 c-2 163 1 213 10 216 7 2 43 2 79 0 65 -4 67 -4 73 -34
3 -17 6 -46 6 -66 0 -19 7 -43 15 -52 8 -9 17 -41 19 -71 4 -45 12 -83 42
-197 5 -16 59 -15 73 2 7 9 8 22 3 37 -5 13 -17 67 -26 119 -10 52 -22 109
-27 126 -5 17 -9 52 -9 78 0 26 -4 55 -9 64 -5 10 -5 115 0 242 4 124 9 324
10 445 l2 220 -41 3 c-34 3 -41 0 -47 -19 -4 -12 -4 -111 0 -220 l7 -198 -33
-6 c-19 -3 -209 -4 -424 -3 l-390 3 0 220 0 220 -40 3 c-23 2 -44 0 -47 -3z
m220 -583 c2 -36 -4 -71 -18 -109 -11 -30 -18 -64 -14 -75 8 -26 -13 -48 -47
-48 -46 0 -59 38 -58 167 1 59 3 112 6 116 3 4 32 7 66 5 l62 -3 3 -53z m190
-20 c3 -70 1 -75 -31 -120 -19 -26 -38 -57 -41 -69 -6 -18 -15 -23 -42 -23
-37 0 -56 22 -35 43 6 6 11 25 11 43 0 17 7 51 15 74 8 23 15 59 15 80 0 20 3
40 7 44 4 4 28 6 53 4 l45 -3 3 -73z m202 71 c0 -34 -45 -184 -60 -205 -11
-15 -25 -39 -30 -53 -8 -22 -15 -25 -60 -25 -28 0 -50 5 -50 11 0 5 16 31 36
57 34 45 36 50 34 122 -2 41 -2 81 -1 88 1 13 131 18 131 5z m166 -55 c-4 -35
-19 -99 -35 -143 l-29 -80 -47 -3 c-58 -4 -81 3 -67 21 23 28 52 89 52 109 0
23 15 74 37 126 12 29 18 32 55 32 l41 0 -7 -62z m122 50 c17 -17 17 -264 0
-270 -25 -9 -97 -9 -102 0 -3 5 5 31 18 58 13 27 26 76 30 109 7 58 25 115 36
115 3 0 11 -5 18 -12z"/>
</g>
</svg>
