<?xml version="1.0" standalone="no"?>
<!DOCTYPE svg PUBLIC "-//W3C//DTD SVG 20010904//EN"
 "http://www.w3.org/TR/2001/REC-SVG-20010904/DTD/svg10.dtd">
<svg version="1.0" xmlns="http://www.w3.org/2000/svg"
 width="86.000000pt" height="100.000000pt" viewBox="0 0 86.000000 100.000000"
 preserveAspectRatio="xMidYMid meet">
<metadata>
Created by potrace 1.16, written by Peter Selinger 2001-2019
</metadata>
<g transform="translate(0.000000,100.000000) scale(0.100000,-0.100000)"
fill="#000000" stroke="none">
<path d="M97 954 c-4 -4 -7 -146 -7 -315 0 -306 0 -308 -31 -443 -16 -75 -27
-141 -24 -146 3 -6 19 -10 35 -10 34 0 33 -4 55 153 9 59 18 114 22 122 3 10
20 15 49 15 l44 0 0 -144 c0 -117 3 -145 15 -150 8 -3 22 2 31 11 14 14 16 36
13 147 l-4 131 49 3 49 3 -7 -134 c-6 -116 -5 -137 9 -150 20 -20 43 -12 51
18 3 13 4 76 2 142 l-3 118 53 3 52 3 0 -145 0 -146 24 0 c13 0 26 6 29 13 3
6 2 72 -1 145 l-5 132 51 0 c55 0 52 3 65 -70 7 -41 38 -184 43 -202 6 -19 48
-25 59 -9 3 6 -1 41 -9 78 -38 178 -38 190 -35 510 l4 318 -30 0 -30 0 0 -142
c-1 -83 -5 -147 -11 -153 -7 -7 -105 -9 -275 -8 l-264 3 -5 150 -5 150 -25 3
c-14 2 -29 0 -33 -4z m140 -416 c-13 -112 -20 -133 -47 -133 -20 0 -26 7 -33
38 -5 21 -6 62 -2 92 l6 55 41 0 40 0 -5 -52z m131 7 c3 -53 -43 -139 -77
-143 -26 -4 -26 -10 0 121 14 67 14 68 44 65 27 -3 30 -6 33 -43z m124 5 c-1
-19 -15 -60 -30 -90 -22 -44 -32 -56 -54 -58 -34 -4 -37 14 -8 51 15 18 20 40
20 82 l0 56 38 -3 c36 -3 37 -4 34 -38z m123 30 c8 -12 -23 -129 -41 -158 -11
-17 -23 -22 -42 -20 -15 2 -26 8 -24 13 48 163 53 175 77 175 13 0 27 -4 30
-10z m91 -15 c3 -14 2 -56 -2 -93 -8 -60 -12 -67 -33 -70 -13 -2 -27 0 -31 5
-7 7 17 123 35 171 7 20 24 14 31 -13z"/>
</g>
</svg>
