<?xml version="1.0" standalone="no"?>
<!DOCTYPE svg PUBLIC "-//W3C//DTD SVG 20010904//EN"
 "http://www.w3.org/TR/2001/REC-SVG-20010904/DTD/svg10.dtd">
<svg version="1.0" xmlns="http://www.w3.org/2000/svg"
 width="374.000000pt" height="590.000000pt" viewBox="0 0 374.000000 590.000000"
 preserveAspectRatio="xMidYMid meet">
<metadata>
Created by potrace 1.16, written by Peter Selinger 2001-2019
</metadata>
<g transform="translate(0.000000,590.000000) scale(0.500000,-0.500000)"
fill="#000000" stroke="none">
<path d="M55 1136 c-15 -1 -14 22 -14 -278 0 -149 0 -393 -1 -543 0 -315 -3
-283 25 -283 26 0 24 -35 23 314 -1 248 0 306 2 308 4 5 151 5 157 1 4 -3 4
-3 3 -308 0 -261 0 -307 2 -310 6 -8 34 -8 42 0 3 4 4 42 2 410 -1 161 0 206
2 208 4 4 144 4 149 0 4 -3 5 -335 2 -534 -2 -92 -3 -89 29 -89 31 0 28 -54
26 389 -1 224 -1 232 3 234 4 3 133 4 143 1 10 -2 9 6 8 -308 -1 -300 -1 -309
5 -313 7 -5 30 -4 36 2 7 7 6 1089 -1 1096 -4 3 -599 7 -643 3z m193 -48 c4
-3 5 -370 1 -375 -4 -5 -155 -5 -159 1 -3 3 -3 21 -3 186 1 197 1 187 7 190 8
3 151 2 154 -2z m199 1 c3 -2 6 -360 3 -373 -2 -9 -143 -12 -151 -4 -6 6 -5
371 1 377 6 4 141 5 147 0z m208 -1 c4 -5 5 -370 1 -375 -5 -5 -145 -5 -149
-1 -6 7 -5 371 1 377 6 5 142 4 147 -1z"/>
</g>
</svg>
