<?xml version="1.0" standalone="no"?>
<!DOCTYPE svg PUBLIC "-//W3C//DTD SVG 20010904//EN"
 "http://www.w3.org/TR/2001/REC-SVG-20010904/DTD/svg10.dtd">
<svg version="1.0" xmlns="http://www.w3.org/2000/svg"
 width="64.000000pt" height="100.000000pt" viewBox="0 0 64.000000 100.000000"
 preserveAspectRatio="xMidYMid meet">
<metadata>
Created by potrace 1.16, written by Peter Selinger 2001-2019
</metadata>
<g transform="translate(0.000000,100.000000) scale(0.100000,-0.100000)"
fill="#000000" stroke="none">
<path d="M37 953 c-12 -11 -8 -923 3 -924 6 -1 16 -2 23 -3 9 -1 13 60 17 259
l5 260 62 3 63 3 2 -263 c3 -255 4 -263 23 -263 19 0 20 7 20 260 l0 260 62 3
63 3 0 -253 c0 -139 4 -259 9 -267 15 -23 38 -5 46 36 4 21 4 117 0 215 -4 97
-4 197 -1 222 l7 46 54 0 54 0 7 -46 c4 -26 3 -140 -1 -253 -6 -183 -5 -209 9
-220 12 -10 19 -11 30 -2 11 9 13 88 11 444 -1 237 -3 444 -4 460 l-1 27 -278
0 c-153 0 -282 -3 -285 -7z m156 -46 c16 -11 17 -30 15 -157 l-3 -145 -60 0
-60 0 -3 145 c-1 79 0 150 2 157 7 17 86 17 109 0z m182 -147 l0 -155 -60 0
-60 0 4 150 c2 83 5 154 8 158 3 4 28 7 56 5 l52 -3 0 -155z m169 151 c9 -14
19 -256 12 -285 -6 -24 -10 -26 -60 -26 -52 0 -54 1 -60 31 -10 49 -7 235 4
263 8 23 15 26 54 26 25 0 47 -4 50 -9z"/>
</g>
</svg>
