<?xml version="1.0" standalone="no"?>
<!DOCTYPE svg PUBLIC "-//W3C//DTD SVG 20010904//EN"
 "http://www.w3.org/TR/2001/REC-SVG-20010904/DTD/svg10.dtd">
<svg version="1.0" xmlns="http://www.w3.org/2000/svg"
 width="94.000000pt" height="148.000000pt" viewBox="0 0 94.000000 148.000000"
 preserveAspectRatio="xMidYMid meet">
<metadata>
Created by potrace 1.16, written by Peter Selinger 2001-2019
</metadata>
<g transform="translate(0.000000,148.000000) scale(0.100000,-0.100000)"
fill="#000000" stroke="none">
<path d="M50 730 c0 -618 2 -691 16 -697 37 -14 39 7 39 400 l0 382 103 0 104
0 1 -390 2 -390 25 0 25 0 1 390 1 390 98 0 98 0 -2 -387 c-2 -374 -2 -386 17
-392 11 -4 27 -4 36 0 15 6 17 39 16 393 l-2 386 98 0 99 0 -4 -387 -3 -386
22 -7 c12 -4 26 -3 31 2 5 5 8 294 7 694 l-3 684 -412 3 -413 2 0 -690z m262
408 c2 -128 1 -239 -1 -246 -2 -9 -29 -12 -105 -10 l-101 3 -3 234 c-2 181 1
236 10 243 7 4 54 8 105 8 l92 0 3 -232z m248 225 c0 -5 1 -114 2 -243 l2
-235 -99 0 -98 0 1 233 c1 128 4 237 7 243 7 11 185 13 185 2z m255 -4 c4 -6
8 -113 9 -240 1 -183 -1 -230 -12 -234 -8 -3 -52 -5 -98 -5 -60 0 -84 4 -85
13 -2 68 3 463 7 469 8 12 172 10 179 -3z"/>
</g>
</svg>
