<?xml version="1.0" standalone="no"?>
<!DOCTYPE svg PUBLIC "-//W3C//DTD SVG 20010904//EN"
 "http://www.w3.org/TR/2001/REC-SVG-20010904/DTD/svg10.dtd">
<svg version="1.0" xmlns="http://www.w3.org/2000/svg"
 width="99.000000pt" height="100.000000pt" viewBox="0 0 99.000000 100.000000"
 preserveAspectRatio="xMidYMid meet">
<metadata>
Created by potrace 1.16, written by Peter Selinger 2001-2019
</metadata>
<g transform="translate(0.000000,100.000000) scale(0.100000,-0.100000)"
fill="#000000" stroke="none">
<path d="M220 960 l-185 -5 0 -460 c0 -453 0 -460 20 -460 19 0 20 8 25 260
l5 260 60 0 60 0 5 -260 c5 -252 6 -260 25 -260 19 0 20 8 23 256 2 256 2 257
25 263 12 3 115 6 230 6 l207 0 0 -219 c0 -253 6 -313 28 -309 27 5 30 45 25
253 -3 111 -3 218 1 238 l7 38 56 -3 c53 -3 57 -5 65 -33 5 -16 7 -132 6 -257
-1 -125 1 -230 5 -235 4 -4 16 -2 25 4 16 9 17 46 15 463 -2 249 -4 454 -5
455 -8 6 -567 10 -728 5z m-47 -46 l37 -7 0 -147 0 -147 -40 -7 c-22 -3 -52
-3 -65 0 l-25 6 0 147 c0 81 3 151 7 154 8 9 37 9 86 1z m185 0 c22 -6 22 -9
22 -154 l0 -148 -34 -6 c-19 -4 -46 -4 -60 0 l-26 6 0 147 c0 81 3 151 7 154
8 9 60 9 91 1z m190 -150 l3 -152 -25 -6 c-13 -3 -37 -3 -54 0 -37 7 -42 31
-42 191 0 125 -1 123 80 119 l35 -1 3 -151z m169 142 c8 -7 7 -286 -1 -293 -9
-9 -95 -8 -103 1 -4 4 -9 68 -11 142 -5 159 -1 169 66 161 23 -2 46 -7 49 -11z
m181 0 c2 -3 5 -68 6 -146 1 -115 -2 -142 -14 -151 -14 -10 -98 -5 -109 7 -3
3 -7 66 -9 140 -5 161 -2 169 72 160 27 -3 51 -8 54 -10z"/>
</g>
</svg>
