<?xml version="1.0" standalone="no"?>
<!DOCTYPE svg PUBLIC "-//W3C//DTD SVG 20010904//EN"
 "http://www.w3.org/TR/2001/REC-SVG-20010904/DTD/svg10.dtd">
<svg version="1.0" xmlns="http://www.w3.org/2000/svg"
 width="582.000000pt" height="590.000000pt" viewBox="0 0 582.000000 590.000000"
 preserveAspectRatio="xMidYMid meet">
<metadata>
Created by potrace 1.16, written by Peter Selinger 2001-2019
</metadata>
<g transform="translate(0.000000,590.000000) scale(0.500000,-0.500000)"
fill="#000000" stroke="none">
<path d="M46 1132 c-5 -5 -4 64 -6 -534 0 -268 -1 -499 -1 -513 0 -33 2 -35
28 -35 30 0 28 -16 26 169 -3 392 -2 445 8 445 170 4 153 15 152 -105 -4 -356
-3 -498 2 -504 5 -6 31 -9 41 -5 13 5 12 -18 10 309 -1 260 -1 298 1 301 6 6
544 5 548 -1 2 -3 2 -52 1 -301 -2 -326 -3 -303 10 -308 11 -5 36 -1 41 5 5 6
6 249 2 527 -1 65 -1 74 2 78 4 6 150 7 156 1 3 -4 4 -21 2 -303 -1 -345 -5
-308 26 -308 27 0 28 2 28 39 0 17 -1 245 -1 508 -1 263 -2 490 -2 505 0 23 0
26 -4 30 -4 4 -7 4 -535 4 -528 0 -531 0 -535 -4z m199 -45 c8 -2 8 -2 8 -186
1 -217 13 -187 -80 -187 -94 0 -81 -30 -81 185 0 184 0 184 9 187 4 2 137 3
144 1z m205 -3 c5 -3 5 -5 5 -24 0 -230 -1 -338 -4 -341 -4 -6 -134 -7 -142
-2 -7 5 -8 360 -1 367 6 6 135 6 142 0z m202 0 c7 -5 7 -358 0 -365 -6 -6
-136 -6 -142 0 -7 7 -7 360 0 365 4 4 9 4 71 4 62 0 67 0 71 -4z m203 -1 c6
-8 4 -362 -2 -366 -8 -5 -138 -4 -142 2 -3 3 -4 151 -4 344 0 27 -5 25 77 25
65 -1 68 -1 71 -5z m211 -1 c7 -8 6 -360 0 -365 -7 -4 -147 -5 -153 0 -7 5 -6
360 1 367 7 7 146 6 152 -2z"/>
</g>
</svg>
