<?xml version="1.0" standalone="no"?>
<!DOCTYPE svg PUBLIC "-//W3C//DTD SVG 20010904//EN"
 "http://www.w3.org/TR/2001/REC-SVG-20010904/DTD/svg10.dtd">
<svg version="1.0" xmlns="http://www.w3.org/2000/svg"
 width="146.000000pt" height="148.000000pt" viewBox="0 0 146.000000 148.000000"
 preserveAspectRatio="xMidYMid meet">
<metadata>
Created by potrace 1.16, written by Peter Selinger 2001-2019
</metadata>
<g transform="translate(0.000000,148.000000) scale(0.100000,-0.100000)"
fill="#000000" stroke="none">
<path d="M50 741 c0 -594 2 -680 15 -685 19 -7 45 3 45 18 1 6 1 179 0 384
l-1 372 103 0 103 0 -3 -380 -4 -380 24 -9 c50 -18 49 -25 48 383 l-2 381 347
0 346 0 -1 -381 c-1 -342 1 -382 15 -388 9 -3 26 -1 37 5 19 10 20 18 16 390
l-3 379 103 0 104 0 -3 -382 -3 -381 23 -9 c13 -4 27 -6 32 -2 5 3 9 289 9
685 l0 679 -675 0 -675 0 0 -679z m263 384 l1 -230 -102 -3 -102 -3 0 229 c0
126 3 232 7 236 4 4 49 5 101 4 l94 -3 1 -230z m255 3 l-3 -233 -93 0 -94 0 1
230 c0 127 1 231 1 233 0 1 43 2 95 2 l95 0 -2 -232z m250 0 l-3 -233 -92 -3
-93 -3 0 236 0 235 95 0 95 0 -2 -232z m253 -3 l0 -230 -95 -3 -96 -3 0 236 0
236 96 -3 95 -3 0 -230z m264 0 l0 -230 -99 0 -99 0 1 228 c0 125 1 229 1 232
1 3 45 4 99 3 l97 -3 0 -230z"/>
</g>
</svg>
