<?xml version="1.0" standalone="no"?>
<!DOCTYPE svg PUBLIC "-//W3C//DTD SVG 20010904//EN"
 "http://www.w3.org/TR/2001/REC-SVG-20010904/DTD/svg10.dtd">
<svg version="1.0" xmlns="http://www.w3.org/2000/svg"
 width="400.000000pt" height="590.000000pt" viewBox="0 0 400.000000 590.000000"
 preserveAspectRatio="xMidYMid meet">
<metadata>
Created by potrace 1.16, written by Peter Selinger 2001-2019
</metadata>
<g transform="translate(0.000000,590.000000) scale(0.500000,-0.500000)"
fill="#000000" stroke="none">
<path d="M683 1130 c-10 -6 -9 2 -8 -191 1 -100 1 -234 2 -298 1 -99 1 -117
-2 -120 -4 -6 -541 -7 -547 -1 -5 5 -7 113 -6 378 1 216 1 216 -4 221 -11 12
-52 4 -57 -10 -2 -4 -2 -105 -1 -273 1 -147 2 -380 2 -519 -1 -252 -1 -252 4
-255 4 -4 297 -6 640 -5 36 0 32 -19 31 165 -1 85 0 322 1 527 1 204 1 373 1
374 -3 8 -45 13 -56 7z m-453 -682 c36 0 32 22 32 -168 0 -197 11 -171 -69
-171 -75 0 -79 16 -70 322 1 19 2 19 49 18 18 -1 44 -1 58 -1z m442 -1 c2 -1
4 -3 5 -5 3 -6 1 -320 -2 -326 -5 -12 -99 -12 -102 0 -2 10 -2 322 0 327 3 6
86 10 99 4z m-162 -2 c6 -6 6 -324 0 -331 -7 -9 -184 -8 -188 0 -4 8 -3 328 1
331 6 5 182 4 187 0z"/>
</g>
</svg>
