<?xml version="1.0" standalone="no"?>
<!DOCTYPE svg PUBLIC "-//W3C//DTD SVG 20010904//EN"
 "http://www.w3.org/TR/2001/REC-SVG-20010904/DTD/svg10.dtd">
<svg version="1.0" xmlns="http://www.w3.org/2000/svg"
 width="68.000000pt" height="100.000000pt" viewBox="0 0 68.000000 100.000000"
 preserveAspectRatio="xMidYMid meet">
<metadata>
Created by potrace 1.16, written by Peter Selinger 2001-2019
</metadata>
<g transform="translate(0.000000,100.000000) scale(0.100000,-0.100000)"
fill="#000000" stroke="none">
<path d="M62 952 c-10 -7 -12 -104 -10 -453 l3 -444 285 0 285 0 0 450 0 450
-25 0 -25 0 -3 -257 -2 -258 -230 0 -230 0 -1 203 c-1 283 -9 333 -47 309z
m152 -588 c3 -9 6 -66 6 -128 0 -133 -7 -149 -65 -144 l-40 3 -6 55 c-4 30 -4
94 -1 143 l5 87 47 0 c34 0 50 -4 54 -16z m214 -126 l3 -137 -26 -7 c-15 -4
-50 -3 -78 2 l-52 9 -3 124 c-1 69 0 131 3 138 3 10 23 13 77 11 l73 -3 3
-137z m140 17 c4 -155 1 -167 -40 -163 -43 4 -50 35 -42 176 l6 113 37 -3 36
-3 3 -120z"/>
</g>
</svg>
