<?xml version="1.0" standalone="no"?>
<!DOCTYPE svg PUBLIC "-//W3C//DTD SVG 20010904//EN"
 "http://www.w3.org/TR/2001/REC-SVG-20010904/DTD/svg10.dtd">
<svg version="1.0" xmlns="http://www.w3.org/2000/svg"
 width="100.000000pt" height="96.000000pt" viewBox="0 0 100.000000 96.000000"
 preserveAspectRatio="xMidYMid meet">
<metadata>
Created by potrace 1.16, written by Peter Selinger 2001-2019
</metadata>
<g transform="translate(0.000000,96.000000) scale(0.100000,-0.100000)"
fill="#000000" stroke="none">
<path d="M42 918 c-14 -14 -17 -442 -5 -720 l6 -158 324 0 323 0 0 405 c0 335
2 405 14 405 18 0 88 -76 160 -173 58 -79 88 -95 94 -51 4 27 -97 163 -172
232 -59 53 -86 66 -127 60 l-24 -3 -3 -246 -2 -246 -53 -7 c-67 -8 -367 -8
-434 0 l-53 7 -2 251 c-3 215 -5 251 -18 254 -9 1 -21 -3 -28 -10z m146 -673
c4 -153 3 -157 -56 -153 -57 4 -57 2 -47 155 l7 114 47 -3 46 -3 3 -110z m172
-20 l0 -135 -60 0 -60 0 0 128 c0 71 3 132 7 135 3 4 30 7 60 7 l53 0 0 -135z
m158 3 l-3 -133 -46 -3 -46 -3 -7 62 c-8 78 -8 138 0 178 6 30 9 31 56 31 l49
0 -3 -132z m112 -3 l0 -135 -30 0 -30 0 0 135 0 135 30 0 30 0 0 -135z"/>
</g>
</svg>
