<?xml version="1.0" standalone="no"?>
<!DOCTYPE svg PUBLIC "-//W3C//DTD SVG 20010904//EN"
 "http://www.w3.org/TR/2001/REC-SVG-20010904/DTD/svg10.dtd">
<svg version="1.0" xmlns="http://www.w3.org/2000/svg"
 width="154.000000pt" height="148.000000pt" viewBox="0 0 154.000000 148.000000"
 preserveAspectRatio="xMidYMid meet">
<metadata>
Created by potrace 1.16, written by Peter Selinger 2001-2019
</metadata>
<g transform="translate(0.000000,148.000000) scale(0.100000,-0.100000)"
fill="#000000" stroke="none">
<path d="M62 1407 c-8 -10 -11 -196 -10 -680 l2 -667 485 1 c267 0 494 4 504
8 17 6 18 38 17 634 0 433 3 627 10 627 13 0 134 -111 175 -161 30 -36 66 -85
138 -185 21 -30 46 -54 56 -54 21 0 41 19 41 40 0 16 -135 202 -151 208 -5 2
-9 9 -9 15 -1 15 -57 77 -70 77 -5 0 -10 4 -10 9 0 15 -53 63 -115 103 -50 33
-66 38 -105 36 l-45 -3 0 -390 0 -390 -424 0 -423 0 3 345 c1 190 3 365 3 390
1 43 0 45 -30 48 -17 2 -36 -3 -42 -11z m229 -1062 l0 -210 -83 0 -83 0 -1
205 c0 113 1 209 4 213 2 4 40 6 84 5 l79 -3 0 -210z m271 0 l-1 -210 -101 -3
-100 -3 0 216 0 216 101 -3 102 -3 -1 -210z m238 0 l0 -216 -82 3 -83 3 -3
200 c-1 110 0 205 2 212 4 9 30 13 86 13 l80 0 0 -215z m175 0 l0 -210 -52 -3
-53 -3 0 216 0 216 53 -3 52 -3 0 -210z"/>
</g>
</svg>
