<?xml version="1.0" standalone="no"?>
<!DOCTYPE svg PUBLIC "-//W3C//DTD SVG 20010904//EN"
 "http://www.w3.org/TR/2001/REC-SVG-20010904/DTD/svg10.dtd">
<svg version="1.0" xmlns="http://www.w3.org/2000/svg"
 width="616.000000pt" height="590.000000pt" viewBox="0 0 616.000000 590.000000"
 preserveAspectRatio="xMidYMid meet">
<metadata>
Created by potrace 1.16, written by Peter Selinger 2001-2019
</metadata>
<g transform="translate(0.000000,590.000000) scale(0.500000,-0.500000)"
fill="#000000" stroke="none">
<path d="M819 1136 c-3 -1 -10 -2 -15 -2 -12 0 -19 -3 -22 -10 -2 -4 -2 -72
-2 -307 1 -249 1 -303 -2 -306 -4 -4 -667 -4 -671 1 -1 2 -2 20 -1 75 1 109 4
374 5 460 2 92 4 87 -28 89 -23 1 -25 0 -36 -18 l-7 -12 0 -260 c0 -149 1
-262 2 -266 1 -4 3 -12 5 -18 3 -10 3 -26 1 -165 -4 -310 -4 -336 0 -342 4 -5
4 -5 222 -4 119 0 292 1 383 1 176 0 190 1 200 10 3 3 3 26 3 497 0 272 0 496
1 498 2 4 6 4 12 -2 3 -2 10 -6 14 -9 5 -2 21 -17 38 -35 17 -17 35 -33 41
-37 7 -4 11 -9 15 -16 3 -6 9 -12 12 -14 4 -3 9 -7 11 -10 1 -3 6 -9 9 -13 3
-4 7 -10 8 -13 2 -3 6 -9 10 -14 5 -5 10 -12 12 -16 2 -3 8 -11 13 -17 6 -6
10 -12 10 -14 0 -1 7 -10 15 -19 8 -9 16 -20 18 -23 1 -3 6 -10 10 -15 4 -5
11 -15 15 -21 27 -44 82 -19 60 28 -4 8 -21 33 -35 50 -4 6 -12 18 -18 27 -6
9 -14 20 -18 24 -4 4 -9 11 -12 16 -3 5 -11 15 -18 22 -7 8 -15 19 -20 28 -6
13 -10 17 -18 23 -6 4 -13 10 -16 15 -5 8 -16 18 -20 18 -3 0 -10 7 -14 15 -7
15 -50 52 -74 64 -3 2 -9 7 -14 11 -20 18 -62 32 -84 26z m-629 -688 c35 0 38
0 42 -4 6 -6 6 -326 0 -332 -8 -8 -125 -6 -129 3 -1 4 1 326 3 329 2 4 17 6
32 5 7 -1 30 -1 52 -1z m584 0 c10 -3 10 0 9 -172 -2 -152 -2 -161 -5 -164 -6
-6 -67 -6 -74 0 -5 4 -7 327 -2 333 4 4 59 7 72 3z m-326 -3 c7 -6 7 -328 0
-333 -7 -6 -146 -6 -152 0 -6 6 -6 326 0 332 6 6 145 6 152 1z m193 -1 c5 -8
5 -326 -1 -332 -7 -7 -122 -6 -127 1 -4 4 -5 93 -3 323 0 12 1 12 67 12 61 0
61 0 64 -4z"/>
</g>
</svg>
