<?xml version="1.0" standalone="no"?>
<!DOCTYPE svg PUBLIC "-//W3C//DTD SVG 20010904//EN"
 "http://www.w3.org/TR/2001/REC-SVG-20010904/DTD/svg10.dtd">
<svg version="1.0" xmlns="http://www.w3.org/2000/svg"
 width="64.000000pt" height="100.000000pt" viewBox="0 0 64.000000 100.000000"
 preserveAspectRatio="xMidYMid meet">
<metadata>
Created by potrace 1.16, written by Peter Selinger 2001-2019
</metadata>
<g transform="translate(0.000000,100.000000) scale(0.100000,-0.100000)"
fill="#000000" stroke="none">
<path d="M69 963 l-27 -4 -7 -152 c-4 -84 -5 -290 -3 -459 3 -320 7 -348 43
-318 15 12 16 36 9 211 -3 108 -3 222 0 253 l8 57 61 -3 62 -3 -3 -251 c-3
-222 -2 -252 13 -264 36 -30 40 -1 40 263 l0 252 58 3 c31 2 58 2 59 0 1 -2 4
-120 7 -263 6 -251 7 -260 26 -260 19 0 20 8 25 260 l5 260 58 3 c31 2 58 2
59 0 0 -2 4 -120 7 -263 5 -222 8 -260 21 -260 13 0 15 59 18 459 1 314 -1
463 -8 470 -11 11 -475 19 -531 9z m489 -60 c9 -22 8 -264 -1 -287 -6 -14 -32
-16 -231 -16 -213 0 -226 1 -236 19 -11 21 -14 193 -4 253 4 22 13 39 23 41 9
3 112 5 229 6 194 1 213 -1 220 -16z"/>
</g>
</svg>
