<?xml version="1.0" standalone="no"?>
<!DOCTYPE svg PUBLIC "-//W3C//DTD SVG 20010904//EN"
 "http://www.w3.org/TR/2001/REC-SVG-20010904/DTD/svg10.dtd">
<svg version="1.0" xmlns="http://www.w3.org/2000/svg"
 width="374.000000pt" height="590.000000pt" viewBox="0 0 374.000000 590.000000"
 preserveAspectRatio="xMidYMid meet">
<metadata>
Created by potrace 1.16, written by Peter Selinger 2001-2019
</metadata>
<g transform="translate(0.000000,590.000000) scale(0.500000,-0.500000)"
fill="#000000" stroke="none">
<path d="M54 1142 c-3 -1 -6 -3 -7 -6 -3 -6 -5 -1090 -2 -1096 2 -6 14 -8 30
-8 27 2 24 -38 22 314 -1 304 -1 304 3 308 6 6 152 4 158 -1 3 -3 4 -375 1
-531 -2 -91 -2 -90 25 -90 10 0 15 1 18 4 6 4 5 -34 4 365 0 191 0 250 2 252
4 5 144 4 149 0 3 -4 3 -22 2 -307 -2 -353 -5 -314 27 -314 32 0 31 -1 29 79
-3 139 -2 539 2 543 5 4 142 5 148 0 3 -3 3 -18 3 -308 -1 -346 -3 -312 16
-314 31 -3 31 -3 29 87 -1 39 -1 281 -1 538 0 498 0 481 -10 485 -7 2 -639 3
-648 0z m611 -55 c5 -6 4 -370 0 -374 -6 -6 -562 -4 -566 2 -2 3 -2 34 -2 186
1 212 0 187 5 189 10 3 561 0 563 -3z"/>
</g>
</svg>
