<?xml version="1.0" standalone="no"?>
<!DOCTYPE svg PUBLIC "-//W3C//DTD SVG 20010904//EN"
 "http://www.w3.org/TR/2001/REC-SVG-20010904/DTD/svg10.dtd">
<svg version="1.0" xmlns="http://www.w3.org/2000/svg"
 width="454.000000pt" height="590.000000pt" viewBox="0 0 454.000000 590.000000"
 preserveAspectRatio="xMidYMid meet">
<metadata>
Created by potrace 1.16, written by Peter Selinger 2001-2019
</metadata>
<g transform="translate(0.000000,590.000000) scale(0.500000,-0.500000)"
fill="#000000" stroke="none">
<path d="M72 1135 c-15 -7 -14 46 -14 -550 1 -533 1 -533 5 -537 18 -15 768
-10 774 5 5 11 3 1063 -1 1072 -12 25 -65 18 -80 -11 -6 -12 -38 -58 -102
-145 -37 -51 -93 -129 -113 -158 -10 -14 -30 -42 -43 -62 -40 -57 -30 -59 -91
19 -59 75 -83 104 -198 245 -69 84 -64 78 -69 92 -9 26 -42 41 -68 30z m702
-301 c0 -203 6 -179 -42 -177 -17 0 -67 1 -112 1 -121 0 -115 -6 -62 65 57 77
71 95 119 163 88 123 90 126 94 122 3 -2 3 -34 3 -174z m-637 162 c5 -5 37
-45 72 -88 34 -43 92 -114 127 -156 62 -75 69 -85 64 -88 -5 -3 -23 -4 -37 -3
-8 1 -64 2 -124 3 -135 1 -116 -26 -116 170 0 186 -1 177 14 162z m229 -400
c74 -1 194 -3 267 -3 100 -1 133 -2 136 -4 6 -4 6 -476 0 -480 -5 -4 -636 -4
-642 0 -4 3 -5 483 -1 488 2 3 8 3 54 2 28 -1 112 -2 186 -3z"/>
</g>
</svg>
