<?xml version="1.0" standalone="no"?>
<!DOCTYPE svg PUBLIC "-//W3C//DTD SVG 20010904//EN"
 "http://www.w3.org/TR/2001/REC-SVG-20010904/DTD/svg10.dtd">
<svg version="1.0" xmlns="http://www.w3.org/2000/svg"
 width="114.000000pt" height="148.000000pt" viewBox="0 0 114.000000 148.000000"
 preserveAspectRatio="xMidYMid meet">
<metadata>
Created by potrace 1.16, written by Peter Selinger 2001-2019
</metadata>
<g transform="translate(0.000000,148.000000) scale(0.100000,-0.100000)"
fill="#000000" stroke="none">
<path d="M75 1408 c-3 -7 -4 -314 -3 -683 l3 -670 485 0 485 0 0 680 0 680
-42 3 c-39 3 -43 0 -59 -30 -9 -18 -47 -73 -84 -123 -95 -128 -212 -293 -245
-343 -16 -24 -33 -42 -40 -40 -6 2 -59 62 -116 133 -58 72 -146 181 -197 243
-51 63 -92 117 -92 122 0 32 -84 56 -95 28z m897 -360 c-2 -123 -7 -225 -12
-228 -13 -8 -320 0 -320 9 0 4 25 39 55 77 31 38 102 135 158 216 56 81 107
147 112 148 6 0 9 -78 7 -222z m-787 186 c22 -34 244 -309 290 -358 19 -21 35
-43 35 -49 0 -7 -33 -8 -97 -4 -54 4 -135 7 -180 7 l-83 0 0 215 c0 118 4 215
9 215 5 0 16 -12 26 -26z m478 -491 l307 -6 0 -304 0 -303 -410 0 -410 0 0
310 0 310 103 0 c56 0 240 -3 410 -7z"/>
</g>
</svg>
