<?xml version="1.0" standalone="no"?>
<!DOCTYPE svg PUBLIC "-//W3C//DTD SVG 20010904//EN"
 "http://www.w3.org/TR/2001/REC-SVG-20010904/DTD/svg10.dtd">
<svg version="1.0" xmlns="http://www.w3.org/2000/svg"
 width="77.000000pt" height="100.000000pt" viewBox="0 0 77.000000 100.000000"
 preserveAspectRatio="xMidYMid meet">
<metadata>
Created by potrace 1.16, written by Peter Selinger 2001-2019
</metadata>
<g transform="translate(0.000000,100.000000) scale(0.100000,-0.100000)"
fill="#000000" stroke="none">
<path d="M61 961 c-10 -7 -13 -103 -13 -459 0 -247 3 -455 6 -461 8 -12 591
-16 634 -5 l22 6 -2 457 -3 456 -26 3 c-23 3 -37 -13 -126 -135 -55 -76 -112
-157 -127 -180 -14 -24 -31 -43 -36 -43 -5 0 -28 25 -50 55 -22 30 -73 94
-113 142 -40 49 -83 103 -96 121 -27 38 -52 54 -70 43z m592 -264 l-6 -137
-105 0 -104 0 17 28 c10 15 33 45 50 67 18 22 56 75 85 119 29 44 56 74 61 69
4 -4 6 -70 2 -146z m-450 36 c46 -60 94 -117 106 -127 43 -39 29 -46 -88 -46
l-108 0 -7 38 c-9 57 -7 242 3 242 5 0 47 -48 94 -107z m435 -238 c10 -4 12
-49 10 -202 l-3 -198 -267 -3 -266 -2 -7 65 c-6 57 2 331 10 345 4 6 504 1
523 -5z"/>
</g>
</svg>
