<?xml version="1.0" standalone="no"?>
<!DOCTYPE svg PUBLIC "-//W3C//DTD SVG 20010904//EN"
 "http://www.w3.org/TR/2001/REC-SVG-20010904/DTD/svg10.dtd">
<svg version="1.0" xmlns="http://www.w3.org/2000/svg"
 width="120.000000pt" height="152.000000pt" viewBox="0 0 120.000000 152.000000"
 preserveAspectRatio="xMidYMid meet">
<metadata>
Created by potrace 1.16, written by Peter Selinger 2001-2019
</metadata>
<g transform="translate(0.000000,152.000000) scale(0.100000,-0.100000)"
fill="#000000" stroke="none">
<path d="M86 1442 c-15 -17 -16 -76 -14 -683 l3 -664 510 -5 c281 -3 518 -1
528 3 16 7 17 49 17 665 0 361 -3 667 -6 680 -8 28 -55 30 -82 5 -11 -10 -39
-35 -64 -55 -47 -39 -150 -197 -175 -272 -8 -22 -31 -74 -50 -116 -20 -41 -44
-104 -52 -140 l-16 -65 -55 0 c-64 0 -66 2 -107 143 -13 48 -28 92 -33 97 -4
6 -26 46 -49 90 -47 90 -92 140 -199 226 -40 32 -82 69 -93 83 -24 31 -40 33
-63 8z m982 -352 c0 -215 -3 -282 -13 -290 -13 -10 -311 -10 -309 0 1 3 5 20
9 39 4 19 29 81 56 139 27 57 49 108 49 114 0 6 23 52 52 102 54 94 121 176
143 176 11 0 13 -59 13 -280z m-815 168 c77 -76 103 -110 144 -188 49 -93 109
-253 99 -268 -2 -4 -81 -8 -174 -10 -131 -2 -172 0 -178 10 -5 7 -9 133 -9
281 -1 204 2 267 11 267 7 0 55 -42 107 -92z m-48 -813 l0 -290 -35 0 -35 0
-3 280 c-1 154 0 286 3 293 3 8 17 12 37 10 l33 -3 0 -290z m170 0 l0 -290
-53 0 -53 0 1 284 c0 156 3 288 6 293 3 5 27 8 52 6 l47 -3 0 -290z m197 285
c2 -5 2 -138 0 -295 l-3 -285 -64 0 -65 0 0 295 0 295 64 0 c35 0 66 -4 68
-10z m180 5 c10 -4 12 -55 10 -258 -1 -138 -2 -269 -2 -290 l0 -38 -62 3 -63
3 -3 280 c-1 154 0 285 3 292 4 13 89 18 117 8z m160 0 c10 -4 13 -61 11 -292
-1 -157 -6 -290 -10 -294 -4 -4 -27 -5 -50 -2 l-43 6 0 287 c0 221 3 290 13
293 17 7 62 8 79 2z m156 -291 l2 -291 -36 -6 c-21 -4 -41 -4 -46 -1 -4 3 -8
138 -8 300 l0 295 43 -3 42 -3 3 -291z"/>
</g>
</svg>
