<?xml version="1.0" standalone="no"?>
<!DOCTYPE svg PUBLIC "-//W3C//DTD SVG 20010904//EN"
 "http://www.w3.org/TR/2001/REC-SVG-20010904/DTD/svg10.dtd">
<svg version="1.0" xmlns="http://www.w3.org/2000/svg"
 width="482.000000pt" height="604.000000pt" viewBox="0 0 482.000000 604.000000"
 preserveAspectRatio="xMidYMid meet">
<metadata>
Created by potrace 1.16, written by Peter Selinger 2001-2019
</metadata>
<g transform="translate(0.000000,604.000000) scale(0.500000,-0.500000)"
fill="#000000" stroke="none">
<path d="M858 1167 c-2 -1 -9 -7 -17 -15 -8 -7 -26 -22 -40 -33 -46 -36 -55
-46 -120 -158 -33 -55 -33 -54 -34 -68 -1 -9 -6 -21 -17 -44 -37 -79 -43 -92
-47 -100 -4 -7 -11 -32 -21 -77 -9 -41 -5 -38 -54 -38 -43 0 -43 0 -50 20 -3
8 -8 20 -11 27 -7 13 -12 27 -28 90 -8 28 -16 46 -42 92 -12 22 -25 45 -27 51
-9 24 -21 41 -51 73 -54 57 -57 60 -139 123 -13 9 -26 21 -29 26 -18 25 -53
31 -65 10 -5 -7 -5 -7 -4 -530 0 -288 0 -524 0 -526 0 -13 -16 -12 230 -13
123 -1 282 -2 355 -3 73 -2 156 -3 186 -3 58 -1 60 -1 71 10 l6 6 1 520 c1
579 2 543 -12 557 -5 4 -32 6 -41 3z m1 -80 c1 -3 1 -41 0 -85 -1 -45 -1 -89
-1 -99 1 -23 1 -65 0 -88 0 -10 0 -43 1 -73 2 -50 2 -67 -2 -95 -2 -12 -3 -12
-86 -13 -53 0 -82 0 -95 2 -15 2 -25 2 -40 1 -31 -4 -34 -1 -28 21 2 7 6 22 9
33 4 14 12 33 25 61 46 94 54 111 55 121 1 6 4 15 7 20 18 34 68 118 86 145 3
5 15 18 26 27 32 27 41 32 43 22z m-733 -17 c8 -5 45 -35 72 -57 18 -15 58
-58 68 -72 2 -5 9 -12 13 -17 5 -6 11 -14 13 -19 2 -5 15 -28 29 -52 42 -72
41 -69 69 -163 2 -7 5 -17 7 -23 8 -25 4 -32 -15 -32 -18 1 -51 1 -162 0 -126
0 -109 -35 -109 225 0 54 0 123 0 153 0 64 0 66 15 57z m333 -487 c5 -7 3
-454 -2 -458 -8 -6 -92 -3 -97 3 -5 6 -6 448 -1 455 5 6 95 7 100 0z m154 0
c7 -7 5 -454 -2 -459 -8 -7 -91 -4 -97 2 -5 5 -6 450 -1 457 4 6 94 7 100 0z
m-445 -1 c5 -10 2 -450 -3 -453 -8 -5 -46 -4 -51 2 -4 5 -8 428 -4 444 3 12
52 18 58 7z m137 -1 c6 -9 3 -448 -3 -453 -8 -7 -77 -6 -80 1 -5 7 -2 452 2
455 7 5 78 2 81 -3z m435 3 c5 -3 5 -19 5 -235 -1 -208 -1 -222 -4 -225 -5 -5
-69 -5 -73 0 -5 4 -5 451 -1 457 3 5 66 8 73 3z m119 -2 c4 -6 5 -442 1 -454
-3 -8 -55 -13 -65 -5 -6 4 -7 450 -2 458 5 7 61 8 66 1z"/>
</g>
</svg>
