<?xml version="1.0" standalone="no"?>
<!DOCTYPE svg PUBLIC "-//W3C//DTD SVG 20010904//EN"
 "http://www.w3.org/TR/2001/REC-SVG-20010904/DTD/svg10.dtd">
<svg version="1.0" xmlns="http://www.w3.org/2000/svg"
 width="486.000000pt" height="604.000000pt" viewBox="0 0 486.000000 604.000000"
 preserveAspectRatio="xMidYMid meet">
<metadata>
Created by potrace 1.16, written by Peter Selinger 2001-2019
</metadata>
<g transform="translate(0.000000,604.000000) scale(0.500000,-0.500000)"
fill="#000000" stroke="none">
<path d="M878 1161 c-20 -5 -26 -9 -50 -40 -28 -37 -44 -59 -54 -78 -32 -61
-86 -158 -91 -164 -5 -6 -6 -11 -8 -32 -2 -14 -4 -31 -6 -36 -2 -6 -4 -18 -6
-27 -2 -9 -6 -22 -10 -31 -4 -9 -7 -17 -7 -22 0 -5 -2 -17 -4 -28 -2 -11 -4
-22 -4 -25 0 -11 -5 -31 -8 -34 -6 -6 -253 -6 -260 0 -5 4 -10 24 -10 42 0 18
-21 93 -31 112 -6 11 -9 21 -32 90 -7 22 -13 37 -17 42 -3 4 -11 19 -19 34 -7
14 -16 29 -19 33 -3 4 -9 14 -13 22 -4 8 -9 16 -11 18 -2 2 -6 7 -8 10 -4 7
-67 66 -80 75 -19 14 -52 19 -63 9 -8 -7 -8 -1041 0 -1049 5 -5 5 -5 132 -4
119 0 391 -2 596 -6 98 -1 96 -2 111 12 l11 10 0 516 c1 284 1 521 1 527 0 21
-14 29 -40 24z m-8 -139 c0 -69 1 -68 -34 -36 -26 24 -26 26 -1 62 32 44 34
42 35 -26z m-731 25 c28 -25 28 -24 2 -53 -29 -33 -29 -33 -29 20 0 57 0 56
27 33z m62 -80 c9 -10 25 -41 25 -49 0 -12 -105 -91 -113 -84 -4 4 -4 57 0 66
4 7 5 8 28 19 14 6 14 6 18 18 9 26 31 41 42 30z m595 -10 c3 -2 10 -8 15 -14
6 -6 20 -19 31 -29 28 -24 28 -23 28 -45 0 -28 -1 -28 -37 -11 -87 41 -83 37
-68 66 19 37 21 38 31 33z m-541 -99 c4 -8 21 -60 21 -65 0 -7 -8 -13 -112
-82 -57 -38 -54 -39 -54 15 0 41 1 44 12 51 4 2 28 20 54 39 71 53 73 54 79
42z m489 -10 c6 -2 16 -6 21 -9 6 -2 24 -11 41 -19 71 -32 64 -23 64 -84 0
-65 12 -66 -101 3 -62 38 -63 39 -47 75 1 4 3 13 4 19 1 11 4 19 7 19 0 0 5
-2 11 -4z m-444 -117 c41 -70 23 -93 -70 -93 -100 1 -98 -2 -27 45 93 61 90
60 97 48z m446 -30 c77 -45 92 -56 87 -61 -3 -3 -147 -1 -149 2 -3 5 -2 21 1
38 11 50 11 50 61 21z m-581 -109 c3 -1 7 -3 7 -5 3 -3 2 -441 0 -449 -3 -11
-46 -16 -56 -6 -4 4 -8 444 -3 454 3 7 38 11 52 6z m141 -3 c5 -5 6 -456 0
-461 -3 -4 -77 -4 -80 -1 -5 6 -10 452 -4 460 5 8 75 10 84 2z m442 0 c7 -6 5
-459 -2 -465 -12 -10 -71 -3 -74 8 -2 8 -3 449 -1 454 3 9 68 11 77 3z m118 0
c4 -4 6 -452 1 -461 -5 -12 -62 -11 -67 1 -3 8 -3 456 0 460 5 6 59 7 66 0z
m-404 -1 c3 -2 6 -441 3 -455 -2 -13 -90 -16 -102 -4 -7 7 -8 452 -1 459 5 5
95 5 100 0z m156 0 c6 -6 6 -454 1 -462 -5 -6 -94 -6 -100 1 -9 8 -7 460 2
463 10 4 93 2 97 -2z"/>
</g>
</svg>
