<?xml version="1.0" standalone="no"?>
<!DOCTYPE svg PUBLIC "-//W3C//DTD SVG 20010904//EN"
 "http://www.w3.org/TR/2001/REC-SVG-20010904/DTD/svg10.dtd">
<svg version="1.0" xmlns="http://www.w3.org/2000/svg"
 width="80.000000pt" height="100.000000pt" viewBox="0 0 80.000000 100.000000"
 preserveAspectRatio="xMidYMid meet">
<metadata>
Created by potrace 1.16, written by Peter Selinger 2001-2019
</metadata>
<g transform="translate(0.000000,100.000000) scale(0.100000,-0.100000)"
fill="#000000" stroke="none">
<path d="M662 903 c-75 -112 -102 -170 -125 -269 l-23 -99 -103 0 -103 0 -24
85 c-48 169 -146 320 -209 320 l-25 0 0 -438 0 -439 341 -7 c254 -5 344 -4
355 5 11 9 14 60 14 268 0 141 -3 340 -7 444 -6 187 -6 187 -29 187 -17 0 -34
-15 -62 -57z m-482 -138 c0 -17 -57 -65 -76 -65 -24 0 -15 33 18 67 24 25 35
30 45 22 7 -6 13 -17 13 -24z m38 -92 c2 -16 -11 -32 -53 -63 -59 -44 -80 -44
-73 1 4 27 83 91 107 87 9 -2 17 -13 19 -25z m445 1 c18 -9 35 -22 39 -28 10
-15 10 -76 0 -76 -20 0 -112 72 -112 89 0 35 23 40 73 15z m-413 -95 c16 -28
7 -45 -27 -52 -30 -6 -83 1 -83 12 0 7 81 61 92 61 4 0 12 -9 18 -21z m370 -9
c67 -34 59 -47 -25 -41 -38 3 -39 5 -31 36 8 30 7 30 56 5z m-480 -263 c0
-187 -6 -221 -37 -196 -10 9 -13 54 -13 189 0 97 3 180 7 183 3 4 15 7 25 7
17 0 18 -12 18 -183z m105 -12 l0 -190 -25 0 -25 0 -3 180 c-1 98 0 185 3 193
3 7 15 12 27 10 23 -3 23 -3 23 -193z m249 179 c18 -17 20 -89 9 -268 l-6
-107 -31 3 -31 3 -3 184 c-2 141 1 186 10 193 20 12 35 10 52 -8z m114 -181
l2 -193 -24 0 c-16 0 -26 7 -30 23 -8 29 -8 331 0 352 4 9 15 15 28 13 20 -3
21 -8 24 -195z m97 2 c0 -183 -1 -190 -20 -190 -19 0 -20 8 -23 180 -1 98 0
185 3 193 3 7 13 12 22 10 16 -3 18 -20 18 -193z m-331 90 c4 -52 4 -138 0
-191 l-7 -95 -31 3 -31 3 -3 188 -2 187 33 0 34 0 7 -95z"/>
</g>
</svg>
