<?xml version="1.0" standalone="no"?>
<!DOCTYPE svg PUBLIC "-//W3C//DTD SVG 20010904//EN"
 "http://www.w3.org/TR/2001/REC-SVG-20010904/DTD/svg10.dtd">
<svg version="1.0" xmlns="http://www.w3.org/2000/svg"
 width="122.000000pt" height="152.000000pt" viewBox="0 0 122.000000 152.000000"
 preserveAspectRatio="xMidYMid meet">
<metadata>
Created by potrace 1.16, written by Peter Selinger 2001-2019
</metadata>
<g transform="translate(0.000000,152.000000) scale(0.100000,-0.100000)"
fill="#000000" stroke="none">
<path d="M1083 1454 c-49 -20 -223 -326 -248 -435 -13 -57 -42 -198 -45 -217
0 -1 -75 -1 -167 0 l-168 3 -7 50 c-7 52 -27 123 -38 140 -4 6 -15 35 -25 65
-38 123 -106 235 -191 313 -40 37 -58 47 -86 47 l-35 0 1 -662 1 -663 524 -3
c378 -1 528 1 537 9 12 9 14 126 14 669 0 362 -3 665 -6 674 -6 15 -36 20 -61
10z m5 -216 l-3 -42 -37 33 c-36 31 -37 34 -24 59 8 15 25 38 38 52 l23 25 3
-43 c2 -23 2 -61 0 -84z m-889 41 c1 -18 -52 -72 -62 -62 -9 8 -9 107 -1 116
10 9 63 -36 63 -54z m65 -81 c26 -37 19 -55 -46 -107 -80 -64 -90 -64 -86 -4
3 41 7 50 31 61 15 7 27 18 27 24 0 16 31 48 46 48 7 0 20 -10 28 -22z m783
-42 c31 -29 43 -49 43 -68 0 -16 -4 -28 -9 -28 -14 0 -141 58 -141 65 0 3 9
24 20 46 23 44 24 44 87 -15z m-721 -101 c25 -62 21 -69 -82 -139 -53 -36
-100 -63 -105 -60 -5 3 -9 27 -9 53 l0 48 87 67 c48 36 89 66 91 66 2 0 10
-16 18 -35z m678 -25 l86 -40 0 -70 c0 -38 -2 -70 -4 -70 -8 0 -170 102 -185
115 -12 12 -12 21 -1 59 7 25 14 46 15 46 1 0 41 -18 89 -40z m-616 -164 c8
-31 13 -58 11 -60 -10 -9 -209 -14 -214 -6 -6 10 164 129 180 125 5 -1 16 -27
23 -59z m600 -20 c34 -21 60 -42 57 -47 -3 -5 -47 -7 -98 -5 l-92 4 2 42 c3
56 18 75 47 57 12 -7 49 -30 84 -51z m-782 -107 c4 -7 7 -140 8 -296 1 -283 1
-284 -21 -289 -57 -15 -55 -25 -57 290 -1 280 0 289 19 297 29 11 43 11 51 -2z
m179 -294 l0 -290 -55 0 -55 0 -3 280 c-1 154 0 286 3 293 3 9 21 12 57 10
l53 -3 0 -290z m193 3 l-3 -293 -44 -3 c-93 -7 -86 -31 -84 290 1 156 2 286 2
291 1 4 30 7 66 7 l65 0 -2 -292z m197 -3 l0 -290 -65 0 -65 0 -3 293 -2 293
67 -3 68 -3 0 -290z m163 -2 l-3 -298 -45 3 c-25 2 -46 5 -48 6 -2 3 -5 555
-3 579 1 4 24 7 51 7 l50 0 -2 -297z m150 5 l-3 -293 -42 -3 -42 -3 -3 288
c-2 158 -2 291 0 296 2 4 23 7 48 7 l44 0 -2 -292z"/>
</g>
</svg>
