<?xml version="1.0" standalone="no"?>
<!DOCTYPE svg PUBLIC "-//W3C//DTD SVG 20010904//EN"
 "http://www.w3.org/TR/2001/REC-SVG-20010904/DTD/svg10.dtd">
<svg version="1.0" xmlns="http://www.w3.org/2000/svg"
 width="96.000000pt" height="148.000000pt" viewBox="0 0 96.000000 148.000000"
 preserveAspectRatio="xMidYMid meet">
<metadata>
Created by potrace 1.16, written by Peter Selinger 2001-2019
</metadata>
<g transform="translate(0.000000,148.000000) scale(0.100000,-0.100000)"
fill="#000000" stroke="none">
<path d="M752 1348 c-82 -112 -188 -314 -196 -372 -3 -26 -13 -69 -21 -95 -8
-25 -17 -67 -21 -93 -4 -42 -8 -48 -28 -48 -21 0 -24 6 -30 54 -7 60 -81 277
-118 346 -82 153 -222 281 -252 231 -3 -5 -7 -303 -7 -662 -2 -573 0 -654 13
-663 8 -5 23 -6 32 -3 15 6 17 35 16 316 -1 171 1 315 5 321 7 11 61 7 73 -4
3 -4 6 -138 6 -299 l1 -292 25 0 25 0 0 295 1 294 31 7 c17 3 37 3 43 -1 9 -5
11 -88 10 -303 -1 -289 0 -296 20 -302 11 -3 25 -3 30 0 7 5 10 106 10 303
l-2 297 49 0 48 0 -4 -296 c-3 -289 -3 -297 16 -303 50 -16 50 -17 45 304 l-5
299 26 6 c14 4 35 4 47 0 21 -7 21 -10 20 -293 0 -158 -1 -293 0 -300 0 -9 10
-12 28 -10 l27 3 -4 296 c-3 245 -1 297 10 301 12 4 56 4 82 -1 4 0 7 -143 7
-316 0 -283 2 -316 16 -322 46 -17 45 -29 44 676 0 425 -4 670 -11 682 -20 39
-52 23 -107 -53z m56 -192 c-5 -6 -22 4 -43 24 -38 37 -37 42 14 110 l26 35 6
-80 c3 -44 1 -84 -3 -89z m-623 104 l29 -30 -31 -37 c-17 -21 -34 -38 -39 -38
-5 0 -10 30 -12 68 -3 78 7 85 53 37z m101 -147 c4 -13 5 -25 3 -27 -2 -1 -35
-26 -72 -54 -37 -29 -72 -50 -77 -47 -6 3 -10 24 -10 45 0 40 20 70 46 70 8 0
14 4 14 9 0 5 12 24 27 41 l27 32 18 -22 c10 -12 21 -33 24 -47z m475 -1 c47
-48 63 -80 49 -102 -9 -15 -150 48 -150 68 0 17 39 82 48 82 4 0 28 -22 53
-48z m-420 -126 c9 -25 13 -49 10 -55 -4 -5 -51 -40 -105 -76 -64 -43 -102
-63 -108 -57 -6 6 -7 31 -3 61 7 49 9 52 88 111 44 33 85 60 91 60 6 0 18 -20
27 -44z m386 -10 l81 -38 4 -67 c2 -36 1 -70 -2 -74 -4 -4 -47 17 -96 48 -49
30 -95 58 -103 63 -12 6 -12 14 -1 47 7 22 14 46 16 53 2 8 7 12 12 10 4 -2
44 -21 89 -42z m-333 -123 c11 -40 18 -113 10 -114 -96 -6 -215 -6 -219 1 -6
10 171 129 192 130 6 0 14 -8 17 -17z m296 -54 c50 -28 88 -54 85 -59 -4 -7
-161 -8 -209 -1 -15 2 9 111 25 111 5 0 50 -23 99 -51z"/>
</g>
</svg>
