<?xml version="1.0" standalone="no"?>
<!DOCTYPE svg PUBLIC "-//W3C//DTD SVG 20010904//EN"
 "http://www.w3.org/TR/2001/REC-SVG-20010904/DTD/svg10.dtd">
<svg version="1.0" xmlns="http://www.w3.org/2000/svg"
 width="65.000000pt" height="100.000000pt" viewBox="0 0 65.000000 100.000000"
 preserveAspectRatio="xMidYMid meet">
<metadata>
Created by potrace 1.16, written by Peter Selinger 2001-2019
</metadata>
<g transform="translate(0.000000,100.000000) scale(0.100000,-0.100000)"
fill="#000000" stroke="none">
<path d="M486 878 c-79 -122 -104 -177 -124 -275 -13 -66 -22 -89 -35 -91 -13
-3 -17 3 -17 25 0 43 -63 215 -99 271 -40 63 -117 134 -139 130 -16 -3 -17
-39 -20 -452 -2 -461 -1 -473 36 -459 12 5 13 40 10 217 l-3 211 27 3 28 3 2
-203 c3 -173 5 -203 18 -203 13 0 15 30 18 203 l2 202 25 0 25 0 2 -202 c3
-195 4 -203 23 -203 19 0 20 8 23 201 2 193 3 202 23 207 33 9 39 -29 39 -229
0 -177 1 -184 20 -184 19 0 20 7 20 205 l0 205 24 0 c34 0 39 -30 30 -186 -7
-146 0 -224 21 -224 22 0 25 25 25 221 l0 189 24 0 c33 0 36 -16 36 -237 0
-193 5 -218 35 -193 13 11 15 73 14 409 -1 218 -4 423 -8 456 -5 52 -9 60 -28
63 -19 3 -32 -12 -77 -80z m-298 -125 c2 -16 -7 -29 -37 -48 -64 -43 -84 -14
-29 42 36 37 61 39 66 6z m336 -14 c32 -38 33 -49 3 -49 -30 0 -67 27 -67 49
0 41 30 41 64 0z m-296 -86 c3 -26 -3 -34 -52 -66 -31 -20 -60 -37 -65 -37
-14 0 -23 37 -13 55 12 22 104 86 116 82 6 -2 12 -17 14 -34z m248 11 c56 -23
74 -42 74 -81 0 -41 -10 -41 -77 -1 -42 26 -53 37 -53 58 0 23 7 40 15 40 2 0
20 -7 41 -16z m-211 -125 l0 -34 -54 -3 c-30 -2 -58 1 -63 6 -10 10 90 74 107
68 6 -1 10 -18 10 -37z m191 5 c24 -14 44 -30 44 -35 0 -5 -25 -9 -55 -9 -54
0 -55 1 -55 28 0 26 7 42 17 42 3 0 24 -12 49 -26z"/>
</g>
</svg>
