<?xml version="1.0" standalone="no"?>
<!DOCTYPE svg PUBLIC "-//W3C//DTD SVG 20010904//EN"
 "http://www.w3.org/TR/2001/REC-SVG-20010904/DTD/svg10.dtd">
<svg version="1.0" xmlns="http://www.w3.org/2000/svg"
 width="380.000000pt" height="590.000000pt" viewBox="0 0 380.000000 590.000000"
 preserveAspectRatio="xMidYMid meet">
<metadata>
Created by potrace 1.16, written by Peter Selinger 2001-2019
</metadata>
<g transform="translate(0.000000,590.000000) scale(0.500000,-0.500000)"
fill="#000000" stroke="none">
<path d="M640 1131 c-3 -1 -17 -18 -31 -37 -51 -66 -45 -58 -100 -158 -9 -18
-24 -46 -33 -62 -8 -16 -17 -32 -20 -36 -7 -8 -7 -10 -10 -39 -1 -12 -4 -29
-6 -37 -2 -8 -5 -20 -6 -27 -1 -6 -5 -18 -9 -27 -4 -10 -7 -19 -7 -24 0 -4 -2
-17 -4 -28 -2 -10 -4 -24 -5 -31 -2 -19 -6 -27 -15 -29 -21 -6 -25 -2 -28 35
-3 34 -19 92 -36 132 -4 10 -12 33 -18 51 -20 62 -22 68 -27 75 -3 4 -11 19
-18 33 -7 14 -16 30 -20 35 -4 5 -10 16 -14 23 -8 18 -14 25 -45 55 -67 66
-91 80 -113 66 -13 -8 -13 3 -11 -201 2 -119 2 -304 0 -518 -1 -284 -1 -334 1
-337 4 -6 15 -10 30 -9 23 2 21 -7 19 111 -7 389 -6 400 30 401 41 1 41 10 34
-385 -1 -102 0 -105 36 -94 10 2 10 -3 8 237 -2 232 -2 236 6 240 6 3 54 3 59
-1 4 -3 5 -164 2 -384 -2 -99 -3 -95 21 -96 30 0 28 -25 25 238 -2 275 -7 243
41 243 41 0 37 15 35 -119 -3 -279 -2 -352 2 -357 8 -8 40 -7 45 2 1 2 1 89 0
234 -2 251 -2 238 9 241 11 3 53 0 56 -4 4 -4 5 -179 1 -377 -2 -104 -1 -105
31 -99 17 3 16 -9 14 151 -2 307 -2 321 2 325 4 5 49 7 63 3 12 -3 11 4 10
-202 -1 -156 -1 -191 2 -200 2 -8 2 -21 2 -50 -2 -55 0 -59 25 -58 16 1 22 6
21 17 0 5 0 244 -1 533 -1 585 0 529 -14 542 -7 6 -30 8 -39 3z m2 -89 c4 -7
3 -111 0 -115 -7 -7 -54 34 -54 46 0 17 48 80 54 69z m-499 -31 c29 -26 29
-25 -1 -59 -30 -34 -31 -33 -30 28 1 57 1 57 31 31z m56 -75 c15 -10 38 -55
32 -63 -6 -9 -107 -85 -113 -85 -5 0 -6 4 -6 40 0 40 -1 37 25 49 20 9 20 9
24 21 4 10 7 15 18 26 14 14 16 15 20 12z m388 -32 c10 -11 26 -26 36 -34 20
-17 23 -22 23 -42 0 -27 -4 -29 -33 -15 -104 50 -96 39 -68 88 16 28 16 28 42
3z m-328 -82 c4 -5 25 -68 25 -73 0 -7 -157 -114 -166 -113 -8 1 -9 88 -1 94
4 2 22 16 42 31 20 14 45 33 55 40 36 27 41 29 45 21z m259 -14 c58 -23 123
-58 126 -68 4 -11 2 -98 -2 -100 -4 -3 -12 1 -88 47 -83 50 -78 42 -63 86 3 7
5 17 5 21 0 18 5 21 22 14z m-210 -118 c14 -28 21 -90 11 -96 -4 -3 -164 -2
-168 1 -6 4 -1 8 70 54 83 56 80 54 87 41z m176 -12 c9 -5 93 -55 112 -67 29
-18 26 -19 -65 -19 -92 0 -88 -3 -76 50 9 38 14 44 29 36z"/>
</g>
</svg>
