<?xml version="1.0" standalone="no"?>
<!DOCTYPE svg PUBLIC "-//W3C//DTD SVG 20010904//EN"
 "http://www.w3.org/TR/2001/REC-SVG-20010904/DTD/svg10.dtd">
<svg version="1.0" xmlns="http://www.w3.org/2000/svg"
 width="498.000000pt" height="590.000000pt" viewBox="0 0 498.000000 590.000000"
 preserveAspectRatio="xMidYMid meet">
<metadata>
Created by potrace 1.16, written by Peter Selinger 2001-2019
</metadata>
<g transform="translate(0.000000,590.000000) scale(0.500000,-0.500000)"
fill="#000000" stroke="none">
<path d="M887 1139 c-10 -3 -15 -6 -17 -11 -2 -6 0 -341 3 -397 2 -39 18 -34
-126 -36 -68 0 -176 -2 -239 -3 -119 -3 -125 -2 -128 4 -1 3 0 277 3 413 0 31
20 28 -162 28 -182 0 -163 3 -163 -26 0 -34 0 -34 62 -31 81 4 78 5 78 -22 0
-27 4 -26 -70 -21 -64 4 -64 5 -64 -31 0 -29 -4 -27 65 -27 73 0 68 2 69 -35
0 -38 5 -35 -63 -33 -68 2 -64 4 -65 -30 -1 -33 -4 -32 62 -30 58 2 61 1 64
-6 4 -15 -2 -765 -7 -775 -8 -16 1 -23 32 -24 43 -1 39 -18 37 167 -2 158 -2
162 4 165 8 4 149 3 153 -2 3 -3 3 -13 1 -160 -1 -115 -1 -157 0 -161 6 -12
42 -13 52 -1 l7 7 -2 136 c-3 187 -3 177 2 180 4 3 160 4 165 1 4 -3 5 -15 4
-94 -4 -248 -5 -238 24 -238 37 0 35 -11 32 165 -1 80 -2 149 -2 154 0 15 -1
15 79 15 75 0 89 -2 97 -11 2 -4 3 -148 0 -213 -4 -103 -2 -109 33 -109 32 0
34 2 32 34 -2 41 -3 618 -2 825 2 213 2 224 -4 230 -3 3 -36 5 -46 3z m-570
-60 c3 -4 5 -372 2 -381 -4 -13 -50 -14 -56 -2 -1 1 -2 68 -3 147 -1 110 -2
146 -4 152 -5 15 -2 80 4 85 7 6 53 5 57 -1z m556 -453 c3 -17 3 -166 -1 -170
-3 -4 -3 -4 -303 -4 -345 0 -307 -3 -307 22 0 8 -1 19 -3 25 -3 11 -3 13 0 22
2 8 3 21 3 53 0 55 -2 51 28 50 70 -3 567 -1 572 2 7 5 10 5 11 0z"/>
</g>
</svg>
