<?xml version="1.0" standalone="no"?>
<!DOCTYPE svg PUBLIC "-//W3C//DTD SVG 20010904//EN"
 "http://www.w3.org/TR/2001/REC-SVG-20010904/DTD/svg10.dtd">
<svg version="1.0" xmlns="http://www.w3.org/2000/svg"
 width="84.000000pt" height="100.000000pt" viewBox="0 0 84.000000 100.000000"
 preserveAspectRatio="xMidYMid meet">
<metadata>
Created by potrace 1.16, written by Peter Selinger 2001-2019
</metadata>
<g transform="translate(0.000000,100.000000) scale(0.100000,-0.100000)"
fill="#000000" stroke="none">
<path d="M53 959 c-33 -33 6 -57 72 -45 27 5 37 3 41 -9 10 -24 -3 -30 -59
-30 -46 0 -52 -3 -55 -22 -2 -17 3 -23 27 -28 17 -3 39 -4 48 -1 25 8 46 -8
41 -30 -2 -15 -14 -20 -56 -22 -85 -5 -84 -57 1 -57 l42 0 5 -340 5 -340 25 0
25 0 3 143 3 143 62 -3 62 -3 -4 -118 c-4 -143 1 -169 32 -165 21 3 22 7 25
146 l3 143 67 -3 67 -3 -3 -110 c-4 -144 2 -177 31 -173 21 3 22 7 25 146 l3
143 67 -3 67 -3 2 -120 c2 -66 5 -130 8 -142 6 -27 40 -31 49 -7 9 25 7 897
-3 912 -5 8 -17 12 -27 10 -18 -3 -19 -16 -22 -189 l-2 -186 -196 -6 c-108 -4
-200 -4 -205 -1 -5 3 -9 88 -9 190 l0 184 -92 0 c-51 0 -109 3 -128 6 -22 3
-40 1 -47 -7z m206 -53 c8 -9 11 -63 9 -167 -3 -146 -4 -154 -23 -154 -19 0
-20 8 -23 155 -1 85 0 160 2 167 7 17 21 17 35 -1z m471 -454 l0 -72 -252 2
-253 3 -3 49 c-6 98 -27 91 258 91 l250 0 0 -73z"/>
</g>
</svg>
