<?xml version="1.0" standalone="no"?>
<!DOCTYPE svg PUBLIC "-//W3C//DTD SVG 20010904//EN"
 "http://www.w3.org/TR/2001/REC-SVG-20010904/DTD/svg10.dtd">
<svg version="1.0" xmlns="http://www.w3.org/2000/svg"
 width="124.000000pt" height="148.000000pt" viewBox="0 0 124.000000 148.000000"
 preserveAspectRatio="xMidYMid meet">
<metadata>
Created by potrace 1.16, written by Peter Selinger 2001-2019
</metadata>
<g transform="translate(0.000000,148.000000) scale(0.100000,-0.100000)"
fill="#000000" stroke="none">
<path d="M70 1384 l0 -36 81 3 c67 3 83 1 92 -12 6 -9 7 -24 3 -34 -6 -16 -15
-17 -86 -11 -88 8 -99 2 -86 -50 7 -26 7 -26 77 -19 49 5 74 4 84 -5 18 -15
20 -79 3 -81 -7 -1 -44 -2 -83 -3 l-70 -1 0 -35 0 -35 78 3 c58 3 77 0 77 -10
1 -57 -2 -950 -4 -973 -1 -29 1 -30 39 -30 l40 0 0 210 0 210 100 0 100 0 0
-210 0 -210 30 0 30 0 5 210 5 210 105 0 105 0 0 -210 0 -210 23 -3 c51 -7 53
4 46 220 -5 164 -4 198 7 199 61 5 178 3 197 -3 22 -8 22 -9 22 -204 -1 -112
3 -201 8 -206 5 -5 20 -8 33 -6 l24 3 3 683 2 683 -41 -3 -41 -3 1 -225 c1
-124 4 -246 7 -271 5 -34 3 -47 -7 -50 -8 -2 -149 -4 -314 -4 l-300 0 1 35 c1
19 2 143 4 275 l2 240 -201 3 -201 2 0 -36z m328 -276 c2 -240 2 -247 -18
-253 -11 -3 -28 -4 -39 0 -17 5 -18 23 -23 248 -3 133 -4 246 -1 250 3 4 21 7
41 5 l37 -3 3 -247z m691 -433 l0 -115 -383 0 -384 0 -3 33 c-2 17 -3 67 -1
109 l4 78 376 3 c207 1 380 3 384 5 4 1 7 -50 7 -113z"/>
</g>
</svg>
