<?xml version="1.0" standalone="no"?>
<!DOCTYPE svg PUBLIC "-//W3C//DTD SVG 20010904//EN"
 "http://www.w3.org/TR/2001/REC-SVG-20010904/DTD/svg10.dtd">
<svg version="1.0" xmlns="http://www.w3.org/2000/svg"
 width="574.000000pt" height="590.000000pt" viewBox="0 0 574.000000 590.000000"
 preserveAspectRatio="xMidYMid meet">
<metadata>
Created by potrace 1.16, written by Peter Selinger 2001-2019
</metadata>
<g transform="translate(0.000000,590.000000) scale(0.500000,-0.500000)"
fill="#000000" stroke="none">
<path d="M82 1138 c-10 -2 -14 -8 -14 -20 0 -22 11 -33 65 -61 7 -3 20 -12 30
-18 10 -7 28 -18 40 -25 32 -18 35 -22 35 -48 0 -33 -8 -31 -68 14 -69 52 -96
57 -104 19 -4 -17 12 -38 40 -49 5 -2 15 -9 23 -15 8 -6 26 -17 40 -26 14 -9
29 -19 34 -23 5 -4 11 -8 14 -10 14 -5 21 -20 21 -44 0 -31 -6 -37 -21 -23 -4
4 -11 8 -16 9 -7 2 -17 8 -62 40 -7 4 -16 9 -20 10 -4 1 -12 6 -16 10 -20 18
-43 1 -38 -27 2 -10 24 -35 41 -46 118 -76 127 -83 130 -88 4 -14 -2 -638 -7
-647 -8 -16 1 -23 32 -24 43 -1 39 -18 37 169 -3 179 6 189 148 166 14 -2 13
9 10 -164 -2 -187 -5 -172 30 -171 32 2 30 -10 26 216 -2 106 -2 111 1 114 6
6 163 7 169 1 4 -4 4 7 1 -182 -2 -163 -4 -149 25 -149 37 0 35 -10 32 154 -3
177 -3 173 1 177 6 5 141 4 159 -1 20 -6 18 4 16 -130 -3 -188 -3 -193 7 -198
9 -4 46 -3 51 2 5 4 5 4 4 475 -1 463 0 481 5 481 4 0 26 -19 48 -40 30 -29
39 -31 59 -13 20 19 13 35 -29 63 -8 6 -19 15 -23 19 -3 5 -9 10 -11 12 -30
16 -49 41 -49 65 0 24 -2 26 -25 26 -23 0 -27 -3 -27 -23 0 -31 -29 -61 -70
-75 -9 -3 -38 -20 -49 -29 -20 -17 -13 -46 13 -54 22 -6 28 -4 59 19 48 34 43
48 43 -130 0 -180 53 -154 -310 -155 -365 0 -311 -30 -309 171 1 163 1 163 -4
171 -8 14 -32 31 -56 41 -6 2 -17 9 -26 15 -9 6 -29 17 -44 25 -15 8 -30 16
-33 18 -3 3 -9 5 -12 5 -16 2 -40 2 -46 1z m658 -500 c48 -2 44 6 44 -92 0
-106 8 -96 -76 -96 -73 0 -90 46 -69 178 3 16 7 16 101 10z m-359 -4 c6 -7 7
-174 1 -180 -18 -18 -78 -4 -80 19 -1 9 -3 21 -4 27 -2 9 -2 12 1 24 2 12 3
25 3 61 0 58 -4 53 41 53 32 0 35 0 38 -4z m202 -1 c4 -3 8 -165 5 -174 -3 -9
-7 -9 -74 -9 -69 0 -71 0 -73 11 -4 21 2 169 7 173 7 6 130 5 135 -1z m328 3
c6 -4 7 -6 7 -25 0 -10 1 -23 3 -29 5 -18 4 -120 -1 -126 -6 -7 -75 -9 -82 -2
-7 7 -5 174 2 180 5 5 63 6 71 2z"/>
</g>
</svg>
