<?xml version="1.0" standalone="no"?>
<!DOCTYPE svg PUBLIC "-//W3C//DTD SVG 20010904//EN"
 "http://www.w3.org/TR/2001/REC-SVG-20010904/DTD/svg10.dtd">
<svg version="1.0" xmlns="http://www.w3.org/2000/svg"
 width="97.000000pt" height="100.000000pt" viewBox="0 0 97.000000 100.000000"
 preserveAspectRatio="xMidYMid meet">
<metadata>
Created by potrace 1.16, written by Peter Selinger 2001-2019
</metadata>
<g transform="translate(0.000000,100.000000) scale(0.100000,-0.100000)"
fill="#000000" stroke="none">
<path d="M54 956 c-8 -22 -1 -29 77 -74 44 -26 65 -44 67 -60 5 -30 -15 -28
-62 8 -46 35 -86 40 -86 11 0 -12 24 -33 73 -62 58 -35 73 -50 75 -72 2 -15
-1 -27 -5 -27 -5 0 -33 16 -63 35 -61 38 -75 42 -83 21 -8 -20 10 -39 73 -79
31 -19 62 -42 69 -51 10 -12 12 -74 10 -293 -4 -264 -3 -278 15 -281 35 -7 41
14 41 151 l0 132 62 3 62 3 3 -143 c3 -139 4 -143 25 -146 31 -4 36 22 32 165
l-4 118 68 3 67 3 0 -141 c0 -116 3 -142 15 -146 8 -4 23 0 32 7 14 12 15 30
10 134 -4 66 -3 126 2 133 5 9 27 12 72 10 l64 -3 5 -140 c5 -136 6 -140 28
-143 28 -4 26 -37 22 431 -3 410 -4 404 51 351 17 -16 34 -24 43 -21 29 11 17
44 -26 76 -24 18 -50 46 -58 63 -21 44 -38 46 -55 5 -10 -23 -29 -43 -57 -59
-28 -15 -44 -31 -46 -46 -5 -32 22 -37 63 -12 l36 22 -3 -128 -3 -129 -240 -1
c-141 -1 -248 2 -258 8 -17 9 -18 19 -13 96 3 48 3 112 -1 142 -8 54 -9 55
-71 93 -77 46 -119 57 -128 33z m264 -499 l3 -78 -33 3 c-32 3 -33 4 -36 57
-5 82 3 103 36 99 27 -3 27 -4 30 -81z m316 73 c24 -9 26 -14 26 -69 0 -70
-12 -83 -72 -79 l-43 3 -3 64 c-2 35 -1 70 2 77 6 16 54 18 90 4z m139 -58
c11 -77 6 -92 -32 -92 -36 0 -43 17 -35 84 8 72 11 78 36 74 20 -3 24 -11 31
-66z m-285 -14 l-3 -73 -55 0 -55 0 -3 40 c-2 21 -1 54 3 72 6 33 7 33 61 33
l55 0 -3 -72z"/>
</g>
</svg>
