<?xml version="1.0" standalone="no"?>
<!DOCTYPE svg PUBLIC "-//W3C//DTD SVG 20010904//EN"
 "http://www.w3.org/TR/2001/REC-SVG-20010904/DTD/svg10.dtd">
<svg version="1.0" xmlns="http://www.w3.org/2000/svg"
 width="144.000000pt" height="148.000000pt" viewBox="0 0 144.000000 148.000000"
 preserveAspectRatio="xMidYMid meet">
<metadata>
Created by potrace 1.16, written by Peter Selinger 2001-2019
</metadata>
<g transform="translate(0.000000,148.000000) scale(0.100000,-0.100000)"
fill="#000000" stroke="none">
<path d="M85 1410 c-14 -23 11 -48 108 -105 98 -58 102 -61 105 -97 2 -24 -1
-38 -9 -38 -6 0 -39 21 -73 46 -33 26 -71 51 -83 57 -33 15 -55 2 -51 -29 2
-22 22 -39 102 -90 54 -34 103 -68 107 -76 11 -16 12 -75 1 -82 -4 -2 -47 22
-96 55 -48 32 -92 59 -97 59 -4 0 -13 -9 -20 -21 -15 -28 11 -54 126 -129 l90
-59 -3 -403 c-2 -222 -5 -411 -8 -420 -6 -19 29 -33 63 -26 17 3 18 18 18 211
0 241 -12 220 123 215 l84 -3 1 -210 2 -210 30 0 30 0 1 210 0 210 110 0 109
0 0 -210 0 -210 30 0 30 0 5 210 5 210 70 3 c39 2 89 0 113 -3 l43 -6 -2 -200
c-1 -124 2 -204 9 -211 5 -5 20 -8 33 -6 l24 3 2 604 c1 332 4 605 6 607 2 2
25 -16 52 -41 51 -48 79 -55 99 -22 9 15 6 22 -16 40 -15 12 -52 42 -83 67
-47 37 -55 49 -55 77 0 29 -3 33 -28 33 -25 0 -29 -5 -38 -42 -8 -40 -14 -46
-76 -78 -37 -19 -73 -40 -79 -47 -16 -16 -5 -41 25 -54 22 -10 31 -7 74 24 27
20 51 35 54 32 2 -2 3 -91 2 -197 l-3 -193 -391 -3 -392 -2 3 212 c2 117 0
218 -3 224 -4 6 -52 36 -107 67 -98 56 -160 72 -176 47z m393 -729 c1 -66 -1
-117 -7 -120 -5 -4 -30 -5 -55 -3 -44 4 -46 5 -47 36 -2 62 3 191 8 199 3 4
26 7 51 5 l47 -3 3 -114z m257 -3 l2 -118 -93 0 -94 0 0 113 c0 63 3 117 7
121 4 4 45 5 91 4 l84 -3 3 -117z m240 2 l0 -115 -90 0 -90 0 2 110 c1 61 2
114 3 118 0 4 39 6 88 5 l87 -3 0 -115z m170 111 c3 -6 8 -60 12 -120 l6 -111
-61 0 -62 0 0 113 c0 63 3 117 7 120 10 11 91 8 98 -2z"/>
</g>
</svg>
