<?xml version="1.0" standalone="no"?>
<!DOCTYPE svg PUBLIC "-//W3C//DTD SVG 20010904//EN"
 "http://www.w3.org/TR/2001/REC-SVG-20010904/DTD/svg10.dtd">
<svg version="1.0" xmlns="http://www.w3.org/2000/svg"
 width="128.000000pt" height="148.000000pt" viewBox="0 0 128.000000 148.000000"
 preserveAspectRatio="xMidYMid meet">
<metadata>
Created by potrace 1.16, written by Peter Selinger 2001-2019
</metadata>
<g transform="translate(0.000000,148.000000) scale(0.100000,-0.100000)"
fill="#000000" stroke="none">
<path d="M50 1403 c0 -29 10 -37 111 -96 95 -56 109 -70 109 -107 0 -36 -22
-31 -98 24 -82 60 -115 67 -120 28 -4 -23 22 -62 40 -62 12 0 161 -100 170
-114 12 -18 9 -74 -4 -78 -7 -3 -40 15 -74 39 -34 24 -65 43 -69 43 -3 0 -13
7 -22 15 -31 32 -56 -7 -33 -51 7 -12 55 -49 107 -81 l94 -58 -2 -425 -1 -425
38 0 39 0 0 210 0 210 100 0 100 0 0 -210 0 -210 30 0 30 0 5 210 5 210 105 0
105 0 0 -210 0 -210 23 -3 c49 -7 51 4 45 215 -5 145 -3 197 6 202 9 6 115 7
203 2 16 -1 18 -20 20 -209 l3 -207 40 0 40 0 2 595 c1 327 3 604 4 615 1 11
2 45 1 76 -2 63 -19 77 -64 55 -19 -10 -23 -20 -23 -56 l0 -43 -112 2 -113 3
-12 -28 c-12 -25 -10 -29 22 -56 19 -16 52 -38 72 -49 51 -26 54 -35 24 -72
-14 -18 -61 -77 -103 -133 l-78 -101 -235 4 -235 4 -3 206 c-2 196 -4 208 -24
230 -12 12 -30 25 -40 29 -10 3 -47 23 -83 45 -73 44 -145 55 -145 22z m1045
-163 c7 -11 -23 -60 -37 -60 -5 0 -23 10 -41 22 -18 13 -34 24 -36 25 -1 1 0
6 4 12 8 14 102 14 110 1z m23 -257 l-3 -118 -103 -3 c-65 -2 -103 1 -100 7 1
5 41 60 88 120 114 148 122 147 118 -6z m-14 -203 c5 -5 11 -57 14 -115 l5
-105 -392 0 -391 0 -1 33 c-2 45 3 191 6 197 6 9 749 0 759 -10z"/>
</g>
</svg>
