<?xml version="1.0" standalone="no"?>
<!DOCTYPE svg PUBLIC "-//W3C//DTD SVG 20010904//EN"
 "http://www.w3.org/TR/2001/REC-SVG-20010904/DTD/svg10.dtd">
<svg version="1.0" xmlns="http://www.w3.org/2000/svg"
 width="86.000000pt" height="100.000000pt" viewBox="0 0 86.000000 100.000000"
 preserveAspectRatio="xMidYMid meet">
<metadata>
Created by potrace 1.16, written by Peter Selinger 2001-2019
</metadata>
<g transform="translate(0.000000,100.000000) scale(0.100000,-0.100000)"
fill="#000000" stroke="none">
<path d="M40 955 c-16 -19 -15 -20 68 -70 46 -28 68 -47 70 -63 5 -30 -11 -28
-64 9 -47 32 -79 35 -79 7 0 -11 27 -34 70 -60 56 -35 71 -49 73 -71 2 -15 0
-27 -5 -27 -5 0 -33 16 -63 35 -57 37 -73 39 -78 13 -4 -20 29 -52 90 -86 l48
-27 2 -290 3 -290 25 0 25 0 3 143 3 143 62 -3 62 -3 -3 -118 c-4 -144 0 -169
31 -165 21 3 22 7 25 146 l3 143 67 -3 67 -3 0 -140 0 -140 25 0 25 0 5 140 5
140 65 0 65 0 5 -134 c4 -109 8 -136 21 -144 9 -6 24 -7 33 -4 14 6 16 49 16
455 0 369 -2 452 -14 461 -21 18 -45 2 -48 -32 l-3 -32 -77 -3 -78 -3 0 -29
c0 -24 7 -33 39 -50 22 -11 42 -24 45 -29 3 -5 -10 -28 -30 -52 -20 -24 -49
-63 -66 -86 l-29 -44 -157 3 -157 3 -5 145 -5 145 -62 37 c-77 47 -105 54
-123 33z m710 -279 c0 -92 -3 -96 -65 -96 -30 0 -56 4 -59 8 -7 12 96 152 111
152 9 0 13 -19 13 -64z m-12 -165 c8 -10 12 -37 10 -71 l-3 -55 -249 -3 c-193
-2 -251 1 -258 10 -9 15 -11 109 -2 131 4 12 43 13 247 10 209 -4 244 -7 255
-22z"/>
</g>
</svg>
