<?xml version="1.0" standalone="no"?>
<!DOCTYPE svg PUBLIC "-//W3C//DTD SVG 20010904//EN"
 "http://www.w3.org/TR/2001/REC-SVG-20010904/DTD/svg10.dtd">
<svg version="1.0" xmlns="http://www.w3.org/2000/svg"
 width="512.000000pt" height="590.000000pt" viewBox="0 0 512.000000 590.000000"
 preserveAspectRatio="xMidYMid meet">
<metadata>
Created by potrace 1.16, written by Peter Selinger 2001-2019
</metadata>
<g transform="translate(0.000000,590.000000) scale(0.500000,-0.500000)"
fill="#000000" stroke="none">
<path d="M50 1134 c-14 -14 8 -60 29 -60 1 0 7 -3 13 -7 5 -4 12 -8 15 -9 3
-1 12 -7 21 -12 8 -6 21 -14 28 -18 56 -32 56 -32 56 -63 -1 -29 -21 -26 -58
8 -8 8 -56 40 -65 45 -22 11 -40 4 -46 -17 -6 -20 5 -33 40 -51 8 -4 18 -11
22 -15 8 -7 25 -18 41 -27 4 -2 12 -8 19 -13 7 -5 17 -12 23 -15 21 -13 27
-27 26 -57 -2 -22 -10 -28 -22 -15 -3 3 -9 7 -14 9 -5 1 -24 13 -43 26 -21 14
-37 24 -43 25 -5 2 -10 5 -12 8 -13 17 -30 13 -37 -8 -5 -14 -2 -22 13 -40 13
-14 12 -14 116 -82 19 -12 35 -24 37 -27 5 -8 1 -635 -5 -649 -8 -18 1 -24 35
-24 38 0 35 -13 33 152 -2 192 -3 173 2 178 6 6 148 6 154 0 4 -4 4 -5 3 -73
-5 -263 -5 -257 24 -257 36 0 34 -11 31 171 -2 151 -2 159 5 162 7 3 158 1
162 -2 5 -3 5 -2 2 -191 -2 -152 -4 -140 25 -140 37 0 35 -12 32 171 -2 151
-2 159 5 162 10 3 143 1 157 -3 18 -6 17 5 15 -129 -3 -218 -6 -203 41 -201
37 2 34 -12 32 148 -5 357 -2 797 4 809 7 13 7 19 1 32 -5 9 -5 12 -5 44 0 39
0 38 -21 44 -14 3 -14 3 -21 -2 -4 -3 -11 -6 -15 -8 -12 -5 -18 -41 -9 -54 13
-19 9 -20 -90 -18 l-84 1 -8 -7 c-22 -21 -13 -51 20 -72 5 -3 14 -10 19 -14 6
-5 14 -11 19 -13 12 -6 38 -22 43 -26 5 -4 4 -7 -5 -17 -4 -4 -9 -11 -12 -15
-3 -4 -7 -10 -11 -14 -3 -4 -12 -15 -20 -25 -8 -10 -18 -22 -23 -28 -6 -6 -11
-13 -13 -16 -2 -3 -7 -9 -10 -13 -4 -4 -10 -11 -14 -16 -11 -17 -28 -39 -32
-42 -1 -1 -6 -7 -9 -13 -13 -20 -9 -19 -54 -19 -30 0 -41 1 -49 3 -9 3 -24 3
-111 3 -76 -1 -103 0 -110 2 -8 2 -11 2 -19 -1 -12 -4 -37 -4 -42 0 -4 3 -4 6
-3 165 0 162 0 162 -4 169 -8 13 -34 32 -53 39 -6 2 -18 9 -27 15 -10 6 -28
17 -42 24 -14 8 -29 16 -35 20 -13 8 -59 11 -67 3z m823 -141 c5 -2 3 -11 -4
-25 -14 -22 -21 -24 -37 -11 -5 4 -15 11 -22 16 -20 13 -22 17 -10 20 8 1 69
1 73 0z m21 -120 c4 -6 4 -6 3 -44 -1 -51 -2 -58 -1 -73 3 -71 7 -68 -89 -66
-85 1 -85 1 -44 48 5 5 11 13 15 18 3 5 10 14 15 20 12 15 28 35 36 46 45 62
51 66 65 51z m-304 -240 c16 -5 104 -4 126 1 16 5 17 5 30 1 11 -2 23 -3 72
-3 64 0 68 -1 71 -16 5 -26 6 -42 6 -85 -1 -78 0 -77 -6 -78 -6 -2 -601 -1
-605 1 -5 3 -8 14 -8 27 0 6 -1 14 -3 20 -2 8 -2 10 0 19 3 7 4 18 4 60 0 50
0 50 5 54 6 5 292 4 308 -1z"/>
</g>
</svg>
