<?xml version="1.0" standalone="no"?>
<!DOCTYPE svg PUBLIC "-//W3C//DTD SVG 20010904//EN"
 "http://www.w3.org/TR/2001/REC-SVG-20010904/DTD/svg10.dtd">
<svg version="1.0" xmlns="http://www.w3.org/2000/svg"
 width="100.000000pt" height="100.000000pt" viewBox="0 0 100.000000 100.000000"
 preserveAspectRatio="xMidYMid meet">
<metadata>
Created by potrace 1.16, written by Peter Selinger 2001-2019
</metadata>
<g transform="translate(0.000000,100.000000) scale(0.100000,-0.100000)"
fill="#000000" stroke="none">
<path d="M37 963 c-20 -20 -3 -44 55 -75 69 -38 89 -61 70 -80 -9 -9 -22 -5
-57 21 -47 34 -75 35 -75 3 0 -12 23 -32 68 -58 66 -40 84 -66 63 -87 -8 -8
-24 -2 -56 21 -45 31 -70 39 -78 25 -11 -19 13 -47 73 -86 l65 -42 0 -285 0
-285 25 0 25 0 3 137 3 136 123 7 c67 4 185 3 262 -1 l139 -9 -4 -132 c-3
-119 -2 -133 14 -139 10 -4 25 -3 34 3 14 9 16 44 12 335 -4 370 -15 322 93
408 60 48 75 73 56 95 -9 11 -26 13 -72 8 -66 -7 -78 0 -78 49 0 55 -47 46
-52 -10 l-3 -37 -73 -1 c-41 -1 -78 -6 -84 -12 -18 -18 2 -51 48 -78 24 -14
44 -28 44 -30 0 -2 -19 -28 -42 -58 -24 -29 -55 -69 -70 -88 l-26 -35 -150 2
c-82 1 -155 6 -161 10 -9 5 -11 39 -5 129 4 82 3 129 -4 143 -12 23 -140 103
-163 103 -9 0 -19 -3 -22 -7z m711 -309 l-3 -69 -69 -3 c-78 -3 -77 -13 -8 79
75 101 85 100 80 -7z m-412 -125 c29 -10 134 -126 134 -148 0 -15 -72 -14 -93
2 -18 14 -107 127 -107 137 0 21 24 25 66 9z m282 -74 c34 -36 60 -70 57 -75
-4 -6 -19 -10 -34 -10 -68 0 -88 11 -145 80 -31 38 -56 72 -56 76 0 4 26 4 58
1 55 -6 60 -8 120 -72z m113 65 c15 -8 19 -22 19 -60 0 -34 -4 -50 -12 -50
-19 1 -101 98 -93 110 8 13 61 13 86 0z m-458 -92 c30 -46 25 -61 -19 -56 -27
3 -29 6 -32 51 -4 60 14 62 51 5z"/>
<path d="M407 244 c-4 -4 -7 -47 -7 -96 0 -71 3 -90 16 -95 8 -3 20 -1 26 5
15 15 22 109 11 152 -9 33 -31 49 -46 34z"/>
<path d="M517 243 c-4 -3 -7 -46 -7 -95 0 -70 3 -90 15 -94 31 -12 45 15 45
88 0 38 -5 78 -10 89 -11 19 -31 25 -43 12z"/>
</g>
</svg>
