<?xml version="1.0" standalone="no"?>
<!DOCTYPE svg PUBLIC "-//W3C//DTD SVG 20010904//EN"
 "http://www.w3.org/TR/2001/REC-SVG-20010904/DTD/svg10.dtd">
<svg version="1.0" xmlns="http://www.w3.org/2000/svg"
 width="148.000000pt" height="148.000000pt" viewBox="0 0 148.000000 148.000000"
 preserveAspectRatio="xMidYMid meet">
<metadata>
Created by potrace 1.16, written by Peter Selinger 2001-2019
</metadata>
<g transform="translate(0.000000,148.000000) scale(0.100000,-0.100000)"
fill="#000000" stroke="none">
<path d="M46 1411 c-12 -19 13 -57 50 -76 73 -38 141 -84 148 -100 9 -25 7
-53 -4 -60 -6 -4 -41 16 -79 44 -77 57 -111 65 -111 27 0 -31 10 -56 22 -56 5
0 24 -11 42 -25 18 -14 36 -25 39 -25 10 0 81 -50 89 -63 11 -18 10 -77 -2
-77 -17 0 -82 37 -130 74 -53 41 -72 35 -60 -20 5 -20 10 -36 12 -37 1 -1 17
-12 35 -25 18 -12 36 -22 40 -23 4 0 30 -17 57 -37 l48 -37 2 -420 1 -420 35
0 35 0 3 202 2 201 83 5 c206 11 613 6 686 -9 l24 -5 -6 -194 -6 -195 24 -6
c13 -3 32 -3 42 0 17 5 18 29 15 500 l-4 494 54 40 c29 21 73 58 97 81 24 22
47 41 52 41 14 0 39 57 33 74 -5 13 -26 16 -121 16 l-116 0 5 44 c6 50 -5 76
-32 76 -28 0 -49 -47 -39 -84 5 -17 6 -32 4 -34 -2 -2 -56 -4 -120 -3 l-115 2
-10 -27 c-14 -37 3 -54 123 -128 l28 -17 -53 -62 c-29 -34 -80 -97 -113 -141
l-59 -78 -60 8 c-34 5 -137 9 -231 9 l-170 0 -3 209 c-2 185 -5 212 -20 226
-15 14 -68 46 -175 107 -26 15 -83 17 -91 4z m1041 -191 c-8 -20 -18 -30 -33
-30 -28 0 -81 27 -88 45 -4 12 7 15 63 15 l69 0 -11 -30z m213 10 c-6 -11 -15
-20 -19 -20 -5 0 -22 -14 -39 -31 -49 -50 -85 -24 -68 47 6 22 11 24 72 24 62
0 64 -1 54 -20z m-201 -154 c8 -9 11 -50 9 -117 l-3 -104 -94 -3 c-52 -1 -101
0 -108 2 -9 4 16 42 79 121 51 63 96 115 99 115 4 0 12 -6 18 -14z m-619 -286
c32 0 43 -9 125 -105 49 -58 93 -105 97 -105 5 0 8 -7 8 -15 0 -12 -15 -15
-72 -15 -40 0 -78 4 -84 8 -5 4 -31 36 -56 72 -26 36 -55 74 -66 85 -10 11
-26 32 -36 47 -19 29 -8 41 29 33 11 -3 36 -5 55 -5z m255 -4 c71 -11 93 -18
105 -35 8 -12 53 -60 99 -107 46 -46 81 -88 77 -91 -4 -4 -48 -6 -99 -4 -102
3 -92 -3 -172 95 -80 97 -113 144 -108 150 4 3 7 6 7 6 1 -1 41 -7 91 -14z
m373 -110 l3 -99 -23 15 c-13 8 -28 26 -35 39 -6 13 -37 48 -67 78 -31 29 -53
57 -50 62 3 6 42 8 87 7 l82 -3 3 -99z m-735 0 c15 -19 27 -38 27 -41 0 -3 13
-20 29 -38 17 -17 28 -35 25 -39 -3 -4 -32 -8 -65 -8 -58 0 -59 0 -59 28 0 15
-5 33 -11 39 -8 8 -8 17 0 31 6 11 11 30 11 41 0 30 11 26 43 -13z"/>
<path d="M595 348 c-3 -8 -4 -68 -3 -134 l3 -119 38 -3 38 -3 -3 133 -3 133
-33 3 c-20 2 -34 -2 -37 -10z"/>
<path d="M759 241 c-1 -67 -2 -127 -3 -133 -1 -8 14 -14 37 -16 l38 -3 -3 133
-3 133 -32 3 -33 3 -1 -120z"/>
</g>
</svg>
