<?xml version="1.0" standalone="no"?>
<!DOCTYPE svg PUBLIC "-//W3C//DTD SVG 20010904//EN"
 "http://www.w3.org/TR/2001/REC-SVG-20010904/DTD/svg10.dtd">
<svg version="1.0" xmlns="http://www.w3.org/2000/svg"
 width="594.000000pt" height="590.000000pt" viewBox="0 0 594.000000 590.000000"
 preserveAspectRatio="xMidYMid meet">
<metadata>
Created by potrace 1.16, written by Peter Selinger 2001-2019
</metadata>
<g transform="translate(0.000000,590.000000) scale(0.500000,-0.500000)"
fill="#000000" stroke="none">
<path d="M44 1134 c-12 -12 -4 -44 13 -52 4 -3 13 -9 19 -14 8 -7 14 -11 21
-12 6 -1 13 -5 17 -8 4 -3 11 -7 15 -10 5 -2 10 -5 11 -7 2 -2 11 -8 22 -13
30 -15 36 -23 36 -51 0 -26 -8 -36 -16 -21 -2 3 -9 8 -17 12 -17 8 -30 18 -43
31 -6 6 -11 9 -15 9 -2 0 -8 3 -13 7 -14 10 -16 11 -31 11 -19 0 -23 -4 -23
-23 0 -22 9 -38 24 -41 6 -1 13 -6 22 -14 8 -7 15 -12 17 -12 1 0 7 -4 13 -8
5 -4 10 -8 12 -8 1 0 6 -3 11 -7 5 -4 12 -8 15 -10 4 -2 11 -6 15 -10 4 -4 10
-7 12 -8 13 -4 17 -13 17 -41 0 -35 -5 -43 -17 -27 -3 4 -7 7 -12 8 -9 2 -26
10 -34 17 -4 3 -13 9 -22 14 -9 5 -16 10 -18 14 -2 4 -5 6 -11 8 -5 1 -13 5
-19 9 -19 13 -25 8 -25 -20 0 -30 9 -44 34 -57 11 -6 17 -10 19 -14 2 -3 5 -6
8 -7 3 -1 7 -1 10 -2 3 -1 10 -6 16 -11 6 -6 14 -12 18 -13 3 -2 10 -6 15 -10
5 -4 9 -7 11 -7 4 0 17 -10 22 -18 6 -9 6 28 2 -505 -2 -186 -6 -167 34 -167
39 0 40 12 32 277 -2 53 -8 48 61 49 47 1 56 1 61 5 10 5 363 5 375 0 6 -3 15
-4 53 -5 42 -1 47 -1 58 -6 7 -2 14 -5 17 -6 6 -3 5 -226 -1 -244 -3 -7 -3
-10 -1 -16 1 -4 2 -16 3 -26 1 -27 2 -28 36 -28 39 0 36 -8 34 95 0 46 -2 221
-2 388 l-2 303 9 9 c5 5 11 11 14 15 3 4 8 8 12 9 4 2 10 6 14 9 3 3 9 7 13 9
4 2 21 16 38 33 18 17 34 32 38 33 3 2 10 7 14 12 5 4 11 10 15 13 15 11 24
47 14 59 -9 12 -7 12 -94 10 -96 -2 -87 -6 -85 38 2 30 -1 40 -13 54 -8 9 -32
3 -35 -10 -1 -3 -5 -9 -9 -13 -10 -9 -11 -40 -3 -56 7 -15 10 -15 -87 -13 -94
1 -93 1 -105 -16 -16 -22 2 -56 37 -74 5 -2 14 -8 20 -13 6 -5 20 -14 33 -20
27 -14 27 -15 13 -31 -5 -6 -10 -12 -11 -15 -1 -2 -4 -6 -8 -8 -5 -3 -7 -6 -8
-11 -1 -5 -4 -9 -8 -12 -4 -3 -9 -8 -10 -11 -2 -4 -10 -13 -18 -22 -8 -8 -16
-18 -18 -22 -2 -4 -10 -14 -18 -22 -8 -9 -15 -17 -15 -18 0 -2 -4 -8 -9 -15
-5 -6 -9 -13 -10 -15 -1 -2 -4 -5 -7 -7 -4 -2 -8 -6 -9 -10 -6 -14 -9 -15 -54
-15 -38 0 -42 0 -49 4 -8 4 -10 4 -140 4 -154 0 -139 -1 -143 3 -4 4 -4 11 0
292 l0 39 -9 8 c-5 4 -12 11 -16 15 -9 9 -23 16 -34 18 -5 1 -11 4 -17 9 -6 4
-11 8 -12 8 -1 0 -7 4 -12 8 -7 5 -13 8 -19 9 -6 1 -11 4 -21 13 -9 8 -15 12
-20 13 -5 1 -12 3 -16 5 -12 6 -45 6 -51 0z m831 -139 c4 -2 4 -5 -2 -13 -3
-4 -5 -11 -6 -15 -3 -16 -31 -20 -48 -5 -5 4 -12 8 -18 10 -16 4 -26 20 -14
22 8 2 84 2 88 1z m162 -1 c13 -2 10 -13 -6 -21 -3 -2 -10 -7 -15 -11 -5 -4
-11 -8 -12 -9 -2 0 -6 -4 -8 -9 -6 -12 -29 -26 -37 -23 -8 3 -10 66 -2 72 4 3
64 4 80 1z m-151 -134 c6 -6 10 -161 4 -169 -4 -6 -10 -7 -84 -7 -90 0 -89 0
-73 19 5 6 10 14 12 17 2 4 11 14 19 23 9 9 16 18 16 20 0 2 9 12 20 24 11 11
21 23 23 27 1 4 8 13 14 20 6 7 11 14 11 15 0 15 27 22 38 11z m-501 -227 c37
-2 42 -4 48 -18 2 -4 11 -15 21 -25 10 -11 20 -23 22 -27 3 -4 16 -20 31 -35
15 -15 28 -30 30 -34 2 -4 11 -15 20 -25 17 -17 20 -23 14 -26 -8 -3 -113 -1
-119 2 -6 3 -20 18 -20 22 0 2 -5 8 -11 15 -6 6 -12 15 -14 18 -2 4 -8 12 -13
18 -6 6 -12 15 -15 20 -3 5 -8 13 -13 17 -5 4 -10 12 -12 16 -3 4 -9 13 -15
19 -6 6 -11 13 -12 16 -1 3 -4 8 -6 11 -7 8 -6 13 1 14 3 1 6 2 7 2 3 1 21 1
56 0z m204 -5 c7 -3 12 -4 33 -4 32 0 64 -19 71 -42 2 -7 11 -16 19 -19 9 -4
27 -22 32 -33 3 -6 16 -20 38 -42 50 -51 53 -47 -42 -46 -77 0 -78 0 -83 10
-2 4 -12 16 -23 27 -11 11 -20 22 -20 24 0 2 -12 15 -26 30 -14 15 -26 28 -26
30 0 2 -3 6 -7 11 -4 4 -8 11 -10 14 -1 4 -9 14 -16 22 -7 8 -13 15 -13 16 0
7 59 9 73 2z m293 -8 c10 -6 10 -9 10 -78 0 -71 0 -74 -11 -67 -10 8 -33 32
-33 36 0 2 -19 23 -42 46 -45 45 -56 61 -45 66 8 3 114 1 121 -3z m-597 -60
c3 -3 7 -9 10 -14 3 -5 8 -13 13 -17 5 -4 10 -12 12 -16 3 -4 9 -13 14 -19 5
-6 11 -14 13 -18 2 -4 7 -11 11 -16 16 -18 8 -21 -49 -19 -41 0 -40 0 -41 27
-1 14 -2 21 -5 24 -4 6 -4 22 0 29 1 2 3 12 4 23 1 25 5 28 18 16z"/>
<path d="M489 286 c-7 -3 -7 -5 -8 -106 -2 -116 -4 -108 28 -108 19 0 28 2 30
8 2 5 1 194 -1 199 -3 8 -35 13 -49 7z"/>
<path d="M617 283 c-5 -5 -5 -5 -5 -40 0 -20 -1 -64 -1 -98 -2 -76 -3 -72 24
-73 41 -1 38 -10 36 109 -2 117 1 107 -30 107 -18 0 -20 0 -24 -5z"/>
</g>
</svg>
