<?xml version="1.0" standalone="no"?>
<!DOCTYPE svg PUBLIC "-//W3C//DTD SVG 20010904//EN"
 "http://www.w3.org/TR/2001/REC-SVG-20010904/DTD/svg10.dtd">
<svg version="1.0" xmlns="http://www.w3.org/2000/svg"
 width="148.000000pt" height="148.000000pt" viewBox="0 0 148.000000 148.000000"
 preserveAspectRatio="xMidYMid meet">
<metadata>
Created by potrace 1.16, written by Peter Selinger 2001-2019
</metadata>
<g transform="translate(0.000000,148.000000) scale(0.100000,-0.100000)"
fill="#000000" stroke="none">
<path d="M1108 1363 l-66 -67 -52 32 c-28 18 -54 32 -56 32 -3 0 -25 14 -49
30 -51 35 -61 37 -75 11 -17 -32 -2 -48 83 -92 45 -23 84 -44 86 -46 9 -7 -22
-78 -45 -106 -13 -16 -24 -35 -24 -43 0 -7 -19 -44 -43 -81 -24 -38 -51 -88
-60 -113 -36 -102 -47 -129 -71 -183 l-25 -57 -238 2 -238 3 0 211 0 212 -67
71 c-37 39 -72 71 -78 71 -6 0 -16 -12 -22 -26 -11 -24 -8 -29 50 -85 49 -47
62 -66 62 -89 0 -40 -11 -38 -54 10 -20 22 -44 40 -55 40 -21 0 -33 -22 -25
-44 7 -17 112 -106 125 -106 5 0 9 -11 9 -25 0 -35 -18 -31 -56 13 -27 31 -35
35 -51 26 -32 -20 -25 -39 39 -102 l62 -61 1 -373 0 -373 29 0 29 0 -2 173
c-1 94 1 172 6 172 4 1 37 2 73 3 l65 2 0 -175 0 -175 30 0 30 0 0 174 0 174
150 1 150 1 -4 -178 -4 -179 29 4 29 3 2 100 c2 55 4 134 5 175 l3 75 67 3
c83 3 92 -8 78 -94 -6 -33 -10 -105 -10 -161 0 -103 0 -103 24 -103 14 0 27 4
30 9 3 4 8 107 11 227 5 212 18 302 47 341 5 6 8 24 7 40 -4 37 11 122 22 129
5 3 9 14 9 24 0 10 15 50 34 87 18 37 37 79 41 93 12 39 26 41 80 11 64 -36
117 -53 139 -45 21 8 46 55 46 88 0 28 -25 48 -110 90 -30 15 -71 36 -90 48
-19 11 -55 32 -79 46 l-43 24 62 63 c64 65 75 97 34 103 -14 2 -40 -17 -86
-65z m53 -203 c21 -12 25 -19 18 -38 -11 -28 -23 -28 -81 3 -26 14 -54 25 -63
25 -24 0 -29 27 -11 55 l17 25 47 -27 c26 -15 59 -34 73 -43z m-91 -72 c46
-21 62 -36 54 -50 -9 -14 -37 -9 -96 19 -54 25 -68 40 -51 56 8 8 32 2 93 -25z
m202 5 c25 -23 23 -43 -6 -43 -33 0 -53 25 -36 45 16 19 19 19 42 -2z m86 -55
c-3 -7 -8 -13 -13 -13 -5 0 -10 6 -12 13 -3 6 3 12 12 12 9 0 15 -6 13 -12z
m-369 -17 c20 -10 48 -24 64 -31 29 -14 37 -47 13 -56 -17 -6 -116 21 -141 40
-17 12 -17 14 0 39 21 32 18 32 64 8z m-31 -113 c74 -22 95 -39 74 -60 -8 -8
-26 -6 -63 6 -29 10 -65 18 -81 18 -28 1 -34 12 -22 42 8 20 4 20 92 -6z m-13
-98 c6 -4 22 -10 38 -14 27 -6 36 -29 16 -42 -12 -7 -106 11 -151 30 -27 10
-35 26 -22 39 8 7 105 -3 119 -13z m-35 -93 c41 -12 75 -26 75 -32 0 -13 -195
-19 -207 -7 -5 5 -4 20 3 35 15 33 29 33 129 4z m-532 -171 c2 -44 -1 -82 -5
-86 -4 -4 -38 -5 -75 -2 l-68 4 0 77 c0 43 3 81 7 85 4 4 37 6 73 4 l65 -3 3
-79z m136 2 c4 -46 3 -85 -2 -90 -5 -5 -25 -8 -43 -6 l-34 3 -3 88 -3 87 39 0
39 0 7 -82z m134 -5 c3 -81 2 -83 -23 -89 -44 -11 -51 -1 -58 81 -4 42 -4 81
-1 87 3 5 22 8 42 6 l37 -3 3 -82z m94 75 c2 -7 2 -47 -1 -88 -5 -66 -8 -75
-26 -75 -18 0 -20 8 -23 74 -2 41 -1 80 2 88 7 17 42 17 48 1z m136 -75 l-3
-88 -40 0 -40 0 -3 88 -3 87 46 0 46 0 -3 -87z m72 39 c0 -26 -4 -52 -9 -58
-5 -5 -11 -22 -14 -39 -2 -16 -5 6 -6 51 0 44 2 84 6 87 16 16 23 4 23 -41z"/>
</g>
</svg>
