<?xml version="1.0" standalone="no"?>
<!DOCTYPE svg PUBLIC "-//W3C//DTD SVG 20010904//EN"
 "http://www.w3.org/TR/2001/REC-SVG-20010904/DTD/svg10.dtd">
<svg version="1.0" xmlns="http://www.w3.org/2000/svg"
 width="616.000000pt" height="590.000000pt" viewBox="0 0 616.000000 590.000000"
 preserveAspectRatio="xMidYMid meet">
<metadata>
Created by potrace 1.16, written by Peter Selinger 2001-2019
</metadata>
<g transform="translate(0.000000,590.000000) scale(0.500000,-0.500000)"
fill="#000000" stroke="none">
<path d="M899 1126 c-5 -3 -16 -9 -24 -13 -8 -4 -20 -12 -28 -18 -22 -18 -41
-16 -78 10 -36 25 -134 20 -159 -8 -16 -18 -21 -53 -10 -73 3 -5 7 -13 8 -17
1 -4 6 -11 10 -16 5 -5 10 -13 12 -17 2 -5 7 -9 11 -11 3 -2 14 -11 24 -21 10
-10 22 -19 28 -22 6 -3 15 -8 22 -12 6 -5 13 -8 14 -8 1 0 6 -4 10 -8 5 -5 14
-11 19 -14 12 -6 16 -24 9 -42 -2 -5 -3 -14 -3 -25 0 -9 -1 -20 -3 -25 -1 -5
-3 -13 -4 -18 -1 -6 -4 -14 -9 -22 -5 -7 -10 -17 -12 -21 -2 -4 -7 -12 -12
-18 -4 -5 -8 -11 -8 -12 0 0 -4 -9 -9 -20 -5 -10 -11 -23 -14 -30 -10 -21 -45
-60 -67 -72 -3 -2 -8 -7 -10 -10 -3 -6 -5 -7 -13 -7 -6 0 -15 -1 -21 -2 -6 -1
-18 -3 -26 -4 -8 -1 -21 -4 -29 -7 -12 -4 -18 -5 -35 -5 -12 0 -23 -1 -28 -3
-5 -2 -14 -3 -21 -3 -7 0 -20 -1 -28 -3 -20 -3 -208 -6 -213 -3 -2 1 -5 4 -6
6 -2 4 1 318 3 369 2 39 -19 51 -64 35 -13 -5 -19 -5 -32 -1 -8 3 -11 3 -17 1
-4 -1 -10 -1 -14 -1 -16 4 -16 13 -14 -184 0 -160 0 -177 -3 -184 -3 -7 -3
-20 -3 -119 0 -103 0 -112 -4 -123 -6 -21 -8 -267 -2 -272 12 -8 59 -3 62 7 3
10 -2 151 -5 160 -4 12 -4 28 1 34 5 7 83 8 89 1 6 -5 10 -17 8 -25 -2 -10 -5
-60 -5 -88 0 -21 -1 -28 -4 -36 -6 -15 -6 -48 0 -53 8 -5 62 -4 67 1 5 5 5 1
2 110 -2 87 -2 84 10 87 4 1 102 -1 224 -4 23 -1 37 0 42 1 7 2 30 5 58 7 11
0 11 -3 9 -69 -5 -142 -5 -138 27 -138 35 0 34 -5 31 91 -3 105 -3 102 2 107
3 5 5 5 31 6 16 1 32 3 36 4 53 14 49 22 47 -101 -3 -117 -7 -106 39 -106 42
0 38 -9 36 84 -3 184 -4 178 26 201 25 20 31 36 31 85 0 23 1 37 2 40 2 3 3
19 4 34 1 28 1 28 8 39 7 11 7 11 7 54 1 34 2 45 4 52 3 6 3 11 2 19 -1 5 -1
13 -1 16 0 3 1 27 2 53 1 26 1 47 2 47 22 26 66 28 87 6 8 -9 12 -11 20 -13 7
-1 12 -4 17 -9 18 -17 60 -9 83 16 7 7 14 12 19 13 13 4 14 7 14 43 0 37 0 38
-16 46 -5 3 -13 9 -17 14 -4 5 -13 12 -19 15 -7 4 -15 10 -19 15 -6 7 -10 10
-18 12 -9 3 -13 5 -19 13 -5 6 -11 11 -16 12 -13 5 -41 20 -43 23 -3 10 -1 24
6 33 13 16 13 79 -1 97 -16 22 -90 33 -119 17z m59 -47 c7 -4 19 -27 17 -34
-7 -29 -23 -38 -73 -39 -46 -2 -46 -2 -50 12 -6 20 36 58 64 58 4 0 10 2 14 3
9 4 21 4 28 0z m-212 -14 c8 -6 18 -12 21 -14 4 -2 9 -6 11 -11 2 -4 6 -10 10
-15 4 -5 6 -10 7 -18 1 -9 3 -13 7 -18 7 -8 8 -18 3 -26 -2 -2 -5 -7 -8 -10
-7 -11 -11 -12 -24 -6 -8 5 -14 6 -29 7 -23 1 -44 13 -44 25 0 1 -3 5 -7 9 -5
5 -7 9 -8 15 -1 5 -3 12 -6 15 -8 13 -9 15 -9 25 0 33 42 45 76 22z m215 -108
c6 -3 13 -8 16 -10 2 -2 10 -4 16 -5 13 -2 19 -6 30 -25 7 -11 12 -15 24 -16
9 -1 12 -3 23 -14 7 -7 16 -14 20 -16 18 -9 27 -22 20 -31 -2 -3 -4 -8 -5 -10
-3 -12 -9 -15 -32 -16 -27 -1 -29 0 -42 12 -5 5 -14 12 -19 15 -5 3 -13 9 -18
14 -26 25 -59 14 -62 -21 -4 -43 -42 -57 -73 -28 -6 5 -13 10 -17 11 -15 3
-18 17 -7 49 4 12 7 25 8 30 4 23 49 60 73 60 4 0 10 2 13 4 9 6 20 5 32 -3z
m-819 -75 c3 -6 2 -29 -1 -37 -2 -5 -4 -13 -4 -19 -2 -18 -19 -26 -27 -12 -15
29 0 67 28 72 1 0 3 -2 4 -4z m680 -105 c28 -17 37 -23 49 -27 9 -3 11 -9 11
-30 0 -29 -5 -35 -26 -25 -6 2 -14 5 -18 6 -8 1 -31 18 -41 29 -8 9 -6 41 4
51 5 6 7 5 21 -4z m-686 -8 c17 -9 13 -50 -6 -55 -22 -7 -42 22 -28 42 3 5 6
10 6 11 0 8 15 9 28 2z m675 -100 c34 -27 37 -29 49 -29 22 0 27 -7 23 -28 -6
-33 -26 -31 -63 6 -9 10 -25 24 -35 32 -27 22 -29 26 -21 37 8 10 14 8 47 -18z
m-682 9 c18 -7 21 -42 5 -60 -7 -10 -25 -4 -27 8 -1 5 -4 11 -7 15 -8 9 -8 19
0 28 8 9 19 13 29 9z m628 -54 c6 -5 17 -14 24 -22 8 -7 26 -23 41 -36 37 -29
43 -40 34 -58 -5 -9 -9 -12 -17 -12 -5 0 -50 40 -71 63 -2 2 -9 10 -17 18 -23
23 -27 39 -15 53 5 5 8 4 21 -6z m-621 -49 c9 -12 11 -21 6 -35 -2 -6 -4 -13
-4 -15 0 -29 -44 -10 -46 20 -1 29 28 50 44 30z m564 -16 c9 -4 15 -10 20 -19
3 -6 7 -9 13 -12 8 -4 10 -6 12 -13 3 -9 11 -14 27 -18 8 -2 20 -13 24 -22 4
-10 21 -20 40 -23 20 -4 24 -32 9 -66 -14 -30 -25 -23 -110 70 -20 21 -39 43
-43 47 -33 35 -34 37 -26 47 8 11 21 14 34 9z m-87 -32 c6 -1 8 -3 12 -9 2 -4
13 -16 23 -26 11 -11 30 -32 44 -46 14 -15 29 -31 33 -35 10 -11 19 -22 26
-36 6 -13 11 -18 22 -23 26 -14 25 -28 -2 -35 -15 -4 -17 -3 -29 8 -5 4 -12 9
-18 12 -5 3 -12 8 -15 12 -3 4 -9 10 -12 13 -14 13 -33 33 -35 38 -1 3 -3 9
-4 13 -2 7 -4 9 -12 14 -10 5 -22 17 -37 37 -5 7 -16 20 -22 29 -18 21 -17 32
2 34 14 1 16 1 24 0z m-88 -29 c4 -2 10 -9 14 -15 4 -5 13 -16 20 -23 7 -7 23
-26 37 -42 23 -27 30 -35 59 -70 6 -7 12 -16 14 -20 2 -4 8 -11 12 -17 12 -12
10 -16 -6 -14 -5 0 -16 2 -24 3 -20 2 -29 9 -70 56 -9 11 -40 43 -85 90 -27
28 -32 42 -20 53 7 6 38 5 49 -1z m-352 -7 c3 -4 15 -16 28 -29 12 -13 25 -27
29 -31 4 -4 11 -11 15 -15 20 -19 103 -108 103 -112 0 -9 -48 -13 -56 -5 -3 4
-16 22 -20 29 -2 4 -7 10 -12 13 -4 3 -10 10 -13 15 -4 7 -9 12 -17 18 -7 5
-12 9 -12 10 0 1 -6 8 -13 16 -7 8 -13 15 -13 16 0 1 -4 4 -8 7 -5 3 -14 14
-22 23 -8 10 -16 19 -18 20 -9 5 -9 19 0 24 14 7 23 7 29 1z m135 -6 c3 -3 6
-7 6 -8 0 -3 17 -25 36 -45 17 -19 46 -53 72 -85 23 -28 21 -51 -4 -51 -16 0
-21 5 -35 36 -4 10 -6 12 -15 17 -5 3 -11 7 -13 10 -1 2 -11 11 -20 19 -10 8
-20 17 -22 20 -3 3 -11 12 -19 20 -15 15 -22 28 -22 37 0 4 -2 8 -8 13 -12 11
-11 15 7 21 15 5 30 3 37 -4z m102 1 c3 -3 6 -7 6 -9 0 -4 24 -31 71 -78 19
-20 42 -44 51 -54 8 -10 19 -22 24 -27 18 -16 13 -23 -15 -22 -24 1 -43 12
-54 31 -3 7 -10 14 -18 21 -6 5 -17 16 -23 23 -6 8 -16 20 -23 27 -6 7 -14 18
-17 25 -3 7 -8 14 -12 16 -12 8 -36 37 -36 43 2 12 35 15 46 4z m-287 -51 c4
-5 15 -17 24 -26 9 -10 20 -22 23 -26 4 -5 19 -22 35 -38 36 -39 38 -45 12
-45 -14 0 -45 19 -45 28 0 4 -42 44 -53 51 -9 6 -11 8 -13 15 -1 5 -3 10 -4
12 -1 2 -4 6 -6 9 -16 24 8 41 27 20z m-11 -96 c5 -6 12 -13 17 -16 14 -12 9
-23 -11 -23 -19 0 -26 7 -26 28 0 22 6 26 20 11z"/>
</g>
</svg>
