<?xml version="1.0" standalone="no"?>
<!DOCTYPE svg PUBLIC "-//W3C//DTD SVG 20010904//EN"
 "http://www.w3.org/TR/2001/REC-SVG-20010904/DTD/svg10.dtd">
<svg version="1.0" xmlns="http://www.w3.org/2000/svg"
 width="154.000000pt" height="148.000000pt" viewBox="0 0 154.000000 148.000000"
 preserveAspectRatio="xMidYMid meet">
<metadata>
Created by potrace 1.16, written by Peter Selinger 2001-2019
</metadata>
<g transform="translate(0.000000,148.000000) scale(0.100000,-0.100000)"
fill="#000000" stroke="none">
<path d="M1082 1384 c-28 -19 -57 -34 -64 -34 -7 0 -30 11 -50 25 -29 20 -49
25 -98 25 -79 0 -117 -19 -125 -64 -12 -63 37 -130 148 -202 l69 -45 -7 -62
c-5 -45 -20 -86 -54 -151 -82 -157 -109 -179 -252 -200 -57 -8 -173 -18 -256
-20 l-153 -5 -2 262 c-3 256 -3 262 -23 259 -11 -1 -47 -4 -80 -5 l-60 -2 -6
-265 c-3 -146 -10 -394 -14 -552 l-8 -288 43 0 43 0 -5 130 -5 131 61 -3 c70
-3 65 11 53 -159 l-6 -97 37 -5 c20 -2 40 -2 45 0 4 2 7 60 7 129 0 122 2 130
32 125 14 -2 353 0 378 2 l24 2 1 -130 c0 -129 0 -130 24 -133 13 -2 28 1 33
6 6 6 10 62 9 131 -2 118 -1 120 21 125 13 3 30 4 38 4 8 0 32 3 53 7 28 5 37
4 38 -6 0 -8 1 -70 2 -138 l2 -124 40 0 40 0 5 165 5 165 31 35 c29 33 32 43
38 134 4 54 11 103 16 109 7 9 18 158 19 267 1 31 6 40 29 51 31 16 51 11 106
-23 51 -31 77 -30 126 6 34 25 40 34 40 69 0 34 -5 44 -38 70 -76 61 -118 91
-146 103 -24 11 -27 16 -21 40 4 15 9 50 12 77 6 64 -11 80 -88 88 -52 5 -61
3 -107 -29z m120 -41 c24 -22 23 -39 -7 -68 -20 -20 -34 -25 -78 -25 -68 0
-81 19 -41 61 22 23 46 34 103 48 3 1 13 -6 23 -16z m-265 -14 c32 -20 73 -83
73 -111 0 -7 -7 -21 -14 -30 -13 -18 -22 -17 -101 12 -21 8 -65 81 -65 109 0
44 52 54 107 20z m284 -140 c22 -12 46 -30 52 -40 7 -11 19 -19 27 -19 8 -1
33 -16 54 -35 37 -31 39 -35 28 -59 -17 -39 -63 -35 -116 9 -26 21 -54 35 -70
35 -27 0 -30 -3 -40 -52 -10 -44 -39 -53 -86 -26 -44 25 -48 40 -26 103 15 42
72 99 93 91 7 -3 15 -1 18 4 9 14 20 12 66 -11z m-1045 -126 c-11 -79 -46 -86
-46 -9 0 48 5 56 33 56 18 0 19 -5 13 -47z m924 -171 c0 -34 -1 -34 -32 -28
-30 6 -88 50 -88 67 0 4 4 19 10 33 l9 26 51 -32 c44 -28 50 -35 50 -66z
m-925 38 c0 -28 -4 -36 -21 -38 -11 -2 -27 4 -34 13 -19 22 6 67 34 63 17 -2
21 -10 21 -38z m839 -95 c26 -19 55 -35 65 -35 11 0 22 -4 25 -9 9 -15 -12
-61 -28 -61 -22 0 -135 110 -129 126 8 21 16 18 67 -21z m-838 -12 c7 -28 -6
-58 -25 -58 -7 0 -20 12 -28 27 -14 22 -14 29 -4 42 21 25 50 20 57 -11z m872
-135 c36 -30 38 -36 17 -64 -14 -18 -18 -16 -90 58 -69 69 -75 79 -65 98 11
21 13 20 59 -22 26 -24 62 -55 79 -70z m-875 20 c13 -20 1 -64 -19 -72 -39
-15 -63 62 -26 83 21 13 32 10 45 -11z m739 -47 c19 -21 45 -42 57 -46 11 -3
21 -12 21 -20 0 -7 16 -19 36 -25 34 -12 35 -13 32 -58 -4 -67 -30 -68 -88 -5
-24 26 -68 74 -98 105 -36 37 -53 62 -49 72 11 28 51 18 89 -23z m-71 -83 c42
-46 83 -95 93 -109 9 -15 26 -29 37 -32 30 -8 21 -41 -12 -45 -20 -2 -40 10
-83 48 -31 29 -56 58 -56 65 0 8 -8 20 -18 27 -32 23 -94 107 -87 118 17 28
53 7 126 -72z m-88 -72 c59 -68 107 -129 107 -134 0 -7 -15 -9 -37 -5 -26 4
-48 17 -72 42 -18 20 -56 61 -85 91 -80 86 -89 98 -83 115 4 8 18 15 35 15 24
0 45 -19 135 -124z m-436 -1 c59 -63 108 -121 108 -128 0 -6 -12 -13 -26 -15
-20 -2 -33 5 -54 30 -15 18 -52 60 -83 93 -30 33 -64 70 -75 82 -21 23 -17 53
7 53 8 0 63 -52 123 -115z m143 5 c49 -58 90 -110 90 -116 0 -17 -28 -37 -43
-31 -7 2 -19 17 -27 32 -8 16 -41 53 -74 84 -54 52 -86 96 -86 120 0 9 27 20
42 17 4 0 48 -48 98 -106z m52 101 c3 -1 8 -7 10 -15 2 -8 46 -59 99 -113 52
-54 94 -104 91 -111 -2 -7 -15 -12 -29 -12 -19 0 -44 19 -95 72 -37 39 -68 75
-68 80 0 5 -16 24 -36 42 -41 38 -42 69 -2 62 13 -3 26 -5 30 -5z m-296 -138
c45 -49 80 -91 77 -95 -2 -5 -15 -8 -27 -8 -28 0 -156 130 -156 159 0 17 8 31
19 31 3 0 42 -39 87 -87z m-46 -91 c0 -9 -10 -12 -27 -10 -29 3 -40 25 -29 55
5 12 10 11 31 -9 14 -12 25 -29 25 -36z"/>
</g>
</svg>
