<?xml version="1.0" standalone="no"?>
<!DOCTYPE svg PUBLIC "-//W3C//DTD SVG 20010904//EN"
 "http://www.w3.org/TR/2001/REC-SVG-20010904/DTD/svg10.dtd">
<svg version="1.0" xmlns="http://www.w3.org/2000/svg"
 width="100.000000pt" height="96.000000pt" viewBox="0 0 100.000000 96.000000"
 preserveAspectRatio="xMidYMid meet">
<metadata>
Created by potrace 1.16, written by Peter Selinger 2001-2019
</metadata>
<g transform="translate(0.000000,96.000000) scale(0.100000,-0.100000)"
fill="#000000" stroke="none">
<path d="M698 903 c-23 -15 -33 -15 -61 -5 -48 17 -122 15 -141 -4 -37 -37 -3
-108 74 -156 60 -37 63 -56 21 -145 -39 -81 -68 -119 -100 -132 -38 -15 -171
-31 -256 -31 l-75 0 -2 168 -3 167 -50 -3 c-27 -2 -53 -6 -56 -10 -4 -4 -8
-167 -10 -362 l-4 -355 25 0 c25 0 25 1 25 85 l0 85 35 0 35 0 0 -85 c0 -73 2
-85 18 -88 37 -7 46 14 40 94 l-6 74 142 0 141 0 -2 -82 c-3 -83 -3 -83 22
-83 24 0 25 2 28 82 l3 82 35 7 c20 4 39 3 44 -2 5 -5 10 -45 12 -89 3 -78 4
-80 28 -80 25 0 25 0 28 104 2 91 6 107 25 131 23 26 29 71 50 324 3 45 25 52
81 27 l47 -22 35 21 c61 39 34 103 -66 155 -28 15 -30 19 -30 74 0 44 -4 60
-16 65 -29 11 -89 6 -116 -11z m-79 -59 c40 -33 43 -74 6 -74 -14 0 -37 11
-50 25 -31 30 -34 75 -6 75 11 0 33 -12 50 -26z m174 -80 c56 -29 106 -74 100
-89 -7 -21 -32 -19 -68 5 -40 27 -63 25 -77 -5 -9 -20 -18 -25 -37 -23 -47 5
-38 92 13 116 29 15 33 14 69 -4z m-182 -349 c23 -20 50 -40 60 -46 24 -12 25
-47 2 -56 -12 -5 -33 11 -75 56 -52 55 -64 81 -38 81 4 0 27 -16 51 -35z m-95
-13 c12 -9 45 -43 74 -76 38 -43 49 -61 39 -67 -20 -12 -44 6 -99 74 -61 75
-69 114 -14 69z m-312 -72 c61 -65 75 -96 41 -88 -19 4 -136 139 -129 149 10
17 22 9 88 -61z m285 -1 c58 -69 66 -89 36 -89 -15 0 -135 132 -135 149 0 6 9
11 20 11 11 0 42 -28 79 -71z m-213 29 c64 -69 91 -118 65 -118 -16 0 -121
115 -121 133 0 26 23 20 56 -15z m112 -32 c62 -65 74 -86 48 -86 -17 0 -126
119 -126 138 0 23 17 12 78 -52z"/>
</g>
</svg>
