<?xml version="1.0" standalone="no"?>
<!DOCTYPE svg PUBLIC "-//W3C//DTD SVG 20010904//EN"
 "http://www.w3.org/TR/2001/REC-SVG-20010904/DTD/svg10.dtd">
<svg version="1.0" xmlns="http://www.w3.org/2000/svg"
 width="156.000000pt" height="148.000000pt" viewBox="0 0 156.000000 148.000000"
 preserveAspectRatio="xMidYMid meet">
<metadata>
Created by potrace 1.16, written by Peter Selinger 2001-2019
</metadata>
<g transform="translate(0.000000,148.000000) scale(0.100000,-0.100000)"
fill="#000000" stroke="none">
<path d="M625 1400 c-49 -14 -236 -33 -290 -31 -27 1 -83 -1 -123 -4 -85 -8
-98 -21 -105 -98 -2 -26 -7 -50 -11 -54 -3 -3 -6 -14 -6 -23 0 -36 29 -45 159
-50 l126 -5 -3 -55 c-2 -30 -4 -177 -5 -327 -2 -271 -2 -271 22 -303 23 -32
23 -38 22 -201 l-2 -169 36 0 36 0 -1 168 c-1 92 -1 173 -1 180 1 15 177 17
183 2 2 -5 1 -81 -2 -167 -3 -87 -4 -164 -2 -171 3 -8 17 -12 36 -10 l31 3 0
175 0 175 145 1 c80 0 184 4 233 8 48 4 87 3 87 -1 0 -4 3 -77 6 -161 3 -109
1 -158 -7 -168 -15 -19 -4 -44 20 -44 50 0 51 2 51 170 0 87 3 172 6 189 l7
32 69 -3 70 -3 2 -200 c1 -197 1 -200 23 -203 13 -2 25 4 31 15 5 10 6 94 2
198 -5 143 -4 182 7 188 13 8 18 49 7 59 -3 3 -5 193 -4 422 0 330 -2 417 -12
421 -55 18 -53 23 -52 -145 1 -85 3 -224 5 -307 3 -146 2 -153 -18 -173 -21
-19 -34 -20 -413 -20 l-390 0 0 255 0 255 35 38 c39 43 55 80 55 123 0 31 -9
34 -65 19z m-75 -123 c0 -52 0 -52 -39 -64 -27 -9 -49 -9 -75 -2 -39 11 -44
20 -21 39 9 7 13 21 9 34 -7 28 23 44 84 45 l42 1 0 -53z m-198 37 c17 -5 19
-11 13 -38 -4 -17 -8 -42 -9 -56 l-1 -25 -95 4 c-52 2 -97 5 -99 7 -2 2 0 23
5 46 9 40 11 42 59 53 66 14 103 17 127 9z m198 -178 c0 -29 -4 -36 -31 -45
-18 -6 -45 -11 -60 -11 -27 0 -29 3 -29 39 0 40 0 40 43 44 23 2 50 4 60 5 13
2 17 -6 17 -32z m0 -140 c0 -25 -3 -47 -7 -49 -5 -3 -33 -8 -65 -11 -52 -7
-57 -6 -63 15 -12 35 24 73 76 80 24 3 47 7 52 7 4 1 7 -18 7 -42z m0 -141 c0
-30 -4 -33 -42 -44 -24 -6 -54 -12 -68 -14 -23 -2 -25 1 -25 38 l0 40 47 5
c26 3 50 9 54 12 14 15 34 -6 34 -37z m-2 -122 c-3 -27 -6 -28 -62 -31 -60 -3
-80 7 -69 34 4 12 33 18 106 22 25 2 28 -1 25 -25z m7 -83 c11 -19 -16 -40
-51 -40 -18 0 -45 -5 -59 -12 -36 -16 -53 1 -37 37 11 23 17 25 76 25 36 0 68
-5 71 -10z m127 -60 c-2 -43 -9 -69 -19 -77 -17 -13 -42 -7 -60 15 -14 17 -18
114 -6 126 4 4 25 6 48 4 l40 -3 -3 -65z m133 58 c2 -7 6 -41 8 -75 l5 -63
-55 0 -55 0 4 59 c2 33 10 66 17 75 16 19 70 21 76 4z m149 -50 c-8 -89 -8
-90 -51 -86 l-38 3 -3 59 c-4 80 -1 86 53 86 l45 0 -6 -62z m128 50 c2 -7 3
-40 3 -73 l0 -60 -45 0 c-49 0 -47 -6 -34 80 8 61 11 65 43 65 16 0 31 -6 33
-12z m121 -63 l-1 -70 -36 -3 -36 -3 0 69 c0 38 3 72 7 76 4 4 21 6 38 4 l30
-3 -2 -70z m140 68 c4 -3 3 -11 -2 -17 -6 -7 -11 -36 -13 -66 l-3 -55 -35 0
-35 0 2 59 c1 33 4 65 7 73 5 13 67 18 79 6z m62 -94 c0 -33 -4 -45 -17 -47
-15 -3 -17 16 -9 91 1 5 7 7 14 5 7 -3 12 -22 12 -49z m-859 -4 c12 -30 -16
-46 -74 -43 -31 2 -57 8 -59 15 -4 11 36 28 87 36 14 2 29 5 33 6 4 0 10 -6
13 -14z"/>
</g>
</svg>
