<?xml version="1.0" standalone="no"?>
<!DOCTYPE svg PUBLIC "-//W3C//DTD SVG 20010904//EN"
 "http://www.w3.org/TR/2001/REC-SVG-20010904/DTD/svg10.dtd">
<svg version="1.0" xmlns="http://www.w3.org/2000/svg"
 width="100.000000pt" height="95.000000pt" viewBox="0 0 100.000000 95.000000"
 preserveAspectRatio="xMidYMid meet">
<metadata>
Created by potrace 1.16, written by Peter Selinger 2001-2019
</metadata>
<g transform="translate(0.000000,95.000000) scale(0.100000,-0.100000)"
fill="#000000" stroke="none">
<path d="M409 906 c-2 -3 -70 -9 -151 -14 -80 -6 -155 -15 -166 -21 -14 -7
-23 -25 -27 -55 -12 -79 -10 -80 85 -86 l85 -5 -4 -202 c-3 -175 -1 -206 13
-227 12 -20 16 -50 16 -136 0 -91 3 -112 16 -117 31 -11 39 15 39 125 l0 107
52 3 52 3 3 -118 c3 -110 4 -118 23 -118 19 0 20 8 23 118 l3 117 145 0 146 0
-3 -117 -4 -118 25 0 25 0 3 117 c2 105 5 119 22 128 11 6 31 8 45 4 l25 -6 0
-124 c0 -104 3 -126 16 -131 8 -3 19 -2 24 3 10 10 21 719 12 797 -4 42 -7 47
-30 47 l-25 0 6 -199 c5 -160 4 -201 -7 -210 -9 -8 -90 -11 -257 -9 l-244 3
-3 154 -3 153 31 46 c32 49 36 85 10 90 -9 1 -18 1 -21 -2z m-61 -88 c-3 -30
-6 -33 -38 -33 -24 0 -36 5 -38 16 -4 23 25 49 54 49 22 0 25 -4 22 -32z
m-123 11 c4 -5 4 -21 1 -35 -6 -23 -10 -25 -59 -22 -45 3 -52 6 -55 26 -2 16
3 25 20 31 32 13 85 13 93 0z m301 -443 c7 -43 0 -56 -32 -56 -21 0 -24 4 -24
39 0 37 8 48 37 50 7 1 15 -14 19 -33z"/>
</g>
</svg>
