<?xml version="1.0" standalone="no"?>
<!DOCTYPE svg PUBLIC "-//W3C//DTD SVG 20010904//EN"
 "http://www.w3.org/TR/2001/REC-SVG-20010904/DTD/svg10.dtd">
<svg version="1.0" xmlns="http://www.w3.org/2000/svg"
 width="134.000000pt" height="148.000000pt" viewBox="0 0 134.000000 148.000000"
 preserveAspectRatio="xMidYMid meet">
<metadata>
Created by potrace 1.16, written by Peter Selinger 2001-2019
</metadata>
<g transform="translate(0.000000,148.000000) scale(0.100000,-0.100000)"
fill="#000000" stroke="none">
<path d="M710 1364 c0 -9 15 -34 34 -57 53 -66 54 -71 44 -207 -4 -69 -8 -164
-7 -212 1 -136 13 -129 -214 -126 l-191 3 -38 54 c-58 83 -54 119 22 215 61
77 73 112 44 123 -22 8 -44 -6 -72 -48 -28 -41 -37 -37 -33 14 2 26 -2 39 -13
43 -29 11 -44 -13 -39 -64 l4 -47 -49 54 c-54 58 -85 65 -90 21 -2 -19 13 -41
64 -94 59 -61 65 -72 60 -99 -3 -16 -12 -35 -20 -41 -7 -6 -36 -39 -65 -74
l-51 -63 -1 -202 c-1 -111 -2 -267 -3 -347 l-1 -145 30 0 30 0 1 195 2 195 88
0 88 0 -3 -191 c-3 -205 -1 -211 46 -199 l26 6 -4 192 -4 192 185 0 185 0 -5
-65 c-3 -36 -5 -123 -5 -195 l0 -130 30 0 30 0 5 190 5 190 93 0 c57 1 92 -3
93 -10 0 -5 1 -93 2 -195 l2 -185 30 0 30 0 -3 345 c-2 190 -5 398 -8 463 l-5
119 108 -4 108 -3 2 87 c2 96 -1 102 -62 117 -119 29 -301 82 -345 99 -14 5
-45 30 -70 56 -45 47 -90 62 -90 30z m231 -175 l70 -21 -3 -67 -3 -66 -60 -3
c-88 -5 -105 2 -105 40 0 33 22 138 28 138 2 0 35 -9 73 -21z m214 -61 l66
-21 -3 -36 -3 -36 -74 -3 c-41 -2 -77 1 -80 7 -3 5 -4 32 -3 60 4 59 5 60 97
29z m-150 -193 l0 -40 -85 0 c-80 0 -85 1 -88 22 -2 12 2 31 8 43 10 19 19 21
88 18 l77 -3 0 -40z m0 -135 l0 -35 -87 -3 -88 -3 0 34 c0 18 3 37 7 41 4 4
43 5 88 4 l80 -3 0 -35z m-726 -4 c17 -35 7 -43 -48 -36 l-44 5 28 33 c31 37
44 37 64 -2z m56 -186 l0 -95 -87 -3 -87 -3 -3 88 c-2 48 -2 94 1 101 2 9 26
12 90 10 l86 -3 0 -95z m159 33 c3 -38 7 -81 8 -98 l3 -30 -55 0 -55 0 -3 84
c-2 46 -1 90 2 98 3 8 22 13 50 13 l44 0 6 -67z m144 58 c12 -7 17 -78 13
-178 -1 -9 -17 -13 -45 -13 l-43 0 -7 90 c-4 50 -4 95 -1 100 8 12 65 13 83 1z
m360 -4 c12 -13 19 -183 9 -193 -3 -4 -47 -3 -97 1 l-91 7 3 92 3 91 35 6 c63
11 127 9 138 -4z m-233 -92 l0 -90 -27 -3 -28 -3 0 96 0 96 28 -3 27 -3 0 -90z"/>
</g>
</svg>
