<?xml version="1.0" standalone="no"?>
<!DOCTYPE svg PUBLIC "-//W3C//DTD SVG 20010904//EN"
 "http://www.w3.org/TR/2001/REC-SVG-20010904/DTD/svg10.dtd">
<svg version="1.0" xmlns="http://www.w3.org/2000/svg"
 width="534.000000pt" height="590.000000pt" viewBox="0 0 534.000000 590.000000"
 preserveAspectRatio="xMidYMid meet">
<metadata>
Created by potrace 1.16, written by Peter Selinger 2001-2019
</metadata>
<g transform="translate(0.000000,590.000000) scale(0.500000,-0.500000)"
fill="#000000" stroke="none">
<path d="M582 1105 c-6 -3 -12 -12 -12 -19 0 -7 4 -13 31 -50 38 -53 44 -67
33 -90 -4 -9 -4 -13 -4 -79 0 -65 0 -70 -4 -77 -4 -7 -4 -12 -4 -78 0 -74 -4
-99 -17 -100 -23 -2 -295 1 -299 3 -6 3 -20 18 -20 22 0 1 -3 5 -6 9 -3 4 -9
13 -13 21 -3 8 -10 19 -15 24 -17 21 -12 69 12 99 4 6 8 11 8 12 0 1 6 9 14
17 8 8 14 16 14 17 0 1 3 6 8 11 24 29 32 45 29 62 -5 30 -52 20 -69 -14 -12
-22 -22 -31 -22 -18 0 3 0 15 -1 26 0 29 -10 38 -35 31 -12 -3 -13 -6 -14 -43
-1 -35 -2 -38 -11 -25 -10 16 -47 53 -55 57 -47 19 -61 -25 -20 -62 8 -8 19
-19 24 -26 5 -7 18 -20 28 -30 35 -32 38 -60 8 -90 -8 -7 -16 -17 -18 -21 -2
-4 -9 -12 -15 -18 -6 -6 -15 -16 -19 -22 -3 -6 -11 -15 -16 -20 -21 -21 -20
-9 -21 -191 0 -142 -1 -161 -4 -168 -4 -9 -4 -15 0 -24 3 -7 3 -19 3 -98 -1
-105 -2 -101 21 -103 31 -2 30 -11 28 163 -2 177 -12 153 69 153 81 0 72 12
70 -92 -3 -163 -3 -209 1 -214 9 -14 40 -13 49 0 3 6 3 62 0 212 -2 83 -2 90
5 93 11 4 282 2 285 -3 6 -7 4 -85 -2 -101 -4 -9 -7 -98 -7 -184 0 -19 7 -26
26 -27 30 -1 31 0 29 97 -1 72 0 77 3 83 4 6 4 12 4 65 0 58 0 58 6 61 8 4
134 1 139 -4 5 -4 5 -41 3 -212 -2 -99 -3 -96 27 -96 18 0 25 4 27 15 1 4 -4
473 -5 508 0 3 0 11 1 18 1 11 1 13 -4 22 -8 14 -11 163 -3 171 7 7 109 5 126
-2 13 -5 32 -5 38 1 4 4 6 138 2 148 -3 7 -1 6 -56 21 -8 3 -19 6 -24 8 -5 2
-14 4 -20 5 -6 1 -13 2 -16 4 -6 3 -38 12 -49 14 -9 1 -24 6 -40 11 -24 8 -43
14 -50 15 -9 1 -72 21 -80 26 -4 1 -21 19 -40 38 -39 41 -47 46 -61 38z m131
-145 c6 -2 15 -4 18 -4 4 0 11 -2 17 -4 5 -2 13 -5 17 -6 7 -1 19 -5 32 -10 8
-3 11 -98 4 -105 -5 -5 -115 -5 -120 0 -8 8 -7 71 1 84 4 6 5 11 6 26 1 25 3
27 25 19z m193 -53 c9 -3 21 -7 26 -9 5 -2 14 -5 20 -7 20 -6 21 -7 22 -32 1
-32 5 -30 -63 -31 -70 0 -63 -5 -63 45 0 53 -3 52 58 34z m-114 -125 c12 -2
19 -52 9 -63 -7 -7 -124 -7 -130 -1 -8 8 -1 50 9 61 2 2 17 2 91 4 7 1 16 0
21 -1z m9 -116 c5 -7 5 -44 -1 -50 -5 -7 -126 -8 -131 -1 -8 11 -3 52 7 55 14
4 120 1 125 -4z m-592 -8 c2 -2 8 -11 12 -19 4 -8 9 -16 9 -16 12 -8 0 -13
-29 -13 -47 0 -49 4 -18 36 17 17 18 18 26 12z m57 -96 c4 -4 4 -9 4 -73 0
-90 9 -80 -73 -78 -71 1 -68 1 -66 17 1 6 0 13 -1 16 -4 11 -3 114 1 118 7 7
129 8 135 0z m125 0 c4 -4 4 -9 5 -47 1 -38 1 -43 5 -51 9 -17 6 -50 -4 -53
-13 -3 -70 -1 -76 3 -7 6 -8 141 -1 148 6 6 65 6 71 0z m118 0 c14 -6 14 -7
15 -62 1 -93 2 -89 -37 -89 -38 0 -36 -3 -37 43 -1 25 -2 39 -5 48 -15 53 16
82 64 60z m290 1 c2 -1 4 -7 5 -14 1 -7 3 -16 5 -20 3 -9 4 -109 1 -118 -4
-10 -57 -13 -78 -5 -8 3 -15 4 -37 4 -40 0 -37 -6 -37 75 0 79 -2 73 28 75 12
1 23 2 25 4 6 3 83 3 88 -1z m-194 -5 c8 -3 12 -135 4 -144 -7 -8 -34 -5 -39
3 -3 6 -3 130 0 135 4 7 23 11 35 6z"/>
</g>
</svg>
