<?xml version="1.0" standalone="no"?>
<!DOCTYPE svg PUBLIC "-//W3C//DTD SVG 20010904//EN"
 "http://www.w3.org/TR/2001/REC-SVG-20010904/DTD/svg10.dtd">
<svg version="1.0" xmlns="http://www.w3.org/2000/svg"
 width="91.000000pt" height="100.000000pt" viewBox="0 0 91.000000 100.000000"
 preserveAspectRatio="xMidYMid meet">
<metadata>
Created by potrace 1.16, written by Peter Selinger 2001-2019
</metadata>
<g transform="translate(0.000000,100.000000) scale(0.100000,-0.100000)"
fill="#000000" stroke="none">
<path d="M487 933 c-13 -12 -7 -30 22 -67 26 -32 29 -44 26 -84 -3 -26 -7 -95
-11 -154 l-6 -108 -128 0 -128 0 -26 31 c-39 45 -35 86 14 147 22 27 40 57 40
65 0 24 -27 27 -54 6 -24 -19 -25 -19 -31 1 -9 27 -24 25 -35 -6 l-10 -26 -31
26 c-35 30 -42 31 -59 11 -10 -12 -3 -24 39 -68 28 -30 51 -59 51 -65 0 -6
-21 -37 -48 -69 l-47 -58 -3 -231 c-3 -197 -1 -232 12 -243 30 -25 36 -2 36
130 l0 129 55 0 54 0 3 -127 c3 -116 5 -128 22 -131 31 -6 36 17 29 139 l-6
116 102 6 c124 9 155 3 148 -27 -3 -11 -9 -64 -12 -117 -6 -83 -5 -98 10 -113
13 -13 20 -14 31 -5 10 8 14 39 14 118 0 130 7 144 70 139 l45 -3 2 -110 c2
-60 5 -120 8 -132 8 -33 41 -30 48 5 3 15 2 153 -3 307 -4 154 -6 284 -3 288
3 4 35 7 71 5 l67 -3 3 66 3 66 -138 38 c-119 34 -143 44 -179 77 -41 38 -55
44 -67 31z m166 -139 c26 -6 28 -10 25 -48 l-3 -41 -45 0 c-42 0 -45 2 -48 29
-6 46 6 78 26 72 9 -3 30 -8 45 -12z m156 -48 c26 -26 6 -47 -41 -44 -44 3
-57 20 -44 55 7 18 62 11 85 -11z m-131 -113 c2 -16 -3 -23 -26 -28 -41 -9
-82 3 -82 24 0 27 11 32 60 29 37 -3 46 -7 48 -25z m2 -93 c0 -16 -7 -20 -32
-21 -47 -2 -72 2 -82 11 -18 17 7 30 60 30 47 0 54 -2 54 -20z m-462 -128 l3
-63 -53 3 -53 3 -3 49 c-5 71 0 78 55 74 l48 -3 3 -63z m114 13 c10 -64 5 -75
-32 -75 -30 0 -30 0 -30 58 0 65 5 74 34 70 17 -2 22 -13 28 -53z m96 47 c13
-9 19 -92 8 -111 -11 -16 -43 -13 -50 5 -8 21 -8 99 1 107 9 9 25 9 41 -1z
m252 -62 c0 -70 -7 -76 -72 -63 -42 8 -43 9 -46 52 -5 66 0 71 63 71 l55 0 0
-60z"/>
</g>
</svg>
