<?xml version="1.0" standalone="no"?>
<!DOCTYPE svg PUBLIC "-//W3C//DTD SVG 20010904//EN"
 "http://www.w3.org/TR/2001/REC-SVG-20010904/DTD/svg10.dtd">
<svg version="1.0" xmlns="http://www.w3.org/2000/svg"
 width="84.000000pt" height="100.000000pt" viewBox="0 0 84.000000 100.000000"
 preserveAspectRatio="xMidYMid meet">
<metadata>
Created by potrace 1.16, written by Peter Selinger 2001-2019
</metadata>
<g transform="translate(0.000000,100.000000) scale(0.100000,-0.100000)"
fill="#000000" stroke="none">
<path d="M484 967 c-2 -7 -3 -69 -2 -137 l3 -124 33 -8 c17 -4 47 -12 65 -16
27 -7 32 -12 32 -37 l0 -30 -215 -3 c-118 -2 -230 0 -247 3 l-33 6 0 109 c0
106 1 111 31 154 17 24 28 49 25 55 -11 18 -45 13 -58 -9 -7 -11 -17 -20 -23
-20 -6 0 -16 9 -23 20 -16 26 -42 26 -42 0 0 -12 9 -38 20 -60 19 -37 20 -59
20 -395 0 -336 -1 -358 -20 -395 -11 -22 -20 -46 -20 -55 0 -22 33 -18 48 6
l13 21 23 -21 c25 -23 56 -28 56 -8 0 7 -11 29 -25 50 -25 36 -25 41 -23 174
l3 138 63 3 62 3 0 -139 c0 -101 -4 -149 -15 -175 -27 -65 -10 -91 31 -46 l19
21 22 -28 c18 -24 24 -26 37 -14 15 11 14 17 -8 54 -22 37 -24 55 -28 181 l-3
140 75 0 75 0 3 -137 c2 -123 0 -142 -18 -178 -11 -22 -18 -45 -15 -50 10 -17
33 -11 50 13 l16 22 19 -22 c16 -21 50 -32 50 -17 0 3 -11 29 -25 59 -24 50
-25 62 -23 182 l3 128 47 3 c59 4 60 0 56 -169 -3 -92 -8 -134 -21 -162 -16
-35 -16 -38 0 -44 11 -4 21 1 31 16 l15 22 28 -27 c49 -47 66 -9 24 54 l-25
38 2 279 3 279 65 16 65 15 3 131 c2 102 0 133 -11 137 -7 2 -46 -2 -86 -9
-63 -12 -82 -12 -138 1 -78 18 -82 18 -89 2z m126 -62 c5 -3 10 -19 10 -36 0
-33 -13 -36 -65 -15 -27 11 -35 21 -35 40 0 13 6 26 13 29 12 4 58 -6 77 -18z
m160 -4 c0 -24 -12 -39 -43 -50 -48 -18 -57 -14 -57 24 0 30 4 35 28 41 15 3
32 7 37 8 18 5 35 -6 35 -23z m-176 -101 c21 -8 26 -16 26 -45 0 -40 -11 -43
-65 -21 -29 13 -35 20 -35 45 0 26 4 31 24 31 14 0 36 -4 50 -10z m171 -1 c4
-5 4 -21 1 -34 -5 -18 -17 -27 -47 -35 -49 -13 -65 -4 -55 35 9 36 84 62 101
34z m-510 -269 c4 -16 4 -43 0 -60 -6 -30 -8 -30 -71 -30 l-64 0 0 60 0 60 64
0 c63 0 65 0 71 -30z m203 -32 l3 -58 -81 0 -80 0 0 53 c0 30 3 57 7 61 4 4
39 5 78 4 l70 -3 3 -57z m157 2 l0 -55 -52 -3 -53 -3 0 54 c0 29 3 57 7 61 4
4 28 6 53 4 l45 -3 0 -55z"/>
</g>
</svg>
