<?xml version="1.0" standalone="no"?>
<!DOCTYPE svg PUBLIC "-//W3C//DTD SVG 20010904//EN"
 "http://www.w3.org/TR/2001/REC-SVG-20010904/DTD/svg10.dtd">
<svg version="1.0" xmlns="http://www.w3.org/2000/svg"
 width="72.000000pt" height="148.000000pt" viewBox="0 0 72.000000 148.000000"
 preserveAspectRatio="xMidYMid meet">
<metadata>
Created by potrace 1.16, written by Peter Selinger 2001-2019
</metadata>
<g transform="translate(0.000000,148.000000) scale(0.100000,-0.100000)"
fill="#000000" stroke="none">
<path d="M332 1419 c-22 -8 -23 -13 -18 -76 3 -38 8 -185 11 -328 4 -143 7
-269 8 -280 1 -13 -5 -21 -19 -23 -35 -5 -124 143 -146 243 -15 68 -37 247
-37 310 -1 33 -6 77 -12 98 -8 30 -15 37 -35 37 -16 0 -27 -7 -33 -22 -5 -13
-7 -26 -5 -29 4 -7 27 -253 28 -309 1 -25 7 -61 14 -80 6 -19 19 -60 28 -90 9
-30 39 -85 65 -122 27 -37 46 -69 41 -69 -4 -1 -44 -1 -88 1 -86 2 -100 -4
-89 -41 7 -20 11 -21 117 -14 118 8 119 8 78 -40 -46 -53 -70 -115 -70 -180 0
-66 14 -141 34 -184 18 -39 141 -159 170 -167 19 -4 33 -1 46 11 28 26 96 128
119 180 23 51 28 140 12 191 -5 16 -12 41 -15 56 -3 14 -24 49 -46 77 -22 28
-40 53 -40 56 0 4 47 3 104 -1 98 -6 104 -5 110 13 4 11 3 28 0 38 -6 15 -16
16 -85 10 -87 -8 -93 -3 -55 42 63 76 108 202 106 300 -1 24 5 53 11 65 7 13
14 80 16 160 4 122 3 139 -12 144 -39 15 -62 -48 -69 -191 -8 -155 -27 -274
-53 -332 -35 -80 -93 -163 -113 -163 -15 0 -16 32 -18 343 -1 188 -2 345 -2
349 0 15 -36 25 -58 17z m60 -811 c110 -90 129 -301 38 -426 -41 -57 -67 -56
-124 4 -50 52 -66 99 -66 194 0 77 41 174 91 213 39 31 40 31 61 15z"/>
</g>
</svg>
