<?xml version="1.0" standalone="no"?>
<!DOCTYPE svg PUBLIC "-//W3C//DTD SVG 20010904//EN"
 "http://www.w3.org/TR/2001/REC-SVG-20010904/DTD/svg10.dtd">
<svg version="1.0" xmlns="http://www.w3.org/2000/svg"
 width="290.000000pt" height="590.000000pt" viewBox="0 0 290.000000 590.000000"
 preserveAspectRatio="xMidYMid meet">
<metadata>
Created by potrace 1.16, written by Peter Selinger 2001-2019
</metadata>
<g transform="translate(0.000000,590.000000) scale(0.500000,-0.500000)"
fill="#000000" stroke="none">
<path d="M269 1138 c-14 -6 -21 -28 -15 -44 2 -5 3 -44 4 -156 1 -126 2 -150
5 -158 5 -15 7 -199 2 -204 -10 -11 -25 -3 -43 24 -4 6 -10 14 -14 17 -3 3 -8
10 -11 16 -3 6 -9 17 -14 23 -5 7 -9 13 -9 14 0 1 -2 5 -5 10 -3 4 -8 15 -11
24 -3 9 -8 23 -11 31 -4 9 -6 20 -7 33 -1 14 -3 20 -6 24 -11 14 -11 12 -12
55 -1 22 -2 41 -3 43 -2 4 -5 40 -7 95 -1 28 -2 51 -4 55 -1 4 -2 14 -2 22 0
36 -15 60 -37 60 -26 0 -37 -26 -28 -65 5 -24 8 -46 9 -91 1 -29 2 -46 3 -49
2 -2 3 -10 4 -17 1 -7 3 -18 4 -24 2 -7 3 -23 3 -48 0 -40 1 -45 12 -58 3 -4
5 -10 6 -22 2 -20 6 -37 12 -48 2 -4 4 -10 5 -14 3 -16 14 -39 21 -47 4 -4 10
-13 14 -20 3 -7 8 -14 11 -17 3 -3 7 -8 9 -12 2 -4 8 -13 14 -19 24 -27 23
-28 -45 -26 -85 3 -82 4 -84 -16 -4 -33 -6 -32 88 -29 93 3 94 3 77 -18 -26
-32 -29 -36 -46 -68 -20 -38 -27 -112 -14 -156 2 -9 5 -25 6 -34 4 -52 112
-174 157 -177 28 -3 66 30 89 75 2 4 8 13 14 19 5 5 11 15 14 21 2 6 10 22 16
36 l12 24 0 55 c0 48 0 55 -4 67 -2 7 -4 17 -4 22 0 18 -19 60 -34 77 -3 3 -9
11 -13 18 -4 7 -12 16 -16 21 -18 20 -16 21 72 18 86 -3 84 -3 85 17 3 36 3
35 -67 35 -56 -1 -56 -1 -57 4 -1 9 6 23 20 36 13 13 28 38 34 57 1 4 5 11 9
15 7 7 15 28 20 49 1 7 4 16 5 20 1 4 2 13 2 19 0 6 2 14 5 22 5 11 5 14 5 50
0 40 0 41 9 53 5 7 7 27 9 80 1 28 2 49 4 53 9 24 4 92 -6 101 -24 20 -52 -11
-52 -56 0 -12 -1 -16 -5 -22 -6 -8 -6 -8 -7 -59 -2 -52 -4 -86 -7 -90 -1 -2
-2 -22 -3 -45 -1 -40 -1 -43 -7 -54 -3 -9 -5 -16 -5 -25 0 -14 -7 -37 -15 -47
-4 -4 -8 -12 -9 -17 -2 -12 -15 -42 -20 -47 -2 -2 -5 -8 -8 -12 -2 -5 -5 -10
-7 -11 -2 -2 -8 -10 -14 -18 -16 -25 -29 -35 -41 -34 -10 2 -10 3 -8 109 1 54
2 101 1 105 0 4 -2 11 -3 15 -1 5 -1 76 0 159 2 161 2 160 -9 170 -8 7 -31 11
-42 6z m46 -652 c5 -2 10 -7 13 -10 3 -4 10 -12 16 -19 24 -25 40 -58 46 -98
4 -23 5 -98 1 -109 -2 -5 -3 -11 -3 -14 0 -6 -12 -40 -20 -58 -9 -21 -35 -50
-51 -59 -17 -8 -42 4 -64 30 -5 5 -13 15 -20 23 -38 44 -46 159 -15 227 18 39
20 43 36 59 31 31 43 36 61 28z"/>
</g>
</svg>
