<?xml version="1.0" standalone="no"?>
<!DOCTYPE svg PUBLIC "-//W3C//DTD SVG 20010904//EN"
 "http://www.w3.org/TR/2001/REC-SVG-20010904/DTD/svg10.dtd">
<svg version="1.0" xmlns="http://www.w3.org/2000/svg"
 width="126.000000pt" height="148.000000pt" viewBox="0 0 126.000000 148.000000"
 preserveAspectRatio="xMidYMid meet">
<metadata>
Created by potrace 1.16, written by Peter Selinger 2001-2019
</metadata>
<g transform="translate(0.000000,148.000000) scale(0.100000,-0.100000)"
fill="#000000" stroke="none">
<path d="M952 1383 c-17 -21 -46 -56 -64 -79 -18 -23 -73 -89 -123 -147 -49
-59 -99 -118 -110 -133 -25 -31 -39 -26 -83 29 -19 23 -64 74 -101 112 -37 39
-102 109 -145 158 -89 98 -106 105 -158 57 -18 -17 -52 -43 -75 -58 -33 -21
-43 -33 -43 -54 0 -21 6 -29 26 -34 21 -6 33 2 76 45 51 53 85 64 107 37 17
-21 -9 -68 -52 -94 -39 -23 -52 -56 -30 -77 18 -18 39 -9 103 47 l45 40 30
-39 c16 -21 69 -78 117 -126 117 -117 118 -120 76 -166 -83 -88 -168 -228
-168 -276 0 -11 -7 -31 -16 -44 -13 -18 -15 -41 -11 -117 4 -88 7 -98 46 -163
27 -46 70 -96 126 -147 119 -108 116 -107 157 -90 36 15 107 90 136 143 9 17
27 49 38 70 32 57 52 244 34 318 -7 30 -16 55 -20 55 -4 0 -20 30 -35 68 -16
37 -36 76 -45 87 -9 11 -22 32 -30 48 -7 15 -16 27 -20 27 -10 0 -70 61 -70
72 0 5 18 28 39 51 22 23 74 84 117 135 l77 93 40 -38 c23 -21 49 -48 60 -60
11 -14 30 -23 48 -23 24 0 29 4 29 25 0 17 -18 42 -60 82 -60 57 -70 79 -48
101 26 26 56 12 111 -48 56 -62 84 -73 104 -42 9 16 0 30 -75 105 -55 56 -93
87 -107 87 -13 0 -34 -15 -53 -37z m-266 -564 c136 -197 158 -255 146 -379 -7
-65 -14 -86 -55 -156 -27 -45 -63 -96 -82 -114 l-33 -32 -41 23 c-23 12 -41
26 -41 30 0 3 -25 35 -55 70 -31 35 -61 70 -68 78 -13 17 -29 105 -29 171 -1
56 19 135 38 151 8 6 14 19 15 28 1 31 123 201 144 201 7 0 34 -32 61 -71z"/>
</g>
</svg>
