<?xml version="1.0" standalone="no"?>
<!DOCTYPE svg PUBLIC "-//W3C//DTD SVG 20010904//EN"
 "http://www.w3.org/TR/2001/REC-SVG-20010904/DTD/svg10.dtd">
<svg version="1.0" xmlns="http://www.w3.org/2000/svg"
 width="85.000000pt" height="100.000000pt" viewBox="0 0 85.000000 100.000000"
 preserveAspectRatio="xMidYMid meet">
<metadata>
Created by potrace 1.16, written by Peter Selinger 2001-2019
</metadata>
<g transform="translate(0.000000,100.000000) scale(0.100000,-0.100000)"
fill="#000000" stroke="none">
<path d="M87 919 c-44 -31 -57 -46 -55 -63 5 -33 39 -31 73 4 30 31 59 39 71
18 4 -7 -7 -24 -29 -42 -37 -31 -47 -59 -26 -72 6 -3 31 8 55 26 l45 32 79
-84 c43 -45 79 -89 80 -95 0 -7 -23 -41 -50 -75 -37 -46 -57 -84 -76 -142 -28
-91 -26 -142 11 -216 30 -59 145 -170 177 -170 37 0 90 52 127 125 32 61 35
75 35 159 1 86 -1 95 -37 166 -21 41 -54 92 -74 112 -41 42 -46 30 52 147 32
39 62 71 65 71 3 0 21 -16 40 -35 34 -35 72 -46 86 -24 3 6 -14 32 -40 58 -50
50 -55 65 -29 75 11 5 31 -8 64 -40 41 -40 50 -45 64 -34 23 19 20 26 -36 86
-77 80 -83 78 -204 -67 -55 -66 -103 -127 -108 -135 -4 -7 -14 -14 -20 -14 -7
0 -68 61 -136 135 -67 74 -128 135 -134 135 -7 0 -38 -19 -70 -41z m397 -404
c91 -151 96 -217 25 -337 -51 -88 -68 -89 -139 -11 -59 64 -66 78 -75 154 -5
48 -2 61 29 127 43 89 84 144 104 140 8 -2 33 -34 56 -73z"/>
</g>
</svg>
