<?xml version="1.0" standalone="no"?>
<!DOCTYPE svg PUBLIC "-//W3C//DTD SVG 20010904//EN"
 "http://www.w3.org/TR/2001/REC-SVG-20010904/DTD/svg10.dtd">
<svg version="1.0" xmlns="http://www.w3.org/2000/svg"
 width="500.000000pt" height="590.000000pt" viewBox="0 0 500.000000 590.000000"
 preserveAspectRatio="xMidYMid meet">
<metadata>
Created by potrace 1.16, written by Peter Selinger 2001-2019
</metadata>
<g transform="translate(0.000000,590.000000) scale(0.500000,-0.500000)"
fill="#000000" stroke="none">
<path d="M792 1138 c-5 -2 -13 -9 -26 -22 -10 -11 -21 -21 -24 -22 -2 -1 -6
-6 -8 -11 -2 -5 -10 -15 -17 -23 -7 -7 -17 -20 -23 -29 -10 -15 -15 -21 -52
-62 -8 -9 -17 -19 -20 -23 -3 -4 -11 -14 -19 -23 -8 -9 -16 -19 -18 -22 -1 -3
-9 -12 -16 -19 -17 -17 -31 -34 -38 -47 -19 -39 -50 -30 -85 23 -3 6 -21 26
-38 43 -18 18 -32 34 -32 35 0 1 -13 16 -29 32 -16 16 -29 31 -29 32 0 1 -13
15 -28 31 -15 16 -28 30 -28 31 0 4 -56 59 -63 63 -20 9 -39 4 -61 -18 -9 -9
-21 -19 -27 -23 -5 -4 -13 -9 -17 -12 -3 -3 -11 -9 -18 -12 -37 -19 -49 -50
-27 -68 13 -10 42 -10 51 0 3 4 8 10 12 15 4 4 9 11 12 16 2 4 9 10 14 13 5 4
12 9 16 12 22 20 48 18 54 -4 6 -18 -21 -55 -44 -62 -23 -7 -36 -32 -30 -55 6
-24 42 -22 67 4 32 33 66 49 72 35 2 -5 8 -11 12 -15 5 -4 14 -14 20 -23 7 -9
16 -21 21 -28 13 -15 65 -64 76 -72 5 -3 13 -11 18 -18 5 -7 13 -16 18 -19 26
-20 25 -41 -6 -72 -13 -13 -28 -31 -33 -39 -6 -8 -14 -19 -18 -24 -4 -5 -9
-12 -11 -17 -3 -4 -10 -14 -16 -21 -15 -17 -35 -57 -38 -74 -1 -7 -5 -17 -8
-23 -4 -6 -6 -13 -6 -17 0 -11 -7 -30 -15 -41 -11 -17 -14 -50 -9 -86 1 -7 3
-23 5 -36 1 -13 4 -27 5 -31 1 -4 2 -10 2 -13 0 -9 11 -31 24 -51 8 -11 15
-23 18 -27 11 -23 71 -89 93 -102 11 -7 23 -17 42 -37 32 -32 51 -39 72 -27 4
2 11 5 16 6 5 0 11 4 18 10 6 6 13 12 15 14 3 3 10 10 16 17 6 7 15 17 21 22
10 11 23 29 23 35 0 5 16 33 24 41 10 10 18 25 21 36 1 5 3 11 5 13 7 8 8 13
8 31 0 11 1 24 2 29 1 6 3 21 4 34 1 13 3 27 4 31 4 15 3 87 -3 104 -3 8 -5
20 -6 25 -2 13 -3 15 -14 26 -5 4 -10 12 -11 16 -1 4 -5 13 -8 18 -3 6 -6 12
-6 14 0 9 -5 20 -12 27 -6 6 -8 10 -8 14 0 10 -4 18 -15 27 -13 11 -17 18 -17
28 0 9 -4 17 -12 22 -3 3 -7 8 -9 11 -2 4 -8 8 -12 10 -26 14 -47 41 -41 54 3
8 30 39 40 47 6 4 12 11 17 21 5 9 11 17 18 23 5 4 13 13 17 19 3 6 15 20 26
32 11 11 20 21 20 22 0 1 6 9 29 38 9 10 13 9 37 -15 11 -11 25 -23 30 -27 5
-3 13 -11 18 -16 19 -23 51 -31 65 -17 13 13 -6 54 -32 69 -60 34 -77 98 -26
98 15 0 62 -41 83 -72 19 -28 50 -32 62 -8 9 18 2 29 -51 78 -14 12 -27 27
-31 32 -4 6 -15 18 -25 27 -22 21 -29 24 -47 19z m-285 -432 c4 -2 26 -33 30
-41 2 -4 8 -11 12 -16 5 -4 12 -15 17 -24 4 -9 12 -20 16 -24 4 -4 12 -16 17
-26 5 -10 12 -22 15 -26 3 -4 10 -17 15 -28 6 -11 13 -24 16 -30 3 -5 5 -12 5
-14 0 -7 9 -41 13 -49 6 -12 7 -20 4 -32 -1 -6 -3 -18 -4 -26 0 -8 -2 -19 -4
-24 -2 -5 -3 -15 -3 -25 0 -21 -6 -39 -20 -59 -11 -17 -25 -41 -43 -73 -18
-34 -54 -68 -70 -66 -29 3 -63 32 -77 64 -2 5 -8 12 -16 19 -18 14 -37 36 -42
47 -3 6 -9 15 -17 22 -10 10 -13 14 -13 19 0 3 -1 9 -3 14 -2 6 -4 19 -4 34
-1 23 -2 26 -7 33 -8 13 -8 57 1 71 4 8 6 13 6 25 2 19 14 47 23 55 5 4 7 8 9
20 2 11 5 17 10 23 3 4 10 17 15 27 7 16 12 22 27 39 10 11 21 26 25 32 13 26
37 46 47 39z"/>
</g>
</svg>
