<?xml version="1.0" standalone="no"?>
<!DOCTYPE svg PUBLIC "-//W3C//DTD SVG 20010904//EN"
 "http://www.w3.org/TR/2001/REC-SVG-20010904/DTD/svg10.dtd">
<svg version="1.0" xmlns="http://www.w3.org/2000/svg"
 width="47.000000pt" height="100.000000pt" viewBox="0 0 47.000000 100.000000"
 preserveAspectRatio="xMidYMid meet">
<metadata>
Created by potrace 1.16, written by Peter Selinger 2001-2019
</metadata>
<g transform="translate(0.000000,100.000000) scale(0.100000,-0.100000)"
fill="#000000" stroke="none">
<path d="M204 936 c-3 -13 -4 -53 -2 -88 l3 -63 -50 0 -50 0 0 80 c0 79 0 80
-25 80 -25 0 -25 -1 -28 -102 l-3 -102 33 -5 c18 -3 55 -7 82 -8 l50 -3 -56
-63 c-64 -72 -96 -147 -105 -252 -6 -72 17 -160 61 -228 28 -45 120 -132 138
-132 20 0 93 79 116 125 51 102 54 271 8 363 -14 27 -48 80 -76 117 -27 36
-50 68 -50 71 0 3 34 4 75 3 41 -2 76 -1 78 2 2 2 7 47 10 100 7 103 -4 139
-37 126 -13 -5 -16 -22 -16 -91 l0 -84 -46 -4 c-25 -2 -50 0 -56 3 -7 5 -8 31
-4 79 5 50 4 76 -5 86 -17 21 -38 17 -45 -10z m91 -388 c60 -115 67 -174 35
-279 -24 -82 -55 -139 -75 -139 -23 0 -77 64 -109 130 -39 82 -42 166 -8 251
30 74 77 140 96 133 8 -3 36 -46 61 -96z"/>
</g>
</svg>
