<?xml version="1.0" standalone="no"?>
<!DOCTYPE svg PUBLIC "-//W3C//DTD SVG 20010904//EN"
 "http://www.w3.org/TR/2001/REC-SVG-20010904/DTD/svg10.dtd">
<svg version="1.0" xmlns="http://www.w3.org/2000/svg"
 width="278.000000pt" height="590.000000pt" viewBox="0 0 278.000000 590.000000"
 preserveAspectRatio="xMidYMid meet">
<metadata>
Created by potrace 1.16, written by Peter Selinger 2001-2019
</metadata>
<g transform="translate(0.000000,590.000000) scale(0.500000,-0.500000)"
fill="#000000" stroke="none">
<path d="M255 1122 c-9 -4 -10 -5 -8 -104 2 -115 11 -106 -97 -96 -33 3 -43
41 -27 103 11 43 3 91 -16 94 -36 5 -37 2 -41 -104 -1 -26 -3 -52 -4 -58 -1
-6 -2 -21 -2 -42 1 -46 -4 -42 60 -42 34 0 51 -1 55 -3 3 -1 16 -2 35 -2 17 0
32 -1 34 -2 9 -5 6 -25 -3 -27 -19 -4 -22 -6 -24 -13 -1 -4 -7 -13 -12 -19
-10 -11 -15 -18 -45 -57 -24 -31 -31 -42 -41 -62 -6 -12 -12 -28 -15 -36 -2
-8 -8 -26 -12 -40 -4 -14 -8 -27 -8 -28 0 -2 -2 -8 -5 -13 -3 -5 -6 -14 -6
-21 -1 -6 -2 -14 -3 -17 -8 -24 -10 -116 -3 -133 3 -8 5 -16 5 -22 0 -12 5
-33 11 -45 3 -4 10 -21 16 -37 12 -32 27 -64 34 -73 2 -3 7 -10 9 -15 9 -18
55 -70 76 -87 7 -6 16 -14 20 -19 3 -4 9 -9 14 -11 4 -2 10 -7 14 -12 14 -21
44 -20 67 1 6 5 14 12 19 15 12 8 43 42 50 54 3 6 10 17 15 25 13 18 32 58 34
68 1 4 5 14 9 23 6 15 7 18 8 41 2 26 2 27 11 61 8 31 6 134 -3 164 -1 3 -3
15 -4 27 -1 11 -4 25 -6 30 -2 6 -4 12 -4 15 0 6 -4 15 -10 20 -2 2 -7 10 -10
18 -3 9 -9 19 -13 24 -4 5 -7 10 -7 12 0 1 -4 8 -9 15 -15 23 -38 63 -45 75
-6 13 -19 27 -28 32 -3 2 -8 7 -11 14 -3 6 -11 17 -18 25 -14 15 -17 24 -9 28
6 3 72 2 88 -1 21 -5 84 -4 89 1 5 4 7 73 7 198 0 62 0 61 -33 60 -25 -2 -24
6 -22 -103 2 -116 11 -102 -68 -102 -77 0 -67 -14 -65 97 3 97 3 101 -6 105
-6 3 -30 4 -37 1z m31 -364 c17 -12 25 -22 39 -48 6 -13 15 -29 19 -36 5 -7
12 -21 17 -30 5 -9 13 -24 18 -32 10 -16 16 -32 19 -51 1 -7 3 -16 6 -20 2 -5
5 -16 7 -26 2 -10 4 -23 6 -29 3 -18 4 -75 0 -86 -1 -5 -5 -20 -8 -33 -7 -33
-8 -35 -18 -63 -4 -14 -9 -30 -10 -37 -1 -7 -4 -16 -6 -21 -3 -6 -5 -11 -5
-13 0 -2 -4 -9 -23 -39 -25 -39 -41 -50 -58 -39 -51 34 -111 111 -119 152 -2
5 -6 17 -11 26 -11 23 -21 52 -23 68 -1 8 -3 18 -4 23 -6 29 0 97 10 118 2 4
5 13 6 20 1 7 5 23 9 35 4 12 7 23 7 25 0 4 9 24 15 31 3 4 6 10 7 14 1 5 5
11 10 16 5 4 11 14 15 21 31 55 51 70 75 54z"/>
</g>
</svg>
