<?xml version="1.0" standalone="no"?>
<!DOCTYPE svg PUBLIC "-//W3C//DTD SVG 20010904//EN"
 "http://www.w3.org/TR/2001/REC-SVG-20010904/DTD/svg10.dtd">
<svg version="1.0" xmlns="http://www.w3.org/2000/svg"
 width="70.000000pt" height="148.000000pt" viewBox="0 0 70.000000 148.000000"
 preserveAspectRatio="xMidYMid meet">
<metadata>
Created by potrace 1.16, written by Peter Selinger 2001-2019
</metadata>
<g transform="translate(0.000000,148.000000) scale(0.100000,-0.100000)"
fill="#000000" stroke="none">
<path d="M85 1328 c-3 -40 -7 -109 -8 -153 l-2 -80 120 -5 c87 -4 120 -8 119
-17 -2 -29 -5 -33 -17 -33 -15 0 -102 -104 -136 -160 -11 -20 -31 -69 -45
-110 -58 -180 -57 -245 8 -400 45 -109 57 -127 149 -217 64 -63 89 -81 104
-77 34 9 126 108 155 165 56 114 63 152 62 334 0 111 -3 137 -22 178 -35 79
-123 219 -164 262 -21 21 -38 47 -38 57 0 21 29 22 145 9 39 -5 73 -5 77 -2 4
4 9 76 10 161 l3 155 -34 0 -35 0 0 -125 -1 -124 -80 -1 -80 0 0 125 0 125
-33 3 -32 3 0 -132 0 -131 -77 7 c-43 4 -82 9 -87 12 -5 3 -5 39 -1 82 4 42 8
94 9 116 1 38 -1 40 -31 43 l-31 3 -7 -73z m281 -386 c62 -51 164 -294 164
-390 0 -94 -75 -305 -126 -352 -20 -19 -28 -22 -47 -13 -42 19 -116 118 -154
204 -31 69 -38 98 -41 167 -2 46 0 95 6 110 5 15 18 53 27 85 23 76 111 207
139 207 6 0 20 -8 32 -18z"/>
</g>
</svg>
