<?xml version="1.0" standalone="no"?>
<!DOCTYPE svg PUBLIC "-//W3C//DTD SVG 20010904//EN"
 "http://www.w3.org/TR/2001/REC-SVG-20010904/DTD/svg10.dtd">
<svg version="1.0" xmlns="http://www.w3.org/2000/svg"
 width="100.000000pt" height="148.000000pt" viewBox="0 0 100.000000 148.000000"
 preserveAspectRatio="xMidYMid meet">
<metadata>
Created by potrace 1.16, written by Peter Selinger 2001-2019
</metadata>
<g transform="translate(0.000000,148.000000) scale(0.100000,-0.100000)"
fill="#000000" stroke="none">
<path d="M757 1422 c-18 -4 -19 -21 -15 -370 l3 -367 -70 -3 -71 -3 1 368 0
368 -37 3 -37 3 6 -358 c7 -410 12 -386 -81 -381 l-56 3 -5 360 c-4 198 -10
364 -15 368 -4 5 -16 7 -26 5 -18 -3 -19 -22 -22 -371 l-2 -367 -65 0 -65 0
-1 203 c-1 111 -2 276 -3 367 l-1 165 -30 0 -30 0 -2 -350 c-1 -192 -3 -358
-3 -367 0 -14 -9 -18 -39 -18 -34 0 -39 -3 -44 -27 -3 -16 -2 -32 3 -37 5 -5
70 -7 145 -4 75 3 138 1 141 -4 3 -5 5 -102 4 -217 -1 -204 0 -209 23 -237 12
-16 31 -41 40 -56 10 -16 26 -28 38 -28 11 0 29 -5 40 -10 13 -8 25 -7 40 0
23 13 59 47 59 56 0 4 8 13 18 20 15 11 17 36 19 240 1 125 5 229 8 233 3 3
73 4 155 2 l149 -3 7 27 c9 36 -2 43 -66 47 l-55 3 -1 355 c-1 195 -2 360 -3
366 -1 14 -29 22 -54 16z m-213 -810 c3 -5 6 -96 7 -203 1 -163 -1 -200 -15
-226 -28 -56 -88 -53 -114 5 -13 31 -22 400 -9 420 9 14 123 17 131 4z"/>
</g>
</svg>
