<?xml version="1.0" standalone="no"?>
<!DOCTYPE svg PUBLIC "-//W3C//DTD SVG 20010904//EN"
 "http://www.w3.org/TR/2001/REC-SVG-20010904/DTD/svg10.dtd">
<svg version="1.0" xmlns="http://www.w3.org/2000/svg"
 width="68.000000pt" height="100.000000pt" viewBox="0 0 68.000000 100.000000"
 preserveAspectRatio="xMidYMid meet">
<metadata>
Created by potrace 1.16, written by Peter Selinger 2001-2019
</metadata>
<g transform="translate(0.000000,100.000000) scale(0.100000,-0.100000)"
fill="#000000" stroke="none">
<path d="M365 958 c-3 -7 -6 -121 -7 -253 l-3 -240 -37 -3 c-21 -2 -39 -2 -40
0 -1 2 -4 113 -7 248 -6 236 -7 245 -26 245 -19 0 -20 -8 -25 -245 l-5 -245
-32 -3 c-18 -2 -34 0 -34 5 -1 4 -4 116 -8 248 -6 238 -6 240 -28 243 -34 5
-37 -26 -29 -265 l6 -214 -29 -10 c-35 -12 -45 -33 -25 -50 10 -8 36 -10 88
-5 111 10 106 18 106 -153 l0 -147 34 -37 c45 -49 92 -52 130 -6 25 29 26 36
26 154 0 67 3 136 6 153 l6 31 102 3 c100 3 101 3 101 28 0 22 -5 25 -37 28
l-38 3 0 238 c0 199 -2 241 -15 251 -8 7 -21 10 -30 6 -12 -4 -15 -44 -17
-253 l-3 -248 -37 -3 c-26 -2 -38 1 -39 10 0 7 0 119 1 249 1 211 0 237 -15
243 -25 9 -35 7 -40 -6z m3 -673 c3 -143 0 -170 -23 -179 -47 -18 -65 34 -65
191 0 120 2 123 55 120 l30 -2 3 -130z"/>
</g>
</svg>
