<?xml version="1.0" standalone="no"?>
<!DOCTYPE svg PUBLIC "-//W3C//DTD SVG 20010904//EN"
 "http://www.w3.org/TR/2001/REC-SVG-20010904/DTD/svg10.dtd">
<svg version="1.0" xmlns="http://www.w3.org/2000/svg"
 width="400.000000pt" height="590.000000pt" viewBox="0 0 400.000000 590.000000"
 preserveAspectRatio="xMidYMid meet">
<metadata>
Created by potrace 1.16, written by Peter Selinger 2001-2019
</metadata>
<g transform="translate(0.000000,590.000000) scale(0.500000,-0.500000)"
fill="#000000" stroke="none">
<path d="M435 1135 c-6 -5 -6 -5 -4 -181 2 -352 2 -391 -1 -395 -9 -11 -20
-13 -61 -13 -54 0 -47 -21 -47 152 1 140 1 145 -3 152 -4 7 -4 11 -3 139 1
157 3 142 -26 142 -29 0 -27 15 -25 -140 2 -278 2 -439 -1 -441 -5 -6 -90 -4
-95 2 -3 5 -3 9 -3 148 1 136 1 143 -3 150 -3 6 -4 14 -3 139 0 156 3 143 -26
143 -31 0 -28 34 -26 -291 1 -189 1 -280 0 -284 -3 -8 -6 -9 -36 -9 -32 1 -33
0 -33 -29 0 -33 -13 -30 119 -28 137 2 118 30 116 -171 l-1 -167 8 -14 c3 -8
10 -18 15 -22 5 -4 10 -12 13 -17 3 -5 6 -10 8 -12 2 -2 5 -7 8 -12 8 -16 13
-19 33 -20 10 -1 20 -3 23 -5 19 -9 58 0 66 16 1 4 5 8 8 10 13 9 17 13 18 19
1 4 4 9 8 13 7 5 8 8 9 19 1 7 3 15 5 18 3 6 3 22 3 157 -1 133 0 151 2 156 2
3 4 11 5 17 2 18 -3 18 149 14 94 -2 100 0 97 31 -2 26 -9 29 -56 29 -26 -1
-36 0 -37 2 -2 2 -3 60 -2 287 l1 285 -8 8 c-10 10 -39 12 -49 4 -6 -5 -7
-410 -1 -424 2 -3 3 -12 3 -18 0 -6 0 -19 1 -28 1 -15 1 -18 -2 -24 -4 -6 -4
-12 -4 -45 0 -40 -1 -46 -6 -48 -11 -4 -94 -4 -99 0 -5 5 -6 88 -3 433 2 155
3 143 -16 152 -17 8 -31 8 -38 1z m3 -646 c3 -5 4 -11 3 -109 -2 -97 -1 -105
2 -112 3 -7 3 -8 0 -17 -3 -8 -3 -10 0 -16 4 -9 4 -23 1 -27 -2 -1 -3 -12 -4
-23 -3 -49 -43 -84 -69 -62 -4 3 -10 8 -13 10 -4 2 -7 6 -8 11 -1 5 -5 12 -8
16 -9 12 -10 17 -10 87 0 60 0 66 -4 74 -6 12 -7 121 -2 130 3 4 4 10 4 18 0
24 1 25 64 24 39 0 40 0 44 -4z"/>
</g>
</svg>
