<?xml version="1.0" standalone="no"?>
<!DOCTYPE svg PUBLIC "-//W3C//DTD SVG 20010904//EN"
 "http://www.w3.org/TR/2001/REC-SVG-20010904/DTD/svg10.dtd">
<svg version="1.0" xmlns="http://www.w3.org/2000/svg"
 width="116.000000pt" height="148.000000pt" viewBox="0 0 116.000000 148.000000"
 preserveAspectRatio="xMidYMid meet">
<metadata>
Created by potrace 1.16, written by Peter Selinger 2001-2019
</metadata>
<g transform="translate(0.000000,148.000000) scale(0.100000,-0.100000)"
fill="#000000" stroke="none">
<path d="M113 1404 c-3 -8 -3 -80 -1 -159 6 -151 2 -170 -37 -177 -16 -3 -21
-12 -23 -52 l-3 -49 158 4 158 4 -4 -85 c-2 -47 -5 -254 -5 -460 l-1 -375 50
0 50 0 -2 95 c-2 81 -5 366 -4 438 0 12 0 32 0 45 0 12 3 37 7 55 3 18 2 38
-4 45 -5 6 -7 35 -5 62 5 58 4 138 -2 144 -2 2 0 12 6 22 8 17 22 19 114 19
l105 0 0 -62 c1 -35 2 -243 3 -463 l2 -400 33 -3 c50 -5 65 13 57 67 -3 25 -7
228 -7 451 l-2 405 172 -4 172 -4 0 36 c0 39 -19 57 -60 57 -11 0 -23 6 -25
13 -3 7 -2 81 2 165 5 94 4 157 -1 162 -19 19 -55 10 -72 -15 -14 -22 -15 -32
-5 -66 7 -22 9 -45 4 -52 -4 -6 -6 -51 -5 -99 3 -88 3 -88 -25 -99 -47 -19
-127 -23 -141 -7 -8 11 -9 52 -3 160 11 190 10 198 -40 198 -32 0 -39 -4 -39
-19 0 -11 -5 -23 -11 -26 -7 -5 -9 -42 -4 -114 3 -58 2 -128 -2 -156 l-8 -50
-101 -2 c-55 -1 -106 2 -113 6 -10 7 -11 20 -3 62 6 30 12 106 14 169 l3 115
-43 1 c-23 0 -46 -4 -51 -10 -5 -6 -6 -72 -2 -146 8 -178 1 -194 -83 -198 -45
-2 -63 1 -78 15 -19 17 -20 26 -13 186 l7 167 -41 0 c-29 0 -44 -5 -48 -16z"/>
</g>
</svg>
