<?xml version="1.0" standalone="no"?>
<!DOCTYPE svg PUBLIC "-//W3C//DTD SVG 20010904//EN"
 "http://www.w3.org/TR/2001/REC-SVG-20010904/DTD/svg10.dtd">
<svg version="1.0" xmlns="http://www.w3.org/2000/svg"
 width="78.000000pt" height="100.000000pt" viewBox="0 0 78.000000 100.000000"
 preserveAspectRatio="xMidYMid meet">
<metadata>
Created by potrace 1.16, written by Peter Selinger 2001-2019
</metadata>
<g transform="translate(0.000000,100.000000) scale(0.100000,-0.100000)"
fill="#000000" stroke="none">
<path d="M80 955 c-9 -11 -11 -41 -8 -111 5 -92 4 -97 -18 -117 -13 -11 -24
-31 -24 -43 0 -23 3 -23 106 -26 l107 -3 -2 -265 c-1 -146 -4 -281 -8 -302 -4
-30 -2 -38 16 -48 12 -6 31 -8 42 -5 20 7 20 13 18 313 l-2 307 69 0 69 0 3
-305 c1 -167 6 -308 11 -313 5 -5 21 -7 35 -3 l26 6 -7 283 c-3 156 -3 296 1
312 l7 28 103 -7 c88 -5 105 -4 117 10 17 20 2 46 -32 54 -24 6 -24 8 -24 120
l0 115 -25 0 c-25 0 -25 -1 -27 -95 -4 -140 -4 -140 -63 -140 -27 0 -51 3 -53
8 -2 4 -1 52 3 107 8 106 1 135 -29 135 -28 0 -41 -50 -41 -156 l0 -94 -75 0
-74 0 6 83 c4 45 7 95 8 111 0 36 -27 56 -53 40 -14 -10 -17 -25 -14 -100 4
-130 2 -134 -58 -134 -32 0 -51 4 -52 13 -1 6 -2 62 -3 122 0 104 -1 110 -21
113 -11 2 -27 -4 -34 -13z"/>
</g>
</svg>
