<?xml version="1.0" standalone="no"?>
<!DOCTYPE svg PUBLIC "-//W3C//DTD SVG 20010904//EN"
 "http://www.w3.org/TR/2001/REC-SVG-20010904/DTD/svg10.dtd">
<svg version="1.0" xmlns="http://www.w3.org/2000/svg"
 width="460.000000pt" height="590.000000pt" viewBox="0 0 460.000000 590.000000"
 preserveAspectRatio="xMidYMid meet">
<metadata>
Created by potrace 1.16, written by Peter Selinger 2001-2019
</metadata>
<g transform="translate(0.000000,590.000000) scale(0.500000,-0.500000)"
fill="#000000" stroke="none">
<path d="M104 1138 c-6 -4 -10 -11 -10 -21 0 -4 -1 -12 -3 -17 -4 -12 -1 -168
4 -198 3 -21 -17 -48 -36 -48 -17 0 -19 -4 -19 -40 0 -41 -16 -37 127 -35 144
2 137 5 121 -52 -4 -14 -4 -15 -1 -24 5 -19 6 -32 1 -40 -6 -9 -7 -105 -2
-119 2 -6 2 -9 -1 -16 -4 -13 -5 -283 0 -296 5 -13 4 -81 0 -92 -10 -20 -6
-87 5 -91 48 -21 91 10 79 57 -1 3 -2 23 -3 44 -1 29 -2 41 -5 48 -3 8 -3 16
-2 72 1 76 1 64 0 127 -1 43 -1 53 2 61 4 11 4 20 0 29 -4 10 -4 27 1 38 6 16
7 46 2 59 -6 14 -7 72 -3 84 4 9 3 67 -1 79 -2 7 -2 9 1 18 6 16 0 15 87 15
96 0 87 4 86 -39 -1 -21 -1 -34 1 -43 4 -17 4 -33 0 -45 -4 -12 -8 -582 -4
-595 3 -12 62 -18 74 -8 10 9 15 28 10 42 -6 18 -8 32 -6 46 4 23 1 195 -4
205 -4 9 -4 26 0 33 4 7 4 25 0 32 -4 7 -3 59 1 69 5 11 3 197 -2 211 -5 13
-5 28 -1 37 2 5 3 14 3 27 0 32 -18 29 155 26 116 -2 114 -2 117 11 8 28 -9
59 -33 59 -10 0 -29 5 -33 10 -6 4 -6 78 0 94 7 19 7 162 0 169 -13 14 -62 5
-62 -11 0 -3 -2 -11 -4 -16 -5 -12 -5 -27 1 -38 4 -8 4 -44 0 -57 -3 -8 -3
-17 -3 -67 1 -47 0 -70 -3 -70 0 0 -10 -4 -23 -8 -27 -9 -87 -12 -98 -5 -12 9
-17 35 -11 51 3 6 4 19 5 80 2 58 3 75 5 84 4 12 3 19 -1 38 -1 5 -2 14 -2 19
0 29 -63 27 -65 -2 -1 -9 -3 -14 -7 -19 -10 -13 -10 -14 -8 -41 3 -39 3 -153
0 -158 -1 -3 -2 -12 -2 -24 0 -34 6 -32 -85 -31 -96 0 -104 4 -89 41 3 9 4 18
5 81 1 62 2 72 5 81 22 56 -16 96 -69 74 -13 -5 -18 -36 -10 -57 4 -9 5 -57 6
-150 0 -34 -6 -53 -20 -65 -7 -7 -85 -8 -96 -1 -26 14 -24 4 -23 108 2 164 1
173 -3 177 -4 5 -43 7 -51 3z"/>
</g>
</svg>
