<?xml version="1.0" standalone="no"?>
<!DOCTYPE svg PUBLIC "-//W3C//DTD SVG 20010904//EN"
 "http://www.w3.org/TR/2001/REC-SVG-20010904/DTD/svg10.dtd">
<svg version="1.0" xmlns="http://www.w3.org/2000/svg"
 width="54.000000pt" height="100.000000pt" viewBox="0 0 54.000000 100.000000"
 preserveAspectRatio="xMidYMid meet">
<metadata>
Created by potrace 1.16, written by Peter Selinger 2001-2019
</metadata>
<g transform="translate(0.000000,100.000000) scale(0.100000,-0.100000)"
fill="#000000" stroke="none">
<path d="M38 730 c-3 -127 -3 -333 0 -459 5 -238 7 -250 47 -235 13 5 15 44
15 260 l0 254 163 -2 162 -3 3 -250 c1 -137 6 -253 11 -258 4 -4 20 -5 35 -1
l26 6 0 459 0 459 -229 0 -228 0 -5 -230z m370 154 c22 -6 23 -9 20 -128 l-3
-121 -160 0 -160 0 -3 114 c-1 63 0 121 2 128 4 10 39 13 143 13 76 0 148 -3
161 -6z"/>
</g>
</svg>
