<?xml version="1.0" standalone="no"?>
<!DOCTYPE svg PUBLIC "-//W3C//DTD SVG 20010904//EN"
 "http://www.w3.org/TR/2001/REC-SVG-20010904/DTD/svg10.dtd">
<svg version="1.0" xmlns="http://www.w3.org/2000/svg"
 width="322.000000pt" height="590.000000pt" viewBox="0 0 322.000000 590.000000"
 preserveAspectRatio="xMidYMid meet">
<metadata>
Created by potrace 1.16, written by Peter Selinger 2001-2019
</metadata>
<g transform="translate(0.000000,590.000000) scale(0.500000,-0.500000)"
fill="#000000" stroke="none">
<path d="M50 1135 c-8 -2 -8 -3 -8 -446 0 -239 0 -478 -1 -532 -2 -121 -6
-109 41 -109 47 0 41 -32 40 223 0 119 -1 216 -1 217 -3 4 -1 156 1 159 5 5
386 5 389 0 3 -3 3 -32 2 -152 -1 -81 -1 -213 -2 -293 -1 -175 -7 -155 46
-154 47 1 44 -2 44 41 0 17 -1 259 -1 536 -1 503 -1 503 -6 507 -4 4 -531 6
-544 3z m460 -89 c5 -4 5 -295 1 -298 -6 -5 -384 -4 -388 1 -4 4 -4 -8 -3 162
0 123 0 131 4 135 4 4 382 5 386 0z"/>
</g>
</svg>
