<?xml version="1.0" standalone="no"?>
<!DOCTYPE svg PUBLIC "-//W3C//DTD SVG 20010904//EN"
 "http://www.w3.org/TR/2001/REC-SVG-20010904/DTD/svg10.dtd">
<svg version="1.0" xmlns="http://www.w3.org/2000/svg"
 width="80.000000pt" height="148.000000pt" viewBox="0 0 80.000000 148.000000"
 preserveAspectRatio="xMidYMid meet">
<metadata>
Created by potrace 1.16, written by Peter Selinger 2001-2019
</metadata>
<g transform="translate(0.000000,148.000000) scale(0.100000,-0.100000)"
fill="#000000" stroke="none">
<path d="M52 738 l3 -683 24 -3 c12 -2 33 -1 45 2 l23 6 -1 376 -1 377 245 0
245 -1 0 -378 0 -378 50 0 50 0 3 682 2 682 -345 0 -345 0 2 -682z m584 383
l1 -191 -248 0 -249 0 0 189 c0 118 4 191 10 193 6 2 117 3 248 2 l237 -1 1
-192z"/>
</g>
</svg>
