<?xml version="1.0" standalone="no"?>
<!DOCTYPE svg PUBLIC "-//W3C//DTD SVG 20010904//EN"
 "http://www.w3.org/TR/2001/REC-SVG-20010904/DTD/svg10.dtd">
<svg version="1.0" xmlns="http://www.w3.org/2000/svg"
 width="456.000000pt" height="590.000000pt" viewBox="0 0 456.000000 590.000000"
 preserveAspectRatio="xMidYMid meet">
<metadata>
Created by potrace 1.16, written by Peter Selinger 2001-2019
</metadata>
<g transform="translate(0.000000,590.000000) scale(0.500000,-0.500000)"
fill="#000000" stroke="none">
<path d="M626 1136 c-145 -1 -190 -2 -195 -3 -4 -2 -47 -3 -194 -3 -188 0
-188 0 -192 -4 -5 -5 -7 -209 -3 -229 1 -5 2 -13 3 -18 2 -13 6 -15 28 -15 30
0 30 -1 30 55 1 40 4 141 5 142 4 5 36 5 347 5 395 0 344 6 345 -44 1 -23 2
-41 4 -45 3 -7 3 -20 -1 -32 -5 -17 -3 -49 5 -60 5 -8 43 -10 50 -3 6 6 4 231
-1 243 -7 13 11 13 -231 11z"/>
<path d="M232 971 c-12 -3 -12 16 -14 -742 0 -196 -1 -174 4 -179 9 -8 45 -8
53 1 5 5 5 5 4 237 -2 267 -2 256 2 259 6 5 374 4 378 0 3 -3 3 -13 3 -121 -1
-97 0 -118 2 -125 2 -7 2 -27 1 -125 0 -76 0 -118 1 -121 6 -13 45 -16 57 -4
5 5 5 5 4 249 -3 729 -1 656 -18 665 -11 5 -456 11 -477 6z m427 -66 c6 -5 5
-290 -1 -295 -5 -4 -373 -4 -377 0 -4 4 -6 286 -3 293 4 6 7 6 194 6 173 0
184 0 187 -4z"/>
</g>
</svg>
