<?xml version="1.0" standalone="no"?>
<!DOCTYPE svg PUBLIC "-//W3C//DTD SVG 20010904//EN"
 "http://www.w3.org/TR/2001/REC-SVG-20010904/DTD/svg10.dtd">
<svg version="1.0" xmlns="http://www.w3.org/2000/svg"
 width="114.000000pt" height="148.000000pt" viewBox="0 0 114.000000 148.000000"
 preserveAspectRatio="xMidYMid meet">
<metadata>
Created by potrace 1.16, written by Peter Selinger 2001-2019
</metadata>
<g transform="translate(0.000000,148.000000) scale(0.100000,-0.100000)"
fill="#000000" stroke="none">
<path d="M53 1405 c-2 -6 -2 -80 -1 -165 l3 -155 31 -3 31 -3 9 126 9 126 430
0 430 0 5 -63 c3 -35 2 -76 -2 -92 -10 -40 10 -80 43 -84 15 -2 28 3 31 10 3
7 2 81 -1 163 l-6 150 -504 0 c-340 0 -505 -3 -508 -10z"/>
<path d="M272 633 l3 -578 30 0 30 0 3 318 2 317 245 0 245 0 2 -317 3 -318
30 0 30 0 3 555 c1 305 0 565 -3 578 l-5 22 -310 0 -310 0 2 -577z m553 313
l0 -190 -240 1 -240 0 -3 192 -2 191 242 -2 243 -3 0 -189z"/>
</g>
</svg>
