<?xml version="1.0" standalone="no"?>
<!DOCTYPE svg PUBLIC "-//W3C//DTD SVG 20010904//EN"
 "http://www.w3.org/TR/2001/REC-SVG-20010904/DTD/svg10.dtd">
<svg version="1.0" xmlns="http://www.w3.org/2000/svg"
 width="77.000000pt" height="100.000000pt" viewBox="0 0 77.000000 100.000000"
 preserveAspectRatio="xMidYMid meet">
<metadata>
Created by potrace 1.16, written by Peter Selinger 2001-2019
</metadata>
<g transform="translate(0.000000,100.000000) scale(0.100000,-0.100000)"
fill="#000000" stroke="none">
<path d="M360 960 l-325 -5 -3 -106 c-2 -85 0 -108 13 -119 29 -24 44 5 47 88
l3 77 285 0 285 0 5 -75 c5 -73 6 -75 33 -78 l27 -3 0 105 c0 94 -2 106 -19
116 -11 5 -21 9 -23 8 -2 -2 -149 -5 -328 -8z"/>
<path d="M185 798 c-3 -13 -4 -189 -3 -393 l3 -370 22 -3 c31 -5 36 32 32 245
l-4 178 158 3 c86 1 158 -1 158 -5 1 -5 5 -100 8 -213 6 -196 7 -205 26 -205
20 0 20 8 23 370 1 204 0 380 -3 393 -5 22 -6 22 -210 22 -204 0 -205 0 -210
-22z m361 -40 c5 -6 7 -228 2 -234 -4 -3 -134 -6 -240 -5 l-68 1 0 119 c0 105
2 120 18 125 21 6 281 1 288 -6z"/>
</g>
</svg>
