<?xml version="1.0" standalone="no"?>
<!DOCTYPE svg PUBLIC "-//W3C//DTD SVG 20010904//EN"
 "http://www.w3.org/TR/2001/REC-SVG-20010904/DTD/svg10.dtd">
<svg version="1.0" xmlns="http://www.w3.org/2000/svg"
 width="81.000000pt" height="100.000000pt" viewBox="0 0 81.000000 100.000000"
 preserveAspectRatio="xMidYMid meet">
<metadata>
Created by potrace 1.16, written by Peter Selinger 2001-2019
</metadata>
<g transform="translate(0.000000,100.000000) scale(0.100000,-0.100000)"
fill="#000000" stroke="none">
<path d="M198 964 c-9 -3 -19 -13 -22 -22 -10 -30 -135 -805 -138 -852 l-3
-45 121 -9 c67 -5 233 -5 369 -1 l247 7 -6 62 c-13 116 -138 841 -148 851 -9
10 -387 18 -420 9z m377 -56 c15 -39 144 -813 136 -821 -4 -4 -28 -7 -52 -5
-52 4 -39 -41 -103 358 -25 151 -50 299 -56 328 l-12 53 -91 -3 -91 -3 -9 -44
c-5 -25 -30 -189 -55 -365 l-47 -321 -52 -3 c-48 -3 -53 -1 -53 17 0 12 25
170 55 353 31 183 60 363 66 401 l11 67 174 0 c131 0 176 -3 179 -12z m-130
-147 c9 -16 115 -663 109 -672 -7 -12 -291 -11 -299 1 -3 5 10 112 29 237 19
125 40 271 47 323 6 52 16 101 22 108 11 14 83 16 92 3z"/>
</g>
</svg>
