<?xml version="1.0" standalone="no"?>
<!DOCTYPE svg PUBLIC "-//W3C//DTD SVG 20010904//EN"
 "http://www.w3.org/TR/2001/REC-SVG-20010904/DTD/svg10.dtd">
<svg version="1.0" xmlns="http://www.w3.org/2000/svg"
 width="482.000000pt" height="590.000000pt" viewBox="0 0 482.000000 590.000000"
 preserveAspectRatio="xMidYMid meet">
<metadata>
Created by potrace 1.16, written by Peter Selinger 2001-2019
</metadata>
<g transform="translate(0.000000,590.000000) scale(0.500000,-0.500000)"
fill="#000000" stroke="none">
<path d="M469 1138 c-286 -1 -253 2 -255 -26 -1 -11 -4 -26 -6 -34 -2 -8 -5
-22 -6 -30 -1 -8 -3 -19 -5 -25 -2 -5 -3 -13 -3 -18 0 -5 -1 -12 -3 -17 -2 -5
-3 -13 -3 -19 0 -6 -1 -13 -2 -16 -1 -3 -3 -13 -4 -23 -3 -30 -6 -47 -9 -57
-2 -5 -3 -13 -3 -17 0 -4 -1 -13 -3 -20 -3 -12 -6 -31 -8 -46 -2 -10 -6 -41
-9 -57 -1 -8 -3 -21 -4 -30 -1 -9 -3 -19 -4 -22 -1 -3 -2 -10 -2 -15 0 -5 -1
-13 -3 -18 -2 -4 -4 -14 -4 -22 -1 -7 -3 -16 -4 -20 -2 -3 -3 -11 -3 -17 0 -6
-1 -15 -3 -20 -2 -6 -3 -14 -3 -19 0 -5 -1 -14 -3 -20 -2 -6 -3 -15 -3 -20 0
-5 -1 -13 -3 -19 -2 -5 -3 -14 -3 -19 0 -6 -1 -13 -3 -17 -1 -4 -3 -13 -4 -21
-1 -8 -3 -18 -4 -23 -2 -4 -3 -11 -3 -16 0 -5 -1 -13 -2 -17 -1 -5 -3 -16 -4
-25 -1 -9 -4 -24 -5 -34 -2 -10 -4 -25 -5 -34 -1 -9 -3 -20 -4 -23 -1 -4 -2
-13 -3 -20 -1 -6 -3 -16 -4 -20 -2 -5 -3 -13 -3 -18 0 -5 -1 -14 -3 -19 -2 -6
-3 -14 -3 -19 0 -6 -1 -15 -3 -21 -2 -7 -3 -16 -3 -20 0 -5 -1 -11 -2 -14 -1
-3 -3 -13 -4 -22 -1 -9 -3 -20 -3 -24 -2 -16 -22 -14 236 -15 128 -1 318 -1
422 -1 105 1 193 1 197 1 10 0 12 2 14 12 3 16 -3 100 -8 113 -1 3 -2 8 -2 11
0 5 -4 32 -9 55 -2 8 -3 19 -4 26 -1 6 -2 13 -3 15 -1 2 -3 10 -3 18 -1 7 -3
17 -4 23 -2 5 -3 14 -3 19 0 5 -1 13 -3 19 -2 5 -3 13 -3 18 0 4 -1 14 -3 21
-5 23 -7 37 -7 46 0 4 -1 12 -3 17 -2 5 -4 16 -5 25 -1 8 -3 18 -4 21 -1 3 -2
9 -2 14 0 5 -1 13 -3 18 -2 6 -3 13 -3 18 0 4 -1 13 -3 21 -5 25 -7 37 -9 52
-1 8 -2 17 -4 20 -1 3 -2 11 -3 19 -1 8 -3 17 -4 21 -2 3 -3 10 -3 15 0 4 -1
13 -3 20 -2 6 -3 15 -3 21 0 5 -1 12 -2 16 -1 4 -3 14 -4 22 -2 15 -4 32 -8
48 -2 5 -3 15 -4 23 -1 8 -2 17 -4 20 -1 3 -2 9 -2 14 0 4 -2 14 -4 22 -2 8
-4 18 -4 23 0 6 -1 12 -2 15 -1 3 -3 13 -4 22 -4 28 -5 40 -9 51 -2 6 -3 14
-3 19 0 5 -1 12 -3 17 -2 5 -3 12 -3 16 0 4 -2 14 -4 22 -2 8 -4 19 -4 24 0 9
-5 16 -11 16 -2 0 -7 0 -11 1 -4 0 -118 0 -253 -1z m224 -47 c3 -2 5 -6 6 -11
1 -5 3 -13 4 -19 2 -5 3 -14 3 -19 0 -5 1 -13 3 -19 2 -5 3 -13 3 -18 0 -4 1
-12 3 -18 5 -18 11 -52 15 -86 1 -9 3 -19 4 -23 1 -4 2 -11 2 -15 0 -5 1 -13
3 -18 1 -6 3 -15 4 -22 0 -7 2 -16 4 -21 2 -5 3 -11 3 -15 0 -3 1 -10 3 -15 3
-9 5 -26 9 -58 1 -8 3 -18 4 -22 1 -4 2 -11 2 -16 0 -5 1 -13 3 -17 1 -5 3
-14 4 -21 0 -7 2 -17 4 -23 2 -5 3 -13 3 -17 0 -5 1 -14 3 -21 8 -33 9 -41 9
-48 0 -5 1 -14 3 -20 2 -7 3 -16 3 -21 0 -5 1 -13 3 -19 2 -5 3 -14 3 -19 0
-5 1 -13 3 -16 1 -4 3 -13 4 -20 0 -8 2 -18 4 -22 2 -5 3 -11 3 -15 0 -4 1 -9
2 -12 1 -3 3 -13 4 -22 2 -21 6 -41 9 -56 2 -7 3 -17 3 -22 0 -5 1 -12 3 -17
2 -4 4 -14 5 -22 1 -8 3 -19 4 -23 6 -25 8 -37 8 -44 0 -4 1 -13 3 -19 12 -48
12 -48 -63 -48 -67 0 -65 -1 -67 16 -1 5 -2 15 -4 22 -2 8 -3 17 -3 22 0 4 -1
11 -3 16 -2 5 -3 13 -3 18 0 5 -1 14 -3 19 -2 6 -3 13 -3 16 0 3 -1 10 -3 16
-2 5 -3 14 -3 20 0 6 -1 13 -2 16 -1 3 -3 13 -4 22 -3 27 -7 54 -10 60 -1 3
-2 9 -2 14 0 4 -1 13 -3 19 -2 6 -4 17 -5 25 -1 8 -3 21 -5 30 -2 9 -4 24 -5
33 -1 9 -3 19 -4 22 -1 3 -2 12 -3 20 -1 8 -3 17 -4 21 -2 4 -3 11 -3 15 0 5
-1 14 -3 20 -1 6 -4 18 -5 27 -1 9 -3 21 -4 28 -1 7 -3 15 -4 18 -1 3 -2 9 -2
14 0 4 -1 13 -3 20 -2 6 -3 15 -3 19 0 4 -1 12 -3 17 -2 5 -3 16 -4 24 -1 8
-3 17 -4 22 -2 4 -3 11 -3 16 0 5 -1 13 -3 18 -2 6 -3 13 -3 18 0 4 -1 13 -3
21 -6 27 -8 37 -9 51 -1 8 -3 18 -5 24 -2 5 -3 14 -3 19 0 12 -8 31 -14 34 -9
5 -199 3 -205 -2 -7 -7 -11 -20 -13 -41 -1 -10 -3 -21 -4 -24 -1 -3 -2 -10 -2
-15 0 -5 -1 -14 -3 -19 -2 -6 -3 -15 -3 -22 0 -7 -1 -17 -3 -22 -2 -6 -3 -15
-3 -20 0 -6 -1 -14 -3 -19 -2 -5 -3 -14 -3 -21 0 -7 -2 -18 -4 -25 -2 -7 -4
-16 -4 -21 0 -4 -1 -12 -3 -18 -2 -5 -3 -15 -3 -22 0 -7 -1 -16 -3 -21 -2 -5
-3 -13 -3 -18 0 -5 -1 -14 -3 -19 -2 -6 -3 -16 -3 -23 0 -7 -1 -18 -3 -24 -2
-6 -3 -16 -3 -22 0 -6 -1 -15 -3 -21 -2 -5 -3 -13 -3 -18 0 -5 -2 -14 -4 -21
-2 -7 -4 -18 -4 -25 0 -7 -1 -16 -3 -21 -2 -5 -3 -13 -3 -18 0 -5 -1 -15 -3
-21 -2 -7 -3 -17 -3 -23 0 -7 -1 -17 -3 -23 -2 -7 -3 -16 -3 -20 0 -5 -1 -12
-3 -16 -2 -4 -3 -13 -3 -20 0 -7 -1 -16 -3 -21 -3 -9 -5 -23 -9 -61 -1 -11 -3
-23 -4 -27 -1 -4 -2 -11 -2 -16 0 -5 -1 -14 -3 -20 -2 -6 -3 -17 -3 -24 0 -14
-4 -28 -9 -34 -5 -6 -126 -6 -133 0 -5 4 -5 1 2 44 1 6 3 18 4 25 1 6 3 16 4
20 1 4 4 16 5 26 1 10 4 21 5 24 1 3 2 9 2 15 0 5 1 13 2 17 1 4 3 14 4 22 3
23 6 43 9 54 2 6 3 14 3 19 0 4 2 13 4 19 2 7 4 16 4 22 0 5 1 14 3 20 2 5 3
14 3 19 0 5 1 12 2 15 1 3 3 13 4 22 4 39 6 50 9 58 2 5 3 13 3 18 0 4 1 12 3
18 2 5 3 13 3 18 0 5 1 13 3 18 1 6 3 16 4 23 1 8 2 16 3 19 2 6 4 22 8 55 1
8 2 17 4 20 1 3 2 11 3 19 1 8 3 17 4 22 2 4 3 11 3 16 0 5 1 13 3 18 2 6 3
14 3 18 0 5 1 13 3 20 2 6 3 15 3 20 0 5 1 13 3 18 2 6 3 15 3 20 0 6 1 14 3
18 1 5 3 14 4 21 1 7 3 17 4 23 2 5 3 14 3 19 0 5 1 13 3 17 2 4 3 13 3 18 0
6 1 13 2 16 1 3 3 14 4 23 2 23 7 38 13 40 8 3 421 2 426 -1z m-163 -177 c8
-3 12 -11 12 -22 0 -5 1 -14 3 -21 2 -6 4 -18 5 -26 2 -19 6 -36 9 -48 2 -6 3
-15 3 -20 0 -6 1 -14 3 -19 2 -5 3 -13 3 -19 0 -5 1 -14 3 -20 2 -5 3 -14 3
-19 0 -5 1 -15 3 -21 2 -7 3 -16 3 -20 0 -5 1 -12 3 -17 2 -5 3 -13 3 -18 0
-6 1 -13 3 -18 2 -4 4 -13 5 -21 1 -8 4 -22 5 -32 2 -10 4 -26 5 -36 1 -9 3
-19 4 -21 1 -1 2 -10 3 -18 1 -8 3 -18 4 -22 2 -5 3 -12 3 -16 0 -5 1 -14 3
-21 8 -34 9 -41 9 -49 0 -5 1 -14 3 -19 2 -6 3 -14 3 -18 0 -4 1 -13 3 -19 2
-6 3 -15 3 -20 0 -5 1 -13 3 -18 1 -4 3 -14 4 -20 1 -7 3 -16 4 -21 2 -4 3
-11 3 -16 0 -4 1 -12 2 -16 3 -10 7 -34 10 -52 1 -8 3 -20 5 -26 3 -14 2 -25
-2 -30 -6 -5 -372 -4 -377 1 -5 5 -5 6 -1 19 2 5 3 13 3 18 0 5 2 14 4 20 2 7
4 17 4 24 0 7 1 16 3 20 2 4 3 11 3 16 0 4 1 13 3 20 2 6 3 16 3 23 0 6 1 16
3 21 2 6 3 13 3 18 0 4 1 13 3 21 1 7 4 21 5 30 3 28 6 45 9 55 2 6 3 15 3 21
0 6 1 16 3 21 2 6 3 14 3 19 0 5 1 14 3 20 2 6 3 16 3 23 0 7 1 17 3 22 2 6 3
16 3 22 0 7 1 16 3 21 2 4 3 14 4 22 1 7 3 16 4 21 2 4 3 13 3 21 0 7 1 18 3
23 2 6 3 14 3 19 0 6 1 15 3 21 2 7 3 17 3 22 0 6 1 16 3 22 2 7 3 16 3 21 0
5 1 13 3 17 2 4 3 14 3 21 0 8 1 17 3 22 2 5 3 13 3 19 0 6 1 13 2 16 2 3 3
15 4 25 2 21 5 29 13 32 6 3 99 2 107 0z"/>
</g>
</svg>
