<?xml version="1.0" standalone="no"?>
<!DOCTYPE svg PUBLIC "-//W3C//DTD SVG 20010904//EN"
 "http://www.w3.org/TR/2001/REC-SVG-20010904/DTD/svg10.dtd">
<svg version="1.0" xmlns="http://www.w3.org/2000/svg"
 width="304.000000pt" height="590.000000pt" viewBox="0 0 304.000000 590.000000"
 preserveAspectRatio="xMidYMid meet">
<metadata>
Created by potrace 1.16, written by Peter Selinger 2001-2019
</metadata>
<g transform="translate(0.000000,590.000000) scale(0.500000,-0.500000)"
fill="#000000" stroke="none">
<path d="M509 1141 c-1 0 -5 -1 -8 -2 -11 -2 -15 -29 -6 -49 5 -12 8 -428 3
-433 -3 -3 -397 -5 -404 -2 -6 2 -6 -1 -4 238 2 272 4 247 -27 247 -28 0 -25
48 -24 -370 1 -432 -39 -367 233 -367 181 0 224 0 226 -3 3 -3 3 9 3 -169 -1
-117 -1 -127 -4 -130 -6 -6 -398 -3 -412 3 -13 6 -38 5 -43 -2 -6 -7 -6 -43 0
-50 3 -5 485 -7 501 -3 8 3 8 2 8 182 0 146 0 173 3 177 4 7 3 35 -1 45 -3 7
-3 32 -2 343 2 373 3 341 -13 344 -9 2 -25 2 -29 1z m-11 -540 c4 -4 5 -138 0
-144 -3 -3 -389 -5 -401 -2 -9 3 -14 136 -6 145 4 5 400 5 407 1z"/>
</g>
</svg>
