<?xml version="1.0" standalone="no"?>
<!DOCTYPE svg PUBLIC "-//W3C//DTD SVG 20010904//EN"
 "http://www.w3.org/TR/2001/REC-SVG-20010904/DTD/svg10.dtd">
<svg version="1.0" xmlns="http://www.w3.org/2000/svg"
 width="51.000000pt" height="100.000000pt" viewBox="0 0 51.000000 100.000000"
 preserveAspectRatio="xMidYMid meet">
<metadata>
Created by potrace 1.16, written by Peter Selinger 2001-2019
</metadata>
<g transform="translate(0.000000,100.000000) scale(0.100000,-0.100000)"
fill="#000000" stroke="none">
<path d="M37 964 c-4 -4 -7 -144 -7 -310 0 -231 3 -305 13 -311 6 -4 92 -9
190 -11 l177 -4 6 -24 c4 -14 3 -67 -1 -119 l-7 -95 -188 0 c-166 0 -189 -2
-194 -17 -13 -34 10 -38 220 -36 113 1 208 4 212 7 3 3 6 212 6 464 l1 457
-29 3 -29 4 4 -149 c1 -81 2 -174 1 -205 l-2 -58 -165 0 -165 0 -2 202 c-3
174 -5 203 -18 206 -9 1 -19 0 -23 -4z m335 -460 c43 -7 52 -25 42 -79 l-6
-35 -163 0 -163 0 -5 28 c-9 48 2 80 32 85 44 7 224 7 263 1z"/>
</g>
</svg>
