<?xml version="1.0" standalone="no"?>
<!DOCTYPE svg PUBLIC "-//W3C//DTD SVG 20010904//EN"
 "http://www.w3.org/TR/2001/REC-SVG-20010904/DTD/svg10.dtd">
<svg version="1.0" xmlns="http://www.w3.org/2000/svg"
 width="234.000000pt" height="590.000000pt" viewBox="0 0 234.000000 590.000000"
 preserveAspectRatio="xMidYMid meet">
<metadata>
Created by potrace 1.16, written by Peter Selinger 2001-2019
</metadata>
<g transform="translate(0.000000,590.000000) scale(0.500000,-0.500000)"
fill="#000000" stroke="none">
<path d="M63 1129 c-11 -5 -11 9 -9 -289 2 -194 2 -352 0 -525 -2 -265 -2
-255 8 -260 6 -4 30 -4 37 -1 10 5 10 2 8 189 -1 99 -2 177 -1 181 4 13 -2 13
140 12 141 -1 131 -2 146 13 44 43 19 94 -78 153 -33 21 -39 25 -50 34 -6 4
-17 12 -25 17 -8 4 -23 14 -33 21 -10 7 -21 14 -24 16 -87 58 -77 23 -75 247
2 212 4 193 -23 194 -10 1 -17 0 -21 -2z m79 -484 c10 -6 21 -13 23 -15 2 -2
18 -12 34 -22 27 -17 45 -28 86 -54 8 -5 23 -15 34 -22 38 -24 38 -35 -1 -39
-32 -3 -198 -4 -203 -1 -10 5 -10 9 -11 84 0 91 -1 91 38 69z"/>
</g>
</svg>
