<?xml version="1.0" standalone="no"?>
<!DOCTYPE svg PUBLIC "-//W3C//DTD SVG 20010904//EN"
 "http://www.w3.org/TR/2001/REC-SVG-20010904/DTD/svg10.dtd">
<svg version="1.0" xmlns="http://www.w3.org/2000/svg"
 width="39.000000pt" height="100.000000pt" viewBox="0 0 39.000000 100.000000"
 preserveAspectRatio="xMidYMid meet">
<metadata>
Created by potrace 1.16, written by Peter Selinger 2001-2019
</metadata>
<g transform="translate(0.000000,100.000000) scale(0.100000,-0.100000)"
fill="#000000" stroke="none">
<path d="M45 948 c-3 -7 -4 -213 -3 -458 3 -437 3 -445 23 -445 19 0 20 8 23
156 l2 156 47 7 c25 3 76 6 112 6 73 0 91 10 91 50 0 33 -22 54 -146 138 l-99
67 -5 165 c-4 147 -7 165 -23 168 -9 2 -19 -2 -22 -10z m144 -452 c47 -29 87
-58 89 -65 3 -9 -19 -11 -90 -9 l-93 3 -3 63 c-2 34 1 62 5 62 4 -1 46 -24 92
-54z"/>
</g>
</svg>
