<?xml version="1.0" standalone="no"?>
<!DOCTYPE svg PUBLIC "-//W3C//DTD SVG 20010904//EN"
 "http://www.w3.org/TR/2001/REC-SVG-20010904/DTD/svg10.dtd">
<svg version="1.0" xmlns="http://www.w3.org/2000/svg"
 width="58.000000pt" height="148.000000pt" viewBox="0 0 58.000000 148.000000"
 preserveAspectRatio="xMidYMid meet">
<metadata>
Created by potrace 1.16, written by Peter Selinger 2001-2019
</metadata>
<g transform="translate(0.000000,148.000000) scale(0.100000,-0.100000)"
fill="#000000" stroke="none">
<path d="M74 1409 c-11 -19 -7 -1330 4 -1341 6 -6 20 -7 32 -3 22 7 22 7 19
235 -2 126 0 232 4 237 5 4 83 8 174 8 185 0 193 3 193 75 0 47 -26 71 -205
190 -77 51 -146 98 -154 105 -11 11 -13 61 -12 253 2 213 0 240 -14 246 -24 9
-33 8 -41 -5z m160 -642 c45 -29 107 -69 139 -88 91 -54 78 -63 -87 -67 -93
-2 -143 1 -152 9 -10 8 -14 36 -14 99 0 122 0 122 114 47z"/>
</g>
</svg>
