<?xml version="1.0" standalone="no"?>
<!DOCTYPE svg PUBLIC "-//W3C//DTD SVG 20010904//EN"
 "http://www.w3.org/TR/2001/REC-SVG-20010904/DTD/svg10.dtd">
<svg version="1.0" xmlns="http://www.w3.org/2000/svg"
 width="416.000000pt" height="590.000000pt" viewBox="0 0 416.000000 590.000000"
 preserveAspectRatio="xMidYMid meet">
<metadata>
Created by potrace 1.16, written by Peter Selinger 2001-2019
</metadata>
<g transform="translate(0.000000,590.000000) scale(0.500000,-0.500000)"
fill="#000000" stroke="none">
<path d="M564 1111 c-9 -6 -7 -3 -33 -59 -16 -33 -33 -70 -33 -71 0 -1 -26
-56 -45 -96 -23 -47 -71 -151 -71 -152 0 -1 -22 -46 -67 -138 -12 -25 -25 -51
-28 -58 -3 -7 -24 -50 -47 -96 -40 -81 -62 -126 -62 -128 0 -1 -18 -38 -58
-121 -63 -126 -63 -129 -39 -141 19 -9 28 -2 43 31 6 12 19 41 30 63 35 72 66
138 75 159 5 11 17 36 27 56 10 19 23 47 30 62 37 79 28 71 81 73 21 1 42 2
47 3 5 1 40 3 78 4 39 1 71 2 72 3 4 3 52 5 122 6 94 1 94 1 94 27 0 12 -3 16
-33 39 -30 24 -62 50 -105 85 -13 11 -31 26 -40 33 -9 8 -25 21 -34 29 -9 8
-22 19 -28 23 -6 5 -16 13 -22 18 -6 6 -15 13 -19 16 -33 24 -33 19 4 95 17
34 31 63 31 63 0 1 16 33 35 71 37 75 39 79 32 92 -6 12 -26 16 -37 9z m-93
-369 c10 -8 24 -19 31 -25 7 -6 20 -16 28 -22 8 -6 19 -15 24 -20 5 -4 14 -12
21 -17 7 -5 20 -16 29 -24 9 -8 20 -17 23 -19 9 -9 -5 -13 -19 -6 -3 2 -9 3
-14 4 -5 1 -11 2 -13 4 -2 1 -11 3 -19 5 -19 5 -41 11 -51 15 -4 1 -10 3 -13
3 -3 0 -8 1 -11 2 -7 3 -24 8 -51 15 -35 10 -35 10 -18 46 6 12 13 27 15 33
11 25 14 25 38 6z m-62 -122 c6 -2 13 -4 15 -4 2 0 8 -2 14 -4 6 -2 16 -4 21
-6 12 -2 25 -6 37 -9 5 -2 13 -4 17 -5 4 -1 12 -4 17 -5 5 -2 13 -4 18 -5 5
-1 12 -3 15 -5 3 -1 10 -3 15 -4 5 -1 11 -3 15 -4 3 -2 10 -4 15 -5 19 -4 23
-14 6 -14 -4 0 -34 -1 -66 -3 -73 -3 -190 -6 -197 -4 -8 2 -7 8 11 44 19 40
22 42 47 33z"/>
</g>
</svg>
