<?xml version="1.0" standalone="no"?>
<!DOCTYPE svg PUBLIC "-//W3C//DTD SVG 20010904//EN"
 "http://www.w3.org/TR/2001/REC-SVG-20010904/DTD/svg10.dtd">
<svg version="1.0" xmlns="http://www.w3.org/2000/svg"
 width="104.000000pt" height="148.000000pt" viewBox="0 0 104.000000 148.000000"
 preserveAspectRatio="xMidYMid meet">
<metadata>
Created by potrace 1.16, written by Peter Selinger 2001-2019
</metadata>
<g transform="translate(0.000000,148.000000) scale(0.100000,-0.100000)"
fill="#000000" stroke="none">
<path d="M707 1387 c-9 -6 -35 -52 -58 -102 -23 -49 -62 -133 -86 -185 -25
-52 -58 -122 -73 -155 -15 -33 -74 -154 -130 -270 -56 -115 -123 -255 -149
-310 -26 -55 -67 -140 -91 -188 -34 -69 -41 -93 -33 -105 27 -43 41 -22 183
283 36 76 79 166 95 199 l30 61 90 7 c50 3 176 9 280 13 143 4 193 9 204 20
16 16 27 6 -214 205 -88 73 -164 136 -168 140 -5 4 5 34 21 66 75 151 142 292
142 301 0 21 -26 33 -43 20z m-34 -528 c62 -51 114 -96 115 -100 6 -15 -19
-10 -132 26 -60 19 -118 35 -128 35 -10 0 -21 6 -24 13 -4 12 41 117 51 117 3
0 56 -41 118 -91z m-88 -104 c50 -14 110 -30 134 -36 24 -5 52 -16 62 -23 17
-11 -8 -14 -163 -18 -101 -3 -186 -4 -190 -1 -11 6 40 103 55 103 6 0 53 -12
102 -25z"/>
</g>
</svg>
