<?xml version="1.0" standalone="no"?>
<!DOCTYPE svg PUBLIC "-//W3C//DTD SVG 20010904//EN"
 "http://www.w3.org/TR/2001/REC-SVG-20010904/DTD/svg10.dtd">
<svg version="1.0" xmlns="http://www.w3.org/2000/svg"
 width="264.000000pt" height="590.000000pt" viewBox="0 0 264.000000 590.000000"
 preserveAspectRatio="xMidYMid meet">
<metadata>
Created by potrace 1.16, written by Peter Selinger 2001-2019
</metadata>
<g transform="translate(0.000000,590.000000) scale(0.500000,-0.500000)"
fill="#000000" stroke="none">
<path d="M321 1140 c-8 -3 -13 -8 -14 -16 -2 -8 -8 -37 -24 -102 -6 -25 -13
-54 -16 -66 -3 -12 -7 -28 -9 -36 -2 -8 -8 -30 -12 -49 -4 -18 -12 -48 -16
-66 -4 -17 -10 -40 -12 -49 -2 -9 -6 -25 -8 -34 -2 -9 -7 -29 -10 -44 -7 -31
-11 -47 -21 -88 -4 -16 -9 -40 -13 -54 -11 -48 -52 -211 -62 -250 -6 -21 -11
-44 -12 -51 -1 -7 -4 -16 -6 -22 -6 -16 -12 -39 -12 -47 0 -4 -2 -11 -3 -15
-6 -15 -13 -38 -16 -54 -1 -9 -4 -20 -6 -26 -7 -19 1 -25 30 -25 32 0 32 0 41
38 2 10 6 24 7 31 3 13 11 47 17 75 2 9 6 26 8 36 2 10 7 33 11 50 8 39 11 47
16 48 4 1 20 -12 26 -22 8 -12 33 -38 42 -42 4 -3 14 -10 21 -16 6 -7 14 -12
15 -12 2 0 11 -7 21 -17 9 -9 21 -19 26 -21 5 -3 11 -7 13 -10 2 -2 7 -5 11
-5 4 -1 15 -5 24 -10 23 -11 31 -11 66 7 25 13 40 63 40 136 0 56 -1 60 -16
90 -4 8 -10 21 -14 28 -3 7 -9 17 -14 22 -4 5 -11 14 -16 21 -5 7 -15 19 -23
27 -8 8 -16 17 -17 20 -1 3 -6 9 -10 14 -5 5 -8 10 -8 11 0 2 -3 7 -8 12 -4 6
-9 14 -12 18 -4 8 -23 28 -32 34 -3 1 -9 8 -13 14 -4 5 -13 16 -22 24 -21 21
-21 19 -2 89 2 6 15 61 30 121 15 61 29 116 31 124 2 8 8 33 14 57 6 24 14 50
17 58 16 36 -7 56 -48 44z m-71 -555 c12 -6 25 -26 23 -34 -4 -15 -63 -83 -68
-78 -2 2 3 22 7 30 2 4 4 10 4 13 0 2 2 7 4 12 2 4 6 17 10 30 8 29 10 32 20
27z m67 -75 c8 -5 29 -24 31 -30 4 -9 2 -12 -53 -67 -59 -61 -58 -60 -73 -45
-21 21 -22 19 35 88 48 58 49 59 60 54z m62 -74 c4 -2 25 -36 26 -41 3 -10
-88 -105 -100 -105 -18 0 -34 30 -24 44 9 11 93 104 95 104 0 0 2 -1 3 -2z
m42 -94 c10 -6 21 -47 16 -60 -2 -5 -4 -13 -6 -18 -5 -18 -11 -23 -36 -29 -16
-4 -17 -4 -38 13 -19 15 -19 15 4 38 10 10 24 27 32 36 16 19 23 24 28 20z"/>
</g>
</svg>
