<?xml version="1.0" standalone="no"?>
<!DOCTYPE svg PUBLIC "-//W3C//DTD SVG 20010904//EN"
 "http://www.w3.org/TR/2001/REC-SVG-20010904/DTD/svg10.dtd">
<svg version="1.0" xmlns="http://www.w3.org/2000/svg"
 width="66.000000pt" height="148.000000pt" viewBox="0 0 66.000000 148.000000"
 preserveAspectRatio="xMidYMid meet">
<metadata>
Created by potrace 1.16, written by Peter Selinger 2001-2019
</metadata>
<g transform="translate(0.000000,148.000000) scale(0.100000,-0.100000)"
fill="#000000" stroke="none">
<path d="M385 1408 c-5 -14 -100 -410 -135 -558 -12 -52 -56 -228 -97 -390
-78 -306 -92 -365 -96 -390 -3 -20 71 -28 77 -8 5 15 38 161 61 270 18 83 32
96 56 52 19 -36 173 -159 218 -174 83 -27 130 36 131 173 0 87 -23 146 -84
215 -18 20 -43 53 -56 72 -13 19 -51 63 -84 97 l-59 63 67 267 c90 356 86 323
42 323 -20 0 -39 -6 -41 -12z m-63 -685 c10 -9 18 -24 18 -34 0 -18 -85 -118
-93 -109 -6 6 43 160 51 160 3 0 14 -7 24 -17z m98 -108 l24 -26 -76 -76 c-76
-76 -77 -77 -98 -58 -11 10 -20 22 -20 28 0 14 123 157 135 157 7 0 22 -11 35
-25z m72 -99 l16 -33 -64 -64 c-54 -53 -67 -62 -82 -53 -32 21 -24 43 40 114
35 38 66 70 69 70 3 0 13 -15 21 -34z m48 -116 c18 -44 -4 -101 -45 -112 -25
-6 -34 -3 -55 17 l-24 25 49 50 c27 27 52 50 56 50 4 0 12 -14 19 -30z"/>
</g>
</svg>
