<?xml version="1.0" standalone="no"?>
<!DOCTYPE svg PUBLIC "-//W3C//DTD SVG 20010904//EN"
 "http://www.w3.org/TR/2001/REC-SVG-20010904/DTD/svg10.dtd">
<svg version="1.0" xmlns="http://www.w3.org/2000/svg"
 width="45.000000pt" height="100.000000pt" viewBox="0 0 45.000000 100.000000"
 preserveAspectRatio="xMidYMid meet">
<metadata>
Created by potrace 1.16, written by Peter Selinger 2001-2019
</metadata>
<g transform="translate(0.000000,100.000000) scale(0.100000,-0.100000)"
fill="#000000" stroke="none">
<path d="M260 948 c-5 -13 -39 -149 -76 -303 -37 -154 -84 -345 -105 -423 -44
-162 -46 -180 -22 -189 27 -11 48 28 67 131 10 53 22 99 27 102 5 3 33 -17 61
-45 28 -28 70 -60 91 -70 36 -18 43 -18 67 -6 32 17 40 39 40 121 0 71 -20
107 -120 219 -61 69 -62 71 -56 115 3 25 25 114 47 199 34 126 39 155 28 162
-23 15 -39 10 -49 -13z m28 -540 c4 -20 -69 -98 -91 -98 -27 0 -20 28 20 76
36 45 65 54 71 22z m50 -70 c3 -17 -61 -88 -79 -88 -27 0 -19 34 17 71 39 40
57 45 62 17z"/>
</g>
</svg>
