<?xml version="1.0" standalone="no"?>
<!DOCTYPE svg PUBLIC "-//W3C//DTD SVG 20010904//EN"
 "http://www.w3.org/TR/2001/REC-SVG-20010904/DTD/svg10.dtd">
<svg version="1.0" xmlns="http://www.w3.org/2000/svg"
 width="36.000000pt" height="100.000000pt" viewBox="0 0 36.000000 100.000000"
 preserveAspectRatio="xMidYMid meet">
<metadata>
Created by potrace 1.16, written by Peter Selinger 2001-2019
</metadata>
<g transform="translate(0.000000,100.000000) scale(0.100000,-0.100000)"
fill="#000000" stroke="none">
<path d="M143 959 c-9 -9 -10 -44 -6 -123 l6 -111 -50 -42 c-51 -42 -51 -42
-58 -118 -10 -109 6 -166 59 -211 l41 -35 5 -142 5 -142 25 0 25 0 3 135 3
135 30 20 c17 11 42 40 57 65 24 40 27 55 26 135 0 78 -3 95 -24 127 -14 20
-39 44 -57 52 l-32 15 -3 123 c-3 115 -4 123 -23 126 -11 1 -26 -3 -32 -9z
m86 -344 c27 -31 31 -43 31 -93 0 -47 -6 -67 -30 -105 -36 -56 -63 -61 -105
-17 -22 23 -29 41 -33 84 -6 71 3 117 29 144 31 34 71 29 108 -13z"/>
</g>
</svg>
