<?xml version="1.0" standalone="no"?>
<!DOCTYPE svg PUBLIC "-//W3C//DTD SVG 20010904//EN"
 "http://www.w3.org/TR/2001/REC-SVG-20010904/DTD/svg10.dtd">
<svg version="1.0" xmlns="http://www.w3.org/2000/svg"
 width="54.000000pt" height="148.000000pt" viewBox="0 0 54.000000 148.000000"
 preserveAspectRatio="xMidYMid meet">
<metadata>
Created by potrace 1.16, written by Peter Selinger 2001-2019
</metadata>
<g transform="translate(0.000000,148.000000) scale(0.100000,-0.100000)"
fill="#000000" stroke="none">
<path d="M207 1407 c-6 -17 1 -284 8 -308 8 -23 -11 -59 -30 -59 -21 0 -111
-87 -125 -120 -16 -39 -10 -274 8 -292 6 -6 12 -22 12 -34 0 -24 55 -75 103
-97 15 -6 27 -19 28 -27 0 -8 1 -105 2 -215 l2 -200 40 0 40 0 0 197 0 198 25
17 c78 52 130 118 130 162 0 11 5 23 10 26 7 4 10 53 9 128 -2 112 -4 124 -26
150 -12 16 -23 35 -23 42 0 18 -57 65 -80 65 -39 0 -45 25 -45 204 l0 171 -41
3 c-28 2 -43 -1 -47 -11z m88 -447 c31 -12 58 -40 85 -92 29 -55 28 -165 -2
-211 -13 -19 -30 -48 -40 -65 -9 -17 -28 -38 -43 -48 -25 -16 -28 -16 -56 0
-16 10 -46 33 -67 52 l-37 34 0 128 c0 118 2 130 23 157 38 48 87 64 137 45z"/>
</g>
</svg>
