<?xml version="1.0" standalone="no"?>
<!DOCTYPE svg PUBLIC "-//W3C//DTD SVG 20010904//EN"
 "http://www.w3.org/TR/2001/REC-SVG-20010904/DTD/svg10.dtd">
<svg version="1.0" xmlns="http://www.w3.org/2000/svg"
 width="218.000000pt" height="590.000000pt" viewBox="0 0 218.000000 590.000000"
 preserveAspectRatio="xMidYMid meet">
<metadata>
Created by potrace 1.16, written by Peter Selinger 2001-2019
</metadata>
<g transform="translate(0.000000,590.000000) scale(0.500000,-0.500000)"
fill="#000000" stroke="none">
<path d="M179 1138 c-15 -8 -23 -53 -13 -73 7 -12 8 -47 2 -60 -6 -13 -6 -35
0 -48 8 -17 9 -92 1 -106 -6 -12 -8 -14 -17 -16 -11 -2 -28 -12 -32 -18 -2 -4
-11 -12 -20 -19 -18 -14 -39 -40 -50 -59 -4 -9 -5 -12 -5 -35 0 -14 -2 -30 -3
-36 -3 -17 -3 -115 1 -125 2 -4 4 -14 5 -21 2 -11 3 -14 10 -20 8 -7 8 -8 8
-20 0 -6 1 -14 2 -17 3 -7 38 -43 43 -43 1 0 12 -7 23 -15 12 -8 24 -16 28
-18 11 -5 13 -52 9 -253 -2 -93 -3 -90 39 -90 39 0 35 -14 35 135 0 69 -1 136
-2 148 -2 30 -3 28 43 60 8 6 17 14 20 19 4 5 10 10 16 13 12 6 17 12 20 24 2
7 5 13 10 18 15 16 15 16 16 35 1 16 2 18 8 26 12 16 15 125 4 143 -5 8 -5 9
-2 15 9 22 5 44 -15 67 -14 17 -19 26 -22 40 -4 17 -41 44 -63 46 -9 1 -12 3
-18 9 -4 4 -9 8 -12 10 -6 4 -6 3 -4 179 1 117 5 107 -36 107 -14 0 -27 -1
-29 -2z m33 -364 c3 -1 10 -3 17 -4 18 -3 32 -10 37 -20 3 -7 15 -19 27 -27 3
-2 6 -6 7 -12 1 -4 5 -11 8 -16 17 -21 18 -24 18 -87 l0 -58 -7 -6 c-14 -13
-17 -17 -22 -29 -23 -57 -71 -98 -93 -78 -5 4 -10 7 -12 7 -8 0 -17 6 -30 19
-7 7 -16 15 -19 16 -19 10 -27 24 -27 46 0 12 -1 18 -4 25 -6 13 -7 101 -1
112 2 5 4 12 4 25 2 25 2 26 14 39 6 6 12 14 14 18 3 9 11 15 20 17 4 1 13 4
21 8 16 7 22 8 28 5z"/>
</g>
</svg>
