<?xml version="1.0" standalone="no"?>
<!DOCTYPE svg PUBLIC "-//W3C//DTD SVG 20010904//EN"
 "http://www.w3.org/TR/2001/REC-SVG-20010904/DTD/svg10.dtd">
<svg version="1.0" xmlns="http://www.w3.org/2000/svg"
 width="58.000000pt" height="148.000000pt" viewBox="0 0 58.000000 148.000000"
 preserveAspectRatio="xMidYMid meet">
<metadata>
Created by potrace 1.16, written by Peter Selinger 2001-2019
</metadata>
<g transform="translate(0.000000,148.000000) scale(0.100000,-0.100000)"
fill="#000000" stroke="none">
<path d="M256 1423 c-3 -3 -6 -95 -6 -204 l0 -198 -29 -20 c-16 -12 -34 -21
-39 -21 -6 0 -28 -20 -49 -44 -65 -74 -83 -203 -40 -287 42 -81 77 -130 110
-149 l32 -20 5 -212 5 -213 35 0 35 0 0 213 0 214 49 27 c59 33 108 92 124
147 19 65 15 149 -9 197 -33 65 -96 144 -126 159 l-28 13 0 192 c0 105 -2 193
-5 196 -10 9 -57 16 -64 10z m47 -464 c34 -9 50 -21 81 -64 54 -75 66 -102 66
-145 0 -96 -93 -210 -172 -210 -60 0 -158 133 -158 213 1 55 29 117 75 158 20
19 42 39 48 46 15 15 10 15 60 2z"/>
<path d="M261 786 c-7 -8 -11 -27 -9 -43 6 -50 78 -40 78 11 0 41 -45 62 -69
32z"/>
</g>
</svg>
