<?xml version="1.0" standalone="no"?>
<!DOCTYPE svg PUBLIC "-//W3C//DTD SVG 20010904//EN"
 "http://www.w3.org/TR/2001/REC-SVG-20010904/DTD/svg10.dtd">
<svg version="1.0" xmlns="http://www.w3.org/2000/svg"
 width="39.000000pt" height="100.000000pt" viewBox="0 0 39.000000 100.000000"
 preserveAspectRatio="xMidYMid meet">
<metadata>
Created by potrace 1.16, written by Peter Selinger 2001-2019
</metadata>
<g transform="translate(0.000000,100.000000) scale(0.100000,-0.100000)"
fill="#000000" stroke="none">
<path d="M168 918 c-1 -24 0 -82 1 -130 l3 -86 -49 -36 c-55 -39 -72 -68 -80
-136 -4 -34 0 -59 14 -91 19 -43 76 -109 94 -109 5 0 9 -63 9 -144 0 -117 3
-145 15 -150 8 -3 22 2 31 11 14 14 16 30 10 102 -3 48 -4 107 0 132 5 40 11
49 49 72 53 34 75 78 75 149 0 63 -41 143 -91 179 l-32 22 6 106 c8 129 3 151
-29 151 -21 0 -24 -5 -26 -42z m62 -294 c81 -69 79 -185 -5 -240 -34 -22 -64
-9 -105 47 -48 67 -37 136 30 193 39 32 41 32 80 0z"/>
</g>
</svg>
