<?xml version="1.0" standalone="no"?>
<!DOCTYPE svg PUBLIC "-//W3C//DTD SVG 20010904//EN"
 "http://www.w3.org/TR/2001/REC-SVG-20010904/DTD/svg10.dtd">
<svg version="1.0" xmlns="http://www.w3.org/2000/svg"
 width="230.000000pt" height="590.000000pt" viewBox="0 0 230.000000 590.000000"
 preserveAspectRatio="xMidYMid meet">
<metadata>
Created by potrace 1.16, written by Peter Selinger 2001-2019
</metadata>
<g transform="translate(0.000000,590.000000) scale(0.500000,-0.500000)"
fill="#000000" stroke="none">
<path d="M213 1141 c-14 -3 -14 4 -12 -160 1 -181 5 -165 -47 -191 -21 -11
-41 -29 -62 -57 -17 -23 -18 -26 -26 -61 -2 -10 -6 -25 -8 -32 -12 -39 9 -122
43 -165 7 -10 16 -23 23 -36 8 -14 35 -39 52 -48 8 -4 16 -8 16 -10 1 -1 1
-74 1 -163 -2 -162 -2 -162 3 -167 9 -9 46 -9 56 0 4 5 4 5 3 167 l-2 162 7 6
c10 9 24 18 44 28 21 11 41 28 62 57 17 23 18 26 26 61 2 10 6 25 8 32 5 17 5
28 -1 67 -7 41 -22 74 -55 119 -4 5 -9 13 -12 18 -9 15 -33 36 -50 45 -21 10
-20 -3 -19 167 2 163 2 156 -11 160 -7 2 -30 2 -39 1z m9 -369 c3 -1 10 -3 17
-4 24 -4 39 -15 64 -48 6 -8 15 -18 19 -23 4 -4 14 -21 22 -36 l14 -29 0 -30
c0 -25 -1 -31 -4 -38 -2 -5 -4 -11 -4 -13 0 -8 -20 -44 -31 -57 -6 -7 -12 -14
-13 -16 -1 -2 -8 -7 -15 -11 -7 -4 -15 -10 -18 -14 -27 -36 -80 -21 -120 33
-5 7 -13 16 -17 21 -4 4 -14 21 -22 36 l-14 29 0 30 c0 25 1 31 4 38 2 5 4 11
4 13 0 7 20 44 29 55 6 6 12 13 14 16 1 3 9 9 16 13 7 4 14 9 16 12 4 5 29 25
33 25 1 0 4 -1 6 -2z"/>
<path d="M223 639 c-14 -5 -25 -22 -25 -39 0 -33 47 -45 62 -16 15 32 -7 66
-37 55z"/>
</g>
</svg>
