<?xml version="1.0" standalone="no"?>
<!DOCTYPE svg PUBLIC "-//W3C//DTD SVG 20010904//EN"
 "http://www.w3.org/TR/2001/REC-SVG-20010904/DTD/svg10.dtd">
<svg version="1.0" xmlns="http://www.w3.org/2000/svg"
 width="35.000000pt" height="100.000000pt" viewBox="0 0 35.000000 100.000000"
 preserveAspectRatio="xMidYMid meet">
<metadata>
Created by potrace 1.16, written by Peter Selinger 2001-2019
</metadata>
<g transform="translate(0.000000,100.000000) scale(0.100000,-0.100000)"
fill="#000000" stroke="none">
<path d="M107 928 c-61 -65 -86 -161 -67 -255 10 -50 19 -65 66 -109 l54 -52
2 -233 3 -234 24 -3 c13 -2 28 2 32 10 5 7 9 117 9 245 l0 232 29 33 c44 52
51 72 51 155 0 65 -5 88 -29 139 -50 106 -115 133 -174 72z m95 -45 c36 -42
58 -102 58 -163 0 -66 -14 -102 -54 -139 l-25 -24 -40 39 c-58 58 -73 127 -46
203 31 89 73 122 107 84z"/>
<path d="M146 798 c-21 -30 -21 -116 0 -146 34 -49 84 -6 84 73 0 79 -50 122
-84 73z m49 -79 c0 -41 -4 -54 -15 -54 -16 0 -27 73 -16 102 13 33 31 5 31
-48z"/>
</g>
</svg>
