<?xml version="1.0" standalone="no"?>
<!DOCTYPE svg PUBLIC "-//W3C//DTD SVG 20010904//EN"
 "http://www.w3.org/TR/2001/REC-SVG-20010904/DTD/svg10.dtd">
<svg version="1.0" xmlns="http://www.w3.org/2000/svg"
 width="208.000000pt" height="590.000000pt" viewBox="0 0 208.000000 590.000000"
 preserveAspectRatio="xMidYMid meet">
<metadata>
Created by potrace 1.16, written by Peter Selinger 2001-2019
</metadata>
<g transform="translate(0.000000,590.000000) scale(0.500000,-0.500000)"
fill="#000000" stroke="none">
<path d="M192 1134 c-12 -7 -27 -14 -29 -14 -7 0 -47 -43 -63 -67 -46 -67 -73
-179 -55 -231 3 -8 5 -19 5 -24 0 -22 24 -73 44 -95 7 -7 15 -18 18 -22 5 -10
28 -26 62 -44 7 -4 14 -8 16 -10 2 -2 2 -48 2 -250 -1 -137 -1 -263 -1 -281 0
-34 0 -34 5 -39 17 -16 66 -12 76 7 3 7 2 160 -2 174 -4 17 0 387 5 394 1 2 8
8 15 15 18 17 23 23 34 41 5 9 13 20 17 25 19 23 26 41 27 71 1 15 2 30 4 34
3 10 3 33 -1 47 -2 8 -3 16 -2 23 2 14 -1 33 -8 56 -3 9 -7 23 -9 31 -3 8 -10
24 -17 36 -7 12 -15 27 -17 34 -6 18 -36 53 -57 66 -3 2 -10 7 -14 10 -19 16
-42 21 -55 13z m40 -76 c10 -9 21 -18 24 -20 2 -2 7 -11 11 -20 11 -23 14 -30
23 -44 22 -36 36 -116 26 -148 -1 -4 -3 -18 -4 -31 -2 -32 -12 -55 -34 -79 -3
-5 -10 -12 -14 -18 -4 -5 -10 -13 -13 -18 -11 -15 -21 -18 -40 -10 -9 3 -19 7
-22 9 -12 4 -45 38 -54 56 -5 9 -13 24 -18 34 -11 21 -15 34 -15 47 0 6 -3 19
-6 29 -6 19 -6 21 -4 31 1 6 3 15 4 20 5 27 18 67 27 80 3 4 7 12 9 18 2 5 6
13 9 18 4 5 8 13 11 17 5 10 33 38 42 42 13 5 17 4 38 -13z"/>
<path d="M206 972 c-68 -22 -69 -203 -3 -231 15 -6 30 -1 45 17 13 13 16 21
28 68 3 12 2 55 -1 65 -2 5 -4 13 -5 18 -8 42 -38 72 -64 63z m22 -33 c28 -24
29 -135 2 -163 -14 -16 -31 -8 -40 19 -23 74 3 173 38 144z"/>
</g>
</svg>
