<?xml version="1.0" standalone="no"?>
<!DOCTYPE svg PUBLIC "-//W3C//DTD SVG 20010904//EN"
 "http://www.w3.org/TR/2001/REC-SVG-20010904/DTD/svg10.dtd">
<svg version="1.0" xmlns="http://www.w3.org/2000/svg"
 width="78.000000pt" height="152.000000pt" viewBox="0 0 78.000000 152.000000"
 preserveAspectRatio="xMidYMid meet">
<metadata>
Created by potrace 1.16, written by Peter Selinger 2001-2019
</metadata>
<g transform="translate(0.000000,152.000000) scale(0.100000,-0.100000)"
fill="#000000" stroke="none">
<path d="M360 1465 c-10 -12 -12 -44 -7 -138 6 -112 5 -125 -12 -139 -10 -9
-23 -13 -28 -9 -11 7 -59 88 -93 154 -20 41 -28 48 -49 45 -41 -5 -37 -32 17
-116 84 -131 86 -138 65 -174 -10 -17 -23 -33 -28 -35 -6 -2 -42 35 -80 82
-49 59 -77 84 -92 85 -19 0 -23 -5 -23 -27 1 -21 21 -49 75 -108 41 -43 75
-83 75 -88 0 -5 -14 -25 -30 -44 -17 -18 -30 -40 -30 -49 0 -16 58 -98 106
-150 16 -17 50 -59 76 -92 l47 -61 3 -278 3 -278 40 0 40 0 2 278 2 278 38 47
c46 57 153 215 153 227 0 4 -14 30 -31 57 l-32 49 21 27 c18 22 106 141 146
197 12 16 1 44 -20 52 -20 8 -36 -10 -118 -136 -32 -50 -63 -91 -67 -91 -12 0
-49 51 -49 69 0 9 7 26 15 38 28 40 115 218 115 235 0 21 -31 40 -48 29 -7 -4
-23 -34 -36 -67 -64 -161 -77 -184 -98 -173 -17 9 -19 21 -16 162 3 148 2 152
-18 155 -11 2 -27 -4 -34 -13z m84 -437 c35 -51 74 -106 87 -122 15 -19 19
-32 13 -41 -5 -7 -31 -45 -59 -85 -62 -89 -92 -127 -98 -120 -2 3 -25 33 -50
67 -25 34 -66 87 -92 118 l-48 55 24 33 c13 18 49 68 79 110 30 42 60 76 67
76 7 1 41 -41 77 -91z"/>
</g>
</svg>
