<?xml version="1.0" standalone="no"?>
<!DOCTYPE svg PUBLIC "-//W3C//DTD SVG 20010904//EN"
 "http://www.w3.org/TR/2001/REC-SVG-20010904/DTD/svg10.dtd">
<svg version="1.0" xmlns="http://www.w3.org/2000/svg"
 width="314.000000pt" height="610.000000pt" viewBox="0 0 314.000000 610.000000"
 preserveAspectRatio="xMidYMid meet">
<metadata>
Created by potrace 1.16, written by Peter Selinger 2001-2019
</metadata>
<g transform="translate(0.000000,610.000000) scale(0.500000,-0.500000)"
fill="#000000" stroke="none">
<path d="M296 1184 c-11 -7 -11 -6 -9 -106 2 -106 3 -103 -10 -115 -20 -17
-20 -17 -38 10 -20 30 -25 40 -36 61 -6 11 -12 22 -14 24 -1 2 -4 7 -6 12 -13
37 -36 54 -55 42 -19 -12 -18 -35 4 -65 4 -7 13 -20 19 -29 6 -9 14 -21 17
-25 4 -5 8 -14 11 -19 5 -11 12 -21 19 -29 2 -2 6 -11 9 -19 3 -8 7 -15 8 -16
4 -3 4 -12 -1 -17 -2 -2 -5 -8 -7 -14 -8 -23 -28 -35 -38 -22 -12 15 -27 32
-34 40 -5 5 -9 10 -9 11 0 1 -10 12 -22 25 -12 13 -22 24 -22 25 0 3 -27 30
-30 30 -32 0 -38 -34 -12 -61 6 -6 20 -20 30 -32 10 -12 26 -29 34 -38 8 -9
17 -19 19 -22 2 -3 8 -10 13 -16 13 -14 13 -20 -2 -32 -3 -3 -8 -8 -9 -12 -2
-3 -7 -10 -11 -15 -18 -22 -20 -43 -4 -59 10 -10 23 -28 33 -45 3 -6 8 -12 12
-15 4 -3 11 -11 15 -17 5 -7 14 -16 20 -22 7 -6 18 -19 28 -34 9 -14 22 -31
29 -38 41 -45 38 -26 39 -208 1 -83 2 -155 3 -159 1 -5 0 -12 -1 -15 -18 -58
-2 -114 34 -114 40 0 35 -31 35 226 l0 219 8 11 c4 6 10 14 14 18 4 4 8 11 11
15 2 4 9 13 15 20 15 14 23 27 27 39 1 5 4 9 7 11 3 2 7 7 8 11 2 4 6 10 10
15 3 4 12 17 19 27 7 10 16 23 20 28 19 22 19 45 2 61 -3 3 -9 12 -12 19 -4 7
-8 15 -11 18 -11 12 -10 25 2 40 4 4 8 10 11 14 3 4 10 11 15 17 5 5 11 13 12
16 2 4 4 7 6 9 1 1 5 7 8 12 5 8 14 21 27 37 3 3 11 14 17 23 6 9 14 19 17 22
6 8 8 26 3 36 -15 28 -52 11 -69 -31 -4 -11 -12 -24 -30 -48 -7 -9 -15 -21
-19 -28 -5 -6 -12 -16 -16 -22 -5 -6 -10 -12 -11 -15 -10 -19 -21 -24 -29 -12
-3 4 -9 11 -13 15 -19 22 -16 42 14 87 4 5 8 13 9 17 2 4 10 21 19 37 34 63
38 72 42 86 6 22 6 31 -4 40 -16 16 -46 5 -46 -17 0 -1 -2 -6 -5 -10 -5 -7
-11 -25 -11 -32 0 -3 -5 -15 -11 -27 -21 -43 -27 -55 -28 -60 -1 -2 -4 -8 -8
-13 -3 -4 -8 -12 -10 -18 -5 -14 -8 -16 -15 -12 -15 9 -15 7 -14 86 2 137 2
161 -3 164 -6 5 -30 4 -39 -1z m12 -284 c3 -2 12 -13 41 -58 6 -8 13 -18 16
-22 3 -4 10 -13 15 -21 5 -8 12 -17 15 -21 3 -4 9 -13 14 -21 6 -8 12 -17 15
-20 21 -26 21 -34 -1 -62 -7 -9 -24 -33 -41 -57 -6 -10 -15 -22 -18 -26 -4 -5
-11 -15 -16 -23 -21 -32 -29 -36 -38 -23 -2 4 -8 12 -13 18 -17 21 -30 37 -36
45 -3 4 -8 11 -12 15 -3 4 -11 15 -18 23 -7 9 -16 20 -21 26 -5 5 -11 13 -14
17 -3 4 -9 11 -13 16 -16 17 -17 28 -5 41 4 4 10 12 13 16 3 4 9 13 14 20 5 7
11 16 14 20 3 4 8 11 11 14 5 6 23 29 41 55 19 26 28 33 37 28z"/>
</g>
</svg>
