<?xml version="1.0" standalone="no"?>
<!DOCTYPE svg PUBLIC "-//W3C//DTD SVG 20010904//EN"
 "http://www.w3.org/TR/2001/REC-SVG-20010904/DTD/svg10.dtd">
<svg version="1.0" xmlns="http://www.w3.org/2000/svg"
 width="49.000000pt" height="100.000000pt" viewBox="0 0 49.000000 100.000000"
 preserveAspectRatio="xMidYMid meet">
<metadata>
Created by potrace 1.16, written by Peter Selinger 2001-2019
</metadata>
<g transform="translate(0.000000,100.000000) scale(0.100000,-0.100000)"
fill="#000000" stroke="none">
<path d="M211 942 c-33 -63 -31 -214 5 -270 20 -31 10 -42 -39 -42 -43 0 -126
-32 -139 -53 -34 -54 46 -137 131 -137 45 0 51 -16 35 -93 -30 -144 -53 -289
-47 -303 3 -9 16 -14 31 -12 29 3 23 -24 65 292 l12 89 70 14 c77 15 118 39
123 70 4 26 -77 99 -119 108 -40 9 -44 20 -20 59 31 49 29 151 -4 215 -13 27
-31 56 -40 65 -22 21 -52 20 -64 -2z m74 -157 c11 -109 -19 -145 -42 -49 -15
66 -16 117 -1 132 20 20 35 -9 43 -83z m-45 -227 c0 -83 -15 -91 -99 -57 -71
30 -69 52 7 71 88 23 92 23 92 -14z m119 -24 c47 -39 43 -45 -41 -60 l-38 -6
0 39 c0 22 3 43 7 46 13 14 42 6 72 -19z"/>
</g>
</svg>
