<?xml version="1.0" standalone="no"?>
<!DOCTYPE svg PUBLIC "-//W3C//DTD SVG 20010904//EN"
 "http://www.w3.org/TR/2001/REC-SVG-20010904/DTD/svg10.dtd">
<svg version="1.0" xmlns="http://www.w3.org/2000/svg"
 width="72.000000pt" height="148.000000pt" viewBox="0 0 72.000000 148.000000"
 preserveAspectRatio="xMidYMid meet">
<metadata>
Created by potrace 1.16, written by Peter Selinger 2001-2019
</metadata>
<g transform="translate(0.000000,148.000000) scale(0.100000,-0.100000)"
fill="#000000" stroke="none">
<path d="M317 1391 c-38 -65 -47 -171 -26 -305 9 -60 18 -86 36 -104 36 -36
25 -47 -49 -49 -37 -1 -80 -8 -97 -17 -16 -9 -37 -16 -46 -16 -28 0 -83 -50
-90 -81 -11 -48 31 -101 109 -138 36 -18 80 -31 102 -31 59 0 67 -9 61 -68 -3
-28 -9 -57 -13 -64 -4 -7 -9 -34 -11 -59 -1 -26 -9 -67 -17 -91 -8 -23 -17
-72 -21 -108 -3 -36 -11 -70 -16 -77 -6 -6 -9 -38 -7 -70 3 -57 3 -58 36 -61
27 -3 34 1 42 23 6 14 10 46 10 70 0 24 4 65 9 92 21 106 40 232 47 305 7 82
19 97 64 83 10 -3 33 1 49 9 17 9 47 16 68 16 28 0 48 8 76 31 40 33 47 61 22
96 -24 34 -132 111 -167 118 -58 13 -61 21 -27 81 26 47 30 66 33 147 3 77 0
100 -17 137 -12 25 -25 47 -29 48 -4 2 -8 13 -8 23 0 23 -67 89 -90 89 -9 0
-23 -13 -33 -29z m83 -113 c17 -28 20 -51 20 -154 0 -66 -3 -123 -6 -127 -4
-3 -16 1 -29 9 -15 10 -22 25 -23 49 -1 19 -6 44 -12 54 -13 25 -13 157 0 182
15 27 27 24 50 -13z m-47 -443 c-1 -22 -3 -62 -5 -89 l-3 -48 -42 5 c-47 5
-179 65 -187 85 -11 25 7 41 55 51 28 6 58 11 68 11 10 0 32 7 47 15 16 8 38
14 49 13 17 -3 20 -10 18 -43z m145 -19 c20 -13 50 -35 67 -50 29 -25 29 -26
10 -40 -20 -15 -38 -19 -129 -32 l-49 -7 8 69 c4 38 9 72 12 77 8 14 44 7 81
-17z"/>
</g>
</svg>
