<?xml version="1.0" standalone="no"?>
<!DOCTYPE svg PUBLIC "-//W3C//DTD SVG 20010904//EN"
 "http://www.w3.org/TR/2001/REC-SVG-20010904/DTD/svg10.dtd">
<svg version="1.0" xmlns="http://www.w3.org/2000/svg"
 width="290.000000pt" height="590.000000pt" viewBox="0 0 290.000000 590.000000"
 preserveAspectRatio="xMidYMid meet">
<metadata>
Created by potrace 1.16, written by Peter Selinger 2001-2019
</metadata>
<g transform="translate(0.000000,590.000000) scale(0.500000,-0.500000)"
fill="#000000" stroke="none">
<path d="M277 1136 c-5 -1 -8 -5 -13 -13 -4 -5 -10 -15 -15 -21 -6 -8 -8 -12
-9 -23 -1 -6 -2 -14 -4 -17 -1 -2 -3 -12 -4 -23 -1 -10 -2 -20 -4 -22 -1 -3
-2 -12 -2 -21 0 -8 -1 -20 -3 -26 -4 -12 -3 -16 5 -42 5 -15 6 -22 6 -38 0
-15 1 -22 4 -28 3 -6 4 -14 4 -24 0 -23 3 -32 10 -38 40 -34 30 -68 -15 -53
-13 4 -22 4 -29 0 -3 -2 -11 -3 -22 -3 -19 0 -38 -6 -52 -15 -6 -4 -22 -9 -41
-12 -5 -1 -10 -4 -15 -8 -4 -4 -13 -12 -20 -18 -27 -26 -29 -59 -5 -92 6 -7
12 -15 14 -18 2 -3 7 -7 11 -9 4 -2 11 -7 15 -12 6 -6 11 -9 25 -13 33 -10 41
-13 47 -19 7 -6 7 -6 35 -6 52 0 71 -14 60 -43 -1 -3 -3 -16 -4 -28 -1 -21 -2
-23 -7 -30 -6 -6 -7 -8 -8 -30 0 -13 -2 -27 -3 -30 -4 -11 -6 -20 -6 -29 0 -5
-1 -13 -3 -17 -1 -5 -3 -12 -4 -17 -1 -5 -4 -13 -7 -18 -6 -9 -7 -11 -8 -41
-1 -18 -3 -36 -4 -41 -1 -5 -2 -14 -2 -21 0 -10 -1 -13 -8 -23 -9 -14 -12
-101 -2 -108 6 -6 45 -6 52 0 7 6 14 35 14 59 0 21 6 65 12 88 2 8 4 21 4 29
0 8 1 21 3 29 2 8 4 20 5 28 1 8 4 18 6 22 3 6 4 12 4 23 0 10 1 20 4 28 3 10
4 18 4 39 0 15 1 33 3 40 1 8 3 22 4 33 3 35 6 38 48 36 26 -1 26 -1 32 5 10
8 30 13 61 15 40 2 39 2 73 34 24 22 28 46 11 65 -3 4 -6 9 -7 11 -1 2 -5 6
-9 8 -4 2 -8 6 -10 10 -2 4 -6 8 -15 13 -7 4 -15 11 -19 15 -3 4 -8 8 -11 9
-10 3 -17 8 -22 15 -3 4 -7 8 -9 8 -1 0 -7 2 -11 3 -4 2 -15 5 -24 7 -30 8
-31 8 -35 15 -5 8 -5 15 0 22 2 3 8 13 12 22 5 9 10 19 13 22 21 26 21 192 0
214 -3 4 -6 10 -7 16 -2 8 -4 12 -11 19 -8 9 -10 13 -17 38 -2 6 -4 9 -8 12
-4 2 -14 11 -24 20 -21 21 -26 23 -43 18z m35 -99 c1 -2 5 -6 7 -9 8 -8 15
-25 17 -38 1 -7 3 -18 4 -25 3 -17 3 -144 0 -152 -5 -14 -11 -16 -21 -7 -4 3
-8 6 -10 6 -5 0 -9 7 -10 19 -1 6 -3 14 -4 18 -2 4 -3 13 -3 20 0 10 -1 14 -5
19 -8 12 -9 15 -10 48 -2 80 17 136 35 101z m-32 -338 c13 -9 16 -20 11 -36
-1 -5 -3 -16 -4 -24 0 -8 -2 -17 -4 -21 -2 -4 -3 -11 -3 -22 0 -35 -2 -38 -25
-33 -8 1 -21 3 -29 4 -16 1 -29 6 -47 18 -5 4 -13 8 -16 9 -3 2 -10 5 -15 8
-5 3 -16 8 -24 10 -44 14 -31 58 18 58 5 0 13 2 17 4 6 3 17 4 35 6 26 2 27 2
33 8 12 11 43 17 53 11z m104 -37 c5 -5 10 -8 15 -9 18 -3 50 -27 58 -43 2 -3
7 -8 11 -10 9 -5 9 -7 0 -13 -4 -2 -9 -6 -11 -8 -3 -3 -7 -5 -10 -6 -3 -1 -10
-3 -15 -4 -6 -2 -18 -4 -27 -5 -28 -3 -53 -6 -64 -8 -13 -3 -13 -2 -12 25 3
80 9 93 39 90 7 -1 10 -3 16 -9z"/>
</g>
</svg>
