<?xml version="1.0" standalone="no"?>
<!DOCTYPE svg PUBLIC "-//W3C//DTD SVG 20010904//EN"
 "http://www.w3.org/TR/2001/REC-SVG-20010904/DTD/svg10.dtd">
<svg version="1.0" xmlns="http://www.w3.org/2000/svg"
 width="482.000000pt" height="590.000000pt" viewBox="0 0 482.000000 590.000000"
 preserveAspectRatio="xMidYMid meet">
<metadata>
Created by potrace 1.16, written by Peter Selinger 2001-2019
</metadata>
<g transform="translate(0.000000,590.000000) scale(0.500000,-0.500000)"
fill="#000000" stroke="none">
<path d="M232 1136 c-10 -6 -22 -44 -22 -68 0 -3 -1 -11 -3 -18 -1 -6 -4 -18
-5 -26 -1 -8 -3 -22 -5 -30 -2 -8 -3 -18 -3 -21 0 -3 -1 -11 -3 -17 -1 -6 -4
-18 -5 -26 -4 -27 -8 -51 -11 -61 -2 -6 -3 -13 -3 -16 0 -3 -2 -15 -4 -26 -2
-11 -5 -26 -6 -34 -1 -8 -3 -18 -4 -22 -1 -4 -3 -17 -5 -28 -2 -11 -4 -26 -6
-34 -2 -8 -4 -20 -5 -28 -1 -8 -4 -20 -5 -28 -2 -8 -3 -17 -3 -20 0 -4 -1 -11
-3 -16 -1 -6 -4 -19 -6 -30 -5 -27 -9 -48 -12 -61 -2 -6 -3 -14 -3 -17 0 -7
-3 -26 -7 -40 -2 -6 -3 -14 -3 -17 0 -4 -1 -12 -3 -18 -1 -6 -4 -20 -6 -31 -2
-11 -5 -32 -8 -46 -3 -14 -6 -34 -8 -43 -2 -9 -3 -20 -3 -23 0 -3 -1 -10 -3
-16 -1 -5 -4 -19 -6 -30 -2 -11 -5 -29 -7 -41 -3 -12 -6 -28 -7 -36 -1 -8 -4
-24 -7 -36 -11 -54 -5 -75 22 -76 31 -1 35 6 40 65 1 11 2 18 5 22 4 6 7 27
11 63 2 27 6 52 9 64 2 6 3 14 3 17 0 3 2 10 5 14 4 6 5 11 5 21 0 7 1 18 3
23 2 6 3 13 3 17 0 15 11 80 16 98 3 7 5 22 6 33 1 11 2 21 3 23 0 2 2 10 3
18 1 8 3 22 5 31 2 9 4 21 5 28 1 7 3 17 4 24 4 19 6 31 9 53 2 12 4 27 6 34
2 7 4 22 6 32 2 10 5 27 7 37 2 10 5 23 6 29 1 6 4 21 6 33 3 12 6 29 7 38 2
9 4 19 5 23 1 4 3 14 4 22 1 8 3 22 5 30 2 8 4 20 5 26 5 29 15 81 19 98 13
51 -9 84 -43 64z"/>
<path d="M479 1136 c-4 -2 -10 -3 -13 -3 -7 -2 -12 -8 -12 -16 0 -3 -3 -11 -6
-18 -4 -8 -6 -15 -6 -21 0 -6 -2 -13 -5 -18 -3 -7 -5 -13 -5 -19 0 -6 -1 -15
-3 -22 -2 -6 -3 -18 -3 -26 0 -8 -1 -18 -2 -22 -2 -7 -1 -12 3 -28 4 -14 5
-24 5 -39 0 -17 1 -20 5 -29 5 -8 6 -14 7 -30 1 -17 2 -22 6 -27 29 -40 33
-69 9 -64 -32 6 -95 1 -134 -11 -49 -15 -94 -71 -81 -98 2 -4 4 -9 4 -11 0 -5
18 -34 22 -36 3 -1 10 -7 16 -13 36 -33 79 -53 128 -61 41 -6 45 -9 40 -32 -1
-5 -3 -17 -5 -27 -2 -9 -3 -18 -4 -19 -1 -2 -2 -9 -3 -18 -2 -16 -4 -31 -9
-51 -2 -7 -3 -17 -3 -23 0 -5 -1 -12 -2 -15 -1 -3 -3 -13 -4 -21 -1 -10 -3
-18 -6 -23 -4 -7 -5 -11 -6 -37 -1 -24 -2 -30 -5 -35 -3 -4 -4 -11 -5 -23 -1
-11 -3 -21 -6 -30 -12 -28 -11 -114 1 -121 29 -19 52 0 56 46 1 16 6 51 10 73
2 9 4 25 5 34 3 26 7 53 9 56 1 1 2 10 3 20 4 37 6 53 8 60 1 4 2 11 2 15 0 5
1 11 2 14 1 3 3 15 4 25 1 10 3 26 4 34 1 8 3 23 4 33 1 11 3 22 4 26 1 5 2
11 2 14 0 13 3 14 54 13 45 0 45 0 69 6 13 3 27 6 31 6 16 0 46 24 52 41 1 5
5 12 7 16 6 9 7 29 2 36 -6 11 -57 64 -69 72 -5 3 -14 10 -20 16 -7 6 -15 12
-19 13 -5 1 -13 5 -20 9 -7 4 -17 8 -24 10 -28 8 -31 12 -20 28 4 5 11 17 16
25 6 8 13 18 16 23 12 19 20 78 13 104 -1 4 -3 19 -4 33 -4 59 -26 119 -57
152 -8 8 -18 20 -23 26 -10 11 -16 12 -35 8z m34 -96 c2 -4 6 -10 7 -14 2 -4
5 -11 8 -17 13 -23 19 -155 8 -178 -16 -35 -32 -27 -40 21 -3 15 -5 140 -2
155 4 27 6 35 7 37 2 4 7 2 12 -4z m-32 -339 c4 -4 5 -15 3 -26 -4 -19 -8 -44
-10 -60 -2 -18 -7 -41 -11 -45 -4 -5 -79 11 -91 20 -3 2 -11 8 -19 12 -18 11
-44 37 -47 47 -6 18 8 37 26 37 4 0 12 1 18 3 22 5 32 7 48 7 11 0 17 1 22 4
9 5 56 6 61 1z m88 -15 c3 -1 10 -6 14 -11 5 -5 11 -9 14 -10 17 -3 67 -49 67
-60 0 -16 -25 -29 -60 -33 -34 -4 -70 -8 -73 -9 -1 -1 -4 0 -7 3 -6 6 -6 12 3
58 2 8 3 19 3 24 0 32 16 47 39 38z"/>
<path d="M694 1130 c-7 -7 -8 -40 -1 -73 2 -10 4 -24 6 -32 1 -9 4 -21 5 -27
1 -6 3 -18 4 -26 1 -8 3 -19 4 -25 2 -10 7 -37 10 -56 1 -5 3 -17 4 -25 1 -8
3 -21 5 -28 1 -7 4 -21 6 -31 2 -10 4 -22 5 -28 2 -9 3 -15 8 -47 1 -7 3 -17
4 -23 1 -5 3 -19 5 -30 2 -11 4 -27 6 -35 2 -8 4 -24 6 -36 2 -12 4 -25 5 -31
3 -14 6 -38 8 -51 5 -38 6 -46 8 -51 1 -3 2 -9 2 -12 0 -4 1 -13 3 -21 1 -8 4
-23 5 -33 1 -10 4 -24 5 -32 2 -8 4 -23 6 -33 2 -10 4 -23 5 -27 1 -4 2 -14 3
-21 1 -7 2 -15 3 -18 1 -3 3 -11 4 -18 1 -7 3 -22 5 -32 2 -10 4 -25 5 -33 1
-8 2 -16 3 -17 1 -2 2 -9 3 -17 3 -27 6 -45 8 -50 1 -3 2 -9 2 -14 0 -32 10
-46 34 -46 26 0 36 24 26 64 -1 5 -3 14 -4 21 -3 19 -7 45 -10 58 -1 6 -3 18
-4 26 -1 8 -3 20 -4 26 -2 6 -3 16 -4 23 -1 7 -2 16 -4 21 -2 8 -3 15 -8 51
-1 7 -3 19 -5 27 -4 19 -9 48 -10 59 -1 4 -2 14 -4 22 -4 19 -7 37 -9 52 -4
26 -6 41 -9 53 -2 7 -4 22 -6 33 -2 11 -4 24 -5 28 -1 5 -2 12 -2 15 0 4 -1
12 -3 19 -3 12 -6 32 -9 54 -1 7 -3 21 -5 31 -7 43 -9 54 -11 67 -1 8 -2 16
-3 17 -1 1 -2 8 -3 16 -1 12 -6 38 -12 70 -1 6 -3 17 -4 25 -1 8 -2 16 -3 17
-1 2 -2 9 -3 16 -3 27 -6 49 -8 52 -1 2 -2 7 -2 11 0 5 -1 12 -2 16 -1 4 -3
14 -4 22 -1 8 -3 22 -4 31 -3 21 -10 37 -17 40 -12 5 -33 3 -39 -4z"/>
</g>
</svg>
