<?xml version="1.0" standalone="no"?>
<!DOCTYPE svg PUBLIC "-//W3C//DTD SVG 20010904//EN"
 "http://www.w3.org/TR/2001/REC-SVG-20010904/DTD/svg10.dtd">
<svg version="1.0" xmlns="http://www.w3.org/2000/svg"
 width="120.000000pt" height="148.000000pt" viewBox="0 0 120.000000 148.000000"
 preserveAspectRatio="xMidYMid meet">
<metadata>
Created by potrace 1.16, written by Peter Selinger 2001-2019
</metadata>
<g transform="translate(0.000000,148.000000) scale(0.100000,-0.100000)"
fill="#000000" stroke="none">
<path d="M275 1408 c-3 -7 -17 -80 -31 -163 -14 -82 -35 -199 -45 -260 -11
-60 -24 -135 -29 -165 -5 -30 -14 -80 -20 -110 -6 -30 -17 -92 -25 -137 -8
-46 -22 -120 -30 -165 -8 -46 -21 -121 -29 -168 -9 -47 -16 -104 -16 -128 0
-43 0 -43 32 -40 31 3 33 6 40 53 22 154 30 204 39 237 5 20 14 67 19 105 5
37 13 93 19 123 5 30 23 132 40 225 32 184 66 370 82 450 5 28 12 74 16 103
l5 52 -31 0 c-17 0 -34 -6 -36 -12z"/>
<path d="M566 1412 c-2 -4 -7 -25 -11 -47 -4 -22 -12 -45 -17 -52 -13 -16 -12
-203 1 -216 6 -6 11 -24 11 -39 0 -16 12 -47 26 -69 14 -23 23 -44 19 -47 -3
-4 -41 -5 -83 -3 -105 3 -154 -17 -196 -81 -24 -36 -14 -77 27 -115 54 -51 90
-70 152 -84 56 -12 79 -25 70 -39 -2 -3 -11 -53 -20 -110 -9 -58 -20 -121 -25
-140 -18 -77 -34 -188 -34 -250 -1 -64 0 -65 26 -68 33 -4 48 25 48 89 0 22 4
59 9 82 5 23 15 78 21 122 6 44 15 107 20 140 5 33 12 81 15 106 l6 46 92 5
c51 3 103 10 115 17 27 14 62 68 62 95 0 30 -121 140 -171 156 -24 7 -48 17
-52 21 -5 4 8 32 29 63 l37 56 -7 96 c-8 110 -32 182 -77 237 -22 27 -38 37
-59 37 -16 0 -31 -3 -34 -8z m89 -146 c13 -33 16 -68 13 -145 -3 -110 -16
-139 -42 -99 -12 19 -16 53 -17 151 -1 161 11 185 46 93z m-55 -403 c0 -25
-20 -145 -26 -154 -14 -23 -172 50 -194 90 -22 42 -3 57 88 70 100 15 132 13
132 -6z m142 -32 c24 -16 54 -41 67 -55 22 -24 23 -28 10 -42 -9 -8 -45 -19
-80 -24 -105 -16 -100 -19 -92 53 10 106 24 116 95 68z"/>
<path d="M853 1403 c-4 -9 1 -53 10 -97 9 -45 19 -101 22 -126 4 -25 24 -144
45 -265 21 -121 43 -256 50 -300 7 -44 20 -127 30 -185 11 -58 24 -141 30
-185 7 -44 17 -102 23 -130 11 -46 14 -50 42 -50 28 0 30 3 29 35 0 19 -10 89
-22 155 -44 254 -102 594 -111 656 -17 113 -81 484 -86 497 -7 18 -55 15 -62
-5z"/>
</g>
</svg>
