<?xml version="1.0" standalone="no"?>
<!DOCTYPE svg PUBLIC "-//W3C//DTD SVG 20010904//EN"
 "http://www.w3.org/TR/2001/REC-SVG-20010904/DTD/svg10.dtd">
<svg version="1.0" xmlns="http://www.w3.org/2000/svg"
 width="81.000000pt" height="100.000000pt" viewBox="0 0 81.000000 100.000000"
 preserveAspectRatio="xMidYMid meet">
<metadata>
Created by potrace 1.16, written by Peter Selinger 2001-2019
</metadata>
<g transform="translate(0.000000,100.000000) scale(0.100000,-0.100000)"
fill="#000000" stroke="none">
<path d="M113 934 c-3 -9 3 -53 13 -97 27 -117 24 -226 -10 -372 -26 -111 -28
-130 -23 -259 5 -108 10 -143 22 -155 12 -12 19 -13 33 -4 9 6 16 16 14 23 -1
6 -8 56 -14 110 -12 106 -8 151 32 335 11 50 20 122 20 161 0 74 -24 224 -41
256 -12 22 -38 23 -46 2z"/>
<path d="M379 935 c-31 -17 -76 -80 -89 -126 -30 -103 4 -226 75 -267 l35 -21
0 -224 c0 -240 4 -262 48 -251 l22 6 0 230 0 230 34 40 c83 96 68 265 -31 364
-37 37 -54 41 -94 19z m94 -115 c25 -48 28 -64 25 -122 -8 -142 -94 -173 -149
-53 -24 52 -23 109 2 164 27 62 38 72 68 69 20 -2 32 -15 54 -58z"/>
<path d="M663 943 c-18 -7 -16 -28 7 -125 27 -114 25 -185 -11 -345 -29 -128
-31 -147 -25 -263 6 -139 12 -166 32 -174 28 -11 43 20 32 66 -21 89 -14 245
15 370 31 136 35 236 11 359 -21 111 -29 126 -61 112z"/>
</g>
</svg>
