<?xml version="1.0" standalone="no"?>
<!DOCTYPE svg PUBLIC "-//W3C//DTD SVG 20010904//EN"
 "http://www.w3.org/TR/2001/REC-SVG-20010904/DTD/svg10.dtd">
<svg version="1.0" xmlns="http://www.w3.org/2000/svg"
 width="586.000000pt" height="590.000000pt" viewBox="0 0 586.000000 590.000000"
 preserveAspectRatio="xMidYMid meet">
<metadata>
Created by potrace 1.16, written by Peter Selinger 2001-2019
</metadata>
<g transform="translate(0.000000,590.000000) scale(0.500000,-0.500000)"
fill="#000000" stroke="none">
<path d="M556 1130 c-13 -10 -20 -20 -25 -32 -3 -9 -4 -11 -14 -15 -9 -4 -11
-6 -14 -14 -4 -11 -12 -18 -22 -22 -10 -3 -22 -18 -26 -32 -3 -8 -7 -14 -28
-34 -13 -13 -26 -27 -28 -30 -14 -23 -22 -33 -29 -38 -6 -4 -8 -7 -10 -13 -2
-8 -5 -11 -29 -34 -6 -5 -15 -15 -21 -23 -10 -14 -23 -26 -47 -42 -13 -9 -36
-32 -40 -40 -2 -3 -9 -12 -15 -19 -7 -7 -14 -16 -16 -20 -2 -4 -6 -10 -10 -13
-4 -3 -8 -9 -10 -13 -2 -4 -9 -13 -16 -21 -7 -7 -12 -14 -12 -15 0 -1 -3 -6
-7 -11 -4 -5 -10 -15 -12 -22 -3 -8 -8 -14 -13 -19 -6 -5 -9 -11 -14 -24 -3
-9 -8 -20 -11 -24 -3 -4 -6 -12 -7 -20 -1 -12 -4 -18 -14 -36 -2 -4 -4 -14 -6
-30 -1 -12 -5 -32 -8 -43 -3 -11 -6 -21 -6 -24 0 -2 -3 -8 -6 -14 -9 -13 -11
-59 -4 -80 3 -8 4 -17 4 -28 0 -20 2 -27 15 -43 6 -9 9 -14 9 -19 0 -4 2 -9 5
-13 3 -4 11 -18 17 -31 11 -23 36 -53 44 -53 1 0 6 -3 11 -8 13 -12 39 -28 85
-53 6 -3 13 -7 15 -9 10 -9 59 -12 83 -4 7 2 15 4 17 4 3 0 7 1 10 2 3 1 12 3
19 4 22 3 35 7 46 17 6 5 14 10 18 11 13 4 33 18 51 36 10 9 22 19 27 22 4 3
10 9 12 13 2 5 7 10 10 12 4 2 13 9 20 16 26 24 48 26 70 6 4 -3 15 -11 24
-17 9 -7 19 -14 22 -17 3 -3 10 -8 16 -11 7 -3 16 -9 21 -12 6 -3 12 -6 16 -6
4 0 8 -2 14 -10 9 -10 30 -21 44 -23 4 -1 10 -4 14 -7 6 -6 13 -9 44 -19 25
-9 96 -7 111 2 6 4 12 7 12 7 1 0 9 3 17 7 8 4 18 8 22 9 4 1 9 3 12 6 3 2 10
5 16 7 17 5 26 12 36 27 6 7 13 17 18 22 11 12 23 30 27 43 2 5 6 12 8 15 2 4
3 11 4 32 1 18 3 29 5 34 5 13 4 93 -1 109 -2 6 -4 16 -4 23 0 8 -1 15 -5 22
-3 6 -6 16 -7 22 -2 8 -4 13 -9 18 -7 8 -13 18 -13 23 0 5 -27 61 -34 69 -3 4
-10 14 -15 24 -9 15 -17 24 -33 36 -7 5 -14 18 -14 25 0 9 -4 14 -12 20 -7 5
-9 8 -11 16 -2 8 -6 13 -32 39 -16 16 -30 32 -32 36 -2 4 -8 12 -14 18 -5 5
-12 13 -14 17 -11 19 -25 36 -44 55 -12 11 -23 24 -25 27 -2 3 -9 10 -15 14
-6 4 -14 12 -18 18 -6 8 -10 12 -17 15 -9 3 -11 5 -14 13 -4 7 -6 10 -13 13
-10 5 -14 9 -17 18 -1 4 -8 14 -16 22 -8 8 -17 19 -21 25 -4 5 -12 17 -19 26
-6 8 -13 18 -14 22 -1 4 -6 12 -12 19 -6 6 -15 18 -21 26 -19 27 -35 31 -55
16z m18 -112 c9 -5 73 -73 77 -80 2 -4 10 -14 19 -23 8 -9 19 -21 23 -28 5 -7
11 -13 15 -15 9 -4 21 -18 35 -38 6 -8 15 -18 21 -23 7 -5 15 -13 19 -19 4 -5
10 -12 13 -14 3 -2 6 -6 8 -9 2 -2 8 -8 13 -12 16 -12 29 -25 37 -37 3 -6 11
-16 17 -22 6 -7 11 -13 11 -15 0 -7 10 -26 19 -35 16 -18 46 -59 57 -80 5 -8
8 -11 16 -15 10 -5 11 -6 17 -27 2 -6 6 -13 11 -18 10 -9 13 -15 18 -30 5 -16
18 -42 25 -49 7 -9 9 -14 9 -25 0 -6 2 -18 4 -26 2 -8 4 -17 4 -20 0 -2 1 -9
3 -16 3 -8 3 -14 2 -25 -1 -8 -2 -17 -2 -21 -2 -26 -14 -54 -36 -80 -5 -6 -12
-15 -16 -21 -8 -9 -13 -14 -53 -40 -5 -3 -12 -8 -16 -10 -4 -3 -10 -5 -12 -5
-3 0 -11 -2 -17 -4 -17 -6 -25 -5 -52 4 -13 4 -26 8 -28 8 -3 0 -14 4 -26 10
-11 5 -22 10 -24 10 -1 0 -7 4 -13 9 -6 5 -14 11 -18 13 -4 2 -12 7 -18 11 -6
4 -15 8 -19 9 -15 4 -37 21 -49 39 -11 17 -59 65 -64 65 -19 0 -27 -6 -73 -52
-24 -24 -45 -44 -47 -44 -1 0 -15 -13 -31 -28 -28 -28 -37 -34 -60 -42 -5 -2
-14 -6 -20 -10 -8 -5 -12 -6 -23 -6 -9 0 -16 -1 -22 -4 -5 -2 -12 -4 -16 -4
-4 0 -12 -1 -18 -3 -18 -6 -48 7 -101 44 -9 7 -36 33 -40 40 -1 3 -6 11 -10
16 -4 7 -8 18 -11 28 -2 10 -6 22 -7 27 -4 11 -4 29 0 36 2 4 3 16 3 58 0 29
1 57 2 61 1 4 3 15 5 25 2 10 5 20 8 25 4 6 5 13 6 22 2 22 2 23 19 40 9 9 16
18 16 20 0 7 11 28 19 36 7 7 9 12 14 27 5 17 7 20 15 27 5 4 11 11 15 15 3 4
12 13 20 22 8 8 17 20 21 26 5 10 8 12 16 15 6 3 12 8 16 13 4 5 9 10 12 13
26 22 49 47 55 60 5 9 13 19 26 33 10 10 20 22 22 25 2 5 6 8 12 10 8 3 10 5
15 15 5 10 6 11 19 16 17 7 18 8 24 21 2 6 6 12 9 13 5 3 9 10 15 29 5 15 13
27 18 27 1 0 6 4 10 8 8 9 10 9 17 4z"/>
</g>
</svg>
