<?xml version="1.0" standalone="no"?>
<!DOCTYPE svg PUBLIC "-//W3C//DTD SVG 20010904//EN"
 "http://www.w3.org/TR/2001/REC-SVG-20010904/DTD/svg10.dtd">
<svg version="1.0" xmlns="http://www.w3.org/2000/svg"
 width="146.000000pt" height="148.000000pt" viewBox="0 0 146.000000 148.000000"
 preserveAspectRatio="xMidYMid meet">
<metadata>
Created by potrace 1.16, written by Peter Selinger 2001-2019
</metadata>
<g transform="translate(0.000000,148.000000) scale(0.100000,-0.100000)"
fill="#000000" stroke="none">
<path d="M673 1393 c-9 -16 -37 -49 -62 -75 -60 -62 -112 -124 -135 -162 -10
-17 -62 -74 -115 -126 -87 -86 -211 -236 -211 -256 0 -4 -6 -15 -13 -23 -22
-25 -64 -141 -72 -196 -4 -27 -12 -56 -17 -63 -22 -25 -1 -153 36 -228 40 -80
65 -106 161 -164 73 -45 79 -46 206 -26 32 5 118 51 139 74 51 56 122 112 142
112 13 0 50 -20 83 -45 33 -25 65 -45 71 -45 6 0 19 -9 29 -20 10 -11 23 -20
29 -20 6 0 29 -10 51 -21 21 -12 65 -24 95 -26 51 -5 65 -2 141 35 118 57 148
99 162 223 8 65 8 110 0 155 -13 76 -80 218 -129 270 -18 21 -34 44 -34 51 0
8 -7 16 -15 19 -8 4 -15 11 -15 18 0 7 -21 34 -46 61 -25 28 -56 66 -69 85
-33 49 -140 160 -154 160 -6 0 -11 7 -11 15 0 8 -4 15 -9 15 -8 0 -100 112
-111 134 -3 6 -18 30 -34 54 -35 51 -67 56 -93 15z m269 -364 c75 -81 144
-160 154 -175 38 -60 117 -164 125 -164 5 0 9 -9 9 -19 0 -11 4 -23 10 -26 17
-10 67 -128 79 -188 7 -32 10 -75 6 -97 -13 -76 -111 -179 -188 -196 -34 -7
-107 11 -157 40 -19 11 -56 31 -81 45 -25 14 -69 52 -98 83 -40 44 -56 55 -70
50 -11 -4 -60 -47 -111 -95 -105 -100 -130 -115 -218 -134 -59 -12 -66 -12
-104 8 -64 32 -134 108 -143 155 -10 50 -6 200 6 250 6 22 13 50 16 64 3 14
13 34 23 45 17 20 34 50 63 110 8 17 60 76 116 132 55 56 101 106 101 110 0
13 103 119 121 125 9 4 27 28 40 55 13 26 32 56 44 65 19 17 21 16 70 -40 28
-31 111 -123 187 -203z"/>
</g>
</svg>
