<?xml version="1.0" standalone="no"?>
<!DOCTYPE svg PUBLIC "-//W3C//DTD SVG 20010904//EN"
 "http://www.w3.org/TR/2001/REC-SVG-20010904/DTD/svg10.dtd">
<svg version="1.0" xmlns="http://www.w3.org/2000/svg"
 width="100.000000pt" height="49.000000pt" viewBox="0 0 100.000000 49.000000"
 preserveAspectRatio="xMidYMid meet">
<metadata>
Created by potrace 1.16, written by Peter Selinger 2001-2019
</metadata>
<g transform="translate(0.000000,49.000000) scale(0.100000,-0.100000)"
fill="#000000" stroke="none">
<path d="M147 375 c-94 -105 -115 -142 -124 -213 -14 -119 93 -183 192 -116
l38 26 54 -27 c92 -47 162 -17 170 72 8 83 -34 159 -161 291 -34 34 -66 62
-72 62 -7 0 -50 -43 -97 -95z m169 -42 c127 -151 150 -213 93 -255 -29 -22
-62 -14 -111 27 -39 33 -48 32 -98 -10 -46 -38 -74 -43 -108 -19 -26 18 -30
85 -8 137 17 40 144 187 162 187 7 0 38 -30 70 -67z"/>
<path d="M637 378 c-46 -51 -92 -108 -101 -127 -27 -52 -33 -137 -12 -176 33
-61 113 -74 177 -29 l38 26 55 -27 c93 -45 164 -18 173 67 7 58 -8 102 -55
165 -60 80 -164 193 -177 193 -7 0 -51 -42 -98 -92z m154 -30 c141 -166 162
-215 114 -263 -32 -33 -43 -32 -105 10 -29 19 -56 35 -62 35 -5 0 -28 -16 -51
-35 -44 -38 -80 -44 -109 -18 -26 23 -24 107 3 153 30 48 139 170 154 170 6 0
31 -24 56 -52z"/>
</g>
</svg>
