<?xml version="1.0" standalone="no"?>
<!DOCTYPE svg PUBLIC "-//W3C//DTD SVG 20010904//EN"
 "http://www.w3.org/TR/2001/REC-SVG-20010904/DTD/svg10.dtd">
<svg version="1.0" xmlns="http://www.w3.org/2000/svg"
 width="300.000000pt" height="148.000000pt" viewBox="0 0 300.000000 148.000000"
 preserveAspectRatio="xMidYMid meet">
<metadata>
Created by potrace 1.16, written by Peter Selinger 2001-2019
</metadata>
<g transform="translate(0.000000,148.000000) scale(0.100000,-0.100000)"
fill="#000000" stroke="none">
<path d="M707 1402 c-10 -10 -17 -23 -17 -28 0 -5 -17 -24 -37 -43 -21 -18
-49 -48 -63 -67 -86 -113 -132 -168 -205 -239 -79 -77 -188 -209 -206 -250 -5
-11 -17 -33 -27 -50 -17 -28 -30 -68 -66 -196 -23 -82 -21 -190 4 -222 11 -14
20 -30 20 -36 0 -24 55 -98 93 -126 114 -83 158 -95 259 -74 72 15 130 50 210
126 43 41 74 63 90 63 13 0 48 -19 78 -41 30 -23 67 -46 83 -51 15 -6 27 -13
27 -18 0 -14 125 -63 173 -68 38 -4 63 2 125 28 95 41 92 39 137 105 36 51 38
59 42 150 5 91 -10 220 -27 230 -4 2 -21 34 -39 70 -18 36 -48 81 -67 100 -19
19 -34 41 -34 48 0 8 -7 20 -15 27 -8 7 -15 18 -15 24 0 7 -21 32 -46 56 -26
25 -55 58 -65 74 -22 36 -188 206 -200 206 -5 0 -9 5 -9 11 0 6 -18 33 -40 59
-22 26 -40 51 -40 55 0 4 -14 27 -32 51 -34 48 -64 56 -91 26z m84 -174 c52
-62 141 -160 256 -280 46 -48 83 -91 83 -96 0 -5 30 -49 66 -98 122 -163 177
-300 159 -401 -12 -72 -116 -175 -192 -189 -46 -9 -140 24 -202 70 -19 14 -41
26 -48 26 -7 0 -38 27 -70 60 -34 36 -65 60 -77 60 -13 0 -58 -36 -112 -89
-93 -92 -140 -120 -230 -141 -47 -10 -56 -9 -94 10 -69 35 -128 97 -143 149
-16 54 -8 252 11 288 7 12 12 30 12 41 0 11 7 26 17 33 9 8 22 28 30 44 35 74
54 102 87 134 20 19 36 41 36 48 0 7 4 13 8 13 12 0 112 94 112 105 0 6 28 38
63 72 34 35 74 75 90 90 15 15 27 34 27 42 0 18 39 61 55 61 7 0 32 -24 56
-52z"/>
<path d="M2160 1386 c-12 -20 -25 -36 -30 -36 -5 0 -11 -9 -15 -19 -3 -11 -15
-23 -25 -26 -10 -3 -21 -14 -25 -23 -3 -9 -20 -33 -38 -52 -17 -19 -45 -53
-61 -75 -45 -62 -107 -128 -142 -152 -42 -29 -188 -220 -210 -273 -3 -8 -9
-24 -14 -35 -4 -11 -12 -31 -18 -45 -6 -14 -16 -52 -23 -85 -6 -33 -16 -66
-22 -73 -6 -8 -8 -41 -4 -86 8 -93 61 -202 122 -250 78 -63 143 -96 188 -96
92 0 193 44 270 116 22 21 56 51 75 66 39 31 43 30 128 -34 28 -21 56 -38 62
-38 6 0 17 -6 24 -13 26 -26 131 -69 182 -74 44 -5 63 -1 120 26 37 17 71 31
75 31 12 0 74 78 94 116 22 44 32 177 18 243 -15 69 -85 211 -131 265 -19 22
-43 57 -54 76 -10 19 -35 53 -56 75 -20 22 -52 60 -71 85 -18 25 -74 86 -124
135 -88 88 -121 128 -189 230 -43 65 -74 71 -106 21z m173 -246 c65 -74 149
-166 187 -204 39 -37 70 -74 70 -80 0 -12 103 -155 120 -166 7 -5 19 -27 70
-130 28 -56 32 -76 33 -150 2 -77 -1 -89 -26 -127 -33 -52 -110 -110 -157
-119 -41 -8 -139 22 -197 62 -21 14 -52 32 -70 41 -18 8 -33 19 -33 23 0 17
-81 90 -100 90 -11 0 -58 -38 -110 -89 -98 -96 -130 -116 -223 -138 -56 -12
-63 -12 -102 7 -90 43 -155 126 -156 195 -1 77 12 217 20 234 6 11 11 31 11
44 0 14 7 30 16 38 15 12 34 45 68 114 8 17 59 76 113 131 54 56 121 128 148
161 28 33 62 67 76 75 14 8 33 32 43 54 24 51 46 75 65 72 9 -2 69 -64 134
-138z"/>
</g>
</svg>
