<?xml version="1.0" standalone="no"?>
<!DOCTYPE svg PUBLIC "-//W3C//DTD SVG 20010904//EN"
 "http://www.w3.org/TR/2001/REC-SVG-20010904/DTD/svg10.dtd">
<svg version="1.0" xmlns="http://www.w3.org/2000/svg"
 width="1198.000000pt" height="590.000000pt" viewBox="0 0 1198.000000 590.000000"
 preserveAspectRatio="xMidYMid meet">
<metadata>
Created by potrace 1.16, written by Peter Selinger 2001-2019
</metadata>
<g transform="translate(0.000000,590.000000) scale(0.500000,-0.500000)"
fill="#000000" stroke="none">
<path d="M583 1134 c-11 -7 -27 -25 -31 -35 -3 -9 -5 -11 -13 -15 -8 -4 -10
-7 -14 -15 -5 -12 -9 -15 -21 -21 -11 -4 -25 -21 -30 -37 -3 -8 -8 -14 -25
-30 -11 -11 -24 -24 -27 -30 -11 -16 -23 -32 -29 -37 -3 -3 -8 -10 -10 -15 -4
-8 -9 -14 -18 -21 -12 -10 -29 -29 -38 -42 -3 -4 -8 -10 -11 -12 -4 -3 -10 -8
-14 -11 -5 -4 -12 -9 -16 -12 -13 -8 -35 -30 -45 -45 -5 -7 -11 -16 -15 -19
-4 -3 -9 -10 -13 -16 -19 -27 -26 -37 -34 -45 -11 -11 -20 -25 -31 -47 -5 -10
-11 -19 -14 -21 -5 -4 -8 -10 -12 -23 -4 -11 -9 -20 -13 -24 -5 -6 -6 -9 -7
-21 -1 -10 -4 -17 -7 -24 -3 -5 -7 -11 -8 -14 -2 -3 -3 -14 -4 -26 -1 -16 -3
-25 -7 -38 -4 -9 -7 -21 -8 -27 -1 -5 -5 -14 -8 -18 -6 -9 -9 -64 -4 -78 1 -3
3 -16 4 -28 1 -25 4 -30 17 -46 7 -8 9 -12 9 -17 0 -4 3 -11 7 -18 3 -6 12
-20 18 -32 10 -20 34 -48 41 -48 1 0 5 -3 9 -7 12 -10 33 -24 55 -35 10 -6 21
-12 24 -14 3 -2 9 -5 13 -7 4 -2 11 -6 14 -9 8 -7 61 -9 80 -2 7 2 14 4 16 4
3 0 8 1 12 3 4 2 11 3 15 3 15 0 40 9 48 17 4 4 11 9 17 11 17 6 33 17 53 37
10 10 22 20 25 21 4 2 9 8 12 13 3 5 8 10 12 12 3 2 12 9 19 16 11 11 29 21
36 21 8 0 31 -10 36 -16 3 -3 11 -10 19 -15 8 -5 17 -12 21 -16 10 -8 49 -30
58 -32 5 -1 9 -3 14 -9 7 -10 20 -17 36 -21 8 -2 16 -6 21 -10 27 -22 130 -32
153 -16 5 4 10 7 12 7 3 0 25 10 51 22 7 3 14 6 17 7 11 2 29 16 36 27 3 5 10
15 16 21 5 6 11 13 12 15 1 3 5 8 8 12 3 4 7 10 8 15 1 4 4 11 7 16 6 7 6 9 7
36 1 15 2 31 4 35 3 10 3 87 -1 99 -1 6 -3 17 -4 25 0 10 -2 19 -6 27 -3 6 -6
16 -7 22 -2 8 -4 12 -10 17 -5 6 -8 11 -11 20 -9 34 -56 110 -76 126 -15 12
-19 17 -24 41 -1 3 -4 7 -8 9 -5 3 -7 7 -10 15 -3 9 -6 14 -31 39 -16 16 -31
33 -33 37 -3 4 -11 13 -17 20 -6 7 -15 19 -20 27 -6 10 -18 25 -34 41 -14 14
-27 28 -28 30 -1 3 -7 9 -13 13 -7 5 -16 14 -20 20 -6 8 -11 11 -17 14 -8 3
-9 4 -12 12 -3 8 -5 10 -15 15 -10 5 -12 7 -15 16 -3 7 -8 14 -17 23 -7 7 -18
21 -24 30 -6 9 -14 19 -18 22 -4 4 -8 10 -10 17 -2 6 -8 15 -15 24 -6 7 -14
17 -17 21 -20 28 -35 35 -52 24z m14 -117 c5 -3 13 -10 18 -16 6 -7 20 -22 32
-35 12 -12 24 -25 26 -29 2 -4 12 -16 22 -27 10 -10 20 -22 22 -26 2 -3 8 -9
15 -14 14 -10 17 -13 31 -34 7 -12 13 -20 19 -23 4 -2 11 -9 15 -14 8 -9 28
-29 57 -56 8 -8 17 -19 21 -24 4 -6 11 -15 17 -21 7 -7 11 -13 13 -20 4 -14
10 -24 19 -33 10 -10 37 -46 53 -73 6 -9 11 -14 17 -18 9 -5 13 -12 19 -28 2
-5 7 -14 12 -20 5 -6 10 -15 12 -21 4 -11 20 -42 29 -58 5 -7 7 -12 8 -26 1
-9 3 -20 5 -24 1 -4 3 -11 3 -15 0 -5 2 -12 3 -16 7 -17 1 -78 -9 -90 -2 -3
-7 -11 -11 -19 -4 -8 -13 -19 -19 -26 -6 -7 -14 -15 -17 -19 -7 -10 -70 -52
-77 -52 -3 0 -10 -2 -16 -4 -13 -5 -29 -5 -43 0 -5 2 -12 5 -15 6 -2 1 -11 3
-18 5 -8 2 -21 6 -29 11 -9 4 -19 9 -24 10 -4 1 -11 5 -15 9 -15 14 -42 30
-56 34 -8 2 -31 19 -36 25 -3 3 -8 10 -11 14 -4 4 -8 9 -9 12 -4 7 -48 49 -53
51 -16 5 -29 -4 -75 -52 -21 -21 -42 -41 -45 -42 -3 -2 -18 -15 -33 -30 -27
-26 -51 -43 -64 -43 -2 0 -8 -3 -14 -7 -9 -6 -13 -7 -22 -7 -6 0 -16 -2 -23
-4 -6 -2 -14 -4 -17 -4 -4 0 -11 -1 -17 -3 -20 -6 -61 13 -99 44 -7 6 -17 13
-22 17 -18 14 -46 65 -46 83 0 3 -1 8 -3 12 -4 9 -4 24 0 35 2 7 3 20 3 62 0
49 0 55 4 64 2 6 4 14 4 18 0 4 3 13 7 22 5 10 7 18 8 28 2 20 2 21 19 39 10
11 16 19 17 23 3 13 9 24 18 33 7 7 9 12 14 27 5 15 7 20 13 25 18 16 47 49
57 64 4 7 9 11 14 14 8 4 32 26 64 58 7 7 14 18 18 26 5 10 13 20 26 33 10 10
20 22 22 25 2 5 7 9 13 12 8 4 11 7 13 13 5 10 8 13 20 17 15 5 18 8 22 18 2
6 7 12 12 17 8 6 9 9 15 27 6 20 11 27 19 30 2 0 7 4 11 8 8 8 7 8 17 2z"/>
<path d="M1749 1132 c-4 -3 -11 -9 -15 -13 -6 -7 -8 -11 -14 -26 -1 -3 -5 -7
-11 -9 -9 -4 -13 -8 -17 -17 -3 -9 -11 -16 -21 -20 -10 -4 -24 -22 -26 -33 -1
-6 -7 -13 -28 -34 -18 -19 -30 -32 -37 -43 -6 -10 -12 -18 -18 -22 -5 -4 -9
-9 -10 -13 -3 -10 -12 -21 -23 -28 -8 -6 -20 -20 -32 -37 -4 -6 -10 -12 -13
-14 -3 -2 -10 -7 -16 -12 -5 -4 -13 -10 -18 -13 -10 -6 -35 -32 -40 -42 -2 -4
-7 -10 -11 -14 -4 -4 -11 -13 -16 -20 -5 -7 -10 -15 -13 -17 -2 -2 -6 -7 -7
-10 -2 -3 -8 -11 -14 -17 -13 -13 -30 -40 -34 -54 -3 -8 -5 -12 -11 -15 -8 -6
-8 -5 -15 -26 -3 -8 -7 -17 -10 -22 -4 -5 -6 -11 -7 -20 -1 -10 -3 -16 -9 -25
-8 -14 -13 -34 -13 -53 0 -6 -3 -18 -6 -29 -3 -10 -6 -21 -6 -24 0 -3 -3 -10
-7 -16 -10 -14 -13 -59 -5 -81 3 -8 4 -17 4 -28 0 -18 5 -30 17 -45 4 -5 7
-11 8 -16 1 -5 4 -12 6 -16 3 -4 11 -18 18 -32 10 -20 15 -28 24 -35 19 -18
56 -44 78 -55 9 -5 20 -11 24 -14 5 -3 13 -8 17 -10 5 -2 12 -6 15 -8 8 -7 58
-8 79 -2 21 6 41 10 47 10 12 0 34 9 45 18 6 5 14 10 17 11 11 3 30 16 48 33
10 10 22 20 27 24 6 3 12 9 14 14 2 4 7 9 11 11 3 2 12 9 19 16 26 24 48 26
69 7 3 -3 14 -11 23 -17 9 -6 20 -15 25 -19 5 -4 11 -8 13 -9 3 -1 11 -5 18
-10 7 -4 16 -8 20 -9 6 -2 11 -5 16 -10 7 -9 31 -22 40 -22 3 0 9 -3 15 -7 9
-7 25 -14 48 -21 22 -7 97 -5 107 2 4 3 11 7 15 9 13 5 37 15 50 21 7 3 17 8
23 10 12 5 26 17 31 27 2 3 8 10 13 16 11 11 30 40 30 45 0 1 3 7 6 12 5 8 6
11 7 35 0 18 1 28 4 33 4 11 5 99 0 108 -2 3 -4 13 -4 23 -1 11 -3 19 -6 25
-3 5 -6 14 -7 21 -1 9 -4 14 -9 19 -7 7 -12 16 -14 24 -2 11 -29 64 -42 82
-22 33 -23 34 -34 41 -12 8 -18 17 -20 32 -1 10 -4 14 -15 19 -4 3 -6 6 -7 11
-2 13 -5 17 -33 44 -14 14 -28 29 -29 32 -2 3 -7 10 -12 15 -8 9 -16 20 -32
44 -4 6 -17 20 -28 31 -11 11 -23 24 -26 28 -3 5 -10 12 -15 15 -6 4 -14 12
-20 19 -7 9 -12 13 -16 14 -7 1 -13 8 -16 17 -2 5 -6 8 -14 12 -10 4 -11 6
-14 15 -3 7 -8 14 -17 23 -7 7 -15 17 -18 21 -2 4 -10 16 -18 25 -7 9 -14 21
-16 26 -2 5 -10 16 -18 25 -7 9 -17 21 -20 27 -13 19 -32 24 -48 12z m15 -114
c9 -5 73 -73 77 -80 2 -4 10 -14 19 -23 8 -9 19 -21 23 -28 4 -6 10 -12 13
-14 9 -4 23 -18 27 -26 6 -10 23 -33 27 -34 2 -1 9 -7 15 -14 12 -13 16 -17
24 -26 9 -8 10 -9 32 -29 11 -11 21 -22 22 -25 2 -3 9 -11 15 -18 7 -8 12 -15
14 -21 4 -14 9 -22 22 -37 7 -7 12 -14 12 -15 0 -1 5 -7 11 -14 6 -7 15 -20
20 -28 14 -23 19 -30 25 -32 9 -4 12 -8 16 -22 3 -11 7 -17 15 -26 8 -9 12
-16 15 -25 5 -16 18 -43 27 -55 6 -8 7 -11 8 -25 0 -9 2 -20 4 -24 2 -4 3 -11
3 -16 0 -4 1 -12 3 -19 3 -8 3 -14 2 -25 -1 -8 -2 -18 -2 -23 -1 -16 -5 -32
-10 -39 -2 -3 -8 -12 -12 -20 -4 -8 -12 -19 -18 -25 -6 -6 -12 -14 -14 -17 -1
-4 -7 -9 -12 -13 -6 -3 -12 -7 -15 -9 -27 -19 -47 -31 -51 -31 -2 0 -10 -2
-16 -4 -16 -6 -27 -5 -50 3 -11 4 -24 7 -28 8 -4 1 -17 6 -28 11 -12 6 -22 10
-24 10 -2 0 -8 4 -13 9 -23 18 -45 31 -57 34 -16 3 -44 29 -55 51 -3 4 -5 8
-6 8 -1 0 -12 10 -25 22 -13 12 -24 22 -25 22 -18 0 -25 -5 -71 -51 -25 -24
-47 -45 -50 -47 -3 -1 -18 -14 -32 -28 -27 -27 -36 -33 -56 -40 -7 -2 -16 -6
-20 -9 -6 -5 -10 -6 -24 -7 -9 -1 -19 -3 -24 -5 -4 -2 -11 -3 -15 -3 -4 0 -12
-1 -17 -3 -12 -4 -29 1 -53 14 -17 9 -54 34 -57 38 0 2 -6 7 -12 11 -6 4 -12
11 -14 14 -2 4 -6 10 -10 15 -6 8 -19 42 -19 51 0 2 -2 7 -4 12 -5 11 -5 23 0
36 4 9 4 15 4 63 0 46 0 53 4 65 2 7 4 16 4 20 0 4 3 13 6 20 5 10 6 16 6 26
0 15 1 18 18 35 13 13 15 16 20 32 5 15 8 19 16 27 9 8 10 11 15 26 5 18 5 18
33 46 19 20 31 33 35 42 6 10 9 13 17 16 5 3 12 9 17 13 4 5 11 12 15 16 23
20 46 45 52 57 4 8 12 19 21 28 9 9 19 20 23 26 5 7 10 12 17 16 8 4 11 7 12
12 3 8 10 16 15 16 8 0 23 11 27 19 2 5 7 12 10 15 7 7 15 25 18 38 1 3 5 9 9
14 26 25 26 24 34 18z"/>
</g>
</svg>
