<?xml version="1.0" standalone="no"?>
<!DOCTYPE svg PUBLIC "-//W3C//DTD SVG 20010904//EN"
 "http://www.w3.org/TR/2001/REC-SVG-20010904/DTD/svg10.dtd">
<svg version="1.0" xmlns="http://www.w3.org/2000/svg"
 width="81.000000pt" height="100.000000pt" viewBox="0 0 81.000000 100.000000"
 preserveAspectRatio="xMidYMid meet">
<metadata>
Created by potrace 1.16, written by Peter Selinger 2001-2019
</metadata>
<g transform="translate(0.000000,100.000000) scale(0.100000,-0.100000)"
fill="#000000" stroke="none">
<path d="M309 873 c-40 -49 -103 -120 -140 -159 -74 -80 -114 -152 -130 -237
-11 -64 -6 -103 21 -158 19 -36 76 -81 118 -94 40 -12 100 5 144 41 24 18 47
34 52 34 4 0 5 -57 2 -127 -4 -72 -3 -134 2 -141 5 -8 20 -12 33 -10 24 3 24
3 25 141 0 75 3 139 6 142 3 3 31 -10 63 -30 70 -42 133 -47 195 -15 55 28 74
69 75 155 0 57 -6 80 -28 123 -35 69 -103 158 -192 252 -39 42 -86 97 -103
123 -19 27 -41 47 -51 47 -11 0 -49 -36 -92 -87z m123 -30 c18 -20 58 -64 88
-97 118 -130 193 -243 206 -312 8 -43 -10 -87 -48 -119 -48 -40 -91 -33 -196
32 -29 18 -61 33 -71 33 -11 0 -40 -15 -64 -34 -103 -78 -146 -85 -207 -30
-40 36 -40 37 -40 110 0 103 30 158 169 313 61 68 111 127 111 132 0 19 21 8
52 -28z"/>
</g>
</svg>
