<?xml version="1.0" standalone="no"?>
<!DOCTYPE svg PUBLIC "-//W3C//DTD SVG 20010904//EN"
 "http://www.w3.org/TR/2001/REC-SVG-20010904/DTD/svg10.dtd">
<svg version="1.0" xmlns="http://www.w3.org/2000/svg"
 width="120.000000pt" height="148.000000pt" viewBox="0 0 120.000000 148.000000"
 preserveAspectRatio="xMidYMid meet">
<metadata>
Created by potrace 1.16, written by Peter Selinger 2001-2019
</metadata>
<g transform="translate(0.000000,148.000000) scale(0.100000,-0.100000)"
fill="#000000" stroke="none">
<path d="M562 1408 c-6 -6 -12 -16 -12 -20 0 -4 -19 -28 -42 -51 -45 -46 -117
-131 -131 -153 -4 -7 -47 -52 -95 -101 -48 -48 -104 -114 -125 -146 -45 -68
-87 -159 -87 -190 0 -12 -7 -43 -15 -69 -7 -26 -11 -64 -8 -85 6 -47 58 -152
87 -176 45 -38 138 -87 164 -87 74 2 161 42 216 99 17 17 33 31 38 31 4 0 9
-96 10 -212 3 -197 4 -213 21 -216 10 -2 28 -1 40 2 22 5 22 6 19 221 -4 185
-2 215 11 215 8 0 20 -6 26 -14 7 -8 26 -22 44 -31 18 -9 55 -29 82 -45 65
-38 122 -39 201 -4 105 48 136 100 138 234 1 93 0 97 -42 181 -23 47 -54 97
-67 109 -14 13 -25 30 -25 37 0 8 -7 16 -15 19 -8 4 -15 12 -15 19 0 7 -7 19
-17 26 -9 8 -34 37 -56 64 -21 28 -76 88 -121 135 -46 47 -103 114 -128 150
-45 65 -72 82 -96 58z m77 -151 c24 -29 94 -107 155 -174 61 -67 131 -149 156
-183 103 -140 154 -273 131 -342 -16 -49 -65 -103 -115 -128 -39 -19 -50 -20
-88 -10 -52 14 -177 82 -202 109 -25 27 -72 36 -105 20 -14 -8 -54 -37 -88
-66 -57 -48 -134 -83 -183 -83 -49 0 -136 70 -154 125 -23 66 -5 250 28 294 6
8 22 36 36 63 24 46 114 149 263 299 37 37 67 73 67 80 0 16 30 49 44 48 6 0
31 -24 55 -52z"/>
</g>
</svg>
