<?xml version="1.0" standalone="no"?>
<!DOCTYPE svg PUBLIC "-//W3C//DTD SVG 20010904//EN"
 "http://www.w3.org/TR/2001/REC-SVG-20010904/DTD/svg10.dtd">
<svg version="1.0" xmlns="http://www.w3.org/2000/svg"
 width="478.000000pt" height="590.000000pt" viewBox="0 0 478.000000 590.000000"
 preserveAspectRatio="xMidYMid meet">
<metadata>
Created by potrace 1.16, written by Peter Selinger 2001-2019
</metadata>
<g transform="translate(0.000000,590.000000) scale(0.500000,-0.500000)"
fill="#000000" stroke="none">
<path d="M463 1136 c-9 -5 -20 -17 -24 -27 -3 -8 -7 -12 -13 -16 -4 -3 -9 -8
-11 -11 -3 -6 -16 -18 -20 -18 -4 0 -12 -11 -19 -24 -4 -7 -12 -17 -23 -28
-10 -9 -22 -24 -28 -33 -6 -9 -13 -18 -16 -20 -3 -2 -7 -7 -8 -11 -2 -4 -11
-14 -20 -23 -9 -9 -19 -20 -23 -25 -3 -6 -13 -14 -22 -21 -19 -13 -41 -35 -52
-49 -3 -5 -9 -13 -13 -18 -4 -5 -10 -13 -15 -19 -4 -5 -12 -15 -17 -22 -14
-17 -24 -33 -27 -42 -2 -4 -6 -10 -9 -14 -4 -3 -9 -12 -12 -20 -3 -8 -7 -16
-9 -18 -1 -3 -4 -10 -5 -17 -2 -7 -6 -17 -9 -22 -4 -8 -6 -16 -8 -30 -1 -10
-4 -25 -6 -32 -2 -8 -4 -15 -4 -17 0 -1 -3 -7 -6 -14 -7 -13 -9 -50 -3 -72 2
-7 3 -16 3 -21 0 -12 4 -21 12 -32 3 -4 6 -9 7 -12 16 -51 46 -83 117 -122 10
-6 22 -13 26 -15 13 -8 50 -8 79 1 8 2 19 5 25 6 18 3 25 6 35 13 5 4 12 8 15
10 13 5 27 17 67 55 25 23 24 29 21 -156 -2 -190 -6 -170 35 -170 41 0 37 -21
35 173 -3 194 -5 184 31 156 14 -10 34 -22 42 -24 4 -1 9 -4 13 -8 6 -7 28
-19 34 -19 2 0 6 -2 9 -5 23 -19 103 -30 124 -17 5 3 67 31 75 33 6 3 16 11
22 21 4 5 10 13 15 18 16 18 29 49 29 69 0 10 1 20 3 25 4 12 4 77 0 91 -2 5
-3 13 -3 17 0 5 -2 13 -5 20 -2 6 -5 14 -6 17 -1 4 -4 10 -7 14 -3 4 -7 11 -8
15 -10 30 -46 90 -61 101 -9 7 -17 18 -17 25 0 3 -3 8 -8 12 -5 5 -10 12 -11
18 -3 7 -9 15 -27 33 -29 31 -34 38 -51 61 -14 20 -78 87 -91 95 -5 3 -10 9
-13 13 -3 5 -7 9 -9 9 -5 2 -10 8 -13 15 -2 3 -8 11 -14 18 -5 6 -12 14 -15
18 -3 4 -9 12 -14 18 -5 6 -10 14 -12 18 -4 8 -26 37 -37 49 -9 10 -20 12 -30
7z m11 -96 c7 -5 50 -49 59 -61 19 -26 42 -51 54 -60 4 -3 11 -11 15 -18 5 -6
28 -32 52 -55 49 -50 62 -65 68 -81 2 -6 8 -15 13 -20 12 -14 23 -29 37 -50 7
-11 16 -21 21 -24 7 -5 9 -9 12 -17 2 -5 8 -16 13 -23 6 -8 10 -15 10 -16 0
-3 19 -42 24 -48 2 -4 5 -12 6 -20 1 -8 3 -21 5 -29 7 -30 5 -64 -3 -81 -7
-14 -19 -32 -27 -41 -5 -5 -10 -11 -11 -14 -2 -4 -43 -32 -55 -39 -13 -6 -36
-10 -45 -8 -49 12 -78 24 -102 41 -6 5 -20 13 -32 18 -18 9 -23 13 -37 27 -17
17 -19 18 -53 29 -15 4 -20 4 -33 -5 -4 -2 -12 -6 -18 -7 -8 -2 -12 -5 -23
-16 -7 -7 -17 -16 -21 -19 -4 -3 -17 -14 -28 -25 -21 -20 -31 -27 -47 -33 -6
-1 -13 -5 -17 -7 -5 -2 -12 -4 -16 -4 -5 0 -13 -1 -18 -3 -21 -6 -38 -8 -47
-5 -26 8 -79 43 -90 60 -3 4 -6 9 -8 11 -11 12 -23 54 -21 71 1 5 2 31 3 58 1
27 3 52 4 56 1 4 2 9 2 12 0 2 3 10 6 18 3 8 6 17 6 21 0 10 4 19 14 28 5 5
11 14 16 25 4 9 11 19 14 23 3 4 8 13 10 20 4 12 7 16 26 36 12 12 25 27 29
33 4 7 9 12 14 15 11 5 60 54 66 66 3 5 12 17 20 26 9 9 17 18 18 21 2 3 7 8
11 10 5 3 9 7 12 11 2 6 6 9 15 13 9 5 14 8 17 14 3 4 7 10 10 13 3 3 9 13 12
23 9 24 27 38 38 30z"/>
</g>
</svg>
