<?xml version="1.0" standalone="no"?>
<!DOCTYPE svg PUBLIC "-//W3C//DTD SVG 20010904//EN"
 "http://www.w3.org/TR/2001/REC-SVG-20010904/DTD/svg10.dtd">
<svg version="1.0" xmlns="http://www.w3.org/2000/svg"
 width="100.000000pt" height="100.000000pt" viewBox="0 0 100.000000 100.000000"
 preserveAspectRatio="xMidYMid meet">
<metadata>
Created by potrace 1.16, written by Peter Selinger 2001-2019
</metadata>
<g transform="translate(0.000000,100.000000) scale(0.100000,-0.100000)"
fill="#000000" stroke="none">
<path d="M471 933 c-6 -21 -35 -74 -66 -118 -30 -44 -72 -105 -92 -135 -295
-442 -290 -433 -281 -532 7 -65 48 -108 103 -108 30 0 40 7 70 47 33 44 194
287 259 391 15 24 31 42 35 40 5 -2 65 -88 135 -193 176 -265 176 -266 200
-274 28 -11 77 4 98 29 9 11 19 46 23 79 5 48 3 68 -13 104 -19 42 -149 241
-332 509 -46 67 -83 133 -88 155 -11 53 -38 56 -51 6z m64 -154 l27 -42 -29
-40 c-15 -22 -33 -42 -40 -44 -6 -3 -24 14 -39 36 l-26 40 26 46 c15 25 33 45
40 45 7 0 26 -19 41 -41z m101 -145 c30 -51 28 -74 -14 -123 l-29 -35 -31 47
c-38 54 -39 70 -11 117 38 61 46 61 85 -6z m-202 5 c15 -22 28 -48 29 -57 1
-22 -52 -102 -68 -102 -7 0 -27 22 -45 49 -34 54 -33 58 12 124 26 37 41 34
72 -14z m-106 -164 c37 -53 38 -60 12 -102 -24 -40 -39 -36 -76 20 -31 47 -33
64 -9 101 24 36 36 33 73 -19z m405 16 c9 -16 17 -36 17 -44 0 -18 -57 -97
-70 -97 -5 0 -19 18 -30 40 l-21 40 31 45 c17 25 37 45 43 45 7 0 20 -13 30
-29z m-495 -149 c39 -58 40 -71 7 -102 -28 -27 -37 -22 -79 39 l-27 38 22 37
c11 20 26 36 32 36 7 0 27 -22 45 -48z m581 19 c28 -39 26 -55 -11 -102 -30
-38 -32 -38 -51 -22 -39 36 -40 51 -7 104 18 27 36 49 40 49 5 0 18 -13 29
-29z m-665 -150 c20 -27 36 -52 36 -57 0 -12 -42 -54 -55 -54 -25 0 -55 41
-55 75 0 39 15 85 29 85 5 0 25 -22 45 -49z m748 -1 c13 -75 -29 -124 -73 -84
-10 9 -19 27 -19 38 0 26 58 98 73 93 7 -2 15 -23 19 -47z"/>
</g>
</svg>
