<?xml version="1.0" standalone="no"?>
<!DOCTYPE svg PUBLIC "-//W3C//DTD SVG 20010904//EN"
 "http://www.w3.org/TR/2001/REC-SVG-20010904/DTD/svg10.dtd">
<svg version="1.0" xmlns="http://www.w3.org/2000/svg"
 width="594.000000pt" height="590.000000pt" viewBox="0 0 594.000000 590.000000"
 preserveAspectRatio="xMidYMid meet">
<metadata>
Created by potrace 1.16, written by Peter Selinger 2001-2019
</metadata>
<g transform="translate(0.000000,590.000000) scale(0.500000,-0.500000)"
fill="#000000" stroke="none">
<path d="M580 1137 c-11 -6 -15 -13 -16 -34 -1 -19 -8 -39 -18 -48 -2 -2 -7
-8 -9 -14 -3 -5 -10 -15 -16 -22 -6 -6 -11 -13 -12 -16 0 -2 -1 -7 -2 -11 -1
-4 -4 -11 -8 -15 -3 -4 -8 -12 -11 -16 -4 -9 -10 -15 -20 -19 -6 -2 -10 -9
-10 -16 0 -6 -5 -14 -10 -19 -3 -2 -6 -8 -8 -13 -3 -5 -9 -14 -15 -20 -6 -7
-13 -16 -15 -20 -2 -5 -6 -11 -9 -14 -3 -3 -7 -9 -9 -13 -3 -4 -9 -13 -15 -19
-6 -6 -13 -16 -16 -22 -3 -6 -8 -13 -10 -16 -7 -8 -19 -32 -19 -39 0 -5 -3
-10 -10 -19 -5 -7 -10 -14 -10 -15 0 -2 -4 -7 -8 -12 -5 -6 -10 -13 -12 -17
-1 -4 -7 -12 -13 -18 -6 -6 -12 -15 -14 -19 -2 -4 -7 -12 -11 -17 -4 -5 -9
-12 -11 -15 -1 -4 -6 -8 -9 -9 -5 -2 -8 -6 -15 -20 -5 -10 -12 -22 -16 -27 -4
-5 -7 -11 -8 -13 -1 -3 -7 -10 -13 -17 -7 -7 -13 -15 -15 -20 -2 -4 -6 -10
-10 -15 -8 -9 -11 -14 -11 -21 0 -7 -4 -15 -15 -25 -5 -5 -11 -13 -13 -18 -2
-5 -7 -12 -10 -15 -3 -3 -7 -10 -10 -15 -2 -5 -6 -11 -9 -14 -3 -3 -7 -9 -10
-14 -28 -57 -29 -58 -29 -68 0 -5 -2 -13 -4 -18 -7 -14 -8 -58 -2 -71 4 -9 5
-14 6 -43 1 -34 1 -34 7 -41 4 -5 9 -13 12 -18 8 -14 23 -27 36 -30 8 -2 14
-5 18 -9 11 -11 39 -14 56 -6 5 2 12 4 17 5 10 2 30 19 34 30 1 3 6 9 9 13 4
4 9 11 12 15 3 5 7 10 10 12 11 5 17 14 19 25 1 7 3 12 8 18 4 5 11 16 16 25
6 13 9 17 15 19 6 4 9 7 12 23 1 3 6 11 13 18 8 9 12 15 13 21 2 12 3 14 10
22 4 5 9 12 10 16 2 4 9 13 17 21 8 8 14 16 14 18 0 1 3 7 7 11 4 5 9 13 11
17 2 5 9 14 15 21 6 6 12 15 14 18 1 4 6 11 11 17 5 6 8 12 9 18 1 8 4 12 13
22 7 7 14 17 16 22 2 5 6 11 10 15 3 4 7 11 9 15 2 4 8 13 14 19 6 6 13 15 15
20 3 5 7 12 11 16 5 5 7 11 8 17 1 9 3 11 15 28 9 12 16 11 19 -2 1 -3 2 -7 2
-10 1 -3 4 -9 8 -14 4 -4 9 -11 10 -15 2 -4 9 -13 15 -19 7 -7 14 -17 16 -21
2 -5 6 -12 9 -15 3 -4 6 -10 8 -14 2 -4 8 -13 14 -19 8 -8 15 -19 25 -40 11
-20 18 -32 26 -41 7 -7 12 -15 12 -17 0 -10 4 -18 12 -23 4 -3 8 -6 8 -8 0 -2
6 -10 14 -17 7 -8 15 -18 17 -22 2 -4 6 -11 10 -15 3 -4 10 -15 14 -24 3 -9
10 -20 14 -24 5 -6 8 -12 9 -19 2 -10 4 -12 24 -33 21 -21 26 -28 26 -38 0
-13 19 -40 30 -44 2 -1 8 -8 13 -19 5 -9 13 -21 17 -26 5 -5 8 -10 8 -11 0 -5
9 -13 15 -13 3 0 10 -2 15 -4 21 -10 53 -8 67 4 5 5 12 9 18 10 15 3 22 9 28
21 3 5 8 13 12 18 6 7 6 7 7 42 1 30 2 35 5 40 6 9 6 61 -1 72 -2 5 -4 11 -4
18 0 10 -2 14 -18 46 -3 8 -8 18 -10 22 -3 4 -7 11 -11 15 -4 4 -8 10 -10 14
-1 4 -6 11 -10 16 -4 5 -9 12 -10 16 -2 3 -8 12 -15 19 -9 10 -12 15 -12 19 0
9 -3 16 -12 25 -4 5 -8 11 -9 13 -1 3 -7 11 -14 18 -6 7 -13 16 -14 20 -2 4
-6 11 -10 15 -3 4 -10 15 -14 24 -6 11 -10 17 -16 21 -4 3 -9 8 -11 11 -1 3
-6 9 -9 14 -4 4 -9 11 -11 16 -2 4 -8 13 -14 20 -6 7 -12 14 -13 16 -1 3 -5 9
-9 15 -4 5 -9 12 -11 16 -2 4 -7 11 -11 15 -5 6 -8 11 -9 17 -1 10 -13 34 -20
42 -3 3 -6 9 -8 13 -2 4 -9 14 -16 21 -7 7 -13 15 -14 18 -1 3 -5 9 -9 14 -4
5 -9 13 -12 17 -2 4 -8 13 -14 20 -6 7 -13 15 -14 19 -2 4 -7 11 -10 15 -4 4
-7 11 -8 16 -2 12 -4 14 -17 20 -7 4 -10 7 -13 14 -2 5 -7 12 -11 17 -4 5 -8
11 -8 14 -3 15 -6 20 -17 32 -6 8 -12 16 -13 18 -1 3 -4 8 -7 11 -12 13 -12
14 -12 43 0 40 -16 55 -42 43z m23 -164 c2 -2 3 -4 3 -5 0 -1 4 -7 9 -13 5 -6
10 -14 13 -18 2 -5 8 -12 14 -18 6 -5 12 -14 14 -19 2 -5 6 -11 9 -15 9 -10
-4 -42 -25 -64 -6 -7 -12 -14 -13 -17 -1 -2 -5 -8 -9 -13 -5 -5 -10 -12 -11
-16 -10 -19 -42 -9 -56 19 -3 5 -9 14 -15 19 -21 21 -28 46 -19 69 3 7 5 15 6
18 1 4 4 7 8 10 4 2 9 7 11 11 2 5 8 13 14 18 6 6 13 15 15 20 8 16 23 23 32
14z m-120 -159 c2 -2 5 -6 7 -10 1 -4 5 -10 8 -14 3 -3 8 -11 11 -16 3 -6 10
-16 17 -22 9 -10 11 -14 12 -22 1 -8 4 -12 10 -20 18 -20 18 -40 1 -56 -3 -3
-8 -9 -10 -15 -3 -5 -10 -15 -16 -21 -6 -6 -12 -15 -14 -19 -2 -4 -6 -11 -9
-15 -4 -4 -9 -12 -13 -18 -13 -22 -21 -22 -32 1 -3 5 -11 16 -17 23 -10 11
-12 14 -13 23 -1 7 -4 12 -10 20 -5 7 -9 13 -10 16 -1 2 -7 10 -14 17 -17 18
-17 22 0 40 11 11 13 15 15 24 1 8 4 13 9 18 4 5 9 12 10 16 2 4 8 12 13 18 6
6 12 15 15 20 9 17 19 22 30 12z m234 0 c2 -2 5 -7 7 -11 2 -5 8 -14 14 -20 5
-6 12 -15 14 -19 3 -5 8 -12 11 -16 4 -5 7 -11 8 -15 2 -14 3 -15 16 -29 16
-17 16 -19 1 -35 -7 -7 -14 -16 -15 -20 -2 -3 -6 -10 -10 -15 -6 -8 -11 -19
-11 -26 0 -2 -6 -10 -13 -18 -8 -9 -14 -17 -15 -22 -1 -4 -3 -8 -4 -9 -5 -3
-28 19 -33 30 -2 5 -6 11 -9 14 -3 3 -8 11 -11 16 -2 6 -9 15 -15 21 -5 6 -11
14 -13 18 -2 4 -7 11 -11 15 -12 13 -11 23 1 37 7 8 9 12 10 20 1 9 3 12 13
23 6 6 13 16 16 21 2 5 7 12 11 16 3 4 7 9 8 13 6 15 20 20 30 11z m-368 -189
c4 -3 10 -10 13 -17 3 -6 10 -15 15 -20 5 -5 11 -13 13 -17 3 -4 8 -12 12 -17
4 -5 9 -12 11 -16 1 -4 6 -10 10 -13 16 -13 17 -14 17 -23 0 -10 -3 -18 -9
-24 -2 -3 -9 -14 -14 -24 -5 -10 -13 -22 -16 -26 -4 -5 -8 -11 -10 -15 -8 -19
-24 -20 -34 -2 -3 7 -7 11 -14 15 -8 4 -11 7 -15 15 -21 40 -27 51 -37 61 -12
13 -14 17 -13 37 1 14 1 14 14 28 6 7 13 16 15 21 2 4 6 10 10 14 4 4 8 10 10
14 8 15 12 17 22 9z m496 0 c3 -3 5 -7 5 -8 0 -2 3 -7 8 -12 4 -4 10 -12 12
-17 2 -5 10 -14 16 -21 20 -21 20 -44 0 -65 -7 -8 -16 -22 -24 -37 -12 -24
-16 -29 -28 -35 -3 -2 -8 -7 -10 -10 -6 -10 -8 -12 -12 -12 -6 0 -22 15 -25
24 -2 4 -7 11 -11 16 -4 5 -8 11 -9 15 0 3 -1 7 -2 10 -1 3 -6 11 -13 18 -16
19 -16 28 2 37 5 2 8 6 12 12 2 5 7 12 10 15 3 3 7 9 9 13 2 4 8 12 14 18 6 6
13 15 15 20 10 21 22 28 31 19z m-603 -156 c2 -3 4 -8 4 -10 0 -8 4 -15 12
-25 4 -4 8 -10 8 -11 0 -2 3 -5 6 -7 3 -3 9 -7 12 -10 4 -3 8 -8 10 -13 2 -4
7 -12 12 -18 4 -5 8 -10 8 -12 0 -4 5 -8 16 -11 14 -5 14 -11 -2 -27 -6 -6
-13 -15 -15 -19 -2 -4 -6 -11 -10 -15 -4 -4 -8 -11 -10 -15 -3 -6 -26 -32 -29
-34 -1 0 -3 3 -5 6 -2 4 -10 13 -17 21 -8 8 -14 16 -14 18 0 1 -4 7 -8 12 -4
5 -10 13 -12 18 -2 4 -13 18 -25 30 -24 26 -24 25 -14 37 4 5 9 13 12 19 3 5
10 14 15 20 5 6 13 17 17 26 12 25 20 31 29 20z m711 2 c1 -2 6 -12 11 -21 4
-9 12 -22 18 -28 5 -6 11 -15 14 -19 2 -5 7 -12 11 -17 11 -13 10 -15 -14 -40
-11 -12 -22 -25 -24 -29 -2 -4 -6 -11 -10 -15 -4 -5 -9 -12 -11 -17 -8 -19
-31 -33 -38 -22 -2 3 -7 10 -12 14 -5 4 -11 13 -14 19 -3 6 -8 13 -10 15 -2 2
-6 8 -8 12 -3 4 -8 12 -12 18 -9 11 -9 21 0 21 4 0 25 21 29 30 5 9 10 15 19
21 3 2 7 6 9 10 2 3 7 10 11 14 5 7 8 11 9 18 2 16 14 24 22 16z m-815 -153
c2 -1 6 -6 8 -11 3 -4 8 -12 12 -17 4 -5 9 -13 12 -17 4 -9 8 -13 18 -18 4 -2
7 -6 9 -10 2 -4 6 -10 9 -13 3 -4 8 -12 11 -17 2 -6 6 -11 8 -13 10 -9 10 -17
-1 -29 -3 -3 -7 -9 -9 -13 -2 -5 -6 -11 -9 -14 -3 -4 -7 -11 -10 -15 -15 -31
-73 -11 -95 33 -9 18 -11 67 -3 82 2 4 4 13 5 20 1 7 3 16 5 20 2 4 4 11 5 15
2 14 15 23 25 17z m916 0 c5 -3 9 -11 11 -21 1 -4 3 -10 5 -14 3 -4 4 -10 4
-17 0 -8 1 -14 4 -19 4 -6 5 -12 6 -30 1 -33 -1 -40 -11 -53 -5 -6 -9 -12 -9
-13 0 -7 -38 -27 -51 -27 -11 0 -24 11 -32 26 -3 5 -7 13 -11 17 -3 4 -7 10
-7 13 -1 3 -2 9 -3 14 -3 11 0 24 9 35 4 4 9 11 11 15 2 4 8 10 14 14 8 4 11
8 14 15 2 5 8 14 13 19 5 6 9 11 9 13 0 9 16 17 24 13z"/>
</g>
</svg>
