<?xml version="1.0" standalone="no"?>
<!DOCTYPE svg PUBLIC "-//W3C//DTD SVG 20010904//EN"
 "http://www.w3.org/TR/2001/REC-SVG-20010904/DTD/svg10.dtd">
<svg version="1.0" xmlns="http://www.w3.org/2000/svg"
 width="148.000000pt" height="148.000000pt" viewBox="0 0 148.000000 148.000000"
 preserveAspectRatio="xMidYMid meet">
<metadata>
Created by potrace 1.16, written by Peter Selinger 2001-2019
</metadata>
<g transform="translate(0.000000,148.000000) scale(0.100000,-0.100000)"
fill="#000000" stroke="none">
<path d="M707 1414 c-4 -4 -7 -21 -7 -38 0 -19 -13 -50 -35 -80 -19 -27 -35
-55 -35 -61 0 -6 -13 -25 -30 -41 -16 -16 -30 -33 -30 -38 0 -4 -28 -47 -63
-95 -77 -106 -97 -137 -97 -152 0 -6 -17 -34 -37 -62 -65 -88 -80 -110 -136
-192 -187 -277 -182 -268 -180 -397 2 -93 5 -111 24 -137 27 -36 116 -78 132
-62 6 6 18 11 27 11 14 0 58 51 95 109 6 9 31 49 58 89 26 41 47 78 47 83 0 5
34 55 75 110 41 56 75 105 75 110 0 5 27 47 60 93 33 47 60 91 60 98 0 15 19
38 32 38 4 0 8 -7 8 -16 0 -9 13 -33 28 -53 16 -20 44 -61 63 -91 20 -30 47
-74 62 -97 15 -24 27 -45 27 -49 0 -3 18 -26 39 -50 21 -24 50 -68 65 -97 14
-29 37 -64 50 -77 14 -12 30 -38 37 -57 6 -18 19 -38 30 -43 10 -6 19 -16 19
-23 0 -7 13 -27 29 -45 35 -37 77 -42 132 -15 50 25 68 52 69 103 1 25 5 54 9
65 8 21 -9 117 -27 152 -7 11 -31 50 -54 85 -24 34 -51 79 -61 98 -10 19 -24
40 -30 45 -7 6 -21 26 -31 45 -10 19 -29 46 -41 60 -41 47 -125 170 -125 183
0 7 -34 61 -75 120 -41 58 -75 111 -75 116 0 6 -8 15 -19 20 -10 6 -26 27 -36
48 -10 21 -28 52 -41 68 -14 18 -24 48 -26 75 -3 40 -6 45 -28 48 -14 2 -29 0
-33 -4z m77 -246 c25 -35 46 -70 46 -78 0 -18 -89 -140 -102 -140 -14 0 -66
58 -84 92 -19 37 -11 78 22 109 14 13 32 36 40 52 8 15 18 27 23 27 5 0 29
-28 55 -62z m-155 -193 c22 -31 41 -60 41 -65 0 -4 8 -22 17 -38 17 -29 16
-30 -14 -68 -16 -22 -42 -58 -57 -81 -28 -46 -43 -53 -53 -25 -7 17 -14 30
-72 116 l-32 48 20 22 c12 12 21 26 21 30 0 15 74 114 86 116 1 0 20 -25 43
-55z m294 -1 c20 -30 37 -61 37 -67 0 -7 9 -20 20 -30 20 -17 20 -17 -15 -63
-19 -25 -35 -50 -35 -55 0 -5 -10 -23 -22 -39 -20 -28 -23 -29 -40 -13 -10 9
-18 20 -18 26 0 5 -20 36 -45 69 l-44 59 17 32 c34 62 87 137 97 136 6 0 27
-25 48 -55z m-454 -241 c21 -32 49 -68 62 -80 l22 -23 -24 -45 c-13 -25 -34
-58 -46 -73 l-21 -27 -30 30 c-16 17 -39 49 -50 72 -12 23 -26 44 -32 48 -19
12 -10 49 27 102 20 29 40 53 44 53 4 0 26 -26 48 -57z m602 20 c13 -21 29
-44 36 -51 20 -21 16 -51 -12 -84 -14 -16 -25 -35 -25 -42 0 -7 -15 -27 -33
-45 l-34 -32 -26 35 c-15 19 -27 39 -27 44 0 5 -10 22 -22 37 l-21 27 20 17
c11 9 39 42 63 74 23 31 46 57 50 57 5 0 19 -17 31 -37z m-762 -190 c10 -21
42 -61 69 -90 41 -43 48 -54 36 -64 -8 -6 -31 -37 -52 -69 -33 -48 -40 -54
-48 -40 -21 40 -82 126 -102 143 l-20 19 46 69 c26 38 48 69 49 69 2 0 11 -17
22 -37z m881 17 c0 -4 16 -31 35 -59 41 -59 41 -62 15 -86 -11 -10 -36 -42
-56 -72 -19 -29 -40 -51 -45 -47 -12 7 -89 111 -89 120 0 4 10 17 23 29 50 51
77 86 77 104 0 9 3 20 6 24 8 7 34 -3 34 -13z m-983 -232 c70 -94 83 -112 83
-118 0 -3 -16 -26 -35 -53 l-35 -47 -40 20 c-59 30 -74 59 -67 128 8 72 25
122 42 122 7 0 30 -23 52 -52z m1113 34 c0 -10 4 -22 10 -28 5 -5 13 -38 16
-72 7 -60 6 -62 -29 -97 -48 -48 -71 -46 -106 10 -33 51 -31 70 8 112 15 15
37 43 50 61 24 35 51 43 51 14z"/>
</g>
</svg>
