<?xml version="1.0" standalone="no"?>
<!DOCTYPE svg PUBLIC "-//W3C//DTD SVG 20010904//EN"
 "http://www.w3.org/TR/2001/REC-SVG-20010904/DTD/svg10.dtd">
<svg version="1.0" xmlns="http://www.w3.org/2000/svg"
 width="130.000000pt" height="148.000000pt" viewBox="0 0 130.000000 148.000000"
 preserveAspectRatio="xMidYMid meet">
<metadata>
Created by potrace 1.16, written by Peter Selinger 2001-2019
</metadata>
<g transform="translate(0.000000,148.000000) scale(0.100000,-0.100000)"
fill="#000000" stroke="none">
<path d="M617 1414 c-4 -4 -7 -40 -7 -81 0 -65 -3 -75 -24 -94 -27 -24 -54
-40 -104 -63 -43 -20 -109 -75 -196 -163 -82 -82 -89 -91 -106 -124 -7 -13
-19 -28 -27 -32 -8 -5 -19 -18 -24 -30 -13 -29 -32 -62 -46 -78 -37 -45 -42
-265 -7 -311 74 -98 222 -92 326 13 20 21 50 45 66 53 16 8 43 32 60 53 48 58
75 84 81 77 3 -3 6 -135 6 -292 l0 -287 24 -3 c13 -2 33 1 45 7 20 11 21 19
24 251 1 161 -1 241 -8 245 -12 7 -5 56 12 88 9 17 10 17 36 -2 15 -11 38 -41
51 -68 35 -73 136 -143 207 -143 12 0 24 -5 26 -12 3 -9 12 -9 38 0 18 7 42
12 53 12 10 0 41 18 68 41 l49 41 -1 81 c0 84 -1 87 -63 198 -10 19 -27 43
-37 54 -10 11 -29 39 -41 61 -13 22 -36 59 -53 82 -16 22 -42 59 -57 80 -16
22 -52 53 -80 70 -29 16 -74 46 -101 66 -26 20 -53 36 -61 36 -29 0 -45 35
-48 105 l-3 70 -35 3 c-20 2 -39 0 -43 -4z m157 -274 c31 -22 70 -47 86 -55
34 -18 39 -52 15 -95 -8 -14 -14 -35 -15 -48 0 -12 -7 -25 -15 -28 -8 -4 -15
-14 -15 -24 0 -31 -62 -190 -74 -190 -22 0 -57 41 -51 59 3 10 1 30 -4 44 -6
15 -6 29 -2 32 9 5 7 93 -4 256 -7 105 -4 107 79 49z m-159 -193 c0 -122 -4
-228 -8 -234 -5 -7 -14 -13 -20 -13 -14 0 -69 151 -71 195 -1 17 -14 56 -29
87 -16 31 -27 65 -25 75 3 15 131 113 148 113 3 0 5 -100 5 -223z m-206 21
c10 -24 24 -61 31 -83 16 -48 36 -98 61 -147 11 -20 19 -55 19 -76 0 -35 -5
-42 -41 -66 -62 -41 -73 -31 -106 99 -8 33 -22 69 -29 80 -8 11 -14 31 -14 46
0 15 -7 32 -15 39 -26 21 -19 90 12 122 38 40 60 36 82 -14z m571 -17 c5 -11
16 -25 22 -33 7 -7 18 -24 25 -38 23 -49 24 -66 3 -85 -11 -10 -20 -29 -20
-42 0 -13 -8 -40 -19 -61 -10 -20 -21 -58 -25 -84 -4 -26 -14 -55 -22 -63 -14
-13 -18 -13 -37 0 -12 8 -37 34 -55 57 -38 48 -38 79 -2 125 11 14 20 33 20
42 0 14 16 60 59 164 16 41 35 47 51 18z m-717 -153 c9 -24 23 -68 31 -98 8
-30 23 -77 35 -103 15 -36 18 -53 11 -67 -6 -10 -10 -28 -10 -40 0 -25 -35
-40 -110 -46 -48 -4 -58 -1 -83 21 -25 24 -27 31 -27 108 0 58 5 89 15 103 8
10 15 29 15 42 0 12 7 25 15 28 8 4 24 26 34 50 26 59 53 59 74 2z m867 -46
c0 -10 9 -37 20 -60 28 -58 26 -120 -5 -162 -33 -45 -42 -50 -93 -50 -54 0
-62 17 -34 74 12 23 33 73 47 111 32 84 43 105 55 105 6 0 10 -8 10 -18z"/>
</g>
</svg>
