<?xml version="1.0" standalone="no"?>
<!DOCTYPE svg PUBLIC "-//W3C//DTD SVG 20010904//EN"
 "http://www.w3.org/TR/2001/REC-SVG-20010904/DTD/svg10.dtd">
<svg version="1.0" xmlns="http://www.w3.org/2000/svg"
 width="516.000000pt" height="590.000000pt" viewBox="0 0 516.000000 590.000000"
 preserveAspectRatio="xMidYMid meet">
<metadata>
Created by potrace 1.16, written by Peter Selinger 2001-2019
</metadata>
<g transform="translate(0.000000,590.000000) scale(0.500000,-0.500000)"
fill="#000000" stroke="none">
<path d="M499 1130 c-14 -3 -14 -2 -13 -63 l0 -55 -16 -17 c-17 -18 -29 -25
-46 -30 -7 -2 -11 -5 -14 -9 -5 -7 -13 -11 -28 -16 -12 -4 -35 -19 -41 -27 -2
-2 -7 -6 -11 -9 -4 -3 -13 -10 -20 -17 -10 -10 -15 -13 -24 -16 -12 -3 -17 -8
-23 -18 -1 -4 -6 -9 -9 -11 -10 -8 -16 -15 -28 -31 -9 -12 -13 -16 -23 -22
-13 -7 -19 -14 -34 -39 -3 -5 -9 -13 -13 -17 -6 -6 -10 -13 -13 -21 -3 -10 -6
-14 -11 -17 -13 -8 -22 -17 -23 -25 -2 -11 -9 -22 -17 -30 -5 -5 -8 -10 -10
-16 -1 -5 -6 -13 -13 -20 -9 -10 -11 -14 -12 -22 -1 -5 -3 -15 -5 -22 -2 -7
-4 -20 -5 -29 0 -10 -2 -18 -4 -22 -5 -11 -5 -87 0 -97 2 -4 4 -13 5 -23 2
-28 21 -54 49 -69 7 -3 15 -10 19 -15 8 -8 8 -8 28 -9 12 -1 24 -3 28 -5 8 -3
13 -2 22 2 3 2 10 3 17 3 18 0 27 3 34 11 9 10 19 15 33 17 14 2 19 6 28 21 3
7 8 11 14 14 12 7 15 10 24 23 8 12 18 18 33 22 10 2 60 52 68 68 9 18 33 36
41 31 4 -3 4 -46 0 -274 -3 -181 -3 -176 7 -180 37 -16 88 10 75 38 -5 12 -6
57 -1 67 3 6 3 53 0 149 0 17 -1 33 -1 37 1 66 0 97 -4 106 -5 11 -6 27 -1 36
2 3 3 9 3 12 0 49 43 27 75 -38 15 -32 15 -32 28 -40 10 -5 15 -10 18 -15 4
-9 11 -14 21 -16 3 -1 8 -4 10 -6 9 -13 13 -17 21 -19 4 -1 12 -4 16 -6 5 -2
10 -4 11 -4 2 0 8 -2 13 -4 7 -3 12 -4 17 -3 12 2 26 -2 34 -10 9 -8 9 -8 20
-1 5 3 13 7 17 8 5 1 11 3 14 5 3 2 11 3 17 3 15 0 21 2 32 13 5 5 13 10 17
13 8 4 14 9 20 19 2 3 7 7 11 10 14 9 14 12 14 77 l-1 57 -11 22 c-6 12 -13
27 -15 33 -1 6 -5 13 -7 15 -3 2 -6 8 -9 12 -2 4 -6 12 -10 16 -4 5 -7 13 -8
17 -1 7 -4 11 -16 24 -8 8 -16 18 -18 22 -2 4 -6 10 -8 13 -7 8 -14 22 -18 35
-3 11 -12 22 -17 22 -2 0 -22 27 -27 35 -1 3 -5 9 -9 13 -3 5 -6 11 -7 16 -1
6 -3 9 -7 12 -3 3 -9 9 -13 15 -9 13 -30 34 -41 39 -4 2 -10 6 -13 9 -3 2 -13
8 -21 12 -8 4 -19 10 -24 14 -5 4 -9 7 -10 7 -1 0 -8 5 -16 12 -9 7 -17 12
-22 14 -7 1 -10 4 -13 8 -6 11 -14 15 -27 17 -31 3 -40 23 -40 84 0 46 -1 51
-7 54 -6 2 -47 3 -56 1z m84 -197 c5 -3 15 -9 20 -13 6 -4 16 -11 23 -14 7 -4
18 -11 24 -17 6 -5 21 -15 33 -21 31 -16 38 -40 18 -65 -4 -5 -7 -11 -7 -13 0
-2 -2 -8 -4 -14 -2 -5 -4 -14 -5 -21 -1 -10 -3 -13 -10 -21 -14 -15 -15 -18
-15 -32 0 -11 -1 -16 -7 -28 -4 -8 -8 -19 -9 -24 -2 -5 -5 -15 -9 -22 -4 -7
-7 -17 -9 -23 -4 -17 -17 -41 -23 -41 -4 0 -32 18 -35 22 -2 4 -3 12 -3 28 -1
16 -2 25 -4 30 -4 10 -4 17 1 29 4 10 5 11 1 19 -4 11 -4 17 0 24 4 7 4 14 -1
24 -4 9 -6 174 -3 192 2 8 9 8 24 1z m-95 -11 c3 -12 3 -339 0 -343 -7 -13
-21 -19 -24 -9 -1 3 -7 16 -14 29 -6 13 -11 27 -12 32 -1 4 -5 14 -9 23 -12
28 -17 47 -17 68 0 17 0 20 -5 26 -7 11 -13 24 -20 48 -1 5 -5 13 -9 18 -15
19 -8 47 14 60 5 3 13 8 18 12 5 3 14 9 21 12 6 4 15 9 19 12 24 20 36 23 38
12z m-177 -117 c4 -2 15 -24 15 -29 0 -2 4 -11 8 -19 4 -9 8 -19 9 -22 1 -3 5
-13 9 -22 6 -13 8 -19 8 -28 0 -13 2 -18 10 -25 6 -5 13 -23 15 -35 1 -3 2 -9
2 -12 1 -4 4 -11 8 -15 29 -35 26 -98 -5 -114 -4 -2 -13 -9 -21 -15 -27 -22
-38 -14 -55 41 -4 12 -10 27 -13 34 -6 12 -7 16 -7 28 0 18 -3 28 -8 33 -10 9
-18 31 -18 47 0 19 -2 24 -13 36 -20 22 -19 74 2 88 5 4 13 12 17 17 3 6 8 11
10 11 4 2 23 2 27 1z m464 -41 c6 -6 12 -15 15 -19 2 -4 7 -11 11 -15 4 -4 9
-10 11 -15 2 -4 7 -11 11 -16 10 -14 12 -54 2 -60 -15 -9 -18 -13 -19 -35 -1
-12 -2 -23 -4 -26 -1 -2 -4 -9 -5 -14 -2 -6 -5 -11 -9 -14 -7 -5 -13 -23 -11
-35 1 -8 -3 -23 -11 -43 -2 -6 -4 -11 -4 -13 0 -23 -20 -32 -40 -17 -5 4 -12
9 -16 10 -3 2 -8 8 -10 12 -2 5 -11 16 -19 24 -8 9 -15 18 -16 21 -1 3 -2 9
-3 13 -4 14 8 45 21 60 9 10 16 26 17 41 0 12 2 18 12 38 11 23 18 40 22 58 1
4 5 11 9 16 4 5 8 13 8 17 4 22 14 26 28 12z m-578 -98 c3 -4 6 -10 7 -15 1
-4 6 -16 10 -25 4 -9 8 -19 8 -21 0 -2 2 -7 4 -13 8 -19 10 -29 12 -46 2 -16
3 -19 12 -30 2 -3 5 -9 7 -15 3 -11 8 -25 13 -39 7 -17 7 -29 1 -38 -4 -6 -6
-11 -7 -24 -2 -22 -14 -33 -41 -35 -5 -1 -14 -3 -19 -5 -12 -5 -22 -5 -35 -1
-8 2 -12 3 -16 1 -13 -5 -24 -3 -30 6 -3 4 -9 10 -14 14 -25 19 -31 123 -9
157 4 5 9 12 10 15 3 3 4 9 4 17 0 16 4 24 16 30 11 6 17 13 19 25 6 31 37 59
48 42z m699 -55 c2 -2 3 -10 4 -17 1 -11 2 -15 8 -22 3 -4 8 -12 9 -18 1 -5 6
-16 10 -24 15 -32 6 -87 -18 -105 -4 -3 -8 -9 -9 -13 -10 -31 -100 -33 -100
-2 0 2 5 14 12 27 6 13 12 27 13 31 0 3 4 13 8 21 4 8 8 19 9 23 1 5 5 15 9
22 4 7 7 16 8 20 2 8 20 44 26 54 6 7 7 7 11 3z"/>
</g>
</svg>
