<?xml version="1.0" standalone="no"?>
<!DOCTYPE svg PUBLIC "-//W3C//DTD SVG 20010904//EN"
 "http://www.w3.org/TR/2001/REC-SVG-20010904/DTD/svg10.dtd">
<svg version="1.0" xmlns="http://www.w3.org/2000/svg"
 width="114.000000pt" height="148.000000pt" viewBox="0 0 114.000000 148.000000"
 preserveAspectRatio="xMidYMid meet">
<metadata>
Created by potrace 1.16, written by Peter Selinger 2001-2019
</metadata>
<g transform="translate(0.000000,148.000000) scale(0.100000,-0.100000)"
fill="#000000" stroke="none">
<path d="M550 1420 c-23 -5 -25 -11 -30 -84 -5 -73 -7 -81 -34 -100 -16 -12
-49 -43 -75 -71 -25 -27 -85 -88 -132 -135 -78 -78 -149 -160 -174 -201 -39
-64 -45 -85 -51 -161 -8 -98 10 -166 47 -185 14 -7 61 -13 108 -13 81 0 88 2
150 39 36 22 91 65 121 95 30 31 58 56 62 56 4 0 9 -107 9 -237 1 -131 4 -267
8 -303 6 -62 7 -65 35 -68 16 -2 33 1 38 6 9 9 -5 434 -18 540 -9 72 7 69 81
-17 76 -88 102 -103 185 -109 64 -4 68 -3 104 29 48 42 86 123 86 183 0 49
-34 134 -56 143 -8 3 -29 26 -47 51 -19 26 -89 106 -156 177 -68 72 -143 156
-167 188 -40 54 -44 64 -44 117 0 62 -7 71 -50 60z m-7 -372 c4 -82 2 -130 -4
-134 -20 -12 -28 11 -30 79 -1 38 -7 86 -12 107 -9 31 -7 43 7 65 10 15 21 23
26 19 4 -5 10 -66 13 -136z m93 101 c11 -18 13 -218 3 -225 -6 -3 -16 0 -24 6
-11 10 -15 37 -15 115 0 56 3 105 7 108 10 10 21 8 29 -4z m-169 -95 c7 -32
12 -88 10 -124 -2 -58 -4 -65 -22 -65 -18 0 -21 9 -27 115 -4 63 -6 121 -3
128 10 29 31 3 42 -54z m254 -1 c11 -28 5 -176 -8 -196 -3 -6 -12 -2 -20 8
-14 20 -19 195 -6 208 13 13 24 7 34 -20z m-331 -81 c13 -77 10 -157 -5 -157
-16 0 -47 196 -34 212 20 24 27 14 39 -55z m406 17 c8 -13 7 -176 -1 -189 -3
-5 -12 -7 -20 -3 -16 6 -20 74 -9 157 7 45 16 57 30 35z m-474 -85 c11 -60 9
-122 -3 -130 -6 -3 -15 -1 -19 6 -11 17 -23 148 -15 161 13 19 30 2 37 -37z
m556 -78 c4 -110 -1 -126 -28 -101 -21 19 -24 52 -13 143 4 41 9 52 22 50 13
-3 17 -20 19 -92z m-624 8 c19 -139 -19 -172 -45 -41 -9 44 -9 60 1 72 22 27
37 17 44 -31z m500 -78 c200 -185 210 -195 206 -199 -41 -30 -59 -35 -102 -26
-40 9 -59 23 -145 112 l-99 103 3 54 c1 30 2 59 3 63 0 14 21 -3 134 -107z
m-209 50 c0 -26 -3 -55 -7 -65 -7 -21 -189 -171 -237 -195 -33 -18 -137 -26
-159 -12 -24 14 -12 44 30 72 63 43 246 173 303 216 28 21 55 36 60 35 6 -2
10 -25 10 -51z m405 0 c10 -28 16 -153 7 -162 -4 -4 -13 -1 -22 6 -11 9 -15
33 -15 96 0 84 11 108 30 60z m-767 -83 c4 -38 2 -46 -24 -68 -40 -33 -63 -24
-56 22 7 39 55 109 67 96 4 -4 10 -27 13 -50z m845 -25 c-4 -46 -28 -49 -28
-4 0 26 4 36 16 36 11 0 14 -8 12 -32z"/>
</g>
</svg>
