<?xml version="1.0" standalone="no"?>
<!DOCTYPE svg PUBLIC "-//W3C//DTD SVG 20010904//EN"
 "http://www.w3.org/TR/2001/REC-SVG-20010904/DTD/svg10.dtd">
<svg version="1.0" xmlns="http://www.w3.org/2000/svg"
 width="452.000000pt" height="590.000000pt" viewBox="0 0 452.000000 590.000000"
 preserveAspectRatio="xMidYMid meet">
<metadata>
Created by potrace 1.16, written by Peter Selinger 2001-2019
</metadata>
<g transform="translate(0.000000,590.000000) scale(0.500000,-0.500000)"
fill="#000000" stroke="none">
<path d="M442 1137 c-4 -1 -9 -3 -12 -3 -14 0 -17 -9 -15 -55 1 -43 1 -44 -4
-54 -2 -5 -6 -13 -7 -16 -3 -7 -7 -12 -20 -21 -20 -15 -36 -28 -41 -36 -3 -5
-15 -18 -25 -28 -11 -11 -20 -21 -20 -22 0 -2 -33 -36 -73 -76 -40 -40 -75
-77 -78 -82 -4 -5 -9 -11 -11 -13 -2 -2 -8 -10 -13 -18 -5 -8 -15 -19 -21 -25
-9 -9 -12 -13 -13 -19 -1 -7 -3 -11 -11 -19 -18 -20 -30 -52 -30 -81 0 -7 -1
-17 -3 -22 -9 -30 -5 -91 7 -112 2 -4 5 -11 6 -17 5 -23 23 -38 47 -38 3 0 11
-1 16 -3 14 -5 63 -5 80 0 6 2 17 3 24 3 14 0 33 8 61 26 8 5 20 13 27 17 7 5
17 13 23 18 7 6 15 13 19 16 5 3 21 19 38 36 46 48 46 48 43 -51 -1 -57 -1
-71 1 -81 3 -10 3 -29 2 -110 -1 -78 -1 -100 1 -106 2 -5 3 -24 4 -50 1 -52 0
-49 33 -49 33 0 45 47 30 118 -2 9 -3 40 -4 104 -1 74 -2 96 -5 115 -5 31 -7
129 -2 133 5 6 26 -10 38 -29 5 -6 25 -29 46 -50 40 -42 45 -46 73 -51 7 -1
15 -3 18 -4 3 -1 11 -2 19 -2 7 0 18 -1 25 -3 10 -2 14 -2 23 0 6 2 14 3 18 3
5 0 9 3 19 12 7 6 15 12 18 14 4 2 8 7 10 10 2 4 7 11 12 15 6 6 9 10 9 14 0
7 4 16 13 29 4 6 7 14 8 18 1 4 3 11 4 16 3 8 3 18 3 45 -1 39 0 34 -22 80 -6
12 -18 27 -27 34 -9 7 -16 15 -33 40 -7 10 -21 27 -31 37 -11 11 -21 24 -25
31 -6 12 -16 23 -20 23 -4 0 -84 82 -97 99 -7 8 -21 25 -32 37 -11 11 -26 29
-33 38 -7 9 -16 20 -19 25 -4 4 -7 8 -7 10 0 1 -4 8 -9 14 -19 26 -19 27 -19
70 1 48 -7 58 -36 46z m-18 -199 c1 -3 3 -28 4 -67 1 -47 2 -65 5 -73 6 -22 4
-59 -5 -64 -11 -6 -16 9 -18 49 0 15 -2 29 -3 31 -1 1 -2 14 -2 29 0 14 -2 29
-3 32 -3 8 -3 45 1 52 7 14 17 19 21 11z m76 -15 c17 -20 21 -185 5 -185 -7 0
-19 15 -21 24 -2 18 1 157 4 161 3 4 9 4 12 0z m-138 -34 c1 -1 3 -7 4 -12 1
-6 3 -13 4 -16 1 -3 3 -14 3 -23 1 -9 3 -21 4 -25 6 -19 5 -113 -2 -118 -11
-10 -21 -9 -23 2 -1 3 -3 11 -5 18 -2 9 -3 23 -3 57 0 35 -1 49 -3 58 -9 36 5
78 21 59z m197 -29 c2 0 5 -5 7 -10 2 -5 6 -11 8 -14 6 -7 8 -72 3 -91 -2 -7
-3 -20 -3 -29 0 -33 -10 -40 -23 -16 -6 9 -6 9 -6 80 0 81 2 88 14 80z m-256
-35 c0 -2 1 -6 1 -10 0 -3 2 -10 4 -16 3 -10 4 -17 4 -37 0 -15 1 -30 3 -37 3
-12 4 -52 1 -61 -5 -18 -20 -8 -20 13 0 8 -1 20 -3 27 -2 7 -3 17 -3 22 0 6
-1 15 -3 21 -2 7 -3 17 -3 24 0 8 -1 15 -5 22 -7 15 -5 22 12 34 6 5 10 5 12
-2z m324 -28 c11 -5 18 -75 10 -108 -2 -7 -3 -19 -3 -26 0 -19 -5 -25 -17 -22
-11 3 -17 76 -8 101 2 5 4 18 4 29 2 26 4 30 14 26z m-379 -42 c6 -7 8 -15 8
-27 0 -6 1 -16 3 -23 4 -17 4 -71 0 -80 -5 -13 -17 -8 -17 7 0 4 -1 12 -3 19
-15 65 -10 127 9 104z m440 -24 c11 -13 11 -12 12 -79 1 -79 -1 -85 -17 -73
-14 11 -15 13 -15 59 0 30 1 44 3 50 1 5 3 17 4 26 1 26 4 29 13 17z m-494
-30 c4 -11 6 -20 7 -32 1 -7 3 -16 4 -20 6 -13 4 -59 -2 -67 -12 -14 -17 -8
-27 31 -15 65 -15 67 -1 80 5 5 9 10 9 11 0 5 8 2 10 -3z m328 -23 c8 -7 28
-26 45 -42 16 -16 35 -33 40 -37 6 -4 18 -15 27 -25 9 -10 20 -21 26 -24 5 -4
22 -19 38 -35 16 -15 36 -33 43 -40 25 -22 25 -25 1 -40 -21 -12 -47 -13 -84
-1 -12 3 -74 59 -85 76 -2 4 -8 11 -13 15 -5 4 -13 14 -19 22 -6 8 -15 17 -19
20 -25 16 -31 27 -29 49 1 8 2 27 2 41 0 38 4 41 27 21z m-92 6 c4 -3 4 -4 4
-46 l-1 -44 -24 -24 c-13 -14 -29 -28 -35 -32 -6 -3 -21 -16 -32 -27 -12 -11
-29 -26 -39 -33 -10 -7 -22 -16 -28 -20 -52 -41 -157 -48 -167 -11 -3 11 0 14
17 26 9 7 19 14 22 17 3 3 13 10 21 15 8 5 18 12 21 15 3 3 16 12 29 21 13 9
27 18 31 22 10 8 34 25 72 52 17 12 35 25 40 29 6 4 18 13 27 19 9 7 20 14 23
17 5 5 10 7 13 8 1 0 4 -2 6 -4z m319 -29 c2 -3 4 -10 4 -16 1 -7 4 -16 7 -22
5 -10 8 -79 3 -95 -2 -11 -18 -3 -24 11 -4 8 -4 117 -1 123 3 5 7 5 11 -1z
m-607 -55 c2 -8 4 -17 5 -32 l1 -22 -15 -15 c-35 -36 -59 -19 -42 30 8 20 21
40 33 49 10 7 11 6 18 -10z"/>
</g>
</svg>
