<?xml version="1.0" standalone="no"?>
<!DOCTYPE svg PUBLIC "-//W3C//DTD SVG 20010904//EN"
 "http://www.w3.org/TR/2001/REC-SVG-20010904/DTD/svg10.dtd">
<svg version="1.0" xmlns="http://www.w3.org/2000/svg"
 width="77.000000pt" height="100.000000pt" viewBox="0 0 77.000000 100.000000"
 preserveAspectRatio="xMidYMid meet">
<metadata>
Created by potrace 1.16, written by Peter Selinger 2001-2019
</metadata>
<g transform="translate(0.000000,100.000000) scale(0.100000,-0.100000)"
fill="#000000" stroke="none">
<path d="M357 964 c-4 -4 -7 -28 -7 -53 -1 -45 -3 -48 -126 -176 -69 -71 -138
-149 -154 -173 -54 -81 -50 -221 6 -242 71 -27 152 -4 225 65 27 25 53 45 59
45 6 0 10 -62 10 -181 0 -105 4 -188 10 -200 12 -22 45 -26 53 -5 3 7 1 95 -4
196 -5 101 -7 185 -5 188 3 2 29 -20 58 -51 58 -60 108 -78 161 -58 41 16 80
83 81 140 1 60 -19 90 -166 248 -133 142 -141 153 -148 212 -4 37 -9 47 -25
49 -12 2 -24 0 -28 -4z m-37 -306 c0 -51 -3 -69 -12 -66 -9 3 -14 31 -16 83
-3 70 -1 77 13 65 11 -9 15 -31 15 -82z m314 -259 c5 -5 4 -15 -4 -24 -25 -30
-69 -10 -142 62 -55 55 -68 73 -68 99 0 17 3 33 6 37 5 5 50 -32 208 -174z
m-264 140 c0 -35 -39 -76 -134 -139 -43 -30 -68 -40 -97 -40 -55 0 -54 31 3
67 24 14 78 53 122 85 43 32 85 58 92 58 9 0 14 -11 14 -31z"/>
</g>
</svg>
