<?xml version="1.0" standalone="no"?>
<!DOCTYPE svg PUBLIC "-//W3C//DTD SVG 20010904//EN"
 "http://www.w3.org/TR/2001/REC-SVG-20010904/DTD/svg10.dtd">
<svg version="1.0" xmlns="http://www.w3.org/2000/svg"
 width="80.000000pt" height="100.000000pt" viewBox="0 0 80.000000 100.000000"
 preserveAspectRatio="xMidYMid meet">
<metadata>
Created by potrace 1.16, written by Peter Selinger 2001-2019
</metadata>
<g transform="translate(0.000000,100.000000) scale(0.100000,-0.100000)"
fill="#000000" stroke="none">
<path d="M318 943 c-12 -3 -18 -17 -20 -45 -3 -39 -6 -43 -57 -70 -64 -33
-120 -85 -163 -151 -30 -47 -31 -51 -25 -130 3 -45 9 -90 12 -100 11 -27 135
-115 188 -133 l47 -16 0 -63 0 -63 -66 -61 c-36 -33 -64 -64 -61 -68 8 -12
310 -9 314 3 2 6 -24 34 -57 63 l-61 53 3 67 3 66 100 6 c143 9 197 28 240 87
l35 47 0 120 c0 105 -3 126 -24 170 -33 71 -37 74 -194 136 -13 5 -57 9 -99 9
l-75 0 5 30 c7 32 -12 50 -45 43z m92 -367 c0 -239 -5 -273 -37 -231 -10 15
-13 69 -13 235 0 119 3 220 7 223 3 4 15 7 25 7 17 0 18 -14 18 -234z m138
206 c9 -12 12 -71 12 -218 0 -175 -2 -203 -16 -208 -30 -12 -63 -6 -67 12 -8
28 -3 416 6 429 9 14 48 5 65 -15z m-248 -202 c0 -235 -1 -237 -48 -204 -21
15 -22 20 -22 200 0 171 1 185 20 204 11 11 27 20 35 20 13 0 15 -31 15 -220z
m374 139 c27 -45 29 -253 3 -293 -20 -30 -53 -32 -51 -3 0 9 1 87 2 172 2 166
9 186 46 124z m-504 -149 c0 -99 -3 -120 -15 -120 -42 0 -62 153 -28 211 34
57 43 38 43 -91z"/>
</g>
</svg>
