<?xml version="1.0" standalone="no"?>
<!DOCTYPE svg PUBLIC "-//W3C//DTD SVG 20010904//EN"
 "http://www.w3.org/TR/2001/REC-SVG-20010904/DTD/svg10.dtd">
<svg version="1.0" xmlns="http://www.w3.org/2000/svg"
 width="118.000000pt" height="148.000000pt" viewBox="0 0 118.000000 148.000000"
 preserveAspectRatio="xMidYMid meet">
<metadata>
Created by potrace 1.16, written by Peter Selinger 2001-2019
</metadata>
<g transform="translate(0.000000,148.000000) scale(0.100000,-0.100000)"
fill="#000000" stroke="none">
<path d="M445 1380 c-4 -6 -6 -30 -5 -53 2 -23 2 -47 1 -54 0 -6 -35 -28 -77
-48 -112 -53 -234 -168 -234 -220 0 -8 -9 -20 -21 -28 -32 -23 -55 -166 -29
-182 6 -4 10 -18 9 -33 -2 -49 18 -123 37 -137 11 -7 37 -30 59 -50 51 -47
191 -120 230 -120 l30 0 3 -98 2 -98 -100 -96 c-55 -53 -97 -99 -95 -102 3 -3
109 -5 235 -6 181 0 230 2 230 12 0 7 -4 13 -9 13 -5 0 -31 23 -58 52 -26 29
-63 66 -80 82 -33 30 -33 30 -33 128 l0 98 115 0 c75 0 127 5 148 14 18 7 58
16 89 20 31 4 62 14 69 22 6 8 20 14 31 14 11 0 26 13 36 31 9 17 29 47 45 66
l27 36 0 177 0 177 -38 76 c-22 42 -44 83 -51 91 -18 21 -179 98 -191 91 -5
-3 -23 1 -39 10 -22 11 -61 15 -141 15 l-112 0 4 53 3 52 -42 3 c-22 2 -44 -2
-48 -8z m-5 -854 c-7 -7 -16 -7 -28 2 -9 7 -27 16 -39 21 -11 6 -24 15 -28 21
-4 7 -9 91 -10 188 -2 98 -3 182 -4 187 0 6 1 49 3 98 5 103 19 131 73 144
l38 9 3 -330 c1 -219 -1 -333 -8 -340z m165 319 l0 -350 -35 0 -35 0 -1 205
c-1 113 -2 216 -2 230 -1 36 5 253 7 263 0 5 16 7 34 5 l32 -3 0 -350z m188
334 c21 -9 25 -20 31 -73 6 -65 10 -575 4 -581 -1 -1 -31 -6 -65 -10 l-63 -7
-1 34 c-8 288 -9 565 0 636 1 15 61 16 94 1z m175 -77 c10 -10 29 -40 41 -66
22 -44 23 -56 19 -204 -3 -137 -7 -162 -25 -198 -30 -56 -64 -70 -83 -33 -8
15 -8 24 0 34 8 9 10 51 6 132 -7 154 -7 156 0 242 4 47 2 77 -5 84 -6 6 -11
15 -11 19 0 15 40 8 58 -10z m-718 -257 c0 -232 -2 -237 -65 -137 -33 52 -35
62 -35 137 0 77 2 84 35 131 19 27 35 55 35 61 0 7 7 13 15 13 13 0 15 -29 15
-205z"/>
</g>
</svg>
