<?xml version="1.0" standalone="no"?>
<!DOCTYPE svg PUBLIC "-//W3C//DTD SVG 20010904//EN"
 "http://www.w3.org/TR/2001/REC-SVG-20010904/DTD/svg10.dtd">
<svg version="1.0" xmlns="http://www.w3.org/2000/svg"
 width="474.000000pt" height="590.000000pt" viewBox="0 0 474.000000 590.000000"
 preserveAspectRatio="xMidYMid meet">
<metadata>
Created by potrace 1.16, written by Peter Selinger 2001-2019
</metadata>
<g transform="translate(0.000000,590.000000) scale(0.500000,-0.500000)"
fill="#000000" stroke="none">
<path d="M371 1108 c-13 -2 -13 -4 -13 -49 0 -44 -2 -50 -20 -54 -3 0 -9 -3
-12 -5 -26 -20 -33 -24 -47 -26 -7 -1 -14 -4 -18 -7 -4 -3 -11 -6 -15 -8 -6
-1 -14 -8 -34 -28 -14 -14 -29 -26 -32 -28 -24 -10 -69 -70 -75 -99 -2 -11 -6
-16 -17 -24 -13 -8 -20 -20 -20 -33 0 -4 -2 -15 -4 -24 -7 -27 -7 -69 1 -82 5
-9 6 -12 6 -35 1 -21 2 -26 6 -34 4 -7 5 -12 5 -26 0 -26 6 -36 23 -44 7 -3
10 -6 12 -11 3 -5 6 -9 10 -11 11 -4 12 -5 14 -11 2 -8 6 -12 15 -15 4 -1 12
-7 19 -14 11 -11 43 -30 51 -30 0 0 4 -2 8 -5 4 -2 10 -5 13 -6 3 -1 8 -3 12
-6 3 -3 7 -5 9 -5 2 0 7 -2 12 -5 6 -3 11 -5 13 -5 1 0 8 -4 14 -9 13 -11 21
-12 29 -6 6 4 17 4 21 0 3 -3 3 -13 3 -77 l0 -74 -8 -14 c-8 -13 -9 -14 -18
-15 -14 -2 -15 -3 -19 -12 -2 -4 -7 -12 -12 -17 -5 -5 -11 -13 -13 -18 -3 -8
-5 -10 -12 -12 -19 -6 -73 -62 -68 -72 4 -8 6 -8 97 -6 68 2 106 2 174 0 85
-2 88 -2 93 2 10 7 5 20 -8 23 -8 2 -17 10 -21 19 -1 4 -9 13 -16 20 -29 27
-38 38 -41 44 -4 10 -8 14 -16 16 -30 8 -34 21 -34 107 0 90 -19 79 127 77 61
0 61 0 69 5 5 2 13 5 19 5 5 1 12 4 17 7 7 5 9 5 27 5 18 0 21 1 29 5 8 4 13
5 23 5 16 0 19 1 31 13 9 8 11 10 22 11 14 1 21 6 26 16 2 4 5 10 7 13 1 3 5
11 9 18 3 7 11 18 19 26 7 8 13 16 14 19 1 3 4 8 6 12 8 11 8 271 1 283 -2 4
-5 13 -6 19 -1 5 -7 19 -12 29 -6 11 -10 21 -10 22 0 2 -5 9 -11 15 -10 10
-11 13 -13 23 -3 22 -37 55 -57 55 -2 0 -10 3 -16 6 -6 3 -13 6 -14 6 -1 0 -4
2 -6 4 -2 2 -7 5 -11 6 -4 1 -10 4 -13 6 -4 2 -8 4 -9 4 -2 0 -7 2 -11 5 -7 5
-10 6 -30 7 -20 1 -24 2 -30 6 -5 3 -10 6 -13 7 -3 1 -8 3 -12 6 -7 4 -9 4
-91 4 -67 0 -85 1 -87 3 -6 5 -4 44 3 55 6 10 6 17 -1 21 -4 2 -53 4 -63 2z
m113 -152 c4 -4 7 -551 2 -557 -1 -3 -39 -2 -44 1 -4 3 -6 17 -6 59 0 37 0 42
-4 49 -5 10 -5 14 0 23 8 13 7 172 0 186 -6 9 -6 11 -6 32 0 20 0 22 6 31 5 9
5 9 6 93 1 71 1 83 4 85 6 4 38 2 42 -2z m-122 -268 c0 -289 1 -268 -14 -268
-8 0 -15 4 -25 15 -5 5 -8 7 -18 8 -21 2 -26 9 -28 41 0 15 -1 19 -6 26 -7 10
-7 20 1 30 5 9 5 9 5 94 0 85 0 85 -5 93 -6 8 -6 9 -6 32 0 23 0 24 6 32 6 9
9 81 4 103 -3 10 -3 10 4 18 3 4 7 10 9 14 2 4 6 7 11 9 4 2 10 6 13 8 4 4 8
5 18 5 6 0 15 1 18 2 13 3 12 22 13 -262z m276 255 c3 -3 8 -6 12 -7 8 -3 10
-10 10 -35 0 -18 0 -20 6 -29 8 -13 9 -436 1 -447 -1 -2 -7 -3 -24 -4 -19 -1
-22 -1 -28 -5 -22 -17 -49 -7 -49 19 0 13 -1 18 -5 26 -6 12 -6 16 0 24 8 11
7 168 -1 184 -9 16 -9 52 0 64 7 11 8 105 1 117 -6 9 -6 14 -1 23 5 7 5 11 6
38 1 40 -2 37 35 37 30 0 31 0 37 -5z m134 -56 c8 -4 23 -22 26 -30 1 -5 6
-12 11 -17 7 -7 9 -10 10 -18 1 -5 3 -13 6 -19 8 -14 8 -222 0 -237 -4 -7 -5
-12 -5 -21 0 -9 -1 -14 -8 -27 -18 -35 -19 -37 -25 -39 -3 -1 -9 -4 -13 -6
-12 -8 -20 -8 -22 -2 -1 3 -4 9 -6 13 -5 10 -5 14 0 24 7 13 5 188 -2 198 -7
10 -7 37 1 51 7 13 8 101 1 117 -8 17 5 24 26 13z m-575 -50 c3 -6 4 -303 1
-310 -4 -10 -24 6 -34 27 -3 5 -8 13 -12 18 -4 5 -11 16 -16 24 l-8 16 0 67
c0 73 -1 70 15 87 3 3 6 9 8 13 2 4 10 15 18 23 15 15 16 17 18 31 1 8 7 10
10 4z"/>
</g>
</svg>
