<?xml version="1.0" standalone="no"?>
<!DOCTYPE svg PUBLIC "-//W3C//DTD SVG 20010904//EN"
 "http://www.w3.org/TR/2001/REC-SVG-20010904/DTD/svg10.dtd">
<svg version="1.0" xmlns="http://www.w3.org/2000/svg"
 width="1086.000000pt" height="1002.000000pt" viewBox="0 0 1086.000000 1002.000000"
 preserveAspectRatio="xMidYMid meet">
<metadata>
Created by potrace 1.16, written by Peter Selinger 2001-2019
</metadata>
<g transform="translate(0.000000,1002.000000) scale(0.500000,-0.500000)"
fill="#000000" stroke="none">
<path d="M1084 1936 c-14 -7 -30 -28 -32 -43 -3 -24 -1 -23 -77 -21 -68 2 -67
2 -80 -11 -9 -10 -9 -10 -31 -10 -22 0 -22 0 -33 -11 l-11 -10 -33 0 -34 0
-36 -37 c-20 -21 -43 -45 -50 -53 -19 -22 -22 -23 -42 -21 -21 2 -24 1 -47
-23 -19 -20 -19 -20 -32 -22 -13 -2 -21 -8 -59 -51 -14 -15 -14 -15 -26 -17
-14 -1 -18 -3 -25 -12 -6 -6 -8 -7 -24 -9 -13 -2 -17 -7 -19 -23 -1 -13 -1
-13 -20 -31 -54 -53 -65 -66 -66 -76 -1 -6 -2 -11 -2 -13 -1 -3 -60 -63 -90
-92 -14 -13 -19 -21 -19 -33 0 -10 -2 -12 -20 -28 -35 -32 -44 -43 -46 -56 -1
-8 -4 -14 -7 -18 -17 -20 -15 -14 -15 -71 1 -56 1 -54 -13 -70 l-8 -9 1 -129
c0 -139 0 -134 11 -144 11 -10 11 -13 11 -63 -1 -64 -2 -58 10 -70 8 -8 10
-12 11 -20 1 -11 3 -14 15 -29 4 -6 6 -11 6 -15 0 -8 4 -16 10 -22 6 -5 12
-18 12 -26 0 -8 3 -12 21 -29 20 -20 23 -25 23 -48 0 -15 1 -20 4 -24 5 -8
116 -118 118 -118 15 -1 21 -3 29 -10 10 -10 14 -11 27 -13 10 -1 12 -3 19
-10 7 -8 9 -9 21 -11 11 -2 14 -3 23 -12 11 -10 11 -10 31 -10 23 0 26 -1 36
-12 4 -6 9 -8 14 -9 4 -1 10 -2 13 -2 3 -1 11 -6 16 -12 l11 -10 69 1 c105 0
292 4 330 6 61 3 58 7 53 -84 -1 -20 -2 -48 -2 -61 l0 -25 12 -13 c18 -20 15
-27 -11 -27 -12 0 -15 -5 -7 -8 4 -1 10 -2 14 -2 4 0 10 -1 14 -2 8 -2 30 2
32 6 0 1 5 2 11 2 14 0 20 2 17 5 -4 5 6 17 28 39 25 23 23 17 20 93 -4 85 -7
80 56 77 67 -3 323 -6 329 -4 3 1 9 6 13 10 7 8 9 9 20 10 11 1 13 2 24 13
l12 11 43 -1 43 -2 8 8 c11 12 13 13 26 15 12 2 13 2 29 19 10 10 36 37 59 60
l42 42 0 22 c0 26 0 26 21 45 36 33 45 45 45 59 0 8 14 25 46 53 11 11 18 18
19 22 0 3 1 9 2 14 1 8 3 11 22 28 l20 20 1 46 1 46 9 9 c13 11 13 13 11 79
-1 62 -1 65 12 78 11 12 11 11 11 76 0 65 0 66 -11 76 -10 9 -11 14 -11 41 0
32 -1 37 -13 49 l-10 10 1 32 0 32 -9 10 c-11 12 -13 17 -13 38 0 21 -2 24
-25 46 -16 15 -19 19 -19 28 0 10 -4 16 -17 31 -13 12 -18 15 -31 15 -14 0
-62 47 -62 61 0 14 -9 26 -49 63 -16 16 -17 17 -17 42 0 19 0 19 -8 28 -9 11
-11 15 -13 29 -1 8 -3 11 -20 28 -19 19 -23 26 -23 39 0 12 -30 40 -43 40 -9
0 -14 2 -25 13 -9 8 -11 9 -19 9 -11 0 -19 4 -24 11 -6 10 -15 12 -43 10 -35
-2 -34 -2 -55 21 -18 20 -22 23 -37 25 -7 0 -10 2 -18 10 -8 8 -11 9 -21 11
-12 2 -14 3 -25 15 l-8 8 -84 -1 c-156 -2 -145 -3 -147 16 -2 16 -3 18 -16 33
-16 18 -63 27 -85 15z m-19 -174 c11 -4 11 -4 11 -97 0 -47 1 -107 2 -134 3
-55 2 -57 -13 -59 -7 0 -9 1 -17 10 -13 13 -10 12 -112 13 -48 1 -88 1 -90 1
-4 0 -7 3 -27 24 -18 20 -19 20 -43 20 -21 -1 -25 1 -32 10 -9 12 -49 14 -115
6 -26 -3 -39 2 -39 17 0 9 7 14 22 16 17 2 5 -8 122 104 25 25 22 24 68 23 42
-2 42 -2 55 10 9 8 12 10 21 11 9 1 12 3 19 10 12 13 11 13 80 14 35 1 64 2
65 2 1 2 18 1 23 -1z m327 -1 c2 -1 13 -10 23 -20 10 -10 21 -19 23 -20 3 0 9
-1 15 -2 26 -3 27 -49 1 -49 -8 0 -20 -4 -25 -9 -2 -2 -8 -7 -12 -11 -4 -4
-15 -14 -23 -23 -17 -19 -24 -23 -35 -23 -8 0 -10 -1 -20 -10 -9 -8 -12 -10
-23 -12 -13 -2 -13 -2 -33 -23 -23 -24 -22 -24 -65 -23 -41 1 -37 -9 -36 114
0 104 1 106 9 111 5 2 189 2 201 0z m281 -167 c14 -14 15 -16 18 -29 3 -11 5
-15 12 -22 16 -15 11 -26 -12 -29 -12 -1 -14 -2 -22 -10 -8 -10 -10 -11 -26
-13 -5 -1 -10 -3 -17 -10 -11 -10 -18 -12 -37 -10 -18 1 -22 -1 -41 -22 -17
-19 -21 -22 -36 -24 -7 -1 -11 -3 -18 -10 -11 -11 -16 -12 -35 -10 -17 1 -24
-2 -32 -12 -8 -10 -17 -14 -33 -12 -16 2 -21 0 -31 -11 -8 -8 -17 -12 -28 -12
-3 0 -8 -3 -15 -9 -10 -10 -17 -13 -27 -13 -6 0 -9 -2 -18 -11 -8 -8 -12 -11
-18 -12 -15 -3 -21 -5 -26 -12 -8 -11 -46 -16 -64 -8 -23 10 -19 81 6 104 17
15 17 15 32 17 11 2 13 3 20 11 10 11 15 12 47 10 30 -2 28 -3 53 22 19 18 19
19 31 20 13 2 17 4 24 12 6 7 15 11 25 11 7 0 47 35 62 54 6 8 9 10 17 11 13
2 19 5 25 11 10 10 15 12 37 12 20 0 20 0 31 11 l11 11 35 0 35 -1 15 -15z
m-1143 -124 c10 -10 6 -10 89 -11 l73 -2 11 -11 c9 -9 12 -10 22 -12 12 -2 15
-3 24 -13 3 -4 8 -7 12 -8 4 -1 10 -1 14 -2 4 -1 11 -5 18 -11 l12 -10 96 0
c103 1 100 1 110 -10 7 -8 14 -12 24 -12 10 0 18 -5 21 -12 3 -11 4 -114 1
-120 -6 -13 -18 -13 -32 0 -12 11 -15 12 -31 12 -20 0 -25 3 -40 21 -24 28
-19 26 -57 26 -33 0 -45 3 -45 11 0 8 -12 10 -54 10 -45 0 -47 1 -57 13 -5 7
-15 11 -26 11 -6 0 -9 2 -15 9 -7 7 -10 9 -18 10 -15 2 -22 5 -27 12 -10 11
-12 12 -43 10 -32 -2 -36 -1 -47 13 l-9 9 -32 -1 c-49 0 -59 8 -38 34 4 5 7
11 8 20 4 24 22 30 36 14z m1269 -42 c18 -18 4 -68 -20 -71 -10 -1 -13 -3 -21
-11 -5 -6 -10 -10 -10 -10 -1 0 -20 -1 -44 -2 l-44 -1 -9 -9 c-12 -11 -18 -13
-42 -15 -18 -1 -18 -1 -26 -9 -14 -14 -47 -13 -53 1 -7 14 4 28 23 30 9 1 13
3 20 9 9 8 19 12 29 12 4 0 9 3 15 8 12 11 16 12 36 12 16 0 29 4 29 10 0 4
15 12 26 13 8 1 12 3 18 8 9 9 13 10 26 12 9 1 12 3 18 9 10 11 20 13 29 4z
m-1370 -102 c2 -1 8 -7 13 -13 l10 -10 25 1 c35 1 40 -1 50 -11 11 -12 16 -13
46 -13 29 1 35 -1 43 -12 5 -7 15 -12 25 -12 6 0 9 -2 17 -9 10 -9 18 -13 29
-13 4 0 8 -2 14 -9 12 -13 15 -14 56 -12 42 2 44 1 57 -13 9 -10 9 -10 31 -10
l23 0 19 -19 c24 -24 27 -25 47 -24 18 2 26 -1 32 -9 8 -11 13 -13 42 -10 42
4 52 -1 52 -26 0 -15 -3 -21 -22 -38 -23 -21 -23 -21 -22 -43 0 -40 -29 -52
-57 -23 -5 5 -9 8 -15 9 -15 2 -17 3 -25 12 -10 10 -19 13 -32 12 -15 -2 -22
0 -33 11 -8 9 -10 10 -22 12 -11 2 -14 3 -22 11 -8 8 -21 13 -33 13 -1 0 -6 5
-12 10 -8 7 -13 10 -17 10 -11 0 -19 4 -28 13 -8 9 -8 9 -28 9 -23 0 -25 1
-38 13 -10 9 -10 9 -31 9 -22 0 -22 0 -31 10 -11 10 -12 11 -27 13 -7 1 -11 3
-18 9 -8 7 -11 9 -23 11 -12 2 -16 4 -23 11 -9 8 -11 9 -26 11 -6 1 -11 4 -18
11 -9 9 -9 9 -33 10 -24 1 -24 1 -32 9 -6 6 -9 7 -21 9 -32 5 -34 20 -6 44 9
8 19 18 23 23 11 14 27 19 41 13z m1071 -20 c18 -4 25 -16 16 -30 -12 -19 -49
-14 -53 7 -1 5 3 19 6 19 0 0 4 1 8 3 10 3 10 4 23 1z m-78 -22 c17 -6 16 -32
-1 -38 -19 -6 -32 8 -24 27 5 11 13 15 25 11z m458 -3 c27 -16 13 -55 -20 -55
-21 0 -27 -2 -37 -13 -7 -7 -11 -9 -21 -12 -16 -3 -36 -18 -58 -42 -17 -20
-20 -21 -42 -21 -20 0 -24 -1 -34 -11 -6 -6 -9 -8 -21 -9 -13 -2 -14 -2 -23
-12 -10 -11 -15 -12 -40 -11 -14 0 -14 0 -24 -10 -11 -11 -18 -13 -39 -12 -28
2 -38 0 -49 -11 -11 -11 -21 -14 -36 -11 -13 2 -23 -2 -29 -11 -7 -10 -17 -14
-38 -14 -17 0 -17 0 -26 -8 -12 -11 -16 -12 -38 -14 -23 -1 -28 -4 -47 -29
-11 -14 -18 -17 -36 -17 -16 0 -26 -4 -31 -11 -4 -6 -11 -9 -20 -9 -25 0 -29
44 -7 59 5 3 11 9 14 13 6 8 15 12 26 12 4 0 9 3 17 10 9 8 12 10 23 12 8 1
15 4 19 7 12 10 20 13 29 13 10 0 22 10 38 31 6 7 15 11 28 13 9 1 12 3 19 10
8 8 10 9 22 10 13 1 14 2 22 11 10 11 16 13 37 13 18 -1 18 -1 26 7 13 12 15
13 36 13 20 0 29 3 34 12 4 8 14 10 46 10 l31 0 9 10 c12 13 15 14 37 14 20 0
20 0 27 8 12 12 18 14 50 14 l28 0 11 10 c8 8 12 10 22 12 8 2 14 4 19 9 15
13 33 17 46 10z m-498 -22 c18 -10 13 -32 -9 -34 -18 -2 -28 12 -20 28 6 12
13 13 29 6z m-86 -43 c17 -16 1 -42 -21 -36 -12 3 -12 3 -17 -6 -12 -27 -38
-43 -69 -43 -49 0 -54 41 -6 48 4 1 10 4 15 8 15 14 31 17 48 8 12 -6 14 -5
14 3 0 19 24 31 36 18z m-999 -47 c3 -1 10 -6 14 -11 6 -7 10 -8 20 -10 10 -2
13 -4 22 -13 10 -11 10 -11 30 -11 21 0 25 -1 35 -12 6 -7 9 -8 20 -10 12 -2
14 -4 22 -12 7 -7 11 -10 17 -11 16 -2 18 -3 26 -11 9 -10 14 -12 25 -12 7 0
10 -2 20 -11 13 -12 12 -12 36 -11 15 0 24 -3 29 -11 6 -8 11 -10 34 -11 23
-1 23 -1 32 -10 9 -9 11 -10 23 -12 11 -1 13 -2 21 -10 8 -8 17 -12 28 -12 4
0 8 -3 15 -10 9 -9 11 -10 23 -11 11 -1 13 -3 22 -12 11 -10 11 -10 31 -9 22
0 27 -1 38 -13 5 -5 9 -7 16 -8 16 -2 18 -3 27 -13 9 -9 9 -9 30 -8 23 0 30
-2 36 -11 4 -5 13 -9 22 -9 10 0 20 -5 24 -11 2 -3 8 -10 13 -15 l10 -10 0
-36 c0 -49 -2 -52 -43 -50 -18 1 -22 2 -33 14 l-9 10 -29 0 c-32 0 -38 2 -47
12 -10 12 -9 12 -76 12 -68 0 -66 0 -77 13 -6 7 -15 11 -25 11 -6 0 -9 2 -18
11 l-11 10 -41 0 c-22 0 -42 0 -44 1 -3 0 -9 4 -14 10 -8 8 -11 10 -19 11 -14
2 -16 3 -25 13 l-9 9 -43 -1 c-51 0 -48 -1 -69 23 -16 18 -20 20 -35 22 -8 1
-11 3 -19 11 -9 9 -11 10 -19 10 -12 0 -18 3 -28 12 -9 8 -11 9 -26 11 -6 1
-10 4 -26 19 -22 22 -26 24 -44 23 -16 -2 -28 1 -32 8 -8 12 -4 31 8 41 7 6 9
12 12 27 1 6 5 11 19 26 18 18 22 25 22 35 0 20 19 32 39 23z m1673 -23 c8 -4
9 -24 2 -24 -12 0 -16 -13 -16 -53 0 -47 -1 -48 -17 -65 -17 -18 -17 -18 -40
-18 -21 0 -26 -2 -33 -11 -7 -9 -14 -11 -36 -11 -19 0 -19 0 -26 -7 -9 -9 -15
-12 -28 -14 -9 -1 -12 -3 -17 -8 -11 -10 -12 -11 -26 -14 -14 -3 -14 -3 -33
-22 -19 -19 -19 -19 -32 -21 -11 -2 -14 -3 -23 -12 -9 -8 -12 -10 -18 -10 -5
0 -24 0 -45 -1 -36 0 -36 0 -43 -7 -13 -14 -13 -14 -53 -14 -43 0 -48 -1 -59
-12 -11 -11 -17 -12 -50 -12 l-27 0 -10 -10 c-12 -13 -16 -14 -45 -14 -29 0
-32 -1 -43 -12 -7 -8 -9 -9 -24 -11 -5 -1 -10 -3 -14 -9 -25 -28 -37 -16 -37
37 0 51 1 52 36 52 23 0 23 0 32 10 10 11 17 13 37 12 19 -2 20 -1 44 23 20
20 22 21 43 19 18 -2 24 0 32 10 6 9 13 11 35 11 20 0 20 0 31 11 11 10 11 10
33 10 23 0 27 1 33 11 7 10 15 12 43 12 34 -1 33 -1 44 9 10 9 18 13 28 13 4
0 9 3 17 10 12 11 19 13 37 11 13 -1 22 2 28 11 7 10 14 12 33 12 27 0 50 18
53 41 3 23 9 27 39 27 19 0 19 0 27 9 11 11 18 14 36 13 21 -1 21 -1 29 10 7
11 14 13 23 8z m-1754 -242 c2 -1 6 -5 9 -9 10 -15 27 -28 41 -31 12 -2 13 -3
30 -20 19 -20 23 -23 37 -25 7 -1 11 -3 19 -10 6 -5 13 -9 16 -10 19 -4 21 -6
30 -15 l9 -10 28 0 c32 0 38 -2 47 -11 7 -7 13 -10 25 -12 8 -1 11 -3 18 -10
13 -13 13 -13 53 -13 43 0 50 -1 57 -11 8 -11 15 -14 31 -12 18 1 24 -1 37
-13 l11 -10 50 0 c27 0 51 0 54 0 3 0 8 -4 14 -10 l10 -11 35 -1 c35 -1 35 -1
43 -9 13 -13 12 -13 81 -10 86 2 80 15 79 -165 0 -21 -5 -22 -91 -20 -86 3
-79 2 -92 15 -11 10 -11 10 -39 10 -15 1 -29 1 -32 1 -4 0 -9 3 -17 11 -12 12
-10 12 -45 11 -29 -1 -31 0 -43 13 -7 8 -9 9 -17 9 -11 0 -17 3 -27 12 -6 5
-11 8 -16 9 -5 1 -10 2 -13 2 -3 1 -12 8 -22 19 -18 20 -25 24 -38 24 -7 0
-10 1 -17 8 -10 9 -14 11 -25 13 -13 2 -14 3 -32 21 -16 18 -23 22 -32 22 -9
0 -16 3 -25 12 -5 4 -11 8 -14 9 -3 0 -9 1 -14 2 -5 1 -10 4 -16 10 -7 8 -9 9
-22 11 -15 2 -16 3 -55 42 -41 42 -42 42 -63 42 -23 0 -30 3 -38 14 -3 5 -8
10 -11 12 -7 5 -10 9 -12 22 -1 7 -5 14 -11 22 -21 29 -11 64 15 50z m1727
-21 c18 -7 18 -36 0 -52 -9 -8 -9 -8 -9 -26 0 -35 -4 -40 -36 -39 -23 0 -23 0
-43 -22 -8 -9 -24 -24 -35 -34 -10 -10 -25 -25 -32 -33 -14 -16 -21 -21 -33
-21 -10 0 -18 -6 -36 -25 -14 -15 -17 -17 -24 -18 -15 -2 -17 -3 -27 -12 -8
-7 -11 -9 -22 -10 -12 -1 -14 -2 -22 -10 -12 -11 -17 -13 -45 -11 -29 2 -33 0
-45 -12 -9 -10 -9 -10 -31 -10 -21 0 -21 0 -33 -11 -12 -11 -12 -11 -33 -11
-24 0 -26 -1 -35 -13 -6 -10 -15 -12 -44 -10 -28 1 -31 0 -42 -13 -7 -9 -18
-13 -31 -11 -24 4 -43 -1 -54 -12 -12 -12 -17 -14 -31 -13 -22 3 -21 0 -20 92
1 102 -2 96 37 96 21 0 21 0 30 9 7 7 10 9 18 10 17 2 19 3 29 13 l10 11 30
-1 c34 -2 35 -1 48 12 9 9 5 9 46 9 l32 0 10 11 9 10 44 0 44 0 10 11 c13 13
11 13 60 13 l41 1 9 9 c9 9 11 10 22 11 12 1 12 1 33 23 20 20 22 22 31 23 12
2 20 6 23 11 3 5 11 9 23 11 8 1 11 3 21 12 12 12 20 14 35 12 12 -1 20 2 30
11 12 12 24 15 38 9z m-1649 -239 c6 -2 12 -6 22 -18 29 -32 45 -48 50 -48 12
0 22 -5 32 -14 8 -8 11 -10 20 -11 9 -1 12 -3 21 -11 10 -9 12 -11 23 -12 10
-1 13 -2 20 -8 9 -9 12 -11 25 -14 10 -2 13 -4 41 -32 35 -35 33 -34 56 -34
20 0 29 -3 34 -12 3 -5 13 -10 22 -10 8 0 13 -3 23 -12 10 -9 9 -9 43 -8 28 0
37 -2 43 -11 7 -10 13 -11 43 -10 32 2 35 1 47 -12 8 -8 9 -9 18 -9 24 0 35
-15 21 -30 -7 -8 2 -8 -110 -4 -39 1 -91 2 -116 2 -49 0 -51 0 -61 13 -5 7
-14 11 -26 11 -5 0 -9 2 -15 8 -12 12 -20 15 -34 13 -15 -2 -23 1 -32 10 -9 9
-16 13 -24 13 -10 0 -12 2 -32 21 -19 18 -22 20 -36 22 -13 2 -85 71 -87 84
-2 14 -5 18 -24 38 -18 18 -23 27 -23 36 0 2 -4 7 -9 13 -21 24 -7 45 25 36z
m1506 -95 c7 -9 6 -13 -17 -36 -16 -17 -21 -24 -22 -29 -1 -4 -2 -9 -3 -12 -3
-6 -51 -55 -56 -57 -2 0 -7 -1 -13 -2 -7 -1 -11 -3 -20 -11 -12 -11 -18 -13
-35 -11 -14 2 -20 -1 -33 -13 -9 -9 -9 -9 -42 -10 -34 -1 -38 -2 -44 -11 -6
-10 -12 -11 -69 -11 -29 0 -76 -1 -104 -2 -68 -3 -78 0 -78 18 0 18 9 22 50
22 32 -1 32 -1 40 7 12 11 15 11 54 11 19 0 38 0 41 0 5 0 10 3 18 10 11 10
11 10 32 10 21 0 21 0 32 10 13 12 20 15 37 13 15 -1 24 2 28 9 5 9 14 12 41
12 34 0 38 1 48 11 6 7 10 9 16 10 4 1 10 2 12 2 4 1 31 26 37 34 2 2 6 6 9 8
3 3 8 8 11 13 10 13 20 15 30 5z"/>
<path d="M1583 20 c-70 -1 -169 -2 -220 -3 -122 -1 -172 -3 -176 -6 -1 -1 -8
-3 -14 -4 -23 -3 33 -7 113 -7 70 0 75 0 80 4 10 7 101 7 119 -1 7 -3 37 -3
347 -3 l340 0 0 10 0 9 -147 2 c-164 1 -254 1 -442 -1z"/>
<path d="M4 17 c-3 -1 -4 -3 -4 -9 l0 -8 334 1 c183 1 353 1 377 1 48 0 179 3
213 5 l21 2 -20 1 c-50 4 -910 10 -921 7z"/>
</g>
</svg>
