<?xml version="1.0" standalone="no"?>
<!DOCTYPE svg PUBLIC "-//W3C//DTD SVG 20010904//EN"
 "http://www.w3.org/TR/2001/REC-SVG-20010904/DTD/svg10.dtd">
<svg version="1.0" xmlns="http://www.w3.org/2000/svg"
 width="100.000000pt" height="93.000000pt" viewBox="0 0 100.000000 93.000000"
 preserveAspectRatio="xMidYMid meet">
<metadata>
Created by potrace 1.16, written by Peter Selinger 2001-2019
</metadata>
<g transform="translate(0.000000,93.000000) scale(0.100000,-0.100000)"
fill="#000000" stroke="none">
<path d="M491 886 c-7 -8 -37 -18 -67 -22 -53 -6 -114 -40 -214 -116 -45 -35
-158 -179 -164 -210 -3 -17 -6 -69 -6 -115 0 -144 60 -251 169 -299 45 -20 69
-24 157 -24 l103 0 3 -47 c2 -37 7 -49 22 -51 24 -5 36 14 36 61 l0 37 83 0
c109 0 185 21 217 59 43 51 101 147 112 187 28 103 2 253 -53 305 -16 15 -44
53 -62 85 -18 32 -44 64 -57 71 -84 42 -142 63 -177 63 -24 0 -46 6 -53 15
-16 19 -34 19 -49 1z m-1 -137 l0 -62 -56 7 c-31 3 -64 11 -74 16 -10 6 -30
10 -44 10 -32 0 -33 10 -3 38 27 25 96 50 145 51 l32 1 0 -61z m169 47 c10
-11 5 -19 -21 -39 -46 -34 -77 -49 -88 -42 -11 7 -14 78 -3 88 12 13 100 7
112 -7z m119 -78 c2 -12 -24 -29 -103 -67 -119 -57 -148 -63 -143 -30 2 16 28
35 93 70 94 50 147 60 153 27z m-454 -52 c18 -7 57 -17 87 -21 30 -4 60 -12
67 -17 13 -12 16 -44 4 -52 -7 -4 -230 65 -252 79 -18 11 0 25 31 25 16 0 45
-6 63 -14z m18 -103 c140 -49 159 -63 124 -92 -11 -9 -44 0 -153 45 -148 60
-159 66 -149 83 11 18 34 13 178 -36z m516 15 c-7 -20 -62 -48 -177 -91 -136
-50 -151 -54 -151 -33 0 21 82 62 205 102 112 37 128 39 123 22z m-520 -132
c50 -20 97 -36 103 -36 17 0 49 -30 49 -46 0 -21 -21 -21 -109 2 -108 28 -175
51 -226 76 -62 31 -66 37 -53 62 18 35 29 36 88 6 31 -16 97 -44 148 -64z
m562 50 c0 -14 -6 -28 -12 -33 -55 -34 -329 -120 -348 -108 -25 15 13 38 123
75 67 22 140 51 162 65 52 32 75 32 75 1z m-719 -124 c60 -30 176 -63 271 -77
38 -6 47 -20 40 -62 -5 -28 -35 -30 -113 -7 -58 17 -242 114 -273 144 -16 16
-15 47 2 38 4 -2 37 -18 73 -36z m709 9 c0 -31 -111 -100 -213 -132 -121 -38
-137 -38 -137 1 0 40 24 53 140 79 52 12 113 33 135 46 48 30 75 32 75 6z
m-678 -136 c40 -25 99 -53 131 -61 31 -9 57 -21 57 -25 0 -15 -94 -10 -144 7
-52 18 -126 81 -126 107 0 10 2 17 5 17 3 0 38 -20 77 -45z m596 -27 c-10 -28
-71 -51 -146 -56 -54 -4 -73 -2 -68 7 4 6 15 11 24 12 9 0 49 11 87 24 81 27
108 30 103 13z"/>
<path d="M5 10 c4 -6 74 -9 183 -8 158 1 167 2 87 9 -139 11 -277 11 -270 -1z"/>
<path d="M635 10 c-30 -4 31 -7 153 -8 129 -1 202 2 202 8 0 11 -273 11 -355
0z"/>
</g>
</svg>
