<?xml version="1.0" standalone="no"?>
<!DOCTYPE svg PUBLIC "-//W3C//DTD SVG 20010904//EN"
 "http://www.w3.org/TR/2001/REC-SVG-20010904/DTD/svg10.dtd">
<svg version="1.0" xmlns="http://www.w3.org/2000/svg"
 width="162.000000pt" height="150.000000pt" viewBox="0 0 162.000000 150.000000"
 preserveAspectRatio="xMidYMid meet">
<metadata>
Created by potrace 1.16, written by Peter Selinger 2001-2019
</metadata>
<g transform="translate(0.000000,150.000000) scale(0.100000,-0.100000)"
fill="#000000" stroke="none">
<path d="M793 1438 c-6 -7 -13 -21 -16 -30 -5 -14 -13 -16 -37 -11 -30 6 -102
-11 -127 -30 -7 -5 -20 -6 -30 -3 -13 4 -32 -7 -63 -39 -24 -25 -50 -45 -57
-45 -7 0 -32 -14 -55 -31 -24 -16 -56 -39 -73 -49 -16 -11 -48 -42 -70 -70
-22 -28 -68 -83 -103 -123 -71 -81 -82 -102 -82 -156 0 -20 -5 -42 -11 -48
-12 -12 -7 -172 8 -263 9 -54 52 -152 73 -165 5 -3 10 -15 10 -26 0 -41 154
-158 210 -159 8 0 24 -7 35 -16 16 -12 52 -15 180 -14 88 1 166 1 173 0 9 0
13 -17 12 -62 -2 -94 0 -100 27 -93 45 11 65 42 62 95 -2 27 0 52 3 56 4 3 68
5 142 5 105 -2 142 2 165 14 17 8 46 15 65 15 29 0 46 10 96 57 33 31 59 62
56 69 -3 7 2 18 11 26 9 7 26 29 39 48 13 19 37 54 53 77 24 34 32 58 40 130
6 48 14 108 17 132 6 38 -1 79 -24 141 -3 8 -4 21 -3 29 2 13 -10 47 -30 81
-5 8 -13 25 -19 38 -5 12 -21 27 -34 32 -28 10 -75 74 -107 145 -39 84 -100
135 -164 135 -12 0 -28 6 -34 13 -6 8 -31 24 -56 37 -39 20 -54 22 -115 17
-65 -5 -71 -4 -81 16 -7 12 -17 25 -23 29 -17 12 -53 9 -63 -4z m5 -229 l3
-106 -83 4 c-64 4 -90 10 -113 26 -22 15 -47 22 -95 23 -36 2 -65 7 -65 11 0
5 26 32 58 61 43 39 65 52 88 52 17 0 40 5 52 12 26 14 91 27 127 24 25 -1 25
-2 28 -107z m265 84 l39 -27 -34 -28 c-18 -16 -49 -38 -68 -49 -19 -11 -47
-28 -62 -37 -46 -28 -62 -9 -63 74 0 38 4 75 8 82 6 7 34 12 75 12 55 0 72 -4
105 -27z m191 -118 c9 -13 16 -28 16 -33 0 -5 -26 -21 -57 -35 -32 -14 -67
-33 -78 -41 -11 -9 -28 -16 -38 -16 -9 0 -25 -4 -35 -9 -9 -5 -50 -25 -90 -45
-87 -44 -116 -44 -120 0 -4 38 22 63 74 71 22 3 46 11 54 17 8 6 31 20 50 30
19 11 48 30 63 43 16 13 37 23 47 23 10 0 22 5 25 10 3 6 21 10 39 10 25 0 38
-7 50 -25z m-702 -111 c35 -18 64 -24 113 -24 97 0 125 -18 125 -82 0 -56 -18
-57 -88 -6 -12 9 -31 14 -41 11 -10 -3 -22 0 -25 6 -4 6 -23 11 -42 11 -19 0
-55 11 -80 25 -25 14 -56 25 -69 25 -13 0 -27 5 -30 10 -3 6 -17 7 -31 4 -28
-7 -43 18 -25 40 18 21 135 9 193 -20z m788 -21 c0 -30 -34 -53 -77 -53 -13 0
-31 -4 -41 -9 -17 -9 -115 -41 -126 -41 -3 0 -6 10 -6 21 0 16 5 20 20 16 11
-3 22 -1 25 3 7 11 65 40 80 40 6 0 34 11 61 25 61 31 64 31 64 -2z m-990 -67
c45 -7 81 -20 135 -46 33 -16 81 -32 107 -35 26 -4 54 -13 62 -21 8 -8 23 -14
33 -14 11 0 23 -4 29 -9 5 -5 22 -11 38 -13 35 -4 43 -20 21 -41 -8 -9 -15
-25 -15 -36 0 -32 -18 -35 -68 -11 -134 63 -170 79 -202 90 -19 7 -63 25 -98
41 -35 16 -67 29 -73 29 -5 0 -24 7 -41 16 l-30 16 23 24 c16 18 30 23 44 19
11 -3 27 -7 35 -9z m714 -24 c7 -11 -30 -42 -49 -42 -23 0 -18 24 8 36 29 15
35 16 41 6z m344 -15 c2 -10 -4 -20 -15 -23 -42 -14 -81 -35 -93 -49 -7 -8
-18 -15 -25 -15 -7 0 -37 -11 -67 -25 -29 -14 -64 -25 -78 -25 -15 0 -30 -4
-35 -8 -6 -5 -37 -17 -70 -27 -33 -11 -68 -26 -78 -34 -22 -18 -84 -41 -92
-33 -9 9 -5 33 8 46 6 6 37 24 67 39 30 14 73 37 95 50 22 13 67 31 100 41 33
9 82 24 109 32 26 7 56 14 65 15 9 0 30 9 46 19 36 22 59 21 63 -3z m-438 -42
c0 -9 -8 -18 -17 -22 -10 -3 -26 -12 -35 -20 -21 -19 -62 -13 -66 10 -2 10 3
17 11 17 8 0 28 7 43 15 37 19 64 19 64 0z m-615 -91 c44 -20 88 -41 97 -46
10 -4 24 -8 31 -8 7 0 39 -13 70 -30 32 -16 66 -30 75 -30 9 0 26 -7 36 -15
11 -8 27 -15 36 -15 32 0 80 -31 86 -56 12 -47 -18 -69 -64 -45 -35 18 -89 31
-128 31 -21 1 -50 7 -64 15 -14 8 -37 14 -51 15 -15 0 -40 7 -55 15 -16 8 -43
15 -61 15 -17 0 -35 5 -38 10 -4 6 -33 24 -65 40 -32 16 -61 34 -65 40 -3 5
-17 10 -31 10 -32 0 -32 29 -1 67 13 15 27 36 30 46 7 18 8 18 44 -1 21 -11
74 -37 118 -58z m1108 9 c-7 -57 -24 -79 -66 -87 -32 -6 -107 -40 -162 -75
-17 -10 -57 -21 -90 -25 -33 -4 -71 -11 -85 -15 -14 -5 -45 -14 -70 -21 -25
-6 -58 -18 -73 -26 -42 -21 -49 -18 -45 23 3 36 5 38 50 48 25 5 54 17 65 27
10 9 36 20 58 23 22 4 45 11 50 15 6 5 28 11 50 15 22 4 56 15 75 25 19 10 55
23 79 30 28 7 45 18 48 31 3 10 13 19 22 19 10 0 21 3 25 7 4 4 21 13 39 19
18 6 33 12 34 13 2 0 0 -20 -4 -46z m-1240 -187 c38 -25 79 -46 93 -46 13 0
38 -9 56 -20 18 -11 47 -20 63 -20 17 0 36 -5 41 -10 6 -6 35 -13 65 -16 30
-3 63 -9 74 -14 31 -13 75 -21 130 -23 l50 -2 0 -70 0 -70 -47 -3 c-26 -2 -58
2 -70 9 -13 7 -32 14 -43 16 -79 12 -109 23 -159 57 -33 22 -86 51 -161 89
-27 14 -61 37 -74 51 -14 14 -32 26 -42 26 -24 0 -73 65 -65 86 3 8 9 13 13
11 5 -3 39 -26 76 -51z m1231 25 c9 -14 -23 -81 -38 -81 -8 0 -43 -25 -78 -55
-69 -61 -120 -88 -188 -99 -24 -4 -49 -10 -55 -15 -5 -4 -30 -13 -55 -20 -25
-7 -53 -17 -62 -22 -10 -5 -26 -9 -36 -9 -10 0 -23 -5 -29 -11 -7 -7 -19 -9
-27 -6 -20 8 -23 136 -3 141 6 2 28 9 47 15 41 15 148 40 203 48 20 3 40 9 43
14 3 5 20 9 37 9 20 0 53 13 87 36 30 19 67 38 83 41 15 3 30 10 33 14 7 12
31 11 38 0z m-1214 -191 c6 -11 39 -34 73 -51 34 -17 72 -41 85 -52 25 -23 81
-47 130 -54 18 -3 35 -9 38 -14 3 -5 20 -9 37 -9 37 -1 72 -23 62 -40 -10 -16
-178 -3 -230 17 -113 44 -166 81 -210 147 -19 29 -35 58 -35 65 0 19 39 12 50
-9z m1100 -62 c0 -21 -61 -86 -92 -98 -18 -6 -41 -16 -50 -21 -10 -5 -28 -9
-41 -9 -13 0 -28 -5 -33 -10 -14 -14 -189 -9 -189 5 0 6 14 11 30 13 17 2 34
8 40 13 5 5 24 9 42 9 18 0 41 4 51 9 17 10 94 33 145 45 15 4 39 20 54 36 24
28 43 31 43 8z"/>
<path d="M1190 10 c-72 -4 -20 -6 165 -7 158 -1 262 2 250 7 -22 9 -251 9
-415 0z"/>
<path d="M117 3 c68 -2 178 -2 246 0 67 1 12 3 -123 3 -135 0 -190 -2 -123 -3z"/>
<path d="M943 3 c15 -2 39 -2 55 0 15 2 2 4 -28 4 -30 0 -43 -2 -27 -4z"/>
</g>
</svg>
