<?xml version="1.0" standalone="no"?>
<!DOCTYPE svg PUBLIC "-//W3C//DTD SVG 20010904//EN"
 "http://www.w3.org/TR/2001/REC-SVG-20010904/DTD/svg10.dtd">
<svg version="1.0" xmlns="http://www.w3.org/2000/svg"
 width="114.000000pt" height="148.000000pt" viewBox="0 0 114.000000 148.000000"
 preserveAspectRatio="xMidYMid meet">
<metadata>
Created by potrace 1.16, written by Peter Selinger 2001-2019
</metadata>
<g transform="translate(0.000000,148.000000) scale(0.100000,-0.100000)"
fill="#000000" stroke="none">
<path d="M340 1393 c-20 -21 -82 -78 -138 -126 -56 -49 -102 -95 -102 -104 0
-9 39 -53 86 -97 l85 -81 -80 -83 c-45 -46 -81 -91 -81 -100 0 -9 -9 -28 -20
-42 -11 -14 -20 -36 -20 -51 0 -14 -5 -30 -12 -37 -17 -17 -20 -162 -3 -188 7
-11 15 -34 17 -49 5 -45 56 -68 147 -67 41 0 77 4 80 9 3 5 18 14 34 20 15 7
27 17 27 23 0 16 71 90 86 90 7 0 32 20 55 45 23 25 44 43 48 41 3 -2 5 -24 3
-48 -1 -23 -5 -145 -8 -270 l-6 -228 41 0 41 0 1 63 c2 107 -3 290 -8 342 -8
66 -5 127 6 138 10 10 69 -47 81 -78 10 -27 138 -125 163 -125 9 0 17 -4 17
-10 0 -5 19 -10 43 -10 39 0 48 5 97 55 l54 55 -2 65 c-1 36 -8 77 -15 93 -7
15 -19 47 -26 72 -7 25 -21 63 -32 85 -10 22 -19 45 -19 50 0 6 -21 30 -46 55
-69 68 -79 107 -44 175 16 31 20 59 20 132 0 51 -4 93 -9 93 -5 0 -12 13 -16
30 -8 35 -53 71 -75 60 -8 -4 -26 -13 -40 -20 -56 -26 -90 -48 -141 -93 -30
-26 -57 -47 -61 -47 -4 0 -40 44 -81 98 -42 55 -81 98 -93 100 -11 1 -33 -12
-54 -35z m95 -94 c22 -28 48 -60 58 -71 21 -26 22 -47 0 -55 -11 -4 -27 6 -50
33 -19 21 -46 51 -59 67 -27 30 -30 47 -12 65 18 18 20 16 63 -39z m389 5 c9
-8 16 -24 16 -35 0 -11 5 -28 12 -39 10 -15 10 -26 0 -53 -7 -18 -12 -47 -12
-64 0 -18 -7 -39 -16 -47 -14 -14 -18 -14 -45 -1 -16 9 -29 21 -29 29 0 16
-36 49 -77 70 -21 11 -33 24 -33 37 0 21 36 58 56 59 6 0 17 7 24 15 7 8 21
15 32 15 10 0 21 7 24 15 8 19 28 19 48 -1z m-470 -71 c83 -91 92 -123 36
-123 -29 0 -58 30 -99 104 -38 66 7 79 63 19z m-65 -104 c33 -39 61 -74 61
-79 0 -5 -10 -12 -21 -15 -17 -6 -32 3 -69 40 -62 61 -77 89 -60 110 7 8 16
15 20 15 4 0 35 -32 69 -71z m394 -46 c10 -13 24 -23 31 -23 14 0 66 -52 66
-66 0 -9 -145 -104 -159 -104 -13 0 -21 211 -10 232 10 19 11 19 32 1 12 -10
30 -28 40 -40z m-130 -75 c3 -69 2 -127 -4 -132 -5 -6 -29 4 -61 26 -29 20
-72 45 -95 57 -24 12 -43 25 -43 28 0 15 75 83 92 83 10 0 24 14 33 30 12 23
22 30 44 30 l28 0 6 -122z m-204 -87 c10 -10 28 -22 40 -26 11 -3 52 -24 91
-47 l70 -41 0 -58 c0 -32 -4 -61 -10 -64 -5 -3 -31 14 -57 38 -27 24 -64 52
-83 62 -19 10 -54 33 -77 51 -23 19 -46 34 -52 34 -14 0 -14 11 -1 44 12 32
51 35 79 7z m502 9 c12 -7 19 -21 18 -38 0 -23 -17 -39 -111 -106 -130 -92
-145 -98 -154 -62 -11 44 4 93 35 116 16 11 33 20 39 20 5 0 33 18 63 40 57
41 78 47 110 30z m-519 -167 c162 -109 179 -128 146 -161 -23 -23 -49 -11
-173 76 -131 92 -155 122 -120 149 11 7 22 13 26 13 5 0 59 -34 121 -77z m609
24 c7 -26 3 -32 -54 -73 -34 -24 -71 -53 -82 -63 -65 -58 -127 -68 -133 -21
-3 28 40 70 108 105 19 10 37 21 40 24 3 4 21 19 40 34 43 34 71 32 81 -6z
m-702 -141 c29 -20 57 -36 61 -36 4 0 21 -13 38 -28 42 -40 34 -71 -31 -118
-39 -28 -62 -37 -94 -38 -44 -1 -63 12 -106 74 -19 27 -23 85 -7 95 6 3 10 23
10 43 0 21 7 48 16 61 l16 22 22 -19 c11 -11 45 -36 75 -56z m747 29 c23 -36
17 -174 -10 -204 -23 -25 -71 -28 -113 -6 -15 8 -40 17 -55 20 -20 4 -28 13
-33 37 -7 28 -4 36 26 60 18 15 39 28 46 28 6 0 33 20 60 45 26 25 51 45 55
45 4 0 15 -11 24 -25z"/>
</g>
</svg>
