<?xml version="1.0" standalone="no"?>
<!DOCTYPE svg PUBLIC "-//W3C//DTD SVG 20010904//EN"
 "http://www.w3.org/TR/2001/REC-SVG-20010904/DTD/svg10.dtd">
<svg version="1.0" xmlns="http://www.w3.org/2000/svg"
 width="452.000000pt" height="594.000000pt" viewBox="0 0 452.000000 594.000000"
 preserveAspectRatio="xMidYMid meet">
<metadata>
Created by potrace 1.16, written by Peter Selinger 2001-2019
</metadata>
<g transform="translate(0.000000,594.000000) scale(0.500000,-0.500000)"
fill="#000000" stroke="none">
<path d="M297 1144 c-6 -5 -17 -16 -26 -24 -8 -9 -20 -18 -25 -21 -5 -3 -13
-9 -16 -13 -12 -16 -79 -78 -88 -83 -4 -2 -13 -9 -20 -16 -7 -7 -16 -14 -19
-15 -7 -4 -21 -26 -22 -38 -2 -9 9 -21 71 -77 73 -66 70 -57 30 -98 -24 -24
-33 -34 -34 -40 -1 -4 -5 -9 -10 -12 -4 -3 -13 -11 -19 -17 -7 -7 -15 -12 -17
-13 -2 -1 -4 -4 -5 -7 -2 -3 -4 -8 -5 -12 -1 -4 -3 -12 -5 -19 -1 -9 -4 -13
-10 -21 -12 -13 -19 -28 -19 -40 0 -21 -3 -31 -9 -36 -4 -4 -6 -7 -7 -19 -1
-8 -3 -18 -5 -23 -3 -7 -3 -14 -2 -37 1 -15 1 -34 1 -41 0 -17 6 -38 13 -43 5
-4 6 -6 7 -22 2 -27 9 -39 25 -39 3 0 8 -2 11 -6 7 -8 25 -14 47 -16 10 -1 21
-3 24 -4 5 -2 8 -2 11 0 3 1 15 3 27 3 29 1 29 2 42 13 6 5 14 10 19 11 14 4
22 11 26 22 4 10 7 13 43 50 14 15 19 19 25 20 14 2 16 3 21 11 8 12 45 50 51
51 6 2 8 -1 8 -15 0 -6 1 -15 3 -19 4 -11 4 -28 0 -36 -8 -14 -11 -352 -3
-359 12 -13 64 -6 61 7 -4 21 -3 63 0 73 5 13 5 43 0 57 -5 14 -6 54 0 67 4
11 4 19 -1 29 -5 11 -6 64 -2 75 2 7 2 9 0 16 -2 5 -4 16 -5 24 0 8 -2 18 -4
23 -3 6 -3 8 -1 16 1 4 3 16 4 25 2 24 7 28 21 16 3 -3 9 -7 13 -8 3 -2 8 -7
10 -10 1 -4 7 -11 11 -16 4 -6 12 -18 17 -28 9 -17 9 -17 24 -25 10 -5 21 -13
30 -22 7 -7 15 -13 16 -13 1 0 7 -5 14 -11 12 -12 29 -21 38 -21 4 0 9 -3 14
-7 9 -9 53 -13 73 -7 8 2 75 67 81 79 5 8 7 40 4 59 -1 8 -2 25 -2 36 0 20 0
22 -5 27 -11 13 -15 25 -17 43 -1 16 -2 18 -7 24 -7 8 -13 23 -15 41 -1 14 -6
25 -16 39 -3 5 -6 12 -7 18 -2 14 -8 25 -17 31 -4 2 -10 8 -15 13 -12 14 -22
26 -36 41 -20 23 -29 58 -20 82 2 4 4 12 6 17 2 5 6 13 9 19 15 21 14 15 14
94 0 73 0 73 -6 80 -4 4 -9 14 -13 26 -10 28 -13 33 -23 36 -3 1 -8 5 -13 8
-9 9 -18 9 -28 -1 -5 -5 -9 -6 -18 -7 -15 -2 -28 -9 -41 -20 -11 -10 -26 -18
-38 -20 -6 0 -10 -2 -12 -5 -2 -3 -8 -10 -14 -16 -6 -6 -13 -14 -15 -17 -2 -3
-7 -7 -11 -9 -4 -2 -10 -7 -14 -11 -17 -19 -32 -20 -43 -3 -3 4 -6 8 -7 9 -3
2 -35 45 -43 56 -4 8 -30 41 -47 62 -16 18 -29 21 -43 9z m27 -69 c3 -5 11
-16 17 -23 7 -7 15 -16 18 -21 2 -4 7 -9 10 -11 2 -2 5 -7 6 -10 1 -4 7 -13
15 -21 20 -22 19 -36 -2 -43 -6 -2 -7 -2 -12 3 -17 16 -44 47 -45 53 -2 8 -8
15 -17 20 -6 3 -9 7 -12 12 -1 4 -5 10 -8 14 -8 10 -8 10 6 24 14 15 17 15 24
3z m323 -19 c14 -10 18 -16 19 -35 1 -16 2 -18 8 -24 9 -9 12 -40 5 -50 -9
-13 -11 -21 -11 -49 -1 -31 -2 -34 -16 -41 -13 -7 -19 -6 -27 1 -3 3 -9 6 -12
7 -7 3 -14 13 -17 25 -2 5 -4 9 -8 11 -8 5 -20 17 -23 23 -3 5 -20 12 -40 17
-16 4 -19 45 -2 49 3 1 10 6 15 12 7 7 11 10 17 11 7 1 10 3 17 11 5 6 10 10
12 10 2 0 7 1 10 3 3 1 9 3 13 4 4 1 8 3 11 6 10 16 17 18 29 9z m-389 -39 c3
-2 7 -5 9 -8 2 -2 17 -19 32 -36 40 -45 39 -44 39 -60 0 -40 -63 -16 -83 32
-2 4 -5 10 -8 13 -5 6 -5 8 -8 18 0 3 -5 10 -10 16 -12 14 -11 22 1 27 6 2 22
1 28 -2z m-61 -71 c8 -9 18 -21 23 -26 4 -5 17 -20 30 -34 34 -38 35 -52 5
-52 -28 0 -108 98 -95 116 12 17 18 16 37 -4z m313 -41 c6 -5 14 -11 18 -13 5
-2 9 -7 13 -14 6 -12 18 -22 25 -22 11 0 20 -4 24 -10 2 -4 8 -12 14 -19 23
-29 25 -26 -46 -72 -76 -48 -70 -51 -70 29 0 34 -1 46 -3 50 -5 10 -4 51 2 64
8 20 8 20 23 7z m-84 3 c9 -2 10 -5 10 -22 0 -7 1 -16 3 -20 4 -8 3 -12 -2
-52 -1 -4 0 -11 1 -15 2 -5 3 -12 3 -18 1 -5 1 -22 2 -36 3 -49 -17 -51 -64
-8 -7 6 -17 12 -21 14 -14 5 -58 29 -65 36 -13 12 -9 21 25 54 22 21 25 23 38
23 11 0 20 6 20 13 0 23 25 38 50 31z m234 -153 c4 -3 9 -5 11 -5 14 0 19 -9
19 -32 0 -20 -1 -22 -21 -35 -7 -5 -16 -11 -20 -14 -14 -11 -34 -25 -42 -29
-5 -2 -13 -8 -18 -13 -6 -6 -18 -15 -27 -22 -9 -7 -23 -16 -29 -21 -17 -13
-31 -19 -37 -16 -13 6 -21 46 -13 67 2 4 4 12 5 17 3 14 29 35 57 45 13 4 25
11 28 15 1 2 6 5 10 7 4 2 11 7 15 11 4 4 15 11 23 15 9 4 18 9 21 11 6 5 9 5
18 -1z m-400 -2 c14 -5 18 -7 23 -14 4 -5 10 -10 14 -11 20 -6 39 -15 66 -32
17 -10 38 -23 47 -28 23 -14 26 -17 26 -33 0 -6 1 -16 2 -20 3 -11 -1 -53 -6
-57 -6 -8 -37 10 -49 27 -11 17 -52 47 -64 47 -6 0 -67 48 -74 58 -3 3 -9 7
-15 9 -16 5 -21 13 -16 23 2 5 4 12 4 14 0 17 19 24 42 17z m-72 -81 c2 -1 5
-5 6 -9 2 -7 5 -8 22 -12 3 0 12 -6 19 -13 8 -7 18 -14 23 -17 4 -2 10 -6 13
-9 2 -4 9 -9 16 -12 67 -32 115 -85 98 -107 -17 -23 -34 -20 -80 13 -18 14
-42 31 -52 38 -100 70 -105 74 -111 90 -5 13 -5 14 7 30 8 10 27 14 39 8z
m549 -12 c3 -3 5 -9 6 -15 1 -5 3 -13 4 -17 5 -10 2 -17 -10 -27 -27 -23 -69
-54 -80 -59 -9 -4 -14 -8 -18 -15 -8 -10 -28 -26 -39 -30 -5 -2 -12 -5 -15 -7
-10 -6 -33 -7 -39 -1 -15 17 -9 59 9 59 1 0 4 1 5 3 11 14 63 47 79 50 3 1 7
3 10 6 2 2 6 7 9 10 3 3 10 9 16 13 6 4 14 10 19 15 5 4 11 7 13 7 1 0 7 3 12
6 11 7 14 7 19 2z m-609 -90 c4 -3 9 -6 11 -8 3 -1 7 -6 9 -11 4 -8 6 -10 13
-12 10 -3 23 -10 30 -16 4 -3 9 -5 12 -6 8 -2 12 -6 14 -13 1 -7 7 -10 18 -10
5 0 9 -2 17 -9 6 -5 14 -11 18 -13 7 -4 14 -12 14 -18 0 -1 1 -5 3 -9 3 -6 3
-7 0 -12 -2 -3 -3 -10 -3 -14 0 -16 -4 -21 -21 -30 -8 -5 -16 -10 -17 -12 -1
-2 -6 -5 -11 -7 -7 -3 -10 -6 -12 -11 -4 -9 -5 -10 -26 -12 -46 -4 -64 0 -74
15 -2 4 -10 12 -16 19 -6 7 -13 15 -15 19 -2 4 -6 10 -9 14 -8 11 -8 56 0 63
8 7 9 13 9 38 0 45 18 72 36 55z m649 -16 c17 -16 27 -115 14 -140 -1 -3 -3
-9 -4 -14 -5 -30 -79 -53 -91 -29 -5 11 -8 13 -14 13 -3 0 -11 2 -17 4 -7 2
-16 4 -22 4 -14 0 -25 14 -25 31 0 3 -1 8 -3 12 -5 12 6 25 43 50 11 7 12 8
24 10 6 1 9 3 12 8 2 4 7 9 10 11 4 1 10 7 14 11 32 33 45 40 59 29z"/>
</g>
</svg>
