<?xml version="1.0" standalone="no"?>
<!DOCTYPE svg PUBLIC "-//W3C//DTD SVG 20010904//EN"
 "http://www.w3.org/TR/2001/REC-SVG-20010904/DTD/svg10.dtd">
<svg version="1.0" xmlns="http://www.w3.org/2000/svg"
 width="100.000000pt" height="55.000000pt" viewBox="0 0 100.000000 55.000000"
 preserveAspectRatio="xMidYMid meet">
<metadata>
Created by potrace 1.16, written by Peter Selinger 2001-2019
</metadata>
<g transform="translate(0.000000,55.000000) scale(0.100000,-0.100000)"
fill="#000000" stroke="none">
<path d="M24 515 c-4 -9 12 -37 40 -71 l46 -56 0 -184 c0 -186 5 -209 37 -182
14 11 15 34 10 185 l-6 172 49 57 c51 58 59 77 38 90 -7 4 -24 -7 -42 -29 -17
-21 -34 -37 -38 -37 -4 0 -8 15 -10 33 -4 44 -31 43 -38 -2 l-5 -35 -28 37
c-30 40 -44 46 -53 22z"/>
<path d="M267 516 c-3 -7 17 -41 45 -76 l51 -62 -7 -167 c-6 -135 -5 -170 7
-185 30 -41 37 -9 37 175 l0 181 46 59 c26 32 50 59 54 59 4 0 26 -24 48 -53
l39 -53 5 -182 c4 -177 11 -214 37 -198 7 5 11 69 11 189 l1 182 49 60 c55 66
58 73 33 82 -15 6 -39 -14 -63 -56 -9 -14 -11 -14 -20 -1 -5 8 -10 25 -10 38
0 36 -28 26 -36 -13 l-6 -36 -25 33 c-20 28 -30 33 -65 34 -35 0 -43 -4 -62
-33 -11 -18 -24 -33 -28 -33 -4 0 -10 16 -14 35 -7 40 -34 48 -34 11 0 -37
-14 -39 -45 -6 -32 33 -40 36 -48 16z"/>
<path d="M754 515 c-4 -8 13 -39 40 -73 l46 -58 0 -182 c0 -179 6 -210 33
-183 9 9 11 63 9 185 l-4 173 41 47 c48 56 64 83 56 96 -12 19 -30 9 -60 -33
l-30 -42 -5 40 c-6 52 -33 55 -40 5 l-5 -35 -29 38 c-31 40 -43 45 -52 22z"/>
</g>
</svg>
