<?xml version="1.0" standalone="no"?>
<!DOCTYPE svg PUBLIC "-//W3C//DTD SVG 20010904//EN"
 "http://www.w3.org/TR/2001/REC-SVG-20010904/DTD/svg10.dtd">
<svg version="1.0" xmlns="http://www.w3.org/2000/svg"
 width="270.000000pt" height="148.000000pt" viewBox="0 0 270.000000 148.000000"
 preserveAspectRatio="xMidYMid meet">
<metadata>
Created by potrace 1.16, written by Peter Selinger 2001-2019
</metadata>
<g transform="translate(0.000000,148.000000) scale(0.100000,-0.100000)"
fill="#000000" stroke="none">
<path d="M74 1407 c-27 -23 -27 -24 -8 -43 10 -11 41 -48 67 -84 74 -101 90
-122 112 -145 11 -12 31 -34 45 -49 l25 -28 5 -501 5 -502 35 0 35 0 1 495 2
494 56 58 c31 32 56 65 56 73 0 9 7 18 15 21 8 4 15 12 15 19 0 8 9 17 20 20
11 3 20 11 20 17 0 6 18 32 40 58 41 49 49 77 28 98 -23 23 -53 14 -71 -20
-25 -49 -162 -231 -177 -236 -10 -4 -12 23 -9 129 l4 134 -35 3 c-19 1 -40 -1
-46 -5 -11 -8 -6 -91 11 -205 9 -63 -11 -65 -50 -5 -38 57 -165 227 -170 227
-2 0 -16 -11 -31 -23z"/>
<path d="M730 1405 c-16 -19 -12 -28 49 -103 28 -34 51 -66 51 -71 0 -8 24
-37 78 -95 73 -80 66 -25 72 -581 l5 -500 35 0 35 0 2 492 2 493 32 40 c18 22
43 47 56 55 12 9 23 24 23 36 0 11 7 22 15 25 8 4 15 12 15 20 0 8 4 14 8 14
15 0 112 129 112 148 0 49 -50 55 -78 10 -29 -46 -74 -109 -122 -169 -22 -28
-40 -55 -40 -60 0 -5 -7 -9 -16 -9 -14 0 -16 16 -13 133 l4 132 -35 3 c-57 4
-58 -1 -44 -123 7 -60 13 -116 14 -122 0 -25 -28 -13 -47 20 -11 18 -52 76
-92 130 -72 98 -95 113 -121 82z"/>
<path d="M1383 1405 c-7 -8 -13 -16 -13 -19 0 -7 183 -250 192 -254 3 -2 19
-20 35 -40 l28 -37 5 -500 5 -500 35 0 35 0 2 493 2 492 32 40 c18 22 43 47
56 55 12 9 23 24 23 35 0 11 5 20 10 20 6 0 16 11 22 25 6 14 17 25 25 25 7 0
13 7 13 15 0 9 6 18 14 21 7 3 28 28 46 55 31 49 32 51 14 70 -25 28 -54 20
-77 -20 -10 -19 -50 -75 -88 -124 -38 -49 -69 -93 -69 -98 0 -5 -7 -9 -16 -9
-14 0 -15 16 -12 133 l3 132 -39 3 c-49 4 -58 -5 -47 -48 5 -19 12 -74 15
-122 7 -100 -3 -112 -42 -52 -13 20 -55 78 -93 130 -70 94 -91 108 -116 79z"/>
<path d="M2042 1400 c-11 -17 -6 -27 35 -81 27 -33 58 -75 69 -92 12 -18 49
-63 83 -102 45 -52 61 -78 61 -100 0 -16 1 -241 3 -500 l2 -470 35 0 35 0 5
495 5 495 34 43 c19 23 40 42 47 42 7 0 16 9 19 21 11 34 49 88 63 89 6 0 12
5 12 10 0 6 11 20 25 32 14 12 25 28 25 35 0 7 4 13 8 13 5 0 15 11 22 25 12
22 11 27 -5 45 -25 28 -52 25 -69 -8 -8 -15 -45 -68 -83 -118 -38 -49 -72 -98
-76 -107 -3 -9 -13 -17 -22 -17 -13 0 -15 19 -12 133 l2 132 -39 3 c-46 4 -62
-8 -48 -34 15 -31 23 -224 9 -224 -7 1 -52 59 -102 130 -93 135 -116 152 -143
110z"/>
</g>
</svg>
