<?xml version="1.0" standalone="no"?>
<!DOCTYPE svg PUBLIC "-//W3C//DTD SVG 20010904//EN"
 "http://www.w3.org/TR/2001/REC-SVG-20010904/DTD/svg10.dtd">
<svg version="1.0" xmlns="http://www.w3.org/2000/svg"
 width="1082.000000pt" height="590.000000pt" viewBox="0 0 1082.000000 590.000000"
 preserveAspectRatio="xMidYMid meet">
<metadata>
Created by potrace 1.16, written by Peter Selinger 2001-2019
</metadata>
<g transform="translate(0.000000,590.000000) scale(0.500000,-0.500000)"
fill="#000000" stroke="none">
<path d="M75 1137 c-29 -15 -33 -35 -11 -58 8 -8 14 -16 14 -16 0 -1 5 -8 10
-14 6 -7 12 -15 13 -18 2 -3 10 -13 18 -21 9 -10 16 -19 19 -26 8 -19 9 -21
17 -25 5 -2 8 -5 10 -10 1 -3 5 -9 9 -13 3 -3 6 -7 6 -9 0 -4 19 -24 29 -30 4
-3 9 -8 11 -11 2 -4 9 -13 16 -22 10 -11 14 -16 15 -22 1 -4 2 -11 4 -16 1 -7
2 -93 2 -391 0 -381 0 -381 5 -385 4 -3 8 -4 28 -4 39 0 35 -52 33 386 -1 206
-2 380 -2 386 0 14 3 19 18 30 7 5 12 11 16 19 8 16 25 34 37 38 12 4 13 5 20
28 6 17 7 20 14 25 5 3 9 8 11 14 4 10 11 18 16 18 8 0 15 6 18 16 3 9 6 13
23 26 4 2 7 7 8 12 2 6 6 13 15 22 15 16 19 30 15 48 -2 6 -27 24 -34 24 -11
0 -25 -10 -28 -21 -1 -4 -4 -10 -7 -14 -2 -3 -6 -9 -8 -13 -2 -4 -9 -13 -16
-20 -7 -7 -14 -16 -16 -20 -2 -4 -7 -10 -10 -14 -4 -4 -9 -11 -11 -16 -2 -4
-9 -14 -16 -20 -6 -7 -13 -16 -15 -20 -2 -4 -8 -11 -13 -17 -5 -5 -14 -16 -18
-23 -21 -30 -22 -23 -20 94 2 91 2 89 -10 97 -12 8 -21 8 -36 3 -7 -2 -14 -4
-17 -4 -10 0 -13 -7 -8 -25 2 -8 3 -31 4 -70 1 -47 2 -58 4 -64 5 -8 5 -32 1
-36 -4 -4 -18 7 -24 19 -2 4 -8 12 -13 17 -4 6 -10 13 -12 17 -2 4 -7 11 -11
15 -4 5 -10 12 -12 17 -2 5 -9 14 -15 20 -6 6 -12 15 -14 18 -2 4 -7 12 -12
17 -5 6 -10 12 -11 15 -17 34 -44 55 -59 47z"/>
<path d="M595 1128 c-21 -19 -21 -28 -1 -47 6 -5 12 -13 14 -17 2 -4 7 -11 11
-16 5 -5 12 -14 15 -20 4 -6 12 -15 18 -21 10 -9 20 -26 20 -33 0 -5 6 -12 13
-15 4 -2 8 -5 10 -9 2 -4 6 -10 9 -14 3 -3 6 -8 6 -9 0 -4 23 -27 33 -34 3 -2
7 -7 9 -11 2 -4 7 -10 11 -14 13 -12 19 -22 19 -30 0 -5 1 -11 3 -16 4 -8 4
-252 2 -590 -2 -208 -6 -186 33 -186 39 0 34 -34 34 262 0 139 -1 313 -1 387
-2 153 -3 139 16 153 7 5 12 11 16 19 8 17 25 34 37 38 12 4 13 4 20 28 6 17
7 20 14 25 5 3 9 8 11 14 5 12 8 15 20 19 9 4 10 5 14 14 4 12 5 14 18 23 8 6
11 10 13 16 1 6 6 13 14 21 24 25 25 47 2 63 -22 15 -40 10 -48 -12 -3 -10
-19 -34 -32 -47 -6 -7 -13 -15 -15 -19 -2 -4 -7 -11 -11 -16 -4 -5 -9 -12 -11
-16 -2 -4 -9 -12 -15 -19 -6 -6 -13 -15 -16 -20 -3 -5 -10 -15 -17 -23 -7 -7
-15 -17 -18 -22 -14 -21 -14 -19 -14 90 0 110 1 101 -16 110 -10 5 -15 5 -39
-2 -21 -6 -23 -8 -17 -25 2 -6 3 -26 4 -68 1 -48 2 -61 4 -67 15 -33 -7 -50
-23 -18 -2 4 -8 12 -13 18 -5 6 -10 13 -12 17 -2 3 -7 10 -11 14 -4 5 -10 12
-12 17 -2 4 -9 13 -15 19 -6 7 -12 15 -14 19 -2 4 -8 11 -12 17 -5 5 -11 13
-12 16 -23 44 -47 57 -68 37z"/>
<path d="M1117 1128 c-21 -20 -21 -26 -3 -45 6 -7 15 -17 18 -23 4 -6 9 -13
12 -15 2 -2 6 -8 8 -12 3 -4 11 -15 19 -23 9 -10 16 -19 19 -26 8 -19 9 -21
17 -25 5 -2 8 -5 10 -11 2 -5 5 -9 7 -10 3 -1 6 -6 7 -10 4 -8 21 -27 30 -31
3 -2 8 -8 12 -14 4 -5 12 -16 18 -22 8 -9 11 -15 12 -20 1 -5 2 -12 3 -16 3
-9 3 -15 2 -456 0 -366 -5 -323 34 -323 39 0 35 -23 33 194 0 101 -1 275 -1
388 -1 229 -2 208 18 221 5 3 10 9 15 19 10 19 23 32 36 37 13 4 13 4 20 27 5
17 7 19 15 26 7 6 11 11 12 16 2 9 6 13 19 17 9 4 10 5 13 14 4 11 6 14 19 23
9 6 11 10 12 15 1 6 5 12 14 21 15 16 17 20 17 36 0 18 -1 20 -27 36 -9 5 -32
-5 -34 -16 -3 -9 -19 -36 -32 -50 -7 -7 -14 -16 -16 -20 -2 -4 -7 -11 -11 -15
-4 -5 -9 -12 -11 -15 -2 -4 -10 -14 -17 -23 -8 -9 -14 -17 -14 -18 0 -1 -6
-10 -14 -18 -8 -9 -16 -19 -18 -23 -8 -15 -16 -16 -18 -3 -1 4 -2 35 -1 67 3
137 4 122 -13 131 -12 6 -18 6 -33 1 -6 -2 -13 -4 -16 -4 -10 0 -15 -11 -9
-22 2 -4 3 -24 4 -67 1 -51 2 -63 5 -70 14 -33 -8 -48 -24 -16 -2 3 -7 11 -12
16 -5 6 -10 13 -12 17 -2 3 -7 10 -11 15 -4 4 -9 12 -12 16 -3 4 -10 15 -17
23 -7 8 -13 15 -13 17 0 1 -5 8 -10 15 -6 6 -15 18 -20 26 -26 40 -41 47 -61
28z"/>
<path d="M1650 1131 c-24 -20 -25 -29 -7 -47 7 -7 16 -18 19 -24 4 -6 9 -13
12 -15 2 -2 6 -8 9 -12 2 -4 10 -14 17 -22 9 -9 16 -18 19 -26 9 -20 10 -22
18 -26 4 -2 8 -5 10 -10 1 -4 5 -9 8 -11 3 -3 6 -8 7 -11 2 -6 21 -26 33 -34
3 -2 6 -6 8 -10 2 -3 9 -12 15 -19 14 -16 16 -20 16 -29 0 -3 1 -10 3 -14 3
-7 3 -46 2 -387 -2 -441 -6 -388 33 -388 39 0 37 -35 32 599 -1 205 -3 191 18
204 5 3 10 9 14 17 9 18 26 35 38 39 12 4 11 3 20 28 6 18 8 20 15 26 7 4 9 7
11 13 3 11 7 16 17 18 10 3 13 6 18 19 3 7 6 11 14 17 9 6 12 9 14 17 3 6 8
14 17 23 13 14 16 21 16 36 0 34 -54 48 -64 17 -4 -12 -15 -29 -31 -47 -7 -8
-14 -18 -16 -21 -2 -4 -7 -11 -11 -16 -4 -5 -10 -12 -11 -16 -2 -3 -9 -12 -15
-19 -6 -7 -13 -16 -15 -20 -2 -4 -9 -13 -16 -20 -7 -7 -14 -17 -17 -21 -5 -10
-9 -14 -13 -13 -6 1 -7 14 -5 106 2 93 2 91 -10 99 -12 8 -21 8 -36 3 -7 -2
-14 -4 -17 -4 -10 0 -15 -11 -9 -22 2 -4 3 -23 4 -67 1 -50 2 -63 5 -69 4 -10
4 -35 0 -38 -4 -3 -15 7 -26 24 -5 7 -10 15 -13 17 -2 2 -6 8 -9 13 -3 5 -7
11 -9 13 -3 2 -8 10 -13 17 -5 7 -12 18 -17 23 -5 6 -11 13 -13 16 -2 4 -7 11
-12 17 -5 6 -10 13 -12 16 -21 41 -46 57 -65 41z"/>
</g>
</svg>
