<?xml version="1.0" standalone="no"?>
<!DOCTYPE svg PUBLIC "-//W3C//DTD SVG 20010904//EN"
 "http://www.w3.org/TR/2001/REC-SVG-20010904/DTD/svg10.dtd">
<svg version="1.0" xmlns="http://www.w3.org/2000/svg"
 width="46.000000pt" height="100.000000pt" viewBox="0 0 46.000000 100.000000"
 preserveAspectRatio="xMidYMid meet">
<metadata>
Created by potrace 1.16, written by Peter Selinger 2001-2019
</metadata>
<g transform="translate(0.000000,100.000000) scale(0.100000,-0.100000)"
fill="#000000" stroke="none">
<path d="M20 965 c-10 -12 -5 -25 31 -72 23 -32 65 -85 93 -117 l51 -60 1
-295 c2 -436 0 -401 29 -401 l25 0 0 345 0 344 53 60 c104 116 142 171 130
189 -19 32 -40 24 -74 -25 -49 -73 -100 -134 -107 -129 -4 2 -5 39 -2 83 6 82
1 95 -35 91 -18 -3 -20 -10 -18 -85 2 -86 -5 -99 -32 -60 -109 153 -120 163
-145 132z"/>
</g>
</svg>
