<?xml version="1.0" standalone="no"?>
<!DOCTYPE svg PUBLIC "-//W3C//DTD SVG 20010904//EN"
 "http://www.w3.org/TR/2001/REC-SVG-20010904/DTD/svg10.dtd">
<svg version="1.0" xmlns="http://www.w3.org/2000/svg"
 width="272.000000pt" height="590.000000pt" viewBox="0 0 272.000000 590.000000"
 preserveAspectRatio="xMidYMid meet">
<metadata>
Created by potrace 1.16, written by Peter Selinger 2001-2019
</metadata>
<g transform="translate(0.000000,590.000000) scale(0.500000,-0.500000)"
fill="#000000" stroke="none">
<path d="M43 1160 c-2 -1 -9 -7 -16 -14 -16 -17 -15 -22 6 -43 6 -6 12 -14 14
-18 2 -4 7 -11 12 -17 5 -5 10 -13 13 -17 2 -4 9 -13 16 -20 12 -12 22 -28 25
-40 1 -7 5 -11 14 -15 5 -2 8 -5 10 -10 1 -4 5 -9 7 -11 3 -2 6 -8 8 -12 4 -8
20 -26 32 -34 4 -2 9 -8 12 -13 2 -5 10 -15 17 -22 10 -10 13 -15 13 -19 0 -4
1 -11 3 -17 3 -10 3 -52 3 -409 0 -398 0 -398 5 -403 6 -4 49 -6 57 -2 8 4 9
9 7 111 0 53 -1 234 -1 403 -1 346 -3 308 18 322 6 4 10 11 16 22 11 19 26 35
38 38 12 3 14 5 22 30 6 18 7 20 15 26 6 4 9 8 12 16 4 11 4 11 25 21 3 1 6 5
9 12 3 10 11 19 24 28 3 2 6 6 7 12 2 7 6 13 15 23 16 17 17 19 17 35 0 37
-53 53 -62 19 -1 -5 -5 -12 -8 -16 -3 -4 -7 -10 -9 -13 -2 -4 -10 -14 -18 -23
-8 -9 -15 -17 -15 -19 0 -1 -4 -7 -9 -12 -4 -6 -12 -15 -16 -22 -3 -7 -11 -16
-16 -21 -5 -5 -11 -13 -14 -18 -3 -5 -11 -16 -18 -24 -7 -8 -15 -18 -17 -22
-5 -11 -13 -14 -17 -9 -3 3 -3 17 -2 102 2 111 3 104 -16 112 -12 6 -16 6 -29
1 -6 -2 -13 -4 -16 -4 -12 0 -17 -10 -12 -21 2 -3 3 -23 4 -71 1 -59 1 -68 5
-73 3 -7 4 -31 2 -38 -3 -7 -20 5 -28 20 -2 4 -7 11 -12 17 -5 6 -10 13 -12
17 -2 3 -8 11 -13 17 -5 6 -11 14 -13 18 -2 3 -9 12 -15 19 -7 8 -14 17 -16
21 -2 4 -8 12 -13 18 -5 5 -10 12 -11 14 -17 33 -44 54 -59 48z"/>
</g>
</svg>
