<?xml version="1.0" standalone="no"?>
<!DOCTYPE svg PUBLIC "-//W3C//DTD SVG 20010904//EN"
 "http://www.w3.org/TR/2001/REC-SVG-20010904/DTD/svg10.dtd">
<svg version="1.0" xmlns="http://www.w3.org/2000/svg"
 width="68.000000pt" height="148.000000pt" viewBox="0 0 68.000000 148.000000"
 preserveAspectRatio="xMidYMid meet">
<metadata>
Created by potrace 1.16, written by Peter Selinger 2001-2019
</metadata>
<g transform="translate(0.000000,148.000000) scale(0.100000,-0.100000)"
fill="#000000" stroke="none">
<path d="M42 1444 c-25 -17 -29 -46 -8 -63 8 -7 34 -40 58 -73 24 -33 50 -68
58 -77 8 -9 27 -32 42 -51 14 -19 41 -51 60 -70 l33 -35 3 -522 3 -523 39 0
40 0 0 520 c0 336 4 520 10 520 5 0 21 18 35 40 14 22 32 40 40 40 8 0 21 15
28 33 8 18 27 46 43 62 101 103 132 163 102 193 -22 22 -46 12 -70 -27 -13
-22 -52 -77 -88 -123 -37 -46 -69 -91 -73 -101 -3 -9 -14 -17 -23 -17 -14 0
-15 13 -9 128 6 111 5 130 -9 141 -12 10 -25 11 -49 5 l-32 -10 3 -74 c2 -41
8 -96 14 -123 14 -58 0 -83 -26 -45 -32 46 -197 268 -199 268 -1 0 -13 -7 -25
-16z"/>
</g>
</svg>
