<?xml version="1.0" standalone="no"?>
<!DOCTYPE svg PUBLIC "-//W3C//DTD SVG 20010904//EN"
 "http://www.w3.org/TR/2001/REC-SVG-20010904/DTD/svg10.dtd">
<svg version="1.0" xmlns="http://www.w3.org/2000/svg"
 width="248.000000pt" height="590.000000pt" viewBox="0 0 248.000000 590.000000"
 preserveAspectRatio="xMidYMid meet">
<metadata>
Created by potrace 1.16, written by Peter Selinger 2001-2019
</metadata>
<g transform="translate(0.000000,590.000000) scale(0.500000,-0.500000)"
fill="#000000" stroke="none">
<path d="M231 1138 c-5 -1 -10 -3 -12 -4 -1 0 -19 -15 -39 -31 -20 -17 -57
-46 -82 -66 -62 -50 -62 -51 -59 -72 2 -13 6 -17 20 -17 14 0 13 -1 55 34 116
97 125 104 134 100 4 -2 51 -40 107 -86 44 -37 49 -39 72 -38 21 2 27 31 9 41
-3 1 -41 32 -85 67 -97 79 -93 76 -120 72z"/>
<path d="M239 965 c-16 -4 -24 -49 -14 -78 3 -8 4 -16 4 -43 0 -18 1 -42 2
-52 2 -30 -4 -36 -27 -26 -21 10 -64 64 -64 81 0 4 -2 12 -4 19 -2 7 -4 18 -4
26 0 27 -22 36 -45 18 -22 -18 -11 -102 17 -124 3 -3 10 -11 16 -19 24 -32 50
-51 94 -66 14 -5 15 -8 13 -41 0 -16 -1 -98 -1 -183 0 -128 0 -155 -3 -162 -4
-12 -6 -256 -3 -261 10 -13 55 -11 59 2 1 2 1 51 1 109 -1 80 0 105 2 110 2 5
2 49 2 209 -1 231 -3 206 17 218 11 7 32 21 49 32 15 10 26 21 32 34 2 6 9 15
14 20 27 27 47 95 35 118 -13 26 -56 18 -60 -12 -1 -5 -5 -20 -9 -33 -5 -13
-8 -25 -8 -26 0 -12 -35 -57 -49 -64 -18 -9 -17 -14 -17 92 0 110 -1 112 -49
102z"/>
</g>
</svg>
