<?xml version="1.0" standalone="no"?>
<!DOCTYPE svg PUBLIC "-//W3C//DTD SVG 20010904//EN"
 "http://www.w3.org/TR/2001/REC-SVG-20010904/DTD/svg10.dtd">
<svg version="1.0" xmlns="http://www.w3.org/2000/svg"
 width="42.000000pt" height="100.000000pt" viewBox="0 0 42.000000 100.000000"
 preserveAspectRatio="xMidYMid meet">
<metadata>
Created by potrace 1.16, written by Peter Selinger 2001-2019
</metadata>
<g transform="translate(0.000000,100.000000) scale(0.100000,-0.100000)"
fill="#000000" stroke="none">
<path d="M106 900 c-49 -39 -76 -67 -76 -80 0 -34 34 -23 105 35 44 36 71 52
79 47 6 -5 37 -30 70 -56 34 -28 64 -45 73 -42 8 3 17 6 19 6 2 0 4 6 4 14 0
21 -149 136 -176 136 -13 0 -55 -26 -98 -60z"/>
<path d="M192 807 c-9 -10 -10 -32 -3 -78 9 -68 7 -79 -13 -79 -21 0 -43 32
-56 78 -9 36 -15 43 -33 40 -17 -2 -23 -11 -25 -39 -4 -42 28 -86 87 -124 l36
-22 0 -274 c0 -252 1 -274 17 -277 32 -6 38 42 38 297 l0 247 46 38 c75 63
104 127 69 156 -20 17 -40 0 -56 -48 -12 -38 -36 -72 -50 -72 -5 0 -9 37 -11
82 -2 66 -6 83 -19 86 -9 1 -21 -3 -27 -11z"/>
</g>
</svg>
