<?xml version="1.0" standalone="no"?>
<!DOCTYPE svg PUBLIC "-//W3C//DTD SVG 20010904//EN"
 "http://www.w3.org/TR/2001/REC-SVG-20010904/DTD/svg10.dtd">
<svg version="1.0" xmlns="http://www.w3.org/2000/svg"
 width="62.000000pt" height="148.000000pt" viewBox="0 0 62.000000 148.000000"
 preserveAspectRatio="xMidYMid meet">
<metadata>
Created by potrace 1.16, written by Peter Selinger 2001-2019
</metadata>
<g transform="translate(0.000000,148.000000) scale(0.100000,-0.100000)"
fill="#000000" stroke="none">
<path d="M200 1359 c-41 -33 -92 -75 -113 -92 -29 -23 -37 -37 -35 -56 5 -40
31 -29 128 52 47 39 93 77 102 85 16 13 25 9 88 -44 102 -84 131 -104 157
-104 40 0 39 22 -3 56 -21 18 -75 62 -119 98 -52 43 -88 66 -105 66 -16 0 -52
-22 -100 -61z"/>
<path d="M285 1197 c-15 -12 -17 -22 -11 -68 5 -30 10 -82 12 -116 4 -58 3
-63 -16 -63 -44 0 -110 99 -110 166 0 26 -25 38 -51 24 -14 -8 -19 -21 -19
-53 0 -68 62 -152 146 -197 l46 -25 -3 -240 c-2 -132 -4 -314 -4 -405 l0 -165
30 0 30 0 6 165 c3 91 7 273 8 405 l1 241 52 34 c65 43 138 146 138 194 0 19
-8 40 -19 50 -17 15 -19 15 -38 -1 -11 -10 -27 -44 -37 -76 -20 -66 -65 -125
-86 -112 -10 6 -11 33 -7 120 7 115 2 135 -33 135 -9 0 -24 -6 -35 -13z"/>
</g>
</svg>
