<?xml version="1.0" standalone="no"?>
<!DOCTYPE svg PUBLIC "-//W3C//DTD SVG 20010904//EN"
 "http://www.w3.org/TR/2001/REC-SVG-20010904/DTD/svg10.dtd">
<svg version="1.0" xmlns="http://www.w3.org/2000/svg"
 width="32.000000pt" height="148.000000pt" viewBox="0 0 32.000000 148.000000"
 preserveAspectRatio="xMidYMid meet">
<metadata>
Created by potrace 1.16, written by Peter Selinger 2001-2019
</metadata>
<g transform="translate(0.000000,148.000000) scale(0.100000,-0.100000)"
fill="#000000" stroke="none">
<path d="M44 1405 c-4 -8 1 -51 10 -95 9 -44 16 -88 16 -98 0 -9 10 -35 22
-57 22 -40 22 -41 19 -553 -3 -478 -2 -515 15 -533 39 -43 75 -5 68 75 -2 28
-5 255 -7 504 -3 373 -2 454 10 463 36 31 65 138 61 229 -3 73 -4 75 -28 75
-25 0 -25 -2 -31 -96 -5 -98 -23 -163 -43 -156 -16 5 -40 102 -53 210 -5 41
-8 47 -30 47 -13 0 -26 -7 -29 -15z"/>
</g>
</svg>
