<?xml version="1.0" standalone="no"?>
<!DOCTYPE svg PUBLIC "-//W3C//DTD SVG 20010904//EN"
 "http://www.w3.org/TR/2001/REC-SVG-20010904/DTD/svg10.dtd">
<svg version="1.0" xmlns="http://www.w3.org/2000/svg"
 width="22.000000pt" height="100.000000pt" viewBox="0 0 22.000000 100.000000"
 preserveAspectRatio="xMidYMid meet">
<metadata>
Created by potrace 1.16, written by Peter Selinger 2001-2019
</metadata>
<g transform="translate(0.000000,100.000000) scale(0.100000,-0.100000)"
fill="#000000" stroke="none">
<path d="M30 951 c-11 -22 7 -117 32 -171 9 -18 12 -126 13 -378 0 -376 1
-385 48 -361 17 10 18 25 11 349 l-7 338 23 37 c18 29 25 57 28 116 4 74 3 79
-16 79 -24 0 -32 -24 -32 -97 0 -81 -33 -83 -45 -3 -16 105 -32 132 -55 91z"/>
</g>
</svg>
