<?xml version="1.0" standalone="no"?>
<!DOCTYPE svg PUBLIC "-//W3C//DTD SVG 20010904//EN"
 "http://www.w3.org/TR/2001/REC-SVG-20010904/DTD/svg10.dtd">
<svg version="1.0" xmlns="http://www.w3.org/2000/svg"
 width="130.000000pt" height="590.000000pt" viewBox="0 0 130.000000 590.000000"
 preserveAspectRatio="xMidYMid meet">
<metadata>
Created by potrace 1.16, written by Peter Selinger 2001-2019
</metadata>
<g transform="translate(0.000000,590.000000) scale(0.500000,-0.500000)"
fill="#000000" stroke="none">
<path d="M51 1138 c-14 -6 -18 -62 -6 -87 4 -8 5 -14 5 -24 0 -9 2 -19 7 -33
4 -14 7 -26 8 -37 1 -17 7 -33 18 -48 9 -12 11 -20 13 -39 1 -10 3 -23 4 -29
3 -12 1 -52 -3 -63 -4 -12 -5 -705 -1 -713 14 -26 51 -25 63 1 4 10 3 127 -1
145 -2 6 -2 11 0 16 3 13 3 100 -1 114 -4 15 -4 38 0 54 3 14 3 18 -1 41 -2
11 -2 16 0 28 4 23 5 246 1 263 -2 9 -3 24 -3 60 0 38 -1 49 -3 59 -5 15 -2
24 14 42 11 13 33 53 33 60 0 2 1 10 3 17 2 6 5 17 6 23 8 30 5 134 -3 140
-28 21 -41 3 -39 -59 1 -48 0 -55 -9 -85 -2 -7 -4 -15 -4 -17 0 -5 -14 -31
-17 -32 -8 -4 -24 27 -27 52 -1 9 -3 19 -5 24 -3 4 -6 16 -7 25 -1 9 -3 23 -5
30 -2 7 -4 23 -5 35 -2 34 -14 46 -35 37z"/>
</g>
</svg>
