<?xml version="1.0" standalone="no"?>
<!DOCTYPE svg PUBLIC "-//W3C//DTD SVG 20010904//EN"
 "http://www.w3.org/TR/2001/REC-SVG-20010904/DTD/svg10.dtd">
<svg version="1.0" xmlns="http://www.w3.org/2000/svg"
 width="130.000000pt" height="148.000000pt" viewBox="0 0 130.000000 148.000000"
 preserveAspectRatio="xMidYMid meet">
<metadata>
Created by potrace 1.16, written by Peter Selinger 2001-2019
</metadata>
<g transform="translate(0.000000,148.000000) scale(0.100000,-0.100000)"
fill="#000000" stroke="none">
<path d="M348 1395 c-16 -13 -28 -29 -28 -35 0 -6 60 -85 133 -176 l134 -165
7 -477 c4 -262 9 -478 11 -481 12 -11 83 -10 91 1 6 8 7 191 1 484 l-8 471
114 150 c63 83 117 156 122 162 8 14 -41 71 -62 71 -7 0 -47 -49 -88 -110 -42
-60 -80 -112 -85 -115 -16 -10 -18 10 -10 110 4 55 5 106 3 113 -6 13 -71 16
-91 3 -13 -8 -12 -83 4 -179 4 -24 2 -42 -4 -46 -6 -4 -51 48 -103 119 -51 69
-98 125 -103 125 -6 0 -23 -12 -38 -25z"/>
<path d="M997 1393 c-4 -3 -7 -61 -7 -128 0 -105 2 -124 18 -138 23 -21 48
-22 56 -1 3 9 6 71 6 139 0 103 -3 124 -16 129 -21 8 -49 8 -57 -1z"/>
<path d="M1146 1392 c-3 -6 -5 -60 -4 -122 1 -100 3 -115 23 -138 14 -17 28
-23 39 -19 15 6 16 23 14 144 l-3 138 -32 3 c-17 2 -34 -1 -37 -6z"/>
<path d="M57 1383 c-4 -3 -7 -61 -7 -128 0 -110 2 -124 21 -141 15 -14 24 -16
37 -8 14 9 17 31 20 134 2 81 -1 127 -9 136 -12 15 -51 19 -62 7z"/>
<path d="M213 1383 c-10 -3 -13 -37 -13 -121 0 -98 3 -121 19 -141 13 -17 23
-22 39 -16 21 6 22 12 22 135 0 118 -2 130 -19 140 -21 11 -29 11 -48 3z"/>
<path d="M978 358 c-2 -7 -1 -66 2 -130 4 -102 8 -119 25 -132 14 -10 25 -11
37 -5 16 9 18 26 18 138 0 108 -3 130 -16 135 -26 10 -62 7 -66 -6z"/>
<path d="M1136 361 c-3 -5 -5 -61 -4 -124 1 -127 11 -152 60 -145 23 3 23 5
23 128 1 69 -3 131 -8 138 -11 14 -63 16 -71 3z"/>
<path d="M50 238 c0 -103 3 -127 19 -147 15 -20 21 -22 40 -12 21 12 21 17 19
144 l-3 132 -37 3 -38 3 0 -123z"/>
<path d="M200 237 c0 -118 1 -124 25 -147 20 -19 27 -21 40 -10 13 11 15 35
13 144 l-3 131 -37 3 -38 3 0 -124z"/>
</g>
</svg>
