<?xml version="1.0" standalone="no"?>
<!DOCTYPE svg PUBLIC "-//W3C//DTD SVG 20010904//EN"
 "http://www.w3.org/TR/2001/REC-SVG-20010904/DTD/svg10.dtd">
<svg version="1.0" xmlns="http://www.w3.org/2000/svg"
 width="88.000000pt" height="100.000000pt" viewBox="0 0 88.000000 100.000000"
 preserveAspectRatio="xMidYMid meet">
<metadata>
Created by potrace 1.16, written by Peter Selinger 2001-2019
</metadata>
<g transform="translate(0.000000,100.000000) scale(0.100000,-0.100000)"
fill="#000000" stroke="none">
<path d="M237 948 c-29 -16 -19 -38 61 -136 42 -53 82 -105 89 -116 9 -15 12
-95 13 -277 0 -141 3 -284 6 -318 l7 -61 34 0 33 0 -6 324 -7 323 81 104 c45
57 82 109 82 116 0 16 -41 44 -53 36 -5 -3 -29 -36 -53 -74 -25 -38 -50 -69
-56 -69 -7 0 -9 22 -5 69 7 82 -5 102 -49 82 -23 -10 -25 -15 -19 -59 4 -26 9
-54 11 -64 8 -28 -12 -28 -38 0 -14 15 -39 48 -56 73 -35 52 -50 61 -75 47z"/>
<path d="M675 937 c-3 -7 -5 -51 -3 -98 3 -73 5 -84 22 -87 10 -2 22 2 27 10
10 15 10 122 0 158 -8 28 -38 39 -46 17z"/>
<path d="M777 944 c-10 -11 -8 -139 3 -168 6 -16 17 -26 30 -26 20 0 21 5 18
98 -3 89 -5 97 -23 100 -12 2 -24 0 -28 -4z"/>
<path d="M34 927 c-3 -8 -4 -49 -2 -92 2 -62 7 -80 21 -89 14 -8 20 -8 27 4
11 17 13 132 4 168 -7 24 -41 31 -50 9z"/>
<path d="M142 843 c3 -92 4 -98 25 -101 29 -4 33 16 25 113 -6 73 -9 80 -30
83 -23 3 -23 3 -20 -95z"/>
<path d="M667 253 c-4 -3 -7 -46 -7 -94 0 -74 3 -90 18 -97 35 -18 42 -4 42
83 0 46 -3 90 -6 99 -6 16 -35 22 -47 9z"/>
<path d="M777 253 c-4 -3 -7 -46 -7 -94 0 -76 3 -90 18 -98 13 -7 23 -6 30 1
16 16 16 170 0 186 -13 13 -31 16 -41 5z"/>
<path d="M34 237 c-3 -8 -4 -49 -2 -92 2 -60 7 -80 20 -89 24 -15 31 -3 36 64
6 84 -4 130 -29 130 -11 0 -22 -6 -25 -13z"/>
<path d="M138 208 c-3 -24 -3 -68 1 -98 5 -43 10 -56 25 -58 28 -6 36 15 36
95 0 87 -5 103 -35 103 -19 0 -23 -7 -27 -42z"/>
</g>
</svg>
