<?xml version="1.0" standalone="no"?>
<!DOCTYPE svg PUBLIC "-//W3C//DTD SVG 20010904//EN"
 "http://www.w3.org/TR/2001/REC-SVG-20010904/DTD/svg10.dtd">
<svg version="1.0" xmlns="http://www.w3.org/2000/svg"
 width="516.000000pt" height="590.000000pt" viewBox="0 0 516.000000 590.000000"
 preserveAspectRatio="xMidYMid meet">
<metadata>
Created by potrace 1.16, written by Peter Selinger 2001-2019
</metadata>
<g transform="translate(0.000000,590.000000) scale(0.500000,-0.500000)"
fill="#000000" stroke="none">
<path d="M300 1132 c-30 -19 -50 -40 -45 -50 2 -4 69 -89 105 -134 2 -3 13
-16 24 -30 11 -14 26 -31 32 -39 34 -41 48 -61 52 -73 2 -7 6 -319 6 -523 1
-250 -2 -237 48 -237 48 0 45 -6 42 89 -2 88 -5 263 -7 404 -1 56 -2 139 -3
183 -3 101 -13 81 116 247 69 89 75 99 73 105 -4 14 -43 44 -57 44 -8 0 -12
-4 -62 -76 -85 -118 -79 -118 -78 -7 2 99 5 92 -40 90 -38 -2 -40 -3 -40 -24
-1 -26 1 -94 3 -119 2 -27 0 -34 -7 -31 -5 2 -8 6 -76 95 -73 96 -71 95 -86
86z"/>
<path d="M922 1117 c-15 -3 -15 1 -12 -130 0 -2 -1 -16 -1 -31 -2 -33 1 -40
20 -57 14 -14 37 -12 45 4 3 6 3 194 -1 201 -5 11 -28 17 -51 13z"/>
<path d="M795 1114 c-7 -4 -7 -5 -7 -84 0 -42 -1 -83 -1 -90 0 -40 46 -66 66
-38 3 5 2 196 -1 203 -6 10 -44 16 -57 9z"/>
<path d="M49 1108 c-9 -4 -10 -14 -9 -177 0 -38 48 -66 64 -37 5 9 2 197 -3
204 -7 11 -37 16 -52 10z"/>
<path d="M165 1104 c-4 -5 -5 -9 -3 -89 0 -23 0 -53 -1 -66 -3 -54 45 -93 64
-53 7 14 1 199 -6 205 -9 9 -47 11 -54 3z"/>
<path d="M787 297 c-10 -4 -10 -10 -9 -71 1 -30 2 -56 2 -58 0 -2 -1 -16 -1
-31 -2 -54 42 -91 66 -54 5 7 5 197 0 204 -8 12 -42 18 -58 10z"/>
<path d="M912 298 c-13 -3 -13 5 -10 -130 0 -3 -1 -16 -1 -30 -3 -55 38 -89
65 -55 5 7 6 194 1 204 -6 11 -32 16 -55 11z"/>
<path d="M171 290 c-11 -3 -11 -5 -11 -64 1 -29 1 -68 0 -87 -1 -62 38 -101
64 -65 5 7 6 199 1 206 -7 11 -36 16 -54 10z"/>
<path d="M43 285 c-6 -5 -6 -5 -4 -45 1 -21 1 -62 1 -90 0 -51 0 -51 6 -61 14
-22 29 -29 45 -22 16 7 15 -1 15 110 l0 99 -7 7 c-9 10 -47 11 -56 2z"/>
</g>
</svg>
