<?xml version="1.0" standalone="no"?>
<!DOCTYPE svg PUBLIC "-//W3C//DTD SVG 20010904//EN"
 "http://www.w3.org/TR/2001/REC-SVG-20010904/DTD/svg10.dtd">
<svg version="1.0" xmlns="http://www.w3.org/2000/svg"
 width="88.000000pt" height="100.000000pt" viewBox="0 0 88.000000 100.000000"
 preserveAspectRatio="xMidYMid meet">
<metadata>
Created by potrace 1.16, written by Peter Selinger 2001-2019
</metadata>
<g transform="translate(0.000000,100.000000) scale(0.100000,-0.100000)"
fill="#000000" stroke="none">
<path d="M395 963 c-16 -16 -16 -57 2 -130 3 -16 0 -25 -12 -30 -13 -4 -29 6
-58 38 -22 24 -53 59 -70 77 -35 39 -80 42 -85 6 -2 -16 17 -40 75 -92 43 -38
92 -82 110 -98 l32 -29 3 -240 3 -240 -180 -3 c-128 -2 -181 -6 -187 -15 -4
-6 -8 -49 -8 -95 l0 -83 33 3 32 3 0 60 0 60 75 0 75 0 0 -59 c0 -66 19 -92
49 -67 12 11 15 25 10 66 -7 61 -3 66 62 68 47 2 68 -13 60 -43 -18 -64 -17
-79 3 -90 39 -21 56 1 56 72 l0 63 65 0 65 0 3 -68 3 -68 37 3 37 3 0 65 0 65
43 3 c60 4 72 -9 72 -80 0 -56 1 -59 23 -56 21 3 22 7 22 93 l0 90 -193 5
-194 5 -2 230 -2 230 70 65 c143 132 168 169 132 199 -19 16 -43 4 -70 -36
-37 -53 -117 -134 -130 -130 -7 3 -10 31 -7 86 4 101 -14 134 -54 94z"/>
</g>
</svg>
