<?xml version="1.0" standalone="no"?>
<!DOCTYPE svg PUBLIC "-//W3C//DTD SVG 20010904//EN"
 "http://www.w3.org/TR/2001/REC-SVG-20010904/DTD/svg10.dtd">
<svg version="1.0" xmlns="http://www.w3.org/2000/svg"
 width="426.000000pt" height="482.000000pt" viewBox="0 0 426.000000 482.000000"
 preserveAspectRatio="xMidYMid meet">
<metadata>
Created by potrace 1.16, written by Peter Selinger 2001-2019
</metadata>
<g transform="translate(0.000000,482.000000) scale(0.500000,-0.500000)"
fill="#000000" stroke="none">
<path d="M389 939 c-7 -3 -8 -5 -14 -30 -3 -13 -4 -16 -1 -26 15 -67 4 -136
-17 -106 -7 10 -17 21 -24 25 -3 2 -7 6 -9 9 -1 2 -7 7 -12 10 -11 6 -22 17
-22 23 0 3 -4 8 -10 14 -6 5 -13 14 -17 19 -3 6 -9 12 -15 15 -5 2 -8 6 -9 9
-4 15 -50 20 -63 7 -13 -12 -8 -32 13 -58 6 -6 12 -14 13 -17 2 -2 10 -8 17
-12 7 -4 14 -9 17 -12 5 -7 19 -18 30 -24 6 -3 12 -9 16 -14 3 -5 10 -11 15
-14 5 -3 9 -7 11 -11 1 -3 5 -7 8 -10 3 -2 8 -8 10 -12 4 -8 7 -10 14 -10 6 0
12 -7 16 -17 3 -9 4 -10 12 -13 l9 -3 1 -40 c1 -22 2 -45 4 -51 2 -8 2 -20 1
-48 -3 -67 1 -255 5 -265 3 -7 4 -8 1 -12 -1 -2 -3 -12 -3 -23 -1 -13 -2 -19
-5 -22 -7 -7 -58 -10 -120 -8 -27 1 -76 2 -108 1 -75 -1 -74 -1 -98 -1 -22 1
-29 -2 -29 -11 0 -2 -1 -8 -3 -13 -4 -12 -4 -54 0 -71 3 -12 3 -13 0 -24 -12
-43 -4 -66 24 -67 34 -1 44 11 34 43 -9 29 -3 81 9 85 9 3 70 3 88 0 9 -2 16
-2 24 -1 27 6 29 2 29 -66 1 -65 -1 -61 27 -61 27 0 27 -2 26 63 -1 71 -4 67
55 67 65 0 77 -14 60 -71 -3 -11 -4 -40 -1 -48 3 -8 12 -11 33 -11 31 0 30 -4
29 73 -1 78 -8 69 56 69 53 0 58 -1 65 -9 9 -12 9 -12 9 -66 0 -60 -1 -58 18
-64 28 -9 62 8 59 30 0 4 -1 27 -1 50 -1 59 -3 57 43 57 32 0 34 0 40 -5 3 -2
10 -5 15 -6 14 -2 14 -3 14 -60 0 -61 1 -63 23 -63 23 0 23 -2 23 92 0 103 30
89 -193 89 -221 0 -189 -31 -188 183 2 164 1 178 -2 188 -5 15 -6 28 -3 37 1
4 3 17 4 28 1 23 4 28 14 30 7 1 13 8 15 16 2 5 10 13 14 13 10 0 29 16 44 38
7 11 15 16 29 21 2 0 6 4 9 8 21 32 27 38 39 42 10 4 11 5 15 15 3 9 5 11 12
14 14 7 18 16 16 40 -2 31 -6 35 -34 34 -22 0 -25 -2 -43 -32 -2 -4 -9 -12
-15 -18 -12 -13 -15 -18 -15 -26 0 -8 -10 -18 -24 -23 -12 -5 -25 -17 -32 -32
-3 -7 -7 -11 -11 -13 -3 -1 -9 -6 -14 -9 -8 -8 -16 -9 -23 -3 -6 4 -6 0 -2 78
2 52 -1 79 -9 90 -7 8 -27 12 -38 7z"/>
</g>
</svg>
