<?xml version="1.0" standalone="no"?>
<!DOCTYPE svg PUBLIC "-//W3C//DTD SVG 20010904//EN"
 "http://www.w3.org/TR/2001/REC-SVG-20010904/DTD/svg10.dtd">
<svg version="1.0" xmlns="http://www.w3.org/2000/svg"
 width="106.000000pt" height="120.000000pt" viewBox="0 0 106.000000 120.000000"
 preserveAspectRatio="xMidYMid meet">
<metadata>
Created by potrace 1.16, written by Peter Selinger 2001-2019
</metadata>
<g transform="translate(0.000000,120.000000) scale(0.100000,-0.100000)"
fill="#000000" stroke="none">
<path d="M470 1150 c-10 -19 -7 -106 6 -168 3 -14 -1 -25 -11 -28 -14 -6 -49
26 -153 139 -24 26 -49 47 -57 47 -63 0 -60 -47 7 -111 28 -27 54 -49 58 -49
3 0 38 -32 78 -70 l72 -70 1 -238 c0 -130 4 -246 8 -256 4 -11 5 -34 1 -50
l-6 -31 -217 -3 c-255 -3 -235 9 -233 -137 l1 -90 35 0 35 0 0 75 0 75 93 3
c69 2 93 0 94 -10 1 -7 2 -42 3 -78 l0 -65 33 -3 32 -3 0 81 0 81 73 -3 72 -3
0 -75 0 -75 35 0 35 0 1 75 c1 41 2 81 3 88 2 19 135 16 152 -4 7 -9 13 -44
13 -87 l1 -72 30 -3 c50 -4 58 8 56 83 -1 40 3 72 10 81 15 18 72 18 110 -1
29 -15 29 -17 24 -79 -6 -67 7 -95 40 -82 13 5 15 24 13 113 l-3 108 -235 3
-235 2 0 284 0 284 35 32 c201 183 220 204 218 240 -3 31 -6 35 -33 37 -25 2
-35 -5 -62 -42 -18 -25 -33 -50 -33 -55 0 -5 -13 -16 -29 -25 -16 -8 -32 -23
-35 -33 -8 -23 -62 -56 -71 -42 -3 5 -3 52 1 103 5 80 4 95 -10 110 -23 23
-43 21 -56 -3z"/>
</g>
</svg>
