<?xml version="1.0" standalone="no"?>
<!DOCTYPE svg PUBLIC "-//W3C//DTD SVG 20010904//EN"
 "http://www.w3.org/TR/2001/REC-SVG-20010904/DTD/svg10.dtd">
<svg version="1.0" xmlns="http://www.w3.org/2000/svg"
 width="82.000000pt" height="100.000000pt" viewBox="0 0 82.000000 100.000000"
 preserveAspectRatio="xMidYMid meet">
<metadata>
Created by potrace 1.16, written by Peter Selinger 2001-2019
</metadata>
<g transform="translate(0.000000,100.000000) scale(0.100000,-0.100000)"
fill="#000000" stroke="none">
<path d="M42 962 c-8 -5 -12 -18 -10 -28 3 -17 16 -20 123 -24 l119 -5 9 -38
c5 -20 6 -49 3 -62 -6 -25 -7 -25 -132 -25 l-125 0 3 -27 3 -28 121 -3 121 -3
6 -52 c2 -29 2 -70 -2 -92 l-7 -40 -119 0 -120 0 -3 -27 -3 -28 124 0 c123 0
125 0 131 -24 3 -13 3 -51 0 -85 l-7 -60 -121 -3 -121 -3 0 -25 0 -25 125 -5
125 -5 3 -40 c2 -22 1 -60 -3 -84 l-7 -43 -117 7 c-101 6 -119 4 -131 -10 -27
-33 2 -40 151 -38 78 1 144 4 147 8 9 8 9 901 1 909 -10 11 -273 18 -287 8z"/>
<path d="M472 962 c-8 -5 -12 -18 -10 -28 3 -17 14 -19 108 -21 155 -4 152 -2
148 -71 l-3 -57 -125 -5 -125 -5 0 -25 0 -25 128 -3 127 -3 0 -82 c0 -45 -4
-88 -9 -95 -6 -10 -29 -12 -104 -6 -117 8 -150 2 -145 -29 3 -21 8 -22 128
-27 l125 -5 0 -80 0 -80 -125 -5 -125 -5 0 -25 0 -25 128 -3 128 -3 -3 -82 -3
-82 -125 0 c-114 0 -125 -2 -128 -19 -2 -10 2 -22 10 -27 16 -10 102 -11 216
-2 l82 6 0 453 c0 351 -3 455 -12 461 -19 11 -271 16 -286 5z"/>
</g>
</svg>
