<?xml version="1.0" standalone="no"?>
<!DOCTYPE svg PUBLIC "-//W3C//DTD SVG 20010904//EN"
 "http://www.w3.org/TR/2001/REC-SVG-20010904/DTD/svg10.dtd">
<svg version="1.0" xmlns="http://www.w3.org/2000/svg"
 width="490.000000pt" height="590.000000pt" viewBox="0 0 490.000000 590.000000"
 preserveAspectRatio="xMidYMid meet">
<metadata>
Created by potrace 1.16, written by Peter Selinger 2001-2019
</metadata>
<g transform="translate(0.000000,590.000000) scale(0.500000,-0.500000)"
fill="#000000" stroke="none">
<path d="M46 1137 c-12 -5 -11 -47 1 -52 2 -1 49 -3 104 -4 165 -5 187 -6 192
-14 4 -6 5 -139 0 -143 -6 -5 -24 -5 -136 -4 -177 2 -169 4 -169 -33 0 -34 -6
-31 81 -31 184 2 221 1 224 -3 4 -6 4 -212 0 -218 -3 -5 -14 -5 -191 -3 -120
1 -112 3 -112 -31 0 -35 -11 -33 154 -31 142 2 147 2 150 -4 3 -7 3 -193 -1
-196 -10 -8 -60 -11 -86 -5 -12 3 -15 3 -32 0 -17 -3 -23 -3 -56 -1 -20 1 -39
2 -42 2 -10 0 -27 0 -42 1 -41 0 -47 -4 -47 -35 0 -36 -17 -32 155 -31 144 2
144 2 149 -3 6 -6 6 -200 -1 -205 -6 -4 -95 -4 -107 0 -6 2 -24 4 -60 5 -28 1
-64 3 -79 4 -56 4 -57 4 -57 -27 0 -31 -21 -28 181 -27 96 0 176 1 177 2 6 3
6 1 6 540 -1 583 0 536 -18 545 -7 4 -329 5 -338 2z"/>
<path d="M563 1135 c-7 -7 -7 -38 0 -46 5 -6 40 -9 121 -9 62 0 168 -5 175 -8
10 -4 15 -134 5 -146 -5 -7 -14 -8 -136 -6 -177 2 -170 4 -170 -33 0 -35 -15
-33 184 -30 145 2 125 20 125 -113 0 -133 24 -115 -147 -112 -174 2 -159 5
-159 -31 0 -36 -21 -33 215 -30 79 1 81 1 86 -3 5 -4 9 -181 4 -195 -4 -10
-56 -15 -88 -8 -14 3 -16 3 -31 0 -18 -4 -77 -3 -91 1 -6 2 -10 2 -16 0 -7 -1
-13 -1 -22 0 -42 8 -60 -3 -60 -34 0 -36 -17 -32 156 -31 171 2 153 5 153 -29
0 -128 -1 -176 -4 -179 -5 -4 -96 -5 -109 0 -6 2 -27 4 -74 6 -36 2 -75 4 -88
4 -34 2 -53 -35 -28 -53 8 -6 346 -4 353 2 4 4 5 1057 1 1067 -4 8 -15 17 -21
18 -28 4 -330 2 -334 -2z"/>
</g>
</svg>
