<?xml version="1.0" standalone="no"?>
<!DOCTYPE svg PUBLIC "-//W3C//DTD SVG 20010904//EN"
 "http://www.w3.org/TR/2001/REC-SVG-20010904/DTD/svg10.dtd">
<svg version="1.0" xmlns="http://www.w3.org/2000/svg"
 width="122.000000pt" height="148.000000pt" viewBox="0 0 122.000000 148.000000"
 preserveAspectRatio="xMidYMid meet">
<metadata>
Created by potrace 1.16, written by Peter Selinger 2001-2019
</metadata>
<g transform="translate(0.000000,148.000000) scale(0.100000,-0.100000)"
fill="#000000" stroke="none">
<path d="M48 1412 c-8 -9 -8 -20 0 -37 l12 -25 162 0 c90 0 173 -3 186 -6 21
-6 22 -11 22 -100 0 -83 -2 -94 -17 -95 -10 0 -93 0 -184 1 -179 2 -194 -3
-187 -52 3 -23 3 -23 183 -25 99 -1 186 -2 193 -2 10 -1 12 -33 10 -143 l-3
-143 -185 0 -185 0 0 -35 0 -35 185 0 185 -1 0 -129 0 -130 -183 0 c-191 -1
-202 -3 -202 -45 0 -38 11 -40 200 -37 l185 2 3 -133 3 -133 -178 6 c-98 4
-182 8 -186 9 -18 2 -32 -33 -21 -51 10 -16 33 -18 215 -19 112 -1 211 0 220
2 15 4 17 62 15 674 -1 435 -5 673 -11 679 -16 16 -424 19 -437 3z"/>
<path d="M692 1388 l3 -33 179 -3 c112 -1 185 -7 193 -13 20 -18 18 -178 -3
-186 -9 -3 -95 -6 -192 -7 l-177 -1 -3 -38 -3 -39 193 3 193 4 0 -145 0 -145
-190 0 -190 0 0 -35 0 -35 190 0 190 0 0 -130 0 -130 -182 0 c-118 -1 -187 -5
-194 -12 -6 -6 -9 -23 -7 -39 l3 -29 190 0 190 0 0 -130 0 -130 -80 0 c-44 0
-129 2 -190 5 l-110 5 0 -35 0 -35 220 1 220 1 0 679 0 679 -223 3 -223 2 3
-32z"/>
</g>
</svg>
