<?xml version="1.0" standalone="no"?>
<!DOCTYPE svg PUBLIC "-//W3C//DTD SVG 20010904//EN"
 "http://www.w3.org/TR/2001/REC-SVG-20010904/DTD/svg10.dtd">
<svg version="1.0" xmlns="http://www.w3.org/2000/svg"
 width="38.000000pt" height="100.000000pt" viewBox="0 0 38.000000 100.000000"
 preserveAspectRatio="xMidYMid meet">
<metadata>
Created by potrace 1.16, written by Peter Selinger 2001-2019
</metadata>
<g transform="translate(0.000000,100.000000) scale(0.100000,-0.100000)"
fill="#000000" stroke="none">
<path d="M48 949 c-17 -9 -18 -42 -18 -453 0 -396 2 -445 16 -450 9 -3 75 -6
149 -6 135 0 165 8 146 39 -6 10 -37 12 -124 10 -74 -2 -120 0 -127 7 -7 7
-10 42 -8 85 l3 74 118 -4 c124 -4 149 3 140 39 -3 11 -13 20 -22 21 -9 0 -65
1 -126 2 l-110 2 0 80 0 80 128 3 127 3 0 24 c0 32 -20 37 -150 33 l-105 -3 0
90 0 90 127 3 c105 2 127 5 132 19 4 8 1 22 -6 31 -11 12 -32 14 -123 9 -61
-3 -116 -2 -123 2 -9 5 -12 26 -10 62 l3 54 125 9 c122 9 143 15 133 43 -6 16
-268 18 -295 2z"/>
</g>
</svg>
