<?xml version="1.0" standalone="no"?>
<!DOCTYPE svg PUBLIC "-//W3C//DTD SVG 20010904//EN"
 "http://www.w3.org/TR/2001/REC-SVG-20010904/DTD/svg10.dtd">
<svg version="1.0" xmlns="http://www.w3.org/2000/svg"
 width="56.000000pt" height="148.000000pt" viewBox="0 0 56.000000 148.000000"
 preserveAspectRatio="xMidYMid meet">
<metadata>
Created by potrace 1.16, written by Peter Selinger 2001-2019
</metadata>
<g transform="translate(0.000000,148.000000) scale(0.100000,-0.100000)"
fill="#000000" stroke="none">
<path d="M55 1408 c-3 -7 -4 -314 -3 -682 l3 -670 220 0 220 -1 3 25 c1 14 -1
30 -5 35 -6 7 -64 8 -182 2 -95 -4 -180 -6 -188 -3 -11 5 -13 31 -11 133 l3
128 190 0 190 0 3 33 c4 44 -15 49 -163 45 -177 -5 -207 -5 -217 5 -5 5 -7 65
-6 133 l3 124 182 -4 c168 -3 182 -2 191 15 6 12 6 28 1 43 l-9 23 -183 -3
-182 -4 0 145 0 144 190 1 190 0 0 35 0 35 -180 1 c-99 1 -186 2 -193 3 -10 1
-12 25 -10 99 l3 97 187 3 188 2 6 25 c3 13 3 29 -1 34 -10 17 -434 15 -440
-1z"/>
</g>
</svg>
