<?xml version="1.0" standalone="no"?>
<!DOCTYPE svg PUBLIC "-//W3C//DTD SVG 20010904//EN"
 "http://www.w3.org/TR/2001/REC-SVG-20010904/DTD/svg10.dtd">
<svg version="1.0" xmlns="http://www.w3.org/2000/svg"
 width="226.000000pt" height="590.000000pt" viewBox="0 0 226.000000 590.000000"
 preserveAspectRatio="xMidYMid meet">
<metadata>
Created by potrace 1.16, written by Peter Selinger 2001-2019
</metadata>
<g transform="translate(0.000000,590.000000) scale(0.500000,-0.500000)"
fill="#000000" stroke="none">
<path d="M190 1138 c-142 -1 -132 0 -143 -15 -8 -11 -10 -1062 -2 -1070 5 -5
338 -10 350 -5 14 5 12 52 -2 55 -3 1 -24 0 -47 -1 -22 -1 -61 -3 -85 -4 -28
-1 -48 -3 -53 -5 -15 -5 -105 -5 -110 0 -4 5 -7 186 -4 200 3 11 2 11 153 9
77 -2 142 -2 145 -1 16 4 17 59 1 62 -21 4 -33 5 -45 4 -7 -1 -16 -1 -20 -1
-10 1 -17 1 -59 -2 -29 -2 -40 -2 -49 0 -14 2 -32 3 -39 0 -18 -7 -78 -3 -85
6 -3 3 -4 180 -2 192 3 11 -3 11 151 8 168 -2 156 -5 156 31 0 36 12 33 -156
31 -145 -3 -148 -3 -150 4 -4 14 -2 214 3 219 4 4 150 6 156 2 1 -1 33 -1 71
-1 85 0 78 -3 78 31 0 37 8 36 -170 33 -125 -2 -131 -2 -136 4 -8 9 -5 144 3
148 6 3 117 8 180 8 47 0 101 2 114 5 13 3 14 47 1 53 -3 1 -17 2 -42 2 -20
-1 -93 -1 -163 -2z"/>
</g>
</svg>
