<?xml version="1.0" standalone="no"?>
<!DOCTYPE svg PUBLIC "-//W3C//DTD SVG 20010904//EN"
 "http://www.w3.org/TR/2001/REC-SVG-20010904/DTD/svg10.dtd">
<svg version="1.0" xmlns="http://www.w3.org/2000/svg"
 width="120.000000pt" height="148.000000pt" viewBox="0 0 120.000000 148.000000"
 preserveAspectRatio="xMidYMid meet">
<metadata>
Created by potrace 1.16, written by Peter Selinger 2001-2019
</metadata>
<g transform="translate(0.000000,148.000000) scale(0.100000,-0.100000)"
fill="#000000" stroke="none">
<path d="M55 1408 c-3 -7 -4 -314 -3 -682 l3 -669 220 -1 220 -1 3 34 3 34
-193 -4 -193 -4 0 130 0 130 190 0 190 0 3 33 c4 44 -15 49 -163 45 -179 -5
-207 -5 -217 5 -5 5 -7 65 -6 133 l3 124 180 -4 c199 -3 213 0 199 54 l-7 27
-186 -3 -186 -4 0 144 0 145 190 0 190 1 0 35 0 35 -175 2 c-96 0 -183 2 -193
2 -16 1 -17 11 -15 99 l3 97 190 5 190 5 3 33 3 32 -221 0 c-167 0 -222 -3
-225 -12z"/>
<path d="M652 1408 c-9 -9 -12 -174 -12 -680 0 -367 3 -669 8 -669 46 -8 430
-5 440 3 16 14 15 45 -2 55 -8 4 -81 5 -163 0 -81 -4 -163 -6 -182 -5 l-33 3
-2 130 -1 130 186 -3 c202 -3 216 0 204 51 -8 32 -16 34 -165 30 -69 -1 -144
-3 -167 -4 -23 0 -46 2 -51 5 -14 8 -12 256 2 257 6 1 91 0 188 -1 194 -2 198
-1 184 56 l-7 26 -187 -3 -187 -4 -1 143 c-1 96 3 142 10 143 6 1 93 0 193 -1
l182 -2 7 26 c13 53 -2 57 -196 55 -97 -1 -182 1 -188 5 -17 11 -16 170 1 185
8 6 81 12 192 13 151 3 179 5 188 19 6 9 7 24 4 33 -6 14 -31 16 -220 16 -152
0 -216 -3 -225 -12z"/>
</g>
</svg>
