<?xml version="1.0" standalone="no"?>
<!DOCTYPE svg PUBLIC "-//W3C//DTD SVG 20010904//EN"
 "http://www.w3.org/TR/2001/REC-SVG-20010904/DTD/svg10.dtd">
<svg version="1.0" xmlns="http://www.w3.org/2000/svg"
 width="81.000000pt" height="100.000000pt" viewBox="0 0 81.000000 100.000000"
 preserveAspectRatio="xMidYMid meet">
<metadata>
Created by potrace 1.16, written by Peter Selinger 2001-2019
</metadata>
<g transform="translate(0.000000,100.000000) scale(0.100000,-0.100000)"
fill="#000000" stroke="none">
<path d="M100 961 l-65 -6 -3 -449 c-1 -286 1 -453 8 -460 12 -12 215 -21 265
-12 30 6 36 11 33 29 -3 21 -7 22 -128 22 l-125 0 -3 82 -3 82 128 3 128 3 0
25 0 25 -125 5 -125 5 0 80 0 80 125 5 125 5 0 25 0 25 -125 0 -125 0 -3 92
-3 92 128 3 128 3 0 25 0 25 -125 5 -125 5 -3 57 c-4 69 -7 67 148 71 105 2
105 2 105 27 0 25 -1 25 -85 26 -47 0 -114 -2 -150 -5z"/>
<path d="M460 963 c-8 -3 -18 -11 -22 -17 -4 -6 -8 -212 -8 -457 l0 -446 83
-6 c140 -11 213 -9 227 8 10 12 10 18 0 31 -11 13 -31 14 -131 8 l-118 -7 -6
25 c-3 13 -5 51 -3 83 l3 60 127 3 c130 3 146 8 132 47 -5 11 -32 15 -132 17
l-127 3 0 80 0 80 128 3 128 3 -3 27 -3 27 -119 -4 c-92 -2 -120 0 -127 10 -5
8 -9 51 -9 97 l0 82 124 0 c129 0 154 8 140 43 -5 14 -27 17 -132 19 l-127 3
-3 39 c-2 22 -1 50 2 63 6 23 9 23 125 23 93 0 121 3 131 15 10 12 10 18 0 30
-10 12 -38 15 -139 14 -69 0 -133 -3 -141 -6z"/>
</g>
</svg>
