<?xml version="1.0" standalone="no"?>
<!DOCTYPE svg PUBLIC "-//W3C//DTD SVG 20010904//EN"
 "http://www.w3.org/TR/2001/REC-SVG-20010904/DTD/svg10.dtd">
<svg version="1.0" xmlns="http://www.w3.org/2000/svg"
 width="482.000000pt" height="590.000000pt" viewBox="0 0 482.000000 590.000000"
 preserveAspectRatio="xMidYMid meet">
<metadata>
Created by potrace 1.16, written by Peter Selinger 2001-2019
</metadata>
<g transform="translate(0.000000,590.000000) scale(0.500000,-0.500000)"
fill="#000000" stroke="none">
<path d="M201 1138 c-154 -1 -143 0 -154 -15 -9 -11 -10 -1062 -2 -1070 5 -5
47 -6 301 -6 58 0 56 -1 58 24 1 31 -4 34 -48 31 -17 -1 -55 -3 -85 -4 -36 -1
-57 -3 -62 -5 -24 -8 -112 -5 -114 4 -1 7 -2 194 0 198 3 9 6 9 150 7 172 -3
158 -6 158 30 0 23 -3 29 -14 31 -5 1 -14 2 -20 3 -10 2 -16 2 -26 0 -9 -2
-15 -2 -21 0 -6 1 -12 1 -17 0 -9 -3 -79 -3 -100 -1 -12 1 -19 1 -23 -1 -20
-7 -79 -3 -86 6 -4 3 -4 186 -2 194 3 8 2 8 150 7 l144 -2 6 7 c9 9 9 41 0 50
l-6 7 -144 -2 c-78 0 -144 0 -146 1 -7 5 -8 215 0 222 5 6 -10 6 164 3 130 -1
130 -1 135 3 8 9 9 42 1 53 -6 7 -94 9 -237 6 -75 -2 -69 -9 -69 75 0 63 1 74
8 78 5 2 103 7 184 9 124 2 118 1 118 31 0 31 25 28 -201 26z"/>
<path d="M659 1138 c-136 -1 -128 0 -139 -19 -5 -10 -5 -1061 1 -1067 4 -3 10
-4 177 -5 204 -2 185 -5 184 29 -1 28 -6 32 -39 28 -9 -1 -46 -3 -83 -5 -48
-2 -70 -4 -76 -6 -88 -30 -112 -7 -112 105 0 122 -22 105 136 103 176 -3 163
-3 168 3 26 25 0 66 -41 64 -34 -1 -58 -2 -88 -4 -32 -2 -38 -2 -54 1 -17 3
-20 3 -31 0 -24 -6 -77 -3 -87 5 -4 4 -4 191 0 197 3 5 19 5 185 2 127 -1 120
-3 120 32 0 36 10 34 -143 31 -167 -3 -156 -3 -161 2 -7 7 -6 214 0 220 5 5
97 5 247 1 59 -2 59 -2 59 31 0 39 15 36 -208 34 -85 -1 -92 -1 -97 3 -7 4 -8
136 -1 145 5 7 89 12 204 12 101 0 101 0 101 32 0 29 2 28 -55 28 -25 -1 -100
-1 -167 -2z"/>
</g>
</svg>
