<?xml version="1.0" standalone="no"?>
<!DOCTYPE svg PUBLIC "-//W3C//DTD SVG 20010904//EN"
 "http://www.w3.org/TR/2001/REC-SVG-20010904/DTD/svg10.dtd">
<svg version="1.0" xmlns="http://www.w3.org/2000/svg"
 width="38.000000pt" height="100.000000pt" viewBox="0 0 38.000000 100.000000"
 preserveAspectRatio="xMidYMid meet">
<metadata>
Created by potrace 1.16, written by Peter Selinger 2001-2019
</metadata>
<g transform="translate(0.000000,100.000000) scale(0.100000,-0.100000)"
fill="#000000" stroke="none">
<path d="M30 936 c0 -23 3 -23 122 -30 67 -4 126 -10 130 -12 13 -8 9 -99 -4
-112 -9 -9 -43 -10 -123 -6 -92 6 -112 4 -123 -8 -7 -9 -10 -23 -6 -31 5 -14
27 -17 132 -19 l127 -3 3 -60 c2 -33 0 -75 -3 -93 l-6 -33 -122 3 -122 3 -3
-27 -3 -27 128 -3 128 -3 0 -80 0 -80 -125 -3 c-128 -3 -148 -9 -129 -44 8
-15 27 -18 132 -20 l122 -3 3 -65 c4 -100 0 -102 -133 -91 -89 8 -113 7 -124
-4 -7 -7 -11 -21 -8 -29 5 -14 28 -16 150 -16 98 0 147 4 155 12 17 17 17 879
0 896 -8 8 -57 12 -155 12 l-143 0 0 -24z"/>
</g>
</svg>
