<?xml version="1.0" standalone="no"?>
<!DOCTYPE svg PUBLIC "-//W3C//DTD SVG 20010904//EN"
 "http://www.w3.org/TR/2001/REC-SVG-20010904/DTD/svg10.dtd">
<svg version="1.0" xmlns="http://www.w3.org/2000/svg"
 width="226.000000pt" height="590.000000pt" viewBox="0 0 226.000000 590.000000"
 preserveAspectRatio="xMidYMid meet">
<metadata>
Created by potrace 1.16, written by Peter Selinger 2001-2019
</metadata>
<g transform="translate(0.000000,590.000000) scale(0.500000,-0.500000)"
fill="#000000" stroke="none">
<path d="M46 1137 c-13 -7 -10 -49 3 -52 8 -2 40 -3 101 -4 148 -3 192 -6 196
-16 3 -8 3 -135 -1 -140 -4 -6 -16 -7 -135 -5 -179 2 -172 4 -172 -33 0 -35
-18 -33 183 -30 147 2 127 20 127 -113 0 -133 21 -115 -132 -113 -181 3 -168
3 -174 -8 -3 -7 -3 -36 1 -44 4 -11 5 -11 130 -9 171 3 166 3 171 -2 6 -6 6
-193 0 -199 -10 -9 -58 -11 -92 -3 -6 1 -13 1 -26 -2 -14 -2 -23 -2 -55 0 -21
1 -40 2 -43 2 -3 0 -10 0 -17 0 -7 0 -18 0 -25 1 -42 0 -48 -4 -48 -35 0 -37
-20 -33 189 -30 103 1 114 1 119 -5 4 -6 2 -199 -2 -204 -4 -4 -97 -5 -110 0
-6 2 -24 4 -60 5 -28 1 -64 3 -79 4 -56 4 -57 4 -57 -27 0 -30 -4 -28 64 -28
251 0 290 1 295 6 5 5 6 1056 0 1067 -7 13 -14 17 -34 17 -68 2 -313 2 -317 0z"/>
</g>
</svg>
