<?xml version="1.0" standalone="no"?>
<!DOCTYPE svg PUBLIC "-//W3C//DTD SVG 20010904//EN"
 "http://www.w3.org/TR/2001/REC-SVG-20010904/DTD/svg10.dtd">
<svg version="1.0" xmlns="http://www.w3.org/2000/svg"
 width="56.000000pt" height="148.000000pt" viewBox="0 0 56.000000 148.000000"
 preserveAspectRatio="xMidYMid meet">
<metadata>
Created by potrace 1.16, written by Peter Selinger 2001-2019
</metadata>
<g transform="translate(0.000000,148.000000) scale(0.100000,-0.100000)"
fill="#000000" stroke="none">
<path d="M48 1412 c-8 -9 -8 -20 0 -37 l12 -25 162 0 c90 0 173 -3 186 -6 21
-6 22 -11 22 -100 0 -68 -3 -94 -12 -95 -7 -1 -90 0 -183 1 -185 2 -200 -2
-193 -52 3 -23 3 -23 183 -25 99 -1 186 -2 193 -2 10 -1 12 -33 10 -143 l-3
-143 -185 0 -185 0 0 -35 0 -35 185 0 185 0 3 -124 c1 -68 -1 -128 -7 -134 -9
-9 -18 -9 -224 -4 -70 1 -132 0 -137 -3 -16 -10 -22 -57 -8 -66 7 -5 94 -9
193 -9 l180 0 3 -133 3 -134 -178 7 c-98 4 -182 8 -186 9 -18 2 -32 -33 -21
-51 10 -16 32 -18 219 -18 125 0 212 4 219 10 8 7 10 199 6 680 l-5 670 -213
5 c-166 4 -216 2 -224 -8z"/>
</g>
</svg>
