<?xml version="1.0" standalone="no"?>
<!DOCTYPE svg PUBLIC "-//W3C//DTD SVG 20010904//EN"
 "http://www.w3.org/TR/2001/REC-SVG-20010904/DTD/svg10.dtd">
<svg version="1.0" xmlns="http://www.w3.org/2000/svg"
 width="100.000000pt" height="64.000000pt" viewBox="0 0 100.000000 64.000000"
 preserveAspectRatio="xMidYMid meet">
<metadata>
Created by potrace 1.16, written by Peter Selinger 2001-2019
</metadata>
<g transform="translate(0.000000,64.000000) scale(0.100000,-0.100000)"
fill="#000000" stroke="none">
<path d="M30 335 c-9 -11 -7 -30 14 -92 14 -43 36 -112 49 -153 l22 -75 250
-2 c138 -1 329 -4 426 -8 147 -5 177 -4 182 8 11 29 11 317 0 328 -16 16 -29
4 -36 -28 -6 -29 -120 -195 -139 -202 -7 -2 -9 36 -7 115 l4 119 -25 0 -25 0
2 -130 c3 -119 2 -127 -11 -100 -15 30 -40 128 -51 198 -7 47 -41 53 -50 10
-11 -58 -38 -169 -47 -192 -13 -36 -24 -17 -48 84 -12 50 -26 100 -31 113 -14
35 -37 27 -44 -15 -20 -122 -23 -133 -36 -133 -7 0 -9 31 -7 83 3 82 3 82 -22
82 l-25 0 0 -145 0 -145 -27 -3 c-33 -4 -35 6 -8 58 11 22 20 51 20 66 0 35
-68 174 -85 174 -7 0 -30 -24 -52 -52 -33 -47 -38 -60 -38 -110 0 -43 5 -64
23 -87 12 -16 22 -35 22 -41 0 -12 -49 -13 -67 -2 -6 4 -26 63 -43 131 -17 69
-36 133 -41 143 -12 22 -32 23 -49 3z m277 -105 c24 -48 8 -140 -24 -140 -25
0 -54 62 -49 103 8 68 47 88 73 37z m636 -138 l-8 -47 -53 -3 c-38 -2 -52 1
-52 10 0 7 23 42 52 77 l52 65 9 -28 c5 -15 5 -47 0 -74z m-257 34 c20 -65 15
-86 -23 -86 -52 0 -57 11 -38 71 29 89 37 91 61 15z m-170 -23 c9 -49 0 -65
-38 -61 -28 3 -33 7 -31 29 1 14 9 43 18 65 15 37 17 38 31 20 7 -11 17 -34
20 -53z"/>
</g>
</svg>
