<?xml version="1.0" standalone="no"?>
<!DOCTYPE svg PUBLIC "-//W3C//DTD SVG 20010904//EN"
 "http://www.w3.org/TR/2001/REC-SVG-20010904/DTD/svg10.dtd">
<svg version="1.0" xmlns="http://www.w3.org/2000/svg"
 width="918.000000pt" height="590.000000pt" viewBox="0 0 918.000000 590.000000"
 preserveAspectRatio="xMidYMid meet">
<metadata>
Created by potrace 1.16, written by Peter Selinger 2001-2019
</metadata>
<g transform="translate(0.000000,590.000000) scale(0.500000,-0.500000)"
fill="#000000" stroke="none">
<path d="M63 631 c-15 -7 -21 -37 -11 -56 2 -4 5 -13 6 -20 1 -8 5 -18 10 -27
4 -9 8 -18 8 -20 0 -5 3 -10 13 -24 3 -4 5 -9 5 -11 0 -2 2 -8 4 -12 2 -4 5
-11 5 -15 1 -4 3 -11 5 -15 2 -4 4 -12 4 -17 0 -5 2 -12 4 -16 2 -4 4 -12 5
-18 0 -6 3 -15 5 -20 2 -4 4 -12 4 -17 0 -5 2 -13 4 -17 2 -4 4 -11 4 -15 0
-5 2 -12 3 -16 2 -4 5 -12 6 -17 1 -5 4 -12 6 -15 1 -3 3 -11 4 -17 0 -6 2
-14 4 -18 2 -4 4 -12 4 -18 1 -6 3 -13 4 -16 2 -2 4 -11 5 -18 1 -8 3 -16 5
-19 2 -3 4 -10 4 -16 1 -7 3 -15 5 -19 2 -5 4 -10 4 -12 0 -3 2 -8 4 -12 2 -4
4 -12 5 -18 1 -6 3 -15 5 -20 2 -5 5 -13 6 -18 6 -18 -11 -17 191 -14 172 2
184 2 194 -4 3 -1 116 -2 366 -2 304 -1 363 -1 369 -3 5 -3 24 -3 89 -4 45 0
123 -2 174 -3 125 -3 202 -2 206 3 4 3 4 17 5 260 1 146 2 275 4 301 3 59 2
60 -44 57 -23 -1 -25 -4 -23 -38 1 -28 0 -34 -8 -41 -2 -2 -5 -7 -8 -13 -2 -5
-6 -11 -8 -13 -2 -1 -6 -7 -8 -13 -3 -5 -10 -15 -16 -21 -6 -6 -11 -13 -12
-16 -1 -3 -7 -10 -13 -17 -6 -6 -12 -15 -13 -19 -2 -3 -8 -11 -13 -17 -5 -6
-11 -13 -13 -17 -1 -4 -8 -13 -15 -21 -7 -7 -12 -14 -12 -16 0 -1 -5 -8 -11
-15 -6 -7 -13 -16 -15 -21 -3 -4 -8 -12 -13 -17 -5 -5 -11 -14 -14 -19 -2 -6
-8 -13 -12 -17 -4 -4 -10 -11 -12 -17 -3 -5 -9 -14 -14 -20 -5 -5 -11 -12 -12
-16 -2 -4 -8 -13 -13 -19 -5 -6 -11 -15 -14 -19 -4 -9 -11 -15 -16 -15 -9 0
-9 5 -6 114 8 392 14 344 -38 344 -45 0 -56 -11 -40 -42 6 -11 6 -12 9 -187 2
-85 4 -179 4 -210 1 -54 1 -56 -2 -61 -6 -7 -12 -4 -15 7 -1 4 -4 12 -6 16 -2
5 -4 13 -4 18 0 5 -1 12 -3 15 -2 3 -4 10 -5 15 -2 7 -3 12 -11 37 -2 5 -4 15
-5 21 -1 7 -3 15 -5 19 -1 3 -3 9 -4 13 -1 4 -3 12 -5 16 -2 4 -4 10 -4 13 0
2 -2 8 -4 12 -2 4 -4 12 -4 16 0 5 -2 13 -4 17 -2 4 -4 12 -5 16 -1 4 -3 10
-4 13 -1 3 -3 9 -4 13 -1 4 -3 12 -5 16 -2 4 -4 12 -4 17 0 5 -2 13 -4 17 -2
4 -4 10 -4 13 0 2 -1 7 -3 10 -2 3 -4 11 -5 16 -1 6 -5 17 -9 25 -8 15 -8 15
-6 55 2 55 2 54 -40 54 -40 0 -40 1 -38 -54 2 -42 1 -44 -9 -55 -4 -4 -5 -7
-6 -24 -1 -11 -2 -20 -5 -24 -1 -4 -3 -9 -3 -11 0 -2 -1 -7 -3 -12 -2 -4 -5
-11 -6 -17 -3 -10 -7 -25 -11 -36 -1 -3 -3 -10 -4 -14 -2 -4 -4 -12 -6 -17 -2
-5 -4 -13 -6 -17 -1 -4 -2 -11 -4 -14 -7 -21 -9 -27 -11 -36 -3 -10 -8 -26
-11 -36 -1 -3 -4 -11 -6 -18 -2 -7 -4 -15 -6 -18 -1 -3 -3 -10 -5 -16 -2 -5
-4 -14 -6 -19 -5 -21 -23 -5 -26 24 0 6 -2 14 -4 17 -1 2 -3 8 -4 12 -1 4 -3
10 -4 13 -1 3 -3 10 -5 15 -1 6 -3 13 -5 16 -2 3 -3 10 -3 16 0 5 -2 12 -4 17
-2 4 -4 11 -5 15 -1 4 -3 10 -4 13 -2 3 -3 9 -3 13 0 5 -2 12 -3 16 -2 4 -5
13 -6 18 -1 6 -4 13 -6 17 -2 5 -3 10 -3 12 0 2 -2 8 -4 12 -2 5 -4 12 -4 18
0 6 -2 13 -4 18 -2 4 -4 10 -4 12 0 3 -2 9 -4 14 -2 5 -4 10 -4 12 0 3 -4 13
-8 23 -4 10 -8 21 -9 25 -1 4 -3 9 -4 12 -2 4 -3 13 -3 26 0 30 0 30 -38 30
-41 0 -52 -19 -33 -58 9 -19 6 -30 -7 -34 -11 -3 -12 -6 -13 -19 -1 -7 -3 -14
-4 -16 -1 -2 -2 -14 -3 -27 -1 -22 -1 -22 -8 -29 -6 -6 -8 -8 -9 -18 0 -6 -2
-13 -4 -16 -1 -2 -2 -15 -3 -30 -1 -27 -1 -27 -9 -35 -8 -8 -8 -8 -9 -27 -1
-24 -10 -34 -17 -19 -5 9 -3 87 2 97 6 10 12 150 7 163 -1 5 -1 8 1 14 7 19 4
49 -4 52 -11 4 -87 2 -91 -2 -6 -6 -5 -43 2 -54 6 -11 10 -106 4 -119 -3 -7
-3 -19 -2 -111 0 -104 0 -104 -4 -113 -5 -10 -5 -11 -5 -70 0 -33 0 -62 -1
-65 -1 -12 -17 -16 -34 -8 -8 3 -13 4 -36 4 -29 0 -39 2 -42 8 -4 8 -1 23 7
25 8 3 25 21 26 29 2 10 4 14 14 24 10 10 20 28 22 39 1 5 3 12 5 16 2 4 4 10
4 13 0 2 2 7 4 12 10 21 9 121 -2 147 -4 10 -8 21 -9 25 -1 4 -4 11 -8 16 -4
5 -8 12 -8 16 -2 13 -3 14 -21 33 -10 10 -20 23 -23 28 -2 6 -14 20 -25 32
-20 21 -20 21 -19 30 7 35 -1 48 -33 49 -34 1 -43 -6 -44 -37 l0 -18 -41 -41
c-26 -26 -42 -44 -44 -48 -2 -5 -6 -11 -9 -15 -9 -10 -18 -30 -18 -40 0 -4 -2
-12 -4 -17 -6 -13 -6 -123 0 -134 2 -4 4 -13 5 -19 1 -7 3 -15 5 -19 2 -5 4
-10 4 -12 0 -12 22 -47 43 -67 12 -12 21 -22 21 -24 0 -2 7 -11 16 -20 29 -30
29 -30 -71 -28 -87 2 -86 1 -88 14 -1 5 -3 11 -5 15 -2 5 -4 12 -4 17 0 5 -2
13 -4 17 -2 4 -4 10 -4 12 0 3 -2 9 -4 13 -2 5 -4 13 -5 20 -1 6 -3 15 -5 20
-2 4 -4 12 -4 17 0 4 -2 11 -4 16 -2 4 -4 13 -5 19 0 7 -2 15 -4 17 -1 3 -3
11 -4 17 -1 7 -3 16 -5 20 -2 4 -4 10 -4 13 0 2 -2 7 -4 12 -2 4 -4 12 -5 18
0 6 -2 14 -4 18 -2 3 -4 11 -4 17 -1 7 -3 15 -5 19 -2 5 -4 12 -4 17 0 6 -2
13 -4 18 -2 4 -4 11 -4 16 0 6 -2 14 -4 18 -2 4 -4 12 -5 16 -1 4 -3 10 -4 13
-2 2 -4 10 -5 17 0 8 -3 17 -8 28 -4 9 -8 19 -9 24 0 4 -4 11 -8 16 -3 4 -8
11 -9 14 -6 11 -56 17 -73 8z m473 -129 c18 -18 30 -36 30 -47 0 -2 4 -12 9
-21 7 -14 9 -20 9 -32 1 -10 3 -18 6 -23 3 -6 4 -11 4 -26 0 -15 1 -19 4 -25
7 -11 8 -30 1 -45 -3 -7 -5 -15 -5 -17 0 -2 -6 -14 -12 -28 -7 -14 -13 -28
-13 -32 -2 -15 -15 -35 -25 -38 -33 -12 -33 -12 -45 -2 -5 5 -11 13 -13 18 -2
5 -10 15 -17 22 -13 13 -35 52 -35 62 0 3 -2 9 -4 13 -2 5 -4 14 -5 20 -1 7
-3 15 -4 18 -13 23 1 93 22 117 4 5 8 11 10 15 4 9 42 48 51 52 4 1 9 4 11 7
5 6 6 5 21 -8z m1202 -125 c3 -10 1 -283 -2 -286 -1 -2 -6 -4 -11 -5 -4 -1
-11 -4 -14 -6 -8 -4 -174 -7 -184 -3 -18 7 -19 21 -3 38 6 6 13 16 16 20 2 4
9 13 15 19 6 5 11 12 11 13 0 2 5 9 12 16 6 6 13 15 15 19 2 4 8 12 14 18 6 7
12 15 14 19 2 4 8 11 13 17 6 6 12 15 14 19 2 4 7 12 12 16 5 4 11 13 14 19 3
6 9 15 14 19 5 4 10 12 12 16 2 5 8 12 13 17 5 5 11 12 13 16 5 7 10 7 12 -1z
m-516 -18 c1 -1 3 -5 3 -9 1 -4 3 -9 4 -12 2 -2 5 -9 6 -15 2 -5 4 -14 6 -18
1 -4 3 -11 3 -16 0 -4 1 -10 3 -13 2 -4 5 -11 6 -16 3 -11 9 -27 13 -36 1 -4
3 -12 4 -19 1 -7 3 -16 6 -22 4 -11 7 -19 11 -33 2 -5 5 -13 7 -17 2 -5 4 -12
4 -16 0 -4 1 -10 3 -15 6 -13 1 -18 -14 -19 -54 -2 -157 1 -161 5 -6 6 -6 28
0 37 2 3 4 9 5 14 1 4 3 11 5 15 2 4 4 9 4 11 0 2 2 7 4 11 2 4 4 10 5 14 1 4
3 11 5 15 2 4 4 12 6 16 2 10 7 25 12 37 5 14 10 28 12 37 1 4 4 12 6 17 2 6
4 11 4 13 0 2 2 7 4 11 2 4 4 10 5 14 2 12 13 17 19 9z m-312 -36 c5 -6 8 -17
8 -40 0 -17 0 -17 7 -22 7 -6 8 -8 10 -20 2 -8 4 -18 6 -22 2 -5 3 -15 3 -29
0 -21 0 -21 8 -28 9 -7 9 -7 10 -26 0 -13 2 -22 4 -29 10 -23 8 -23 -72 -24
-85 -1 -90 1 -80 24 2 5 4 11 4 13 0 2 2 8 5 14 3 6 5 12 5 14 0 2 2 7 4 12 2
4 4 10 5 14 1 4 5 14 9 23 4 9 8 20 9 24 2 4 4 11 5 14 3 11 8 26 11 37 2 6 5
13 6 15 2 2 3 6 3 9 0 5 8 24 12 29 4 5 13 3 18 -2z"/>
</g>
</svg>
