<?xml version="1.0" standalone="no"?>
<!DOCTYPE svg PUBLIC "-//W3C//DTD SVG 20010904//EN"
 "http://www.w3.org/TR/2001/REC-SVG-20010904/DTD/svg10.dtd">
<svg version="1.0" xmlns="http://www.w3.org/2000/svg"
 width="230.000000pt" height="148.000000pt" viewBox="0 0 230.000000 148.000000"
 preserveAspectRatio="xMidYMid meet">
<metadata>
Created by potrace 1.16, written by Peter Selinger 2001-2019
</metadata>
<g transform="translate(0.000000,148.000000) scale(0.100000,-0.100000)"
fill="#000000" stroke="none">
<path d="M67 776 c-17 -17 -6 -70 32 -151 13 -27 41 -115 62 -195 21 -80 53
-201 72 -270 l33 -125 229 0 c127 0 235 -3 241 -7 6 -4 351 -8 765 -8 l754 -1
1 386 1 386 -36 -3 c-35 -3 -36 -5 -41 -48 -7 -55 -3 -48 -112 -195 -182 -246
-228 -310 -228 -322 0 -7 -7 -13 -15 -13 -12 0 -14 41 -12 288 l2 287 -48 3
c-53 3 -68 -12 -49 -51 6 -13 13 -138 16 -305 4 -241 3 -282 -10 -282 -8 0
-14 9 -14 19 0 11 -4 23 -10 26 -5 3 -10 18 -10 32 0 15 -4 40 -9 57 -6 17
-17 58 -26 91 -20 69 -44 151 -75 249 -14 43 -20 83 -17 106 7 51 -3 62 -49
58 l-39 -3 -3 -60 c-2 -33 -7 -64 -13 -69 -5 -6 -9 -19 -9 -30 0 -20 -85 -298
-101 -328 -5 -10 -9 -29 -9 -42 0 -54 -40 -27 -46 31 -1 13 -7 37 -13 55 -5
18 -14 51 -20 73 -5 22 -31 106 -56 186 -25 80 -45 150 -44 155 5 29 -3 35
-43 32 -38 -3 -43 -6 -46 -30 -2 -15 2 -37 9 -49 9 -18 9 -25 -3 -33 -18 -14
-42 -72 -34 -84 3 -5 -1 -18 -9 -28 -8 -11 -15 -42 -15 -71 0 -28 -4 -55 -10
-58 -5 -3 -10 -19 -10 -36 0 -23 -4 -29 -21 -29 -21 0 -21 3 -14 88 13 164 21
307 17 320 -3 8 -25 12 -62 12 -65 0 -77 -11 -59 -57 6 -15 11 -59 12 -98 3
-119 -13 -519 -20 -526 -5 -3 -36 -4 -71 -1 -70 5 -89 23 -56 51 64 52 103
159 97 262 -6 90 -37 163 -100 236 -42 48 -53 68 -48 83 9 28 -11 50 -44 50
-33 0 -51 -17 -51 -48 0 -17 -18 -42 -54 -76 -82 -79 -91 -102 -91 -231 0
-132 17 -178 94 -257 28 -28 48 -55 45 -60 -7 -11 -211 -11 -218 0 -6 10 -74
266 -118 442 -17 69 -42 149 -55 178 -23 50 -26 52 -63 52 -21 0 -45 -6 -53
-14z m645 -223 c23 -67 41 -171 33 -202 -3 -14 -12 -39 -19 -56 -8 -16 -18
-41 -24 -55 -5 -14 -22 -32 -37 -40 -26 -14 -28 -13 -52 15 -44 54 -70 99 -81
147 -26 102 -11 158 64 238 l47 51 26 -25 c14 -14 34 -47 43 -73z m1463 -259
c-2 -102 -6 -189 -10 -192 -4 -4 -67 -8 -141 -10 -133 -4 -134 -3 -134 19 0
12 6 27 14 33 20 16 162 200 214 278 24 37 48 65 53 62 4 -2 7 -88 4 -190z
m-614 50 c15 -60 34 -127 42 -149 7 -22 17 -52 21 -67 l6 -28 -115 0 c-94 0
-115 3 -115 15 0 13 80 269 101 323 16 42 32 18 60 -94z m-417 19 c-4 -15 0
-31 11 -43 9 -10 14 -23 11 -29 -4 -5 -2 -12 4 -16 5 -3 10 -21 10 -39 0 -17
4 -36 9 -41 5 -6 11 -29 15 -53 l6 -42 -94 0 c-100 0 -115 7 -99 43 31 66 65
164 78 222 4 16 12 36 18 43 16 20 38 -14 31 -45z"/>
</g>
</svg>
