<?xml version="1.0" standalone="no"?>
<!DOCTYPE svg PUBLIC "-//W3C//DTD SVG 20010904//EN"
 "http://www.w3.org/TR/2001/REC-SVG-20010904/DTD/svg10.dtd">
<svg version="1.0" xmlns="http://www.w3.org/2000/svg"
 width="154.000000pt" height="148.000000pt" viewBox="0 0 154.000000 148.000000"
 preserveAspectRatio="xMidYMid meet">
<metadata>
Created by potrace 1.16, written by Peter Selinger 2001-2019
</metadata>
<g transform="translate(0.000000,148.000000) scale(0.100000,-0.100000)"
fill="#000000" stroke="none">
<path d="M1151 1081 c-20 -13 -6 -56 35 -113 20 -26 33 -52 29 -58 -7 -11 -85
-53 -89 -48 -2 2 -23 41 -49 88 -50 93 -87 136 -111 127 -30 -12 -17 -61 39
-150 83 -133 80 -122 37 -148 -20 -13 -40 -25 -44 -27 -8 -4 -38 60 -104 217
-29 70 -45 96 -63 103 -30 11 -51 4 -51 -18 0 -17 10 -39 112 -255 49 -105 50
-107 33 -133 -10 -14 -22 -26 -29 -26 -9 0 -134 258 -180 372 -14 35 -66 75
-80 61 -17 -17 -1 -76 45 -172 28 -58 78 -162 111 -230 56 -114 60 -126 52
-165 l-9 -41 -373 -3 -372 -2 0 -186 1 -185 25 -10 c14 -5 30 -7 35 -3 5 3 9
77 9 165 l0 160 148 -3 147 -3 9 -153 9 -153 31 3 31 3 0 150 0 150 110 0 110
0 3 -151 c2 -117 6 -155 17 -164 16 -13 51 -5 57 13 2 7 1 75 -2 152 -3 77 -3
144 1 148 3 4 55 6 115 5 l109 -3 0 -70 c1 -210 4 -243 25 -250 12 -4 28 -1
37 6 13 11 15 36 12 164 l-4 150 120 0 120 0 3 -152 c2 -142 4 -153 23 -164
46 -24 49 -13 49 191 l0 190 -260 0 c-217 0 -262 2 -266 14 -3 8 8 44 26 80
22 47 46 79 87 113 31 26 79 69 107 94 28 26 71 57 96 69 60 30 80 49 80 75 0
39 -110 186 -139 185 -3 0 -12 -4 -20 -9z"/>
</g>
</svg>
