<?xml version="1.0" standalone="no"?>
<!DOCTYPE svg PUBLIC "-//W3C//DTD SVG 20010904//EN"
 "http://www.w3.org/TR/2001/REC-SVG-20010904/DTD/svg10.dtd">
<svg version="1.0" xmlns="http://www.w3.org/2000/svg"
 width="616.000000pt" height="590.000000pt" viewBox="0 0 616.000000 590.000000"
 preserveAspectRatio="xMidYMid meet">
<metadata>
Created by potrace 1.16, written by Peter Selinger 2001-2019
</metadata>
<g transform="translate(0.000000,590.000000) scale(0.500000,-0.500000)"
fill="#000000" stroke="none">
<path d="M921 865 c-6 -6 -7 -20 -1 -34 2 -6 4 -13 5 -17 1 -7 22 -39 34 -54
22 -25 20 -29 -11 -45 -8 -4 -19 -11 -25 -14 -12 -9 -16 -9 -21 -1 -1 4 -8 16
-15 27 -7 11 -15 26 -19 33 -4 7 -10 18 -15 25 -4 6 -9 17 -12 22 -8 18 -22
36 -30 41 -5 3 -11 7 -15 9 -32 22 -44 -39 -15 -77 3 -5 11 -17 18 -28 7 -11
16 -26 20 -33 5 -7 11 -17 13 -21 3 -5 7 -12 9 -15 20 -26 21 -46 4 -50 -7 -2
-23 -13 -32 -22 -11 -12 -20 -9 -25 8 -1 4 -9 20 -16 35 -8 15 -15 32 -17 37
-1 6 -6 18 -11 27 -5 9 -11 24 -14 33 -3 9 -11 26 -17 39 -6 13 -12 28 -14 34
-5 19 -11 27 -21 30 -5 1 -13 4 -18 5 -35 11 -45 -13 -22 -56 5 -11 10 -21 10
-22 0 -1 7 -15 15 -31 15 -30 23 -48 32 -70 2 -6 6 -14 8 -17 2 -3 6 -10 7
-14 1 -4 7 -16 11 -26 5 -10 9 -19 9 -20 0 -1 3 -7 6 -12 16 -24 15 -40 -2
-64 -14 -19 -22 -16 -31 11 -2 6 -15 34 -29 63 -14 29 -27 57 -29 62 -2 6 -14
32 -27 58 -26 56 -30 64 -30 68 0 13 -26 58 -35 60 -2 1 -10 4 -16 8 -22 10
-32 -1 -31 -35 0 -22 -4 -13 57 -135 17 -33 32 -64 33 -68 1 -4 11 -24 21 -44
36 -70 39 -76 39 -79 0 -2 6 -15 13 -29 16 -31 18 -45 8 -57 -6 -6 -9 -16 -9
-27 0 -13 10 -13 -184 -11 -326 3 -401 3 -407 -3 -6 -5 -8 -160 -3 -175 1 -2
2 -30 2 -61 0 -71 -1 -68 30 -68 31 0 29 -13 28 128 -1 144 -20 124 116 125
136 0 119 9 119 -59 0 -40 1 -55 3 -58 1 -4 2 -20 2 -63 0 -69 -1 -66 25 -67
36 0 34 -10 31 126 -3 138 -12 121 61 121 135 2 118 10 116 -59 -1 -45 0 -54
2 -62 3 -8 3 -17 2 -63 -1 -69 -1 -70 30 -70 32 0 30 -9 27 131 -2 112 -2 117
1 121 5 5 161 6 171 1 6 -2 8 -45 9 -180 0 -74 0 -73 29 -73 31 0 30 -4 28
101 -4 177 -18 153 94 153 111 -1 94 29 100 -184 1 -72 0 -69 26 -70 17 0 27
2 30 8 5 9 1 292 -4 297 -6 6 -32 6 -258 3 -178 -3 -170 -6 -149 48 4 11 9 24
11 29 6 16 9 22 22 36 7 7 12 14 12 16 0 3 42 45 50 50 4 2 12 8 18 12 5 5 11
9 12 9 1 0 16 13 33 30 35 34 46 42 89 63 17 8 35 18 41 23 5 4 11 8 11 8 24
0 7 60 -29 105 -4 4 -11 14 -16 22 -26 40 -61 59 -78 42z"/>
</g>
</svg>
