<?xml version="1.0" standalone="no"?>
<!DOCTYPE svg PUBLIC "-//W3C//DTD SVG 20010904//EN"
 "http://www.w3.org/TR/2001/REC-SVG-20010904/DTD/svg10.dtd">
<svg version="1.0" xmlns="http://www.w3.org/2000/svg"
 width="63.000000pt" height="100.000000pt" viewBox="0 0 63.000000 100.000000"
 preserveAspectRatio="xMidYMid meet">
<metadata>
Created by potrace 1.16, written by Peter Selinger 2001-2019
</metadata>
<g transform="translate(0.000000,100.000000) scale(0.100000,-0.100000)"
fill="#000000" stroke="none">
<path d="M424 925 c-3 -8 4 -26 15 -41 23 -30 27 -64 9 -82 -19 -19 -26 -15
-62 41 -41 63 -61 81 -81 73 -33 -12 -27 -36 22 -93 27 -32 53 -64 57 -71 9
-15 -39 -72 -60 -72 -7 0 -42 40 -79 90 -69 93 -126 150 -149 150 -8 0 -19 -7
-26 -16 -11 -13 -5 -24 46 -77 33 -34 87 -96 120 -137 l59 -75 5 -290 5 -290
25 0 25 0 3 294 2 293 54 62 c82 94 176 222 176 239 0 18 -33 18 -65 1 -32
-17 -35 -17 -53 -1 -23 21 -41 22 -48 2z"/>
</g>
</svg>
