<?xml version="1.0" standalone="no"?>
<!DOCTYPE svg PUBLIC "-//W3C//DTD SVG 20010904//EN"
 "http://www.w3.org/TR/2001/REC-SVG-20010904/DTD/svg10.dtd">
<svg version="1.0" xmlns="http://www.w3.org/2000/svg"
 width="364.000000pt" height="590.000000pt" viewBox="0 0 364.000000 590.000000"
 preserveAspectRatio="xMidYMid meet">
<metadata>
Created by potrace 1.16, written by Peter Selinger 2001-2019
</metadata>
<g transform="translate(0.000000,590.000000) scale(0.500000,-0.500000)"
fill="#000000" stroke="none">
<path d="M507 1098 c-8 -8 -14 -18 -12 -23 3 -7 27 -44 36 -54 15 -17 18 -29
11 -37 -2 -3 -7 -12 -12 -21 -19 -36 -40 -40 -54 -10 -2 4 -10 15 -18 24 -8 9
-16 19 -18 23 -2 4 -7 11 -12 17 -4 6 -9 14 -11 21 -10 38 -49 52 -74 27 -16
-17 -14 -28 10 -50 7 -7 16 -16 19 -22 4 -5 12 -15 18 -22 6 -7 13 -16 16 -20
2 -5 5 -10 7 -11 2 -2 8 -9 12 -16 5 -7 15 -21 21 -30 15 -22 18 -15 -26 -62
-35 -37 -44 -44 -50 -41 -2 1 -29 40 -39 57 -4 6 -16 20 -26 32 -11 11 -23 27
-28 34 -5 7 -13 17 -17 22 -5 6 -9 13 -10 18 -4 18 -40 59 -57 67 -8 4 -16 10
-37 34 -38 41 -40 42 -64 17 -24 -23 -4 -58 54 -98 12 -8 18 -14 22 -22 2 -3
12 -15 22 -26 10 -11 21 -24 23 -27 2 -4 9 -14 17 -22 7 -8 17 -19 21 -25 13
-19 26 -37 35 -48 4 -6 8 -12 8 -14 0 -3 10 -15 28 -33 l28 -29 0 -335 c0
-185 0 -337 1 -339 5 -13 65 -11 68 3 1 2 0 153 0 334 -2 312 -2 331 1 340 2
6 4 12 4 14 0 6 6 15 15 21 5 3 11 10 14 15 7 10 59 64 68 69 5 3 8 7 10 14 3
6 8 13 15 20 10 9 12 13 15 24 3 10 5 13 14 20 6 6 11 13 15 20 3 6 9 16 15
23 5 6 10 13 11 15 2 3 7 10 13 17 31 37 55 89 45 98 -17 16 -67 -2 -83 -30
-9 -15 -20 -11 -33 12 -13 22 -35 29 -51 15z"/>
</g>
</svg>
