<?xml version="1.0" standalone="no"?>
<!DOCTYPE svg PUBLIC "-//W3C//DTD SVG 20010904//EN"
 "http://www.w3.org/TR/2001/REC-SVG-20010904/DTD/svg10.dtd">
<svg version="1.0" xmlns="http://www.w3.org/2000/svg"
 width="92.000000pt" height="148.000000pt" viewBox="0 0 92.000000 148.000000"
 preserveAspectRatio="xMidYMid meet">
<metadata>
Created by potrace 1.16, written by Peter Selinger 2001-2019
</metadata>
<g transform="translate(0.000000,148.000000) scale(0.100000,-0.100000)"
fill="#000000" stroke="none">
<path d="M631 1361 c-9 -15 -3 -28 26 -67 l36 -47 -19 -35 c-26 -48 -52 -63
-68 -38 -6 10 -27 39 -46 65 -20 25 -42 58 -49 73 -19 38 -60 46 -82 16 -17
-22 -17 -24 10 -53 43 -46 141 -173 141 -182 0 -10 -102 -113 -111 -113 -4 0
-19 19 -34 43 -16 23 -50 68 -77 100 -26 32 -48 63 -48 69 0 12 -159 168 -171
168 -4 0 -17 -12 -29 -27 l-21 -27 64 -61 c64 -59 135 -142 191 -220 16 -22
44 -56 62 -75 l34 -36 2 -429 3 -430 35 0 35 0 5 443 c4 387 7 445 21 455 25
19 159 169 159 179 0 5 22 36 49 71 64 82 112 158 105 168 -3 5 -20 9 -39 9
-26 0 -39 -7 -59 -32 l-26 -33 -28 33 c-30 36 -56 41 -71 13z"/>
</g>
</svg>
