<?xml version="1.0" standalone="no"?>
<!DOCTYPE svg PUBLIC "-//W3C//DTD SVG 20010904//EN"
 "http://www.w3.org/TR/2001/REC-SVG-20010904/DTD/svg10.dtd">
<svg version="1.0" xmlns="http://www.w3.org/2000/svg"
 width="49.000000pt" height="100.000000pt" viewBox="0 0 49.000000 100.000000"
 preserveAspectRatio="xMidYMid meet">
<metadata>
Created by potrace 1.16, written by Peter Selinger 2001-2019
</metadata>
<g transform="translate(0.000000,100.000000) scale(0.100000,-0.100000)"
fill="#000000" stroke="none">
<path d="M211 938 c-5 -13 -15 -38 -21 -55 -7 -18 -16 -33 -20 -33 -13 0 -27
24 -34 57 -8 36 -29 48 -47 27 -27 -32 -6 -71 155 -283 7 -9 13 -126 16 -315
5 -293 6 -301 25 -301 19 0 20 8 25 300 l5 300 46 65 c65 91 89 142 89 190 0
34 -3 41 -17 38 -12 -2 -25 -25 -39 -65 -23 -65 -50 -114 -84 -150 -47 -51
-65 -9 -22 50 51 72 68 168 30 175 -13 2 -19 -9 -27 -50 -13 -63 -44 -118 -66
-118 -27 0 -27 27 -1 77 27 49 31 69 20 97 -9 23 -23 20 -33 -6z"/>
</g>
</svg>
