<?xml version="1.0" standalone="no"?>
<!DOCTYPE svg PUBLIC "-//W3C//DTD SVG 20010904//EN"
 "http://www.w3.org/TR/2001/REC-SVG-20010904/DTD/svg10.dtd">
<svg version="1.0" xmlns="http://www.w3.org/2000/svg"
 width="286.000000pt" height="590.000000pt" viewBox="0 0 286.000000 590.000000"
 preserveAspectRatio="xMidYMid meet">
<metadata>
Created by potrace 1.16, written by Peter Selinger 2001-2019
</metadata>
<g transform="translate(0.000000,590.000000) scale(0.500000,-0.500000)"
fill="#000000" stroke="none">
<path d="M253 1118 c-5 -5 -13 -30 -13 -40 0 -18 -37 -79 -48 -78 -12 2 -36
53 -36 78 0 19 -10 32 -25 32 -52 0 -35 -91 32 -169 6 -7 15 -18 20 -26 5 -8
17 -24 28 -37 10 -12 23 -30 29 -40 6 -9 14 -20 17 -24 4 -4 13 -16 20 -27 8
-11 17 -23 21 -28 9 -10 14 -23 14 -35 0 -5 0 -158 -1 -340 -2 -381 -5 -338
20 -340 32 -1 33 1 32 85 -1 94 -2 564 0 567 0 1 2 11 4 23 4 27 7 37 16 54 6
13 11 19 34 49 4 5 10 15 14 22 4 7 10 17 13 22 28 39 35 51 48 74 8 15 14 28
14 30 0 1 3 9 6 18 7 16 9 33 11 71 3 55 -46 46 -50 -9 -1 -6 -3 -17 -6 -24
-2 -7 -6 -19 -8 -27 -2 -8 -8 -24 -13 -36 -6 -12 -12 -26 -14 -30 -2 -5 -14
-21 -26 -37 -13 -16 -26 -34 -30 -40 -35 -55 -33 -54 -59 -24 -21 23 -21 24
-4 39 6 7 15 16 18 21 4 5 12 15 18 23 11 14 31 56 35 72 1 6 3 19 6 29 13 65
12 75 -6 84 -22 11 -40 -8 -35 -38 5 -35 -16 -84 -56 -129 -7 -8 -14 -17 -17
-20 -7 -12 -11 -11 -27 6 -23 24 -23 29 -2 53 32 36 54 125 36 145 -7 7 -22 7
-30 1z"/>
</g>
</svg>
