<?xml version="1.0" standalone="no"?>
<!DOCTYPE svg PUBLIC "-//W3C//DTD SVG 20010904//EN"
 "http://www.w3.org/TR/2001/REC-SVG-20010904/DTD/svg10.dtd">
<svg version="1.0" xmlns="http://www.w3.org/2000/svg"
 width="72.000000pt" height="148.000000pt" viewBox="0 0 72.000000 148.000000"
 preserveAspectRatio="xMidYMid meet">
<metadata>
Created by potrace 1.16, written by Peter Selinger 2001-2019
</metadata>
<g transform="translate(0.000000,148.000000) scale(0.100000,-0.100000)"
fill="#000000" stroke="none">
<path d="M300 1353 c-6 -27 -21 -63 -32 -81 -16 -27 -23 -31 -35 -21 -21 18
-43 64 -43 92 0 29 -24 52 -45 43 -18 -7 -21 -87 -4 -119 7 -12 37 -55 68 -95
31 -41 65 -86 75 -101 11 -14 39 -52 63 -84 l43 -57 0 -441 0 -440 28 3 27 3
5 440 c5 418 6 442 25 471 11 17 44 66 74 109 87 126 130 245 101 280 -29 35
-47 11 -70 -90 -6 -28 -21 -67 -33 -87 -44 -74 -112 -167 -123 -168 -13 0 -54
42 -54 56 0 6 12 21 26 35 40 37 74 102 90 171 17 73 12 108 -16 108 -25 0
-34 -16 -37 -73 -2 -26 -8 -58 -14 -70 -20 -37 -80 -107 -92 -107 -7 0 -20 12
-31 26 -18 25 -18 26 11 67 40 58 53 91 53 137 0 35 -3 40 -24 40 -20 0 -26
-7 -36 -47z"/>
</g>
</svg>
