<?xml version="1.0" standalone="no"?>
<!DOCTYPE svg PUBLIC "-//W3C//DTD SVG 20010904//EN"
 "http://www.w3.org/TR/2001/REC-SVG-20010904/DTD/svg10.dtd">
<svg version="1.0" xmlns="http://www.w3.org/2000/svg"
 width="47.000000pt" height="100.000000pt" viewBox="0 0 47.000000 100.000000"
 preserveAspectRatio="xMidYMid meet">
<metadata>
Created by potrace 1.16, written by Peter Selinger 2001-2019
</metadata>
<g transform="translate(0.000000,100.000000) scale(0.100000,-0.100000)"
fill="#000000" stroke="none">
<path d="M257 963 c-18 -17 -2 -44 48 -88 57 -49 67 -75 42 -110 -21 -28 -56
-12 -102 46 -55 70 -65 79 -80 79 -43 0 -14 -68 60 -140 19 -19 35 -41 35 -50
0 -15 -68 -90 -81 -90 -4 0 -27 36 -53 79 -55 94 -70 109 -90 91 -11 -8 -12
-18 -6 -34 9 -26 64 -110 110 -170 l30 -39 0 -248 c0 -233 1 -248 19 -254 47
-15 47 -12 43 269 l-4 263 89 94 c92 96 113 125 113 154 0 9 -30 48 -67 86
-61 63 -89 80 -106 62z"/>
</g>
</svg>
