<?xml version="1.0" standalone="no"?>
<!DOCTYPE svg PUBLIC "-//W3C//DTD SVG 20010904//EN"
 "http://www.w3.org/TR/2001/REC-SVG-20010904/DTD/svg10.dtd">
<svg version="1.0" xmlns="http://www.w3.org/2000/svg"
 width="70.000000pt" height="148.000000pt" viewBox="0 0 70.000000 148.000000"
 preserveAspectRatio="xMidYMid meet">
<metadata>
Created by potrace 1.16, written by Peter Selinger 2001-2019
</metadata>
<g transform="translate(0.000000,148.000000) scale(0.100000,-0.100000)"
fill="#000000" stroke="none">
<path d="M390 1420 c-19 -12 -2 -65 25 -80 33 -17 106 -88 128 -123 20 -31 19
-34 -37 -94 -16 -18 -35 -33 -41 -33 -13 0 -145 132 -145 146 0 13 -63 74 -76
74 -6 0 -16 -10 -21 -23 -10 -21 -4 -31 46 -90 113 -135 132 -160 129 -176 -2
-9 -31 -43 -66 -75 l-62 -59 -25 23 c-14 13 -25 32 -25 42 0 10 -7 21 -15 24
-8 4 -15 12 -15 20 0 8 -8 22 -17 32 -10 10 -25 31 -33 47 -26 52 -53 85 -71
85 -40 0 -30 -61 22 -133 19 -25 48 -65 64 -88 17 -23 44 -61 62 -84 l32 -43
7 -374 c5 -253 10 -375 18 -380 14 -10 64 -10 69 0 3 4 1 137 -4 297 -5 160
-9 333 -8 384 l1 95 76 88 c42 48 79 88 82 88 13 0 90 74 90 87 0 8 11 26 25
41 38 40 42 70 14 97 -13 12 -58 58 -100 102 -74 78 -105 98 -129 83z"/>
</g>
</svg>
