<?xml version="1.0" standalone="no"?>
<!DOCTYPE svg PUBLIC "-//W3C//DTD SVG 20010904//EN"
 "http://www.w3.org/TR/2001/REC-SVG-20010904/DTD/svg10.dtd">
<svg version="1.0" xmlns="http://www.w3.org/2000/svg"
 width="282.000000pt" height="590.000000pt" viewBox="0 0 282.000000 590.000000"
 preserveAspectRatio="xMidYMid meet">
<metadata>
Created by potrace 1.16, written by Peter Selinger 2001-2019
</metadata>
<g transform="translate(0.000000,590.000000) scale(0.500000,-0.500000)"
fill="#000000" stroke="none">
<path d="M327 1140 c-17 -3 -22 -16 -14 -38 7 -21 13 -27 36 -39 12 -6 16 -9
22 -17 8 -13 25 -30 36 -36 10 -5 17 -12 23 -23 2 -4 7 -13 12 -19 10 -13 9
-12 2 -20 -3 -4 -7 -11 -8 -16 -8 -31 -56 -62 -73 -46 -4 4 -11 9 -15 11 -10
5 -28 23 -32 31 -2 5 -7 9 -10 11 -10 5 -42 40 -43 48 -2 7 -14 25 -27 36 -10
9 -11 11 -18 20 -10 11 -16 10 -29 -4 -17 -18 -15 -36 4 -50 4 -3 9 -9 11 -14
2 -5 13 -17 30 -34 24 -24 26 -26 32 -41 4 -12 7 -16 12 -19 9 -5 35 -33 38
-39 6 -18 8 -26 7 -29 -3 -8 -12 -17 -20 -21 -13 -7 -21 -14 -25 -22 -2 -5 -8
-10 -13 -13 -4 -3 -15 -13 -24 -21 -20 -19 -35 -23 -35 -10 0 1 -4 6 -8 12
-11 11 -14 16 -17 28 -3 8 -5 11 -11 15 -4 3 -9 8 -10 11 -1 3 -3 9 -5 14 -4
12 -10 19 -17 23 -6 3 -12 12 -12 19 0 2 -3 7 -7 11 -3 5 -8 13 -10 18 -4 14
-29 44 -38 47 -28 9 -40 -7 -30 -39 3 -8 5 -17 5 -20 0 -5 4 -11 16 -24 9 -9
15 -17 27 -38 2 -3 7 -9 10 -14 4 -5 10 -14 13 -21 5 -10 14 -20 33 -40 23
-24 27 -28 29 -37 3 -13 7 -20 14 -26 17 -15 16 -10 16 -131 0 -104 0 -108 4
-118 4 -11 4 -13 4 -186 -1 -207 -5 -184 37 -184 38 0 55 53 33 104 -4 10 -4
10 -4 162 0 147 0 152 -4 162 -3 7 -4 15 -4 24 0 8 -1 17 -3 22 -3 8 -3 9 0
19 3 11 3 17 2 61 -1 61 -1 62 17 80 7 7 15 16 17 19 12 22 19 30 26 34 4 3 9
7 11 10 1 3 8 12 15 19 6 7 15 17 19 21 12 13 37 34 45 39 4 2 12 8 17 13 5 5
14 13 19 17 9 7 11 9 12 15 1 5 2 10 2 13 1 2 9 12 18 22 31 32 39 74 16 88
-3 2 -9 7 -13 12 -4 5 -10 11 -13 14 -23 20 -36 34 -39 40 -3 5 -8 11 -15 15
-11 7 -39 35 -48 49 -10 15 -29 23 -48 20z"/>
</g>
</svg>
