<?xml version="1.0" standalone="no"?>
<!DOCTYPE svg PUBLIC "-//W3C//DTD SVG 20010904//EN"
 "http://www.w3.org/TR/2001/REC-SVG-20010904/DTD/svg10.dtd">
<svg version="1.0" xmlns="http://www.w3.org/2000/svg"
 width="47.000000pt" height="100.000000pt" viewBox="0 0 47.000000 100.000000"
 preserveAspectRatio="xMidYMid meet">
<metadata>
Created by potrace 1.16, written by Peter Selinger 2001-2019
</metadata>
<g transform="translate(0.000000,100.000000) scale(0.100000,-0.100000)"
fill="#000000" stroke="none">
<path d="M99 902 c-42 -43 -69 -79 -69 -92 0 -29 33 -75 95 -132 28 -26 64
-65 80 -87 l28 -41 -4 -257 -4 -258 25 0 c25 0 25 2 31 100 4 55 7 170 8 255
l1 155 70 93 c41 55 70 103 70 117 0 47 -35 43 -65 -8 -57 -98 -85 -136 -99
-131 -7 3 -28 23 -45 44 l-31 39 49 55 c28 30 58 67 67 81 15 24 16 28 2 42
-22 21 -37 10 -93 -65 -40 -53 -52 -63 -73 -60 -17 2 -32 14 -42 31 -15 28
-15 28 48 88 64 61 75 90 38 97 -12 3 -41 -19 -87 -66z"/>
</g>
</svg>
