<?xml version="1.0" standalone="no"?>
<!DOCTYPE svg PUBLIC "-//W3C//DTD SVG 20010904//EN"
 "http://www.w3.org/TR/2001/REC-SVG-20010904/DTD/svg10.dtd">
<svg version="1.0" xmlns="http://www.w3.org/2000/svg"
 width="70.000000pt" height="148.000000pt" viewBox="0 0 70.000000 148.000000"
 preserveAspectRatio="xMidYMid meet">
<metadata>
Created by potrace 1.16, written by Peter Selinger 2001-2019
</metadata>
<g transform="translate(0.000000,148.000000) scale(0.100000,-0.100000)"
fill="#000000" stroke="none">
<path d="M250 1421 c-23 -9 -198 -194 -200 -211 -4 -30 0 -47 19 -66 10 -11
25 -33 33 -48 7 -14 37 -46 65 -69 28 -23 80 -76 116 -117 l66 -76 0 -94 c1
-52 -3 -225 -8 -385 -5 -159 -7 -293 -5 -297 8 -13 74 -9 79 5 2 6 6 178 9
381 4 314 7 371 20 385 9 10 16 23 16 29 0 6 18 28 40 48 22 21 40 42 40 48 0
6 17 34 38 61 65 86 78 145 33 145 -20 0 -44 -29 -71 -85 -8 -16 -23 -36 -32
-43 -10 -7 -18 -22 -18 -33 0 -10 -4 -19 -10 -19 -5 0 -16 -15 -23 -32 -28
-67 -40 -67 -111 -2 -41 37 -65 67 -65 81 -1 12 15 39 34 60 72 78 145 171
145 185 0 8 -8 22 -18 31 -16 14 -19 13 -50 -23 -17 -21 -32 -43 -32 -48 0
-12 -135 -142 -148 -142 -13 0 -92 89 -92 104 0 15 115 136 129 136 14 0 51
50 51 70 0 19 -27 30 -50 21z"/>
</g>
</svg>
