<?xml version="1.0" standalone="no"?>
<!DOCTYPE svg PUBLIC "-//W3C//DTD SVG 20010904//EN"
 "http://www.w3.org/TR/2001/REC-SVG-20010904/DTD/svg10.dtd">
<svg version="1.0" xmlns="http://www.w3.org/2000/svg"
 width="282.000000pt" height="590.000000pt" viewBox="0 0 282.000000 590.000000"
 preserveAspectRatio="xMidYMid meet">
<metadata>
Created by potrace 1.16, written by Peter Selinger 2001-2019
</metadata>
<g transform="translate(0.000000,590.000000) scale(0.500000,-0.500000)"
fill="#000000" stroke="none">
<path d="M197 1136 c-10 -5 -15 -9 -19 -16 -6 -10 -40 -45 -49 -51 -5 -2 -11
-9 -14 -13 -2 -5 -11 -15 -19 -22 -25 -23 -27 -25 -33 -33 -3 -4 -9 -10 -13
-12 -22 -14 -14 -56 16 -86 16 -16 20 -22 20 -32 0 -6 1 -9 7 -14 4 -3 14 -12
22 -19 8 -8 17 -15 21 -17 6 -3 25 -19 41 -34 10 -10 34 -39 37 -44 2 -4 7 -8
11 -10 5 -2 9 -7 14 -14 16 -26 22 -35 29 -39 15 -11 16 -14 16 -78 0 -48 1
-59 3 -65 3 -7 3 -8 0 -15 -2 -5 -3 -14 -3 -22 0 -7 -2 -16 -3 -21 -3 -7 -4
-25 -5 -166 -1 -158 -1 -158 -5 -167 -5 -8 -5 -12 -5 -48 0 -54 -2 -52 40 -52
40 0 36 -23 36 185 0 174 0 176 4 188 4 12 4 14 4 118 -1 118 -2 112 15 127 6
6 12 16 15 28 2 7 7 13 28 35 18 18 28 30 33 40 4 8 10 18 14 22 3 5 8 11 10
14 12 20 18 29 28 39 12 13 14 16 16 29 0 5 2 12 4 15 19 37 -22 56 -49 22
-15 -18 -18 -23 -20 -31 -2 -4 -6 -11 -9 -15 -4 -4 -7 -12 -9 -17 -2 -7 -4
-10 -11 -16 -10 -6 -16 -15 -20 -31 -2 -7 -5 -11 -12 -17 -6 -5 -10 -10 -11
-16 -4 -14 -6 -17 -28 -41 -8 -9 -10 -8 -29 10 -10 9 -21 20 -27 23 -5 3 -11
10 -14 15 -4 7 -9 11 -21 18 -30 17 -30 36 0 72 8 9 14 15 19 17 5 2 9 5 10 8
11 27 13 30 39 55 14 14 27 28 28 32 2 4 8 12 14 17 18 16 18 31 1 49 -13 12
-19 13 -27 4 -3 -4 -11 -12 -17 -18 -24 -26 -27 -30 -30 -38 -2 -10 -26 -38
-41 -48 -5 -3 -11 -10 -13 -14 -4 -9 -16 -20 -28 -27 -5 -3 -12 -9 -16 -12
-16 -15 -23 -13 -51 15 -17 17 -22 23 -24 30 -1 5 -4 11 -7 14 -7 6 -8 14 -1
20 3 3 8 9 10 14 12 20 15 24 27 30 13 8 32 26 38 37 3 7 6 10 21 17 34 17 51
53 33 70 -8 8 -28 9 -41 2z"/>
</g>
</svg>
