<?xml version="1.0" standalone="no"?>
<!DOCTYPE svg PUBLIC "-//W3C//DTD SVG 20010904//EN"
 "http://www.w3.org/TR/2001/REC-SVG-20010904/DTD/svg10.dtd">
<svg version="1.0" xmlns="http://www.w3.org/2000/svg"
 width="120.000000pt" height="572.000000pt" viewBox="0 0 120.000000 572.000000"
 preserveAspectRatio="xMidYMid meet">
<metadata>
Created by potrace 1.16, written by Peter Selinger 2001-2019
</metadata>
<g transform="translate(0.000000,572.000000) scale(0.500000,-0.500000)"
fill="#000000" stroke="none">
<path d="M130 1098 c-90 -6 -88 -4 -88 -47 0 -36 -3 -34 48 -33 46 1 48 1 48
-4 0 -3 2 -10 5 -16 6 -11 6 -11 4 -42 -2 -44 2 -42 -56 -43 -52 -2 -48 1 -49
-31 -1 -39 -3 -37 50 -40 59 -4 64 -6 53 -37 -4 -12 -5 -18 -4 -23 4 -17 -1
-45 -8 -52 -3 -3 -15 -4 -62 -7 -26 -2 -31 -10 -29 -44 2 -22 10 -26 48 -29
42 -3 48 -5 48 -16 0 -2 1 -7 3 -10 3 -6 3 -19 3 -112 -1 -95 0 -106 3 -113 3
-7 3 -21 3 -178 0 -181 -1 -178 9 -180 11 -3 37 0 40 4 4 5 3 444 -1 457 -1 4
-1 9 0 15 2 7 1 204 -1 268 -1 52 -1 76 1 104 3 42 3 76 -1 89 -1 6 -3 28 -4
49 -3 80 2 75 -63 71z"/>
</g>
</svg>
