<?xml version="1.0" standalone="no"?>
<!DOCTYPE svg PUBLIC "-//W3C//DTD SVG 20010904//EN"
 "http://www.w3.org/TR/2001/REC-SVG-20010904/DTD/svg10.dtd">
<svg version="1.0" xmlns="http://www.w3.org/2000/svg"
 width="21.000000pt" height="100.000000pt" viewBox="0 0 21.000000 100.000000"
 preserveAspectRatio="xMidYMid meet">
<metadata>
Created by potrace 1.16, written by Peter Selinger 2001-2019
</metadata>
<g transform="translate(0.000000,100.000000) scale(0.100000,-0.100000)"
fill="#000000" stroke="none">
<path d="M52 949 c-18 -7 -23 -15 -20 -36 2 -23 8 -28 33 -29 17 -1 35 -2 41
-3 17 -2 24 -39 13 -68 -8 -21 -14 -24 -37 -20 -37 7 -55 -5 -50 -34 3 -20 9
-24 46 -27 l43 -3 -3 -47 c-3 -47 -3 -47 -43 -52 -31 -4 -41 -10 -43 -26 -4
-26 14 -41 53 -46 l30 -3 7 -254 c3 -150 10 -257 16 -263 6 -6 18 -8 28 -4 16
6 16 38 9 459 -5 323 -10 454 -18 459 -16 10 -77 9 -105 -3z"/>
</g>
</svg>
