<?xml version="1.0" standalone="no"?>
<!DOCTYPE svg PUBLIC "-//W3C//DTD SVG 20010904//EN"
 "http://www.w3.org/TR/2001/REC-SVG-20010904/DTD/svg10.dtd">
<svg version="1.0" xmlns="http://www.w3.org/2000/svg"
 width="204.000000pt" height="590.000000pt" viewBox="0 0 204.000000 590.000000"
 preserveAspectRatio="xMidYMid meet">
<metadata>
Created by potrace 1.16, written by Peter Selinger 2001-2019
</metadata>
<g transform="translate(0.000000,590.000000) scale(0.500000,-0.500000)"
fill="#000000" stroke="none">
<path d="M65 1133 c-3 -1 -6 -3 -8 -5 -5 -5 -5 11 -2 -243 1 -172 1 -189 -2
-203 -3 -13 -3 -16 0 -32 3 -16 3 -39 1 -208 -2 -157 -3 -348 -2 -376 0 -12 7
-16 30 -16 35 0 33 -20 29 327 -2 111 -31 77 187 213 73 45 72 44 60 66 -19
34 -12 36 -116 -33 -141 -92 -127 -87 -131 -50 -5 63 -15 52 123 138 80 49 77
46 58 75 -15 22 -15 22 -70 -16 -98 -67 -102 -70 -107 -63 -4 6 -4 90 0 100 3
8 28 20 132 68 41 19 42 22 29 49 -14 27 -12 27 -74 -6 -99 -53 -91 -53 -90
-7 1 50 -8 41 79 86 75 39 74 38 63 62 -17 33 -18 33 -80 -4 -69 -42 -65 -43
-64 17 2 62 -3 69 -45 61z"/>
</g>
</svg>
