<?xml version="1.0" standalone="no"?>
<!DOCTYPE svg PUBLIC "-//W3C//DTD SVG 20010904//EN"
 "http://www.w3.org/TR/2001/REC-SVG-20010904/DTD/svg10.dtd">
<svg version="1.0" xmlns="http://www.w3.org/2000/svg"
 width="52.000000pt" height="148.000000pt" viewBox="0 0 52.000000 148.000000"
 preserveAspectRatio="xMidYMid meet">
<metadata>
Created by potrace 1.16, written by Peter Selinger 2001-2019
</metadata>
<g transform="translate(0.000000,148.000000) scale(0.100000,-0.100000)"
fill="#000000" stroke="none">
<path d="M70 1413 c-1 -4 -1 -309 -1 -678 l0 -670 33 0 33 0 1 263 0 262 128
80 c71 44 131 80 135 80 3 0 19 11 36 24 28 22 29 25 16 50 -8 14 -19 26 -25
26 -6 0 -71 -40 -145 -90 -74 -49 -137 -87 -141 -85 -3 2 -7 28 -8 58 l-2 55
125 77 c69 42 125 82 125 88 -1 16 -25 47 -37 47 -6 0 -44 -24 -85 -54 -89
-64 -116 -79 -120 -69 -2 5 -2 38 0 74 l4 67 104 48 c58 26 107 51 110 55 6
10 -17 59 -28 59 -4 0 -46 -20 -91 -45 -46 -25 -89 -45 -95 -45 -8 0 -10 16
-7 48 2 26 4 50 5 54 0 4 37 26 83 49 103 52 109 57 97 78 -25 44 -25 44 -94
2 -37 -23 -72 -42 -79 -44 -8 -1 -12 19 -12 68 l0 70 -32 3 c-18 2 -33 0 -33
-5z"/>
</g>
</svg>
