<?xml version="1.0" standalone="no"?>
<!DOCTYPE svg PUBLIC "-//W3C//DTD SVG 20010904//EN"
 "http://www.w3.org/TR/2001/REC-SVG-20010904/DTD/svg10.dtd">
<svg version="1.0" xmlns="http://www.w3.org/2000/svg"
 width="35.000000pt" height="100.000000pt" viewBox="0 0 35.000000 100.000000"
 preserveAspectRatio="xMidYMid meet">
<metadata>
Created by potrace 1.16, written by Peter Selinger 2001-2019
</metadata>
<g transform="translate(0.000000,100.000000) scale(0.100000,-0.100000)"
fill="#000000" stroke="none">
<path d="M57 959 c-16 -9 -17 -43 -17 -463 0 -420 1 -454 17 -460 36 -14 43
19 43 195 l0 168 28 19 c15 10 62 38 105 62 77 44 92 65 63 89 -10 9 -32 -1
-96 -44 -46 -31 -88 -54 -94 -52 -6 2 -11 16 -11 32 0 25 11 35 83 79 54 33
82 57 82 69 0 35 -31 31 -92 -13 -33 -23 -61 -40 -63 -38 -4 4 -8 38 -6 64 1
16 17 29 70 52 78 35 90 47 68 69 -13 13 -20 12 -65 -11 -58 -29 -82 -33 -82
-12 0 32 15 48 71 77 43 21 59 35 59 49 0 32 -27 35 -71 6 -47 -31 -62 -26
-54 18 8 39 -10 60 -38 45z"/>
</g>
</svg>
