<?xml version="1.0" standalone="no"?>
<!DOCTYPE svg PUBLIC "-//W3C//DTD SVG 20010904//EN"
 "http://www.w3.org/TR/2001/REC-SVG-20010904/DTD/svg10.dtd">
<svg version="1.0" xmlns="http://www.w3.org/2000/svg"
 width="53.000000pt" height="100.000000pt" viewBox="0 0 53.000000 100.000000"
 preserveAspectRatio="xMidYMid meet">
<metadata>
Created by potrace 1.16, written by Peter Selinger 2001-2019
</metadata>
<g transform="translate(0.000000,100.000000) scale(0.100000,-0.100000)"
fill="#000000" stroke="none">
<path d="M224 956 c-4 -9 -3 -36 0 -60 9 -56 -3 -63 -53 -34 -33 19 -43 20
-53 10 -19 -19 2 -45 53 -62 25 -9 45 -23 47 -33 4 -21 -5 -21 -51 -2 -47 20
-57 19 -57 -4 0 -14 13 -24 49 -36 58 -19 80 -40 62 -58 -9 -9 -19 -8 -44 2
-17 7 -44 16 -59 18 -23 4 -28 2 -28 -15 0 -16 13 -26 57 -42 65 -24 83 -36
83 -56 0 -20 -40 -17 -99 8 -37 15 -55 18 -63 10 -21 -21 1 -40 69 -62 76 -25
99 -41 90 -64 -9 -22 -36 -19 -82 9 -45 28 -85 33 -85 10 0 -19 32 -39 97 -59
54 -18 79 -38 68 -56 -10 -17 -32 -12 -88 20 -61 34 -87 38 -87 12 0 -21 61
-59 124 -77 36 -10 41 -16 44 -44 2 -17 -1 -31 -6 -31 -5 0 -39 14 -75 30 -80
36 -107 38 -107 9 0 -15 14 -26 57 -45 31 -14 69 -28 85 -31 40 -8 51 -34 43
-104 -8 -64 3 -89 35 -89 25 0 28 13 23 105 l-5 80 103 41 c105 42 134 63 112
85 -10 10 -33 3 -103 -29 -100 -46 -123 -51 -118 -24 2 10 31 30 73 49 109 51
120 57 123 76 5 27 -30 21 -101 -18 -73 -40 -87 -43 -87 -16 0 13 24 29 90 59
50 23 90 46 90 52 0 26 -37 21 -100 -13 -68 -37 -80 -38 -80 -6 0 13 25 30 85
58 47 22 85 44 85 49 0 5 -7 15 -15 22 -12 10 -25 5 -73 -24 -67 -40 -92 -45
-92 -17 0 23 13 34 81 69 29 15 55 33 57 39 7 24 -30 26 -75 4 -24 -12 -49
-19 -54 -16 -25 16 7 65 42 65 11 0 36 7 56 15 34 14 36 17 20 32 -15 15 -19
15 -59 0 -56 -22 -58 -22 -58 7 0 21 7 27 48 38 36 10 47 18 47 33 0 21 -26
25 -73 10 -22 -7 -22 -6 -20 51 3 55 1 59 -20 62 -13 2 -25 -3 -28 -12z"/>
</g>
</svg>
