<?xml version="1.0" standalone="no"?>
<!DOCTYPE svg PUBLIC "-//W3C//DTD SVG 20010904//EN"
 "http://www.w3.org/TR/2001/REC-SVG-20010904/DTD/svg10.dtd">
<svg version="1.0" xmlns="http://www.w3.org/2000/svg"
 width="78.000000pt" height="148.000000pt" viewBox="0 0 78.000000 148.000000"
 preserveAspectRatio="xMidYMid meet">
<metadata>
Created by potrace 1.16, written by Peter Selinger 2001-2019
</metadata>
<g transform="translate(0.000000,148.000000) scale(0.100000,-0.100000)"
fill="#000000" stroke="none">
<path d="M340 1420 c-8 -5 -11 -36 -9 -96 4 -88 4 -89 -20 -86 -13 1 -36 11
-51 22 -16 11 -42 23 -59 26 -29 6 -31 5 -31 -25 0 -21 6 -33 18 -37 57 -19
129 -49 140 -59 17 -15 5 -45 -18 -45 -9 0 -44 13 -76 30 -61 31 -78 28 -72
-11 2 -19 17 -29 73 -50 38 -15 78 -32 87 -38 22 -14 23 -39 2 -62 -14 -16
-19 -15 -85 17 -38 19 -76 34 -85 34 -21 0 -29 -27 -13 -46 16 -20 95 -60 135
-68 40 -9 67 -38 62 -68 -2 -19 -8 -23 -37 -21 -19 1 -62 13 -97 28 -73 31
-108 30 -112 -3 -2 -12 3 -24 10 -26 21 -6 108 -36 163 -55 65 -23 87 -57 61
-95 l-17 -27 -95 50 c-52 28 -101 51 -109 51 -10 0 -15 -10 -15 -30 0 -32 -2
-30 135 -86 117 -47 134 -64 96 -98 -17 -16 -23 -14 -105 34 -106 60 -133 69
-143 44 -12 -33 68 -85 211 -137 36 -13 40 -18 43 -55 2 -22 -1 -43 -7 -47
-11 -7 -99 23 -153 52 -44 24 -99 43 -108 38 -10 -7 -17 -42 -10 -52 3 -5 33
-20 66 -33 33 -13 65 -26 70 -30 6 -4 38 -17 73 -30 l62 -22 0 -119 c0 -117 1
-120 24 -131 14 -6 32 -8 41 -4 15 6 16 20 10 136 -7 121 -6 130 11 135 11 4
37 15 59 25 22 10 63 28 90 40 28 12 64 28 80 35 17 8 43 19 58 24 21 8 28 17
25 34 -3 19 -8 22 -47 19 -24 -1 -56 -11 -70 -21 -40 -29 -202 -101 -212 -95
-17 10 -9 45 15 67 14 12 79 47 145 77 102 47 120 58 121 78 0 29 -26 39 -54
21 -51 -33 -216 -116 -221 -111 -3 3 -5 18 -5 34 0 27 9 33 133 94 91 45 132
70 132 82 0 23 -61 29 -83 9 -30 -26 -168 -97 -175 -90 -4 3 -7 21 -7 38 0 31
4 35 113 90 132 67 146 77 127 99 -18 23 -40 20 -90 -15 -66 -44 -139 -81
-150 -74 -15 9 -12 58 5 82 8 11 53 40 100 63 73 35 86 45 83 63 -5 35 -42 32
-108 -8 -73 -44 -95 -41 -87 12 4 20 11 41 16 46 5 5 44 19 87 31 58 16 80 26
82 40 2 10 -1 22 -8 26 -15 9 -76 -4 -116 -25 -47 -24 -56 -20 -52 27 l3 42
70 21 c62 19 70 24 70 46 0 33 -44 38 -89 10 -55 -34 -57 -31 -50 68 l7 88
-26 5 c-14 3 -31 2 -37 -2z"/>
</g>
</svg>
