<?xml version="1.0" standalone="no"?>
<!DOCTYPE svg PUBLIC "-//W3C//DTD SVG 20010904//EN"
 "http://www.w3.org/TR/2001/REC-SVG-20010904/DTD/svg10.dtd">
<svg version="1.0" xmlns="http://www.w3.org/2000/svg"
 width="308.000000pt" height="590.000000pt" viewBox="0 0 308.000000 590.000000"
 preserveAspectRatio="xMidYMid meet">
<metadata>
Created by potrace 1.16, written by Peter Selinger 2001-2019
</metadata>
<g transform="translate(0.000000,590.000000) scale(0.500000,-0.500000)"
fill="#000000" stroke="none">
<path d="M272 1138 c-8 -3 -8 -9 -6 -73 3 -90 4 -88 -69 -48 -44 24 -63 21
-63 -8 0 -19 11 -33 27 -34 7 -1 17 -4 23 -7 7 -3 17 -8 24 -11 49 -18 67 -36
52 -51 -7 -7 -33 -4 -51 4 -24 11 -48 23 -55 27 -14 10 -24 3 -24 -17 0 -23 5
-29 35 -40 9 -3 26 -11 38 -16 12 -5 28 -12 35 -14 28 -10 38 -39 19 -57 -11
-11 -15 -10 -73 17 -39 19 -55 23 -67 18 -8 -4 -11 -25 -4 -34 7 -10 75 -45
94 -49 49 -9 78 -49 53 -73 -9 -10 -83 10 -120 32 -29 18 -64 11 -64 -12 0
-12 4 -19 14 -23 5 -2 14 -6 19 -8 6 -2 13 -5 17 -6 22 -4 33 -7 38 -12 5 -5
33 -17 41 -17 2 0 9 -2 14 -5 6 -2 13 -5 17 -6 13 -3 20 -8 25 -16 12 -24 1
-63 -18 -63 -9 0 -99 47 -113 59 -7 6 -34 14 -44 12 -25 -4 -16 -50 11 -54 5
-1 10 -4 14 -8 4 -4 7 -7 8 -7 7 0 34 -8 40 -11 5 -3 13 -7 18 -9 83 -31 101
-49 79 -77 -9 -13 -16 -13 -33 -3 -9 6 -41 23 -64 36 -5 2 -14 8 -19 11 -34
25 -71 31 -80 15 -7 -12 14 -35 51 -56 7 -4 15 -9 19 -12 3 -3 8 -6 11 -7 3
-1 7 -2 11 -2 3 -1 12 -6 21 -12 11 -7 20 -12 24 -12 5 -1 16 -3 25 -6 35 -11
36 -13 37 -58 0 -22 -7 -30 -20 -25 -3 1 -16 5 -28 10 -44 16 -77 31 -84 37
-11 9 -20 13 -37 17 -8 2 -19 5 -24 6 -41 11 -38 -43 3 -56 11 -3 28 -10 38
-15 28 -13 36 -16 42 -18 3 -1 8 -4 11 -7 5 -6 7 -7 18 -8 9 -1 15 -4 21 -8 4
-3 13 -7 18 -8 6 -1 17 -5 24 -8 l14 -7 -1 -90 c-1 -107 -2 -100 23 -107 39
-10 56 38 38 113 -8 35 -3 96 8 98 3 1 12 4 19 7 7 3 15 6 18 6 2 0 8 4 14 9
5 5 13 10 17 11 5 1 10 4 12 5 2 2 9 4 15 5 7 1 14 4 18 8 9 7 20 12 33 14 5
1 13 4 17 7 7 5 25 13 50 22 24 10 28 13 31 27 4 24 -14 37 -38 27 -4 -2 -13
-4 -20 -5 -7 -1 -14 -4 -17 -6 -3 -1 -8 -4 -12 -6 -3 -2 -11 -7 -17 -12 -9 -7
-18 -12 -67 -33 -8 -4 -25 -11 -38 -17 -41 -19 -44 -19 -48 -9 -7 17 2 43 16
47 7 1 11 4 14 8 4 5 38 24 43 24 1 0 10 4 20 10 9 5 22 12 29 14 6 2 15 7 20
10 5 3 16 8 24 12 50 22 56 27 58 44 2 26 -34 32 -60 10 -12 -11 -143 -80
-151 -80 -23 0 -15 45 9 56 8 4 18 8 21 11 3 2 17 9 31 16 14 7 29 15 33 17 4
3 16 9 26 14 10 4 25 12 33 17 9 4 20 10 25 11 17 4 19 5 21 14 7 23 -39 41
-61 22 -9 -7 -27 -18 -43 -27 -8 -4 -21 -12 -29 -17 -17 -11 -56 -31 -63 -33
-11 -3 -14 4 -14 31 0 27 1 30 16 34 9 2 42 17 46 21 3 3 18 10 83 44 37 18
44 24 46 36 4 29 -25 40 -53 19 -6 -4 -17 -12 -24 -16 -8 -4 -14 -9 -15 -10
-1 -1 -5 -4 -10 -6 -4 -3 -10 -6 -12 -8 -6 -5 -38 -22 -50 -27 -5 -2 -12 -5
-14 -6 -21 -15 -26 56 -4 72 11 8 36 22 77 42 50 24 60 31 64 45 5 17 -6 25
-34 24 -19 -2 -22 -3 -37 -14 -8 -6 -24 -15 -56 -31 -24 -13 -33 3 -24 46 4
17 6 22 15 25 21 8 44 16 51 17 10 2 63 17 67 19 13 7 13 35 0 40 -11 5 -46 1
-56 -6 -5 -3 -10 -6 -12 -6 -2 0 -6 -2 -10 -4 -6 -4 -40 -16 -44 -16 -9 0 -12
47 -3 57 4 5 42 19 77 29 26 7 32 13 32 32 0 24 -53 28 -80 6 -31 -25 -31 -25
-30 56 1 79 2 76 -25 76 -9 0 -18 -1 -21 -2z"/>
</g>
</svg>
