<?xml version="1.0" standalone="no"?>
<!DOCTYPE svg PUBLIC "-//W3C//DTD SVG 20010904//EN"
 "http://www.w3.org/TR/2001/REC-SVG-20010904/DTD/svg10.dtd">
<svg version="1.0" xmlns="http://www.w3.org/2000/svg"
 width="330.000000pt" height="590.000000pt" viewBox="0 0 330.000000 590.000000"
 preserveAspectRatio="xMidYMid meet">
<metadata>
Created by potrace 1.16, written by Peter Selinger 2001-2019
</metadata>
<g transform="translate(0.000000,590.000000) scale(0.500000,-0.500000)"
fill="#000000" stroke="none">
<path d="M43 1135 c-8 -7 -7 -1043 1 -1049 7 -6 30 -6 36 1 7 8 7 1039 -1
1046 -8 9 -29 10 -36 2z"/>
<path d="M572 1137 c-8 -4 -8 -6 -7 -80 1 -75 1 -75 -10 -71 -17 6 -23 3 -51
-28 -34 -37 -66 -50 -59 -24 2 6 3 20 3 31 0 19 0 20 7 31 11 18 13 81 2 95
-24 32 -54 11 -54 -37 0 -24 0 -28 -5 -35 -3 -7 -4 -11 -4 -25 0 -16 -1 -19
-6 -29 -6 -11 -7 -14 -7 -32 -1 -28 -2 -29 -9 -29 -7 0 -12 6 -12 16 -1 14
-11 31 -26 40 -5 3 -9 8 -11 12 -4 8 -15 20 -19 20 -1 0 -4 4 -7 10 -11 21
-29 21 -35 0 -4 -15 -1 -20 33 -57 17 -18 31 -35 31 -36 0 -7 9 -19 30 -42 25
-27 25 -26 25 -56 0 -21 0 -22 -7 -33 -5 -10 -6 -13 -6 -27 0 -13 -1 -18 -6
-29 -5 -11 -6 -17 -6 -26 0 -26 -27 -25 -33 0 -1 3 -5 11 -8 17 -4 7 -7 14 -7
16 0 1 -2 7 -5 12 -3 6 -7 14 -8 19 -5 17 -30 44 -42 44 -17 0 -19 -16 -3 -36
11 -14 25 -44 27 -57 2 -17 46 -69 66 -79 16 -7 19 -55 7 -79 -4 -7 -7 -16 -7
-23 -2 -18 -5 -19 -25 -10 -10 4 -15 8 -22 16 -42 51 -52 59 -61 53 -14 -9
-12 -18 8 -39 10 -11 17 -21 21 -29 5 -12 7 -14 16 -18 13 -6 19 -11 23 -23 4
-10 8 -15 16 -19 11 -6 13 -23 5 -37 -4 -6 -5 -11 -6 -27 -1 -18 -2 -22 -7
-29 -5 -8 -6 -12 -7 -28 -3 -41 -31 -41 -36 0 -2 17 -11 30 -50 70 -8 9 -11
13 -12 21 -4 18 -17 24 -27 12 -6 -7 -5 -13 2 -21 5 -5 6 -7 5 -18 0 -16 4
-23 16 -30 5 -3 9 -7 11 -12 2 -5 8 -13 14 -20 7 -8 11 -16 13 -21 2 -7 7 -14
17 -25 27 -29 28 -31 15 -54 -4 -8 -8 -17 -9 -20 -1 -3 -4 -8 -6 -12 -3 -4 -6
-10 -7 -14 -1 -4 -6 -13 -11 -18 -5 -6 -11 -14 -12 -18 -2 -4 -6 -12 -9 -19
-9 -16 -9 -37 -2 -52 3 -6 6 -15 7 -20 5 -32 34 -26 48 11 3 7 6 15 8 17 1 2
4 8 5 12 1 4 7 16 12 26 6 10 11 22 12 27 1 9 7 21 21 43 7 11 14 15 27 15 2
0 9 5 17 12 7 6 17 13 22 16 6 2 14 9 22 17 12 13 12 13 24 12 23 -4 45 -2 52
2 3 3 11 7 16 10 12 5 15 10 15 19 0 14 -19 18 -39 8 -8 -4 -14 -6 -22 -6 -5
0 -14 -1 -20 -3 -6 -2 -13 -2 -17 -2 -6 1 -9 0 -15 -3 -18 -11 -42 -23 -48
-24 -7 -2 -6 53 2 67 3 7 5 13 5 19 0 7 2 13 7 23 4 7 7 15 7 19 0 10 4 13 17
13 18 -1 26 2 39 14 10 10 13 11 23 13 6 1 15 4 20 7 4 2 13 5 19 6 27 4 30
33 4 33 -33 1 -36 0 -70 -21 -5 -3 -11 -7 -14 -8 -3 -1 -9 -5 -14 -8 -20 -11
-28 -3 -18 16 6 10 7 15 8 32 1 16 2 22 6 28 5 8 5 10 5 43 1 36 1 36 7 46 4
8 6 15 7 23 1 16 5 23 21 31 7 3 19 10 27 14 20 11 34 19 47 25 19 10 24 19
13 29 -10 9 -17 8 -45 -9 -8 -5 -19 -11 -23 -13 -4 -2 -11 -6 -15 -9 -21 -16
-33 -2 -19 22 6 12 6 12 7 74 1 78 1 77 34 79 22 1 16 -4 75 61 21 23 27 -235
18 -834 0 -28 3 -32 25 -32 23 0 23 -1 23 55 0 416 -3 992 -5 995 -4 8 -24 12
-34 6z"/>
</g>
</svg>
