<?xml version="1.0" standalone="no"?>
<!DOCTYPE svg PUBLIC "-//W3C//DTD SVG 20010904//EN"
 "http://www.w3.org/TR/2001/REC-SVG-20010904/DTD/svg10.dtd">
<svg version="1.0" xmlns="http://www.w3.org/2000/svg"
 width="55.000000pt" height="100.000000pt" viewBox="0 0 55.000000 100.000000"
 preserveAspectRatio="xMidYMid meet">
<metadata>
Created by potrace 1.16, written by Peter Selinger 2001-2019
</metadata>
<g transform="translate(0.000000,100.000000) scale(0.100000,-0.100000)"
fill="#000000" stroke="none">
<path d="M30 515 c0 -448 0 -455 20 -455 20 0 20 7 20 455 0 448 0 455 -20
455 -20 0 -20 -7 -20 -455z"/>
<path d="M467 964 c-4 -4 -7 -32 -7 -63 0 -52 -3 -58 -34 -83 -49 -39 -60 -37
-51 10 13 65 11 94 -8 106 -24 15 -33 -2 -42 -80 -4 -35 -10 -66 -14 -69 -5
-2 -23 16 -41 41 -17 25 -37 43 -43 41 -27 -9 -16 -41 32 -97 53 -61 58 -80
42 -155 -9 -41 -22 -36 -51 21 -25 49 -52 64 -58 33 -4 -21 50 -110 77 -127
25 -15 29 -73 7 -91 -12 -10 -18 -7 -32 14 -24 36 -52 51 -61 30 -4 -11 10
-32 41 -64 45 -45 47 -50 40 -87 -3 -21 -11 -47 -16 -58 -9 -16 -14 -12 -39
33 -17 29 -37 55 -45 58 -41 16 -27 -41 26 -102 22 -25 40 -48 40 -50 0 -3
-14 -34 -32 -69 -27 -56 -30 -68 -20 -90 19 -42 37 -30 67 40 30 71 50 89 129
115 56 19 76 49 31 49 -14 0 -42 -7 -62 -15 -45 -19 -43 -19 -43 9 0 51 18 75
75 100 30 14 55 30 55 36 0 20 -32 23 -60 6 -16 -9 -31 -16 -35 -16 -10 0 4
130 16 152 5 10 28 27 49 38 22 11 40 27 40 35 0 19 -13 19 -50 0 l-30 -16 0
60 c0 70 6 91 28 91 9 0 26 9 38 21 45 42 46 29 42 -346 -1 -194 0 -356 4
-360 4 -4 14 -5 23 -2 13 6 15 57 13 454 -3 395 -5 448 -18 451 -9 1 -19 0
-23 -4z"/>
</g>
</svg>
