<?xml version="1.0" standalone="no"?>
<!DOCTYPE svg PUBLIC "-//W3C//DTD SVG 20010904//EN"
 "http://www.w3.org/TR/2001/REC-SVG-20010904/DTD/svg10.dtd">
<svg version="1.0" xmlns="http://www.w3.org/2000/svg"
 width="82.000000pt" height="148.000000pt" viewBox="0 0 82.000000 148.000000"
 preserveAspectRatio="xMidYMid meet">
<metadata>
Created by potrace 1.16, written by Peter Selinger 2001-2019
</metadata>
<g transform="translate(0.000000,148.000000) scale(0.100000,-0.100000)"
fill="#000000" stroke="none">
<path d="M710 1420 c-12 -7 -14 -29 -11 -101 3 -89 2 -92 -18 -86 -15 4 -29
-4 -50 -28 -31 -35 -79 -71 -86 -63 -2 2 0 29 6 59 27 136 22 179 -21 179 -24
0 -32 -22 -36 -98 -2 -34 -8 -71 -14 -82 -5 -10 -10 -32 -10 -49 0 -23 -4 -29
-15 -25 -8 4 -15 14 -15 23 0 9 -18 35 -39 59 -21 23 -42 50 -45 58 -5 13 -9
14 -21 4 -23 -19 -18 -35 30 -92 116 -138 108 -123 101 -175 -3 -27 -7 -55
-10 -63 -2 -8 -7 -34 -11 -58 -11 -60 -33 -52 -65 24 -30 73 -46 94 -71 94
-22 0 -25 -23 -5 -39 8 -7 22 -33 30 -58 10 -28 32 -61 61 -87 49 -46 57 -78
33 -143 -18 -48 -38 -42 -92 30 -28 37 -49 46 -61 27 -7 -11 21 -47 95 -127
l39 -42 -15 -68 c-9 -37 -18 -78 -20 -91 -7 -35 -32 -26 -44 16 -5 22 -20 47
-31 58 -12 10 -28 34 -36 51 -8 22 -20 33 -33 33 -21 0 -28 -24 -10 -35 6 -3
10 -17 10 -31 0 -13 4 -24 9 -24 4 0 21 -19 37 -42 15 -24 39 -55 53 -70 25
-28 25 -28 7 -65 -10 -21 -31 -59 -48 -86 -27 -41 -29 -53 -23 -93 13 -86 50
-67 95 49 27 70 48 107 61 107 10 0 97 58 104 70 3 5 18 7 34 4 30 -6 91 19
91 37 0 16 -31 23 -51 11 -10 -7 -34 -12 -52 -12 -18 0 -41 -6 -52 -13 -11 -8
-32 -22 -48 -32 l-28 -18 11 27 c5 15 10 39 10 54 1 15 9 50 19 77 13 36 22
49 35 47 9 -2 31 5 49 14 58 31 67 34 83 34 10 0 14 7 12 23 -5 33 -39 32 -94
-2 -26 -17 -54 -31 -61 -31 -15 0 -17 22 -3 36 6 6 13 47 17 93 3 45 10 84 15
87 4 3 8 15 8 28 0 18 14 30 66 57 67 35 84 53 67 70 -6 6 -31 -3 -69 -26 -65
-39 -74 -35 -54 26 8 23 11 62 7 98 -6 66 2 81 45 81 20 0 37 12 65 45 20 25
41 45 46 45 5 0 7 -246 6 -546 -2 -573 -2 -578 40 -554 13 7 15 94 13 661 -1
683 -1 684 -42 659z"/>
<path d="M50 1413 c0 -5 0 -300 0 -657 0 -485 3 -652 11 -657 39 -24 39 -21
39 662 l0 659 -25 0 c-14 0 -25 -3 -25 -7z"/>
</g>
</svg>
