<?xml version="1.0" standalone="no"?>
<!DOCTYPE svg PUBLIC "-//W3C//DTD SVG 20010904//EN"
 "http://www.w3.org/TR/2001/REC-SVG-20010904/DTD/svg10.dtd">
<svg version="1.0" xmlns="http://www.w3.org/2000/svg"
 width="78.000000pt" height="148.000000pt" viewBox="0 0 78.000000 148.000000"
 preserveAspectRatio="xMidYMid meet">
<metadata>
Created by potrace 1.16, written by Peter Selinger 2001-2019
</metadata>
<g transform="translate(0.000000,148.000000) scale(0.100000,-0.100000)"
fill="#000000" stroke="none">
<path d="M348 1323 l-3 -98 -125 -1 -125 0 -3 -38 -3 -39 130 8 131 7 0 -72 0
-72 -127 3 -128 4 -3 -37 -3 -38 130 0 131 0 0 -50 0 -50 -131 0 -130 0 3 -36
3 -37 130 -1 130 -1 -4 -45 c-3 -54 -12 -65 -39 -51 -11 6 -66 11 -122 11
l-101 0 3 -37 3 -38 125 0 125 0 3 -64 3 -64 -130 6 -131 7 0 -40 0 -40 130 0
130 0 0 -71 0 -71 -127 3 -128 4 -3 -39 -3 -39 128 4 128 4 3 -75 c2 -41 7
-79 12 -84 5 -5 20 -6 34 -2 25 6 26 9 26 85 l0 80 131 -6 130 -6 -3 39 -3 39
-130 0 -130 0 0 65 0 65 120 2 c66 1 126 2 133 3 9 0 12 12 10 38 l-3 37 -127
0 c-80 0 -131 4 -138 11 -6 6 -10 33 -8 60 l3 49 135 0 135 0 3 43 3 44 -118
-8 c-65 -4 -125 -7 -133 -8 -11 -1 -16 12 -18 47 l-3 48 133 -2 133 -1 3 35
c4 46 -4 48 -143 38 -60 -4 -113 -6 -117 -4 -5 2 -8 26 -8 54 l0 49 136 0 135
0 -3 38 -3 37 -132 -4 -133 -3 4 68 3 69 129 0 129 0 3 34 c2 18 0 37 -5 41
-4 4 -60 4 -123 0 -139 -10 -142 -8 -133 84 7 74 -6 106 -42 106 -24 0 -24 -2
-27 -97z"/>
</g>
</svg>
