<?xml version="1.0" standalone="no"?>
<!DOCTYPE svg PUBLIC "-//W3C//DTD SVG 20010904//EN"
 "http://www.w3.org/TR/2001/REC-SVG-20010904/DTD/svg10.dtd">
<svg version="1.0" xmlns="http://www.w3.org/2000/svg"
 width="308.000000pt" height="590.000000pt" viewBox="0 0 308.000000 590.000000"
 preserveAspectRatio="xMidYMid meet">
<metadata>
Created by potrace 1.16, written by Peter Selinger 2001-2019
</metadata>
<g transform="translate(0.000000,590.000000) scale(0.500000,-0.500000)"
fill="#000000" stroke="none">
<path d="M288 1136 c-13 -10 -14 -18 -13 -87 2 -78 16 -68 -98 -67 -113 1
-106 3 -105 -35 1 -29 12 -32 80 -25 114 12 126 8 126 -50 0 -63 21 -56 -151
-51 -54 2 -53 3 -53 -31 0 -30 0 -30 37 -30 14 0 29 -1 33 -2 4 -1 32 -1 62 0
79 2 75 5 74 -41 -1 -40 1 -39 -115 -36 -98 2 -91 4 -91 -31 0 -31 -7 -29 85
-27 135 3 120 8 120 -38 0 -43 -3 -47 -31 -37 -19 6 -164 8 -170 2 -5 -5 -6
-44 -1 -52 3 -4 39 -5 89 -2 102 7 112 3 112 -52 0 -48 -58 -69 -128 -46 -38
12 -75 2 -77 -20 -4 -44 -8 -43 104 -41 115 2 101 9 101 -52 0 -63 12 -56 -91
-54 -124 3 -114 5 -115 -27 -1 -37 -7 -35 104 -32 112 3 99 10 99 -52 0 -65 4
-74 32 -74 29 0 32 6 30 67 -2 69 -18 61 120 58 91 -2 84 -4 84 30 0 36 12 33
-118 30 -96 -2 -101 -1 -93 24 4 13 5 31 1 40 -18 43 -9 46 134 42 81 -2 76
-4 76 32 0 36 8 33 -108 31 -119 -3 -113 -5 -115 43 -2 58 -9 54 104 52 113
-2 110 -2 114 3 6 7 6 51 0 59 -6 7 -64 7 -79 0 -7 -4 -14 -4 -66 -5 -71 0
-65 -4 -65 37 0 40 -13 36 107 35 118 0 106 -4 106 29 0 28 0 27 -22 31 -16 3
-95 1 -107 -2 -57 -15 -84 -3 -84 37 0 45 -15 41 144 42 74 0 69 -2 71 20 1
18 -1 35 -6 38 -5 4 -11 4 -114 1 -99 -3 -103 -2 -92 26 3 6 4 19 5 42 1 43
-11 38 103 38 114 -1 104 -4 105 29 1 31 -4 37 -31 33 -30 -4 -167 -7 -171 -3
-8 8 -12 35 -6 51 18 52 -16 125 -46 100z"/>
</g>
</svg>
