<?xml version="1.0" standalone="no"?>
<!DOCTYPE svg PUBLIC "-//W3C//DTD SVG 20010904//EN"
 "http://www.w3.org/TR/2001/REC-SVG-20010904/DTD/svg10.dtd">
<svg version="1.0" xmlns="http://www.w3.org/2000/svg"
 width="53.000000pt" height="100.000000pt" viewBox="0 0 53.000000 100.000000"
 preserveAspectRatio="xMidYMid meet">
<metadata>
Created by potrace 1.16, written by Peter Selinger 2001-2019
</metadata>
<g transform="translate(0.000000,100.000000) scale(0.100000,-0.100000)"
fill="#000000" stroke="none">
<path d="M242 958 c-7 -7 -12 -38 -12 -70 l0 -58 -85 0 c-69 0 -87 -3 -92 -16
-11 -29 16 -39 100 -39 l82 0 0 -40 0 -40 -81 3 c-64 3 -83 1 -93 -12 -25 -30
3 -45 92 -48 80 -3 82 -4 82 -28 0 -24 -2 -25 -80 -28 -89 -3 -110 -13 -94
-44 10 -19 18 -20 83 -14 80 7 99 0 94 -35 -3 -24 -5 -24 -91 -20 l-89 3 4
-28 3 -29 74 3 c79 2 101 -7 101 -42 0 -39 -17 -46 -100 -39 -65 5 -78 3 -83
-11 -14 -37 2 -45 91 -48 l87 -3 3 -38 c4 -42 10 -39 -104 -37 -56 1 -73 -2
-77 -14 -15 -38 2 -46 89 -46 l84 0 0 -44 c0 -46 19 -72 45 -62 11 4 15 20 15
55 l0 50 88 3 c85 3 87 3 87 28 0 25 -1 25 -80 25 -44 0 -86 4 -92 8 -7 5 -13
23 -13 42 l0 34 93 3 c91 3 92 3 92 28 0 25 -2 25 -95 30 -90 5 -95 6 -98 28
-7 44 15 55 98 49 89 -6 100 -3 100 29 0 28 1 27 -107 24 -83 -2 -83 -2 -83
23 0 32 24 41 84 32 24 -4 58 -4 76 0 25 5 31 11 28 28 -3 20 -9 22 -83 23
-112 2 -107 1 -103 32 3 27 4 27 93 32 88 5 90 6 90 30 0 25 -1 25 -90 25 -97
0 -105 5 -91 60 6 23 11 24 94 27 85 3 87 3 87 28 l0 25 -87 -3 c-97 -4 -92
-8 -88 66 3 57 -21 87 -48 60z"/>
</g>
</svg>
