<?xml version="1.0" standalone="no"?>
<!DOCTYPE svg PUBLIC "-//W3C//DTD SVG 20010904//EN"
 "http://www.w3.org/TR/2001/REC-SVG-20010904/DTD/svg10.dtd">
<svg version="1.0" xmlns="http://www.w3.org/2000/svg"
 width="344.000000pt" height="590.000000pt" viewBox="0 0 344.000000 590.000000"
 preserveAspectRatio="xMidYMid meet">
<metadata>
Created by potrace 1.16, written by Peter Selinger 2001-2019
</metadata>
<g transform="translate(0.000000,590.000000) scale(0.500000,-0.500000)"
fill="#000000" stroke="none">
<path d="M48 1138 c-9 -3 -11 -13 -9 -52 0 -18 1 -77 1 -131 0 -126 -30 -110
194 -106 89 2 79 9 78 -55 -3 -328 0 -739 5 -743 12 -11 60 -6 65 5 3 8 1 192
-3 200 -1 4 -2 77 -3 264 -1 142 -2 273 -3 291 -2 44 -20 39 135 38 160 -2
138 -25 138 145 0 159 2 144 -24 145 -27 0 -25 7 -25 -95 -1 -132 -1 -134 -20
-134 -4 0 -17 -1 -27 -1 -18 -2 -18 -2 -24 5 l-6 6 0 105 c1 125 4 113 -29
113 -32 0 -30 11 -28 -114 2 -129 7 -118 -58 -118 -39 0 -36 -11 -34 110 l2
99 -10 9 c-16 16 -33 19 -44 9 -6 -5 -6 -5 -5 -111 1 -128 5 -114 -36 -114
-43 0 -39 -11 -37 108 1 109 2 104 -12 115 -10 7 -30 10 -38 4 -9 -6 -10 -13
-8 -117 2 -121 7 -107 -45 -108 -59 0 -54 -11 -53 120 2 116 0 121 -37 108z"/>
</g>
</svg>
