<?xml version="1.0" standalone="no"?>
<!DOCTYPE svg PUBLIC "-//W3C//DTD SVG 20010904//EN"
 "http://www.w3.org/TR/2001/REC-SVG-20010904/DTD/svg10.dtd">
<svg version="1.0" xmlns="http://www.w3.org/2000/svg"
 width="54.000000pt" height="100.000000pt" viewBox="0 0 54.000000 100.000000"
 preserveAspectRatio="xMidYMid meet">
<metadata>
Created by potrace 1.16, written by Peter Selinger 2001-2019
</metadata>
<g transform="translate(0.000000,100.000000) scale(0.100000,-0.100000)"
fill="#000000" stroke="none">
<path d="M31 957 c-8 -10 -9 -40 -5 -100 8 -99 5 -97 125 -97 l76 0 7 -41 c4
-23 4 -68 0 -100 -6 -53 -9 -59 -29 -59 -28 0 -35 16 -28 68 7 56 -3 94 -25
90 -14 -3 -18 -18 -22 -78 -4 -67 -7 -75 -25 -75 -18 0 -21 8 -25 75 -5 69 -7
75 -28 78 -23 3 -23 3 -20 -100 l3 -103 98 -3 97 -3 0 -238 c0 -214 2 -240 17
-245 34 -13 38 10 35 207 -2 106 0 211 3 235 l6 42 93 0 c58 0 96 4 104 12 19
19 16 182 -3 198 -28 23 -44 -5 -47 -83 -3 -64 -5 -72 -23 -72 -17 0 -20 8
-23 55 -4 86 -9 102 -35 98 -20 -3 -22 -9 -23 -76 -1 -79 -13 -104 -39 -82
-13 11 -15 31 -13 109 l3 96 108 3 108 3 -3 97 c-3 96 -3 97 -28 97 -24 0 -25
-3 -30 -75 l-5 -75 -32 -3 c-28 -3 -33 1 -39 23 -3 14 -4 42 -1 62 7 43 -6 73
-33 73 -21 0 -21 0 -24 -95 l-1 -60 -42 -3 c-48 -4 -51 1 -55 98 -3 48 -6 55
-25 58 -25 4 -25 5 -27 -88 l-1 -65 -35 0 -35 0 -5 75 c-4 58 -9 75 -21 78 -9
1 -21 -4 -28 -11z"/>
</g>
</svg>
