<?xml version="1.0" standalone="no"?>
<!DOCTYPE svg PUBLIC "-//W3C//DTD SVG 20010904//EN"
 "http://www.w3.org/TR/2001/REC-SVG-20010904/DTD/svg10.dtd">
<svg version="1.0" xmlns="http://www.w3.org/2000/svg"
 width="322.000000pt" height="590.000000pt" viewBox="0 0 322.000000 590.000000"
 preserveAspectRatio="xMidYMid meet">
<metadata>
Created by potrace 1.16, written by Peter Selinger 2001-2019
</metadata>
<g transform="translate(0.000000,590.000000) scale(0.500000,-0.500000)"
fill="#000000" stroke="none">
<path d="M42 1137 c-10 -2 -10 -6 -8 -114 1 -133 -13 -120 135 -120 98 -1 106
-1 109 -4 5 -6 7 -218 2 -224 -8 -10 -64 -17 -69 -8 -1 1 -2 41 -3 88 -1 96
-1 94 -22 98 -31 5 -31 4 -30 -83 1 -105 1 -104 -29 -104 -32 0 -45 18 -37 51
4 17 4 52 1 60 -3 6 -2 8 1 16 15 33 0 62 -33 61 -26 -1 -24 10 -25 -116 l0
-108 10 -11 c17 -19 9 -17 123 -16 56 0 103 0 106 0 9 -2 9 -5 7 -108 -2 -114
-3 -442 -1 -448 4 -10 45 -14 56 -4 6 5 8 244 3 456 -3 114 -6 107 51 104 26
-1 33 -1 42 2 10 3 11 3 20 0 13 -4 85 -5 94 -1 3 1 12 3 20 4 16 2 22 6 26
21 3 11 3 210 0 217 -3 8 -28 14 -43 10 -19 -5 -18 -1 -18 -92 0 -99 0 -98
-40 -98 -25 0 -24 -4 -24 66 -1 75 -1 82 -4 87 -1 3 -2 7 -2 9 0 20 -9 27 -33
26 -26 -2 -24 6 -25 -101 -1 -50 -2 -91 -2 -92 -10 -10 -52 -5 -56 6 -1 3 -4
9 -5 12 -5 11 -5 30 -3 64 1 18 2 38 2 45 0 7 -1 37 -1 66 -1 66 -4 61 30 59
80 -4 225 -3 229 1 5 5 6 68 1 81 -3 8 -3 37 0 102 2 37 -2 41 -36 41 -33 0
-41 -26 -31 -105 3 -21 3 -18 1 -45 -3 -30 -1 -29 -43 -30 -58 -1 -55 -7 -54
89 1 87 -1 91 -38 91 -26 0 -25 4 -23 -90 2 -101 9 -90 -60 -90 -61 0 -57 -2
-59 26 -1 12 -3 24 -4 28 -1 4 -2 18 -2 31 -1 83 -4 93 -33 95 -25 1 -23 7
-24 -91 -1 -75 -2 -84 -5 -88 -3 -4 -71 -3 -83 1 -8 3 -9 16 -6 102 2 74 -6
85 -55 75z"/>
</g>
</svg>
