<?xml version="1.0" standalone="no"?>
<!DOCTYPE svg PUBLIC "-//W3C//DTD SVG 20010904//EN"
 "http://www.w3.org/TR/2001/REC-SVG-20010904/DTD/svg10.dtd">
<svg version="1.0" xmlns="http://www.w3.org/2000/svg"
 width="430.000000pt" height="590.000000pt" viewBox="0 0 430.000000 590.000000"
 preserveAspectRatio="xMidYMid meet">
<metadata>
Created by potrace 1.16, written by Peter Selinger 2001-2019
</metadata>
<g transform="translate(0.000000,590.000000) scale(0.500000,-0.500000)"
fill="#000000" stroke="none">
<path d="M391 1138 c-2 -2 -4 -3 -5 -3 -4 -4 -5 -75 -2 -121 5 -69 4 -119 -2
-121 -4 -2 -42 -2 -157 -1 -172 2 -169 2 -174 -8 -6 -12 -4 -221 2 -226 28
-22 55 -3 55 38 0 23 1 33 3 39 2 5 3 15 3 43 0 41 55 69 80 41 8 -9 16 -35
15 -47 -10 -92 -3 -118 28 -118 34 0 34 0 33 60 -2 61 0 104 4 106 1 1 12 2
24 3 11 1 24 3 28 4 9 4 22 4 31 0 6 -3 9 -3 17 -2 18 4 18 3 14 -84 -2 -45
-1 -69 4 -79 6 -12 53 -10 60 2 3 5 3 54 0 65 -1 4 -3 10 -4 14 -2 7 0 14 7
19 4 3 4 6 5 30 1 34 -3 31 52 31 65 0 59 7 58 -68 -2 -94 -2 -93 8 -98 29
-15 50 11 50 60 1 101 2 105 21 105 5 0 15 2 22 3 11 3 14 3 20 1 3 -1 12 -3
19 -4 25 -3 25 -2 23 -86 -2 -88 -4 -82 31 -82 38 0 37 -3 37 78 0 38 1 65 3
68 5 14 5 77 -1 85 -3 5 -28 12 -40 11 -5 0 -29 -1 -52 -2 -27 -1 -47 -1 -57
1 -11 1 -19 1 -29 -1 -19 -3 -151 -3 -162 0 -12 3 -12 -2 -9 115 3 114 3 115
-7 122 -13 8 -46 12 -56 7z"/>
<path d="M76 520 c-12 -7 -11 -6 -10 -130 1 -143 -1 -141 88 -130 9 1 58 3
107 3 50 0 97 1 106 2 23 2 28 -3 30 -39 2 -29 2 -29 -1 -53 -5 -44 -3 -118 3
-123 21 -16 71 -2 68 19 -1 5 -2 33 -3 60 -1 28 -3 55 -4 61 -1 5 -2 13 -1 16
1 3 2 16 3 29 2 35 -12 32 141 31 231 -2 206 -9 205 58 -1 70 0 109 1 150 2
51 2 50 -31 50 -36 0 -34 11 -32 -141 1 -57 6 -53 -69 -53 -61 0 -57 -10 -50
152 2 34 -6 43 -35 42 -25 -1 -23 7 -22 -98 1 -109 8 -96 -56 -97 -70 -1 -63
-13 -61 99 2 105 5 95 -31 96 -42 1 -42 0 -37 -53 1 -20 4 -51 5 -70 1 -19 3
-39 3 -45 4 -33 -3 -37 -62 -35 -68 1 -62 -9 -61 106 1 104 4 95 -28 97 -42 1
-44 -8 -33 -118 7 -71 2 -83 -36 -85 -46 -2 -46 -2 -45 98 1 90 1 81 -7 91
-11 15 -30 19 -45 10z"/>
</g>
</svg>
