<?xml version="1.0" standalone="no"?>
<!DOCTYPE svg PUBLIC "-//W3C//DTD SVG 20010904//EN"
 "http://www.w3.org/TR/2001/REC-SVG-20010904/DTD/svg10.dtd">
<svg version="1.0" xmlns="http://www.w3.org/2000/svg"
 width="108.000000pt" height="148.000000pt" viewBox="0 0 108.000000 148.000000"
 preserveAspectRatio="xMidYMid meet">
<metadata>
Created by potrace 1.16, written by Peter Selinger 2001-2019
</metadata>
<g transform="translate(0.000000,148.000000) scale(0.100000,-0.100000)"
fill="#000000" stroke="none">
<path d="M481 1268 l4 -153 -207 -1 c-115 0 -210 -3 -212 -5 -2 -2 -6 -66 -7
-141 -4 -149 1 -165 45 -154 23 6 26 12 28 59 1 28 3 68 4 87 1 19 3 43 3 53
1 14 11 17 56 17 53 0 54 0 60 -33 4 -18 5 -64 3 -102 -3 -67 -2 -69 24 -79
19 -7 31 -6 43 4 13 10 14 28 9 105 -5 63 -3 94 4 99 6 4 43 9 83 11 l71 4 -7
-93 c-8 -105 1 -136 39 -136 30 0 49 23 41 50 -4 11 -3 55 0 96 l7 75 72 -3
71 -3 -4 -102 c-3 -89 -1 -104 14 -109 10 -4 24 1 35 12 15 15 20 37 22 109
l3 89 36 8 c20 4 49 4 65 -1 l29 -8 0 -96 c0 -105 7 -120 51 -115 l29 3 7 140
c5 92 4 143 -3 150 -6 6 -89 10 -222 10 l-212 0 0 140 c-1 77 -4 146 -8 153
-5 6 -24 12 -44 12 l-35 0 3 -152z"/>
<path d="M89 644 c-15 -18 -14 -291 2 -310 6 -8 69 -10 204 -6 161 4 195 2
197 -9 1 -8 2 -70 3 -139 l0 -125 40 0 40 0 0 132 c0 72 3 134 6 138 4 3 101
7 215 8 l209 2 1 120 c0 67 4 133 7 147 11 43 -33 73 -71 49 -11 -6 -13 -35
-10 -122 l3 -114 -77 -3 -78 -3 0 120 c0 120 0 121 -24 127 -44 11 -48 0 -45
-125 l4 -116 -79 -3 -78 -3 3 113 c2 62 0 119 -4 126 -11 16 -52 15 -69 -2
-11 -10 -13 -28 -7 -72 4 -33 8 -85 8 -116 1 -67 -4 -70 -94 -60 l-60 7 0 119
c0 100 -3 120 -17 129 -12 8 -24 7 -44 -1 l-27 -13 8 -77 c8 -79 8 -152 -1
-161 -12 -13 -71 -8 -88 7 -16 15 -17 27 -11 110 6 77 4 97 -9 117 -19 29 -38
32 -57 9z"/>
</g>
</svg>
