<?xml version="1.0" standalone="no"?>
<!DOCTYPE svg PUBLIC "-//W3C//DTD SVG 20010904//EN"
 "http://www.w3.org/TR/2001/REC-SVG-20010904/DTD/svg10.dtd">
<svg version="1.0" xmlns="http://www.w3.org/2000/svg"
 width="128.000000pt" height="148.000000pt" viewBox="0 0 128.000000 148.000000"
 preserveAspectRatio="xMidYMid meet">
<metadata>
Created by potrace 1.16, written by Peter Selinger 2001-2019
</metadata>
<g transform="translate(0.000000,148.000000) scale(0.100000,-0.100000)"
fill="#000000" stroke="none">
<path d="M95 1398 c-3 -7 -4 -308 -3 -668 l3 -655 29 0 29 0 -1 658 c-1 362
-4 662 -7 667 -9 14 -45 12 -50 -2z"/>
<path d="M297 1404 c-13 -14 -8 -181 6 -192 8 -7 72 -13 156 -14 l142 -3 5
-162 5 -163 -24 0 c-24 0 -25 4 -33 82 -7 68 -12 83 -27 86 -37 7 -46 -4 -35
-44 5 -20 7 -57 3 -81 l-6 -43 -64 0 -64 0 -3 83 -3 82 -30 0 -30 0 -3 -99
c-2 -67 1 -103 10 -113 10 -12 37 -14 149 -12 76 2 141 1 144 -3 4 -4 7 -162
6 -351 -2 -372 -2 -373 51 -365 l23 3 0 360 0 360 165 3 c90 2 166 5 168 7 2
2 0 50 -4 107 l-9 103 -30 0 c-25 0 -30 -4 -33 -28 -2 -16 1 -34 7 -41 7 -8 6
-24 -4 -51 l-13 -40 -59 0 -58 0 -5 80 c-5 76 -6 80 -30 83 -45 4 -51 -7 -39
-78 12 -77 8 -90 -31 -90 l-30 0 0 154 c0 131 2 156 17 167 11 10 58 15 165
17 l148 4 -1 86 c-2 91 -10 112 -39 112 -28 0 -45 -27 -34 -53 6 -12 7 -38 4
-57 l-5 -35 -65 0 -65 0 0 60 c-1 73 -7 85 -46 85 -32 0 -32 0 -29 -87 2 -63
2 -63 -27 -64 -80 -2 -125 -1 -129 4 -3 2 -6 33 -8 68 -3 66 -18 88 -50 76
-13 -5 -16 -21 -16 -77 l0 -70 -65 0 -65 0 -1 33 c-3 112 -3 112 -29 115 -14
2 -29 0 -33 -4z"/>
<path d="M1095 1398 c-2 -7 -3 -310 -2 -673 l2 -660 30 0 30 0 0 670 0 670
-28 3 c-16 2 -29 -2 -32 -10z"/>
</g>
</svg>
