<?xml version="1.0" standalone="no"?>
<!DOCTYPE svg PUBLIC "-//W3C//DTD SVG 20010904//EN"
 "http://www.w3.org/TR/2001/REC-SVG-20010904/DTD/svg10.dtd">
<svg version="1.0" xmlns="http://www.w3.org/2000/svg"
 width="508.000000pt" height="590.000000pt" viewBox="0 0 508.000000 590.000000"
 preserveAspectRatio="xMidYMid meet">
<metadata>
Created by potrace 1.16, written by Peter Selinger 2001-2019
</metadata>
<g transform="translate(0.000000,590.000000) scale(0.500000,-0.500000)"
fill="#000000" stroke="none">
<path d="M83 1126 c-12 -5 -11 34 -11 -533 0 -496 0 -521 3 -525 9 -9 36 -10
47 -1 5 5 5 5 4 290 -1 157 -1 392 0 521 0 183 0 236 -2 240 -5 8 -28 13 -41
8z"/>
<path d="M885 1126 c-6 -2 -10 -5 -12 -9 -2 -3 -3 -149 -3 -444 -1 -694 -2
-612 4 -617 8 -9 43 -7 49 2 3 4 1 1056 -1 1061 -4 7 -24 11 -37 7z"/>
<path d="M240 1123 c-9 -4 -10 -7 -8 -76 1 -96 -11 -88 132 -88 135 0 117 12
118 -78 4 -189 4 -187 -18 -184 -12 1 -14 4 -14 24 0 11 -1 20 -4 27 -3 9 -4
17 -4 40 0 37 -1 39 -21 41 -25 3 -35 -4 -28 -20 5 -13 7 -67 2 -79 -2 -5 -4
-13 -4 -18 -2 -14 -1 -14 -47 -14 -44 0 -51 1 -54 9 -2 6 -3 52 -1 81 2 37 -1
42 -26 42 -32 0 -31 4 -31 -84 0 -106 -6 -101 125 -98 106 3 111 3 117 0 8 -4
8 -9 6 -92 -4 -178 -4 -456 1 -465 11 -21 52 -23 59 -2 1 4 2 33 1 96 -1 49
-2 162 -2 251 -1 89 -2 171 -2 184 0 29 2 31 30 31 10 0 21 1 24 3 4 1 34 2
106 2 122 0 109 -5 109 39 0 23 -1 33 -3 38 -2 6 -3 16 -3 46 0 50 -15 64 -49
49 -11 -5 -13 -45 -2 -58 6 -8 6 -8 -1 -23 -5 -9 -6 -14 -6 -24 0 -20 -1 -21
-37 -21 -17 0 -36 -1 -43 -1 -24 -3 -24 -3 -24 64 0 67 0 68 -40 64 -22 -2
-27 -11 -18 -30 18 -36 4 -101 -22 -101 -25 0 -25 1 -23 61 1 22 1 69 1 104 0
78 5 97 28 97 3 0 12 1 20 3 13 3 30 3 108 3 103 -1 101 -1 106 11 3 8 2 53
-1 63 -2 6 -3 17 -3 41 0 42 -1 43 -25 44 -33 3 -46 -20 -28 -47 6 -10 6 -10
0 -21 -4 -7 -5 -13 -5 -23 0 -21 0 -21 -53 -22 -56 -1 -51 -7 -51 55 0 58 1
57 -25 59 -29 1 -40 -5 -35 -20 16 -47 4 -96 -25 -98 -76 -7 -97 -2 -97 20 0
8 -2 19 -4 26 -3 10 -4 19 -4 36 0 29 -2 33 -19 35 -29 4 -33 -2 -30 -44 1
-31 1 -33 -3 -45 -2 -7 -4 -15 -4 -18 0 -11 -1 -11 -37 -12 -67 -1 -63 -8 -60
91 0 27 -21 38 -49 26z"/>
</g>
</svg>
