<?xml version="1.0" standalone="no"?>
<!DOCTYPE svg PUBLIC "-//W3C//DTD SVG 20010904//EN"
 "http://www.w3.org/TR/2001/REC-SVG-20010904/DTD/svg10.dtd">
<svg version="1.0" xmlns="http://www.w3.org/2000/svg"
 width="86.000000pt" height="100.000000pt" viewBox="0 0 86.000000 100.000000"
 preserveAspectRatio="xMidYMid meet">
<metadata>
Created by potrace 1.16, written by Peter Selinger 2001-2019
</metadata>
<g transform="translate(0.000000,100.000000) scale(0.100000,-0.100000)"
fill="#000000" stroke="none">
<path d="M60 506 c0 -262 4 -457 9 -460 5 -4 16 -3 25 0 15 6 16 51 14 458
l-3 451 -22 3 -23 3 0 -455z"/>
<path d="M194 935 c-7 -27 0 -112 9 -122 3 -3 46 -5 96 -4 49 1 92 -3 95 -8
13 -21 19 -198 7 -205 -13 -9 -31 33 -31 74 0 23 -15 40 -35 40 -2 0 -5 -26
-7 -57 l-3 -58 -35 0 -35 0 -5 55 c-5 51 -7 55 -30 55 -24 0 -25 -3 -28 -66
-4 -94 6 -102 117 -97 l86 3 5 -240 5 -240 25 0 25 0 3 242 2 242 108 3 107 3
3 54 c4 78 -4 103 -31 99 -19 -3 -22 -10 -25 -55 -3 -44 -6 -52 -27 -57 -42
-11 -54 2 -57 57 -3 44 -6 52 -23 52 -17 0 -21 -8 -25 -55 -4 -40 -9 -55 -20
-55 -18 0 -26 106 -12 170 l8 40 99 5 100 5 3 68 c2 54 0 68 -13 73 -24 10
-40 -12 -37 -51 4 -38 -19 -58 -56 -48 -17 4 -22 14 -24 52 -3 42 -5 46 -28
46 -23 0 -25 -5 -30 -50 l-5 -50 -45 0 c-43 0 -45 2 -48 30 -5 59 -12 75 -32
75 -17 0 -20 -7 -20 -44 0 -49 -17 -69 -52 -64 -20 3 -24 10 -28 53 -4 42 -8
50 -27 53 -17 3 -24 -3 -29 -23z"/>
<path d="M735 938 c-3 -13 -4 -221 -3 -463 3 -432 3 -440 23 -440 20 0 20 7
20 460 0 426 -1 460 -17 463 -11 2 -19 -5 -23 -20z"/>
</g>
</svg>
