<?xml version="1.0" standalone="no"?>
<!DOCTYPE svg PUBLIC "-//W3C//DTD SVG 20010904//EN"
 "http://www.w3.org/TR/2001/REC-SVG-20010904/DTD/svg10.dtd">
<svg version="1.0" xmlns="http://www.w3.org/2000/svg"
 width="55.000000pt" height="100.000000pt" viewBox="0 0 55.000000 100.000000"
 preserveAspectRatio="xMidYMid meet">
<metadata>
Created by potrace 1.16, written by Peter Selinger 2001-2019
</metadata>
<g transform="translate(0.000000,100.000000) scale(0.100000,-0.100000)"
fill="#000000" stroke="none">
<path d="M37 964 c-9 -9 -9 -834 -1 -886 l7 -38 233 0 234 0 0 465 c0 458 0
465 -20 465 -19 0 -20 -7 -20 -162 0 -90 -3 -288 -7 -440 l-6 -278 -44 0 -43
0 -2 437 -3 438 -22 3 -23 3 -2 -438 -3 -438 -42 -3 -43 -3 -1 43 c-1 24 -1
205 1 403 2 398 -1 438 -34 433 l-21 -3 -3 -436 c-2 -434 -2 -437 -23 -442
-12 -3 -32 -2 -45 3 l-24 9 -2 433 c-3 381 -5 433 -18 436 -9 1 -19 0 -23 -4z"/>
</g>
</svg>
