<?xml version="1.0" standalone="no"?>
<!DOCTYPE svg PUBLIC "-//W3C//DTD SVG 20010904//EN"
 "http://www.w3.org/TR/2001/REC-SVG-20010904/DTD/svg10.dtd">
<svg version="1.0" xmlns="http://www.w3.org/2000/svg"
 width="330.000000pt" height="590.000000pt" viewBox="0 0 330.000000 590.000000"
 preserveAspectRatio="xMidYMid meet">
<metadata>
Created by potrace 1.16, written by Peter Selinger 2001-2019
</metadata>
<g transform="translate(0.000000,590.000000) scale(0.500000,-0.500000)"
fill="#000000" stroke="none">
<path d="M48 1138 c-3 -1 -6 -4 -7 -6 -2 -5 -1 -1051 1 -1058 2 -8 10 -17 18
-21 9 -5 537 -4 546 0 13 7 12 -33 12 546 0 564 1 536 -8 539 -15 5 -42 1 -45
-6 -1 -1 -1 -233 -1 -513 0 -492 0 -510 -3 -513 -6 -5 -109 -7 -114 -2 -4 4
-5 820 -2 960 2 64 1 69 -7 73 -10 5 -40 4 -46 -2 -5 -4 -5 -4 -3 -512 1 -478
1 -509 -3 -513 -3 -4 -5 -4 -34 -5 -17 0 -34 -2 -38 -3 -14 -4 -35 -1 -42 6
-4 4 -4 18 -3 513 2 510 2 510 -3 514 -5 5 -35 7 -44 3 -10 -4 -11 -10 -9 -70
3 -138 2 -953 -2 -959 -7 -10 -102 -14 -113 -4 -4 4 -4 10 -4 515 1 510 1 510
-4 514 -4 5 -33 8 -42 4z"/>
</g>
</svg>
