<?xml version="1.0" standalone="no"?>
<!DOCTYPE svg PUBLIC "-//W3C//DTD SVG 20010904//EN"
 "http://www.w3.org/TR/2001/REC-SVG-20010904/DTD/svg10.dtd">
<svg version="1.0" xmlns="http://www.w3.org/2000/svg"
 width="118.000000pt" height="148.000000pt" viewBox="0 0 118.000000 148.000000"
 preserveAspectRatio="xMidYMid meet">
<metadata>
Created by potrace 1.16, written by Peter Selinger 2001-2019
</metadata>
<g transform="translate(0.000000,148.000000) scale(0.100000,-0.100000)"
fill="#000000" stroke="none">
<path d="M106 1391 c-4 -6 -9 -88 -11 -183 -9 -335 -17 -735 -18 -928 l-2
-195 427 -2 c235 -1 430 1 432 6 3 5 6 158 7 340 1 273 3 331 15 331 7 0 21
-11 30 -25 9 -13 31 -34 50 -46 28 -17 37 -19 49 -9 19 16 19 35 -1 65 -19 30
-106 95 -126 95 -11 0 -13 42 -10 253 1 138 4 263 5 277 2 23 -2 25 -37 25
l-38 0 -3 -365 c-1 -201 -3 -431 -4 -512 l-1 -148 -104 0 c-58 0 -106 3 -108
8 -6 12 8 391 14 398 4 3 30 -20 60 -50 39 -41 61 -56 81 -56 17 0 27 5 27 15
0 24 -67 107 -123 151 -29 23 -51 45 -50 50 6 34 12 176 15 329 l2 180 -37 3
-37 3 -1 -133 c-3 -246 -9 -522 -15 -711 l-7 -188 -86 3 -86 3 5 155 c3 85 5
183 5 218 0 34 4 62 9 62 5 0 32 -18 58 -41 50 -42 78 -46 78 -10 0 11 -14 32
-32 48 -18 15 -50 46 -71 67 l-40 40 7 243 7 243 -34 0 c-31 0 -35 -3 -41 -31
-3 -17 -6 -161 -6 -319 0 -158 -3 -375 -7 -484 l-6 -197 -96 3 -96 3 -3 70
c-1 39 1 111 5 160 4 50 5 119 2 155 -4 36 -5 68 -2 73 2 4 30 -15 61 -43 60
-53 102 -66 102 -30 0 23 -35 58 -109 107 l-53 36 6 101 c3 55 7 166 8 246 l3
145 -32 3 c-17 2 -34 -1 -37 -7z m232 -1150 c2 -45 -2 -78 -9 -87 -8 -10 -36
-14 -100 -14 l-89 0 0 54 c0 29 3 67 6 84 6 31 6 31 83 35 42 2 83 3 91 2 12
0 16 -17 18 -74z m251 63 c4 -5 6 -44 3 -86 l-4 -78 -75 0 c-107 0 -113 5
-113 94 0 40 3 76 8 80 10 11 170 2 181 -10z m286 -79 l0 -80 -85 -5 c-47 -3
-97 -4 -112 -2 l-28 3 0 84 0 84 28 3 c15 2 65 1 112 -2 l85 -5 0 -80z"/>
</g>
</svg>
