<?xml version="1.0" standalone="no"?>
<!DOCTYPE svg PUBLIC "-//W3C//DTD SVG 20010904//EN"
 "http://www.w3.org/TR/2001/REC-SVG-20010904/DTD/svg10.dtd">
<svg version="1.0" xmlns="http://www.w3.org/2000/svg"
 width="80.000000pt" height="100.000000pt" viewBox="0 0 80.000000 100.000000"
 preserveAspectRatio="xMidYMid meet">
<metadata>
Created by potrace 1.16, written by Peter Selinger 2001-2019
</metadata>
<g transform="translate(0.000000,100.000000) scale(0.100000,-0.100000)"
fill="#000000" stroke="none">
<path d="M251 943 c-5 -10 -11 -164 -12 -342 -3 -209 -8 -329 -15 -339 -8 -11
-22 -13 -62 -7 l-52 7 0 139 c0 94 4 139 11 139 6 0 24 -9 40 -21 29 -20 59
-20 59 0 0 5 -23 29 -51 53 l-51 43 4 165 3 165 -27 3 c-18 2 -28 -2 -32 -15
-3 -10 -8 -210 -12 -445 l-7 -427 24 -6 c13 -3 146 -4 294 -3 l270 3 3 223 c2
151 6 222 13 222 6 0 25 -11 41 -25 33 -28 51 -28 56 -1 4 21 -12 41 -63 78
l-40 29 4 186 3 185 -28 -4 -29 -3 -5 -340 -5 -340 -40 -7 c-22 -4 -53 -5 -69
-2 l-28 6 3 118 c2 65 7 122 12 126 4 4 22 -7 40 -24 34 -33 51 -39 62 -21 9
14 -37 80 -76 108 l-31 23 7 180 8 180 -29 -4 -29 -3 -7 -330 c-4 -181 -10
-335 -13 -342 -3 -8 -23 -13 -55 -13 l-50 0 0 135 c0 125 1 135 19 135 10 0
24 -7 31 -15 7 -8 18 -15 26 -15 30 0 23 23 -20 65 l-46 44 0 170 c0 145 -2
170 -16 175 -22 8 -22 8 -33 -11z m-26 -788 l0 -50 -60 0 -60 0 -3 38 c-5 55
11 69 72 65 l51 -3 0 -50z m173 21 c2 -15 1 -39 -3 -53 -5 -22 -10 -24 -58
-21 l-52 3 -3 53 -3 53 58 -3 c56 -3 58 -4 61 -32z m155 28 l38 -7 -3 -46 -3
-46 -67 -3 -68 -3 0 49 c0 27 3 52 7 55 8 9 46 9 96 1z"/>
</g>
</svg>
