<?xml version="1.0" standalone="no"?>
<!DOCTYPE svg PUBLIC "-//W3C//DTD SVG 20010904//EN"
 "http://www.w3.org/TR/2001/REC-SVG-20010904/DTD/svg10.dtd">
<svg version="1.0" xmlns="http://www.w3.org/2000/svg"
 width="452.000000pt" height="590.000000pt" viewBox="0 0 452.000000 590.000000"
 preserveAspectRatio="xMidYMid meet">
<metadata>
Created by potrace 1.16, written by Peter Selinger 2001-2019
</metadata>
<g transform="translate(0.000000,590.000000) scale(0.500000,-0.500000)"
fill="#000000" stroke="none">
<path d="M74 1138 c-7 -4 -8 -9 -5 -17 3 -6 4 -16 4 -40 0 -18 2 -60 4 -94 8
-159 9 -184 7 -194 -3 -10 -2 -61 5 -271 4 -118 4 -131 7 -153 2 -19 5 -78 8
-189 3 -74 3 -76 11 -81 8 -5 86 -5 102 0 11 3 53 3 168 -1 35 -1 63 -1 70 0
7 1 72 2 146 2 143 0 143 0 146 10 2 5 -1 156 -2 159 -1 0 -1 31 -1 69 0 37 0
70 0 74 0 4 0 69 -1 145 0 107 -1 143 -3 159 -3 23 -2 37 4 40 2 1 11 5 20 10
10 4 22 11 26 16 5 4 14 11 20 15 36 27 53 60 41 83 -7 14 -31 13 -44 -2 -5
-5 -13 -10 -19 -10 -5 0 -13 -9 -18 -21 -9 -19 -24 -25 -28 -11 -4 13 -5 74
-1 96 3 16 3 22 1 31 -1 8 -2 39 -2 90 0 95 3 87 -35 87 -19 0 -25 -1 -29 -3
-5 -4 -5 -4 0 -23 4 -20 9 -227 9 -432 0 -121 1 -231 3 -271 3 -72 2 -78 -3
-80 -10 -4 -136 -4 -141 1 -6 4 -5 -7 -9 229 -1 106 -3 151 -6 162 -2 11 -2
11 37 41 40 30 44 34 56 55 8 15 15 24 25 34 20 19 22 32 7 40 -22 11 -51 -8
-106 -68 -13 -15 -16 -13 -16 13 0 11 -1 20 -3 25 -3 7 -4 23 -5 138 -1 154 2
138 -30 138 -37 0 -35 24 -22 -214 6 -101 6 -123 4 -133 -2 -13 0 -130 5 -247
8 -173 8 -213 0 -216 -10 -4 -120 -1 -124 3 -4 5 -4 -15 -9 264 l-2 105 11 15
c13 20 31 38 51 52 41 28 55 49 45 68 -9 17 -26 16 -42 -4 -13 -14 -49 -40
-58 -40 -5 0 -8 19 -8 61 0 13 -1 29 -3 36 -1 8 -2 36 -2 86 -1 170 0 165 -33
165 -26 0 -33 -4 -29 -16 2 -3 3 -33 3 -88 1 -73 2 -85 5 -101 4 -20 8 -112 7
-156 -3 -61 3 -399 6 -411 3 -12 3 -13 0 -23 -5 -17 -4 -17 -65 -17 -83 0 -82
0 -82 32 0 11 -1 24 -2 30 -3 18 -4 320 -1 325 3 6 12 13 30 24 8 5 23 16 34
25 10 10 22 20 27 24 13 8 24 21 25 29 4 20 -16 32 -34 20 -5 -4 -21 -14 -36
-25 -15 -10 -32 -23 -37 -28 -13 -14 -21 -11 -16 6 4 14 5 90 1 102 -2 9 -3
20 -3 44 0 23 -1 33 -3 39 -4 8 -4 113 -1 130 7 35 7 35 -32 35 -15 0 -29 -1
-30 -2z m182 -860 c9 -5 -2 -17 -68 -74 -31 -27 -33 -25 -35 32 -1 40 -1 40
12 42 16 2 87 2 91 0z m193 1 c9 -4 -66 -84 -83 -88 -11 -3 -19 74 -9 85 4 4
82 6 92 3z m194 0 c16 -3 13 -7 -40 -50 -60 -48 -59 -48 -62 15 -2 36 29 47
102 35z m-150 -28 c3 -4 5 -19 5 -61 1 -43 6 -39 -55 -41 -74 -2 -74 -4 -17
52 55 53 60 57 67 50z m-193 -6 c8 -10 6 -90 -3 -95 -1 -1 -25 -2 -53 -2 -68
0 -66 -2 -28 34 72 70 76 73 84 63z m391 -2 c4 -13 2 -81 -1 -84 -4 -4 -32 -7
-74 -7 -57 0 -58 -1 10 52 61 49 62 50 65 39z"/>
</g>
</svg>
