<?xml version="1.0" standalone="no"?>
<!DOCTYPE svg PUBLIC "-//W3C//DTD SVG 20010904//EN"
 "http://www.w3.org/TR/2001/REC-SVG-20010904/DTD/svg10.dtd">
<svg version="1.0" xmlns="http://www.w3.org/2000/svg"
 width="77.000000pt" height="100.000000pt" viewBox="0 0 77.000000 100.000000"
 preserveAspectRatio="xMidYMid meet">
<metadata>
Created by potrace 1.16, written by Peter Selinger 2001-2019
</metadata>
<g transform="translate(0.000000,100.000000) scale(0.100000,-0.100000)"
fill="#000000" stroke="none">
<path d="M57 955 c-4 -8 -4 -28 -2 -43 3 -15 9 -191 15 -392 6 -201 13 -382
17 -403 l6 -37 271 2 271 3 -4 277 -3 276 23 12 c38 19 79 62 79 81 0 30 -18
31 -53 5 -19 -15 -37 -26 -40 -26 -4 0 -8 57 -9 128 l-3 127 -25 0 -25 0 4
-343 3 -343 -58 3 -59 3 -3 172 -2 172 30 23 c54 39 85 108 50 108 -5 0 -25
-14 -45 -31 -25 -22 -36 -27 -40 -17 -3 7 -6 67 -7 133 l-3 120 -25 0 -25 0 2
-155 c2 -85 5 -239 9 -341 l6 -186 -27 -5 c-15 -3 -39 -2 -54 1 l-26 7 -3 157
-3 157 41 44 c55 60 52 88 -6 50 -13 -9 -28 -13 -32 -10 -4 4 -9 69 -12 144
l-5 137 -25 0 c-24 0 -25 -3 -23 -50 0 -27 4 -182 9 -343 l7 -293 -59 3 -59 3
-3 161 -2 161 39 28 c69 47 68 96 0 57 -29 -17 -41 -20 -44 -10 -3 7 -6 74 -7
148 l-3 135 -26 3 c-17 2 -29 -3 -32 -13z m363 -785 l0 -40 -40 0 c-24 0 -40
5 -40 12 0 12 59 67 73 68 4 0 7 -18 7 -40z m-160 2 c0 -15 -5 -33 -12 -40 -7
-7 -25 -12 -40 -12 -35 0 -37 22 -3 55 33 34 55 32 55 -3z"/>
</g>
</svg>
