<?xml version="1.0" standalone="no"?>
<!DOCTYPE svg PUBLIC "-//W3C//DTD SVG 20010904//EN"
 "http://www.w3.org/TR/2001/REC-SVG-20010904/DTD/svg10.dtd">
<svg version="1.0" xmlns="http://www.w3.org/2000/svg"
 width="114.000000pt" height="148.000000pt" viewBox="0 0 114.000000 148.000000"
 preserveAspectRatio="xMidYMid meet">
<metadata>
Created by potrace 1.16, written by Peter Selinger 2001-2019
</metadata>
<g transform="translate(0.000000,148.000000) scale(0.100000,-0.100000)"
fill="#000000" stroke="none">
<path d="M357 1424 c-10 -10 -8 -205 3 -289 5 -38 10 -216 11 -395 l2 -325
-90 -3 -90 -3 -7 38 c-3 21 -6 131 -6 245 l0 208 28 17 c53 33 122 95 122 109
0 29 -31 26 -78 -7 -26 -18 -51 -39 -55 -46 -18 -29 -24 -9 -23 70 0 45 -3
139 -8 209 -7 93 -6 131 2 141 17 20 5 27 -45 27 -40 0 -43 -2 -39 -22 8 -38
16 -257 22 -573 3 -165 9 -347 15 -405 5 -58 9 -146 9 -196 0 -103 9 -120 57
-108 15 4 190 8 388 8 l360 1 -3 380 c-2 209 -5 392 -8 407 -5 23 0 30 33 47
47 23 123 95 123 115 0 8 -7 22 -16 30 -14 14 -19 13 -54 -10 -22 -15 -42 -35
-45 -45 -7 -21 -31 -25 -38 -6 -2 6 -2 91 1 187 5 190 1 206 -50 198 l-23 -3
3 -380 c1 -209 5 -437 9 -507 l5 -127 -92 -3 c-55 -2 -95 1 -100 7 -5 6 -10
123 -11 260 l-2 250 46 35 c55 42 120 127 113 146 -11 29 -48 14 -101 -41 -30
-30 -57 -55 -60 -55 -3 0 -5 89 -5 198 0 108 -4 202 -8 209 -7 11 -57 12 -68
1 -2 -3 0 -95 5 -204 6 -110 13 -329 16 -488 3 -160 7 -295 8 -300 1 -7 -31
-12 -85 -14 l-88 -3 -1 173 c0 95 -2 202 -5 238 l-4 65 70 65 c38 36 70 73 70
83 0 34 -29 29 -80 -14 -27 -23 -52 -40 -55 -37 -3 2 -8 101 -11 219 -4 118
-7 215 -8 216 -5 7 -53 13 -59 7z m-27 -1083 c0 -11 -116 -111 -129 -111 -11
0 -18 41 -12 88 l3 32 69 0 c38 0 69 -4 69 -9z m240 1 c0 -12 -106 -112 -119
-112 -7 0 -11 22 -11 60 l0 60 65 0 c36 0 65 -4 65 -8z m251 -6 c-19 -23 -117
-96 -128 -96 -11 0 -26 87 -17 101 3 5 39 9 81 9 64 0 74 -2 64 -14z m-441
-92 l0 -64 -82 0 -83 0 75 69 c41 38 78 67 83 64 4 -2 7 -33 7 -69z m245 43
c4 -18 5 -49 3 -68 l-3 -34 -80 -3 -80 -3 70 71 c38 38 73 70 77 70 4 0 10
-15 13 -33z m242 -93 c-2 -2 -36 -7 -75 -10 -87 -8 -95 6 -29 53 23 17 56 43
72 57 l30 26 3 -61 c2 -34 1 -63 -1 -65z"/>
</g>
</svg>
