<?xml version="1.0" standalone="no"?>
<!DOCTYPE svg PUBLIC "-//W3C//DTD SVG 20010904//EN"
 "http://www.w3.org/TR/2001/REC-SVG-20010904/DTD/svg10.dtd">
<svg version="1.0" xmlns="http://www.w3.org/2000/svg"
 width="112.000000pt" height="148.000000pt" viewBox="0 0 112.000000 148.000000"
 preserveAspectRatio="xMidYMid meet">
<metadata>
Created by potrace 1.16, written by Peter Selinger 2001-2019
</metadata>
<g transform="translate(0.000000,148.000000) scale(0.100000,-0.100000)"
fill="#000000" stroke="none">
<path d="M198 1298 c0 -68 -1 -130 0 -138 6 -64 2 -144 -6 -152 -8 -8 -16 -2
-29 20 -10 18 -22 32 -27 32 -6 0 -20 10 -32 21 -13 12 -30 19 -38 16 -20 -8
-20 -55 -2 -80 22 -28 100 -87 117 -87 14 0 15 -46 15 -432 l-1 -433 340 -2
c187 -1 369 -4 405 -7 36 -3 70 -3 76 2 13 8 32 384 39 742 2 129 7 322 11
428 l6 193 -38 -3 -39 -3 -4 -155 c-3 -85 -4 -195 -4 -243 l0 -88 -26 24 c-61
55 -114 87 -128 76 -7 -6 -13 -17 -13 -24 0 -13 83 -87 133 -118 l27 -17 0
-194 c0 -106 -3 -220 -6 -254 l-7 -60 -86 -4 c-47 -3 -90 -1 -95 3 -5 5 -8
120 -6 266 4 355 5 392 15 606 l8 187 -35 0 -36 0 -7 -230 c-5 -165 -11 -230
-19 -230 -7 0 -31 18 -54 40 -44 43 -66 50 -76 24 -9 -23 9 -49 61 -89 79 -60
76 -47 74 -323 -1 -136 -4 -248 -6 -251 -8 -7 -167 -7 -171 1 -5 8 14 810 23
956 l6 102 -36 0 c-20 0 -38 -4 -41 -8 -3 -5 -6 -99 -7 -210 0 -111 -5 -205
-10 -208 -5 -3 -22 9 -37 27 -46 56 -76 79 -100 79 -32 0 -39 -27 -13 -51 11
-11 27 -32 35 -47 8 -15 39 -45 69 -67 55 -40 55 -40 52 -85 -3 -25 -7 -144
-10 -264 -3 -121 -9 -222 -14 -225 -5 -3 -50 -5 -100 -3 l-90 3 4 237 c3 130
7 369 10 530 l4 292 -39 0 -40 0 -2 -122z m260 -1052 c5 -82 0 -83 -82 -19
-41 31 -72 61 -69 66 2 4 37 7 76 5 l72 -3 3 -49z m250 -5 c5 -82 -9 -85 -78
-16 -32 32 -57 62 -54 67 3 5 33 8 67 6 l62 -3 3 -54z m265 52 c7 -16 -5 -123
-15 -123 -12 0 -138 111 -138 122 0 10 147 11 153 1z m-353 -108 l65 -66 -85
3 -85 3 -3 59 c-6 107 4 107 108 1z m-285 25 c33 -28 63 -50 67 -50 4 0 12 -9
18 -21 11 -20 10 -21 -52 -15 -35 3 -73 5 -84 6 -19 0 -22 7 -27 58 -7 89 -4
90 78 22z m529 -18 c36 -35 66 -66 66 -68 0 -2 -36 -4 -80 -4 l-80 0 0 71 c0
87 5 87 94 1z"/>
</g>
</svg>
