<?xml version="1.0" standalone="no"?>
<!DOCTYPE svg PUBLIC "-//W3C//DTD SVG 20010904//EN"
 "http://www.w3.org/TR/2001/REC-SVG-20010904/DTD/svg10.dtd">
<svg version="1.0" xmlns="http://www.w3.org/2000/svg"
 width="76.000000pt" height="100.000000pt" viewBox="0 0 76.000000 100.000000"
 preserveAspectRatio="xMidYMid meet">
<metadata>
Created by potrace 1.16, written by Peter Selinger 2001-2019
</metadata>
<g transform="translate(0.000000,100.000000) scale(0.100000,-0.100000)"
fill="#000000" stroke="none">
<path d="M140 955 c-10 -12 -11 -45 -7 -134 4 -65 4 -121 1 -124 -4 -3 -21 5
-39 18 -41 32 -65 32 -65 2 0 -24 23 -50 72 -80 l28 -17 2 -288 3 -287 280 0
279 0 7 41 c4 23 12 227 19 454 11 428 10 447 -28 424 -14 -10 -18 -33 -22
-160 -5 -162 -6 -163 -61 -122 -21 16 -32 19 -40 11 -16 -16 3 -44 50 -78 l41
-28 0 -163 c0 -95 -4 -165 -10 -169 -5 -3 -32 -9 -60 -12 -37 -4 -51 -2 -55 8
-3 8 -1 167 4 354 5 187 6 345 4 352 -7 18 -40 16 -47 -3 -3 -9 -6 -76 -6
-149 0 -74 -4 -136 -9 -139 -5 -3 -21 4 -35 15 -25 19 -56 20 -56 1 0 -4 20
-28 45 -52 l45 -44 0 -168 0 -168 -24 -6 c-13 -3 -38 -4 -57 -2 l-34 3 3 235
c2 129 8 287 12 350 8 97 7 117 -6 130 -11 11 -19 12 -32 4 -14 -10 -17 -31
-20 -143 -1 -72 -5 -131 -8 -131 -4 0 -22 14 -41 31 -19 16 -40 28 -46 26 -27
-9 -15 -39 34 -89 60 -60 56 -41 51 -286 l-2 -123 -62 3 -62 3 2 295 c0 162 4
317 7 343 9 66 -22 101 -55 62z m93 -816 c43 -36 46 -46 13 -55 -39 -9 -66 11
-66 51 0 19 3 35 8 35 4 0 24 -14 45 -31z m174 -1 c18 -18 33 -38 33 -45 0
-15 -29 -17 -64 -3 -21 8 -26 16 -26 45 0 44 14 45 57 3z m170 0 c42 -41 42
-58 0 -58 -40 0 -57 15 -57 50 0 49 13 51 57 8z"/>
</g>
</svg>
