<?xml version="1.0" standalone="no"?>
<!DOCTYPE svg PUBLIC "-//W3C//DTD SVG 20010904//EN"
 "http://www.w3.org/TR/2001/REC-SVG-20010904/DTD/svg10.dtd">
<svg version="1.0" xmlns="http://www.w3.org/2000/svg"
 width="446.000000pt" height="590.000000pt" viewBox="0 0 446.000000 590.000000"
 preserveAspectRatio="xMidYMid meet">
<metadata>
Created by potrace 1.16, written by Peter Selinger 2001-2019
</metadata>
<g transform="translate(0.000000,590.000000) scale(0.500000,-0.500000)"
fill="#000000" stroke="none">
<path d="M166 1134 c-5 -4 -5 -4 -5 -86 0 -46 -1 -91 -2 -100 -1 -12 -1 -21 1
-27 5 -25 2 -106 -4 -110 -7 -4 -22 8 -29 24 -6 12 -13 19 -20 19 -2 0 -8 3
-13 7 -20 15 -21 15 -30 15 -41 0 -27 -59 22 -95 6 -4 15 -11 19 -15 9 -8 33
-22 46 -26 10 -3 11 -7 10 -32 -4 -91 -5 -180 -3 -204 2 -18 2 -38 1 -69 -1
-24 -2 -73 -2 -109 0 -36 -1 -110 -2 -164 -2 -127 -26 -109 153 -110 79 0 148
-1 153 -2 5 -1 33 -1 70 0 125 4 166 5 178 1 13 -5 97 -6 105 -1 7 4 8 9 11
91 5 141 7 184 10 199 1 8 2 26 2 40 0 14 2 67 4 119 7 207 8 266 5 276 -2 10
0 60 7 201 9 155 8 161 -26 161 -34 0 -31 8 -31 -87 0 -64 -1 -79 -3 -85 -2
-5 -3 -15 -3 -41 0 -24 -1 -36 -3 -43 -4 -15 -4 -87 0 -105 6 -24 -1 -28 -19
-10 -6 6 -23 19 -37 29 -14 9 -29 20 -34 24 -16 12 -34 8 -39 -8 -4 -12 6 -28
26 -41 5 -4 19 -16 32 -26 12 -11 26 -22 31 -24 39 -20 38 -18 36 -98 -1 -36
-2 -110 -2 -166 -1 -142 -2 -157 -13 -163 -10 -5 -135 -5 -140 0 -8 9 -10 23
-6 39 4 15 5 76 7 377 1 156 3 203 8 220 3 11 5 197 2 203 -2 5 -7 6 -27 6
-30 0 -29 3 -30 -68 -4 -127 -6 -205 -8 -241 -1 -21 -2 -42 -2 -47 0 -10 -3
-12 -14 -6 -14 7 -45 32 -55 43 -14 17 -31 19 -40 5 -13 -20 0 -43 39 -70 25
-17 44 -36 56 -53 5 -7 11 -16 13 -19 3 -4 3 -7 2 -17 -1 -7 -2 -41 -2 -77 -3
-217 -5 -291 -10 -295 -6 -5 -116 -8 -128 -3 -10 4 -10 19 -1 232 4 83 4 128
4 283 0 14 3 74 6 133 12 212 14 199 -22 200 -36 1 -33 15 -33 -143 0 -122 0
-135 -4 -143 -2 -5 -3 -15 -3 -25 -1 -37 -6 -38 -30 -7 -42 55 -98 80 -108 49
-3 -10 -1 -14 16 -31 11 -11 18 -20 26 -35 13 -22 16 -25 63 -61 37 -28 38
-29 34 -42 -3 -9 -5 -113 -9 -330 -1 -93 10 -83 -88 -80 -81 1 -73 -3 -71 38
4 93 5 161 5 298 -1 212 4 430 9 492 2 20 -43 31 -61 16z m192 -896 c12 -3 13
-6 11 -41 -3 -58 -5 -61 -39 -34 -62 50 -78 64 -78 69 0 5 -4 5 37 6 60 2 62
2 69 0z m199 0 c9 -3 10 -8 8 -52 -3 -59 0 -59 -75 13 -31 31 -33 34 -24 38 6
4 83 4 91 1z m214 -2 c7 -3 8 -7 5 -48 -3 -61 -3 -61 -53 -16 -15 14 -35 31
-43 39 -16 14 -21 22 -16 25 4 3 100 2 107 0z m-340 -27 c8 -4 103 -95 104
-99 3 -9 0 -10 -54 -10 -75 0 -70 -4 -68 58 3 54 5 59 18 51z m204 -4 c5 -2
82 -74 96 -89 16 -17 11 -18 -57 -18 -63 1 -57 -4 -58 48 -1 57 3 69 19 59z
m-377 -28 c103 -80 101 -74 20 -73 -74 1 -67 -4 -68 50 0 64 -3 63 48 23z"/>
</g>
</svg>
