<?xml version="1.0" standalone="no"?>
<!DOCTYPE svg PUBLIC "-//W3C//DTD SVG 20010904//EN"
 "http://www.w3.org/TR/2001/REC-SVG-20010904/DTD/svg10.dtd">
<svg version="1.0" xmlns="http://www.w3.org/2000/svg"
 width="330.000000pt" height="590.000000pt" viewBox="0 0 330.000000 590.000000"
 preserveAspectRatio="xMidYMid meet">
<metadata>
Created by potrace 1.16, written by Peter Selinger 2001-2019
</metadata>
<g transform="translate(0.000000,590.000000) scale(0.500000,-0.500000)"
fill="#000000" stroke="none">
<path d="M48 1138 c-9 -3 -8 9 -8 -374 1 -201 1 -438 1 -528 0 -182 -1 -171
18 -182 10 -6 538 -6 548 0 12 7 12 7 11 140 -1 67 -1 303 0 526 1 228 0 407
-1 410 -4 13 -47 14 -52 1 -2 -2 -2 -142 -1 -380 1 -384 1 -388 -7 -390 -120
-29 -115 -48 -113 388 1 440 5 392 -31 391 -29 -2 -26 51 -24 -391 1 -327 1
-383 -2 -386 -4 -6 -109 -7 -115 -2 -4 3 -4 14 -3 387 2 443 5 390 -24 392
-18 0 -28 -2 -30 -8 -2 -4 -1 -598 0 -696 2 -76 -64 -119 -117 -76 -5 4 -7
470 -3 696 2 86 3 82 -25 83 -9 1 -19 0 -22 -1z m513 -821 c7 -6 6 -205 0
-211 -7 -7 -108 -8 -114 -1 -6 5 -7 203 -2 210 4 6 5 6 66 6 42 0 47 0 50 -4z
m-175 0 c6 -6 6 -203 0 -208 -3 -3 -8 -4 -33 -4 -17 0 -33 -2 -37 -3 -16 -5
-40 -1 -45 7 -6 9 -3 205 3 208 8 5 108 4 112 0z m-173 -3 c5 -7 5 -191 0
-201 -6 -13 -10 -13 -63 -13 -48 1 -52 2 -55 8 -7 14 -3 207 5 209 14 3 110 1
113 -3z"/>
</g>
</svg>
