<?xml version="1.0" standalone="no"?>
<!DOCTYPE svg PUBLIC "-//W3C//DTD SVG 20010904//EN"
 "http://www.w3.org/TR/2001/REC-SVG-20010904/DTD/svg10.dtd">
<svg version="1.0" xmlns="http://www.w3.org/2000/svg"
 width="55.000000pt" height="100.000000pt" viewBox="0 0 55.000000 100.000000"
 preserveAspectRatio="xMidYMid meet">
<metadata>
Created by potrace 1.16, written by Peter Selinger 2001-2019
</metadata>
<g transform="translate(0.000000,100.000000) scale(0.100000,-0.100000)"
fill="#000000" stroke="none">
<path d="M43 958 c-14 -22 -4 -901 10 -910 7 -4 110 -8 229 -8 217 0 218 0
223 23 3 12 4 220 3 462 -3 432 -3 440 -23 440 -19 0 -20 -8 -25 -325 l-5
-325 -42 -3 -43 -3 0 326 c0 281 -2 326 -15 331 -8 4 -22 1 -30 -6 -13 -11
-15 -61 -15 -330 l0 -318 -24 -6 c-57 -14 -56 -23 -56 330 0 286 -2 325 -16
331 -34 13 -37 -11 -35 -325 2 -278 0 -312 -15 -327 -16 -15 -58 -14 -74 2 -3
2 -5 145 -5 316 0 293 -3 337 -25 337 -5 0 -12 -6 -17 -12z m135 -758 c5 -97
-1 -110 -47 -110 -47 0 -51 8 -51 95 0 72 12 87 65 82 30 -2 30 -3 33 -67z
m136 54 c3 -9 6 -47 6 -85 0 -64 -2 -69 -24 -75 -54 -13 -61 -5 -64 75 -2 41
-1 80 2 88 8 19 72 17 80 -3z m141 -74 l0 -85 -40 0 -40 0 -3 74 c-4 96 -1
103 45 99 l38 -3 0 -85z"/>
</g>
</svg>
