<?xml version="1.0" standalone="no"?>
<!DOCTYPE svg PUBLIC "-//W3C//DTD SVG 20010904//EN"
 "http://www.w3.org/TR/2001/REC-SVG-20010904/DTD/svg10.dtd">
<svg version="1.0" xmlns="http://www.w3.org/2000/svg"
 width="82.000000pt" height="148.000000pt" viewBox="0 0 82.000000 148.000000"
 preserveAspectRatio="xMidYMid meet">
<metadata>
Created by potrace 1.16, written by Peter Selinger 2001-2019
</metadata>
<g transform="translate(0.000000,148.000000) scale(0.100000,-0.100000)"
fill="#000000" stroke="none">
<path d="M57 1414 c-4 -4 -7 -303 -7 -664 0 -530 3 -660 13 -668 16 -14 675
-18 688 -5 5 5 8 299 7 674 l-3 664 -33 3 -33 3 1 -483 1 -483 -76 -3 -76 -3
1 483 1 483 -32 0 -32 0 2 -482 2 -481 -68 -4 c-37 -2 -72 -2 -76 0 -5 2 -7
221 -6 485 l2 482 -32 0 -32 0 1 -482 c0 -266 -3 -483 -7 -484 -84 -6 -143 -4
-143 5 0 6 -1 225 -3 486 l-2 475 -25 3 c-14 2 -29 0 -33 -4z m635 -1020 c2
-9 2 -72 0 -140 l-3 -124 -75 0 -74 0 0 135 0 134 68 4 c37 2 70 4 74 5 3 1 8
-5 10 -14z m-422 -122 c0 -70 -4 -132 -9 -137 -6 -6 -39 -9 -75 -7 l-65 4 -3
126 c-2 70 -2 130 0 135 2 4 37 7 78 7 l74 0 0 -128z m208 -4 l-3 -133 -70 0
-70 0 -3 133 -3 132 76 0 76 0 -3 -132z"/>
</g>
</svg>
