<?xml version="1.0" standalone="no"?>
<!DOCTYPE svg PUBLIC "-//W3C//DTD SVG 20010904//EN"
 "http://www.w3.org/TR/2001/REC-SVG-20010904/DTD/svg10.dtd">
<svg version="1.0" xmlns="http://www.w3.org/2000/svg"
 width="59.000000pt" height="100.000000pt" viewBox="0 0 59.000000 100.000000"
 preserveAspectRatio="xMidYMid meet">
<metadata>
Created by potrace 1.16, written by Peter Selinger 2001-2019
</metadata>
<g transform="translate(0.000000,100.000000) scale(0.100000,-0.100000)"
fill="#000000" stroke="none">
<path d="M50 945 c-10 -12 -7 -24 15 -62 l27 -48 14 -370 c7 -203 16 -380 19
-393 5 -22 7 -22 191 -22 164 0 185 2 191 17 4 9 1 184 -5 388 l-12 372 26 46
c14 26 24 55 22 64 -5 29 -32 21 -50 -15 -23 -48 -25 -48 -44 -8 -13 26 -24
36 -41 36 -29 0 -29 -11 3 -66 26 -45 26 -45 39 -407 7 -199 11 -365 8 -369
-6 -11 -91 -10 -98 1 -3 6 -10 170 -16 366 -11 355 -11 357 11 407 16 38 19
53 10 62 -8 8 -17 4 -35 -16 -13 -16 -26 -28 -29 -28 -3 0 -12 14 -21 30 -9
17 -22 30 -31 30 -27 0 -27 -30 1 -72 l28 -42 10 -358 c5 -196 7 -364 3 -373
-4 -12 -17 -15 -53 -13 l-48 3 -7 45 c-4 25 -12 184 -17 355 -10 297 -9 311
10 354 20 45 25 86 11 95 -12 7 -26 -6 -39 -36 -16 -37 -26 -35 -46 7 -18 38
-28 43 -47 20z"/>
</g>
</svg>
