<?xml version="1.0" standalone="no"?>
<!DOCTYPE svg PUBLIC "-//W3C//DTD SVG 20010904//EN"
 "http://www.w3.org/TR/2001/REC-SVG-20010904/DTD/svg10.dtd">
<svg version="1.0" xmlns="http://www.w3.org/2000/svg"
 width="352.000000pt" height="590.000000pt" viewBox="0 0 352.000000 590.000000"
 preserveAspectRatio="xMidYMid meet">
<metadata>
Created by potrace 1.16, written by Peter Selinger 2001-2019
</metadata>
<g transform="translate(0.000000,590.000000) scale(0.500000,-0.500000)"
fill="#000000" stroke="none">
<path d="M282 1124 c-24 -7 -15 -37 25 -84 11 -13 19 -30 19 -40 0 -4 2 -10 4
-14 4 -7 4 -12 4 -97 0 -76 0 -90 3 -98 5 -14 7 -88 8 -279 1 -135 2 -156 4
-166 3 -10 3 -13 1 -21 -3 -14 -3 -100 1 -111 22 -62 4 -96 -50 -96 -95 -2
-91 -2 -91 17 0 4 -1 13 -3 19 -3 9 -4 29 -5 109 -1 77 -3 101 -5 112 -3 11
-3 31 -3 126 0 146 -2 240 -6 248 -1 3 -2 16 -2 37 0 24 -1 34 -3 42 -13 38
-3 160 15 186 2 4 7 12 10 19 4 7 8 15 10 18 4 6 6 18 9 52 2 18 -12 26 -30
18 -10 -4 -13 -9 -25 -44 -6 -19 -12 -34 -14 -36 -12 -7 -34 17 -40 45 -7 30
-34 44 -53 28 -12 -11 -11 -16 14 -60 25 -46 28 -51 31 -63 1 -5 3 -11 5 -14
2 -3 3 -14 3 -40 0 -20 1 -70 3 -111 5 -127 7 -176 9 -249 1 -38 2 -70 3 -71
0 -1 1 -32 2 -69 0 -37 2 -74 3 -82 1 -8 3 -43 4 -79 5 -159 8 -204 14 -209 7
-7 89 -8 110 -2 15 4 94 6 112 2 13 -3 31 -3 114 -3 102 0 108 0 113 8 4 4 4
208 1 250 -4 48 -6 146 -7 264 -1 106 -1 116 -5 127 -5 17 -8 66 -8 182 l-1
97 11 11 c12 11 18 23 21 46 1 7 3 11 9 18 17 20 22 38 11 49 -15 15 -46 -2
-50 -27 -1 -4 -4 -12 -6 -17 -3 -5 -5 -11 -5 -13 0 -28 -31 -38 -35 -13 -2 9
-9 26 -15 34 -2 2 -6 11 -9 18 -7 18 -12 22 -31 22 -33 0 -36 -13 -9 -41 16
-18 22 -28 24 -45 1 -7 3 -12 8 -18 4 -5 7 -10 7 -12 0 -2 2 -7 4 -12 3 -8 4
-16 5 -54 2 -72 5 -160 7 -204 1 -23 3 -71 4 -108 1 -37 3 -81 4 -99 1 -18 3
-90 4 -162 1 -118 2 -131 5 -138 3 -7 7 -52 7 -88 0 -17 -3 -18 -109 -20 -36
0 -33 -16 -37 189 -1 57 -3 125 -4 151 -1 26 -2 97 -3 156 -1 68 -2 111 -3
115 -2 7 -3 22 -8 182 l-3 76 9 12 c8 14 11 21 20 45 3 9 9 22 12 28 14 27 2
52 -22 45 -6 -2 -9 -4 -12 -12 -7 -14 -29 -51 -33 -54 -8 -7 -30 19 -33 40 -4
24 -26 39 -48 32z"/>
</g>
</svg>
