<?xml version="1.0" standalone="no"?>
<!DOCTYPE svg PUBLIC "-//W3C//DTD SVG 20010904//EN"
 "http://www.w3.org/TR/2001/REC-SVG-20010904/DTD/svg10.dtd">
<svg version="1.0" xmlns="http://www.w3.org/2000/svg"
 width="474.000000pt" height="590.000000pt" viewBox="0 0 474.000000 590.000000"
 preserveAspectRatio="xMidYMid meet">
<metadata>
Created by potrace 1.16, written by Peter Selinger 2001-2019
</metadata>
<g transform="translate(0.000000,590.000000) scale(0.500000,-0.500000)"
fill="#000000" stroke="none">
<path d="M299 1125 c-26 -6 -18 -38 21 -82 12 -14 20 -28 21 -41 1 -5 3 -13 5
-18 4 -9 4 -16 4 -99 0 -62 1 -90 2 -94 4 -9 8 -133 10 -293 1 -125 2 -145 5
-154 3 -9 3 -10 0 -21 -6 -20 -1 -19 -71 -19 -83 0 -82 0 -82 33 0 10 -1 26
-3 36 -2 14 -3 48 -3 189 0 149 0 172 -3 181 -2 7 -3 19 -3 41 0 26 -1 34 -4
44 -14 42 -4 154 16 188 4 7 9 16 10 19 2 3 5 10 8 15 5 7 6 11 6 20 0 6 1 15
3 20 9 25 -6 41 -30 31 -9 -4 -11 -7 -23 -42 -12 -34 -14 -39 -20 -39 -15 0
-30 22 -37 52 -7 32 -59 39 -59 7 0 -8 1 -10 32 -65 10 -17 19 -35 20 -40 1
-6 4 -13 6 -18 4 -6 4 -9 2 -17 -1 -6 -1 -22 0 -48 1 -22 3 -70 4 -107 1 -37
3 -82 4 -101 1 -19 3 -67 4 -108 1 -41 3 -94 4 -118 2 -24 3 -57 2 -72 0 -16
1 -32 2 -37 3 -13 7 -109 10 -205 2 -90 3 -94 13 -98 10 -5 91 -4 104 0 13 4
96 7 112 3 12 -2 145 -3 384 0 70 0 62 -14 60 108 -1 53 -2 126 -2 161 -1 35
-2 85 -2 111 -1 26 -1 54 0 63 0 10 1 56 0 103 -1 94 -2 153 -1 186 0 12 -1
55 -2 96 -3 88 -2 89 8 101 6 6 8 12 9 18 1 7 5 15 13 27 31 47 26 69 -15 65
-16 -1 -21 -6 -21 -21 0 -14 -7 -38 -13 -47 -3 -4 -5 -9 -5 -11 0 -22 -18 0
-34 41 -16 40 -27 52 -46 52 -27 -1 -34 -18 -17 -38 3 -4 8 -12 10 -18 1 -5 6
-13 10 -18 6 -7 34 -64 36 -74 1 -5 5 -197 7 -391 1 -85 3 -180 4 -210 3 -75
12 -68 -79 -68 -89 0 -77 -36 -80 249 -1 120 -2 146 -4 156 -6 22 -7 38 -9
157 -2 129 -2 129 10 137 11 9 20 28 20 44 0 6 2 11 12 24 20 25 19 46 -3 48
-17 2 -34 -12 -37 -29 0 -5 -3 -14 -6 -20 -3 -6 -6 -13 -6 -16 0 -25 -31 -32
-35 -8 -2 9 -8 23 -16 36 -3 4 -6 11 -7 15 -6 18 -15 24 -37 23 -30 -2 -27
-21 6 -52 7 -6 15 -25 15 -34 0 -7 3 -13 9 -20 11 -13 13 -25 16 -129 2 -53 4
-114 5 -136 1 -22 3 -77 5 -122 2 -45 4 -106 6 -136 5 -91 6 -177 2 -182 -5
-8 -129 -8 -134 -1 -3 6 -10 300 -9 393 0 11 -1 23 -3 29 -2 8 -3 26 -4 64 -1
29 -3 84 -4 122 -3 72 -2 75 6 84 5 5 16 29 22 48 2 6 7 17 10 24 23 42 -14
68 -37 26 -16 -28 -30 -48 -34 -48 -8 0 -27 27 -29 43 -3 22 -24 36 -46 32z
m255 -873 c16 -4 30 -117 17 -128 -4 -4 -119 -8 -131 -5 -15 3 -20 129 -5 133
8 2 110 2 119 0z m-193 -3 c2 -2 3 -6 3 -10 0 -3 2 -13 4 -22 4 -16 5 -84 1
-94 -3 -6 -14 -7 -75 -7 -70 0 -70 0 -70 18 0 5 -1 14 -3 20 -8 28 -8 93 0 96
8 3 136 2 140 -1z m412 -2 c6 -5 7 -117 2 -121 -6 -5 -141 -6 -145 -1 -3 3 -4
18 -7 88 -2 43 -11 39 76 39 65 -1 71 -1 74 -5z"/>
</g>
</svg>
