<?xml version="1.0" standalone="no"?>
<!DOCTYPE svg PUBLIC "-//W3C//DTD SVG 20010904//EN"
 "http://www.w3.org/TR/2001/REC-SVG-20010904/DTD/svg10.dtd">
<svg version="1.0" xmlns="http://www.w3.org/2000/svg"
 width="118.000000pt" height="148.000000pt" viewBox="0 0 118.000000 148.000000"
 preserveAspectRatio="xMidYMid meet">
<metadata>
Created by potrace 1.16, written by Peter Selinger 2001-2019
</metadata>
<g transform="translate(0.000000,148.000000) scale(0.100000,-0.100000)"
fill="#000000" stroke="none">
<path d="M357 1403 c-14 -13 -6 -37 30 -86 l37 -50 8 -176 c19 -399 25 -696
14 -707 -7 -6 -43 -9 -98 -6 l-86 4 -6 131 c-3 73 -5 161 -5 197 1 36 -2 167
-6 292 l-8 226 26 46 c14 25 28 64 32 86 7 41 7 41 -21 38 -24 -2 -30 -10 -41
-47 -7 -25 -17 -49 -22 -54 -11 -11 -51 30 -51 52 -1 25 -25 51 -49 51 -28 0
-28 -28 1 -77 53 -93 48 -58 63 -523 4 -107 9 -229 11 -270 2 -41 7 -156 10
-255 4 -104 11 -186 18 -194 8 -11 30 -12 106 -6 52 4 233 6 401 5 271 -1 307
1 313 15 3 8 3 59 1 113 -3 53 -7 305 -10 560 l-4 462 29 50 c16 28 33 62 36
75 6 23 3 25 -25 25 -17 0 -33 -6 -35 -12 -2 -7 -9 -32 -15 -55 -7 -24 -16
-43 -21 -43 -6 0 -23 29 -39 65 -25 55 -34 65 -55 65 -21 0 -26 -5 -26 -24 0
-13 3 -26 8 -28 4 -1 21 -30 38 -63 l32 -60 7 -422 7 -421 -89 -4 c-48 -2 -93
-2 -100 0 -8 3 -13 82 -17 280 -4 152 -9 345 -12 429 -5 144 -4 153 15 172 12
12 21 30 21 41 0 12 10 34 22 50 16 22 19 33 11 41 -14 14 -44 8 -53 -11 -10
-21 -27 -61 -34 -82 -3 -10 -10 -18 -16 -18 -9 0 -38 56 -54 103 -3 11 -16 17
-36 17 -37 0 -38 -15 -5 -54 14 -16 25 -34 25 -41 0 -7 6 -25 14 -41 13 -29
33 -395 38 -739 l3 -150 -78 0 c-43 0 -82 2 -86 5 -5 3 -11 136 -15 295 -3
160 -9 349 -12 422 l-6 131 31 67 c34 71 36 98 9 103 -11 2 -26 -13 -43 -42
-15 -25 -30 -46 -35 -46 -12 0 -28 23 -35 53 -9 35 -50 59 -68 40z m95 -1113
c5 -13 8 -51 6 -85 l-3 -60 -84 -3 c-46 -2 -88 1 -93 6 -14 14 -23 153 -10
160 5 4 47 7 92 7 79 0 83 -1 92 -25z m250 0 c5 -13 8 -51 6 -85 l-3 -60 -85
0 -85 0 -7 80 c-5 48 -4 81 2 85 6 3 44 6 87 5 71 -1 77 -3 85 -25z m259 13
c6 -6 9 -41 7 -79 l-3 -69 -95 0 -95 0 -3 69 c-2 38 -1 74 1 80 5 14 175 12
188 -1z"/>
</g>
</svg>
