<?xml version="1.0" standalone="no"?>
<!DOCTYPE svg PUBLIC "-//W3C//DTD SVG 20010904//EN"
 "http://www.w3.org/TR/2001/REC-SVG-20010904/DTD/svg10.dtd">
<svg version="1.0" xmlns="http://www.w3.org/2000/svg"
 width="80.000000pt" height="100.000000pt" viewBox="0 0 80.000000 100.000000"
 preserveAspectRatio="xMidYMid meet">
<metadata>
Created by potrace 1.16, written by Peter Selinger 2001-2019
</metadata>
<g transform="translate(0.000000,100.000000) scale(0.100000,-0.100000)"
fill="#000000" stroke="none">
<path d="M60 946 c-10 -13 -8 -23 13 -59 14 -23 28 -58 31 -77 3 -19 10 -181
16 -360 6 -179 13 -342 16 -363 l6 -37 273 0 c208 0 276 3 282 12 4 7 6 182 4
390 l-3 376 27 46 c28 48 26 66 -6 66 -13 0 -24 -10 -30 -30 -14 -38 -27 -38
-41 0 -5 17 -18 35 -28 40 -37 20 -41 -23 -6 -83 23 -41 24 -48 27 -322 l4
-280 -60 0 -60 0 -8 280 -8 281 25 54 c25 55 23 78 -8 67 -9 -4 -21 -20 -28
-38 l-13 -31 -26 38 c-15 23 -31 37 -40 35 -8 -3 -26 -4 -41 -3 -18 1 -31 -7
-42 -23 -21 -32 -27 -31 -48 5 -37 66 -62 19 -25 -48 25 -46 26 -54 34 -317 4
-149 8 -277 8 -285 0 -11 -14 -16 -54 -18 -30 -2 -57 0 -62 5 -4 4 -10 132
-14 283 -7 268 -6 276 15 323 21 48 20 92 -3 84 -7 -2 -18 -18 -26 -35 -17
-38 -29 -37 -51 3 -19 35 -33 40 -50 21z m363 -58 c23 -31 32 -117 42 -425 l7
-203 -56 0 c-51 0 -56 2 -56 23 -1 12 -5 139 -10 282 -8 250 -8 262 12 308 23
52 32 54 61 15z m-117 -702 c3 -13 4 -37 2 -52 -3 -28 -5 -29 -58 -29 l-54 0
-9 38 c-14 58 -6 67 57 67 50 0 56 -2 62 -24z m169 -31 l0 -50 -55 0 -55 0 -3
53 -3 53 58 -3 58 -3 0 -50z m173 4 l3 -46 -38 -6 c-21 -4 -48 -4 -60 -1 -20
6 -23 13 -23 56 l0 49 58 -3 57 -3 3 -46z"/>
</g>
</svg>
