<?xml version="1.0" standalone="no"?>
<!DOCTYPE svg PUBLIC "-//W3C//DTD SVG 20010904//EN"
 "http://www.w3.org/TR/2001/REC-SVG-20010904/DTD/svg10.dtd">
<svg version="1.0" xmlns="http://www.w3.org/2000/svg"
 width="77.000000pt" height="100.000000pt" viewBox="0 0 77.000000 100.000000"
 preserveAspectRatio="xMidYMid meet">
<metadata>
Created by potrace 1.16, written by Peter Selinger 2001-2019
</metadata>
<g transform="translate(0.000000,100.000000) scale(0.100000,-0.100000)"
fill="#000000" stroke="none">
<path d="M46 935 c-3 -9 5 -36 20 -61 30 -51 30 -46 44 -464 6 -168 13 -315
16 -328 l4 -22 278 2 277 3 -4 375 -4 375 26 49 c25 48 26 76 2 76 -16 0 -32
-19 -37 -45 -5 -30 -20 -24 -42 18 -12 23 -26 37 -35 35 -24 -5 -25 -35 -2
-67 12 -16 21 -36 21 -44 0 -12 -87 -57 -111 -57 -17 0 -9 48 17 94 14 26 23
53 20 61 -10 27 -34 16 -46 -20 -14 -44 -32 -45 -51 -3 -15 35 -43 48 -52 24
-3 -7 5 -29 19 -47 13 -18 24 -39 24 -46 0 -14 -70 -53 -95 -53 -21 0 -19 16
10 78 14 30 25 58 25 63 0 17 -24 9 -51 -17 l-27 -26 -14 28 c-7 16 -20 30
-29 32 -28 5 -29 -25 -3 -64 36 -53 29 -75 -29 -93 -69 -21 -77 -8 -43 68 14
32 23 66 20 75 -10 27 -34 18 -50 -20 -16 -39 -26 -37 -48 8 -14 28 -41 35
-50 13z m397 -312 c4 -87 7 -201 7 -254 0 -92 -1 -97 -22 -103 -40 -10 -67 -6
-76 11 -5 10 -11 119 -13 242 l-4 223 45 19 c25 10 48 18 51 18 3 1 9 -70 12
-156z m177 79 c0 -38 3 -151 7 -250 l6 -182 -60 0 -61 0 -6 93 c-13 219 -14
356 -1 367 14 11 84 38 103 39 8 1 12 -19 12 -67z m-337 -184 c4 -133 3 -246
-2 -251 -4 -4 -31 -5 -60 -1 l-51 7 -1 101 c0 55 -4 155 -8 221 -4 66 -4 124
0 128 5 7 83 32 110 36 3 1 9 -108 12 -241z m-10 -308 c14 0 17 -9 17 -50 l0
-50 -54 0 c-58 0 -66 8 -66 72 0 28 24 40 65 32 11 -2 28 -4 38 -4z m174 2
c18 -11 26 -58 13 -82 -9 -18 -19 -21 -58 -18 -45 3 -47 4 -55 41 -6 26 -5 42
3 52 13 16 76 20 97 7z m152 2 c31 -6 32 -8 29 -53 l-3 -46 -55 0 -55 0 -3 47
c-3 42 -1 47 20 51 13 2 26 5 29 6 4 0 21 -2 38 -5z"/>
</g>
</svg>
