<?xml version="1.0" standalone="no"?>
<!DOCTYPE svg PUBLIC "-//W3C//DTD SVG 20010904//EN"
 "http://www.w3.org/TR/2001/REC-SVG-20010904/DTD/svg10.dtd">
<svg version="1.0" xmlns="http://www.w3.org/2000/svg"
 width="452.000000pt" height="590.000000pt" viewBox="0 0 452.000000 590.000000"
 preserveAspectRatio="xMidYMid meet">
<metadata>
Created by potrace 1.16, written by Peter Selinger 2001-2019
</metadata>
<g transform="translate(0.000000,590.000000) scale(0.500000,-0.500000)"
fill="#000000" stroke="none">
<path d="M277 1116 c-19 -10 -11 -37 23 -76 13 -15 22 -30 24 -44 1 -5 3 -13
5 -17 5 -14 -1 -21 -21 -27 -4 -1 -17 -6 -29 -11 -91 -39 -132 -4 -82 70 4 6
8 14 10 18 2 4 5 11 8 15 3 5 5 11 6 21 1 8 3 18 4 24 7 20 -10 34 -30 24 -10
-5 -13 -9 -16 -20 -8 -27 -20 -57 -23 -59 -10 -5 -30 15 -36 37 -1 4 -3 11 -4
14 -8 26 -38 36 -53 19 -9 -11 -7 -17 22 -65 17 -30 25 -46 25 -53 0 -3 2 -8
5 -13 4 -6 4 -9 4 -25 -1 -9 1 -71 3 -137 2 -66 5 -167 7 -225 2 -58 4 -119 5
-136 1 -16 2 -38 1 -48 -1 -10 0 -21 1 -26 3 -15 8 -94 10 -188 3 -95 3 -104
10 -111 6 -6 89 -8 104 -2 11 4 97 7 113 3 13 -2 110 -3 223 -1 49 0 114 1
145 1 74 0 66 -14 64 107 -2 115 -3 173 -4 370 0 83 -1 166 -1 186 0 20 0 45
0 55 0 10 0 32 -2 48 -1 16 -2 53 -2 82 0 55 0 58 10 67 2 2 6 9 7 15 2 6 8
19 14 29 28 44 26 63 -7 63 -22 0 -26 -3 -28 -25 -2 -20 -4 -28 -13 -46 -12
-24 -16 -20 -36 29 -18 45 -27 55 -49 54 -23 -2 -30 -16 -15 -34 4 -4 8 -11 9
-16 1 -4 6 -12 10 -17 25 -33 31 -60 18 -70 -5 -4 -12 -10 -16 -13 -5 -4 -13
-8 -32 -13 -19 -5 -32 -10 -52 -21 -41 -21 -42 -21 -42 26 0 34 0 35 14 48 10
9 14 20 17 38 1 7 4 13 12 24 21 28 18 48 -7 48 -13 0 -28 -16 -30 -32 -1 -6
-3 -13 -6 -16 -2 -3 -4 -9 -5 -14 -3 -26 -32 -38 -36 -15 -2 13 -5 19 -13 33
-4 7 -10 18 -12 25 -6 15 -11 18 -30 18 -33 0 -32 -16 2 -48 10 -9 16 -24 16
-38 0 -3 3 -8 7 -13 17 -19 12 -30 -19 -45 -60 -30 -86 -41 -94 -38 -10 3 -11
55 -1 65 8 8 12 17 21 41 4 10 10 24 13 31 13 24 7 44 -13 44 -12 0 -14 -1
-20 -15 -15 -28 -31 -53 -36 -53 -8 0 -27 29 -29 44 -3 23 -29 39 -48 30z
m241 -192 c2 -4 3 -29 6 -129 3 -128 6 -204 9 -260 3 -50 6 -182 6 -207 -1
-17 1 -17 -62 -18 -80 -1 -75 -4 -75 54 0 20 -1 71 -2 113 -1 42 -2 114 -3
161 0 61 -1 87 -3 91 -2 4 -3 25 -4 57 -1 28 -2 56 -3 63 -2 26 1 29 38 43 12
5 29 11 37 15 51 23 53 23 56 17z m219 -5 c0 -1 1 -46 2 -98 1 -53 2 -169 4
-258 3 -245 3 -245 -3 -248 -9 -5 -138 -4 -143 1 -4 4 -6 101 -8 282 -1 96 -2
106 -5 117 -4 13 -8 67 -8 114 0 32 1 34 24 42 8 3 26 11 40 18 17 9 31 14 44
17 29 6 32 8 39 12 7 5 12 5 14 1z m-406 -16 c0 -2 1 -27 1 -56 0 -36 1 -54 2
-58 3 -7 5 -69 8 -274 2 -137 2 -156 5 -165 4 -12 1 -28 -6 -35 -4 -4 -122 -5
-132 -1 -15 5 -15 15 -16 241 -1 147 -1 173 -4 183 -2 8 -4 26 -4 47 -1 23 -2
36 -4 39 -9 19 -5 37 9 39 5 1 18 5 30 8 12 4 30 8 42 10 23 3 28 5 46 17 13
8 21 10 23 5z m-12 -647 c22 -3 22 -4 25 -9 5 -15 9 -98 5 -113 -2 -6 -14 -8
-76 -7 -72 0 -67 -2 -69 24 -7 98 -7 106 3 107 9 2 99 0 112 -2z m224 0 c3 -4
7 -54 7 -103 0 -24 4 -23 -70 -23 -60 1 -62 1 -66 5 -7 7 -11 118 -5 122 7 5
129 4 134 -1z m203 -1 c5 -4 6 -103 2 -114 -5 -10 -139 -14 -149 -4 -5 6 -4
114 1 119 6 6 139 5 146 -1z"/>
</g>
</svg>
