<?xml version="1.0" standalone="no"?>
<!DOCTYPE svg PUBLIC "-//W3C//DTD SVG 20010904//EN"
 "http://www.w3.org/TR/2001/REC-SVG-20010904/DTD/svg10.dtd">
<svg version="1.0" xmlns="http://www.w3.org/2000/svg"
 width="114.000000pt" height="148.000000pt" viewBox="0 0 114.000000 148.000000"
 preserveAspectRatio="xMidYMid meet">
<metadata>
Created by potrace 1.16, written by Peter Selinger 2001-2019
</metadata>
<g transform="translate(0.000000,148.000000) scale(0.100000,-0.100000)"
fill="#000000" stroke="none">
<path d="M84 1386 c-21 -16 -21 -15 41 -125 22 -40 25 -55 25 -154 0 -118 26
-799 36 -933 l6 -81 406 1 407 1 -3 566 -4 565 22 40 c12 21 26 44 32 51 5 7
8 22 6 35 -2 17 -10 23 -28 23 -21 0 -27 -7 -37 -47 -15 -63 -21 -72 -39 -57
-8 6 -14 16 -14 22 0 6 -9 30 -21 54 -16 33 -26 43 -44 43 -13 0 -26 -4 -29
-9 -3 -5 12 -40 34 -77 38 -65 39 -69 22 -85 -15 -15 -114 -60 -164 -76 -27
-8 -25 80 2 114 11 14 20 33 20 42 0 9 9 27 19 40 21 28 17 51 -9 51 -22 0
-34 -15 -49 -62 -7 -20 -18 -42 -26 -48 -12 -10 -19 -2 -42 49 -24 54 -30 61
-55 61 -33 0 -37 -19 -9 -44 22 -20 55 -101 48 -119 -7 -17 -134 -70 -152 -63
-24 9 -18 44 21 122 36 71 39 104 10 104 -8 0 -25 -19 -38 -42 -13 -24 -30
-43 -37 -43 -7 0 -23 20 -35 45 -17 36 -26 45 -46 45 -38 0 -37 -34 3 -80 36
-42 62 -104 50 -115 -15 -12 -98 -39 -142 -46 -70 -11 -75 23 -19 123 35 62
36 118 3 118 -15 0 -24 -12 -36 -48 -23 -70 -34 -76 -58 -36 -12 19 -21 39
-21 45 0 6 -8 18 -18 27 -16 15 -21 15 -38 3z m582 -571 c4 -181 8 -352 8
-380 l1 -50 -78 -1 c-42 0 -81 2 -86 5 -5 4 -12 143 -15 311 -4 168 -8 325 -9
350 -2 39 1 46 22 55 13 6 49 22 80 36 38 18 58 22 62 15 4 -6 10 -159 15
-341z m266 -37 c3 -211 4 -385 2 -387 -3 -3 -140 -4 -181 -2 -9 1 -13 70 -17
258 -3 142 -8 296 -11 343 l-6 85 75 33 c41 17 82 32 90 32 8 0 18 5 21 10 3
6 10 10 14 10 5 0 11 -172 13 -382z m-512 284 c-1 -37 3 -200 8 -362 6 -207 5
-298 -2 -307 -8 -8 -37 -9 -96 -5 l-85 7 -6 305 c-4 175 -11 316 -17 331 -6
14 -7 31 -3 37 4 6 38 18 76 27 37 9 77 23 88 30 31 22 38 9 37 -63z m263
-741 c4 -1 7 -37 7 -81 l0 -80 -89 0 -89 0 -4 73 c-2 39 0 77 3 82 6 8 112 11
172 6z m-248 -86 l0 -80 -88 -3 c-100 -3 -93 -10 -101 96 l-6 73 97 -3 98 -3
0 -80z m507 78 c2 -5 2 -41 0 -80 l-4 -73 -93 0 -93 0 -4 73 c-3 39 -3 75 -1
80 2 4 46 7 98 7 52 0 95 -3 97 -7z"/>
</g>
</svg>
