<?xml version="1.0" standalone="no"?>
<!DOCTYPE svg PUBLIC "-//W3C//DTD SVG 20010904//EN"
 "http://www.w3.org/TR/2001/REC-SVG-20010904/DTD/svg10.dtd">
<svg version="1.0" xmlns="http://www.w3.org/2000/svg"
 width="76.000000pt" height="100.000000pt" viewBox="0 0 76.000000 100.000000"
 preserveAspectRatio="xMidYMid meet">
<metadata>
Created by potrace 1.16, written by Peter Selinger 2001-2019
</metadata>
<g transform="translate(0.000000,100.000000) scale(0.100000,-0.100000)"
fill="#000000" stroke="none">
<path d="M44 935 c-3 -8 6 -38 20 -67 24 -51 26 -63 37 -353 6 -165 14 -334
17 -375 l7 -75 275 0 275 0 -4 376 -3 376 26 45 c26 44 27 78 2 78 -17 0 -36
-21 -36 -41 0 -35 -20 -29 -40 11 -20 40 -46 52 -56 26 -3 -8 6 -36 19 -63 24
-47 25 -58 33 -322 6 -228 5 -274 -7 -282 -17 -11 -96 -12 -103 -1 -2 4 -8
130 -12 280 -7 271 -7 273 16 322 23 48 21 85 -3 78 -6 -2 -18 -19 -26 -36
-19 -41 -27 -40 -48 4 -14 28 -21 34 -38 29 -11 -4 -31 -6 -44 -6 -14 1 -30
-8 -38 -19 -19 -27 -32 -25 -43 6 -7 16 -16 24 -27 22 -26 -5 -27 -33 -2 -67
20 -27 23 -48 30 -178 4 -81 9 -213 11 -293 l3 -145 -52 0 c-29 1 -55 4 -60 8
-4 4 -10 128 -15 275 -7 259 -7 269 14 319 11 28 18 58 15 67 -10 26 -34 18
-46 -14 -5 -16 -15 -30 -20 -30 -6 0 -17 14 -26 30 -17 32 -42 40 -51 15z
m375 -95 c11 -41 34 -558 25 -571 -8 -14 -92 -11 -100 3 -5 7 -11 132 -15 278
-6 270 -2 315 33 357 10 12 15 11 30 -9 10 -13 22 -39 27 -58z m-129 -689 c0
-30 -4 -40 -20 -44 -22 -6 -60 2 -60 11 0 9 63 72 72 72 4 0 8 -17 8 -39z
m170 4 c0 -28 -5 -37 -24 -45 -25 -9 -66 -3 -66 10 0 11 68 70 80 70 6 0 10
-16 10 -35z"/>
</g>
</svg>
