<?xml version="1.0" standalone="no"?>
<!DOCTYPE svg PUBLIC "-//W3C//DTD SVG 20010904//EN"
 "http://www.w3.org/TR/2001/REC-SVG-20010904/DTD/svg10.dtd">
<svg version="1.0" xmlns="http://www.w3.org/2000/svg"
 width="110.000000pt" height="144.000000pt" viewBox="0 0 110.000000 144.000000"
 preserveAspectRatio="xMidYMid meet">
<metadata>
Created by potrace 1.16, written by Peter Selinger 2001-2019
</metadata>
<g transform="translate(0.000000,144.000000) scale(0.100000,-0.100000)"
fill="#000000" stroke="none">
<path d="M70 1345 c-10 -12 -5 -27 25 -81 29 -52 38 -80 41 -128 3 -55 17
-418 33 -871 l6 -170 400 0 400 0 -3 300 c-1 165 -5 411 -8 546 l-5 246 29 50
c17 28 32 62 34 75 3 20 -1 23 -27 23 -25 0 -31 -5 -33 -25 -4 -35 -23 -80
-33 -80 -5 0 -14 12 -21 28 -39 95 -50 108 -83 96 -19 -8 -18 -22 5 -59 61
-96 59 -77 68 -510 5 -220 7 -403 5 -407 -2 -4 -45 -6 -96 -5 l-92 2 -3 180
c-1 99 -6 284 -11 410 -8 217 -7 231 10 254 11 13 19 32 19 41 0 10 7 23 15
30 17 14 20 56 4 65 -16 11 -48 -24 -55 -61 -3 -18 -12 -38 -20 -45 -14 -12
-34 -4 -34 13 0 25 -35 88 -52 94 -39 12 -51 -21 -18 -51 11 -10 20 -24 20
-32 0 -7 9 -30 20 -50 17 -32 20 -57 20 -173 0 -74 5 -211 10 -305 5 -93 10
-215 11 -270 l3 -100 -84 0 -85 0 -2 175 c-1 96 -7 279 -14 405 l-12 231 31
66 c36 74 37 81 19 96 -17 14 -27 6 -54 -43 -12 -22 -26 -40 -30 -40 -4 0 -18
21 -31 48 -18 37 -27 47 -47 47 -37 0 -32 -37 13 -95 l37 -48 1 -126 c1 -69 4
-139 7 -154 3 -16 7 -149 8 -295 l3 -267 -80 -3 c-43 -1 -85 2 -93 7 -12 7
-16 83 -22 408 l-9 398 24 50 c34 71 42 113 22 121 -24 9 -42 -11 -56 -61 -7
-25 -16 -45 -20 -45 -11 0 -37 33 -44 57 -8 24 -32 53 -45 53 -5 0 -14 -7 -21
-15z m303 -1032 c7 -11 -124 -124 -134 -117 -10 6 -12 107 -2 117 9 10 131 9
136 0z m237 0 c0 -13 -104 -113 -117 -113 -14 0 -19 100 -6 113 9 9 123 9 123
0z m249 -5 c0 -13 -98 -94 -125 -105 -9 -3 -14 2 -15 13 -1 11 -3 33 -5 49 -2
17 -2 36 1 43 6 17 145 17 144 0z m-437 -44 c2 -9 1 -39 0 -65 l-4 -49 -67 0
c-37 0 -70 3 -73 6 -3 3 15 24 40 47 26 23 54 50 62 59 19 22 38 23 42 2z
m244 -7 c3 -13 4 -41 2 -63 l-3 -39 -72 -3 c-40 -2 -73 1 -73 5 0 13 114 123
127 123 7 0 15 -11 19 -23z m244 -36 c0 -44 -4 -60 -16 -65 -24 -9 -132 -7
-138 3 -5 8 131 120 147 121 4 0 7 -27 7 -59z"/>
</g>
</svg>
