<?xml version="1.0" standalone="no"?>
<!DOCTYPE svg PUBLIC "-//W3C//DTD SVG 20010904//EN"
 "http://www.w3.org/TR/2001/REC-SVG-20010904/DTD/svg10.dtd">
<svg version="1.0" xmlns="http://www.w3.org/2000/svg"
 width="77.000000pt" height="100.000000pt" viewBox="0 0 77.000000 100.000000"
 preserveAspectRatio="xMidYMid meet">
<metadata>
Created by potrace 1.16, written by Peter Selinger 2001-2019
</metadata>
<g transform="translate(0.000000,100.000000) scale(0.100000,-0.100000)"
fill="#000000" stroke="none">
<path d="M232 948 c-17 -17 -15 -23 13 -69 25 -39 26 -46 36 -325 6 -157 8
-288 5 -291 -6 -6 -104 -9 -109 -2 -2 2 -9 127 -15 278 -11 265 -11 275 8 319
11 24 20 55 20 68 0 37 -29 29 -46 -11 -16 -38 -30 -38 -44 1 -12 29 -37 41
-53 25 -9 -9 -6 -24 16 -63 l28 -50 15 -377 c8 -207 17 -382 19 -389 3 -9 67
-12 274 -12 205 0 272 3 278 12 4 7 6 180 4 385 l-3 371 28 51 c25 44 27 53
14 61 -26 17 -41 11 -51 -20 -14 -39 -22 -38 -48 5 -22 39 -51 47 -51 15 0
-12 10 -40 22 -63 20 -39 23 -62 30 -292 9 -298 7 -311 -34 -317 -55 -8 -77 1
-82 36 -3 17 -8 143 -11 280 l-6 248 28 54 c24 47 26 56 13 64 -23 15 -28 12
-45 -20 -9 -16 -20 -30 -25 -30 -5 0 -16 14 -25 30 -16 32 -42 40 -51 16 -3
-8 7 -33 22 -55 26 -40 27 -47 35 -244 4 -111 8 -241 8 -289 l1 -88 -55 0 -55
0 -1 123 c-1 67 -4 194 -7 282 -6 139 -5 164 11 198 32 73 14 104 -29 50 l-22
-28 -10 25 c-14 37 -35 53 -50 38z m146 -787 c4 -61 -7 -80 -32 -56 -27 28
-17 119 13 113 12 -2 17 -17 19 -57z m80 -4 c3 -52 1 -57 -18 -57 -18 0 -20 6
-20 53 0 30 3 57 7 61 17 16 28 -5 31 -57z m-243 20 c8 -42 -9 -89 -30 -81
-11 5 -15 21 -15 60 0 47 3 54 20 54 14 0 21 -9 25 -33z m78 19 c3 -7 3 -32 0
-55 -4 -31 -10 -41 -24 -41 -16 0 -19 8 -19 55 0 47 3 55 19 55 10 0 21 -6 24
-14z m337 -36 c0 -38 -4 -52 -16 -57 -22 -8 -44 22 -44 62 0 38 6 45 37 45 21
0 23 -4 23 -50z"/>
</g>
</svg>
