<?xml version="1.0" standalone="no"?>
<!DOCTYPE svg PUBLIC "-//W3C//DTD SVG 20010904//EN"
 "http://www.w3.org/TR/2001/REC-SVG-20010904/DTD/svg10.dtd">
<svg version="1.0" xmlns="http://www.w3.org/2000/svg"
 width="456.000000pt" height="590.000000pt" viewBox="0 0 456.000000 590.000000"
 preserveAspectRatio="xMidYMid meet">
<metadata>
Created by potrace 1.16, written by Peter Selinger 2001-2019
</metadata>
<g transform="translate(0.000000,590.000000) scale(0.500000,-0.500000)"
fill="#000000" stroke="none">
<path d="M281 1119 c-26 -6 -18 -37 21 -82 12 -14 20 -30 20 -40 0 -4 2 -11 4
-16 4 -9 4 -14 4 -97 0 -71 1 -89 3 -97 2 -7 3 -29 5 -77 1 -37 2 -73 3 -81 1
-7 2 -74 3 -147 1 -95 3 -135 4 -141 3 -10 0 -27 -5 -34 -3 -5 -129 -5 -137
-1 -11 6 -12 27 -13 244 -1 160 -1 178 -4 186 -3 7 -4 19 -5 47 -1 25 -2 40
-4 42 -1 4 -2 21 -2 69 -1 72 1 82 16 110 22 39 26 48 27 62 1 7 3 17 4 22 7
22 -10 37 -31 26 -10 -5 -11 -6 -22 -40 -12 -37 -14 -40 -22 -40 -12 0 -30 25
-33 46 -1 8 -13 25 -21 31 -13 9 -40 -3 -40 -18 0 -5 1 -7 31 -61 11 -21 21
-41 21 -43 0 -2 2 -9 5 -15 4 -9 5 -12 4 -24 -1 -12 2 -135 7 -233 1 -23 3
-73 4 -112 1 -38 3 -94 4 -123 2 -29 3 -66 3 -83 0 -16 1 -37 2 -45 3 -17 6
-79 9 -175 3 -96 4 -104 9 -111 6 -7 85 -8 110 -1 15 3 39 3 165 -1 33 -1 78
-1 103 0 24 1 94 2 155 2 136 0 132 -8 118 208 0 12 0 42 0 67 1 28 1 51 0 60
-2 8 -2 35 -2 62 1 219 0 284 -6 298 -2 7 -2 31 1 161 2 57 2 59 12 68 3 3 6
9 7 14 2 5 9 19 20 34 24 36 26 42 14 53 -9 8 -18 11 -30 9 -22 -4 -26 -8 -26
-26 0 -14 -23 -59 -29 -57 -4 2 -12 18 -22 43 -16 41 -28 53 -48 51 -25 -1
-31 -21 -13 -38 2 -2 5 -8 7 -14 2 -5 7 -15 12 -21 5 -7 9 -14 10 -17 1 -2 7
-15 14 -29 l12 -25 1 -94 c1 -52 3 -161 4 -242 1 -81 3 -186 4 -232 3 -86 2
-94 -4 -96 -1 0 -33 -1 -70 -2 -78 -2 -78 -2 -78 18 0 6 -1 35 -2 66 -1 31 -2
114 -3 186 -1 108 -2 131 -4 138 -4 11 -7 66 -7 182 l-1 95 10 10 c11 9 14 15
20 38 2 6 7 18 12 26 21 33 18 50 -8 50 -14 0 -29 -13 -33 -28 -3 -12 -21 -48
-27 -53 -7 -7 -10 -5 -15 9 -2 6 -8 19 -14 28 -5 9 -11 20 -12 24 -6 18 -14
23 -35 21 -28 -3 -29 -11 -6 -45 9 -13 19 -30 23 -38 3 -8 8 -17 10 -19 12
-13 13 -23 20 -198 1 -32 3 -91 5 -131 15 -362 15 -375 6 -378 -16 -6 -127 -2
-130 5 -1 4 -5 179 -6 313 -1 68 -2 99 -3 103 -2 4 -3 29 -4 68 -1 34 -3 83
-4 108 -3 78 -3 84 4 91 7 8 8 11 20 44 5 12 10 25 12 29 14 20 7 47 -12 47
-12 0 -15 -3 -22 -17 -15 -30 -30 -51 -36 -51 -9 0 -28 31 -28 44 0 18 -25 35
-45 31z m174 -864 c6 -5 6 -131 0 -137 -6 -6 -48 -6 -54 0 -7 8 -6 133 1 138
7 6 48 5 53 -1z m90 1 c6 -8 11 -129 6 -134 -5 -5 -51 -7 -54 -3 -2 3 -3 20
-3 68 0 66 0 69 8 72 7 3 40 0 43 -3z m-291 -9 c6 -6 5 -120 -1 -128 -5 -7
-46 -6 -51 1 -4 5 -6 120 -2 126 4 6 47 7 54 1z m96 1 c5 -4 6 -116 1 -125 -5
-8 -49 -11 -54 -4 -4 5 -4 123 0 127 5 7 45 9 53 2z m290 0 c8 -6 8 -118 0
-124 -9 -8 -38 -4 -41 5 -3 13 -1 115 3 119 6 6 31 6 38 0z m111 -2 c4 -6 4
-116 0 -120 -10 -10 -66 -6 -68 4 -3 10 -2 113 1 117 6 7 61 6 67 -1z"/>
</g>
</svg>
