<?xml version="1.0" standalone="no"?>
<!DOCTYPE svg PUBLIC "-//W3C//DTD SVG 20010904//EN"
 "http://www.w3.org/TR/2001/REC-SVG-20010904/DTD/svg10.dtd">
<svg version="1.0" xmlns="http://www.w3.org/2000/svg"
 width="114.000000pt" height="148.000000pt" viewBox="0 0 114.000000 148.000000"
 preserveAspectRatio="xMidYMid meet">
<metadata>
Created by potrace 1.16, written by Peter Selinger 2001-2019
</metadata>
<g transform="translate(0.000000,148.000000) scale(0.100000,-0.100000)"
fill="#000000" stroke="none">
<path d="M82 1388 c-18 -18 -15 -33 18 -85 17 -26 30 -55 30 -64 0 -10 3 -20
8 -23 4 -2 9 -67 10 -143 2 -76 7 -239 12 -363 6 -124 13 -310 16 -415 4 -104
11 -198 16 -208 9 -17 18 -18 96 -12 48 4 229 8 402 8 l315 2 -4 355 c-2 195
-4 453 -6 572 -2 174 1 220 11 229 8 6 14 16 14 22 0 5 12 26 27 45 31 41 22
67 -23 67 -21 0 -29 -5 -32 -20 -1 -11 -8 -37 -14 -57 -14 -47 -27 -38 -58 37
-22 54 -38 69 -65 59 -23 -9 -19 -25 25 -100 38 -67 39 -73 44 -179 3 -60 6
-252 7 -425 l2 -315 -92 -2 c-65 -2 -93 1 -96 10 -2 7 -6 98 -9 202 -3 105 -8
294 -12 421 -7 228 -7 231 14 252 12 12 22 30 22 40 0 9 7 26 15 36 24 31 19
56 -10 56 -21 0 -29 -9 -50 -55 -13 -30 -28 -55 -33 -55 -5 0 -19 22 -30 48
-24 56 -43 75 -66 66 -21 -8 -20 -30 3 -62 54 -77 61 -105 61 -239 0 -70 5
-195 10 -278 5 -82 10 -215 11 -295 l3 -145 -82 -2 c-58 -2 -84 1 -87 10 -2 6
-6 120 -9 252 -3 132 -8 319 -12 415 l-6 175 31 66 c17 37 29 74 25 83 -12 30
-39 17 -62 -30 -12 -25 -27 -44 -33 -42 -9 3 -27 31 -49 78 -10 22 -54 19 -58
-3 -2 -10 12 -39 32 -64 41 -53 43 -62 52 -303 16 -428 19 -616 11 -627 -10
-14 -153 -18 -174 -5 -8 5 -13 86 -17 267 -3 143 -8 330 -12 415 l-6 155 31
65 c34 72 39 108 16 116 -23 9 -42 -12 -54 -61 -6 -24 -15 -46 -20 -50 -12 -7
-51 42 -51 65 0 15 -29 50 -41 50 -3 0 -10 -5 -17 -12z m236 -1160 l3 -88 -41
0 -40 0 0 84 c0 89 4 96 50 93 24 -2 25 -4 28 -89z m117 2 l0 -85 -37 -3 -38
-3 0 85 c0 89 4 96 50 93 25 -2 25 -4 25 -87z m135 0 l0 -90 -40 0 -40 0 0 90
0 90 40 0 40 0 0 -90z m115 38 c4 -29 5 -69 3 -88 -3 -33 -6 -35 -40 -38 l-38
-3 0 84 c0 46 3 87 7 90 3 4 19 7 34 7 26 0 28 -3 34 -52z m111 42 c12 -12 7
-150 -6 -163 -4 -5 -17 -6 -29 -2 -19 6 -21 14 -21 85 0 76 4 87 36 89 5 1 15
-4 20 -9z m144 -80 l0 -77 -37 -6 c-21 -4 -41 -3 -44 1 -4 4 -9 41 -11 82 l-3
75 35 5 c57 9 60 6 60 -80z"/>
</g>
</svg>
