<?xml version="1.0" standalone="no"?>
<!DOCTYPE svg PUBLIC "-//W3C//DTD SVG 20010904//EN"
 "http://www.w3.org/TR/2001/REC-SVG-20010904/DTD/svg10.dtd">
<svg version="1.0" xmlns="http://www.w3.org/2000/svg"
 width="118.000000pt" height="148.000000pt" viewBox="0 0 118.000000 148.000000"
 preserveAspectRatio="xMidYMid meet">
<metadata>
Created by potrace 1.16, written by Peter Selinger 2001-2019
</metadata>
<g transform="translate(0.000000,148.000000) scale(0.100000,-0.100000)"
fill="#000000" stroke="none">
<path d="M357 1403 c-14 -13 -6 -37 30 -86 l37 -50 8 -161 c4 -89 10 -261 14
-383 l7 -223 -102 0 -102 0 2 137 c1 76 -2 240 -6 365 l-8 226 26 46 c14 25
28 64 32 86 7 41 7 41 -21 38 -24 -2 -30 -10 -41 -47 -7 -25 -17 -49 -22 -54
-11 -11 -51 30 -51 52 -1 25 -25 51 -49 51 -28 0 -28 -28 1 -77 47 -84 48 -89
54 -255 3 -89 9 -262 15 -383 5 -121 12 -303 16 -405 3 -103 10 -191 16 -198
8 -10 29 -12 81 -7 39 4 220 6 403 6 376 -1 350 -7 339 81 -4 24 -8 274 -11
556 l-4 513 29 50 c17 27 33 61 36 74 6 23 3 25 -25 25 -17 0 -33 -6 -35 -12
-2 -7 -9 -32 -15 -55 -7 -24 -16 -43 -21 -43 -6 0 -23 29 -39 65 -25 55 -34
65 -55 65 -21 0 -26 -5 -26 -24 0 -13 3 -26 8 -28 4 -1 21 -30 38 -63 l31 -60
7 -362 6 -363 -99 0 -99 0 -6 213 c-3 116 -8 282 -12 369 -5 149 -5 157 15
177 12 12 21 30 21 41 0 12 10 34 22 50 16 22 19 33 11 41 -14 14 -44 8 -53
-11 -10 -21 -27 -61 -34 -82 -3 -10 -10 -18 -16 -18 -9 0 -38 56 -54 103 -3
11 -16 17 -36 17 -37 0 -38 -15 -5 -54 14 -16 25 -34 25 -41 0 -7 6 -25 14
-41 9 -20 17 -114 25 -314 6 -157 14 -322 17 -367 l6 -83 -91 0 -91 0 -1 173
c-1 94 -2 186 -4 202 -1 17 -6 102 -10 191 l-8 161 32 67 c34 72 36 99 9 104
-11 2 -26 -13 -43 -42 -15 -25 -30 -46 -35 -46 -12 0 -28 23 -35 53 -9 35 -50
59 -68 40z m93 -959 c6 -6 10 -24 8 -40 -3 -29 -4 -29 -78 -32 -106 -4 -120 1
-120 42 0 19 5 36 10 38 26 8 170 2 180 -8z m245 -29 l0 -40 -85 0 -85 0 -3
28 c-6 51 0 55 90 53 l83 -1 0 -40z m264 30 c6 -3 11 -19 11 -35 0 -37 -17
-42 -125 -38 -80 3 -80 3 -83 31 -6 50 -1 53 96 51 50 -1 96 -5 101 -9z m-504
-160 l0 -30 -95 0 -95 0 -3 33 -3 33 98 -3 98 -3 0 -30z m250 5 c20 -39 13
-42 -96 -38 -72 3 -84 6 -87 21 -8 41 4 47 87 47 79 0 81 0 96 -30z m260 -5
l0 -30 -96 -3 c-97 -3 -97 -3 -103 23 -4 14 -4 30 0 36 3 6 46 9 102 7 l97 -3
0 -30z m-505 -110 l0 -35 -95 0 -95 0 0 35 0 35 95 0 95 0 0 -35z m255 24 c4
-5 4 -21 1 -35 -6 -23 -9 -24 -96 -24 l-90 0 0 35 0 35 89 0 c52 0 93 -4 96
-11z m255 -19 l0 -30 -75 -2 c-41 -1 -85 -2 -97 -2 -19 -1 -24 5 -26 32 l-3
32 100 0 101 0 0 -30z"/>
</g>
</svg>
