<?xml version="1.0" standalone="no"?>
<!DOCTYPE svg PUBLIC "-//W3C//DTD SVG 20010904//EN"
 "http://www.w3.org/TR/2001/REC-SVG-20010904/DTD/svg10.dtd">
<svg version="1.0" xmlns="http://www.w3.org/2000/svg"
 width="474.000000pt" height="590.000000pt" viewBox="0 0 474.000000 590.000000"
 preserveAspectRatio="xMidYMid meet">
<metadata>
Created by potrace 1.16, written by Peter Selinger 2001-2019
</metadata>
<g transform="translate(0.000000,590.000000) scale(0.500000,-0.500000)"
fill="#000000" stroke="none">
<path d="M299 1125 c-26 -6 -18 -38 21 -82 12 -14 20 -28 21 -41 1 -5 3 -13 5
-18 4 -9 4 -16 4 -99 0 -62 1 -90 2 -94 4 -10 15 -368 11 -381 -2 -10 -142
-13 -151 -4 -4 4 -4 11 -4 165 0 140 0 163 -3 172 -2 7 -3 19 -3 41 0 26 -1
34 -4 44 -14 42 -4 154 16 188 4 7 9 16 10 19 2 3 5 10 8 15 5 7 6 11 6 20 0
6 1 15 3 20 9 25 -6 41 -30 31 -9 -4 -11 -7 -23 -42 -12 -34 -14 -39 -20 -39
-15 0 -30 22 -37 52 -7 32 -59 39 -59 7 0 -8 1 -10 32 -65 10 -17 19 -35 20
-40 1 -6 4 -13 6 -18 4 -6 4 -9 2 -16 -1 -6 -1 -31 1 -79 2 -38 4 -94 5 -123
3 -83 6 -153 9 -239 2 -44 4 -94 4 -112 0 -18 1 -37 2 -44 3 -15 6 -82 10
-197 3 -98 3 -98 15 -101 10 -4 93 -2 103 2 12 4 102 5 117 1 11 -2 118 -4
133 -2 5 1 73 2 151 2 77 0 143 1 145 2 10 4 10 7 7 115 -3 114 -4 209 -4 283
0 45 0 130 0 271 0 25 0 53 0 64 0 10 -1 52 -2 93 -3 88 -2 89 8 101 6 6 8 12
9 18 1 7 5 15 13 27 31 47 26 69 -15 65 -16 -1 -21 -6 -21 -21 0 -14 -7 -38
-13 -47 -3 -4 -5 -9 -5 -11 0 -22 -18 0 -34 41 -16 40 -27 52 -46 52 -27 -1
-34 -18 -17 -38 3 -4 8 -12 10 -18 1 -5 6 -13 10 -18 3 -4 13 -22 21 -39 l15
-31 1 -48 c1 -26 3 -113 4 -192 1 -79 3 -184 4 -233 2 -94 2 -99 -6 -101 -7
-1 -140 -2 -144 0 -7 3 -8 16 -9 160 -1 97 -2 147 -3 150 -5 12 -6 38 -8 153
-2 129 -2 129 10 137 11 9 20 28 20 44 0 6 2 11 12 24 20 25 19 46 -3 48 -17
2 -34 -12 -37 -29 0 -5 -3 -14 -6 -20 -3 -6 -6 -13 -6 -16 0 -25 -31 -32 -35
-8 -2 9 -8 23 -16 36 -3 4 -6 11 -7 15 -6 18 -15 24 -37 23 -30 -2 -27 -21 6
-52 7 -6 15 -25 15 -34 0 -7 3 -13 9 -20 11 -13 13 -25 16 -128 2 -52 4 -123
6 -157 2 -34 4 -87 5 -118 1 -31 3 -77 5 -103 5 -71 5 -99 0 -103 -3 -4 -110
-7 -127 -4 -13 3 -14 12 -14 281 0 27 -1 42 -3 49 -2 7 -3 35 -5 92 -1 45 -3
100 -4 122 -2 42 -1 46 7 55 5 5 16 29 22 48 2 6 7 17 10 24 23 42 -14 68 -37
26 -16 -28 -30 -48 -34 -48 -8 0 -27 27 -29 43 -3 22 -24 36 -46 32z m63 -764
c12 -15 11 -48 -1 -56 -6 -4 -131 -3 -138 1 -11 5 -16 43 -8 53 5 7 141 9 147
2z m199 0 c6 -6 7 -49 1 -55 -6 -6 -130 -6 -136 0 -8 8 -5 55 4 59 9 3 128 0
131 -4z m204 2 c10 -2 11 -6 11 -30 0 -32 5 -31 -92 -31 -72 0 -67 -2 -68 31
0 25 1 30 11 32 5 1 133 -1 138 -2z m-403 -112 c5 -5 9 -39 5 -43 -4 -4 -136
-3 -146 0 -9 4 -12 34 -4 41 6 7 138 8 145 2z m200 0 c3 -4 12 -29 12 -36 0
-12 -136 -18 -146 -5 -4 5 -6 34 -2 39 5 8 128 10 136 2z m178 2 c37 0 38 -1
39 -24 0 -23 5 -22 -75 -23 -86 -2 -84 -3 -84 25 -1 27 -11 25 120 22z m-377
-83 c8 -3 9 -5 9 -26 0 -31 6 -29 -74 -29 -80 0 -73 -2 -76 29 -3 28 -18 25
116 28 11 0 22 -1 25 -2z m209 -4 c6 -7 6 -38 0 -44 -6 -6 -130 -9 -138 -2
-10 7 -9 45 0 50 10 5 134 2 138 -4z m195 3 c12 -2 19 -30 10 -42 -5 -7 -141
-11 -148 -4 -10 11 -5 45 8 48 5 1 122 -1 130 -2z"/>
</g>
</svg>
