<?xml version="1.0" standalone="no"?>
<!DOCTYPE svg PUBLIC "-//W3C//DTD SVG 20010904//EN"
 "http://www.w3.org/TR/2001/REC-SVG-20010904/DTD/svg10.dtd">
<svg version="1.0" xmlns="http://www.w3.org/2000/svg"
 width="80.000000pt" height="100.000000pt" viewBox="0 0 80.000000 100.000000"
 preserveAspectRatio="xMidYMid meet">
<metadata>
Created by potrace 1.16, written by Peter Selinger 2001-2019
</metadata>
<g transform="translate(0.000000,100.000000) scale(0.100000,-0.100000)"
fill="#000000" stroke="none">
<path d="M61 946 c-10 -12 -7 -24 15 -62 l28 -47 16 -382 c9 -210 20 -387 24
-393 9 -16 542 -17 551 -2 4 6 6 181 5 390 l-1 380 26 45 c28 47 26 65 -6 65
-13 0 -24 -10 -30 -30 -14 -38 -27 -38 -41 0 -5 17 -18 35 -28 40 -37 20 -41
-23 -6 -83 23 -41 24 -50 28 -282 l3 -240 -60 0 -60 0 -8 240 -9 240 26 55
c25 55 23 79 -8 67 -9 -4 -21 -20 -28 -38 l-13 -31 -26 38 c-15 23 -31 37 -40
35 -8 -3 -26 -4 -41 -3 -18 1 -31 -7 -42 -23 -21 -32 -27 -31 -48 5 -38 66
-62 19 -25 -48 25 -47 26 -51 29 -292 l3 -245 -55 0 -55 0 -7 85 c-3 47 -6
155 -7 241 -1 138 1 162 20 203 20 47 18 91 -4 83 -7 -2 -18 -18 -26 -35 -17
-38 -29 -37 -51 3 -19 35 -33 41 -49 21z m362 -59 c23 -30 33 -132 39 -387 l3
-155 -52 -3 c-29 -2 -53 -2 -53 0 -1 2 -5 111 -10 243 -8 231 -8 242 12 288
23 52 32 54 61 14z m-129 -583 c24 -9 19 -41 -6 -47 -12 -4 -41 -3 -65 0 -32
4 -43 10 -43 24 0 24 73 39 114 23z m171 -10 c23 -24 6 -36 -50 -36 -57 0 -79
17 -51 38 26 19 81 18 101 -2z m185 -13 c0 -14 -10 -20 -43 -24 -57 -8 -87 1
-87 24 0 17 8 19 65 19 57 0 65 -2 65 -19z m-341 -77 c2 -2 1 -10 -2 -19 -7
-15 -78 -22 -111 -9 -26 10 -18 32 12 37 26 4 93 -2 101 -9z m170 0 c2 -2 1
-10 -2 -19 -9 -21 -100 -21 -117 0 -10 12 -8 16 11 24 21 9 97 5 108 -5z m168
3 c3 -4 3 -13 -1 -22 -9 -23 -119 -17 -124 7 -2 9 5 19 15 22 22 6 102 1 110
-7z m-198 -63 c20 -4 31 -12 31 -24 0 -22 -71 -36 -100 -20 -27 14 -25 38 3
43 12 2 25 5 28 6 4 0 21 -2 38 -5z m198 -7 c3 -4 3 -13 0 -22 -9 -21 -112
-22 -121 0 -3 8 3 19 12 25 17 10 97 8 109 -3z m-337 -16 c0 -23 -38 -34 -86
-25 -24 4 -34 12 -34 25 0 17 8 19 60 19 52 0 60 -2 60 -19z"/>
</g>
</svg>
