<?xml version="1.0" standalone="no"?>
<!DOCTYPE svg PUBLIC "-//W3C//DTD SVG 20010904//EN"
 "http://www.w3.org/TR/2001/REC-SVG-20010904/DTD/svg10.dtd">
<svg version="1.0" xmlns="http://www.w3.org/2000/svg"
 width="47.000000pt" height="100.000000pt" viewBox="0 0 47.000000 100.000000"
 preserveAspectRatio="xMidYMid meet">
<metadata>
Created by potrace 1.16, written by Peter Selinger 2001-2019
</metadata>
<g transform="translate(0.000000,100.000000) scale(0.100000,-0.100000)"
fill="#000000" stroke="none">
<path d="M140 960 c-11 -7 -6 -47 29 -232 24 -122 61 -299 82 -393 41 -181 44
-195 31 -195 -5 0 -52 38 -106 85 -90 80 -126 99 -141 75 -15 -24 13 -55 137
-155 97 -78 139 -105 160 -105 23 0 28 4 28 24 0 26 -121 625 -145 717 -8 31
-15 60 -15 63 0 14 21 2 105 -59 92 -68 127 -79 133 -39 2 16 -24 40 -130 115
-162 116 -151 109 -168 99z"/>
</g>
</svg>
