<?xml version="1.0" standalone="no"?>
<!DOCTYPE svg PUBLIC "-//W3C//DTD SVG 20010904//EN"
 "http://www.w3.org/TR/2001/REC-SVG-20010904/DTD/svg10.dtd">
<svg version="1.0" xmlns="http://www.w3.org/2000/svg"
 width="278.000000pt" height="590.000000pt" viewBox="0 0 278.000000 590.000000"
 preserveAspectRatio="xMidYMid meet">
<metadata>
Created by potrace 1.16, written by Peter Selinger 2001-2019
</metadata>
<g transform="translate(0.000000,590.000000) scale(0.500000,-0.500000)"
fill="#000000" stroke="none">
<path d="M171 1137 c-17 -7 -15 -71 4 -129 2 -4 3 -13 3 -20 0 -7 2 -14 4 -20
2 -5 5 -13 6 -17 1 -4 5 -21 9 -36 5 -21 8 -34 9 -53 1 -18 3 -28 6 -37 2 -7
5 -20 6 -29 1 -9 4 -24 7 -34 3 -10 5 -21 5 -28 0 -6 2 -17 4 -23 6 -19 10
-36 13 -63 2 -14 4 -31 6 -38 2 -7 4 -22 5 -33 1 -16 2 -22 7 -33 8 -16 9 -20
11 -41 1 -10 4 -22 8 -32 3 -8 6 -18 6 -21 0 -3 2 -14 5 -25 3 -11 5 -24 5
-28 0 -5 3 -17 6 -27 3 -11 7 -24 8 -31 4 -21 8 -38 10 -46 7 -27 14 -61 14
-65 0 -3 1 -9 3 -12 6 -16 6 -54 0 -54 -6 0 -63 43 -90 68 -7 6 -16 14 -21 18
-5 4 -15 12 -22 19 -25 22 -34 30 -42 35 -7 5 -22 18 -51 45 -16 15 -22 17
-41 17 -24 0 -28 -4 -28 -30 0 -23 12 -41 37 -57 7 -4 28 -23 75 -67 14 -14
29 -24 40 -30 5 -2 13 -8 18 -13 5 -5 13 -11 18 -14 5 -4 12 -9 15 -13 3 -3
14 -12 24 -18 10 -7 24 -18 32 -25 7 -7 14 -13 15 -13 1 0 8 -6 16 -13 20 -19
56 -29 83 -22 9 2 13 41 6 60 -2 4 -4 13 -5 19 -1 6 -3 18 -5 27 -2 9 -4 21
-5 27 -1 6 -3 16 -5 21 -1 6 -4 16 -5 24 -3 21 -8 45 -10 55 -7 29 -8 34 -10
43 -1 6 -3 17 -5 26 -1 9 -3 20 -5 25 -3 13 -7 37 -10 53 -1 8 -3 18 -4 23 -1
5 -3 14 -4 19 -1 6 -4 19 -7 30 -5 24 -10 45 -19 92 -4 25 -9 48 -12 60 -1 4
-4 20 -7 35 -3 15 -7 35 -10 45 -2 10 -6 27 -8 37 -2 10 -5 23 -6 28 -2 5 -3
12 -3 15 0 4 -1 10 -3 15 -2 5 -4 14 -5 20 -1 6 -3 17 -5 25 -2 8 -4 19 -5 26
-1 7 -3 16 -5 20 -1 4 -4 15 -6 24 -2 9 -5 22 -6 29 -4 21 -6 38 -3 38 4 0 21
-10 42 -25 26 -18 61 -43 96 -67 15 -10 30 -21 33 -24 49 -46 103 -50 103 -7
0 26 6 21 -73 74 -8 5 -18 13 -23 18 -9 9 -17 15 -57 42 -30 20 -61 42 -97 69
-9 7 -22 16 -29 21 -7 4 -15 10 -19 13 -15 13 -35 19 -47 13z"/>
</g>
</svg>
