<?xml version="1.0" standalone="no"?>
<!DOCTYPE svg PUBLIC "-//W3C//DTD SVG 20010904//EN"
 "http://www.w3.org/TR/2001/REC-SVG-20010904/DTD/svg10.dtd">
<svg version="1.0" xmlns="http://www.w3.org/2000/svg"
 width="70.000000pt" height="148.000000pt" viewBox="0 0 70.000000 148.000000"
 preserveAspectRatio="xMidYMid meet">
<metadata>
Created by potrace 1.16, written by Peter Selinger 2001-2019
</metadata>
<g transform="translate(0.000000,148.000000) scale(0.100000,-0.100000)"
fill="#000000" stroke="none">
<path d="M200 1388 c0 -36 23 -163 40 -218 6 -19 15 -69 21 -110 5 -41 14 -88
18 -105 9 -33 24 -104 41 -205 7 -36 15 -76 20 -90 10 -34 29 -118 35 -155 2
-16 16 -77 30 -135 32 -131 40 -180 29 -180 -12 1 -69 46 -208 163 -95 81
-120 98 -143 95 -22 -2 -29 -9 -31 -29 -2 -20 10 -37 70 -90 40 -35 80 -71 89
-79 9 -8 52 -41 96 -73 44 -32 91 -69 103 -82 49 -53 139 -54 126 -1 -3 12
-26 125 -51 251 -25 127 -54 268 -65 315 -10 47 -24 112 -30 145 -18 89 -28
136 -62 285 -16 74 -32 145 -35 158 -3 12 -1 22 5 22 6 0 73 -45 150 -100 139
-100 173 -115 190 -82 15 27 -1 53 -55 91 -185 130 -313 223 -318 231 -3 6
-19 10 -36 10 -26 0 -29 -3 -29 -32z"/>
</g>
</svg>
