<?xml version="1.0" standalone="no"?>
<!DOCTYPE svg PUBLIC "-//W3C//DTD SVG 20010904//EN"
 "http://www.w3.org/TR/2001/REC-SVG-20010904/DTD/svg10.dtd">
<svg version="1.0" xmlns="http://www.w3.org/2000/svg"
 width="47.000000pt" height="100.000000pt" viewBox="0 0 47.000000 100.000000"
 preserveAspectRatio="xMidYMid meet">
<metadata>
Created by potrace 1.16, written by Peter Selinger 2001-2019
</metadata>
<g transform="translate(0.000000,100.000000) scale(0.100000,-0.100000)"
fill="#000000" stroke="none">
<path d="M214 902 c-50 -37 -112 -82 -138 -99 -47 -33 -61 -68 -32 -79 19 -7
45 8 134 74 40 30 76 52 79 48 4 -3 -3 -48 -15 -99 -24 -102 -142 -679 -142
-696 0 -6 14 -11 30 -11 24 0 58 22 148 94 136 109 155 128 150 153 -7 39 -43
24 -142 -62 -54 -48 -102 -83 -107 -78 -4 4 6 62 22 128 16 66 53 242 82 392
50 253 54 303 29 303 -4 0 -48 -30 -98 -68z"/>
</g>
</svg>
