<?xml version="1.0" standalone="no"?>
<!DOCTYPE svg PUBLIC "-//W3C//DTD SVG 20010904//EN"
 "http://www.w3.org/TR/2001/REC-SVG-20010904/DTD/svg10.dtd">
<svg version="1.0" xmlns="http://www.w3.org/2000/svg"
 width="70.000000pt" height="148.000000pt" viewBox="0 0 70.000000 148.000000"
 preserveAspectRatio="xMidYMid meet">
<metadata>
Created by potrace 1.16, written by Peter Selinger 2001-2019
</metadata>
<g transform="translate(0.000000,148.000000) scale(0.100000,-0.100000)"
fill="#000000" stroke="none">
<path d="M365 1366 c-73 -55 -161 -119 -256 -186 -31 -21 -59 -46 -63 -55 -9
-24 11 -55 36 -55 19 0 169 100 266 177 48 39 62 29 43 -29 -6 -18 -22 -87
-36 -153 -14 -66 -30 -138 -35 -160 -4 -22 -13 -65 -19 -95 -6 -30 -18 -89
-27 -130 -9 -41 -40 -194 -70 -340 -44 -222 -51 -267 -40 -279 22 -21 72 -4
126 42 26 23 90 75 141 114 146 113 211 177 207 205 -2 17 -11 24 -31 26 -23
3 -48 -14 -143 -95 -174 -147 -203 -168 -210 -149 -3 8 8 73 24 143 17 71 38
164 47 208 9 44 21 91 26 105 4 14 13 54 19 90 16 98 30 171 41 210 5 19 14
71 20 114 6 44 15 91 20 105 16 40 47 214 42 228 -10 27 -59 11 -128 -41z"/>
</g>
</svg>
