<?xml version="1.0" standalone="no"?>
<!DOCTYPE svg PUBLIC "-//W3C//DTD SVG 20010904//EN"
 "http://www.w3.org/TR/2001/REC-SVG-20010904/DTD/svg10.dtd">
<svg version="1.0" xmlns="http://www.w3.org/2000/svg"
 width="51.000000pt" height="100.000000pt" viewBox="0 0 51.000000 100.000000"
 preserveAspectRatio="xMidYMid meet">
<metadata>
Created by potrace 1.16, written by Peter Selinger 2001-2019
</metadata>
<g transform="translate(0.000000,100.000000) scale(0.100000,-0.100000)"
fill="#000000" stroke="none">
<path d="M35 960 c-3 -6 -6 -116 -6 -246 0 -245 4 -270 38 -248 16 10 17 35
18 230 l0 219 156 3 c155 2 157 2 163 -20 3 -13 6 -176 6 -363 0 -187 3 -377
7 -422 6 -77 8 -83 28 -83 21 0 22 4 27 117 3 65 3 270 0 456 -4 274 -8 341
-19 353 -12 11 -55 14 -213 14 -122 0 -201 -4 -205 -10z"/>
</g>
</svg>
