<?xml version="1.0" standalone="no"?>
<!DOCTYPE svg PUBLIC "-//W3C//DTD SVG 20010904//EN"
 "http://www.w3.org/TR/2001/REC-SVG-20010904/DTD/svg10.dtd">
<svg version="1.0" xmlns="http://www.w3.org/2000/svg"
 width="304.000000pt" height="590.000000pt" viewBox="0 0 304.000000 590.000000"
 preserveAspectRatio="xMidYMid meet">
<metadata>
Created by potrace 1.16, written by Peter Selinger 2001-2019
</metadata>
<g transform="translate(0.000000,590.000000) scale(0.500000,-0.500000)"
fill="#000000" stroke="none">
<path d="M58 1144 c-15 -1 -23 -8 -25 -23 -4 -28 -1 -367 3 -377 6 -15 6 -47
0 -60 -7 -14 -8 -80 -2 -96 2 -5 4 -14 4 -19 0 -23 43 -28 53 -6 2 3 6 10 10
15 9 11 9 21 2 38 -6 11 -6 11 -7 232 -1 228 -1 232 6 239 4 4 368 7 376 3 6
-3 10 -22 9 -38 -1 -10 -1 -15 2 -20 3 -5 3 -29 3 -253 0 -242 0 -247 4 -257
5 -13 5 -15 0 -26 -6 -14 -6 -80 0 -95 4 -10 4 -14 4 -181 0 -94 0 -173 1
-174 4 -11 55 -11 63 -1 4 7 1 815 -4 828 -5 12 -5 16 0 30 6 17 6 169 0 181
-2 4 -4 9 -4 11 0 3 -2 8 -4 12 -2 4 -4 12 -5 17 -2 17 -3 18 -11 20 -8 2
-454 2 -478 0z"/>
</g>
</svg>
