<?xml version="1.0" standalone="no"?>
<!DOCTYPE svg PUBLIC "-//W3C//DTD SVG 20010904//EN"
 "http://www.w3.org/TR/2001/REC-SVG-20010904/DTD/svg10.dtd">
<svg version="1.0" xmlns="http://www.w3.org/2000/svg"
 width="76.000000pt" height="148.000000pt" viewBox="0 0 76.000000 148.000000"
 preserveAspectRatio="xMidYMid meet">
<metadata>
Created by potrace 1.16, written by Peter Selinger 2001-2019
</metadata>
<g transform="translate(0.000000,148.000000) scale(0.100000,-0.100000)"
fill="#000000" stroke="none">
<path d="M45 1420 c-3 -5 -5 -149 -4 -318 1 -170 -1 -313 -5 -320 -3 -6 -1
-29 6 -51 10 -32 18 -41 35 -41 47 0 50 22 42 350 -4 200 -3 309 3 318 15 18
461 17 476 -1 7 -8 12 -128 13 -352 1 -187 3 -374 4 -415 0 -41 2 -180 3 -307
l2 -233 40 0 41 0 -4 658 c-2 361 -7 672 -12 690 l-7 32 -314 0 c-196 0 -315
-4 -319 -10z"/>
</g>
</svg>
