<?xml version="1.0" standalone="no"?>
<!DOCTYPE svg PUBLIC "-//W3C//DTD SVG 20010904//EN"
 "http://www.w3.org/TR/2001/REC-SVG-20010904/DTD/svg10.dtd">
<svg version="1.0" xmlns="http://www.w3.org/2000/svg"
 width="78.000000pt" height="100.000000pt" viewBox="0 0 78.000000 100.000000"
 preserveAspectRatio="xMidYMid meet">
<metadata>
Created by potrace 1.16, written by Peter Selinger 2001-2019
</metadata>
<g transform="translate(0.000000,100.000000) scale(0.100000,-0.100000)"
fill="#000000" stroke="none">
<path d="M437 964 c-4 -4 -7 -114 -7 -244 0 -199 2 -240 15 -250 12 -10 18
-10 30 0 12 10 15 49 15 231 l0 219 90 0 c85 0 90 -1 94 -22 3 -13 7 -209 9
-436 2 -281 7 -416 15 -424 6 -6 18 -8 26 -5 15 6 16 55 14 469 l-3 463 -146
3 c-80 1 -148 -1 -152 -4z"/>
<path d="M32 713 c3 -240 4 -248 23 -248 19 0 20 8 25 220 l5 220 50 8 c28 5
69 6 93 2 l42 -6 1 -82 c1 -45 4 -242 8 -437 l6 -355 28 -3 27 -3 0 443 c0
244 -3 453 -6 466 -6 22 -9 22 -155 22 l-149 0 2 -247z"/>
</g>
</svg>
