<?xml version="1.0" standalone="no"?>
<!DOCTYPE svg PUBLIC "-//W3C//DTD SVG 20010904//EN"
 "http://www.w3.org/TR/2001/REC-SVG-20010904/DTD/svg10.dtd">
<svg version="1.0" xmlns="http://www.w3.org/2000/svg"
 width="460.000000pt" height="590.000000pt" viewBox="0 0 460.000000 590.000000"
 preserveAspectRatio="xMidYMid meet">
<metadata>
Created by potrace 1.16, written by Peter Selinger 2001-2019
</metadata>
<g transform="translate(0.000000,590.000000) scale(0.500000,-0.500000)"
fill="#000000" stroke="none">
<path d="M521 1140 c-13 -9 -12 3 -13 -198 0 -181 0 -184 4 -193 6 -13 6 -50
0 -65 -5 -13 -6 -80 -1 -90 2 -3 4 -11 4 -17 2 -16 7 -21 21 -23 29 -2 48 27
41 62 -6 36 -5 465 1 471 11 9 213 8 217 -1 6 -13 9 -24 7 -29 -3 -7 -2 -17 1
-27 3 -8 3 -38 3 -252 0 -218 0 -244 3 -250 4 -10 4 -20 -1 -30 -6 -14 -6 -78
0 -89 4 -8 4 -11 4 -179 0 -204 -4 -183 34 -182 37 1 33 -23 32 218 -1 108 -2
287 -2 397 0 195 0 200 -4 209 -5 11 -5 23 0 36 4 13 5 223 1 228 -10 10 -339
13 -352 4z"/>
<path d="M55 1135 c-8 -1 -17 -10 -19 -20 -4 -18 -2 -363 2 -376 5 -14 5 -48
1 -60 -6 -15 -8 -76 -3 -92 2 -8 4 -17 4 -21 0 -14 7 -19 24 -19 27 0 40 25
33 70 -5 34 -5 450 -1 458 7 10 6 10 112 10 120 1 128 -2 118 -40 -2 -7 -1
-10 1 -17 3 -7 3 -42 3 -256 0 -210 1 -248 3 -252 4 -7 4 -20 0 -30 -2 -5 -4
-12 -3 -17 0 -11 -1 -33 -1 -52 0 -11 1 -18 4 -23 3 -6 3 -19 3 -177 0 -203
-4 -181 32 -181 39 0 35 -56 33 411 -1 388 -2 402 -5 412 -5 13 -5 25 0 39 4
12 6 216 3 221 -8 11 -15 12 -182 12 -86 0 -159 0 -162 0z"/>
</g>
</svg>
