<?xml version="1.0" standalone="no"?>
<!DOCTYPE svg PUBLIC "-//W3C//DTD SVG 20010904//EN"
 "http://www.w3.org/TR/2001/REC-SVG-20010904/DTD/svg10.dtd">
<svg version="1.0" xmlns="http://www.w3.org/2000/svg"
 width="42.000000pt" height="100.000000pt" viewBox="0 0 42.000000 100.000000"
 preserveAspectRatio="xMidYMid meet">
<metadata>
Created by potrace 1.16, written by Peter Selinger 2001-2019
</metadata>
<g transform="translate(0.000000,100.000000) scale(0.100000,-0.100000)"
fill="#000000" stroke="none">
<path d="M37 953 c-4 -3 -7 -210 -7 -459 0 -382 2 -453 14 -457 8 -3 19 0 25
7 7 8 12 156 13 437 l3 424 115 0 115 0 5 -265 5 -265 25 0 25 0 3 270 c1 149
0 280 -3 293 -5 22 -8 22 -169 22 -89 0 -166 -3 -169 -7z"/>
</g>
</svg>
