<?xml version="1.0" standalone="no"?>
<!DOCTYPE svg PUBLIC "-//W3C//DTD SVG 20010904//EN"
 "http://www.w3.org/TR/2001/REC-SVG-20010904/DTD/svg10.dtd">
<svg version="1.0" xmlns="http://www.w3.org/2000/svg"
 width="248.000000pt" height="590.000000pt" viewBox="0 0 248.000000 590.000000"
 preserveAspectRatio="xMidYMid meet">
<metadata>
Created by potrace 1.16, written by Peter Selinger 2001-2019
</metadata>
<g transform="translate(0.000000,590.000000) scale(0.500000,-0.500000)"
fill="#000000" stroke="none">
<path d="M48 1135 c-3 -1 -5 -4 -6 -7 -4 -14 -3 -1074 1 -1078 10 -10 44 -4
50 9 3 8 5 594 2 887 -2 129 -2 129 3 134 6 6 275 7 284 1 5 -4 5 -4 4 -317
-1 -362 -4 -322 23 -322 18 0 26 3 33 13 5 6 7 626 3 661 -2 11 -5 15 -16 19
-11 4 -373 4 -381 0z"/>
</g>
</svg>
