<?xml version="1.0" standalone="no"?>
<!DOCTYPE svg PUBLIC "-//W3C//DTD SVG 20010904//EN"
 "http://www.w3.org/TR/2001/REC-SVG-20010904/DTD/svg10.dtd">
<svg version="1.0" xmlns="http://www.w3.org/2000/svg"
 width="304.000000pt" height="590.000000pt" viewBox="0 0 304.000000 590.000000"
 preserveAspectRatio="xMidYMid meet">
<metadata>
Created by potrace 1.16, written by Peter Selinger 2001-2019
</metadata>
<g transform="translate(0.000000,590.000000) scale(0.500000,-0.500000)"
fill="#000000" stroke="none">
<path d="M58 1135 c-20 -6 -18 31 -18 -348 l-1 -327 7 -7 c13 -13 46 -15 53
-3 2 3 2 404 0 534 -2 89 -2 91 2 95 6 6 393 6 398 1 3 -4 5 -793 2 -943 -2
-73 -1 -77 9 -86 8 -7 36 -7 44 -1 5 3 5 3 4 536 0 559 0 544 -7 549 -6 4
-479 4 -493 0z"/>
<path d="M283 589 c-6 -2 -17 -13 -20 -20 -3 -6 -3 -34 -3 -157 l0 -150 7 -6
c18 -16 49 -9 49 12 1 86 -1 301 -3 306 -6 12 -18 18 -30 15z"/>
</g>
</svg>
