<?xml version="1.0" standalone="no"?>
<!DOCTYPE svg PUBLIC "-//W3C//DTD SVG 20010904//EN"
 "http://www.w3.org/TR/2001/REC-SVG-20010904/DTD/svg10.dtd">
<svg version="1.0" xmlns="http://www.w3.org/2000/svg"
 width="76.000000pt" height="148.000000pt" viewBox="0 0 76.000000 148.000000"
 preserveAspectRatio="xMidYMid meet">
<metadata>
Created by potrace 1.16, written by Peter Selinger 2001-2019
</metadata>
<g transform="translate(0.000000,148.000000) scale(0.100000,-0.100000)"
fill="#000000" stroke="none">
<path d="M55 1407 c-3 -6 -4 -201 -3 -432 l3 -420 30 0 30 0 3 400 2 400 253
0 252 -1 2 -634 c1 -349 4 -643 7 -653 3 -13 12 -18 32 -15 l27 3 -2 670 c-1
369 -1 676 -1 683 0 18 -628 18 -635 -1z"/>
<path d="M340 726 c-8 -11 -11 -71 -11 -203 0 -103 0 -194 0 -201 1 -9 11 -12
29 -10 l27 3 3 199 c2 138 -1 203 -9 212 -15 18 -24 18 -39 0z"/>
</g>
</svg>
