<?xml version="1.0" standalone="no"?>
<!DOCTYPE svg PUBLIC "-//W3C//DTD SVG 20010904//EN"
 "http://www.w3.org/TR/2001/REC-SVG-20010904/DTD/svg10.dtd">
<svg version="1.0" xmlns="http://www.w3.org/2000/svg"
 width="51.000000pt" height="100.000000pt" viewBox="0 0 51.000000 100.000000"
 preserveAspectRatio="xMidYMid meet">
<metadata>
Created by potrace 1.16, written by Peter Selinger 2001-2019
</metadata>
<g transform="translate(0.000000,100.000000) scale(0.100000,-0.100000)"
fill="#000000" stroke="none">
<path d="M113 963 c-65 -3 -73 -6 -78 -26 -3 -12 -4 -143 -3 -292 l3 -270 23
-3 c26 -4 23 -31 26 313 l1 220 165 0 165 0 5 -435 c5 -427 5 -435 25 -435 20
0 20 8 23 454 1 250 -1 458 -5 462 -10 9 -254 17 -350 12z"/>
<path d="M216 478 c-3 -13 -6 -73 -6 -134 0 -122 13 -161 44 -135 14 12 16 34
14 150 -3 130 -4 136 -24 139 -15 2 -23 -4 -28 -20z"/>
</g>
</svg>
