<?xml version="1.0" standalone="no"?>
<!DOCTYPE svg PUBLIC "-//W3C//DTD SVG 20010904//EN"
 "http://www.w3.org/TR/2001/REC-SVG-20010904/DTD/svg10.dtd">
<svg version="1.0" xmlns="http://www.w3.org/2000/svg"
 width="200.000000pt" height="590.000000pt" viewBox="0 0 200.000000 590.000000"
 preserveAspectRatio="xMidYMid meet">
<metadata>
Created by potrace 1.16, written by Peter Selinger 2001-2019
</metadata>
<g transform="translate(0.000000,590.000000) scale(0.500000,-0.500000)"
fill="#000000" stroke="none">
<path d="M62 1134 c-5 -4 -5 -4 -5 -327 0 -303 -2 -374 -6 -381 -1 -2 -2 -14
-3 -27 -1 -13 -3 -35 -4 -49 -11 -136 -10 -142 24 -142 22 0 24 5 25 59 1 41
6 160 9 211 5 83 8 292 6 534 -1 68 -1 70 3 74 8 7 180 1 187 -7 3 -5 4 -605
1 -912 -2 -130 -3 -122 25 -121 30 2 27 -63 26 508 0 356 -1 500 -2 507 -2 8
-2 13 0 20 13 51 11 52 -108 53 -53 1 -114 2 -135 3 -36 1 -39 1 -43 -3z"/>
<path d="M237 595 c-8 -3 -14 -10 -38 -41 -10 -14 -27 -36 -38 -49 -34 -42
-20 -88 18 -60 25 18 89 110 89 127 0 22 -12 32 -31 23z"/>
</g>
</svg>
