<?xml version="1.0" standalone="no"?>
<!DOCTYPE svg PUBLIC "-//W3C//DTD SVG 20010904//EN"
 "http://www.w3.org/TR/2001/REC-SVG-20010904/DTD/svg10.dtd">
<svg version="1.0" xmlns="http://www.w3.org/2000/svg"
 width="34.000000pt" height="100.000000pt" viewBox="0 0 34.000000 100.000000"
 preserveAspectRatio="xMidYMid meet">
<metadata>
Created by potrace 1.16, written by Peter Selinger 2001-2019
</metadata>
<g transform="translate(0.000000,100.000000) scale(0.100000,-0.100000)"
fill="#000000" stroke="none">
<path d="M72 963 c-13 -2 -25 -10 -27 -16 -2 -7 -5 -182 -8 -390 -3 -317 -1
-380 10 -384 8 -3 19 -1 25 5 6 6 13 140 17 367 7 397 2 375 79 375 89 0 82
36 82 -455 0 -420 1 -435 19 -435 10 0 22 7 25 16 9 23 7 887 -2 900 -7 12
-180 25 -220 17z"/>
<path d="M160 463 c-42 -49 -50 -85 -18 -91 12 -2 28 12 48 44 54 86 34 119
-30 47z"/>
</g>
</svg>
