<?xml version="1.0" standalone="no"?>
<!DOCTYPE svg PUBLIC "-//W3C//DTD SVG 20010904//EN"
 "http://www.w3.org/TR/2001/REC-SVG-20010904/DTD/svg10.dtd">
<svg version="1.0" xmlns="http://www.w3.org/2000/svg"
 width="46.000000pt" height="98.000000pt" viewBox="0 0 46.000000 98.000000"
 preserveAspectRatio="xMidYMid meet">
<metadata>
Created by potrace 1.16, written by Peter Selinger 2001-2019
</metadata>
<g transform="translate(0.000000,98.000000) scale(0.100000,-0.100000)"
fill="#000000" stroke="none">
<path d="M155 914 c-50 -25 -105 -86 -116 -127 -8 -32 -7 -51 10 -104 38 -120
47 -257 28 -431 -21 -192 -21 -192 73 -192 l69 0 11 38 c17 54 -10 366 -44
506 -11 45 -14 86 -10 118 12 91 67 84 123 -16 32 -56 50 -69 86 -60 33 8 32
31 -5 117 -61 144 -138 196 -225 151z"/>
</g>
</svg>
