<?xml version="1.0" standalone="no"?>
<!DOCTYPE svg PUBLIC "-//W3C//DTD SVG 20010904//EN"
 "http://www.w3.org/TR/2001/REC-SVG-20010904/DTD/svg10.dtd">
<svg version="1.0" xmlns="http://www.w3.org/2000/svg"
 width="47.000000pt" height="100.000000pt" viewBox="0 0 47.000000 100.000000"
 preserveAspectRatio="xMidYMid meet">
<metadata>
Created by potrace 1.16, written by Peter Selinger 2001-2019
</metadata>
<g transform="translate(0.000000,100.000000) scale(0.100000,-0.100000)"
fill="#000000" stroke="none">
<path d="M139 922 c-24 -16 -57 -44 -72 -62 -26 -30 -28 -39 -24 -94 2 -34 12
-88 22 -121 22 -74 26 -339 6 -458 -11 -69 -11 -81 3 -103 15 -21 24 -24 82
-24 l65 0 15 36 c11 27 13 57 9 122 -10 131 -33 318 -51 404 -19 86 -13 162
13 177 28 15 58 -8 98 -75 36 -63 39 -65 74 -62 30 3 36 7 39 29 3 29 -30 111
-72 177 -53 84 -128 104 -207 54z"/>
</g>
</svg>
