<?xml version="1.0" standalone="no"?>
<!DOCTYPE svg PUBLIC "-//W3C//DTD SVG 20010904//EN"
 "http://www.w3.org/TR/2001/REC-SVG-20010904/DTD/svg10.dtd">
<svg version="1.0" xmlns="http://www.w3.org/2000/svg"
 width="186.000000pt" height="394.000000pt" viewBox="0 0 186.000000 394.000000"
 preserveAspectRatio="xMidYMid meet">
<metadata>
Created by potrace 1.16, written by Peter Selinger 2001-2019
</metadata>
<g transform="translate(0.000000,394.000000) scale(0.500000,-0.500000)"
fill="#000000" stroke="none">
<path d="M140 744 c-89 -32 -133 -119 -98 -194 9 -19 15 -42 17 -62 1 -7 3
-21 5 -31 10 -51 10 -223 -1 -263 -1 -7 -3 -19 -4 -28 -1 -10 -3 -27 -4 -40
-6 -42 3 -71 22 -75 9 -2 87 -3 94 -1 25 7 35 74 22 150 -2 9 -4 37 -5 62 -1
34 -3 49 -6 60 -4 17 -7 37 -10 74 -2 22 -9 61 -18 98 -8 33 -10 60 -5 87 2 9
3 20 4 25 3 28 29 35 53 16 10 -8 30 -36 42 -58 18 -35 29 -44 52 -44 29 0 39
14 32 42 -9 36 -38 103 -55 124 -3 5 -9 13 -12 19 -22 37 -81 55 -125 39z"/>
</g>
</svg>
