<?xml version="1.0" standalone="no"?>
<!DOCTYPE svg PUBLIC "-//W3C//DTD SVG 20010904//EN"
 "http://www.w3.org/TR/2001/REC-SVG-20010904/DTD/svg10.dtd">
<svg version="1.0" xmlns="http://www.w3.org/2000/svg"
 width="100.000000pt" height="75.000000pt" viewBox="0 0 100.000000 75.000000"
 preserveAspectRatio="xMidYMid meet">
<metadata>
Created by potrace 1.16, written by Peter Selinger 2001-2019
</metadata>
<g transform="translate(0.000000,75.000000) scale(0.100000,-0.100000)"
fill="#000000" stroke="none">
<path d="M165 696 c-30 -30 -39 -65 -70 -252 -13 -83 -36 -196 -50 -252 -31
-119 -30 -147 4 -147 21 0 25 9 47 95 25 100 47 216 69 365 15 105 29 145 49
145 26 0 34 -30 45 -167 13 -148 49 -302 89 -383 22 -45 33 -56 55 -58 32 -4
71 18 87 49 13 23 43 190 59 329 21 175 40 230 74 217 21 -8 49 -153 72 -367
16 -151 53 -240 99 -240 46 0 64 37 95 196 16 82 34 185 41 229 6 44 18 106
27 137 8 32 13 64 10 73 -8 20 -44 19 -56 -2 -12 -24 -58 -281 -82 -458 -11
-84 -15 -95 -29 -95 -20 0 -30 45 -55 241 -40 313 -54 349 -136 349 -77 0 -90
-41 -139 -425 -17 -130 -27 -165 -49 -165 -11 0 -23 11 -30 28 -20 49 -69 275
-75 347 -15 159 -18 176 -43 206 -31 37 -74 39 -108 5z"/>
</g>
</svg>
