<?xml version="1.0" standalone="no"?>
<!DOCTYPE svg PUBLIC "-//W3C//DTD SVG 20010904//EN"
 "http://www.w3.org/TR/2001/REC-SVG-20010904/DTD/svg10.dtd">
<svg version="1.0" xmlns="http://www.w3.org/2000/svg"
 width="198.000000pt" height="148.000000pt" viewBox="0 0 198.000000 148.000000"
 preserveAspectRatio="xMidYMid meet">
<metadata>
Created by potrace 1.16, written by Peter Selinger 2001-2019
</metadata>
<g transform="translate(0.000000,148.000000) scale(0.100000,-0.100000)"
fill="#000000" stroke="none">
<path d="M365 1397 c-81 -45 -128 -183 -156 -457 -6 -63 -16 -121 -23 -129 -6
-8 -12 -33 -13 -55 -6 -98 -12 -137 -21 -149 -6 -7 -12 -37 -14 -67 -3 -30
-15 -80 -28 -110 -31 -75 -61 -224 -58 -285 l3 -50 45 0 45 0 2 54 c2 30 10
65 18 77 8 13 15 34 15 48 0 14 4 28 10 31 5 3 10 28 10 56 0 27 5 49 10 49 6
0 10 9 10 21 0 11 4 28 10 38 10 20 13 37 34 196 7 61 19 130 26 155 7 25 14
61 16 80 2 19 5 58 8 85 11 123 74 325 101 325 6 0 25 -15 42 -32 38 -41 51
-106 60 -310 3 -79 10 -149 15 -155 6 -7 8 -20 4 -28 -3 -9 -1 -23 4 -33 5 -9
16 -64 26 -122 9 -58 22 -117 30 -132 8 -15 14 -40 14 -55 0 -30 22 -102 53
-173 10 -24 23 -54 28 -67 20 -53 61 -103 95 -118 34 -14 38 -13 95 16 43 23
61 38 66 57 3 15 16 42 27 61 20 34 25 59 46 221 5 41 14 95 20 120 6 25 13
59 15 75 10 91 26 207 35 260 5 33 10 88 10 122 0 34 5 65 10 68 5 3 10 19 10
35 0 16 7 30 16 34 10 4 15 17 14 38 -3 52 -2 56 29 71 58 29 90 5 95 -70 1
-12 9 -30 18 -40 12 -13 19 -47 24 -123 4 -58 10 -107 14 -110 16 -12 43 -205
55 -405 4 -60 15 -139 25 -175 10 -36 21 -82 25 -103 9 -53 54 -139 76 -144
11 -3 19 -12 19 -19 0 -23 77 -18 90 5 5 11 19 21 31 23 32 5 70 118 89 268 6
52 15 104 20 115 5 11 11 48 14 83 3 34 14 89 25 122 12 35 22 105 27 175 4
63 11 118 15 121 5 3 9 19 9 36 0 33 23 122 46 176 21 49 18 89 -11 117 -29
30 -35 31 -62 5 -20 -18 -43 -95 -43 -141 0 -10 -4 -27 -9 -37 -11 -21 -39
-159 -40 -192 0 -48 -19 -208 -25 -219 -7 -11 -46 -198 -52 -246 -22 -204 -46
-295 -79 -295 -16 0 -67 148 -70 200 -1 19 -9 87 -18 150 -9 63 -23 180 -32
260 -9 80 -21 159 -25 175 -5 17 -16 77 -25 135 -23 153 -25 162 -53 198 -35
47 -90 72 -155 72 -48 0 -56 -3 -89 -37 -74 -78 -87 -127 -111 -418 -2 -22 -8
-49 -14 -60 -6 -11 -16 -84 -23 -163 -7 -78 -17 -145 -21 -148 -5 -3 -9 -41
-9 -85 0 -119 -60 -279 -105 -279 -37 0 -70 80 -111 264 -8 38 -21 84 -29 102
-8 19 -17 62 -20 97 -4 34 -13 76 -21 94 -13 28 -22 118 -40 358 -6 94 -23
192 -38 220 -8 14 -32 42 -54 61 -48 40 -87 43 -147 11z"/>
</g>
</svg>
