<?xml version="1.0" standalone="no"?>
<!DOCTYPE svg PUBLIC "-//W3C//DTD SVG 20010904//EN"
 "http://www.w3.org/TR/2001/REC-SVG-20010904/DTD/svg10.dtd">
<svg version="1.0" xmlns="http://www.w3.org/2000/svg"
 width="794.000000pt" height="590.000000pt" viewBox="0 0 794.000000 590.000000"
 preserveAspectRatio="xMidYMid meet">
<metadata>
Created by potrace 1.16, written by Peter Selinger 2001-2019
</metadata>
<g transform="translate(0.000000,590.000000) scale(0.500000,-0.500000)"
fill="#000000" stroke="none">
<path d="M328 1136 c-4 -1 -10 -5 -14 -8 -5 -4 -12 -7 -17 -8 -17 -3 -51 -37
-54 -52 -1 -10 -10 -29 -20 -40 -4 -5 -7 -11 -8 -16 -1 -5 -3 -12 -5 -16 -2
-4 -4 -11 -4 -16 0 -5 -2 -12 -4 -17 -3 -6 -5 -13 -5 -25 -1 -10 -3 -20 -5
-24 -2 -4 -4 -13 -5 -19 0 -7 -2 -15 -4 -18 -4 -5 -4 -11 -5 -47 -1 -31 -2
-42 -4 -46 -2 -4 -3 -13 -4 -36 -1 -26 -2 -32 -5 -37 -3 -5 -4 -11 -5 -27 -1
-22 -1 -22 -9 -30 -9 -7 -9 -7 -9 -40 0 -31 0 -34 -5 -43 -5 -9 -5 -12 -5 -42
0 -30 0 -33 -4 -36 -15 -14 -14 -9 -14 -50 l0 -38 -14 -28 c-11 -23 -14 -30
-14 -38 0 -7 -2 -13 -9 -27 -5 -10 -9 -20 -9 -22 0 -2 -2 -9 -5 -16 -4 -10 -5
-15 -5 -29 0 -12 -1 -20 -4 -27 -2 -5 -4 -14 -5 -19 0 -6 -3 -14 -5 -18 -4 -8
-5 -38 -4 -84 1 -41 80 -33 82 9 1 15 2 26 5 30 2 5 3 13 3 23 0 14 0 15 7 22
10 12 11 15 11 35 0 18 0 18 9 26 8 8 8 8 9 44 1 34 1 37 5 39 11 6 13 10 13
24 0 10 1 17 4 23 2 5 5 14 5 21 1 7 3 15 5 19 2 4 4 14 4 23 1 11 3 18 6 24
3 7 4 11 4 32 0 20 1 24 4 32 4 7 5 11 6 42 0 28 1 35 4 41 2 4 4 12 5 19 0 7
3 16 5 20 2 5 4 12 4 17 0 6 2 12 4 17 4 7 5 12 6 40 1 25 2 33 5 38 2 5 3 12
3 38 0 28 1 33 4 41 3 6 5 16 6 27 1 10 3 21 5 24 2 3 3 10 3 15 0 5 2 13 4
18 2 5 5 14 5 20 1 11 3 16 25 61 5 11 11 24 12 29 4 12 27 16 33 5 1 -2 4 -5
6 -7 8 -7 14 -13 17 -17 2 -2 6 -6 9 -8 5 -4 6 -5 7 -21 1 -9 3 -20 4 -23 2
-3 4 -13 5 -22 0 -10 2 -20 5 -26 4 -8 4 -12 4 -51 0 -38 0 -43 4 -50 4 -7 4
-12 4 -77 0 -71 1 -76 8 -84 5 -5 5 -8 3 -24 -1 -8 -1 -12 3 -18 2 -5 4 -14 4
-24 1 -10 3 -19 6 -25 3 -7 4 -13 4 -27 0 -11 1 -20 3 -25 2 -4 4 -15 5 -25 1
-12 3 -20 5 -24 2 -2 4 -11 4 -17 1 -10 4 -17 10 -30 5 -10 9 -20 9 -22 0 -2
2 -8 4 -12 3 -7 4 -13 5 -34 1 -21 2 -27 5 -33 2 -4 4 -10 4 -12 0 -3 2 -9 5
-15 3 -6 5 -15 5 -20 0 -10 2 -14 11 -24 4 -5 7 -11 8 -16 1 -5 5 -16 10 -25
5 -9 9 -19 9 -21 0 -6 11 -29 19 -39 4 -4 9 -15 13 -23 11 -25 22 -36 38 -39
5 -1 15 -4 23 -8 15 -7 15 -7 24 -4 5 2 11 3 13 3 5 0 28 12 37 19 5 4 12 8
16 8 16 3 35 28 35 47 0 11 3 17 10 21 5 3 10 10 10 17 0 2 4 11 9 20 9 17 9
17 9 45 0 26 0 29 5 39 3 6 5 12 5 15 0 2 2 7 3 10 3 5 4 13 5 47 1 37 1 42 6
49 2 5 4 11 4 13 0 3 2 8 4 12 2 4 4 14 5 25 1 11 2 20 5 25 3 6 4 11 4 35 0
22 1 29 4 37 3 7 4 15 5 42 0 29 1 34 5 42 3 6 4 13 4 23 0 8 1 16 3 21 3 5 4
15 5 34 1 23 2 28 6 34 4 7 4 9 4 60 0 54 0 54 6 60 3 4 6 9 8 11 2 2 3 10 4
20 1 17 1 17 10 25 8 7 8 7 8 38 1 34 5 42 24 45 5 1 10 3 14 8 7 8 10 8 18 4
3 -1 10 -3 16 -4 12 -1 18 -6 18 -13 0 -2 2 -8 4 -12 3 -5 4 -14 5 -26 2 -26
2 -27 9 -31 13 -8 18 -23 18 -54 0 -24 0 -28 5 -39 5 -11 5 -14 5 -54 l0 -42
8 -5 c10 -8 10 -8 10 -28 0 -14 1 -19 5 -29 4 -8 5 -16 5 -25 0 -8 1 -15 4
-20 4 -7 4 -12 5 -56 0 -46 0 -48 5 -56 4 -8 4 -12 4 -41 0 -31 0 -34 5 -43 5
-10 5 -11 5 -62 0 -41 1 -53 3 -56 1 -2 4 -8 5 -13 1 -5 4 -13 6 -18 2 -6 4
-14 4 -18 0 -5 2 -13 4 -17 2 -4 4 -12 5 -16 1 -4 3 -11 5 -15 3 -5 4 -11 4
-26 0 -14 1 -20 4 -26 2 -4 4 -11 4 -14 0 -12 4 -22 10 -25 4 -3 7 -7 9 -13 7
-25 17 -39 32 -43 12 -4 13 -5 17 -16 6 -23 68 -17 78 7 2 6 17 13 33 18 10 3
12 5 14 20 1 8 5 19 14 38 10 19 13 28 13 34 0 5 2 13 4 18 4 7 5 14 6 36 1
18 2 29 4 32 2 3 3 13 4 27 1 17 2 23 5 28 3 5 4 11 5 37 1 31 3 38 12 38 4 0
6 13 6 42 0 28 0 32 4 39 3 6 5 13 6 24 0 10 2 19 4 24 3 4 5 13 5 19 1 6 3
14 5 18 2 4 4 10 5 14 1 4 3 10 5 14 4 7 4 13 4 44 0 35 0 38 5 48 5 10 5 12
5 53 0 43 0 43 6 49 12 15 12 15 12 45 0 24 0 28 5 39 3 7 5 14 5 16 0 2 2 7
4 12 2 4 4 13 4 22 1 13 3 18 15 42 20 42 20 66 -3 92 -24 27 -68 20 -75 -13
-1 -3 -2 -10 -4 -15 -2 -5 -4 -15 -5 -22 -1 -7 -4 -17 -6 -22 -3 -7 -4 -14 -4
-28 0 -16 -1 -19 -8 -35 -7 -15 -9 -21 -9 -34 -1 -10 -3 -19 -5 -23 -2 -5 -4
-12 -4 -16 0 -5 -2 -13 -4 -18 -4 -8 -5 -13 -6 -49 0 -34 -1 -41 -4 -47 -4 -7
-4 -13 -4 -50 0 -38 0 -44 -4 -50 -2 -4 -4 -13 -5 -20 -1 -7 -3 -16 -5 -20 -2
-4 -4 -9 -4 -12 0 -2 -2 -8 -4 -12 -2 -5 -5 -14 -5 -20 -1 -6 -3 -14 -5 -17
-2 -4 -3 -14 -4 -28 -1 -17 -2 -24 -6 -30 -3 -7 -4 -12 -4 -23 0 -10 -1 -16
-4 -22 -3 -5 -4 -13 -4 -33 -1 -22 -2 -27 -6 -34 -4 -8 -4 -12 -4 -37 0 -24
-1 -29 -4 -36 -2 -5 -4 -13 -4 -28 -1 -16 -3 -23 -6 -30 -2 -5 -4 -13 -4 -18
0 -9 -2 -14 -9 -22 -3 -3 -7 -9 -9 -14 -10 -18 -22 -21 -26 -5 -1 4 -6 15 -10
24 -5 11 -8 20 -9 27 0 8 -3 16 -9 27 -4 9 -8 20 -9 24 -1 4 -3 11 -5 15 -3 7
-4 12 -4 36 0 25 0 29 -4 37 -4 7 -5 11 -5 38 0 27 -1 31 -5 38 -3 6 -4 11 -4
22 0 11 -1 16 -4 22 -5 8 -5 10 -5 57 0 47 0 49 -5 56 -3 6 -4 10 -4 31 0 21
-1 25 -5 34 -4 8 -5 13 -5 29 0 14 -1 20 -4 26 -3 5 -4 13 -4 32 -1 20 -2 27
-6 33 -3 8 -4 12 -4 36 0 25 -1 29 -4 36 -3 6 -5 14 -6 31 -1 15 -2 25 -5 29
-2 5 -3 12 -3 20 0 9 -1 17 -4 23 -2 4 -4 11 -5 16 -1 4 -3 10 -5 13 -1 3 -3
14 -4 25 -1 18 -1 18 -12 30 -7 6 -14 15 -16 20 -6 14 -18 24 -45 37 l-23 11
-46 0 c-68 0 -126 -49 -133 -113 -1 -8 -4 -18 -10 -30 -9 -17 -9 -19 -9 -37 0
-15 -1 -20 -4 -27 -5 -7 -5 -11 -6 -57 -1 -42 -2 -50 -4 -55 -3 -6 -4 -12 -4
-34 0 -26 0 -29 -5 -38 -3 -5 -5 -12 -5 -14 0 -3 -2 -9 -5 -15 -5 -10 -5 -13
-5 -39 0 -22 -1 -28 -3 -34 -3 -5 -4 -13 -5 -41 -1 -30 -2 -36 -6 -44 -3 -8
-4 -12 -4 -37 0 -29 -1 -32 -11 -43 -6 -6 -6 -6 -7 -76 -1 -60 -1 -70 -5 -76
-1 -5 -3 -9 -3 -11 0 -2 -4 -13 -9 -24 -5 -11 -9 -22 -9 -24 0 -2 -2 -8 -4
-13 -2 -5 -5 -12 -5 -17 -9 -55 -91 -45 -91 11 0 3 -1 8 -3 11 -2 3 -4 14 -5
24 -1 16 -3 21 -10 34 -4 9 -8 20 -9 24 -1 4 -3 11 -5 15 -2 5 -4 13 -4 18 0
5 -2 13 -4 18 -3 6 -4 13 -4 21 0 7 -1 16 -3 20 -2 4 -4 13 -6 20 -2 6 -5 14
-6 16 -2 2 -3 6 -3 9 0 2 -2 9 -5 16 -4 9 -5 16 -5 25 0 9 -1 16 -4 21 -3 7
-4 12 -4 39 0 35 -1 40 -11 46 -5 4 -7 7 -8 12 -1 5 -3 11 -6 15 -3 6 -4 11
-5 38 -1 23 -2 32 -4 36 -2 4 -3 17 -4 69 -1 62 -1 64 -5 71 -5 7 -5 9 -5 54
0 46 0 47 -5 57 -4 9 -5 13 -5 34 0 19 -1 25 -4 30 -2 3 -4 11 -5 18 -2 26
-27 67 -45 75 -5 3 -16 11 -25 19 -9 9 -19 16 -23 17 -8 2 -43 2 -50 0z"/>
</g>
</svg>
