<?xml version="1.0" standalone="no"?>
<!DOCTYPE svg PUBLIC "-//W3C//DTD SVG 20010904//EN"
 "http://www.w3.org/TR/2001/REC-SVG-20010904/DTD/svg10.dtd">
<svg version="1.0" xmlns="http://www.w3.org/2000/svg"
 width="100.000000pt" height="88.000000pt" viewBox="0 0 100.000000 88.000000"
 preserveAspectRatio="xMidYMid meet">
<metadata>
Created by potrace 1.16, written by Peter Selinger 2001-2019
</metadata>
<g transform="translate(0.000000,88.000000) scale(0.100000,-0.100000)"
fill="#000000" stroke="none">
<path d="M461 716 c-45 -78 -77 -123 -85 -120 -7 3 -35 44 -63 92 -28 48 -65
100 -82 116 l-31 30 -24 -23 c-45 -43 -161 -287 -150 -316 4 -9 15 -15 27 -13
15 2 34 35 77 128 33 70 65 126 74 128 9 2 26 -16 45 -50 81 -144 121 -198
146 -198 19 0 26 7 31 28 4 15 22 52 40 84 19 31 44 77 55 103 32 72 51 61
121 -65 32 -58 63 -117 69 -132 8 -21 18 -28 38 -28 34 0 50 17 91 100 18 36
51 94 74 130 53 82 58 96 41 110 -28 23 -48 3 -115 -120 -37 -69 -74 -126 -83
-128 -10 -2 -35 35 -77 115 -73 139 -84 153 -120 153 -25 0 -35 -13 -99 -124z"/>
<path d="M519 384 c-8 -9 -41 -66 -74 -127 -33 -61 -65 -112 -72 -114 -6 -2
-37 38 -67 89 -71 118 -98 151 -122 146 -16 -3 -77 -93 -125 -185 -16 -30 -5
-53 26 -53 23 0 31 10 61 75 19 41 39 75 44 75 5 0 16 -10 23 -22 76 -125 149
-228 160 -228 22 0 42 28 107 153 34 64 65 117 69 117 4 0 29 -39 55 -87 125
-228 148 -239 217 -102 21 44 57 109 80 145 43 71 47 107 13 112 -16 2 -30
-16 -77 -102 -31 -58 -57 -110 -57 -114 0 -10 -33 -42 -43 -42 -7 0 -54 83
-111 195 -34 65 -46 81 -67 83 -15 2 -32 -4 -40 -14z"/>
</g>
</svg>
