<?xml version="1.0" standalone="no"?>
<!DOCTYPE svg PUBLIC "-//W3C//DTD SVG 20010904//EN"
 "http://www.w3.org/TR/2001/REC-SVG-20010904/DTD/svg10.dtd">
<svg version="1.0" xmlns="http://www.w3.org/2000/svg"
 width="168.000000pt" height="148.000000pt" viewBox="0 0 168.000000 148.000000"
 preserveAspectRatio="xMidYMid meet">
<metadata>
Created by potrace 1.16, written by Peter Selinger 2001-2019
</metadata>
<g transform="translate(0.000000,148.000000) scale(0.100000,-0.100000)"
fill="#000000" stroke="none">
<path d="M907 1409 c-9 -5 -25 -27 -35 -47 -48 -94 -225 -377 -235 -374 -13 4
-56 53 -57 65 0 4 -17 33 -39 65 -21 31 -42 67 -45 78 -4 12 -15 29 -26 39
-11 10 -20 23 -20 28 0 5 -21 34 -46 64 -40 47 -51 54 -77 51 -26 -3 -37 -13
-68 -68 -21 -35 -43 -66 -48 -68 -6 -2 -11 -15 -11 -28 0 -26 -51 -124 -75
-144 -8 -7 -15 -24 -15 -39 0 -14 -7 -37 -14 -51 -40 -70 -47 -91 -44 -126 3
-33 7 -39 28 -42 22 -2 30 4 48 41 12 24 22 51 22 59 0 9 7 21 15 28 8 7 15
18 15 26 0 18 63 137 78 147 6 4 12 16 13 25 0 9 10 37 22 62 17 34 29 46 48
48 22 3 32 -5 58 -48 17 -27 31 -54 31 -59 0 -5 7 -15 17 -22 9 -8 25 -33 35
-56 10 -23 23 -45 28 -48 6 -4 20 -25 31 -48 12 -23 27 -52 33 -64 6 -13 14
-23 19 -23 4 0 12 -11 17 -25 8 -21 16 -25 49 -25 41 0 51 11 51 55 0 12 7 28
15 35 8 7 15 20 15 30 0 9 9 25 20 35 11 10 20 24 20 31 0 7 20 42 45 78 25
37 45 76 45 88 0 24 47 98 62 98 20 0 71 -47 87 -80 10 -19 36 -70 59 -113 23
-42 42 -83 42 -91 0 -8 6 -21 13 -28 26 -28 68 -97 76 -124 6 -24 13 -29 44
-32 47 -4 75 12 93 53 7 19 18 36 24 40 5 3 10 17 10 30 0 12 7 25 15 29 8 3
15 13 15 23 0 10 9 29 20 43 11 14 20 31 20 39 0 13 39 78 116 195 65 99 65
99 23 120 -32 16 -59 8 -59 -16 0 -6 -13 -27 -28 -47 -15 -20 -43 -67 -62
-106 -18 -38 -45 -88 -60 -110 -15 -22 -40 -64 -55 -93 -51 -94 -73 -87 -139
44 -19 39 -42 77 -51 84 -8 7 -15 19 -15 26 0 14 -15 45 -36 74 -6 8 -17 31
-24 50 -15 39 -59 111 -75 122 -14 11 -57 9 -78 -3z"/>
<path d="M893 660 c-12 -5 -33 -33 -47 -62 -14 -29 -40 -75 -57 -103 -18 -27
-56 -98 -86 -157 -38 -76 -59 -108 -72 -108 -17 0 -61 49 -61 68 0 6 -9 12
-20 15 -11 3 -20 13 -20 23 0 10 -10 34 -23 53 -31 50 -44 71 -66 111 -11 19
-35 51 -54 71 -19 20 -39 44 -44 53 -13 23 -61 11 -74 -18 -15 -35 -50 -90
-70 -112 -10 -11 -19 -32 -19 -46 0 -14 -7 -28 -15 -32 -8 -3 -15 -13 -15 -21
0 -9 -14 -33 -31 -54 -22 -28 -30 -47 -27 -67 3 -26 7 -29 44 -32 l41 -3 64
127 c35 70 69 129 76 131 6 3 24 -15 39 -39 15 -24 66 -101 113 -171 47 -71
96 -145 107 -165 12 -20 29 -41 37 -46 27 -17 65 13 98 78 17 34 60 115 95
181 36 66 73 136 83 155 11 19 24 35 30 35 10 0 111 -163 241 -393 41 -71 42
-72 83 -72 31 0 48 7 65 24 12 13 22 29 22 36 0 6 9 23 19 37 11 13 18 30 15
38 -3 7 -1 16 5 20 6 3 11 15 11 25 0 11 8 24 19 29 10 6 22 27 25 46 4 20 13
38 21 41 7 3 16 13 19 22 3 9 19 40 36 67 16 28 41 72 55 98 25 46 25 50 10
73 -8 13 -22 24 -30 24 -13 0 -65 -69 -65 -86 0 -3 -9 -19 -21 -35 -11 -16
-33 -53 -48 -82 -83 -160 -134 -247 -145 -247 -23 0 -45 25 -77 90 -17 36 -38
72 -45 81 -8 9 -28 43 -44 77 -16 34 -34 62 -40 62 -5 0 -10 10 -10 23 0 12
-7 36 -16 52 -9 17 -23 42 -31 58 -8 15 -20 27 -26 27 -7 0 -21 2 -32 5 -11 2
-30 0 -42 -5z"/>
</g>
</svg>
