<?xml version="1.0" standalone="no"?>
<!DOCTYPE svg PUBLIC "-//W3C//DTD SVG 20010904//EN"
 "http://www.w3.org/TR/2001/REC-SVG-20010904/DTD/svg10.dtd">
<svg version="1.0" xmlns="http://www.w3.org/2000/svg"
 width="134.000000pt" height="148.000000pt" viewBox="0 0 134.000000 148.000000"
 preserveAspectRatio="xMidYMid meet">
<metadata>
Created by potrace 1.16, written by Peter Selinger 2001-2019
</metadata>
<g transform="translate(0.000000,148.000000) scale(0.100000,-0.100000)"
fill="#000000" stroke="none">
<path d="M581 1381 c-19 -24 -31 -50 -31 -69 0 -17 -4 -33 -9 -36 -5 -3 -12
-34 -16 -68 -4 -35 -14 -70 -22 -79 -8 -10 -15 -43 -17 -78 -2 -33 -9 -68 -17
-77 -8 -9 -14 -45 -16 -88 -2 -75 -20 -174 -35 -190 -4 -6 -8 -25 -8 -43 0
-17 -4 -42 -9 -55 -5 -13 -14 -52 -21 -87 -6 -35 -18 -74 -27 -87 -8 -13 -13
-31 -9 -39 10 -27 -26 -168 -51 -203 -19 -26 -28 -30 -42 -23 -15 8 -19 30
-26 128 -7 112 -10 149 -20 268 -2 28 -6 84 -9 125 -3 41 -12 145 -21 230 -8
85 -20 220 -26 300 -14 178 -18 192 -62 188 l-32 -3 2 -95 c1 -52 9 -165 18
-250 8 -85 18 -191 21 -235 3 -44 8 -96 10 -115 2 -19 4 -84 5 -145 0 -66 5
-115 12 -123 17 -21 17 -160 0 -174 -11 -9 -11 -14 0 -27 8 -9 20 -37 27 -64
14 -54 66 -107 104 -107 50 0 86 12 86 30 0 9 13 34 30 55 31 39 34 49 69 200
12 50 32 137 46 195 36 156 80 354 143 640 24 109 30 125 47 125 14 0 21 -8
23 -25 2 -14 7 -34 12 -45 5 -11 25 -108 44 -215 19 -107 58 -306 86 -443 27
-136 50 -263 50 -282 0 -18 4 -36 9 -39 5 -4 12 -24 16 -46 4 -24 21 -57 41
-81 19 -23 34 -44 34 -49 0 -4 16 -11 35 -14 28 -6 41 -2 68 18 59 46 106 172
106 286 0 30 11 195 25 367 14 172 31 370 36 440 6 70 12 137 15 148 5 21 -21
55 -42 55 -7 0 -25 -7 -38 -16 -24 -15 -25 -22 -25 -108 0 -51 -4 -96 -9 -101
-6 -6 -12 -89 -15 -185 -3 -96 -10 -218 -16 -270 -6 -52 -14 -169 -18 -260 -6
-139 -10 -170 -27 -199 -25 -43 -50 -60 -66 -44 -11 11 -83 354 -154 728 -76
405 -84 434 -127 470 -23 19 -41 25 -78 25 -44 0 -51 -3 -79 -39z"/>
</g>
</svg>
