<?xml version="1.0" standalone="no"?>
<!DOCTYPE svg PUBLIC "-//W3C//DTD SVG 20010904//EN"
 "http://www.w3.org/TR/2001/REC-SVG-20010904/DTD/svg10.dtd">
<svg version="1.0" xmlns="http://www.w3.org/2000/svg"
 width="91.000000pt" height="100.000000pt" viewBox="0 0 91.000000 100.000000"
 preserveAspectRatio="xMidYMid meet">
<metadata>
Created by potrace 1.16, written by Peter Selinger 2001-2019
</metadata>
<g transform="translate(0.000000,100.000000) scale(0.100000,-0.100000)"
fill="#000000" stroke="none">
<path d="M396 938 c-18 -28 -59 -182 -85 -323 -23 -117 -53 -261 -66 -310 -8
-27 -17 -74 -20 -103 -7 -54 -34 -100 -52 -89 -6 4 -13 57 -17 119 -4 62 -16
199 -26 303 -11 105 -22 235 -26 290 -4 55 -11 106 -17 113 -13 17 -46 15 -54
-4 -5 -14 22 -360 47 -604 6 -52 10 -116 10 -142 0 -82 40 -148 90 -148 63 0
88 52 150 315 28 121 65 285 81 365 41 201 55 210 84 50 9 -52 41 -216 70
-364 59 -290 80 -349 132 -362 37 -10 87 46 106 118 16 58 71 743 62 758 -9
14 -51 12 -63 -2 -5 -7 -12 -71 -16 -143 -21 -442 -44 -645 -75 -645 -20 0
-30 34 -65 220 -73 386 -115 562 -138 587 -30 32 -92 32 -112 1z"/>
</g>
</svg>
