<?xml version="1.0" standalone="no"?>
<!DOCTYPE svg PUBLIC "-//W3C//DTD SVG 20010904//EN"
 "http://www.w3.org/TR/2001/REC-SVG-20010904/DTD/svg10.dtd">
<svg version="1.0" xmlns="http://www.w3.org/2000/svg"
 width="538.000000pt" height="590.000000pt" viewBox="0 0 538.000000 590.000000"
 preserveAspectRatio="xMidYMid meet">
<metadata>
Created by potrace 1.16, written by Peter Selinger 2001-2019
</metadata>
<g transform="translate(0.000000,590.000000) scale(0.500000,-0.500000)"
fill="#000000" stroke="none">
<path d="M499 1136 c-8 -3 -32 -27 -38 -39 -3 -5 -8 -12 -10 -15 -5 -5 -6 -8
-6 -27 -2 -20 -2 -22 -8 -31 -6 -9 -7 -13 -7 -21 0 -5 -2 -14 -3 -18 -2 -5 -4
-18 -5 -38 -1 -27 -1 -30 -5 -32 -14 -8 -19 -16 -19 -31 0 -9 -1 -18 -4 -25
-3 -10 -4 -17 -4 -40 0 -31 -1 -33 -12 -38 -10 -5 -11 -5 -12 -42 0 -22 -1
-34 -3 -37 -2 -4 -3 -14 -3 -37 0 -35 -1 -37 -10 -63 -3 -9 -6 -20 -6 -24 0
-10 -3 -17 -9 -23 -6 -5 -6 -5 -7 -34 -1 -21 -2 -32 -4 -37 -7 -15 -12 -34
-12 -46 0 -6 -1 -16 -3 -20 -1 -5 -3 -13 -4 -17 -1 -4 -3 -12 -4 -17 -2 -5 -3
-13 -4 -17 -1 -5 -4 -12 -6 -15 -14 -19 -18 -32 -12 -48 3 -9 3 -10 0 -17 -2
-5 -4 -14 -4 -22 -1 -8 -3 -16 -4 -19 -1 -3 -3 -10 -4 -15 -1 -6 -3 -13 -4
-17 -2 -3 -4 -13 -4 -20 -1 -12 -3 -16 -8 -23 -3 -4 -8 -11 -11 -15 -8 -13
-21 -24 -29 -24 -17 0 -19 5 -19 54 0 32 -1 43 -3 52 -3 8 -4 23 -5 49 -1 29
-2 40 -5 45 -2 6 -3 14 -3 42 0 25 -1 36 -3 41 -2 5 -3 19 -4 40 0 24 -1 34
-4 39 -2 6 -3 15 -3 41 0 26 -1 36 -3 42 -2 5 -4 19 -5 42 -1 19 -2 37 -4 40
-1 3 -2 17 -2 37 0 27 -1 34 -4 43 -3 10 -4 17 -4 42 0 26 -1 33 -4 42 -3 10
-4 17 -4 40 0 24 -1 31 -4 39 -5 12 -5 20 -1 32 3 8 3 9 0 18 -1 5 -3 14 -4
21 0 7 -2 15 -4 19 -2 5 -3 13 -3 49 0 70 -5 78 -47 76 -31 -1 -43 -49 -25
-101 3 -10 4 -16 4 -46 0 -28 1 -35 4 -45 3 -9 4 -16 4 -40 0 -24 1 -30 3 -36
3 -5 4 -13 5 -41 1 -20 2 -37 3 -39 2 -2 3 -19 3 -41 1 -29 2 -39 5 -44 2 -6
3 -14 3 -40 0 -26 1 -34 4 -44 3 -10 4 -18 4 -39 0 -20 1 -29 4 -39 4 -11 4
-18 4 -91 l0 -79 8 -8 8 -8 0 -61 c-1 -61 -1 -61 -8 -67 -8 -6 -8 -12 0 -19
10 -9 16 -24 16 -40 0 -13 1 -15 7 -25 4 -6 7 -14 9 -20 1 -8 3 -12 7 -15 3
-2 11 -10 19 -16 24 -23 59 -32 78 -21 3 1 12 3 20 4 17 2 19 4 21 18 2 12 10
27 20 38 24 28 31 40 34 62 1 6 2 13 4 16 1 3 3 11 4 18 0 7 2 17 4 21 1 4 3
13 5 18 1 6 2 13 4 16 3 10 8 31 10 46 1 8 3 16 4 19 2 3 4 11 5 18 3 17 6 28
11 43 2 7 4 16 4 20 0 4 2 14 4 22 6 24 8 32 11 45 1 7 3 15 5 17 1 3 2 7 2
10 0 3 2 10 4 16 2 7 4 16 4 21 0 5 2 13 3 17 2 4 4 13 5 19 1 6 3 14 5 18 2
5 3 10 3 13 0 3 2 9 4 15 2 6 4 14 4 19 0 4 2 14 4 22 7 26 8 32 11 45 3 18 7
31 11 45 2 7 4 17 4 22 0 6 1 14 3 18 2 4 3 12 4 17 1 5 3 11 4 14 1 3 3 10 4
16 1 6 2 12 3 15 1 2 3 10 4 18 1 8 3 18 5 23 1 5 4 14 5 19 1 6 2 13 4 16 4
12 9 34 10 47 1 7 2 15 4 17 1 3 3 10 4 16 4 28 13 36 29 29 6 -3 6 -5 8 -29
1 -15 2 -19 8 -27 5 -7 7 -13 8 -23 0 -7 2 -17 4 -21 2 -5 3 -12 3 -17 0 -5 2
-14 4 -20 2 -7 4 -16 4 -20 0 -5 1 -12 3 -17 2 -4 3 -14 4 -22 1 -7 3 -16 4
-21 2 -4 3 -11 3 -17 0 -5 1 -13 3 -17 2 -4 4 -13 4 -20 1 -6 3 -16 4 -21 1
-5 3 -14 4 -21 1 -7 2 -14 4 -16 1 -2 2 -13 3 -23 1 -11 3 -22 4 -24 1 -2 3
-10 4 -16 1 -7 3 -15 5 -18 2 -3 3 -10 3 -15 0 -5 2 -14 4 -21 2 -7 4 -17 4
-21 0 -5 2 -13 4 -19 2 -6 4 -14 4 -19 0 -4 2 -14 4 -21 2 -7 4 -16 4 -21 0
-5 1 -12 3 -16 1 -5 3 -14 4 -21 1 -7 2 -15 3 -17 2 -2 3 -11 4 -19 1 -9 3
-19 5 -23 2 -4 3 -11 3 -15 0 -4 2 -13 4 -19 2 -7 4 -16 4 -21 0 -6 2 -14 4
-20 2 -6 4 -14 4 -19 0 -4 2 -12 3 -16 3 -6 4 -18 5 -41 1 -33 1 -33 9 -42 6
-7 7 -9 7 -17 0 -5 2 -14 4 -20 2 -7 4 -14 4 -16 0 -11 8 -27 17 -33 4 -3 10
-8 12 -12 2 -3 8 -11 13 -17 6 -6 11 -14 12 -19 3 -10 8 -14 21 -14 5 0 12 -1
16 -3 17 -7 34 -3 49 13 4 4 13 11 19 17 9 7 13 13 17 22 3 7 7 13 8 13 3 0 8
11 8 17 0 7 3 12 12 23 11 11 12 15 12 36 0 12 1 20 4 27 2 6 4 15 6 20 1 6 3
14 4 18 2 7 2 11 0 17 -1 4 -3 11 -4 16 -2 6 -2 9 2 20 3 12 4 18 4 49 0 31 1
38 4 48 3 9 4 16 4 50 0 34 1 42 4 51 3 9 4 17 4 46 0 23 1 38 2 41 2 4 3 23
4 52 1 37 2 47 5 53 2 7 3 15 3 45 0 29 1 38 3 45 3 7 4 19 5 50 1 30 2 42 4
46 2 4 3 17 4 50 1 34 2 47 5 53 18 46 0 111 -31 111 -45 0 -53 -15 -51 -93
l1 -64 -8 -12 -8 -12 0 -127 c0 -123 0 -128 -4 -138 -2 -6 -4 -13 -4 -16 0 -3
-2 -10 -4 -16 -4 -9 -4 -15 -4 -63 0 -53 0 -53 -7 -69 -7 -16 -7 -16 -7 -112
0 -79 -1 -97 -3 -103 -1 -5 -3 -17 -3 -28 -1 -22 -19 -65 -32 -76 -23 -18 -32
-19 -35 -4 -2 5 -6 14 -9 18 -3 5 -6 12 -7 17 -1 5 -3 14 -5 21 -2 6 -4 15 -4
20 0 5 -1 12 -3 15 -1 3 -3 12 -4 20 -1 8 -3 18 -4 21 -2 4 -3 13 -4 20 -1 8
-3 16 -4 19 -2 3 -3 10 -3 14 0 5 -2 15 -4 23 -2 8 -4 18 -4 23 0 4 -1 11 -3
15 -1 3 -3 12 -4 19 -1 7 -3 17 -4 22 -2 4 -3 12 -3 17 0 4 -2 14 -4 20 -2 6
-4 15 -4 20 0 4 -2 13 -4 20 -2 6 -4 15 -4 20 0 5 -2 13 -4 19 -2 6 -4 14 -4
19 0 5 -2 13 -4 19 -2 6 -4 14 -4 20 0 5 -2 14 -4 21 -2 6 -4 14 -4 19 0 4 -2
12 -4 19 -2 6 -4 15 -4 20 0 5 -1 12 -3 16 -1 5 -3 14 -4 21 -1 7 -2 15 -3 17
-2 2 -3 11 -4 19 -1 9 -3 19 -5 23 -2 4 -3 11 -3 16 0 4 -2 14 -4 20 -2 6 -4
15 -4 20 0 5 -2 14 -4 20 -2 6 -4 16 -4 20 0 5 -2 13 -4 19 -2 6 -4 14 -4 19
0 5 -2 13 -4 19 -2 6 -4 15 -4 20 0 5 -2 14 -4 19 -2 5 -4 13 -4 18 0 5 -4 20
-8 33 -4 13 -8 27 -8 29 0 12 -30 44 -50 54 -12 6 -65 10 -79 5z"/>
</g>
</svg>
