<?xml version="1.0" standalone="no"?>
<!DOCTYPE svg PUBLIC "-//W3C//DTD SVG 20010904//EN"
 "http://www.w3.org/TR/2001/REC-SVG-20010904/DTD/svg10.dtd">
<svg version="1.0" xmlns="http://www.w3.org/2000/svg"
 width="782.000000pt" height="590.000000pt" viewBox="0 0 782.000000 590.000000"
 preserveAspectRatio="xMidYMid meet">
<metadata>
Created by potrace 1.16, written by Peter Selinger 2001-2019
</metadata>
<g transform="translate(0.000000,590.000000) scale(0.500000,-0.500000)"
fill="#000000" stroke="none">
<path d="M1123 1136 c-5 -3 -1 4 -53 -82 -23 -39 -45 -74 -48 -77 -3 -3 -9
-13 -14 -22 -5 -9 -13 -21 -18 -26 -7 -7 -10 -13 -12 -19 -3 -14 -10 -27 -76
-138 -20 -32 -50 -83 -67 -113 -79 -135 -72 -127 -88 -104 -22 33 -75 121 -85
141 -7 13 -16 28 -21 34 -5 6 -18 24 -29 41 -72 115 -88 142 -95 154 -4 8 -9
16 -12 19 -6 6 -27 40 -68 107 -34 54 -36 57 -52 62 -31 10 -55 -5 -66 -41 -3
-11 -30 -69 -78 -171 -5 -11 -12 -26 -15 -33 -4 -7 -12 -25 -19 -39 -7 -14
-15 -31 -17 -37 -3 -6 -8 -15 -11 -21 -9 -13 -19 -35 -19 -40 0 -2 -1 -6 -3
-9 -1 -3 -7 -16 -13 -29 -12 -26 -23 -52 -70 -152 -35 -74 -38 -82 -35 -110 3
-33 52 -47 58 -16 1 6 9 26 28 68 15 35 60 130 141 303 18 38 41 88 52 112 45
99 48 104 55 98 4 -3 29 -40 80 -120 29 -44 64 -98 130 -200 81 -122 126 -194
137 -213 19 -35 51 -43 69 -15 15 23 26 41 28 45 0 2 4 7 7 11 3 4 8 12 10 17
2 5 6 11 10 14 3 3 6 7 7 9 1 2 6 12 12 22 7 11 13 22 14 27 2 4 5 11 9 16 3
4 10 17 16 27 6 10 16 27 21 36 6 9 25 40 42 69 63 105 84 139 121 200 72 121
57 121 116 1 66 -132 83 -167 151 -302 34 -68 66 -133 72 -145 53 -111 51
-108 69 -102 19 6 20 10 20 52 l-1 36 -163 326 c-139 279 -163 325 -168 328
-7 4 -52 4 -59 1z"/>
<path d="M1118 800 c-14 -5 -18 -9 -38 -45 -35 -61 -75 -126 -81 -133 -4 -4
-8 -10 -10 -14 -2 -4 -6 -11 -10 -15 -3 -4 -10 -15 -14 -23 -4 -9 -9 -17 -11
-19 -2 -2 -10 -15 -16 -28 -7 -13 -15 -27 -18 -31 -3 -4 -9 -14 -14 -23 -4 -8
-11 -19 -14 -23 -3 -4 -11 -17 -17 -29 -6 -12 -14 -25 -17 -29 -3 -4 -7 -10
-9 -14 -2 -4 -6 -10 -9 -14 -4 -3 -7 -9 -9 -12 -1 -3 -5 -9 -9 -14 -4 -6 -8
-13 -9 -17 -2 -10 -9 -25 -18 -36 -3 -5 -7 -11 -8 -14 -2 -11 -43 -80 -53 -89
-12 -14 -18 -9 -38 31 -15 32 -81 155 -130 243 -12 21 -32 57 -44 80 -12 23
-30 54 -38 69 -33 60 -58 107 -63 120 -20 54 -51 54 -74 1 -26 -58 -41 -92
-62 -139 -13 -27 -33 -70 -44 -95 -11 -25 -31 -68 -44 -96 -13 -28 -28 -61
-34 -74 -6 -13 -17 -38 -26 -56 -15 -35 -49 -109 -74 -163 -24 -51 -23 -52 17
-53 41 -1 43 0 58 34 5 10 11 22 14 27 9 14 15 26 16 36 2 11 8 27 34 79 8 18
16 35 17 38 1 3 5 10 9 17 4 7 8 16 9 21 2 10 6 21 23 57 7 14 12 26 12 28 0
1 9 23 21 49 11 26 26 61 34 77 52 121 50 117 56 118 6 2 15 -6 15 -13 0 -2 3
-7 7 -11 3 -5 13 -21 21 -37 8 -16 19 -38 25 -49 36 -68 67 -126 91 -171 40
-75 49 -91 74 -137 41 -74 63 -115 65 -123 3 -10 20 -34 26 -36 14 -5 37 -1
43 8 1 3 7 10 12 16 7 8 17 25 33 56 12 25 37 69 54 98 51 85 60 100 115 195
47 81 74 127 127 219 26 46 31 50 37 43 2 -2 55 -107 118 -233 195 -387 202
-400 209 -403 19 -8 55 -3 59 9 6 17 2 30 -26 83 -9 15 -27 51 -42 80 -28 55
-42 82 -59 114 -31 58 -143 276 -150 291 -10 22 -51 102 -54 107 -6 9 -14 24
-19 39 -9 27 -23 36 -46 28z"/>
</g>
</svg>
