<?xml version="1.0" standalone="no"?>
<!DOCTYPE svg PUBLIC "-//W3C//DTD SVG 20010904//EN"
 "http://www.w3.org/TR/2001/REC-SVG-20010904/DTD/svg10.dtd">
<svg version="1.0" xmlns="http://www.w3.org/2000/svg"
 width="196.000000pt" height="148.000000pt" viewBox="0 0 196.000000 148.000000"
 preserveAspectRatio="xMidYMid meet">
<metadata>
Created by potrace 1.16, written by Peter Selinger 2001-2019
</metadata>
<g transform="translate(0.000000,148.000000) scale(0.100000,-0.100000)"
fill="#000000" stroke="none">
<path d="M1374 1373 c-43 -75 -127 -207 -141 -221 -7 -7 -13 -18 -13 -23 0 -6
-42 -81 -93 -167 -51 -86 -110 -187 -131 -224 -21 -38 -42 -68 -46 -68 -5 0
-41 53 -80 118 -40 64 -107 173 -151 242 -43 69 -107 170 -141 224 -87 138
-111 160 -144 138 -7 -4 -46 -80 -87 -168 -41 -89 -91 -195 -111 -235 -117
-244 -186 -406 -186 -438 0 -43 31 -71 56 -50 8 6 14 16 14 21 0 10 103 239
190 423 29 61 70 151 92 200 22 50 44 96 50 102 7 9 36 -28 107 -140 54 -83
147 -228 207 -322 61 -93 120 -186 132 -206 13 -22 32 -39 47 -41 22 -5 32 8
112 141 47 80 139 234 203 341 65 107 127 214 139 238 24 46 47 54 60 20 5
-13 88 -185 186 -382 97 -198 181 -370 186 -383 5 -13 17 -23 28 -23 30 0 44
26 38 67 -4 20 -99 222 -212 449 l-207 414 -38 0 c-36 0 -41 -4 -66 -47z"/>
<path d="M1344 933 c-21 -38 -61 -104 -90 -149 -29 -44 -78 -125 -109 -180
-32 -54 -72 -121 -89 -149 -18 -27 -50 -84 -71 -125 -21 -41 -47 -88 -58 -103
-25 -37 -27 -34 -104 113 -72 136 -100 189 -205 378 -44 78 -85 159 -92 179
-25 72 -65 70 -98 -4 -47 -109 -322 -712 -348 -767 -16 -33 -27 -63 -24 -68 7
-10 65 -10 81 0 13 8 63 100 63 115 0 5 20 50 44 100 38 81 166 374 210 480 8
20 19 37 25 37 5 0 26 -33 46 -72 21 -40 88 -165 148 -278 61 -113 132 -243
157 -290 64 -121 95 -121 152 0 12 25 38 72 58 105 53 87 227 382 297 505 34
58 64 103 68 100 4 -3 99 -185 210 -405 194 -382 204 -400 232 -403 18 -2 35
3 43 13 12 15 10 25 -19 79 -63 117 -406 791 -420 823 -10 26 -19 33 -41 33
-24 0 -33 -9 -66 -67z"/>
</g>
</svg>
