<?xml version="1.0" standalone="no"?>
<!DOCTYPE svg PUBLIC "-//W3C//DTD SVG 20010904//EN"
 "http://www.w3.org/TR/2001/REC-SVG-20010904/DTD/svg10.dtd">
<svg version="1.0" xmlns="http://www.w3.org/2000/svg"
 width="100.000000pt" height="76.000000pt" viewBox="0 0 100.000000 76.000000"
 preserveAspectRatio="xMidYMid meet">
<metadata>
Created by potrace 1.16, written by Peter Selinger 2001-2019
</metadata>
<g transform="translate(0.000000,76.000000) scale(0.100000,-0.100000)"
fill="#000000" stroke="none">
<path d="M677 678 c-17 -29 -66 -110 -107 -182 -41 -71 -79 -131 -85 -133 -5
-1 -32 34 -58 78 -98 165 -177 279 -192 279 -21 0 -41 -35 -130 -231 -78 -172
-94 -230 -64 -237 11 -2 29 27 64 105 129 288 124 279 144 257 10 -10 62 -90
116 -177 78 -126 102 -157 118 -155 13 2 54 60 128 183 60 99 115 180 121 180
6 0 47 -72 90 -160 103 -211 113 -230 129 -230 35 0 16 57 -86 263 -95 189
-109 212 -131 212 -18 0 -32 -12 -57 -52z"/>
<path d="M677 468 c-19 -29 -67 -109 -107 -178 -102 -174 -100 -170 -109 -170
-7 0 -68 110 -180 323 -15 29 -31 47 -40 45 -14 -3 -211 -419 -211 -446 0 -19
30 -27 46 -11 7 8 46 90 86 182 40 93 78 169 83 170 6 1 51 -77 101 -173 78
-149 95 -175 115 -175 19 0 40 31 134 195 61 107 115 195 120 195 5 0 54 -90
109 -200 98 -195 126 -232 142 -191 4 10 -33 94 -91 209 -114 225 -144 277
-156 277 -5 0 -24 -24 -42 -52z"/>
</g>
</svg>
