<?xml version="1.0" standalone="no"?>
<!DOCTYPE svg PUBLIC "-//W3C//DTD SVG 20010904//EN"
 "http://www.w3.org/TR/2001/REC-SVG-20010904/DTD/svg10.dtd">
<svg version="1.0" xmlns="http://www.w3.org/2000/svg"
 width="600.000000pt" height="590.000000pt" viewBox="0 0 600.000000 590.000000"
 preserveAspectRatio="xMidYMid meet">
<metadata>
Created by potrace 1.16, written by Peter Selinger 2001-2019
</metadata>
<g transform="translate(0.000000,590.000000) scale(0.500000,-0.500000)"
fill="#000000" stroke="none">
<path d="M46 1132 c-3 -3 -7 -159 -7 -298 0 -23 1 -24 35 -24 37 0 34 -5 34
64 0 53 0 57 4 64 4 8 4 11 4 63 -1 48 -1 55 2 58 4 4 961 5 968 1 6 -3 6 -19
2 -220 -1 -31 0 -32 36 -32 39 0 37 -5 35 70 0 32 -2 100 -2 150 -2 98 -1 97
-13 99 -4 1 -10 3 -14 5 -12 6 -1078 6 -1084 0z"/>
<path d="M655 886 c-7 -3 -15 -14 -15 -20 0 -3 -2 -9 -4 -13 -2 -4 -4 -12 -5
-16 -1 -4 -3 -10 -4 -13 -1 -3 -3 -9 -4 -13 -1 -4 -5 -15 -9 -24 -5 -9 -8 -18
-8 -19 0 -2 -7 -25 -14 -45 -8 -24 -10 -31 -12 -39 -2 -5 -6 -15 -10 -23 -4
-8 -8 -18 -9 -22 -1 -5 -3 -11 -5 -15 -2 -4 -4 -9 -4 -12 0 -2 -2 -7 -4 -12
-2 -4 -4 -10 -5 -14 -1 -4 -5 -14 -9 -22 -4 -9 -8 -19 -9 -23 -1 -4 -3 -11 -5
-15 -2 -4 -4 -9 -4 -10 0 -2 -2 -10 -5 -16 -7 -18 -9 -25 -13 -39 -2 -7 -7
-19 -11 -27 -4 -8 -7 -17 -7 -19 0 -2 -2 -8 -4 -13 -2 -4 -4 -11 -5 -16 -1 -4
-3 -10 -5 -14 -2 -4 -4 -9 -4 -11 0 -3 -4 -12 -8 -22 -4 -9 -9 -20 -10 -24 -1
-4 -3 -12 -5 -18 -4 -13 -7 -21 -9 -27 -1 -3 -3 -9 -5 -15 -2 -5 -5 -14 -6
-20 -4 -13 -11 -23 -15 -23 -3 1 -30 53 -30 59 0 3 -3 12 -8 21 -4 9 -8 20 -9
24 -1 4 -5 14 -9 24 -4 9 -8 18 -8 20 0 3 -3 11 -6 18 -17 36 -20 42 -20 46 0
3 -3 12 -8 21 -4 9 -8 20 -9 24 -1 4 -5 15 -9 23 -5 9 -8 19 -8 22 0 11 -3 19
-11 29 -4 5 -7 12 -7 15 0 2 -6 16 -13 31 -7 14 -13 29 -14 32 0 4 -5 14 -9
23 -4 9 -8 19 -8 21 0 2 -4 13 -9 23 -5 10 -9 21 -9 24 0 5 -19 44 -23 48 -6
4 -14 2 -29 -5 -8 -4 -18 -8 -24 -9 -27 -6 -30 -22 -10 -62 8 -16 14 -30 14
-32 0 -3 4 -12 9 -22 5 -9 9 -19 9 -22 0 -2 4 -11 8 -19 4 -8 8 -18 9 -22 1
-5 7 -19 14 -32 7 -13 13 -28 14 -32 1 -4 5 -15 9 -23 4 -8 9 -18 9 -22 1 -4
5 -14 9 -22 4 -8 9 -19 11 -25 5 -19 9 -30 22 -56 13 -26 13 -26 13 -47 1 -20
1 -20 12 -32 12 -12 16 -17 16 -24 0 -2 6 -15 12 -28 13 -25 18 -44 18 -66 0
-5 2 -10 5 -14 7 -8 9 -14 9 -28 0 -16 2 -20 18 -37 7 -8 15 -17 17 -21 6 -11
55 -15 65 -5 8 8 22 40 22 50 0 11 9 31 19 43 4 5 7 10 7 13 0 2 1 10 1 16 0
8 2 16 5 21 2 4 4 10 4 12 0 2 2 7 4 12 2 4 4 10 5 14 1 4 3 11 5 15 2 5 4 11
4 13 0 2 4 12 9 21 5 9 9 19 9 22 0 2 2 8 4 12 2 4 5 11 5 15 1 4 3 10 5 14 2
5 4 9 4 11 0 2 3 11 7 19 4 8 9 20 11 27 4 13 9 29 12 38 1 3 3 8 4 11 1 3 3
10 5 15 2 6 4 13 5 17 1 4 5 15 10 25 4 10 8 20 8 22 0 2 2 8 4 12 2 4 4 12 5
16 1 4 2 9 4 12 1 2 3 7 4 12 1 4 5 15 9 24 4 9 8 19 8 21 0 3 2 8 4 13 2 4 4
9 4 11 0 2 2 9 5 16 3 7 5 14 5 16 0 2 2 7 4 12 2 4 4 10 5 14 1 7 8 20 11 20
3 0 24 -43 24 -49 0 -2 2 -8 4 -12 2 -4 4 -10 4 -12 0 -2 2 -8 4 -13 2 -4 4
-11 5 -16 1 -4 3 -10 5 -14 2 -5 4 -10 4 -12 0 -2 4 -12 8 -21 4 -10 9 -21 10
-25 2 -7 6 -19 12 -37 2 -5 4 -13 5 -17 1 -4 3 -10 5 -14 2 -5 4 -10 4 -12 0
-2 4 -12 9 -22 5 -11 9 -21 9 -24 0 -2 2 -8 4 -12 2 -4 4 -11 5 -15 1 -4 3
-11 5 -15 2 -4 4 -9 4 -12 0 -3 4 -13 9 -23 5 -10 9 -20 9 -23 0 -2 2 -8 4
-12 2 -4 4 -10 4 -12 0 -3 2 -8 4 -12 2 -4 4 -11 5 -15 1 -4 3 -12 5 -16 2 -4
4 -10 4 -12 0 -2 4 -13 9 -23 5 -10 9 -20 9 -22 0 -2 2 -8 4 -14 2 -6 6 -18 8
-26 2 -8 6 -20 8 -26 2 -6 4 -14 5 -18 6 -30 58 -48 78 -27 8 7 8 58 0 75 -3
6 -5 12 -5 14 0 2 -2 8 -5 13 -3 6 -5 12 -5 14 0 2 -2 9 -5 14 -3 6 -5 12 -5
14 0 2 -2 6 -4 11 -2 4 -4 10 -5 14 0 4 -5 14 -9 22 -4 9 -8 19 -9 22 -1 4 -3
11 -5 15 -2 4 -5 12 -6 16 -2 10 -7 26 -12 37 -2 6 -4 13 -4 17 0 4 -2 11 -4
17 -2 5 -4 14 -5 20 -1 11 -2 13 -9 18 -7 6 -7 6 -8 25 -2 25 -10 49 -19 56
-4 3 -7 8 -8 12 -1 3 -3 10 -5 14 -2 5 -4 10 -4 13 0 2 -4 11 -9 21 -8 15 -9
19 -9 30 0 9 -1 17 -4 23 -2 5 -5 13 -6 18 -1 4 -5 12 -9 16 -5 6 -7 10 -8 17
-2 16 -3 18 -10 27 -4 5 -8 11 -8 14 -1 3 -3 9 -4 13 -6 15 -11 36 -10 41 1 4
0 7 -4 12 -7 8 -16 27 -18 37 -1 4 -3 12 -5 16 -2 4 -4 10 -4 13 0 18 -47 30
-73 20z"/>
</g>
</svg>
