<?xml version="1.0" standalone="no"?>
<!DOCTYPE svg PUBLIC "-//W3C//DTD SVG 20010904//EN"
 "http://www.w3.org/TR/2001/REC-SVG-20010904/DTD/svg10.dtd">
<svg version="1.0" xmlns="http://www.w3.org/2000/svg"
 width="150.000000pt" height="148.000000pt" viewBox="0 0 150.000000 148.000000"
 preserveAspectRatio="xMidYMid meet">
<metadata>
Created by potrace 1.16, written by Peter Selinger 2001-2019
</metadata>
<g transform="translate(0.000000,148.000000) scale(0.100000,-0.100000)"
fill="#000000" stroke="none">
<path d="M52 1218 l3 -203 35 0 35 0 9 158 9 157 609 0 609 0 -2 -157 -2 -158
42 -3 41 -3 0 199 c0 173 -2 201 -16 206 -9 3 -321 6 -695 6 l-679 0 2 -202z"/>
<path d="M814 1103 c-7 -5 -19 -30 -27 -58 -14 -46 -79 -232 -148 -420 -16
-44 -50 -141 -74 -215 -25 -74 -48 -142 -51 -150 -4 -12 -9 -9 -24 10 -10 14
-22 36 -25 50 -8 32 -120 319 -151 388 -13 29 -24 55 -24 58 0 3 -6 20 -14 37
-7 18 -24 58 -36 90 -12 31 -26 57 -30 57 -14 0 -79 -30 -84 -38 -3 -5 14 -53
38 -108 97 -224 166 -402 166 -426 0 -15 5 -30 10 -33 18 -11 60 -107 60 -136
0 -15 4 -31 10 -34 5 -3 10 -19 10 -34 0 -33 43 -76 83 -83 31 -6 50 14 63 67
4 17 11 35 16 41 4 6 17 42 27 80 11 38 33 105 51 149 41 105 126 349 156 449
13 44 26 81 28 83 8 8 22 -29 75 -187 29 -85 56 -164 61 -175 5 -11 16 -40 24
-65 9 -25 29 -83 46 -130 18 -47 40 -114 51 -150 35 -111 34 -110 80 -110 l41
0 -4 52 c-3 29 -19 91 -37 138 -18 47 -41 114 -52 150 -11 36 -26 78 -34 93
-8 16 -15 41 -15 56 0 14 -6 35 -13 46 -17 26 -52 118 -49 129 2 4 -6 27 -16
50 -35 75 -50 111 -57 136 -3 14 -10 34 -16 45 -5 11 -15 38 -22 60 -12 35
-18 40 -48 43 -19 1 -39 -1 -45 -5z"/>
</g>
</svg>
