<?xml version="1.0" standalone="no"?>
<!DOCTYPE svg PUBLIC "-//W3C//DTD SVG 20010904//EN"
 "http://www.w3.org/TR/2001/REC-SVG-20010904/DTD/svg10.dtd">
<svg version="1.0" xmlns="http://www.w3.org/2000/svg"
 width="100.000000pt" height="99.000000pt" viewBox="0 0 100.000000 99.000000"
 preserveAspectRatio="xMidYMid meet">
<metadata>
Created by potrace 1.16, written by Peter Selinger 2001-2019
</metadata>
<g transform="translate(0.000000,99.000000) scale(0.100000,-0.100000)"
fill="#000000" stroke="none">
<path d="M34 937 c-2 -7 -3 -69 -2 -138 l3 -124 25 0 c25 0 25 2 28 85 1 47 4
95 7 108 l5 22 403 -2 402 -3 1 -95 c0 -122 0 -120 29 -120 33 0 39 37 28 171
l-8 104 -458 3 c-371 2 -459 0 -463 -11z"/>
<path d="M542 738 c-11 -14 -165 -449 -182 -515 -16 -62 -35 -54 -61 25 -30
92 -138 364 -151 380 -14 16 -22 15 -49 -6 l-22 -19 58 -134 c32 -74 81 -196
109 -273 54 -146 76 -178 109 -153 16 11 62 133 164 435 25 72 48 132 52 132
4 0 47 -120 96 -267 87 -260 91 -268 118 -271 18 -2 29 2 33 13 7 16 -59 220
-158 495 -60 166 -63 170 -87 170 -10 0 -23 -6 -29 -12z"/>
</g>
</svg>
