<?xml version="1.0" standalone="no"?>
<!DOCTYPE svg PUBLIC "-//W3C//DTD SVG 20010904//EN"
 "http://www.w3.org/TR/2001/REC-SVG-20010904/DTD/svg10.dtd">
<svg version="1.0" xmlns="http://www.w3.org/2000/svg"
 width="92.000000pt" height="100.000000pt" viewBox="0 0 92.000000 100.000000"
 preserveAspectRatio="xMidYMid meet">
<metadata>
Created by potrace 1.16, written by Peter Selinger 2001-2019
</metadata>
<g transform="translate(0.000000,100.000000) scale(0.100000,-0.100000)"
fill="#000000" stroke="none">
<path d="M402 948 c-8 -8 -12 -63 -12 -180 0 -110 -4 -168 -10 -168 -6 0 -72
40 -146 89 -126 84 -170 108 -179 99 -5 -5 -25 -408 -25 -498 0 -95 6 -100 77
-60 32 18 106 63 164 101 58 38 109 69 112 69 4 0 8 -80 9 -177 3 -159 5 -178
20 -181 29 -6 392 154 448 197 21 16 23 22 14 37 -6 11 -81 62 -167 114 -86
52 -156 100 -157 107 0 6 21 23 48 38 148 85 272 169 272 184 0 10 -19 26 -47
40 -27 13 -84 44 -128 71 -107 64 -240 130 -263 130 -10 0 -23 -5 -30 -12z
m153 -113 c52 -31 119 -67 150 -80 31 -14 55 -31 55 -40 0 -8 -26 -28 -57 -44
-32 -16 -94 -55 -137 -85 -86 -60 -101 -66 -113 -38 -9 18 -6 342 3 342 3 0
48 -25 99 -55z m-344 -205 c50 -33 113 -72 140 -86 54 -30 63 -55 27 -77 -13
-8 -78 -48 -146 -90 -68 -42 -130 -77 -139 -77 -12 0 -14 7 -9 33 4 17 9 105
13 195 3 89 9 162 14 162 5 0 49 -27 100 -60z m367 -228 c48 -32 113 -73 145
-91 31 -18 57 -37 57 -42 0 -5 -17 -17 -37 -26 -21 -9 -89 -40 -152 -70 -62
-29 -119 -53 -126 -53 -10 0 -14 38 -17 158 -2 86 -2 163 0 170 8 24 44 11
130 -46z"/>
</g>
</svg>
