<?xml version="1.0" standalone="no"?>
<!DOCTYPE svg PUBLIC "-//W3C//DTD SVG 20010904//EN"
 "http://www.w3.org/TR/2001/REC-SVG-20010904/DTD/svg10.dtd">
<svg version="1.0" xmlns="http://www.w3.org/2000/svg"
 width="136.000000pt" height="148.000000pt" viewBox="0 0 136.000000 148.000000"
 preserveAspectRatio="xMidYMid meet">
<metadata>
Created by potrace 1.16, written by Peter Selinger 2001-2019
</metadata>
<g transform="translate(0.000000,148.000000) scale(0.100000,-0.100000)"
fill="#000000" stroke="none">
<path d="M602 1406 l-23 -11 1 -245 c1 -135 1 -251 1 -257 -2 -26 -37 -12
-131 50 -52 35 -106 71 -120 80 -14 9 -44 30 -68 47 -23 16 -46 30 -50 30 -5
0 -27 14 -50 31 -24 18 -51 29 -63 27 -21 -3 -23 -10 -26 -83 -1 -44 -4 -118
-6 -165 -3 -47 -8 -199 -12 -339 -10 -324 -18 -314 147 -200 15 11 30 19 33
19 4 0 218 134 307 193 21 15 28 15 34 5 11 -16 5 -439 -6 -453 -4 -5 0 -23
10 -40 14 -25 23 -30 51 -27 38 2 126 38 307 124 68 32 126 58 131 58 4 0 32
13 62 30 30 16 61 30 70 30 9 0 24 9 34 20 10 11 24 20 30 20 24 0 36 26 25
51 -10 22 -93 84 -158 118 -15 8 -49 28 -77 46 -118 75 -211 132 -227 138 -10
3 -18 15 -18 25 0 23 20 41 84 77 28 15 99 58 159 96 60 38 110 69 112 69 11
0 95 63 95 71 0 5 7 9 15 9 18 0 18 5 5 31 -6 10 -16 19 -23 19 -17 0 -147 68
-172 90 -11 10 -38 26 -60 36 -22 10 -56 29 -75 42 -19 13 -44 28 -55 33 -11
5 -27 13 -35 18 -8 4 -37 19 -64 32 -26 13 -67 34 -90 46 -45 24 -69 26 -104
9z m96 -95 c35 -24 277 -158 370 -205 39 -20 72 -42 72 -49 0 -13 -102 -77
-123 -77 -6 0 -19 -8 -29 -17 -11 -10 -34 -26 -53 -38 -18 -11 -73 -46 -121
-79 -125 -85 -167 -79 -157 22 10 104 11 348 2 396 -13 69 -5 78 39 47z m-493
-306 c39 -28 266 -170 325 -203 53 -29 60 -38 60 -74 0 -27 -11 -35 -245 -175
-22 -13 -60 -37 -85 -54 -25 -16 -57 -34 -72 -40 -16 -6 -28 -15 -28 -20 0
-11 -37 -12 -43 -1 -3 4 2 43 10 87 10 51 16 159 18 295 2 118 4 216 4 218 1
4 21 -7 56 -33z m606 -381 c55 -37 157 -101 227 -143 70 -43 127 -83 127 -90
0 -7 -21 -22 -47 -32 -58 -22 -245 -107 -356 -161 -45 -22 -89 -38 -97 -35
-11 5 -13 22 -10 79 7 136 7 233 0 305 -4 39 -5 83 -1 96 4 19 31 42 54 46 2
1 48 -29 103 -65z"/>
</g>
</svg>
