<?xml version="1.0" standalone="no"?>
<!DOCTYPE svg PUBLIC "-//W3C//DTD SVG 20010904//EN"
 "http://www.w3.org/TR/2001/REC-SVG-20010904/DTD/svg10.dtd">
<svg version="1.0" xmlns="http://www.w3.org/2000/svg"
 width="89.000000pt" height="100.000000pt" viewBox="0 0 89.000000 100.000000"
 preserveAspectRatio="xMidYMid meet">
<metadata>
Created by potrace 1.16, written by Peter Selinger 2001-2019
</metadata>
<g transform="translate(0.000000,100.000000) scale(0.100000,-0.100000)"
fill="#000000" stroke="none">
<path d="M63 954 c-16 -7 -18 -127 -3 -155 12 -21 45 -25 57 -6 4 6 8 32 8 57
l0 45 320 0 320 0 3 -50 c3 -53 20 -75 55 -75 19 0 19 5 13 82 -4 46 -11 87
-17 93 -10 10 -733 19 -756 9z"/>
<path d="M432 843 c-5 -10 -10 -83 -11 -163 -2 -80 -5 -147 -7 -149 -2 -2 -45
24 -96 57 -121 78 -225 129 -237 117 -6 -6 -11 -108 -12 -236 -2 -226 4 -269
34 -269 7 0 73 41 147 91 74 50 141 94 149 97 11 4 13 -24 10 -169 -4 -169 -3
-174 16 -177 30 -4 375 205 375 227 0 27 -24 44 -203 146 -39 22 -70 45 -69
50 0 6 58 45 129 87 133 80 154 98 146 126 -3 10 -71 49 -176 100 -95 45 -175
82 -179 82 -4 0 -11 -8 -16 -17z m256 -173 c4 -11 -9 -22 -117 -99 -47 -33
-89 -57 -94 -54 -8 5 0 239 9 255 5 8 198 -89 202 -102z m-483 -90 c22 -15 70
-43 108 -64 69 -38 87 -68 48 -81 -11 -3 -63 -35 -116 -71 -53 -35 -101 -62
-106 -58 -10 6 -13 297 -3 307 7 7 11 5 69 -33z m365 -220 c30 -21 70 -45 88
-54 17 -9 32 -23 32 -30 0 -14 -192 -136 -214 -136 -10 0 -12 33 -10 137 1 76
3 139 3 141 2 5 43 -19 101 -58z"/>
</g>
</svg>
