<?xml version="1.0" standalone="no"?>
<!DOCTYPE svg PUBLIC "-//W3C//DTD SVG 20010904//EN"
 "http://www.w3.org/TR/2001/REC-SVG-20010904/DTD/svg10.dtd">
<svg version="1.0" xmlns="http://www.w3.org/2000/svg"
 width="132.000000pt" height="148.000000pt" viewBox="0 0 132.000000 148.000000"
 preserveAspectRatio="xMidYMid meet">
<metadata>
Created by potrace 1.16, written by Peter Selinger 2001-2019
</metadata>
<g transform="translate(0.000000,148.000000) scale(0.100000,-0.100000)"
fill="#000000" stroke="none">
<path d="M90 1402 c-22 -18 -23 -23 -12 -41 7 -12 12 -54 12 -101 0 -70 2 -81
21 -90 11 -6 30 -10 42 -8 21 3 22 8 22 88 l0 85 482 3 483 2 6 -25 c4 -14 4
-43 0 -65 -8 -52 9 -88 48 -99 17 -4 34 -6 39 -4 11 6 9 121 -3 128 -5 3 -10
35 -10 71 l0 64 -494 0 c-271 0 -520 3 -552 6 -50 5 -63 3 -84 -14z"/>
<path d="M655 1272 c-19 -14 -35 -51 -25 -57 13 -8 13 -52 0 -60 -5 -3 -10
-38 -10 -78 0 -40 0 -114 -1 -165 0 -52 3 -102 6 -112 12 -38 -17 -29 -112 35
-108 72 -127 85 -223 142 -61 37 -83 46 -153 60 l-29 6 4 -62 c3 -33 7 -64 11
-67 3 -3 1 -18 -4 -33 -6 -15 -10 -111 -9 -226 2 -148 -1 -209 -11 -233 -13
-30 -12 -35 4 -46 10 -8 17 -26 17 -45 0 -18 6 -34 14 -37 7 -3 56 22 107 56
52 34 152 99 222 146 71 46 135 84 144 84 11 0 13 -10 9 -47 -3 -27 -8 -143
-12 -259 -8 -270 -20 -261 191 -135 66 39 127 76 135 81 64 40 209 127 225
135 30 16 32 69 3 89 -37 26 -288 177 -340 205 -27 13 -48 30 -48 38 0 7 21
24 48 38 26 14 56 31 66 38 11 6 80 50 154 97 74 47 140 93 145 101 5 9 7 27
3 40 -6 19 -55 48 -256 149 -282 141 -262 132 -275 122z m140 -153 c39 -23
107 -59 153 -80 45 -21 82 -43 82 -48 0 -15 -90 -86 -199 -156 -26 -16 -64
-43 -84 -59 -24 -18 -41 -26 -47 -20 -6 6 -6 69 0 164 5 85 10 174 10 198 0
23 3 42 8 42 4 0 39 -19 77 -41z m-539 -227 c47 -33 272 -166 297 -175 10 -4
17 -17 17 -30 0 -19 -15 -33 -72 -67 -40 -24 -124 -77 -186 -118 -62 -41 -115
-72 -119 -69 -4 4 -7 461 -3 485 1 10 33 -3 66 -26z m581 -354 c70 -44 145
-92 166 -105 46 -29 40 -47 -30 -82 -26 -14 -62 -35 -80 -48 -17 -13 -34 -23
-37 -23 -3 0 -37 -20 -75 -45 -74 -48 -86 -52 -94 -32 -6 16 2 397 9 408 3 5
7 9 9 9 2 0 61 -37 132 -82z"/>
</g>
</svg>
