<?xml version="1.0" standalone="no"?>
<!DOCTYPE svg PUBLIC "-//W3C//DTD SVG 20010904//EN"
 "http://www.w3.org/TR/2001/REC-SVG-20010904/DTD/svg10.dtd">
<svg version="1.0" xmlns="http://www.w3.org/2000/svg"
 width="528.000000pt" height="590.000000pt" viewBox="0 0 528.000000 590.000000"
 preserveAspectRatio="xMidYMid meet">
<metadata>
Created by potrace 1.16, written by Peter Selinger 2001-2019
</metadata>
<g transform="translate(0.000000,590.000000) scale(0.500000,-0.500000)"
fill="#000000" stroke="none">
<path d="M91 1133 c-26 -9 -40 -33 -27 -47 6 -6 6 -6 6 -67 0 -67 0 -67 12
-78 9 -9 16 -11 35 -11 32 0 32 -2 30 74 -1 50 -1 60 2 63 2 4 11 4 378 4 415
1 385 2 388 -12 1 -4 3 -13 5 -20 5 -13 5 -17 1 -30 -13 -42 1 -79 31 -87 43
-10 52 -7 43 18 -2 6 -3 17 -3 39 0 26 -1 33 -4 41 -3 9 -4 16 -4 35 0 20 -1
27 -4 35 -2 6 -4 15 -4 21 0 21 45 19 -411 19 -397 0 -402 0 -414 4 -16 6 -39
5 -60 -1z"/>
<path d="M529 1020 c-8 -3 -13 -8 -15 -16 -1 -4 -5 -10 -8 -14 -8 -8 -8 -11 0
-19 11 -11 11 -30 1 -45 -10 -13 -13 -59 -6 -77 3 -7 3 -9 1 -14 -5 -11 -7
-45 -5 -74 1 -14 1 -20 -2 -28 -4 -11 -4 -11 0 -21 5 -12 8 -67 5 -78 -3 -12
-17 -10 -37 6 -4 3 -12 8 -17 11 -5 3 -13 8 -18 11 -5 4 -12 9 -15 11 -4 2
-12 8 -19 12 -18 12 -29 19 -47 30 -9 6 -24 15 -33 21 -10 6 -22 15 -29 18 -7
4 -16 10 -21 13 -5 4 -14 9 -19 12 -6 2 -13 7 -16 10 -3 2 -14 9 -23 14 -9 5
-20 11 -24 13 -4 3 -11 5 -23 6 -14 1 -18 2 -26 8 -12 7 -27 9 -35 2 -7 -5 -6
-82 0 -103 3 -8 2 -10 -1 -19 -4 -11 -4 -18 -4 -176 l0 -166 -7 -9 c-7 -10 -7
-11 -8 -31 0 -24 -2 -21 18 -38 4 -4 5 -5 4 -23 -2 -31 3 -38 22 -31 7 2 13 4
15 4 1 0 7 3 12 8 6 4 16 11 22 15 6 4 16 11 20 15 5 3 15 9 23 13 7 4 20 13
29 19 9 6 19 13 23 15 4 3 11 8 15 11 4 3 12 8 17 10 9 5 20 12 60 39 4 3 15
9 24 15 9 6 20 13 23 16 4 3 11 8 15 11 12 7 21 14 31 21 32 24 47 23 43 -2
-1 -8 -2 -55 -3 -113 -1 -89 -2 -101 -5 -108 -6 -15 -8 -164 -2 -172 10 -12
54 -6 76 11 4 3 11 8 16 10 5 3 15 9 23 13 7 5 17 11 22 13 4 2 12 7 16 10 4
3 13 9 20 12 7 4 16 9 21 13 5 4 14 9 19 11 6 3 13 7 17 10 4 3 13 9 21 13 14
7 29 17 40 26 3 2 12 7 19 11 7 3 17 10 23 13 5 4 18 11 28 16 10 5 23 12 28
15 15 11 21 15 39 25 32 16 41 28 38 45 -1 6 -3 15 -3 21 -1 5 -3 11 -5 12 -7
7 -24 17 -38 24 -8 4 -16 8 -18 10 -2 1 -10 6 -18 10 -8 4 -18 10 -21 12 -3 3
-11 8 -18 11 -6 4 -17 10 -24 15 -7 4 -16 10 -20 13 -4 3 -14 8 -21 12 -7 4
-16 9 -19 11 -3 3 -12 7 -19 11 -7 4 -16 9 -20 12 -8 6 -20 13 -41 24 -15 8
-31 18 -41 26 -9 6 -5 12 17 24 10 6 23 14 30 18 7 4 16 10 20 12 4 3 11 7 14
9 3 3 12 7 19 11 7 4 17 9 21 12 12 9 35 24 36 24 1 0 7 4 14 9 7 5 14 9 16 9
2 0 17 9 41 26 21 14 43 28 45 28 1 0 8 4 16 9 7 4 17 10 21 13 37 22 26 79
-17 87 -8 2 -178 86 -187 93 -10 8 -180 92 -188 93 -4 0 -10 0 -13 -1z m98
-119 c23 -12 46 -25 52 -28 5 -4 38 -22 74 -39 67 -34 67 -34 67 -42 0 -7 -38
-45 -52 -51 -5 -3 -14 -8 -18 -12 -4 -3 -11 -8 -17 -11 -5 -2 -16 -11 -27 -21
-10 -9 -22 -19 -28 -22 -6 -3 -14 -8 -18 -11 -4 -3 -13 -8 -20 -12 -7 -4 -18
-11 -24 -17 -24 -23 -52 -32 -55 -18 -2 14 3 194 7 200 2 5 3 14 3 53 1 63 -3
60 56 31z m-433 -181 c15 -7 20 -11 25 -17 3 -6 7 -9 11 -10 8 -2 38 -17 46
-23 4 -3 13 -9 20 -12 6 -4 13 -8 15 -11 1 -3 6 -6 10 -7 12 -4 31 -14 36 -18
2 -2 7 -5 11 -7 4 -2 10 -6 13 -8 4 -3 12 -8 19 -11 7 -3 15 -7 18 -10 3 -2
12 -7 21 -12 19 -9 20 -11 17 -27 -3 -15 -12 -25 -30 -33 -14 -7 -30 -17 -45
-27 -5 -4 -12 -9 -17 -11 -4 -2 -8 -5 -9 -6 -1 -1 -8 -5 -16 -9 -8 -4 -22 -13
-31 -19 -9 -6 -20 -13 -25 -16 -4 -3 -11 -7 -15 -10 -4 -3 -12 -8 -18 -11 -6
-3 -15 -8 -19 -11 -13 -10 -27 -19 -39 -26 -6 -4 -14 -9 -18 -11 -21 -14 -20
-27 -20 183 0 218 -3 202 40 180z m391 -233 c3 -2 9 -6 13 -9 3 -3 11 -8 17
-11 9 -5 16 -10 42 -28 5 -4 14 -10 21 -13 6 -3 15 -9 18 -12 4 -3 12 -8 18
-11 6 -3 19 -11 29 -18 10 -7 25 -16 34 -21 61 -33 62 -45 11 -73 -9 -5 -19
-12 -22 -14 -3 -3 -12 -8 -20 -12 -8 -4 -17 -9 -20 -11 -11 -9 -32 -22 -44
-28 -6 -3 -14 -8 -17 -11 -3 -2 -12 -7 -19 -11 -7 -4 -16 -9 -20 -13 -4 -3
-10 -7 -14 -8 -4 -2 -13 -7 -20 -12 -28 -18 -34 -19 -36 -3 -1 5 -3 12 -5 16
-4 10 -3 59 2 71 4 10 4 46 1 149 -2 77 -2 77 8 82 9 5 14 5 23 1z"/>
</g>
</svg>
