<?xml version="1.0" standalone="no"?>
<!DOCTYPE svg PUBLIC "-//W3C//DTD SVG 20010904//EN"
 "http://www.w3.org/TR/2001/REC-SVG-20010904/DTD/svg10.dtd">
<svg version="1.0" xmlns="http://www.w3.org/2000/svg"
 width="178.000000pt" height="148.000000pt" viewBox="0 0 178.000000 148.000000"
 preserveAspectRatio="xMidYMid meet">
<metadata>
Created by potrace 1.16, written by Peter Selinger 2001-2019
</metadata>
<g transform="translate(0.000000,148.000000) scale(0.100000,-0.100000)"
fill="#000000" stroke="none">
<path d="M1464 1346 c10 -115 -1 -113 -108 19 -22 27 -35 35 -55 33 -53 -6
-38 -39 63 -148 l96 -102 1 -82 c3 -176 -1 -221 -27 -330 -10 -40 -106 -177
-141 -199 -7 -4 -13 -12 -13 -18 0 -12 -51 -58 -65 -59 -6 0 -89 52 -185 116
-96 63 -193 125 -215 136 -43 22 -75 47 -75 58 0 7 161 110 218 139 15 8 31
20 35 28 4 7 15 13 22 13 8 0 15 4 15 10 0 5 24 20 53 34 58 26 82 49 74 70
-4 11 -146 101 -182 115 -5 2 -29 17 -52 32 -23 16 -46 29 -50 29 -5 0 -22 14
-38 30 -16 17 -34 30 -40 30 -7 0 -29 11 -49 25 -20 14 -43 25 -51 25 -7 0
-28 12 -45 27 -25 21 -36 24 -49 16 -14 -9 -16 -39 -16 -256 0 -168 -4 -250
-11 -257 -8 -8 -33 4 -95 47 -46 32 -133 90 -194 128 -60 38 -127 82 -147 98
-21 16 -47 27 -58 25 -21 -3 -21 -6 -22 -406 0 -221 2 -405 5 -409 4 -3 24 6
44 20 21 14 63 37 93 51 60 29 179 98 227 134 17 12 35 22 41 22 5 0 25 16 45
35 72 70 76 54 67 -270 -3 -148 -4 -276 -2 -283 5 -16 49 -16 59 1 10 15 133
77 155 77 8 0 21 7 28 15 7 8 19 15 26 15 17 0 113 49 132 67 7 7 21 13 30 14
9 0 40 14 67 30 28 16 68 37 90 48 69 31 211 151 239 200 6 11 28 45 49 75 21
31 45 80 54 109 8 28 19 57 25 64 5 7 11 88 13 181 3 180 8 212 31 212 8 0 14
6 14 13 0 7 10 23 23 34 25 23 98 109 109 128 4 7 1 20 -6 30 -12 16 -17 17
-45 6 -17 -8 -31 -16 -31 -20 0 -14 -60 -71 -74 -71 -11 0 -16 14 -18 58 l-3
57 -44 3 -44 3 7 -75z m-688 -126 c41 -27 79 -50 82 -50 4 0 23 -13 42 -29 19
-15 56 -38 83 -50 26 -12 47 -28 47 -35 0 -12 -85 -67 -188 -123 -13 -7 -53
-33 -89 -58 -68 -48 -100 -54 -96 -20 2 11 3 103 4 205 2 173 7 210 30 210 5
0 43 -22 85 -50z m-533 -229 c97 -65 278 -178 298 -186 10 -4 19 -18 22 -33 5
-21 0 -32 -21 -49 -15 -13 -32 -23 -38 -23 -6 0 -22 -9 -35 -19 -43 -33 -302
-171 -323 -171 -8 0 -10 75 -9 262 1 145 2 264 2 266 4 12 45 -6 104 -47z
m484 -306 c23 -19 45 -35 50 -35 5 0 19 -10 31 -22 11 -13 38 -32 59 -42 21
-11 47 -28 58 -37 11 -9 36 -26 55 -37 100 -56 100 -56 100 -89 0 -23 -7 -37
-27 -50 -25 -17 -114 -62 -153 -77 -8 -3 -22 -10 -30 -15 -34 -20 -167 -74
-185 -75 -19 -1 -20 5 -21 194 0 107 -4 211 -9 230 -13 51 -5 90 18 90 7 0 32
-16 54 -35z"/>
</g>
</svg>
