<?xml version="1.0" standalone="no"?>
<!DOCTYPE svg PUBLIC "-//W3C//DTD SVG 20010904//EN"
 "http://www.w3.org/TR/2001/REC-SVG-20010904/DTD/svg10.dtd">
<svg version="1.0" xmlns="http://www.w3.org/2000/svg"
 width="712.000000pt" height="590.000000pt" viewBox="0 0 712.000000 590.000000"
 preserveAspectRatio="xMidYMid meet">
<metadata>
Created by potrace 1.16, written by Peter Selinger 2001-2019
</metadata>
<g transform="translate(0.000000,590.000000) scale(0.500000,-0.500000)"
fill="#000000" stroke="none">
<path d="M1182 1137 c-10 -4 -10 -4 -10 -62 0 -55 0 -55 -5 -58 -8 -5 -15 -2
-21 9 -3 6 -8 11 -14 14 -7 4 -10 7 -16 21 -5 8 -12 19 -16 23 -4 4 -10 11
-13 16 -7 11 -30 22 -45 22 -26 0 -31 -39 -7 -62 3 -3 7 -8 9 -12 5 -7 79 -82
91 -91 4 -3 9 -9 11 -15 2 -5 9 -13 15 -18 l10 -10 1 -61 c0 -81 0 -71 -2
-128 -1 -27 -2 -53 -4 -57 -1 -4 -2 -13 -2 -21 0 -15 -5 -28 -14 -39 -4 -5 -5
-9 -6 -23 -1 -17 -1 -17 -11 -27 -6 -6 -12 -15 -14 -21 -6 -15 -12 -24 -38
-53 -14 -17 -25 -30 -29 -38 -2 -3 -7 -8 -11 -10 -5 -3 -9 -8 -12 -15 -5 -12
-11 -18 -25 -26 -5 -3 -13 -10 -18 -14 -6 -5 -10 -9 -11 -9 -3 0 -16 6 -27 14
-7 5 -18 12 -25 16 -7 4 -19 11 -27 17 -44 31 -54 37 -60 40 -4 2 -23 14 -42
27 -19 13 -40 26 -47 30 -6 3 -25 15 -42 26 -16 11 -36 23 -44 27 -72 40 -77
52 -29 72 4 1 9 5 11 8 2 2 9 7 16 11 6 4 16 10 20 13 10 8 27 18 45 27 8 4
17 11 22 16 8 9 11 11 24 14 20 6 24 8 28 15 5 10 8 13 16 14 5 1 10 5 18 13
8 7 14 12 18 13 35 8 86 43 83 59 -3 16 -5 20 -15 25 -5 3 -14 9 -19 12 -6 4
-12 7 -13 7 -1 0 -7 4 -14 8 -7 4 -19 11 -26 15 -8 4 -19 10 -24 14 -10 6 -14
9 -50 29 -11 6 -24 14 -30 17 -6 3 -15 10 -21 15 -6 6 -13 10 -17 11 -9 2 -12
4 -24 14 -6 5 -11 9 -12 9 -2 0 -8 5 -14 12 -9 10 -13 12 -20 13 -4 1 -11 4
-15 7 -4 3 -11 7 -16 8 -5 1 -12 6 -18 12 -10 10 -12 11 -23 12 -15 2 -22 6
-35 18 -20 19 -52 18 -59 -2 -2 -4 -3 -80 -2 -123 1 -22 1 -116 0 -126 0 -5 0
-15 2 -20 4 -21 3 -98 -2 -112 -8 -21 -12 -20 -59 12 -3 3 -10 7 -15 10 -5 3
-18 12 -30 20 -12 8 -29 20 -38 25 -9 6 -33 22 -54 36 -20 13 -40 26 -44 28
-8 4 -82 53 -97 64 -4 3 -12 7 -16 10 -4 2 -13 8 -20 14 -13 12 -33 15 -43 6
-6 -5 -6 -36 -1 -58 3 -11 3 -25 2 -97 0 -46 -1 -87 0 -91 0 -4 0 -12 -1 -18
0 -6 -1 -55 -1 -108 -1 -53 -2 -101 -3 -107 -1 -5 -1 -13 0 -18 2 -5 2 -35 1
-77 -2 -90 -1 -91 40 -63 29 19 33 21 78 38 15 5 31 15 43 26 6 6 13 10 19 12
5 1 11 4 13 6 2 1 9 6 17 10 8 4 20 10 25 14 6 5 19 11 28 15 13 5 18 8 21 14
2 4 8 8 17 13 8 4 15 9 17 12 3 5 11 9 17 9 10 0 18 6 24 18 4 8 8 13 13 15 3
2 8 5 9 6 33 29 51 -16 39 -91 -7 -43 -8 -358 -1 -365 12 -12 38 -10 51 4 7 8
11 10 23 14 8 2 19 7 23 10 4 3 9 5 11 5 2 0 6 2 10 5 4 3 10 5 13 6 3 1 10 5
15 10 10 9 10 9 24 9 17 0 20 1 26 11 4 7 17 13 30 13 10 0 17 3 25 12 3 3 11
8 18 10 7 2 16 7 20 10 4 3 10 6 13 7 3 1 8 4 12 8 8 9 21 15 30 15 13 0 31 8
38 16 6 7 26 16 38 16 3 0 8 4 16 12 10 11 13 12 30 18 18 6 37 17 54 31 4 3
15 11 25 18 11 8 20 16 23 21 4 7 7 9 14 11 6 2 13 7 24 17 8 8 17 16 20 19 3
2 6 6 8 8 2 1 7 7 12 12 7 6 11 12 14 21 3 7 8 16 12 20 4 4 9 12 11 18 3 8 5
11 10 13 10 5 13 9 15 18 1 4 6 13 10 18 10 14 17 28 20 41 3 16 13 44 23 66
5 11 9 22 9 24 0 3 2 9 4 13 3 8 4 72 1 147 -1 24 -1 32 2 44 2 8 4 25 4 37 1
40 5 53 18 56 6 1 8 3 12 12 3 7 9 14 18 22 8 7 15 16 18 21 2 5 8 12 13 16 5
4 10 10 12 16 3 6 11 16 23 28 32 32 30 56 -4 56 -25 0 -47 -16 -70 -49 -24
-37 -43 -27 -43 23 -1 38 -2 42 -15 47 -7 3 -41 4 -47 2z m-602 -134 c6 -4 22
-14 35 -23 13 -9 27 -17 31 -19 4 -2 14 -8 22 -14 8 -6 18 -12 22 -14 13 -7
35 -21 43 -29 11 -10 28 -21 42 -26 6 -2 14 -7 19 -10 5 -4 14 -9 19 -11 14
-7 20 -21 9 -21 -1 0 -11 -6 -23 -14 -11 -8 -21 -14 -22 -14 -1 0 -9 -5 -18
-10 -9 -6 -24 -15 -32 -20 -15 -9 -28 -17 -62 -37 -16 -11 -43 -27 -53 -34 -4
-3 -13 -9 -21 -13 -8 -5 -16 -10 -18 -12 -6 -5 -24 -14 -30 -14 -9 0 -9 2 -9
58 0 29 -1 61 -2 72 -1 14 -1 20 1 28 2 7 3 25 3 86 0 103 6 115 44 91z m-440
-177 c9 -4 35 -20 79 -49 17 -11 33 -22 37 -24 4 -2 16 -9 27 -17 40 -26 52
-34 64 -40 12 -7 57 -35 76 -47 6 -4 13 -8 17 -10 31 -12 8 -62 -35 -77 -7 -2
-17 -7 -21 -11 -5 -3 -11 -7 -13 -9 -3 -1 -8 -5 -13 -9 -5 -4 -18 -12 -29 -17
-11 -5 -25 -12 -29 -16 -5 -3 -21 -12 -36 -19 -14 -7 -30 -15 -34 -18 -4 -3
-13 -7 -21 -10 -8 -2 -19 -8 -25 -11 -5 -4 -14 -9 -20 -11 -6 -2 -17 -7 -26
-11 -21 -11 -35 -5 -28 13 1 3 2 11 2 18 0 7 1 16 3 21 2 7 2 11 0 14 -3 7 -2
42 1 49 2 5 2 8 0 14 -3 11 -3 79 0 87 2 5 2 9 0 16 -4 18 -4 169 1 174 4 5
13 5 23 0z m419 -261 c15 -9 49 -34 53 -38 1 -1 7 -5 13 -8 14 -6 19 -10 29
-23 5 -6 10 -10 15 -12 12 -4 26 -11 34 -18 3 -3 10 -7 14 -9 4 -2 10 -6 13
-9 13 -11 63 -42 75 -46 8 -3 16 -8 25 -17 7 -7 16 -13 18 -14 15 -4 19 -11
19 -34 0 -18 -2 -22 -14 -28 -3 -2 -12 -8 -19 -13 -7 -6 -13 -10 -15 -10 -1 0
-7 -3 -13 -7 -7 -4 -15 -7 -21 -8 -7 -1 -12 -3 -18 -9 -10 -10 -23 -16 -31
-16 -9 0 -14 -3 -28 -14 -7 -6 -14 -10 -19 -11 -13 -2 -27 -7 -37 -13 -5 -3
-11 -6 -14 -6 -3 0 -10 -2 -15 -5 -6 -2 -14 -6 -18 -7 -4 -1 -14 -6 -21 -10
-48 -28 -48 -29 -48 135 0 117 0 134 -3 142 -3 7 -3 15 -2 29 0 18 0 20 -5 28
-7 12 -7 23 0 33 3 4 6 11 7 14 3 13 9 14 26 4z"/>
</g>
</svg>
