<?xml version="1.0" standalone="no"?>
<!DOCTYPE svg PUBLIC "-//W3C//DTD SVG 20010904//EN"
 "http://www.w3.org/TR/2001/REC-SVG-20010904/DTD/svg10.dtd">
<svg version="1.0" xmlns="http://www.w3.org/2000/svg"
 width="100.000000pt" height="83.000000pt" viewBox="0 0 100.000000 83.000000"
 preserveAspectRatio="xMidYMid meet">
<metadata>
Created by potrace 1.16, written by Peter Selinger 2001-2019
</metadata>
<g transform="translate(0.000000,83.000000) scale(0.100000,-0.100000)"
fill="#000000" stroke="none">
<path d="M820 761 c0 -23 -4 -41 -9 -41 -5 0 -21 16 -35 35 -30 40 -66 47 -66
14 0 -12 23 -43 56 -75 l57 -54 -7 -97 c-4 -59 -14 -113 -25 -137 -24 -54 -92
-136 -112 -136 -9 0 -35 14 -59 31 -23 17 -76 51 -117 76 -41 25 -72 50 -70
56 3 10 66 51 182 119 22 13 40 30 40 38 0 14 -154 117 -257 170 -40 21 -59
26 -64 18 -4 -6 -6 -69 -5 -139 1 -80 -2 -130 -9 -134 -5 -3 -68 33 -139 81
-71 47 -134 83 -140 80 -12 -8 -16 -447 -4 -459 8 -9 161 73 225 120 26 19 51
32 56 29 5 -3 7 -74 4 -159 -3 -107 -1 -156 7 -161 12 -8 306 136 374 183 62
42 106 95 139 168 24 55 28 74 28 159 l0 96 51 58 c32 38 49 65 46 75 -9 21
-21 19 -55 -10 -37 -31 -40 -31 -44 3 -2 19 -9 28 -25 30 -21 3 -23 -1 -23
-37z m-370 -92 c25 -16 63 -39 85 -51 l39 -21 -24 -19 c-52 -40 -165 -107
-172 -100 -11 12 4 222 16 222 6 0 31 -14 56 -31z m-291 -133 c25 -18 72 -48
104 -66 32 -18 56 -37 54 -44 -3 -11 -214 -136 -229 -136 -5 0 -8 63 -8 140 0
161 1 163 79 106z m283 -181 c33 -25 82 -57 109 -72 54 -31 62 -54 27 -77 -29
-19 -189 -89 -193 -84 -5 7 -14 278 -8 278 3 0 32 -20 65 -45z"/>
</g>
</svg>
