<?xml version="1.0" standalone="no"?>
<!DOCTYPE svg PUBLIC "-//W3C//DTD SVG 20010904//EN"
 "http://www.w3.org/TR/2001/REC-SVG-20010904/DTD/svg10.dtd">
<svg version="1.0" xmlns="http://www.w3.org/2000/svg"
 width="80.000000pt" height="100.000000pt" viewBox="0 0 80.000000 100.000000"
 preserveAspectRatio="xMidYMid meet">
<metadata>
Created by potrace 1.16, written by Peter Selinger 2001-2019
</metadata>
<g transform="translate(0.000000,100.000000) scale(0.100000,-0.100000)"
fill="#000000" stroke="none">
<path d="M231 855 c-79 -41 -149 -79 -154 -84 -13 -13 9 -41 32 -41 9 0 74 32
145 70 70 39 137 70 148 70 10 0 87 -34 170 -76 138 -70 151 -75 166 -60 12
11 13 19 5 27 -5 5 -77 46 -158 90 -96 51 -159 79 -179 79 -19 0 -88 -30 -175
-75z"/>
<path d="M384 784 c-4 -14 -7 -81 -8 -150 0 -69 -5 -124 -10 -124 -5 0 -41 22
-80 49 -88 60 -183 111 -207 111 -18 0 -19 -13 -19 -235 0 -207 2 -235 16
-235 8 0 76 40 149 89 74 49 136 86 139 84 3 -3 2 -77 -1 -164 -6 -154 -5
-159 14 -159 11 0 93 44 184 99 206 123 205 119 59 208 -58 34 -113 66 -122
69 -27 8 -22 32 10 48 15 8 70 41 122 74 139 87 139 88 -55 185 -85 42 -162
77 -170 77 -8 0 -18 -12 -21 -26z m145 -94 c44 -22 83 -45 87 -51 8 -13 -3
-23 -110 -99 -38 -27 -72 -47 -76 -45 -7 4 -2 199 5 223 6 17 6 17 94 -28z
m-326 -152 c40 -24 86 -51 102 -60 45 -25 42 -42 -12 -73 -26 -16 -74 -46
-105 -67 -31 -21 -62 -38 -67 -38 -7 0 -11 48 -11 140 0 93 4 140 11 140 6 0
43 -19 82 -42z m317 -193 c46 -30 87 -55 91 -55 4 0 9 -6 12 -14 4 -10 -24
-32 -89 -71 -98 -58 -132 -65 -120 -22 3 12 6 66 6 120 0 53 4 97 8 97 5 0 46
-25 92 -55z"/>
</g>
</svg>
