<?xml version="1.0" standalone="no"?>
<!DOCTYPE svg PUBLIC "-//W3C//DTD SVG 20010904//EN"
 "http://www.w3.org/TR/2001/REC-SVG-20010904/DTD/svg10.dtd">
<svg version="1.0" xmlns="http://www.w3.org/2000/svg"
 width="118.000000pt" height="148.000000pt" viewBox="0 0 118.000000 148.000000"
 preserveAspectRatio="xMidYMid meet">
<metadata>
Created by potrace 1.16, written by Peter Selinger 2001-2019
</metadata>
<g transform="translate(0.000000,148.000000) scale(0.100000,-0.100000)"
fill="#000000" stroke="none">
<path d="M485 1331 c-49 -26 -154 -80 -233 -120 -78 -41 -142 -79 -142 -85 1
-16 25 -46 39 -46 6 0 40 15 74 34 34 18 125 66 202 106 77 40 147 77 155 82
11 7 74 -22 225 -102 116 -61 214 -115 219 -121 17 -16 51 -10 64 12 12 18 12
24 0 34 -7 7 -94 54 -192 105 -99 51 -196 103 -217 117 -62 41 -92 38 -194
-16z"/>
<path d="M577 1193 c-4 -3 -7 -28 -7 -54 0 -26 -5 -51 -10 -54 -7 -4 -9 -66
-6 -171 2 -90 0 -167 -5 -169 -4 -3 -36 15 -71 39 -64 44 -232 148 -278 171
-35 18 -101 38 -106 32 -9 -9 -4 -681 5 -690 9 -9 40 10 301 182 167 110 152
116 143 -52 -5 -78 -8 -187 -8 -242 0 -99 0 -100 25 -103 17 -2 70 25 165 82
206 125 298 179 320 191 14 7 20 21 20 44 0 29 -6 36 -45 58 -25 14 -83 49
-130 78 -47 29 -110 66 -140 83 -60 32 -74 56 -38 66 20 5 277 162 346 211 16
12 22 25 20 42 -3 29 1 26 -133 92 -55 26 -153 76 -217 110 -114 59 -138 68
-151 54z m280 -211 c91 -43 91 -46 -24 -125 -18 -12 -65 -45 -105 -73 -118
-82 -112 -86 -102 63 4 71 6 152 5 181 -1 28 0 56 4 61 3 6 38 -9 78 -31 39
-23 105 -57 144 -76z m-596 -160 c41 -27 108 -68 151 -91 42 -23 81 -48 87
-55 14 -17 5 -42 -17 -51 -17 -6 -55 -30 -224 -140 -54 -35 -98 -58 -99 -52
-1 14 0 431 0 435 3 11 39 -5 102 -46z m394 -232 c7 -12 116 -83 190 -125 61
-35 85 -54 85 -70 0 -10 -76 -59 -270 -173 l-40 -23 -9 23 c-6 15 -5 44 1 74
5 27 7 101 3 168 -5 93 -4 121 7 127 17 11 26 11 33 -1z"/>
</g>
</svg>
