<?xml version="1.0" standalone="no"?>
<!DOCTYPE svg PUBLIC "-//W3C//DTD SVG 20010904//EN"
 "http://www.w3.org/TR/2001/REC-SVG-20010904/DTD/svg10.dtd">
<svg version="1.0" xmlns="http://www.w3.org/2000/svg"
 width="100.000000pt" height="75.000000pt" viewBox="0 0 100.000000 75.000000"
 preserveAspectRatio="xMidYMid meet">
<metadata>
Created by potrace 1.16, written by Peter Selinger 2001-2019
</metadata>
<g transform="translate(0.000000,75.000000) scale(0.100000,-0.100000)"
fill="#000000" stroke="none">
<path d="M760 704 c-6 -14 -10 -81 -10 -148 0 -121 -1 -126 -50 -272 -27 -82
-53 -150 -58 -152 -4 -1 -19 28 -32 65 -13 38 -41 105 -62 151 -36 78 -38 87
-38 185 0 143 -7 179 -34 175 -20 -3 -21 -8 -21 -143 0 -132 -2 -145 -32 -230
-18 -49 -42 -123 -53 -164 -12 -40 -25 -70 -30 -65 -4 5 -25 52 -45 104 -21
52 -49 118 -64 145 -24 46 -26 63 -31 200 -5 144 -6 150 -26 153 -30 4 -37
-31 -29 -137 7 -86 7 -86 -60 -299 -37 -117 -64 -220 -61 -228 5 -12 74 -14
472 -14 l467 0 -5 38 c-3 20 -40 111 -83 202 l-77 165 6 134 c4 93 3 138 -5
147 -17 21 -28 17 -39 -12z m-535 -450 c23 -54 49 -113 58 -131 9 -18 17 -37
17 -43 0 -13 -206 -14 -214 -1 -3 5 7 51 24 102 16 52 34 113 40 137 6 24 16
42 22 40 7 -3 30 -49 53 -104z m301 23 c15 -39 37 -92 49 -117 47 -95 52 -90
-74 -90 -65 0 -111 4 -111 10 0 5 9 32 19 59 11 27 27 77 36 110 22 85 33 113
44 107 5 -4 22 -39 37 -79z m298 -12 c18 -44 42 -99 54 -122 37 -72 36 -73
-88 -73 -68 0 -110 4 -110 10 0 6 10 36 23 68 13 31 34 90 46 130 12 40 27 72
33 70 5 -2 25 -40 42 -83z"/>
</g>
</svg>
