<?xml version="1.0" standalone="no"?>
<!DOCTYPE svg PUBLIC "-//W3C//DTD SVG 20010904//EN"
 "http://www.w3.org/TR/2001/REC-SVG-20010904/DTD/svg10.dtd">
<svg version="1.0" xmlns="http://www.w3.org/2000/svg"
 width="198.000000pt" height="148.000000pt" viewBox="0 0 198.000000 148.000000"
 preserveAspectRatio="xMidYMid meet">
<metadata>
Created by potrace 1.16, written by Peter Selinger 2001-2019
</metadata>
<g transform="translate(0.000000,148.000000) scale(0.100000,-0.100000)"
fill="#000000" stroke="none">
<path d="M1527 1417 c-13 -10 -17 -43 -21 -162 -16 -433 -16 -435 -46 -520
-54 -150 -158 -460 -164 -487 -7 -31 -34 -38 -42 -10 -3 9 -19 53 -36 97 -18
44 -31 88 -31 97 1 9 -5 22 -13 29 -8 6 -14 17 -14 24 0 7 -13 40 -29 72 -16
32 -48 103 -72 158 -23 55 -46 105 -50 110 -4 6 -10 73 -13 150 -3 77 -8 168
-12 202 -5 45 -3 67 6 78 10 12 10 21 2 38 -6 12 -13 38 -14 57 -2 28 -8 36
-27 38 -13 2 -28 -1 -34 -7 -11 -11 -11 -123 2 -351 6 -106 5 -139 -6 -155 -7
-11 -13 -27 -13 -36 0 -16 -25 -99 -53 -174 -8 -22 -29 -87 -47 -145 -17 -58
-38 -120 -46 -138 -8 -18 -14 -40 -14 -48 0 -15 -22 -89 -42 -143 -13 -36 -29
-14 -72 96 -21 54 -51 125 -67 157 -16 33 -29 69 -29 81 0 13 -6 27 -13 33 -7
6 -28 46 -46 89 -18 43 -47 107 -65 143 l-31 65 3 235 c1 129 5 247 8 261 4
22 0 28 -26 39 -59 24 -62 13 -61 -249 l0 -231 -60 -187 c-34 -104 -78 -244
-99 -313 -21 -69 -50 -160 -64 -204 -14 -43 -26 -94 -26 -112 l0 -34 924 0
924 0 5 33 c4 29 -10 75 -34 117 -5 8 -14 26 -20 40 -7 14 -29 62 -50 107 -22
46 -39 85 -39 87 0 2 -22 51 -50 109 -27 58 -70 151 -96 208 l-47 104 10 260
c5 143 6 267 2 276 -12 23 -34 30 -52 16z m-481 -852 c31 -77 81 -196 111
-265 31 -69 57 -136 60 -150 l5 -25 -228 2 c-165 1 -229 5 -235 14 -4 7 -1 27
7 46 8 18 20 48 28 67 8 19 18 50 21 70 4 20 11 39 16 42 5 3 9 14 9 25 0 11
13 59 29 107 16 48 39 123 52 167 13 44 28 83 33 87 12 8 12 8 92 -187z m-631
30 c34 -82 79 -185 99 -228 20 -42 36 -82 36 -87 0 -6 10 -27 23 -48 31 -51
47 -89 40 -96 -4 -3 -111 -6 -240 -6 -203 0 -234 2 -240 16 -3 8 -1 20 6 27 6
6 11 18 11 28 0 9 9 28 20 42 11 14 20 39 20 55 0 16 7 35 15 42 9 7 15 29 15
51 0 21 6 53 14 71 8 18 24 67 36 108 13 41 27 79 31 85 5 5 9 25 9 45 0 20 3
40 7 44 20 20 41 -11 98 -149z m1183 34 c38 -92 87 -199 183 -405 31 -66 34
-80 20 -89 -12 -7 -469 -10 -476 -3 -3 3 5 32 18 64 13 33 39 95 56 139 18 44
36 96 41 115 10 46 60 192 70 205 4 6 10 27 14 48 4 23 12 37 19 34 7 -2 31
-51 55 -108z"/>
</g>
</svg>
