<?xml version="1.0" standalone="no"?>
<!DOCTYPE svg PUBLIC "-//W3C//DTD SVG 20010904//EN"
 "http://www.w3.org/TR/2001/REC-SVG-20010904/DTD/svg10.dtd">
<svg version="1.0" xmlns="http://www.w3.org/2000/svg"
 width="97.000000pt" height="100.000000pt" viewBox="0 0 97.000000 100.000000"
 preserveAspectRatio="xMidYMid meet">
<metadata>
Created by potrace 1.16, written by Peter Selinger 2001-2019
</metadata>
<g transform="translate(0.000000,100.000000) scale(0.100000,-0.100000)"
fill="#000000" stroke="none">
<path d="M110 853 c-48 -124 -86 -272 -77 -297 6 -15 44 -16 449 -14 l443 3
-1 32 c-1 18 -29 92 -62 165 -33 73 -68 152 -78 176 -13 33 -21 42 -37 40 -15
-2 -27 -27 -58 -123 -21 -66 -43 -139 -49 -163 -13 -50 -27 -51 -46 -2 -96
253 -119 300 -144 285 -4 -3 -16 -29 -26 -58 -9 -28 -25 -69 -36 -90 -11 -22
-28 -71 -38 -110 -10 -43 -23 -72 -31 -72 -7 0 -17 23 -24 55 -6 30 -33 106
-59 168 -63 147 -71 147 -126 5z m116 -134 c23 -63 39 -117 37 -121 -2 -5 -38
-8 -79 -8 -58 0 -76 3 -81 15 -4 13 27 144 53 223 10 32 32 -2 70 -109z m269
59 c10 -29 28 -79 42 -111 13 -32 21 -63 17 -69 -8 -12 -163 -4 -174 9 -11 12
72 223 86 223 7 0 20 -24 29 -52z m310 -55 c25 -53 43 -103 41 -110 -4 -9 -29
-13 -84 -13 -43 0 -81 2 -84 5 -11 11 58 215 73 215 5 0 29 -44 54 -97z"/>
<path d="M39 443 c-3 -50 46 -231 91 -333 41 -94 54 -89 108 40 25 58 52 132
61 164 18 66 37 83 46 39 5 -30 38 -127 78 -233 42 -111 60 -97 138 112 29 76
57 137 63 135 5 -2 13 -14 17 -28 92 -306 91 -302 117 -297 8 2 27 32 43 68
15 36 50 117 78 180 28 63 50 126 49 140 l-3 25 -442 3 c-417 2 -443 1 -444
-15z m231 -47 c0 -12 -29 -95 -71 -203 -14 -37 -37 -28 -49 20 -6 23 -18 64
-26 91 -8 27 -14 62 -14 78 l0 28 80 0 c63 0 80 -3 80 -14z m290 1 c0 -29 -79
-222 -91 -222 -7 0 -19 18 -27 40 -8 22 -25 68 -39 102 -35 88 -31 93 72 93
64 0 85 -3 85 -13z m294 -6 c3 -5 -15 -52 -40 -105 -32 -68 -50 -96 -61 -94
-10 2 -26 37 -44 98 -16 52 -29 98 -29 103 0 10 168 9 174 -2z"/>
</g>
</svg>
