<?xml version="1.0" standalone="no"?>
<!DOCTYPE svg PUBLIC "-//W3C//DTD SVG 20010904//EN"
 "http://www.w3.org/TR/2001/REC-SVG-20010904/DTD/svg10.dtd">
<svg version="1.0" xmlns="http://www.w3.org/2000/svg"
 width="144.000000pt" height="148.000000pt" viewBox="0 0 144.000000 148.000000"
 preserveAspectRatio="xMidYMid meet">
<metadata>
Created by potrace 1.16, written by Peter Selinger 2001-2019
</metadata>
<g transform="translate(0.000000,148.000000) scale(0.100000,-0.100000)"
fill="#000000" stroke="none">
<path d="M202 1353 c-18 -38 -32 -75 -32 -84 0 -9 -6 -22 -14 -28 -7 -6 -13
-23 -13 -37 0 -14 -5 -35 -10 -47 -24 -52 -32 -75 -43 -132 -6 -33 -18 -72
-26 -87 -16 -31 -19 -124 -3 -133 6 -4 164 -5 352 -3 188 1 478 2 644 0 l303
-3 10 23 c11 23 -20 106 -116 313 -15 33 -48 110 -74 170 -41 97 -50 110 -71
110 -22 0 -28 -13 -85 -185 -34 -102 -70 -215 -80 -253 -10 -37 -23 -66 -28
-64 -6 2 -17 21 -25 43 -111 306 -190 468 -220 450 -13 -8 -41 -71 -41 -92 0
-8 -8 -33 -19 -57 -10 -23 -24 -58 -31 -77 -8 -19 -19 -42 -27 -51 -7 -8 -13
-24 -13 -35 0 -11 -9 -45 -20 -77 -11 -31 -20 -68 -20 -82 0 -22 -4 -26 -22
-23 -19 3 -24 12 -31 58 -4 30 -12 59 -17 64 -6 6 -10 19 -10 29 0 10 -6 31
-14 45 -16 29 -42 88 -101 225 -25 57 -44 87 -54 87 -10 0 -29 -26 -49 -67z
m71 -120 c8 -10 34 -74 58 -143 23 -69 50 -143 60 -164 11 -22 15 -44 11 -48
-5 -5 -65 -7 -133 -6 l-124 3 2 40 c3 40 68 284 85 318 5 9 12 17 17 17 4 0
15 -8 24 -17z m461 -70 c24 -77 63 -176 93 -241 9 -18 13 -36 9 -39 -3 -4 -68
-6 -144 -6 -134 0 -137 1 -140 23 -4 23 18 95 44 142 8 14 24 57 35 95 27 88
36 103 59 103 15 0 24 -16 44 -77z m417 15 c7 -18 37 -82 66 -142 50 -103 63
-146 46 -146 -5 0 -68 -2 -141 -4 -132 -3 -163 4 -129 29 9 6 19 32 22 56 4
24 22 88 42 142 31 83 39 97 58 97 16 0 26 -9 36 -32z"/>
<path d="M69 674 c-17 -21 -16 -83 3 -124 9 -19 19 -48 22 -65 9 -54 17 -90
26 -110 4 -11 13 -33 19 -48 6 -15 11 -41 11 -56 0 -16 7 -34 15 -41 8 -7 15
-19 15 -26 0 -8 12 -38 26 -67 15 -28 30 -58 34 -66 19 -41 44 -4 109 162 12
31 29 69 39 87 22 37 30 59 47 115 9 33 18 69 19 80 2 11 8 30 15 42 14 27 41
20 41 -11 0 -26 37 -160 56 -201 35 -78 72 -175 84 -218 7 -27 19 -51 27 -54
21 -8 69 53 92 117 11 30 41 107 66 170 25 63 54 135 63 159 9 24 21 45 27 45
5 1 24 -48 41 -109 47 -160 121 -376 132 -387 18 -18 50 2 63 40 10 31 130
307 200 461 11 24 19 57 17 75 l-3 31 -635 2 c-349 2 -640 5 -647 7 -6 3 -17
-2 -24 -10z m344 -70 c3 -4 0 -19 -8 -34 -16 -31 -82 -218 -95 -268 -9 -37
-36 -72 -56 -72 -7 0 -18 19 -24 43 -6 23 -26 92 -45 154 -19 61 -35 127 -35
147 l0 36 128 0 c71 0 131 -3 135 -6z m432 -6 c3 -3 -7 -34 -23 -69 -16 -35
-44 -107 -62 -159 -41 -119 -47 -130 -69 -130 -13 0 -24 20 -44 78 -14 42 -42
119 -62 170 -24 63 -33 98 -26 105 9 12 275 16 286 5z m433 -18 c3 -7 -20 -65
-51 -129 -31 -64 -61 -131 -68 -149 -10 -27 -16 -32 -37 -30 -22 3 -29 15 -63
113 -21 61 -39 121 -39 134 0 14 -7 32 -16 42 -9 10 -13 22 -10 27 3 5 67 8
142 7 106 -1 139 -4 142 -15z"/>
</g>
</svg>
