<?xml version="1.0" standalone="no"?>
<!DOCTYPE svg PUBLIC "-//W3C//DTD SVG 20010904//EN"
 "http://www.w3.org/TR/2001/REC-SVG-20010904/DTD/svg10.dtd">
<svg version="1.0" xmlns="http://www.w3.org/2000/svg"
 width="578.000000pt" height="590.000000pt" viewBox="0 0 578.000000 590.000000"
 preserveAspectRatio="xMidYMid meet">
<metadata>
Created by potrace 1.16, written by Peter Selinger 2001-2019
</metadata>
<g transform="translate(0.000000,590.000000) scale(0.500000,-0.500000)"
fill="#000000" stroke="none">
<path d="M194 1136 c-6 -3 -8 -5 -13 -20 -3 -9 -9 -21 -12 -26 -4 -5 -7 -11
-8 -14 0 -3 -4 -9 -7 -13 -8 -9 -16 -29 -18 -45 -1 -11 -3 -14 -9 -20 -8 -7
-9 -9 -10 -35 0 -20 -1 -21 -8 -31 -8 -12 -11 -21 -11 -31 0 -4 -2 -9 -5 -13
-7 -8 -9 -16 -9 -33 0 -12 -1 -15 -4 -20 -7 -8 -12 -30 -14 -52 -1 -20 -1 -20
-9 -30 -7 -7 -9 -10 -9 -16 0 -4 -1 -11 -3 -16 -6 -18 -3 -58 6 -77 3 -6 521
-9 541 -3 15 4 114 5 314 3 131 -1 184 -1 188 1 12 5 17 38 7 58 -2 6 -5 12
-6 16 0 3 -6 15 -12 28 -6 12 -12 26 -13 30 -1 4 -5 12 -7 17 -3 5 -8 18 -12
28 -4 11 -11 27 -16 36 -5 9 -9 20 -10 23 -1 3 -7 16 -13 29 -6 13 -13 27 -14
31 -1 4 -7 17 -13 29 -6 12 -11 24 -12 27 -1 3 -5 13 -9 21 -4 8 -9 20 -11 26
-2 6 -7 19 -12 28 -5 9 -10 21 -12 27 -10 31 -26 41 -48 32 -11 -5 -16 -14
-35 -76 -9 -29 -35 -110 -42 -131 -4 -13 -14 -43 -22 -68 -44 -140 -43 -139
-66 -78 -4 9 -9 24 -12 32 -3 8 -8 22 -12 31 -3 9 -7 20 -10 25 -4 8 -10 22
-24 63 -4 12 -9 23 -10 24 -3 4 -14 29 -30 72 -7 20 -15 42 -20 52 -1 4 -7 11
-13 16 -6 5 -13 14 -16 19 -13 24 -45 17 -45 -9 0 -2 -3 -8 -6 -15 -3 -7 -8
-21 -10 -30 -10 -41 -13 -47 -26 -70 -5 -9 -8 -16 -9 -23 0 -6 -3 -14 -6 -18
-2 -5 -6 -13 -7 -20 -2 -10 -4 -13 -12 -22 -11 -11 -11 -11 -13 -34 -1 -17 -4
-29 -15 -52 -8 -18 -12 -33 -14 -58 -2 -34 -26 -46 -34 -19 -1 5 -4 10 -6 13
-3 5 -4 7 -3 18 1 10 1 15 -3 25 -2 7 -4 17 -5 21 -1 4 -4 10 -6 13 -4 4 -6 9
-7 19 -1 7 -4 17 -6 21 -2 4 -4 9 -5 12 -1 3 -4 9 -7 14 -3 5 -6 13 -7 17 -1
5 -4 11 -9 16 -5 5 -8 11 -10 17 -1 4 -4 12 -7 16 -3 5 -5 10 -5 15 0 10 -3
18 -8 24 -3 3 -5 9 -6 15 -1 12 -2 14 -10 24 -3 4 -9 16 -13 27 -9 26 -12 34
-19 44 -3 4 -7 11 -9 15 -5 12 -15 15 -27 8z m27 -155 c15 -15 18 -20 20 -36
1 -7 3 -15 6 -19 2 -4 7 -14 9 -22 5 -14 30 -85 38 -107 8 -23 20 -58 21 -63
0 -3 3 -8 6 -12 7 -8 6 -20 -1 -23 -5 -3 -179 -2 -191 0 -8 2 -12 13 -9 28 1
7 2 18 2 25 0 10 2 18 6 29 3 9 6 19 7 23 1 4 6 21 11 38 5 17 14 45 19 62 31
103 31 103 56 77z m344 6 c5 -3 9 -12 20 -42 4 -11 10 -26 13 -34 3 -8 6 -18
7 -23 0 -5 4 -15 8 -22 4 -8 10 -22 14 -33 4 -10 9 -22 11 -28 2 -5 5 -12 6
-15 1 -3 4 -11 7 -19 3 -8 7 -20 9 -26 2 -8 6 -16 10 -20 7 -8 8 -17 1 -20
-10 -5 -219 -2 -223 3 -7 8 -3 30 12 72 2 6 6 17 8 25 3 8 7 18 10 23 3 5 7
13 9 17 1 4 6 15 10 23 4 8 7 17 7 19 0 6 16 51 20 57 3 4 6 12 7 18 6 26 19
36 34 25z m345 -23 c5 -3 14 -19 25 -46 5 -13 24 -51 41 -86 45 -89 52 -108
39 -118 -4 -3 -202 -6 -212 -3 -13 3 -10 19 4 25 11 5 11 4 13 39 2 30 7 53
15 71 7 16 14 35 22 56 4 10 9 24 12 30 2 6 5 13 6 16 2 11 8 16 20 17 5 0 10
0 11 1 0 0 2 -1 4 -2z"/>
<path d="M62 548 c-14 -6 -18 -56 -7 -104 1 -2 5 -8 9 -12 8 -8 8 -9 8 -22 0
-18 7 -50 12 -55 6 -6 8 -14 8 -31 0 -13 1 -16 5 -22 3 -4 6 -12 7 -18 1 -7 4
-15 6 -20 14 -25 14 -24 14 -44 0 -20 1 -24 10 -32 5 -4 7 -8 9 -20 3 -19 10
-36 15 -41 3 -2 7 -9 10 -16 3 -7 8 -16 11 -20 2 -5 6 -14 8 -20 9 -32 30 -34
46 -4 14 26 18 36 24 54 3 10 8 20 11 24 7 8 9 12 11 24 1 5 4 12 6 16 3 5 6
12 7 20 1 9 3 14 6 19 3 3 6 9 7 14 1 6 4 11 9 17 6 6 8 11 9 17 1 5 4 12 6
15 3 4 6 10 8 15 1 4 4 11 6 14 2 4 4 12 5 19 1 9 3 15 7 19 2 3 5 9 6 12 1 4
3 14 6 23 4 13 4 18 3 23 -3 10 -2 13 3 19 2 3 5 10 7 15 8 25 32 11 32 -18 0
-18 5 -38 14 -59 12 -27 16 -42 16 -58 0 -15 4 -25 12 -29 5 -3 11 -14 13 -25
1 -4 4 -13 7 -18 4 -6 6 -13 6 -17 0 -5 2 -12 6 -18 12 -22 20 -40 23 -54 20
-86 46 -115 67 -74 2 4 8 11 14 16 10 8 20 24 20 32 0 1 2 8 5 14 3 6 9 22 14
35 15 38 21 54 25 60 2 4 7 15 11 26 11 32 19 52 23 61 2 4 7 16 10 25 48 129
46 127 70 51 14 -46 22 -69 31 -98 50 -153 59 -182 64 -200 10 -36 18 -45 38
-45 17 1 33 15 33 30 0 2 5 15 12 29 6 14 12 28 13 31 1 3 4 11 8 18 3 7 8 18
10 24 3 7 9 22 15 33 5 10 11 23 12 27 1 4 7 17 13 29 6 12 12 25 13 29 1 4 8
19 14 32 7 14 12 26 12 27 0 1 5 12 10 24 6 12 10 22 10 24 0 1 5 13 11 26 6
13 13 28 15 33 2 6 6 15 8 21 7 19 5 37 -6 48 l-5 6 -243 -1 c-221 -2 -244 -1
-254 2 -12 3 -531 6 -540 3z m265 -60 c3 -1 7 -9 7 -12 0 -1 -2 -5 -5 -9 -3
-4 -7 -12 -8 -17 -2 -8 -15 -46 -27 -79 -2 -5 -10 -27 -17 -48 -17 -49 -18
-52 -24 -64 -3 -5 -5 -13 -5 -17 0 -11 -7 -24 -21 -37 -21 -20 -26 -17 -38 20
-4 12 -11 36 -17 54 -5 18 -10 33 -10 35 0 1 -5 18 -11 37 -21 66 -22 70 -23
90 -1 11 -2 23 -3 27 -2 9 6 19 15 21 9 1 185 1 187 -1z m351 -6 c7 -3 5 -13
-3 -22 -4 -5 -7 -9 -7 -11 0 -3 -10 -35 -18 -54 -4 -9 -10 -26 -15 -38 -5 -12
-11 -28 -15 -35 -4 -7 -9 -21 -11 -31 -3 -10 -7 -24 -10 -30 -3 -7 -8 -19 -11
-28 -10 -31 -16 -37 -30 -37 -9 0 -20 15 -20 28 0 2 -3 9 -6 15 -7 14 -17 40
-21 59 -2 7 -6 17 -9 23 -3 5 -7 15 -9 20 -2 6 -6 14 -9 19 -3 5 -8 15 -10 23
-3 8 -7 20 -9 27 -15 39 -18 65 -8 71 5 4 214 5 221 1z m341 -9 c16 -10 10
-26 -40 -125 -19 -38 -36 -74 -38 -80 -23 -72 -50 -66 -78 19 -3 9 -6 17 -7
18 -1 1 -4 8 -7 16 -2 8 -7 19 -10 25 -3 6 -5 13 -5 16 0 2 -1 7 -3 11 -2 4
-4 20 -5 38 -2 37 -2 36 -13 40 -15 5 -17 22 -2 25 15 3 204 0 208 -3z"/>
</g>
</svg>
