<?xml version="1.0" standalone="no"?>
<!DOCTYPE svg PUBLIC "-//W3C//DTD SVG 20010904//EN"
 "http://www.w3.org/TR/2001/REC-SVG-20010904/DTD/svg10.dtd">
<svg version="1.0" xmlns="http://www.w3.org/2000/svg"
 width="144.000000pt" height="148.000000pt" viewBox="0 0 144.000000 148.000000"
 preserveAspectRatio="xMidYMid meet">
<metadata>
Created by potrace 1.16, written by Peter Selinger 2001-2019
</metadata>
<g transform="translate(0.000000,148.000000) scale(0.100000,-0.100000)"
fill="#000000" stroke="none">
<path d="M677 1414 c-4 -4 -7 -30 -7 -58 l0 -51 -89 -85 c-49 -47 -109 -103
-133 -125 -92 -85 -198 -241 -198 -291 0 -68 53 -144 114 -163 99 -31 162 -19
242 45 35 28 44 31 53 20 16 -19 -2 -89 -49 -191 -21 -44 -54 -126 -75 -183
-50 -136 -55 -135 -149 24 -70 120 -133 204 -153 204 -17 0 -39 -33 -56 -80
-22 -63 -71 -202 -101 -285 -14 -38 -26 -85 -26 -102 l0 -33 663 2 662 3 3 28
c2 16 -3 43 -11 60 -8 18 -25 55 -37 82 -21 47 -29 65 -64 148 -8 17 -26 58
-40 90 -14 32 -26 62 -26 67 0 5 -12 18 -27 30 -30 23 -65 21 -96 -8 -18 -16
-67 -113 -67 -132 0 -6 -5 -18 -10 -28 -6 -9 -24 -53 -39 -97 -35 -101 -52
-106 -81 -28 -12 31 -46 116 -77 187 -38 90 -57 148 -61 190 -6 65 -6 64 53
21 17 -12 50 -32 75 -44 40 -19 50 -20 105 -10 61 11 125 46 151 83 8 12 14
44 14 78 0 94 -20 121 -287 394 l-132 135 -3 52 c-2 37 -7 53 -18 55 -9 1 -19
0 -23 -4z m78 -204 c4 -11 43 -52 88 -91 102 -88 105 -93 67 -109 -33 -14
-155 -9 -170 6 -5 5 -11 55 -14 112 -5 85 -4 102 8 102 8 0 18 -9 21 -20z
m-85 -80 l0 -90 -100 0 c-55 0 -100 2 -100 4 0 2 32 35 72 72 39 38 78 77 87
86 34 35 41 22 41 -72z m-2 -167 c3 -41 2 -42 -35 -52 -21 -6 -47 -11 -57 -11
-11 0 -33 -5 -50 -10 -133 -43 -188 -60 -196 -60 -24 0 -6 43 40 98 28 33 50
65 50 71 0 8 36 11 123 9 l122 -3 3 -42z m181 7 c38 0 73 5 76 10 14 22 46 7
94 -46 28 -30 51 -61 51 -69 0 -21 -123 -7 -224 26 -49 16 -94 29 -101 29 -17
0 -27 41 -14 57 8 9 17 10 29 3 10 -6 50 -10 89 -10z m-34 -106 c39 -15 106
-31 150 -35 122 -14 125 -15 125 -49 0 -42 -56 -95 -108 -103 -75 -13 -155 12
-218 67 -39 34 -41 38 -40 91 0 31 5 55 11 55 5 0 42 -12 80 -26z m-145 -31
c0 -55 -2 -59 -50 -94 -60 -44 -100 -59 -160 -59 -63 0 -115 26 -137 70 -16
32 -3 47 50 55 23 4 47 11 52 15 6 4 24 10 40 13 17 3 59 14 95 25 103 32 110
31 110 -25z m37 -295 c5 -7 18 -35 28 -63 10 -27 26 -68 36 -90 95 -212 116
-265 106 -265 -123 -5 -352 1 -355 10 -2 6 14 52 36 103 22 51 59 143 83 205
24 61 46 112 50 112 3 0 11 -6 16 -12z m458 -73 c14 -31 25 -58 25 -60 0 -3 9
-27 21 -53 12 -26 25 -56 30 -67 4 -11 22 -51 39 -89 16 -38 30 -72 30 -75 0
-4 -81 -7 -180 -7 -126 -1 -180 2 -180 10 0 6 10 31 21 56 17 37 98 235 130
318 14 37 37 25 64 -33z m-890 -42 c15 -27 61 -100 101 -164 41 -64 74 -121
74 -127 0 -9 -49 -12 -171 -12 -159 0 -171 1 -164 18 4 9 30 78 57 152 56 155
66 180 72 180 2 0 16 -21 31 -47z"/>
</g>
</svg>
