<?xml version="1.0" standalone="no"?>
<!DOCTYPE svg PUBLIC "-//W3C//DTD SVG 20010904//EN"
 "http://www.w3.org/TR/2001/REC-SVG-20010904/DTD/svg10.dtd">
<svg version="1.0" xmlns="http://www.w3.org/2000/svg"
 width="97.000000pt" height="100.000000pt" viewBox="0 0 97.000000 100.000000"
 preserveAspectRatio="xMidYMid meet">
<metadata>
Created by potrace 1.16, written by Peter Selinger 2001-2019
</metadata>
<g transform="translate(0.000000,100.000000) scale(0.100000,-0.100000)"
fill="#000000" stroke="none">
<path d="M457 964 c-4 -4 -7 -24 -7 -45 0 -33 -7 -43 -77 -104 -179 -155 -241
-274 -183 -348 41 -52 157 -62 204 -18 24 22 56 28 56 10 0 -5 -20 -56 -44
-112 -24 -56 -49 -119 -56 -140 -17 -54 -36 -45 -87 43 -48 81 -89 130 -110
130 -17 0 -33 -34 -82 -173 -47 -136 -50 -163 -19 -173 11 -3 214 -3 450 1
l428 7 0 29 c0 27 -95 260 -126 307 -38 58 -95 9 -139 -117 -31 -89 -50 -115
-61 -85 -4 11 -29 70 -56 133 -67 158 -65 177 13 129 48 -30 51 -31 103 -19
30 7 66 23 80 36 22 20 26 33 26 79 0 48 -5 60 -44 113 -24 32 -87 99 -140
150 -82 80 -95 96 -98 129 -3 36 -16 52 -31 38z m-7 -193 c0 -22 -6 -46 -14
-53 -16 -16 -86 -12 -86 5 0 12 77 87 90 87 6 0 10 -18 10 -39z m110 -16 c45
-46 52 -57 40 -66 -15 -10 -86 -6 -98 5 -10 10 -15 116 -5 116 5 0 33 -25 63
-55z m-115 -105 c0 -20 -7 -26 -35 -33 -19 -4 -65 -17 -101 -28 -36 -10 -68
-19 -72 -19 -16 0 -5 26 29 67 l36 44 72 -3 c68 -3 71 -4 71 -28z m241 -25
c13 -17 20 -33 15 -38 -5 -5 -51 1 -105 13 -75 18 -96 26 -96 40 0 15 11 17
81 16 77 -1 82 -2 105 -31z m-238 -63 c5 -30 -14 -51 -63 -73 -56 -26 -108
-24 -141 4 -34 29 -26 43 28 52 22 4 64 15 92 26 63 22 80 20 84 -9z m123 8
c26 -11 66 -20 96 -20 28 0 55 -5 58 -10 13 -20 -8 -52 -42 -67 -29 -12 -44
-12 -85 -3 -58 15 -108 53 -108 84 0 42 17 45 81 16z m-81 -247 c7 -21 30 -77
52 -125 22 -48 38 -94 35 -103 -9 -22 -205 -22 -214 0 -3 9 10 50 29 93 20 42
41 95 48 117 22 69 33 73 50 18z m314 -68 c18 -44 40 -95 50 -113 29 -56 20
-62 -99 -62 -64 0 -105 4 -105 10 0 6 18 54 41 108 22 53 44 107 50 120 5 13
14 22 20 20 6 -2 26 -40 43 -83z m-569 -56 c50 -78 63 -104 53 -110 -23 -15
-188 -11 -194 4 -3 8 9 51 26 98 17 46 33 90 35 97 2 6 7 12 9 12 3 0 35 -46
71 -101z"/>
</g>
</svg>
