<?xml version="1.0" standalone="no"?>
<!DOCTYPE svg PUBLIC "-//W3C//DTD SVG 20010904//EN"
 "http://www.w3.org/TR/2001/REC-SVG-20010904/DTD/svg10.dtd">
<svg version="1.0" xmlns="http://www.w3.org/2000/svg"
 width="578.000000pt" height="590.000000pt" viewBox="0 0 578.000000 590.000000"
 preserveAspectRatio="xMidYMid meet">
<metadata>
Created by potrace 1.16, written by Peter Selinger 2001-2019
</metadata>
<g transform="translate(0.000000,590.000000) scale(0.500000,-0.500000)"
fill="#000000" stroke="none">
<path d="M553 1132 c-8 -5 -9 -7 -9 -42 0 -33 -3 -46 -10 -46 -1 0 -41 -42
-59 -63 -4 -5 -13 -14 -20 -19 -6 -5 -15 -15 -20 -21 -6 -8 -13 -15 -19 -19
-29 -17 -77 -59 -89 -78 -3 -5 -9 -13 -13 -17 -19 -20 -30 -33 -34 -40 -2 -4
-7 -12 -12 -17 -19 -23 -30 -38 -36 -52 -4 -8 -10 -20 -14 -25 -25 -33 -12
-114 23 -144 6 -6 16 -14 22 -19 15 -13 40 -22 63 -22 3 0 10 -2 16 -4 18 -7
53 -6 71 3 8 3 19 8 24 9 6 1 13 4 15 6 3 1 12 7 19 12 8 5 15 11 17 13 1 2 5
5 9 6 3 2 11 7 16 11 20 15 29 -2 19 -37 -2 -9 -6 -24 -8 -34 -2 -10 -6 -22
-9 -26 -6 -10 -25 -54 -42 -99 -7 -17 -15 -35 -17 -40 -2 -4 -8 -19 -14 -34
-5 -15 -13 -35 -17 -44 -4 -9 -10 -25 -13 -34 -15 -41 -34 -38 -59 8 -5 9 -13
22 -17 28 -4 6 -11 18 -16 26 -5 8 -14 22 -19 32 -6 9 -15 25 -20 35 -11 23
-19 35 -41 58 -10 10 -21 23 -26 28 -24 30 -53 15 -68 -37 -2 -8 -10 -29 -16
-47 -6 -18 -13 -36 -15 -42 -1 -5 -6 -19 -11 -31 -5 -12 -12 -31 -16 -43 -19
-54 -36 -103 -42 -119 -10 -28 -8 -53 5 -59 7 -4 449 -5 591 -1 66 2 100 2
155 0 39 -1 73 -2 77 -2 4 0 57 1 118 2 l110 1 6 7 c11 12 6 39 -14 81 -6 13
-13 29 -16 34 -4 12 -18 45 -29 69 -4 9 -11 25 -15 35 -17 40 -34 80 -36 83
-1 2 -8 18 -16 37 -21 50 -25 56 -45 67 -32 18 -79 -6 -95 -49 -4 -10 -8 -20
-9 -22 -2 -2 -9 -19 -16 -38 -7 -19 -17 -43 -21 -54 -5 -11 -10 -26 -13 -33
-3 -7 -8 -20 -11 -28 -4 -8 -10 -24 -14 -34 -8 -23 -16 -32 -23 -28 -6 5 -11
16 -50 109 -4 9 -11 26 -16 38 -5 12 -12 27 -14 33 -3 6 -7 16 -10 22 -3 6 -7
15 -8 19 -2 4 -4 9 -5 10 -18 23 -41 131 -32 149 4 8 18 1 53 -27 12 -10 30
-20 43 -23 5 -1 12 -5 17 -8 12 -8 91 -7 107 2 3 1 10 4 16 5 15 4 19 6 33 18
43 38 47 42 47 54 0 3 1 11 3 18 8 31 3 78 -9 93 -4 5 -10 16 -14 25 -9 19
-22 35 -45 57 -21 20 -25 24 -32 36 -3 6 -9 13 -14 16 -4 3 -9 8 -11 12 -7 10
-30 36 -38 41 -4 2 -16 12 -26 22 -11 10 -22 21 -26 24 -4 3 -10 11 -13 16 -4
6 -11 13 -16 17 -6 3 -14 12 -20 18 -10 12 -29 33 -50 54 -26 26 -25 24 -25
60 0 40 -8 52 -27 42z m51 -163 c13 -17 24 -29 36 -40 7 -5 26 -23 43 -38 18
-15 34 -29 36 -31 10 -7 35 -33 35 -36 0 -23 -88 -30 -149 -13 -18 5 -17 1
-17 87 0 92 0 92 16 71z m-69 2 c4 -11 1 -135 -3 -138 -6 -4 -47 -4 -69 0 -9
2 -28 3 -42 3 -27 0 -33 1 -33 4 0 4 13 20 21 25 5 3 21 18 38 33 16 16 35 34
42 41 8 7 19 17 26 23 12 12 18 14 20 9z m-44 -163 c49 -1 50 -3 46 -51 -2
-21 -3 -23 -18 -26 -7 -2 -21 -5 -31 -7 -10 -2 -29 -6 -41 -9 -12 -2 -27 -6
-33 -9 -6 -2 -18 -5 -27 -7 -18 -4 -53 -14 -62 -18 -22 -12 -63 -17 -63 -8 0
19 12 39 36 65 14 15 32 39 42 57 9 16 30 17 151 13z m300 -29 c45 -44 74 -84
68 -93 -2 -3 -43 -3 -60 0 -7 1 -19 3 -28 4 -38 6 -49 8 -64 14 -19 8 -50 17
-105 32 -13 3 -14 6 -14 27 0 27 2 28 30 21 46 -11 100 -11 132 2 27 10 25 10
41 -7z m-156 -77 c14 -5 35 -12 45 -16 25 -10 72 -22 95 -24 10 -1 21 -3 25
-4 4 -1 16 -2 27 -2 42 0 48 -3 49 -27 1 -24 -13 -49 -36 -65 -7 -5 -14 -10
-16 -12 -22 -16 -109 -15 -138 1 -5 3 -15 8 -22 10 -8 3 -16 8 -21 13 -4 4
-11 10 -15 12 -4 3 -12 9 -18 14 -6 6 -14 12 -17 15 -6 5 -6 5 -6 47 0 56 -3
54 48 38z m-101 1 c2 -3 3 -12 3 -40 0 -41 -1 -46 -15 -54 -8 -6 -25 -19 -38
-30 -6 -6 -15 -11 -27 -16 -10 -3 -22 -8 -28 -11 -37 -15 -98 -9 -129 11 -39
26 -56 69 -30 74 3 0 11 2 19 4 8 2 20 5 27 6 7 2 19 6 26 10 9 4 26 10 45 15
17 4 33 9 37 11 3 2 10 4 15 4 9 1 19 4 55 15 17 5 36 5 40 1z m33 -269 c4 -4
15 -28 36 -79 15 -35 30 -70 35 -82 3 -7 11 -25 19 -42 17 -41 34 -78 44 -101
10 -23 11 -29 5 -31 -6 -1 -69 -3 -82 -3 -5 0 -51 1 -102 1 -118 0 -112 -4
-85 56 13 30 29 68 42 102 7 18 16 38 19 45 3 7 9 22 14 34 4 12 10 26 13 33
3 7 10 24 15 38 12 31 19 39 27 29z m350 -24 c4 -4 9 -13 17 -31 6 -14 14 -33
17 -41 4 -8 10 -23 14 -32 34 -78 61 -140 72 -165 15 -34 17 -42 12 -45 -5 -2
-275 -4 -278 -1 -6 3 4 35 18 64 5 8 23 51 38 91 7 18 15 35 16 39 3 5 10 22
40 96 13 32 20 37 34 25z m-712 -45 c14 -21 45 -70 71 -113 7 -12 15 -24 18
-28 3 -4 10 -16 17 -26 6 -10 17 -28 24 -38 28 -43 33 -57 19 -62 -6 -2 -248
0 -252 2 -6 3 0 28 15 62 2 5 7 20 12 34 5 14 12 34 17 45 4 11 9 26 12 33 2
7 8 25 14 40 6 15 12 32 13 37 7 22 12 25 20 14z"/>
</g>
</svg>
