<?xml version="1.0" standalone="no"?>
<!DOCTYPE svg PUBLIC "-//W3C//DTD SVG 20010904//EN"
 "http://www.w3.org/TR/2001/REC-SVG-20010904/DTD/svg10.dtd">
<svg version="1.0" xmlns="http://www.w3.org/2000/svg"
 width="794.000000pt" height="590.000000pt" viewBox="0 0 794.000000 590.000000"
 preserveAspectRatio="xMidYMid meet">
<metadata>
Created by potrace 1.16, written by Peter Selinger 2001-2019
</metadata>
<g transform="translate(0.000000,590.000000) scale(0.500000,-0.500000)"
fill="#000000" stroke="none">
<path d="M256 728 c-21 -4 -23 -8 -41 -70 -3 -10 -7 -23 -8 -27 -2 -4 -7 -21
-12 -38 -9 -30 -27 -86 -44 -139 -5 -15 -11 -36 -15 -48 -4 -12 -9 -27 -12
-34 -3 -8 -6 -17 -7 -22 -1 -8 -14 -53 -22 -75 -1 -4 -6 -18 -9 -30 -4 -12 -9
-28 -11 -36 -3 -7 -7 -20 -9 -29 -2 -8 -7 -21 -11 -29 -4 -8 -7 -18 -8 -23 -1
-5 -3 -12 -5 -15 -7 -15 -4 -57 5 -61 2 -1 190 -2 417 -3 1118 -3 1062 -4
1062 13 0 2 2 11 5 20 6 18 3 35 -9 51 -5 5 -7 11 -8 20 -2 10 -4 16 -8 21
-14 18 -24 39 -24 52 0 9 -5 18 -12 25 -3 3 -7 8 -8 13 -1 4 -5 12 -8 17 -3 6
-8 17 -11 25 -3 8 -7 17 -9 20 -5 7 -12 21 -16 33 -2 6 -6 16 -8 22 -2 6 -6
14 -9 17 -2 4 -7 14 -11 22 -3 8 -11 26 -18 39 -7 13 -13 28 -14 32 -1 5 -5
14 -9 20 -4 7 -7 13 -7 14 0 1 -4 10 -9 19 -17 33 -47 104 -50 119 -11 52 -80
49 -91 -5 -2 -12 -21 -70 -43 -131 -15 -42 -61 -176 -73 -215 -5 -14 -13 -34
-18 -45 -7 -14 -10 -24 -11 -33 -4 -36 -22 -64 -30 -45 -7 17 -11 29 -13 39
-1 7 -3 12 -7 16 -4 5 -11 19 -15 37 -2 4 -5 11 -8 16 -4 4 -8 12 -9 18 -1 5
-3 12 -5 15 -1 2 -3 11 -3 18 -2 13 -2 16 -9 23 -10 10 -14 19 -16 32 -1 9 -4
13 -9 19 -4 5 -7 11 -9 18 -1 6 -5 16 -9 23 -9 16 -13 25 -20 43 -3 8 -9 23
-14 33 -5 10 -10 23 -12 29 -2 6 -7 18 -11 27 -13 27 -34 79 -38 93 -12 48
-88 42 -88 -7 0 -16 -12 -64 -21 -81 -1 -3 -3 -9 -4 -13 -2 -14 -9 -33 -17
-50 -5 -10 -8 -19 -8 -23 0 -5 -2 -13 -4 -19 -5 -15 -20 -63 -27 -86 -3 -10
-9 -25 -13 -34 -5 -9 -8 -19 -8 -23 0 -11 -11 -46 -17 -54 -4 -6 -6 -13 -8
-26 -3 -23 -9 -43 -16 -52 -4 -5 -6 -13 -8 -26 -5 -35 -12 -48 -22 -45 -7 2
-10 7 -25 44 -12 30 -21 50 -33 78 -5 13 -10 26 -10 33 -1 7 -4 13 -8 20 -17
24 -41 82 -43 102 -1 13 -2 15 -8 22 -13 13 -32 49 -38 73 -1 4 -5 12 -8 16
-7 11 -17 38 -19 54 -1 5 -4 10 -9 16 -10 11 -13 18 -15 31 -1 7 -3 13 -8 19
-4 4 -7 9 -7 10 0 1 -2 6 -4 10 -2 4 -6 13 -8 20 -9 26 -25 36 -50 31z m523
-135 c4 -4 15 -31 15 -36 0 -1 5 -13 11 -25 6 -13 13 -29 16 -36 2 -7 9 -22
14 -34 5 -12 17 -41 27 -66 10 -25 20 -49 22 -53 13 -30 18 -42 30 -70 7 -18
21 -48 29 -68 42 -92 43 -96 36 -98 -10 -3 -348 0 -353 3 -13 7 -15 19 -4 40
3 6 6 12 6 14 0 9 11 39 17 47 6 8 9 17 9 30 0 4 2 11 4 14 2 4 5 12 6 18 2
11 6 21 11 27 2 2 4 11 5 19 2 14 11 49 22 76 2 6 7 20 10 32 4 12 10 28 13
35 5 9 7 16 7 21 0 9 13 52 19 64 2 3 5 12 6 19 6 28 13 37 22 27z m-498 -2
c2 -3 7 -12 11 -20 12 -29 27 -63 36 -83 5 -12 11 -26 13 -32 2 -6 8 -20 14
-32 6 -12 12 -26 13 -31 1 -6 6 -16 10 -23 5 -8 10 -19 13 -26 2 -7 11 -26 19
-43 25 -51 35 -76 37 -85 1 -7 3 -13 9 -19 18 -22 38 -78 32 -87 -2 -4 5 -4
-209 -1 -188 2 -177 -1 -159 33 3 6 6 13 6 15 0 9 10 34 14 37 12 8 13 10 15
33 1 24 7 40 16 46 7 5 9 12 9 32 0 10 1 26 3 34 3 15 5 20 17 35 3 4 4 9 5
22 1 9 3 22 5 29 2 6 4 12 4 13 0 2 3 8 7 14 4 7 7 15 8 22 1 6 3 13 4 16 1 3
3 10 4 16 1 8 3 12 9 18 8 8 8 8 8 29 0 36 13 53 27 38z m968 -16 c3 -5 11
-22 18 -38 7 -17 20 -45 29 -63 21 -46 31 -73 34 -85 1 -7 5 -15 10 -22 5 -7
18 -32 29 -57 11 -25 24 -53 29 -62 5 -9 14 -29 20 -43 7 -15 15 -33 19 -40
13 -28 16 -49 5 -57 -4 -3 -366 -3 -370 0 -4 4 -2 11 6 32 4 11 8 22 8 23 0 1
4 11 9 20 5 10 9 20 9 23 0 7 24 72 31 84 2 5 5 12 6 16 0 3 4 10 8 15 6 8 7
11 8 24 1 11 5 26 11 45 26 77 32 94 36 101 2 4 4 12 5 16 1 6 4 12 10 19 10
11 10 12 12 31 2 26 9 33 18 18z"/>
</g>
</svg>
