<?xml version="1.0" standalone="no"?>
<!DOCTYPE svg PUBLIC "-//W3C//DTD SVG 20010904//EN"
 "http://www.w3.org/TR/2001/REC-SVG-20010904/DTD/svg10.dtd">
<svg version="1.0" xmlns="http://www.w3.org/2000/svg"
 width="68.000000pt" height="100.000000pt" viewBox="0 0 68.000000 100.000000"
 preserveAspectRatio="xMidYMid meet">
<metadata>
Created by potrace 1.16, written by Peter Selinger 2001-2019
</metadata>
<g transform="translate(0.000000,100.000000) scale(0.100000,-0.100000)"
fill="#000000" stroke="none">
<path d="M277 942 c-15 -10 -38 -34 -52 -52 -33 -44 -85 -172 -99 -240 -9 -43
-15 -55 -31 -58 -59 -9 -66 -13 -63 -35 3 -22 9 -23 58 -16 l25 4 -4 -253 -4
-252 37 0 36 0 0 260 0 259 33 5 c17 3 75 13 127 22 52 9 113 18 136 21 l40 5
19 -48 c35 -96 64 -144 85 -144 12 0 23 7 26 15 7 17 -161 436 -189 472 -41
51 -129 68 -180 35z m107 -53 c19 -9 36 -37 67 -111 44 -106 44 -117 -7 -118
-20 0 -144 -20 -221 -36 -44 -9 -43 2 7 123 25 63 51 108 70 126 33 30 47 32
84 16z"/>
</g>
</svg>
