<?xml version="1.0" standalone="no"?>
<!DOCTYPE svg PUBLIC "-//W3C//DTD SVG 20010904//EN"
 "http://www.w3.org/TR/2001/REC-SVG-20010904/DTD/svg10.dtd">
<svg version="1.0" xmlns="http://www.w3.org/2000/svg"
 width="400.000000pt" height="590.000000pt" viewBox="0 0 400.000000 590.000000"
 preserveAspectRatio="xMidYMid meet">
<metadata>
Created by potrace 1.16, written by Peter Selinger 2001-2019
</metadata>
<g transform="translate(0.000000,590.000000) scale(0.500000,-0.500000)"
fill="#000000" stroke="none">
<path d="M357 1133 c-17 -6 -34 -17 -45 -28 -5 -5 -14 -12 -19 -16 -9 -6 -13
-11 -23 -28 -7 -12 -16 -27 -21 -34 -4 -6 -8 -15 -10 -18 -1 -3 -5 -10 -9 -16
-10 -14 -24 -42 -24 -49 0 -9 -9 -34 -15 -43 -2 -4 -6 -11 -8 -17 -2 -5 -7
-17 -11 -26 -6 -11 -9 -22 -10 -30 -1 -8 -4 -18 -6 -22 -3 -6 -5 -15 -6 -27
-1 -10 -3 -27 -6 -37 -2 -11 -3 -21 -3 -23 4 -9 -11 -21 -25 -21 -5 0 -14 -2
-21 -5 -6 -3 -18 -5 -26 -6 -21 -2 -29 -11 -29 -34 0 -15 22 -19 46 -10 4 2
16 4 26 5 10 1 20 2 22 3 9 3 9 6 8 -133 0 -109 -1 -132 -3 -139 -3 -7 -3 -24
-4 -94 0 -75 -1 -87 -3 -93 -7 -13 -6 -113 0 -129 7 -16 10 -18 34 -16 10 1
24 1 31 2 19 0 17 -17 16 185 -1 97 -2 180 -3 184 -1 4 -1 10 0 15 2 5 2 10 0
20 -1 8 -2 20 -1 35 2 27 2 39 3 114 1 62 1 62 17 65 5 1 13 2 18 4 6 2 15 3
20 3 6 0 14 1 19 3 5 2 15 3 22 3 8 0 19 1 25 3 7 2 16 3 21 3 5 0 13 1 19 3
5 2 14 3 20 3 7 0 12 2 20 6 8 5 12 6 23 6 7 0 17 1 22 2 5 1 18 3 28 4 10 1
23 3 29 5 5 2 17 3 25 3 10 0 18 1 23 3 23 10 50 6 53 -8 9 -35 10 -35 37 -92
31 -64 37 -76 38 -83 4 -19 26 -40 43 -40 33 0 34 56 2 105 -4 7 -10 18 -12
25 -2 7 -7 19 -10 26 -12 28 -16 38 -22 54 -3 9 -7 21 -9 25 -3 4 -7 16 -10
25 -3 9 -8 21 -10 26 -3 5 -7 18 -11 28 -3 11 -7 22 -9 26 -2 3 -7 16 -11 29
-4 12 -12 34 -18 49 -6 15 -12 32 -14 37 -2 6 -5 13 -7 16 -1 3 -5 15 -9 25
-10 28 -24 55 -34 67 -5 5 -11 13 -14 17 -13 20 -30 32 -48 35 -5 1 -17 5 -26
10 -11 6 -19 9 -24 9 -4 0 -11 1 -16 3 -14 5 -50 4 -65 -2z m94 -75 c25 -10
43 -33 58 -77 8 -22 13 -34 20 -44 6 -9 9 -16 10 -22 3 -24 5 -32 14 -47 5 -8
12 -22 15 -31 3 -9 7 -20 9 -26 6 -14 4 -15 -21 -21 -6 -1 -17 -3 -24 -5 -7
-2 -17 -4 -23 -5 -24 -5 -33 -7 -51 -10 -10 -3 -23 -5 -27 -6 -4 -1 -18 -2
-31 -2 -16 0 -26 -1 -31 -3 -4 -2 -12 -3 -18 -3 -11 0 -19 -2 -52 -11 -6 -2
-14 -3 -19 -3 -4 0 -18 -2 -31 -5 -28 -6 -32 -5 -24 8 2 3 4 12 5 22 1 12 3
22 7 30 2 7 6 16 7 21 1 5 4 11 6 14 2 3 5 9 7 13 1 5 6 15 10 23 4 8 8 21 10
29 1 7 6 22 11 31 4 9 8 18 8 20 0 28 46 90 79 107 18 9 55 10 76 3z"/>
</g>
</svg>
