<?xml version="1.0" standalone="no"?>
<!DOCTYPE svg PUBLIC "-//W3C//DTD SVG 20010904//EN"
 "http://www.w3.org/TR/2001/REC-SVG-20010904/DTD/svg10.dtd">
<svg version="1.0" xmlns="http://www.w3.org/2000/svg"
 width="472.000000pt" height="572.000000pt" viewBox="0 0 472.000000 572.000000"
 preserveAspectRatio="xMidYMid meet">
<metadata>
Created by potrace 1.16, written by Peter Selinger 2001-2019
</metadata>
<g transform="translate(0.000000,572.000000) scale(0.500000,-0.500000)"
fill="#000000" stroke="none">
<path d="M140 1085 c-3 -2 -7 -5 -8 -8 -3 -7 -3 -153 0 -160 6 -15 54 -15 59
0 3 8 2 158 -1 163 -4 8 -36 11 -50 5z"/>
<path d="M250 1086 c-16 -3 -15 1 -16 -84 0 -98 -2 -95 34 -94 29 1 27 -6 27
90 0 81 0 81 -5 84 -6 5 -26 7 -40 4z"/>
<path d="M657 1087 c-12 -3 -12 -2 -12 -89 0 -96 -2 -89 27 -90 35 -1 33 -6
33 87 0 78 -1 86 -7 89 -5 3 -34 4 -41 3z"/>
<path d="M758 1085 c-4 -1 -8 -4 -9 -7 -4 -7 -4 -155 0 -162 6 -12 47 -14 56
-3 8 8 7 162 -1 169 -5 6 -34 8 -46 3z"/>
<path d="M459 1044 c-10 -4 -16 -16 -20 -41 -2 -9 -6 -21 -9 -27 -9 -16 -14
-31 -14 -42 0 -15 -3 -29 -11 -45 -5 -9 -8 -20 -9 -27 -3 -20 -10 -44 -16 -54
-4 -6 -6 -11 -6 -18 0 -5 -2 -17 -5 -27 -12 -40 -15 -53 -22 -75 -8 -25 -16
-55 -24 -84 -3 -10 -9 -32 -14 -47 -5 -16 -12 -39 -15 -51 -3 -13 -8 -30 -11
-39 -2 -9 -7 -25 -10 -36 -3 -11 -9 -32 -13 -46 -5 -14 -10 -34 -13 -43 -14
-49 -18 -61 -24 -79 -4 -11 -10 -31 -14 -44 -4 -13 -10 -32 -13 -41 -30 -84
-29 -112 7 -112 23 0 25 2 33 29 3 11 8 25 10 32 2 7 5 17 6 22 7 33 25 91 31
103 3 5 6 14 7 21 1 7 4 19 8 26 4 10 6 18 7 30 0 9 3 22 5 29 10 33 14 47 14
49 0 5 11 35 15 41 4 5 6 12 7 22 2 22 11 32 31 35 6 1 16 4 24 7 20 8 73 30
93 39 49 22 58 24 62 17 3 -5 12 -47 12 -54 0 -3 1 -9 3 -14 2 -5 3 -13 3 -18
0 -5 1 -13 3 -18 2 -5 3 -10 3 -13 0 -2 1 -7 3 -10 2 -3 5 -14 6 -23 2 -9 6
-25 9 -34 4 -13 6 -22 6 -32 0 -10 1 -15 5 -23 3 -5 5 -13 5 -17 0 -42 56 -50
62 -8 3 19 3 20 -6 44 -6 17 -17 63 -24 95 -2 10 -7 32 -12 49 -9 34 -43 170
-52 209 -3 14 -6 28 -6 31 0 3 -2 10 -4 16 -2 5 -8 23 -12 40 -4 17 -11 45
-16 63 -5 18 -10 39 -11 47 -2 8 -5 20 -6 26 -2 6 -5 19 -7 29 -22 97 -20 92
-43 92 -7 1 -16 0 -18 -1z m15 -153 c1 -1 3 -7 4 -13 1 -5 3 -12 5 -15 4 -6
15 -49 15 -59 0 -4 2 -13 5 -19 2 -7 7 -23 10 -36 3 -13 7 -31 9 -39 3 -8 5
-21 6 -29 1 -8 3 -18 6 -23 4 -9 5 -22 3 -29 -2 -4 -30 -18 -47 -23 -7 -3 -16
-6 -19 -8 -6 -4 -12 -6 -51 -23 -37 -15 -42 -17 -45 -16 -4 2 -4 8 -1 21 2 9
5 17 20 66 4 15 10 35 13 44 2 9 7 26 11 38 3 12 8 27 10 35 2 8 6 22 9 31 2
9 7 25 9 35 17 58 22 70 28 62z"/>
<path d="M61 478 c-7 -6 -8 -161 -1 -170 6 -8 47 -7 52 2 5 9 3 161 -2 166 -6
7 -40 8 -49 2z"/>
<path d="M164 476 c-6 -4 -5 2 -4 -99 0 -77 -2 -72 28 -72 29 0 34 32 28 159
0 16 -37 24 -52 12z"/>
<path d="M722 332 c-12 -5 -18 -161 -7 -173 7 -9 43 -9 52 -1 8 7 8 160 0 169
-5 7 -34 9 -45 5z"/>
<path d="M823 332 c-9 -3 -9 -7 -9 -90 0 -93 -2 -87 24 -89 38 -3 37 -5 36 87
0 41 0 77 0 80 0 12 -32 20 -51 12z"/>
</g>
</svg>
