<?xml version="1.0" standalone="no"?>
<!DOCTYPE svg PUBLIC "-//W3C//DTD SVG 20010904//EN"
 "http://www.w3.org/TR/2001/REC-SVG-20010904/DTD/svg10.dtd">
<svg version="1.0" xmlns="http://www.w3.org/2000/svg"
 width="400.000000pt" height="590.000000pt" viewBox="0 0 400.000000 590.000000"
 preserveAspectRatio="xMidYMid meet">
<metadata>
Created by potrace 1.16, written by Peter Selinger 2001-2019
</metadata>
<g transform="translate(0.000000,590.000000) scale(0.500000,-0.500000)"
fill="#000000" stroke="none">
<path d="M397 1139 c-25 -6 -30 -10 -32 -28 0 -7 -8 -34 -17 -61 -9 -27 -16
-50 -16 -51 0 -2 -9 -30 -20 -62 -11 -33 -20 -64 -21 -68 -1 -4 -3 -11 -5 -15
-2 -4 -6 -16 -9 -26 -5 -20 -8 -27 -16 -45 -3 -6 -5 -12 -5 -15 0 -3 -1 -10
-3 -16 -9 -31 -16 -52 -19 -61 -10 -25 -23 -66 -28 -84 -3 -11 -13 -41 -21
-67 -9 -26 -17 -50 -18 -54 -1 -4 -10 -34 -21 -67 -11 -33 -20 -61 -20 -63 0
-1 -6 -19 -13 -41 -7 -21 -16 -50 -21 -65 -5 -15 -11 -33 -13 -40 -3 -7 -5
-14 -5 -16 0 -10 -14 -42 -23 -52 -12 -14 -13 -15 -13 -44 0 -42 7 -52 35 -52
23 0 25 3 38 45 4 12 11 36 17 52 6 17 11 35 13 42 2 7 6 20 9 30 3 10 10 29
14 42 4 13 10 31 13 39 3 8 5 16 5 18 0 1 8 28 19 59 10 31 19 59 20 63 1 4 8
27 16 51 18 55 27 83 27 86 0 2 22 71 27 87 4 10 6 11 23 13 6 0 16 3 20 5 4
2 9 4 11 4 1 0 13 5 26 12 13 6 28 13 32 14 4 1 17 7 28 12 22 11 29 12 34 5
6 -9 13 -43 13 -65 0 -19 0 -22 5 -28 3 -4 5 -10 6 -14 2 -9 5 -24 8 -39 7
-32 9 -41 11 -55 1 -8 4 -22 6 -31 2 -9 4 -18 4 -19 0 -19 53 -10 59 10 2 9
-5 57 -12 79 -2 4 -4 17 -6 28 -3 19 -7 39 -11 56 -1 4 -4 16 -6 25 -2 9 -5
23 -7 29 -2 7 -3 15 -3 18 0 2 -1 8 -3 13 -4 11 -15 63 -15 70 0 3 -1 8 -3 13
-1 4 -4 17 -6 28 -2 11 -6 29 -8 40 -3 11 -6 25 -7 30 -1 6 -3 15 -4 20 -4 16
-6 28 -7 36 -1 4 -3 12 -4 17 -1 5 -4 16 -6 24 -1 8 -4 20 -5 26 -1 6 -2 13
-2 16 0 3 -1 9 -3 14 -2 5 -4 18 -6 29 -7 42 -8 43 -34 44 -10 0 -20 0 -22 0z
m13 -143 c2 -4 4 -9 4 -11 0 -3 3 -16 6 -29 3 -14 6 -27 6 -30 0 -2 3 -11 6
-19 3 -8 6 -19 7 -26 0 -7 2 -16 5 -21 2 -4 5 -13 6 -20 1 -7 3 -16 4 -19 7
-19 -5 -35 -37 -46 -6 -3 -18 -7 -25 -11 -7 -3 -14 -6 -16 -6 -2 0 -11 -4 -21
-9 -41 -22 -43 -18 -25 38 17 52 54 167 60 187 9 30 12 34 20 22z"/>
<path d="M682 480 c-29 -9 -41 -40 -24 -63 2 -4 5 -12 6 -18 1 -6 4 -14 6 -19
3 -6 4 -12 4 -21 0 -47 46 -65 80 -31 6 6 6 10 -10 61 -3 10 -8 27 -10 37 -4
19 -10 38 -14 46 -4 8 -24 12 -38 8z"/>
<path d="M540 427 c-17 -7 -9 -67 14 -114 2 -3 5 -12 7 -20 6 -24 15 -27 49
-15 26 8 30 14 19 33 -9 16 -14 31 -18 48 -2 7 -6 18 -9 25 -3 6 -6 14 -7 18
-4 21 -31 33 -55 25z"/>
<path d="M412 385 c-20 -10 -16 -47 11 -110 2 -4 4 -13 5 -20 4 -26 16 -32 44
-23 32 10 41 25 27 43 -3 4 -8 14 -11 23 -3 9 -7 21 -10 25 -2 5 -6 17 -9 28
-9 36 -29 47 -57 34z"/>
</g>
</svg>
