<?xml version="1.0" standalone="no"?>
<!DOCTYPE svg PUBLIC "-//W3C//DTD SVG 20010904//EN"
 "http://www.w3.org/TR/2001/REC-SVG-20010904/DTD/svg10.dtd">
<svg version="1.0" xmlns="http://www.w3.org/2000/svg"
 width="68.000000pt" height="100.000000pt" viewBox="0 0 68.000000 100.000000"
 preserveAspectRatio="xMidYMid meet">
<metadata>
Created by potrace 1.16, written by Peter Selinger 2001-2019
</metadata>
<g transform="translate(0.000000,100.000000) scale(0.100000,-0.100000)"
fill="#000000" stroke="none">
<path d="M327 958 c-9 -8 -50 -120 -96 -263 -44 -137 -107 -330 -140 -428 -34
-98 -61 -186 -61 -196 0 -10 7 -24 16 -31 12 -11 17 -11 29 1 7 8 48 124 91
259 42 135 82 250 88 256 21 20 127 57 137 47 5 -5 16 -51 25 -103 9 -52 20
-99 24 -103 4 -5 18 -6 30 -2 27 9 27 6 -30 270 -22 105 -45 212 -50 239 -13
62 -31 78 -63 54z m33 -157 c5 -21 13 -59 16 -84 6 -45 6 -45 -34 -66 -40 -20
-72 -27 -72 -15 0 21 63 204 70 204 5 0 14 -17 20 -39z"/>
<path d="M554 395 c-4 -8 2 -41 12 -73 16 -49 22 -57 44 -57 23 0 25 4 24 41
-1 62 -21 104 -51 104 -13 0 -26 -7 -29 -15z"/>
<path d="M450 335 c0 -40 30 -105 49 -105 33 0 40 19 23 63 -20 54 -30 67 -53
67 -14 0 -19 -7 -19 -25z"/>
<path d="M334 316 c-3 -8 3 -39 13 -68 13 -38 24 -54 39 -56 36 -5 46 19 27
69 -9 24 -21 50 -26 57 -13 16 -46 15 -53 -2z"/>
</g>
</svg>
