<?xml version="1.0" standalone="no"?>
<!DOCTYPE svg PUBLIC "-//W3C//DTD SVG 20010904//EN"
 "http://www.w3.org/TR/2001/REC-SVG-20010904/DTD/svg10.dtd">
<svg version="1.0" xmlns="http://www.w3.org/2000/svg"
 width="100.000000pt" height="148.000000pt" viewBox="0 0 100.000000 148.000000"
 preserveAspectRatio="xMidYMid meet">
<metadata>
Created by potrace 1.16, written by Peter Selinger 2001-2019
</metadata>
<g transform="translate(0.000000,148.000000) scale(0.100000,-0.100000)"
fill="#000000" stroke="none">
<path d="M462 1408 c-7 -7 -12 -21 -12 -32 0 -11 -32 -119 -71 -241 -39 -121
-94 -290 -121 -375 -27 -85 -58 -180 -68 -210 -10 -30 -39 -122 -65 -205 -26
-82 -54 -157 -62 -166 -9 -11 -13 -34 -11 -70 3 -53 4 -54 33 -54 29 0 30 1
76 145 25 80 48 152 51 160 3 8 20 62 38 120 18 58 40 130 50 160 10 30 28 88
40 128 16 56 25 72 39 72 11 0 57 18 104 39 98 45 108 42 112 -32 1 -23 5 -49
8 -57 10 -29 27 -109 27 -130 0 -11 7 -36 15 -56 l14 -35 31 16 c16 8 30 19
30 24 0 5 -12 60 -26 122 -34 151 -101 472 -121 579 -8 47 -17 91 -19 98 -4
16 -76 16 -92 0z m64 -210 c7 -35 20 -91 28 -125 9 -34 13 -68 11 -76 -3 -7
-42 -29 -86 -49 -96 -44 -101 -39 -66 59 14 37 35 104 47 148 24 87 38 120 47
111 4 -3 12 -34 19 -68z"/>
<path d="M825 580 c-18 -19 -18 -22 -1 -78 10 -31 21 -68 25 -82 8 -30 46 -38
75 -17 19 14 19 16 -6 103 -22 79 -28 89 -49 92 -15 2 -32 -5 -44 -18z"/>
<path d="M660 507 c0 -26 38 -146 52 -164 7 -8 17 -9 39 -1 38 13 44 24 27 51
-8 12 -20 42 -27 67 -17 58 -27 70 -62 70 -24 0 -29 -4 -29 -23z"/>
<path d="M502 468 c-13 -13 -16 -41 -5 -52 10 -9 33 -78 33 -98 0 -35 61 -43
86 -12 8 11 5 26 -12 61 -13 27 -24 57 -24 69 0 26 -18 44 -45 44 -12 0 -26
-5 -33 -12z"/>
</g>
</svg>
