<?xml version="1.0" standalone="no"?>
<!DOCTYPE svg PUBLIC "-//W3C//DTD SVG 20010904//EN"
 "http://www.w3.org/TR/2001/REC-SVG-20010904/DTD/svg10.dtd">
<svg version="1.0" xmlns="http://www.w3.org/2000/svg"
 width="69.000000pt" height="100.000000pt" viewBox="0 0 69.000000 100.000000"
 preserveAspectRatio="xMidYMid meet">
<metadata>
Created by potrace 1.16, written by Peter Selinger 2001-2019
</metadata>
<g transform="translate(0.000000,100.000000) scale(0.100000,-0.100000)"
fill="#000000" stroke="none">
<path d="M272 938 c-5 -7 -42 -128 -81 -268 -38 -140 -91 -325 -116 -410 -24
-85 -45 -170 -45 -188 0 -29 3 -33 22 -30 26 4 33 20 83 208 20 74 39 142 44
150 4 8 48 31 97 51 96 40 114 38 114 -11 0 -15 9 -38 19 -51 19 -23 21 -23
37 -7 17 16 16 22 -9 105 -15 48 -41 142 -58 208 -18 66 -38 145 -46 175 -15
55 -29 80 -43 80 -4 0 -12 -6 -18 -12z m57 -268 c19 -76 26 -119 20 -127 -14
-16 -138 -67 -145 -60 -4 3 5 48 19 99 15 51 31 116 38 143 23 104 28 100 68
-55z"/>
<path d="M563 404 c-12 -32 53 -144 76 -130 29 18 -14 146 -50 146 -11 0 -22
-7 -26 -16z"/>
<path d="M485 361 c-3 -5 3 -34 12 -63 14 -41 23 -54 41 -56 28 -4 29 20 2 82
-18 43 -41 58 -55 37z"/>
<path d="M393 314 c-6 -16 32 -99 50 -111 5 -3 16 2 24 10 14 14 13 20 -8 64
-25 50 -54 67 -66 37z"/>
<path d="M313 293 c-18 -7 -16 -26 9 -78 14 -29 28 -45 40 -45 30 0 33 30 7
79 -24 46 -34 53 -56 44z"/>
</g>
</svg>
