<?xml version="1.0" standalone="no"?>
<!DOCTYPE svg PUBLIC "-//W3C//DTD SVG 20010904//EN"
 "http://www.w3.org/TR/2001/REC-SVG-20010904/DTD/svg10.dtd">
<svg version="1.0" xmlns="http://www.w3.org/2000/svg"
 width="404.000000pt" height="590.000000pt" viewBox="0 0 404.000000 590.000000"
 preserveAspectRatio="xMidYMid meet">
<metadata>
Created by potrace 1.16, written by Peter Selinger 2001-2019
</metadata>
<g transform="translate(0.000000,590.000000) scale(0.500000,-0.500000)"
fill="#000000" stroke="none">
<path d="M322 1112 c-10 -6 -10 -6 -20 -48 -5 -24 -11 -45 -16 -61 -2 -7 -7
-23 -10 -36 -9 -37 -16 -61 -21 -77 -3 -8 -6 -20 -7 -27 -1 -7 -5 -18 -7 -26
-3 -8 -7 -22 -9 -32 -2 -10 -6 -23 -8 -28 -2 -6 -5 -17 -7 -25 -2 -8 -5 -17
-6 -21 -1 -3 -5 -14 -7 -24 -4 -16 -8 -31 -18 -66 -2 -7 -4 -15 -5 -19 -1 -4
-3 -11 -4 -16 -2 -5 -5 -18 -8 -30 -3 -12 -7 -24 -8 -28 -2 -4 -6 -18 -9 -31
-7 -25 -12 -45 -22 -77 -3 -10 -7 -24 -8 -30 -1 -6 -5 -18 -7 -26 -3 -8 -7
-23 -9 -32 -2 -10 -5 -21 -7 -25 -2 -5 -5 -16 -8 -26 -2 -10 -7 -26 -10 -36
-9 -32 -15 -56 -19 -70 -2 -8 -6 -19 -9 -26 -3 -6 -6 -17 -6 -23 -1 -6 -3 -17
-6 -24 -13 -41 -5 -68 20 -68 25 0 29 4 39 39 2 9 6 19 8 23 2 5 4 11 4 15 0
7 5 28 13 57 3 9 7 24 9 33 10 36 12 44 16 53 5 11 12 39 12 46 0 3 2 8 4 12
2 5 4 12 5 16 1 5 4 15 6 23 3 8 5 17 5 20 0 2 2 9 5 15 5 13 9 27 11 47 3 30
16 45 39 48 8 0 17 3 25 7 6 3 17 8 24 11 7 2 25 10 39 18 15 7 28 13 29 13 1
0 8 3 16 7 7 3 16 7 20 8 4 1 12 4 17 7 32 18 53 -3 53 -56 0 -10 1 -15 7 -26
4 -7 9 -20 12 -28 11 -29 45 -31 53 -2 4 14 2 53 -3 62 -5 8 -10 23 -18 50 -3
10 -7 24 -9 31 -2 7 -7 25 -11 40 -4 15 -9 34 -11 42 -2 8 -5 19 -7 26 -1 7
-6 24 -11 39 -4 15 -10 34 -12 43 -7 28 -13 50 -17 65 -1 2 -2 13 -3 25 -2 24
-6 38 -16 56 -5 9 -7 14 -8 28 -1 9 -3 21 -6 26 -7 18 -12 36 -15 53 -9 54
-36 82 -63 66z m24 -165 c1 -2 4 -13 7 -24 3 -11 7 -26 9 -33 11 -41 16 -61
16 -73 0 -8 1 -12 6 -19 3 -5 7 -13 8 -18 1 -5 4 -14 5 -21 4 -14 11 -39 19
-65 7 -22 8 -44 3 -52 -3 -4 -29 -18 -34 -18 -2 0 -17 -7 -35 -16 -18 -9 -33
-16 -34 -16 -2 0 -24 -10 -55 -25 -23 -11 -28 -8 -23 16 1 8 3 21 4 30 1 9 4
21 6 27 2 6 4 16 5 22 1 6 3 14 5 18 2 5 4 9 4 11 0 2 3 9 6 17 3 7 7 22 9 32
2 10 5 22 6 27 2 4 3 9 3 11 0 2 4 14 8 28 4 13 8 26 8 29 0 5 8 30 17 52 1 4
3 12 3 16 0 8 8 35 12 43 3 5 9 5 12 1z"/>
<path d="M686 486 c-28 -10 -33 -19 -22 -41 8 -17 14 -30 20 -48 9 -27 14 -37
18 -42 2 -2 5 -8 8 -12 17 -34 66 -12 53 23 -3 8 -7 20 -9 27 -2 7 -7 17 -10
24 -4 7 -9 16 -10 20 -15 47 -25 57 -48 49z"/>
<path d="M586 430 c-22 -11 -24 -14 -17 -32 2 -7 6 -18 7 -24 1 -5 3 -13 5
-16 1 -3 3 -8 4 -12 1 -4 4 -12 6 -17 3 -5 5 -12 5 -14 0 -5 9 -22 15 -28 5
-7 13 -6 31 2 25 12 27 18 16 39 -6 12 -18 39 -27 64 -10 27 -17 40 -23 43 -7
4 -4 4 -22 -5z"/>
<path d="M477 386 c-28 -13 -27 -18 13 -96 4 -8 9 -20 11 -26 6 -21 16 -25 41
-15 25 9 31 23 19 39 -3 4 -7 11 -9 15 -3 4 -8 13 -11 19 -4 6 -7 13 -7 14 0
5 -24 52 -28 54 -6 3 -14 2 -29 -4z"/>
<path d="M384 344 c-27 -10 -31 -17 -21 -38 3 -6 8 -16 10 -23 3 -7 7 -18 11
-25 3 -7 8 -21 12 -31 10 -27 16 -30 38 -23 31 11 32 19 9 68 -8 18 -18 40
-20 48 -11 33 -12 33 -39 24z"/>
</g>
</svg>
