<?xml version="1.0" standalone="no"?>
<!DOCTYPE svg PUBLIC "-//W3C//DTD SVG 20010904//EN"
 "http://www.w3.org/TR/2001/REC-SVG-20010904/DTD/svg10.dtd">
<svg version="1.0" xmlns="http://www.w3.org/2000/svg"
 width="378.000000pt" height="590.000000pt" viewBox="0 0 378.000000 590.000000"
 preserveAspectRatio="xMidYMid meet">
<metadata>
Created by potrace 1.16, written by Peter Selinger 2001-2019
</metadata>
<g transform="translate(0.000000,590.000000) scale(0.500000,-0.500000)"
fill="#000000" stroke="none">
<path d="M370 1135 c-12 -6 -25 -22 -27 -33 -1 -5 -6 -19 -12 -32 -6 -13 -12
-30 -14 -37 -2 -8 -6 -21 -9 -28 -3 -8 -7 -19 -8 -25 -7 -27 -29 -89 -40 -111
-2 -4 -4 -12 -4 -16 0 -5 -1 -12 -3 -16 -4 -11 -9 -35 -9 -43 0 -12 -7 -33
-18 -56 -9 -20 -11 -24 -12 -40 -1 -16 -8 -42 -15 -58 -2 -3 -3 -8 -3 -10 0
-2 -5 -18 -10 -35 -6 -16 -12 -35 -13 -42 -2 -7 -6 -22 -11 -34 -4 -12 -8 -27
-10 -33 -1 -6 -5 -20 -9 -32 -4 -12 -9 -29 -12 -38 -3 -9 -10 -34 -17 -55 -7
-21 -12 -40 -12 -41 0 -2 -3 -13 -7 -24 -4 -12 -9 -28 -11 -37 -2 -9 -7 -24
-11 -34 -3 -10 -8 -23 -9 -29 -1 -6 -7 -26 -14 -45 -13 -41 -16 -81 -6 -92 14
-15 52 -11 55 5 1 4 4 11 7 16 4 7 5 13 6 26 3 34 13 73 25 95 1 3 3 11 4 16
2 13 6 28 11 36 7 11 12 29 12 40 0 6 2 14 5 20 2 6 5 13 6 17 1 4 3 10 6 14
3 5 4 12 5 21 1 12 3 17 8 24 5 8 6 13 8 28 2 16 12 51 23 75 2 5 3 10 3 13 0
6 8 32 13 40 1 3 6 19 10 35 4 16 10 37 13 46 3 9 6 18 6 20 0 2 5 19 11 37 6
18 11 35 11 37 0 3 4 15 8 29 5 13 11 33 14 45 7 27 19 66 22 71 1 2 2 8 3 12
1 4 5 20 9 34 5 14 10 33 13 42 10 32 17 32 19 -2 1 -18 2 -22 7 -28 2 -5 5
-12 6 -17 1 -5 4 -15 6 -23 3 -9 5 -21 6 -35 0 -20 1 -22 9 -37 7 -13 8 -17 8
-28 0 -7 1 -14 3 -18 12 -21 13 -25 13 -39 0 -8 1 -19 2 -23 2 -10 6 -29 8
-48 2 -17 6 -32 13 -47 3 -5 5 -14 5 -18 0 -4 2 -12 5 -17 6 -10 8 -19 11 -47
4 -31 5 -32 36 -32 37 0 41 9 27 62 -4 15 -8 32 -9 37 -2 6 -6 23 -9 38 -4 15
-8 33 -9 38 -4 16 -12 51 -16 67 -4 15 -15 61 -24 102 -4 16 -6 25 -8 37 -2
11 -5 23 -11 43 -1 5 -4 15 -5 23 -1 8 -5 25 -8 38 -9 32 -12 49 -12 55 0 3
-1 9 -3 14 -1 5 -4 14 -5 19 -1 6 -5 16 -8 23 -3 7 -6 17 -7 23 -2 11 -10 22
-21 25 -10 3 -10 3 -20 -3z"/>
<path d="M302 432 c-12 -5 -19 -164 -7 -175 6 -7 42 -6 48 2 7 8 5 161 -2 169
-5 5 -28 8 -39 4z"/>
<path d="M425 432 c-10 -3 -10 -4 -12 -88 -1 -97 -2 -93 32 -92 27 2 25 -5 25
88 0 80 -1 86 -8 90 -6 3 -30 4 -37 2z"/>
<path d="M547 431 c-12 -5 -18 -162 -7 -173 8 -8 43 -9 50 0 7 8 5 164 -2 170
-5 6 -31 8 -41 3z"/>
<path d="M665 429 c-5 -5 -7 -76 -6 -157 1 -19 37 -30 52 -15 8 8 8 164 0 172
-7 8 -39 8 -46 0z"/>
</g>
</svg>
