<?xml version="1.0" standalone="no"?>
<!DOCTYPE svg PUBLIC "-//W3C//DTD SVG 20010904//EN"
 "http://www.w3.org/TR/2001/REC-SVG-20010904/DTD/svg10.dtd">
<svg version="1.0" xmlns="http://www.w3.org/2000/svg"
 width="94.000000pt" height="148.000000pt" viewBox="0 0 94.000000 148.000000"
 preserveAspectRatio="xMidYMid meet">
<metadata>
Created by potrace 1.16, written by Peter Selinger 2001-2019
</metadata>
<g transform="translate(0.000000,148.000000) scale(0.100000,-0.100000)"
fill="#000000" stroke="none">
<path d="M443 1408 c-19 -25 -116 -307 -146 -423 -13 -50 -47 -174 -87 -310
-11 -39 -35 -119 -101 -330 -35 -113 -53 -188 -53 -225 -1 -55 -1 -55 29 -55
28 0 31 3 43 55 12 55 42 160 61 215 6 17 20 64 31 105 34 121 62 214 70 235
5 11 34 110 65 220 32 110 66 231 77 268 22 79 39 83 51 11 16 -99 26 -150 37
-189 6 -22 18 -71 26 -110 14 -72 57 -247 61 -254 1 -2 16 -5 33 -7 39 -5 47
13 32 75 -7 25 -27 114 -47 196 -131 567 -122 535 -151 535 -12 0 -26 -6 -31
-12z"/>
<path d="M358 438 c-2 -57 -1 -109 1 -116 2 -8 16 -12 35 -10 l31 3 -2 105
c-1 58 -2 108 -3 113 0 4 -13 7 -29 7 l-30 0 -3 -102z"/>
<path d="M515 527 c-3 -7 -4 -58 -3 -113 l3 -99 30 0 30 0 0 110 0 110 -28 3
c-16 2 -29 -2 -32 -11z"/>
<path d="M668 438 c-4 -123 -3 -128 28 -128 34 0 39 18 36 129 l-3 101 -29 0
-29 0 -3 -102z"/>
<path d="M822 428 l3 -113 28 -3 27 -3 0 115 0 116 -30 0 -31 0 3 -112z"/>
</g>
</svg>
