<?xml version="1.0" standalone="no"?>
<!DOCTYPE svg PUBLIC "-//W3C//DTD SVG 20010904//EN"
 "http://www.w3.org/TR/2001/REC-SVG-20010904/DTD/svg10.dtd">
<svg version="1.0" xmlns="http://www.w3.org/2000/svg"
 width="72.000000pt" height="100.000000pt" viewBox="0 0 72.000000 100.000000"
 preserveAspectRatio="xMidYMid meet">
<metadata>
Created by potrace 1.16, written by Peter Selinger 2001-2019
</metadata>
<g transform="translate(0.000000,100.000000) scale(0.100000,-0.100000)"
fill="#000000" stroke="none">
<path d="M272 948 c-5 -7 -13 -24 -17 -38 -4 -14 -56 -179 -117 -368 -60 -189
-108 -353 -106 -365 2 -14 11 -23 25 -25 19 -3 24 4 38 55 26 98 30 101 159
160 66 30 126 52 135 51 12 -2 25 -48 52 -182 21 -98 42 -183 48 -189 9 -9 29
-6 79 12 81 28 112 47 112 66 0 20 -43 19 -98 -2 -31 -11 -46 -13 -54 -5 -18
18 -1 39 39 46 66 12 103 27 103 42 0 26 -29 27 -85 4 -58 -24 -89 -21 -83 7
2 11 22 21 58 31 30 7 61 18 67 24 35 29 -8 44 -67 23 -57 -20 -82 -20 -78 2
2 11 23 23 58 33 43 12 56 21 58 38 4 27 -20 29 -78 6 -24 -10 -45 -13 -50 -8
-4 5 -20 68 -35 139 -41 201 -96 429 -107 443 -13 16 -43 16 -56 0z m53 -199
c4 -28 18 -94 31 -147 29 -116 29 -121 7 -129 -10 -3 -60 -24 -111 -46 -51
-22 -95 -37 -98 -35 -2 3 11 48 30 100 19 52 46 140 60 194 15 54 31 110 37
124 10 23 12 24 24 7 7 -10 16 -41 20 -68z"/>
</g>
</svg>
