<?xml version="1.0" standalone="no"?>
<!DOCTYPE svg PUBLIC "-//W3C//DTD SVG 20010904//EN"
 "http://www.w3.org/TR/2001/REC-SVG-20010904/DTD/svg10.dtd">
<svg version="1.0" xmlns="http://www.w3.org/2000/svg"
 width="106.000000pt" height="148.000000pt" viewBox="0 0 106.000000 148.000000"
 preserveAspectRatio="xMidYMid meet">
<metadata>
Created by potrace 1.16, written by Peter Selinger 2001-2019
</metadata>
<g transform="translate(0.000000,148.000000) scale(0.100000,-0.100000)"
fill="#000000" stroke="none">
<path d="M407 1402 c-10 -10 -17 -22 -17 -27 0 -5 -36 -119 -79 -254 -44 -135
-98 -307 -121 -381 -23 -74 -64 -203 -91 -286 -27 -84 -49 -168 -49 -188 0
-36 1 -37 32 -34 33 3 33 4 63 109 33 117 46 139 81 139 12 0 25 4 28 9 4 5
39 23 80 40 41 17 108 47 150 66 82 38 101 42 108 22 3 -6 31 -135 64 -285 48
-223 62 -273 77 -278 10 -3 26 1 35 8 9 8 64 32 121 54 106 40 122 53 101 79
-14 16 -78 11 -115 -9 -37 -19 -87 -35 -100 -30 -14 6 -30 53 -21 61 3 3 54
18 113 33 92 23 108 31 111 49 5 31 -40 46 -73 25 -14 -9 -39 -20 -57 -24 -18
-5 -48 -14 -65 -21 -37 -15 -49 -8 -55 30 -4 28 0 30 115 66 78 24 88 29 85
48 -4 32 -32 32 -126 1 -89 -29 -102 -27 -102 21 0 17 15 25 88 46 73 22 88
30 90 49 6 40 -11 42 -92 10 -42 -16 -83 -30 -90 -30 -9 0 -18 21 -25 57 -6
32 -27 130 -47 218 -32 144 -60 267 -85 380 -36 162 -49 209 -65 226 -22 24
-46 24 -67 1z m55 -202 c4 -19 17 -87 28 -150 11 -63 25 -124 29 -135 10 -22
51 -190 51 -205 0 -6 -7 -10 -15 -10 -19 0 -109 -37 -234 -96 -95 -45 -111
-50 -111 -36 0 4 18 57 39 117 48 134 82 242 127 400 19 66 37 128 40 138 9
29 37 15 46 -23z"/>
</g>
</svg>
