<?xml version="1.0" standalone="no"?>
<!DOCTYPE svg PUBLIC "-//W3C//DTD SVG 20010904//EN"
 "http://www.w3.org/TR/2001/REC-SVG-20010904/DTD/svg10.dtd">
<svg version="1.0" xmlns="http://www.w3.org/2000/svg"
 width="422.000000pt" height="590.000000pt" viewBox="0 0 422.000000 590.000000"
 preserveAspectRatio="xMidYMid meet">
<metadata>
Created by potrace 1.16, written by Peter Selinger 2001-2019
</metadata>
<g transform="translate(0.000000,590.000000) scale(0.500000,-0.500000)"
fill="#000000" stroke="none">
<path d="M337 1131 c-15 -8 -21 -14 -24 -27 -2 -6 -7 -22 -11 -35 -4 -14 -9
-29 -10 -35 -1 -6 -7 -25 -13 -43 -6 -18 -14 -41 -17 -52 -4 -11 -12 -36 -18
-56 -7 -20 -15 -45 -18 -56 -3 -11 -12 -37 -19 -58 -7 -21 -13 -40 -13 -42 0
-1 -7 -23 -15 -47 -8 -25 -15 -48 -16 -52 -1 -4 -7 -25 -14 -46 -8 -21 -16
-49 -19 -61 -6 -23 -16 -55 -44 -138 -9 -26 -18 -54 -20 -62 -2 -8 -9 -30 -16
-49 -14 -41 -17 -76 -7 -86 11 -10 43 -7 49 6 12 24 18 39 18 45 0 5 4 18 8
31 4 13 8 25 8 28 0 2 3 13 6 23 3 10 7 23 9 30 5 17 20 32 34 34 17 2 30 7
39 14 10 7 22 14 30 16 3 1 10 4 17 7 7 3 20 9 29 13 33 13 43 17 54 23 7 3
18 8 25 11 8 3 18 7 22 10 4 2 12 6 16 7 4 1 14 6 22 10 28 14 41 14 44 0 1
-3 3 -12 5 -21 3 -9 6 -23 7 -31 2 -8 4 -20 6 -26 2 -6 4 -17 5 -24 1 -7 4
-20 6 -29 3 -9 6 -23 7 -31 2 -8 4 -19 6 -25 1 -5 4 -15 5 -21 1 -6 3 -19 6
-29 2 -10 5 -25 7 -33 2 -8 5 -19 6 -25 2 -5 4 -16 5 -23 1 -7 4 -21 6 -30 8
-36 10 -44 13 -60 6 -34 9 -38 32 -38 17 0 23 2 27 9 3 5 6 7 22 11 5 1 15 5
22 8 7 3 22 9 33 13 10 4 24 9 31 12 6 3 15 7 19 8 75 25 57 76 -19 56 -6 -1
-14 -3 -18 -4 -5 -1 -10 -4 -14 -8 -9 -10 -16 -12 -34 -14 -10 -1 -18 -3 -23
-6 -15 -9 -24 -3 -31 17 -8 24 -6 27 12 31 6 2 16 4 23 6 45 12 81 22 98 26
33 8 41 14 41 32 0 10 -6 19 -13 19 -2 0 -8 2 -15 5 -16 7 -19 6 -30 -4 -11
-10 -28 -17 -57 -23 -11 -2 -22 -6 -25 -8 -5 -4 -35 -12 -44 -12 -6 0 -8 4
-14 32 -4 17 3 22 43 28 7 1 15 4 18 5 3 2 14 6 24 9 70 22 81 30 72 53 -5 13
-33 18 -58 9 -3 -1 -9 -2 -13 -3 -5 -1 -10 -3 -14 -6 -3 -3 -12 -7 -22 -9 -9
-2 -21 -5 -25 -7 -35 -12 -45 -7 -46 22 0 16 2 18 37 28 10 3 26 8 34 11 8 3
24 8 35 12 24 7 30 11 33 22 8 29 -11 39 -46 26 -10 -3 -23 -8 -30 -11 -7 -2
-18 -7 -23 -10 -27 -13 -51 -17 -55 -9 -5 14 -9 31 -10 44 0 8 -2 17 -3 20 -4
9 -9 26 -19 79 -2 12 -5 26 -7 31 -1 5 -4 15 -5 23 -1 8 -5 23 -7 35 -3 12 -7
28 -8 37 -2 9 -4 19 -5 22 -1 3 -3 12 -5 20 -1 8 -5 22 -7 32 -2 10 -6 25 -7
33 -2 8 -5 19 -6 23 -1 4 -3 12 -4 17 -1 5 -3 16 -5 25 -3 9 -5 20 -6 25 -1 5
-3 17 -6 26 -2 9 -5 22 -6 27 -1 6 -4 20 -7 32 -3 12 -7 32 -10 44 -14 66 -16
72 -24 88 -13 26 -34 35 -56 24z m20 -147 c1 -2 4 -9 6 -17 4 -17 5 -21 11
-34 2 -5 5 -17 6 -25 1 -8 4 -20 5 -26 2 -6 3 -14 3 -18 0 -3 2 -15 5 -27 3
-11 5 -25 5 -29 0 -4 1 -12 3 -16 3 -9 8 -32 10 -44 1 -5 3 -13 6 -18 3 -6 5
-15 5 -20 0 -4 2 -13 5 -20 3 -7 5 -16 5 -21 0 -5 2 -14 4 -21 2 -7 4 -14 4
-15 0 -2 2 -8 5 -15 8 -20 8 -50 -1 -52 -10 -3 -42 -15 -57 -22 -18 -8 -53
-23 -59 -25 -3 -1 -15 -6 -26 -12 -12 -6 -23 -11 -25 -11 -1 0 -9 -4 -18 -8
-8 -4 -18 -9 -22 -10 -5 -1 -13 -5 -20 -9 -39 -19 -49 -7 -29 34 4 8 26 76 31
95 2 6 6 15 9 21 3 6 7 15 8 22 1 7 4 17 6 24 2 6 4 13 4 15 0 2 2 6 5 10 2 4
5 12 6 18 2 15 8 35 15 49 4 7 7 17 8 22 2 15 10 42 18 66 4 12 8 26 9 30 1 8
11 38 25 81 11 30 17 37 25 28z"/>
</g>
</svg>
