<?xml version="1.0" standalone="no"?>
<!DOCTYPE svg PUBLIC "-//W3C//DTD SVG 20010904//EN"
 "http://www.w3.org/TR/2001/REC-SVG-20010904/DTD/svg10.dtd">
<svg version="1.0" xmlns="http://www.w3.org/2000/svg"
 width="430.000000pt" height="590.000000pt" viewBox="0 0 430.000000 590.000000"
 preserveAspectRatio="xMidYMid meet">
<metadata>
Created by potrace 1.16, written by Peter Selinger 2001-2019
</metadata>
<g transform="translate(0.000000,590.000000) scale(0.500000,-0.500000)"
fill="#000000" stroke="none">
<path d="M379 1137 c-7 -3 -27 -30 -30 -41 -2 -5 -5 -11 -7 -15 -2 -4 -6 -13
-8 -20 -2 -7 -6 -17 -8 -22 -6 -14 -12 -33 -12 -40 0 -8 -8 -30 -16 -46 -3 -7
-6 -17 -7 -23 -1 -6 -2 -13 -3 -16 -2 -3 -3 -10 -4 -17 -1 -7 -5 -20 -9 -30
-9 -23 -17 -46 -23 -65 -5 -18 -14 -49 -21 -70 -2 -8 -6 -21 -9 -29 -2 -8 -5
-18 -7 -23 -2 -4 -6 -18 -9 -30 -3 -11 -9 -30 -13 -42 -4 -11 -7 -22 -7 -24 0
-2 -3 -12 -7 -22 -3 -11 -7 -24 -9 -30 -1 -6 -5 -19 -8 -28 -11 -33 -18 -55
-19 -62 -1 -4 -6 -22 -12 -39 -6 -18 -11 -34 -11 -36 0 -2 -4 -16 -9 -30 -5
-14 -9 -28 -9 -30 0 -2 -4 -14 -8 -27 -5 -13 -10 -31 -13 -41 -3 -10 -7 -26
-11 -35 -3 -9 -6 -20 -7 -24 -1 -4 -7 -23 -13 -42 -21 -64 -18 -90 11 -92 27
-1 29 0 40 32 4 12 9 23 10 25 5 8 13 34 13 43 0 5 2 16 5 25 3 9 5 20 5 25 0
6 2 14 7 24 4 8 9 22 10 30 3 14 11 40 24 73 11 28 23 64 23 67 0 2 2 7 5 12
6 11 11 30 13 48 3 23 6 33 13 43 5 7 8 15 10 24 1 7 5 16 7 21 6 12 10 26 10
35 0 4 1 11 2 15 1 4 4 13 5 21 2 8 5 22 8 31 3 9 7 22 8 28 18 76 25 83 74
69 26 -7 49 -13 56 -14 37 -6 47 -12 55 -32 2 -7 6 -14 7 -17 5 -8 11 -26 11
-36 0 -5 2 -13 3 -17 2 -4 4 -14 4 -21 2 -15 9 -41 16 -57 3 -6 6 -16 7 -23 4
-26 21 -36 49 -28 14 4 13 29 -5 85 -1 4 -6 21 -10 37 -4 17 -11 45 -16 61 -4
17 -8 34 -10 39 -1 5 -4 15 -6 23 -2 8 -6 22 -8 32 -2 11 -6 25 -9 32 -2 8 -6
21 -8 29 -2 8 -5 20 -6 25 -7 26 -9 36 -15 59 -3 14 -6 29 -6 33 0 5 -2 12 -4
17 -5 9 -16 51 -22 80 -5 22 -8 35 -11 45 -2 4 -3 12 -4 16 -5 28 -22 41 -42
32z m16 -136 c7 -3 8 -8 13 -61 1 -9 2 -20 4 -23 1 -3 2 -10 2 -15 0 -5 1 -12
2 -15 1 -3 3 -12 5 -20 2 -8 4 -18 6 -21 2 -3 4 -11 4 -17 1 -5 2 -11 3 -13
16 -32 10 -61 -12 -55 -21 6 -54 13 -59 13 -4 0 -11 2 -18 4 -6 2 -13 4 -15 4
-14 0 -13 21 4 68 3 8 6 20 8 26 1 6 7 25 12 41 6 17 11 37 12 45 3 24 17 43
29 39z"/>
<path d="M408 434 c-8 -2 -12 -7 -12 -14 0 -3 0 -38 -1 -79 -1 -78 0 -81 8
-85 12 -5 43 -1 47 6 3 5 3 154 0 162 -4 10 -24 15 -42 10z"/>
<path d="M535 434 c-17 -2 -21 -37 -18 -161 1 -15 5 -18 28 -19 32 -1 30 -6
29 90 -1 98 1 94 -39 90z"/>
<path d="M651 434 c-11 -4 -11 -5 -11 -89 0 -97 -2 -91 31 -91 29 0 27 -6 27
89 0 83 0 87 -9 91 -6 2 -32 3 -38 0z"/>
<path d="M769 431 c-3 -3 -5 -7 -5 -9 -1 -116 0 -158 4 -163 7 -7 40 -7 47 0
8 8 8 164 0 172 -7 8 -39 8 -46 0z"/>
<path d="M279 429 c-5 -5 -10 -155 -5 -166 6 -12 46 -13 52 -1 3 7 3 157 -1
164 -5 10 -37 12 -46 3z"/>
</g>
</svg>
