<?xml version="1.0" standalone="no"?>
<!DOCTYPE svg PUBLIC "-//W3C//DTD SVG 20010904//EN"
 "http://www.w3.org/TR/2001/REC-SVG-20010904/DTD/svg10.dtd">
<svg version="1.0" xmlns="http://www.w3.org/2000/svg"
 width="108.000000pt" height="148.000000pt" viewBox="0 0 108.000000 148.000000"
 preserveAspectRatio="xMidYMid meet">
<metadata>
Created by potrace 1.16, written by Peter Selinger 2001-2019
</metadata>
<g transform="translate(0.000000,148.000000) scale(0.100000,-0.100000)"
fill="#000000" stroke="none">
<path d="M459 1403 c-19 -22 -50 -100 -83 -208 -13 -44 -45 -145 -70 -225 -25
-80 -59 -192 -76 -250 -55 -183 -67 -221 -121 -395 -60 -192 -71 -261 -44
-272 10 -3 24 -2 32 3 17 10 48 93 58 154 4 23 28 103 54 178 27 76 51 155 55
177 4 22 11 45 16 50 8 10 12 25 66 218 21 75 31 97 44 97 27 0 172 -38 180
-47 12 -12 40 -101 40 -126 1 -27 34 -125 48 -139 14 -14 57 -6 56 12 -1 8
-14 60 -28 115 -15 55 -36 134 -47 175 -11 41 -27 100 -35 130 -8 30 -19 75
-24 100 -5 25 -22 95 -38 155 -24 89 -33 111 -49 113 -10 2 -26 -5 -34 -15z
m53 -223 c4 -40 17 -106 29 -148 11 -41 17 -78 12 -82 -4 -5 -33 -2 -63 6 -30
8 -62 14 -72 14 -30 0 -30 17 2 118 16 55 30 107 30 117 0 22 30 57 44 52 6
-2 14 -37 18 -77z"/>
<path d="M347 534 c-4 -4 -7 -54 -7 -111 0 -87 3 -105 16 -110 9 -3 24 -2 33
4 13 8 16 29 16 114 0 104 0 104 -25 107 -14 2 -29 0 -33 -4z"/>
<path d="M494 527 c-2 -7 -3 -58 -2 -113 l3 -99 30 0 30 0 3 113 3 112 -31 0
c-17 0 -33 -6 -36 -13z"/>
<path d="M650 430 c0 -93 3 -112 16 -117 9 -3 24 -2 33 4 13 8 16 29 16 114
l0 104 -32 3 -33 3 0 -111z"/>
<path d="M807 533 c-4 -3 -7 -53 -7 -109 0 -102 0 -104 24 -110 14 -3 30 -3
35 1 7 4 11 50 11 116 l0 109 -28 0 c-16 0 -32 -3 -35 -7z"/>
<path d="M959 536 c-2 -2 -3 -51 -3 -107 1 -108 10 -130 48 -116 13 5 16 24
16 117 l0 110 -28 0 c-16 0 -31 -2 -33 -4z"/>
</g>
</svg>
