<?xml version="1.0" standalone="no"?>
<!DOCTYPE svg PUBLIC "-//W3C//DTD SVG 20010904//EN"
 "http://www.w3.org/TR/2001/REC-SVG-20010904/DTD/svg10.dtd">
<svg version="1.0" xmlns="http://www.w3.org/2000/svg"
 width="73.000000pt" height="100.000000pt" viewBox="0 0 73.000000 100.000000"
 preserveAspectRatio="xMidYMid meet">
<metadata>
Created by potrace 1.16, written by Peter Selinger 2001-2019
</metadata>
<g transform="translate(0.000000,100.000000) scale(0.100000,-0.100000)"
fill="#000000" stroke="none">
<path d="M290 914 c-11 -25 -62 -183 -115 -352 -52 -169 -106 -343 -120 -387
-29 -94 -32 -133 -9 -142 21 -8 41 18 55 72 5 22 30 105 55 185 25 80 56 182
68 228 13 46 28 88 35 95 8 8 25 7 69 -3 54 -14 58 -17 69 -55 31 -109 39
-129 55 -139 32 -20 42 5 25 66 -9 29 -39 141 -67 248 -28 107 -53 203 -56
213 -10 34 -44 19 -64 -29z m59 -141 c6 -38 14 -81 18 -97 l6 -29 -43 6 c-23
3 -46 9 -51 14 -12 12 31 173 46 173 7 0 17 -27 24 -67z"/>
<path d="M236 358 c-8 -25 -14 -110 -9 -129 4 -14 13 -19 27 -17 19 3 21 9 21
78 0 63 -3 75 -18 78 -9 2 -19 -2 -21 -10z"/>
<path d="M334 357 c-3 -8 -4 -43 -2 -78 3 -57 5 -64 24 -67 19 -3 22 3 25 35
7 64 -4 117 -24 121 -9 2 -20 -3 -23 -11z"/>
<path d="M440 290 c0 -79 1 -81 23 -78 21 3 22 8 22 78 0 70 -1 75 -22 78 -22
3 -23 1 -23 -78z"/>
<path d="M544 357 c-3 -8 -4 -43 -2 -78 3 -58 5 -64 26 -67 22 -3 23 -2 20 75
-3 65 -6 78 -21 81 -9 2 -20 -3 -23 -11z"/>
<path d="M644 325 c-9 -63 2 -115 25 -115 24 0 31 19 31 80 0 61 -7 80 -30 80
-14 0 -20 -10 -26 -45z"/>
</g>
</svg>
