<?xml version="1.0" standalone="no"?>
<!DOCTYPE svg PUBLIC "-//W3C//DTD SVG 20010904//EN"
 "http://www.w3.org/TR/2001/REC-SVG-20010904/DTD/svg10.dtd">
<svg version="1.0" xmlns="http://www.w3.org/2000/svg"
 width="68.000000pt" height="100.000000pt" viewBox="0 0 68.000000 100.000000"
 preserveAspectRatio="xMidYMid meet">
<metadata>
Created by potrace 1.16, written by Peter Selinger 2001-2019
</metadata>
<g transform="translate(0.000000,100.000000) scale(0.100000,-0.100000)"
fill="#000000" stroke="none">
<path d="M266 908 c-55 -199 -136 -480 -182 -633 -57 -191 -64 -232 -38 -242
24 -9 41 16 57 82 19 79 66 244 77 273 5 12 16 22 25 22 8 0 48 13 90 30 42
16 82 30 89 30 8 0 19 -20 25 -47 11 -42 10 -49 -5 -60 -10 -7 -31 -13 -47
-13 -40 0 -67 -17 -67 -43 1 -43 36 -161 52 -170 8 -6 23 -7 33 -3 18 7 18 13
-6 98 -15 55 -8 68 37 71 27 2 29 -1 40 -54 14 -69 20 -79 46 -79 19 0 20 4
13 53 -15 105 -14 112 22 115 30 3 32 1 38 -35 16 -89 25 -113 46 -113 30 0
33 23 13 116 -21 102 -37 116 -104 94 -25 -8 -44 -10 -49 -4 -4 5 -24 86 -44
179 -21 94 -50 217 -65 275 -25 99 -29 105 -54 108 -25 3 -28 -1 -42 -50z m75
-214 c12 -54 22 -114 23 -132 1 -32 -2 -34 -69 -62 -38 -17 -73 -30 -78 -30
-5 0 -7 12 -4 28 9 47 78 305 84 315 10 16 21 -14 44 -119z"/>
</g>
</svg>
