<?xml version="1.0" standalone="no"?>
<!DOCTYPE svg PUBLIC "-//W3C//DTD SVG 20010904//EN"
 "http://www.w3.org/TR/2001/REC-SVG-20010904/DTD/svg10.dtd">
<svg version="1.0" xmlns="http://www.w3.org/2000/svg"
 width="396.000000pt" height="590.000000pt" viewBox="0 0 396.000000 590.000000"
 preserveAspectRatio="xMidYMid meet">
<metadata>
Created by potrace 1.16, written by Peter Selinger 2001-2019
</metadata>
<g transform="translate(0.000000,590.000000) scale(0.500000,-0.500000)"
fill="#000000" stroke="none">
<path d="M344 1136 c-17 -5 -20 -8 -22 -24 -1 -7 -2 -17 -4 -21 -1 -4 -4 -17
-7 -29 -3 -12 -8 -30 -11 -40 -3 -10 -6 -20 -6 -22 0 -2 -3 -12 -6 -23 -3 -10
-8 -27 -11 -38 -3 -11 -7 -25 -9 -32 -2 -7 -6 -21 -9 -31 -3 -10 -7 -27 -11
-37 -3 -10 -6 -19 -6 -21 0 -3 -2 -11 -5 -19 -5 -14 -11 -36 -16 -57 -1 -6 -5
-16 -7 -23 -2 -7 -6 -20 -8 -29 -2 -9 -5 -21 -7 -26 -5 -15 -13 -45 -13 -49 0
-2 -3 -13 -7 -23 -3 -10 -7 -23 -8 -28 -1 -9 -6 -25 -14 -48 -3 -7 -6 -18 -7
-24 -1 -6 -4 -19 -8 -29 -3 -9 -6 -19 -6 -21 0 -4 -2 -12 -14 -49 -2 -7 -4
-16 -5 -20 -1 -4 -5 -18 -9 -30 -4 -12 -8 -25 -9 -29 -1 -4 -4 -17 -8 -29 -4
-12 -8 -27 -10 -34 -1 -7 -5 -19 -7 -27 -2 -8 -6 -23 -9 -32 -3 -9 -7 -25 -11
-34 -3 -10 -6 -22 -7 -26 -1 -5 -3 -13 -5 -19 -5 -12 -6 -49 -2 -58 4 -9 30
-13 45 -6 9 4 24 38 27 60 1 10 4 20 7 27 3 6 5 14 5 18 0 9 8 44 13 55 2 4 4
12 5 19 1 6 5 17 9 24 5 9 7 15 7 22 0 5 1 14 3 20 2 6 4 16 6 21 1 6 5 14 7
18 3 5 6 13 6 19 2 20 6 35 11 44 3 5 5 12 5 15 0 43 18 73 44 73 15 0 35 6
57 18 8 4 16 8 18 8 2 0 7 2 11 4 18 8 52 22 74 31 13 5 24 10 25 11 4 3 25
10 30 10 6 0 11 -7 13 -21 1 -7 4 -16 5 -22 2 -5 3 -16 4 -24 1 -7 3 -17 5
-22 15 -33 14 -45 -2 -49 -5 -1 -18 -5 -30 -9 -17 -6 -23 -7 -37 -7 -14 0 -19
-1 -27 -5 -5 -2 -14 -6 -21 -8 -29 -8 -29 -57 -1 -130 1 -3 4 -13 6 -23 7 -30
17 -67 20 -77 5 -12 43 -17 53 -6 8 8 7 42 -2 70 -3 11 -9 30 -13 42 -4 12 -9
29 -11 37 -9 29 -10 28 35 44 46 16 60 16 60 0 0 -3 2 -11 4 -18 2 -7 4 -20 5
-29 1 -9 3 -22 6 -30 3 -8 5 -17 5 -20 0 -31 15 -53 36 -54 32 -2 39 26 20 89
-28 92 -27 96 10 107 12 4 27 9 32 11 18 6 22 1 27 -28 2 -11 5 -23 6 -27 2
-4 3 -9 3 -13 0 -3 2 -12 4 -20 2 -8 4 -20 5 -26 1 -6 3 -14 4 -18 2 -3 3 -10
3 -14 0 -31 34 -52 56 -34 6 4 7 48 3 62 -2 3 -4 15 -6 26 -2 10 -5 21 -6 24
-2 3 -3 9 -4 14 -1 5 -2 10 -3 12 -1 2 -3 12 -5 23 -2 11 -4 25 -6 30 -2 6 -3
14 -4 19 -3 28 -56 49 -84 34 -11 -6 -61 -22 -66 -22 -8 1 -14 18 -24 73 -1 3
-3 10 -4 14 -2 4 -4 16 -6 25 -5 28 -7 38 -11 53 -2 8 -5 18 -6 23 -1 5 -4 21
-8 36 -3 15 -9 41 -13 58 -4 17 -10 44 -14 59 -4 15 -7 30 -7 33 0 2 -3 15 -6
27 -7 25 -22 90 -26 108 -1 7 -6 28 -11 48 -5 20 -10 44 -12 53 -7 39 -10 48
-17 59 -11 16 -24 20 -48 13z m18 -159 c1 -1 2 -12 3 -23 2 -23 3 -26 11 -35
5 -5 6 -7 6 -18 0 -6 1 -15 2 -19 1 -4 3 -14 4 -23 1 -11 3 -18 8 -25 9 -14
10 -21 14 -68 1 -13 3 -22 6 -29 16 -35 16 -36 21 -99 0 -8 -10 -14 -51 -31
-10 -4 -28 -11 -39 -16 -10 -5 -20 -9 -22 -9 -1 0 -6 -2 -10 -4 -4 -2 -9 -4
-10 -4 0 0 -8 -3 -16 -7 -21 -10 -41 -16 -44 -13 -7 7 2 63 11 71 8 7 10 14
10 29 0 17 4 33 11 49 3 7 6 17 7 25 1 13 4 24 19 73 4 13 9 30 10 37 2 7 6
18 9 25 4 8 7 17 8 27 1 8 5 25 8 37 3 12 7 27 9 32 4 17 10 24 15 18z"/>
</g>
</svg>
