<?xml version="1.0" standalone="no"?>
<!DOCTYPE svg PUBLIC "-//W3C//DTD SVG 20010904//EN"
 "http://www.w3.org/TR/2001/REC-SVG-20010904/DTD/svg10.dtd">
<svg version="1.0" xmlns="http://www.w3.org/2000/svg"
 width="100.000000pt" height="148.000000pt" viewBox="0 0 100.000000 148.000000"
 preserveAspectRatio="xMidYMid meet">
<metadata>
Created by potrace 1.16, written by Peter Selinger 2001-2019
</metadata>
<g transform="translate(0.000000,148.000000) scale(0.100000,-0.100000)"
fill="#000000" stroke="none">
<path d="M416 1412 c-2 -4 -16 -50 -30 -102 -13 -52 -34 -126 -45 -165 -11
-38 -49 -173 -85 -300 -65 -226 -98 -341 -116 -400 -97 -322 -108 -390 -60
-390 31 0 47 31 71 141 10 46 25 96 33 113 9 16 16 43 16 59 0 15 4 32 9 37 4
6 17 48 27 94 21 93 32 111 74 111 15 0 79 23 141 50 63 28 119 48 125 46 7
-3 17 -31 23 -63 7 -32 14 -70 17 -84 5 -24 3 -26 -53 -38 -32 -7 -75 -17 -96
-22 l-39 -10 5 -47 c2 -26 17 -92 33 -147 29 -98 30 -100 59 -100 26 0 30 4
33 31 2 18 -8 67 -22 110 -16 48 -22 82 -17 88 13 15 98 39 115 33 8 -3 18
-33 25 -74 20 -120 21 -123 46 -129 51 -13 56 17 24 137 -12 42 -19 83 -17 91
6 15 94 41 109 33 5 -4 9 -16 9 -28 0 -34 32 -181 43 -194 5 -7 20 -13 33 -13
34 0 39 33 16 121 -11 40 -23 93 -27 116 -7 45 -42 83 -75 83 -10 0 -39 -9
-64 -21 -51 -22 -76 -20 -76 7 0 15 -31 155 -80 359 -11 44 -38 159 -60 255
-52 220 -52 220 -89 220 -16 0 -32 -4 -35 -8z m44 -217 c0 -19 4 -36 9 -39 5
-3 12 -27 16 -53 4 -27 11 -55 15 -63 4 -8 10 -35 13 -60 2 -25 12 -62 21 -84
9 -21 16 -55 16 -76 l0 -37 -112 -47 c-62 -26 -119 -50 -125 -53 -18 -7 -17
67 1 92 7 11 16 36 18 55 6 35 21 96 58 220 10 36 24 88 30 115 17 73 19 77
30 70 5 -3 10 -21 10 -40z"/>
</g>
</svg>
