<?xml version="1.0" standalone="no"?>
<!DOCTYPE svg PUBLIC "-//W3C//DTD SVG 20010904//EN"
 "http://www.w3.org/TR/2001/REC-SVG-20010904/DTD/svg10.dtd">
<svg version="1.0" xmlns="http://www.w3.org/2000/svg"
 width="59.000000pt" height="100.000000pt" viewBox="0 0 59.000000 100.000000"
 preserveAspectRatio="xMidYMid meet">
<metadata>
Created by potrace 1.16, written by Peter Selinger 2001-2019
</metadata>
<g transform="translate(0.000000,100.000000) scale(0.100000,-0.100000)"
fill="#000000" stroke="none">
<path d="M251 893 c-11 -38 -38 -135 -61 -218 -22 -82 -66 -242 -97 -355 -62
-227 -70 -285 -38 -285 22 0 22 -1 79 215 20 74 39 137 44 141 10 11 160 69
176 69 17 0 26 -22 26 -61 0 -28 -1 -29 -50 -29 -62 0 -65 -6 -65 -115 0 -73
2 -80 20 -80 18 0 20 8 23 72 3 65 5 73 22 73 18 0 20 -7 20 -76 0 -66 2 -75
18 -72 14 3 18 16 20 76 3 69 4 73 25 70 20 -3 22 -8 22 -73 0 -56 3 -70 15
-70 11 0 16 17 20 70 4 62 7 70 25 70 18 0 20 -8 23 -73 2 -63 5 -73 20 -70
14 3 18 17 20 74 2 39 -2 83 -7 97 -9 24 -16 27 -55 27 -24 0 -48 6 -53 13 -6
6 -20 62 -33 122 -18 88 -62 288 -95 433 -3 13 -13 22 -25 22 -15 0 -23 -14
-39 -67z m68 -208 c12 -60 24 -120 27 -132 5 -19 -2 -26 -62 -53 -87 -39 -97
-36 -78 27 8 26 26 95 40 153 14 58 27 111 30 119 9 28 22 -6 43 -114z"/>
</g>
</svg>
