<?xml version="1.0" standalone="no"?>
<!DOCTYPE svg PUBLIC "-//W3C//DTD SVG 20010904//EN"
 "http://www.w3.org/TR/2001/REC-SVG-20010904/DTD/svg10.dtd">
<svg version="1.0" xmlns="http://www.w3.org/2000/svg"
 width="352.000000pt" height="590.000000pt" viewBox="0 0 352.000000 590.000000"
 preserveAspectRatio="xMidYMid meet">
<metadata>
Created by potrace 1.16, written by Peter Selinger 2001-2019
</metadata>
<g transform="translate(0.000000,590.000000) scale(0.500000,-0.500000)"
fill="#000000" stroke="none">
<path d="M340 1135 c-6 -4 -11 -12 -15 -23 -1 -5 -6 -15 -10 -21 -5 -7 -9 -17
-11 -22 -1 -6 -5 -17 -8 -26 -3 -9 -6 -20 -7 -25 0 -9 -5 -26 -16 -63 -3 -9
-7 -25 -10 -37 -10 -43 -14 -55 -18 -66 -3 -6 -6 -15 -7 -21 -2 -14 -9 -42
-14 -56 -2 -7 -5 -17 -5 -21 -1 -5 -4 -14 -7 -19 -3 -6 -6 -13 -6 -17 0 -15
-10 -52 -16 -63 -3 -4 -5 -13 -6 -22 -1 -9 -4 -23 -7 -31 -2 -8 -6 -22 -8 -30
-4 -21 -8 -34 -16 -52 -4 -10 -7 -19 -7 -24 0 -5 -3 -17 -6 -27 -3 -11 -6 -21
-6 -24 0 -2 -3 -13 -7 -25 -4 -11 -8 -25 -9 -31 -1 -7 -4 -19 -7 -28 -9 -30
-19 -68 -21 -76 -1 -4 -5 -18 -8 -30 -4 -12 -8 -27 -9 -33 -3 -13 -14 -49 -26
-88 -20 -67 -6 -102 37 -84 10 4 22 32 24 56 1 14 2 21 5 26 3 4 6 13 7 20 4
28 6 36 11 50 3 8 6 21 8 29 2 7 5 17 7 21 2 4 4 12 5 16 3 23 10 48 16 62 5
11 7 19 8 30 0 10 3 20 7 30 3 9 7 22 8 30 4 27 9 38 21 43 4 1 10 6 15 10 4
4 8 7 10 7 5 0 108 38 121 45 16 8 75 27 80 26 6 -1 8 -6 13 -26 2 -10 6 -27
9 -38 11 -44 10 -50 -5 -48 -4 1 -11 0 -15 -1 -5 -2 -26 -3 -57 -4 -64 -1 -57
7 -58 -68 -4 -167 -5 -156 17 -156 24 0 23 -2 22 89 -2 92 -5 84 31 84 35 0
32 7 30 -87 -3 -85 -2 -86 19 -86 22 0 22 0 19 87 -2 93 -4 88 34 87 33 -1 31
5 29 -75 -3 -94 -3 -88 4 -94 5 -5 7 -5 16 -5 21 2 20 -3 18 85 -2 95 -5 87
29 87 27 0 30 -1 30 -14 0 -4 0 -39 0 -78 -1 -82 -1 -80 21 -80 22 0 21 -6 20
110 -2 130 6 117 -71 115 -55 -1 -59 -1 -62 7 -1 3 -4 11 -7 19 -3 7 -7 22 -9
33 -2 11 -4 21 -5 22 -1 2 -4 16 -12 53 -3 13 -5 24 -6 25 -1 2 -6 28 -8 42
-1 6 -3 16 -5 23 -4 10 -8 30 -14 61 -1 5 -3 14 -5 19 -4 14 -9 36 -11 52 -1
8 -4 19 -5 25 -2 6 -3 15 -3 20 0 4 -2 13 -4 19 -5 12 -12 42 -22 87 -3 15 -7
31 -8 35 -1 4 -3 15 -5 24 -2 9 -4 19 -5 24 -1 4 -3 12 -4 17 -12 70 -32 105
-52 93z m8 -170 c2 -3 9 -32 14 -58 1 -6 3 -12 4 -14 1 -2 3 -9 4 -14 5 -28
11 -53 13 -61 3 -10 11 -47 13 -64 1 -6 2 -13 4 -16 1 -3 3 -13 5 -22 2 -9 6
-26 9 -36 13 -51 13 -53 -2 -57 -5 -2 -11 -5 -15 -8 -10 -7 -22 -11 -35 -11
-15 0 -21 -2 -25 -11 -5 -7 -14 -11 -30 -14 -5 -1 -10 -4 -15 -9 -10 -10 -46
-25 -55 -23 -11 3 -2 58 13 89 4 8 6 15 6 21 0 4 3 18 6 30 20 72 35 128 39
141 8 32 12 49 19 73 4 14 9 31 10 38 5 22 12 33 18 26z"/>
</g>
</svg>
