<?xml version="1.0" standalone="no"?>
<!DOCTYPE svg PUBLIC "-//W3C//DTD SVG 20010904//EN"
 "http://www.w3.org/TR/2001/REC-SVG-20010904/DTD/svg10.dtd">
<svg version="1.0" xmlns="http://www.w3.org/2000/svg"
 width="88.000000pt" height="148.000000pt" viewBox="0 0 88.000000 148.000000"
 preserveAspectRatio="xMidYMid meet">
<metadata>
Created by potrace 1.16, written by Peter Selinger 2001-2019
</metadata>
<g transform="translate(0.000000,148.000000) scale(0.100000,-0.100000)"
fill="#000000" stroke="none">
<path d="M400 1380 c-11 -22 -29 -73 -40 -113 -24 -94 -49 -184 -60 -222 -5
-16 -14 -50 -21 -75 -7 -25 -16 -49 -20 -55 -3 -5 -9 -26 -12 -45 -7 -43 -20
-97 -41 -170 -9 -30 -32 -113 -51 -185 -37 -138 -70 -258 -87 -315 -16 -54
-21 -131 -10 -142 16 -16 49 0 59 30 6 15 22 79 38 142 15 63 33 135 40 160 8
25 22 76 32 113 14 52 24 72 43 83 46 26 262 105 275 100 14 -5 40 -119 31
-135 -4 -6 -40 -11 -86 -11 -43 0 -81 -3 -84 -8 -2 -4 -6 -65 -7 -135 -2 -100
0 -130 11 -137 32 -20 39 0 42 108 l3 107 35 0 35 0 3 -108 c3 -105 3 -108 25
-105 21 3 22 7 22 108 l0 105 40 0 40 0 0 -105 c0 -98 1 -105 20 -105 19 0 20
7 21 105 l1 105 39 0 39 0 -4 -102 c-3 -94 -2 -102 17 -112 32 -17 37 7 34
151 l-3 127 -81 3 c-94 3 -82 -11 -118 153 -12 55 -25 116 -30 135 -5 19 -16
67 -24 105 -35 160 -88 393 -100 435 -18 59 -39 63 -66 10z m64 -300 c15 -74
34 -162 43 -195 8 -33 17 -70 20 -81 4 -17 -3 -25 -28 -38 -17 -9 -42 -16 -55
-16 -13 0 -25 -4 -28 -9 -9 -13 -103 -61 -122 -61 -13 0 -15 7 -9 43 4 23 11
49 16 58 4 9 12 34 18 55 18 77 92 369 97 383 9 28 21 -6 48 -139z"/>
</g>
</svg>
