<?xml version="1.0" standalone="no"?>
<!DOCTYPE svg PUBLIC "-//W3C//DTD SVG 20010904//EN"
 "http://www.w3.org/TR/2001/REC-SVG-20010904/DTD/svg10.dtd">
<svg version="1.0" xmlns="http://www.w3.org/2000/svg"
 width="406.000000pt" height="590.000000pt" viewBox="0 0 406.000000 590.000000"
 preserveAspectRatio="xMidYMid meet">
<metadata>
Created by potrace 1.16, written by Peter Selinger 2001-2019
</metadata>
<g transform="translate(0.000000,590.000000) scale(0.500000,-0.500000)"
fill="#000000" stroke="none">
<path d="M346 1147 c-7 -4 -12 -12 -19 -34 -3 -9 -8 -19 -10 -24 -4 -5 -6 -12
-7 -24 -3 -27 -10 -54 -18 -65 -3 -4 -5 -10 -6 -21 -1 -9 -4 -23 -7 -31 -3 -8
-5 -16 -5 -18 0 -3 -8 -27 -16 -46 -2 -5 -4 -14 -4 -18 0 -5 -2 -10 -6 -16 -5
-7 -6 -11 -6 -20 0 -14 -13 -51 -20 -59 -4 -4 -5 -7 -6 -24 -1 -10 -2 -21 -4
-24 -1 -3 -2 -7 -2 -10 0 -7 -5 -16 -12 -24 -5 -5 -6 -8 -7 -25 -1 -22 -2 -28
-15 -70 -5 -17 -11 -35 -12 -39 -1 -5 -5 -11 -8 -14 -8 -8 -10 -15 -10 -33 0
-11 -1 -19 -6 -32 -3 -9 -6 -19 -6 -21 0 -2 -2 -11 -5 -19 -3 -8 -7 -20 -8
-26 -1 -6 -6 -23 -11 -37 -9 -30 -16 -53 -18 -64 -1 -4 -6 -21 -11 -36 -10
-34 -18 -62 -22 -77 -1 -6 -6 -22 -11 -36 -4 -14 -8 -26 -8 -28 0 -2 -3 -7 -6
-11 -9 -12 -11 -77 -1 -84 22 -15 48 -3 58 27 4 13 9 26 10 31 2 4 3 9 3 11 0
2 3 12 6 23 3 10 6 22 8 26 3 13 10 36 20 69 6 17 10 33 10 34 0 2 3 11 6 21
3 10 6 19 6 21 0 2 4 16 9 31 5 15 10 33 12 39 6 24 12 44 20 71 5 15 9 30 9
31 0 2 2 11 5 19 3 9 6 20 7 26 1 5 4 12 6 14 2 3 4 9 5 13 2 12 8 29 10 32 3
2 106 -31 135 -43 6 -3 12 -5 14 -5 11 0 40 -12 48 -20 2 -2 7 -4 10 -5 11 -2
35 -10 44 -15 4 -2 10 -4 13 -4 2 0 8 -3 13 -7 39 -33 65 33 38 99 -1 2 -2 6
-2 8 0 2 -2 11 -5 19 -5 15 -7 24 -14 54 -2 7 -5 19 -8 27 -3 8 -5 17 -5 19 0
2 -3 12 -6 22 -3 10 -6 22 -7 26 -3 9 -9 30 -17 57 -3 10 -6 27 -7 36 -1 13
-3 18 -7 26 -4 6 -6 11 -6 17 0 5 -2 13 -6 20 -4 9 -6 16 -7 30 -1 19 -5 33
-12 41 -6 7 -11 27 -13 52 -2 26 -8 45 -19 60 -3 4 -5 9 -5 11 0 38 -36 62
-66 46z m25 -147 c1 -2 3 -7 4 -12 3 -10 11 -37 19 -64 3 -10 6 -21 6 -23 0
-2 3 -12 6 -22 3 -10 6 -19 6 -21 0 -2 3 -12 6 -22 3 -11 8 -27 10 -37 2 -10
6 -25 9 -33 2 -8 5 -18 6 -21 0 -3 4 -15 7 -25 10 -34 16 -55 16 -59 0 -3 2
-10 5 -15 7 -17 16 -49 18 -65 2 -17 4 -18 -73 9 -109 37 -118 40 -137 42 -23
1 -23 1 -14 30 4 13 7 24 7 26 0 1 3 10 6 20 3 10 6 19 6 21 0 2 3 11 6 20 3
9 6 20 7 24 1 4 5 20 10 35 5 14 9 28 9 30 0 2 3 12 6 23 3 10 7 22 8 26 1 4
4 17 8 28 3 11 7 24 8 29 1 4 5 16 8 26 3 10 6 20 6 21 0 9 8 14 11 9z"/>
<path d="M661 496 c-8 -9 -3 -47 9 -74 3 -5 6 -12 7 -16 1 -4 5 -12 8 -18 3
-5 5 -11 5 -12 0 -2 4 -12 9 -22 14 -29 13 -31 -24 -43 -23 -8 -30 -8 -32 -1
-1 3 -9 21 -19 41 -10 20 -19 41 -21 46 -14 44 -30 64 -55 65 -36 1 -39 -23
-12 -78 9 -18 16 -34 16 -37 0 -2 3 -9 6 -15 3 -6 6 -15 7 -21 1 -5 4 -13 6
-17 3 -4 5 -9 4 -11 -2 -5 -37 -17 -51 -17 -6 0 -14 -1 -19 -3 -10 -4 -13 -2
-13 5 0 5 -22 72 -28 84 -2 5 -6 15 -8 22 -14 45 -18 50 -41 50 -30 0 -48 -37
-29 -61 4 -4 6 -10 7 -17 0 -6 3 -13 7 -19 3 -5 6 -11 6 -12 0 -2 2 -7 4 -12
8 -15 18 -50 20 -66 1 -12 3 -18 6 -22 2 -4 5 -10 6 -15 3 -14 5 -15 35 -15
21 0 28 1 38 4 11 4 35 13 93 33 13 4 25 8 27 8 7 0 139 46 143 49 10 10 0 65
-20 107 -5 11 -7 19 -8 31 -3 34 -10 52 -21 59 -4 2 -8 7 -10 11 -5 13 -48 20
-58 9z"/>
</g>
</svg>
