<?xml version="1.0" standalone="no"?>
<!DOCTYPE svg PUBLIC "-//W3C//DTD SVG 20010904//EN"
 "http://www.w3.org/TR/2001/REC-SVG-20010904/DTD/svg10.dtd">
<svg version="1.0" xmlns="http://www.w3.org/2000/svg"
 width="69.000000pt" height="100.000000pt" viewBox="0 0 69.000000 100.000000"
 preserveAspectRatio="xMidYMid meet">
<metadata>
Created by potrace 1.16, written by Peter Selinger 2001-2019
</metadata>
<g transform="translate(0.000000,100.000000) scale(0.100000,-0.100000)"
fill="#000000" stroke="none">
<path d="M282 953 c-5 -10 -35 -106 -66 -213 -32 -107 -71 -238 -86 -290 -67
-218 -110 -374 -110 -397 0 -28 26 -41 44 -22 10 11 68 199 128 415 5 20 15
34 24 34 9 0 63 -17 120 -37 95 -34 104 -39 104 -62 0 -15 9 -46 20 -70 27
-59 26 -79 -5 -87 -32 -8 -32 -8 -60 68 -19 53 -26 63 -46 63 -20 0 -24 -5
-23 -30 1 -36 40 -145 58 -163 11 -11 36 -7 145 29 148 47 142 40 115 143 -22
85 -54 117 -83 82 -9 -11 -7 -27 13 -73 26 -62 21 -87 -16 -81 -24 4 -67 102
-78 178 -10 71 -67 288 -127 483 -12 39 -19 47 -38 47 -14 0 -28 -8 -33 -17z
m47 -150 c14 -56 59 -222 73 -270 7 -23 10 -45 7 -47 -7 -8 -178 48 -182 59
-2 6 9 55 24 110 15 55 33 119 39 143 13 52 26 54 39 5z"/>
</g>
</svg>
