<?xml version="1.0" standalone="no"?>
<!DOCTYPE svg PUBLIC "-//W3C//DTD SVG 20010904//EN"
 "http://www.w3.org/TR/2001/REC-SVG-20010904/DTD/svg10.dtd">
<svg version="1.0" xmlns="http://www.w3.org/2000/svg"
 width="102.000000pt" height="148.000000pt" viewBox="0 0 102.000000 148.000000"
 preserveAspectRatio="xMidYMid meet">
<metadata>
Created by potrace 1.16, written by Peter Selinger 2001-2019
</metadata>
<g transform="translate(0.000000,148.000000) scale(0.100000,-0.100000)"
fill="#000000" stroke="none">
<path d="M426 1425 c-9 -9 -16 -25 -16 -35 0 -10 -4 -22 -10 -25 -5 -3 -10
-14 -10 -24 0 -19 -10 -54 -60 -216 -16 -49 -32 -105 -35 -122 -4 -18 -11 -35
-16 -38 -5 -4 -9 -21 -9 -39 0 -18 -7 -41 -15 -52 -8 -10 -15 -31 -15 -45 0
-32 -37 -150 -50 -163 -6 -6 -10 -21 -10 -34 0 -13 -18 -85 -41 -160 -23 -76
-45 -153 -51 -172 -5 -19 -14 -51 -19 -70 -6 -19 -13 -45 -16 -58 -3 -12 -9
-25 -14 -28 -5 -3 -9 -27 -9 -55 0 -49 0 -49 33 -49 38 0 30 -16 88 185 17 61
34 117 37 125 6 17 29 96 85 290 13 47 28 84 33 83 27 -6 223 -76 244 -87 14
-7 49 -21 79 -31 52 -17 55 -17 68 1 20 27 17 51 -33 227 -25 89 -49 180 -54
202 -12 54 -44 163 -58 198 -7 16 -12 40 -12 54 0 14 -6 39 -14 56 -8 18 -18
46 -23 62 -11 35 -51 46 -77 20z m73 -290 c32 -128 64 -243 102 -359 10 -33
16 -63 12 -67 -5 -4 -26 -1 -48 7 -138 51 -211 73 -227 68 -10 -3 -18 0 -18 6
0 6 27 107 60 222 33 116 60 216 60 223 0 10 21 38 26 32 1 -1 16 -60 33 -132z"/>
<path d="M820 594 c0 -14 16 -59 35 -101 19 -42 35 -80 35 -84 0 -5 -17 -16
-37 -24 -46 -19 -48 -18 -98 98 -29 66 -44 89 -61 93 -55 14 -57 -24 -9 -130
19 -43 35 -83 35 -90 0 -16 -22 -26 -54 -26 -12 0 -27 -5 -34 -12 -7 -7 -12
-10 -12 -8 -2 27 -72 207 -83 214 -22 14 -67 -9 -67 -34 0 -11 4 -28 9 -38 23
-43 45 -100 60 -156 15 -56 19 -61 46 -64 17 -2 73 10 125 27 52 18 133 44
180 59 99 32 103 39 71 129 -10 32 -23 74 -27 93 -9 48 -42 80 -81 80 -29 0
-33 -3 -33 -26z"/>
</g>
</svg>
