<?xml version="1.0" standalone="no"?>
<!DOCTYPE svg PUBLIC "-//W3C//DTD SVG 20010904//EN"
 "http://www.w3.org/TR/2001/REC-SVG-20010904/DTD/svg10.dtd">
<svg version="1.0" xmlns="http://www.w3.org/2000/svg"
 width="290.000000pt" height="590.000000pt" viewBox="0 0 290.000000 590.000000"
 preserveAspectRatio="xMidYMid meet">
<metadata>
Created by potrace 1.16, written by Peter Selinger 2001-2019
</metadata>
<g transform="translate(0.000000,590.000000) scale(0.500000,-0.500000)"
fill="#000000" stroke="none">
<path d="M178 1137 c-12 -7 -20 -29 -20 -56 0 -7 -1 -16 -3 -19 -1 -4 -3 -19
-4 -35 -1 -15 -2 -31 -4 -35 -1 -4 -3 -19 -4 -33 -1 -14 -3 -33 -5 -41 -2 -8
-4 -28 -5 -43 -1 -15 -2 -30 -4 -33 -1 -3 -3 -17 -5 -32 -1 -15 -3 -31 -4 -35
-1 -4 -3 -22 -4 -39 -1 -17 -3 -35 -5 -39 -1 -4 -3 -20 -4 -34 -1 -14 -3 -32
-4 -39 -1 -7 -4 -24 -5 -37 -1 -13 -4 -31 -5 -40 -2 -9 -3 -26 -4 -38 -1 -12
-2 -25 -3 -28 -1 -3 -3 -15 -4 -25 -2 -21 -3 -30 -14 -114 -1 -8 -3 -23 -4
-33 -1 -10 -3 -26 -4 -35 -1 -9 -3 -25 -4 -35 -1 -10 -3 -22 -4 -27 -3 -14 -6
-37 -6 -47 0 -5 -1 -14 -3 -20 -6 -23 -7 -88 -1 -94 21 -22 45 -1 49 44 1 7 3
16 4 21 1 5 3 24 4 42 0 24 2 36 4 41 3 7 6 23 9 56 4 35 6 46 9 54 2 5 3 12
3 27 -1 20 2 48 5 52 1 2 2 17 3 35 2 44 5 50 38 71 5 3 15 11 22 17 7 6 19
14 26 18 7 5 17 12 23 17 5 4 17 12 25 16 8 5 19 12 23 16 48 45 65 36 85 -45
6 -21 23 -65 29 -73 8 -11 14 -23 22 -46 4 -12 10 -27 13 -35 8 -17 7 -20 -8
-36 -6 -7 -16 -19 -21 -27 -5 -8 -16 -25 -24 -37 -20 -30 -26 -81 -14 -125 11
-39 43 -33 40 8 -5 76 -7 66 22 110 19 29 22 28 11 -4 -17 -50 -10 -137 11
-137 18 0 20 4 18 51 -1 38 -1 39 4 55 13 41 17 49 25 45 4 -2 4 -4 4 -72 0
-79 0 -77 15 -79 20 -3 20 -3 18 94 -2 100 2 87 -37 148 -5 7 -11 19 -13 27
-3 8 -9 26 -14 40 -5 14 -12 33 -16 43 -4 10 -11 29 -16 42 -5 13 -12 32 -15
41 -3 9 -8 23 -11 30 -10 27 -19 52 -25 67 -3 9 -10 25 -13 36 -13 35 -15 40
-21 56 -3 9 -12 31 -18 49 -7 18 -14 38 -16 43 -2 6 -8 21 -13 34 -5 13 -13
35 -18 48 -5 13 -9 25 -10 27 0 2 -4 11 -7 20 -4 9 -9 24 -12 33 -4 9 -10 27
-15 40 -18 50 -22 59 -29 71 -12 18 -29 25 -42 17z m33 -144 c11 -23 19 -46
19 -53 0 -3 6 -20 13 -37 7 -18 14 -38 17 -46 2 -8 6 -16 7 -20 2 -3 4 -10 5
-17 1 -6 4 -14 5 -17 2 -3 4 -11 5 -18 1 -9 3 -16 7 -21 6 -8 11 -22 17 -41 2
-7 6 -19 10 -27 13 -31 14 -44 3 -51 -22 -14 -41 -27 -53 -39 -8 -7 -20 -17
-27 -21 -7 -4 -16 -11 -20 -14 -4 -4 -9 -7 -9 -7 -5 0 -32 -14 -40 -21 -9 -8
-17 -9 -19 -3 -2 9 -1 58 2 70 2 7 4 28 5 46 1 18 3 38 5 43 2 6 4 19 5 31 4
49 8 84 10 93 3 11 3 11 6 54 1 16 3 35 5 41 1 6 3 20 4 31 1 11 2 25 3 32 1
7 2 15 3 20 2 11 4 9 12 -8z"/>
</g>
</svg>
