<?xml version="1.0" standalone="no"?>
<!DOCTYPE svg PUBLIC "-//W3C//DTD SVG 20010904//EN"
 "http://www.w3.org/TR/2001/REC-SVG-20010904/DTD/svg10.dtd">
<svg version="1.0" xmlns="http://www.w3.org/2000/svg"
 width="72.000000pt" height="148.000000pt" viewBox="0 0 72.000000 148.000000"
 preserveAspectRatio="xMidYMid meet">
<metadata>
Created by potrace 1.16, written by Peter Selinger 2001-2019
</metadata>
<g transform="translate(0.000000,148.000000) scale(0.100000,-0.100000)"
fill="#000000" stroke="none">
<path d="M202 1398 c-6 -13 -13 -54 -16 -93 -2 -38 -9 -104 -15 -145 -9 -64
-22 -175 -81 -680 -5 -41 -14 -113 -20 -160 -34 -264 -34 -274 3 -268 25 4 33
30 47 148 6 47 12 99 15 115 4 28 7 57 24 210 6 59 7 60 67 105 127 94 174
125 190 125 12 0 23 -19 37 -60 10 -33 30 -82 42 -110 13 -27 31 -69 41 -93
16 -41 16 -44 -3 -65 -62 -73 -83 -115 -83 -172 0 -61 12 -95 35 -95 12 0 15
15 15 68 0 57 5 74 31 116 17 26 32 46 35 43 3 -2 -2 -25 -11 -51 -20 -60 -17
-171 5 -171 11 0 16 18 21 75 7 86 15 110 36 110 12 0 15 -15 13 -83 -3 -107
-3 -109 17 -105 16 3 17 15 15 118 -3 105 -6 119 -31 160 -15 25 -30 54 -33
65 -3 11 -20 58 -38 105 -17 47 -40 110 -51 140 -12 30 -29 78 -39 105 -40
107 -80 216 -134 365 -69 190 -74 200 -101 200 -12 0 -26 -10 -33 -22z m106
-288 c27 -85 62 -186 76 -223 24 -64 24 -69 8 -82 -56 -46 -198 -145 -208
-145 -8 0 -3 84 11 190 8 58 19 168 25 245 13 160 18 191 29 179 5 -5 31 -79
59 -164z"/>
</g>
</svg>
