<?xml version="1.0" standalone="no"?>
<!DOCTYPE svg PUBLIC "-//W3C//DTD SVG 20010904//EN"
 "http://www.w3.org/TR/2001/REC-SVG-20010904/DTD/svg10.dtd">
<svg version="1.0" xmlns="http://www.w3.org/2000/svg"
 width="49.000000pt" height="100.000000pt" viewBox="0 0 49.000000 100.000000"
 preserveAspectRatio="xMidYMid meet">
<metadata>
Created by potrace 1.16, written by Peter Selinger 2001-2019
</metadata>
<g transform="translate(0.000000,100.000000) scale(0.100000,-0.100000)"
fill="#000000" stroke="none">
<path d="M140 948 c-9 -21 -40 -236 -55 -383 -4 -33 -17 -147 -31 -254 -28
-225 -30 -281 -10 -281 27 0 34 27 52 190 16 139 22 168 39 183 43 39 146 107
155 102 5 -3 12 -19 15 -36 4 -17 21 -60 37 -96 l31 -65 -22 -26 c-43 -55 -53
-83 -46 -128 l6 -44 42 3 42 3 3 44 c5 64 22 75 22 14 0 -55 11 -80 30 -69 20
12 8 152 -18 201 -18 36 -58 141 -194 509 -42 116 -62 155 -78 155 -6 0 -15
-10 -20 -22z m89 -261 c22 -70 41 -129 41 -131 0 -8 -115 -86 -127 -86 -7 0
-13 8 -13 17 0 28 31 317 36 332 8 25 20 0 63 -132z"/>
</g>
</svg>
