<?xml version="1.0" standalone="no"?>
<!DOCTYPE svg PUBLIC "-//W3C//DTD SVG 20010904//EN"
 "http://www.w3.org/TR/2001/REC-SVG-20010904/DTD/svg10.dtd">
<svg version="1.0" xmlns="http://www.w3.org/2000/svg"
 width="820.000000pt" height="578.000000pt" viewBox="0 0 820.000000 578.000000"
 preserveAspectRatio="xMidYMid meet">
<metadata>
Created by potrace 1.16, written by Peter Selinger 2001-2019
</metadata>
<g transform="translate(0.000000,578.000000) scale(0.500000,-0.500000)"
fill="#000000" stroke="none">
<path d="M403 744 c-6 -2 -10 -8 -16 -22 -12 -28 -40 -83 -47 -92 -5 -5 -8
-11 -9 -17 -1 -8 -7 -22 -20 -46 -2 -5 -10 -15 -17 -22 -15 -16 -16 -19 -16
-35 0 -11 -1 -12 -9 -22 -5 -6 -11 -14 -12 -18 -2 -4 -6 -10 -10 -14 -8 -9
-11 -14 -11 -21 0 -3 -2 -11 -5 -17 -9 -18 -21 -43 -23 -45 -1 -1 -3 -7 -3
-12 -1 -7 -3 -12 -9 -18 -9 -10 -12 -15 -12 -23 0 -3 -7 -20 -18 -41 -10 -20
-25 -49 -32 -64 -8 -15 -15 -30 -17 -32 -1 -2 -4 -8 -6 -13 -3 -5 -7 -12 -11
-15 -26 -24 -16 -69 15 -69 28 0 35 8 65 77 5 13 28 59 34 68 1 2 9 19 18 38
9 19 17 36 19 39 3 5 11 21 60 121 66 134 79 161 86 176 15 31 22 38 28 28 2
-4 6 -9 9 -12 4 -4 18 -30 33 -60 15 -29 29 -56 31 -58 5 -6 17 -28 44 -83 7
-16 16 -31 19 -34 5 -4 41 -75 41 -79 0 -2 4 -7 9 -12 8 -9 20 -33 47 -90 5
-10 12 -22 17 -27 5 -6 9 -11 9 -12 0 -1 15 -34 29 -62 8 -17 31 -25 47 -16
15 8 14 57 -1 75 -7 9 -18 29 -48 88 -5 11 -12 23 -15 27 -4 3 -9 11 -11 17
-3 6 -6 12 -7 12 -1 1 -2 5 -3 11 -2 10 -6 19 -13 25 -3 2 -9 13 -14 25 -13
27 -18 36 -27 53 -4 8 -12 22 -17 32 -5 10 -12 21 -15 25 -5 6 -7 10 -8 18 -1
9 -3 12 -10 20 -5 5 -10 13 -12 17 -2 4 -6 11 -10 16 -4 4 -14 21 -22 38 -8
16 -18 33 -22 37 -7 8 -19 33 -19 41 0 7 -4 15 -11 21 -2 2 -6 8 -8 13 -2 4
-5 10 -7 13 -2 3 -4 7 -5 10 -6 19 -32 30 -52 22z"/>
<path d="M1193 744 c-6 -2 -7 -4 -21 -34 -6 -15 -15 -32 -18 -39 -4 -7 -9 -17
-12 -23 -3 -6 -9 -14 -12 -18 -4 -5 -7 -11 -8 -17 -1 -6 -5 -16 -9 -24 -4 -8
-9 -18 -11 -23 -3 -5 -10 -14 -16 -21 -14 -15 -16 -18 -16 -31 0 -13 -3 -19
-13 -30 -5 -6 -9 -11 -9 -13 0 -1 -4 -7 -9 -13 -9 -10 -13 -20 -13 -29 0 -2
-1 -6 -3 -8 -1 -2 -6 -12 -10 -21 -4 -9 -9 -19 -11 -22 -2 -3 -5 -10 -6 -16
-1 -8 -4 -13 -9 -18 -8 -9 -13 -19 -13 -27 0 -4 -5 -17 -13 -30 -1 -2 -16 -31
-33 -65 -18 -36 -33 -64 -37 -68 -16 -17 -18 -57 -3 -65 26 -13 46 -1 66 40
15 31 72 146 82 166 19 38 129 261 151 307 16 35 24 42 30 30 2 -3 6 -9 9 -13
4 -4 18 -31 33 -60 15 -29 29 -55 31 -58 2 -3 9 -14 15 -26 6 -12 13 -24 14
-27 5 -10 23 -48 23 -50 0 0 4 -6 9 -11 7 -9 41 -73 41 -79 0 -1 4 -7 9 -13 5
-6 14 -21 20 -33 14 -28 33 -68 33 -70 0 -1 4 -6 9 -11 8 -10 19 -30 36 -69
11 -25 22 -31 46 -26 20 5 25 54 7 76 -5 5 -12 18 -18 28 -5 10 -12 24 -16 31
-12 23 -22 43 -22 44 0 2 -3 6 -8 11 -9 10 -21 36 -23 47 -1 5 -4 10 -9 16 -4
5 -16 25 -28 49 -33 66 -41 81 -48 91 -5 6 -8 12 -9 19 -1 8 -3 12 -11 21 -5
6 -10 13 -11 15 -1 3 -5 9 -8 14 -4 4 -14 21 -22 38 -9 16 -18 32 -22 36 -8 9
-18 30 -20 43 -1 6 -4 12 -10 19 -7 10 -19 31 -22 41 -4 16 -35 27 -52 19z"/>
</g>
</svg>
