<?xml version="1.0" standalone="no"?>
<!DOCTYPE svg PUBLIC "-//W3C//DTD SVG 20010904//EN"
 "http://www.w3.org/TR/2001/REC-SVG-20010904/DTD/svg10.dtd">
<svg version="1.0" xmlns="http://www.w3.org/2000/svg"
 width="100.000000pt" height="70.000000pt" viewBox="0 0 100.000000 70.000000"
 preserveAspectRatio="xMidYMid meet">
<metadata>
Created by potrace 1.16, written by Peter Selinger 2001-2019
</metadata>
<g transform="translate(0.000000,70.000000) scale(0.100000,-0.100000)"
fill="#000000" stroke="none">
<path d="M244 452 c-6 -4 -55 -92 -109 -195 -90 -175 -96 -190 -81 -205 15
-15 17 -15 34 3 10 11 50 86 88 167 38 82 74 146 79 145 6 -2 46 -71 90 -155
85 -161 97 -178 114 -168 28 17 14 49 -127 298 -59 105 -72 121 -88 110z"/>
<path d="M707 427 c-37 -57 -178 -351 -175 -365 9 -45 37 -8 116 146 46 89 87
160 92 157 5 -3 46 -75 90 -160 45 -85 86 -158 92 -161 17 -11 40 20 31 42 -4
11 -51 98 -103 192 -99 178 -113 194 -143 149z"/>
</g>
</svg>
