<?xml version="1.0" standalone="no"?>
<!DOCTYPE svg PUBLIC "-//W3C//DTD SVG 20010904//EN"
 "http://www.w3.org/TR/2001/REC-SVG-20010904/DTD/svg10.dtd">
<svg version="1.0" xmlns="http://www.w3.org/2000/svg"
 width="206.000000pt" height="144.000000pt" viewBox="0 0 206.000000 144.000000"
 preserveAspectRatio="xMidYMid meet">
<metadata>
Created by potrace 1.16, written by Peter Selinger 2001-2019
</metadata>
<g transform="translate(0.000000,144.000000) scale(0.100000,-0.100000)"
fill="#000000" stroke="none">
<path d="M469 858 c-17 -35 -37 -70 -44 -78 -7 -8 -15 -27 -19 -42 -3 -14 -17
-40 -31 -56 -14 -17 -25 -38 -25 -48 0 -11 -14 -37 -30 -58 -17 -22 -30 -44
-30 -49 0 -22 -148 -323 -167 -338 -7 -6 -13 -27 -13 -45 0 -32 2 -34 33 -34
l32 1 170 342 c94 188 175 342 180 341 6 0 26 -32 46 -70 37 -70 77 -142 238
-434 23 -41 53 -99 66 -127 22 -46 29 -53 55 -53 28 0 30 3 30 37 0 20 -6 44
-14 52 -8 9 -26 41 -42 71 -15 30 -36 67 -46 82 -10 14 -18 32 -18 39 0 7 -6
20 -14 28 -7 9 -35 59 -61 111 -27 52 -56 106 -66 120 -23 35 -56 91 -105 185
-34 65 -47 81 -67 83 -23 3 -30 -4 -58 -60z"/>
<path d="M1470 875 c-11 -26 -29 -60 -40 -75 -11 -16 -20 -33 -20 -40 0 -6
-16 -35 -35 -64 -19 -29 -35 -58 -35 -65 0 -6 -10 -28 -23 -49 -31 -49 -67
-128 -67 -146 0 -8 -7 -16 -15 -20 -8 -3 -15 -12 -15 -21 0 -19 -87 -193 -106
-213 -9 -8 -14 -26 -12 -41 3 -22 8 -26 35 -26 31 0 32 1 192 325 187 377 179
362 191 355 5 -3 32 -49 61 -103 130 -244 150 -279 177 -323 22 -36 78 -141
115 -217 19 -38 25 -43 52 -40 27 3 30 6 27 36 -3 28 -25 75 -83 172 -5 8 -29
56 -55 105 -60 116 -94 178 -160 288 -30 49 -54 94 -54 99 0 6 -8 22 -17 36
-10 15 -23 36 -29 47 -6 11 -23 21 -38 23 -23 3 -29 -3 -46 -43z"/>
</g>
</svg>
