<?xml version="1.0" standalone="no"?>
<!DOCTYPE svg PUBLIC "-//W3C//DTD SVG 20010904//EN"
 "http://www.w3.org/TR/2001/REC-SVG-20010904/DTD/svg10.dtd">
<svg version="1.0" xmlns="http://www.w3.org/2000/svg"
 width="106.000000pt" height="148.000000pt" viewBox="0 0 106.000000 148.000000"
 preserveAspectRatio="xMidYMid meet">
<metadata>
Created by potrace 1.16, written by Peter Selinger 2001-2019
</metadata>
<g transform="translate(0.000000,148.000000) scale(0.100000,-0.100000)"
fill="#000000" stroke="none">
<path d="M446 866 c-36 -73 -72 -139 -81 -146 -8 -7 -15 -21 -15 -32 0 -11
-13 -39 -30 -63 -16 -24 -30 -46 -30 -49 0 -8 -39 -97 -51 -116 -5 -8 -12 -22
-15 -30 -17 -46 -111 -233 -121 -242 -16 -13 -17 -74 -2 -83 5 -4 20 -4 33 -1
17 4 52 67 171 308 82 167 164 336 182 376 20 42 39 72 46 69 10 -3 124 -205
227 -402 17 -33 51 -96 76 -140 25 -44 59 -111 77 -148 28 -60 35 -68 57 -65
20 2 26 9 28 36 3 32 -13 68 -117 262 -16 30 -55 105 -86 165 -31 61 -79 146
-106 190 -27 44 -54 91 -60 105 -6 14 -15 32 -20 40 -5 8 -14 26 -20 40 -6 14
-18 33 -26 42 -34 38 -49 23 -117 -116z"/>
</g>
</svg>
