<?xml version="1.0" standalone="no"?>
<!DOCTYPE svg PUBLIC "-//W3C//DTD SVG 20010904//EN"
 "http://www.w3.org/TR/2001/REC-SVG-20010904/DTD/svg10.dtd">
<svg version="1.0" xmlns="http://www.w3.org/2000/svg"
 width="72.000000pt" height="100.000000pt" viewBox="0 0 72.000000 100.000000"
 preserveAspectRatio="xMidYMid meet">
<metadata>
Created by potrace 1.16, written by Peter Selinger 2001-2019
</metadata>
<g transform="translate(0.000000,100.000000) scale(0.100000,-0.100000)"
fill="#000000" stroke="none">
<path d="M342 668 c-6 -8 -72 -135 -147 -283 -137 -273 -153 -320 -110 -320
24 0 39 26 167 295 54 113 102 206 108 208 5 2 17 -9 26 -25 96 -175 234 -435
234 -442 0 -4 9 -16 20 -26 16 -15 22 -15 35 -5 8 7 15 19 15 27 0 13 -128
256 -263 498 -44 80 -64 97 -85 73z"/>
</g>
</svg>
