<?xml version="1.0" standalone="no"?>
<!DOCTYPE svg PUBLIC "-//W3C//DTD SVG 20010904//EN"
 "http://www.w3.org/TR/2001/REC-SVG-20010904/DTD/svg10.dtd">
<svg version="1.0" xmlns="http://www.w3.org/2000/svg"
 width="426.000000pt" height="590.000000pt" viewBox="0 0 426.000000 590.000000"
 preserveAspectRatio="xMidYMid meet">
<metadata>
Created by potrace 1.16, written by Peter Selinger 2001-2019
</metadata>
<g transform="translate(0.000000,590.000000) scale(0.500000,-0.500000)"
fill="#000000" stroke="none">
<path d="M417 798 c-8 -2 -12 -5 -14 -11 -3 -10 -33 -72 -40 -83 -3 -4 -5 -9
-6 -12 -1 -3 -5 -10 -10 -16 -5 -6 -9 -12 -10 -15 0 -2 -1 -8 -2 -12 -1 -4 -3
-10 -5 -13 -2 -3 -4 -8 -5 -11 -2 -3 -5 -10 -8 -14 -3 -4 -5 -9 -5 -10 0 -2
-7 -11 -16 -20 -16 -18 -18 -21 -18 -40 0 -10 -1 -12 -10 -22 -5 -5 -10 -13
-12 -17 -1 -4 -7 -11 -12 -17 -9 -11 -12 -16 -12 -25 0 -6 -17 -43 -30 -66 -2
-4 -4 -10 -4 -15 0 -6 -2 -9 -9 -17 -10 -11 -12 -14 -14 -27 -1 -6 -8 -22 -20
-47 -16 -30 -38 -72 -50 -98 -2 -3 -5 -11 -9 -17 -3 -7 -8 -15 -12 -17 -29
-24 -18 -73 17 -73 29 0 31 2 64 73 5 12 14 29 19 40 5 10 10 21 12 24 1 3 3
7 5 10 3 5 5 10 39 79 11 22 21 41 22 43 1 2 7 15 14 29 13 27 26 54 31 63 2
3 4 7 5 10 2 3 7 13 11 22 5 9 11 23 15 31 7 15 21 44 31 62 5 10 18 37 25 51
30 65 38 75 45 57 1 -3 6 -10 10 -15 5 -5 12 -17 17 -27 4 -10 9 -19 10 -21 1
-2 5 -8 8 -15 3 -7 7 -13 8 -15 3 -6 16 -33 16 -35 0 -2 3 -6 8 -11 4 -5 10
-13 12 -19 3 -5 12 -23 20 -38 7 -15 18 -37 23 -47 5 -10 11 -22 15 -25 5 -5
34 -59 34 -64 0 -1 2 -4 4 -7 2 -3 5 -9 6 -13 1 -4 6 -12 11 -17 5 -5 11 -13
13 -18 2 -5 5 -11 7 -14 3 -5 7 -13 12 -24 1 -3 4 -10 8 -16 3 -6 5 -11 5 -13
0 -1 2 -5 5 -9 3 -4 5 -10 6 -13 1 -3 6 -11 12 -17 6 -7 11 -14 12 -17 1 -3 4
-9 6 -13 3 -4 5 -8 5 -9 0 -2 4 -11 19 -41 11 -23 39 -31 55 -15 11 11 8 62
-5 76 -5 4 -12 16 -17 26 -4 10 -10 20 -11 23 -2 3 -5 10 -8 15 -3 6 -6 11 -7
12 -1 1 -3 4 -4 9 -1 4 -4 9 -6 12 -2 3 -4 8 -6 12 -1 3 -6 11 -10 16 -4 5 -9
13 -11 17 -2 5 -5 10 -7 13 -2 3 -5 11 -5 16 -1 9 -3 12 -12 23 -6 6 -11 12
-11 14 0 2 -10 24 -15 32 -1 2 -3 8 -5 12 -2 4 -5 10 -7 12 -7 13 -33 64 -33
66 0 1 -4 6 -9 12 -7 8 -9 12 -10 20 -2 11 -5 18 -14 25 -3 3 -8 10 -11 17 -3
7 -8 14 -11 17 -3 2 -12 19 -20 36 -10 20 -19 35 -26 42 -5 6 -10 13 -10 16
-1 3 -4 9 -6 13 -3 5 -5 11 -5 15 0 8 -3 15 -12 26 -7 8 -24 40 -24 45 0 13
-30 24 -51 19z"/>
</g>
</svg>
