<?xml version="1.0" standalone="no"?>
<!DOCTYPE svg PUBLIC "-//W3C//DTD SVG 20010904//EN"
 "http://www.w3.org/TR/2001/REC-SVG-20010904/DTD/svg10.dtd">
<svg version="1.0" xmlns="http://www.w3.org/2000/svg"
 width="474.000000pt" height="590.000000pt" viewBox="0 0 474.000000 590.000000"
 preserveAspectRatio="xMidYMid meet">
<metadata>
Created by potrace 1.16, written by Peter Selinger 2001-2019
</metadata>
<g transform="translate(0.000000,590.000000) scale(0.500000,-0.500000)"
fill="#000000" stroke="none">
<path d="M432 921 c-7 -4 -11 -11 -24 -40 -6 -12 -26 -53 -44 -90 -18 -37 -35
-72 -36 -76 -3 -10 -19 -41 -28 -55 -3 -6 -8 -15 -10 -21 -8 -24 -40 -82 -49
-91 -9 -9 -9 -10 -11 -22 -1 -11 -7 -24 -47 -103 -24 -50 -46 -94 -47 -99 -3
-11 -8 -22 -17 -35 -4 -5 -8 -13 -9 -17 -1 -4 -14 -31 -28 -59 -49 -96 -41
-135 24 -112 6 2 8 5 19 26 31 62 73 149 74 154 1 3 32 68 70 143 92 185 114
231 120 247 6 18 63 133 68 137 5 4 9 -1 23 -28 7 -13 15 -28 18 -33 3 -5 13
-24 22 -42 9 -19 19 -38 22 -42 3 -5 14 -25 24 -45 10 -19 20 -39 22 -42 3 -4
12 -21 20 -38 9 -17 19 -36 23 -43 4 -6 14 -25 22 -41 9 -17 19 -37 23 -44 5
-7 17 -30 28 -51 11 -21 22 -42 25 -46 3 -4 12 -22 20 -39 9 -17 18 -35 22
-40 3 -5 14 -25 23 -45 10 -20 21 -40 25 -46 4 -5 9 -16 13 -23 10 -21 34 -29
59 -20 18 7 12 62 -12 96 -4 6 -14 24 -22 41 -9 16 -20 37 -25 46 -5 9 -15 27
-22 41 -6 14 -16 33 -22 42 -6 9 -18 31 -26 49 -9 17 -18 34 -20 38 -8 10 -22
37 -27 50 -2 7 -10 21 -17 32 -8 11 -21 36 -31 55 -9 18 -19 37 -22 41 -3 3
-7 12 -9 18 -2 6 -6 14 -9 18 -2 3 -8 13 -12 21 -4 8 -10 19 -13 23 -3 4 -12
22 -21 39 -9 17 -20 39 -26 48 -6 9 -16 28 -22 41 -10 22 -31 62 -39 74 -7 11
-48 16 -62 8z"/>
<path d="M383 308 c-18 -4 -17 4 -17 -135 0 -147 -2 -140 43 -134 25 3 23 -6
23 137 -1 145 0 142 -49 132z"/>
<path d="M511 304 c-9 -5 -9 -7 -9 -133 1 -142 -2 -128 29 -129 40 -1 37 -12
37 131 0 128 0 127 -11 131 -7 3 -41 2 -46 0z"/>
</g>
</svg>
