<?xml version="1.0" standalone="no"?>
<!DOCTYPE svg PUBLIC "-//W3C//DTD SVG 20010904//EN"
 "http://www.w3.org/TR/2001/REC-SVG-20010904/DTD/svg10.dtd">
<svg version="1.0" xmlns="http://www.w3.org/2000/svg"
 width="118.000000pt" height="148.000000pt" viewBox="0 0 118.000000 148.000000"
 preserveAspectRatio="xMidYMid meet">
<metadata>
Created by potrace 1.16, written by Peter Selinger 2001-2019
</metadata>
<g transform="translate(0.000000,148.000000) scale(0.100000,-0.100000)"
fill="#000000" stroke="none">
<path d="M542 1153 c-8 -3 -28 -37 -47 -77 -89 -192 -188 -391 -196 -394 -5
-2 -9 -10 -9 -17 0 -7 -52 -120 -116 -250 -126 -260 -134 -288 -76 -293 l33
-3 103 213 c56 117 126 261 155 319 28 59 78 165 109 235 32 70 63 129 68 131
5 2 31 -39 56 -89 59 -115 167 -321 212 -402 18 -34 66 -124 106 -201 109
-208 103 -200 135 -203 29 -4 45 10 45 41 0 9 -40 92 -90 183 -49 90 -90 167
-90 169 0 3 -24 49 -54 102 -54 100 -101 188 -209 393 -79 151 -89 162 -135
143z"/>
<path d="M454 367 c-2 -7 -3 -80 -2 -162 l3 -150 39 0 38 0 -1 155 c0 85 -1
158 -1 163 0 13 -70 8 -76 -6z"/>
<path d="M625 368 c-3 -8 -4 -81 -3 -163 l3 -150 38 -3 38 -3 -3 163 -3 163
-33 3 c-20 2 -34 -2 -37 -10z"/>
</g>
</svg>
