<?xml version="1.0" standalone="no"?>
<!DOCTYPE svg PUBLIC "-//W3C//DTD SVG 20010904//EN"
 "http://www.w3.org/TR/2001/REC-SVG-20010904/DTD/svg10.dtd">
<svg version="1.0" xmlns="http://www.w3.org/2000/svg"
 width="80.000000pt" height="100.000000pt" viewBox="0 0 80.000000 100.000000"
 preserveAspectRatio="xMidYMid meet">
<metadata>
Created by potrace 1.16, written by Peter Selinger 2001-2019
</metadata>
<g transform="translate(0.000000,100.000000) scale(0.100000,-0.100000)"
fill="#000000" stroke="none">
<path d="M204 463 c-85 -175 -158 -332 -161 -349 -6 -38 17 -51 45 -26 18 16
213 413 262 535 13 31 28 57 34 57 6 0 80 -133 164 -294 84 -162 159 -299 167
-306 22 -19 48 6 42 39 -3 14 -48 105 -100 201 -52 96 -128 238 -168 315 -110
209 -92 220 -285 -172z"/>
<path d="M310 250 c-17 -32 -10 -208 9 -219 35 -22 42 -3 39 118 -3 99 -5 116
-20 119 -9 2 -22 -6 -28 -18z"/>
<path d="M427 253 c-10 -9 -8 -196 2 -211 5 -8 17 -12 27 -10 17 3 19 15 22
116 3 112 3 112 -21 112 -13 0 -27 -3 -30 -7z"/>
</g>
</svg>
