<?xml version="1.0" standalone="no"?>
<!DOCTYPE svg PUBLIC "-//W3C//DTD SVG 20010904//EN"
 "http://www.w3.org/TR/2001/REC-SVG-20010904/DTD/svg10.dtd">
<svg version="1.0" xmlns="http://www.w3.org/2000/svg"
 width="140.000000pt" height="148.000000pt" viewBox="0 0 140.000000 148.000000"
 preserveAspectRatio="xMidYMid meet">
<metadata>
Created by potrace 1.16, written by Peter Selinger 2001-2019
</metadata>
<g transform="translate(0.000000,148.000000) scale(0.100000,-0.100000)"
fill="#000000" stroke="none">
<path d="M643 1369 c-15 -28 -32 -59 -38 -68 -5 -9 -43 -74 -84 -146 -41 -71
-84 -143 -96 -160 -12 -16 -32 -50 -45 -75 -39 -78 -236 -416 -297 -512 -18
-27 -33 -63 -33 -78 0 -30 28 -87 64 -130 37 -44 66 -89 66 -102 0 -15 50 -48
73 -48 8 0 42 48 77 107 34 60 70 119 80 133 17 24 179 294 190 315 3 6 13 21
22 35 9 14 30 50 46 80 17 30 34 56 40 58 12 4 54 -52 93 -125 18 -32 37 -65
44 -73 6 -8 22 -36 34 -62 13 -27 26 -50 31 -53 13 -8 70 -113 70 -130 0 -9 7
-18 15 -21 8 -4 15 -17 15 -30 0 -14 7 -27 15 -30 8 -4 15 -12 15 -19 0 -8 11
-27 25 -43 14 -17 25 -35 25 -41 0 -17 70 -48 78 -35 4 6 34 50 66 100 32 49
67 99 78 110 10 12 20 30 20 40 1 11 -74 148 -165 306 -92 158 -172 299 -177
312 -5 14 -19 36 -32 51 -12 14 -48 74 -79 133 -126 237 -133 247 -172 250
-34 3 -38 0 -64 -49z m120 -159 c20 -38 37 -77 37 -87 0 -10 -13 -43 -28 -73
-25 -47 -33 -55 -57 -55 -25 0 -33 7 -54 50 -44 91 -45 95 -33 107 7 7 12 20
12 30 0 11 9 37 20 58 32 62 57 55 103 -30z m-134 -260 c23 -38 41 -72 41 -76
0 -11 -86 -138 -104 -153 -9 -7 -16 -19 -16 -25 0 -16 -126 -224 -166 -273
-19 -23 -34 -49 -34 -57 0 -18 -18 -52 -38 -74 -6 -7 -12 -18 -12 -23 0 -15
-44 -78 -58 -84 -13 -5 -51 31 -52 49 0 4 -11 21 -25 38 -14 16 -25 36 -25 44
0 21 32 81 97 181 31 49 79 131 106 183 27 52 58 104 68 115 9 11 29 43 44 70
14 28 29 57 34 65 4 8 16 31 26 50 23 46 44 63 61 49 7 -5 31 -41 53 -79z
m280 3 c7 -21 19 -45 27 -53 18 -22 104 -191 104 -206 0 -7 6 -17 13 -21 8 -4
17 -15 20 -23 4 -8 15 -27 25 -42 110 -171 132 -209 132 -230 0 -25 -68 -127
-85 -128 -10 0 -42 49 -95 145 -25 45 -94 161 -127 214 -13 20 -32 54 -44 76
-12 22 -44 73 -71 113 l-48 74 35 64 c54 97 84 101 114 17z"/>
</g>
</svg>
