<?xml version="1.0" standalone="no"?>
<!DOCTYPE svg PUBLIC "-//W3C//DTD SVG 20010904//EN"
 "http://www.w3.org/TR/2001/REC-SVG-20010904/DTD/svg10.dtd">
<svg version="1.0" xmlns="http://www.w3.org/2000/svg"
 width="95.000000pt" height="100.000000pt" viewBox="0 0 95.000000 100.000000"
 preserveAspectRatio="xMidYMid meet">
<metadata>
Created by potrace 1.16, written by Peter Selinger 2001-2019
</metadata>
<g transform="translate(0.000000,100.000000) scale(0.100000,-0.100000)"
fill="#000000" stroke="none">
<path d="M463 962 c-11 -7 -71 -107 -233 -387 -48 -82 -113 -192 -144 -243
-31 -51 -56 -100 -56 -110 0 -9 25 -54 55 -100 82 -122 78 -124 223 115 66
109 129 217 141 241 12 24 27 42 34 39 14 -4 52 -61 132 -202 97 -170 138
-230 160 -233 16 -2 34 17 79 82 38 56 56 91 52 102 -3 9 -42 75 -85 148 -43
72 -99 167 -123 211 -25 44 -58 103 -75 130 -17 28 -49 83 -72 122 -42 73 -68
98 -88 85z m54 -147 c25 -43 25 -81 -2 -122 -22 -33 -42 -28 -65 17 -24 47
-25 69 -5 116 19 46 42 42 72 -11z m-89 -176 l26 -46 -66 -104 c-126 -198
-141 -222 -170 -278 -52 -98 -67 -101 -103 -22 l-18 40 55 88 c31 48 69 113
85 143 17 30 46 80 64 111 19 32 42 71 51 89 24 42 45 36 76 -21z m217 -51
c26 -51 78 -142 116 -202 38 -61 69 -119 69 -129 0 -23 -37 -77 -53 -77 -7 0
-39 48 -72 107 -33 58 -88 149 -122 202 -44 67 -61 102 -56 116 9 31 43 75 58
75 7 0 34 -41 60 -92z"/>
</g>
</svg>
