<?xml version="1.0" standalone="no"?>
<!DOCTYPE svg PUBLIC "-//W3C//DTD SVG 20010904//EN"
 "http://www.w3.org/TR/2001/REC-SVG-20010904/DTD/svg10.dtd">
<svg version="1.0" xmlns="http://www.w3.org/2000/svg"
 width="560.000000pt" height="590.000000pt" viewBox="0 0 560.000000 590.000000"
 preserveAspectRatio="xMidYMid meet">
<metadata>
Created by potrace 1.16, written by Peter Selinger 2001-2019
</metadata>
<g transform="translate(0.000000,590.000000) scale(0.500000,-0.500000)"
fill="#000000" stroke="none">
<path d="M543 1134 c-4 -2 -9 -8 -11 -12 -3 -5 -7 -12 -9 -15 -3 -3 -10 -15
-16 -27 -6 -12 -13 -24 -16 -27 -2 -3 -8 -13 -13 -22 -5 -9 -10 -18 -13 -21
-2 -3 -10 -16 -16 -29 -6 -13 -13 -26 -16 -29 -2 -3 -10 -15 -16 -27 -6 -12
-14 -25 -16 -28 -3 -4 -9 -14 -13 -22 -3 -7 -9 -17 -11 -20 -3 -3 -10 -14 -15
-25 -10 -18 -21 -36 -36 -55 -3 -4 -7 -12 -9 -18 -2 -6 -5 -12 -7 -14 -3 -2
-10 -15 -16 -28 -7 -13 -15 -28 -19 -33 -3 -5 -11 -19 -18 -30 -6 -12 -12 -22
-13 -23 -1 -1 -6 -10 -11 -20 -5 -10 -11 -20 -13 -22 -2 -2 -9 -14 -15 -26 -6
-12 -15 -26 -19 -32 -4 -5 -12 -19 -17 -29 -5 -10 -13 -23 -17 -29 -5 -5 -8
-10 -8 -11 0 -5 -19 -39 -31 -56 -7 -11 -18 -29 -24 -41 -6 -12 -13 -25 -17
-30 -3 -4 -6 -9 -7 -12 -1 -2 -6 -9 -12 -16 -13 -13 -14 -17 -13 -43 1 -18 1
-20 8 -27 3 -5 7 -13 9 -18 1 -5 6 -13 10 -18 4 -5 7 -11 7 -12 0 -2 6 -9 13
-16 7 -8 15 -18 18 -23 13 -21 22 -33 29 -41 8 -9 9 -11 11 -25 1 -11 5 -14
15 -18 4 -1 9 -4 10 -7 8 -14 50 -13 57 2 2 3 5 8 7 10 2 2 7 11 12 20 4 8 12
20 16 27 4 6 10 15 12 20 3 5 7 11 9 14 3 4 8 13 13 23 4 9 9 17 11 19 2 2 7
10 11 18 4 9 10 19 14 22 3 4 9 13 13 21 4 8 10 16 12 19 3 3 8 12 12 20 4 8
10 18 13 22 4 3 9 12 12 19 3 7 9 18 13 23 3 5 9 14 13 21 3 7 8 15 11 18 2 3
8 13 12 21 4 8 10 18 13 22 3 4 6 8 6 9 0 2 3 7 7 12 4 5 10 16 15 25 4 8 9
16 11 18 2 1 6 7 8 12 3 5 8 11 10 15 3 3 10 16 16 29 6 12 13 25 15 27 1 2 6
10 10 17 11 23 29 23 36 0 2 -6 5 -10 11 -14 5 -4 10 -10 12 -14 2 -4 7 -11
10 -15 4 -4 9 -14 13 -21 4 -7 10 -18 14 -24 4 -6 10 -18 13 -25 3 -11 7 -18
14 -25 5 -6 9 -11 9 -13 0 -7 5 -18 13 -27 9 -10 10 -12 12 -26 1 -4 3 -9 4
-10 6 -5 24 -28 29 -38 3 -5 7 -10 9 -12 1 -1 6 -9 11 -18 4 -9 11 -20 14 -24
6 -7 7 -10 8 -23 1 -13 2 -16 6 -19 15 -10 16 -12 18 -28 2 -15 2 -15 12 -24
6 -6 10 -11 11 -15 3 -12 3 -13 14 -25 6 -7 11 -13 11 -14 0 -2 15 -25 22 -35
14 -18 51 -27 59 -15 3 4 9 11 13 15 4 5 11 16 16 25 5 9 12 20 16 25 4 4 9
11 11 14 3 4 7 9 10 11 6 5 12 16 15 29 2 6 6 13 13 21 6 7 11 13 11 14 0 1 5
7 11 14 20 23 20 50 -2 77 -4 4 -9 14 -13 21 -4 7 -9 17 -13 22 -4 5 -11 18
-16 28 -5 10 -12 22 -14 25 -3 3 -10 16 -16 29 -6 13 -14 26 -17 30 -3 4 -8
13 -12 19 -3 7 -9 16 -12 19 -3 4 -11 18 -18 31 -7 13 -14 26 -17 29 -2 3 -10
16 -16 29 -6 13 -14 26 -16 29 -2 3 -7 10 -10 15 -2 6 -8 15 -12 20 -4 5 -12
20 -18 32 -7 13 -14 26 -17 30 -8 9 -24 42 -24 49 0 10 -3 16 -12 20 -5 2 -10
7 -12 10 -1 4 -6 11 -10 16 -4 5 -12 19 -18 31 -6 12 -13 25 -16 29 -3 4 -12
20 -20 36 -8 16 -16 31 -18 33 -6 6 -16 27 -17 36 -1 5 -5 11 -12 19 -7 8 -11
15 -13 21 -1 4 -5 12 -8 16 -3 4 -7 12 -9 18 -2 5 -7 14 -12 19 -5 5 -10 13
-13 18 -9 16 -42 23 -59 12z m39 -119 c3 -4 10 -15 16 -27 6 -12 13 -23 15
-26 31 -32 35 -79 11 -108 -3 -5 -7 -12 -8 -17 -13 -54 -53 -60 -78 -12 -5 9
-10 18 -12 20 -6 6 -8 14 -8 27 0 11 -1 13 -7 19 -11 10 -11 24 1 34 6 6 6 7
7 23 4 48 43 89 63 67z m-110 -203 c6 -7 13 -19 17 -26 4 -8 10 -17 13 -20 3
-4 9 -14 13 -22 4 -8 10 -18 13 -22 11 -13 8 -32 -10 -55 -4 -5 -10 -15 -14
-22 -4 -7 -8 -14 -11 -17 -2 -3 -8 -12 -13 -21 -10 -18 -18 -28 -28 -33 -8 -4
-9 -6 -11 -20 -2 -11 -9 -25 -16 -32 -7 -6 -17 -22 -17 -26 0 -2 -3 -8 -7 -13
-3 -6 -10 -17 -14 -25 -4 -8 -9 -17 -11 -19 -2 -2 -7 -10 -11 -18 -4 -8 -10
-17 -13 -21 -3 -4 -7 -9 -8 -12 -1 -3 -7 -10 -12 -15 -5 -6 -11 -13 -13 -17
-2 -4 -9 -12 -15 -19 -16 -17 -17 -20 -19 -37 -1 -13 -2 -16 -9 -26 -4 -6 -9
-14 -11 -18 -2 -4 -6 -10 -10 -14 -4 -4 -9 -14 -13 -23 -3 -9 -9 -19 -12 -23
-3 -4 -7 -10 -9 -14 -10 -25 -36 -36 -44 -19 -2 3 -6 10 -10 14 -4 4 -8 12
-11 16 -2 4 -6 10 -9 13 -3 3 -7 8 -9 12 -3 4 -8 12 -12 18 -14 20 -5 55 25
96 4 6 10 14 11 17 2 3 9 13 15 21 11 14 25 40 25 45 0 1 3 5 7 9 4 3 8 9 9
14 2 8 6 12 18 22 3 2 6 6 6 8 0 7 12 33 18 39 7 7 9 12 14 26 2 6 6 14 9 17
2 4 13 24 23 44 13 27 20 39 24 41 10 7 16 14 19 24 2 6 5 13 10 17 9 9 12 15
14 28 1 9 3 12 15 26 15 17 15 18 17 32 1 6 4 14 8 20 4 6 9 15 12 20 6 13 19
21 31 22 4 0 8 -3 16 -12z m233 -8 c6 -5 30 -52 32 -64 1 -5 3 -9 8 -13 3 -2
9 -11 13 -18 4 -8 9 -17 12 -20 6 -7 18 -30 18 -35 0 -2 3 -7 7 -13 4 -5 7
-12 8 -16 2 -9 14 -31 20 -37 8 -7 11 -14 12 -29 2 -14 3 -17 16 -25 2 -2 6
-7 7 -11 2 -5 6 -12 13 -18 10 -9 11 -11 12 -21 2 -11 3 -13 17 -24 4 -3 7 -7
9 -15 2 -7 4 -11 9 -14 4 -2 6 -5 7 -10 2 -10 11 -25 21 -37 6 -6 13 -16 16
-23 4 -6 9 -16 13 -22 7 -9 7 -10 7 -31 l0 -22 -18 -27 c-18 -27 -38 -51 -43
-51 -6 0 -21 17 -27 29 -4 7 -9 16 -13 21 -4 6 -10 16 -14 24 -4 7 -9 16 -12
19 -2 3 -8 12 -11 20 -4 8 -10 18 -13 21 -2 4 -7 12 -10 17 -2 6 -10 18 -16
27 -6 9 -12 21 -14 27 -2 9 -5 14 -12 21 -5 5 -11 13 -13 17 -3 4 -7 10 -9 13
-3 3 -8 12 -12 20 -4 8 -10 18 -13 22 -3 4 -10 16 -16 27 -5 11 -12 23 -15 26
-2 3 -8 13 -13 22 -5 9 -11 19 -13 22 -3 3 -8 12 -12 19 -4 8 -10 17 -13 20
-3 4 -9 13 -13 21 -4 7 -10 17 -13 20 -11 12 -3 46 16 66 3 3 9 13 15 23 17
31 36 43 50 32z"/>
</g>
</svg>
