<?xml version="1.0" standalone="no"?>
<!DOCTYPE svg PUBLIC "-//W3C//DTD SVG 20010904//EN"
 "http://www.w3.org/TR/2001/REC-SVG-20010904/DTD/svg10.dtd">
<svg version="1.0" xmlns="http://www.w3.org/2000/svg"
 width="122.000000pt" height="148.000000pt" viewBox="0 0 122.000000 148.000000"
 preserveAspectRatio="xMidYMid meet">
<metadata>
Created by potrace 1.16, written by Peter Selinger 2001-2019
</metadata>
<g transform="translate(0.000000,148.000000) scale(0.100000,-0.100000)"
fill="#000000" stroke="none">
<path d="M685 1318 c-32 -57 -77 -134 -100 -173 -23 -38 -75 -126 -115 -195
-40 -69 -85 -145 -100 -170 -15 -25 -72 -121 -125 -215 -54 -93 -114 -192
-132 -220 -45 -67 -43 -95 12 -180 25 -39 48 -78 51 -87 3 -10 17 -21 31 -24
21 -6 31 -2 47 19 25 30 60 88 106 172 18 33 44 74 57 91 12 17 23 35 23 41 0
5 12 28 28 49 15 21 33 50 40 64 6 14 16 32 21 40 5 8 15 28 22 44 28 59 60
41 115 -64 46 -88 70 -128 86 -148 8 -9 36 -59 62 -111 60 -120 125 -195 172
-198 31 -2 37 4 89 74 30 41 55 83 55 93 0 9 -9 29 -21 44 -11 14 -33 50 -48
78 -15 29 -67 121 -116 203 -49 83 -102 175 -118 205 -17 30 -37 64 -46 75
-45 54 -46 69 -11 132 19 32 46 77 62 100 15 23 28 44 28 48 0 3 16 29 35 58
19 28 35 56 35 60 0 5 -15 27 -33 50 -19 23 -49 66 -67 95 -27 42 -39 52 -60
52 -24 0 -34 -12 -85 -102z m156 -85 c10 -19 5 -33 -43 -115 -31 -51 -63 -108
-72 -125 -9 -18 -18 -33 -21 -33 -6 0 -75 126 -75 138 0 6 17 39 39 74 21 35
51 85 66 112 l28 50 33 -40 c18 -21 39 -49 45 -61z m-211 -265 c36 -50 37 -74
5 -137 -38 -77 -59 -72 -98 22 -14 31 -14 40 0 79 15 43 39 78 54 78 5 0 22
-19 39 -42z m-110 -205 c16 -27 30 -54 30 -61 0 -7 -54 -104 -120 -215 -128
-215 -129 -216 -167 -286 -32 -58 -36 -62 -49 -53 -18 11 -64 98 -64 120 0 11
7 25 15 32 8 7 15 17 15 22 0 6 21 40 48 77 26 36 54 80 62 96 8 17 35 66 60
110 25 44 55 98 65 120 50 102 62 106 105 38z m211 20 c8 -10 39 -67 69 -128
29 -60 64 -124 77 -142 13 -17 23 -35 23 -39 0 -4 6 -15 14 -23 7 -9 28 -43
46 -76 18 -33 48 -78 67 -101 18 -23 33 -47 33 -53 0 -13 -54 -96 -69 -105 -4
-3 -48 61 -96 142 -88 148 -119 198 -213 349 l-52 81 21 46 c17 40 40 65 60
66 3 0 12 -8 20 -17z"/>
</g>
</svg>
