<?xml version="1.0" standalone="no"?>
<!DOCTYPE svg PUBLIC "-//W3C//DTD SVG 20010904//EN"
 "http://www.w3.org/TR/2001/REC-SVG-20010904/DTD/svg10.dtd">
<svg version="1.0" xmlns="http://www.w3.org/2000/svg"
 width="486.000000pt" height="590.000000pt" viewBox="0 0 486.000000 590.000000"
 preserveAspectRatio="xMidYMid meet">
<metadata>
Created by potrace 1.16, written by Peter Selinger 2001-2019
</metadata>
<g transform="translate(0.000000,590.000000) scale(0.500000,-0.500000)"
fill="#000000" stroke="none">
<path d="M601 1138 c-7 -3 -12 -10 -41 -61 -16 -27 -30 -52 -32 -55 -2 -3 -12
-20 -22 -38 -20 -36 -57 -98 -66 -111 -3 -4 -10 -17 -15 -28 -6 -11 -15 -28
-21 -37 -6 -9 -13 -21 -16 -27 -4 -5 -8 -12 -11 -16 -2 -3 -10 -17 -17 -30 -7
-13 -16 -29 -20 -35 -11 -19 -21 -36 -32 -55 -6 -10 -15 -24 -20 -32 -5 -8
-12 -19 -15 -26 -3 -7 -16 -29 -28 -49 -12 -20 -33 -57 -47 -81 -14 -24 -31
-53 -37 -63 -6 -10 -15 -25 -20 -33 -4 -8 -13 -22 -19 -32 -6 -10 -15 -26 -21
-35 -5 -9 -13 -23 -18 -30 -28 -43 -25 -72 15 -127 14 -19 34 -52 41 -68 16
-35 62 -33 80 4 11 24 21 39 33 52 5 6 10 13 11 16 2 9 5 15 11 23 4 5 8 14
11 21 5 14 36 68 46 79 7 7 26 41 33 57 5 11 18 32 27 41 5 5 8 10 9 17 3 13
10 24 22 35 10 9 11 10 13 24 5 24 24 50 37 50 11 0 32 -27 53 -64 3 -6 8 -14
11 -19 3 -5 7 -13 7 -17 2 -9 6 -17 10 -19 2 0 6 -6 9 -13 3 -6 7 -12 8 -13 1
-1 6 -9 10 -19 5 -9 11 -20 15 -25 6 -8 21 -32 36 -58 4 -6 8 -16 9 -22 1 -6
4 -12 10 -18 6 -7 8 -12 10 -21 2 -9 4 -13 9 -18 4 -4 8 -10 10 -17 2 -8 7
-14 25 -34 13 -13 25 -28 28 -33 18 -30 19 -31 55 -31 38 0 30 -7 95 86 32 45
33 43 -16 113 -2 3 -5 9 -6 13 -2 9 -15 31 -46 83 -12 20 -30 51 -39 67 -10
17 -23 39 -30 51 -25 43 -45 76 -59 99 -24 40 -34 57 -38 69 -3 5 -10 17 -16
25 -6 8 -16 22 -22 32 -5 10 -11 21 -13 24 -4 7 -4 7 1 17 3 6 7 15 9 20 2 5
7 13 11 18 3 5 8 12 10 17 4 9 42 70 50 81 3 4 7 11 9 15 4 10 27 47 44 74 22
31 22 32 1 53 -7 7 -16 17 -18 22 -3 5 -9 14 -15 20 -6 7 -11 14 -12 17 -1 3
-5 11 -9 16 -11 15 -21 29 -26 39 -9 15 -37 26 -51 20z m48 -124 c35 -46 36
-35 -13 -119 -6 -10 -22 -38 -36 -63 -36 -65 -37 -66 -46 -46 -3 6 -10 18 -16
27 -12 18 -32 59 -32 66 0 4 7 16 29 54 7 11 19 31 27 45 55 94 45 90 87 36z
m-165 -214 c1 -1 5 -6 9 -11 46 -67 46 -72 4 -141 -15 -24 -26 -29 -37 -17 -6
7 -24 42 -26 51 -1 5 -5 13 -7 18 -6 13 -6 17 1 30 3 6 6 15 7 20 4 33 31 61
49 50z m-91 -158 c30 -31 51 -82 42 -98 -9 -15 -53 -88 -58 -95 -2 -3 -6 -11
-9 -17 -3 -6 -10 -16 -14 -24 -12 -19 -33 -54 -46 -78 -7 -12 -17 -27 -22 -35
-5 -8 -11 -17 -14 -21 -2 -4 -6 -9 -8 -11 -2 -2 -5 -8 -7 -14 -4 -14 -61 -111
-71 -123 -9 -9 -21 1 -34 28 -4 8 -10 19 -14 23 -6 7 -8 11 -8 16 0 5 -1 13
-3 18 -3 14 -1 22 10 33 6 6 10 13 12 18 2 6 8 16 17 27 8 10 17 23 20 29 8
15 19 31 31 42 5 6 9 11 9 12 0 7 5 18 10 25 3 4 8 13 9 19 2 6 7 16 13 24 7
9 11 16 12 24 2 6 5 13 7 16 7 9 25 36 25 39 0 2 4 7 9 13 5 6 9 12 10 17 2
10 5 17 16 31 5 7 9 15 10 20 1 8 16 35 24 44 6 6 15 5 22 -2z m189 -11 c2 -2
8 -9 12 -16 7 -11 9 -15 13 -31 1 -3 4 -9 7 -13 3 -3 7 -10 9 -15 2 -5 6 -12
9 -15 7 -8 10 -15 10 -22 0 -2 2 -7 4 -11 2 -4 6 -12 9 -18 3 -6 9 -15 12 -20
4 -5 9 -16 12 -25 3 -11 7 -18 11 -21 3 -3 7 -9 10 -13 2 -4 6 -11 10 -14 3
-3 6 -8 7 -13 1 -5 4 -10 8 -15 4 -3 9 -10 12 -15 2 -5 6 -11 9 -13 2 -2 4 -5
4 -6 0 -4 23 -47 32 -61 4 -7 10 -16 12 -21 2 -4 7 -12 12 -16 8 -8 38 -49 41
-56 3 -8 -48 -83 -57 -83 -4 0 -12 10 -20 24 -4 7 -26 43 -48 80 -22 37 -45
75 -51 85 -5 10 -12 21 -14 24 -3 3 -7 11 -10 18 -3 6 -8 15 -12 20 -3 4 -9
12 -12 17 -27 43 -41 65 -48 78 -4 9 -16 27 -25 41 -41 62 -44 70 -30 93 4 7
8 17 9 22 4 22 37 42 53 31z"/>
</g>
</svg>
