<?xml version="1.0" standalone="no"?>
<!DOCTYPE svg PUBLIC "-//W3C//DTD SVG 20010904//EN"
 "http://www.w3.org/TR/2001/REC-SVG-20010904/DTD/svg10.dtd">
<svg version="1.0" xmlns="http://www.w3.org/2000/svg"
 width="82.000000pt" height="100.000000pt" viewBox="0 0 82.000000 100.000000"
 preserveAspectRatio="xMidYMid meet">
<metadata>
Created by potrace 1.16, written by Peter Selinger 2001-2019
</metadata>
<g transform="translate(0.000000,100.000000) scale(0.100000,-0.100000)"
fill="#000000" stroke="none">
<path d="M375 753 c-66 -114 -166 -287 -222 -383 -57 -96 -103 -183 -103 -194
0 -20 54 -113 77 -132 8 -7 22 -10 32 -7 18 4 97 130 181 286 23 42 45 79 49
82 13 7 32 -21 96 -135 119 -214 146 -246 194 -233 24 6 81 84 81 111 0 16
-75 150 -216 384 -19 31 -34 63 -34 72 0 10 27 62 60 118 56 96 59 102 45 127
-37 66 -72 106 -96 109 -23 3 -35 -15 -144 -205z m175 94 c14 -26 13 -30 -20
-93 -45 -83 -57 -95 -77 -69 -27 38 -25 59 14 128 41 72 58 79 83 34z m-110
-241 c0 -13 -10 -36 -22 -51 l-22 -28 -18 23 c-23 28 -23 78 -1 109 l16 24 24
-27 c12 -15 23 -38 23 -50z m-86 -98 l18 -33 -70 -115 c-38 -63 -86 -145 -106
-183 -20 -37 -41 -67 -46 -67 -14 0 -40 42 -40 64 0 10 22 53 49 95 27 42 72
121 101 174 28 53 57 97 64 97 7 0 21 -15 30 -32z m172 -50 c40 -80 127 -229
156 -267 23 -31 23 -63 -1 -85 -24 -21 -17 -30 -151 196 -98 165 -104 181 -77
216 20 25 38 10 73 -60z"/>
</g>
</svg>
