<?xml version="1.0" standalone="no"?>
<!DOCTYPE svg PUBLIC "-//W3C//DTD SVG 20010904//EN"
 "http://www.w3.org/TR/2001/REC-SVG-20010904/DTD/svg10.dtd">
<svg version="1.0" xmlns="http://www.w3.org/2000/svg"
 width="114.000000pt" height="148.000000pt" viewBox="0 0 114.000000 148.000000"
 preserveAspectRatio="xMidYMid meet">
<metadata>
Created by potrace 1.16, written by Peter Selinger 2001-2019
</metadata>
<g transform="translate(0.000000,148.000000) scale(0.100000,-0.100000)"
fill="#000000" stroke="none">
<path d="M504 1383 c-8 -21 -24 -57 -35 -80 -10 -24 -35 -81 -54 -128 -20 -47
-62 -143 -94 -213 -32 -70 -68 -149 -81 -177 -13 -27 -59 -129 -103 -225 -72
-157 -81 -182 -85 -246 l-4 -72 58 -91 c52 -83 60 -91 88 -91 36 0 55 27 121
170 9 19 29 60 45 90 17 30 30 58 30 63 0 5 29 68 64 140 36 73 69 144 75 159
6 17 16 26 24 23 7 -3 32 -49 56 -103 24 -53 91 -194 149 -312 136 -273 125
-269 240 -91 45 70 82 135 82 144 0 9 -9 32 -20 52 -11 20 -43 86 -71 148 -28
62 -71 155 -96 207 -25 52 -56 118 -68 145 -12 28 -48 103 -79 168 -31 65 -56
120 -56 123 0 20 -104 216 -119 224 -35 18 -52 11 -67 -27z m70 -99 c12 -32 5
-66 -25 -127 -49 -96 -59 -109 -75 -96 -22 18 -17 45 29 145 41 91 58 111 71
78z m76 -171 c0 -8 -12 -35 -27 -61 -14 -26 -37 -68 -51 -95 -26 -52 -33 -53
-52 -7 -11 27 -10 33 8 53 11 12 32 47 47 77 39 79 46 86 62 64 7 -10 13 -24
13 -31z m70 -150 c35 -76 35 -75 -28 -191 -50 -94 -50 -94 -98 -3 l-28 53 38
72 c49 89 76 136 82 136 2 0 17 -30 34 -67z m-242 -65 l48 -97 -18 -36 c-10
-19 -24 -35 -31 -35 -6 0 -36 37 -64 81 l-53 79 25 56 c14 31 29 54 35 52 5
-1 31 -47 58 -100z m-88 -163 c27 -41 50 -78 50 -83 0 -25 -52 -120 -63 -116
-17 7 -107 124 -107 139 0 7 7 30 16 51 9 22 20 49 25 62 5 12 13 22 18 22 6
0 33 -34 61 -75z m428 20 c12 -25 22 -52 22 -59 0 -20 -110 -177 -119 -172 -4
3 -16 24 -26 46 l-19 42 34 61 c49 93 71 127 79 127 4 0 17 -20 29 -45z m80
-170 c16 -35 15 -80 -1 -94 -8 -6 -26 -35 -41 -65 -41 -81 -51 -86 -75 -37
-12 22 -21 46 -21 53 0 19 101 168 115 168 6 0 17 -11 23 -25z m-599 -59 l52
-65 -26 -50 c-14 -28 -29 -51 -33 -51 -5 0 -30 29 -56 65 l-48 65 17 50 c9 28
22 50 29 50 7 0 36 -29 65 -64z m686 -126 c10 -23 18 -46 18 -53 0 -19 -96
-167 -109 -167 -9 0 -54 81 -54 99 0 12 110 161 119 161 4 0 16 -18 26 -40z
m-776 -43 c22 -35 41 -71 41 -80 0 -25 -42 -107 -55 -107 -16 0 -39 27 -64 77
-23 47 -27 84 -10 116 11 20 39 57 44 57 2 0 21 -28 44 -63z"/>
</g>
</svg>
