<?xml version="1.0" standalone="no"?>
<!DOCTYPE svg PUBLIC "-//W3C//DTD SVG 20010904//EN"
 "http://www.w3.org/TR/2001/REC-SVG-20010904/DTD/svg10.dtd">
<svg version="1.0" xmlns="http://www.w3.org/2000/svg"
 width="77.000000pt" height="100.000000pt" viewBox="0 0 77.000000 100.000000"
 preserveAspectRatio="xMidYMid meet">
<metadata>
Created by potrace 1.16, written by Peter Selinger 2001-2019
</metadata>
<g transform="translate(0.000000,100.000000) scale(0.100000,-0.100000)"
fill="#000000" stroke="none">
<path d="M346 951 c-3 -5 -35 -76 -70 -157 -35 -82 -103 -234 -151 -339 -111
-241 -115 -266 -56 -354 44 -64 66 -74 94 -43 17 19 144 278 175 357 11 28 25
50 32 50 7 0 55 -90 107 -200 52 -110 100 -206 108 -214 19 -20 36 -4 97 89
36 54 48 82 45 100 -3 14 -49 119 -104 235 -55 116 -124 264 -153 330 -30 66
-60 128 -68 138 -16 18 -47 23 -56 8z m44 -106 c0 -29 -31 -95 -53 -114 -29
-23 -30 10 -2 75 28 66 55 85 55 39z m46 -90 c6 -16 -34 -93 -60 -114 -28 -23
-31 16 -6 62 39 70 55 83 66 52z m49 -105 c8 -16 15 -37 15 -47 -1 -23 -52
-118 -64 -118 -6 0 -19 15 -30 34 l-19 33 31 64 c18 35 36 64 42 64 5 0 16
-13 25 -30z m-154 -63 c20 -50 21 -59 8 -72 -18 -18 -30 -10 -63 43 -27 43
-28 69 -3 100 14 18 29 1 58 -71z m-71 -89 c34 -46 37 -73 14 -107 l-16 -22
-23 21 c-39 37 -49 72 -31 114 8 20 17 36 20 36 3 0 19 -19 36 -42z m290 13
c5 -11 10 -27 10 -36 0 -24 -60 -107 -73 -102 -22 7 -18 55 8 106 27 55 39 62
55 32z m60 -136 c0 -28 -23 -79 -48 -107 -11 -14 -18 -15 -29 -7 -25 21 -13
70 30 117 27 29 47 28 47 -3z m-404 -25 c23 -35 25 -44 16 -65 -15 -33 -36
-32 -61 4 -21 29 -26 57 -15 85 10 27 32 18 60 -24z m464 -109 c-1 -27 -48
-104 -65 -105 -14 -1 -33 43 -28 64 3 9 18 34 35 54 24 29 33 34 44 25 8 -6
14 -23 14 -38z m-531 3 c11 -14 23 -34 26 -44 7 -21 -20 -80 -35 -80 -30 0
-62 108 -40 135 17 21 25 19 49 -11z"/>
</g>
</svg>
