<?xml version="1.0" standalone="no"?>
<!DOCTYPE svg PUBLIC "-//W3C//DTD SVG 20010904//EN"
 "http://www.w3.org/TR/2001/REC-SVG-20010904/DTD/svg10.dtd">
<svg version="1.0" xmlns="http://www.w3.org/2000/svg"
 width="456.000000pt" height="590.000000pt" viewBox="0 0 456.000000 590.000000"
 preserveAspectRatio="xMidYMid meet">
<metadata>
Created by potrace 1.16, written by Peter Selinger 2001-2019
</metadata>
<g transform="translate(0.000000,590.000000) scale(0.500000,-0.500000)"
fill="#000000" stroke="none">
<path d="M420 1130 c-10 -11 -18 -25 -21 -39 -3 -11 -7 -18 -19 -40 -3 -5 -7
-14 -9 -19 -1 -5 -5 -14 -9 -19 -3 -5 -6 -12 -6 -14 0 -7 -7 -27 -13 -35 -5
-8 -11 -22 -16 -40 -1 -5 -5 -13 -9 -19 -3 -5 -7 -14 -8 -18 -1 -5 -6 -17 -10
-26 -5 -10 -15 -32 -23 -50 -17 -37 -39 -85 -47 -102 -8 -17 -25 -55 -46 -101
-10 -21 -28 -62 -41 -90 -12 -28 -31 -70 -42 -94 -11 -24 -22 -49 -25 -55 -3
-7 -12 -27 -20 -45 l-15 -33 -1 -43 c-1 -59 76 -202 106 -197 4 0 12 0 18 -1
12 -3 17 -1 26 15 6 11 14 19 27 31 3 3 5 6 5 10 0 11 8 33 14 38 6 5 13 21
17 42 1 6 4 14 6 17 3 2 6 7 8 11 2 3 6 8 10 10 7 4 19 30 19 41 0 5 5 13 13
25 5 6 7 12 9 22 2 12 7 23 25 60 13 25 38 76 57 115 48 98 41 97 79 15 29
-61 67 -140 93 -193 25 -52 90 -186 103 -215 14 -29 22 -36 43 -36 17 0 17 0
50 51 51 78 63 97 81 124 22 34 25 49 13 66 -3 4 -8 13 -11 19 -2 6 -10 23
-17 38 -8 15 -19 39 -26 54 -7 15 -17 36 -21 46 -5 10 -18 37 -28 59 -10 22
-26 56 -35 75 -57 121 -77 164 -87 186 -6 14 -18 39 -27 57 -37 76 -51 106
-55 125 -2 9 -6 16 -11 23 -7 10 -13 22 -26 54 -3 8 -9 19 -13 26 -4 7 -7 13
-7 14 0 14 -24 48 -37 52 -5 2 -13 5 -17 7 -11 6 -16 5 -24 -4z m33 -98 c4 -4
12 -23 14 -32 3 -15 -15 -54 -51 -116 -25 -42 -29 -45 -37 -27 -11 24 -8 34
44 141 20 40 22 43 30 34z m56 -116 c10 -11 14 -30 8 -41 -2 -3 -10 -18 -17
-33 -8 -14 -18 -32 -22 -39 -4 -6 -12 -21 -18 -32 -22 -42 -28 -43 -39 -8 -6
20 -5 24 11 39 10 10 12 13 19 32 19 52 48 93 58 82z m55 -117 c44 -87 44 -89
-6 -177 -6 -11 -16 -28 -21 -39 -18 -36 -21 -34 -51 22 -7 13 -15 27 -18 31
-13 15 -9 31 23 87 63 110 58 105 73 76z m-217 -7 c3 -4 18 -35 34 -68 22 -46
31 -63 36 -67 11 -10 -17 -71 -32 -71 -8 0 -37 39 -55 74 -3 6 -10 16 -14 21
-22 28 -23 32 -10 61 25 60 31 66 41 50z m-69 -151 c5 -6 72 -104 75 -112 4
-8 3 -11 -17 -52 -25 -50 -28 -52 -41 -36 -5 5 -14 16 -22 25 -7 8 -16 19 -20
24 -3 5 -10 14 -15 20 -21 26 -21 36 4 92 22 47 25 51 36 39z m378 -38 c25
-51 27 -42 -22 -113 -55 -82 -51 -80 -73 -36 -15 32 -16 37 -6 55 83 153 75
146 101 94z m54 -118 c23 -34 26 -80 5 -93 -7 -5 -33 -51 -33 -59 0 -4 -26
-37 -31 -40 -7 -3 -10 1 -26 34 -17 33 -17 30 9 70 62 93 67 99 76 88z m-503
-26 c8 -8 19 -21 26 -29 7 -8 17 -20 22 -26 28 -30 28 -31 7 -72 -26 -51 -22
-51 -68 11 -36 48 -41 64 -26 91 2 5 6 15 9 22 9 23 12 23 30 3z m581 -138
c23 -49 25 -40 -16 -101 -57 -85 -52 -82 -76 -36 -25 49 -26 45 48 138 27 35
27 35 44 -1z m-647 3 c4 -4 9 -11 13 -17 4 -5 10 -14 13 -18 4 -4 10 -13 12
-19 3 -6 8 -13 10 -16 20 -24 17 -39 -22 -103 -12 -21 -42 6 -57 51 -1 4 -4 9
-7 12 -10 9 -14 26 -10 41 2 7 3 15 3 19 0 7 3 13 8 19 2 2 6 9 8 15 8 21 19
27 29 16z"/>
</g>
</svg>
