<?xml version="1.0" standalone="no"?>
<!DOCTYPE svg PUBLIC "-//W3C//DTD SVG 20010904//EN"
 "http://www.w3.org/TR/2001/REC-SVG-20010904/DTD/svg10.dtd">
<svg version="1.0" xmlns="http://www.w3.org/2000/svg"
 width="312.000000pt" height="590.000000pt" viewBox="0 0 312.000000 590.000000"
 preserveAspectRatio="xMidYMid meet">
<metadata>
Created by potrace 1.16, written by Peter Selinger 2001-2019
</metadata>
<g transform="translate(0.000000,590.000000) scale(0.500000,-0.500000)"
fill="#000000" stroke="none">
<path d="M358 1104 c-6 -4 -13 -17 -17 -31 -2 -5 -6 -19 -10 -31 -4 -11 -7
-22 -7 -24 0 -2 -2 -7 -4 -11 -2 -5 -4 -10 -4 -13 0 -2 -2 -7 -4 -12 -2 -4 -4
-11 -5 -16 -1 -5 -4 -15 -8 -21 -7 -11 -8 -14 -9 -30 -2 -21 -9 -41 -18 -53
-5 -6 -7 -11 -8 -20 -2 -12 -7 -26 -29 -81 -3 -10 -10 -26 -13 -35 -4 -9 -9
-23 -11 -30 -3 -7 -7 -19 -9 -27 -4 -14 -26 -74 -34 -92 -2 -5 -8 -20 -12 -33
-4 -13 -10 -30 -14 -39 -3 -9 -12 -32 -19 -52 -7 -20 -14 -39 -15 -42 -4 -14
-14 -36 -19 -43 -4 -4 -7 -11 -8 -21 -2 -10 -6 -20 -14 -36 -6 -11 -11 -23
-11 -26 0 -2 -2 -7 -5 -11 -11 -16 -11 -17 -12 -49 0 -34 2 -39 12 -42 3 -1 9
-4 14 -6 4 -3 25 -11 46 -18 21 -7 43 -16 50 -19 6 -3 15 -6 19 -7 8 -1 49
-13 66 -19 6 -2 21 -7 33 -11 16 -6 24 -10 30 -14 5 -6 9 -7 16 -7 4 0 12 -2
17 -4 5 -2 11 -4 15 -4 12 0 19 -2 26 -9 4 -4 10 -7 14 -8 5 -1 13 -3 20 -5
44 -14 70 -6 81 27 4 13 10 27 13 32 3 4 5 11 5 14 0 3 2 11 4 18 2 7 5 19 7
28 2 9 6 21 8 27 3 6 6 18 7 27 1 9 3 20 5 24 2 5 3 15 3 27 0 18 0 18 8 25 7
7 7 7 8 39 1 26 2 34 5 40 3 6 3 16 3 163 l0 156 -12 37 c-19 58 -22 70 -22
76 0 3 -2 9 -5 13 -8 11 -9 16 -11 36 -1 16 -3 20 -11 35 -5 10 -11 24 -13 32
-2 8 -8 20 -12 27 -8 14 -22 53 -22 60 0 2 -3 8 -6 12 -3 4 -7 12 -8 17 -10
38 -67 74 -94 60z m61 -143 c9 -21 18 -44 20 -52 2 -8 6 -18 9 -23 3 -5 6 -12
6 -14 0 -7 4 -20 21 -69 12 -37 15 -47 15 -57 0 -16 2 -25 8 -31 12 -12 17
-28 18 -59 1 -19 3 -32 5 -37 5 -15 5 -142 -1 -151 -5 -7 -8 -30 -4 -45 3 -17
0 -66 -6 -76 -3 -6 -4 -11 -4 -21 0 -8 -1 -15 -4 -20 -2 -4 -4 -10 -4 -12 0
-3 -4 -13 -8 -22 -7 -15 -8 -19 -8 -31 0 -9 -1 -17 -4 -22 -5 -12 -21 -60 -24
-72 -7 -37 -4 -36 -97 -5 -82 27 -170 55 -205 66 -24 8 -35 12 -37 17 -5 14 2
43 18 77 3 9 7 19 8 22 1 3 6 17 11 31 11 25 17 41 28 73 4 10 9 25 13 32 4 7
8 16 9 21 1 4 6 11 10 17 8 11 12 20 12 31 0 11 27 93 41 123 4 8 7 19 8 23 2
12 10 38 18 54 3 8 7 17 8 20 3 16 13 39 22 49 8 9 10 12 11 23 1 6 3 15 5 19
2 5 3 12 3 16 0 6 3 15 7 25 4 9 10 25 13 35 34 108 32 107 59 45z"/>
</g>
</svg>
