<?xml version="1.0" standalone="no"?>
<!DOCTYPE svg PUBLIC "-//W3C//DTD SVG 20010904//EN"
 "http://www.w3.org/TR/2001/REC-SVG-20010904/DTD/svg10.dtd">
<svg version="1.0" xmlns="http://www.w3.org/2000/svg"
 width="53.000000pt" height="100.000000pt" viewBox="0 0 53.000000 100.000000"
 preserveAspectRatio="xMidYMid meet">
<metadata>
Created by potrace 1.16, written by Peter Selinger 2001-2019
</metadata>
<g transform="translate(0.000000,100.000000) scale(0.100000,-0.100000)"
fill="#000000" stroke="none">
<path d="M303 932 c-6 -4 -30 -66 -53 -137 -23 -72 -80 -228 -127 -348 -46
-120 -87 -233 -90 -252 -7 -41 -1 -44 185 -109 171 -59 187 -59 212 -3 35 79
60 235 60 376 0 119 -3 140 -31 228 -34 105 -79 205 -105 235 -18 19 -32 22
-51 10z m88 -229 c43 -135 44 -141 43 -268 0 -104 -5 -148 -24 -218 -35 -131
-24 -126 -175 -74 -105 36 -131 48 -133 64 -2 12 19 74 46 139 55 133 133 349
157 437 9 31 22 57 29 57 7 0 31 -58 57 -137z"/>
</g>
</svg>
