<?xml version="1.0" standalone="no"?>
<!DOCTYPE svg PUBLIC "-//W3C//DTD SVG 20010904//EN"
 "http://www.w3.org/TR/2001/REC-SVG-20010904/DTD/svg10.dtd">
<svg version="1.0" xmlns="http://www.w3.org/2000/svg"
 width="78.000000pt" height="148.000000pt" viewBox="0 0 78.000000 148.000000"
 preserveAspectRatio="xMidYMid meet">
<metadata>
Created by potrace 1.16, written by Peter Selinger 2001-2019
</metadata>
<g transform="translate(0.000000,148.000000) scale(0.100000,-0.100000)"
fill="#000000" stroke="none">
<path d="M437 1373 c-3 -5 -17 -48 -32 -98 -15 -49 -31 -94 -36 -99 -5 -6 -9
-21 -9 -34 0 -13 -6 -38 -14 -55 -17 -39 -45 -113 -56 -147 -5 -14 -24 -68
-43 -120 -19 -52 -49 -135 -67 -184 -17 -49 -43 -114 -56 -144 -13 -30 -24
-58 -24 -63 0 -5 -11 -32 -25 -61 -14 -30 -25 -69 -25 -94 l0 -42 77 -30 c43
-17 112 -41 153 -53 41 -13 84 -28 95 -35 11 -7 36 -15 55 -19 19 -4 40 -12
47 -17 7 -5 39 -12 72 -15 l59 -6 7 34 c4 19 11 39 15 44 11 15 50 177 50 207
0 15 4 29 9 32 14 9 21 110 21 311 0 162 -3 200 -21 260 -11 39 -24 78 -30 87
-5 10 -9 26 -9 37 0 11 -16 57 -36 103 -20 45 -43 99 -52 118 -22 52 -61 90
-93 90 -15 0 -30 -3 -32 -7z m71 -130 c19 -36 102 -291 102 -312 0 -12 6 -32
14 -44 22 -35 30 -167 22 -352 -4 -77 -14 -138 -31 -195 -8 -25 -25 -80 -37
-122 -12 -43 -27 -78 -32 -78 -14 0 -388 124 -404 134 -7 4 -10 17 -6 34 8 31
107 290 123 318 5 11 19 48 30 84 34 113 94 274 106 290 7 8 16 31 20 50 6 28
30 107 60 198 6 17 23 15 33 -5z"/>
</g>
</svg>
