<?xml version="1.0" standalone="no"?>
<!DOCTYPE svg PUBLIC "-//W3C//DTD SVG 20010904//EN"
 "http://www.w3.org/TR/2001/REC-SVG-20010904/DTD/svg10.dtd">
<svg version="1.0" xmlns="http://www.w3.org/2000/svg"
 width="312.000000pt" height="590.000000pt" viewBox="0 0 312.000000 590.000000"
 preserveAspectRatio="xMidYMid meet">
<metadata>
Created by potrace 1.16, written by Peter Selinger 2001-2019
</metadata>
<g transform="translate(0.000000,590.000000) scale(0.500000,-0.500000)"
fill="#000000" stroke="none">
<path d="M372 1137 c-4 -2 -9 -7 -11 -11 -2 -3 -7 -11 -11 -17 -5 -5 -9 -13
-9 -17 -1 -4 -3 -11 -5 -17 -2 -5 -4 -14 -4 -20 0 -10 -1 -12 -7 -18 -7 -6 -8
-7 -9 -22 -1 -9 -2 -18 -4 -21 -1 -2 -3 -11 -4 -20 -2 -14 -3 -15 -9 -21 -7
-6 -8 -7 -9 -22 -1 -9 -4 -23 -8 -33 -3 -9 -7 -21 -9 -26 -1 -5 -4 -12 -6 -16
-2 -5 -3 -9 -3 -11 0 -2 -1 -7 -3 -10 -2 -3 -4 -9 -5 -14 -1 -4 -5 -15 -9 -23
-4 -8 -8 -17 -8 -21 -1 -3 -3 -9 -5 -13 -2 -5 -4 -10 -4 -12 0 -3 -2 -8 -4
-13 -2 -4 -4 -9 -4 -11 0 -2 -1 -7 -3 -12 -3 -6 -6 -15 -14 -42 -1 -5 -5 -15
-9 -22 -3 -7 -8 -21 -11 -31 -3 -10 -9 -28 -13 -41 -5 -15 -8 -27 -8 -34 0 -8
-2 -14 -12 -35 -6 -13 -12 -27 -13 -31 -1 -4 -7 -18 -13 -31 -7 -13 -12 -25
-12 -27 0 -3 -4 -12 -8 -21 -4 -10 -8 -19 -8 -21 0 -2 -4 -8 -8 -12 -7 -7 -8
-10 -9 -19 -1 -8 -5 -19 -12 -33 -6 -12 -12 -25 -13 -30 -1 -5 -5 -13 -8 -17
-16 -22 -14 -71 3 -77 4 -1 16 -6 25 -10 10 -4 19 -8 21 -8 1 0 15 -6 29 -13
15 -7 28 -13 29 -13 1 0 4 -2 7 -5 7 -7 16 -11 27 -11 6 0 14 -2 19 -4 5 -2
10 -4 12 -4 2 0 6 -1 9 -3 3 -2 10 -4 15 -5 4 -1 15 -5 22 -9 8 -4 17 -7 22
-8 4 -1 10 -4 14 -7 10 -8 15 -10 23 -10 5 0 14 -3 24 -8 9 -4 19 -8 23 -9 4
-1 14 -5 23 -9 16 -8 16 -8 50 -8 45 0 49 2 54 23 2 5 4 15 6 20 10 27 17 48
20 59 1 5 4 12 5 16 7 19 10 30 23 67 l13 41 0 50 c0 41 1 51 3 56 6 11 6 284
1 298 -3 8 -4 15 -4 30 0 15 -1 23 -4 30 -2 5 -4 14 -5 19 0 6 -2 13 -4 17 -1
4 -4 12 -5 19 -1 12 -5 22 -12 41 -2 6 -4 13 -4 17 0 5 -2 12 -4 17 -2 5 -4
12 -4 16 0 6 -7 22 -28 65 -16 32 -29 61 -30 65 -1 5 -5 13 -9 19 -4 5 -7 12
-7 14 0 3 -4 9 -9 15 -5 6 -11 15 -14 20 -2 5 -7 13 -10 17 -3 4 -9 14 -13 21
-9 20 -18 24 -32 17z m48 -162 c20 -42 20 -42 22 -62 1 -18 2 -20 6 -24 8 -7
16 -19 18 -30 1 -5 3 -12 5 -15 2 -3 3 -8 3 -10 0 -2 2 -8 4 -12 2 -4 4 -12 4
-16 0 -5 2 -13 4 -18 2 -5 4 -12 4 -16 0 -15 3 -24 10 -30 6 -5 7 -6 8 -24 1
-11 3 -22 4 -26 5 -10 8 -148 4 -159 -3 -10 1 -33 8 -44 4 -6 5 -9 4 -11 -4
-7 -1 -8 -70 27 -26 14 -47 23 -52 24 -7 1 -11 4 -16 9 -8 8 -74 42 -82 42
-17 0 -61 28 -59 37 3 18 8 31 15 39 6 7 7 10 8 24 0 8 2 18 4 22 2 4 4 10 5
14 0 3 4 10 7 14 7 9 10 16 10 25 0 4 2 11 4 15 2 5 4 11 5 14 1 4 4 8 9 11
12 7 14 12 16 25 1 7 3 16 5 20 2 5 3 13 3 23 0 11 1 19 4 26 4 12 9 27 13 39
3 11 8 26 13 39 7 19 10 30 12 37 6 25 14 20 38 -29z m-170 -439 c4 -2 10 -4
13 -5 4 0 20 -7 35 -15 16 -8 38 -19 48 -24 10 -5 22 -10 25 -11 3 -1 24 -10
45 -21 21 -11 42 -20 46 -21 9 -2 43 -18 51 -24 7 -5 7 -49 -1 -67 -3 -8 -4
-14 -4 -29 0 -14 -1 -22 -4 -29 -2 -5 -4 -15 -5 -22 0 -9 -3 -17 -8 -29 -4 -8
-8 -20 -9 -26 -1 -8 -5 -20 -13 -35 -10 -21 -11 -25 -11 -36 0 -28 -14 -34
-49 -22 -34 11 -42 14 -56 21 -14 7 -27 11 -42 15 -4 2 -15 6 -23 10 -8 3 -19
8 -24 9 -19 6 -29 10 -46 17 -9 4 -18 8 -20 8 -1 0 -10 4 -20 8 -10 4 -19 8
-21 8 -6 0 -33 13 -38 19 -10 10 -8 30 7 59 6 13 12 27 13 30 1 4 5 14 9 23 4
9 8 18 8 20 0 2 5 15 12 28 6 14 12 28 13 32 1 4 5 15 9 24 10 19 16 34 16 39
0 1 3 7 7 13 4 5 7 11 7 12 0 6 5 18 9 22 5 6 8 5 21 -1z"/>
</g>
</svg>
