<?xml version="1.0" standalone="no"?>
<!DOCTYPE svg PUBLIC "-//W3C//DTD SVG 20010904//EN"
 "http://www.w3.org/TR/2001/REC-SVG-20010904/DTD/svg10.dtd">
<svg version="1.0" xmlns="http://www.w3.org/2000/svg"
 width="78.000000pt" height="148.000000pt" viewBox="0 0 78.000000 148.000000"
 preserveAspectRatio="xMidYMid meet">
<metadata>
Created by potrace 1.16, written by Peter Selinger 2001-2019
</metadata>
<g transform="translate(0.000000,148.000000) scale(0.100000,-0.100000)"
fill="#000000" stroke="none">
<path d="M438 1388 c-10 -18 -20 -46 -24 -63 -4 -16 -10 -34 -14 -40 -4 -5
-11 -27 -14 -49 -4 -21 -11 -46 -16 -55 -4 -9 -18 -47 -30 -86 -13 -38 -47
-141 -76 -229 -30 -87 -54 -169 -54 -182 0 -12 -4 -25 -9 -28 -5 -3 -25 -48
-46 -98 -20 -51 -40 -97 -44 -103 -4 -5 -16 -32 -26 -60 -10 -27 -22 -54 -26
-60 -5 -5 -9 -28 -9 -51 0 -36 4 -44 23 -49 12 -4 56 -22 97 -40 41 -18 113
-47 160 -64 47 -18 107 -41 133 -52 31 -13 65 -19 98 -17 l50 3 46 135 45 135
2 280 c1 211 -3 295 -13 340 -8 33 -18 65 -21 70 -4 6 -10 27 -14 47 -15 81
-157 348 -185 348 -9 0 -24 -15 -33 -32z m86 -164 c14 -31 26 -66 26 -78 0
-11 7 -29 14 -39 8 -10 22 -48 31 -85 9 -37 21 -76 25 -87 14 -33 20 -85 21
-195 1 -58 7 -113 13 -122 21 -34 -7 -32 -82 6 -42 22 -84 43 -92 48 -24 13
-92 45 -137 64 -24 9 -43 22 -43 28 1 6 9 29 20 51 11 22 19 49 20 60 0 12 4
25 9 30 5 6 14 27 20 47 7 20 18 42 26 48 8 6 17 33 21 58 5 41 49 194 61 215
10 17 23 4 47 -49z m-88 -609 c227 -107 209 -95 206 -135 -6 -83 -25 -179 -48
-236 -13 -33 -24 -70 -24 -82 0 -33 -41 -28 -156 17 -55 21 -138 53 -186 71
-56 21 -90 40 -93 51 -3 10 5 43 19 74 15 30 26 58 26 60 0 3 8 24 19 48 20
45 55 130 71 171 5 14 14 26 19 26 5 0 71 -29 147 -65z"/>
</g>
</svg>
