<?xml version="1.0" standalone="no"?>
<!DOCTYPE svg PUBLIC "-//W3C//DTD SVG 20010904//EN"
 "http://www.w3.org/TR/2001/REC-SVG-20010904/DTD/svg10.dtd">
<svg version="1.0" xmlns="http://www.w3.org/2000/svg"
 width="53.000000pt" height="100.000000pt" viewBox="0 0 53.000000 100.000000"
 preserveAspectRatio="xMidYMid meet">
<metadata>
Created by potrace 1.16, written by Peter Selinger 2001-2019
</metadata>
<g transform="translate(0.000000,100.000000) scale(0.100000,-0.100000)"
fill="#000000" stroke="none">
<path d="M295 948 c-2 -7 -38 -119 -81 -248 -42 -129 -101 -293 -131 -363 -30
-70 -53 -138 -51 -150 3 -25 44 -46 195 -103 112 -42 160 -55 179 -47 8 3 28
48 45 102 30 92 31 104 32 281 2 165 0 194 -21 270 -30 109 -115 270 -143 270
-11 0 -21 -6 -24 -12z m90 -210 c40 -123 67 -300 49 -318 -8 -8 -41 5 -110 40
-54 28 -102 54 -106 58 -4 4 10 50 31 102 21 53 42 111 45 130 14 66 28 100
41 100 8 0 28 -44 50 -112z m-60 -339 l108 -51 -6 -56 c-3 -32 -15 -88 -27
-126 -20 -65 -23 -68 -48 -63 -53 11 -244 90 -249 104 -3 7 13 57 34 111 22
53 43 105 46 115 9 25 23 22 142 -34z"/>
</g>
</svg>
