<?xml version="1.0" standalone="no"?>
<!DOCTYPE svg PUBLIC "-//W3C//DTD SVG 20010904//EN"
 "http://www.w3.org/TR/2001/REC-SVG-20010904/DTD/svg10.dtd">
<svg version="1.0" xmlns="http://www.w3.org/2000/svg"
 width="312.000000pt" height="590.000000pt" viewBox="0 0 312.000000 590.000000"
 preserveAspectRatio="xMidYMid meet">
<metadata>
Created by potrace 1.16, written by Peter Selinger 2001-2019
</metadata>
<g transform="translate(0.000000,590.000000) scale(0.500000,-0.500000)"
fill="#000000" stroke="none">
<path d="M223 1138 c-6 -2 -7 -5 -15 -20 -4 -7 -9 -16 -11 -19 -3 -3 -8 -11
-11 -18 -4 -7 -10 -16 -14 -20 -5 -4 -8 -9 -9 -14 -1 -4 -4 -11 -7 -15 -4 -5
-8 -13 -9 -19 -1 -5 -15 -35 -30 -65 -22 -44 -27 -57 -27 -64 0 -4 -2 -12 -4
-16 -2 -4 -4 -11 -4 -15 0 -5 -2 -12 -3 -16 -2 -4 -4 -12 -6 -17 -2 -5 -4 -13
-6 -17 -1 -4 -3 -11 -3 -15 0 -4 -2 -11 -4 -16 -2 -5 -4 -12 -4 -17 0 -4 -2
-10 -3 -15 -3 -5 -4 -15 -5 -32 -1 -18 -2 -27 -5 -31 -5 -10 -5 -282 0 -294 3
-6 4 -18 5 -61 1 -56 1 -57 13 -88 3 -9 9 -25 12 -35 2 -7 4 -12 11 -33 1 -4
4 -12 6 -19 4 -13 7 -21 12 -36 2 -6 4 -12 4 -14 0 -2 2 -7 4 -13 2 -5 5 -13
6 -18 7 -21 67 -27 103 -10 9 4 19 8 22 9 3 1 13 5 22 9 12 6 19 8 26 8 7 0
11 1 18 7 6 4 13 8 18 9 4 1 15 5 23 9 8 4 18 8 22 9 8 2 23 7 36 12 6 2 14 4
19 4 11 0 20 4 27 11 3 3 6 5 7 5 1 0 13 5 27 12 13 6 28 13 32 14 5 1 15 5
22 9 7 4 16 7 20 8 13 2 14 6 14 38 0 30 1 27 -12 47 -2 3 -4 7 -4 9 0 3 -5
15 -12 29 -8 17 -13 28 -14 36 -1 10 -2 13 -9 19 -4 3 -7 8 -7 11 0 2 -4 11
-8 20 -4 9 -8 18 -8 20 0 3 -5 16 -12 29 -7 14 -13 28 -13 31 -1 4 -7 18 -13
30 -10 20 -12 26 -12 34 0 9 -6 31 -13 50 -3 8 -13 40 -13 42 0 1 -4 9 -8 18
-4 10 -8 19 -8 21 0 3 -2 8 -4 13 -2 5 -4 11 -4 13 0 2 -2 8 -4 12 -2 4 -4 10
-4 12 0 3 -2 9 -4 13 -4 11 -9 26 -13 39 -1 6 -6 17 -10 25 -4 8 -7 15 -7 17
0 2 -2 7 -4 13 -4 10 -9 23 -13 38 -4 13 -9 27 -13 38 -2 6 -4 13 -4 18 0 13
-2 19 -10 28 -7 7 -8 9 -8 18 0 5 -2 14 -4 20 -2 6 -4 15 -4 20 0 13 -3 20
-10 26 -6 5 -6 6 -7 19 -1 8 -3 19 -5 24 -2 6 -4 12 -5 15 -1 3 -3 9 -6 12 -4
4 -8 10 -10 15 -7 13 -21 20 -32 15z m2 -123 c3 -2 6 -7 7 -11 2 -9 16 -52 21
-66 3 -8 8 -22 12 -36 1 -5 4 -13 6 -17 1 -5 3 -15 3 -23 0 -11 1 -18 4 -24 2
-5 4 -13 4 -18 0 -11 7 -22 18 -27 4 -1 6 -5 7 -11 2 -5 4 -12 6 -15 2 -3 3
-10 3 -15 0 -9 2 -14 10 -23 3 -4 6 -10 7 -14 1 -5 3 -12 5 -16 2 -5 4 -13 4
-20 0 -12 2 -17 10 -26 3 -4 6 -10 7 -14 1 -4 3 -10 4 -13 5 -9 4 -15 -3 -21
-9 -6 -45 -23 -53 -24 -12 -2 -75 -35 -83 -43 -5 -5 -10 -8 -16 -9 -8 -1 -27
-10 -88 -42 -33 -17 -44 -16 -31 3 5 8 10 26 9 35 -3 26 -1 162 3 169 2 4 4
13 4 24 2 18 2 19 9 26 8 7 8 8 8 20 0 7 1 16 4 22 2 5 4 14 5 19 0 6 2 13 4
17 3 8 8 23 12 38 4 13 7 18 17 29 8 9 8 9 8 25 0 17 0 17 17 53 25 52 27 55
36 48z m160 -478 c3 -3 6 -10 7 -15 1 -6 5 -14 8 -19 3 -4 7 -11 7 -15 2 -7 6
-18 19 -44 3 -7 6 -15 6 -18 0 -2 5 -15 12 -28 6 -13 12 -27 13 -31 1 -4 5
-15 9 -23 4 -9 8 -18 8 -19 0 -2 6 -15 12 -29 24 -47 16 -70 -28 -79 -4 -1
-13 -4 -20 -8 -7 -4 -17 -8 -22 -9 -5 -1 -15 -5 -23 -9 -15 -7 -29 -12 -44
-16 -5 -1 -16 -6 -23 -9 -7 -4 -17 -8 -22 -9 -18 -5 -29 -9 -46 -17 -76 -34
-99 -34 -102 0 -1 13 -3 19 -13 39 -7 16 -12 28 -13 36 -1 7 -5 18 -9 27 -6
11 -7 16 -7 25 0 7 -2 15 -4 21 -2 6 -4 16 -5 31 -1 16 -2 26 -5 31 -8 19 -7
61 2 67 12 7 41 20 48 22 4 1 24 10 44 20 21 10 41 20 46 21 4 1 30 13 56 26
26 13 51 25 55 26 5 1 13 4 17 6 11 5 11 5 17 -1z"/>
</g>
</svg>
