<?xml version="1.0" standalone="no"?>
<!DOCTYPE svg PUBLIC "-//W3C//DTD SVG 20010904//EN"
 "http://www.w3.org/TR/2001/REC-SVG-20010904/DTD/svg10.dtd">
<svg version="1.0" xmlns="http://www.w3.org/2000/svg"
 width="53.000000pt" height="100.000000pt" viewBox="0 0 53.000000 100.000000"
 preserveAspectRatio="xMidYMid meet">
<metadata>
Created by potrace 1.16, written by Peter Selinger 2001-2019
</metadata>
<g transform="translate(0.000000,100.000000) scale(0.100000,-0.100000)"
fill="#000000" stroke="none">
<path d="M172 942 c-33 -47 -89 -164 -112 -237 -19 -59 -23 -99 -27 -260 l-5
-190 31 -97 c37 -114 51 -132 94 -122 36 8 237 84 292 110 53 26 52 47 -13
194 -27 64 -82 217 -122 340 -90 281 -89 277 -106 284 -7 3 -22 -7 -32 -22z
m37 -129 c5 -21 13 -51 17 -68 3 -16 22 -69 40 -116 19 -48 34 -93 34 -102 0
-10 -39 -34 -106 -66 -59 -28 -109 -51 -112 -51 -3 0 -2 45 2 99 5 92 31 193
78 314 15 38 35 34 47 -10z m160 -465 c64 -153 68 -144 -74 -200 -66 -26 -129
-46 -140 -45 -15 1 -24 19 -41 73 -13 39 -24 93 -26 120 l-3 49 105 52 c58 28
112 52 120 52 11 1 30 -33 59 -101z"/>
</g>
</svg>
