<?xml version="1.0" standalone="no"?>
<!DOCTYPE svg PUBLIC "-//W3C//DTD SVG 20010904//EN"
 "http://www.w3.org/TR/2001/REC-SVG-20010904/DTD/svg10.dtd">
<svg version="1.0" xmlns="http://www.w3.org/2000/svg"
 width="78.000000pt" height="148.000000pt" viewBox="0 0 78.000000 148.000000"
 preserveAspectRatio="xMidYMid meet">
<metadata>
Created by potrace 1.16, written by Peter Selinger 2001-2019
</metadata>
<g transform="translate(0.000000,148.000000) scale(0.100000,-0.100000)"
fill="#000000" stroke="none">
<path d="M238 1363 c-54 -89 -117 -229 -144 -320 -41 -142 -47 -210 -41 -465
l6 -237 40 -123 c22 -68 43 -131 46 -140 6 -14 19 -18 55 -18 42 0 87 14 185
55 17 7 62 24 100 37 39 12 72 26 75 29 3 3 38 18 78 34 91 36 97 51 53 140
-17 36 -31 69 -31 74 0 5 -10 29 -21 53 -12 23 -25 52 -30 63 -4 11 -17 43
-29 70 -12 28 -23 58 -25 69 -6 28 -73 228 -112 334 -18 51 -36 107 -40 125
-3 18 -9 37 -13 42 -4 6 -13 31 -20 58 -7 26 -17 50 -21 53 -5 3 -9 18 -9 34
0 36 -30 90 -51 90 -9 0 -32 -26 -51 -57z m69 -159 c12 -38 28 -98 34 -133 7
-36 20 -72 30 -82 11 -11 19 -28 19 -39 0 -11 9 -35 20 -55 11 -20 20 -42 20
-49 0 -7 7 -27 16 -45 19 -39 10 -55 -44 -72 -20 -6 -97 -43 -171 -81 -119
-62 -133 -67 -126 -46 4 12 9 61 11 108 5 137 13 212 22 224 5 6 13 29 16 51
10 54 27 107 43 126 7 8 13 25 13 36 0 30 50 135 63 130 6 -2 21 -34 34 -73z
m209 -614 c19 -47 39 -94 43 -105 45 -105 70 -176 65 -188 -6 -17 -371 -157
-408 -157 -20 0 -26 5 -26 21 0 12 -6 35 -13 52 -31 71 -57 188 -60 267 -2 40
-18 29 203 134 74 36 141 64 148 63 8 -1 29 -40 48 -87z"/>
</g>
</svg>
