<?xml version="1.0" standalone="no"?>
<!DOCTYPE svg PUBLIC "-//W3C//DTD SVG 20010904//EN"
 "http://www.w3.org/TR/2001/REC-SVG-20010904/DTD/svg10.dtd">
<svg version="1.0" xmlns="http://www.w3.org/2000/svg"
 width="286.000000pt" height="590.000000pt" viewBox="0 0 286.000000 590.000000"
 preserveAspectRatio="xMidYMid meet">
<metadata>
Created by potrace 1.16, written by Peter Selinger 2001-2019
</metadata>
<g transform="translate(0.000000,590.000000) scale(0.500000,-0.500000)"
fill="#000000" stroke="none">
<path d="M289 1138 c-15 -6 -21 -19 -17 -42 2 -14 2 -17 -1 -27 -2 -7 -3 -17
-3 -31 0 -13 -1 -23 -3 -27 -2 -5 -3 -14 -3 -27 0 -11 -1 -24 -3 -29 -1 -6 -3
-16 -4 -24 0 -8 -3 -19 -5 -25 -2 -6 -4 -15 -4 -22 0 -7 -2 -16 -4 -22 -3 -8
-4 -13 -3 -20 2 -18 -2 -43 -9 -53 -6 -7 -7 -11 -6 -18 2 -35 -3 -64 -15 -86
-3 -6 -5 -14 -6 -25 -1 -8 -3 -20 -5 -26 -2 -5 -4 -12 -4 -14 0 -2 -3 -13 -7
-24 -4 -12 -7 -26 -7 -33 -1 -9 -4 -17 -11 -32 -5 -11 -10 -25 -11 -31 -2 -15
-8 -29 -15 -40 -4 -6 -7 -13 -8 -16 -1 -4 -4 -11 -7 -18 -3 -6 -8 -19 -11 -29
-8 -25 -9 -29 -17 -39 -4 -5 -8 -13 -9 -17 -1 -5 -5 -14 -9 -20 -3 -7 -8 -20
-11 -31 -5 -14 -8 -21 -14 -28 -6 -7 -9 -13 -10 -18 -1 -4 -3 -13 -5 -19 -5
-18 -2 -27 11 -30 3 -1 10 -4 15 -7 5 -3 14 -7 20 -8 7 -1 18 -6 31 -14 13 -8
23 -13 31 -14 6 -1 22 -8 35 -14 12 -7 24 -12 26 -12 2 0 8 -3 15 -6 7 -3 17
-8 23 -10 5 -2 13 -7 16 -9 7 -5 39 -19 44 -19 1 0 18 -8 38 -17 66 -31 104
-20 109 34 2 17 4 21 14 31 8 7 8 7 8 36 0 32 1 37 13 57 8 11 8 13 9 32 1 20
1 20 11 29 9 10 9 10 8 30 -1 12 -1 30 -1 41 0 20 0 65 0 88 0 7 1 38 2 70 3
80 3 87 -6 95 -5 7 -6 8 -6 19 0 7 -1 15 -2 19 -2 4 -3 22 -4 39 -1 33 -1 33
-7 42 -5 6 -7 11 -7 17 0 4 -2 12 -4 18 -3 8 -4 15 -4 38 0 31 -1 33 -12 44
-9 9 -12 20 -12 42 0 11 -1 14 -6 21 -3 4 -6 11 -7 16 -1 7 -4 12 -10 19 -10
11 -13 16 -13 23 0 3 -1 8 -3 13 -2 4 -4 13 -5 21 -2 13 -2 14 -11 22 -5 4 -9
11 -11 14 -1 4 -9 15 -19 24 -13 14 -17 19 -18 25 -6 34 -41 64 -64 54z m48
-127 c1 -2 9 -11 16 -19 10 -11 13 -15 13 -20 0 -7 5 -19 9 -24 1 -2 4 -8 6
-14 2 -6 7 -18 12 -27 7 -15 8 -18 9 -37 1 -23 4 -30 15 -43 7 -9 14 -31 13
-45 0 -7 1 -12 5 -19 6 -10 9 -27 11 -60 1 -24 3 -29 11 -39 4 -5 5 -10 6 -21
1 -9 3 -20 5 -26 4 -12 7 -81 5 -97 -2 -11 -7 -12 -20 -6 -6 2 -25 10 -43 16
-18 6 -44 16 -58 22 -14 6 -42 17 -64 26 -51 20 -61 33 -42 54 7 6 7 7 8 27 2
23 8 39 17 49 6 6 6 6 7 38 1 21 2 33 4 36 2 3 3 14 4 34 1 28 1 29 7 38 6 9
6 9 7 49 1 25 2 42 4 46 1 3 2 15 2 27 0 11 1 23 2 27 2 11 23 18 29 8z m-80
-494 c9 -3 18 -5 20 -5 2 0 8 -2 12 -5 12 -8 27 -15 32 -15 7 0 22 -6 24 -10
3 -6 22 -12 39 -14 15 -1 19 -2 27 -8 7 -4 16 -7 30 -10 32 -6 32 -7 33 -53 0
-51 -1 -55 -25 -42 -8 4 -18 7 -23 8 -5 0 -12 2 -15 4 -24 17 -78 38 -124 49
-37 8 -63 21 -71 34 -2 5 -4 6 -11 6 -17 0 -20 21 -5 34 3 3 7 9 9 15 7 20 17
22 48 12z m-77 -133 c4 -2 12 -5 18 -6 6 -1 15 -3 19 -5 4 -1 10 -3 13 -3 2 0
7 -1 11 -3 3 -2 10 -5 16 -6 10 -3 30 -10 89 -33 15 -6 43 -17 63 -24 56 -22
57 -23 47 -35 -4 -4 -7 -10 -7 -14 -1 -5 -3 -13 -5 -19 -2 -7 -4 -14 -4 -16 0
-3 -3 -9 -6 -14 -5 -7 -7 -13 -7 -21 -2 -15 -5 -25 -15 -39 -5 -6 -8 -13 -8
-16 0 -24 -5 -24 -74 8 -55 26 -136 64 -165 77 -59 26 -61 28 -51 41 2 3 5 10
7 15 3 12 8 22 14 30 3 3 5 10 6 15 1 5 3 14 5 21 2 6 4 13 4 16 0 2 3 9 7 14
3 6 7 12 9 16 2 6 4 6 14 1z"/>
</g>
</svg>
