<?xml version="1.0" standalone="no"?>
<!DOCTYPE svg PUBLIC "-//W3C//DTD SVG 20010904//EN"
 "http://www.w3.org/TR/2001/REC-SVG-20010904/DTD/svg10.dtd">
<svg version="1.0" xmlns="http://www.w3.org/2000/svg"
 width="49.000000pt" height="100.000000pt" viewBox="0 0 49.000000 100.000000"
 preserveAspectRatio="xMidYMid meet">
<metadata>
Created by potrace 1.16, written by Peter Selinger 2001-2019
</metadata>
<g transform="translate(0.000000,100.000000) scale(0.100000,-0.100000)"
fill="#000000" stroke="none">
<path d="M237 963 c-4 -3 -7 -20 -7 -37 0 -46 -46 -311 -70 -406 -12 -46 -46
-139 -76 -207 -31 -69 -53 -130 -51 -136 6 -17 254 -128 297 -134 46 -7 52 2
86 112 25 81 28 104 27 240 0 224 -40 378 -133 514 -39 57 -57 70 -73 54z m81
-170 c40 -110 82 -278 82 -324 0 -19 -5 -29 -14 -29 -21 0 -176 62 -176 70 0
4 9 42 20 86 11 43 23 118 27 167 5 73 9 87 23 87 12 0 24 -18 38 -57z m-17
-387 c94 -34 117 -54 102 -92 -7 -18 -25 -16 -103 16 -30 13 -72 30 -92 38
-39 15 -48 38 -26 60 16 16 13 17 119 -22z m-31 -124 c68 -24 106 -43 108 -53
2 -9 -7 -42 -19 -73 -16 -44 -25 -57 -38 -53 -23 7 -211 94 -218 101 -3 3 -1
18 5 33 6 15 16 40 21 56 6 15 16 27 23 26 7 0 60 -17 118 -37z"/>
</g>
</svg>
