<?xml version="1.0" standalone="no"?>
<!DOCTYPE svg PUBLIC "-//W3C//DTD SVG 20010904//EN"
 "http://www.w3.org/TR/2001/REC-SVG-20010904/DTD/svg10.dtd">
<svg version="1.0" xmlns="http://www.w3.org/2000/svg"
 width="72.000000pt" height="148.000000pt" viewBox="0 0 72.000000 148.000000"
 preserveAspectRatio="xMidYMid meet">
<metadata>
Created by potrace 1.16, written by Peter Selinger 2001-2019
</metadata>
<g transform="translate(0.000000,148.000000) scale(0.100000,-0.100000)"
fill="#000000" stroke="none">
<path d="M344 1405 c-4 -8 -4 -24 -1 -34 2 -10 1 -45 -4 -77 -19 -131 -32
-209 -37 -218 -3 -5 -6 -25 -8 -45 -4 -60 -21 -154 -32 -181 -5 -14 -15 -50
-22 -80 -13 -61 -43 -154 -70 -215 -9 -22 -21 -51 -25 -65 -4 -14 -18 -44 -31
-68 -13 -23 -24 -49 -24 -56 0 -7 -9 -25 -20 -39 -11 -14 -20 -37 -20 -51 0
-28 -6 -25 287 -154 90 -40 169 -72 177 -72 20 0 56 48 56 75 0 12 7 28 15 35
10 8 15 30 15 61 0 26 5 51 10 54 6 3 10 19 10 34 0 16 6 34 13 40 11 8 14 54
15 192 1 100 4 184 6 187 3 2 -2 18 -10 34 -8 16 -15 48 -16 71 0 23 -7 61
-14 85 -8 23 -14 60 -14 81 0 22 -6 44 -15 51 -8 7 -15 23 -15 36 0 25 -17 70
-36 94 -6 8 -14 30 -18 49 -3 19 -22 53 -41 77 -19 23 -35 47 -35 53 0 5 -11
21 -24 35 -26 29 -63 34 -72 11z m96 -159 c24 -34 70 -148 70 -176 0 -14 5
-31 10 -36 6 -6 19 -53 29 -105 11 -52 24 -108 29 -126 12 -36 20 -159 11
-167 -7 -7 -276 97 -291 112 -8 8 -6 18 6 36 9 14 16 38 16 54 0 15 5 33 11
39 6 6 12 32 15 59 2 27 7 65 9 84 3 19 10 82 16 140 13 124 28 142 69 86z
m-70 -618 c25 -10 57 -25 72 -33 14 -8 34 -15 45 -15 10 0 36 -7 58 -14 39
-14 40 -16 46 -68 9 -80 5 -82 -101 -27 -19 10 -67 26 -105 37 -83 23 -155 59
-155 77 0 7 7 18 15 25 8 7 15 18 15 25 0 29 31 27 110 -7z m-80 -169 c104
-33 275 -100 285 -110 7 -7 6 -12 -2 -17 -6 -4 -14 -24 -18 -45 -4 -20 -11
-40 -16 -43 -5 -3 -9 -16 -9 -29 0 -13 -4 -27 -10 -30 -5 -3 -10 -14 -10 -25
0 -30 -22 -29 -90 4 -36 17 -110 51 -165 75 -131 58 -132 59 -107 107 11 22
23 50 27 64 16 58 30 80 45 74 8 -4 40 -15 70 -25z"/>
</g>
</svg>
