<?xml version="1.0" standalone="no"?>
<!DOCTYPE svg PUBLIC "-//W3C//DTD SVG 20010904//EN"
 "http://www.w3.org/TR/2001/REC-SVG-20010904/DTD/svg10.dtd">
<svg version="1.0" xmlns="http://www.w3.org/2000/svg"
 width="49.000000pt" height="100.000000pt" viewBox="0 0 49.000000 100.000000"
 preserveAspectRatio="xMidYMid meet">
<metadata>
Created by potrace 1.16, written by Peter Selinger 2001-2019
</metadata>
<g transform="translate(0.000000,100.000000) scale(0.100000,-0.100000)"
fill="#000000" stroke="none">
<path d="M193 945 c-10 -14 -28 -39 -40 -54 -31 -39 -78 -161 -98 -251 -9 -41
-19 -134 -22 -206 -6 -139 7 -228 49 -341 18 -48 22 -53 50 -53 28 0 292 110
312 130 4 4 -17 66 -47 137 -31 71 -65 163 -77 204 -22 78 -67 332 -72 409 -4
54 -27 65 -55 25z m34 -221 c6 -65 19 -139 28 -163 19 -54 16 -58 -78 -95 -89
-35 -97 -34 -97 8 0 67 66 312 96 354 28 41 38 20 51 -104z m77 -306 c16 -26
-5 -41 -118 -83 -79 -30 -100 -34 -107 -23 -24 37 -3 57 98 94 97 36 111 37
127 12z m47 -138 c36 -77 40 -71 -87 -129 -67 -31 -120 -49 -125 -44 -14 14
-47 120 -40 130 8 13 202 83 221 80 8 -1 22 -18 31 -37z"/>
</g>
</svg>
