<?xml version="1.0" standalone="no"?>
<!DOCTYPE svg PUBLIC "-//W3C//DTD SVG 20010904//EN"
 "http://www.w3.org/TR/2001/REC-SVG-20010904/DTD/svg10.dtd">
<svg version="1.0" xmlns="http://www.w3.org/2000/svg"
 width="72.000000pt" height="148.000000pt" viewBox="0 0 72.000000 148.000000"
 preserveAspectRatio="xMidYMid meet">
<metadata>
Created by potrace 1.16, written by Peter Selinger 2001-2019
</metadata>
<g transform="translate(0.000000,148.000000) scale(0.100000,-0.100000)"
fill="#000000" stroke="none">
<path d="M281 1394 c-11 -15 -21 -31 -21 -36 0 -5 -16 -29 -35 -52 -19 -24
-35 -50 -35 -58 0 -8 -13 -41 -30 -73 -16 -32 -30 -71 -30 -86 0 -14 -6 -32
-14 -38 -7 -6 -16 -39 -19 -72 -3 -34 -10 -66 -16 -72 -6 -6 -11 -42 -11 -79
0 -39 -4 -68 -10 -68 -16 0 -10 -390 7 -416 7 -11 10 -23 7 -26 -3 -4 2 -20
10 -37 9 -16 16 -48 16 -69 0 -23 6 -45 15 -52 8 -7 15 -23 15 -37 0 -24 40
-73 60 -73 5 0 56 21 112 46 57 25 155 68 218 96 135 59 142 64 130 86 -5 10
-21 44 -35 77 -14 33 -33 74 -40 90 -35 73 -75 175 -75 187 0 8 -5 19 -11 25
-7 7 -13 22 -14 35 -3 25 -17 78 -36 143 -6 22 -13 63 -16 90 -3 28 -9 54 -14
59 -5 6 -9 22 -9 37 0 15 -9 83 -21 150 -11 68 -21 150 -22 184 -2 57 -3 60
-28 63 -19 2 -33 -4 -48 -24z m25 -122 c11 -7 30 -142 40 -287 3 -38 12 -85
21 -104 8 -18 16 -43 17 -55 2 -12 8 -30 14 -42 6 -11 7 -26 3 -32 -12 -20
-284 -123 -295 -112 -11 11 12 188 25 196 5 3 9 27 9 54 0 27 5 52 10 55 6 3
10 20 10 37 0 16 9 41 20 55 11 14 20 38 20 53 0 44 68 190 89 190 3 0 11 -4
17 -8z m134 -636 c5 -13 14 -27 19 -31 35 -21 -30 -65 -143 -97 -39 -10 -87
-27 -106 -37 -71 -37 -88 -43 -99 -37 -15 10 -14 89 2 107 12 15 64 36 109 44
12 3 38 12 58 22 52 25 123 52 138 53 7 0 17 -11 22 -24z m82 -221 c7 -22 20
-55 30 -73 10 -18 18 -36 18 -40 0 -5 -26 -19 -57 -32 -32 -13 -114 -50 -182
-82 -68 -32 -127 -55 -131 -51 -8 10 -34 77 -49 128 -7 22 -17 50 -23 62 -6
13 -9 24 -7 26 4 3 186 70 309 114 64 23 72 18 92 -52z"/>
</g>
</svg>
