<?xml version="1.0" standalone="no"?>
<!DOCTYPE svg PUBLIC "-//W3C//DTD SVG 20010904//EN"
 "http://www.w3.org/TR/2001/REC-SVG-20010904/DTD/svg10.dtd">
<svg version="1.0" xmlns="http://www.w3.org/2000/svg"
 width="312.000000pt" height="590.000000pt" viewBox="0 0 312.000000 590.000000"
 preserveAspectRatio="xMidYMid meet">
<metadata>
Created by potrace 1.16, written by Peter Selinger 2001-2019
</metadata>
<g transform="translate(0.000000,590.000000) scale(0.500000,-0.500000)"
fill="#000000" stroke="none">
<path d="M359 1138 c-11 -4 -16 -10 -19 -26 -2 -12 -11 -45 -19 -71 -3 -9 -8
-28 -12 -43 -4 -15 -9 -32 -12 -39 -3 -7 -6 -18 -7 -23 -2 -14 -13 -52 -22
-79 -5 -15 -7 -25 -12 -49 -3 -13 -7 -25 -14 -39 -8 -17 -10 -23 -12 -37 -1
-10 -3 -18 -5 -21 -10 -13 -11 -17 -11 -24 0 -5 -2 -16 -5 -24 -3 -9 -5 -17
-5 -20 0 -2 -5 -13 -10 -24 -6 -11 -12 -24 -13 -29 -1 -5 -5 -13 -9 -18 -5 -7
-6 -10 -8 -24 -1 -10 -2 -19 -4 -22 -1 -2 -3 -10 -4 -18 -1 -7 -4 -15 -6 -18
-8 -12 -10 -15 -10 -20 0 -3 -3 -10 -6 -15 -4 -5 -14 -25 -22 -45 -9 -19 -18
-37 -21 -40 -6 -7 -8 -11 -10 -22 -1 -5 -6 -19 -12 -31 -6 -12 -12 -25 -13
-30 -1 -4 -5 -12 -9 -18 -23 -38 -9 -84 25 -85 28 -1 34 -3 43 -16 4 -4 9 -8
11 -9 17 -5 34 -13 40 -18 5 -6 8 -7 20 -8 7 -1 16 -3 20 -4 4 -2 15 -4 24 -5
17 -1 18 -2 26 -9 4 -4 10 -7 13 -7 2 0 8 -2 12 -4 5 -2 11 -4 15 -5 4 -1 10
-5 14 -9 6 -7 9 -8 16 -8 5 0 13 -2 18 -4 5 -2 12 -4 16 -4 10 0 15 -2 24 -10
4 -4 9 -6 16 -7 5 -1 13 -3 18 -5 25 -10 69 -5 72 9 1 4 3 11 5 15 2 4 3 10 4
15 1 4 5 11 8 16 4 5 7 12 8 17 2 11 9 28 16 38 5 7 7 14 14 58 7 38 12 61 14
66 2 4 4 13 5 21 1 8 3 22 5 31 3 13 3 36 2 177 0 89 -1 166 -1 170 1 18 1 40
0 46 0 3 0 10 0 15 0 9 -2 16 -27 81 -5 13 -11 30 -14 37 -2 7 -9 24 -15 37
-5 13 -14 34 -19 46 -20 47 -27 64 -27 67 0 2 -4 10 -9 17 -5 7 -9 14 -9 16 0
5 -11 24 -17 31 -7 7 -8 9 -9 22 -1 16 -9 34 -16 37 -5 2 -42 3 -49 1z m37
-123 c6 -4 9 -10 26 -46 14 -33 18 -42 19 -53 2 -16 4 -23 10 -28 6 -5 14 -20
16 -29 1 -3 4 -11 8 -17 9 -15 12 -35 6 -42 -7 -8 -9 -7 -112 39 -32 14 -39
27 -26 51 2 3 3 12 4 20 1 15 15 65 24 90 7 18 13 22 25 15z m-54 -228 c5 -4
10 -7 16 -8 11 -2 30 -9 49 -19 8 -4 17 -8 18 -8 5 0 27 -10 37 -16 6 -4 14
-8 19 -9 14 -4 24 -13 31 -28 7 -16 10 -118 3 -125 -8 -8 -33 -4 -52 8 -5 3
-12 6 -16 7 -7 2 -23 10 -31 15 -6 5 -28 13 -45 17 -14 4 -18 6 -29 15 -5 5
-11 8 -17 9 -4 1 -10 3 -13 4 -2 2 -10 4 -16 5 -25 4 -26 9 -1 83 21 64 26 69
47 50z m-57 -196 c12 -5 34 -14 49 -20 49 -19 110 -44 146 -58 46 -18 56 -28
45 -43 -7 -10 -8 -18 -3 -28 6 -11 6 -23 0 -34 -3 -6 -4 -12 -4 -24 0 -48 -13
-56 -57 -36 -14 6 -31 13 -37 16 -6 2 -15 7 -21 11 -5 3 -13 7 -17 8 -4 1 -10
3 -14 5 -5 2 -9 4 -11 4 -1 0 -8 4 -15 8 -8 4 -18 8 -22 9 -10 2 -89 34 -103
42 -15 9 -15 12 -3 47 5 17 14 45 20 63 14 45 13 44 47 30z m-83 -194 c9 -4
32 -14 50 -22 18 -8 47 -21 64 -28 17 -7 39 -17 49 -21 10 -4 39 -16 64 -27
56 -23 58 -24 58 -32 -5 -68 -4 -62 -18 -90 -7 -14 -13 -26 -13 -28 0 -13 -14
-33 -24 -33 -8 0 -14 2 -118 45 -26 11 -80 32 -120 48 -94 37 -93 37 -66 91 6
14 12 27 12 28 0 3 27 65 31 72 4 6 11 5 31 -3z"/>
</g>
</svg>
