<?xml version="1.0" standalone="no"?>
<!DOCTYPE svg PUBLIC "-//W3C//DTD SVG 20010904//EN"
 "http://www.w3.org/TR/2001/REC-SVG-20010904/DTD/svg10.dtd">
<svg version="1.0" xmlns="http://www.w3.org/2000/svg"
 width="53.000000pt" height="100.000000pt" viewBox="0 0 53.000000 100.000000"
 preserveAspectRatio="xMidYMid meet">
<metadata>
Created by potrace 1.16, written by Peter Selinger 2001-2019
</metadata>
<g transform="translate(0.000000,100.000000) scale(0.100000,-0.100000)"
fill="#000000" stroke="none">
<path d="M290 948 c-5 -13 -32 -102 -59 -198 -53 -186 -93 -298 -160 -446 -45
-100 -51 -141 -23 -150 9 -3 44 -17 77 -29 171 -67 230 -86 258 -83 27 3 34
10 53 58 39 98 54 197 54 365 0 155 0 157 -36 252 -59 157 -106 248 -132 251
-15 2 -25 -4 -32 -20z m81 -170 c19 -45 36 -86 37 -90 6 -15 -27 -8 -74 14
l-46 23 7 44 c8 55 22 91 34 91 5 0 24 -37 42 -82z m-18 -142 c66 -30 75 -37
80 -66 9 -45 9 -78 -2 -84 -5 -3 -48 12 -97 33 -66 28 -90 44 -92 59 -3 19 22
92 32 92 3 0 38 -15 79 -34z m-28 -173 c120 -49 118 -47 113 -110 -6 -64 -11
-70 -46 -56 -116 47 -195 82 -203 90 -7 7 -1 50 16 101 6 18 21 15 120 -25z
m-10 -194 c56 -23 91 -44 93 -54 4 -19 -25 -102 -39 -110 -14 -9 -269 96 -269
111 0 17 30 95 43 111 7 10 17 9 45 -4 21 -9 78 -33 127 -54z"/>
</g>
</svg>
