<?xml version="1.0" standalone="no"?>
<!DOCTYPE svg PUBLIC "-//W3C//DTD SVG 20010904//EN"
 "http://www.w3.org/TR/2001/REC-SVG-20010904/DTD/svg10.dtd">
<svg version="1.0" xmlns="http://www.w3.org/2000/svg"
 width="586.000000pt" height="590.000000pt" viewBox="0 0 586.000000 590.000000"
 preserveAspectRatio="xMidYMid meet">
<metadata>
Created by potrace 1.16, written by Peter Selinger 2001-2019
</metadata>
<g transform="translate(0.000000,590.000000) scale(0.500000,-0.500000)"
fill="#000000" stroke="none">
<path d="M553 1134 c-8 -5 -17 -15 -18 -22 -1 -3 -11 -25 -23 -49 -12 -24 -30
-62 -41 -84 -10 -21 -22 -42 -25 -47 -3 -4 -7 -10 -7 -14 -1 -4 -8 -18 -15
-32 -8 -14 -21 -40 -30 -58 -9 -19 -19 -36 -24 -41 -10 -10 -12 -15 -12 -24 0
-9 -21 -53 -32 -66 -4 -5 -10 -15 -14 -22 -6 -12 -16 -23 -20 -23 -4 0 -8 -12
-8 -22 0 -12 -8 -38 -15 -47 -4 -4 -6 -11 -7 -19 -1 -9 -3 -14 -8 -20 -7 -9
-15 -25 -17 -34 -1 -3 -6 -11 -11 -17 -11 -11 -14 -18 -14 -27 0 -4 -8 -22
-18 -43 -10 -21 -18 -38 -18 -38 0 -5 -20 -39 -25 -44 -6 -5 -7 -8 -9 -17 -1
-11 -27 -64 -42 -87 -3 -5 -6 -12 -6 -14 0 -6 -7 -19 -14 -30 -4 -5 -7 -12 -8
-17 -1 -5 -9 -22 -17 -39 -20 -41 -19 -67 4 -84 5 -4 5 -4 517 -4 570 0 518
-1 521 13 1 4 4 8 9 11 19 13 21 32 4 65 -6 12 -17 35 -24 51 -8 17 -16 32
-18 34 -2 2 -9 16 -17 30 -7 14 -21 44 -32 65 -11 21 -27 52 -34 68 -7 16 -16
33 -20 38 -9 13 -61 113 -84 163 -7 14 -15 30 -18 34 -4 5 -12 19 -19 32 -7
13 -15 28 -17 32 -7 12 -31 60 -49 97 -8 18 -18 36 -21 40 -4 4 -10 13 -14 21
-3 8 -11 22 -16 31 -10 19 -67 134 -67 135 0 1 -3 5 -7 10 -6 8 -19 33 -42 78
-19 39 -37 50 -58 37z m-2 -136 c2 -6 2 -85 -1 -333 -2 -121 -2 -262 -1 -363
l1 -165 -10 -13 c-14 -19 -22 -22 -53 -22 -15 0 -25 -1 -30 -3 -8 -3 -224 -4
-232 -1 -2 1 -8 0 -13 -1 -13 -4 -35 -4 -49 1 -6 2 -14 4 -17 4 -9 0 -12 2
-17 12 -7 14 -4 26 12 45 4 4 7 10 8 14 1 3 5 13 9 21 5 9 8 17 8 19 0 4 39
82 47 94 3 5 7 13 8 17 1 6 26 57 31 63 1 1 8 16 17 32 8 17 17 33 20 37 3 4
5 9 5 12 0 13 2 17 68 148 25 49 42 86 42 90 0 6 17 41 25 52 4 4 7 10 7 12 0
4 8 21 17 33 3 6 7 14 8 17 1 4 4 8 9 12 10 8 14 15 14 26 0 7 2 11 15 27 4 6
6 10 7 22 1 12 3 20 9 32 4 9 7 18 7 19 0 6 22 44 26 44 1 0 2 -2 3 -4z m62
-60 c3 -5 8 -12 11 -15 6 -7 31 -55 42 -81 4 -8 9 -18 11 -21 3 -4 15 -27 27
-52 13 -25 26 -50 29 -54 4 -5 15 -25 24 -45 10 -21 20 -39 22 -42 2 -3 11
-19 19 -34 24 -48 34 -67 39 -73 3 -3 6 -9 7 -14 1 -4 5 -12 8 -16 3 -4 6 -11
7 -14 1 -4 4 -10 6 -14 3 -4 11 -18 17 -31 6 -13 14 -26 17 -30 8 -10 37 -64
41 -78 3 -9 6 -15 11 -20 8 -8 26 -41 28 -52 1 -5 5 -12 12 -20 9 -10 11 -14
12 -21 2 -13 4 -16 15 -28 15 -16 20 -35 13 -48 -9 -18 -8 -18 -54 -19 -27 -1
-41 -2 -44 -3 -4 -2 -30 -3 -113 -3 -103 0 -108 0 -118 -4 -13 -5 -48 -6 -59
-1 -5 1 -12 4 -16 5 -17 4 -30 43 -20 60 4 7 4 17 0 28 -4 11 -4 32 0 40 3 7
3 14 0 28 -2 5 -2 10 0 17 4 15 6 50 3 56 -3 3 -6 130 -6 194 0 10 -1 17 -3
22 -2 5 -3 9 -2 15 1 6 0 9 -4 17 -6 11 -6 12 2 24 7 11 6 6 9 90 1 8 0 20 -1
27 -2 7 -3 18 -3 23 0 6 -1 14 -3 19 -2 7 -2 9 0 14 1 4 2 26 2 81 0 87 1 91
12 73z"/>
</g>
</svg>
