<?xml version="1.0" standalone="no"?>
<!DOCTYPE svg PUBLIC "-//W3C//DTD SVG 20010904//EN"
 "http://www.w3.org/TR/2001/REC-SVG-20010904/DTD/svg10.dtd">
<svg version="1.0" xmlns="http://www.w3.org/2000/svg"
 width="99.000000pt" height="100.000000pt" viewBox="0 0 99.000000 100.000000"
 preserveAspectRatio="xMidYMid meet">
<metadata>
Created by potrace 1.16, written by Peter Selinger 2001-2019
</metadata>
<g transform="translate(0.000000,100.000000) scale(0.100000,-0.100000)"
fill="#000000" stroke="none">
<path d="M457 953 c-99 -174 -429 -861 -425 -887 3 -18 12 -22 78 -29 41 -4
239 -5 440 -1 345 5 366 7 385 25 20 20 20 20 -124 302 -79 155 -161 311 -181
347 -21 36 -59 107 -84 158 -34 67 -52 92 -66 92 -10 0 -21 -3 -23 -7z m10
-195 c-4 -46 -7 -207 -7 -359 0 -205 -3 -279 -12 -291 -10 -13 -41 -18 -150
-24 -145 -7 -188 -2 -188 21 0 7 66 148 146 312 80 164 157 326 171 361 35 87
47 80 40 -20z m93 -42 c26 -57 255 -492 296 -563 13 -23 16 -35 8 -43 -6 -6
-80 -13 -176 -17 l-165 -6 -6 34 c-5 26 -12 622 -8 662 2 20 26 -11 51 -67z"/>
</g>
</svg>
