<?xml version="1.0" standalone="no"?>
<!DOCTYPE svg PUBLIC "-//W3C//DTD SVG 20010904//EN"
 "http://www.w3.org/TR/2001/REC-SVG-20010904/DTD/svg10.dtd">
<svg version="1.0" xmlns="http://www.w3.org/2000/svg"
 width="600.000000pt" height="590.000000pt" viewBox="0 0 600.000000 590.000000"
 preserveAspectRatio="xMidYMid meet">
<metadata>
Created by potrace 1.16, written by Peter Selinger 2001-2019
</metadata>
<g transform="translate(0.000000,590.000000) scale(0.500000,-0.500000)"
fill="#000000" stroke="none">
<path d="M571 1134 c-3 -3 -12 -19 -20 -35 -8 -17 -18 -35 -21 -39 -3 -5 -6
-10 -6 -12 0 -6 -10 -28 -16 -36 -3 -4 -7 -11 -8 -16 -1 -6 -6 -12 -12 -19 -7
-7 -11 -14 -13 -20 -1 -5 -5 -12 -8 -15 -6 -6 -24 -42 -26 -52 -2 -8 -9 -22
-16 -31 -3 -3 -6 -9 -7 -14 -3 -11 -18 -40 -25 -50 -9 -12 -22 -43 -24 -59 -2
-13 -10 -28 -21 -41 -5 -6 -13 -17 -16 -24 -4 -8 -12 -20 -19 -27 -13 -13 -21
-28 -24 -40 -1 -4 -4 -11 -8 -17 -4 -6 -7 -14 -8 -20 -1 -5 -4 -12 -6 -16 -8
-10 -17 -27 -19 -36 -2 -4 -8 -14 -13 -20 -9 -11 -11 -14 -12 -24 -2 -16 -50
-114 -62 -127 -7 -8 -9 -11 -9 -17 0 -7 -18 -45 -25 -53 -2 -3 -15 -27 -28
-54 -13 -27 -31 -65 -41 -84 -22 -46 -25 -72 -7 -83 8 -6 1074 -7 1085 -2 22
12 17 66 -10 101 -3 4 -15 26 -26 50 -11 24 -24 47 -27 52 -3 5 -17 30 -30 55
-13 25 -26 49 -29 52 -2 4 -13 24 -23 44 -10 21 -21 41 -25 46 -3 4 -6 11 -7
15 -1 4 -4 11 -7 15 -8 10 -17 28 -19 37 -1 3 -4 10 -8 14 -4 5 -9 12 -11 16
-2 4 -5 8 -6 9 -4 2 -13 20 -15 30 -6 22 -11 35 -16 38 -3 2 -8 8 -10 13 -3 5
-9 13 -12 18 -4 5 -8 14 -10 19 -1 5 -5 12 -8 15 -6 8 -24 43 -26 52 -1 3 -4
10 -8 15 -9 11 -12 18 -15 30 -2 6 -6 13 -11 19 -5 5 -12 16 -17 25 -5 9 -10
18 -12 20 -5 5 -17 27 -37 67 -9 17 -19 35 -23 40 -3 4 -13 23 -22 42 -9 18
-19 38 -22 44 -2 6 -7 14 -9 17 -3 3 -6 11 -9 16 -2 6 -8 15 -13 21 -6 7 -9
13 -10 18 -3 18 -21 28 -32 18z m-8 -168 c4 -9 1 -382 -2 -388 -4 -6 -64 -6
-73 1 -19 13 -38 -2 -38 -30 0 -31 34 -45 70 -29 33 15 44 4 44 -46 0 -49 4
-45 -46 -43 -44 1 -46 1 -59 -14 -8 -8 -9 -10 -9 -20 0 -25 6 -28 63 -27 53 1
51 2 52 -19 4 -42 3 -42 -56 -40 -59 1 -58 2 -60 -22 -3 -33 -1 -34 60 -32 55
2 77 -50 52 -124 -3 -8 -3 -11 -1 -18 3 -13 -6 -22 -16 -14 -3 2 -42 2 -199 2
-114 0 -197 0 -199 1 -16 8 -14 34 3 54 3 4 7 12 9 17 2 6 11 25 21 43 9 19
31 62 48 96 17 35 39 79 49 98 10 19 21 39 23 44 21 40 59 122 60 128 1 4 5
14 10 22 23 45 29 57 38 73 10 21 38 79 54 113 14 30 20 41 27 51 3 4 7 12 9
18 2 6 7 17 12 24 5 7 10 16 10 20 7 32 39 76 44 61z m65 -45 c2 -2 6 -9 9
-15 3 -6 8 -14 10 -17 3 -4 11 -20 19 -36 8 -16 16 -31 19 -34 2 -4 10 -16 16
-29 6 -13 14 -26 17 -30 3 -4 10 -17 16 -28 6 -12 13 -24 15 -27 3 -3 9 -15
15 -27 6 -12 13 -25 17 -30 4 -5 11 -18 17 -30 6 -12 12 -23 15 -26 3 -3 12
-19 20 -36 9 -17 18 -34 20 -37 3 -3 10 -16 16 -29 6 -12 14 -26 18 -32 4 -5
10 -17 15 -26 5 -9 12 -21 15 -25 8 -10 37 -69 41 -82 1 -4 4 -10 7 -14 2 -3
8 -13 13 -22 4 -8 10 -18 13 -21 2 -3 5 -9 6 -13 1 -5 5 -13 9 -18 8 -11 16
-26 16 -31 0 -2 4 -9 9 -15 29 -40 37 -73 18 -73 -8 0 -27 -9 -34 -16 -8 -8
-386 -11 -393 -4 -4 4 -4 10 -4 71 0 94 -3 90 55 89 51 -1 68 9 67 38 -1 24 2
23 -63 22 -65 -1 -61 -2 -61 27 0 28 -4 26 57 25 l51 0 8 8 c14 13 10 42 -6
50 -6 4 -12 4 -56 3 l-49 -2 -8 8 c-8 6 -8 7 -6 13 3 6 2 8 -2 17 -7 14 -6 19
7 36 l10 13 47 0 c58 0 66 5 62 36 -3 19 -9 22 -48 22 -47 0 -62 5 -62 21 -2
25 -5 53 -7 57 -2 5 -2 10 2 27 4 15 2 84 -3 94 -3 7 -3 8 0 16 2 7 3 18 3 67
0 66 2 77 12 65z"/>
</g>
</svg>
