<?xml version="1.0" standalone="no"?>
<!DOCTYPE svg PUBLIC "-//W3C//DTD SVG 20010904//EN"
 "http://www.w3.org/TR/2001/REC-SVG-20010904/DTD/svg10.dtd">
<svg version="1.0" xmlns="http://www.w3.org/2000/svg"
 width="100.000000pt" height="99.000000pt" viewBox="0 0 100.000000 99.000000"
 preserveAspectRatio="xMidYMid meet">
<metadata>
Created by potrace 1.16, written by Peter Selinger 2001-2019
</metadata>
<g transform="translate(0.000000,99.000000) scale(0.100000,-0.100000)"
fill="#000000" stroke="none">
<path d="M407 828 c-36 -68 -83 -159 -104 -203 -22 -44 -92 -185 -156 -313
-65 -129 -117 -242 -117 -251 0 -17 23 -19 353 -24 193 -4 402 -3 462 1 l110
7 -2 30 c-1 17 -30 84 -66 150 -176 331 -233 435 -263 485 -18 30 -53 97 -78
148 -26 51 -53 92 -60 92 -8 0 -43 -54 -79 -122z m58 -286 l-7 -62 -41 2 c-39
3 -42 1 -42 -22 0 -22 5 -26 45 -30 42 -5 45 -7 45 -35 0 -28 -3 -30 -45 -35
-37 -4 -46 -9 -48 -27 -3 -20 2 -22 45 -25 41 -3 48 -6 51 -26 3 -20 0 -22
-46 -22 -33 0 -52 -5 -55 -13 -10 -25 9 -39 48 -36 49 5 60 -12 51 -74 l-7
-47 -169 0 c-93 0 -171 4 -174 9 -4 5 21 60 53 123 33 62 108 214 167 338 58
124 112 231 118 239 13 17 21 -158 11 -257z m99 161 c34 -70 248 -468 288
-537 16 -27 27 -55 24 -62 -7 -18 -90 -26 -231 -22 l-120 3 -3 63 -3 62 38 0
c47 0 66 12 61 36 -3 16 -13 19 -53 19 -44 0 -50 3 -53 22 -3 20 2 22 50 25
45 3 53 6 53 23 0 17 -8 21 -55 25 -42 4 -56 9 -58 23 -6 30 17 47 65 47 40 0
44 2 41 23 -2 18 -11 23 -43 27 l-40 5 -6 75 c-18 210 -6 247 45 143z"/>
</g>
</svg>
