<?xml version="1.0" standalone="no"?>
<!DOCTYPE svg PUBLIC "-//W3C//DTD SVG 20010904//EN"
 "http://www.w3.org/TR/2001/REC-SVG-20010904/DTD/svg10.dtd">
<svg version="1.0" xmlns="http://www.w3.org/2000/svg"
 width="112.000000pt" height="148.000000pt" viewBox="0 0 112.000000 148.000000"
 preserveAspectRatio="xMidYMid meet">
<metadata>
Created by potrace 1.16, written by Peter Selinger 2001-2019
</metadata>
<g transform="translate(0.000000,148.000000) scale(0.100000,-0.100000)"
fill="#000000" stroke="none">
<path d="M532 1408 c-5 -7 -67 -166 -136 -353 -70 -187 -138 -369 -152 -405
-14 -36 -33 -85 -41 -110 -8 -25 -46 -128 -84 -230 -38 -102 -69 -201 -69
-219 l0 -34 152 7 c84 4 305 7 491 7 l338 1 11 23 c8 18 0 50 -46 174 -31 84
-59 167 -63 184 -3 18 -9 37 -13 42 -8 9 -32 74 -66 175 -9 25 -60 172 -115
326 -55 155 -107 306 -115 335 -23 79 -63 112 -92 77z m8 -235 c0 -10 -3 -42
-6 -70 -6 -47 -10 -53 -30 -53 -32 0 -37 14 -22 58 23 69 58 107 58 65z m83
-40 c3 -16 9 -40 12 -54 5 -19 2 -28 -10 -33 -9 -3 -21 -4 -26 0 -10 6 -12
107 -3 117 11 11 21 -1 27 -30z m-96 -260 l2 -133 -79 0 c-53 0 -79 4 -83 13
-4 11 68 215 87 245 4 8 21 12 39 10 l32 -3 2 -132z m179 7 c27 -76 37 -117
30 -122 -6 -3 -40 -8 -76 -10 l-65 -3 -5 120 c-3 66 -4 124 -2 128 2 4 20 7
40 5 l37 -3 41 -115z m62 -193 c6 -6 14 -25 18 -40 3 -16 22 -67 40 -114 26
-65 31 -89 23 -100 -9 -10 -45 -13 -140 -13 l-129 0 0 135 0 134 63 4 c34 2
74 4 88 5 15 1 31 -4 37 -11z m-250 -136 l-3 -136 -130 3 c-71 2 -132 6 -135
8 -5 5 39 137 72 214 l18 45 90 1 91 1 -3 -136z m-129 -210 l126 4 -1 -27 c0
-16 -1 -61 -2 -102 l-2 -74 -147 -1 c-82 -1 -161 -3 -178 -4 -48 -3 -45 18 26
201 8 20 12 21 30 11 14 -7 66 -10 148 -8z m534 -88 c17 -51 29 -94 27 -96 -3
-3 -87 -7 -187 -10 -139 -5 -183 -3 -183 6 -5 109 -5 189 -1 193 3 2 74 3 159
2 l153 -3 32 -92z"/>
</g>
</svg>
