<?xml version="1.0" standalone="no"?>
<!DOCTYPE svg PUBLIC "-//W3C//DTD SVG 20010904//EN"
 "http://www.w3.org/TR/2001/REC-SVG-20010904/DTD/svg10.dtd">
<svg version="1.0" xmlns="http://www.w3.org/2000/svg"
 width="76.000000pt" height="100.000000pt" viewBox="0 0 76.000000 100.000000"
 preserveAspectRatio="xMidYMid meet">
<metadata>
Created by potrace 1.16, written by Peter Selinger 2001-2019
</metadata>
<g transform="translate(0.000000,100.000000) scale(0.100000,-0.100000)"
fill="#000000" stroke="none">
<path d="M367 957 c-17 -13 -320 -816 -332 -880 l-7 -37 288 0 c159 0 313 3
342 6 48 6 52 9 52 34 0 14 -37 129 -83 256 -110 303 -194 543 -202 576 -10
39 -37 61 -58 45z m-15 -299 c2 -13 1 -52 -2 -88 l-5 -65 -38 -3 c-59 -5 -59
9 -6 156 5 12 17 22 28 22 12 0 20 -8 23 -22z m95 10 c16 -20 53 -140 47 -149
-3 -5 -22 -9 -43 -9 -35 0 -39 3 -45 31 -8 40 -8 103 0 123 7 19 28 21 41 4z
m97 -272 c39 -110 41 -106 -59 -106 l-85 0 0 84 c0 94 0 94 71 95 l46 1 27
-74z m-200 48 c3 -9 6 -47 6 -85 l0 -69 -85 0 c-61 0 -85 3 -85 13 0 6 12 45
26 85 l27 72 52 0 c39 0 54 -4 59 -16z m273 -254 c40 -81 36 -85 -99 -88
l-118 -3 -2 46 c-1 25 -2 53 -2 63 -1 20 52 30 144 28 55 -1 55 -1 77 -46z
m-271 27 c3 -8 1 -36 -3 -63 l-8 -49 -114 -3 -114 -3 6 30 c4 17 13 46 21 65
l15 36 96 0 c71 0 97 -3 101 -13z"/>
</g>
</svg>
