<?xml version="1.0" standalone="no"?>
<!DOCTYPE svg PUBLIC "-//W3C//DTD SVG 20010904//EN"
 "http://www.w3.org/TR/2001/REC-SVG-20010904/DTD/svg10.dtd">
<svg version="1.0" xmlns="http://www.w3.org/2000/svg"
 width="448.000000pt" height="590.000000pt" viewBox="0 0 448.000000 590.000000"
 preserveAspectRatio="xMidYMid meet">
<metadata>
Created by potrace 1.16, written by Peter Selinger 2001-2019
</metadata>
<g transform="translate(0.000000,590.000000) scale(0.500000,-0.500000)"
fill="#000000" stroke="none">
<path d="M438 1134 c-10 -5 -27 -30 -33 -49 -3 -9 -9 -26 -13 -39 -5 -13 -13
-36 -19 -53 -6 -16 -12 -34 -15 -40 -6 -16 -16 -43 -22 -60 -3 -9 -7 -20 -9
-24 -3 -4 -6 -14 -9 -21 -2 -8 -5 -16 -7 -20 -1 -3 -7 -17 -12 -31 -5 -15 -10
-28 -11 -31 -1 -2 -5 -12 -9 -23 -4 -10 -11 -30 -17 -45 -13 -33 -21 -56 -35
-95 -19 -53 -25 -69 -27 -73 -1 -2 -6 -14 -10 -26 -4 -11 -11 -31 -16 -43 -5
-12 -13 -35 -19 -52 -6 -16 -14 -40 -19 -52 -4 -12 -11 -31 -14 -41 -8 -21
-18 -48 -24 -63 -2 -5 -8 -22 -13 -37 -5 -15 -10 -29 -12 -31 -1 -2 -5 -14
-10 -26 -4 -12 -11 -31 -15 -42 -9 -25 -10 -59 -3 -64 5 -4 124 -4 135 -1 5 2
35 3 95 3 48 1 91 2 95 3 4 1 52 2 117 2 92 0 112 0 120 3 13 4 27 4 40 0 17
-5 172 -5 180 0 11 7 20 32 15 44 -6 18 -19 53 -25 70 -4 11 -8 21 -9 23 -1 3
-6 14 -10 26 -4 11 -11 31 -16 43 -5 12 -11 29 -13 37 -10 29 -13 37 -16 46
-2 5 -4 15 -5 23 -1 10 -3 15 -8 22 -4 6 -12 25 -22 54 -20 60 -43 125 -49
142 -3 8 -15 41 -26 74 -11 33 -22 62 -23 65 -3 5 -31 87 -37 107 -2 6 -5 13
-7 18 -6 10 -60 170 -78 229 -13 41 -37 61 -60 48z m-15 -200 c11 -41 0 -92
-20 -92 -22 0 -25 7 -14 31 2 6 6 16 9 24 10 31 22 48 25 37z m69 -23 c4 -8 7
-18 9 -24 1 -5 4 -13 6 -18 7 -18 2 -29 -14 -30 -14 -2 -15 1 -15 42 0 48 3
54 14 30z m-73 -112 c7 -6 6 -194 0 -201 -6 -6 -110 -5 -115 1 -8 10 -7 14 3
43 5 15 14 40 19 55 6 15 15 41 20 57 17 48 18 50 49 50 18 0 19 0 24 -5z
m103 -2 c3 -1 9 -4 12 -7 6 -7 7 -8 24 -59 6 -20 18 -54 25 -75 18 -53 17 -54
-31 -56 -15 -1 -31 -3 -35 -4 -21 -5 -34 -1 -39 12 -6 17 -6 181 0 186 5 4 29
6 44 3z m90 -242 c3 -2 7 -6 9 -9 5 -12 13 -39 14 -48 1 -5 4 -13 6 -18 9 -18
35 -88 42 -116 4 -13 2 -16 -14 -21 -10 -3 -189 -4 -195 -1 -5 3 -5 16 -5 108
0 117 -6 104 47 104 20 0 39 1 41 2 7 3 49 2 55 -1z m-199 -6 c2 -3 3 -26 3
-104 0 -118 1 -111 -20 -108 -15 2 -21 2 -32 -3 -10 -4 -10 -4 -21 1 -10 5
-10 5 -73 5 -79 0 -74 -4 -57 42 16 42 31 84 42 115 18 54 13 50 83 51 28 0
41 1 48 3 11 4 24 3 27 -2z m-222 -270 c8 -3 26 -3 113 -3 57 0 105 0 107 -1
6 -3 7 -22 1 -55 -2 -10 -2 -26 -1 -47 2 -57 7 -53 -69 -53 -49 0 -63 -1 -71
-3 -15 -5 -141 -4 -146 0 -5 5 11 62 23 85 1 2 6 16 11 31 11 32 18 49 22 49
0 0 5 -1 10 -3z m521 -2 c2 -2 9 -20 16 -39 6 -19 17 -48 23 -65 20 -54 42
-49 -210 -52 -86 -1 -77 -10 -74 71 1 27 1 36 -2 44 -6 22 -3 37 8 40 5 1 11
3 15 4 15 4 219 2 224 -3z"/>
</g>
</svg>
