<?xml version="1.0" standalone="no"?>
<!DOCTYPE svg PUBLIC "-//W3C//DTD SVG 20010904//EN"
 "http://www.w3.org/TR/2001/REC-SVG-20010904/DTD/svg10.dtd">
<svg version="1.0" xmlns="http://www.w3.org/2000/svg"
 width="114.000000pt" height="148.000000pt" viewBox="0 0 114.000000 148.000000"
 preserveAspectRatio="xMidYMid meet">
<metadata>
Created by potrace 1.16, written by Peter Selinger 2001-2019
</metadata>
<g transform="translate(0.000000,148.000000) scale(0.100000,-0.100000)"
fill="#000000" stroke="none">
<path d="M529 1393 c-16 -43 -58 -159 -91 -253 -17 -47 -34 -89 -39 -95 -5 -5
-9 -15 -9 -23 0 -8 -21 -67 -46 -131 -25 -64 -57 -150 -70 -191 -14 -41 -29
-84 -33 -95 -41 -100 -69 -173 -121 -320 -18 -49 -41 -111 -52 -136 -11 -25
-18 -56 -16 -68 l3 -22 510 0 c433 0 510 3 513 15 2 8 -6 34 -16 57 -11 24
-32 78 -47 119 -27 73 -67 175 -85 215 -5 11 -18 46 -30 79 -19 53 -150 393
-170 441 -8 19 -60 154 -120 315 -16 41 -30 84 -32 95 -5 32 -36 31 -49 -2z
m60 -185 c17 -42 31 -79 31 -82 0 -9 -128 -7 -133 2 -3 4 8 39 24 77 16 39 29
77 29 85 0 24 16 -1 49 -82z m67 -173 c7 -19 14 -39 14 -45 0 -6 -44 -10 -120
-10 -66 0 -120 2 -120 5 0 2 7 23 16 45 l16 40 90 0 89 0 15 -35z m52 -138 c7
-15 14 -39 15 -53 l2 -25 -175 1 c-96 0 -176 2 -177 4 -4 4 33 89 43 98 3 4
67 6 142 5 l137 -2 13 -28z m63 -162 c39 -66 44 -65 -206 -65 -124 0 -228 1
-232 3 -12 3 -6 47 10 71 14 20 21 21 212 21 l199 0 17 -30z m62 -160 c35 -74
51 -70 -278 -70 -162 0 -295 1 -295 3 0 2 7 25 16 53 l16 49 262 0 262 0 17
-35z m64 -167 c10 -24 17 -45 18 -47 0 -2 -157 -4 -350 -4 l-350 1 2 27 c1 15
10 36 19 46 16 18 37 19 331 19 l313 0 17 -42z m58 -144 c8 -20 12 -40 9 -45
-3 -5 -181 -9 -405 -9 -435 0 -410 -4 -388 59 l11 31 379 0 379 0 15 -36z m45
-124 c6 -11 8 -25 5 -30 -4 -6 -170 -10 -446 -10 -416 0 -439 1 -439 18 0 41
7 42 447 42 414 0 423 0 433 -20z"/>
</g>
</svg>
