<?xml version="1.0" standalone="no"?>
<!DOCTYPE svg PUBLIC "-//W3C//DTD SVG 20010904//EN"
 "http://www.w3.org/TR/2001/REC-SVG-20010904/DTD/svg10.dtd">
<svg version="1.0" xmlns="http://www.w3.org/2000/svg"
 width="77.000000pt" height="100.000000pt" viewBox="0 0 77.000000 100.000000"
 preserveAspectRatio="xMidYMid meet">
<metadata>
Created by potrace 1.16, written by Peter Selinger 2001-2019
</metadata>
<g transform="translate(0.000000,100.000000) scale(0.100000,-0.100000)"
fill="#000000" stroke="none">
<path d="M362 958 c-6 -7 -49 -119 -95 -248 -47 -129 -120 -327 -161 -439 -42
-113 -76 -210 -76 -216 0 -16 137 -25 389 -25 257 0 311 6 311 32 0 11 -24 79
-54 151 -64 158 -276 714 -276 726 0 5 -6 14 -14 20 -10 8 -16 8 -24 -1z m76
-265 c3 -22 0 -23 -67 -23 -52 0 -71 4 -71 13 0 27 25 38 80 35 48 -3 55 -6
58 -25z m29 -81 c6 -4 13 -16 15 -27 3 -19 -3 -20 -101 -23 -57 -1 -108 1
-113 6 -4 4 -1 18 8 30 13 20 24 22 97 22 45 0 87 -4 94 -8z m34 -102 c10 -6
19 -20 19 -30 0 -19 -8 -20 -146 -20 -145 0 -145 0 -142 23 3 20 10 23 78 28
130 10 171 9 191 -1z m58 -122 c5 -13 7 -26 4 -30 -2 -5 -87 -8 -189 -8 -171
0 -184 1 -184 18 0 38 18 42 192 42 166 0 169 0 177 -22z m41 -109 c7 -11 10
-23 8 -25 -8 -7 -446 -9 -453 -2 -4 3 -2 16 5 27 10 20 18 21 220 21 202 0
210 -1 220 -21z m38 -106 l3 -23 -260 0 c-246 0 -261 1 -261 18 0 10 3 22 7
26 4 3 119 5 257 4 l251 -3 3 -22z m31 -78 c2 -3 0 -10 -5 -15 -15 -15 -566
-9 -571 7 -3 7 10 14 34 16 47 6 535 -2 542 -8z"/>
</g>
</svg>
