<?xml version="1.0" standalone="no"?>
<!DOCTYPE svg PUBLIC "-//W3C//DTD SVG 20010904//EN"
 "http://www.w3.org/TR/2001/REC-SVG-20010904/DTD/svg10.dtd">
<svg version="1.0" xmlns="http://www.w3.org/2000/svg"
 width="456.000000pt" height="590.000000pt" viewBox="0 0 456.000000 590.000000"
 preserveAspectRatio="xMidYMid meet">
<metadata>
Created by potrace 1.16, written by Peter Selinger 2001-2019
</metadata>
<g transform="translate(0.000000,590.000000) scale(0.500000,-0.500000)"
fill="#000000" stroke="none">
<path d="M438 1133 c-9 -4 -9 -4 -19 -34 -5 -17 -13 -38 -17 -48 -8 -19 -13
-33 -17 -47 -1 -5 -5 -14 -8 -20 -3 -6 -9 -21 -13 -33 -4 -12 -10 -29 -14 -37
-3 -8 -8 -23 -11 -32 -3 -9 -7 -21 -10 -26 -2 -5 -7 -17 -10 -27 -13 -41 -17
-53 -23 -65 -3 -7 -6 -14 -6 -16 0 -2 -2 -7 -4 -11 -2 -4 -4 -10 -4 -11 0 -2
-4 -11 -8 -20 -4 -10 -9 -21 -10 -25 -1 -5 -3 -11 -5 -14 -2 -3 -3 -7 -3 -9 0
-2 -4 -11 -8 -20 -4 -9 -8 -18 -8 -20 0 -1 -2 -7 -4 -11 -2 -4 -4 -10 -4 -12
0 -2 -2 -8 -4 -13 -2 -5 -4 -10 -4 -12 0 -2 -3 -8 -6 -15 -3 -7 -8 -21 -12
-32 -3 -11 -9 -27 -13 -36 -4 -9 -8 -19 -9 -23 -4 -14 -10 -30 -16 -43 -6 -12
-10 -24 -15 -42 -2 -5 -4 -13 -6 -16 -2 -4 -3 -8 -3 -10 0 -2 -3 -10 -7 -18
-4 -8 -10 -24 -14 -35 -4 -12 -9 -27 -13 -34 -3 -8 -6 -15 -6 -16 0 -4 -12
-38 -18 -50 -3 -7 -6 -15 -6 -17 0 -2 -1 -6 -3 -9 -1 -3 -3 -8 -4 -12 -2 -9
-8 -25 -17 -46 -5 -9 -8 -18 -8 -19 0 -2 -2 -6 -4 -11 -7 -15 -4 -36 4 -36 57
-2 814 0 817 2 3 3 4 12 1 18 -1 2 -4 9 -5 14 -4 15 -10 30 -17 44 -3 7 -6 14
-6 16 0 1 -3 11 -8 21 -4 10 -10 27 -14 38 -4 11 -9 24 -11 29 -2 5 -5 12 -6
16 -1 4 -5 13 -8 21 -4 8 -7 17 -8 20 -1 3 -4 11 -7 18 -6 12 -14 33 -18 47
-1 4 -5 13 -9 20 -3 8 -7 16 -8 20 -1 4 -4 13 -7 20 -4 6 -9 22 -13 33 -4 12
-10 27 -13 35 -3 7 -6 14 -6 16 0 2 -3 9 -6 16 -4 7 -9 22 -13 34 -4 12 -10
27 -13 34 -3 7 -7 16 -8 21 -1 4 -4 12 -7 18 -5 9 -12 25 -18 45 -2 5 -6 15
-10 23 -4 8 -7 16 -7 18 0 2 -3 10 -6 17 -4 7 -10 23 -14 36 -4 13 -10 28 -13
33 -2 6 -5 13 -6 17 -1 4 -4 13 -7 19 -3 7 -9 22 -13 34 -4 11 -9 26 -13 32
-3 7 -6 16 -7 20 -1 4 -4 13 -7 20 -4 7 -8 17 -10 23 -8 23 -12 34 -18 46 -3
6 -6 14 -6 16 0 2 -2 8 -4 13 -9 21 -12 28 -12 31 0 2 -2 8 -5 14 -6 13 -17
44 -17 49 0 10 -11 13 -24 6z m12 -116 c0 -2 3 -9 7 -17 3 -7 8 -17 9 -21 1
-4 5 -14 9 -21 4 -7 8 -16 9 -20 1 -4 3 -11 5 -15 10 -26 7 -28 -51 -27 -50 1
-52 4 -36 38 4 10 12 29 17 44 16 46 31 65 31 39z m68 -171 c10 -9 23 -55 17
-59 -6 -4 -174 -4 -180 0 -5 3 -3 16 6 35 3 8 7 18 9 21 3 8 7 9 77 8 67 0 67
0 71 -5z m35 -109 c7 -3 18 -19 20 -31 1 -5 4 -13 7 -20 16 -32 27 -30 -134
-30 -155 0 -152 0 -139 18 2 3 5 9 6 13 3 16 20 50 26 51 13 3 207 2 214 -1z
m57 -129 c1 -2 3 -5 3 -8 1 -3 5 -12 9 -21 9 -19 11 -32 4 -39 -4 -4 -343 -7
-358 -3 -6 2 -7 10 -2 22 2 5 5 13 5 17 1 4 3 9 4 11 2 2 4 8 5 13 1 5 4 9 7
10 8 3 321 1 323 -2z m37 -118 c9 -2 14 -8 16 -18 1 -4 4 -13 8 -21 9 -19 13
-35 9 -40 -4 -5 -460 -5 -464 0 -2 2 -2 5 2 15 3 7 8 21 11 30 7 25 13 33 21
34 11 2 388 2 397 0z m52 -131 c7 -3 19 -22 19 -29 0 -2 3 -10 7 -18 14 -29
41 -26 -278 -26 -302 1 -277 -1 -272 17 8 33 16 47 30 54 12 6 479 8 494 2z
m52 -122 c3 -3 7 -8 9 -12 1 -4 4 -11 5 -15 8 -22 10 -30 6 -33 -5 -4 -627 -4
-633 -1 -11 6 5 60 20 64 15 4 588 1 593 -3z m43 -111 c11 -7 15 -33 6 -37 -8
-4 -692 -4 -697 0 -9 6 4 37 17 39 18 4 669 1 674 -2z"/>
</g>
</svg>
