<?xml version="1.0" standalone="no"?>
<!DOCTYPE svg PUBLIC "-//W3C//DTD SVG 20010904//EN"
 "http://www.w3.org/TR/2001/REC-SVG-20010904/DTD/svg10.dtd">
<svg version="1.0" xmlns="http://www.w3.org/2000/svg"
 width="452.000000pt" height="594.000000pt" viewBox="0 0 452.000000 594.000000"
 preserveAspectRatio="xMidYMid meet">
<metadata>
Created by potrace 1.16, written by Peter Selinger 2001-2019
</metadata>
<g transform="translate(0.000000,594.000000) scale(0.500000,-0.500000)"
fill="#000000" stroke="none">
<path d="M320 1149 c-259 -1 -276 -1 -278 -5 -5 -5 -9 -272 -5 -280 6 -10 13
-12 33 -12 38 0 37 -5 34 117 -2 97 -2 110 3 112 4 3 307 3 310 0 11 -8 17
-57 9 -73 -4 -7 -4 -11 -4 -83 0 -70 0 -75 -4 -83 -2 -5 -4 -11 -4 -13 0 -2
-10 -24 -23 -50 -12 -25 -23 -49 -24 -52 -1 -3 -13 -30 -28 -60 -15 -29 -27
-55 -27 -57 0 -2 -11 -26 -24 -52 -13 -27 -24 -50 -24 -52 0 -2 -10 -25 -23
-50 -13 -25 -23 -48 -23 -50 0 -3 -12 -29 -27 -58 -14 -29 -27 -56 -28 -60 -1
-4 -12 -28 -24 -53 -13 -25 -23 -47 -23 -49 0 -2 -5 -14 -12 -27 -14 -28 -18
-72 -8 -93 2 -5 4 -10 4 -12 0 -9 -3 -9 199 -8 190 0 194 0 204 4 10 4 12 4
166 3 135 0 157 0 161 2 10 7 5 65 -6 65 -2 0 -6 11 -6 17 0 3 -4 12 -8 21 -4
10 -8 19 -8 21 0 1 -7 16 -15 33 -8 16 -16 32 -16 36 -1 4 -6 16 -12 28 -6 12
-11 24 -12 28 -1 4 -8 20 -16 36 -8 16 -15 31 -15 33 0 2 -7 18 -16 36 -9 18
-16 34 -16 36 0 2 -7 17 -15 34 -8 16 -15 33 -16 37 -1 4 -6 16 -12 27 -6 11
-11 23 -12 27 0 4 -8 21 -16 37 -8 17 -15 32 -15 34 0 2 -7 18 -16 36 -9 18
-16 34 -16 36 0 2 -5 13 -11 25 -6 11 -11 24 -12 28 -1 4 -8 20 -16 37 -8 16
-15 31 -15 33 0 2 -1 7 -3 12 -2 4 -4 12 -5 18 -1 9 -3 12 -8 16 -8 7 -11 57
-3 69 3 5 3 13 3 70 0 62 0 65 4 68 4 2 277 3 286 0 6 -2 6 -7 4 -122 -1 -61
-2 -113 -2 -116 0 -12 7 -15 36 -15 39 0 37 -4 35 64 -1 53 -1 56 3 66 5 14 4
174 -2 179 -4 4 -154 5 -540 4z m152 -423 c2 -3 5 -9 6 -13 1 -4 7 -18 13 -30
6 -12 11 -24 11 -26 0 -1 7 -17 15 -34 21 -44 23 -42 -29 -43 -29 -1 -38 -2
-41 -4 -5 -4 -43 -5 -52 -2 -8 3 -6 9 16 54 10 20 19 40 20 44 2 8 24 53 28
57 5 4 8 4 13 -3z m89 -210 c4 -4 26 -47 28 -56 1 -3 4 -12 7 -19 11 -23 10
-24 -29 -25 -21 -1 -30 -2 -34 -5 -6 -3 -15 -3 -80 -3 -68 0 -74 0 -83 -4 -11
-4 -49 -6 -56 -2 -5 3 -4 8 6 28 4 8 8 18 9 22 2 8 23 52 27 55 2 2 25 3 71 3
59 1 69 1 74 4 8 5 54 6 60 2z m74 -167 c5 -3 17 -25 17 -32 0 -2 5 -14 12
-27 21 -41 22 -40 -39 -40 -37 0 -44 0 -54 -4 -10 -4 -16 -4 -72 -4 -55 0 -62
0 -68 -3 -5 -4 -14 -4 -75 -5 -60 -1 -70 -2 -78 -5 -17 -7 -50 -2 -50 7 1 60
52 102 123 102 59 0 67 0 72 3 5 4 15 4 84 5 69 1 79 1 85 5 9 4 35 3 43 -2z
m85 -187 c24 -51 39 -46 -136 -46 -120 0 -131 0 -137 -3 -7 -4 -243 -7 -260
-3 -10 2 -11 16 -1 36 11 23 2 21 78 20 51 0 67 0 70 2 4 2 23 3 75 4 57 1 71
2 75 4 4 2 17 3 71 4 56 1 67 2 73 5 6 2 14 3 33 3 22 0 27 1 33 4 4 2 7 4 8
4 1 0 9 -15 18 -34z"/>
</g>
</svg>
