<?xml version="1.0" standalone="no"?>
<!DOCTYPE svg PUBLIC "-//W3C//DTD SVG 20010904//EN"
 "http://www.w3.org/TR/2001/REC-SVG-20010904/DTD/svg10.dtd">
<svg version="1.0" xmlns="http://www.w3.org/2000/svg"
 width="114.000000pt" height="148.000000pt" viewBox="0 0 114.000000 148.000000"
 preserveAspectRatio="xMidYMid meet">
<metadata>
Created by potrace 1.16, written by Peter Selinger 2001-2019
</metadata>
<g transform="translate(0.000000,148.000000) scale(0.100000,-0.100000)"
fill="#000000" stroke="none">
<path d="M53 1423 c-18 -6 -18 -344 -1 -361 17 -17 44 -15 64 5 14 15 16 31
10 130 -4 62 -5 122 -1 133 6 19 15 20 205 20 197 0 198 0 203 -22 3 -13 2
-86 -2 -163 l-7 -140 -68 -140 c-38 -77 -74 -151 -81 -165 -7 -14 -57 -119
-110 -235 -53 -116 -110 -236 -126 -269 -30 -60 -37 -113 -19 -147 10 -18 23
-19 228 -18 119 1 325 4 457 8 l240 6 3 26 c2 15 -18 71 -46 135 -28 60 -83
183 -123 274 -40 91 -79 176 -86 190 -7 14 -13 28 -13 32 0 5 -20 50 -44 100
-68 146 -106 235 -106 250 0 8 -4 18 -10 24 -5 5 -7 60 -3 134 l6 125 186 -1
186 -1 -4 -156 -4 -156 26 -6 c14 -4 34 -4 45 -1 17 6 19 20 24 144 3 75 5
162 4 192 l-1 55 -510 1 c-280 0 -516 -1 -522 -3z m565 -573 c11 -30 28 -70
37 -88 10 -18 14 -36 11 -40 -9 -8 -186 -14 -186 -6 0 4 9 21 19 38 11 17 29
56 41 86 25 62 40 84 50 73 4 -4 17 -33 28 -63z m118 -269 c14 -30 21 -58 17
-62 -11 -11 -356 -30 -364 -21 -6 6 31 95 53 127 3 6 62 10 138 10 l132 0 24
-54z m91 -198 c15 -32 27 -62 27 -66 1 -4 -57 -10 -129 -13 -163 -6 -360 -21
-401 -29 -47 -10 -49 7 -12 77 l33 63 200 11 c110 6 212 11 228 12 24 2 30 -5
54 -55z m103 -234 c0 -11 -701 -22 -711 -12 -6 6 -3 22 6 41 15 29 18 31 63
26 26 -3 151 2 277 10 254 17 304 21 313 31 5 5 51 -79 52 -96z"/>
</g>
</svg>
