<?xml version="1.0" standalone="no"?>
<!DOCTYPE svg PUBLIC "-//W3C//DTD SVG 20010904//EN"
 "http://www.w3.org/TR/2001/REC-SVG-20010904/DTD/svg10.dtd">
<svg version="1.0" xmlns="http://www.w3.org/2000/svg"
 width="77.000000pt" height="100.000000pt" viewBox="0 0 77.000000 100.000000"
 preserveAspectRatio="xMidYMid meet">
<metadata>
Created by potrace 1.16, written by Peter Selinger 2001-2019
</metadata>
<g transform="translate(0.000000,100.000000) scale(0.100000,-0.100000)"
fill="#000000" stroke="none">
<path d="M47 963 c-16 -4 -17 -17 -15 -126 l3 -122 25 0 c25 0 25 2 30 95 l5
95 130 0 130 0 -3 -107 c-3 -120 18 -65 -192 -508 -74 -155 -85 -189 -82 -233
2 -16 22 -17 315 -15 l312 3 -1 30 c-1 17 -53 145 -116 285 -166 368 -168 374
-168 469 l0 81 125 0 125 0 0 -105 0 -105 28 0 29 0 6 122 c5 80 3 126 -3 132
-11 11 -646 19 -683 9z m382 -409 c13 -30 21 -57 19 -60 -11 -10 -106 -16
-112 -6 -8 14 43 122 58 122 7 0 23 -25 35 -56z m67 -155 c10 -20 12 -35 6
-41 -5 -5 -59 -12 -121 -15 -100 -5 -111 -4 -111 11 0 21 19 58 34 68 6 4 48
8 93 8 82 0 83 0 99 -31z m63 -140 c6 -18 11 -35 11 -39 0 -4 -63 -10 -139
-14 -77 -3 -160 -9 -185 -12 -41 -6 -46 -5 -46 13 0 11 9 32 20 46 22 28 7 26
267 35 60 2 61 2 72 -29z m49 -111 c7 -7 12 -19 12 -29 0 -13 -16 -17 -92 -23
-50 -3 -156 -6 -235 -6 -144 0 -144 0 -141 23 3 21 8 22 188 33 261 15 255 15
268 2z"/>
</g>
</svg>
