<?xml version="1.0" standalone="no"?>
<!DOCTYPE svg PUBLIC "-//W3C//DTD SVG 20010904//EN"
 "http://www.w3.org/TR/2001/REC-SVG-20010904/DTD/svg10.dtd">
<svg version="1.0" xmlns="http://www.w3.org/2000/svg"
 width="110.000000pt" height="148.000000pt" viewBox="0 0 110.000000 148.000000"
 preserveAspectRatio="xMidYMid meet">
<metadata>
Created by potrace 1.16, written by Peter Selinger 2001-2019
</metadata>
<g transform="translate(0.000000,148.000000) scale(0.100000,-0.100000)"
fill="#000000" stroke="none">
<path d="M50 1144 l0 -275 33 3 32 3 1 235 2 235 416 3 416 2 1 -32 c1 -18 5
-127 8 -243 l6 -210 35 0 34 0 -2 275 -2 275 -490 3 -490 2 0 -276z"/>
<path d="M315 1248 c-2 -7 -7 -67 -10 -133 -12 -243 -12 -230 10 -233 34 -4
42 11 49 88 3 41 9 104 12 140 7 94 5 91 76 88 95 -5 97 10 -61 -423 -20 -54
-121 -331 -177 -485 -18 -52 -37 -120 -40 -150 -10 -86 -11 -85 219 -71 106 7
226 14 267 16 243 11 254 13 267 31 7 10 13 27 13 37 0 11 -57 176 -127 366
-69 190 -145 400 -169 466 -23 66 -48 135 -54 153 -20 53 -10 62 69 62 57 0
72 -3 79 -17 4 -10 9 -79 11 -153 1 -74 6 -139 11 -143 4 -5 16 -7 26 -5 17 3
20 19 28 165 5 89 6 173 2 187 l-6 26 -246 0 c-187 0 -246 -3 -249 -12z m327
-599 c3 -46 11 -110 17 -143 6 -32 9 -62 6 -66 -2 -4 -28 -10 -57 -14 -29 -4
-99 -16 -156 -27 -57 -12 -106 -18 -109 -15 -3 3 4 32 16 63 13 32 32 86 44
121 17 50 26 64 47 69 14 3 57 28 95 54 39 26 75 47 80 45 6 -1 13 -40 17 -87z
m114 -205 c-5 -13 -10 -14 -18 -6 -6 6 -8 18 -4 28 5 13 10 14 18 6 6 -6 8
-18 4 -28z m23 -61 c13 -26 61 -171 61 -187 0 -17 -60 -27 -77 -14 -7 6 -13
33 -13 61 0 27 -5 67 -11 88 -9 30 -9 42 1 54 16 20 27 19 39 -2z m-93 -108
c7 -50 10 -92 7 -95 -2 -3 -17 -5 -31 -6 -15 0 -109 -4 -209 -8 l-183 -8 0 23
c0 24 27 106 42 125 4 6 43 14 86 18 42 4 115 15 162 26 47 10 92 17 100 17
10 -2 18 -27 26 -92z"/>
</g>
</svg>
