<?xml version="1.0" standalone="no"?>
<!DOCTYPE svg PUBLIC "-//W3C//DTD SVG 20010904//EN"
 "http://www.w3.org/TR/2001/REC-SVG-20010904/DTD/svg10.dtd">
<svg version="1.0" xmlns="http://www.w3.org/2000/svg"
 width="74.000000pt" height="100.000000pt" viewBox="0 0 74.000000 100.000000"
 preserveAspectRatio="xMidYMid meet">
<metadata>
Created by potrace 1.16, written by Peter Selinger 2001-2019
</metadata>
<g transform="translate(0.000000,100.000000) scale(0.100000,-0.100000)"
fill="#000000" stroke="none">
<path d="M118 963 l-88 -4 0 -185 c0 -158 2 -185 16 -191 33 -12 39 14 39 170
l0 152 275 0 275 0 5 -158 c4 -123 9 -160 20 -167 34 -21 40 7 40 191 0 98 -3
180 -7 182 -11 7 -472 15 -575 10z"/>
<path d="M210 838 c-1 -7 -5 -59 -10 -116 -10 -108 -7 -132 16 -132 20 0 25
16 38 123 l11 92 40 0 c29 0 41 -4 43 -16 2 -9 -27 -99 -63 -200 -37 -101 -87
-240 -112 -309 -47 -131 -65 -211 -52 -231 6 -10 56 -10 241 0 128 8 241 18
252 23 28 15 18 56 -76 313 -111 299 -141 392 -134 410 3 9 18 15 35 15 59 0
61 -4 61 -105 0 -71 4 -96 15 -105 29 -24 36 3 33 126 l-3 119 -167 3 c-131 2
-168 0 -168 -10z m229 -442 c6 -49 9 -92 6 -94 -2 -2 -37 -10 -78 -17 -41 -7
-84 -16 -96 -20 -34 -10 -36 18 -6 92 25 63 31 71 88 105 34 20 65 33 69 30 3
-4 11 -47 17 -96z m101 -183 c23 -63 23 -86 -3 -91 -11 -2 -20 6 -27 23 -13
33 -13 125 -1 125 5 0 19 -25 31 -57z m-82 -35 l3 -58 -44 0 c-24 0 -85 -3
-135 -6 l-92 -7 0 26 c0 64 26 86 105 88 22 0 51 5 65 9 14 5 41 8 60 7 l35
-2 3 -57z"/>
</g>
</svg>
