<?xml version="1.0" standalone="no"?>
<!DOCTYPE svg PUBLIC "-//W3C//DTD SVG 20010904//EN"
 "http://www.w3.org/TR/2001/REC-SVG-20010904/DTD/svg10.dtd">
<svg version="1.0" xmlns="http://www.w3.org/2000/svg"
 width="130.000000pt" height="148.000000pt" viewBox="0 0 130.000000 148.000000"
 preserveAspectRatio="xMidYMid meet">
<metadata>
Created by potrace 1.16, written by Peter Selinger 2001-2019
</metadata>
<g transform="translate(0.000000,148.000000) scale(0.100000,-0.100000)"
fill="#000000" stroke="none">
<path d="M725 1369 c-27 -4 -79 -11 -115 -14 -36 -3 -117 -10 -180 -16 -63 -6
-135 -12 -159 -14 -79 -7 -81 -13 -81 -216 0 -148 3 -180 16 -193 20 -20 38
-20 54 -1 10 12 12 53 7 175 l-6 159 32 5 c104 17 230 27 239 18 6 -6 6 -24
-1 -48 -5 -22 -19 -102 -30 -179 -62 -430 -104 -725 -108 -762 -8 -64 4 -73
104 -73 153 0 377 20 392 36 13 12 11 31 -13 151 -53 264 -127 619 -156 753
-17 74 -27 137 -22 142 4 4 48 10 98 14 l90 7 23 -84 c40 -148 43 -154 76
-154 21 0 31 5 33 19 4 19 -46 192 -73 254 l-15 32 -77 -1 c-43 -1 -100 -5
-128 -10z m-90 -186 c4 -21 15 -85 26 -142 11 -57 18 -110 15 -118 -4 -10 -20
-13 -53 -11 l-48 3 1 40 c1 43 23 232 29 253 8 24 24 11 30 -25z m67 -349 c0
-8 1 -20 2 -26 1 -15 -134 -40 -147 -28 -5 4 -7 20 -5 36 3 28 6 29 63 34 69
6 84 3 87 -16z m35 -178 c8 -37 13 -69 11 -71 -9 -8 -217 -15 -222 -7 -6 9 8
119 16 127 7 8 126 23 157 21 22 -1 26 -8 38 -70z m45 -231 c10 -49 16 -95 14
-101 -4 -11 -301 -32 -311 -23 -2 2 0 24 5 49 4 25 11 71 15 102 l6 57 97 4
c172 6 153 16 174 -88z"/>
<path d="M963 943 c-15 -5 -17 -53 -4 -103 5 -19 14 -69 21 -110 14 -82 23
-100 51 -100 34 0 41 33 24 112 -8 40 -21 98 -27 128 -16 75 -28 89 -65 73z"/>
<path d="M101 721 c-10 -7 -12 -21 -8 -52 13 -92 28 -144 44 -156 21 -16 25
-16 48 0 17 14 17 17 -5 108 -25 106 -40 125 -79 100z"/>
<path d="M1066 497 c-18 -13 -18 -18 3 -133 26 -139 30 -148 63 -152 32 -4 41
24 27 88 -9 44 -28 159 -29 172 0 9 -30 38 -39 38 -4 0 -15 -6 -25 -13z"/>
<path d="M140 325 c-10 -12 -10 -25 -2 -53 5 -20 16 -68 23 -107 17 -94 47
-128 79 -90 13 15 10 37 -26 215 -11 49 -48 66 -74 35z"/>
</g>
</svg>
