<?xml version="1.0" standalone="no"?>
<!DOCTYPE svg PUBLIC "-//W3C//DTD SVG 20010904//EN"
 "http://www.w3.org/TR/2001/REC-SVG-20010904/DTD/svg10.dtd">
<svg version="1.0" xmlns="http://www.w3.org/2000/svg"
 width="88.000000pt" height="100.000000pt" viewBox="0 0 88.000000 100.000000"
 preserveAspectRatio="xMidYMid meet">
<metadata>
Created by potrace 1.16, written by Peter Selinger 2001-2019
</metadata>
<g transform="translate(0.000000,100.000000) scale(0.100000,-0.100000)"
fill="#000000" stroke="none">
<path d="M355 916 c-110 -12 -206 -25 -212 -29 -9 -6 -13 -46 -13 -142 0 -113
2 -134 16 -139 9 -4 23 -1 32 6 12 10 14 30 8 110 -5 76 -3 100 8 111 14 13
153 33 164 23 2 -3 -7 -76 -21 -163 -58 -357 -79 -524 -66 -539 9 -11 36 -13
143 -8 188 7 196 9 196 42 0 15 -32 173 -70 352 -50 239 -65 327 -57 332 20
12 104 9 114 -4 6 -7 16 -38 23 -68 7 -30 17 -61 23 -67 11 -15 43 -17 52 -3
6 10 -42 177 -58 198 -12 15 -35 14 -282 -12z m75 -108 c0 -2 7 -41 15 -88 8
-47 15 -86 15 -87 0 -9 -42 -22 -55 -16 -15 5 -16 15 -11 67 10 92 17 126 27
126 5 0 9 -1 9 -2z m60 -337 c5 -11 10 -31 10 -45 0 -22 -5 -25 -55 -31 -67
-9 -85 -3 -85 28 0 43 27 63 92 66 18 1 31 -6 38 -18z m39 -185 c18 -74 15
-76 -108 -76 l-93 0 6 38 c17 97 13 91 69 95 112 8 110 9 126 -57z"/>
<path d="M643 634 c-5 -14 8 -110 24 -181 6 -27 32 -38 50 -21 10 11 10 28 -3
98 -9 47 -20 93 -25 103 -12 21 -38 22 -46 1z"/>
<path d="M62 484 c-13 -23 7 -115 29 -139 18 -18 20 -18 36 -3 15 15 15 23 4
75 -7 32 -18 64 -23 71 -14 17 -35 15 -46 -4z"/>
<path d="M713 334 c-7 -19 16 -164 30 -182 13 -17 44 -15 51 3 5 14 -16 142
-29 178 -9 21 -44 22 -52 1z"/>
<path d="M93 224 c-7 -19 13 -138 28 -166 5 -10 19 -18 29 -18 16 0 20 7 20
35 0 44 -20 136 -32 153 -14 17 -37 15 -45 -4z"/>
</g>
</svg>
