<?xml version="1.0" standalone="no"?>
<!DOCTYPE svg PUBLIC "-//W3C//DTD SVG 20010904//EN"
 "http://www.w3.org/TR/2001/REC-SVG-20010904/DTD/svg10.dtd">
<svg version="1.0" xmlns="http://www.w3.org/2000/svg"
 width="388.000000pt" height="444.000000pt" viewBox="0 0 388.000000 444.000000"
 preserveAspectRatio="xMidYMid meet">
<metadata>
Created by potrace 1.16, written by Peter Selinger 2001-2019
</metadata>
<g transform="translate(0.000000,444.000000) scale(0.500000,-0.500000)"
fill="#000000" stroke="none">
<path d="M498 836 c-3 -1 -10 -2 -15 -2 -6 0 -15 -1 -20 -2 -10 -2 -32 -5 -69
-8 -48 -5 -59 -6 -96 -9 -21 -2 -48 -4 -58 -5 -10 -1 -35 -3 -55 -4 -58 -4
-67 -7 -73 -27 -4 -16 -3 -206 2 -216 9 -20 32 -22 43 -4 1 3 2 30 2 96 0 82
0 93 3 96 4 4 24 9 37 9 5 0 15 1 22 2 13 2 58 7 75 9 16 1 20 -3 16 -23 -3
-19 -4 -27 -6 -44 -2 -17 -5 -39 -12 -85 -4 -23 -6 -42 -8 -57 -2 -15 -4 -32
-8 -56 -1 -7 -3 -20 -4 -29 -1 -9 -3 -22 -4 -28 -5 -35 -6 -41 -8 -55 -2 -13
-8 -60 -14 -97 -4 -23 -6 -40 -8 -55 -2 -17 -5 -34 -8 -56 -10 -58 -6 -60 109
-54 24 1 63 3 87 4 96 4 97 4 106 19 5 8 5 13 1 32 -2 8 -5 23 -7 33 -2 10 -7
32 -10 48 -10 47 -39 189 -41 200 -1 3 -3 12 -5 21 -2 9 -5 21 -6 28 -1 7 -3
16 -4 20 -1 4 -3 13 -4 19 -1 6 -3 18 -5 27 -2 9 -4 20 -5 24 -2 12 -6 31 -8
42 -1 6 -3 14 -4 18 -1 4 -6 28 -11 53 -14 69 -17 64 36 67 21 2 42 3 46 4 18
3 19 1 48 -104 9 -34 20 -44 37 -39 20 6 21 19 2 77 -3 10 -9 27 -12 39 -24
77 -21 74 -56 74 -12 0 -25 -1 -28 -2z m-128 -120 c2 -3 3 -8 4 -12 1 -4 4
-16 6 -28 2 -12 5 -25 6 -31 1 -5 3 -14 4 -18 1 -4 3 -16 5 -25 2 -9 4 -21 5
-25 4 -20 3 -21 -29 -21 -29 0 -32 1 -30 15 1 4 2 14 3 22 2 16 5 35 8 53 5
32 6 44 8 56 2 19 5 23 10 14z m42 -205 c1 -1 2 -7 3 -13 0 -15 3 -14 -68 -24
-17 -2 -25 23 -12 37 5 4 73 4 77 0z m15 -73 c1 -3 4 -15 7 -28 2 -13 5 -27 6
-31 5 -21 4 -22 -28 -23 -51 -3 -93 -4 -96 -2 -4 2 -3 12 3 59 2 11 6 17 12
17 2 0 7 1 11 2 4 1 15 3 25 4 10 1 22 3 26 4 17 3 31 2 34 -2z m25 -128 c2
-3 9 -37 17 -82 7 -36 -2 -38 -141 -39 -43 0 -39 -9 -29 72 7 53 3 49 47 49
18 0 35 1 38 2 11 4 66 2 68 -2z"/>
<path d="M572 571 c-12 -9 -12 -15 -3 -60 4 -19 10 -50 13 -69 9 -52 12 -58
31 -58 24 0 27 13 17 65 -3 16 -9 47 -13 67 -8 39 -12 52 -19 56 -6 3 -20 2
-26 -1z"/>
<path d="M57 438 c-10 -9 -11 -15 -3 -49 4 -15 8 -36 10 -45 6 -33 19 -44 39
-35 12 5 16 19 11 40 -1 4 -4 17 -6 28 -11 52 -13 57 -22 63 -10 6 -20 5 -29
-2z"/>
<path d="M639 309 c-12 -5 -16 -22 -11 -44 1 -4 3 -15 4 -23 1 -8 4 -24 6 -35
2 -11 5 -28 6 -38 5 -32 16 -45 37 -39 15 4 20 19 14 47 -2 10 -5 27 -7 37 -2
10 -5 26 -6 34 -9 58 -19 72 -43 61z"/>
<path d="M88 208 c-8 -5 -13 -16 -11 -27 1 -4 5 -26 9 -47 4 -21 9 -46 10 -55
4 -26 13 -37 30 -37 20 0 26 18 19 53 -2 8 -7 32 -11 54 -12 60 -22 73 -46 59z"/>
</g>
</svg>
