<?xml version="1.0" standalone="no"?>
<!DOCTYPE svg PUBLIC "-//W3C//DTD SVG 20010904//EN"
 "http://www.w3.org/TR/2001/REC-SVG-20010904/DTD/svg10.dtd">
<svg version="1.0" xmlns="http://www.w3.org/2000/svg"
 width="252.000000pt" height="590.000000pt" viewBox="0 0 252.000000 590.000000"
 preserveAspectRatio="xMidYMid meet">
<metadata>
Created by potrace 1.16, written by Peter Selinger 2001-2019
</metadata>
<g transform="translate(0.000000,590.000000) scale(0.500000,-0.500000)"
fill="#000000" stroke="none">
<path d="M231 1139 c-11 -4 -11 -7 -9 -117 3 -188 18 -162 -90 -162 -107 0
-92 39 -92 -238 0 -276 -15 -237 93 -237 82 0 85 0 88 -4 4 -4 4 -5 1 -189 -2
-160 -4 -150 36 -148 27 2 25 -14 23 173 -1 151 -1 162 2 165 3 2 17 3 82 2
103 -1 89 -38 89 239 0 277 14 238 -86 237 -102 -1 -89 -22 -87 139 1 144 2
137 -10 141 -8 3 -33 2 -40 -1z m164 -337 c5 -6 5 -355 0 -360 -6 -6 -286 -6
-292 1 -5 5 -5 5 -5 177 0 183 0 180 7 184 8 4 286 2 290 -2z"/>
</g>
</svg>
