<?xml version="1.0" standalone="no"?>
<!DOCTYPE svg PUBLIC "-//W3C//DTD SVG 20010904//EN"
 "http://www.w3.org/TR/2001/REC-SVG-20010904/DTD/svg10.dtd">
<svg version="1.0" xmlns="http://www.w3.org/2000/svg"
 width="43.000000pt" height="100.000000pt" viewBox="0 0 43.000000 100.000000"
 preserveAspectRatio="xMidYMid meet">
<metadata>
Created by potrace 1.16, written by Peter Selinger 2001-2019
</metadata>
<g transform="translate(0.000000,100.000000) scale(0.100000,-0.100000)"
fill="#000000" stroke="none">
<path d="M191 953 c-5 -11 -7 -61 -4 -120 l6 -102 -79 -3 -79 -3 -3 -180 c-1
-99 0 -190 3 -202 5 -20 12 -22 78 -25 l72 -3 0 -132 c0 -135 7 -162 39 -150
14 5 16 28 16 146 l0 140 73 3 72 3 0 200 0 200 -72 3 -72 3 -3 117 c-3 100
-5 117 -20 120 -9 2 -21 -5 -27 -15z m137 -290 c4 -10 7 -76 7 -146 0 -103 -3
-130 -15 -137 -19 -12 -217 -13 -224 -2 -12 19 -18 248 -7 275 l11 27 110 0
c96 0 112 -2 118 -17z"/>
</g>
</svg>
