<?xml version="1.0" standalone="no"?>
<!DOCTYPE svg PUBLIC "-//W3C//DTD SVG 20010904//EN"
 "http://www.w3.org/TR/2001/REC-SVG-20010904/DTD/svg10.dtd">
<svg version="1.0" xmlns="http://www.w3.org/2000/svg"
 width="54.000000pt" height="148.000000pt" viewBox="0 0 54.000000 148.000000"
 preserveAspectRatio="xMidYMid meet">
<metadata>
Created by potrace 1.16, written by Peter Selinger 2001-2019
</metadata>
<g transform="translate(0.000000,148.000000) scale(0.100000,-0.100000)"
fill="#000000" stroke="none">
<path d="M235 1420 c-4 -6 -8 -59 -8 -118 l-2 -107 -85 0 -85 0 -3 -413 -2
-413 77 1 c43 1 84 1 91 1 9 -1 12 -40 12 -162 l0 -160 23 3 c22 3 22 6 25
160 l3 157 95 3 96 3 0 410 0 410 -93 0 -94 0 -5 115 c-4 96 -8 115 -22 118
-9 2 -19 -2 -23 -8z m-7 -382 l-3 -103 -60 0 -60 0 -3 103 -3 102 66 0 66 0
-3 -102z m187 -3 l0 -100 -65 0 -65 0 -3 103 -3 103 68 -3 68 -3 0 -100z
m-185 -269 c0 -82 -3 -115 -13 -119 -7 -2 -36 -2 -65 1 l-52 5 0 113 0 114 65
0 65 0 0 -114z m190 -1 l0 -115 -70 0 -70 0 0 115 0 115 70 0 70 0 0 -115z
m-195 -255 l0 -85 -38 -1 c-86 -2 -87 -1 -87 86 0 88 -1 87 75 86 l50 -1 0
-85z m188 81 c4 -1 7 -36 5 -78 l-3 -78 -55 -7 c-30 -4 -61 -5 -67 -3 -14 5
-19 155 -7 168 5 5 64 4 127 -2z"/>
</g>
</svg>
