<?xml version="1.0" standalone="no"?>
<!DOCTYPE svg PUBLIC "-//W3C//DTD SVG 20010904//EN"
 "http://www.w3.org/TR/2001/REC-SVG-20010904/DTD/svg10.dtd">
<svg version="1.0" xmlns="http://www.w3.org/2000/svg"
 width="218.000000pt" height="590.000000pt" viewBox="0 0 218.000000 590.000000"
 preserveAspectRatio="xMidYMid meet">
<metadata>
Created by potrace 1.16, written by Peter Selinger 2001-2019
</metadata>
<g transform="translate(0.000000,590.000000) scale(0.500000,-0.500000)"
fill="#000000" stroke="none">
<path d="M195 1140 c-12 -5 -12 -2 -10 -94 2 -103 12 -90 -71 -90 -63 0 -66 0
-70 -4 -6 -6 -6 -642 0 -648 4 -4 8 -4 70 -4 84 0 74 22 70 -148 -2 -109 -3
-108 24 -108 30 0 28 -7 26 134 -3 141 -14 123 70 122 62 -1 76 -1 79 4 4 6 2
645 -1 649 -5 4 -1 3 -81 3 -79 0 -70 -13 -68 91 2 84 2 84 -4 89 -6 5 -26 8
-34 4z m-12 -233 c6 -5 7 -147 2 -154 -4 -7 -92 -8 -98 -1 -4 5 -4 150 1 154
6 7 89 8 95 1z m148 2 c8 -2 9 -6 9 -81 1 -90 8 -80 -55 -80 -62 0 -55 -11
-55 80 0 79 0 81 11 83 5 1 84 -1 90 -2z m-146 -207 c4 -7 5 -174 0 -179 -7
-7 -90 -7 -97 0 -6 6 -6 173 -1 179 6 7 93 6 98 0z m152 1 c7 -7 7 -175 0
-180 -6 -5 -99 -4 -104 0 -5 5 -5 172 0 179 4 5 98 7 104 1z m-161 -227 c12
-2 12 -1 12 -67 -1 -73 5 -65 -51 -65 -58 0 -53 -7 -53 68 0 70 -4 64 38 65
17 0 34 0 38 0 4 1 11 0 16 -1z m161 -3 c5 -5 6 -12 4 -66 -1 -69 5 -63 -58
-63 -49 0 -85 94 -50 129 5 5 99 5 104 0z"/>
</g>
</svg>
