<?xml version="1.0" standalone="no"?>
<!DOCTYPE svg PUBLIC "-//W3C//DTD SVG 20010904//EN"
 "http://www.w3.org/TR/2001/REC-SVG-20010904/DTD/svg10.dtd">
<svg version="1.0" xmlns="http://www.w3.org/2000/svg"
 width="36.000000pt" height="100.000000pt" viewBox="0 0 36.000000 100.000000"
 preserveAspectRatio="xMidYMid meet">
<metadata>
Created by potrace 1.16, written by Peter Selinger 2001-2019
</metadata>
<g transform="translate(0.000000,100.000000) scale(0.100000,-0.100000)"
fill="#000000" stroke="none">
<path d="M148 958 c-1 -7 -2 -42 -2 -78 l-1 -65 -55 -5 -55 -5 0 -275 0 -275
55 -5 55 -5 -4 -86 c-4 -105 3 -131 32 -127 21 3 22 8 22 108 l0 105 55 3 c30
2 58 9 62 15 10 16 10 518 0 534 -4 6 -32 13 -62 15 l-55 3 0 75 c0 70 -1 75
-22 78 -13 2 -24 -2 -25 -10z m0 -256 l3 -63 -38 3 -38 3 -3 54 c-3 59 6 73
48 69 23 -3 25 -7 28 -66z m120 0 l3 -63 -38 3 c-38 3 -38 3 -41 52 -4 67 1
78 40 74 l33 -3 3 -63z m-120 -184 l-3 -73 -35 0 -35 0 -3 59 c-4 77 0 86 43
86 l36 0 -3 -72z m123 35 c2 -21 2 -54 -1 -73 -5 -32 -8 -35 -40 -35 l-35 0
-3 59 c-4 77 0 86 42 86 32 0 34 -2 37 -37z m-123 -206 c3 -52 -8 -64 -53 -53
-22 6 -25 12 -25 50 0 51 5 58 45 54 28 -3 30 -6 33 -51z m120 1 l-3 -53 -35
0 c-33 0 -35 2 -38 39 -5 55 2 66 43 66 l36 0 -3 -52z"/>
</g>
</svg>
