<?xml version="1.0" standalone="no"?>
<!DOCTYPE svg PUBLIC "-//W3C//DTD SVG 20010904//EN"
 "http://www.w3.org/TR/2001/REC-SVG-20010904/DTD/svg10.dtd">
<svg version="1.0" xmlns="http://www.w3.org/2000/svg"
 width="45.000000pt" height="100.000000pt" viewBox="0 0 45.000000 100.000000"
 preserveAspectRatio="xMidYMid meet">
<metadata>
Created by potrace 1.16, written by Peter Selinger 2001-2019
</metadata>
<g transform="translate(0.000000,100.000000) scale(0.100000,-0.100000)"
fill="#000000" stroke="none">
<path d="M197 963 c-4 -3 -7 -51 -7 -105 l0 -98 -75 0 -74 0 -6 -32 c-3 -18
-4 -179 -3 -358 l3 -325 188 -3 187 -2 0 359 0 360 -82 3 -83 3 3 94 c2 69 -1
97 -10 103 -16 10 -32 10 -41 1z m1 -285 c3 -28 3 -28 -57 -28 -57 0 -61 1
-61 23 0 34 8 38 65 35 46 -3 50 -5 53 -30z m167 11 c9 -27 -2 -38 -40 -40
-72 -6 -85 -1 -85 31 0 30 0 30 59 30 52 0 61 -3 66 -21z m-181 -92 c10 -7 16
-22 14 -33 -3 -16 -12 -19 -58 -19 -56 0 -71 13 -56 51 7 18 76 19 100 1z
m179 -7 c5 -4 6 -18 2 -29 -6 -20 -13 -22 -63 -19 -51 3 -57 5 -60 27 -2 13 2
28 10 32 14 10 98 1 111 -11z m-171 -121 c3 -17 3 -42 0 -56 -4 -22 -8 -24
-56 -21 l-51 3 -3 39 c-5 59 1 66 57 66 47 0 49 -1 53 -31z m173 3 c3 -16 1
-41 -5 -56 -9 -25 -13 -27 -62 -24 l-53 3 -3 39 c-5 60 1 66 62 66 52 0 55 -1
61 -28z m-175 -141 c5 -11 7 -33 4 -50 -6 -30 -8 -31 -60 -31 l-54 0 0 44 c0
48 6 53 67 55 22 1 35 -5 43 -18z m170 -6 c6 -16 6 -34 0 -51 -9 -23 -14 -25
-62 -22 -52 3 -53 4 -56 36 -5 54 2 62 58 62 45 0 52 -3 60 -25z m-184 -123
c16 -10 24 -50 17 -84 -5 -28 -7 -29 -57 -26 l-51 3 -3 43 c-2 24 2 50 9 58
12 15 66 19 85 6z m185 -19 c6 -17 7 -40 2 -58 -8 -29 -11 -30 -63 -30 l-55 0
-3 44 c-5 65 0 71 58 71 46 0 51 -3 61 -27z"/>
</g>
</svg>
