<?xml version="1.0" standalone="no"?>
<!DOCTYPE svg PUBLIC "-//W3C//DTD SVG 20010904//EN"
 "http://www.w3.org/TR/2001/REC-SVG-20010904/DTD/svg10.dtd">
<svg version="1.0" xmlns="http://www.w3.org/2000/svg"
 width="260.000000pt" height="590.000000pt" viewBox="0 0 260.000000 590.000000"
 preserveAspectRatio="xMidYMid meet">
<metadata>
Created by potrace 1.16, written by Peter Selinger 2001-2019
</metadata>
<g transform="translate(0.000000,590.000000) scale(0.500000,-0.500000)"
fill="#000000" stroke="none">
<path d="M238 1141 c-17 -3 -17 -7 -12 -166 1 -36 2 -67 1 -69 -2 -7 -8 -8
-94 -7 -83 2 -84 2 -88 -3 -3 -3 -6 -769 -3 -837 0 -9 -7 -9 217 -9 224 0 217
0 217 9 3 82 0 834 -3 837 -4 4 -5 4 -95 4 -109 -1 -99 -5 -97 37 3 67 5 187
3 193 -4 9 -25 14 -46 11z m-15 -297 c12 -7 10 -77 -2 -81 -11 -4 -120 -1
-124 3 -8 8 -5 75 4 78 5 2 119 3 122 0z m194 0 c8 -4 12 -71 4 -80 -4 -5
-124 -6 -134 -2 -10 5 -14 70 -4 80 4 5 123 6 134 2z m-200 -123 c13 -2 20
-65 9 -79 -5 -7 -123 -8 -129 -1 -9 8 -6 77 3 81 5 2 104 1 117 -1z m167 -2
c44 -2 42 0 42 -41 0 -44 5 -41 -77 -41 -77 0 -70 -4 -71 38 -1 52 -10 48 106
44z m-159 -126 c8 -8 7 -127 -1 -133 -48 -39 -131 -1 -132 61 -1 84 -9 75 69
75 52 0 61 0 64 -3z m196 -1 c6 -6 6 -124 0 -129 -4 -4 -128 -8 -135 -5 -8 4
-10 126 -3 134 6 6 132 6 138 0z m-4 -177 c7 -2 8 -8 8 -63 0 -66 9 -59 -71
-61 -84 -2 -74 -10 -74 62 0 59 0 60 8 63 5 1 120 1 129 -1z m-196 -2 c12 -4
14 -114 2 -121 -6 -4 -108 -7 -120 -4 -10 3 -11 9 -11 63 0 61 0 61 18 63 12
2 107 1 111 -1z m199 -166 c5 -5 6 -135 1 -140 -7 -7 -133 -7 -138 0 -4 5 -4
132 0 137 5 7 130 9 137 3z m-196 -3 c6 -5 7 -132 1 -138 -6 -6 -121 -5 -128
1 -4 4 -7 114 -3 126 3 12 3 12 39 13 72 3 86 2 91 -2z"/>
</g>
</svg>
