<?xml version="1.0" standalone="no"?>
<!DOCTYPE svg PUBLIC "-//W3C//DTD SVG 20010904//EN"
 "http://www.w3.org/TR/2001/REC-SVG-20010904/DTD/svg10.dtd">
<svg version="1.0" xmlns="http://www.w3.org/2000/svg"
 width="66.000000pt" height="148.000000pt" viewBox="0 0 66.000000 148.000000"
 preserveAspectRatio="xMidYMid meet">
<metadata>
Created by potrace 1.16, written by Peter Selinger 2001-2019
</metadata>
<g transform="translate(0.000000,148.000000) scale(0.100000,-0.100000)"
fill="#000000" stroke="none">
<path d="M291 1416 c-10 -12 -11 -49 -6 -156 l8 -140 -122 0 -121 0 0 -530 0
-529 271 -3 c149 -2 273 -1 275 1 2 2 4 242 4 533 l0 528 -126 0 -127 0 7 150
c6 128 5 150 -8 150 -8 0 -21 2 -29 5 -7 3 -19 -1 -26 -9z m-1 -411 l0 -56
-87 3 -88 3 -3 39 c-5 64 -2 66 93 66 l85 0 0 -55z m245 0 l0 -50 -92 -3 -93
-3 0 56 0 56 93 -3 92 -3 0 -50z m-257 -111 c9 -2 12 -19 10 -51 l-3 -48 -85
0 -85 0 -3 34 c-2 19 -1 44 2 56 5 21 10 22 78 18 40 -3 79 -6 86 -9z m257
-49 l0 -50 -90 0 -90 0 -3 53 -3 53 93 -3 93 -3 0 -50z m-257 -104 c8 -1 12
-25 12 -86 l0 -86 -87 3 -88 3 -3 73 c-2 41 1 79 7 85 8 10 93 14 159 8z m258
-16 c3 -11 4 -50 2 -85 l-3 -65 -92 -3 -93 -3 0 84 c0 46 2 86 4 88 2 2 43 4
91 4 78 0 86 -2 91 -20z m-248 -286 l3 -77 -83 -4 c-46 -3 -86 -3 -90 -1 -10
5 -10 147 -1 157 4 4 43 5 88 4 l80 -3 3 -76z m247 1 l0 -75 -92 -3 -93 -3 0
74 c0 40 3 77 7 81 4 4 46 5 93 4 l85 -3 0 -75z m-250 -225 l0 -90 -79 -3
c-57 -2 -82 1 -87 10 -9 14 -12 138 -4 160 4 9 28 13 88 13 l82 0 0 -90z m252
20 c4 -119 7 -116 -95 -113 l-87 3 -3 93 -3 93 93 -3 93 -3 2 -70z"/>
</g>
</svg>
