<?xml version="1.0" standalone="no"?>
<!DOCTYPE svg PUBLIC "-//W3C//DTD SVG 20010904//EN"
 "http://www.w3.org/TR/2001/REC-SVG-20010904/DTD/svg10.dtd">
<svg version="1.0" xmlns="http://www.w3.org/2000/svg"
 width="50.000000pt" height="148.000000pt" viewBox="0 0 50.000000 148.000000"
 preserveAspectRatio="xMidYMid meet">
<metadata>
Created by potrace 1.16, written by Peter Selinger 2001-2019
</metadata>
<g transform="translate(0.000000,148.000000) scale(0.100000,-0.100000)"
fill="#000000" stroke="none">
<path d="M184 1405 c-4 -9 -4 -36 -1 -60 8 -54 0 -60 -73 -60 l-55 0 0 -405 0
-405 39 -5 c35 -5 39 -8 41 -35 1 -16 5 -55 9 -85 7 -51 5 -58 -23 -100 -17
-25 -41 -58 -53 -73 -18 -22 -20 -31 -12 -45 22 -34 41 -24 92 47 l51 70 3
113 c3 113 3 113 28 113 l25 0 -2 -112 c-1 -122 -9 -145 -81 -236 -31 -38 -33
-61 -7 -70 22 -9 48 17 100 99 48 76 50 82 48 144 -1 36 0 89 3 118 l5 52 49
0 c27 0 51 4 54 8 8 13 10 788 1 802 -6 9 -26 11 -76 6 -52 -5 -69 -3 -70 6
-1 7 -2 38 -3 68 l-1 55 -43 3 c-32 2 -44 -1 -48 -13z m24 -212 l-3 -58 -55 0
-55 0 -3 58 -3 57 61 0 61 0 -3 -57z m180 0 l-3 -58 -70 0 -70 0 -3 58 -3 57
76 0 76 0 -3 -57z m-190 -92 c9 -5 12 -25 10 -62 l-3 -54 -55 0 -55 0 -3 49
c-2 27 -1 55 2 62 6 16 82 19 104 5z m187 -56 l0 -60 -70 0 -70 0 -3 49 c-5
75 -2 77 75 74 l68 -3 0 -60z m-182 -94 c4 -1 7 -29 5 -63 l-3 -63 -55 0 -55
0 -3 54 c-2 29 -1 59 2 66 4 11 47 14 109 6z m187 -62 l0 -59 -75 0 -75 0 0
60 0 59 68 3 c37 2 70 2 75 0 4 -2 7 -30 7 -63z m-180 -154 l0 -65 -60 0 -60
0 0 59 0 60 53 4 c28 2 55 4 60 5 4 1 7 -27 7 -63z m180 -5 l0 -60 -75 0 -75
0 0 60 0 60 75 0 75 0 0 -60z m-182 -160 l3 -61 -58 3 -58 3 -3 49 c-4 69 -2
72 59 70 l54 -2 3 -62z m180 3 l-3 -58 -72 -3 -73 -3 0 61 0 60 75 0 76 0 -3
-57z"/>
</g>
</svg>
