<?xml version="1.0" standalone="no"?>
<!DOCTYPE svg PUBLIC "-//W3C//DTD SVG 20010904//EN"
 "http://www.w3.org/TR/2001/REC-SVG-20010904/DTD/svg10.dtd">
<svg version="1.0" xmlns="http://www.w3.org/2000/svg"
 width="34.000000pt" height="100.000000pt" viewBox="0 0 34.000000 100.000000"
 preserveAspectRatio="xMidYMid meet">
<metadata>
Created by potrace 1.16, written by Peter Selinger 2001-2019
</metadata>
<g transform="translate(0.000000,100.000000) scale(0.100000,-0.100000)"
fill="#000000" stroke="none">
<path d="M132 958 c-6 -7 -12 -29 -14 -48 -3 -33 -5 -35 -37 -32 -20 1 -38 -3
-43 -10 -4 -7 -8 -131 -8 -275 l0 -262 30 -16 c28 -14 30 -19 30 -71 0 -47 -5
-63 -31 -100 -27 -36 -30 -46 -19 -59 19 -23 26 -19 62 33 28 40 34 58 38 122
3 41 10 75 15 75 6 0 11 -33 13 -74 3 -71 1 -77 -34 -128 -20 -30 -34 -59 -30
-68 11 -30 31 -17 76 50 30 44 35 60 40 130 l5 79 38 9 37 9 -2 277 -3 276
-40 2 c-22 1 -45 2 -52 2 -7 1 -13 20 -15 44 -2 34 -7 43 -24 45 -11 2 -26 -3
-32 -10z m3 -129 c4 -5 4 -21 1 -35 -5 -19 -13 -24 -36 -24 -26 0 -30 4 -30
28 0 16 3 32 7 35 10 11 51 8 58 -4z m120 -24 c0 -28 -2 -30 -40 -30 -38 0
-40 2 -43 33 l-3 33 43 -3 c40 -3 43 -5 43 -33z m-127 -97 c3 -36 2 -38 -27
-38 -28 0 -31 3 -31 33 0 40 7 49 35 45 15 -2 21 -12 23 -40z m130 -2 c-3 -29
-6 -31 -43 -31 -36 0 -40 3 -43 28 -4 31 23 47 65 39 20 -4 24 -10 21 -36z
m-128 -77 c6 -11 10 -30 8 -42 -2 -17 -10 -22 -33 -22 -26 0 -30 4 -33 28 -2
16 -1 35 2 43 8 21 44 17 56 -7z m111 11 c29 -16 26 -68 -5 -76 -52 -13 -93
49 -48 75 22 13 29 13 53 1z m-103 -142 c-3 -29 -7 -33 -35 -36 -32 -3 -33 -2
-33 32 0 35 1 36 36 36 34 0 35 -1 32 -32z m120 0 c-3 -31 -5 -33 -43 -33 -38
0 -40 2 -43 33 -3 32 -3 32 43 32 46 0 46 0 43 -32z m-120 -111 c3 -38 3 -38
-30 -35 -26 2 -34 8 -36 26 -6 38 5 54 35 50 24 -3 28 -8 31 -41z m110 34 c8
-5 12 -21 10 -37 -3 -26 -7 -29 -45 -32 -41 -3 -43 -2 -43 25 0 16 5 34 12 41
14 14 47 15 66 3z"/>
</g>
</svg>
