<?xml version="1.0" standalone="no"?>
<!DOCTYPE svg PUBLIC "-//W3C//DTD SVG 20010904//EN"
 "http://www.w3.org/TR/2001/REC-SVG-20010904/DTD/svg10.dtd">
<svg version="1.0" xmlns="http://www.w3.org/2000/svg"
 width="196.000000pt" height="590.000000pt" viewBox="0 0 196.000000 590.000000"
 preserveAspectRatio="xMidYMid meet">
<metadata>
Created by potrace 1.16, written by Peter Selinger 2001-2019
</metadata>
<g transform="translate(0.000000,590.000000) scale(0.500000,-0.500000)"
fill="#000000" stroke="none">
<path d="M152 1135 c-5 -2 -5 -2 -6 -50 -1 -61 5 -55 -52 -55 -62 0 -54 50
-54 -320 1 -370 -4 -329 37 -329 30 -1 29 0 30 -27 1 -29 4 -61 7 -72 8 -31
-2 -62 -30 -98 -7 -9 -15 -19 -17 -22 -2 -3 -8 -10 -13 -17 -21 -28 -13 -53
18 -53 11 0 50 47 86 104 6 9 6 9 6 93 0 99 -1 94 19 92 22 -2 25 -9 18 -36
-4 -15 -4 -85 -1 -101 2 -8 2 -12 0 -21 -1 -7 -3 -16 -4 -22 -2 -6 -7 -15 -13
-25 -6 -8 -16 -24 -22 -34 -6 -11 -18 -28 -26 -37 -22 -25 -26 -38 -14 -49 20
-19 47 -3 76 46 4 7 15 23 23 35 32 45 33 53 29 155 -1 34 -1 35 5 59 7 30 4
28 43 28 34 0 40 1 42 7 5 8 3 633 -1 639 -4 5 -4 5 -57 5 -68 0 -61 -6 -61
54 1 58 3 54 -36 54 -18 0 -29 -1 -32 -3z m8 -137 c5 -5 6 -82 1 -89 -5 -7
-80 -6 -85 1 -5 6 -6 75 -1 84 4 9 77 12 85 4z m144 -2 c5 -6 6 -82 1 -87 -7
-7 -102 -7 -108 0 -7 6 -6 84 1 89 8 7 101 5 106 -2z m-144 -115 c5 -5 6 -81
1 -89 -5 -6 -78 -7 -85 0 -5 5 -6 80 -1 87 5 8 77 10 85 2z m144 -1 c38 -31 2
-92 -54 -92 -62 0 -57 -4 -58 40 0 36 1 48 5 53 5 5 101 4 107 -1z m-144 -116
c4 -4 4 -7 4 -27 0 -16 1 -27 3 -32 13 -36 2 -45 -54 -45 -38 0 -65 70 -38
102 5 8 78 9 85 2z m145 -1 c6 -5 6 -89 0 -95 -5 -5 -102 -6 -108 -1 -8 8 -7
91 1 97 7 6 102 5 107 -1z m-138 -128 c5 -6 4 -91 0 -96 -6 -6 -88 -4 -92 1
-5 7 -4 90 1 94 7 8 86 8 91 1z m129 3 c13 -2 13 -1 13 -50 0 -48 -84 -84
-113 -49 -4 5 -4 91 0 96 4 5 78 7 100 3z m-129 -131 c6 -5 6 -90 0 -94 -7 -5
-88 -3 -92 2 -3 4 -4 86 -1 90 4 8 86 10 93 2z m137 1 c13 -7 8 -92 -6 -96
-15 -4 -97 -3 -102 2 -5 5 -6 84 -1 91 5 7 97 9 109 3z"/>
</g>
</svg>
