<?xml version="1.0" standalone="no"?>
<!DOCTYPE svg PUBLIC "-//W3C//DTD SVG 20010904//EN"
 "http://www.w3.org/TR/2001/REC-SVG-20010904/DTD/svg10.dtd">
<svg version="1.0" xmlns="http://www.w3.org/2000/svg"
 width="52.000000pt" height="102.000000pt" viewBox="0 0 52.000000 102.000000"
 preserveAspectRatio="xMidYMid meet">
<metadata>
Created by potrace 1.16, written by Peter Selinger 2001-2019
</metadata>
<g transform="translate(0.000000,102.000000) scale(0.100000,-0.100000)"
fill="#000000" stroke="none">
<path d="M235 990 c-4 -6 -6 -54 -5 -108 1 -53 1 -103 1 -109 -1 -9 -24 -13
-81 -13 l-80 0 2 -247 3 -248 80 -5 80 -5 0 -110 1 -110 29 0 30 0 -4 113 -3
112 76 0 76 0 0 250 0 250 -80 0 -79 0 -3 117 c-3 100 -5 118 -20 121 -9 2
-19 -2 -23 -8z m157 -280 c2 -5 2 -98 0 -205 l-3 -195 -134 0 -135 0 0 198 c0
109 3 202 7 205 11 11 261 8 265 -3z"/>
<path d="M160 651 c0 -18 9 -20 93 -23 97 -3 113 1 104 26 -5 13 -24 16 -102
16 -87 0 -95 -2 -95 -19z"/>
<path d="M194 545 c-9 -24 4 -32 71 -43 65 -11 75 -9 75 14 0 17 -28 29 -93
38 -39 6 -48 4 -53 -9z"/>
<path d="M196 463 c-3 -4 -6 -14 -6 -24 0 -18 26 -27 85 -30 49 -2 55 0 55 21
0 14 -9 20 -37 25 -21 3 -50 8 -64 10 -15 2 -29 1 -33 -2z"/>
</g>
</svg>
