<?xml version="1.0" standalone="no"?>
<!DOCTYPE svg PUBLIC "-//W3C//DTD SVG 20010904//EN"
 "http://www.w3.org/TR/2001/REC-SVG-20010904/DTD/svg10.dtd">
<svg version="1.0" xmlns="http://www.w3.org/2000/svg"
 width="51.000000pt" height="100.000000pt" viewBox="0 0 51.000000 100.000000"
 preserveAspectRatio="xMidYMid meet">
<metadata>
Created by potrace 1.16, written by Peter Selinger 2001-2019
</metadata>
<g transform="translate(0.000000,100.000000) scale(0.100000,-0.100000)"
fill="#000000" stroke="none">
<path d="M228 868 l-3 -113 -67 0 c-37 0 -72 -5 -78 -11 -7 -7 -9 -89 -8 -250
l3 -239 78 -3 77 -3 0 -105 c0 -88 3 -106 16 -111 9 -3 24 -2 33 4 13 9 15 27
13 111 l-4 101 74 3 73 3 3 244 c2 189 -1 247 -10 253 -7 5 -38 6 -68 3 -80
-8 -84 -3 -78 100 7 106 3 125 -28 125 -23 0 -23 -2 -26 -112z m99 -164 c40
-5 54 -11 59 -26 3 -11 3 -98 -1 -194 l-8 -174 -122 0 -122 0 -7 77 c-8 103
-7 285 2 300 12 18 112 27 199 17z"/>
<path d="M165 650 c-4 -6 -1 -18 6 -26 9 -11 31 -14 93 -12 73 3 81 5 81 23 0
18 -8 20 -87 23 -54 2 -89 -1 -93 -8z"/>
<path d="M198 544 c-20 -20 -7 -42 30 -48 72 -12 102 -8 102 13 0 11 -4 22 -9
25 -15 10 -116 18 -123 10z"/>
<path d="M190 442 c0 -28 28 -42 85 -42 32 0 47 5 52 16 9 24 -7 32 -74 40
-59 6 -63 5 -63 -14z"/>
</g>
</svg>
