<?xml version="1.0" standalone="no"?>
<!DOCTYPE svg PUBLIC "-//W3C//DTD SVG 20010904//EN"
 "http://www.w3.org/TR/2001/REC-SVG-20010904/DTD/svg10.dtd">
<svg version="1.0" xmlns="http://www.w3.org/2000/svg"
 width="506.000000pt" height="1002.000000pt" viewBox="0 0 506.000000 1002.000000"
 preserveAspectRatio="xMidYMid meet">
<metadata>
Created by potrace 1.16, written by Peter Selinger 2001-2019
</metadata>
<g transform="translate(0.000000,1002.000000) scale(0.500000,-0.500000)"
fill="#000000" stroke="none">
<path d="M485 1955 c-2 -1 -6 -2 -9 -2 -8 -2 -8 -4 -6 -227 3 -261 29 -223
-154 -221 -150 1 -152 1 -156 -3 -6 -6 -6 -969 0 -975 3 -3 13 -3 157 -2 117
1 155 1 159 -1 4 -2 4 -2 4 -221 0 -261 -6 -229 43 -229 53 0 48 -13 45 122
-7 389 -33 331 145 329 137 -1 145 -1 149 2 6 6 6 970 0 976 -3 3 -15 3 -153
2 -182 -2 -156 -39 -153 221 2 217 2 224 -5 227 -4 2 -60 3 -66 2z m219 -533
c67 0 70 0 74 -4 5 -5 5 -801 0 -806 -3 -4 -531 -4 -534 0 -4 4 -5 800 -1 805
3 5 126 7 299 6 51 -1 124 -1 162 -1z"/>
<path d="M331 1323 c-6 -4 -7 -70 -2 -76 6 -6 369 -10 376 -4 6 6 4 72 -1 76
-4 2 -27 3 -127 4 -67 0 -149 2 -182 2 -52 1 -61 1 -64 -2z"/>
<path d="M392 1101 c-9 -3 -19 -72 -11 -80 3 -3 9 -4 86 -13 28 -3 75 -10 105
-14 78 -11 75 -11 80 -8 4 2 5 5 9 33 5 34 3 49 -4 49 -6 0 -166 21 -222 29
-35 5 -37 5 -43 4z"/>
<path d="M392 924 c-8 -4 -20 -70 -13 -78 4 -4 4 -4 64 -13 26 -4 79 -12 116
-18 92 -15 84 -16 89 16 9 55 10 55 -23 60 -12 1 -44 6 -70 10 -26 4 -70 11
-97 15 -27 4 -52 8 -55 9 -3 0 -8 0 -11 -1z"/>
</g>
</svg>
