<?xml version="1.0" standalone="no"?>
<!DOCTYPE svg PUBLIC "-//W3C//DTD SVG 20010904//EN"
 "http://www.w3.org/TR/2001/REC-SVG-20010904/DTD/svg10.dtd">
<svg version="1.0" xmlns="http://www.w3.org/2000/svg"
 width="90.000000pt" height="148.000000pt" viewBox="0 0 90.000000 148.000000"
 preserveAspectRatio="xMidYMid meet">
<metadata>
Created by potrace 1.16, written by Peter Selinger 2001-2019
</metadata>
<g transform="translate(0.000000,148.000000) scale(0.100000,-0.100000)"
fill="#000000" stroke="none">
<path d="M412 1397 c-12 -13 -22 -28 -22 -33 0 -6 -13 -23 -30 -39 -16 -16
-30 -35 -30 -43 0 -8 -42 -60 -92 -117 -106 -116 -173 -206 -173 -232 0 -14
10 -19 44 -21 54 -4 87 12 99 47 5 14 28 47 51 73 22 25 41 50 41 55 0 15 79
95 90 91 12 -4 15 -822 4 -1008 -5 -81 -4 -104 7 -111 17 -11 70 -11 84 -1 8
5 9 179 5 557 -3 303 -1 556 4 562 10 16 26 7 26 -14 0 -8 11 -28 25 -45 14
-16 25 -35 25 -42 0 -7 14 -25 30 -41 17 -16 30 -34 30 -41 0 -7 15 -29 34
-49 32 -34 38 -36 88 -33 46 3 53 6 56 25 2 15 -9 31 -37 54 -23 18 -41 40
-41 49 0 9 -11 27 -25 40 -14 13 -25 29 -25 35 0 7 -9 20 -20 30 -11 10 -20
23 -20 30 0 6 -18 29 -40 50 -22 21 -40 46 -40 55 0 10 -9 25 -20 35 -12 10
-29 38 -40 62 -22 50 -53 57 -88 20z"/>
</g>
</svg>
