<?xml version="1.0" standalone="no"?>
<!DOCTYPE svg PUBLIC "-//W3C//DTD SVG 20010904//EN"
 "http://www.w3.org/TR/2001/REC-SVG-20010904/DTD/svg10.dtd">
<svg version="1.0" xmlns="http://www.w3.org/2000/svg"
 width="61.000000pt" height="100.000000pt" viewBox="0 0 61.000000 100.000000"
 preserveAspectRatio="xMidYMid meet">
<metadata>
Created by potrace 1.16, written by Peter Selinger 2001-2019
</metadata>
<g transform="translate(0.000000,100.000000) scale(0.100000,-0.100000)"
fill="#000000" stroke="none">
<path d="M283 947 c-11 -12 -30 -38 -44 -57 -13 -19 -63 -82 -112 -138 -50
-59 -87 -111 -85 -120 2 -11 15 -18 35 -20 36 -4 48 6 108 93 62 90 73 101 82
90 5 -5 6 -150 3 -320 -3 -171 -3 -340 0 -375 5 -64 5 -65 35 -65 l30 0 -1
383 c-1 210 1 382 6 382 4 0 30 -38 59 -86 54 -88 83 -111 128 -99 30 7 29 19
-7 63 -46 57 -155 213 -173 248 -21 41 -40 47 -64 21z"/>
</g>
</svg>
