<?xml version="1.0" standalone="no"?>
<!DOCTYPE svg PUBLIC "-//W3C//DTD SVG 20010904//EN"
 "http://www.w3.org/TR/2001/REC-SVG-20010904/DTD/svg10.dtd">
<svg version="1.0" xmlns="http://www.w3.org/2000/svg"
 width="360.000000pt" height="590.000000pt" viewBox="0 0 360.000000 590.000000"
 preserveAspectRatio="xMidYMid meet">
<metadata>
Created by potrace 1.16, written by Peter Selinger 2001-2019
</metadata>
<g transform="translate(0.000000,590.000000) scale(0.500000,-0.500000)"
fill="#000000" stroke="none">
<path d="M352 1136 c-3 -1 -8 -5 -11 -8 -3 -3 -10 -9 -14 -14 -7 -6 -9 -9 -11
-18 -2 -11 -3 -13 -26 -35 -26 -27 -28 -29 -28 -41 0 -8 -7 -16 -41 -47 -8 -8
-14 -16 -17 -22 -3 -8 -13 -19 -41 -47 -33 -33 -39 -40 -57 -67 -11 -16 -25
-36 -32 -42 -43 -45 -31 -70 33 -67 41 2 61 16 65 44 2 12 2 11 45 56 27 28
29 30 29 40 0 11 1 12 32 44 48 50 46 53 43 -88 -3 -119 -6 -758 -4 -767 3
-14 76 -17 83 -2 4 6 1 606 -3 763 -3 111 -3 115 1 120 7 10 17 6 19 -8 1 -4
2 -9 2 -11 1 -3 8 -12 17 -21 14 -15 16 -18 17 -26 2 -14 3 -16 11 -24 42 -43
44 -46 44 -56 0 -16 40 -59 58 -61 30 -4 74 0 79 6 13 15 7 30 -23 57 -30 28
-30 28 -32 40 -1 10 -3 12 -19 28 -18 17 -19 18 -19 28 -1 11 -2 11 -19 28
-17 16 -21 22 -21 34 0 5 -3 9 -14 19 -40 38 -42 41 -42 49 0 11 -2 14 -20 32
-16 16 -16 16 -18 28 -2 11 -3 14 -11 21 -6 6 -10 12 -12 19 -5 16 -25 23 -43
16z"/>
</g>
</svg>
