<?xml version="1.0" standalone="no"?>
<!DOCTYPE svg PUBLIC "-//W3C//DTD SVG 20010904//EN"
 "http://www.w3.org/TR/2001/REC-SVG-20010904/DTD/svg10.dtd">
<svg version="1.0" xmlns="http://www.w3.org/2000/svg"
 width="108.000000pt" height="148.000000pt" viewBox="0 0 108.000000 148.000000"
 preserveAspectRatio="xMidYMid meet">
<metadata>
Created by potrace 1.16, written by Peter Selinger 2001-2019
</metadata>
<g transform="translate(0.000000,148.000000) scale(0.100000,-0.100000)"
fill="#000000" stroke="none">
<path d="M511 1364 c-17 -25 -31 -48 -31 -51 0 -3 -16 -25 -35 -49 -19 -23
-35 -45 -35 -49 0 -6 -40 -65 -50 -75 -6 -6 -80 -116 -95 -142 -5 -10 -29 -45
-52 -78 -24 -33 -43 -64 -43 -69 0 -4 -12 -18 -26 -32 -27 -25 -84 -107 -84
-121 0 -4 20 -8 43 -8 41 0 77 21 77 44 0 4 26 46 58 93 31 47 62 92 67 101 6
9 26 39 45 67 19 27 69 102 111 165 42 63 83 121 92 129 15 12 19 9 35 -25 24
-51 50 -95 90 -155 17 -27 32 -53 32 -58 0 -5 15 -31 33 -57 18 -27 37 -56 41
-64 3 -8 35 -64 69 -125 l62 -110 43 -3 c53 -4 64 16 31 57 -13 16 -35 48 -49
72 -14 23 -29 47 -35 53 -23 26 -52 74 -73 118 -12 25 -26 49 -32 53 -5 3 -19
25 -30 48 -12 23 -34 62 -50 87 -16 25 -41 66 -54 91 -46 85 -87 139 -106 139
-11 0 -31 -19 -49 -46z"/>
<path d="M501 998 c-52 -66 -65 -82 -157 -192 -41 -49 -74 -95 -74 -102 0 -10
13 -14 41 -14 37 0 69 17 69 37 0 4 16 26 35 48 19 22 35 45 35 50 0 13 56 66
62 59 3 -2 3 -188 0 -413 -4 -310 -2 -410 7 -415 18 -12 58 2 65 21 9 22 8
621 -1 726 -5 63 -3 77 8 77 8 0 23 -17 34 -37 11 -21 30 -51 43 -68 67 -87
68 -88 102 -87 52 1 59 17 24 54 -17 18 -52 65 -77 104 -26 39 -54 77 -62 84
-8 7 -15 17 -15 23 0 6 -7 19 -17 29 -9 10 -21 28 -27 41 -21 40 -50 33 -95
-25z"/>
</g>
</svg>
