<?xml version="1.0" standalone="no"?>
<!DOCTYPE svg PUBLIC "-//W3C//DTD SVG 20010904//EN"
 "http://www.w3.org/TR/2001/REC-SVG-20010904/DTD/svg10.dtd">
<svg version="1.0" xmlns="http://www.w3.org/2000/svg"
 width="73.000000pt" height="100.000000pt" viewBox="0 0 73.000000 100.000000"
 preserveAspectRatio="xMidYMid meet">
<metadata>
Created by potrace 1.16, written by Peter Selinger 2001-2019
</metadata>
<g transform="translate(0.000000,100.000000) scale(0.100000,-0.100000)"
fill="#000000" stroke="none">
<path d="M353 938 c-11 -13 -70 -97 -131 -188 -61 -91 -127 -188 -147 -217
-39 -54 -39 -73 0 -73 28 0 28 0 179 231 l120 182 20 -26 c12 -14 55 -84 96
-156 41 -73 89 -153 105 -179 30 -47 57 -61 84 -43 12 7 0 31 -56 118 -39 59
-96 153 -128 208 -63 109 -102 165 -114 165 -4 0 -17 -10 -28 -22z"/>
<path d="M279 605 c-94 -118 -107 -148 -63 -143 21 2 38 17 68 62 70 101 70
102 61 -182 -8 -277 -5 -315 28 -310 13 2 24 13 28 28 4 14 5 136 1 273 -3
173 -2 247 6 247 6 0 20 -17 33 -37 32 -55 60 -83 81 -83 36 0 28 29 -30 106
-32 44 -67 94 -77 112 -11 17 -27 32 -36 32 -9 0 -54 -47 -100 -105z"/>
</g>
</svg>
