<?xml version="1.0" standalone="no"?>
<!DOCTYPE svg PUBLIC "-//W3C//DTD SVG 20010904//EN"
 "http://www.w3.org/TR/2001/REC-SVG-20010904/DTD/svg10.dtd">
<svg version="1.0" xmlns="http://www.w3.org/2000/svg"
 width="430.000000pt" height="590.000000pt" viewBox="0 0 430.000000 590.000000"
 preserveAspectRatio="xMidYMid meet">
<metadata>
Created by potrace 1.16, written by Peter Selinger 2001-2019
</metadata>
<g transform="translate(0.000000,590.000000) scale(0.500000,-0.500000)"
fill="#000000" stroke="none">
<path d="M437 1126 c-9 -3 -24 -19 -27 -29 -1 -6 -6 -13 -14 -22 -8 -9 -12
-15 -13 -20 -1 -6 -5 -12 -14 -21 -9 -9 -13 -16 -14 -20 -1 -5 -5 -12 -13 -20
-7 -7 -12 -15 -14 -20 -2 -6 -7 -13 -14 -21 -8 -9 -12 -15 -13 -20 -1 -6 -5
-11 -13 -20 -8 -8 -13 -16 -16 -23 -2 -6 -8 -15 -15 -22 -7 -8 -11 -14 -12
-19 -1 -5 -5 -11 -13 -20 -7 -8 -13 -16 -15 -21 -2 -5 -8 -14 -14 -21 -6 -7
-12 -15 -13 -20 -1 -4 -7 -12 -14 -20 -8 -9 -12 -16 -14 -22 -1 -6 -5 -11 -13
-19 -7 -7 -12 -14 -14 -20 -2 -7 -8 -14 -22 -28 -13 -14 -19 -21 -21 -27 -1
-4 -6 -12 -14 -20 -6 -7 -13 -16 -14 -20 -1 -5 -5 -11 -7 -14 -23 -30 55 -39
79 -9 4 6 8 12 8 15 0 6 3 11 15 24 7 7 11 14 12 18 1 5 5 12 13 21 7 8 13 17
14 22 2 5 7 13 13 19 5 6 11 16 13 21 3 7 8 15 15 22 7 8 11 14 13 20 2 6 6
13 14 21 7 8 13 16 14 20 1 5 7 13 14 21 8 8 13 16 14 20 1 5 7 13 14 21 7 7
12 16 14 21 1 5 7 13 13 20 6 6 12 15 14 20 2 5 8 14 14 20 6 7 12 16 14 21 2
6 7 14 14 21 7 8 12 15 13 20 9 33 42 42 50 13 1 -4 4 -10 6 -12 2 -2 5 -8 6
-13 2 -6 6 -12 14 -21 7 -7 13 -16 15 -21 2 -4 5 -11 7 -14 2 -3 5 -9 7 -14 2
-5 8 -14 14 -21 6 -7 12 -15 13 -19 1 -4 4 -10 7 -14 3 -3 6 -9 8 -14 2 -5 5
-11 7 -14 2 -3 5 -10 7 -14 2 -5 7 -13 13 -19 6 -6 12 -14 14 -21 2 -6 6 -13
8 -16 2 -2 5 -8 6 -12 1 -6 6 -13 14 -21 7 -8 13 -16 14 -20 1 -4 4 -11 7 -15
2 -4 6 -11 7 -15 1 -5 4 -10 6 -12 2 -2 5 -8 6 -12 2 -6 6 -13 14 -22 7 -8 12
-16 13 -20 1 -3 4 -10 7 -15 3 -5 6 -11 6 -13 0 -27 67 -48 88 -27 10 10 9 19
-5 34 -6 7 -14 18 -16 24 -3 6 -7 13 -9 15 -2 2 -5 8 -7 13 -2 5 -8 14 -14 20
-7 7 -12 14 -13 20 -2 6 -7 13 -15 21 -7 8 -12 16 -13 20 -2 5 -7 13 -15 21
-8 9 -13 16 -14 21 -1 4 -4 10 -7 14 -3 4 -6 9 -6 11 0 5 -3 11 -8 17 -2 2 -5
8 -6 13 -2 6 -6 12 -15 22 -9 9 -13 15 -13 19 0 2 -2 8 -5 12 -3 4 -7 11 -8
16 -2 4 -8 13 -14 20 -6 7 -12 16 -14 21 -2 5 -5 11 -7 14 -2 3 -5 9 -6 13 -1
4 -8 13 -14 20 -7 8 -13 16 -14 21 -1 4 -4 10 -7 13 -2 4 -6 10 -7 14 -1 5 -4
11 -6 14 -3 3 -6 9 -7 14 -2 7 -7 13 -15 22 -8 9 -12 14 -13 20 -4 21 -30 35
-52 29z"/>
<path d="M433 838 c-3 -2 -10 -11 -17 -20 -6 -8 -18 -21 -26 -29 -11 -11 -15
-16 -17 -24 -2 -8 -6 -13 -21 -27 -14 -14 -18 -20 -21 -28 -3 -8 -7 -13 -29
-34 -20 -20 -26 -27 -28 -34 -2 -6 -7 -12 -21 -27 -13 -13 -19 -20 -22 -27 -2
-5 -5 -11 -7 -13 -15 -14 -3 -21 33 -21 l29 1 10 10 c7 7 11 13 12 20 2 7 7
13 26 35 20 21 25 27 27 35 4 13 43 53 48 50 7 -4 7 -12 4 -141 -5 -256 -5
-508 0 -513 15 -15 59 0 63 21 2 9 -2 444 -4 515 -3 94 -3 112 1 116 5 5 7 4
11 -6 2 -6 9 -15 15 -22 7 -8 11 -15 13 -21 2 -6 7 -13 19 -27 13 -14 18 -20
20 -28 7 -24 38 -49 61 -49 46 0 54 21 19 53 -13 12 -18 18 -20 25 -2 5 -7 13
-15 21 -8 8 -12 15 -14 20 -1 5 -6 13 -14 21 -8 8 -13 16 -14 21 -2 6 -7 13
-21 27 -14 15 -19 21 -21 28 -2 6 -6 12 -13 20 -7 8 -12 14 -14 20 -8 28 -36
45 -52 32z"/>
</g>
</svg>
