<?xml version="1.0" standalone="no"?>
<!DOCTYPE svg PUBLIC "-//W3C//DTD SVG 20010904//EN"
 "http://www.w3.org/TR/2001/REC-SVG-20010904/DTD/svg10.dtd">
<svg version="1.0" xmlns="http://www.w3.org/2000/svg"
 width="228.000000pt" height="590.000000pt" viewBox="0 0 228.000000 590.000000"
 preserveAspectRatio="xMidYMid meet">
<metadata>
Created by potrace 1.16, written by Peter Selinger 2001-2019
</metadata>
<g transform="translate(0.000000,590.000000) scale(0.500000,-0.500000)"
fill="#000000" stroke="none">
<path d="M201 1116 c-16 -10 -29 -28 -47 -65 -9 -20 -38 -79 -64 -131 -59
-117 -59 -117 -19 -117 27 0 25 -2 55 64 34 72 49 101 53 95 3 -4 3 -51 2
-167 l-2 -126 -8 -11 c-5 -6 -9 -12 -9 -13 0 -1 -5 -8 -11 -16 -7 -7 -15 -17
-18 -22 -3 -5 -9 -14 -12 -19 -3 -5 -9 -13 -14 -18 -5 -5 -10 -12 -12 -16 -2
-4 -9 -13 -15 -19 -28 -30 -6 -79 50 -110 12 -7 45 -39 48 -47 1 -4 1 -58 0
-153 -1 -82 -2 -154 -2 -162 0 -25 41 -38 60 -19 6 6 8 152 3 285 -1 43 -5 37
48 89 25 24 49 46 54 49 17 9 18 37 3 55 -4 5 -8 10 -8 12 0 1 -3 5 -7 10 -4
5 -9 11 -10 15 -2 3 -7 10 -10 15 -7 9 -15 21 -26 38 -3 5 -7 11 -10 14 -2 3
-6 9 -9 13 -2 4 -7 12 -12 16 -14 14 -14 4 -14 170 -1 177 -1 173 19 134 4 -9
11 -19 14 -24 4 -4 7 -9 7 -9 0 -4 21 -46 26 -52 3 -4 10 -16 15 -28 16 -36
24 -44 47 -44 32 0 38 26 14 59 -4 6 -13 20 -19 33 -6 12 -14 25 -17 29 -3 3
-11 17 -18 30 -6 13 -14 27 -17 30 -3 4 -11 18 -18 32 -7 14 -14 27 -16 29 -2
2 -9 14 -15 27 -22 43 -40 57 -59 45z m-21 -546 c9 -31 -1 -130 -11 -114 -1 1
-5 4 -9 6 -30 16 -43 38 -31 53 5 6 10 14 12 17 2 4 8 12 13 18 5 6 11 14 14
19 5 8 10 9 12 1z m71 -2 c2 -3 8 -11 13 -17 6 -6 12 -15 15 -20 3 -6 7 -13
10 -17 9 -13 2 -30 -17 -40 -4 -2 -12 -8 -18 -13 -17 -15 -17 -14 -17 53 0 65
2 74 14 54z"/>
</g>
</svg>
