<?xml version="1.0" standalone="no"?>
<!DOCTYPE svg PUBLIC "-//W3C//DTD SVG 20010904//EN"
 "http://www.w3.org/TR/2001/REC-SVG-20010904/DTD/svg10.dtd">
<svg version="1.0" xmlns="http://www.w3.org/2000/svg"
 width="39.000000pt" height="100.000000pt" viewBox="0 0 39.000000 100.000000"
 preserveAspectRatio="xMidYMid meet">
<metadata>
Created by potrace 1.16, written by Peter Selinger 2001-2019
</metadata>
<g transform="translate(0.000000,100.000000) scale(0.100000,-0.100000)"
fill="#000000" stroke="none">
<path d="M153 928 c-6 -7 -36 -63 -69 -125 -47 -90 -56 -115 -46 -125 20 -20
43 1 74 65 15 32 32 57 37 57 6 0 8 -46 4 -122 l-6 -123 -49 -58 c-63 -76 -63
-82 7 -137 l40 -32 5 -146 c5 -140 6 -147 26 -150 30 -4 35 23 28 158 l-6 115
51 50 c28 27 51 56 51 65 0 8 -22 46 -50 84 l-50 69 0 124 c0 141 6 146 50 48
18 -40 36 -66 49 -70 47 -14 54 23 16 76 -14 19 -46 69 -71 112 -46 76 -69 93
-91 65z"/>
</g>
</svg>
