<?xml version="1.0" standalone="no"?>
<!DOCTYPE svg PUBLIC "-//W3C//DTD SVG 20010904//EN"
 "http://www.w3.org/TR/2001/REC-SVG-20010904/DTD/svg10.dtd">
<svg version="1.0" xmlns="http://www.w3.org/2000/svg"
 width="286.000000pt" height="590.000000pt" viewBox="0 0 286.000000 590.000000"
 preserveAspectRatio="xMidYMid meet">
<metadata>
Created by potrace 1.16, written by Peter Selinger 2001-2019
</metadata>
<g transform="translate(0.000000,590.000000) scale(0.500000,-0.500000)"
fill="#000000" stroke="none">
<path d="M260 1133 c-6 -4 -16 -17 -55 -76 -8 -11 -20 -28 -27 -38 -7 -10 -15
-22 -18 -26 -10 -14 -36 -50 -41 -56 -2 -3 -7 -10 -9 -14 -8 -14 -44 -62 -56
-74 -26 -28 -22 -59 7 -56 14 1 19 5 36 31 10 15 26 34 52 63 9 11 22 26 27
33 22 32 70 86 76 86 24 0 11 -74 -23 -124 -8 -12 -15 -24 -15 -25 0 -2 -6
-15 -13 -29 -13 -26 -14 -28 -15 -46 -1 -10 -3 -23 -5 -29 -6 -18 -6 -206 1
-223 2 -6 4 -14 4 -16 0 -2 1 -7 3 -10 4 -8 10 -24 16 -46 8 -27 28 -69 37
-79 9 -10 11 -14 13 -24 1 -4 4 -11 8 -15 3 -4 7 -9 9 -10 5 -8 8 -41 7 -83
-1 -33 -1 -42 2 -50 2 -7 3 -19 3 -41 0 -74 2 -100 8 -106 8 -8 21 -8 30 0 l7
5 -2 81 c-2 68 -3 82 -6 89 -2 6 -3 19 -5 61 -2 58 -2 54 10 71 22 29 50 106
50 136 0 6 1 14 3 18 2 3 4 13 5 21 1 8 3 19 5 24 6 15 6 121 0 135 -3 6 -5
17 -6 27 -1 9 -3 20 -4 24 -2 3 -4 13 -4 21 -1 8 -3 18 -5 23 -2 5 -4 13 -5
19 -1 5 -3 12 -4 16 -20 45 -25 55 -30 63 -4 5 -10 16 -14 24 -4 8 -10 18 -13
23 -12 14 -15 25 -15 58 0 41 3 42 34 10 11 -11 22 -21 24 -23 2 -2 11 -10 18
-19 7 -8 17 -19 23 -23 5 -4 13 -12 18 -18 4 -7 12 -14 16 -17 5 -3 12 -10 17
-16 54 -65 93 -82 93 -40 0 14 -1 17 -15 31 -32 35 -56 63 -63 74 -5 6 -16 19
-26 29 -19 20 -32 34 -47 55 -6 8 -19 23 -29 35 -11 12 -22 27 -26 33 -19 29
-49 45 -66 33z m34 -262 c34 -52 32 -56 -35 -100 -8 -5 -18 -11 -23 -15 -13
-9 -19 -3 -13 15 2 6 3 12 3 15 0 15 30 78 44 92 7 7 16 5 24 -7z m44 -109 c2
-4 4 -12 5 -21 1 -8 3 -19 4 -24 7 -24 6 -25 -72 -80 -11 -7 -27 -19 -36 -25
-26 -20 -27 -19 -27 31 -1 46 -1 44 16 55 8 4 19 12 24 17 6 4 21 15 34 24 13
9 27 19 32 22 11 9 15 9 20 1z m18 -128 c4 -5 3 -46 -3 -65 -6 -21 -8 -23 -38
-46 -12 -9 -26 -21 -32 -25 -30 -24 -38 -27 -44 -14 -8 19 -18 46 -18 53 -1
10 -2 9 18 22 14 10 54 38 77 54 31 23 35 25 40 21z m-24 -162 c0 -12 -6 -29
-17 -51 -21 -40 -21 -40 -46 -4 -6 8 -2 13 20 30 33 26 43 32 43 25z"/>
</g>
</svg>
