<?xml version="1.0" standalone="no"?>
<!DOCTYPE svg PUBLIC "-//W3C//DTD SVG 20010904//EN"
 "http://www.w3.org/TR/2001/REC-SVG-20010904/DTD/svg10.dtd">
<svg version="1.0" xmlns="http://www.w3.org/2000/svg"
 width="72.000000pt" height="148.000000pt" viewBox="0 0 72.000000 148.000000"
 preserveAspectRatio="xMidYMid meet">
<metadata>
Created by potrace 1.16, written by Peter Selinger 2001-2019
</metadata>
<g transform="translate(0.000000,148.000000) scale(0.100000,-0.100000)"
fill="#000000" stroke="none">
<path d="M274 1348 c-108 -158 -150 -215 -191 -267 -47 -57 -51 -84 -16 -89
16 -2 30 7 50 35 75 102 187 233 197 230 21 -7 18 -76 -5 -115 -80 -133 -81
-135 -86 -302 -5 -148 -4 -159 21 -233 26 -76 66 -157 92 -187 9 -11 13 -62
15 -180 1 -91 4 -171 7 -177 5 -17 39 -17 44 0 2 6 1 89 -3 182 l-7 170 33 70
c90 189 83 450 -18 624 -42 73 -63 146 -48 170 4 7 57 -40 136 -119 91 -93
135 -130 149 -128 11 2 21 8 23 15 2 6 -32 53 -76 105 -45 51 -113 132 -152
181 -91 110 -99 111 -165 15z m112 -290 c18 -35 14 -42 -57 -93 -26 -19 -51
-30 -54 -25 -11 18 26 118 58 158 12 16 32 1 53 -40z m39 -110 c2 -7 6 -29 10
-50 6 -36 5 -37 -72 -90 -43 -30 -84 -58 -90 -62 -10 -5 -13 7 -13 52 l0 59
72 51 c78 55 86 59 93 40z m25 -188 c0 -55 -14 -79 -71 -124 -67 -52 -81 -51
-98 3 -12 37 -12 45 0 52 8 4 46 30 84 58 39 27 73 50 78 50 4 1 7 -17 7 -39z
m-35 -187 c-8 -35 -37 -85 -51 -90 -6 -2 -17 8 -25 23 -13 25 -12 28 26 60 49
41 59 42 50 7z"/>
</g>
</svg>
