<?xml version="1.0" standalone="no"?>
<!DOCTYPE svg PUBLIC "-//W3C//DTD SVG 20010904//EN"
 "http://www.w3.org/TR/2001/REC-SVG-20010904/DTD/svg10.dtd">
<svg version="1.0" xmlns="http://www.w3.org/2000/svg"
 width="49.000000pt" height="100.000000pt" viewBox="0 0 49.000000 100.000000"
 preserveAspectRatio="xMidYMid meet">
<metadata>
Created by potrace 1.16, written by Peter Selinger 2001-2019
</metadata>
<g transform="translate(0.000000,100.000000) scale(0.100000,-0.100000)"
fill="#000000" stroke="none">
<path d="M133 844 c-129 -170 -119 -153 -100 -171 15 -15 18 -15 34 0 10 8 43
50 73 91 32 43 62 76 73 76 24 0 22 -8 -24 -102 l-40 -83 3 -120 c3 -115 4
-123 41 -197 33 -69 37 -86 38 -160 2 -104 10 -142 31 -146 25 -5 28 22 19
141 -9 103 -8 111 15 160 66 146 52 308 -41 463 -11 19 -16 38 -11 49 6 16 20
5 96 -70 61 -61 93 -86 104 -82 28 11 18 34 -46 104 -35 38 -82 90 -104 116
-23 26 -48 47 -57 47 -8 0 -55 -52 -104 -116z m155 -236 c2 -20 -6 -32 -40
-57 -46 -34 -61 -35 -66 -4 -2 14 11 32 39 57 48 41 63 41 67 4z m10 -114 c-2
-17 -18 -39 -41 -58 -38 -30 -39 -30 -53 -12 -20 28 -19 32 29 65 53 38 69 39
65 5z"/>
</g>
</svg>
