<?xml version="1.0" standalone="no"?>
<!DOCTYPE svg PUBLIC "-//W3C//DTD SVG 20010904//EN"
 "http://www.w3.org/TR/2001/REC-SVG-20010904/DTD/svg10.dtd">
<svg version="1.0" xmlns="http://www.w3.org/2000/svg"
 width="100.000000pt" height="93.000000pt" viewBox="0 0 100.000000 93.000000"
 preserveAspectRatio="xMidYMid meet">
<metadata>
Created by potrace 1.16, written by Peter Selinger 2001-2019
</metadata>
<g transform="translate(0.000000,93.000000) scale(0.100000,-0.100000)"
fill="#000000" stroke="none">
<path d="M636 716 c-50 -100 -84 -180 -80 -189 8 -21 29 -28 46 -14 17 14 108
208 108 229 0 8 6 23 14 34 20 27 28 17 111 -134 61 -110 73 -127 95 -127 41
0 35 29 -28 132 -33 54 -72 123 -87 153 -67 131 -74 128 -179 -84z"/>
<path d="M173 853 c-3 -10 -37 -82 -75 -161 -72 -152 -85 -206 -46 -200 20 3
66 90 133 249 6 13 16 24 23 24 7 0 43 -58 81 -130 73 -138 89 -157 115 -136
22 19 20 34 -13 83 -16 24 -59 98 -96 166 -57 104 -70 122 -91 122 -14 0 -27
-7 -31 -17z"/>
<path d="M733 538 c-10 -17 -17 -352 -8 -435 6 -58 9 -64 28 -61 22 3 22 4 22
253 0 225 -2 250 -17 253 -9 2 -20 -3 -25 -10z"/>
<path d="M189 503 c-13 -33 -3 -452 11 -467 5 -5 16 -6 25 -3 13 6 15 35 13
249 -3 222 -5 243 -20 246 -12 2 -22 -6 -29 -25z"/>
</g>
</svg>
