<?xml version="1.0" standalone="no"?>
<!DOCTYPE svg PUBLIC "-//W3C//DTD SVG 20010904//EN"
 "http://www.w3.org/TR/2001/REC-SVG-20010904/DTD/svg10.dtd">
<svg version="1.0" xmlns="http://www.w3.org/2000/svg"
 width="160.000000pt" height="148.000000pt" viewBox="0 0 160.000000 148.000000"
 preserveAspectRatio="xMidYMid meet">
<metadata>
Created by potrace 1.16, written by Peter Selinger 2001-2019
</metadata>
<g transform="translate(0.000000,148.000000) scale(0.100000,-0.100000)"
fill="#000000" stroke="none">
<path d="M1161 1406 c-10 -12 -42 -74 -205 -405 -36 -73 -66 -139 -66 -145 0
-7 9 -21 20 -31 18 -16 23 -17 45 -5 14 8 28 25 32 39 9 36 83 181 93 181 4 0
10 19 13 42 3 23 13 45 21 50 9 5 16 20 16 33 0 30 18 77 33 87 32 20 48 6
109 -102 35 -61 68 -119 73 -128 6 -10 25 -41 43 -68 17 -28 32 -58 32 -66 0
-9 14 -31 30 -48 l31 -33 24 23 c32 30 31 44 -4 89 -16 20 -37 52 -48 71 -10
19 -31 55 -47 79 -16 25 -34 59 -42 76 -7 17 -20 37 -28 45 -9 7 -16 20 -16
30 0 9 -8 28 -17 41 -26 35 -43 67 -43 80 0 7 -11 27 -26 46 -26 35 -54 42
-73 19z"/>
<path d="M291 1364 c-12 -15 -21 -31 -21 -36 0 -16 -80 -179 -95 -195 -8 -8
-15 -21 -15 -30 0 -21 -52 -133 -62 -133 -4 0 -8 -5 -8 -10 0 -6 -9 -30 -20
-52 -24 -49 -27 -116 -6 -124 23 -9 55 14 62 44 4 15 29 69 55 121 27 52 49
100 49 106 0 7 9 24 20 38 11 14 20 32 20 41 0 9 9 35 21 57 16 33 25 40 45
37 21 -3 38 -27 111 -168 47 -91 95 -184 107 -208 12 -23 34 -49 49 -57 27
-14 29 -13 46 16 l19 31 -44 63 c-24 34 -44 66 -44 71 0 4 -7 15 -15 24 -20
22 -65 108 -65 124 0 7 -9 21 -20 31 -11 10 -20 26 -20 35 0 9 -11 31 -24 49
-13 18 -30 47 -37 64 -14 38 -57 87 -75 87 -7 0 -22 -12 -33 -26z"/>
<path d="M1171 841 c-8 -14 -10 -140 -9 -393 l3 -373 35 0 35 0 0 390 0 390
-27 3 c-19 2 -30 -3 -37 -17z"/>
<path d="M314 816 c-14 -10 -14 -52 -7 -386 l8 -375 30 0 30 0 0 385 0 385
-22 1 c-13 1 -30 -4 -39 -10z"/>
</g>
</svg>
