<?xml version="1.0" standalone="no"?>
<!DOCTYPE svg PUBLIC "-//W3C//DTD SVG 20010904//EN"
 "http://www.w3.org/TR/2001/REC-SVG-20010904/DTD/svg10.dtd">
<svg version="1.0" xmlns="http://www.w3.org/2000/svg"
 width="334.000000pt" height="590.000000pt" viewBox="0 0 334.000000 590.000000"
 preserveAspectRatio="xMidYMid meet">
<metadata>
Created by potrace 1.16, written by Peter Selinger 2001-2019
</metadata>
<g transform="translate(0.000000,590.000000) scale(0.500000,-0.500000)"
fill="#000000" stroke="none">
<path d="M298 1138 c-3 -2 -8 -7 -11 -13 -4 -5 -9 -12 -13 -16 -7 -7 -9 -12
-11 -21 -1 -7 -21 -44 -75 -141 -15 -26 -36 -63 -46 -82 -38 -70 -67 -123 -78
-143 -6 -12 -13 -24 -17 -29 -6 -7 -6 -8 -7 -29 -1 -42 -2 -42 129 -40 56 1
104 2 107 1 13 -3 12 19 10 -286 -2 -299 -3 -286 6 -290 11 -6 57 -4 63 2 5 5
6 407 1 504 -1 31 -1 51 1 62 2 9 7 9 120 7 122 -2 117 -3 121 13 8 26 2 56
-14 76 -4 4 -10 15 -14 24 -5 9 -11 19 -13 22 -3 3 -9 13 -13 22 -5 9 -10 18
-13 21 -2 3 -8 12 -12 21 -4 9 -10 19 -13 22 -3 4 -9 13 -12 20 -4 8 -10 18
-14 23 -3 6 -11 20 -18 32 -6 13 -14 27 -17 31 -3 4 -11 18 -17 30 -6 12 -14
26 -17 30 -4 4 -8 12 -11 16 -2 5 -5 10 -7 11 -2 2 -8 11 -13 22 -5 11 -11 20
-13 22 -2 1 -5 5 -6 9 -21 40 -43 57 -63 47z m24 -103 c2 -4 21 -37 43 -76 42
-74 84 -147 109 -190 41 -70 41 -67 4 -69 -13 -1 -26 -3 -29 -4 -6 -2 -8 -2
-17 1 -9 3 -158 7 -201 4 -47 -2 -85 0 -89 5 -12 14 -6 34 19 67 6 8 14 21 19
30 5 9 11 19 14 23 3 4 6 10 7 13 2 10 28 59 40 74 5 8 11 18 13 22 1 4 5 11
9 15 4 3 7 9 8 13 2 11 28 63 37 74 4 5 9 4 14 -2z"/>
</g>
</svg>
