<?xml version="1.0" standalone="no"?>
<!DOCTYPE svg PUBLIC "-//W3C//DTD SVG 20010904//EN"
 "http://www.w3.org/TR/2001/REC-SVG-20010904/DTD/svg10.dtd">
<svg version="1.0" xmlns="http://www.w3.org/2000/svg"
 width="57.000000pt" height="100.000000pt" viewBox="0 0 57.000000 100.000000"
 preserveAspectRatio="xMidYMid meet">
<metadata>
Created by potrace 1.16, written by Peter Selinger 2001-2019
</metadata>
<g transform="translate(0.000000,100.000000) scale(0.100000,-0.100000)"
fill="#000000" stroke="none">
<path d="M157 803 c-124 -229 -134 -250 -118 -266 8 -8 44 -12 104 -12 l92 0
5 -245 c5 -245 5 -245 27 -248 39 -6 44 31 37 259 -9 252 -12 243 92 234 90
-9 114 -2 114 32 0 16 -46 105 -111 215 -93 157 -115 188 -134 188 -19 0 -36
-24 -108 -157z m157 0 c19 -38 53 -97 75 -133 21 -36 37 -68 35 -72 -3 -5 -72
-8 -155 -8 -174 0 -170 -4 -108 98 22 37 52 93 67 125 14 31 32 57 39 57 7 0
28 -30 47 -67z"/>
</g>
</svg>
