<?xml version="1.0" standalone="no"?>
<!DOCTYPE svg PUBLIC "-//W3C//DTD SVG 20010904//EN"
 "http://www.w3.org/TR/2001/REC-SVG-20010904/DTD/svg10.dtd">
<svg version="1.0" xmlns="http://www.w3.org/2000/svg"
 width="312.000000pt" height="590.000000pt" viewBox="0 0 312.000000 590.000000"
 preserveAspectRatio="xMidYMid meet">
<metadata>
Created by potrace 1.16, written by Peter Selinger 2001-2019
</metadata>
<g transform="translate(0.000000,590.000000) scale(0.500000,-0.500000)"
fill="#000000" stroke="none">
<path d="M513 1142 c-7 -6 -7 -12 -6 -123 2 -108 2 -125 -3 -130 -3 -3 -20 -3
-220 -3 -216 0 -216 0 -221 -5 -6 -6 -7 -828 -1 -836 7 -8 44 -7 52 1 5 5 5 5
3 160 -1 183 -4 165 24 165 10 0 104 0 208 -1 105 0 194 0 198 0 19 0 17 -40
17 367 0 197 0 361 1 366 7 35 -25 59 -52 39z m-5 -315 c1 -1 0 -390 -1 -395
-2 -7 -384 -11 -391 -4 -3 3 -4 206 -2 389 0 13 -14 12 189 13 177 1 201 1
205 -3z"/>
</g>
</svg>
