<?xml version="1.0" standalone="no"?>
<!DOCTYPE svg PUBLIC "-//W3C//DTD SVG 20010904//EN"
 "http://www.w3.org/TR/2001/REC-SVG-20010904/DTD/svg10.dtd">
<svg version="1.0" xmlns="http://www.w3.org/2000/svg"
 width="53.000000pt" height="100.000000pt" viewBox="0 0 53.000000 100.000000"
 preserveAspectRatio="xMidYMid meet">
<metadata>
Created by potrace 1.16, written by Peter Selinger 2001-2019
</metadata>
<g transform="translate(0.000000,100.000000) scale(0.100000,-0.100000)"
fill="#000000" stroke="none">
<path d="M428 863 l-3 -108 -186 -3 -186 -2 -7 -298 c-4 -164 -4 -326 0 -360
6 -57 9 -62 30 -62 l24 0 0 140 0 140 188 2 187 3 3 328 2 327 -25 0 c-24 0
-24 0 -27 -107z m0 -309 c1 -79 -2 -153 -8 -168 l-10 -27 -152 3 -153 3 -3
159 c-2 121 1 161 10 168 7 4 81 7 163 5 l150 -2 3 -141z"/>
</g>
</svg>
