<?xml version="1.0" standalone="no"?>
<!DOCTYPE svg PUBLIC "-//W3C//DTD SVG 20010904//EN"
 "http://www.w3.org/TR/2001/REC-SVG-20010904/DTD/svg10.dtd">
<svg version="1.0" xmlns="http://www.w3.org/2000/svg"
 width="53.000000pt" height="100.000000pt" viewBox="0 0 53.000000 100.000000"
 preserveAspectRatio="xMidYMid meet">
<metadata>
Created by potrace 1.16, written by Peter Selinger 2001-2019
</metadata>
<g transform="translate(0.000000,100.000000) scale(0.100000,-0.100000)"
fill="#000000" stroke="none">
<path d="M437 964 c-4 -4 -7 -54 -7 -111 l0 -103 -184 0 c-108 0 -187 -4 -191
-10 -3 -5 -6 -139 -6 -297 0 -446 -2 -413 20 -413 27 0 31 18 31 154 l0 123
181 6 c100 4 184 9 187 12 3 3 6 148 6 323 1 278 -1 317 -14 320 -9 1 -19 0
-23 -4z m-7 -294 l0 -30 -165 0 c-138 0 -167 3 -171 15 -4 8 -4 22 0 30 4 12
33 15 171 15 l165 0 0 -30z m-46 -76 c40 -6 46 -10 46 -31 l0 -23 -167 2
c-155 3 -168 4 -171 22 -2 10 2 22 10 27 15 10 214 12 282 3z m44 -121 l3 -23
-165 0 c-165 0 -184 4 -172 36 5 12 32 14 168 12 160 -3 163 -3 166 -25z m-1
-78 c3 -9 2 -19 -2 -23 -12 -12 -313 -8 -326 5 -27 27 4 33 162 33 135 0 161
-2 166 -15z"/>
</g>
</svg>
