<?xml version="1.0" standalone="no"?>
<!DOCTYPE svg PUBLIC "-//W3C//DTD SVG 20010904//EN"
 "http://www.w3.org/TR/2001/REC-SVG-20010904/DTD/svg10.dtd">
<svg version="1.0" xmlns="http://www.w3.org/2000/svg"
 width="312.000000pt" height="590.000000pt" viewBox="0 0 312.000000 590.000000"
 preserveAspectRatio="xMidYMid meet">
<metadata>
Created by potrace 1.16, written by Peter Selinger 2001-2019
</metadata>
<g transform="translate(0.000000,590.000000) scale(0.500000,-0.500000)"
fill="#000000" stroke="none">
<path d="M523 1139 c-11 -5 -11 -3 -10 -133 1 -105 1 -119 -2 -123 -3 -4 -5
-4 -218 -3 -235 0 -225 1 -230 -11 -4 -9 -4 11 -2 -278 1 -134 1 -307 0 -384
-2 -175 -5 -161 25 -161 29 0 27 -13 24 168 -1 87 -1 152 0 155 4 10 -2 9 223
9 244 -1 218 -1 223 4 4 4 4 7 3 170 -1 99 -1 249 1 370 2 191 2 204 -1 209
-6 10 -23 14 -36 8z m-13 -312 c7 -6 5 -69 -2 -75 -6 -7 -390 -7 -396 -1 -5 5
-5 69 1 75 4 4 4 4 169 5 239 0 223 1 228 -4z m-3 -119 c5 -6 8 -45 4 -65 -2
-11 -388 -14 -398 -4 -7 7 -8 62 -1 69 6 6 389 6 395 0z m-1 -112 c6 -5 6 -65
1 -70 -5 -5 -392 -5 -396 1 -4 6 -4 62 0 68 5 8 388 9 395 1z m-5 -109 c9 -2
11 -48 2 -56 -2 -3 -30 -3 -195 -3 -227 0 -200 -4 -200 31 0 24 1 28 12 29 8
1 376 0 381 -1z"/>
</g>
</svg>
