<?xml version="1.0" standalone="no"?>
<!DOCTYPE svg PUBLIC "-//W3C//DTD SVG 20010904//EN"
 "http://www.w3.org/TR/2001/REC-SVG-20010904/DTD/svg10.dtd">
<svg version="1.0" xmlns="http://www.w3.org/2000/svg"
 width="53.000000pt" height="100.000000pt" viewBox="0 0 53.000000 100.000000"
 preserveAspectRatio="xMidYMid meet">
<metadata>
Created by potrace 1.16, written by Peter Selinger 2001-2019
</metadata>
<g transform="translate(0.000000,100.000000) scale(0.100000,-0.100000)"
fill="#000000" stroke="none">
<path d="M48 958 c-2 -7 -2 -152 1 -323 l6 -310 70 -6 c39 -4 123 -7 187 -8
l117 -1 3 -137 c3 -130 4 -138 23 -138 20 0 20 8 23 344 1 242 -1 348 -9 357
-8 10 -55 14 -193 16 l-181 3 0 105 c0 99 -1 105 -21 108 -12 2 -23 -3 -26
-10z m380 -275 c20 -40 7 -43 -164 -43 -137 0 -166 3 -170 15 -4 8 -4 22 0 30
4 12 32 15 165 15 143 0 161 -2 169 -17z m-50 -90 c47 -5 53 -8 50 -27 -3 -20
-8 -21 -168 -21 -157 0 -165 1 -165 20 0 12 9 22 25 26 33 9 190 11 258 2z
m52 -118 l0 -25 -164 0 c-123 0 -165 3 -169 13 -12 34 3 37 169 37 l164 0 0
-25z m-3 -80 c3 -9 2 -19 -2 -23 -9 -9 -311 -9 -320 0 -4 4 -5 14 -2 23 9 23
315 23 324 0z"/>
</g>
</svg>
