<?xml version="1.0" standalone="no"?>
<!DOCTYPE svg PUBLIC "-//W3C//DTD SVG 20010904//EN"
 "http://www.w3.org/TR/2001/REC-SVG-20010904/DTD/svg10.dtd">
<svg version="1.0" xmlns="http://www.w3.org/2000/svg"
 width="312.000000pt" height="590.000000pt" viewBox="0 0 312.000000 590.000000"
 preserveAspectRatio="xMidYMid meet">
<metadata>
Created by potrace 1.16, written by Peter Selinger 2001-2019
</metadata>
<g transform="translate(0.000000,590.000000) scale(0.500000,-0.500000)"
fill="#000000" stroke="none">
<path d="M74 1139 c-16 -5 -15 12 -12 -209 2 -115 2 -268 2 -370 -2 -193 -2
-182 11 -182 2 0 99 0 216 0 248 0 222 3 222 -24 0 -9 -1 -80 -2 -156 -2 -165
-4 -154 29 -152 25 2 23 -8 22 118 -1 131 -1 552 0 636 1 92 34 81 -233 80
-213 -1 -215 -1 -218 3 -3 4 -3 18 -2 124 1 134 2 129 -13 133 -9 2 -13 2 -22
-1z m293 -309 c130 0 137 0 141 -4 6 -5 8 -69 2 -75 -4 -3 -384 -6 -393 -3 -7
3 -8 7 -9 40 -1 48 -6 44 68 43 30 -1 116 -1 191 -1z m142 -121 c6 -4 7 -62 1
-69 -4 -5 -381 -9 -393 -4 -10 4 -12 63 -2 73 5 4 388 5 394 0z m1 -113 c4 -4
4 -7 4 -34 0 -45 27 -40 -202 -40 -221 0 -200 -2 -200 20 -2 29 0 52 3 55 6 5
389 5 395 -1z m1 -112 c5 -7 4 -46 0 -52 -5 -5 -387 -7 -393 -1 -4 5 -7 46 -3
52 5 8 391 8 396 1z"/>
</g>
</svg>
