<?xml version="1.0" standalone="no"?>
<!DOCTYPE svg PUBLIC "-//W3C//DTD SVG 20010904//EN"
 "http://www.w3.org/TR/2001/REC-SVG-20010904/DTD/svg10.dtd">
<svg version="1.0" xmlns="http://www.w3.org/2000/svg"
 width="78.000000pt" height="148.000000pt" viewBox="0 0 78.000000 148.000000"
 preserveAspectRatio="xMidYMid meet">
<metadata>
Created by potrace 1.16, written by Peter Selinger 2001-2019
</metadata>
<g transform="translate(0.000000,148.000000) scale(0.100000,-0.100000)"
fill="#000000" stroke="none">
<path d="M82 1421 c-8 -5 -10 -140 -7 -476 l3 -470 282 -3 283 -2 -4 -208 -4
-207 30 0 30 0 0 520 0 520 -270 2 c-148 2 -276 3 -283 3 -11 0 -13 32 -11
157 3 149 2 157 -18 164 -11 4 -25 4 -31 0z m553 -436 l0 -50 -250 0 -250 0
-3 39 c-6 70 -19 67 255 64 l248 -3 0 -50z m3 -142 l-3 -48 -250 0 -250 0 -3
33 c-6 65 -17 62 258 62 l251 0 -3 -47z m0 -140 l-3 -48 -250 0 -250 0 -3 33
c-6 65 -17 62 258 62 l251 0 -3 -47z m0 -130 l-3 -38 -246 -3 -247 -2 -5 32
c-2 18 -3 36 0 41 2 4 117 7 254 7 l250 0 -3 -37z"/>
</g>
</svg>
