<?xml version="1.0" standalone="no"?>
<!DOCTYPE svg PUBLIC "-//W3C//DTD SVG 20010904//EN"
 "http://www.w3.org/TR/2001/REC-SVG-20010904/DTD/svg10.dtd">
<svg version="1.0" xmlns="http://www.w3.org/2000/svg"
 width="97.000000pt" height="100.000000pt" viewBox="0 0 97.000000 100.000000"
 preserveAspectRatio="xMidYMid meet">
<metadata>
Created by potrace 1.16, written by Peter Selinger 2001-2019
</metadata>
<g transform="translate(0.000000,100.000000) scale(0.100000,-0.100000)"
fill="#000000" stroke="none">
<path d="M585 929 c-4 -18 -4 -92 0 -165 l7 -133 -28 -7 c-15 -4 -137 -4 -270
-1 -203 5 -244 4 -254 -8 -7 -8 -10 -22 -6 -30 4 -12 30 -15 146 -15 l140 0 0
-261 0 -260 33 3 32 3 3 138 3 137 265 0 c236 0 265 2 271 16 3 9 2 24 -4 33
-9 14 -29 15 -148 12 l-138 -3 4 283 4 284 -27 3 c-22 3 -27 -1 -33 -29z m-15
-449 l0 -90 -90 0 -90 0 0 83 c0 46 3 87 7 90 3 4 44 7 90 7 l83 0 0 -90z"/>
</g>
</svg>
