<?xml version="1.0" standalone="no"?>
<!DOCTYPE svg PUBLIC "-//W3C//DTD SVG 20010904//EN"
 "http://www.w3.org/TR/2001/REC-SVG-20010904/DTD/svg10.dtd">
<svg version="1.0" xmlns="http://www.w3.org/2000/svg"
 width="572.000000pt" height="590.000000pt" viewBox="0 0 572.000000 590.000000"
 preserveAspectRatio="xMidYMid meet">
<metadata>
Created by potrace 1.16, written by Peter Selinger 2001-2019
</metadata>
<g transform="translate(0.000000,590.000000) scale(0.500000,-0.500000)"
fill="#000000" stroke="none">
<path d="M702 1127 c-9 -5 -9 -3 -7 -183 2 -206 3 -193 -2 -200 -8 -10 3 -10
-255 -8 -443 2 -390 6 -390 -28 0 -38 -13 -35 175 -32 83 1 152 2 153 1 9 -3
10 -50 6 -404 -3 -237 -7 -214 41 -213 38 1 35 -22 35 252 0 93 -3 85 25 82
12 -1 68 -2 158 -2 77 0 206 -1 286 -2 180 -2 164 -6 163 41 -1 36 -1 35 -46
35 -68 0 -264 -4 -273 -6 -11 -2 -16 0 -17 7 -3 12 2 427 4 432 4 8 10 209 7
220 -2 11 -48 16 -63 8z m-27 -452 c6 -4 7 -206 2 -213 -4 -3 -146 -7 -203 -4
-12 0 -12 -3 -12 106 0 98 1 109 7 112 4 3 202 2 206 -1z"/>
</g>
</svg>
