<?xml version="1.0" standalone="no"?>
<!DOCTYPE svg PUBLIC "-//W3C//DTD SVG 20010904//EN"
 "http://www.w3.org/TR/2001/REC-SVG-20010904/DTD/svg10.dtd">
<svg version="1.0" xmlns="http://www.w3.org/2000/svg"
 width="144.000000pt" height="148.000000pt" viewBox="0 0 144.000000 148.000000"
 preserveAspectRatio="xMidYMid meet">
<metadata>
Created by potrace 1.16, written by Peter Selinger 2001-2019
</metadata>
<g transform="translate(0.000000,148.000000) scale(0.100000,-0.100000)"
fill="#000000" stroke="none">
<path d="M875 1399 c-4 -5 -5 -113 -4 -239 2 -126 0 -232 -4 -236 -4 -4 -187
-7 -406 -5 -385 2 -400 1 -405 -17 -8 -23 2 -52 18 -53 6 0 100 0 209 1 l197
1 0 -381 c-1 -209 2 -385 5 -390 7 -11 45 -13 69 -4 13 5 15 36 15 207 1 110
4 203 8 206 5 3 181 4 392 1 251 -3 385 -2 387 5 2 6 5 26 6 45 l3 35 -214 -2
-214 -3 7 328 c3 180 9 369 12 420 l6 92 -40 0 c-23 0 -44 -5 -47 -11z m-24
-556 c0 -5 1 -66 2 -138 l2 -130 -140 0 -140 0 0 130 c-1 72 1 133 3 138 4 9
272 9 273 0z"/>
</g>
</svg>
