<?xml version="1.0" standalone="no"?>
<!DOCTYPE svg PUBLIC "-//W3C//DTD SVG 20010904//EN"
 "http://www.w3.org/TR/2001/REC-SVG-20010904/DTD/svg10.dtd">
<svg version="1.0" xmlns="http://www.w3.org/2000/svg"
 width="93.000000pt" height="100.000000pt" viewBox="0 0 93.000000 100.000000"
 preserveAspectRatio="xMidYMid meet">
<metadata>
Created by potrace 1.16, written by Peter Selinger 2001-2019
</metadata>
<g transform="translate(0.000000,100.000000) scale(0.100000,-0.100000)"
fill="#000000" stroke="none">
<path d="M761 903 c-21 -32 -85 -107 -141 -168 -56 -60 -113 -127 -127 -147
-14 -21 -30 -38 -35 -38 -6 0 -89 77 -186 171 -97 94 -187 176 -199 182 -44
20 -47 3 -36 -190 5 -98 6 -191 2 -206 -4 -16 -4 -52 1 -80 5 -29 12 -127 16
-220 6 -155 8 -167 25 -167 10 0 31 15 46 32 16 18 46 51 68 74 48 50 182 206
215 252 13 17 30 32 37 32 7 0 100 -88 207 -196 107 -108 200 -194 207 -192 7
2 19 15 28 27 15 23 12 27 -183 218 -226 221 -223 214 -133 284 51 41 84 77
182 200 28 35 67 79 88 98 43 40 44 44 17 71 -33 33 -56 25 -99 -37z m-558
-220 c42 -49 100 -108 131 -133 30 -25 55 -52 55 -60 1 -8 -34 -54 -77 -101
-42 -48 -99 -112 -125 -143 -27 -31 -52 -54 -56 -52 -4 3 -9 60 -10 127 -1 67
-6 185 -11 263 -13 183 -12 186 4 186 7 0 47 -39 89 -87z"/>
</g>
</svg>
