<?xml version="1.0" standalone="no"?>
<!DOCTYPE svg PUBLIC "-//W3C//DTD SVG 20010904//EN"
 "http://www.w3.org/TR/2001/REC-SVG-20010904/DTD/svg10.dtd">
<svg version="1.0" xmlns="http://www.w3.org/2000/svg"
 width="548.000000pt" height="590.000000pt" viewBox="0 0 548.000000 590.000000"
 preserveAspectRatio="xMidYMid meet">
<metadata>
Created by potrace 1.16, written by Peter Selinger 2001-2019
</metadata>
<g transform="translate(0.000000,590.000000) scale(0.500000,-0.500000)"
fill="#000000" stroke="none">
<path d="M944 1123 c-11 -11 -18 -19 -21 -26 -3 -5 -7 -13 -11 -16 -4 -3 -8
-11 -11 -16 -3 -7 -10 -17 -21 -27 -9 -9 -18 -21 -20 -26 -3 -4 -12 -17 -22
-27 -10 -10 -18 -20 -19 -23 -1 -2 -5 -6 -9 -8 -13 -7 -67 -62 -72 -73 -3 -7
-13 -18 -38 -43 -21 -22 -34 -37 -36 -42 -3 -6 -15 -20 -35 -40 -23 -24 -32
-34 -36 -42 -29 -64 -60 -71 -105 -24 -102 104 -321 320 -332 326 -9 4 -12 7
-16 15 -6 13 -14 22 -23 25 -3 2 -9 5 -12 7 -28 19 -64 4 -64 -27 0 -128 3
-214 7 -221 7 -11 6 -57 -1 -72 -9 -19 -7 -43 5 -57 14 -17 15 -60 0 -66 -15
-6 -15 -100 0 -100 9 0 9 1 10 -114 1 -109 1 -109 6 -118 6 -10 6 -47 3 -173
-2 -69 -2 -66 22 -66 26 0 47 12 55 31 3 6 14 18 31 36 18 18 28 30 31 36 5
13 21 27 28 25 21 -5 23 -4 25 18 2 13 2 14 10 19 9 6 10 8 12 21 1 7 5 12 34
40 22 22 34 35 38 42 5 11 33 39 42 43 5 2 8 6 16 22 9 17 12 22 40 50 23 23
32 34 35 41 3 6 10 16 20 26 22 22 21 23 61 -18 17 -19 38 -40 45 -47 8 -8 15
-17 17 -22 3 -6 6 -9 12 -12 4 -3 18 -15 31 -27 13 -12 26 -24 29 -26 4 -2 9
-6 11 -11 6 -12 94 -98 106 -104 9 -4 12 -7 18 -17 3 -7 11 -17 17 -23 6 -6
12 -15 14 -19 4 -11 10 -17 21 -21 7 -3 21 -16 53 -48 46 -46 49 -48 65 -48
22 0 39 18 45 46 3 17 -26 53 -52 65 -12 5 -15 9 -21 21 -3 8 -126 131 -265
267 -13 12 -25 25 -27 30 -4 6 -7 10 -13 12 -11 5 -69 60 -71 69 -5 18 -2 35
8 46 4 5 10 14 13 20 5 9 8 12 17 16 8 4 11 7 16 15 12 22 44 47 59 47 6 0 16
8 29 22 11 12 14 17 17 31 1 3 3 6 8 8 4 2 8 7 12 14 5 9 7 12 18 17 16 8 19
11 28 32 7 16 9 19 42 52 31 31 35 36 36 43 2 14 7 22 18 27 19 9 25 18 25 37
0 10 5 15 15 15 4 0 8 2 15 10 5 5 11 11 14 12 2 1 6 6 9 12 2 5 9 14 15 19
22 21 19 37 -9 50 -5 2 -14 8 -18 13 -19 20 -28 19 -49 -1z m-777 -239 c43
-44 59 -61 62 -69 2 -5 6 -8 12 -12 12 -6 34 -28 39 -40 6 -14 38 -46 54 -54
11 -5 14 -7 18 -16 6 -13 11 -18 21 -23 4 -3 9 -8 13 -14 4 -7 9 -11 17 -15 7
-4 12 -8 14 -13 2 -4 6 -7 10 -9 8 -3 32 -24 37 -32 5 -8 5 -11 -3 -21 -4 -5
-9 -13 -12 -18 -6 -11 -12 -17 -21 -21 -5 -2 -9 -5 -14 -13 -3 -7 -12 -17 -21
-25 -9 -9 -16 -16 -19 -23 -6 -12 -19 -25 -31 -31 -13 -6 -18 -11 -27 -31 -6
-14 -9 -18 -15 -21 -4 -2 -9 -8 -13 -13 -3 -6 -16 -21 -30 -35 -15 -15 -26
-29 -28 -34 -6 -12 -11 -18 -20 -22 -5 -2 -9 -6 -10 -10 -2 -3 -8 -11 -14 -18
-6 -7 -14 -16 -17 -20 -8 -9 -11 -8 -12 5 -2 16 -3 18 -10 21 -12 6 -12 13 -1
26 10 11 10 14 10 35 -1 17 -1 17 -8 22 -10 7 -11 8 -10 43 0 29 1 32 5 41 7
13 7 49 0 60 -4 7 -4 9 -5 63 -1 53 -1 56 -6 64 -5 10 -6 105 -1 120 2 7 2 9
-1 17 -4 10 -7 152 -3 162 3 9 9 5 40 -26z"/>
</g>
</svg>
