<?xml version="1.0" standalone="no"?>
<!DOCTYPE svg PUBLIC "-//W3C//DTD SVG 20010904//EN"
 "http://www.w3.org/TR/2001/REC-SVG-20010904/DTD/svg10.dtd">
<svg version="1.0" xmlns="http://www.w3.org/2000/svg"
 width="138.000000pt" height="148.000000pt" viewBox="0 0 138.000000 148.000000"
 preserveAspectRatio="xMidYMid meet">
<metadata>
Created by potrace 1.16, written by Peter Selinger 2001-2019
</metadata>
<g transform="translate(0.000000,148.000000) scale(0.100000,-0.100000)"
fill="#000000" stroke="none">
<path d="M1183 1398 c-11 -13 -29 -36 -39 -53 -20 -34 -115 -148 -126 -153 -8
-3 -238 -260 -307 -343 -19 -22 -40 -39 -47 -37 -7 2 -127 116 -266 254 -139
138 -262 255 -273 260 -11 5 -31 9 -45 9 l-25 0 0 -238 c-1 -182 2 -241 12
-249 18 -15 16 -67 -2 -74 -21 -8 -21 -107 0 -124 12 -10 15 -33 15 -99 -2
-155 11 -486 19 -494 10 -10 81 20 81 34 0 18 104 129 122 129 10 0 24 16 34
37 10 21 42 64 71 96 29 32 53 62 53 66 0 4 11 14 25 21 13 7 27 22 31 32 3
10 32 49 65 86 32 36 59 69 59 73 0 14 30 18 42 5 105 -109 155 -160 260 -263
67 -67 164 -163 213 -213 78 -78 94 -90 120 -88 24 2 31 9 39 37 l10 33 -287
284 c-189 187 -287 290 -287 303 0 27 123 157 155 165 14 4 31 20 41 39 9 17
31 48 50 67 68 70 144 160 144 171 0 6 11 20 25 31 14 11 25 25 25 31 0 7 25
34 55 61 30 27 55 54 55 61 0 11 -74 65 -89 65 -4 0 -17 -10 -28 -22z m-966
-300 c26 -29 67 -71 90 -93 24 -23 43 -45 43 -51 0 -13 53 -64 66 -64 6 0 16
-10 23 -22 7 -13 43 -48 81 -78 38 -30 69 -60 69 -65 1 -11 -20 -36 -134 -160
-131 -144 -160 -178 -167 -196 -4 -10 -11 -19 -16 -19 -5 0 -22 -18 -37 -40
-29 -42 -45 -51 -45 -25 0 8 -6 24 -12 35 -10 15 -10 22 0 32 15 15 16 64 1
74 -8 4 -10 29 -6 73 3 36 1 116 -4 176 -15 192 -22 475 -10 475 6 0 32 -24
58 -52z"/>
</g>
</svg>
