<?xml version="1.0" standalone="no"?>
<!DOCTYPE svg PUBLIC "-//W3C//DTD SVG 20010904//EN"
 "http://www.w3.org/TR/2001/REC-SVG-20010904/DTD/svg10.dtd">
<svg version="1.0" xmlns="http://www.w3.org/2000/svg"
 width="430.000000pt" height="590.000000pt" viewBox="0 0 430.000000 590.000000"
 preserveAspectRatio="xMidYMid meet">
<metadata>
Created by potrace 1.16, written by Peter Selinger 2001-2019
</metadata>
<g transform="translate(0.000000,590.000000) scale(0.500000,-0.500000)"
fill="#000000" stroke="none">
<path d="M719 1136 c-3 -2 -8 -6 -11 -9 -3 -3 -8 -7 -12 -9 -4 -3 -13 -8 -20
-13 -7 -5 -19 -11 -27 -15 -8 -4 -17 -9 -21 -12 -4 -3 -17 -11 -29 -17 -12 -6
-26 -15 -30 -18 -9 -7 -28 -17 -33 -17 -2 0 -8 -3 -13 -7 -22 -16 -30 -21 -40
-26 -5 -3 -14 -9 -20 -13 -12 -9 -41 -24 -46 -24 -6 0 -80 38 -93 48 -6 4 -57
32 -89 48 -3 1 -9 5 -12 7 -3 3 -18 11 -33 19 -15 7 -30 16 -33 20 -3 3 -9 7
-14 8 -4 1 -20 9 -36 16 -41 20 -41 20 -56 -1 -12 -16 -14 -44 -6 -59 5 -9 5
-44 0 -54 -4 -8 -4 -14 0 -26 3 -9 4 -11 1 -17 -4 -11 -4 -38 0 -46 4 -8 4
-61 0 -68 -1 -4 -1 -7 0 -14 3 -8 2 -11 -1 -19 -2 -8 -3 -11 -1 -23 1 -8 3
-27 3 -42 1 -33 -1 -28 22 -45 13 -9 23 -10 31 0 3 3 9 7 12 8 4 1 11 5 15 9
4 3 14 9 21 13 7 3 16 9 20 11 6 5 7 5 18 4 12 -1 12 -1 18 6 4 4 12 10 19 13
7 4 16 10 20 14 8 7 19 12 28 12 2 0 9 3 15 8 5 4 13 9 16 11 4 2 9 8 11 12 5
8 22 19 30 19 3 0 9 3 14 7 12 9 33 16 38 12 4 -3 9 -22 7 -27 -3 -6 -2 -25 1
-33 3 -6 3 -10 2 -17 -1 -5 -2 -22 -2 -37 0 -21 -1 -30 -3 -35 -4 -7 -3 -12 2
-27 1 -5 4 -187 5 -332 0 -33 -7 -42 -23 -30 -4 3 -14 9 -22 13 -8 5 -17 11
-21 14 -3 3 -16 11 -28 17 -12 6 -25 14 -28 16 -3 3 -15 10 -26 15 -29 15 -42
25 -47 37 -2 5 -5 9 -6 9 -2 0 -7 1 -13 1 -14 0 -28 9 -35 22 -4 9 -6 10 -15
13 -11 4 -23 10 -33 18 -12 9 -40 8 -45 -2 -4 -8 -2 -232 2 -242 3 -6 8 -42 7
-57 0 -3 -2 -12 -4 -19 -4 -11 -4 -13 -2 -21 2 -8 2 -10 -1 -17 -11 -28 -3
-74 14 -74 4 0 10 -2 15 -6 15 -10 41 -1 54 17 3 5 8 9 11 10 3 2 10 4 16 6 5
2 13 6 18 10 5 4 16 10 24 14 8 4 17 10 21 13 5 4 11 7 19 8 12 2 13 3 27 15
9 8 10 9 25 10 16 2 16 2 31 16 35 32 86 52 102 40 5 -3 13 -8 18 -11 5 -3 15
-9 23 -14 8 -5 18 -11 23 -14 4 -2 12 -7 17 -11 25 -18 34 -23 52 -33 10 -6
22 -12 25 -15 3 -3 12 -8 21 -13 9 -5 18 -10 20 -12 7 -6 27 -19 42 -27 8 -4
17 -10 20 -13 23 -19 52 -21 64 -4 25 36 24 42 -6 57 -8 4 -17 10 -20 12 -3 3
-10 6 -14 9 -5 2 -10 7 -13 12 -4 8 -12 12 -24 12 -3 0 -9 3 -14 6 -5 4 -13 8
-18 9 -5 2 -12 5 -15 8 -4 3 -17 10 -28 15 -12 6 -25 12 -28 15 -4 3 -17 10
-29 16 -13 6 -25 12 -27 15 -2 2 -6 5 -10 6 -10 4 -23 14 -23 17 0 5 65 38 86
43 5 2 26 11 46 21 20 9 54 26 75 35 49 24 70 64 48 92 -8 9 -31 9 -41 -1 -7
-7 -12 -9 -25 -10 -15 -2 -20 -5 -26 -17 -6 -12 -12 -16 -21 -16 -10 0 -17 -3
-21 -9 -4 -6 -16 -13 -30 -15 -8 -2 -12 -4 -19 -11 -11 -10 -42 -27 -51 -27
-5 0 -10 -2 -19 -11 -37 -33 -73 13 -47 61 6 11 10 263 5 316 -2 22 -2 21 -1
47 1 16 1 22 -2 29 -2 5 -4 13 -5 17 -2 4 -5 12 -8 16 -7 10 -7 8 6 29 9 15
23 17 27 4 2 -6 11 -12 18 -12 9 0 27 -10 31 -17 4 -6 22 -16 34 -18 11 -2 21
-7 36 -18 24 -17 29 -20 34 -24 3 -2 11 -5 17 -7 13 -2 53 -23 66 -33 31 -25
76 -40 86 -28 18 19 17 38 -2 52 -3 2 -7 6 -9 10 -5 7 -13 11 -25 11 -6 0 -9
1 -16 9 -10 10 -24 18 -36 20 -4 1 -10 4 -15 7 -11 7 -78 40 -82 40 -3 0 -14
5 -26 10 -11 6 -27 13 -34 16 -7 4 -16 8 -19 11 -3 2 -11 7 -17 10 -29 14 -22
40 11 44 10 1 13 2 19 9 4 4 9 9 12 10 3 2 10 8 17 14 17 15 41 26 62 28 16 2
16 2 25 12 9 9 10 10 22 11 14 2 22 5 31 15 3 4 9 8 13 10 4 2 10 7 12 11 2 4
7 8 10 10 32 16 44 43 28 59 -9 10 -48 12 -61 4z m-593 -85 c3 -2 8 -7 10 -11
4 -8 7 -10 14 -10 8 0 18 -5 29 -14 9 -8 13 -10 20 -11 16 -2 38 -14 59 -32 5
-4 24 -12 35 -14 7 -1 15 -8 19 -16 1 -3 5 -6 8 -8 3 -1 6 -5 8 -8 1 -3 6 -7
9 -9 9 -5 8 -8 -11 -17 -8 -4 -23 -13 -32 -18 -10 -6 -25 -14 -33 -18 -9 -4
-20 -10 -24 -14 -4 -3 -17 -11 -29 -17 -11 -6 -26 -14 -33 -19 -7 -5 -17 -10
-22 -11 -4 -1 -11 -3 -15 -5 -30 -14 -30 -13 -30 114 0 71 -1 111 -2 116 -5
16 7 29 20 22z m14 -643 c4 -3 13 -9 20 -12 7 -4 17 -9 22 -13 5 -4 14 -9 21
-13 7 -3 16 -9 21 -13 10 -10 16 -13 22 -13 2 0 6 -2 10 -5 4 -3 13 -8 20 -12
7 -4 17 -9 21 -12 4 -3 14 -9 22 -13 24 -11 40 -25 37 -30 -3 -5 -123 -65
-134 -67 -4 -1 -24 -10 -44 -20 -52 -26 -55 -25 -53 6 1 10 1 21 1 25 -1 19 0
30 2 42 6 37 6 42 -8 57 -12 13 -12 15 -12 59 1 31 1 35 5 37 6 5 17 4 27 -3z"/>
</g>
</svg>
