<?xml version="1.0" standalone="no"?>
<!DOCTYPE svg PUBLIC "-//W3C//DTD SVG 20010904//EN"
 "http://www.w3.org/TR/2001/REC-SVG-20010904/DTD/svg10.dtd">
<svg version="1.0" xmlns="http://www.w3.org/2000/svg"
 width="108.000000pt" height="148.000000pt" viewBox="0 0 108.000000 148.000000"
 preserveAspectRatio="xMidYMid meet">
<metadata>
Created by potrace 1.16, written by Peter Selinger 2001-2019
</metadata>
<g transform="translate(0.000000,148.000000) scale(0.100000,-0.100000)"
fill="#000000" stroke="none">
<path d="M64 1407 c-8 -9 -10 -90 -8 -257 3 -236 4 -246 24 -262 21 -17 23
-16 73 17 29 19 60 35 69 35 10 0 37 14 60 30 22 17 46 30 53 30 6 0 26 13 43
29 36 31 109 67 118 58 3 -3 6 -48 5 -99 -1 -51 -1 -97 0 -103 1 -5 3 -115 6
-243 3 -188 1 -233 -10 -238 -7 -2 -48 18 -90 46 -42 27 -80 50 -84 50 -5 0
-24 13 -43 30 -19 16 -43 29 -52 30 -9 0 -23 8 -30 18 -20 28 -94 66 -113 58
-14 -5 -16 -15 -11 -54 9 -71 11 -434 3 -459 -6 -17 -2 -24 24 -37 40 -20 41
-20 66 3 11 11 44 32 72 46 28 15 54 31 57 36 3 5 13 9 23 9 10 0 24 7 31 15
7 8 23 15 35 15 12 0 28 7 35 15 13 16 97 65 112 65 5 0 92 -52 193 -115 101
-63 191 -118 201 -122 11 -4 23 2 35 18 27 35 23 55 -12 69 -17 7 -37 19 -44
26 -7 7 -73 44 -146 82 -74 39 -134 75 -134 82 0 7 27 24 60 38 33 14 103 46
156 71 87 41 97 49 101 76 2 17 2 38 0 47 -4 19 -37 25 -47 8 -3 -5 -15 -10
-25 -10 -10 0 -25 -8 -32 -18 -12 -16 -38 -32 -180 -103 -20 -10 -40 -23 -43
-29 -9 -14 -45 -12 -46 3 -1 6 -1 140 0 297 2 235 -1 290 -13 312 -13 25 -13
30 4 50 17 22 19 22 37 5 11 -9 24 -17 30 -17 5 0 18 -9 28 -20 10 -11 25 -20
34 -20 9 0 33 -11 53 -25 20 -13 60 -36 90 -49 29 -14 72 -37 96 -51 51 -30
63 -31 79 -5 14 22 7 50 -12 50 -7 0 -15 7 -19 15 -3 8 -11 12 -19 9 -8 -3
-19 1 -25 9 -13 15 -114 67 -217 112 -33 14 -71 33 -83 41 -23 15 -23 16 -6
35 9 10 21 19 27 19 5 0 31 16 57 35 26 19 62 38 79 41 17 4 36 13 42 20 6 8
19 14 28 14 28 0 120 82 120 108 1 20 -4 22 -43 22 -24 0 -46 -4 -48 -9 -3 -8
-69 -49 -217 -133 -19 -11 -59 -35 -88 -54 -29 -19 -57 -34 -62 -34 -5 0 -38
16 -73 36 -34 20 -88 50 -118 66 -30 16 -59 33 -65 37 -19 16 -169 91 -180 91
-5 -1 -15 -6 -21 -13z m101 -98 c4 -5 17 -15 28 -20 12 -5 45 -22 72 -38 28
-16 65 -36 83 -45 44 -21 94 -63 83 -70 -5 -3 -42 -23 -82 -44 -41 -22 -96
-53 -123 -70 -28 -18 -60 -32 -72 -32 -23 0 -23 2 -26 158 -2 86 -2 160 0 165
5 11 30 9 37 -4z m65 -833 c38 -25 103 -64 144 -86 42 -23 76 -45 76 -49 0 -9
-274 -141 -291 -141 -7 0 -8 30 -4 89 5 72 3 90 -10 101 -10 8 -15 30 -15 65
0 80 6 82 100 21z"/>
</g>
</svg>
