<?xml version="1.0" standalone="no"?>
<!DOCTYPE svg PUBLIC "-//W3C//DTD SVG 20010904//EN"
 "http://www.w3.org/TR/2001/REC-SVG-20010904/DTD/svg10.dtd">
<svg version="1.0" xmlns="http://www.w3.org/2000/svg"
 width="73.000000pt" height="100.000000pt" viewBox="0 0 73.000000 100.000000"
 preserveAspectRatio="xMidYMid meet">
<metadata>
Created by potrace 1.16, written by Peter Selinger 2001-2019
</metadata>
<g transform="translate(0.000000,100.000000) scale(0.100000,-0.100000)"
fill="#000000" stroke="none">
<path d="M520 907 c-58 -34 -116 -70 -130 -80 -34 -24 -41 -22 -115 23 -85 52
-201 110 -220 110 -8 0 -18 -12 -21 -27 -10 -39 3 -324 15 -336 14 -14 110 31
199 91 34 23 66 42 71 42 14 0 21 -86 21 -271 0 -137 -3 -179 -12 -179 -7 0
-62 33 -123 74 -60 41 -119 76 -130 78 -19 3 -20 -3 -22 -185 l-1 -187 23 -6
c16 -4 46 8 101 40 43 25 82 46 87 46 5 0 23 11 41 25 18 14 41 25 51 25 9 0
71 -34 136 -75 123 -78 163 -90 174 -54 8 26 -1 33 -130 100 -55 29 -102 54
-104 56 -10 8 22 27 99 59 46 18 91 41 101 50 22 20 24 47 6 62 -14 12 -16 11
-151 -66 -98 -55 -110 -55 -102 1 9 58 9 284 1 352 -5 35 -4 55 3 55 5 0 40
-18 76 -40 36 -22 69 -40 72 -40 4 0 29 -13 56 -30 57 -35 98 -40 98 -11 0 26
-43 55 -158 107 -52 23 -99 47 -105 53 -11 11 33 40 133 89 74 35 116 73 107
96 -11 27 -38 18 -147 -47z m-325 -74 c47 -26 85 -51 85 -57 0 -13 -151 -96
-174 -96 -14 0 -16 15 -16 100 0 57 4 100 10 100 5 0 48 -21 95 -47z m5 -541
c46 -26 85 -53 88 -60 3 -11 -167 -97 -175 -88 -3 3 -6 31 -7 63 -2 32 -6 75
-11 96 -10 50 2 49 105 -11z"/>
</g>
</svg>
