<?xml version="1.0" standalone="no"?>
<!DOCTYPE svg PUBLIC "-//W3C//DTD SVG 20010904//EN"
 "http://www.w3.org/TR/2001/REC-SVG-20010904/DTD/svg10.dtd">
<svg version="1.0" xmlns="http://www.w3.org/2000/svg"
 width="486.000000pt" height="590.000000pt" viewBox="0 0 486.000000 590.000000"
 preserveAspectRatio="xMidYMid meet">
<metadata>
Created by potrace 1.16, written by Peter Selinger 2001-2019
</metadata>
<g transform="translate(0.000000,590.000000) scale(0.500000,-0.500000)"
fill="#000000" stroke="none">
<path d="M836 1101 c-6 -6 -10 -14 -27 -46 -5 -10 -10 -17 -16 -22 -4 -3 -16
-13 -26 -22 -10 -10 -21 -20 -25 -24 -4 -4 -8 -9 -9 -13 -1 -4 -8 -13 -20 -26
-10 -11 -20 -22 -22 -26 -2 -4 -11 -15 -21 -25 -10 -10 -21 -23 -25 -30 -4 -7
-16 -21 -26 -31 -10 -11 -21 -24 -24 -29 -6 -13 -35 -41 -41 -41 -5 0 -4 -1
-154 151 -59 59 -98 98 -104 101 -6 3 -11 8 -14 14 -13 22 -63 32 -70 13 -4
-10 1 -163 6 -173 5 -12 5 -27 0 -40 -5 -15 -6 -37 0 -44 17 -22 13 -45 -10
-50 -7 -2 -13 -5 -21 -12 -5 -5 -14 -12 -19 -15 -9 -4 -11 -7 -18 -23 -5 -9
-11 -21 -15 -26 -4 -5 -7 -12 -8 -16 -1 -3 -5 -10 -8 -15 -4 -5 -9 -14 -10
-21 -2 -6 -7 -17 -12 -24 -12 -18 -13 -21 -13 -28 0 -4 -2 -11 -3 -15 -2 -4
-5 -12 -6 -18 -2 -5 -5 -12 -7 -15 -5 -4 -5 -7 -6 -37 -2 -39 -4 -48 -13 -56
-8 -7 -11 -64 -4 -78 4 -7 4 -15 0 -23 -2 -6 -3 -24 -3 -83 l-1 -76 10 -19
c10 -18 35 -46 41 -46 1 0 6 -3 10 -7 14 -12 23 -15 61 -21 6 -1 12 -4 16 -8
9 -7 21 -11 34 -9 34 4 35 59 1 59 -15 0 -57 13 -87 27 -38 18 -54 37 -46 56
7 18 32 11 88 -23 35 -22 48 -25 60 -13 8 7 8 7 8 26 -1 28 -3 31 -34 31 -11
0 -17 1 -22 4 -5 2 -14 7 -22 10 -13 7 -43 24 -53 31 -6 5 -6 19 1 26 8 8 30
5 38 -5 3 -5 9 -7 24 -9 16 -2 29 -8 43 -19 18 -15 18 -15 36 -12 38 6 39 60
0 60 -5 0 -14 3 -27 10 -11 5 -24 11 -28 12 -5 1 -12 3 -16 4 -8 2 -48 24 -61
33 -10 6 -10 9 -2 17 9 9 9 23 0 33 -10 12 -11 57 -1 67 7 7 13 20 18 35 1 4
6 12 10 18 4 6 7 13 9 20 6 31 36 85 59 107 22 21 20 42 25 -223 0 -43 1 -79
2 -80 12 -10 38 -3 51 14 3 5 14 16 23 26 10 10 20 22 23 27 5 10 13 16 22 16
6 0 10 5 12 13 1 4 4 9 8 12 5 3 7 8 9 14 2 8 6 13 24 32 12 12 25 27 28 33 8
12 19 23 26 25 2 1 7 7 11 15 5 8 15 20 26 32 10 10 21 24 25 29 13 20 24 28
33 26 6 -1 58 -55 64 -66 2 -4 7 -10 11 -12 7 -4 27 -22 45 -41 3 -4 20 -21
37 -39 17 -18 33 -35 35 -39 12 -23 63 -80 86 -96 34 -22 46 -22 63 3 13 18 2
60 -17 65 -12 3 -203 190 -210 206 -4 8 -6 10 -14 13 -10 4 -43 34 -48 43 -8
15 5 50 20 58 3 2 7 5 9 7 27 30 33 35 43 38 13 4 30 19 33 30 2 7 18 25 32
35 4 4 11 12 15 19 4 8 11 18 15 22 23 23 41 45 44 52 1 6 5 10 11 15 5 4 11
9 12 14 7 16 8 17 15 19 8 1 34 28 38 38 4 11 0 33 -6 33 0 0 -8 6 -17 13 -19
15 -27 17 -37 8z m-545 -171 c14 -11 48 -46 54 -55 3 -5 6 -9 7 -9 4 0 22 -19
26 -27 6 -10 27 -32 36 -36 4 -1 9 -5 12 -9 3 -4 9 -11 14 -16 5 -5 11 -12 14
-16 2 -3 7 -8 11 -10 4 -1 14 -10 24 -19 25 -22 25 -22 -21 -69 -12 -13 -25
-28 -29 -33 -4 -7 -9 -11 -16 -15 -14 -7 -16 -9 -18 -16 -2 -10 -18 -32 -38
-52 -10 -10 -21 -23 -24 -28 -3 -6 -10 -12 -15 -16 -4 -3 -8 -7 -8 -8 0 -14
-20 -22 -28 -11 -11 13 -11 13 -4 22 10 14 9 30 -2 41 -13 13 -12 46 3 58 5 5
6 7 6 17 0 12 -1 14 -11 28 -6 7 -10 97 -8 169 0 6 0 33 -1 60 -2 62 -1 64 16
50z"/>
</g>
</svg>
