<?xml version="1.0" standalone="no"?>
<!DOCTYPE svg PUBLIC "-//W3C//DTD SVG 20010904//EN"
 "http://www.w3.org/TR/2001/REC-SVG-20010904/DTD/svg10.dtd">
<svg version="1.0" xmlns="http://www.w3.org/2000/svg"
 width="82.000000pt" height="100.000000pt" viewBox="0 0 82.000000 100.000000"
 preserveAspectRatio="xMidYMid meet">
<metadata>
Created by potrace 1.16, written by Peter Selinger 2001-2019
</metadata>
<g transform="translate(0.000000,100.000000) scale(0.100000,-0.100000)"
fill="#000000" stroke="none">
<path d="M689 918 c-6 -13 -37 -52 -68 -88 -31 -36 -76 -89 -100 -117 -23 -29
-48 -53 -54 -53 -6 0 -63 52 -128 115 -74 72 -125 115 -138 115 -25 0 -24 7
-21 -140 l2 -115 -32 -30 c-75 -71 -112 -194 -114 -374 l-1 -123 33 -28 c18
-15 51 -33 73 -40 35 -12 42 -11 56 3 22 22 5 42 -50 56 -24 6 -52 19 -62 30
-17 19 -17 21 -1 27 10 4 34 -2 57 -15 42 -24 59 -21 59 9 0 13 -9 22 -27 26
-45 11 -83 33 -83 49 0 20 16 19 67 -6 23 -11 51 -19 60 -17 31 6 20 32 -22
51 -82 37 -89 42 -98 77 -7 27 -3 47 19 104 29 75 52 116 64 116 4 0 10 -57
13 -127 4 -69 9 -129 12 -132 12 -11 42 18 149 142 68 79 113 124 120 119 7
-4 63 -62 126 -130 85 -93 118 -122 134 -120 13 2 22 12 24 25 3 17 -25 50
-122 144 -69 67 -126 126 -126 132 0 6 30 43 68 82 97 102 182 202 182 213 0
12 -34 42 -48 42 -6 0 -17 -10 -23 -22z m-358 -220 c49 -51 89 -96 89 -101 0
-4 -26 -36 -59 -71 -32 -34 -66 -75 -76 -89 -32 -49 -47 -35 -44 40 2 38 -1
123 -5 191 -5 67 -5 122 -1 122 4 0 47 -42 96 -92z"/>
</g>
</svg>
