<?xml version="1.0" standalone="no"?>
<!DOCTYPE svg PUBLIC "-//W3C//DTD SVG 20010904//EN"
 "http://www.w3.org/TR/2001/REC-SVG-20010904/DTD/svg10.dtd">
<svg version="1.0" xmlns="http://www.w3.org/2000/svg"
 width="482.000000pt" height="590.000000pt" viewBox="0 0 482.000000 590.000000"
 preserveAspectRatio="xMidYMid meet">
<metadata>
Created by potrace 1.16, written by Peter Selinger 2001-2019
</metadata>
<g transform="translate(0.000000,590.000000) scale(0.500000,-0.500000)"
fill="#000000" stroke="none">
<path d="M852 1138 c-6 -2 -20 -11 -42 -28 -7 -5 -17 -12 -22 -14 -4 -2 -13
-8 -20 -14 -7 -5 -18 -11 -24 -14 -9 -3 -14 -6 -21 -15 -5 -6 -19 -17 -38 -30
-16 -10 -30 -21 -31 -22 -2 -2 -12 -9 -22 -16 -30 -20 -47 -32 -57 -40 -6 -5
-22 -17 -37 -27 -14 -11 -33 -23 -40 -29 l-14 -10 -16 8 c-8 4 -19 11 -24 15
-5 4 -14 10 -19 13 -13 7 -39 23 -58 36 -18 12 -52 33 -82 51 -33 20 -45 27
-50 34 -3 3 -6 6 -8 6 -3 0 -30 13 -40 20 -4 3 -12 7 -17 10 -5 2 -12 8 -16
12 -5 5 -10 8 -18 11 -7 2 -12 4 -13 5 -11 19 -61 16 -74 -3 l-7 -11 0 -192
c1 -105 1 -299 0 -432 0 -225 0 -242 3 -251 3 -9 4 -17 3 -66 0 -64 0 -68 14
-80 24 -20 36 -18 95 22 21 14 39 25 40 25 2 0 6 3 10 7 8 6 109 75 112 75 1
0 26 17 54 36 19 13 44 30 80 55 23 16 21 16 100 -37 35 -23 68 -45 78 -51 6
-3 19 -11 28 -18 39 -25 66 -43 73 -46 4 -2 15 -9 25 -16 10 -7 22 -15 27 -17
4 -2 13 -8 20 -13 69 -48 110 -50 112 -5 1 30 -15 48 -69 76 -8 4 -31 18 -50
31 -19 12 -38 24 -43 27 -11 6 -31 19 -38 25 -3 3 -10 8 -16 11 -6 3 -16 8
-22 12 -7 4 -20 12 -29 17 -10 6 -19 12 -21 15 -3 3 -12 9 -21 13 -71 36 -71
35 8 84 10 6 28 18 41 26 13 8 27 17 33 20 5 3 28 17 51 32 50 33 103 68 125
83 9 6 18 12 19 13 2 2 7 5 11 7 27 12 26 55 -1 65 -5 2 -14 6 -19 9 -6 4 -18
11 -29 16 -10 6 -20 11 -22 13 -2 1 -10 6 -19 11 -9 4 -19 10 -23 13 -4 3 -13
9 -20 13 -8 4 -22 11 -32 17 -11 5 -22 11 -25 14 -3 2 -10 7 -16 9 -11 6 -22
12 -56 33 -12 8 -27 17 -33 20 -6 3 -16 9 -22 12 -19 11 -8 30 28 49 7 4 16 9
20 13 16 13 30 24 39 28 6 2 15 8 20 11 6 4 15 9 19 12 5 3 15 12 23 19 8 7
20 16 28 21 8 5 18 12 23 16 5 4 16 12 26 18 26 18 43 31 48 35 3 2 12 9 21
14 8 6 18 12 21 14 43 27 7 85 -42 69z m-702 -137 c5 -3 13 -8 17 -11 3 -3 9
-7 12 -8 14 -6 41 -25 50 -34 5 -6 11 -10 14 -11 3 -1 8 -2 11 -2 2 -1 8 -4
12 -8 4 -4 13 -10 21 -13 7 -4 14 -7 14 -8 1 -1 6 -4 12 -7 5 -2 15 -8 21 -13
6 -5 15 -10 21 -11 7 -2 11 -5 14 -8 2 -3 7 -8 10 -11 17 -15 19 -18 19 -24 0
-12 -6 -19 -30 -34 -13 -8 -27 -18 -32 -21 -5 -4 -26 -18 -47 -32 -20 -14 -40
-28 -44 -31 -3 -3 -10 -8 -14 -11 -19 -12 -37 -24 -43 -28 -4 -3 -11 -7 -16
-10 -4 -4 -14 -11 -21 -17 -19 -17 -27 -18 -35 -5 -5 8 -10 64 -7 70 1 1 2 11
3 23 1 11 2 24 3 28 1 4 0 12 -3 22 -4 14 -4 17 -2 27 2 9 5 57 4 66 -8 104 2
139 36 122z m417 -251 c4 -2 12 -8 16 -12 5 -5 16 -11 24 -15 8 -4 17 -10 21
-13 4 -3 11 -8 17 -11 19 -11 40 -23 56 -34 9 -6 19 -12 23 -14 10 -5 36 -22
42 -27 6 -5 5 -11 -1 -17 -4 -3 -10 -10 -16 -15 -5 -5 -33 -25 -62 -45 -48
-32 -63 -42 -91 -62 -76 -53 -79 -54 -89 -38 -6 9 -4 130 2 151 3 9 3 19 2 77
-1 71 -1 75 6 79 8 4 41 2 50 -4z m-125 -16 c3 -10 0 -106 -3 -117 -4 -12 -4
-30 0 -41 4 -12 4 -63 0 -77 -2 -7 -3 -18 -2 -40 0 -43 -3 -45 -33 -23 -10 6
-21 14 -27 17 -5 3 -15 9 -21 14 -32 22 -63 42 -67 44 -2 1 -17 10 -33 20 -16
11 -35 23 -42 28 -22 14 -21 15 25 46 4 3 12 9 17 13 5 4 17 12 26 19 32 21
57 39 65 46 4 3 14 11 22 16 8 5 19 13 24 18 34 27 37 28 44 24 2 -1 4 -5 5
-7z m-300 -226 c8 -5 17 -10 19 -12 7 -6 25 -18 34 -23 6 -3 16 -9 24 -15 8
-5 18 -12 23 -15 6 -3 18 -10 27 -17 10 -6 22 -13 27 -16 5 -3 16 -9 24 -14 8
-6 21 -14 29 -18 19 -11 35 -22 38 -27 2 -4 5 -2 -46 -34 -22 -14 -57 -37 -78
-50 -40 -27 -41 -28 -94 -64 -57 -39 -57 -39 -57 -4 0 13 -1 23 -3 30 -3 10
-3 12 -1 21 5 17 5 25 -1 43 -6 18 -6 18 0 28 5 10 5 10 4 47 -1 20 -1 43 -1
51 0 8 -1 18 -3 23 -3 9 -3 10 0 18 2 5 3 15 3 23 0 33 7 38 32 25z"/>
</g>
</svg>
