<?xml version="1.0" standalone="no"?>
<!DOCTYPE svg PUBLIC "-//W3C//DTD SVG 20010904//EN"
 "http://www.w3.org/TR/2001/REC-SVG-20010904/DTD/svg10.dtd">
<svg version="1.0" xmlns="http://www.w3.org/2000/svg"
 width="81.000000pt" height="100.000000pt" viewBox="0 0 81.000000 100.000000"
 preserveAspectRatio="xMidYMid meet">
<metadata>
Created by potrace 1.16, written by Peter Selinger 2001-2019
</metadata>
<g transform="translate(0.000000,100.000000) scale(0.100000,-0.100000)"
fill="#000000" stroke="none">
<path d="M565 860 c-82 -61 -155 -110 -162 -110 -6 0 -74 40 -151 90 -150 96
-182 112 -200 101 -9 -5 -12 -119 -10 -452 3 -438 3 -444 23 -447 13 -2 78 37
174 103 84 58 155 105 157 105 2 0 75 -48 163 -106 169 -111 206 -125 206 -74
0 27 -35 53 -205 156 -47 28 -86 58 -88 66 -2 10 17 27 50 46 107 62 243 158
246 174 2 11 -38 39 -142 98 -81 46 -146 89 -146 96 0 7 26 29 59 51 110 72
223 156 228 170 7 17 -15 43 -36 43 -9 0 -83 -50 -166 -110z m-334 -81 c54
-33 99 -67 99 -74 0 -10 -87 -78 -205 -160 -8 -5 -17 -6 -22 -2 -10 11 -17
187 -8 253 8 66 0 67 136 -17z m289 -176 c32 -21 71 -46 89 -55 17 -9 31 -23
31 -30 0 -7 -28 -32 -63 -55 -34 -23 -79 -54 -100 -69 -23 -17 -41 -24 -46
-18 -5 5 -7 66 -4 137 5 103 9 127 21 127 8 0 40 -17 72 -37z m-154 -110 c-1
-85 -6 -128 -13 -128 -17 0 -182 109 -183 120 0 6 20 23 45 38 25 16 66 46 92
67 25 22 49 37 53 35 4 -2 6 -62 6 -132z m-165 -119 c42 -29 86 -55 98 -59 11
-3 21 -12 21 -18 0 -7 -42 -39 -92 -72 -51 -33 -98 -64 -105 -70 -10 -7 -16
-6 -23 5 -11 17 -14 263 -4 273 8 8 6 9 105 -59z"/>
</g>
</svg>
