<?xml version="1.0" standalone="no"?>
<!DOCTYPE svg PUBLIC "-//W3C//DTD SVG 20010904//EN"
 "http://www.w3.org/TR/2001/REC-SVG-20010904/DTD/svg10.dtd">
<svg version="1.0" xmlns="http://www.w3.org/2000/svg"
 width="91.000000pt" height="100.000000pt" viewBox="0 0 91.000000 100.000000"
 preserveAspectRatio="xMidYMid meet">
<metadata>
Created by potrace 1.16, written by Peter Selinger 2001-2019
</metadata>
<g transform="translate(0.000000,100.000000) scale(0.100000,-0.100000)"
fill="#000000" stroke="none">
<path d="M575 888 c-37 -40 -104 -117 -149 -170 -44 -54 -87 -98 -94 -98 -7 0
-66 54 -131 121 -95 97 -123 120 -142 117 l-24 -3 -3 -390 c-2 -388 -2 -390
19 -408 12 -9 27 -17 34 -17 11 0 237 259 295 338 13 17 29 32 35 32 7 0 89
-78 183 -172 l172 -173 51 52 c43 42 51 55 45 76 -3 14 -78 95 -173 187 -122
119 -164 166 -157 175 5 8 62 75 127 149 132 151 129 140 60 217 -51 56 -69
52 -148 -33z m121 -3 c8 -19 -16 -54 -126 -184 -47 -56 -93 -101 -102 -101
-10 0 -22 9 -28 20 -13 24 -13 24 125 178 87 98 119 119 131 87z m-346 -412
c0 -8 -20 -35 -44 -61 -24 -26 -78 -92 -121 -147 -43 -55 -83 -100 -89 -100
-7 0 -10 84 -7 280 1 154 5 284 8 288 6 11 253 -243 253 -260z m460 -297 c0
-37 -41 -8 -189 136 -86 83 -157 155 -159 159 -2 3 5 14 14 24 17 16 26 9 176
-143 87 -87 158 -167 158 -176z"/>
</g>
</svg>
