<?xml version="1.0" standalone="no"?>
<!DOCTYPE svg PUBLIC "-//W3C//DTD SVG 20010904//EN"
 "http://www.w3.org/TR/2001/REC-SVG-20010904/DTD/svg10.dtd">
<svg version="1.0" xmlns="http://www.w3.org/2000/svg"
 width="538.000000pt" height="590.000000pt" viewBox="0 0 538.000000 590.000000"
 preserveAspectRatio="xMidYMid meet">
<metadata>
Created by potrace 1.16, written by Peter Selinger 2001-2019
</metadata>
<g transform="translate(0.000000,590.000000) scale(0.500000,-0.500000)"
fill="#000000" stroke="none">
<path d="M773 1138 c-9 -2 -56 -47 -63 -61 -3 -4 -15 -18 -27 -30 -12 -12 -24
-25 -26 -29 -2 -4 -13 -17 -25 -29 -12 -12 -24 -26 -27 -31 -3 -5 -15 -19 -27
-31 -12 -12 -23 -25 -25 -29 -2 -4 -14 -18 -27 -32 -13 -14 -25 -28 -27 -32
-2 -4 -13 -17 -24 -29 -12 -12 -23 -26 -25 -30 -7 -13 -46 -52 -53 -51 -5 0
-19 14 -268 266 l-28 28 -27 0 c-37 0 -35 4 -33 -54 0 -24 1 -232 1 -461 l0
-417 17 -14 c16 -13 18 -14 30 -15 6 -1 15 -2 19 -3 11 -3 47 27 57 48 2 4 10
14 18 22 8 8 16 19 19 23 2 4 11 16 21 25 10 9 21 22 24 28 4 6 15 18 23 27 9
9 16 18 16 19 0 1 9 12 21 24 11 11 22 24 24 28 2 4 11 14 19 23 9 9 17 20 19
23 2 4 12 16 22 26 10 10 20 23 23 27 2 4 12 17 22 27 9 10 19 22 21 26 9 18
37 43 45 41 5 -1 56 -54 65 -67 4 -6 10 -11 13 -13 10 -7 201 -202 207 -211 3
-6 9 -12 14 -14 9 -6 71 -68 80 -82 5 -6 9 -10 12 -11 3 -1 7 -1 10 -2 19 -4
37 5 48 25 3 5 20 24 38 42 37 37 37 37 37 62 0 22 -2 26 -11 33 -5 2 -69 65
-143 138 -135 134 -172 171 -220 216 -36 33 -36 36 -7 64 10 10 21 22 24 27 3
5 13 16 21 24 9 8 17 19 20 23 2 4 12 16 23 26 10 10 20 22 23 26 2 4 10 14
17 21 7 7 15 16 17 21 3 4 14 17 25 29 12 12 21 23 21 24 0 1 9 11 20 23 11
12 20 22 20 23 0 1 10 13 23 26 26 27 31 40 18 52 -3 3 -10 11 -16 18 -5 7
-18 21 -27 30 -10 10 -20 22 -24 27 -18 26 -58 50 -77 47z m42 -83 c24 -24 25
-25 12 -39 -5 -6 -12 -15 -15 -20 -3 -5 -13 -16 -21 -26 -9 -9 -18 -21 -22
-26 -3 -4 -13 -16 -22 -25 -9 -10 -18 -20 -20 -24 -2 -4 -11 -13 -18 -22 -8
-8 -16 -18 -18 -21 -2 -4 -12 -16 -22 -26 -10 -11 -20 -23 -23 -27 -2 -4 -11
-16 -19 -25 -9 -9 -19 -21 -21 -26 -6 -10 -42 -46 -46 -46 -5 0 -14 8 -36 30
-22 24 -21 22 -16 33 2 4 4 9 4 10 0 2 5 8 12 14 7 7 20 20 30 29 9 10 20 20
24 23 5 3 9 8 10 13 3 10 19 30 36 43 10 9 36 37 47 54 10 14 18 22 29 29 4 3
11 11 15 17 4 6 10 13 13 15 4 2 10 10 14 17 11 17 15 22 24 27 4 2 11 8 14
12 10 11 12 11 35 -13z m-681 -188 c3 -3 8 -8 10 -12 5 -9 14 -18 23 -24 6 -3
12 -9 17 -18 5 -7 9 -13 10 -13 2 0 32 -30 32 -32 0 -1 5 -5 11 -9 10 -7 11
-9 14 -18 3 -11 15 -24 26 -30 3 -1 9 -6 13 -11 3 -4 11 -11 17 -14 8 -5 12
-9 17 -17 7 -13 20 -25 35 -34 9 -5 13 -8 16 -15 3 -7 6 -10 12 -12 10 -3 13
-6 23 -20 13 -19 8 -38 -16 -63 -8 -8 -14 -16 -14 -17 0 -1 -6 -9 -14 -17 -8
-8 -14 -16 -14 -17 0 -1 -9 -11 -20 -23 -11 -11 -20 -22 -20 -23 0 -1 -8 -10
-17 -20 -9 -10 -18 -21 -20 -25 -2 -3 -11 -14 -20 -23 -9 -10 -17 -19 -17 -21
0 -2 -8 -11 -17 -21 -9 -9 -18 -20 -20 -24 -2 -3 -10 -14 -19 -24 -8 -9 -17
-20 -19 -23 -1 -3 -9 -13 -16 -21 -7 -8 -14 -17 -16 -20 -8 -16 -24 -24 -28
-13 -3 13 1 150 5 161 6 15 6 51 0 69 -6 16 -5 59 1 72 4 8 4 13 3 141 -1 219
-1 231 2 235 3 4 10 3 20 -4z m353 -156 c14 -15 15 -17 31 -28 16 -13 17 -15
9 -27 -3 -5 -7 -12 -10 -16 -12 -18 -22 -20 -35 -8 -4 4 -13 12 -20 18 -27 24
-31 32 -21 49 14 24 31 28 46 12z m114 -117 c4 -5 12 -12 17 -16 10 -6 17 -14
23 -25 2 -4 8 -10 14 -14 8 -5 13 -11 19 -20 5 -8 11 -14 15 -16 9 -5 19 -15
25 -26 2 -4 8 -9 13 -12 9 -6 20 -17 25 -26 2 -4 9 -10 16 -15 7 -5 14 -11 18
-18 6 -9 8 -11 22 -21 4 -2 10 -9 15 -16 5 -7 11 -14 15 -16 9 -5 22 -18 27
-27 2 -4 9 -10 15 -14 7 -5 14 -12 19 -19 5 -7 13 -15 19 -19 7 -5 14 -13 19
-20 4 -6 11 -14 15 -16 26 -14 27 -30 4 -47 -24 -18 3 -40 -197 159 -53 52
-121 119 -151 149 -65 62 -64 61 -47 77 3 3 9 10 14 17 12 14 16 15 26 1z"/>
</g>
</svg>
