<?xml version="1.0" standalone="no"?>
<!DOCTYPE svg PUBLIC "-//W3C//DTD SVG 20010904//EN"
 "http://www.w3.org/TR/2001/REC-SVG-20010904/DTD/svg10.dtd">
<svg version="1.0" xmlns="http://www.w3.org/2000/svg"
 width="134.000000pt" height="148.000000pt" viewBox="0 0 134.000000 148.000000"
 preserveAspectRatio="xMidYMid meet">
<metadata>
Created by potrace 1.16, written by Peter Selinger 2001-2019
</metadata>
<g transform="translate(0.000000,148.000000) scale(0.100000,-0.100000)"
fill="#000000" stroke="none">
<path d="M893 1357 c-29 -35 -72 -85 -95 -110 -24 -26 -54 -60 -68 -76 -14
-16 -44 -51 -67 -77 -23 -27 -70 -82 -103 -121 -34 -40 -65 -73 -69 -73 -5 0
-90 83 -189 184 -153 156 -187 185 -214 188 l-33 3 -3 -586 c-2 -652 -7 -609
65 -622 28 -5 35 -2 60 31 36 48 283 344 297 357 6 6 37 43 70 83 32 40 62 75
66 77 7 5 194 -180 427 -422 87 -90 110 -100 138 -55 10 15 37 46 61 69 24 24
44 51 44 61 0 11 -105 123 -255 272 -140 140 -255 259 -255 265 0 5 13 22 29
38 48 44 341 396 341 408 0 6 -32 47 -71 90 -91 102 -104 103 -176 16z m119
-34 c15 -15 28 -31 28 -36 0 -14 -328 -404 -344 -410 -10 -4 -27 9 -46 33
l-31 39 58 64 c32 36 78 88 103 117 25 29 56 65 70 79 13 14 46 52 73 84 26
31 51 57 54 57 4 0 20 -12 35 -27z m-839 -243 c7 -11 44 -52 80 -92 37 -40 73
-80 80 -88 8 -8 52 -51 100 -95 49 -46 87 -88 87 -99 0 -10 -24 -46 -53 -80
-75 -86 -202 -241 -267 -324 -80 -105 -83 -104 -76 30 4 62 7 129 7 148 1 41
1 46 0 373 0 207 2 247 14 247 7 0 20 -9 28 -20z m455 -210 c37 -34 38 -41 16
-75 -22 -34 -33 -32 -78 14 -38 39 -39 40 -22 65 21 34 43 32 84 -4z m203
-216 c57 -58 166 -168 241 -243 76 -75 138 -141 138 -147 0 -6 -10 -20 -23
-32 l-22 -21 -243 240 c-133 132 -242 245 -242 250 0 7 40 59 45 59 1 0 49
-48 106 -106z"/>
</g>
</svg>
