<?xml version="1.0" standalone="no"?>
<!DOCTYPE svg PUBLIC "-//W3C//DTD SVG 20010904//EN"
 "http://www.w3.org/TR/2001/REC-SVG-20010904/DTD/svg10.dtd">
<svg version="1.0" xmlns="http://www.w3.org/2000/svg"
 width="96.000000pt" height="100.000000pt" viewBox="0 0 96.000000 100.000000"
 preserveAspectRatio="xMidYMid meet">
<metadata>
Created by potrace 1.16, written by Peter Selinger 2001-2019
</metadata>
<g transform="translate(0.000000,100.000000) scale(0.100000,-0.100000)"
fill="#000000" stroke="none">
<path d="M734 920 c-100 -50 -189 -118 -283 -214 -40 -42 -75 -76 -78 -76 -2
0 -50 47 -107 105 -131 134 -156 137 -195 18 -53 -159 -43 -570 15 -685 29
-56 52 -38 273 220 63 72 120 132 127 132 7 0 66 -54 131 -121 65 -67 130
-127 145 -135 29 -15 86 -18 104 -6 19 12 34 49 34 81 0 33 -5 39 -162 212
-49 53 -88 101 -88 107 0 6 49 49 109 96 150 118 161 132 161 211 0 90 -3 95
-60 95 -36 0 -67 -10 -126 -40z m136 -48 c0 -32 -7 -45 -42 -78 -74 -70 -318
-269 -334 -272 -20 -5 -74 46 -74 69 0 19 147 156 225 209 87 60 179 110 202
110 20 0 23 -5 23 -38z m-693 -413 c2 -162 -1 -299 -5 -306 -4 -6 -14 -13 -22
-15 -12 -3 -14 39 -11 302 2 168 5 309 8 313 3 4 10 6 16 4 9 -3 13 -86 14
-298z m86 5 c6 -185 5 -203 -12 -218 -10 -9 -21 -13 -24 -9 -9 9 -9 438 0 447
22 22 31 -30 36 -220z m-158 -30 c-4 -90 -11 -141 -16 -133 -10 16 -12 226 -2
284 6 35 7 37 16 18 6 -13 7 -79 2 -169z m237 149 c15 -13 18 -32 18 -113 0
-84 -3 -99 -20 -115 -11 -10 -22 -16 -25 -14 -8 8 -18 226 -12 243 8 20 16 20
39 -1z m299 -107 c14 -19 64 -78 112 -131 48 -52 87 -102 87 -110 0 -7 -9 -17
-20 -20 -25 -8 -74 32 -205 165 l-90 91 24 20 c35 29 64 24 92 -15z"/>
</g>
</svg>
