<?xml version="1.0" standalone="no"?>
<!DOCTYPE svg PUBLIC "-//W3C//DTD SVG 20010904//EN"
 "http://www.w3.org/TR/2001/REC-SVG-20010904/DTD/svg10.dtd">
<svg version="1.0" xmlns="http://www.w3.org/2000/svg"
 width="568.000000pt" height="590.000000pt" viewBox="0 0 568.000000 590.000000"
 preserveAspectRatio="xMidYMid meet">
<metadata>
Created by potrace 1.16, written by Peter Selinger 2001-2019
</metadata>
<g transform="translate(0.000000,590.000000) scale(0.500000,-0.500000)"
fill="#000000" stroke="none">
<path d="M987 1133 c-7 -2 -17 -5 -22 -6 -4 -1 -12 -4 -18 -7 -5 -3 -17 -8
-26 -11 -10 -3 -17 -6 -18 -7 -2 -3 -23 -13 -30 -15 -4 -1 -13 -5 -21 -10 -8
-5 -21 -12 -28 -16 -17 -9 -41 -25 -48 -32 -8 -8 -36 -26 -47 -30 -6 -2 -15
-7 -21 -12 -6 -5 -12 -9 -13 -9 0 0 -10 -9 -21 -19 -11 -10 -21 -19 -22 -19
-1 0 -11 -8 -21 -18 -10 -10 -22 -20 -27 -23 -7 -4 -73 -71 -128 -130 -33 -36
-23 -40 -95 34 -80 80 -151 153 -166 169 -17 18 -18 18 -52 18 -36 0 -33 1
-44 -22 -5 -10 -11 -23 -13 -27 -3 -4 -6 -11 -8 -15 -2 -4 -5 -12 -6 -18 -1
-7 -4 -15 -6 -20 -5 -10 -12 -37 -12 -48 0 -6 -2 -12 -6 -19 -5 -10 -6 -11 -6
-37 0 -19 -1 -30 -3 -37 -2 -7 -3 -18 -3 -36 0 -17 -1 -29 -3 -36 -2 -5 -3
-14 -3 -19 0 -5 -1 -13 -3 -18 -4 -11 -4 -40 0 -49 2 -5 3 -15 3 -31 0 -17 -1
-26 -3 -31 -4 -10 -4 -49 0 -61 2 -7 3 -20 3 -67 0 -46 1 -60 3 -68 2 -6 3
-14 3 -19 0 -5 1 -14 3 -19 2 -6 3 -15 3 -20 0 -6 1 -14 3 -19 2 -6 3 -16 3
-32 0 -14 1 -27 3 -33 1 -6 4 -17 6 -26 8 -38 21 -71 35 -91 2 -3 4 -7 5 -10
5 -16 34 -19 52 -6 9 6 56 54 62 63 3 4 8 7 11 9 4 1 9 6 14 14 5 6 12 16 15
20 3 5 9 12 13 18 3 5 15 18 26 29 11 12 20 22 20 23 0 1 10 13 22 25 12 13
22 24 22 25 0 1 11 14 25 28 13 14 26 29 28 32 2 4 13 17 24 28 12 12 21 23
21 24 0 1 10 12 22 25 12 13 25 28 29 33 42 62 53 64 95 19 35 -36 98 -101
194 -198 28 -28 54 -53 58 -56 4 -3 10 -7 12 -11 21 -24 106 -40 134 -25 22
11 41 37 44 58 1 6 4 16 5 22 9 26 -5 66 -31 94 -7 8 -15 17 -18 21 -3 4 -11
13 -17 21 -7 8 -16 19 -20 25 -4 8 -8 12 -16 16 -7 3 -13 9 -19 17 -5 7 -21
24 -36 39 -14 15 -29 30 -31 35 -3 4 -19 21 -35 37 -17 16 -34 34 -38 40 -4 6
-14 17 -22 24 -19 17 -25 26 -22 33 3 5 29 29 32 29 1 0 7 4 13 10 6 5 15 12
19 15 5 3 13 9 17 13 4 4 12 10 17 13 5 3 14 10 19 15 6 6 12 10 13 10 1 0 9
6 17 14 8 7 18 16 22 19 4 2 14 10 21 16 7 6 13 11 14 11 1 0 7 5 14 11 6 6
14 12 17 14 3 2 11 9 18 15 7 6 17 14 23 18 16 8 37 34 41 49 21 75 11 191
-18 196 -2 0 -9 2 -16 3 -22 5 -40 4 -56 -1z m50 -51 c6 -11 5 -73 -2 -84 -4
-6 -7 -14 -8 -20 -1 -10 -16 -26 -39 -41 -5 -4 -13 -10 -17 -15 -4 -5 -12 -11
-18 -15 -5 -4 -16 -12 -23 -18 -6 -6 -13 -11 -14 -11 -1 0 -7 -5 -13 -11 -7
-5 -15 -12 -19 -15 -4 -3 -13 -10 -20 -17 -7 -7 -17 -15 -22 -19 -20 -14 -31
-23 -42 -33 -6 -6 -15 -13 -20 -16 -5 -4 -11 -9 -14 -12 -3 -3 -10 -9 -16 -13
-6 -4 -15 -12 -20 -17 -5 -5 -14 -13 -20 -17 -6 -4 -13 -10 -15 -12 -2 -3 -8
-7 -12 -10 -11 -8 -34 -28 -54 -46 -15 -14 -25 -21 -39 -31 -9 -6 -17 -1 -51
33 -16 16 -33 31 -36 33 -21 10 -25 24 -10 38 6 6 11 13 12 17 2 7 18 24 33
34 6 3 20 15 30 25 10 10 24 21 29 25 6 3 17 14 26 24 9 10 19 20 22 22 3 2 9
8 13 13 3 5 7 9 8 9 1 0 9 7 19 15 9 8 21 17 26 19 5 2 15 10 24 18 8 7 25 19
37 27 13 7 35 22 49 31 15 10 38 23 52 30 14 7 31 17 38 23 10 8 17 12 32 17
11 4 23 9 28 11 4 3 13 6 20 7 8 1 15 3 17 4 7 4 26 2 29 -2z m-833 -192 c12
-12 12 -12 12 -29 0 -9 0 -24 2 -33 3 -26 3 -69 -1 -81 -3 -9 -3 -42 -3 -239
0 -197 0 -231 -3 -239 -4 -14 -4 -19 2 -40 6 -21 5 -25 -5 -36 -3 -3 -9 -12
-14 -20 -23 -34 -43 13 -27 67 3 10 3 45 4 321 0 310 0 310 5 323 8 23 12 23
28 6z m78 -76 c5 -5 14 -14 19 -20 l11 -12 0 -155 c0 -117 1 -157 3 -160 1 -3
2 -22 2 -67 0 -35 1 -68 2 -74 1 -11 0 -13 -34 -46 -8 -8 -17 -13 -20 -10 -3
3 -4 539 -1 547 3 7 7 6 18 -3z m-155 -55 c4 -13 2 -213 -1 -223 -4 -7 -4 -18
-4 -113 0 -78 -1 -106 -3 -112 l-2 -8 -6 11 c-3 6 -5 14 -5 19 0 5 -1 13 -3
20 -2 9 -3 24 -3 68 0 42 -1 59 -3 67 -2 10 -2 12 0 22 2 8 3 26 3 76 0 52 1
68 3 77 2 7 3 20 3 30 0 10 1 21 2 24 1 3 3 13 4 21 2 22 12 34 15 21z m254
-45 c5 -5 15 -15 23 -22 24 -22 23 -17 24 -100 0 -60 0 -74 -3 -84 -4 -17 -4
-32 1 -42 6 -11 0 -26 -18 -45 -3 -3 -6 -8 -9 -12 -5 -8 -22 -23 -26 -23 -5 0
-7 12 -7 53 0 30 -1 43 -3 50 -4 12 -5 219 -1 228 3 7 9 6 19 -3z m343 -111
c14 -10 18 -14 30 -33 8 -11 23 -30 33 -40 10 -11 24 -26 31 -35 7 -9 27 -30
44 -47 16 -17 30 -33 30 -34 0 -2 15 -18 33 -36 18 -18 35 -37 38 -42 4 -5 11
-14 16 -19 21 -24 21 -42 -1 -60 -9 -8 -11 -9 -20 -9 -24 0 -36 10 -149 122
-52 51 -114 112 -137 135 -33 32 -44 44 -44 47 0 7 9 19 18 24 4 3 13 10 20
17 27 24 35 25 58 10z m-219 -10 c28 -28 28 -34 7 -54 -34 -34 -36 -33 -36 24
0 55 2 57 29 30z"/>
</g>
</svg>
