<?xml version="1.0" standalone="no"?>
<!DOCTYPE svg PUBLIC "-//W3C//DTD SVG 20010904//EN"
 "http://www.w3.org/TR/2001/REC-SVG-20010904/DTD/svg10.dtd">
<svg version="1.0" xmlns="http://www.w3.org/2000/svg"
 width="142.000000pt" height="148.000000pt" viewBox="0 0 142.000000 148.000000"
 preserveAspectRatio="xMidYMid meet">
<metadata>
Created by potrace 1.16, written by Peter Selinger 2001-2019
</metadata>
<g transform="translate(0.000000,148.000000) scale(0.100000,-0.100000)"
fill="#000000" stroke="none">
<path d="M1180 1398 c-70 -27 -124 -56 -230 -126 -117 -76 -189 -137 -300
-253 l-95 -100 -160 161 c-151 151 -161 160 -198 160 -36 0 -39 -2 -62 -52
-33 -73 -56 -161 -61 -238 -3 -36 -9 -87 -13 -115 -9 -47 -5 -431 4 -445 3 -4
9 -48 15 -98 11 -99 41 -193 71 -223 35 -35 50 -22 289 256 62 72 136 157 165
190 29 33 66 75 82 94 l29 33 195 -197 c106 -108 208 -204 226 -211 18 -8 53
-14 79 -14 38 0 51 5 74 30 25 27 40 67 40 110 0 33 -107 162 -310 373 -41 43
-75 83 -75 89 0 7 43 46 96 87 53 42 141 113 196 158 112 91 114 95 118 228 2
68 -6 102 -29 117 -20 14 -91 7 -146 -14z m118 -87 c6 -81 -6 -97 -177 -235
-48 -39 -148 -120 -221 -181 -73 -60 -143 -118 -156 -128 -23 -18 -23 -18 -75
33 -29 27 -56 50 -61 50 -21 0 -4 42 30 73 171 162 226 213 247 227 12 8 57
39 99 68 42 28 80 52 85 52 4 0 26 12 47 27 47 31 131 64 159 60 16 -2 21 -11
23 -46z m-1037 -199 c5 -22 10 -79 9 -92 -1 -8 -3 -187 -5 -398 -3 -359 -5
-384 -23 -409 -13 -18 -25 -24 -36 -20 -14 6 -16 14 -10 49 4 24 9 230 11 458
2 228 5 421 8 428 4 10 10 10 25 2 11 -6 21 -14 21 -18z m107 -109 c23 -27 23
-31 20 -218 -1 -104 1 -236 6 -293 l9 -102 -37 -35 c-21 -19 -39 -35 -42 -35
-2 0 -4 160 -4 355 0 380 0 383 48 328z m-211 -349 c-3 -168 -7 -307 -9 -309
-24 -24 -39 300 -23 500 8 104 13 128 26 119 6 -3 8 -123 6 -310z m372 61 c0
-66 1 -127 5 -135 7 -19 -62 -116 -74 -104 -7 7 -15 368 -11 429 1 5 19 -9 42
-30 l40 -40 -2 -120z m104 25 c15 -16 27 -35 27 -41 0 -16 -52 -69 -62 -63
-11 7 -10 134 0 134 5 0 21 -13 35 -30z m313 -37 c33 -37 112 -126 177 -197
68 -75 117 -137 117 -149 0 -27 -28 -57 -53 -57 -24 0 -415 380 -408 397 9 17
82 73 96 73 7 0 39 -30 71 -67z"/>
</g>
</svg>
