<?xml version="1.0" standalone="no"?>
<!DOCTYPE svg PUBLIC "-//W3C//DTD SVG 20010904//EN"
 "http://www.w3.org/TR/2001/REC-SVG-20010904/DTD/svg10.dtd">
<svg version="1.0" xmlns="http://www.w3.org/2000/svg"
 width="1192.000000pt" height="586.000000pt" viewBox="0 0 1192.000000 586.000000"
 preserveAspectRatio="xMidYMid meet">
<metadata>
Created by potrace 1.16, written by Peter Selinger 2001-2019
</metadata>
<g transform="translate(0.000000,586.000000) scale(0.500000,-0.500000)"
fill="#000000" stroke="none">
<path d="M1241 1112 c-2 -2 -4 -3 -5 -3 -1 -1 -1 -212 -1 -470 -1 -429 -1
-469 -4 -476 -3 -7 -3 -8 0 -17 3 -9 3 -10 -1 -20 -5 -13 -5 -25 0 -36 3 -6 4
-13 4 -23 0 -15 5 -25 12 -25 1 0 3 -3 6 -7 5 -10 14 -10 26 0 5 4 12 7 16 8
12 2 13 4 102 91 54 54 89 87 94 90 5 2 10 7 12 10 8 16 18 24 32 27 9 1 13 5
16 16 1 6 4 9 9 12 6 4 154 152 208 210 16 16 26 25 29 25 4 0 4 0 48 -45 19
-19 34 -33 40 -36 6 -3 27 -23 67 -64 43 -44 60 -60 66 -63 7 -3 30 -25 91
-85 48 -48 86 -84 90 -86 14 -7 52 -47 54 -56 4 -17 9 -21 28 -21 4 0 9 -1 12
-3 8 -5 16 -4 25 4 4 3 11 8 14 10 13 6 13 57 0 68 -7 6 -7 7 -6 12 1 3 2 12
1 19 0 7 1 16 2 20 2 5 2 9 0 15 -2 7 -2 12 0 20 1 6 2 64 3 167 1 153 1 157
5 166 5 9 5 10 3 163 -1 152 -1 155 3 164 5 14 8 210 3 216 -8 7 -61 7 -70 -1
-3 -2 -10 -7 -16 -10 -16 -9 -19 -12 -23 -20 -4 -10 -78 -86 -88 -91 -10 -5
-16 -10 -21 -21 -6 -12 -93 -97 -108 -105 -10 -6 -32 -28 -189 -188 -37 -37
-33 -37 -60 -8 -51 54 -78 80 -85 83 -5 3 -33 29 -66 62 -32 31 -61 59 -63 61
-4 2 -6 6 -7 10 -2 7 -9 15 -15 15 -6 0 -11 5 -13 13 -1 6 -4 9 -9 12 -12 7
-34 29 -38 38 -4 10 -10 14 -23 18 -9 2 -10 3 -13 11 -4 13 -7 15 -17 17 -7 1
-12 5 -47 40 -22 22 -43 40 -47 43 -5 2 -13 8 -18 13 -15 13 -53 19 -68 11z
m93 -157 c13 -12 27 -24 31 -27 5 -2 20 -16 38 -35 60 -64 86 -89 96 -94 7 -4
26 -21 65 -60 33 -33 58 -56 62 -58 4 -1 28 -22 53 -46 60 -57 59 -48 10 -94
-21 -20 -70 -68 -109 -107 -51 -50 -75 -72 -81 -76 -11 -5 -19 -13 -114 -112
-67 -70 -76 -78 -82 -75 -4 1 -5 11 -3 130 2 70 2 209 1 362 -2 323 -2 307 -1
312 4 7 10 3 34 -20z m928 6 c5 -5 5 -13 0 -23 -5 -9 -5 -20 -1 -25 4 -5 4
-13 -1 -23 -6 -13 -6 -68 0 -80 7 -13 6 -100 -1 -116 -4 -10 -4 -11 -2 -18 6
-13 6 -19 5 -66 0 -35 -1 -48 -3 -53 -2 -3 -2 -6 -2 -8 1 -1 2 -9 2 -17 1 -8
2 -40 3 -71 2 -56 2 -56 -2 -66 -5 -12 -5 -14 0 -24 6 -12 6 -58 0 -71 -3 -8
-4 -13 -4 -39 0 -42 -3 -44 -26 -20 -8 9 -20 18 -26 22 -6 3 -19 15 -31 27
-59 62 -88 91 -98 95 -7 4 -27 22 -69 64 -40 40 -61 60 -69 63 -52 29 -77 71
-54 93 9 9 53 53 99 98 59 58 87 83 95 88 8 4 21 17 45 42 134 140 130 137
140 128z"/>
<path d="M53 1098 c-3 -3 -3 -32 -3 -433 1 -237 1 -447 1 -467 0 -32 -1 -38
-4 -45 -3 -8 -3 -9 0 -18 3 -10 3 -11 -1 -21 -5 -14 -5 -22 -1 -32 2 -4 4 -15
5 -24 2 -30 25 -49 42 -35 6 4 13 8 20 9 11 2 11 2 98 89 56 56 90 88 96 91 4
2 10 7 12 10 8 16 18 24 33 27 8 1 11 5 15 17 1 5 4 9 9 11 6 4 154 153 208
210 16 17 26 25 29 25 4 0 4 0 49 -46 18 -19 33 -32 39 -35 6 -3 27 -23 67
-64 41 -42 59 -60 66 -63 8 -4 67 -60 143 -136 19 -19 34 -33 40 -36 19 -10
54 -48 54 -59 0 -8 8 -15 19 -15 5 0 14 -2 19 -4 12 -5 18 -3 25 4 2 3 7 6 12
8 15 8 17 55 2 67 -7 6 -7 7 -6 14 1 8 1 12 1 26 0 3 0 11 0 18 0 7 0 15 0 18
0 3 0 10 2 14 1 5 2 65 2 165 1 157 1 157 6 166 5 8 5 8 3 162 -1 147 -1 154
3 164 3 8 8 167 6 206 0 14 -2 15 -34 16 -30 0 -33 0 -50 -12 -6 -4 -13 -9
-16 -11 -4 -2 -9 -8 -11 -13 -6 -11 -84 -92 -89 -92 -6 0 -16 -10 -21 -20 -6
-12 -95 -98 -109 -106 -9 -5 -41 -36 -189 -187 -35 -37 -32 -37 -59 -8 -51 54
-78 80 -85 83 -5 3 -33 29 -66 62 -32 31 -61 59 -63 61 -4 2 -6 6 -7 10 -2 7
-9 15 -15 15 -6 0 -11 5 -13 13 -1 6 -4 9 -9 12 -12 7 -34 29 -38 38 -4 10 -9
14 -24 18 -9 3 -10 4 -12 12 -3 11 -7 14 -17 16 -7 1 -11 4 -46 39 -21 22 -41
40 -45 42 -5 3 -13 9 -19 14 -14 14 -16 14 -45 14 -22 0 -26 0 -29 -4z m86
-145 c8 -8 18 -18 22 -22 4 -4 13 -11 19 -14 7 -5 20 -16 37 -34 57 -61 88
-91 98 -96 7 -4 26 -21 65 -60 34 -33 58 -56 62 -58 76 -31 106 -99 63 -140
-21 -20 -70 -68 -109 -107 -52 -51 -74 -72 -81 -75 -11 -6 -18 -13 -114 -113
-67 -70 -76 -78 -82 -75 -4 1 -4 11 -2 121 1 57 1 233 0 392 -1 288 -1 294 5
294 1 0 9 -6 17 -13z m940 -4 c4 -4 4 -14 -1 -23 -5 -10 -5 -16 0 -27 4 -9 4
-9 0 -17 -7 -13 -8 -70 -2 -82 6 -12 6 -104 0 -116 -5 -10 -5 -15 0 -26 4 -10
6 -67 2 -96 -3 -20 -3 -54 0 -67 4 -20 3 -105 -2 -114 -5 -9 -5 -11 0 -21 6
-13 7 -61 1 -74 -4 -8 -5 -12 -5 -39 0 -43 -3 -44 -35 -11 -7 7 -16 14 -21 17
-5 3 -16 13 -27 24 -43 47 -88 91 -98 96 -7 4 -26 22 -69 64 -40 40 -62 60
-69 64 -52 27 -77 70 -54 92 9 9 54 53 100 98 54 53 86 84 92 86 11 6 19 14
72 70 102 107 106 111 116 102z"/>
</g>
</svg>
