<?xml version="1.0" standalone="no"?>
<!DOCTYPE svg PUBLIC "-//W3C//DTD SVG 20010904//EN"
 "http://www.w3.org/TR/2001/REC-SVG-20010904/DTD/svg10.dtd">
<svg version="1.0" xmlns="http://www.w3.org/2000/svg"
 width="152.000000pt" height="148.000000pt" viewBox="0 0 152.000000 148.000000"
 preserveAspectRatio="xMidYMid meet">
<metadata>
Created by potrace 1.16, written by Peter Selinger 2001-2019
</metadata>
<g transform="translate(0.000000,148.000000) scale(0.100000,-0.100000)"
fill="#000000" stroke="none">
<path d="M59 823 c-1 -329 -1 -629 -1 -667 0 -87 15 -107 62 -84 17 8 93 76
169 152 76 75 142 137 147 137 5 1 79 75 164 164 85 89 158 163 162 164 4 0
33 -25 65 -57 32 -31 148 -142 258 -245 249 -233 255 -239 255 -254 0 -7 15
-16 33 -21 46 -12 77 9 77 54 0 18 -4 36 -10 39 -6 3 -7 65 -4 158 6 194 24
942 24 1007 l0 50 -44 0 c-49 0 5 49 -511 -461 l-140 -139 -70 71 c-176 178
-393 389 -400 389 -4 0 -41 32 -82 70 -66 62 -80 70 -114 70 l-39 0 -1 -597z
m220 320 c131 -127 228 -217 333 -309 36 -33 66 -66 67 -74 0 -8 -92 -103
-205 -210 -113 -107 -231 -223 -262 -258 -30 -34 -59 -61 -64 -60 -6 2 -13
891 -8 1023 0 17 31 -8 139 -112z m1074 30 c-3 -38 -5 -84 -4 -103 1 -19 3
-66 3 -105 0 -38 0 -86 0 -105 1 -44 0 -82 -2 -242 -1 -70 1 -131 4 -137 9
-14 -5 -181 -15 -181 -5 0 -16 8 -26 18 -59 60 -385 363 -420 390 -24 19 -43
39 -43 46 0 7 59 68 132 137 72 68 181 175 241 237 61 61 116 112 124 112 10
0 11 -15 6 -67z"/>
</g>
</svg>
