<?xml version="1.0" standalone="no"?>
<!DOCTYPE svg PUBLIC "-//W3C//DTD SVG 20010904//EN"
 "http://www.w3.org/TR/2001/REC-SVG-20010904/DTD/svg10.dtd">
<svg version="1.0" xmlns="http://www.w3.org/2000/svg"
 width="100.000000pt" height="97.000000pt" viewBox="0 0 100.000000 97.000000"
 preserveAspectRatio="xMidYMid meet">
<metadata>
Created by potrace 1.16, written by Peter Selinger 2001-2019
</metadata>
<g transform="translate(0.000000,97.000000) scale(0.100000,-0.100000)"
fill="#000000" stroke="none">
<path d="M53 933 c-10 -4 -13 -102 -13 -444 0 -466 0 -467 45 -442 9 5 107 98
219 205 l202 196 201 -189 c186 -174 223 -203 237 -181 2 4 7 198 10 430 l6
422 -33 0 c-29 0 -53 -21 -222 -190 -104 -104 -194 -190 -198 -190 -5 0 -94
82 -198 182 -168 162 -222 208 -239 207 -3 0 -11 -3 -17 -6z m170 -221 c62
-59 139 -131 172 -160 l60 -52 -174 -167 c-96 -93 -177 -166 -180 -163 -8 8
-7 650 2 650 4 0 58 -48 120 -108z m667 -202 c0 -239 -3 -300 -13 -300 -7 0
-33 21 -57 46 -25 25 -93 89 -153 142 l-107 96 157 158 c87 86 161 157 166
157 4 1 7 -134 7 -299z"/>
</g>
</svg>
