<?xml version="1.0" standalone="no"?>
<!DOCTYPE svg PUBLIC "-//W3C//DTD SVG 20010904//EN"
 "http://www.w3.org/TR/2001/REC-SVG-20010904/DTD/svg10.dtd">
<svg version="1.0" xmlns="http://www.w3.org/2000/svg"
 width="100.000000pt" height="95.000000pt" viewBox="0 0 100.000000 95.000000"
 preserveAspectRatio="xMidYMid meet">
<metadata>
Created by potrace 1.16, written by Peter Selinger 2001-2019
</metadata>
<g transform="translate(0.000000,95.000000) scale(0.100000,-0.100000)"
fill="#000000" stroke="none">
<path d="M37 903 c-4 -3 -7 -199 -7 -435 l0 -428 39 0 c36 0 45 7 140 106 60
62 108 104 116 101 7 -3 21 -29 30 -58 24 -71 99 -149 144 -149 22 0 40 8 57
27 35 38 71 101 79 141 4 17 12 32 18 32 6 0 57 -45 112 -100 103 -101 134
-117 163 -88 13 13 17 519 5 736 l-6 122 -38 0 c-35 0 -44 -7 -130 -100 -52
-55 -99 -100 -106 -100 -7 0 -19 15 -27 33 -19 43 -141 167 -164 167 -29 0
-95 -80 -141 -172 -9 -18 -23 -34 -31 -36 -9 -1 -60 43 -119 103 -96 99 -118
115 -134 98z m491 -135 c88 -112 88 -109 -1 -197 l-55 -54 -57 54 c-82 78 -82
78 -34 156 51 82 68 103 85 103 7 0 35 -28 62 -62z m332 -294 c0 -175 -4 -314
-9 -312 -4 1 -79 72 -166 155 l-158 153 159 163 c88 90 162 162 167 160 4 -2
7 -146 7 -319z m-656 198 c55 -53 127 -121 159 -150 l59 -52 -157 -163 c-86
-89 -159 -160 -163 -157 -8 6 -14 620 -6 620 3 0 52 -44 108 -98z m339 -321
c32 -33 57 -63 57 -66 0 -4 -19 -43 -41 -86 -43 -82 -62 -95 -91 -61 -21 23
-88 150 -88 166 0 18 79 106 94 106 7 0 38 -27 69 -59z"/>
</g>
</svg>
