<?xml version="1.0" standalone="no"?>
<!DOCTYPE svg PUBLIC "-//W3C//DTD SVG 20010904//EN"
 "http://www.w3.org/TR/2001/REC-SVG-20010904/DTD/svg10.dtd">
<svg version="1.0" xmlns="http://www.w3.org/2000/svg"
 width="156.000000pt" height="148.000000pt" viewBox="0 0 156.000000 148.000000"
 preserveAspectRatio="xMidYMid meet">
<metadata>
Created by potrace 1.16, written by Peter Selinger 2001-2019
</metadata>
<g transform="translate(0.000000,148.000000) scale(0.100000,-0.100000)"
fill="#000000" stroke="none">
<path d="M645 1362 c-28 -31 -70 -91 -94 -132 -67 -114 -91 -150 -99 -150 -5
0 -84 74 -178 165 -138 135 -174 165 -194 163 l-25 -3 -3 -672 -2 -673 56 0
56 0 102 103 c55 57 129 133 163 170 34 37 68 67 75 67 8 0 20 -21 27 -47 42
-145 169 -293 251 -293 32 0 44 7 86 53 59 62 110 141 119 182 10 48 27 85 37
85 5 0 66 -55 136 -123 203 -197 203 -197 231 -197 61 1 81 41 70 145 -4 44
-7 334 -6 645 l2 565 -56 3 -57 3 -130 -133 c-71 -73 -142 -148 -157 -165 -15
-18 -31 -33 -36 -33 -6 0 -21 24 -33 53 -30 66 -235 277 -269 277 -14 0 -40
-21 -72 -58z m137 -115 c94 -102 158 -196 158 -230 0 -7 -28 -40 -63 -73 -34
-32 -77 -76 -94 -96 -18 -21 -38 -38 -46 -38 -7 0 -60 47 -116 105 l-103 104
23 38 c95 156 163 253 177 253 4 0 33 -28 64 -63z m561 -495 c-2 -519 -4 -537
-43 -482 -12 18 -304 295 -444 421 l-39 36 222 224 c122 123 237 241 254 262
17 20 36 37 42 37 7 0 9 -160 8 -498z m-1050 319 c78 -76 193 -185 255 -241
61 -57 112 -104 112 -104 -1 -1 -115 -117 -255 -259 -227 -231 -293 -286 -270
-228 9 21 7 756 -1 879 -5 70 -4 92 6 92 6 0 76 -62 153 -139z m647 -626 c-1
-17 -84 -177 -118 -228 -18 -26 -38 -47 -45 -46 -13 1 -74 72 -113 132 -31 48
-74 151 -74 174 0 10 34 54 76 97 l75 79 100 -99 c54 -54 99 -103 99 -109z"/>
</g>
</svg>
