<?xml version="1.0" standalone="no"?>
<!DOCTYPE svg PUBLIC "-//W3C//DTD SVG 20010904//EN"
 "http://www.w3.org/TR/2001/REC-SVG-20010904/DTD/svg10.dtd">
<svg version="1.0" xmlns="http://www.w3.org/2000/svg"
 width="586.000000pt" height="590.000000pt" viewBox="0 0 586.000000 590.000000"
 preserveAspectRatio="xMidYMid meet">
<metadata>
Created by potrace 1.16, written by Peter Selinger 2001-2019
</metadata>
<g transform="translate(0.000000,590.000000) scale(0.500000,-0.500000)"
fill="#000000" stroke="none">
<path d="M1055 1135 c-3 -1 -13 -10 -22 -19 -42 -44 -63 -65 -68 -67 -7 -3
-10 -6 -16 -17 -2 -4 -8 -9 -13 -12 -6 -4 -11 -9 -16 -17 -4 -7 -16 -22 -33
-39 -14 -15 -52 -54 -84 -88 -32 -34 -71 -74 -86 -90 -15 -16 -34 -36 -42 -45
-97 -111 -88 -107 -134 -61 -18 19 -35 34 -37 35 -2 1 -5 4 -7 7 -6 11 -37 44
-46 49 -10 5 -111 102 -116 111 -1 3 -3 8 -4 12 -1 7 -8 16 -12 16 -2 0 -12 9
-24 20 -11 11 -25 22 -31 25 -6 4 -24 19 -43 38 -18 18 -36 33 -40 35 -3 1
-27 23 -54 51 -59 59 -61 61 -73 50 -14 -12 -12 45 -12 -542 0 -288 0 -526 0
-527 0 -9 5 -10 40 -10 l34 0 12 14 c8 7 31 31 51 53 21 22 47 48 56 57 20 19
89 91 104 108 6 6 19 21 30 32 50 51 86 90 141 149 78 86 64 82 114 32 21 -21
44 -44 52 -51 8 -7 18 -18 22 -24 5 -7 11 -14 16 -17 5 -2 26 -21 47 -41 50
-48 166 -159 205 -196 60 -57 79 -75 85 -86 4 -6 10 -12 14 -14 3 -2 9 -6 14
-10 9 -9 29 -11 37 -5 5 5 7 1066 2 1073 -9 10 -49 18 -63 11z m-3 -112 c3 -3
4 -820 1 -825 -4 -7 -15 2 -76 66 -33 35 -53 54 -60 58 -14 8 -94 87 -98 97
-2 4 -5 8 -9 11 -4 1 -26 22 -49 44 -30 29 -46 43 -54 48 -16 8 -71 61 -71 67
0 3 3 8 7 12 4 3 8 9 10 12 4 8 36 39 45 43 3 2 8 7 10 10 4 9 26 30 41 40 8
6 13 10 16 16 3 7 6 10 13 14 10 5 11 6 14 16 2 9 18 26 34 38 7 6 15 13 18
17 3 4 10 11 15 15 8 6 13 12 17 20 4 7 10 15 15 19 4 4 11 11 14 15 16 21
139 150 143 150 1 0 3 -1 4 -3z m-940 -37 c3 -1 39 -35 79 -75 116 -113 236
-228 289 -277 59 -54 62 -38 -26 -127 -74 -75 -174 -181 -292 -308 -61 -65
-54 -86 -54 171 0 211 0 212 -4 222 -5 12 -8 382 -4 393 2 6 5 6 12 1z"/>
<path d="M199 738 c-14 -9 -13 -2 -13 -161 1 -171 -3 -152 35 -152 39 0 36
-15 35 166 -1 144 -1 140 -12 148 -7 5 -37 4 -45 -1z"/>
</g>
</svg>
