<?xml version="1.0" standalone="no"?>
<!DOCTYPE svg PUBLIC "-//W3C//DTD SVG 20010904//EN"
 "http://www.w3.org/TR/2001/REC-SVG-20010904/DTD/svg10.dtd">
<svg version="1.0" xmlns="http://www.w3.org/2000/svg"
 width="99.000000pt" height="100.000000pt" viewBox="0 0 99.000000 100.000000"
 preserveAspectRatio="xMidYMid meet">
<metadata>
Created by potrace 1.16, written by Peter Selinger 2001-2019
</metadata>
<g transform="translate(0.000000,100.000000) scale(0.100000,-0.100000)"
fill="#000000" stroke="none">
<path d="M899 963 c-14 -3 -216 -211 -357 -366 -23 -26 -46 -47 -50 -47 -5 0
-102 92 -218 205 -115 114 -216 204 -224 202 -13 -2 -15 -62 -18 -454 -2 -439
-2 -453 17 -463 11 -5 27 -7 36 -4 9 4 101 97 206 208 105 110 194 201 199
201 4 0 101 -91 216 -203 123 -120 214 -202 223 -200 14 3 16 46 18 368 3 373
-4 552 -22 555 -5 2 -17 1 -26 -2z m-9 -448 c0 -190 -3 -345 -6 -345 -4 0 -64
56 -134 124 -70 68 -146 138 -169 156 -22 18 -41 38 -41 45 0 6 18 29 41 50
22 22 97 102 166 178 69 75 129 137 134 137 5 0 9 -154 9 -345z m-621 153 c91
-89 167 -166 169 -169 2 -4 -54 -67 -124 -141 -70 -73 -143 -152 -163 -175
-57 -69 -61 -63 -61 105 0 82 -3 237 -7 345 -5 159 -4 197 7 197 7 0 88 -73
179 -162z"/>
<path d="M154 584 c-8 -58 3 -215 17 -229 6 -6 15 -6 27 1 14 9 18 29 20 110
4 133 -2 164 -33 164 -21 0 -25 -6 -31 -46z"/>
</g>
</svg>
