<?xml version="1.0" standalone="no"?>
<!DOCTYPE svg PUBLIC "-//W3C//DTD SVG 20010904//EN"
 "http://www.w3.org/TR/2001/REC-SVG-20010904/DTD/svg10.dtd">
<svg version="1.0" xmlns="http://www.w3.org/2000/svg"
 width="146.000000pt" height="148.000000pt" viewBox="0 0 146.000000 148.000000"
 preserveAspectRatio="xMidYMid meet">
<metadata>
Created by potrace 1.16, written by Peter Selinger 2001-2019
</metadata>
<g transform="translate(0.000000,148.000000) scale(0.100000,-0.100000)"
fill="#000000" stroke="none">
<path d="M56 1404 c-3 -9 -6 -315 -6 -680 0 -524 3 -664 13 -665 6 -1 26 0 44
1 35 2 70 35 373 360 90 96 180 193 201 214 l37 39 259 -249 c142 -137 286
-278 320 -312 34 -35 68 -62 75 -60 19 7 24 1348 6 1360 -7 4 -25 8 -40 8 -22
0 -46 -19 -110 -84 -46 -47 -92 -95 -102 -108 -11 -13 -92 -99 -180 -193 -89
-93 -173 -185 -188 -202 -15 -18 -30 -33 -35 -33 -4 0 -46 38 -93 84 -47 46
-115 112 -152 147 -38 34 -68 68 -68 74 0 13 -18 29 -149 140 -40 33 -94 86
-122 118 -52 59 -72 69 -83 41z m1255 -644 c0 -289 -2 -525 -5 -525 -4 0 -122
112 -479 457 l-49 48 113 112 c97 96 288 303 379 409 13 16 28 28 33 26 5 -1
8 -239 8 -527z m-777 91 l129 -123 -115 -117 c-151 -154 -263 -272 -333 -351
-31 -36 -63 -69 -71 -73 -12 -7 -14 30 -15 235 0 134 -4 371 -8 528 -4 157 -5
289 -3 293 2 5 68 -54 146 -130 77 -76 199 -194 270 -262z"/>
<path d="M243 923 c-10 -3 -13 -53 -13 -199 l0 -195 42 3 42 3 -2 189 c0 144
-4 191 -14 197 -14 9 -36 10 -55 2z"/>
</g>
</svg>
