<?xml version="1.0" standalone="no"?>
<!DOCTYPE svg PUBLIC "-//W3C//DTD SVG 20010904//EN"
 "http://www.w3.org/TR/2001/REC-SVG-20010904/DTD/svg10.dtd">
<svg version="1.0" xmlns="http://www.w3.org/2000/svg"
 width="97.000000pt" height="100.000000pt" viewBox="0 0 97.000000 100.000000"
 preserveAspectRatio="xMidYMid meet">
<metadata>
Created by potrace 1.16, written by Peter Selinger 2001-2019
</metadata>
<g transform="translate(0.000000,100.000000) scale(0.100000,-0.100000)"
fill="#000000" stroke="none">
<path d="M770 834 c-69 -74 -156 -169 -195 -212 -38 -42 -77 -77 -86 -77 -10
0 -83 63 -162 140 -177 172 -261 245 -280 245 -11 0 -15 -46 -19 -267 -3 -148
-3 -349 1 -448 6 -172 7 -180 27 -183 15 -2 71 48 222 203 111 113 206 205
210 205 5 0 43 -33 83 -72 236 -231 351 -332 360 -317 5 8 8 203 6 464 -2 442
-2 450 -22 452 -14 2 -56 -36 -145 -133z m120 -329 c0 -184 -2 -335 -5 -335
-3 0 -80 68 -170 152 -107 98 -165 159 -165 172 0 10 24 42 53 70 28 28 101
102 161 164 60 61 113 112 118 112 4 0 8 -151 8 -335z m-753 272 l45 -43 -1
-259 -2 -260 -47 -48 -47 -48 -7 43 c-11 74 -9 658 3 658 5 0 31 -19 56 -43z
m293 -291 c0 -5 -26 -37 -57 -70 -32 -34 -74 -79 -93 -101 l-35 -40 -6 190
c-3 105 -4 196 -1 203 5 14 192 -164 192 -182z"/>
</g>
</svg>
