<?xml version="1.0" standalone="no"?>
<!DOCTYPE svg PUBLIC "-//W3C//DTD SVG 20010904//EN"
 "http://www.w3.org/TR/2001/REC-SVG-20010904/DTD/svg10.dtd">
<svg version="1.0" xmlns="http://www.w3.org/2000/svg"
 width="144.000000pt" height="148.000000pt" viewBox="0 0 144.000000 148.000000"
 preserveAspectRatio="xMidYMid meet">
<metadata>
Created by potrace 1.16, written by Peter Selinger 2001-2019
</metadata>
<g transform="translate(0.000000,148.000000) scale(0.100000,-0.100000)"
fill="#000000" stroke="none">
<path d="M1301 1398 c-23 -37 -94 -108 -107 -108 -5 0 -18 -17 -29 -37 -18
-33 -52 -71 -127 -140 -12 -12 -44 -45 -70 -75 -92 -103 -223 -240 -240 -249
-17 -9 -73 40 -181 159 -26 28 -49 52 -50 52 -2 0 -52 47 -113 106 -60 58
-118 114 -129 125 -12 10 -25 19 -31 19 -5 0 -32 23 -59 51 -53 54 -92 79
-112 72 -10 -4 -13 -143 -13 -653 0 -576 2 -650 16 -664 8 -9 22 -16 30 -16 9
0 79 62 156 138 164 159 151 146 338 341 l144 152 71 -73 c99 -101 203 -200
245 -230 19 -15 97 -88 174 -163 84 -82 145 -135 155 -133 15 3 16 65 19 681
l2 677 -34 0 c-28 0 -38 -6 -55 -32z m21 -174 c-2 -16 -5 -243 -6 -504 -2
-261 -4 -479 -5 -484 0 -4 -45 36 -99 90 -123 124 -287 274 -298 274 -5 0 -30
21 -56 47 -80 79 -86 69 200 360 136 138 252 250 257 249 6 -2 9 -16 7 -32z
m-1087 -106 l40 -39 -3 -82 c-1 -45 -2 -217 -2 -381 l0 -299 -72 -76 c-40 -42
-79 -80 -85 -84 -10 -6 -13 104 -13 539 l0 547 48 -43 c26 -24 65 -61 87 -82z
m319 -298 c53 -46 96 -91 96 -99 0 -8 -35 -51 -78 -95 -42 -45 -108 -114 -145
-155 -37 -41 -70 -71 -73 -68 -4 3 -8 113 -9 244 -2 131 -6 246 -10 256 -4 10
-2 29 5 43 11 20 11 28 1 48 -29 54 3 42 58 -22 32 -37 102 -105 155 -152z"/>
</g>
</svg>
