<?xml version="1.0" standalone="no"?>
<!DOCTYPE svg PUBLIC "-//W3C//DTD SVG 20010904//EN"
 "http://www.w3.org/TR/2001/REC-SVG-20010904/DTD/svg10.dtd">
<svg version="1.0" xmlns="http://www.w3.org/2000/svg"
 width="576.000000pt" height="590.000000pt" viewBox="0 0 576.000000 590.000000"
 preserveAspectRatio="xMidYMid meet">
<metadata>
Created by potrace 1.16, written by Peter Selinger 2001-2019
</metadata>
<g transform="translate(0.000000,590.000000) scale(0.500000,-0.500000)"
fill="#000000" stroke="none">
<path d="M1060 1141 c-1 -1 -4 -5 -6 -9 -2 -4 -9 -13 -16 -21 -7 -7 -12 -14
-12 -16 0 -5 -18 -23 -27 -27 -10 -4 -16 -10 -21 -21 -4 -10 -11 -15 -22 -16
-9 -2 -16 -8 -16 -16 0 -3 -2 -6 -4 -8 -12 -11 -14 -13 -15 -21 -2 -11 -71
-83 -91 -94 -7 -5 -11 -9 -14 -15 -3 -5 -21 -24 -43 -46 -23 -24 -39 -41 -41
-46 -6 -15 -141 -151 -151 -152 -14 -2 -19 1 -26 13 -10 19 -10 20 -19 20 -8
0 -55 46 -62 61 -4 8 -15 20 -22 22 -2 1 -4 3 -5 5 -2 7 -14 19 -21 22 -3 1
-7 5 -8 8 -3 7 -17 20 -21 20 -5 0 -13 8 -17 17 -5 11 -56 62 -68 67 -11 6
-41 35 -46 47 -4 9 -13 18 -20 20 -3 1 -8 5 -13 8 -4 4 -10 9 -14 10 -4 2 -8
6 -9 9 -3 8 -14 18 -20 19 -18 4 -19 4 -57 44 -48 50 -74 64 -93 49 -6 -4 -8
-1026 -2 -1036 14 -27 35 -30 57 -10 6 6 16 13 20 15 10 4 91 85 95 94 1 4 5
8 11 11 11 6 50 46 54 55 2 4 5 8 10 10 3 1 11 7 18 13 7 6 15 13 19 15 3 2 8
6 10 9 2 4 6 8 10 10 7 4 7 4 10 17 2 7 3 9 10 12 6 3 11 7 15 14 4 6 10 12
13 14 3 2 6 5 7 7 2 7 11 16 19 20 5 2 9 6 10 10 3 7 10 14 21 19 6 4 11 8 16
16 4 5 9 11 12 13 3 1 7 5 8 10 4 8 71 79 80 83 3 2 9 6 12 9 8 8 10 7 35 -19
51 -53 80 -82 86 -84 4 -2 28 -24 61 -57 38 -38 56 -55 62 -57 6 -2 26 -21 69
-65 47 -46 65 -62 73 -67 9 -4 13 -8 17 -15 3 -5 8 -10 12 -12 10 -6 57 -53
63 -65 3 -6 7 -10 11 -11 2 -1 9 -5 13 -9 5 -4 10 -7 12 -7 5 0 21 8 23 12 5
6 4 1065 -1 1070 -4 4 -43 6 -51 3z m-1 -141 c6 -5 7 -17 1 -30 -6 -15 -8
-211 -2 -225 4 -9 4 -9 0 -18 -6 -15 -6 -288 0 -303 4 -10 4 -10 0 -20 -4 -9
-4 -11 -3 -101 2 -136 17 -135 -111 -4 -23 24 -42 41 -46 42 -4 2 -12 9 -19
15 -7 6 -15 13 -19 15 -8 3 -48 43 -55 54 -2 4 -7 9 -10 11 -4 2 -17 12 -29
24 -12 11 -25 21 -29 23 -4 2 -23 18 -43 37 -66 64 -66 64 37 164 62 59 103
101 275 278 44 44 44 44 53 38z m-941 -41 c13 -13 27 -25 34 -28 10 -6 22 -19
26 -28 1 -3 4 -6 7 -7 16 -7 27 -21 30 -35 1 -4 3 -11 5 -14 6 -10 6 -99 0
-110 -5 -8 -5 -8 -6 -247 -1 -239 -1 -239 -5 -245 -8 -11 -114 -115 -117 -115
-2 0 -4 1 -5 3 -1 4 -2 841 0 846 3 6 8 3 31 -20z m162 -141 c5 -10 125 -128
133 -132 8 -4 103 -94 107 -103 6 -10 -2 -20 -59 -77 -39 -37 -56 -56 -58 -61
-4 -8 -95 -104 -108 -113 -10 -8 -11 -5 -11 41 0 29 -1 42 -3 48 -2 6 -2 9 0
15 4 11 4 16 -1 25 -7 12 -7 44 0 56 5 11 5 22 0 31 -8 11 -7 98 0 112 8 16 6
48 -5 62 -11 13 -11 14 2 31 9 12 9 40 0 52 -8 9 -8 11 -5 15 4 3 6 3 8 -2z"/>
</g>
</svg>
