<?xml version="1.0" standalone="no"?>
<!DOCTYPE svg PUBLIC "-//W3C//DTD SVG 20010904//EN"
 "http://www.w3.org/TR/2001/REC-SVG-20010904/DTD/svg10.dtd">
<svg version="1.0" xmlns="http://www.w3.org/2000/svg"
 width="97.000000pt" height="100.000000pt" viewBox="0 0 97.000000 100.000000"
 preserveAspectRatio="xMidYMid meet">
<metadata>
Created by potrace 1.16, written by Peter Selinger 2001-2019
</metadata>
<g transform="translate(0.000000,100.000000) scale(0.100000,-0.100000)"
fill="#000000" stroke="none">
<path d="M796 863 c-55 -60 -146 -157 -203 -216 l-103 -108 -206 193 c-113
106 -212 197 -220 201 -30 17 -34 -42 -32 -466 l3 -422 35 -3 c34 -3 42 4 203
176 93 99 175 189 183 201 30 42 27 44 309 -231 72 -71 138 -128 146 -128 14
0 17 35 22 257 4 141 7 340 7 443 0 184 -4 210 -35 210 -5 0 -55 -48 -109
-107z m86 -345 c-2 -178 -7 -327 -11 -331 -5 -5 -20 6 -35 23 l-26 32 -2 226
c-3 319 -4 309 28 343 15 16 33 29 38 29 8 0 10 -99 8 -322z m-750 265 l37
-38 7 -261 7 -261 -43 -47 c-23 -25 -46 -46 -51 -46 -5 0 -9 155 -9 345 0 190
4 345 8 345 4 0 24 -17 44 -37z m613 -278 c0 -149 -3 -195 -12 -193 -23 5
-193 180 -186 192 15 25 179 196 188 196 6 0 10 -72 10 -195z m-401 81 l98
-95 -93 -100 c-51 -56 -96 -101 -100 -101 -4 0 -9 82 -11 183 -3 158 -2 207 6
207 1 0 46 -42 100 -94z"/>
</g>
</svg>
