<?xml version="1.0" standalone="no"?>
<!DOCTYPE svg PUBLIC "-//W3C//DTD SVG 20010904//EN"
 "http://www.w3.org/TR/2001/REC-SVG-20010904/DTD/svg10.dtd">
<svg version="1.0" xmlns="http://www.w3.org/2000/svg"
 width="144.000000pt" height="148.000000pt" viewBox="0 0 144.000000 148.000000"
 preserveAspectRatio="xMidYMid meet">
<metadata>
Created by potrace 1.16, written by Peter Selinger 2001-2019
</metadata>
<g transform="translate(0.000000,148.000000) scale(0.100000,-0.100000)"
fill="#000000" stroke="none">
<path d="M1117 1207 c-108 -117 -242 -259 -297 -317 l-99 -105 -113 112 c-181
179 -297 290 -331 316 -18 14 -61 53 -97 87 -93 87 -86 83 -109 70 -21 -11
-21 -14 -21 -648 0 -483 3 -641 12 -650 20 -20 95 -15 110 7 7 10 117 128 244
262 126 134 248 264 271 288 l40 44 59 -60 c59 -60 152 -147 318 -298 49 -44
123 -114 165 -156 50 -49 82 -74 94 -72 16 4 17 44 17 669 l0 664 -32 0 c-30
-1 -53 -22 -231 -213z m194 -453 c0 -273 -3 -499 -6 -502 -3 -3 -27 16 -54 42
l-48 47 -8 401 -7 401 58 58 c32 32 60 57 62 54 2 -2 4 -227 3 -501z m-1125
417 l61 -60 6 -83 c4 -46 10 -224 13 -395 l7 -312 -76 -78 c-42 -43 -78 -75
-81 -72 -4 4 -9 957 -6 1052 0 16 18 4 76 -52z m921 -426 c0 -168 -3 -304 -8
-303 -4 2 -58 51 -121 110 -62 58 -125 116 -140 128 -52 40 -41 63 93 201 66
68 127 134 136 147 37 53 39 33 40 -283z m-525 -99 c-43 -45 -109 -116 -146
-158 -38 -43 -72 -78 -77 -78 -5 0 -9 78 -10 173 -1 358 -2 402 -10 418 -24
46 19 14 163 -123 l159 -152 -79 -80z"/>
</g>
</svg>
