<?xml version="1.0" standalone="no"?>
<!DOCTYPE svg PUBLIC "-//W3C//DTD SVG 20010904//EN"
 "http://www.w3.org/TR/2001/REC-SVG-20010904/DTD/svg10.dtd">
<svg version="1.0" xmlns="http://www.w3.org/2000/svg"
 width="190.000000pt" height="148.000000pt" viewBox="0 0 190.000000 148.000000"
 preserveAspectRatio="xMidYMid meet">
<metadata>
Created by potrace 1.16, written by Peter Selinger 2001-2019
</metadata>
<g transform="translate(0.000000,148.000000) scale(0.100000,-0.100000)"
fill="#000000" stroke="none">
<path d="M55 1408 c-3 -7 -4 -312 -3 -678 l3 -665 54 -3 54 -3 86 89 c47 49
107 111 133 138 26 27 54 56 63 64 8 8 79 84 157 167 78 84 144 153 148 153 3
0 134 -126 291 -280 252 -248 288 -280 316 -280 18 0 36 6 40 14 4 8 5 92 1
188 -4 95 -5 180 -2 187 3 10 75 -56 218 -198 117 -117 215 -209 217 -205 2 5
2 290 -1 634 l-5 625 -26 3 c-22 3 -53 -25 -210 -187 -100 -104 -187 -187
-192 -184 -5 3 -7 100 -5 217 l3 211 -26 3 c-26 3 -42 -11 -179 -158 -14 -15
-102 -107 -196 -206 -94 -98 -185 -196 -203 -216 -18 -21 -36 -38 -40 -38 -3
0 -148 140 -321 310 -259 255 -320 310 -343 310 -15 0 -30 -6 -32 -12z m1256
-648 c0 -267 0 -488 0 -493 -2 -14 -56 21 -84 55 l-29 33 -2 395 -3 395 50 53
c28 29 54 51 59 50 6 -2 10 -207 9 -488z m-1102 432 l50 -47 -3 -115 c-2 -63
-4 -260 -5 -438 l-1 -323 -49 -52 c-34 -35 -53 -49 -60 -42 -7 7 -10 193 -11
530 0 286 -1 523 0 528 1 20 35 2 79 -41z m1545 -443 c1 -248 -1 -452 -5 -454
-3 -2 -31 22 -63 54 l-57 58 1 344 2 344 56 57 c31 32 58 55 60 53 3 -3 5
-208 6 -456z m-1278 191 c22 -25 75 -76 117 -114 42 -38 79 -76 82 -85 3 -11
-17 -40 -63 -86 -37 -39 -112 -118 -166 -177 -55 -60 -102 -108 -105 -108 -5
0 -6 689 -2 710 1 5 47 -43 137 -140z m639 -199 c1 -160 -2 -294 -5 -296 -10
-6 -290 279 -290 295 0 8 30 43 68 80 37 36 98 101 136 143 38 43 74 76 79 74
7 -2 11 -105 12 -296z m438 8 c-1 -138 -4 -254 -7 -256 -3 -3 -37 26 -76 64
l-71 69 -1 119 -2 118 70 67 c38 38 74 68 79 69 6 1 9 -87 8 -250z"/>
</g>
</svg>
