<?xml version="1.0" standalone="no"?>
<!DOCTYPE svg PUBLIC "-//W3C//DTD SVG 20010904//EN"
 "http://www.w3.org/TR/2001/REC-SVG-20010904/DTD/svg10.dtd">
<svg version="1.0" xmlns="http://www.w3.org/2000/svg"
 width="756.000000pt" height="590.000000pt" viewBox="0 0 756.000000 590.000000"
 preserveAspectRatio="xMidYMid meet">
<metadata>
Created by potrace 1.16, written by Peter Selinger 2001-2019
</metadata>
<g transform="translate(0.000000,590.000000) scale(0.500000,-0.500000)"
fill="#000000" stroke="none">
<path d="M56 1136 c-16 -6 -14 52 -14 -543 0 -339 1 -531 2 -533 4 -7 18 -10
55 -10 l34 0 49 50 c27 27 53 52 57 55 10 6 27 25 33 36 2 4 13 18 24 30 12
12 24 26 27 31 5 7 9 10 24 18 17 8 17 8 25 23 6 10 15 21 30 37 11 12 24 25
28 29 4 5 10 11 14 14 3 3 10 10 15 15 5 5 13 13 17 17 16 15 25 26 31 34 2 4
9 13 14 18 6 6 17 18 26 28 22 24 25 27 33 31 5 2 9 7 11 10 9 18 31 -1 117
-97 10 -11 23 -24 28 -27 5 -3 25 -22 44 -41 19 -19 35 -35 36 -35 3 0 219
-216 226 -225 6 -9 16 -12 44 -11 38 2 37 1 34 66 -2 37 -6 186 -6 228 0 14 3
19 10 17 5 -1 220 -213 270 -266 53 -56 69 -64 68 -38 0 5 -1 226 -1 492 -1
564 4 495 -34 496 l-17 0 -33 -35 c-19 -19 -51 -53 -73 -75 -22 -22 -69 -70
-105 -108 -97 -100 -87 -106 -85 59 4 219 4 202 -3 207 -15 13 -44 5 -64 -18
-13 -16 -54 -60 -96 -104 -19 -20 -53 -55 -75 -79 -23 -24 -69 -73 -104 -109
-35 -36 -86 -90 -112 -119 -54 -58 -57 -61 -64 -59 -2 1 -52 49 -110 107 -112
113 -380 376 -388 381 -6 4 -33 6 -42 3z m985 -143 c5 -5 9 -180 6 -274 0 -9
0 -151 0 -333 0 -42 0 -89 0 -104 0 -15 1 -33 2 -40 4 -36 -18 -31 -62 14 -21
22 -27 29 -29 35 -4 16 -4 619 1 626 1 3 10 13 20 22 9 9 21 23 28 31 18 22
28 29 34 23z m-910 -9 c5 -5 12 -11 16 -14 53 -38 64 -61 57 -112 -2 -13 -2
-20 0 -27 1 -7 2 -26 1 -55 -1 -25 -2 -159 -3 -298 -1 -211 -1 -254 -4 -258
-3 -5 -25 -29 -55 -60 -21 -23 -27 -22 -30 5 0 8 -2 18 -4 21 -7 12 -6 795 0
802 7 6 12 5 22 -4z m1265 -29 c1 -1 2 -11 2 -25 0 -13 0 -27 0 -31 0 -5 0
-16 -1 -23 0 -8 1 -31 1 -50 0 -35 1 -118 0 -147 0 -9 0 -68 1 -131 0 -63 0
-119 -1 -124 0 -5 1 -44 1 -87 2 -116 6 -112 -60 -48 l-35 34 0 21 c0 12 0 30
-1 42 -1 16 1 249 4 467 0 31 -1 29 23 52 11 9 20 18 20 19 34 35 39 39 46 31z
m-1086 -127 c14 -15 35 -37 46 -49 12 -12 25 -26 30 -30 5 -4 10 -12 12 -16 3
-6 6 -10 10 -12 7 -4 29 -24 74 -68 13 -12 29 -27 36 -34 16 -14 27 -34 22
-41 -2 -2 -35 -37 -73 -76 -79 -82 -88 -92 -143 -151 -38 -42 -45 -48 -50 -45
-3 2 -5 534 -2 544 4 9 10 5 38 -22z m576 -3 c3 -3 3 -29 3 -148 0 -79 1 -180
2 -224 2 -115 11 -114 -91 -12 -43 43 -91 90 -106 104 -36 35 -42 54 -24 70
15 12 19 17 31 31 6 7 17 19 25 25 8 6 16 15 19 19 3 4 8 10 12 12 4 2 9 7 12
12 11 15 20 26 31 34 5 5 16 16 22 25 7 9 13 17 15 18 9 10 19 20 26 28 10 10
18 12 23 6z m352 -35 c2 -7 -1 -383 -2 -386 -4 -7 -10 -4 -28 13 -48 47 -60
59 -73 70 -18 17 -31 150 -19 194 5 18 47 63 81 86 5 4 13 10 18 15 15 14 22
16 23 8z"/>
</g>
</svg>
