<?xml version="1.0" standalone="no"?>
<!DOCTYPE svg PUBLIC "-//W3C//DTD SVG 20010904//EN"
 "http://www.w3.org/TR/2001/REC-SVG-20010904/DTD/svg10.dtd">
<svg version="1.0" xmlns="http://www.w3.org/2000/svg"
 width="95.000000pt" height="100.000000pt" viewBox="0 0 95.000000 100.000000"
 preserveAspectRatio="xMidYMid meet">
<metadata>
Created by potrace 1.16, written by Peter Selinger 2001-2019
</metadata>
<g transform="translate(0.000000,100.000000) scale(0.100000,-0.100000)"
fill="#000000" stroke="none">
<path d="M746 835 c-76 -80 -141 -145 -145 -145 -4 0 -72 61 -151 135 -79 74
-149 135 -156 135 -20 0 -24 -27 -24 -184 l0 -152 -50 -148 c-41 -124 -58
-160 -108 -229 -78 -110 -96 -142 -89 -160 4 -12 172 -77 198 -77 16 0 17 39
4 164 -14 131 -14 136 8 212 30 103 47 108 47 15 0 -64 2 -71 20 -71 13 0 73
53 160 141 77 77 144 139 149 137 5 -1 71 -63 146 -136 76 -73 143 -131 149
-129 12 4 22 570 11 615 -3 12 -11 22 -19 22 -7 0 -75 -65 -150 -145z m132
-173 c2 -175 0 -212 -11 -212 -19 0 -27 83 -27 261 0 142 4 173 24 166 8 -2
12 -69 14 -215z m-530 -37 c-3 -191 -5 -210 -20 -213 -17 -3 -18 13 -18 221 0
123 3 227 7 231 4 4 13 -1 20 -11 10 -13 13 -68 11 -228z m71 171 c11 -13 32
-167 34 -239 0 -26 -46 -88 -56 -76 -3 2 -8 77 -12 167 -6 139 -5 162 8 162 8
0 20 -6 26 -14z m387 -114 c0 -65 4 -132 8 -149 10 -43 -7 -43 -51 -1 -33 31
-33 33 -33 122 0 88 1 91 32 123 17 18 34 30 37 27 3 -3 6 -58 7 -122z m-268
-5 c20 -21 22 -29 13 -46 -12 -22 -49 -46 -58 -38 -2 3 -7 33 -10 67 -6 59 -5
62 13 52 10 -6 30 -21 42 -35z m-356 -526 c10 -85 3 -91 -77 -61 l-26 10 18
31 c10 17 24 42 31 56 23 41 46 25 54 -36z"/>
</g>
</svg>
