<?xml version="1.0" standalone="no"?>
<!DOCTYPE svg PUBLIC "-//W3C//DTD SVG 20010904//EN"
 "http://www.w3.org/TR/2001/REC-SVG-20010904/DTD/svg10.dtd">
<svg version="1.0" xmlns="http://www.w3.org/2000/svg"
 width="562.000000pt" height="590.000000pt" viewBox="0 0 562.000000 590.000000"
 preserveAspectRatio="xMidYMid meet">
<metadata>
Created by potrace 1.16, written by Peter Selinger 2001-2019
</metadata>
<g transform="translate(0.000000,590.000000) scale(0.500000,-0.500000)"
fill="#000000" stroke="none">
<path d="M1053 1161 c-5 -1 -23 -21 -33 -36 -2 -4 -10 -11 -16 -15 -7 -5 -13
-11 -15 -14 -2 -4 -7 -8 -13 -11 -10 -5 -19 -16 -28 -36 -4 -8 -28 -32 -63
-65 -22 -20 -60 -61 -66 -70 -7 -11 -92 -99 -99 -103 -10 -5 -15 -4 -23 6 -5
5 -13 12 -18 15 -9 5 -33 30 -38 39 -3 5 -50 52 -55 55 -2 1 -7 7 -12 13 -13
17 -31 36 -43 44 -17 11 -26 20 -35 33 -5 7 -11 14 -17 17 -5 3 -14 11 -21 17
-7 7 -15 14 -22 17 -9 3 -16 10 -35 30 -34 35 -53 43 -67 29 -6 -5 -6 -5 -5
-185 2 -202 2 -201 -14 -230 -3 -7 -9 -20 -11 -29 -3 -9 -12 -37 -20 -61 -7
-24 -17 -54 -21 -67 -4 -13 -15 -47 -25 -76 -10 -30 -20 -63 -23 -73 -3 -13
-7 -23 -10 -27 -4 -4 -10 -14 -16 -21 -24 -32 -29 -39 -42 -59 -7 -11 -18 -26
-23 -33 -6 -7 -14 -20 -20 -28 -5 -8 -12 -18 -15 -22 -3 -3 -14 -19 -25 -35
-11 -16 -24 -34 -29 -41 -25 -34 -17 -42 63 -68 15 -5 33 -12 41 -15 8 -3 21
-8 30 -11 9 -3 19 -6 21 -8 7 -4 55 -21 65 -22 22 -4 36 12 28 31 -1 4 -3 16
-4 26 0 10 -2 22 -3 26 -1 4 -2 15 -2 25 0 11 -2 24 -4 34 -2 10 -4 23 -4 35
0 13 -1 20 -3 24 -2 5 -4 16 -5 33 -4 56 -6 74 -8 80 -5 13 -3 40 7 69 5 15 9
30 10 34 1 7 16 53 40 127 6 18 11 35 12 39 1 4 3 10 4 13 7 13 8 4 8 -100 -1
-100 -1 -100 4 -107 11 -17 25 -20 39 -8 4 3 12 9 17 13 6 3 23 20 38 36 16
17 30 31 32 33 2 2 16 16 32 31 16 16 32 31 36 34 5 3 12 10 17 16 28 35 73
83 78 83 0 0 6 6 12 13 70 85 73 86 116 42 17 -17 36 -35 42 -40 6 -4 24 -21
40 -38 16 -16 34 -33 41 -37 7 -5 31 -28 55 -51 24 -23 50 -48 58 -55 21 -19
43 -42 50 -52 13 -18 31 -24 42 -14 l7 5 -1 367 c0 207 -1 368 -2 371 -3 7
-17 10 -31 8z m-10 -103 c1 -1 1 -48 1 -105 -1 -162 -1 -264 0 -287 1 -28 -2
-148 -4 -152 -3 -5 -5 -5 -15 3 -14 12 -17 17 -18 41 -1 12 -3 26 -4 32 -2 9
-3 39 -3 152 0 128 0 141 -3 148 -3 6 -4 16 -5 66 l0 58 22 23 c23 23 26 25
29 21z m-654 -28 c20 -18 20 -19 22 -45 0 -13 2 -27 3 -31 2 -5 3 -50 4 -169
1 -126 2 -164 4 -170 4 -12 2 -100 -2 -108 -12 -21 -47 -46 -49 -34 -2 9 0
562 2 565 2 4 4 3 16 -8z m80 -68 c5 -4 12 -8 15 -9 17 -3 32 -28 32 -51 0 -8
1 -18 3 -23 5 -13 7 -31 9 -67 1 -23 3 -35 5 -40 2 -6 3 -15 3 -36 0 -18 1
-30 3 -36 2 -5 3 -22 4 -40 l1 -30 -19 -21 c-74 -78 -70 -86 -71 121 -1 118
-2 161 -4 166 -3 9 -3 65 0 70 3 6 9 5 19 -4z m488 -4 c4 -8 4 -21 5 -160 1
-138 1 -152 5 -158 9 -21 3 -65 -8 -63 -14 2 -15 3 -23 17 -8 14 -19 26 -29
31 -72 36 -69 237 4 309 40 39 41 39 46 24z m-379 -101 c5 -5 13 -11 18 -14
12 -8 69 -64 72 -71 3 -10 -3 -17 -43 -57 -50 -49 -50 -49 -52 9 0 16 -2 34
-4 40 -2 7 -3 20 -3 39 0 21 -1 30 -3 36 -9 22 -1 33 15 18z m248 -76 c-1 -87
0 -86 -37 -49 -37 37 -36 47 5 87 36 34 33 38 32 -38z m-614 -485 c0 -3 1 -10
3 -15 5 -18 -1 -22 -18 -12 -14 8 -14 14 2 30 9 10 13 9 13 -3z m-15 -53 c23
-11 27 -18 27 -45 0 -26 -1 -26 -45 -4 -44 22 -44 22 -17 54 6 6 17 5 35 -5z
m-18 -72 c52 -25 53 -26 53 -43 0 -21 -10 -21 -46 -3 -7 4 -17 8 -21 9 -4 1
-15 6 -23 10 -8 4 -17 8 -20 9 -14 3 -18 10 -11 22 12 24 11 24 68 -4z m-75
-35 c4 -2 12 -5 18 -7 6 -2 18 -7 26 -11 8 -4 18 -8 21 -9 3 -1 14 -5 23 -10
10 -5 21 -10 26 -11 9 -2 21 -12 20 -17 -2 -7 -7 -8 -17 -4 -6 2 -17 6 -25 8
-8 3 -21 8 -29 11 -8 4 -21 9 -30 11 -9 3 -21 8 -27 11 -6 3 -14 6 -17 7 -15
3 -18 10 -11 20 5 6 11 6 22 1z"/>
</g>
</svg>
