<?xml version="1.0" standalone="no"?>
<!DOCTYPE svg PUBLIC "-//W3C//DTD SVG 20010904//EN"
 "http://www.w3.org/TR/2001/REC-SVG-20010904/DTD/svg10.dtd">
<svg version="1.0" xmlns="http://www.w3.org/2000/svg"
 width="140.000000pt" height="148.000000pt" viewBox="0 0 140.000000 148.000000"
 preserveAspectRatio="xMidYMid meet">
<metadata>
Created by potrace 1.16, written by Peter Selinger 2001-2019
</metadata>
<g transform="translate(0.000000,148.000000) scale(0.100000,-0.100000)"
fill="#000000" stroke="none">
<path d="M1245 1384 c-82 -90 -207 -224 -292 -313 l-70 -74 -150 149 c-174
173 -291 276 -307 271 -8 -2 -13 -80 -16 -253 -5 -237 -7 -252 -32 -319 -14
-38 -48 -137 -74 -220 -41 -130 -56 -161 -108 -235 -143 -203 -167 -241 -164
-257 2 -10 31 -26 78 -44 41 -15 106 -39 144 -53 80 -29 100 -23 91 28 -3 17
-7 58 -10 92 -2 33 -12 113 -20 179 -9 65 -13 126 -9 134 3 9 25 83 49 165 24
82 47 151 50 154 3 3 5 -60 5 -140 0 -174 7 -188 67 -140 21 17 79 73 128 124
50 52 132 137 184 191 l94 97 66 -62 c36 -35 106 -101 156 -148 49 -47 118
-113 153 -147 39 -39 68 -60 77 -56 13 4 15 72 15 474 l0 469 -22 0 c-15 -1
-44 -24 -83 -66z m52 -401 c-1 -222 -6 -348 -12 -350 -6 -2 -16 7 -24 19 -11
18 -16 94 -23 322 l-8 300 27 28 c15 15 30 28 35 28 4 0 6 -156 5 -347z m-783
204 c3 -45 7 -187 10 -315 l4 -234 -30 -34 c-17 -19 -34 -31 -39 -28 -5 3 -7
155 -4 367 3 199 5 363 5 366 0 2 11 -6 24 -18 21 -20 25 -35 30 -104z m120
-25 c8 -28 18 -99 21 -150 1 -26 6 -90 10 -142 l7 -95 -46 -45 c-29 -27 -49
-40 -55 -35 -7 8 -18 484 -12 517 2 13 70 -33 75 -50z m557 31 c1 -10 2 -99 3
-198 1 -99 6 -201 10 -226 5 -30 5 -49 -2 -53 -6 -3 -38 21 -71 53 l-61 60 0
135 0 136 38 42 c20 24 42 48 47 55 15 18 35 16 36 -4z m-422 -166 c34 -32 61
-64 61 -71 0 -16 -106 -120 -113 -109 -2 4 -7 46 -11 93 -4 47 -10 100 -13
119 -7 43 1 40 76 -32z m261 -57 c0 -63 -4 -90 -12 -90 -19 0 -78 62 -78 82 0
19 66 98 81 98 5 0 9 -40 9 -90z m-764 -615 c8 -33 1 -40 -25 -25 -17 9 -19
15 -11 30 15 27 28 25 36 -5z m4 -75 c15 -28 12 -60 -5 -60 -12 0 -81 33 -94
46 -2 2 4 15 13 28 14 22 19 24 46 14 17 -5 35 -18 40 -28z m-53 -67 c63 -31
73 -39 73 -66 0 -22 -13 -19 -108 24 -59 26 -62 29 -50 49 16 25 16 25 85 -7z
m-27 -71 c104 -46 114 -52 103 -63 -7 -7 -182 52 -202 67 -4 3 6 34 12 34 1 0
41 -17 87 -38z"/>
</g>
</svg>
