<?xml version="1.0" standalone="no"?>
<!DOCTYPE svg PUBLIC "-//W3C//DTD SVG 20010904//EN"
 "http://www.w3.org/TR/2001/REC-SVG-20010904/DTD/svg10.dtd">
<svg version="1.0" xmlns="http://www.w3.org/2000/svg"
 width="99.000000pt" height="100.000000pt" viewBox="0 0 99.000000 100.000000"
 preserveAspectRatio="xMidYMid meet">
<metadata>
Created by potrace 1.16, written by Peter Selinger 2001-2019
</metadata>
<g transform="translate(0.000000,100.000000) scale(0.100000,-0.100000)"
fill="#000000" stroke="none">
<path d="M611 947 c-8 -11 -10 -39 -5 -96 7 -78 -1 -111 -27 -111 -4 0 -31 45
-60 99 -49 95 -69 118 -90 105 -19 -11 -7 -46 46 -134 30 -50 55 -96 55 -103
0 -7 -43 -55 -95 -107 l-94 -94 -23 19 c-13 11 -75 70 -140 132 -72 71 -124
113 -137 113 -21 0 -21 -2 -21 -311 0 -301 1 -310 19 -307 11 2 83 63 160 136
l141 134 27 -20 c16 -11 57 -50 92 -86 74 -75 74 -65 -4 -175 -48 -68 -57
-101 -27 -101 24 0 40 19 88 103 40 70 69 87 79 44 3 -12 6 -56 7 -97 3 -67 5
-75 23 -75 18 0 20 8 23 85 5 142 32 146 97 15 35 -71 52 -95 66 -95 37 0 31
29 -25 127 l-57 98 44 40 c24 22 76 68 115 103 40 35 72 69 72 76 0 8 -44 53
-97 102 -54 48 -106 95 -117 105 -18 17 -17 20 38 102 78 119 84 134 63 154
-22 23 -30 14 -92 -100 -37 -68 -56 -92 -70 -92 -18 0 -20 9 -25 110 -4 90 -8
110 -21 113 -9 1 -21 -4 -28 -11z m150 -364 c65 -60 119 -113 119 -119 0 -7
-15 -23 -32 -37 -18 -13 -71 -59 -118 -101 -47 -42 -92 -76 -101 -76 -16 0
-230 191 -238 212 -4 13 220 228 237 228 8 0 67 -48 133 -107z m-582 -5 c58
-56 107 -105 109 -109 4 -10 -219 -226 -226 -219 -4 4 -7 413 -3 428 3 9 26
-10 120 -100z"/>
</g>
</svg>
