<?xml version="1.0" standalone="no"?>
<!DOCTYPE svg PUBLIC "-//W3C//DTD SVG 20010904//EN"
 "http://www.w3.org/TR/2001/REC-SVG-20010904/DTD/svg10.dtd">
<svg version="1.0" xmlns="http://www.w3.org/2000/svg"
 width="860.000000pt" height="872.000000pt" viewBox="0 0 860.000000 872.000000"
 preserveAspectRatio="xMidYMid meet">
<metadata>
Created by potrace 1.16, written by Peter Selinger 2001-2019
</metadata>
<g transform="translate(0.000000,872.000000) scale(0.500000,-0.500000)"
fill="#000000" stroke="none">
<path d="M1070 1651 c-4 -5 -4 -5 -2 -152 3 -167 2 -173 -16 -173 -4 0 -14
-11 -19 -20 -5 -11 -25 -30 -31 -30 -6 0 -11 8 -55 91 -57 107 -84 156 -92
167 -4 5 -18 30 -32 55 -34 62 -34 61 -63 46 -28 -16 -33 -22 -24 -39 5 -11
66 -110 71 -117 3 -3 25 -42 51 -86 25 -44 56 -98 69 -120 25 -43 27 -49 18
-54 -10 -6 -17 -14 -21 -21 -5 -10 -98 -99 -110 -106 -7 -4 -34 -30 -97 -94
-112 -114 -122 -124 -125 -124 -2 0 -13 10 -24 21 -67 69 -80 82 -88 86 -6 3
-28 24 -63 59 -30 30 -58 57 -62 60 -6 4 -8 7 -10 14 -3 8 -4 10 -10 12 -13 5
-16 7 -18 15 -1 6 -4 9 -9 12 -12 7 -34 29 -38 38 -4 10 -9 14 -24 18 -9 3
-10 4 -12 12 -3 11 -7 14 -17 16 -7 1 -11 4 -46 40 -25 26 -41 40 -46 42 -4 2
-13 8 -20 15 -15 14 -61 20 -72 9 -2 -2 -2 -97 -2 -469 0 -415 0 -468 -3 -476
-2 -8 -2 -11 0 -21 2 -9 2 -11 -1 -17 -6 -11 -6 -25 -1 -38 3 -7 4 -15 4 -25
0 -12 1 -16 4 -18 8 -8 11 -11 15 -16 5 -8 14 -7 25 2 4 4 12 7 16 8 12 2 13
3 101 92 59 60 89 88 95 91 5 3 10 7 12 11 6 11 18 22 28 25 13 3 15 4 19 16
3 7 6 11 10 14 6 3 140 137 205 206 34 35 28 36 73 -10 25 -25 41 -40 47 -43
6 -3 27 -23 66 -63 42 -43 59 -60 67 -63 9 -5 107 -98 115 -108 5 -9 -65 -117
-176 -271 -44 -61 -43 -59 -12 -79 22 -15 26 -17 34 -12 9 7 111 161 159 241
48 80 46 79 92 33 l25 -24 2 -20 c2 -15 2 -48 0 -140 -2 -151 -5 -138 33 -138
38 0 35 -13 33 142 -3 136 -3 133 9 140 5 4 7 7 9 14 3 11 6 15 42 46 33 28
29 30 60 -30 50 -99 97 -189 107 -207 6 -10 19 -36 30 -56 26 -50 26 -50 56
-35 28 14 32 20 23 38 -6 12 -58 106 -60 108 -1 1 -15 27 -32 58 -17 31 -46
83 -64 117 -39 69 -40 70 -35 77 1 2 29 26 60 53 60 51 95 81 188 162 30 26
71 61 91 79 50 43 55 48 63 64 11 21 13 17 -40 65 -20 18 -74 68 -121 111
-108 99 -147 135 -200 182 -24 21 -43 39 -43 42 -2 6 2 13 43 77 122 190 134
211 170 280 19 37 19 40 -13 55 -33 16 -32 16 -62 -43 -14 -30 -38 -73 -78
-138 -31 -52 -68 -114 -81 -137 -14 -23 -27 -43 -29 -44 -8 -5 -63 44 -67 61
-1 6 -4 14 -7 18 -6 8 -6 8 -3 162 3 184 7 164 -33 164 -25 0 -26 0 -31 -5z
m58 -439 c36 -39 193 -186 364 -340 75 -68 72 -56 22 -99 -128 -109 -256 -221
-342 -298 -20 -18 -39 -34 -42 -34 -3 -1 -10 -4 -16 -7 -27 -13 -38 -8 -90 41
-11 11 -24 22 -29 24 -4 2 -11 8 -16 14 -47 50 -95 99 -105 104 -8 4 -26 20
-71 64 -41 41 -63 61 -68 63 -10 4 -70 60 -72 66 -3 8 2 14 38 49 21 20 65 63
99 96 45 45 63 61 71 66 9 5 23 18 65 61 117 121 126 130 144 130 3 0 10 2 16
5 17 8 21 7 32 -5z m-998 -25 c13 -12 27 -24 31 -27 5 -2 21 -17 41 -38 65
-69 81 -84 94 -92 10 -6 27 -22 65 -60 35 -35 55 -54 60 -56 9 -4 96 -86 100
-94 4 -8 1 -11 -55 -65 -30 -29 -79 -77 -108 -106 -40 -41 -56 -55 -65 -59 -9
-6 -22 -18 -66 -64 -126 -132 -127 -133 -131 -117 -1 3 -1 68 0 144 2 94 2
210 1 362 -2 285 -2 287 -1 292 4 7 10 3 34 -20z"/>
</g>
</svg>
