<?xml version="1.0" standalone="no"?>
<!DOCTYPE svg PUBLIC "-//W3C//DTD SVG 20010904//EN"
 "http://www.w3.org/TR/2001/REC-SVG-20010904/DTD/svg10.dtd">
<svg version="1.0" xmlns="http://www.w3.org/2000/svg"
 width="116.000000pt" height="148.000000pt" viewBox="0 0 116.000000 148.000000"
 preserveAspectRatio="xMidYMid meet">
<metadata>
Created by potrace 1.16, written by Peter Selinger 2001-2019
</metadata>
<g transform="translate(0.000000,148.000000) scale(0.100000,-0.100000)"
fill="#000000" stroke="none">
<path d="M49 1263 c0 -93 1 -312 2 -488 1 -176 3 -410 3 -520 1 -267 0 -267
161 -23 66 100 135 197 153 216 17 19 32 41 32 49 0 8 19 42 43 77 23 35 47
71 53 81 13 23 44 14 44 -13 0 -10 16 -34 36 -53 37 -36 144 -190 144 -208 0
-6 9 -15 19 -21 11 -5 23 -20 26 -32 4 -13 29 -48 54 -78 26 -30 56 -67 65
-82 30 -46 47 -35 111 65 33 50 70 100 82 110 41 33 23 127 -24 127 -8 0 -67
-71 -139 -168 -8 -12 -21 1 -62 64 -88 135 -211 307 -247 348 -40 45 -42 52
-16 80 10 12 85 120 166 241 81 121 148 221 150 223 5 5 79 -97 99 -135 9 -19
24 -33 34 -33 20 1 72 65 72 89 0 9 -25 45 -56 80 -31 36 -74 89 -95 118 -51
69 -70 69 -104 3 -10 -19 -64 -102 -120 -185 -57 -82 -125 -189 -153 -236 -59
-100 -78 -120 -88 -93 -4 11 -25 44 -46 74 -126 178 -234 334 -276 397 -44 67
-74 93 -107 93 -13 0 -15 -28 -16 -167z m123 -86 c15 -23 45 -68 68 -100 22
-32 40 -61 40 -64 0 -3 24 -36 53 -72 80 -100 117 -153 117 -171 0 -8 -23 -47
-51 -85 -28 -39 -54 -79 -59 -90 -7 -18 -154 -245 -195 -303 -19 -26 -39 -19
-31 12 3 12 6 223 7 469 0 331 4 447 12 447 7 0 24 -20 39 -43z"/>
</g>
</svg>
