<?xml version="1.0" standalone="no"?>
<!DOCTYPE svg PUBLIC "-//W3C//DTD SVG 20010904//EN"
 "http://www.w3.org/TR/2001/REC-SVG-20010904/DTD/svg10.dtd">
<svg version="1.0" xmlns="http://www.w3.org/2000/svg"
 width="460.000000pt" height="590.000000pt" viewBox="0 0 460.000000 590.000000"
 preserveAspectRatio="xMidYMid meet">
<metadata>
Created by potrace 1.16, written by Peter Selinger 2001-2019
</metadata>
<g transform="translate(0.000000,590.000000) scale(0.500000,-0.500000)"
fill="#000000" stroke="none">
<path d="M711 1141 c-10 -4 -22 -17 -25 -26 -1 -5 -16 -30 -33 -55 -130 -193
-167 -250 -172 -262 -8 -19 -64 -105 -70 -107 -5 -2 -7 1 -24 27 -9 12 -21 29
-28 36 -7 7 -16 20 -22 29 -10 16 -61 94 -104 157 -13 19 -26 38 -29 41 -3 3
-7 9 -10 13 -3 4 -9 11 -13 16 -8 9 -16 20 -59 86 -23 35 -33 43 -62 45 -20 2
-19 12 -18 -128 0 -103 0 -122 -3 -131 -4 -14 -4 -27 0 -43 2 -9 3 -32 2 -126
-1 -103 -1 -115 2 -129 3 -14 3 -36 3 -274 0 -143 0 -261 1 -262 4 -7 29 -6
36 1 3 4 31 47 51 78 7 11 24 37 38 57 14 20 32 47 40 59 48 72 71 105 76 109
3 3 9 7 12 10 8 6 17 23 19 34 1 10 46 82 57 91 3 2 7 9 9 15 18 40 35 45 43
13 4 -14 7 -20 20 -33 38 -35 55 -55 57 -64 1 -3 4 -9 8 -14 4 -4 8 -11 10
-15 2 -4 6 -10 10 -15 3 -4 8 -11 11 -15 2 -4 6 -10 9 -13 2 -2 6 -7 7 -11 2
-3 4 -8 6 -11 2 -3 5 -10 7 -16 3 -9 5 -12 13 -16 11 -6 22 -24 26 -42 2 -10
3 -13 9 -17 12 -10 15 -13 30 -32 8 -10 19 -23 25 -30 13 -15 21 -25 30 -38
17 -25 44 -26 55 -1 2 5 6 12 9 15 3 4 8 11 10 16 2 5 7 12 10 16 3 4 7 10 8
14 1 4 5 11 9 16 13 15 23 29 28 40 5 10 20 27 33 35 9 5 9 6 11 22 6 53 -37
93 -62 57 -3 -5 -10 -14 -14 -20 -5 -5 -13 -15 -17 -22 -10 -14 -27 -33 -41
-48 -6 -5 -13 -13 -16 -17 -11 -16 -9 -17 -78 90 -5 8 -16 21 -23 29 -8 8 -22
27 -33 45 -11 17 -27 40 -35 52 -8 11 -25 35 -37 53 -12 18 -27 37 -34 44 -31
31 -33 41 -14 69 9 13 23 34 31 46 9 13 21 31 28 40 13 17 136 203 157 235 31
50 31 50 57 12 7 -11 17 -24 22 -30 5 -5 16 -21 24 -35 25 -41 43 -48 56 -22
2 4 8 12 13 17 23 26 28 54 11 70 -4 3 -10 11 -14 18 -5 6 -10 12 -13 14 -3 2
-10 11 -17 20 -6 9 -13 17 -16 18 -2 2 -8 9 -12 15 -5 7 -13 18 -19 24 -6 6
-16 20 -23 31 -22 33 -31 38 -49 30z m-587 -184 c4 -5 10 -15 14 -21 3 -6 11
-16 17 -22 11 -12 61 -86 71 -106 3 -6 7 -12 9 -14 2 -2 7 -9 13 -16 5 -7 14
-18 20 -25 11 -11 26 -32 65 -91 30 -45 31 -47 13 -72 -37 -54 -71 -106 -75
-116 -3 -6 -29 -47 -59 -91 -29 -44 -64 -97 -78 -118 -18 -28 -26 -38 -29 -38
-6 0 -7 663 -2 684 2 10 3 18 2 32 -2 34 2 37 19 14z"/>
</g>
</svg>
