<?xml version="1.0" standalone="no"?>
<!DOCTYPE svg PUBLIC "-//W3C//DTD SVG 20010904//EN"
 "http://www.w3.org/TR/2001/REC-SVG-20010904/DTD/svg10.dtd">
<svg version="1.0" xmlns="http://www.w3.org/2000/svg"
 width="78.000000pt" height="100.000000pt" viewBox="0 0 78.000000 100.000000"
 preserveAspectRatio="xMidYMid meet">
<metadata>
Created by potrace 1.16, written by Peter Selinger 2001-2019
</metadata>
<g transform="translate(0.000000,100.000000) scale(0.100000,-0.100000)"
fill="#000000" stroke="none">
<path d="M36 961 c-3 -5 -4 -215 -1 -467 4 -390 7 -459 19 -459 15 0 169 221
241 346 22 38 44 69 50 69 11 -1 40 -40 130 -175 68 -103 133 -185 146 -185 5
0 26 26 45 58 20 31 45 67 56 78 13 15 18 33 16 55 -5 53 -30 48 -78 -15 -24
-31 -46 -56 -51 -56 -4 0 -36 42 -70 93 -34 50 -82 117 -106 148 -23 30 -43
58 -43 62 0 17 213 327 224 327 7 0 25 -22 40 -50 33 -61 43 -67 67 -44 34 34
27 58 -39 143 -35 45 -68 81 -73 81 -4 0 -13 -6 -19 -12 -17 -21 -196 -301
-214 -335 -9 -18 -22 -33 -30 -33 -7 0 -47 51 -89 113 -118 173 -157 231 -174
250 -17 18 -39 22 -47 8z m149 -266 c38 -55 79 -114 92 -131 12 -17 23 -36 23
-42 0 -6 -24 -47 -52 -91 -29 -44 -74 -114 -100 -155 -26 -42 -51 -76 -55 -76
-7 0 -11 542 -5 605 2 17 4 17 16 5 7 -8 44 -60 81 -115z"/>
</g>
</svg>
