<?xml version="1.0" standalone="no"?>
<!DOCTYPE svg PUBLIC "-//W3C//DTD SVG 20010904//EN"
 "http://www.w3.org/TR/2001/REC-SVG-20010904/DTD/svg10.dtd">
<svg version="1.0" xmlns="http://www.w3.org/2000/svg"
 width="460.000000pt" height="590.000000pt" viewBox="0 0 460.000000 590.000000"
 preserveAspectRatio="xMidYMid meet">
<metadata>
Created by potrace 1.16, written by Peter Selinger 2001-2019
</metadata>
<g transform="translate(0.000000,590.000000) scale(0.500000,-0.500000)"
fill="#000000" stroke="none">
<path d="M187 1143 c-7 -2 -13 -9 -29 -33 -9 -13 -19 -26 -23 -30 -4 -4 -11
-13 -16 -20 -5 -7 -11 -16 -15 -19 -4 -3 -11 -12 -17 -20 -6 -8 -13 -16 -15
-17 -2 -1 -7 -7 -11 -12 -4 -6 -11 -15 -15 -19 -19 -20 -16 -44 9 -72 5 -5 11
-13 13 -17 4 -8 13 -14 20 -14 12 0 15 4 34 34 10 16 21 32 25 36 4 4 10 12
14 18 34 52 33 52 58 14 56 -86 159 -241 167 -251 5 -7 15 -21 23 -32 7 -11
21 -32 31 -47 10 -14 18 -28 18 -30 0 -6 -17 -31 -29 -43 -7 -7 -22 -27 -36
-47 -13 -19 -29 -42 -36 -51 -6 -9 -21 -32 -33 -49 -11 -18 -27 -39 -34 -47
-8 -8 -25 -32 -43 -60 -48 -74 -47 -74 -59 -58 -4 4 -11 13 -17 18 -15 16 -32
35 -39 46 -4 6 -10 14 -14 18 -5 5 -11 14 -15 20 -26 40 -70 3 -64 -54 2 -15
2 -16 11 -21 13 -9 28 -25 34 -37 6 -12 13 -23 27 -38 4 -5 8 -12 10 -17 2 -5
6 -12 9 -15 3 -4 7 -10 9 -15 2 -4 6 -10 9 -14 3 -5 8 -12 10 -17 10 -23 36
-23 53 1 17 23 21 27 31 39 6 7 17 20 25 30 16 20 20 24 29 31 6 5 8 8 11 20
4 18 14 34 25 40 8 4 10 7 13 16 6 15 16 34 21 39 2 2 6 8 8 12 3 4 8 11 11
15 4 5 8 11 10 15 2 4 6 11 10 15 4 5 7 11 8 14 2 9 23 33 56 63 13 12 17 19
21 34 8 31 26 26 42 -12 2 -6 7 -13 10 -16 18 -19 58 -85 58 -95 0 -9 13 -28
25 -36 8 -6 16 -16 55 -75 26 -37 51 -74 56 -82 21 -31 44 -67 68 -103 30 -47
32 -49 42 -52 9 -2 23 0 25 4 1 1 1 119 1 262 0 238 0 260 3 274 3 14 3 26 2
129 -1 95 0 116 2 126 4 16 4 28 0 42 -3 11 -3 27 -3 132 1 140 2 130 -18 128
-31 -2 -38 -8 -70 -56 -13 -21 -29 -44 -34 -52 -5 -8 -14 -20 -20 -27 -7 -7
-12 -13 -12 -14 0 -1 -3 -6 -7 -10 -4 -5 -17 -22 -28 -39 -11 -16 -35 -52 -54
-80 -18 -27 -40 -60 -48 -73 -8 -12 -20 -29 -26 -36 -7 -8 -20 -25 -29 -38
-17 -25 -20 -28 -25 -24 -7 6 -62 91 -68 105 -5 13 -44 72 -164 251 -21 32
-40 62 -41 67 -6 18 -28 32 -45 28z m625 -178 c1 -3 2 -14 1 -24 -1 -14 -1
-21 2 -29 3 -13 4 -679 1 -684 -3 -4 -12 7 -29 32 -7 10 -21 33 -32 49 -11 17
-24 36 -28 43 -30 42 -76 114 -80 123 -4 9 -39 63 -75 115 -16 23 -16 32 4 60
5 6 20 29 35 51 15 22 33 45 39 52 6 7 15 18 20 25 5 7 11 15 14 17 2 2 6 8 9
14 7 16 59 93 70 105 6 6 16 19 22 29 18 29 24 34 27 22z"/>
</g>
</svg>
