<?xml version="1.0" standalone="no"?>
<!DOCTYPE svg PUBLIC "-//W3C//DTD SVG 20010904//EN"
 "http://www.w3.org/TR/2001/REC-SVG-20010904/DTD/svg10.dtd">
<svg version="1.0" xmlns="http://www.w3.org/2000/svg"
 width="78.000000pt" height="100.000000pt" viewBox="0 0 78.000000 100.000000"
 preserveAspectRatio="xMidYMid meet">
<metadata>
Created by potrace 1.16, written by Peter Selinger 2001-2019
</metadata>
<g transform="translate(0.000000,100.000000) scale(0.100000,-0.100000)"
fill="#000000" stroke="none">
<path d="M129 938 c-13 -18 -40 -53 -61 -77 -21 -24 -38 -54 -38 -66 0 -18 32
-65 46 -65 2 0 20 25 39 55 20 30 42 55 49 55 8 0 26 -21 42 -47 15 -27 60
-96 100 -156 41 -59 74 -116 74 -126 0 -10 -8 -25 -18 -34 -9 -9 -44 -55 -77
-102 -33 -48 -73 -105 -89 -128 l-29 -41 -52 60 c-46 51 -54 57 -69 45 -24
-20 -19 -54 15 -97 17 -22 42 -58 56 -81 26 -44 31 -48 48 -35 17 12 79 93
120 157 63 96 137 195 145 195 5 0 23 -25 40 -55 64 -111 237 -360 253 -363
16 -3 17 34 17 468 l0 471 -22 -3 c-23 -3 -35 -19 -199 -260 -44 -65 -85 -118
-92 -118 -6 0 -24 21 -39 48 -67 117 -207 327 -221 330 -8 2 -25 -12 -38 -30z
m559 -436 c1 -184 -1 -302 -7 -302 -5 0 -26 28 -47 62 -21 35 -67 107 -102
161 l-65 98 31 42 c18 23 62 88 99 144 38 57 73 101 78 99 6 -2 11 -114 13
-304z"/>
</g>
</svg>
