<?xml version="1.0" standalone="no"?>
<!DOCTYPE svg PUBLIC "-//W3C//DTD SVG 20010904//EN"
 "http://www.w3.org/TR/2001/REC-SVG-20010904/DTD/svg10.dtd">
<svg version="1.0" xmlns="http://www.w3.org/2000/svg"
 width="116.000000pt" height="148.000000pt" viewBox="0 0 116.000000 148.000000"
 preserveAspectRatio="xMidYMid meet">
<metadata>
Created by potrace 1.16, written by Peter Selinger 2001-2019
</metadata>
<g transform="translate(0.000000,148.000000) scale(0.100000,-0.100000)"
fill="#000000" stroke="none">
<path d="M185 1373 c-22 -32 -61 -80 -88 -107 -62 -67 -66 -86 -32 -136 30
-43 61 -52 73 -22 11 30 96 152 104 149 4 -1 65 -90 136 -197 71 -107 145
-216 166 -243 20 -26 36 -51 36 -56 0 -4 -12 -21 -27 -37 -32 -34 -158 -210
-241 -336 -31 -48 -61 -87 -67 -87 -5 0 -37 35 -70 79 -33 43 -66 82 -74 85
-24 10 -51 -25 -51 -66 0 -27 6 -42 23 -56 13 -10 26 -23 28 -28 2 -6 20 -35
40 -65 20 -30 43 -67 53 -82 19 -32 40 -36 60 -10 8 9 38 46 68 82 29 36 60
77 68 92 39 69 152 227 184 257 20 20 36 45 36 57 0 31 16 38 35 17 32 -36
105 -153 105 -168 0 -8 17 -34 39 -58 21 -23 89 -118 151 -212 157 -238 152
-241 155 90 4 386 6 748 6 943 -1 143 -3 172 -16 172 -30 0 -63 -23 -83 -59
-12 -21 -51 -78 -88 -127 -60 -80 -201 -282 -247 -355 -31 -48 -37 -42 -113
93 -59 106 -299 448 -313 448 -9 -1 -34 -26 -56 -57z m844 -630 c2 -404 0
-474 -12 -465 -7 7 -58 80 -112 164 -53 84 -122 190 -151 234 -30 45 -54 88
-54 96 0 8 30 55 67 104 74 99 175 245 211 305 49 82 50 77 51 -438z"/>
</g>
</svg>
