<?xml version="1.0" standalone="no"?>
<!DOCTYPE svg PUBLIC "-//W3C//DTD SVG 20010904//EN"
 "http://www.w3.org/TR/2001/REC-SVG-20010904/DTD/svg10.dtd">
<svg version="1.0" xmlns="http://www.w3.org/2000/svg"
 width="908.000000pt" height="590.000000pt" viewBox="0 0 908.000000 590.000000"
 preserveAspectRatio="xMidYMid meet">
<metadata>
Created by potrace 1.16, written by Peter Selinger 2001-2019
</metadata>
<g transform="translate(0.000000,590.000000) scale(0.500000,-0.500000)"
fill="#000000" stroke="none">
<path d="M149 1062 c-9 -5 -9 -8 -7 -72 3 -98 1 -300 -4 -312 -5 -12 -7 -433
-2 -442 1 -2 3 -8 4 -14 3 -12 5 -14 27 -22 45 -15 69 -6 87 33 4 10 12 22 18
29 6 7 12 16 14 20 2 4 7 11 11 16 4 4 7 10 7 11 0 1 3 7 8 12 4 6 11 18 16
27 6 12 12 21 22 31 10 10 17 19 23 32 5 10 12 21 14 24 3 3 8 12 12 20 4 9 9
19 13 23 3 4 7 10 9 14 2 3 6 10 10 15 4 5 7 12 8 16 4 21 14 15 35 -20 3 -5
7 -11 10 -15 3 -4 7 -10 9 -14 2 -4 5 -9 7 -11 2 -2 7 -9 10 -15 11 -18 18
-30 28 -42 4 -6 8 -12 8 -13 0 -1 3 -6 7 -11 4 -4 11 -16 16 -26 5 -9 12 -21
16 -26 4 -5 7 -10 7 -11 0 -1 4 -7 9 -13 4 -6 9 -13 10 -15 0 -3 5 -10 10 -16
5 -6 9 -13 9 -14 0 -1 3 -7 8 -12 4 -6 8 -13 10 -17 1 -3 5 -10 9 -14 3 -4 8
-10 9 -14 10 -17 63 -14 72 4 2 4 12 17 22 27 10 10 19 21 21 24 1 3 6 9 11
13 4 3 8 7 8 9 0 1 5 9 12 16 17 19 21 35 12 52 -2 4 -4 10 -4 13 0 29 -29 55
-42 39 -5 -7 -19 -29 -24 -38 -2 -4 -7 -9 -12 -12 -8 -5 -9 -8 -11 -16 -7 -25
-23 -33 -31 -16 -3 4 -7 11 -10 15 -3 3 -8 10 -11 16 -3 5 -6 10 -8 12 -2 1
-5 6 -7 11 -3 4 -7 12 -11 16 -4 4 -10 15 -14 23 -4 8 -10 19 -14 23 -3 4 -9
12 -12 17 -2 5 -6 11 -8 12 -2 2 -5 6 -7 10 -2 4 -8 12 -12 17 -4 5 -8 10 -8
12 0 1 -4 7 -9 13 -5 6 -9 12 -9 14 0 1 -3 6 -8 11 -4 4 -9 11 -11 15 -2 4 -7
11 -11 16 -4 5 -8 11 -9 14 -1 2 -4 7 -7 11 -11 13 -11 13 5 46 9 17 17 32 20
35 2 3 8 10 11 16 5 7 10 13 15 15 9 4 13 10 13 18 0 10 3 17 14 28 5 5 14 18
19 28 5 10 12 21 15 25 3 3 7 9 9 12 2 3 6 8 11 10 16 8 26 23 26 38 0 9 10
31 16 37 9 8 16 -1 39 -51 3 -7 8 -16 11 -20 3 -4 7 -11 10 -17 14 -28 41 -22
59 14 13 25 14 31 4 42 -4 5 -13 20 -20 35 -8 17 -17 30 -23 37 -10 11 -11 13
-13 30 0 6 -2 12 -6 17 -3 5 -8 12 -11 17 -17 27 -47 24 -63 -7 -3 -5 -7 -12
-10 -16 -3 -4 -7 -10 -9 -14 -3 -4 -6 -6 -12 -8 -12 -3 -14 -5 -15 -20 -1 -11
-2 -13 -8 -17 -4 -3 -9 -8 -10 -12 -2 -3 -6 -9 -9 -13 -4 -3 -8 -10 -10 -13
-1 -4 -4 -7 -6 -8 -9 -3 -18 -14 -26 -30 -4 -10 -12 -22 -16 -27 -4 -6 -8 -12
-8 -13 0 -1 -3 -6 -7 -11 -4 -5 -9 -13 -12 -18 -3 -5 -6 -10 -7 -11 -1 -1 -7
-10 -12 -21 -18 -35 -32 -50 -44 -50 -6 0 -9 3 -25 28 -11 17 -17 26 -30 45
-4 6 -13 22 -21 38 -8 15 -17 31 -21 36 -4 4 -7 8 -7 9 0 4 -21 46 -28 54 -5
7 -38 69 -38 73 0 1 -3 5 -7 10 -3 4 -9 13 -12 19 -6 10 -23 26 -29 26 -1 0
-8 5 -15 12 -18 17 -54 23 -72 12z m78 -185 c4 -6 10 -15 13 -19 3 -3 6 -7 6
-9 0 -2 3 -6 7 -10 3 -5 8 -12 11 -16 2 -5 7 -12 10 -15 3 -4 7 -11 10 -15 2
-5 5 -9 7 -11 2 -1 6 -7 8 -12 3 -5 9 -14 13 -19 5 -6 8 -11 8 -12 0 -1 3 -6
7 -10 3 -4 8 -11 10 -15 2 -4 7 -11 10 -16 8 -11 19 -27 24 -35 2 -3 7 -9 10
-14 16 -20 22 -36 18 -46 -3 -6 -5 -13 -6 -17 -1 -4 -4 -10 -8 -15 -3 -4 -8
-11 -10 -14 -2 -4 -6 -10 -9 -13 -3 -4 -9 -14 -14 -23 -5 -9 -12 -20 -16 -25
-4 -6 -10 -14 -13 -19 -16 -25 -19 -29 -23 -35 -3 -3 -9 -13 -14 -22 -5 -10
-11 -20 -14 -23 -3 -3 -7 -9 -9 -13 -2 -4 -6 -11 -10 -15 -3 -4 -7 -10 -8 -13
-9 -20 -34 -32 -41 -20 -5 9 -2 272 2 282 5 9 5 9 4 138 -1 153 -1 152 17 121z"/>
<path d="M1561 1044 c-5 -3 -12 -8 -15 -12 -3 -4 -10 -9 -15 -12 -11 -5 -26
-20 -30 -30 -2 -4 -6 -10 -9 -13 -3 -4 -14 -23 -23 -42 -10 -20 -20 -40 -24
-44 -3 -4 -12 -20 -19 -34 -7 -14 -14 -28 -17 -31 -3 -3 -11 -17 -18 -31 -7
-14 -15 -29 -17 -32 -3 -3 -7 -9 -9 -13 -2 -4 -6 -11 -9 -15 -4 -4 -11 -16
-17 -25 -16 -25 -19 -28 -25 -28 -12 0 -26 15 -43 49 -5 10 -12 21 -14 24 -3
3 -7 10 -10 15 -3 5 -6 10 -8 12 -2 1 -5 6 -7 11 -3 4 -7 12 -11 16 -3 4 -9
14 -13 22 -10 20 -13 25 -22 29 -5 2 -9 7 -11 11 -2 3 -6 9 -10 13 -3 4 -7 10
-8 13 -2 4 -6 9 -10 12 -6 4 -7 6 -7 13 0 14 -4 22 -15 24 -6 2 -10 4 -11 7
-2 2 -6 9 -10 14 -4 6 -9 13 -11 17 -4 9 -21 26 -26 26 -13 1 -30 -9 -37 -20
-3 -5 -7 -12 -11 -16 -4 -6 -6 -10 -6 -20 -2 -14 -4 -18 -15 -31 -4 -4 -13
-19 -20 -33 -7 -13 -16 -29 -20 -34 -15 -19 1 -59 28 -71 22 -10 28 -4 63 66
19 39 21 41 28 37 7 -3 19 -27 19 -38 0 -14 16 -37 29 -41 2 0 6 -4 8 -7 2 -4
6 -10 9 -14 3 -3 10 -13 14 -22 4 -9 13 -21 19 -28 10 -10 11 -13 13 -23 3
-17 3 -18 13 -23 7 -4 11 -8 16 -15 3 -5 8 -13 11 -16 22 -23 38 -68 28 -80
-4 -6 -9 -14 -12 -18 -2 -4 -6 -10 -8 -12 -2 -2 -6 -8 -8 -12 -3 -4 -8 -12
-12 -17 -5 -5 -8 -10 -8 -11 0 -1 -3 -6 -8 -11 -4 -5 -9 -13 -12 -17 -2 -4 -7
-12 -11 -16 -6 -9 -12 -17 -20 -31 -4 -4 -9 -13 -13 -18 -4 -5 -11 -16 -15
-24 -4 -8 -10 -19 -14 -23 -4 -4 -7 -10 -8 -12 -1 -3 -4 -9 -8 -13 -4 -5 -9
-12 -11 -17 -3 -4 -8 -12 -11 -16 -4 -4 -7 -9 -7 -10 0 -4 -9 -13 -12 -13 -6
0 -18 15 -20 25 -2 9 -3 12 -11 16 -4 4 -10 9 -12 12 -2 4 -7 11 -10 16 -3 5
-7 12 -9 15 -10 18 -18 19 -34 3 -11 -12 -11 -12 -13 -25 0 -8 -3 -18 -5 -22
-8 -19 -5 -33 11 -50 6 -6 12 -15 15 -19 2 -5 6 -9 9 -11 3 -1 6 -5 8 -8 2 -4
11 -15 21 -25 9 -10 19 -22 22 -27 7 -12 11 -14 38 -14 29 0 28 -1 52 38 11
18 18 30 26 40 3 5 8 12 9 16 2 4 6 10 9 14 4 4 8 10 10 14 2 4 6 11 9 15 4 4
10 15 14 23 4 8 10 19 14 23 4 4 8 11 10 15 2 4 6 11 10 15 4 4 8 11 10 15 2
4 6 10 9 13 3 4 7 11 11 16 3 6 7 13 10 16 5 9 14 23 22 35 23 37 31 41 37 19
1 -4 5 -12 9 -18 15 -21 26 -38 31 -50 3 -7 8 -15 11 -18 2 -3 8 -14 13 -23 6
-11 14 -22 23 -33 11 -11 17 -21 23 -33 5 -9 11 -20 14 -24 3 -3 7 -9 9 -14 2
-4 6 -10 9 -13 3 -3 7 -10 9 -14 2 -4 8 -13 14 -19 7 -7 13 -17 19 -29 18 -37
48 -50 81 -35 5 2 12 4 15 5 10 2 16 6 17 13 1 4 3 12 5 18 7 19 5 433 -2 445
-4 8 -4 8 -4 193 1 217 5 194 -34 194 -19 0 -24 -1 -31 -4z m-4 -172 c1 -3 1
-63 1 -134 -1 -129 -1 -129 4 -138 7 -16 6 -281 -2 -286 -10 -5 -28 6 -36 23
-3 4 -7 12 -11 16 -4 4 -8 11 -10 15 -2 4 -6 10 -9 13 -3 4 -9 14 -14 23 -5 9
-11 20 -14 24 -3 3 -8 9 -10 14 -2 4 -10 15 -17 25 -7 10 -17 26 -22 35 -5 9
-12 20 -15 24 -3 3 -7 9 -9 13 -2 3 -7 10 -10 14 -4 5 -7 11 -8 15 -1 4 -3 11
-5 16 -5 11 0 27 13 42 3 4 8 10 11 15 3 5 8 12 11 16 10 15 19 28 23 34 1 3
5 8 7 12 3 3 7 9 8 12 2 3 7 9 10 14 4 4 9 12 11 16 3 4 7 12 11 16 4 4 8 11
10 15 2 4 6 10 10 14 3 4 7 10 8 13 2 4 7 11 11 16 4 5 8 10 8 12 0 1 4 7 9
13 5 6 9 12 9 13 0 9 15 21 17 15z"/>
</g>
</svg>
