<?xml version="1.0" standalone="no"?>
<!DOCTYPE svg PUBLIC "-//W3C//DTD SVG 20010904//EN"
 "http://www.w3.org/TR/2001/REC-SVG-20010904/DTD/svg10.dtd">
<svg version="1.0" xmlns="http://www.w3.org/2000/svg"
 width="80.000000pt" height="88.000000pt" viewBox="0 0 80.000000 88.000000"
 preserveAspectRatio="xMidYMid meet">
<metadata>
Created by potrace 1.16, written by Peter Selinger 2001-2019
</metadata>
<g transform="translate(0.000000,88.000000) scale(0.100000,-0.100000)"
fill="#000000" stroke="none">
<path d="M727 836 c-3 -7 -9 -35 -13 -62 -9 -66 -24 -72 -49 -21 -30 62 -52
60 -111 -10 -27 -32 -69 -79 -93 -106 -25 -26 -62 -71 -84 -100 -21 -28 -43
-53 -47 -55 -5 -2 -38 34 -75 80 -36 46 -85 105 -108 131 -23 26 -55 68 -71
93 -33 51 -61 56 -60 11 0 -15 1 -187 2 -382 2 -433 -4 -417 114 -274 20 24
63 76 95 115 33 40 67 82 76 95 l16 24 43 -49 c47 -54 124 -150 190 -238 24
-31 49 -59 55 -62 19 -8 41 4 48 25 7 20 1 28 -187 253 -46 54 -87 104 -92
111 -7 9 -1 24 20 48 16 19 69 82 118 141 49 58 94 106 100 106 6 0 24 -29 40
-64 15 -36 34 -67 41 -70 20 -7 45 21 45 49 0 13 9 63 20 111 12 48 18 94 16
101 -7 17 -42 17 -49 -1z m-605 -212 c24 -30 56 -72 71 -92 16 -20 41 -51 58
-67 36 -38 36 -45 1 -79 -16 -15 -60 -65 -98 -111 -38 -46 -72 -81 -76 -77 -9
10 -15 482 -6 482 4 0 27 -25 50 -56z"/>
</g>
</svg>
