<?xml version="1.0" standalone="no"?>
<!DOCTYPE svg PUBLIC "-//W3C//DTD SVG 20010904//EN"
 "http://www.w3.org/TR/2001/REC-SVG-20010904/DTD/svg10.dtd">
<svg version="1.0" xmlns="http://www.w3.org/2000/svg"
 width="318.000000pt" height="354.000000pt" viewBox="0 0 318.000000 354.000000"
 preserveAspectRatio="xMidYMid meet">
<metadata>
Created by potrace 1.16, written by Peter Selinger 2001-2019
</metadata>
<g transform="translate(0.000000,354.000000) scale(0.500000,-0.500000)"
fill="#000000" stroke="none">
<path d="M595 686 c-13 -1 -16 -9 -29 -77 -7 -36 -11 -36 -28 -2 -28 54 -53
56 -86 7 -4 -5 -10 -13 -15 -18 -4 -5 -14 -17 -22 -27 -7 -9 -14 -17 -15 -17
-1 0 -10 -11 -20 -24 -11 -14 -21 -25 -24 -26 -7 -3 -26 -25 -33 -38 -3 -6 -8
-12 -14 -16 -6 -5 -11 -10 -15 -20 -16 -31 -31 -40 -43 -25 -5 5 -13 15 -20
23 -18 19 -81 101 -85 111 -2 3 -6 7 -9 9 -8 5 -21 20 -38 43 -7 9 -20 26 -29
38 -9 12 -19 26 -22 32 -7 14 -26 17 -32 5 -5 -10 -2 -592 4 -604 6 -14 6 -14
20 -14 13 0 15 2 44 41 11 14 23 28 28 31 4 3 8 7 8 8 0 1 10 14 21 29 12 16
30 39 40 52 9 13 20 25 22 26 3 2 15 16 27 32 31 41 28 40 53 8 6 -9 15 -18
18 -22 4 -3 15 -18 26 -32 43 -57 58 -76 65 -83 9 -9 47 -58 64 -84 8 -10 17
-21 21 -24 38 -28 66 21 33 58 -6 6 -14 16 -19 23 -6 8 -15 19 -21 26 -5 6
-15 19 -21 28 -7 9 -19 24 -28 33 -10 10 -17 19 -17 21 0 2 -4 7 -8 12 -5 4
-12 11 -16 16 -28 35 -52 63 -58 69 -29 27 -23 44 36 107 10 11 30 35 44 53
14 18 31 40 39 48 8 8 17 19 20 24 7 10 26 28 29 28 4 0 9 -9 31 -53 26 -52
25 -52 41 -52 21 -2 22 0 32 52 3 17 8 38 10 48 24 108 23 121 -9 117z m-526
-146 c4 -4 13 -16 22 -28 9 -12 21 -26 27 -33 11 -11 25 -29 65 -81 8 -10 20
-25 27 -32 17 -18 9 -41 -22 -65 -3 -3 -12 -14 -21 -25 -9 -12 -18 -23 -20
-25 -3 -2 -14 -14 -24 -27 -11 -13 -20 -24 -21 -24 -1 0 -6 -6 -12 -13 -29
-40 -28 -48 -30 157 -1 82 -3 160 -3 173 -2 32 0 35 12 23z"/>
</g>
</svg>
