<?xml version="1.0" standalone="no"?>
<!DOCTYPE svg PUBLIC "-//W3C//DTD SVG 20010904//EN"
 "http://www.w3.org/TR/2001/REC-SVG-20010904/DTD/svg10.dtd">
<svg version="1.0" xmlns="http://www.w3.org/2000/svg"
 width="91.000000pt" height="100.000000pt" viewBox="0 0 91.000000 100.000000"
 preserveAspectRatio="xMidYMid meet">
<metadata>
Created by potrace 1.16, written by Peter Selinger 2001-2019
</metadata>
<g transform="translate(0.000000,100.000000) scale(0.100000,-0.100000)"
fill="#000000" stroke="none">
<path d="M832 958 c-7 -7 -13 -28 -13 -47 -2 -54 -13 -94 -26 -98 -7 -3 -23
19 -37 51 -14 31 -31 56 -39 56 -22 0 -263 -266 -310 -342 -10 -16 -23 -28
-31 -28 -7 0 -40 35 -72 77 -33 43 -87 110 -121 149 -34 40 -76 95 -93 123
-65 105 -70 75 -69 -399 0 -190 4 -365 7 -390 10 -65 30 -63 90 12 28 35 85
104 127 153 42 50 83 102 91 118 8 15 22 27 32 26 15 0 111 -114 262 -311 57
-74 80 -89 105 -68 35 29 18 55 -212 323 -51 60 -93 116 -93 125 0 8 26 45 58
81 32 36 89 104 127 151 37 47 74 86 80 88 16 4 28 -13 56 -81 39 -97 82 -96
99 3 5 30 16 89 23 130 8 41 12 83 9 93 -5 20 -32 23 -50 5z m-678 -263 c31
-41 80 -104 111 -139 30 -36 55 -68 55 -72 0 -4 -26 -34 -58 -68 -31 -34 -79
-92 -106 -129 -46 -61 -65 -79 -66 -59 -1 4 -3 104 -4 222 -2 118 -7 239 -11
268 -11 75 12 69 79 -23z"/>
</g>
</svg>
