<?xml version="1.0" standalone="no"?>
<!DOCTYPE svg PUBLIC "-//W3C//DTD SVG 20010904//EN"
 "http://www.w3.org/TR/2001/REC-SVG-20010904/DTD/svg10.dtd">
<svg version="1.0" xmlns="http://www.w3.org/2000/svg"
 width="78.000000pt" height="100.000000pt" viewBox="0 0 78.000000 100.000000"
 preserveAspectRatio="xMidYMid meet">
<metadata>
Created by potrace 1.16, written by Peter Selinger 2001-2019
</metadata>
<g transform="translate(0.000000,100.000000) scale(0.100000,-0.100000)"
fill="#000000" stroke="none">
<path d="M30 515 c0 -415 1 -456 17 -462 11 -4 24 3 40 23 35 41 163 228 204
296 19 32 39 58 45 58 14 0 104 -147 104 -170 0 -10 -16 -41 -35 -69 -59 -86
-64 -121 -19 -121 20 0 33 13 62 60 20 33 40 60 44 60 4 0 27 -34 50 -75 44
-76 70 -97 93 -74 22 23 115 209 115 229 0 22 -37 37 -54 21 -6 -7 -24 -40
-41 -74 -16 -34 -37 -63 -45 -65 -10 -2 -25 14 -40 40 -13 24 -61 103 -107
176 l-85 132 50 68 c27 37 78 111 112 165 35 53 67 97 71 97 3 0 22 -34 40
-75 30 -68 37 -75 59 -73 41 5 32 60 -25 162 -67 119 -70 119 -181 -44 -49
-71 -102 -152 -119 -180 -17 -28 -36 -49 -44 -47 -8 1 -42 47 -75 103 -137
226 -186 294 -212 294 l-24 0 0 -455z m98 259 c15 -25 57 -94 95 -154 37 -60
67 -113 67 -120 0 -16 -190 -300 -201 -300 -5 0 -9 127 -9 310 0 205 3 310 10
310 6 0 23 -21 38 -46z"/>
</g>
</svg>
