<?xml version="1.0" standalone="no"?>
<!DOCTYPE svg PUBLIC "-//W3C//DTD SVG 20010904//EN"
 "http://www.w3.org/TR/2001/REC-SVG-20010904/DTD/svg10.dtd">
<svg version="1.0" xmlns="http://www.w3.org/2000/svg"
 width="460.000000pt" height="590.000000pt" viewBox="0 0 460.000000 590.000000"
 preserveAspectRatio="xMidYMid meet">
<metadata>
Created by potrace 1.16, written by Peter Selinger 2001-2019
</metadata>
<g transform="translate(0.000000,590.000000) scale(0.500000,-0.500000)"
fill="#000000" stroke="none">
<path d="M39 1138 c-4 -4 -5 -1026 -1 -1040 1 -4 2 -9 2 -13 0 -21 51 -22 65
-1 40 64 61 97 68 104 9 9 34 47 59 87 6 10 16 23 22 30 6 7 17 21 24 33 44
69 51 80 59 88 4 5 16 22 25 36 37 59 37 59 45 50 5 -5 27 -41 52 -80 7 -13
23 -37 33 -54 11 -16 23 -37 27 -45 l7 -15 -8 -25 c-9 -27 -8 -25 -53 -92 -5
-7 -11 -17 -15 -24 -4 -7 -9 -16 -13 -22 -6 -9 -7 -12 -8 -28 -3 -33 3 -40 31
-40 29 1 30 2 58 50 7 12 17 26 21 31 5 5 15 18 22 30 21 34 25 36 32 21 2 -4
6 -11 9 -14 3 -3 7 -9 9 -14 2 -4 6 -11 10 -15 8 -9 20 -29 24 -40 1 -4 7 -13
12 -19 10 -13 30 -44 36 -58 14 -32 60 -20 78 20 3 6 9 17 14 25 5 8 11 20 13
26 2 6 9 18 15 28 6 9 13 23 16 30 3 7 9 18 13 25 5 7 10 17 12 23 2 5 7 15
12 22 35 54 17 103 -31 90 -12 -3 -29 -27 -36 -51 -2 -7 -7 -15 -12 -21 -4 -6
-9 -12 -10 -15 -11 -21 -19 -37 -21 -44 -4 -12 -31 -45 -37 -45 -5 0 -31 39
-72 106 -12 21 -26 44 -78 125 -10 15 -24 36 -30 47 -7 10 -26 40 -43 66 -35
53 -44 68 -44 73 0 5 24 43 35 56 4 6 10 12 11 15 1 3 5 8 9 11 3 3 9 11 13
17 24 39 59 90 65 96 4 4 13 16 20 26 18 27 41 65 48 77 3 5 11 15 17 22 6 7
14 17 18 23 4 6 10 17 15 24 17 28 30 32 35 12 1 -4 5 -13 9 -19 4 -7 8 -17 9
-24 1 -9 4 -13 8 -18 3 -3 8 -12 11 -18 2 -7 7 -17 11 -24 3 -6 6 -13 6 -14 0
-1 2 -5 5 -9 2 -4 6 -12 7 -18 3 -14 8 -17 28 -17 32 0 36 6 36 53 0 38 0 37
-21 68 -8 13 -16 28 -18 33 -2 6 -10 21 -17 33 -8 12 -16 27 -18 32 -20 52
-45 76 -76 73 -20 -1 -24 -6 -80 -98 -5 -8 -12 -18 -17 -22 -9 -9 -18 -21 -54
-79 -12 -19 -26 -39 -31 -44 -5 -5 -15 -19 -22 -30 -28 -46 -47 -75 -56 -85
-4 -5 -17 -24 -28 -41 -29 -47 -21 -52 -88 58 -13 21 -82 129 -103 162 -10 16
-31 49 -48 74 -16 26 -37 57 -45 70 -8 13 -22 34 -30 48 -9 14 -18 26 -20 28
-5 4 -53 3 -57 -2z m83 -176 c4 -6 17 -26 28 -45 11 -19 29 -47 39 -63 10 -16
20 -33 23 -37 7 -12 73 -115 103 -160 35 -54 37 -57 36 -65 -1 -12 -41 -74
-60 -94 -6 -6 -16 -20 -22 -30 -33 -52 -48 -74 -55 -82 -9 -10 -19 -24 -31
-44 -35 -57 -47 -74 -56 -84 -5 -6 -13 -15 -16 -19 -6 -8 -9 -9 -14 -1 -6 7
-5 319 1 334 4 12 4 40 -1 53 -4 13 -5 148 0 161 3 7 3 22 3 92 -1 101 2 111
22 84z"/>
</g>
</svg>
