<?xml version="1.0" standalone="no"?>
<!DOCTYPE svg PUBLIC "-//W3C//DTD SVG 20010904//EN"
 "http://www.w3.org/TR/2001/REC-SVG-20010904/DTD/svg10.dtd">
<svg version="1.0" xmlns="http://www.w3.org/2000/svg"
 width="116.000000pt" height="148.000000pt" viewBox="0 0 116.000000 148.000000"
 preserveAspectRatio="xMidYMid meet">
<metadata>
Created by potrace 1.16, written by Peter Selinger 2001-2019
</metadata>
<g transform="translate(0.000000,148.000000) scale(0.100000,-0.100000)"
fill="#000000" stroke="none">
<path d="M40 774 c0 -432 4 -662 10 -675 6 -11 21 -19 35 -19 25 0 29 5 95
105 22 33 61 90 87 128 27 37 89 128 138 202 50 74 93 134 97 134 4 1 23 -27
44 -62 21 -34 55 -88 77 -120 47 -71 45 -97 -11 -178 -93 -133 -102 -172 -41
-177 35 -3 38 0 86 70 27 40 52 81 56 90 3 10 12 15 19 12 12 -5 125 -179 140
-216 10 -25 50 -22 75 5 17 18 83 138 151 270 30 60 -19 125 -60 80 -9 -10
-34 -52 -55 -93 -58 -113 -74 -134 -88 -118 -7 7 -59 87 -115 178 -57 91 -130
204 -162 252 -32 48 -58 91 -58 95 0 4 19 33 43 63 24 30 60 80 80 110 20 30
62 91 92 135 31 44 71 104 90 133 19 28 39 52 45 52 6 0 18 -17 27 -37 73
-166 84 -183 113 -183 16 0 30 7 34 16 11 28 6 89 -8 109 -7 11 -31 52 -51 90
-71 132 -80 146 -102 151 -30 8 -39 1 -89 -75 -25 -36 -68 -100 -97 -142 -29
-42 -92 -135 -141 -208 -49 -72 -92 -128 -96 -124 -4 4 -41 62 -82 128 -131
211 -292 460 -303 467 -5 4 -25 8 -42 8 l-33 0 0 -656z m117 429 c9 -23 211
-347 252 -403 17 -24 31 -49 31 -57 0 -15 -36 -71 -125 -193 -29 -41 -75 -109
-100 -150 -48 -77 -83 -120 -96 -120 -5 0 -5 645 1 933 0 15 31 6 37 -10z"/>
</g>
</svg>
