<?xml version="1.0" standalone="no"?>
<!DOCTYPE svg PUBLIC "-//W3C//DTD SVG 20010904//EN"
 "http://www.w3.org/TR/2001/REC-SVG-20010904/DTD/svg10.dtd">
<svg version="1.0" xmlns="http://www.w3.org/2000/svg"
 width="120.000000pt" height="148.000000pt" viewBox="0 0 120.000000 148.000000"
 preserveAspectRatio="xMidYMid meet">
<metadata>
Created by potrace 1.16, written by Peter Selinger 2001-2019
</metadata>
<g transform="translate(0.000000,148.000000) scale(0.100000,-0.100000)"
fill="#000000" stroke="none">
<path d="M501 1417 c-7 -9 -9 -98 -7 -285 2 -150 0 -274 -4 -277 -5 -3 -27 23
-49 57 -54 83 -145 210 -198 276 -23 29 -59 80 -79 113 -35 56 -40 60 -72 57
l-34 -3 -4 -285 c-3 -157 -6 -445 -7 -640 l-2 -355 41 -3 c40 -3 41 -2 82 60
22 35 62 92 89 127 26 35 84 116 128 180 81 117 125 154 111 94 -10 -44 -21
-236 -21 -363 l0 -115 40 0 40 0 0 260 c0 167 4 260 10 260 11 0 59 -60 111
-139 18 -28 49 -71 68 -96 20 -25 65 -87 102 -138 63 -89 67 -92 104 -92 34 0
41 4 63 43 14 23 48 73 76 112 42 58 51 77 51 112 l0 43 -38 0 c-34 0 -42 -5
-69 -42 -17 -24 -33 -53 -37 -64 -7 -24 -53 -81 -59 -74 -3 3 -25 37 -51 75
-54 82 -157 222 -238 322 -32 40 -58 76 -58 81 0 4 17 28 38 52 43 50 170 223
243 330 28 41 55 77 60 79 14 5 49 -29 49 -48 0 -9 7 -25 15 -35 8 -11 15 -26
15 -34 0 -7 13 -27 30 -43 22 -22 37 -29 57 -27 27 3 28 5 25 53 -2 29 -11 61
-23 77 -10 15 -19 30 -19 33 0 3 -15 28 -33 54 -17 27 -43 68 -57 90 -36 61
-64 57 -113 -17 -78 -117 -112 -162 -129 -167 -10 -4 -18 -14 -18 -24 0 -10
-9 -26 -20 -36 -10 -9 -29 -36 -41 -59 -11 -22 -27 -45 -35 -49 -8 -4 -14 -15
-14 -23 0 -23 -31 -64 -47 -64 -13 0 -15 11 -9 68 3 37 9 165 12 285 l7 217
-35 0 c-20 0 -40 -6 -47 -13z m-310 -320 c25 -34 69 -96 98 -137 28 -41 72
-100 96 -130 71 -86 79 -104 60 -139 -8 -16 -25 -38 -38 -48 -14 -10 -27 -29
-31 -41 -4 -12 -17 -29 -30 -39 -12 -10 -31 -31 -41 -48 -11 -16 -36 -49 -56
-72 -21 -22 -47 -61 -58 -86 -23 -50 -43 -63 -64 -42 -10 9 -13 27 -9 57 3 24
6 207 7 408 2 201 3 368 4 373 3 17 19 3 62 -56z"/>
</g>
</svg>
