<?xml version="1.0" standalone="no"?>
<!DOCTYPE svg PUBLIC "-//W3C//DTD SVG 20010904//EN"
 "http://www.w3.org/TR/2001/REC-SVG-20010904/DTD/svg10.dtd">
<svg version="1.0" xmlns="http://www.w3.org/2000/svg"
 width="478.000000pt" height="590.000000pt" viewBox="0 0 478.000000 590.000000"
 preserveAspectRatio="xMidYMid meet">
<metadata>
Created by potrace 1.16, written by Peter Selinger 2001-2019
</metadata>
<g transform="translate(0.000000,590.000000) scale(0.500000,-0.500000)"
fill="#000000" stroke="none">
<path d="M410 1141 c-11 -6 -19 -21 -17 -34 1 -7 1 -19 1 -27 0 -8 1 -18 2
-21 3 -10 3 -31 -1 -44 -4 -14 -3 -35 2 -51 4 -11 4 -12 0 -24 -5 -16 -4 -134
2 -146 5 -14 6 -24 1 -41 -3 -11 -4 -22 -4 -36 0 -37 -5 -34 -43 24 -15 20
-28 39 -31 41 -5 3 -13 15 -64 89 -20 29 -41 57 -46 62 -9 9 -31 40 -76 106
-35 53 -34 52 -55 53 -39 1 -37 9 -35 -115 2 -81 2 -103 0 -117 -2 -13 -3 -65
-4 -204 -1 -103 -2 -200 -3 -215 -1 -19 -1 -31 1 -39 2 -8 2 -13 0 -23 -4 -24
-4 -311 1 -314 5 -4 56 -4 64 -1 3 2 14 16 31 41 14 20 33 49 43 63 10 14 24
35 32 47 9 12 20 26 25 31 10 10 35 45 98 138 30 45 50 66 55 59 5 -6 4 -57
-1 -74 -4 -13 -4 -15 -2 -29 2 -12 2 -17 0 -24 -2 -9 -6 -134 -6 -226 0 -49
-1 -48 31 -48 29 0 31 2 33 27 1 13 2 20 6 26 5 11 6 81 1 98 -5 16 -9 223 -4
240 2 7 3 15 3 18 0 19 9 13 32 -21 9 -13 18 -25 21 -27 6 -4 38 -51 44 -65 3
-6 9 -14 13 -18 4 -4 16 -21 28 -38 11 -16 24 -33 29 -37 4 -5 15 -18 23 -30
9 -12 20 -29 26 -37 6 -8 21 -31 35 -51 29 -42 28 -42 59 -41 27 1 27 1 51 38
20 30 33 48 70 101 l28 40 1 30 c3 44 2 45 -35 45 -26 0 -30 -2 -37 -15 -3 -5
-8 -12 -11 -16 -4 -3 -8 -9 -10 -13 -2 -4 -6 -10 -10 -14 -5 -5 -7 -11 -9 -19
-1 -6 -4 -12 -5 -13 -2 -2 -5 -7 -7 -12 -2 -5 -8 -13 -12 -17 -4 -5 -8 -10 -8
-12 0 -4 -8 -9 -12 -8 -5 2 -14 14 -53 71 -16 24 -32 45 -35 48 -4 3 -10 9
-13 14 -44 64 -92 130 -106 145 -24 25 -69 89 -69 98 0 6 22 37 33 46 5 5 16
18 25 31 29 40 52 72 78 108 13 19 30 40 36 47 6 7 15 18 20 25 5 7 14 20 20
29 6 9 20 29 31 45 21 31 24 33 36 27 9 -4 26 -30 28 -42 1 -7 4 -12 9 -18 6
-7 8 -11 9 -20 2 -18 5 -24 18 -31 7 -4 13 -9 15 -13 8 -15 12 -17 33 -17 32
0 33 2 31 48 -1 35 0 30 -22 63 -7 11 -15 24 -17 28 -1 5 -10 19 -20 33 -9 13
-18 29 -20 34 -11 30 -47 72 -63 75 -20 3 -25 -1 -60 -53 -14 -21 -29 -42 -32
-45 -4 -3 -9 -9 -11 -12 -1 -3 -8 -12 -14 -20 -6 -8 -14 -20 -18 -28 -7 -14
-8 -15 -19 -21 -14 -8 -17 -11 -19 -23 -2 -13 -9 -22 -22 -31 -14 -11 -18 -16
-20 -27 -1 -4 -4 -11 -7 -15 -3 -4 -9 -14 -13 -22 -5 -12 -8 -16 -16 -20 -7
-5 -9 -7 -11 -14 -5 -22 -26 -51 -35 -50 -8 2 -8 231 0 250 4 7 9 172 6 187
-2 13 -41 19 -57 10z m-290 -222 c3 -4 12 -16 20 -28 7 -11 18 -24 23 -29 5
-5 19 -23 30 -40 49 -72 68 -98 80 -110 11 -11 26 -31 75 -99 13 -19 17 -45 8
-57 -2 -3 -5 -9 -8 -13 -4 -8 -22 -27 -34 -37 -4 -3 -7 -8 -8 -14 -3 -14 -16
-32 -33 -44 -9 -6 -16 -12 -17 -16 -2 -4 -6 -11 -10 -15 -5 -5 -8 -10 -8 -12
0 -6 -21 -34 -37 -50 -25 -23 -39 -44 -42 -60 -1 -6 -3 -11 -8 -15 -4 -3 -8
-10 -10 -14 -15 -33 -43 -17 -43 23 0 12 0 28 0 35 0 7 1 19 2 28 3 13 4 226
3 290 -2 55 1 278 3 281 4 5 7 4 14 -4z"/>
</g>
</svg>
