<?xml version="1.0" standalone="no"?>
<!DOCTYPE svg PUBLIC "-//W3C//DTD SVG 20010904//EN"
 "http://www.w3.org/TR/2001/REC-SVG-20010904/DTD/svg10.dtd">
<svg version="1.0" xmlns="http://www.w3.org/2000/svg"
 width="81.000000pt" height="100.000000pt" viewBox="0 0 81.000000 100.000000"
 preserveAspectRatio="xMidYMid meet">
<metadata>
Created by potrace 1.16, written by Peter Selinger 2001-2019
</metadata>
<g transform="translate(0.000000,100.000000) scale(0.100000,-0.100000)"
fill="#000000" stroke="none">
<path d="M335 960 c-4 -7 -6 -91 -4 -188 3 -111 0 -176 -6 -179 -5 -1 -31 30
-57 70 -104 158 -185 262 -206 265 -12 2 -22 2 -23 0 0 -2 -3 -198 -6 -437 -6
-456 -6 -455 38 -444 18 5 84 92 171 222 56 85 68 101 77 101 5 0 6 -77 3
-171 l-5 -171 29 4 29 3 0 170 c0 101 4 172 10 175 5 3 30 -24 55 -60 96 -139
160 -228 174 -240 27 -21 49 -6 103 69 55 77 68 126 37 138 -24 9 -46 -8 -71
-53 -42 -76 -48 -77 -90 -11 -14 23 -58 84 -97 135 -39 52 -77 102 -84 112
-12 16 -7 26 38 82 28 34 78 103 111 151 39 56 66 87 76 85 9 -2 23 -22 32
-44 21 -55 39 -74 67 -74 40 0 31 52 -24 144 -59 98 -76 110 -103 76 -73 -92
-145 -193 -171 -242 -51 -95 -60 -81 -51 80 4 75 8 160 8 187 0 47 -2 50 -27
53 -14 2 -29 -2 -33 -8z m-178 -258 c26 -37 69 -95 95 -130 26 -35 48 -72 48
-84 0 -11 -30 -59 -68 -106 -37 -48 -79 -106 -95 -130 -49 -77 -52 -63 -50
239 1 151 3 278 3 282 0 16 21 -5 67 -71z"/>
</g>
</svg>
