<?xml version="1.0" standalone="no"?>
<!DOCTYPE svg PUBLIC "-//W3C//DTD SVG 20010904//EN"
 "http://www.w3.org/TR/2001/REC-SVG-20010904/DTD/svg10.dtd">
<svg version="1.0" xmlns="http://www.w3.org/2000/svg"
 width="85.000000pt" height="100.000000pt" viewBox="0 0 85.000000 100.000000"
 preserveAspectRatio="xMidYMid meet">
<metadata>
Created by potrace 1.16, written by Peter Selinger 2001-2019
</metadata>
<g transform="translate(0.000000,100.000000) scale(0.100000,-0.100000)"
fill="#000000" stroke="none">
<path d="M587 938 c-14 -18 -35 -53 -47 -78 -28 -55 -59 -100 -69 -100 -4 0
-15 17 -24 38 -75 169 -109 193 -158 107 -15 -28 -34 -75 -42 -105 -8 -30 -19
-55 -25 -55 -6 0 -41 46 -78 103 -54 83 -71 102 -88 100 -21 -3 -21 -4 -24
-452 -1 -270 2 -454 7 -459 5 -5 21 -7 34 -3 19 4 42 34 88 111 35 58 67 104
72 102 5 -1 20 -37 33 -79 26 -82 71 -142 101 -136 21 4 66 82 90 155 9 29 22
53 28 53 6 0 33 -35 60 -77 59 -95 83 -123 106 -123 24 0 159 181 159 213 0
13 -7 30 -16 37 -18 16 -36 0 -93 -81 -21 -30 -45 -55 -54 -57 -10 -2 -36 27
-78 90 -34 51 -89 128 -121 170 -32 42 -58 81 -58 86 0 5 24 45 53 89 58 90
129 202 158 251 10 17 25 32 32 32 7 0 28 -36 47 -80 28 -67 38 -80 57 -80 26
0 46 31 36 57 -10 27 -93 165 -111 186 -23 26 -48 21 -75 -15z m-203 -153 c38
-76 38 -117 0 -177 -16 -27 -32 -48 -36 -48 -4 0 -20 18 -34 40 -24 36 -26 47
-23 118 4 80 27 137 52 130 7 -2 25 -31 41 -63z m-213 -92 c40 -60 87 -126
106 -147 18 -22 33 -43 33 -47 0 -4 -40 -70 -89 -147 -49 -76 -96 -153 -105
-171 -9 -17 -21 -29 -26 -26 -14 8 -13 645 0 645 5 0 42 -48 81 -107z m220
-310 c41 -66 43 -79 19 -147 -28 -82 -47 -111 -65 -96 -20 17 -55 128 -55 175
0 40 39 115 61 115 5 0 23 -21 40 -47z"/>
</g>
</svg>
