<?xml version="1.0" standalone="no"?>
<!DOCTYPE svg PUBLIC "-//W3C//DTD SVG 20010904//EN"
 "http://www.w3.org/TR/2001/REC-SVG-20010904/DTD/svg10.dtd">
<svg version="1.0" xmlns="http://www.w3.org/2000/svg"
 width="126.000000pt" height="148.000000pt" viewBox="0 0 126.000000 148.000000"
 preserveAspectRatio="xMidYMid meet">
<metadata>
Created by potrace 1.16, written by Peter Selinger 2001-2019
</metadata>
<g transform="translate(0.000000,148.000000) scale(0.100000,-0.100000)"
fill="#000000" stroke="none">
<path d="M893 1408 c-28 -32 -62 -83 -88 -131 -40 -76 -98 -167 -106 -167 -11
0 -29 35 -29 55 0 10 -20 46 -44 80 -24 35 -47 74 -51 87 -4 12 -17 38 -29 55
-29 45 -59 43 -89 -4 -48 -78 -97 -190 -108 -245 -6 -32 -14 -58 -19 -58 -5 0
-24 25 -42 55 -18 30 -59 90 -90 132 -32 43 -58 83 -58 89 0 6 -9 19 -20 29
-25 23 -68 13 -75 -18 -3 -12 -4 -312 -2 -667 l2 -645 41 -3 c41 -3 42 -2 77
55 20 32 55 87 79 123 24 36 54 86 68 113 25 47 50 62 50 30 1 -35 50 -186 75
-228 31 -54 79 -95 111 -95 19 0 29 8 39 34 8 19 19 37 24 40 4 3 11 20 15 37
3 17 14 43 24 57 11 15 22 36 25 47 16 55 36 100 44 98 8 -2 58 -72 154 -215
29 -43 57 -78 63 -78 6 0 21 -3 32 -6 22 -6 29 1 202 232 36 48 40 82 16 119
-19 30 -40 32 -53 6 -6 -10 -33 -45 -61 -77 -27 -33 -50 -64 -50 -69 0 -12
-48 -65 -58 -65 -16 0 -40 26 -83 90 -24 35 -102 146 -173 245 -71 99 -131
186 -133 193 -3 7 4 23 15 35 24 26 87 123 122 186 14 25 46 74 70 109 25 35
61 93 81 128 19 36 45 75 57 87 19 19 24 19 35 7 7 -8 19 -33 27 -55 7 -22 24
-57 38 -77 13 -21 27 -52 31 -70 5 -27 12 -34 34 -36 74 -9 77 63 9 175 -26
43 -58 98 -71 123 -13 25 -30 53 -39 63 -21 24 -65 21 -89 -5z m-326 -233 c29
-55 45 -99 49 -138 6 -55 5 -60 -29 -110 -19 -29 -41 -64 -48 -79 -7 -16 -17
-28 -23 -28 -6 0 -30 31 -53 68 -43 66 -43 68 -43 160 0 83 3 99 30 153 43 83
61 79 117 -26z m-341 -109 c49 -70 98 -143 109 -161 26 -43 102 -142 115 -150
20 -12 9 -36 -68 -152 -43 -65 -91 -140 -108 -166 -16 -27 -43 -68 -60 -91
-18 -24 -35 -53 -38 -64 -9 -27 -46 -73 -54 -68 -6 3 -8 972 -3 996 2 7 15
-11 107 -144z m324 -459 c14 -17 40 -55 58 -83 31 -50 32 -51 21 -115 -6 -35
-17 -74 -25 -86 -8 -12 -14 -29 -14 -37 0 -8 -14 -36 -32 -62 l-31 -46 -18 23
c-10 13 -19 29 -19 34 0 6 -5 16 -12 23 -21 21 -58 153 -58 207 0 37 6 60 20
78 11 14 20 28 20 31 0 13 44 66 54 66 6 0 22 -15 36 -33z"/>
</g>
</svg>
