<?xml version="1.0" standalone="no"?>
<!DOCTYPE svg PUBLIC "-//W3C//DTD SVG 20010904//EN"
 "http://www.w3.org/TR/2001/REC-SVG-20010904/DTD/svg10.dtd">
<svg version="1.0" xmlns="http://www.w3.org/2000/svg"
 width="500.000000pt" height="590.000000pt" viewBox="0 0 500.000000 590.000000"
 preserveAspectRatio="xMidYMid meet">
<metadata>
Created by potrace 1.16, written by Peter Selinger 2001-2019
</metadata>
<g transform="translate(0.000000,590.000000) scale(0.500000,-0.500000)"
fill="#000000" stroke="none">
<path d="M715 1138 c-8 -2 -12 -7 -31 -38 -7 -13 -25 -42 -39 -65 -14 -23 -40
-66 -57 -95 -45 -74 -45 -74 -53 -35 -3 16 -7 25 -15 39 -3 5 -9 19 -13 30 -9
25 -16 40 -30 61 -6 9 -14 22 -19 30 -10 14 -16 20 -41 40 -24 20 -40 13 -55
-23 -2 -6 -10 -21 -18 -34 -15 -25 -33 -68 -39 -96 -2 -8 -6 -22 -9 -30 -4 -9
-7 -21 -8 -31 -2 -18 -6 -26 -14 -25 -5 1 -9 7 -132 192 -57 87 -58 87 -77 76
-3 -2 -9 -5 -14 -6 -4 -1 -8 -4 -9 -6 -3 -6 -3 -1064 1 -1069 3 -4 5 -4 42 -4
47 0 39 -6 75 55 15 25 35 57 44 72 9 15 26 43 38 62 43 72 42 71 51 44 3 -7
7 -18 10 -23 2 -6 5 -15 6 -21 1 -12 7 -29 13 -41 2 -5 4 -13 5 -19 1 -8 3
-12 9 -19 8 -9 14 -25 14 -38 0 -5 1 -8 6 -11 4 -3 9 -10 12 -16 4 -8 9 -13
16 -18 5 -3 13 -11 18 -16 22 -26 45 -20 65 17 8 13 17 28 21 33 6 6 8 10 8
14 0 15 16 56 27 68 7 8 10 16 12 29 0 6 3 16 6 23 2 6 6 18 8 26 10 40 2 48
96 -94 70 -105 74 -110 85 -110 2 0 8 -4 13 -8 13 -12 31 -15 49 -8 6 2 14 14
77 104 11 16 24 35 30 42 60 81 66 100 44 136 -23 38 -27 37 -60 -13 -11 -16
-24 -34 -28 -39 -5 -5 -12 -14 -16 -21 -4 -7 -11 -16 -15 -20 -4 -4 -9 -11
-10 -16 -1 -4 -5 -10 -9 -14 -4 -3 -10 -10 -14 -16 -12 -18 -31 -24 -49 -14
-7 4 -68 91 -79 113 -3 6 -8 13 -11 17 -3 3 -23 32 -45 63 -42 61 -44 64 -36
78 3 6 4 296 1 308 -3 9 17 45 32 59 2 2 7 9 9 14 3 6 8 13 10 16 2 3 6 9 8
13 2 4 7 12 12 18 4 5 9 13 11 16 3 9 18 38 21 42 1 2 12 20 25 40 42 70 36
69 71 11 46 -77 60 -102 66 -117 19 -46 36 -51 59 -19 29 41 29 41 -6 96 -11
17 -22 35 -25 40 -2 6 -12 22 -21 35 -9 14 -20 33 -25 43 -33 67 -59 86 -104
73z m-299 -134 c3 -2 8 -7 10 -10 1 -4 7 -11 12 -16 4 -5 9 -13 11 -18 1 -5 6
-14 9 -20 4 -7 10 -19 13 -27 3 -9 7 -20 9 -25 5 -11 14 -49 14 -61 0 -5 1
-13 2 -19 2 -7 2 -11 -1 -16 -3 -10 -29 -51 -38 -63 -3 -5 -7 -11 -8 -13 -5
-16 -31 -54 -37 -54 -12 0 -91 126 -85 135 3 5 4 11 5 42 2 42 12 80 32 112 5
9 11 19 13 23 4 10 20 30 26 32 6 2 5 2 13 -2z m-305 -48 c7 -10 32 -45 51
-74 7 -10 15 -21 17 -24 5 -5 24 -32 53 -75 9 -13 18 -26 20 -28 10 -11 14
-48 7 -66 -6 -14 -7 -128 -1 -147 3 -12 4 -21 4 -39 0 -16 1 -28 3 -34 9 -31
-2 -58 -47 -122 -6 -7 -11 -15 -12 -18 -2 -6 -39 -64 -48 -76 -4 -5 -12 -18
-17 -28 -26 -49 -42 -62 -49 -42 -4 12 -1 139 3 151 4 11 5 48 1 57 -3 7 -3
564 0 569 3 6 7 5 15 -4z m416 -277 c4 -22 -3 -164 -8 -169 -6 -6 -59 65 -59
79 0 7 0 7 28 50 30 48 36 54 39 40z m-201 -28 c40 -54 44 -63 37 -77 -12 -24
-46 -72 -50 -72 -8 0 -11 31 -11 100 0 80 0 81 24 49z m99 -146 c3 -3 10 -14
16 -23 5 -9 12 -21 15 -25 21 -28 50 -74 52 -80 6 -21 1 -73 -8 -97 -3 -8 -9
-24 -13 -36 -5 -11 -11 -26 -15 -32 -3 -6 -9 -16 -11 -21 -3 -6 -8 -13 -14
-18 -6 -5 -10 -10 -13 -18 -6 -16 -11 -17 -18 -2 -3 4 -7 11 -10 14 -5 6 -11
17 -24 49 -2 5 -5 15 -6 22 -2 8 -5 17 -10 25 -30 46 -42 101 -29 128 5 11 66
112 71 118 4 5 10 4 17 -4z"/>
</g>
</svg>
