<?xml version="1.0" standalone="no"?>
<!DOCTYPE svg PUBLIC "-//W3C//DTD SVG 20010904//EN"
 "http://www.w3.org/TR/2001/REC-SVG-20010904/DTD/svg10.dtd">
<svg version="1.0" xmlns="http://www.w3.org/2000/svg"
 width="126.000000pt" height="148.000000pt" viewBox="0 0 126.000000 148.000000"
 preserveAspectRatio="xMidYMid meet">
<metadata>
Created by potrace 1.16, written by Peter Selinger 2001-2019
</metadata>
<g transform="translate(0.000000,148.000000) scale(0.100000,-0.100000)"
fill="#000000" stroke="none">
<path d="M62 1412 c-10 -7 -12 -150 -10 -683 l3 -674 44 0 c24 0 49 5 56 10 7
6 53 79 103 162 63 108 93 149 99 140 11 -13 24 -50 44 -117 7 -25 19 -54 26
-65 7 -11 13 -25 13 -33 0 -7 19 -33 42 -58 45 -48 73 -54 92 -19 6 11 18 31
27 45 9 14 19 38 23 54 4 17 15 41 25 55 10 14 24 52 31 84 7 32 16 60 20 62
3 2 49 -62 103 -143 82 -124 103 -150 138 -167 l41 -19 22 26 c52 64 196 277
196 290 0 28 -31 78 -48 78 -9 0 -26 -16 -37 -34 -11 -19 -46 -71 -78 -115
-75 -104 -90 -106 -148 -18 -23 34 -71 104 -107 155 l-65 94 1 225 0 226 27
36 c33 46 78 119 133 216 42 75 44 76 63 59 10 -9 19 -21 19 -25 0 -4 19 -41
43 -81 23 -41 49 -87 57 -103 21 -40 48 -38 73 6 l21 36 -69 114 c-121 202
-110 189 -155 189 -44 0 -42 3 -177 -221 -62 -104 -83 -123 -83 -77 0 11 -20
62 -45 112 -46 93 -112 173 -137 164 -32 -13 -110 -189 -125 -286 -3 -18 -9
-34 -13 -37 -4 -3 -60 74 -125 170 -113 170 -130 187 -163 167z m510 -238 c51
-106 61 -178 30 -221 -11 -15 -31 -48 -45 -73 -14 -25 -32 -45 -41 -45 -9 0
-38 32 -64 72 l-48 72 7 66 c4 46 18 89 43 141 51 101 64 100 118 -12z m-432
27 c0 -5 43 -70 95 -145 l96 -136 -8 -87 c-5 -57 -4 -125 4 -191 l12 -104
-102 -164 c-56 -90 -107 -164 -112 -164 -7 0 -10 171 -10 500 0 393 3 500 13
500 6 0 12 -4 12 -9z m519 -356 c0 -3 1 -52 1 -110 0 -77 -3 -105 -12 -105
-12 0 -78 91 -78 106 0 3 13 24 28 47 16 23 32 50 35 60 6 16 22 17 26 2z
m-235 -50 c41 -63 43 -71 16 -105 -11 -14 -20 -30 -20 -37 0 -7 -8 -17 -19
-22 -16 -9 -19 -6 -25 27 -11 69 -6 192 9 192 1 0 19 -25 39 -55z m116 -166
c0 -6 23 -45 50 -85 41 -61 50 -81 50 -118 0 -50 -33 -146 -65 -191 -12 -16
-24 -38 -28 -47 -3 -10 -11 -18 -16 -18 -10 0 -61 101 -61 119 0 5 -11 31 -25
58 -45 85 -44 112 6 195 23 40 47 79 52 86 12 15 37 16 37 1z"/>
</g>
</svg>
