<?xml version="1.0" standalone="no"?>
<!DOCTYPE svg PUBLIC "-//W3C//DTD SVG 20010904//EN"
 "http://www.w3.org/TR/2001/REC-SVG-20010904/DTD/svg10.dtd">
<svg version="1.0" xmlns="http://www.w3.org/2000/svg"
 width="150.000000pt" height="148.000000pt" viewBox="0 0 150.000000 148.000000"
 preserveAspectRatio="xMidYMid meet">
<metadata>
Created by potrace 1.16, written by Peter Selinger 2001-2019
</metadata>
<g transform="translate(0.000000,148.000000) scale(0.100000,-0.100000)"
fill="#000000" stroke="none">
<path d="M1040 1407 c-30 -25 -73 -84 -83 -110 -8 -21 -127 -207 -133 -207 -2
0 -8 19 -14 43 -15 54 -47 122 -66 138 -8 7 -26 36 -40 66 -25 52 -26 53 -70
53 -43 0 -46 -2 -60 -37 -8 -21 -22 -52 -30 -70 -8 -17 -14 -35 -14 -40 0 -6
-9 -18 -20 -28 -11 -10 -20 -28 -20 -39 0 -12 -5 -38 -11 -59 -9 -33 -12 -36
-29 -27 -11 6 -20 16 -20 23 0 7 -9 23 -20 34 -10 12 -39 50 -62 85 -115 169
-138 190 -167 154 -8 -9 -10 -194 -9 -672 l3 -659 35 0 c32 0 38 6 76 62 22
35 50 73 61 85 12 13 32 43 46 68 47 87 62 110 72 107 6 -2 20 -28 32 -58 12
-29 32 -76 44 -104 13 -27 22 -56 21 -63 -2 -7 4 -15 13 -18 8 -3 15 -12 15
-18 0 -12 74 -66 91 -66 32 0 134 196 144 277 4 29 11 55 15 58 4 3 31 -30 59
-73 28 -42 62 -93 75 -112 14 -19 25 -41 25 -48 1 -7 21 -34 45 -59 38 -39 48
-45 66 -37 28 13 230 284 230 310 0 28 -28 94 -40 94 -5 0 -24 -21 -41 -47
-18 -27 -48 -66 -66 -89 -18 -23 -33 -45 -33 -50 0 -13 -49 -64 -60 -64 -6 0
-23 19 -40 43 -16 23 -43 60 -59 82 -17 22 -52 69 -78 105 l-48 64 -1 186 c0
120 -5 198 -13 222 l-12 37 116 175 c64 97 118 176 120 176 2 0 27 -48 55
-107 29 -60 55 -114 59 -122 13 -27 48 -31 75 -10 38 30 32 60 -28 147 -29 42
-68 106 -87 142 -18 36 -38 68 -43 72 -20 14 -51 8 -76 -15z m-362 -199 c24
-33 49 -83 65 -133 28 -87 27 -94 -26 -153 -12 -12 -22 -29 -23 -38 -3 -20
-32 -64 -42 -64 -7 0 -33 33 -100 128 -18 25 -21 37 -13 45 6 6 11 29 11 52 0
22 10 60 22 85 11 25 25 53 30 62 4 10 8 26 8 36 0 19 8 32 20 32 4 0 26 -24
48 -52z m-370 -75 c28 -43 71 -105 95 -138 l44 -60 -9 -65 c-6 -36 -10 -76
-10 -90 0 -57 14 -187 24 -212 9 -23 4 -35 -44 -105 -29 -43 -77 -116 -107
-162 -30 -46 -57 -79 -62 -74 -4 4 -5 55 -1 113 4 58 5 274 2 480 -3 206 -4
378 -2 383 7 17 22 2 70 -70z m495 -397 c2 -126 -8 -135 -61 -54 -40 61 -41
62 -24 91 29 49 62 81 74 69 5 -5 10 -53 11 -106z m-279 98 c9 -3 16 -12 16
-18 0 -7 14 -25 30 -41 17 -16 30 -32 30 -37 0 -18 -74 -118 -81 -111 -9 9
-25 213 -16 213 3 0 12 -3 21 -6z m156 -224 c6 -15 27 -45 46 -65 44 -48 50
-75 35 -150 -15 -74 -80 -207 -99 -203 -14 3 -30 30 -81 137 -25 52 -31 77
-31 131 0 49 4 71 16 81 8 7 22 26 31 43 35 70 61 78 83 26z"/>
<path d="M1399 1398 c-1 -7 -1 -87 -1 -178 0 -134 2 -166 15 -174 8 -5 21 -7
29 -4 12 5 16 40 22 178 3 94 4 176 1 181 -9 14 -65 11 -66 -3z"/>
<path d="M34 1386 c-2 -7 -3 -88 -2 -181 l3 -170 27 -3 27 -3 5 103 c3 57 8
128 11 158 8 72 -5 108 -40 108 -15 0 -29 -6 -31 -12z"/>
<path d="M40 413 c0 -5 -1 -86 -3 -181 -2 -171 -2 -173 20 -178 12 -3 26 -3
31 0 5 3 12 72 17 153 10 189 10 194 -7 204 -16 11 -58 12 -58 2z"/>
<path d="M1407 413 c-3 -5 -7 -85 -8 -178 -2 -143 0 -170 13 -178 8 -6 23 -7
32 -4 14 6 16 28 16 177 0 93 1 173 3 178 3 10 -50 15 -56 5z"/>
</g>
</svg>
