<?xml version="1.0" standalone="no"?>
<!DOCTYPE svg PUBLIC "-//W3C//DTD SVG 20010904//EN"
 "http://www.w3.org/TR/2001/REC-SVG-20010904/DTD/svg10.dtd">
<svg version="1.0" xmlns="http://www.w3.org/2000/svg"
 width="600.000000pt" height="590.000000pt" viewBox="0 0 600.000000 590.000000"
 preserveAspectRatio="xMidYMid meet">
<metadata>
Created by potrace 1.16, written by Peter Selinger 2001-2019
</metadata>
<g transform="translate(0.000000,590.000000) scale(0.500000,-0.500000)"
fill="#000000" stroke="none">
<path d="M854 1140 c-5 -1 -11 -5 -16 -9 -5 -5 -12 -9 -15 -11 -7 -3 -17 -16
-21 -28 -1 -5 -5 -10 -8 -12 -14 -11 -25 -27 -27 -38 -1 -8 -3 -15 -13 -29 -6
-10 -14 -22 -17 -27 -3 -5 -12 -19 -20 -30 -7 -12 -20 -31 -28 -43 -18 -27
-22 -31 -26 -27 -4 4 -15 34 -15 41 0 9 -4 19 -15 35 -6 9 -11 18 -12 21 -3
12 -4 14 -15 26 -19 20 -35 47 -38 64 -2 9 -3 12 -15 25 l-14 13 -29 1 c-38 0
-45 -6 -56 -45 -2 -9 -8 -23 -13 -31 -6 -10 -9 -19 -11 -28 -2 -12 -10 -30
-14 -30 -10 0 -22 -23 -24 -44 -2 -18 -14 -56 -19 -62 -5 -5 -8 -1 -30 31 -11
16 -23 31 -26 34 -4 3 -8 9 -10 15 -2 6 -5 11 -9 14 -3 2 -11 12 -17 22 -28
43 -38 57 -45 62 -4 3 -9 11 -14 21 -5 10 -10 18 -12 19 -2 1 -7 7 -11 13 -14
22 -18 23 -39 12 -24 -13 -22 10 -24 -215 -3 -447 0 -845 6 -851 6 -4 51 -5
58 0 4 3 46 65 63 92 4 7 11 16 15 19 10 8 33 42 40 60 7 16 22 40 32 51 4 4
8 10 9 13 7 25 23 20 34 -11 1 -5 5 -13 8 -19 3 -5 5 -11 5 -13 0 -2 3 -8 6
-15 9 -16 16 -35 19 -49 2 -9 4 -13 8 -17 10 -8 14 -17 15 -33 1 -15 2 -18 11
-22 2 -1 7 -7 10 -13 5 -11 7 -12 24 -22 11 -6 19 -12 20 -14 5 -15 41 -15 49
0 2 4 7 9 11 12 4 2 7 6 9 11 1 5 6 13 10 20 4 7 8 15 9 18 1 3 5 13 10 21 5
8 10 19 12 24 1 4 8 16 13 25 8 13 11 21 13 31 5 24 7 35 10 46 2 7 3 14 3 16
0 30 13 27 36 -8 32 -48 45 -67 52 -73 9 -9 27 -36 31 -48 2 -4 5 -10 7 -12 5
-5 8 -14 8 -21 0 -7 9 -17 18 -21 6 -2 10 -6 14 -14 27 -42 66 -48 87 -14 23
36 31 47 40 56 6 6 19 23 29 38 10 16 24 33 30 39 14 14 49 67 55 84 6 16 6
22 -5 39 -4 7 -9 17 -10 22 -6 21 -26 25 -37 8 -6 -9 -25 -38 -33 -51 -4 -6
-12 -17 -19 -24 -7 -7 -14 -17 -17 -21 -3 -4 -9 -12 -13 -17 -7 -7 -9 -11 -9
-16 0 -6 -5 -13 -17 -21 -3 -2 -7 -7 -9 -12 -5 -11 -8 -13 -20 -14 -14 -2 -16
0 -42 38 -12 19 -27 39 -32 44 -6 6 -25 32 -43 58 -20 31 -37 53 -45 61 -23
23 -26 30 -23 61 1 11 1 21 -1 28 -2 11 -1 15 2 31 3 10 5 26 5 35 0 9 1 25 2
36 1 16 1 23 -2 33 -2 7 -4 22 -4 33 -1 11 -2 25 -3 31 -1 6 -3 21 -4 34 -1
13 -4 31 -6 42 -5 22 -5 21 17 52 8 10 19 27 25 36 6 9 25 38 43 64 17 26 36
55 43 65 7 10 18 27 26 39 15 23 22 31 27 29 5 -2 16 -18 20 -31 9 -23 17 -41
25 -53 4 -7 13 -21 20 -32 7 -10 13 -24 15 -30 8 -30 14 -39 28 -42 5 -1 10
-3 13 -4 14 -7 38 11 51 36 9 19 9 21 -22 65 -11 16 -28 41 -38 56 -10 15 -22
32 -25 37 -4 6 -10 16 -12 23 -3 7 -10 20 -16 29 -6 9 -12 20 -13 26 -7 27
-30 38 -63 31z m-327 -154 c6 -9 16 -22 23 -28 18 -17 54 -102 54 -128 0 -3 3
-9 6 -14 10 -15 9 -19 -11 -50 -21 -33 -22 -33 -29 -35 -8 -2 -11 -6 -14 -21
-2 -11 -4 -16 -13 -30 -19 -28 -20 -28 -41 3 -8 11 -17 23 -21 26 -11 10 -51
70 -51 77 0 2 2 7 6 10 5 7 5 7 6 40 1 37 1 37 17 62 6 8 11 19 14 29 2 9 7
21 10 26 3 6 8 18 12 29 10 28 15 29 32 4z m-310 -36 c3 -5 13 -19 21 -32 8
-12 18 -25 21 -29 4 -3 9 -11 11 -17 4 -7 8 -14 14 -18 5 -4 15 -16 23 -29 8
-13 23 -35 33 -49 19 -28 20 -32 15 -45 -2 -5 -3 -18 -4 -37 0 -22 -1 -31 -4
-37 -5 -12 -5 -55 0 -66 3 -7 4 -15 4 -56 1 -33 2 -51 4 -59 2 -6 3 -14 4 -18
1 -4 3 -9 5 -11 7 -6 5 -13 -9 -33 -7 -11 -25 -38 -40 -61 -16 -23 -45 -67
-65 -98 -46 -69 -50 -74 -53 -61 -4 13 -2 129 3 142 5 15 6 44 1 56 -3 6 -3
28 -3 182 0 121 -1 178 -2 186 -1 6 -2 15 -2 19 0 4 1 47 2 95 1 101 2 103 21
76z m418 -278 c3 -4 4 -9 5 -32 1 -15 2 -30 4 -33 3 -7 3 -51 0 -58 -1 -3 -3
-14 -4 -24 -3 -29 -8 -27 -32 9 -8 12 -20 30 -27 39 -15 23 -16 27 -4 44 5 8
13 19 17 25 17 24 34 37 41 30z m-210 -10 c3 -5 10 -14 14 -20 4 -6 12 -16 18
-21 26 -22 25 -31 -5 -77 -34 -50 -36 -51 -38 -11 -1 14 -3 29 -4 33 -4 10 -4
96 0 101 4 5 7 4 15 -5z m102 -151 c11 -6 24 -24 29 -40 6 -16 8 -20 19 -24 9
-3 10 -4 29 -34 13 -22 14 -24 14 -48 0 -20 -2 -30 -9 -59 -2 -6 -4 -16 -5
-22 -1 -6 -5 -16 -9 -23 -4 -6 -8 -16 -9 -21 -2 -5 -3 -12 -4 -16 -1 -5 -6
-12 -13 -19 -6 -7 -12 -16 -14 -20 -6 -14 -15 -27 -19 -27 -9 0 -38 38 -45 58
-8 24 -11 32 -18 43 -4 6 -9 15 -10 20 -2 4 -5 11 -7 15 -27 44 -20 123 14
155 6 6 10 13 12 18 4 17 26 49 34 49 1 0 7 -2 11 -5z"/>
<path d="M1132 1127 c-12 -5 -12 -3 -12 -148 0 -155 -1 -136 4 -141 4 -3 7 -4
22 -4 30 0 27 -7 29 91 3 177 3 192 -3 198 -6 6 -30 8 -40 4z"/>
<path d="M36 1115 c-11 -8 -10 -4 -10 -148 -1 -156 -3 -141 24 -141 27 0 26
-4 26 78 0 69 0 69 6 77 21 32 7 136 -19 135 -4 0 -11 0 -15 1 -5 1 -8 0 -12
-2z"/>
<path d="M1127 333 c-8 -11 -9 -275 -1 -281 7 -6 40 -6 45 0 3 4 5 206 3 279
0 12 -39 13 -47 2z"/>
<path d="M39 333 c-6 -7 -5 12 -6 -142 -1 -156 -3 -141 24 -141 28 0 26 -6 25
77 0 68 0 68 6 78 14 21 11 112 -5 127 -8 7 -38 8 -44 1z"/>
</g>
</svg>
