<?xml version="1.0" standalone="no"?>
<!DOCTYPE svg PUBLIC "-//W3C//DTD SVG 20010904//EN"
 "http://www.w3.org/TR/2001/REC-SVG-20010904/DTD/svg10.dtd">
<svg version="1.0" xmlns="http://www.w3.org/2000/svg"
 width="77.000000pt" height="100.000000pt" viewBox="0 0 77.000000 100.000000"
 preserveAspectRatio="xMidYMid meet">
<metadata>
Created by potrace 1.16, written by Peter Selinger 2001-2019
</metadata>
<g transform="translate(0.000000,100.000000) scale(0.100000,-0.100000)"
fill="#000000" stroke="none">
<path d="M37 963 c-4 -3 -7 -197 -7 -430 0 -496 4 -517 72 -414 106 158 230
331 236 327 4 -2 68 -95 142 -205 82 -122 141 -200 151 -201 18 0 109 136 109
163 0 8 -7 21 -16 28 -18 15 -32 2 -66 -60 -9 -17 -22 -31 -27 -31 -6 0 -26
25 -46 55 l-35 55 12 267 c10 262 18 313 48 313 5 0 24 -25 42 -55 25 -42 38
-55 53 -53 41 6 27 45 -72 194 -12 18 -15 17 -43 -16 -37 -43 -146 -193 -202
-277 -23 -35 -46 -63 -52 -63 -6 0 -24 21 -41 47 -16 26 -66 100 -111 164 -45
64 -92 135 -103 158 -21 40 -31 48 -44 34z m82 -197 c20 -32 21 -42 14 -271
-5 -204 -9 -240 -24 -258 -9 -12 -19 -20 -22 -17 -3 3 -7 134 -9 293 -3 305
-1 321 41 253z m395 -259 c-4 -102 -11 -184 -15 -181 -15 9 -119 163 -119 176
0 15 130 201 136 195 2 -2 1 -88 -2 -190z m-265 73 l52 -80 -57 -81 c-31 -44
-60 -77 -64 -72 -9 11 0 313 9 313 4 0 31 -36 60 -80z"/>
</g>
</svg>
