<?xml version="1.0" standalone="no"?>
<!DOCTYPE svg PUBLIC "-//W3C//DTD SVG 20010904//EN"
 "http://www.w3.org/TR/2001/REC-SVG-20010904/DTD/svg10.dtd">
<svg version="1.0" xmlns="http://www.w3.org/2000/svg"
 width="456.000000pt" height="590.000000pt" viewBox="0 0 456.000000 590.000000"
 preserveAspectRatio="xMidYMid meet">
<metadata>
Created by potrace 1.16, written by Peter Selinger 2001-2019
</metadata>
<g transform="translate(0.000000,590.000000) scale(0.500000,-0.500000)"
fill="#000000" stroke="none">
<path d="M45 1133 c-5 -5 -8 -20 -6 -30 1 -3 2 -223 2 -489 1 -475 1 -483 5
-487 5 -5 8 -14 8 -21 0 -21 34 -19 43 2 2 5 7 13 11 17 4 5 10 14 13 21 3 6
8 14 12 19 4 4 9 12 12 18 4 10 19 26 28 30 7 3 11 7 11 11 0 6 18 38 27 48 3
4 9 13 12 18 3 6 8 14 11 17 3 4 9 12 13 19 4 6 10 17 15 22 5 6 10 14 12 19
3 4 7 12 11 16 4 4 9 12 12 17 3 5 9 13 14 17 12 12 23 26 28 37 3 5 8 13 12
17 3 4 8 12 11 17 21 42 42 56 52 33 2 -5 8 -14 12 -19 5 -5 11 -14 14 -21 3
-7 7 -13 9 -15 2 -2 7 -8 10 -13 4 -6 12 -15 18 -22 7 -7 13 -15 15 -20 1 -4
7 -12 11 -18 5 -5 12 -14 14 -21 3 -6 9 -15 13 -19 4 -4 10 -12 12 -18 3 -5 8
-14 12 -18 5 -5 10 -14 13 -19 2 -6 7 -14 11 -17 3 -3 10 -14 15 -23 7 -13 11
-19 16 -22 4 -3 10 -8 12 -13 3 -4 9 -11 12 -15 4 -5 9 -12 12 -17 2 -6 8 -15
13 -20 4 -6 10 -14 13 -20 3 -5 9 -16 15 -22 5 -7 13 -20 18 -28 32 -57 57
-70 70 -36 3 7 9 17 14 22 4 5 10 14 13 20 2 6 8 14 11 18 3 3 7 11 9 17 2 5
6 14 10 18 4 5 10 14 15 21 4 6 10 16 14 21 18 22 17 45 -3 67 -15 16 -17 15
-57 -44 -36 -53 -44 -64 -48 -65 -7 -1 -21 15 -31 34 -5 11 -12 22 -16 26 -4
5 -7 9 -7 10 0 1 -4 7 -10 14 -5 6 -12 15 -14 20 -2 5 -8 13 -12 18 -9 11 -10
31 -5 110 2 29 4 77 5 106 1 29 3 71 4 92 1 21 3 84 5 138 2 54 4 103 4 108 1
5 2 28 3 51 l1 42 13 19 c28 41 41 44 54 15 3 -7 8 -16 11 -19 2 -4 5 -11 7
-16 2 -7 4 -9 12 -13 8 -4 10 -7 16 -18 26 -54 43 -59 65 -22 12 21 13 17 -29
83 -44 66 -63 97 -68 113 -14 39 -34 36 -65 -11 -21 -31 -75 -107 -130 -183
-9 -12 -21 -28 -27 -35 -12 -14 -39 -52 -46 -65 -2 -5 -7 -11 -11 -14 -15 -12
-19 -17 -19 -22 0 -2 -2 -7 -5 -10 -2 -3 -7 -11 -10 -17 -5 -10 -13 -22 -33
-48 -11 -15 -18 -15 -26 1 -3 4 -8 13 -13 19 -5 6 -10 15 -13 20 -2 5 -10 15
-18 21 -7 7 -16 17 -19 23 -3 6 -9 16 -13 21 -4 6 -10 15 -13 20 -3 6 -9 14
-12 18 -4 5 -9 13 -12 18 -3 6 -9 14 -13 19 -4 5 -10 14 -14 21 -4 7 -9 15
-12 19 -3 3 -9 12 -13 20 -5 11 -9 16 -16 21 -5 3 -11 9 -13 13 -2 4 -7 11
-12 16 -4 5 -10 14 -12 19 -2 5 -7 13 -12 17 -4 5 -10 14 -13 20 -3 6 -8 14
-12 18 -4 4 -9 12 -12 18 -3 7 -9 16 -13 21 -5 5 -10 12 -11 16 -2 5 -7 13
-11 19 -5 6 -8 15 -9 20 -2 14 -21 20 -32 9z m65 -180 c3 -4 8 -11 10 -15 2
-4 7 -11 11 -16 4 -5 10 -13 12 -19 3 -5 8 -13 12 -17 13 -16 13 16 6 -393 -1
-90 -2 -166 -3 -168 0 -3 -2 -8 -5 -11 -3 -4 -8 -12 -11 -18 -3 -6 -10 -16
-16 -21 -6 -6 -13 -12 -15 -15 -2 -5 -9 -8 -11 -5 -1 1 -4 203 -6 391 -1 147
-2 197 -4 204 -3 14 -2 102 2 107 4 5 11 4 18 -4z m514 -124 c0 -13 -2 -81 -7
-171 -2 -30 -4 -83 -5 -117 -5 -157 -6 -171 -14 -159 -1 2 -6 6 -11 8 -10 4
-16 12 -19 23 -2 6 -5 10 -11 16 -5 4 -11 11 -14 18 -3 6 -9 15 -13 20 -4 4
-10 12 -12 17 -2 5 -8 15 -14 21 -5 6 -10 12 -11 14 0 3 -6 9 -12 14 -9 7 -12
11 -14 20 -2 6 -5 13 -8 15 -16 15 -17 34 -2 52 4 4 9 12 11 17 2 5 8 13 13
18 4 6 10 14 13 19 2 5 8 13 12 17 4 4 10 13 13 18 3 6 10 15 16 21 6 6 12 14
14 18 2 3 7 10 11 15 4 4 10 12 12 17 3 5 8 13 12 18 5 5 11 13 13 19 13 25
26 31 27 12z m-392 -46 c3 -5 9 -15 15 -22 5 -7 10 -16 12 -20 2 -3 7 -11 12
-17 4 -6 11 -16 15 -23 4 -6 10 -15 14 -20 4 -5 10 -14 14 -21 4 -8 10 -15 15
-18 4 -2 9 -8 11 -12 2 -4 8 -12 13 -18 12 -13 12 -17 -3 -33 -3 -3 -9 -11
-13 -18 -11 -18 -24 -35 -38 -50 -6 -8 -13 -18 -16 -23 -3 -5 -6 -10 -7 -11
-1 -1 -8 -10 -15 -21 -7 -11 -17 -24 -23 -29 -6 -6 -12 -14 -15 -18 -15 -26
-20 -20 -18 23 0 17 2 99 4 181 3 158 4 176 7 180 4 4 9 0 16 -10z"/>
</g>
</svg>
