<?xml version="1.0" standalone="no"?>
<!DOCTYPE svg PUBLIC "-//W3C//DTD SVG 20010904//EN"
 "http://www.w3.org/TR/2001/REC-SVG-20010904/DTD/svg10.dtd">
<svg version="1.0" xmlns="http://www.w3.org/2000/svg"
 width="122.000000pt" height="148.000000pt" viewBox="0 0 122.000000 148.000000"
 preserveAspectRatio="xMidYMid meet">
<metadata>
Created by potrace 1.16, written by Peter Selinger 2001-2019
</metadata>
<g transform="translate(0.000000,148.000000) scale(0.100000,-0.100000)"
fill="#000000" stroke="none">
<path d="M774 1418 c-16 -24 -3 -47 62 -112 35 -36 64 -69 64 -73 -1 -5 -14
-24 -31 -43 l-30 -35 -47 52 c-26 29 -65 66 -86 83 -37 29 -40 29 -58 14 -31
-29 -21 -50 57 -110 41 -33 77 -67 81 -77 4 -13 -3 -29 -22 -48 -15 -16 -30
-29 -33 -29 -3 0 -45 36 -94 80 -48 44 -92 80 -97 80 -13 0 -40 -29 -40 -44 0
-14 81 -90 139 -129 22 -16 41 -34 41 -40 0 -7 -15 -28 -33 -47 -17 -20 -52
-60 -76 -89 l-44 -53 -176 175 c-97 95 -188 181 -203 190 -15 9 -43 17 -63 17
l-35 0 5 -440 c3 -243 10 -451 15 -465 16 -42 46 -30 137 56 77 74 191 196
203 220 6 10 20 29 33 41 12 13 34 39 49 58 l27 35 78 -78 c43 -43 84 -82 92
-87 11 -6 -1 -27 -60 -95 -98 -116 -96 -112 -83 -132 27 -44 55 -25 150 104
46 61 47 62 71 46 21 -14 43 -43 43 -57 0 -3 -34 -40 -75 -82 -41 -42 -75 -82
-75 -89 0 -14 32 -45 46 -45 5 0 38 34 72 75 76 91 98 95 115 24 5 -21 -3 -38
-48 -92 -30 -37 -55 -69 -55 -73 0 -8 41 -44 50 -44 15 0 100 103 200 241 19
26 45 61 57 77 31 40 10 68 -48 63 -8 0 -28 -21 -43 -46 -16 -25 -32 -45 -36
-45 -3 0 -70 66 -149 147 -166 173 -146 153 -195 196 -33 29 -38 38 -32 61 4
15 22 42 40 59 19 18 48 52 66 77 17 25 57 72 88 106 31 33 79 86 105 118 58
68 67 68 143 -10 57 -58 72 -64 98 -35 22 24 14 38 -44 86 -27 22 -51 48 -55
58 -3 9 -12 17 -18 17 -7 0 -52 42 -102 94 -90 95 -126 119 -141 94z m-612
-367 c2 -5 30 -38 63 -74 33 -35 67 -72 76 -83 9 -10 48 -48 87 -84 39 -36 72
-70 72 -77 0 -6 -31 -44 -70 -83 -38 -39 -70 -76 -70 -81 0 -5 -7 -12 -15 -15
-8 -4 -15 -10 -15 -14 0 -4 -18 -27 -41 -51 -22 -24 -47 -56 -55 -71 -13 -25
-53 -40 -54 -20 -1 4 -3 147 -5 319 -2 171 -5 315 -6 320 -3 16 1 23 15 23 8
0 16 -4 18 -9z"/>
</g>
</svg>
