<?xml version="1.0" standalone="no"?>
<!DOCTYPE svg PUBLIC "-//W3C//DTD SVG 20010904//EN"
 "http://www.w3.org/TR/2001/REC-SVG-20010904/DTD/svg10.dtd">
<svg version="1.0" xmlns="http://www.w3.org/2000/svg"
 width="82.000000pt" height="100.000000pt" viewBox="0 0 82.000000 100.000000"
 preserveAspectRatio="xMidYMid meet">
<metadata>
Created by potrace 1.16, written by Peter Selinger 2001-2019
</metadata>
<g transform="translate(0.000000,100.000000) scale(0.100000,-0.100000)"
fill="#000000" stroke="none">
<path d="M514 955 c-4 -9 12 -37 41 -70 39 -46 45 -58 35 -70 -19 -23 -33 -18
-80 30 -29 30 -52 45 -65 43 -30 -5 -30 -34 1 -60 61 -50 84 -77 78 -91 -12
-31 -35 -25 -90 23 -58 51 -90 62 -101 35 -7 -19 18 -48 75 -87 23 -16 42 -35
42 -42 0 -7 -22 -37 -50 -67 l-49 -54 -88 92 c-109 115 -168 163 -199 163
l-24 0 0 -309 c0 -299 1 -310 20 -316 10 -3 28 -1 39 5 24 12 184 190 215 237
12 18 29 33 38 33 9 0 37 -24 63 -54 53 -62 52 -66 -14 -131 -43 -41 -52 -71
-24 -82 12 -5 32 11 73 58 50 55 60 62 74 50 24 -20 21 -29 -34 -87 -55 -58
-58 -65 -34 -85 15 -12 22 -7 64 40 33 38 53 52 64 48 25 -10 19 -35 -19 -87
-37 -50 -38 -80 -4 -80 18 0 189 213 189 236 0 18 -26 35 -44 28 -9 -4 -24
-20 -32 -36 -8 -16 -19 -28 -24 -26 -12 4 -250 255 -250 263 0 3 33 45 73 92
39 47 89 108 111 134 21 27 46 49 55 49 10 0 32 -16 51 -35 36 -37 74 -46 84
-19 7 17 -216 244 -240 244 -8 0 -17 -7 -20 -15z m-312 -346 c54 -56 98 -108
98 -115 0 -7 -26 -42 -58 -76 -32 -35 -73 -82 -91 -106 -18 -24 -38 -41 -44
-39 -12 4 -21 437 -10 437 4 0 51 -46 105 -101z"/>
</g>
</svg>
