<?xml version="1.0" standalone="no"?>
<!DOCTYPE svg PUBLIC "-//W3C//DTD SVG 20010904//EN"
 "http://www.w3.org/TR/2001/REC-SVG-20010904/DTD/svg10.dtd">
<svg version="1.0" xmlns="http://www.w3.org/2000/svg"
 width="486.000000pt" height="590.000000pt" viewBox="0 0 486.000000 590.000000"
 preserveAspectRatio="xMidYMid meet">
<metadata>
Created by potrace 1.16, written by Peter Selinger 2001-2019
</metadata>
<g transform="translate(0.000000,590.000000) scale(0.500000,-0.500000)"
fill="#000000" stroke="none">
<path d="M621 1138 c-18 -9 -11 -34 18 -65 27 -28 56 -58 63 -65 15 -12 11
-36 -7 -51 -5 -4 -11 -11 -14 -15 -8 -13 -16 -7 -57 39 -14 15 -49 46 -58 51
-4 2 -9 6 -11 9 -11 17 -38 12 -46 -10 -7 -18 5 -45 22 -52 6 -3 11 -6 14 -11
4 -5 10 -10 19 -15 44 -23 76 -69 59 -83 -4 -3 -11 -11 -18 -17 -16 -16 -17
-16 -41 2 -28 22 -39 29 -50 38 -5 4 -13 12 -17 18 -25 38 -64 56 -83 38 -19
-18 -16 -36 8 -52 8 -6 16 -13 22 -21 10 -14 23 -26 39 -34 7 -3 18 -11 25
-17 7 -7 17 -15 22 -18 16 -11 16 -21 -1 -39 -6 -6 -13 -15 -16 -20 -3 -6 -10
-13 -16 -18 -6 -4 -12 -11 -15 -14 -2 -4 -7 -10 -11 -13 -4 -3 -10 -11 -13
-17 -3 -6 -8 -13 -11 -15 -3 -2 -10 -8 -16 -13 l-11 -8 -9 5 c-7 5 -29 26 -74
74 -11 11 -20 21 -21 22 -4 4 -92 92 -95 95 -4 4 -29 28 -33 33 -31 31 -57 51
-67 51 -2 0 -6 3 -10 7 -12 10 -15 11 -40 11 -35 0 -32 9 -30 -90 1 -62 2 -83
4 -88 4 -9 4 -37 0 -48 -4 -11 -4 -37 0 -48 4 -11 4 -33 0 -45 -4 -14 -4 -78
0 -92 3 -9 3 -28 3 -151 -1 -140 -1 -141 3 -148 3 -4 6 -10 7 -14 5 -16 20
-22 37 -15 5 1 12 3 16 4 7 1 12 6 40 33 18 17 38 37 46 44 8 7 19 19 24 27 6
8 15 18 20 23 6 6 13 13 16 16 3 3 12 12 19 19 6 7 12 14 12 16 0 5 12 19 23
25 6 4 12 8 13 10 1 2 4 9 8 16 4 10 10 18 30 38 15 16 26 29 31 37 7 13 16
21 26 21 6 0 27 -14 27 -18 0 -1 12 -14 28 -30 15 -15 28 -29 29 -31 1 -3 8
-9 16 -15 8 -5 18 -14 22 -19 4 -5 9 -10 11 -11 7 -4 5 -10 -6 -21 -6 -6 -16
-19 -23 -29 -14 -20 -31 -39 -63 -72 -34 -35 -35 -64 -4 -72 16 -4 58 29 79
63 13 22 19 30 31 43 7 8 15 18 18 22 9 15 15 17 27 6 5 -4 13 -10 18 -15 20
-16 14 -48 -14 -66 -6 -4 -18 -15 -27 -25 -9 -10 -26 -27 -36 -38 -29 -30 -29
-51 -1 -65 19 -10 21 -9 38 13 8 9 25 29 38 43 13 14 27 30 31 35 12 19 43 17
48 -2 1 -4 3 -11 4 -16 3 -11 2 -18 -2 -26 -2 -4 -6 -11 -8 -16 -3 -5 -8 -11
-13 -15 -5 -4 -10 -10 -14 -17 -3 -6 -11 -17 -17 -24 -28 -31 -28 -34 -5 -55
22 -20 51 -4 80 43 3 4 8 11 13 15 5 4 13 14 18 22 6 8 11 15 12 16 1 1 4 6 7
11 3 5 8 12 12 15 4 3 10 9 13 15 4 5 10 13 15 18 8 8 25 38 25 43 0 2 4 6 10
11 17 14 34 41 34 53 0 21 -36 41 -55 29 -14 -8 -27 -21 -32 -31 -6 -12 -16
-31 -19 -34 -6 -8 -17 0 -47 31 -5 5 -101 103 -108 109 -1 2 -8 9 -15 16 -8 8
-15 15 -18 18 -29 28 -44 45 -45 50 -2 10 -6 15 -14 16 -11 2 -21 9 -29 20 -3
4 -10 11 -15 15 -26 18 -18 52 22 91 21 20 26 27 47 58 7 10 22 28 33 39 12
12 21 23 21 24 0 2 18 21 41 44 30 31 43 46 52 59 23 35 37 47 57 47 19 0 23
-3 56 -43 7 -8 17 -18 22 -21 5 -4 14 -11 19 -16 17 -16 57 3 57 27 0 5 -50
57 -78 81 -6 5 -12 13 -15 18 -3 7 -7 10 -11 12 -18 7 -68 51 -68 59 0 1 -10
12 -22 24 -12 12 -23 25 -26 28 -27 33 -60 50 -79 41z m-469 -326 c19 -19 36
-37 37 -40 2 -3 9 -10 16 -15 10 -7 14 -12 19 -21 9 -16 25 -33 41 -42 7 -4
14 -10 16 -14 2 -4 7 -10 10 -13 4 -3 9 -10 12 -15 3 -4 8 -10 12 -12 5 -2 10
-6 12 -8 2 -2 7 -6 11 -8 32 -17 32 -55 0 -75 -4 -3 -11 -10 -16 -15 -4 -6
-11 -14 -16 -17 -4 -4 -10 -12 -12 -17 -7 -13 -9 -15 -22 -20 -10 -3 -11 -4
-14 -12 -4 -14 -6 -19 -15 -24 -6 -4 -10 -9 -12 -14 -2 -7 -17 -22 -21 -22 -1
0 -6 -6 -11 -13 -5 -8 -15 -20 -23 -28 -7 -9 -16 -21 -20 -30 -8 -16 -15 -21
-29 -17 -14 4 -13 1 -13 76 0 54 -1 69 -3 77 -4 12 -4 30 0 42 4 14 4 87 0 99
-4 10 -4 80 -1 93 2 6 2 10 0 17 -3 10 -4 107 -1 117 2 10 8 6 43 -29z"/>
</g>
</svg>
