<?xml version="1.0" standalone="no"?>
<!DOCTYPE svg PUBLIC "-//W3C//DTD SVG 20010904//EN"
 "http://www.w3.org/TR/2001/REC-SVG-20010904/DTD/svg10.dtd">
<svg version="1.0" xmlns="http://www.w3.org/2000/svg"
 width="128.000000pt" height="148.000000pt" viewBox="0 0 128.000000 148.000000"
 preserveAspectRatio="xMidYMid meet">
<metadata>
Created by potrace 1.16, written by Peter Selinger 2001-2019
</metadata>
<g transform="translate(0.000000,148.000000) scale(0.100000,-0.100000)"
fill="#000000" stroke="none">
<path d="M876 1401 c-16 -18 -14 -21 40 -68 45 -40 55 -54 50 -71 -14 -44 -38
-36 -99 32 -32 36 -64 66 -71 66 -15 0 -56 -42 -56 -58 0 -6 6 -15 14 -19 7
-4 39 -31 70 -60 l58 -51 -97 -114 c-138 -160 -122 -148 -152 -113 -14 17 -81
87 -148 156 -67 69 -130 138 -140 153 -15 22 -24 27 -54 24 l-36 -3 4 -195 3
-196 -46 -38 c-51 -41 -102 -131 -129 -226 -15 -55 -37 -284 -37 -394 0 -54 3
-61 38 -96 23 -24 55 -43 82 -50 25 -7 50 -16 57 -22 17 -14 51 -1 58 24 9 26
4 29 -84 58 -67 23 -111 55 -111 82 0 21 36 19 85 -6 61 -32 110 -33 110 -1 0
15 -9 21 -35 26 -51 9 -129 46 -137 65 -3 8 1 22 9 30 13 13 19 13 49 1 133
-57 153 -59 147 -10 -2 21 -10 29 -33 33 -16 4 -59 19 -94 35 l-64 29 5 93 c3
51 10 98 15 105 5 7 15 32 23 56 15 47 71 119 86 109 5 -3 11 -84 12 -183 2
-98 6 -182 8 -186 8 -13 51 -9 66 6 7 7 82 95 167 194 l155 181 120 -126 c67
-69 122 -129 124 -134 2 -4 -31 -41 -72 -81 -42 -41 -76 -79 -76 -86 0 -17 37
-52 54 -52 8 0 42 34 76 76 46 56 68 74 83 72 36 -5 29 -25 -35 -100 -86 -99
-85 -96 -53 -124 16 -13 32 -24 36 -24 4 0 20 17 36 37 52 71 212 270 228 283
8 7 15 18 15 24 0 13 -47 51 -63 51 -6 0 -25 -20 -42 -45 -17 -25 -36 -45 -42
-45 -16 0 -323 321 -323 337 0 8 30 46 68 84 37 38 81 86 97 107 15 21 42 53
59 71 17 18 39 45 49 59 10 15 24 27 31 27 7 0 39 -27 70 -60 32 -33 63 -60
70 -60 17 0 46 33 46 51 0 9 -63 75 -139 147 -146 138 -170 152 -205 113z
m-462 -351 c23 -24 74 -76 114 -114 39 -38 72 -74 72 -80 0 -6 -23 -36 -51
-66 -27 -30 -79 -91 -116 -135 -36 -44 -71 -80 -77 -80 -8 0 -12 78 -16 265
-3 146 -3 269 -2 273 5 10 26 -7 76 -63z"/>
</g>
</svg>
