<?xml version="1.0" standalone="no"?>
<!DOCTYPE svg PUBLIC "-//W3C//DTD SVG 20010904//EN"
 "http://www.w3.org/TR/2001/REC-SVG-20010904/DTD/svg10.dtd">
<svg version="1.0" xmlns="http://www.w3.org/2000/svg"
 width="86.000000pt" height="100.000000pt" viewBox="0 0 86.000000 100.000000"
 preserveAspectRatio="xMidYMid meet">
<metadata>
Created by potrace 1.16, written by Peter Selinger 2001-2019
</metadata>
<g transform="translate(0.000000,100.000000) scale(0.100000,-0.100000)"
fill="#000000" stroke="none">
<path d="M603 963 c-22 -8 -14 -36 18 -69 30 -31 32 -54 4 -54 -8 0 -29 18
-47 40 -36 45 -71 51 -76 13 -2 -14 10 -33 37 -59 23 -20 41 -41 41 -45 0 -4
-30 -43 -67 -85 l-68 -77 -116 122 c-152 160 -154 160 -154 -15 l0 -131 -36
-34 c-70 -66 -92 -139 -104 -345 -6 -99 -5 -102 20 -132 26 -31 116 -69 135
-57 5 3 10 15 10 25 0 13 -14 23 -53 35 -62 21 -86 40 -70 56 8 8 19 6 41 -5
17 -9 42 -16 57 -16 44 0 27 25 -31 45 -59 20 -72 31 -56 47 6 6 27 4 61 -8
40 -15 53 -16 63 -6 17 17 -3 34 -64 56 -27 10 -50 25 -53 36 -15 48 39 220
69 220 13 0 16 -20 18 -117 3 -113 4 -118 25 -121 14 -2 30 6 42 20 10 13 58
69 106 126 47 56 90 102 95 102 13 0 150 -153 150 -168 0 -7 -20 -32 -45 -55
-50 -44 -57 -80 -19 -85 15 -2 33 11 64 47 23 28 46 51 51 51 21 0 6 -42 -31
-86 -43 -49 -45 -61 -16 -78 15 -9 22 -6 41 19 13 17 55 70 94 119 58 73 68
92 60 107 -14 27 -28 24 -66 -13 l-33 -31 -102 108 c-57 59 -104 112 -106 116
-2 5 20 32 50 62 29 29 71 78 93 110 22 31 47 56 55 57 8 0 33 -19 57 -42 36
-35 44 -39 58 -28 28 23 16 46 -67 127 -87 83 -115 103 -135 96z m-280 -298
c90 -97 90 -77 -6 -191 -32 -38 -63 -69 -70 -69 -9 0 -12 45 -13 173 -1 94 1
172 5 172 3 0 41 -39 84 -85z"/>
</g>
</svg>
