<?xml version="1.0" standalone="no"?>
<!DOCTYPE svg PUBLIC "-//W3C//DTD SVG 20010904//EN"
 "http://www.w3.org/TR/2001/REC-SVG-20010904/DTD/svg10.dtd">
<svg version="1.0" xmlns="http://www.w3.org/2000/svg"
 width="508.000000pt" height="590.000000pt" viewBox="0 0 508.000000 590.000000"
 preserveAspectRatio="xMidYMid meet">
<metadata>
Created by potrace 1.16, written by Peter Selinger 2001-2019
</metadata>
<g transform="translate(0.000000,590.000000) scale(0.500000,-0.500000)"
fill="#000000" stroke="none">
<path d="M709 1133 c-31 -21 -28 -27 35 -85 28 -26 29 -28 16 -44 -16 -19 -14
-20 -72 40 -56 57 -54 57 -82 26 -22 -23 -22 -26 8 -54 93 -86 89 -77 58 -112
-27 -29 -67 -75 -106 -122 -41 -48 -36 -48 -76 -5 -16 18 -50 53 -75 80 -120
126 -132 139 -137 150 -6 14 -11 16 -37 17 -42 1 -40 7 -37 -98 1 -46 2 -113
2 -150 l1 -68 -8 -8 c-4 -4 -12 -10 -18 -13 -17 -8 -53 -49 -58 -66 -1 -2 -4
-8 -6 -12 -3 -5 -7 -14 -9 -20 -2 -6 -7 -15 -11 -21 -9 -13 -15 -25 -15 -31 0
-3 -2 -10 -4 -16 -2 -7 -4 -14 -4 -16 0 -3 -2 -8 -4 -13 -2 -5 -4 -12 -4 -16
0 -4 -1 -11 -3 -15 -1 -5 -3 -22 -4 -39 -1 -24 -2 -33 -5 -40 -4 -7 -4 -14 -4
-52 0 -39 0 -44 -4 -52 -4 -8 -4 -14 -5 -65 l-2 -56 9 -19 c14 -33 50 -63 84
-71 31 -8 37 -10 44 -14 16 -11 36 -9 49 5 17 19 6 46 -18 46 -11 0 -37 7 -48
13 -6 2 -13 5 -16 6 -19 4 -53 26 -59 37 -15 30 11 42 43 20 4 -3 12 -7 17 -9
6 -1 15 -6 20 -10 15 -11 54 -13 63 -4 15 15 5 34 -20 35 -20 2 -31 6 -47 17
-5 4 -12 8 -16 8 -45 9 -69 59 -28 59 14 0 18 -2 28 -11 7 -6 10 -7 21 -8 17
-2 26 -4 29 -8 9 -11 49 -14 56 -5 12 14 3 41 -14 43 -5 1 -17 5 -26 9 -9 4
-21 9 -25 10 -20 6 -78 37 -80 43 -2 10 1 99 4 106 2 3 4 11 5 19 1 8 4 18 9
27 3 8 7 18 8 21 1 4 5 14 9 23 4 9 8 19 9 23 0 4 4 11 8 15 3 4 8 12 11 16
10 20 37 36 41 25 1 -3 3 -67 4 -144 1 -76 3 -140 4 -142 10 -15 58 -8 67 10
2 4 11 16 20 26 9 11 23 27 31 36 8 9 28 32 44 51 17 19 43 49 58 67 15 18 34
40 42 49 8 9 20 23 27 31 25 32 20 34 79 -28 28 -29 70 -73 94 -97 26 -27 43
-46 43 -49 0 -8 -44 -56 -88 -96 -38 -35 -39 -36 -14 -63 23 -24 27 -25 44
-11 5 4 12 9 15 10 2 1 6 6 9 10 2 4 8 12 13 18 6 6 17 20 26 31 29 36 36 41
51 38 14 -3 13 -16 -2 -35 -16 -19 -46 -56 -68 -81 -30 -35 -30 -37 -3 -59 33
-26 32 -26 74 31 44 58 95 122 155 194 26 32 27 33 7 53 -32 33 -38 31 -78
-24 -10 -14 -23 -26 -29 -26 -3 0 -15 12 -84 85 -26 28 -74 77 -106 110 -74
74 -71 68 -41 101 9 10 21 24 28 31 6 7 15 15 21 18 10 5 24 20 32 32 3 4 10
14 16 21 6 7 13 15 14 18 5 9 17 25 30 38 7 8 14 15 16 17 2 2 6 6 10 7 4 3 8
7 11 15 3 5 7 12 10 15 3 3 7 8 9 12 17 32 19 32 78 -27 56 -56 55 -55 70 -44
41 33 23 66 -83 157 -5 5 -32 30 -60 56 -27 27 -52 49 -55 50 -10 4 -33 2 -41
-3z m-403 -266 c11 -11 21 -23 23 -26 2 -4 4 -7 5 -7 3 0 26 -22 29 -28 5 -10
17 -22 33 -33 7 -6 14 -12 14 -13 0 -2 40 -42 57 -57 18 -16 18 -16 -22 -61
-40 -45 -80 -91 -94 -108 -56 -66 -68 -77 -71 -64 -1 5 -5 368 -5 398 1 24 5
24 31 -1z"/>
</g>
</svg>
