<?xml version="1.0" standalone="no"?>
<!DOCTYPE svg PUBLIC "-//W3C//DTD SVG 20010904//EN"
 "http://www.w3.org/TR/2001/REC-SVG-20010904/DTD/svg10.dtd">
<svg version="1.0" xmlns="http://www.w3.org/2000/svg"
 width="104.000000pt" height="148.000000pt" viewBox="0 0 104.000000 148.000000"
 preserveAspectRatio="xMidYMid meet">
<metadata>
Created by potrace 1.16, written by Peter Selinger 2001-2019
</metadata>
<g transform="translate(0.000000,148.000000) scale(0.100000,-0.100000)"
fill="#000000" stroke="none">
<path d="M487 1424 c-6 -6 -3 -64 8 -171 5 -49 -11 -58 -34 -20 -8 12 -41 55
-74 95 -54 65 -64 73 -91 70 -56 -5 -47 -38 42 -141 44 -50 96 -108 116 -126
32 -31 36 -41 36 -83 0 -31 -4 -48 -12 -49 -7 0 -107 -1 -223 -2 l-210 -2 0
-470 0 -470 34 0 35 0 0 438 1 438 399 0 400 0 0 -438 1 -438 30 0 30 0 0 470
0 470 -195 2 c-107 1 -201 2 -207 2 -9 1 -13 19 -13 55 0 48 4 59 45 112 25
31 45 60 45 63 0 4 10 17 23 31 49 54 68 90 65 122 -2 27 -8 34 -29 36 -22 3
-31 -4 -49 -35 -45 -75 -93 -143 -103 -143 -5 0 -8 37 -7 83 1 45 2 88 1 95
-1 12 -52 17 -64 6z"/>
</g>
</svg>
