<?xml version="1.0" standalone="no"?>
<!DOCTYPE svg PUBLIC "-//W3C//DTD SVG 20010904//EN"
 "http://www.w3.org/TR/2001/REC-SVG-20010904/DTD/svg10.dtd">
<svg version="1.0" xmlns="http://www.w3.org/2000/svg"
 width="416.000000pt" height="590.000000pt" viewBox="0 0 416.000000 590.000000"
 preserveAspectRatio="xMidYMid meet">
<metadata>
Created by potrace 1.16, written by Peter Selinger 2001-2019
</metadata>
<g transform="translate(0.000000,590.000000) scale(0.500000,-0.500000)"
fill="#000000" stroke="none">
<path d="M399 1140 c-3 -1 -6 -3 -7 -5 -2 -4 1 -144 3 -154 3 -15 -20 0 -29
18 -3 4 -10 13 -16 20 -6 7 -15 18 -19 25 -5 9 -11 16 -19 23 -7 6 -15 14 -19
20 -14 24 -29 35 -49 35 -40 0 -49 -30 -19 -62 8 -8 18 -21 22 -28 5 -9 12
-18 25 -30 10 -9 23 -23 28 -30 6 -8 27 -30 48 -50 46 -45 45 -42 44 -84 -1
-46 23 -40 -177 -40 -169 1 -169 1 -174 -4 -4 -4 -8 -579 -5 -737 0 -16 49
-21 56 -7 2 3 2 99 2 348 0 321 0 344 3 346 6 5 630 4 635 -1 4 -4 3 33 2
-397 0 -343 -4 -303 26 -303 31 0 27 -49 27 376 -1 201 -2 368 -2 371 -3 11
-2 11 -170 9 -184 -1 -161 -8 -161 47 0 43 0 44 15 60 10 11 19 24 19 26 0 1
6 8 13 16 8 9 15 17 19 26 3 7 7 14 9 16 2 1 7 8 12 15 5 7 11 13 12 13 2 1 7
8 12 15 5 8 11 16 14 19 22 20 24 71 4 81 -25 12 -40 1 -66 -46 -11 -20 -24
-39 -32 -48 -4 -4 -10 -12 -14 -18 -6 -10 -17 -21 -21 -21 -5 0 -6 13 -6 72 1
74 3 69 -24 69 -9 1 -19 0 -21 -1z"/>
</g>
</svg>
