<?xml version="1.0" standalone="no"?>
<!DOCTYPE svg PUBLIC "-//W3C//DTD SVG 20010904//EN"
 "http://www.w3.org/TR/2001/REC-SVG-20010904/DTD/svg10.dtd">
<svg version="1.0" xmlns="http://www.w3.org/2000/svg"
 width="70.000000pt" height="100.000000pt" viewBox="0 0 70.000000 100.000000"
 preserveAspectRatio="xMidYMid meet">
<metadata>
Created by potrace 1.16, written by Peter Selinger 2001-2019
</metadata>
<g transform="translate(0.000000,100.000000) scale(0.100000,-0.100000)"
fill="#000000" stroke="none">
<path d="M327 964 c-4 -4 -4 -36 -1 -71 5 -42 3 -63 -4 -63 -6 0 -30 27 -53
60 -31 45 -48 60 -66 60 -13 0 -26 -7 -29 -15 -8 -20 10 -47 85 -125 60 -64
79 -98 66 -119 -4 -7 -58 -11 -145 -11 -76 0 -141 -3 -143 -7 -8 -13 -20 -589
-13 -617 5 -21 12 -27 29 -24 l22 3 5 295 5 295 210 3 c116 2 234 0 262 -3
l53 -6 2 -292 3 -292 23 -3 22 -3 -2 323 -3 323 -135 5 -135 5 -3 31 c-2 24 9
46 58 108 67 87 80 136 37 136 -17 0 -30 -13 -53 -52 -16 -29 -34 -51 -39 -48
-6 3 -10 28 -10 55 0 43 -3 50 -20 53 -12 2 -24 0 -28 -4z"/>
</g>
</svg>
