<?xml version="1.0" standalone="no"?>
<!DOCTYPE svg PUBLIC "-//W3C//DTD SVG 20010904//EN"
 "http://www.w3.org/TR/2001/REC-SVG-20010904/DTD/svg10.dtd">
<svg version="1.0" xmlns="http://www.w3.org/2000/svg"
 width="102.000000pt" height="148.000000pt" viewBox="0 0 102.000000 148.000000"
 preserveAspectRatio="xMidYMid meet">
<metadata>
Created by potrace 1.16, written by Peter Selinger 2001-2019
</metadata>
<g transform="translate(0.000000,148.000000) scale(0.100000,-0.100000)"
fill="#000000" stroke="none">
<path d="M353 1404 c-10 -26 19 -44 112 -69 48 -14 90 -27 93 -30 7 -7 4 -71
-4 -97 -5 -16 -15 -14 -100 17 -103 37 -127 37 -122 -4 3 -23 12 -28 93 -54
144 -45 136 -39 134 -97 -1 -28 -5 -53 -9 -55 -4 -3 -47 11 -95 30 -114 45
-139 50 -154 31 -26 -31 3 -51 126 -90 65 -21 120 -40 122 -42 2 -2 6 -21 7
-41 7 -66 -1 -68 -112 -27 -123 45 -171 53 -181 29 -12 -33 12 -47 140 -85 69
-21 131 -41 137 -45 11 -7 13 -104 2 -121 -5 -8 -79 -11 -247 -10 l-240 1 -3
-293 c-2 -264 -1 -293 14 -299 9 -3 23 -2 32 3 12 8 15 49 16 263 l1 254 390
1 390 1 0 -258 0 -258 23 -6 c13 -3 28 -1 33 4 5 5 8 127 7 299 l-3 289 -157
-1 c-135 -1 -158 1 -164 15 -3 9 -7 169 -9 355 -2 317 -3 340 -20 352 -10 8
-29 14 -40 14 -12 0 -48 9 -80 20 -71 24 -123 26 -132 4z"/>
</g>
</svg>
