<?xml version="1.0" standalone="no"?>
<!DOCTYPE svg PUBLIC "-//W3C//DTD SVG 20010904//EN"
 "http://www.w3.org/TR/2001/REC-SVG-20010904/DTD/svg10.dtd">
<svg version="1.0" xmlns="http://www.w3.org/2000/svg"
 width="69.000000pt" height="100.000000pt" viewBox="0 0 69.000000 100.000000"
 preserveAspectRatio="xMidYMid meet">
<metadata>
Created by potrace 1.16, written by Peter Selinger 2001-2019
</metadata>
<g transform="translate(0.000000,100.000000) scale(0.100000,-0.100000)"
fill="#000000" stroke="none">
<path d="M247 963 c-4 -3 -7 -14 -7 -24 0 -14 15 -23 58 -35 65 -19 82 -30 82
-53 0 -36 -19 -40 -81 -18 -44 17 -61 19 -70 10 -22 -22 0 -42 69 -63 72 -21
85 -33 75 -69 -7 -26 -4 -26 -85 5 -54 22 -70 25 -82 15 -25 -21 -8 -37 70
-61 80 -25 108 -47 98 -74 -8 -22 -33 -18 -121 15 -50 19 -65 21 -75 11 -24
-24 6 -46 98 -73 l89 -25 0 -40 0 -39 -165 -5 -165 -5 0 -200 c0 -193 1 -200
20 -200 19 0 20 8 23 172 l2 171 87 7 c100 9 420 1 431 -9 4 -4 8 -69 8 -144
2 -210 2 -204 21 -200 30 6 36 54 28 234 l-7 174 -103 0 c-61 0 -106 4 -110
10 -4 6 -7 112 -6 235 0 177 -3 226 -13 235 -12 9 -139 50 -157 50 -3 0 -9 -3
-12 -7z"/>
</g>
</svg>
