<?xml version="1.0" standalone="no"?>
<!DOCTYPE svg PUBLIC "-//W3C//DTD SVG 20010904//EN"
 "http://www.w3.org/TR/2001/REC-SVG-20010904/DTD/svg10.dtd">
<svg version="1.0" xmlns="http://www.w3.org/2000/svg"
 width="404.000000pt" height="590.000000pt" viewBox="0 0 404.000000 590.000000"
 preserveAspectRatio="xMidYMid meet">
<metadata>
Created by potrace 1.16, written by Peter Selinger 2001-2019
</metadata>
<g transform="translate(0.000000,590.000000) scale(0.500000,-0.500000)"
fill="#000000" stroke="none">
<path d="M293 1138 c-11 -6 -12 -35 -1 -44 6 -6 60 -24 93 -32 32 -8 58 -18
61 -24 3 -5 1 -22 -7 -67 -3 -15 -10 -14 -110 23 -43 16 -66 11 -66 -15 0 -24
2 -25 57 -42 128 -38 126 -37 123 -66 -5 -66 -4 -65 -92 -28 -8 3 -25 9 -38
14 -14 5 -27 10 -29 11 -30 16 -61 -16 -41 -43 5 -6 6 -7 40 -18 12 -4 31 -10
43 -14 12 -4 29 -9 39 -13 77 -25 74 -22 75 -62 0 -33 -1 -40 -9 -40 -4 0 -90
29 -122 41 -81 30 -99 29 -99 -7 0 -21 2 -23 53 -38 105 -31 162 -50 167 -56
3 -4 3 -90 -1 -95 -3 -4 -6 -4 -192 -3 -211 1 -197 1 -197 -13 0 -4 0 -106 -1
-229 -1 -259 -4 -232 27 -232 32 0 29 -23 27 208 -1 191 -1 197 2 202 6 7 610
7 616 0 3 -5 3 -9 2 -202 -2 -231 -5 -208 27 -208 32 0 29 -15 27 158 0 80 -1
182 -1 225 0 104 18 91 -129 91 -90 0 -118 0 -120 2 -9 8 -10 12 -11 78 -1 58
-5 97 -9 104 -3 5 -1 254 2 269 6 23 6 105 0 111 -7 8 -32 18 -47 20 -8 1 -19
3 -25 5 -5 1 -15 4 -21 6 -6 1 -26 8 -44 14 -34 12 -57 14 -69 9z"/>
</g>
</svg>
