<?xml version="1.0" standalone="no"?>
<!DOCTYPE svg PUBLIC "-//W3C//DTD SVG 20010904//EN"
 "http://www.w3.org/TR/2001/REC-SVG-20010904/DTD/svg10.dtd">
<svg version="1.0" xmlns="http://www.w3.org/2000/svg"
 width="110.000000pt" height="148.000000pt" viewBox="0 0 110.000000 148.000000"
 preserveAspectRatio="xMidYMid meet">
<metadata>
Created by potrace 1.16, written by Peter Selinger 2001-2019
</metadata>
<g transform="translate(0.000000,148.000000) scale(0.100000,-0.100000)"
fill="#000000" stroke="none">
<path d="M70 1368 c0 -71 -21 -868 -23 -893 -2 -17 4 -20 43 -20 l45 0 3 260
c2 143 6 341 10 439 l7 180 375 0 375 0 7 -74 c4 -41 5 -103 2 -137 -3 -34 -1
-76 5 -95 8 -27 20 -257 25 -518 l1 -55 45 0 45 0 -2 35 c-1 19 -9 190 -17
380 -9 190 -19 391 -22 448 l-6 102 -459 0 -459 0 0 -52z"/>
<path d="M550 891 l-35 -6 3 -90 3 -90 -51 -67 c-27 -37 -62 -76 -78 -88 -15
-12 -42 -40 -60 -62 -34 -43 -32 -56 11 -79 16 -9 24 -5 51 27 17 20 36 45 41
54 22 38 77 92 83 82 4 -5 4 -122 1 -258 -4 -172 -2 -251 5 -257 6 -4 25 -6
41 -5 l30 3 1 265 c1 222 3 265 15 262 8 -1 43 -33 79 -70 109 -112 130 -123
130 -68 0 31 -13 48 -110 147 l-110 113 0 92 c0 51 -3 94 -7 96 -5 2 -24 2
-43 -1z"/>
</g>
</svg>
