<?xml version="1.0" standalone="no"?>
<!DOCTYPE svg PUBLIC "-//W3C//DTD SVG 20010904//EN"
 "http://www.w3.org/TR/2001/REC-SVG-20010904/DTD/svg10.dtd">
<svg version="1.0" xmlns="http://www.w3.org/2000/svg"
 width="442.000000pt" height="590.000000pt" viewBox="0 0 442.000000 590.000000"
 preserveAspectRatio="xMidYMid meet">
<metadata>
Created by potrace 1.16, written by Peter Selinger 2001-2019
</metadata>
<g transform="translate(0.000000,590.000000) scale(0.500000,-0.500000)"
fill="#000000" stroke="none">
<path d="M74 1136 c-17 -1 -16 6 -16 -101 0 -83 0 -95 -3 -105 -3 -10 -4 -30
-5 -185 -1 -170 -1 -174 -5 -185 -12 -30 -8 -196 4 -200 54 -16 65 -4 64 71
-1 58 -1 60 3 71 4 10 4 11 4 182 0 172 0 172 4 182 5 10 5 11 3 101 -1 87 -1
91 3 95 5 6 589 7 596 1 4 -3 4 -7 4 -35 0 -26 1 -34 3 -40 4 -6 4 -16 4 -87
0 -76 0 -80 4 -87 4 -7 4 -12 5 -92 1 -73 2 -86 5 -93 2 -7 3 -18 3 -85 0 -63
1 -77 3 -83 2 -6 3 -17 3 -49 0 -55 -1 -54 38 -54 25 0 33 2 36 10 3 11 -1
146 -5 153 -4 5 -4 10 -5 88 -1 72 -1 83 -5 89 -3 7 -3 16 -3 89 0 76 0 81 -4
89 -4 8 -4 14 -4 85 0 72 0 77 -4 87 -3 9 -4 15 -4 45 0 31 0 35 -4 39 -3 5
-667 8 -722 4z"/>
<path d="M424 713 c-9 -5 -10 -10 -8 -78 3 -69 2 -77 -12 -87 -3 -2 -8 -7 -9
-11 -2 -3 -7 -10 -10 -14 -4 -4 -7 -9 -7 -10 0 -1 -3 -7 -8 -12 -4 -6 -9 -13
-11 -16 -4 -9 -44 -47 -56 -52 -5 -3 -11 -8 -15 -13 -3 -5 -12 -16 -20 -25
-25 -27 -27 -37 -10 -55 21 -20 42 -22 52 -3 2 5 12 17 23 29 10 12 21 25 24
30 42 79 64 70 62 -26 -5 -341 -6 -314 3 -321 8 -5 56 -4 63 1 6 5 6 20 3 255
-3 199 -13 188 79 93 75 -77 101 -84 96 -26 l-1 15 -40 39 c-22 21 -41 42 -43
45 -4 9 -68 74 -79 81 -13 9 -13 5 -11 82 2 73 1 75 -7 79 -8 4 -51 4 -58 0z"/>
</g>
</svg>
