<?xml version="1.0" standalone="no"?>
<!DOCTYPE svg PUBLIC "-//W3C//DTD SVG 20010904//EN"
 "http://www.w3.org/TR/2001/REC-SVG-20010904/DTD/svg10.dtd">
<svg version="1.0" xmlns="http://www.w3.org/2000/svg"
 width="74.000000pt" height="100.000000pt" viewBox="0 0 74.000000 100.000000"
 preserveAspectRatio="xMidYMid meet">
<metadata>
Created by potrace 1.16, written by Peter Selinger 2001-2019
</metadata>
<g transform="translate(0.000000,100.000000) scale(0.100000,-0.100000)"
fill="#000000" stroke="none">
<path d="M46 938 c-3 -13 -7 -161 -10 -329 -6 -301 -5 -307 14 -312 46 -12 50
9 50 246 0 122 3 252 7 290 l6 67 243 0 c133 0 245 -4 248 -8 3 -5 11 -138 18
-296 11 -249 14 -289 29 -296 10 -6 22 -5 34 4 16 11 16 27 5 247 -7 129 -15
272 -18 319 l-7 85 -307 3 -308 2 -4 -22z"/>
<path d="M351 601 c-10 -6 -12 -22 -8 -57 7 -65 -3 -85 -80 -166 -56 -57 -65
-72 -57 -86 21 -32 42 -24 84 32 24 31 47 56 53 56 6 0 7 -55 3 -163 -7 -140
-5 -165 8 -176 8 -7 23 -11 33 -9 16 3 18 18 18 175 0 95 3 174 6 177 3 3 29
-19 59 -50 52 -55 82 -65 88 -31 2 11 -24 46 -74 97 l-77 79 -1 63 c-1 55 -4
63 -21 66 -11 1 -26 -2 -34 -7z"/>
</g>
</svg>
