<?xml version="1.0" standalone="no"?>
<!DOCTYPE svg PUBLIC "-//W3C//DTD SVG 20010904//EN"
 "http://www.w3.org/TR/2001/REC-SVG-20010904/DTD/svg10.dtd">
<svg version="1.0" xmlns="http://www.w3.org/2000/svg"
 width="100.000000pt" height="95.000000pt" viewBox="0 0 100.000000 95.000000"
 preserveAspectRatio="xMidYMid meet">
<metadata>
Created by potrace 1.16, written by Peter Selinger 2001-2019
</metadata>
<g transform="translate(0.000000,95.000000) scale(0.100000,-0.100000)"
fill="#000000" stroke="none">
<path d="M233 900 c-33 -38 -213 -399 -207 -414 3 -9 14 -16 25 -16 13 0 39
40 98 158 104 202 116 222 140 222 39 0 536 -123 550 -135 7 -7 28 -74 46
-148 18 -74 36 -140 39 -146 10 -16 36 -14 42 3 6 17 -63 326 -76 340 -7 7
-607 155 -633 156 -4 0 -15 -9 -24 -20z"/>
<path d="M197 639 c-15 -25 -44 -138 -97 -392 -32 -152 -31 -177 7 -177 19 0
20 4 72 278 l47 247 209 1 c116 0 239 -2 275 -4 l65 -4 38 -257 c49 -327 43
-303 70 -299 15 2 23 11 25 28 4 35 -87 573 -99 585 -5 5 -132 11 -303 13
l-294 4 -15 -23z"/>
<path d="M438 378 c-18 -24 -75 -91 -125 -151 -93 -108 -100 -120 -84 -146 16
-26 46 0 144 125 54 69 101 123 104 120 3 -2 0 -59 -7 -125 -13 -125 -11 -151
15 -151 25 0 35 45 35 161 0 60 4 109 9 109 4 0 41 -49 80 -109 81 -122 101
-144 128 -139 34 6 23 35 -53 139 -170 230 -187 241 -246 167z"/>
</g>
</svg>
