<?xml version="1.0" standalone="no"?>
<!DOCTYPE svg PUBLIC "-//W3C//DTD SVG 20010904//EN"
 "http://www.w3.org/TR/2001/REC-SVG-20010904/DTD/svg10.dtd">
<svg version="1.0" xmlns="http://www.w3.org/2000/svg"
 width="626.000000pt" height="590.000000pt" viewBox="0 0 626.000000 590.000000"
 preserveAspectRatio="xMidYMid meet">
<metadata>
Created by potrace 1.16, written by Peter Selinger 2001-2019
</metadata>
<g transform="translate(0.000000,590.000000) scale(0.500000,-0.500000)"
fill="#000000" stroke="none">
<path d="M300 1134 c-5 -4 -12 -16 -35 -60 -15 -30 -31 -58 -34 -62 -6 -9 -19
-33 -37 -71 -35 -74 -84 -170 -92 -178 -16 -18 -64 -124 -64 -141 0 -30 3 -34
27 -34 22 0 19 -3 54 67 17 35 34 67 37 70 2 3 15 27 27 52 13 25 28 55 33 65
6 10 18 33 26 50 34 64 39 73 45 81 4 5 16 28 27 50 26 54 28 55 45 48 4 -2
11 -3 15 -3 5 0 13 -2 19 -5 8 -4 13 -5 23 -5 9 0 15 -1 21 -4 4 -2 13 -5 20
-5 7 -1 15 -3 18 -5 3 -2 11 -4 18 -5 7 -1 15 -3 19 -5 5 -2 11 -4 16 -4 4 0
14 -2 21 -5 7 -3 17 -5 21 -5 5 0 11 -2 16 -4 4 -2 12 -4 19 -5 7 -1 16 -3 20
-5 4 -2 12 -4 17 -4 5 0 12 -1 15 -3 3 -2 14 -4 24 -5 11 -1 21 -3 27 -6 5 -2
13 -4 18 -4 4 0 12 -2 18 -4 5 -2 14 -4 19 -5 6 0 14 -2 17 -4 4 -2 12 -4 19
-5 7 0 15 -2 19 -4 4 -2 11 -4 16 -4 5 0 13 -2 18 -4 5 -2 15 -5 22 -6 7 -1
16 -3 19 -4 3 -2 11 -4 18 -5 7 0 16 -3 20 -5 6 -3 12 -4 22 -4 9 0 15 -1 21
-4 4 -2 13 -5 19 -5 7 -1 15 -3 19 -5 4 -2 12 -4 19 -5 25 -2 41 -15 44 -35 0
-5 2 -13 4 -17 2 -3 4 -14 5 -23 1 -11 3 -19 5 -22 2 -3 4 -11 4 -17 1 -7 3
-15 5 -19 2 -5 4 -11 4 -15 0 -5 2 -14 5 -22 3 -8 5 -17 5 -21 0 -4 2 -11 4
-16 2 -5 5 -14 5 -20 1 -6 3 -14 5 -18 2 -4 4 -14 5 -23 0 -9 2 -19 4 -23 2
-3 4 -12 5 -20 1 -7 3 -16 4 -19 2 -3 4 -12 5 -19 0 -6 2 -15 4 -18 1 -3 3 -8
4 -13 3 -15 36 -22 49 -11 7 5 7 49 1 65 -3 6 -5 14 -5 18 0 5 -2 12 -4 17 -2
5 -5 15 -6 23 -1 7 -3 15 -4 16 -2 2 -3 11 -4 21 -1 11 -3 20 -5 23 -2 3 -4
11 -5 19 -1 7 -3 16 -5 19 -1 3 -3 11 -4 18 -1 6 -3 16 -5 22 -2 5 -4 13 -4
18 0 4 -2 11 -4 15 -2 4 -4 13 -5 20 0 6 -2 15 -4 17 -2 4 -4 12 -5 24 -1 10
-2 20 -4 23 -1 2 -3 11 -4 18 -3 24 -13 39 -27 41 -4 1 -11 3 -15 5 -5 2 -12
4 -17 4 -5 0 -12 2 -16 3 -3 2 -13 5 -21 6 -8 2 -19 4 -23 6 -4 1 -14 3 -21 3
-8 0 -16 1 -22 4 -5 2 -12 4 -16 4 -5 0 -13 2 -20 5 -7 3 -16 5 -20 5 -4 0
-12 2 -16 4 -4 2 -12 4 -19 5 -7 1 -15 3 -18 4 -3 2 -12 4 -19 5 -7 1 -17 4
-21 6 -5 2 -12 4 -17 4 -5 0 -13 2 -17 4 -4 2 -13 4 -20 5 -7 1 -15 3 -19 5
-5 3 -11 4 -20 4 -10 0 -16 1 -24 5 -7 3 -15 5 -20 5 -5 0 -12 2 -17 4 -4 2
-13 5 -20 5 -7 1 -15 3 -19 5 -5 2 -12 4 -16 4 -5 0 -13 2 -18 4 -5 2 -15 5
-22 6 -7 1 -16 3 -19 4 -3 2 -12 4 -18 5 -7 0 -15 2 -18 4 -3 2 -11 4 -17 4
-7 1 -16 3 -20 5 -6 3 -12 4 -22 4 -10 0 -16 1 -22 4 -4 2 -13 4 -20 5 -7 1
-17 3 -21 5 -4 2 -12 4 -17 4 -5 0 -13 2 -18 4 -13 6 -49 6 -58 0z"/>
<path d="M297 816 c-63 -1 -61 0 -62 -19 -1 -7 -3 -15 -5 -18 -1 -3 -3 -14 -4
-23 -1 -10 -4 -21 -6 -26 -2 -6 -4 -13 -4 -21 0 -7 -2 -15 -5 -23 -3 -8 -5
-16 -5 -23 0 -8 -2 -15 -4 -21 -2 -5 -5 -15 -5 -23 -1 -8 -3 -18 -5 -23 -2 -5
-4 -16 -5 -25 -1 -9 -3 -19 -5 -23 -3 -5 -4 -12 -4 -20 0 -8 -2 -16 -5 -24 -3
-8 -5 -16 -5 -22 0 -7 -2 -17 -5 -25 -3 -8 -5 -18 -5 -25 0 -7 -2 -15 -4 -20
-2 -5 -4 -16 -5 -25 -1 -9 -3 -18 -4 -21 -2 -3 -4 -12 -5 -22 -1 -10 -3 -21
-6 -26 -2 -6 -4 -13 -4 -20 0 -8 -2 -17 -5 -25 -3 -8 -5 -18 -5 -24 0 -7 -2
-15 -5 -23 -3 -8 -5 -16 -5 -23 0 -9 -1 -14 -4 -20 -12 -20 -7 -78 6 -82 26
-9 48 0 48 21 0 4 2 13 4 18 2 7 4 16 4 24 0 7 1 16 4 22 2 5 4 16 5 24 0 9 2
18 4 22 2 4 4 13 4 23 1 9 3 19 5 22 1 3 3 13 4 22 1 9 4 22 6 28 2 7 4 16 4
23 0 8 1 15 4 20 2 4 4 13 5 22 0 9 2 19 5 24 3 6 4 13 4 21 0 9 2 17 5 26 3
9 5 18 5 25 0 8 1 15 4 20 3 5 5 14 5 25 1 10 3 19 5 23 3 5 4 11 4 20 0 9 2
18 5 27 3 9 5 18 5 27 0 8 1 14 4 19 3 6 4 12 4 22 0 8 1 15 3 20 2 3 4 14 5
24 2 19 6 31 13 38 6 5 37 4 49 -2 9 -5 9 -5 320 -5 209 0 312 -1 314 -2 8 -4
10 -13 10 -36 0 -19 1 -25 4 -32 3 -6 5 -15 6 -30 1 -12 3 -25 5 -29 2 -5 3
-15 3 -26 0 -14 1 -20 4 -27 3 -7 5 -14 5 -32 1 -16 2 -26 5 -32 3 -7 4 -15 4
-26 0 -12 1 -19 5 -29 4 -11 5 -17 5 -35 0 -19 1 -24 4 -30 3 -6 5 -14 5 -28
1 -12 3 -22 5 -28 3 -8 4 -15 4 -31 0 -18 1 -24 4 -31 3 -6 5 -16 6 -31 1 -14
3 -24 5 -28 2 -4 3 -11 3 -24 0 -12 1 -19 3 -25 3 -5 4 -16 5 -35 1 -19 2 -30
5 -35 1 -4 3 -12 4 -18 2 -20 36 -29 54 -16 7 6 8 59 1 75 -4 8 -5 15 -6 35
-1 20 -2 27 -6 34 -3 7 -4 13 -4 26 0 12 -1 18 -4 24 -3 7 -5 14 -6 31 -1 14
-2 24 -4 28 -3 4 -4 14 -4 30 -1 19 -2 26 -5 31 -3 5 -4 13 -5 28 -1 15 -2 23
-5 28 -3 5 -4 13 -5 33 -1 21 -2 28 -6 35 -3 7 -4 13 -4 25 0 12 -1 18 -4 25
-3 7 -5 14 -5 32 -1 15 -3 27 -5 34 -2 6 -4 19 -5 29 0 12 -2 21 -5 27 -3 7
-4 13 -4 26 0 14 -1 19 -4 25 -4 6 -5 13 -6 35 -1 18 -2 29 -4 33 -2 3 -4 9
-5 13 -1 9 -6 14 -15 15 -4 1 -11 3 -15 6 -8 4 -547 7 -698 3z"/>
<path d="M621 527 c-3 -2 -10 -3 -14 -3 -12 0 -19 -4 -23 -12 -2 -4 -7 -11
-10 -14 -3 -4 -6 -9 -7 -12 -1 -2 -9 -12 -17 -21 -9 -10 -18 -21 -20 -26 -3
-4 -13 -17 -24 -28 -11 -11 -21 -23 -23 -28 -2 -4 -12 -16 -27 -31 -13 -12
-26 -26 -28 -31 -3 -4 -13 -17 -24 -28 -11 -11 -22 -24 -25 -30 -3 -6 -12 -18
-23 -28 -10 -10 -20 -22 -23 -27 -3 -5 -12 -16 -22 -25 -24 -22 -33 -53 -22
-75 8 -15 46 -12 55 4 3 5 9 11 13 14 8 6 22 24 33 44 4 8 13 17 23 27 11 10
18 18 21 24 3 6 13 19 23 29 11 11 21 24 23 29 2 4 15 20 28 34 13 13 25 28
27 31 1 4 11 16 22 27 10 10 21 23 23 28 10 19 23 25 25 12 3 -17 0 -76 -4
-84 -4 -7 -5 -12 -6 -67 -1 -57 -2 -59 -6 -68 -5 -9 -5 -13 -6 -57 -2 -62 -1
-63 28 -63 28 0 29 2 29 41 0 23 1 30 4 39 3 10 4 15 3 67 -1 48 -1 58 2 68 2
9 3 26 4 65 2 57 2 61 11 56 5 -3 14 -14 14 -17 0 -2 5 -9 12 -16 7 -8 14 -18
16 -22 3 -4 9 -12 14 -18 5 -5 11 -14 14 -18 2 -5 6 -11 9 -14 2 -3 6 -10 9
-15 2 -5 8 -13 13 -18 5 -5 11 -14 14 -19 2 -6 6 -11 8 -13 2 -2 7 -10 11 -19
5 -10 12 -19 17 -24 6 -6 9 -10 9 -13 0 -5 9 -16 12 -16 3 0 12 -18 15 -28 3
-12 10 -20 17 -20 7 0 14 -5 20 -14 8 -14 31 -19 47 -12 17 8 13 56 -6 74 -5
5 -11 13 -14 18 -3 5 -8 13 -13 17 -5 4 -10 12 -12 16 -3 4 -9 13 -15 19 -6 6
-12 14 -14 18 -2 4 -8 12 -13 18 -6 6 -12 15 -15 20 -3 5 -10 14 -16 20 -6 6
-12 14 -14 18 -2 4 -6 10 -10 14 -3 4 -7 9 -8 13 -2 3 -7 10 -12 15 -5 5 -12
13 -14 19 -3 5 -10 14 -15 20 -5 5 -12 14 -15 19 -2 5 -10 15 -16 22 -6 7 -11
14 -11 15 0 2 -5 9 -12 16 -7 8 -14 17 -16 20 -3 7 -7 10 -19 12 -3 1 -10 5
-15 8 -9 8 -10 8 -19 4z"/>
</g>
</svg>
