<?xml version="1.0" standalone="no"?>
<!DOCTYPE svg PUBLIC "-//W3C//DTD SVG 20010904//EN"
 "http://www.w3.org/TR/2001/REC-SVG-20010904/DTD/svg10.dtd">
<svg version="1.0" xmlns="http://www.w3.org/2000/svg"
 width="156.000000pt" height="148.000000pt" viewBox="0 0 156.000000 148.000000"
 preserveAspectRatio="xMidYMid meet">
<metadata>
Created by potrace 1.16, written by Peter Selinger 2001-2019
</metadata>
<g transform="translate(0.000000,148.000000) scale(0.100000,-0.100000)"
fill="#000000" stroke="none">
<path d="M369 1419 c0 -2 -20 -40 -43 -84 -24 -44 -67 -127 -95 -185 -29 -58
-81 -158 -117 -222 -49 -90 -64 -126 -64 -157 0 -32 4 -41 18 -41 28 0 35 10
100 139 153 304 254 482 271 477 9 -3 34 -10 56 -15 178 -43 263 -64 280 -71
11 -5 67 -18 125 -30 58 -12 130 -29 160 -37 30 -8 73 -18 95 -23 22 -4 58
-12 80 -17 22 -6 52 -14 67 -17 30 -7 28 -3 68 -181 12 -55 25 -109 30 -120 5
-11 14 -51 21 -90 15 -88 24 -107 52 -103 36 5 32 58 -17 259 -25 101 -48 203
-52 225 -10 68 20 55 -309 134 -117 28 -321 77 -415 101 -190 46 -309 69 -311
58z"/>
<path d="M297 1013 c-3 -4 -10 -37 -17 -73 -6 -36 -15 -74 -20 -85 -9 -21 -59
-274 -66 -335 -2 -19 -8 -46 -13 -60 -5 -14 -15 -56 -21 -95 -7 -38 -18 -90
-25 -115 -7 -25 -12 -63 -11 -85 1 -34 5 -41 24 -43 34 -5 50 13 55 66 6 50 8
63 57 307 45 224 48 238 68 344 20 109 32 122 86 103 26 -10 131 -13 408 -12
205 1 379 1 386 0 7 0 12 -15 12 -37 1 -21 5 -58 10 -83 6 -25 12 -70 16 -100
3 -30 8 -62 11 -70 8 -21 62 -381 69 -458 8 -88 27 -132 59 -132 31 0 42 36
27 88 -6 21 -16 78 -22 127 -7 50 -16 99 -21 110 -4 11 -11 45 -14 75 -7 69
-12 104 -37 260 -41 260 -46 282 -57 293 -14 14 -956 23 -964 10z"/>
<path d="M752 653 c-12 -2 -27 -14 -33 -26 -13 -24 -43 -61 -127 -156 -32 -34
-59 -68 -61 -73 -2 -6 -14 -22 -27 -37 -134 -152 -155 -182 -152 -208 2 -21 9
-29 27 -31 26 -4 47 16 151 148 36 45 90 112 121 149 31 36 61 76 68 89 6 12
19 22 28 22 13 0 15 -8 9 -52 -10 -75 -27 -263 -29 -328 l-2 -55 33 -3 c17 -2
32 0 32 5 0 4 3 37 5 73 3 36 7 128 10 205 2 79 8 140 14 140 5 0 22 -18 37
-40 144 -210 204 -302 204 -312 0 -7 6 -13 14 -13 8 0 21 -9 29 -21 10 -13 23
-19 39 -17 18 2 24 10 26 36 3 26 -5 42 -36 80 -36 44 -249 328 -284 380 -13
19 -66 56 -72 51 0 -1 -11 -4 -24 -6z"/>
</g>
</svg>
