<?xml version="1.0" standalone="no"?>
<!DOCTYPE svg PUBLIC "-//W3C//DTD SVG 20010904//EN"
 "http://www.w3.org/TR/2001/REC-SVG-20010904/DTD/svg10.dtd">
<svg version="1.0" xmlns="http://www.w3.org/2000/svg"
 width="374.000000pt" height="590.000000pt" viewBox="0 0 374.000000 590.000000"
 preserveAspectRatio="xMidYMid meet">
<metadata>
Created by potrace 1.16, written by Peter Selinger 2001-2019
</metadata>
<g transform="translate(0.000000,590.000000) scale(0.500000,-0.500000)"
fill="#000000" stroke="none">
<path d="M221 1134 c-7 -6 -6 5 -4 -160 2 -168 11 -151 -84 -150 -65 1 -79 0
-85 -8 -5 -6 -4 -341 1 -362 4 -18 7 -120 7 -259 1 -123 1 -125 11 -137 13
-14 41 -17 53 -5 7 8 8 186 1 200 -6 11 -7 35 -2 47 2 5 3 10 2 15 -1 3 -2 13
-2 22 0 9 -1 24 -3 34 -1 10 -2 48 -3 86 -1 37 -2 72 -3 78 -5 24 -5 220 0
224 5 5 40 6 246 9 226 3 263 3 267 -2 4 -4 4 -25 7 -403 3 -328 2 -309 13
-313 29 -11 59 5 56 29 0 4 -2 16 -3 25 -2 22 -6 207 -6 318 0 192 -4 391 -8
396 -10 14 -24 15 -143 11 -46 -2 -40 -22 -42 146 -1 155 -1 153 -13 159 -13
6 -256 6 -263 0z m192 -56 c24 -3 22 10 23 -125 0 -145 10 -127 -70 -127 -66
0 -78 2 -84 14 -5 10 -2 234 4 238 5 5 88 4 127 0z"/>
</g>
</svg>
