<?xml version="1.0" standalone="no"?>
<!DOCTYPE svg PUBLIC "-//W3C//DTD SVG 20010904//EN"
 "http://www.w3.org/TR/2001/REC-SVG-20010904/DTD/svg10.dtd">
<svg version="1.0" xmlns="http://www.w3.org/2000/svg"
 width="94.000000pt" height="148.000000pt" viewBox="0 0 94.000000 148.000000"
 preserveAspectRatio="xMidYMid meet">
<metadata>
Created by potrace 1.16, written by Peter Selinger 2001-2019
</metadata>
<g transform="translate(0.000000,148.000000) scale(0.100000,-0.100000)"
fill="#000000" stroke="none">
<path d="M270 1231 c0 -124 -4 -192 -11 -196 -6 -4 -53 -7 -104 -6 -113 2
-108 10 -101 -159 3 -63 8 -266 12 -450 5 -279 9 -338 22 -352 8 -10 21 -18
28 -18 22 0 46 32 40 54 -7 30 -19 415 -20 651 l-1 200 315 5 c173 3 321 4
328 2 9 -3 12 -102 12 -448 l0 -444 27 -11 c22 -8 30 -6 45 9 15 15 17 24 9
45 -6 16 -10 197 -11 464 0 404 -2 439 -18 451 -13 11 -41 12 -119 8 l-103 -7
-2 193 -3 193 -172 3 -173 2 0 -189z m268 114 c10 -4 12 -40 10 -157 l-3 -153
-89 -3 c-49 -2 -93 1 -99 7 -8 8 -11 297 -2 311 4 7 159 2 183 -5z"/>
</g>
</svg>
