<?xml version="1.0" standalone="no"?>
<!DOCTYPE svg PUBLIC "-//W3C//DTD SVG 20010904//EN"
 "http://www.w3.org/TR/2001/REC-SVG-20010904/DTD/svg10.dtd">
<svg version="1.0" xmlns="http://www.w3.org/2000/svg"
 width="64.000000pt" height="100.000000pt" viewBox="0 0 64.000000 100.000000"
 preserveAspectRatio="xMidYMid meet">
<metadata>
Created by potrace 1.16, written by Peter Selinger 2001-2019
</metadata>
<g transform="translate(0.000000,100.000000) scale(0.100000,-0.100000)"
fill="#000000" stroke="none">
<path d="M185 940 c-4 -12 -5 -70 -3 -128 l3 -107 -70 -5 -70 -5 -3 -225 c-2
-124 0 -271 3 -327 7 -105 16 -124 50 -100 15 12 15 36 4 295 -8 184 -8 287
-2 293 11 11 367 25 405 16 l26 -7 7 -299 c8 -309 11 -328 48 -298 12 10 14
57 8 332 l-6 320 -76 3 -76 3 -9 127 -9 127 -112 3 c-106 3 -112 2 -118 -18z
m169 -36 c13 -5 16 -24 16 -106 l0 -99 -62 3 -63 3 -3 89 c-2 49 -1 95 2 103
6 13 80 18 110 7z"/>
</g>
</svg>
