<?xml version="1.0" standalone="no"?>
<!DOCTYPE svg PUBLIC "-//W3C//DTD SVG 20010904//EN"
 "http://www.w3.org/TR/2001/REC-SVG-20010904/DTD/svg10.dtd">
<svg version="1.0" xmlns="http://www.w3.org/2000/svg"
 width="338.000000pt" height="590.000000pt" viewBox="0 0 338.000000 590.000000"
 preserveAspectRatio="xMidYMid meet">
<metadata>
Created by potrace 1.16, written by Peter Selinger 2001-2019
</metadata>
<g transform="translate(0.000000,590.000000) scale(0.500000,-0.500000)"
fill="#000000" stroke="none">
<path d="M248 1135 c-13 -7 -13 -5 -12 -127 1 -134 9 -117 -54 -118 -125 -4
-133 -5 -138 -9 -6 -5 -7 -482 -1 -504 3 -10 3 -21 2 -81 -1 -82 -2 -81 27
-80 33 2 30 -27 30 318 0 258 0 290 3 294 4 5 458 7 466 1 3 -2 3 -17 4 -293
0 -336 -3 -298 26 -298 29 0 26 -41 25 316 0 173 -1 311 -2 313 -10 27 -17 29
-108 29 -85 0 -75 -8 -76 61 -5 178 -4 169 -23 178 -10 4 -161 5 -169 0z m129
-61 c9 -4 12 -173 3 -181 -9 -8 -88 -5 -91 4 -2 4 -1 166 0 172 2 7 74 11 88
5z"/>
<path d="M320 499 c-5 -4 -13 -18 -17 -30 -4 -14 -13 -33 -19 -38 -6 -5 -34
-49 -57 -86 -9 -16 -22 -35 -28 -41 -25 -29 -26 -30 -71 -95 -13 -17 -13 -21
-1 -36 25 -30 42 -26 67 16 8 13 20 32 26 43 7 10 12 19 12 20 0 1 6 10 13 21
7 11 14 21 15 24 2 6 35 56 38 58 7 4 13 -20 13 -55 0 -25 -1 -37 -7 -68 -1
-6 -3 -18 -4 -26 -1 -8 -2 -17 -4 -19 -1 -3 -3 -13 -4 -22 -3 -22 -7 -53 -10
-67 -6 -30 0 -44 19 -46 7 -1 18 -3 26 -4 24 -4 39 0 44 13 5 11 4 55 -1 71
-3 8 -4 18 -4 29 0 9 -1 21 -3 27 -2 6 -3 18 -3 27 0 9 -1 22 -3 30 -4 18 -4
48 0 68 2 8 3 19 3 23 0 24 13 18 31 -17 6 -10 15 -27 21 -37 6 -10 15 -28 20
-38 6 -10 12 -21 14 -24 2 -3 7 -12 11 -20 28 -56 33 -59 67 -43 30 16 23 39
-27 91 -8 8 -17 19 -21 24 -3 5 -10 14 -15 20 -10 12 -37 52 -42 62 -2 4 -7
10 -10 14 -9 10 -25 43 -39 79 -17 46 -34 63 -50 52z"/>
</g>
</svg>
