<?xml version="1.0" standalone="no"?>
<!DOCTYPE svg PUBLIC "-//W3C//DTD SVG 20010904//EN"
 "http://www.w3.org/TR/2001/REC-SVG-20010904/DTD/svg10.dtd">
<svg version="1.0" xmlns="http://www.w3.org/2000/svg"
 width="84.000000pt" height="148.000000pt" viewBox="0 0 84.000000 148.000000"
 preserveAspectRatio="xMidYMid meet">
<metadata>
Created by potrace 1.16, written by Peter Selinger 2001-2019
</metadata>
<g transform="translate(0.000000,148.000000) scale(0.100000,-0.100000)"
fill="#000000" stroke="none">
<path d="M297 1413 c-4 -3 -7 -73 -7 -155 l0 -148 -72 -2 c-40 -1 -93 -2 -118
-3 l-45 0 0 -415 0 -415 30 0 30 0 3 383 2 382 295 0 295 0 2 -372 3 -373 29
0 30 0 -2 385 c-1 212 -2 390 -2 397 0 6 -7 19 -16 28 -13 13 -35 16 -103 15
-47 -1 -92 -1 -98 -1 -10 1 -13 36 -13 139 0 94 -4 142 -12 150 -13 13 -219
18 -231 5z m173 -70 c1 -5 2 -57 3 -118 l2 -110 -60 0 -60 0 -3 104 c-1 58 0
111 2 118 6 14 116 19 116 6z"/>
<path d="M386 608 c-9 -12 -16 -27 -16 -33 0 -14 -85 -144 -163 -248 -60 -79
-68 -110 -36 -130 9 -6 23 -8 31 -4 9 3 48 62 88 131 71 123 89 144 91 109 1
-10 3 -29 4 -43 2 -14 -5 -74 -16 -135 -20 -116 -24 -181 -11 -188 24 -15 69
-16 87 -3 19 13 19 17 2 152 -16 140 -14 228 7 221 6 -2 40 -58 76 -125 36
-67 71 -124 78 -127 19 -7 62 16 62 33 0 9 -19 38 -41 65 -70 82 -157 217
-174 267 -9 26 -24 55 -34 64 -18 16 -20 16 -35 -6z"/>
</g>
</svg>
