<?xml version="1.0" standalone="no"?>
<!DOCTYPE svg PUBLIC "-//W3C//DTD SVG 20010904//EN"
 "http://www.w3.org/TR/2001/REC-SVG-20010904/DTD/svg10.dtd">
<svg version="1.0" xmlns="http://www.w3.org/2000/svg"
 width="57.000000pt" height="100.000000pt" viewBox="0 0 57.000000 100.000000"
 preserveAspectRatio="xMidYMid meet">
<metadata>
Created by potrace 1.16, written by Peter Selinger 2001-2019
</metadata>
<g transform="translate(0.000000,100.000000) scale(0.100000,-0.100000)"
fill="#000000" stroke="none">
<path d="M233 963 l-32 -4 -3 -97 -3 -97 -80 -10 -80 -10 -3 -250 c-3 -277 0
-318 26 -313 15 3 18 23 23 143 4 77 7 193 8 258 l1 117 193 -2 192 -3 3 -246
c2 -214 4 -248 18 -253 9 -3 20 -4 25 0 14 8 12 537 -3 552 -7 7 -40 12 -80
12 l-68 0 0 88 c0 48 -4 93 -9 101 -9 14 -75 22 -128 14z m82 -133 l0 -75 -29
-3 c-36 -4 -46 10 -46 68 0 76 8 92 44 88 l31 -3 0 -75z"/>
<path d="M254 398 c-9 -18 -48 -79 -87 -135 -72 -104 -81 -138 -35 -131 16 2
35 25 65 78 23 41 47 76 53 78 14 5 12 -36 -5 -143 -8 -49 -11 -92 -7 -96 4
-4 16 -8 27 -9 49 -5 48 -8 40 120 -5 83 -3 120 4 120 6 0 26 -31 45 -68 19
-38 41 -74 50 -81 17 -14 56 -6 56 12 0 7 -31 54 -68 105 -37 50 -74 111 -82
134 -19 53 -35 58 -56 16z"/>
</g>
</svg>
