<?xml version="1.0" standalone="no"?>
<!DOCTYPE svg PUBLIC "-//W3C//DTD SVG 20010904//EN"
 "http://www.w3.org/TR/2001/REC-SVG-20010904/DTD/svg10.dtd">
<svg version="1.0" xmlns="http://www.w3.org/2000/svg"
 width="100.000000pt" height="93.000000pt" viewBox="0 0 100.000000 93.000000"
 preserveAspectRatio="xMidYMid meet">
<metadata>
Created by potrace 1.16, written by Peter Selinger 2001-2019
</metadata>
<g transform="translate(0.000000,93.000000) scale(0.100000,-0.100000)"
fill="#000000" stroke="none">
<path d="M47 894 c-4 -4 -7 -198 -7 -431 l0 -424 23 3 22 3 0 425 c0 376 -2
425 -15 428 -9 1 -19 0 -23 -4z"/>
<path d="M150 471 c0 -416 1 -431 19 -431 18 0 19 15 26 282 3 156 5 348 3
428 -3 142 -4 145 -25 148 l-23 3 0 -430z"/>
<path d="M393 893 c-21 -4 -23 -9 -25 -121 l-3 -117 -60 -5 -60 -5 -3 -273
c-2 -291 2 -337 34 -337 18 0 19 10 19 280 l0 280 193 3 192 2 1 -107 c1 -60
4 -187 8 -283 6 -166 7 -175 26 -175 19 0 20 8 23 195 2 107 0 245 -3 307 l-7
112 -66 3 -67 3 -5 115 -5 115 -55 7 c-62 7 -105 7 -137 1z m106 -49 l31 -6 0
-95 0 -94 -52 3 -53 3 -3 83 c-4 109 5 120 77 106z"/>
<path d="M787 858 c-3 -24 -3 -217 0 -430 6 -368 7 -388 25 -388 17 0 18 19
18 430 0 413 -1 430 -19 430 -14 0 -20 -10 -24 -42z"/>
<path d="M894 886 c-9 -23 0 -829 9 -843 4 -6 16 -9 27 -6 20 5 20 12 18 432
l-3 426 -23 3 c-13 2 -25 -3 -28 -12z"/>
</g>
</svg>
