<?xml version="1.0" standalone="no"?>
<!DOCTYPE svg PUBLIC "-//W3C//DTD SVG 20010904//EN"
 "http://www.w3.org/TR/2001/REC-SVG-20010904/DTD/svg10.dtd">
<svg version="1.0" xmlns="http://www.w3.org/2000/svg"
 width="400.000000pt" height="590.000000pt" viewBox="0 0 400.000000 590.000000"
 preserveAspectRatio="xMidYMid meet">
<metadata>
Created by potrace 1.16, written by Peter Selinger 2001-2019
</metadata>
<g transform="translate(0.000000,590.000000) scale(0.500000,-0.500000)"
fill="#000000" stroke="none">
<path d="M267 1138 c-10 -4 -10 3 -10 -165 0 -155 0 -157 -4 -160 -3 -3 -17
-3 -99 -2 -95 2 -95 2 -100 -3 -8 -7 -12 -750 -4 -757 11 -11 36 -8 41 4 2 5
2 49 1 230 -2 236 -2 232 5 234 11 4 592 1 595 -2 2 -3 2 -20 1 -96 -4 -307
-4 -364 0 -369 8 -9 35 -10 46 -2 5 4 4 -48 3 442 -1 376 15 323 -95 322 -109
-2 -98 -10 -95 66 7 203 5 252 -7 257 -8 3 -270 4 -278 1z m236 -49 c5 -5 5
-14 4 -140 0 -132 0 -132 -9 -136 -6 -3 -179 -5 -187 -2 -5 2 -8 16 -6 31 1 8
2 66 2 129 0 94 0 115 3 118 4 5 188 5 193 0z m-306 -324 c8 -8 7 -189 -1
-195 -6 -5 -94 -6 -102 -1 -10 8 -5 193 6 197 9 3 93 3 97 -1z m170 -1 c8 -13
3 -194 -6 -197 -10 -2 -106 -1 -110 2 -6 4 -7 190 -2 196 6 6 114 5 118 -1z
m174 0 c8 -13 3 -194 -6 -197 -12 -3 -111 -1 -115 3 -6 5 -9 184 -3 193 5 8
119 8 124 1z m150 -1 c10 -9 6 -193 -4 -196 -5 -1 -85 -1 -90 0 -10 3 -15 187
-5 197 6 6 93 5 99 -1z"/>
</g>
</svg>
