<?xml version="1.0" standalone="no"?>
<!DOCTYPE svg PUBLIC "-//W3C//DTD SVG 20010904//EN"
 "http://www.w3.org/TR/2001/REC-SVG-20010904/DTD/svg10.dtd">
<svg version="1.0" xmlns="http://www.w3.org/2000/svg"
 width="68.000000pt" height="100.000000pt" viewBox="0 0 68.000000 100.000000"
 preserveAspectRatio="xMidYMid meet">
<metadata>
Created by potrace 1.16, written by Peter Selinger 2001-2019
</metadata>
<g transform="translate(0.000000,100.000000) scale(0.100000,-0.100000)"
fill="#000000" stroke="none">
<path d="M245 961 l-30 -6 -3 -133 -3 -132 -83 0 c-67 0 -85 -3 -90 -16 -8
-21 -8 -592 0 -622 4 -14 13 -22 23 -20 14 3 16 28 19 198 2 140 6 196 15 202
16 10 458 10 474 0 9 -6 13 -62 15 -202 3 -191 3 -195 25 -198 14 -2 23 3 27
15 8 29 2 631 -7 640 -5 4 -41 8 -80 8 l-72 0 -3 131 -3 131 -46 7 c-55 7
-136 6 -178 -3z m175 -156 l0 -116 -77 3 -78 3 -3 80 c-2 44 0 95 3 113 l6 32
74 0 75 0 0 -115z m-122 -167 c14 -14 16 -126 3 -146 -5 -8 -23 -12 -47 -10
l-39 3 -3 69 c-2 38 -1 75 2 83 7 16 68 17 84 1z m155 -9 c6 -9 7 -43 2 -83
l-7 -67 -41 3 -42 3 -3 77 c-2 66 0 77 15 81 32 9 66 2 76 -14z m131 -12 c8
-29 7 -86 0 -115 -6 -19 -12 -23 -43 -20 l-36 3 -3 73 c-3 67 -1 73 20 81 31
11 55 3 62 -22z m-420 -17 c3 -22 3 -58 0 -81 -7 -39 -8 -40 -43 -37 l-36 3
-3 64 c-4 82 0 91 41 91 32 0 35 -2 41 -40z"/>
</g>
</svg>
