<?xml version="1.0" standalone="no"?>
<!DOCTYPE svg PUBLIC "-//W3C//DTD SVG 20010904//EN"
 "http://www.w3.org/TR/2001/REC-SVG-20010904/DTD/svg10.dtd">
<svg version="1.0" xmlns="http://www.w3.org/2000/svg"
 width="100.000000pt" height="148.000000pt" viewBox="0 0 100.000000 148.000000"
 preserveAspectRatio="xMidYMid meet">
<metadata>
Created by potrace 1.16, written by Peter Selinger 2001-2019
</metadata>
<g transform="translate(0.000000,148.000000) scale(0.100000,-0.100000)"
fill="#000000" stroke="none">
<path d="M318 1218 l-3 -203 -120 0 c-66 0 -124 -3 -130 -7 -6 -4 -10 -175
-10 -480 l0 -473 25 0 25 0 3 297 2 298 380 0 379 0 -2 -297 -2 -298 25 0 25
0 0 480 0 480 -115 0 -115 0 0 200 0 200 -182 3 -183 2 -2 -202z m310 -25 l-3
-178 -119 -3 c-67 -1 -122 1 -125 7 -3 5 -5 86 -3 180 l3 171 125 0 124 0 -2
-177z m-380 -360 l-3 -128 -65 0 -65 0 -3 114 c-1 63 0 121 2 128 4 9 26 13
71 13 l66 0 -3 -127z m207 -3 l0 -125 -75 0 -75 0 -3 128 -3 128 78 -3 78 -3
0 -125z m222 20 c2 -157 6 -150 -81 -150 -53 0 -75 4 -79 13 -7 19 -8 227 -1
238 3 5 40 9 82 7 l77 -3 2 -105z m188 -20 l0 -125 -65 0 -65 0 -3 114 c-1 63
0 121 3 128 3 10 22 13 67 11 l63 -3 0 -125z"/>
</g>
</svg>
