<?xml version="1.0" standalone="no"?>
<!DOCTYPE svg PUBLIC "-//W3C//DTD SVG 20010904//EN"
 "http://www.w3.org/TR/2001/REC-SVG-20010904/DTD/svg10.dtd">
<svg version="1.0" xmlns="http://www.w3.org/2000/svg"
 width="98.000000pt" height="148.000000pt" viewBox="0 0 98.000000 148.000000"
 preserveAspectRatio="xMidYMid meet">
<metadata>
Created by potrace 1.16, written by Peter Selinger 2001-2019
</metadata>
<g transform="translate(0.000000,148.000000) scale(0.100000,-0.100000)"
fill="#000000" stroke="none">
<path d="M310 1215 l0 -206 -125 2 c-69 1 -127 0 -130 -2 -2 -3 -5 -218 -5
-479 l-2 -475 24 0 23 0 3 297 2 298 378 0 377 0 0 -297 0 -298 30 0 30 0 -2
475 c-2 261 -3 479 -3 484 0 4 -53 7 -117 5 l-118 -4 0 200 0 200 -182 3 -183
2 0 -205z m313 136 c9 -35 -12 -41 -135 -41 -123 0 -139 6 -124 45 4 12 28 15
130 15 113 0 124 -2 129 -19z m-3 -141 l0 -51 -127 3 -128 3 -3 33 c-6 61 -5
62 133 62 l125 0 0 -50z m-2 -147 l-3 -48 -125 0 -125 0 -3 33 c-6 61 -5 62
133 62 l126 0 -3 -47z m-383 -233 l0 -125 -67 -3 -68 -3 0 131 0 131 68 -3 67
-3 0 -125z m213 3 l-3 -128 -75 0 -75 0 -3 114 c-1 63 0 121 2 128 4 9 28 13
81 13 l76 0 -3 -127z m220 0 l-3 -128 -80 0 -80 0 -3 114 c-1 63 0 121 2 128
4 9 29 13 86 13 l81 0 -3 -127z m187 -3 l0 -125 -65 0 -65 0 -3 128 -3 128 68
-3 68 -3 0 -125z"/>
</g>
</svg>
