<?xml version="1.0" standalone="no"?>
<!DOCTYPE svg PUBLIC "-//W3C//DTD SVG 20010904//EN"
 "http://www.w3.org/TR/2001/REC-SVG-20010904/DTD/svg10.dtd">
<svg version="1.0" xmlns="http://www.w3.org/2000/svg"
 width="66.000000pt" height="100.000000pt" viewBox="0 0 66.000000 100.000000"
 preserveAspectRatio="xMidYMid meet">
<metadata>
Created by potrace 1.16, written by Peter Selinger 2001-2019
</metadata>
<g transform="translate(0.000000,100.000000) scale(0.100000,-0.100000)"
fill="#000000" stroke="none">
<path d="M248 963 l-37 -4 -3 -132 -3 -132 -85 -5 -85 -5 -6 -150 c-13 -298
-10 -481 6 -495 30 -25 35 0 35 195 0 167 2 194 16 199 20 8 432 8 461 0 22
-6 23 -9 25 -203 3 -188 4 -196 23 -196 20 0 20 7 20 325 l0 325 -77 3 -78 3
0 134 0 135 -37 0 c-21 0 -60 2 -88 4 -27 2 -67 2 -87 -1z m162 -58 c0 -12
-15 -15 -74 -15 -69 0 -95 8 -79 24 3 3 39 6 80 6 58 0 73 -3 73 -15z m5 -85
c0 -24 -2 -25 -82 -28 -82 -3 -83 -3 -83 22 0 32 11 35 95 33 67 -2 70 -3 70
-27z m-20 -80 c34 -13 30 -41 -8 -51 -15 -4 -52 -5 -82 -2 -49 5 -55 8 -55 29
0 17 7 24 28 27 52 8 91 7 117 -3z m-237 -169 c4 -74 -8 -93 -52 -89 l-31 3
-3 77 c-3 73 -2 77 20 80 51 8 63 -5 66 -71z m130 67 c12 -12 17 -114 6 -142
-4 -11 -19 -16 -44 -16 -31 0 -39 4 -44 23 -8 29 -8 111 0 131 7 19 64 22 82
4z m152 -10 c6 -14 7 -47 3 -83 l-8 -60 -38 -3 c-46 -4 -53 11 -49 97 4 63 8
67 60 70 14 1 26 -7 32 -21z m129 6 c10 -9 12 -102 2 -127 -9 -24 -16 -28 -43
-25 l-33 3 -3 74 c-3 81 4 95 48 84 14 -3 27 -7 29 -9z"/>
</g>
</svg>
