<?xml version="1.0" standalone="no"?>
<!DOCTYPE svg PUBLIC "-//W3C//DTD SVG 20010904//EN"
 "http://www.w3.org/TR/2001/REC-SVG-20010904/DTD/svg10.dtd">
<svg version="1.0" xmlns="http://www.w3.org/2000/svg"
 width="390.000000pt" height="590.000000pt" viewBox="0 0 390.000000 590.000000"
 preserveAspectRatio="xMidYMid meet">
<metadata>
Created by potrace 1.16, written by Peter Selinger 2001-2019
</metadata>
<g transform="translate(0.000000,590.000000) scale(0.500000,-0.500000)"
fill="#000000" stroke="none">
<path d="M253 1133 c-6 -5 -6 -5 -5 -161 1 -189 18 -163 -101 -161 -124 2
-109 17 -108 -109 1 -54 1 -219 -1 -369 -2 -315 -4 -287 23 -287 26 0 24 -22
22 222 -2 271 -3 245 1 249 7 7 591 5 597 -1 3 -5 3 -8 2 -64 -2 -104 -4 -389
-3 -395 4 -12 35 -17 47 -6 8 6 6 751 -3 759 -4 5 -4 5 -90 3 -110 -2 -95 -25
-92 147 3 183 3 167 -3 173 -8 8 -278 8 -286 0z m220 -39 c23 -1 25 -3 25 -21
0 -24 7 -22 -102 -22 -109 0 -101 -2 -101 21 0 19 3 22 23 23 28 1 135 1 155
-1z m19 -90 c8 -6 9 -63 1 -71 -5 -4 -188 -5 -194 0 -6 4 -6 64 0 71 6 6 186
6 193 0z m0 -121 c6 -6 6 -63 0 -69 -10 -9 -187 -9 -194 0 -10 12 -5 70 7 73
16 3 183 0 187 -4z m-135 -118 c4 -5 4 -180 1 -191 -3 -8 -110 -13 -118 -4 -3
2 -6 181 -3 191 2 10 114 13 120 4z m172 0 c6 -6 5 -190 -1 -195 -4 -4 -103
-6 -115 -3 -9 2 -9 7 -9 104 0 97 0 95 9 98 12 3 113 0 116 -4z m-341 -1 c6
-6 5 -191 -1 -195 -7 -5 -98 -4 -103 1 -6 6 -6 184 0 191 5 6 10 7 56 7 42 0
44 0 48 -4z m493 0 c6 -6 5 -189 -1 -194 -7 -6 -92 -6 -98 0 -6 6 -6 189 -1
195 5 5 95 4 100 -1z"/>
</g>
</svg>
