<?xml version="1.0" standalone="no"?>
<!DOCTYPE svg PUBLIC "-//W3C//DTD SVG 20010904//EN"
 "http://www.w3.org/TR/2001/REC-SVG-20010904/DTD/svg10.dtd">
<svg version="1.0" xmlns="http://www.w3.org/2000/svg"
 width="100.000000pt" height="95.000000pt" viewBox="0 0 100.000000 95.000000"
 preserveAspectRatio="xMidYMid meet">
<metadata>
Created by potrace 1.16, written by Peter Selinger 2001-2019
</metadata>
<g transform="translate(0.000000,95.000000) scale(0.100000,-0.100000)"
fill="#000000" stroke="none">
<path d="M407 914 c-4 -4 -7 -45 -7 -91 l0 -83 -34 0 c-18 0 -38 -6 -44 -12
-8 -11 -105 -335 -142 -475 l-11 -43 -63 0 c-67 0 -94 -15 -82 -45 4 -11 22
-15 71 -15 63 0 66 -1 63 -22 -3 -20 -11 -24 -61 -29 -64 -7 -83 -19 -73 -45
6 -14 16 -16 89 -9 45 4 85 8 88 11 3 2 9 37 12 77 4 41 18 106 31 143 26 74
81 259 92 309 3 17 10 45 16 63 l10 32 122 0 123 0 72 -252 c47 -169 71 -270
71 -305 0 -60 -4 -58 115 -72 83 -10 95 -7 95 24 0 22 -5 24 -67 30 -89 8 -93
10 -93 39 0 25 2 25 83 28 74 3 82 5 82 23 0 18 -8 20 -85 25 l-85 5 -52 185
c-93 328 -90 320 -119 320 -14 0 -35 5 -46 11 -18 10 -20 17 -13 83 5 59 4 75
-9 85 -13 11 -19 11 -32 0 -13 -11 -15 -26 -9 -84 5 -60 4 -74 -10 -85 -12
-10 -21 -11 -33 -3 -13 8 -18 30 -22 94 -4 65 -8 84 -20 87 -9 1 -19 0 -23 -4z"/>
<path d="M390 280 c-49 -99 -90 -186 -90 -194 0 -7 7 -19 16 -26 23 -20 35 -2
94 135 28 66 56 125 62 130 7 7 9 -37 7 -140 l-4 -150 25 0 25 0 -2 138 c-2
101 1 137 9 135 7 -3 33 -53 60 -113 26 -60 55 -116 63 -124 13 -14 17 -13 32
2 17 17 13 27 -76 202 -71 142 -97 185 -112 185 -15 0 -40 -41 -109 -180z"/>
</g>
</svg>
