<?xml version="1.0" standalone="no"?>
<!DOCTYPE svg PUBLIC "-//W3C//DTD SVG 20010904//EN"
 "http://www.w3.org/TR/2001/REC-SVG-20010904/DTD/svg10.dtd">
<svg version="1.0" xmlns="http://www.w3.org/2000/svg"
 width="156.000000pt" height="148.000000pt" viewBox="0 0 156.000000 148.000000"
 preserveAspectRatio="xMidYMid meet">
<metadata>
Created by potrace 1.16, written by Peter Selinger 2001-2019
</metadata>
<g transform="translate(0.000000,148.000000) scale(0.100000,-0.100000)"
fill="#000000" stroke="none">
<path d="M641 1421 c-11 -7 -13 -34 -9 -135 7 -143 4 -148 -68 -140 -21 3 -45
1 -51 -4 -7 -4 -22 -39 -32 -78 -11 -38 -38 -132 -61 -209 -23 -77 -67 -230
-99 -340 l-58 -200 -106 -3 c-114 -3 -125 -9 -107 -58 9 -21 14 -24 42 -20 18
3 62 7 98 8 59 3 65 1 68 -18 2 -11 -1 -32 -7 -46 -9 -24 -15 -26 -105 -33
l-96 -7 0 -38 c0 -41 14 -53 42 -38 10 4 43 10 75 13 101 7 153 17 154 29 0 6
0 31 0 56 -2 71 17 199 33 222 14 20 36 85 56 168 18 73 74 241 82 246 4 3 8
22 9 42 0 20 12 80 27 132 l27 95 197 3 196 2 20 -62 c31 -98 70 -240 78 -278
3 -19 9 -39 13 -45 3 -5 13 -37 23 -70 9 -33 26 -94 38 -135 39 -132 42 -153
49 -260 6 -99 7 -105 31 -117 14 -7 57 -13 96 -13 39 0 97 -5 129 -11 60 -11
75 -5 75 31 0 37 -17 43 -129 51 -60 4 -115 10 -120 14 -6 3 -11 27 -11 51 l0
46 120 -3 c128 -4 144 1 138 42 -3 24 -4 24 -130 24 -69 0 -129 2 -131 5 -5 5
-24 70 -73 260 -14 52 -36 131 -50 175 -14 44 -31 103 -39 130 -37 137 -60
211 -68 222 -5 7 -36 13 -70 15 l-62 3 0 135 0 135 -30 0 -30 0 -1 -125 c-1
-69 -2 -131 -3 -137 -2 -20 -86 -17 -106 3 -14 14 -15 32 -9 128 6 98 4 114
-10 129 -20 19 -25 20 -45 8z"/>
<path d="M754 699 c-10 -11 -81 -145 -156 -297 l-137 -277 22 -17 c12 -10 27
-18 34 -18 11 0 127 228 175 345 40 97 50 117 56 110 4 -4 7 -115 7 -248 l0
-242 30 0 30 0 -3 233 c-2 227 4 271 28 207 17 -44 51 -117 101 -219 27 -54
49 -103 49 -108 0 -6 9 -23 21 -39 16 -23 26 -28 42 -23 29 8 49 34 38 48 -13
16 -62 109 -185 354 -59 116 -113 212 -120 212 -7 0 -21 -9 -32 -21z"/>
</g>
</svg>
