<?xml version="1.0" standalone="no"?>
<!DOCTYPE svg PUBLIC "-//W3C//DTD SVG 20010904//EN"
 "http://www.w3.org/TR/2001/REC-SVG-20010904/DTD/svg10.dtd">
<svg version="1.0" xmlns="http://www.w3.org/2000/svg"
 width="626.000000pt" height="590.000000pt" viewBox="0 0 626.000000 590.000000"
 preserveAspectRatio="xMidYMid meet">
<metadata>
Created by potrace 1.16, written by Peter Selinger 2001-2019
</metadata>
<g transform="translate(0.000000,590.000000) scale(0.500000,-0.500000)"
fill="#000000" stroke="none">
<path d="M515 1136 c-10 -9 -11 -44 -4 -153 4 -62 0 -67 -49 -63 -18 2 -38 0
-49 -4 -7 -3 -10 -10 -21 -47 -5 -19 -12 -42 -15 -52 -3 -10 -7 -23 -9 -30 -2
-7 -6 -20 -9 -30 -3 -10 -8 -27 -11 -39 -4 -12 -10 -33 -14 -47 -10 -33 -16
-53 -23 -75 -3 -9 -8 -26 -11 -37 -7 -25 -24 -82 -26 -90 -1 -3 -6 -22 -12
-41 -5 -19 -17 -59 -25 -89 -27 -95 -13 -84 -110 -87 -92 -2 -89 -1 -89 -31 0
-32 1 -32 55 -29 123 7 114 9 112 -28 -2 -36 -3 -37 -65 -41 -15 -1 -34 -3
-82 -8 -14 -2 -17 -5 -19 -21 -4 -37 11 -53 41 -41 16 6 46 9 76 9 22 -1 36 1
44 5 4 2 11 3 20 3 44 -1 44 -2 45 65 0 67 5 121 11 133 2 4 4 11 4 15 0 10
10 31 19 41 6 7 7 9 8 21 1 8 3 17 5 21 2 4 6 11 9 17 4 8 6 13 7 30 1 16 2
22 7 31 4 7 5 14 6 26 1 10 3 19 7 28 3 7 6 16 7 19 1 3 4 10 6 16 3 5 6 15 7
23 1 7 4 18 7 24 3 6 5 12 5 14 0 2 3 9 7 17 4 8 7 15 7 17 0 2 2 7 5 10 5 6
6 8 7 31 1 13 2 26 3 29 2 3 3 10 4 15 1 6 3 18 6 27 3 9 7 23 9 30 2 7 5 17
7 21 1 4 4 15 6 23 9 40 7 39 86 41 57 1 66 1 91 1 6 0 32 0 59 1 70 2 89 -2
92 -19 1 -4 3 -11 5 -17 8 -21 10 -29 15 -46 3 -9 5 -19 5 -21 0 -3 4 -16 18
-61 4 -13 9 -27 10 -31 1 -4 5 -18 9 -31 4 -13 8 -33 9 -45 3 -23 3 -25 8 -31
6 -6 15 -32 18 -48 1 -8 4 -19 7 -26 3 -6 7 -17 8 -25 2 -8 4 -17 6 -19 1 -3
3 -8 4 -12 1 -4 5 -17 8 -29 4 -11 8 -27 9 -35 2 -14 5 -23 15 -41 2 -3 4 -15
4 -26 1 -17 2 -23 7 -30 6 -12 8 -27 10 -102 1 -60 2 -64 5 -70 8 -10 36 -15
98 -18 23 -1 51 -3 63 -5 77 -11 93 -7 93 21 0 36 0 36 -93 40 -23 1 -45 3
-51 4 -5 1 -18 3 -28 4 -23 2 -24 2 -27 33 -5 49 -17 44 96 43 111 -1 102 -3
104 25 2 38 7 36 -104 34 -113 -2 -103 -4 -112 29 -2 8 -9 33 -15 55 -6 22
-13 46 -15 54 -2 8 -6 21 -8 29 -9 34 -18 68 -20 80 -1 8 -4 18 -7 23 -3 6 -6
13 -6 20 -1 7 -3 16 -5 21 -11 28 -29 87 -32 107 -1 8 -5 21 -9 29 -4 9 -7 17
-7 19 0 2 -2 8 -4 14 -2 7 -5 18 -6 26 -1 7 -3 15 -4 17 -1 2 -3 10 -4 17 -1
8 -4 16 -5 19 -4 5 -21 55 -21 60 0 19 -11 23 -63 24 -58 1 -55 -5 -52 108 2
100 2 104 -10 111 -14 9 -31 5 -39 -9 -5 -9 -5 -131 0 -161 7 -42 2 -48 -40
-48 -56 1 -53 -6 -53 111 0 99 0 95 -12 106 -9 8 -27 9 -36 2z"/>
<path d="M621 576 c-14 -8 -30 -29 -42 -56 -28 -59 -36 -75 -97 -198 -35 -70
-73 -144 -84 -165 -28 -54 -28 -56 -3 -73 27 -18 34 -15 49 18 4 8 20 43 37
77 16 34 34 71 39 82 5 11 19 40 31 64 11 24 22 47 22 51 2 10 23 49 27 49 6
0 7 -23 4 -183 -4 -195 -4 -185 2 -191 6 -6 46 -6 52 1 6 5 6 -13 2 181 -3
174 -2 188 10 165 2 -5 10 -18 16 -30 18 -35 40 -80 40 -82 0 -5 12 -29 36
-73 8 -16 17 -35 20 -43 3 -8 7 -16 9 -18 1 -1 4 -7 5 -12 2 -9 22 -41 31 -51
7 -7 13 -7 30 2 26 14 29 22 16 44 -4 7 -13 24 -20 39 -8 15 -15 29 -17 32 -4
6 -26 49 -69 132 -54 107 -66 131 -86 172 -29 62 -42 76 -60 66z"/>
</g>
</svg>
