<?xml version="1.0" standalone="no"?>
<!DOCTYPE svg PUBLIC "-//W3C//DTD SVG 20010904//EN"
 "http://www.w3.org/TR/2001/REC-SVG-20010904/DTD/svg10.dtd">
<svg version="1.0" xmlns="http://www.w3.org/2000/svg"
 width="250.000000pt" height="146.000000pt" viewBox="0 0 250.000000 146.000000"
 preserveAspectRatio="xMidYMid meet">
<metadata>
Created by potrace 1.16, written by Peter Selinger 2001-2019
</metadata>
<g transform="translate(0.000000,146.000000) scale(0.100000,-0.100000)"
fill="#000000" stroke="none">
<path d="M484 1380 c-7 -7 -8 -26 -3 -53 4 -23 8 -70 9 -104 l0 -63 -140 0
-140 0 -2 -332 -3 -333 -75 0 -75 0 0 -30 0 -30 78 -3 78 -3 -3 -47 -3 -47
-75 0 -75 0 0 -30 c0 -26 3 -30 28 -29 15 0 61 1 102 2 l75 2 2 408 3 407 343
0 344 0 2 -402 c1 -221 4 -404 7 -408 3 -3 53 -6 110 -8 l104 -2 3 33 3 32
-85 0 -86 0 0 55 0 55 85 0 85 0 0 30 0 30 -85 0 -85 0 0 218 c0 121 -3 267
-7 325 l-6 107 -128 0 -128 0 -3 113 -3 112 -25 0 -25 0 4 -112 3 -113 -76 0
-75 0 -3 113 c-3 103 -5 112 -23 115 -11 1 -25 -2 -31 -8z"/>
<path d="M1744 1286 c6 -84 5 -106 -6 -107 -7 -1 -69 -2 -138 -3 l-125 -1 -3
-332 -2 -333 -84 0 c-76 0 -85 -2 -91 -20 -11 -34 3 -40 91 -40 l84 0 0 -50 0
-50 -79 0 c-82 0 -107 -12 -95 -44 6 -14 21 -16 113 -14 l106 3 3 408 2 407
348 0 347 0 0 -408 0 -407 113 -3 113 -3 -3 33 -3 33 -80 1 -80 0 -6 45 c-4
24 -3 48 2 53 5 6 44 10 86 10 l78 1 0 30 0 30 -82 -4 -83 -3 0 219 c0 120 -3
269 -7 331 l-6 114 -126 -3 -126 -3 -5 104 c-5 104 -5 105 -30 105 l-25 0 3
-102 c4 -115 9 -110 -90 -112 -41 -1 -58 3 -59 11 0 7 -1 56 -2 108 l-2 95
-29 3 -29 4 7 -106z"/>
<path d="M585 562 c-6 -4 -21 -27 -34 -52 -14 -25 -47 -78 -74 -118 -48 -73
-54 -102 -20 -102 12 0 31 24 56 70 21 38 43 72 48 76 8 4 10 -50 8 -174 -2
-99 -1 -184 3 -187 4 -4 16 -4 28 0 21 7 21 8 14 191 -4 116 -3 184 3 184 5 0
31 -38 57 -85 34 -60 53 -85 67 -85 30 0 23 35 -19 98 -21 31 -55 85 -76 119
-41 68 -47 75 -61 65z"/>
<path d="M1848 553 c-9 -10 -21 -29 -28 -43 -7 -14 -38 -62 -68 -107 -33 -51
-52 -89 -48 -99 12 -31 41 -8 83 66 24 41 44 71 45 65 1 -5 2 -89 2 -185 1
-173 1 -175 23 -178 l23 -3 2 198 3 198 40 -70 c22 -38 42 -74 44 -80 2 -5 10
-18 19 -27 11 -14 18 -15 29 -7 20 17 17 27 -35 108 -27 42 -64 100 -82 129
-17 28 -33 52 -34 52 -2 0 -10 -8 -18 -17z"/>
</g>
</svg>
