<?xml version="1.0" standalone="no"?>
<!DOCTYPE svg PUBLIC "-//W3C//DTD SVG 20010904//EN"
 "http://www.w3.org/TR/2001/REC-SVG-20010904/DTD/svg10.dtd">
<svg version="1.0" xmlns="http://www.w3.org/2000/svg"
 width="996.000000pt" height="582.000000pt" viewBox="0 0 996.000000 582.000000"
 preserveAspectRatio="xMidYMid meet">
<metadata>
Created by potrace 1.16, written by Peter Selinger 2001-2019
</metadata>
<g transform="translate(0.000000,582.000000) scale(0.500000,-0.500000)"
fill="#000000" stroke="none">
<path d="M393 1109 c-10 -4 -12 -11 -9 -25 4 -23 5 -146 1 -151 -4 -3 -9 -3
-105 -3 -131 1 -112 45 -112 -268 0 -245 0 -259 -3 -261 -3 -2 -17 -3 -58 -3
-68 0 -66 1 -65 -27 1 -28 0 -27 66 -27 67 1 61 5 61 -36 0 -41 6 -37 -62 -37
-66 0 -65 0 -65 -25 0 -25 -4 -24 86 -24 100 1 86 -52 87 330 1 285 1 319 4
321 7 6 533 6 540 0 3 -2 3 -43 4 -320 0 -223 1 -320 3 -323 4 -7 14 -8 94 -8
91 1 87 0 86 29 -2 26 1 25 -71 25 -71 0 -65 -3 -67 35 -1 50 -6 47 67 47 70
0 69 0 71 21 2 32 -1 34 -73 33 -47 -1 -57 -1 -60 2 -3 3 -3 14 -3 199 1 183
1 197 -2 206 -3 8 -4 16 -4 56 0 64 12 58 -107 56 -118 -2 -102 -15 -102 88 0
96 1 91 -23 93 -24 1 -32 -7 -27 -30 5 -24 5 -146 0 -149 -8 -6 -107 -3 -111
3 -2 5 -2 21 0 80 1 83 1 85 -7 91 -7 5 -25 6 -34 2z"/>
<path d="M1397 1109 c-9 -4 -9 1 -7 -77 3 -82 3 -85 -7 -88 -3 -1 -47 -1 -98
0 -100 1 -104 1 -111 -7 -4 -6 -4 -6 -4 -262 1 -244 1 -257 -3 -260 -3 -4 -8
-4 -62 -4 -71 0 -69 1 -69 -27 0 -27 -2 -26 69 -26 74 0 68 4 67 -39 -1 -41 5
-37 -65 -37 -69 0 -70 0 -71 -20 -2 -29 -5 -28 90 -28 85 0 85 0 90 9 1 4 2
85 2 322 0 278 0 317 3 320 5 5 528 8 540 2 5 -2 5 6 5 -327 1 -316 1 -316 7
-321 5 -5 5 -5 86 -5 96 0 88 -2 88 27 0 30 3 29 -70 29 -72 0 -65 -4 -65 40
0 44 -7 40 67 40 71 0 71 0 69 33 -2 22 -2 22 -67 21 -53 -1 -64 -1 -67 4 -1
1 -1 89 0 195 0 173 0 194 -3 206 -2 11 -3 25 -3 59 0 57 -2 60 -36 57 -31 -2
-168 -2 -171 1 -4 4 -5 10 -3 80 2 83 2 86 -24 86 -22 0 -26 -6 -24 -39 8
-133 9 -130 -56 -130 -66 0 -59 -11 -57 82 1 74 1 74 -3 80 -6 7 -27 9 -37 4z"/>
<path d="M465 451 c-4 -4 -10 -14 -14 -22 -9 -17 -45 -76 -75 -125 -33 -52
-34 -68 -5 -68 11 0 11 -1 48 61 38 65 36 75 32 -123 -2 -116 -2 -111 18 -113
28 -4 28 -5 25 123 -2 103 -2 168 0 171 4 4 15 -11 54 -79 23 -40 30 -49 37
-50 10 -1 14 0 20 7 12 12 13 10 -34 85 -12 19 -34 55 -49 80 -37 62 -43 68
-57 53z"/>
<path d="M1475 451 c-3 -4 -11 -17 -18 -29 -13 -24 -54 -91 -78 -128 -23 -36
-25 -44 -11 -54 17 -12 22 -9 51 39 50 86 47 92 43 -78 -3 -146 -4 -141 20
-141 26 0 25 -7 22 148 -4 181 -8 175 51 74 34 -59 36 -61 50 -56 25 9 23 17
-12 73 -22 35 -53 86 -73 120 -22 38 -33 45 -45 32z"/>
</g>
</svg>
