<?xml version="1.0" standalone="no"?>
<!DOCTYPE svg PUBLIC "-//W3C//DTD SVG 20010904//EN"
 "http://www.w3.org/TR/2001/REC-SVG-20010904/DTD/svg10.dtd">
<svg version="1.0" xmlns="http://www.w3.org/2000/svg"
 width="61.000000pt" height="100.000000pt" viewBox="0 0 61.000000 100.000000"
 preserveAspectRatio="xMidYMid meet">
<metadata>
Created by potrace 1.16, written by Peter Selinger 2001-2019
</metadata>
<g transform="translate(0.000000,100.000000) scale(0.100000,-0.100000)"
fill="#000000" stroke="none">
<path d="M257 963 c-4 -3 -7 -102 -7 -220 l0 -213 -94 0 c-73 0 -98 -4 -110
-16 -14 -13 -16 -50 -16 -244 l0 -228 183 -7 c101 -4 222 -3 268 1 l84 9 -2
233 c-1 129 -4 237 -8 240 -4 4 -61 9 -128 12 l-122 5 3 175 c3 209 -2 260
-27 260 -10 0 -21 -3 -24 -7z m251 -691 l2 -192 -212 2 -213 3 -6 185 c-3 125
-2 187 5 192 6 5 103 7 216 5 l205 -2 3 -193z"/>
</g>
</svg>
