<?xml version="1.0" standalone="no"?>
<!DOCTYPE svg PUBLIC "-//W3C//DTD SVG 20010904//EN"
 "http://www.w3.org/TR/2001/REC-SVG-20010904/DTD/svg10.dtd">
<svg version="1.0" xmlns="http://www.w3.org/2000/svg"
 width="360.000000pt" height="590.000000pt" viewBox="0 0 360.000000 590.000000"
 preserveAspectRatio="xMidYMid meet">
<metadata>
Created by potrace 1.16, written by Peter Selinger 2001-2019
</metadata>
<g transform="translate(0.000000,590.000000) scale(0.500000,-0.500000)"
fill="#000000" stroke="none">
<path d="M309 1141 c-15 -4 -14 17 -12 -259 1 -205 1 -250 -1 -251 -2 -2 -13
-3 -25 -4 -14 0 -25 -2 -29 -4 -7 -3 -19 -3 -102 -3 -92 0 -93 0 -97 -4 -7 -7
-6 -558 1 -564 8 -9 610 -7 620 1 6 6 9 338 3 360 -4 13 -4 35 0 48 4 13 4 36
0 48 -3 10 -3 32 0 65 1 12 -9 36 -18 44 -6 5 -75 7 -119 4 -35 -2 -164 -3
-168 0 -3 2 -3 25 -2 196 2 323 2 313 -3 318 -5 5 -37 8 -48 5z m225 -579 c8
-3 15 -4 32 -4 24 0 44 -8 46 -18 3 -12 1 -441 -2 -445 -5 -6 -516 -4 -518 2
-1 3 -2 59 -2 144 0 116 -1 139 -3 143 -2 3 -3 9 -3 14 0 5 1 11 3 14 5 8 4
60 -1 74 -3 8 -4 15 -4 33 0 43 -19 39 189 39 149 0 174 0 180 3 4 2 10 3 12
3 2 0 8 -1 12 -3 9 -4 20 -4 31 1 12 5 16 5 28 0z"/>
</g>
</svg>
