<?xml version="1.0" standalone="no"?>
<!DOCTYPE svg PUBLIC "-//W3C//DTD SVG 20010904//EN"
 "http://www.w3.org/TR/2001/REC-SVG-20010904/DTD/svg10.dtd">
<svg version="1.0" xmlns="http://www.w3.org/2000/svg"
 width="90.000000pt" height="148.000000pt" viewBox="0 0 90.000000 148.000000"
 preserveAspectRatio="xMidYMid meet">
<metadata>
Created by potrace 1.16, written by Peter Selinger 2001-2019
</metadata>
<g transform="translate(0.000000,148.000000) scale(0.100000,-0.100000)"
fill="#000000" stroke="none">
<path d="M375 1422 c-3 -3 -5 -148 -5 -323 l0 -317 -65 -7 c-36 -4 -107 -5
-158 -4 l-92 3 0 -359 0 -360 376 -1 c207 -1 382 1 389 6 9 6 11 60 9 231 -1
123 -2 239 -1 257 4 105 -3 201 -15 213 -8 8 -66 11 -193 10 l-181 -1 1 320
c1 175 -1 323 -4 328 -6 10 -52 13 -61 4z m377 -733 c17 -9 18 -25 16 -292
l-3 -282 -327 -3 -328 -2 -1 177 c-1 98 -2 230 -3 293 l-1 115 230 5 c273 6
391 3 417 -11z"/>
</g>
</svg>
