<?xml version="1.0" standalone="no"?>
<!DOCTYPE svg PUBLIC "-//W3C//DTD SVG 20010904//EN"
 "http://www.w3.org/TR/2001/REC-SVG-20010904/DTD/svg10.dtd">
<svg version="1.0" xmlns="http://www.w3.org/2000/svg"
 width="496.000000pt" height="590.000000pt" viewBox="0 0 496.000000 590.000000"
 preserveAspectRatio="xMidYMid meet">
<metadata>
Created by potrace 1.16, written by Peter Selinger 2001-2019
</metadata>
<g transform="translate(0.000000,590.000000) scale(0.500000,-0.500000)"
fill="#000000" stroke="none">
<path d="M451 1138 c-15 -12 -16 -57 -12 -405 2 -126 4 -115 -20 -115 -8 0
-20 -2 -28 -4 -13 -4 -20 -4 -110 -4 -102 0 -101 0 -106 -11 -7 -11 -6 -539 1
-545 4 -5 4 -5 306 -5 l301 0 12 7 c20 10 19 0 19 123 0 59 0 116 0 125 1 33
1 53 -2 100 -2 35 -2 50 -1 63 2 10 2 20 1 27 -1 6 -2 30 -2 52 0 47 1 43 -18
56 -16 11 -29 12 -182 9 -108 -1 -115 -1 -118 5 -1 2 -1 96 0 253 1 252 1 263
-5 269 -5 5 -29 5 -36 0z m299 -581 c13 -4 12 8 12 -228 0 -194 0 -217 -3
-220 -5 -4 -533 -5 -537 0 -4 5 -4 437 1 440 6 4 24 6 59 4 18 0 58 0 88 1 30
1 115 3 189 3 74 1 134 2 135 2 2 2 50 1 56 -2z"/>
<path d="M52 1130 l-7 -6 2 -256 c0 -140 1 -380 1 -533 0 -270 0 -279 4 -283
9 -9 32 -6 36 4 1 3 2 177 3 537 l1 531 -6 6 c-9 9 -26 9 -34 0z"/>
<path d="M896 1124 l-7 -6 2 -206 c1 -113 2 -352 2 -531 1 -299 1 -326 4 -329
7 -8 33 -7 36 2 1 2 4 733 4 1007 0 59 0 59 -6 64 -9 8 -27 7 -35 -1z"/>
</g>
</svg>
