<?xml version="1.0" standalone="no"?>
<!DOCTYPE svg PUBLIC "-//W3C//DTD SVG 20010904//EN"
 "http://www.w3.org/TR/2001/REC-SVG-20010904/DTD/svg10.dtd">
<svg version="1.0" xmlns="http://www.w3.org/2000/svg"
 width="84.000000pt" height="100.000000pt" viewBox="0 0 84.000000 100.000000"
 preserveAspectRatio="xMidYMid meet">
<metadata>
Created by potrace 1.16, written by Peter Selinger 2001-2019
</metadata>
<g transform="translate(0.000000,100.000000) scale(0.100000,-0.100000)"
fill="#000000" stroke="none">
<path d="M40 500 c0 -444 1 -471 18 -468 16 3 17 33 17 468 0 435 -1 465 -17
468 -17 3 -18 -24 -18 -468z"/>
<path d="M374 958 c-4 -7 -9 -100 -10 -208 -1 -107 -2 -203 -3 -212 -1 -16
-13 -18 -100 -18 -71 0 -102 -4 -110 -14 -8 -9 -11 -81 -9 -237 l3 -224 153
-9 c84 -4 204 -5 266 -1 105 6 115 9 120 28 3 12 6 112 6 223 0 249 10 234
-153 234 l-117 0 -2 222 c-3 198 -5 223 -20 226 -9 2 -20 -3 -24 -10z m256
-508 c6 -12 9 -83 8 -187 l-3 -168 -220 0 -220 0 -3 182 -2 182 37 4 c21 2
118 4 215 5 167 2 178 1 188 -18z"/>
<path d="M752 498 c3 -432 4 -463 21 -466 16 -3 17 24 17 462 0 460 0 466 -20
466 -20 0 -20 -5 -18 -462z"/>
</g>
</svg>
