<?xml version="1.0" standalone="no"?>
<!DOCTYPE svg PUBLIC "-//W3C//DTD SVG 20010904//EN"
 "http://www.w3.org/TR/2001/REC-SVG-20010904/DTD/svg10.dtd">
<svg version="1.0" xmlns="http://www.w3.org/2000/svg"
 width="508.000000pt" height="590.000000pt" viewBox="0 0 508.000000 590.000000"
 preserveAspectRatio="xMidYMid meet">
<metadata>
Created by potrace 1.16, written by Peter Selinger 2001-2019
</metadata>
<g transform="translate(0.000000,590.000000) scale(0.500000,-0.500000)"
fill="#000000" stroke="none">
<path d="M467 1136 c-3 -2 -6 -6 -7 -9 -3 -4 -3 -172 -1 -385 2 -119 1 -124
-4 -127 -8 -4 -54 -5 -149 -6 -54 0 -101 -1 -104 -1 -16 0 -15 18 -13 -277 1
-279 1 -278 10 -280 17 -5 586 -2 601 2 21 7 19 1 21 78 10 528 23 478 -122
477 -165 -1 -160 -1 -164 2 -3 3 -3 14 -2 259 l1 257 -7 7 c-9 9 -50 11 -60 3z
m286 -591 c3 -1 5 -3 6 -5 2 -8 3 -419 0 -423 -3 -5 -495 -5 -500 -1 -4 4 -4
-6 -3 225 0 166 0 197 3 200 4 5 470 9 494 4z"/>
<path d="M43 1129 c-5 -5 -6 -20 -6 -119 0 -32 46 -51 66 -27 11 12 7 146 -4
150 -10 4 -51 1 -56 -4z"/>
<path d="M897 1129 c-7 -6 -11 -134 -4 -144 7 -11 61 -13 70 -2 11 12 7 146
-4 150 -10 4 -57 1 -62 -4z"/>
<path d="M60 199 c-12 -5 -16 -138 -4 -147 7 -6 43 -6 51 0 8 7 7 138 -1 144
-7 6 -36 7 -46 3z"/>
<path d="M917 200 c-25 -2 -24 2 -23 -77 0 -82 -3 -75 37 -75 38 0 35 -8 35
76 0 84 2 81 -49 76z"/>
</g>
</svg>
