<?xml version="1.0" standalone="no"?>
<!DOCTYPE svg PUBLIC "-//W3C//DTD SVG 20010904//EN"
 "http://www.w3.org/TR/2001/REC-SVG-20010904/DTD/svg10.dtd">
<svg version="1.0" xmlns="http://www.w3.org/2000/svg"
 width="86.000000pt" height="100.000000pt" viewBox="0 0 86.000000 100.000000"
 preserveAspectRatio="xMidYMid meet">
<metadata>
Created by potrace 1.16, written by Peter Selinger 2001-2019
</metadata>
<g transform="translate(0.000000,100.000000) scale(0.100000,-0.100000)"
fill="#000000" stroke="none">
<path d="M390 949 c-9 -15 -11 -82 -9 -223 l4 -201 -112 -9 -113 -9 0 -228 c0
-125 4 -230 8 -233 15 -9 427 -17 472 -9 l45 9 5 224 c3 124 2 230 -3 235 -5
6 -58 10 -120 10 l-112 0 -5 225 c-5 222 -5 225 -27 228 -14 2 -26 -4 -33 -19z
m245 -669 l0 -175 -90 -6 c-49 -4 -143 -4 -207 -1 l-118 5 0 179 0 178 208 -2
207 -3 0 -175z"/>
<path d="M762 961 c-9 -5 -12 -27 -10 -72 3 -59 5 -64 27 -67 31 -5 41 12 41
75 0 42 -4 54 -19 63 -23 12 -23 12 -39 1z"/>
<path d="M34 946 c-3 -7 -4 -38 -2 -67 3 -50 5 -54 27 -54 30 0 44 40 34 97
-5 32 -10 38 -30 38 -13 0 -26 -6 -29 -14z"/>
<path d="M47 173 c-4 -3 -7 -35 -7 -70 0 -67 15 -88 45 -63 17 14 20 91 5 121
-11 19 -31 25 -43 12z"/>
<path d="M768 169 c-14 -7 -18 -23 -18 -63 0 -57 15 -80 47 -74 33 6 28 149
-6 148 -3 0 -14 -5 -23 -11z"/>
</g>
</svg>
