<?xml version="1.0" standalone="no"?>
<!DOCTYPE svg PUBLIC "-//W3C//DTD SVG 20010904//EN"
 "http://www.w3.org/TR/2001/REC-SVG-20010904/DTD/svg10.dtd">
<svg version="1.0" xmlns="http://www.w3.org/2000/svg"
 width="59.000000pt" height="100.000000pt" viewBox="0 0 59.000000 100.000000"
 preserveAspectRatio="xMidYMid meet">
<metadata>
Created by potrace 1.16, written by Peter Selinger 2001-2019
</metadata>
<g transform="translate(0.000000,100.000000) scale(0.100000,-0.100000)"
fill="#000000" stroke="none">
<path d="M247 963 c-4 -4 -5 -84 -1 -178 4 -94 4 -192 0 -218 l-7 -46 -102 -3
-102 -3 -3 -237 -2 -236 87 -7 c89 -8 420 -1 429 8 7 7 5 457 -2 468 -3 5 -59
9 -125 9 l-119 0 -2 28 c-1 15 -2 115 -3 222 0 189 -1 195 -20 198 -12 2 -24
-1 -28 -5z m261 -684 l2 -187 -117 -3 c-65 -2 -163 -2 -218 1 l-100 5 -3 174
c-2 121 1 178 9 187 10 12 51 14 218 12 l206 -3 3 -186z"/>
<path d="M126 394 c-9 -25 -7 -237 3 -253 10 -16 18 -12 72 37 26 23 28 23 53
7 26 -17 28 -17 51 5 l24 22 35 -27 c30 -23 39 -25 52 -15 8 8 14 25 12 39 -2
21 -8 25 -26 24 -44 -5 -63 14 -60 59 4 52 28 70 57 44 19 -18 21 -18 27 -1
10 24 -8 69 -28 73 -9 2 -30 -6 -46 -18 -25 -18 -32 -20 -55 -9 -23 10 -30 9
-45 -4 -25 -23 -39 -21 -74 8 -34 29 -44 31 -52 9z m79 -88 c12 -18 13 -29 5
-52 -11 -27 -26 -44 -42 -44 -5 0 -8 27 -8 60 0 67 17 80 45 36z"/>
</g>
</svg>
