<?xml version="1.0" standalone="no"?>
<!DOCTYPE svg PUBLIC "-//W3C//DTD SVG 20010904//EN"
 "http://www.w3.org/TR/2001/REC-SVG-20010904/DTD/svg10.dtd">
<svg version="1.0" xmlns="http://www.w3.org/2000/svg"
 width="352.000000pt" height="590.000000pt" viewBox="0 0 352.000000 590.000000"
 preserveAspectRatio="xMidYMid meet">
<metadata>
Created by potrace 1.16, written by Peter Selinger 2001-2019
</metadata>
<g transform="translate(0.000000,590.000000) scale(0.500000,-0.500000)"
fill="#000000" stroke="none">
<path d="M302 1136 l-7 -6 2 -155 c3 -403 5 -359 -19 -359 -7 0 -18 -1 -24 -3
-10 -3 -21 -3 -103 -2 -99 1 -107 1 -110 -7 -6 -12 -1 -547 4 -551 7 -6 590
-8 604 -2 14 6 13 -15 13 272 l0 260 -6 13 c-10 18 -7 18 -195 15 -130 -2
-111 -46 -110 263 2 301 5 267 -25 268 -18 0 -18 0 -24 -6z m299 -577 c12 -2
12 0 14 -124 3 -285 3 -333 -1 -335 -6 -3 -517 -5 -526 -2 -11 3 -10 -10 -10
226 0 205 1 227 6 233 4 4 493 5 517 2z"/>
<path d="M457 484 c-4 -3 -20 -16 -34 -31 -33 -33 -35 -34 -53 -15 -29 29 -69
21 -90 -20 -9 -16 -12 -17 -23 -5 -4 5 -12 11 -18 15 -5 3 -11 7 -12 10 -2 2
-11 9 -21 16 -10 7 -19 14 -20 16 -6 11 -23 15 -30 8 -6 -6 -6 -313 0 -319 9
-8 12 -6 64 46 58 57 49 54 77 26 24 -25 31 -29 43 -23 6 3 48 47 48 50 0 9
15 1 42 -21 63 -51 75 -51 75 4 0 30 -2 36 -10 39 -11 4 -18 -2 -22 -20 -3
-16 -73 36 -70 52 3 19 3 32 0 44 -6 25 -6 24 24 53 40 40 42 41 47 12 5 -28
22 -42 37 -30 8 8 -13 83 -27 94 -5 4 -18 3 -27 -1z m-114 -64 c20 -14 21 -28
1 -47 -15 -15 -16 -15 -27 -8 -20 14 -22 17 -14 36 9 23 24 30 40 19z m-134
-14 c37 -25 47 -34 48 -41 0 -3 1 -22 2 -41 l1 -35 -33 -32 c-47 -46 -43 -52
-43 63 0 113 -2 105 25 86z m139 -106 c13 -13 13 -16 -2 -38 -17 -26 -26 -26
-39 -1 -17 30 18 63 41 39z"/>
</g>
</svg>
