<?xml version="1.0" standalone="no"?>
<!DOCTYPE svg PUBLIC "-//W3C//DTD SVG 20010904//EN"
 "http://www.w3.org/TR/2001/REC-SVG-20010904/DTD/svg10.dtd">
<svg version="1.0" xmlns="http://www.w3.org/2000/svg"
 width="88.000000pt" height="148.000000pt" viewBox="0 0 88.000000 148.000000"
 preserveAspectRatio="xMidYMid meet">
<metadata>
Created by potrace 1.16, written by Peter Selinger 2001-2019
</metadata>
<g transform="translate(0.000000,148.000000) scale(0.100000,-0.100000)"
fill="#000000" stroke="none">
<path d="M377 1423 c-4 -3 -7 -154 -7 -335 l0 -329 -22 2 c-13 1 -85 1 -161 1
l-137 -2 2 -351 3 -350 370 0 c204 1 376 1 383 1 10 0 12 73 10 348 l-3 347
-194 3 -194 2 5 324 c4 229 3 327 -5 335 -12 12 -40 15 -50 4z m390 -1015 l3
-288 -340 0 -340 0 0 283 c0 156 3 287 7 290 4 4 155 6 337 5 l330 -3 3 -287z"/>
<path d="M530 565 l-43 -44 -29 24 c-16 14 -33 25 -38 25 -26 0 -62 -23 -70
-45 -10 -27 -24 -32 -37 -12 -12 19 -100 87 -112 87 -8 0 -11 -65 -11 -205 0
-113 4 -205 8 -205 4 0 34 27 67 60 33 33 64 60 69 60 6 0 25 -15 44 -32 l33
-33 39 42 40 42 50 -40 c65 -52 85 -49 85 11 0 34 -4 46 -17 48 -10 2 -18 -4
-20 -17 -3 -20 -4 -20 -45 6 -39 26 -42 30 -45 83 -3 51 0 58 31 93 38 42 61
48 61 14 0 -25 17 -47 37 -47 16 0 16 25 0 70 -26 75 -37 76 -97 15z m-243
-82 c27 -23 33 -36 35 -76 2 -43 -2 -51 -37 -87 -21 -22 -44 -40 -51 -40 -8 0
-12 37 -13 125 -1 140 -2 138 66 78z m154 26 c9 -17 7 -25 -11 -44 -19 -20
-25 -22 -41 -12 -21 13 -24 29 -9 58 14 25 46 24 61 -2z m29 -89 c0 -11 -4
-20 -9 -20 -14 0 -23 18 -16 30 10 17 25 11 25 -10z m-100 -5 c0 -8 -4 -15
-10 -15 -5 0 -10 7 -10 15 0 8 5 15 10 15 6 0 10 -7 10 -15z m64 -41 c20 -19
20 -19 0 -49 -21 -32 -41 -32 -56 0 -9 21 -8 28 7 45 22 24 29 25 49 4z"/>
</g>
</svg>
