<?xml version="1.0" standalone="no"?>
<!DOCTYPE svg PUBLIC "-//W3C//DTD SVG 20010904//EN"
 "http://www.w3.org/TR/2001/REC-SVG-20010904/DTD/svg10.dtd">
<svg version="1.0" xmlns="http://www.w3.org/2000/svg"
 width="148.000000pt" height="148.000000pt" viewBox="0 0 148.000000 148.000000"
 preserveAspectRatio="xMidYMid meet">
<metadata>
Created by potrace 1.16, written by Peter Selinger 2001-2019
</metadata>
<g transform="translate(0.000000,148.000000) scale(0.100000,-0.100000)"
fill="#000000" stroke="none">
<path d="M300 1415 c-9 -11 -11 -36 -7 -88 4 -39 7 -180 8 -312 l1 -240 -113
-2 c-63 -1 -120 -2 -126 -3 -10 0 -13 -77 -13 -350 l0 -350 78 0 c208 -2 449
-9 462 -14 8 -3 22 -2 30 4 13 8 15 60 18 348 3 311 2 340 -14 353 -13 10 -49
14 -142 14 l-125 0 -1 318 c-1 269 -4 319 -16 327 -20 13 -26 12 -40 -5z m278
-697 c6 -6 12 -26 12 -44 0 -27 -5 -35 -22 -39 -13 -3 -122 -4 -243 -3 l-220
3 0 40 0 40 130 5 c216 9 329 8 343 -2z m10 -188 c1 -25 -1 -50 -5 -56 -10
-14 -461 -28 -477 -15 -6 5 -10 33 -8 65 l4 56 241 -3 242 -2 3 -45z m-203
-135 c61 2 131 7 158 11 l47 7 0 -67 c0 -36 -3 -66 -7 -67 -5 0 -102 -2 -218
-4 -115 -1 -222 -6 -237 -10 -25 -6 -28 -4 -29 16 -1 13 -2 40 -4 59 -4 67 -5
67 93 58 48 -5 137 -6 197 -3z m205 -223 c0 -21 -5 -43 -12 -50 -14 -14 -196
-16 -371 -5 l-107 6 0 44 0 43 245 0 245 0 0 -38z"/>
<path d="M1064 1416 c-17 -13 -18 -18 -7 -45 7 -19 8 -33 2 -37 -6 -4 -6 -11
1 -19 7 -8 9 -100 8 -276 l-3 -264 -115 0 c-63 0 -120 -3 -125 -7 -12 -7 -14
-682 -3 -694 11 -10 559 -7 568 3 4 4 11 159 14 344 6 314 5 337 -12 344 -9 4
-74 6 -144 6 l-128 -2 0 324 c0 287 -2 326 -16 331 -20 8 -17 8 -40 -8z m286
-736 c0 -29 -5 -42 -19 -50 -12 -6 -103 -10 -227 -10 -179 0 -210 2 -226 17
-21 18 -24 69 -5 76 6 3 117 6 245 6 l232 1 0 -40z m4 -124 c3 -12 3 -38 -1
-58 l-6 -38 -131 -2 c-72 -1 -171 -3 -221 -4 -134 -5 -135 -4 -135 60 0 30 5
56 10 58 6 2 116 3 244 4 228 0 235 -1 240 -20z m-333 -163 c95 -3 144 -1 153
6 10 9 21 8 41 -1 20 -9 31 -9 46 0 27 17 88 15 95 -2 3 -8 2 -38 -3 -66 l-8
-52 -240 -1 -240 0 -3 67 c-2 48 0 66 8 61 6 -4 74 -9 151 -12z m330 -175 c4
-34 -4 -94 -13 -99 -6 -4 -112 -7 -235 -6 -204 0 -225 2 -233 18 -14 25 -12
65 3 78 9 6 85 12 208 14 107 1 211 3 232 5 23 1 38 -3 38 -10z"/>
</g>
</svg>
