<?xml version="1.0" standalone="no"?>
<!DOCTYPE svg PUBLIC "-//W3C//DTD SVG 20010904//EN"
 "http://www.w3.org/TR/2001/REC-SVG-20010904/DTD/svg10.dtd">
<svg version="1.0" xmlns="http://www.w3.org/2000/svg"
 width="100.000000pt" height="100.000000pt" viewBox="0 0 100.000000 100.000000"
 preserveAspectRatio="xMidYMid meet">
<metadata>
Created by potrace 1.16, written by Peter Selinger 2001-2019
</metadata>
<g transform="translate(0.000000,100.000000) scale(0.100000,-0.100000)"
fill="#000000" stroke="none">
<path d="M198 963 c-2 -4 -3 -102 -3 -218 l0 -210 -75 -3 c-44 -2 -78 -8 -82
-15 -9 -14 -11 -438 -2 -461 5 -14 32 -16 199 -16 l192 0 7 77 c11 133 7 388
-6 401 -7 7 -44 12 -95 12 l-83 0 -2 218 c-3 217 -3 217 -25 220 -13 2 -24 0
-25 -5z m195 -497 c12 -30 -16 -36 -158 -36 -144 0 -172 6 -162 34 5 14 28 16
161 16 121 0 155 -3 159 -14z m-3 -91 c6 -8 9 -23 5 -34 -7 -24 -83 -34 -225
-29 l-95 3 -3 32 c-4 40 -2 40 169 42 108 1 139 -2 149 -14z m7 -121 c3 -8 1
-26 -5 -40 -12 -24 -12 -24 -167 -24 l-155 0 0 35 0 34 73 4 c198 9 247 7 254
-9z m-4 -128 c3 -8 0 -22 -7 -31 -10 -14 -30 -16 -153 -13 -145 3 -172 10
-160 42 5 14 30 16 161 16 123 0 155 -3 159 -14z"/>
<path d="M714 959 c-3 -6 -3 -99 0 -208 4 -108 3 -201 -1 -208 -5 -7 -40 -13
-83 -15 l-75 -3 -8 -65 c-9 -71 0 -401 11 -412 4 -4 88 -10 187 -14 159 -6
182 -5 194 9 19 24 29 450 11 472 -9 11 -33 15 -95 15 -66 0 -84 3 -89 16 -3
9 -6 108 -6 220 0 195 -1 204 -19 204 -11 0 -23 -5 -27 -11z m194 -501 c-3
-23 -6 -23 -152 -26 -150 -3 -174 2 -163 32 5 14 30 16 162 16 l156 0 -3 -22z
m-3 -103 c0 -38 -18 -42 -181 -44 -130 -1 -152 7 -139 48 7 24 36 28 200 27
l120 -1 0 -30z m5 -119 c0 -30 -4 -34 -31 -40 -50 -10 -245 -7 -274 4 -20 7
-26 16 -23 33 3 20 10 23 73 28 39 3 112 6 163 7 l92 2 0 -34z m-22 -92 c27
-8 29 -39 3 -54 -28 -15 -274 -13 -289 2 -19 19 -14 38 11 48 25 10 240 13
275 4z"/>
</g>
</svg>
