<?xml version="1.0" standalone="no"?>
<!DOCTYPE svg PUBLIC "-//W3C//DTD SVG 20010904//EN"
 "http://www.w3.org/TR/2001/REC-SVG-20010904/DTD/svg10.dtd">
<svg version="1.0" xmlns="http://www.w3.org/2000/svg"
 width="590.000000pt" height="590.000000pt" viewBox="0 0 590.000000 590.000000"
 preserveAspectRatio="xMidYMid meet">
<metadata>
Created by potrace 1.16, written by Peter Selinger 2001-2019
</metadata>
<g transform="translate(0.000000,590.000000) scale(0.500000,-0.500000)"
fill="#000000" stroke="none">
<path d="M248 1139 c-10 -5 -13 -12 -13 -33 0 -10 1 -23 1 -29 0 -5 0 -11 0
-13 3 -62 4 -114 4 -208 0 -63 1 -141 2 -172 1 -31 1 -58 1 -59 -2 -5 -12 -6
-98 -5 -103 0 -108 -1 -102 -25 0 -2 1 -91 1 -197 -1 -332 -1 -335 9 -341 3
-2 94 -5 137 -5 6 0 48 1 93 1 64 1 84 1 93 -1 18 -5 121 -4 125 0 7 7 7 26 8
203 1 130 2 178 3 188 2 10 3 35 3 83 0 102 10 94 -124 94 -98 0 -99 0 -101 4
-3 5 -4 94 -1 110 1 8 0 16 -2 28 -2 14 -2 20 -1 36 2 12 3 43 2 81 0 34 0
104 -1 155 0 51 -1 95 -2 98 -3 9 -25 14 -37 7z m210 -561 c10 -4 12 -11 12
-35 0 -38 20 -34 -198 -35 -210 -1 -188 -5 -188 34 0 35 -12 31 100 32 65 1
97 2 100 3 7 4 165 4 174 1z m-205 -114 c12 -3 62 -3 76 1 11 3 14 3 27 0 12
-2 17 -2 23 -1 6 2 12 2 25 0 13 -2 19 -2 29 0 30 6 49 -15 41 -48 -1 -5 -2
-14 -3 -20 -4 -29 1 -28 -117 -28 -79 0 -100 -1 -111 -3 -10 -3 -20 -3 -43 -2
-31 1 -36 1 -74 1 -30 -1 -42 2 -46 12 -5 15 -1 79 6 87 1 1 10 2 29 1 41 -1
103 0 110 2 7 2 16 1 28 -2z m219 -144 c5 -5 5 -9 1 -66 -2 -24 -5 -30 -16
-30 -6 -1 -70 -2 -85 -2 -7 0 -40 0 -72 1 -58 1 -59 1 -70 -3 -10 -4 -10 -4
-20 0 -11 5 -16 5 -28 1 -7 -2 -11 -2 -20 0 -9 3 -12 3 -23 0 -9 -2 -14 -2
-18 -1 -8 3 -10 3 -18 -4 -18 -16 -26 6 -25 67 1 39 2 43 14 40 12 -3 20 -4
28 -3 5 1 14 1 21 0 9 -1 16 -1 22 0 7 2 13 2 19 0 16 -3 137 -3 150 1 10 3
12 3 22 0 15 -4 36 -4 52 1 20 6 61 5 66 -2z m-2 -156 c4 -2 4 -3 3 -13 -1 -5
-2 -18 -2 -27 -2 -16 -2 -17 -9 -24 l-8 -8 -125 0 c-90 0 -128 1 -133 2 -4 2
-27 3 -54 4 -60 1 -58 0 -59 34 -1 25 0 32 9 34 10 3 373 1 378 -2z"/>
<path d="M860 1141 c-16 -7 -24 -31 -16 -50 3 -9 3 -12 1 -21 -1 -8 -1 -12 1
-17 2 -5 3 -42 4 -195 1 -104 2 -199 3 -210 2 -26 0 -28 -16 -28 -5 0 -46 0
-90 0 -83 0 -89 0 -92 -8 -3 -7 -1 -538 2 -545 6 -14 -12 -13 230 -13 252 0
225 -3 231 23 4 15 4 22 4 127 0 125 2 250 6 333 4 88 12 83 -125 83 -121 0
-106 -11 -105 76 0 21 0 44 0 49 0 6 0 23 0 39 0 16 0 58 0 93 0 35 0 106 0
158 0 111 2 105 -22 106 -7 1 -14 0 -16 0z m216 -571 c8 -8 6 -49 -2 -56 -16
-15 7 -13 -229 -12 l-132 0 -9 10 c-12 12 -15 50 -4 58 7 6 370 6 376 0z m1
-111 c5 -5 10 -32 7 -43 -1 -5 -3 -14 -3 -20 -4 -29 1 -28 -116 -28 -82 0
-100 -1 -114 -3 -12 -3 -21 -3 -42 -2 -35 2 -47 2 -65 0 -24 -2 -49 4 -53 12
-6 16 -3 73 5 81 7 7 374 10 381 3z m4 -134 c6 -6 7 -32 2 -52 -2 -7 -3 -18
-3 -26 0 -23 2 -22 -51 -24 -25 -1 -48 -1 -51 -1 -24 2 -255 1 -262 0 -23 -6
-27 2 -27 57 0 47 0 47 18 42 9 -3 13 -3 22 -2 7 2 13 2 21 0 8 -1 15 -1 23 0
7 2 14 2 18 1 14 -4 141 -2 150 2 9 5 12 5 22 0 13 -6 45 -5 55 2 14 10 55 11
63 1z m-7 -142 c9 -5 13 -17 9 -31 -2 -6 -3 -18 -3 -25 0 -15 -4 -26 -11 -30
-4 -3 -124 -6 -161 -5 -16 1 -115 1 -129 0 -76 -4 -106 24 -82 74 6 14 -4 13
172 14 193 2 175 2 182 4 9 3 17 2 23 -1z"/>
</g>
</svg>
