<?xml version="1.0" standalone="no"?>
<!DOCTYPE svg PUBLIC "-//W3C//DTD SVG 20010904//EN"
 "http://www.w3.org/TR/2001/REC-SVG-20010904/DTD/svg10.dtd">
<svg version="1.0" xmlns="http://www.w3.org/2000/svg"
 width="92.000000pt" height="148.000000pt" viewBox="0 0 92.000000 148.000000"
 preserveAspectRatio="xMidYMid meet">
<metadata>
Created by potrace 1.16, written by Peter Selinger 2001-2019
</metadata>
<g transform="translate(0.000000,148.000000) scale(0.100000,-0.100000)"
fill="#000000" stroke="none">
<path d="M597 1424 c-4 -4 -7 -51 -7 -105 0 -100 4 -111 43 -101 15 4 17 17
17 103 0 55 -4 99 -9 99 -5 0 -16 2 -23 5 -8 3 -17 2 -21 -1z"/>
<path d="M286 1411 c-3 -4 -5 -47 -5 -94 0 -89 11 -113 43 -101 13 5 16 23 16
105 0 98 0 99 -24 99 -14 0 -27 -4 -30 -9z"/>
<path d="M429 1413 c0 -4 0 -149 1 -320 l1 -313 -175 0 -176 0 1 -162 c1 -90
4 -252 8 -361 l6 -198 370 0 370 0 0 362 0 361 -167 -1 -168 -2 -2 318 -3 318
-32 3 c-18 2 -33 0 -34 -5z m358 -743 c2 -25 1 -55 -2 -67 l-5 -23 -320 0
-320 0 0 70 0 70 322 -2 322 -3 3 -45z m-2 -238 c0 -52 -2 -95 -5 -97 -3 -2
-147 -5 -320 -6 l-315 -2 -3 102 -3 101 323 -2 322 -3 1 -93z m1 -237 l0 -75
-317 0 c-359 0 -329 -8 -329 91 l0 59 323 0 322 0 1 -75z"/>
</g>
</svg>
