<?xml version="1.0" standalone="no"?>
<!DOCTYPE svg PUBLIC "-//W3C//DTD SVG 20010904//EN"
 "http://www.w3.org/TR/2001/REC-SVG-20010904/DTD/svg10.dtd">
<svg version="1.0" xmlns="http://www.w3.org/2000/svg"
 width="370.000000pt" height="590.000000pt" viewBox="0 0 370.000000 590.000000"
 preserveAspectRatio="xMidYMid meet">
<metadata>
Created by potrace 1.16, written by Peter Selinger 2001-2019
</metadata>
<g transform="translate(0.000000,590.000000) scale(0.500000,-0.500000)"
fill="#000000" stroke="none">
<path d="M355 1139 c-12 -4 -11 18 -11 -257 1 -201 0 -250 -2 -252 -2 -2 -30
-3 -135 -3 -163 0 -142 12 -140 -80 2 -122 5 -338 5 -407 0 -72 1 -85 7 -89 5
-4 585 -4 594 -1 7 3 7 -5 7 290 0 329 5 291 -35 289 -38 -2 -224 -4 -230 -2
-5 1 -5 1 -5 249 0 278 2 254 -16 259 -12 3 -33 5 -39 4z m266 -563 c11 -2 11
-2 11 -53 0 -46 0 -47 -4 -50 -8 -5 -502 -5 -508 1 -8 6 -8 94 0 100 5 4 483
6 501 2z m8 -157 c7 -7 7 -142 0 -149 -6 -6 -501 -9 -508 -3 -6 4 -7 148 -2
152 6 5 506 4 510 0z m-1 -201 c8 -5 9 -112 0 -118 -2 -1 -10 -2 -21 -1 -10 1
-121 1 -247 1 -259 0 -233 -2 -239 17 -5 16 -5 92 0 96 3 4 11 4 90 5 151 2
414 2 417 0z"/>
<path d="M479 1135 c-5 -5 -8 -140 -4 -152 4 -10 36 -13 46 -4 10 8 10 148 1
157 -7 7 -36 6 -43 -1z"/>
<path d="M238 1133 c-8 -5 -8 -9 -8 -80 0 -69 0 -69 5 -74 9 -9 40 -6 44 4 1
4 1 140 0 144 -3 8 -33 13 -41 6z"/>
</g>
</svg>
