<?xml version="1.0" standalone="no"?>
<!DOCTYPE svg PUBLIC "-//W3C//DTD SVG 20010904//EN"
 "http://www.w3.org/TR/2001/REC-SVG-20010904/DTD/svg10.dtd">
<svg version="1.0" xmlns="http://www.w3.org/2000/svg"
 width="63.000000pt" height="100.000000pt" viewBox="0 0 63.000000 100.000000"
 preserveAspectRatio="xMidYMid meet">
<metadata>
Created by potrace 1.16, written by Peter Selinger 2001-2019
</metadata>
<g transform="translate(0.000000,100.000000) scale(0.100000,-0.100000)"
fill="#000000" stroke="none">
<path d="M197 964 c-4 -4 -7 -38 -7 -76 0 -61 2 -68 20 -68 24 0 32 28 28 96
-2 34 -8 50 -18 52 -9 1 -19 0 -23 -4z"/>
<path d="M295 958 c-3 -7 -6 -105 -7 -218 l-3 -205 -115 -5 -115 -5 -4 -30
c-1 -16 0 -125 4 -241 l7 -212 182 -7 c99 -4 215 -3 256 2 l75 8 0 240 0 240
-110 5 -110 5 -3 204 c-1 130 -6 209 -13 218 -14 16 -38 17 -44 1z m233 -515
l-3 -38 -210 0 -210 0 -3 38 -3 37 216 0 216 0 -3 -37z m-3 -153 l0 -55 -210
0 -210 0 -3 44 c-6 75 -16 72 215 69 l208 -3 0 -55z m5 -154 l0 -44 -139 -7
c-182 -9 -278 0 -287 27 -3 11 -3 30 0 44 l6 24 210 0 210 0 0 -44z"/>
<path d="M404 957 c-3 -8 -4 -41 -2 -73 3 -53 5 -59 26 -62 22 -3 23 -2 20 70
-2 60 -6 73 -21 76 -9 2 -20 -3 -23 -11z"/>
</g>
</svg>
