<?xml version="1.0" standalone="no"?>
<!DOCTYPE svg PUBLIC "-//W3C//DTD SVG 20010904//EN"
 "http://www.w3.org/TR/2001/REC-SVG-20010904/DTD/svg10.dtd">
<svg version="1.0" xmlns="http://www.w3.org/2000/svg"
 width="790.000000pt" height="590.000000pt" viewBox="0 0 790.000000 590.000000"
 preserveAspectRatio="xMidYMid meet">
<metadata>
Created by potrace 1.16, written by Peter Selinger 2001-2019
</metadata>
<g transform="translate(0.000000,590.000000) scale(0.500000,-0.500000)"
fill="#000000" stroke="none">
<path d="M74 1138 c-17 -1 -15 59 -15 -545 0 -537 0 -537 5 -541 8 -7 443 -5
448 1 5 6 7 319 5 757 -1 325 -1 322 -9 326 -4 2 -414 4 -434 2z m393 -49 c5
-3 6 -984 1 -990 -4 -5 -351 -5 -358 0 -4 3 -7 979 -2 987 2 3 22 3 152 4 83
1 163 1 177 2 19 0 27 -1 30 -3z"/>
<path d="M1150 1138 c-77 -1 -84 -1 -87 -5 -5 -4 -7 -1059 -3 -1073 2 -7 3 -8
10 -10 8 -2 436 -3 439 0 7 4 7 3 7 543 0 572 1 542 -11 545 -8 2 -190 2 -355
0z m311 -49 c7 -2 7 11 7 -497 0 -489 0 -489 -4 -492 -6 -5 -354 -6 -358 -1
-2 2 -4 919 -2 986 0 2 2 4 4 5 4 1 346 1 353 -1z"/>
<path d="M573 1136 c-11 -4 -10 26 -10 -544 0 -534 0 -534 5 -538 4 -5 4 -5
218 -6 228 0 229 0 232 9 4 11 2 1072 -3 1076 -4 4 -433 7 -442 3z m399 -47
c4 -4 3 -986 0 -990 -4 -5 -355 -4 -360 0 -4 3 -4 21 -4 494 0 507 0 495 8
497 6 2 354 1 356 -1z"/>
</g>
</svg>
