<?xml version="1.0" standalone="no"?>
<!DOCTYPE svg PUBLIC "-//W3C//DTD SVG 20010904//EN"
 "http://www.w3.org/TR/2001/REC-SVG-20010904/DTD/svg10.dtd">
<svg version="1.0" xmlns="http://www.w3.org/2000/svg"
 width="100.000000pt" height="75.000000pt" viewBox="0 0 100.000000 75.000000"
 preserveAspectRatio="xMidYMid meet">
<metadata>
Created by potrace 1.16, written by Peter Selinger 2001-2019
</metadata>
<g transform="translate(0.000000,75.000000) scale(0.100000,-0.100000)"
fill="#000000" stroke="none">
<path d="M98 723 l-68 -4 0 -343 0 -343 108 -6 c59 -4 125 -3 147 1 l40 7 2
330 c2 182 -1 336 -5 342 -9 15 -121 23 -224 16z m146 -39 l46 -7 0 -302 0
-302 -51 -7 c-27 -4 -77 -4 -110 0 l-59 7 0 303 0 303 33 4 c57 7 93 7 141 1z"/>
<path d="M390 722 l-35 -7 -3 -334 c-1 -192 2 -339 7 -344 5 -5 68 -10 140
-10 107 -2 133 1 141 13 12 19 13 650 1 669 -10 15 -191 25 -251 13z m176 -42
l44 0 0 -304 0 -304 -57 -4 c-32 -1 -80 -1 -108 2 l-50 5 -3 302 -2 302 52 4
c29 2 59 2 66 0 8 -2 34 -3 58 -3z"/>
<path d="M739 723 l-66 -4 -7 -115 c-3 -63 -3 -218 0 -343 l7 -228 97 -7 c54
-3 118 -3 144 0 l46 7 0 342 0 342 -46 7 c-26 3 -61 5 -78 4 -17 -1 -61 -3
-97 -5z m147 -43 l34 0 0 -305 0 -305 -110 0 -110 0 0 304 0 305 33 4 c17 3
52 3 76 1 24 -2 59 -4 77 -4z"/>
</g>
</svg>
