<?xml version="1.0" standalone="no"?>
<!DOCTYPE svg PUBLIC "-//W3C//DTD SVG 20010904//EN"
 "http://www.w3.org/TR/2001/REC-SVG-20010904/DTD/svg10.dtd">
<svg version="1.0" xmlns="http://www.w3.org/2000/svg"
 width="198.000000pt" height="148.000000pt" viewBox="0 0 198.000000 148.000000"
 preserveAspectRatio="xMidYMid meet">
<metadata>
Created by potrace 1.16, written by Peter Selinger 2001-2019
</metadata>
<g transform="translate(0.000000,148.000000) scale(0.100000,-0.100000)"
fill="#000000" stroke="none">
<path d="M72 738 l3 -683 28 1 c15 1 142 2 282 2 l255 2 0 680 0 680 -285 0
-285 0 2 -682z m513 3 l0 -624 -225 1 c-124 1 -227 2 -230 2 -3 0 -4 1098 0
1243 0 4 102 6 228 5 l227 -3 0 -624z"/>
<path d="M705 1408 c-3 -7 -4 -312 -3 -678 l3 -665 283 -3 282 -2 0 680 0 680
-280 0 c-215 0 -282 -3 -285 -12z m510 -667 l0 -624 -227 -1 -228 -1 -2 611
c-2 336 -2 618 0 627 3 16 24 17 230 15 l227 -3 0 -624z"/>
<path d="M1327 1413 c-4 -3 -7 -309 -7 -680 l0 -673 228 -1 c125 0 250 -2 279
-4 34 -2 56 1 62 9 8 9 10 220 9 682 l-3 669 -281 3 c-154 1 -283 -1 -287 -5z
m511 -670 c1 -343 -1 -623 -5 -623 -72 -4 -453 -4 -453 0 0 15 0 1227 0 1238
0 10 49 12 228 10 l227 -3 3 -622z"/>
</g>
</svg>
