<?xml version="1.0" standalone="no"?>
<!DOCTYPE svg PUBLIC "-//W3C//DTD SVG 20010904//EN"
 "http://www.w3.org/TR/2001/REC-SVG-20010904/DTD/svg10.dtd">
<svg version="1.0" xmlns="http://www.w3.org/2000/svg"
 width="274.000000pt" height="590.000000pt" viewBox="0 0 274.000000 590.000000"
 preserveAspectRatio="xMidYMid meet">
<metadata>
Created by potrace 1.16, written by Peter Selinger 2001-2019
</metadata>
<g transform="translate(0.000000,590.000000) scale(0.500000,-0.500000)"
fill="#000000" stroke="none">
<path d="M118 1138 c-55 -1 -72 -2 -74 -4 -5 -5 -8 -1068 -3 -1078 3 -8 5 -8
229 -8 218 0 218 0 223 5 6 6 8 209 6 714 -1 364 -1 367 -8 370 -5 2 -286 3
-373 1z m330 -51 c5 -5 4 -985 -1 -988 -3 -3 -36 -3 -179 -3 -193 0 -182 -1
-182 12 -1 192 0 977 2 979 4 5 355 5 360 0z"/>
</g>
</svg>
