<?xml version="1.0" standalone="no"?>
<!DOCTYPE svg PUBLIC "-//W3C//DTD SVG 20010904//EN"
 "http://www.w3.org/TR/2001/REC-SVG-20010904/DTD/svg10.dtd">
<svg version="1.0" xmlns="http://www.w3.org/2000/svg"
 width="68.000000pt" height="100.000000pt" viewBox="0 0 68.000000 100.000000"
 preserveAspectRatio="xMidYMid meet">
<metadata>
Created by potrace 1.16, written by Peter Selinger 2001-2019
</metadata>
<g transform="translate(0.000000,100.000000) scale(0.100000,-0.100000)"
fill="#000000" stroke="none">
<path d="M37 953 c-10 -9 -8 -885 1 -901 7 -9 74 -12 303 -10 l294 3 0 455 0
455 -296 3 c-162 1 -298 -1 -302 -5z m536 -50 c9 -15 19 -642 12 -727 l-7 -87
-81 3 -82 3 -6 115 c-4 63 -7 116 -8 118 0 2 -16 2 -33 0 l-33 -3 4 -118 3
-118 -128 3 -129 3 0 250 0 250 110 2 c61 2 120 5 131 8 24 5 34 31 24 60 -7
19 -16 20 -136 20 l-129 0 -3 113 -3 112 245 0 c135 0 247 -3 249 -7z"/>
</g>
</svg>
