<?xml version="1.0" standalone="no"?>
<!DOCTYPE svg PUBLIC "-//W3C//DTD SVG 20010904//EN"
 "http://www.w3.org/TR/2001/REC-SVG-20010904/DTD/svg10.dtd">
<svg version="1.0" xmlns="http://www.w3.org/2000/svg"
 width="400.000000pt" height="590.000000pt" viewBox="0 0 400.000000 590.000000"
 preserveAspectRatio="xMidYMid meet">
<metadata>
Created by potrace 1.16, written by Peter Selinger 2001-2019
</metadata>
<g transform="translate(0.000000,590.000000) scale(0.500000,-0.500000)"
fill="#000000" stroke="none">
<path d="M45 1133 c-6 -5 -6 -5 -5 -226 1 -121 1 -361 0 -534 0 -348 -1 -322
13 -324 23 -3 689 0 693 4 6 6 5 1076 -2 1081 -9 7 -692 6 -699 -1z m489 -53
c5 0 41 1 80 1 56 1 72 1 75 -1 4 -4 6 -968 1 -973 -4 -4 -198 -4 -203 0 -3 4
-4 6 -2 94 1 87 1 90 -3 101 -2 7 -4 17 -4 23 0 6 -1 14 -3 18 -2 4 -3 13 -3
23 0 24 -18 35 -42 26 -3 -1 -10 -3 -17 -4 -20 -3 -28 -44 -15 -72 6 -13 11
-199 5 -207 -4 -7 -307 -7 -312 0 -2 3 -3 48 -2 256 0 138 -1 271 -2 294 -1
40 -1 42 3 47 4 6 -10 5 128 4 80 0 92 0 98 3 6 2 16 3 48 3 52 0 48 -4 48 47
0 54 22 48 -160 45 -157 -2 -161 -2 -164 5 -3 8 0 262 4 266 3 3 12 3 218 2
118 0 219 -1 224 -1z"/>
</g>
</svg>
