<?xml version="1.0" standalone="no"?>
<!DOCTYPE svg PUBLIC "-//W3C//DTD SVG 20010904//EN"
 "http://www.w3.org/TR/2001/REC-SVG-20010904/DTD/svg10.dtd">
<svg version="1.0" xmlns="http://www.w3.org/2000/svg"
 width="100.000000pt" height="148.000000pt" viewBox="0 0 100.000000 148.000000"
 preserveAspectRatio="xMidYMid meet">
<metadata>
Created by potrace 1.16, written by Peter Selinger 2001-2019
</metadata>
<g transform="translate(0.000000,148.000000) scale(0.100000,-0.100000)"
fill="#000000" stroke="none">
<path d="M50 740 c0 -537 3 -680 13 -680 110 -2 862 1 864 4 2 1 3 306 3 677
l1 674 -441 3 -440 2 0 -680z m805 610 c10 0 12 -1207 1 -1217 -3 -3 -62 -7
-131 -9 l-125 -3 0 115 c0 119 -17 241 -35 247 -5 3 -25 2 -43 -1 l-33 -4 8
-107 c4 -58 8 -137 8 -176 l0 -70 -195 2 c-107 1 -197 2 -200 3 -3 0 -5 171
-5 380 l0 380 150 2 c83 1 173 2 200 3 l50 0 0 55 0 55 -190 1 c-104 1 -196 2
-202 3 -16 1 -19 337 -3 343 7 2 659 1 745 -2z"/>
</g>
</svg>
