<?xml version="1.0" standalone="no"?>
<!DOCTYPE svg PUBLIC "-//W3C//DTD SVG 20010904//EN"
 "http://www.w3.org/TR/2001/REC-SVG-20010904/DTD/svg10.dtd">
<svg version="1.0" xmlns="http://www.w3.org/2000/svg"
 width="39.000000pt" height="100.000000pt" viewBox="0 0 39.000000 100.000000"
 preserveAspectRatio="xMidYMid meet">
<metadata>
Created by potrace 1.16, written by Peter Selinger 2001-2019
</metadata>
<g transform="translate(0.000000,100.000000) scale(0.100000,-0.100000)"
fill="#000000" stroke="none">
<path d="M99 963 l-66 -4 -6 -262 c-10 -365 -8 -629 2 -646 8 -12 39 -15 159
-15 82 1 154 4 160 8 18 11 17 905 0 910 -22 7 -179 12 -249 9z m214 -155 c9
-145 9 -471 0 -616 l-6 -113 -116 3 -116 3 0 145 0 145 98 3 98 3 -3 127 -3
127 -95 5 -95 5 -3 124 c-1 69 0 131 2 138 4 10 35 13 119 13 l114 0 6 -112z
m-89 -214 c10 -4 16 -18 16 -40 l0 -35 -82 3 c-78 3 -83 4 -86 26 -7 45 3 52
72 52 35 0 71 -3 80 -6z m0 -120 c9 -3 16 -16 16 -29 0 -21 -6 -23 -75 -30
-41 -3 -79 -4 -85 0 -11 7 -14 48 -3 58 8 9 126 9 147 1z"/>
</g>
</svg>
