<?xml version="1.0" standalone="no"?>
<!DOCTYPE svg PUBLIC "-//W3C//DTD SVG 20010904//EN"
 "http://www.w3.org/TR/2001/REC-SVG-20010904/DTD/svg10.dtd">
<svg version="1.0" xmlns="http://www.w3.org/2000/svg"
 width="58.000000pt" height="148.000000pt" viewBox="0 0 58.000000 148.000000"
 preserveAspectRatio="xMidYMid meet">
<metadata>
Created by potrace 1.16, written by Peter Selinger 2001-2019
</metadata>
<g transform="translate(0.000000,148.000000) scale(0.100000,-0.100000)"
fill="#000000" stroke="none">
<path d="M50 1413 c-4 -88 1 -1347 5 -1354 8 -12 452 -12 460 0 3 5 6 313 6
683 l0 673 -235 3 c-130 1 -236 -1 -236 -5z m418 -37 c4 -2 6 -289 6 -638 l-1
-633 -187 0 -186 0 -2 230 -2 230 154 5 154 5 0 180 0 180 -155 3 -154 2 2
216 c1 118 4 218 7 222 4 7 351 6 364 -2z m-217 -486 l119 0 0 -65 0 -65 -140
0 -140 0 0 63 c0 67 5 81 28 72 7 -3 67 -5 133 -5z m119 -235 l0 -56 -137 3
-138 3 -3 53 -3 52 140 0 141 0 0 -55z"/>
</g>
</svg>
