<?xml version="1.0" standalone="no"?>
<!DOCTYPE svg PUBLIC "-//W3C//DTD SVG 20010904//EN"
 "http://www.w3.org/TR/2001/REC-SVG-20010904/DTD/svg10.dtd">
<svg version="1.0" xmlns="http://www.w3.org/2000/svg"
 width="234.000000pt" height="590.000000pt" viewBox="0 0 234.000000 590.000000"
 preserveAspectRatio="xMidYMid meet">
<metadata>
Created by potrace 1.16, written by Peter Selinger 2001-2019
</metadata>
<g transform="translate(0.000000,590.000000) scale(0.500000,-0.500000)"
fill="#000000" stroke="none">
<path d="M46 1138 c-2 -1 -5 -4 -6 -6 -2 -7 -2 -1070 0 -1076 4 -10 6 -10 193
-10 187 0 189 0 193 10 4 10 2 1075 -3 1079 -4 4 -367 7 -377 3z m337 -37 c6
-7 5 -1005 0 -1015 -5 -7 -295 -7 -300 0 -5 7 -5 362 0 366 3 3 24 3 121 3
118 0 118 0 122 4 5 5 7 269 3 283 -3 9 -3 9 -128 9 -102 0 -117 0 -119 3 -3
5 -3 342 1 346 3 5 0 5 152 5 135 0 146 0 148 -4z m-87 -388 c6 -3 9 -94 3
-100 -6 -6 -214 -4 -218 2 -4 6 -4 92 1 98 3 4 205 5 214 0z m2 -146 c6 -4 7
-74 0 -79 -3 -4 -209 -8 -213 -4 -8 4 -11 72 -4 82 4 5 208 7 217 1z"/>
</g>
</svg>
