<?xml version="1.0" standalone="no"?>
<!DOCTYPE svg PUBLIC "-//W3C//DTD SVG 20010904//EN"
 "http://www.w3.org/TR/2001/REC-SVG-20010904/DTD/svg10.dtd">
<svg version="1.0" xmlns="http://www.w3.org/2000/svg"
 width="260.000000pt" height="590.000000pt" viewBox="0 0 260.000000 590.000000"
 preserveAspectRatio="xMidYMid meet">
<metadata>
Created by potrace 1.16, written by Peter Selinger 2001-2019
</metadata>
<g transform="translate(0.000000,590.000000) scale(0.500000,-0.500000)"
fill="#000000" stroke="none">
<path d="M49 1136 c-9 -4 -9 13 -9 -544 0 -522 0 -534 4 -538 6 -8 424 -8 430
0 6 7 5 1074 -1 1079 -4 4 -415 7 -424 3z m370 -57 c5 -4 6 -348 2 -354 -4 -5
-320 -5 -324 0 -3 3 -3 351 -1 354 5 4 22 4 164 4 145 0 156 0 159 -4z m1
-410 c5 -5 6 -127 1 -134 -3 -5 -316 -6 -323 -1 -6 3 -6 130 -1 135 5 5 318 5
323 0z m1 -191 c2 -4 3 -11 3 -33 0 -18 1 -32 3 -39 4 -15 4 -28 -1 -46 -4
-14 -4 -19 -4 -136 1 -117 1 -120 -3 -123 -6 -4 -314 -4 -320 0 -5 4 -7 371
-1 378 5 6 319 5 323 -1z"/>
</g>
</svg>
