<?xml version="1.0" standalone="no"?>
<!DOCTYPE svg PUBLIC "-//W3C//DTD SVG 20010904//EN"
 "http://www.w3.org/TR/2001/REC-SVG-20010904/DTD/svg10.dtd">
<svg version="1.0" xmlns="http://www.w3.org/2000/svg"
 width="66.000000pt" height="148.000000pt" viewBox="0 0 66.000000 148.000000"
 preserveAspectRatio="xMidYMid meet">
<metadata>
Created by potrace 1.16, written by Peter Selinger 2001-2019
</metadata>
<g transform="translate(0.000000,148.000000) scale(0.100000,-0.100000)"
fill="#000000" stroke="none">
<path d="M50 740 c0 -374 3 -680 8 -680 4 0 126 0 272 -1 l265 0 3 680 2 681
-275 0 -275 0 0 -680z m483 389 l0 -224 -209 -3 -209 -2 1 222 c1 123 2 225 3
228 1 3 94 5 207 4 l206 0 1 -225z m2 -379 l0 -85 -212 -3 -213 -2 0 83 c0 46
3 87 7 91 4 3 99 5 212 4 l206 -3 0 -85z m-2 -390 l-2 -235 -208 -3 -208 -2 1
232 c1 128 2 236 3 241 1 4 94 6 209 5 l207 -3 -2 -235z"/>
</g>
</svg>
