<?xml version="1.0" standalone="no"?>
<!DOCTYPE svg PUBLIC "-//W3C//DTD SVG 20010904//EN"
 "http://www.w3.org/TR/2001/REC-SVG-20010904/DTD/svg10.dtd">
<svg version="1.0" xmlns="http://www.w3.org/2000/svg"
 width="45.000000pt" height="100.000000pt" viewBox="0 0 45.000000 100.000000"
 preserveAspectRatio="xMidYMid meet">
<metadata>
Created by potrace 1.16, written by Peter Selinger 2001-2019
</metadata>
<g transform="translate(0.000000,100.000000) scale(0.100000,-0.100000)"
fill="#000000" stroke="none">
<path d="M35 948 c-3 -7 -4 -213 -3 -458 l3 -445 186 -3 186 -2 6 142 c9 183
9 453 0 636 l-6 142 -184 0 c-138 0 -185 -3 -188 -12z m320 -188 l0 -145 -129
-3 c-97 -2 -131 1 -138 10 -9 15 -11 249 -2 272 6 14 25 16 138 14 l131 -3 0
-145z m11 -225 c9 -38 -3 -72 -28 -79 -30 -8 -187 -8 -227 0 -29 6 -31 9 -31
49 0 23 3 45 7 48 3 4 66 7 139 7 l134 0 6 -25z m-6 -290 l0 -155 -134 0 -134
0 -6 31 c-8 42 -8 264 1 272 3 4 66 7 140 7 l133 0 0 -155z"/>
</g>
</svg>
