<?xml version="1.0" standalone="no"?>
<!DOCTYPE svg PUBLIC "-//W3C//DTD SVG 20010904//EN"
 "http://www.w3.org/TR/2001/REC-SVG-20010904/DTD/svg10.dtd">
<svg version="1.0" xmlns="http://www.w3.org/2000/svg"
 width="66.000000pt" height="148.000000pt" viewBox="0 0 66.000000 148.000000"
 preserveAspectRatio="xMidYMid meet">
<metadata>
Created by potrace 1.16, written by Peter Selinger 2001-2019
</metadata>
<g transform="translate(0.000000,148.000000) scale(0.100000,-0.100000)"
fill="#000000" stroke="none">
<path d="M50 740 c0 -374 3 -680 8 -680 4 0 126 0 272 -1 l265 0 3 680 2 681
-275 0 -275 0 0 -680z m488 517 c2 -62 -1 -97 -8 -97 -5 0 -98 0 -205 0 -107
0 -199 0 -205 0 -10 0 -15 182 -5 191 2 3 98 5 212 5 l208 -1 3 -98z m0 -259
l2 -98 -215 0 -215 0 0 93 c0 52 3 97 7 101 4 3 99 5 212 4 l206 -3 3 -97z
m-3 -248 l0 -85 -212 -3 -213 -2 0 83 c0 46 3 87 7 91 4 3 99 5 212 4 l206 -3
0 -85z m0 -263 l0 -108 -210 -1 -210 0 -3 98 c-1 53 0 104 2 111 5 11 47 13
213 11 l208 -3 0 -108z m2 -270 l2 -97 -215 0 -214 0 0 93 c0 52 2 96 4 98 2
2 98 4 213 4 l208 -1 2 -97z"/>
</g>
</svg>
