<?xml version="1.0" standalone="no"?>
<!DOCTYPE svg PUBLIC "-//W3C//DTD SVG 20010904//EN"
 "http://www.w3.org/TR/2001/REC-SVG-20010904/DTD/svg10.dtd">
<svg version="1.0" xmlns="http://www.w3.org/2000/svg"
 width="260.000000pt" height="590.000000pt" viewBox="0 0 260.000000 590.000000"
 preserveAspectRatio="xMidYMid meet">
<metadata>
Created by potrace 1.16, written by Peter Selinger 2001-2019
</metadata>
<g transform="translate(0.000000,590.000000) scale(0.500000,-0.500000)"
fill="#000000" stroke="none">
<path d="M51 1137 c-11 -2 -10 30 -10 -544 0 -506 0 -536 3 -540 6 -6 424 -6
430 0 5 7 5 1075 -1 1080 -3 4 -406 7 -422 4z m369 -57 c4 -4 4 -7 4 -75 0
-74 0 -77 -9 -77 -58 -3 -316 0 -318 3 -5 7 -4 144 1 149 4 4 7 4 161 4 154 0
157 0 161 -4z m0 -205 c6 -5 6 -147 1 -151 -5 -4 -316 -5 -322 -1 -7 4 -8 146
-1 152 6 6 316 6 322 0z m1 -206 c5 -5 5 -131 0 -135 -5 -4 -316 -5 -322 -1
-6 4 -8 130 -2 136 5 5 319 5 324 0z m-146 -187 c168 0 149 4 149 -34 0 -17 1
-31 3 -38 4 -14 4 -38 0 -51 -2 -6 -3 -18 -3 -29 0 -29 18 -26 -156 -26 -171
-1 -168 -1 -171 4 -4 4 -4 166 0 170 3 5 9 6 24 5 6 -1 76 -1 154 -1z m145
-231 c6 -5 6 -142 1 -149 -6 -7 -318 -7 -323 0 -4 5 -6 142 -2 147 3 6 15 6
165 6 144 -1 156 -1 159 -4z"/>
</g>
</svg>
