<?xml version="1.0" standalone="no"?>
<!DOCTYPE svg PUBLIC "-//W3C//DTD SVG 20010904//EN"
 "http://www.w3.org/TR/2001/REC-SVG-20010904/DTD/svg10.dtd">
<svg version="1.0" xmlns="http://www.w3.org/2000/svg"
 width="45.000000pt" height="100.000000pt" viewBox="0 0 45.000000 100.000000"
 preserveAspectRatio="xMidYMid meet">
<metadata>
Created by potrace 1.16, written by Peter Selinger 2001-2019
</metadata>
<g transform="translate(0.000000,100.000000) scale(0.100000,-0.100000)"
fill="#000000" stroke="none">
<path d="M35 948 c-3 -7 -4 -213 -3 -458 l3 -445 188 -3 187 -2 0 460 0 460
-185 0 c-139 0 -187 -3 -190 -12z m325 -57 c11 -22 13 -61 4 -85 -5 -14 -28
-16 -145 -16 l-139 0 0 53 c0 30 3 57 7 60 3 4 64 7 134 7 117 0 129 -2 139
-19z m0 -171 c15 -23 12 -77 -6 -94 -12 -13 -39 -16 -129 -16 -62 0 -120 3
-129 6 -12 5 -16 20 -16 59 0 64 -4 62 163 61 84 -1 110 -4 117 -16z m6 -185
c9 -38 -3 -72 -28 -79 -30 -8 -187 -8 -227 0 -29 6 -31 9 -31 49 0 23 3 45 7
48 3 4 66 7 139 7 l134 0 6 -25z m-3 -173 c4 -20 3 -51 -1 -67 l-8 -30 -135 0
-134 0 -3 54 c-5 84 -10 81 141 81 l134 0 6 -38z m0 -179 c3 -15 3 -42 0 -60
l-6 -34 -136 3 -136 3 -3 44 c-5 72 -8 71 142 71 l134 0 5 -27z"/>
</g>
</svg>
