<?xml version="1.0" standalone="no"?>
<!DOCTYPE svg PUBLIC "-//W3C//DTD SVG 20010904//EN"
 "http://www.w3.org/TR/2001/REC-SVG-20010904/DTD/svg10.dtd">
<svg version="1.0" xmlns="http://www.w3.org/2000/svg"
 width="374.000000pt" height="590.000000pt" viewBox="0 0 374.000000 590.000000"
 preserveAspectRatio="xMidYMid meet">
<metadata>
Created by potrace 1.16, written by Peter Selinger 2001-2019
</metadata>
<g transform="translate(0.000000,590.000000) scale(0.500000,-0.500000)"
fill="#000000" stroke="none">
<path d="M248 1132 c-207 -1 -196 0 -196 -11 -2 -254 0 -1066 3 -1069 6 -6
430 -6 436 1 6 5 6 5 4 126 -3 182 -3 189 2 192 3 3 16 3 96 2 100 -2 102 -2
106 7 5 11 3 328 -3 333 -5 3 -7 4 -99 2 -100 -1 -100 -1 -103 6 -1 3 -1 88 0
199 2 236 6 214 -34 213 -12 0 -107 0 -212 -1z m180 -54 c12 -3 17 -79 6 -88
-4 -4 -217 -7 -306 -5 -25 1 -40 87 -16 94 7 2 309 1 316 -1z m-111 -140 c137
0 122 5 123 -36 1 -46 23 -41 -168 -42 -191 0 -168 -5 -168 38 0 44 -3 42 56
41 24 -1 94 -1 157 -1z m119 -128 c6 -6 6 -86 1 -92 -6 -7 -325 -6 -330 0 -4
7 -4 85 0 92 5 6 322 7 329 0z m0 -146 c7 -6 8 -76 1 -82 -4 -3 -310 -5 -325
-2 -7 1 -8 6 -8 43 0 37 1 41 8 44 10 3 320 1 324 -3z m215 1 c31 -6 14 -85
-18 -85 -12 0 -47 -1 -77 -1 -71 -2 -68 -4 -65 55 2 38 -6 35 83 33 40 -1 75
-2 77 -2z m-219 -133 c11 -4 14 -104 2 -109 -9 -4 -323 -1 -326 3 -6 7 -6 95
-1 102 4 4 4 4 147 5 79 0 149 0 157 1 8 0 17 -1 21 -2z m219 -1 c11 -2 11 -4
11 -53 0 -61 10 -56 -113 -56 -64 0 -57 -7 -57 56 0 50 0 51 10 54 3 1 144 0
149 -1z m-215 -160 c6 -5 6 -62 0 -69 -4 -6 -323 -8 -328 -2 -8 7 -4 71 4 74
10 3 320 1 324 -3z m-1 -125 c4 -4 5 -139 1 -146 -4 -8 -10 -8 -167 -8 -148 0
-155 0 -159 4 -7 7 -8 148 0 152 6 4 321 1 325 -2z"/>
</g>
</svg>
