<?xml version="1.0" standalone="no"?>
<!DOCTYPE svg PUBLIC "-//W3C//DTD SVG 20010904//EN"
 "http://www.w3.org/TR/2001/REC-SVG-20010904/DTD/svg10.dtd">
<svg version="1.0" xmlns="http://www.w3.org/2000/svg"
 width="64.000000pt" height="100.000000pt" viewBox="0 0 64.000000 100.000000"
 preserveAspectRatio="xMidYMid meet">
<metadata>
Created by potrace 1.16, written by Peter Selinger 2001-2019
</metadata>
<g transform="translate(0.000000,100.000000) scale(0.100000,-0.100000)"
fill="#000000" stroke="none">
<path d="M58 953 c-17 -4 -18 -35 -18 -459 l0 -454 190 0 190 0 0 135 0 135
90 0 91 0 -3 148 -3 147 -85 5 -85 5 -5 170 -5 170 -170 1 c-93 1 -178 0 -187
-3z m311 -65 c5 -13 6 -28 4 -34 -7 -19 -88 -26 -189 -19 l-94 7 0 28 c0 16 6
31 13 33 6 3 67 6 135 6 118 1 123 0 131 -21z m-1 -115 c20 -39 6 -43 -138
-43 -144 0 -158 4 -138 43 8 15 25 17 138 17 113 0 130 -2 138 -17z m8 -117
c3 -14 3 -30 -1 -35 -4 -7 -58 -11 -146 -11 l-139 0 0 35 0 35 140 0 140 0 6
-24z m-1 -116 c14 -44 -8 -51 -149 -48 -117 3 -131 5 -134 21 -9 44 0 47 142
47 127 0 135 -1 141 -20z m173 11 c8 -4 12 -19 10 -32 -3 -22 -7 -24 -68 -24
-54 0 -65 3 -68 18 -7 37 5 47 60 47 29 0 59 -4 66 -9z m-178 -122 c7 -11 9
-32 6 -45 l-7 -25 -137 3 -137 3 -3 28 c-7 56 -4 57 137 57 122 0 131 -1 141
-21z m168 15 c17 -5 22 -14 22 -40 0 -39 -18 -47 -91 -42 -40 3 -44 6 -47 31
-6 47 3 57 50 57 24 0 53 -3 66 -6z m-165 -147 c3 -8 2 -19 -1 -24 -9 -14
-178 -27 -236 -19 -40 6 -46 10 -46 32 l0 24 139 0 c107 0 140 -3 144 -13z
m-5 -148 c3 -56 3 -56 -29 -63 -56 -11 -224 -7 -237 6 -13 13 -17 100 -5 112
4 3 66 5 137 4 l131 -3 3 -56z"/>
</g>
</svg>
