<?xml version="1.0" standalone="no"?>
<!DOCTYPE svg PUBLIC "-//W3C//DTD SVG 20010904//EN"
 "http://www.w3.org/TR/2001/REC-SVG-20010904/DTD/svg10.dtd">
<svg version="1.0" xmlns="http://www.w3.org/2000/svg"
 width="94.000000pt" height="148.000000pt" viewBox="0 0 94.000000 148.000000"
 preserveAspectRatio="xMidYMid meet">
<metadata>
Created by potrace 1.16, written by Peter Selinger 2001-2019
</metadata>
<g transform="translate(0.000000,148.000000) scale(0.100000,-0.100000)"
fill="#000000" stroke="none">
<path d="M67 1413 c-10 -9 -9 -1353 1 -1354 38 -4 530 -5 541 -1 11 4 13 43
10 206 l-4 201 130 0 130 0 0 215 0 215 -130 0 -130 0 0 260 0 260 -271 3
c-149 1 -273 -1 -277 -5z m483 -123 l0 -60 -209 0 c-116 0 -212 3 -214 8 -2 4
-2 31 1 60 l4 52 209 0 209 0 0 -60z m-5 -166 l0 -48 -200 -1 c-110 0 -206 1
-212 3 -15 5 -18 73 -4 88 6 5 96 8 213 7 l203 -1 0 -48z m5 -169 l0 -65 -212
2 -212 3 -2 55 c-2 30 0 58 2 62 3 4 99 8 215 8 l209 0 0 -65z m-2 -179 l3
-56 -213 2 -213 3 -3 49 c-1 27 2 52 7 55 5 3 101 6 213 5 l203 -1 3 -57z
m208 54 l74 0 0 -55 0 -55 -110 0 -110 0 0 53 c0 63 5 70 44 63 16 -3 62 -6
102 -6z m-206 -237 l0 -73 -210 0 c-161 0 -210 3 -211 13 -3 34 0 117 4 124 3
4 98 8 211 8 l206 0 0 -72z m221 67 l59 0 0 -65 c0 -77 -1 -77 -130 -73 l-85
3 -3 59 c-4 84 -1 90 55 82 25 -3 72 -6 104 -6z m-221 -240 l0 -50 -212 2
-213 3 -3 24 c-2 12 -1 34 2 47 l6 24 210 0 210 0 0 -50z m0 -210 l0 -100
-207 2 -208 3 -3 98 -3 97 211 0 210 0 0 -100z"/>
</g>
</svg>
