<?xml version="1.0" standalone="no"?>
<!DOCTYPE svg PUBLIC "-//W3C//DTD SVG 20010904//EN"
 "http://www.w3.org/TR/2001/REC-SVG-20010904/DTD/svg10.dtd">
<svg version="1.0" xmlns="http://www.w3.org/2000/svg"
 width="89.000000pt" height="100.000000pt" viewBox="0 0 89.000000 100.000000"
 preserveAspectRatio="xMidYMid meet">
<metadata>
Created by potrace 1.16, written by Peter Selinger 2001-2019
</metadata>
<g transform="translate(0.000000,100.000000) scale(0.100000,-0.100000)"
fill="#000000" stroke="none">
<path d="M311 897 c-6 -8 -8 -27 -5 -45 5 -24 2 -33 -10 -38 -30 -12 -62 5
-79 41 -20 42 -43 54 -64 32 -15 -15 -14 -19 9 -54 29 -43 41 -84 32 -107 -5
-12 -21 -16 -70 -16 -49 0 -66 -4 -70 -15 -11 -29 13 -42 69 -37 59 5 84 -11
72 -48 -6 -17 -15 -20 -71 -20 -62 0 -64 -1 -64 -25 0 -24 2 -25 64 -25 63 0
64 0 70 -30 10 -51 -7 -78 -51 -82 -31 -2 -39 -7 -41 -25 -3 -21 1 -23 41 -23
38 0 46 -3 51 -23 10 -43 -3 -64 -44 -71 -22 -3 -42 -11 -45 -16 -11 -18 17
-42 42 -37 26 5 53 -15 53 -38 0 -9 14 -15 38 -17 l37 -3 -3 -51 c-2 -36 1
-54 12 -64 26 -21 45 4 48 63 l3 52 75 0 75 0 3 -57 c2 -41 7 -58 19 -62 26
-10 38 11 38 67 l0 52 73 3 72 3 0 -61 c0 -46 4 -62 16 -67 25 -9 38 14 36 61
-1 31 4 50 18 66 19 22 20 38 19 319 0 307 -6 362 -41 369 -12 2 -19 -5 -24
-22 -8 -34 -20 -33 -39 5 -20 37 -39 33 -43 -10 -4 -35 -28 -40 -43 -8 -5 9
-13 25 -18 35 -15 31 -36 20 -39 -21 -3 -33 -6 -38 -25 -35 -15 2 -25 14 -33
43 -6 22 -17 40 -25 40 -9 0 -16 -15 -19 -40 -4 -34 -9 -40 -29 -40 -25 0 -33
10 -47 59 -10 34 -26 43 -43 23z m346 -133 l60 -7 6 -127 c3 -70 3 -189 0
-264 l-6 -136 -236 2 -236 3 -3 262 -2 262 47 4 c87 6 309 7 370 1z"/>
</g>
</svg>
