<?xml version="1.0" standalone="no"?>
<!DOCTYPE svg PUBLIC "-//W3C//DTD SVG 20010904//EN"
 "http://www.w3.org/TR/2001/REC-SVG-20010904/DTD/svg10.dtd">
<svg version="1.0" xmlns="http://www.w3.org/2000/svg"
 width="132.000000pt" height="148.000000pt" viewBox="0 0 132.000000 148.000000"
 preserveAspectRatio="xMidYMid meet">
<metadata>
Created by potrace 1.16, written by Peter Selinger 2001-2019
</metadata>
<g transform="translate(0.000000,148.000000) scale(0.100000,-0.100000)"
fill="#000000" stroke="none">
<path d="M250 1323 c-39 -16 -39 -36 1 -93 36 -51 39 -61 39 -123 l0 -67 -101
0 -100 0 3 -32 3 -33 98 4 97 3 0 -56 0 -57 -87 1 c-49 1 -94 1 -101 1 -9 -1
-12 -12 -10 -33 l3 -33 95 0 95 0 3 -87 3 -88 -65 0 c-70 0 -81 -7 -72 -46 7
-25 8 -25 71 -19 l65 7 0 -82 0 -83 -52 6 c-62 7 -81 -1 -76 -34 3 -22 8 -24
65 -27 l62 -3 3 -42 3 -42 60 0 60 0 -4 -88 -3 -88 33 3 34 3 3 75 c2 41 7 79
13 85 14 14 239 15 240 1 1 -6 0 -46 -1 -89 l-2 -77 36 0 36 0 0 88 0 89 115
0 114 0 3 -91 3 -91 30 0 30 0 2 80 c2 109 1 106 16 104 38 -5 37 -13 37 454
0 414 -2 457 -18 505 -23 65 -23 65 -57 52 -20 -8 -25 -15 -20 -28 20 -48 19
-54 -11 -50 -24 3 -30 10 -43 51 -13 42 -18 48 -40 45 -27 -3 -32 -25 -16 -75
7 -21 4 -23 -34 -23 -40 0 -41 1 -52 45 -14 54 -26 66 -58 54 -17 -7 -21 -14
-16 -27 3 -9 9 -30 12 -45 6 -28 6 -28 -43 -25 l-49 3 -5 55 c-5 53 -6 55 -35
55 l-30 0 3 -58 3 -58 -53 3 -53 3 -10 57 c-12 67 -16 72 -51 64 -28 -7 -28
-9 -8 -98 l6 -28 -64 0 -64 0 -37 65 c-21 36 -39 65 -40 64 -1 0 -9 -3 -17 -6z
m831 -588 l0 -400 -363 0 -363 0 -3 390 c-1 214 0 396 3 403 3 10 82 12 365
10 l361 -3 0 -400z"/>
</g>
</svg>
