<?xml version="1.0" standalone="no"?>
<!DOCTYPE svg PUBLIC "-//W3C//DTD SVG 20010904//EN"
 "http://www.w3.org/TR/2001/REC-SVG-20010904/DTD/svg10.dtd">
<svg version="1.0" xmlns="http://www.w3.org/2000/svg"
 width="900.000000pt" height="1002.000000pt" viewBox="0 0 900.000000 1002.000000"
 preserveAspectRatio="xMidYMid meet">
<metadata>
Created by potrace 1.16, written by Peter Selinger 2001-2019
</metadata>
<g transform="translate(0.000000,1002.000000) scale(0.500000,-0.500000)"
fill="#000000" stroke="none">
<path d="M660 1800 c-47 -10 -45 -4 -25 -88 21 -91 31 -80 -72 -80 -102 0 -76
-21 -169 137 -23 40 -21 40 -74 7 -28 -18 -29 -13 30 -102 59 -89 52 -67 52
-170 0 -105 17 -91 -113 -89 -179 3 -158 8 -159 -38 -1 -53 -8 -49 83 -47 212
5 189 14 189 -74 0 -91 22 -81 -167 -74 -108 4 -100 8 -101 -41 -1 -50 -18
-44 135 -44 155 0 133 19 133 -120 0 -139 14 -120 -89 -120 -102 0 -92 5 -91
-44 2 -49 -3 -46 67 -42 77 4 108 4 111 -1 4 -7 3 -201 -1 -205 -4 -4 -22 -4
-102 -1 -71 2 -67 5 -67 -44 0 -48 -8 -44 89 -42 94 3 84 11 83 -55 -1 -66
-14 -58 91 -57 46 0 85 -1 86 -1 6 -5 6 -3 -10 -145 -10 -93 -13 -87 35 -90
51 -4 45 -16 53 108 5 84 9 118 12 123 4 6 330 8 336 2 3 -3 3 -16 3 -115 0
-136 -5 -122 42 -122 53 0 49 -8 45 89 -7 175 -32 151 158 151 191 0 166 30
160 -190 -2 -57 -5 -53 43 -54 50 -1 47 -5 45 63 -5 205 -9 181 34 181 24 0
29 1 31 3 3 3 3 102 3 631 l0 626 -7 6 c-6 5 -7 10 -20 51 -19 63 -19 63 -25
64 -5 1 -52 -7 -67 -11 -12 -4 -11 -14 5 -59 17 -46 18 -44 -23 -45 -43 0 -35
-10 -67 82 -22 64 -18 61 -61 45 -42 -17 -41 -15 -19 -68 10 -25 17 -45 18
-50 l0 -8 -53 -1 c-68 0 -57 -11 -85 90 -17 62 -12 59 -59 44 -42 -13 -41 -8
-20 -71 10 -31 16 -51 16 -55 l-1 -7 -64 -1 c-80 0 -70 -14 -80 103 -5 56 -3
53 -48 48 -48 -6 -45 2 -33 -82 11 -78 20 -69 -65 -69 -86 0 -74 -15 -97 119
-11 61 -7 58 -54 49z m822 -252 c4 -2 4 -1096 0 -1098 -5 -3 -992 -2 -995 1
-5 5 -4 1091 0 1096 4 3 989 5 995 1z"/>
</g>
</svg>
