<?xml version="1.0" standalone="no"?>
<!DOCTYPE svg PUBLIC "-//W3C//DTD SVG 20010904//EN"
 "http://www.w3.org/TR/2001/REC-SVG-20010904/DTD/svg10.dtd">
<svg version="1.0" xmlns="http://www.w3.org/2000/svg"
 width="116.000000pt" height="148.000000pt" viewBox="0 0 116.000000 148.000000"
 preserveAspectRatio="xMidYMid meet">
<metadata>
Created by potrace 1.16, written by Peter Selinger 2001-2019
</metadata>
<g transform="translate(0.000000,148.000000) scale(0.100000,-0.100000)"
fill="#000000" stroke="none">
<path d="M375 1410 c-3 -5 -6 -238 -5 -517 1 -280 1 -513 1 -518 -1 -7 -55 -9
-161 -7 l-161 4 3 -156 3 -157 520 0 520 0 0 153 0 153 -155 2 c-85 1 -161 2
-168 2 -10 1 -12 108 -12 524 l1 522 -190 3 c-121 1 -192 -1 -196 -8z m325
-535 c3 -269 2 -494 -2 -500 -6 -10 -244 -12 -254 -2 -6 6 -5 977 1 987 3 4
60 7 127 6 l123 -1 5 -490z m-325 -665 l0 -94 -125 2 c-69 1 -128 1 -132 2
-10 0 -10 174 -1 184 4 3 63 5 132 4 l126 -3 0 -95z m330 7 c0 -49 -4 -91 -9
-94 -11 -7 -245 -8 -252 -1 -6 7 -12 177 -5 183 3 3 64 4 135 3 l131 -3 0 -88z
m333 -4 c1 -51 -1 -93 -5 -93 -34 -1 -251 -1 -260 -1 -10 1 -13 27 -13 96 l0
96 138 -3 137 -3 3 -92z"/>
</g>
</svg>
