<?xml version="1.0" standalone="no"?>
<!DOCTYPE svg PUBLIC "-//W3C//DTD SVG 20010904//EN"
 "http://www.w3.org/TR/2001/REC-SVG-20010904/DTD/svg10.dtd">
<svg version="1.0" xmlns="http://www.w3.org/2000/svg"
 width="460.000000pt" height="590.000000pt" viewBox="0 0 460.000000 590.000000"
 preserveAspectRatio="xMidYMid meet">
<metadata>
Created by potrace 1.16, written by Peter Selinger 2001-2019
</metadata>
<g transform="translate(0.000000,590.000000) scale(0.500000,-0.500000)"
fill="#000000" stroke="none">
<path d="M308 1138 c-11 -1 -10 28 -10 -423 1 -406 1 -413 -3 -416 -4 -3 -19
-3 -127 -3 -149 1 -128 21 -128 -122 0 -129 -1 -124 14 -124 3 0 185 0 406 -1
415 0 413 0 416 8 3 9 3 231 -1 236 -3 4 -6 4 -130 4 -71 0 -129 1 -130 2 -5
3 -6 16 -5 82 3 123 2 744 0 750 -2 3 -5 6 -8 6 -5 2 -285 3 -294 1z m246 -53
c3 -3 7 -753 4 -782 -1 -9 -198 -10 -204 -1 -6 9 -3 777 3 783 7 7 190 7 197
0z m-88 -835 c108 0 95 10 95 -77 0 -88 15 -77 -106 -77 -119 -1 -105 -11
-105 77 0 79 2 84 30 78 1 -1 40 -1 86 -1z m-170 -5 c6 -8 6 -138 0 -145 -5
-5 6 -4 -104 -4 -114 0 -100 -10 -100 75 0 68 1 73 9 77 11 5 190 2 195 -3z
m524 -1 c7 -6 9 -134 2 -142 -4 -5 -174 -10 -199 -6 -14 3 -14 1 -15 73 0 68
0 71 6 77 7 7 200 5 206 -2z"/>
</g>
</svg>
