<?xml version="1.0" standalone="no"?>
<!DOCTYPE svg PUBLIC "-//W3C//DTD SVG 20010904//EN"
 "http://www.w3.org/TR/2001/REC-SVG-20010904/DTD/svg10.dtd">
<svg version="1.0" xmlns="http://www.w3.org/2000/svg"
 width="78.000000pt" height="100.000000pt" viewBox="0 0 78.000000 100.000000"
 preserveAspectRatio="xMidYMid meet">
<metadata>
Created by potrace 1.16, written by Peter Selinger 2001-2019
</metadata>
<g transform="translate(0.000000,100.000000) scale(0.100000,-0.100000)"
fill="#000000" stroke="none">
<path d="M257 963 c-4 -3 -7 -148 -7 -322 0 -174 -3 -333 -6 -353 l-7 -37
-101 -3 -101 -3 -3 -101 -3 -101 98 -6 c126 -9 390 -9 516 0 l97 6 0 103 0
103 -107 3 -108 3 -5 350 -5 350 -40 7 c-52 9 -210 10 -218 1z m206 -110 c9
-88 8 -495 -1 -553 l-7 -45 -54 -3 c-30 -2 -65 -1 -78 3 l-23 5 0 324 c0 177
3 326 7 329 3 4 39 7 78 7 l72 0 6 -67z m-218 -708 l0 -60 -60 -3 c-98 -5
-105 -1 -105 63 0 51 1 54 28 58 15 2 52 4 82 3 l55 -1 0 -60z m220 0 l0 -60
-60 -3 c-97 -5 -105 -1 -105 62 0 29 3 56 7 60 4 4 41 5 83 4 l75 -3 0 -60z
m179 59 l47 -7 -3 -56 -3 -56 -70 -3 c-38 -1 -76 2 -83 7 -15 9 -20 90 -8 109
8 13 50 15 120 6z"/>
</g>
</svg>
