<?xml version="1.0" standalone="no"?>
<!DOCTYPE svg PUBLIC "-//W3C//DTD SVG 20010904//EN"
 "http://www.w3.org/TR/2001/REC-SVG-20010904/DTD/svg10.dtd">
<svg version="1.0" xmlns="http://www.w3.org/2000/svg"
 width="106.000000pt" height="148.000000pt" viewBox="0 0 106.000000 148.000000"
 preserveAspectRatio="xMidYMid meet">
<metadata>
Created by potrace 1.16, written by Peter Selinger 2001-2019
</metadata>
<g transform="translate(0.000000,148.000000) scale(0.100000,-0.100000)"
fill="#000000" stroke="none">
<path d="M52 1193 l3 -228 217 1 c150 0 218 -3 218 -10 0 -6 0 -205 0 -442
l-1 -431 27 -18 c20 -13 29 -14 38 -5 8 8 12 142 16 458 l5 446 202 1 c111 0
204 2 207 5 3 3 6 104 7 225 l1 220 -471 3 -471 2 2 -227z m438 6 c0 -86 -2
-158 -4 -160 -2 -2 -84 -2 -182 1 l-178 5 1 147 c1 81 3 150 6 155 3 4 84 8
181 8 l176 0 0 -156z m420 -1 l0 -157 -162 -3 c-90 -2 -166 -2 -170 0 -8 3
-11 305 -4 313 2 2 79 4 170 4 l166 0 0 -157z"/>
</g>
</svg>
