<?xml version="1.0" standalone="no"?>
<!DOCTYPE svg PUBLIC "-//W3C//DTD SVG 20010904//EN"
 "http://www.w3.org/TR/2001/REC-SVG-20010904/DTD/svg10.dtd">
<svg version="1.0" xmlns="http://www.w3.org/2000/svg"
 width="426.000000pt" height="590.000000pt" viewBox="0 0 426.000000 590.000000"
 preserveAspectRatio="xMidYMid meet">
<metadata>
Created by potrace 1.16, written by Peter Selinger 2001-2019
</metadata>
<g transform="translate(0.000000,590.000000) scale(0.500000,-0.500000)"
fill="#000000" stroke="none">
<path d="M85 1136 c-51 -1 -45 23 -45 -189 0 -208 -30 -178 178 -177 93 0 170
0 172 0 7 0 8 -9 6 -117 -2 -122 -3 -577 -1 -582 1 -2 5 -5 9 -7 4 -2 9 -6 10
-8 4 -8 24 -13 35 -9 15 6 20 203 13 609 -2 105 -1 114 6 114 2 0 67 0 146 0
127 0 144 0 154 3 6 2 14 3 17 3 5 0 9 2 12 5 7 6 5 345 -1 352 -4 4 -581 6
-711 3z m308 -56 c6 -6 6 -241 0 -245 -5 -4 -279 -2 -283 3 -5 4 -6 235 -1
240 3 5 -2 5 144 5 125 0 137 0 140 -3z m340 -2 c7 -9 4 -238 -3 -242 -6 -3
-261 -4 -265 -1 -6 4 -5 240 1 245 7 6 262 4 267 -2z"/>
</g>
</svg>
