<?xml version="1.0" standalone="no"?>
<!DOCTYPE svg PUBLIC "-//W3C//DTD SVG 20010904//EN"
 "http://www.w3.org/TR/2001/REC-SVG-20010904/DTD/svg10.dtd">
<svg version="1.0" xmlns="http://www.w3.org/2000/svg"
 width="72.000000pt" height="100.000000pt" viewBox="0 0 72.000000 100.000000"
 preserveAspectRatio="xMidYMid meet">
<metadata>
Created by potrace 1.16, written by Peter Selinger 2001-2019
</metadata>
<g transform="translate(0.000000,100.000000) scale(0.100000,-0.100000)"
fill="#000000" stroke="none">
<path d="M152 963 l-123 -4 3 -152 3 -152 148 -3 147 -3 0 -299 c0 -278 1
-300 18 -309 41 -22 43 -8 45 305 l2 299 120 2 c182 4 165 -12 165 158 0 79
-3 146 -7 148 -12 7 -384 14 -521 10z m176 -155 l3 -98 -121 0 -120 0 0 93 c0
52 3 97 7 101 4 3 57 5 117 4 l111 -3 3 -97z m290 1 l3 -96 -89 -7 c-49 -4
-101 -4 -115 -1 -27 7 -27 8 -27 99 0 51 3 96 7 100 4 3 54 5 112 4 l106 -3 3
-96z"/>
</g>
</svg>
