<?xml version="1.0" standalone="no"?>
<!DOCTYPE svg PUBLIC "-//W3C//DTD SVG 20010904//EN"
 "http://www.w3.org/TR/2001/REC-SVG-20010904/DTD/svg10.dtd">
<svg version="1.0" xmlns="http://www.w3.org/2000/svg"
 width="94.000000pt" height="148.000000pt" viewBox="0 0 94.000000 148.000000"
 preserveAspectRatio="xMidYMid meet">
<metadata>
Created by potrace 1.16, written by Peter Selinger 2001-2019
</metadata>
<g transform="translate(0.000000,148.000000) scale(0.100000,-0.100000)"
fill="#000000" stroke="none">
<path d="M77 1373 c-4 -3 -7 -297 -7 -652 0 -627 1 -647 19 -658 14 -9 117
-12 379 -13 198 0 367 3 376 6 14 6 16 73 16 665 l0 659 -388 0 c-214 0 -392
-3 -395 -7z m231 -155 l-3 -123 -90 2 c-49 1 -93 2 -97 2 -10 1 -11 225 -1
234 3 4 48 7 100 7 l94 0 -3 -122z m280 -1 l-3 -121 -115 0 -115 -1 -3 100
c-4 153 -13 143 123 143 l116 0 -3 -121z m230 1 c1 -65 -1 -118 -5 -119 -64
-6 -173 -5 -173 2 -1 5 -1 59 -1 119 0 61 0 112 1 115 0 3 39 4 88 3 l87 -3 3
-117z m-508 -313 l0 -145 -100 0 -100 0 0 145 0 145 100 0 100 0 0 -145z m280
0 l0 -145 -105 -1 c-58 -1 -111 -2 -117 -3 -10 -1 -13 35 -15 147 l-1 147 119
0 119 0 0 -145z m230 1 l0 -145 -86 -3 c-47 -2 -88 0 -92 4 -4 4 -6 70 -4 147
l3 141 90 0 89 0 0 -144z m-510 -341 l0 -146 -97 3 -98 3 -3 143 -3 142 101 0
100 0 0 -145z m280 0 l0 -146 -117 3 -118 3 -2 143 -2 142 119 0 120 0 0 -145z
m228 3 l-3 -143 -84 -3 c-46 -2 -87 1 -90 7 -3 5 -5 70 -3 145 l3 136 90 0 90
0 -3 -142z m-510 -326 l3 -142 -101 0 -100 0 0 139 c0 87 4 141 10 143 6 2 50
3 98 3 l87 -1 3 -142z m280 -1 l3 -141 -114 0 -114 0 -7 37 c-7 42 -8 237 -2
244 2 2 55 4 118 3 l113 -1 3 -142z m173 139 l59 0 0 -140 0 -141 -90 3 -91 3
0 130 c0 72 0 136 0 144 1 10 9 12 32 7 17 -3 58 -6 90 -6z"/>
</g>
</svg>
