<?xml version="1.0" standalone="no"?>
<!DOCTYPE svg PUBLIC "-//W3C//DTD SVG 20010904//EN"
 "http://www.w3.org/TR/2001/REC-SVG-20010904/DTD/svg10.dtd">
<svg version="1.0" xmlns="http://www.w3.org/2000/svg"
 width="378.000000pt" height="590.000000pt" viewBox="0 0 378.000000 590.000000"
 preserveAspectRatio="xMidYMid meet">
<metadata>
Created by potrace 1.16, written by Peter Selinger 2001-2019
</metadata>
<g transform="translate(0.000000,590.000000) scale(0.500000,-0.500000)"
fill="#000000" stroke="none">
<path d="M69 1102 c-14 -8 -13 36 -12 -523 l0 -509 6 -7 c14 -18 -22 -16 315
-17 297 0 297 0 306 4 17 9 15 -45 16 527 0 556 1 515 -11 525 -8 6 -610 6
-620 0z m178 -34 c8 -3 8 -179 0 -187 -7 -7 -141 -8 -149 -1 -6 5 -7 178 -1
184 5 6 137 9 150 4z m227 -4 c6 -5 9 -175 3 -183 -4 -6 -178 -7 -185 -1 -10
7 -6 182 4 187 10 6 173 3 178 -3z m185 1 c12 -11 6 -183 -6 -187 -58 -16
-138 -1 -138 26 0 120 1 162 6 164 9 4 134 2 138 -3z m2 -229 c5 -6 5 -214 0
-221 -7 -10 -130 -14 -141 -5 -5 4 -7 220 -2 227 5 6 137 5 143 -1z m-412 -2
c6 -11 4 -217 -2 -223 -7 -7 -144 -7 -150 0 -6 5 -6 222 0 226 8 6 149 3 152
-3z m227 3 c6 -5 6 -221 1 -226 -5 -5 -9 -5 -97 -5 -77 1 -86 1 -89 4 -4 4 -5
218 -1 226 3 6 180 7 186 1z m-228 -271 c7 -8 5 -215 -2 -220 -7 -6 -144 -5
-149 1 -5 4 -7 208 -2 217 2 5 2 5 51 6 84 2 98 2 102 -4z m222 4 c10 0 10 1
10 -113 0 -106 0 -106 -4 -110 -6 -6 -180 -6 -185 -1 -5 5 -5 216 -1 221 3 4
127 6 180 3z m158 0 c40 0 36 13 36 -112 0 -131 10 -115 -74 -116 -86 0 -75
-17 -75 115 0 130 -6 115 50 114 20 -1 48 -1 63 -1z m-381 -265 c5 -3 7 -218
3 -221 -4 -3 -143 -2 -149 0 -11 4 -13 218 -2 222 8 3 144 2 148 -1z m229 0
c5 -4 7 -214 1 -220 -4 -4 -175 -5 -179 -1 -1 2 -2 6 -2 11 0 4 -2 13 -4 19
-3 10 -4 19 -4 95 -1 98 -1 92 3 96 5 5 178 5 185 0z m184 -3 c5 -6 5 -211 0
-216 -4 -4 -138 -5 -142 -1 -4 5 -4 217 1 220 8 6 136 3 141 -3z"/>
</g>
</svg>
