<?xml version="1.0" standalone="no"?>
<!DOCTYPE svg PUBLIC "-//W3C//DTD SVG 20010904//EN"
 "http://www.w3.org/TR/2001/REC-SVG-20010904/DTD/svg10.dtd">
<svg version="1.0" xmlns="http://www.w3.org/2000/svg"
 width="64.000000pt" height="100.000000pt" viewBox="0 0 64.000000 100.000000"
 preserveAspectRatio="xMidYMid meet">
<metadata>
Created by potrace 1.16, written by Peter Selinger 2001-2019
</metadata>
<g transform="translate(0.000000,100.000000) scale(0.100000,-0.100000)"
fill="#000000" stroke="none">
<path d="M57 933 c-16 -4 -17 -32 -15 -446 l3 -442 275 0 275 0 -2 439 c-2
341 -6 441 -15 448 -13 8 -489 9 -521 1z m129 -41 c18 -11 29 -119 14 -137
-13 -15 -58 -19 -97 -9 -21 6 -23 13 -23 64 0 40 5 64 16 74 16 16 70 21 90 8z
m202 -7 c8 -3 12 -26 12 -69 0 -64 0 -64 -31 -71 -17 -4 -51 -4 -75 0 l-44 6
0 69 c0 57 3 69 18 73 17 5 95 -1 120 -8z m160 1 c4 -4 7 -34 7 -67 0 -65 -10
-79 -57 -79 -53 0 -58 7 -58 79 0 37 3 71 8 75 8 9 89 2 100 -8z m-345 -228
c3 -23 3 -64 0 -90 l-6 -49 -56 3 -56 3 -3 74 c-2 41 -1 80 2 88 4 9 23 13 59
13 l54 0 6 -42z m195 -45 l-3 -88 -72 -3 -73 -3 0 91 0 90 75 0 76 0 -3 -87z
m152 -3 l0 -90 -55 0 -55 0 0 90 0 90 55 0 55 0 0 -90z m-348 -168 c3 -21 3
-61 0 -90 -5 -59 -22 -70 -83 -55 l-34 9 -3 73 c-4 89 5 101 68 101 47 0 47 0
52 -38z m196 -53 l3 -86 -38 -5 c-21 -3 -55 -3 -75 0 l-38 4 0 82 c0 46 3 86
7 90 4 4 37 6 73 4 l65 -3 3 -86z m136 85 c13 -5 16 -23 16 -89 l0 -83 -35 -6
c-68 -13 -75 -5 -75 88 0 45 3 86 7 89 8 9 66 9 87 1z m-334 -229 c18 -21 4
-161 -17 -169 -8 -3 -32 -3 -53 0 -36 6 -38 8 -44 51 -9 69 -7 108 6 121 17
17 93 15 108 -3z m328 9 c21 -6 22 -12 22 -90 l0 -83 -34 -6 c-68 -13 -76 -4
-76 89 0 45 3 86 7 89 8 9 50 9 81 1z m-128 -78 c0 -96 -12 -110 -84 -101 -28
4 -54 9 -58 12 -5 2 -8 40 -8 84 l0 79 75 0 75 0 0 -74z"/>
</g>
</svg>
