<?xml version="1.0" standalone="no"?>
<!DOCTYPE svg PUBLIC "-//W3C//DTD SVG 20010904//EN"
 "http://www.w3.org/TR/2001/REC-SVG-20010904/DTD/svg10.dtd">
<svg version="1.0" xmlns="http://www.w3.org/2000/svg"
 width="430.000000pt" height="590.000000pt" viewBox="0 0 430.000000 590.000000"
 preserveAspectRatio="xMidYMid meet">
<metadata>
Created by potrace 1.16, written by Peter Selinger 2001-2019
</metadata>
<g transform="translate(0.000000,590.000000) scale(0.500000,-0.500000)"
fill="#000000" stroke="none">
<path d="M46 1138 c-8 -5 -8 6 -8 -549 1 -533 1 -533 6 -537 6 -7 524 -9 533
-2 7 6 7 3 5 279 -2 262 -2 265 6 265 4 0 156 -112 174 -128 l8 -8 -1 -193
c-2 -194 -2 -194 3 -200 9 -10 41 -9 45 1 5 10 2 1053 -2 1057 -9 9 -39 6 -45
-3 -2 -4 -3 -290 -1 -294 2 -3 2 -296 0 -298 -4 -3 -10 0 -26 16 -8 8 -18 15
-24 18 -5 2 -17 11 -28 21 -11 11 -23 20 -29 22 -7 3 -18 12 -34 28 -16 16
-27 24 -33 27 -6 2 -11 5 -12 7 -1 1 -1 106 -1 233 1 230 1 230 -5 235 -6 6
-520 8 -531 3z m226 -39 c6 -5 6 -205 1 -209 -5 -4 -189 -4 -194 0 -5 4 -5
202 1 208 6 6 186 6 192 1z m267 -1 c4 -5 5 -202 1 -207 -5 -5 -219 -5 -223 0
-5 6 -4 200 0 207 4 5 216 6 222 0z m-266 -253 c4 -5 4 -202 1 -207 -4 -6
-192 -6 -196 0 -3 5 -3 205 1 208 4 3 8 3 101 3 87 0 90 0 93 -4z m178 3 c70
0 85 0 88 -3 13 -9 4 -208 -9 -211 -12 -3 -210 0 -213 3 -3 4 -5 201 -1 207 3
4 13 6 32 5 10 -1 57 -1 103 -1z m-179 -255 c6 -4 7 -231 1 -237 -5 -6 -187
-6 -193 -1 -7 6 -6 233 0 238 4 3 17 3 96 3 79 0 92 0 96 -3z m269 0 c5 -5 4
-231 -2 -236 -6 -6 -215 -7 -221 -1 -6 6 -6 230 0 236 6 6 217 6 223 1z m-269
-282 c5 -4 7 -214 1 -222 -4 -6 -190 -6 -194 0 -6 8 -4 218 1 222 4 3 17 3 96
3 79 0 92 0 96 -3z m268 -2 c3 -3 4 -207 1 -217 -2 -8 -219 -10 -224 -3 -5 7
-4 216 1 221 5 5 216 4 222 -1z"/>
</g>
</svg>
