<?xml version="1.0" standalone="no"?>
<!DOCTYPE svg PUBLIC "-//W3C//DTD SVG 20010904//EN"
 "http://www.w3.org/TR/2001/REC-SVG-20010904/DTD/svg10.dtd">
<svg version="1.0" xmlns="http://www.w3.org/2000/svg"
 width="108.000000pt" height="148.000000pt" viewBox="0 0 108.000000 148.000000"
 preserveAspectRatio="xMidYMid meet">
<metadata>
Created by potrace 1.16, written by Peter Selinger 2001-2019
</metadata>
<g transform="translate(0.000000,148.000000) scale(0.100000,-0.100000)"
fill="#000000" stroke="none">
<path d="M372 1420 l-323 -5 1 -674 c0 -370 3 -677 6 -682 8 -13 645 -11 661
3 11 9 12 73 7 349 -4 187 -3 339 1 339 14 0 235 -172 236 -183 0 -7 1 -120 2
-252 l2 -240 27 -3 28 -3 2 661 c2 364 0 666 -3 672 -4 5 -17 8 -30 6 l-24 -3
0 -377 c0 -208 -2 -378 -6 -378 -3 0 -16 11 -29 25 -13 14 -28 25 -32 25 -10
0 -111 80 -116 93 -2 4 -17 14 -34 23 l-30 16 6 286 c5 272 2 319 -23 310 -3
-2 -151 -5 -329 -8z m-27 -173 c0 -71 -3 -131 -7 -133 -4 -3 -61 -5 -125 -6
l-118 -1 -3 124 c-1 67 0 129 2 136 4 11 33 13 128 11 l122 -3 1 -128z m333
-4 l3 -131 -138 -4 c-76 -2 -141 -2 -145 0 -10 4 -10 256 -1 266 4 3 68 5 142
4 l136 -3 3 -132z m0 -316 l-3 -132 -142 -3 -143 -3 0 135 c0 79 4 136 10 138
5 2 71 2 145 0 l136 -3 -3 -132z m-333 -2 l0 -130 -125 0 -125 0 -3 133 -3
133 128 -3 128 -3 0 -130z m-10 -184 c6 -1 10 -59 10 -151 l1 -150 -128 0
-128 0 0 148 c0 82 2 151 4 153 4 3 209 3 241 0z m340 -3 c6 -4 9 -62 7 -152
l-3 -146 -145 0 -144 0 0 148 c0 82 2 151 4 153 7 7 270 4 281 -3z m-330 -490
l-2 -143 -124 0 -124 0 -3 143 -3 142 129 0 128 0 -1 -142z m333 0 l-3 -143
-142 -3 -143 -3 0 146 0 145 145 0 146 0 -3 -142z"/>
</g>
</svg>
