<?xml version="1.0" standalone="no"?>
<!DOCTYPE svg PUBLIC "-//W3C//DTD SVG 20010904//EN"
 "http://www.w3.org/TR/2001/REC-SVG-20010904/DTD/svg10.dtd">
<svg version="1.0" xmlns="http://www.w3.org/2000/svg"
 width="73.000000pt" height="100.000000pt" viewBox="0 0 73.000000 100.000000"
 preserveAspectRatio="xMidYMid meet">
<metadata>
Created by potrace 1.16, written by Peter Selinger 2001-2019
</metadata>
<g transform="translate(0.000000,100.000000) scale(0.100000,-0.100000)"
fill="#000000" stroke="none">
<path d="M35 961 c-3 -6 -8 -211 -12 -457 -6 -428 -6 -447 12 -460 14 -11 66
-14 219 -14 111 0 212 3 225 7 l24 6 -6 224 c-4 164 -2 223 7 223 6 0 40 -24
76 -53 l65 -53 1 -155 c1 -164 4 -189 28 -189 11 0 15 31 21 158 8 151 0 751
-10 760 -2 2 -11 2 -20 -1 -13 -6 -15 -40 -15 -252 0 -135 -4 -245 -9 -245 -4
0 -38 23 -75 50 l-66 51 0 192 c0 137 -3 196 -12 205 -15 15 -444 17 -453 3z
m190 -54 c4 -13 5 -50 3 -82 l-3 -60 -40 -7 c-22 -4 -57 -5 -77 -2 l-38 6 0
78 0 79 33 4 c17 2 51 5 74 5 37 2 43 -1 48 -21z m193 13 l32 0 0 -79 0 -78
-65 -7 c-35 -4 -76 -4 -90 0 -24 6 -25 9 -25 84 l0 79 38 4 c20 2 46 3 57 1
11 -2 35 -4 53 -4z m-193 -295 l0 -80 -75 0 -75 0 -3 83 -3 83 78 -3 78 -3 0
-80z m228 39 c2 -25 2 -64 0 -85 l-6 -39 -88 0 -89 0 0 85 0 85 89 0 88 0 6
-46z m-228 -187 c3 -12 5 -56 3 -97 l-3 -75 -75 0 -75 0 -3 84 c-2 46 -1 90 2
98 4 9 26 13 75 13 65 0 71 -2 76 -23z m222 15 c8 -5 10 -32 5 -97 l-7 -90
-87 -3 -88 -3 0 94 c0 51 3 97 7 100 9 9 155 8 170 -1z m-219 -312 c1 -41 -2
-81 -7 -88 -8 -14 -121 -19 -141 -7 -11 7 -14 158 -3 169 4 4 39 5 78 4 l70
-3 3 -75z m220 -11 l3 -86 -46 -5 c-25 -3 -65 -3 -90 0 l-45 5 0 82 c0 45 3
85 7 89 4 4 43 5 88 4 l80 -3 3 -86z"/>
</g>
</svg>
