<?xml version="1.0" standalone="no"?>
<!DOCTYPE svg PUBLIC "-//W3C//DTD SVG 20010904//EN"
 "http://www.w3.org/TR/2001/REC-SVG-20010904/DTD/svg10.dtd">
<svg version="1.0" xmlns="http://www.w3.org/2000/svg"
 width="746.000000pt" height="590.000000pt" viewBox="0 0 746.000000 590.000000"
 preserveAspectRatio="xMidYMid meet">
<metadata>
Created by potrace 1.16, written by Peter Selinger 2001-2019
</metadata>
<g transform="translate(0.000000,590.000000) scale(0.500000,-0.500000)"
fill="#000000" stroke="none">
<path d="M301 1138 c-232 -1 -255 -1 -258 -4 -7 -7 -5 -1062 2 -1067 8 -8 618
-8 626 0 5 4 9 1057 4 1065 -4 7 -14 8 -67 8 -29 -1 -167 -1 -307 -2z m-72
-42 c6 -6 5 -160 -1 -164 -7 -6 -139 -5 -146 1 -5 4 -6 149 -1 159 4 8 140 12
148 4z m210 -1 c5 -6 4 -159 0 -163 -6 -5 -157 -4 -163 1 -4 4 -4 5 -4 79 0
79 0 83 9 86 9 4 155 1 158 -3z m190 2 c8 -4 12 -154 3 -163 -8 -8 -139 -9
-146 0 -4 4 -4 9 -4 79 0 78 0 82 9 85 5 2 132 1 138 -1z m-400 -211 c4 -4 6
-153 2 -161 -3 -9 -144 -10 -150 -2 -5 6 -4 157 1 161 5 6 7 6 76 5 61 0 68 0
71 -3z m206 2 c7 -3 7 -2 7 -85 1 -97 13 -85 -86 -85 -96 1 -84 -11 -84 86 0
83 0 81 10 85 5 1 147 1 153 -1z m144 1 c65 -2 57 9 57 -85 0 -97 11 -85 -78
-85 -87 0 -76 -12 -76 84 0 99 -12 89 97 86z m-350 -214 c6 -4 6 -140 0 -147
-6 -6 -141 -6 -147 0 -7 7 -6 142 0 147 7 4 141 5 147 0z m210 -1 c6 -7 5
-141 -1 -146 -7 -6 -156 -6 -162 0 -7 7 -6 142 0 147 8 5 158 5 163 -1z m194
-1 c5 -7 4 -139 -1 -144 -7 -6 -140 -7 -146 -1 -6 6 -6 140 0 146 6 6 143 5
147 -1z m-404 -192 c4 -3 6 -148 2 -159 -2 -8 -3 -8 -75 -8 -67 0 -70 0 -74 4
-6 6 -6 157 0 163 7 6 141 7 147 0z m203 3 c4 -1 7 -3 8 -4 4 -6 2 -158 -1
-162 -6 -6 -157 -6 -163 0 -4 4 -4 7 -4 82 0 84 0 82 11 85 8 1 142 1 149 -1z
m152 0 c59 0 52 11 52 -84 0 -97 10 -86 -79 -86 -86 0 -75 -12 -75 85 0 95 -3
87 38 86 11 -1 40 -1 64 -1z m-355 -213 c4 -4 3 3 3 -85 0 -73 0 -75 -4 -78
-7 -6 -137 -6 -144 0 -7 5 -9 155 -2 162 6 6 141 6 147 1z m209 0 c6 -5 7
-156 0 -163 -7 -7 -154 -6 -161 1 -7 7 -8 154 -1 161 5 5 154 6 162 1z m194
-3 c6 -7 5 -154 -1 -159 -5 -6 -136 -7 -143 -1 -7 5 -9 155 -2 162 7 7 141 5
146 -2z"/>
<path d="M814 1137 c-9 -4 -8 22 -8 -542 1 -525 1 -525 6 -529 4 -4 12 -4 311
-4 328 0 316 0 320 9 4 12 1 1058 -4 1063 -5 5 -612 8 -625 3z m179 -39 c7 -3
7 -2 7 -85 0 -96 9 -84 -62 -85 -102 -1 -91 -11 -90 85 0 93 -2 85 28 86 51 1
112 1 117 -1z m214 -3 c4 -6 4 -156 0 -162 -5 -7 -158 -6 -163 1 -5 5 -6 150
-2 158 4 7 10 8 87 7 72 0 75 0 78 -4z m190 2 c6 -3 7 -11 7 -85 0 -95 11 -83
-77 -83 -88 0 -77 -12 -77 84 0 78 0 82 9 85 5 2 132 1 138 -1z m-400 -211 c6
-7 5 -159 -1 -164 -8 -7 -141 -5 -146 2 -5 6 -5 155 0 160 5 6 142 7 147 2z
m206 2 c7 -3 7 -2 7 -85 1 -98 13 -85 -86 -85 -96 1 -84 -11 -84 85 0 78 0 82
9 85 5 2 147 3 154 0z m197 -3 c5 -5 6 -156 1 -162 -7 -7 -143 -7 -148 0 -4 5
-4 153 -1 159 4 7 10 8 77 7 62 0 67 0 71 -4z m-403 -210 c8 -8 7 -141 -1
-147 -8 -7 -141 -5 -146 2 -7 8 -6 136 1 143 6 6 140 8 146 2z m210 -1 c6 -7
5 -141 -1 -146 -7 -6 -156 -6 -162 0 -4 4 -4 7 -4 73 0 66 0 69 4 73 6 6 157
6 163 0z m193 0 c4 -4 6 -137 2 -143 -4 -6 -10 -7 -77 -7 -85 0 -75 -11 -75
77 0 66 0 69 4 73 4 4 7 4 73 4 66 0 69 0 73 -4z m-411 -190 c4 -1 8 -3 10 -4
1 -1 3 -133 1 -157 0 -9 -3 -9 -75 -9 -90 0 -79 -12 -79 87 1 93 -7 82 59 83
28 1 57 1 64 2 7 0 15 -1 20 -2z m211 0 c10 0 10 -1 10 -84 0 -70 0 -79 -3
-82 -6 -6 -157 -6 -163 0 -5 5 -6 154 -1 161 4 5 113 9 157 5z m200 -3 c6 -4
7 -156 0 -163 -4 -4 -7 -4 -73 -4 -88 0 -77 -12 -77 85 0 83 0 84 12 85 16 3
133 -1 138 -3z m-403 -211 c6 -6 5 -158 -1 -163 -9 -7 -144 -4 -147 4 -1 4 -2
154 0 157 3 5 12 6 77 6 64 0 68 0 71 -4z m209 1 c6 -5 7 -156 0 -163 -7 -7
-154 -6 -161 1 -7 7 -8 154 -1 161 5 5 154 6 162 1z m195 -2 c5 -7 3 -155 -2
-160 -5 -6 -136 -7 -143 -1 -7 6 -9 155 -2 162 6 6 143 5 147 -1z"/>
</g>
</svg>
