<?xml version="1.0" standalone="no"?>
<!DOCTYPE svg PUBLIC "-//W3C//DTD SVG 20010904//EN"
 "http://www.w3.org/TR/2001/REC-SVG-20010904/DTD/svg10.dtd">
<svg version="1.0" xmlns="http://www.w3.org/2000/svg"
 width="100.000000pt" height="80.000000pt" viewBox="0 0 100.000000 80.000000"
 preserveAspectRatio="xMidYMid meet">
<metadata>
Created by potrace 1.16, written by Peter Selinger 2001-2019
</metadata>
<g transform="translate(0.000000,80.000000) scale(0.100000,-0.100000)"
fill="#000000" stroke="none">
<path d="M100 771 l-75 -6 -2 -350 c-2 -192 1 -356 6 -363 12 -20 409 -20 422
-1 5 8 9 171 9 362 0 269 -3 348 -12 351 -25 8 -274 13 -348 7z m38 -40 c9 -5
12 -24 10 -52 l-3 -44 -40 0 -40 0 -3 44 c-3 46 7 61 43 61 11 0 26 -4 33 -9z
m140 0 c9 -5 12 -24 10 -52 -3 -44 -3 -44 -45 -47 -34 -2 -44 1 -53 17 -9 18
-6 61 7 84 6 10 65 9 81 -2z m131 -5 c7 -8 11 -32 9 -53 -3 -37 -4 -38 -45
-41 l-43 -3 0 49 c0 27 3 52 7 55 12 12 60 7 72 -7z m-261 -183 l-3 -48 -39 0
c-35 0 -40 3 -47 27 -14 51 -2 68 48 68 l44 0 -3 -47z m142 -3 l0 -50 -49 0
c-47 0 -49 1 -55 34 -10 54 -1 66 55 66 l49 0 0 -50z m125 0 l0 -45 -42 -3
-43 -3 0 51 0 51 43 -3 42 -3 0 -45z m-274 -90 c6 0 9 -19 7 -42 -3 -43 -3
-43 -43 -43 -40 0 -40 0 -43 42 -3 37 0 42 20 46 13 2 29 3 36 1 8 -2 18 -4
23 -4z m144 -45 l0 -40 -46 -3 c-43 -3 -47 -1 -52 23 -10 53 1 66 52 63 l46
-3 0 -40z m130 0 c0 -40 0 -40 -42 -43 l-43 -3 0 46 0 46 43 -3 c42 -3 42 -3
42 -43z m-267 -137 l3 -48 -45 0 -46 0 0 43 c0 53 5 59 50 55 34 -3 35 -4 38
-50z m140 0 l3 -48 -49 0 c-46 0 -50 2 -55 29 -3 15 -3 38 0 50 5 19 11 22 52
19 l46 -3 3 -47z m127 2 l0 -45 -42 -3 -43 -3 0 51 0 51 43 -3 42 -3 0 -45z
m-267 -142 l3 -48 -45 0 -46 0 0 43 c0 53 5 59 50 55 34 -3 35 -4 38 -50z
m140 4 c3 -38 0 -43 -23 -52 -58 -22 -93 10 -80 71 7 29 9 30 53 27 l47 -3 3
-43z m127 -2 l0 -45 -41 -3 c-36 -3 -42 0 -47 19 -3 12 -3 35 0 51 5 27 9 29
47 26 l41 -3 0 -45z"/>
<path d="M625 770 l-90 -5 0 -360 0 -360 95 -6 c52 -3 150 -4 218 -1 l122 5 0
359 c0 278 -3 359 -12 363 -23 7 -242 10 -333 5z m33 -87 l3 -53 -33 0 c-42 0
-58 15 -58 55 0 40 17 57 55 53 29 -3 30 -5 33 -55z m140 -1 l3 -53 -48 3 -48
3 -3 44 c-4 51 7 62 58 59 35 -3 35 -3 38 -56z m120 49 c9 -5 12 -24 10 -52
l-3 -44 -40 0 -40 0 -3 44 c-3 46 7 61 43 61 11 0 26 -4 33 -9z m-254 -157 c4
-9 4 -32 0 -51 -6 -33 -8 -34 -48 -31 l-41 3 -3 48 -3 47 44 0 c32 0 47 -5 51
-16z m139 2 c3 -8 3 -31 0 -50 -6 -36 -6 -36 -54 -36 l-49 0 0 50 0 50 49 0
c33 0 51 -5 54 -14z m125 -33 l-3 -48 -40 0 -40 0 -3 48 -3 47 46 0 46 0 -3
-47z m-266 -106 c10 -16 10 -49 -1 -65 -5 -8 -23 -12 -47 -10 -36 3 -39 5 -42
38 -3 24 2 38 15 48 20 14 63 8 75 -11z m124 13 c10 0 14 -13 14 -46 l0 -45
-47 3 c-48 3 -48 3 -51 41 -3 31 1 39 20 46 13 6 29 8 36 5 8 -2 20 -4 28 -4z
m130 0 c10 0 14 -13 14 -46 l0 -45 -42 3 c-43 3 -43 3 -46 45 -3 42 11 57 46
47 8 -2 20 -4 28 -4z m-256 -181 l0 -50 -42 3 c-41 3 -43 5 -46 36 -5 52 3 62
48 62 l40 0 0 -51z m144 26 c15 -60 -10 -85 -76 -76 -26 3 -28 7 -28 45 0 24
3 46 7 49 3 4 25 7 49 7 36 0 43 -3 48 -25z m124 -27 l3 -48 -45 0 -46 0 0 43
c0 53 5 59 50 55 34 -3 35 -4 38 -50z m-266 -113 c3 -14 3 -36 0 -51 -4 -23
-8 -25 -46 -22 -39 3 -41 5 -44 36 -5 52 3 62 47 62 33 0 39 -3 43 -25z m138
-24 c0 -44 -2 -49 -25 -53 -14 -3 -36 -3 -50 0 -22 4 -25 9 -25 46 0 24 3 46
7 49 3 4 26 7 50 7 l43 0 0 -49z m128 -3 l3 -48 -45 0 -46 0 0 43 c0 53 5 59
50 55 34 -3 35 -4 38 -50z"/>
</g>
</svg>
