<?xml version="1.0" standalone="no"?>
<!DOCTYPE svg PUBLIC "-//W3C//DTD SVG 20010904//EN"
 "http://www.w3.org/TR/2001/REC-SVG-20010904/DTD/svg10.dtd">
<svg version="1.0" xmlns="http://www.w3.org/2000/svg"
 width="186.000000pt" height="148.000000pt" viewBox="0 0 186.000000 148.000000"
 preserveAspectRatio="xMidYMid meet">
<metadata>
Created by potrace 1.16, written by Peter Selinger 2001-2019
</metadata>
<g transform="translate(0.000000,148.000000) scale(0.100000,-0.100000)"
fill="#000000" stroke="none">
<path d="M49 1416 c-2 -2 -2 -305 1 -673 l5 -668 390 0 390 0 3 673 2 672
-393 0 c-217 0 -396 -2 -398 -4z m229 -44 c9 -2 12 -31 12 -107 l0 -105 -100
0 -100 0 0 104 c0 64 4 106 11 108 10 3 151 3 177 0z m270 -105 l3 -108 -108
3 -107 3 1 98 c1 53 4 101 7 105 2 4 48 7 103 6 l98 0 3 -107z m175 103 l67 0
0 -105 0 -106 -96 3 -97 3 2 99 c1 55 5 104 8 109 3 5 15 6 27 3 11 -3 51 -6
89 -6z m-433 -364 c0 -121 9 -113 -116 -108 l-83 3 0 97 c0 53 2 99 5 104 3 4
48 8 100 8 l94 0 0 -104z m260 0 l0 -105 -101 -3 c-56 -2 -104 -1 -108 2 -5 4
-7 195 -2 208 1 1 48 2 106 2 l105 0 0 -104z m240 0 l0 -105 -91 -3 c-50 -2
-93 1 -96 5 -4 6 -6 137 -3 197 0 6 39 10 95 10 l95 0 0 -104z m-502 -253 l-3
-98 -95 0 -95 0 -3 84 c-2 46 -1 90 2 98 4 9 31 13 101 13 l96 0 -3 -97z m262
-3 l0 -101 -107 3 -108 3 0 90 c0 50 1 93 3 98 2 4 50 7 108 7 l104 0 0 -100z
m238 3 l-3 -98 -89 -3 c-49 -2 -92 1 -95 7 -3 5 -5 50 -3 100 l3 91 95 0 95 0
-3 -97z m-500 -256 l3 -108 -98 3 -98 3 -3 85 c-5 134 -8 129 100 127 l93 -2
3 -108z m260 0 l3 -108 -107 3 -106 3 0 95 c0 52 1 101 1 107 1 10 27 12 104
10 l102 -2 3 -108z m240 0 l3 -108 -97 3 -97 3 1 98 c0 53 1 102 1 107 1 7 35
10 94 8 l92 -3 3 -108z m-500 -264 l-3 -108 -90 -1 c-56 -1 -93 3 -97 10 -10
14 -10 190 -1 199 3 4 48 7 100 7 l94 0 -3 -107z m262 3 c0 -91 -2 -105 -17
-110 -27 -7 -193 -6 -194 2 -1 12 -1 197 0 205 1 4 48 7 106 7 l105 0 0 -104z
m238 -3 l-3 -108 -92 -3 -92 -3 -3 103 c-2 57 -2 106 0 111 2 4 46 7 98 7 l95
0 -3 -107z"/>
<path d="M1000 751 c0 -629 1 -670 18 -675 9 -3 187 -5 394 -5 l378 0 5 22 c3
12 4 315 3 672 l-3 650 -397 3 -398 2 0 -669z m235 620 c6 -1 11 -45 11 -106
l2 -105 -99 0 -99 0 0 104 c0 62 4 106 10 108 9 3 150 2 175 -1z m268 0 c4 -1
7 -48 7 -106 l0 -105 -110 0 -110 0 0 103 c0 57 2 106 5 108 3 4 163 3 208 0z
m183 -1 l64 0 0 -105 0 -105 -99 0 -100 0 4 108 c2 59 4 109 4 111 1 2 15 1
32 -3 17 -3 60 -6 95 -6z m-438 -364 c0 -69 -4 -106 -12 -108 -6 -2 -50 -2
-98 0 l-88 3 0 105 0 104 99 0 99 0 0 -104z m262 -1 c0 -63 -4 -105 -10 -105
-5 -1 -50 -1 -100 -1 -49 0 -94 0 -100 1 -6 0 -10 42 -10 105 l0 105 110 0
110 0 0 -105z m240 0 l0 -105 -85 -1 c-47 -1 -91 -2 -97 -3 -10 -1 -13 27 -14
107 l0 107 98 0 98 0 0 -105z m-505 -255 l0 -95 -95 0 -95 0 -3 84 c-2 46 0
90 2 98 4 11 27 13 98 11 l93 -3 0 -95z m260 0 l0 -95 -105 0 -105 0 -3 84
c-2 46 0 90 2 98 4 11 29 13 108 11 l103 -3 0 -95z m243 3 l-3 -98 -95 0 -95
0 -3 84 c-2 46 -1 90 2 98 4 9 31 13 101 13 l96 0 -3 -97z m-510 -156 c5 -7 9
-55 8 -107 l-1 -95 -95 0 -95 0 -3 94 c-1 52 -1 100 2 107 6 16 171 18 184 1z
m267 -97 l0 -105 -105 0 -105 0 -3 94 c-1 52 0 101 2 108 4 11 29 13 108 11
l103 -3 0 -105z m243 -3 l3 -108 -98 3 -98 3 -1 100 c-1 55 1 104 3 108 3 4
46 6 96 5 l92 -3 3 -108z m-503 -260 c1 -62 -3 -101 -11 -107 -6 -6 -49 -9
-95 -7 l-84 3 -3 94 c-1 51 0 100 2 107 4 11 27 13 98 11 l93 -3 0 -98z m265
4 c0 -68 -4 -102 -13 -109 -7 -6 -52 -10 -107 -9 l-95 2 -3 94 c-1 52 -1 100
2 108 4 10 32 13 111 13 l105 0 0 -99z m238 -5 c2 -68 -1 -102 -9 -107 -6 -4
-49 -7 -95 -8 -71 -1 -83 1 -87 16 -5 15 -3 193 1 201 1 1 44 1 95 0 l92 -3 3
-99z"/>
</g>
</svg>
