<?xml version="1.0" standalone="no"?>
<!DOCTYPE svg PUBLIC "-//W3C//DTD SVG 20010904//EN"
 "http://www.w3.org/TR/2001/REC-SVG-20010904/DTD/svg10.dtd">
<svg version="1.0" xmlns="http://www.w3.org/2000/svg"
 width="400.000000pt" height="590.000000pt" viewBox="0 0 400.000000 590.000000"
 preserveAspectRatio="xMidYMid meet">
<metadata>
Created by potrace 1.16, written by Peter Selinger 2001-2019
</metadata>
<g transform="translate(0.000000,590.000000) scale(0.500000,-0.500000)"
fill="#000000" stroke="none">
<path d="M67 1123 c-13 -3 -12 45 -13 -518 0 -530 0 -515 6 -521 7 -7 669 -6
677 1 7 5 6 -50 6 530 -1 488 -1 499 -5 503 -3 5 -648 9 -671 5z m311 -43 c5
-3 4 -954 -1 -957 -5 -4 -268 -3 -272 1 -5 5 -5 952 0 955 4 4 268 4 273 1z
m313 -1 c5 -4 6 -949 1 -954 -7 -7 -258 -6 -261 1 -2 6 -1 950 1 953 4 4 253
4 259 0z"/>
</g>
</svg>
