<?xml version="1.0" standalone="no"?>
<!DOCTYPE svg PUBLIC "-//W3C//DTD SVG 20010904//EN"
 "http://www.w3.org/TR/2001/REC-SVG-20010904/DTD/svg10.dtd">
<svg version="1.0" xmlns="http://www.w3.org/2000/svg"
 width="68.000000pt" height="100.000000pt" viewBox="0 0 68.000000 100.000000"
 preserveAspectRatio="xMidYMid meet">
<metadata>
Created by potrace 1.16, written by Peter Selinger 2001-2019
</metadata>
<g transform="translate(0.000000,100.000000) scale(0.100000,-0.100000)"
fill="#000000" stroke="none">
<path d="M47 943 c-4 -3 -7 -198 -7 -433 0 -318 3 -429 12 -438 14 -14 563
-18 571 -4 10 15 19 614 12 745 l-7 137 -287 0 c-158 0 -291 -3 -294 -7z m268
-433 l0 -395 -110 0 -110 0 -3 385 c-1 212 0 391 3 398 3 9 32 12 112 10 l108
-3 0 -395z m270 106 c4 -162 4 -342 0 -400 l-7 -107 -102 3 -101 3 -3 385 c-1
212 0 391 3 397 3 9 33 13 103 13 l99 0 8 -294z"/>
</g>
</svg>
