<?xml version="1.0" standalone="no"?>
<!DOCTYPE svg PUBLIC "-//W3C//DTD SVG 20010904//EN"
 "http://www.w3.org/TR/2001/REC-SVG-20010904/DTD/svg10.dtd">
<svg version="1.0" xmlns="http://www.w3.org/2000/svg"
 width="64.000000pt" height="100.000000pt" viewBox="0 0 64.000000 100.000000"
 preserveAspectRatio="xMidYMid meet">
<metadata>
Created by potrace 1.16, written by Peter Selinger 2001-2019
</metadata>
<g transform="translate(0.000000,100.000000) scale(0.100000,-0.100000)"
fill="#000000" stroke="none">
<path d="M35 948 c-3 -7 -4 -213 -3 -458 l3 -445 274 -3 c213 -2 276 1 283 10
4 7 8 212 8 454 l0 442 -22 6 c-13 3 -139 6 -281 6 -197 0 -259 -3 -262 -12z
m263 -240 l2 -198 -110 0 -110 0 0 193 c0 107 3 197 7 201 4 4 52 5 107 4
l101 -3 3 -197z m247 -208 l0 -405 -92 -3 -93 -3 0 411 0 411 93 -3 92 -3 0
-405z m-267 -46 c22 -6 22 -8 22 -186 l0 -179 -107 3 -108 3 -3 177 c-2 162
-1 177 15 181 27 7 155 8 181 1z"/>
</g>
</svg>
