<?xml version="1.0" standalone="no"?>
<!DOCTYPE svg PUBLIC "-//W3C//DTD SVG 20010904//EN"
 "http://www.w3.org/TR/2001/REC-SVG-20010904/DTD/svg10.dtd">
<svg version="1.0" xmlns="http://www.w3.org/2000/svg"
 width="378.000000pt" height="590.000000pt" viewBox="0 0 378.000000 590.000000"
 preserveAspectRatio="xMidYMid meet">
<metadata>
Created by potrace 1.16, written by Peter Selinger 2001-2019
</metadata>
<g transform="translate(0.000000,590.000000) scale(0.500000,-0.500000)"
fill="#000000" stroke="none">
<path d="M45 1133 c-7 -7 -8 -1071 -1 -1079 6 -8 654 -8 660 0 4 4 4 13 4 388
0 337 0 385 3 394 6 19 3 287 -3 292 -4 4 -10 4 -144 4 -122 0 -141 0 -152 3
-14 4 -42 3 -50 -1 -7 -4 -239 -3 -250 1 -16 6 -61 4 -67 -2z m313 -54 c4 -4
4 -474 -1 -478 -3 -4 -264 -6 -266 -2 -3 4 -1 478 1 480 5 5 261 5 266 0z
m296 0 c5 -4 4 -973 0 -978 -4 -4 -228 -5 -233 -1 -3 3 -3 976 0 980 3 3 7 3
120 2 92 0 111 -1 113 -3z m-297 -541 c3 -3 3 -28 4 -217 0 -228 0 -220 -5
-222 -6 -3 -261 -1 -264 2 -2 2 -4 434 -2 438 3 4 263 2 267 -1z"/>
</g>
</svg>
