<?xml version="1.0" standalone="no"?>
<!DOCTYPE svg PUBLIC "-//W3C//DTD SVG 20010904//EN"
 "http://www.w3.org/TR/2001/REC-SVG-20010904/DTD/svg10.dtd">
<svg version="1.0" xmlns="http://www.w3.org/2000/svg"
 width="94.000000pt" height="148.000000pt" viewBox="0 0 94.000000 148.000000"
 preserveAspectRatio="xMidYMid meet">
<metadata>
Created by potrace 1.16, written by Peter Selinger 2001-2019
</metadata>
<g transform="translate(0.000000,148.000000) scale(0.100000,-0.100000)"
fill="#000000" stroke="none">
<path d="M50 739 c0 -536 3 -679 13 -679 302 -3 803 2 809 8 4 4 7 309 6 678
l-3 669 -412 2 -413 2 0 -680z m398 308 l2 -307 -172 0 -173 0 0 302 c0 167 3
305 7 308 3 3 80 5 170 5 l163 -1 3 -307z m365 -311 l2 -615 -143 -3 c-78 -2
-146 -2 -150 -1 -5 2 -8 1238 -3 1238 1 0 67 -1 147 -2 l146 -1 1 -616z m-365
-339 l2 -277 -171 2 -171 3 0 270 c0 149 1 273 1 276 1 3 76 5 169 5 l167 -1
3 -278z"/>
</g>
</svg>
