<?xml version="1.0" standalone="no"?>
<!DOCTYPE svg PUBLIC "-//W3C//DTD SVG 20010904//EN"
 "http://www.w3.org/TR/2001/REC-SVG-20010904/DTD/svg10.dtd">
<svg version="1.0" xmlns="http://www.w3.org/2000/svg"
 width="378.000000pt" height="590.000000pt" viewBox="0 0 378.000000 590.000000"
 preserveAspectRatio="xMidYMid meet">
<metadata>
Created by potrace 1.16, written by Peter Selinger 2001-2019
</metadata>
<g transform="translate(0.000000,590.000000) scale(0.500000,-0.500000)"
fill="#000000" stroke="none">
<path d="M51 1137 c-11 -2 -10 31 -10 -544 0 -513 0 -537 4 -540 3 -4 628 -7
649 -4 14 2 13 -48 12 543 0 557 1 540 -9 544 -4 1 -637 2 -646 1z m308 -67
c3 -3 3 -7 2 -72 -2 -105 -3 -606 -1 -754 2 -131 2 -131 -2 -134 -6 -5 -257
-6 -263 -1 -4 3 -6 957 -2 961 5 5 260 5 266 0z m212 2 c65 0 79 -1 81 -3 4
-4 4 -446 0 -449 -2 -3 3 -3 -142 -2 -94 0 -100 0 -104 4 -4 4 -8 442 -4 447
4 4 10 5 51 4 22 -1 75 -1 118 -1z m80 -497 c5 -3 6 -458 2 -465 -4 -4 -242
-6 -248 -1 -5 4 -5 454 0 462 3 5 3 5 90 6 47 0 101 0 119 1 26 0 34 -1 37 -3z"/>
</g>
</svg>
