<?xml version="1.0" standalone="no"?>
<!DOCTYPE svg PUBLIC "-//W3C//DTD SVG 20010904//EN"
 "http://www.w3.org/TR/2001/REC-SVG-20010904/DTD/svg10.dtd">
<svg version="1.0" xmlns="http://www.w3.org/2000/svg"
 width="110.000000pt" height="148.000000pt" viewBox="0 0 110.000000 148.000000"
 preserveAspectRatio="xMidYMid meet">
<metadata>
Created by potrace 1.16, written by Peter Selinger 2001-2019
</metadata>
<g transform="translate(0.000000,148.000000) scale(0.100000,-0.100000)"
fill="#000000" stroke="none">
<path d="M50 740 c0 -537 3 -680 13 -680 6 0 228 -1 492 -2 l480 -3 3 683 2
682 -495 0 -495 0 0 -680z m283 325 l1 -290 -114 0 -115 0 -3 293 -2 293 116
-3 117 -3 0 -290z m658 -330 l-1 -620 -295 -3 -295 -2 0 625 0 625 295 -2 296
-3 0 -620z m-659 -340 l-1 -280 -116 -3 -115 -3 0 286 0 286 117 -3 117 -3 -2
-280z"/>
<path d="M542 1122 c-16 -16 -20 -40 -26 -158 -9 -187 8 -467 34 -563 38 -136
71 -181 135 -181 30 0 47 6 62 23 35 38 66 109 78 182 13 79 15 682 2 703 -5
6 -22 12 -38 12 -16 0 -32 -6 -34 -12 -3 -7 -6 -155 -8 -328 -2 -307 -3 -316
-26 -362 -20 -41 -28 -48 -52 -48 -20 0 -34 8 -46 27 -16 24 -19 64 -23 372
-5 314 -7 346 -22 349 -9 2 -25 -5 -36 -16z"/>
</g>
</svg>
