<?xml version="1.0" standalone="no"?>
<!DOCTYPE svg PUBLIC "-//W3C//DTD SVG 20010904//EN"
 "http://www.w3.org/TR/2001/REC-SVG-20010904/DTD/svg10.dtd">
<svg version="1.0" xmlns="http://www.w3.org/2000/svg"
 width="74.000000pt" height="100.000000pt" viewBox="0 0 74.000000 100.000000"
 preserveAspectRatio="xMidYMid meet">
<metadata>
Created by potrace 1.16, written by Peter Selinger 2001-2019
</metadata>
<g transform="translate(0.000000,100.000000) scale(0.100000,-0.100000)"
fill="#000000" stroke="none">
<path d="M43 963 c-10 -4 -13 -106 -13 -464 l0 -459 27 -6 c15 -4 164 -4 332
-1 232 5 306 9 313 19 4 7 8 212 8 455 0 427 -1 443 -19 453 -20 10 -623 14
-648 3z m175 -239 l2 -191 -43 -6 c-48 -7 -88 0 -99 17 -9 14 -10 153 -2 274
8 102 7 101 94 98 l45 -1 3 -191z m441 182 c12 -8 13 -71 8 -407 -3 -220 -9
-403 -12 -409 -4 -6 -77 -10 -189 -10 l-183 0 -7 37 c-8 50 -8 383 1 611 5
153 9 182 22 186 28 8 345 1 360 -8z m-441 -633 l-3 -188 -65 0 -65 0 -6 60
c-9 80 -11 279 -3 299 5 12 21 16 75 16 l69 0 -2 -187z"/>
<path d="M355 760 c-14 -22 -5 -415 10 -474 28 -106 54 -139 107 -134 27 2 37
11 58 48 25 44 25 49 28 308 l3 262 -25 0 c-34 0 -35 -5 -39 -255 -2 -116 -7
-218 -11 -227 -11 -25 -37 -31 -55 -13 -13 13 -17 55 -21 253 -5 233 -5 237
-27 240 -11 2 -24 -2 -28 -8z"/>
</g>
</svg>
