<?xml version="1.0" standalone="no"?>
<!DOCTYPE svg PUBLIC "-//W3C//DTD SVG 20010904//EN"
 "http://www.w3.org/TR/2001/REC-SVG-20010904/DTD/svg10.dtd">
<svg version="1.0" xmlns="http://www.w3.org/2000/svg"
 width="156.000000pt" height="148.000000pt" viewBox="0 0 156.000000 148.000000"
 preserveAspectRatio="xMidYMid meet">
<metadata>
Created by potrace 1.16, written by Peter Selinger 2001-2019
</metadata>
<g transform="translate(0.000000,148.000000) scale(0.100000,-0.100000)"
fill="#000000" stroke="none">
<path d="M62 1408 c-18 -18 -17 -1306 2 -1330 12 -17 59 -18 721 -18 l708 0
-5 668 c-2 368 -8 674 -12 680 -11 17 -1397 17 -1414 0z m1342 -135 c6 -75 11
-465 7 -514 -1 -14 -37 -17 -303 -22 -277 -6 -304 -5 -315 10 -18 24 -19 583
-1 601 9 9 91 12 309 12 l297 0 6 -87z m-710 66 c7 -7 10 -598 3 -605 -2 -2
-133 -7 -290 -11 l-285 -6 -9 34 c-6 19 -6 108 -2 204 4 97 3 210 -3 264 -5
51 -7 99 -4 107 4 10 33 14 108 16 181 5 476 3 482 -3z m19 -719 c-6 -98 -5
-401 2 -438 6 -38 5 -42 -17 -47 -13 -3 -147 -4 -298 -3 l-275 3 0 65 c0 36
-3 148 -5 250 l-5 185 35 5 c19 3 136 7 260 9 124 1 227 5 230 7 2 3 20 4 40
2 33 -3 35 -5 33 -38z m681 34 c14 -5 16 -38 16 -259 l0 -252 -61 -7 c-79 -8
-497 -8 -537 0 l-30 6 -4 242 c-2 132 0 249 5 259 7 16 31 17 302 17 161 0
300 -3 309 -6z"/>
<path d="M1057 1159 c-15 -9 -17 -24 -13 -138 2 -71 6 -134 10 -140 9 -15 49
-14 64 1 8 8 12 54 12 140 l0 128 -26 10 c-30 12 -25 12 -47 -1z"/>
<path d="M350 1006 c0 -144 6 -161 52 -154 22 3 23 7 29 133 4 80 2 135 -4
143 -5 6 -25 12 -43 12 l-34 0 0 -134z"/>
<path d="M373 533 c-33 -6 -49 -31 -35 -53 13 -21 14 -149 1 -165 -16 -20 7
-36 47 -33 l39 3 3 128 c3 138 6 132 -55 120z"/>
<path d="M1043 528 c-14 -17 -16 -224 -2 -250 7 -13 19 -18 37 -16 l27 3 0
135 0 135 -26 3 c-14 2 -30 -3 -36 -10z"/>
</g>
</svg>
