<?xml version="1.0" standalone="no"?>
<!DOCTYPE svg PUBLIC "-//W3C//DTD SVG 20010904//EN"
 "http://www.w3.org/TR/2001/REC-SVG-20010904/DTD/svg10.dtd">
<svg version="1.0" xmlns="http://www.w3.org/2000/svg"
 width="626.000000pt" height="590.000000pt" viewBox="0 0 626.000000 590.000000"
 preserveAspectRatio="xMidYMid meet">
<metadata>
Created by potrace 1.16, written by Peter Selinger 2001-2019
</metadata>
<g transform="translate(0.000000,590.000000) scale(0.500000,-0.500000)"
fill="#000000" stroke="none">
<path d="M72 1136 c-36 -10 -32 52 -32 -541 0 -535 0 -518 10 -528 4 -4 9 -9
11 -12 4 -6 148 -7 536 -5 64 0 139 0 167 0 334 1 430 3 433 7 6 7 5 779 0
875 -2 30 -4 86 -4 124 -2 69 -2 69 -8 75 l-6 7 -551 0 c-303 0 -553 -1 -556
-2z m1051 -50 c2 -2 3 -10 3 -35 1 -27 2 -33 5 -39 4 -7 4 -11 4 -119 0 -102
1 -113 4 -119 6 -11 6 -26 1 -42 -5 -14 -5 -14 -1 -25 3 -10 3 -11 0 -20 -2
-8 -3 -18 -3 -46 0 -51 13 -45 -97 -45 -80 0 -94 0 -101 -3 -7 -3 -8 -3 -15 0
-12 5 -104 4 -115 -1 -7 -4 -143 -7 -153 -3 -2 0 -8 7 -13 15 l-9 13 0 227 c0
254 -1 231 14 241 8 5 470 6 476 1z m-623 -9 c7 -3 25 -4 33 -1 5 2 26 -2 30
-6 2 -2 4 -285 3 -465 0 -19 -2 -20 -40 -18 -25 1 -33 0 -41 -2 -9 -3 -12 -3
-20 0 -13 4 -25 4 -34 0 -9 -4 -25 -3 -40 1 -8 3 -10 3 -19 0 -8 -3 -24 -4
-139 -4 -148 -1 -137 -2 -137 18 0 5 -2 15 -4 20 -6 16 -4 225 2 239 6 13 6
58 0 71 -6 13 -9 128 -3 137 3 5 3 5 84 6 45 0 85 1 88 1 3 0 25 -1 47 -1 35
-1 43 -1 49 2 9 4 15 4 24 0 9 -4 17 -4 28 0 8 3 13 3 29 1 17 -2 20 -1 30 2
12 4 21 4 30 -1z m620 -556 c5 -4 11 -8 13 -10 4 -4 5 -386 0 -392 -5 -7 -432
-14 -460 -8 -7 2 -17 3 -23 3 -18 0 -17 -15 -17 173 0 166 0 166 -4 177 -8 18
1 55 15 61 1 1 99 2 216 2 116 0 213 1 214 2 5 5 38 0 46 -8z m-550 1 c7 -5 7
-83 0 -99 -5 -11 -5 -19 1 -33 4 -10 3 -26 -2 -36 -4 -8 -4 -21 0 -29 5 -9 6
-40 2 -51 -6 -14 -6 -25 -1 -36 5 -12 7 -115 2 -121 -8 -9 -6 -9 -240 -9 -247
0 -224 -2 -227 16 -1 5 -3 12 -4 15 -3 6 -2 8 1 18 5 15 5 58 0 68 -6 11 -8
277 -2 283 5 5 47 8 89 6 3 0 15 0 25 2 12 1 71 2 150 3 103 1 133 2 142 4 18
4 58 4 64 -1z"/>
<path d="M854 930 c-16 -7 -16 -9 -14 -113 1 -115 2 -117 40 -117 31 0 29 -8
30 111 0 102 0 102 -4 108 -11 13 -37 19 -52 11z"/>
<path d="M291 912 c-11 -9 -11 -8 -11 -110 0 -117 1 -119 41 -119 30 1 29 -3
29 90 0 68 0 74 4 83 15 40 -31 81 -63 56z"/>
<path d="M854 434 c-19 -5 -28 -35 -21 -67 3 -13 3 -16 1 -24 -7 -19 -4 -102
3 -116 10 -19 44 -24 54 -8 2 5 4 150 2 185 -2 29 -12 37 -39 30z"/>
<path d="M317 430 c-4 -2 -11 -4 -16 -4 -24 0 -35 -22 -25 -48 5 -12 6 -52 1
-65 -2 -7 -2 -9 0 -16 4 -10 4 -36 0 -43 -11 -19 -1 -26 33 -26 43 0 40 -8 40
106 -1 107 -2 110 -33 96z"/>
</g>
</svg>
