<?xml version="1.0" standalone="no"?>
<!DOCTYPE svg PUBLIC "-//W3C//DTD SVG 20010904//EN"
 "http://www.w3.org/TR/2001/REC-SVG-20010904/DTD/svg10.dtd">
<svg version="1.0" xmlns="http://www.w3.org/2000/svg"
 width="100.000000pt" height="82.000000pt" viewBox="0 0 100.000000 82.000000"
 preserveAspectRatio="xMidYMid meet">
<metadata>
Created by potrace 1.16, written by Peter Selinger 2001-2019
</metadata>
<g transform="translate(0.000000,82.000000) scale(0.100000,-0.100000)"
fill="#000000" stroke="none">
<path d="M365 781 l-70 -6 3 -126 c2 -70 0 -129 -5 -132 -4 -3 -49 19 -98 49
l-90 55 -5 67 -5 67 -33 3 -32 3 2 -338 3 -338 30 0 30 0 -4 233 c-2 137 0
232 5 232 5 0 40 -19 76 -42 37 -24 81 -51 98 -60 l30 -17 0 -196 0 -195 328
2 327 3 3 359 c1 198 -1 363 -5 367 -11 11 -497 19 -588 10z m177 -61 l46 0 7
-95 c4 -52 4 -115 1 -140 l-7 -46 -122 3 -122 3 -3 75 c-2 41 0 103 3 137 l6
62 52 4 c29 2 61 2 72 0 11 -1 41 -3 67 -3z m356 -137 l3 -143 -121 0 -120 0
0 145 0 146 118 -3 117 -3 3 -142z m-304 -249 c10 -48 -4 -227 -18 -236 -14
-9 -84 -10 -163 -2 l-60 7 -6 72 c-3 40 -3 100 0 134 l6 61 117 0 118 0 6 -36z
m309 -98 c-2 -71 -5 -132 -9 -135 -9 -9 -160 -14 -199 -7 l-35 7 0 135 0 135
123 -3 122 -3 -2 -129z"/>
<path d="M441 656 c-7 -9 -11 -41 -9 -82 3 -58 6 -69 22 -72 26 -5 36 15 36
76 0 77 -22 111 -49 78z"/>
<path d="M742 588 c3 -75 5 -83 23 -83 18 0 20 7 20 80 0 76 -1 80 -23 83 -22
3 -23 2 -20 -80z"/>
<path d="M447 304 c-4 -4 -7 -38 -7 -76 0 -53 4 -70 16 -75 27 -10 39 15 39
85 0 60 -2 67 -20 70 -12 2 -24 0 -28 -4z"/>
<path d="M744 297 c-3 -8 -4 -43 -2 -78 3 -57 5 -64 25 -67 27 -4 35 21 31 99
-3 47 -6 54 -26 57 -12 2 -24 -3 -28 -11z"/>
</g>
</svg>
