<?xml version="1.0" standalone="no"?>
<!DOCTYPE svg PUBLIC "-//W3C//DTD SVG 20010904//EN"
 "http://www.w3.org/TR/2001/REC-SVG-20010904/DTD/svg10.dtd">
<svg version="1.0" xmlns="http://www.w3.org/2000/svg"
 width="732.000000pt" height="602.000000pt" viewBox="0 0 732.000000 602.000000"
 preserveAspectRatio="xMidYMid meet">
<metadata>
Created by potrace 1.16, written by Peter Selinger 2001-2019
</metadata>
<g transform="translate(0.000000,602.000000) scale(0.500000,-0.500000)"
fill="#000000" stroke="none">
<path d="M446 1151 l-7 -4 -1 -109 c0 -60 1 -148 2 -195 2 -113 5 -109 -52
-71 -9 6 -25 16 -34 21 -9 5 -20 12 -24 15 -4 3 -15 10 -25 16 -10 6 -22 13
-27 17 -5 3 -18 11 -29 18 -11 6 -27 15 -34 20 -8 5 -19 12 -26 15 -16 8 -42
27 -45 33 -2 3 -2 23 -1 76 3 128 9 115 -48 115 -49 0 -46 2 -46 -36 2 -67 1
-803 0 -871 -2 -96 -6 -87 44 -87 53 0 48 -33 43 295 -1 59 -2 119 -2 133 0
14 0 76 0 139 0 146 -4 140 55 99 8 -5 23 -15 35 -22 12 -7 26 -16 31 -20 6
-4 21 -14 34 -21 13 -7 27 -16 31 -19 4 -3 18 -11 31 -19 13 -7 28 -16 33 -20
14 -10 25 -15 37 -16 21 -3 20 1 19 -67 0 -32 -1 -59 -1 -60 -4 -6 -1 -459 3
-463 4 -3 7 -4 196 -3 106 1 320 1 474 0 281 -1 281 -1 286 4 6 6 6 1078 0
1084 -3 3 -19 4 -453 4 -248 -1 -459 0 -471 1 -18 1 -22 1 -28 -2z m877 -80
c3 -3 3 -25 3 -135 0 -114 0 -133 3 -144 2 -8 3 -16 2 -22 0 -5 -1 -14 -2 -20
-1 -8 -1 -15 1 -21 2 -6 2 -10 0 -17 -1 -5 -3 -20 -3 -33 0 -40 20 -36 -182
-37 -191 -2 -177 -3 -181 13 -5 17 -4 412 1 417 6 6 354 5 358 -1z m-452 -6
c4 -3 4 -15 5 -196 0 -105 0 -198 1 -206 0 -24 21 -22 -187 -21 -210 0 -187
-3 -187 28 0 239 4 388 11 395 2 1 47 2 153 3 207 2 200 2 204 -3z m-2 -513
c9 -4 9 -6 7 -101 -1 -50 -2 -138 -1 -197 1 -108 1 -108 -4 -113 -6 -6 -305
-6 -329 0 -6 2 -15 3 -20 4 -17 2 -16 -16 -16 203 -1 237 -28 203 159 204 83
1 163 1 175 2 14 0 26 -1 29 -2z m320 0 c166 0 144 15 143 -94 0 -48 0 -138
-1 -201 0 -105 0 -114 -3 -116 -5 -3 -350 -6 -356 -3 -11 6 -10 -2 -11 211 0
236 -8 206 52 204 23 0 102 -1 176 -1z"/>
<path d="M1097 978 c-4 -1 -8 -4 -9 -6 -3 -5 -2 -207 0 -212 6 -11 45 -15 54
-5 7 8 8 212 1 219 -6 5 -34 8 -46 4z"/>
<path d="M650 968 c-7 -7 -10 -209 -3 -222 7 -13 50 -14 58 -1 2 4 4 194 2
211 -3 19 -42 27 -57 12z"/>
<path d="M661 451 c-4 -4 -4 -5 -5 -67 -3 -161 -5 -151 31 -151 29 0 31 2 31
30 0 11 1 23 3 29 3 9 3 16 2 33 -1 25 -1 24 0 73 2 58 2 58 -33 58 -23 0 -25
0 -29 -5z"/>
<path d="M1102 452 c-9 -9 -9 -207 0 -214 8 -7 52 -6 58 1 6 9 6 203 0 212 -6
7 -51 8 -58 1z"/>
</g>
</svg>
