<?xml version="1.0" standalone="no"?>
<!DOCTYPE svg PUBLIC "-//W3C//DTD SVG 20010904//EN"
 "http://www.w3.org/TR/2001/REC-SVG-20010904/DTD/svg10.dtd">
<svg version="1.0" xmlns="http://www.w3.org/2000/svg"
 width="184.000000pt" height="150.000000pt" viewBox="0 0 184.000000 150.000000"
 preserveAspectRatio="xMidYMid meet">
<metadata>
Created by potrace 1.16, written by Peter Selinger 2001-2019
</metadata>
<g transform="translate(0.000000,150.000000) scale(0.100000,-0.100000)"
fill="#000000" stroke="none">
<path d="M551 1180 c1 -138 -1 -253 -4 -256 -3 -4 -70 34 -149 83 -79 49 -163
100 -187 114 l-43 24 3 120 4 120 -48 3 c-27 2 -54 -1 -60 -7 -9 -7 -11 -163
-9 -621 l2 -611 53 3 52 3 -2 433 c-1 258 2 432 8 432 8 0 87 -49 209 -130 57
-38 139 -80 154 -80 14 0 16 -35 16 -370 l0 -370 603 2 602 3 2 678 2 677
-605 0 -605 0 2 -250z m1113 -108 c2 -196 0 -265 -9 -272 -8 -7 -95 -9 -231
-8 l-219 3 -3 273 -2 272 231 -2 231 -3 2 -263z m-564 -12 l0 -270 -237 2
-236 3 2 260 c1 142 5 263 7 267 3 4 108 8 235 8 l229 0 0 -270z m-2 -633 l-3
-262 -223 2 c-123 2 -228 5 -233 8 -10 7 -13 498 -3 507 3 3 109 6 235 6 l229
1 -2 -262z m574 249 c2 -6 1 -123 -2 -260 l-5 -249 -223 -1 c-123 -1 -228 1
-232 4 -7 4 -14 371 -10 507 0 16 468 15 472 -1z"/>
<path d="M1365 1208 c-3 -8 -4 -72 -3 -144 l3 -129 35 0 35 0 0 140 0 140 -33
3 c-20 2 -34 -2 -37 -10z"/>
<path d="M812 1063 l3 -148 24 -3 c41 -6 46 15 43 161 l-3 137 -35 0 -35 0 3
-147z"/>
<path d="M833 563 c-10 -3 -13 -41 -13 -139 l0 -134 39 0 40 0 3 128 c2 70 -1
133 -6 140 -8 12 -40 15 -63 5z"/>
<path d="M1375 548 c-3 -13 -4 -75 -3 -138 l3 -115 43 -3 43 -3 -3 138 -3 138
-37 3 c-32 3 -38 0 -43 -20z"/>
</g>
</svg>
