<?xml version="1.0" standalone="no"?>
<!DOCTYPE svg PUBLIC "-//W3C//DTD SVG 20010904//EN"
 "http://www.w3.org/TR/2001/REC-SVG-20010904/DTD/svg10.dtd">
<svg version="1.0" xmlns="http://www.w3.org/2000/svg"
 width="100.000000pt" height="100.000000pt" viewBox="0 0 100.000000 100.000000"
 preserveAspectRatio="xMidYMid meet">
<metadata>
Created by potrace 1.16, written by Peter Selinger 2001-2019
</metadata>
<g transform="translate(0.000000,100.000000) scale(0.100000,-0.100000)"
fill="#000000" stroke="none">
<path d="M115 961 l-80 -6 -2 -445 c-2 -245 1 -450 5 -457 12 -19 286 -27 625
-18 l297 7 0 454 c0 249 -4 455 -8 458 -14 8 -747 15 -837 7z m225 -201 l0
-150 -130 0 -130 0 0 143 c0 79 3 147 7 150 3 4 62 7 130 7 l123 0 0 -150z
m564 113 c8 -49 8 -697 0 -746 l-7 -37 -406 2 -406 3 -3 228 -2 227 149 0
c132 0 150 2 157 18 4 9 9 82 10 162 1 80 2 153 3 163 1 16 20 17 250 17 l248
0 7 -37z"/>
<path d="M494 826 c-3 -8 1 -39 10 -70 22 -73 21 -84 -14 -158 -35 -73 -36
-94 -14 -203 l17 -80 -37 -68 c-37 -71 -38 -87 -6 -87 14 0 29 21 56 76 l38
76 -17 81 c-22 108 -22 115 13 189 35 73 36 90 14 187 -13 58 -20 71 -35 71
-11 0 -22 -7 -25 -14z"/>
<path d="M610 823 c0 -9 9 -49 20 -89 l20 -72 -36 -71 c-40 -78 -41 -99 -13
-224 13 -58 13 -59 -19 -120 -38 -73 -40 -90 -9 -85 15 2 32 21 54 63 36 67
39 96 18 175 -21 77 -19 103 11 163 15 28 30 64 35 79 7 27 -10 128 -31 176
-11 26 -50 30 -50 5z"/>
<path d="M740 821 c0 -11 8 -46 18 -78 l19 -59 -39 -85 -39 -84 22 -94 23 -95
-37 -70 c-43 -82 -46 -99 -14 -94 16 2 32 22 60 73 41 77 42 88 11 212 l-15
62 37 76 37 75 -12 71 c-6 39 -16 80 -22 90 -13 25 -49 25 -49 0z"/>
</g>
</svg>
