<?xml version="1.0" standalone="no"?>
<!DOCTYPE svg PUBLIC "-//W3C//DTD SVG 20010904//EN"
 "http://www.w3.org/TR/2001/REC-SVG-20010904/DTD/svg10.dtd">
<svg version="1.0" xmlns="http://www.w3.org/2000/svg"
 width="148.000000pt" height="148.000000pt" viewBox="0 0 148.000000 148.000000"
 preserveAspectRatio="xMidYMid meet">
<metadata>
Created by potrace 1.16, written by Peter Selinger 2001-2019
</metadata>
<g transform="translate(0.000000,148.000000) scale(0.100000,-0.100000)"
fill="#000000" stroke="none">
<path d="M57 1413 c-10 -9 -8 -1325 1 -1340 6 -10 157 -13 667 -13 363 0 666
0 673 0 9 0 12 143 12 680 l0 680 -673 0 c-371 0 -677 -3 -680 -7z m459 -102
c-3 -20 -6 -123 -6 -229 l0 -192 -197 2 -197 3 -1 227 0 228 190 2 c105 2 196
1 204 -1 9 -3 11 -14 7 -40z m470 39 l364 0 0 -615 0 -615 -616 2 -616 3 -1
350 -1 350 185 -4 c101 -2 203 0 227 4 l42 7 0 258 c0 265 2 276 38 264 8 -2
178 -4 378 -4z"/>
<path d="M730 1231 c0 -19 41 -176 51 -193 5 -10 9 -25 9 -33 0 -18 -34 -92
-72 -158 -23 -39 -28 -60 -28 -114 0 -37 4 -80 9 -97 48 -159 48 -168 -17
-279 -53 -90 -60 -111 -42 -122 23 -14 58 27 108 123 l52 101 -35 146 -35 145
42 78 c22 42 45 82 49 87 22 29 18 112 -9 215 -26 99 -29 105 -55 108 -15 2
-27 -1 -27 -7z"/>
<path d="M910 1221 c0 -11 12 -62 26 -113 14 -51 28 -103 31 -115 4 -19 -15
-60 -99 -211 -18 -33 -18 -34 17 -178 40 -163 44 -135 -34 -277 -34 -62 -39
-78 -27 -83 33 -12 50 5 101 102 l54 101 -35 139 c-18 76 -34 144 -34 149 0 6
25 55 55 110 55 100 65 139 46 187 -5 13 -15 50 -21 83 -22 110 -29 125 -56
125 -17 0 -24 -6 -24 -19z"/>
<path d="M1100 1230 c0 -24 42 -185 51 -196 5 -6 7 -20 3 -30 -7 -23 -104
-215 -115 -230 -5 -6 0 -34 10 -65 10 -30 28 -93 39 -141 l21 -87 -41 -78
c-23 -43 -49 -90 -60 -105 -26 -38 -23 -58 10 -58 24 0 33 11 85 107 31 59 57
119 57 135 0 15 -14 84 -32 153 -35 140 -38 115 33 246 50 92 53 111 33 194
-39 160 -39 160 -67 163 -16 2 -27 -2 -27 -8z"/>
</g>
</svg>
