<?xml version="1.0" standalone="no"?>
<!DOCTYPE svg PUBLIC "-//W3C//DTD SVG 20010904//EN"
 "http://www.w3.org/TR/2001/REC-SVG-20010904/DTD/svg10.dtd">
<svg version="1.0" xmlns="http://www.w3.org/2000/svg"
 width="590.000000pt" height="590.000000pt" viewBox="0 0 590.000000 590.000000"
 preserveAspectRatio="xMidYMid meet">
<metadata>
Created by potrace 1.16, written by Peter Selinger 2001-2019
</metadata>
<g transform="translate(0.000000,590.000000) scale(0.500000,-0.500000)"
fill="#000000" stroke="none">
<path d="M60 1137 c-22 -8 -20 54 -20 -542 l0 -520 9 -12 c11 -15 1062 -25
1076 -10 6 5 6 1075 0 1080 -3 4 -1055 7 -1065 4z m350 -59 c3 -2 3 -348 0
-355 -3 -8 -7 -9 -159 -9 -149 -1 -154 0 -155 6 -2 9 0 354 2 357 4 5 307 6
312 1z m665 0 c6 -4 5 -965 -2 -971 -6 -6 -968 -7 -974 -1 -5 5 -5 548 0 551
2 2 40 2 163 1 175 -1 180 0 192 11 9 8 9 10 8 214 -1 194 -1 194 4 196 5 3
603 2 609 -1z"/>
<path d="M594 990 c-9 -5 -9 -13 4 -59 2 -8 4 -18 5 -22 1 -4 3 -12 4 -18 2
-5 6 -22 9 -36 5 -18 8 -28 12 -33 12 -16 2 -44 -50 -138 -31 -55 -29 -48 -29
-91 0 -33 1 -40 4 -53 3 -8 6 -21 8 -29 2 -8 5 -21 7 -30 2 -9 6 -24 9 -34 20
-74 23 -59 -30 -156 -53 -96 -53 -98 -17 -97 21 1 23 3 45 46 10 18 28 53 41
77 15 29 23 46 23 50 -1 12 -5 44 -7 50 -1 3 -3 11 -5 18 -3 15 -8 36 -13 55
-2 8 -8 32 -13 53 -5 21 -10 42 -11 48 -3 10 9 36 53 115 25 45 26 47 24 57
-1 7 0 11 4 21 6 15 6 19 -1 42 -3 11 -7 28 -10 38 -4 22 -9 40 -13 56 -2 9
-10 42 -14 60 -2 10 -28 16 -39 10z"/>
<path d="M734 990 c-6 -3 -9 -11 -6 -19 1 -3 3 -12 5 -20 1 -8 5 -25 9 -39 3
-14 10 -39 14 -57 5 -18 10 -36 13 -41 4 -6 5 -11 5 -21 0 -17 -3 -23 -38 -90
-60 -111 -57 -106 -51 -116 2 -2 4 -11 5 -19 1 -8 3 -20 5 -27 1 -7 4 -18 6
-26 2 -8 5 -21 7 -30 2 -9 5 -21 7 -28 2 -7 4 -16 6 -22 3 -10 8 -29 11 -46 5
-22 2 -28 -43 -110 -44 -79 -45 -84 -14 -84 23 0 20 -3 61 72 49 93 49 93 41
122 -1 6 -3 14 -4 18 -1 4 -3 13 -4 18 -2 6 -5 20 -8 32 -3 12 -7 29 -9 38
-26 102 -25 93 -5 133 23 43 51 94 55 100 19 26 22 52 11 85 -3 12 -9 32 -12
45 -3 13 -6 28 -8 34 -2 6 -5 21 -8 33 -5 22 -8 36 -13 53 -3 12 -22 18 -38
12z"/>
<path d="M886 988 c-6 -5 -8 -12 -4 -21 1 -3 3 -12 5 -19 3 -13 15 -63 20 -81
1 -5 3 -14 4 -19 1 -4 3 -11 6 -14 14 -17 10 -33 -27 -103 -11 -20 -25 -47
-32 -60 -7 -13 -16 -31 -21 -39 -11 -18 -11 -20 -2 -46 8 -24 16 -54 23 -83 2
-11 6 -25 8 -32 1 -7 4 -20 6 -29 3 -9 6 -22 7 -29 7 -29 6 -31 -54 -141 -37
-67 -38 -71 -24 -76 20 -6 37 0 46 17 3 7 12 23 19 36 17 29 48 89 59 110 8
15 8 15 5 28 -1 7 -2 15 -2 19 0 7 -5 28 -12 52 -2 7 -4 16 -4 19 0 2 -2 9 -4
15 -2 6 -4 13 -4 16 0 3 -2 10 -4 17 -2 7 -6 19 -8 28 -2 9 -5 22 -7 29 -7 26
-6 30 16 72 56 101 57 103 61 119 2 9 4 20 5 25 1 9 1 11 -9 48 -3 13 -9 37
-12 52 -22 96 -20 92 -41 94 -12 0 -15 0 -19 -4z"/>
</g>
</svg>
