<?xml version="1.0" standalone="no"?>
<!DOCTYPE svg PUBLIC "-//W3C//DTD SVG 20010904//EN"
 "http://www.w3.org/TR/2001/REC-SVG-20010904/DTD/svg10.dtd">
<svg version="1.0" xmlns="http://www.w3.org/2000/svg"
 width="218.000000pt" height="148.000000pt" viewBox="0 0 218.000000 148.000000"
 preserveAspectRatio="xMidYMid meet">
<metadata>
Created by potrace 1.16, written by Peter Selinger 2001-2019
</metadata>
<g transform="translate(0.000000,148.000000) scale(0.100000,-0.100000)"
fill="#000000" stroke="none">
<path d="M30 1435 c-6 -7 -9 -290 -7 -706 l2 -694 513 0 513 0 -1 699 c0 385
-3 702 -6 705 -12 12 -1005 7 -1014 -4z m282 -124 l3 -86 30 0 30 0 3 85 3 85
172 -1 172 -1 0 -81 c0 -87 9 -106 46 -100 23 3 24 6 25 93 l0 90 100 0 99 -1
3 -657 2 -658 -101 3 -101 3 -2 85 c-1 82 -2 85 -25 88 -40 6 -50 -19 -44
-104 l6 -74 -187 0 -187 0 2 88 2 87 -36 3 -37 3 0 -90 0 -91 -107 0 -108 0 2
657 c2 362 3 658 3 658 0 0 52 1 115 1 l114 1 3 -86z"/>
<path d="M1115 1426 c-3 -12 -4 -329 -3 -706 l3 -685 510 0 510 0 0 705 0 705
-508 1 c-506 1 -507 1 -512 -20z m276 -108 c-2 -70 -1 -77 19 -88 16 -8 29 -9
44 -2 20 9 21 15 15 83 -3 41 -5 76 -3 79 1 3 80 5 175 5 l173 -1 -3 -80 c-3
-88 7 -108 51 -102 22 3 23 7 23 93 l0 90 102 0 103 0 0 -657 0 -658 -106 0
-106 0 4 88 c3 84 2 87 -20 90 -43 6 -53 -14 -51 -97 l2 -76 -179 -3 -180 -2
4 90 4 90 -35 0 c-20 0 -39 -5 -43 -11 -4 -6 -6 -47 -5 -90 l2 -79 -110 0
-111 0 0 658 0 657 117 0 118 0 -4 -77z"/>
</g>
</svg>
