<?xml version="1.0" standalone="no"?>
<!DOCTYPE svg PUBLIC "-//W3C//DTD SVG 20010904//EN"
 "http://www.w3.org/TR/2001/REC-SVG-20010904/DTD/svg10.dtd">
<svg version="1.0" xmlns="http://www.w3.org/2000/svg"
 width="912.000000pt" height="618.000000pt" viewBox="0 0 912.000000 618.000000"
 preserveAspectRatio="xMidYMid meet">
<metadata>
Created by potrace 1.16, written by Peter Selinger 2001-2019
</metadata>
<g transform="translate(0.000000,618.000000) scale(0.500000,-0.500000)"
fill="#000000" stroke="none">
<path d="M36 1211 c-4 -1 -9 -3 -10 -4 -5 -6 -4 -1170 1 -1174 5 -6 845 -6
850 0 9 8 9 1166 0 1174 -3 4 -811 7 -841 4z m220 -44 c2 -3 3 -15 2 -62 -1
-80 0 -81 35 -81 32 0 30 -5 28 73 -1 48 -1 65 1 69 3 5 279 7 283 2 4 -5 5
-13 3 -68 -3 -79 -1 -82 33 -82 33 0 31 -5 30 77 -1 49 -1 67 1 71 2 4 157 7
164 2 4 -2 4 -1090 0 -1095 -4 -5 -158 -4 -163 0 -3 4 -3 9 -2 68 2 80 3 75
-30 75 -34 0 -35 -4 -33 -77 1 -52 0 -64 -4 -67 -6 -4 -289 -2 -293 1 -3 4 -4
9 -2 71 1 83 3 78 -28 78 -36 0 -37 -1 -35 -84 0 -56 0 -61 -3 -65 -4 -4 -171
-5 -175 0 -3 3 -4 1090 -1 1095 2 4 186 3 189 -1z"/>
<path d="M946 1211 c-3 -1 -7 -3 -8 -4 -5 -6 -4 -1170 1 -1174 5 -6 845 -6
850 0 9 9 9 1165 0 1174 -3 4 -822 7 -843 4z m222 -44 c3 -4 3 -12 2 -76 -1
-65 0 -67 35 -67 32 0 30 -6 28 74 -1 60 -1 65 2 69 4 4 279 5 282 1 4 -6 5
-14 3 -68 -3 -79 -1 -82 33 -82 33 0 31 -5 30 77 -1 49 -1 67 1 71 2 4 157 7
164 2 4 -2 4 -1090 0 -1095 -4 -5 -158 -4 -163 0 -3 4 -3 9 -2 68 2 80 3 75
-30 75 -29 0 -37 -10 -34 -44 9 -112 23 -102 -149 -102 -174 0 -151 -12 -149
74 1 84 4 78 -29 78 -35 0 -36 -1 -34 -84 0 -56 0 -61 -3 -65 -4 -4 -171 -5
-175 0 -3 3 -4 1090 -1 1095 2 4 186 3 189 -1z"/>
</g>
</svg>
