<?xml version="1.0" standalone="no"?>
<!DOCTYPE svg PUBLIC "-//W3C//DTD SVG 20010904//EN"
 "http://www.w3.org/TR/2001/REC-SVG-20010904/DTD/svg10.dtd">
<svg version="1.0" xmlns="http://www.w3.org/2000/svg"
 width="74.000000pt" height="100.000000pt" viewBox="0 0 74.000000 100.000000"
 preserveAspectRatio="xMidYMid meet">
<metadata>
Created by potrace 1.16, written by Peter Selinger 2001-2019
</metadata>
<g transform="translate(0.000000,100.000000) scale(0.100000,-0.100000)"
fill="#000000" stroke="none">
<path d="M24 969 c-8 -14 -8 -925 1 -939 10 -16 671 -14 682 2 4 7 8 219 8
471 0 396 -2 459 -15 467 -22 14 -667 13 -676 -1z m176 -70 c0 -50 15 -79 40
-79 18 0 20 7 20 60 l0 60 115 0 115 0 0 -59 c0 -45 4 -60 16 -65 29 -11 44
13 44 70 l0 54 58 0 59 0 7 -220 c4 -121 4 -319 0 -440 l-7 -220 -59 0 -58 0
0 48 c0 55 -10 75 -36 70 -16 -3 -20 -14 -22 -61 l-3 -57 -119 0 -120 0 0 60
c0 45 -4 62 -15 66 -28 11 -45 -16 -45 -72 l0 -54 -63 0 -64 0 -6 227 c-9 292
-9 638 0 646 3 4 37 7 75 7 l68 0 0 -41z"/>
</g>
</svg>
