<?xml version="1.0" standalone="no"?>
<!DOCTYPE svg PUBLIC "-//W3C//DTD SVG 20010904//EN"
 "http://www.w3.org/TR/2001/REC-SVG-20010904/DTD/svg10.dtd">
<svg version="1.0" xmlns="http://www.w3.org/2000/svg"
 width="114.000000pt" height="148.000000pt" viewBox="0 0 114.000000 148.000000"
 preserveAspectRatio="xMidYMid meet">
<metadata>
Created by potrace 1.16, written by Peter Selinger 2001-2019
</metadata>
<g transform="translate(0.000000,148.000000) scale(0.100000,-0.100000)"
fill="#000000" stroke="none">
<path d="M50 740 l0 -680 515 0 515 0 0 680 0 680 -515 0 -515 0 0 -680z m187
556 c26 -41 53 -82 59 -93 9 -14 16 -16 30 -7 40 24 40 40 -4 97 -23 29 -42
59 -42 65 0 8 23 12 69 12 l69 0 44 -63 c24 -34 47 -70 51 -80 8 -21 30 -22
63 -1 l24 16 -45 53 c-25 29 -45 58 -45 64 0 7 34 11 100 11 l100 0 33 -52
c19 -29 41 -65 51 -80 19 -32 46 -36 69 -10 15 16 13 21 -24 69 -21 29 -39 57
-39 62 0 7 38 11 105 11 l105 0 0 -625 0 -625 -100 0 c-55 0 -100 4 -100 8 0
8 -29 45 -91 116 -24 27 -29 29 -53 18 -14 -6 -26 -17 -26 -25 0 -7 20 -35 45
-62 25 -27 42 -52 38 -56 -5 -4 -35 -4 -69 0 -61 6 -61 6 -123 79 -35 39 -67
72 -73 72 -18 0 -48 -21 -48 -33 0 -7 22 -35 50 -62 32 -31 45 -51 37 -55 -6
-3 -94 -4 -194 -2 l-183 3 0 624 0 625 34 0 c32 0 39 -6 83 -74z"/>
</g>
</svg>
