<?xml version="1.0" standalone="no"?>
<!DOCTYPE svg PUBLIC "-//W3C//DTD SVG 20010904//EN"
 "http://www.w3.org/TR/2001/REC-SVG-20010904/DTD/svg10.dtd">
<svg version="1.0" xmlns="http://www.w3.org/2000/svg"
 width="456.000000pt" height="590.000000pt" viewBox="0 0 456.000000 590.000000"
 preserveAspectRatio="xMidYMid meet">
<metadata>
Created by potrace 1.16, written by Peter Selinger 2001-2019
</metadata>
<g transform="translate(0.000000,590.000000) scale(0.500000,-0.500000)"
fill="#000000" stroke="none">
<path d="M52 1136 c-8 -2 -10 -4 -11 -17 -3 -30 0 -1063 4 -1066 4 -5 810 -6
818 -1 7 3 7 -8 7 548 -1 506 -1 530 -5 533 -3 4 -796 6 -813 3z m103 -47 c6
-7 19 -26 48 -71 47 -73 46 -72 76 -47 17 14 16 21 -4 45 -17 21 -47 67 -47
71 0 7 2 7 55 7 53 0 56 0 62 -11 2 -4 11 -17 20 -29 16 -25 19 -28 40 -60 21
-33 28 -36 46 -23 5 4 11 7 12 7 14 0 18 18 7 32 -3 4 -10 12 -16 19 -5 7 -13
17 -18 24 -4 7 -11 16 -15 21 -15 19 -13 20 69 20 93 0 83 3 108 -41 3 -5 13
-22 23 -37 9 -16 19 -31 20 -35 10 -19 20 -21 38 -9 30 19 30 18 -15 84 -26
39 -29 38 61 38 71 0 78 -1 81 -6 4 -7 3 -982 -1 -986 -12 -12 -147 -4 -153 9
-2 6 -11 17 -22 28 -9 10 -20 22 -23 27 -21 34 -50 54 -67 48 -35 -13 -34 -28
3 -65 19 -19 37 -41 37 -46 0 -4 -5 -5 -51 -5 -49 0 -46 0 -54 12 -3 5 -15 18
-26 30 -11 12 -23 26 -27 31 -32 49 -62 59 -91 30 -9 -10 -8 -14 18 -39 40
-39 56 -60 48 -63 -13 -3 -290 0 -292 4 -3 3 -3 69 -3 417 0 227 -1 447 -1
488 -2 92 -4 86 29 86 20 0 20 0 25 -5z"/>
</g>
</svg>
