<?xml version="1.0" standalone="no"?>
<!DOCTYPE svg PUBLIC "-//W3C//DTD SVG 20010904//EN"
 "http://www.w3.org/TR/2001/REC-SVG-20010904/DTD/svg10.dtd">
<svg version="1.0" xmlns="http://www.w3.org/2000/svg"
 width="108.000000pt" height="148.000000pt" viewBox="0 0 108.000000 148.000000"
 preserveAspectRatio="xMidYMid meet">
<metadata>
Created by potrace 1.16, written by Peter Selinger 2001-2019
</metadata>
<g transform="translate(0.000000,148.000000) scale(0.100000,-0.100000)"
fill="#000000" stroke="none">
<path d="M49 1414 c-5 -7 -9 -283 -9 -677 0 -535 3 -667 14 -676 9 -7 159 -11
484 -10 456 0 472 0 482 19 16 30 13 1340 -3 1345 -7 3 -225 6 -485 7 -339 2
-476 0 -483 -8z m266 -101 c0 -77 17 -112 49 -100 13 5 16 23 16 92 l0 85 65
0 64 0 3 -87 3 -88 30 0 30 0 0 85 0 85 70 0 70 0 5 -85 c5 -84 5 -85 32 -88
l27 -3 3 88 3 88 80 3 c44 2 90 0 102 -3 l23 -5 0 -640 0 -640 -105 0 -105 0
0 81 0 80 -27 -3 c-27 -3 -28 -5 -33 -82 l-5 -79 -70 0 -70 0 0 82 c0 88 -11
109 -47 90 -15 -8 -18 -23 -18 -88 0 -43 -2 -80 -4 -82 -2 -2 -36 -2 -76 -1
l-71 4 2 79 c3 81 -5 104 -33 94 -23 -9 -30 -47 -22 -116 l7 -59 -117 0 -116
0 0 639 c0 502 3 640 13 645 6 2 59 4 117 3 l105 -2 0 -72z"/>
</g>
</svg>
