<?xml version="1.0" standalone="no"?>
<!DOCTYPE svg PUBLIC "-//W3C//DTD SVG 20010904//EN"
 "http://www.w3.org/TR/2001/REC-SVG-20010904/DTD/svg10.dtd">
<svg version="1.0" xmlns="http://www.w3.org/2000/svg"
 width="434.000000pt" height="590.000000pt" viewBox="0 0 434.000000 590.000000"
 preserveAspectRatio="xMidYMid meet">
<metadata>
Created by potrace 1.16, written by Peter Selinger 2001-2019
</metadata>
<g transform="translate(0.000000,590.000000) scale(0.500000,-0.500000)"
fill="#000000" stroke="none">
<path d="M43 1135 c-10 -10 -11 -1071 -1 -1084 6 -6 776 -6 782 0 10 12 9
1074 -1 1084 -7 7 -773 8 -780 0z m210 -31 c3 -2 3 -9 3 -56 0 -68 3 -76 29
-76 23 0 23 1 23 71 0 72 -7 64 53 64 58 0 52 7 51 -60 -1 -73 3 -81 31 -81 9
0 12 1 16 5 6 6 6 1 5 73 0 72 -8 64 61 64 65 -1 58 6 56 -61 -2 -71 1 -79 25
-81 27 -2 28 1 26 76 0 55 0 59 3 62 5 4 150 3 155 -1 5 -5 5 -1014 0 -1019
-6 -6 -150 -6 -155 0 -3 4 -3 8 -3 58 2 68 0 72 -22 72 -27 0 -31 -8 -29 -74
2 -67 9 -60 -59 -60 -66 0 -58 -9 -58 68 1 74 2 72 -22 72 -28 0 -31 -7 -30
-79 1 -70 8 -62 -57 -62 -67 0 -60 -8 -58 68 2 73 2 73 -23 74 -27 0 -29 -6
-28 -78 0 -50 0 -57 -3 -60 -5 -5 -160 -5 -167 0 -4 3 -7 1011 -2 1019 2 3 12
3 69 4 94 2 106 2 110 -2z"/>
</g>
</svg>
