<?xml version="1.0" standalone="no"?>
<!DOCTYPE svg PUBLIC "-//W3C//DTD SVG 20010904//EN"
 "http://www.w3.org/TR/2001/REC-SVG-20010904/DTD/svg10.dtd">
<svg version="1.0" xmlns="http://www.w3.org/2000/svg"
 width="73.000000pt" height="100.000000pt" viewBox="0 0 73.000000 100.000000"
 preserveAspectRatio="xMidYMid meet">
<metadata>
Created by potrace 1.16, written by Peter Selinger 2001-2019
</metadata>
<g transform="translate(0.000000,100.000000) scale(0.100000,-0.100000)"
fill="#000000" stroke="none">
<path d="M49 963 c-14 -3 -17 -40 -22 -296 -3 -161 -2 -368 1 -462 l7 -170
260 -3 c143 -2 293 0 333 3 l72 7 -2 461 -3 462 -315 1 c-173 1 -322 0 -331
-3z m293 -91 c2 -46 6 -57 22 -60 26 -5 36 16 29 65 -5 39 -3 43 20 52 13 5
34 7 45 4 18 -4 22 -14 24 -62 3 -49 6 -56 26 -59 24 -4 25 0 26 68 l1 45 60
0 60 0 0 -425 0 -425 -60 0 -60 0 0 47 c0 55 -16 78 -40 58 -10 -8 -15 -29
-15 -61 l0 -49 -39 0 c-45 0 -51 10 -51 77 0 40 -2 44 -22 41 -20 -3 -24 -10
-28 -58 l-5 -55 -40 0 -40 0 -3 58 c-3 54 -5 58 -25 55 -19 -3 -22 -10 -25
-61 l-3 -58 -62 3 -62 3 -6 95 c-9 122 -8 593 0 685 l6 70 68 3 67 3 0 -54 c0
-41 4 -56 16 -61 26 -10 34 3 34 55 0 42 3 51 22 58 44 16 57 3 60 -57z"/>
</g>
</svg>
