<?xml version="1.0" standalone="no"?>
<!DOCTYPE svg PUBLIC "-//W3C//DTD SVG 20010904//EN"
 "http://www.w3.org/TR/2001/REC-SVG-20010904/DTD/svg10.dtd">
<svg version="1.0" xmlns="http://www.w3.org/2000/svg"
 width="77.000000pt" height="100.000000pt" viewBox="0 0 77.000000 100.000000"
 preserveAspectRatio="xMidYMid meet">
<metadata>
Created by potrace 1.16, written by Peter Selinger 2001-2019
</metadata>
<g transform="translate(0.000000,100.000000) scale(0.100000,-0.100000)"
fill="#000000" stroke="none">
<path d="M35 948 c-3 -7 -4 -213 -3 -458 l3 -445 121 -9 c69 -5 217 -5 345 0
l224 9 0 455 0 455 -343 3 c-269 2 -344 0 -347 -10z m102 -36 c6 -4 13 -34 15
-67 3 -53 5 -60 26 -63 21 -3 22 0 22 62 0 56 3 66 20 71 11 3 29 3 40 0 17
-5 20 -15 20 -71 0 -61 1 -64 24 -64 30 0 35 12 29 71 -5 41 -3 48 17 59 17 9
29 9 47 1 22 -10 24 -16 21 -69 -3 -55 -2 -57 22 -57 24 0 25 3 28 62 3 56 5
62 28 67 13 4 34 2 45 -5 17 -9 19 -17 14 -49 -9 -54 1 -82 28 -78 19 3 22 10
25 65 3 62 15 79 46 67 17 -6 26 -305 18 -616 l-5 -207 -23 -5 c-13 -4 -35 -4
-49 0 -23 6 -25 11 -25 59 0 35 -5 55 -13 58 -25 9 -36 -8 -39 -63 -3 -54 -3
-55 -36 -58 -48 -5 -63 12 -55 61 5 32 2 43 -11 53 -32 23 -46 6 -46 -51 0
-51 -1 -54 -29 -60 -16 -3 -40 -3 -55 1 -23 5 -26 11 -26 49 0 47 -21 78 -45
69 -11 -4 -15 -22 -15 -59 0 -51 -1 -53 -31 -59 -17 -3 -41 -3 -54 0 l-23 6
-7 324 c-7 289 -2 474 11 496 6 10 26 10 41 0z"/>
</g>
</svg>
