<?xml version="1.0" standalone="no"?>
<!DOCTYPE svg PUBLIC "-//W3C//DTD SVG 20010904//EN"
 "http://www.w3.org/TR/2001/REC-SVG-20010904/DTD/svg10.dtd">
<svg version="1.0" xmlns="http://www.w3.org/2000/svg"
 width="452.000000pt" height="590.000000pt" viewBox="0 0 452.000000 590.000000"
 preserveAspectRatio="xMidYMid meet">
<metadata>
Created by potrace 1.16, written by Peter Selinger 2001-2019
</metadata>
<g transform="translate(0.000000,590.000000) scale(0.500000,-0.500000)"
fill="#000000" stroke="none">
<path d="M421 1136 l-365 -1 -7 -7 c-9 -10 -9 -49 -9 -618 l1 -448 7 -6 c4 -5
8 -6 15 -6 14 0 766 0 771 0 3 0 9 3 12 6 l7 6 0 530 c0 624 6 546 -42 545
-13 0 -189 0 -390 -1z m-245 -57 c2 -3 3 -16 2 -71 -1 -82 -3 -76 29 -76 32 0
30 -6 28 75 -2 84 -8 75 48 75 57 0 52 7 50 -63 -3 -93 -5 -87 23 -89 37 -1
37 -3 34 77 -3 83 -9 75 55 75 55 -1 50 8 47 -75 -2 -80 -4 -77 30 -77 31 0
30 -4 27 86 -2 74 -8 66 54 66 64 0 57 13 55 -96 -1 -57 -3 -54 28 -54 32 0
31 -5 29 75 -2 83 -6 75 40 75 47 0 44 4 42 -68 0 -26 -1 -240 -1 -477 0 -254
-1 -431 -2 -433 -3 -5 -97 -9 -114 -4 -11 3 -11 6 -9 68 2 68 3 66 -31 66 -30
0 -29 3 -27 -68 2 -75 9 -67 -58 -67 -65 0 -58 -8 -56 64 1 72 1 73 -30 73
-31 0 -31 -1 -30 -73 2 -73 11 -64 -70 -64 -81 0 -72 -9 -71 63 2 75 3 72 -29
72 -32 0 -31 3 -30 -70 1 -49 1 -58 -2 -61 -4 -6 -131 -6 -136 -1 -4 5 -6 971
-1 977 4 5 72 5 76 0z"/>
</g>
</svg>
