<?xml version="1.0" standalone="no"?>
<!DOCTYPE svg PUBLIC "-//W3C//DTD SVG 20010904//EN"
 "http://www.w3.org/TR/2001/REC-SVG-20010904/DTD/svg10.dtd">
<svg version="1.0" xmlns="http://www.w3.org/2000/svg"
 width="114.000000pt" height="148.000000pt" viewBox="0 0 114.000000 148.000000"
 preserveAspectRatio="xMidYMid meet">
<metadata>
Created by potrace 1.16, written by Peter Selinger 2001-2019
</metadata>
<g transform="translate(0.000000,148.000000) scale(0.100000,-0.100000)"
fill="#000000" stroke="none">
<path d="M55 1408 c-3 -7 -4 -312 -3 -678 l3 -665 499 -3 c275 -1 503 1 508 6
4 4 8 309 8 677 l1 670 -506 3 c-399 2 -507 0 -510 -10z m161 -59 c4 -7 6 -49
5 -95 -2 -82 -2 -83 24 -90 40 -10 48 7 49 103 l1 88 60 0 60 0 0 -94 c0 -101
4 -108 52 -96 l26 6 -7 89 c-8 102 -9 101 84 97 l45 -2 1 -85 c2 -118 0 -112
37 -108 l32 3 5 95 5 95 45 2 c90 5 91 4 89 -93 -2 -91 5 -108 42 -102 23 3
24 6 23 93 -2 96 2 105 48 105 62 0 58 47 58 -626 l0 -614 -80 0 -79 0 -3 83
-3 82 -32 3 -33 3 0 -85 0 -86 -76 0 -75 0 1 72 c1 40 1 79 1 86 -1 9 -12 12
-33 10 l-33 -3 -1 -80 -2 -80 -92 -3 -92 -3 2 73 c3 102 4 98 -35 98 -39 0
-38 4 -35 -97 l2 -73 -91 0 -91 0 -2 608 c-2 334 1 613 6 620 11 15 82 16 92
1z"/>
</g>
</svg>
