<?xml version="1.0" standalone="no"?>
<!DOCTYPE svg PUBLIC "-//W3C//DTD SVG 20010904//EN"
 "http://www.w3.org/TR/2001/REC-SVG-20010904/DTD/svg10.dtd">
<svg version="1.0" xmlns="http://www.w3.org/2000/svg"
 width="73.000000pt" height="100.000000pt" viewBox="0 0 73.000000 100.000000"
 preserveAspectRatio="xMidYMid meet">
<metadata>
Created by potrace 1.16, written by Peter Selinger 2001-2019
</metadata>
<g transform="translate(0.000000,100.000000) scale(0.100000,-0.100000)"
fill="#000000" stroke="none">
<path d="M74 963 l-41 -4 -6 -208 c-4 -114 -4 -320 0 -458 l6 -250 60 -7 c78
-8 452 -8 540 1 l67 6 0 457 0 457 -61 7 c-63 6 -491 6 -565 -1z m169 -35 c10
-8 17 -31 19 -63 3 -42 6 -50 23 -50 17 0 20 8 23 56 3 50 6 57 26 61 46 9 61
-5 66 -63 4 -47 8 -54 28 -57 21 -3 22 0 22 53 0 49 3 57 23 64 42 16 62 -1
65 -55 2 -27 8 -52 14 -55 24 -15 37 4 40 54 3 50 4 52 33 52 l30 0 0 -425 c0
-397 -1 -425 -17 -428 -15 -3 -18 4 -18 40 0 24 -7 53 -15 64 -15 19 -15 19
-30 0 -8 -11 -15 -39 -15 -63 l0 -43 -40 0 -40 0 0 54 c0 96 -50 98 -58 2 l-4
-56 -39 0 c-42 0 -56 21 -45 65 8 32 -2 55 -25 55 -19 0 -27 -18 -31 -80 -3
-31 -6 -35 -35 -38 -28 -3 -33 1 -39 22 -3 14 -3 37 0 50 4 15 0 28 -9 36 -24
20 -44 -5 -47 -58 -3 -46 -3 -47 -38 -47 l-35 0 -6 95 c-10 144 -10 733 0 748
4 8 19 12 32 10 21 -3 24 -9 27 -53 3 -50 14 -67 39 -58 8 3 13 22 13 52 0 64
25 87 63 59z"/>
</g>
</svg>
