<?xml version="1.0" standalone="no"?>
<!DOCTYPE svg PUBLIC "-//W3C//DTD SVG 20010904//EN"
 "http://www.w3.org/TR/2001/REC-SVG-20010904/DTD/svg10.dtd">
<svg version="1.0" xmlns="http://www.w3.org/2000/svg"
 width="434.000000pt" height="590.000000pt" viewBox="0 0 434.000000 590.000000"
 preserveAspectRatio="xMidYMid meet">
<metadata>
Created by potrace 1.16, written by Peter Selinger 2001-2019
</metadata>
<g transform="translate(0.000000,590.000000) scale(0.500000,-0.500000)"
fill="#000000" stroke="none">
<path d="M46 1138 c-9 -4 -9 18 -9 -542 0 -541 0 -542 8 -546 8 -5 773 -3 778
2 9 9 10 1074 0 1083 -4 4 -767 7 -777 3z m110 -34 c4 -4 4 -6 4 -58 -1 -68 1
-72 27 -72 24 0 24 -1 23 68 0 74 -7 66 53 66 60 0 54 7 53 -61 -2 -73 2 -82
29 -81 23 2 22 -1 21 73 -1 78 -8 69 57 69 67 0 61 7 59 -66 -1 -67 2 -76 28
-76 25 0 24 -1 24 75 -1 75 -9 66 58 66 67 0 59 7 58 -58 0 -70 1 -75 29 -75
23 0 22 -3 22 67 0 74 -5 66 47 66 53 0 47 22 46 -150 -1 -202 -1 -498 0 -699
1 -201 5 -178 -29 -178 -38 -1 -36 -5 -35 67 2 64 1 65 -23 65 -25 0 -27 -5
-27 -74 0 -66 6 -59 -49 -60 -76 -1 -70 -8 -69 71 1 72 1 71 -23 71 -26 0 -28
-4 -27 -78 0 -71 8 -63 -59 -63 -67 0 -60 -8 -58 66 1 75 1 75 -23 75 -27 0
-30 -8 -29 -79 2 -69 8 -62 -52 -62 -60 0 -53 -8 -53 66 0 65 0 66 -14 68 -33
6 -38 -6 -37 -74 2 -66 8 -59 -57 -59 -44 0 -52 0 -55 3 -3 3 -6 1002 -3 1015
3 11 74 16 84 6z"/>
</g>
</svg>
