<?xml version="1.0" standalone="no"?>
<!DOCTYPE svg PUBLIC "-//W3C//DTD SVG 20010904//EN"
 "http://www.w3.org/TR/2001/REC-SVG-20010904/DTD/svg10.dtd">
<svg version="1.0" xmlns="http://www.w3.org/2000/svg"
 width="434.000000pt" height="590.000000pt" viewBox="0 0 434.000000 590.000000"
 preserveAspectRatio="xMidYMid meet">
<metadata>
Created by potrace 1.16, written by Peter Selinger 2001-2019
</metadata>
<g transform="translate(0.000000,590.000000) scale(0.500000,-0.500000)"
fill="#000000" stroke="none">
<path d="M46 1137 c-9 -4 -9 15 -9 -543 0 -539 0 -540 8 -544 8 -5 773 -3 778
2 9 9 10 1074 1 1083 -4 4 -769 6 -778 2z m223 -27 c13 -6 13 -6 13 -64 -1
-63 -1 -63 25 -62 25 2 24 0 23 63 -1 66 -3 61 34 61 29 0 32 -1 32 -13 0 -3
0 -27 0 -52 0 -59 0 -59 27 -59 23 0 23 -1 23 64 0 66 -4 60 39 60 43 0 39 6
39 -60 0 -65 0 -64 23 -64 28 0 28 0 27 65 0 65 -4 59 39 59 43 0 40 5 39 -61
-1 -64 -2 -62 24 -62 26 0 25 -2 25 63 0 66 -5 59 46 59 55 0 48 21 47 -148
-1 -186 -1 -488 0 -701 1 -201 4 -179 -26 -179 -30 0 -29 -3 -28 62 1 61 1 61
-24 61 -25 0 -25 0 -25 -64 0 -65 4 -59 -38 -59 -44 0 -40 -6 -39 60 0 64 1
63 -25 63 -26 0 -26 1 -24 -62 2 -66 4 -62 -39 -62 -43 0 -40 -5 -40 63 1 64
2 61 -24 61 -25 0 -24 3 -24 -63 0 -67 3 -62 -36 -61 -35 1 -33 -4 -32 62 1
62 1 62 -24 62 -25 0 -25 0 -24 -62 1 -67 5 -61 -42 -61 -47 0 -42 -7 -42 59
0 66 1 64 -25 65 -26 0 -26 1 -26 -65 0 -46 0 -54 -3 -56 -6 -4 -105 -3 -109
1 -3 3 -4 279 -4 979 0 49 -3 46 39 46 42 0 38 6 38 -60 0 -64 -1 -63 25 -63
26 0 26 0 24 62 -1 53 0 58 8 60 3 1 11 3 16 5 13 5 35 4 48 -2z"/>
</g>
</svg>
