<?xml version="1.0" standalone="no"?>
<!DOCTYPE svg PUBLIC "-//W3C//DTD SVG 20010904//EN"
 "http://www.w3.org/TR/2001/REC-SVG-20010904/DTD/svg10.dtd">
<svg version="1.0" xmlns="http://www.w3.org/2000/svg"
 width="73.000000pt" height="100.000000pt" viewBox="0 0 73.000000 100.000000"
 preserveAspectRatio="xMidYMid meet">
<metadata>
Created by potrace 1.16, written by Peter Selinger 2001-2019
</metadata>
<g transform="translate(0.000000,100.000000) scale(0.100000,-0.100000)"
fill="#000000" stroke="none">
<path d="M69 963 l-36 -4 -6 -208 c-4 -114 -4 -321 0 -459 l6 -251 63 -6 c34
-4 183 -3 331 1 l268 9 3 456 2 456 -61 7 c-64 6 -506 6 -570 -1z m159 -73 c6
-83 48 -88 54 -7 2 34 7 42 23 42 17 0 21 -8 23 -45 6 -77 52 -73 52 5 0 43
15 61 39 46 7 -5 15 -30 19 -57 10 -68 34 -67 46 4 8 45 12 52 32 52 22 0 24
-4 24 -44 0 -79 46 -84 52 -6 3 43 5 45 33 45 l30 0 3 -427 c2 -362 0 -428
-12 -428 -17 0 -26 22 -26 65 0 19 -5 37 -12 41 -17 11 -38 -26 -38 -68 0 -34
-3 -38 -24 -38 -23 0 -25 4 -28 53 -3 44 -6 52 -23 52 -17 0 -20 -8 -23 -52
-3 -51 -4 -53 -33 -53 -28 0 -29 1 -29 50 0 37 -4 52 -16 57 -22 8 -34 -14
-34 -65 0 -39 -2 -43 -22 -40 -20 3 -24 11 -28 53 -4 35 -10 51 -21 53 -18 3
-29 -24 -29 -76 0 -30 -2 -33 -27 -30 -26 3 -28 7 -31 51 -2 31 -8 50 -18 54
-21 8 -27 -2 -34 -55 -5 -46 -6 -47 -40 -47 l-35 0 -6 140 c-9 195 -10 534 -2
633 6 77 8 83 27 80 17 -2 22 -11 24 -48 6 -77 52 -73 52 5 0 48 6 57 35 53
16 -2 21 -12 23 -48z"/>
</g>
</svg>
