<?xml version="1.0" standalone="no"?>
<!DOCTYPE svg PUBLIC "-//W3C//DTD SVG 20010904//EN"
 "http://www.w3.org/TR/2001/REC-SVG-20010904/DTD/svg10.dtd">
<svg version="1.0" xmlns="http://www.w3.org/2000/svg"
 width="74.000000pt" height="100.000000pt" viewBox="0 0 74.000000 100.000000"
 preserveAspectRatio="xMidYMid meet">
<metadata>
Created by potrace 1.16, written by Peter Selinger 2001-2019
</metadata>
<g transform="translate(0.000000,100.000000) scale(0.100000,-0.100000)"
fill="#000000" stroke="none">
<path d="M24 969 c-10 -17 -7 -930 3 -940 5 -5 154 -8 344 -7 l334 3 9 238 c5
138 5 336 0 475 l-9 237 -337 3 c-239 2 -339 -1 -344 -9z m182 -79 c1 -68 2
-72 27 -68 19 3 22 10 25 61 l3 57 114 0 115 0 0 -59 c0 -45 4 -60 16 -65 29
-11 44 13 44 70 l0 54 59 0 59 0 7 -145 c4 -80 4 -278 0 -440 l-7 -295 -59 0
-58 0 -3 58 c-3 53 -5 57 -28 57 -23 0 -25 -4 -28 -57 l-3 -58 -119 0 -120 0
0 60 c0 47 -4 62 -16 67 -21 8 -46 -24 -38 -49 3 -10 3 -32 -1 -48 -6 -29 -8
-30 -71 -30 l-64 0 0 440 0 441 73 -3 72 -3 1 -45z"/>
<path d="M217 623 c-4 -3 -7 -14 -7 -24 0 -24 57 -32 193 -27 108 3 135 12
124 42 -5 14 -29 16 -155 16 -82 0 -152 -3 -155 -7z"/>
<path d="M223 449 c-7 -7 -13 -21 -13 -31 0 -17 12 -18 155 -18 132 0 157 2
162 16 12 31 -15 39 -155 42 -102 3 -140 0 -149 -9z"/>
</g>
</svg>
