<?xml version="1.0" standalone="no"?>
<!DOCTYPE svg PUBLIC "-//W3C//DTD SVG 20010904//EN"
 "http://www.w3.org/TR/2001/REC-SVG-20010904/DTD/svg10.dtd">
<svg version="1.0" xmlns="http://www.w3.org/2000/svg"
 width="456.000000pt" height="618.000000pt" viewBox="0 0 456.000000 618.000000"
 preserveAspectRatio="xMidYMid meet">
<metadata>
Created by potrace 1.16, written by Peter Selinger 2001-2019
</metadata>
<g transform="translate(0.000000,618.000000) scale(0.500000,-0.500000)"
fill="#000000" stroke="none">
<path d="M36 1212 c-9 -2 -11 -4 -12 -17 -3 -20 -2 -1147 0 -1155 2 -6 4 -8 8
-9 13 -4 842 -2 845 2 10 9 9 1167 -1 1175 -5 4 -8 4 -121 4 -64 0 -250 1
-414 1 -164 0 -301 0 -305 -1z m221 -44 c3 -3 4 -7 2 -61 -1 -80 -1 -82 33
-82 30 0 29 -2 28 56 -2 104 -24 90 141 90 167 0 151 4 148 -34 -7 -102 -2
-119 34 -119 31 0 29 -5 28 79 -2 69 -2 69 3 72 7 4 158 4 162 0 4 -4 4 -1095
0 -1097 -6 -4 -159 -2 -163 1 -3 4 -4 9 -2 68 1 79 3 75 -28 75 -36 0 -37 -1
-35 -91 1 -63 23 -55 -150 -55 -174 0 -151 -9 -150 57 2 103 4 95 -26 95 -36
0 -37 -1 -36 -83 1 -51 0 -63 -2 -66 -4 -4 -174 -5 -178 0 -2 2 -4 1012 -2
1092 0 8 184 11 193 3z"/>
<path d="M284 778 c-16 -1 -25 -42 -11 -55 8 -8 356 -8 364 0 7 7 8 42 1 50
-5 5 -311 9 -354 5z"/>
<path d="M273 555 c-10 -9 -6 -57 3 -60 8 -3 355 -2 360 1 7 4 9 52 1 59 -6 7
-358 6 -364 0z"/>
</g>
</svg>
