<?xml version="1.0" standalone="no"?>
<!DOCTYPE svg PUBLIC "-//W3C//DTD SVG 20010904//EN"
 "http://www.w3.org/TR/2001/REC-SVG-20010904/DTD/svg10.dtd">
<svg version="1.0" xmlns="http://www.w3.org/2000/svg"
 width="114.000000pt" height="154.000000pt" viewBox="0 0 114.000000 154.000000"
 preserveAspectRatio="xMidYMid meet">
<metadata>
Created by potrace 1.16, written by Peter Selinger 2001-2019
</metadata>
<g transform="translate(0.000000,154.000000) scale(0.100000,-0.100000)"
fill="#000000" stroke="none">
<path d="M35 1498 c-3 -7 -4 -339 -3 -738 l3 -725 530 0 530 0 3 724 c1 399
-1 728 -6 733 -4 4 -243 10 -530 13 -424 5 -523 4 -527 -7z m283 -113 c3 -108
7 -117 45 -113 l32 3 0 89 0 90 180 -1 180 0 1 -79 c0 -44 1 -84 2 -90 3 -17
30 -25 58 -18 24 6 24 8 22 98 l-3 91 100 -2 c55 -2 103 -3 108 -3 4 0 7 -308
7 -685 l0 -686 -107 3 -108 3 0 85 0 85 -37 3 c-43 4 -41 8 -42 -103 l-1 -70
-187 -3 -187 -2 -3 97 -3 98 -27 2 c-15 1 -31 -3 -35 -10 -4 -6 -6 -51 -4 -99
l2 -88 -115 0 c-64 0 -116 3 -116 8 0 14 0 1357 0 1362 0 3 53 5 118 5 l117
-1 3 -69z"/>
<path d="M332 928 l3 -33 230 0 230 0 3 33 3 32 -236 0 -236 0 3 -32z"/>
<path d="M333 683 c-2 -6 -3 -24 -1 -40 l3 -28 230 0 230 0 3 38 c2 20 0 37
-5 37 -224 6 -456 3 -460 -7z"/>
</g>
</svg>
