<?xml version="1.0" standalone="no"?>
<!DOCTYPE svg PUBLIC "-//W3C//DTD SVG 20010904//EN"
 "http://www.w3.org/TR/2001/REC-SVG-20010904/DTD/svg10.dtd">
<svg version="1.0" xmlns="http://www.w3.org/2000/svg"
 width="65.000000pt" height="100.000000pt" viewBox="0 0 65.000000 100.000000"
 preserveAspectRatio="xMidYMid meet">
<metadata>
Created by potrace 1.16, written by Peter Selinger 2001-2019
</metadata>
<g transform="translate(0.000000,100.000000) scale(0.100000,-0.100000)"
fill="#000000" stroke="none">
<path d="M78 963 l-48 -4 0 -458 0 -458 133 -5 c72 -3 202 -3 289 0 l156 5 7
144 c8 146 3 759 -5 766 -7 6 -476 15 -532 10z m112 -93 c0 -36 4 -52 15 -56
26 -10 45 16 45 62 l0 44 75 0 75 0 0 -44 c0 -46 19 -72 45 -62 11 4 15 20 15
56 l0 50 49 0 c42 0 49 -3 55 -22 7 -29 8 -766 0 -794 -7 -26 -56 -39 -85 -24
-14 8 -19 21 -19 50 0 21 -5 42 -10 45 -20 12 -40 -17 -40 -56 l0 -39 -80 0
-80 0 0 39 c0 46 -22 70 -45 51 -9 -7 -15 -29 -15 -51 l0 -39 -53 0 -54 0 -6
197 c-9 249 -9 468 -1 566 l7 77 53 0 54 0 0 -50z"/>
<path d="M201 566 c-7 -9 -11 -41 -9 -83 3 -65 4 -68 28 -68 24 0 25 3 28 68
3 64 -7 97 -28 97 -4 0 -13 -6 -19 -14z"/>
<path d="M412 571 c-9 -5 -12 -29 -10 -82 3 -72 4 -74 31 -77 l27 -3 0 79 c0
64 -3 81 -16 86 -19 7 -16 7 -32 -3z"/>
</g>
</svg>
