<?xml version="1.0" standalone="no"?>
<!DOCTYPE svg PUBLIC "-//W3C//DTD SVG 20010904//EN"
 "http://www.w3.org/TR/2001/REC-SVG-20010904/DTD/svg10.dtd">
<svg version="1.0" xmlns="http://www.w3.org/2000/svg"
 width="386.000000pt" height="590.000000pt" viewBox="0 0 386.000000 590.000000"
 preserveAspectRatio="xMidYMid meet">
<metadata>
Created by potrace 1.16, written by Peter Selinger 2001-2019
</metadata>
<g transform="translate(0.000000,590.000000) scale(0.500000,-0.500000)"
fill="#000000" stroke="none">
<path d="M44 1134 c-7 -7 -9 -1068 -3 -1079 5 -7 -2 -7 344 -7 344 0 339 -1
344 7 6 11 3 1073 -3 1079 -6 6 -676 6 -682 0z m188 -39 c4 -3 4 -4 4 -58 0
-66 -1 -63 28 -63 28 0 28 0 27 67 -2 65 -15 57 99 57 109 -1 95 7 94 -59 -1
-67 -1 -66 35 -65 30 1 29 -1 28 64 -2 57 80 92 131 57 4 -3 4 -3 4 -214 0
-182 0 -212 3 -219 4 -13 4 -156 0 -167 -3 -6 -3 -33 -3 -204 0 -176 0 -199
-3 -203 -4 -5 -122 -7 -128 -1 -4 4 -4 4 -3 55 1 51 0 52 -23 53 -29 3 -30 0
-29 -60 1 -58 15 -51 -104 -51 -115 1 -101 -6 -100 53 0 59 1 58 -29 58 -29 0
-28 2 -27 -56 0 -62 10 -55 -74 -55 -86 0 -74 -25 -74 162 0 134 0 157 -3 163
-4 9 -4 22 0 33 3 7 3 49 3 329 0 321 0 321 4 324 4 3 14 3 70 3 56 0 66 0 70
-3z"/>
<path d="M251 674 c-18 -2 -17 1 -17 -91 0 -100 -2 -95 31 -95 29 0 27 -6 27
93 0 91 0 93 -13 93 -2 0 -7 0 -11 1 -4 0 -11 0 -17 -1z"/>
<path d="M488 668 c-9 -9 -9 -167 1 -175 10 -9 52 -6 57 3 2 4 3 163 1 169 -5
11 -49 13 -59 3z"/>
</g>
</svg>
