<?xml version="1.0" standalone="no"?>
<!DOCTYPE svg PUBLIC "-//W3C//DTD SVG 20010904//EN"
 "http://www.w3.org/TR/2001/REC-SVG-20010904/DTD/svg10.dtd">
<svg version="1.0" xmlns="http://www.w3.org/2000/svg"
 width="65.000000pt" height="100.000000pt" viewBox="0 0 65.000000 100.000000"
 preserveAspectRatio="xMidYMid meet">
<metadata>
Created by potrace 1.16, written by Peter Selinger 2001-2019
</metadata>
<g transform="translate(0.000000,100.000000) scale(0.100000,-0.100000)"
fill="#000000" stroke="none">
<path d="M77 963 l-47 -4 2 -457 3 -457 286 -3 287 -2 7 197 c7 164 0 712 -8
719 -5 4 -485 11 -530 7z m105 -100 c3 -54 5 -58 28 -58 23 0 25 4 26 45 1 25
2 51 3 58 1 8 26 12 91 12 l90 0 0 -47 c0 -56 10 -76 36 -71 16 3 20 14 22 61
l3 58 42 -3 42 -3 3 -417 2 -418 -25 -6 c-43 -11 -55 1 -55 54 0 52 -18 79
-45 68 -11 -4 -15 -20 -15 -60 0 -53 -1 -55 -31 -61 -17 -4 -62 -4 -100 0
l-69 7 0 48 c0 50 -18 77 -45 66 -11 -4 -15 -21 -15 -60 0 -52 -2 -56 -27 -62
-59 -15 -58 -25 -61 417 -1 222 0 410 3 416 2 8 23 13 49 13 l45 0 3 -57z"/>
<path d="M184 625 c-13 -32 14 -40 149 -43 114 -3 135 -1 147 12 8 10 9 20 4
25 -5 5 -73 12 -151 16 -128 6 -144 5 -149 -10z"/>
<path d="M193 515 c-3 -9 -4 -18 -2 -20 3 -2 66 -5 141 -7 94 -2 140 1 149 9
26 26 -3 33 -142 33 -117 0 -141 -3 -146 -15z"/>
<path d="M197 433 c-4 -3 -7 -15 -7 -25 0 -17 11 -18 145 -18 135 0 145 1 145
19 0 14 -10 20 -46 25 -62 8 -229 8 -237 -1z"/>
</g>
</svg>
