<?xml version="1.0" standalone="no"?>
<!DOCTYPE svg PUBLIC "-//W3C//DTD SVG 20010904//EN"
 "http://www.w3.org/TR/2001/REC-SVG-20010904/DTD/svg10.dtd">
<svg version="1.0" xmlns="http://www.w3.org/2000/svg"
 width="96.000000pt" height="148.000000pt" viewBox="0 0 96.000000 148.000000"
 preserveAspectRatio="xMidYMid meet">
<metadata>
Created by potrace 1.16, written by Peter Selinger 2001-2019
</metadata>
<g transform="translate(0.000000,148.000000) scale(0.100000,-0.100000)"
fill="#000000" stroke="none">
<path d="M52 738 l3 -683 420 0 420 0 3 683 2 682 -425 0 -425 0 2 -682z m222
542 l1 -85 30 0 30 0 3 88 3 87 144 0 144 0 3 -87 3 -88 30 0 30 0 3 88 3 87
74 0 75 0 0 -635 0 -636 -67 3 -68 3 3 76 c3 85 -9 106 -52 95 -24 -6 -25 -10
-28 -92 l-3 -86 -145 1 c-80 0 -150 1 -157 1 -8 0 -10 22 -6 78 5 86 -5 107
-49 100 -22 -3 -23 -7 -23 -88 l0 -85 -72 -3 -73 -3 0 636 0 636 82 -3 82 -3
0 -85z"/>
<path d="M284 926 c-3 -8 -4 -23 -2 -33 3 -16 21 -18 206 -23 162 -4 206 -2
215 8 8 10 8 19 0 30 -8 14 -27 17 -99 18 -49 0 -140 3 -202 8 -95 6 -113 5
-118 -8z"/>
<path d="M290 750 l0 -30 204 0 c196 0 205 1 211 20 3 11 3 24 0 30 -4 6 -84
10 -211 10 l-204 0 0 -30z"/>
<path d="M292 609 l3 -32 200 -1 200 -1 0 30 0 30 -203 3 -203 2 3 -31z"/>
</g>
</svg>
