<?xml version="1.0" standalone="no"?>
<!DOCTYPE svg PUBLIC "-//W3C//DTD SVG 20010904//EN"
 "http://www.w3.org/TR/2001/REC-SVG-20010904/DTD/svg10.dtd">
<svg version="1.0" xmlns="http://www.w3.org/2000/svg"
 width="386.000000pt" height="590.000000pt" viewBox="0 0 386.000000 590.000000"
 preserveAspectRatio="xMidYMid meet">
<metadata>
Created by potrace 1.16, written by Peter Selinger 2001-2019
</metadata>
<g transform="translate(0.000000,590.000000) scale(0.500000,-0.500000)"
fill="#000000" stroke="none">
<path d="M47 1136 c-2 -2 -5 -4 -5 -5 -2 -3 -2 -1073 0 -1076 4 -8 1 -7 343
-7 347 0 341 -1 344 8 2 6 2 1068 0 1074 -1 2 -4 5 -6 6 -8 3 -671 3 -676 0z
m172 -41 c3 -3 3 -12 3 -66 0 -72 -1 -69 18 -72 38 -5 39 -3 38 69 -1 62 -1
69 7 71 11 3 216 1 221 -2 4 -4 4 -4 4 -66 -1 -76 -2 -75 38 -72 25 2 23 -2
22 72 0 62 0 62 4 66 6 4 99 5 105 0 3 -2 5 -815 3 -1000 0 -10 -3 -11 -50
-11 -59 0 -52 -8 -52 65 0 72 1 69 -22 72 -41 4 -41 4 -40 -71 0 -43 0 -63 -2
-66 -3 -5 -241 -7 -246 -2 -1 2 -2 20 -2 66 0 77 0 77 -40 73 -23 -3 -22 0
-22 -70 0 -53 0 -61 -3 -64 -5 -5 -102 -5 -107 0 -6 5 -6 1001 -1 1007 5 6
119 6 124 1z"/>
<path d="M238 748 c-8 -3 -11 -11 -10 -28 2 -22 -4 -21 81 -22 42 -1 76 -2 81
-4 11 -2 163 -3 171 0 12 5 16 32 5 42 -6 6 -6 6 -73 6 -53 0 -69 1 -74 3 -10
3 -173 6 -181 3z"/>
<path d="M248 626 c-14 -2 -21 -33 -9 -44 7 -6 319 -7 326 0 9 8 8 37 -1 42
-3 2 -303 4 -316 2z"/>
<path d="M239 511 c-6 -4 -6 -5 -6 -22 0 -30 -17 -27 167 -27 181 0 166 -2
166 23 0 27 4 26 -88 27 -228 5 -233 5 -239 -1z"/>
</g>
</svg>
