<?xml version="1.0" standalone="no"?>
<!DOCTYPE svg PUBLIC "-//W3C//DTD SVG 20010904//EN"
 "http://www.w3.org/TR/2001/REC-SVG-20010904/DTD/svg10.dtd">
<svg version="1.0" xmlns="http://www.w3.org/2000/svg"
 width="374.000000pt" height="590.000000pt" viewBox="0 0 374.000000 590.000000"
 preserveAspectRatio="xMidYMid meet">
<metadata>
Created by potrace 1.16, written by Peter Selinger 2001-2019
</metadata>
<g transform="translate(0.000000,590.000000) scale(0.500000,-0.500000)"
fill="#000000" stroke="none">
<path d="M54 1138 c-4 0 -9 -2 -11 -4 -7 -7 -6 -1076 0 -1082 7 -7 653 -7 660
0 7 7 7 1075 -1 1082 -4 5 -603 8 -648 4z m149 -45 c3 -3 3 -11 3 -45 -1 -50
-1 -50 28 -50 29 0 29 0 28 50 0 56 -16 49 112 50 144 0 129 6 127 -49 -2 -49
-1 -51 29 -51 29 0 28 -1 28 52 0 42 0 42 5 45 6 4 98 4 104 -1 5 -4 5 -327
-1 -334 -4 -5 -4 -5 -49 -4 -58 1 -59 0 -59 -28 0 -26 2 -27 61 -25 63 2 55
20 55 -121 0 -140 8 -123 -57 -121 -59 2 -59 2 -59 -29 0 -31 0 -31 60 -30 60
1 52 24 52 -158 0 -183 8 -160 -53 -160 -59 0 -54 -5 -53 49 1 54 -1 57 -30
57 -26 0 -27 -1 -27 -56 0 -56 18 -49 -128 -49 -146 0 -128 -7 -128 49 0 55
-2 58 -29 56 -21 -2 -22 -3 -22 -55 0 -48 -94 -83 -121 -46 -4 6 -4 315 0 319
3 2 18 4 55 8 17 1 18 2 31 12 8 5 21 15 29 21 27 19 32 24 34 37 2 12 9 28
17 39 24 32 25 61 6 118 -7 22 -13 41 -13 43 0 16 -50 61 -76 68 -5 1 -17 5
-26 9 -15 6 -20 7 -35 7 -28 0 -25 -19 -25 164 0 124 1 158 3 160 7 6 120 5
124 -1z m-67 -389 c7 -3 14 -6 15 -6 4 0 20 -19 35 -41 6 -9 8 -15 17 -49 8
-30 -2 -67 -27 -94 -41 -46 -47 -50 -72 -50 -21 0 -22 1 -24 22 -1 8 -3 18 -4
22 -4 12 -3 166 1 181 5 20 6 21 28 21 17 0 20 -1 31 -6z"/>
</g>
</svg>
