<?xml version="1.0" standalone="no"?>
<!DOCTYPE svg PUBLIC "-//W3C//DTD SVG 20010904//EN"
 "http://www.w3.org/TR/2001/REC-SVG-20010904/DTD/svg10.dtd">
<svg version="1.0" xmlns="http://www.w3.org/2000/svg"
 width="64.000000pt" height="100.000000pt" viewBox="0 0 64.000000 100.000000"
 preserveAspectRatio="xMidYMid meet">
<metadata>
Created by potrace 1.16, written by Peter Selinger 2001-2019
</metadata>
<g transform="translate(0.000000,100.000000) scale(0.100000,-0.100000)"
fill="#000000" stroke="none">
<path d="M30 501 l0 -459 143 -4 c78 -1 207 -1 287 2 l145 5 3 435 c1 239 0
445 -3 458 l-5 22 -285 0 -285 0 0 -459z m140 387 c0 -73 52 -77 58 -4 l3 36
95 0 94 0 0 -34 c0 -18 7 -39 15 -46 22 -19 45 5 45 46 0 33 1 34 39 34 l39 0
7 -96 c4 -53 4 -114 -1 -137 -9 -40 -11 -42 -51 -45 -72 -5 -66 -49 7 -54 l45
-3 0 -95 0 -95 -47 -3 c-42 -3 -48 -6 -48 -26 0 -19 7 -24 48 -32 l47 -9 3
-118 3 -117 -28 -11 c-38 -14 -57 0 -63 47 -4 31 -9 39 -25 39 -16 0 -21 -8
-25 -40 l-5 -40 -102 -3 -102 -3 -3 43 c-2 35 -7 43 -23 43 -12 0 -21 -8 -23
-20 -9 -64 -10 -65 -57 -65 l-45 0 0 130 0 130 28 6 c58 14 84 35 108 89 27
58 26 81 -7 146 -17 34 -49 56 -106 74 -22 6 -23 10 -23 129 0 67 3 126 7 129
3 4 26 7 50 7 42 0 43 -1 43 -32z m-48 -299 c22 -12 48 -66 48 -101 0 -27 -57
-88 -82 -88 -16 0 -18 10 -18 93 0 111 5 121 52 96z"/>
</g>
</svg>
