<?xml version="1.0" standalone="no"?>
<!DOCTYPE svg PUBLIC "-//W3C//DTD SVG 20010904//EN"
 "http://www.w3.org/TR/2001/REC-SVG-20010904/DTD/svg10.dtd">
<svg version="1.0" xmlns="http://www.w3.org/2000/svg"
 width="94.000000pt" height="148.000000pt" viewBox="0 0 94.000000 148.000000"
 preserveAspectRatio="xMidYMid meet">
<metadata>
Created by potrace 1.16, written by Peter Selinger 2001-2019
</metadata>
<g transform="translate(0.000000,148.000000) scale(0.100000,-0.100000)"
fill="#000000" stroke="none">
<path d="M52 738 l3 -683 410 0 410 0 3 683 2 682 -415 0 -415 0 2 -682z m206
575 l-3 -58 33 -3 32 -3 0 60 0 61 155 0 155 0 0 -61 0 -60 33 3 32 3 -3 58
-2 57 75 0 75 0 0 -215 0 -214 -72 -3 c-55 -2 -73 -7 -75 -18 -6 -32 14 -42
83 -44 l69 -1 0 -150 0 -150 -60 -1 c-85 -3 -83 -2 -90 -24 -12 -37 12 -52 79
-48 l61 3 0 -200 0 -200 -67 -3 -68 -3 0 66 c0 52 -4 67 -16 72 -33 13 -49
-11 -49 -73 l0 -59 -162 -3 -163 -2 0 64 c0 56 -3 66 -20 71 -33 10 -40 -3
-40 -71 l0 -65 -77 3 -78 3 -3 202 -2 202 50 7 c53 7 140 63 140 90 0 7 9 28
20 46 33 55 21 161 -26 233 -20 30 -112 75 -153 75 l-31 0 0 205 0 205 86 0
85 0 -3 -57z m-84 -434 c33 -15 72 -74 80 -122 12 -67 -51 -166 -116 -182 -24
-6 -29 -3 -38 20 -11 29 -14 278 -3 288 10 11 49 8 77 -4z"/>
</g>
</svg>
