<?xml version="1.0" standalone="no"?>
<!DOCTYPE svg PUBLIC "-//W3C//DTD SVG 20010904//EN"
 "http://www.w3.org/TR/2001/REC-SVG-20010904/DTD/svg10.dtd">
<svg version="1.0" xmlns="http://www.w3.org/2000/svg"
 width="400.000000pt" height="590.000000pt" viewBox="0 0 400.000000 590.000000"
 preserveAspectRatio="xMidYMid meet">
<metadata>
Created by potrace 1.16, written by Peter Selinger 2001-2019
</metadata>
<g transform="translate(0.000000,590.000000) scale(0.500000,-0.500000)"
fill="#000000" stroke="none">
<path d="M75 1129 c-9 -3 -13 -7 -19 -18 -6 -13 -6 -1027 1 -1040 9 -17 -27
-15 339 -16 359 -1 335 -2 341 12 7 16 3 1036 -4 1048 -11 19 22 17 -336 17
-260 0 -315 -1 -322 -3z m144 -49 c6 -2 8 -9 8 -40 1 -42 3 -58 9 -64 6 -6 25
-6 31 1 5 5 5 5 5 52 -1 59 -7 53 54 53 56 -1 52 0 54 -24 1 -9 2 -20 4 -24 1
-4 2 -16 2 -27 0 -23 3 -29 13 -29 23 0 34 26 24 54 -4 11 -5 43 -1 46 17 17
97 2 98 -18 1 -9 3 -20 4 -23 1 -3 2 -13 2 -23 0 -22 2 -27 14 -28 23 -1 33
18 24 46 -5 16 -5 39 -1 45 5 7 115 7 122 0 5 -5 5 -962 0 -967 -5 -6 -111 -6
-115 -1 -2 3 -3 13 -3 44 0 48 0 49 -20 49 -20 0 -21 -2 -21 -50 1 -52 9 -46
-62 -46 -72 0 -64 -6 -64 47 0 49 -3 54 -27 49 -13 -3 -13 -4 -13 -50 0 -50 4
-46 -39 -46 -70 -1 -63 -6 -63 47 0 47 -1 49 -19 49 -20 0 -21 -5 -20 -52 2
-49 8 -46 -102 -44 -14 0 -13 -45 -13 487 0 501 0 485 8 488 5 2 102 1 107 -1z"/>
<path d="M265 712 c-10 -15 -4 -36 16 -51 36 -27 56 -61 49 -80 -3 -9 -35 -40
-48 -47 -26 -14 -30 -67 -4 -56 25 12 55 30 61 37 3 4 11 13 16 19 22 23 27
47 18 79 -1 5 -4 14 -5 19 -1 5 -6 12 -12 19 -5 6 -13 16 -18 23 -20 27 -64
50 -73 38z"/>
<path d="M441 707 c-13 -9 -7 -37 12 -51 27 -20 42 -38 47 -54 7 -23 6 -26 -7
-41 -7 -7 -15 -15 -19 -20 -3 -4 -11 -10 -18 -13 -22 -11 -31 -48 -13 -56 6
-3 60 25 70 36 3 5 11 14 17 21 19 21 25 50 17 78 -2 4 -4 12 -5 17 -1 5 -6
12 -11 19 -5 5 -12 15 -16 20 -17 26 -62 53 -74 44z"/>
</g>
</svg>
