<?xml version="1.0" standalone="no"?>
<!DOCTYPE svg PUBLIC "-//W3C//DTD SVG 20010904//EN"
 "http://www.w3.org/TR/2001/REC-SVG-20010904/DTD/svg10.dtd">
<svg version="1.0" xmlns="http://www.w3.org/2000/svg"
 width="100.000000pt" height="148.000000pt" viewBox="0 0 100.000000 148.000000"
 preserveAspectRatio="xMidYMid meet">
<metadata>
Created by potrace 1.16, written by Peter Selinger 2001-2019
</metadata>
<g transform="translate(0.000000,148.000000) scale(0.100000,-0.100000)"
fill="#000000" stroke="none">
<path d="M78 1398 c-17 -17 -18 -62 -18 -657 0 -352 3 -646 6 -655 5 -14 53
-16 430 -16 l424 0 0 659 c0 589 -2 660 -16 672 -12 10 -100 13 -412 13 -365
1 -398 0 -414 -16z m390 -53 c1 -1 3 -25 5 -53 4 -60 18 -82 42 -62 11 10 13
24 9 66 l-7 54 67 0 66 0 0 -55 c0 -42 4 -57 16 -62 18 -7 45 21 39 40 -2 7
-6 27 -9 45 l-5 32 84 0 85 0 -2 -607 -3 -607 -23 -6 c-12 -3 -48 -3 -78 -2
l-55 4 1 46 c3 72 2 74 -22 70 -20 -3 -23 -9 -23 -53 0 -27 -3 -54 -7 -60 -3
-6 -36 -8 -80 -5 l-73 5 3 51 c3 36 -1 54 -12 63 -25 21 -36 3 -36 -60 l0 -59
-65 0 -64 0 -3 58 c-3 49 -6 57 -23 57 -17 0 -20 -8 -23 -57 l-3 -56 -65 -4
c-36 -2 -69 1 -75 7 -5 5 -9 246 -9 612 l0 603 79 0 79 0 4 -60 c5 -65 17 -86
44 -76 14 5 16 16 10 69 -3 35 -4 66 -1 68 4 5 127 -1 133 -6z"/>
<path d="M326 884 c-8 -21 5 -42 48 -82 47 -42 48 -80 5 -116 -17 -14 -34 -26
-39 -26 -13 0 -19 -54 -7 -62 13 -8 90 43 112 74 8 13 15 43 15 70 0 44 -4 52
-54 103 -58 58 -70 64 -80 39z"/>
<path d="M540 863 c0 -10 18 -36 40 -57 52 -50 59 -77 29 -115 -13 -17 -29
-30 -36 -30 -14 -1 -33 -32 -33 -55 0 -9 9 -16 20 -16 11 0 20 5 20 10 0 6 6
10 14 10 7 0 30 17 50 37 29 30 36 45 36 76 0 48 -13 72 -62 120 -42 40 -78
49 -78 20z"/>
</g>
</svg>
