<?xml version="1.0" standalone="no"?>
<!DOCTYPE svg PUBLIC "-//W3C//DTD SVG 20010904//EN"
 "http://www.w3.org/TR/2001/REC-SVG-20010904/DTD/svg10.dtd">
<svg version="1.0" xmlns="http://www.w3.org/2000/svg"
 width="68.000000pt" height="100.000000pt" viewBox="0 0 68.000000 100.000000"
 preserveAspectRatio="xMidYMid meet">
<metadata>
Created by potrace 1.16, written by Peter Selinger 2001-2019
</metadata>
<g transform="translate(0.000000,100.000000) scale(0.100000,-0.100000)"
fill="#000000" stroke="none">
<path d="M52 948 c-9 -9 -12 -123 -12 -450 0 -422 1 -438 19 -448 21 -11 527
-15 555 -4 14 5 16 54 16 448 0 330 -3 445 -12 454 -17 17 -549 17 -566 0z
m138 -88 c4 -32 10 -46 23 -48 18 -4 20 1 21 58 1 34 2 35 41 35 39 0 40 -1
43 -38 2 -23 9 -40 19 -44 21 -8 32 14 26 54 l-6 34 39 -3 c30 -2 40 -8 42
-23 11 -77 33 -87 42 -19 5 39 5 39 50 39 l45 0 3 -385 c1 -212 0 -395 -3
-407 -4 -19 -12 -23 -45 -23 -35 0 -40 3 -40 23 -1 74 -41 92 -50 22 -5 -38
-7 -40 -44 -43 -45 -4 -56 7 -56 56 0 26 -4 33 -17 30 -13 -2 -20 -16 -23 -43
-5 -38 -7 -40 -40 -40 -34 0 -35 1 -38 43 -3 34 -7 43 -20 40 -12 -2 -19 -16
-22 -43 -5 -39 -6 -40 -45 -40 l-40 0 -3 395 c-1 217 0 401 3 408 3 9 19 12
47 10 43 -3 43 -3 48 -48z"/>
<path d="M213 594 c-3 -9 6 -28 26 -48 17 -17 31 -36 31 -41 0 -5 -14 -24 -31
-41 -34 -35 -34 -64 -1 -64 28 0 82 61 82 94 0 70 -87 152 -107 100z"/>
<path d="M365 590 c-4 -6 7 -26 24 -46 38 -43 39 -53 1 -89 -54 -52 -31 -82
30 -41 42 28 56 60 45 104 -13 54 -81 103 -100 72z"/>
</g>
</svg>
