<?xml version="1.0" standalone="no"?>
<!DOCTYPE svg PUBLIC "-//W3C//DTD SVG 20010904//EN"
 "http://www.w3.org/TR/2001/REC-SVG-20010904/DTD/svg10.dtd">
<svg version="1.0" xmlns="http://www.w3.org/2000/svg"
 width="110.000000pt" height="148.000000pt" viewBox="0 0 110.000000 148.000000"
 preserveAspectRatio="xMidYMid meet">
<metadata>
Created by potrace 1.16, written by Peter Selinger 2001-2019
</metadata>
<g transform="translate(0.000000,148.000000) scale(0.100000,-0.100000)"
fill="#000000" stroke="none">
<path d="M50 740 l0 -680 490 0 490 0 2 667 c2 368 1 674 -1 681 -2 9 -109 12
-492 12 l-489 0 0 -680z m150 550 c0 -47 4 -61 18 -69 33 -17 44 2 41 65 l-4
59 70 0 70 0 -3 -57 c-3 -47 -1 -58 15 -66 12 -7 25 -7 36 -1 14 8 16 19 10
69 l-6 60 82 0 82 0 -2 -60 c-2 -63 9 -87 35 -77 12 5 16 22 16 72 l0 65 75 0
75 0 0 -60 c0 -47 4 -61 18 -69 33 -18 46 2 43 68 l-2 61 50 0 51 0 0 -577 c0
-318 3 -588 6 -600 5 -18 1 -25 -20 -33 -46 -17 -57 -4 -54 59 3 54 2 56 -22
56 -23 0 -25 -4 -28 -57 -2 -32 -6 -58 -10 -59 -4 0 -36 -1 -72 -2 l-65 -2 -5
70 c-4 55 -9 70 -22 73 -25 5 -40 -33 -35 -89 6 -57 -2 -62 -94 -57 l-54 3 -3
68 c-2 48 -7 70 -18 74 -29 11 -44 -17 -44 -84 l0 -64 -67 3 -68 3 0 60 c0 58
-1 60 -27 63 -32 4 -41 -19 -36 -84 l3 -39 -63 0 -63 0 1 600 c0 330 0 603 0
608 0 4 20 7 45 7 l45 0 0 -60z"/>
<path d="M652 882 c-31 -33 -55 -52 -58 -45 -16 36 -67 93 -83 93 -21 0 -53
-35 -73 -81 -16 -35 -32 -37 -53 -5 -23 34 -91 79 -110 72 -12 -4 -15 -17 -11
-53 2 -27 5 -126 5 -220 1 -172 1 -173 23 -173 14 0 45 22 79 56 l57 57 20
-39 c52 -102 112 -93 147 20 5 17 13 12 63 -37 65 -64 91 -70 135 -32 28 25
36 59 16 71 -6 3 -24 -6 -39 -21 -33 -31 -28 -33 -107 39 l-43 40 0 77 0 78
55 58 56 58 25 -33 c14 -17 34 -32 44 -32 32 0 31 30 -3 71 -48 58 -78 54
-145 -19z m-108 -35 c33 -43 33 -57 -2 -90 -35 -33 -45 -34 -66 -2 -22 33 -20
77 4 103 27 29 34 28 64 -11z m-134 -86 c9 -136 12 -122 -38 -173 -26 -27 -50
-48 -54 -48 -4 0 -8 70 -8 156 l0 155 50 -42 c28 -23 50 -45 50 -48z m175 -99
c-3 -3 -15 4 -27 16 l-22 22 25 26 24 26 3 -42 c2 -23 1 -45 -3 -48z m-105 39
c0 -4 -9 -16 -20 -26 -20 -18 -20 -17 -20 19 0 34 2 36 20 26 11 -6 20 -14 20
-19z m79 -77 c12 -15 21 -30 21 -35 0 -13 -51 -69 -63 -69 -15 0 -57 64 -57
87 0 9 10 27 21 39 25 27 44 21 78 -22z"/>
</g>
</svg>
