<?xml version="1.0" standalone="no"?>
<!DOCTYPE svg PUBLIC "-//W3C//DTD SVG 20010904//EN"
 "http://www.w3.org/TR/2001/REC-SVG-20010904/DTD/svg10.dtd">
<svg version="1.0" xmlns="http://www.w3.org/2000/svg"
 width="74.000000pt" height="100.000000pt" viewBox="0 0 74.000000 100.000000"
 preserveAspectRatio="xMidYMid meet">
<metadata>
Created by potrace 1.16, written by Peter Selinger 2001-2019
</metadata>
<g transform="translate(0.000000,100.000000) scale(0.100000,-0.100000)"
fill="#000000" stroke="none">
<path d="M35 948 c-3 -7 -4 -213 -3 -458 l3 -445 330 0 330 0 0 455 0 455
-328 3 c-257 2 -329 0 -332 -10z m349 -38 c22 -8 25 -14 20 -40 -4 -18 -1 -36
6 -45 19 -23 40 0 40 46 l0 39 45 0 45 0 0 -38 c0 -41 15 -63 36 -55 9 3 14
21 14 48 0 46 20 65 46 44 12 -10 14 -80 12 -408 -3 -344 -5 -396 -18 -396
-10 0 -17 13 -20 35 -3 23 -11 36 -22 38 -15 3 -18 -4 -18 -37 l0 -41 -44 0
-45 0 -3 42 c-2 35 -7 43 -23 43 -16 0 -21 -8 -23 -42 -3 -39 -5 -43 -37 -49
-54 -10 -68 0 -60 42 7 39 -7 66 -31 57 -8 -3 -14 -19 -14 -42 0 -50 -11 -63
-51 -59 -32 3 -34 5 -39 48 -6 58 -32 62 -41 7 -7 -46 -19 -60 -50 -55 l-24 3
-3 408 -2 407 24 0 c22 0 25 -5 28 -42 2 -36 7 -44 26 -46 20 -3 22 1 22 42
l0 46 40 0 c40 0 40 0 40 -38 0 -41 15 -63 36 -55 9 3 14 20 14 44 0 51 25 68
74 49z"/>
<path d="M450 614 l-41 -37 -35 34 -35 34 -17 -21 c-9 -12 -22 -30 -28 -40
-10 -17 -13 -16 -51 14 -64 52 -73 41 -73 -88 0 -202 14 -234 75 -170 34 35
51 38 60 9 4 -11 18 -25 32 -32 22 -10 28 -8 43 11 10 12 20 28 22 34 3 8 19
1 45 -20 23 -17 47 -32 55 -32 23 0 58 30 58 50 0 27 -14 32 -45 18 -25 -11
-30 -10 -61 25 -47 51 -46 94 0 145 31 33 37 36 55 25 49 -30 72 5 29 44 -40
35 -46 35 -88 -3z m-191 -90 c12 -15 21 -39 21 -55 0 -30 -43 -89 -56 -76 -4
4 -10 34 -12 67 -7 92 9 113 47 64z"/>
</g>
</svg>
