<?xml version="1.0" standalone="no"?>
<!DOCTYPE svg PUBLIC "-//W3C//DTD SVG 20010904//EN"
 "http://www.w3.org/TR/2001/REC-SVG-20010904/DTD/svg10.dtd">
<svg version="1.0" xmlns="http://www.w3.org/2000/svg"
 width="442.000000pt" height="590.000000pt" viewBox="0 0 442.000000 590.000000"
 preserveAspectRatio="xMidYMid meet">
<metadata>
Created by potrace 1.16, written by Peter Selinger 2001-2019
</metadata>
<g transform="translate(0.000000,590.000000) scale(0.500000,-0.500000)"
fill="#000000" stroke="none">
<path d="M52 1136 c-4 -1 -7 -3 -9 -4 -4 -5 -3 -1076 2 -1079 7 -6 779 -4 784
1 4 4 4 16 5 530 0 524 0 542 -5 549 -3 4 -759 6 -777 3z m106 -59 c4 -3 4 -7
4 -41 0 -53 3 -60 27 -60 21 0 21 -1 21 53 0 57 -6 51 54 51 60 0 54 5 54 -48
0 -53 4 -60 32 -58 19 2 19 3 18 51 -1 41 0 50 5 53 5 4 110 2 114 -1 3 -4 3
0 4 -51 0 -48 1 -51 23 -51 20 0 20 0 20 54 -1 56 -8 50 59 51 70 0 63 5 63
-46 -1 -51 6 -63 33 -59 16 2 16 3 15 53 0 56 -4 52 40 52 23 0 32 -1 35 -3 3
-2 6 -920 3 -956 0 -4 -12 -7 -27 -7 -24 0 -23 -1 -23 48 1 48 1 48 -21 48
-22 0 -28 -11 -27 -59 1 -40 7 -36 -55 -38 -68 -1 -62 -6 -60 55 2 49 1 50
-18 52 -27 2 -34 -11 -32 -63 2 -48 8 -44 -54 -46 -75 -2 -70 -6 -68 54 2 52
2 53 -18 55 -13 1 -21 -2 -25 -9 -6 -12 -7 -17 -6 -52 0 -52 5 -48 -56 -50
-59 -2 -55 -6 -54 52 1 46 1 48 -15 50 -26 4 -33 -7 -33 -58 0 -46 3 -43 -40
-46 -37 -2 -53 -1 -57 3 -3 3 -5 854 -3 960 0 10 58 16 68 7z"/>
<path d="M585 756 c-16 -4 -34 -19 -57 -49 -29 -37 -45 -47 -49 -30 -4 13 -15
28 -25 35 -5 4 -10 11 -13 16 -15 30 -56 18 -72 -21 -1 -4 -6 -10 -10 -14 -4
-4 -7 -9 -9 -15 -6 -24 -11 -25 -29 -6 -47 48 -75 65 -95 60 -4 -1 -9 -4 -10
-5 -2 -4 -1 -301 1 -327 4 -45 40 -31 104 40 25 28 24 28 40 -2 37 -68 68 -79
101 -34 13 17 14 20 17 37 2 9 4 16 4 17 5 7 22 -7 73 -58 33 -34 45 -36 74
-10 40 35 42 39 30 56 -12 16 -15 15 -42 -8 -23 -20 -24 -20 -56 11 -10 10
-23 21 -28 24 -20 12 -33 28 -31 38 1 4 2 33 2 63 0 55 0 55 7 60 4 3 13 11
20 19 63 66 63 66 78 37 13 -26 46 -33 57 -12 6 12 4 16 -27 51 -28 30 -32 32
-55 27z m-165 -57 c15 -11 43 -55 41 -63 -18 -45 -64 -54 -84 -16 -16 31 20
97 43 79z m-151 -33 c15 -11 59 -52 63 -58 4 -5 4 -6 2 -21 -2 -14 -2 -20 0
-31 8 -44 8 -46 -36 -89 -48 -47 -44 -56 -45 86 -2 133 -3 128 16 113z m205
-78 c2 -3 3 -45 1 -51 -2 -5 -5 -4 -18 6 -22 15 -22 19 -2 36 15 12 15 12 19
9z m-99 -17 c11 -10 11 -14 1 -25 -10 -10 -14 -10 -16 1 -1 4 -2 12 -3 17 -3
18 4 21 18 7z m55 -51 c6 -6 16 -15 21 -20 18 -16 19 -31 4 -48 -4 -5 -11 -13
-14 -17 -16 -25 -20 -24 -43 5 -29 38 -30 52 -3 78 16 15 20 16 35 2z"/>
</g>
</svg>
