<?xml version="1.0" standalone="no"?>
<!DOCTYPE svg PUBLIC "-//W3C//DTD SVG 20010904//EN"
 "http://www.w3.org/TR/2001/REC-SVG-20010904/DTD/svg10.dtd">
<svg version="1.0" xmlns="http://www.w3.org/2000/svg"
 width="374.000000pt" height="590.000000pt" viewBox="0 0 374.000000 590.000000"
 preserveAspectRatio="xMidYMid meet">
<metadata>
Created by potrace 1.16, written by Peter Selinger 2001-2019
</metadata>
<g transform="translate(0.000000,590.000000) scale(0.500000,-0.500000)"
fill="#000000" stroke="none">
<path d="M43 1142 c-10 -4 -10 19 -11 -460 -1 -513 0 -628 6 -635 8 -9 665 -7
672 3 4 6 4 1074 0 1084 -1 4 -5 7 -8 8 -8 3 -653 3 -659 0z m154 -53 c2 -3 3
-13 3 -45 0 -50 0 -49 21 -51 45 -5 47 -2 46 52 -2 55 -18 48 114 48 131 0
115 7 115 -49 0 -53 -2 -50 31 -50 37 0 35 -2 35 51 0 37 0 43 3 45 6 5 94 4
98 0 5 -5 5 -217 0 -226 -4 -7 -12 -14 -84 -72 -45 -36 -47 -39 -33 -59 4 -7
8 -14 8 -16 0 -24 24 -26 48 -4 39 34 58 49 63 49 4 0 5 -4 6 -52 1 -51 2 -49
-20 -65 -8 -5 -25 -18 -38 -28 -14 -10 -35 -26 -48 -35 -33 -25 -34 -26 -19
-55 17 -35 29 -37 58 -12 33 27 59 47 62 47 7 0 7 -4 2 -154 -1 -30 -2 -112
-2 -182 0 -155 7 -136 -50 -136 -53 0 -48 -5 -48 48 0 57 -2 60 -40 57 -26 -1
-25 1 -24 -53 1 -59 18 -52 -125 -52 -141 0 -124 -7 -124 51 0 55 1 54 -26 55
-34 1 -36 -2 -34 -58 2 -52 7 -48 -52 -48 -24 0 -48 -1 -52 -2 -17 -4 -16 -62
-15 501 0 274 0 499 0 500 0 6 116 7 121 0z"/>
</g>
</svg>
