<?xml version="1.0" standalone="no"?>
<!DOCTYPE svg PUBLIC "-//W3C//DTD SVG 20010904//EN"
 "http://www.w3.org/TR/2001/REC-SVG-20010904/DTD/svg10.dtd">
<svg version="1.0" xmlns="http://www.w3.org/2000/svg"
 width="94.000000pt" height="148.000000pt" viewBox="0 0 94.000000 148.000000"
 preserveAspectRatio="xMidYMid meet">
<metadata>
Created by potrace 1.16, written by Peter Selinger 2001-2019
</metadata>
<g transform="translate(0.000000,148.000000) scale(0.100000,-0.100000)"
fill="#000000" stroke="none">
<path d="M40 740 l0 -690 425 0 425 0 0 690 0 690 -425 0 -425 0 0 -690z m212
568 l3 -63 35 0 35 0 3 63 3 62 144 0 144 0 3 -62 3 -63 35 0 35 0 3 63 3 62
63 0 c43 0 65 -4 67 -12 2 -7 3 -75 1 -150 l-3 -137 -72 -57 c-40 -32 -76 -61
-81 -65 -14 -12 22 -79 42 -79 10 0 38 20 62 45 24 24 47 42 52 39 4 -3 8 -34
8 -69 l0 -64 -85 -62 c-47 -34 -85 -65 -85 -69 0 -19 33 -70 46 -70 8 0 34 18
58 40 24 22 48 40 53 40 7 0 9 -96 6 -282 -2 -156 -3 -289 -3 -295 0 -9 -18
-13 -60 -13 l-59 0 -3 63 -3 62 -37 3 -38 3 0 -66 0 -66 -157 3 -158 3 0 60 0
60 -35 0 -35 0 -1 -58 c-1 -32 -3 -59 -5 -61 -2 -2 -35 -6 -74 -8 l-70 -3 -3
620 c-1 341 0 626 3 633 3 8 29 12 79 12 l75 0 3 -62z"/>
</g>
</svg>
