<?xml version="1.0" standalone="no"?>
<!DOCTYPE svg PUBLIC "-//W3C//DTD SVG 20010904//EN"
 "http://www.w3.org/TR/2001/REC-SVG-20010904/DTD/svg10.dtd">
<svg version="1.0" xmlns="http://www.w3.org/2000/svg"
 width="542.000000pt" height="948.000000pt" viewBox="0 0 542.000000 948.000000"
 preserveAspectRatio="xMidYMid meet">
<metadata>
Created by potrace 1.16, written by Peter Selinger 2001-2019
</metadata>
<g transform="translate(0.000000,948.000000) scale(0.500000,-0.500000)"
fill="#000000" stroke="none">
<path d="M46 1860 c-39 -1 -35 8 -36 -80 -3 -146 -1 -1737 1 -1741 4 -7 -5 -7
524 -7 560 0 519 -1 526 12 8 15 6 1806 -2 1813 -3 4 -926 6 -1013 3z m341
-81 c4 -4 4 -6 0 -123 -3 -114 -6 -106 37 -106 40 0 37 -12 34 118 -3 109 -3
109 2 112 5 4 140 6 151 2 7 -3 8 -5 5 -114 -3 -118 -4 -109 14 -115 13 -5 41
-4 49 1 10 6 10 6 7 117 -2 104 -2 111 5 111 20 2 294 1 296 -1 4 -3 5 -1676
1 -1680 -4 -4 -259 -4 -265 0 -4 2 -4 7 -2 118 1 139 5 124 -34 125 -48 1 -45
11 -39 -116 5 -121 5 -123 1 -127 -6 -6 -184 -4 -188 2 -3 5 -2 158 2 206 2
32 -1 35 -39 35 -44 0 -40 18 -36 -156 3 -104 26 -90 -146 -90 -160 -1 -162
-1 -165 3 -2 3 -2 695 0 699 1 1 13 8 28 15 156 75 155 266 -2 340 -12 6 -23
12 -25 14 -3 3 -5 607 -2 611 2 3 11 3 158 3 144 0 151 0 153 -4z m-287 -697
c36 -23 45 -44 45 -105 0 -44 -8 -58 -45 -83 -29 -18 -28 -20 -28 97 1 114 0
110 28 91z"/>
<path d="M403 1134 c-27 -1 -28 -2 -26 -37 0 -14 2 -89 2 -166 2 -168 -3 -150
39 -150 43 1 39 -10 36 110 -1 52 -2 125 -2 163 0 88 3 83 -49 80z"/>
<path d="M635 1134 c-13 -3 -13 -4 -12 -46 1 -20 2 -92 2 -160 2 -135 1 -130
14 -135 9 -4 41 -4 50 0 15 6 14 -3 11 128 -1 65 -2 137 -2 159 0 47 -1 51
-12 54 -8 2 -39 2 -51 0z"/>
</g>
</svg>
