<?xml version="1.0" standalone="no"?>
<!DOCTYPE svg PUBLIC "-//W3C//DTD SVG 20010904//EN"
 "http://www.w3.org/TR/2001/REC-SVG-20010904/DTD/svg10.dtd">
<svg version="1.0" xmlns="http://www.w3.org/2000/svg"
 width="84.000000pt" height="148.000000pt" viewBox="0 0 84.000000 148.000000"
 preserveAspectRatio="xMidYMid meet">
<metadata>
Created by potrace 1.16, written by Peter Selinger 2001-2019
</metadata>
<g transform="translate(0.000000,148.000000) scale(0.100000,-0.100000)"
fill="#000000" stroke="none">
<path d="M13 1438 c-14 -18 -15 -1389 -1 -1405 8 -10 101 -13 403 -13 349 0
394 2 399 16 8 20 8 1378 0 1398 -5 14 -50 16 -399 16 -302 0 -395 -3 -402
-12z m278 -140 c-3 -76 -1 -89 14 -94 38 -15 50 8 50 97 l0 84 58 3 c41 2 57
-1 58 -10 0 -7 0 -47 -1 -89 -1 -63 2 -78 15 -83 38 -14 48 7 46 98 l-2 86
115 0 116 0 2 -651 c2 -481 0 -653 -8 -660 -7 -5 -54 -8 -105 -7 l-94 3 4 91
c3 84 2 92 -16 98 -11 4 -28 4 -37 0 -15 -6 -17 -20 -14 -98 l3 -91 -70 0 -70
0 3 92 c4 91 3 92 -22 99 -43 10 -48 -1 -45 -100 l4 -91 -120 0 -120 0 0 269
c-1 176 3 272 10 277 5 4 30 25 54 47 41 36 45 43 45 89 1 64 -18 98 -69 129
l-42 24 0 232 c0 128 1 237 4 241 2 4 57 6 121 5 l117 -3 -4 -87z m-181 -531
c0 -37 -24 -77 -46 -77 -11 0 -14 16 -14 73 0 41 3 77 7 81 14 14 53 -44 53
-77z"/>
<path d="M290 745 c0 -143 5 -159 47 -137 16 9 18 21 13 138 l-5 129 -27 3
-28 3 0 -136z"/>
<path d="M477 873 c-3 -5 -2 -64 2 -133 l6 -125 28 -3 27 -3 0 135 0 136 -29
0 c-17 0 -32 -3 -34 -7z"/>
</g>
</svg>
