<?xml version="1.0" standalone="no"?>
<!DOCTYPE svg PUBLIC "-//W3C//DTD SVG 20010904//EN"
 "http://www.w3.org/TR/2001/REC-SVG-20010904/DTD/svg10.dtd">
<svg version="1.0" xmlns="http://www.w3.org/2000/svg"
 width="57.000000pt" height="100.000000pt" viewBox="0 0 57.000000 100.000000"
 preserveAspectRatio="xMidYMid meet">
<metadata>
Created by potrace 1.16, written by Peter Selinger 2001-2019
</metadata>
<g transform="translate(0.000000,100.000000) scale(0.100000,-0.100000)"
fill="#000000" stroke="none">
<path d="M13 973 c-10 -4 -13 -109 -13 -479 l0 -474 274 0 274 0 6 23 c3 12 6
221 6 464 0 388 -2 443 -16 457 -13 14 -51 16 -267 15 -139 0 -258 -3 -264 -6z
m166 -40 c22 -5 23 -10 18 -53 -7 -60 11 -93 38 -70 13 11 16 24 11 61 -7 52
7 73 46 67 21 -3 23 -9 26 -66 3 -59 5 -63 25 -60 20 3 22 8 19 59 l-4 57 40
7 c22 3 55 3 75 0 33 -7 35 -9 40 -58 2 -29 2 -224 -1 -434 l-5 -382 -43 -7
c-72 -10 -83 -2 -86 69 -3 54 -5 62 -23 62 -17 0 -21 -8 -25 -65 l-5 -65 -37
-3 -37 -3 -3 68 c-3 62 -5 68 -25 71 -25 4 -26 0 -23 -77 1 -27 -3 -47 -12
-52 -20 -13 -122 -11 -136 3 -8 8 -12 63 -12 180 l0 169 40 38 c31 29 40 45
40 71 0 26 -9 41 -40 70 l-40 37 0 151 0 151 28 4 c46 7 86 7 111 0z"/>
<path d="M201 597 c-12 -12 -16 -153 -5 -181 9 -24 41 -19 48 7 8 29 8 106 0
145 -7 34 -25 47 -43 29z"/>
<path d="M324 597 c-3 -8 -4 -52 -2 -98 3 -78 4 -84 26 -87 21 -3 22 -1 22 91
0 77 -3 96 -16 101 -22 8 -24 8 -30 -7z"/>
</g>
</svg>
