<?xml version="1.0" standalone="no"?>
<!DOCTYPE svg PUBLIC "-//W3C//DTD SVG 20010904//EN"
 "http://www.w3.org/TR/2001/REC-SVG-20010904/DTD/svg10.dtd">
<svg version="1.0" xmlns="http://www.w3.org/2000/svg"
 width="72.000000pt" height="148.000000pt" viewBox="0 0 72.000000 148.000000"
 preserveAspectRatio="xMidYMid meet">
<metadata>
Created by potrace 1.16, written by Peter Selinger 2001-2019
</metadata>
<g transform="translate(0.000000,148.000000) scale(0.100000,-0.100000)"
fill="#000000" stroke="none">
<path d="M50 1387 c0 -30 126 -340 222 -547 40 -87 35 -137 -28 -263 -8 -16
-14 -33 -14 -39 0 -5 -17 -47 -39 -92 -21 -44 -57 -126 -81 -181 -24 -55 -47
-104 -52 -110 -27 -30 10 -116 44 -102 8 2 31 45 52 93 166 387 170 395 180
427 11 35 33 15 61 -55 16 -40 65 -156 111 -258 l82 -185 33 0 c31 0 34 3 37
34 3 32 -2 49 -33 111 -7 14 -29 63 -48 110 -34 81 -89 203 -144 318 -49 100
-48 106 76 411 61 151 111 285 111 298 0 65 -51 86 -74 31 -41 -94 -98 -242
-173 -448 -11 -30 -23 -55 -27 -55 -6 0 -76 164 -195 460 -27 67 -30 70 -65
73 -35 3 -36 2 -36 -31z"/>
</g>
</svg>
