<?xml version="1.0" standalone="no"?>
<!DOCTYPE svg PUBLIC "-//W3C//DTD SVG 20010904//EN"
 "http://www.w3.org/TR/2001/REC-SVG-20010904/DTD/svg10.dtd">
<svg version="1.0" xmlns="http://www.w3.org/2000/svg"
 width="286.000000pt" height="590.000000pt" viewBox="0 0 286.000000 590.000000"
 preserveAspectRatio="xMidYMid meet">
<metadata>
Created by potrace 1.16, written by Peter Selinger 2001-2019
</metadata>
<g transform="translate(0.000000,590.000000) scale(0.500000,-0.500000)"
fill="#000000" stroke="none">
<path d="M51 1139 c-19 -4 -17 -49 5 -93 4 -8 9 -19 10 -23 1 -4 6 -15 10 -24
5 -9 8 -17 8 -18 0 -2 4 -11 9 -21 5 -9 10 -22 12 -28 2 -6 7 -17 11 -25 3 -8
8 -18 10 -24 8 -24 18 -48 22 -54 2 -3 6 -13 9 -20 3 -8 9 -21 13 -30 4 -9 8
-17 8 -19 0 -1 4 -10 9 -20 5 -11 9 -21 10 -24 1 -3 5 -12 9 -20 4 -8 9 -20
11 -26 2 -6 8 -18 12 -27 10 -19 13 -51 6 -68 -1 -5 -3 -13 -4 -18 0 -6 -4
-17 -10 -29 -6 -13 -9 -21 -9 -27 0 -11 -4 -21 -15 -37 -5 -7 -10 -17 -11 -23
-1 -5 -6 -17 -9 -26 -4 -9 -7 -18 -7 -19 0 -1 -7 -16 -16 -34 -8 -17 -17 -35
-18 -39 -1 -4 -8 -19 -14 -32 -7 -13 -12 -25 -12 -26 0 -2 -5 -13 -11 -26 -6
-12 -13 -27 -15 -34 -3 -6 -9 -21 -15 -33 -6 -12 -11 -23 -11 -24 0 -2 -3 -8
-6 -15 -13 -27 -9 -71 7 -81 24 -15 44 1 59 47 3 6 9 20 14 31 5 11 11 23 12
28 1 5 7 18 12 29 6 11 12 25 14 32 3 6 9 20 14 31 5 11 11 23 12 27 1 5 8 21
16 38 8 16 14 31 15 34 1 3 7 17 13 31 7 14 12 27 12 28 0 56 44 69 58 17 1
-4 7 -17 12 -28 5 -11 11 -25 13 -31 2 -6 7 -19 12 -28 5 -10 11 -23 13 -30 2
-7 10 -25 17 -40 8 -15 15 -32 17 -38 2 -7 9 -22 15 -34 6 -13 11 -24 11 -25
0 -2 7 -18 16 -37 9 -18 16 -35 16 -36 0 -30 42 -50 68 -32 14 11 16 40 4 64
-3 6 -8 17 -10 24 -2 7 -7 17 -10 22 -3 5 -6 11 -7 14 -1 3 -4 9 -6 13 -3 4
-7 15 -10 24 -3 8 -7 18 -9 21 -2 3 -7 13 -10 23 -3 9 -8 20 -10 23 -2 3 -7
13 -10 22 -5 16 -21 49 -26 55 -1 1 -4 9 -7 18 -3 9 -8 20 -11 25 -3 5 -6 10
-6 12 0 2 -4 11 -9 21 -4 10 -10 22 -11 26 -1 4 -9 21 -17 37 -8 16 -15 31
-16 34 -1 3 -4 10 -7 16 -7 16 -9 68 -2 88 8 25 12 35 16 44 2 5 6 13 8 19 4
12 12 31 19 47 6 15 15 35 18 45 2 4 6 14 9 21 6 13 10 25 19 47 3 7 8 21 13
33 5 12 11 27 14 35 3 8 7 18 9 23 6 12 13 29 17 41 2 6 6 16 10 23 3 7 6 14
6 15 0 2 2 8 5 14 17 37 -1 80 -34 79 -16 -1 -18 -3 -26 -25 -4 -9 -10 -25
-14 -36 -9 -25 -25 -62 -33 -78 -3 -7 -7 -19 -9 -27 -2 -8 -6 -20 -8 -26 -3
-6 -7 -15 -9 -21 -3 -9 -9 -23 -25 -67 -3 -7 -8 -21 -12 -31 -4 -10 -7 -20 -8
-21 -1 -1 -4 -9 -6 -16 -24 -62 -27 -70 -32 -70 -3 0 -20 34 -24 47 -1 4 -6
16 -11 26 -4 10 -8 20 -8 21 0 2 -3 10 -8 19 -4 9 -9 21 -11 27 -2 6 -6 16 -9
23 -4 6 -8 18 -11 25 -10 29 -14 38 -21 54 -5 9 -9 19 -9 22 -1 3 -5 12 -9 20
-4 8 -9 21 -12 27 -2 7 -6 17 -9 22 -2 6 -7 16 -9 23 -2 7 -7 19 -11 26 -3 7
-8 17 -9 21 -6 18 -26 25 -55 20z"/>
</g>
</svg>
