<?xml version="1.0" standalone="no"?>
<!DOCTYPE svg PUBLIC "-//W3C//DTD SVG 20010904//EN"
 "http://www.w3.org/TR/2001/REC-SVG-20010904/DTD/svg10.dtd">
<svg version="1.0" xmlns="http://www.w3.org/2000/svg"
 width="49.000000pt" height="100.000000pt" viewBox="0 0 49.000000 100.000000"
 preserveAspectRatio="xMidYMid meet">
<metadata>
Created by potrace 1.16, written by Peter Selinger 2001-2019
</metadata>
<g transform="translate(0.000000,100.000000) scale(0.100000,-0.100000)"
fill="#000000" stroke="none">
<path d="M34 955 c-9 -24 1 -54 86 -246 44 -99 80 -194 80 -211 0 -17 -35
-110 -79 -207 -90 -203 -96 -221 -76 -247 14 -19 14 -19 33 1 18 19 104 210
135 300 8 22 20 40 27 40 8 0 44 -71 84 -165 65 -152 73 -165 99 -168 27 -3
32 4 27 38 -3 21 -84 208 -131 302 -55 110 -53 124 37 339 76 180 85 219 50
232 -25 10 -43 -24 -101 -183 -31 -85 -60 -159 -65 -164 -5 -5 -13 1 -19 15
-5 13 -38 91 -71 174 -34 82 -67 153 -73 157 -19 12 -37 9 -43 -7z"/>
</g>
</svg>
