<?xml version="1.0" standalone="no"?>
<!DOCTYPE svg PUBLIC "-//W3C//DTD SVG 20010904//EN"
 "http://www.w3.org/TR/2001/REC-SVG-20010904/DTD/svg10.dtd">
<svg version="1.0" xmlns="http://www.w3.org/2000/svg"
 width="430.000000pt" height="590.000000pt" viewBox="0 0 430.000000 590.000000"
 preserveAspectRatio="xMidYMid meet">
<metadata>
Created by potrace 1.16, written by Peter Selinger 2001-2019
</metadata>
<g transform="translate(0.000000,590.000000) scale(0.500000,-0.500000)"
fill="#000000" stroke="none">
<path d="M705 1141 c-13 -2 -35 -22 -41 -38 -2 -7 -7 -14 -11 -18 -4 -4 -7 -8
-7 -11 0 -8 -9 -25 -17 -31 -5 -4 -7 -7 -8 -13 -1 -5 -5 -12 -9 -18 -4 -6 -8
-14 -9 -18 -1 -6 -4 -12 -10 -18 -12 -13 -14 -18 -16 -26 -1 -4 -4 -11 -8 -16
-4 -5 -8 -12 -8 -16 -2 -10 -4 -14 -15 -25 -7 -8 -10 -13 -11 -19 -1 -6 -3 -9
-9 -14 -6 -4 -8 -8 -9 -14 -1 -5 -4 -11 -10 -18 -12 -13 -14 -17 -16 -27 -1
-4 -4 -11 -8 -16 -4 -5 -7 -11 -8 -17 -1 -6 -5 -12 -13 -22 -8 -10 -12 -16
-13 -22 -5 -35 -58 -41 -67 -7 -2 7 -4 10 -8 12 -3 2 -6 5 -7 7 -1 2 -4 8 -8
12 -4 5 -10 15 -14 23 -4 9 -10 17 -14 20 -4 3 -7 7 -8 14 -2 7 -4 9 -11 13
-9 5 -12 10 -16 23 -1 5 -6 12 -12 19 -6 6 -11 14 -13 17 -1 4 -5 8 -8 10 -4
1 -7 5 -8 8 -2 2 -5 8 -9 12 -3 3 -7 10 -9 13 -1 4 -8 12 -14 19 -6 7 -11 14
-12 16 -1 3 -6 11 -13 18 -7 7 -12 15 -13 18 -1 2 -4 8 -8 12 -4 4 -8 12 -11
16 -2 4 -7 11 -11 15 -4 4 -9 11 -11 15 -3 4 -7 11 -10 15 -3 4 -7 11 -10 15
-2 4 -10 14 -17 21 l-13 13 -23 1 c-32 1 -33 -1 -33 -30 0 -24 1 -27 21 -46 5
-5 11 -12 13 -16 2 -5 7 -11 10 -14 3 -4 7 -10 9 -14 2 -4 8 -12 13 -17 5 -6
11 -14 14 -19 2 -4 5 -8 6 -9 1 -1 5 -7 10 -15 4 -7 11 -16 15 -20 4 -4 9 -11
11 -15 3 -4 8 -12 11 -16 4 -4 7 -9 7 -10 0 -2 8 -11 17 -21 9 -10 17 -20 18
-22 1 -3 5 -9 9 -15 5 -5 8 -10 8 -11 0 -1 3 -6 8 -11 4 -6 9 -13 11 -16 1 -3
5 -7 8 -9 3 -2 7 -5 8 -8 2 -3 5 -8 8 -12 3 -4 10 -14 15 -24 6 -12 11 -18 16
-21 10 -7 25 -23 33 -38 1 -3 7 -11 13 -17 7 -7 11 -14 12 -20 2 -6 5 -10 9
-13 9 -7 9 -10 0 -21 -4 -5 -10 -15 -13 -22 -4 -7 -10 -17 -13 -21 -8 -10 -27
-47 -27 -52 0 -3 -4 -7 -9 -12 -5 -4 -9 -8 -9 -10 0 -1 -3 -6 -8 -11 -8 -10
-17 -27 -19 -38 0 -4 -3 -10 -6 -12 -11 -10 -17 -20 -20 -30 -2 -6 -5 -13 -8
-16 -2 -3 -8 -12 -12 -20 -4 -8 -11 -19 -14 -23 -4 -4 -9 -14 -13 -22 -5 -9
-9 -14 -13 -16 -5 -3 -8 -7 -10 -17 -1 -3 -4 -7 -7 -9 -7 -4 -8 -6 -10 -22 -2
-10 -3 -13 -13 -23 -8 -9 -11 -14 -12 -20 -1 -5 -4 -12 -8 -16 -3 -5 -8 -11
-10 -14 -2 -3 -7 -8 -10 -11 -5 -3 -7 -8 -8 -13 -2 -10 -8 -20 -18 -28 -9 -8
-11 -21 -4 -34 2 -3 3 -8 3 -11 0 -20 6 -25 32 -25 22 0 26 2 31 16 2 6 7 15
12 21 9 10 27 44 30 56 1 3 4 9 8 12 4 3 10 13 15 22 5 9 10 18 13 21 2 3 7
11 11 19 4 8 10 18 13 22 3 4 9 14 13 22 4 8 10 18 13 22 4 4 12 18 18 31 6
12 14 26 17 30 3 4 13 21 21 39 9 18 19 36 22 40 4 4 9 14 13 22 4 8 9 17 12
20 6 8 26 49 26 54 0 20 40 16 49 -5 2 -3 8 -11 13 -17 6 -6 12 -14 13 -18 2
-3 6 -10 10 -15 4 -4 7 -10 8 -12 1 -2 4 -6 8 -9 3 -2 9 -11 13 -18 4 -7 10
-17 13 -22 4 -4 7 -9 7 -10 0 -4 12 -17 18 -20 4 -2 7 -5 8 -12 2 -7 4 -10 9
-14 4 -2 9 -9 13 -17 4 -7 10 -17 13 -21 4 -4 8 -11 10 -14 1 -3 5 -7 8 -9 3
-2 6 -6 7 -11 3 -10 5 -12 14 -17 6 -3 9 -7 16 -21 6 -13 13 -23 24 -35 9 -9
16 -17 16 -19 0 -2 5 -9 11 -15 6 -7 13 -16 14 -19 2 -4 6 -10 9 -13 3 -4 7
-10 9 -14 2 -4 8 -12 13 -18 5 -6 11 -14 13 -18 6 -12 48 -15 57 -4 12 15 3
57 -19 80 -5 6 -10 13 -12 16 -1 3 -5 9 -8 13 -4 4 -8 11 -10 15 -2 4 -8 11
-13 17 -5 5 -11 13 -13 17 -2 4 -8 12 -14 19 -6 6 -11 12 -11 14 0 1 -3 7 -8
12 -4 6 -9 13 -11 16 -2 4 -6 8 -9 9 -4 3 -10 11 -25 34 -11 17 -18 26 -26 35
-5 5 -9 11 -9 13 0 3 -3 8 -8 12 -8 8 -22 26 -27 35 -1 4 -7 12 -13 18 -7 7
-11 14 -13 21 -3 8 -4 10 -12 14 -4 3 -10 8 -12 12 -2 3 -8 11 -12 17 -5 7 -9
13 -9 14 0 1 -5 7 -11 14 -6 6 -13 14 -14 18 -2 3 -7 10 -11 16 -5 5 -8 10 -8
11 0 1 -3 5 -6 9 -9 11 -3 33 15 55 4 4 7 10 8 13 1 3 2 8 2 10 1 2 7 9 13 16
9 9 12 14 13 21 1 5 3 11 8 16 3 4 10 14 14 22 4 8 10 19 14 23 4 4 12 18 18
31 8 15 15 26 21 33 8 8 11 13 13 21 1 5 5 13 9 17 3 5 9 14 13 22 4 8 10 18
13 21 3 4 11 18 17 31 8 16 16 28 24 36 6 8 11 15 11 18 0 7 9 24 17 30 5 4 8
8 10 16 2 6 5 12 7 14 8 7 11 15 12 36 1 36 -5 42 -39 40z"/>
<path d="M393 1088 c-9 -4 -9 -8 -8 -102 2 -112 -1 -105 33 -105 29 0 27 -8
29 111 1 104 3 98 -30 98 -11 0 -22 -1 -24 -2z"/>
<path d="M392 302 c-5 -4 -11 -169 -7 -191 3 -17 48 -22 60 -7 6 9 3 191 -4
197 -7 7 -42 7 -49 1z"/>
</g>
</svg>
