<?xml version="1.0" standalone="no"?>
<!DOCTYPE svg PUBLIC "-//W3C//DTD SVG 20010904//EN"
 "http://www.w3.org/TR/2001/REC-SVG-20010904/DTD/svg10.dtd">
<svg version="1.0" xmlns="http://www.w3.org/2000/svg"
 width="108.000000pt" height="148.000000pt" viewBox="0 0 108.000000 148.000000"
 preserveAspectRatio="xMidYMid meet">
<metadata>
Created by potrace 1.16, written by Peter Selinger 2001-2019
</metadata>
<g transform="translate(0.000000,148.000000) scale(0.100000,-0.100000)"
fill="#000000" stroke="none">
<path d="M850 1405 c-8 -9 -23 -34 -34 -55 -24 -44 -121 -215 -139 -245 -7
-11 -23 -38 -37 -60 -14 -22 -40 -70 -59 -107 -18 -37 -41 -70 -52 -73 -20 -7
-59 10 -59 25 0 10 -32 57 -104 157 -17 24 -74 102 -126 175 -117 161 -134
180 -163 176 -30 -4 -36 -61 -9 -92 10 -11 47 -61 82 -111 91 -128 205 -285
234 -320 57 -68 86 -108 86 -117 0 -11 -61 -116 -91 -158 -10 -14 -30 -50 -46
-80 -15 -30 -51 -90 -80 -132 -29 -43 -53 -84 -53 -92 0 -7 -7 -19 -15 -26 -8
-7 -15 -16 -15 -21 0 -5 -19 -36 -41 -70 -37 -53 -41 -64 -32 -92 6 -24 15
-33 35 -35 26 -3 41 15 98 123 13 24 91 155 140 235 37 60 107 190 116 215 7
21 18 31 35 33 21 2 33 -9 75 -69 43 -62 95 -133 163 -221 12 -14 21 -31 21
-37 0 -6 4 -11 9 -11 5 0 18 -15 30 -32 12 -18 47 -69 79 -113 49 -68 62 -80
90 -83 31 -3 32 -2 32 32 0 28 -14 54 -66 123 -36 48 -97 131 -135 183 -39 52
-110 149 -159 214 l-89 119 17 30 c21 36 38 64 60 98 9 15 35 57 57 93 22 37
45 75 50 84 6 9 29 51 53 92 24 41 52 89 62 105 40 63 62 113 58 131 -4 25
-59 31 -78 9z"/>
<path d="M482 1233 l3 -128 32 -3 c41 -4 45 9 41 148 l-3 105 -38 3 -38 3 3
-128z"/>
<path d="M487 374 c-4 -4 -7 -63 -7 -131 l0 -124 38 3 37 3 0 125 0 125 -30 3
c-17 2 -34 0 -38 -4z"/>
</g>
</svg>
