<?xml version="1.0" standalone="no"?>
<!DOCTYPE svg PUBLIC "-//W3C//DTD SVG 20010904//EN"
 "http://www.w3.org/TR/2001/REC-SVG-20010904/DTD/svg10.dtd">
<svg version="1.0" xmlns="http://www.w3.org/2000/svg"
 width="73.000000pt" height="100.000000pt" viewBox="0 0 73.000000 100.000000"
 preserveAspectRatio="xMidYMid meet">
<metadata>
Created by potrace 1.16, written by Peter Selinger 2001-2019
</metadata>
<g transform="translate(0.000000,100.000000) scale(0.100000,-0.100000)"
fill="#000000" stroke="none">
<path d="M567 938 c-13 -18 -64 -104 -112 -190 -61 -109 -94 -158 -106 -158
-10 0 -40 33 -74 83 -95 140 -186 262 -202 270 -21 13 -43 1 -43 -24 0 -12 24
-53 53 -93 29 -39 80 -107 112 -151 32 -44 71 -95 87 -113 15 -18 28 -40 28
-48 0 -15 -30 -68 -177 -309 -40 -66 -73 -127 -73 -135 0 -19 19 -40 36 -40
13 0 69 90 182 293 45 81 70 117 81 115 17 -3 27 -17 180 -231 58 -80 113
-148 122 -150 24 -7 42 17 34 43 -4 12 -72 108 -151 212 -79 105 -144 197
-144 206 0 8 20 46 44 86 136 223 187 317 184 338 -5 35 -33 33 -61 -4z"/>
<path d="M331 916 c-8 -9 -11 -42 -9 -93 3 -72 5 -78 25 -81 28 -4 35 20 31
113 -2 54 -7 70 -19 73 -9 1 -21 -4 -28 -12z"/>
<path d="M327 253 c-4 -3 -7 -41 -7 -83 0 -81 13 -109 45 -96 12 4 15 24 15
96 0 88 -1 90 -23 90 -13 0 -27 -3 -30 -7z"/>
</g>
</svg>
