<?xml version="1.0" standalone="no"?>
<!DOCTYPE svg PUBLIC "-//W3C//DTD SVG 20010904//EN"
 "http://www.w3.org/TR/2001/REC-SVG-20010904/DTD/svg10.dtd">
<svg version="1.0" xmlns="http://www.w3.org/2000/svg"
 width="73.000000pt" height="100.000000pt" viewBox="0 0 73.000000 100.000000"
 preserveAspectRatio="xMidYMid meet">
<metadata>
Created by potrace 1.16, written by Peter Selinger 2001-2019
</metadata>
<g transform="translate(0.000000,100.000000) scale(0.100000,-0.100000)"
fill="#000000" stroke="none">
<path d="M584 962 c-7 -4 -38 -54 -70 -112 -101 -184 -119 -213 -132 -218 -9
-3 -10 30 -5 147 5 135 4 151 -11 157 -9 3 -23 0 -32 -7 -13 -11 -15 -33 -8
-168 6 -137 5 -154 -8 -144 -8 7 -63 82 -123 168 -102 145 -131 175 -155 160
-26 -16 0 -62 133 -238 78 -104 141 -196 139 -204 -3 -15 -86 -152 -199 -330
-55 -88 -61 -100 -49 -118 33 -50 42 -39 176 203 40 72 77 132 83 132 6 0 7
-55 2 -158 -6 -134 -4 -160 8 -170 12 -10 18 -9 32 5 16 15 17 34 13 185 -3
93 -2 170 2 173 4 3 20 -14 35 -38 81 -123 238 -337 249 -337 17 0 36 21 36
40 0 9 -67 104 -149 212 -82 108 -152 201 -156 207 -3 7 16 46 43 89 27 42 78
126 113 185 35 59 71 119 79 132 12 19 12 26 1 39 -15 17 -29 20 -47 8z"/>
</g>
</svg>
