<?xml version="1.0" standalone="no"?>
<!DOCTYPE svg PUBLIC "-//W3C//DTD SVG 20010904//EN"
 "http://www.w3.org/TR/2001/REC-SVG-20010904/DTD/svg10.dtd">
<svg version="1.0" xmlns="http://www.w3.org/2000/svg"
 width="108.000000pt" height="148.000000pt" viewBox="0 0 108.000000 148.000000"
 preserveAspectRatio="xMidYMid meet">
<metadata>
Created by potrace 1.16, written by Peter Selinger 2001-2019
</metadata>
<g transform="translate(0.000000,148.000000) scale(0.100000,-0.100000)"
fill="#000000" stroke="none">
<path d="M835 1380 c-14 -22 -25 -42 -25 -44 0 -2 -19 -37 -43 -78 -85 -143
-176 -307 -188 -335 -10 -27 -43 -32 -35 -5 2 9 6 113 8 231 3 195 1 215 -15
225 -12 8 -22 8 -35 0 -15 -10 -17 -28 -17 -130 0 -66 2 -171 5 -234 3 -72 1
-117 -5 -120 -5 -3 -39 38 -75 91 -36 54 -85 123 -109 155 -25 33 -56 75 -71
94 -14 19 -45 63 -68 97 -57 84 -112 99 -112 32 0 -31 14 -51 307 -444 107
-142 125 -176 104 -189 -8 -5 -42 -61 -101 -164 -9 -15 -43 -71 -75 -126 -88
-145 -96 -159 -137 -229 -21 -36 -44 -67 -52 -70 -13 -5 -13 -12 -4 -39 15
-45 22 -52 51 -44 19 4 42 35 95 128 38 68 86 152 107 188 20 36 55 99 78 140
52 97 58 105 68 88 5 -7 7 -20 5 -28 -3 -8 -7 -120 -11 -247 -7 -232 -7 -233
14 -233 12 0 21 4 21 9 0 5 9 11 20 14 20 5 20 10 14 266 -5 174 -4 261 3 261
6 0 32 -33 58 -72 27 -40 82 -118 122 -173 171 -232 213 -290 213 -297 0 -5
16 -8 35 -8 33 0 35 2 35 35 0 36 -7 46 -312 453 -68 90 -127 170 -132 176 -6
9 1 28 21 57 17 24 74 118 128 209 54 91 115 193 136 227 22 34 39 67 39 72 0
4 7 14 15 21 8 7 15 28 15 46 0 32 -2 34 -35 34 -30 0 -38 -6 -60 -40z"/>
</g>
</svg>
