<?xml version="1.0" standalone="no"?>
<!DOCTYPE svg PUBLIC "-//W3C//DTD SVG 20010904//EN"
 "http://www.w3.org/TR/2001/REC-SVG-20010904/DTD/svg10.dtd">
<svg version="1.0" xmlns="http://www.w3.org/2000/svg"
 width="430.000000pt" height="590.000000pt" viewBox="0 0 430.000000 590.000000"
 preserveAspectRatio="xMidYMid meet">
<metadata>
Created by potrace 1.16, written by Peter Selinger 2001-2019
</metadata>
<g transform="translate(0.000000,590.000000) scale(0.500000,-0.500000)"
fill="#000000" stroke="none">
<path d="M706 1140 c-19 -2 -26 -9 -42 -40 -3 -5 -7 -12 -9 -15 -3 -3 -8 -12
-11 -20 -4 -8 -10 -18 -13 -23 -14 -22 -22 -36 -29 -51 -5 -9 -12 -21 -15 -27
-12 -19 -21 -34 -28 -49 -4 -8 -11 -19 -15 -26 -9 -14 -15 -26 -24 -42 -4 -7
-9 -16 -12 -20 -3 -4 -8 -14 -12 -22 -3 -7 -8 -16 -11 -20 -2 -3 -6 -10 -9
-15 -16 -31 -29 -49 -32 -44 -3 3 -1 163 2 284 2 92 4 89 -33 88 -32 -1 -29
28 -23 -262 2 -102 2 -115 -3 -117 -6 -2 -23 18 -43 50 -8 13 -18 27 -35 49
-3 5 -9 14 -12 20 -3 5 -8 14 -13 18 -4 5 -11 14 -16 22 -6 7 -13 18 -17 23
-4 6 -12 16 -17 23 -6 7 -17 23 -25 35 -8 12 -20 28 -25 35 -19 25 -44 60 -67
93 -18 26 -42 36 -69 27 -15 -6 -15 -46 1 -64 3 -4 9 -11 12 -16 5 -7 18 -25
47 -64 4 -6 13 -17 18 -24 5 -7 17 -22 25 -34 18 -25 25 -34 34 -46 15 -19 21
-28 33 -45 7 -10 16 -22 19 -26 11 -13 38 -48 56 -72 5 -8 15 -22 22 -30 70
-89 70 -89 46 -120 -2 -3 -8 -13 -13 -22 -5 -9 -13 -23 -19 -31 -6 -8 -12 -19
-14 -23 -3 -8 -13 -23 -22 -33 -4 -4 -8 -11 -9 -15 -4 -11 -11 -25 -21 -40
-10 -15 -18 -28 -27 -44 -3 -6 -8 -15 -11 -18 -2 -3 -7 -12 -11 -19 -7 -13
-31 -50 -43 -66 -4 -5 -8 -12 -8 -16 -1 -5 -5 -12 -9 -18 -10 -13 -17 -23 -23
-36 -3 -6 -10 -18 -16 -26 -13 -17 -14 -19 -16 -28 -1 -8 -8 -16 -18 -21 -14
-7 -16 -19 -6 -34 2 -5 5 -12 6 -18 2 -23 50 -29 61 -8 3 6 12 21 28 48 4 7
11 20 16 29 5 9 14 25 20 35 6 10 15 26 20 35 5 9 12 22 15 27 13 21 21 35 30
52 6 10 15 26 21 36 17 28 26 44 38 67 48 89 57 101 60 84 1 -4 0 -93 -1 -197
-4 -177 -4 -191 0 -196 6 -10 24 -9 32 2 2 5 7 8 11 9 17 5 16 -11 12 208 -2
115 -3 206 -1 211 3 7 11 0 38 -37 6 -8 14 -19 18 -25 4 -5 13 -18 19 -28 12
-18 17 -26 39 -55 6 -8 18 -25 26 -37 8 -12 19 -27 24 -33 4 -6 11 -15 14 -20
3 -5 8 -11 11 -15 3 -3 12 -15 20 -27 13 -19 22 -32 36 -50 11 -14 24 -33 35
-49 39 -57 41 -59 62 -60 30 -3 35 2 35 33 0 24 0 25 -16 45 -7 9 -18 25 -25
35 -8 10 -16 22 -19 25 -3 4 -10 13 -16 22 -6 8 -13 18 -16 22 -3 3 -11 14
-18 24 -7 10 -20 27 -28 38 -8 11 -17 23 -20 27 -2 4 -7 9 -9 12 -3 3 -10 13
-17 23 -7 10 -16 23 -20 28 -16 19 -31 39 -45 59 -7 10 -15 21 -18 24 -2 3 -6
8 -9 12 -3 4 -8 11 -12 16 -12 13 -21 25 -32 42 -6 8 -14 18 -17 22 -27 30
-27 32 11 88 4 6 9 15 12 20 4 8 11 20 29 48 4 5 11 17 16 26 5 9 14 25 20 34
6 9 13 21 17 27 3 5 8 14 11 19 4 5 9 15 13 21 3 7 9 17 13 23 4 6 9 15 11 19
3 4 7 11 9 14 3 3 8 13 12 21 4 8 10 18 13 21 2 3 7 10 9 16 3 5 8 13 10 16 3
3 8 12 12 20 7 14 12 21 32 53 13 19 15 26 15 45 0 27 -8 32 -42 29z"/>
</g>
</svg>
