<?xml version="1.0" standalone="no"?>
<!DOCTYPE svg PUBLIC "-//W3C//DTD SVG 20010904//EN"
 "http://www.w3.org/TR/2001/REC-SVG-20010904/DTD/svg10.dtd">
<svg version="1.0" xmlns="http://www.w3.org/2000/svg"
 width="110.000000pt" height="148.000000pt" viewBox="0 0 110.000000 148.000000"
 preserveAspectRatio="xMidYMid meet">
<metadata>
Created by potrace 1.16, written by Peter Selinger 2001-2019
</metadata>
<g transform="translate(0.000000,148.000000) scale(0.100000,-0.100000)"
fill="#000000" stroke="none">
<path d="M475 1355 c-49 -31 -165 -101 -258 -157 -92 -55 -167 -106 -167 -112
0 -6 11 -24 24 -41 l24 -29 39 26 c21 14 115 72 209 128 93 57 176 109 185
116 25 22 45 17 106 -30 32 -24 72 -52 90 -62 48 -28 238 -166 241 -176 2 -4
10 -8 17 -8 18 0 60 69 49 79 -9 8 -60 44 -279 194 -71 49 -139 97 -151 108
-11 10 -24 19 -30 19 -5 0 -49 -25 -99 -55z"/>
<path d="M200 1028 c0 -22 74 -145 212 -353 85 -127 90 -108 -109 -408 -71
-106 -93 -147 -93 -173 0 -38 12 -48 43 -40 20 5 168 220 245 355 13 23 29 41
36 41 6 0 20 -15 31 -32 10 -18 65 -104 123 -191 l104 -158 41 3 c55 4 58 28
12 90 -19 26 -84 121 -145 211 -82 123 -110 173 -110 196 0 23 33 86 116 223
64 106 122 201 130 212 24 35 17 46 -30 46 -42 0 -44 -1 -90 -70 -25 -38 -46
-72 -46 -74 0 -3 -29 -55 -65 -116 -36 -61 -65 -115 -65 -121 0 -5 -7 -9 -15
-9 -8 0 -15 4 -15 8 0 10 -206 341 -227 365 -9 10 -30 17 -50 17 -28 0 -33 -4
-33 -22z"/>
</g>
</svg>
