<?xml version="1.0" standalone="no"?>
<!DOCTYPE svg PUBLIC "-//W3C//DTD SVG 20010904//EN"
 "http://www.w3.org/TR/2001/REC-SVG-20010904/DTD/svg10.dtd">
<svg version="1.0" xmlns="http://www.w3.org/2000/svg"
 width="442.000000pt" height="590.000000pt" viewBox="0 0 442.000000 590.000000"
 preserveAspectRatio="xMidYMid meet">
<metadata>
Created by potrace 1.16, written by Peter Selinger 2001-2019
</metadata>
<g transform="translate(0.000000,590.000000) scale(0.500000,-0.500000)"
fill="#000000" stroke="none">
<path d="M437 1116 c-20 -10 -43 -24 -147 -87 -62 -38 -151 -91 -193 -116 -57
-34 -58 -36 -46 -59 24 -43 27 -44 61 -23 60 38 113 71 163 100 25 15 100 60
156 95 28 17 22 19 92 -29 33 -23 65 -44 70 -46 6 -3 11 -6 12 -9 2 -2 20 -15
40 -30 35 -24 63 -43 121 -85 33 -23 37 -22 58 9 22 33 21 34 -61 89 -70 47
-195 133 -236 162 -11 7 -25 19 -32 25 -21 20 -27 21 -58 4z"/>
<path d="M171 842 c-21 -7 -13 -35 27 -95 5 -7 12 -18 15 -23 8 -13 20 -32 28
-44 4 -5 13 -19 20 -31 12 -19 28 -44 48 -74 3 -4 11 -16 17 -26 7 -10 16 -24
22 -32 5 -8 11 -16 12 -19 1 -3 6 -10 11 -16 9 -13 13 -35 6 -48 -1 -3 -4 -10
-5 -15 -1 -5 -6 -14 -10 -20 -4 -5 -9 -15 -11 -21 -2 -9 -6 -15 -15 -25 -7 -8
-14 -18 -16 -22 -3 -10 -16 -30 -34 -55 -9 -11 -16 -21 -16 -22 0 -1 -7 -11
-14 -22 -8 -11 -18 -25 -23 -31 -13 -21 -25 -37 -38 -56 -41 -56 -40 -95 2
-98 21 -2 26 1 40 23 7 10 17 26 23 34 25 38 41 62 46 70 2 5 9 15 14 22 5 7
12 18 15 23 3 6 11 18 18 27 7 9 14 20 16 24 2 4 8 13 14 21 5 8 12 18 15 23
27 50 36 53 56 21 4 -6 12 -18 18 -27 5 -8 12 -19 16 -25 3 -5 8 -13 12 -19 4
-5 12 -17 17 -27 6 -9 16 -24 22 -32 5 -8 13 -18 16 -24 3 -5 10 -16 15 -23 5
-7 12 -17 15 -23 3 -5 11 -18 18 -27 7 -9 14 -21 17 -25 11 -23 22 -29 53 -29
36 0 48 25 27 57 -4 5 -11 15 -15 21 -4 6 -11 16 -16 22 -5 6 -11 14 -13 17
-10 17 -32 51 -37 56 -3 4 -8 12 -12 18 -3 7 -11 18 -16 25 -6 6 -14 19 -20
28 -5 9 -16 25 -24 35 -8 11 -17 25 -20 30 -3 6 -11 17 -18 25 -43 56 -43 75
-3 138 6 10 14 23 17 27 2 4 9 16 15 25 6 9 16 26 22 36 6 10 16 27 22 36 16
25 36 59 56 93 10 17 21 35 25 40 35 53 34 57 -13 57 -36 0 -40 -1 -47 -14 -3
-5 -8 -13 -12 -19 -4 -5 -9 -13 -11 -18 -3 -4 -11 -18 -20 -30 -9 -13 -19 -30
-23 -38 -4 -9 -10 -20 -13 -25 -3 -5 -12 -20 -20 -34 -8 -14 -18 -30 -22 -37
-4 -7 -14 -24 -22 -38 -35 -61 -37 -62 -63 -17 -4 6 -10 17 -14 23 -5 7 -13
19 -18 28 -6 9 -13 21 -17 26 -3 6 -11 19 -17 29 -6 10 -16 26 -22 35 -6 9
-16 25 -24 37 -7 12 -16 26 -21 33 -4 7 -14 22 -22 34 -19 28 -42 36 -71 27z"/>
</g>
</svg>
