<?xml version="1.0" standalone="no"?>
<!DOCTYPE svg PUBLIC "-//W3C//DTD SVG 20010904//EN"
 "http://www.w3.org/TR/2001/REC-SVG-20010904/DTD/svg10.dtd">
<svg version="1.0" xmlns="http://www.w3.org/2000/svg"
 width="74.000000pt" height="100.000000pt" viewBox="0 0 74.000000 100.000000"
 preserveAspectRatio="xMidYMid meet">
<metadata>
Created by potrace 1.16, written by Peter Selinger 2001-2019
</metadata>
<g transform="translate(0.000000,100.000000) scale(0.100000,-0.100000)"
fill="#000000" stroke="none">
<path d="M320 920 c-25 -15 -97 -59 -160 -98 -92 -55 -116 -74 -118 -94 -7
-56 38 -38 274 112 27 16 55 30 64 30 10 0 68 -37 131 -81 168 -120 154 -113
173 -94 9 9 16 23 16 30 0 8 -37 39 -82 71 -46 32 -113 79 -149 106 -37 26
-75 48 -85 47 -11 0 -39 -13 -64 -29z"/>
<path d="M140 687 c0 -13 36 -78 80 -145 113 -173 107 -154 69 -220 -17 -31
-57 -95 -89 -142 -68 -103 -72 -113 -55 -137 21 -28 42 -9 117 113 86 140 93
149 104 142 5 -4 43 -61 84 -127 72 -117 100 -144 129 -126 23 14 8 46 -84
181 -52 76 -95 147 -95 158 0 10 39 83 86 162 47 79 82 148 79 154 -3 5 -17
10 -31 10 -27 0 -41 -20 -127 -170 -23 -41 -49 -75 -57 -75 -8 0 -29 27 -48
60 -74 132 -113 185 -138 185 -18 0 -24 -5 -24 -23z"/>
</g>
</svg>
