<?xml version="1.0" standalone="no"?>
<!DOCTYPE svg PUBLIC "-//W3C//DTD SVG 20010904//EN"
 "http://www.w3.org/TR/2001/REC-SVG-20010904/DTD/svg10.dtd">
<svg version="1.0" xmlns="http://www.w3.org/2000/svg"
 width="486.000000pt" height="590.000000pt" viewBox="0 0 486.000000 590.000000"
 preserveAspectRatio="xMidYMid meet">
<metadata>
Created by potrace 1.16, written by Peter Selinger 2001-2019
</metadata>
<g transform="translate(0.000000,590.000000) scale(0.500000,-0.500000)"
fill="#000000" stroke="none">
<path d="M348 1134 c-3 -1 -72 -2 -153 -3 -114 -1 -148 -2 -151 -4 -6 -5 -8
-251 -1 -259 6 -7 40 -6 49 1 11 9 14 63 5 100 -4 16 -4 59 0 72 2 5 3 14 3
19 0 5 1 11 3 14 4 5 746 7 754 1 6 -4 7 -57 1 -79 -5 -20 -6 -109 -1 -123 2
-4 3 -14 3 -20 0 -20 4 -24 28 -24 29 0 28 -3 28 68 0 46 1 60 3 68 5 17 4
155 -2 161 -3 4 -25 6 -50 6 -118 -1 -503 1 -508 2 -3 1 -6 2 -6 2 0 0 -2 -1
-5 -2z"/>
<path d="M196 914 c-22 -1 -30 -34 -13 -57 4 -6 9 -13 11 -16 8 -13 19 -28 25
-35 4 -4 9 -10 11 -14 15 -23 25 -36 26 -37 1 -1 8 -10 15 -21 7 -11 14 -21
16 -22 2 -1 9 -11 16 -22 8 -10 17 -23 22 -29 4 -5 12 -17 18 -25 5 -9 11 -17
13 -19 3 -2 9 -10 15 -18 6 -8 16 -21 23 -30 7 -9 12 -16 12 -17 0 -1 4 -6 8
-11 18 -20 10 -46 -27 -88 -6 -7 -14 -18 -19 -25 -5 -7 -13 -20 -18 -27 -6 -8
-12 -16 -15 -18 -2 -2 -9 -10 -14 -19 -15 -24 -19 -31 -50 -72 -6 -9 -16 -23
-20 -30 -4 -7 -14 -21 -22 -32 -23 -30 -33 -45 -35 -49 -4 -9 -20 -28 -30 -36
-5 -4 -12 -11 -15 -14 -2 -4 -7 -10 -10 -14 -8 -11 -9 -61 -1 -67 13 -11 55
-4 62 10 5 10 25 39 31 46 2 2 6 7 8 11 8 12 35 52 43 62 4 5 11 15 15 22 7
12 12 19 34 49 7 9 14 19 16 23 10 16 30 47 37 55 7 9 13 17 34 51 8 13 14 19
22 25 11 8 26 22 30 30 5 9 17 6 27 -8 4 -7 12 -18 18 -26 5 -7 10 -16 12 -19
1 -3 5 -10 9 -14 15 -18 22 -26 25 -32 1 -4 5 -9 8 -13 3 -4 8 -10 10 -13 5
-8 21 -30 34 -48 5 -7 11 -16 14 -21 3 -5 9 -12 12 -17 4 -4 7 -8 7 -9 0 0 6
-10 14 -20 8 -10 20 -28 28 -40 8 -12 16 -23 18 -25 2 -3 4 -8 5 -12 1 -5 6
-12 18 -25 9 -9 19 -21 22 -25 9 -11 42 -13 52 -4 15 12 8 64 -10 83 -32 32
-39 40 -48 56 -6 10 -13 19 -15 21 -3 2 -11 13 -18 24 -7 11 -15 22 -18 24 -2
2 -7 8 -9 14 -6 10 -14 21 -23 32 -3 3 -12 15 -19 25 -17 24 -28 38 -38 50 -5
5 -13 16 -18 24 -5 8 -13 20 -18 26 -5 6 -14 16 -19 24 -5 7 -12 17 -16 21 -9
10 -12 15 -12 22 0 5 1 8 12 32 7 16 24 37 45 54 23 19 33 29 36 39 2 6 7 13
16 22 7 8 14 17 16 21 6 15 8 17 16 22 13 8 17 13 21 31 7 30 7 29 19 33 10 4
10 4 14 16 5 15 11 23 30 33 15 10 19 14 19 23 0 10 4 20 11 29 12 14 7 27
-15 38 -27 13 -59 7 -71 -14 -3 -5 -8 -12 -11 -15 -3 -3 -11 -14 -17 -24 -12
-17 -23 -33 -36 -50 -3 -5 -13 -20 -22 -34 -9 -14 -20 -29 -23 -33 -4 -4 -11
-14 -15 -21 -4 -7 -10 -16 -12 -19 -3 -3 -9 -12 -14 -21 -6 -9 -13 -20 -17
-25 -4 -5 -13 -17 -19 -27 -32 -49 -34 -50 -59 -8 -18 31 -17 30 -30 44 -7 7
-15 18 -18 25 -4 7 -12 19 -18 25 -6 7 -12 15 -13 19 -1 3 -8 14 -16 23 -9 11
-16 22 -18 27 -2 6 -8 14 -17 24 -8 8 -15 17 -17 20 -5 9 -15 24 -23 34 -5 6
-9 13 -10 20 -3 14 -8 20 -24 31 -16 11 -25 13 -46 11z"/>
</g>
</svg>
