<?xml version="1.0" standalone="no"?>
<!DOCTYPE svg PUBLIC "-//W3C//DTD SVG 20010904//EN"
 "http://www.w3.org/TR/2001/REC-SVG-20010904/DTD/svg10.dtd">
<svg version="1.0" xmlns="http://www.w3.org/2000/svg"
 width="122.000000pt" height="148.000000pt" viewBox="0 0 122.000000 148.000000"
 preserveAspectRatio="xMidYMid meet">
<metadata>
Created by potrace 1.16, written by Peter Selinger 2001-2019
</metadata>
<g transform="translate(0.000000,148.000000) scale(0.100000,-0.100000)"
fill="#000000" stroke="none">
<path d="M55 1409 c-3 -4 -7 -263 -5 -317 0 -9 11 -12 33 -10 l32 3 0 100 c1
55 2 115 3 133 l2 32 480 0 481 0 -7 -143 c-6 -128 -5 -144 11 -160 9 -10 25
-17 34 -15 13 3 17 24 24 123 4 66 6 151 5 188 l-3 69 -543 1 c-299 1 -546 -1
-547 -4z"/>
<path d="M216 1125 c-8 -22 2 -42 53 -111 25 -33 60 -80 76 -103 17 -23 65
-89 108 -146 42 -57 77 -113 77 -123 0 -10 -28 -57 -62 -103 -35 -46 -75 -102
-90 -124 -81 -120 -156 -224 -180 -248 -50 -53 -46 -117 8 -117 17 0 32 14 58
53 19 28 55 81 80 117 93 131 141 202 161 234 21 35 82 96 95 96 8 0 42 -43
65 -81 10 -17 188 -268 251 -352 23 -33 36 -42 60 -42 28 0 29 2 28 42 -1 34
-8 51 -40 86 -21 25 -54 67 -73 93 -19 27 -49 68 -65 92 -17 24 -64 86 -103
138 -40 51 -73 102 -73 112 0 23 52 97 78 111 10 5 36 37 56 70 21 33 44 62
51 65 7 2 16 19 20 36 4 17 13 34 21 37 8 3 14 11 14 18 0 8 13 23 29 35 27
18 61 70 61 91 0 5 -13 15 -29 24 -45 23 -69 7 -130 -81 -30 -44 -92 -134
-138 -201 -47 -68 -90 -123 -97 -123 -7 0 -18 12 -25 27 -13 29 -125 189 -179
255 -18 23 -40 55 -49 72 -8 17 -22 39 -31 49 -19 21 -78 23 -86 2z"/>
</g>
</svg>
