<?xml version="1.0" standalone="no"?>
<!DOCTYPE svg PUBLIC "-//W3C//DTD SVG 20010904//EN"
 "http://www.w3.org/TR/2001/REC-SVG-20010904/DTD/svg10.dtd">
<svg version="1.0" xmlns="http://www.w3.org/2000/svg"
 width="80.000000pt" height="100.000000pt" viewBox="0 0 80.000000 100.000000"
 preserveAspectRatio="xMidYMid meet">
<metadata>
Created by potrace 1.16, written by Peter Selinger 2001-2019
</metadata>
<g transform="translate(0.000000,100.000000) scale(0.100000,-0.100000)"
fill="#000000" stroke="none">
<path d="M307 963 c-10 -10 -8 -136 2 -152 5 -8 16 -11 25 -8 13 5 16 22 16
87 0 71 -2 80 -18 80 -10 0 -22 -3 -25 -7z"/>
<path d="M394 957 c-3 -8 -4 -45 -2 -83 3 -61 5 -69 23 -69 18 0 20 7 20 80 0
68 -3 80 -18 83 -9 2 -20 -3 -23 -11z"/>
<path d="M77 933 c-16 -16 -3 -46 60 -134 36 -52 95 -138 131 -193 l64 -98
-83 -122 c-45 -66 -104 -151 -131 -187 -32 -45 -48 -76 -48 -97 0 -30 18 -46
42 -36 13 5 232 326 244 357 11 31 30 18 70 -45 85 -140 195 -303 208 -310 8
-5 21 -5 30 -2 36 14 16 59 -110 244 -70 102 -127 190 -128 197 -1 13 8 27
164 246 70 98 90 134 88 155 -2 23 -8 27 -33 27 -28 0 -38 -13 -142 -170 -62
-93 -119 -171 -127 -173 -10 -2 -25 12 -38 35 -12 21 -50 80 -85 131 -34 50
-74 112 -89 137 -21 36 -31 45 -53 45 -15 0 -31 -3 -34 -7z"/>
<path d="M27 593 c-4 -3 -7 -39 -7 -80 0 -57 3 -75 15 -80 22 -8 27 0 32 51 9
80 -12 138 -40 109z"/>
<path d="M104 587 c-3 -8 -4 -45 -2 -83 3 -62 5 -69 24 -72 19 -3 23 3 29 43
10 68 -2 125 -26 125 -11 0 -22 -6 -25 -13z"/>
<path d="M644 577 c-3 -8 -4 -45 -2 -83 3 -61 5 -69 23 -69 18 0 20 7 20 80 0
68 -3 80 -18 83 -9 2 -20 -3 -23 -11z"/>
<path d="M734 577 c-3 -8 -4 -45 -2 -83 2 -55 6 -69 20 -72 13 -3 18 8 23 51
4 30 4 69 0 86 -7 32 -31 42 -41 18z"/>
<path d="M317 194 c-4 -4 -7 -43 -7 -86 0 -77 1 -79 23 -76 21 3 22 8 22 83 0
64 -3 80 -15 83 -9 1 -19 0 -23 -4z"/>
<path d="M396 132 c-8 -81 -2 -104 28 -100 18 3 21 11 24 63 4 76 -3 105 -27
105 -15 0 -19 -11 -25 -68z"/>
</g>
</svg>
