<?xml version="1.0" standalone="no"?>
<!DOCTYPE svg PUBLIC "-//W3C//DTD SVG 20010904//EN"
 "http://www.w3.org/TR/2001/REC-SVG-20010904/DTD/svg10.dtd">
<svg version="1.0" xmlns="http://www.w3.org/2000/svg"
 width="118.000000pt" height="148.000000pt" viewBox="0 0 118.000000 148.000000"
 preserveAspectRatio="xMidYMid meet">
<metadata>
Created by potrace 1.16, written by Peter Selinger 2001-2019
</metadata>
<g transform="translate(0.000000,148.000000) scale(0.100000,-0.100000)"
fill="#000000" stroke="none">
<path d="M452 1313 l3 -118 30 0 30 0 0 115 0 115 -33 3 -33 3 3 -118z"/>
<path d="M579 1420 c0 -5 0 -56 -1 -112 0 -107 8 -129 46 -115 13 5 16 24 16
122 l0 115 -30 0 c-16 0 -30 -4 -31 -10z"/>
<path d="M110 1349 c0 -29 46 -102 277 -436 34 -50 63 -96 63 -101 0 -5 9 -17
20 -27 11 -10 20 -22 20 -27 0 -8 -36 -65 -97 -153 -233 -337 -277 -405 -285
-439 -10 -45 2 -66 38 -66 29 0 29 -1 150 180 53 80 130 194 170 255 41 60 74
113 74 117 0 18 31 6 40 -14 11 -28 76 -129 228 -357 101 -150 117 -170 145
-174 42 -6 47 -2 47 39 0 29 -32 82 -182 305 -101 148 -187 276 -193 284 -12
18 -11 19 107 187 48 68 106 151 130 186 24 35 64 92 91 127 38 52 47 72 47
105 l0 41 -46 -3 -47 -3 -144 -215 c-80 -118 -156 -234 -170 -257 -14 -24 -31
-43 -38 -43 -15 0 -8 -9 -202 283 l-157 237 -43 0 c-41 0 -43 -1 -43 -31z"/>
<path d="M30 765 c0 -98 3 -117 16 -122 38 -14 46 7 46 122 l0 110 -31 3 -31
3 0 -116z"/>
<path d="M155 867 c-3 -7 -4 -60 -3 -118 l3 -104 30 0 30 0 0 115 0 115 -28 3
c-16 2 -29 -2 -32 -11z"/>
<path d="M950 746 c0 -107 1 -114 21 -119 45 -12 49 -2 49 119 l0 114 -35 0
-35 0 0 -114z"/>
<path d="M1079 855 c0 -3 0 -53 -1 -112 0 -96 2 -108 18 -114 40 -14 44 -2 44
117 l0 114 -30 0 c-16 0 -30 -2 -31 -5z"/>
<path d="M464 267 c-2 -7 -3 -58 -2 -113 l3 -99 30 0 30 0 3 113 3 112 -31 0
c-17 0 -33 -6 -36 -13z"/>
<path d="M589 275 c0 -3 0 -53 -1 -112 l0 -108 31 -3 31 -3 0 115 0 116 -30 0
c-16 0 -30 -2 -31 -5z"/>
</g>
</svg>
