<?xml version="1.0" standalone="no"?>
<!DOCTYPE svg PUBLIC "-//W3C//DTD SVG 20010904//EN"
 "http://www.w3.org/TR/2001/REC-SVG-20010904/DTD/svg10.dtd">
<svg version="1.0" xmlns="http://www.w3.org/2000/svg"
 width="472.000000pt" height="590.000000pt" viewBox="0 0 472.000000 590.000000"
 preserveAspectRatio="xMidYMid meet">
<metadata>
Created by potrace 1.16, written by Peter Selinger 2001-2019
</metadata>
<g transform="translate(0.000000,590.000000) scale(0.500000,-0.500000)"
fill="#000000" stroke="none">
<path d="M375 1144 c-11 -3 -11 -3 -11 -94 1 -97 0 -91 21 -93 16 -2 28 1 31
8 3 8 3 169 -1 174 -4 6 -26 9 -40 5z"/>
<path d="M477 1144 c-15 -3 -15 -4 -14 -97 2 -96 0 -90 27 -90 27 0 25 -6 27
92 2 101 0 105 -40 95z"/>
<path d="M99 1106 c-11 -6 -13 -51 -3 -64 3 -4 8 -12 12 -18 5 -6 12 -17 18
-25 5 -8 11 -17 13 -20 2 -3 5 -8 7 -10 2 -2 10 -13 17 -24 7 -11 16 -25 20
-31 4 -6 11 -15 15 -19 4 -5 10 -12 13 -17 3 -5 7 -12 10 -16 12 -17 18 -26
27 -40 6 -8 13 -19 16 -23 3 -4 11 -16 17 -26 7 -9 15 -21 18 -26 3 -5 13 -19
22 -31 8 -13 20 -30 26 -38 6 -9 12 -20 14 -24 1 -5 6 -14 10 -19 4 -6 10 -14
13 -18 9 -13 7 -23 -8 -41 -9 -11 -31 -44 -36 -54 -9 -19 -26 -44 -34 -50 -3
-2 -11 -12 -17 -21 -16 -24 -16 -25 -27 -40 -5 -8 -15 -22 -21 -32 -7 -10 -15
-22 -19 -27 -4 -6 -11 -16 -16 -24 -5 -8 -13 -19 -17 -24 -5 -5 -13 -16 -18
-24 -13 -21 -29 -43 -36 -53 -3 -5 -9 -13 -12 -19 -3 -6 -10 -15 -14 -21 -24
-30 -24 -31 -25 -62 -1 -38 0 -40 30 -41 34 -1 36 1 63 46 6 10 14 21 17 26 4
6 10 14 13 19 3 6 12 19 19 30 7 10 16 23 19 29 3 5 9 13 13 17 5 5 8 10 8 11
0 1 3 6 8 12 4 5 11 16 15 23 4 8 12 18 17 24 5 5 11 14 14 18 4 9 17 27 36
56 3 5 6 9 6 10 0 1 5 8 10 14 6 7 14 19 19 27 5 8 12 20 16 25 4 6 11 17 17
26 15 24 16 25 21 26 6 2 29 -24 29 -32 0 -1 11 -18 22 -34 2 -3 9 -13 14 -22
5 -9 12 -20 15 -24 4 -4 10 -14 15 -22 5 -8 15 -23 22 -34 7 -10 18 -27 23
-36 6 -10 12 -19 15 -22 4 -5 20 -30 24 -37 1 -3 6 -9 10 -13 4 -4 12 -16 18
-25 6 -9 13 -21 16 -25 6 -8 14 -21 31 -47 5 -8 12 -19 15 -24 4 -5 10 -15 15
-23 11 -18 14 -19 44 -19 33 0 33 0 33 38 0 32 1 29 -18 55 -16 23 -18 27 -41
61 -11 16 -21 31 -23 34 -2 3 -9 11 -14 19 -6 8 -14 19 -19 26 -11 15 -24 34
-47 69 -9 14 -57 85 -77 113 -52 75 -65 95 -66 102 -2 7 11 29 22 39 3 3 10
12 16 21 14 21 15 24 27 40 14 20 26 37 29 44 2 3 8 10 13 16 5 5 14 17 20 26
5 9 12 19 15 23 5 7 30 44 38 57 2 4 7 10 10 14 4 3 10 11 14 17 4 6 10 15 13
20 8 11 16 22 28 41 5 8 13 18 17 23 5 5 14 17 20 27 7 10 15 22 18 26 23 34
2 74 -39 73 -36 -1 -36 -1 -73 -61 -5 -9 -15 -25 -22 -35 -7 -10 -17 -25 -22
-34 -6 -8 -14 -20 -18 -24 -4 -5 -9 -13 -12 -16 -5 -9 -15 -25 -23 -36 -4 -5
-10 -15 -15 -23 -5 -8 -11 -17 -14 -21 -3 -4 -10 -15 -16 -25 -7 -10 -14 -21
-16 -24 -3 -3 -5 -6 -5 -8 0 -1 -4 -7 -9 -12 -4 -6 -11 -14 -14 -19 -3 -5 -9
-14 -13 -21 -5 -7 -10 -15 -12 -18 -21 -34 -26 -40 -33 -38 -7 2 -33 30 -44
49 -5 9 -16 27 -24 38 -8 12 -17 27 -21 33 -4 6 -10 15 -14 20 -3 5 -8 13 -11
17 -2 4 -6 10 -8 14 -2 3 -11 16 -19 28 -8 12 -19 28 -23 35 -4 7 -12 18 -18
25 -5 6 -11 14 -13 18 -2 4 -8 12 -12 18 -17 27 -32 50 -47 74 -31 48 -29 46
-64 46 -13 0 -26 -1 -28 -2z"/>
<path d="M33 706 c-9 -4 -9 -9 -9 -98 1 -100 -1 -92 28 -92 28 0 26 -8 26 96
0 102 2 96 -25 96 -9 0 -18 -1 -20 -2z"/>
<path d="M132 705 c-9 -5 -9 -7 -8 -175 0 -18 44 -21 51 -3 6 14 2 169 -4 175
-6 6 -30 8 -39 3z"/>
<path d="M779 692 c-16 -3 -15 0 -15 -94 0 -54 1 -86 2 -88 7 -14 47 -13 52 1
3 7 3 165 0 172 -3 8 -21 13 -39 9z"/>
<path d="M868 688 c-6 -4 -7 -172 -1 -181 6 -10 38 -10 46 0 8 9 8 173 0 180
-6 7 -37 7 -45 1z"/>
<path d="M383 228 c-10 -4 -10 -3 -11 -93 0 -102 -3 -94 27 -94 25 0 28 2 28
24 0 102 -1 155 -5 159 -4 5 -31 8 -39 4z"/>
<path d="M481 228 c-11 -3 -11 -5 -11 -95 0 -80 0 -83 4 -87 8 -8 40 -8 46 0
7 8 5 172 -1 178 -6 5 -27 7 -38 4z"/>
</g>
</svg>
