<?xml version="1.0" standalone="no"?>
<!DOCTYPE svg PUBLIC "-//W3C//DTD SVG 20010904//EN"
 "http://www.w3.org/TR/2001/REC-SVG-20010904/DTD/svg10.dtd">
<svg version="1.0" xmlns="http://www.w3.org/2000/svg"
 width="82.000000pt" height="100.000000pt" viewBox="0 0 82.000000 100.000000"
 preserveAspectRatio="xMidYMid meet">
<metadata>
Created by potrace 1.16, written by Peter Selinger 2001-2019
</metadata>
<g transform="translate(0.000000,100.000000) scale(0.100000,-0.100000)"
fill="#000000" stroke="none">
<path d="M36 944 c-3 -9 -6 -60 -6 -115 0 -81 3 -101 16 -106 28 -11 38 15 39
100 l0 82 315 0 315 0 3 -97 c2 -71 7 -99 18 -109 28 -23 39 6 42 122 3 76 0
114 -8 124 -11 13 -69 15 -370 15 -317 0 -359 -2 -364 -16z"/>
<path d="M150 765 c-11 -13 -4 -29 43 -98 31 -45 77 -107 102 -137 24 -29 42
-56 39 -59 -3 -3 -65 -6 -137 -6 -127 0 -132 -1 -135 -21 -4 -30 15 -33 154
-24 65 5 123 4 128 -1 5 -5 -2 -22 -17 -41 -15 -18 -55 -71 -88 -118 -34 -47
-77 -104 -96 -127 -37 -46 -43 -95 -11 -101 23 -4 49 27 140 171 45 70 85 130
89 133 5 3 9 -35 9 -84 0 -132 10 -213 28 -220 40 -15 47 68 21 237 -6 40 -7
67 -1 73 6 6 44 -41 102 -129 98 -147 122 -175 145 -166 36 13 14 59 -100 208
-63 82 -115 155 -115 162 0 9 17 11 63 8 194 -14 225 -14 242 -1 12 8 16 19
12 31 -7 15 -21 17 -151 14 -79 -2 -147 -1 -151 3 -6 6 45 82 137 204 47 63
51 97 11 92 -27 -3 -59 -44 -170 -223 -10 -16 -23 -28 -28 -25 -6 3 -10 57
-10 125 l0 120 -25 0 -25 0 3 -107 c2 -68 0 -108 -7 -108 -5 0 -31 36 -57 80
-56 94 -100 150 -119 150 -7 0 -18 -7 -25 -15z"/>
</g>
</svg>
