<?xml version="1.0" standalone="no"?>
<!DOCTYPE svg PUBLIC "-//W3C//DTD SVG 20010904//EN"
 "http://www.w3.org/TR/2001/REC-SVG-20010904/DTD/svg10.dtd">
<svg version="1.0" xmlns="http://www.w3.org/2000/svg"
 width="122.000000pt" height="148.000000pt" viewBox="0 0 122.000000 148.000000"
 preserveAspectRatio="xMidYMid meet">
<metadata>
Created by potrace 1.16, written by Peter Selinger 2001-2019
</metadata>
<g transform="translate(0.000000,148.000000) scale(0.100000,-0.100000)"
fill="#000000" stroke="none">
<path d="M60 1412 c-6 -2 -10 -67 -10 -168 l0 -165 33 3 32 3 0 105 c0 58 2
117 3 133 l2 27 481 0 482 0 -7 -97 c-7 -120 3 -202 26 -217 11 -7 21 -7 27
-1 5 6 13 92 17 193 6 152 5 182 -7 182 -91 3 -1072 4 -1079 2z"/>
<path d="M216 1124 c-3 -8 -1 -25 6 -37 14 -27 141 -201 226 -310 34 -44 62
-84 62 -88 0 -5 -93 -7 -207 -6 l-208 2 0 -30 0 -30 150 -1 c83 -1 176 2 209
5 46 6 59 4 64 -7 3 -8 1 -20 -4 -27 -5 -7 -36 -48 -68 -91 -82 -109 -97 -130
-162 -225 -32 -46 -70 -96 -85 -111 -46 -46 -43 -118 5 -118 24 0 19 -7 233
309 54 79 104 146 111 149 9 3 12 -33 13 -155 1 -87 4 -189 8 -228 6 -67 7
-70 34 -73 18 -2 29 2 33 13 6 14 -8 266 -22 409 -4 38 -2 57 4 55 6 -2 69
-87 140 -189 199 -283 184 -265 217 -265 29 0 30 2 29 42 -1 34 -8 51 -40 86
-21 25 -57 70 -79 101 -80 112 -179 242 -208 273 -38 41 -32 66 15 56 18 -4
123 -7 233 -8 l200 0 0 30 0 30 -130 3 c-71 1 -172 -1 -224 -6 -72 -6 -94 -5
-98 5 -3 7 16 39 41 71 25 32 46 63 46 69 0 5 9 18 21 29 12 10 30 37 40 59
11 22 44 66 74 99 55 58 67 90 43 114 -35 35 -53 15 -201 -208 -102 -154 -125
-185 -134 -176 -3 3 -5 91 -4 195 l2 190 -25 7 c-47 11 -49 4 -41 -173 6 -138
5 -165 -6 -161 -12 4 -88 109 -179 248 -57 88 -59 90 -94 90 -22 0 -36 -6 -40
-16z"/>
</g>
</svg>
