<?xml version="1.0" standalone="no"?>
<!DOCTYPE svg PUBLIC "-//W3C//DTD SVG 20010904//EN"
 "http://www.w3.org/TR/2001/REC-SVG-20010904/DTD/svg10.dtd">
<svg version="1.0" xmlns="http://www.w3.org/2000/svg"
 width="486.000000pt" height="590.000000pt" viewBox="0 0 486.000000 590.000000"
 preserveAspectRatio="xMidYMid meet">
<metadata>
Created by potrace 1.16, written by Peter Selinger 2001-2019
</metadata>
<g transform="translate(0.000000,590.000000) scale(0.500000,-0.500000)"
fill="#000000" stroke="none">
<path d="M339 1132 c-4 -1 -71 -2 -149 -2 -140 0 -140 0 -145 -5 -5 -5 -9
-238 -5 -251 6 -15 49 -14 57 2 4 8 4 71 0 88 -6 21 -1 105 6 112 2 2 612 4
750 2 10 0 14 -60 5 -85 -5 -14 -6 -72 -1 -84 2 -4 3 -13 3 -23 0 -42 8 -56
32 -56 25 0 25 -2 23 65 0 49 0 55 4 69 5 20 3 156 -2 162 -3 3 -35 7 -52 6
-20 -2 -490 -1 -504 0 -8 1 -18 1 -22 0z"/>
<path d="M184 912 c-13 -5 -11 -44 3 -61 4 -3 10 -12 14 -18 4 -6 11 -15 14
-20 4 -4 10 -12 14 -18 13 -18 20 -29 27 -37 4 -5 10 -13 13 -17 8 -13 18 -26
24 -34 11 -13 37 -48 49 -65 5 -8 13 -18 16 -21 3 -3 10 -11 14 -17 5 -7 14
-18 20 -26 24 -32 25 -32 -77 -29 -242 8 -235 9 -237 -21 -1 -36 -7 -36 273
-26 80 3 83 0 43 -46 -6 -7 -16 -20 -22 -28 -24 -37 -28 -42 -35 -47 -4 -3
-10 -11 -14 -17 -11 -20 -15 -26 -25 -39 -5 -7 -15 -21 -23 -31 -8 -11 -18
-25 -23 -32 -9 -15 -19 -29 -32 -46 -5 -6 -16 -22 -25 -35 -9 -13 -20 -27 -24
-31 -53 -47 -57 -104 -8 -104 23 0 30 3 38 17 3 6 10 17 16 25 6 8 20 29 32
47 12 18 24 35 27 38 3 3 10 14 16 23 12 19 23 36 41 60 6 8 12 18 14 21 2 3
7 11 11 18 4 7 10 16 13 21 4 5 8 11 11 15 6 7 19 28 33 50 25 41 34 33 32
-28 0 -33 0 -46 2 -54 2 -10 3 -26 2 -81 -1 -61 -1 -70 2 -80 3 -10 3 -18 3
-47 -1 -45 -2 -44 28 -44 31 0 29 -4 28 67 0 48 -1 59 -4 67 -3 9 -4 21 -5 78
-1 60 -2 69 -5 77 -9 20 -7 85 2 85 4 0 21 -22 27 -34 3 -6 8 -13 11 -17 6 -6
16 -20 25 -34 3 -5 7 -11 10 -14 2 -3 6 -8 8 -11 2 -3 8 -13 14 -21 13 -18 29
-40 34 -49 2 -3 7 -10 11 -16 5 -5 8 -10 8 -11 0 0 6 -10 14 -20 34 -47 49
-70 51 -78 1 -5 18 -26 40 -49 9 -10 42 -11 50 -2 10 10 5 68 -7 77 -3 1 -6 4
-8 7 -2 2 -10 12 -19 21 -9 9 -20 23 -25 31 -5 8 -12 18 -16 22 -4 4 -12 15
-18 24 -6 9 -13 19 -16 22 -3 3 -9 11 -13 18 -4 7 -11 17 -17 24 -5 7 -16 20
-23 31 -7 10 -17 22 -21 27 -4 4 -8 9 -8 10 0 0 -4 5 -9 11 -4 5 -13 17 -19
26 -7 9 -14 19 -16 21 -2 2 -11 13 -19 24 -7 11 -16 23 -18 26 -14 17 -11 17
99 14 278 -8 274 -9 276 19 2 39 15 36 -184 32 -195 -5 -190 -6 -174 16 5 6
10 15 12 19 3 4 8 12 12 16 4 4 11 14 15 21 4 7 11 17 14 21 4 5 9 14 11 20 3
10 8 16 22 30 12 13 18 20 20 26 5 17 28 54 39 62 3 3 13 13 21 22 8 10 22 24
30 32 l14 14 0 23 c0 43 -43 51 -69 12 -5 -7 -13 -18 -18 -25 -4 -7 -13 -20
-19 -29 -7 -9 -15 -22 -20 -28 -9 -12 -34 -50 -38 -57 -1 -3 -5 -9 -10 -14 -4
-5 -10 -14 -14 -20 -4 -6 -12 -19 -18 -29 -6 -9 -13 -20 -15 -24 -2 -4 -6 -11
-10 -15 -3 -4 -11 -16 -18 -25 -19 -30 -24 -27 -24 15 0 15 -1 29 -2 31 -1 2
-2 36 -2 80 -1 98 -2 149 -5 154 -5 9 -41 11 -50 3 -6 -6 -5 -108 1 -125 6
-16 9 -123 4 -131 -6 -9 -24 7 -37 33 -3 7 -11 17 -16 23 -6 6 -11 14 -13 19
-2 5 -6 12 -10 16 -13 15 -22 28 -25 37 -2 6 -9 15 -17 23 -7 7 -14 16 -16 20
-3 6 -20 30 -27 40 -2 3 -5 9 -6 14 -3 16 -19 32 -41 40 -6 2 -32 2 -39 0z"/>
</g>
</svg>
