<?xml version="1.0" standalone="no"?>
<!DOCTYPE svg PUBLIC "-//W3C//DTD SVG 20010904//EN"
 "http://www.w3.org/TR/2001/REC-SVG-20010904/DTD/svg10.dtd">
<svg version="1.0" xmlns="http://www.w3.org/2000/svg"
 width="534.000000pt" height="590.000000pt" viewBox="0 0 534.000000 590.000000"
 preserveAspectRatio="xMidYMid meet">
<metadata>
Created by potrace 1.16, written by Peter Selinger 2001-2019
</metadata>
<g transform="translate(0.000000,590.000000) scale(0.500000,-0.500000)"
fill="#000000" stroke="none">
<path d="M490 1138 c-2 -1 -5 -6 -6 -11 -1 -4 -5 -12 -8 -17 -3 -5 -6 -11 -6
-12 0 -2 -2 -8 -5 -13 -3 -6 -7 -13 -8 -18 -2 -4 -5 -10 -7 -13 -2 -3 -5 -9
-6 -13 -1 -5 -4 -11 -7 -14 -5 -7 -11 -18 -11 -22 0 -1 -6 -8 -13 -15 -15 -15
-17 -18 -17 -32 0 -10 -15 -46 -20 -49 -1 -1 -3 -6 -5 -12 -4 -12 -4 -12 -26
-32 -21 -19 -23 -23 -23 -47 0 -21 -1 -24 -14 -36 -5 -5 -8 -10 -10 -16 -2 -6
-6 -12 -16 -23 -15 -15 -18 -21 -18 -33 0 -6 -2 -12 -6 -18 -3 -5 -7 -13 -9
-18 -5 -16 -13 -35 -18 -41 -4 -5 -6 -10 -7 -22 -1 -15 -1 -15 -16 -29 -15
-13 -15 -13 -16 -28 -1 -13 -2 -17 -7 -24 -4 -5 -7 -12 -8 -15 -1 -3 -4 -10
-6 -15 -3 -5 -5 -10 -5 -12 0 -2 -3 -7 -6 -11 -3 -5 -7 -13 -9 -17 -1 -5 -6
-14 -10 -20 -4 -6 -7 -12 -7 -13 0 -1 -3 -6 -7 -11 -3 -4 -7 -11 -8 -14 0 -4
-4 -12 -8 -18 -4 -6 -7 -12 -7 -13 0 -1 -3 -7 -6 -14 -3 -7 -6 -14 -6 -15 0
-2 -6 -11 -14 -19 -22 -24 -27 -74 -9 -83 26 -12 71 6 71 29 0 2 3 8 6 12 3 4
7 11 8 15 1 4 5 11 9 16 4 5 8 13 9 17 1 5 3 10 5 11 2 1 4 7 6 14 2 6 5 14 8
18 3 4 6 11 7 15 1 4 3 9 6 12 2 3 5 10 6 14 1 4 4 10 6 13 3 3 7 10 10 17 3
7 8 15 11 19 3 4 5 8 5 9 0 1 3 8 7 16 4 8 7 15 7 17 0 1 3 8 7 15 4 7 7 14 7
15 0 2 3 7 6 12 3 5 6 10 6 12 0 2 2 7 5 11 3 4 8 13 12 20 3 7 8 14 10 18 3
3 6 8 6 11 1 3 4 8 6 12 3 4 6 11 8 17 1 5 5 13 8 17 3 4 5 10 6 13 1 3 4 10
7 15 3 5 6 10 6 12 0 2 2 6 5 10 3 4 8 12 10 18 3 6 8 14 11 18 3 4 6 10 7 13
1 3 3 9 6 13 3 4 6 11 7 16 1 5 5 12 7 16 3 4 6 11 8 16 2 5 5 11 6 12 2 1 4
6 5 11 1 4 5 12 9 18 4 5 7 11 7 12 0 2 4 8 8 14 4 7 8 15 9 18 1 3 4 10 7 15
3 5 6 10 6 12 0 2 3 10 7 18 4 7 9 19 13 27 11 23 11 24 17 26 9 2 16 -3 19
-13 2 -4 8 -13 14 -21 7 -8 13 -16 14 -21 1 -4 5 -11 8 -15 3 -4 7 -11 8 -15
1 -4 5 -11 8 -15 3 -4 7 -11 8 -15 2 -4 5 -11 7 -16 3 -5 5 -10 5 -13 0 -2 3
-8 6 -13 3 -5 7 -13 8 -17 2 -5 6 -12 14 -20 7 -8 14 -17 17 -25 4 -7 8 -14
10 -16 1 -1 3 -4 3 -5 0 -2 3 -8 7 -15 3 -7 7 -16 8 -19 1 -3 4 -10 7 -15 3
-5 7 -12 8 -16 1 -5 3 -10 6 -13 2 -3 6 -11 9 -17 3 -6 11 -16 17 -22 8 -8 12
-14 13 -18 1 -4 4 -11 7 -16 3 -5 6 -10 6 -12 0 -1 3 -7 6 -13 3 -6 7 -15 9
-21 2 -5 4 -11 6 -12 2 -1 4 -7 5 -12 2 -7 6 -12 17 -23 11 -11 15 -16 17 -23
1 -5 4 -10 5 -12 2 -2 5 -8 7 -14 2 -6 6 -14 9 -18 3 -4 5 -8 5 -10 0 -2 3 -9
7 -17 4 -8 7 -15 7 -17 0 -2 3 -6 6 -10 3 -4 8 -12 11 -19 2 -6 9 -16 15 -22
7 -7 11 -14 13 -20 2 -6 5 -13 7 -15 2 -3 5 -9 6 -13 1 -4 4 -11 6 -14 2 -4 5
-11 7 -16 1 -5 5 -12 7 -15 3 -4 6 -10 8 -15 5 -13 11 -15 33 -16 33 0 34 2
33 52 -1 34 -2 37 -16 50 -5 5 -9 12 -11 17 -2 5 -5 11 -7 13 -3 2 -7 10 -11
18 -4 8 -8 15 -10 17 -2 1 -4 6 -5 10 -1 4 -4 11 -7 15 -3 5 -7 12 -8 16 -2 5
-5 12 -7 16 -2 4 -4 10 -4 12 0 6 -4 12 -17 24 -9 7 -13 13 -15 19 -1 4 -4 11
-7 14 -6 7 -9 16 -9 27 0 9 -6 19 -17 29 -3 3 -6 9 -8 16 -2 6 -6 14 -8 17 -3
4 -6 10 -7 14 -1 5 -5 11 -8 14 -3 3 -7 10 -9 15 -1 4 -5 11 -8 15 -2 3 -6 11
-9 17 -2 6 -5 12 -7 14 -2 2 -4 7 -6 12 -2 5 -4 11 -6 13 -2 3 -4 9 -5 14 -2
8 -6 13 -17 25 -15 16 -15 16 -15 27 0 14 -3 19 -16 32 -7 6 -11 13 -13 19 -2
6 -8 15 -14 22 -6 7 -12 15 -12 18 -2 7 -8 19 -12 22 -1 1 -4 6 -5 10 -1 4 -6
11 -9 16 -4 5 -8 13 -9 17 -2 5 -6 13 -12 20 -5 6 -11 16 -13 21 -2 5 -5 11
-8 14 -5 5 -6 8 -7 20 -1 17 -3 20 -19 34 -6 6 -11 12 -12 15 -1 4 -4 11 -7
18 -3 7 -6 13 -6 15 0 4 -11 21 -17 25 -5 4 -50 4 -55 1z"/>
<path d="M497 578 c-14 -4 -19 -47 -10 -86 3 -14 4 -47 1 -52 -3 -5 -32 30
-48 59 -3 5 -7 11 -9 13 -5 6 -31 44 -31 45 0 17 -49 30 -63 16 -6 -6 -7 -22
-1 -32 5 -9 31 -48 42 -61 5 -6 16 -20 24 -31 8 -11 18 -24 22 -30 51 -64 56
-58 -51 -57 -101 1 -99 1 -99 -24 0 -23 -1 -23 78 -21 121 3 121 3 115 -9 -4
-7 -25 -37 -35 -50 -4 -5 -9 -13 -12 -17 -3 -4 -9 -13 -14 -19 -5 -6 -19 -24
-30 -39 -29 -40 -39 -52 -52 -66 -32 -33 -26 -75 9 -75 24 0 30 7 84 89 60 92
69 105 73 108 9 5 12 -27 12 -119 0 -76 0 -76 26 -76 23 0 25 7 22 66 -9 143
-7 148 25 101 6 -9 13 -18 15 -21 2 -3 12 -17 21 -32 10 -15 23 -35 30 -44 7
-9 14 -21 16 -26 17 -38 65 -54 77 -26 8 20 0 45 -25 72 -9 10 -17 19 -17 20
0 1 -5 7 -10 14 -13 16 -20 26 -42 55 -10 12 -22 28 -28 35 -20 23 -39 52 -37
57 2 6 13 6 166 0 42 -2 50 2 50 23 -1 26 -2 27 -112 24 -112 -3 -106 -5 -84
28 7 10 14 23 17 27 2 4 8 13 14 19 5 7 13 18 17 26 4 8 13 20 19 27 41 47 38
41 38 65 0 24 -1 24 -23 25 -19 0 -34 -13 -53 -44 -8 -13 -44 -67 -48 -72 -2
-2 -6 -9 -10 -15 -7 -14 -22 -32 -26 -32 -6 0 -7 16 -9 106 -1 58 -5 65 -34
56z"/>
</g>
</svg>
