<?xml version="1.0" standalone="no"?>
<!DOCTYPE svg PUBLIC "-//W3C//DTD SVG 20010904//EN"
 "http://www.w3.org/TR/2001/REC-SVG-20010904/DTD/svg10.dtd">
<svg version="1.0" xmlns="http://www.w3.org/2000/svg"
 width="134.000000pt" height="148.000000pt" viewBox="0 0 134.000000 148.000000"
 preserveAspectRatio="xMidYMid meet">
<metadata>
Created by potrace 1.16, written by Peter Selinger 2001-2019
</metadata>
<g transform="translate(0.000000,148.000000) scale(0.100000,-0.100000)"
fill="#000000" stroke="none">
<path d="M617 1423 c-4 -3 -25 -45 -48 -92 -23 -47 -50 -94 -60 -104 -11 -10
-19 -27 -19 -38 0 -28 -27 -78 -62 -115 -21 -23 -28 -38 -24 -52 5 -14 -5 -34
-34 -70 -22 -28 -40 -58 -40 -66 0 -8 -11 -36 -25 -62 -14 -26 -25 -55 -25
-64 0 -9 -9 -25 -20 -35 -11 -10 -20 -26 -20 -35 0 -19 -124 -264 -151 -299
-47 -59 -3 -131 54 -88 15 11 458 887 471 934 12 38 34 35 61 -8 34 -53 85
-154 85 -167 0 -6 11 -24 25 -40 14 -17 41 -66 61 -109 20 -43 44 -87 54 -98
11 -11 33 -50 49 -87 17 -37 35 -70 41 -73 6 -4 31 -46 54 -94 139 -279 136
-272 170 -269 29 3 31 6 34 46 3 34 -3 53 -29 95 -40 63 -79 138 -79 152 -1 6
-14 26 -30 45 -17 19 -30 44 -30 57 0 12 -4 24 -9 27 -4 3 -34 56 -66 118 -32
62 -64 120 -71 129 -8 8 -14 22 -14 29 0 8 -17 39 -38 70 -22 30 -56 87 -77
125 -20 39 -41 74 -46 80 -5 5 -9 16 -9 25 0 9 -9 25 -19 34 -11 10 -22 30
-26 44 -4 15 -14 35 -22 45 -16 17 -54 23 -66 10z"/>
<path d="M413 704 c-6 -16 23 -62 115 -177 30 -38 51 -71 47 -75 -3 -4 -58 -5
-121 -3 l-116 3 4 -29 3 -28 124 3 c97 2 122 0 118 -10 -2 -7 -47 -69 -98
-137 -52 -68 -99 -131 -106 -140 -7 -10 -8 -24 -2 -39 7 -18 15 -23 36 -20 22
2 40 20 86 88 31 47 66 102 77 122 11 21 27 38 36 38 13 0 15 -17 14 -107 -2
-156 -4 -145 28 -141 27 3 27 3 25 73 -2 39 -5 96 -8 128 -4 33 -2 57 3 57 6
0 44 -51 85 -113 92 -137 108 -153 136 -137 29 15 26 53 -7 92 -15 18 -53 67
-84 109 -32 41 -66 83 -78 94 -44 40 -29 45 117 42 116 -2 138 0 140 13 7 35
-13 43 -98 41 -46 -1 -103 -4 -126 -7 -52 -8 -54 0 -13 58 17 24 38 54 47 68
10 14 32 42 51 63 42 48 41 82 -3 82 -27 0 -37 -10 -95 -97 -94 -141 -90 -140
-90 -10 l0 112 -25 0 c-35 0 -39 -17 -25 -101 8 -44 9 -74 3 -80 -6 -6 -33 27
-71 86 -55 86 -64 95 -92 95 -18 0 -33 -6 -37 -16z"/>
</g>
</svg>
