<?xml version="1.0" standalone="no"?>
<!DOCTYPE svg PUBLIC "-//W3C//DTD SVG 20010904//EN"
 "http://www.w3.org/TR/2001/REC-SVG-20010904/DTD/svg10.dtd">
<svg version="1.0" xmlns="http://www.w3.org/2000/svg"
 width="91.000000pt" height="100.000000pt" viewBox="0 0 91.000000 100.000000"
 preserveAspectRatio="xMidYMid meet">
<metadata>
Created by potrace 1.16, written by Peter Selinger 2001-2019
</metadata>
<g transform="translate(0.000000,100.000000) scale(0.100000,-0.100000)"
fill="#000000" stroke="none">
<path d="M424 962 c-6 -4 -33 -50 -60 -102 -26 -52 -59 -109 -71 -126 -13 -17
-23 -35 -23 -40 0 -6 -49 -109 -110 -230 -60 -120 -110 -229 -110 -242 0 -20
4 -23 28 -20 25 3 40 28 188 323 89 176 167 320 173 320 7 0 35 -43 64 -96
289 -533 298 -549 323 -549 41 0 32 53 -25 151 -27 46 -79 142 -116 214 -38
71 -83 152 -100 180 -18 27 -51 86 -74 130 -47 90 -61 104 -87 87z"/>
<path d="M415 488 c-2 -7 -6 -35 -7 -63 l-3 -50 -37 58 c-38 58 -72 75 -84 42
-7 -18 9 -44 65 -109 23 -26 39 -51 36 -56 -3 -5 -39 -6 -81 -3 -76 6 -76 6
-72 -18 3 -23 6 -24 81 -22 91 3 95 -3 39 -68 -87 -101 -106 -131 -95 -148 25
-39 68 0 143 129 16 27 25 -1 25 -73 0 -65 2 -72 20 -72 19 0 20 6 17 83 -2
59 1 81 9 77 6 -4 30 -38 54 -75 48 -74 74 -97 93 -78 7 7 12 19 12 26 0 16
-50 83 -108 144 -19 20 -31 41 -28 47 5 7 34 9 90 5 86 -7 102 -1 89 31 -5 15
-17 17 -90 12 -62 -3 -83 -2 -83 7 0 7 23 41 50 76 53 65 60 93 23 98 -17 3
-30 -10 -63 -62 -23 -36 -46 -66 -50 -66 -5 0 -10 30 -12 67 -2 42 -8 68 -15
71 -7 2 -15 -2 -18 -10z"/>
</g>
</svg>
