<?xml version="1.0" standalone="no"?>
<!DOCTYPE svg PUBLIC "-//W3C//DTD SVG 20010904//EN"
 "http://www.w3.org/TR/2001/REC-SVG-20010904/DTD/svg10.dtd">
<svg version="1.0" xmlns="http://www.w3.org/2000/svg"
 width="564.000000pt" height="590.000000pt" viewBox="0 0 564.000000 590.000000"
 preserveAspectRatio="xMidYMid meet">
<metadata>
Created by potrace 1.16, written by Peter Selinger 2001-2019
</metadata>
<g transform="translate(0.000000,590.000000) scale(0.500000,-0.500000)"
fill="#000000" stroke="none">
<path d="M680 1136 c-15 -6 -36 -33 -36 -46 0 -4 -2 -13 -4 -20 -12 -38 -2
-78 27 -107 13 -13 21 -26 24 -38 1 -3 5 -12 10 -19 12 -19 13 -22 4 -39 -9
-19 -12 -22 -24 -27 -9 -3 -19 -15 -24 -31 -1 -2 -4 -7 -6 -12 -3 -4 -8 -14
-12 -21 -8 -16 -25 -33 -35 -35 -13 -3 -22 -14 -22 -27 0 -6 -28 -40 -35 -41
-13 -3 -50 26 -67 52 -2 4 -10 13 -16 20 -5 7 -13 18 -17 25 -4 7 -9 16 -11
19 -2 3 -4 8 -4 9 0 2 -3 7 -6 10 -3 4 -6 9 -7 12 -2 8 -7 11 -14 13 -8 1 -15
9 -23 25 -9 17 -7 26 6 44 3 4 7 11 8 15 5 15 10 24 24 38 29 31 40 72 28 103
-2 6 -4 15 -4 21 0 45 -61 66 -119 40 -14 -6 -26 -11 -27 -11 -11 0 -26 -10
-50 -33 -14 -14 -28 -26 -32 -28 -3 -2 -10 -7 -15 -11 -4 -4 -11 -9 -15 -11
-8 -4 -82 -77 -89 -88 -3 -4 -8 -12 -11 -16 -9 -14 -30 -57 -30 -63 0 -4 -2
-11 -4 -18 -4 -11 -4 -16 -4 -48 l1 -37 10 -11 c25 -29 59 -34 98 -14 18 9 25
12 36 13 10 1 18 4 30 9 9 4 17 8 19 8 3 0 8 4 14 9 5 4 14 11 20 15 6 4 16
13 22 19 19 23 18 23 44 -4 13 -13 24 -25 25 -28 2 -2 10 -11 19 -19 9 -8 18
-18 20 -22 2 -4 10 -14 18 -23 8 -8 14 -16 14 -17 0 -2 8 -10 17 -20 9 -9 18
-20 20 -23 1 -3 9 -13 16 -20 18 -20 17 -25 -7 -50 -8 -8 -15 -17 -17 -21 -6
-12 -21 -32 -25 -32 -1 0 -6 0 -10 0 -9 0 -13 -4 -15 -14 -1 -5 -4 -11 -11
-18 -5 -6 -12 -15 -15 -20 -3 -4 -10 -14 -16 -20 -6 -6 -12 -15 -14 -18 -21
-41 -49 -56 -69 -37 -9 9 -21 19 -26 22 -5 3 -13 9 -18 14 -5 5 -12 9 -16 10
-4 1 -13 5 -21 9 -10 5 -18 7 -28 8 -11 1 -18 4 -35 12 -41 20 -87 10 -105
-24 -4 -9 -4 -71 0 -82 2 -4 4 -12 5 -18 7 -43 80 -137 132 -171 7 -5 15 -11
18 -14 3 -3 8 -7 12 -9 4 -2 17 -14 30 -27 23 -22 35 -31 50 -34 4 -1 16 -6
28 -12 55 -26 118 -5 118 41 0 5 2 14 4 20 12 31 1 74 -27 104 -15 16 -18 21
-23 36 -2 6 -6 13 -9 17 -21 27 -16 71 8 71 6 0 12 5 16 10 2 3 7 8 11 11 5 4
9 8 11 14 2 4 5 11 8 14 2 3 8 13 13 21 6 11 11 17 18 21 5 3 11 10 14 14 11
18 17 28 26 39 5 6 12 15 15 19 17 29 33 25 58 -13 5 -6 13 -17 19 -24 6 -7
15 -18 19 -25 4 -6 9 -12 10 -12 2 -1 7 -7 12 -13 6 -8 11 -12 15 -13 7 -1 10
-5 16 -17 2 -5 7 -13 11 -18 4 -5 8 -12 9 -17 2 -5 5 -9 10 -12 4 -3 10 -8 12
-12 3 -4 8 -8 11 -9 12 -5 16 -7 22 -16 10 -17 8 -36 -8 -54 -2 -3 -5 -9 -7
-12 -7 -20 -12 -28 -24 -41 -28 -30 -42 -80 -29 -105 2 -3 4 -12 4 -20 5 -48
63 -68 118 -41 11 6 24 11 30 13 15 4 30 14 51 35 10 11 24 23 30 27 6 3 14 9
18 13 4 3 11 8 16 11 13 8 84 81 94 97 13 22 30 59 32 70 1 5 3 15 5 21 23 85
-36 142 -108 103 -17 -10 -22 -12 -34 -13 -9 -1 -18 -3 -26 -8 -7 -3 -16 -7
-21 -8 -4 -1 -12 -5 -16 -9 -4 -3 -11 -9 -17 -13 -5 -4 -17 -14 -26 -23 -21
-22 -37 -13 -69 34 -4 6 -12 16 -18 23 -6 7 -14 17 -17 22 -6 11 -26 30 -37
36 -10 5 -25 24 -42 55 -4 7 -6 9 -16 13 -9 3 -14 6 -18 12 -4 5 -10 12 -14
17 -15 17 -9 43 17 71 4 4 10 12 14 18 3 6 16 21 28 32 11 12 22 24 24 28 5 9
18 23 29 30 4 4 10 10 13 14 29 46 46 52 72 28 11 -11 22 -20 23 -20 1 0 7 -4
13 -10 6 -5 14 -10 17 -11 4 -1 13 -5 21 -9 10 -5 18 -7 27 -8 11 0 17 -2 35
-12 74 -39 134 17 110 102 -2 6 -4 16 -5 21 -2 12 -17 44 -32 67 -6 10 -22 28
-49 56 -37 37 -46 45 -76 65 -5 3 -21 17 -35 30 -27 26 -31 29 -53 36 -8 3
-22 9 -33 14 -19 9 -60 13 -76 7z m58 -72 c17 -9 37 -23 41 -28 2 -2 11 -8 19
-12 9 -4 19 -12 24 -17 5 -5 14 -13 21 -17 7 -5 23 -19 36 -32 14 -13 26 -24
27 -24 9 0 40 -38 44 -54 1 -5 5 -13 9 -18 4 -6 7 -12 7 -14 0 -2 3 -7 6 -13
13 -22 6 -34 -22 -33 -18 1 -17 0 -47 20 -7 4 -15 8 -19 9 -4 1 -11 3 -17 5
-5 2 -12 4 -14 4 -7 0 -25 18 -36 35 -4 6 -10 13 -13 16 -9 7 -27 28 -32 37
-2 4 -11 16 -21 26 -17 18 -18 20 -20 37 0 7 -5 19 -13 37 -13 28 -13 30 -3
38 6 5 13 5 23 -2z m-363 -8 c7 -9 7 -10 -7 -39 -10 -20 -13 -29 -14 -40 -2
-14 -2 -14 -22 -36 -8 -8 -14 -15 -14 -16 0 -2 -4 -7 -10 -14 -5 -6 -11 -14
-13 -17 -2 -3 -7 -8 -11 -11 -5 -3 -10 -9 -13 -14 -6 -8 -16 -21 -25 -31 -4
-4 -8 -6 -11 -6 -10 0 -44 -13 -57 -22 -42 -29 -88 -18 -65 15 4 6 8 14 9 18
1 4 4 10 7 13 2 4 6 12 8 17 6 21 35 55 45 55 2 0 14 11 28 25 14 13 29 26 33
29 4 2 13 9 19 15 7 7 16 14 24 18 8 4 17 10 20 13 8 6 36 26 45 31 10 5 18 4
24 -3z m-221 -655 c6 -3 16 -8 22 -12 11 -7 44 -19 53 -19 5 0 20 -17 34 -38
4 -5 10 -11 13 -13 3 -2 7 -5 8 -7 1 -2 6 -9 11 -14 5 -6 11 -14 14 -19 3 -4
12 -15 20 -23 15 -16 16 -17 18 -36 1 -7 4 -18 13 -35 26 -53 -2 -60 -57 -14
-5 5 -16 12 -24 16 -8 4 -20 13 -26 19 -7 7 -16 13 -19 15 -4 2 -18 14 -31 27
-13 13 -27 25 -31 27 -17 8 -44 44 -44 57 0 2 -3 7 -6 12 -4 4 -8 12 -9 17 -2
5 -5 12 -9 17 -18 25 16 40 50 23z m850 -17 c15 -4 18 -15 7 -32 -4 -6 -7 -12
-7 -14 0 -2 -3 -8 -7 -14 -4 -5 -8 -13 -9 -18 -5 -17 -28 -46 -43 -53 -3 -2
-17 -14 -30 -27 -13 -13 -27 -25 -31 -27 -4 -2 -13 -10 -21 -17 -8 -8 -20 -16
-27 -20 -7 -4 -15 -9 -18 -11 -5 -4 -19 -14 -38 -27 -31 -21 -43 -1 -22 39 9
19 12 27 13 37 2 16 2 18 20 36 8 8 16 17 17 20 4 8 29 37 35 41 3 2 7 7 10
12 5 7 9 11 25 31 4 4 7 6 11 6 11 0 54 17 59 23 10 12 39 20 56 15z"/>
</g>
</svg>
