<?xml version="1.0" standalone="no"?>
<!DOCTYPE svg PUBLIC "-//W3C//DTD SVG 20010904//EN"
 "http://www.w3.org/TR/2001/REC-SVG-20010904/DTD/svg10.dtd">
<svg version="1.0" xmlns="http://www.w3.org/2000/svg"
 width="96.000000pt" height="100.000000pt" viewBox="0 0 96.000000 100.000000"
 preserveAspectRatio="xMidYMid meet">
<metadata>
Created by potrace 1.16, written by Peter Selinger 2001-2019
</metadata>
<g transform="translate(0.000000,100.000000) scale(0.100000,-0.100000)"
fill="#000000" stroke="none">
<path d="M277 950 c-55 -17 -188 -133 -217 -190 -38 -77 -31 -140 18 -152 27
-7 117 26 159 58 29 22 37 24 48 13 68 -72 135 -156 135 -169 0 -9 -16 -32
-36 -51 -19 -18 -51 -55 -71 -81 -19 -27 -41 -48 -49 -48 -9 0 -32 13 -52 29
-94 73 -182 64 -182 -17 0 -58 30 -110 99 -173 91 -83 140 -111 188 -107 35 3
39 7 53 46 14 40 13 45 -4 75 -11 18 -29 49 -40 70 l-21 39 22 15 c13 8 46 46
74 84 54 73 71 82 89 48 7 -11 43 -56 81 -100 l70 -79 -35 -58 c-56 -90 -43
-162 30 -162 46 0 80 19 163 90 81 70 109 111 117 174 8 52 -12 86 -50 86 -34
0 -108 -29 -143 -56 -17 -13 -36 -24 -41 -24 -5 0 -28 24 -50 53 -23 28 -61
72 -86 97 -25 24 -46 50 -46 57 0 16 137 173 151 173 6 0 25 -11 42 -24 41
-30 131 -59 157 -51 50 16 49 100 -2 171 -33 46 -115 120 -169 153 -46 28
-103 28 -123 -1 -26 -36 -20 -89 14 -134 16 -21 30 -45 30 -51 0 -13 -130
-183 -139 -183 -13 0 -29 18 -68 70 -22 30 -47 61 -56 69 -25 20 -21 43 13 86
37 47 42 113 10 145 -21 21 -38 23 -83 10z m39 -64 c15 -40 -85 -165 -157
-195 -107 -47 -82 22 51 137 46 39 88 72 92 72 5 0 11 -6 14 -14z m386 -43
c134 -109 168 -198 57 -147 -84 37 -195 204 -137 204 6 0 42 -26 80 -57z
m-536 -524 c79 -38 184 -199 130 -199 -36 0 -206 165 -206 200 0 26 22 26 76
-1z m694 -9 c0 -29 -37 -75 -111 -139 -81 -70 -102 -81 -114 -61 -8 13 35 88
77 136 48 55 148 97 148 64z"/>
</g>
</svg>
