<?xml version="1.0" standalone="no"?>
<!DOCTYPE svg PUBLIC "-//W3C//DTD SVG 20010904//EN"
 "http://www.w3.org/TR/2001/REC-SVG-20010904/DTD/svg10.dtd">
<svg version="1.0" xmlns="http://www.w3.org/2000/svg"
 width="142.000000pt" height="148.000000pt" viewBox="0 0 142.000000 148.000000"
 preserveAspectRatio="xMidYMid meet">
<metadata>
Created by potrace 1.16, written by Peter Selinger 2001-2019
</metadata>
<g transform="translate(0.000000,148.000000) scale(0.100000,-0.100000)"
fill="#000000" stroke="none">
<path d="M827 1399 c-11 -12 -20 -45 -24 -83 -5 -59 -4 -64 24 -97 16 -19 39
-52 50 -75 18 -36 19 -43 6 -67 -7 -15 -19 -27 -26 -27 -7 0 -26 -26 -43 -58
-18 -33 -42 -62 -57 -70 -15 -7 -27 -18 -27 -25 0 -7 -11 -25 -24 -42 -23 -28
-24 -29 -49 -12 -15 10 -49 50 -76 90 -27 39 -63 87 -80 105 -17 18 -31 40
-31 50 0 24 31 84 65 124 25 30 27 37 22 97 -4 51 -10 69 -27 83 -48 39 -153
11 -244 -66 -115 -97 -170 -154 -193 -200 -26 -51 -40 -137 -30 -178 11 -43
93 -64 133 -33 10 8 29 15 42 15 28 0 54 15 116 64 l49 39 26 -30 c14 -17 48
-58 75 -90 28 -32 70 -79 94 -104 32 -34 42 -51 36 -61 -22 -37 -83 -98 -97
-98 -10 0 -17 -6 -17 -13 0 -7 -17 -33 -37 -59 -21 -25 -50 -61 -64 -80 l-27
-33 -28 26 c-49 46 -106 79 -133 79 -15 0 -36 7 -47 15 -31 23 -87 19 -114
-10 -20 -22 -22 -31 -18 -88 7 -82 43 -151 113 -215 161 -147 218 -182 295
-182 56 0 71 14 88 82 13 52 5 87 -27 123 -35 39 -72 115 -66 134 3 10 21 29
40 42 19 13 42 41 52 61 10 21 21 38 25 38 4 0 28 29 54 65 25 36 51 64 58 62
6 -2 34 -34 62 -72 28 -37 58 -72 67 -76 8 -5 26 -26 38 -47 24 -39 56 -72 71
-72 5 0 12 -10 17 -22 9 -24 -15 -79 -64 -147 -20 -27 -25 -46 -25 -91 0 -78
24 -110 84 -110 52 0 125 30 163 68 15 15 46 41 68 57 118 87 175 173 183 274
4 65 3 68 -24 90 -21 17 -38 21 -64 18 -71 -9 -177 -57 -216 -98 -15 -16 -31
-29 -35 -29 -3 0 -34 36 -68 80 -34 44 -71 84 -81 90 -10 5 -28 25 -40 44 -11
19 -29 38 -38 41 -27 9 -55 54 -48 78 5 20 208 257 226 265 3 1 26 -15 49 -37
45 -42 134 -79 206 -88 64 -7 85 18 85 100 0 103 -47 170 -221 318 -98 83
-213 114 -252 68z m147 -96 c130 -94 198 -158 227 -215 16 -32 29 -64 29 -73
0 -20 -58 -20 -88 0 -12 9 -37 21 -55 28 -39 14 -177 167 -177 196 0 10 -7 32
-16 49 -30 62 5 69 80 15z m-498 12 c4 -8 0 -25 -8 -38 -8 -12 -18 -34 -22
-49 -3 -15 -16 -38 -29 -52 -12 -14 -42 -50 -67 -80 -25 -31 -50 -56 -56 -56
-6 0 -32 -11 -58 -25 -54 -29 -106 -33 -106 -10 0 43 62 132 132 192 144 121
201 153 214 118z m-238 -835 c33 -17 75 -48 94 -69 18 -20 50 -56 71 -80 20
-23 37 -51 37 -62 0 -11 7 -31 16 -44 18 -28 13 -55 -11 -55 -20 0 -127 76
-208 146 -58 51 -128 157 -119 182 7 21 57 13 120 -18z m1038 -14 c7 -19 -52
-131 -79 -149 -12 -8 -40 -31 -62 -51 -62 -58 -166 -127 -184 -124 -39 8 5
115 88 212 40 46 75 77 91 81 14 3 39 14 55 25 35 23 83 26 91 6z"/>
</g>
</svg>
