<?xml version="1.0" standalone="no"?>
<!DOCTYPE svg PUBLIC "-//W3C//DTD SVG 20010904//EN"
 "http://www.w3.org/TR/2001/REC-SVG-20010904/DTD/svg10.dtd">
<svg version="1.0" xmlns="http://www.w3.org/2000/svg"
 width="82.000000pt" height="100.000000pt" viewBox="0 0 82.000000 100.000000"
 preserveAspectRatio="xMidYMid meet">
<metadata>
Created by potrace 1.16, written by Peter Selinger 2001-2019
</metadata>
<g transform="translate(0.000000,100.000000) scale(0.100000,-0.100000)"
fill="#000000" stroke="none">
<path d="M365 945 c-14 -13 -25 -37 -26 -52 -2 -71 5 -111 27 -149 31 -52 44
-144 22 -144 -19 0 -168 162 -168 183 0 8 9 26 21 41 41 53 -3 97 -79 80 -35
-8 -101 -70 -119 -112 -27 -64 1 -87 81 -70 l46 10 110 -112 110 -111 -49 -57
c-27 -31 -72 -86 -99 -122 l-49 -65 -64 0 -64 0 -3 -37 c-7 -82 48 -137 154
-154 54 -8 61 10 32 78 -24 57 -26 50 48 155 59 84 95 124 106 117 14 -9 0
-98 -25 -153 -31 -70 -28 -150 7 -196 81 -106 155 57 89 195 -28 59 -41 160
-21 160 12 0 146 -146 171 -187 4 -7 1 -26 -8 -43 -23 -44 -16 -94 13 -98 35
-5 89 17 122 50 25 25 30 37 30 79 l0 49 -54 0 c-54 0 -55 1 -103 57 -26 32
-69 78 -94 103 -71 70 -71 77 3 162 35 40 73 86 84 102 20 27 23 28 54 18 72
-25 110 -4 110 62 0 63 -74 116 -160 116 -50 0 -56 -13 -40 -80 l12 -49 -64
-83 c-35 -46 -68 -83 -73 -83 -20 0 -17 99 6 166 l22 65 -27 59 c-37 82 -52
90 -91 50z m-175 -110 c0 -22 -45 -65 -69 -65 -34 0 -32 17 4 49 39 34 65 40
65 16z m498 -5 c36 -22 44 -60 13 -60 -29 0 -76 43 -68 63 8 22 15 21 55 -3z
m-533 -616 c19 -8 48 -61 40 -74 -10 -15 -21 -12 -54 16 -48 40 -39 78 14 58z"/>
</g>
</svg>
