<?xml version="1.0" standalone="no"?>
<!DOCTYPE svg PUBLIC "-//W3C//DTD SVG 20010904//EN"
 "http://www.w3.org/TR/2001/REC-SVG-20010904/DTD/svg10.dtd">
<svg version="1.0" xmlns="http://www.w3.org/2000/svg"
 width="122.000000pt" height="148.000000pt" viewBox="0 0 122.000000 148.000000"
 preserveAspectRatio="xMidYMid meet">
<metadata>
Created by potrace 1.16, written by Peter Selinger 2001-2019
</metadata>
<g transform="translate(0.000000,148.000000) scale(0.100000,-0.100000)"
fill="#000000" stroke="none">
<path d="M534 1378 c-27 -39 -29 -47 -27 -131 2 -82 4 -93 30 -126 41 -51 53
-86 56 -166 2 -69 2 -70 -22 -67 -27 3 -261 234 -261 258 0 16 44 89 60 99 16
10 12 50 -8 68 -13 12 -37 17 -78 17 -51 0 -66 -5 -111 -36 -29 -20 -55 -44
-58 -55 -4 -10 -10 -19 -15 -19 -14 0 -50 -75 -50 -104 0 -42 26 -58 84 -53
28 2 66 10 83 18 l33 13 162 -168 c90 -93 164 -174 166 -180 1 -6 -27 -42 -63
-79 -36 -38 -65 -71 -65 -73 0 -5 -75 -99 -90 -114 -3 -3 -23 -29 -45 -57 -21
-29 -40 -53 -41 -53 -1 0 -18 7 -37 15 -20 8 -57 15 -82 15 -60 0 -74 -26 -58
-105 22 -102 73 -148 194 -175 104 -23 118 -3 69 101 -16 35 -30 71 -30 79 0
9 13 31 29 50 15 19 35 49 44 65 8 17 36 54 61 83 25 30 46 57 46 60 0 4 16
24 35 45 19 21 35 42 35 48 0 5 7 9 16 9 15 0 16 -11 10 -98 -5 -61 -13 -103
-22 -113 -8 -8 -14 -23 -14 -31 0 -9 -9 -38 -21 -65 -31 -72 -24 -167 17 -225
16 -24 45 -51 64 -60 32 -17 35 -17 53 0 55 48 69 177 32 285 -13 38 -30 74
-38 80 -11 9 -17 42 -22 113 -8 110 -1 129 33 91 118 -130 227 -247 233 -247
4 0 12 -14 20 -31 11 -28 10 -33 -4 -44 -9 -7 -24 -35 -33 -64 -32 -99 15
-128 129 -77 32 14 68 40 90 66 34 40 37 49 37 106 0 72 -4 75 -79 63 -31 -5
-60 -4 -70 1 -31 18 -179 175 -183 195 -2 11 -19 29 -38 39 -49 26 -76 63 -84
114 -6 41 -4 46 38 90 83 88 126 137 126 144 0 3 12 19 28 35 15 16 32 37 37
47 10 18 12 18 55 -3 58 -28 108 -27 143 4 25 22 27 30 24 80 -4 66 -33 103
-112 141 -50 25 -157 36 -184 20 -17 -11 -13 -49 9 -108 11 -29 20 -56 20 -59
0 -3 -44 -63 -99 -135 -106 -139 -134 -159 -138 -94 -9 128 -6 155 20 207 37
72 35 117 -10 214 -35 74 -39 79 -69 79 -25 0 -37 -8 -60 -42z m87 -79 c23
-43 29 -83 18 -116 -13 -41 -34 -42 -54 -3 -15 29 -21 121 -8 133 13 13 32 7
44 -14z m-336 -75 c-28 -53 -87 -96 -126 -92 -18 2 -34 8 -36 15 -11 33 147
147 171 123 7 -7 4 -21 -9 -46z m721 20 c65 -32 76 -45 72 -81 -3 -25 -6 -28
-36 -25 -46 3 -112 58 -112 93 0 24 7 39 18 39 3 0 29 -12 58 -26z m-346 -903
c12 -31 15 -60 12 -124 -2 -35 -4 -38 -29 -35 -23 3 -29 10 -39 50 -10 39 -9
55 3 92 18 53 35 58 53 17z m445 9 c10 -16 -22 -76 -53 -99 -37 -26 -92 -39
-92 -22 0 26 32 71 72 100 44 32 63 38 73 21z m-888 -23 c38 -21 105 -129 89
-144 -7 -8 -78 17 -107 38 -31 21 -54 86 -37 106 13 16 26 16 55 0z"/>
</g>
</svg>
