<?xml version="1.0" standalone="no"?>
<!DOCTYPE svg PUBLIC "-//W3C//DTD SVG 20010904//EN"
 "http://www.w3.org/TR/2001/REC-SVG-20010904/DTD/svg10.dtd">
<svg version="1.0" xmlns="http://www.w3.org/2000/svg"
 width="486.000000pt" height="590.000000pt" viewBox="0 0 486.000000 590.000000"
 preserveAspectRatio="xMidYMid meet">
<metadata>
Created by potrace 1.16, written by Peter Selinger 2001-2019
</metadata>
<g transform="translate(0.000000,590.000000) scale(0.500000,-0.500000)"
fill="#000000" stroke="none">
<path d="M466 1138 c-13 -1 -19 -5 -24 -14 -3 -3 -8 -11 -12 -15 -27 -32 -39
-93 -25 -129 5 -12 5 -13 3 -25 -3 -15 -1 -21 6 -33 4 -4 8 -12 10 -18 3 -5
10 -14 18 -22 9 -8 14 -15 15 -19 1 -6 5 -18 12 -35 2 -4 3 -14 3 -22 0 -8 1
-19 3 -25 15 -53 -13 -92 -43 -59 -11 13 -13 15 -30 30 -10 9 -16 17 -17 20
-1 6 -12 17 -19 19 -2 1 -7 6 -11 11 -4 5 -11 12 -15 15 -9 6 -13 11 -20 25
-2 3 -8 8 -14 11 -5 3 -14 10 -19 16 -6 6 -15 17 -21 23 -13 13 -16 28 -10 41
8 15 30 48 38 56 20 22 13 61 -13 72 -9 4 -95 4 -105 1 -9 -3 -39 -24 -47 -32
-3 -4 -10 -8 -15 -11 -8 -4 -10 -7 -16 -18 -6 -13 -14 -22 -25 -30 -15 -11
-33 -60 -30 -83 4 -36 9 -39 55 -40 40 0 39 -1 72 14 19 9 31 10 39 5 9 -6 60
-61 64 -69 3 -6 7 -10 12 -13 4 -2 12 -9 16 -15 5 -6 15 -17 23 -25 8 -8 28
-28 43 -43 16 -16 43 -43 60 -60 35 -36 36 -37 32 -47 -4 -11 -21 -32 -29 -39
-5 -4 -11 -11 -15 -17 -9 -13 -34 -39 -43 -44 -5 -3 -8 -7 -11 -14 -2 -7 -8
-14 -17 -24 -7 -8 -14 -16 -15 -19 -1 -3 -5 -9 -10 -14 -5 -5 -10 -12 -13 -16
-3 -4 -9 -12 -15 -18 -6 -6 -13 -15 -16 -19 -18 -26 -28 -38 -41 -53 l-16 -17
-7 5 c-5 3 -11 6 -15 7 -4 1 -11 3 -16 4 -19 6 -82 5 -91 -2 -14 -10 -22 -54
-12 -68 2 -3 4 -12 5 -20 3 -35 39 -92 61 -98 3 -1 12 -5 19 -9 7 -5 15 -9 18
-9 3 -1 10 -2 17 -4 7 -1 19 -4 27 -6 8 -2 19 -5 23 -6 53 -18 86 14 58 56 -4
5 -7 12 -7 14 0 5 -5 14 -12 23 -4 5 -6 11 -8 20 -1 6 -4 15 -6 18 -5 7 -5 18
0 24 2 3 5 10 7 16 3 10 5 13 16 23 13 11 16 15 32 48 5 10 10 19 11 20 1 1 6
7 10 13 3 6 18 22 31 35 20 20 25 26 26 32 2 5 7 14 13 21 5 7 13 17 17 22 3
5 12 13 18 17 9 6 12 10 14 16 3 10 8 15 13 12 3 -2 3 -8 3 -75 l0 -72 -7 -7
c-14 -15 -17 -20 -18 -37 -1 -13 -3 -18 -9 -29 -5 -8 -9 -18 -10 -23 -1 -5 -3
-11 -4 -12 -8 -7 -9 -12 -9 -63 0 -59 5 -80 28 -107 4 -5 9 -12 12 -16 13 -22
47 -39 70 -35 18 3 41 37 47 73 1 8 4 19 5 24 5 20 2 98 -5 109 -6 10 -11 28
-14 46 -1 6 -3 13 -6 17 -3 4 -6 11 -8 14 -1 4 -7 11 -12 17 -13 13 -13 14
-13 47 0 22 -1 32 -3 39 -10 29 -3 85 11 85 6 0 35 -29 40 -41 2 -5 9 -13 14
-18 6 -5 17 -16 24 -24 7 -9 16 -18 19 -21 8 -7 14 -13 28 -29 7 -7 28 -30 47
-50 25 -25 36 -38 37 -42 1 -3 3 -10 6 -16 7 -12 6 -14 -3 -21 -10 -8 -23 -30
-26 -44 -1 -6 -4 -16 -5 -21 -16 -56 20 -88 73 -66 7 3 17 6 22 7 5 1 14 4 19
7 6 3 15 8 21 11 6 3 16 11 21 16 6 6 16 16 22 23 50 49 46 158 -6 143 -3 -1
-14 -2 -24 -2 -14 0 -22 -1 -29 -4 -13 -5 -19 -5 -22 -1 -1 1 -6 4 -12 7 -7 3
-10 6 -14 13 -3 7 -6 10 -15 14 -9 5 -12 7 -15 14 -4 9 -21 26 -52 55 -26 23
-41 44 -43 56 -1 12 -12 25 -21 27 -3 1 -9 4 -13 7 -4 3 -9 6 -11 6 -7 0 -10
3 -20 17 -5 8 -12 17 -16 20 -10 9 -15 20 -16 38 -1 9 -2 20 -3 25 -2 12 1 18
20 38 8 9 18 20 22 25 4 5 12 12 17 15 7 5 11 9 15 17 8 17 16 26 26 31 6 2
10 6 12 10 2 4 7 11 11 15 5 5 8 10 8 12 0 8 8 19 17 23 10 4 24 19 26 27 6
24 14 30 33 22 6 -3 13 -5 15 -5 2 0 10 -3 19 -7 16 -7 16 -7 47 -7 36 0 34
-1 53 16 6 5 13 11 16 14 8 7 10 22 5 37 -2 6 -3 16 -3 28 0 43 -37 85 -88
102 -5 2 -15 7 -21 11 -10 7 -10 7 -38 8 -15 1 -31 2 -35 4 -5 1 -9 1 -19 -1
-6 -2 -15 -3 -19 -3 -24 0 -28 -61 -6 -106 12 -25 12 -36 -1 -52 -4 -6 -12
-17 -17 -24 -5 -7 -12 -17 -16 -22 -4 -5 -9 -11 -11 -14 -1 -3 -8 -12 -15 -18
-6 -7 -13 -17 -15 -21 -2 -4 -8 -10 -13 -14 -8 -5 -10 -8 -13 -19 -4 -11 -7
-15 -17 -24 -6 -6 -13 -14 -15 -18 -13 -34 -49 -17 -40 20 2 8 2 15 1 19 -9
33 -11 67 -5 86 2 6 3 12 3 14 0 2 7 18 16 36 9 17 16 33 16 35 0 2 2 9 4 15
4 13 5 37 2 43 -1 2 -3 9 -5 16 -5 23 -13 47 -19 55 -3 4 -7 13 -10 18 -3 6
-7 14 -10 18 -2 4 -5 12 -7 16 -8 19 -18 24 -45 21z m32 -104 c22 -44 20 -99
-3 -113 -6 -3 -23 17 -27 34 -2 5 -4 11 -7 14 -4 6 -5 13 -1 30 1 7 2 19 2 27
0 30 23 35 36 8z m-264 -21 c7 -6 3 -21 -8 -35 -4 -5 -11 -15 -15 -23 -7 -15
-7 -15 -22 -22 -8 -4 -19 -11 -24 -16 -15 -13 -18 -14 -29 -9 -5 2 -14 4 -19
4 -21 0 -19 11 6 38 7 7 15 16 18 21 3 4 9 9 14 11 5 2 11 6 14 8 4 2 10 6 16
10 19 13 42 19 49 13z m535 -3 c2 -2 6 -5 9 -8 3 -3 9 -6 13 -7 5 -1 13 -4 20
-7 7 -3 15 -6 18 -7 16 -3 35 -32 30 -47 -2 -6 -3 -12 -3 -15 0 -10 -4 -12
-18 -8 -7 2 -18 4 -24 6 -12 3 -25 12 -38 25 -4 5 -12 12 -17 15 -23 13 -14
65 10 53z m-254 -713 c2 -1 4 -7 6 -13 2 -6 5 -13 7 -16 2 -3 5 -12 7 -20 1
-8 4 -20 5 -25 2 -10 2 -12 -1 -18 -2 -6 -4 -15 -5 -30 -1 -25 -3 -27 -19 -27
-17 0 -18 1 -31 52 -5 20 -5 31 1 44 3 6 7 16 8 23 4 14 12 31 16 31 1 0 4 -1
6 -1z m366 -16 c4 -5 2 -16 -7 -36 -7 -17 -38 -45 -58 -52 -4 -1 -10 -5 -15
-7 -46 -27 -31 36 17 69 5 3 14 10 19 15 17 14 38 20 44 11z m-726 -13 c3 -2
9 -4 13 -5 10 -2 25 -13 30 -21 2 -4 7 -10 11 -12 7 -5 11 -10 15 -20 1 -3 4
-9 6 -12 2 -3 5 -9 6 -14 1 -5 3 -13 5 -18 4 -14 2 -16 -14 -11 -8 2 -20 5
-27 6 -25 4 -56 30 -60 49 -1 6 -3 13 -5 18 -8 19 -8 30 3 39 8 6 9 6 17 1z"/>
</g>
</svg>
