<?xml version="1.0" standalone="no"?>
<!DOCTYPE svg PUBLIC "-//W3C//DTD SVG 20010904//EN"
 "http://www.w3.org/TR/2001/REC-SVG-20010904/DTD/svg10.dtd">
<svg version="1.0" xmlns="http://www.w3.org/2000/svg"
 width="92.000000pt" height="100.000000pt" viewBox="0 0 92.000000 100.000000"
 preserveAspectRatio="xMidYMid meet">
<metadata>
Created by potrace 1.16, written by Peter Selinger 2001-2019
</metadata>
<g transform="translate(0.000000,100.000000) scale(0.100000,-0.100000)"
fill="#000000" stroke="none">
<path d="M40 955 c-17 -21 -11 -29 190 -255 93 -106 170 -199 170 -206 0 -8
-37 -56 -83 -107 -186 -208 -287 -326 -287 -336 0 -16 37 -23 59 -12 19 10
135 144 196 224 15 21 33 36 39 34 7 -2 11 -46 11 -128 0 -122 0 -124 23 -127
50 -7 54 8 47 179 -7 152 -7 159 14 188 24 33 51 40 70 18 6 -9 12 -83 13
-198 l3 -184 30 0 30 0 0 134 c0 81 4 135 10 137 6 2 45 -45 88 -104 125 -173
155 -199 196 -173 18 11 32 -10 -171 245 -87 108 -158 203 -158 212 0 9 20 39
44 67 111 131 286 362 286 378 0 23 -15 32 -41 24 -11 -4 -68 -71 -126 -148
-58 -78 -110 -142 -116 -142 -9 0 -11 37 -8 132 l4 132 -26 6 c-47 12 -49 5
-46 -185 3 -137 0 -181 -10 -194 -21 -25 -50 -19 -71 17 -18 30 -19 44 -13
187 5 135 4 157 -10 168 -9 8 -26 12 -39 10 -23 -3 -23 -5 -23 -130 0 -69 -3
-129 -6 -132 -3 -4 -53 50 -109 119 -96 117 -142 165 -160 165 -4 0 -13 -7
-20 -15z"/>
</g>
</svg>
