<?xml version="1.0" standalone="no"?>
<!DOCTYPE svg PUBLIC "-//W3C//DTD SVG 20010904//EN"
 "http://www.w3.org/TR/2001/REC-SVG-20010904/DTD/svg10.dtd">
<svg version="1.0" xmlns="http://www.w3.org/2000/svg"
 width="542.000000pt" height="590.000000pt" viewBox="0 0 542.000000 590.000000"
 preserveAspectRatio="xMidYMid meet">
<metadata>
Created by potrace 1.16, written by Peter Selinger 2001-2019
</metadata>
<g transform="translate(0.000000,590.000000) scale(0.500000,-0.500000)"
fill="#000000" stroke="none">
<path d="M52 1136 c-4 -3 -5 -6 -6 -17 -1 -26 0 -29 24 -54 12 -12 23 -25 25
-29 2 -4 12 -16 23 -27 11 -11 22 -24 25 -29 3 -5 12 -15 21 -23 8 -8 17 -18
19 -22 2 -5 13 -18 24 -29 11 -12 23 -25 25 -30 2 -4 13 -16 24 -26 11 -11 22
-23 24 -27 3 -4 14 -17 25 -29 11 -12 22 -25 25 -29 2 -5 13 -17 24 -27 11
-11 22 -23 24 -27 3 -4 13 -16 22 -26 10 -10 19 -21 21 -25 2 -4 13 -17 25
-29 43 -45 43 -47 0 -92 -12 -12 -23 -25 -25 -29 -2 -4 -11 -15 -21 -25 -10
-10 -19 -21 -21 -24 -1 -3 -12 -15 -24 -26 -11 -11 -22 -24 -25 -29 -2 -4 -13
-18 -25 -30 -11 -11 -22 -24 -24 -27 -1 -4 -12 -15 -23 -25 -11 -11 -22 -23
-24 -27 -3 -4 -13 -17 -23 -27 -10 -11 -22 -24 -26 -30 -3 -6 -13 -18 -22 -26
-8 -8 -17 -19 -19 -23 -3 -4 -14 -17 -25 -29 -11 -11 -22 -24 -24 -28 -2 -4
-13 -16 -24 -28 -25 -26 -30 -35 -24 -51 4 -9 41 -13 62 -7 9 3 32 24 44 41 5
6 16 20 26 31 25 27 37 41 37 43 0 2 5 8 10 14 6 6 11 14 13 18 2 3 13 16 24
27 12 12 22 24 24 28 2 6 11 15 26 28 2 2 8 10 12 17 8 14 17 24 29 33 3 2 8
8 10 12 8 15 28 30 31 23 2 -4 1 -183 0 -185 -4 -7 -1 -115 3 -118 7 -6 72 -5
77 1 5 4 4 -19 2 219 -2 199 -3 186 11 189 7 1 12 6 12 12 0 11 4 18 12 22 6
3 10 6 12 10 8 18 27 18 33 1 2 -6 4 -8 12 -11 7 -2 14 -7 19 -12 l9 -9 0 -86
c0 -47 -1 -140 -2 -208 -1 -148 -6 -131 35 -131 46 0 43 -10 41 114 -2 89 -2
161 -1 180 0 3 0 11 -1 17 -3 24 21 13 39 -18 2 -5 10 -15 16 -22 7 -6 14 -16
16 -20 2 -4 9 -14 15 -20 6 -7 13 -17 15 -21 3 -4 10 -14 17 -21 7 -8 14 -17
16 -20 2 -4 9 -13 16 -20 7 -7 14 -17 17 -21 2 -4 8 -13 13 -19 5 -6 9 -11 9
-13 0 -1 6 -9 13 -17 7 -8 15 -18 16 -21 2 -3 11 -13 19 -22 9 -10 16 -18 16
-20 0 -17 24 -27 61 -27 49 0 52 7 17 47 -6 6 -11 14 -13 17 -2 4 -10 14 -17
22 -8 7 -14 15 -14 17 0 1 -5 8 -11 15 -6 7 -12 15 -14 19 -2 3 -9 12 -15 18
-7 7 -12 14 -12 15 0 1 -4 7 -10 13 -5 6 -11 14 -13 17 -2 4 -9 12 -15 19 -6
7 -13 15 -15 19 -2 4 -7 11 -12 16 -5 5 -11 13 -14 18 -3 5 -10 14 -15 19 -5
6 -11 13 -13 16 -1 3 -6 9 -10 13 -4 4 -9 11 -12 16 -3 5 -9 14 -15 19 -6 6
-12 13 -14 17 -2 5 -9 13 -15 20 -6 7 -11 13 -11 14 0 1 -6 8 -13 16 -7 8 -13
15 -13 17 0 2 -8 11 -17 21 -9 10 -17 19 -17 20 0 1 -4 6 -9 12 -4 5 -10 13
-13 17 -3 4 -8 12 -12 17 -10 11 -10 16 0 27 4 4 9 11 11 15 2 4 8 12 13 17 5
6 11 14 14 19 3 5 9 12 15 16 5 5 11 12 13 16 2 5 10 14 16 21 7 7 12 14 12
15 0 1 4 7 10 13 5 5 11 13 13 17 2 3 10 13 17 21 8 9 14 17 14 18 0 2 5 8 11
15 6 6 12 14 14 18 2 3 9 12 15 19 7 7 12 14 12 15 0 1 4 7 10 13 5 5 11 13
13 17 2 4 9 13 16 20 7 7 14 16 16 20 2 4 7 11 11 15 4 5 11 13 15 20 4 6 9
12 11 13 2 2 8 8 12 15 4 7 10 15 14 18 3 3 8 10 11 15 3 5 9 13 14 18 5 5 13
14 17 20 3 6 10 15 14 19 14 16 17 54 4 61 -23 12 -65 -8 -82 -39 -2 -5 -9
-13 -16 -20 -7 -7 -14 -16 -16 -20 -3 -4 -10 -14 -16 -21 -7 -7 -14 -17 -17
-22 -3 -5 -7 -11 -10 -14 -3 -3 -7 -8 -9 -13 -2 -4 -11 -14 -18 -22 -8 -9 -15
-18 -17 -21 -1 -3 -9 -13 -17 -23 -9 -9 -16 -18 -16 -20 0 -2 -5 -9 -12 -16
-7 -8 -14 -17 -16 -22 -3 -4 -10 -14 -17 -22 -7 -8 -15 -18 -18 -23 -8 -15
-33 -37 -36 -33 -4 5 -4 16 -1 25 2 5 2 8 0 15 -2 6 -2 33 0 114 3 169 3 157
-1 163 -8 14 -66 16 -73 4 -2 -3 -1 -62 0 -207 2 -111 2 -204 1 -208 -2 -9
-14 -20 -26 -25 -8 -3 -11 -5 -14 -12 -7 -16 -26 -15 -33 1 -3 6 -5 9 -9 10
-9 2 -13 7 -14 17 -2 13 -4 16 -12 17 -15 3 -14 -10 -12 170 0 88 2 176 2 196
2 49 4 47 -43 47 -48 0 -43 8 -42 -70 2 -152 1 -237 -3 -238 -6 0 -20 13 -27
25 -4 8 -9 13 -16 17 -6 4 -12 9 -16 16 -13 22 -17 28 -22 31 -9 6 -18 16 -22
24 -3 4 -14 17 -25 29 -11 12 -22 24 -24 28 -5 10 -30 41 -59 73 -10 11 -20
23 -22 27 -5 9 -55 59 -63 62 -10 4 -38 3 -43 -2z"/>
</g>
</svg>
