<?xml version="1.0" standalone="no"?>
<!DOCTYPE svg PUBLIC "-//W3C//DTD SVG 20010904//EN"
 "http://www.w3.org/TR/2001/REC-SVG-20010904/DTD/svg10.dtd">
<svg version="1.0" xmlns="http://www.w3.org/2000/svg"
 width="106.000000pt" height="148.000000pt" viewBox="0 0 106.000000 148.000000"
 preserveAspectRatio="xMidYMid meet">
<metadata>
Created by potrace 1.16, written by Peter Selinger 2001-2019
</metadata>
<g transform="translate(0.000000,148.000000) scale(0.100000,-0.100000)"
fill="#000000" stroke="none">
<path d="M124 1385 c-4 -9 -2 -26 4 -38 12 -23 18 -33 122 -203 36 -58 70
-113 75 -123 55 -94 143 -232 162 -254 47 -58 43 -60 -167 -56 l-191 4 -1
-110 -1 -110 27 -3 c26 -3 26 -3 26 67 0 67 1 71 24 77 39 9 46 -2 46 -77 0
-67 1 -70 23 -67 20 3 22 9 25 76 l3 72 74 0 c81 0 97 -10 68 -43 -23 -27 -57
-77 -66 -97 -4 -8 -27 -46 -52 -85 -38 -59 -110 -176 -150 -243 -5 -10 -21
-34 -33 -55 -28 -44 -23 -67 13 -67 30 0 42 17 173 247 48 84 92 153 97 153 6
0 9 -68 6 -191 l-3 -190 37 3 37 3 -1 242 c-2 195 1 248 13 277 20 47 41 54
73 25 l25 -24 -7 -263 -7 -263 37 3 38 3 -2 157 c-1 86 -4 176 -6 198 -5 47
11 51 32 9 7 -13 56 -105 110 -204 89 -163 101 -180 127 -183 34 -4 54 11 39
30 -9 11 -53 90 -163 293 -18 33 -39 71 -47 84 -8 12 -29 48 -45 80 -17 31
-37 63 -44 72 -29 33 -17 40 64 37 l77 -3 3 -62 c3 -59 4 -63 27 -63 23 0 24
4 27 63 3 59 4 62 30 65 32 4 41 -19 36 -84 -3 -37 -2 -39 27 -39 l30 0 -2 99
c-1 54 -4 101 -7 103 -2 3 -81 1 -175 -4 -94 -4 -175 -7 -180 -5 -13 4 -4 25
39 97 20 33 52 89 72 125 19 36 79 145 132 243 54 97 96 185 94 195 -2 10 -14
18 -29 20 -19 2 -28 -4 -39 -25 -8 -15 -24 -44 -36 -63 -11 -19 -54 -98 -94
-175 -68 -130 -96 -175 -102 -164 -2 2 -1 89 2 193 5 202 2 220 -41 214 l-24
-3 3 -265 3 -265 -25 -29 c-28 -33 -39 -29 -66 25 -19 37 -21 57 -20 281 1
140 -3 245 -8 250 -5 5 -20 8 -33 6 l-24 -3 -1 -187 c0 -103 -3 -190 -6 -194
-8 -8 -23 15 -144 225 -87 152 -105 176 -128 179 -17 2 -28 -2 -32 -13z"/>
</g>
</svg>
