<?xml version="1.0" standalone="no"?>
<!DOCTYPE svg PUBLIC "-//W3C//DTD SVG 20010904//EN"
 "http://www.w3.org/TR/2001/REC-SVG-20010904/DTD/svg10.dtd">
<svg version="1.0" xmlns="http://www.w3.org/2000/svg"
 width="422.000000pt" height="590.000000pt" viewBox="0 0 422.000000 590.000000"
 preserveAspectRatio="xMidYMid meet">
<metadata>
Created by potrace 1.16, written by Peter Selinger 2001-2019
</metadata>
<g transform="translate(0.000000,590.000000) scale(0.500000,-0.500000)"
fill="#000000" stroke="none">
<path d="M110 1124 c-9 -3 -13 -13 -11 -32 1 -18 1 -19 19 -44 7 -10 15 -23
17 -27 2 -4 8 -15 15 -24 6 -9 14 -22 18 -29 3 -6 10 -18 15 -25 5 -7 11 -17
13 -23 3 -5 11 -18 18 -28 7 -10 15 -23 18 -28 2 -5 10 -18 17 -28 7 -11 15
-23 17 -28 3 -5 10 -16 16 -25 7 -10 14 -22 17 -27 2 -6 10 -19 17 -29 8 -10
15 -22 18 -28 2 -5 8 -15 13 -21 5 -7 12 -18 16 -25 3 -7 12 -21 20 -32 36
-51 35 -52 -56 -49 -256 8 -232 25 -226 -162 1 -13 6 -17 21 -17 28 0 28 -1
28 61 0 56 -2 53 24 54 26 1 25 4 25 -55 1 -59 0 -57 21 -57 23 0 22 -2 22 57
0 63 -7 56 63 58 65 1 69 -1 45 -33 -6 -7 -12 -18 -14 -23 -3 -6 -11 -19 -18
-29 -8 -10 -15 -23 -17 -27 -2 -4 -9 -16 -17 -27 -7 -10 -15 -22 -17 -26 -1
-5 -9 -17 -17 -28 -8 -11 -16 -24 -18 -29 -2 -5 -9 -16 -16 -25 -7 -9 -15 -22
-18 -28 -3 -7 -10 -18 -15 -25 -5 -7 -11 -17 -13 -23 -3 -5 -11 -18 -18 -28
-8 -11 -16 -24 -18 -28 -2 -5 -8 -15 -13 -22 -32 -44 -30 -64 6 -64 26 0 38
11 56 48 4 8 12 22 18 31 17 28 32 56 37 67 1 4 8 16 15 26 7 11 16 26 19 32
3 7 8 16 11 19 4 3 10 13 14 23 4 9 11 21 15 26 5 6 10 14 12 18 7 17 18 26
21 19 2 -5 1 -75 -1 -188 -3 -121 -5 -110 27 -111 39 -1 36 -14 33 135 -1 67
-3 154 -3 192 l-2 70 9 10 c6 7 8 11 8 16 0 21 30 37 44 25 4 -4 9 -9 12 -11
17 -10 16 21 11 -336 -2 -110 -4 -101 24 -101 35 0 34 -4 31 103 -1 48 -2 108
-2 134 0 26 0 55 0 63 0 19 2 21 11 12 7 -7 13 -19 36 -63 4 -9 10 -20 13 -24
4 -5 7 -13 9 -17 1 -4 6 -13 10 -19 4 -6 9 -16 12 -22 3 -6 8 -15 11 -20 3 -5
7 -13 9 -17 1 -4 6 -14 11 -21 4 -8 8 -15 8 -16 0 -1 3 -7 6 -12 7 -10 19 -34
33 -62 13 -26 19 -29 48 -29 24 0 33 4 29 15 -5 13 -30 59 -39 73 -4 5 -7 12
-8 15 -2 3 -6 12 -11 19 -4 7 -8 14 -8 15 0 1 -3 7 -6 12 -7 10 -16 26 -27 48
-3 7 -9 16 -12 21 -4 5 -9 14 -12 19 -2 6 -9 19 -15 29 -6 10 -13 24 -17 31
-3 7 -9 16 -13 22 -3 5 -6 11 -6 12 0 1 -4 8 -8 14 -5 7 -12 18 -15 25 -4 7
-12 21 -17 30 -5 9 -13 23 -16 30 -4 7 -10 18 -14 23 -13 20 -8 22 58 20 65
-3 59 3 60 -51 0 -48 0 -48 20 -49 21 -2 22 0 22 49 0 50 -1 49 25 48 25 -1
25 -1 25 -49 0 -49 1 -51 26 -51 21 0 20 -2 20 86 -1 95 14 83 -102 81 -147
-3 -184 -3 -187 1 -2 4 8 28 16 39 2 3 6 10 8 15 3 5 8 14 12 19 4 6 8 14 10
18 2 4 7 12 11 19 4 7 8 14 8 15 0 1 3 7 7 12 3 6 8 14 10 19 3 5 7 13 11 18
3 5 9 14 12 21 3 7 11 20 16 30 12 20 22 39 34 62 4 8 10 18 13 22 3 4 7 11 9
17 3 5 6 12 9 15 3 5 8 14 25 46 4 8 9 17 12 20 2 4 5 10 6 13 2 4 6 12 11 19
4 7 11 18 14 25 4 7 9 16 11 20 12 18 7 52 -8 56 -24 6 -37 -4 -57 -45 -19
-38 -26 -51 -30 -56 -2 -3 -11 -19 -19 -35 -8 -16 -16 -33 -19 -37 -3 -4 -8
-14 -11 -21 -3 -6 -9 -16 -12 -21 -3 -5 -7 -12 -9 -17 -2 -5 -7 -14 -10 -20
-4 -6 -9 -15 -12 -21 -3 -6 -7 -14 -9 -17 -2 -3 -8 -13 -13 -23 -26 -52 -28
-39 -23 169 3 114 3 109 -9 117 -10 7 -41 5 -45 -3 -3 -6 -3 -7 0 -212 3 -216
4 -203 -12 -218 -6 -6 -12 -13 -13 -15 -4 -14 -25 -14 -25 0 0 2 -3 6 -7 10
-5 5 -7 9 -9 17 -2 8 -4 12 -9 17 l-7 7 0 71 c0 59 1 155 5 300 0 25 -2 28
-25 30 -44 3 -41 16 -38 -149 1 -76 2 -140 1 -145 -2 -13 -11 -9 -19 10 -3 6
-9 14 -13 20 -5 5 -9 10 -9 11 0 5 -14 32 -21 39 -3 5 -9 13 -12 19 -2 6 -11
21 -19 33 -8 12 -14 22 -14 24 0 1 -1 4 -3 7 -1 3 -6 11 -9 18 -11 20 -21 37
-28 47 -3 5 -9 15 -12 21 -6 14 -25 43 -37 57 -10 12 -22 15 -39 11z"/>
</g>
</svg>
