<?xml version="1.0" standalone="no"?>
<!DOCTYPE svg PUBLIC "-//W3C//DTD SVG 20010904//EN"
 "http://www.w3.org/TR/2001/REC-SVG-20010904/DTD/svg10.dtd">
<svg version="1.0" xmlns="http://www.w3.org/2000/svg"
 width="72.000000pt" height="100.000000pt" viewBox="0 0 72.000000 100.000000"
 preserveAspectRatio="xMidYMid meet">
<metadata>
Created by potrace 1.16, written by Peter Selinger 2001-2019
</metadata>
<g transform="translate(0.000000,100.000000) scale(0.100000,-0.100000)"
fill="#000000" stroke="none">
<path d="M87 953 c-4 -3 -7 -15 -7 -25 0 -17 129 -233 223 -371 21 -32 36 -62
32 -65 -4 -4 -62 -7 -128 -7 l-122 0 -3 -74 c-3 -79 7 -103 33 -81 9 8 15 29
15 57 0 37 3 44 18 41 13 -2 18 -15 20 -51 2 -31 8 -47 16 -47 17 0 26 22 26
66 0 34 0 34 45 34 27 0 45 -5 45 -12 0 -6 -50 -87 -111 -181 -60 -93 -109
-176 -107 -186 2 -9 13 -17 25 -19 25 -4 47 26 111 154 22 44 48 86 57 94 15
12 16 4 14 -106 -1 -124 6 -146 44 -131 15 5 16 25 10 166 -7 178 2 225 41
219 20 -3 21 -8 24 -196 l2 -193 23 3 c21 3 22 8 27 133 6 150 2 150 85 -15
53 -107 70 -130 96 -130 44 0 37 17 -110 264 -39 66 -71 126 -71 133 0 10 11
13 42 11 41 -3 43 -4 51 -45 11 -56 34 -57 43 -3 11 66 32 61 44 -10 3 -22 11
-35 20 -35 11 0 16 15 18 63 4 93 2 95 -135 86 -123 -7 -129 -5 -94 44 51 74
211 367 211 388 0 32 -27 42 -45 18 -8 -11 -43 -74 -77 -141 -35 -68 -66 -123
-70 -123 -4 0 -9 57 -10 128 -3 119 -4 127 -23 127 -19 0 -20 -8 -23 -184 -2
-175 -8 -211 -33 -211 -5 0 -16 15 -25 32 -15 28 -16 54 -11 189 5 131 4 159
-8 169 -8 7 -22 10 -30 6 -12 -4 -15 -28 -15 -126 0 -66 -4 -120 -9 -120 -4 0
-37 53 -72 117 -75 138 -100 169 -122 146z"/>
</g>
</svg>
