<?xml version="1.0" standalone="no"?>
<!DOCTYPE svg PUBLIC "-//W3C//DTD SVG 20010904//EN"
 "http://www.w3.org/TR/2001/REC-SVG-20010904/DTD/svg10.dtd">
<svg version="1.0" xmlns="http://www.w3.org/2000/svg"
 width="600.000000pt" height="590.000000pt" viewBox="0 0 600.000000 590.000000"
 preserveAspectRatio="xMidYMid meet">
<metadata>
Created by potrace 1.16, written by Peter Selinger 2001-2019
</metadata>
<g transform="translate(0.000000,590.000000) scale(0.500000,-0.500000)"
fill="#000000" stroke="none">
<path d="M565 1096 c-457 -1 -457 -1 -461 -6 -3 -4 -4 -8 -4 -27 -1 -60 -3
-131 -5 -171 -1 -10 -2 -65 -4 -122 -2 -57 -4 -141 -6 -187 -2 -46 -3 -106 -4
-132 -1 -26 -2 -85 -4 -131 -2 -46 -4 -110 -5 -143 -1 -33 -3 -73 -4 -90 -3
-46 -3 -46 37 -47 44 0 41 -8 39 103 -1 92 0 98 12 104 1 0 1 111 2 247 1 247
1 247 6 255 4 8 4 8 4 142 0 132 0 135 4 139 4 4 171 5 819 5 41 0 36 19 37
-145 1 -132 1 -137 5 -144 4 -7 4 -12 5 -253 1 -135 1 -246 2 -246 12 -6 13
-12 11 -106 -1 -111 -5 -100 40 -100 45 0 41 -13 35 109 -1 19 -2 74 -4 122
-1 48 -3 94 -4 102 -1 8 -3 68 -4 133 -1 64 -3 122 -4 128 -1 5 -2 40 -3 77
-1 37 -2 99 -4 139 -2 40 -4 109 -5 155 -2 80 -2 83 -6 87 -5 5 62 4 -527 3z"/>
<path d="M608 944 c-12 -12 -13 -33 -3 -51 6 -10 6 -10 8 -106 2 -66 3 -98 5
-102 4 -11 2 -23 -8 -32 -2 -2 -7 -9 -9 -14 -8 -17 -19 -17 -28 1 -2 5 -6 12
-8 16 -3 6 -4 14 -2 136 1 152 2 149 -33 151 -34 3 -37 -4 -35 -92 1 -73 1
-81 -7 -81 -5 0 -34 30 -40 43 -3 6 -10 16 -15 21 -14 15 -16 19 -18 31 -5 35
-54 66 -81 52 -22 -11 -24 -56 -4 -78 4 -5 9 -12 11 -16 2 -4 10 -15 19 -24
12 -13 16 -18 16 -22 0 -15 3 -20 37 -52 25 -25 33 -34 34 -39 1 -4 7 -12 18
-24 9 -9 17 -20 18 -23 1 -3 6 -10 11 -16 5 -6 11 -15 14 -19 2 -5 8 -13 13
-19 5 -5 9 -11 9 -12 0 -1 2 -5 4 -10 2 -4 4 -8 4 -10 0 -2 -2 -6 -4 -10 -2
-5 -4 -11 -4 -15 0 -3 -3 -11 -6 -17 -3 -7 -6 -14 -6 -17 0 -8 -3 -13 -12 -23
-4 -4 -9 -12 -11 -16 -2 -4 -7 -12 -12 -17 -5 -5 -10 -13 -12 -18 -3 -5 -8
-13 -13 -18 -4 -5 -9 -13 -12 -18 -2 -5 -12 -17 -24 -29 -11 -11 -20 -21 -20
-22 0 -1 -3 -8 -7 -16 -4 -8 -7 -16 -7 -18 0 -6 -17 -31 -49 -74 -12 -16 -26
-36 -32 -43 -5 -7 -14 -19 -21 -26 -39 -43 9 -102 56 -70 11 7 46 45 50 55 3
7 5 10 13 13 10 4 18 13 21 23 1 5 4 9 5 11 2 2 4 7 6 12 2 5 7 14 12 20 10
11 10 11 11 33 1 26 1 25 23 48 9 9 17 20 19 24 5 11 10 14 15 10 4 -4 4 -51
0 -205 l-2 -51 9 -10 c27 -28 66 -7 66 36 0 16 1 21 4 26 7 11 6 34 -1 47 -7
11 -9 42 -9 169 0 69 0 74 -4 82 -4 8 -4 9 -1 15 2 3 4 11 5 16 4 21 13 21 17
1 2 -9 5 -14 12 -22 12 -14 13 -18 13 -64 0 -35 0 -36 5 -45 5 -10 5 -10 5
-71 0 -61 0 -61 5 -70 5 -10 5 -10 4 -43 -3 -59 33 -99 62 -70 12 12 13 135 1
158 -11 21 -8 61 4 57 6 -3 11 -8 15 -19 3 -6 11 -17 19 -25 8 -9 14 -18 16
-23 1 -4 6 -12 10 -16 4 -5 10 -14 12 -19 5 -12 15 -22 23 -24 4 -1 16 -12 46
-42 l40 -41 18 0 c28 0 35 7 35 35 0 24 -2 27 -22 48 -10 10 -19 22 -21 27 -3
6 -15 20 -41 45 -26 26 -38 39 -41 45 -2 5 -10 16 -18 24 -12 13 -16 20 -31
49 -17 34 -21 39 -33 43 -5 2 -8 5 -12 12 -3 5 -8 13 -13 17 -4 4 -9 11 -10
15 -2 4 -4 9 -6 12 -2 3 -4 8 -6 12 -1 4 -6 11 -11 16 -5 5 -11 14 -13 19 -2
6 -5 11 -7 13 -1 2 -4 6 -5 10 -1 4 -7 11 -11 16 -11 12 -11 14 2 27 6 7 11
13 12 16 4 19 15 35 33 51 14 13 20 20 23 28 3 6 9 15 14 20 5 5 9 12 11 16 1
3 4 9 6 12 2 3 4 7 5 10 1 3 3 7 5 10 2 3 5 9 6 12 2 4 7 11 11 16 5 6 11 14
13 18 2 5 8 14 13 19 5 6 9 12 10 16 1 3 3 8 6 11 2 3 6 8 8 13 1 4 12 17 24
29 43 45 11 107 -39 73 -4 -2 -10 -6 -15 -7 -8 -3 -31 -26 -31 -31 0 -1 -3 -8
-7 -16 -4 -8 -7 -15 -7 -16 0 -1 -4 -7 -10 -14 -5 -6 -10 -14 -11 -17 -1 -4
-6 -11 -11 -17 -5 -6 -10 -14 -12 -19 -2 -7 -14 -20 -18 -20 -8 0 -8 7 -6 76
2 76 1 78 -10 89 -12 11 -50 11 -62 -1z"/>
</g>
</svg>
