<?xml version="1.0" standalone="no"?>
<!DOCTYPE svg PUBLIC "-//W3C//DTD SVG 20010904//EN"
 "http://www.w3.org/TR/2001/REC-SVG-20010904/DTD/svg10.dtd">
<svg version="1.0" xmlns="http://www.w3.org/2000/svg"
 width="100.000000pt" height="99.000000pt" viewBox="0 0 100.000000 99.000000"
 preserveAspectRatio="xMidYMid meet">
<metadata>
Created by potrace 1.16, written by Peter Selinger 2001-2019
</metadata>
<g transform="translate(0.000000,99.000000) scale(0.100000,-0.100000)"
fill="#000000" stroke="none">
<path d="M485 922 c-214 -1 -393 -6 -397 -10 -6 -6 -19 -333 -31 -787 l-2 -90
31 -3 32 -3 6 193 c3 106 9 292 13 413 l8 220 155 6 c85 3 243 4 352 1 l196
-5 6 -30 c3 -16 7 -147 7 -291 1 -143 4 -315 8 -381 l6 -120 33 -3 c29 -3 32
-1 32 25 0 85 -21 747 -26 800 -4 46 -9 62 -22 65 -9 1 -192 2 -407 0z"/>
<path d="M505 790 c-3 -5 -1 -55 5 -111 11 -106 7 -144 -15 -153 -29 -11 -37
22 -34 141 l4 118 -25 0 c-24 0 -25 -3 -28 -67 -4 -86 -19 -89 -59 -10 -26 50
-33 57 -59 57 -22 0 -30 -5 -32 -22 -3 -22 11 -45 131 -202 26 -35 47 -73 47
-85 0 -12 -15 -45 -32 -73 -18 -28 -46 -72 -63 -98 -16 -26 -51 -76 -77 -111
-52 -70 -56 -85 -33 -104 12 -10 21 -10 40 -2 31 14 92 98 101 137 7 32 31 65
47 65 6 0 8 -37 4 -99 -6 -112 5 -146 40 -125 16 10 18 26 14 178 -3 143 -1
166 12 166 23 0 29 -25 37 -170 9 -155 14 -172 44 -168 18 3 21 10 21 48 0 25
-4 66 -8 93 -11 66 8 62 56 -13 41 -63 98 -120 121 -120 14 0 26 21 26 44 0 7
-24 39 -54 72 -53 59 -77 91 -163 216 l-46 68 29 41 c16 23 49 72 74 110 25
38 58 87 74 109 27 37 28 42 14 57 -29 29 -64 9 -99 -57 -42 -79 -64 -81 -55
-4 4 37 2 61 -5 70 -13 16 -45 19 -54 4z"/>
</g>
</svg>
