<?xml version="1.0" standalone="no"?>
<!DOCTYPE svg PUBLIC "-//W3C//DTD SVG 20010904//EN"
 "http://www.w3.org/TR/2001/REC-SVG-20010904/DTD/svg10.dtd">
<svg version="1.0" xmlns="http://www.w3.org/2000/svg"
 width="150.000000pt" height="148.000000pt" viewBox="0 0 150.000000 148.000000"
 preserveAspectRatio="xMidYMid meet">
<metadata>
Created by potrace 1.16, written by Peter Selinger 2001-2019
</metadata>
<g transform="translate(0.000000,148.000000) scale(0.100000,-0.100000)"
fill="#000000" stroke="none">
<path d="M126 1358 c-3 -7 -11 -274 -20 -593 -9 -319 -19 -611 -23 -648 l-6
-68 49 3 49 3 2 115 c14 684 24 1115 27 1117 5 6 1066 6 1071 1 6 -5 10 -201
15 -668 2 -162 8 -303 13 -314 5 -10 8 -72 8 -137 l-2 -119 51 0 52 0 -6 88
c-4 48 -14 308 -22 577 -21 628 -21 639 -23 648 0 4 -278 7 -616 7 -484 0
-616 -3 -619 -12z"/>
<path d="M750 1170 c-7 -14 -8 -26 0 -39 5 -11 10 -69 10 -130 0 -60 5 -121
11 -135 10 -20 8 -31 -11 -60 -12 -20 -26 -36 -30 -36 -5 0 -17 16 -26 35 -14
31 -16 56 -9 191 7 166 3 184 -39 184 -41 0 -46 -17 -40 -120 8 -109 -1 -127
-38 -80 -59 76 -68 89 -68 103 0 25 -44 67 -71 67 -61 0 -66 -57 -9 -129 22
-28 40 -56 40 -62 0 -7 19 -31 43 -54 42 -42 131 -158 152 -199 6 -11 8 -28 4
-36 -5 -8 -19 -39 -33 -67 -14 -29 -30 -59 -35 -65 -69 -86 -104 -133 -113
-156 -16 -36 -111 -172 -137 -196 -23 -21 -27 -56 -9 -74 16 -16 74 -15 90 2
83 86 138 168 138 203 0 14 11 38 24 54 13 15 26 34 28 40 7 20 40 2 34 -18
-2 -10 -8 -80 -12 -156 -7 -148 -2 -167 41 -167 43 0 49 23 47 158 -2 139 -10
278 -18 303 -6 21 12 69 26 69 6 0 13 -8 16 -17 3 -10 10 -26 15 -35 5 -10 9
-45 9 -77 0 -33 5 -63 10 -66 6 -4 10 -45 9 -93 -2 -186 -2 -186 26 -212 20
-19 30 -22 43 -14 14 9 18 29 20 99 2 52 -1 92 -8 99 -13 13 -13 86 0 86 8 0
87 -107 100 -136 3 -6 38 -41 77 -77 62 -57 76 -65 95 -58 16 5 24 18 26 38 3
32 -1 38 -119 169 -36 40 -78 97 -94 126 -16 28 -39 61 -52 72 -12 12 -45 58
-73 104 l-50 84 20 25 c11 14 20 30 20 35 0 6 19 31 41 56 23 26 46 58 52 72
19 41 98 163 129 196 33 35 35 79 5 98 -25 16 -87 -20 -108 -62 -9 -18 -28
-49 -41 -70 -13 -20 -27 -45 -31 -54 -3 -10 -14 -18 -23 -18 -15 0 -16 10 -11
98 8 110 3 122 -50 122 -22 0 -36 -6 -43 -20z"/>
</g>
</svg>
