<?xml version="1.0" standalone="no"?>
<!DOCTYPE svg PUBLIC "-//W3C//DTD SVG 20010904//EN"
 "http://www.w3.org/TR/2001/REC-SVG-20010904/DTD/svg10.dtd">
<svg version="1.0" xmlns="http://www.w3.org/2000/svg"
 width="624.000000pt" height="590.000000pt" viewBox="0 0 624.000000 590.000000"
 preserveAspectRatio="xMidYMid meet">
<metadata>
Created by potrace 1.16, written by Peter Selinger 2001-2019
</metadata>
<g transform="translate(0.000000,590.000000) scale(0.500000,-0.500000)"
fill="#000000" stroke="none">
<path d="M508 1140 c-13 -3 -14 -9 -12 -57 1 -20 2 -37 2 -39 0 -2 0 -14 0
-28 0 -13 1 -25 1 -27 2 -2 3 -47 4 -127 0 -53 0 -53 -19 -36 -9 8 -13 13 -16
22 -2 6 -7 14 -10 17 -11 10 -32 37 -39 48 -4 6 -9 14 -12 18 -12 14 -27 36
-38 56 -9 16 -15 24 -23 31 -14 12 -21 23 -24 35 -2 8 -4 11 -13 17 -6 5 -13
12 -17 18 -17 31 -61 41 -68 16 -4 -15 1 -31 18 -51 4 -5 9 -14 11 -19 2 -4 8
-14 13 -20 6 -7 16 -17 21 -24 27 -30 57 -72 65 -89 2 -5 8 -13 13 -17 10 -9
14 -15 19 -31 2 -8 5 -11 12 -15 9 -5 47 -52 80 -101 15 -21 24 -33 43 -58 7
-8 17 -22 22 -30 9 -13 14 -20 33 -44 9 -11 6 -22 -14 -52 -6 -8 -35 -57 -47
-77 -3 -6 -11 -18 -16 -26 -6 -8 -13 -20 -16 -25 -3 -6 -9 -17 -15 -26 -5 -8
-16 -27 -25 -42 -9 -14 -22 -35 -29 -46 -7 -12 -17 -28 -22 -36 -5 -8 -12 -20
-16 -27 -4 -6 -12 -20 -19 -30 -6 -10 -20 -32 -30 -47 -10 -15 -21 -32 -24
-38 -30 -47 -25 -66 19 -65 31 1 33 3 50 34 5 9 13 24 18 33 5 9 13 23 18 31
4 8 12 19 17 24 5 6 10 14 11 19 2 8 15 34 23 47 2 4 10 16 16 26 6 11 15 24
19 28 4 5 9 12 12 17 5 8 9 9 12 3 4 -7 3 -111 -2 -125 -6 -20 -8 -148 -2
-155 14 -18 81 -5 81 15 -4 491 -6 434 12 436 6 1 10 4 15 9 11 13 23 10 30
-5 3 -6 7 -11 11 -13 9 -5 27 -22 33 -32 5 -8 5 -8 3 -208 -1 -235 -6 -207 34
-208 42 -1 38 -13 34 111 -1 19 -1 48 -1 65 0 24 0 34 -3 44 -3 11 -3 19 -2
49 2 58 1 59 60 -27 7 -10 19 -27 26 -37 6 -10 16 -24 21 -31 4 -7 15 -23 24
-36 9 -13 21 -31 27 -40 52 -78 53 -80 71 -80 40 0 46 58 10 97 -25 27 -36 39
-43 49 -4 6 -12 15 -16 21 -12 15 -20 26 -27 40 -3 7 -9 16 -14 20 -9 9 -17
22 -19 33 -1 4 -3 7 -9 10 -4 2 -10 7 -14 11 -15 18 -24 30 -24 31 0 1 -3 6
-7 11 -8 9 -14 17 -34 45 -17 25 -37 52 -51 69 -3 4 -11 15 -17 24 -6 9 -16
22 -21 29 -35 44 -34 40 -18 64 6 11 16 26 20 35 5 9 11 20 15 24 4 4 8 11 10
15 2 4 6 10 8 13 2 3 6 9 7 13 1 3 6 10 10 15 6 7 8 12 25 44 4 8 13 22 23 32
8 10 17 21 19 25 2 4 11 17 20 29 24 32 47 68 51 80 6 16 18 37 27 48 4 6 11
14 14 20 3 5 10 15 16 21 50 56 52 92 4 94 -27 1 -29 -1 -44 -28 -5 -8 -16
-29 -26 -46 -10 -16 -21 -36 -25 -43 -4 -8 -11 -18 -16 -23 -5 -6 -10 -15 -13
-22 -11 -29 -43 -84 -59 -101 -4 -5 -10 -12 -12 -16 -8 -17 -16 -16 -16 3 -1
20 0 123 2 196 2 100 3 97 -31 97 -40 0 -37 12 -35 -135 5 -279 4 -291 -14
-307 -2 -2 -6 -10 -10 -19 -12 -30 -30 -36 -40 -13 -3 7 -7 11 -15 16 -12 8
-25 22 -30 32 -4 8 -4 94 -1 286 2 128 2 133 -7 137 -5 3 -44 4 -53 2z"/>
<path d="M1162 1131 c-6 -3 -13 -6 -18 -7 -4 -1 -13 -6 -18 -11 -6 -5 -15 -11
-19 -13 -4 -3 -12 -9 -17 -14 -6 -6 -13 -10 -20 -13 -5 -2 -10 -4 -10 -5 0 -1
-5 -7 -11 -13 -6 -7 -13 -15 -15 -20 -3 -4 -18 -21 -33 -37 -30 -31 -39 -44
-47 -63 -2 -7 -6 -15 -9 -18 -2 -3 -7 -12 -11 -19 -4 -7 -9 -16 -12 -21 -2 -4
-6 -13 -8 -20 -2 -7 -7 -20 -11 -30 -4 -10 -7 -21 -7 -24 0 -9 -7 -32 -13 -43
-2 -5 -5 -14 -6 -20 -1 -11 -7 -26 -15 -44 -6 -14 -6 -140 0 -154 7 -15 12
-34 14 -55 3 -24 14 -61 23 -74 15 -22 19 -30 23 -43 3 -7 7 -17 9 -21 3 -5 6
-14 7 -20 2 -8 5 -15 11 -24 5 -7 11 -17 13 -23 2 -7 8 -16 13 -21 5 -6 11
-15 14 -20 2 -6 8 -14 12 -19 4 -5 8 -10 9 -13 2 -4 22 -25 36 -38 4 -3 11
-10 17 -15 5 -6 11 -10 12 -10 1 0 11 -6 23 -13 34 -22 63 -26 77 -12 18 18
-1 42 -47 59 -13 5 -24 13 -35 24 -4 5 -11 10 -14 11 -21 11 -42 37 -52 64 -7
18 -9 22 -17 27 -4 3 -5 6 -6 16 -1 12 -3 15 -14 32 -7 10 -14 23 -16 29 -2 5
-5 13 -7 17 -1 4 -4 12 -5 17 -2 10 -14 39 -24 56 -4 8 -5 14 -6 30 -1 13 -3
26 -7 36 -14 45 -16 110 -3 146 4 13 9 28 9 34 1 5 4 15 7 20 3 6 6 12 6 13 0
2 3 9 7 16 4 8 9 22 13 32 5 17 15 38 29 64 3 5 5 11 5 13 0 2 5 12 11 21 6 9
12 21 14 26 8 25 22 44 47 61 9 7 23 17 30 24 7 7 20 18 29 24 9 6 23 17 31
23 9 6 20 13 26 17 13 7 18 15 18 30 0 26 -21 40 -42 28z"/>
<path d="M65 1097 c-29 -13 -31 -45 -5 -62 6 -3 13 -8 15 -11 2 -2 14 -10 27
-18 13 -8 28 -18 33 -22 6 -4 11 -8 12 -8 6 0 29 -30 29 -38 0 -5 20 -43 26
-51 4 -4 10 -12 13 -18 3 -5 8 -13 10 -16 3 -3 8 -11 11 -17 3 -6 8 -15 11
-19 2 -4 5 -10 6 -14 1 -3 4 -10 6 -15 3 -5 6 -14 7 -19 1 -6 4 -17 7 -26 3
-9 6 -25 8 -36 2 -11 5 -25 6 -30 2 -6 3 -14 3 -19 0 -5 1 -13 3 -18 7 -21 4
-173 -4 -191 -15 -34 -17 -41 -16 -55 2 -16 -19 -50 -49 -81 -9 -10 -18 -22
-23 -31 -4 -8 -12 -20 -18 -27 -6 -7 -13 -18 -16 -23 -3 -6 -13 -21 -22 -33
-9 -12 -19 -27 -23 -34 -4 -6 -17 -22 -28 -34 -24 -25 -26 -29 -18 -40 15 -19
48 -17 71 5 6 5 14 11 18 14 7 3 9 6 12 14 4 8 6 10 15 15 6 3 11 7 12 9 1 2
5 9 8 17 4 8 10 17 14 20 3 4 9 11 12 15 3 5 11 15 19 21 10 9 14 14 15 20 3
9 11 24 21 37 9 10 17 29 20 48 2 12 4 16 9 20 8 7 10 12 10 25 0 8 1 14 4 18
1 4 5 10 7 15 5 8 8 20 16 56 3 13 6 26 7 29 4 8 4 129 1 140 -2 4 -4 16 -6
26 -2 10 -6 26 -10 35 -3 11 -6 23 -7 35 -1 15 -2 20 -6 25 -4 6 -5 10 -6 28
-1 21 -1 21 -12 39 -6 10 -13 23 -16 29 -2 6 -7 15 -10 19 -3 5 -9 14 -13 21
-5 7 -12 17 -15 21 -3 5 -6 10 -6 12 0 1 -3 9 -7 16 -4 8 -10 19 -14 26 -3 6
-9 15 -13 20 -4 4 -14 16 -22 26 -14 17 -19 21 -45 37 -5 2 -12 10 -17 16 -17
24 -60 45 -77 37z"/>
</g>
</svg>
