<?xml version="1.0" standalone="no"?>
<!DOCTYPE svg PUBLIC "-//W3C//DTD SVG 20010904//EN"
 "http://www.w3.org/TR/2001/REC-SVG-20010904/DTD/svg10.dtd">
<svg version="1.0" xmlns="http://www.w3.org/2000/svg"
 width="156.000000pt" height="148.000000pt" viewBox="0 0 156.000000 148.000000"
 preserveAspectRatio="xMidYMid meet">
<metadata>
Created by potrace 1.16, written by Peter Selinger 2001-2019
</metadata>
<g transform="translate(0.000000,148.000000) scale(0.100000,-0.100000)"
fill="#000000" stroke="none">
<path d="M616 1414 c-4 -9 -4 -31 -2 -48 3 -17 8 -98 11 -179 3 -82 6 -151 6
-155 3 -20 -3 -21 -26 -6 -14 9 -25 21 -25 26 0 5 -20 35 -43 66 -24 31 -57
77 -72 102 -16 25 -36 51 -47 58 -10 7 -18 19 -18 26 0 7 -17 32 -38 55 -29
32 -44 42 -63 39 -40 -5 -33 -37 21 -108 27 -36 76 -103 107 -150 32 -47 61
-86 65 -88 4 -2 31 -36 59 -75 115 -158 134 -183 156 -207 25 -29 28 -21 -53
-152 -29 -46 -61 -99 -71 -118 -11 -19 -68 -113 -127 -208 -59 -95 -106 -180
-104 -190 2 -13 13 -17 42 -17 39 0 41 2 87 80 27 44 51 87 55 95 27 60 92
160 103 160 12 0 13 -17 6 -102 -5 -57 -9 -139 -9 -183 l-1 -80 50 0 50 0 -4
283 c-3 281 -3 283 18 289 11 3 21 9 21 14 0 19 24 7 61 -31 l39 -40 0 -261 0
-260 43 3 c49 4 46 -16 34 236 -7 134 -6 153 7 150 9 -2 68 -81 133 -177 65
-96 126 -179 136 -185 15 -9 22 -7 37 12 18 22 18 27 5 58 -8 20 -34 59 -58
87 -24 29 -61 79 -82 112 -21 33 -44 65 -50 70 -6 6 -42 53 -80 105 -37 52
-90 123 -116 157 l-49 62 60 97 c34 53 67 109 75 124 8 15 39 61 70 101 30 41
64 94 76 118 11 24 43 73 70 109 55 74 64 111 24 114 -14 0 -30 1 -36 2 -12 1
-99 -136 -155 -244 -18 -36 -47 -81 -64 -100 l-31 -35 4 192 c4 200 2 213 -38
213 -42 0 -43 -11 -38 -268 l5 -247 -26 -52 c-15 -29 -32 -53 -39 -53 -7 0
-29 21 -51 48 l-38 47 4 258 c2 141 4 257 4 258 -1 0 -20 2 -42 5 -33 4 -43 1
-48 -12z"/>
<path d="M1405 1389 c-53 -34 -186 -168 -207 -209 -7 -14 -22 -41 -33 -60 -12
-19 -29 -62 -39 -95 -10 -33 -27 -86 -38 -118 -15 -46 -18 -75 -15 -150 3 -50
9 -116 15 -145 10 -48 18 -69 49 -127 6 -11 23 -47 39 -80 81 -173 236 -309
291 -254 18 18 4 38 -44 60 -55 25 -122 84 -140 124 -7 17 -17 37 -22 45 -33
60 -61 120 -61 129 0 6 -9 30 -19 54 -24 52 -32 91 -38 186 -6 101 16 176 112
373 38 80 75 119 189 199 52 36 71 74 44 90 -21 14 -31 11 -83 -22z"/>
<path d="M67 1362 c-29 -32 -19 -50 58 -102 54 -36 81 -62 93 -88 9 -20 33
-62 53 -92 42 -64 64 -123 85 -229 19 -101 19 -258 -1 -304 -8 -20 -15 -47
-15 -59 0 -13 -16 -43 -35 -68 -19 -25 -64 -88 -100 -141 -36 -53 -77 -106
-90 -119 -30 -28 -32 -46 -6 -60 28 -14 32 -13 65 15 16 14 33 25 38 25 4 0 8
7 8 15 0 8 4 15 10 15 5 0 16 12 24 27 8 16 28 42 44 58 16 17 44 59 62 95 18
36 36 73 41 82 5 10 9 26 9 36 0 10 4 22 10 28 15 15 32 100 37 184 3 58 -1
99 -21 179 -14 57 -26 114 -26 126 0 13 -7 28 -15 35 -8 6 -17 22 -21 33 -3
12 -16 36 -28 52 -11 17 -32 52 -46 78 -30 59 -180 197 -213 197 -2 0 -11 -8
-20 -18z"/>
</g>
</svg>
