<?xml version="1.0" standalone="no"?>
<!DOCTYPE svg PUBLIC "-//W3C//DTD SVG 20010904//EN"
 "http://www.w3.org/TR/2001/REC-SVG-20010904/DTD/svg10.dtd">
<svg version="1.0" xmlns="http://www.w3.org/2000/svg"
 width="92.000000pt" height="100.000000pt" viewBox="0 0 92.000000 100.000000"
 preserveAspectRatio="xMidYMid meet">
<metadata>
Created by potrace 1.16, written by Peter Selinger 2001-2019
</metadata>
<g transform="translate(0.000000,100.000000) scale(0.100000,-0.100000)"
fill="#000000" stroke="none">
<path d="M771 946 c-7 -9 -11 -40 -9 -83 3 -60 5 -68 23 -68 18 0 20 8 23 71
2 52 -1 74 -11 83 -11 9 -17 8 -26 -3z"/>
<path d="M840 939 c-8 -14 -10 -43 -5 -85 6 -55 9 -64 26 -64 18 0 20 6 17 82
-3 85 -16 108 -38 67z"/>
<path d="M195 929 c-7 -22 26 -83 157 -286 43 -67 78 -129 78 -139 0 -9 -33
-78 -74 -153 -115 -212 -127 -240 -124 -274 2 -19 9 -33 18 -35 11 -2 34 37
79 133 35 74 68 135 74 135 6 0 8 -41 5 -113 -3 -62 -1 -122 3 -135 9 -24 34
-30 42 -9 3 6 2 97 -1 201 -5 181 -5 188 14 184 18 -3 19 -16 24 -180 4 -147
8 -180 22 -194 34 -34 40 -9 33 127 -5 81 -4 129 2 129 6 0 39 -57 74 -128 51
-99 70 -128 87 -130 13 -2 25 3 28 12 6 16 -89 202 -138 271 -37 50 -98 155
-98 166 0 5 21 46 46 91 165 296 176 318 164 333 -30 36 -52 13 -110 -115 -66
-147 -74 -147 -71 -1 1 80 -1 102 -15 115 -39 40 -45 -2 -34 -249 4 -86 3
-100 -11 -103 -25 -5 -30 21 -36 191 -5 117 -10 160 -20 169 -11 9 -17 8 -29
-4 -14 -13 -14 -28 -4 -113 7 -59 8 -101 2 -107 -10 -10 -45 38 -87 122 -53
106 -86 135 -100 89z"/>
<path d="M45 927 c-4 -8 -5 -45 -3 -83 2 -55 6 -69 20 -72 23 -4 34 55 22 116
-9 46 -29 66 -39 39z"/>
<path d="M117 933 c-13 -12 -7 -129 6 -148 24 -31 37 -8 37 64 0 72 -19 109
-43 84z"/>
<path d="M763 204 c-6 -17 2 -132 11 -141 3 -3 12 -3 21 0 11 5 15 21 15 66 0
33 -3 66 -6 75 -8 21 -33 21 -41 0z"/>
<path d="M834 194 c-10 -41 8 -139 26 -139 12 0 15 16 15 80 0 67 -3 80 -17
83 -12 2 -19 -5 -24 -24z"/>
<path d="M53 203 c-20 -7 -18 -152 2 -160 25 -9 30 4 30 77 0 69 -9 92 -32 83z"/>
<path d="M119 194 c-8 -9 -10 -36 -6 -80 5 -72 9 -79 32 -71 21 9 22 152 1
160 -8 3 -20 -1 -27 -9z"/>
</g>
</svg>
