<?xml version="1.0" standalone="no"?>
<!DOCTYPE svg PUBLIC "-//W3C//DTD SVG 20010904//EN"
 "http://www.w3.org/TR/2001/REC-SVG-20010904/DTD/svg10.dtd">
<svg version="1.0" xmlns="http://www.w3.org/2000/svg"
 width="136.000000pt" height="148.000000pt" viewBox="0 0 136.000000 148.000000"
 preserveAspectRatio="xMidYMid meet">
<metadata>
Created by potrace 1.16, written by Peter Selinger 2001-2019
</metadata>
<g transform="translate(0.000000,148.000000) scale(0.100000,-0.100000)"
fill="#000000" stroke="none">
<path d="M1137 1403 c-4 -3 -7 -49 -7 -102 1 -101 14 -139 45 -128 23 9 22
222 -1 231 -20 8 -29 8 -37 -1z"/>
<path d="M1236 1393 c-3 -10 -4 -57 -4 -104 1 -91 13 -123 45 -117 16 3 18 16
21 107 3 107 -4 131 -39 131 -10 0 -20 -8 -23 -17z"/>
<path d="M290 1381 c-5 -11 -7 -28 -3 -38 8 -22 73 -128 241 -397 l124 -198
-36 -72 c-68 -133 -101 -191 -113 -199 -7 -4 -13 -15 -13 -23 0 -17 -112 -243
-142 -287 -31 -44 -5 -117 36 -101 9 3 16 11 16 16 0 6 15 42 34 82 18 39 39
82 45 96 6 14 15 32 20 40 5 8 25 51 45 95 20 44 40 81 46 83 10 4 11 -11 14
-252 1 -129 3 -140 22 -153 19 -12 24 -12 37 2 13 13 15 37 11 158 -3 78 -9
192 -13 252 -9 116 2 180 30 180 33 0 40 -50 40 -297 1 -193 4 -248 15 -265
16 -25 49 -31 57 -10 3 8 1 99 -3 203 -4 104 -5 193 0 197 4 5 22 -20 40 -55
18 -35 41 -75 51 -90 11 -14 19 -33 19 -41 0 -9 5 -19 10 -22 6 -3 10 -12 10
-20 0 -8 14 -34 30 -58 17 -25 30 -49 30 -55 0 -5 13 -24 29 -41 33 -35 58
-33 67 5 6 24 -18 72 -101 204 -23 36 -47 81 -55 100 -8 19 -29 53 -47 75 -19
22 -37 51 -40 65 -3 14 -21 45 -40 69 -18 24 -33 52 -33 62 0 10 -9 23 -20 29
-28 15 -25 29 15 102 20 35 55 101 79 149 25 47 51 91 60 98 9 8 16 20 16 28
0 14 52 114 112 217 36 60 31 78 -19 74 -36 -3 -40 -6 -73 -75 -19 -39 -39
-80 -45 -90 -5 -11 -25 -50 -42 -87 -41 -85 -69 -122 -76 -102 -3 8 -6 82 -6
163 1 182 2 169 -16 186 -21 21 -54 10 -62 -21 -3 -15 -1 -77 5 -138 7 -61 15
-165 18 -230 6 -111 5 -120 -13 -137 -20 -17 -21 -17 -36 7 -9 13 -16 32 -16
42 0 11 -3 44 -7 74 -4 30 -8 96 -10 145 -10 266 -12 278 -60 257 -24 -12 -25
-16 -20 -60 13 -98 24 -287 17 -295 -4 -4 -21 14 -38 40 -75 118 -101 162
-131 225 -30 60 -70 108 -93 108 -5 0 -13 -9 -19 -19z"/>
<path d="M68 1375 c-7 -7 -1 -202 7 -215 3 -5 15 -10 26 -10 18 0 19 8 19 115
0 114 0 115 -23 115 -13 0 -26 -2 -29 -5z"/>
<path d="M172 1274 c3 -90 6 -109 21 -118 29 -18 37 10 35 119 l-3 100 -28 3
-28 3 3 -107z"/>
<path d="M1136 311 c-3 -5 -5 -51 -5 -102 1 -99 14 -137 44 -126 23 9 22 222
-1 231 -22 8 -32 8 -38 -3z"/>
<path d="M1236 311 c-11 -18 0 -199 13 -215 17 -20 37 -20 45 0 11 29 7 199
-6 212 -14 14 -44 16 -52 3z"/>
<path d="M73 288 c-11 -14 -9 -199 1 -217 4 -6 16 -11 27 -11 18 0 19 8 19
114 0 95 -3 115 -16 120 -21 8 -20 8 -31 -6z"/>
<path d="M177 293 c-4 -3 -7 -52 -7 -108 0 -88 3 -104 19 -119 19 -17 20 -17
30 3 6 11 11 63 11 115 0 84 -2 97 -19 106 -23 12 -26 12 -34 3z"/>
</g>
</svg>
