<?xml version="1.0" standalone="no"?>
<!DOCTYPE svg PUBLIC "-//W3C//DTD SVG 20010904//EN"
 "http://www.w3.org/TR/2001/REC-SVG-20010904/DTD/svg10.dtd">
<svg version="1.0" xmlns="http://www.w3.org/2000/svg"
 width="542.000000pt" height="590.000000pt" viewBox="0 0 542.000000 590.000000"
 preserveAspectRatio="xMidYMid meet">
<metadata>
Created by potrace 1.16, written by Peter Selinger 2001-2019
</metadata>
<g transform="translate(0.000000,590.000000) scale(0.500000,-0.500000)"
fill="#000000" stroke="none">
<path d="M913 1124 c-9 -3 -9 -7 -9 -84 0 -82 0 -81 14 -95 11 -13 29 -11 35
4 4 10 3 158 -2 167 -5 9 -25 13 -38 8z"/>
<path d="M996 1124 c-10 -4 -10 -5 -10 -84 0 -81 -1 -78 12 -94 10 -13 24 -14
34 -3 5 6 7 164 2 174 -5 8 -25 11 -38 7z"/>
<path d="M240 1111 c-22 -10 -17 -33 21 -94 12 -20 36 -58 52 -84 16 -26 35
-56 40 -65 6 -9 15 -24 19 -32 5 -8 11 -17 13 -20 2 -3 13 -19 23 -36 11 -17
37 -58 57 -92 63 -100 61 -93 36 -123 -3 -4 -6 -11 -7 -19 -3 -13 -27 -59 -47
-88 -8 -10 -11 -18 -13 -25 -1 -7 -5 -14 -9 -19 -4 -5 -7 -12 -8 -15 -1 -4 -4
-9 -10 -15 -10 -9 -12 -13 -14 -26 -1 -5 -4 -14 -7 -19 -3 -5 -9 -16 -12 -23
-5 -13 -34 -68 -78 -150 -32 -62 -31 -55 -22 -84 12 -38 41 -42 50 -7 1 4 5
12 8 17 3 5 6 10 6 11 0 1 22 47 28 60 3 4 6 13 8 20 5 18 14 37 20 45 11 14
14 19 14 24 0 7 8 26 18 41 4 7 9 16 10 19 6 21 40 78 42 71 6 -15 8 -128 4
-154 -2 -10 -2 -15 0 -23 3 -16 5 -80 2 -100 -4 -32 9 -50 33 -50 21 -1 38 42
28 73 -4 11 -6 48 -9 138 -1 34 -2 72 -3 84 -6 123 -5 145 8 168 12 21 15 22
26 4 16 -24 15 -21 16 -124 1 -75 1 -94 4 -104 4 -18 4 -48 -1 -61 -4 -9 -4
-15 -4 -55 0 -68 -1 -66 5 -77 3 -5 5 -10 5 -12 0 -17 36 -30 49 -17 5 5 10
30 8 42 0 5 -2 15 -3 23 -1 8 -2 55 -2 105 0 78 -1 91 -3 98 -14 34 -1 70 13
37 2 -5 9 -16 14 -24 6 -8 13 -19 15 -25 3 -6 9 -16 13 -23 25 -36 34 -54 34
-62 0 -3 3 -10 7 -17 4 -7 7 -14 7 -15 0 -8 5 -18 13 -27 6 -6 10 -12 12 -20
2 -7 7 -17 12 -23 4 -7 13 -20 18 -29 25 -43 49 -54 66 -30 17 24 14 32 -65
160 -11 17 -22 37 -27 44 -4 8 -10 18 -14 24 -4 5 -8 13 -9 17 -1 4 -5 12 -9
18 -4 6 -7 13 -7 15 0 9 -5 17 -12 22 -16 11 -47 58 -50 76 -2 10 -3 13 -10
20 -4 4 -10 14 -13 21 -4 8 -9 15 -12 17 -6 4 -14 20 -17 35 -2 13 -7 19 -16
25 -25 15 -25 14 19 97 13 23 32 59 43 80 12 21 23 43 25 47 3 4 9 16 14 25 5
11 12 20 17 24 8 8 12 15 12 24 0 7 33 72 46 90 2 3 5 9 7 14 4 12 10 24 22
41 6 9 12 20 14 24 2 4 7 14 13 23 20 31 13 44 -24 46 -24 1 -34 -2 -38 -12
-16 -32 -20 -42 -20 -44 0 -2 -3 -7 -6 -12 -3 -5 -6 -10 -6 -11 0 -1 -5 -12
-11 -24 -6 -12 -11 -25 -12 -30 -1 -5 -4 -10 -12 -18 -12 -12 -20 -27 -23 -43
-2 -11 -10 -27 -19 -39 -2 -4 -5 -10 -6 -15 -1 -8 -26 -36 -29 -32 -2 1 -7 55
-9 91 -1 12 -2 40 -3 63 -2 32 -2 42 0 51 14 53 -15 90 -54 70 -12 -6 -15
-152 -2 -175 5 -10 5 -3 10 -160 1 -28 2 -47 4 -51 8 -20 -23 -45 -36 -29 -9
12 -10 13 -11 37 0 14 -1 20 -5 27 -4 8 -4 12 -5 40 -1 26 -2 33 -4 39 -4 5
-4 14 -4 76 -1 56 -2 72 -4 77 -2 6 -3 21 -4 56 -2 62 -3 66 -26 66 -29 0 -34
-11 -29 -71 4 -55 6 -92 8 -147 2 -72 1 -77 -14 -50 -4 6 -11 16 -17 21 -9 8
-11 12 -13 20 -1 5 -4 11 -7 14 -7 7 -18 24 -22 34 -2 4 -7 12 -11 18 -4 5 -9
13 -11 17 -2 4 -5 9 -7 11 -3 3 -6 10 -7 16 -1 6 -5 14 -9 19 -12 17 -24 37
-25 42 -3 15 -6 20 -20 36 -19 23 -35 29 -53 21z"/>
<path d="M59 1103 c-8 -6 -9 -150 -2 -163 13 -24 34 -29 44 -10 4 8 4 155 0
165 -5 13 -31 18 -42 8z"/>
<path d="M147 1106 c-11 -4 -11 -5 -11 -85 0 -83 0 -82 17 -97 10 -8 16 -8 25
2 l8 8 0 76 c0 82 -1 87 -9 93 -6 4 -24 6 -30 3z"/>
<path d="M913 253 c-10 -3 -13 -145 -3 -166 11 -23 31 -28 41 -9 4 8 4 157 1
165 -5 9 -23 14 -39 10z"/>
<path d="M991 249 c-6 -5 -8 -138 -2 -156 7 -25 36 -35 45 -16 6 13 3 165 -4
171 -8 8 -31 9 -39 1z"/>
<path d="M62 236 c-10 -6 -10 -8 -9 -85 1 -81 1 -80 14 -95 12 -12 27 -10 34
4 7 14 4 161 -3 169 -8 8 -26 12 -36 7z"/>
<path d="M150 237 c-15 -3 -15 -3 -14 -86 0 -82 0 -80 15 -96 10 -11 25 -8 32
5 5 9 4 158 0 166 -5 8 -19 13 -33 11z"/>
</g>
</svg>
