<?xml version="1.0" standalone="no"?>
<!DOCTYPE svg PUBLIC "-//W3C//DTD SVG 20010904//EN"
 "http://www.w3.org/TR/2001/REC-SVG-20010904/DTD/svg10.dtd">
<svg version="1.0" xmlns="http://www.w3.org/2000/svg"
 width="430.000000pt" height="590.000000pt" viewBox="0 0 430.000000 590.000000"
 preserveAspectRatio="xMidYMid meet">
<metadata>
Created by potrace 1.16, written by Peter Selinger 2001-2019
</metadata>
<g transform="translate(0.000000,590.000000) scale(0.500000,-0.500000)"
fill="#000000" stroke="none">
<path d="M609 1114 c-4 -2 -8 -7 -10 -12 -9 -21 -151 -302 -160 -316 -10 -17
-12 -15 -80 106 -20 35 -25 44 -39 67 -16 26 -57 97 -67 116 -11 20 -21 31
-30 31 -9 0 -33 -14 -39 -22 -7 -11 -6 -11 21 -55 7 -12 14 -25 27 -48 21 -39
44 -75 56 -88 4 -4 9 -12 11 -16 2 -4 6 -11 9 -14 6 -7 18 -27 18 -31 0 -5 11
-27 20 -38 4 -6 9 -15 12 -19 2 -5 8 -14 12 -20 4 -7 9 -15 10 -19 1 -4 5 -11
9 -15 4 -5 7 -11 8 -14 1 -3 4 -10 6 -16 5 -9 5 -9 5 -89 -1 -88 0 -81 -23
-118 -8 -13 -14 -25 -41 -72 -8 -15 -19 -35 -25 -45 -6 -10 -21 -37 -34 -60
-13 -23 -26 -46 -30 -51 -7 -11 -24 -41 -28 -49 -1 -3 -16 -29 -33 -58 -37
-64 -37 -65 -6 -82 24 -12 37 -4 47 29 1 3 6 10 11 16 6 6 12 15 15 20 2 5 11
21 18 36 31 61 60 115 63 120 2 3 11 19 20 37 48 93 55 105 60 105 7 0 11 -7
36 -56 10 -18 21 -40 26 -48 5 -8 13 -24 19 -37 6 -12 15 -29 21 -38 5 -9 13
-24 18 -33 5 -9 11 -21 14 -25 3 -5 6 -9 6 -10 0 0 3 -6 6 -11 4 -6 18 -33 32
-61 36 -68 38 -70 66 -52 26 17 25 28 -3 69 -5 7 -11 18 -13 24 -2 6 -7 14
-10 18 -6 9 -25 40 -57 100 -8 15 -16 28 -18 30 -1 2 -8 14 -16 27 -7 13 -19
36 -27 50 -8 14 -16 29 -17 33 -1 4 -6 12 -10 17 -3 5 -7 11 -8 14 -1 4 -13
26 -21 37 -11 15 -15 194 -5 212 3 5 6 16 7 24 2 11 5 19 11 31 40 74 86 157
91 163 10 13 34 56 34 60 0 6 11 27 18 35 3 3 12 19 20 34 28 53 28 51 8 65
-24 17 -30 19 -41 12z"/>
<path d="M734 1047 c-7 -4 -20 -21 -21 -29 -2 -12 -7 -23 -15 -34 -3 -6 -8
-15 -10 -21 -2 -5 -7 -17 -11 -25 -4 -8 -19 -35 -33 -60 -13 -25 -31 -55 -39
-68 -16 -26 -17 -26 -26 -46 -9 -21 -36 -69 -44 -80 -4 -5 -9 -13 -11 -19 -2
-6 -7 -15 -11 -21 -25 -40 -27 -29 27 -141 8 -15 21 -43 30 -61 8 -18 31 -64
49 -102 49 -101 52 -107 91 -192 23 -48 28 -52 53 -39 28 13 33 28 17 53 -11
19 -32 59 -33 67 -1 4 -4 10 -8 15 -3 4 -8 10 -10 14 -2 4 -6 10 -9 13 -5 5
-7 10 -8 19 -2 8 -5 17 -8 22 -7 10 -27 51 -29 58 -1 3 -5 12 -9 21 -4 9 -8
18 -9 21 0 3 -4 10 -8 14 -4 5 -16 27 -27 49 -11 22 -21 43 -23 46 -43 85 -41
79 -32 92 2 3 10 17 17 30 15 29 24 43 37 60 9 12 21 34 21 38 0 7 56 112 69
128 4 6 12 20 18 31 13 26 26 50 30 54 22 25 37 71 27 78 -25 15 -42 20 -52
15z"/>
<path d="M92 1007 c-25 -15 -27 -22 -14 -42 4 -7 11 -17 14 -22 4 -6 12 -18
19 -28 6 -9 13 -22 16 -28 3 -5 9 -14 12 -18 4 -5 7 -9 7 -10 0 -1 3 -6 7 -11
4 -5 12 -18 17 -29 6 -11 15 -27 21 -35 6 -8 13 -19 15 -24 14 -30 17 -36 23
-42 3 -4 10 -13 14 -20 3 -7 9 -15 11 -17 3 -2 9 -11 15 -20 6 -9 13 -19 16
-23 12 -16 5 -42 -24 -88 -2 -4 -10 -17 -16 -29 -6 -12 -16 -28 -20 -36 -5 -8
-11 -19 -13 -25 -4 -10 -18 -37 -29 -56 -3 -6 -12 -21 -19 -34 -23 -42 -44
-81 -73 -131 -48 -84 -47 -79 -15 -99 17 -12 21 -12 31 -1 8 7 39 63 61 110 5
9 12 23 16 29 3 6 11 19 16 30 6 10 12 21 14 24 2 3 13 24 25 48 12 24 23 46
26 49 5 7 7 11 27 50 6 14 17 32 23 41 6 9 11 17 11 19 0 1 6 15 14 31 26 54
35 31 -94 241 -17 28 -34 57 -39 66 -4 8 -12 21 -17 28 -8 11 -21 34 -47 85
-16 30 -25 33 -51 17z"/>
</g>
</svg>
