<?xml version="1.0" standalone="no"?>
<!DOCTYPE svg PUBLIC "-//W3C//DTD SVG 20010904//EN"
 "http://www.w3.org/TR/2001/REC-SVG-20010904/DTD/svg10.dtd">
<svg version="1.0" xmlns="http://www.w3.org/2000/svg"
 width="108.000000pt" height="148.000000pt" viewBox="0 0 108.000000 148.000000"
 preserveAspectRatio="xMidYMid meet">
<metadata>
Created by potrace 1.16, written by Peter Selinger 2001-2019
</metadata>
<g transform="translate(0.000000,148.000000) scale(0.100000,-0.100000)"
fill="#000000" stroke="none">
<path d="M654 1185 c-60 -118 -113 -215 -119 -215 -5 0 -25 28 -44 63 -19 34
-60 105 -92 157 -31 52 -68 115 -82 140 -14 25 -32 46 -40 48 -12 2 -142 -86
-191 -129 -5 -4 21 -55 58 -114 36 -58 66 -108 66 -110 0 -7 102 -170 126
-202 13 -17 24 -42 24 -55 0 -13 -20 -58 -45 -102 -25 -43 -45 -80 -45 -83 0
-7 -172 -317 -191 -345 -11 -14 -19 -30 -19 -35 1 -9 185 -133 199 -133 5 0
18 16 28 35 177 335 236 436 248 423 7 -7 36 -58 65 -113 29 -55 56 -104 60
-110 4 -5 29 -50 55 -100 26 -49 56 -105 67 -122 l20 -33 91 48 c107 56 105
52 47 162 -22 41 -52 102 -67 135 -15 33 -60 124 -100 202 -40 78 -73 148 -72
155 0 7 18 40 39 73 22 33 52 87 68 120 16 33 61 115 100 183 39 67 73 130 76
140 4 13 -8 23 -57 46 -34 16 -81 42 -104 57 -23 16 -46 29 -50 29 -5 0 -58
-97 -119 -215z m184 100 c57 -31 57 -27 17 -101 -21 -38 -84 -150 -140 -249
l-103 -180 140 -284 c76 -156 137 -290 134 -297 -5 -13 -53 -31 -60 -23 -3 4
-130 234 -204 370 -73 134 -104 150 -145 76 -13 -23 -55 -96 -92 -162 -38 -66
-86 -153 -107 -193 -22 -39 -44 -72 -50 -72 -15 0 -68 40 -68 51 0 5 21 47 47
92 43 77 122 220 199 365 19 34 34 74 34 88 0 16 -46 101 -119 218 -157 251
-152 241 -115 271 42 35 57 31 83 -22 13 -27 45 -80 72 -120 27 -40 49 -75 49
-78 0 -12 101 -180 113 -186 23 -13 54 8 61 41 3 18 40 93 81 166 42 74 81
146 88 161 14 32 47 83 54 83 2 0 16 -7 31 -15z"/>
</g>
</svg>
