<?xml version="1.0" standalone="no"?>
<!DOCTYPE svg PUBLIC "-//W3C//DTD SVG 20010904//EN"
 "http://www.w3.org/TR/2001/REC-SVG-20010904/DTD/svg10.dtd">
<svg version="1.0" xmlns="http://www.w3.org/2000/svg"
 width="430.000000pt" height="590.000000pt" viewBox="0 0 430.000000 590.000000"
 preserveAspectRatio="xMidYMid meet">
<metadata>
Created by potrace 1.16, written by Peter Selinger 2001-2019
</metadata>
<g transform="translate(0.000000,590.000000) scale(0.500000,-0.500000)"
fill="#000000" stroke="none">
<path d="M614 1117 c-7 -3 -12 -11 -41 -70 -17 -34 -39 -77 -48 -95 -10 -18
-28 -54 -41 -80 -58 -112 -51 -107 -78 -61 -28 46 -57 98 -62 107 -3 5 -9 15
-14 23 -5 8 -19 32 -31 53 -13 21 -28 46 -33 55 -5 9 -12 21 -15 27 -19 39
-29 39 -79 1 -15 -11 -42 -31 -60 -44 -52 -37 -55 -42 -35 -65 2 -3 8 -11 13
-19 4 -8 11 -18 14 -22 10 -14 19 -30 25 -41 2 -5 7 -13 10 -17 10 -12 19 -26
30 -48 6 -12 16 -29 22 -37 6 -8 13 -19 15 -24 2 -5 6 -13 8 -17 2 -5 4 -9 4
-10 0 -1 4 -7 9 -13 5 -5 11 -15 14 -21 3 -6 10 -16 15 -22 5 -5 11 -13 13
-16 2 -4 8 -12 12 -18 17 -24 16 -29 -30 -111 -8 -14 -17 -30 -20 -36 -3 -6
-8 -14 -10 -17 -2 -3 -6 -11 -9 -17 -4 -13 -24 -51 -77 -145 -8 -14 -18 -33
-23 -42 -14 -25 -39 -70 -50 -87 -17 -26 -16 -29 15 -48 31 -19 76 -49 92 -61
39 -28 47 -26 66 16 3 6 9 15 13 20 4 4 9 12 11 16 2 4 5 9 6 11 1 2 11 20 21
40 32 62 50 97 56 106 3 5 19 35 36 66 48 93 43 91 76 28 8 -16 20 -39 27 -51
7 -12 18 -32 24 -45 6 -13 15 -29 19 -36 5 -7 12 -21 17 -31 5 -10 11 -20 13
-23 7 -9 28 -47 50 -90 30 -57 33 -61 50 -56 10 3 129 64 133 68 5 7 2 31 -7
42 -6 9 -30 56 -33 67 -1 5 -6 14 -10 18 -3 4 -7 10 -8 13 -1 2 -5 8 -8 12 -6
6 -8 11 -10 22 -2 9 -5 17 -9 22 -5 8 -28 55 -28 59 0 0 -3 8 -8 17 -4 10 -8
20 -9 23 -1 4 -5 11 -9 16 -5 6 -16 26 -26 47 -10 20 -21 42 -24 48 -34 63
-39 77 -30 89 3 4 10 17 16 29 12 24 25 44 39 63 9 13 19 31 19 36 0 7 58 116
69 130 4 4 9 14 13 21 3 7 7 15 8 17 12 22 23 40 30 52 40 65 41 62 -22 94
-25 12 -60 31 -79 42 -33 19 -41 22 -47 20z m61 -95 c36 -19 38 -24 22 -43 -3
-3 -6 -9 -7 -14 -4 -13 -69 -131 -91 -165 -7 -11 -14 -24 -16 -28 -4 -12 -40
-76 -48 -87 -4 -5 -10 -15 -14 -23 -4 -8 -12 -24 -18 -34 -15 -26 -20 -10 49
-150 21 -43 43 -89 49 -101 6 -12 22 -46 37 -76 83 -171 79 -155 51 -169 -24
-12 -28 -10 -40 20 -3 7 -7 15 -11 20 -5 6 -12 19 -55 97 -8 14 -16 29 -18 32
-3 3 -10 16 -16 28 -7 12 -19 34 -28 50 -8 15 -15 28 -15 30 0 1 -3 7 -7 13
-4 6 -9 15 -11 19 -6 14 -26 47 -31 50 -2 0 -5 3 -8 6 -21 23 -47 21 -59 -3
-3 -5 -7 -13 -10 -17 -3 -4 -13 -22 -22 -39 -14 -26 -43 -79 -89 -159 -6 -11
-13 -23 -16 -26 -3 -3 -14 -23 -25 -44 -31 -60 -36 -67 -43 -67 -4 0 -39 22
-47 29 -7 6 -2 23 14 46 3 4 6 10 7 13 2 6 24 49 29 56 2 3 7 12 11 20 4 8 11
20 14 25 4 6 13 24 22 40 16 34 26 52 31 59 2 3 12 21 22 41 10 20 22 41 27
47 4 6 9 15 11 20 2 6 10 21 16 34 22 44 21 50 -21 119 -30 48 -40 64 -89 142
-11 19 -23 40 -26 47 -4 7 -10 17 -15 22 -7 9 -29 46 -39 68 -7 13 -5 16 24
36 32 24 31 24 57 -25 13 -26 24 -43 44 -73 3 -5 9 -12 12 -16 4 -4 8 -11 10
-15 2 -4 6 -11 9 -14 6 -7 18 -27 18 -31 0 -5 12 -28 18 -36 3 -4 9 -13 13
-21 4 -8 10 -17 13 -20 2 -4 6 -11 8 -17 2 -6 7 -14 10 -17 3 -4 7 -11 8 -15
7 -23 14 -28 37 -28 23 0 33 9 36 35 2 16 77 163 98 191 4 5 9 13 12 18 2 5 9
17 15 26 5 9 10 19 10 22 0 6 9 23 17 33 4 4 9 12 11 17 10 20 10 20 43 2z"/>
</g>
</svg>
