<?xml version="1.0" standalone="no"?>
<!DOCTYPE svg PUBLIC "-//W3C//DTD SVG 20010904//EN"
 "http://www.w3.org/TR/2001/REC-SVG-20010904/DTD/svg10.dtd">
<svg version="1.0" xmlns="http://www.w3.org/2000/svg"
 width="73.000000pt" height="100.000000pt" viewBox="0 0 73.000000 100.000000"
 preserveAspectRatio="xMidYMid meet">
<metadata>
Created by potrace 1.16, written by Peter Selinger 2001-2019
</metadata>
<g transform="translate(0.000000,100.000000) scale(0.100000,-0.100000)"
fill="#000000" stroke="none">
<path d="M113 889 c-35 -27 -63 -51 -63 -53 0 -2 43 -72 95 -155 52 -83 95
-156 95 -162 0 -10 -68 -138 -169 -319 -17 -30 -31 -58 -31 -62 0 -13 121 -89
136 -86 9 2 50 68 92 147 42 80 82 146 88 148 6 2 46 -64 90 -148 43 -83 85
-153 92 -156 16 -7 107 34 124 55 9 11 -9 55 -86 211 l-99 197 53 94 c29 52
73 130 97 173 25 42 43 84 39 92 -7 18 -122 77 -143 73 -8 -2 -45 -61 -82
-132 -36 -71 -71 -131 -77 -133 -6 -2 -44 54 -84 124 -66 116 -85 143 -100
143 -3 -1 -33 -23 -67 -51z m461 -25 c9 -3 16 -14 16 -23 0 -9 -38 -84 -85
-166 -46 -83 -85 -156 -85 -164 0 -7 41 -97 90 -199 86 -177 97 -214 57 -199
-8 3 -45 61 -82 129 -80 146 -110 188 -134 188 -13 0 -42 -44 -102 -152 -47
-84 -91 -153 -98 -153 -8 0 -19 8 -25 18 -9 14 -6 26 12 60 120 216 162 298
162 314 0 11 -30 69 -67 129 -112 184 -111 181 -91 200 9 9 22 14 30 12 7 -3
45 -61 83 -129 86 -151 99 -167 119 -154 8 6 45 69 82 140 85 166 83 163 118
149z"/>
</g>
</svg>
