<?xml version="1.0" standalone="no"?>
<!DOCTYPE svg PUBLIC "-//W3C//DTD SVG 20010904//EN"
 "http://www.w3.org/TR/2001/REC-SVG-20010904/DTD/svg10.dtd">
<svg version="1.0" xmlns="http://www.w3.org/2000/svg"
 width="578.000000pt" height="590.000000pt" viewBox="0 0 578.000000 590.000000"
 preserveAspectRatio="xMidYMid meet">
<metadata>
Created by potrace 1.16, written by Peter Selinger 2001-2019
</metadata>
<g transform="translate(0.000000,590.000000) scale(0.500000,-0.500000)"
fill="#000000" stroke="none">
<path d="M862 1136 c-16 -8 -22 -49 -10 -71 3 -6 7 -15 8 -20 1 -6 5 -13 9
-18 6 -7 7 -11 10 -27 4 -23 13 -41 32 -62 11 -13 11 -13 10 -33 -2 -36 -4
-54 -8 -62 -2 -4 -4 -13 -4 -20 -1 -7 -2 -15 -3 -18 -1 -3 -4 -15 -6 -25 -2
-10 -6 -29 -9 -42 -16 -73 -26 -122 -33 -159 -2 -12 -5 -25 -6 -28 -1 -3 -3
-12 -4 -20 -1 -8 -4 -24 -7 -36 -6 -30 -22 -110 -26 -132 -2 -10 -8 -45 -15
-77 -7 -32 -13 -63 -14 -69 -1 -5 -3 -14 -4 -19 -1 -5 -4 -22 -8 -37 -9 -42
-9 -45 -15 -46 -7 -2 -28 10 -31 18 -2 3 -8 12 -14 18 -7 7 -13 15 -15 19 -2
4 -10 14 -18 24 -26 30 -27 50 -6 75 8 8 14 15 15 15 8 0 14 12 14 26 0 18 -1
20 -27 51 -10 12 -22 28 -26 35 -16 26 -20 32 -30 49 -6 9 -13 21 -16 27 -3 6
-11 18 -18 26 -6 9 -17 23 -22 32 -24 38 -31 47 -37 54 -3 4 -8 13 -10 18 -5
15 -9 23 -18 36 -13 18 -10 52 6 72 3 4 8 13 12 20 6 13 19 33 29 45 3 4 9 13
13 20 13 21 23 35 35 49 13 17 30 39 34 48 2 3 6 10 10 15 4 5 8 12 8 15 1 3
3 11 6 18 8 22 11 39 9 45 -3 7 -30 38 -42 46 -9 8 -44 39 -65 60 -20 20 -29
19 -40 -2 -15 -29 -28 -53 -39 -68 -6 -9 -17 -29 -24 -44 -11 -21 -17 -31 -25
-39 -6 -6 -12 -15 -14 -19 -11 -22 -41 -62 -49 -67 -6 -3 -15 3 -23 14 -3 5
-9 12 -13 17 -4 4 -10 12 -12 18 -2 5 -7 11 -10 13 -8 6 -31 36 -37 49 -2 5
-9 14 -15 20 -6 6 -13 14 -17 19 -3 5 -11 15 -18 21 -6 7 -14 17 -18 22 -40
57 -61 65 -81 29 -4 -6 -13 -18 -21 -26 -8 -8 -18 -19 -22 -25 -4 -5 -13 -16
-18 -22 -20 -24 -23 -36 -13 -47 8 -10 24 -35 45 -69 5 -9 14 -21 19 -28 5 -7
12 -16 15 -20 3 -5 11 -16 18 -25 8 -10 19 -26 26 -37 12 -18 17 -24 41 -52 9
-10 15 -19 31 -42 9 -14 7 -33 -7 -57 -20 -34 -25 -43 -39 -71 -8 -16 -20 -38
-26 -47 -5 -9 -18 -31 -27 -49 -9 -18 -20 -37 -25 -44 -5 -7 -13 -20 -18 -30
-5 -9 -14 -23 -20 -31 -27 -33 -26 -67 3 -88 4 -3 9 -8 13 -12 3 -4 10 -10 14
-15 4 -4 13 -14 20 -21 10 -12 12 -14 22 -16 5 -1 13 -4 16 -6 17 -10 54 19
68 53 7 16 24 42 45 68 16 19 22 30 26 39 2 6 6 13 9 15 6 6 21 28 25 40 15
39 39 55 50 34 3 -6 9 -15 13 -21 5 -6 11 -17 15 -24 3 -7 11 -18 16 -25 25
-28 41 -50 45 -64 2 -5 11 -21 20 -35 18 -28 20 -31 35 -56 26 -44 34 -50 59
-43 18 5 27 3 38 -10 5 -5 17 -16 27 -24 14 -11 21 -17 27 -27 9 -15 30 -36
42 -43 4 -3 12 -9 16 -13 27 -25 49 -10 63 40 5 16 10 32 11 36 11 24 15 42
17 63 1 14 2 24 5 28 4 9 13 49 13 62 0 5 3 20 6 32 3 12 8 31 10 42 2 10 5
22 7 25 4 9 15 59 15 73 0 4 2 12 5 19 4 10 5 15 5 35 0 20 1 26 4 33 3 6 5
16 6 30 1 12 3 25 4 29 1 4 4 17 6 28 2 11 6 24 8 29 3 5 5 15 5 24 1 8 3 24
6 36 6 27 11 51 23 114 4 22 10 54 14 72 4 19 14 26 43 31 8 2 11 3 14 9 8 12
13 16 24 19 8 2 11 4 16 11 3 6 7 8 13 10 13 4 30 30 30 46 0 30 -36 36 -51
10 -19 -33 -77 -60 -67 -31 1 3 4 15 6 25 2 10 6 27 8 36 9 40 5 49 -23 47
-21 -1 -27 -7 -27 -24 0 -5 -1 -15 -3 -21 -2 -6 -3 -16 -3 -23 0 -21 -9 -60
-14 -60 -6 0 -41 89 -51 129 -5 17 -14 22 -29 14z m-300 -106 c4 -1 9 -8 14
-13 4 -6 12 -15 19 -20 23 -19 23 -28 -1 -65 -5 -8 -14 -22 -21 -32 -6 -11
-17 -28 -24 -38 -24 -37 -44 -67 -51 -79 -4 -7 -12 -17 -16 -24 -5 -7 -12 -18
-17 -26 -5 -8 -12 -18 -15 -23 -21 -29 -13 -65 26 -109 3 -4 8 -12 10 -17 3
-5 8 -14 12 -20 3 -6 8 -14 9 -19 5 -17 46 -93 58 -108 8 -11 24 -35 30 -48 3
-5 10 -14 15 -19 9 -8 15 -17 33 -52 9 -16 0 -32 -39 -72 -16 -17 -32 -6 -60
40 -7 12 -17 28 -23 35 -6 8 -14 21 -19 29 -4 8 -16 30 -26 49 -11 19 -20 37
-21 39 -3 10 -12 26 -23 39 -6 8 -12 19 -15 24 -2 6 -7 13 -11 17 -3 4 -7 11
-9 15 -8 20 -33 22 -45 4 -3 -4 -8 -11 -11 -15 -4 -5 -8 -11 -9 -15 -3 -10
-14 -27 -23 -38 -7 -7 -9 -11 -10 -19 -2 -14 -8 -26 -17 -36 -4 -4 -9 -11 -12
-16 -3 -5 -11 -17 -19 -26 -18 -21 -42 -57 -46 -70 -16 -44 -32 -53 -60 -32
-30 22 -37 51 -18 69 6 6 9 10 10 16 1 6 4 12 13 22 12 16 23 33 31 54 3 8 9
18 12 22 4 5 10 14 13 22 4 8 9 18 12 22 4 5 8 13 9 17 9 26 43 79 57 89 28
20 31 59 6 84 -7 7 -12 16 -18 27 -6 14 -13 24 -33 47 -13 17 -28 35 -32 42
-4 7 -10 16 -14 20 -4 4 -9 14 -13 21 -11 24 -16 31 -41 72 -4 6 -11 14 -15
19 -18 20 -23 55 -10 66 34 24 38 23 83 -25 43 -46 49 -52 66 -75 9 -12 20
-25 23 -29 3 -4 13 -19 23 -35 10 -15 20 -29 22 -30 3 -2 9 -9 13 -15 15 -23
29 -22 40 1 10 19 43 68 61 89 22 27 31 41 52 83 31 63 46 78 65 65z"/>
</g>
</svg>
