<?xml version="1.0" standalone="no"?>
<!DOCTYPE svg PUBLIC "-//W3C//DTD SVG 20010904//EN"
 "http://www.w3.org/TR/2001/REC-SVG-20010904/DTD/svg10.dtd">
<svg version="1.0" xmlns="http://www.w3.org/2000/svg"
 width="97.000000pt" height="100.000000pt" viewBox="0 0 97.000000 100.000000"
 preserveAspectRatio="xMidYMid meet">
<metadata>
Created by potrace 1.16, written by Peter Selinger 2001-2019
</metadata>
<g transform="translate(0.000000,100.000000) scale(0.100000,-0.100000)"
fill="#000000" stroke="none">
<path d="M712 958 c-18 -18 -15 -32 23 -115 l35 -76 -55 -281 c-31 -155 -58
-294 -61 -311 -14 -77 -27 -84 -68 -31 -29 39 -33 68 -11 86 8 7 15 20 15 30
0 10 -36 74 -79 142 -44 68 -83 136 -86 151 -6 23 3 44 54 120 33 50 66 107
72 125 11 33 10 35 -42 88 -29 30 -58 53 -64 51 -5 -2 -37 -48 -70 -102 -33
-54 -65 -100 -71 -102 -6 -2 -45 42 -87 97 -43 55 -84 100 -92 100 -15 0 -95
-94 -95 -112 0 -13 81 -137 130 -199 22 -28 40 -56 40 -63 0 -7 -36 -75 -80
-152 -44 -76 -80 -142 -80 -147 0 -19 84 -97 105 -97 23 0 81 74 123 156 39
77 43 75 111 -33 79 -127 84 -133 110 -133 14 0 46 -22 80 -55 32 -30 66 -55
75 -55 32 0 53 80 147 573 l32 168 41 21 c54 27 76 47 76 70 0 31 -29 33 -59
4 -15 -14 -30 -26 -34 -26 -4 0 -5 22 -1 49 4 32 2 51 -5 56 -20 12 -40 -15
-43 -58 -4 -58 -19 -53 -38 12 -16 57 -28 69 -48 49z m-224 -110 c21 -21 13
-43 -58 -155 -38 -61 -70 -116 -70 -123 0 -14 87 -172 136 -246 19 -28 34 -60
34 -71 0 -24 -24 -47 -43 -40 -7 2 -43 57 -80 120 -71 122 -86 140 -104 129
-6 -4 -41 -56 -78 -117 -37 -60 -73 -113 -78 -117 -6 -4 -19 -2 -29 3 -33 18
-32 20 99 235 24 40 43 78 43 86 0 8 -34 63 -75 122 -89 128 -98 143 -91 162
13 33 47 13 107 -63 34 -42 63 -83 66 -90 3 -8 14 -18 24 -23 16 -9 25 -1 63
50 24 33 54 81 67 105 24 45 45 55 67 33z"/>
</g>
</svg>
