<?xml version="1.0" standalone="no"?>
<!DOCTYPE svg PUBLIC "-//W3C//DTD SVG 20010904//EN"
 "http://www.w3.org/TR/2001/REC-SVG-20010904/DTD/svg10.dtd">
<svg version="1.0" xmlns="http://www.w3.org/2000/svg"
 width="128.000000pt" height="148.000000pt" viewBox="0 0 128.000000 148.000000"
 preserveAspectRatio="xMidYMid meet">
<metadata>
Created by potrace 1.16, written by Peter Selinger 2001-2019
</metadata>
<g transform="translate(0.000000,148.000000) scale(0.100000,-0.100000)"
fill="#000000" stroke="none">
<path d="M715 1387 c-116 -39 -119 -40 -123 -64 -2 -14 21 -40 83 -93 47 -41
84 -77 83 -81 -2 -4 -39 -47 -83 -96 -45 -48 -92 -104 -105 -123 -34 -49 -43
-53 -63 -27 -10 12 -64 79 -120 149 -129 160 -127 159 -247 51 -86 -77 -104
-110 -78 -136 24 -25 215 -231 253 -275 l38 -43 -23 -32 c-13 -18 -80 -104
-149 -191 -77 -99 -125 -169 -126 -184 -1 -19 17 -39 80 -92 44 -37 86 -74 94
-83 16 -20 26 -10 190 195 56 71 107 128 114 128 11 0 168 -185 239 -282 42
-57 62 -58 115 -7 74 71 104 118 96 148 -6 25 -90 135 -237 309 -59 72 -68 86
-58 102 6 10 50 67 98 127 47 59 100 127 117 151 17 23 35 42 41 42 6 0 54
-43 106 -95 52 -53 101 -94 109 -93 8 2 18 17 22 33 4 17 14 57 23 90 20 78
20 139 1 155 -13 10 -30 6 -96 -24 -96 -44 -108 -40 -86 31 8 26 20 71 27 98
7 28 13 55 15 62 2 6 -2 19 -9 28 -12 17 -20 15 -119 -24 -94 -37 -137 -48
-137 -37 0 2 14 45 31 96 16 51 28 99 25 106 -8 20 -39 16 -141 -19z m75 -50
c0 -17 -33 -107 -39 -107 -11 0 -61 54 -61 66 0 12 58 42 83 43 9 1 17 0 17
-2z m203 -144 c5 -8 -21 -144 -28 -151 -2 -3 -31 20 -65 49 -33 29 -57 56 -53
60 7 7 114 45 135 48 4 1 9 -2 11 -6z m-144 -122 c23 -22 41 -42 41 -46 0 -3
-65 -87 -145 -186 -142 -176 -145 -181 -132 -207 15 -30 182 -245 265 -342 17
-20 32 -42 32 -48 0 -19 -61 -82 -79 -82 -11 0 -71 66 -151 166 -86 107 -138
164 -148 162 -15 -3 -121 -126 -234 -270 -58 -75 -58 -75 -129 -11 l-39 35 17
29 c10 16 21 29 25 29 4 0 25 26 46 58 22 31 50 68 64 82 13 14 36 43 51 65
15 22 45 62 66 88 36 46 38 51 25 76 -8 16 -77 93 -154 173 -77 81 -140 151
-140 156 0 13 103 102 117 102 6 0 18 -12 28 -26 19 -30 39 -54 78 -94 15 -15
27 -32 27 -36 0 -4 15 -21 33 -38 17 -17 44 -53 59 -79 28 -48 59 -62 75 -33
8 14 256 316 260 316 1 0 20 -18 42 -39z m315 -79 c7 -12 -18 -105 -30 -109
-15 -5 -87 74 -80 86 4 6 17 11 29 11 12 0 29 5 37 10 18 12 37 13 44 2z"/>
</g>
</svg>
