<?xml version="1.0" standalone="no"?>
<!DOCTYPE svg PUBLIC "-//W3C//DTD SVG 20010904//EN"
 "http://www.w3.org/TR/2001/REC-SVG-20010904/DTD/svg10.dtd">
<svg version="1.0" xmlns="http://www.w3.org/2000/svg"
 width="512.000000pt" height="590.000000pt" viewBox="0 0 512.000000 590.000000"
 preserveAspectRatio="xMidYMid meet">
<metadata>
Created by potrace 1.16, written by Peter Selinger 2001-2019
</metadata>
<g transform="translate(0.000000,590.000000) scale(0.500000,-0.500000)"
fill="#000000" stroke="none">
<path d="M644 1133 c-5 -2 -16 -7 -25 -10 -19 -6 -37 -12 -77 -25 -16 -6 -32
-10 -35 -10 -45 0 -44 -37 1 -76 42 -37 86 -76 92 -81 8 -10 6 -14 -19 -43
-13 -15 -30 -35 -38 -44 -7 -9 -23 -27 -35 -39 -38 -38 -39 -40 -44 -48 -2 -4
-6 -10 -8 -12 -2 -2 -7 -8 -9 -13 -13 -26 -22 -25 -44 2 -7 8 -21 25 -31 38
-29 35 -101 122 -119 145 -35 43 -55 45 -91 10 -9 -9 -20 -18 -24 -21 -4 -3
-21 -18 -39 -35 -18 -16 -38 -35 -45 -42 -26 -24 -23 -32 20 -80 18 -18 37
-39 42 -45 5 -6 17 -19 27 -29 39 -39 91 -97 97 -106 3 -6 13 -17 23 -27 19
-18 19 -17 11 -32 -2 -4 -5 -8 -6 -9 -1 -1 -6 -8 -11 -16 -5 -8 -16 -21 -23
-30 -7 -9 -16 -20 -20 -25 -8 -10 -36 -46 -57 -73 -114 -144 -112 -141 -110
-152 1 -3 2 -10 1 -16 0 -14 17 -33 50 -58 27 -20 44 -35 67 -57 32 -32 36
-33 47 -15 3 4 16 18 28 30 13 13 25 27 29 34 4 7 12 17 17 23 5 6 15 19 23
28 7 9 17 22 23 28 17 21 31 38 42 53 39 50 54 64 63 57 2 -2 14 -16 28 -33
13 -16 43 -53 66 -81 23 -28 47 -58 55 -67 7 -9 21 -26 30 -38 23 -29 47 -47
59 -44 8 2 89 82 101 99 5 7 11 16 13 19 5 5 5 7 4 25 -2 26 -4 29 -42 76 -19
23 -44 53 -56 68 -12 15 -43 53 -70 86 -78 96 -76 93 -74 100 1 4 14 21 64 84
22 28 57 73 77 99 61 81 60 79 70 75 3 -1 36 -32 73 -69 72 -71 74 -73 92 -73
18 0 23 6 23 27 0 6 1 14 3 17 1 3 3 9 4 13 1 4 3 10 4 13 3 5 5 15 17 71 9
40 6 58 -12 77 -10 11 -6 12 -71 -15 -84 -35 -85 -35 -75 3 2 8 9 37 16 64 7
27 15 57 17 67 13 49 -10 60 -67 32 -16 -7 -33 -14 -91 -34 -39 -13 -48 -12
-43 7 3 14 11 44 15 56 2 6 6 18 8 27 3 9 7 21 10 28 14 38 -7 60 -41 42z
m-17 -66 c1 -2 -1 -13 -4 -25 -15 -60 -14 -60 -42 -36 -34 32 -35 31 10 52 27
12 34 14 36 9z m171 -112 c3 -7 -20 -114 -25 -116 -7 -3 -32 18 -80 64 -15 15
-10 24 15 29 6 1 16 4 22 7 6 2 14 5 18 6 4 0 14 4 22 7 17 7 25 7 28 3z
m-142 -77 c59 -39 63 -57 24 -102 -6 -7 -16 -20 -22 -28 -6 -8 -18 -24 -27
-35 -9 -11 -22 -27 -29 -36 -7 -9 -22 -27 -33 -41 -11 -13 -29 -36 -40 -50
-11 -15 -26 -31 -32 -38 -22 -22 -14 -43 39 -105 31 -36 51 -61 62 -79 5 -9
13 -20 17 -25 5 -6 11 -14 15 -19 3 -6 12 -15 19 -21 13 -12 21 -21 33 -41 4
-7 15 -21 25 -31 23 -26 23 -26 16 -41 -12 -25 -43 -54 -58 -54 -9 0 -21 13
-105 117 -7 9 -19 23 -26 32 -8 8 -19 22 -25 31 -7 8 -15 19 -19 23 -4 5 -9
12 -12 17 -6 15 -34 42 -42 42 -20 0 -21 -1 -70 -62 -183 -225 -168 -210 -191
-192 -69 55 -71 62 -26 109 13 13 23 26 25 31 2 5 7 12 10 15 3 3 8 10 10 15
7 14 33 44 44 50 9 6 11 8 20 28 5 12 22 35 41 57 9 9 20 23 25 30 5 6 11 15
14 18 22 25 14 43 -45 105 -8 8 -18 20 -22 26 -5 6 -27 29 -49 52 -132 132
-126 118 -66 170 44 38 45 38 63 11 4 -5 14 -17 23 -26 11 -11 19 -21 23 -29
9 -16 12 -20 28 -30 11 -7 13 -9 14 -15 2 -13 7 -19 16 -23 10 -5 32 -30 37
-43 2 -4 7 -13 12 -19 4 -5 8 -13 9 -16 1 -3 6 -11 12 -17 23 -24 33 -20 66
21 10 13 23 28 29 35 11 12 16 19 66 80 25 31 50 60 67 78 5 5 11 12 12 15 6
12 15 16 23 10z m275 -86 c3 -2 -5 -47 -13 -71 -5 -17 -9 -15 -50 23 -30 28
-29 31 7 40 9 2 19 5 21 6 10 5 28 7 35 2z"/>
</g>
</svg>
