<?xml version="1.0" standalone="no"?>
<!DOCTYPE svg PUBLIC "-//W3C//DTD SVG 20010904//EN"
 "http://www.w3.org/TR/2001/REC-SVG-20010904/DTD/svg10.dtd">
<svg version="1.0" xmlns="http://www.w3.org/2000/svg"
 width="86.000000pt" height="100.000000pt" viewBox="0 0 86.000000 100.000000"
 preserveAspectRatio="xMidYMid meet">
<metadata>
Created by potrace 1.16, written by Peter Selinger 2001-2019
</metadata>
<g transform="translate(0.000000,100.000000) scale(0.100000,-0.100000)"
fill="#000000" stroke="none">
<path d="M485 944 c-109 -38 -111 -45 -40 -109 l59 -53 -24 -30 c-14 -16 -45
-55 -70 -86 -25 -31 -49 -56 -55 -56 -5 0 -41 41 -80 90 -74 95 -101 112 -138
87 -45 -31 -107 -95 -107 -111 0 -9 35 -53 78 -99 43 -45 88 -95 100 -111 l22
-28 -22 -32 c-13 -17 -55 -73 -95 -124 -43 -55 -73 -103 -73 -117 0 -16 18
-39 59 -74 32 -28 63 -51 69 -51 10 0 89 93 155 182 16 21 31 38 35 38 4 0 47
-49 95 -110 57 -72 93 -110 106 -110 27 0 101 87 101 118 0 25 -36 78 -138
204 -30 38 -52 74 -49 82 10 25 151 206 161 206 5 0 38 -27 73 -61 73 -70 85
-69 102 12 16 73 14 118 -5 126 -9 3 -37 -4 -61 -16 -25 -12 -49 -19 -54 -14
-4 4 1 35 12 68 34 107 23 120 -66 81 -91 -41 -98 -36 -69 47 15 45 14 77 -3
77 -4 -1 -39 -12 -78 -26z m175 -168 c0 -60 -22 -71 -61 -30 -24 25 -24 26 -5
40 11 8 30 14 43 14 18 0 23 -6 23 -24z m-79 -68 c9 -16 -4 -37 -86 -140 -84
-104 -96 -123 -87 -142 5 -11 51 -73 101 -136 91 -115 101 -136 79 -158 -25
-25 -47 -9 -127 93 -52 67 -89 105 -101 105 -12 0 -49 -38 -101 -102 -45 -57
-89 -104 -98 -106 -9 -2 -27 9 -40 22 l-24 26 42 52 c100 125 151 199 151 218
0 19 -84 123 -154 189 -20 19 -36 40 -36 47 0 15 47 54 65 54 12 0 123 -129
144 -168 6 -12 20 -26 30 -32 16 -8 30 4 97 86 44 53 85 103 92 110 15 16 39
8 53 -18z"/>
</g>
</svg>
