<?xml version="1.0" standalone="no"?>
<!DOCTYPE svg PUBLIC "-//W3C//DTD SVG 20010904//EN"
 "http://www.w3.org/TR/2001/REC-SVG-20010904/DTD/svg10.dtd">
<svg version="1.0" xmlns="http://www.w3.org/2000/svg"
 width="100.000000pt" height="45.000000pt" viewBox="0 0 100.000000 45.000000"
 preserveAspectRatio="xMidYMid meet">
<metadata>
Created by potrace 1.16, written by Peter Selinger 2001-2019
</metadata>
<g transform="translate(0.000000,45.000000) scale(0.100000,-0.100000)"
fill="#000000" stroke="none">
<path d="M20 388 c0 -56 32 -198 60 -268 35 -89 77 -119 129 -90 41 21 93 184
107 333 6 58 5 67 -9 67 -17 0 -22 -13 -32 -95 -8 -62 -59 -222 -80 -252 -9
-13 -20 -23 -25 -23 -23 0 -70 123 -94 245 -25 123 -25 125 -41 125 -11 0 -15
-12 -15 -42z"/>
<path d="M354 415 c-9 -24 13 -153 41 -242 33 -105 61 -147 101 -151 61 -6
109 87 143 275 20 110 19 133 -5 133 -14 0 -15 -4 -34 -114 -12 -76 -51 -196
-75 -232 -21 -32 -39 -21 -64 39 -23 55 -61 190 -61 216 0 30 -21 91 -31 91
-5 0 -12 -7 -15 -15z"/>
<path d="M675 421 c-16 -27 41 -263 87 -353 35 -71 102 -60 144 22 29 56 63
196 66 275 3 49 0 60 -14 63 -13 2 -18 -7 -23 -45 -9 -79 -41 -205 -65 -262
-18 -42 -27 -51 -44 -49 -16 2 -28 22 -53 88 -17 47 -37 117 -43 155 -17 102
-35 137 -55 106z"/>
</g>
</svg>
