<?xml version="1.0" standalone="no"?>
<!DOCTYPE svg PUBLIC "-//W3C//DTD SVG 20010904//EN"
 "http://www.w3.org/TR/2001/REC-SVG-20010904/DTD/svg10.dtd">
<svg version="1.0" xmlns="http://www.w3.org/2000/svg"
 width="1312.000000pt" height="590.000000pt" viewBox="0 0 1312.000000 590.000000"
 preserveAspectRatio="xMidYMid meet">
<metadata>
Created by potrace 1.16, written by Peter Selinger 2001-2019
</metadata>
<g transform="translate(0.000000,590.000000) scale(0.500000,-0.500000)"
fill="#000000" stroke="none">
<path d="M2506 1126 c-13 -3 -17 -7 -15 -21 1 -8 0 -13 -2 -18 -4 -10 -4 -17
1 -27 5 -12 5 -20 -1 -34 -5 -12 -5 -15 -5 -46 0 -33 0 -33 -6 -43 -7 -10 -7
-10 -8 -53 -1 -43 -1 -43 -7 -53 -7 -10 -7 -10 -7 -39 0 -24 -1 -32 -4 -41 -2
-7 -4 -18 -5 -25 -1 -10 -3 -15 -8 -21 -6 -8 -6 -8 -7 -39 -1 -29 -1 -31 -7
-40 -3 -6 -6 -15 -7 -22 -2 -9 -5 -19 -12 -32 -10 -18 -10 -19 -11 -38 0 -18
-1 -21 -7 -31 -4 -6 -7 -15 -8 -23 -1 -8 -3 -14 -7 -19 -12 -14 -13 -19 -15
-35 -1 -12 -2 -17 -7 -24 -3 -4 -6 -13 -8 -20 -2 -8 -5 -15 -11 -22 -4 -6 -8
-13 -9 -18 -3 -16 -4 -18 -8 -24 -4 -5 -6 -10 -7 -22 -2 -12 -4 -17 -10 -26
-8 -13 -10 -15 -12 -29 -3 -15 -21 -40 -40 -56 -9 -8 -22 -19 -29 -25 -36 -31
-42 -33 -63 -19 -8 5 -19 13 -24 15 -22 13 -38 33 -38 49 0 15 -4 24 -28 67
-3 5 -7 14 -8 20 -1 5 -4 13 -7 16 -5 6 -29 51 -29 55 0 1 -4 8 -8 16 -8 12
-8 14 -8 29 0 19 -2 24 -15 42 -22 31 -20 25 -22 67 -1 38 -1 38 -9 50 -5 9
-7 15 -8 25 -1 11 -3 15 -8 23 -4 6 -9 16 -11 24 -2 8 -6 19 -10 25 -6 11 -6
12 -7 38 -1 27 -1 28 -8 37 -12 17 -14 35 -14 85 1 43 1 43 -7 56 -8 13 -8 13
-8 55 0 44 0 44 -9 57 -2 3 -5 10 -7 15 -1 6 -5 13 -7 17 -7 10 -10 51 -5 73
5 25 0 30 -36 29 -33 -1 -38 -8 -29 -40 3 -13 4 -21 4 -50 0 -36 0 -36 8 -51
5 -9 8 -18 8 -22 0 -3 1 -11 3 -17 3 -10 3 -11 0 -21 -4 -13 -3 -20 5 -31 7
-12 10 -34 12 -97 1 -56 1 -56 6 -64 7 -10 10 -18 10 -26 0 -4 3 -12 7 -20 4
-7 7 -17 8 -23 2 -12 4 -17 9 -23 2 -2 5 -9 6 -14 1 -6 3 -13 4 -16 1 -3 2
-10 2 -16 0 -13 3 -22 9 -31 4 -5 6 -12 7 -21 1 -8 4 -16 7 -22 7 -11 13 -41
13 -60 0 -16 0 -16 19 -38 15 -18 18 -27 18 -49 0 -18 0 -20 7 -31 4 -7 8 -15
9 -19 1 -4 5 -14 9 -22 5 -9 8 -17 8 -21 0 -9 4 -16 11 -23 7 -7 24 -39 26
-50 1 -5 4 -12 9 -18 7 -10 8 -12 8 -22 0 -12 2 -16 14 -34 5 -7 11 -13 16
-16 5 -3 12 -7 15 -9 3 -3 14 -9 23 -15 10 -6 20 -13 23 -17 17 -21 15 -20 32
-21 20 -1 28 2 48 14 9 5 17 10 18 10 5 0 26 17 37 29 6 6 20 19 30 28 28 24
29 25 31 34 1 4 4 11 7 15 4 4 9 15 12 24 4 10 9 20 11 23 3 4 6 10 6 13 1 4
5 14 9 22 4 8 10 22 12 31 2 9 7 19 10 24 4 6 7 12 8 21 1 7 3 14 6 17 2 3 6
11 7 17 2 6 6 14 9 18 8 8 10 14 10 24 0 13 7 37 13 45 5 6 6 10 7 25 1 15 2
18 8 26 5 7 7 13 8 22 1 8 3 16 4 19 1 3 2 10 2 17 0 7 1 13 4 18 12 22 12 21
12 55 0 32 0 32 6 41 11 15 14 30 16 73 1 38 1 38 7 47 6 8 6 9 7 38 1 29 1
30 7 37 4 5 6 11 7 18 1 7 4 13 9 20 7 9 7 9 7 47 0 25 1 41 3 49 3 14 4 92 1
100 -3 8 -32 13 -52 9z"/>
<path d="M943 1125 c-12 -3 -16 -20 -10 -40 2 -7 3 -22 4 -44 1 -44 2 -46 9
-57 4 -6 6 -13 7 -19 1 -6 3 -15 4 -20 4 -10 4 -11 0 -18 -5 -11 -4 -20 4 -33
5 -8 7 -13 7 -19 0 -4 1 -12 2 -16 2 -4 3 -32 4 -63 1 -55 1 -55 7 -65 5 -7 7
-14 9 -24 1 -9 4 -16 8 -23 4 -6 6 -12 6 -16 0 -9 4 -21 9 -26 5 -5 13 -38 13
-50 0 -11 2 -18 9 -28 3 -4 5 -12 6 -19 1 -7 3 -16 7 -22 7 -13 14 -44 14 -63
0 -15 0 -15 19 -37 13 -17 16 -23 17 -47 1 -19 2 -22 7 -31 4 -6 8 -14 9 -20
1 -5 5 -15 9 -21 4 -6 7 -14 7 -17 0 -11 4 -20 12 -28 10 -10 23 -36 26 -49 2
-6 5 -14 10 -20 7 -10 8 -12 8 -23 0 -10 1 -14 5 -19 3 -4 7 -10 9 -14 4 -6
13 -13 38 -29 19 -12 36 -24 39 -28 3 -3 7 -9 10 -12 9 -11 46 -9 64 3 8 6 17
11 20 12 11 5 29 18 36 27 5 5 20 20 34 32 25 22 27 24 30 34 2 6 4 12 6 13 5
4 10 15 14 28 2 7 6 15 9 19 3 4 6 11 7 15 1 4 4 12 8 18 4 6 8 17 10 25 4 16
7 25 14 34 3 4 5 10 6 17 1 6 4 16 7 21 3 6 7 14 8 18 1 5 5 12 9 17 5 6 7 11
8 18 3 27 7 41 13 50 6 8 7 11 8 26 1 15 2 18 6 24 6 6 10 17 10 26 0 3 1 8 2
11 1 3 3 13 4 22 1 13 3 18 8 26 6 10 6 10 6 42 0 31 0 33 5 41 16 28 18 38
17 77 0 34 0 37 10 53 4 6 5 9 4 25 0 28 1 38 8 46 4 5 6 11 7 18 1 9 3 13 7
18 9 10 10 14 8 48 0 24 0 32 3 43 4 17 7 90 3 101 -3 9 -6 11 -25 12 -32 3
-41 -2 -41 -23 1 -7 -1 -17 -2 -21 -2 -8 -2 -10 1 -17 5 -12 5 -28 0 -41 -5
-10 -5 -14 -5 -43 0 -25 -1 -34 -3 -38 -11 -19 -11 -19 -11 -61 0 -40 0 -40
-7 -50 -7 -10 -7 -10 -7 -39 0 -25 -1 -32 -4 -41 -2 -6 -4 -18 -5 -25 -1 -12
-3 -16 -8 -22 -6 -7 -6 -7 -7 -38 -1 -29 -1 -32 -6 -40 -3 -5 -7 -15 -9 -23
-2 -9 -7 -22 -13 -34 -10 -19 -10 -20 -10 -38 0 -17 0 -19 -6 -28 -5 -7 -7
-14 -8 -22 -2 -14 -4 -18 -10 -24 -7 -7 -11 -15 -12 -31 -1 -12 -2 -17 -7 -24
-3 -4 -7 -14 -8 -20 -2 -8 -6 -17 -12 -24 -7 -9 -9 -14 -10 -23 -1 -8 -3 -13
-7 -18 -3 -4 -6 -8 -6 -8 0 0 -1 -7 -2 -15 -1 -14 -2 -17 -9 -26 -4 -6 -8 -15
-10 -22 -6 -22 -19 -43 -38 -59 -7 -5 -21 -17 -31 -26 -39 -33 -45 -36 -63
-23 -7 5 -18 12 -25 16 -24 14 -40 33 -40 49 0 13 -6 29 -20 52 -9 15 -15 27
-16 34 -1 6 -5 14 -8 18 -8 11 -23 40 -28 53 -2 6 -7 15 -10 21 -5 8 -6 11 -6
26 0 20 -3 27 -20 49 -17 23 -17 24 -18 64 -1 36 -1 36 -8 47 -6 9 -8 15 -9
25 0 10 -2 14 -8 23 -4 6 -8 16 -11 26 -2 8 -6 19 -10 23 -5 8 -5 10 -6 36 -1
27 -1 27 -8 39 -12 19 -14 32 -14 83 1 46 1 47 -11 63 -4 5 -4 8 -4 49 0 44 0
44 -7 53 -3 5 -8 14 -9 19 -2 6 -5 14 -8 18 -6 9 -8 61 -3 78 5 20 -19 30 -55
23z"/>
<path d="M75 1116 c-15 -5 -19 -17 -12 -37 3 -7 4 -22 5 -51 1 -41 1 -41 9
-53 5 -8 7 -14 7 -20 0 -4 1 -12 3 -16 4 -10 4 -15 0 -24 -4 -9 -3 -17 5 -29
8 -13 10 -34 12 -96 1 -55 1 -55 8 -66 4 -8 7 -15 8 -24 1 -9 4 -16 8 -23 5
-7 7 -14 8 -23 1 -8 3 -14 7 -19 6 -8 13 -33 13 -47 0 -12 3 -23 10 -32 3 -6
5 -13 6 -21 1 -9 4 -16 8 -23 7 -11 12 -35 12 -56 0 -17 2 -22 13 -34 20 -21
23 -29 25 -56 1 -19 2 -22 7 -31 4 -6 8 -14 9 -20 1 -5 5 -14 8 -19 4 -6 7
-14 8 -22 2 -13 6 -20 13 -25 3 -2 5 -5 6 -7 1 -3 4 -10 8 -16 4 -6 8 -16 9
-21 3 -12 6 -18 14 -28 5 -7 6 -9 6 -20 0 -8 1 -14 4 -17 16 -25 14 -23 36
-36 46 -29 49 -31 55 -41 8 -12 10 -13 34 -13 18 0 19 0 31 8 7 5 17 10 22 12
15 7 30 19 40 30 4 5 20 20 34 32 24 21 26 23 28 32 1 5 4 11 5 12 4 4 12 18
16 32 2 6 6 14 9 17 2 4 5 11 6 15 1 5 5 14 9 20 4 6 7 15 8 19 3 13 8 29 14
36 4 5 6 11 7 20 1 7 4 15 7 19 3 4 6 12 7 17 1 5 6 13 10 19 6 8 8 12 8 18 0
12 7 42 12 47 6 7 8 12 8 27 0 14 0 16 8 26 5 7 8 12 8 17 0 3 2 13 4 21 2 8
4 19 4 25 0 7 1 12 6 20 7 10 7 10 8 46 1 36 1 36 7 44 10 13 13 29 15 72 1
38 1 38 7 47 6 8 6 9 7 35 0 32 0 32 8 42 4 5 6 10 6 14 0 9 3 16 10 24 6 7 6
7 6 44 0 26 1 41 3 49 6 23 5 97 -1 103 -20 17 -66 6 -63 -16 1 -8 0 -14 -2
-20 -3 -9 -3 -9 1 -20 5 -14 5 -27 0 -39 -4 -8 -5 -13 -5 -44 0 -35 0 -35 -7
-46 -7 -10 -7 -10 -7 -52 0 -41 0 -41 -7 -52 -7 -11 -7 -11 -8 -45 -1 -26 -2
-36 -5 -41 -1 -5 -3 -12 -3 -17 0 -10 -3 -17 -11 -28 -3 -5 -4 -10 -5 -37 -1
-28 -1 -32 -5 -37 -3 -4 -6 -13 -8 -21 -4 -17 -7 -25 -15 -39 -6 -9 -7 -12 -8
-32 -1 -20 -2 -23 -8 -32 -3 -5 -6 -12 -6 -16 0 -11 -4 -20 -12 -30 -9 -10
-12 -19 -12 -34 0 -7 -2 -13 -7 -23 -4 -7 -7 -16 -8 -20 -1 -4 -5 -12 -10 -20
-7 -9 -10 -14 -11 -23 -1 -7 -3 -13 -7 -18 -4 -5 -6 -11 -7 -21 -3 -20 -3 -21
-10 -29 -5 -7 -9 -16 -13 -33 -2 -10 -22 -36 -35 -48 -8 -6 -22 -18 -31 -26
-30 -26 -50 -37 -54 -30 -1 1 -14 11 -30 21 -36 24 -42 32 -45 59 -2 15 -3 17
-27 59 -4 7 -7 16 -8 21 -1 5 -4 12 -9 19 -5 5 -8 11 -8 12 0 1 -3 7 -7 13 -3
6 -8 17 -11 24 -2 6 -7 16 -11 21 -5 9 -6 12 -7 30 -1 23 -3 27 -26 56 -9 11
-9 11 -11 51 -1 28 -2 40 -4 44 -2 3 -5 9 -8 13 -4 6 -5 11 -5 19 0 9 -1 13
-8 23 -5 7 -9 15 -10 23 -1 6 -5 17 -9 23 -7 12 -7 14 -7 34 0 23 -3 35 -11
45 -9 12 -11 27 -11 77 0 47 -1 51 -10 64 -5 8 -5 8 -6 53 -1 45 -1 45 -7 54
-4 5 -8 13 -9 18 -1 4 -4 12 -7 17 -7 10 -10 55 -4 76 5 22 -24 36 -54 25z"/>
</g>
</svg>
