<?xml version="1.0" standalone="no"?>
<!DOCTYPE svg PUBLIC "-//W3C//DTD SVG 20010904//EN"
 "http://www.w3.org/TR/2001/REC-SVG-20010904/DTD/svg10.dtd">
<svg version="1.0" xmlns="http://www.w3.org/2000/svg"
 width="100.000000pt" height="64.000000pt" viewBox="0 0 100.000000 64.000000"
 preserveAspectRatio="xMidYMid meet">
<metadata>
Created by potrace 1.16, written by Peter Selinger 2001-2019
</metadata>
<g transform="translate(0.000000,64.000000) scale(0.100000,-0.100000)"
fill="#000000" stroke="none">
<path d="M40 587 c0 -48 30 -214 53 -292 41 -140 86 -235 121 -256 43 -26 60
-24 100 12 47 41 90 155 127 334 34 161 35 220 4 220 -18 0 -21 -11 -32 -95
-17 -123 -44 -229 -85 -331 -52 -130 -80 -132 -134 -7 -35 79 -73 219 -95 353
-12 70 -17 80 -36 83 -18 3 -23 -1 -23 -21z"/>
<path d="M526 601 c-9 -14 23 -208 48 -296 30 -104 84 -233 107 -256 81 -81
172 24 229 261 29 119 53 268 47 285 -4 8 -15 15 -26 15 -23 0 -24 -4 -40
-130 -18 -152 -97 -382 -137 -397 -9 -3 -23 -2 -31 3 -35 22 -114 257 -133
394 -16 118 -20 130 -40 130 -10 0 -21 -4 -24 -9z"/>
</g>
</svg>
