<?xml version="1.0" standalone="no"?>
<!DOCTYPE svg PUBLIC "-//W3C//DTD SVG 20010904//EN"
 "http://www.w3.org/TR/2001/REC-SVG-20010904/DTD/svg10.dtd">
<svg version="1.0" xmlns="http://www.w3.org/2000/svg"
 width="924.000000pt" height="590.000000pt" viewBox="0 0 924.000000 590.000000"
 preserveAspectRatio="xMidYMid meet">
<metadata>
Created by potrace 1.16, written by Peter Selinger 2001-2019
</metadata>
<g transform="translate(0.000000,590.000000) scale(0.500000,-0.500000)"
fill="#000000" stroke="none">
<path d="M93 1122 c-12 -3 -16 -33 -9 -51 2 -4 3 -21 4 -46 1 -40 1 -40 7 -51
10 -16 13 -38 10 -64 -1 -12 -1 -14 6 -27 4 -8 7 -16 7 -21 0 -4 2 -11 3 -16
3 -8 4 -17 4 -62 0 -53 0 -53 7 -66 5 -8 8 -18 10 -26 1 -7 5 -17 8 -23 4 -7
6 -13 6 -19 0 -6 2 -11 5 -16 8 -12 9 -15 9 -20 0 -2 1 -7 3 -12 2 -4 4 -14 5
-23 1 -14 3 -19 8 -27 4 -7 7 -13 8 -23 2 -15 4 -21 10 -28 4 -4 6 -16 8 -45
1 -19 2 -25 5 -29 2 -2 9 -11 16 -19 14 -17 17 -27 17 -50 0 -14 3 -23 9 -30
2 -2 5 -9 6 -15 2 -7 6 -16 9 -21 4 -6 7 -14 8 -22 2 -13 4 -17 11 -24 3 -3 7
-9 10 -14 2 -5 7 -13 10 -19 3 -5 6 -14 7 -18 1 -5 5 -13 9 -18 6 -7 7 -10 7
-24 1 -13 2 -16 6 -21 3 -3 7 -8 9 -11 4 -9 10 -13 54 -39 11 -6 18 -12 24
-20 15 -19 51 -23 78 -9 8 4 21 11 29 15 15 8 23 15 42 35 4 5 15 14 24 22 27
22 29 25 31 34 1 4 4 11 7 16 5 8 10 19 14 31 1 4 4 9 6 11 5 5 9 12 11 21 1
4 4 11 7 16 3 5 7 16 9 25 3 16 5 21 14 32 3 4 5 11 6 18 0 6 3 15 6 19 2 5 6
14 8 20 2 5 5 13 8 16 7 8 8 12 10 25 2 20 5 32 12 42 5 8 6 12 7 26 1 15 2
17 8 24 6 7 10 18 10 27 0 3 1 8 2 11 1 3 3 14 4 23 1 14 3 19 8 27 6 10 6 10
5 42 -1 32 -1 32 7 43 4 6 8 13 9 17 1 3 3 10 4 15 2 6 3 18 3 42 0 33 0 33 6
45 7 12 7 12 7 39 0 26 0 28 5 35 7 10 10 18 10 25 0 4 2 9 8 14 7 9 7 9 8 51
1 23 2 45 4 49 2 8 3 105 0 109 -3 6 -11 7 -37 7 -39 1 -46 -4 -41 -26 1 -7 1
-11 -1 -20 -3 -11 -3 -12 0 -21 5 -15 6 -27 2 -35 -3 -6 -4 -14 -5 -44 -1 -37
-1 -37 -7 -47 -8 -11 -8 -12 -6 -56 1 -32 1 -32 -6 -43 -7 -11 -7 -11 -7 -39
0 -24 -1 -31 -4 -40 -2 -7 -5 -18 -5 -25 -1 -10 -3 -15 -9 -24 -7 -11 -7 -11
-8 -42 -1 -29 -2 -32 -7 -41 -3 -5 -5 -13 -5 -16 0 -4 -5 -16 -11 -29 -10 -22
-11 -24 -13 -44 -1 -19 -2 -22 -8 -31 -4 -7 -6 -13 -7 -22 -1 -9 -3 -13 -8
-21 -8 -10 -10 -14 -13 -32 -1 -7 -5 -18 -8 -26 -3 -7 -7 -17 -8 -21 -1 -5 -6
-13 -10 -19 -8 -11 -11 -17 -13 -30 -1 -5 -3 -11 -6 -14 -6 -7 -9 -17 -9 -30
0 -8 -1 -12 -11 -25 -2 -2 -5 -11 -7 -19 -9 -31 -36 -61 -90 -99 -19 -14 -21
-15 -29 -8 -3 2 -13 9 -22 14 -33 20 -42 31 -46 57 -2 9 -5 20 -7 24 -6 12
-14 27 -18 34 -3 3 -7 13 -9 21 -3 9 -7 18 -10 22 -6 8 -23 39 -26 50 -2 4 -6
13 -10 19 -7 11 -7 12 -7 30 0 22 -2 26 -22 52 -14 17 -14 15 -15 59 -1 36 -1
38 -11 51 -4 5 -5 10 -6 21 -1 11 -3 16 -8 22 -3 5 -8 15 -10 24 -2 9 -7 21
-10 26 -5 10 -6 13 -6 27 0 23 -3 39 -9 48 -13 20 -14 24 -14 79 0 51 0 51 -7
60 -7 10 -7 10 -8 56 -1 47 -1 47 -8 57 -5 6 -8 14 -8 16 0 3 -3 10 -6 15 -7
9 -7 9 -6 52 2 48 1 49 -12 53 -9 2 -47 2 -55 0z"/>
<path d="M1003 1122 c-26 -2 -36 -23 -25 -51 2 -4 3 -22 4 -45 1 -39 1 -39 8
-52 9 -18 12 -38 9 -65 -1 -11 -1 -13 6 -26 4 -8 7 -16 7 -21 0 -4 2 -11 3
-15 3 -7 4 -17 4 -62 0 -54 0 -54 7 -66 4 -8 8 -17 9 -27 2 -10 5 -17 9 -24 4
-6 6 -11 6 -17 0 -10 2 -15 8 -22 4 -5 10 -26 13 -49 2 -17 4 -22 11 -32 2 -3
4 -10 5 -17 1 -8 3 -16 7 -24 7 -14 12 -36 12 -57 0 -17 1 -18 17 -38 16 -20
19 -25 20 -48 1 -20 2 -25 9 -35 2 -3 6 -12 8 -19 2 -7 6 -16 9 -20 2 -4 5
-12 6 -18 2 -13 5 -19 12 -26 3 -3 8 -9 10 -15 3 -5 7 -14 10 -18 2 -4 5 -12
6 -16 1 -6 4 -13 9 -19 7 -10 8 -12 8 -24 0 -11 1 -15 5 -20 3 -4 7 -10 10
-14 5 -8 24 -22 44 -32 19 -10 28 -17 34 -27 12 -17 52 -22 76 -9 7 4 20 10
29 15 17 9 26 16 43 35 7 8 27 25 48 42 3 3 6 8 7 13 1 5 5 14 9 20 4 6 9 17
11 24 2 7 6 14 8 16 5 5 10 14 10 19 0 2 4 11 8 19 4 8 8 17 8 20 0 8 6 24 12
32 5 7 7 13 8 21 1 6 4 16 8 23 3 7 6 14 6 15 0 3 7 15 13 24 3 4 5 9 5 12 0
16 6 41 12 49 6 8 7 11 8 26 1 14 2 18 6 22 7 8 9 12 11 25 1 6 3 14 4 19 2 4
3 13 3 20 0 6 1 14 3 16 12 21 11 19 10 53 -2 31 -2 31 6 41 13 17 15 28 17
73 1 39 1 39 7 48 6 8 6 9 7 38 0 28 1 29 6 37 4 5 7 12 8 19 1 8 3 12 8 17 7
7 7 7 8 50 1 23 2 45 4 48 2 7 4 101 2 109 -2 9 -12 12 -38 12 -39 0 -44 -3
-44 -29 0 -9 0 -21 -1 -26 -1 -8 -1 -12 3 -20 5 -12 5 -18 0 -29 -3 -8 -4 -13
-4 -41 0 -34 -1 -39 -10 -52 -5 -7 -5 -9 -4 -26 2 -53 2 -61 -6 -72 -7 -9 -7
-9 -8 -44 -1 -23 -2 -36 -5 -42 -1 -4 -3 -12 -3 -18 0 -8 -2 -13 -8 -23 -8
-13 -8 -13 -8 -40 0 -26 0 -27 -6 -39 -3 -7 -6 -15 -6 -19 0 -5 -4 -16 -12
-32 -12 -24 -12 -25 -12 -42 0 -16 0 -18 -7 -29 -5 -8 -8 -15 -9 -24 -1 -10
-3 -15 -8 -20 -8 -12 -10 -15 -12 -31 -1 -8 -5 -21 -8 -28 -3 -7 -7 -17 -8
-21 -1 -5 -5 -12 -9 -17 -9 -12 -12 -19 -14 -31 -1 -6 -3 -11 -7 -16 -6 -6 -7
-9 -8 -24 -1 -14 -2 -17 -7 -24 -4 -5 -9 -15 -11 -24 -6 -19 -24 -47 -35 -56
-5 -3 -15 -12 -23 -19 -35 -31 -51 -41 -59 -35 -8 6 -20 14 -35 22 -20 13 -33
30 -35 48 -2 16 -5 22 -19 49 -8 14 -15 30 -17 37 -2 7 -6 15 -9 19 -16 20
-42 81 -42 98 0 20 -3 27 -23 52 l-12 16 -2 39 c-1 41 -2 43 -11 55 -5 6 -7
11 -8 22 -1 10 -3 16 -7 22 -3 4 -7 15 -9 23 -3 9 -7 21 -11 27 -5 10 -6 12
-6 34 -1 24 -3 32 -11 44 -10 13 -12 29 -12 79 0 46 0 46 -7 58 -8 12 -8 12
-9 57 -1 46 -1 46 -7 54 -4 5 -7 13 -8 17 -1 4 -4 11 -7 15 -6 8 -8 45 -4 73
5 30 -3 35 -51 31z"/>
</g>
</svg>
