<?xml version="1.0" standalone="no"?>
<!DOCTYPE svg PUBLIC "-//W3C//DTD SVG 20010904//EN"
 "http://www.w3.org/TR/2001/REC-SVG-20010904/DTD/svg10.dtd">
<svg version="1.0" xmlns="http://www.w3.org/2000/svg"
 width="100.000000pt" height="69.000000pt" viewBox="0 0 100.000000 69.000000"
 preserveAspectRatio="xMidYMid meet">
<metadata>
Created by potrace 1.16, written by Peter Selinger 2001-2019
</metadata>
<g transform="translate(0.000000,69.000000) scale(0.100000,-0.100000)"
fill="#000000" stroke="none">
<path d="M237 664 c-9 -9 -9 -506 -1 -528 10 -27 33 -18 39 17 3 17 5 140 3
272 -3 207 -5 240 -18 243 -9 1 -19 0 -23 -4z"/>
<path d="M717 508 c-7 -221 2 -382 24 -386 14 -3 17 21 23 201 9 244 2 347
-24 347 -15 0 -18 -18 -23 -162z"/>
<path d="M422 598 c-8 -8 -12 -61 -12 -175 0 -139 -3 -170 -20 -217 -22 -58
-95 -136 -127 -136 -43 0 -125 72 -154 135 -16 33 -19 66 -19 202 0 89 -3 168
-6 177 -10 26 -41 19 -48 -10 -4 -14 -4 -101 0 -192 6 -148 9 -172 30 -212 48
-93 111 -140 186 -140 58 0 94 17 135 63 59 67 68 111 68 321 0 187 -4 213
-33 184z"/>
<path d="M905 601 c-3 -6 -7 -91 -9 -188 -2 -169 -4 -180 -29 -229 -29 -58
-88 -114 -119 -114 -29 0 -113 64 -140 108 -21 34 -23 51 -28 219 -5 186 -11
210 -45 197 -16 -7 -17 -20 -11 -198 l7 -191 34 -55 c48 -79 93 -112 158 -118
40 -3 63 1 93 16 48 25 64 42 100 112 l29 55 0 195 c0 173 -2 195 -17 198 -9
2 -19 -2 -23 -7z"/>
</g>
</svg>
