<?xml version="1.0" standalone="no"?>
<!DOCTYPE svg PUBLIC "-//W3C//DTD SVG 20010904//EN"
 "http://www.w3.org/TR/2001/REC-SVG-20010904/DTD/svg10.dtd">
<svg version="1.0" xmlns="http://www.w3.org/2000/svg"
 width="214.000000pt" height="148.000000pt" viewBox="0 0 214.000000 148.000000"
 preserveAspectRatio="xMidYMid meet">
<metadata>
Created by potrace 1.16, written by Peter Selinger 2001-2019
</metadata>
<g transform="translate(0.000000,148.000000) scale(0.100000,-0.100000)"
fill="#000000" stroke="none">
<path d="M505 1410 c-7 -12 -3 -957 5 -1075 l5 -80 30 0 30 0 3 583 2 582 -34
0 c-19 0 -38 -5 -41 -10z"/>
<path d="M1550 841 l2 -581 24 -6 c14 -4 30 -2 34 2 6 6 10 257 10 584 l1 575
-36 3 -36 3 1 -580z"/>
<path d="M907 1267 c-13 -21 -19 -218 -18 -652 0 -72 -11 -114 -50 -201 -42
-93 -54 -115 -71 -131 -10 -9 -18 -21 -18 -27 0 -6 -27 -29 -60 -50 -33 -22
-60 -43 -60 -46 0 -15 -48 -26 -92 -22 -36 3 -51 10 -63 28 -8 13 -23 24 -33
24 -10 0 -25 8 -35 17 -9 10 -31 29 -48 43 -77 60 -94 85 -160 225 -24 49 -24
54 -25 415 -2 357 -2 364 -22 373 -12 5 -32 7 -46 3 l-25 -6 4 -298 c7 -381
12 -491 25 -506 5 -7 16 -32 25 -55 31 -89 141 -224 235 -287 19 -13 70 -31
113 -40 73 -15 81 -14 135 2 114 35 221 127 268 231 15 32 35 76 45 98 10 22
24 60 30 85 15 57 20 769 6 788 -15 19 -43 14 -60 -11z"/>
<path d="M1951 1265 c-18 -24 -20 -42 -20 -203 -1 -97 -2 -221 -2 -274 -1 -59
3 -103 10 -111 6 -8 9 -16 6 -19 -3 -3 -8 -31 -10 -64 -6 -61 -14 -90 -45
-159 -10 -22 -21 -49 -25 -60 -19 -61 -137 -195 -171 -195 -4 0 -17 -11 -30
-25 -20 -22 -28 -24 -71 -19 -30 4 -57 15 -74 30 -14 13 -31 24 -38 24 -8 0
-24 10 -36 23 -12 12 -35 31 -50 42 -15 11 -41 33 -57 49 -33 33 -107 181
-114 230 -6 43 -4 646 2 673 4 14 -2 29 -15 42 -24 24 -50 27 -74 9 -14 -12
-15 -47 -8 -393 l8 -380 40 -85 c50 -104 105 -178 180 -242 67 -57 94 -70 181
-87 60 -12 107 -8 142 9 8 5 32 16 53 25 60 26 161 127 192 192 55 113 73 159
84 206 7 29 11 184 11 411 0 323 -2 365 -16 370 -25 10 -31 7 -53 -19z"/>
</g>
</svg>
