<?xml version="1.0" standalone="no"?>
<!DOCTYPE svg PUBLIC "-//W3C//DTD SVG 20010904//EN"
 "http://www.w3.org/TR/2001/REC-SVG-20010904/DTD/svg10.dtd">
<svg version="1.0" xmlns="http://www.w3.org/2000/svg"
 width="856.000000pt" height="590.000000pt" viewBox="0 0 856.000000 590.000000"
 preserveAspectRatio="xMidYMid meet">
<metadata>
Created by potrace 1.16, written by Peter Selinger 2001-2019
</metadata>
<g transform="translate(0.000000,590.000000) scale(0.500000,-0.500000)"
fill="#000000" stroke="none">
<path d="M422 1140 c-7 -2 -13 -7 -17 -13 -4 -8 -1 -734 3 -745 5 -12 5 -30 1
-39 -5 -8 -5 -24 0 -33 3 -6 4 -13 5 -53 1 -52 0 -50 21 -52 16 -1 25 1 30 8
4 6 9 904 4 918 -3 9 -28 14 -47 9z"/>
<path d="M1256 1140 c-8 -2 -17 -12 -18 -20 -3 -23 1 -734 5 -739 4 -8 4 -28
0 -38 -4 -9 -4 -26 0 -34 3 -5 4 -13 5 -48 0 -56 1 -56 27 -56 16 0 22 2 25 8
4 6 7 911 3 919 -4 9 -27 13 -47 8z"/>
<path d="M1582 1032 c-22 -5 -35 -34 -35 -75 1 -194 1 -227 -3 -236 -7 -18 -4
-160 3 -171 9 -12 10 -19 6 -32 -2 -6 -3 -15 -3 -22 1 -31 -3 -62 -9 -75 -4
-7 -7 -17 -8 -22 -1 -7 -8 -23 -20 -48 -14 -26 -20 -40 -20 -47 -1 -6 -4 -13
-6 -17 -3 -3 -8 -13 -13 -21 -4 -8 -14 -22 -21 -30 -7 -8 -14 -17 -14 -20 -3
-10 -7 -16 -15 -20 -4 -2 -11 -7 -16 -11 -5 -5 -14 -12 -20 -16 -6 -4 -13 -9
-16 -12 -2 -3 -9 -6 -14 -8 -8 -3 -11 -5 -16 -13 -11 -18 -36 -29 -52 -23 -6
2 -16 3 -31 3 -22 0 -22 0 -28 7 -23 28 -30 33 -41 33 -10 0 -16 4 -23 15 -6
8 -10 12 -23 19 -14 7 -18 11 -23 19 -9 13 -13 16 -23 18 -9 1 -22 12 -27 23
-2 4 -7 11 -11 15 -4 5 -11 16 -16 24 -4 9 -11 20 -14 24 -6 8 -16 33 -20 49
-1 3 -5 11 -9 17 -4 5 -7 13 -8 16 -1 3 -3 9 -5 12 -1 3 -3 15 -4 28 -1 12 -3
27 -5 33 -4 15 -2 469 3 481 10 26 2 53 -19 62 -21 10 -55 4 -63 -11 -4 -9 -1
-130 4 -143 4 -9 4 -19 4 -215 0 -201 0 -206 4 -216 3 -8 4 -15 4 -29 0 -19 4
-31 16 -47 2 -2 7 -14 11 -26 7 -23 18 -46 28 -60 4 -5 9 -14 12 -19 2 -6 10
-16 16 -23 6 -8 11 -14 11 -16 0 -1 3 -6 8 -11 4 -4 10 -12 13 -16 8 -11 26
-29 29 -29 2 0 12 -9 24 -21 29 -28 64 -50 90 -57 4 -1 11 -3 15 -5 4 -1 13
-3 19 -3 5 0 13 -1 16 -3 4 -2 13 -4 22 -5 8 -1 19 -3 23 -5 11 -4 17 -4 30 1
7 2 15 4 18 4 3 0 14 4 23 8 9 4 19 8 21 8 7 0 58 26 66 34 4 4 11 9 15 11 16
8 77 71 85 87 4 8 10 18 13 22 3 4 7 12 10 17 2 6 6 14 9 18 3 4 5 10 5 13 0
15 11 40 20 48 8 6 10 10 11 16 1 4 3 11 4 15 2 5 4 16 5 23 1 8 4 23 8 33 l6
18 2 275 c0 151 1 284 1 294 0 30 -13 42 -39 36z"/>
<path d="M742 1029 c-3 -2 -11 -11 -17 -20 l-12 -18 0 -31 c1 -180 1 -232 -2
-239 -7 -17 -4 -161 4 -173 8 -12 8 -18 4 -31 -2 -5 -3 -14 -3 -22 1 -31 -3
-61 -9 -74 -4 -7 -7 -17 -8 -23 -1 -7 -7 -21 -21 -49 -15 -29 -20 -41 -20 -47
0 -5 -2 -10 -5 -14 -3 -4 -8 -14 -13 -22 -4 -8 -14 -21 -21 -29 -7 -8 -13 -16
-14 -20 -2 -10 -7 -17 -15 -21 -4 -2 -11 -7 -16 -11 -5 -5 -14 -12 -20 -15 -6
-4 -13 -10 -16 -13 -2 -3 -9 -6 -14 -8 -8 -3 -11 -5 -15 -11 -6 -10 -20 -22
-25 -22 -2 0 -7 -1 -12 -3 -6 -3 -8 -3 -16 0 -6 2 -16 3 -30 3 -25 0 -22 -1
-42 22 -11 13 -16 16 -30 18 -11 2 -14 4 -28 22 -2 3 -11 9 -19 13 -11 7 -15
10 -21 19 -7 11 -18 18 -26 18 -5 0 -16 10 -21 20 -3 5 -9 13 -13 17 -4 4 -11
14 -14 21 -4 7 -9 17 -13 22 -9 13 -12 19 -20 43 -4 12 -9 24 -13 28 -8 12
-14 33 -16 57 -1 13 -2 23 -4 26 -5 9 -3 478 2 490 21 48 -53 92 -81 49 -5 -8
-3 -129 3 -145 4 -11 4 -18 4 -217 0 -183 0 -206 3 -213 2 -4 4 -16 4 -28 2
-22 5 -32 16 -47 4 -5 15 -34 15 -39 0 -4 20 -43 24 -47 2 -2 7 -11 12 -19 4
-9 12 -20 17 -25 4 -5 10 -13 12 -16 11 -18 44 -55 49 -55 1 0 12 -9 24 -21
39 -37 92 -65 124 -65 6 0 13 -1 16 -3 4 -2 13 -4 22 -5 8 -1 19 -3 23 -5 11
-4 17 -4 30 1 7 2 15 4 18 4 3 0 14 4 23 8 9 4 19 8 21 8 8 0 56 25 68 36 6 5
13 10 15 10 6 0 76 72 83 87 4 8 10 17 12 21 3 3 7 11 9 16 2 5 6 13 9 17 3 4
5 11 6 15 2 15 12 41 17 45 11 9 14 13 14 18 0 3 2 10 4 16 2 7 4 16 4 22 0 5
2 14 3 18 14 37 13 7 13 332 l1 293 -8 7 c-8 8 -25 10 -35 4z"/>
</g>
</svg>
