<?xml version="1.0" standalone="no"?>
<!DOCTYPE svg PUBLIC "-//W3C//DTD SVG 20010904//EN"
 "http://www.w3.org/TR/2001/REC-SVG-20010904/DTD/svg10.dtd">
<svg version="1.0" xmlns="http://www.w3.org/2000/svg"
 width="456.000000pt" height="590.000000pt" viewBox="0 0 456.000000 590.000000"
 preserveAspectRatio="xMidYMid meet">
<metadata>
Created by potrace 1.16, written by Peter Selinger 2001-2019
</metadata>
<g transform="translate(0.000000,590.000000) scale(0.500000,-0.500000)"
fill="#000000" stroke="none">
<path d="M93 1122 c-11 -3 -16 -33 -9 -51 2 -4 3 -21 4 -46 1 -40 1 -40 8 -53
9 -18 12 -36 9 -62 -1 -12 -1 -14 6 -27 4 -8 7 -16 7 -21 0 -4 2 -11 3 -15 3
-7 4 -17 4 -62 0 -55 0 -55 8 -67 4 -8 8 -18 9 -26 1 -7 4 -17 7 -22 4 -5 6
-14 7 -20 1 -9 3 -14 8 -20 3 -5 6 -11 6 -13 0 -3 1 -8 3 -13 2 -5 4 -16 5
-26 1 -14 2 -17 8 -25 5 -7 7 -12 8 -24 1 -11 3 -17 7 -24 7 -9 11 -30 11 -49
0 -21 1 -24 17 -43 17 -21 21 -30 21 -53 0 -15 4 -30 10 -33 1 -1 3 -6 5 -13
2 -6 6 -17 10 -23 4 -8 7 -15 7 -20 0 -9 5 -20 10 -23 2 -1 7 -8 10 -14 4 -7
8 -16 11 -20 3 -4 6 -12 7 -17 1 -7 6 -15 10 -21 7 -9 8 -12 7 -16 -2 -10 1
-22 8 -30 4 -4 7 -10 8 -12 1 -4 24 -20 48 -33 17 -9 24 -15 30 -25 12 -19 51
-20 86 -3 31 16 37 21 61 44 12 11 28 27 37 35 14 12 17 15 18 22 1 4 3 9 5
12 5 8 13 24 16 33 1 4 6 12 9 17 4 5 8 12 8 16 1 4 4 12 8 18 3 6 7 16 8 23
3 15 9 27 15 35 2 3 5 9 5 16 1 6 3 15 6 19 2 4 6 13 8 18 2 6 6 14 9 18 7 9
9 16 12 39 2 14 4 20 9 28 6 9 7 13 8 27 1 16 2 18 8 25 7 8 8 11 10 25 0 4 2
13 4 19 2 6 3 16 3 21 0 9 1 13 7 21 6 11 6 11 7 46 1 34 1 35 6 42 11 14 15
33 16 74 1 37 1 37 8 47 6 10 6 10 5 35 -1 25 -1 25 7 37 5 8 8 15 9 22 1 6 3
12 4 13 8 7 9 13 9 49 0 24 1 39 3 47 8 34 5 116 -5 120 -32 13 -72 0 -72 -25
0 -9 0 -21 -1 -26 -1 -8 -1 -12 3 -20 5 -12 5 -17 1 -27 -3 -5 -4 -15 -5 -44
-1 -37 -1 -37 -8 -48 -7 -11 -7 -11 -6 -50 0 -40 0 -40 -6 -50 -7 -11 -7 -11
-8 -44 -1 -23 -2 -35 -4 -38 -1 -3 -3 -12 -4 -21 -1 -8 -3 -17 -5 -20 -2 -2
-5 -6 -6 -9 -3 -4 -4 -11 -5 -35 -1 -27 -2 -31 -6 -40 -3 -6 -6 -15 -7 -20 -1
-6 -6 -19 -12 -30 -9 -19 -10 -21 -11 -40 -1 -19 -2 -22 -8 -31 -5 -9 -10 -24
-10 -36 0 -1 -4 -6 -9 -12 -10 -12 -13 -20 -13 -35 0 -6 -2 -14 -6 -23 -3 -7
-7 -17 -8 -22 -1 -4 -5 -11 -8 -15 -8 -9 -12 -17 -13 -28 -1 -6 -4 -12 -7 -16
-7 -9 -8 -11 -9 -29 0 -9 -1 -14 -5 -18 -6 -7 -14 -24 -15 -33 -2 -11 -24 -43
-36 -52 -5 -4 -16 -13 -24 -20 -35 -31 -48 -38 -58 -30 -3 2 -13 9 -22 14 -31
19 -43 35 -46 60 -1 14 -1 14 -23 51 -3 6 -7 15 -9 20 -5 18 -7 22 -12 28 -3
3 -6 9 -8 14 -2 4 -5 12 -9 17 -3 4 -6 11 -8 15 -1 4 -5 13 -9 19 -7 11 -8 13
-8 31 0 22 -2 26 -19 48 -18 24 -18 23 -18 60 0 37 -1 44 -11 56 -6 7 -7 10
-7 19 0 6 -1 13 -4 16 -1 4 -5 10 -7 14 -3 5 -6 15 -8 23 -2 8 -6 17 -9 22 -4
6 -5 9 -6 33 -1 27 -1 27 -11 46 l-10 20 -1 52 c-1 55 -1 55 -11 68 -5 6 -5 8
-5 51 -1 46 -1 46 -8 55 -3 5 -7 13 -8 17 -1 5 -4 12 -7 16 -6 8 -6 8 -5 51 2
46 1 48 -9 52 -8 3 -48 4 -58 1z"/>
</g>
</svg>
