<?xml version="1.0" standalone="no"?>
<!DOCTYPE svg PUBLIC "-//W3C//DTD SVG 20010904//EN"
 "http://www.w3.org/TR/2001/REC-SVG-20010904/DTD/svg10.dtd">
<svg version="1.0" xmlns="http://www.w3.org/2000/svg"
 width="114.000000pt" height="148.000000pt" viewBox="0 0 114.000000 148.000000"
 preserveAspectRatio="xMidYMid meet">
<metadata>
Created by potrace 1.16, written by Peter Selinger 2001-2019
</metadata>
<g transform="translate(0.000000,148.000000) scale(0.100000,-0.100000)"
fill="#000000" stroke="none">
<path d="M106 1313 c4 -48 10 -92 15 -97 5 -6 9 -30 9 -54 0 -24 5 -53 12 -65
7 -12 12 -56 13 -97 1 -71 17 -141 51 -217 8 -17 14 -42 14 -56 0 -14 5 -29
10 -32 6 -3 10 -17 10 -30 0 -13 4 -26 9 -29 5 -3 12 -27 16 -53 4 -26 15 -60
26 -74 10 -15 19 -38 19 -51 0 -13 9 -43 20 -66 11 -22 20 -46 20 -52 0 -6 11
-27 24 -48 14 -20 32 -61 42 -90 13 -43 25 -59 62 -84 25 -17 53 -39 64 -50
23 -23 49 -23 99 3 94 47 163 143 224 309 9 25 25 63 36 85 10 22 19 46 19 54
0 15 17 71 31 106 14 32 30 105 38 165 3 30 11 62 16 70 9 14 22 97 28 181 1
20 8 43 15 52 14 16 32 155 32 250 l0 58 -47 -3 -47 -3 -3 -108 c-1 -59 -7
-115 -12 -126 -6 -10 -8 -41 -4 -68 3 -33 1 -53 -6 -57 -6 -4 -11 -25 -11 -47
0 -22 -9 -67 -21 -101 -11 -33 -18 -66 -15 -74 3 -7 -4 -36 -16 -66 -11 -29
-24 -69 -28 -88 -15 -61 -23 -84 -37 -105 -7 -11 -13 -28 -13 -38 0 -10 -13
-47 -30 -82 -16 -35 -30 -68 -30 -73 0 -5 -11 -34 -24 -63 -16 -37 -42 -69
-79 -102 -31 -26 -59 -47 -63 -47 -17 0 -94 73 -94 89 0 10 -26 67 -57 127
-31 60 -56 119 -55 130 1 12 -10 38 -23 58 -18 27 -25 50 -25 86 0 27 -4 52
-10 55 -5 3 -10 15 -10 26 0 10 -4 27 -9 37 -26 52 -40 93 -35 106 3 8 0 25
-8 38 -7 13 -16 59 -20 103 -15 166 -24 221 -42 253 -12 23 -16 50 -14 85 l3
52 -48 3 -47 3 6 -88z"/>
</g>
</svg>
