<?xml version="1.0" standalone="no"?>
<!DOCTYPE svg PUBLIC "-//W3C//DTD SVG 20010904//EN"
 "http://www.w3.org/TR/2001/REC-SVG-20010904/DTD/svg10.dtd">
<svg version="1.0" xmlns="http://www.w3.org/2000/svg"
 width="77.000000pt" height="100.000000pt" viewBox="0 0 77.000000 100.000000"
 preserveAspectRatio="xMidYMid meet">
<metadata>
Created by potrace 1.16, written by Peter Selinger 2001-2019
</metadata>
<g transform="translate(0.000000,100.000000) scale(0.100000,-0.100000)"
fill="#000000" stroke="none">
<path d="M77 948 c-16 -12 -15 -24 8 -173 33 -206 91 -402 178 -603 36 -83 89
-135 137 -135 35 0 92 42 125 92 59 89 134 312 166 491 11 63 24 128 29 144 6
16 10 64 10 106 0 84 -11 101 -51 80 -16 -9 -19 -22 -19 -80 0 -200 -119 -618
-205 -717 -42 -49 -54 -52 -88 -21 -31 29 -111 214 -142 327 -8 31 -22 81 -30
111 -14 50 -39 203 -52 320 -4 39 -23 70 -43 70 -3 0 -14 -6 -23 -12z"/>
</g>
</svg>
