<?xml version="1.0" standalone="no"?>
<!DOCTYPE svg PUBLIC "-//W3C//DTD SVG 20010904//EN"
 "http://www.w3.org/TR/2001/REC-SVG-20010904/DTD/svg10.dtd">
<svg version="1.0" xmlns="http://www.w3.org/2000/svg"
 width="108.000000pt" height="144.000000pt" viewBox="0 0 108.000000 144.000000"
 preserveAspectRatio="xMidYMid meet">
<metadata>
Created by potrace 1.16, written by Peter Selinger 2001-2019
</metadata>
<g transform="translate(0.000000,144.000000) scale(0.100000,-0.100000)"
fill="#000000" stroke="none">
<path d="M380 1333 c-85 -42 -201 -97 -258 -124 -110 -52 -122 -69 -82 -109
19 -19 20 -19 112 28 132 67 394 192 402 192 8 0 375 -198 429 -230 44 -27 59
-25 80 11 10 18 16 33 15 34 -2 1 -43 24 -93 50 -49 26 -103 56 -120 65 -16
10 -79 44 -140 75 -60 32 -119 64 -130 72 -11 7 -29 13 -40 12 -11 0 -90 -34
-175 -76z"/>
<path d="M197 1094 c-4 -4 -7 -183 -7 -398 0 -391 0 -391 24 -441 46 -97 227
-235 308 -235 38 0 101 27 171 72 47 30 99 96 148 188 l24 45 0 385 0 385 -29
0 -30 0 -3 -340 c-1 -187 -5 -361 -7 -386 -6 -61 -59 -155 -116 -207 -34 -30
-134 -82 -160 -82 -41 0 -195 118 -232 178 -23 37 -23 41 -28 437 l-5 400 -25
3 c-14 2 -29 0 -33 -4z"/>
<path d="M422 1008 l3 -93 30 0 30 0 0 90 0 90 -33 3 -33 3 3 -93z"/>
<path d="M628 1020 c-3 -93 6 -111 48 -91 24 10 25 14 22 88 l-3 78 -32 3 -31
3 -4 -81z"/>
</g>
</svg>
