<?xml version="1.0" standalone="no"?>
<!DOCTYPE svg PUBLIC "-//W3C//DTD SVG 20010904//EN"
 "http://www.w3.org/TR/2001/REC-SVG-20010904/DTD/svg10.dtd">
<svg version="1.0" xmlns="http://www.w3.org/2000/svg"
 width="982.000000pt" height="1312.000000pt" viewBox="0 0 982.000000 1312.000000"
 preserveAspectRatio="xMidYMid meet">
<metadata>
Created by potrace 1.16, written by Peter Selinger 2001-2019
</metadata>
<g transform="translate(0.000000,1312.000000) scale(0.500000,-0.500000)"
fill="#000000" stroke="none">
<path d="M946 2551 c-129 -68 -188 -99 -463 -246 -155 -83 -314 -167 -354
-188 -93 -49 -91 -47 -74 -78 14 -27 14 -27 69 3 58 32 210 114 333 179 171
91 378 201 461 246 89 48 91 49 98 49 5 0 19 -8 55 -30 93 -59 187 -117 329
-205 79 -48 159 -97 179 -110 68 -41 206 -128 254 -158 73 -46 70 -46 87 -17
16 27 15 29 -32 58 -58 35 -247 151 -373 229 -295 183 -476 294 -486 298 -13
6 -17 4 -83 -30z"/>
<path d="M1479 2013 c-8 -8 -10 -32 -4 -71 2 -15 3 -27 2 -44 -1 -13 -1 -39
-2 -58 0 -19 -1 -50 -3 -69 -2 -29 -2 -36 1 -48 4 -21 6 -106 3 -116 -2 -5 -3
-15 -2 -27 0 -10 1 -24 1 -31 0 -11 0 -113 -1 -154 0 -10 -1 -171 -2 -359 -1
-341 -1 -341 -6 -357 -2 -9 -4 -20 -4 -24 0 -25 -48 -135 -74 -171 -3 -5 -8
-14 -11 -21 -3 -8 -12 -22 -19 -32 -7 -10 -16 -23 -20 -29 -3 -6 -11 -18 -18
-27 -7 -9 -18 -23 -25 -32 -8 -11 -16 -18 -26 -24 -8 -6 -23 -18 -33 -29 -38
-39 -101 -74 -228 -129 -65 -27 -58 -27 -96 -3 -13 8 -32 20 -44 28 -35 21
-42 26 -61 40 -10 7 -23 16 -29 19 -13 6 -43 27 -63 44 -15 12 -22 17 -33 24
-4 2 -9 8 -12 13 -5 9 -12 14 -30 20 -10 3 -13 6 -20 15 -4 5 -15 16 -23 24
-31 28 -36 33 -50 60 -7 15 -20 35 -27 45 -18 23 -23 35 -28 61 -3 10 -7 26
-10 33 -5 10 -7 20 -8 34 -1 10 -3 23 -4 27 -3 12 -2 34 1 47 4 14 5 1202 1
1214 -1 4 -2 24 -2 52 0 60 2 58 -69 55 -42 -2 -41 -1 -39 -123 0 -9 0 -306 1
-660 0 -643 0 -643 5 -658 3 -8 7 -24 8 -36 3 -24 4 -28 12 -38 3 -4 7 -11 8
-16 2 -9 34 -70 45 -87 26 -41 74 -90 137 -139 10 -9 31 -25 45 -38 21 -18 28
-23 38 -26 14 -5 35 -20 61 -44 10 -9 21 -17 24 -18 4 -2 11 -6 16 -9 5 -3 14
-7 21 -9 14 -3 39 -19 51 -33 10 -11 12 -12 32 -18 6 -2 15 -6 20 -9 11 -7 23
-10 39 -10 7 0 19 -1 27 -2 12 -3 15 -2 29 1 9 3 23 5 31 7 13 1 17 3 25 8 6
4 19 11 29 15 10 4 24 9 31 12 7 3 16 6 21 8 5 1 18 9 29 16 11 7 32 19 47 27
104 52 191 134 257 244 6 10 15 23 20 29 6 7 10 14 12 21 5 15 7 18 22 39 10
13 13 19 14 27 2 11 4 15 12 24 9 9 14 21 18 43 2 10 6 24 9 32 22 48 22 47
23 447 1 288 2 347 4 358 4 17 4 27 0 47 -4 20 -4 34 0 59 3 16 3 28 2 61 -2
62 -2 146 1 298 3 166 6 151 -36 153 -14 1 -34 2 -45 3 -21 2 -21 2 -28 -6z"/>
<path d="M781 2014 c-8 -7 -8 -14 -6 -70 0 -28 1 -96 0 -150 -2 -124 -8 -112
56 -112 70 0 62 -21 62 163 -1 165 0 157 -20 168 -12 7 -84 7 -92 1z"/>
<path d="M1173 2016 c-8 -2 -18 -12 -22 -21 -4 -7 -4 -7 -2 -97 1 -46 1 -91
-1 -128 -3 -78 -7 -73 61 -72 63 1 56 -20 56 150 1 76 1 142 1 145 2 22 -51
35 -93 23z"/>
</g>
</svg>
