<?xml version="1.0" standalone="no"?>
<!DOCTYPE svg PUBLIC "-//W3C//DTD SVG 20010904//EN"
 "http://www.w3.org/TR/2001/REC-SVG-20010904/DTD/svg10.dtd">
<svg version="1.0" xmlns="http://www.w3.org/2000/svg"
 width="75.000000pt" height="100.000000pt" viewBox="0 0 75.000000 100.000000"
 preserveAspectRatio="xMidYMid meet">
<metadata>
Created by potrace 1.16, written by Peter Selinger 2001-2019
</metadata>
<g transform="translate(0.000000,100.000000) scale(0.100000,-0.100000)"
fill="#000000" stroke="none">
<path d="M203 901 c-203 -98 -206 -100 -180 -135 12 -16 25 -12 181 63 93 45
176 81 185 81 9 0 30 -9 47 -19 106 -65 275 -150 288 -145 23 9 29 37 10 51
-44 32 -314 173 -340 178 -22 3 -69 -15 -191 -74z"/>
<path d="M290 754 c-12 -30 -12 -50 -4 -93 5 -24 12 -31 29 -31 27 0 35 17 35
75 0 66 -41 100 -60 49z"/>
<path d="M434 757 c-3 -8 -4 -36 -2 -63 3 -45 5 -49 28 -49 24 0 25 3 25 60 0
55 -2 60 -23 63 -12 2 -24 -3 -28 -11z"/>
<path d="M564 759 c-4 -6 -9 -126 -12 -267 -5 -245 -6 -256 -29 -298 -31 -55
-74 -97 -123 -119 l-39 -18 -51 33 c-28 18 -66 51 -85 73 l-35 41 0 156 c0 86
-3 212 -7 278 -5 107 -8 122 -23 122 -10 0 -21 -7 -24 -16 -3 -9 -6 -136 -6
-283 l0 -268 28 -39 c40 -54 89 -95 148 -122 44 -21 55 -22 91 -13 72 20 133
69 172 141 l36 65 3 258 c2 189 0 262 -9 273 -14 17 -25 18 -35 3z"/>
</g>
</svg>
