<?xml version="1.0" standalone="no"?>
<!DOCTYPE svg PUBLIC "-//W3C//DTD SVG 20010904//EN"
 "http://www.w3.org/TR/2001/REC-SVG-20010904/DTD/svg10.dtd">
<svg version="1.0" xmlns="http://www.w3.org/2000/svg"
 width="386.000000pt" height="590.000000pt" viewBox="0 0 386.000000 590.000000"
 preserveAspectRatio="xMidYMid meet">
<metadata>
Created by potrace 1.16, written by Peter Selinger 2001-2019
</metadata>
<g transform="translate(0.000000,590.000000) scale(0.500000,-0.500000)"
fill="#000000" stroke="none">
<path d="M653 1127 c-5 -5 -5 -6 -5 -37 0 -22 -1 -34 -3 -40 -2 -7 -2 -9 0
-18 3 -8 3 -16 2 -33 -1 -27 -1 -34 0 -62 1 -18 1 -25 -2 -32 -2 -8 -3 -19 -2
-61 1 -62 1 -30 -1 -246 -1 -168 -1 -184 -5 -190 -2 -6 -3 -13 -3 -33 0 -24 0
-24 -10 -36 -6 -6 -13 -17 -16 -24 -4 -6 -12 -17 -18 -24 -8 -9 -13 -16 -16
-24 -7 -22 -23 -42 -36 -49 -5 -2 -12 -9 -18 -18 -16 -21 -53 -55 -70 -63 -8
-4 -19 -10 -24 -13 -9 -6 -28 -12 -48 -16 -16 -3 -31 1 -48 14 -2 2 -8 5 -13
6 -6 2 -12 7 -24 18 -9 9 -20 17 -25 20 -9 4 -36 25 -55 43 -5 6 -13 12 -18
14 -5 3 -8 6 -10 10 -2 8 -8 15 -20 20 -10 6 -14 12 -16 27 -1 8 -3 12 -11 21
-6 6 -11 14 -12 18 -1 5 -4 11 -7 14 -7 10 -12 21 -14 32 -1 5 -3 12 -4 15 -4
8 -4 19 1 27 5 9 6 644 1 656 -2 5 -4 16 -4 27 -2 29 -8 36 -31 36 -18 0 -21
-3 -22 -26 -1 -11 -3 -25 -5 -33 -4 -13 -4 -13 0 -23 5 -12 9 -268 5 -288 -3
-14 -3 -27 0 -39 4 -14 2 -68 -3 -76 -5 -11 -5 -213 1 -230 4 -10 4 -14 2 -22
-4 -22 1 -76 8 -86 3 -5 6 -10 6 -11 0 -1 2 -4 5 -7 7 -8 14 -19 17 -28 2 -9
27 -36 41 -45 4 -3 12 -10 16 -15 4 -5 12 -14 17 -19 6 -5 13 -13 16 -18 7
-12 21 -23 32 -26 6 -2 13 -7 24 -17 17 -16 29 -24 43 -27 8 -2 12 -5 20 -13
6 -6 14 -12 18 -14 5 -2 11 -6 14 -9 13 -11 63 -12 81 -1 5 4 14 7 19 8 5 1
13 4 18 7 5 3 10 6 11 6 1 0 10 8 20 17 12 12 20 17 26 19 6 2 11 6 16 11 4 5
10 10 15 12 5 2 10 6 13 10 3 4 8 8 11 10 9 6 41 37 48 48 4 6 8 11 10 13 2 1
6 8 10 14 5 8 12 15 18 20 8 6 11 10 13 16 2 4 6 12 9 16 4 4 9 11 10 15 2 5
7 11 10 16 7 7 7 7 7 32 0 24 0 25 6 32 8 11 8 9 7 79 0 35 -1 66 -1 70 1 137
3 260 6 266 3 7 2 16 -2 30 -2 8 -2 11 0 18 4 14 5 54 1 65 -4 13 -4 53 0 65
4 12 4 46 0 62 -3 11 -3 12 0 23 12 36 4 73 -15 73 -4 0 -12 1 -18 3 -14 4
-13 4 -19 -2z"/>
<path d="M270 1125 c-7 -4 -8 -10 -8 -92 0 -100 -3 -93 36 -93 37 0 34 -8 34
88 0 88 0 88 -12 95 -5 3 -43 4 -50 2z"/>
<path d="M479 1123 c-12 -5 -13 -6 -13 -89 -1 -93 -4 -85 34 -85 37 0 34 -9
34 88 0 96 2 89 -29 89 -13 0 -22 -1 -26 -3z"/>
</g>
</svg>
