<?xml version="1.0" standalone="no"?>
<!DOCTYPE svg PUBLIC "-//W3C//DTD SVG 20010904//EN"
 "http://www.w3.org/TR/2001/REC-SVG-20010904/DTD/svg10.dtd">
<svg version="1.0" xmlns="http://www.w3.org/2000/svg"
 width="96.000000pt" height="148.000000pt" viewBox="0 0 96.000000 148.000000"
 preserveAspectRatio="xMidYMid meet">
<metadata>
Created by potrace 1.16, written by Peter Selinger 2001-2019
</metadata>
<g transform="translate(0.000000,148.000000) scale(0.100000,-0.100000)"
fill="#000000" stroke="none">
<path d="M59 1408 c0 -2 -2 -228 -4 -503 l-3 -500 25 -45 c26 -44 147 -181
167 -189 6 -2 26 -17 44 -32 18 -16 39 -29 46 -29 7 0 21 -9 30 -19 10 -11 31
-25 47 -32 38 -15 98 1 149 39 19 15 49 36 66 48 68 46 87 68 196 213 17 23
27 49 28 72 0 20 3 39 8 43 4 4 8 121 9 259 2 271 2 282 4 312 1 11 1 34 0 50
-1 27 0 63 1 150 0 17 0 39 -1 50 -1 11 2 37 5 59 7 43 -4 56 -48 56 l-27 0 0
-137 c0 -76 -2 -294 -6 -486 l-6 -348 -32 -45 c-18 -25 -39 -59 -47 -75 -24
-45 -133 -145 -184 -169 -75 -34 -92 -29 -196 49 -77 58 -150 128 -150 144 0
9 -4 18 -9 21 -5 3 -19 24 -30 47 -21 40 -22 49 -20 511 1 497 2 487 -43 488
-10 0 -18 -1 -19 -2z"/>
<path d="M334 1399 c-9 -14 -8 -204 1 -218 7 -13 44 -14 62 -3 8 5 12 41 12
110 -1 89 -3 103 -19 112 -25 13 -47 13 -56 -1z"/>
<path d="M591 1401 c-9 -6 -13 -36 -14 -107 l-1 -99 42 -3 43 -3 -3 108 c-3
107 -3 108 -28 111 -14 1 -31 -2 -39 -7z"/>
</g>
</svg>
