<?xml version="1.0" standalone="no"?>
<!DOCTYPE svg PUBLIC "-//W3C//DTD SVG 20010904//EN"
 "http://www.w3.org/TR/2001/REC-SVG-20010904/DTD/svg10.dtd">
<svg version="1.0" xmlns="http://www.w3.org/2000/svg"
 width="65.000000pt" height="100.000000pt" viewBox="0 0 65.000000 100.000000"
 preserveAspectRatio="xMidYMid meet">
<metadata>
Created by potrace 1.16, written by Peter Selinger 2001-2019
</metadata>
<g transform="translate(0.000000,100.000000) scale(0.100000,-0.100000)"
fill="#000000" stroke="none">
<path d="M43 948 c-4 -7 -9 -163 -11 -346 l-3 -333 35 -48 c38 -51 118 -123
177 -159 68 -41 128 -23 219 64 33 31 74 80 92 108 l33 50 8 330 c9 344 8 351
-33 343 -13 -2 -16 -48 -21 -318 -5 -276 -8 -320 -24 -353 -25 -52 -119 -153
-165 -176 -33 -17 -39 -17 -67 -3 -47 22 -134 100 -165 147 l-28 41 0 307 c0
175 -4 318 -10 332 -10 28 -24 33 -37 14z"/>
<path d="M233 953 c-9 -3 -13 -30 -13 -83 0 -63 3 -79 16 -84 31 -12 44 13 44
83 0 77 -12 99 -47 84z"/>
<path d="M403 953 c-9 -3 -13 -29 -13 -78 0 -66 2 -74 21 -80 33 -11 40 6 37
86 -3 75 -11 87 -45 72z"/>
</g>
</svg>
