<?xml version="1.0" standalone="no"?>
<!DOCTYPE svg PUBLIC "-//W3C//DTD SVG 20010904//EN"
 "http://www.w3.org/TR/2001/REC-SVG-20010904/DTD/svg10.dtd">
<svg version="1.0" xmlns="http://www.w3.org/2000/svg"
 width="322.000000pt" height="590.000000pt" viewBox="0 0 322.000000 590.000000"
 preserveAspectRatio="xMidYMid meet">
<metadata>
Created by potrace 1.16, written by Peter Selinger 2001-2019
</metadata>
<g transform="translate(0.000000,590.000000) scale(0.500000,-0.500000)"
fill="#000000" stroke="none">
<path d="M53 1141 c-12 -3 -11 15 -11 -299 0 -227 -1 -291 -2 -296 -2 -5 -3
-33 -3 -112 l0 -104 8 -7 c8 -6 8 -6 9 -29 1 -22 1 -23 8 -35 4 -7 9 -17 10
-22 2 -11 18 -35 25 -40 3 -2 6 -6 7 -10 4 -8 23 -34 34 -44 5 -5 15 -14 22
-22 7 -7 18 -16 24 -19 7 -4 13 -9 16 -13 2 -4 9 -9 14 -12 5 -3 11 -7 14 -9
3 -2 10 -5 16 -7 6 -1 16 -6 22 -9 11 -7 11 -7 67 -7 l57 0 7 7 c5 5 11 8 16
9 4 1 10 4 14 6 4 3 11 7 15 9 5 3 11 8 16 16 4 6 11 14 16 17 4 3 12 11 19
17 7 6 15 12 18 14 4 2 8 7 10 10 2 4 6 10 9 14 3 4 7 10 9 15 1 4 8 13 15 20
6 7 14 17 16 22 3 6 9 16 13 24 10 14 13 23 13 36 0 5 2 16 5 25 6 21 8 525 2
548 -4 16 -4 202 0 219 11 44 1 69 -30 69 -27 0 -24 31 -25 -256 -1 -194 -2
-250 -3 -253 -4 -6 -4 -17 0 -26 5 -12 4 -238 -1 -255 -2 -7 -4 -18 -4 -24 0
-7 -1 -15 -3 -19 -1 -5 -3 -13 -4 -18 0 -6 -3 -15 -6 -19 -2 -5 -5 -12 -6 -17
-1 -4 -4 -10 -8 -15 -3 -4 -11 -14 -17 -22 -6 -8 -17 -22 -26 -30 -8 -8 -17
-18 -19 -22 -2 -4 -9 -10 -18 -15 -8 -5 -21 -15 -30 -22 -8 -8 -19 -16 -24
-18 -4 -2 -10 -6 -13 -7 -19 -13 -62 -10 -74 5 -2 2 -13 8 -25 14 -50 25 -65
35 -75 50 -3 4 -14 17 -24 29 -11 12 -23 27 -27 35 -5 8 -11 16 -13 18 -9 8
-20 38 -20 55 0 5 -1 13 -3 17 -3 6 -3 59 -4 405 -1 220 -2 400 -2 402 -2 7
-28 10 -46 7z"/>
<path d="M174 1136 c-5 -4 -7 -127 -2 -140 2 -4 2 -8 0 -12 -4 -12 -3 -43 2
-47 6 -6 42 -6 47 0 7 7 6 177 -2 189 -8 15 -33 20 -45 10z"/>
<path d="M282 1136 c-4 -4 -5 -33 -5 -162 0 -28 1 -31 15 -38 12 -6 32 -6 38
0 7 7 5 182 -2 192 -9 12 -37 17 -46 8z"/>
<path d="M402 1137 c-4 -4 -8 -181 -4 -190 7 -14 41 -21 51 -10 7 6 8 173 2
186 -8 16 -37 23 -49 14z"/>
</g>
</svg>
