<?xml version="1.0" standalone="no"?>
<!DOCTYPE svg PUBLIC "-//W3C//DTD SVG 20010904//EN"
 "http://www.w3.org/TR/2001/REC-SVG-20010904/DTD/svg10.dtd">
<svg version="1.0" xmlns="http://www.w3.org/2000/svg"
 width="64.000000pt" height="100.000000pt" viewBox="0 0 64.000000 100.000000"
 preserveAspectRatio="xMidYMid meet">
<metadata>
Created by potrace 1.16, written by Peter Selinger 2001-2019
</metadata>
<g transform="translate(0.000000,100.000000) scale(0.100000,-0.100000)"
fill="#000000" stroke="none">
<path d="M40 955 c-10 -12 -12 -73 -6 -283 6 -256 8 -270 33 -337 48 -126 104
-205 186 -260 75 -50 96 -47 173 27 84 81 117 135 148 242 25 85 26 99 26 352
0 166 -4 265 -10 269 -6 3 -19 4 -29 0 -18 -6 -19 -18 -19 -248 0 -133 -3
-255 -7 -272 -15 -61 -47 -150 -75 -204 -27 -54 -105 -131 -131 -131 -7 0 -35
17 -63 39 -40 30 -61 57 -94 122 -24 46 -48 102 -54 124 -6 22 -14 155 -18
297 -4 141 -11 261 -14 267 -10 16 -31 14 -46 -4z"/>
<path d="M293 962 c-8 -5 -13 -71 -15 -217 -3 -199 -5 -214 -31 -288 -16 -44
-27 -93 -25 -110 3 -32 4 -32 63 -35 33 -2 79 -1 103 3 37 6 42 9 42 33 0 14
-21 80 -47 146 l-46 119 6 168 c6 159 6 169 -13 179 -22 12 -22 12 -37 2z m60
-523 c9 -30 15 -60 12 -66 -5 -14 -81 -18 -88 -5 -9 14 34 133 46 129 7 -2 20
-28 30 -58z"/>
</g>
</svg>
