<?xml version="1.0" standalone="no"?>
<!DOCTYPE svg PUBLIC "-//W3C//DTD SVG 20010904//EN"
 "http://www.w3.org/TR/2001/REC-SVG-20010904/DTD/svg10.dtd">
<svg version="1.0" xmlns="http://www.w3.org/2000/svg"
 width="378.000000pt" height="590.000000pt" viewBox="0 0 378.000000 590.000000"
 preserveAspectRatio="xMidYMid meet">
<metadata>
Created by potrace 1.16, written by Peter Selinger 2001-2019
</metadata>
<g transform="translate(0.000000,590.000000) scale(0.500000,-0.500000)"
fill="#000000" stroke="none">
<path d="M344 1138 c-13 -3 -12 2 -11 -118 4 -375 4 -340 -2 -353 -3 -7 -5
-16 -5 -19 0 -21 -8 -49 -19 -65 -5 -7 -8 -14 -9 -23 -1 -6 -2 -13 -3 -14 0
-1 -2 -7 -3 -15 -1 -7 -4 -20 -8 -29 -3 -9 -6 -18 -6 -22 0 -3 -3 -10 -6 -15
-6 -10 -11 -27 -13 -50 -2 -14 5 -38 13 -43 8 -5 116 -5 126 1 6 4 12 4 55 5
64 1 73 18 45 83 -2 5 -5 14 -7 20 -1 6 -6 15 -10 21 -6 7 -9 13 -12 24 -1 8
-5 18 -7 22 -3 5 -5 14 -6 21 -1 9 -3 15 -8 21 -3 5 -6 11 -6 13 0 2 -1 9 -3
15 -2 6 -5 17 -7 24 -2 8 -6 17 -8 21 -3 5 -6 11 -7 14 -1 4 -3 9 -5 12 -8 10
-8 8 -6 227 2 152 2 213 0 216 -4 7 -41 11 -62 6z m45 -544 c5 -4 8 -12 12
-30 0 -3 4 -9 8 -14 7 -10 13 -26 19 -54 2 -10 5 -23 6 -28 2 -5 4 -14 5 -20
1 -6 3 -13 4 -15 3 -10 1 -10 -59 -11 -72 0 -82 19 -40 84 8 12 12 23 12 31 0
3 2 12 4 18 2 7 5 17 7 23 5 17 13 23 22 16z"/>
<path d="M45 1133 c-6 -6 -6 -99 -1 -117 3 -9 3 -31 0 -40 -4 -12 -3 -332 1
-348 3 -10 3 -26 3 -77 0 -35 0 -66 0 -69 0 -3 4 -10 10 -17 5 -6 10 -13 11
-15 1 -3 4 -9 7 -14 6 -8 6 -10 6 -33 0 -25 0 -26 16 -37 6 -4 12 -28 12 -48
0 -19 4 -27 18 -32 12 -5 15 -8 16 -24 2 -17 8 -28 18 -35 9 -7 19 -20 26 -34
3 -7 8 -14 15 -20 6 -5 13 -14 16 -19 6 -12 15 -20 35 -32 10 -5 24 -15 32
-22 8 -6 18 -14 24 -17 6 -3 11 -8 14 -12 19 -31 105 -30 138 2 7 7 16 15 20
18 5 3 11 10 15 17 5 9 8 12 19 18 9 5 15 10 19 16 3 5 12 14 20 19 15 12 19
17 26 32 3 7 9 16 14 22 5 5 12 16 16 24 4 8 10 17 15 22 8 8 17 27 24 50 2 7
6 16 9 20 4 6 5 10 5 18 0 7 2 16 6 26 3 8 6 20 7 26 1 7 3 16 5 22 2 5 4 14
4 20 0 8 1 12 6 19 6 7 7 11 8 23 1 8 3 17 5 20 4 9 4 12 -1 22 -5 9 -5 9 1
17 6 9 6 9 6 107 0 54 1 183 2 288 1 224 6 199 -35 199 -38 0 -34 13 -34 -112
0 -57 1 -110 2 -118 1 -8 3 -22 4 -31 1 -9 2 -18 4 -20 4 -8 2 -18 -3 -25 -5
-7 -5 -7 -4 -104 2 -91 1 -97 -2 -104 -3 -5 -4 -12 -4 -30 0 -15 -2 -25 -4
-30 -2 -6 -3 -15 -3 -40 1 -41 0 -44 -11 -52 -9 -7 -11 -11 -11 -31 0 -11 -1
-13 -6 -20 -8 -9 -14 -33 -14 -52 0 -14 0 -14 -15 -26 -4 -3 -6 -7 -7 -14 -2
-11 -13 -31 -24 -42 -7 -7 -9 -11 -12 -25 -7 -32 -6 -30 -29 -50 -12 -11 -26
-22 -32 -26 -5 -4 -15 -13 -22 -20 -25 -28 -23 -27 -42 -33 -21 -6 -28 -6 -40
2 -4 3 -12 7 -17 9 -6 2 -14 8 -23 17 -9 8 -18 15 -27 19 -22 11 -56 48 -56
63 0 2 -4 8 -10 13 -9 9 -10 11 -11 21 -1 7 -4 17 -7 23 -3 6 -6 14 -8 18 -1
4 -7 12 -13 18 -8 8 -11 13 -12 18 -2 11 -6 17 -16 25 -10 9 -12 13 -14 30 0
9 -3 16 -7 25 -7 12 -7 14 -7 34 0 30 0 29 -10 40 -17 18 -24 61 -15 87 5 15
5 18 0 31 -4 11 -4 11 -3 218 2 207 2 207 -4 217 -6 9 -6 9 -1 19 8 16 8 51 0
55 -11 6 -57 4 -63 -2z"/>
</g>
</svg>
