<?xml version="1.0" standalone="no"?>
<!DOCTYPE svg PUBLIC "-//W3C//DTD SVG 20010904//EN"
 "http://www.w3.org/TR/2001/REC-SVG-20010904/DTD/svg10.dtd">
<svg version="1.0" xmlns="http://www.w3.org/2000/svg"
 width="94.000000pt" height="148.000000pt" viewBox="0 0 94.000000 148.000000"
 preserveAspectRatio="xMidYMid meet">
<metadata>
Created by potrace 1.16, written by Peter Selinger 2001-2019
</metadata>
<g transform="translate(0.000000,148.000000) scale(0.100000,-0.100000)"
fill="#000000" stroke="none">
<path d="M53 1011 c4 -397 5 -410 25 -444 12 -19 22 -47 22 -62 0 -16 7 -36
15 -45 8 -9 17 -32 19 -51 2 -19 4 -37 5 -41 0 -4 10 -10 21 -13 12 -4 20 -15
20 -29 0 -12 11 -33 25 -46 14 -13 25 -28 25 -34 0 -16 66 -82 139 -137 55
-43 70 -49 111 -49 37 0 55 6 81 28 70 57 142 134 184 197 40 59 95 194 95
233 0 15 13 63 31 108 4 13 3 26 -3 32 -6 6 -6 12 1 16 8 5 11 122 11 377 l0
370 -42 -3 -42 -3 3 -150 c1 -82 4 -152 6 -155 2 -3 -1 -118 -7 -255 -7 -189
-13 -254 -24 -266 -8 -8 -14 -23 -14 -33 0 -9 -7 -30 -15 -47 -9 -16 -13 -34
-10 -39 3 -5 -9 -36 -28 -69 -19 -32 -38 -69 -42 -82 -8 -30 -131 -148 -167
-161 -21 -7 -33 -5 -55 9 -64 41 -143 112 -143 128 0 7 -6 18 -14 24 -7 6 -16
25 -19 41 -4 16 -22 52 -42 80 -19 27 -35 59 -35 69 0 11 -4 23 -10 26 -5 3
-10 22 -10 41 0 19 -7 46 -17 60 -14 22 -16 67 -18 352 -1 180 -3 336 -4 347
-1 11 1 35 5 53 l6 32 -47 0 -46 0 4 -409z"/>
<path d="M411 1128 c2 -284 -3 -354 -30 -406 -16 -29 -61 -188 -61 -213 0 -51
7 -52 156 -44 77 4 143 9 148 12 12 8 1 77 -22 125 -11 24 -25 59 -32 78 -14
40 -19 55 -46 125 -16 44 -19 86 -21 333 l-4 282 -45 0 -46 0 3 -292z m88
-423 c18 -41 51 -154 51 -176 0 -5 -34 -9 -75 -9 -93 0 -98 7 -61 93 14 34 26
67 26 74 0 21 19 63 29 63 6 0 19 -20 30 -45z"/>
</g>
</svg>
