<?xml version="1.0" standalone="no"?>
<!DOCTYPE svg PUBLIC "-//W3C//DTD SVG 20010904//EN"
 "http://www.w3.org/TR/2001/REC-SVG-20010904/DTD/svg10.dtd">
<svg version="1.0" xmlns="http://www.w3.org/2000/svg"
 width="102.000000pt" height="148.000000pt" viewBox="0 0 102.000000 148.000000"
 preserveAspectRatio="xMidYMid meet">
<metadata>
Created by potrace 1.16, written by Peter Selinger 2001-2019
</metadata>
<g transform="translate(0.000000,148.000000) scale(0.100000,-0.100000)"
fill="#000000" stroke="none">
<path d="M497 1422 l-28 -3 2 -507 c1 -279 4 -541 8 -582 l6 -75 30 0 30 0 3
581 c2 627 5 593 -51 586z"/>
<path d="M881 1271 c-12 -12 -21 -24 -21 -28 -7 -214 -7 -554 0 -558 23 -14
-8 -173 -50 -255 -11 -22 -20 -44 -20 -50 0 -6 -18 -38 -40 -72 -27 -42 -64
-80 -117 -119 -74 -56 -79 -58 -122 -52 -30 4 -54 15 -68 30 -12 12 -27 23
-34 23 -11 0 -46 26 -102 75 -15 14 -31 25 -35 25 -11 0 -63 87 -97 160 l-29
65 -3 365 c-2 350 -2 366 -21 378 -12 8 -30 10 -46 6 l-26 -6 5 -302 c7 -395
12 -482 29 -514 7 -15 29 -58 47 -95 38 -79 140 -195 203 -231 52 -30 179 -59
220 -50 32 7 33 7 108 44 89 43 179 144 208 235 7 22 19 48 28 57 31 36 36
103 36 493 1 358 0 390 -16 393 -9 2 -26 -6 -37 -17z"/>
</g>
</svg>
