<?xml version="1.0" standalone="no"?>
<!DOCTYPE svg PUBLIC "-//W3C//DTD SVG 20010904//EN"
 "http://www.w3.org/TR/2001/REC-SVG-20010904/DTD/svg10.dtd">
<svg version="1.0" xmlns="http://www.w3.org/2000/svg"
 width="408.000000pt" height="590.000000pt" viewBox="0 0 408.000000 590.000000"
 preserveAspectRatio="xMidYMid meet">
<metadata>
Created by potrace 1.16, written by Peter Selinger 2001-2019
</metadata>
<g transform="translate(0.000000,590.000000) scale(0.500000,-0.500000)"
fill="#000000" stroke="none">
<path d="M396 1140 c-7 -2 -13 -7 -17 -13 -4 -8 -1 -736 3 -747 5 -11 5 -24 0
-39 -5 -13 -5 -20 0 -30 3 -7 4 -16 5 -52 2 -55 1 -54 30 -54 16 0 22 3 24 13
4 25 2 915 -3 918 -6 5 -30 7 -42 4z"/>
<path d="M714 1029 c-3 -2 -11 -11 -17 -21 l-11 -17 1 -41 c0 -23 1 -44 1 -47
0 -3 0 -43 0 -88 0 -79 0 -82 -4 -93 -8 -20 -5 -161 4 -173 7 -11 8 -18 3 -35
-2 -7 -3 -14 -2 -16 4 -15 -2 -63 -10 -78 -4 -8 -7 -18 -7 -22 0 -5 -6 -19
-20 -46 -13 -27 -20 -42 -21 -49 -1 -6 -3 -13 -7 -18 -3 -4 -8 -14 -12 -21 -3
-7 -12 -18 -19 -26 -9 -9 -13 -16 -16 -24 -3 -9 -12 -20 -17 -20 -1 0 -6 -3
-11 -8 -4 -4 -12 -10 -17 -13 -5 -3 -13 -9 -18 -14 -6 -6 -12 -9 -17 -10 -5
-1 -9 -4 -12 -7 -18 -25 -38 -35 -56 -29 -6 2 -17 3 -31 3 l-22 0 -14 17 c-15
17 -23 23 -33 23 -10 0 -17 4 -22 13 -7 11 -9 13 -26 22 -12 6 -16 9 -21 18
-8 12 -10 14 -23 18 -11 3 -17 9 -26 23 -3 5 -9 13 -13 17 -4 5 -11 14 -14 21
-4 7 -8 16 -11 19 -9 11 -18 32 -23 54 -2 4 -6 12 -9 17 -4 5 -8 11 -8 14 -1
3 -3 9 -5 15 -3 7 -4 14 -4 27 0 13 -1 21 -4 28 -7 17 -5 476 2 490 22 46 -57
94 -81 48 -5 -9 -2 -126 3 -141 4 -10 4 -20 4 -215 0 -200 0 -206 4 -217 3 -8
4 -17 4 -30 0 -19 2 -26 15 -45 5 -7 11 -23 15 -38 3 -11 19 -43 25 -51 3 -3
8 -12 12 -19 4 -7 11 -18 16 -23 4 -6 10 -12 11 -15 7 -14 40 -51 49 -55 3 -2
16 -13 28 -25 12 -12 25 -23 29 -25 4 -2 9 -5 11 -7 11 -10 65 -30 80 -30 5 0
13 -2 19 -4 6 -2 14 -4 20 -4 5 0 15 -2 21 -4 13 -5 13 -5 26 -1 8 2 18 4 23
5 5 1 15 4 23 8 7 3 17 7 21 8 17 5 57 25 67 34 6 5 13 11 17 13 14 7 74 69
81 84 4 8 10 18 14 23 4 5 7 12 9 16 1 4 4 12 8 16 3 5 6 13 7 18 3 21 11 39
20 47 7 5 9 9 10 15 1 4 3 11 4 16 2 4 4 14 4 21 1 6 2 15 4 19 12 33 12 18
11 209 0 96 1 227 2 291 2 129 2 126 -10 134 -9 5 -27 5 -34 1z"/>
</g>
</svg>
