<?xml version="1.0" standalone="no"?>
<!DOCTYPE svg PUBLIC "-//W3C//DTD SVG 20010904//EN"
 "http://www.w3.org/TR/2001/REC-SVG-20010904/DTD/svg10.dtd">
<svg version="1.0" xmlns="http://www.w3.org/2000/svg"
 width="69.000000pt" height="100.000000pt" viewBox="0 0 69.000000 100.000000"
 preserveAspectRatio="xMidYMid meet">
<metadata>
Created by potrace 1.16, written by Peter Selinger 2001-2019
</metadata>
<g transform="translate(0.000000,100.000000) scale(0.100000,-0.100000)"
fill="#000000" stroke="none">
<path d="M324 959 c-12 -20 -16 -294 -7 -549 8 -228 9 -235 29 -238 20 -3 21
3 27 89 9 117 7 588 -1 654 -7 50 -30 72 -48 44z"/>
<path d="M590 861 c-5 -11 -11 -123 -14 -263 -3 -239 -4 -244 -31 -308 -44
-104 -131 -190 -192 -190 -36 0 -129 64 -179 123 -64 76 -69 98 -74 377 l-5
255 -30 0 -30 0 -3 -161 c-4 -241 8 -366 43 -439 41 -87 135 -178 205 -199 29
-9 65 -16 79 -16 82 1 198 103 246 215 l30 70 3 269 c3 214 1 271 -10 277 -20
13 -26 11 -38 -10z"/>
</g>
</svg>
