<?xml version="1.0" standalone="no"?>
<!DOCTYPE svg PUBLIC "-//W3C//DTD SVG 20010904//EN"
 "http://www.w3.org/TR/2001/REC-SVG-20010904/DTD/svg10.dtd">
<svg version="1.0" xmlns="http://www.w3.org/2000/svg"
 width="57.000000pt" height="100.000000pt" viewBox="0 0 57.000000 100.000000"
 preserveAspectRatio="xMidYMid meet">
<metadata>
Created by potrace 1.16, written by Peter Selinger 2001-2019
</metadata>
<g transform="translate(0.000000,100.000000) scale(0.100000,-0.100000)"
fill="#000000" stroke="none">
<path d="M37 964 c-4 -4 -7 -152 -7 -328 0 -352 6 -397 57 -470 35 -49 138
-121 188 -130 83 -16 213 99 234 208 5 28 11 202 13 386 l3 335 -25 0 -25 0
-6 -335 c-6 -382 -10 -405 -80 -478 -63 -65 -81 -75 -115 -62 -56 22 -131 87
-155 137 -23 47 -24 55 -29 393 -5 338 -5 345 -25 348 -12 2 -24 0 -28 -4z"/>
<path d="M257 964 c-4 -4 -7 -136 -7 -294 0 -272 -1 -289 -20 -313 -30 -38
-29 -156 2 -191 22 -24 37 -30 65 -27 18 1 53 75 53 109 0 16 -8 49 -17 73
-15 37 -19 90 -23 344 -5 292 -6 300 -25 303 -12 2 -24 0 -28 -4z m33 -663
c14 -26 13 -98 -2 -107 -16 -10 -38 25 -38 62 0 60 20 82 40 45z"/>
</g>
</svg>
