<?xml version="1.0" standalone="no"?>
<!DOCTYPE svg PUBLIC "-//W3C//DTD SVG 20010904//EN"
 "http://www.w3.org/TR/2001/REC-SVG-20010904/DTD/svg10.dtd">
<svg version="1.0" xmlns="http://www.w3.org/2000/svg"
 width="84.000000pt" height="148.000000pt" viewBox="0 0 84.000000 148.000000"
 preserveAspectRatio="xMidYMid meet">
<metadata>
Created by potrace 1.16, written by Peter Selinger 2001-2019
</metadata>
<g transform="translate(0.000000,148.000000) scale(0.100000,-0.100000)"
fill="#000000" stroke="none">
<path d="M70 1433 c-23 -9 -25 -16 -24 -85 1 -48 3 -794 3 -878 0 -8 7 -40 16
-70 9 -30 19 -67 22 -82 3 -15 14 -35 24 -44 10 -9 19 -22 19 -28 0 -25 159
-148 222 -172 114 -44 185 -19 285 98 35 40 63 79 63 86 0 6 4 12 8 12 13 0
32 47 32 79 0 16 6 44 14 62 11 27 15 126 16 504 3 480 -1 532 -34 519 -42
-16 -44 -31 -41 -434 3 -365 -7 -583 -26 -605 -5 -5 -9 -19 -9 -31 0 -43 -31
-95 -98 -161 -37 -38 -82 -73 -100 -80 -29 -10 -38 -8 -90 19 -95 51 -192 133
-192 164 0 8 -10 28 -21 44 -29 39 -32 71 -35 400 -1 157 -5 311 -7 342 -3 31
-3 59 0 62 3 2 5 57 6 121 0 100 -3 119 -19 140 -11 13 -25 21 -34 18z"/>
<path d="M384 1428 c-5 -7 -7 -202 -5 -434 l3 -420 -26 -31 c-43 -51 -53 -89
-48 -186 4 -87 4 -89 44 -128 65 -64 102 -47 142 65 24 66 25 70 10 130 -9 33
-24 76 -34 93 -18 30 -19 63 -21 437 -1 222 1 409 5 414 7 12 -13 62 -25 62
-4 0 -14 3 -22 6 -8 3 -19 -1 -23 -8z m51 -985 c10 -26 18 -52 17 -58 0 -5 -2
-27 -3 -47 -1 -22 -10 -45 -22 -55 -18 -17 -20 -17 -43 10 -33 39 -35 139 -2
174 12 13 25 23 28 23 4 0 15 -21 25 -47z"/>
</g>
</svg>
