<?xml version="1.0" standalone="no"?>
<!DOCTYPE svg PUBLIC "-//W3C//DTD SVG 20010904//EN"
 "http://www.w3.org/TR/2001/REC-SVG-20010904/DTD/svg10.dtd">
<svg version="1.0" xmlns="http://www.w3.org/2000/svg"
 width="334.000000pt" height="590.000000pt" viewBox="0 0 334.000000 590.000000"
 preserveAspectRatio="xMidYMid meet">
<metadata>
Created by potrace 1.16, written by Peter Selinger 2001-2019
</metadata>
<g transform="translate(0.000000,590.000000) scale(0.500000,-0.500000)"
fill="#000000" stroke="none">
<path d="M309 1143 c-9 -6 -10 -14 -8 -70 1 -39 1 -352 1 -608 0 -5 -3 -10
-10 -18 -6 -7 -12 -15 -13 -18 -2 -3 -6 -9 -10 -13 -4 -4 -8 -11 -10 -15 -1
-4 -5 -12 -8 -16 -5 -8 -5 -8 -5 -81 0 -77 0 -80 8 -86 2 -1 6 -6 9 -12 5 -9
7 -12 23 -27 42 -41 90 -25 103 32 2 8 6 18 9 23 4 7 5 13 6 24 1 13 2 17 7
23 6 10 7 19 0 31 -4 6 -6 12 -6 25 -1 12 -3 18 -6 24 -3 4 -5 12 -6 17 -3 18
-11 39 -18 46 -15 14 -14 -12 -13 303 0 254 0 285 -3 292 -4 10 -4 23 1 33 20
52 -16 116 -51 91z m28 -760 c2 -3 4 -10 5 -17 1 -8 3 -14 6 -17 5 -6 8 -12 8
-18 0 -3 2 -10 4 -15 4 -10 4 -10 0 -27 -2 -9 -4 -22 -4 -28 0 -12 -6 -25 -16
-36 -4 -5 -13 -3 -23 5 -20 15 -22 18 -24 49 -2 18 -2 15 1 54 l1 30 14 12
c16 14 23 16 28 8z"/>
<path d="M585 1145 c-7 -1 -24 -18 -30 -30 -3 -7 -4 -30 -1 -42 1 -5 1 -13 0
-21 -2 -8 -1 -34 0 -80 2 -37 2 -70 2 -74 0 -4 -1 -18 0 -32 0 -31 0 -115 0
-145 0 -38 0 -46 0 -115 1 -170 0 -202 -8 -216 -5 -8 -5 -11 -5 -35 0 -27 0
-27 -7 -36 -5 -8 -6 -12 -7 -23 -2 -13 -8 -34 -15 -45 -2 -3 -4 -11 -5 -17 -2
-12 -9 -23 -20 -26 -5 -2 -8 -5 -10 -9 -2 -3 -6 -9 -9 -12 -4 -4 -8 -9 -9 -11
-1 -3 -5 -6 -9 -8 -4 -2 -9 -7 -12 -12 -3 -4 -7 -9 -9 -10 -3 -2 -7 -6 -9 -9
-2 -4 -6 -8 -9 -10 -3 -2 -8 -6 -12 -9 -3 -3 -9 -6 -13 -7 -3 -1 -12 -4 -18
-7 -21 -11 -40 -6 -70 15 -5 4 -10 7 -11 7 -6 0 -32 14 -40 22 -17 15 -26 21
-36 26 -13 5 -50 42 -58 57 -3 6 -7 12 -8 15 -2 3 -3 8 -3 12 0 5 -2 8 -9 15
-9 9 -13 16 -13 24 0 2 -3 8 -6 13 -6 9 -6 10 -6 32 0 20 0 24 -4 30 -5 10 -5
-4 -4 278 0 125 -1 230 -2 234 -1 4 -3 10 -5 15 -4 10 -4 14 2 21 6 7 6 7 6
97 l0 90 -7 11 c-4 7 -9 15 -11 18 -4 7 -5 7 -17 8 -27 1 -31 -4 -29 -41 1
-21 1 -28 -2 -35 -4 -11 -4 -25 0 -36 3 -8 3 -48 5 -298 1 -159 2 -292 2 -295
0 -3 -1 -20 -3 -37 -3 -34 -3 -38 4 -46 6 -6 9 -14 9 -31 0 -6 1 -14 3 -18 1
-3 3 -9 4 -14 1 -4 3 -10 6 -13 3 -5 4 -10 5 -22 1 -13 2 -17 6 -22 3 -3 7 -8
9 -13 1 -4 5 -8 6 -8 6 -2 11 -7 11 -11 0 -10 14 -31 23 -35 4 -1 8 -5 10 -8
2 -3 9 -8 15 -11 7 -4 14 -9 17 -13 5 -8 23 -24 32 -28 3 -2 8 -5 10 -7 2 -2
7 -5 11 -7 4 -1 10 -6 13 -10 6 -8 20 -15 28 -15 6 0 33 -11 42 -17 4 -3 11
-5 15 -6 4 -1 12 -2 18 -3 25 -5 56 0 69 10 2 2 8 5 11 6 4 2 10 5 14 7 3 3
10 7 15 9 5 2 11 6 14 9 3 2 9 6 13 8 8 4 11 8 14 17 2 7 19 25 40 43 6 4 8 9
11 17 2 9 5 14 12 21 5 5 9 10 9 11 0 2 5 8 10 15 6 7 10 13 10 14 0 1 3 9 7
16 8 14 8 14 8 41 1 25 1 29 6 37 3 5 5 11 5 12 0 2 2 6 4 10 3 6 3 27 4 342
1 336 1 336 6 344 7 13 6 67 -1 81 -3 5 -5 12 -6 16 -2 12 -11 17 -28 15z"/>
</g>
</svg>
