<?xml version="1.0" standalone="no"?>
<!DOCTYPE svg PUBLIC "-//W3C//DTD SVG 20010904//EN"
 "http://www.w3.org/TR/2001/REC-SVG-20010904/DTD/svg10.dtd">
<svg version="1.0" xmlns="http://www.w3.org/2000/svg"
 width="72.000000pt" height="148.000000pt" viewBox="0 0 72.000000 148.000000"
 preserveAspectRatio="xMidYMid meet">
<metadata>
Created by potrace 1.16, written by Peter Selinger 2001-2019
</metadata>
<g transform="translate(0.000000,148.000000) scale(0.100000,-0.100000)"
fill="#000000" stroke="none">
<path d="M336 1423 c-4 -4 -6 -190 -6 -413 l2 -406 -57 -160 c-31 -87 -60
-163 -65 -168 -5 -5 -14 3 -20 20 -7 16 -21 47 -31 70 -12 24 -19 59 -19 85 1
24 -3 62 -8 84 -6 22 -12 137 -13 255 -2 118 -7 223 -12 233 -6 12 -17 17 -35
15 -22 -2 -27 -8 -25 -28 1 -14 2 -110 3 -215 1 -104 6 -217 12 -250 5 -33 13
-87 17 -120 10 -69 44 -165 76 -212 12 -18 51 -60 87 -93 63 -57 68 -60 118
-60 54 0 110 28 110 54 0 7 13 30 30 52 16 21 30 46 30 54 0 8 9 29 20 45 11
17 20 36 20 43 0 7 14 42 31 77 16 34 31 74 31 86 1 13 7 49 15 79 14 60 19
455 5 477 -4 7 -19 14 -32 15 l-25 3 -1 -200 c0 -124 -4 -207 -11 -219 -6 -11
-8 -36 -6 -56 4 -25 -3 -57 -20 -101 -14 -35 -31 -81 -38 -102 -21 -61 -36
-65 -49 -15 -7 24 -30 99 -52 166 l-40 124 5 383 c3 265 1 387 -6 394 -13 13
-30 14 -41 4z m58 -989 c13 -43 33 -103 44 -133 23 -59 20 -74 -26 -124 -33
-35 -50 -34 -116 8 l-55 35 28 67 c15 38 38 100 51 138 23 68 39 99 46 92 2
-2 15 -39 28 -83z"/>
</g>
</svg>
