<?xml version="1.0" standalone="no"?>
<!DOCTYPE svg PUBLIC "-//W3C//DTD SVG 20010904//EN"
 "http://www.w3.org/TR/2001/REC-SVG-20010904/DTD/svg10.dtd">
<svg version="1.0" xmlns="http://www.w3.org/2000/svg"
 width="49.000000pt" height="100.000000pt" viewBox="0 0 49.000000 100.000000"
 preserveAspectRatio="xMidYMid meet">
<metadata>
Created by potrace 1.16, written by Peter Selinger 2001-2019
</metadata>
<g transform="translate(0.000000,100.000000) scale(0.100000,-0.100000)"
fill="#000000" stroke="none">
<path d="M227 964 c-4 -4 -7 -131 -7 -283 l0 -275 -36 -103 c-20 -57 -40 -103
-44 -103 -27 0 -53 184 -63 445 -2 55 -4 60 -26 63 l-24 4 6 -194 c8 -277 31
-352 140 -445 47 -41 104 -45 137 -11 32 33 117 215 128 273 14 66 26 316 18
349 -5 19 -13 26 -30 26 l-23 0 -6 -172 c-4 -143 -8 -183 -26 -233 -35 -97
-39 -96 -74 13 -19 60 -22 98 -27 357 -4 251 -7 290 -20 293 -9 1 -19 0 -23
-4z m52 -713 c25 -78 26 -99 4 -123 -20 -22 -35 -23 -73 -3 -36 19 -37 31 -6
109 13 34 26 70 30 80 9 27 20 12 45 -63z"/>
</g>
</svg>
