<?xml version="1.0" standalone="no"?>
<!DOCTYPE svg PUBLIC "-//W3C//DTD SVG 20010904//EN"
 "http://www.w3.org/TR/2001/REC-SVG-20010904/DTD/svg10.dtd">
<svg version="1.0" xmlns="http://www.w3.org/2000/svg"
 width="290.000000pt" height="590.000000pt" viewBox="0 0 290.000000 590.000000"
 preserveAspectRatio="xMidYMid meet">
<metadata>
Created by potrace 1.16, written by Peter Selinger 2001-2019
</metadata>
<g transform="translate(0.000000,590.000000) scale(0.500000,-0.500000)"
fill="#000000" stroke="none">
<path d="M274 1139 c-2 -2 -5 -5 -6 -8 -3 -7 1 -591 4 -606 4 -20 3 -25 -28
-110 -6 -15 -15 -41 -21 -58 -6 -16 -15 -41 -20 -55 -5 -14 -13 -36 -18 -50
-13 -36 -25 -35 -34 5 -3 15 -15 39 -28 59 -8 12 -10 37 -4 54 4 12 4 20 -2
30 -4 8 -5 13 -5 22 0 10 -1 16 -7 27 -6 14 -6 14 -6 142 -1 197 -2 225 -12
235 -12 13 -35 16 -45 7 -6 -5 -4 -233 1 -244 7 -13 7 -14 2 -24 -8 -14 -8
-72 0 -87 4 -9 5 -12 5 -32 0 -14 1 -24 3 -29 1 -3 3 -12 4 -19 1 -8 3 -16 6
-20 4 -6 4 -11 5 -43 1 -35 1 -36 6 -44 3 -4 7 -11 7 -15 1 -4 4 -11 6 -16 3
-5 5 -12 5 -16 0 -4 3 -12 6 -18 3 -6 6 -13 6 -15 0 -7 7 -20 19 -35 6 -8 14
-20 17 -27 4 -9 7 -13 13 -16 5 -3 10 -7 12 -9 2 -2 9 -7 15 -10 7 -3 13 -8
14 -10 3 -6 33 -36 36 -36 1 0 6 -4 11 -8 18 -17 91 -18 106 -2 3 3 7 7 10 7
15 4 27 18 27 33 0 3 3 10 8 15 4 6 12 17 18 25 5 8 12 18 15 21 3 4 7 12 8
20 4 16 12 35 21 45 4 5 6 10 8 20 1 6 4 15 6 18 2 3 5 9 6 14 1 4 6 14 11 23
5 8 10 20 12 26 2 7 4 13 5 14 6 8 11 28 12 51 1 22 2 26 7 36 4 7 6 15 6 25
1 8 3 17 6 22 7 15 9 328 2 343 -20 38 -65 26 -56 -14 2 -10 2 -15 1 -21 -2
-6 -2 -11 0 -21 7 -40 2 -243 -7 -255 -6 -8 -6 -8 -7 -49 -1 -37 -2 -42 -6
-50 -2 -5 -4 -12 -4 -16 0 -4 -2 -11 -5 -16 -14 -24 -21 -41 -24 -52 -2 -7 -5
-17 -7 -22 -3 -5 -5 -13 -7 -18 -2 -10 -12 -26 -15 -26 -5 0 -13 22 -71 204
l-13 41 0 68 c0 37 0 90 1 117 4 196 3 444 -3 450 -7 7 -29 9 -38 3z m26 -734
c31 -69 70 -205 63 -216 -3 -6 -8 -13 -9 -18 -16 -34 -59 -57 -76 -41 -5 4
-13 9 -17 12 -4 2 -10 5 -12 8 -2 2 -5 4 -6 4 -3 0 -32 18 -36 22 -4 4 -4 5 0
16 5 16 17 49 22 62 3 6 8 20 12 31 4 11 10 26 12 33 3 7 8 21 11 31 3 10 7
19 8 20 1 1 4 9 7 18 10 30 14 33 21 18z"/>
</g>
</svg>
