<?xml version="1.0" standalone="no"?>
<!DOCTYPE svg PUBLIC "-//W3C//DTD SVG 20010904//EN"
 "http://www.w3.org/TR/2001/REC-SVG-20010904/DTD/svg10.dtd">
<svg version="1.0" xmlns="http://www.w3.org/2000/svg"
 width="63.000000pt" height="100.000000pt" viewBox="0 0 63.000000 100.000000"
 preserveAspectRatio="xMidYMid meet">
<metadata>
Created by potrace 1.16, written by Peter Selinger 2001-2019
</metadata>
<g transform="translate(0.000000,100.000000) scale(0.100000,-0.100000)"
fill="#000000" stroke="none">
<path d="M306 938 c-9 -12 -16 -28 -16 -35 0 -25 -28 -13 -39 17 -11 32 -38
40 -48 14 -3 -9 1 -39 10 -68 9 -28 18 -76 21 -106 5 -50 1 -66 -47 -179 -28
-69 -58 -126 -64 -129 -20 -6 -33 43 -33 127 0 82 -12 107 -44 95 -22 -8 -22
-114 0 -203 26 -107 103 -256 178 -346 37 -44 74 -84 82 -88 23 -13 49 15 115
128 61 102 124 274 149 402 15 73 9 96 -22 91 -20 -3 -25 -12 -35 -78 -27
-162 -155 -460 -198 -460 -17 0 -102 116 -145 197 l-32 62 36 59 c20 32 56
108 80 168 39 97 48 111 82 131 40 23 59 47 49 63 -10 16 -35 12 -62 -10 -55
-43 -58 -12 -8 62 23 33 35 61 33 77 -4 33 -23 37 -42 9z"/>
</g>
</svg>
