<?xml version="1.0" standalone="no"?>
<!DOCTYPE svg PUBLIC "-//W3C//DTD SVG 20010904//EN"
 "http://www.w3.org/TR/2001/REC-SVG-20010904/DTD/svg10.dtd">
<svg version="1.0" xmlns="http://www.w3.org/2000/svg"
 width="364.000000pt" height="590.000000pt" viewBox="0 0 364.000000 590.000000"
 preserveAspectRatio="xMidYMid meet">
<metadata>
Created by potrace 1.16, written by Peter Selinger 2001-2019
</metadata>
<g transform="translate(0.000000,590.000000) scale(0.500000,-0.500000)"
fill="#000000" stroke="none">
<path d="M365 1118 c-4 -3 -8 -10 -11 -15 -27 -59 -31 -65 -39 -65 -4 0 -27
54 -27 64 0 9 -8 14 -21 14 -30 -2 -45 -23 -32 -47 3 -5 6 -16 8 -24 2 -9 7
-22 11 -31 6 -10 8 -17 8 -23 0 -5 3 -18 6 -29 5 -15 6 -23 5 -29 -1 -10 2
-51 6 -70 5 -25 3 -39 -10 -59 -13 -20 -17 -29 -21 -46 -2 -9 -8 -26 -14 -37
-10 -24 -19 -45 -37 -88 -6 -15 -14 -33 -17 -39 -37 -73 -44 -82 -53 -60 -16
38 -20 52 -18 60 3 13 2 25 -3 39 -5 14 -5 16 -5 78 0 60 0 64 -4 70 -11 16
-50 15 -60 -2 -6 -9 -5 -119 1 -137 2 -6 4 -20 5 -32 1 -19 1 -22 8 -35 6 -12
7 -16 7 -27 0 -16 3 -26 9 -33 9 -11 15 -28 15 -40 0 -7 2 -17 4 -24 2 -6 4
-12 4 -14 0 -2 4 -8 10 -14 7 -8 10 -13 11 -18 1 -5 2 -11 2 -14 1 -3 4 -9 7
-13 5 -6 7 -11 8 -20 2 -13 5 -20 15 -35 4 -5 9 -13 10 -18 2 -4 5 -10 8 -13
5 -6 14 -24 17 -38 2 -7 6 -12 18 -25 8 -9 18 -20 21 -26 3 -5 8 -11 12 -13 8
-5 35 -36 36 -42 3 -12 8 -19 43 -54 19 -21 36 -39 37 -42 7 -23 63 -4 69 25
2 8 4 12 10 18 5 4 10 13 13 18 3 6 8 15 11 20 3 5 9 15 12 22 10 23 24 45 37
58 6 7 12 16 14 21 2 5 6 14 10 20 4 6 9 17 12 23 3 6 7 15 10 19 3 5 8 14 10
21 3 6 8 16 11 21 3 5 7 13 7 17 1 5 4 15 6 23 3 8 6 20 7 28 1 8 4 20 9 30
12 28 15 34 16 45 1 6 3 14 6 18 8 16 19 52 19 63 0 3 2 11 5 16 3 7 5 13 5
20 0 6 2 17 4 25 2 8 4 18 4 23 0 4 2 13 4 20 2 6 5 17 6 24 1 7 3 19 5 26 11
49 -6 70 -44 53 -16 -7 -17 -10 -17 -46 0 -29 -5 -64 -16 -101 -4 -16 -8 -35
-8 -43 0 -9 -3 -15 -12 -31 -4 -7 -10 -20 -12 -28 -2 -8 -6 -17 -8 -20 -2 -3
-5 -10 -6 -15 -1 -6 -3 -15 -6 -21 -2 -6 -5 -17 -6 -25 -1 -8 -6 -23 -10 -33
-5 -10 -11 -26 -14 -35 -9 -26 -16 -42 -21 -48 -3 -3 -5 -7 -5 -10 0 -6 -6
-18 -18 -36 -5 -8 -12 -20 -14 -26 -2 -6 -8 -18 -13 -27 -5 -8 -11 -21 -14
-28 -4 -7 -11 -18 -17 -25 -5 -6 -10 -12 -10 -13 0 -20 -59 -13 -65 8 -2 6 -6
14 -11 20 -5 5 -10 13 -13 18 -3 5 -14 19 -26 31 -21 21 -29 32 -38 49 -2 4
-5 9 -8 12 -2 3 -8 13 -13 22 -5 9 -10 18 -11 20 -6 7 -21 41 -22 50 -1 9 -3
12 -12 22 -23 27 -27 48 -10 63 7 6 13 14 21 28 7 12 14 21 19 26 5 4 10 10
13 18 2 7 8 20 13 29 5 10 10 22 11 27 1 6 7 21 14 34 13 26 27 57 34 75 2 6
8 22 13 35 5 13 13 31 17 40 6 13 8 20 10 33 2 26 12 37 41 45 8 2 14 6 21 12
5 4 12 10 15 13 37 27 45 63 17 74 -15 5 -20 2 -49 -26 -26 -26 -38 -34 -48
-34 -14 0 -11 35 5 55 4 6 11 15 15 22 4 6 11 16 16 21 24 23 46 101 34 117
-7 9 -24 10 -34 1z"/>
</g>
</svg>
