<?xml version="1.0" standalone="no"?>
<!DOCTYPE svg PUBLIC "-//W3C//DTD SVG 20010904//EN"
 "http://www.w3.org/TR/2001/REC-SVG-20010904/DTD/svg10.dtd">
<svg version="1.0" xmlns="http://www.w3.org/2000/svg"
 width="92.000000pt" height="148.000000pt" viewBox="0 0 92.000000 148.000000"
 preserveAspectRatio="xMidYMid meet">
<metadata>
Created by potrace 1.16, written by Peter Selinger 2001-2019
</metadata>
<g transform="translate(0.000000,148.000000) scale(0.100000,-0.100000)"
fill="#000000" stroke="none">
<path d="M468 1403 c-9 -2 -26 -29 -38 -59 -12 -29 -28 -54 -35 -54 -7 0 -19
23 -26 51 -15 56 -27 66 -58 49 -21 -11 -28 -47 -13 -65 14 -18 31 -79 42
-150 15 -107 12 -156 -10 -185 -11 -14 -20 -32 -20 -41 0 -22 -116 -280 -134
-297 -11 -11 -16 -7 -30 28 -9 22 -16 53 -16 68 0 15 -4 74 -8 132 -7 100 -8
105 -30 108 -42 6 -52 -14 -51 -97 0 -42 5 -98 10 -126 5 -27 13 -63 16 -80 3
-16 12 -39 19 -50 8 -11 14 -28 14 -38 0 -47 118 -274 186 -357 108 -132 159
-189 172 -190 15 0 62 29 62 39 0 11 82 152 105 182 31 41 90 175 124 284 18
55 36 109 41 120 11 25 50 224 50 259 0 23 -4 26 -35 26 -19 0 -36 -3 -36 -7
-1 -5 -3 -30 -5 -58 -3 -55 -29 -176 -46 -215 -20 -48 -27 -65 -39 -105 -32
-105 -114 -285 -169 -372 -21 -32 -82 -32 -97 -1 -6 13 -33 49 -60 81 -28 31
-56 70 -64 85 -7 15 -21 39 -31 54 -10 14 -18 33 -18 41 0 8 -8 25 -19 38 -32
42 -35 66 -9 99 56 74 65 87 78 120 7 19 26 62 42 94 15 33 28 63 28 67 0 5
11 33 25 63 14 30 25 64 25 75 0 22 33 61 51 61 15 0 78 50 89 71 14 24 2 49
-22 49 -12 0 -40 -18 -64 -40 -45 -41 -63 -49 -65 -27 -3 32 6 55 35 92 74 90
93 191 34 178z"/>
</g>
</svg>
