<?xml version="1.0" standalone="no"?>
<!DOCTYPE svg PUBLIC "-//W3C//DTD SVG 20010904//EN"
 "http://www.w3.org/TR/2001/REC-SVG-20010904/DTD/svg10.dtd">
<svg version="1.0" xmlns="http://www.w3.org/2000/svg"
 width="55.000000pt" height="100.000000pt" viewBox="0 0 55.000000 100.000000"
 preserveAspectRatio="xMidYMid meet">
<metadata>
Created by potrace 1.16, written by Peter Selinger 2001-2019
</metadata>
<g transform="translate(0.000000,100.000000) scale(0.100000,-0.100000)"
fill="#000000" stroke="none">
<path d="M230 938 c-11 -18 -21 -37 -23 -42 -2 -5 -13 -4 -25 3 -24 13 -42 7
-42 -12 0 -7 16 -34 35 -62 56 -77 63 -119 69 -413 7 -284 4 -297 -41 -217
-27 48 -99 246 -108 297 -9 46 -29 66 -50 48 -8 -7 -15 -24 -15 -38 0 -32 63
-218 101 -298 33 -71 112 -164 139 -164 51 0 151 169 209 353 35 110 37 129
16 147 -20 17 -42 -1 -50 -43 -10 -47 -104 -298 -121 -324 -8 -13 -19 -23 -24
-23 -15 0 -13 565 1 593 7 12 25 39 41 59 31 39 35 83 8 83 -13 0 -32 -23 -66
-81 -10 -16 -13 -17 -28 -5 -22 19 -20 43 8 100 19 36 22 51 13 60 -17 17 -26
14 -47 -21z"/>
</g>
</svg>
