<?xml version="1.0" standalone="no"?>
<!DOCTYPE svg PUBLIC "-//W3C//DTD SVG 20010904//EN"
 "http://www.w3.org/TR/2001/REC-SVG-20010904/DTD/svg10.dtd">
<svg version="1.0" xmlns="http://www.w3.org/2000/svg"
 width="330.000000pt" height="590.000000pt" viewBox="0 0 330.000000 590.000000"
 preserveAspectRatio="xMidYMid meet">
<metadata>
Created by potrace 1.16, written by Peter Selinger 2001-2019
</metadata>
<g transform="translate(0.000000,590.000000) scale(0.500000,-0.500000)"
fill="#000000" stroke="none">
<path d="M297 1131 c-3 -3 -14 -23 -25 -44 -26 -54 -27 -55 -49 -33 -8 9 -16
15 -20 16 -33 9 -41 -39 -10 -62 8 -6 14 -13 18 -20 3 -6 13 -20 20 -30 15
-19 29 -48 32 -66 1 -7 3 -11 15 -40 7 -16 12 -38 12 -48 0 -5 1 -12 2 -15 1
-4 2 -42 3 -102 0 -67 1 -98 3 -104 4 -13 6 -266 2 -282 -2 -9 -2 -23 -1 -64
2 -78 -1 -81 -36 -33 -3 4 -8 10 -13 15 -4 5 -8 11 -9 13 -1 3 -5 10 -9 16 -4
6 -8 14 -9 17 -3 11 -37 106 -42 115 -3 5 -10 24 -17 42 -6 17 -16 40 -21 49
-5 11 -9 22 -10 28 -1 6 -4 20 -8 30 -10 27 -15 47 -17 64 -4 42 -33 61 -56
37 -19 -19 -19 -40 2 -104 2 -9 6 -20 8 -24 2 -4 4 -8 4 -10 0 -2 3 -13 8 -24
4 -12 8 -24 9 -27 0 -4 7 -23 14 -42 8 -20 15 -40 16 -45 1 -5 4 -13 6 -17 3
-4 5 -11 6 -15 0 -4 3 -10 6 -14 3 -4 6 -11 8 -16 6 -20 36 -83 47 -98 2 -3 5
-9 7 -13 6 -13 53 -73 69 -88 8 -7 16 -15 18 -17 7 -11 36 -27 47 -26 26 3
101 79 132 135 21 38 35 66 38 75 2 5 5 12 7 15 2 3 5 10 6 15 1 5 4 12 7 16
5 7 6 11 19 47 3 9 9 25 13 36 4 11 10 28 13 38 4 10 9 27 13 37 4 10 8 24 10
31 3 7 7 20 11 30 20 61 20 90 -1 109 -23 20 -50 -2 -55 -45 -2 -18 -4 -26
-16 -60 -4 -14 -8 -27 -8 -30 0 -4 -5 -16 -10 -27 -6 -12 -15 -34 -21 -51 -6
-16 -13 -34 -16 -39 -5 -10 -37 -98 -41 -112 -1 -5 -5 -14 -9 -19 -4 -6 -8
-14 -11 -18 -4 -9 -6 -11 -34 -44 -26 -31 -25 -40 -22 153 1 89 2 242 2 341 0
180 0 180 5 189 3 5 9 17 14 27 5 10 12 22 15 26 3 4 7 11 9 15 2 4 11 17 21
30 30 37 31 74 2 74 -14 0 -39 -32 -61 -76 -30 -60 -35 -61 -63 -7 l-15 29 6
15 c7 19 30 68 36 76 25 33 1 79 -26 50z"/>
</g>
</svg>
