<?xml version="1.0" standalone="no"?>
<!DOCTYPE svg PUBLIC "-//W3C//DTD SVG 20010904//EN"
 "http://www.w3.org/TR/2001/REC-SVG-20010904/DTD/svg10.dtd">
<svg version="1.0" xmlns="http://www.w3.org/2000/svg"
 width="82.000000pt" height="148.000000pt" viewBox="0 0 82.000000 148.000000"
 preserveAspectRatio="xMidYMid meet">
<metadata>
Created by potrace 1.16, written by Peter Selinger 2001-2019
</metadata>
<g transform="translate(0.000000,148.000000) scale(0.100000,-0.100000)"
fill="#000000" stroke="none">
<path d="M362 1407 c-6 -7 -20 -34 -31 -60 -23 -52 -34 -57 -67 -26 -42 40
-77 -8 -36 -49 42 -43 77 -100 105 -171 33 -86 34 -108 37 -631 2 -278 0 -287
-41 -237 -28 34 -54 90 -112 242 -57 148 -87 238 -87 261 0 26 -23 64 -40 64
-26 0 -40 -21 -40 -60 0 -33 74 -268 115 -365 69 -165 182 -315 237 -315 18 0
84 61 127 117 43 56 108 199 164 358 61 175 68 202 57 231 -21 54 -74 33 -83
-34 -7 -51 -30 -124 -67 -212 -18 -41 -43 -106 -56 -144 -29 -83 -92 -180
-108 -167 -8 7 -9 68 -4 208 4 109 5 302 2 428 l-5 231 35 62 c19 33 44 71 55
83 28 30 28 79 2 79 -22 0 -46 -31 -85 -107 -14 -29 -31 -53 -36 -53 -5 0 -21
23 -35 51 l-26 50 41 81 c22 44 38 84 34 89 -8 13 -40 11 -52 -4z"/>
</g>
</svg>
