<?xml version="1.0" standalone="no"?>
<!DOCTYPE svg PUBLIC "-//W3C//DTD SVG 20010904//EN"
 "http://www.w3.org/TR/2001/REC-SVG-20010904/DTD/svg10.dtd">
<svg version="1.0" xmlns="http://www.w3.org/2000/svg"
 width="344.000000pt" height="590.000000pt" viewBox="0 0 344.000000 590.000000"
 preserveAspectRatio="xMidYMid meet">
<metadata>
Created by potrace 1.16, written by Peter Selinger 2001-2019
</metadata>
<g transform="translate(0.000000,590.000000) scale(0.500000,-0.500000)"
fill="#000000" stroke="none">
<path d="M500 1141 c-15 -7 -17 -22 -4 -41 4 -7 8 -14 8 -15 0 -1 5 -8 12 -15
21 -24 23 -44 4 -55 -3 -2 -11 -8 -17 -13 -41 -37 -45 -37 -65 1 -25 46 -41
60 -65 55 -24 -6 -29 -32 -10 -55 5 -6 10 -13 12 -17 2 -4 10 -14 18 -22 9 -9
15 -18 16 -21 1 -3 3 -13 5 -21 8 -27 2 -54 -14 -68 -15 -13 -17 -11 -86 63
-43 47 -52 50 -71 32 -12 -10 -1 -40 22 -61 4 -4 10 -11 12 -17 3 -6 9 -14 16
-21 7 -7 13 -14 16 -22 6 -13 12 -20 25 -28 13 -8 13 -11 9 -105 -3 -80 -4
-115 -2 -135 1 -13 1 -26 1 -30 -2 -41 0 -155 3 -159 0 -1 0 -6 -2 -12 -2 -7
-2 -13 -1 -29 3 -24 3 -37 1 -76 -1 -23 -1 -29 2 -34 2 -4 4 -15 5 -26 1 -10
3 -25 4 -32 2 -14 1 -17 -6 -15 -4 1 -48 49 -54 59 -3 4 -11 13 -18 21 -8 8
-16 19 -18 24 -2 5 -6 10 -9 12 -5 3 -19 23 -26 37 -2 3 -8 13 -13 21 -6 9
-13 23 -17 33 -3 9 -9 21 -12 26 -3 5 -5 10 -5 11 0 2 -2 4 -3 5 -2 2 -6 9 -9
15 -3 7 -10 17 -15 23 -11 12 -13 16 -16 30 -2 7 -6 20 -10 30 -14 33 -19 53
-19 75 0 30 -5 36 -35 41 -30 5 -45 -13 -34 -43 2 -4 5 -14 7 -21 2 -7 6 -17
9 -24 3 -6 7 -22 10 -35 4 -17 6 -26 10 -30 3 -4 6 -11 7 -16 3 -10 12 -29 22
-44 3 -4 7 -12 9 -17 3 -10 8 -17 19 -34 5 -6 9 -16 11 -23 2 -6 6 -17 9 -23
3 -6 7 -14 9 -18 2 -4 7 -12 12 -18 41 -49 48 -57 57 -69 4 -6 13 -14 19 -18
13 -8 37 -32 44 -44 3 -4 12 -14 19 -22 7 -8 14 -15 15 -17 1 -2 6 -6 12 -10
5 -4 11 -10 13 -14 7 -14 26 -26 42 -26 13 0 67 53 79 77 4 8 13 19 21 27 8 8
17 18 20 22 2 4 9 12 15 18 8 8 13 15 17 26 3 8 8 18 11 22 12 19 21 37 25 48
2 7 5 16 8 20 2 4 5 11 6 16 1 5 5 12 8 16 7 9 13 25 15 40 2 11 6 22 14 33 2
3 4 11 5 21 1 9 3 19 6 24 3 6 5 15 6 27 1 10 3 21 4 24 4 13 3 105 0 111 -8
11 -37 14 -47 4 -8 -7 -9 -17 -9 -63 1 -38 0 -43 -4 -58 -3 -11 -4 -19 -3 -25
1 -12 -10 -46 -23 -68 -2 -4 -5 -13 -6 -20 -3 -21 -13 -47 -21 -56 -4 -5 -8
-12 -9 -18 -5 -23 -48 -94 -73 -120 -7 -7 -15 -17 -17 -21 -3 -5 -9 -13 -14
-18 -4 -5 -8 -10 -8 -11 0 -6 -8 -1 -9 6 -1 4 -2 13 -4 20 -3 15 -3 22 -2 285
1 149 2 190 4 205 4 25 4 51 0 63 -8 26 0 50 28 84 5 6 11 16 14 22 3 5 8 13
11 16 3 4 6 10 7 15 1 7 4 11 19 27 11 11 20 23 24 29 4 10 7 12 22 21 13 8
18 12 27 24 6 8 14 17 19 20 38 23 40 40 11 86 -3 5 -10 18 -14 27 -22 50 -24
52 -51 52 -9 0 -19 -1 -22 -3z"/>
</g>
</svg>
