<?xml version="1.0" standalone="no"?>
<!DOCTYPE svg PUBLIC "-//W3C//DTD SVG 20010904//EN"
 "http://www.w3.org/TR/2001/REC-SVG-20010904/DTD/svg10.dtd">
<svg version="1.0" xmlns="http://www.w3.org/2000/svg"
 width="86.000000pt" height="148.000000pt" viewBox="0 0 86.000000 148.000000"
 preserveAspectRatio="xMidYMid meet">
<metadata>
Created by potrace 1.16, written by Peter Selinger 2001-2019
</metadata>
<g transform="translate(0.000000,148.000000) scale(0.100000,-0.100000)"
fill="#000000" stroke="none">
<path d="M617 1423 c-14 -13 -6 -39 23 -77 17 -22 30 -45 30 -52 0 -12 -82
-84 -97 -84 -5 0 -22 24 -39 53 -23 41 -36 53 -58 55 -26 3 -45 -10 -46 -30 0
-3 19 -30 41 -59 52 -65 62 -121 30 -159 l-21 -25 -75 80 c-64 68 -77 78 -92
69 -28 -17 -26 -36 7 -72 16 -18 30 -36 30 -40 0 -4 17 -26 38 -49 l38 -41 -1
-354 c-1 -194 2 -357 5 -363 11 -15 19 -105 9 -105 -24 0 -160 182 -205 274
-19 38 -40 77 -48 85 -17 19 -64 154 -68 196 -3 26 -8 30 -36 33 -42 4 -50
-17 -29 -79 9 -25 17 -55 17 -64 0 -10 17 -50 37 -89 20 -39 51 -100 69 -136
18 -38 60 -94 98 -135 36 -38 94 -100 127 -137 34 -38 70 -68 79 -68 9 0 33
19 53 43 110 129 130 155 146 187 9 19 22 44 28 55 69 135 106 269 101 374 -3
64 -4 66 -30 69 -32 4 -34 -1 -43 -132 -4 -58 -13 -103 -26 -127 -10 -21 -19
-45 -19 -54 0 -38 -90 -195 -158 -275 l-30 -35 -5 55 c-3 30 -4 71 -3 90 1 19
3 175 4 345 l2 311 52 79 c29 44 87 114 130 156 l78 77 -40 81 c-36 72 -43 81
-69 81 -15 0 -31 -3 -34 -7z"/>
</g>
</svg>
