<?xml version="1.0" standalone="no"?>
<!DOCTYPE svg PUBLIC "-//W3C//DTD SVG 20010904//EN"
 "http://www.w3.org/TR/2001/REC-SVG-20010904/DTD/svg10.dtd">
<svg version="1.0" xmlns="http://www.w3.org/2000/svg"
 width="58.000000pt" height="100.000000pt" viewBox="0 0 58.000000 100.000000"
 preserveAspectRatio="xMidYMid meet">
<metadata>
Created by potrace 1.16, written by Peter Selinger 2001-2019
</metadata>
<g transform="translate(0.000000,100.000000) scale(0.100000,-0.100000)"
fill="#000000" stroke="none">
<path d="M407 956 c-3 -8 3 -26 14 -39 24 -31 24 -49 1 -70 -28 -26 -47 -20
-65 19 -13 27 -22 35 -40 32 -33 -5 -32 -34 2 -74 34 -38 40 -74 15 -95 -13
-11 -22 -5 -63 41 -42 48 -50 53 -65 41 -9 -7 -16 -17 -16 -21 0 -4 21 -33 47
-65 l47 -57 2 -269 c1 -148 -2 -266 -7 -263 -30 18 -179 266 -179 297 0 7 -5
29 -11 50 -8 31 -14 38 -32 35 -76 -11 33 -256 181 -409 56 -58 83 -78 95 -74
28 11 125 138 156 206 55 116 79 262 48 287 -25 21 -40 -5 -47 -84 -5 -59 -16
-98 -42 -154 -41 -90 -85 -160 -98 -160 -6 0 -10 95 -10 258 l0 257 44 66 c25
36 63 81 86 99 37 29 41 37 36 63 -10 49 -45 97 -71 97 -12 0 -25 -6 -28 -14z"/>
</g>
</svg>
