<?xml version="1.0" standalone="no"?>
<!DOCTYPE svg PUBLIC "-//W3C//DTD SVG 20010904//EN"
 "http://www.w3.org/TR/2001/REC-SVG-20010904/DTD/svg10.dtd">
<svg version="1.0" xmlns="http://www.w3.org/2000/svg"
 width="80.000000pt" height="148.000000pt" viewBox="0 0 80.000000 148.000000"
 preserveAspectRatio="xMidYMid meet">
<metadata>
Created by potrace 1.16, written by Peter Selinger 2001-2019
</metadata>
<g transform="translate(0.000000,148.000000) scale(0.100000,-0.100000)"
fill="#000000" stroke="none">
<path d="M55 1408 c-3 -7 -4 -236 -2 -508 3 -465 4 -498 23 -546 11 -28 32
-65 46 -82 15 -18 29 -41 33 -52 3 -11 10 -20 15 -20 5 0 20 -10 34 -22 44
-41 56 -49 129 -88 77 -41 92 -41 134 -1 12 12 27 21 32 21 6 0 36 23 66 50
30 28 60 50 65 50 6 0 10 5 10 11 0 5 17 36 38 67 22 31 42 75 46 97 3 22 9
264 12 538 l6 498 -33 -3 -34 -3 -5 -320 -5 -320 -135 -82 c-74 -46 -141 -83
-147 -83 -7 0 -39 19 -70 43 -32 24 -89 66 -126 93 l-69 49 -1 310 -2 310 -28
3 c-16 2 -29 -2 -32 -10z m158 -744 c51 -37 98 -69 105 -71 13 -6 17 -33 4
-33 -5 0 -51 -27 -103 -59 -52 -33 -97 -57 -101 -54 -9 5 -11 283 -3 283 4 0
47 -30 98 -66z m460 -60 c-1 -59 -5 -109 -8 -112 -3 -3 -5 -20 -5 -38 0 -34
-14 -52 -25 -34 -3 5 -49 39 -101 76 -51 36 -94 69 -94 74 0 5 30 27 68 49 37
22 87 54 111 70 25 16 48 28 51 26 4 -2 5 -52 3 -111z m-220 -113 c35 -26 91
-65 123 -87 32 -21 62 -43 66 -48 15 -23 -133 -179 -200 -212 -41 -19 -65 -14
-132 31 -29 19 -54 35 -56 35 -7 0 -66 69 -90 104 -45 67 -44 69 58 130 51 30
107 64 123 76 17 11 33 20 37 20 4 0 36 -22 71 -49z"/>
</g>
</svg>
