<?xml version="1.0" standalone="no"?>
<!DOCTYPE svg PUBLIC "-//W3C//DTD SVG 20010904//EN"
 "http://www.w3.org/TR/2001/REC-SVG-20010904/DTD/svg10.dtd">
<svg version="1.0" xmlns="http://www.w3.org/2000/svg"
 width="316.000000pt" height="590.000000pt" viewBox="0 0 316.000000 590.000000"
 preserveAspectRatio="xMidYMid meet">
<metadata>
Created by potrace 1.16, written by Peter Selinger 2001-2019
</metadata>
<g transform="translate(0.000000,590.000000) scale(0.500000,-0.500000)"
fill="#000000" stroke="none">
<path d="M572 1139 c-1 0 -8 -2 -16 -3 -27 -3 -25 26 -24 -256 1 -277 2 -257
-16 -266 -10 -5 -46 -27 -54 -32 -6 -4 -36 -23 -76 -47 -15 -9 -33 -20 -41
-26 -37 -26 -36 -26 -88 13 -13 10 -33 24 -44 32 -11 8 -30 21 -42 30 -12 9
-32 23 -44 31 -36 24 -32 -11 -30 269 2 279 4 251 -26 251 -32 0 -30 41 -26
-427 1 -131 1 -148 -2 -159 -4 -17 -5 -190 0 -203 2 -5 3 -11 3 -13 0 -2 2 -8
5 -13 2 -5 5 -13 6 -17 1 -4 4 -14 8 -22 4 -8 8 -19 9 -24 2 -12 15 -33 23
-37 3 -2 7 -6 9 -11 3 -4 7 -11 10 -15 3 -4 6 -8 6 -9 0 -10 7 -19 16 -23 7
-3 11 -6 14 -11 5 -11 11 -16 26 -23 11 -5 15 -7 18 -14 3 -5 6 -9 8 -10 21
-10 26 -13 33 -15 4 -1 14 -6 20 -11 58 -42 80 -41 128 2 4 4 10 8 14 9 10 2
32 17 38 25 13 16 45 46 55 50 15 6 20 11 21 20 1 5 4 11 6 15 3 3 7 10 10 14
3 4 8 11 11 15 3 4 7 11 9 15 1 4 6 13 10 20 12 17 12 18 14 34 0 8 3 21 6 30
5 15 5 15 5 163 0 81 1 257 2 391 1 143 1 246 0 249 -2 6 -12 12 -14 9z m-450
-572 c11 -7 20 -14 21 -15 1 -1 6 -6 13 -10 6 -5 21 -16 34 -25 13 -9 32 -23
42 -30 32 -22 35 -28 16 -38 -5 -3 -13 -8 -19 -12 -11 -7 -34 -21 -45 -27 -4
-3 -17 -11 -29 -19 -67 -44 -61 -52 -61 79 0 124 -2 117 28 97z m412 -3 c3 -9
2 -33 -1 -43 -4 -13 -4 -32 0 -47 3 -11 3 -14 0 -27 -2 -11 -3 -17 -1 -22 3
-12 2 -21 -2 -28 -4 -5 -5 -9 -6 -31 -1 -35 -4 -36 -32 -13 -6 4 -16 12 -23
16 -7 4 -17 12 -22 16 -6 4 -15 11 -21 15 -6 4 -15 11 -21 15 -5 4 -15 12 -22
16 -15 10 -28 21 -30 25 -2 5 18 21 44 35 13 7 20 11 46 28 12 8 27 17 33 21
6 3 20 12 30 18 20 13 26 14 28 6z m-207 -146 c9 -7 25 -18 36 -26 12 -8 21
-15 22 -16 1 -1 8 -6 16 -11 8 -5 18 -13 23 -17 5 -4 17 -12 26 -19 69 -46 70
-48 38 -86 -4 -5 -10 -13 -14 -18 -3 -5 -12 -13 -19 -18 -21 -18 -27 -24 -33
-34 -3 -6 -8 -11 -11 -12 -2 -2 -11 -8 -19 -14 -19 -16 -30 -22 -56 -35 -14
-7 -22 -7 -32 0 -3 2 -15 8 -25 13 -11 5 -22 11 -24 13 -2 2 -10 8 -18 13 -8
5 -17 12 -20 15 -3 3 -10 7 -14 8 -10 2 -12 4 -16 16 -2 5 -5 11 -8 13 -11 7
-29 26 -33 35 -3 5 -10 16 -17 24 -9 10 -13 17 -14 22 -1 4 -2 11 -4 16 -4 11
-2 15 14 24 21 11 44 25 60 36 8 5 17 11 19 12 4 1 30 17 52 32 46 30 49 31
71 14z"/>
</g>
</svg>
