<?xml version="1.0" standalone="no"?>
<!DOCTYPE svg PUBLIC "-//W3C//DTD SVG 20010904//EN"
 "http://www.w3.org/TR/2001/REC-SVG-20010904/DTD/svg10.dtd">
<svg version="1.0" xmlns="http://www.w3.org/2000/svg"
 width="352.000000pt" height="590.000000pt" viewBox="0 0 352.000000 590.000000"
 preserveAspectRatio="xMidYMid meet">
<metadata>
Created by potrace 1.16, written by Peter Selinger 2001-2019
</metadata>
<g transform="translate(0.000000,590.000000) scale(0.500000,-0.500000)"
fill="#000000" stroke="none">
<path d="M568 1130 c-7 -7 -7 19 -4 -295 3 -241 3 -242 -6 -234 -2 2 -5 7 -6
11 -8 23 -30 58 -54 83 -8 9 -24 26 -34 38 -10 11 -22 22 -26 24 -12 6 -54 37
-69 51 -11 11 -18 10 -54 -8 -32 -15 -37 -19 -48 -34 -4 -6 -11 -12 -19 -16
-16 -8 -20 -12 -49 -52 -35 -47 -33 -44 -46 -72 -6 -14 -14 -28 -16 -32 -3 -3
-6 -9 -7 -13 -5 -17 -9 -14 -11 8 -1 8 0 99 1 202 3 331 3 324 -1 329 -14 15
-53 16 -60 2 -3 -6 -3 -271 0 -498 1 -43 1 -91 1 -106 0 -24 0 -29 4 -37 3 -6
5 -16 5 -26 1 -12 3 -20 9 -34 4 -10 10 -24 12 -31 2 -7 10 -22 16 -34 6 -12
13 -25 15 -31 3 -5 9 -15 14 -22 4 -6 12 -20 16 -29 17 -39 39 -75 57 -95 6
-6 14 -16 17 -21 6 -11 26 -30 37 -36 5 -3 12 -8 17 -13 4 -5 20 -17 34 -27
14 -9 30 -20 36 -25 24 -20 48 -7 112 62 10 10 23 25 31 34 8 9 21 23 30 30
10 8 17 17 22 24 4 7 9 15 12 19 8 10 18 33 30 68 3 9 7 20 9 24 1 4 7 21 12
37 5 17 11 35 13 41 5 13 5 3 7 463 l1 265 -6 6 c-9 9 -45 9 -54 0z m-239
-383 c4 -4 7 -230 3 -237 -3 -5 -10 -1 -25 13 -5 4 -15 13 -22 18 -7 6 -26 22
-41 37 -15 15 -31 29 -35 32 -23 11 -21 24 7 56 7 7 14 17 17 23 4 7 8 12 13
15 4 2 13 8 20 13 6 5 12 9 14 9 1 0 8 5 15 12 14 13 26 16 34 9z m55 -10 c7
-4 18 -10 23 -12 6 -2 15 -7 20 -12 6 -4 14 -11 19 -15 5 -3 14 -12 19 -19 5
-7 11 -13 14 -15 5 -3 21 -31 21 -37 0 -4 -8 -13 -20 -21 -6 -4 -16 -12 -22
-18 -5 -5 -11 -10 -12 -10 -1 0 -3 -4 -6 -9 -2 -5 -6 -10 -9 -13 -3 -2 -8 -7
-11 -12 -3 -4 -10 -10 -15 -13 -5 -3 -12 -9 -16 -15 -20 -25 -24 -20 -25 26 0
20 -1 32 -3 39 -3 11 -2 155 1 162 3 5 8 4 22 -6z m-195 -149 c9 -5 25 -21 31
-31 10 -16 22 -27 32 -30 8 -3 11 -5 15 -11 3 -4 8 -10 12 -13 51 -37 58 -56
27 -69 -4 -2 -13 -8 -18 -13 -5 -5 -17 -16 -26 -24 -10 -9 -23 -23 -30 -31
-31 -36 -48 -47 -48 -30 0 2 -4 8 -9 14 -5 5 -10 13 -11 17 -1 5 -6 14 -9 21
-4 7 -7 15 -7 18 0 3 -1 10 -3 15 -2 6 -3 19 -3 34 0 22 1 31 8 63 1 4 2 12 2
17 0 32 20 61 37 53z m334 -6 c3 -5 9 -17 13 -27 3 -10 8 -20 10 -23 2 -4 3
-12 4 -35 1 -20 2 -32 4 -35 4 -7 3 -67 -1 -80 -2 -5 -4 -16 -5 -25 -6 -40
-22 -39 -68 7 -5 5 -12 11 -16 14 -4 2 -10 8 -13 14 -6 11 -13 18 -19 18 -2 0
-9 4 -15 10 -6 5 -16 13 -23 18 -24 16 -22 36 5 48 16 8 32 21 39 31 3 5 11
14 19 21 8 7 18 18 22 24 16 25 35 34 44 20z m-144 -168 c2 -2 10 -8 18 -15 8
-7 14 -13 15 -13 1 0 4 -5 8 -10 8 -13 25 -30 36 -37 6 -3 12 -8 14 -11 2 -3
9 -9 16 -13 36 -20 42 -47 14 -67 -3 -2 -8 -8 -11 -13 -3 -6 -9 -13 -14 -16
-4 -3 -13 -12 -19 -19 -7 -8 -15 -15 -22 -19 -6 -3 -16 -9 -23 -13 -31 -20
-35 -12 -35 64 0 52 0 57 -4 66 -4 9 -5 17 -5 37 -1 14 -1 36 -2 49 -2 30 1
36 14 30z m-49 -7 c4 -3 4 -8 4 -53 0 -37 1 -54 3 -63 6 -28 8 -38 9 -71 1
-22 2 -37 4 -39 11 -21 -19 -30 -43 -13 -5 4 -13 9 -18 11 -14 7 -75 86 -80
105 l-4 10 34 33 c19 18 36 35 39 36 3 2 10 9 15 17 13 20 31 33 37 27z"/>
</g>
</svg>
