<?xml version="1.0" standalone="no"?>
<!DOCTYPE svg PUBLIC "-//W3C//DTD SVG 20010904//EN"
 "http://www.w3.org/TR/2001/REC-SVG-20010904/DTD/svg10.dtd">
<svg version="1.0" xmlns="http://www.w3.org/2000/svg"
 width="88.000000pt" height="148.000000pt" viewBox="0 0 88.000000 148.000000"
 preserveAspectRatio="xMidYMid meet">
<metadata>
Created by potrace 1.16, written by Peter Selinger 2001-2019
</metadata>
<g transform="translate(0.000000,148.000000) scale(0.100000,-0.100000)"
fill="#000000" stroke="none">
<path d="M77 1413 c-4 -3 -7 -181 -7 -395 0 -361 1 -394 21 -466 11 -42 31
-95 43 -117 13 -22 39 -69 58 -105 44 -82 95 -151 133 -178 17 -12 50 -38 75
-57 25 -19 54 -35 64 -35 22 0 190 167 225 223 11 18 36 78 56 133 l34 99 -2
450 -2 450 -35 0 -35 0 3 -347 c1 -192 1 -348 -1 -348 -3 0 -18 28 -35 63 -33
68 -99 141 -182 200 -51 37 -53 38 -84 23 -114 -54 -230 -205 -257 -334 -4
-20 -7 135 -6 346 1 327 -1 385 -13 392 -18 11 -44 13 -53 3z m333 -634 l0
-162 -62 61 c-35 33 -74 69 -87 79 -17 14 -22 25 -17 40 12 37 125 143 153
143 10 0 13 -37 13 -161z m98 127 c49 -31 99 -80 107 -105 5 -16 -11 -38 -74
-103 -44 -45 -82 -80 -85 -77 -3 3 -8 74 -11 157 -7 171 -7 172 63 128z m-231
-213 c27 -27 68 -65 93 -87 l44 -38 -45 -36 c-24 -20 -62 -56 -83 -79 -22 -24
-45 -43 -51 -43 -7 0 -22 21 -35 46 -25 47 -31 119 -18 199 4 22 7 43 7 47 1
7 30 38 36 38 2 0 25 -21 52 -47z m392 -2 c33 -77 28 -291 -7 -291 -5 0 -34
24 -64 53 -30 28 -71 65 -91 80 -21 15 -37 34 -37 42 0 7 15 24 32 37 18 12
46 38 63 58 46 53 64 70 74 70 5 0 18 -22 30 -49z m-161 -212 c20 -23 61 -59
90 -80 28 -22 52 -44 52 -50 0 -20 -82 -110 -123 -136 -54 -34 -62 -23 -63 90
0 51 -4 120 -9 155 -9 75 0 79 53 21z m-97 -35 c-1 -33 2 -80 8 -105 5 -24 12
-66 14 -92 6 -58 -10 -69 -57 -42 -34 21 -39 26 -93 103 l-37 53 75 74 c41 41
78 73 83 71 5 -1 9 -29 7 -62z"/>
</g>
</svg>
