<?xml version="1.0" standalone="no"?>
<!DOCTYPE svg PUBLIC "-//W3C//DTD SVG 20010904//EN"
 "http://www.w3.org/TR/2001/REC-SVG-20010904/DTD/svg10.dtd">
<svg version="1.0" xmlns="http://www.w3.org/2000/svg"
 width="110.000000pt" height="148.000000pt" viewBox="0 0 110.000000 148.000000"
 preserveAspectRatio="xMidYMid meet">
<metadata>
Created by potrace 1.16, written by Peter Selinger 2001-2019
</metadata>
<g transform="translate(0.000000,148.000000) scale(0.100000,-0.100000)"
fill="#000000" stroke="none">
<path d="M955 1371 c-5 -9 -151 -130 -454 -374 -80 -65 -148 -123 -149 -128
-5 -13 32 -104 85 -213 69 -138 149 -211 212 -191 23 7 70 75 77 114 8 36 -22
138 -80 275 -26 60 -45 115 -44 122 3 12 153 143 320 277 42 34 78 69 81 78 9
33 -31 67 -48 40z m-387 -467 c2 -15 -11 -30 -52 -57 -31 -20 -63 -37 -71 -37
-24 0 -17 34 13 62 65 60 104 72 110 32z m52 -110 c15 -39 15 -39 -55 -75 -56
-29 -67 -32 -75 -19 -20 31 -10 55 38 87 58 39 80 41 92 7z m46 -129 c7 -30
-13 -110 -32 -126 -7 -6 -21 -8 -31 -5 -19 6 -63 65 -63 84 0 13 87 72 107 72
7 0 15 -11 19 -25z"/>
<path d="M81 976 c-12 -14 -1 -86 18 -124 5 -9 14 -35 19 -57 20 -76 74 -244
92 -282 28 -60 50 -106 65 -133 7 -14 23 -46 35 -71 28 -60 109 -145 187 -197
l63 -41 39 22 c49 28 137 110 162 151 10 17 28 51 40 76 11 25 25 53 30 62 5
10 9 23 9 28 0 6 9 30 20 52 11 23 20 50 20 59 0 10 4 20 8 23 4 3 14 28 22
56 8 28 18 53 22 56 4 3 8 15 8 26 0 12 4 35 10 52 40 127 53 164 62 182 17
36 7 69 -22 69 -29 0 -49 -34 -76 -130 -9 -33 -26 -91 -39 -130 -12 -38 -30
-97 -39 -130 -31 -109 -48 -149 -104 -250 -65 -116 -124 -185 -158 -185 -14 0
-51 23 -93 60 -65 56 -74 69 -145 212 -42 83 -76 157 -76 163 0 6 -9 28 -20
50 -11 22 -20 47 -20 57 0 10 -4 26 -9 36 -10 17 -35 111 -51 184 -12 62 -51
88 -79 54z"/>
</g>
</svg>
