<?xml version="1.0" standalone="no"?>
<!DOCTYPE svg PUBLIC "-//W3C//DTD SVG 20010904//EN"
 "http://www.w3.org/TR/2001/REC-SVG-20010904/DTD/svg10.dtd">
<svg version="1.0" xmlns="http://www.w3.org/2000/svg"
 width="438.000000pt" height="590.000000pt" viewBox="0 0 438.000000 590.000000"
 preserveAspectRatio="xMidYMid meet">
<metadata>
Created by potrace 1.16, written by Peter Selinger 2001-2019
</metadata>
<g transform="translate(0.000000,590.000000) scale(0.500000,-0.500000)"
fill="#000000" stroke="none">
<path d="M768 1099 c-4 -3 -26 -20 -48 -38 -21 -18 -61 -51 -89 -73 -27 -22
-57 -47 -66 -54 -9 -7 -27 -22 -40 -33 -13 -11 -29 -24 -35 -29 -25 -21 -125
-103 -158 -129 -61 -49 -59 -41 -37 -94 8 -20 19 -45 23 -56 18 -43 23 -53 42
-89 80 -146 156 -173 210 -75 14 26 18 48 12 71 -16 70 -19 80 -52 155 -26 60
-47 121 -45 129 1 6 -1 4 71 63 68 57 84 71 140 118 24 21 53 45 63 53 51 41
59 57 37 78 -9 10 -15 10 -28 3z m-321 -364 c16 -16 12 -22 -24 -46 -56 -35
-64 -39 -70 -34 -11 11 17 52 45 65 5 3 14 7 19 11 21 13 21 13 30 4z m36 -81
c12 -6 23 -40 16 -48 -7 -7 -86 -50 -93 -50 -8 0 -21 27 -19 38 2 8 18 22 36
32 8 5 20 12 27 17 21 13 25 14 33 11z m45 -109 c15 -19 1 -96 -21 -113 -21
-16 -81 41 -71 67 8 21 82 58 92 46z"/>
<path d="M71 790 c-9 -6 -12 -31 -6 -48 2 -5 3 -15 3 -22 0 -16 2 -21 11 -35
6 -9 8 -13 9 -27 1 -11 3 -18 8 -27 3 -7 7 -18 9 -26 2 -8 5 -22 7 -32 2 -10
6 -23 9 -29 3 -6 5 -13 5 -15 0 -5 22 -70 27 -81 2 -5 5 -12 6 -16 1 -4 6 -15
11 -24 6 -10 10 -20 10 -23 0 -7 6 -21 12 -28 2 -3 5 -10 7 -16 2 -7 6 -13 10
-17 8 -8 21 -32 21 -40 0 -3 2 -9 5 -14 3 -5 9 -18 15 -29 6 -13 13 -23 18
-28 5 -4 10 -12 13 -17 6 -11 68 -74 80 -80 5 -3 12 -8 16 -11 17 -11 28 -19
35 -23 5 -2 11 -7 15 -10 20 -18 75 3 107 40 6 7 22 22 35 34 25 22 34 34 42
52 3 5 7 12 11 16 7 8 14 23 19 40 1 6 5 13 7 15 6 5 9 12 11 22 1 4 5 15 10
23 5 8 9 17 9 21 0 10 12 41 19 50 6 6 7 9 7 22 1 12 2 16 9 25 4 6 8 14 9 22
3 13 5 19 12 34 3 7 6 14 6 17 0 3 2 9 4 14 2 4 5 12 6 16 4 17 8 35 8 39 0 2
1 7 3 11 4 6 8 22 14 46 1 7 4 15 5 19 6 14 10 27 19 59 2 7 6 15 9 19 9 12
10 15 10 33 0 27 -5 32 -30 31 -20 -1 -40 -28 -46 -61 -1 -7 -6 -23 -10 -37
-4 -14 -10 -35 -13 -46 -3 -12 -9 -31 -13 -42 -4 -12 -10 -28 -12 -37 -2 -9
-6 -20 -7 -25 -2 -5 -4 -14 -5 -21 -2 -7 -6 -19 -10 -28 -5 -10 -8 -20 -9 -27
0 -7 -2 -14 -4 -16 -1 -3 -3 -10 -4 -17 -1 -6 -3 -15 -5 -20 -2 -4 -4 -10 -4
-11 0 -2 -4 -12 -9 -22 -5 -11 -9 -21 -9 -23 0 -5 -20 -43 -26 -50 -3 -4 -10
-16 -16 -28 -6 -12 -15 -28 -19 -35 -5 -7 -11 -18 -14 -23 -3 -6 -8 -14 -11
-17 -3 -4 -7 -11 -10 -15 -11 -22 -61 -62 -74 -60 -13 2 -32 13 -39 22 -4 5
-14 14 -23 20 -34 25 -69 65 -75 83 -2 6 -12 23 -24 42 -11 16 -18 33 -20 42
-1 4 -5 12 -9 18 -4 5 -8 13 -9 16 -1 3 -5 11 -8 16 -4 6 -12 21 -17 35 -6 13
-12 26 -13 28 -2 2 -4 10 -6 17 -1 7 -9 25 -16 39 -12 23 -13 28 -15 42 -1 12
-3 20 -8 31 -4 8 -8 21 -9 27 -1 7 -2 14 -4 16 -1 2 -3 8 -4 13 -2 5 -4 13 -6
17 -1 4 -3 11 -3 15 0 4 -2 11 -4 16 -2 5 -4 11 -4 14 0 2 -1 7 -3 11 -2 3 -4
13 -5 22 -5 49 -34 75 -63 57z"/>
</g>
</svg>
