<?xml version="1.0" standalone="no"?>
<!DOCTYPE svg PUBLIC "-//W3C//DTD SVG 20010904//EN"
 "http://www.w3.org/TR/2001/REC-SVG-20010904/DTD/svg10.dtd">
<svg version="1.0" xmlns="http://www.w3.org/2000/svg"
 width="74.000000pt" height="100.000000pt" viewBox="0 0 74.000000 100.000000"
 preserveAspectRatio="xMidYMid meet">
<metadata>
Created by potrace 1.16, written by Peter Selinger 2001-2019
</metadata>
<g transform="translate(0.000000,100.000000) scale(0.100000,-0.100000)"
fill="#000000" stroke="none">
<path d="M631 926 c-7 -8 -85 -74 -174 -148 -88 -73 -177 -147 -195 -164 l-35
-31 47 -99 c77 -163 151 -216 196 -141 30 48 25 97 -22 214 l-42 106 39 31
c157 124 230 193 230 216 0 29 -26 38 -44 16z m-188 -505 c-2 -58 -37 -67 -67
-17 -9 14 -6 21 13 37 35 29 56 21 54 -20z"/>
<path d="M646 665 c-8 -8 -26 -52 -40 -98 -13 -45 -36 -120 -50 -167 -29 -97
-109 -244 -149 -274 l-27 -20 -56 54 c-74 73 -147 227 -198 420 -21 78 -25 85
-49 88 -25 3 -27 0 -27 -30 0 -46 80 -278 129 -376 46 -92 85 -140 148 -184
32 -22 51 -28 69 -24 38 10 109 87 143 155 48 95 160 436 149 455 -11 20 -22
20 -42 1z"/>
</g>
</svg>
