<?xml version="1.0" standalone="no"?>
<!DOCTYPE svg PUBLIC "-//W3C//DTD SVG 20010904//EN"
 "http://www.w3.org/TR/2001/REC-SVG-20010904/DTD/svg10.dtd">
<svg version="1.0" xmlns="http://www.w3.org/2000/svg"
 width="114.000000pt" height="148.000000pt" viewBox="0 0 114.000000 148.000000"
 preserveAspectRatio="xMidYMid meet">
<metadata>
Created by potrace 1.16, written by Peter Selinger 2001-2019
</metadata>
<g transform="translate(0.000000,148.000000) scale(0.100000,-0.100000)"
fill="#000000" stroke="none">
<path d="M385 1411 c-3 -6 -10 -73 -15 -148 -5 -76 -16 -225 -25 -331 -8 -106
-13 -197 -10 -203 10 -15 62 -10 69 7 3 9 6 40 6 69 0 86 -1 85 92 63 140 -32
233 -25 269 20 18 23 20 36 16 85 -4 50 -11 66 -44 105 -24 28 -69 63 -114 88
-41 23 -92 55 -114 71 l-40 29 0 75 0 74 -42 3 c-22 2 -44 -2 -48 -7z m190
-297 c114 -69 150 -129 105 -174 -25 -25 -47 -25 -145 0 -42 11 -81 17 -85 15
-18 -11 -21 19 -8 110 11 88 14 95 35 95 12 0 56 -21 98 -46z"/>
<path d="M106 1385 c-9 -9 -13 -21 -10 -27 4 -5 10 -35 14 -66 27 -194 42
-294 54 -347 8 -33 19 -87 26 -120 24 -113 123 -400 181 -524 48 -102 70 -134
118 -182 88 -88 118 -82 249 45 34 33 62 65 62 70 0 5 20 43 44 85 29 52 58
125 89 231 84 285 167 799 136 837 -14 16 -51 17 -67 1 -7 -7 -12 -35 -12 -63
0 -123 -84 -579 -134 -728 -14 -42 -26 -82 -26 -87 0 -9 -33 -84 -87 -199 -17
-35 -140 -161 -158 -161 -6 0 -27 19 -47 43 -106 127 -263 559 -299 822 -56
409 -49 380 -85 383 -19 2 -38 -3 -48 -13z"/>
<path d="M781 1386 c-9 -11 -9 -28 4 -78 8 -34 23 -106 33 -158 17 -89 19 -95
42 -95 35 0 40 36 24 157 -7 56 -14 117 -14 135 0 36 -2 38 -46 47 -21 5 -35
2 -43 -8z"/>
</g>
</svg>
