<?xml version="1.0" standalone="no"?>
<!DOCTYPE svg PUBLIC "-//W3C//DTD SVG 20010904//EN"
 "http://www.w3.org/TR/2001/REC-SVG-20010904/DTD/svg10.dtd">
<svg version="1.0" xmlns="http://www.w3.org/2000/svg"
 width="456.000000pt" height="590.000000pt" viewBox="0 0 456.000000 590.000000"
 preserveAspectRatio="xMidYMid meet">
<metadata>
Created by potrace 1.16, written by Peter Selinger 2001-2019
</metadata>
<g transform="translate(0.000000,590.000000) scale(0.500000,-0.500000)"
fill="#000000" stroke="none">
<path d="M332 1138 c-15 -2 -24 -11 -27 -25 -2 -11 -7 -81 -9 -125 -1 -24 -4
-61 -6 -82 -2 -21 -5 -55 -6 -75 -1 -20 -4 -53 -6 -73 -2 -20 -5 -51 -6 -68
-1 -17 -4 -45 -6 -63 -6 -44 -1 -53 33 -52 28 1 30 7 37 93 3 41 2 40 41 32
15 -3 38 -8 50 -10 13 -2 25 -5 28 -7 17 -8 62 -10 92 -3 10 2 21 4 25 4 9 0
30 8 39 15 19 14 35 72 25 92 -2 5 -5 15 -5 21 -2 12 -2 13 -12 24 -6 6 -12
15 -15 19 -7 15 -51 55 -71 66 -10 5 -21 13 -26 16 -4 4 -10 7 -14 8 -11 3
-48 22 -58 30 -5 4 -14 11 -18 14 -21 14 -35 32 -35 44 0 21 4 84 5 88 3 11
-28 21 -55 17z m83 -221 c82 -36 151 -98 146 -131 -7 -48 -52 -56 -150 -27
-13 4 -31 8 -39 9 -24 3 -25 6 -17 59 3 20 6 46 7 59 4 44 12 49 53 31z"/>
<path d="M115 1117 c-10 -1 -20 -3 -22 -3 -13 0 -16 -16 -8 -59 2 -9 4 -27 6
-40 1 -14 4 -29 6 -35 1 -6 3 -16 4 -23 1 -7 2 -19 4 -28 5 -30 9 -65 8 -72 0
-4 1 -16 5 -31 3 -14 9 -40 12 -59 3 -19 7 -39 10 -44 2 -4 4 -13 5 -19 1 -6
3 -14 4 -19 6 -16 11 -43 12 -57 0 -13 3 -24 25 -91 14 -42 28 -83 31 -92 2
-9 11 -33 18 -54 7 -21 13 -40 13 -43 0 -3 6 -18 14 -33 35 -70 82 -166 83
-170 1 -6 25 -30 41 -42 8 -6 21 -19 30 -30 28 -32 63 -36 96 -10 8 5 20 14
28 19 8 5 17 12 21 16 3 5 18 19 34 32 29 27 45 45 50 58 2 5 7 17 12 26 6 9
12 22 16 28 14 26 28 52 34 61 4 5 7 11 7 12 0 2 11 38 24 80 34 109 34 107
40 133 6 24 11 47 19 93 3 15 7 37 9 47 2 10 6 30 8 43 4 23 6 35 17 92 3 15
7 38 10 51 3 13 6 32 8 43 2 11 4 21 4 22 8 12 12 183 5 190 -9 10 -57 6 -59
-4 -2 -9 -4 -33 -4 -54 0 -12 -2 -27 -3 -33 -1 -6 -3 -24 -4 -39 -1 -15 -3
-36 -5 -45 -1 -9 -3 -25 -4 -35 -1 -9 -2 -20 -3 -23 -2 -5 -8 -30 -14 -63 -4
-23 -5 -29 -22 -109 -4 -18 -13 -65 -21 -103 -2 -9 -6 -27 -10 -41 -4 -14 -8
-29 -9 -35 -3 -15 -21 -68 -28 -84 -3 -7 -6 -18 -7 -24 -1 -5 -4 -15 -6 -21
-3 -6 -6 -17 -9 -25 -2 -8 -7 -18 -11 -24 -4 -5 -8 -14 -9 -20 -1 -5 -5 -13
-7 -17 -3 -4 -7 -13 -10 -19 -21 -53 -36 -73 -96 -126 -46 -41 -47 -41 -59
-29 -42 39 -72 86 -96 146 -2 6 -8 17 -13 26 -16 29 -27 54 -36 86 -6 19 -9
28 -22 61 -10 25 -25 75 -25 82 0 3 -3 10 -6 16 -3 7 -7 19 -9 27 -2 8 -5 17
-7 20 -7 9 -9 15 -11 31 -1 9 -4 23 -7 32 -2 9 -5 24 -7 33 -2 9 -5 23 -7 31
-11 38 -17 74 -19 109 0 12 -2 24 -5 30 -4 11 -7 33 -10 82 -1 16 -3 26 -6 32
-2 5 -4 14 -5 20 -1 6 -3 24 -5 39 -2 15 -4 37 -5 48 -2 23 -3 26 -11 30 -7 3
-7 3 -31 0z"/>
<path d="M641 1115 c-18 -5 -20 -9 -18 -36 1 -15 3 -23 6 -30 8 -18 9 -21 11
-44 1 -12 4 -31 7 -43 3 -12 6 -30 8 -40 2 -17 8 -46 13 -68 2 -12 23 -20 36
-14 15 9 19 53 10 110 -2 14 -5 37 -6 52 -1 15 -3 36 -5 48 -2 12 -3 26 -3 32
0 15 -6 26 -17 29 -8 3 -36 5 -42 4z"/>
</g>
</svg>
