<?xml version="1.0" standalone="no"?>
<!DOCTYPE svg PUBLIC "-//W3C//DTD SVG 20010904//EN"
 "http://www.w3.org/TR/2001/REC-SVG-20010904/DTD/svg10.dtd">
<svg version="1.0" xmlns="http://www.w3.org/2000/svg"
 width="77.000000pt" height="100.000000pt" viewBox="0 0 77.000000 100.000000"
 preserveAspectRatio="xMidYMid meet">
<metadata>
Created by potrace 1.16, written by Peter Selinger 2001-2019
</metadata>
<g transform="translate(0.000000,100.000000) scale(0.100000,-0.100000)"
fill="#000000" stroke="none">
<path d="M263 958 c-8 -14 -31 -300 -32 -405 -1 -60 0 -63 23 -63 23 0 25 5
28 48 3 46 4 47 33 44 184 -15 220 -4 220 67 0 52 -43 105 -123 152 -92 54
-95 57 -88 105 6 44 -6 64 -35 64 -10 0 -21 -6 -26 -12z m133 -213 c61 -39 85
-75 64 -100 -15 -18 -41 -19 -110 -4 l-50 11 0 48 c0 92 13 98 96 45z"/>
<path d="M65 940 c-4 -6 -2 -34 4 -63 6 -28 15 -88 21 -132 47 -330 206 -705
300 -705 54 0 133 75 183 175 64 129 147 486 150 645 2 84 2 85 -23 85 -21 0
-26 -6 -32 -40 -4 -22 -7 -61 -7 -87 -1 -26 -17 -120 -37 -210 -58 -265 -105
-385 -180 -459 -36 -36 -48 -42 -61 -33 -28 18 -88 139 -143 288 -44 119 -55
167 -76 311 -14 93 -27 185 -30 203 -4 28 -9 32 -34 32 -16 0 -32 -5 -35 -10z"/>
<path d="M524 936 c-6 -16 21 -167 36 -203 5 -13 17 -23 26 -23 15 0 16 12 12
105 -4 61 -11 112 -18 120 -16 19 -49 19 -56 1z"/>
</g>
</svg>
