<?xml version="1.0" standalone="no"?>
<!DOCTYPE svg PUBLIC "-//W3C//DTD SVG 20010904//EN"
 "http://www.w3.org/TR/2001/REC-SVG-20010904/DTD/svg10.dtd">
<svg version="1.0" xmlns="http://www.w3.org/2000/svg"
 width="108.000000pt" height="102.000000pt" viewBox="0 0 108.000000 102.000000"
 preserveAspectRatio="xMidYMid meet">
<metadata>
Created by potrace 1.16, written by Peter Selinger 2001-2019
</metadata>
<g transform="translate(0.000000,102.000000) scale(0.100000,-0.100000)"
fill="#000000" stroke="none">
<path d="M48 443 c2 -208 5 -379 5 -380 1 0 155 -3 342 -4 l340 -3 -4 127 -3
127 90 0 c97 0 134 9 170 42 47 45 34 68 -117 222 l-139 141 5 53 6 52 -54 0
-54 0 3 -335 4 -335 -252 0 -251 0 2 332 1 333 -48 3 -49 3 3 -378z m744 110
c24 -26 57 -61 73 -78 56 -59 59 -64 45 -80 -9 -11 -34 -15 -96 -15 l-84 0 0
110 c0 65 4 110 10 110 5 0 29 -21 52 -47z"/>
<path d="M244 746 c-3 -8 -4 -27 -2 -43 l3 -28 138 -5 c153 -6 160 -3 155 52
l-3 33 -143 3 c-117 2 -143 0 -148 -12z"/>
<path d="M248 568 c-2 -7 -2 -26 1 -42 l6 -29 133 0 c76 0 138 5 143 10 6 6 9
23 7 39 l-3 29 -141 3 c-108 2 -143 -1 -146 -10z"/>
<path d="M247 358 c-8 -58 -7 -58 143 -58 131 0 139 1 145 21 4 11 4 31 1 45
-6 24 -7 24 -145 24 l-139 0 -5 -32z"/>
</g>
</svg>
