<?xml version="1.0" standalone="no"?>
<!DOCTYPE svg PUBLIC "-//W3C//DTD SVG 20010904//EN"
 "http://www.w3.org/TR/2001/REC-SVG-20010904/DTD/svg10.dtd">
<svg version="1.0" xmlns="http://www.w3.org/2000/svg"
 width="100.000000pt" height="94.000000pt" viewBox="0 0 100.000000 94.000000"
 preserveAspectRatio="xMidYMid meet">
<metadata>
Created by potrace 1.16, written by Peter Selinger 2001-2019
</metadata>
<g transform="translate(0.000000,94.000000) scale(0.100000,-0.100000)"
fill="#000000" stroke="none">
<path d="M45 750 c-4 -7 -4 -164 0 -350 l7 -338 172 -7 c94 -3 236 -5 316 -3
l145 3 0 115 0 115 50 -2 c90 -4 134 6 170 39 19 16 35 39 35 50 0 12 -35 57
-82 107 -186 195 -173 177 -173 229 l0 47 -49 3 -48 3 7 -289 c6 -212 4 -294
-4 -310 -11 -22 -17 -22 -224 -22 -117 0 -218 4 -226 9 -11 7 -13 60 -10 307
l4 299 -42 3 c-23 2 -44 -2 -48 -8z m677 -222 c14 -18 48 -55 77 -83 79 -77
66 -99 -54 -93 l-60 3 -6 90 c-9 125 -1 140 43 83z"/>
<path d="M224 686 c-3 -8 -4 -25 -2 -38 2 -19 11 -24 48 -30 59 -9 159 -10
199 -2 28 6 31 10 31 45 l0 39 -135 0 c-108 0 -137 -3 -141 -14z"/>
<path d="M227 527 c-3 -7 -3 -25 0 -40 l5 -27 135 0 134 0 -3 38 -3 37 -131 3
c-103 2 -133 0 -137 -11z"/>
<path d="M232 318 l3 -43 130 0 130 0 0 40 0 40 -133 3 -133 3 3 -43z"/>
</g>
</svg>
