<?xml version="1.0" standalone="no"?>
<!DOCTYPE svg PUBLIC "-//W3C//DTD SVG 20010904//EN"
 "http://www.w3.org/TR/2001/REC-SVG-20010904/DTD/svg10.dtd">
<svg version="1.0" xmlns="http://www.w3.org/2000/svg"
 width="428.000000pt" height="410.000000pt" viewBox="0 0 428.000000 410.000000"
 preserveAspectRatio="xMidYMid meet">
<metadata>
Created by potrace 1.16, written by Peter Selinger 2001-2019
</metadata>
<g transform="translate(0.000000,410.000000) scale(0.500000,-0.500000)"
fill="#000000" stroke="none">
<path d="M68 666 c-38 -1 -35 11 -30 -128 3 -82 5 -382 2 -405 -1 -11 -1 -32
-1 -47 2 -41 -30 -36 234 -36 123 0 228 -1 233 -2 20 -4 67 -5 74 -1 8 4 9 7
7 47 -6 177 -15 156 73 156 66 -1 67 -1 73 3 3 3 11 6 18 8 21 6 52 39 54 57
4 33 7 29 -182 224 -37 38 -35 33 -34 77 2 49 2 49 -40 49 -49 0 -46 7 -43
-93 5 -159 5 -440 0 -446 -7 -7 -382 -9 -388 -1 -4 5 -6 340 -2 372 1 8 2 47
3 86 1 90 6 82 -51 80z m540 -198 c151 -156 151 -158 32 -158 -65 0 -57 -11
-57 85 0 99 0 99 25 73z"/>
<path d="M202 612 c-11 -5 -12 -66 0 -72 10 -5 216 -4 222 2 8 6 9 59 1 67 -5
5 -210 8 -223 3z"/>
<path d="M207 470 c-10 -4 -14 -52 -5 -63 6 -7 213 -8 220 -1 6 6 6 56 0 61
-5 4 -206 7 -215 3z"/>
<path d="M209 314 c-12 -4 -17 -54 -7 -64 8 -8 207 -9 219 -1 6 4 8 52 2 60
-4 6 -193 11 -214 5z"/>
</g>
</svg>
