<?xml version="1.0" standalone="no"?>
<!DOCTYPE svg PUBLIC "-//W3C//DTD SVG 20010904//EN"
 "http://www.w3.org/TR/2001/REC-SVG-20010904/DTD/svg10.dtd">
<svg version="1.0" xmlns="http://www.w3.org/2000/svg"
 width="334.000000pt" height="590.000000pt" viewBox="0 0 334.000000 590.000000"
 preserveAspectRatio="xMidYMid meet">
<metadata>
Created by potrace 1.16, written by Peter Selinger 2001-2019
</metadata>
<g transform="translate(0.000000,590.000000) scale(0.500000,-0.500000)"
fill="#000000" stroke="none">
<path d="M39 1136 c-9 -3 -9 -13 -8 -84 1 -36 2 -266 2 -512 0 -509 -1 -461
18 -482 20 -21 84 -31 126 -19 23 7 41 14 49 20 4 3 8 5 10 5 11 0 54 18 67
28 6 5 12 8 13 8 7 0 18 6 37 18 18 12 38 22 112 57 10 5 23 10 29 12 6 1 15
6 19 9 4 4 13 9 19 12 31 15 78 60 86 82 8 18 11 830 4 839 -12 14 -52 12 -58
-4 -1 -2 -1 -106 0 -230 1 -124 1 -229 0 -232 -4 -14 -21 -24 -66 -38 -5 -2
-15 -6 -22 -9 -6 -3 -13 -6 -14 -6 -1 0 -9 -3 -18 -7 -8 -4 -23 -10 -32 -13
-9 -4 -26 -10 -36 -15 -11 -5 -21 -9 -22 -9 -2 0 -7 -2 -13 -5 -10 -4 -49 -21
-74 -30 -28 -11 -49 -20 -64 -27 -9 -4 -24 -11 -34 -15 -10 -4 -25 -10 -33
-14 -8 -4 -16 -7 -18 -7 -1 0 -6 -2 -10 -4 -17 -9 -22 -4 -19 20 2 18 4 240 3
361 0 6 0 45 1 87 3 200 3 199 -10 204 -6 2 -38 2 -44 0z m523 -565 c4 -6 5
-70 2 -188 -1 -53 -1 -53 -7 -61 -4 -5 -10 -14 -14 -19 -10 -16 -29 -28 -48
-33 -6 -1 -16 -6 -24 -11 -8 -5 -22 -12 -32 -15 -13 -4 -25 -10 -35 -17 -8 -6
-19 -12 -23 -13 -10 -3 -38 -17 -48 -24 -4 -3 -11 -6 -14 -8 -9 -2 -30 -16
-41 -27 -5 -5 -12 -10 -16 -12 -4 -2 -12 -6 -18 -10 -8 -5 -15 -7 -23 -8 -8
-1 -15 -3 -22 -7 -5 -4 -16 -8 -25 -11 -9 -3 -17 -8 -22 -12 -8 -7 -8 -7 -26
-7 -33 0 -34 2 -34 70 0 41 -1 51 -3 58 -4 9 -4 24 0 38 2 8 2 12 1 21 -1 6
-2 12 -1 13 1 2 2 19 3 38 2 33 4 57 6 59 4 3 44 19 52 20 7 1 14 5 27 13 9 7
23 15 30 17 6 3 15 7 19 9 4 2 10 4 13 4 11 0 20 4 27 11 8 8 8 8 31 9 22 1
22 1 33 11 12 11 17 13 28 13 10 0 18 3 24 9 5 5 20 10 34 12 6 1 13 3 17 6 4
3 10 6 14 8 4 2 8 6 10 9 3 6 5 6 26 9 6 1 13 3 19 7 34 22 53 28 60 19z"/>
</g>
</svg>
