<?xml version="1.0" standalone="no"?>
<!DOCTYPE svg PUBLIC "-//W3C//DTD SVG 20010904//EN"
 "http://www.w3.org/TR/2001/REC-SVG-20010904/DTD/svg10.dtd">
<svg version="1.0" xmlns="http://www.w3.org/2000/svg"
 width="57.000000pt" height="100.000000pt" viewBox="0 0 57.000000 100.000000"
 preserveAspectRatio="xMidYMid meet">
<metadata>
Created by potrace 1.16, written by Peter Selinger 2001-2019
</metadata>
<g transform="translate(0.000000,100.000000) scale(0.100000,-0.100000)"
fill="#000000" stroke="none">
<path d="M33 959 c-15 -15 -6 -897 10 -916 5 -8 33 -13 68 -13 54 0 72 7 210
78 83 42 164 89 180 104 l29 26 0 361 c0 319 -2 362 -16 368 -34 13 -39 -13
-36 -206 2 -138 -1 -191 -10 -204 -10 -13 -330 -150 -373 -160 -6 -1 -12 101
-15 283 -4 244 -7 285 -20 288 -9 1 -21 -3 -27 -9z m447 -568 c0 -125 -4 -133
-102 -182 -46 -23 -103 -53 -128 -68 -78 -46 -144 -70 -158 -59 -8 7 -12 45
-12 124 l0 114 64 29 c34 15 85 36 112 45 27 9 81 32 119 51 106 51 105 51
105 -54z"/>
</g>
</svg>
