<?xml version="1.0" standalone="no"?>
<!DOCTYPE svg PUBLIC "-//W3C//DTD SVG 20010904//EN"
 "http://www.w3.org/TR/2001/REC-SVG-20010904/DTD/svg10.dtd">
<svg version="1.0" xmlns="http://www.w3.org/2000/svg"
 width="84.000000pt" height="148.000000pt" viewBox="0 0 84.000000 148.000000"
 preserveAspectRatio="xMidYMid meet">
<metadata>
Created by potrace 1.16, written by Peter Selinger 2001-2019
</metadata>
<g transform="translate(0.000000,148.000000) scale(0.100000,-0.100000)"
fill="#000000" stroke="none">
<path d="M40 1413 c-6 -135 3 -1321 10 -1333 22 -42 136 -51 210 -17 19 8 46
19 60 22 14 4 50 22 80 40 64 39 199 105 213 105 17 0 134 88 150 114 15 23
17 79 17 551 l0 525 -35 0 -35 0 0 -299 c0 -335 5 -311 -78 -341 -77 -28 -424
-171 -465 -192 -21 -10 -43 -18 -48 -16 -8 3 -12 558 -5 803 1 39 0 40 -36 43
-21 2 -38 0 -38 -5z m670 -844 c0 -184 -5 -195 -100 -240 -36 -17 -74 -35 -84
-41 -11 -6 -53 -28 -95 -49 -41 -22 -77 -43 -80 -48 -8 -11 -67 -41 -82 -41
-6 0 -33 -11 -61 -25 -95 -48 -99 -40 -99 164 0 89 2 169 6 180 3 10 18 22 33
26 15 3 53 19 84 36 31 16 64 29 71 29 8 0 20 7 27 15 7 9 21 13 31 10 10 -4
31 0 46 8 16 8 44 21 63 29 62 26 134 60 170 79 70 37 70 37 70 -132z"/>
</g>
</svg>
