<?xml version="1.0" standalone="no"?>
<!DOCTYPE svg PUBLIC "-//W3C//DTD SVG 20010904//EN"
 "http://www.w3.org/TR/2001/REC-SVG-20010904/DTD/svg10.dtd">
<svg version="1.0" xmlns="http://www.w3.org/2000/svg"
 width="84.000000pt" height="148.000000pt" viewBox="0 0 84.000000 148.000000"
 preserveAspectRatio="xMidYMid meet">
<metadata>
Created by potrace 1.16, written by Peter Selinger 2001-2019
</metadata>
<g transform="translate(0.000000,148.000000) scale(0.100000,-0.100000)"
fill="#000000" stroke="none">
<path d="M50 1413 c-1 -5 -1 -300 0 -658 l0 -650 30 -27 c20 -19 41 -28 63
-28 38 0 185 58 266 105 31 18 88 47 126 65 151 69 203 106 228 160 9 18 12
167 12 530 l0 505 -30 0 -30 0 4 -296 4 -297 -24 -15 c-13 -9 -105 -48 -204
-87 -99 -40 -204 -83 -233 -96 -29 -13 -55 -24 -57 -24 -3 0 -26 -10 -50 -21
-25 -12 -48 -19 -51 -16 -4 3 -5 197 -5 431 l2 426 -26 0 c-14 0 -25 -3 -25
-7z m668 -833 c3 -169 -4 -202 -56 -236 -42 -28 -47 -10 -47 186 l-1 178 31
16 c16 8 39 14 50 13 19 -2 20 -10 23 -157z m-156 -87 c-1 -91 -7 -174 -12
-184 -12 -21 -88 -61 -101 -53 -5 3 -9 88 -9 189 0 179 1 184 22 199 12 9 32
16 45 16 12 0 25 5 29 11 4 8 10 7 18 -1 7 -8 10 -63 8 -177z m-172 -89 c0
-176 -2 -195 -17 -201 -10 -3 -30 -15 -45 -25 -16 -11 -32 -16 -38 -13 -6 4
-10 80 -10 199 0 187 1 193 23 213 26 24 46 31 70 25 15 -4 17 -22 17 -198z
m-168 -77 c-3 -158 -6 -195 -19 -209 -19 -22 -76 -24 -92 -4 -16 18 -17 347
-2 375 13 23 92 53 106 39 6 -6 9 -82 7 -201z"/>
</g>
</svg>
