<?xml version="1.0" standalone="no"?>
<!DOCTYPE svg PUBLIC "-//W3C//DTD SVG 20010904//EN"
 "http://www.w3.org/TR/2001/REC-SVG-20010904/DTD/svg10.dtd">
<svg version="1.0" xmlns="http://www.w3.org/2000/svg"
 width="57.000000pt" height="100.000000pt" viewBox="0 0 57.000000 100.000000"
 preserveAspectRatio="xMidYMid meet">
<metadata>
Created by potrace 1.16, written by Peter Selinger 2001-2019
</metadata>
<g transform="translate(0.000000,100.000000) scale(0.100000,-0.100000)"
fill="#000000" stroke="none">
<path d="M37 963 c-4 -3 -7 -206 -7 -450 0 -437 0 -443 21 -464 17 -17 29 -20
63 -15 50 7 357 160 389 194 22 23 22 27 25 374 1 193 -1 355 -6 360 -5 5 -16
6 -25 2 -15 -5 -17 -29 -17 -208 l0 -203 -24 -11 c-79 -36 -367 -152 -377
-152 -9 0 -10 62 -5 269 6 192 4 275 -4 290 -11 22 -22 26 -33 14z m443 -580
c0 -85 -3 -110 -17 -125 -36 -40 -43 -25 -43 101 0 123 2 128 43 130 15 1 17
-10 17 -106z m-100 -27 c0 -110 -8 -144 -37 -163 -13 -9 -26 -13 -29 -10 -3 3
-8 55 -11 116 -7 123 0 141 48 141 l29 0 0 -84z m-120 -80 c0 -118 -1 -126
-22 -140 -12 -9 -26 -16 -30 -16 -5 0 -8 58 -8 128 0 132 5 152 42 152 16 0
18 -11 18 -124z m-112 -52 c-3 -114 -5 -128 -23 -140 -41 -27 -50 -5 -50 126
0 129 4 140 53 140 22 0 23 -1 20 -126z"/>
</g>
</svg>
