<?xml version="1.0" standalone="no"?>
<!DOCTYPE svg PUBLIC "-//W3C//DTD SVG 20010904//EN"
 "http://www.w3.org/TR/2001/REC-SVG-20010904/DTD/svg10.dtd">
<svg version="1.0" xmlns="http://www.w3.org/2000/svg"
 width="100.000000pt" height="148.000000pt" viewBox="0 0 100.000000 148.000000"
 preserveAspectRatio="xMidYMid meet">
<metadata>
Created by potrace 1.16, written by Peter Selinger 2001-2019
</metadata>
<g transform="translate(0.000000,148.000000) scale(0.100000,-0.100000)"
fill="#000000" stroke="none">
<path d="M790 1409 c-58 -3 -126 -7 -152 -8 -46 -1 -48 -2 -48 -31 l0 -29 130
6 130 6 0 -125 c0 -105 -3 -128 -17 -139 -9 -8 -34 -36 -56 -64 -21 -27 -60
-73 -86 -101 -25 -28 -56 -64 -69 -80 -65 -84 -95 -119 -103 -122 -9 -4 -372
358 -387 385 -4 6 -6 61 -4 122 l3 111 139 0 c130 0 139 1 145 20 3 11 3 24 0
30 -4 6 -72 10 -175 10 l-170 0 -2 -392 -3 -393 26 -80 c38 -120 164 -277 322
-404 101 -81 109 -84 143 -52 16 14 47 41 69 60 101 86 175 155 175 164 0 6
11 22 24 36 26 27 44 71 77 184 18 63 19 96 17 479 -2 264 -7 412 -13 413 -5
1 -57 -2 -115 -6z m-627 -440 c15 -30 17 -60 15 -244 -2 -132 -7 -210 -13
-210 -5 0 -11 11 -13 25 -2 14 -10 44 -18 68 -19 58 -21 406 -1 400 6 -2 20
-20 30 -39z m697 -156 c0 -138 -4 -198 -16 -239 -8 -30 -20 -54 -25 -54 -5 0
-9 79 -9 189 0 104 -4 200 -9 214 -7 19 -4 30 16 55 13 18 29 30 34 27 5 -4 9
-90 9 -192z m-527 -249 c0 -157 -4 -249 -10 -251 -6 -2 -27 21 -48 51 l-37 55
0 233 c0 128 1 237 1 243 1 5 22 -11 47 -37 l47 -46 0 -248z m427 106 c0 -115
4 -211 8 -214 11 -7 8 -47 -7 -76 -17 -33 -52 -70 -60 -65 -4 2 -8 119 -9 261
l-3 257 27 28 c15 16 31 26 36 23 4 -3 8 -99 8 -214z m-120 -178 l0 -246 -37
-38 c-20 -21 -43 -38 -50 -38 -10 0 -13 50 -13 239 l0 238 41 52 c22 28 45 49
50 45 5 -3 9 -114 9 -252z m-195 201 l34 -38 1 -242 c0 -134 -3 -243 -8 -243
-4 0 -24 14 -45 31 l-37 30 0 250 c0 157 4 249 10 249 5 0 25 -17 45 -37z"/>
</g>
</svg>
