<?xml version="1.0" standalone="no"?>
<!DOCTYPE svg PUBLIC "-//W3C//DTD SVG 20010904//EN"
 "http://www.w3.org/TR/2001/REC-SVG-20010904/DTD/svg10.dtd">
<svg version="1.0" xmlns="http://www.w3.org/2000/svg"
 width="68.000000pt" height="100.000000pt" viewBox="0 0 68.000000 100.000000"
 preserveAspectRatio="xMidYMid meet">
<metadata>
Created by potrace 1.16, written by Peter Selinger 2001-2019
</metadata>
<g transform="translate(0.000000,100.000000) scale(0.100000,-0.100000)"
fill="#000000" stroke="none">
<path d="M90 953 c-19 -3 -38 -10 -42 -16 -4 -7 -8 -128 -8 -269 0 -301 5
-323 96 -436 54 -66 156 -162 195 -183 24 -12 45 -1 132 75 76 66 119 126 146
205 19 60 21 85 21 343 l0 278 -26 6 c-34 9 -196 -4 -208 -16 -5 -5 -6 -16 -2
-25 5 -15 17 -16 87 -10 97 9 99 7 99 -84 l0 -64 -62 -71 c-35 -40 -83 -97
-108 -129 -25 -31 -51 -56 -58 -57 -7 0 -67 55 -135 123 l-122 122 0 75 0 75
93 3 c97 3 119 14 92 47 -12 15 -101 18 -190 8z m30 -439 c0 -75 -4 -134 -9
-134 -19 0 -35 139 -26 225 6 54 10 63 21 54 11 -9 14 -44 14 -145z m465 125
c7 -31 -1 -207 -11 -241 -3 -10 -10 -18 -15 -18 -10 0 -13 273 -2 283 13 14
22 6 28 -24z m-378 -71 c22 -20 23 -29 23 -142 0 -129 -7 -196 -21 -196 -5 0
-16 12 -26 27 -13 19 -19 53 -21 125 -4 98 4 208 16 208 3 0 16 -10 29 -22z
m312 -204 c1 -89 -2 -114 -14 -124 -9 -7 -18 -10 -22 -6 -4 3 -9 79 -11 168
-4 150 -3 162 14 175 18 13 19 11 25 -44 4 -32 7 -108 8 -169z m-89 -37 c0
-161 0 -164 -25 -187 -34 -32 -37 -20 -33 158 3 131 5 153 22 171 11 12 23 21
28 21 4 0 8 -73 8 -163z m-122 141 c12 -12 18 -338 6 -338 -3 0 -14 5 -25 10
-18 10 -19 23 -19 175 0 168 5 186 38 153z"/>
</g>
</svg>
