<?xml version="1.0" standalone="no"?>
<!DOCTYPE svg PUBLIC "-//W3C//DTD SVG 20010904//EN"
 "http://www.w3.org/TR/2001/REC-SVG-20010904/DTD/svg10.dtd">
<svg version="1.0" xmlns="http://www.w3.org/2000/svg"
 width="396.000000pt" height="590.000000pt" viewBox="0 0 396.000000 590.000000"
 preserveAspectRatio="xMidYMid meet">
<metadata>
Created by potrace 1.16, written by Peter Selinger 2001-2019
</metadata>
<g transform="translate(0.000000,590.000000) scale(0.500000,-0.500000)"
fill="#000000" stroke="none">
<path d="M575 1128 c-6 -2 -19 -3 -53 -4 -56 -1 -56 -1 -56 -26 0 -27 38 -40
72 -24 10 5 113 10 128 6 10 -3 10 1 10 -102 l0 -91 -9 -9 c-5 -5 -9 -11 -9
-12 0 -1 -3 -4 -7 -6 -4 -2 -11 -10 -15 -16 -5 -6 -15 -18 -23 -26 -8 -8 -15
-17 -16 -20 -1 -3 -11 -15 -22 -26 -12 -12 -21 -23 -21 -25 0 -2 -8 -12 -19
-23 -10 -10 -20 -22 -22 -26 -2 -4 -11 -15 -20 -25 -9 -10 -18 -21 -20 -25 -2
-4 -14 -18 -25 -31 -12 -12 -23 -26 -25 -30 -4 -7 -9 -10 -14 -8 -6 2 -228
227 -232 235 -5 10 -34 39 -47 48 -27 19 -26 12 -25 117 2 108 -15 94 110 92
123 -1 117 -3 117 29 0 26 7 25 -140 23 -122 -1 -127 -1 -131 -5 -4 -4 -4 -7
-4 -306 0 -165 -1 -305 -1 -309 -1 -15 3 -31 21 -82 2 -5 5 -15 6 -21 1 -5 4
-11 5 -13 1 -1 2 -6 3 -10 2 -11 11 -26 20 -33 5 -3 10 -8 11 -10 5 -11 28
-43 32 -47 2 -2 6 -7 8 -12 2 -4 9 -13 15 -19 6 -7 11 -13 11 -15 0 -4 11 -16
18 -19 3 -1 6 -4 7 -6 1 -2 7 -10 13 -17 6 -6 13 -15 15 -19 4 -7 12 -16 16
-16 2 0 9 -5 17 -12 8 -7 15 -12 16 -12 1 0 10 -8 21 -18 10 -9 21 -19 25 -21
4 -2 16 -12 26 -22 16 -15 22 -19 28 -21 5 -1 12 -4 16 -5 12 -5 22 -3 26 4 2
5 5 8 10 9 4 1 11 6 16 11 5 5 14 12 20 16 6 3 17 13 24 20 7 7 16 15 20 17 7
4 20 16 20 20 0 1 3 4 8 6 17 9 92 86 92 95 0 3 4 9 9 15 30 36 31 37 31 48 0
9 1 11 12 28 2 3 4 7 4 10 0 2 2 8 4 12 2 4 4 12 4 16 0 5 2 13 4 18 2 5 4 10
4 13 0 2 2 7 4 11 2 4 4 12 5 18 0 6 2 14 4 18 3 5 3 17 3 84 0 44 1 189 2
323 3 254 3 257 -5 262 -7 4 -141 6 -152 1z m-456 -332 c9 -8 13 -16 13 -24 0
-3 2 -11 5 -17 5 -12 7 -326 1 -331 -4 -5 -10 3 -11 15 -1 6 -3 14 -5 19 -2 5
-7 21 -12 35 l-8 26 0 139 c1 157 0 152 17 138z m558 3 c1 -2 2 -70 3 -151 l0
-147 -9 -29 c-23 -68 -26 -51 -24 136 1 106 1 110 -3 122 -9 28 -9 30 4 45 4
5 8 10 8 11 0 9 18 19 21 13z m-451 -109 c31 -29 46 -44 47 -51 2 -7 0 -29 -4
-38 -2 -7 -3 -26 -3 -174 0 -110 -1 -167 -2 -169 -5 -9 -17 -2 -21 12 -2 7 -4
10 -11 15 -4 3 -11 9 -13 14 -3 4 -8 11 -11 15 -3 4 -6 10 -7 13 -1 3 -5 12
-8 20 -8 14 -8 17 -3 34 1 5 2 60 2 166 0 193 -4 178 34 143z m370 13 c2 -3 3
-32 4 -159 0 -155 0 -155 7 -168 3 -7 5 -15 5 -18 0 -3 0 -12 -1 -21 0 -18 -4
-31 -13 -41 -3 -4 -7 -10 -9 -13 -3 -8 -22 -25 -26 -25 -7 0 -7 10 -7 189 0
176 0 179 -4 191 -5 13 -4 21 2 27 2 2 7 9 11 15 12 19 26 29 31 23z m-92
-113 c3 -5 3 -377 0 -389 -4 -19 -62 -67 -68 -57 -3 5 -4 101 -4 238 1 156 -1
143 29 174 9 9 18 21 21 25 6 13 18 17 22 9z m-174 -8 c1 -3 13 -15 25 -28 12
-13 24 -25 25 -27 3 -6 3 -367 0 -377 -3 -10 -5 -10 -15 -1 -4 3 -12 9 -17 11
-5 3 -14 11 -21 18 l-11 11 0 194 c0 168 1 195 3 198 4 6 6 6 11 1z"/>
</g>
</svg>
