<?xml version="1.0" standalone="no"?>
<!DOCTYPE svg PUBLIC "-//W3C//DTD SVG 20010904//EN"
 "http://www.w3.org/TR/2001/REC-SVG-20010904/DTD/svg10.dtd">
<svg version="1.0" xmlns="http://www.w3.org/2000/svg"
 width="93.000000pt" height="100.000000pt" viewBox="0 0 93.000000 100.000000"
 preserveAspectRatio="xMidYMid meet">
<metadata>
Created by potrace 1.16, written by Peter Selinger 2001-2019
</metadata>
<g transform="translate(0.000000,100.000000) scale(0.100000,-0.100000)"
fill="#000000" stroke="none">
<path d="M438 968 l-3 -33 -215 -5 -215 -5 -3 -123 c-2 -114 -1 -123 15 -120
15 3 18 16 21 94 l3 91 137 5 c75 3 265 3 422 -1 l285 -6 0 -90 c0 -86 1 -90
23 -93 l23 -3 -3 123 -3 123 -215 3 c-225 3 -230 3 -230 50 0 15 -6 22 -19 22
-15 0 -21 -8 -23 -32z"/>
<path d="M181 787 c-5 -13 -7 -114 -4 -228 l5 -204 36 -55 c65 -101 133 -163
229 -208 80 -37 297 -102 307 -91 2 2 6 180 8 396 2 272 0 395 -8 403 -21 21
-44 0 -44 -41 l0 -40 -112 3 -113 3 -5 40 c-6 50 -31 54 -41 7 -4 -19 -11 -38
-16 -43 -6 -6 -50 -9 -99 -7 l-89 3 -5 40 c-6 48 -35 61 -49 22z m529 -422 c0
-244 -2 -297 -14 -301 -18 -7 -207 67 -276 108 -35 21 -76 60 -116 110 l-61
76 -7 134 c-4 73 -4 141 -1 151 7 15 28 17 241 17 l234 0 0 -295z"/>
</g>
</svg>
