<?xml version="1.0" standalone="no"?>
<!DOCTYPE svg PUBLIC "-//W3C//DTD SVG 20010904//EN"
 "http://www.w3.org/TR/2001/REC-SVG-20010904/DTD/svg10.dtd">
<svg version="1.0" xmlns="http://www.w3.org/2000/svg"
 width="552.000000pt" height="590.000000pt" viewBox="0 0 552.000000 590.000000"
 preserveAspectRatio="xMidYMid meet">
<metadata>
Created by potrace 1.16, written by Peter Selinger 2001-2019
</metadata>
<g transform="translate(0.000000,590.000000) scale(0.500000,-0.500000)"
fill="#000000" stroke="none">
<path d="M531 1176 c0 -3 -2 -9 -4 -13 -2 -6 -3 -16 -3 -35 0 -40 22 -35 -159
-34 -85 0 -201 0 -259 -1 l-106 -2 0 -141 0 -142 21 0 c33 2 30 -10 28 112 -1
96 0 115 5 116 10 2 993 1 995 -1 4 -5 6 -19 3 -32 -2 -7 -3 -16 -2 -22 0 -5
1 -43 2 -84 1 -62 2 -75 4 -78 6 -7 18 -11 34 -11 l14 0 0 141 0 140 -12 5
c-11 4 -12 4 -24 2 -22 -5 -484 -4 -487 1 -2 3 -3 12 -3 31 0 19 -1 29 -3 35
-2 4 -4 10 -4 13 -1 4 -2 4 -20 4 -18 0 -19 0 -20 -4z"/>
<path d="M216 943 c-3 -5 -3 -12 -5 -249 -1 -273 -2 -255 12 -276 4 -6 9 -15
11 -21 2 -6 6 -14 9 -18 4 -4 10 -13 13 -19 9 -16 27 -38 34 -43 4 -2 8 -9 11
-16 4 -11 10 -18 30 -39 14 -14 28 -30 32 -34 9 -13 19 -24 29 -31 5 -3 15
-12 23 -19 17 -16 36 -29 51 -34 7 -2 20 -9 31 -16 10 -7 19 -12 20 -12 2 0
47 -19 56 -24 10 -6 39 -18 52 -21 6 -2 18 -6 27 -10 19 -8 43 -14 76 -22 13
-4 25 -8 30 -11 7 -4 15 -6 53 -12 13 -2 35 -10 37 -14 0 -1 11 -2 29 -2 l28
0 2 9 c2 16 4 467 2 698 -2 271 2 241 -31 241 -31 0 -30 1 -30 -48 0 -55 19
-48 -137 -48 -158 0 -139 -7 -139 47 0 48 0 49 -25 49 -20 0 -23 -4 -23 -25 0
-8 -1 -19 -3 -24 -2 -6 -3 -15 -3 -22 0 -27 8 -25 -123 -25 -131 0 -120 -6
-122 65 -2 30 -39 48 -57 26z m630 -164 c8 -1 9 -8 5 -19 -4 -9 -4 -27 -4
-347 0 -186 -1 -339 -1 -340 0 -9 -26 -4 -73 13 -8 3 -18 6 -20 6 -3 0 -13 3
-23 6 -10 3 -19 6 -21 6 -1 0 -7 2 -12 5 -6 3 -15 7 -21 8 -5 2 -15 5 -21 8
-11 6 -33 16 -48 21 -6 2 -16 6 -22 10 -7 3 -17 7 -22 9 -20 7 -76 36 -85 44
-2 2 -13 10 -24 17 -14 10 -21 16 -30 27 -5 8 -15 19 -21 25 -6 6 -16 19 -22
28 -6 9 -13 19 -16 22 -2 3 -9 12 -15 20 -5 8 -13 18 -17 22 -23 20 -44 52
-47 70 -1 6 -3 13 -4 16 -1 3 -2 70 -3 162 -2 168 -2 160 8 162 6 1 553 0 559
-1z"/>
</g>
</svg>
