<?xml version="1.0" standalone="no"?>
<!DOCTYPE svg PUBLIC "-//W3C//DTD SVG 20010904//EN"
 "http://www.w3.org/TR/2001/REC-SVG-20010904/DTD/svg10.dtd">
<svg version="1.0" xmlns="http://www.w3.org/2000/svg"
 width="138.000000pt" height="148.000000pt" viewBox="0 0 138.000000 148.000000"
 preserveAspectRatio="xMidYMid meet">
<metadata>
Created by potrace 1.16, written by Peter Selinger 2001-2019
</metadata>
<g transform="translate(0.000000,148.000000) scale(0.100000,-0.100000)"
fill="#000000" stroke="none">
<path d="M656 1458 c-3 -13 -6 -40 -6 -60 l0 -38 -325 0 -325 0 0 -176 0 -175
27 3 28 3 0 140 0 140 630 0 630 0 -2 -135 c-3 -142 0 -150 45 -150 22 0 22 0
22 175 0 133 -3 175 -12 176 -7 0 -155 0 -329 -1 -285 -1 -317 0 -323 15 -3 9
-3 21 0 27 3 5 3 25 0 44 -6 27 -12 34 -30 34 -16 0 -26 -7 -30 -22z"/>
<path d="M273 1183 c-10 -4 -13 -76 -13 -315 0 -354 -5 -332 93 -463 98 -132
178 -203 288 -257 146 -71 312 -125 452 -145 l37 -5 0 591 0 591 -26 6 c-36 9
-49 -9 -49 -69 l0 -52 -172 -3 -173 -2 0 59 c0 51 -3 61 -20 66 -30 10 -40 -2
-40 -50 0 -78 6 -75 -161 -75 l-149 0 -1 33 c-2 33 -4 62 -7 85 -2 12 -35 15
-59 5z m787 -653 c0 -244 -4 -448 -8 -451 -8 -8 -191 50 -259 81 -24 11 -45
20 -48 20 -3 0 -40 16 -82 36 -51 25 -94 55 -132 93 -71 72 -162 191 -178 233
-8 21 -12 105 -12 236 l-1 202 361 -2 360 -3 -1 -445z"/>
</g>
</svg>
