<?xml version="1.0" standalone="no"?>
<!DOCTYPE svg PUBLIC "-//W3C//DTD SVG 20010904//EN"
 "http://www.w3.org/TR/2001/REC-SVG-20010904/DTD/svg10.dtd">
<svg version="1.0" xmlns="http://www.w3.org/2000/svg"
 width="73.000000pt" height="100.000000pt" viewBox="0 0 73.000000 100.000000"
 preserveAspectRatio="xMidYMid meet">
<metadata>
Created by potrace 1.16, written by Peter Selinger 2001-2019
</metadata>
<g transform="translate(0.000000,100.000000) scale(0.100000,-0.100000)"
fill="#000000" stroke="none">
<path d="M95 951 l-50 -6 -3 -264 c-2 -215 0 -273 13 -311 21 -62 137 -204
220 -268 72 -55 101 -68 138 -58 33 8 114 79 168 147 77 95 86 138 94 445 3
142 2 273 -3 289 l-8 30 -106 3 c-92 2 -106 0 -112 -14 -11 -29 12 -39 92 -39
l77 0 0 -245 c0 -249 -12 -357 -42 -382 -9 -7 -35 7 -98 57 -65 50 -91 66
-108 61 -12 -3 -55 -35 -94 -71 -40 -37 -76 -64 -81 -61 -21 13 -82 116 -92
156 -7 28 -10 127 -8 260 l3 215 90 5 c88 5 90 6 90 30 0 24 -3 25 -65 26 -36
1 -87 -2 -115 -5z m383 -683 c29 -22 52 -45 50 -52 -3 -14 -126 -126 -138
-126 -18 0 -159 121 -154 132 3 7 35 37 71 66 75 59 60 61 171 -20z"/>
</g>
</svg>
