<?xml version="1.0" standalone="no"?>
<!DOCTYPE svg PUBLIC "-//W3C//DTD SVG 20010904//EN"
 "http://www.w3.org/TR/2001/REC-SVG-20010904/DTD/svg10.dtd">
<svg version="1.0" xmlns="http://www.w3.org/2000/svg"
 width="108.000000pt" height="148.000000pt" viewBox="0 0 108.000000 148.000000"
 preserveAspectRatio="xMidYMid meet">
<metadata>
Created by potrace 1.16, written by Peter Selinger 2001-2019
</metadata>
<g transform="translate(0.000000,148.000000) scale(0.100000,-0.100000)"
fill="#000000" stroke="none">
<path d="M814 1413 c-128 -3 -142 -5 -147 -22 -10 -40 5 -44 137 -42 l127 2
-4 -343 c-2 -195 -9 -365 -15 -393 -18 -82 -32 -149 -36 -173 -2 -13 -12 -33
-23 -44 -20 -19 -20 -19 -49 5 -16 13 -78 61 -137 106 -87 66 -113 81 -128 75
-10 -5 -68 -55 -128 -112 -60 -56 -114 -102 -119 -102 -6 0 -21 17 -33 38 -12
20 -37 53 -55 73 -20 23 -42 67 -58 117 -26 81 -26 83 -26 406 0 235 3 327 12
332 6 4 69 6 140 5 l128 -2 0 30 0 31 -165 0 -164 0 -3 -387 -3 -388 26 -80
c23 -72 44 -106 102 -166 9 -11 17 -23 17 -28 0 -4 18 -26 40 -47 22 -22 40
-43 40 -47 0 -9 51 -56 62 -57 4 0 20 -12 35 -26 49 -45 57 -51 104 -76 25
-14 55 -32 66 -39 19 -11 28 -8 78 22 63 38 216 180 236 219 6 14 20 31 31 38
10 7 18 21 18 31 0 9 4 21 9 26 5 6 19 46 32 90 22 77 23 98 27 499 3 342 1
420 -10 427 -7 5 -15 8 -18 7 -3 -1 -69 -4 -146 -5z m-124 -994 c117 -88 121
-92 103 -109 -87 -85 -208 -190 -218 -190 -12 0 -211 156 -235 185 -13 16 -9
22 45 69 33 28 80 70 105 93 25 24 52 43 61 43 9 0 71 -41 139 -91z"/>
</g>
</svg>
