<?xml version="1.0" standalone="no"?>
<!DOCTYPE svg PUBLIC "-//W3C//DTD SVG 20010904//EN"
 "http://www.w3.org/TR/2001/REC-SVG-20010904/DTD/svg10.dtd">
<svg version="1.0" xmlns="http://www.w3.org/2000/svg"
 width="84.000000pt" height="148.000000pt" viewBox="0 0 84.000000 148.000000"
 preserveAspectRatio="xMidYMid meet">
<metadata>
Created by potrace 1.16, written by Peter Selinger 2001-2019
</metadata>
<g transform="translate(0.000000,148.000000) scale(0.100000,-0.100000)"
fill="#000000" stroke="none">
<path d="M80 1411 l-25 -7 -3 -673 -2 -674 77 5 c49 3 95 13 123 26 25 11 55
23 68 27 12 4 41 21 65 38 23 18 55 39 70 47 39 20 190 168 209 205 106 205
97 152 98 591 1 278 -1 389 -10 398 -11 11 -230 19 -452 17 -18 -1 -69 1 -113
3 -44 3 -91 1 -105 -3z m165 -75 c14 -10 16 -19 10 -37 -4 -13 -11 -60 -14
-104 l-6 -80 -34 -3 c-19 -2 -45 -1 -58 3 -23 5 -24 7 -21 113 l3 107 35 6
c57 10 65 10 85 -5z m150 -100 c0 -112 -8 -131 -48 -121 -15 4 -27 10 -28 14
0 3 -3 20 -6 36 -6 34 -6 49 3 123 l6 53 37 -3 36 -3 0 -99z m133 -8 l-3 -113
-32 -3 c-43 -4 -55 20 -49 106 2 37 5 79 5 95 1 25 4 27 41 27 l41 0 -3 -112z
m173 12 c7 -115 1 -132 -44 -123 -65 12 -67 15 -67 117 0 51 3 96 7 100 4 4
28 6 53 4 l45 -3 6 -95z m-1 -207 c1 -10 0 -102 0 -205 l-1 -187 -35 -73 c-57
-117 -68 -136 -115 -192 -45 -54 -80 -80 -230 -172 -84 -52 -172 -90 -187 -80
-4 3 -9 212 -11 465 l-3 461 291 0 c270 0 291 -1 291 -17z"/>
</g>
</svg>
