<?xml version="1.0" standalone="no"?>
<!DOCTYPE svg PUBLIC "-//W3C//DTD SVG 20010904//EN"
 "http://www.w3.org/TR/2001/REC-SVG-20010904/DTD/svg10.dtd">
<svg version="1.0" xmlns="http://www.w3.org/2000/svg"
 width="57.000000pt" height="100.000000pt" viewBox="0 0 57.000000 100.000000"
 preserveAspectRatio="xMidYMid meet">
<metadata>
Created by potrace 1.16, written by Peter Selinger 2001-2019
</metadata>
<g transform="translate(0.000000,100.000000) scale(0.100000,-0.100000)"
fill="#000000" stroke="none">
<path d="M43 947 c-12 -18 -15 -879 -4 -896 6 -10 25 -14 57 -12 66 2 170 55
264 134 63 52 82 76 118 145 l42 83 0 268 c0 213 -3 271 -13 280 -20 16 -454
14 -464 -2z m119 -112 c-2 -38 -7 -74 -12 -79 -5 -5 -20 -6 -34 -2 -25 6 -26
10 -26 75 0 37 3 71 7 75 4 4 21 6 38 4 l30 -3 -3 -70z m102 59 c8 -20 8 -98
0 -118 -11 -28 -42 -19 -49 15 -6 28 0 94 11 111 9 14 32 9 38 -8z m85 2 c7
-9 11 -38 9 -73 -3 -54 -5 -58 -28 -58 -23 0 -25 4 -28 46 -3 47 11 99 27 99
4 0 14 -6 20 -14z m105 8 c12 -5 16 -21 16 -75 0 -61 -2 -69 -19 -69 -41 0
-51 11 -51 55 0 48 14 95 29 95 5 0 16 -3 25 -6z m-6 -200 c21 -6 22 -10 22
-136 0 -125 -1 -133 -31 -196 -17 -36 -50 -85 -73 -110 -40 -43 -147 -122
-213 -156 -66 -34 -63 -48 -63 288 0 282 1 305 18 309 26 7 314 8 340 1z"/>
</g>
</svg>
