<?xml version="1.0" standalone="no"?>
<!DOCTYPE svg PUBLIC "-//W3C//DTD SVG 20010904//EN"
 "http://www.w3.org/TR/2001/REC-SVG-20010904/DTD/svg10.dtd">
<svg version="1.0" xmlns="http://www.w3.org/2000/svg"
 width="77.000000pt" height="100.000000pt" viewBox="0 0 77.000000 100.000000"
 preserveAspectRatio="xMidYMid meet">
<metadata>
Created by potrace 1.16, written by Peter Selinger 2001-2019
</metadata>
<g transform="translate(0.000000,100.000000) scale(0.100000,-0.100000)"
fill="#000000" stroke="none">
<path d="M666 952 c-9 -11 -33 -24 -54 -30 -21 -7 -128 -46 -238 -88 -109 -41
-209 -78 -220 -81 -20 -5 -22 1 -34 95 -7 59 -17 103 -24 105 -7 3 -25 3 -40
0 l-28 -6 6 -66 c9 -84 70 -395 97 -486 29 -101 122 -359 132 -366 12 -9 55 1
67 16 8 10 6 24 -9 54 -26 49 -26 70 -3 78 9 3 54 23 99 44 45 22 87 39 92 39
18 0 13 -22 -24 -107 -19 -45 -35 -88 -35 -96 0 -17 21 -27 55 -27 22 0 28 12
75 157 69 215 115 407 145 598 22 148 23 161 8 173 -24 17 -47 15 -67 -6z m-7
-94 c0 -13 -5 -38 -12 -57 -11 -31 -19 -36 -117 -70 -58 -21 -161 -61 -228
-90 -82 -35 -127 -50 -134 -43 -5 5 -10 31 -11 57 l-2 47 135 47 c74 27 180
66 235 88 119 49 135 51 134 21z m-29 -166 c0 -10 -7 -41 -15 -69 l-15 -50
-77 -28 c-42 -15 -128 -49 -192 -76 -101 -43 -117 -47 -127 -34 -15 20 -27 96
-17 105 4 4 37 17 73 29 36 12 126 48 200 80 148 65 170 70 170 43z m-41 -189
c0 -10 -8 -43 -17 -73 l-17 -55 -139 -68 c-77 -37 -145 -66 -151 -63 -13 4
-47 114 -40 126 2 4 34 17 70 29 37 13 115 44 173 71 124 56 122 55 121 33z"/>
</g>
</svg>
