<?xml version="1.0" standalone="no"?>
<!DOCTYPE svg PUBLIC "-//W3C//DTD SVG 20010904//EN"
 "http://www.w3.org/TR/2001/REC-SVG-20010904/DTD/svg10.dtd">
<svg version="1.0" xmlns="http://www.w3.org/2000/svg"
 width="114.000000pt" height="148.000000pt" viewBox="0 0 114.000000 148.000000"
 preserveAspectRatio="xMidYMid meet">
<metadata>
Created by potrace 1.16, written by Peter Selinger 2001-2019
</metadata>
<g transform="translate(0.000000,148.000000) scale(0.100000,-0.100000)"
fill="#000000" stroke="none">
<path d="M991 1407 c-7 -19 -29 -31 -103 -56 -51 -18 -118 -41 -148 -52 -30
-12 -77 -29 -105 -39 -83 -30 -204 -76 -318 -120 -61 -24 -112 -39 -116 -34
-4 5 -16 72 -26 149 -10 77 -21 143 -25 148 -3 4 -31 4 -61 -1 -38 -5 -54 -12
-53 -22 1 -8 18 -112 38 -230 67 -392 127 -632 221 -875 26 -66 55 -145 66
-175 11 -29 24 -57 30 -61 10 -6 109 36 109 46 0 3 -16 37 -36 77 -41 82 -41
83 51 118 33 13 104 45 157 72 53 26 99 44 102 40 3 -5 -21 -76 -54 -158 -36
-91 -55 -153 -49 -158 5 -6 29 -18 54 -27 l46 -17 10 26 c54 140 166 500 194
618 30 130 63 299 89 459 14 88 31 184 37 214 6 29 7 57 2 61 -4 4 -29 11 -56
14 -43 7 -48 5 -56 -17z m-17 -123 c-1 -16 -5 -54 -10 -84 -7 -43 -14 -57 -34
-67 -14 -7 -151 -62 -305 -124 -154 -61 -301 -120 -327 -132 -26 -11 -51 -18
-54 -14 -13 12 -33 162 -23 172 5 5 69 30 142 56 72 26 157 56 187 67 30 12
91 34 135 51 44 16 109 40 145 53 36 14 79 31 95 40 40 21 50 17 49 -18z m-57
-333 l-22 -104 -235 -93 c-129 -51 -261 -105 -292 -120 -32 -15 -60 -25 -63
-22 -7 7 -45 156 -45 176 0 7 8 15 18 18 54 19 536 212 587 236 32 15 63 24
67 20 4 -4 -2 -54 -15 -111z m-44 -224 c-6 -17 -19 -62 -28 -99 -10 -37 -25
-73 -34 -81 -9 -7 -70 -37 -136 -67 -66 -29 -155 -71 -199 -92 -53 -27 -82
-36 -89 -29 -15 15 -67 185 -59 192 4 4 52 24 107 44 107 40 358 145 403 169
36 19 49 6 35 -37z"/>
</g>
</svg>
