<?xml version="1.0" standalone="no"?>
<!DOCTYPE svg PUBLIC "-//W3C//DTD SVG 20010904//EN"
 "http://www.w3.org/TR/2001/REC-SVG-20010904/DTD/svg10.dtd">
<svg version="1.0" xmlns="http://www.w3.org/2000/svg"
 width="770.000000pt" height="1002.000000pt" viewBox="0 0 770.000000 1002.000000"
 preserveAspectRatio="xMidYMid meet">
<metadata>
Created by potrace 1.16, written by Peter Selinger 2001-2019
</metadata>
<g transform="translate(0.000000,1002.000000) scale(0.500000,-0.500000)"
fill="#000000" stroke="none">
<path d="M1357 1942 c-4 -2 -7 -9 -9 -27 -5 -36 5 -30 -97 -66 -77 -27 -224
-80 -394 -143 -42 -15 -105 -38 -140 -51 -126 -46 -277 -103 -338 -127 -34
-14 -69 -27 -77 -31 -19 -7 -25 -6 -28 3 -3 9 -49 317 -58 382 -5 36 -1 35
-69 24 -29 -4 -60 -10 -70 -11 -29 -5 -28 -1 -16 -66 5 -26 15 -84 22 -129
117 -717 182 -973 363 -1432 15 -39 40 -102 55 -140 35 -88 26 -82 82 -59 19
8 45 19 59 24 45 17 44 12 10 90 -73 162 -70 148 -31 164 117 49 227 99 358
162 85 40 83 42 45 -61 -61 -166 -79 -215 -99 -267 -32 -83 -35 -73 31 -96 20
-7 48 -16 61 -21 28 -10 33 -10 38 1 16 38 140 405 182 541 46 146 81 280 116
441 40 182 81 401 118 643 15 99 18 118 29 177 10 57 12 53 -30 60 -12 2 -40
6 -63 10 -46 8 -47 8 -50 5z m-31 -154 c5 -6 -31 -233 -39 -241 -3 -3 -23 -12
-60 -26 -104 -39 -145 -55 -409 -160 -283 -114 -312 -126 -409 -167 -80 -35
-71 -39 -86 40 -6 31 -15 82 -21 112 -6 33 -10 58 -9 61 2 7 4 8 68 30 82 27
136 47 267 95 30 11 69 26 87 32 18 6 44 16 59 22 15 5 72 26 126 46 134 49
262 97 325 122 102 40 96 38 101 34z m-55 -341 c2 -8 -21 -134 -50 -274 -5
-20 -7 -22 -32 -32 -98 -37 -240 -94 -337 -133 -19 -8 -64 -26 -99 -40 -124
-51 -206 -85 -279 -118 -58 -25 -57 -25 -64 3 -14 53 -51 209 -53 222 -2 13 0
15 62 38 163 60 621 244 791 318 53 22 59 24 61 16z m-79 -395 c3 -6 2 -8 -21
-101 -42 -162 -51 -193 -57 -199 -7 -7 -170 -84 -319 -151 -85 -38 -135 -61
-187 -86 -78 -39 -76 -38 -85 -18 -5 10 -71 212 -78 236 -6 22 -9 19 62 46
119 44 454 181 603 246 79 34 78 34 82 27z"/>
</g>
</svg>
