<?xml version="1.0" standalone="no"?>
<!DOCTYPE svg PUBLIC "-//W3C//DTD SVG 20010904//EN"
 "http://www.w3.org/TR/2001/REC-SVG-20010904/DTD/svg10.dtd">
<svg version="1.0" xmlns="http://www.w3.org/2000/svg"
 width="500.000000pt" height="1002.000000pt" viewBox="0 0 500.000000 1002.000000"
 preserveAspectRatio="xMidYMid meet">
<metadata>
Created by potrace 1.16, written by Peter Selinger 2001-2019
</metadata>
<g transform="translate(0.000000,1002.000000) scale(0.500000,-0.500000)"
fill="#000000" stroke="none">
<path d="M762 1926 c-35 -2 -32 11 -27 -126 1 -43 4 -114 5 -156 1 -42 3 -105
4 -139 1 -34 3 -94 4 -133 2 -73 5 -156 8 -225 2 -51 5 -43 -46 -107 -74 -94
-122 -155 -162 -208 -62 -82 -50 -81 -105 -10 -46 59 -79 100 -152 189 -77 95
-70 74 -65 175 1 24 3 70 4 104 1 34 3 86 4 116 3 75 6 499 4 507 -3 10 -6 10
-55 9 -58 -1 -51 26 -50 -175 2 -194 -1 -336 -9 -517 -25 -549 24 -733 276
-1031 98 -116 93 -116 166 -14 22 31 46 63 53 72 96 114 129 173 173 304 3 10
10 31 16 47 23 66 42 159 50 242 5 62 6 81 7 158 2 96 0 174 -9 338 -8 151
-15 389 -17 532 0 56 6 52 -77 48z m0 -973 c0 -208 -64 -397 -204 -606 -38
-56 -37 -58 -33 97 2 61 3 142 3 180 0 86 -6 70 59 154 31 39 78 101 107 139
70 93 68 92 68 36z m-522 23 c5 -6 30 -38 55 -70 25 -32 73 -92 105 -133 33
-41 61 -76 62 -79 3 -5 5 -391 2 -399 -5 -13 -19 1 -71 73 -119 168 -171 338
-171 565 0 60 1 63 18 43z"/>
</g>
</svg>
