<?xml version="1.0" standalone="no"?>
<!DOCTYPE svg PUBLIC "-//W3C//DTD SVG 20010904//EN"
 "http://www.w3.org/TR/2001/REC-SVG-20010904/DTD/svg10.dtd">
<svg version="1.0" xmlns="http://www.w3.org/2000/svg"
 width="49.000000pt" height="100.000000pt" viewBox="0 0 49.000000 100.000000"
 preserveAspectRatio="xMidYMid meet">
<metadata>
Created by potrace 1.16, written by Peter Selinger 2001-2019
</metadata>
<g transform="translate(0.000000,100.000000) scale(0.100000,-0.100000)"
fill="#000000" stroke="none">
<path d="M356 963 c-4 -4 -4 -100 0 -213 l7 -205 -58 -70 c-32 -38 -61 -71
-65 -73 -4 -2 -34 31 -67 72 l-60 75 5 205 5 206 -31 0 c-30 0 -30 0 -38 -67
-4 -38 -4 -178 -1 -313 8 -291 16 -324 104 -440 56 -74 71 -90 86 -90 4 0 34
36 67 80 44 60 66 102 85 161 24 78 25 88 25 368 0 210 -3 290 -12 299 -13 13
-41 16 -52 5z m14 -527 c0 -30 -44 -165 -70 -217 -11 -21 -27 -39 -35 -39 -12
0 -14 11 -10 58 10 100 14 111 55 173 41 60 60 68 60 25z m-211 -13 c17 -21
37 -51 45 -68 17 -35 26 -178 11 -185 -26 -14 -105 178 -105 256 0 44 11 43
49 -3z"/>
</g>
</svg>
