<?xml version="1.0" standalone="no"?>
<!DOCTYPE svg PUBLIC "-//W3C//DTD SVG 20010904//EN"
 "http://www.w3.org/TR/2001/REC-SVG-20010904/DTD/svg10.dtd">
<svg version="1.0" xmlns="http://www.w3.org/2000/svg"
 width="84.000000pt" height="148.000000pt" viewBox="0 0 84.000000 148.000000"
 preserveAspectRatio="xMidYMid meet">
<metadata>
Created by potrace 1.16, written by Peter Selinger 2001-2019
</metadata>
<g transform="translate(0.000000,148.000000) scale(0.100000,-0.100000)"
fill="#000000" stroke="none">
<path d="M125 1360 c-19 -21 -21 -42 -29 -435 -4 -177 47 -281 190 -389 57
-42 180 -195 310 -383 35 -52 47 -57 84 -38 36 18 47 50 26 71 -9 8 -46 55
-83 102 -37 48 -91 117 -120 154 -29 37 -53 69 -53 72 0 9 58 36 77 36 23 0
113 94 150 158 l28 47 3 287 c2 196 0 293 -8 307 -13 25 -42 27 -64 5 -14 -13
-16 -53 -16 -277 0 -213 -3 -267 -15 -291 -8 -15 -15 -35 -15 -43 0 -7 -21
-36 -46 -63 -108 -116 -235 -88 -320 70 -33 61 -40 152 -33 385 6 177 5 220
-6 231 -19 20 -39 17 -60 -6z"/>
</g>
</svg>
