<?xml version="1.0" standalone="no"?>
<!DOCTYPE svg PUBLIC "-//W3C//DTD SVG 20010904//EN"
 "http://www.w3.org/TR/2001/REC-SVG-20010904/DTD/svg10.dtd">
<svg version="1.0" xmlns="http://www.w3.org/2000/svg"
 width="57.000000pt" height="100.000000pt" viewBox="0 0 57.000000 100.000000"
 preserveAspectRatio="xMidYMid meet">
<metadata>
Created by potrace 1.16, written by Peter Selinger 2001-2019
</metadata>
<g transform="translate(0.000000,100.000000) scale(0.100000,-0.100000)"
fill="#000000" stroke="none">
<path d="M80 921 c-15 -28 -13 -373 2 -424 12 -40 42 -75 139 -162 24 -22 80
-91 123 -153 82 -115 106 -133 136 -97 17 21 12 31 -85 150 -72 87 -85 108
-75 120 7 8 21 15 31 15 27 0 107 87 120 129 6 21 9 117 7 231 l-3 195 -25 0
-25 0 -5 -195 c-5 -214 -10 -233 -70 -284 -60 -50 -140 -28 -187 52 -28 47
-28 48 -28 232 0 102 -4 191 -8 198 -12 18 -35 15 -47 -7z"/>
</g>
</svg>
