<?xml version="1.0" standalone="no"?>
<!DOCTYPE svg PUBLIC "-//W3C//DTD SVG 20010904//EN"
 "http://www.w3.org/TR/2001/REC-SVG-20010904/DTD/svg10.dtd">
<svg version="1.0" xmlns="http://www.w3.org/2000/svg"
 width="336.000000pt" height="590.000000pt" viewBox="0 0 336.000000 590.000000"
 preserveAspectRatio="xMidYMid meet">
<metadata>
Created by potrace 1.16, written by Peter Selinger 2001-2019
</metadata>
<g transform="translate(0.000000,590.000000) scale(0.500000,-0.500000)"
fill="#000000" stroke="none">
<path d="M111 1100 c-17 -10 -21 -20 -21 -45 0 -12 -1 -21 -3 -26 -3 -6 -3
-22 -3 -106 0 -84 0 -100 -3 -106 -3 -6 -3 -65 -1 -125 0 -4 0 -13 -1 -19 -1
-10 -1 -15 2 -20 1 -5 3 -12 4 -17 1 -5 4 -17 7 -26 3 -9 7 -21 9 -26 1 -5 3
-11 5 -13 1 -3 2 -6 2 -8 0 -11 13 -30 33 -51 11 -12 22 -25 25 -29 6 -12 31
-33 52 -44 4 -2 13 -10 21 -17 9 -8 16 -14 17 -14 1 0 5 -4 11 -8 5 -5 12 -12
17 -16 5 -4 10 -10 12 -15 3 -4 8 -12 13 -17 5 -5 10 -12 12 -16 2 -4 7 -11
12 -16 5 -5 10 -12 12 -16 2 -4 7 -11 12 -16 5 -5 10 -12 12 -16 2 -3 8 -11
13 -17 6 -6 10 -12 10 -14 0 -1 4 -7 10 -14 5 -6 11 -15 14 -19 3 -5 9 -13 12
-17 14 -18 25 -34 31 -43 3 -5 8 -12 12 -16 3 -4 9 -11 11 -16 23 -39 53 -42
84 -9 18 19 18 30 -1 49 -6 6 -11 13 -11 14 0 1 -4 7 -10 13 -5 5 -12 14 -15
19 -3 5 -10 14 -16 20 -6 5 -13 14 -15 18 -2 4 -6 9 -9 12 -3 3 -9 10 -13 16
-3 6 -11 15 -15 20 -5 6 -9 11 -9 12 0 1 -5 8 -12 16 -7 8 -12 15 -12 16 0 1
-7 9 -15 18 -8 8 -16 18 -18 22 -2 3 -8 11 -13 17 -14 15 -15 22 -5 30 15 13
31 20 42 18 14 -2 13 -3 29 13 8 8 15 14 16 14 1 0 5 5 9 12 4 7 9 12 14 14
10 5 21 16 25 25 3 4 9 12 14 18 12 12 36 60 36 70 0 4 2 11 4 17 6 15 7 446
0 460 -9 21 -38 24 -58 5 l-11 -11 0 -22 c0 -13 0 -106 1 -207 0 -204 1 -199
-15 -220 -3 -4 -6 -11 -7 -19 -3 -23 -63 -95 -85 -100 -4 -1 -13 -4 -20 -6
-10 -3 -18 -4 -45 -4 l-34 0 -25 13 c-29 15 -37 22 -44 35 -3 5 -7 12 -11 15
-4 3 -10 13 -14 22 -5 9 -11 19 -13 22 -13 15 -23 41 -23 61 0 12 -1 21 -3 26
-3 7 -8 40 -7 56 0 5 1 62 2 127 2 108 2 119 6 129 7 21 7 76 -1 85 -13 17
-34 22 -48 13z"/>
</g>
</svg>
