<?xml version="1.0" standalone="no"?>
<!DOCTYPE svg PUBLIC "-//W3C//DTD SVG 20010904//EN"
 "http://www.w3.org/TR/2001/REC-SVG-20010904/DTD/svg10.dtd">
<svg version="1.0" xmlns="http://www.w3.org/2000/svg"
 width="78.000000pt" height="148.000000pt" viewBox="0 0 78.000000 148.000000"
 preserveAspectRatio="xMidYMid meet">
<metadata>
Created by potrace 1.16, written by Peter Selinger 2001-2019
</metadata>
<g transform="translate(0.000000,148.000000) scale(0.100000,-0.100000)"
fill="#000000" stroke="none">
<path d="M68 1401 c-10 -14 -12 -84 -8 -337 l5 -319 28 -47 c32 -55 143 -170
160 -166 17 4 77 -23 77 -34 0 -5 -24 -39 -53 -76 -160 -202 -227 -292 -227
-305 0 -16 55 -67 71 -67 5 0 24 21 42 46 17 26 88 121 157 212 93 123 142
179 191 217 109 84 146 131 174 224 24 80 24 89 19 309 -7 308 -9 329 -24 346
-7 9 -23 16 -35 16 -40 0 -48 -22 -41 -112 7 -100 9 -418 2 -470 -6 -43 -14
-61 -63 -135 -51 -78 -87 -96 -178 -91 -74 3 -75 4 -125 53 -27 27 -53 58 -56
70 -3 11 -13 36 -21 55 -14 30 -16 77 -14 316 l2 282 -23 16 c-29 21 -44 20
-60 -3z"/>
</g>
</svg>
