<?xml version="1.0" standalone="no"?>
<!DOCTYPE svg PUBLIC "-//W3C//DTD SVG 20010904//EN"
 "http://www.w3.org/TR/2001/REC-SVG-20010904/DTD/svg10.dtd">
<svg version="1.0" xmlns="http://www.w3.org/2000/svg"
 width="312.000000pt" height="590.000000pt" viewBox="0 0 312.000000 590.000000"
 preserveAspectRatio="xMidYMid meet">
<metadata>
Created by potrace 1.16, written by Peter Selinger 2001-2019
</metadata>
<g transform="translate(0.000000,590.000000) scale(0.500000,-0.500000)"
fill="#000000" stroke="none">
<path d="M505 1137 c-3 -1 -10 -7 -14 -12 l-9 -9 0 -37 c0 -33 0 -37 4 -46 5
-10 5 -12 5 -134 1 -107 2 -125 4 -133 3 -9 3 -10 0 -18 -2 -5 -3 -14 -3 -23
0 -10 -1 -18 -4 -25 -3 -8 -4 -15 -4 -30 0 -22 -10 -48 -25 -67 -4 -4 -10 -15
-14 -23 -3 -8 -10 -18 -13 -21 -4 -3 -10 -12 -14 -19 -10 -17 -14 -20 -47 -37
l-26 -14 -38 0 c-35 0 -39 1 -49 5 -5 2 -13 4 -16 4 -22 0 -96 85 -96 111 0 7
-2 10 -8 19 -4 6 -8 13 -8 15 0 2 -2 8 -4 13 -4 9 -4 10 -4 230 1 221 1 221
-5 229 -17 22 -52 23 -63 2 -7 -13 -9 -482 -2 -494 2 -3 4 -11 5 -18 2 -16 26
-64 39 -78 5 -5 11 -14 14 -18 4 -10 15 -19 26 -25 6 -3 10 -7 14 -15 4 -7 10
-14 18 -20 6 -4 12 -9 13 -11 8 -13 12 -15 24 -13 16 4 57 -16 57 -27 0 -6 -8
-19 -16 -27 -5 -4 -10 -12 -12 -16 -3 -4 -11 -14 -18 -22 -7 -8 -15 -18 -18
-22 -2 -4 -7 -12 -12 -16 -5 -4 -10 -12 -13 -17 -3 -5 -8 -12 -12 -16 -4 -4
-9 -11 -12 -16 -3 -5 -8 -12 -12 -16 -4 -4 -9 -11 -11 -15 -3 -4 -11 -14 -18
-22 -7 -8 -15 -18 -18 -22 -2 -4 -7 -12 -12 -16 -5 -4 -10 -12 -12 -16 -3 -4
-9 -13 -14 -18 -17 -17 -17 -29 0 -48 32 -35 67 -31 88 11 2 4 8 12 13 18 5 6
10 13 12 17 2 3 7 10 11 14 4 5 10 12 12 16 2 5 8 13 13 18 4 6 10 13 12 17 2
4 7 11 12 16 5 5 10 13 12 16 1 4 7 12 12 18 6 6 12 15 15 19 2 4 7 11 11 15
4 4 9 11 11 15 3 4 9 13 15 19 6 6 11 13 12 16 1 3 6 10 11 16 6 6 12 15 15
20 5 9 20 24 25 24 1 0 4 3 7 7 3 4 8 9 11 10 3 2 12 9 20 16 9 8 20 17 25 20
5 3 14 9 19 12 13 8 30 24 34 34 3 4 14 17 25 29 21 22 32 37 34 51 1 5 3 11
5 15 2 5 4 9 4 11 0 2 2 8 4 14 8 22 10 31 12 42 1 7 3 16 5 19 4 8 4 23 0 33
-3 7 -3 8 0 16 5 13 4 118 -2 131 -3 8 -3 15 -2 110 1 99 1 101 -3 112 -3 8
-4 15 -4 31 0 38 -24 59 -53 46z"/>
</g>
</svg>
