<?xml version="1.0" standalone="no"?>
<!DOCTYPE svg PUBLIC "-//W3C//DTD SVG 20010904//EN"
 "http://www.w3.org/TR/2001/REC-SVG-20010904/DTD/svg10.dtd">
<svg version="1.0" xmlns="http://www.w3.org/2000/svg"
 width="88.000000pt" height="148.000000pt" viewBox="0 0 88.000000 148.000000"
 preserveAspectRatio="xMidYMid meet">
<metadata>
Created by potrace 1.16, written by Peter Selinger 2001-2019
</metadata>
<g transform="translate(0.000000,148.000000) scale(0.100000,-0.100000)"
fill="#000000" stroke="none">
<path d="M82 1243 c4 -169 10 -195 74 -279 34 -44 31 -79 -11 -125 -39 -44
-43 -67 -17 -97 26 -32 66 -19 103 34 16 24 39 50 51 58 20 14 25 13 62 -7 23
-12 42 -22 44 -23 1 -1 4 -169 5 -375 l2 -373 48 1 c26 0 50 1 55 2 4 1 5 128
3 283 -2 155 0 323 4 373 l7 91 47 26 47 27 64 -64 c36 -36 72 -65 81 -65 22
0 49 32 49 59 0 26 -52 107 -87 136 l-25 20 21 19 c11 10 33 59 50 110 26 81
29 103 28 206 l-2 115 -53 3 -53 3 2 -73 c3 -85 -9 -194 -24 -223 -45 -86 -92
-144 -134 -165 -40 -20 -56 -22 -122 -17 l-76 6 -57 61 c-32 33 -58 70 -58 81
0 11 -8 32 -17 46 -15 22 -17 47 -15 155 l3 128 -51 0 -52 0 4 -157z"/>
</g>
</svg>
