<?xml version="1.0" standalone="no"?>
<!DOCTYPE svg PUBLIC "-//W3C//DTD SVG 20010904//EN"
 "http://www.w3.org/TR/2001/REC-SVG-20010904/DTD/svg10.dtd">
<svg version="1.0" xmlns="http://www.w3.org/2000/svg"
 width="352.000000pt" height="590.000000pt" viewBox="0 0 352.000000 590.000000"
 preserveAspectRatio="xMidYMid meet">
<metadata>
Created by potrace 1.16, written by Peter Selinger 2001-2019
</metadata>
<g transform="translate(0.000000,590.000000) scale(0.500000,-0.500000)"
fill="#000000" stroke="none">
<path d="M73 1120 c-9 -3 -10 -224 -2 -236 2 -3 4 -12 5 -19 2 -18 26 -66 43
-85 38 -43 38 -66 3 -100 -45 -42 -38 -100 12 -100 25 0 36 7 49 33 16 34 62
68 76 58 2 -1 6 -3 9 -4 3 -1 9 -5 15 -9 5 -4 12 -8 17 -9 15 -3 14 25 12
-298 -2 -301 -2 -298 4 -301 5 -3 82 -3 88 0 6 3 6 -4 4 266 -1 240 -1 256 2
266 2 7 4 19 4 35 1 28 2 30 15 32 7 1 11 4 22 14 32 28 38 26 96 -37 33 -36
36 -38 54 -38 40 0 60 47 32 78 -3 3 -8 11 -11 18 -4 7 -11 18 -15 24 -5 6 -9
11 -9 12 0 1 -8 10 -17 20 -20 21 -20 19 -7 33 10 10 24 35 24 41 0 2 2 10 5
16 5 15 8 24 12 36 2 5 5 13 7 18 2 6 4 13 4 17 0 5 2 11 4 16 5 9 5 27 1 38
-3 7 -3 8 1 19 25 72 3 147 -43 148 -44 0 -59 -30 -40 -84 3 -9 3 -11 1 -20
-1 -6 -3 -19 -3 -29 -1 -13 -2 -21 -5 -27 -3 -7 -4 -13 -4 -31 0 -24 -10 -51
-25 -69 -3 -3 -9 -14 -14 -24 -5 -10 -13 -22 -18 -28 -5 -5 -11 -13 -14 -19
-6 -12 -15 -21 -26 -26 -4 -3 -18 -9 -30 -16 l-22 -11 -42 0 c-37 0 -43 0 -49
4 -4 2 -13 4 -20 5 -14 1 -14 1 -46 35 -52 52 -57 59 -60 84 -1 12 -3 15 -9
22 -4 5 -8 13 -9 18 -1 5 -3 12 -5 16 -3 6 -3 14 -2 98 2 113 6 102 -39 102
-17 0 -33 -1 -35 -2z"/>
</g>
</svg>
