<?xml version="1.0" standalone="no"?>
<!DOCTYPE svg PUBLIC "-//W3C//DTD SVG 20010904//EN"
 "http://www.w3.org/TR/2001/REC-SVG-20010904/DTD/svg10.dtd">
<svg version="1.0" xmlns="http://www.w3.org/2000/svg"
 width="348.000000pt" height="590.000000pt" viewBox="0 0 348.000000 590.000000"
 preserveAspectRatio="xMidYMid meet">
<metadata>
Created by potrace 1.16, written by Peter Selinger 2001-2019
</metadata>
<g transform="translate(0.000000,590.000000) scale(0.500000,-0.500000)"
fill="#000000" stroke="none">
<path d="M73 1139 c-35 -9 -39 -17 -22 -52 6 -12 11 -24 11 -25 0 -3 19 -39
25 -48 10 -14 11 -17 13 -32 1 -8 4 -16 7 -20 2 -4 5 -10 7 -14 1 -3 6 -11 11
-17 10 -12 13 -19 13 -33 0 -13 3 -19 14 -31 5 -5 10 -13 12 -17 1 -3 4 -9 6
-12 4 -5 5 -11 6 -23 1 -18 3 -21 13 -31 4 -4 10 -12 13 -18 3 -6 7 -15 10
-19 2 -4 4 -11 4 -14 0 -4 2 -10 5 -14 3 -4 6 -11 8 -14 1 -3 3 -9 5 -12 5 -7
4 -10 -5 -14 -6 -3 -9 -7 -12 -13 -2 -4 -12 -16 -20 -25 -10 -10 -17 -18 -18
-22 -1 -4 -9 -13 -20 -25 -15 -15 -19 -21 -19 -25 0 -14 -4 -20 -21 -37 -20
-19 -20 -19 -19 -59 1 -32 29 -47 53 -27 3 2 10 6 15 8 8 4 10 6 13 14 6 14
11 20 22 25 10 4 11 6 14 15 3 11 13 20 23 25 7 2 24 30 24 38 0 10 11 11 21
1 10 -10 9 -2 5 -168 -3 -126 -3 -135 4 -144 5 -7 5 -16 0 -23 -8 -9 -12 -146
-5 -159 8 -15 15 -19 38 -20 l21 0 14 13 c8 8 16 17 17 20 4 7 5 100 2 238 -2
95 -2 95 4 103 6 10 6 9 4 101 -1 74 -1 75 3 79 8 8 22 -4 35 -30 5 -9 12 -18
19 -25 11 -10 37 -43 51 -63 10 -16 29 -36 36 -39 9 -4 37 -4 42 0 12 8 11 62
0 79 -4 6 -7 12 -7 13 0 2 -5 9 -12 16 -6 8 -13 18 -16 23 -2 6 -9 14 -17 21
-9 8 -15 15 -18 22 -5 12 -18 24 -26 26 -8 2 -13 6 -14 13 -1 3 -6 10 -11 17
-15 16 -14 23 4 42 4 4 7 11 10 21 2 9 8 21 15 33 13 22 25 45 25 48 0 1 4 9
9 18 13 22 25 46 31 60 6 16 21 44 27 52 3 3 7 11 9 17 2 6 17 37 33 69 29 57
31 64 27 74 -6 11 -42 19 -57 12 -7 -4 -37 -33 -37 -36 0 -1 -3 -8 -7 -15 -3
-7 -7 -18 -8 -24 0 -5 -3 -13 -5 -16 -2 -3 -5 -9 -6 -13 -1 -4 -7 -12 -12 -18
-9 -10 -14 -20 -14 -31 0 -3 -2 -9 -5 -13 -2 -3 -5 -9 -6 -11 -1 -3 -4 -10 -7
-15 -3 -6 -6 -12 -6 -13 0 -2 -2 -6 -5 -10 -3 -5 -6 -12 -7 -20 -2 -11 -3 -14
-12 -24 -5 -6 -10 -13 -11 -16 -1 -3 -4 -10 -7 -15 -4 -7 -6 -13 -6 -18 0 -8
-14 -38 -19 -43 -10 -8 -26 -32 -31 -45 -14 -39 -23 -40 -55 -6 -12 12 -26 24
-30 27 -12 6 -21 21 -32 53 -3 7 -8 19 -13 26 -10 16 -26 51 -26 57 0 10 -4
19 -12 29 -10 12 -23 38 -26 52 -1 6 -4 14 -7 18 -3 4 -5 9 -5 11 0 2 -3 7 -6
12 -3 5 -6 10 -6 11 0 1 -3 7 -6 14 -3 6 -6 14 -6 18 0 3 -3 11 -6 18 -3 6 -6
14 -6 18 0 22 -38 51 -61 46z"/>
<path d="M310 1107 c-12 -3 -20 -8 -22 -14 -3 -8 0 -155 3 -162 7 -15 17 -21
35 -22 42 -3 44 3 39 86 -1 11 0 20 2 28 17 66 -5 98 -57 84z"/>
</g>
</svg>
