<?xml version="1.0" standalone="no"?>
<!DOCTYPE svg PUBLIC "-//W3C//DTD SVG 20010904//EN"
 "http://www.w3.org/TR/2001/REC-SVG-20010904/DTD/svg10.dtd">
<svg version="1.0" xmlns="http://www.w3.org/2000/svg"
 width="88.000000pt" height="148.000000pt" viewBox="0 0 88.000000 148.000000"
 preserveAspectRatio="xMidYMid meet">
<metadata>
Created by potrace 1.16, written by Peter Selinger 2001-2019
</metadata>
<g transform="translate(0.000000,148.000000) scale(0.100000,-0.100000)"
fill="#000000" stroke="none">
<path d="M53 1404 c-3 -8 12 -52 35 -97 22 -45 43 -92 46 -104 4 -11 13 -27
21 -33 8 -7 15 -23 15 -37 0 -13 11 -39 25 -57 14 -18 25 -43 25 -55 0 -12 11
-37 25 -55 14 -18 25 -40 25 -48 0 -9 7 -21 15 -28 22 -18 19 -28 -26 -79 -81
-91 -89 -102 -89 -113 0 -6 -10 -22 -22 -35 -14 -15 -22 -36 -22 -65 -1 -41 1
-43 29 -46 24 -2 39 6 73 38 23 22 42 43 42 46 0 3 14 19 30 36 17 16 30 36
30 44 0 17 29 19 32 2 2 -7 3 -96 4 -198 0 -102 1 -194 2 -205 0 -11 -2 -64
-4 -118 -6 -109 1 -127 46 -127 19 0 36 9 50 28 22 26 22 31 15 225 -5 151 -4
201 6 213 9 11 10 44 6 123 -5 88 -4 110 8 114 13 5 45 -31 45 -51 0 -5 10
-17 21 -28 12 -10 39 -42 60 -70 37 -50 73 -70 100 -54 20 13 5 95 -25 132
-14 18 -34 44 -43 57 -10 13 -27 32 -38 43 -11 10 -30 29 -42 41 -24 23 -29
42 -14 51 5 3 57 102 116 218 59 117 116 227 126 245 18 28 18 32 4 47 -40 39
-97 1 -129 -86 -9 -25 -24 -52 -32 -58 -7 -7 -14 -18 -14 -26 0 -31 -173 -364
-189 -364 -4 0 -27 21 -53 48 -42 44 -118 175 -118 205 0 7 -5 18 -11 24 -14
14 -99 210 -99 229 0 35 -94 61 -107 28z"/>
<path d="M400 1381 l-35 -6 -3 -104 c-2 -86 0 -107 14 -122 20 -22 57 -25 72
-6 13 16 10 240 -3 242 -5 1 -26 -1 -45 -4z"/>
</g>
</svg>
