<?xml version="1.0" standalone="no"?>
<!DOCTYPE svg PUBLIC "-//W3C//DTD SVG 20010904//EN"
 "http://www.w3.org/TR/2001/REC-SVG-20010904/DTD/svg10.dtd">
<svg version="1.0" xmlns="http://www.w3.org/2000/svg"
 width="59.000000pt" height="100.000000pt" viewBox="0 0 59.000000 100.000000"
 preserveAspectRatio="xMidYMid meet">
<metadata>
Created by potrace 1.16, written by Peter Selinger 2001-2019
</metadata>
<g transform="translate(0.000000,100.000000) scale(0.100000,-0.100000)"
fill="#000000" stroke="none">
<path d="M41 956 c-12 -15 -10 -21 111 -275 l49 -104 -29 -31 c-84 -90 -114
-166 -69 -174 22 -4 50 19 89 76 16 23 36 42 45 42 14 0 15 -22 10 -215 -5
-202 -4 -216 13 -225 22 -12 46 -4 54 16 3 8 6 114 7 234 0 171 3 220 13 220
7 0 34 -31 60 -70 36 -54 52 -70 70 -70 53 0 37 64 -38 146 -25 29 -46 58 -46
66 0 8 36 84 80 168 97 187 96 186 71 199 -33 18 -63 -22 -141 -192 -40 -86
-79 -162 -86 -168 -15 -12 -56 28 -81 81 -67 142 -103 223 -103 236 0 18 -36
54 -54 54 -7 0 -19 -6 -25 -14z"/>
<path d="M247 933 c-11 -10 -8 -119 3 -148 7 -20 16 -26 33 -23 21 3 22 8 25
91 l3 87 -29 0 c-16 0 -32 -3 -35 -7z"/>
</g>
</svg>
