<?xml version="1.0" standalone="no"?>
<!DOCTYPE svg PUBLIC "-//W3C//DTD SVG 20010904//EN"
 "http://www.w3.org/TR/2001/REC-SVG-20010904/DTD/svg10.dtd">
<svg version="1.0" xmlns="http://www.w3.org/2000/svg"
 width="448.000000pt" height="590.000000pt" viewBox="0 0 448.000000 590.000000"
 preserveAspectRatio="xMidYMid meet">
<metadata>
Created by potrace 1.16, written by Peter Selinger 2001-2019
</metadata>
<g transform="translate(0.000000,590.000000) scale(0.500000,-0.500000)"
fill="#000000" stroke="none">
<path d="M454 1133 c-1 0 -10 -2 -21 -3 -11 -1 -29 -4 -41 -7 -24 -5 -37 -8
-56 -11 -7 -1 -17 -3 -22 -4 -10 -3 -32 -5 -62 -8 -12 -1 -24 -3 -27 -4 -3 -1
-9 -2 -15 -2 -5 0 -14 -1 -20 -3 -6 -2 -16 -3 -22 -3 -21 0 -30 -12 -27 -36 4
-43 20 -55 57 -45 6 1 16 3 21 4 6 1 14 3 20 4 5 2 13 3 16 3 3 0 13 2 21 4 8
2 19 4 23 4 5 0 12 1 17 3 6 2 19 3 41 4 32 1 61 6 77 14 9 5 43 4 59 -1 10
-3 18 -4 33 -4 21 1 52 -2 60 -6 3 -1 11 -2 19 -3 8 -1 17 -3 22 -4 4 -2 11
-3 16 -3 5 0 13 -1 18 -3 5 -1 15 -3 21 -4 6 -1 13 -2 16 -3 38 -14 58 1 61
45 2 25 -7 35 -29 35 -7 0 -14 1 -17 2 -3 1 -11 2 -19 3 -9 0 -18 2 -21 3 -3
1 -11 2 -19 2 -7 0 -18 1 -25 3 -7 2 -16 3 -21 3 -5 0 -13 1 -18 3 -5 2 -12 3
-17 3 -5 0 -15 2 -22 4 -21 8 -93 16 -97 11z"/>
<path d="M281 968 c-13 -8 -13 -3 -13 -139 0 -84 0 -126 2 -129 3 -8 -16 -28
-27 -28 -1 0 -20 -9 -42 -20 -22 -11 -58 -28 -80 -39 -60 -29 -62 -33 -35 -76
15 -24 21 -23 74 6 24 13 39 22 65 35 10 5 22 11 27 14 15 8 19 1 17 -33 -1
-19 -1 -24 3 -34 2 -6 4 -14 4 -17 0 -3 5 -15 11 -28 6 -12 12 -26 13 -30 1
-5 6 -13 13 -20 6 -6 13 -15 16 -20 7 -11 10 -14 19 -16 6 -2 10 -5 16 -12 12
-15 29 -27 51 -34 15 -5 14 -7 -11 -41 -12 -16 -24 -33 -27 -39 -7 -13 -22
-34 -32 -45 -5 -5 -9 -10 -9 -11 0 -1 -7 -9 -15 -18 -8 -9 -15 -17 -15 -18 0
-1 -4 -6 -8 -11 -5 -5 -12 -14 -16 -19 -4 -5 -11 -14 -16 -20 -13 -17 -10 -31
12 -48 29 -22 56 -17 72 15 2 4 8 11 12 16 4 4 9 12 12 16 3 4 8 13 13 18 4 6
10 13 12 17 6 10 21 29 31 41 5 6 10 15 12 19 1 5 6 13 10 17 4 4 10 12 12 17
2 5 6 11 9 14 3 3 9 11 14 18 5 7 10 14 12 16 3 3 18 27 22 36 4 8 33 38 41
42 8 4 33 33 44 51 3 6 10 14 14 17 8 6 9 9 16 32 2 8 5 18 7 22 7 20 11 34
11 39 0 3 1 8 3 13 2 5 4 13 4 27 0 31 10 37 34 20 5 -4 14 -8 18 -10 4 -2 12
-6 16 -9 4 -3 11 -7 16 -9 4 -1 11 -6 16 -9 35 -24 59 -16 73 24 8 24 5 32
-16 41 -8 4 -16 9 -18 10 -2 2 -7 4 -12 6 -5 2 -14 6 -20 10 -6 3 -17 8 -24
11 -8 2 -16 6 -19 8 -3 2 -10 6 -17 9 -30 12 -46 27 -46 45 0 6 -2 13 -3 18
-3 6 -4 16 -4 89 0 72 0 83 -3 88 -2 3 -4 13 -4 22 -2 24 -24 34 -57 26 -12
-3 -16 -53 -7 -73 6 -13 8 -286 3 -300 -2 -5 -4 -18 -5 -30 -1 -22 -9 -43 -23
-61 -2 -3 -7 -12 -11 -19 -3 -7 -11 -18 -16 -24 -5 -6 -11 -14 -13 -17 -11
-23 -57 -43 -79 -35 -21 6 -80 76 -83 97 -2 11 -4 16 -9 22 -13 14 -13 8 -14
227 -1 196 -1 200 -5 204 -10 11 -35 14 -48 6z"/>
</g>
</svg>
