<?xml version="1.0" standalone="no"?>
<!DOCTYPE svg PUBLIC "-//W3C//DTD SVG 20010904//EN"
 "http://www.w3.org/TR/2001/REC-SVG-20010904/DTD/svg10.dtd">
<svg version="1.0" xmlns="http://www.w3.org/2000/svg"
 width="112.000000pt" height="148.000000pt" viewBox="0 0 112.000000 148.000000"
 preserveAspectRatio="xMidYMid meet">
<metadata>
Created by potrace 1.16, written by Peter Selinger 2001-2019
</metadata>
<g transform="translate(0.000000,148.000000) scale(0.100000,-0.100000)"
fill="#000000" stroke="none">
<path d="M500 1404 c-41 -7 -127 -21 -190 -30 -153 -22 -144 -18 -137 -61 10
-59 23 -66 93 -48 32 8 93 18 134 21 41 3 95 12 120 20 31 9 57 11 82 5 20 -5
39 -7 41 -5 2 3 46 -3 98 -12 52 -10 117 -18 144 -18 l50 -1 0 45 0 45 -60 8
c-33 4 -110 17 -171 27 -61 11 -115 20 -120 19 -5 -1 -43 -7 -84 -15z"/>
<path d="M347 1209 c-17 -10 -18 -26 -16 -182 l3 -172 -122 -60 c-96 -47 -122
-64 -122 -80 0 -26 27 -65 45 -65 7 0 52 23 99 51 47 27 90 47 96 44 5 -3 9
-29 8 -58 -1 -36 6 -65 22 -97 27 -53 61 -100 71 -100 5 0 20 -11 35 -25 15
-14 35 -25 45 -25 30 0 29 -14 -2 -55 -134 -181 -165 -221 -177 -231 -9 -6
-12 -18 -8 -30 7 -23 55 -53 73 -47 13 5 243 327 243 340 0 4 21 28 48 53 89
85 117 136 129 243 3 26 10 50 15 53 5 3 38 -13 73 -35 35 -23 73 -41 83 -41
26 0 52 31 52 61 -1 21 -16 31 -110 76 l-108 53 -7 62 c-3 35 -5 95 -4 133 1
39 -3 86 -8 105 -8 32 -12 35 -42 33 -18 -1 -35 -3 -37 -5 -1 -2 1 -100 6
-219 7 -137 6 -227 0 -248 -5 -19 -7 -38 -4 -43 8 -12 -51 -111 -91 -153 -25
-27 -40 -35 -67 -35 -29 0 -41 8 -75 48 -22 26 -50 70 -62 97 -21 48 -22 61
-20 292 2 187 0 245 -10 257 -15 18 -29 20 -54 5z"/>
</g>
</svg>
