<?xml version="1.0" standalone="no"?>
<!DOCTYPE svg PUBLIC "-//W3C//DTD SVG 20010904//EN"
 "http://www.w3.org/TR/2001/REC-SVG-20010904/DTD/svg10.dtd">
<svg version="1.0" xmlns="http://www.w3.org/2000/svg"
 width="76.000000pt" height="100.000000pt" viewBox="0 0 76.000000 100.000000"
 preserveAspectRatio="xMidYMid meet">
<metadata>
Created by potrace 1.16, written by Peter Selinger 2001-2019
</metadata>
<g transform="translate(0.000000,100.000000) scale(0.100000,-0.100000)"
fill="#000000" stroke="none">
<path d="M240 938 c-63 -10 -119 -23 -125 -29 -13 -13 17 -65 36 -62 8 1 64
11 125 22 113 20 207 17 304 -9 48 -14 49 -13 61 17 15 40 -2 49 -126 67 -130
19 -128 19 -275 -6z"/>
<path d="M230 805 c-9 -11 -11 -32 -6 -70 3 -30 3 -79 0 -109 l-7 -54 -71 -32
c-81 -36 -100 -54 -85 -81 14 -26 33 -24 95 12 30 17 58 28 64 24 5 -3 10 -20
10 -36 0 -16 6 -44 14 -62 13 -32 78 -97 96 -97 25 0 5 -42 -55 -117 -67 -83
-74 -100 -53 -121 27 -27 48 -10 124 100 43 61 98 134 122 161 47 53 72 101
72 139 0 51 15 55 74 24 46 -25 57 -27 70 -17 9 8 16 24 16 36 0 18 -12 28
-65 50 -36 16 -70 33 -75 40 -6 7 -13 59 -18 116 -7 102 -7 104 -32 104 l-25
0 0 -175 0 -175 -33 -51 c-17 -28 -43 -56 -57 -62 -21 -10 -29 -8 -54 13 -60
51 -71 96 -71 285 0 160 -1 170 -19 170 -10 0 -24 -7 -31 -15z"/>
</g>
</svg>
