<?xml version="1.0" standalone="no"?>
<!DOCTYPE svg PUBLIC "-//W3C//DTD SVG 20010904//EN"
 "http://www.w3.org/TR/2001/REC-SVG-20010904/DTD/svg10.dtd">
<svg version="1.0" xmlns="http://www.w3.org/2000/svg"
 width="286.000000pt" height="590.000000pt" viewBox="0 0 286.000000 590.000000"
 preserveAspectRatio="xMidYMid meet">
<metadata>
Created by potrace 1.16, written by Peter Selinger 2001-2019
</metadata>
<g transform="translate(0.000000,590.000000) scale(0.500000,-0.500000)"
fill="#000000" stroke="none">
<path d="M246 1113 c-19 -9 -36 -17 -38 -17 -2 0 -11 -4 -21 -8 -9 -4 -18 -8
-20 -8 -3 0 -16 -6 -31 -13 -15 -7 -29 -13 -31 -13 -17 0 -50 -23 -48 -33 5
-40 16 -44 65 -25 5 2 11 4 14 5 3 1 13 5 23 9 9 4 18 8 20 8 2 0 11 4 22 9
10 5 20 9 22 9 2 0 11 4 20 8 37 19 49 18 94 -5 14 -7 27 -13 29 -13 2 0 27
-11 54 -25 66 -33 78 -32 78 6 0 20 -43 46 -199 118 -15 7 -14 7 -53 -12z"/>
<path d="M64 948 c-10 -4 -10 -1 -10 -193 1 -167 1 -181 4 -185 2 -3 4 -9 5
-14 1 -4 5 -12 9 -18 5 -6 8 -12 8 -15 0 -6 11 -27 18 -37 8 -10 24 -41 27
-52 1 -7 4 -10 9 -13 3 -2 11 -8 17 -13 12 -10 20 -14 31 -14 5 0 10 -2 18 -7
7 -5 14 -8 21 -9 21 -3 22 0 -26 -92 -8 -15 -19 -35 -23 -44 -5 -9 -18 -33
-28 -53 -25 -47 -27 -55 -12 -68 21 -18 33 -4 81 98 5 11 14 30 20 42 6 12 11
25 12 28 2 9 6 13 9 9 2 -2 2 -40 1 -110 -1 -124 -3 -116 21 -116 25 0 24 -4
22 103 -3 113 -2 122 14 91 4 -8 11 -18 15 -23 4 -5 7 -10 7 -11 0 -4 22 -47
25 -50 2 -1 6 -10 11 -19 9 -19 11 -22 24 -22 29 0 34 29 10 56 -4 5 -13 18
-19 31 -7 12 -15 26 -18 30 -4 4 -10 13 -14 21 -4 8 -10 18 -14 22 -6 8 -25
45 -28 54 -1 4 8 12 27 22 4 2 12 8 18 13 6 5 14 11 18 13 4 2 12 8 18 13 6 5
18 13 27 17 9 5 17 10 19 13 1 3 5 7 7 8 3 2 9 10 14 19 5 9 12 20 15 24 3 4
6 10 7 14 1 4 3 11 5 15 3 6 4 13 4 22 0 11 1 15 5 20 11 16 11 3 11 195 1
208 4 186 -26 186 -16 0 -18 -1 -22 -4 -5 -5 -5 14 -4 -192 0 -160 0 -177 -6
-190 -2 -4 -4 -10 -4 -12 0 -3 -3 -9 -7 -14 -4 -5 -8 -12 -10 -15 -2 -4 -10
-13 -17 -21 -7 -8 -15 -17 -17 -21 -4 -8 -11 -16 -14 -16 -1 0 -7 -4 -13 -9
-7 -5 -13 -9 -14 -9 -1 0 -5 -3 -9 -7 -16 -13 -43 -24 -63 -23 -15 0 -41 5
-47 8 -5 2 -10 4 -12 4 -4 0 -11 3 -17 9 -3 2 -9 7 -14 10 -21 12 -60 70 -65
98 -1 4 -4 9 -8 13 -4 4 -8 10 -9 14 -1 4 -3 10 -5 13 -3 5 -3 30 -3 178 0
125 -1 174 -2 178 -4 8 -21 12 -34 7z"/>
</g>
</svg>
