<?xml version="1.0" standalone="no"?>
<!DOCTYPE svg PUBLIC "-//W3C//DTD SVG 20010904//EN"
 "http://www.w3.org/TR/2001/REC-SVG-20010904/DTD/svg10.dtd">
<svg version="1.0" xmlns="http://www.w3.org/2000/svg"
 width="102.000000pt" height="148.000000pt" viewBox="0 0 102.000000 148.000000"
 preserveAspectRatio="xMidYMid meet">
<metadata>
Created by potrace 1.16, written by Peter Selinger 2001-2019
</metadata>
<g transform="translate(0.000000,148.000000) scale(0.100000,-0.100000)"
fill="#000000" stroke="none">
<path d="M60 1415 c-15 -18 -5 -222 11 -242 7 -7 10 -84 8 -200 -2 -199 1
-215 48 -279 13 -17 23 -35 23 -41 0 -5 13 -19 29 -31 16 -11 45 -41 65 -65
l37 -45 -23 -38 c-12 -22 -32 -52 -45 -69 -66 -84 -98 -132 -122 -183 -11 -23
-25 -42 -30 -42 -6 0 -11 -15 -11 -34 0 -73 54 -47 101 49 11 22 46 78 79 125
33 47 63 94 66 105 4 11 14 28 24 37 10 9 20 22 22 29 3 8 14 10 31 5 34 -8
35 -34 4 -73 -12 -15 -36 -48 -51 -73 -16 -25 -37 -56 -46 -70 -10 -14 -27
-44 -38 -66 -11 -22 -28 -46 -36 -53 -18 -15 -22 -76 -6 -86 20 -12 45 5 63
42 9 21 35 67 57 102 22 34 40 66 40 70 0 5 9 16 20 26 11 10 20 22 20 28 0 5
13 25 30 43 17 20 27 40 24 49 -4 9 1 17 10 21 20 8 56 -22 56 -47 0 -10 14
-26 31 -36 19 -11 38 -36 51 -66 11 -26 24 -47 29 -47 4 0 17 -19 27 -43 10
-23 26 -48 35 -56 10 -7 17 -18 17 -24 0 -6 12 -28 27 -49 19 -28 33 -38 47
-36 32 5 33 52 2 89 -14 17 -26 35 -26 41 0 5 -9 22 -20 36 -27 35 -85 123
-93 142 -4 8 -27 44 -52 79 -25 35 -42 67 -38 71 4 4 23 10 41 13 29 6 34 3
57 -31 13 -20 33 -48 44 -62 11 -14 21 -31 21 -37 0 -7 5 -13 10 -13 6 0 13
-8 17 -17 3 -10 15 -28 26 -41 12 -12 30 -38 41 -56 45 -75 100 -148 114 -154
8 -3 21 2 27 12 21 27 10 51 -67 153 -16 20 -28 39 -28 44 0 4 -10 19 -22 33
-13 14 -34 42 -48 61 -14 20 -35 49 -47 65 -13 15 -23 37 -23 48 0 12 -4 24
-10 27 -20 12 -9 33 46 91 95 101 92 85 96 448 4 336 3 345 -42 331 -20 -6
-20 -13 -20 -281 0 -163 -4 -282 -10 -294 -24 -49 -28 -58 -35 -90 -7 -35 -81
-139 -99 -140 -6 0 -20 -10 -33 -22 -36 -33 -121 -47 -214 -36 -75 10 -77 11
-135 68 -71 69 -98 105 -109 145 -5 17 -10 120 -12 230 -2 110 -8 204 -13 209
-6 6 -10 54 -10 107 0 79 -3 98 -16 103 -23 9 -30 8 -44 -9z"/>
</g>
</svg>
