<?xml version="1.0" standalone="no"?>
<!DOCTYPE svg PUBLIC "-//W3C//DTD SVG 20010904//EN"
 "http://www.w3.org/TR/2001/REC-SVG-20010904/DTD/svg10.dtd">
<svg version="1.0" xmlns="http://www.w3.org/2000/svg"
 width="69.000000pt" height="100.000000pt" viewBox="0 0 69.000000 100.000000"
 preserveAspectRatio="xMidYMid meet">
<metadata>
Created by potrace 1.16, written by Peter Selinger 2001-2019
</metadata>
<g transform="translate(0.000000,100.000000) scale(0.100000,-0.100000)"
fill="#000000" stroke="none">
<path d="M34 957 c-2 -7 0 -109 5 -226 l9 -214 36 -51 c20 -29 49 -65 66 -81
16 -16 30 -34 30 -41 0 -6 -21 -40 -46 -74 -103 -140 -130 -205 -82 -198 15 2
32 19 48 49 64 116 131 209 151 209 27 0 25 -4 -55 -130 -68 -107 -82 -150
-47 -150 13 0 39 35 91 125 40 69 78 125 84 125 16 0 72 -76 132 -177 52 -88
69 -102 93 -79 13 14 5 30 -72 146 -48 71 -88 135 -89 142 -2 8 7 13 22 13 21
0 39 -21 112 -129 48 -71 93 -133 100 -137 15 -10 38 8 38 29 0 8 -17 38 -38
66 -162 217 -156 199 -98 270 25 31 48 66 51 79 3 12 7 113 8 224 2 208 -2
233 -37 220 -14 -6 -16 -32 -16 -185 0 -153 -3 -187 -21 -239 -57 -170 -227
-217 -341 -95 -25 27 -50 64 -56 83 -5 19 -13 119 -16 223 -4 115 -11 195 -17
203 -15 17 -38 17 -45 0z"/>
</g>
</svg>
