<?xml version="1.0" standalone="no"?>
<!DOCTYPE svg PUBLIC "-//W3C//DTD SVG 20010904//EN"
 "http://www.w3.org/TR/2001/REC-SVG-20010904/DTD/svg10.dtd">
<svg version="1.0" xmlns="http://www.w3.org/2000/svg"
 width="404.000000pt" height="590.000000pt" viewBox="0 0 404.000000 590.000000"
 preserveAspectRatio="xMidYMid meet">
<metadata>
Created by potrace 1.16, written by Peter Selinger 2001-2019
</metadata>
<g transform="translate(0.000000,590.000000) scale(0.500000,-0.500000)"
fill="#000000" stroke="none">
<path d="M57 1140 c-11 -3 -11 -5 -11 -102 l1 -90 7 -7 7 -7 1 -158 1 -157 8
-9 c5 -5 7 -10 7 -14 0 -10 5 -19 13 -25 4 -4 9 -10 12 -16 2 -6 6 -11 7 -12
1 -1 6 -8 10 -16 7 -12 11 -17 19 -22 11 -7 24 -21 31 -31 2 -4 6 -8 8 -9 2
-1 6 -4 7 -7 2 -3 6 -8 9 -11 2 -3 6 -10 8 -15 3 -5 6 -10 11 -12 9 -5 9 -7 1
-19 -7 -10 -20 -39 -20 -43 0 -5 -6 -12 -14 -16 -6 -3 -9 -7 -18 -24 -12 -21
-16 -26 -26 -33 -4 -2 -7 -6 -9 -13 -1 -5 -5 -13 -9 -17 -3 -5 -7 -12 -8 -16
-2 -7 -4 -10 -11 -15 -9 -6 -15 -15 -19 -29 -1 -5 -5 -12 -8 -16 -3 -4 -7 -11
-8 -15 -1 -4 -6 -10 -13 -17 l-12 -10 0 -22 c0 -36 35 -44 52 -13 3 6 8 14 11
17 9 9 24 33 24 38 0 6 10 25 15 28 3 2 8 9 12 17 4 7 10 16 13 20 3 4 7 11 9
16 2 6 5 10 7 11 6 2 15 13 17 23 3 10 15 28 25 37 6 5 19 32 21 42 2 8 7 16
15 20 3 2 9 8 13 16 9 16 12 17 20 9 4 -4 9 -7 15 -7 12 -2 13 -5 7 -15 -2 -5
-5 -12 -6 -15 -1 -3 -3 -7 -6 -10 -9 -7 -24 -27 -26 -36 -5 -13 -11 -22 -17
-27 -7 -6 -24 -37 -27 -50 -1 -4 -4 -8 -11 -13 -9 -7 -20 -23 -20 -31 0 -2 -3
-8 -7 -13 -4 -6 -8 -13 -9 -18 -1 -4 -4 -8 -7 -10 -3 -2 -8 -7 -11 -12 -3 -4
-8 -12 -11 -16 -6 -9 -8 -46 -2 -54 9 -13 45 -6 48 10 0 3 4 11 8 17 4 6 7 12
7 13 0 2 3 6 7 10 10 12 23 33 23 38 0 7 9 24 15 29 6 4 25 37 25 43 0 6 6 15
14 20 8 5 18 21 18 29 0 8 7 18 17 26 15 11 27 27 29 41 3 21 23 25 33 9 3 -5
8 -12 10 -15 3 -3 5 -8 5 -11 0 -12 4 -18 18 -25 23 -13 35 -24 37 -32 3 -16
26 -58 34 -62 8 -4 12 -9 14 -18 3 -11 20 -43 25 -48 7 -5 20 -27 25 -41 2 -7
7 -14 12 -20 4 -4 11 -13 14 -20 9 -17 36 -23 48 -11 12 12 6 49 -9 59 -6 4
-10 11 -22 36 -13 28 -16 31 -24 37 -7 5 -11 10 -12 15 -5 14 -20 42 -25 45
-7 5 -25 31 -27 39 -2 10 -10 23 -18 30 -3 2 -10 10 -14 18 -4 7 -9 14 -11 16
-1 1 -4 7 -6 12 -2 5 -6 12 -9 15 -19 18 -21 37 -3 39 7 1 16 3 22 5 19 6 24
3 37 -22 13 -25 15 -28 23 -32 4 -3 8 -7 11 -14 3 -5 8 -14 11 -19 4 -5 8 -13
10 -17 2 -5 7 -12 12 -16 7 -6 10 -10 11 -17 3 -11 10 -20 22 -29 7 -5 10 -9
12 -15 1 -4 4 -10 7 -13 2 -3 8 -12 12 -19 4 -7 9 -15 11 -17 8 -8 21 -26 29
-41 5 -11 9 -16 15 -20 6 -4 8 -8 11 -16 5 -16 32 -23 45 -12 13 10 6 53 -12
70 -10 10 -20 25 -27 37 -2 6 -8 13 -11 16 -4 3 -9 7 -10 8 -2 2 -5 7 -6 11
-1 5 -5 12 -8 16 -4 4 -7 12 -9 18 -3 8 -5 11 -12 15 -12 7 -18 14 -23 27 -3
9 -6 13 -14 19 -9 7 -12 11 -20 28 -9 16 -12 20 -20 26 -11 8 -15 16 -13 26 1
9 -3 22 -11 32 -13 15 -4 36 22 52 7 4 14 10 16 15 7 11 17 23 25 31 16 17 35
45 35 54 0 2 4 7 8 12 l8 8 1 253 c2 299 5 270 -28 270 -29 0 -26 24 -25 -228
l0 -218 -7 -7 c-6 -5 -7 -8 -9 -18 -1 -7 -4 -14 -8 -20 -4 -5 -7 -12 -8 -19
-1 -6 -3 -14 -5 -18 -2 -5 -3 -13 -3 -19 0 -11 0 -12 -11 -22 -8 -7 -11 -12
-13 -19 -2 -9 -15 -24 -20 -24 -1 0 -6 -5 -10 -11 -11 -15 -17 -20 -28 -23
-11 -3 -15 -6 -20 -16 -5 -10 -20 -18 -34 -18 -5 0 -14 -2 -20 -4 -6 -2 -13
-4 -18 -4 -4 0 -11 -2 -16 -4 -11 -5 -19 -5 -32 0 -8 3 -15 4 -36 4 -21 0 -28
1 -36 4 -6 2 -15 4 -21 4 -14 0 -26 7 -34 18 -3 4 -8 10 -11 12 -15 11 -23 19
-26 26 -4 8 -12 16 -21 21 -8 4 -17 14 -25 28 -4 7 -10 15 -13 20 -5 4 -7 9
-7 13 0 3 -1 9 -3 14 -2 5 -4 14 -5 20 -1 6 -4 13 -7 18 -6 7 -6 7 -7 162 -1
85 -1 155 -2 155 0 0 -3 4 -7 9 l-7 8 0 72 c0 86 -4 94 -41 82z"/>
</g>
</svg>
