<?xml version="1.0" standalone="no"?>
<!DOCTYPE svg PUBLIC "-//W3C//DTD SVG 20010904//EN"
 "http://www.w3.org/TR/2001/REC-SVG-20010904/DTD/svg10.dtd">
<svg version="1.0" xmlns="http://www.w3.org/2000/svg"
 width="78.000000pt" height="148.000000pt" viewBox="0 0 78.000000 148.000000"
 preserveAspectRatio="xMidYMid meet">
<metadata>
Created by potrace 1.16, written by Peter Selinger 2001-2019
</metadata>
<g transform="translate(0.000000,148.000000) scale(0.100000,-0.100000)"
fill="#000000" stroke="none">
<path d="M337 978 l1 -443 36 -3 c31 -3 36 0 42 23 3 14 1 31 -5 39 -9 11 -12
122 -10 418 l2 403 -34 3 -34 3 2 -443z"/>
<path d="M55 1340 c-3 -6 -5 -157 -3 -337 2 -278 5 -333 19 -363 9 -19 24 -53
34 -75 10 -22 42 -71 72 -108 53 -66 54 -69 39 -92 -9 -13 -16 -31 -16 -39 0
-8 -11 -28 -25 -44 -14 -17 -25 -35 -25 -42 0 -6 -11 -31 -24 -55 -24 -42 -24
-44 -6 -60 22 -20 47 -14 57 12 12 36 44 108 53 123 6 8 15 26 20 40 17 42 26
55 44 58 31 6 27 -26 -12 -109 -82 -174 -83 -179 -34 -179 16 0 32 8 40 20 16
26 42 101 42 123 0 23 50 121 57 113 15 -15 42 -112 48 -173 11 -104 29 -124
73 -83 l22 20 -20 51 c-11 27 -20 58 -20 68 0 10 -11 44 -24 77 -25 61 -22 84
13 84 16 0 61 -93 61 -126 0 -40 55 -114 85 -114 34 0 38 26 11 68 -13 21 -34
63 -46 92 -12 30 -29 68 -37 83 -14 27 -13 29 24 70 21 23 59 80 83 127 l45
85 5 330 c4 294 3 331 -11 349 -13 16 -21 18 -39 10 l-23 -10 -1 -324 -1 -325
-37 -75 c-57 -117 -87 -152 -160 -188 -58 -29 -69 -31 -99 -21 -46 16 -79 49
-123 122 -48 79 -52 87 -63 117 -30 77 -33 107 -33 388 0 289 0 291 -22 306
-26 19 -35 20 -43 6z"/>
</g>
</svg>
