<?xml version="1.0" standalone="no"?>
<!DOCTYPE svg PUBLIC "-//W3C//DTD SVG 20010904//EN"
 "http://www.w3.org/TR/2001/REC-SVG-20010904/DTD/svg10.dtd">
<svg version="1.0" xmlns="http://www.w3.org/2000/svg"
 width="308.000000pt" height="590.000000pt" viewBox="0 0 308.000000 590.000000"
 preserveAspectRatio="xMidYMid meet">
<metadata>
Created by potrace 1.16, written by Peter Selinger 2001-2019
</metadata>
<g transform="translate(0.000000,590.000000) scale(0.500000,-0.500000)"
fill="#000000" stroke="none">
<path d="M278 1140 c-17 -4 -23 -27 -15 -54 5 -17 7 -553 2 -576 -4 -20 -2
-70 3 -76 30 -33 76 1 59 44 -3 6 -3 35 -4 234 -1 245 -1 281 -3 283 -1 1 0 5
1 10 2 8 2 10 -1 19 -3 10 -3 11 1 22 20 59 0 105 -43 94z"/>
<path d="M52 1077 c-6 -3 -8 -7 -8 -18 0 -5 -1 -13 -3 -17 -5 -11 -3 -149 2
-158 4 -7 4 -20 0 -26 -4 -7 -4 -214 -1 -223 2 -4 3 -23 4 -53 l1 -47 12 -25
c7 -14 14 -29 15 -33 1 -5 5 -13 9 -19 5 -7 8 -13 9 -21 2 -13 10 -26 19 -31
4 -2 8 -7 9 -10 2 -4 7 -11 12 -16 5 -5 11 -12 13 -15 2 -3 9 -13 15 -21 22
-29 21 -26 17 -39 -2 -6 -4 -12 -6 -13 -5 -4 -8 -10 -9 -22 -1 -6 -4 -13 -7
-18 -3 -4 -6 -10 -7 -14 -1 -4 -8 -13 -15 -20 -15 -15 -17 -19 -17 -29 0 -9
-4 -19 -10 -26 -3 -4 -6 -10 -7 -14 -1 -5 -4 -12 -7 -17 -10 -16 -7 -25 16
-36 20 -10 34 2 45 37 3 9 7 20 10 23 7 10 11 19 11 25 0 11 12 34 22 44 7 6
10 10 10 13 0 20 14 48 24 48 19 0 28 -19 15 -34 -3 -4 -11 -19 -13 -26 -5
-17 -15 -38 -22 -49 -15 -24 -20 -35 -22 -47 -1 -6 -4 -18 -8 -25 -16 -34 1
-59 32 -49 10 4 30 30 34 46 3 12 9 29 16 51 3 10 6 22 6 27 0 8 14 41 22 54
2 3 4 8 6 11 7 19 19 13 23 -10 1 -4 5 -17 10 -27 7 -16 8 -22 9 -39 1 -11 3
-24 4 -29 1 -5 4 -13 5 -19 2 -5 3 -18 4 -28 1 -31 10 -45 30 -45 32 0 46 26
30 58 -11 22 -21 56 -21 70 0 11 -1 16 -7 28 -5 9 -8 20 -9 27 -1 7 -3 14 -7
19 -16 23 4 64 21 45 4 -5 26 -50 26 -54 0 -2 2 -7 4 -11 2 -5 6 -14 7 -22 5
-23 9 -34 14 -43 3 -6 10 -17 14 -26 15 -27 28 -36 50 -31 27 6 24 23 -13 82
-6 8 -10 16 -10 17 0 2 -4 12 -8 22 -12 29 -14 34 -14 38 0 8 -6 22 -14 32
-14 19 -13 23 8 45 18 19 40 48 43 58 1 2 5 8 9 14 4 5 8 12 9 16 2 4 6 12 9
17 3 6 8 15 9 20 3 10 7 17 17 31 3 3 5 11 6 18 1 7 3 17 4 22 5 20 7 47 7 88
0 62 1 424 1 428 0 2 -3 7 -6 11 -32 36 -80 -10 -59 -56 5 -11 7 -400 2 -414
-1 -5 -3 -17 -3 -30 -1 -18 -2 -23 -5 -28 -9 -13 -11 -16 -11 -22 0 -4 -2 -9
-5 -13 -10 -16 -13 -22 -15 -32 -1 -5 -5 -14 -8 -19 -3 -5 -6 -11 -6 -12 0 -1
-1 -4 -3 -5 -2 -2 -5 -7 -7 -11 -2 -5 -5 -10 -7 -11 -2 -2 -6 -8 -9 -15 -7
-16 -20 -28 -44 -41 -10 -6 -22 -13 -25 -15 -9 -7 -18 -11 -29 -13 -6 -1 -13
-4 -16 -6 -20 -14 -81 12 -100 43 -4 6 -10 13 -13 17 -4 4 -8 10 -10 15 -2 4
-6 11 -10 17 -10 14 -23 36 -24 42 -1 3 -5 10 -10 16 -6 7 -9 13 -10 18 -1 5
-5 16 -10 25 -7 12 -9 19 -9 26 0 5 -2 13 -7 23 -8 16 -10 36 -5 47 2 4 2 7 0
16 -2 7 -3 45 -3 145 0 74 -1 139 -1 144 0 5 0 35 2 66 2 69 2 69 -13 79 -5 4
-13 9 -17 12 -8 6 -11 6 -18 2z"/>
</g>
</svg>
