<?xml version="1.0" standalone="no"?>
<!DOCTYPE svg PUBLIC "-//W3C//DTD SVG 20010904//EN"
 "http://www.w3.org/TR/2001/REC-SVG-20010904/DTD/svg10.dtd">
<svg version="1.0" xmlns="http://www.w3.org/2000/svg"
 width="53.000000pt" height="100.000000pt" viewBox="0 0 53.000000 100.000000"
 preserveAspectRatio="xMidYMid meet">
<metadata>
Created by potrace 1.16, written by Peter Selinger 2001-2019
</metadata>
<g transform="translate(0.000000,100.000000) scale(0.100000,-0.100000)"
fill="#000000" stroke="none">
<path d="M229 965 c-3 -2 -4 -138 -3 -301 3 -303 6 -330 40 -309 14 9 16 46
15 305 -1 161 -4 297 -7 302 -6 9 -38 11 -45 3z"/>
<path d="M36 904 c-3 -9 -6 -112 -6 -230 l0 -215 29 -57 c16 -31 43 -74 60
-96 17 -21 31 -41 31 -44 0 -2 -18 -37 -40 -77 -43 -78 -48 -100 -26 -108 20
-8 40 18 72 90 14 35 33 63 40 63 20 0 18 -10 -16 -85 -35 -78 -38 -105 -11
-105 25 0 37 16 50 70 16 62 32 100 42 100 10 0 26 -57 34 -122 6 -49 28 -69
51 -46 11 11 9 28 -11 93 -14 44 -25 88 -25 98 0 37 26 9 53 -59 29 -72 49
-96 73 -87 21 8 17 26 -21 96 -41 75 -42 87 -11 124 13 15 36 53 52 83 l29 55
0 229 c0 206 -2 230 -17 240 -35 22 -39 -3 -39 -230 l1 -219 -42 -75 c-43 -75
-96 -119 -142 -120 -28 0 -89 69 -125 141 l-31 62 0 213 c0 201 -1 214 -19
224 -26 13 -28 13 -35 -6z"/>
</g>
</svg>
