<?xml version="1.0" standalone="no"?>
<!DOCTYPE svg PUBLIC "-//W3C//DTD SVG 20010904//EN"
 "http://www.w3.org/TR/2001/REC-SVG-20010904/DTD/svg10.dtd">
<svg version="1.0" xmlns="http://www.w3.org/2000/svg"
 width="400.000000pt" height="590.000000pt" viewBox="0 0 400.000000 590.000000"
 preserveAspectRatio="xMidYMid meet">
<metadata>
Created by potrace 1.16, written by Peter Selinger 2001-2019
</metadata>
<g transform="translate(0.000000,590.000000) scale(0.500000,-0.500000)"
fill="#000000" stroke="none">
<path d="M620 1138 c-16 -8 -15 3 -14 -152 0 -129 0 -138 -3 -146 -4 -8 -4
-15 -3 -87 0 -78 0 -78 -6 -88 -4 -5 -8 -14 -9 -19 -2 -6 -7 -14 -12 -19 -4
-6 -10 -14 -13 -18 -3 -4 -10 -13 -16 -19 -6 -6 -12 -14 -14 -19 -3 -4 -8 -11
-12 -16 -4 -4 -9 -12 -12 -16 -3 -6 -7 -10 -12 -13 -4 -2 -14 -10 -22 -17 -7
-7 -20 -16 -28 -21 -8 -5 -17 -10 -19 -12 -6 -6 -14 -8 -29 -8 -9 0 -16 -1
-21 -3 -6 -3 -8 -3 -14 -1 -4 2 -18 3 -36 4 -23 1 -32 2 -37 5 -3 2 -11 4 -16
4 -8 1 -12 3 -18 8 -5 4 -11 8 -15 9 -4 1 -11 5 -15 9 -4 4 -12 12 -19 18 -9
8 -14 15 -20 26 -4 9 -11 20 -15 24 -7 7 -16 21 -27 38 -2 3 -7 10 -10 14 -4
5 -6 12 -8 21 -2 8 -4 16 -5 18 -1 2 -2 11 -2 21 0 12 -1 20 -4 29 -4 11 -4
14 -4 202 0 105 0 193 0 196 -1 22 -44 40 -59 25 -7 -7 -6 -270 0 -285 3 -6 4
-18 3 -107 0 -102 0 -107 8 -131 3 -10 6 -14 14 -20 5 -5 12 -13 16 -20 6 -10
10 -17 27 -42 5 -6 11 -15 14 -21 19 -34 31 -47 48 -52 9 -3 12 -5 16 -11 3
-4 8 -9 12 -10 15 -6 17 -13 4 -23 -9 -8 -20 -25 -22 -36 -1 -7 -4 -10 -16
-20 -4 -3 -7 -7 -8 -10 -1 -4 -3 -9 -6 -12 -2 -3 -7 -11 -11 -18 -3 -7 -10
-16 -15 -20 -11 -11 -21 -26 -25 -37 -2 -6 -6 -11 -12 -15 -4 -3 -9 -9 -10
-12 -7 -17 -10 -23 -18 -35 -4 -7 -8 -14 -8 -15 0 -2 -4 -7 -10 -11 -14 -12
-20 -46 -10 -58 6 -8 35 -7 41 1 2 3 9 10 14 16 6 6 11 13 12 17 2 4 5 11 9
17 3 5 6 11 6 13 0 7 10 24 17 28 7 5 15 15 15 21 0 2 3 9 6 14 3 5 8 13 9 17
2 4 7 10 11 14 6 5 11 12 19 27 8 17 12 23 18 27 10 7 12 11 15 22 4 14 14 32
24 44 6 6 10 11 10 12 0 5 12 8 20 5 5 -2 11 -3 13 -3 10 0 14 -6 9 -14 -2 -4
-5 -11 -6 -15 -1 -4 -5 -10 -9 -13 -6 -6 -29 -48 -32 -59 -1 -3 -4 -7 -10 -11
-9 -7 -16 -17 -20 -31 -4 -11 -9 -18 -17 -22 -4 -2 -7 -6 -8 -10 -4 -12 -11
-26 -19 -36 -4 -5 -7 -11 -7 -12 0 -2 -4 -7 -9 -13 -27 -30 -33 -78 -10 -84
17 -5 30 1 35 16 3 10 12 24 20 32 4 4 9 10 10 14 1 4 4 12 8 16 3 5 7 14 9
21 3 9 5 13 14 22 9 8 12 12 14 21 5 16 16 37 22 41 6 4 14 18 17 32 2 8 5 11
16 21 11 10 14 14 15 20 2 13 11 16 15 5 4 -11 -1 -172 -6 -184 -12 -32 -4
-101 13 -112 12 -8 31 -1 31 11 0 2 3 8 7 14 8 13 8 7 5 164 -3 111 -2 114 7
114 4 0 5 -2 8 -8 2 -5 6 -12 9 -17 3 -4 8 -13 11 -20 3 -6 8 -13 11 -15 5 -3
13 -17 15 -27 2 -7 13 -25 23 -36 8 -8 20 -32 24 -46 2 -7 5 -11 11 -16 10 -8
30 -45 34 -62 1 -3 4 -8 8 -11 8 -8 8 -8 17 -17 10 -11 33 -13 42 -4 12 13 8
40 -8 55 -7 7 -12 13 -12 15 0 4 -8 19 -16 29 -3 4 -6 10 -8 15 -2 5 -6 10
-12 14 -7 5 -10 8 -13 18 -6 17 -14 29 -22 35 -4 2 -8 7 -9 11 -2 3 -6 10 -9
15 -3 5 -7 13 -9 18 -3 13 -9 21 -20 29 -7 5 -10 8 -12 15 -1 5 -5 13 -9 18
-4 5 -7 12 -8 16 -1 3 -4 8 -7 10 -6 4 -15 18 -18 27 -3 5 6 13 15 13 3 0 12
2 19 4 19 6 28 3 32 -10 1 -4 4 -10 7 -13 2 -3 7 -12 11 -19 4 -7 11 -16 16
-20 6 -4 11 -12 19 -28 9 -16 13 -22 20 -27 6 -5 9 -9 11 -16 4 -13 10 -21 20
-28 5 -3 9 -9 11 -14 2 -4 5 -11 8 -14 3 -4 6 -10 7 -15 3 -11 7 -17 15 -22 4
-3 10 -9 14 -18 9 -15 23 -36 28 -40 2 -1 6 -8 10 -15 10 -18 36 -24 48 -12
11 11 6 47 -8 58 -4 3 -9 10 -12 15 -3 5 -8 14 -13 19 -4 5 -9 13 -10 17 -2 6
-4 10 -11 14 -6 5 -10 9 -12 16 -4 11 -13 24 -24 35 -10 10 -24 28 -30 41 -3
5 -6 10 -7 11 -7 4 -26 30 -28 37 -3 12 -7 17 -18 23 -11 6 -12 7 -19 27 -12
38 -5 64 21 79 14 8 18 12 27 29 5 8 11 16 17 20 9 7 28 39 28 48 0 1 3 6 8
11 l7 8 2 249 c1 266 2 257 -8 262 -8 3 -29 3 -37 -2z"/>
</g>
</svg>
