<?xml version="1.0" standalone="no"?>
<!DOCTYPE svg PUBLIC "-//W3C//DTD SVG 20010904//EN"
 "http://www.w3.org/TR/2001/REC-SVG-20010904/DTD/svg10.dtd">
<svg version="1.0" xmlns="http://www.w3.org/2000/svg"
 width="100.000000pt" height="148.000000pt" viewBox="0 0 100.000000 148.000000"
 preserveAspectRatio="xMidYMid meet">
<metadata>
Created by potrace 1.16, written by Peter Selinger 2001-2019
</metadata>
<g transform="translate(0.000000,148.000000) scale(0.100000,-0.100000)"
fill="#000000" stroke="none">
<path d="M777 1421 c-17 -6 -19 -27 -22 -293 -3 -201 -7 -294 -16 -310 -28
-51 -118 -160 -161 -194 -58 -45 -101 -55 -184 -43 -85 12 -133 45 -189 129
-71 106 -69 97 -72 404 -2 194 -7 283 -15 293 -6 8 -23 13 -37 11 l-26 -3 4
-165 c2 -91 6 -235 9 -320 l4 -154 65 -99 c35 -54 74 -102 86 -106 12 -5 30
-18 40 -28 16 -19 16 -21 1 -34 -9 -7 -20 -22 -25 -34 -5 -11 -29 -47 -54 -80
-25 -33 -48 -67 -52 -75 -4 -8 -9 -17 -12 -20 -4 -3 -23 -33 -44 -68 -26 -42
-36 -69 -32 -82 14 -44 69 -10 99 62 9 20 20 39 26 43 6 4 17 21 25 38 8 18
33 57 55 87 22 30 40 60 40 65 0 6 12 25 28 43 21 25 32 31 50 26 12 -4 22
-11 22 -16 0 -12 -69 -127 -87 -146 -7 -7 -13 -19 -13 -26 0 -8 -7 -19 -15
-26 -18 -15 -77 -117 -87 -149 -8 -27 6 -51 28 -51 7 0 23 17 34 38 11 20 31
55 45 77 14 22 35 59 47 82 109 200 119 197 99 -31 -12 -152 -12 -168 3 -191
22 -33 32 -32 52 7 14 27 15 53 9 195 -8 190 0 204 54 99 18 -36 44 -79 57
-97 13 -18 24 -38 24 -45 0 -6 7 -18 16 -25 9 -8 25 -32 34 -54 25 -57 52 -80
79 -65 12 6 21 16 21 22 0 15 -71 132 -87 141 -7 4 -13 14 -13 21 0 7 -13 30
-30 52 -16 21 -30 43 -30 47 0 5 -9 21 -21 35 -41 54 -78 117 -71 123 4 4 22
9 39 12 31 6 34 4 84 -73 29 -44 56 -80 61 -80 4 0 8 -5 8 -12 0 -6 8 -20 17
-30 10 -11 26 -34 38 -53 80 -131 100 -155 125 -152 33 3 40 47 12 74 -10 10
-40 50 -66 88 -72 108 -123 178 -146 201 -12 12 -24 39 -27 60 -5 37 -1 43 47
94 90 94 88 87 91 439 1 169 -1 313 -5 319 -8 13 -13 14 -39 3z"/>
</g>
</svg>
