<?xml version="1.0" standalone="no"?>
<!DOCTYPE svg PUBLIC "-//W3C//DTD SVG 20010904//EN"
 "http://www.w3.org/TR/2001/REC-SVG-20010904/DTD/svg10.dtd">
<svg version="1.0" xmlns="http://www.w3.org/2000/svg"
 width="400.000000pt" height="590.000000pt" viewBox="0 0 400.000000 590.000000"
 preserveAspectRatio="xMidYMid meet">
<metadata>
Created by potrace 1.16, written by Peter Selinger 2001-2019
</metadata>
<g transform="translate(0.000000,590.000000) scale(0.500000,-0.500000)"
fill="#000000" stroke="none">
<path d="M625 1141 c-20 -6 -19 0 -19 -157 0 -117 0 -139 -3 -146 -2 -7 -3
-22 -3 -87 0 -78 0 -78 -7 -89 -4 -5 -7 -13 -8 -17 -1 -5 -5 -11 -11 -18 -5
-6 -12 -14 -14 -18 -2 -5 -8 -12 -14 -18 -6 -5 -13 -14 -15 -19 -3 -5 -9 -14
-14 -19 -4 -6 -9 -13 -11 -17 -2 -3 -8 -8 -12 -11 -5 -3 -14 -11 -21 -17 -7
-6 -19 -15 -27 -20 -9 -4 -17 -9 -18 -11 -5 -6 -14 -9 -27 -9 -8 0 -18 -1 -22
-3 -10 -4 -15 -4 -24 0 -5 2 -14 3 -32 3 -21 0 -28 1 -34 4 -5 2 -12 4 -17 5
-6 1 -13 4 -19 8 -4 4 -11 7 -14 8 -6 2 -20 13 -37 29 -6 6 -13 16 -18 25 -4
9 -11 20 -15 25 -18 21 -43 61 -44 71 -1 6 -3 13 -4 16 -2 3 -4 15 -5 29 -1
13 -2 25 -4 27 -1 4 -2 54 -2 202 l0 197 -9 10 c-14 17 -37 22 -49 12 -6 -5
-7 -272 0 -286 3 -6 3 -19 3 -114 0 -81 1 -108 3 -112 1 -2 4 -9 5 -14 2 -8 5
-12 13 -18 6 -5 13 -14 16 -20 6 -11 15 -24 27 -40 3 -5 8 -13 11 -18 16 -32
34 -52 51 -57 8 -2 12 -5 18 -12 4 -5 10 -10 14 -11 12 -4 12 -11 -1 -22 -9
-9 -22 -30 -22 -38 0 -4 -5 -10 -14 -17 -4 -2 -8 -7 -9 -10 -1 -3 -3 -9 -6
-12 -2 -3 -7 -11 -11 -18 -3 -7 -10 -16 -15 -20 -11 -11 -21 -26 -25 -37 -2
-6 -6 -11 -12 -15 -4 -3 -9 -9 -10 -12 -7 -17 -10 -23 -18 -35 -4 -7 -8 -14
-8 -15 0 -2 -4 -7 -10 -11 -14 -12 -20 -46 -10 -58 6 -8 35 -7 41 1 2 3 9 10
14 16 6 6 11 13 12 17 2 4 5 11 9 17 3 5 6 11 6 13 0 8 10 24 18 29 7 4 14 15
14 21 0 2 3 8 6 13 3 5 8 13 9 17 2 4 7 10 11 14 6 5 11 12 19 27 8 17 12 23
18 27 10 7 12 11 15 22 4 14 14 32 24 44 6 6 10 11 10 12 0 5 12 8 21 5 4 -1
11 -3 16 -4 10 -2 10 -5 4 -16 -3 -6 -5 -12 -5 -14 0 -2 -4 -7 -9 -12 -8 -8
-29 -45 -32 -58 -1 -3 -5 -8 -10 -11 -9 -7 -16 -17 -20 -31 -4 -11 -9 -18 -17
-22 -4 -2 -7 -6 -8 -10 -4 -12 -11 -26 -19 -36 -4 -5 -7 -11 -7 -12 0 -2 -4
-7 -9 -13 -27 -30 -33 -78 -10 -84 17 -5 30 1 35 16 3 10 12 24 20 32 5 4 9
10 10 15 1 4 5 12 8 16 3 4 7 13 9 20 3 9 5 13 14 22 9 8 12 12 14 21 5 16 16
37 22 41 6 4 17 25 17 33 0 4 4 9 15 19 10 10 15 16 16 21 2 13 11 17 15 7 4
-11 -1 -174 -6 -186 -12 -32 -4 -101 13 -112 12 -8 31 -1 31 11 0 2 3 8 7 14
8 13 8 5 5 162 -3 115 -3 117 8 116 4 -1 6 -3 7 -9 2 -4 6 -11 9 -16 3 -4 8
-13 11 -20 3 -6 8 -13 11 -15 5 -3 13 -17 15 -27 2 -8 17 -31 24 -37 5 -4 19
-31 23 -46 2 -6 5 -10 12 -16 9 -7 29 -45 33 -61 1 -3 4 -8 8 -11 8 -8 8 -8
17 -17 10 -11 33 -13 42 -4 12 13 8 40 -8 55 -7 7 -12 13 -12 15 0 4 -8 19
-16 29 -3 4 -6 10 -8 15 -2 5 -6 10 -12 14 -7 5 -10 8 -13 18 -6 17 -14 29
-22 35 -4 2 -8 7 -9 11 -2 3 -6 10 -9 15 -4 5 -8 13 -9 18 -3 11 -11 23 -16
26 -9 4 -14 11 -16 19 -1 4 -5 11 -8 15 -4 5 -8 12 -9 16 -2 5 -6 11 -10 14
-19 16 -20 38 -1 38 3 0 12 2 19 4 21 6 26 5 34 -11 15 -28 25 -44 33 -51 6
-4 11 -12 19 -28 9 -16 13 -22 20 -27 6 -5 9 -9 11 -16 4 -13 10 -21 20 -28 5
-3 9 -9 11 -14 2 -4 5 -11 8 -14 3 -4 6 -10 7 -15 3 -11 7 -17 15 -22 4 -3 10
-9 14 -18 9 -15 23 -36 28 -40 2 -1 6 -8 10 -15 10 -18 36 -24 48 -12 11 11 6
47 -8 58 -4 3 -9 10 -12 15 -3 5 -8 14 -13 19 -4 5 -9 13 -10 17 -2 6 -4 10
-11 14 -6 5 -10 9 -12 16 -4 11 -13 24 -24 35 -11 11 -24 28 -30 40 -3 6 -6
11 -7 12 -7 4 -26 30 -28 37 -3 12 -7 17 -18 23 -11 6 -12 7 -19 27 -11 35 -6
64 15 76 15 8 24 16 32 31 6 10 10 16 16 20 9 6 20 23 28 45 2 6 7 13 11 17
l7 6 0 130 c0 72 1 184 1 250 2 141 1 143 -40 132z"/>
<path d="M343 1135 c-8 -6 -8 -207 -1 -228 4 -10 4 -19 4 -141 0 -226 -1 -213
30 -214 34 -1 42 14 30 50 -6 17 -5 105 1 116 5 9 5 38 0 49 -3 7 -3 24 -3
185 0 212 4 188 -32 188 -22 0 -24 0 -29 -5z"/>
</g>
</svg>
