<?xml version="1.0" standalone="no"?>
<!DOCTYPE svg PUBLIC "-//W3C//DTD SVG 20010904//EN"
 "http://www.w3.org/TR/2001/REC-SVG-20010904/DTD/svg10.dtd">
<svg version="1.0" xmlns="http://www.w3.org/2000/svg"
 width="68.000000pt" height="100.000000pt" viewBox="0 0 68.000000 100.000000"
 preserveAspectRatio="xMidYMid meet">
<metadata>
Created by potrace 1.16, written by Peter Selinger 2001-2019
</metadata>
<g transform="translate(0.000000,100.000000) scale(0.100000,-0.100000)"
fill="#000000" stroke="none">
<path d="M41 951 c-7 -12 -8 -89 -5 -212 7 -224 15 -251 97 -333 l48 -48 -45
-67 c-25 -36 -59 -86 -75 -110 -37 -52 -41 -91 -11 -91 13 0 28 12 38 31 40
72 140 223 150 227 7 2 15 -3 18 -12 4 -10 -18 -53 -59 -113 -73 -111 -83
-135 -64 -152 19 -15 34 3 92 109 75 136 78 136 70 -6 -5 -100 -4 -122 8 -132
12 -10 18 -9 32 4 15 15 17 34 14 123 -2 58 0 108 5 111 5 3 36 -44 70 -104
64 -114 87 -139 107 -119 17 17 6 38 -88 179 -60 92 -73 118 -62 125 8 5 19 7
24 6 6 -2 48 -58 95 -125 47 -67 92 -129 102 -138 19 -19 38 -11 38 16 0 16
-107 176 -151 226 -26 29 -24 66 7 95 57 53 61 70 68 274 6 197 1 248 -27 253
-23 5 -26 -16 -30 -224 -3 -163 -5 -183 -24 -215 -30 -48 -102 -116 -137 -129
-74 -27 -167 21 -221 114 -21 38 -23 54 -27 233 -3 137 -8 196 -17 207 -18 21
-28 20 -40 -3z"/>
<path d="M292 957 c-8 -10 -10 -79 -4 -253 l7 -239 25 0 25 0 3 165 c3 212 -7
334 -29 338 -9 1 -21 -3 -27 -11z"/>
</g>
</svg>
