<?xml version="1.0" standalone="no"?>
<!DOCTYPE svg PUBLIC "-//W3C//DTD SVG 20010904//EN"
 "http://www.w3.org/TR/2001/REC-SVG-20010904/DTD/svg10.dtd">
<svg version="1.0" xmlns="http://www.w3.org/2000/svg"
 width="68.000000pt" height="100.000000pt" viewBox="0 0 68.000000 100.000000"
 preserveAspectRatio="xMidYMid meet">
<metadata>
Created by potrace 1.16, written by Peter Selinger 2001-2019
</metadata>
<g transform="translate(0.000000,100.000000) scale(0.100000,-0.100000)"
fill="#000000" stroke="none">
<path d="M288 813 c-2 -76 -10 -163 -17 -193 -15 -65 -5 -116 32 -171 27 -40
51 -40 85 -3 30 35 30 109 -3 202 -20 59 -25 90 -25 175 0 109 -7 127 -46 127
-23 0 -23 -3 -26 -137z"/>
<path d="M35 929 c-4 -6 -4 -85 0 -176 8 -188 20 -225 108 -343 26 -34 47 -67
47 -72 0 -6 -23 -53 -51 -104 -53 -98 -59 -137 -24 -142 17 -2 29 16 72 108
34 73 57 110 67 110 31 0 27 -27 -19 -120 -44 -92 -54 -133 -35 -145 25 -15
48 17 74 104 18 61 32 91 41 91 19 0 19 -4 -2 -107 -15 -71 -16 -85 -4 -93 27
-16 38 1 44 66 8 101 20 102 39 3 11 -52 17 -65 34 -67 11 -2 26 4 33 12 10
12 4 37 -29 131 -42 119 -43 141 -4 133 13 -2 28 -29 50 -91 42 -115 73 -150
103 -113 9 10 0 36 -39 114 -27 55 -50 108 -50 117 0 9 16 36 36 58 19 23 51
74 71 114 l35 71 2 174 1 173 -32 3 -31 3 0 -58 c2 -161 -11 -268 -37 -328
-45 -102 -81 -150 -134 -178 -92 -51 -133 -36 -206 77 -85 129 -87 139 -94
321 l-6 160 -27 3 c-14 2 -29 -2 -33 -9z"/>
</g>
</svg>
