<?xml version="1.0" standalone="no"?>
<!DOCTYPE svg PUBLIC "-//W3C//DTD SVG 20010904//EN"
 "http://www.w3.org/TR/2001/REC-SVG-20010904/DTD/svg10.dtd">
<svg version="1.0" xmlns="http://www.w3.org/2000/svg"
 width="400.000000pt" height="590.000000pt" viewBox="0 0 400.000000 590.000000"
 preserveAspectRatio="xMidYMid meet">
<metadata>
Created by potrace 1.16, written by Peter Selinger 2001-2019
</metadata>
<g transform="translate(0.000000,590.000000) scale(0.500000,-0.500000)"
fill="#000000" stroke="none">
<path d="M348 1114 l-8 -8 1 -51 c0 -29 1 -96 1 -151 l0 -98 -9 -18 c-6 -12
-9 -20 -9 -26 0 -4 -2 -12 -4 -16 -7 -13 -6 -115 1 -132 3 -7 5 -14 5 -16 0
-2 4 -8 8 -13 8 -8 30 -51 30 -57 0 -30 35 -48 57 -30 7 5 13 8 19 9 12 2 18
8 30 33 l12 23 0 59 c1 56 1 60 -3 69 -6 14 -11 28 -14 40 -1 6 -4 13 -5 16
-2 3 -4 11 -5 17 -1 11 -10 31 -18 40 -8 9 -9 13 -9 40 0 18 1 30 3 39 3 10 3
14 2 19 -2 4 -3 12 -4 18 -1 6 -3 14 -5 19 -4 9 -4 12 -3 82 2 86 3 81 -21 94
-21 11 -41 11 -52 -1z m48 -370 c1 -2 2 -7 2 -13 0 -5 2 -14 3 -18 2 -4 5 -12
6 -18 2 -5 4 -13 6 -16 1 -3 3 -9 4 -13 1 -3 3 -10 5 -15 16 -34 -3 -83 -19
-51 -4 7 -10 16 -13 20 -18 23 -25 67 -13 88 2 4 4 12 5 19 2 15 8 22 14 17z"/>
<path d="M679 1104 c-14 -6 -15 -23 -2 -35 15 -15 16 -46 1 -59 l-8 -8 0 -106
c1 -107 1 -107 -4 -116 -4 -7 -4 -10 -3 -21 3 -33 0 -48 -10 -59 -7 -7 -8 -9
-9 -23 -2 -15 -2 -16 -9 -23 -10 -8 -17 -22 -19 -38 -1 -6 -3 -14 -5 -17 -2
-2 -5 -7 -8 -11 -3 -4 -5 -9 -5 -12 0 -3 -3 -7 -8 -12 -6 -5 -8 -9 -9 -15 -1
-5 -3 -9 -8 -12 -5 -4 -8 -8 -10 -16 -6 -21 -29 -43 -62 -60 -15 -8 -30 -17
-33 -20 -8 -8 -29 -17 -42 -18 -11 -1 -14 -3 -21 -9 -10 -9 -16 -10 -26 -4 -5
2 -12 4 -17 4 -4 0 -11 2 -16 4 -4 2 -10 4 -14 5 -23 5 -58 33 -71 58 -3 6 -9
15 -14 20 -5 7 -10 15 -12 21 -2 8 -4 12 -9 14 -3 2 -8 9 -13 19 -4 8 -11 19
-14 23 -4 5 -7 10 -7 13 0 8 -3 14 -15 27 -10 10 -12 13 -12 22 -2 15 -3 17
-9 25 -12 15 -18 30 -19 48 -1 14 -3 18 -10 33 -11 20 -13 43 -5 59 5 10 5 11
0 22 -5 10 -5 10 -3 138 1 155 6 139 -38 139 -33 0 -38 -1 -40 -10 -5 -16 0
-252 5 -262 4 -9 4 -12 4 -68 l0 -58 17 -35 c11 -24 17 -38 18 -45 2 -16 3
-17 10 -22 8 -5 17 -22 17 -34 0 -11 11 -32 18 -35 17 -8 17 -8 20 -18 2 -8 7
-14 20 -28 10 -11 18 -20 18 -22 0 -1 4 -7 9 -13 5 -6 9 -12 9 -13 0 -1 6 -9
13 -17 14 -15 15 -16 10 -26 -2 -4 -4 -11 -5 -15 -2 -7 -4 -10 -8 -12 -8 -4
-10 -10 -10 -26 0 -13 0 -12 -13 -30 -2 -3 -4 -9 -5 -13 -2 -8 -6 -13 -23 -30
-22 -22 -22 -23 -19 -34 2 -5 2 -7 -2 -14 -2 -4 -4 -9 -4 -11 0 -2 -4 -7 -9
-12 -8 -7 -9 -9 -11 -21 -1 -9 -4 -15 -8 -20 -13 -16 -11 -28 4 -37 3 -2 10
-7 16 -11 19 -13 26 -13 33 1 2 4 6 11 8 14 6 7 16 29 18 39 2 10 11 28 18 37
4 5 6 10 7 20 2 16 19 53 28 59 14 11 16 13 16 22 0 5 2 13 4 18 2 5 5 12 5
16 6 33 19 39 59 24 7 -3 3 -29 -8 -42 -6 -8 -16 -27 -21 -42 -1 -5 -4 -13 -6
-19 -5 -15 -15 -33 -22 -41 -12 -13 -27 -46 -28 -62 -1 -12 -3 -19 -10 -32
-20 -40 -11 -66 22 -66 22 0 29 4 36 20 2 3 5 9 8 13 6 7 14 24 18 38 8 28 11
39 14 45 2 5 3 10 3 12 0 2 2 7 4 12 2 4 4 13 4 23 1 15 13 45 28 69 12 18 21
-27 10 -49 -3 -6 -5 -13 -6 -27 0 -14 -2 -21 -5 -27 -3 -7 -4 -14 -5 -41 -1
-29 -2 -34 -6 -41 -19 -36 21 -80 46 -51 12 13 15 22 13 55 -1 28 -1 31 3 41
3 8 4 15 4 29 0 13 1 20 4 26 2 5 4 13 5 19 3 27 13 19 13 -11 0 -16 1 -23 4
-30 2 -6 4 -15 5 -22 0 -6 2 -14 4 -18 2 -5 3 -15 3 -31 0 -55 23 -75 65 -56
25 11 29 35 12 68 -5 9 -10 21 -12 26 -1 5 -5 17 -9 26 -10 27 -10 28 -10 48
0 18 0 18 -9 34 -8 15 -10 19 -11 32 -1 15 -2 17 -9 23 -4 4 -7 7 -7 7 -1 4
-6 32 -7 35 -2 8 24 33 35 33 11 0 42 -52 47 -79 1 -4 4 -14 8 -22 5 -9 8 -18
8 -26 1 -7 3 -15 5 -19 2 -5 4 -10 4 -12 0 -7 10 -28 17 -37 3 -4 9 -15 13
-23 16 -37 45 -53 72 -39 22 11 11 57 -24 99 -9 11 -20 31 -20 36 0 2 -2 7 -4
12 -2 4 -4 10 -5 14 -1 4 -5 15 -10 24 -6 11 -9 21 -10 28 -1 12 -10 33 -17
39 -16 14 -17 42 -3 49 5 2 9 6 10 8 1 3 9 13 19 23 10 10 19 21 21 25 2 4 6
9 8 12 3 3 9 13 14 23 5 10 13 21 16 26 4 5 8 11 9 18 1 7 4 12 8 16 7 7 17
26 19 38 2 11 8 20 17 29 8 7 8 7 9 23 1 9 3 20 5 25 2 6 4 13 4 18 0 4 1 11
3 16 2 6 2 9 1 15 -2 6 -2 8 1 14 4 8 5 86 1 99 -1 4 -1 9 0 14 3 10 6 213 4
220 -4 9 -56 17 -71 10z"/>
</g>
</svg>
