<?xml version="1.0" standalone="no"?>
<!DOCTYPE svg PUBLIC "-//W3C//DTD SVG 20010904//EN"
 "http://www.w3.org/TR/2001/REC-SVG-20010904/DTD/svg10.dtd">
<svg version="1.0" xmlns="http://www.w3.org/2000/svg"
 width="100.000000pt" height="148.000000pt" viewBox="0 0 100.000000 148.000000"
 preserveAspectRatio="xMidYMid meet">
<metadata>
Created by potrace 1.16, written by Peter Selinger 2001-2019
</metadata>
<g transform="translate(0.000000,148.000000) scale(0.100000,-0.100000)"
fill="#000000" stroke="none">
<path d="M429 1388 c-1 -7 -1 -95 1 -196 2 -163 0 -185 -16 -210 -27 -39 -27
-220 -1 -250 10 -11 26 -42 36 -68 20 -56 38 -64 86 -38 70 38 86 156 39 293
-14 42 -30 81 -36 88 -5 6 -9 38 -9 70 1 32 -2 112 -5 178 -6 131 -13 145 -66
145 -15 0 -29 -6 -29 -12z m79 -506 c7 -26 16 -71 19 -99 7 -68 -15 -72 -47
-11 -18 34 -21 54 -17 95 9 89 22 93 45 15z"/>
<path d="M50 1376 c-3 -2 -2 -115 3 -251 l7 -246 39 -77 c21 -43 41 -90 45
-105 3 -15 10 -27 15 -27 5 0 37 -37 71 -82 l63 -82 -16 -30 c-9 -17 -23 -49
-33 -71 -9 -22 -28 -52 -42 -67 -13 -15 -22 -33 -19 -41 3 -7 -4 -24 -14 -38
-10 -13 -19 -32 -19 -41 0 -9 -5 -20 -10 -23 -19 -12 -10 -40 20 -57 29 -17
29 -17 50 16 11 19 20 37 20 41 0 7 14 41 51 123 10 23 23 42 28 42 5 0 12 17
16 38 9 52 29 72 63 62 21 -5 26 -12 24 -30 -1 -13 -9 -31 -17 -40 -8 -9 -15
-24 -15 -33 0 -9 -4 -19 -10 -22 -5 -3 -10 -12 -10 -20 0 -8 -11 -31 -25 -51
-14 -21 -28 -49 -31 -63 -3 -14 -13 -43 -21 -63 -19 -45 -6 -68 38 -68 34 0
50 26 79 128 36 123 54 173 62 178 19 12 20 -35 3 -135 -28 -164 -29 -177 -12
-184 43 -16 77 24 64 75 -4 12 -1 55 5 95 13 90 32 97 42 16 17 -147 21 -166
38 -177 26 -16 72 4 76 33 2 13 -8 49 -22 81 -14 32 -26 74 -26 93 0 20 -4 39
-10 42 -5 3 -10 15 -10 25 0 11 -9 38 -21 60 -23 43 -18 59 23 81 24 13 49
-29 83 -138 29 -93 68 -169 94 -183 23 -12 58 -2 66 18 3 9 -9 40 -30 74 -20
32 -47 90 -61 128 -13 39 -33 87 -44 107 l-19 36 34 32 c38 36 90 116 125 190
13 28 29 57 35 65 22 27 33 120 35 309 2 102 3 202 4 221 l1 35 -52 3 c-47 3
-53 1 -53 -16 0 -11 7 -22 15 -26 18 -7 20 -57 3 -74 -9 -9 -13 -57 -14 -155
-1 -215 -2 -223 -19 -237 -8 -7 -15 -20 -15 -30 0 -10 -7 -23 -15 -30 -8 -7
-15 -21 -15 -31 0 -20 -69 -138 -101 -174 -10 -11 -44 -33 -76 -49 -32 -16
-69 -34 -82 -41 -31 -16 -114 5 -150 38 -25 23 -89 116 -122 176 -10 20 -23
43 -28 51 -22 36 -51 108 -51 128 0 11 -4 23 -9 26 -5 3 -9 104 -9 223 l-1
218 -43 3 c-24 2 -46 1 -48 -2z"/>
</g>
</svg>
