<?xml version="1.0" standalone="no"?>
<!DOCTYPE svg PUBLIC "-//W3C//DTD SVG 20010904//EN"
 "http://www.w3.org/TR/2001/REC-SVG-20010904/DTD/svg10.dtd">
<svg version="1.0" xmlns="http://www.w3.org/2000/svg"
 width="69.000000pt" height="100.000000pt" viewBox="0 0 69.000000 100.000000"
 preserveAspectRatio="xMidYMid meet">
<metadata>
Created by potrace 1.16, written by Peter Selinger 2001-2019
</metadata>
<g transform="translate(0.000000,100.000000) scale(0.100000,-0.100000)"
fill="#000000" stroke="none">
<path d="M46 955 c-25 -25 -3 -45 50 -45 50 0 73 -25 54 -60 -12 -23 -18 -24
-56 -10 -37 15 -66 4 -62 -23 2 -17 13 -24 51 -31 57 -10 57 -4 22 -220 -33
-204 -33 -252 1 -302 42 -61 166 -194 196 -210 53 -28 73 -19 138 59 101 121
130 168 139 226 9 59 0 167 -29 336 -21 121 -19 127 37 114 39 -8 59 -4 66 15
10 26 -13 41 -70 46 -57 5 -58 6 -58 35 0 30 0 30 60 30 50 0 60 3 63 19 6 28
-15 35 -92 29 -67 -5 -112 -25 -100 -44 5 -9 59 -391 69 -494 9 -89 -1 -112
-92 -225 -91 -113 -98 -114 -186 -17 -101 114 -111 134 -103 219 3 38 13 109
20 156 8 48 22 143 31 212 9 69 19 135 22 147 6 28 -15 39 -93 48 -50 5 -64 4
-78 -10z"/>
</g>
</svg>
