<?xml version="1.0" standalone="no"?>
<!DOCTYPE svg PUBLIC "-//W3C//DTD SVG 20010904//EN"
 "http://www.w3.org/TR/2001/REC-SVG-20010904/DTD/svg10.dtd">
<svg version="1.0" xmlns="http://www.w3.org/2000/svg"
 width="102.000000pt" height="148.000000pt" viewBox="0 0 102.000000 148.000000"
 preserveAspectRatio="xMidYMid meet">
<metadata>
Created by potrace 1.16, written by Peter Selinger 2001-2019
</metadata>
<g transform="translate(0.000000,148.000000) scale(0.100000,-0.100000)"
fill="#000000" stroke="none">
<path d="M63 1404 c-13 -34 11 -49 85 -52 39 -2 74 -8 80 -15 5 -7 7 -32 3
-57 l-6 -45 -40 1 c-22 1 -58 5 -79 9 -32 7 -41 5 -52 -10 -8 -11 -14 -22 -14
-26 0 -20 35 -39 73 -40 64 -2 92 -12 91 -35 -1 -10 -20 -145 -44 -299 -45
-302 -48 -376 -12 -434 11 -18 60 -76 109 -130 49 -54 96 -107 104 -117 8 -11
39 -38 69 -61 72 -52 111 -54 148 -6 15 19 56 71 92 115 147 181 156 195 177
268 13 43 10 197 -6 305 -20 140 -31 209 -40 260 -5 28 -12 72 -16 99 l-8 48
89 -3 c87 -4 89 -4 92 20 6 36 -12 45 -100 51 l-82 5 -9 34 c-12 48 5 85 36
77 12 -3 48 -9 79 -12 56 -7 58 -6 68 20 5 15 8 32 4 37 -3 5 -56 9 -118 9
-94 0 -118 -3 -136 -18 l-22 -17 36 -250 c20 -138 40 -281 46 -320 28 -198 35
-311 22 -339 -6 -12 -12 -26 -14 -32 -3 -11 -195 -249 -226 -281 -7 -7 -28
-13 -47 -13 -30 0 -45 13 -145 122 -62 68 -121 143 -133 168 -18 41 -19 52 -9
165 11 117 24 209 36 250 3 11 11 72 16 135 6 63 15 140 20 170 6 30 14 85 20
122 5 37 12 77 15 90 5 20 1 25 -34 36 -23 6 -79 12 -126 12 -70 0 -87 -3 -92
-16z"/>
</g>
</svg>
