<?xml version="1.0" standalone="no"?>
<!DOCTYPE svg PUBLIC "-//W3C//DTD SVG 20010904//EN"
 "http://www.w3.org/TR/2001/REC-SVG-20010904/DTD/svg10.dtd">
<svg version="1.0" xmlns="http://www.w3.org/2000/svg"
 width="408.000000pt" height="590.000000pt" viewBox="0 0 408.000000 590.000000"
 preserveAspectRatio="xMidYMid meet">
<metadata>
Created by potrace 1.16, written by Peter Selinger 2001-2019
</metadata>
<g transform="translate(0.000000,590.000000) scale(0.500000,-0.500000)"
fill="#000000" stroke="none">
<path d="M64 1138 c-13 -7 -17 -27 -9 -42 6 -12 11 -14 45 -14 87 0 95 -8 82
-77 -4 -21 -39 -24 -84 -7 -31 12 -60 -3 -60 -30 0 -21 2 -23 34 -28 92 -14
99 -17 92 -42 -1 -4 -4 -21 -6 -38 -2 -17 -5 -40 -7 -50 -2 -10 -5 -31 -7 -45
-5 -30 -10 -57 -12 -68 -1 -4 -2 -13 -2 -19 0 -6 -1 -15 -2 -19 -1 -5 -3 -18
-5 -30 -1 -12 -4 -31 -6 -41 -1 -10 -5 -32 -7 -48 -5 -31 -7 -42 -10 -55 -3
-15 -6 -58 -4 -64 1 -3 2 -19 3 -36 1 -36 2 -38 15 -53 7 -7 11 -14 13 -21 2
-9 7 -15 21 -30 10 -11 26 -29 37 -41 10 -12 33 -36 50 -54 38 -40 53 -58 59
-70 3 -8 6 -11 17 -17 7 -4 13 -8 14 -9 1 -2 51 -36 59 -40 7 -4 58 -4 65 -1
8 5 22 21 28 33 6 13 67 87 109 135 14 16 27 31 29 35 2 3 11 15 20 26 19 22
23 29 23 39 0 5 2 9 7 14 9 11 11 15 11 27 0 7 2 13 6 21 6 12 6 12 6 50 0 33
1 41 4 50 4 12 3 24 -4 67 -6 35 -18 120 -20 146 -1 9 -3 21 -5 26 -2 5 -4 20
-5 35 -1 15 -3 29 -5 33 -1 4 -4 17 -5 28 -1 12 -4 30 -6 40 -19 98 -22 94 54
86 71 -7 72 -7 72 23 0 26 -4 33 -20 33 -4 0 -12 1 -18 3 -7 2 -14 3 -16 2 -5
-2 -69 3 -78 5 -10 3 -14 9 -14 20 0 5 -2 13 -4 18 -6 12 -6 14 7 40 3 7 9 7
46 2 60 -8 79 -8 86 -2 9 9 12 40 4 48 -11 11 -165 12 -180 2 -5 -3 -11 -6
-14 -7 -22 -6 -25 -20 -15 -78 6 -36 18 -114 34 -233 2 -17 6 -42 8 -55 2 -13
5 -35 5 -48 1 -15 3 -31 6 -42 3 -10 6 -26 7 -36 1 -11 3 -27 4 -37 1 -10 3
-28 4 -41 1 -16 3 -25 6 -33 7 -15 8 -125 2 -134 -2 -3 -6 -13 -10 -23 -3 -10
-8 -20 -11 -24 -4 -3 -19 -22 -34 -41 -15 -19 -35 -42 -43 -50 -8 -8 -16 -19
-18 -23 -2 -5 -9 -14 -15 -21 -7 -7 -15 -17 -19 -22 -3 -5 -10 -12 -14 -16 -4
-3 -11 -11 -15 -18 -4 -8 -8 -12 -14 -15 -4 -2 -10 -5 -12 -8 -6 -5 -20 -7
-35 -6 -13 2 -31 18 -77 72 -14 15 -36 40 -50 55 -45 48 -66 72 -71 84 -2 5
-6 13 -10 17 -6 8 -7 10 -9 22 0 3 -2 12 -4 19 -5 17 -4 77 2 88 2 6 3 14 3
36 0 39 2 55 10 71 6 13 7 16 8 44 1 30 1 31 7 39 6 9 6 10 7 40 1 17 3 36 4
41 1 6 2 17 2 26 0 9 1 24 3 34 2 10 3 22 3 26 0 9 9 62 12 72 1 3 2 16 3 28
1 12 3 26 5 33 2 6 4 16 4 22 0 7 2 17 4 23 2 8 4 21 5 36 1 27 4 39 9 49 7
11 0 22 -15 22 -6 0 -28 7 -36 12 -8 5 -135 8 -143 4z"/>
</g>
</svg>
