<?xml version="1.0" standalone="no"?>
<!DOCTYPE svg PUBLIC "-//W3C//DTD SVG 20010904//EN"
 "http://www.w3.org/TR/2001/REC-SVG-20010904/DTD/svg10.dtd">
<svg version="1.0" xmlns="http://www.w3.org/2000/svg"
 width="122.000000pt" height="148.000000pt" viewBox="0 0 122.000000 148.000000"
 preserveAspectRatio="xMidYMid meet">
<metadata>
Created by potrace 1.16, written by Peter Selinger 2001-2019
</metadata>
<g transform="translate(0.000000,148.000000) scale(0.100000,-0.100000)"
fill="#000000" stroke="none">
<path d="M51 1417 c-7 -9 -10 -25 -6 -37 6 -18 14 -20 95 -20 l88 0 4 -31 c3
-17 3 -42 0 -56 -5 -26 -5 -26 -86 -21 -45 3 -87 4 -93 1 -7 -3 -13 -20 -13
-38 0 -18 6 -35 13 -38 6 -2 49 -2 95 1 81 5 82 5 82 -19 1 -13 1 -176 0 -361
0 -328 0 -339 22 -385 12 -27 26 -49 30 -51 4 -2 8 -12 8 -21 0 -10 21 -38 48
-63 122 -118 158 -148 175 -148 9 0 26 -5 36 -12 20 -12 78 -1 128 25 30 16
143 119 143 130 0 5 10 17 23 27 22 18 29 31 83 145 28 60 28 60 29 280 0 121
-2 267 -5 324 -6 134 -7 134 114 129 l91 -3 3 31 c3 31 3 31 -55 37 -31 3 -77
3 -101 0 -32 -4 -46 -2 -53 8 -12 19 -11 66 2 91 10 18 19 20 101 17 78 -3 92
-1 102 13 8 14 7 21 -6 34 -14 14 -36 17 -139 15 -68 -1 -127 -5 -132 -8 -4
-3 -5 -12 -2 -22 4 -9 6 -212 6 -451 -1 -365 -4 -438 -16 -457 -8 -12 -15 -31
-15 -42 0 -11 -5 -23 -10 -26 -6 -4 -26 -32 -46 -63 -39 -60 -67 -92 -83 -92
-5 0 -18 -11 -29 -24 -27 -35 -84 -60 -116 -52 -15 4 -36 18 -48 31 -12 14
-28 25 -35 25 -20 0 -123 100 -123 118 0 9 -8 24 -17 34 -36 40 -41 82 -36
286 3 108 2 317 -2 464 -6 235 -9 268 -24 272 -9 3 -61 8 -116 12 -85 5 -103
4 -114 -9z"/>
<path d="M575 1398 c-3 -8 -4 -66 -3 -129 l3 -114 33 -3 33 -3 -3 128 -3 128
-28 3 c-16 2 -29 -2 -32 -10z"/>
</g>
</svg>
