<?xml version="1.0" standalone="no"?>
<!DOCTYPE svg PUBLIC "-//W3C//DTD SVG 20010904//EN"
 "http://www.w3.org/TR/2001/REC-SVG-20010904/DTD/svg10.dtd">
<svg version="1.0" xmlns="http://www.w3.org/2000/svg"
 width="82.000000pt" height="100.000000pt" viewBox="0 0 82.000000 100.000000"
 preserveAspectRatio="xMidYMid meet">
<metadata>
Created by potrace 1.16, written by Peter Selinger 2001-2019
</metadata>
<g transform="translate(0.000000,100.000000) scale(0.100000,-0.100000)"
fill="#000000" stroke="none">
<path d="M31 956 c-19 -22 -5 -36 37 -37 64 -2 87 -12 87 -39 0 -23 -4 -25
-60 -28 -67 -3 -80 -11 -70 -41 5 -18 14 -21 66 -21 l59 0 0 -240 c0 -262 2
-271 66 -356 36 -48 142 -124 173 -124 60 0 182 108 224 198 20 43 22 67 27
282 l5 235 62 3 c107 5 109 52 2 55 -63 2 -64 3 -67 31 -4 35 11 46 54 39 52
-9 86 4 82 30 -2 18 -11 23 -43 25 -22 2 -64 1 -92 -3 l-53 -6 0 -301 0 -301
-31 -63 c-34 -69 -125 -164 -157 -164 -33 0 -125 73 -157 124 l-30 49 -5 318
c-4 238 -8 321 -18 331 -7 7 -43 14 -80 16 -53 3 -71 1 -81 -12z"/>
<path d="M385 947 c-3 -7 -5 -49 -3 -93 3 -77 4 -79 28 -79 25 0 25 1 25 90 0
86 -1 90 -23 93 -12 2 -24 -3 -27 -11z"/>
</g>
</svg>
