<?xml version="1.0" standalone="no"?>
<!DOCTYPE svg PUBLIC "-//W3C//DTD SVG 20010904//EN"
 "http://www.w3.org/TR/2001/REC-SVG-20010904/DTD/svg10.dtd">
<svg version="1.0" xmlns="http://www.w3.org/2000/svg"
 width="520.000000pt" height="590.000000pt" viewBox="0 0 520.000000 590.000000"
 preserveAspectRatio="xMidYMid meet">
<metadata>
Created by potrace 1.16, written by Peter Selinger 2001-2019
</metadata>
<g transform="translate(0.000000,590.000000) scale(0.500000,-0.500000)"
fill="#000000" stroke="none">
<path d="M435 1138 c-11 -1 -16 -6 -15 -13 0 -3 1 -55 1 -114 0 -123 -1 -113
20 -116 52 -7 78 43 52 101 -1 3 -2 24 -1 66 0 62 -1 70 -7 74 -5 2 -37 4 -50
2z"/>
<path d="M574 1138 c-14 -2 -21 -37 -11 -59 4 -10 4 -44 0 -54 -8 -22 -5 -103
4 -113 40 -44 92 20 64 80 -3 7 -3 16 -3 73 0 80 -2 82 -54 73z"/>
<path d="M46 1119 c-2 -3 -4 -8 -4 -10 0 -3 -1 -8 -3 -13 -4 -8 -5 -35 -1 -42
3 -6 8 -6 87 -6 105 1 99 5 99 -61 -1 -57 11 -50 -92 -49 -106 1 -99 3 -98
-41 1 -33 -5 -30 82 -29 82 1 80 1 96 -17 10 -11 11 -16 9 -29 -1 -5 -1 -16
-1 -25 0 -11 -1 -20 -3 -26 -4 -12 -4 -25 1 -41 5 -15 5 -25 0 -61 -3 -19 -3
-49 -1 -91 2 -47 2 -78 -1 -97 -2 -10 -1 -14 1 -23 3 -8 3 -12 1 -20 -1 -5 -1
-11 -1 -13 1 -2 0 -7 -1 -12 -2 -7 -1 -10 1 -16 2 -5 3 -14 3 -28 0 -34 9 -62
23 -71 4 -3 10 -10 15 -19 4 -7 13 -19 19 -26 6 -7 12 -16 13 -21 3 -12 48
-65 62 -73 3 -2 8 -7 11 -11 8 -12 22 -25 36 -31 9 -4 14 -8 18 -14 3 -6 12
-13 29 -24 16 -11 25 -18 26 -22 4 -9 17 -12 31 -6 4 2 10 3 14 3 5 0 12 2 18
6 5 3 13 6 17 7 4 0 11 4 16 8 12 8 19 12 29 14 5 1 10 4 16 11 6 6 16 13 26
18 16 8 38 29 47 44 2 3 6 7 10 9 7 4 20 21 21 29 1 4 4 9 6 12 2 3 7 9 10 13
3 5 9 12 14 15 7 5 11 10 17 22 4 9 12 21 17 26 4 6 10 14 13 17 2 4 7 9 10
13 4 4 6 8 7 15 1 11 3 16 9 23 3 4 4 10 6 26 1 12 3 25 4 29 3 13 2 48 -2 66
-5 19 -5 40 -1 56 4 13 5 177 2 275 -2 62 -13 55 84 54 97 -1 90 -3 90 27 0
17 0 19 -7 29 -12 22 -7 21 -83 19 -93 -2 -85 -7 -85 56 0 62 -10 56 86 55 97
-1 88 -4 88 38 -1 43 13 38 -112 38 -126 0 -112 6 -112 -47 0 -27 -1 -39 -3
-44 -2 -7 -3 -35 -4 -156 -1 -95 -2 -151 -3 -156 -2 -6 -2 -14 0 -30 2 -15 2
-34 1 -58 -1 -20 -1 -39 -1 -42 2 -162 2 -165 -1 -180 -2 -8 -4 -22 -6 -30 -5
-25 -7 -28 -18 -38 -7 -7 -11 -13 -14 -20 -6 -19 -9 -22 -31 -47 -18 -20 -25
-30 -32 -43 -6 -12 -10 -18 -16 -22 -10 -7 -21 -18 -29 -30 -4 -6 -11 -13 -19
-19 -8 -5 -17 -13 -21 -18 -8 -9 -16 -12 -35 -12 -8 0 -17 -1 -22 -3 -7 -3 -9
-3 -16 0 -5 2 -14 3 -21 3 -13 0 -14 0 -21 8 -4 4 -10 9 -14 12 -3 2 -8 8 -10
12 -3 5 -10 13 -20 21 -9 6 -20 15 -25 19 -4 4 -12 9 -17 12 -4 2 -9 6 -9 8
-5 14 -20 38 -31 51 -10 10 -14 17 -16 23 -2 6 -5 12 -11 17 -13 13 -19 22
-20 30 -1 4 -4 10 -6 14 -3 5 -6 12 -7 18 -1 5 -2 12 -4 14 -3 6 -3 18 1 32 3
10 3 14 1 25 -1 8 -2 18 -1 23 0 5 0 15 -1 22 -1 9 -1 18 0 28 2 7 2 22 2 31
0 9 0 19 0 22 2 20 -1 532 -2 537 -6 13 -6 13 -122 13 -104 0 -104 0 -108 -5z"/>
</g>
</svg>
