<?xml version="1.0" standalone="no"?>
<!DOCTYPE svg PUBLIC "-//W3C//DTD SVG 20010904//EN"
 "http://www.w3.org/TR/2001/REC-SVG-20010904/DTD/svg10.dtd">
<svg version="1.0" xmlns="http://www.w3.org/2000/svg"
 width="130.000000pt" height="148.000000pt" viewBox="0 0 130.000000 148.000000"
 preserveAspectRatio="xMidYMid meet">
<metadata>
Created by potrace 1.16, written by Peter Selinger 2001-2019
</metadata>
<g transform="translate(0.000000,148.000000) scale(0.100000,-0.100000)"
fill="#000000" stroke="none">
<path d="M526 1273 l1 -148 44 0 44 0 0 38 c-1 20 -2 87 -3 147 l-2 110 -42 0
-43 0 1 -147z"/>
<path d="M694 1405 c-3 -8 -1 -29 5 -47 7 -21 7 -61 2 -113 -10 -100 -4 -115
51 -115 l41 0 -7 77 c-3 42 -6 107 -6 145 l0 68 -40 0 c-26 0 -43 -5 -46 -15z"/>
<path d="M50 1384 c-6 -15 -10 -37 -8 -48 3 -20 10 -21 105 -22 56 -1 109 -4
118 -8 13 -5 15 -18 13 -68 l-3 -63 -117 -3 -118 -3 0 -39 c0 -25 5 -40 13
-41 6 -1 50 0 97 0 132 2 122 30 121 -347 l-2 -318 35 -50 c20 -27 45 -65 55
-85 22 -39 147 -161 198 -191 17 -10 34 -25 37 -33 4 -11 13 -11 53 4 118 45
195 104 254 196 10 17 35 50 54 75 75 95 70 62 74 533 l1 209 98 -2 c128 -2
122 -4 122 26 0 58 -12 64 -121 64 l-100 0 3 73 3 72 105 0 105 0 3 43 c2 29
-1 42 -10 43 -66 3 -261 -1 -266 -6 -4 -4 -9 -217 -12 -475 l-5 -468 -22 -24
c-13 -14 -23 -29 -23 -34 0 -12 -117 -161 -148 -188 -7 -6 -23 -19 -34 -30
-15 -13 -36 -18 -80 -19 -58 0 -60 1 -111 51 -29 29 -57 52 -63 52 -6 0 -18
15 -27 33 -10 17 -31 50 -47 72 -62 82 -60 65 -60 571 l0 464 -124 0 c-68 0
-131 3 -140 6 -11 4 -19 -3 -26 -22z"/>
</g>
</svg>
