<?xml version="1.0" standalone="no"?>
<!DOCTYPE svg PUBLIC "-//W3C//DTD SVG 20010904//EN"
 "http://www.w3.org/TR/2001/REC-SVG-20010904/DTD/svg10.dtd">
<svg version="1.0" xmlns="http://www.w3.org/2000/svg"
 width="88.000000pt" height="100.000000pt" viewBox="0 0 88.000000 100.000000"
 preserveAspectRatio="xMidYMid meet">
<metadata>
Created by potrace 1.16, written by Peter Selinger 2001-2019
</metadata>
<g transform="translate(0.000000,100.000000) scale(0.100000,-0.100000)"
fill="#000000" stroke="none">
<path d="M363 963 c-9 -3 -13 -30 -13 -86 0 -111 6 -129 39 -125 25 3 26 5 29
84 4 111 -11 145 -55 127z"/>
<path d="M483 963 c-9 -3 -13 -33 -13 -98 0 -86 2 -95 21 -106 17 -8 24 -8 35
3 11 10 12 34 6 108 -7 96 -14 108 -49 93z"/>
<path d="M30 931 c-5 -11 -7 -27 -3 -37 5 -14 16 -16 68 -11 35 2 68 1 75 -3
7 -4 13 -25 14 -46 l1 -39 -80 -5 c-77 -5 -80 -6 -80 -30 0 -24 3 -25 75 -30
l75 -5 5 -225 5 -225 45 -64 c46 -65 163 -171 189 -171 25 0 95 38 137 74 21
18 62 66 89 106 l50 72 5 217 5 216 70 0 70 0 0 30 0 30 -70 5 -70 5 -3 43
c-4 47 -6 45 83 46 60 1 60 1 60 31 l0 30 -92 3 -92 3 -5 -43 c-3 -24 -7 -165
-9 -314 l-3 -270 -27 -46 c-15 -26 -53 -74 -85 -107 -50 -53 -62 -61 -94 -61
-31 0 -44 9 -101 70 -37 38 -73 82 -81 98 -11 21 -16 99 -22 350 l-7 322 -93
0 c-82 0 -95 -2 -104 -19z"/>
</g>
</svg>
