<?xml version="1.0" standalone="no"?>
<!DOCTYPE svg PUBLIC "-//W3C//DTD SVG 20010904//EN"
 "http://www.w3.org/TR/2001/REC-SVG-20010904/DTD/svg10.dtd">
<svg version="1.0" xmlns="http://www.w3.org/2000/svg"
 width="456.000000pt" height="590.000000pt" viewBox="0 0 456.000000 590.000000"
 preserveAspectRatio="xMidYMid meet">
<metadata>
Created by potrace 1.16, written by Peter Selinger 2001-2019
</metadata>
<g transform="translate(0.000000,590.000000) scale(0.500000,-0.500000)"
fill="#000000" stroke="none">
<path d="M199 1133 c-5 -2 -10 -7 -12 -13 -5 -8 -16 -26 -23 -36 -2 -3 -7 -10
-11 -16 -11 -16 -34 -39 -48 -47 -7 -4 -14 -9 -17 -12 -2 -2 -13 -10 -23 -16
-25 -16 -31 -30 -25 -53 5 -19 32 -18 52 3 4 4 12 11 18 14 6 4 15 11 20 16 5
5 14 13 21 18 7 6 15 13 19 18 14 16 16 9 16 -57 l-1 -53 -9 -17 c-5 -9 -11
-20 -12 -25 -4 -14 -29 -36 -44 -41 -9 -3 -17 -7 -25 -13 -7 -5 -14 -9 -19
-10 -19 -3 -26 -11 -26 -31 0 -29 20 -40 43 -24 5 4 15 9 21 12 7 4 18 10 25
15 8 5 14 9 15 9 2 0 7 3 12 7 22 16 21 27 20 -188 0 -203 0 -205 13 -230 8
-17 11 -26 13 -37 2 -13 10 -27 26 -47 5 -6 9 -14 11 -21 6 -22 9 -30 14 -36
10 -13 22 -33 28 -44 3 -7 8 -13 13 -17 4 -3 9 -8 11 -11 2 -4 7 -11 12 -16 5
-6 10 -12 11 -14 1 -2 7 -7 14 -12 6 -4 13 -11 16 -14 2 -3 9 -9 15 -13 7 -4
16 -11 20 -16 18 -20 71 -23 87 -6 5 5 12 11 16 13 8 4 16 12 24 23 11 17 25
34 32 40 5 4 9 11 11 17 2 5 7 13 11 18 4 5 9 11 10 14 1 2 6 10 11 16 5 6 16
26 26 45 10 19 20 38 23 42 6 10 10 19 10 28 0 7 7 41 10 50 9 26 9 36 9 251
0 138 1 209 3 218 1 7 2 14 2 15 0 10 17 -9 43 -49 10 -15 38 -39 57 -49 7 -4
17 -10 22 -14 17 -14 39 -9 44 11 5 17 0 31 -14 38 -17 8 -31 17 -37 22 -4 3
-12 8 -19 12 -8 4 -15 10 -18 15 -3 4 -7 10 -10 12 -2 2 -7 9 -11 15 -4 6 -10
13 -14 16 -3 2 -9 9 -12 15 -3 5 -8 13 -12 17 -6 6 -12 102 -7 109 3 3 16 -7
21 -15 2 -4 6 -9 9 -11 2 -2 6 -8 8 -14 3 -7 7 -13 11 -16 4 -3 11 -11 16 -19
5 -8 12 -15 17 -19 5 -3 13 -10 18 -15 14 -14 47 -24 61 -18 20 10 7 54 -16
54 -2 0 -7 4 -12 9 -6 4 -14 11 -19 13 -6 4 -13 11 -21 22 -7 9 -15 20 -20 25
-4 5 -9 13 -11 18 -3 4 -10 13 -16 19 -7 7 -13 15 -16 22 -3 6 -10 18 -17 28
-6 9 -11 19 -12 22 -4 18 -26 19 -43 1 -11 -12 -12 -16 -11 -45 1 -22 1 -26
-2 -34 -3 -8 -4 -19 -5 -88 -3 -162 -6 -243 -8 -252 -1 -5 -2 -34 -2 -71 0
-41 -1 -70 -3 -86 -2 -16 -3 -44 -3 -86 0 -50 -1 -62 -3 -68 -2 -4 -4 -13 -5
-19 -6 -39 -9 -48 -14 -59 -8 -17 -15 -33 -19 -41 -1 -4 -5 -10 -8 -14 -4 -4
-9 -11 -12 -16 -3 -5 -8 -12 -11 -15 -2 -3 -7 -11 -9 -16 -3 -6 -9 -15 -14
-21 -6 -5 -14 -16 -20 -24 -12 -19 -27 -33 -40 -39 -5 -3 -13 -7 -17 -9 -9 -5
-10 -5 -30 11 -8 5 -16 14 -19 20 -4 6 -9 12 -12 13 -3 2 -8 7 -11 11 -3 5
-11 13 -16 19 -6 6 -15 17 -19 23 -5 7 -10 13 -12 15 -2 2 -7 11 -11 20 -5 9
-12 22 -17 28 -13 18 -19 29 -21 42 -1 8 -5 20 -13 35 -16 32 -19 41 -21 54
-1 7 -3 17 -5 23 -2 8 -3 31 -4 126 0 63 -1 124 -2 134 -2 30 -2 263 1 310 6
119 -3 149 -41 127z"/>
<path d="M319 1074 c-10 -3 -11 -7 -11 -32 0 -36 4 -40 47 -54 11 -3 24 -9 30
-13 6 -4 18 -9 31 -13 12 -3 29 -10 39 -15 79 -39 111 -38 113 3 1 32 -1 34
-54 50 -7 3 -17 7 -22 11 -5 3 -17 9 -27 12 -17 5 -26 9 -48 20 -4 3 -12 6
-18 7 -12 3 -36 14 -44 20 -6 5 -25 7 -36 4z"/>
<path d="M326 866 c-23 -9 -10 -65 17 -77 9 -4 32 -11 36 -11 1 0 9 -3 18 -8
8 -4 29 -12 46 -18 18 -6 35 -12 39 -15 19 -12 61 -16 70 -7 11 11 5 56 -8 61
-5 2 -12 6 -18 10 -6 4 -16 8 -29 12 -30 8 -48 14 -55 20 -7 5 -16 8 -45 15
-12 3 -21 7 -28 12 -11 7 -32 10 -43 6z"/>
</g>
</svg>
