<?xml version="1.0" standalone="no"?>
<!DOCTYPE svg PUBLIC "-//W3C//DTD SVG 20010904//EN"
 "http://www.w3.org/TR/2001/REC-SVG-20010904/DTD/svg10.dtd">
<svg version="1.0" xmlns="http://www.w3.org/2000/svg"
 width="77.000000pt" height="100.000000pt" viewBox="0 0 77.000000 100.000000"
 preserveAspectRatio="xMidYMid meet">
<metadata>
Created by potrace 1.16, written by Peter Selinger 2001-2019
</metadata>
<g transform="translate(0.000000,100.000000) scale(0.100000,-0.100000)"
fill="#000000" stroke="none">
<path d="M138 926 c-17 -25 -49 -57 -70 -71 -27 -18 -38 -32 -38 -50 0 -35 24
-32 72 10 23 19 45 32 51 28 12 -7 1 -76 -18 -112 -7 -15 -32 -35 -54 -45 -46
-21 -58 -43 -37 -64 13 -14 20 -12 56 13 22 15 44 25 48 21 4 -4 9 -87 12
-184 l5 -177 35 -70 c20 -39 59 -95 90 -127 69 -72 101 -77 152 -23 41 44 105
148 119 194 5 20 13 125 16 234 3 108 8 197 10 197 3 0 24 -20 49 -45 44 -46
77 -57 88 -29 3 9 6 17 6 19 0 2 -26 24 -59 49 -61 47 -96 103 -86 136 9 29
18 25 54 -25 31 -43 68 -64 90 -50 20 12 11 31 -33 68 -24 20 -59 59 -77 87
-24 38 -38 50 -53 48 -20 -3 -21 -12 -28 -168 -23 -506 -22 -492 -52 -552 -38
-76 -98 -143 -119 -135 -28 10 -115 138 -138 202 -20 55 -22 85 -28 359 -4
222 -9 300 -18 303 -7 3 -27 -16 -45 -41z"/>
<path d="M260 881 c0 -35 7 -41 95 -74 102 -38 125 -39 125 -3 0 20 -14 29
-92 65 -112 50 -128 51 -128 12z"/>
<path d="M265 729 c-4 -5 -4 -21 -1 -34 5 -18 23 -30 88 -54 45 -18 89 -30 97
-29 9 2 17 15 19 29 3 24 -4 29 -88 63 -101 40 -106 41 -115 25z"/>
</g>
</svg>
