<?xml version="1.0" standalone="no"?>
<!DOCTYPE svg PUBLIC "-//W3C//DTD SVG 20010904//EN"
 "http://www.w3.org/TR/2001/REC-SVG-20010904/DTD/svg10.dtd">
<svg version="1.0" xmlns="http://www.w3.org/2000/svg"
 width="114.000000pt" height="148.000000pt" viewBox="0 0 114.000000 148.000000"
 preserveAspectRatio="xMidYMid meet">
<metadata>
Created by potrace 1.16, written by Peter Selinger 2001-2019
</metadata>
<g transform="translate(0.000000,148.000000) scale(0.100000,-0.100000)"
fill="#000000" stroke="none">
<path d="M224 1388 c-30 -58 -58 -89 -112 -126 -30 -19 -57 -45 -62 -56 -8
-21 4 -56 18 -56 5 0 17 8 28 18 11 9 45 39 77 65 l57 49 0 -81 c0 -111 -24
-155 -109 -196 -60 -30 -69 -42 -55 -79 9 -25 29 -19 91 24 32 22 61 40 66 40
4 0 7 -112 7 -248 0 -244 0 -250 26 -313 14 -35 32 -71 40 -80 8 -8 14 -21 14
-28 0 -42 125 -195 200 -245 34 -22 80 -20 111 7 40 34 114 135 156 212 63
115 71 176 72 578 1 108 5 197 10 197 4 0 21 -21 37 -46 31 -49 126 -119 150
-110 7 3 14 18 14 33 -1 23 -10 33 -52 58 -29 17 -69 54 -93 85 -39 50 -43 62
-48 128 -7 87 0 86 66 -4 74 -101 147 -138 147 -74 0 22 -6 33 -22 40 -32 13
-60 38 -94 85 -16 22 -34 43 -39 47 -6 4 -22 30 -35 57 -24 51 -47 64 -67 39
-15 -19 -22 -127 -33 -533 -11 -367 -20 -455 -52 -515 -57 -104 -153 -220
-182 -220 -34 0 -155 147 -198 240 -64 139 -59 91 -63 577 -2 243 -6 447 -10
452 -13 22 -45 11 -61 -21z"/>
<path d="M387 1333 c-25 -24 8 -93 44 -93 9 0 24 -7 35 -15 10 -8 25 -15 31
-15 7 0 42 -13 78 -30 85 -39 121 -40 128 -3 7 35 0 51 -26 59 -12 3 -35 12
-52 19 -190 83 -223 94 -238 78z"/>
<path d="M397 1073 c-4 -3 -7 -19 -7 -34 0 -35 18 -47 125 -84 44 -16 84 -32
90 -37 5 -4 26 -8 48 -8 38 0 38 0 35 37 -3 35 -7 39 -53 56 -80 31 -149 59
-167 68 -21 11 -62 12 -71 2z"/>
</g>
</svg>
