<?xml version="1.0" standalone="no"?>
<!DOCTYPE svg PUBLIC "-//W3C//DTD SVG 20010904//EN"
 "http://www.w3.org/TR/2001/REC-SVG-20010904/DTD/svg10.dtd">
<svg version="1.0" xmlns="http://www.w3.org/2000/svg"
 width="82.000000pt" height="100.000000pt" viewBox="0 0 82.000000 100.000000"
 preserveAspectRatio="xMidYMid meet">
<metadata>
Created by potrace 1.16, written by Peter Selinger 2001-2019
</metadata>
<g transform="translate(0.000000,100.000000) scale(0.100000,-0.100000)"
fill="#000000" stroke="none">
<path d="M42 962 c-8 -5 -12 -18 -10 -28 3 -16 13 -19 65 -19 68 0 86 -11 81
-46 -3 -23 -7 -24 -73 -24 -68 0 -70 -1 -70 -25 0 -24 3 -25 68 -28 l67 -3 0
-260 0 -260 29 -57 c16 -31 56 -83 89 -116 56 -55 63 -58 108 -59 65 -1 105
22 160 91 80 101 86 118 95 292 4 85 8 201 9 258 l0 102 60 0 c65 0 85 15 60
45 -10 12 -24 14 -61 9 -45 -6 -49 -5 -61 21 -19 43 -1 60 65 60 60 0 73 6 64
30 -9 22 -172 22 -181 -1 -3 -9 -6 -152 -6 -319 0 -284 -1 -306 -21 -351 -41
-97 -125 -184 -178 -184 -27 0 -105 71 -143 129 l-28 45 0 335 c0 185 -4 341
-8 348 -10 15 -162 28 -180 15z"/>
<path d="M400 924 c-93 -50 -126 -76 -116 -93 12 -19 43 -12 103 23 32 19 77
42 101 52 34 13 42 21 40 38 -5 34 -37 29 -128 -20z"/>
<path d="M395 782 c-74 -42 -100 -62 -100 -77 0 -29 28 -29 74 0 23 14 69 39
102 56 49 25 60 35 57 52 -2 12 -10 23 -18 24 -8 2 -60 -23 -115 -55z"/>
</g>
</svg>
