<?xml version="1.0" standalone="no"?>
<!DOCTYPE svg PUBLIC "-//W3C//DTD SVG 20010904//EN"
 "http://www.w3.org/TR/2001/REC-SVG-20010904/DTD/svg10.dtd">
<svg version="1.0" xmlns="http://www.w3.org/2000/svg"
 width="490.000000pt" height="590.000000pt" viewBox="0 0 490.000000 590.000000"
 preserveAspectRatio="xMidYMid meet">
<metadata>
Created by potrace 1.16, written by Peter Selinger 2001-2019
</metadata>
<g transform="translate(0.000000,590.000000) scale(0.500000,-0.500000)"
fill="#000000" stroke="none">
<path d="M584 1138 c-8 -2 -38 -18 -45 -23 -3 -3 -25 -14 -49 -26 -24 -12 -46
-24 -49 -26 -4 -3 -22 -13 -42 -23 -63 -33 -74 -49 -44 -69 8 -5 48 5 58 15 9
8 29 21 48 31 26 14 55 29 62 31 4 1 11 6 17 10 6 4 13 8 18 9 5 0 12 3 16 6
4 3 12 6 20 7 34 5 46 21 35 47 -5 11 -27 17 -45 11z"/>
<path d="M55 1134 c-12 -5 -14 -8 -16 -20 -5 -35 10 -44 53 -34 5 1 30 2 55 2
64 0 65 -1 67 -42 1 -14 2 -28 3 -31 3 -12 3 -12 -88 -11 -97 1 -90 2 -91 -24
-1 -31 9 -37 56 -35 16 1 38 2 49 1 14 0 24 1 32 3 12 3 13 3 21 0 16 -7 15
22 15 -324 l0 -308 23 -46 c21 -43 39 -73 50 -82 2 -2 7 -8 11 -13 17 -26 41
-49 70 -69 7 -4 21 -18 43 -42 6 -6 27 -9 74 -10 49 -1 56 0 78 16 6 4 21 12
34 18 27 13 35 19 39 28 4 9 26 37 34 44 4 3 9 9 11 13 1 4 8 13 14 20 7 7 14
16 17 22 3 5 6 11 8 12 5 5 19 25 22 34 2 5 6 12 9 16 3 5 7 12 8 17 1 6 3 13
4 16 1 3 2 7 2 9 0 2 3 10 7 18 6 13 6 13 6 88 1 76 1 76 5 82 5 7 5 7 6 79 0
44 1 76 2 83 4 19 5 30 1 39 -4 13 -4 46 0 60 3 9 3 13 1 23 -4 20 -5 49 -2
59 2 7 2 13 0 28 -7 59 -15 54 72 53 83 -1 78 -3 80 24 1 36 -1 37 -80 35 -66
-2 -67 -2 -69 11 -1 4 -2 12 -4 17 -4 13 -4 41 0 50 1 3 3 9 4 13 2 12 3 13
74 12 77 -1 74 -2 74 22 0 20 -14 28 -44 26 -4 0 -11 0 -14 0 -173 7 -155 23
-155 -139 0 -73 -1 -242 -2 -376 l-1 -244 -7 -15 c-8 -15 -26 -60 -26 -63 0
-1 -4 -7 -8 -14 -5 -7 -8 -15 -9 -21 -1 -8 -4 -11 -18 -26 -10 -9 -21 -22 -25
-28 -22 -31 -28 -38 -37 -49 -19 -21 -56 -45 -72 -47 -7 -1 -14 -4 -19 -8 -18
-13 -51 -1 -83 28 -4 4 -11 9 -15 13 -25 17 -35 25 -44 37 -5 7 -15 19 -21 27
-6 8 -15 19 -20 25 -5 6 -10 15 -12 20 -2 6 -6 13 -8 17 -3 5 -7 11 -8 15 -1
4 -6 12 -10 19 -9 16 -9 -15 -10 422 -1 437 0 403 -16 403 -2 0 -8 1 -12 3
-14 5 -175 4 -188 -1z"/>
<path d="M587 982 c-5 -4 -17 -11 -27 -16 -9 -5 -20 -11 -23 -13 -3 -3 -13 -8
-22 -13 -9 -4 -20 -10 -25 -13 -5 -3 -11 -5 -13 -5 -3 0 -8 -3 -11 -6 -8 -6
-44 -28 -47 -28 -1 0 -7 -3 -13 -8 -6 -4 -14 -8 -21 -10 -20 -4 -39 -28 -33
-43 9 -24 23 -25 55 -6 10 6 23 14 30 17 7 4 15 9 18 11 3 3 13 8 21 12 8 5
22 13 31 18 9 6 21 12 26 15 6 3 17 10 25 15 22 13 26 15 41 16 33 3 46 42 19
58 -12 7 -19 6 -31 -1z"/>
</g>
</svg>
