<?xml version="1.0" standalone="no"?>
<!DOCTYPE svg PUBLIC "-//W3C//DTD SVG 20010904//EN"
 "http://www.w3.org/TR/2001/REC-SVG-20010904/DTD/svg10.dtd">
<svg version="1.0" xmlns="http://www.w3.org/2000/svg"
 width="486.000000pt" height="590.000000pt" viewBox="0 0 486.000000 590.000000"
 preserveAspectRatio="xMidYMid meet">
<metadata>
Created by potrace 1.16, written by Peter Selinger 2001-2019
</metadata>
<g transform="translate(0.000000,590.000000) scale(0.500000,-0.500000)"
fill="#000000" stroke="none">
<path d="M727 1138 c-14 -6 -13 5 -14 -146 0 -130 -1 -133 -5 -145 -4 -12 -4
-12 0 -27 4 -14 4 -18 3 -59 -2 -53 -2 -61 -1 -87 0 -15 -1 -21 -3 -27 -3 -7
-3 -15 -3 -57 0 -49 1 -52 8 -63 5 -8 5 -17 -1 -26 -8 -12 -9 -25 -2 -39 6
-11 6 -11 0 -21 -5 -9 -6 -12 -6 -34 -1 -17 -3 -29 -6 -41 -3 -9 -5 -20 -5
-24 0 -15 -7 -30 -35 -72 -8 -11 -16 -25 -17 -29 -2 -5 -8 -14 -20 -26 -10
-10 -20 -22 -24 -28 -7 -10 -14 -15 -32 -20 -9 -2 -13 -5 -18 -11 -24 -31 -60
-46 -81 -35 -7 4 -15 7 -17 7 -3 0 -8 2 -12 4 -4 2 -12 6 -17 9 -8 3 -12 7
-15 13 -4 7 -7 9 -14 12 -13 3 -14 4 -18 14 -1 5 -6 11 -12 16 -5 5 -11 12
-14 18 -3 6 -7 11 -13 15 -8 6 -15 15 -30 35 -3 4 -6 12 -7 18 -1 8 -5 16 -12
28 l-11 17 0 74 c0 73 0 74 5 84 5 12 5 16 -1 25 -4 7 -4 7 -5 136 -1 81 -2
130 -3 132 -1 2 -2 19 -2 39 -2 347 1 315 -36 315 -11 0 -23 1 -28 2 -7 2 -12
2 -21 0 -8 -2 -27 -3 -73 -2 -78 0 -75 2 -75 -36 0 -27 2 -33 12 -36 9 -3 68
0 79 3 42 15 74 3 74 -28 0 -34 6 -31 -70 -31 -92 0 -94 -1 -95 -32 -1 -39 2
-41 89 -40 66 1 67 1 71 -2 6 -4 10 -32 7 -49 -3 -15 -4 -20 -1 -39 3 -33 3
-371 -1 -388 -3 -16 -4 -77 -1 -89 1 -4 3 -19 4 -31 1 -24 1 -24 10 -33 6 -6
9 -12 12 -21 5 -16 10 -26 22 -42 16 -23 32 -49 42 -69 9 -18 38 -47 52 -52 7
-2 13 -6 20 -14 6 -6 14 -13 18 -15 4 -3 9 -7 12 -9 3 -3 9 -5 13 -6 5 -1 12
-3 17 -6 5 -3 12 -6 16 -8 4 -1 9 -5 11 -8 7 -10 28 -11 45 -3 4 2 10 4 14 5
5 1 12 4 17 8 12 9 16 11 23 11 9 0 18 4 25 12 5 5 15 11 39 22 12 5 25 18 27
26 1 3 4 8 7 11 3 3 8 10 11 14 5 8 33 36 45 46 7 5 21 29 25 44 2 7 7 19 11
28 5 9 8 17 8 19 0 2 3 11 6 20 3 9 6 19 6 22 0 7 8 32 13 39 2 4 4 12 5 24 1
10 3 19 4 21 1 2 2 35 2 79 0 49 1 80 2 88 2 10 2 16 0 26 -5 30 -4 293 0 297
5 5 5 5 67 3 85 -1 88 0 87 39 -2 34 -3 35 -80 34 -69 0 -67 -1 -77 17 -9 16
-9 24 -1 34 3 4 6 10 6 12 0 10 8 16 19 13 60 -16 131 0 133 30 2 40 3 39 -55
40 -62 2 -104 5 -113 8 -11 3 -30 2 -41 -2z"/>
<path d="M480 1115 c-16 -2 -16 0 -16 -95 0 -59 1 -85 2 -89 5 -11 39 -12 47
-2 5 6 8 164 3 176 -3 8 -17 12 -36 10z"/>
<path d="M369 1109 c-5 -5 -5 -5 -5 -90 0 -102 -2 -95 28 -95 28 0 26 -8 26
95 0 102 2 95 -27 95 -16 0 -18 0 -22 -5z"/>
<path d="M570 1110 c-4 -5 -4 -7 -4 -91 0 -104 -2 -95 26 -95 28 0 26 -9 26
95 0 104 2 95 -26 95 -16 0 -18 -1 -22 -4z"/>
</g>
</svg>
