<?xml version="1.0" standalone="no"?>
<!DOCTYPE svg PUBLIC "-//W3C//DTD SVG 20010904//EN"
 "http://www.w3.org/TR/2001/REC-SVG-20010904/DTD/svg10.dtd">
<svg version="1.0" xmlns="http://www.w3.org/2000/svg"
 width="82.000000pt" height="100.000000pt" viewBox="0 0 82.000000 100.000000"
 preserveAspectRatio="xMidYMid meet">
<metadata>
Created by potrace 1.16, written by Peter Selinger 2001-2019
</metadata>
<g transform="translate(0.000000,100.000000) scale(0.100000,-0.100000)"
fill="#000000" stroke="none">
<path d="M605 960 c-4 -6 -8 -148 -11 -318 -3 -169 -9 -325 -15 -346 -23 -85
-126 -196 -181 -196 -25 0 -104 74 -140 129 l-28 45 -1 300 c0 166 -3 319 -7
341 l-7 40 -95 0 c-95 0 -95 0 -95 -25 0 -24 3 -25 70 -30 62 -4 70 -7 70 -25
0 -17 -8 -21 -64 -25 -47 -4 -67 -10 -75 -23 -17 -28 14 -46 69 -39 76 8 75
13 75 -272 l0 -251 44 -76 c35 -60 57 -84 100 -113 64 -42 90 -44 154 -12 98
50 163 152 182 284 5 37 10 147 10 245 l0 179 53 -3 c58 -4 77 3 77 31 0 26
-18 35 -74 35 -52 0 -75 18 -63 49 5 12 20 16 72 16 63 0 65 1 65 25 0 14 -6
27 -12 29 -34 11 -168 15 -173 6z"/>
<path d="M307 943 c-4 -3 -7 -39 -7 -78 0 -51 4 -76 15 -85 26 -22 35 0 35 86
0 75 -2 84 -18 84 -10 0 -22 -3 -25 -7z"/>
<path d="M397 943 c-4 -3 -7 -42 -7 -85 0 -70 2 -78 19 -78 21 0 31 26 31 85
0 70 -18 103 -43 78z"/>
<path d="M480 867 c0 -88 3 -99 26 -90 10 4 14 26 14 89 0 77 -2 84 -20 84
-18 0 -20 -7 -20 -83z"/>
</g>
</svg>
