<?xml version="1.0" standalone="no"?>
<!DOCTYPE svg PUBLIC "-//W3C//DTD SVG 20010904//EN"
 "http://www.w3.org/TR/2001/REC-SVG-20010904/DTD/svg10.dtd">
<svg version="1.0" xmlns="http://www.w3.org/2000/svg"
 width="122.000000pt" height="148.000000pt" viewBox="0 0 122.000000 148.000000"
 preserveAspectRatio="xMidYMid meet">
<metadata>
Created by potrace 1.16, written by Peter Selinger 2001-2019
</metadata>
<g transform="translate(0.000000,148.000000) scale(0.100000,-0.100000)"
fill="#000000" stroke="none">
<path d="M903 1418 c-13 -16 -24 -739 -11 -762 5 -8 3 -25 -4 -41 -8 -19 -9
-28 0 -37 6 -6 8 -18 3 -27 -5 -9 -12 -45 -15 -80 -6 -49 -17 -80 -45 -127
-48 -79 -80 -118 -117 -138 -16 -9 -47 -30 -68 -45 -38 -27 -41 -28 -75 -14
-56 24 -96 55 -142 112 -84 102 -90 122 -89 261 1 63 -2 289 -6 502 -6 343 -9
388 -23 391 -9 2 -72 4 -141 3 l-125 -1 -3 -41 c-4 -52 6 -56 93 -43 37 6 78
8 91 5 22 -6 25 -11 22 -44 l-3 -37 -86 -1 c-108 -1 -119 -5 -119 -44 0 -38 9
-42 117 -44 l88 -1 2 -380 2 -380 28 -51 c38 -69 90 -155 106 -174 19 -24 108
-85 145 -100 17 -7 32 -16 32 -21 0 -23 43 -10 145 44 11 6 32 17 48 25 15 7
40 32 56 55 16 23 43 55 60 70 17 16 31 36 31 46 0 9 4 21 9 26 5 6 21 52 36
102 26 91 26 100 28 405 l2 312 85 -2 c47 -1 91 1 98 6 8 6 12 23 10 43 l-3
34 -92 3 c-82 2 -94 5 -104 23 -8 15 -7 29 2 50 l12 30 84 -2 c46 -1 89 3 94
8 6 6 9 26 7 44 l-3 34 -70 1 c-38 0 -95 4 -126 8 -41 5 -59 4 -66 -6z"/>
<path d="M455 1388 c-3 -8 -4 -63 -3 -124 l3 -109 30 0 30 0 0 120 0 120 -28
3 c-16 2 -29 -2 -32 -10z"/>
<path d="M585 1388 c-3 -8 -4 -63 -3 -124 3 -109 3 -109 28 -109 l25 0 0 120
c0 117 -1 120 -23 123 -12 2 -24 -3 -27 -10z"/>
<path d="M717 1393 c-4 -3 -7 -57 -7 -120 0 -96 3 -115 16 -120 38 -15 47 8
46 120 -1 59 -4 112 -7 117 -7 11 -38 13 -48 3z"/>
</g>
</svg>
