<?xml version="1.0" standalone="no"?>
<!DOCTYPE svg PUBLIC "-//W3C//DTD SVG 20010904//EN"
 "http://www.w3.org/TR/2001/REC-SVG-20010904/DTD/svg10.dtd">
<svg version="1.0" xmlns="http://www.w3.org/2000/svg"
 width="122.000000pt" height="148.000000pt" viewBox="0 0 122.000000 148.000000"
 preserveAspectRatio="xMidYMid meet">
<metadata>
Created by potrace 1.16, written by Peter Selinger 2001-2019
</metadata>
<g transform="translate(0.000000,148.000000) scale(0.100000,-0.100000)"
fill="#000000" stroke="none">
<path d="M638 1376 c-222 -115 -232 -122 -207 -152 16 -19 50 -11 93 20 43 33
191 106 214 106 24 0 42 19 42 46 0 18 -17 34 -35 34 -2 0 -50 -24 -107 -54z"/>
<path d="M50 1394 c-6 -14 -7 -30 -4 -35 3 -6 48 -9 104 -7 55 1 101 0 103 -2
3 -3 8 -29 12 -59 l7 -54 -105 6 c-87 6 -107 4 -117 -8 -10 -12 -10 -21 -2
-40 13 -27 33 -30 129 -16 89 13 83 41 83 -400 l0 -390 31 -62 c32 -62 115
-177 129 -177 4 0 26 -18 48 -39 63 -61 146 -73 219 -32 21 12 50 26 66 32 15
6 27 16 27 23 0 7 13 25 28 42 43 44 122 163 128 193 3 14 9 33 13 41 11 21
26 385 24 589 l-1 163 89 -4 c98 -5 115 4 102 50 -5 19 -13 22 -97 24 l-91 3
-3 39 c-2 22 -1 50 3 63 5 23 8 24 92 22 71 -2 87 1 95 15 21 37 -6 46 -138
46 l-124 0 0 -474 c0 -457 -1 -475 -21 -522 -52 -123 -59 -133 -152 -233 -31
-34 -103 -71 -137 -71 -25 0 -130 79 -167 126 -17 21 -45 67 -62 102 l-31 62
0 495 c0 273 -2 500 -5 505 -4 6 -64 10 -136 10 l-129 0 -10 -26z"/>
<path d="M685 1203 c-33 -19 -93 -55 -134 -79 -40 -24 -78 -44 -83 -44 -17 0
-40 -30 -34 -45 12 -31 36 -24 164 50 72 41 135 74 139 73 35 -7 57 44 31 70
-16 16 -13 16 -83 -25z"/>
<path d="M696 1020 c-15 -5 -36 -15 -45 -23 -22 -20 -137 -77 -154 -77 -23 0
-67 -40 -67 -60 0 -11 8 -24 18 -29 13 -7 42 5 122 50 58 33 124 66 147 75 43
17 56 33 47 59 -7 16 -24 18 -68 5z"/>
</g>
</svg>
