<?xml version="1.0" standalone="no"?>
<!DOCTYPE svg PUBLIC "-//W3C//DTD SVG 20010904//EN"
 "http://www.w3.org/TR/2001/REC-SVG-20010904/DTD/svg10.dtd">
<svg version="1.0" xmlns="http://www.w3.org/2000/svg"
 width="490.000000pt" height="590.000000pt" viewBox="0 0 490.000000 590.000000"
 preserveAspectRatio="xMidYMid meet">
<metadata>
Created by potrace 1.16, written by Peter Selinger 2001-2019
</metadata>
<g transform="translate(0.000000,590.000000) scale(0.500000,-0.500000)"
fill="#000000" stroke="none">
<path d="M584 1138 c-8 -2 -38 -18 -45 -23 -3 -2 -25 -14 -47 -25 -23 -11 -45
-23 -50 -26 -4 -4 -23 -14 -42 -23 -51 -27 -64 -37 -60 -48 8 -20 17 -26 33
-22 7 2 17 5 22 6 7 2 14 5 19 10 10 9 26 19 45 29 8 4 22 12 32 17 10 5 23
12 29 14 6 2 15 8 21 12 5 4 11 7 14 7 3 0 10 3 16 6 7 3 16 7 21 7 34 4 48
22 37 48 -5 11 -27 17 -45 11z"/>
<path d="M55 1134 c-12 -5 -14 -8 -16 -20 -5 -35 10 -44 53 -34 5 1 30 2 55 2
64 0 65 -1 67 -42 1 -14 2 -28 3 -31 3 -12 3 -12 -88 -11 -97 1 -90 2 -91 -24
-1 -31 9 -37 56 -35 16 1 38 2 49 1 14 0 24 1 32 3 12 3 13 3 21 0 16 -7 15
22 15 -324 l0 -308 23 -46 c21 -43 39 -73 50 -82 2 -2 7 -8 11 -13 17 -26 41
-49 70 -69 7 -4 21 -18 43 -42 6 -6 27 -9 74 -10 49 -1 56 0 78 16 6 4 21 12
34 18 27 13 35 19 39 28 4 9 26 37 34 44 4 3 9 9 11 13 1 4 8 13 14 20 7 7 14
16 17 22 3 5 6 11 8 12 5 5 19 25 22 34 2 5 6 12 9 16 3 5 7 12 8 17 1 6 3 13
4 16 1 3 2 7 2 9 0 2 3 10 7 18 6 13 6 13 6 87 0 75 0 75 6 85 5 11 5 11 5 82
0 57 1 73 3 83 4 14 4 22 0 33 -4 12 -4 48 0 61 2 6 3 12 2 17 -4 24 -5 55 -3
65 2 7 2 14 0 27 -8 60 -15 55 72 54 84 -1 79 -3 80 25 1 34 -1 35 -80 34 -66
-2 -67 -2 -69 11 -1 4 -2 12 -4 17 -4 13 -4 41 0 50 1 3 3 9 4 13 2 12 3 13
74 12 77 -1 74 -2 74 22 0 20 -14 28 -44 26 -4 0 -11 0 -14 0 -175 7 -155 31
-155 -184 0 -98 -1 -267 -2 -376 l-1 -199 -7 -15 c-8 -15 -26 -60 -26 -63 0
-1 -4 -7 -8 -14 -5 -7 -8 -15 -9 -21 -1 -8 -4 -11 -18 -26 -10 -9 -21 -22 -25
-28 -22 -31 -28 -38 -37 -49 -19 -21 -56 -45 -72 -47 -7 -1 -14 -4 -19 -8 -18
-13 -51 -1 -83 28 -4 4 -11 9 -15 13 -25 17 -35 25 -44 37 -5 7 -15 19 -21 27
-6 8 -15 19 -20 25 -5 6 -10 15 -12 20 -2 6 -6 13 -8 17 -3 5 -7 11 -8 16 -2
4 -5 10 -7 13 -12 18 -11 -18 -13 421 -1 434 -1 406 -13 408 -3 1 -9 3 -15 4
-17 5 -175 4 -188 -1z"/>
<path d="M582 978 c-25 -14 -52 -30 -85 -49 -7 -3 -15 -7 -20 -8 -4 -1 -10 -4
-15 -8 -4 -3 -10 -8 -14 -10 -4 -2 -10 -6 -13 -8 -3 -2 -9 -6 -13 -7 -5 -1
-12 -5 -16 -9 -5 -4 -11 -7 -13 -8 -3 -1 -7 -2 -10 -2 -20 -4 -36 -30 -28 -45
12 -23 17 -21 91 22 6 4 19 11 29 16 9 5 18 11 20 12 2 1 12 7 22 13 11 6 25
13 30 16 34 21 35 21 50 23 37 3 48 38 17 59 -8 5 -14 4 -32 -7z"/>
<path d="M583 822 c-17 -2 -48 -15 -60 -24 -11 -10 -53 -33 -63 -35 -4 0 -10
-4 -13 -7 -3 -3 -8 -6 -11 -7 -3 -1 -8 -4 -13 -6 -4 -3 -12 -6 -19 -7 -47 -7
-71 -48 -41 -72 10 -8 34 0 60 19 6 3 19 11 30 17 11 5 24 12 28 15 5 3 15 9
24 13 9 5 21 11 27 15 6 4 14 7 19 8 4 1 11 5 16 9 9 8 12 9 29 11 22 3 32 34
15 48 -5 5 -7 5 -28 3z"/>
</g>
</svg>
