<?xml version="1.0" standalone="no"?>
<!DOCTYPE svg PUBLIC "-//W3C//DTD SVG 20010904//EN"
 "http://www.w3.org/TR/2001/REC-SVG-20010904/DTD/svg10.dtd">
<svg version="1.0" xmlns="http://www.w3.org/2000/svg"
 width="600.000000pt" height="590.000000pt" viewBox="0 0 600.000000 590.000000"
 preserveAspectRatio="xMidYMid meet">
<metadata>
Created by potrace 1.16, written by Peter Selinger 2001-2019
</metadata>
<g transform="translate(0.000000,590.000000) scale(0.500000,-0.500000)"
fill="#000000" stroke="none">
<path d="M893 1135 c-3 -2 -9 -6 -12 -9 -4 -3 -11 -7 -15 -8 -4 -1 -14 -5 -20
-8 -7 -3 -14 -6 -16 -6 -2 0 -10 -3 -18 -7 -8 -3 -19 -8 -25 -10 -27 -8 -41
-14 -57 -22 -9 -5 -20 -9 -24 -10 -4 -1 -11 -3 -16 -6 -5 -2 -13 -5 -19 -7 -5
-1 -15 -5 -21 -8 -7 -3 -13 -6 -15 -6 -2 0 -8 -2 -14 -5 -5 -3 -17 -8 -25 -11
-30 -11 -41 -16 -54 -22 -7 -3 -14 -6 -16 -6 -1 0 -7 -3 -14 -6 -7 -3 -13 -6
-14 -6 -4 0 -40 -16 -61 -26 -11 -6 -25 -13 -32 -15 -13 -5 -34 -14 -44 -18
-18 -8 -19 -4 -19 45 1 25 0 39 -2 43 -1 4 -2 20 -2 53 0 55 0 55 -17 69 -13
9 -26 10 -42 1 -5 -3 -12 -6 -15 -7 -3 0 -11 -6 -18 -12 -7 -6 -13 -11 -14
-11 -4 0 -16 -13 -19 -22 -5 -12 -10 -18 -20 -20 -5 -2 -11 -5 -15 -10 -25
-27 -59 -57 -70 -60 -5 -2 -12 -5 -15 -7 -3 -3 -10 -6 -14 -7 -4 -1 -11 -5
-16 -8 -43 -36 -26 -105 19 -76 7 5 14 7 22 8 8 1 14 3 18 6 3 2 9 6 14 8 14
6 15 7 22 18 12 17 32 36 42 39 13 5 20 10 27 22 17 26 51 36 40 12 -1 -2 -2
-24 -3 -47 -1 -48 -1 -49 -17 -57 -3 -2 -14 -11 -24 -21 -13 -12 -21 -18 -25
-19 -4 -1 -11 -4 -17 -7 -5 -3 -13 -6 -17 -7 -4 -1 -10 -6 -20 -15 -15 -17
-27 -24 -36 -24 -27 0 -42 -16 -42 -42 0 -32 28 -49 52 -32 5 4 12 7 15 8 4 1
11 5 15 9 6 5 10 7 15 7 14 0 22 4 29 12 13 14 15 17 25 24 5 5 13 9 17 10 6
2 11 6 19 15 22 25 26 19 24 -40 -1 -38 -1 -42 3 -53 4 -11 4 -14 3 -95 -1
-74 -1 -85 2 -95 1 -6 3 -17 4 -25 1 -8 3 -18 4 -24 2 -5 3 -14 3 -20 0 -6 1
-14 3 -19 2 -6 3 -17 3 -39 0 -21 1 -33 2 -36 2 -2 3 -16 4 -32 1 -17 2 -30 4
-33 1 -3 3 -12 4 -22 2 -14 3 -18 8 -24 6 -7 11 -21 13 -35 1 -4 4 -12 7 -16
3 -4 7 -12 9 -16 2 -5 6 -11 8 -13 3 -3 5 -6 5 -7 0 -13 46 -66 67 -76 6 -3
15 -9 21 -13 12 -8 29 -14 49 -16 8 -1 15 -3 21 -7 8 -5 8 -5 56 -6 74 0 71 0
80 9 8 9 8 9 24 10 15 1 17 2 23 8 5 4 9 6 18 7 14 2 15 2 27 12 4 3 12 7 16
9 11 3 59 48 70 66 4 6 12 15 17 20 6 6 10 12 12 18 2 5 5 12 8 16 3 4 5 9 6
13 1 3 5 10 8 16 4 5 7 12 7 14 0 7 3 15 11 24 7 9 8 11 9 27 1 9 2 17 2 17 0
0 3 4 6 8 5 6 6 9 7 28 1 20 5 42 12 61 1 5 2 27 1 77 0 61 0 71 3 78 2 6 3
15 3 39 0 24 1 34 3 39 2 6 3 16 3 46 0 54 1 56 27 31 11 -11 19 -17 25 -19 5
-2 11 -5 13 -7 8 -7 13 -8 47 -9 53 -2 66 6 63 43 -2 32 -5 34 -43 34 -25 0
-25 0 -33 6 -4 3 -12 7 -16 8 -31 9 -91 66 -91 88 0 4 -1 11 -3 16 -3 9 -5
100 -2 107 3 7 10 2 40 -27 24 -24 32 -30 38 -32 5 -1 11 -4 14 -7 9 -7 14 -9
23 -9 7 0 12 -2 21 -7 27 -17 69 -11 78 12 8 18 -8 45 -25 45 -2 0 -8 3 -14 7
-10 7 -12 7 -29 7 -22 0 -21 0 -50 28 -21 20 -26 24 -34 26 -13 4 -53 41 -60
57 -10 21 -36 34 -52 26z m-25 -139 c0 -75 0 -76 4 -86 6 -14 3 -17 -26 -25
-12 -3 -24 -7 -27 -8 -3 -2 -16 -7 -29 -11 -13 -4 -27 -9 -33 -12 -5 -2 -17
-6 -25 -8 -8 -2 -21 -7 -28 -10 -14 -6 -26 -11 -40 -15 -5 -1 -15 -5 -21 -8
-7 -3 -14 -5 -15 -5 -2 0 -9 -3 -17 -7 -13 -6 -33 -14 -83 -31 -13 -5 -27 -10
-31 -13 -5 -3 -12 -6 -16 -7 -5 -1 -20 -7 -35 -13 -15 -6 -32 -12 -39 -15 -7
-2 -18 -7 -26 -11 -29 -15 -30 -15 -31 53 -1 46 -2 57 -5 64 -10 27 -3 39 31
50 15 5 32 11 39 14 7 3 15 6 19 7 3 1 12 4 19 8 6 3 20 8 29 11 18 6 33 12
50 19 6 3 17 8 24 10 24 9 45 16 58 22 40 17 50 21 52 21 1 0 8 3 15 6 7 3 14
6 15 6 1 0 9 3 19 8 9 4 21 9 26 12 15 6 42 17 59 25 50 23 54 24 64 25 5 0 5
0 4 -76z m16 -212 c0 -55 0 -69 -3 -77 -3 -10 -3 -12 0 -17 4 -8 4 -10 -5 -20
-7 -8 -35 -22 -53 -27 -3 -1 -13 -5 -22 -9 -10 -5 -24 -10 -32 -13 -28 -9 -43
-15 -58 -23 -9 -4 -20 -9 -25 -10 -5 -1 -17 -6 -28 -11 -10 -5 -24 -10 -29
-13 -6 -2 -16 -6 -21 -8 -6 -3 -21 -9 -33 -14 -12 -6 -23 -10 -25 -10 -1 0
-12 -5 -24 -11 -24 -11 -37 -16 -57 -24 -7 -2 -20 -9 -30 -14 -9 -5 -21 -10
-25 -12 -5 -1 -16 -6 -25 -10 -30 -13 -30 -13 -31 92 -1 62 -2 85 -3 88 -7 12
0 21 21 27 8 3 20 7 27 10 11 4 17 6 43 13 6 2 14 5 19 8 8 4 78 29 97 34 6 1
13 5 17 7 3 2 18 8 32 13 38 13 52 18 64 24 10 5 19 8 36 14 5 2 11 4 13 5 3
1 16 6 30 11 13 5 29 11 34 14 5 3 17 8 27 11 10 4 21 8 24 10 44 23 44 23 45
-58z m-3 -166 c1 -1 0 -5 -2 -8 -3 -6 -4 -17 -5 -83 -1 -75 -1 -75 -7 -83 -6
-8 -7 -9 -7 -23 1 -13 -1 -19 -15 -60 -8 -25 -15 -47 -15 -48 0 -17 -30 -75
-48 -92 -4 -3 -10 -11 -14 -17 -14 -20 -28 -32 -47 -37 -5 -1 -16 -6 -23 -11
-8 -4 -15 -8 -16 -8 -1 0 -11 -4 -23 -8 -12 -4 -25 -8 -29 -8 -5 0 -11 -1 -16
-3 -4 -2 -14 -4 -23 -5 -9 -1 -20 -3 -25 -4 -9 -2 -11 -2 -19 0 -6 1 -15 3
-22 4 -36 4 -79 38 -88 69 -2 6 -7 16 -11 23 -13 21 -22 39 -24 49 -1 6 -7 24
-14 40 l-13 30 0 36 c0 40 0 42 12 44 3 1 16 6 29 12 13 6 24 11 26 11 1 0 10
3 19 7 9 4 23 10 31 12 8 3 18 7 21 9 3 2 9 4 13 5 4 1 13 4 20 8 7 4 19 8 26
11 7 2 21 8 32 14 12 5 22 10 23 10 1 0 8 2 14 5 6 3 17 7 24 9 6 2 19 8 29
13 9 5 18 9 19 9 2 0 11 4 21 9 9 5 21 10 26 11 5 1 14 5 21 9 8 4 15 7 16 7
2 0 11 4 21 10 11 5 25 12 32 14 7 2 15 5 18 7 6 3 11 4 13 1z"/>
</g>
</svg>
