<?xml version="1.0" standalone="no"?>
<!DOCTYPE svg PUBLIC "-//W3C//DTD SVG 20010904//EN"
 "http://www.w3.org/TR/2001/REC-SVG-20010904/DTD/svg10.dtd">
<svg version="1.0" xmlns="http://www.w3.org/2000/svg"
 width="100.000000pt" height="99.000000pt" viewBox="0 0 100.000000 99.000000"
 preserveAspectRatio="xMidYMid meet">
<metadata>
Created by potrace 1.16, written by Peter Selinger 2001-2019
</metadata>
<g transform="translate(0.000000,99.000000) scale(0.100000,-0.100000)"
fill="#000000" stroke="none">
<path d="M174 897 c-33 -30 -78 -66 -102 -81 -31 -19 -42 -33 -42 -51 0 -13 4
-26 9 -29 17 -11 65 15 113 60 55 52 74 52 70 3 -3 -42 -22 -61 -104 -108 -61
-36 -80 -63 -60 -83 16 -16 55 -2 106 37 26 19 50 35 55 35 4 0 11 -60 15
-132 13 -261 31 -354 82 -431 77 -117 300 -97 389 36 55 81 75 160 82 325 3
78 10 145 15 148 4 3 20 -4 34 -15 32 -25 86 -27 105 -5 20 24 0 45 -55 59
-69 18 -98 51 -104 119 -5 64 2 68 46 31 46 -38 98 -58 122 -45 39 21 22 49
-41 69 -19 6 -61 34 -91 61 -31 28 -62 50 -68 50 -17 0 -279 -104 -373 -147
-42 -20 -80 -33 -85 -29 -4 4 -9 44 -12 89 -5 74 -7 82 -26 85 -15 2 -41 -14
-80 -51z m544 -77 l-3 -70 -125 -44 c-69 -23 -159 -57 -200 -74 -41 -18 -81
-32 -88 -32 -10 0 -12 16 -10 62 3 60 4 63 33 72 62 20 276 106 322 130 72 38
74 36 71 -44z m19 -126 c3 -8 2 -42 -3 -75 l-9 -60 -145 -58 c-80 -32 -168
-70 -197 -85 -82 -41 -84 -39 -81 55 l3 81 135 48 c74 26 167 61 205 78 83 36
84 36 92 16z m-14 -191 c3 -5 1 -46 -3 -93 -16 -166 -75 -263 -180 -294 -106
-31 -147 -15 -191 77 -37 79 -46 124 -28 142 8 7 71 36 141 64 70 27 153 64
185 80 63 33 70 35 76 24z"/>
</g>
</svg>
