<?xml version="1.0" standalone="no"?>
<!DOCTYPE svg PUBLIC "-//W3C//DTD SVG 20010904//EN"
 "http://www.w3.org/TR/2001/REC-SVG-20010904/DTD/svg10.dtd">
<svg version="1.0" xmlns="http://www.w3.org/2000/svg"
 width="150.000000pt" height="148.000000pt" viewBox="0 0 150.000000 148.000000"
 preserveAspectRatio="xMidYMid meet">
<metadata>
Created by potrace 1.16, written by Peter Selinger 2001-2019
</metadata>
<g transform="translate(0.000000,148.000000) scale(0.100000,-0.100000)"
fill="#000000" stroke="none">
<path d="M345 1407 c-37 -21 -72 -52 -84 -75 -6 -12 -16 -22 -21 -22 -6 0 -27
-16 -48 -36 -21 -20 -61 -48 -88 -62 -44 -24 -49 -31 -52 -66 -2 -21 1 -43 6
-48 18 -18 114 37 185 106 88 86 98 86 90 -1 -5 -62 -8 -71 -42 -101 -20 -18
-50 -39 -68 -46 -17 -8 -41 -24 -52 -35 -12 -12 -32 -21 -46 -21 -44 0 -61
-70 -22 -94 14 -9 26 -6 57 12 21 12 44 22 50 22 11 0 33 17 91 73 41 38 45
27 47 -155 1 -95 9 -211 17 -258 8 -47 17 -123 20 -170 3 -47 11 -98 19 -115
77 -172 109 -205 225 -241 62 -19 165 -18 195 1 13 9 28 15 32 13 20 -6 124
54 157 91 43 48 81 106 92 141 4 14 13 32 20 40 23 28 48 163 50 270 1 104 16
312 22 322 2 4 19 -8 38 -26 28 -28 45 -36 90 -41 69 -9 87 3 83 54 -3 35 -4
36 -53 41 -54 6 -104 32 -149 79 -26 27 -29 38 -34 120 -5 104 1 111 49 56 17
-19 48 -42 68 -51 20 -9 45 -20 57 -26 11 -5 36 -8 55 -6 30 3 34 7 37 34 2
24 -2 33 -23 42 -14 7 -37 12 -50 12 -14 0 -42 15 -64 35 -21 19 -43 35 -49
35 -6 0 -32 25 -58 55 -46 53 -69 65 -90 46 -5 -5 -47 -24 -94 -41 -47 -17
-98 -38 -115 -45 -16 -7 -97 -40 -180 -73 -82 -33 -181 -74 -219 -91 -38 -17
-71 -30 -73 -27 -2 2 -4 60 -4 129 0 121 -1 126 -24 141 -13 9 -26 16 -27 15
-2 -1 -12 -6 -23 -12z m737 -157 c-3 -71 -1 -104 8 -115 10 -12 10 -16 -1 -20
-8 -2 -50 -16 -94 -30 -87 -29 -218 -78 -423 -160 -73 -29 -134 -50 -136 -46
-2 3 -5 51 -7 106 l-4 100 65 22 c36 12 74 27 85 32 11 5 92 37 180 72 88 34
196 79 240 100 44 21 83 38 86 38 3 1 4 -44 1 -99z m16 -302 l-3 -122 -45 -16
c-25 -9 -62 -24 -84 -33 -21 -9 -44 -17 -50 -17 -7 0 -16 -4 -22 -8 -5 -5 -29
-17 -54 -26 -25 -10 -61 -24 -80 -33 -35 -15 -66 -28 -105 -44 -11 -4 -60 -26
-109 -49 -69 -32 -91 -38 -97 -28 -5 7 -9 61 -10 121 -1 59 -2 112 -3 118 -1
12 5 14 159 69 75 26 244 90 320 120 11 4 52 21 90 38 39 17 76 31 83 31 10 1
12 -27 10 -121z m7 -177 c3 -5 1 -12 -5 -16 -6 -3 -10 -46 -10 -97 0 -51 -4
-105 -9 -122 -70 -225 -68 -221 -115 -280 -36 -45 -110 -81 -209 -102 -73 -15
-100 -12 -159 17 -28 15 -43 33 -66 81 -55 116 -73 174 -70 219 l3 43 75 29
c110 43 109 42 183 76 37 17 72 31 77 31 5 0 37 13 72 29 35 16 90 41 123 55
33 14 67 30 75 36 20 12 28 12 35 1z"/>
</g>
</svg>
