<?xml version="1.0" standalone="no"?>
<!DOCTYPE svg PUBLIC "-//W3C//DTD SVG 20010904//EN"
 "http://www.w3.org/TR/2001/REC-SVG-20010904/DTD/svg10.dtd">
<svg version="1.0" xmlns="http://www.w3.org/2000/svg"
 width="122.000000pt" height="148.000000pt" viewBox="0 0 122.000000 148.000000"
 preserveAspectRatio="xMidYMid meet">
<metadata>
Created by potrace 1.16, written by Peter Selinger 2001-2019
</metadata>
<g transform="translate(0.000000,148.000000) scale(0.100000,-0.100000)"
fill="#000000" stroke="none">
<path d="M906 1409 c-10 -29 -14 -733 -5 -751 6 -12 6 -25 -1 -39 -7 -11 -8
-28 -4 -37 4 -9 6 -21 4 -27 -2 -5 -7 -30 -11 -55 -5 -25 -11 -61 -15 -80 -4
-19 -20 -54 -35 -77 -16 -23 -29 -45 -29 -50 0 -12 -80 -93 -92 -93 -6 0 -26
-13 -44 -30 -19 -16 -45 -32 -57 -35 -25 -7 -89 19 -127 50 -39 32 -130 142
-130 157 0 7 -7 23 -15 34 -11 17 -15 68 -16 260 0 132 -4 358 -7 504 l-7 265
-132 2 -133 1 0 -29 c0 -16 1 -32 3 -36 1 -5 47 -8 102 -8 l100 0 0 -40 0 -40
-98 -5 c-104 -5 -122 -14 -107 -54 7 -20 14 -21 103 -19 84 2 97 0 101 -15 3
-10 5 -182 4 -382 l-2 -365 27 -55 c56 -111 126 -210 149 -210 4 0 22 -13 40
-30 17 -16 37 -30 45 -30 8 0 27 -9 41 -19 27 -18 28 -18 72 1 25 11 52 24 60
29 8 5 31 17 50 28 19 10 43 33 52 49 10 16 32 43 50 59 38 33 62 79 89 168 6
22 17 51 23 65 7 17 11 133 12 348 1 177 4 325 7 329 4 3 47 5 97 4 53 -1 90
2 90 8 0 5 3 16 6 24 3 8 -2 22 -11 31 -14 14 -30 15 -94 10 -76 -6 -77 -6
-95 21 -16 25 -16 29 -2 58 l15 32 88 0 88 0 3 38 3 37 -88 0 c-48 0 -105 3
-125 6 -27 5 -39 3 -42 -7z"/>
<path d="M413 1393 c-9 -3 -13 -37 -13 -118 0 -107 1 -114 21 -120 12 -4 25
-3 30 2 5 5 8 61 7 124 -3 117 -8 128 -45 112z"/>
<path d="M533 1393 c-9 -3 -13 -37 -13 -118 0 -107 1 -114 21 -120 12 -4 25
-3 30 2 5 5 8 61 7 124 -3 117 -8 128 -45 112z"/>
<path d="M651 1391 c-21 -14 -20 -221 1 -235 8 -5 23 -6 32 -3 24 9 24 232 0
241 -19 7 -16 8 -33 -3z"/>
<path d="M762 1392 c-9 -6 -12 -38 -10 -123 3 -102 5 -114 22 -117 31 -6 37
12 38 123 1 81 -3 109 -13 116 -17 11 -21 11 -37 1z"/>
</g>
</svg>
