<?xml version="1.0" standalone="no"?>
<!DOCTYPE svg PUBLIC "-//W3C//DTD SVG 20010904//EN"
 "http://www.w3.org/TR/2001/REC-SVG-20010904/DTD/svg10.dtd">
<svg version="1.0" xmlns="http://www.w3.org/2000/svg"
 width="82.000000pt" height="100.000000pt" viewBox="0 0 82.000000 100.000000"
 preserveAspectRatio="xMidYMid meet">
<metadata>
Created by potrace 1.16, written by Peter Selinger 2001-2019
</metadata>
<g transform="translate(0.000000,100.000000) scale(0.100000,-0.100000)"
fill="#000000" stroke="none">
<path d="M42 951 c-8 -5 -12 -17 -10 -27 3 -16 13 -19 58 -20 80 -2 80 -2 80
-29 0 -26 -4 -28 -62 -25 -56 2 -78 -8 -78 -36 0 -23 3 -24 70 -24 l70 0 0
-262 0 -263 36 -60 c45 -76 68 -101 123 -136 57 -37 81 -36 146 1 71 40 121
104 151 192 23 67 24 85 24 289 0 165 3 218 13 222 6 3 32 2 57 0 34 -4 49 -1
59 11 25 30 6 45 -61 48 -63 3 -63 3 -63 33 0 30 0 30 63 33 66 3 86 18 62 47
-9 11 -34 15 -91 15 -73 0 -79 -1 -84 -22 -2 -13 -6 -158 -8 -323 -3 -325 -4
-331 -64 -418 -30 -43 -102 -97 -129 -97 -31 0 -86 43 -129 101 l-42 57 -8
339 c-4 205 -11 343 -17 351 -12 14 -145 17 -166 3z"/>
<path d="M274 937 c-3 -8 -4 -45 -2 -83 2 -54 7 -69 19 -72 19 -3 28 54 21
126 -4 42 -26 59 -38 29z"/>
<path d="M357 944 c-4 -4 -7 -43 -7 -86 0 -72 2 -78 20 -78 20 0 21 5 18 82
-3 75 -12 100 -31 82z"/>
<path d="M437 944 c-4 -4 -7 -43 -7 -86 0 -72 2 -78 20 -78 20 0 21 5 18 82
-3 75 -12 100 -31 82z"/>
<path d="M508 908 c-7 -72 2 -129 21 -126 24 5 24 161 0 166 -13 2 -18 -7 -21
-40z"/>
</g>
</svg>
