<?xml version="1.0" standalone="no"?>
<!DOCTYPE svg PUBLIC "-//W3C//DTD SVG 20010904//EN"
 "http://www.w3.org/TR/2001/REC-SVG-20010904/DTD/svg10.dtd">
<svg version="1.0" xmlns="http://www.w3.org/2000/svg"
 width="486.000000pt" height="590.000000pt" viewBox="0 0 486.000000 590.000000"
 preserveAspectRatio="xMidYMid meet">
<metadata>
Created by potrace 1.16, written by Peter Selinger 2001-2019
</metadata>
<g transform="translate(0.000000,590.000000) scale(0.500000,-0.500000)"
fill="#000000" stroke="none">
<path d="M736 1134 c-20 -7 -18 4 -18 -135 0 -71 -1 -130 -2 -140 -2 -10 -2
-22 -2 -28 0 -5 1 -33 1 -60 0 -73 0 -78 0 -101 0 -15 -1 -23 -3 -29 -7 -16
-4 -94 4 -108 8 -14 8 -22 0 -36 -7 -13 -7 -21 -1 -32 6 -10 6 -16 -1 -28 -6
-9 -6 -11 -6 -32 0 -19 -1 -25 -6 -42 -3 -11 -6 -24 -6 -29 0 -6 -2 -13 -5
-20 -11 -19 -22 -37 -32 -52 -6 -8 -12 -19 -13 -23 -2 -5 -9 -15 -23 -29 -12
-12 -21 -23 -21 -24 0 -8 -17 -19 -35 -24 -6 -1 -11 -5 -16 -11 -31 -33 -67
-48 -87 -36 -6 4 -15 8 -20 9 -13 3 -38 16 -42 22 -8 12 -11 14 -21 17 -9 2
-10 3 -13 12 -3 7 -7 13 -13 18 -5 4 -11 12 -13 16 -2 6 -8 12 -15 17 -6 4
-14 13 -18 19 -4 5 -9 12 -11 15 -2 3 -5 10 -5 16 -1 8 -4 14 -13 28 l-11 17
-1 79 c0 76 0 79 4 88 4 10 4 10 0 18 -4 8 -4 11 -4 131 0 100 -1 124 -3 132
-3 12 -4 46 -6 223 -2 149 2 132 -35 135 -36 2 -32 2 -55 -1 -11 -1 -23 -2
-26 -2 -104 5 -104 5 -104 -29 0 -31 38 -44 79 -27 47 19 86 3 86 -34 0 -37 7
-34 -67 -34 -92 0 -98 -2 -98 -32 0 -29 7 -32 93 -30 77 1 79 -1 75 -49 0 -9
-1 -109 -1 -222 0 -178 0 -208 -3 -221 -4 -18 -4 -59 0 -77 2 -8 3 -22 3 -32
0 -20 0 -20 13 -34 4 -4 8 -13 11 -22 4 -12 9 -23 24 -44 21 -31 32 -49 39
-65 8 -17 37 -45 51 -50 9 -3 14 -7 20 -14 10 -12 34 -28 46 -31 5 -1 12 -4
16 -6 4 -2 9 -5 12 -6 2 -1 8 -5 13 -9 13 -11 20 -12 36 -4 7 3 14 6 16 6 4 0
12 4 21 12 6 4 11 6 18 7 13 1 20 5 25 12 4 4 19 13 37 21 11 4 28 20 28 25 0
3 4 9 9 14 5 6 10 12 11 15 1 3 13 15 27 28 27 24 39 42 42 59 1 4 5 15 9 24
4 9 9 20 10 25 1 5 4 15 7 23 3 8 5 16 5 19 0 7 8 32 13 39 3 4 4 10 5 23 1 9
2 20 4 23 2 6 3 222 1 384 -2 124 -12 108 69 107 82 -1 85 0 87 26 3 36 -3 38
-78 38 -72 -1 -68 -2 -78 14 -11 18 -12 31 -4 43 4 4 7 11 8 14 3 16 12 20 32
14 9 -3 17 -3 38 -2 34 2 34 2 48 1 26 -1 33 6 33 32 0 29 1 29 -53 28 -31 0
-43 1 -51 3 -7 2 -20 3 -32 3 -13 0 -25 1 -31 3 -12 4 -14 4 -27 -1z"/>
<path d="M332 1112 c-10 -4 -10 -7 -10 -94 0 -98 -1 -93 26 -93 27 0 25 -7 25
94 -1 100 1 93 -22 94 -8 1 -16 0 -19 -1z"/>
<path d="M427 1112 c-9 -3 -9 -6 -9 -95 0 -99 -2 -93 25 -93 27 0 26 -5 25 95
0 101 1 94 -23 94 -7 1 -16 0 -18 -1z"/>
<path d="M517 1112 c-7 -3 -13 -159 -7 -178 4 -11 38 -14 46 -4 4 4 6 160 3
174 -3 9 -26 13 -42 8z"/>
<path d="M611 1112 c-9 -3 -9 -6 -9 -95 0 -97 -1 -90 18 -92 32 -4 32 -5 32
94 0 98 -4 108 -41 93z"/>
</g>
</svg>
