<?xml version="1.0" standalone="no"?>
<!DOCTYPE svg PUBLIC "-//W3C//DTD SVG 20010904//EN"
 "http://www.w3.org/TR/2001/REC-SVG-20010904/DTD/svg10.dtd">
<svg version="1.0" xmlns="http://www.w3.org/2000/svg"
 width="100.000000pt" height="95.000000pt" viewBox="0 0 100.000000 95.000000"
 preserveAspectRatio="xMidYMid meet">
<metadata>
Created by potrace 1.16, written by Peter Selinger 2001-2019
</metadata>
<g transform="translate(0.000000,95.000000) scale(0.100000,-0.100000)"
fill="#000000" stroke="none">
<path d="M34 886 c-3 -8 -4 -23 -2 -33 3 -15 14 -18 78 -18 41 0 81 -4 88 -8
6 -5 12 -26 12 -47 l0 -39 -87 -3 c-86 -3 -88 -3 -88 -28 0 -24 2 -25 80 -28
48 -2 82 -8 87 -15 4 -7 8 -93 8 -192 0 -177 0 -181 26 -218 24 -37 25 -39 9
-57 -26 -29 -54 -34 -75 -15 -36 33 -64 0 -39 -47 8 -15 8 -23 -1 -32 -9 -8
-17 -4 -36 17 -17 20 -30 27 -44 22 -26 -8 -26 -39 1 -76 34 -49 75 -41 158
31 39 33 73 60 78 60 4 0 32 -27 63 -60 l56 -60 59 0 c79 1 139 28 191 87 l42
47 87 -67 c48 -37 96 -67 105 -67 23 0 72 57 68 79 -5 23 -36 26 -59 5 -26
-23 -46 -6 -30 24 6 11 11 28 11 36 0 20 -34 21 -50 1 -18 -21 -34 -19 -69 10
l-30 26 25 54 c32 69 44 148 44 298 l0 118 68 -1 c97 -2 94 -3 90 28 -3 27 -4
27 -66 24 -75 -3 -92 7 -92 55 0 42 14 48 84 36 65 -12 79 -5 74 33 l-3 29
-94 3 c-56 2 -98 -1 -105 -8 -6 -6 -13 -113 -17 -272 -6 -259 -13 -313 -45
-347 -11 -12 -25 -5 -94 47 -54 41 -91 62 -109 62 -19 0 -50 -19 -99 -60 -40
-33 -76 -60 -81 -60 -5 0 -16 11 -25 25 -14 21 -16 64 -16 314 0 254 -2 290
-16 295 -9 3 -60 6 -115 6 -78 0 -101 -3 -105 -14z m543 -621 c40 -31 73 -58
73 -61 0 -21 -44 -62 -95 -85 -68 -33 -85 -35 -124 -15 -29 16 -91 80 -91 96
0 11 139 120 153 120 6 0 43 -25 84 -55z"/>
<path d="M412 488 c3 -56 20 -72 38 -38 18 33 4 90 -21 90 -18 0 -20 -6 -17
-52z"/>
<path d="M537 534 c-9 -9 -9 -67 -1 -88 9 -24 33 -19 40 8 13 54 -12 107 -39
80z"/>
</g>
</svg>
