<?xml version="1.0" standalone="no"?>
<!DOCTYPE svg PUBLIC "-//W3C//DTD SVG 20010904//EN"
 "http://www.w3.org/TR/2001/REC-SVG-20010904/DTD/svg10.dtd">
<svg version="1.0" xmlns="http://www.w3.org/2000/svg"
 width="156.000000pt" height="148.000000pt" viewBox="0 0 156.000000 148.000000"
 preserveAspectRatio="xMidYMid meet">
<metadata>
Created by potrace 1.16, written by Peter Selinger 2001-2019
</metadata>
<g transform="translate(0.000000,148.000000) scale(0.100000,-0.100000)"
fill="#000000" stroke="none">
<path d="M65 1392 c-3 -3 -5 -27 -5 -54 0 -48 0 -48 28 -41 15 3 70 8 123 10
71 3 98 1 106 -9 6 -7 13 -42 14 -78 l4 -65 -126 -1 c-69 0 -131 -4 -137 -8
-7 -4 -12 -22 -12 -39 0 -27 5 -35 32 -45 21 -8 35 -8 44 -1 7 5 51 9 101 7
l88 -3 5 -305 c5 -293 6 -307 28 -348 12 -23 31 -48 42 -54 11 -7 20 -16 20
-19 0 -8 -104 -87 -125 -95 -9 -4 -22 6 -36 30 -11 20 -24 36 -27 36 -4 -1
-20 -11 -36 -24 l-29 -24 31 -39 c30 -39 31 -40 11 -56 -30 -26 -45 -21 -74
28 l-26 46 -30 -21 c-39 -28 -37 -55 8 -112 34 -42 43 -47 78 -47 36 -1 51 8
160 99 66 55 125 100 130 100 6 0 33 -30 60 -65 28 -36 70 -80 95 -97 42 -31
50 -33 128 -32 49 0 87 5 94 12 7 7 22 12 34 12 12 0 24 7 28 15 3 8 15 15 26
15 11 0 20 4 20 9 0 5 11 13 24 18 23 8 96 93 96 112 0 24 34 18 68 -12 83
-74 240 -187 260 -187 22 0 102 88 102 112 0 18 -32 48 -51 48 -8 0 -23 -14
-32 -30 -20 -33 -38 -38 -61 -14 -21 21 -20 26 9 54 32 30 31 41 -4 68 l-30
22 -18 -24 c-10 -13 -22 -31 -28 -41 -9 -14 -16 -12 -65 24 -30 22 -60 45 -67
51 -15 12 -8 34 25 77 13 18 26 51 29 73 3 22 10 43 14 46 5 3 9 18 9 33 0 15
4 31 10 37 5 5 10 109 11 248 l2 239 124 -5 c122 -5 123 -5 129 18 14 56 9 59
-120 59 -110 0 -119 2 -127 20 -12 32 -10 100 4 119 14 19 31 19 184 0 44 -5
52 -3 56 13 5 15 4 63 -1 85 -3 10 -304 0 -315 -11 -5 -5 -8 -137 -7 -303 0
-187 -3 -305 -10 -323 -8 -20 -7 -37 2 -62 10 -28 10 -38 -2 -56 -8 -12 -15
-38 -16 -57 -3 -60 -30 -139 -57 -166 l-27 -26 -47 39 c-110 90 -210 161 -238
167 -27 6 -41 -3 -130 -75 -55 -44 -114 -94 -132 -111 l-31 -30 -37 57 -36 57
2 439 c2 283 -1 443 -7 449 -11 11 -329 22 -339 12z m831 -974 c110 -82 145
-118 115 -118 -5 0 -20 -20 -32 -45 -14 -28 -29 -45 -40 -45 -10 0 -35 -12
-56 -26 -21 -14 -50 -28 -66 -31 -15 -3 -30 -10 -33 -14 -3 -5 -21 -9 -41 -9
-25 0 -54 13 -104 46 -38 26 -69 51 -69 56 0 5 -12 25 -26 43 -14 19 -23 39
-19 44 3 6 47 42 98 80 51 37 101 78 112 89 11 11 24 21 29 21 4 1 64 -41 132
-91z"/>
<path d="M752 358 c-16 -16 -16 -135 1 -141 28 -10 37 6 37 68 0 66 -15 96
-38 73z"/>
<path d="M652 288 c2 -57 6 -73 18 -73 10 0 17 14 20 45 8 69 1 100 -22 100
-17 0 -19 -7 -16 -72z"/>
<path d="M837 354 c-13 -14 -8 -132 6 -137 29 -11 38 9 35 74 -2 48 -7 65 -18
67 -9 1 -19 0 -23 -4z"/>
<path d="M654 827 c-3 -8 -4 -45 -2 -83 3 -61 5 -69 23 -69 18 0 20 7 20 80 0
68 -3 80 -18 83 -9 2 -20 -3 -23 -11z"/>
<path d="M753 833 c-18 -7 -18 -137 0 -151 23 -20 35 2 38 68 4 81 -4 97 -38
83z"/>
<path d="M841 826 c-19 -23 -10 -136 12 -150 27 -17 38 9 35 89 -2 55 -6 70
-19 73 -9 1 -21 -4 -28 -12z"/>
</g>
</svg>
