<?xml version="1.0" standalone="no"?>
<!DOCTYPE svg PUBLIC "-//W3C//DTD SVG 20010904//EN"
 "http://www.w3.org/TR/2001/REC-SVG-20010904/DTD/svg10.dtd">
<svg version="1.0" xmlns="http://www.w3.org/2000/svg"
 width="114.000000pt" height="148.000000pt" viewBox="0 0 114.000000 148.000000"
 preserveAspectRatio="xMidYMid meet">
<metadata>
Created by potrace 1.16, written by Peter Selinger 2001-2019
</metadata>
<g transform="translate(0.000000,148.000000) scale(0.100000,-0.100000)"
fill="#000000" stroke="none">
<path d="M48 1429 c-20 -11 -24 -39 -7 -56 6 -6 35 -9 75 -5 43 3 69 1 79 -8
19 -16 21 -116 3 -123 -7 -3 -42 -2 -78 0 -70 6 -95 -7 -88 -44 3 -15 16 -19
83 -23 l80 -5 1 -355 c0 -312 3 -359 17 -387 9 -18 17 -40 17 -50 0 -34 69
-147 120 -197 27 -27 50 -53 50 -58 0 -4 5 -8 11 -8 6 0 31 -13 56 -30 47 -32
106 -40 120 -16 4 7 40 35 78 61 85 57 185 161 185 193 0 5 9 21 21 36 29 37
33 87 34 409 0 158 3 287 7 287 29 0 148 152 148 189 0 9 9 34 20 56 25 50 26
81 1 88 -28 7 -34 -1 -60 -78 -28 -80 -94 -185 -118 -185 -11 0 -14 6 -9 23 3
12 6 29 6 38 0 9 12 29 26 45 32 36 53 75 76 139 22 60 22 52 -1 65 -27 14
-51 2 -51 -26 0 -31 -24 -89 -41 -99 -9 -6 -11 6 -6 57 6 63 5 66 -18 72 -52
13 -50 31 -52 -492 l-2 -487 -33 -65 c-33 -65 -104 -144 -201 -221 l-48 -39
-42 27 c-67 42 -86 57 -87 69 0 6 -17 24 -37 41 -25 20 -46 51 -61 90 -13 32
-30 73 -38 91 -11 27 -14 120 -14 507 l0 475 -89 0 c-49 0 -95 2 -103 5 -7 2
-21 0 -30 -6z"/>
</g>
</svg>
