<?xml version="1.0" standalone="no"?>
<!DOCTYPE svg PUBLIC "-//W3C//DTD SVG 20010904//EN"
 "http://www.w3.org/TR/2001/REC-SVG-20010904/DTD/svg10.dtd">
<svg version="1.0" xmlns="http://www.w3.org/2000/svg"
 width="77.000000pt" height="100.000000pt" viewBox="0 0 77.000000 100.000000"
 preserveAspectRatio="xMidYMid meet">
<metadata>
Created by potrace 1.16, written by Peter Selinger 2001-2019
</metadata>
<g transform="translate(0.000000,100.000000) scale(0.100000,-0.100000)"
fill="#000000" stroke="none">
<path d="M24 955 c-10 -24 6 -33 61 -37 50 -3 50 -3 50 -38 l0 -35 -55 -5
c-47 -4 -55 -8 -58 -27 -3 -20 2 -22 50 -25 l53 -3 6 -250 c6 -260 9 -283 54
-355 23 -37 94 -106 138 -135 16 -10 36 -15 50 -11 42 10 155 106 194 164 34
52 37 63 44 157 4 55 8 156 8 224 l1 124 36 35 c42 40 84 128 84 173 0 49 -29
32 -53 -31 -21 -59 -53 -110 -68 -110 -17 0 -9 37 16 74 39 58 57 97 51 112
-9 24 -37 15 -47 -16 -6 -16 -15 -30 -20 -30 -5 0 -9 14 -9 30 0 25 -4 30 -24
30 l-25 0 -3 -332 -3 -333 -30 -53 c-29 -53 -133 -152 -160 -152 -26 0 -114
92 -142 148 l-28 57 -5 330 -5 330 -78 3 c-64 2 -78 0 -83 -13z"/>
</g>
</svg>
