<?xml version="1.0" standalone="no"?>
<!DOCTYPE svg PUBLIC "-//W3C//DTD SVG 20010904//EN"
 "http://www.w3.org/TR/2001/REC-SVG-20010904/DTD/svg10.dtd">
<svg version="1.0" xmlns="http://www.w3.org/2000/svg"
 width="456.000000pt" height="590.000000pt" viewBox="0 0 456.000000 590.000000"
 preserveAspectRatio="xMidYMid meet">
<metadata>
Created by potrace 1.16, written by Peter Selinger 2001-2019
</metadata>
<g transform="translate(0.000000,590.000000) scale(0.500000,-0.500000)"
fill="#000000" stroke="none">
<path d="M41 1144 c-8 -3 -9 -9 -9 -28 1 -27 -3 -25 67 -25 75 0 67 6 67 -52
0 -54 8 -49 -65 -49 -70 -1 -69 -1 -69 -29 -1 -27 13 -31 82 -27 14 1 42 -3
44 -6 3 -3 3 -293 1 -450 -1 -57 -1 -77 1 -83 1 -4 3 -18 4 -30 1 -17 2 -22 6
-27 9 -11 12 -19 13 -40 2 -18 3 -22 7 -28 3 -4 9 -14 14 -23 5 -9 11 -19 14
-23 3 -4 7 -12 9 -19 3 -12 27 -39 49 -55 3 -2 9 -9 13 -15 4 -6 11 -13 16
-16 5 -4 11 -10 13 -15 4 -6 8 -10 17 -15 7 -3 16 -9 20 -12 4 -3 9 -5 10 -5
3 0 25 -16 32 -24 7 -6 7 -6 35 -6 37 0 37 0 46 21 2 3 4 6 6 7 26 12 44 22
50 27 4 4 9 8 12 9 3 1 12 8 20 15 8 7 19 14 23 17 9 4 31 26 41 40 3 5 10 11
14 14 4 3 10 10 14 19 5 9 10 16 17 20 9 7 13 15 13 27 0 10 8 27 17 33 11 9
13 15 14 40 1 17 3 26 7 40 7 21 9 78 3 94 -4 10 -4 17 0 29 3 10 3 232 0 308
-2 34 -2 34 14 41 23 10 51 40 69 74 5 9 14 23 19 31 7 8 12 19 14 26 2 6 5
16 7 22 2 6 4 12 4 14 0 2 3 8 7 14 7 11 10 19 17 48 6 27 3 33 -18 35 -20 3
-28 -4 -31 -24 -1 -6 -4 -17 -8 -25 -10 -21 -18 -44 -20 -53 -2 -10 -11 -29
-18 -35 -3 -3 -8 -10 -11 -16 -22 -43 -60 -67 -49 -31 2 5 3 17 4 25 1 15 1
15 18 32 43 45 82 144 63 161 -16 15 -47 3 -49 -19 -1 -18 -6 -35 -17 -56 -13
-26 -17 -18 -16 30 2 50 1 51 -33 50 -28 -1 -34 -15 -23 -52 5 -18 5 -49 1
-66 -4 -14 -4 -54 0 -67 4 -13 4 -31 -1 -49 -5 -18 -5 -36 -1 -54 3 -11 3 -13
0 -24 -4 -16 -4 -128 0 -143 4 -13 4 -39 0 -53 -3 -8 -3 -15 -2 -29 1 -10 1
-20 1 -23 0 -3 -1 -48 -2 -100 -1 -70 -2 -96 -4 -99 -1 -3 -2 -9 -2 -14 0 -13
-3 -25 -9 -33 -3 -3 -11 -17 -17 -29 -7 -12 -14 -27 -18 -32 -3 -5 -6 -11 -6
-12 0 -2 -5 -9 -11 -16 -7 -7 -15 -17 -19 -22 -5 -7 -13 -13 -23 -19 -15 -9
-65 -58 -65 -64 0 -2 -8 -5 -17 -7 -3 -1 -10 -5 -15 -10 -16 -15 -25 -17 -36
-7 -4 3 -8 6 -10 6 -8 0 -19 6 -34 18 -40 32 -41 33 -43 43 -3 10 -10 19 -16
19 -7 0 -17 7 -21 14 -3 4 -8 11 -12 15 -9 10 -17 23 -20 35 -1 5 -5 12 -8 17
-3 4 -6 10 -7 13 -1 3 -5 11 -8 18 -5 8 -7 15 -7 20 0 5 -3 14 -10 27 l-10 20
0 375 c0 206 -1 376 -2 377 -4 7 -10 7 -91 7 -45 0 -84 -1 -86 -2z"/>
</g>
</svg>
