<?xml version="1.0" standalone="no"?>
<!DOCTYPE svg PUBLIC "-//W3C//DTD SVG 20010904//EN"
 "http://www.w3.org/TR/2001/REC-SVG-20010904/DTD/svg10.dtd">
<svg version="1.0" xmlns="http://www.w3.org/2000/svg"
 width="124.000000pt" height="148.000000pt" viewBox="0 0 124.000000 148.000000"
 preserveAspectRatio="xMidYMid meet">
<metadata>
Created by potrace 1.16, written by Peter Selinger 2001-2019
</metadata>
<g transform="translate(0.000000,148.000000) scale(0.100000,-0.100000)"
fill="#000000" stroke="none">
<path d="M90 1345 l0 -35 69 0 c74 0 81 -5 81 -58 0 -47 -12 -54 -81 -50 l-64
3 -3 -34 -3 -33 71 3 72 4 -1 -275 c-1 -156 3 -316 9 -370 11 -84 17 -103 55
-167 74 -122 221 -232 310 -233 72 0 254 158 330 288 l46 77 -3 345 -2 345 70
-3 c74 -4 101 9 88 42 -7 18 -4 17 -94 19 l-65 2 -3 46 c-4 56 12 74 52 59 69
-26 134 2 103 44 -10 14 -28 16 -112 14 l-100 -3 -5 -445 c-5 -450 -7 -466
-45 -546 -30 -63 -41 -59 -37 11 8 119 -5 188 -48 254 -39 60 -77 89 -135 101
-26 5 -30 11 -33 42 l-3 37 93 3 93 3 3 44 c2 24 -2 49 -7 54 -6 6 -11 24 -11
39 0 18 -5 28 -15 28 -10 0 -15 -16 -17 -62 -3 -63 -3 -63 -35 -66 l-32 -3 -3
63 c-4 78 -22 83 -26 8 -3 -58 -15 -81 -32 -64 -7 7 -8 48 -4 117 l7 106 86 3
86 3 0 95 c0 88 -1 95 -20 95 -18 0 -20 -7 -22 -65 -1 -36 -2 -71 -2 -77 -1
-7 -12 -13 -26 -13 -25 0 -25 1 -25 81 0 71 -2 80 -17 77 -15 -3 -18 -15 -18
-77 0 -59 -4 -76 -17 -85 -26 -16 -30 -4 -32 81 -1 71 -3 78 -21 78 -18 0 -20
-7 -20 -80 l0 -80 -30 0 -30 0 0 80 c0 73 -2 80 -20 80 -18 0 -20 -7 -22 -65
-1 -36 -2 -71 -2 -77 -1 -8 -14 -13 -31 -13 l-29 0 -3 78 c-3 69 -5 77 -23 77
-19 0 -20 -5 -16 -95 2 -52 5 -97 8 -100 2 -3 47 -7 99 -8 l95 -4 -3 -106 c-3
-107 -3 -107 -28 -107 -24 0 -25 3 -25 60 0 48 -3 60 -17 63 -14 3 -17 -7 -20
-60 l-3 -63 -35 0 -35 0 -3 63 c-3 53 -6 63 -20 60 -14 -3 -17 -16 -17 -83 l0
-80 103 -3 103 -3 -3 -37 c-2 -30 -7 -38 -27 -40 -13 -2 -47 -27 -76 -55 -45
-46 -54 -62 -74 -135 -23 -79 -25 -158 -8 -247 2 -11 2 -14 0 -7 -3 6 -9 12
-14 12 -5 0 -23 27 -39 61 l-31 60 4 460 c2 302 0 462 -7 469 -5 5 -54 10
-108 10 l-98 0 0 -35z m490 -736 c0 -105 -6 -108 -68 -39 -31 35 -41 53 -35
64 13 23 84 76 94 70 5 -3 9 -45 9 -95z m131 43 c16 -18 29 -36 29 -40 0 -15
-112 -142 -120 -137 -7 4 -7 158 -1 227 2 15 65 -19 92 -50z m-131 -221 c0
-19 -109 -131 -127 -131 -37 0 -42 165 -7 232 l16 31 59 -59 c32 -32 59 -65
59 -73z m205 26 c4 -53 3 -92 -5 -111 l-11 -29 -54 53 c-30 30 -55 58 -55 64
0 13 103 115 111 110 4 -2 10 -41 14 -87z m-82 -136 c40 -42 46 -54 38 -70
-13 -23 -84 -81 -100 -81 -7 0 -11 32 -11 94 0 52 -3 102 -7 111 -10 28 26 3
80 -54z m-114 -61 c1 -87 1 -90 -22 -90 -23 0 -97 54 -97 71 0 14 92 109 106
109 8 0 12 -28 13 -90z"/>
</g>
</svg>
