<?xml version="1.0" standalone="no"?>
<!DOCTYPE svg PUBLIC "-//W3C//DTD SVG 20010904//EN"
 "http://www.w3.org/TR/2001/REC-SVG-20010904/DTD/svg10.dtd">
<svg version="1.0" xmlns="http://www.w3.org/2000/svg"
 width="84.000000pt" height="100.000000pt" viewBox="0 0 84.000000 100.000000"
 preserveAspectRatio="xMidYMid meet">
<metadata>
Created by potrace 1.16, written by Peter Selinger 2001-2019
</metadata>
<g transform="translate(0.000000,100.000000) scale(0.100000,-0.100000)"
fill="#000000" stroke="none">
<path d="M62 913 c3 -25 8 -29 48 -33 40 -4 45 -8 45 -30 0 -22 -5 -25 -40
-28 -77 -6 -86 -52 -10 -52 40 0 43 -2 49 -31 3 -17 6 -123 6 -236 0 -150 4
-212 14 -236 21 -49 75 -112 135 -157 90 -68 149 -54 257 61 23 24 53 62 68
84 l26 40 0 211 c0 116 3 226 6 243 6 31 8 32 48 26 32 -5 45 -3 56 10 19 23
3 33 -55 37 -48 3 -50 4 -50 33 0 29 2 30 50 33 58 4 74 14 55 37 -10 12 -28
15 -79 13 -60 -3 -66 -5 -72 -28 -4 -14 -7 -150 -8 -303 -1 -224 -4 -285 -16
-314 -8 -20 -18 -33 -21 -30 -4 3 -10 37 -14 76 -10 89 -38 137 -97 163 -64
28 -56 52 20 56 l57 3 0 44 c0 80 -23 103 -34 34 -5 -31 -10 -40 -24 -37 -11
2 -18 14 -20 36 -2 24 -8 32 -20 30 -13 -2 -17 5 -17 32 l0 35 57 3 57 3 7 44
c8 54 -1 95 -21 95 -10 0 -15 -14 -17 -47 -4 -63 -28 -71 -28 -9 0 42 -13 66
-28 52 -3 -4 -6 -26 -7 -49 0 -62 -19 -62 -23 1 -2 36 -7 52 -17 52 -14 0 -32
-61 -22 -77 3 -5 1 -15 -4 -23 -14 -23 -29 6 -29 58 0 31 -4 42 -15 42 -11 0
-15 -12 -15 -51 0 -43 -3 -50 -17 -47 -14 2 -19 15 -21 51 -2 34 -7 47 -18 47
-12 0 -14 -13 -12 -67 l3 -68 60 -5 60 -5 3 -67 c2 -56 0 -68 -13 -68 -10 0
-15 10 -15 29 0 43 -18 47 -26 6 -4 -25 -12 -35 -25 -35 -13 0 -19 9 -21 38
-5 58 -23 44 -26 -20 l-3 -58 65 0 c36 0 68 -5 71 -11 8 -12 -22 -49 -40 -49
-18 0 -52 -41 -70 -84 -9 -21 -19 -70 -22 -109 l-6 -69 -18 23 c-17 22 -19 50
-19 345 l0 322 -22 6 c-13 3 -47 6 -76 6 -52 0 -53 -1 -50 -27z m424 -490 c5
-18 -1 -32 -22 -54 -15 -16 -31 -29 -36 -29 -9 0 -11 114 -2 123 12 11 55 -17
60 -40z m-119 -99 l27 -36 -42 -40 c-23 -21 -47 -36 -53 -32 -12 7 -7 113 6
133 12 20 34 11 62 -25z m161 -29 c4 -60 -7 -72 -41 -45 -33 26 -34 46 -5 77
30 33 42 24 46 -32z m-53 -80 c30 -29 31 -39 5 -65 -36 -36 -50 -26 -50 35 0
61 9 67 45 30z m-85 -45 c0 -54 -4 -58 -38 -34 -28 19 -28 32 0 61 31 34 38
29 38 -27z"/>
</g>
</svg>
