<?xml version="1.0" standalone="no"?>
<!DOCTYPE svg PUBLIC "-//W3C//DTD SVG 20010904//EN"
 "http://www.w3.org/TR/2001/REC-SVG-20010904/DTD/svg10.dtd">
<svg version="1.0" xmlns="http://www.w3.org/2000/svg"
 width="498.000000pt" height="590.000000pt" viewBox="0 0 498.000000 590.000000"
 preserveAspectRatio="xMidYMid meet">
<metadata>
Created by potrace 1.16, written by Peter Selinger 2001-2019
</metadata>
<g transform="translate(0.000000,590.000000) scale(0.500000,-0.500000)"
fill="#000000" stroke="none">
<path d="M806 1104 c-84 -1 -72 54 -72 -341 1 -343 0 -364 -8 -374 -4 -7 -13
-33 -15 -46 -2 -10 -5 -17 -11 -22 -2 -2 -5 -7 -6 -11 -3 -8 -18 -34 -20 -34
0 0 -1 25 0 56 0 45 0 59 -3 71 -1 9 -4 24 -5 33 -1 9 -3 20 -3 23 -2 11 -19
43 -33 63 -8 11 -14 20 -14 21 0 4 -34 35 -43 40 -5 2 -17 8 -26 13 -13 7 -17
8 -27 8 -19 0 -21 3 -21 32 0 33 -7 30 69 30 81 0 73 -5 73 44 0 34 0 37 -4
43 -3 4 -5 11 -6 21 -1 18 -5 24 -13 24 -12 0 -13 -4 -13 -50 0 -52 2 -49 -28
-49 -29 0 -27 -3 -27 48 0 46 -2 51 -14 51 -13 0 -14 -3 -14 -50 0 -43 -1 -46
-9 -49 -15 -4 -15 -3 -13 129 0 57 -8 51 69 51 81 0 72 -10 73 77 2 80 1 84
-17 84 -14 0 -15 -3 -15 -63 0 -66 1 -62 -22 -62 -24 0 -23 -3 -21 59 1 62 -1
69 -21 65 -11 -2 -12 -7 -11 -67 2 -63 2 -63 -18 -63 -18 0 -18 -2 -16 62 1
67 -1 72 -23 68 -14 -2 -14 -2 -14 -67 1 -68 3 -63 -22 -64 -28 -1 -27 -4 -26
65 0 66 1 66 -16 66 -16 0 -16 -2 -16 -56 0 -63 0 -62 -3 -66 -3 -2 -8 -3 -23
-3 -30 0 -28 -4 -28 62 0 62 0 62 -17 62 -18 0 -27 -48 -13 -71 5 -9 6 -31 0
-42 -20 -40 -4 -49 89 -49 81 0 70 12 72 -83 2 -88 2 -85 -15 -91 -27 -10 -30
-6 -30 44 0 48 -2 56 -13 56 -10 0 -11 -4 -11 -52 -1 -56 1 -53 -36 -52 -32 1
-30 -2 -30 48 0 52 -3 61 -19 57 -10 -3 -11 -6 -11 -69 l-1 -59 9 -4 c9 -5 10
-5 80 -5 85 0 77 3 77 -31 0 -29 1 -28 -21 -33 -20 -5 -31 -11 -47 -26 -7 -6
-15 -13 -18 -16 -16 -10 -50 -67 -54 -87 -1 -5 -3 -12 -5 -18 -2 -5 -5 -17 -7
-26 -2 -9 -6 -20 -8 -24 -6 -11 -7 -74 -2 -93 13 -51 5 -58 -23 -19 -2 4 -5
10 -7 15 -2 5 -6 13 -10 20 -15 24 -14 -2 -10 562 2 188 2 201 -4 206 -7 6
-36 8 -99 8 -76 0 -72 1 -72 -27 0 -32 -1 -31 63 -31 56 1 52 4 53 -33 1 -50
1 -50 -57 -48 -57 2 -59 1 -59 -26 0 -27 0 -27 62 -25 62 2 54 37 53 -229 -1
-172 -1 -226 1 -233 1 -5 3 -20 4 -34 5 -76 6 -82 10 -89 2 -3 9 -17 16 -30
12 -23 20 -37 29 -47 2 -3 8 -13 14 -22 10 -19 11 -19 48 -55 21 -19 27 -24
42 -31 11 -5 21 -12 28 -18 22 -20 74 -42 103 -42 34 -1 35 -1 45 7 6 3 15 9
22 13 15 8 61 43 79 61 5 4 14 12 20 16 18 13 32 28 71 75 14 18 24 32 26 38
3 8 11 24 20 37 22 32 20 6 20 314 1 202 1 274 3 276 2 1 18 2 58 1 66 -1 65
-1 64 24 0 21 -8 29 -25 25 -12 -3 -94 -1 -97 2 -14 14 -1 84 15 82 97 -8 105
-6 108 16 4 34 0 35 -107 33z m-342 -542 c2 -4 5 -126 2 -137 -2 -14 -5 -13
-45 27 -44 44 -46 49 -28 66 41 39 63 53 71 44z m61 -4 c48 -19 81 -61 65 -82
-4 -4 -13 -15 -20 -24 -7 -9 -15 -17 -17 -19 -3 -2 -7 -7 -9 -11 -2 -5 -11
-15 -20 -23 -26 -26 -26 -27 -26 74 0 101 -2 96 27 85z m-104 -153 c61 -62 61
-53 1 -114 -26 -26 -49 -48 -52 -48 -17 -5 -36 60 -28 100 12 64 16 80 26 100
5 7 10 3 53 -38z m206 15 c0 -7 2 -19 3 -26 18 -125 3 -151 -54 -96 -55 52
-55 43 -1 96 48 47 49 48 52 26z m-91 -130 c72 -70 75 -77 48 -104 -34 -34
-70 -53 -74 -40 -2 6 -2 159 -1 161 4 3 10 0 27 -17z m-64 -13 c2 -6 1 -120
-1 -132 -2 -11 -17 -10 -32 1 -4 3 -12 8 -16 10 -9 4 -39 34 -39 38 0 7 13 23
45 56 36 36 40 39 43 27z"/>
</g>
</svg>
