<?xml version="1.0" standalone="no"?>
<!DOCTYPE svg PUBLIC "-//W3C//DTD SVG 20010904//EN"
 "http://www.w3.org/TR/2001/REC-SVG-20010904/DTD/svg10.dtd">
<svg version="1.0" xmlns="http://www.w3.org/2000/svg"
 width="108.000000pt" height="148.000000pt" viewBox="0 0 108.000000 148.000000"
 preserveAspectRatio="xMidYMid meet">
<metadata>
Created by potrace 1.16, written by Peter Selinger 2001-2019
</metadata>
<g transform="translate(0.000000,148.000000) scale(0.100000,-0.100000)"
fill="#000000" stroke="none">
<path d="M54 1407 c-3 -8 -4 -229 -2 -493 l3 -479 48 -94 c37 -70 64 -108 109
-150 83 -77 167 -131 202 -131 29 0 103 42 119 68 5 7 30 36 57 65 55 59 84
98 130 176 53 90 60 136 60 401 l0 239 26 18 c53 36 165 149 178 178 38 88 46
189 17 204 -25 14 -259 10 -271 -4 -5 -7 -11 -200 -12 -456 -3 -400 -5 -447
-21 -479 -49 -98 -90 -157 -165 -239 -98 -106 -118 -113 -186 -58 -23 18 -60
45 -84 60 -23 15 -42 33 -42 41 0 7 -9 21 -21 32 -24 22 -45 59 -73 129 -17
44 -20 80 -22 303 -3 245 2 302 27 302 7 0 27 11 45 25 18 14 37 25 43 25 6 0
11 5 11 10 0 6 20 32 44 58 50 53 78 124 80 204 l1 53 -148 3 c-117 2 -148 0
-153 -11z m231 -47 c16 -26 -18 -40 -91 -40 -75 0 -95 10 -74 35 15 18 155 21
165 5z m675 -2 c-1 -34 -17 -41 -85 -36 -68 6 -93 17 -81 37 10 16 166 15 166
-1z m-22 -84 c7 -2 12 -14 10 -26 -3 -21 -9 -23 -85 -26 l-83 -3 0 29 c0 16 2
31 5 33 5 6 133 0 153 -7z m-664 -3 c4 -5 3 -16 0 -24 -7 -20 -164 -29 -171
-9 -13 33 5 42 86 42 44 0 82 -4 85 -9z m-74 -105 c0 -19 -57 -66 -80 -66 -21
0 -34 31 -25 60 5 16 15 20 56 20 35 0 49 -4 49 -14z m670 7 c0 -11 -66 -63
-79 -63 -12 0 -15 53 -4 63 9 10 83 9 83 0z"/>
</g>
</svg>
