<?xml version="1.0" standalone="no"?>
<!DOCTYPE svg PUBLIC "-//W3C//DTD SVG 20010904//EN"
 "http://www.w3.org/TR/2001/REC-SVG-20010904/DTD/svg10.dtd">
<svg version="1.0" xmlns="http://www.w3.org/2000/svg"
 width="430.000000pt" height="590.000000pt" viewBox="0 0 430.000000 590.000000"
 preserveAspectRatio="xMidYMid meet">
<metadata>
Created by potrace 1.16, written by Peter Selinger 2001-2019
</metadata>
<g transform="translate(0.000000,590.000000) scale(0.500000,-0.500000)"
fill="#000000" stroke="none">
<path d="M190 1137 c-1 -1 -29 -1 -63 -1 -68 0 -81 -3 -84 -14 -1 -5 -1 -78
-4 -529 l-2 -198 7 -14 c5 -12 6 -17 6 -31 0 -13 1 -16 4 -21 3 -3 7 -9 9 -12
2 -4 7 -11 10 -16 4 -5 8 -13 8 -17 2 -7 15 -37 21 -46 2 -3 4 -8 6 -12 1 -3
4 -10 8 -14 3 -4 7 -11 10 -15 2 -5 6 -10 9 -12 5 -3 12 -10 47 -42 5 -5 13
-13 17 -18 6 -7 14 -13 23 -18 8 -4 19 -11 24 -16 5 -5 14 -11 19 -14 6 -3 13
-8 16 -11 31 -27 75 -25 110 6 3 3 13 9 21 15 15 10 24 19 37 42 4 6 7 10 13
12 10 5 17 12 25 26 5 9 10 14 18 20 10 7 14 12 22 33 2 5 8 12 15 18 14 12
26 29 32 45 2 6 9 18 15 27 12 17 22 43 24 61 0 7 5 23 9 37 10 28 10 17 8
278 0 135 -1 125 14 136 5 3 14 8 20 10 10 4 14 7 20 14 4 5 12 14 19 20 7 7
13 14 15 17 2 3 6 7 10 9 21 13 56 53 59 67 1 4 4 11 6 15 4 5 6 12 7 23 3 26
7 43 12 50 14 18 6 71 -12 81 -13 6 -203 7 -213 0 -9 -5 -9 18 -11 -361 -1
-388 1 -341 -20 -386 -4 -10 -8 -19 -8 -20 0 -1 -3 -5 -6 -9 -11 -13 -28 -43
-30 -53 -3 -14 -40 -62 -53 -70 -2 0 -7 -6 -11 -13 -4 -6 -13 -16 -20 -23 -7
-7 -17 -18 -24 -26 -6 -8 -18 -22 -28 -31 l-16 -17 -23 0 c-24 0 -54 16 -72
37 -4 6 -10 10 -18 14 -29 13 -59 37 -67 52 -3 6 -12 18 -21 28 -8 9 -15 17
-15 18 0 3 -12 26 -15 30 -6 7 -17 32 -18 42 -1 6 -3 14 -6 19 -15 26 -19 63
-18 165 1 81 1 114 0 161 -5 119 1 147 28 147 1 0 5 3 9 7 4 4 10 8 17 10 8 2
13 5 19 12 6 6 12 11 18 13 7 2 10 5 12 10 10 23 14 27 37 49 19 17 25 24 28
31 2 5 5 14 8 19 15 32 17 39 17 51 0 6 2 17 4 24 8 27 5 69 -6 77 -5 3 -85 5
-88 2z m29 -44 c8 -5 12 -14 8 -21 -9 -18 -131 -18 -133 0 -2 20 100 37 125
21z m543 2 c4 -4 3 -21 -2 -27 -4 -6 -76 -9 -90 -3 -5 2 -12 3 -17 3 -19 0
-23 8 -11 20 9 9 112 15 120 7z m-63 -73 c58 -2 57 -2 57 -22 0 -20 0 -20 -66
-20 -65 0 -63 -1 -63 23 0 18 4 24 15 22 4 -1 30 -2 57 -3z m-484 -4 c5 -5 3
-32 -4 -32 -1 0 -13 0 -26 0 -13 0 -40 -1 -59 -2 -39 -2 -40 -2 -43 11 -2 7 4
23 10 25 7 3 118 2 122 -2z m-58 -76 c15 -12 -29 -56 -56 -56 -17 0 -19 2 -19
26 0 23 3 28 20 28 5 0 13 1 18 3 10 3 33 3 37 -1z m531 -6 c5 -3 0 -8 -11
-14 -6 -2 -17 -11 -25 -18 -21 -20 -24 -19 -24 8 0 23 38 38 60 24z"/>
</g>
</svg>
