<?xml version="1.0" standalone="no"?>
<!DOCTYPE svg PUBLIC "-//W3C//DTD SVG 20010904//EN"
 "http://www.w3.org/TR/2001/REC-SVG-20010904/DTD/svg10.dtd">
<svg version="1.0" xmlns="http://www.w3.org/2000/svg"
 width="73.000000pt" height="100.000000pt" viewBox="0 0 73.000000 100.000000"
 preserveAspectRatio="xMidYMid meet">
<metadata>
Created by potrace 1.16, written by Peter Selinger 2001-2019
</metadata>
<g transform="translate(0.000000,100.000000) scale(0.100000,-0.100000)"
fill="#000000" stroke="none">
<path d="M85 960 l-50 -5 0 -335 c0 -333 0 -335 24 -380 37 -71 66 -104 132
-154 89 -67 105 -65 200 32 101 103 129 158 140 281 4 53 8 138 9 190 l0 95
66 60 c61 56 68 66 79 121 19 91 13 96 -98 93 l-92 -3 -10 -310 c-10 -304 -11
-311 -36 -359 -33 -63 -128 -174 -156 -182 -25 -7 -118 57 -152 105 -55 77
-61 104 -61 298 l0 183 39 25 c58 36 108 107 121 172 7 30 8 59 3 63 -11 11
-96 16 -158 10z"/>
</g>
</svg>
