<?xml version="1.0" standalone="no"?>
<!DOCTYPE svg PUBLIC "-//W3C//DTD SVG 20010904//EN"
 "http://www.w3.org/TR/2001/REC-SVG-20010904/DTD/svg10.dtd">
<svg version="1.0" xmlns="http://www.w3.org/2000/svg"
 width="92.000000pt" height="100.000000pt" viewBox="0 0 92.000000 100.000000"
 preserveAspectRatio="xMidYMid meet">
<metadata>
Created by potrace 1.16, written by Peter Selinger 2001-2019
</metadata>
<g transform="translate(0.000000,100.000000) scale(0.100000,-0.100000)"
fill="#000000" stroke="none">
<path d="M33 703 c4 -230 7 -265 27 -323 24 -70 81 -157 153 -232 45 -46 150
-108 183 -108 44 0 202 150 234 222 23 54 50 204 50 283 l0 60 80 70 c44 39
87 85 96 103 9 19 18 67 21 108 l6 74 -131 0 c-95 0 -132 -3 -135 -12 -2 -7
-2 -103 1 -214 6 -243 2 -257 -54 -182 -21 28 -59 66 -82 83 -40 27 -51 30
-121 30 -73 0 -80 -2 -122 -34 -25 -19 -65 -62 -88 -95 -37 -51 -45 -57 -53
-42 -6 10 -7 38 -3 64 5 35 15 54 43 80 145 136 152 146 159 247 l6 75 -138 0
-138 0 6 -257z m194 202 c3 -9 3 -18 0 -21 -12 -12 -84 -15 -112 -4 -29 11
-29 12 -11 26 27 20 115 19 123 -1z m582 6 c25 -16 1 -31 -49 -31 -64 0 -84 8
-69 26 13 16 96 19 118 5z m-591 -79 c7 -5 10 -16 6 -25 -5 -13 -19 -17 -59
-17 -29 0 -60 3 -69 6 -19 7 -21 30 -3 37 20 9 111 7 125 -1z m570 2 c30 -9
28 -32 -5 -45 -41 -15 -113 -3 -113 20 0 10 3 21 7 24 8 9 80 9 111 1z m-448
-305 c0 -69 -3 -89 -12 -83 -59 32 -118 80 -116 93 4 18 93 81 114 81 11 0 14
-20 14 -91z m146 37 l37 -32 -62 -48 c-34 -27 -64 -46 -66 -44 -8 8 -18 146
-12 162 8 21 54 5 103 -38z m-269 -99 c15 -12 48 -36 73 -51 42 -28 43 -30 25
-43 -11 -7 -41 -29 -68 -48 -26 -19 -54 -35 -62 -35 -37 0 -57 102 -34 169 13
37 28 39 66 8z m353 7 c8 -8 15 -50 18 -92 6 -108 -3 -114 -92 -56 -38 24 -73
44 -77 44 -4 0 -9 7 -13 15 -4 10 5 19 27 29 18 8 48 28 67 45 40 35 52 37 70
15z m-149 -150 c7 -9 37 -30 67 -46 34 -20 52 -36 50 -46 -4 -21 -98 -92 -120
-92 -15 0 -18 9 -18 48 0 26 -3 71 -6 100 -7 54 2 66 27 36z m-78 -26 c14 -75
19 -156 11 -161 -5 -2 -18 -1 -29 3 -26 10 -117 90 -113 100 4 10 110 90 119
90 4 0 9 -15 12 -32z"/>
</g>
</svg>
