<?xml version="1.0" standalone="no"?>
<!DOCTYPE svg PUBLIC "-//W3C//DTD SVG 20010904//EN"
 "http://www.w3.org/TR/2001/REC-SVG-20010904/DTD/svg10.dtd">
<svg version="1.0" xmlns="http://www.w3.org/2000/svg"
 width="542.000000pt" height="590.000000pt" viewBox="0 0 542.000000 590.000000"
 preserveAspectRatio="xMidYMid meet">
<metadata>
Created by potrace 1.16, written by Peter Selinger 2001-2019
</metadata>
<g transform="translate(0.000000,590.000000) scale(0.500000,-0.500000)"
fill="#000000" stroke="none">
<path d="M284 1139 c-1 0 -48 -1 -106 -1 -98 0 -106 -1 -115 -4 -5 -2 -11 -4
-13 -4 -11 0 -10 12 -9 -223 0 -119 1 -220 1 -224 0 -4 -1 -22 -1 -38 -1 -29
-1 -31 4 -41 4 -10 5 -12 4 -27 -1 -13 -1 -19 2 -25 2 -5 3 -15 4 -34 0 -27 0
-27 10 -47 6 -11 13 -28 16 -38 3 -10 7 -23 9 -30 2 -7 4 -14 5 -17 1 -7 11
-24 22 -39 5 -7 11 -16 14 -21 3 -5 12 -15 19 -23 8 -8 15 -18 18 -22 2 -5 6
-11 9 -14 2 -3 6 -9 8 -13 1 -4 7 -10 13 -15 5 -4 10 -8 10 -9 0 -1 5 -7 11
-14 6 -7 11 -14 11 -15 0 -3 12 -14 19 -18 8 -4 13 -10 13 -17 0 -8 7 -15 15
-17 4 -1 8 -3 10 -6 7 -10 13 -15 24 -18 8 -2 14 -6 24 -16 11 -9 19 -15 36
-22 45 -22 56 -27 65 -34 16 -13 44 -9 70 11 5 4 14 9 21 12 8 4 18 11 29 22
9 8 21 17 25 20 8 4 19 14 19 18 0 1 3 3 6 5 14 9 90 86 91 93 3 13 9 24 19
31 14 10 20 19 22 33 1 8 3 15 7 19 6 8 15 32 17 48 2 10 6 25 11 37 2 3 4 12
5 19 1 7 3 15 4 17 2 4 3 15 3 38 0 33 0 33 8 49 l8 16 0 90 c0 102 0 99 17
102 17 3 52 30 57 44 0 2 6 7 11 11 9 6 22 22 22 26 0 1 5 5 11 8 7 4 21 16
32 26 11 11 23 21 26 23 5 3 9 8 15 20 4 9 10 19 14 22 10 9 12 15 12 32 0 12
1 18 4 25 2 5 4 12 4 15 0 4 2 12 5 18 6 14 7 126 0 132 -4 5 -20 5 -29 0 -7
-4 -13 -4 -135 -4 -147 0 -141 1 -140 -21 1 -9 0 -15 -6 -42 -3 -12 -3 -14 0
-23 2 -5 3 -13 3 -17 0 -4 2 -11 4 -15 4 -8 4 -11 3 -23 -2 -25 -2 -35 1 -44
3 -10 2 -25 -3 -34 -2 -3 -3 -11 -3 -17 0 -7 -1 -19 -2 -27 -3 -16 0 -35 7
-53 4 -11 4 -28 0 -40 -3 -8 -4 -21 -4 -73 -1 -51 -2 -65 -4 -75 -3 -10 -3
-12 0 -21 3 -10 4 -26 1 -32 -3 -6 -9 -1 -12 10 -1 4 -5 11 -8 15 -3 4 -7 11
-8 16 -1 4 -5 11 -8 15 -3 4 -7 10 -8 13 -4 8 -41 48 -50 54 -4 2 -15 11 -25
20 -9 9 -20 18 -24 19 -4 2 -11 8 -17 14 -6 5 -14 10 -18 11 -4 1 -14 5 -23 9
-9 5 -18 8 -20 8 -3 0 -10 2 -16 4 -8 3 -17 4 -29 4 -11 0 -21 1 -28 3 -10 3
-11 3 -20 0 -5 -2 -15 -3 -22 -3 -7 0 -17 -2 -21 -3 -4 -2 -14 -5 -20 -6 -11
-2 -15 -4 -24 -13 -6 -5 -14 -11 -17 -11 -22 -5 -109 -82 -119 -106 -1 -3 -5
-10 -9 -14 -3 -4 -9 -13 -12 -19 -4 -7 -10 -15 -14 -18 -5 -4 -8 -8 -8 -9 0
-2 -2 -9 -5 -15 -3 -7 -6 -19 -6 -26 l-2 -13 -4 14 c-1 8 -3 18 -3 22 0 6 -2
10 -6 16 -11 13 -12 60 -1 74 6 8 6 14 2 23 -4 5 -4 6 1 16 2 6 5 17 6 23 2
13 5 18 16 23 4 2 10 7 14 11 4 4 11 9 16 12 9 5 25 20 30 28 1 3 5 5 10 6 5
1 11 2 13 2 5 2 21 25 23 35 3 11 46 56 57 60 6 2 11 9 11 16 0 2 3 8 7 12 20
27 24 38 25 73 1 25 2 33 5 38 2 6 3 13 3 47 0 56 0 56 -45 56 -14 0 -27 0
-27 -1z m603 -55 c22 0 48 0 57 0 10 0 18 -1 19 -2 7 -6 0 -36 -9 -38 -11 -3
-97 -2 -105 1 -4 2 -16 4 -26 5 -25 2 -27 4 -19 17 7 11 28 20 39 17 2 0 22
-1 44 0z m-620 -3 c14 -6 15 -29 1 -37 -7 -4 -143 -3 -150 1 -17 9 -8 28 15
31 7 1 15 3 18 5 8 4 105 5 116 0z m552 -90 c7 -4 19 -5 87 -5 49 0 48 1 48
-24 0 -27 2 -26 -90 -26 -79 1 -73 -1 -73 30 0 28 8 35 28 25z m-556 -6 c2 -1
3 -4 3 -18 0 -26 8 -23 -75 -24 -40 0 -75 -1 -79 -2 -19 -4 -22 35 -4 45 6 2
148 2 155 -1z m-75 -96 c15 -7 -5 -43 -33 -57 -4 -3 -11 -7 -14 -10 -26 -22
-48 -8 -47 29 1 30 1 30 25 33 10 1 21 3 24 5 7 4 38 4 45 0z m679 -9 c9 -3 0
-15 -13 -17 -7 -1 -12 -5 -30 -22 -30 -28 -33 -28 -33 6 0 22 3 29 12 33 6 2
58 2 64 0z m-462 -135 c11 -8 6 -238 -5 -232 -3 2 -7 3 -9 3 -1 0 -7 4 -12 8
-5 4 -11 8 -15 9 -3 1 -10 5 -15 9 -5 4 -10 8 -11 8 -1 0 -7 4 -13 9 -6 5 -13
9 -14 9 -1 0 -9 6 -18 14 -8 8 -18 16 -23 18 -4 2 -8 5 -10 7 -1 2 -7 4 -13 6
-20 6 -24 15 -12 26 3 4 8 9 10 13 2 4 6 8 8 9 8 4 27 24 28 30 2 6 4 8 15 11
10 3 22 9 31 15 3 3 10 6 15 7 5 1 12 6 17 10 14 13 17 14 30 14 7 0 14 -1 16
-3z m63 -8 c7 -3 15 -8 18 -9 3 -2 9 -4 15 -5 11 -1 30 -9 37 -16 3 -2 10 -7
16 -10 6 -2 17 -11 25 -19 9 -9 18 -15 22 -17 7 -2 8 -3 11 -11 1 -5 5 -10 8
-12 13 -10 8 -17 -22 -31 -14 -7 -22 -12 -25 -16 -2 -3 -6 -6 -11 -7 -9 -2
-11 -5 -13 -13 -1 -8 -3 -10 -13 -13 -6 -2 -9 -4 -12 -11 -5 -8 -13 -14 -24
-16 -3 -1 -13 -7 -21 -15 -24 -22 -25 -22 -26 24 0 26 -1 35 -4 41 -5 13 -4
156 2 160 5 4 2 4 17 -4z m194 -152 c1 -4 5 -9 9 -12 6 -6 7 -8 7 -14 0 -12 3
-21 10 -26 6 -5 6 -5 6 -32 0 -21 1 -29 4 -39 6 -18 6 -58 0 -76 -2 -7 -5 -19
-7 -27 -4 -16 -13 -29 -20 -29 -5 0 -30 12 -38 18 -3 3 -11 8 -17 11 -6 3 -14
8 -17 12 -4 4 -9 7 -12 8 -11 2 -15 5 -19 11 -7 15 -14 20 -27 22 -10 1 -13 2
-17 8 -3 3 -14 10 -25 16 -25 13 -27 15 -27 24 0 11 12 22 24 22 10 0 13 2 22
10 3 3 7 6 9 6 7 0 17 8 21 16 2 4 6 8 9 9 2 2 8 5 11 8 4 4 11 9 16 12 6 3
14 10 19 17 16 21 55 37 59 25z m-433 -3 c3 -3 10 -8 16 -11 6 -3 12 -9 16
-16 5 -7 10 -12 15 -15 4 -2 8 -5 10 -7 4 -5 13 -9 19 -9 7 0 15 -4 16 -8 2
-6 12 -14 27 -22 34 -18 50 -30 50 -37 0 -7 -11 -19 -20 -20 -11 -2 -28 -11
-32 -17 -3 -3 -8 -7 -13 -9 -4 -2 -10 -6 -12 -9 -2 -3 -9 -8 -16 -12 -8 -4
-14 -8 -15 -11 -1 -2 -5 -5 -8 -7 -3 -1 -12 -9 -20 -16 -24 -22 -44 -30 -44
-19 0 4 -8 13 -16 18 -4 3 -10 10 -14 16 -4 7 -9 15 -13 19 -4 6 -6 11 -7 21
-1 7 -3 15 -5 17 -4 7 -4 45 0 56 2 4 4 12 5 18 1 6 3 15 5 19 1 4 3 13 3 20
0 33 31 57 53 41z m240 -170 c6 -2 10 -4 14 -9 3 -4 10 -9 17 -13 12 -6 17
-10 28 -24 2 -3 5 -6 7 -6 1 0 8 -5 15 -11 6 -6 13 -11 15 -12 2 0 6 -1 9 -2
3 -1 10 -5 16 -10 7 -6 13 -9 18 -10 5 -1 12 -4 18 -9 5 -4 11 -8 14 -9 11 -3
16 -22 8 -29 -3 -1 -8 -7 -13 -11 -5 -5 -9 -9 -11 -9 -1 0 -5 -4 -9 -10 -5 -6
-11 -11 -19 -16 -7 -4 -20 -13 -28 -21 -10 -10 -17 -15 -22 -16 -3 -1 -17 -7
-29 -13 -32 -16 -47 -15 -47 4 0 4 -1 31 -1 61 0 53 0 54 -5 63 -5 10 -8 33
-6 44 2 6 2 10 -1 16 -4 11 -6 41 -3 49 2 6 3 6 15 3z m-61 -7 c1 -1 2 -25 2
-53 0 -48 0 -52 4 -59 2 -4 5 -12 5 -17 1 -5 3 -14 5 -21 3 -9 4 -17 4 -40 0
-21 1 -29 3 -34 12 -22 -33 -32 -52 -11 -2 2 -6 4 -10 5 -18 4 -29 13 -72 56
-59 58 -61 64 -24 83 4 2 11 8 16 12 4 4 12 9 16 12 4 2 13 8 18 13 6 5 14 9
18 10 5 1 9 3 12 9 12 15 26 27 43 37 5 3 10 2 12 -2z"/>
</g>
</svg>
