<?xml version="1.0" standalone="no"?>
<!DOCTYPE svg PUBLIC "-//W3C//DTD SVG 20010904//EN"
 "http://www.w3.org/TR/2001/REC-SVG-20010904/DTD/svg10.dtd">
<svg version="1.0" xmlns="http://www.w3.org/2000/svg"
 width="77.000000pt" height="100.000000pt" viewBox="0 0 77.000000 100.000000"
 preserveAspectRatio="xMidYMid meet">
<metadata>
Created by potrace 1.16, written by Peter Selinger 2001-2019
</metadata>
<g transform="translate(0.000000,100.000000) scale(0.100000,-0.100000)"
fill="#000000" stroke="none">
<path d="M155 940 c-4 -6 -4 -31 0 -56 8 -59 -11 -58 -48 2 -18 31 -33 44 -45
42 -33 -6 -23 -42 33 -112 l55 -69 0 -231 c0 -224 1 -233 25 -283 30 -66 104
-146 159 -173 23 -11 47 -20 53 -20 20 0 102 72 145 128 80 101 78 93 78 352
l0 231 55 71 c58 74 65 101 28 106 -16 2 -27 -7 -44 -39 -35 -63 -49 -62 -49
5 0 49 -2 56 -20 56 -22 0 -24 -6 -20 -67 1 -24 -3 -43 -8 -43 -6 0 -21 19
-34 43 -15 27 -30 42 -43 42 -37 0 -28 -38 23 -102 l49 -60 6 -123 c14 -252 7
-380 -21 -380 -5 0 -12 27 -15 60 -12 112 -79 197 -145 186 -19 -3 -45 -12
-59 -21 -32 -21 -72 -109 -74 -160 -1 -22 -4 -53 -8 -70 -7 -29 -7 -30 -19 -8
-8 15 -12 90 -12 250 0 253 -2 241 74 348 39 56 42 85 9 85 -11 0 -27 -17 -42
-45 -13 -25 -29 -44 -34 -42 -6 2 -11 25 -11 52 -1 38 -5 50 -18 53 -9 2 -19
-2 -23 -8z m277 -507 c23 -21 23 -52 -1 -80 -30 -36 -41 -28 -41 30 0 70 9 80
42 50z m-108 -109 c38 -37 38 -52 3 -90 -39 -42 -57 -39 -57 10 0 85 20 115
54 80z m160 -10 c3 -9 6 -33 6 -55 0 -32 -3 -39 -19 -39 -20 0 -51 35 -51 57
0 15 35 53 49 53 5 0 12 -7 15 -16z m-34 -128 c12 -24 11 -28 -11 -52 -22 -23
-24 -24 -36 -8 -14 19 -17 62 -7 88 8 21 35 6 54 -28z"/>
</g>
</svg>
