<?xml version="1.0" standalone="no"?>
<!DOCTYPE svg PUBLIC "-//W3C//DTD SVG 20010904//EN"
 "http://www.w3.org/TR/2001/REC-SVG-20010904/DTD/svg10.dtd">
<svg version="1.0" xmlns="http://www.w3.org/2000/svg"
 width="456.000000pt" height="590.000000pt" viewBox="0 0 456.000000 590.000000"
 preserveAspectRatio="xMidYMid meet">
<metadata>
Created by potrace 1.16, written by Peter Selinger 2001-2019
</metadata>
<g transform="translate(0.000000,590.000000) scale(0.500000,-0.500000)"
fill="#000000" stroke="none">
<path d="M676 1114 c-12 -3 -12 -3 -12 -68 1 -71 1 -68 -3 -68 -3 0 -17 17
-27 34 -4 5 -11 16 -16 24 -5 7 -14 20 -19 28 -22 33 -35 36 -57 14 -12 -13
-15 -8 37 -78 55 -76 79 -109 82 -117 2 -5 3 -32 2 -150 0 -79 0 -160 1 -179
9 -168 7 -198 -22 -254 -16 -30 -21 -30 -20 -3 0 11 -1 28 -2 37 -1 9 -3 24
-4 33 -1 9 -3 22 -4 29 -1 7 -3 21 -4 30 -2 17 -4 26 -8 33 -1 2 -5 10 -8 17
-3 8 -9 19 -13 25 -5 7 -10 16 -13 21 -6 13 -25 33 -36 39 -5 3 -15 11 -22 18
-24 23 -54 27 -89 12 -10 -4 -22 -9 -26 -11 -21 -9 -63 -57 -75 -85 -4 -9 -9
-20 -11 -25 -3 -5 -5 -11 -5 -12 0 -2 -3 -11 -7 -20 -13 -30 -17 -91 -11 -163
3 -32 2 -34 -13 -15 -17 23 -23 34 -30 57 l-7 22 1 267 c0 268 0 268 5 276 3
5 13 19 21 31 9 12 24 34 35 49 20 28 42 59 57 79 16 22 16 30 -2 43 -19 14
-31 13 -41 -5 -8 -12 -22 -35 -32 -49 -4 -6 -13 -20 -20 -31 -24 -37 -24 -37
-24 43 0 76 2 71 -23 72 -29 1 -27 4 -27 -71 1 -87 3 -87 -55 0 -35 54 -38 56
-61 41 -22 -15 -22 -23 5 -57 9 -11 20 -25 24 -31 4 -6 24 -33 44 -60 20 -27
38 -51 39 -54 2 -4 3 -43 2 -243 -1 -309 -1 -288 3 -303 4 -15 20 -52 27 -63
3 -4 7 -12 10 -18 3 -5 8 -14 12 -19 5 -6 10 -16 13 -23 7 -15 12 -22 32 -42
9 -9 21 -21 26 -27 6 -7 16 -14 24 -19 8 -4 20 -13 26 -19 11 -10 33 -23 71
-43 22 -12 53 -9 65 6 4 5 12 12 18 15 11 7 29 22 60 52 11 11 27 25 34 32 8
7 19 17 23 24 4 6 11 16 15 21 4 6 11 16 16 22 5 7 13 17 18 23 9 11 18 27 35
66 11 24 11 19 10 364 -1 178 -1 191 3 198 1 4 23 34 47 67 86 118 83 113 68
127 -28 27 -28 27 -92 -72 -32 -50 -32 -50 -32 35 0 60 0 65 -4 68 -4 4 -24 6
-34 3z m-182 -582 c23 -12 52 -48 52 -65 0 -4 -26 -41 -38 -54 -4 -4 -9 -12
-11 -16 -2 -4 -6 -10 -9 -12 -3 -2 -8 -7 -10 -10 -5 -8 -9 -10 -12 -6 -3 3 -2
164 1 169 2 3 11 1 27 -6z m-66 3 c5 -11 4 -134 -1 -136 -6 -2 -68 65 -70 76
-5 20 62 76 71 60z m-63 -125 c8 -7 19 -20 26 -27 7 -7 17 -19 23 -26 23 -23
23 -35 3 -58 -72 -81 -72 -81 -81 -71 -11 12 -20 64 -16 88 9 58 13 77 17 89
9 24 10 24 28 5z m208 -2 c0 -3 1 -10 1 -15 0 -6 1 -14 3 -19 7 -18 5 -98 -2
-113 -10 -23 -10 -23 -42 13 -13 15 -28 31 -33 37 -14 14 -13 20 5 38 3 3 14
15 24 26 34 37 41 42 44 33z m-80 -138 c9 -10 22 -24 28 -32 6 -7 13 -15 16
-18 21 -19 17 -37 -16 -69 -50 -49 -53 -46 -53 56 0 95 -2 91 25 63z m-57 -8
c2 -3 3 -131 0 -140 -2 -6 -16 -7 -24 0 -3 2 -9 7 -13 10 -42 29 -47 44 -24
71 44 51 56 63 61 59z"/>
</g>
</svg>
