<?xml version="1.0" standalone="no"?>
<!DOCTYPE svg PUBLIC "-//W3C//DTD SVG 20010904//EN"
 "http://www.w3.org/TR/2001/REC-SVG-20010904/DTD/svg10.dtd">
<svg version="1.0" xmlns="http://www.w3.org/2000/svg"
 width="114.000000pt" height="148.000000pt" viewBox="0 0 114.000000 148.000000"
 preserveAspectRatio="xMidYMid meet">
<metadata>
Created by potrace 1.16, written by Peter Selinger 2001-2019
</metadata>
<g transform="translate(0.000000,148.000000) scale(0.100000,-0.100000)"
fill="#000000" stroke="none">
<path d="M235 1390 c-4 -6 -5 -46 -4 -90 2 -43 0 -82 -3 -85 -6 -6 -19 10 -91
116 -27 39 -29 40 -50 26 -12 -8 -22 -21 -21 -29 1 -8 38 -63 83 -121 l82
-107 -2 -348 c-2 -387 -10 -334 69 -472 27 -48 76 -103 115 -129 156 -106 154
-106 265 -7 89 80 164 173 199 247 21 45 22 55 19 381 l-3 336 84 113 85 113
-22 18 c-12 10 -26 18 -30 18 -4 0 -31 -37 -60 -81 -28 -45 -54 -78 -58 -74
-4 4 -7 46 -7 93 0 86 0 87 -25 87 -25 0 -25 -1 -26 -87 0 -49 -3 -91 -7 -94
-3 -3 -27 27 -53 67 -55 85 -61 91 -86 78 -19 -10 -25 -44 -9 -53 5 -3 41 -50
80 -105 l71 -98 0 -335 c0 -316 -1 -338 -20 -382 -12 -25 -25 -46 -30 -46 -6
0 -10 22 -10 49 0 74 -27 198 -50 230 -11 16 -20 33 -20 39 0 5 -21 27 -47 48
-53 44 -95 50 -153 22 -53 -25 -86 -66 -120 -148 -29 -70 -31 -82 -28 -174 2
-54 0 -99 -5 -100 -4 0 -17 15 -30 34 -22 34 -22 42 -25 398 l-3 364 81 109
c44 60 80 116 80 124 0 16 -36 39 -49 31 -5 -3 -28 -37 -51 -76 -58 -97 -72
-93 -68 18 3 83 2 87 -19 90 -11 2 -24 -2 -28 -8z m305 -805 c0 -46 -4 -86 -9
-89 -9 -6 -91 86 -91 102 0 16 80 83 90 77 6 -4 10 -44 10 -90z m92 65 c53
-43 56 -64 19 -110 -17 -21 -31 -43 -31 -48 0 -5 -9 -17 -20 -27 -16 -14 -21
-15 -25 -4 -4 11 0 205 4 217 3 8 21 -2 53 -28z m-143 -174 c28 -30 51 -61 51
-68 0 -7 -27 -42 -59 -78 l-58 -64 -13 24 c-7 14 -13 50 -13 80 0 60 20 160
33 160 4 0 30 -24 59 -54z m234 -64 c3 -123 -9 -135 -69 -67 -24 28 -44 55
-44 60 0 19 92 117 101 108 5 -5 10 -50 12 -101z m-80 -110 c26 -29 47 -57 47
-62 0 -16 -52 -70 -81 -86 l-29 -15 0 112 c0 61 4 109 8 107 5 -1 30 -27 55
-56z m-95 -67 c0 -77 -3 -95 -15 -95 -20 0 -93 58 -93 75 0 13 91 115 102 115
4 0 6 -43 6 -95z"/>
</g>
</svg>
