<?xml version="1.0" standalone="no"?>
<!DOCTYPE svg PUBLIC "-//W3C//DTD SVG 20010904//EN"
 "http://www.w3.org/TR/2001/REC-SVG-20010904/DTD/svg10.dtd">
<svg version="1.0" xmlns="http://www.w3.org/2000/svg"
 width="456.000000pt" height="590.000000pt" viewBox="0 0 456.000000 590.000000"
 preserveAspectRatio="xMidYMid meet">
<metadata>
Created by potrace 1.16, written by Peter Selinger 2001-2019
</metadata>
<g transform="translate(0.000000,590.000000) scale(0.500000,-0.500000)"
fill="#000000" stroke="none">
<path d="M189 1113 c-9 -4 -9 -4 -8 -71 2 -82 5 -82 -47 -4 -44 64 -46 65 -74
40 -15 -14 -16 -12 36 -82 36 -49 81 -112 83 -117 1 -2 1 -120 1 -262 l0 -258
8 -16 c4 -9 9 -22 12 -30 2 -8 6 -18 9 -22 2 -4 7 -16 11 -26 9 -22 26 -50 42
-68 6 -7 14 -18 18 -24 20 -37 49 -64 108 -101 5 -4 15 -10 21 -15 19 -13 50
-15 72 -3 5 3 15 9 23 13 15 8 40 24 60 39 20 14 38 35 59 68 5 8 13 19 19 25
12 14 33 48 39 64 2 7 7 16 9 21 3 5 8 18 11 28 4 11 10 26 14 34 l7 15 0 256
c0 141 0 257 0 259 0 4 42 66 88 129 39 54 38 53 38 61 0 8 -9 17 -25 25 -17
8 -19 7 -47 -37 -61 -96 -58 -95 -58 -10 0 64 0 65 -9 70 -8 4 -34 3 -40 -2
-6 -5 -6 -5 -4 -64 2 -91 5 -90 -53 -3 -36 53 -38 55 -57 43 -32 -20 -33 -16
32 -104 37 -49 70 -96 74 -103 3 -6 3 -28 2 -257 -2 -276 -1 -263 -16 -285 -3
-3 -7 -12 -10 -19 -4 -7 -10 -21 -14 -30 -4 -9 -11 -21 -14 -26 -4 -5 -10 -16
-13 -25 -9 -22 -24 -40 -64 -78 -5 -5 -12 -11 -15 -15 -41 -45 -68 -53 -96
-29 -21 17 -59 57 -63 65 -2 4 -7 9 -11 12 -4 3 -11 10 -16 17 -23 32 -43 62
-43 64 0 0 -3 6 -7 12 -4 5 -7 11 -7 12 0 3 -12 27 -19 39 -18 29 -17 12 -17
290 l0 248 17 26 c19 29 57 82 89 126 29 41 29 47 -4 63 -15 8 -20 5 -37 -22
-23 -37 -57 -86 -60 -89 -7 -6 -8 -1 -8 64 0 74 1 71 -25 72 -10 0 -17 -1 -21
-3z"/>
</g>
</svg>
