<?xml version="1.0" standalone="no"?>
<!DOCTYPE svg PUBLIC "-//W3C//DTD SVG 20010904//EN"
 "http://www.w3.org/TR/2001/REC-SVG-20010904/DTD/svg10.dtd">
<svg version="1.0" xmlns="http://www.w3.org/2000/svg"
 width="114.000000pt" height="148.000000pt" viewBox="0 0 114.000000 148.000000"
 preserveAspectRatio="xMidYMid meet">
<metadata>
Created by potrace 1.16, written by Peter Selinger 2001-2019
</metadata>
<g transform="translate(0.000000,148.000000) scale(0.100000,-0.100000)"
fill="#000000" stroke="none">
<path d="M233 1394 c-8 -4 -10 -31 -6 -95 4 -51 2 -89 -3 -89 -5 0 -29 32 -53
70 -25 39 -50 75 -56 80 -15 12 -58 -17 -52 -35 3 -6 32 -48 65 -92 111 -147
101 -102 95 -457 -5 -282 -4 -315 11 -351 54 -122 72 -157 93 -177 13 -12 23
-27 23 -33 0 -20 85 -98 145 -134 l57 -34 51 26 c113 57 178 129 243 267 19
41 39 83 45 94 7 12 10 130 8 345 l-3 326 43 60 c24 33 62 84 85 114 l40 53
-23 19 c-13 11 -27 19 -31 19 -5 0 -30 -36 -57 -80 -26 -44 -52 -80 -56 -80
-4 0 -7 39 -6 86 2 88 -5 109 -37 102 -17 -3 -19 -14 -19 -90 0 -47 -3 -89 -7
-93 -4 -4 -28 26 -55 67 -26 40 -52 76 -57 80 -12 8 -42 -7 -48 -24 -3 -7 32
-62 78 -123 l83 -110 0 -321 1 -321 -52 -104 c-42 -82 -66 -117 -118 -167 -36
-34 -75 -65 -87 -68 -47 -12 -177 129 -248 270 l-35 69 0 318 0 319 51 72 c29
40 65 89 80 109 34 44 36 64 8 80 -26 14 -31 9 -85 -79 -22 -37 -45 -65 -50
-62 -5 3 -9 43 -9 90 0 78 -2 85 -20 87 -11 1 -25 0 -32 -3z"/>
</g>
</svg>
