<?xml version="1.0" standalone="no"?>
<!DOCTYPE svg PUBLIC "-//W3C//DTD SVG 20010904//EN"
 "http://www.w3.org/TR/2001/REC-SVG-20010904/DTD/svg10.dtd">
<svg version="1.0" xmlns="http://www.w3.org/2000/svg"
 width="77.000000pt" height="100.000000pt" viewBox="0 0 77.000000 100.000000"
 preserveAspectRatio="xMidYMid meet">
<metadata>
Created by potrace 1.16, written by Peter Selinger 2001-2019
</metadata>
<g transform="translate(0.000000,100.000000) scale(0.100000,-0.100000)"
fill="#000000" stroke="none">
<path d="M155 940 c-4 -6 -5 -27 -3 -48 4 -52 -11 -54 -43 -7 -15 22 -36 40
-46 40 -35 0 -24 -39 32 -109 l55 -69 0 -229 0 -230 35 -67 c39 -74 122 -165
165 -179 54 -19 131 33 194 130 65 102 66 108 66 355 l0 224 55 71 c57 73 65
101 30 106 -14 2 -28 -10 -47 -43 -35 -57 -53 -59 -45 -4 7 51 0 69 -24 69
-21 0 -22 -3 -19 -74 2 -57 -8 -55 -46 10 -17 29 -32 44 -43 42 -32 -6 -22
-44 28 -109 l51 -64 0 -228 c0 -226 0 -228 -26 -279 -31 -61 -120 -158 -144
-158 -24 0 -115 101 -144 159 -21 42 -24 62 -28 249 -3 112 -2 219 2 237 4 19
29 61 55 94 47 60 55 93 23 99 -12 2 -27 -12 -45 -42 -15 -25 -31 -46 -35 -46
-4 0 -8 24 -10 52 -2 40 -7 54 -20 56 -9 2 -19 -2 -23 -8z"/>
</g>
</svg>
