<?xml version="1.0" standalone="no"?>
<!DOCTYPE svg PUBLIC "-//W3C//DTD SVG 20010904//EN"
 "http://www.w3.org/TR/2001/REC-SVG-20010904/DTD/svg10.dtd">
<svg version="1.0" xmlns="http://www.w3.org/2000/svg"
 width="69.000000pt" height="100.000000pt" viewBox="0 0 69.000000 100.000000"
 preserveAspectRatio="xMidYMid meet">
<metadata>
Created by potrace 1.16, written by Peter Selinger 2001-2019
</metadata>
<g transform="translate(0.000000,100.000000) scale(0.100000,-0.100000)"
fill="#000000" stroke="none">
<path d="M38 958 c-8 -21 9 -67 37 -103 l25 -34 0 -281 0 -281 36 -57 c97
-153 195 -198 295 -133 52 33 86 70 123 128 l26 43 0 287 0 288 30 25 c20 17
31 37 35 65 10 74 -27 89 -39 15 -9 -58 -31 -54 -27 6 1 11 -5 26 -13 33 -12
10 -17 9 -25 -8 -6 -11 -11 -31 -11 -46 0 -15 -4 -24 -10 -20 -5 3 -10 16 -10
29 0 32 -26 64 -40 50 -18 -18 -1 -82 31 -119 l29 -33 0 -183 c0 -101 -3 -194
-6 -207 -7 -23 -148 -125 -168 -120 -6 2 -55 32 -108 68 l-98 65 0 187 0 187
31 44 c34 49 45 112 19 112 -8 0 -20 -14 -25 -32 -14 -43 -25 -52 -25 -22 0
14 -6 34 -14 45 -14 18 -15 18 -29 -15 l-14 -34 -14 28 c-16 32 -35 43 -41 23z
m196 -640 c36 -23 66 -45 66 -49 0 -13 -74 -69 -91 -69 -9 0 -24 16 -34 37
-22 45 -32 123 -17 123 6 0 40 -19 76 -42z m296 -19 c0 -49 -15 -79 -38 -79
-25 0 -84 39 -77 51 8 12 96 69 108 69 4 0 7 -18 7 -41z m-113 -94 c23 -14 43
-32 43 -39 0 -26 -80 -76 -122 -76 -25 0 -98 45 -98 60 0 15 93 79 114 80 11
0 39 -11 63 -25z"/>
</g>
</svg>
