<?xml version="1.0" standalone="no"?>
<!DOCTYPE svg PUBLIC "-//W3C//DTD SVG 20010904//EN"
 "http://www.w3.org/TR/2001/REC-SVG-20010904/DTD/svg10.dtd">
<svg version="1.0" xmlns="http://www.w3.org/2000/svg"
 width="408.000000pt" height="590.000000pt" viewBox="0 0 408.000000 590.000000"
 preserveAspectRatio="xMidYMid meet">
<metadata>
Created by potrace 1.16, written by Peter Selinger 2001-2019
</metadata>
<g transform="translate(0.000000,590.000000) scale(0.500000,-0.500000)"
fill="#000000" stroke="none">
<path d="M58 1136 c-10 -8 -5 -48 8 -74 5 -9 11 -20 12 -24 3 -10 17 -30 34
-47 l14 -15 0 -228 c1 -329 1 -409 4 -416 1 -4 2 -14 3 -22 1 -16 0 -13 27
-59 5 -9 11 -20 12 -24 1 -4 5 -11 8 -14 3 -3 15 -21 27 -38 22 -34 26 -39 44
-48 6 -2 13 -9 18 -14 4 -5 11 -11 15 -13 4 -2 12 -8 18 -13 13 -11 30 -19 47
-23 7 -1 16 -5 21 -8 23 -13 85 -5 114 15 8 6 19 12 23 14 5 2 14 9 22 14 7 6
18 13 24 16 13 6 27 18 37 32 5 6 11 13 16 15 4 2 9 8 14 15 4 6 13 20 21 32
10 15 14 23 15 31 1 9 5 17 16 31 7 8 8 39 9 388 1 229 2 313 3 315 2 1 7 5
13 7 19 10 46 34 54 50 8 17 10 98 1 105 -19 16 -30 2 -30 -38 0 -39 -3 -49
-18 -62 -22 -20 -23 -20 -23 42 0 62 0 62 -23 62 -19 0 -20 -1 -20 -57 -1 -57
-2 -61 -16 -50 -8 7 -18 29 -20 45 -8 58 -10 62 -28 62 -19 0 -23 -28 -10 -70
1 -4 2 -10 2 -14 0 -19 29 -59 50 -70 22 -11 20 17 20 -251 l0 -235 -13 -15
c-8 -8 -19 -20 -25 -28 -17 -18 -64 -51 -94 -65 -7 -3 -18 -9 -24 -13 -50 -34
-59 -37 -77 -21 -8 7 -47 34 -58 40 -7 4 -16 10 -21 14 -5 4 -17 11 -26 16
-12 6 -22 13 -34 25 -18 17 -28 23 -63 41 -29 15 -26 -21 -27 320 -1 185 -3
163 18 174 11 7 31 32 38 48 2 5 6 14 8 20 2 5 5 16 7 24 2 8 5 20 6 26 6 25
2 34 -16 34 -15 0 -18 -5 -25 -39 -2 -11 -6 -24 -8 -29 -3 -5 -6 -13 -8 -18
-4 -11 -13 -24 -17 -24 -4 0 -5 7 -5 55 0 55 -1 57 -27 54 -16 -1 -17 -3 -17
-39 0 -57 -6 -72 -16 -42 -1 3 -6 12 -10 20 -7 11 -9 15 -10 28 -3 30 -18 43
-34 30z m168 -719 c17 -11 33 -22 36 -23 3 -1 18 -11 33 -21 15 -10 30 -20 33
-21 8 -4 31 -20 35 -23 8 -9 1 -25 -17 -38 -7 -6 -19 -15 -26 -22 -7 -6 -16
-13 -20 -14 -4 -2 -13 -8 -21 -14 -33 -23 -35 -24 -47 -11 -5 5 -10 13 -12 18
-2 5 -7 12 -10 15 -3 4 -7 11 -8 16 -2 5 -5 13 -9 17 -5 6 -6 9 -7 22 -1 8 -3
18 -5 22 -7 13 -11 62 -7 82 5 24 10 23 52 -5z m411 0 c3 -7 1 -86 -2 -96 -2
-6 -3 -13 -3 -17 0 -10 -8 -26 -20 -41 -16 -20 -18 -20 -34 -10 -6 4 -12 7
-14 7 -2 0 -6 2 -9 4 -3 2 -10 6 -17 9 -14 5 -50 29 -55 36 -6 8 -1 17 13 26
4 2 19 12 33 21 15 10 29 19 33 21 3 1 8 5 12 8 24 21 60 39 63 32z m-199
-141 c4 -4 12 -8 17 -9 15 -5 95 -56 103 -67 6 -7 -3 -23 -19 -33 -3 -2 -10
-7 -14 -11 -8 -8 -25 -17 -39 -22 -5 -1 -11 -6 -16 -12 -6 -7 -10 -10 -17 -12
-4 -1 -11 -4 -14 -7 -12 -8 -54 -6 -66 4 -5 4 -11 7 -13 7 -10 0 -18 5 -25 14
-4 6 -12 13 -19 17 -6 4 -12 8 -12 9 -1 1 -6 5 -11 9 -27 19 -25 21 50 72 81
54 78 53 95 41z"/>
</g>
</svg>
