<?xml version="1.0" standalone="no"?>
<!DOCTYPE svg PUBLIC "-//W3C//DTD SVG 20010904//EN"
 "http://www.w3.org/TR/2001/REC-SVG-20010904/DTD/svg10.dtd">
<svg version="1.0" xmlns="http://www.w3.org/2000/svg"
 width="102.000000pt" height="148.000000pt" viewBox="0 0 102.000000 148.000000"
 preserveAspectRatio="xMidYMid meet">
<metadata>
Created by potrace 1.16, written by Peter Selinger 2001-2019
</metadata>
<g transform="translate(0.000000,148.000000) scale(0.100000,-0.100000)"
fill="#000000" stroke="none">
<path d="M71 1416 c-20 -24 6 -99 56 -161 l24 -30 3 -417 4 -417 32 -63 c18
-35 46 -82 63 -105 38 -54 134 -129 189 -149 53 -19 132 -12 162 14 12 10 34
24 51 32 44 22 118 101 146 157 13 26 28 51 33 55 8 5 14 346 16 891 0 4 6 7
13 7 7 0 28 14 45 31 29 29 32 37 32 94 0 66 -4 77 -26 68 -10 -3 -14 -22 -14
-57 0 -42 -5 -57 -23 -74 -13 -12 -27 -22 -31 -22 -4 0 -6 33 -4 73 3 71 3 72
-22 72 -25 0 -25 -1 -22 -67 3 -56 1 -68 -12 -68 -21 0 -36 31 -43 90 -5 47
-22 68 -44 54 -34 -20 24 -174 71 -189 19 -6 20 -16 20 -313 l0 -308 -36 -37
c-20 -20 -61 -51 -92 -69 -32 -17 -74 -44 -96 -60 l-39 -28 -26 21 c-14 11
-53 38 -86 59 -33 22 -78 53 -100 69 -22 16 -52 35 -67 41 -18 9 -28 22 -31
44 -3 17 -6 151 -7 299 l-1 267 30 26 c33 27 61 76 61 106 0 11 4 28 10 38 7
13 6 21 -5 30 -19 15 -31 7 -39 -27 -14 -56 -39 -114 -49 -110 -6 2 -9 31 -8
71 l2 67 -27 -3 c-27 -3 -28 -4 -25 -59 1 -32 -2 -60 -7 -63 -10 -6 -42 67
-42 96 0 25 -25 41 -39 24z m256 -924 c48 -33 98 -64 111 -71 12 -6 22 -18 22
-26 0 -15 -140 -125 -159 -125 -29 0 -91 155 -91 231 0 65 6 64 117 -9z m464
-48 c-2 -56 -9 -88 -23 -111 -11 -18 -23 -33 -28 -33 -15 0 -144 77 -148 88
-2 6 27 32 65 56 37 25 79 54 93 65 14 11 30 19 35 17 6 -2 9 -35 6 -82z
m-234 -106 c43 -19 143 -88 143 -98 0 -15 -35 -47 -72 -66 -18 -9 -44 -25 -57
-35 -38 -30 -134 -19 -160 18 -3 5 -21 19 -39 32 -18 13 -32 29 -30 37 3 15
155 122 175 123 7 1 25 -4 40 -11z"/>
</g>
</svg>
