<?xml version="1.0" standalone="no"?>
<!DOCTYPE svg PUBLIC "-//W3C//DTD SVG 20010904//EN"
 "http://www.w3.org/TR/2001/REC-SVG-20010904/DTD/svg10.dtd">
<svg version="1.0" xmlns="http://www.w3.org/2000/svg"
 width="456.000000pt" height="590.000000pt" viewBox="0 0 456.000000 590.000000"
 preserveAspectRatio="xMidYMid meet">
<metadata>
Created by potrace 1.16, written by Peter Selinger 2001-2019
</metadata>
<g transform="translate(0.000000,590.000000) scale(0.500000,-0.500000)"
fill="#000000" stroke="none">
<path d="M184 1139 c-14 -3 -15 -4 -13 -86 1 -88 0 -97 -10 -94 -5 2 -28 39
-33 52 -2 6 -9 16 -14 22 -6 8 -11 16 -13 23 -2 6 -8 17 -16 27 -7 10 -15 22
-18 28 -7 17 -21 20 -27 7 -12 -29 -1 -67 35 -118 31 -46 53 -85 53 -98 0 -2
5 -10 11 -18 8 -11 11 -16 12 -24 1 -6 4 -15 7 -20 4 -8 5 -11 5 -26 -1 -11 1
-23 3 -34 4 -18 4 -18 0 -33 -4 -13 -4 -17 -3 -50 1 -20 1 -40 1 -46 -5 -156
0 -282 11 -299 3 -4 5 -9 5 -10 0 -11 15 -43 27 -57 9 -10 14 -17 17 -26 4
-12 11 -21 25 -31 2 -2 7 -7 11 -12 4 -5 14 -15 22 -23 7 -7 17 -19 21 -26 4
-6 13 -17 19 -23 6 -6 14 -15 18 -20 6 -6 10 -8 20 -11 12 -4 14 -5 34 -26 24
-24 28 -27 47 -27 8 0 16 -1 22 -4 9 -4 9 -4 17 0 5 3 12 4 19 4 12 0 17 2 25
9 3 2 9 6 15 8 6 2 11 6 15 11 8 11 22 24 32 28 26 13 86 81 105 119 10 20 19
38 21 41 2 2 6 10 7 16 2 6 5 14 7 17 1 3 3 14 4 24 1 13 3 21 6 27 5 9 5 9 2
178 -1 93 -2 206 -2 251 l-1 82 8 11 c4 6 11 15 15 20 10 12 23 35 26 45 4 13
23 42 70 109 18 24 24 51 16 69 -9 20 -43 -1 -59 -37 -9 -19 -35 -62 -56 -93
-32 -47 -32 -46 -33 54 0 82 -1 87 -17 87 -6 0 -24 -11 -28 -18 -1 -2 -2 -27
-2 -67 0 -83 1 -84 -50 17 -34 67 -36 69 -61 62 -19 -6 -22 -17 -11 -39 4 -8
7 -15 7 -16 0 -2 12 -23 22 -38 9 -12 22 -38 22 -43 0 -5 27 -49 35 -56 7 -7
18 -24 33 -54 8 -14 10 -64 11 -248 0 -39 1 -61 3 -66 1 -5 2 -10 0 -21 -2
-12 -2 -16 1 -28 5 -20 4 -137 -1 -153 -2 -5 -5 -15 -6 -22 -5 -27 -13 -50
-22 -66 -6 -9 -10 -18 -10 -19 0 -1 -5 -9 -10 -16 -6 -8 -12 -16 -13 -19 -2
-3 -6 -8 -11 -11 -4 -3 -12 -11 -18 -18 -35 -40 -35 -40 -59 -55 -13 -7 -27
-16 -30 -18 -15 -10 -49 -3 -74 14 -6 4 -17 10 -24 13 -23 8 -38 22 -79 70 -5
6 -11 13 -14 14 -2 2 -9 10 -15 18 -16 22 -40 51 -50 61 -9 9 -14 19 -25 45
l-7 16 0 237 c0 237 0 237 4 245 7 12 49 80 102 163 62 96 61 96 36 108 -22
11 -20 13 -77 -84 -73 -124 -67 -123 -65 -7 2 106 1 108 -35 102z"/>
<path d="M441 687 c-8 -3 -15 -12 -42 -52 -31 -47 -51 -75 -58 -84 -3 -4 -13
-18 -21 -30 -8 -12 -19 -28 -24 -35 -28 -39 -30 -58 -8 -82 8 -10 26 5 38 33
9 21 32 47 41 47 11 0 57 -59 57 -74 0 -7 -16 -39 -22 -45 -30 -27 -60 -90
-51 -107 11 -22 30 -7 70 53 43 64 42 63 61 34 4 -5 9 -13 13 -17 7 -8 37 -50
46 -64 16 -28 41 -29 49 -2 4 13 2 19 -20 46 -11 14 -24 30 -29 36 -4 6 -13
17 -19 24 -37 41 -37 37 0 89 29 41 30 41 52 4 25 -41 48 -50 63 -22 7 13 6
15 -56 98 -12 17 -39 54 -60 83 -51 72 -57 77 -80 67z m22 -80 c5 -5 13 -15
19 -22 36 -42 37 -54 8 -89 -34 -42 -39 -42 -63 -7 -4 6 -11 16 -16 24 -12 18
-14 26 -6 38 4 6 9 16 12 23 14 35 34 48 46 33z"/>
</g>
</svg>
