<?xml version="1.0" standalone="no"?>
<!DOCTYPE svg PUBLIC "-//W3C//DTD SVG 20010904//EN"
 "http://www.w3.org/TR/2001/REC-SVG-20010904/DTD/svg10.dtd">
<svg version="1.0" xmlns="http://www.w3.org/2000/svg"
 width="77.000000pt" height="100.000000pt" viewBox="0 0 77.000000 100.000000"
 preserveAspectRatio="xMidYMid meet">
<metadata>
Created by potrace 1.16, written by Peter Selinger 2001-2019
</metadata>
<g transform="translate(0.000000,100.000000) scale(0.100000,-0.100000)"
fill="#000000" stroke="none">
<path d="M145 960 c-4 -6 -5 -39 -3 -72 2 -35 -1 -63 -7 -65 -5 -1 -26 27 -45
64 -19 37 -41 69 -47 71 -23 7 -15 -72 10 -109 76 -114 72 -93 77 -329 5 -215
5 -215 34 -268 41 -74 165 -197 205 -205 68 -14 171 64 223 166 l29 59 0 231
-1 232 61 92 c60 90 70 125 38 131 -12 2 -28 -18 -53 -62 -37 -67 -55 -87 -57
-64 0 7 -1 40 -2 73 -2 46 -6 60 -17 60 -11 0 -16 -14 -18 -57 -2 -32 -6 -58
-11 -58 -4 0 -15 17 -25 38 -30 62 -45 82 -61 76 -27 -11 -16 -48 38 -134 l52
-85 3 -224 c4 -267 1 -280 -88 -365 -32 -31 -65 -56 -72 -56 -26 0 -103 57
-146 107 -72 87 -72 85 -72 316 l0 207 66 100 c66 98 75 130 37 130 -12 0 -30
-23 -53 -67 -49 -91 -60 -92 -57 -2 2 61 -1 74 -15 77 -9 2 -19 -2 -23 -8z"/>
<path d="M358 573 c-45 -52 -128 -187 -128 -209 0 -33 20 -30 52 8 26 32 27
32 47 14 28 -25 26 -43 -10 -96 -16 -24 -28 -51 -27 -59 6 -29 28 -22 55 18
15 22 35 40 43 40 8 0 29 -19 45 -42 34 -46 43 -50 58 -25 9 13 3 25 -24 60
-51 62 -52 66 -35 93 21 32 33 31 58 -1 19 -23 22 -24 36 -10 14 14 11 22 -34
88 -54 80 -102 138 -113 138 -5 0 -15 -8 -23 -17z m55 -96 c19 -24 19 -27 3
-51 -19 -30 -32 -32 -58 -9 -22 20 -23 42 -2 71 19 27 31 25 57 -11z"/>
</g>
</svg>
