<?xml version="1.0" standalone="no"?>
<!DOCTYPE svg PUBLIC "-//W3C//DTD SVG 20010904//EN"
 "http://www.w3.org/TR/2001/REC-SVG-20010904/DTD/svg10.dtd">
<svg version="1.0" xmlns="http://www.w3.org/2000/svg"
 width="114.000000pt" height="148.000000pt" viewBox="0 0 114.000000 148.000000"
 preserveAspectRatio="xMidYMid meet">
<metadata>
Created by potrace 1.16, written by Peter Selinger 2001-2019
</metadata>
<g transform="translate(0.000000,148.000000) scale(0.100000,-0.100000)"
fill="#000000" stroke="none">
<path d="M220 1420 c-9 -5 -11 -38 -9 -115 5 -126 -6 -142 -46 -68 -89 168
-101 185 -116 163 -17 -27 3 -93 51 -165 50 -76 85 -143 96 -189 4 -16 7 -156
8 -310 1 -273 2 -282 24 -326 46 -89 60 -111 86 -131 15 -12 45 -46 67 -76 22
-30 48 -57 57 -60 9 -3 31 -19 48 -35 33 -31 80 -46 125 -40 16 2 64 35 115
79 97 83 97 83 142 165 50 92 55 144 50 476 l-5 297 26 43 c56 92 124 197 131
202 13 10 20 42 14 66 -11 43 -36 27 -80 -52 -53 -95 -95 -154 -105 -149 -6 4
-7 46 -3 111 6 91 5 104 -10 110 -9 3 -23 0 -32 -7 -13 -11 -15 -28 -9 -108 6
-90 5 -95 -10 -76 -9 11 -35 58 -57 103 -44 89 -60 104 -86 78 -15 -15 -14
-19 6 -58 64 -122 78 -148 93 -165 8 -10 25 -34 36 -54 20 -35 21 -55 25 -371
2 -238 0 -342 -8 -359 -7 -13 -19 -40 -28 -60 -31 -70 -167 -199 -210 -199 -8
0 -42 13 -74 30 -57 29 -105 74 -188 175 -77 93 -74 79 -74 420 l0 306 71 112
c39 62 84 132 99 156 16 24 26 50 23 57 -7 19 -35 26 -49 12 -11 -12 -75 -125
-111 -195 -31 -62 -39 -41 -35 86 4 112 3 118 -16 123 -11 3 -25 2 -32 -2z"/>
<path d="M487 778 c-31 -46 -79 -116 -107 -156 -49 -72 -50 -74 -35 -103 9
-16 17 -29 20 -29 2 0 16 20 30 44 24 42 62 83 68 75 2 -2 18 -23 35 -45 18
-23 32 -47 32 -54 0 -7 -17 -35 -37 -63 -61 -83 -75 -118 -53 -132 18 -11 49
15 86 75 20 33 42 60 49 60 7 0 36 -34 64 -75 54 -78 73 -89 91 -55 9 17 3 30
-45 89 -30 39 -59 73 -65 76 -18 11 -11 34 26 85 20 27 37 50 39 50 2 0 13
-16 25 -35 30 -49 48 -65 65 -59 33 13 23 39 -60 153 -128 173 -134 181 -154
181 -11 0 -39 -30 -74 -82z m121 -57 c22 -31 32 -56 28 -68 -6 -17 -62 -83
-71 -83 -9 0 -47 46 -61 73 -13 24 -13 31 2 60 20 40 44 67 58 67 6 0 26 -22
44 -49z"/>
</g>
</svg>
