<?xml version="1.0" standalone="no"?>
<!DOCTYPE svg PUBLIC "-//W3C//DTD SVG 20010904//EN"
 "http://www.w3.org/TR/2001/REC-SVG-20010904/DTD/svg10.dtd">
<svg version="1.0" xmlns="http://www.w3.org/2000/svg"
 width="78.000000pt" height="148.000000pt" viewBox="0 0 78.000000 148.000000"
 preserveAspectRatio="xMidYMid meet">
<metadata>
Created by potrace 1.16, written by Peter Selinger 2001-2019
</metadata>
<g transform="translate(0.000000,148.000000) scale(0.100000,-0.100000)"
fill="#000000" stroke="none">
<path d="M50 935 c0 -282 4 -493 9 -503 6 -9 17 -32 25 -49 38 -80 53 -99 137
-184 49 -49 92 -89 96 -89 4 0 24 -12 45 -26 36 -25 39 -26 56 -10 10 9 27 16
38 16 24 0 136 119 159 168 10 20 31 64 48 97 44 88 51 173 49 645 l-1 415
-40 3 -41 3 0 -135 c0 -75 -4 -136 -8 -136 -16 0 -39 35 -54 80 -10 31 -14 69
-11 118 l5 72 -26 0 c-26 0 -26 -1 -26 -79 0 -78 24 -162 57 -202 7 -8 13 -20
13 -26 0 -6 11 -18 25 -27 l25 -16 -1 -238 c0 -130 -4 -271 -8 -312 -11 -98
-69 -225 -138 -300 l-50 -54 -42 14 c-55 18 -176 136 -216 210 -16 30 -35 61
-43 69 -12 12 -13 38 -8 135 3 67 6 199 5 293 0 170 0 173 24 195 13 13 38 53
56 90 28 60 31 77 31 158 0 83 -1 90 -20 90 -17 0 -20 -7 -21 -52 0 -29 -2
-71 -4 -93 -5 -46 -38 -138 -52 -142 -7 -3 -8 50 -5 142 l5 145 -47 0 -46 0 0
-485z"/>
<path d="M359 1418 c-1 -2 -3 -173 -5 -382 -2 -208 -6 -381 -9 -385 -22 -21
-38 -88 -42 -176 -5 -93 -3 -103 19 -135 13 -19 43 -45 68 -57 l45 -21 21 25
c29 37 48 108 49 183 0 55 -6 76 -35 135 l-35 70 -3 370 -2 370 -35 3 c-19 2
-36 2 -36 0z m79 -878 c19 -37 22 -54 16 -95 -6 -50 -28 -105 -42 -105 -12 0
-27 14 -43 36 -18 27 -10 174 11 199 19 23 32 15 58 -35z"/>
</g>
</svg>
