<?xml version="1.0" standalone="no"?>
<!DOCTYPE svg PUBLIC "-//W3C//DTD SVG 20010904//EN"
 "http://www.w3.org/TR/2001/REC-SVG-20010904/DTD/svg10.dtd">
<svg version="1.0" xmlns="http://www.w3.org/2000/svg"
 width="53.000000pt" height="100.000000pt" viewBox="0 0 53.000000 100.000000"
 preserveAspectRatio="xMidYMid meet">
<metadata>
Created by potrace 1.16, written by Peter Selinger 2001-2019
</metadata>
<g transform="translate(0.000000,100.000000) scale(0.100000,-0.100000)"
fill="#000000" stroke="none">
<path d="M42 958 c-9 -9 -12 -96 -12 -331 l0 -319 31 -59 c42 -79 168 -199
208 -199 62 0 148 94 192 209 20 51 22 81 27 357 2 166 2 314 -2 329 -5 20
-12 26 -29 23 -20 -3 -22 -9 -25 -78 -3 -96 -7 -109 -29 -87 -11 10 -17 40
-21 91 -3 52 -9 76 -17 76 -45 0 -23 -156 31 -220 l26 -31 -1 -202 -2 -202
-33 -70 c-37 -79 -76 -125 -104 -125 -32 0 -102 62 -149 133 l-46 69 5 199 c4
160 8 202 20 216 36 41 58 102 58 162 0 55 -12 83 -28 66 -4 -3 -9 -40 -13
-81 -8 -104 -29 -122 -29 -25 0 97 -22 135 -58 99z"/>
<path d="M247 963 c-4 -3 -7 -117 -7 -252 0 -222 -2 -251 -20 -299 -43 -114
-9 -222 70 -222 24 0 47 46 56 114 5 35 1 56 -20 101 -25 56 -26 63 -26 259 0
245 -6 306 -30 306 -9 0 -20 -3 -23 -7z m41 -585 c15 -15 16 -110 1 -125 -23
-23 -39 -2 -39 52 0 78 11 100 38 73z"/>
</g>
</svg>
