<?xml version="1.0" standalone="no"?>
<!DOCTYPE svg PUBLIC "-//W3C//DTD SVG 20010904//EN"
 "http://www.w3.org/TR/2001/REC-SVG-20010904/DTD/svg10.dtd">
<svg version="1.0" xmlns="http://www.w3.org/2000/svg"
 width="312.000000pt" height="590.000000pt" viewBox="0 0 312.000000 590.000000"
 preserveAspectRatio="xMidYMid meet">
<metadata>
Created by potrace 1.16, written by Peter Selinger 2001-2019
</metadata>
<g transform="translate(0.000000,590.000000) scale(0.500000,-0.500000)"
fill="#000000" stroke="none">
<path d="M173 1137 c-10 -3 -11 -6 -12 -51 -2 -40 -2 -48 0 -58 1 -7 0 -10 -4
-20 -3 -6 -5 -15 -5 -18 0 -4 -2 -11 -4 -15 -3 -6 -13 -34 -17 -52 -3 -10 -17
-19 -20 -12 -2 6 -1 26 2 35 6 18 6 180 0 185 -12 12 -69 6 -71 -6 -4 -24 1
-766 5 -772 8 -11 13 -20 13 -23 0 -8 7 -25 15 -37 5 -8 13 -22 18 -31 5 -10
14 -24 20 -31 6 -8 18 -23 27 -34 17 -22 24 -29 36 -35 4 -2 11 -9 17 -16 5
-6 16 -17 24 -23 8 -6 18 -15 21 -20 10 -14 11 -15 19 -16 9 -1 11 -2 29 -14
37 -24 38 -25 51 -13 6 5 13 9 23 12 38 11 54 24 97 78 29 36 40 53 44 66 1 3
5 13 10 22 5 9 10 21 11 26 1 5 4 11 6 14 22 31 31 62 34 113 1 19 3 37 5 43
2 6 3 14 3 18 0 4 2 13 5 19 5 11 6 12 4 38 -1 14 -1 31 -1 38 1 37 0 134 -1
156 -1 14 -1 31 -1 36 0 6 0 17 0 25 0 8 -1 94 -1 190 0 96 -1 176 -2 177 -6
10 -62 9 -67 -1 -2 -3 -2 -35 -1 -103 2 -106 2 -105 -9 -105 -9 0 -28 28 -31
45 -1 5 -3 13 -5 18 -12 23 -13 26 -12 77 0 26 1 52 2 58 4 17 -21 27 -35 13
-6 -6 -4 -124 2 -136 3 -6 6 -14 7 -18 1 -4 6 -15 10 -24 4 -9 9 -21 11 -26 2
-6 7 -15 11 -21 5 -5 10 -14 11 -19 2 -5 6 -11 9 -13 11 -7 26 -24 28 -31 4
-13 3 -369 -1 -383 -2 -7 -3 -21 -3 -39 0 -23 -1 -31 -4 -41 -2 -7 -4 -15 -4
-18 0 -3 -5 -16 -12 -29 -6 -13 -20 -43 -31 -65 -16 -34 -22 -44 -33 -58 -8
-9 -19 -23 -25 -31 -18 -24 -39 -38 -55 -36 -30 3 -65 23 -99 58 -8 8 -19 19
-25 23 -22 16 -53 61 -77 108 -6 11 -13 23 -20 30 l-10 10 -1 81 c0 73 0 83 3
93 3 10 4 24 4 156 0 161 0 158 18 168 17 9 31 31 37 60 1 5 6 14 10 20 8 12
9 15 16 39 7 22 9 136 3 141 -4 4 -16 6 -22 5z"/>
<path d="M297 1136 c-3 -1 -5 -4 -6 -7 -3 -12 -5 -525 -3 -575 1 -12 0 -16 -3
-20 -1 -3 -6 -9 -10 -15 -4 -5 -8 -13 -9 -18 -1 -4 -4 -12 -6 -16 -3 -4 -5
-14 -6 -22 -1 -8 -5 -21 -8 -29 -5 -15 -7 -84 -3 -121 4 -33 43 -81 70 -84 6
-1 13 -4 19 -8 18 -13 30 -10 36 9 1 4 5 10 9 14 9 9 13 16 13 25 0 5 3 13 6
20 5 10 6 14 6 27 0 11 1 19 4 26 6 14 6 66 0 80 -9 24 -13 33 -15 41 -1 6 -6
15 -10 22 -8 13 -10 17 -19 38 -6 14 -6 16 -6 41 0 21 -1 28 -4 36 -4 11 -4
12 -4 271 1 242 0 259 -3 263 -4 4 -38 5 -48 2z m44 -682 c14 -19 33 -69 28
-76 -1 -1 -2 -12 -3 -24 -1 -20 -3 -28 -13 -51 -14 -33 -44 -28 -62 10 -5 12
-4 107 2 117 2 4 6 11 8 16 9 24 25 27 40 8z"/>
</g>
</svg>
