<?xml version="1.0" standalone="no"?>
<!DOCTYPE svg PUBLIC "-//W3C//DTD SVG 20010904//EN"
 "http://www.w3.org/TR/2001/REC-SVG-20010904/DTD/svg10.dtd">
<svg version="1.0" xmlns="http://www.w3.org/2000/svg"
 width="88.000000pt" height="100.000000pt" viewBox="0 0 88.000000 100.000000"
 preserveAspectRatio="xMidYMid meet">
<metadata>
Created by potrace 1.16, written by Peter Selinger 2001-2019
</metadata>
<g transform="translate(0.000000,100.000000) scale(0.100000,-0.100000)"
fill="#000000" stroke="none">
<path d="M177 953 c-4 -3 -7 -30 -7 -60 0 -29 -3 -53 -8 -53 -4 0 -19 20 -34
45 -18 30 -34 45 -48 45 -38 0 -33 -28 18 -92 27 -35 54 -73 61 -85 7 -14 11
-96 11 -241 l0 -219 35 -70 c22 -44 55 -89 89 -121 86 -81 126 -81 212 0 65
61 124 171 124 229 0 48 10 49 91 8 107 -53 104 -60 107 194 l2 217 -24 0
c-45 0 -48 -16 -41 -195 9 -187 12 -182 -70 -137 l-50 27 -3 157 -2 156 54 72
c53 71 59 93 30 104 -13 5 -74 -65 -74 -86 0 -4 -4 -8 -10 -8 -5 0 -10 26 -12
58 -3 49 -6 57 -23 57 -17 0 -20 -7 -20 -50 0 -27 -4 -51 -10 -53 -5 -1 -21
15 -35 35 -27 40 -62 51 -68 21 -2 -10 21 -48 52 -86 l56 -69 0 -218 0 -217
-36 -69 c-35 -66 -120 -159 -146 -159 -21 0 -112 104 -146 168 l-32 60 0 217
0 217 55 71 c59 76 63 87 39 108 -18 15 -32 2 -66 -61 -23 -41 -41 -30 -33 21
8 48 -15 86 -38 62z"/>
</g>
</svg>
