<?xml version="1.0" standalone="no"?>
<!DOCTYPE svg PUBLIC "-//W3C//DTD SVG 20010904//EN"
 "http://www.w3.org/TR/2001/REC-SVG-20010904/DTD/svg10.dtd">
<svg version="1.0" xmlns="http://www.w3.org/2000/svg"
 width="516.000000pt" height="590.000000pt" viewBox="0 0 516.000000 590.000000"
 preserveAspectRatio="xMidYMid meet">
<metadata>
Created by potrace 1.16, written by Peter Selinger 2001-2019
</metadata>
<g transform="translate(0.000000,590.000000) scale(0.500000,-0.500000)"
fill="#000000" stroke="none">
<path d="M208 1121 c-10 -4 -10 -8 -8 -67 4 -88 5 -87 -47 -10 -43 64 -43 64
-64 50 -29 -18 -29 -18 20 -84 30 -40 77 -105 86 -119 5 -7 4 16 3 -311 l-1
-216 9 -16 c4 -9 10 -24 13 -32 2 -8 8 -23 13 -32 4 -10 8 -19 8 -20 0 -7 24
-46 39 -63 6 -7 15 -19 20 -27 21 -33 37 -51 55 -64 6 -5 18 -13 26 -19 8 -6
19 -13 23 -15 4 -3 14 -9 21 -14 17 -13 19 -14 43 -14 22 0 18 -2 63 23 51 27
92 65 115 104 3 6 11 18 18 26 17 19 34 47 40 65 3 8 8 19 10 24 3 5 7 17 10
27 3 10 8 24 12 32 7 14 7 14 7 54 0 55 -11 55 93 4 l72 -35 29 -1 c43 0 38
-37 38 253 1 290 5 258 -36 258 -41 0 -38 35 -33 -334 1 -96 1 -96 -21 -86
-34 14 -136 66 -139 70 -4 7 -5 342 0 353 4 9 42 65 90 130 43 60 43 60 30 72
-29 27 -34 24 -72 -35 -56 -86 -53 -86 -53 0 0 74 1 72 -29 72 -26 0 -26 2
-24 -72 2 -86 4 -86 -50 -5 -31 47 -38 55 -46 55 -6 0 -27 -14 -33 -21 -8 -11
-11 -6 42 -78 42 -56 80 -110 84 -116 1 -3 2 -80 2 -256 1 -276 1 -265 -16
-288 -5 -8 -16 -31 -23 -46 -2 -7 -9 -20 -15 -29 -6 -9 -13 -23 -16 -30 -7
-19 -27 -43 -62 -75 -5 -4 -12 -12 -16 -16 -53 -57 -73 -57 -131 2 -18 19 -25
26 -27 31 -1 3 -8 10 -15 17 -6 7 -15 17 -19 22 -12 16 -35 51 -39 59 -2 4 -5
8 -6 10 -1 2 -7 12 -12 24 -5 12 -12 25 -15 29 -16 24 -14 3 -16 282 -1 138
-2 253 -1 256 1 8 46 74 112 164 24 33 23 40 -8 56 -17 9 -18 8 -46 -34 -66
-101 -61 -100 -61 -13 0 35 -1 62 -2 64 -4 8 -33 11 -44 5z"/>
</g>
</svg>
