<?xml version="1.0" standalone="no"?>
<!DOCTYPE svg PUBLIC "-//W3C//DTD SVG 20010904//EN"
 "http://www.w3.org/TR/2001/REC-SVG-20010904/DTD/svg10.dtd">
<svg version="1.0" xmlns="http://www.w3.org/2000/svg"
 width="91.000000pt" height="100.000000pt" viewBox="0 0 91.000000 100.000000"
 preserveAspectRatio="xMidYMid meet">
<metadata>
Created by potrace 1.16, written by Peter Selinger 2001-2019
</metadata>
<g transform="translate(0.000000,100.000000) scale(0.100000,-0.100000)"
fill="#000000" stroke="none">
<path d="M285 940 c-4 -6 -4 -31 0 -56 8 -56 -12 -60 -39 -9 -27 49 -42 61
-61 45 -8 -7 -15 -16 -15 -21 0 -4 24 -39 53 -76 l52 -68 3 -151 3 -151 -32
-7 c-45 -9 -122 -7 -138 3 -12 8 -13 43 -8 213 8 241 4 278 -28 278 -22 0 -24
-5 -30 -86 -4 -48 -6 -248 -3 -445 5 -375 7 -397 46 -373 15 10 17 29 14 172
-3 100 0 162 6 166 19 11 100 19 135 12 33 -6 35 -9 39 -55 7 -73 53 -157 124
-228 52 -53 68 -63 96 -63 74 0 159 82 214 206 23 52 24 63 24 276 l0 222 56
72 c55 73 65 106 32 112 -12 2 -28 -13 -49 -48 -17 -28 -34 -48 -38 -45 -3 4
-6 30 -6 58 0 45 -3 52 -20 52 -17 0 -20 -8 -23 -52 -2 -29 -6 -53 -11 -53 -4
0 -17 18 -30 40 -26 46 -34 52 -55 44 -26 -10 -18 -36 30 -98 25 -32 50 -72
55 -90 6 -18 7 -117 3 -236 -7 -198 -8 -207 -35 -260 -15 -30 -50 -77 -78
-104 -45 -45 -53 -48 -74 -39 -31 14 -84 80 -132 162 l-38 64 5 214 6 213 51
67 c53 68 62 105 29 111 -11 2 -26 -12 -43 -42 -15 -25 -31 -46 -35 -46 -5 0
-10 24 -12 52 -2 40 -7 54 -20 56 -9 2 -19 -2 -23 -8z"/>
</g>
</svg>
