<?xml version="1.0" standalone="no"?>
<!DOCTYPE svg PUBLIC "-//W3C//DTD SVG 20010904//EN"
 "http://www.w3.org/TR/2001/REC-SVG-20010904/DTD/svg10.dtd">
<svg version="1.0" xmlns="http://www.w3.org/2000/svg"
 width="538.000000pt" height="590.000000pt" viewBox="0 0 538.000000 590.000000"
 preserveAspectRatio="xMidYMid meet">
<metadata>
Created by potrace 1.16, written by Peter Selinger 2001-2019
</metadata>
<g transform="translate(0.000000,590.000000) scale(0.500000,-0.500000)"
fill="#000000" stroke="none">
<path d="M346 1114 c-10 -4 -10 -9 -8 -66 3 -91 5 -90 -47 -13 -43 64 -44 65
-67 48 -23 -17 -23 -14 27 -84 50 -69 76 -104 81 -114 6 -10 8 -350 2 -357 -4
-5 -201 -7 -207 -2 -3 3 -3 15 -2 287 2 335 6 296 -35 296 -40 0 -35 40 -34
-288 0 -153 1 -279 1 -279 1 -1 0 -110 -1 -243 -2 -168 -2 -242 0 -245 5 -9
57 -11 66 -2 6 5 6 -16 3 223 -1 175 -1 175 4 178 9 6 200 4 205 -3 4 -4 4 -8
4 -48 0 -43 0 -43 7 -58 4 -7 9 -21 12 -29 2 -9 8 -23 12 -31 3 -8 8 -19 9
-23 4 -12 27 -48 39 -63 6 -6 15 -18 19 -26 4 -8 9 -14 10 -15 1 -1 5 -6 9
-12 11 -17 37 -40 72 -62 9 -6 21 -14 27 -19 23 -16 25 -17 47 -17 19 0 21 0
34 7 40 21 52 28 85 52 14 10 31 27 37 36 2 4 7 11 11 16 4 5 9 13 12 17 2 5
9 15 16 23 14 16 29 39 36 54 10 23 22 52 26 63 2 7 8 20 12 29 l8 17 0 258
c-1 216 -1 259 2 263 4 8 56 82 92 132 41 56 41 60 7 77 -17 9 -19 8 -53 -45
-56 -87 -53 -87 -52 0 0 70 0 70 -27 70 -29 0 -29 0 -27 -67 3 -90 5 -90 -48
-11 -43 64 -44 65 -72 42 -17 -13 -16 -17 17 -62 39 -52 43 -58 71 -96 15 -20
28 -40 29 -43 2 -4 2 -63 2 -254 -1 -276 -1 -261 -17 -287 -3 -5 -8 -15 -12
-22 -16 -35 -20 -44 -28 -56 -4 -7 -10 -18 -13 -25 -7 -18 -24 -39 -62 -75 -6
-5 -12 -12 -15 -15 -26 -28 -46 -41 -66 -41 -16 0 -14 -1 -58 39 -5 5 -14 15
-21 23 -7 8 -17 19 -23 25 -6 6 -14 16 -18 22 -34 47 -46 66 -61 97 -5 10 -12
23 -15 28 -18 29 -17 9 -17 285 1 136 1 250 1 251 0 5 52 81 111 161 24 33 23
41 -8 56 -17 8 -20 6 -40 -25 -69 -109 -66 -108 -66 -22 0 74 1 71 -25 71 -8
1 -17 0 -20 -1z"/>
</g>
</svg>
