<?xml version="1.0" standalone="no"?>
<!DOCTYPE svg PUBLIC "-//W3C//DTD SVG 20010904//EN"
 "http://www.w3.org/TR/2001/REC-SVG-20010904/DTD/svg10.dtd">
<svg version="1.0" xmlns="http://www.w3.org/2000/svg"
 width="100.000000pt" height="148.000000pt" viewBox="0 0 100.000000 148.000000"
 preserveAspectRatio="xMidYMid meet">
<metadata>
Created by potrace 1.16, written by Peter Selinger 2001-2019
</metadata>
<g transform="translate(0.000000,148.000000) scale(0.100000,-0.100000)"
fill="#000000" stroke="none">
<path d="M520 1398 c-52 -30 -55 -35 -40 -63 16 -31 27 -31 57 -3 19 17 26 19
36 9 9 -10 6 -17 -15 -35 -48 -38 -28 -77 29 -55 29 11 39 3 77 -61 15 -26 14
-29 -27 -92 -27 -40 -48 -88 -56 -124 -7 -32 -17 -70 -21 -84 -23 -69 22 -303
71 -372 11 -14 19 -31 19 -37 0 -6 16 -28 35 -50 19 -21 35 -44 35 -51 0 -19
-184 -219 -227 -247 -44 -29 -105 16 -210 156 -79 105 -83 118 -83 317 l0 177
34 67 c34 66 48 124 61 248 l6 62 -30 0 c-36 0 -40 -11 -40 -103 0 -75 -13
-127 -44 -171 -19 -27 -21 -28 -34 -10 -7 10 -18 37 -24 59 -5 22 -15 50 -21
61 -5 12 -9 53 -7 90 4 68 4 69 -21 69 -24 0 -25 -2 -28 -77 -3 -88 21 -174
69 -247 l29 -44 0 -197 c0 -220 3 -235 69 -324 44 -59 174 -185 212 -204 24
-13 30 -11 70 14 24 15 92 75 150 133 82 83 113 122 139 176 19 39 42 79 51
90 8 11 24 49 35 85 26 90 27 309 1 359 -9 19 -17 39 -17 46 0 23 -52 139 -77
172 l-26 34 22 22 c11 13 21 30 21 39 0 9 7 21 15 28 13 10 19 10 35 -5 25
-22 50 -13 50 20 0 14 -3 25 -8 25 -9 0 -35 41 -29 47 3 2 14 -6 25 -18 23
-24 52 -20 52 7 0 29 -49 84 -75 84 -18 0 -28 -11 -46 -47 -24 -52 -95 -153
-107 -153 -10 0 -75 106 -97 158 -21 48 -39 52 -95 20z m243 -331 c13 -28 30
-72 37 -97 8 -25 17 -49 21 -55 9 -13 22 -98 24 -160 3 -70 -12 -154 -35 -203
-11 -23 -20 -46 -20 -51 0 -5 -11 -22 -25 -36 l-24 -27 -31 48 c-83 131 -117
305 -85 438 27 109 82 215 106 200 4 -2 19 -28 32 -57z"/>
</g>
</svg>
