<?xml version="1.0" standalone="no"?>
<!DOCTYPE svg PUBLIC "-//W3C//DTD SVG 20010904//EN"
 "http://www.w3.org/TR/2001/REC-SVG-20010904/DTD/svg10.dtd">
<svg version="1.0" xmlns="http://www.w3.org/2000/svg"
 width="68.000000pt" height="100.000000pt" viewBox="0 0 68.000000 100.000000"
 preserveAspectRatio="xMidYMid meet">
<metadata>
Created by potrace 1.16, written by Peter Selinger 2001-2019
</metadata>
<g transform="translate(0.000000,100.000000) scale(0.100000,-0.100000)"
fill="#000000" stroke="none">
<path d="M339 942 c-26 -22 -20 -52 11 -52 15 0 19 -6 17 -22 -1 -18 4 -24 23
-26 31 -5 60 -30 60 -52 0 -10 -8 -28 -19 -41 -78 -102 -69 -322 18 -441 17
-23 31 -47 31 -53 0 -6 -36 -46 -79 -89 -79 -77 -80 -77 -108 -62 -28 15 -66
57 -115 130 -27 40 -28 46 -28 174 0 113 3 139 20 172 11 22 25 74 32 115 10
64 9 78 -3 90 -24 24 -39 2 -45 -66 -7 -75 -21 -119 -40 -119 -17 0 -26 31
-33 115 -5 61 -8 70 -26 70 -18 0 -20 -6 -19 -71 0 -55 6 -83 26 -125 23 -48
26 -70 31 -197 6 -166 11 -177 123 -290 75 -75 99 -79 166 -27 71 53 129 126
182 226 46 87 49 98 54 184 5 99 -9 153 -65 258 -22 40 -24 51 -15 72 9 19 19
25 41 25 24 0 33 7 46 34 20 42 12 74 -21 82 -25 7 -54 -10 -54 -31 0 -6 -14
-31 -31 -55 -30 -42 -32 -43 -46 -24 -8 10 -26 40 -39 67 -27 53 -54 61 -95
29z m195 -278 c38 -104 42 -224 9 -296 -12 -27 -28 -48 -36 -48 -20 0 -64 103
-76 177 -15 93 27 262 62 250 7 -2 25 -39 41 -83z"/>
</g>
</svg>
