<?xml version="1.0" standalone="no"?>
<!DOCTYPE svg PUBLIC "-//W3C//DTD SVG 20010904//EN"
 "http://www.w3.org/TR/2001/REC-SVG-20010904/DTD/svg10.dtd">
<svg version="1.0" xmlns="http://www.w3.org/2000/svg"
 width="90.000000pt" height="100.000000pt" viewBox="0 0 90.000000 100.000000"
 preserveAspectRatio="xMidYMid meet">
<metadata>
Created by potrace 1.16, written by Peter Selinger 2001-2019
</metadata>
<g transform="translate(0.000000,100.000000) scale(0.100000,-0.100000)"
fill="#000000" stroke="none">
<path d="M704 936 c-61 -94 -56 -173 16 -255 33 -37 39 -84 20 -152 l-10 -37
-64 5 c-58 5 -65 4 -75 -16 -16 -29 0 -85 39 -138 38 -51 37 -54 -58 -145 -69
-67 -110 -92 -134 -82 -26 10 -141 181 -174 256 -39 87 -74 237 -74 314 0 44
4 54 24 68 24 15 66 108 66 145 0 10 -6 24 -14 30 -18 15 -31 -2 -41 -54 -17
-95 -43 -99 -47 -7 -2 52 -6 67 -18 67 -11 0 -16 -15 -18 -63 -4 -80 -21 -78
-43 3 -16 63 -32 78 -48 47 -15 -29 6 -95 47 -143 34 -40 36 -46 43 -143 8
-112 23 -176 68 -284 51 -122 193 -312 234 -312 49 0 145 73 213 162 l47 60
54 -5 c76 -8 83 -3 83 53 0 36 -7 56 -30 88 -35 48 -35 55 -14 130 24 80 16
331 -12 388 -24 49 -55 56 -80 20z m54 -149 c2 -43 -1 -77 -6 -77 -11 0 -42
72 -42 95 0 27 20 67 33 63 8 -3 13 -31 15 -81z m-54 -343 c19 -19 19 -17 1
-61 -12 -28 -18 -33 -29 -24 -20 17 -39 68 -32 86 7 20 40 19 60 -1z"/>
</g>
</svg>
