<?xml version="1.0" standalone="no"?>
<!DOCTYPE svg PUBLIC "-//W3C//DTD SVG 20010904//EN"
 "http://www.w3.org/TR/2001/REC-SVG-20010904/DTD/svg10.dtd">
<svg version="1.0" xmlns="http://www.w3.org/2000/svg"
 width="524.000000pt" height="586.000000pt" viewBox="0 0 524.000000 586.000000"
 preserveAspectRatio="xMidYMid meet">
<metadata>
Created by potrace 1.16, written by Peter Selinger 2001-2019
</metadata>
<g transform="translate(0.000000,586.000000) scale(0.500000,-0.500000)"
fill="#000000" stroke="none">
<path d="M859 1126 c-15 -3 -33 -20 -39 -35 -2 -6 -8 -17 -13 -25 -12 -19 -14
-24 -16 -35 -1 -6 -3 -12 -5 -14 -8 -9 -8 -12 -8 -64 0 -51 0 -51 5 -57 3 -3
7 -11 10 -17 3 -6 8 -16 11 -21 4 -4 8 -13 10 -18 2 -6 8 -15 13 -21 6 -6 13
-14 17 -18 4 -5 12 -12 17 -17 15 -14 17 -18 17 -37 0 -9 1 -19 3 -25 4 -9 4
-10 0 -21 -2 -8 -4 -20 -4 -40 -1 -31 -4 -46 -12 -55 -7 -9 -11 -16 -13 -28
-3 -14 -5 -14 -26 -3 -46 22 -128 14 -138 -14 -5 -17 0 -69 8 -80 4 -6 9 -14
10 -18 5 -16 24 -52 33 -61 36 -39 38 -43 32 -58 -5 -14 -38 -59 -45 -61 -5
-1 -46 -43 -65 -65 -10 -11 -16 -16 -21 -18 -13 -4 -16 -7 -23 -18 -14 -23
-39 -42 -55 -42 -9 0 -16 -1 -23 -4 -15 -7 -47 3 -47 14 0 7 -32 46 -44 52
-14 8 -21 16 -23 27 -1 5 -4 13 -8 18 -12 18 -14 22 -21 36 -5 11 -10 16 -21
25 -7 7 -17 16 -20 22 -4 5 -9 10 -11 12 -8 4 -12 14 -12 28 0 26 -7 47 -19
54 -9 5 -13 13 -13 24 0 9 -3 17 -10 23 -4 3 -8 16 -11 31 -1 4 -4 11 -7 15
-4 5 -6 10 -6 14 0 3 -3 12 -7 20 -7 14 -7 14 -7 37 1 25 -3 39 -14 55 -5 7
-5 9 -5 34 -1 19 -2 26 -4 30 -2 2 -4 6 -6 8 -5 7 -7 37 -7 97 0 56 0 57 16
64 21 9 29 15 40 32 17 26 21 33 29 58 4 13 9 28 11 34 2 6 5 18 6 27 1 8 3
18 4 20 8 20 -4 44 -22 46 -16 3 -23 -7 -25 -37 -3 -33 -16 -77 -25 -83 -1 -1
-6 -9 -11 -19 -13 -26 -23 -35 -27 -25 -3 7 -2 73 0 87 5 27 5 44 -1 56 -3 6
-6 14 -8 19 -6 16 -31 14 -34 -4 0 -3 -2 -14 -4 -24 -3 -20 -3 -66 1 -89 3
-13 -1 -34 -6 -37 -3 -2 -24 25 -28 37 -3 6 -7 14 -10 18 -8 11 -16 40 -17 68
-1 30 -10 41 -29 31 -18 -9 -10 -101 11 -123 2 -3 8 -12 12 -20 4 -8 10 -19
14 -23 3 -4 10 -13 14 -20 5 -7 12 -15 19 -20 16 -11 16 -12 18 -41 4 -49 4
-51 1 -63 -4 -16 -4 -46 0 -62 2 -7 3 -19 3 -28 0 -14 1 -18 7 -30 6 -13 7
-15 7 -32 0 -17 1 -19 5 -26 4 -6 6 -12 7 -22 1 -8 3 -17 4 -21 1 -4 1 -11 1
-17 -2 -11 0 -16 8 -25 4 -4 6 -9 7 -20 1 -11 3 -17 8 -26 4 -6 8 -14 10 -18
1 -4 5 -12 8 -17 3 -6 6 -13 6 -16 0 -7 4 -17 9 -21 6 -5 11 -17 11 -26 0 -10
3 -17 9 -24 3 -4 5 -9 6 -14 2 -13 3 -14 14 -25 5 -6 13 -17 18 -24 5 -10 10
-17 16 -21 9 -6 14 -14 19 -28 1 -5 6 -10 11 -15 13 -11 27 -33 30 -48 3 -15
7 -21 17 -28 4 -3 11 -11 15 -17 38 -62 97 -97 126 -75 9 7 13 9 22 10 7 1 13
3 18 7 4 3 11 6 16 7 11 2 17 6 19 15 3 9 4 11 23 19 14 5 16 7 21 15 3 6 9
12 16 16 17 11 57 56 64 72 5 9 12 19 28 36 19 20 24 25 31 42 14 28 21 31 56
17 16 -6 71 -10 90 -7 28 5 35 29 25 85 -8 44 -22 71 -52 103 -18 21 -21 48
-8 83 1 3 3 13 3 22 2 16 2 18 8 25 10 11 11 16 11 42 0 13 1 27 2 31 3 12 2
30 -2 48 -5 19 -5 31 -1 45 2 6 4 27 5 49 2 39 1 49 -5 70 -2 8 -3 20 -3 54 0
30 0 46 -2 50 -1 3 -3 13 -4 22 -5 47 -43 99 -69 93z m11 -89 c12 -10 16 -31
16 -76 0 -26 1 -45 2 -49 2 -4 3 -21 4 -39 1 -18 2 -36 3 -40 6 -34 -21 -15
-34 24 -2 5 -5 13 -8 17 -3 4 -6 12 -6 16 -1 7 -4 11 -10 17 -10 9 -13 31 -7
46 1 3 3 12 4 20 1 7 4 16 6 20 2 3 7 15 10 25 8 23 11 26 20 19z m-72 -499
c13 -5 33 -17 38 -23 6 -7 6 -25 -1 -32 -3 -4 -6 -13 -9 -23 -3 -11 -7 -21
-11 -27 -4 -6 -7 -14 -8 -20 -3 -17 -10 -14 -28 11 -36 50 -49 99 -27 108 5 2
11 6 13 8 8 7 12 7 33 -2z m116 -118 c32 -64 29 -78 -19 -72 -16 2 -35 7 -42
13 -5 3 -1 33 5 41 2 3 6 11 8 17 2 6 7 14 10 19 3 4 7 11 9 15 5 12 8 9 29
-33z"/>
</g>
</svg>
