<?xml version="1.0" standalone="no"?>
<!DOCTYPE svg PUBLIC "-//W3C//DTD SVG 20010904//EN"
 "http://www.w3.org/TR/2001/REC-SVG-20010904/DTD/svg10.dtd">
<svg version="1.0" xmlns="http://www.w3.org/2000/svg"
 width="132.000000pt" height="146.000000pt" viewBox="0 0 132.000000 146.000000"
 preserveAspectRatio="xMidYMid meet">
<metadata>
Created by potrace 1.16, written by Peter Selinger 2001-2019
</metadata>
<g transform="translate(0.000000,146.000000) scale(0.100000,-0.100000)"
fill="#000000" stroke="none">
<path d="M1057 1388 c-9 -7 -31 -42 -49 -78 -59 -116 -40 -216 60 -322 35 -37
36 -38 34 -123 0 -55 -6 -96 -16 -117 -9 -17 -16 -37 -16 -45 0 -11 -6 -11
-31 2 -59 31 -149 27 -171 -8 -23 -36 23 -168 76 -216 42 -40 34 -62 -56 -156
-45 -47 -88 -85 -95 -85 -8 0 -17 -8 -20 -17 -11 -29 -45 -51 -91 -58 -42 -6
-44 -5 -95 48 -29 30 -61 72 -72 93 -10 22 -39 60 -62 86 -30 33 -43 56 -43
77 0 16 -6 36 -13 43 -27 26 -87 180 -87 220 0 16 -5 39 -12 51 -6 12 -11 35
-10 51 2 15 -2 33 -7 40 -5 6 -11 53 -12 105 l-3 94 35 23 c68 43 132 242 83
261 -23 9 -33 -7 -44 -69 -12 -64 -56 -151 -74 -145 -6 2 -10 13 -9 23 1 10 3
54 5 96 2 63 -1 81 -15 95 -31 31 -42 3 -40 -103 2 -71 -1 -94 -11 -94 -19 0
-55 77 -65 138 -9 59 -14 67 -36 59 -23 -9 -20 -93 6 -142 12 -22 41 -64 64
-93 l43 -52 -3 -78 c-1 -42 1 -97 6 -122 24 -133 40 -207 49 -222 6 -10 10
-24 10 -32 0 -8 10 -34 21 -58 22 -43 26 -53 50 -118 7 -19 29 -55 48 -80 53
-67 101 -137 101 -149 0 -14 140 -161 154 -161 14 0 116 51 140 70 11 8 49 45
85 81 59 59 80 84 150 178 18 24 18 24 60 8 57 -23 113 -22 135 2 15 16 17 30
11 79 -5 47 -14 69 -47 112 -39 52 -40 55 -34 112 3 32 12 68 20 81 18 26 20
217 5 414 -9 122 -16 147 -53 191 -22 25 -35 27 -59 10z m44 -110 c7 -13 13
-63 15 -113 2 -49 6 -105 9 -122 10 -58 -21 -39 -57 35 -27 53 -33 76 -30 110
2 23 8 45 13 48 5 3 9 13 9 23 0 14 17 41 27 41 1 0 8 -10 14 -22z m-83 -618
c37 -23 50 -46 33 -63 -6 -6 -11 -16 -11 -23 0 -6 -7 -29 -16 -50 l-16 -39
-29 34 c-15 19 -35 55 -44 80 -15 44 -15 46 7 63 29 22 36 22 76 -2z m130
-137 c34 -75 33 -87 -7 -91 -44 -4 -81 5 -81 21 0 19 48 117 58 117 5 0 18
-21 30 -47z"/>
</g>
</svg>
