<?xml version="1.0" standalone="no"?>
<!DOCTYPE svg PUBLIC "-//W3C//DTD SVG 20010904//EN"
 "http://www.w3.org/TR/2001/REC-SVG-20010904/DTD/svg10.dtd">
<svg version="1.0" xmlns="http://www.w3.org/2000/svg"
 width="478.000000pt" height="590.000000pt" viewBox="0 0 478.000000 590.000000"
 preserveAspectRatio="xMidYMid meet">
<metadata>
Created by potrace 1.16, written by Peter Selinger 2001-2019
</metadata>
<g transform="translate(0.000000,590.000000) scale(0.500000,-0.500000)"
fill="#000000" stroke="none">
<path d="M481 1132 c-5 -2 -13 -11 -13 -16 0 -1 -2 -7 -5 -11 -5 -9 -5 -9 0
-18 6 -11 7 -24 7 -132 1 -99 2 -94 -15 -102 -16 -7 -29 -31 -29 -50 0 -2 -3
-12 -6 -22 -8 -26 -8 -105 0 -134 2 -9 6 -22 7 -29 2 -7 6 -19 11 -26 4 -7 8
-16 10 -20 1 -4 6 -10 9 -14 8 -8 10 -13 12 -21 0 -4 3 -10 6 -15 5 -8 5 -8 5
-98 0 -180 2 -226 10 -235 12 -15 9 -49 -6 -55 -11 -5 -38 14 -48 34 -5 10
-20 23 -30 26 -8 2 -32 24 -37 34 -4 7 -42 45 -49 49 -13 7 -44 50 -49 68 -5
16 -4 18 21 45 23 26 35 45 43 70 2 6 7 16 11 23 7 12 12 55 8 70 -8 32 -84
41 -133 16 -23 -12 -26 -12 -28 -1 -2 12 -5 19 -11 29 -7 11 -11 27 -14 63 -1
14 -4 31 -6 38 -5 14 -5 14 0 25 3 8 4 16 4 27 0 20 2 24 22 43 23 22 37 40
42 50 2 6 6 14 9 19 4 5 8 13 10 18 2 4 6 12 9 16 6 7 6 7 6 53 1 58 1 53 -6
62 -4 5 -6 10 -7 18 -1 8 -4 15 -12 29 -6 10 -13 23 -15 28 -9 20 -28 36 -44
36 -21 0 -60 -60 -60 -94 0 -6 -1 -15 -3 -20 -2 -7 -3 -19 -3 -55 0 -37 -1
-48 -3 -56 -5 -14 -4 -84 0 -101 3 -9 3 -16 2 -34 -3 -45 -2 -93 3 -105 2 -6
4 -14 4 -17 0 -3 1 -9 3 -15 2 -5 3 -13 3 -17 0 -4 3 -16 6 -26 6 -17 7 -23 7
-47 l2 -28 -12 -13 c-26 -28 -49 -69 -53 -93 -1 -7 -3 -18 -5 -25 -7 -26 -2
-54 10 -63 16 -12 69 -12 100 -1 25 10 30 11 37 9 12 -2 18 -8 26 -26 7 -14
12 -21 30 -41 15 -15 24 -26 27 -33 8 -18 52 -67 68 -75 6 -3 10 -8 14 -15 6
-9 7 -10 22 -16 20 -7 22 -9 24 -18 1 -9 6 -13 18 -15 5 -1 11 -3 14 -5 10 -7
14 -9 19 -9 8 0 16 -3 24 -11 12 -10 25 -11 42 -3 10 5 65 62 75 77 5 7 13 15
18 19 9 6 17 21 17 32 0 7 20 36 32 45 5 5 8 9 11 18 3 10 6 15 22 29 4 3 10
11 12 17 3 5 10 15 17 22 10 11 12 13 13 22 1 7 4 13 7 18 5 5 7 11 8 21 2 9
4 15 8 21 9 12 12 20 12 26 0 3 2 9 4 13 2 4 8 14 12 23 5 9 10 19 12 24 3 4
5 13 5 20 1 10 3 13 8 20 7 7 7 8 7 23 0 8 1 19 3 25 2 5 3 14 3 19 0 6 1 11
6 17 4 7 5 10 6 29 1 19 2 22 7 31 5 9 6 12 7 33 1 13 3 29 4 36 2 11 2 17 0
27 -6 40 -7 47 -4 59 2 9 5 53 6 83 1 9 -4 43 -6 51 -2 6 -1 10 1 18 7 27 5
82 -4 113 -4 15 -20 17 -26 3 -16 -32 -17 -39 -12 -61 3 -12 4 -113 2 -122 -4
-13 -16 0 -33 33 l-11 21 0 54 c0 64 -4 79 -22 84 -15 4 -18 -4 -19 -56 -1
-49 -1 -50 -15 -41 -12 9 -24 36 -26 64 -3 34 -29 49 -40 22 -17 -39 12 -107
56 -132 15 -9 26 -19 39 -37 22 -33 31 -44 46 -60 21 -22 20 -19 20 -65 0 -63
-2 -76 -9 -86 -6 -8 -6 -10 -7 -35 -1 -23 -2 -27 -5 -32 -11 -14 -14 -26 -15
-56 -1 -25 -1 -29 -6 -34 -2 -4 -5 -12 -6 -18 -1 -7 -4 -14 -8 -20 -3 -4 -6
-10 -6 -12 0 -9 -7 -26 -13 -35 -5 -6 -7 -11 -7 -16 0 -12 -4 -20 -15 -29 -6
-5 -10 -10 -13 -18 -7 -19 -22 -50 -29 -60 -4 -5 -10 -15 -13 -22 -3 -7 -8
-15 -12 -18 -3 -3 -10 -13 -14 -21 -12 -24 -20 -37 -23 -40 -2 -2 -5 -8 -7
-14 -6 -14 -11 -21 -25 -30 -11 -7 -20 -18 -36 -43 -7 -10 -10 -13 -17 -13
-13 0 -13 3 -13 80 0 69 0 69 -5 76 -8 10 -9 243 -2 253 3 3 6 9 8 15 2 6 5
10 11 15 11 7 20 23 22 37 1 8 3 11 8 15 17 13 17 91 0 117 -4 7 -6 12 -7 23
-1 8 -3 18 -5 22 -3 4 -5 10 -6 13 0 3 -5 10 -10 17 -5 6 -9 12 -9 13 0 1 -5
7 -11 14 -16 18 -15 10 -13 143 2 131 2 129 -5 135 -5 5 -23 7 -30 4z m-282
-113 c5 -12 10 -25 12 -28 2 -3 3 -9 3 -13 0 -4 2 -13 4 -19 7 -21 5 -42 -7
-55 -3 -4 -8 -11 -9 -15 -4 -11 -15 -28 -27 -40 -21 -20 -22 -18 -20 32 1 20
2 57 3 82 2 79 22 107 41 56z m298 -215 c5 -3 17 -22 19 -31 1 -5 4 -12 6 -15
2 -3 4 -8 5 -11 0 -3 1 -9 2 -13 1 -4 4 -11 7 -15 11 -14 9 -40 -6 -56 -4 -4
-11 -14 -15 -21 -21 -37 -38 -38 -45 -4 -2 6 -5 15 -8 20 -8 14 -8 71 0 83 4
6 6 12 7 23 2 28 17 48 28 40z m-212 -262 c4 -3 12 -7 17 -9 13 -5 13 -10 0
-53 -8 -23 -14 -35 -27 -53 -26 -36 -36 -40 -39 -15 -1 7 -3 12 -7 16 -5 6
-13 26 -13 35 0 3 -2 7 -5 10 -14 17 -13 38 1 48 32 24 58 31 73 21z m-122
-83 c1 -4 6 -14 11 -22 4 -7 9 -17 10 -21 1 -3 5 -10 7 -14 3 -3 5 -9 5 -13 0
-3 2 -10 3 -16 8 -21 -69 -43 -87 -25 -6 6 -4 37 4 48 2 3 10 18 17 33 18 39
25 46 30 30z"/>
</g>
</svg>
