<?xml version="1.0" standalone="no"?>
<!DOCTYPE svg PUBLIC "-//W3C//DTD SVG 20010904//EN"
 "http://www.w3.org/TR/2001/REC-SVG-20010904/DTD/svg10.dtd">
<svg version="1.0" xmlns="http://www.w3.org/2000/svg"
 width="81.000000pt" height="100.000000pt" viewBox="0 0 81.000000 100.000000"
 preserveAspectRatio="xMidYMid meet">
<metadata>
Created by potrace 1.16, written by Peter Selinger 2001-2019
</metadata>
<g transform="translate(0.000000,100.000000) scale(0.100000,-0.100000)"
fill="#000000" stroke="none">
<path d="M397 963 c-4 -3 -7 -55 -7 -114 0 -94 -3 -113 -22 -146 -34 -56 -32
-142 5 -212 25 -49 27 -62 27 -168 0 -64 5 -133 12 -155 9 -30 9 -41 0 -50
-10 -10 -32 8 -97 77 -46 50 -85 95 -85 101 0 6 7 17 16 25 26 21 54 86 54
124 0 47 -32 64 -88 47 -48 -15 -58 -2 -67 83 -7 63 -7 63 34 115 23 29 44 63
47 76 16 64 -29 176 -73 182 -16 2 -27 -6 -40 -30 -15 -28 -18 -58 -18 -208 0
-96 4 -198 9 -226 8 -46 6 -55 -18 -91 -33 -49 -44 -106 -25 -129 11 -13 24
-15 71 -10 l57 7 49 -63 c78 -99 172 -165 217 -154 46 12 183 209 234 338 48
119 62 212 59 388 -3 130 -5 155 -18 155 -12 0 -16 -16 -18 -72 -2 -55 -6 -73
-17 -73 -14 0 -23 32 -27 104 -4 51 -25 58 -34 12 -8 -46 -18 -46 -30 2 -12
50 -38 50 -42 0 -3 -34 3 -44 67 -113 64 -68 71 -80 71 -117 0 -53 -26 -166
-56 -248 -26 -70 -122 -240 -157 -278 -20 -21 -22 -22 -28 -5 -4 10 -8 89 -8
175 -1 153 0 158 25 195 22 33 25 45 21 91 -3 31 -16 71 -31 97 -24 40 -26 54
-26 153 0 91 -3 111 -16 116 -19 7 -19 7 -27 -1z m-229 -105 c17 -17 14 -89
-3 -112 -23 -31 -33 -8 -28 62 6 63 10 71 31 50z m270 -213 c17 -36 15 -76 -4
-103 -22 -32 -44 -12 -44 42 0 83 25 113 48 61z m-204 -191 c19 -7 21 -43 4
-79 -16 -35 -36 -31 -55 12 -14 36 -14 38 7 55 25 21 23 20 44 12z"/>
</g>
</svg>
