<?xml version="1.0" standalone="no"?>
<!DOCTYPE svg PUBLIC "-//W3C//DTD SVG 20010904//EN"
 "http://www.w3.org/TR/2001/REC-SVG-20010904/DTD/svg10.dtd">
<svg version="1.0" xmlns="http://www.w3.org/2000/svg"
 width="120.000000pt" height="148.000000pt" viewBox="0 0 120.000000 148.000000"
 preserveAspectRatio="xMidYMid meet">
<metadata>
Created by potrace 1.16, written by Peter Selinger 2001-2019
</metadata>
<g transform="translate(0.000000,148.000000) scale(0.100000,-0.100000)"
fill="#000000" stroke="none">
<path d="M586 1391 c-10 -19 -12 -32 -6 -36 6 -4 10 -61 10 -138 0 -127 -1
-132 -26 -158 -44 -46 -63 -153 -43 -238 11 -50 23 -77 66 -154 9 -15 13 -82
13 -224 0 -124 4 -204 10 -208 6 -3 10 -22 10 -41 0 -45 -24 -45 -70 0 -245
241 -243 236 -188 294 48 51 80 124 76 176 -3 38 -6 42 -44 55 -36 13 -47 12
-85 -1 -24 -8 -50 -17 -57 -19 -22 -7 -43 69 -49 171 l-5 95 41 40 c23 21 41
43 41 48 0 4 11 25 25 45 38 56 35 125 -11 218 -39 80 -63 97 -95 68 -36 -33
-49 -77 -59 -199 -12 -166 -6 -322 19 -440 l20 -100 -29 -40 c-50 -66 -61 -94
-63 -151 -1 -39 2 -58 13 -65 15 -10 92 -6 157 7 28 5 33 3 49 -27 37 -73 165
-212 208 -229 14 -5 26 -15 26 -22 0 -12 101 -58 126 -58 16 0 154 147 154
163 0 8 12 31 28 51 15 19 43 57 63 83 19 27 52 90 74 141 21 51 42 95 47 98
4 3 8 16 8 29 0 13 5 27 10 30 6 3 10 26 10 50 0 24 5 47 10 50 6 3 10 21 10
40 0 19 5 37 10 40 6 4 10 105 10 271 0 218 -2 264 -14 264 -30 0 -37 -28 -35
-137 1 -59 -2 -110 -7 -113 -5 -3 -19 13 -31 35 -18 31 -23 56 -23 112 0 80
-6 103 -26 103 -11 0 -14 -16 -14 -65 0 -49 -3 -65 -14 -65 -20 0 -33 20 -41
65 -10 54 -22 75 -40 69 -11 -4 -15 -21 -15 -57 0 -49 2 -54 53 -102 84 -78
151 -166 154 -200 4 -45 -17 -196 -33 -232 -8 -17 -14 -45 -14 -63 0 -18 -7
-48 -16 -68 -35 -82 -47 -108 -55 -122 -5 -8 -17 -31 -27 -50 -10 -19 -30 -55
-46 -78 -15 -24 -39 -65 -53 -90 -14 -26 -35 -56 -48 -67 -12 -11 -30 -33 -40
-48 -10 -16 -25 -27 -34 -25 -13 3 -16 19 -17 93 -1 50 -4 164 -7 255 l-6 165
29 37 c17 20 30 43 30 51 0 8 7 20 15 27 8 7 15 28 15 47 0 18 -7 50 -15 70
-8 19 -15 44 -15 53 0 10 -16 39 -35 64 l-35 46 -2 167 c-3 148 -5 168 -20
171 -11 2 -23 -8 -32 -27z m-333 -123 c30 -83 30 -103 2 -155 -33 -59 -44 -73
-59 -73 -12 0 -5 222 8 253 13 29 32 19 49 -25z m390 -295 c47 -111 46 -121
-8 -189 -23 -28 -24 -28 -42 -11 -15 14 -18 34 -18 105 1 126 34 173 68 95z
m-274 -302 c22 -17 23 -20 11 -57 -18 -57 -59 -124 -75 -124 -8 0 -15 6 -15
13 0 7 -9 32 -20 55 -32 66 -27 90 23 112 51 24 47 24 76 1z m-119 -208 c0
-18 -8 -24 -41 -33 -80 -22 -95 1 -58 84 38 83 40 84 70 24 16 -29 28 -63 29
-75z"/>
</g>
</svg>
