<?xml version="1.0" standalone="no"?>
<!DOCTYPE svg PUBLIC "-//W3C//DTD SVG 20010904//EN"
 "http://www.w3.org/TR/2001/REC-SVG-20010904/DTD/svg10.dtd">
<svg version="1.0" xmlns="http://www.w3.org/2000/svg"
 width="122.000000pt" height="148.000000pt" viewBox="0 0 122.000000 148.000000"
 preserveAspectRatio="xMidYMid meet">
<metadata>
Created by potrace 1.16, written by Peter Selinger 2001-2019
</metadata>
<g transform="translate(0.000000,148.000000) scale(0.100000,-0.100000)"
fill="#000000" stroke="none">
<path d="M93 1123 c3 -246 6 -286 24 -348 28 -93 69 -179 111 -235 19 -25 42
-61 51 -80 32 -71 187 -232 296 -307 76 -52 311 -118 337 -94 4 4 9 173 10
376 l3 370 118 -4 117 -3 1 48 c4 125 -7 172 -33 145 -8 -7 -13 -39 -13 -79
l0 -67 -47 -3 -47 -3 -3 78 c-2 61 -6 78 -18 78 -12 0 -16 -17 -18 -77 l-3
-78 -29 0 -30 0 0 145 c0 109 3 145 13 146 6 0 60 0 120 -1 l107 -2 1 64 c0
35 3 81 5 103 6 51 -2 85 -21 85 -12 0 -15 -18 -15 -100 l0 -100 -44 0 c-54 0
-59 9 -50 104 5 60 4 74 -11 86 -27 22 -36 -4 -33 -105 l3 -90 -38 -3 -38 -3
2 96 c2 105 -5 121 -45 111 -25 -6 -25 -7 -23 -104 l2 -97 -45 0 -45 0 0 100
c0 82 -3 100 -15 100 -12 0 -16 -19 -18 -97 l-3 -98 -49 0 c-33 0 -50 4 -51
13 -1 6 -1 49 1 94 1 68 -1 84 -14 89 -35 14 -43 -11 -38 -123 2 -60 8 -112
13 -117 5 -6 66 -10 136 -10 l128 -1 0 -140 0 -140 -37 -3 -38 -3 0 81 c0 63
-3 82 -15 87 -24 9 -27 0 -28 -84 l-2 -78 -57 -3 -58 -3 0 85 c0 87 -9 108
-36 85 -13 -11 -15 -30 -11 -100 2 -48 8 -92 12 -99 5 -9 43 -11 137 -9 l130
4 1 -335 1 -335 -40 2 c-22 2 -68 16 -102 33 -34 16 -66 30 -71 30 -12 0 -139
109 -204 176 -32 32 -69 84 -84 114 -14 30 -38 70 -54 90 -30 38 -89 148 -89
166 0 6 -9 38 -19 71 -10 32 -22 93 -26 135 l-7 76 40 21 c86 44 202 219 202
305 l0 46 -155 0 -156 0 4 -277z m237 203 c0 -26 -26 -35 -85 -31 -60 4 -82
15 -71 34 11 17 156 14 156 -3z m-40 -100 c0 -22 -22 -33 -77 -38 -45 -4 -53
-2 -53 11 0 29 22 41 77 41 38 0 53 -4 53 -14z m-85 -95 c3 -5 -5 -17 -17 -25
-24 -17 -35 -8 -24 19 6 17 32 20 41 6z"/>
</g>
</svg>
