<?xml version="1.0" standalone="no"?>
<!DOCTYPE svg PUBLIC "-//W3C//DTD SVG 20010904//EN"
 "http://www.w3.org/TR/2001/REC-SVG-20010904/DTD/svg10.dtd">
<svg version="1.0" xmlns="http://www.w3.org/2000/svg"
 width="490.000000pt" height="590.000000pt" viewBox="0 0 490.000000 590.000000"
 preserveAspectRatio="xMidYMid meet">
<metadata>
Created by potrace 1.16, written by Peter Selinger 2001-2019
</metadata>
<g transform="translate(0.000000,590.000000) scale(0.500000,-0.500000)"
fill="#000000" stroke="none">
<path d="M187 1120 c-76 -1 -107 -2 -109 -3 -3 -4 -5 -364 -2 -377 2 -8 2 -12
0 -21 -2 -9 -2 -13 0 -21 1 -5 3 -14 4 -20 1 -6 4 -17 6 -23 3 -6 6 -16 7 -22
2 -5 5 -17 7 -25 2 -8 5 -20 6 -26 3 -14 9 -29 24 -59 7 -13 14 -29 16 -35 4
-11 8 -16 35 -51 7 -9 14 -18 15 -21 1 -3 5 -8 8 -12 6 -8 28 -51 32 -63 1 -4
8 -13 14 -20 6 -6 16 -18 21 -25 9 -12 22 -26 48 -53 38 -38 150 -129 160
-129 0 0 5 -2 9 -5 4 -3 13 -6 19 -8 7 -2 17 -6 24 -10 7 -4 16 -8 21 -9 5 -1
19 -7 31 -12 12 -5 27 -10 32 -11 6 -1 18 -4 27 -6 24 -7 92 -8 101 -1 5 4 5
4 5 294 0 269 0 291 3 294 3 3 9 3 59 2 113 -2 120 -2 125 5 6 7 8 85 2 99 -2
4 -4 15 -5 25 -1 21 -5 27 -14 27 -14 0 -16 -6 -16 -63 0 -63 3 -59 -46 -59
-39 0 -36 -5 -36 60 -1 58 -2 60 -16 60 -13 0 -14 -3 -14 -61 -1 -63 0 -60
-23 -60 -23 0 -21 -10 -21 116 0 134 -15 116 96 115 112 -1 97 -14 99 94 1
102 1 103 -20 99 -13 -2 -14 -3 -13 -79 0 -81 4 -73 -34 -74 -42 -1 -39 -6
-39 77 0 76 0 76 -16 76 -16 0 -16 0 -15 -78 1 -87 2 -83 -33 -83 -27 0 -26
-6 -24 80 2 87 3 84 -35 82 -25 -2 -23 3 -22 -84 1 -87 4 -78 -33 -78 -42 0
-39 -7 -38 82 2 79 2 79 -14 79 -17 0 -17 -2 -16 -79 2 -83 7 -75 -41 -74 -45
1 -41 -7 -40 77 1 77 1 77 -20 77 -22 0 -21 2 -20 -93 1 -118 -10 -109 126
-108 98 2 96 2 96 -11 2 -118 1 -200 -3 -203 -5 -6 -16 -9 -34 -9 -27 0 -27 0
-27 72 0 60 0 60 -14 60 -15 0 -15 -1 -16 -67 0 -72 5 -64 -45 -63 -54 1 -49
-7 -49 69 0 61 -2 67 -20 64 -16 -2 -16 -2 -16 -84 1 -98 -18 -88 164 -85 41
1 54 0 56 -1 4 -4 5 -522 1 -528 -4 -6 -6 -6 -25 -1 -8 2 -19 4 -23 4 -29 0
-141 59 -187 99 -19 16 -40 35 -47 41 -7 5 -16 15 -21 20 -4 6 -16 17 -25 25
-25 22 -61 70 -70 93 -11 29 -20 46 -32 58 -12 13 -31 40 -41 60 -4 7 -12 21
-17 30 -16 29 -23 46 -26 65 -1 4 -2 12 -4 16 -1 4 -5 16 -8 26 -3 10 -8 25
-11 35 -5 14 -6 19 -6 39 0 16 -1 25 -4 35 -13 40 -6 68 20 79 34 14 90 72
118 122 4 7 15 25 24 41 12 20 18 32 19 38 1 5 3 13 4 18 12 38 2 67 -23 66
-5 -1 -57 -1 -115 -2z m26 -52 c54 -1 56 -2 50 -15 -5 -10 -7 -11 -40 -11 -55
-1 -75 3 -75 18 0 10 3 13 12 11 4 -1 28 -2 53 -3z m15 -82 c5 -3 5 -8 1 -16
-11 -22 -93 -27 -90 -5 3 18 6 19 42 19 18 0 34 1 37 2 3 1 5 2 6 2 0 0 2 -1
4 -2z"/>
</g>
</svg>
