<?xml version="1.0" standalone="no"?>
<!DOCTYPE svg PUBLIC "-//W3C//DTD SVG 20010904//EN"
 "http://www.w3.org/TR/2001/REC-SVG-20010904/DTD/svg10.dtd">
<svg version="1.0" xmlns="http://www.w3.org/2000/svg"
 width="82.000000pt" height="100.000000pt" viewBox="0 0 82.000000 100.000000"
 preserveAspectRatio="xMidYMid meet">
<metadata>
Created by potrace 1.16, written by Peter Selinger 2001-2019
</metadata>
<g transform="translate(0.000000,100.000000) scale(0.100000,-0.100000)"
fill="#000000" stroke="none">
<path d="M67 944 c-4 -4 -7 -89 -7 -189 0 -167 2 -187 25 -254 37 -110 99
-205 200 -306 95 -96 164 -138 251 -154 88 -17 84 -28 84 219 0 120 3 232 7
250 l6 33 65 -6 c42 -4 70 -3 79 4 13 12 18 94 7 123 -13 33 -33 16 -40 -33
-10 -75 -50 -79 -56 -7 -4 53 -28 61 -28 9 0 -43 -13 -69 -29 -59 -12 8 -16
142 -5 170 5 13 22 16 80 16 86 0 87 2 82 110 -2 50 -7 65 -18 65 -11 0 -16
-15 -18 -60 -3 -60 -13 -78 -39 -68 -9 3 -13 24 -13 63 0 33 -4 61 -9 65 -17
10 -28 -26 -23 -71 5 -48 -10 -77 -35 -67 -12 5 -14 17 -10 59 6 58 -9 92 -36
81 -12 -4 -17 -23 -19 -74 -3 -60 -5 -68 -23 -68 -17 0 -20 8 -23 60 -3 76 -9
92 -24 77 -7 -7 -12 -38 -12 -69 -1 -55 -2 -58 -26 -58 -24 0 -25 4 -30 65 -4
57 -8 65 -25 65 -17 0 -20 -8 -23 -55 -2 -30 -1 -70 3 -87 l6 -33 89 0 90 0 0
-96 c0 -85 -2 -95 -17 -92 -13 2 -20 18 -27 61 -11 71 -30 70 -34 -1 -3 -50
-4 -52 -33 -52 -26 0 -29 3 -29 33 0 51 -11 77 -31 77 -17 0 -19 -8 -19 -69 0
-45 4 -73 13 -78 6 -4 48 -8 92 -8 l80 0 3 -214 c1 -132 -1 -218 -7 -224 -17
-17 -149 56 -218 118 -106 95 -207 288 -227 428 -5 36 -2 41 53 93 40 37 67
74 85 115 41 91 39 93 -80 97 -55 1 -103 0 -107 -4z"/>
</g>
</svg>
