<?xml version="1.0" standalone="no"?>
<!DOCTYPE svg PUBLIC "-//W3C//DTD SVG 20010904//EN"
 "http://www.w3.org/TR/2001/REC-SVG-20010904/DTD/svg10.dtd">
<svg version="1.0" xmlns="http://www.w3.org/2000/svg"
 width="148.000000pt" height="148.000000pt" viewBox="0 0 148.000000 148.000000"
 preserveAspectRatio="xMidYMid meet">
<metadata>
Created by potrace 1.16, written by Peter Selinger 2001-2019
</metadata>
<g transform="translate(0.000000,148.000000) scale(0.100000,-0.100000)"
fill="#000000" stroke="none">
<path d="M77 1424 c-12 -13 -7 -48 13 -89 21 -43 29 -56 73 -118 15 -22 27
-45 27 -52 0 -7 9 -24 20 -37 21 -28 46 -93 80 -213 12 -44 26 -90 31 -103 5
-13 9 -32 9 -42 0 -11 31 -84 70 -162 71 -146 111 -200 240 -328 80 -79 127
-116 185 -144 80 -38 167 -66 225 -71 19 -2 40 -4 45 -6 6 -2 20 0 32 5 l23 7
2 392 3 392 115 0 115 0 0 90 c0 83 -1 90 -20 90 -17 0 -21 -8 -25 -65 -5 -62
-6 -65 -32 -68 -27 -3 -27 -3 -30 65 -3 60 -5 68 -23 68 -17 0 -21 -8 -25 -65
l-5 -65 -37 -3 -38 -3 0 136 0 136 106 -2 c58 -1 109 2 113 7 5 5 11 59 15
120 6 117 -1 142 -38 128 -13 -5 -16 -23 -16 -105 l0 -99 -36 0 -35 0 2 98 2
97 -32 3 c-35 4 -36 -1 -22 -113 9 -70 0 -98 -32 -93 -21 3 -22 9 -25 106 l-3
103 -27 -3 -27 -3 4 -94 c4 -103 -1 -112 -52 -102 l-32 7 3 97 4 97 -32 0 -31
0 1 -87 c1 -49 1 -94 1 -100 -1 -8 -14 -13 -31 -13 l-30 0 0 99 c0 92 -1 99
-21 104 -44 12 -49 1 -49 -113 0 -141 -1 -140 148 -140 l112 0 2 -95 c4 -188
7 -170 -27 -170 -33 0 -42 20 -44 103 -1 39 -3 43 -23 40 -21 -3 -23 -8 -23
-73 l0 -70 -40 0 -40 0 -5 67 c-5 72 -16 93 -44 82 -14 -6 -16 -20 -14 -103
l3 -96 122 0 c66 0 124 -3 127 -6 5 -4 10 -617 7 -708 -1 -11 -13 -12 -55 -7
-144 17 -303 116 -432 272 -64 77 -162 227 -163 252 -1 7 -9 31 -20 55 -39 88
-92 262 -90 297 1 14 -1 32 -5 41 -4 10 -3 20 3 24 6 3 11 19 11 35 0 16 4 31
9 34 5 3 12 18 16 33 3 15 15 46 25 68 23 51 50 122 57 153 5 20 2 22 -35 22
-45 0 -44 1 -61 -94 -12 -63 -36 -111 -51 -101 -5 3 -8 47 -7 98 l2 92 -30 0
c-26 0 -30 -3 -28 -25 2 -14 6 -61 9 -105 l6 -80 -20 20 c-27 26 -92 150 -92
176 0 10 -6 19 -14 19 -8 0 -21 2 -28 5 -8 3 -17 2 -21 -1z"/>
</g>
</svg>
