<?xml version="1.0" standalone="no"?>
<!DOCTYPE svg PUBLIC "-//W3C//DTD SVG 20010904//EN"
 "http://www.w3.org/TR/2001/REC-SVG-20010904/DTD/svg10.dtd">
<svg version="1.0" xmlns="http://www.w3.org/2000/svg"
 width="100.000000pt" height="100.000000pt" viewBox="0 0 100.000000 100.000000"
 preserveAspectRatio="xMidYMid meet">
<metadata>
Created by potrace 1.16, written by Peter Selinger 2001-2019
</metadata>
<g transform="translate(0.000000,100.000000) scale(0.100000,-0.100000)"
fill="#000000" stroke="none">
<path d="M44 957 c-7 -20 15 -68 69 -151 35 -53 53 -98 82 -198 54 -194 106
-290 219 -404 114 -115 188 -155 294 -157 l67 -2 5 255 c3 140 9 260 13 267 5
9 27 10 72 6 64 -6 65 -6 75 22 6 16 10 47 8 69 -2 33 -7 41 -23 41 -16 0 -21
-8 -23 -42 -4 -59 -30 -59 -34 0 -4 60 -31 58 -38 -3 -4 -37 -9 -45 -25 -45
-18 0 -20 8 -23 79 -3 93 1 98 73 90 34 -4 56 -1 68 8 22 16 32 73 23 132 -6
37 -11 46 -27 46 -17 0 -19 -7 -19 -65 0 -51 -4 -67 -16 -72 -23 -9 -32 12
-27 65 4 54 -7 78 -32 68 -14 -5 -16 -15 -10 -64 5 -47 3 -61 -9 -71 -20 -17
-25 -6 -28 74 -2 45 -7 60 -18 60 -12 0 -16 -15 -18 -67 -2 -45 -7 -68 -17
-72 -22 -8 -34 16 -37 79 -2 45 -7 60 -18 60 -11 0 -16 -16 -20 -65 -4 -49 -9
-65 -20 -65 -11 0 -16 16 -20 65 -4 57 -8 65 -25 65 -18 0 -20 -8 -23 -73 -2
-46 2 -79 9 -88 8 -10 34 -14 84 -14 l73 0 7 -81 c5 -51 4 -84 -3 -91 -14 -14
-32 -1 -32 25 -1 72 -37 94 -42 25 -2 -36 -7 -44 -25 -46 -21 -3 -23 1 -23 36
0 39 -20 69 -39 58 -14 -9 -22 -77 -13 -111 l9 -30 79 0 79 0 7 -55 c3 -30 6
-134 7 -231 1 -198 -1 -203 -61 -190 -73 17 -134 56 -219 141 -97 96 -143 170
-190 306 -49 141 -49 180 0 298 43 103 45 126 13 126 -26 0 -42 -20 -42 -51 0
-35 -16 -79 -29 -79 -6 0 -11 28 -13 63 -2 47 -7 62 -18 62 -12 0 -14 -12 -12
-62 4 -88 -21 -82 -58 14 -18 49 -54 71 -66 40z"/>
</g>
</svg>
