<?xml version="1.0" standalone="no"?>
<!DOCTYPE svg PUBLIC "-//W3C//DTD SVG 20010904//EN"
 "http://www.w3.org/TR/2001/REC-SVG-20010904/DTD/svg10.dtd">
<svg version="1.0" xmlns="http://www.w3.org/2000/svg"
 width="488.000000pt" height="590.000000pt" viewBox="0 0 488.000000 590.000000"
 preserveAspectRatio="xMidYMid meet">
<metadata>
Created by potrace 1.16, written by Peter Selinger 2001-2019
</metadata>
<g transform="translate(0.000000,590.000000) scale(0.500000,-0.500000)"
fill="#000000" stroke="none">
<path d="M112 1133 c-16 -15 -44 -57 -47 -71 -1 -4 -4 -12 -8 -20 -6 -13 -6
-13 -6 -109 l0 -96 8 -29 c5 -16 13 -46 19 -66 6 -20 14 -52 19 -70 5 -18 11
-39 13 -47 3 -8 5 -20 6 -27 2 -16 66 -162 84 -192 5 -7 8 -14 8 -16 0 -2 6
-12 14 -22 8 -11 17 -23 20 -28 4 -5 16 -18 26 -29 34 -37 41 -46 45 -53 2 -4
10 -14 19 -22 8 -8 17 -18 20 -22 3 -4 19 -17 35 -29 17 -12 34 -27 40 -32 21
-22 100 -64 126 -67 10 -1 17 -4 27 -9 11 -6 15 -8 30 -9 14 -1 19 -2 25 -6 7
-5 11 -6 27 -7 18 0 21 -1 28 -6 8 -6 10 -6 28 -6 34 0 31 -38 30 311 -1 244
-1 300 2 302 2 2 18 3 82 2 109 -1 100 -7 100 74 0 70 -1 73 -27 69 -16 -2
-16 -1 -17 -52 -1 -25 -1 -46 -2 -46 -2 -4 -14 -7 -26 -7 -22 0 -21 -2 -22 52
-1 53 -1 53 -19 51 -16 -1 -16 -1 -17 -51 -1 -55 0 -53 -30 -53 -30 0 -27 -10
-28 100 0 118 -14 103 90 101 85 -1 85 -1 87 101 2 101 2 98 -22 98 -24 0 -24
1 -22 -77 2 -84 3 -81 -29 -81 -24 0 -23 -4 -21 77 1 81 1 80 -25 80 -26 0
-27 -4 -16 -98 6 -49 -3 -67 -30 -60 -12 3 -13 4 -11 80 2 80 2 79 -22 78 -22
-2 -22 2 -20 -80 2 -85 3 -83 -42 -78 -24 2 -22 -4 -21 78 1 83 1 80 -22 80
-22 0 -21 4 -21 -79 0 -83 2 -78 -22 -78 -24 0 -22 -5 -22 78 0 38 -1 71 -2
73 -6 10 -36 11 -44 1 -6 -6 -8 -152 -3 -167 6 -17 27 -23 70 -22 10 0 24 0
31 0 7 0 28 0 48 0 50 0 44 13 46 -104 1 -107 2 -100 -15 -102 -33 -3 -34 -1
-36 57 -2 51 -3 54 -16 56 -21 4 -23 -1 -24 -57 0 -58 2 -55 -31 -54 -29 1
-28 -1 -29 48 -2 56 -8 70 -32 65 -14 -3 -14 -2 -14 -76 0 -87 -12 -78 97 -75
113 2 99 26 97 -166 0 -82 0 -197 0 -256 2 -115 1 -121 -7 -123 -11 -3 -51 0
-64 5 -7 2 -19 6 -29 7 -10 2 -23 6 -34 11 -9 4 -20 8 -23 9 -11 2 -74 43 -98
62 -8 7 -27 25 -43 41 -16 15 -31 28 -32 28 -2 0 -29 32 -41 49 -4 6 -12 16
-18 22 -6 7 -13 17 -17 22 -4 6 -10 14 -13 19 -4 4 -7 9 -7 11 0 1 -3 6 -6 10
-3 5 -7 11 -9 14 -1 4 -7 11 -12 17 -23 27 -71 143 -98 237 -31 108 -29 96
-17 111 4 5 10 13 13 18 10 15 93 122 105 135 6 7 14 17 17 22 3 6 11 15 17
22 6 7 13 15 16 19 3 4 12 15 21 25 24 27 29 45 16 57 -21 19 -33 17 -44 -4
-8 -17 -31 -50 -43 -64 -6 -7 -29 -36 -51 -65 -22 -29 -46 -60 -54 -69 -8 -9
-18 -22 -22 -29 -17 -25 -28 -18 -27 17 1 21 0 19 36 62 13 16 28 35 33 43 6
8 17 22 26 31 22 24 36 41 44 51 3 4 10 12 14 17 13 15 11 31 -5 39 -19 10
-23 6 -80 -68 -75 -98 -74 -97 -74 -57 0 21 4 33 23 62 4 7 11 19 15 25 3 7
11 18 17 25 16 18 14 28 -4 36 -10 4 -16 3 -25 -5z"/>
</g>
</svg>
