<?xml version="1.0" standalone="no"?>
<!DOCTYPE svg PUBLIC "-//W3C//DTD SVG 20010904//EN"
 "http://www.w3.org/TR/2001/REC-SVG-20010904/DTD/svg10.dtd">
<svg version="1.0" xmlns="http://www.w3.org/2000/svg"
 width="82.000000pt" height="100.000000pt" viewBox="0 0 82.000000 100.000000"
 preserveAspectRatio="xMidYMid meet">
<metadata>
Created by potrace 1.16, written by Peter Selinger 2001-2019
</metadata>
<g transform="translate(0.000000,100.000000) scale(0.100000,-0.100000)"
fill="#000000" stroke="none">
<path d="M77 952 c-28 -30 -37 -71 -37 -160 0 -129 45 -293 119 -441 38 -74
173 -218 238 -253 56 -31 198 -72 219 -64 12 4 14 48 14 260 l0 255 72 3 73 3
9 43 c11 53 -6 101 -29 82 -7 -6 -15 -28 -17 -47 -4 -51 -23 -52 -34 -1 -11
53 -28 56 -32 5 -3 -40 -27 -60 -43 -36 -12 19 -11 102 1 134 9 24 13 25 59
19 42 -5 52 -3 70 15 19 19 21 31 19 89 -3 59 -5 67 -23 67 -18 0 -20 -8 -23
-63 -3 -53 -6 -63 -20 -60 -13 3 -18 16 -20 66 -3 53 -6 63 -20 60 -14 -3 -17
-15 -17 -67 0 -41 -4 -66 -12 -68 -16 -6 -27 39 -19 77 3 16 3 37 0 45 -8 21
-34 19 -35 -2 0 -10 -1 -40 -2 -68 -2 -43 -5 -50 -22 -50 -17 0 -21 8 -25 65
-4 51 -9 66 -22 68 -16 3 -18 -5 -18 -57 0 -33 -5 -63 -11 -66 -16 -10 -19 -3
-23 60 -4 54 -19 81 -38 69 -4 -3 -8 -41 -8 -84 0 -94 8 -102 97 -98 l58 3 3
-82 c2 -68 0 -83 -12 -83 -10 0 -17 15 -22 45 -7 52 -34 64 -34 16 0 -39 -9
-61 -26 -61 -13 0 -21 19 -26 70 -2 14 -10 26 -20 28 -21 4 -30 -38 -20 -93
l7 -40 75 -5 75 -5 3 -223 2 -222 -32 0 c-43 0 -127 40 -184 86 -54 44 -133
143 -164 203 -38 75 -90 219 -90 248 0 21 25 60 90 142 50 63 90 120 90 128 0
7 -7 16 -17 20 -18 7 -16 8 -106 -115 -62 -84 -87 -105 -87 -72 0 10 29 54 65
97 36 43 64 84 63 92 -6 31 -28 19 -75 -41 -40 -53 -48 -59 -51 -41 -2 12 9
40 23 62 26 39 27 61 1 61 -7 0 -20 -8 -29 -18z"/>
</g>
</svg>
