<?xml version="1.0" standalone="no"?>
<!DOCTYPE svg PUBLIC "-//W3C//DTD SVG 20010904//EN"
 "http://www.w3.org/TR/2001/REC-SVG-20010904/DTD/svg10.dtd">
<svg version="1.0" xmlns="http://www.w3.org/2000/svg"
 width="122.000000pt" height="148.000000pt" viewBox="0 0 122.000000 148.000000"
 preserveAspectRatio="xMidYMid meet">
<metadata>
Created by potrace 1.16, written by Peter Selinger 2001-2019
</metadata>
<g transform="translate(0.000000,148.000000) scale(0.100000,-0.100000)"
fill="#000000" stroke="none">
<path d="M129 1408 c-12 -13 -32 -45 -45 -73 -21 -44 -24 -65 -24 -165 0 -85
6 -135 21 -190 12 -41 24 -88 29 -105 50 -182 52 -189 126 -340 30 -61 124
-187 188 -251 29 -30 136 -116 166 -135 57 -36 230 -89 305 -92 l30 -2 2 374
c1 206 4 380 7 386 3 8 31 10 89 7 47 -2 97 -2 111 2 25 6 26 9 26 91 0 84 0
85 -25 85 -24 0 -25 -3 -25 -60 0 -50 -3 -61 -21 -70 -34 -19 -49 4 -49 72 0
51 -2 59 -17 56 -14 -2 -19 -16 -23 -62 -6 -66 -26 -90 -57 -70 -16 10 -18 28
-18 129 0 64 4 120 9 123 6 3 50 6 99 6 116 1 119 5 115 141 -3 99 -3 100 -28
100 -25 0 -25 -1 -28 -97 l-3 -98 -29 0 c-17 0 -30 6 -31 13 0 6 -1 50 -2 97
-2 84 -2 85 -27 85 -24 0 -25 -2 -23 -60 2 -33 5 -70 8 -81 3 -13 -3 -32 -14
-45 -16 -20 -21 -22 -35 -10 -14 12 -16 27 -10 101 6 85 6 88 -15 95 -13 4
-26 4 -29 0 -4 -4 -7 -48 -7 -98 l0 -92 -40 0 -40 0 0 95 c0 95 0 95 -25 95
-25 0 -25 0 -25 -95 l0 -95 -30 0 -30 0 0 85 c-1 93 -6 110 -36 110 -18 0 -19
-8 -19 -115 0 -83 3 -117 13 -120 6 -3 59 -6 117 -8 l105 -2 5 -120 c3 -66 4
-126 2 -132 -6 -20 -50 -15 -62 6 -5 11 -10 45 -10 76 0 48 -3 56 -17 53 -14
-3 -19 -15 -21 -63 -4 -71 -12 -83 -52 -77 -29 4 -30 5 -30 62 0 40 -5 64 -16
74 -27 27 -34 8 -34 -91 l0 -95 108 2 c59 1 113 2 120 1 9 -1 12 -77 12 -346
0 -201 -4 -345 -9 -345 -46 0 -169 35 -219 62 -162 87 -322 279 -412 493 -11
25 -43 120 -70 209 l-21 68 27 39 c15 21 78 103 140 181 63 78 114 149 114
158 0 8 -9 21 -20 28 -18 11 -23 8 -47 -31 -52 -81 -225 -297 -234 -291 -5 3
-9 19 -9 36 0 34 40 92 151 218 51 59 56 67 44 84 -8 10 -20 16 -28 13 -8 -3
-47 -49 -87 -101 -40 -53 -76 -96 -81 -96 -31 0 21 143 66 180 20 17 19 27 -5
40 -15 8 -23 6 -41 -12z"/>
</g>
</svg>
