<?xml version="1.0" standalone="no"?>
<!DOCTYPE svg PUBLIC "-//W3C//DTD SVG 20010904//EN"
 "http://www.w3.org/TR/2001/REC-SVG-20010904/DTD/svg10.dtd">
<svg version="1.0" xmlns="http://www.w3.org/2000/svg"
 width="98.000000pt" height="148.000000pt" viewBox="0 0 98.000000 148.000000"
 preserveAspectRatio="xMidYMid meet">
<metadata>
Created by potrace 1.16, written by Peter Selinger 2001-2019
</metadata>
<g transform="translate(0.000000,148.000000) scale(0.100000,-0.100000)"
fill="#000000" stroke="none">
<path d="M798 1413 c-13 -16 -29 -44 -59 -105 -5 -10 -9 -69 -9 -132 0 -131
17 -186 75 -246 29 -29 34 -43 36 -85 1 -27 -3 -72 -10 -100 -7 -27 -16 -70
-20 -95 -4 -25 -17 -67 -29 -94 -12 -27 -22 -54 -22 -61 0 -7 -7 -18 -15 -25
-8 -7 -15 -25 -15 -41 0 -18 -12 -41 -36 -66 -20 -21 -47 -59 -61 -85 -13 -25
-31 -49 -38 -52 -8 -3 -26 -23 -40 -46 -34 -55 -70 -55 -123 -2 -20 22 -42 41
-48 43 -21 8 -132 135 -148 169 -8 19 -20 42 -25 50 -5 8 -13 26 -18 40 -6 14
-20 45 -32 68 -11 24 -21 61 -21 81 0 20 -5 42 -11 48 -6 6 -11 47 -12 92 0
81 0 82 37 119 57 59 76 122 76 252 0 97 -3 116 -26 164 -31 67 -55 90 -83 81
-22 -7 -51 -53 -59 -95 -10 -54 -17 -332 -11 -455 6 -118 34 -283 52 -301 4
-4 7 -15 7 -24 0 -9 11 -40 25 -68 14 -29 25 -58 25 -65 0 -7 8 -20 18 -29 9
-9 33 -38 52 -65 83 -115 231 -233 291 -233 17 0 139 126 139 143 0 14 62 107
72 107 4 0 8 6 8 14 0 7 7 19 15 26 9 7 21 27 29 44 114 267 125 326 125 651
0 270 -7 320 -53 373 -23 27 -38 28 -58 5z m55 -239 c12 -238 8 -272 -23 -206
-42 90 -56 226 -33 307 20 65 24 71 38 52 7 -10 15 -74 18 -153z m-697 81 c18
-45 18 -178 -1 -251 -16 -63 -43 -111 -54 -98 -5 7 11 371 18 382 7 11 25 -4
37 -33z"/>
</g>
</svg>
