<?xml version="1.0" standalone="no"?>
<!DOCTYPE svg PUBLIC "-//W3C//DTD SVG 20010904//EN"
 "http://www.w3.org/TR/2001/REC-SVG-20010904/DTD/svg10.dtd">
<svg version="1.0" xmlns="http://www.w3.org/2000/svg"
 width="390.000000pt" height="590.000000pt" viewBox="0 0 390.000000 590.000000"
 preserveAspectRatio="xMidYMid meet">
<metadata>
Created by potrace 1.16, written by Peter Selinger 2001-2019
</metadata>
<g transform="translate(0.000000,590.000000) scale(0.500000,-0.500000)"
fill="#000000" stroke="none">
<path d="M647 1139 c-10 -6 -21 -18 -28 -31 -4 -7 -10 -18 -14 -24 -4 -8 -7
-16 -8 -22 0 -7 -2 -12 -6 -16 -9 -10 -9 -9 -9 -103 0 -90 0 -90 6 -106 4 -9
8 -20 9 -24 8 -25 23 -48 46 -72 27 -29 28 -30 26 -45 -1 -9 0 -14 3 -24 5
-15 5 -28 0 -40 -3 -6 -5 -15 -6 -30 -1 -19 -2 -22 -9 -35 -7 -14 -7 -15 -8
-41 -2 -24 -2 -27 -7 -34 -2 -4 -5 -11 -6 -15 -1 -4 -4 -11 -7 -15 -3 -5 -6
-12 -7 -19 -1 -6 -3 -13 -5 -16 -9 -13 -11 -16 -12 -25 -1 -9 -2 -12 -11 -21
-13 -13 -14 -17 -15 -37 -1 -9 -2 -19 -2 -22 -1 -6 -28 -35 -42 -47 -5 -4 -10
-12 -17 -26 -6 -11 -13 -23 -16 -26 -3 -3 -6 -9 -7 -12 -3 -11 -7 -17 -20 -26
-13 -9 -32 -33 -43 -56 -14 -28 -76 -8 -96 31 -5 10 -14 17 -24 20 -7 2 -25
18 -34 32 -5 8 -35 37 -46 45 -16 13 -38 47 -43 69 -2 11 -4 14 -13 22 -5 5
-10 10 -10 10 0 10 -5 25 -10 31 -4 6 -7 12 -9 22 -1 7 -5 17 -8 21 -3 4 -5 9
-5 11 0 3 -3 10 -6 16 -6 11 -7 14 -8 38 -1 26 -1 26 -9 40 -8 13 -8 15 -9 37
-1 16 -2 25 -5 29 -4 8 -4 34 0 41 2 3 3 11 3 22 0 16 0 16 12 29 25 24 39 42
42 50 1 4 5 11 8 15 5 6 8 15 19 47 5 13 7 113 5 196 0 2 -3 6 -7 10 -6 6 -7
9 -7 16 0 10 -6 23 -16 38 -3 4 -7 11 -9 15 -23 55 -95 16 -95 -52 0 -6 -1
-15 -3 -18 -2 -6 -6 -136 -5 -164 0 -22 0 -47 -2 -56 -4 -22 -4 -26 -2 -31 2
-6 5 -56 4 -79 -2 -89 -1 -108 8 -125 7 -14 8 -18 8 -29 0 -9 1 -16 4 -21 2
-4 4 -12 4 -16 0 -4 1 -13 3 -18 1 -6 2 -16 1 -21 0 -10 0 -12 6 -20 5 -7 7
-12 8 -22 1 -9 3 -16 7 -22 6 -9 15 -31 20 -45 1 -5 5 -13 9 -17 3 -5 7 -13 7
-17 2 -15 3 -17 13 -26 5 -5 13 -15 17 -23 4 -8 14 -20 25 -32 11 -11 21 -24
24 -30 11 -22 44 -59 60 -67 4 -3 10 -8 13 -13 4 -5 8 -10 11 -11 3 -2 9 -5
15 -7 7 -4 10 -7 13 -13 3 -4 7 -8 11 -10 12 -5 16 -7 22 -11 4 -2 11 -5 17
-6 7 -1 13 -4 19 -9 11 -10 29 -10 46 -1 12 7 53 49 65 66 3 5 10 13 15 17 11
9 13 12 15 26 2 12 11 26 26 41 4 4 10 12 13 19 3 7 9 15 14 20 6 5 11 12 14
19 3 6 10 15 15 20 7 7 10 13 11 18 2 9 4 14 10 19 2 3 5 11 6 19 2 10 5 17 8
20 6 7 9 13 9 20 0 3 6 17 14 33 10 19 14 29 14 35 0 7 1 9 10 22 3 6 4 9 4
20 -1 16 3 41 8 49 2 4 3 14 4 26 1 19 2 21 8 30 l7 9 0 92 c1 79 1 92 4 99 4
9 4 15 0 23 -2 6 -3 28 -4 115 -1 71 -2 109 -3 112 -2 2 -3 11 -4 21 -1 9 -3
19 -5 22 -1 3 -5 10 -8 17 -15 33 -39 50 -58 40z m20 -83 c9 -9 11 -32 11
-104 0 -28 1 -36 4 -41 5 -9 6 -150 1 -152 -7 -2 -13 7 -28 41 -4 9 -7 21 -8
27 -1 5 -3 13 -5 18 -2 5 -4 13 -4 19 0 6 -2 18 -4 26 -5 19 -6 86 -1 100 1 5
3 13 4 18 1 5 3 12 4 15 2 3 6 13 9 22 7 16 10 18 17 11z m-553 -32 c5 -6 12
-25 19 -50 6 -20 10 -94 5 -107 -1 -3 -4 -15 -5 -27 -1 -12 -5 -25 -7 -30 -2
-5 -4 -13 -4 -18 0 -5 -2 -12 -4 -15 -2 -3 -6 -12 -9 -20 -13 -32 -29 -42 -27
-17 0 5 0 37 1 71 0 58 0 63 4 71 4 8 4 13 5 64 0 48 1 56 4 67 5 17 11 21 18
11z"/>
</g>
</svg>
