<?xml version="1.0" standalone="no"?>
<!DOCTYPE svg PUBLIC "-//W3C//DTD SVG 20010904//EN"
 "http://www.w3.org/TR/2001/REC-SVG-20010904/DTD/svg10.dtd">
<svg version="1.0" xmlns="http://www.w3.org/2000/svg"
 width="98.000000pt" height="148.000000pt" viewBox="0 0 98.000000 148.000000"
 preserveAspectRatio="xMidYMid meet">
<metadata>
Created by potrace 1.16, written by Peter Selinger 2001-2019
</metadata>
<g transform="translate(0.000000,148.000000) scale(0.100000,-0.100000)"
fill="#000000" stroke="none">
<path d="M806 1419 c-10 -6 -31 -40 -47 -75 -26 -58 -29 -74 -29 -174 0 -125
17 -177 77 -241 29 -31 33 -42 34 -90 1 -66 -10 -137 -22 -145 -5 -3 -9 -22
-9 -42 0 -37 -47 -163 -69 -185 -6 -6 -11 -24 -11 -39 0 -19 -13 -43 -37 -71
-41 -45 -58 -69 -72 -104 -6 -12 -16 -25 -24 -30 -8 -4 -22 -20 -32 -35 -9
-16 -24 -28 -31 -28 -12 0 -14 54 -16 313 -2 387 -4 364 19 390 42 49 48 75
48 218 0 97 -4 142 -12 151 -7 6 -13 19 -13 27 0 44 -22 91 -49 104 -24 12
-32 12 -62 -2 -42 -20 -57 -68 -58 -183 -1 -42 -5 -80 -11 -83 -12 -8 -13 -52
-1 -59 4 -3 11 -36 15 -74 4 -43 15 -81 29 -103 25 -40 27 -67 34 -404 2 -126
8 -234 14 -240 13 -13 11 -52 -2 -61 -6 -4 -26 7 -43 24 -133 129 -186 188
-191 214 -4 16 -13 32 -21 35 -8 3 -14 13 -14 23 0 11 -4 22 -10 25 -5 3 -10
15 -10 25 0 11 -9 35 -20 55 -11 20 -20 53 -20 73 0 21 -5 43 -11 49 -6 6 -11
47 -12 92 0 78 1 83 30 114 61 64 77 110 81 238 4 111 3 118 -26 181 -55 122
-106 112 -141 -27 -13 -50 -15 -553 -3 -569 10 -11 19 -52 29 -121 3 -22 9
-44 14 -50 5 -5 9 -16 9 -25 0 -9 11 -40 25 -68 14 -29 25 -56 25 -62 0 -5 8
-19 18 -30 9 -10 33 -40 52 -66 46 -61 135 -154 148 -154 5 0 15 -7 22 -15 7
-9 37 -27 66 -41 46 -22 56 -23 72 -12 32 22 122 125 122 139 0 8 9 25 20 39
89 113 120 161 120 188 0 10 4 22 8 27 29 32 80 205 73 243 -1 8 3 20 9 27 9
10 20 154 21 280 2 86 -14 327 -23 350 -11 30 -46 75 -57 75 -3 0 -14 -5 -25
-11z m45 -202 c19 -289 3 -350 -45 -183 -31 105 -29 194 5 284 18 47 34 7 40
-101z m-693 34 c26 -84 12 -236 -29 -324 -15 -32 -35 -30 -33 4 1 13 5 96 9
184 4 88 9 163 12 168 11 18 31 4 41 -32z m345 -1 c5 -19 13 -39 18 -44 5 -6
9 -61 9 -123 0 -104 -2 -117 -25 -153 -29 -46 -41 -50 -51 -17 -7 23 -25 141
-24 167 0 35 19 176 25 193 12 28 38 15 48 -23z"/>
</g>
</svg>
