<?xml version="1.0" standalone="no"?>
<!DOCTYPE svg PUBLIC "-//W3C//DTD SVG 20010904//EN"
 "http://www.w3.org/TR/2001/REC-SVG-20010904/DTD/svg10.dtd">
<svg version="1.0" xmlns="http://www.w3.org/2000/svg"
 width="390.000000pt" height="590.000000pt" viewBox="0 0 390.000000 590.000000"
 preserveAspectRatio="xMidYMid meet">
<metadata>
Created by potrace 1.16, written by Peter Selinger 2001-2019
</metadata>
<g transform="translate(0.000000,590.000000) scale(0.500000,-0.500000)"
fill="#000000" stroke="none">
<path d="M649 1139 c-13 -7 -19 -13 -25 -26 -4 -8 -9 -17 -12 -22 -8 -12 -12
-20 -14 -31 -1 -6 -5 -14 -8 -19 -10 -15 -7 -200 4 -214 1 -1 3 -6 4 -11 1 -5
5 -14 9 -20 3 -6 8 -15 10 -20 2 -7 10 -16 27 -34 28 -28 29 -30 27 -47 -1 -9
0 -15 3 -23 5 -16 5 -28 -1 -41 -3 -7 -5 -15 -6 -30 -1 -19 -2 -22 -9 -36 -7
-15 -8 -17 -9 -42 -1 -20 -2 -27 -5 -32 -2 -3 -4 -9 -5 -14 -1 -4 -4 -11 -7
-15 -4 -6 -7 -12 -8 -21 -2 -8 -4 -14 -8 -19 -7 -9 -9 -14 -11 -25 -1 -5 -4
-10 -9 -16 -12 -12 -15 -20 -15 -38 -2 -23 -2 -24 -13 -36 -5 -5 -11 -13 -13
-16 -2 -3 -8 -8 -13 -12 -9 -7 -12 -10 -20 -29 -6 -11 -13 -24 -17 -28 -4 -4
-8 -12 -10 -17 -3 -11 -9 -17 -25 -26 -3 -2 -9 -8 -11 -13 -30 -52 -38 -44
-38 37 0 53 0 61 -4 66 -3 6 -3 19 -3 198 1 218 0 205 18 221 10 9 20 24 21
35 1 5 4 12 7 16 15 19 14 222 -1 248 -4 6 -5 11 -5 20 0 10 -1 14 -6 22 -5 7
-7 12 -8 23 -1 16 -3 19 -16 30 -24 22 -38 22 -86 -3 -7 -3 -16 -28 -16 -45 0
-10 -1 -15 -4 -21 -5 -8 -5 -10 -6 -69 -1 -61 -1 -61 -7 -71 -8 -14 -8 -29 0
-41 6 -8 6 -11 7 -34 1 -20 2 -27 5 -31 3 -5 4 -11 5 -31 1 -24 2 -26 8 -35 3
-6 7 -14 8 -17 2 -4 6 -10 9 -14 7 -7 12 -25 11 -38 -3 -37 -1 -77 3 -86 5 -9
5 -9 6 -143 2 -211 2 -224 9 -232 9 -10 11 -32 3 -40 -9 -9 -34 6 -45 27 -5
10 -14 17 -23 20 -9 3 -27 19 -34 31 -3 5 -8 11 -11 14 -4 4 -9 9 -11 11 -3 3
-10 10 -18 16 -23 19 -43 49 -48 73 -3 10 -5 14 -14 23 -9 10 -10 12 -12 22 0
6 -3 13 -5 16 -9 11 -10 14 -12 26 -2 9 -4 15 -8 20 -3 4 -6 11 -8 17 -1 5 -4
12 -6 16 -2 4 -3 14 -4 31 -1 24 -1 25 -10 41 -8 16 -8 17 -8 36 0 17 -1 21
-5 30 -6 12 -7 31 -2 43 2 4 3 12 3 18 -1 20 -1 20 15 35 21 21 35 40 40 50 1
5 6 13 9 18 3 4 7 12 8 16 1 4 4 11 6 15 2 4 4 9 4 11 0 3 1 7 2 10 6 15 3
187 -4 194 -4 5 -6 9 -7 17 -2 12 -6 22 -15 35 -3 4 -8 13 -11 18 -19 39 -55
38 -74 -2 -15 -32 -17 -36 -18 -51 -1 -8 -3 -18 -4 -21 -2 -5 -3 -32 -4 -111
-1 -88 -1 -107 -4 -116 -3 -9 -3 -11 0 -20 3 -8 3 -23 4 -98 l0 -88 9 -16 c7
-15 8 -18 8 -31 0 -10 1 -17 3 -21 4 -7 8 -30 8 -49 1 -19 0 -18 6 -25 4 -4 6
-10 7 -19 1 -10 4 -16 9 -25 3 -6 7 -13 8 -16 1 -3 3 -9 6 -15 3 -5 5 -12 6
-15 0 -3 4 -10 8 -16 4 -7 7 -14 8 -21 1 -11 3 -13 16 -24 3 -2 8 -11 13 -20
6 -12 13 -21 27 -35 10 -10 20 -22 22 -26 12 -23 41 -56 58 -66 7 -4 12 -9 16
-16 6 -8 8 -10 19 -14 13 -5 17 -8 22 -18 3 -4 6 -6 12 -8 5 -1 11 -5 15 -7 5
-5 16 -9 24 -9 2 0 8 -4 14 -8 13 -11 28 -12 44 -3 9 6 59 57 66 69 3 4 9 10
13 14 11 9 16 17 16 27 0 9 6 18 25 39 5 6 11 15 14 20 3 7 9 15 15 20 5 6 12
15 15 20 3 6 9 15 14 19 8 8 13 19 13 26 0 1 3 6 6 10 3 4 6 11 7 15 1 4 2 10
2 13 1 4 4 10 8 15 4 5 7 11 8 16 1 8 4 15 15 36 1 2 4 8 7 14 3 5 6 15 7 21
1 7 3 14 7 19 4 6 5 9 5 20 0 7 0 15 1 18 2 3 3 10 4 16 1 6 2 13 4 15 1 2 2
13 3 25 1 16 2 21 6 26 10 13 10 13 10 67 0 27 0 55 0 61 -1 23 2 73 5 81 3 8
3 9 0 16 -3 7 -4 16 -4 62 -1 124 -3 160 -6 170 -2 5 -3 14 -3 21 0 38 -44 89
-67 77z m18 -80 c9 -10 15 -50 12 -84 -1 -7 0 -16 1 -21 2 -6 2 -11 0 -19 -2
-9 -2 -11 1 -18 8 -18 11 -152 4 -159 -9 -9 -33 32 -38 64 -1 5 -3 16 -6 23
-3 8 -5 18 -5 23 0 5 -1 14 -3 20 -8 27 -2 119 10 141 3 5 5 11 5 12 0 14 12
25 19 18z m-552 -31 c2 -3 5 -11 7 -17 2 -7 6 -16 8 -20 2 -4 4 -10 4 -12 0
-2 1 -8 3 -14 4 -12 4 -95 1 -104 -1 -3 -3 -13 -4 -22 -1 -9 -3 -20 -5 -25 -2
-5 -4 -14 -5 -21 -1 -7 -4 -15 -6 -18 -2 -4 -4 -8 -4 -9 0 -15 -23 -46 -29
-39 -6 5 -4 137 1 154 3 8 4 14 3 20 -1 14 3 105 5 113 5 16 15 22 21 14z
m270 2 c7 -4 15 -23 24 -53 1 -5 6 -14 9 -19 7 -11 10 -173 4 -184 -1 -3 -6
-10 -11 -16 -5 -6 -10 -15 -12 -20 -12 -28 -32 -22 -37 11 -1 7 -4 16 -6 19
-3 6 -4 11 -4 34 0 24 -1 29 -5 42 -6 18 -6 30 0 43 5 9 5 12 5 45 0 33 0 35
5 44 3 5 5 12 5 16 0 20 15 44 23 38z"/>
</g>
</svg>
