<?xml version="1.0" standalone="no"?>
<!DOCTYPE svg PUBLIC "-//W3C//DTD SVG 20010904//EN"
 "http://www.w3.org/TR/2001/REC-SVG-20010904/DTD/svg10.dtd">
<svg version="1.0" xmlns="http://www.w3.org/2000/svg"
 width="66.000000pt" height="100.000000pt" viewBox="0 0 66.000000 100.000000"
 preserveAspectRatio="xMidYMid meet">
<metadata>
Created by potrace 1.16, written by Peter Selinger 2001-2019
</metadata>
<g transform="translate(0.000000,100.000000) scale(0.100000,-0.100000)"
fill="#000000" stroke="none">
<path d="M530 948 c-31 -34 -43 -86 -39 -179 4 -77 7 -89 37 -129 36 -50 41
-99 18 -185 -36 -134 -157 -348 -187 -329 -4 2 -8 101 -8 218 -1 206 0 215 22
242 44 56 31 293 -18 334 -23 19 -67 1 -84 -35 -10 -20 -15 -65 -15 -135 -1
-85 3 -116 22 -165 18 -49 22 -80 22 -175 0 -63 5 -155 10 -205 5 -49 7 -91 4
-94 -2 -3 -32 22 -65 55 -75 74 -129 177 -154 297 l-18 87 39 57 c37 54 39 60
42 150 4 86 2 96 -22 138 -33 55 -58 59 -83 13 -13 -26 -17 -68 -21 -198 -7
-277 32 -423 150 -554 57 -65 130 -116 163 -116 38 0 148 141 206 263 53 113
72 235 66 427 -4 172 -13 212 -46 229 -16 9 -24 7 -41 -11z m44 -105 c11 -70
7 -185 -6 -181 -28 9 -47 143 -28 192 14 37 26 32 34 -11z m-470 1 c13 -35 6
-155 -11 -187 l-18 -32 -3 65 c-6 115 13 204 32 154z m237 -11 c13 -34 17
-148 6 -185 -8 -31 -31 -37 -41 -12 -8 20 -8 188 0 208 9 24 23 19 35 -11z"/>
</g>
</svg>
