<?xml version="1.0" standalone="no"?>
<!DOCTYPE svg PUBLIC "-//W3C//DTD SVG 20010904//EN"
 "http://www.w3.org/TR/2001/REC-SVG-20010904/DTD/svg10.dtd">
<svg version="1.0" xmlns="http://www.w3.org/2000/svg"
 width="516.000000pt" height="590.000000pt" viewBox="0 0 516.000000 590.000000"
 preserveAspectRatio="xMidYMid meet">
<metadata>
Created by potrace 1.16, written by Peter Selinger 2001-2019
</metadata>
<g transform="translate(0.000000,590.000000) scale(0.500000,-0.500000)"
fill="#000000" stroke="none">
<path d="M769 1132 c-8 -3 -18 -10 -24 -14 -5 -4 -13 -10 -16 -12 -3 -1 -12
-9 -21 -17 -8 -7 -19 -16 -25 -20 -10 -6 -33 -29 -33 -33 0 -1 -7 -9 -15 -18
-31 -32 -42 -63 -41 -114 l1 -37 11 -16 c30 -44 99 -46 142 -4 27 26 26 38 26
-204 0 -8 0 -35 0 -61 0 -26 0 -99 1 -163 l0 -116 -9 -16 c-10 -19 -8 -17 -58
-66 -30 -30 -45 -42 -81 -69 -82 -61 -87 -63 -116 -50 -8 4 -18 8 -24 11 -21
9 -57 29 -69 38 -28 21 -89 71 -95 77 -14 15 -39 53 -44 67 -3 8 -9 21 -13 30
l-7 16 -1 140 c-1 108 -2 142 -4 149 -2 7 -2 10 1 20 3 11 3 21 2 99 -2 107
-1 109 24 85 45 -43 108 -42 142 3 l12 16 1 36 c1 52 -11 83 -41 115 -8 9 -15
17 -15 18 0 3 -24 28 -34 34 -5 4 -14 12 -21 18 -7 6 -16 14 -21 17 -5 3 -12
9 -16 12 -32 29 -80 34 -100 10 -2 -2 -9 -7 -16 -13 -7 -5 -19 -15 -27 -22 -8
-7 -17 -15 -20 -17 -7 -3 -33 -30 -33 -33 0 -1 -7 -9 -15 -18 -18 -19 -28 -39
-37 -72 -28 -107 76 -173 152 -97 24 25 25 22 22 -104 -1 -56 -2 -172 -2 -258
l0 -157 13 -24 c7 -14 13 -28 14 -32 1 -6 5 -14 20 -36 5 -7 38 -39 57 -54 6
-5 22 -19 36 -31 40 -36 55 -45 99 -64 11 -5 29 -13 39 -18 43 -20 53 -18 110
18 47 29 59 38 114 85 74 64 98 90 98 108 0 2 2 8 4 15 3 12 3 406 -1 519 -2
46 3 54 21 35 32 -33 80 -43 117 -23 17 8 18 9 30 28 23 36 7 123 -30 162 -8
9 -15 17 -15 18 0 4 -27 30 -34 34 -4 2 -12 9 -18 15 -6 6 -16 14 -22 18 -6 4
-14 11 -18 14 -21 20 -58 31 -77 23z m-557 -71 c8 -26 6 -29 -26 -29 -38 0
-38 6 2 33 18 12 19 12 24 -4z m68 0 c33 -20 34 -30 4 -31 -28 -1 -32 4 -24
27 5 13 5 13 20 4z m488 -11 c7 -4 8 -18 2 -23 -12 -8 -57 -3 -62 7 -8 14 37
26 60 16z m97 -3 c16 -8 27 -23 18 -25 -13 -3 -61 1 -65 6 -15 19 18 32 47 19z
m-535 -31 c14 -4 24 -18 17 -24 -6 -5 -79 -4 -86 1 -9 6 -6 21 5 26 4 1 53 -1
64 -3z m-119 -1 c4 -3 6 -15 2 -20 -3 -5 -77 -5 -87 0 -10 4 -3 18 10 21 12 3
71 2 75 -1z m560 -7 c26 -28 -3 -40 -76 -32 -41 4 -42 5 -23 25 l9 10 43 1
c40 0 44 0 47 -4z m136 -8 c20 -10 24 -24 7 -26 -70 -9 -100 -4 -100 15 0 16
67 24 93 11z m-695 -26 c6 -6 6 -22 0 -28 -6 -6 -117 -3 -123 2 -5 4 0 22 7
25 12 6 110 7 116 1z m157 -1 c44 -22 5 -37 -82 -32 -31 2 -43 16 -28 33 6 6
97 6 110 -1z m402 -14 c7 -7 7 -16 0 -22 -9 -9 -131 -5 -133 4 -3 19 7 22 98
23 30 0 30 0 35 -5z m144 1 c25 -2 31 -4 31 -13 0 -12 -128 -12 -131 0 -5 17
10 19 100 13z m-706 -32 c6 -3 7 -6 7 -14 0 -15 0 -15 -71 -15 -71 0 -72 0
-72 15 0 12 3 13 48 14 74 2 83 2 88 0z m143 0 c44 -1 59 -11 42 -28 -12 -12
-137 -5 -139 8 -4 22 4 24 97 20z m601 -12 c21 -18 -64 -34 -119 -22 -17 3
-25 16 -15 23 6 5 129 3 134 -1z m-184 -1 c15 -15 -105 -31 -131 -17 -5 3 -5
11 -1 14 7 6 126 8 132 3z m-600 -29 c17 -4 8 -17 -22 -32 -33 -16 -87 4 -70
27 4 6 73 10 92 5z m783 -7 c14 -9 -18 -33 -44 -33 -15 0 -54 23 -54 32 0 7
87 7 98 1z m-566 2 c32 -7 -2 -43 -38 -41 -21 2 -68 33 -59 39 4 3 84 4 97 2z
m337 -2 c3 -8 -28 -26 -44 -26 -19 0 -47 17 -41 24 5 6 83 7 85 2z"/>
<path d="M431 736 c-30 -17 -71 -81 -86 -136 -4 -15 -3 -167 1 -175 2 -4 6
-15 8 -25 5 -26 40 -82 50 -82 1 0 9 -7 18 -15 37 -34 86 -1 116 79 7 19 9 26
13 43 2 8 6 7 40 -16 49 -32 52 -32 80 11 27 42 1 67 -27 25 -14 -20 -12 -20
-55 7 -53 34 -53 39 -2 89 45 45 42 45 62 11 16 -26 25 -31 38 -18 8 8 6 17
-9 39 -3 4 -11 17 -17 29 -20 35 -28 34 -73 -11 -35 -35 -36 -35 -39 -11 0 5
-3 12 -8 19 -8 12 -22 41 -29 58 -5 13 -20 32 -49 63 -17 19 -22 21 -32 16z
m25 -64 c3 -4 9 -11 14 -17 12 -15 21 -34 23 -51 1 -8 3 -16 7 -23 4 -6 6 -14
7 -23 0 -6 2 -15 4 -18 2 -3 3 -11 3 -19 0 -8 1 -20 2 -27 2 -14 0 -29 -6 -48
-2 -7 -4 -14 -4 -18 0 -3 -2 -8 -5 -12 -3 -4 -7 -12 -8 -18 -8 -28 -33 -66
-43 -66 -7 0 -43 40 -50 55 -3 7 -9 19 -12 27 -8 15 -11 101 -6 129 1 7 3 25
4 41 1 27 1 30 7 38 3 4 7 12 9 18 13 35 39 50 54 32z"/>
</g>
</svg>
