<?xml version="1.0" standalone="no"?>
<!DOCTYPE svg PUBLIC "-//W3C//DTD SVG 20010904//EN"
 "http://www.w3.org/TR/2001/REC-SVG-20010904/DTD/svg10.dtd">
<svg version="1.0" xmlns="http://www.w3.org/2000/svg"
 width="88.000000pt" height="100.000000pt" viewBox="0 0 88.000000 100.000000"
 preserveAspectRatio="xMidYMid meet">
<metadata>
Created by potrace 1.16, written by Peter Selinger 2001-2019
</metadata>
<g transform="translate(0.000000,100.000000) scale(0.100000,-0.100000)"
fill="#000000" stroke="none">
<path d="M144 931 c-81 -60 -107 -95 -112 -156 -4 -44 -1 -60 13 -75 21 -24
55 -26 94 -5 27 14 29 13 35 -8 3 -12 6 -113 6 -225 0 -182 2 -207 20 -241 35
-71 191 -181 254 -181 31 0 128 66 191 130 l50 51 1 242 c1 133 6 241 10 240
5 -1 23 -7 40 -14 38 -15 80 -5 95 22 6 13 8 40 4 72 -7 45 -14 57 -61 103
-73 70 -106 83 -149 60 -18 -10 -54 -40 -80 -66 -42 -42 -48 -55 -53 -100 -4
-39 -1 -55 13 -70 21 -24 65 -26 104 -5 16 8 31 12 33 9 3 -2 3 -107 1 -232
-4 -175 -8 -232 -19 -249 -20 -32 -144 -133 -172 -140 -51 -13 -212 114 -231
183 -13 46 -15 424 -3 424 5 0 23 -7 40 -15 27 -14 35 -14 65 -1 25 10 37 22
41 43 7 32 -6 84 -29 120 -18 27 -131 113 -150 113 -6 0 -30 -13 -51 -29z m36
-101 c0 -53 -3 -61 -31 -84 -17 -14 -36 -26 -44 -26 -22 0 -38 28 -30 57 8 33
83 125 96 117 5 -3 9 -32 9 -64z m468 3 c-3 -67 -4 -68 -40 -88 -46 -24 -62
-13 -53 37 6 32 70 118 88 118 4 0 7 -30 5 -67z m-376 20 c84 -87 65 -176 -22
-111 -28 20 -30 27 -30 85 0 35 4 63 8 63 4 0 24 -17 44 -37z m477 5 c17 -18
31 -41 31 -51 0 -9 5 -26 12 -36 13 -21 5 -51 -14 -51 -7 0 -28 9 -45 20 -32
19 -33 22 -33 85 0 36 4 65 9 65 6 0 24 -15 40 -32z"/>
<path d="M343 608 c-49 -56 -53 -68 -53 -180 l0 -108 36 -40 c55 -61 94 -51
129 33 8 20 17 37 20 37 2 0 21 -8 41 -17 36 -17 36 -17 55 6 27 33 19 46 -26
44 -63 -4 -86 35 -45 72 20 18 22 18 50 1 28 -16 31 -16 36 -1 7 19 -14 65
-33 72 -15 6 -28 1 -61 -23 -21 -16 -22 -15 -38 22 -15 36 -70 104 -84 104 -4
0 -16 -10 -27 -22z m63 -85 c27 -64 29 -134 6 -186 -12 -26 -25 -47 -30 -47
-6 0 -20 17 -32 38 -20 33 -22 46 -17 117 7 96 13 115 39 115 13 0 24 -12 34
-37z"/>
</g>
</svg>
