<?xml version="1.0" standalone="no"?>
<!DOCTYPE svg PUBLIC "-//W3C//DTD SVG 20010904//EN"
 "http://www.w3.org/TR/2001/REC-SVG-20010904/DTD/svg10.dtd">
<svg version="1.0" xmlns="http://www.w3.org/2000/svg"
 width="130.000000pt" height="148.000000pt" viewBox="0 0 130.000000 148.000000"
 preserveAspectRatio="xMidYMid meet">
<metadata>
Created by potrace 1.16, written by Peter Selinger 2001-2019
</metadata>
<g transform="translate(0.000000,148.000000) scale(0.100000,-0.100000)"
fill="#000000" stroke="none">
<path d="M239 1391 c-56 -36 -142 -119 -168 -162 -16 -25 -21 -51 -21 -101 0
-62 2 -68 31 -92 45 -39 118 -30 158 18 8 9 17 16 22 16 5 0 9 -151 9 -338 0
-336 0 -339 24 -388 28 -58 39 -70 131 -150 76 -66 192 -127 240 -128 18 0 56
15 90 37 79 47 231 180 250 217 13 24 15 88 15 390 0 198 3 360 8 360 4 -1 23
-14 42 -30 45 -39 96 -41 139 -4 28 23 31 31 31 85 0 33 -6 75 -14 93 -26 63
-192 206 -238 206 -42 0 -191 -129 -223 -193 -23 -46 -20 -148 5 -175 39 -42
117 -37 167 10 13 12 26 19 29 16 10 -11 4 -710 -7 -730 -26 -48 -225 -216
-275 -232 -45 -14 -245 113 -308 197 -53 71 -55 84 -57 423 -1 173 1 317 4
320 3 4 20 -5 37 -19 54 -46 110 -45 163 1 21 18 24 126 5 163 -36 68 -135
162 -214 202 -30 16 -33 15 -75 -12z m29 -74 c3 -25 1 -27 -37 -27 -23 0 -41
2 -41 5 0 11 55 54 65 51 6 -1 11 -15 13 -29z m697 23 c-3 -5 -3 -16 1 -22 13
-20 7 -177 -6 -194 -9 -10 -34 -14 -85 -14 -39 0 -74 3 -78 6 -11 11 5 34 24
34 10 0 19 5 19 10 0 6 -9 10 -20 10 -11 0 -20 7 -20 15 0 12 15 15 68 16 64
1 65 2 22 9 -25 4 -51 5 -57 3 -20 -8 -15 22 6 41 13 12 27 15 46 10 27 -7 27
-7 11 18 -16 24 -15 25 9 36 14 6 25 16 25 22 0 5 9 10 21 10 11 0 17 -4 14
-10z m82 4 c-3 -3 -12 -4 -19 -1 -8 3 -5 6 6 6 11 1 17 -2 13 -5z m-672 -36
c19 -18 41 -39 49 -46 29 -23 17 -32 -43 -32 l-59 0 -4 38 c-4 47 0 72 13 72
5 0 25 -15 44 -32z m723 -4 c31 -21 21 -30 -30 -30 -37 1 -43 4 -46 24 -3 18
1 22 25 22 16 0 39 -7 51 -16z m-828 -49 c0 -24 -3 -25 -52 -25 -67 0 -86 11
-63 34 11 10 33 16 66 16 46 0 49 -2 49 -25z m878 -11 c35 -24 26 -33 -35 -37
l-58 -3 68 -2 c50 -1 68 -5 65 -14 -3 -9 -30 -14 -78 -16 -82 -3 -110 2 -92
20 6 6 8 17 5 24 -3 8 -3 21 1 29 7 20 94 20 124 -1z m-878 -50 c0 -26 -1 -27
-52 -20 -29 3 -68 6 -85 6 -22 0 -33 5 -33 14 0 20 16 24 98 25 71 1 72 1 72
-25z m208 -1 c3 -22 1 -23 -76 -23 -64 0 -81 3 -86 16 -11 29 5 35 82 32 71
-3 77 -5 80 -25z m-208 -53 c0 -11 -5 -20 -11 -20 -6 0 -27 -13 -46 -30 -23
-21 -44 -30 -67 -30 -41 0 -53 14 -53 63 l-1 37 89 0 c82 0 89 -1 89 -20z
m225 -5 c0 -18 -8 -20 -81 -23 -62 -2 -84 1 -93 12 -24 29 -2 37 87 34 79 -3
87 -5 87 -23z m703 -2 c-2 -13 -16 -20 -53 -24 l-50 -6 53 -1 c53 -2 62 -8 40
-30 -24 -24 -118 -5 -118 24 0 7 -10 14 -22 16 -13 2 -24 11 -26 21 -3 15 6
17 88 17 82 0 91 -2 88 -17z m-702 -45 c10 -15 -24 -38 -55 -38 -31 0 -73 20
-79 38 -5 16 124 17 134 0z m414 3 c0 -18 -55 -32 -83 -22 -44 17 -31 31 28
31 30 0 55 -4 55 -9z"/>
<path d="M863 1159 c14 -8 22 -8 30 0 8 8 3 11 -18 11 -26 -1 -28 -2 -12 -11z"/>
<path d="M348 1283 c7 -3 16 -2 19 1 4 3 -2 6 -13 5 -11 0 -14 -3 -6 -6z"/>
<path d="M490 867 c-22 -30 -40 -61 -40 -70 0 -9 -4 -19 -10 -22 -17 -10 -12
-236 5 -286 15 -43 98 -139 120 -139 31 0 115 117 115 159 0 32 13 32 61 0 24
-16 49 -29 56 -29 7 0 24 16 39 35 41 54 12 93 -31 40 l-20 -25 -47 30 c-63
39 -63 61 0 123 37 37 50 45 60 35 7 -7 12 -17 12 -23 0 -16 35 -47 43 -38 14
13 6 44 -19 83 -15 22 -32 40 -39 40 -8 0 -30 -18 -51 -40 -21 -22 -41 -40
-44 -40 -3 0 -20 32 -38 71 -34 73 -94 149 -118 149 -7 0 -31 -24 -54 -53z
m98 -46 c12 -16 26 -51 32 -78 6 -26 16 -56 21 -65 25 -47 -13 -202 -62 -252
-18 -20 -19 -20 -45 5 -44 41 -54 81 -54 209 0 114 9 154 43 198 16 20 42 14
65 -17z"/>
</g>
</svg>
