<?xml version="1.0" standalone="no"?>
<!DOCTYPE svg PUBLIC "-//W3C//DTD SVG 20010904//EN"
 "http://www.w3.org/TR/2001/REC-SVG-20010904/DTD/svg10.dtd">
<svg version="1.0" xmlns="http://www.w3.org/2000/svg"
 width="130.000000pt" height="148.000000pt" viewBox="0 0 130.000000 148.000000"
 preserveAspectRatio="xMidYMid meet">
<metadata>
Created by potrace 1.16, written by Peter Selinger 2001-2019
</metadata>
<g transform="translate(0.000000,148.000000) scale(0.100000,-0.100000)"
fill="#000000" stroke="none">
<path d="M873 1333 c-137 -131 -172 -219 -114 -282 25 -27 36 -31 80 -31 29 0
68 7 88 15 19 8 37 15 39 15 2 0 4 -142 4 -315 l0 -316 -41 -55 c-100 -136
-229 -244 -292 -244 -21 0 -69 24 -117 58 -50 36 -170 163 -175 187 -7 25 -12
645 -6 651 2 2 19 -7 37 -21 49 -37 97 -34 140 9 38 38 44 82 20 141 -14 33
-212 245 -229 245 -12 0 -121 -85 -171 -134 -78 -76 -86 -91 -86 -171 0 -63 3
-74 25 -95 20 -19 32 -22 78 -18 34 3 65 13 85 27 18 12 32 19 33 14 0 -4 0
-155 -1 -335 -1 -235 2 -333 10 -349 7 -12 29 -38 49 -59 20 -20 51 -52 69
-72 36 -39 158 -124 201 -141 24 -9 41 -5 109 22 85 35 127 70 247 211 80 95
77 74 75 431 -1 347 -2 340 53 305 19 -12 73 -20 114 -17 48 4 61 126 21 202
-23 43 -150 173 -191 196 -42 24 -61 14 -154 -74z m85 -211 c-35 -42 -139 -57
-158 -22 -16 29 10 72 94 158 l71 73 3 -97 c2 -67 -1 -101 -10 -112z m137 145
c56 -60 98 -136 93 -169 -5 -34 -44 -33 -105 2 l-53 30 0 95 c0 52 4 95 8 95
4 0 30 -24 57 -53z m-820 -82 c1 -100 -2 -105 -79 -141 -44 -20 -53 -22 -71
-10 -25 17 -30 48 -15 89 13 35 139 159 155 154 6 -2 10 -42 10 -92z m142 11
c71 -83 85 -122 55 -149 -19 -18 -22 -17 -79 5 l-58 23 -3 98 c-2 74 0 97 10
96 7 0 41 -33 75 -73z"/>
<path d="M680 868 c-24 -29 -51 -72 -61 -95 -10 -24 -23 -43 -28 -43 -6 0 -24
20 -41 45 -62 90 -93 90 -135 -1 -29 -63 -31 -82 -10 -91 20 -7 51 21 59 53 4
13 10 24 15 24 10 0 79 -82 97 -116 8 -14 9 -26 2 -40 -16 -29 -70 -84 -84
-84 -6 0 -21 21 -33 46 -17 36 -26 45 -44 42 -33 -5 -32 -39 3 -101 43 -77 53
-83 87 -59 15 11 39 32 52 46 14 14 29 26 35 26 6 0 25 -26 41 -57 17 -32 39
-65 50 -75 27 -24 66 -23 72 1 3 11 11 22 19 25 19 7 58 72 76 128 19 55 15
182 -7 235 -15 36 -102 143 -115 143 -5 0 -27 -24 -50 -52z m88 -75 c11 -16
22 -44 26 -63 17 -99 18 -114 5 -153 -13 -43 -51 -111 -67 -121 -14 -8 -49 34
-73 88 -26 61 -22 134 12 198 46 86 65 96 97 51z"/>
</g>
</svg>
