<?xml version="1.0" standalone="no"?>
<!DOCTYPE svg PUBLIC "-//W3C//DTD SVG 20010904//EN"
 "http://www.w3.org/TR/2001/REC-SVG-20010904/DTD/svg10.dtd">
<svg version="1.0" xmlns="http://www.w3.org/2000/svg"
 width="88.000000pt" height="100.000000pt" viewBox="0 0 88.000000 100.000000"
 preserveAspectRatio="xMidYMid meet">
<metadata>
Created by potrace 1.16, written by Peter Selinger 2001-2019
</metadata>
<g transform="translate(0.000000,100.000000) scale(0.100000,-0.100000)"
fill="#000000" stroke="none">
<path d="M580 893 c-82 -82 -104 -135 -75 -179 16 -25 20 -26 81 -21 l64 5 0
-199 c0 -109 -4 -209 -10 -224 -14 -36 -138 -158 -179 -174 -30 -13 -37 -12
-67 4 -58 31 -150 127 -157 164 -4 18 -7 116 -7 217 l0 184 59 -6 c53 -6 59
-5 75 17 19 27 21 61 5 92 -14 27 -150 167 -163 167 -18 0 -146 -111 -161
-140 -8 -16 -15 -49 -15 -73 0 -72 38 -91 128 -62 l22 7 0 -220 0 -220 45 -53
c68 -80 152 -139 198 -139 65 0 123 36 203 128 l74 84 0 202 c0 221 4 251 29
240 9 -4 35 -9 58 -12 39 -4 44 -2 53 23 14 37 3 92 -26 136 -31 46 -121 119
-146 119 -11 0 -50 -30 -88 -67z m77 -69 c-7 -64 -17 -80 -59 -89 -61 -14 -63
33 -3 103 52 60 69 57 62 -14z m112 -11 c38 -57 37 -79 -3 -76 -47 3 -66 29
-66 90 0 50 1 53 19 44 10 -6 33 -32 50 -58z m-583 -20 c-4 -36 -13 -61 -24
-69 -49 -37 -102 -20 -83 27 12 31 80 99 99 99 12 0 14 -10 8 -57z m134 -57
c0 -22 -5 -26 -29 -26 -45 0 -61 23 -61 88 l0 57 45 -47 c29 -30 45 -56 45
-72z"/>
<path d="M454 587 c-12 -17 -27 -42 -33 -54 -15 -30 -27 -29 -58 7 -32 38 -58
38 -78 0 -29 -57 -16 -93 23 -58 l24 23 29 -33 c36 -40 37 -61 3 -93 l-26 -24
-20 28 c-40 56 -64 21 -31 -47 22 -46 36 -50 72 -21 16 14 34 25 39 25 6 0 23
-19 39 -42 38 -57 62 -59 101 -10 42 52 52 82 52 152 0 71 -9 97 -50 144 -39
44 -59 45 -86 3z m75 -84 c6 -21 11 -54 11 -73 0 -43 -30 -105 -50 -105 -20 0
-50 61 -50 101 0 31 20 91 36 107 19 19 43 6 53 -30z"/>
</g>
</svg>
