<?xml version="1.0" standalone="no"?>
<!DOCTYPE svg PUBLIC "-//W3C//DTD SVG 20010904//EN"
 "http://www.w3.org/TR/2001/REC-SVG-20010904/DTD/svg10.dtd">
<svg version="1.0" xmlns="http://www.w3.org/2000/svg"
 width="512.000000pt" height="590.000000pt" viewBox="0 0 512.000000 590.000000"
 preserveAspectRatio="xMidYMid meet">
<metadata>
Created by potrace 1.16, written by Peter Selinger 2001-2019
</metadata>
<g transform="translate(0.000000,590.000000) scale(0.500000,-0.500000)"
fill="#000000" stroke="none">
<path d="M183 1135 c-5 -5 -5 -5 -5 -37 0 -33 0 -33 -11 -50 -17 -29 -47 -64
-54 -64 -1 0 -9 -3 -16 -7 -12 -7 -16 -8 -33 -9 -24 -2 -35 -18 -24 -38 6 -11
61 -9 78 2 19 13 27 18 34 23 11 8 15 6 16 -9 1 -7 4 -15 6 -20 6 -9 6 -150 1
-168 -5 -14 -7 -316 -2 -335 1 -8 3 -18 4 -24 2 -15 10 -46 15 -55 3 -5 7 -14
9 -21 11 -29 25 -52 73 -116 16 -23 36 -44 45 -48 2 -1 9 -7 16 -13 35 -29 54
-41 76 -48 4 -1 15 -6 23 -10 8 -5 16 -8 18 -8 2 0 6 -2 10 -4 15 -10 31 -16
42 -18 6 -1 16 -4 20 -6 26 -12 60 -1 91 28 11 10 20 18 21 18 1 0 12 9 24 21
11 11 28 25 35 31 8 7 20 18 26 26 6 8 15 16 19 18 9 4 12 8 18 20 2 5 10 15
17 22 6 7 16 19 21 26 6 7 15 20 22 28 22 27 29 47 35 94 1 13 2 108 2 308 0
331 -2 299 21 284 20 -13 28 -18 33 -18 2 0 9 -3 15 -6 15 -8 48 -9 56 -1 12
12 3 38 -14 40 -5 1 -13 3 -19 5 -5 2 -13 4 -17 5 -10 2 -18 6 -30 16 -6 5
-18 15 -27 22 l-16 12 -1 41 c-1 49 0 48 -28 48 -27 0 -27 1 -28 -45 -1 -45 1
-40 -34 -73 -27 -25 -39 -33 -58 -36 -21 -4 -28 -11 -28 -29 0 -21 12 -29 36
-21 7 2 15 4 17 4 8 0 22 8 40 23 22 18 23 18 26 15 6 -5 2 -579 -5 -594 -3
-7 -7 -20 -9 -28 -2 -9 -6 -19 -10 -25 -3 -6 -10 -18 -16 -27 -6 -10 -19 -26
-31 -39 -12 -13 -22 -24 -22 -25 0 -5 -71 -74 -84 -82 -8 -5 -14 -9 -15 -10
-1 -1 -8 -5 -16 -9 -7 -4 -16 -9 -20 -12 -9 -7 -64 -6 -79 2 -6 3 -14 5 -18 5
-4 0 -11 2 -16 5 -5 2 -11 5 -14 6 -3 1 -7 4 -10 6 -3 3 -16 11 -29 17 -32 16
-98 75 -108 97 -7 16 -23 41 -31 48 -7 7 -8 10 -10 19 -1 7 -7 22 -14 37 l-13
26 -1 154 c0 120 0 156 2 165 2 8 3 36 3 106 0 75 3 149 5 154 1 3 9 -2 15 -9
4 -5 11 -11 16 -14 5 -3 16 -10 24 -16 9 -6 17 -11 18 -11 2 0 8 -2 14 -4 20
-7 31 -5 36 7 8 20 -1 37 -23 41 -13 2 -37 17 -46 27 -4 5 -10 11 -14 14 -36
21 -46 41 -46 86 1 35 1 35 -5 40 -8 7 -37 7 -44 0z"/>
<path d="M500 555 c-34 -2 -31 10 -30 -116 0 -133 -5 -119 47 -119 50 0 53 13
48 207 -1 25 -12 30 -65 28z"/>
</g>
</svg>
