<?xml version="1.0" standalone="no"?>
<!DOCTYPE svg PUBLIC "-//W3C//DTD SVG 20010904//EN"
 "http://www.w3.org/TR/2001/REC-SVG-20010904/DTD/svg10.dtd">
<svg version="1.0" xmlns="http://www.w3.org/2000/svg"
 width="86.000000pt" height="100.000000pt" viewBox="0 0 86.000000 100.000000"
 preserveAspectRatio="xMidYMid meet">
<metadata>
Created by potrace 1.16, written by Peter Selinger 2001-2019
</metadata>
<g transform="translate(0.000000,100.000000) scale(0.100000,-0.100000)"
fill="#000000" stroke="none">
<path d="M146 955 c-3 -9 -6 -30 -6 -46 0 -35 -39 -79 -69 -79 -30 0 -55 -29
-40 -46 15 -18 39 -18 67 2 50 35 52 24 46 -223 l-7 -228 32 -66 c45 -94 98
-151 183 -194 94 -47 124 -46 185 7 55 47 146 147 165 180 9 17 14 96 16 291
2 147 5 267 7 267 3 0 20 -7 39 -16 19 -9 41 -14 50 -11 32 12 16 37 -38 61
-53 24 -55 26 -58 68 -2 33 -7 44 -22 46 -23 5 -36 -14 -36 -55 0 -32 -37 -73
-65 -73 -7 0 -18 -7 -25 -16 -11 -12 -11 -18 1 -30 13 -12 20 -11 54 6 22 11
40 20 41 20 1 0 0 -114 -3 -252 -4 -185 -9 -261 -19 -283 -21 -45 -119 -150
-156 -168 -88 -42 -231 62 -282 204 -17 47 -18 72 -12 268 4 119 9 217 11 220
2 2 18 -7 34 -19 17 -12 39 -20 49 -18 31 6 18 36 -33 70 -45 30 -50 37 -55
78 -4 36 -9 46 -26 48 -13 2 -24 -4 -28 -13z"/>
<path d="M397 464 c-4 -4 -7 -47 -7 -96 0 -82 2 -89 22 -97 12 -4 30 -6 40 -3
17 4 18 15 16 101 l-3 96 -30 3 c-17 2 -34 0 -38 -4z"/>
</g>
</svg>
