<?xml version="1.0" standalone="no"?>
<!DOCTYPE svg PUBLIC "-//W3C//DTD SVG 20010904//EN"
 "http://www.w3.org/TR/2001/REC-SVG-20010904/DTD/svg10.dtd">
<svg version="1.0" xmlns="http://www.w3.org/2000/svg"
 width="82.000000pt" height="100.000000pt" viewBox="0 0 82.000000 100.000000"
 preserveAspectRatio="xMidYMid meet">
<metadata>
Created by potrace 1.16, written by Peter Selinger 2001-2019
</metadata>
<g transform="translate(0.000000,100.000000) scale(0.100000,-0.100000)"
fill="#000000" stroke="none">
<path d="M97 956 c-3 -8 -3 -30 0 -49 4 -30 0 -40 -32 -76 -41 -45 -43 -82 -4
-61 11 6 27 9 35 6 32 -12 3 -79 -42 -96 -38 -15 -31 -40 11 -40 l35 0 0 -132
c0 -127 1 -136 30 -196 49 -104 208 -253 284 -268 63 -11 139 46 224 169 57
82 66 135 58 330 -6 131 -4 157 7 157 8 0 20 -7 27 -15 16 -19 60 -20 60 -1 0
8 -22 30 -50 50 -33 24 -50 43 -50 57 0 16 4 19 18 14 9 -5 32 -10 50 -13 50
-7 41 23 -15 50 -45 22 -48 26 -51 66 -6 76 -62 62 -62 -16 0 -30 -4 -35 -39
-49 -41 -16 -59 -39 -42 -56 6 -6 24 -4 50 7 l41 16 0 -35 c0 -33 -4 -37 -46
-55 -33 -15 -45 -25 -42 -37 4 -18 24 -21 66 -8 l22 7 0 -167 0 -168 -34 -61
c-40 -72 -107 -151 -145 -170 -39 -21 -74 -2 -168 90 -121 119 -130 140 -135
304 -3 131 -2 135 17 131 42 -8 59 -5 63 11 2 12 -8 22 -32 32 -63 26 -77 102
-18 90 19 -4 32 -1 37 7 8 12 0 20 -50 53 -14 10 -21 28 -25 72 -4 51 -8 59
-26 62 -12 2 -24 -4 -27 -12z"/>
</g>
</svg>
