<?xml version="1.0" standalone="no"?>
<!DOCTYPE svg PUBLIC "-//W3C//DTD SVG 20010904//EN"
 "http://www.w3.org/TR/2001/REC-SVG-20010904/DTD/svg10.dtd">
<svg version="1.0" xmlns="http://www.w3.org/2000/svg"
 width="122.000000pt" height="148.000000pt" viewBox="0 0 122.000000 148.000000"
 preserveAspectRatio="xMidYMid meet">
<metadata>
Created by potrace 1.16, written by Peter Selinger 2001-2019
</metadata>
<g transform="translate(0.000000,148.000000) scale(0.100000,-0.100000)"
fill="#000000" stroke="none">
<path d="M163 1423 c-9 -3 -13 -28 -13 -72 0 -77 -15 -106 -77 -151 -11 -8
-23 -25 -27 -38 -11 -34 17 -38 58 -7 19 15 40 24 46 20 5 -3 10 -30 10 -59 0
-43 -5 -58 -28 -84 -16 -18 -38 -32 -50 -32 -25 0 -44 -30 -33 -49 9 -14 66
-7 87 10 19 15 21 -8 12 -170 -10 -185 -2 -238 49 -340 35 -69 153 -212 208
-251 11 -8 34 -27 50 -42 17 -15 62 -44 102 -64 88 -45 111 -43 205 22 66 46
184 181 216 249 8 16 22 38 31 49 14 16 16 57 15 327 -2 285 0 309 15 309 10
0 30 -13 46 -30 39 -40 85 -37 85 5 0 3 -27 22 -59 44 -32 22 -66 48 -75 56
-15 16 -23 85 -9 85 3 0 30 -12 60 -26 48 -24 56 -25 69 -12 18 17 9 48 -15
48 -9 0 -38 13 -66 28 l-50 27 0 60 0 60 -35 0 -35 0 -3 -63 c-3 -62 -3 -63
-40 -79 -74 -31 -87 -41 -90 -69 -3 -25 -2 -26 30 -20 18 3 45 15 60 26 41 30
48 25 48 -35 0 -53 -1 -56 -40 -80 -22 -14 -46 -25 -53 -25 -33 0 -51 -55 -22
-66 9 -4 33 5 55 20 22 14 44 26 49 26 5 0 7 -111 4 -266 l-4 -266 -41 -79
c-76 -148 -220 -287 -281 -271 -42 10 -95 51 -210 161 -96 93 -121 124 -153
188 l-39 77 -2 203 c-1 112 0 203 3 203 3 0 17 -9 31 -20 30 -23 78 -26 87 -5
6 18 -19 45 -43 45 -9 0 -31 15 -49 33 -28 28 -32 40 -32 85 0 58 7 62 52 30
29 -20 31 -20 44 -4 17 24 10 38 -31 61 -54 28 -77 73 -72 137 6 74 -9 98 -50
81z"/>
</g>
</svg>
