<?xml version="1.0" standalone="no"?>
<!DOCTYPE svg PUBLIC "-//W3C//DTD SVG 20010904//EN"
 "http://www.w3.org/TR/2001/REC-SVG-20010904/DTD/svg10.dtd">
<svg version="1.0" xmlns="http://www.w3.org/2000/svg"
 width="490.000000pt" height="590.000000pt" viewBox="0 0 490.000000 590.000000"
 preserveAspectRatio="xMidYMid meet">
<metadata>
Created by potrace 1.16, written by Peter Selinger 2001-2019
</metadata>
<g transform="translate(0.000000,590.000000) scale(0.500000,-0.500000)"
fill="#000000" stroke="none">
<path d="M128 1137 c-8 -6 -9 -10 -7 -58 l1 -46 -12 -20 c-16 -25 -39 -50 -53
-56 -15 -7 -18 -12 -18 -30 1 -30 10 -30 54 0 24 15 28 14 34 -15 8 -42 4 -61
-17 -83 -10 -9 -19 -19 -22 -22 -5 -5 -8 -7 -17 -8 -25 -3 -31 -8 -31 -26 0
-18 17 -25 39 -17 3 1 11 3 17 4 6 1 14 4 17 5 10 6 12 1 10 -34 -1 -16 -1
-51 -1 -76 0 -36 0 -49 -3 -59 -8 -35 -3 -132 9 -160 2 -5 6 -17 8 -26 4 -18
11 -31 27 -55 6 -8 12 -19 15 -26 2 -7 8 -18 12 -25 5 -7 11 -16 13 -21 9 -13
114 -116 125 -122 6 -3 12 -8 15 -13 3 -4 10 -11 16 -15 6 -4 13 -10 16 -14 3
-3 9 -8 14 -10 4 -2 18 -10 31 -18 27 -16 42 -23 53 -27 4 -1 14 -6 22 -9 16
-8 28 -9 43 -3 6 2 14 5 19 6 9 2 23 9 38 20 4 3 17 12 27 19 42 29 60 44 66
55 2 4 12 17 23 30 11 12 25 30 32 40 7 10 20 27 30 38 17 18 19 21 22 33 1 7
4 15 7 18 2 3 4 7 4 8 0 2 4 7 8 12 10 10 11 16 14 60 1 14 2 29 4 32 3 8 3
235 -1 247 -4 14 -6 162 -3 167 6 7 19 2 31 -10 29 -30 49 -39 71 -34 16 5 13
35 -5 44 -6 2 -12 7 -15 10 -3 3 -8 7 -11 8 -6 4 -17 12 -36 26 -6 5 -15 12
-19 15 -14 9 -17 15 -18 35 -1 37 7 41 36 20 4 -3 10 -6 15 -7 4 -1 13 -4 19
-7 27 -12 44 -5 44 19 0 16 -5 20 -28 25 -17 3 -23 6 -31 11 -6 4 -13 8 -16 9
-7 2 -19 9 -29 19 l-8 8 0 43 c1 53 1 53 -25 53 -35 0 -42 -14 -39 -73 1 -30
-13 -45 -57 -59 -28 -9 -43 -22 -45 -38 -1 -25 8 -34 27 -25 3 2 16 7 28 10
17 5 23 8 29 14 21 20 25 15 25 -34 0 -37 -1 -39 -18 -50 -5 -3 -14 -10 -21
-14 -7 -4 -18 -9 -25 -11 -27 -7 -43 -25 -38 -43 5 -19 32 -21 52 -3 2 2 7 5
11 6 4 1 11 5 15 8 18 14 23 11 23 -17 0 -11 1 -25 2 -31 2 -8 2 -12 0 -18 -2
-7 -3 -42 -4 -158 -2 -148 -3 -167 -9 -193 -3 -13 -5 -17 -18 -35 -4 -5 -8
-14 -11 -20 -6 -17 -17 -39 -24 -46 -3 -4 -8 -12 -12 -18 -11 -18 -30 -42 -70
-87 -17 -19 -47 -43 -62 -50 -4 -1 -11 -5 -17 -9 -28 -17 -73 -1 -119 43 -9 9
-21 19 -26 22 -5 4 -19 17 -32 30 -13 13 -28 27 -34 31 -6 4 -17 14 -23 21 -7
8 -17 18 -23 24 -28 28 -44 49 -58 77 -30 56 -38 75 -38 93 0 5 -1 15 -3 21
-3 11 -3 125 -1 192 1 6 0 17 -2 25 -8 45 -1 73 16 62 30 -20 59 -26 72 -13
14 12 8 33 -10 37 -3 1 -8 3 -11 5 -4 2 -12 5 -18 7 -38 10 -65 77 -49 120 3
8 10 6 35 -11 22 -15 45 -6 45 19 0 8 -6 13 -24 23 -20 11 -39 29 -53 50 l-12
19 -1 53 c-2 63 0 60 -28 60 -10 0 -18 -1 -20 -3z"/>
</g>
</svg>
