<?xml version="1.0" standalone="no"?>
<!DOCTYPE svg PUBLIC "-//W3C//DTD SVG 20010904//EN"
 "http://www.w3.org/TR/2001/REC-SVG-20010904/DTD/svg10.dtd">
<svg version="1.0" xmlns="http://www.w3.org/2000/svg"
 width="122.000000pt" height="148.000000pt" viewBox="0 0 122.000000 148.000000"
 preserveAspectRatio="xMidYMid meet">
<metadata>
Created by potrace 1.16, written by Peter Selinger 2001-2019
</metadata>
<g transform="translate(0.000000,148.000000) scale(0.100000,-0.100000)"
fill="#000000" stroke="none">
<path d="M163 1423 c-9 -3 -13 -28 -13 -72 0 -77 -15 -106 -77 -151 -11 -8
-23 -25 -27 -38 -11 -34 17 -38 58 -7 19 15 40 24 46 20 5 -3 10 -30 10 -59 0
-43 -5 -58 -28 -84 -16 -18 -38 -32 -50 -32 -25 0 -44 -30 -33 -49 9 -14 66
-7 87 10 19 15 21 -8 12 -156 -9 -150 -4 -225 17 -286 27 -75 94 -175 167
-246 114 -113 148 -140 225 -179 88 -45 110 -43 206 23 49 34 89 74 142 144
41 54 75 102 75 107 0 5 10 22 23 38 22 28 22 31 21 336 -2 284 0 308 15 308
10 0 30 -13 46 -30 39 -40 85 -37 85 5 0 3 -27 22 -59 44 -32 22 -66 48 -75
56 -15 16 -23 85 -9 85 3 0 30 -12 60 -26 48 -24 56 -25 69 -12 18 17 9 48
-15 48 -9 0 -38 13 -66 28 l-50 27 0 60 0 60 -35 0 -35 0 -3 -63 c-3 -62 -3
-63 -40 -79 -74 -31 -87 -41 -90 -69 -3 -25 -2 -26 30 -20 18 3 45 15 60 26
41 30 48 25 48 -35 0 -53 -1 -56 -40 -80 -22 -14 -46 -25 -53 -25 -33 0 -51
-55 -22 -66 9 -4 33 5 55 20 22 14 44 26 49 26 6 0 9 -100 8 -262 l-2 -263
-38 -75 c-45 -90 -139 -207 -203 -251 -78 -53 -109 -43 -252 84 -105 94 -171
172 -206 247 l-31 65 -2 203 c-1 111 0 202 3 202 3 0 17 -9 31 -20 30 -23 78
-26 87 -5 6 18 -19 45 -43 45 -9 0 -31 15 -49 33 -28 28 -32 40 -32 85 0 58 7
62 52 30 29 -20 31 -20 44 -4 17 24 10 38 -31 61 -54 28 -77 73 -72 137 6 74
-9 98 -50 81z"/>
<path d="M488 775 c-51 -28 -98 -139 -98 -230 0 -53 23 -136 49 -179 58 -93
150 -86 201 15 11 21 20 45 20 54 0 24 21 18 78 -25 75 -57 76 -56 128 37 22
41 26 55 17 64 -16 16 -41 -5 -60 -48 -7 -18 -19 -33 -25 -33 -6 0 -35 16 -64
36 -50 35 -52 37 -57 92 -5 52 -3 59 21 81 70 61 83 71 95 71 7 0 22 -26 33
-57 15 -45 24 -58 39 -58 25 0 23 26 -9 115 -31 87 -47 89 -128 16 -33 -31
-65 -53 -70 -50 -4 3 -17 22 -27 43 -11 20 -26 43 -34 50 -24 19 -79 23 -109
6z m86 -75 c90 -107 20 -410 -74 -325 -29 27 -43 82 -42 168 0 84 13 128 45
165 27 29 40 28 71 -8z"/>
</g>
</svg>
