<?xml version="1.0" standalone="no"?>
<!DOCTYPE svg PUBLIC "-//W3C//DTD SVG 20010904//EN"
 "http://www.w3.org/TR/2001/REC-SVG-20010904/DTD/svg10.dtd">
<svg version="1.0" xmlns="http://www.w3.org/2000/svg"
 width="82.000000pt" height="100.000000pt" viewBox="0 0 82.000000 100.000000"
 preserveAspectRatio="xMidYMid meet">
<metadata>
Created by potrace 1.16, written by Peter Selinger 2001-2019
</metadata>
<g transform="translate(0.000000,100.000000) scale(0.100000,-0.100000)"
fill="#000000" stroke="none">
<path d="M97 956 c-3 -8 -3 -30 0 -49 4 -30 0 -40 -32 -76 -41 -45 -43 -82 -4
-61 11 6 27 9 35 6 32 -12 3 -79 -42 -96 -38 -15 -31 -40 11 -40 l35 0 0 -134
c0 -133 0 -134 35 -204 57 -113 228 -262 302 -262 55 0 185 127 236 230 21 42
22 57 21 238 -1 196 3 217 36 177 16 -19 60 -20 60 -1 0 8 -22 30 -50 50 -33
24 -50 43 -50 57 0 16 4 19 18 14 9 -5 32 -10 50 -13 50 -7 41 23 -15 50 -45
22 -48 26 -51 66 -6 76 -62 62 -62 -16 0 -30 -4 -35 -39 -49 -41 -16 -59 -39
-42 -56 6 -6 24 -4 50 7 l41 16 0 -35 c0 -33 -4 -37 -46 -55 -33 -15 -45 -25
-42 -37 4 -18 24 -21 66 -8 l22 7 0 -171 c0 -165 -1 -174 -26 -223 -29 -57
-114 -152 -155 -173 -23 -12 -31 -12 -67 6 -57 28 -171 143 -203 204 -25 46
-27 62 -30 185 -4 131 -3 135 16 131 42 -8 59 -5 63 11 2 12 -8 22 -32 32 -63
26 -77 102 -18 90 19 -4 32 -1 37 7 8 12 0 20 -50 53 -14 10 -21 28 -25 72 -4
51 -8 59 -26 62 -12 2 -24 -4 -27 -12z"/>
<path d="M310 512 c-54 -55 -64 -167 -21 -250 38 -75 117 -79 147 -7 16 40 26
43 61 15 35 -28 50 -25 73 13 34 56 19 96 -16 42 -20 -31 -25 -31 -63 1 -43
36 -43 82 0 118 17 14 34 26 39 26 5 0 14 -16 20 -35 14 -44 40 -47 40 -5 0
34 -22 94 -38 104 -6 3 -29 -10 -52 -29 -23 -19 -44 -35 -47 -35 -2 0 -19 16
-37 35 -40 42 -68 44 -106 7z m87 -69 c32 -78 -2 -208 -51 -190 -34 13 -45
152 -16 207 18 33 49 25 67 -17z"/>
</g>
</svg>
