<?xml version="1.0" standalone="no"?>
<!DOCTYPE svg PUBLIC "-//W3C//DTD SVG 20010904//EN"
 "http://www.w3.org/TR/2001/REC-SVG-20010904/DTD/svg10.dtd">
<svg version="1.0" xmlns="http://www.w3.org/2000/svg"
 width="490.000000pt" height="590.000000pt" viewBox="0 0 490.000000 590.000000"
 preserveAspectRatio="xMidYMid meet">
<metadata>
Created by potrace 1.16, written by Peter Selinger 2001-2019
</metadata>
<g transform="translate(0.000000,590.000000) scale(0.500000,-0.500000)"
fill="#000000" stroke="none">
<path d="M128 1137 c-8 -6 -9 -10 -7 -58 l1 -46 -12 -20 c-16 -25 -39 -50 -53
-56 -15 -7 -18 -12 -18 -30 1 -30 8 -30 50 -3 19 13 29 15 33 9 5 -11 8 -39 8
-62 l-1 -23 -18 -17 c-10 -10 -20 -21 -23 -24 -5 -5 -8 -7 -17 -8 -24 -3 -31
-8 -31 -26 0 -18 18 -25 39 -17 3 1 11 3 17 4 6 1 14 4 17 5 10 6 12 1 10 -35
0 -17 -1 -53 -2 -81 0 -27 -1 -55 -3 -61 -6 -33 -2 -113 8 -143 2 -7 7 -21 9
-32 5 -19 12 -33 25 -52 12 -16 15 -22 19 -32 2 -5 7 -16 12 -24 5 -8 11 -18
14 -23 3 -5 9 -12 14 -16 11 -10 74 -73 86 -86 6 -6 16 -14 23 -18 7 -4 13 -9
17 -14 3 -4 10 -11 15 -14 5 -3 12 -9 15 -13 3 -4 10 -10 17 -13 6 -3 19 -11
30 -17 22 -13 42 -23 53 -27 4 -1 13 -5 20 -8 15 -8 27 -9 39 -5 5 2 14 5 20
6 10 3 46 23 49 27 0 1 10 8 20 15 31 20 33 22 49 36 8 7 16 16 17 20 2 3 12
16 23 29 10 12 24 29 29 37 6 8 18 23 27 34 18 21 26 33 26 41 0 3 3 9 6 14 3
5 6 10 6 12 0 1 3 6 8 10 8 9 14 36 14 67 0 9 1 20 3 24 4 12 4 235 0 246 -4
11 -7 160 -3 167 4 8 21 3 32 -10 37 -43 91 -46 78 -4 -3 7 -5 10 -13 14 -5 3
-12 8 -16 11 -3 4 -8 8 -11 9 -5 3 -17 11 -35 25 -6 5 -15 12 -19 15 -14 9
-17 15 -18 35 -1 37 7 41 36 20 4 -3 10 -6 15 -7 4 -1 13 -4 19 -7 31 -13 51
1 42 29 -3 10 -4 11 -26 15 -15 3 -21 5 -29 10 -6 4 -13 8 -17 9 -10 4 -20 10
-30 20 l-8 8 0 43 c1 53 1 53 -25 53 -35 0 -42 -14 -39 -73 1 -30 -13 -45 -57
-59 -30 -10 -44 -22 -45 -41 -1 -22 9 -31 27 -22 3 2 16 7 28 10 17 5 23 8 30
15 18 17 23 13 24 -17 3 -48 -1 -61 -24 -72 -5 -3 -14 -9 -19 -12 -6 -4 -13
-8 -17 -8 -19 -3 -40 -19 -42 -33 -4 -24 23 -35 46 -18 6 4 13 8 17 10 4 1 11
5 16 9 20 16 25 3 24 -57 0 -5 -1 -78 -2 -162 -2 -194 -3 -203 -25 -232 -5 -7
-10 -15 -11 -19 -4 -14 -19 -43 -27 -51 -3 -5 -9 -14 -13 -20 -7 -12 -10 -16
-38 -49 -28 -33 -48 -53 -60 -62 -6 -4 -14 -10 -17 -13 -3 -2 -11 -7 -18 -10
-7 -4 -16 -8 -21 -11 -15 -9 -42 -6 -62 7 -6 3 -11 6 -11 6 -3 0 -34 23 -47
35 -8 8 -19 17 -23 20 -4 3 -20 17 -34 31 -14 14 -31 29 -37 33 -7 5 -16 14
-22 21 -13 16 -16 19 -25 27 -15 14 -38 44 -47 63 -5 11 -12 24 -16 30 -3 6
-8 15 -10 21 -3 5 -6 15 -8 20 -10 23 -15 151 -10 242 1 7 0 17 -2 23 -9 42
-2 76 14 66 37 -26 73 -27 80 -4 3 11 -1 21 -11 25 -5 2 -12 5 -18 8 -5 3 -14
6 -19 7 -29 7 -48 39 -48 82 0 49 1 50 37 26 22 -15 45 -5 45 19 0 8 -6 13
-24 23 -20 11 -39 29 -53 50 l-12 19 -1 53 c-2 63 0 60 -28 60 -10 0 -18 -1
-20 -3z"/>
<path d="M415 632 c-43 -14 -77 -61 -89 -125 -1 -7 -4 -18 -5 -26 -4 -16 -3
-80 1 -93 1 -4 3 -14 5 -22 34 -157 159 -172 206 -25 8 25 12 25 37 6 6 -5 17
-13 25 -18 8 -5 15 -10 16 -11 8 -12 43 -23 54 -15 6 4 19 25 49 83 9 16 6 27
-7 29 -15 3 -27 -10 -45 -47 -15 -30 -15 -30 -46 -8 -13 9 -30 21 -39 27 -28
19 -28 19 -30 61 0 16 -1 33 -2 38 -1 10 4 16 33 37 6 5 13 10 15 13 2 2 8 8
14 12 5 4 13 10 17 13 21 19 26 14 48 -54 8 -23 14 -31 25 -31 20 0 22 14 6
61 -6 18 -15 43 -19 56 -14 42 -30 47 -61 19 -20 -17 -34 -29 -45 -37 -6 -5
-14 -12 -18 -16 -20 -20 -27 -20 -37 0 -28 59 -68 86 -108 73z m32 -56 c22
-11 35 -37 48 -98 4 -20 4 -70 0 -88 -2 -7 -5 -22 -7 -32 -29 -129 -126 -63
-119 82 4 93 39 155 78 136z"/>
</g>
</svg>
