<?xml version="1.0" standalone="no"?>
<!DOCTYPE svg PUBLIC "-//W3C//DTD SVG 20010904//EN"
 "http://www.w3.org/TR/2001/REC-SVG-20010904/DTD/svg10.dtd">
<svg version="1.0" xmlns="http://www.w3.org/2000/svg"
 width="126.000000pt" height="148.000000pt" viewBox="0 0 126.000000 148.000000"
 preserveAspectRatio="xMidYMid meet">
<metadata>
Created by potrace 1.16, written by Peter Selinger 2001-2019
</metadata>
<g transform="translate(0.000000,148.000000) scale(0.100000,-0.100000)"
fill="#000000" stroke="none">
<path d="M204 1386 c-37 -32 -39 -37 -39 -88 1 -42 6 -59 23 -76 51 -51 8
-142 -54 -113 -38 17 -46 14 -42 -16 3 -27 5 -28 61 -27 l57 1 0 -313 0 -313
36 -60 c20 -33 42 -65 50 -72 8 -6 14 -17 14 -24 0 -8 28 -43 63 -79 98 -102
158 -136 249 -143 60 -5 109 13 136 49 6 9 26 19 42 23 18 4 41 21 56 41 15
19 34 34 43 34 10 0 23 11 30 24 7 13 26 34 42 45 16 12 29 28 29 36 0 9 9 23
20 32 11 10 20 29 20 43 0 14 6 37 14 52 11 21 13 77 11 272 -2 135 -6 280
-10 322 l-8 77 29 -9 c16 -4 49 -8 74 -8 39 -1 45 2 48 22 3 21 0 22 -52 22
-43 0 -61 5 -76 20 -26 26 -25 39 5 91 29 51 31 82 10 133 -14 34 -18 36 -61
36 -60 0 -94 -34 -94 -95 0 -24 6 -48 13 -54 8 -6 22 -28 32 -50 15 -34 15
-43 3 -67 -10 -23 -25 -32 -66 -43 -39 -10 -52 -18 -50 -30 4 -22 50 -25 87
-7 16 9 34 16 38 16 4 0 8 -141 7 -314 0 -270 -3 -318 -17 -348 -9 -19 -23
-41 -32 -48 -8 -7 -15 -16 -15 -20 0 -4 -18 -27 -40 -50 -22 -23 -40 -45 -40
-49 0 -8 -98 -83 -132 -100 -16 -8 -31 -12 -34 -9 -3 4 -5 96 -4 205 1 109 2
328 2 486 1 261 2 287 17 281 71 -29 136 -22 129 14 -3 13 -13 16 -42 15 -37
-3 -88 16 -101 37 -3 5 6 26 20 45 25 32 26 39 20 94 -8 67 -17 79 -69 88 -32
5 -40 2 -71 -31 -19 -21 -35 -45 -35 -54 0 -26 39 -127 50 -130 16 -6 11 -28
-11 -48 -16 -14 -34 -18 -70 -17 -57 3 -68 -8 -38 -38 17 -17 29 -20 56 -16
20 4 44 14 54 23 18 16 19 15 30 -12 6 -18 8 -42 2 -64 -4 -19 -8 -224 -8
-455 l0 -420 -27 -3 c-33 -4 -114 49 -162 106 -6 7 -32 37 -58 65 -26 29 -48
57 -48 63 0 6 -9 23 -20 37 -19 24 -20 40 -20 345 l0 320 41 -16 c40 -16 41
-15 60 9 26 34 24 39 -15 39 -84 0 -107 38 -57 92 49 54 33 141 -34 185 l-33
22 -38 -33z m834 -18 c18 -18 15 -85 -3 -92 -21 -8 -45 3 -46 23 -2 24 2 65 8
74 7 11 27 9 41 -5z m-358 -64 c0 -23 -23 -64 -35 -64 -15 0 -45 43 -45 65 0
8 10 25 22 37 l21 21 19 -23 c10 -12 18 -28 18 -36z m-412 34 c18 -18 15 -74
-5 -93 -16 -16 -18 -16 -35 5 -40 50 -3 131 40 88z"/>
</g>
</svg>
