<?xml version="1.0" standalone="no"?>
<!DOCTYPE svg PUBLIC "-//W3C//DTD SVG 20010904//EN"
 "http://www.w3.org/TR/2001/REC-SVG-20010904/DTD/svg10.dtd">
<svg version="1.0" xmlns="http://www.w3.org/2000/svg"
 width="85.000000pt" height="100.000000pt" viewBox="0 0 85.000000 100.000000"
 preserveAspectRatio="xMidYMid meet">
<metadata>
Created by potrace 1.16, written by Peter Selinger 2001-2019
</metadata>
<g transform="translate(0.000000,100.000000) scale(0.100000,-0.100000)"
fill="#000000" stroke="none">
<path d="M646 954 c-29 -29 -31 -64 -5 -111 28 -51 20 -73 -30 -87 -46 -13
-38 -42 10 -38 36 2 36 2 43 -44 3 -26 6 -118 6 -204 l0 -158 -43 -58 c-45
-62 -132 -144 -151 -144 -8 0 -11 92 -11 320 l0 320 45 -2 c39 -3 45 0 45 17
0 16 -8 21 -35 23 -48 5 -56 16 -36 47 20 30 14 96 -9 115 -24 20 -78 8 -94
-22 -14 -24 -14 -32 4 -83 16 -49 17 -58 4 -66 -8 -5 -23 -7 -34 -5 -28 7 -49
-8 -41 -29 5 -15 14 -16 54 -11 l47 6 -2 -317 -3 -318 -22 3 c-26 3 -103 75
-154 143 l-34 47 0 210 0 211 32 3 c48 4 50 34 4 42 -40 8 -46 27 -21 60 32
43 1 136 -45 136 -19 0 -70 -53 -70 -74 0 -6 9 -29 20 -51 27 -54 26 -75 -5
-76 -14 -1 -29 -3 -35 -4 -5 -1 -14 -3 -20 -4 -5 0 -10 -7 -10 -15 0 -18 31
-29 55 -20 10 4 21 1 26 -7 5 -8 9 -101 9 -208 0 -222 2 -231 87 -335 68 -84
120 -118 186 -124 48 -4 59 -1 108 31 82 53 166 144 189 205 20 53 21 134 5
391 l-5 74 44 -6 c30 -4 47 -2 55 7 15 18 -6 36 -45 36 -49 0 -59 20 -34 69
20 41 20 80 -3 109 -13 17 -62 15 -81 -4z"/>
</g>
</svg>
