<?xml version="1.0" standalone="no"?>
<!DOCTYPE svg PUBLIC "-//W3C//DTD SVG 20010904//EN"
 "http://www.w3.org/TR/2001/REC-SVG-20010904/DTD/svg10.dtd">
<svg version="1.0" xmlns="http://www.w3.org/2000/svg"
 width="504.000000pt" height="590.000000pt" viewBox="0 0 504.000000 590.000000"
 preserveAspectRatio="xMidYMid meet">
<metadata>
Created by potrace 1.16, written by Peter Selinger 2001-2019
</metadata>
<g transform="translate(0.000000,590.000000) scale(0.500000,-0.500000)"
fill="#000000" stroke="none">
<path d="M786 1138 c-4 -2 -8 -6 -11 -12 -3 -6 -8 -11 -13 -14 -4 -2 -8 -6 -9
-9 -11 -47 -8 -79 8 -92 4 -3 7 -8 8 -11 2 -10 16 -37 21 -40 5 -3 5 -12 1
-20 -1 -3 -3 -9 -4 -13 -2 -10 -13 -22 -23 -25 -4 -1 -13 -6 -20 -9 -10 -5
-15 -7 -23 -7 -25 0 -37 -15 -23 -30 10 -12 45 -10 67 2 30 16 39 8 33 -29 -4
-19 -3 -264 0 -275 2 -6 2 -11 0 -22 -3 -14 -2 -32 2 -45 1 -7 1 -11 -1 -18
-4 -13 -4 -37 0 -50 3 -9 3 -12 1 -18 -1 -5 -3 -15 -4 -25 -2 -15 -2 -17 -9
-24 -4 -4 -8 -10 -8 -13 -2 -9 -10 -19 -18 -24 -5 -4 -8 -8 -12 -19 -5 -14 -8
-17 -33 -41 -15 -15 -29 -30 -30 -34 -7 -16 -8 -19 -16 -21 -4 -2 -13 -8 -20
-15 -12 -11 -23 -20 -42 -34 -4 -3 -10 -6 -16 -8 -5 -2 -14 -7 -20 -11 -26
-15 -26 -14 -23 117 1 18 1 60 2 94 0 34 1 64 1 67 0 3 0 11 0 18 0 7 0 19 0
26 0 7 0 22 -1 32 -1 15 -1 23 2 34 2 11 3 17 1 25 -1 5 -2 14 -2 18 -2 128
-2 154 1 163 4 12 2 65 -2 81 -7 24 -3 98 5 94 0 0 6 -2 12 -5 44 -22 96 -15
96 12 0 18 -11 24 -32 17 -34 -12 -94 23 -74 44 3 3 6 8 7 11 1 2 5 8 10 13
14 14 19 56 8 77 -3 6 -5 15 -6 25 -2 19 -11 32 -26 34 -4 1 -12 3 -17 5 -48
22 -106 -54 -82 -106 2 -5 4 -14 5 -20 1 -6 4 -16 7 -23 3 -7 6 -13 6 -14 0
-1 4 -6 8 -10 24 -21 -33 -68 -64 -52 -22 11 -49 -6 -37 -23 20 -26 70 -27
105 -2 7 5 12 5 14 0 7 -20 7 -68 -1 -83 -4 -8 -4 -14 -3 -99 0 -11 0 -102 0
-132 0 -12 0 -30 0 -48 0 -6 0 -20 0 -32 1 -40 1 -75 0 -89 -1 -35 1 -70 5
-80 3 -8 3 -10 1 -25 -3 -16 -3 -92 -1 -136 2 -36 -30 -52 -56 -28 -5 4 -12 9
-17 10 -9 2 -10 3 -24 19 -5 6 -14 13 -19 16 -15 7 -46 40 -49 52 -2 7 -4 10
-9 13 -9 5 -21 16 -25 24 -2 4 -9 11 -15 17 -14 12 -25 29 -28 43 -2 8 -5 12
-10 17 -13 12 -18 24 -16 47 3 34 2 239 0 257 -2 12 -2 19 -1 27 4 19 5 88 1
115 -2 20 -2 25 0 33 2 6 3 14 2 24 -2 20 -1 20 23 11 32 -12 44 -10 58 10 16
23 3 40 -25 32 -11 -4 -11 -4 -22 1 -5 2 -14 5 -18 6 -20 5 -20 40 0 59 23 24
23 23 24 63 0 35 0 35 -6 44 -3 5 -8 13 -11 19 -12 24 -54 46 -71 35 -9 -5
-43 -38 -46 -44 -6 -11 -10 -41 -7 -50 1 -5 3 -16 4 -24 2 -14 2 -14 14 -27
45 -45 10 -119 -43 -90 -19 10 -31 4 -33 -16 -1 -26 12 -30 78 -25 l18 2 0
-137 c0 -75 0 -141 -1 -147 0 -14 0 -85 1 -107 0 -9 0 -28 -1 -43 -1 -23 -1
-30 2 -37 2 -7 2 -11 1 -14 -3 -8 -2 -14 3 -21 5 -7 7 -11 19 -34 3 -5 8 -12
11 -17 4 -4 9 -12 11 -17 7 -17 11 -22 17 -26 8 -5 14 -13 17 -22 8 -22 40
-59 59 -68 5 -2 9 -6 13 -13 7 -15 38 -44 50 -47 5 -2 12 -6 16 -10 9 -10 29
-22 36 -22 4 0 9 -3 14 -8 8 -7 9 -7 28 -8 10 -1 27 -3 36 -4 13 -2 21 -2 33
0 33 4 36 5 41 12 3 3 8 7 13 8 10 2 14 6 19 16 5 10 10 14 20 15 11 2 40 15
46 22 2 3 7 6 10 8 5 2 9 6 13 15 6 13 14 19 30 22 14 2 16 4 25 22 7 15 16
24 21 24 8 0 33 29 35 40 3 15 5 17 20 31 13 12 13 12 14 31 2 25 6 38 15 48
10 11 11 116 2 134 -5 9 -5 12 -4 22 1 6 2 34 3 62 1 33 2 54 4 60 3 7 2 9 -1
19 -5 13 -5 46 0 65 3 12 3 15 1 22 -1 5 -3 22 -4 37 -1 25 -2 29 -7 38 -5 9
-5 12 -5 32 0 33 -1 32 27 25 39 -10 84 -5 89 9 6 18 -5 25 -37 25 -59 0 -94
30 -72 62 32 46 39 73 27 111 -3 11 -6 20 -6 21 0 26 -50 43 -86 30z m39 -42
c24 -17 20 -76 -5 -76 -26 0 -37 51 -16 75 8 9 11 9 21 1z m-620 -20 c19 -11
25 -45 11 -70 -11 -21 -22 -20 -33 2 -18 33 -1 83 22 68z m324 1 c17 -17 16
-62 -2 -77 -13 -10 -39 16 -39 40 0 27 27 51 41 37z"/>
</g>
</svg>
