<?xml version="1.0" standalone="no"?>
<!DOCTYPE svg PUBLIC "-//W3C//DTD SVG 20010904//EN"
 "http://www.w3.org/TR/2001/REC-SVG-20010904/DTD/svg10.dtd">
<svg version="1.0" xmlns="http://www.w3.org/2000/svg"
 width="396.000000pt" height="590.000000pt" viewBox="0 0 396.000000 590.000000"
 preserveAspectRatio="xMidYMid meet">
<metadata>
Created by potrace 1.16, written by Peter Selinger 2001-2019
</metadata>
<g transform="translate(0.000000,590.000000) scale(0.500000,-0.500000)"
fill="#000000" stroke="none">
<path d="M607 1135 c-26 -12 -51 -67 -42 -91 10 -26 15 -37 22 -48 5 -8 8 -17
9 -24 1 -6 4 -16 7 -22 11 -24 5 -35 -34 -64 -32 -24 -41 -33 -41 -43 0 -20
24 -18 48 4 10 9 13 11 19 11 13 0 13 -1 13 -57 0 -57 0 -59 -17 -68 -38 -20
-49 -33 -43 -47 6 -15 17 -17 36 -8 25 12 25 14 23 -85 -1 -66 -1 -77 2 -86 4
-14 4 -61 0 -76 -3 -9 -3 -13 -1 -20 4 -16 -1 -76 -7 -88 -3 -5 -6 -14 -6 -19
-2 -8 -23 -54 -32 -67 -3 -3 -6 -9 -9 -13 -2 -4 -8 -10 -12 -13 -13 -9 -23
-23 -28 -38 -5 -14 -14 -24 -32 -33 -4 -2 -10 -7 -13 -11 -10 -13 -26 -17 -34
-8 -5 5 -5 5 -5 135 1 104 0 131 -2 140 -2 8 -2 12 0 21 3 8 3 32 2 145 -1
152 -1 148 13 143 51 -21 64 -24 73 -16 9 9 4 19 -15 28 -66 34 -67 35 -67 99
0 56 2 60 20 46 15 -12 42 -10 42 3 0 4 -5 10 -15 16 -3 2 -15 12 -26 23 -23
21 -24 23 -16 35 3 5 5 10 5 16 0 6 2 11 8 21 20 34 16 92 -8 115 -42 39 -72
30 -89 -25 -12 -37 -6 -64 24 -118 12 -22 8 -36 -11 -46 -46 -23 -62 -42 -51
-59 5 -9 29 -1 52 16 8 6 16 6 19 1 10 -18 11 -47 3 -64 -3 -7 -5 -14 -5 -21
0 -18 -14 -33 -48 -50 -28 -14 -37 -27 -25 -40 7 -9 15 -7 38 6 32 18 44 7 36
-32 -2 -10 -3 -32 -4 -78 0 -40 -1 -67 -3 -72 -2 -5 -2 -31 -1 -92 3 -260 3
-279 -8 -282 -6 -1 -18 4 -34 15 -7 4 -16 9 -20 12 -10 5 -59 50 -68 62 -3 5
-9 12 -12 15 -4 3 -10 12 -14 20 -4 7 -10 19 -13 25 -3 6 -6 12 -6 13 0 2 -2
9 -5 15 -3 7 -6 18 -7 26 -1 7 -3 18 -4 23 -1 6 -2 64 -2 129 0 106 0 121 -3
130 -4 10 -4 11 0 23 3 11 3 19 2 55 -2 55 5 64 29 39 6 -7 31 -16 36 -14 11
7 3 19 -43 66 l-23 23 0 26 c0 26 2 34 9 34 5 0 33 -18 41 -26 14 -14 30 -7
27 12 -1 10 -4 13 -24 28 -51 35 -61 53 -41 77 14 19 23 39 21 52 -1 5 -2 24
-3 42 -2 38 1 31 -15 46 -40 38 -86 19 -89 -36 -1 -12 -2 -28 -3 -35 -1 -10 0
-16 3 -27 2 -8 6 -19 7 -26 2 -7 6 -15 10 -21 16 -21 -18 -60 -69 -79 -11 -4
-16 -10 -16 -18 0 -20 27 -21 55 -2 37 25 54 0 31 -48 -9 -19 -9 -19 -35 -41
-35 -30 -41 -38 -34 -49 8 -13 16 -11 42 9 26 20 29 20 35 -1 5 -17 5 -37 1
-54 -3 -10 -3 -14 -1 -25 2 -8 2 -20 1 -32 -1 -19 -2 -38 -1 -78 0 -12 0 -27
0 -34 0 -8 0 -21 0 -30 0 -10 0 -24 0 -32 0 -8 1 -30 2 -49 1 -19 3 -45 4 -59
1 -27 17 -64 35 -85 3 -5 8 -12 11 -17 23 -47 85 -110 126 -131 12 -5 25 -13
29 -17 18 -15 29 -22 37 -25 5 -2 12 -5 15 -7 15 -9 45 -1 80 22 20 13 46 35
51 43 2 4 9 11 15 16 18 14 35 34 41 48 4 9 9 15 18 23 6 5 12 11 12 13 0 3
11 23 18 34 25 37 35 63 35 92 3 95 -2 300 -7 311 -7 17 -3 46 7 48 2 0 15 -4
27 -9 34 -13 44 -11 44 8 0 11 -6 16 -25 25 -52 23 -56 27 -59 45 -1 7 -3 15
-4 18 -7 18 3 65 16 70 2 1 29 -12 31 -15 10 -16 45 -14 45 3 0 14 -55 63 -71
63 -6 0 -10 8 -8 16 0 5 0 14 -2 21 -2 10 -1 12 2 18 2 3 6 11 9 17 3 6 8 13
11 17 16 21 21 48 13 74 -13 38 -62 72 -87 60z m28 -54 c2 -1 4 -7 5 -12 1 -5
4 -12 6 -15 15 -21 -7 -65 -22 -46 -19 21 -9 88 11 73z m-467 -14 c13 -10 15
-16 12 -35 -1 -8 -2 -18 -2 -21 0 -13 -19 -20 -28 -11 -6 6 -5 63 1 70 5 5 7
5 17 -3z m252 -18 c5 -11 4 -51 -2 -58 -15 -16 -34 19 -25 49 3 14 22 19 27 9z"/>
</g>
</svg>
