<?xml version="1.0" standalone="no"?>
<!DOCTYPE svg PUBLIC "-//W3C//DTD SVG 20010904//EN"
 "http://www.w3.org/TR/2001/REC-SVG-20010904/DTD/svg10.dtd">
<svg version="1.0" xmlns="http://www.w3.org/2000/svg"
 width="100.000000pt" height="148.000000pt" viewBox="0 0 100.000000 148.000000"
 preserveAspectRatio="xMidYMid meet">
<metadata>
Created by potrace 1.16, written by Peter Selinger 2001-2019
</metadata>
<g transform="translate(0.000000,148.000000) scale(0.100000,-0.100000)"
fill="#000000" stroke="none">
<path d="M733 1385 c-28 -42 -29 -80 -5 -120 9 -16 23 -48 31 -69 15 -44 20
-36 -73 -114 -27 -23 -30 -42 -9 -49 6 -2 23 7 39 20 43 35 54 25 54 -47 0
-66 -8 -82 -52 -109 -16 -10 -28 -24 -28 -33 0 -20 27 -29 45 -14 8 6 18 9 23
6 16 -10 13 -405 -3 -460 -17 -57 -54 -123 -84 -150 -12 -11 -21 -24 -21 -31
0 -16 -75 -75 -94 -75 -9 0 -16 6 -17 13 -1 31 2 731 4 733 1 1 20 -6 41 -17
50 -24 66 -24 66 -1 0 12 -14 25 -41 37 -57 26 -69 48 -69 123 0 57 2 63 18
57 29 -13 62 -18 62 -10 0 4 -18 24 -41 44 l-41 36 21 48 c12 27 21 68 21 92
0 37 -5 47 -35 74 -20 17 -39 31 -44 31 -21 0 -54 -52 -58 -94 -4 -36 0 -56
21 -95 14 -28 26 -55 26 -59 0 -5 -22 -23 -50 -40 -46 -29 -60 -49 -44 -65 4
-4 25 3 46 15 34 19 41 20 49 8 11 -17 4 -91 -11 -120 -6 -11 -28 -29 -49 -40
-21 -10 -41 -26 -45 -35 -9 -24 22 -30 56 -10 17 10 34 13 38 9 5 -5 5 -74 -1
-159 -5 -83 -7 -241 -4 -352 7 -226 7 -226 -58 -181 -99 67 -169 163 -181 248
-8 59 -11 498 -3 506 3 3 19 -3 35 -15 70 -49 70 -10 1 53 -40 37 -50 52 -45
69 3 12 6 28 6 35 0 18 24 14 49 -9 21 -20 51 -20 51 0 0 6 -23 27 -50 48 -48
36 -65 72 -41 88 19 11 39 63 30 76 -5 8 -9 30 -9 50 0 64 -67 93 -110 47 -27
-29 -27 -105 0 -160 18 -37 18 -44 5 -64 -7 -12 -34 -32 -59 -44 -26 -12 -46
-28 -46 -36 0 -25 30 -28 60 -5 41 30 60 27 60 -9 0 -43 -16 -71 -61 -104 -21
-17 -39 -38 -39 -48 0 -23 16 -23 47 2 34 26 53 25 53 -2 0 -13 1 -133 2 -268
l3 -245 29 -50 c16 -27 35 -62 42 -76 30 -56 197 -189 258 -205 37 -9 93 23
161 92 73 75 92 100 140 187 l37 69 -6 181 c-3 100 -9 206 -12 235 -8 59 2 65
58 36 25 -13 32 -14 39 -2 15 23 11 28 -45 54 -44 21 -55 31 -60 56 -9 47 -7
72 7 92 13 18 15 18 55 -5 36 -20 44 -22 52 -9 12 19 -2 35 -60 68 -57 34 -61
64 -19 129 38 61 37 80 -7 131 -46 54 -79 56 -111 7z m81 -69 c8 -29 6 -40 -6
-52 -24 -24 -38 -8 -38 40 0 69 28 77 44 12z m-584 -26 c0 -28 -16 -50 -37
-50 -14 0 -19 90 -6 103 12 12 43 -26 43 -53z m302 -32 c-5 -34 -29 -37 -41
-5 -10 26 -4 47 18 65 14 11 17 10 21 -10 3 -12 4 -35 2 -50z"/>
</g>
</svg>
