<?xml version="1.0" standalone="no"?>
<!DOCTYPE svg PUBLIC "-//W3C//DTD SVG 20010904//EN"
 "http://www.w3.org/TR/2001/REC-SVG-20010904/DTD/svg10.dtd">
<svg version="1.0" xmlns="http://www.w3.org/2000/svg"
 width="68.000000pt" height="100.000000pt" viewBox="0 0 68.000000 100.000000"
 preserveAspectRatio="xMidYMid meet">
<metadata>
Created by potrace 1.16, written by Peter Selinger 2001-2019
</metadata>
<g transform="translate(0.000000,100.000000) scale(0.100000,-0.100000)"
fill="#000000" stroke="none">
<path d="M493 934 c-14 -23 -15 -31 -4 -67 26 -86 25 -93 -8 -118 -43 -32 -41
-53 4 -45 35 7 35 7 35 -29 0 -25 -7 -41 -25 -57 -30 -26 -33 -48 -6 -48 25 0
31 -35 31 -172 0 -95 -3 -115 -24 -156 -25 -49 -101 -142 -117 -142 -10 0 -13
448 -3 474 4 11 11 13 30 6 20 -8 26 -6 31 7 4 9 1 19 -5 21 -31 10 -54 40
-55 72 -2 29 2 36 21 38 27 4 28 10 1 38 -20 21 -21 27 -10 67 17 59 11 86
-21 110 -23 17 -29 18 -44 7 -31 -26 -36 -60 -17 -112 l17 -49 -32 -25 c-41
-32 -41 -46 1 -42 29 3 32 1 35 -29 3 -26 -3 -36 -32 -58 -47 -35 -48 -58 -3
-50 l32 6 -3 -223 c-2 -123 -8 -227 -13 -233 -6 -6 -26 8 -55 35 -83 82 -84
86 -87 281 l-2 174 23 -2 c29 -4 28 18 -3 47 -14 13 -25 34 -25 47 0 26 3 27
31 13 39 -21 42 2 5 36 -36 33 -36 34 -21 63 19 39 19 95 -1 115 -20 20 -58
21 -74 1 -15 -18 -15 -86 -1 -114 17 -31 13 -39 -29 -61 -67 -34 -47 -64 22
-35 14 6 18 2 18 -18 0 -17 -12 -35 -38 -55 -28 -23 -34 -33 -26 -42 9 -9 17
-9 32 -1 10 6 22 7 26 4 3 -3 6 -84 6 -178 l0 -172 38 -59 c45 -69 87 -107
157 -141 51 -25 52 -25 88 -8 43 20 113 95 152 161 26 45 27 47 23 205 l-3
159 38 0 c50 0 49 23 -4 44 -38 15 -40 18 -37 54 2 31 6 36 23 33 40 -7 49 -6
53 10 2 9 -11 23 -33 34 -38 21 -44 43 -20 85 21 37 18 74 -8 98 -31 29 -63
28 -84 -4z"/>
</g>
</svg>
