<?xml version="1.0" standalone="no"?>
<!DOCTYPE svg PUBLIC "-//W3C//DTD SVG 20010904//EN"
 "http://www.w3.org/TR/2001/REC-SVG-20010904/DTD/svg10.dtd">
<svg version="1.0" xmlns="http://www.w3.org/2000/svg"
 width="93.000000pt" height="100.000000pt" viewBox="0 0 93.000000 100.000000"
 preserveAspectRatio="xMidYMid meet">
<metadata>
Created by potrace 1.16, written by Peter Selinger 2001-2019
</metadata>
<g transform="translate(0.000000,100.000000) scale(0.100000,-0.100000)"
fill="#000000" stroke="none">
<path d="M691 953 c-29 -23 -29 -65 -2 -123 19 -42 21 -63 21 -281 l0 -236
-26 -39 c-48 -72 -148 -164 -177 -164 -9 0 -4 511 5 516 5 3 33 -5 64 -17 51
-21 56 -22 71 -6 15 14 15 21 3 58 -16 47 -65 101 -110 119 -34 14 -37 30 -14
65 11 17 14 34 9 57 -10 46 -22 58 -61 58 -25 0 -38 -7 -51 -26 -16 -26 -13
-58 11 -115 5 -12 -4 -23 -38 -43 -52 -31 -96 -97 -96 -145 0 -42 19 -48 85
-25 30 10 56 16 59 13 8 -8 10 -494 3 -506 -13 -21 -56 8 -123 80 -95 100 -94
98 -94 367 0 217 1 234 20 257 24 31 25 63 5 103 -19 37 -49 46 -80 26 -33
-22 -40 -58 -21 -106 23 -57 21 -65 -22 -82 -56 -22 -94 -77 -100 -144 -5 -63
3 -67 68 -34 47 24 66 25 74 4 3 -9 6 -79 6 -157 l0 -141 41 -63 c46 -70 120
-142 173 -167 62 -29 106 -22 189 34 83 56 137 115 168 187 19 44 20 59 14
188 -5 114 -4 144 8 160 13 17 18 18 41 7 36 -16 75 -15 82 2 9 24 -23 82 -61
112 -20 16 -46 36 -57 45 -20 15 -20 16 -3 65 16 44 17 53 4 79 -17 36 -56 44
-88 18z m-231 -238 c0 -22 -6 -37 -17 -44 -31 -16 -93 -30 -98 -21 -8 13 75
100 96 100 15 0 19 -7 19 -35z m111 -12 c35 -39 40 -48 26 -51 -9 -2 -34 5
-55 15 -30 14 -38 24 -40 51 -5 46 17 41 69 -15z m-391 -13 c0 -23 -7 -33 -30
-45 -33 -17 -70 -20 -70 -5 0 18 62 80 81 80 14 0 19 -7 19 -30z"/>
</g>
</svg>
