<?xml version="1.0" standalone="no"?>
<!DOCTYPE svg PUBLIC "-//W3C//DTD SVG 20010904//EN"
 "http://www.w3.org/TR/2001/REC-SVG-20010904/DTD/svg10.dtd">
<svg version="1.0" xmlns="http://www.w3.org/2000/svg"
 width="548.000000pt" height="590.000000pt" viewBox="0 0 548.000000 590.000000"
 preserveAspectRatio="xMidYMid meet">
<metadata>
Created by potrace 1.16, written by Peter Selinger 2001-2019
</metadata>
<g transform="translate(0.000000,590.000000) scale(0.500000,-0.500000)"
fill="#000000" stroke="none">
<path d="M832 1139 c-5 -2 -10 -8 -14 -15 -2 -4 -7 -9 -11 -11 -8 -4 -9 -7
-14 -28 -7 -32 -2 -63 12 -74 4 -3 7 -8 8 -11 2 -11 15 -35 22 -40 6 -5 6 -5
7 -35 1 -17 3 -34 4 -38 2 -6 2 -10 0 -19 -1 -6 -2 -15 -2 -21 0 -5 0 -24 -1
-42 -2 -27 -2 -224 -1 -260 0 -7 0 -19 -1 -27 -1 -11 -1 -17 2 -26 3 -11 3
-13 0 -23 -4 -13 -4 -34 0 -49 3 -10 3 -13 1 -21 -1 -4 -3 -15 -4 -24 -1 -13
-2 -16 -8 -22 -3 -3 -7 -10 -9 -14 -4 -12 -9 -19 -17 -24 -6 -4 -8 -8 -13 -19
-5 -13 -8 -16 -34 -43 -25 -24 -29 -29 -32 -39 -3 -9 -4 -11 -13 -14 -5 -2
-15 -10 -22 -17 -25 -23 -43 -36 -60 -42 -4 -1 -11 -5 -17 -9 -25 -16 -25 -16
-22 118 1 43 3 158 2 165 0 3 0 11 1 17 1 16 0 32 -1 56 -1 15 0 25 2 34 1 8
2 16 1 22 -7 37 -8 173 -2 186 2 4 5 12 6 16 2 9 8 12 17 9 10 -2 42 -17 54
-24 6 -4 16 -7 21 -8 5 -1 13 -4 18 -6 66 -33 85 36 29 104 -4 5 -8 12 -10 17
-2 8 -29 35 -47 48 -5 3 -12 9 -14 13 -8 13 -43 35 -56 35 -18 0 -32 28 -17
34 6 3 9 5 11 10 2 4 7 11 11 15 14 14 19 54 8 77 -3 6 -5 14 -5 18 0 24 -14
42 -32 42 -2 0 -8 2 -14 4 -9 4 -9 4 -23 1 -49 -12 -76 -60 -58 -104 3 -7 6
-18 7 -25 1 -6 4 -15 7 -21 3 -5 5 -11 5 -12 0 -2 3 -7 7 -11 10 -11 9 -12
-23 -29 -36 -18 -46 -25 -53 -34 -3 -4 -11 -13 -16 -19 -10 -11 -16 -18 -39
-50 -52 -71 -39 -145 22 -119 6 2 17 7 25 11 8 3 24 8 35 10 11 2 22 5 25 6
28 11 43 -2 41 -36 -1 -13 -2 -95 -2 -111 0 -9 0 -20 0 -26 0 -5 -1 -14 0 -20
0 -5 0 -16 0 -23 0 -7 0 -22 0 -32 1 -38 1 -75 0 -89 -1 -37 1 -72 5 -80 3 -7
3 -9 1 -24 -3 -17 -3 -93 -1 -137 2 -36 -30 -52 -56 -28 -5 4 -12 9 -17 10 -9
2 -10 3 -24 19 -5 6 -14 13 -19 16 -14 7 -46 40 -49 51 -2 9 -6 13 -18 20 -5
3 -11 9 -14 14 -2 5 -12 16 -20 24 -15 15 -22 26 -26 42 -1 5 -5 10 -8 13 -17
15 -23 42 -16 66 3 11 3 182 0 212 -2 12 -2 33 -2 46 1 40 1 90 0 125 0 18 0
40 0 48 0 8 0 25 -1 38 -2 26 -2 29 0 51 1 18 2 19 22 41 22 24 21 20 22 60 0
35 0 35 -6 44 -4 5 -8 13 -11 18 -6 16 -42 40 -58 40 -17 0 -59 -40 -63 -61
-5 -23 -6 -32 -3 -39 1 -4 3 -14 4 -22 1 -12 3 -15 8 -21 3 -3 8 -10 10 -15 2
-5 6 -11 7 -14 12 -21 -5 -52 -28 -52 -9 0 -28 -12 -54 -33 -5 -4 -14 -14 -19
-21 -5 -8 -15 -17 -21 -22 -9 -7 -12 -11 -18 -24 -4 -8 -11 -22 -15 -30 -13
-25 -14 -101 -2 -108 7 -4 17 -2 25 3 4 3 12 6 18 7 6 1 14 4 18 7 4 3 9 5 11
5 2 0 10 4 18 9 8 5 19 10 23 11 4 1 12 4 17 5 15 5 21 6 27 2 9 -6 10 -7 9
-92 -1 -82 0 -230 0 -258 1 -13 2 -17 5 -22 4 -5 8 -12 20 -35 2 -4 7 -11 11
-16 4 -5 10 -14 12 -21 2 -6 7 -14 10 -17 15 -13 20 -18 23 -27 7 -22 40 -59
57 -66 7 -3 9 -5 12 -12 5 -13 38 -44 50 -48 5 -2 13 -7 17 -11 11 -11 31 -22
37 -22 4 0 9 -3 14 -8 8 -7 9 -7 28 -8 10 -1 27 -3 36 -4 14 -2 21 -2 33 0 32
4 35 5 41 12 3 3 10 7 14 8 9 2 13 6 18 16 5 10 10 14 20 15 10 1 41 16 45 21
1 2 6 5 11 8 7 4 10 7 12 13 5 14 19 25 31 25 11 0 16 5 26 23 8 15 11 18 19
22 11 6 34 28 35 35 5 23 7 26 18 34 13 10 17 18 17 34 0 18 7 39 15 47 12 11
13 113 2 135 -5 9 -5 12 -4 22 1 6 2 34 3 63 1 30 2 55 4 59 2 7 2 9 -2 19 -5
14 -5 43 -1 63 2 7 3 16 4 21 2 15 11 18 38 12 17 -4 28 -7 37 -13 5 -2 14 -5
21 -6 8 -1 17 -3 21 -3 9 -2 28 8 31 16 7 17 -10 67 -30 91 -6 6 -13 16 -16
21 -10 15 -31 31 -71 54 -47 26 -53 38 -34 69 29 48 31 63 19 108 -9 29 -14
39 -21 43 -6 3 -61 4 -68 2z m36 -41 c25 -18 23 -78 -4 -78 -26 0 -37 48 -16
74 7 9 11 10 20 4z m-300 -18 c25 -9 21 -84 -5 -84 -5 0 -23 18 -27 26 -14 27
8 66 32 58z m-320 -3 c5 -4 11 -11 15 -18 2 -2 3 -12 3 -23 0 -42 -24 -61 -40
-29 -17 33 0 85 22 70z m290 -179 c6 -4 9 -39 8 -87 0 -10 -22 -29 -33 -29 -3
0 -9 -2 -15 -4 -5 -2 -18 -6 -30 -9 -12 -3 -31 -11 -46 -18 -53 -25 -37 33 23
85 5 5 13 14 17 20 8 12 14 17 32 24 7 2 16 8 22 12 11 8 16 10 22 6z m85 -8
c7 -5 18 -13 24 -17 17 -10 39 -34 50 -55 7 -11 12 -18 18 -23 5 -3 11 -10 13
-14 2 -4 7 -12 10 -17 14 -21 -6 -25 -33 -7 -5 3 -15 8 -21 10 -6 2 -15 6 -20
8 -6 3 -18 8 -28 11 -19 6 -34 14 -41 22 -5 6 -6 83 -1 89 5 6 17 4 29 -7z
m318 -23 c24 -16 32 -23 40 -33 6 -8 12 -14 13 -15 3 -2 10 -16 11 -24 3 -17
-13 -18 -42 -4 -17 7 -22 9 -35 10 -28 1 -40 16 -40 49 0 42 10 45 53 17z
m-730 -13 c2 -2 3 -10 3 -35 0 -44 -2 -50 -22 -53 -6 -1 -16 -4 -23 -8 -6 -3
-16 -7 -20 -8 -4 -1 -15 -6 -23 -10 -32 -16 -41 -11 -31 16 2 7 5 18 6 24 1 8
3 11 6 14 13 8 18 13 22 22 3 7 7 10 13 13 4 2 11 7 14 11 13 16 43 24 55 14z"/>
</g>
</svg>
