<?xml version="1.0" standalone="no"?>
<!DOCTYPE svg PUBLIC "-//W3C//DTD SVG 20010904//EN"
 "http://www.w3.org/TR/2001/REC-SVG-20010904/DTD/svg10.dtd">
<svg version="1.0" xmlns="http://www.w3.org/2000/svg"
 width="138.000000pt" height="148.000000pt" viewBox="0 0 138.000000 148.000000"
 preserveAspectRatio="xMidYMid meet">
<metadata>
Created by potrace 1.16, written by Peter Selinger 2001-2019
</metadata>
<g transform="translate(0.000000,148.000000) scale(0.100000,-0.100000)"
fill="#000000" stroke="none">
<path d="M645 1386 c-19 -21 -35 -45 -35 -54 0 -24 27 -99 45 -126 15 -23 14
-24 -23 -39 -87 -35 -182 -155 -182 -231 0 -56 22 -70 75 -46 92 39 145 50
145 28 0 -7 2 -182 3 -388 l2 -375 -27 -3 c-46 -5 -107 41 -212 162 -101 116
-96 88 -99 499 l-2 360 27 35 c22 27 28 45 28 83 0 40 -5 53 -34 83 -18 20
-42 36 -53 36 -10 0 -35 -16 -53 -35 -28 -29 -34 -43 -34 -75 1 -21 11 -54 23
-73 35 -57 26 -87 -30 -100 -32 -8 -127 -104 -146 -147 -16 -39 -18 -150 -2
-150 6 0 41 14 76 31 36 17 80 32 97 33 l31 1 0 -226 1 -227 32 -51 c18 -29
32 -57 32 -62 0 -5 4 -9 10 -9 5 0 17 -15 26 -32 31 -62 137 -159 222 -205 13
-7 52 -16 87 -19 66 -7 114 9 142 47 7 9 26 19 42 22 17 4 40 20 56 42 15 19
36 35 46 35 10 0 24 10 30 23 6 12 24 32 40 45 16 13 29 30 29 38 0 8 9 22 20
31 11 10 20 27 20 38 0 11 9 38 21 59 17 32 20 50 15 105 -8 97 -10 377 -2
390 10 16 45 13 101 -8 79 -30 105 0 70 80 -21 49 -53 82 -115 122 -84 53 -86
58 -56 110 29 48 32 80 14 138 -11 38 -12 39 -60 39 -60 0 -89 -25 -95 -84 -4
-35 1 -50 31 -95 l35 -55 -1 -365 -1 -366 -42 -65 c-24 -36 -57 -78 -74 -94
-17 -17 -31 -35 -31 -40 0 -6 -8 -16 -18 -21 -10 -6 -45 -27 -76 -48 -58 -39
-94 -43 -82 -10 4 9 7 180 7 379 0 267 4 366 12 379 11 15 18 13 79 -15 90
-42 118 -43 133 -5 12 28 9 35 -27 95 -41 67 -129 150 -158 150 -9 0 -25 8
-34 19 -16 18 -15 20 15 50 31 31 31 34 25 94 -8 72 -19 85 -69 94 -33 5 -41
2 -72 -31z m453 -18 c18 -18 15 -87 -3 -94 -22 -9 -45 15 -45 46 0 55 21 75
48 48z m-358 -68 c0 -10 -9 -28 -20 -41 l-20 -24 -20 24 c-26 30 -25 56 2 83
l21 21 19 -23 c10 -12 18 -30 18 -40z m-410 24 c12 -30 4 -68 -17 -86 -29 -24
-56 47 -37 96 10 25 43 19 54 -10z m355 -248 c4 -33 3 -61 -4 -74 -10 -19 -64
-42 -98 -42 -7 0 -28 -9 -48 -20 -49 -28 -56 -25 -42 15 13 38 104 145 123
145 6 0 17 7 24 15 24 29 38 17 45 -39z m153 -14 c67 -68 101 -117 89 -128 -3
-3 -47 11 -96 31 l-91 38 0 63 c0 84 12 83 98 -4z m349 19 c87 -63 108 -136
28 -98 -20 9 -47 17 -60 17 -28 0 -45 26 -45 68 0 52 19 55 77 13z m-917 -62
c0 -53 -2 -55 -75 -82 -93 -35 -89 -35 -81 9 8 38 72 115 106 126 36 12 50 -3
50 -53z"/>
</g>
</svg>
