<?xml version="1.0" standalone="no"?>
<!DOCTYPE svg PUBLIC "-//W3C//DTD SVG 20010904//EN"
 "http://www.w3.org/TR/2001/REC-SVG-20010904/DTD/svg10.dtd">
<svg version="1.0" xmlns="http://www.w3.org/2000/svg"
 width="66.000000pt" height="100.000000pt" viewBox="0 0 66.000000 100.000000"
 preserveAspectRatio="xMidYMid meet">
<metadata>
Created by potrace 1.16, written by Peter Selinger 2001-2019
</metadata>
<g transform="translate(0.000000,100.000000) scale(0.100000,-0.100000)"
fill="#000000" stroke="none">
<path d="M300 951 c-5 -11 -10 -25 -10 -32 0 -7 -7 -21 -17 -31 -15 -17 -15
-20 6 -42 l22 -24 -23 -16 -23 -17 25 -20 25 -19 -22 -19 c-26 -22 -29 -37 -9
-44 17 -7 34 -563 17 -580 -16 -16 -65 44 -111 135 l-40 80 0 179 0 179 25 10
c14 5 25 14 25 20 0 6 -11 15 -25 20 -32 12 -32 38 1 50 30 12 27 34 -5 38
-29 5 -24 36 7 40 29 4 29 30 0 34 -16 2 -24 12 -28 33 -8 44 -37 45 -55 1 -9
-20 -20 -36 -25 -36 -17 0 -11 -25 10 -38 25 -16 25 -29 0 -37 -26 -8 -26 -31
0 -38 28 -7 25 -36 -5 -47 -14 -5 -25 -14 -25 -20 0 -6 11 -15 25 -20 l25 -10
0 -190 0 -190 44 -88 c64 -128 134 -185 204 -167 34 8 107 84 150 157 53 89
72 180 72 341 l0 139 30 11 c33 13 41 37 11 37 -23 0 -48 28 -35 39 5 5 18 11
29 13 28 5 25 32 -3 36 -30 4 -25 36 6 40 31 5 27 30 -5 34 -21 2 -29 9 -31
28 -8 57 -47 58 -54 2 -2 -19 -10 -28 -25 -30 -31 -4 -29 -28 2 -36 32 -8 32
-23 0 -38 -30 -13 -28 -32 4 -36 30 -5 25 -44 -7 -52 -31 -7 -32 -23 -4 -35
l24 -10 -4 -172 -3 -171 -48 -95 c-47 -93 -80 -137 -94 -124 -7 8 -9 103 -5
364 l2 193 25 6 c34 8 32 23 -5 37 -16 6 -30 17 -30 25 0 7 14 18 30 23 38 14
38 24 -1 38 -35 12 -34 33 1 41 33 8 36 28 6 40 -18 6 -26 17 -26 33 0 22 -16
47 -32 47 -4 0 -12 -9 -18 -19z"/>
</g>
</svg>
