<?xml version="1.0" standalone="no"?>
<!DOCTYPE svg PUBLIC "-//W3C//DTD SVG 20010904//EN"
 "http://www.w3.org/TR/2001/REC-SVG-20010904/DTD/svg10.dtd">
<svg version="1.0" xmlns="http://www.w3.org/2000/svg"
 width="98.000000pt" height="148.000000pt" viewBox="0 0 98.000000 148.000000"
 preserveAspectRatio="xMidYMid meet">
<metadata>
Created by potrace 1.16, written by Peter Selinger 2001-2019
</metadata>
<g transform="translate(0.000000,148.000000) scale(0.100000,-0.100000)"
fill="#000000" stroke="none">
<path d="M140 1395 c-5 -14 -10 -37 -10 -50 0 -18 -6 -24 -27 -27 -39 -4 -39
-42 -1 -46 18 -2 28 -11 32 -28 9 -34 0 -44 -35 -44 -26 0 -30 -3 -27 -22 2
-17 10 -22 33 -23 27 0 30 -3 33 -37 3 -37 3 -38 -32 -38 -32 0 -36 -3 -36
-25 0 -22 4 -25 33 -25 l34 0 -2 -277 c-2 -271 -2 -279 20 -328 93 -201 105
-222 160 -279 90 -91 149 -107 221 -58 41 27 114 96 114 107 0 3 26 45 57 93
90 136 106 208 113 502 l5 235 37 3 c39 3 68 26 52 42 -5 5 -25 10 -44 12 -34
3 -35 5 -35 43 l0 40 38 -3 c20 -2 38 2 39 8 4 31 0 35 -37 40 -34 4 -40 9
-43 32 -3 25 0 27 40 30 35 2 43 7 43 23 0 17 -8 20 -48 23 l-48 3 2 47 c3 46
3 47 -26 47 -29 0 -30 -1 -28 -47 3 -50 1 -52 -45 -48 -29 2 -53 -17 -45 -36
3 -9 20 -14 44 -14 37 0 39 -2 39 -30 0 -28 -2 -30 -41 -30 -36 0 -40 -2 -37
-22 2 -19 9 -23 38 -23 34 0 35 -1 38 -42 l3 -43 -39 0 c-23 0 -42 -5 -44 -12
-10 -26 4 -38 43 -38 l39 0 0 -182 c0 -179 -16 -332 -41 -395 -55 -137 -144
-269 -204 -305 -10 -6 -12 89 -11 433 l1 440 33 -3 c20 -1 36 3 42 11 15 26
-1 41 -42 41 l-39 0 3 38 c3 35 5 37 38 37 31 0 35 3 35 25 0 22 -4 25 -35 25
-33 0 -35 2 -35 35 0 34 1 35 38 32 37 -3 38 -2 35 25 -3 25 -8 28 -41 31
l-39 3 4 47 c3 46 3 47 -27 47 -30 0 -30 -1 -27 -47 4 -45 2 -48 -21 -48 -51
0 -53 -53 -2 -62 15 -2 20 -11 20 -33 0 -25 -4 -31 -27 -33 -48 -6 -42 -46 7
-47 16 0 21 -8 23 -37 3 -36 2 -38 -26 -38 -22 0 -31 -6 -35 -22 -7 -26 5 -37
36 -31 l22 4 0 -440 c0 -441 0 -441 -21 -441 -18 0 -124 97 -124 114 0 3 -22
53 -50 111 l-50 105 0 280 0 280 41 0 c36 0 40 2 37 23 -2 18 -11 23 -43 27
-38 5 -40 7 -40 40 0 33 2 35 40 40 32 4 40 9 40 25 0 17 -6 20 -34 17 -37 -3
-51 9 -51 45 0 19 6 22 43 25 34 2 42 7 42 23 0 16 -8 21 -37 23 -36 3 -37 4
-40 50 -3 40 -6 47 -25 50 -17 3 -26 -3 -33 -23z"/>
</g>
</svg>
