<?xml version="1.0" standalone="no"?>
<!DOCTYPE svg PUBLIC "-//W3C//DTD SVG 20010904//EN"
 "http://www.w3.org/TR/2001/REC-SVG-20010904/DTD/svg10.dtd">
<svg version="1.0" xmlns="http://www.w3.org/2000/svg"
 width="378.000000pt" height="590.000000pt" viewBox="0 0 378.000000 590.000000"
 preserveAspectRatio="xMidYMid meet">
<metadata>
Created by potrace 1.16, written by Peter Selinger 2001-2019
</metadata>
<g transform="translate(0.000000,590.000000) scale(0.500000,-0.500000)"
fill="#000000" stroke="none">
<path d="M350 1139 c-25 -13 -37 -22 -51 -35 -9 -9 -20 -18 -25 -21 -11 -7
-101 -95 -106 -105 -3 -4 -8 -11 -12 -16 -4 -4 -8 -11 -9 -14 -1 -3 -4 -8 -6
-13 -3 -4 -6 -11 -8 -15 -1 -4 -6 -12 -10 -19 -4 -6 -7 -14 -8 -18 -2 -9 -10
-23 -18 -33 -7 -9 -8 -11 -10 -26 0 -5 -4 -15 -7 -22 -3 -7 -6 -14 -6 -16 0
-1 -2 -8 -5 -14 -12 -29 -19 -48 -19 -54 0 -3 -1 -9 -3 -13 -2 -5 -3 -16 -3
-48 0 -24 -1 -45 -2 -50 -4 -13 -5 -27 -2 -34 2 -4 3 -22 4 -50 1 -41 1 -44 5
-50 3 -3 5 -8 6 -12 1 -3 4 -10 7 -16 3 -5 6 -15 7 -21 1 -6 4 -15 7 -20 4 -8
5 -11 5 -28 0 -19 1 -21 7 -29 3 -4 8 -12 11 -18 3 -5 8 -12 10 -15 2 -3 5 -9
6 -14 1 -10 8 -25 15 -34 8 -10 21 -38 23 -48 1 -7 12 -22 17 -22 2 0 11 -14
15 -25 2 -6 5 -11 10 -13 11 -6 59 -49 64 -58 2 -3 6 -7 10 -9 3 -2 9 -6 14
-10 4 -3 13 -7 20 -9 8 -2 17 -6 21 -8 3 -2 12 -5 18 -6 6 -1 14 -5 18 -8 10
-7 58 -8 71 0 5 2 13 5 19 6 6 1 13 5 16 7 3 3 9 6 13 7 4 1 12 5 18 9 7 4 13
7 14 7 1 0 8 4 14 9 6 5 13 9 14 9 4 0 19 14 22 21 2 3 13 16 24 27 17 17 21
23 22 29 2 10 4 15 12 22 4 4 8 10 9 15 2 9 10 24 26 49 10 16 17 33 19 43 1
4 5 16 10 27 23 55 28 68 26 78 -4 24 -3 127 1 135 5 10 5 13 0 24 -3 8 -4 13
-4 35 0 26 0 26 -7 40 -7 13 -7 15 -7 35 0 19 -1 22 -5 31 -3 6 -6 13 -7 17
-3 16 -9 34 -14 47 -4 10 -6 18 -6 25 0 8 -1 13 -4 18 -7 12 -45 88 -48 97 -4
13 -21 36 -32 44 -5 4 -13 11 -17 17 -4 5 -9 11 -12 14 -3 3 -8 10 -11 17 -5
10 -8 14 -19 22 -7 5 -15 13 -20 19 -10 17 -23 27 -36 32 -8 3 -14 7 -20 13
-4 5 -13 12 -19 15 -7 3 -17 11 -24 17 -7 6 -15 11 -18 12 -11 2 -25 1 -30 -2z
m36 -69 c6 -4 15 -12 21 -20 7 -8 14 -14 20 -17 6 -3 19 -14 29 -24 11 -11 21
-19 22 -19 3 0 25 -28 28 -36 2 -7 25 -45 37 -59 3 -4 11 -15 17 -24 6 -9 15
-21 20 -27 9 -10 27 -54 31 -78 1 -4 4 -13 7 -21 4 -7 7 -19 8 -25 1 -6 3 -15
6 -20 8 -14 12 -27 13 -48 0 -10 2 -23 4 -28 2 -5 3 -13 3 -19 0 -7 2 -15 5
-23 4 -9 4 -13 3 -19 -1 -4 -2 -12 -2 -17 0 -5 -1 -13 -3 -18 -2 -7 -3 -13 -1
-43 1 -19 3 -41 3 -49 2 -19 -4 -38 -15 -57 -9 -15 -13 -25 -16 -40 -2 -10
-22 -51 -29 -59 -1 -2 -5 -8 -8 -14 -4 -6 -9 -16 -13 -21 -14 -24 -17 -30 -21
-40 -9 -25 -50 -61 -94 -83 l-41 -21 -27 0 c-30 0 -50 7 -73 26 -4 4 -11 8
-16 10 -12 6 -41 35 -45 47 -2 4 -6 10 -8 12 -3 2 -9 9 -13 14 -4 6 -12 15
-18 19 -15 12 -18 15 -19 24 -2 11 -6 19 -14 30 -9 11 -25 42 -25 47 0 2 -5
14 -12 27 -8 15 -13 29 -15 37 -5 22 -10 41 -14 48 -3 4 -5 12 -6 20 0 11 -2
16 -7 24 -6 9 -6 9 -6 40 0 22 -1 33 -3 39 -4 11 -4 70 0 84 2 7 3 19 3 39 l0
30 11 16 c12 18 23 45 23 56 0 4 2 12 5 17 2 6 6 14 7 18 3 10 17 37 25 50 3
6 12 21 19 34 8 16 17 29 26 39 7 8 16 20 20 25 13 17 36 38 48 44 9 4 13 7
20 16 16 24 33 37 48 37 3 0 7 1 10 3 8 4 10 4 22 -3z"/>
</g>
</svg>
