<?xml version="1.0" standalone="no"?>
<!DOCTYPE svg PUBLIC "-//W3C//DTD SVG 20010904//EN"
 "http://www.w3.org/TR/2001/REC-SVG-20010904/DTD/svg10.dtd">
<svg version="1.0" xmlns="http://www.w3.org/2000/svg"
 width="94.000000pt" height="148.000000pt" viewBox="0 0 94.000000 148.000000"
 preserveAspectRatio="xMidYMid meet">
<metadata>
Created by potrace 1.16, written by Peter Selinger 2001-2019
</metadata>
<g transform="translate(0.000000,148.000000) scale(0.100000,-0.100000)"
fill="#000000" stroke="none">
<path d="M414 1412 c-17 -9 -73 -57 -123 -107 -94 -91 -152 -180 -189 -290 -7
-22 -17 -49 -22 -60 -24 -56 -30 -99 -30 -220 0 -72 3 -135 7 -139 10 -10 43
-118 43 -143 0 -12 4 -24 8 -27 4 -2 26 -40 47 -83 22 -43 49 -92 60 -109 30
-45 128 -130 172 -149 21 -9 46 -21 55 -26 10 -5 30 -9 45 -9 37 0 160 63 201
103 37 35 92 112 92 128 0 6 8 23 19 37 10 15 22 38 26 52 4 14 17 48 29 75
19 44 22 66 20 177 -2 160 -11 235 -35 301 -10 28 -19 57 -19 64 0 23 -90 195
-113 218 -12 12 -42 47 -67 78 -25 31 -53 59 -62 62 -10 4 -24 12 -30 18 -37
35 -81 67 -91 67 -7 -1 -26 -9 -43 -18z m80 -87 c13 -14 43 -41 67 -60 24 -18
57 -56 73 -83 17 -27 49 -76 72 -109 24 -36 46 -84 54 -119 7 -32 17 -64 22
-71 17 -21 30 -139 30 -258 -1 -100 -4 -128 -23 -170 -87 -201 -131 -263 -221
-310 -27 -14 -64 -25 -86 -25 -49 0 -115 41 -167 106 -22 27 -47 55 -57 62
-10 7 -18 21 -18 30 0 9 -9 28 -20 42 -11 14 -20 28 -20 33 0 4 -8 26 -19 50
-10 23 -24 62 -31 87 -7 25 -17 58 -23 74 -6 15 -10 88 -10 161 0 120 2 136
22 163 11 17 21 38 21 48 0 37 90 200 135 244 124 123 123 122 168 129 4 0 18
-10 31 -24z"/>
</g>
</svg>
