<?xml version="1.0" standalone="no"?>
<!DOCTYPE svg PUBLIC "-//W3C//DTD SVG 20010904//EN"
 "http://www.w3.org/TR/2001/REC-SVG-20010904/DTD/svg10.dtd">
<svg version="1.0" xmlns="http://www.w3.org/2000/svg"
 width="64.000000pt" height="100.000000pt" viewBox="0 0 64.000000 100.000000"
 preserveAspectRatio="xMidYMid meet">
<metadata>
Created by potrace 1.16, written by Peter Selinger 2001-2019
</metadata>
<g transform="translate(0.000000,100.000000) scale(0.100000,-0.100000)"
fill="#000000" stroke="none">
<path d="M215 903 c-73 -62 -115 -125 -160 -243 -61 -160 -2 -414 126 -542 87
-87 159 -100 248 -45 42 25 63 47 96 102 66 111 75 142 75 258 0 176 -52 315
-162 432 -63 68 -102 95 -136 95 -10 0 -50 -26 -87 -57z m146 -40 c114 -103
178 -244 186 -408 6 -111 -3 -141 -73 -257 -37 -61 -100 -108 -144 -108 -68 0
-155 103 -214 252 -22 56 -26 82 -26 168 0 97 2 105 39 183 42 87 142 207 174
207 9 0 35 -17 58 -37z"/>
</g>
</svg>
