<?xml version="1.0" standalone="no"?>
<!DOCTYPE svg PUBLIC "-//W3C//DTD SVG 20010904//EN"
 "http://www.w3.org/TR/2001/REC-SVG-20010904/DTD/svg10.dtd">
<svg version="1.0" xmlns="http://www.w3.org/2000/svg"
 width="738.000000pt" height="590.000000pt" viewBox="0 0 738.000000 590.000000"
 preserveAspectRatio="xMidYMid meet">
<metadata>
Created by potrace 1.16, written by Peter Selinger 2001-2019
</metadata>
<g transform="translate(0.000000,590.000000) scale(0.500000,-0.500000)"
fill="#000000" stroke="none">
<path d="M359 1151 c-11 -3 -39 -16 -48 -23 -5 -4 -13 -9 -17 -12 -20 -14 -79
-72 -91 -88 -3 -5 -13 -18 -21 -29 -14 -19 -36 -54 -36 -58 0 -1 -4 -8 -8 -15
-9 -16 -17 -33 -30 -68 -10 -27 -12 -37 -16 -74 -1 -9 -3 -21 -5 -25 -12 -27
-12 -269 0 -291 3 -7 15 -47 20 -73 7 -33 13 -46 30 -68 5 -6 10 -14 11 -19 4
-13 21 -46 29 -54 3 -5 9 -13 11 -18 2 -5 8 -13 13 -19 4 -5 11 -14 14 -18 3
-4 15 -18 26 -30 11 -12 23 -26 27 -31 3 -6 7 -10 8 -10 1 0 7 -5 14 -12 15
-13 44 -35 53 -39 3 -2 11 -7 17 -12 20 -14 70 -10 93 8 3 3 10 6 15 8 12 4
18 9 42 32 12 11 28 26 37 34 10 9 20 21 31 37 9 12 20 28 25 35 5 7 11 17 14
22 29 59 44 94 47 110 2 5 7 19 13 30 9 19 10 21 11 43 3 31 5 43 9 53 3 7 4
13 4 40 0 18 2 42 3 53 3 24 2 86 -2 104 -3 15 -8 47 -10 61 -1 7 -5 21 -8 32
-3 11 -6 20 -6 21 0 1 -3 9 -7 18 -3 8 -9 24 -12 36 -3 12 -8 28 -12 36 -4 8
-9 19 -10 25 -7 20 -23 48 -44 76 -6 7 -17 21 -25 32 -8 11 -25 30 -38 43 -13
13 -25 25 -27 28 -2 3 -8 8 -15 12 -6 3 -14 10 -19 15 -4 5 -11 11 -15 13 -4
2 -11 8 -15 13 -13 13 -57 21 -80 16z m38 -55 c2 -1 7 -4 10 -7 4 -3 13 -11
21 -17 8 -6 19 -16 25 -23 5 -6 15 -15 21 -20 15 -10 31 -26 39 -37 3 -5 10
-14 16 -21 6 -7 16 -20 22 -29 6 -9 14 -19 16 -22 11 -12 43 -80 43 -91 0 -11
1 -13 10 -39 3 -9 7 -21 8 -25 1 -5 5 -14 9 -22 5 -10 7 -17 7 -23 0 -5 2 -18
4 -29 7 -29 8 -137 3 -147 -3 -6 -4 -12 -4 -32 0 -42 -6 -85 -14 -96 -2 -3 -4
-12 -5 -20 -1 -8 -3 -18 -4 -21 -2 -3 -4 -9 -5 -14 -1 -4 -3 -11 -5 -15 -2 -4
-4 -10 -4 -13 0 -9 -3 -16 -10 -25 -3 -4 -7 -10 -7 -14 -3 -16 -25 -49 -36
-57 -15 -10 -47 -42 -53 -54 -5 -8 -10 -13 -16 -17 -5 -4 -12 -9 -16 -13 -11
-10 -33 -21 -43 -21 -6 0 -9 -1 -16 -8 -14 -13 -27 -11 -41 4 -7 8 -12 12 -18
14 -5 1 -12 5 -15 7 -3 3 -10 7 -15 10 -6 3 -12 8 -16 14 -4 6 -14 18 -22 27
-9 10 -17 21 -19 25 -2 4 -10 15 -19 24 -8 9 -16 18 -17 20 0 2 -1 6 -2 9 -1
3 -5 11 -10 16 -5 6 -10 13 -12 17 -7 17 -13 33 -13 37 0 2 -3 7 -7 12 -3 5
-8 14 -10 20 -2 6 -5 13 -8 16 -7 7 -11 16 -11 28 0 5 -2 15 -4 21 -4 9 -4 16
-4 33 0 21 0 21 -7 30 -5 7 -7 11 -8 22 0 7 -2 20 -3 29 -3 23 -2 67 1 91 2
11 3 30 3 42 0 22 0 22 7 29 6 8 6 8 7 40 1 18 2 32 2 32 0 1 3 2 6 4 7 4 9
10 11 29 0 9 2 18 4 22 2 3 4 11 4 17 2 11 18 47 26 55 3 3 10 16 17 29 9 19
14 26 19 29 3 2 13 11 21 19 8 8 18 17 21 18 3 2 10 7 15 12 5 5 16 16 24 24
8 8 20 17 26 20 6 3 15 9 20 14 13 12 21 15 31 11z"/>
<path d="M1045 1150 c-2 -1 -6 -4 -9 -7 -3 -4 -11 -8 -17 -11 -7 -2 -16 -7
-20 -11 -4 -3 -11 -8 -15 -11 -5 -2 -16 -11 -25 -20 -10 -9 -18 -16 -19 -16
-4 0 -49 -52 -68 -78 -25 -34 -60 -97 -71 -129 -2 -8 -7 -22 -11 -32 -6 -17
-12 -53 -12 -67 0 -3 -2 -11 -4 -18 -13 -35 -12 -262 1 -293 2 -7 7 -20 9 -30
18 -78 20 -83 39 -108 5 -6 10 -14 11 -19 5 -14 20 -44 28 -54 4 -5 10 -14 13
-20 3 -5 8 -13 12 -18 3 -4 10 -12 15 -19 4 -6 17 -20 27 -31 10 -10 20 -23
23 -27 6 -10 60 -54 83 -68 6 -3 14 -7 18 -10 17 -10 66 -3 86 12 5 4 11 7 12
7 7 0 21 10 42 30 13 11 31 28 40 37 12 10 22 23 31 36 8 11 18 25 23 32 15
20 61 115 64 134 1 4 6 17 12 29 9 19 11 24 11 33 0 17 6 53 10 63 3 7 4 13 4
40 0 18 1 38 3 47 5 30 4 83 -3 125 -4 19 -7 41 -8 49 -1 7 -5 22 -8 31 -3 10
-6 19 -6 20 0 1 -4 11 -8 21 -4 10 -10 28 -13 39 -3 12 -8 26 -11 31 -3 6 -8
17 -10 24 -7 22 -23 49 -47 80 -6 8 -16 21 -23 29 -16 22 -72 79 -81 84 -5 2
-12 8 -17 14 -5 6 -12 12 -19 15 -8 4 -12 7 -16 15 -12 18 -54 29 -76 20z m44
-66 c2 -3 9 -8 15 -13 6 -4 20 -17 32 -28 12 -11 26 -24 33 -29 14 -11 20 -17
30 -32 4 -6 10 -14 14 -18 33 -34 80 -119 83 -147 1 -10 5 -25 10 -39 4 -13 8
-24 8 -26 0 -2 3 -9 7 -17 4 -8 7 -17 8 -25 1 -14 4 -33 8 -51 6 -26 3 -115
-3 -127 -4 -8 -4 -10 -3 -21 4 -28 -4 -86 -13 -105 -2 -4 -4 -12 -5 -19 -1 -7
-3 -16 -5 -22 -8 -24 -10 -31 -13 -43 -2 -10 -4 -16 -9 -21 -3 -5 -7 -11 -7
-15 -3 -16 -24 -49 -36 -57 -15 -10 -47 -41 -53 -53 -4 -8 -9 -14 -14 -18 -5
-3 -12 -8 -17 -12 -13 -12 -29 -20 -42 -22 -10 -2 -13 -3 -19 -9 -6 -6 -7 -7
-18 -7 -13 0 -12 -1 -24 15 -5 5 -9 8 -17 10 -6 2 -12 5 -14 7 -2 3 -8 6 -13
9 -9 5 -15 10 -20 19 -2 3 -10 13 -19 22 -8 9 -17 20 -19 25 -3 4 -12 15 -20
24 -9 10 -16 19 -17 22 -2 10 -7 19 -15 28 -8 8 -12 18 -20 44 -2 6 -6 15 -10
19 -3 5 -8 13 -9 18 -1 6 -6 14 -10 18 -7 8 -13 27 -10 32 1 1 -1 7 -3 14 -4
10 -5 18 -5 35 0 22 0 22 -6 30 -15 16 -17 197 -3 212 9 10 10 13 10 43 0 29
2 36 10 36 4 0 8 14 8 26 0 8 1 16 4 21 2 5 4 13 5 19 2 12 16 42 25 54 3 4
11 17 17 29 10 20 12 23 26 36 9 7 19 16 22 20 3 4 9 9 13 11 4 2 11 7 14 12
3 4 9 9 13 11 4 2 10 8 15 14 5 7 11 12 20 17 7 3 18 11 24 17 15 13 29 15 37
7z"/>
</g>
</svg>
