<?xml version="1.0" standalone="no"?>
<!DOCTYPE svg PUBLIC "-//W3C//DTD SVG 20010904//EN"
 "http://www.w3.org/TR/2001/REC-SVG-20010904/DTD/svg10.dtd">
<svg version="1.0" xmlns="http://www.w3.org/2000/svg"
 width="184.000000pt" height="148.000000pt" viewBox="0 0 184.000000 148.000000"
 preserveAspectRatio="xMidYMid meet">
<metadata>
Created by potrace 1.16, written by Peter Selinger 2001-2019
</metadata>
<g transform="translate(0.000000,148.000000) scale(0.100000,-0.100000)"
fill="#000000" stroke="none">
<path d="M405 1420 c-80 -41 -176 -153 -241 -280 -74 -145 -94 -417 -45 -603
23 -87 109 -249 166 -311 20 -21 39 -44 43 -51 4 -6 34 -33 67 -58 69 -54 101
-59 165 -26 138 72 253 253 297 469 11 56 14 111 10 215 -5 119 -10 153 -35
230 -38 115 -48 138 -93 205 -42 63 -104 129 -171 184 -59 47 -106 55 -163 26z
m165 -113 c61 -55 138 -153 163 -207 16 -33 45 -126 68 -215 17 -65 5 -296
-21 -395 -12 -47 -28 -95 -36 -107 -8 -12 -14 -29 -14 -37 0 -22 -166 -186
-189 -186 -11 0 -23 -5 -26 -10 -10 -15 -52 -12 -59 5 -3 8 -11 15 -18 15 -62
2 -240 280 -254 396 -3 27 -10 58 -15 69 -18 36 -2 307 21 360 4 11 14 42 21
69 25 96 102 195 224 284 47 35 54 33 135 -41z"/>
<path d="M1266 1416 c-94 -55 -224 -214 -265 -326 -7 -19 -17 -44 -21 -55 -5
-11 -14 -66 -21 -121 -15 -128 -7 -305 19 -399 45 -161 173 -343 303 -433 50
-34 69 -33 145 3 57 27 168 157 213 249 22 46 41 88 41 93 0 6 6 23 14 39 20
39 39 280 31 368 -7 68 -52 219 -91 302 -26 57 -114 164 -180 220 -32 27 -66
57 -76 67 -24 23 -65 21 -112 -7z m80 -54 c35 -22 141 -124 176 -170 45 -59
88 -137 88 -161 0 -9 8 -39 18 -66 32 -89 44 -158 39 -230 -8 -127 -17 -210
-26 -235 -5 -14 -14 -45 -22 -70 -7 -25 -16 -49 -21 -55 -4 -5 -8 -17 -8 -27
0 -10 -25 -44 -55 -75 -30 -32 -55 -60 -55 -64 0 -11 -73 -56 -111 -69 -34
-12 -39 -11 -71 13 -19 15 -39 27 -44 27 -14 1 -154 192 -154 211 0 6 -13 34
-30 64 -22 39 -30 67 -30 102 0 27 -6 55 -12 62 -17 16 -16 257 1 274 6 6 11
28 11 49 0 21 4 46 9 56 5 9 15 38 20 65 15 65 67 142 137 203 135 118 121
109 140 96z"/>
</g>
</svg>
