<?xml version="1.0" standalone="no"?>
<!DOCTYPE svg PUBLIC "-//W3C//DTD SVG 20010904//EN"
 "http://www.w3.org/TR/2001/REC-SVG-20010904/DTD/svg10.dtd">
<svg version="1.0" xmlns="http://www.w3.org/2000/svg"
 width="100.000000pt" height="80.000000pt" viewBox="0 0 100.000000 80.000000"
 preserveAspectRatio="xMidYMid meet">
<metadata>
Created by potrace 1.16, written by Peter Selinger 2001-2019
</metadata>
<g transform="translate(0.000000,80.000000) scale(0.100000,-0.100000)"
fill="#000000" stroke="none">
<path d="M204 762 c-40 -25 -99 -95 -124 -147 -24 -50 -39 -181 -29 -269 8
-82 54 -181 114 -245 85 -91 128 -90 215 6 37 40 55 71 69 118 60 192 23 382
-96 498 -59 57 -102 68 -149 39z m124 -87 c64 -70 94 -145 100 -249 7 -136
-27 -238 -103 -305 -49 -43 -75 -40 -122 13 -74 85 -122 222 -109 315 15 108
37 161 94 222 30 33 62 59 72 59 10 0 41 -25 68 -55z"/>
<path d="M675 762 c-44 -27 -104 -98 -129 -151 -19 -41 -21 -64 -21 -201 l0
-155 34 -62 c18 -34 57 -85 87 -113 72 -68 105 -69 175 -4 95 90 146 252 120
389 -22 121 -48 174 -122 248 -73 73 -93 80 -144 49z m120 -93 c46 -52 82
-129 97 -209 14 -72 -2 -190 -33 -257 -23 -47 -100 -123 -125 -123 -28 0 -99
83 -135 156 -32 65 -34 74 -33 174 0 137 22 196 99 269 63 59 68 59 130 -10z"/>
</g>
</svg>
