<?xml version="1.0" standalone="no"?>
<!DOCTYPE svg PUBLIC "-//W3C//DTD SVG 20010904//EN"
 "http://www.w3.org/TR/2001/REC-SVG-20010904/DTD/svg10.dtd">
<svg version="1.0" xmlns="http://www.w3.org/2000/svg"
 width="100.000000pt" height="78.000000pt" viewBox="0 0 100.000000 78.000000"
 preserveAspectRatio="xMidYMid meet">
<metadata>
Created by potrace 1.16, written by Peter Selinger 2001-2019
</metadata>
<g transform="translate(0.000000,78.000000) scale(0.100000,-0.100000)"
fill="#000000" stroke="none">
<path d="M129 682 c-48 -51 -68 -81 -81 -122 -25 -80 -32 -176 -18 -243 22
-107 162 -287 223 -287 46 0 153 136 186 235 17 51 18 71 11 130 -19 150 -87
285 -165 331 -66 38 -84 33 -156 -44z m151 -18 c70 -63 138 -240 127 -327 -8
-58 -60 -155 -113 -212 l-47 -49 -54 59 c-30 33 -70 92 -90 132 -34 69 -35 76
-31 156 3 65 10 96 31 138 30 61 98 139 122 139 8 0 33 -16 55 -36z"/>
<path d="M214 462 c-18 -11 -26 -66 -15 -95 23 -59 80 -13 65 51 -11 45 -27
59 -50 44z"/>
<path d="M679 716 c-81 -61 -121 -136 -138 -258 -19 -138 22 -249 134 -366 82
-83 104 -84 174 -4 29 31 66 86 84 122 29 58 32 74 31 145 -2 98 -38 217 -88
291 -33 49 -107 104 -139 104 -8 0 -34 -15 -58 -34z m122 -59 c59 -59 119
-213 119 -305 0 -67 -38 -150 -100 -216 -66 -69 -69 -69 -135 19 -80 107 -100
159 -99 252 0 70 5 90 32 145 17 35 49 82 70 105 45 48 65 49 113 0z"/>
<path d="M716 444 c-15 -39 1 -114 24 -114 33 0 52 69 30 111 -13 23 -46 25
-54 3z"/>
</g>
</svg>
