<?xml version="1.0" standalone="no"?>
<!DOCTYPE svg PUBLIC "-//W3C//DTD SVG 20010904//EN"
 "http://www.w3.org/TR/2001/REC-SVG-20010904/DTD/svg10.dtd">
<svg version="1.0" xmlns="http://www.w3.org/2000/svg"
 width="760.000000pt" height="590.000000pt" viewBox="0 0 760.000000 590.000000"
 preserveAspectRatio="xMidYMid meet">
<metadata>
Created by potrace 1.16, written by Peter Selinger 2001-2019
</metadata>
<g transform="translate(0.000000,590.000000) scale(0.500000,-0.500000)"
fill="#000000" stroke="none">
<path d="M322 1138 c-9 -3 -21 -12 -28 -21 -7 -9 -24 -23 -37 -30 -10 -5 -35
-30 -47 -47 -3 -6 -12 -14 -20 -20 -21 -16 -48 -49 -60 -73 -3 -5 -8 -15 -11
-21 -3 -6 -8 -16 -9 -21 -2 -6 -7 -14 -10 -18 -4 -4 -9 -13 -12 -19 -3 -6 -7
-15 -10 -19 -3 -6 -4 -11 -4 -22 0 -9 -2 -20 -5 -31 -3 -9 -5 -20 -5 -23 0 -4
-1 -10 -3 -14 -1 -3 -3 -11 -4 -16 -1 -6 -2 -15 -4 -22 -5 -24 -7 -37 -7 -57
0 -13 -1 -25 -3 -31 -6 -18 -4 -93 2 -106 3 -7 5 -13 5 -20 0 -10 7 -44 12
-56 1 -3 2 -7 2 -10 0 -2 3 -9 6 -16 3 -7 6 -13 6 -14 0 -1 2 -5 5 -9 2 -4 9
-16 14 -28 5 -12 12 -24 15 -27 3 -3 7 -9 9 -13 2 -4 5 -9 7 -12 12 -18 20
-32 20 -36 0 -2 4 -8 9 -14 5 -5 10 -14 12 -19 3 -7 6 -11 11 -14 12 -7 22
-17 24 -25 4 -11 15 -28 25 -38 5 -5 13 -13 16 -19 16 -22 44 -45 73 -60 11
-6 16 -11 21 -17 36 -49 110 -18 170 71 5 7 13 17 19 23 6 6 13 14 16 18 2 4
10 13 16 19 25 28 32 36 35 43 2 4 8 12 12 18 5 5 10 14 11 19 1 4 6 15 10 23
4 8 11 27 15 42 5 19 9 29 13 34 8 10 10 16 10 27 0 7 2 13 6 21 18 34 24 76
15 109 -2 7 -3 21 -3 35 0 22 -1 25 -5 34 -3 6 -5 13 -5 18 0 4 -2 13 -4 20
-3 9 -4 19 -4 29 0 12 -1 21 -5 32 -3 9 -6 20 -7 26 -1 5 -5 15 -9 21 -4 6 -7
15 -8 21 -2 14 -8 38 -13 48 -2 5 -5 14 -6 20 -1 6 -4 15 -6 19 -2 5 -6 12 -7
16 -1 4 -7 13 -11 20 -5 6 -13 19 -18 27 -22 40 -44 72 -55 81 -2 2 -6 8 -9
15 -7 16 -14 24 -28 31 -6 4 -16 11 -23 15 -6 5 -13 9 -14 9 -2 0 -15 8 -30
18 -47 31 -73 41 -93 36z m36 -65 c7 -2 15 -4 18 -4 2 -1 11 -8 19 -15 8 -8
23 -20 33 -26 24 -15 35 -26 52 -50 8 -12 18 -26 23 -33 5 -7 10 -16 12 -21 2
-5 9 -18 16 -27 10 -14 13 -20 14 -28 1 -7 4 -15 11 -26 18 -29 32 -69 32 -89
0 -3 2 -9 5 -14 3 -5 7 -14 8 -21 2 -6 6 -16 9 -23 13 -25 16 -40 16 -70 0
-23 1 -29 5 -43 12 -39 7 -97 -12 -131 -5 -9 -10 -21 -11 -27 -3 -13 -10 -35
-12 -38 -2 -4 -18 -42 -19 -48 -1 -3 -5 -10 -9 -16 -4 -5 -9 -14 -11 -20 -2
-5 -6 -13 -10 -19 -4 -5 -10 -14 -15 -20 -4 -6 -16 -19 -27 -29 -45 -42 -64
-61 -71 -70 -39 -54 -54 -64 -72 -45 -6 6 -19 17 -28 24 -31 23 -47 41 -67 71
-10 15 -22 32 -27 38 -4 5 -10 14 -13 19 -3 5 -7 12 -10 15 -2 3 -10 15 -17
25 -8 10 -16 22 -20 25 -3 3 -8 12 -11 20 -8 21 -18 39 -26 50 -16 20 -33 57
-36 80 -1 5 -4 14 -6 18 -8 14 -8 180 1 216 3 13 6 26 6 28 0 4 9 31 14 40 2
4 4 11 4 15 0 14 9 41 18 53 10 15 20 30 38 59 8 12 20 29 28 37 7 8 20 23 28
35 8 12 20 26 26 33 6 7 14 16 18 21 4 5 8 9 8 10 1 0 9 5 18 10 15 9 25 13
34 14 1 0 9 -1 16 -3z"/>
<path d="M341 704 c-21 -6 -40 -50 -40 -92 1 -74 46 -119 78 -78 45 60 17 186
-38 170z"/>
<path d="M1103 1131 c-9 -3 -10 -4 -31 -25 -13 -13 -21 -19 -31 -24 -12 -6
-39 -32 -49 -49 -2 -4 -7 -9 -12 -13 -25 -20 -59 -58 -68 -77 -2 -5 -6 -12 -9
-18 -3 -5 -8 -16 -11 -24 -3 -9 -8 -17 -10 -20 -12 -13 -24 -42 -26 -61 -1
-10 -4 -24 -6 -31 -2 -6 -4 -14 -4 -17 0 -4 -4 -24 -10 -49 -1 -4 -3 -14 -4
-22 -1 -7 -3 -14 -3 -16 -7 -10 -8 -152 -2 -165 4 -7 5 -13 5 -21 0 -6 3 -22
6 -35 4 -12 7 -26 8 -30 2 -10 40 -86 47 -94 3 -4 9 -13 13 -20 4 -7 10 -17
13 -23 4 -5 8 -12 9 -16 1 -4 6 -12 11 -17 5 -5 9 -11 9 -12 0 -7 7 -16 18
-23 12 -7 13 -9 21 -26 6 -14 12 -22 23 -34 9 -9 18 -20 21 -25 12 -16 46 -44
68 -54 9 -5 16 -10 25 -20 15 -17 22 -22 33 -22 9 0 41 7 48 10 7 4 75 73 82
83 4 6 13 17 20 25 8 8 16 17 17 19 3 5 25 31 39 47 5 5 10 12 12 16 2 4 7 11
11 15 5 6 9 13 11 20 2 6 6 16 10 23 6 9 18 44 22 63 1 3 4 11 8 16 6 9 8 13
9 24 1 9 3 17 6 22 17 29 24 80 15 110 -2 6 -3 18 -3 35 0 21 -1 26 -4 32 -2
4 -4 12 -5 19 0 7 -3 17 -5 23 -3 8 -4 17 -4 27 0 10 -2 21 -5 32 -2 9 -5 20
-6 24 -1 4 -5 14 -9 22 -4 8 -8 18 -9 23 -2 15 -9 40 -12 47 -2 3 -5 12 -7 20
-4 17 -15 42 -21 50 -5 6 -22 35 -35 58 -7 13 -33 48 -40 54 -3 2 -7 10 -10
17 -8 16 -13 22 -29 31 -7 4 -15 10 -19 13 -4 3 -12 8 -17 10 -6 3 -19 11 -31
19 -45 31 -73 41 -93 34z m47 -67 c12 -4 16 -6 28 -17 7 -7 22 -18 33 -26 27
-17 36 -27 51 -48 7 -10 16 -24 21 -31 5 -7 12 -19 16 -27 3 -8 11 -20 16 -27
8 -10 10 -15 11 -24 1 -7 4 -14 9 -22 17 -27 35 -74 35 -93 0 -3 2 -10 5 -15
3 -5 7 -15 9 -23 2 -7 6 -18 9 -24 12 -23 15 -36 15 -65 0 -25 1 -29 6 -46 6
-21 9 -71 4 -83 -1 -3 -3 -11 -4 -18 -2 -8 -5 -17 -11 -27 -10 -18 -12 -22
-16 -40 -1 -8 -6 -22 -11 -32 -4 -10 -10 -25 -14 -35 -3 -9 -8 -20 -12 -25 -3
-4 -8 -13 -11 -20 -9 -22 -49 -70 -71 -86 -12 -8 -42 -39 -52 -52 -40 -55 -54
-63 -73 -43 -6 6 -19 17 -27 23 -29 21 -45 39 -67 72 -11 17 -23 33 -25 35 -2
2 -8 10 -13 18 -4 8 -11 18 -14 22 -4 4 -10 13 -14 20 -4 7 -13 17 -18 23 -7
8 -12 15 -14 21 -4 14 -18 42 -27 54 -16 21 -34 62 -34 78 0 3 -3 11 -6 18 -6
12 -6 12 -6 100 0 92 0 90 9 122 2 6 3 13 3 15 0 7 8 33 14 43 2 5 4 12 4 16
0 5 2 14 4 20 2 7 5 16 6 20 1 4 6 13 11 20 5 7 11 16 14 21 16 27 41 63 52
73 6 7 14 17 18 22 3 5 10 14 15 21 5 7 14 19 22 27 7 8 16 17 19 22 3 4 9 9
12 10 4 2 11 6 15 8 18 12 28 13 54 5z"/>
<path d="M1118 695 c-26 -13 -43 -78 -32 -121 20 -78 69 -83 93 -9 22 67 -18
151 -61 130z"/>
</g>
</svg>
