<?xml version="1.0" standalone="no"?>
<!DOCTYPE svg PUBLIC "-//W3C//DTD SVG 20010904//EN"
 "http://www.w3.org/TR/2001/REC-SVG-20010904/DTD/svg10.dtd">
<svg version="1.0" xmlns="http://www.w3.org/2000/svg"
 width="190.000000pt" height="148.000000pt" viewBox="0 0 190.000000 148.000000"
 preserveAspectRatio="xMidYMid meet">
<metadata>
Created by potrace 1.16, written by Peter Selinger 2001-2019
</metadata>
<g transform="translate(0.000000,148.000000) scale(0.100000,-0.100000)"
fill="#000000" stroke="none">
<path d="M360 1393 c-131 -108 -258 -283 -273 -379 -3 -21 -13 -70 -22 -109
-8 -38 -15 -108 -15 -155 0 -142 31 -237 121 -373 22 -32 39 -61 39 -64 0 -3
9 -15 21 -27 11 -12 38 -45 60 -74 22 -28 59 -64 82 -79 23 -16 48 -36 55 -45
9 -12 27 -18 52 -18 34 0 44 7 103 70 113 122 173 203 197 265 24 64 26 68 60
157 21 53 21 63 10 144 -6 48 -15 95 -21 105 -5 10 -9 31 -9 48 0 16 -16 77
-35 136 -33 98 -76 182 -144 278 -33 47 -183 147 -220 147 -15 0 -42 -12 -61
-27z m103 -55 c29 -15 97 -68 120 -93 38 -41 147 -247 147 -278 0 -6 11 -43
25 -81 19 -51 27 -98 31 -180 5 -100 4 -115 -15 -151 -12 -21 -21 -45 -21 -53
0 -8 -16 -48 -36 -90 -27 -57 -55 -95 -108 -148 -39 -40 -86 -88 -105 -108
l-34 -36 -40 40 c-23 22 -44 40 -48 40 -8 0 -168 226 -177 250 -3 8 -16 31
-29 50 -12 19 -32 64 -43 99 -19 56 -21 78 -15 185 3 67 12 141 19 166 8 25
19 64 25 86 6 23 18 47 26 54 8 7 15 17 15 23 0 6 17 31 38 56 20 25 53 67 72
92 58 78 107 102 153 77z"/>
<path d="M408 863 c-23 -27 -41 -91 -33 -121 25 -102 69 -122 104 -47 24 51
25 69 10 116 -14 39 -37 69 -54 69 -7 0 -19 -8 -27 -17z"/>
<path d="M1333 1379 c-87 -75 -178 -175 -203 -225 -14 -27 -32 -60 -41 -74 -9
-14 -19 -41 -22 -60 -3 -19 -11 -57 -17 -85 -18 -80 -23 -242 -10 -320 7 -38
24 -93 39 -122 43 -86 113 -197 133 -211 10 -7 18 -18 18 -23 0 -17 98 -124
127 -140 14 -8 38 -26 53 -41 25 -25 30 -26 64 -16 42 13 90 62 208 210 51 63
70 99 101 188 14 41 33 92 42 114 13 31 14 48 7 85 -6 25 -11 62 -11 81 -1 19
-5 46 -10 60 -5 14 -12 44 -14 67 -3 23 -12 56 -21 74 -9 18 -16 39 -16 48 -1
46 -74 192 -123 246 -10 11 -25 32 -33 48 -8 15 -39 42 -70 60 -30 17 -72 42
-92 54 -20 13 -42 23 -49 23 -6 0 -33 -18 -60 -41z m176 -96 c31 -25 67 -61
80 -81 40 -59 121 -226 121 -250 0 -12 4 -30 10 -40 23 -42 40 -118 46 -215 6
-93 5 -109 -13 -143 -11 -22 -28 -64 -38 -94 -10 -30 -30 -73 -43 -95 -26 -42
-212 -245 -224 -245 -4 0 -18 10 -31 23 -14 12 -40 35 -60 51 -19 16 -40 40
-46 53 -6 14 -25 42 -41 64 -17 21 -43 57 -60 78 -16 22 -30 45 -30 51 0 6
-11 27 -25 48 -13 20 -34 66 -46 102 -19 57 -21 80 -16 190 7 154 33 246 98
345 56 85 141 185 172 202 35 21 85 6 146 -44z"/>
<path d="M1370 830 c-24 -48 -25 -81 -4 -137 29 -75 76 -66 101 19 9 33 10 52
1 83 -24 84 -66 99 -98 35z"/>
</g>
</svg>
