<?xml version="1.0" standalone="no"?>
<!DOCTYPE svg PUBLIC "-//W3C//DTD SVG 20010904//EN"
 "http://www.w3.org/TR/2001/REC-SVG-20010904/DTD/svg10.dtd">
<svg version="1.0" xmlns="http://www.w3.org/2000/svg"
 width="386.000000pt" height="590.000000pt" viewBox="0 0 386.000000 590.000000"
 preserveAspectRatio="xMidYMid meet">
<metadata>
Created by potrace 1.16, written by Peter Selinger 2001-2019
</metadata>
<g transform="translate(0.000000,590.000000) scale(0.500000,-0.500000)"
fill="#000000" stroke="none">
<path d="M83 1123 c-21 -22 -21 -32 2 -47 9 -6 18 -14 23 -21 4 -5 11 -14 16
-18 9 -9 27 -34 29 -41 1 -3 7 -10 13 -17 13 -14 20 -23 32 -40 4 -7 12 -16
16 -22 10 -12 15 -24 17 -33 1 -5 5 -13 11 -21 16 -22 20 -37 22 -86 1 -27 2
-40 5 -46 2 -6 3 -15 3 -34 0 -26 0 -26 7 -41 8 -15 8 -18 3 -36 -3 -7 -2 -9
1 -18 4 -12 4 -23 0 -33 -3 -6 -4 -16 -4 -42 -1 -22 -2 -37 -4 -42 -2 -4 -3
-19 -4 -32 0 -14 -2 -28 -4 -34 -2 -6 -3 -17 -3 -27 0 -17 0 -19 -9 -36 -5 -9
-11 -25 -14 -34 -6 -21 -10 -31 -16 -39 -5 -7 -22 -41 -24 -49 -1 -3 -5 -11
-10 -19 -5 -8 -9 -17 -10 -20 -1 -3 -7 -11 -13 -18 -7 -7 -14 -17 -17 -23 -5
-9 -11 -16 -22 -24 -36 -24 -6 -74 31 -51 12 7 33 31 48 54 5 9 15 24 22 35 7
10 17 28 23 40 5 11 13 26 17 32 11 16 12 18 15 34 3 15 12 42 22 65 4 11 5
16 5 34 0 13 1 27 3 33 2 7 3 21 3 40 0 20 1 30 3 35 2 5 3 14 3 29 0 17 1 25
4 33 2 7 4 15 4 19 0 4 1 11 3 16 5 12 5 44 0 56 -2 7 -3 16 -3 45 0 37 0 37
-6 44 -9 10 -12 35 -9 68 2 22 -1 43 -11 63 -4 9 -8 18 -8 19 0 6 -20 46 -33
64 -7 11 -14 24 -17 28 -7 14 -25 42 -31 47 -3 3 -10 11 -15 19 -5 8 -12 16
-15 19 -3 3 -9 10 -14 17 -35 52 -72 75 -90 56z"/>
<path d="M459 1120 c-9 -6 -21 -25 -21 -33 0 -7 5 -13 22 -24 7 -3 14 -11 18
-15 3 -5 10 -13 15 -18 10 -9 31 -39 31 -44 0 -1 5 -8 12 -15 6 -7 15 -18 20
-24 4 -7 12 -17 17 -23 20 -26 27 -37 29 -48 1 -7 4 -14 11 -22 17 -22 21 -36
23 -86 1 -23 3 -41 5 -48 2 -7 3 -19 3 -34 0 -22 0 -23 7 -39 7 -15 8 -16 5
-25 -4 -15 -5 -21 -1 -31 4 -13 4 -18 -1 -32 -3 -10 -4 -17 -4 -42 0 -23 -1
-33 -3 -39 -2 -6 -4 -18 -4 -34 -1 -14 -3 -29 -4 -34 -2 -4 -3 -16 -3 -27 0
-18 0 -19 -9 -36 -5 -9 -11 -24 -14 -33 -6 -21 -9 -30 -16 -40 -6 -9 -21 -38
-25 -50 -2 -3 -6 -12 -10 -18 -4 -6 -9 -15 -10 -19 -1 -3 -7 -12 -13 -19 -6
-6 -14 -18 -19 -26 -4 -8 -9 -14 -10 -14 -9 0 -30 -31 -27 -41 3 -14 26 -28
38 -23 23 9 72 73 103 136 7 14 15 28 17 31 7 10 12 21 15 33 2 12 13 47 21
65 4 10 5 15 5 34 0 14 1 26 3 32 2 7 3 19 3 38 0 23 1 31 4 40 3 9 4 17 4 33
0 12 1 24 2 27 1 3 4 13 5 21 2 8 4 21 5 28 3 14 2 27 -4 47 -1 4 -2 24 -2 43
0 33 0 36 -4 39 -11 10 -14 31 -11 72 2 23 -1 44 -9 59 -3 6 -7 16 -9 21 -5
17 -18 43 -33 66 -8 13 -19 31 -25 40 -5 9 -14 22 -19 29 -6 6 -13 15 -17 20
-3 5 -11 14 -16 21 -6 7 -13 16 -16 21 -26 40 -68 71 -84 60z"/>
<path d="M467 791 c-31 -10 -80 -86 -87 -136 -1 -7 -4 -20 -5 -28 -3 -17 -4
-88 -1 -102 1 -4 4 -17 6 -28 10 -47 52 -116 83 -138 30 -21 63 -5 94 43 16
24 37 79 37 95 0 3 1 11 3 17 11 35 4 99 -15 161 -25 75 -77 128 -115 116z
m39 -46 c35 -34 50 -64 65 -132 13 -56 -6 -161 -35 -192 -7 -8 -16 -17 -19
-21 -8 -9 -20 -16 -28 -16 -24 0 -71 74 -80 125 -2 9 -4 23 -6 31 -4 18 -3 62
2 80 2 6 3 14 3 17 0 22 20 70 37 89 33 36 41 38 61 19z"/>
</g>
</svg>
