<?xml version="1.0" standalone="no"?>
<!DOCTYPE svg PUBLIC "-//W3C//DTD SVG 20010904//EN"
 "http://www.w3.org/TR/2001/REC-SVG-20010904/DTD/svg10.dtd">
<svg version="1.0" xmlns="http://www.w3.org/2000/svg"
 width="96.000000pt" height="148.000000pt" viewBox="0 0 96.000000 148.000000"
 preserveAspectRatio="xMidYMid meet">
<metadata>
Created by potrace 1.16, written by Peter Selinger 2001-2019
</metadata>
<g transform="translate(0.000000,148.000000) scale(0.100000,-0.100000)"
fill="#000000" stroke="none">
<path d="M95 1396 c-16 -24 -15 -26 32 -73 64 -64 137 -167 173 -245 32 -69
43 -163 43 -358 0 -197 -9 -244 -66 -370 -50 -112 -61 -130 -104 -177 -33 -38
-40 -50 -32 -65 26 -49 89 8 167 152 47 89 71 176 88 330 19 166 19 268 -1
325 -7 22 -11 52 -8 67 14 71 -91 258 -221 396 -22 23 -44 42 -48 42 -4 0 -15
-11 -23 -24z"/>
<path d="M551 1382 c-8 -16 -1 -28 45 -75 29 -32 54 -64 54 -72 0 -7 6 -18 13
-22 48 -31 127 -180 127 -242 0 -25 5 -75 11 -111 19 -122 5 -366 -27 -437 -8
-17 -14 -35 -14 -39 0 -23 -80 -166 -117 -211 -24 -28 -43 -58 -43 -67 0 -18
29 -35 48 -29 12 5 112 145 112 159 0 3 8 18 19 32 63 90 121 548 79 626 -6
11 -10 43 -9 73 1 58 -18 116 -58 178 -14 22 -32 51 -39 65 -7 14 -43 61 -80
105 -70 83 -103 101 -121 67z"/>
<path d="M536 950 c-58 -64 -69 -100 -70 -230 -1 -129 12 -169 80 -249 43 -50
69 -52 111 -8 61 64 83 126 83 237 0 118 -23 180 -94 258 -40 43 -66 41 -110
-8z m100 -33 c40 -45 54 -72 54 -101 0 -14 5 -28 10 -31 14 -9 12 -130 -3
-187 -15 -57 -62 -118 -89 -118 -27 0 -55 33 -84 98 -48 106 -25 289 43 348
15 13 31 24 34 24 3 0 19 -15 35 -33z"/>
</g>
</svg>
