<?xml version="1.0" standalone="no"?>
<!DOCTYPE svg PUBLIC "-//W3C//DTD SVG 20010904//EN"
 "http://www.w3.org/TR/2001/REC-SVG-20010904/DTD/svg10.dtd">
<svg version="1.0" xmlns="http://www.w3.org/2000/svg"
 width="65.000000pt" height="100.000000pt" viewBox="0 0 65.000000 100.000000"
 preserveAspectRatio="xMidYMid meet">
<metadata>
Created by potrace 1.16, written by Peter Selinger 2001-2019
</metadata>
<g transform="translate(0.000000,100.000000) scale(0.100000,-0.100000)"
fill="#000000" stroke="none">
<path d="M61 946 c-14 -17 -16 -14 67 -116 68 -84 83 -122 95 -238 20 -190
-12 -334 -99 -453 -39 -53 -39 -83 -2 -77 29 4 92 97 119 175 29 82 44 277 31
392 -13 104 -42 170 -121 268 -50 62 -70 73 -90 49z"/>
<path d="M370 935 c-10 -12 -4 -24 36 -69 89 -100 114 -152 130 -270 25 -195
-11 -347 -114 -483 -27 -36 -24 -63 7 -63 27 0 98 105 128 187 27 76 48 296
33 358 -5 22 -10 55 -10 74 0 40 -43 123 -111 214 -51 68 -75 81 -99 52z"/>
<path d="M377 669 c-33 -20 -59 -89 -64 -174 -5 -74 -3 -84 24 -135 30 -56 64
-80 97 -67 9 4 29 32 43 63 22 49 25 66 21 138 -5 87 -31 156 -67 176 -24 12
-31 12 -54 -1z m55 -66 c39 -45 49 -145 22 -212 -15 -39 -37 -57 -55 -45 -14
9 -45 75 -53 113 -11 57 26 161 58 161 7 0 20 -8 28 -17z"/>
</g>
</svg>
