<?xml version="1.0" standalone="no"?>
<!DOCTYPE svg PUBLIC "-//W3C//DTD SVG 20010904//EN"
 "http://www.w3.org/TR/2001/REC-SVG-20010904/DTD/svg10.dtd">
<svg version="1.0" xmlns="http://www.w3.org/2000/svg"
 width="396.000000pt" height="590.000000pt" viewBox="0 0 396.000000 590.000000"
 preserveAspectRatio="xMidYMid meet">
<metadata>
Created by potrace 1.16, written by Peter Selinger 2001-2019
</metadata>
<g transform="translate(0.000000,590.000000) scale(0.500000,-0.500000)"
fill="#000000" stroke="none">
<path d="M53 1138 c-13 -5 -15 -16 -7 -31 3 -5 6 -14 7 -19 1 -8 4 -11 17 -25
16 -17 20 -22 20 -29 0 -7 5 -15 14 -21 9 -7 20 -24 23 -35 0 -3 6 -12 13 -19
7 -8 15 -20 19 -27 5 -9 11 -17 20 -25 13 -12 18 -21 20 -42 2 -13 5 -18 13
-20 13 -3 16 -24 6 -47 -2 -6 -4 -13 -4 -17 0 -4 -2 -12 -4 -18 -2 -7 -4 -15
-4 -18 0 -4 -2 -12 -4 -18 -3 -10 -4 -17 -4 -40 0 -23 -1 -31 -4 -41 -6 -19
-6 -93 0 -112 3 -10 4 -18 4 -38 0 -26 0 -26 8 -34 7 -9 7 -9 8 -34 1 -14 2
-27 3 -29 2 -3 4 -12 6 -21 4 -19 5 -16 -13 -29 -9 -6 -10 -8 -11 -16 -1 -6
-4 -14 -7 -19 -3 -5 -7 -12 -9 -16 -2 -4 -8 -11 -13 -17 -5 -5 -12 -14 -16
-19 -3 -6 -7 -10 -8 -10 -4 0 -18 -15 -19 -21 -2 -8 -10 -21 -19 -33 -4 -5
-10 -13 -13 -17 -3 -4 -7 -12 -10 -16 -3 -4 -10 -13 -15 -18 -5 -6 -13 -15
-17 -21 -4 -6 -9 -13 -10 -16 -16 -22 5 -61 35 -63 24 -2 48 19 48 43 0 1 4 5
8 10 4 4 8 9 8 12 0 2 2 7 5 11 7 10 15 27 15 31 0 3 11 21 22 37 2 3 8 12 12
19 17 26 19 29 32 39 9 6 16 13 20 19 7 11 11 13 28 13 15 0 22 -5 26 -18 2
-6 7 -13 12 -17 5 -6 8 -10 9 -16 2 -13 5 -17 21 -26 8 -5 21 -14 28 -21 22
-21 40 -19 57 5 5 8 12 19 15 23 3 4 8 14 12 22 4 7 9 15 13 18 3 3 9 7 12 10
4 3 5 6 7 18 7 56 20 57 53 2 8 -13 17 -27 20 -32 4 -4 7 -11 8 -14 3 -12 11
-24 21 -32 7 -5 10 -9 13 -16 6 -17 16 -35 27 -49 4 -4 6 -8 6 -14 0 -11 3
-17 11 -25 4 -3 8 -10 10 -17 9 -27 20 -35 52 -35 34 0 46 21 31 56 -2 4 -4
12 -5 16 -1 5 -3 10 -7 13 -3 3 -10 9 -16 15 -6 6 -11 12 -13 19 -2 6 -7 14
-16 23 -16 17 -18 20 -20 31 -1 7 -3 11 -7 14 -3 2 -7 8 -9 12 -2 4 -8 11 -13
14 -6 5 -12 13 -18 23 -5 9 -12 20 -15 24 -3 4 -5 9 -5 11 0 2 -3 8 -7 14 -4
6 -9 15 -12 20 -3 5 -8 12 -12 15 -19 15 -19 16 -19 30 0 7 1 16 3 20 2 5 4
13 5 18 3 14 6 27 9 37 2 5 4 13 5 18 1 5 3 12 5 15 1 3 3 10 4 16 1 5 3 12 4
15 5 10 4 118 -1 133 -3 9 -4 16 -4 49 0 29 -1 40 -3 47 -3 8 -3 10 0 19 2 6
3 14 3 18 0 13 8 32 16 40 5 5 11 14 19 31 12 25 11 25 46 53 3 4 6 8 7 15 1
8 3 11 10 18 8 7 10 9 11 19 1 8 3 13 7 17 3 4 6 10 7 13 2 12 5 17 12 21 22
15 40 73 31 101 -5 12 -21 14 -48 4 -17 -6 -19 -8 -21 -16 -6 -23 -8 -29 -16
-41 -5 -8 -12 -18 -15 -22 -3 -4 -6 -9 -6 -12 0 -6 -9 -19 -20 -29 -6 -6 -10
-12 -11 -16 -1 -4 -5 -12 -9 -18 -4 -7 -13 -21 -20 -32 -7 -11 -16 -25 -19
-30 -4 -5 -9 -12 -11 -16 -7 -14 -20 -20 -33 -15 -5 2 -16 21 -19 30 -2 7 -6
12 -18 23 -16 16 -24 31 -24 47 0 4 -2 7 -6 11 -4 3 -13 11 -20 18 -17 16 -36
19 -56 9 -6 -3 -13 -5 -15 -5 -6 0 -23 -20 -36 -42 -5 -9 -14 -21 -18 -26 -4
-6 -11 -15 -15 -19 -10 -14 -23 -10 -33 10 -2 3 -8 11 -13 17 -6 6 -12 13 -13
17 -2 3 -7 10 -11 14 -4 5 -9 12 -11 15 -2 4 -8 12 -14 18 -5 6 -12 14 -15 19
-2 4 -8 12 -11 16 -4 4 -8 11 -9 15 -1 4 -5 10 -8 13 -7 8 -13 19 -15 26 -4
18 -56 35 -80 25z m360 -215 c3 -4 12 -14 19 -22 7 -8 13 -17 15 -22 1 -4 8
-16 15 -27 15 -23 20 -31 21 -42 1 -5 4 -13 6 -17 7 -13 12 -31 14 -49 0 -9 2
-18 3 -21 3 -5 7 -36 6 -56 0 -12 1 -14 7 -22 9 -14 9 -32 -1 -46 -8 -11 -8
-11 -7 -41 1 -37 -1 -50 -8 -61 -5 -7 -6 -11 -7 -25 -1 -15 -2 -19 -7 -25 -3
-5 -6 -12 -6 -18 -1 -5 -4 -12 -6 -16 -8 -11 -12 -20 -13 -35 -1 -12 -2 -16
-7 -22 -4 -6 -6 -12 -8 -26 -4 -21 -5 -24 -13 -30 -4 -3 -9 -7 -12 -9 -4 -4
-9 -6 -21 -7 -10 -1 -19 -3 -21 -5 -14 -9 -39 11 -49 39 -2 5 -6 12 -9 15 -7
8 -9 12 -11 24 -1 5 -4 12 -7 16 -8 10 -11 21 -11 40 0 22 -4 38 -10 48 -6 7
-6 10 -7 29 0 26 -1 28 -8 37 -6 8 -6 8 -6 59 0 46 0 53 -4 64 -4 14 -3 19 7
28 11 10 15 30 8 45 -7 17 -3 34 11 56 4 6 5 10 6 28 1 21 1 21 9 28 4 5 7 10
7 13 0 4 2 7 8 11 7 5 9 8 13 18 2 7 7 16 10 20 3 4 7 11 9 15 9 21 51 28 65
11z"/>
</g>
</svg>
