<?xml version="1.0" standalone="no"?>
<!DOCTYPE svg PUBLIC "-//W3C//DTD SVG 20010904//EN"
 "http://www.w3.org/TR/2001/REC-SVG-20010904/DTD/svg10.dtd">
<svg version="1.0" xmlns="http://www.w3.org/2000/svg"
 width="100.000000pt" height="148.000000pt" viewBox="0 0 100.000000 148.000000"
 preserveAspectRatio="xMidYMid meet">
<metadata>
Created by potrace 1.16, written by Peter Selinger 2001-2019
</metadata>
<g transform="translate(0.000000,148.000000) scale(0.100000,-0.100000)"
fill="#000000" stroke="none">
<path d="M50 1410 c0 -15 23 -63 39 -83 8 -9 19 -26 25 -36 28 -48 110 -161
117 -161 4 0 11 -15 14 -34 4 -19 15 -38 24 -42 17 -9 17 -13 -1 -84 -23 -88
-31 -367 -12 -391 6 -8 14 -34 17 -59 2 -25 8 -52 12 -62 4 -11 0 -18 -14 -23
-12 -3 -21 -13 -21 -22 0 -17 -29 -58 -74 -106 -14 -15 -26 -33 -26 -38 0 -6
-22 -38 -50 -72 -55 -67 -63 -102 -30 -132 36 -32 61 -13 108 83 24 48 64 113
90 145 39 47 52 56 76 54 22 -1 33 -11 50 -42 11 -22 25 -42 29 -43 4 -2 21
-15 36 -28 16 -13 36 -24 45 -24 9 0 33 25 54 56 52 79 50 76 57 106 3 16 12
28 19 28 14 0 76 -82 76 -100 0 -5 11 -22 25 -39 14 -16 44 -65 66 -107 21
-43 44 -83 50 -91 15 -18 64 -17 79 2 17 20 -5 92 -32 106 -10 5 -18 16 -18
23 0 7 -9 21 -20 31 -11 10 -22 27 -26 39 -3 11 -19 35 -34 51 -15 17 -40 53
-55 80 -14 28 -36 57 -48 67 l-21 16 28 111 c27 105 28 115 20 238 -5 70 -7
144 -6 163 4 37 42 106 82 149 25 26 44 54 56 81 17 42 30 66 42 78 23 25 43
73 40 95 -2 16 -11 23 -33 25 -39 3 -44 -1 -83 -78 -33 -64 -102 -173 -139
-219 -24 -30 -50 -23 -64 19 -6 16 -15 30 -20 30 -5 0 -19 21 -32 47 -44 94
-109 91 -172 -7 -21 -33 -44 -60 -51 -60 -14 0 -184 226 -184 245 0 7 -7 16
-16 19 -25 10 -94 7 -94 -4z m506 -305 c23 -33 49 -82 58 -110 16 -53 37 -151
34 -163 0 -4 2 -15 7 -25 4 -9 4 -30 0 -45 -3 -15 -7 -49 -9 -77 -1 -27 -8
-60 -14 -71 -6 -12 -9 -24 -6 -27 3 -2 -3 -24 -14 -48 -10 -24 -27 -69 -37
-99 -22 -66 -40 -90 -71 -90 -13 0 -26 -5 -29 -11 -9 -14 -45 20 -66 63 -36
74 -40 85 -43 119 -2 20 -9 45 -15 56 -5 11 -15 74 -20 139 -8 96 -7 122 4
134 9 10 12 30 8 61 -3 29 -1 49 6 53 6 4 11 22 11 40 0 21 9 42 23 58 13 14
29 39 37 57 30 72 80 67 136 -14z"/>
</g>
</svg>
