<?xml version="1.0" standalone="no"?>
<!DOCTYPE svg PUBLIC "-//W3C//DTD SVG 20010904//EN"
 "http://www.w3.org/TR/2001/REC-SVG-20010904/DTD/svg10.dtd">
<svg version="1.0" xmlns="http://www.w3.org/2000/svg"
 width="68.000000pt" height="100.000000pt" viewBox="0 0 68.000000 100.000000"
 preserveAspectRatio="xMidYMid meet">
<metadata>
Created by potrace 1.16, written by Peter Selinger 2001-2019
</metadata>
<g transform="translate(0.000000,100.000000) scale(0.100000,-0.100000)"
fill="#000000" stroke="none">
<path d="M43 963 c-22 -8 -15 -29 31 -91 24 -33 61 -84 81 -115 l36 -54 -17
-84 c-17 -87 -15 -178 8 -263 13 -50 17 -42 -94 -190 -60 -79 -70 -109 -41
-124 29 -15 41 -5 84 70 23 38 54 84 69 101 l29 32 48 -53 c27 -28 54 -52 60
-52 18 0 42 28 69 81 13 28 29 47 34 44 5 -3 37 -53 72 -111 63 -107 84 -129
112 -118 31 12 15 50 -71 173 l-86 123 18 76 c14 59 16 95 10 173 -7 106 -5
115 50 184 71 90 111 184 85 200 -23 14 -48 -11 -100 -101 -30 -53 -61 -101
-69 -107 -15 -12 -30 2 -74 73 -14 22 -32 36 -48 38 -25 3 -36 -5 -84 -63
l-25 -30 -20 25 c-11 14 -40 55 -64 91 -49 74 -68 87 -103 72z m323 -205 c52
-63 68 -114 68 -223 1 -84 -4 -113 -28 -185 -34 -102 -40 -110 -77 -110 -23 0
-32 7 -49 40 -37 73 -53 165 -46 276 3 56 10 113 15 127 17 45 61 107 75 107
8 0 27 -15 42 -32z"/>
</g>
</svg>
