<?xml version="1.0" standalone="no"?>
<!DOCTYPE svg PUBLIC "-//W3C//DTD SVG 20010904//EN"
 "http://www.w3.org/TR/2001/REC-SVG-20010904/DTD/svg10.dtd">
<svg version="1.0" xmlns="http://www.w3.org/2000/svg"
 width="82.000000pt" height="148.000000pt" viewBox="0 0 82.000000 148.000000"
 preserveAspectRatio="xMidYMid meet">
<metadata>
Created by potrace 1.16, written by Peter Selinger 2001-2019
</metadata>
<g transform="translate(0.000000,148.000000) scale(0.100000,-0.100000)"
fill="#000000" stroke="none">
<path d="M448 1360 c-41 -46 -61 -60 -82 -60 -58 0 -174 -112 -241 -234 -54
-98 -68 -170 -69 -366 0 -130 3 -167 21 -228 12 -40 26 -78 31 -85 6 -7 25
-40 44 -74 67 -124 194 -243 260 -243 58 0 153 76 219 175 33 48 42 67 87 180
29 70 47 274 33 352 -26 135 -75 266 -122 325 -16 20 -29 41 -29 46 0 5 22 26
49 48 51 40 65 59 55 75 -12 21 -46 6 -85 -36 -45 -49 -62 -55 -78 -27 -8 14
-1 26 37 65 38 38 45 51 36 64 -18 29 -29 25 -68 -27 -41 -53 -51 -58 -81 -36
-19 14 -18 16 29 62 38 36 47 51 39 62 -17 28 -29 23 -85 -38z m25 -166 c101
-90 148 -168 196 -316 28 -87 31 -298 6 -398 -9 -36 -19 -76 -22 -90 -17 -71
-131 -205 -205 -240 l-46 -21 -51 36 c-56 41 -127 130 -162 205 -6 14 -20 41
-30 61 -10 19 -24 62 -30 95 -21 101 -13 357 11 389 4 6 11 26 14 45 15 76 58
141 146 216 47 41 91 74 98 74 8 0 42 -25 75 -56z"/>
</g>
</svg>
