<?xml version="1.0" standalone="no"?>
<!DOCTYPE svg PUBLIC "-//W3C//DTD SVG 20010904//EN"
 "http://www.w3.org/TR/2001/REC-SVG-20010904/DTD/svg10.dtd">
<svg version="1.0" xmlns="http://www.w3.org/2000/svg"
 width="330.000000pt" height="590.000000pt" viewBox="0 0 330.000000 590.000000"
 preserveAspectRatio="xMidYMid meet">
<metadata>
Created by potrace 1.16, written by Peter Selinger 2001-2019
</metadata>
<g transform="translate(0.000000,590.000000) scale(0.500000,-0.500000)"
fill="#000000" stroke="none">
<path d="M404 1130 c-3 -2 -21 -20 -40 -40 -42 -46 -46 -48 -77 -48 -67 0
-216 -199 -229 -305 -1 -11 -3 -24 -3 -29 -1 -5 -3 -12 -4 -16 -12 -26 -12
-242 -1 -263 2 -3 7 -19 11 -36 16 -67 17 -68 30 -86 4 -5 12 -18 16 -29 14
-28 17 -34 23 -43 4 -4 9 -12 12 -17 7 -13 25 -37 44 -57 9 -9 19 -22 24 -27
16 -22 80 -71 101 -78 13 -4 54 3 69 13 4 2 13 7 20 10 9 5 18 11 30 23 10 9
25 24 35 33 11 10 23 23 33 37 8 12 18 27 22 32 14 20 46 89 55 118 2 8 8 22
12 30 6 13 8 17 9 35 2 27 5 41 8 47 3 5 4 29 7 118 1 39 0 57 -6 91 -2 9 -4
21 -5 27 -2 14 -12 47 -20 67 -3 8 -8 23 -11 34 -3 11 -8 24 -11 30 -3 5 -7
14 -8 19 -4 17 -20 43 -44 74 -20 26 -23 21 33 72 40 37 41 38 26 53 -17 18
-23 16 -56 -18 -48 -49 -50 -50 -63 -37 -14 14 -14 13 36 65 27 28 28 32 17
45 -16 17 -24 16 -46 -11 -53 -61 -50 -60 -76 -37 -6 5 -2 11 29 43 36 36 37
39 27 52 -9 12 -20 16 -29 9z m-58 -144 c9 -7 26 -21 36 -31 10 -10 25 -22 31
-27 7 -5 16 -14 19 -19 4 -6 12 -16 18 -24 31 -39 72 -111 72 -128 0 -10 2
-16 11 -43 4 -11 7 -21 7 -23 0 -1 3 -8 6 -15 3 -7 6 -16 6 -20 0 -4 2 -19 5
-33 6 -33 7 -108 1 -122 -2 -6 -3 -14 -3 -31 0 -40 -5 -70 -14 -93 -1 -4 -3
-11 -3 -15 0 -4 -3 -16 -7 -27 -4 -11 -8 -25 -9 -31 -1 -6 -4 -13 -8 -18 -3
-4 -7 -12 -9 -18 -7 -20 -21 -40 -36 -52 -17 -13 -38 -35 -43 -43 -2 -5 -8
-12 -12 -15 -5 -4 -12 -10 -16 -13 -11 -10 -26 -18 -36 -19 -7 -1 -13 -4 -17
-8 -11 -10 -23 -9 -34 3 -4 5 -13 11 -19 14 -20 9 -34 20 -44 33 -6 7 -15 18
-20 23 -5 6 -11 14 -13 17 -1 4 -9 14 -16 22 -10 10 -15 18 -18 25 -1 5 -6 13
-11 18 -4 5 -9 13 -11 18 -7 23 -13 37 -18 43 -3 3 -6 10 -7 15 -1 4 -5 11 -8
15 -7 10 -10 16 -10 26 0 4 -2 13 -4 20 -3 8 -4 18 -4 30 0 16 -1 18 -5 25
-14 20 -14 175 0 194 5 7 5 9 5 29 0 25 2 34 9 39 6 3 9 14 9 28 0 5 1 12 3
15 2 3 4 11 5 17 2 13 9 29 21 47 4 6 11 19 16 29 9 18 42 53 57 61 6 3 16 13
36 33 6 6 15 13 20 16 5 3 13 8 18 13 18 15 23 15 44 0z"/>
</g>
</svg>
