<?xml version="1.0" standalone="no"?>
<!DOCTYPE svg PUBLIC "-//W3C//DTD SVG 20010904//EN"
 "http://www.w3.org/TR/2001/REC-SVG-20010904/DTD/svg10.dtd">
<svg version="1.0" xmlns="http://www.w3.org/2000/svg"
 width="55.000000pt" height="100.000000pt" viewBox="0 0 55.000000 100.000000"
 preserveAspectRatio="xMidYMid meet">
<metadata>
Created by potrace 1.16, written by Peter Selinger 2001-2019
</metadata>
<g transform="translate(0.000000,100.000000) scale(0.100000,-0.100000)"
fill="#000000" stroke="none">
<path d="M301 931 c-11 -16 -45 -41 -76 -55 -148 -73 -227 -293 -185 -516 20
-105 109 -248 185 -299 32 -22 39 -23 74 -13 49 15 129 99 163 172 71 152 64
339 -20 509 l-27 53 34 28 c22 19 32 34 28 44 -9 23 -30 20 -57 -9 -25 -26
-50 -33 -50 -13 0 7 12 25 27 40 22 23 24 31 14 41 -10 10 -18 5 -42 -20 -16
-18 -33 -33 -39 -33 -17 0 -11 26 10 45 11 10 20 26 20 37 0 28 -36 22 -59
-11z m49 -163 c78 -96 115 -216 107 -340 -9 -134 -31 -192 -102 -265 -34 -35
-69 -63 -80 -63 -29 0 -107 90 -144 165 -44 89 -59 190 -42 293 15 101 49 167
116 231 l55 52 30 -18 c17 -9 44 -34 60 -55z"/>
</g>
</svg>
