<?xml version="1.0" standalone="no"?>
<!DOCTYPE svg PUBLIC "-//W3C//DTD SVG 20010904//EN"
 "http://www.w3.org/TR/2001/REC-SVG-20010904/DTD/svg10.dtd">
<svg version="1.0" xmlns="http://www.w3.org/2000/svg"
 width="66.000000pt" height="100.000000pt" viewBox="0 0 66.000000 100.000000"
 preserveAspectRatio="xMidYMid meet">
<metadata>
Created by potrace 1.16, written by Peter Selinger 2001-2019
</metadata>
<g transform="translate(0.000000,100.000000) scale(0.100000,-0.100000)"
fill="#000000" stroke="none">
<path d="M485 955 c-5 -2 -90 -22 -188 -45 -97 -23 -184 -48 -192 -57 -10 -9
-15 -35 -15 -76 0 -34 -9 -181 -20 -327 -24 -327 -25 -349 -4 -357 8 -3 20 -1
25 4 5 5 14 97 19 204 14 273 38 512 52 521 7 4 42 14 78 22 228 53 284 65
288 62 2 -3 13 -33 25 -68 17 -49 26 -63 42 -63 16 0 20 6 19 35 -1 19 -11 61
-24 93 -21 55 -22 57 -58 56 -20 0 -41 -2 -47 -4z"/>
<path d="M367 817 c-10 -18 -34 -41 -53 -52 -47 -25 -101 -87 -126 -143 -50
-116 -47 -307 7 -417 28 -57 91 -127 136 -151 42 -21 76 -7 137 61 65 71 94
146 100 261 5 102 -11 174 -56 258 l-26 48 22 39 c13 22 20 44 17 49 -12 19
-35 10 -50 -20 -9 -16 -20 -30 -25 -30 -15 0 -12 27 5 61 9 16 13 34 10 39
-10 16 -33 0 -44 -31 -12 -34 -37 -41 -26 -6 3 12 9 32 12 45 8 35 -20 27 -40
-11z m40 -129 c104 -109 137 -271 88 -436 -17 -58 -97 -152 -128 -152 -26 0
-82 57 -121 123 -40 67 -61 165 -51 235 14 102 37 155 95 215 31 31 60 57 66
57 5 0 28 -19 51 -42z"/>
</g>
</svg>
