<?xml version="1.0" standalone="no"?>
<!DOCTYPE svg PUBLIC "-//W3C//DTD SVG 20010904//EN"
 "http://www.w3.org/TR/2001/REC-SVG-20010904/DTD/svg10.dtd">
<svg version="1.0" xmlns="http://www.w3.org/2000/svg"
 width="98.000000pt" height="148.000000pt" viewBox="0 0 98.000000 148.000000"
 preserveAspectRatio="xMidYMid meet">
<metadata>
Created by potrace 1.16, written by Peter Selinger 2001-2019
</metadata>
<g transform="translate(0.000000,148.000000) scale(0.100000,-0.100000)"
fill="#000000" stroke="none">
<path d="M740 1411 c-14 -5 -47 -13 -75 -19 -27 -7 -88 -20 -135 -31 -47 -10
-130 -29 -185 -41 -55 -12 -120 -28 -145 -35 l-45 -12 -7 -94 c-3 -52 -11
-168 -17 -259 -28 -431 -48 -696 -57 -737 -6 -28 -3 -34 20 -44 16 -8 30 -9
35 -3 5 5 16 128 25 274 21 335 45 666 54 750 l7 65 95 22 c313 74 447 104
463 106 16 2 25 -15 52 -98 29 -91 35 -100 59 -103 31 -4 44 19 28 51 -7 12
-23 58 -38 102 -14 44 -30 88 -35 98 -10 18 -54 22 -99 8z"/>
<path d="M547 1210 c-19 -42 -37 -70 -47 -70 -56 0 -174 -125 -226 -238 -55
-121 -66 -329 -25 -490 24 -91 132 -251 210 -308 64 -47 96 -45 169 11 84 63
118 115 182 270 25 60 37 249 20 325 -19 89 -59 191 -95 247 l-34 51 40 62
c22 35 38 69 35 76 -11 28 -36 12 -69 -43 -34 -59 -45 -66 -62 -39 -7 11 -1
33 22 80 32 65 33 76 3 76 -11 0 -25 -18 -39 -49 -25 -58 -37 -69 -58 -48 -13
13 -12 20 11 65 30 59 32 77 10 86 -11 4 -23 -11 -47 -64z m41 -162 c108 -98
137 -153 192 -360 7 -28 10 -70 6 -100 -3 -29 -8 -75 -11 -103 -7 -59 -31
-148 -52 -190 -22 -44 -112 -133 -156 -155 l-37 -18 -50 39 c-49 39 -108 110
-131 159 -6 14 -19 41 -29 60 -9 19 -25 75 -34 123 -15 76 -16 101 -5 185 6
53 15 102 19 107 5 6 12 28 16 49 4 22 20 60 35 85 31 49 154 161 176 161 7 0
35 -19 61 -42z"/>
</g>
</svg>
