<?xml version="1.0" standalone="no"?>
<!DOCTYPE svg PUBLIC "-//W3C//DTD SVG 20010904//EN"
 "http://www.w3.org/TR/2001/REC-SVG-20010904/DTD/svg10.dtd">
<svg version="1.0" xmlns="http://www.w3.org/2000/svg"
 width="500.000000pt" height="590.000000pt" viewBox="0 0 500.000000 590.000000"
 preserveAspectRatio="xMidYMid meet">
<metadata>
Created by potrace 1.16, written by Peter Selinger 2001-2019
</metadata>
<g transform="translate(0.000000,590.000000) scale(0.500000,-0.500000)"
fill="#000000" stroke="none">
<path d="M657 1118 c-4 -1 -11 -6 -17 -12 -6 -5 -17 -13 -24 -17 -31 -18 -44
-31 -64 -60 -10 -16 -24 -36 -31 -45 -7 -9 -15 -21 -17 -26 -2 -5 -13 -22 -24
-39 -33 -49 -43 -75 -49 -126 -3 -29 -7 -38 -12 -35 -9 5 -42 53 -49 72 -2 6
-7 16 -10 21 -7 13 -18 39 -25 61 -3 9 -7 20 -10 24 -8 12 -21 40 -28 59 -23
57 -35 69 -56 54 -11 -8 -13 -11 -33 -41 -7 -12 -20 -30 -28 -41 -8 -11 -23
-31 -32 -44 -10 -14 -21 -29 -26 -35 -4 -5 -10 -13 -13 -19 -6 -11 -21 -30
-37 -48 -11 -12 -22 -33 -22 -41 0 -16 28 -38 42 -31 6 3 8 6 45 60 12 17 30
43 41 58 10 14 21 31 25 37 32 47 41 58 46 55 5 -3 19 -32 63 -129 9 -19 20
-42 24 -51 4 -9 18 -38 30 -65 13 -26 26 -54 30 -60 10 -15 14 -45 12 -97 l-1
-32 -15 -31 c-9 -18 -17 -37 -19 -44 -3 -12 -9 -25 -31 -70 -6 -14 -18 -39
-26 -56 -73 -162 -65 -152 -94 -110 -29 40 -76 109 -99 142 -30 45 -36 49 -54
34 -29 -22 -28 -34 5 -69 17 -18 24 -27 41 -53 17 -26 44 -64 56 -79 7 -8 23
-31 36 -50 45 -68 59 -67 88 6 10 26 19 46 28 60 4 6 11 22 15 36 4 13 13 35
20 48 6 13 13 27 14 30 2 6 13 25 24 42 2 4 6 13 7 19 9 38 21 31 37 -20 12
-36 31 -79 48 -104 6 -9 14 -22 18 -29 3 -7 11 -19 17 -27 6 -8 14 -20 17 -26
6 -12 13 -19 42 -43 10 -9 25 -22 32 -29 57 -57 93 -55 140 7 6 8 20 25 30 38
21 27 31 39 41 55 4 6 14 19 21 28 7 9 17 22 21 29 4 7 12 19 17 28 6 10 12
23 16 35 3 10 9 24 14 32 5 9 8 17 10 25 1 7 5 20 9 29 11 25 13 177 3 219 -3
16 -7 37 -8 54 -1 15 -3 32 -4 36 -1 4 -4 13 -5 19 -4 17 -20 63 -28 77 -3 8
-8 21 -11 30 -2 9 -7 21 -11 27 -7 12 -32 62 -35 71 -18 53 -42 90 -77 117 -8
6 -26 21 -41 33 -36 30 -41 32 -59 27z m31 -78 c13 -9 36 -32 43 -42 3 -5 9
-13 13 -18 4 -4 10 -12 12 -18 2 -5 6 -12 9 -15 7 -9 28 -52 34 -69 3 -8 8
-18 11 -23 8 -11 11 -18 14 -30 1 -5 7 -19 12 -31 5 -12 10 -24 11 -28 1 -4 3
-9 4 -12 10 -19 16 -40 17 -61 1 -18 3 -25 8 -38 7 -16 7 -16 7 -54 0 -29 1
-42 4 -54 5 -19 5 -40 0 -64 -2 -10 -3 -26 -4 -37 0 -15 -1 -21 -5 -28 -2 -5
-14 -31 -25 -57 -11 -27 -23 -52 -26 -57 -6 -8 -19 -25 -75 -100 -57 -75 -65
-81 -92 -62 -39 26 -69 55 -87 84 -10 15 -27 42 -39 60 -12 19 -24 38 -26 44
-5 11 -33 93 -36 102 -1 3 -4 10 -6 15 -6 12 -6 10 -3 141 1 59 2 89 4 98 2 7
3 17 4 22 6 52 15 111 19 122 6 15 42 77 54 92 4 5 10 13 13 19 9 15 71 85 81
91 9 5 33 14 38 14 2 0 7 -3 12 -6z"/>
</g>
</svg>
