<?xml version="1.0" standalone="no"?>
<!DOCTYPE svg PUBLIC "-//W3C//DTD SVG 20010904//EN"
 "http://www.w3.org/TR/2001/REC-SVG-20010904/DTD/svg10.dtd">
<svg version="1.0" xmlns="http://www.w3.org/2000/svg"
 width="126.000000pt" height="148.000000pt" viewBox="0 0 126.000000 148.000000"
 preserveAspectRatio="xMidYMid meet">
<metadata>
Created by potrace 1.16, written by Peter Selinger 2001-2019
</metadata>
<g transform="translate(0.000000,148.000000) scale(0.100000,-0.100000)"
fill="#000000" stroke="none">
<path d="M805 1380 c-10 -11 -23 -20 -30 -20 -33 0 -189 -216 -219 -303 -9
-26 -16 -63 -16 -82 0 -18 -4 -36 -9 -39 -11 -7 -57 66 -90 144 -13 30 -37 80
-52 111 -16 31 -29 63 -29 70 0 8 -9 25 -20 39 l-20 25 -28 -31 c-15 -17 -56
-72 -92 -123 -36 -51 -82 -113 -102 -137 -21 -25 -38 -49 -38 -54 0 -17 37
-53 48 -46 7 4 53 68 103 142 50 74 93 134 95 134 3 0 23 -39 45 -87 23 -49
68 -144 101 -212 59 -123 59 -124 56 -200 -5 -81 -9 -93 -132 -355 -30 -66
-59 -123 -64 -128 -6 -6 -47 46 -106 131 -89 130 -98 140 -116 128 -32 -20
-35 -46 -7 -75 28 -30 129 -168 183 -250 57 -87 50 -96 205 250 24 53 48 98
53 100 5 1 17 -22 26 -52 27 -83 41 -110 94 -191 52 -78 162 -185 201 -195 14
-3 34 1 50 12 38 25 202 246 231 313 53 117 56 135 51 275 -9 222 -22 268
-133 501 -48 102 -57 114 -123 168 -39 31 -77 57 -84 57 -8 0 -22 -9 -32 -20z
m103 -118 c22 -26 54 -76 72 -112 17 -36 36 -74 42 -84 82 -151 120 -456 70
-576 -33 -82 -50 -110 -120 -205 -109 -146 -113 -148 -186 -84 -68 60 -141
176 -180 288 l-33 96 8 165 c8 181 15 240 32 285 19 52 114 190 161 233 61 56
83 55 134 -6z"/>
</g>
</svg>
