<?xml version="1.0" standalone="no"?>
<!DOCTYPE svg PUBLIC "-//W3C//DTD SVG 20010904//EN"
 "http://www.w3.org/TR/2001/REC-SVG-20010904/DTD/svg10.dtd">
<svg version="1.0" xmlns="http://www.w3.org/2000/svg"
 width="85.000000pt" height="100.000000pt" viewBox="0 0 85.000000 100.000000"
 preserveAspectRatio="xMidYMid meet">
<metadata>
Created by potrace 1.16, written by Peter Selinger 2001-2019
</metadata>
<g transform="translate(0.000000,100.000000) scale(0.100000,-0.100000)"
fill="#000000" stroke="none">
<path d="M510 913 c-54 -46 -140 -176 -140 -212 0 -32 -14 -56 -28 -47 -5 3
-20 32 -32 63 -40 101 -80 173 -95 173 -20 0 -170 -206 -170 -233 0 -15 7 -23
21 -25 16 -2 33 16 77 83 32 47 61 85 65 85 5 0 36 -60 70 -132 79 -168 80
-190 18 -326 -24 -53 -51 -114 -60 -134 -8 -21 -21 -38 -28 -38 -7 0 -35 34
-61 75 -60 91 -72 102 -92 85 -23 -19 -18 -36 30 -98 24 -31 63 -80 85 -109
26 -34 45 -50 55 -47 8 3 38 62 66 130 29 69 56 123 61 122 5 -2 20 -30 33
-63 32 -77 71 -130 133 -182 60 -49 75 -48 124 10 131 157 164 240 155 392 -7
117 -23 177 -83 300 -35 73 -54 98 -93 128 -26 20 -53 37 -58 37 -5 0 -29 -17
-53 -37z m90 -53 c25 -25 101 -178 125 -249 11 -34 18 -88 19 -150 1 -90 -1
-101 -31 -161 -42 -84 -118 -180 -142 -180 -28 0 -92 78 -137 166 l-39 78 1
120 c0 67 6 145 13 173 20 81 119 223 156 223 8 0 24 -9 35 -20z"/>
</g>
</svg>
