<?xml version="1.0" standalone="no"?>
<!DOCTYPE svg PUBLIC "-//W3C//DTD SVG 20010904//EN"
 "http://www.w3.org/TR/2001/REC-SVG-20010904/DTD/svg10.dtd">
<svg version="1.0" xmlns="http://www.w3.org/2000/svg"
 width="504.000000pt" height="590.000000pt" viewBox="0 0 504.000000 590.000000"
 preserveAspectRatio="xMidYMid meet">
<metadata>
Created by potrace 1.16, written by Peter Selinger 2001-2019
</metadata>
<g transform="translate(0.000000,590.000000) scale(0.500000,-0.500000)"
fill="#000000" stroke="none">
<path d="M317 1118 c-2 -1 -12 -8 -22 -16 -10 -8 -33 -27 -51 -41 -40 -32 -45
-39 -67 -89 -8 -19 -15 -34 -15 -35 0 -2 -27 -56 -33 -67 -4 -6 -9 -19 -12
-29 -3 -10 -8 -24 -12 -31 -3 -7 -8 -17 -9 -21 -1 -4 -6 -18 -10 -30 -10 -28
-16 -55 -16 -69 0 -18 -4 -46 -9 -66 -5 -18 -5 -21 -5 -79 0 -116 0 -118 9
-137 4 -9 8 -21 9 -27 3 -15 4 -19 9 -26 7 -9 10 -17 14 -31 5 -21 27 -57 54
-93 7 -9 15 -20 19 -26 7 -10 27 -38 45 -60 6 -7 18 -23 29 -36 49 -63 83 -64
140 -7 7 7 22 20 32 29 29 24 36 31 41 42 3 6 10 16 16 24 6 8 16 23 21 33 5
10 13 23 18 29 12 17 37 70 44 97 4 14 22 52 24 52 5 0 11 -14 14 -29 1 -6 7
-17 14 -29 7 -11 14 -25 17 -32 3 -6 11 -22 17 -35 7 -13 14 -32 17 -41 6 -22
6 -23 16 -38 9 -15 19 -37 27 -58 28 -75 44 -76 92 -3 11 17 26 38 33 46 7 9
14 19 17 23 13 20 27 39 32 44 3 4 8 12 11 17 8 15 22 32 39 50 27 28 30 41
13 59 -27 28 -30 27 -73 -37 -106 -156 -111 -162 -118 -158 -4 3 -11 16 -24
45 -6 13 -20 44 -32 70 -12 25 -22 47 -22 47 0 1 -8 17 -17 37 -21 43 -26 55
-29 67 -1 5 -9 24 -18 41 l-15 31 -1 33 c-2 49 2 82 10 93 6 9 21 38 46 94 8
17 16 35 19 40 2 6 11 25 20 43 69 151 62 143 87 107 8 -12 23 -33 33 -47 10
-14 26 -37 36 -52 70 -103 66 -100 89 -82 24 19 23 37 -5 68 -13 15 -34 42
-39 52 -2 5 -7 12 -11 16 -4 4 -15 18 -24 32 -10 14 -25 34 -33 45 -8 11 -22
32 -32 46 -40 61 -55 59 -83 -11 -9 -24 -19 -45 -32 -68 -3 -7 -8 -18 -10 -25
-4 -15 -18 -47 -24 -58 -2 -4 -7 -14 -10 -21 -9 -22 -40 -68 -48 -71 -6 -3 -7
3 -12 38 -3 20 -6 38 -6 40 -6 18 -26 57 -40 78 -10 15 -21 32 -24 39 -4 7
-15 22 -23 34 -8 12 -18 26 -22 32 -14 22 -28 40 -38 46 -5 4 -12 10 -16 13
-5 4 -13 9 -18 12 -6 3 -15 9 -20 14 -14 13 -30 18 -43 13z m21 -77 c24 -8 83
-66 103 -101 4 -6 10 -15 13 -19 12 -14 45 -72 53 -91 3 -6 9 -40 12 -62 3
-29 8 -61 11 -77 2 -14 3 -29 3 -67 0 -27 1 -74 2 -104 3 -52 3 -55 -1 -65
-11 -31 -21 -59 -30 -85 -16 -46 -17 -48 -45 -91 -14 -22 -32 -49 -39 -60 -13
-23 -42 -49 -82 -77 -28 -19 -34 -14 -98 70 -22 30 -46 61 -51 69 -19 23 -24
33 -38 66 -7 18 -18 43 -24 56 -11 23 -12 25 -12 43 0 10 -2 27 -4 37 -5 34
-5 39 -1 59 4 15 5 27 5 59 1 39 1 40 7 55 5 12 7 20 8 37 2 22 7 41 15 58 3
4 5 11 6 15 1 4 6 16 11 28 5 12 11 26 12 31 3 12 6 19 15 31 4 6 9 16 11 23
5 14 25 55 37 75 6 11 11 17 25 37 14 20 52 55 60 55 1 0 8 -2 16 -5z"/>
</g>
</svg>
