<?xml version="1.0" standalone="no"?>
<!DOCTYPE svg PUBLIC "-//W3C//DTD SVG 20010904//EN"
 "http://www.w3.org/TR/2001/REC-SVG-20010904/DTD/svg10.dtd">
<svg version="1.0" xmlns="http://www.w3.org/2000/svg"
 width="85.000000pt" height="100.000000pt" viewBox="0 0 85.000000 100.000000"
 preserveAspectRatio="xMidYMid meet">
<metadata>
Created by potrace 1.16, written by Peter Selinger 2001-2019
</metadata>
<g transform="translate(0.000000,100.000000) scale(0.100000,-0.100000)"
fill="#000000" stroke="none">
<path d="M212 905 c-41 -37 -58 -64 -97 -152 -81 -184 -95 -351 -40 -471 29
-64 113 -181 156 -217 28 -23 32 -24 57 -11 65 34 149 152 186 260 10 30 25 8
81 -121 27 -64 55 -118 62 -120 15 -5 16 -4 178 214 7 9 6 19 -1 31 -23 36
-41 24 -95 -62 -31 -49 -60 -85 -68 -83 -12 2 -55 90 -112 230 -32 80 -26 117
43 265 34 72 66 132 70 132 4 0 33 -38 65 -85 44 -67 61 -85 77 -83 37 5 28
37 -34 121 -107 144 -106 143 -125 132 -9 -6 -38 -59 -64 -119 -26 -60 -52
-111 -58 -113 -7 -3 -15 12 -19 34 -17 97 -145 263 -202 263 -5 0 -32 -20 -60
-45z m83 -31 c24 -9 104 -127 126 -185 15 -39 20 -81 22 -187 l2 -137 -38 -75
c-47 -95 -112 -172 -140 -168 -25 4 -94 91 -134 168 -23 46 -29 70 -31 146 -5
109 12 182 66 298 37 78 85 146 102 146 5 0 16 -3 25 -6z"/>
</g>
</svg>
