<?xml version="1.0" standalone="no"?>
<!DOCTYPE svg PUBLIC "-//W3C//DTD SVG 20010904//EN"
 "http://www.w3.org/TR/2001/REC-SVG-20010904/DTD/svg10.dtd">
<svg version="1.0" xmlns="http://www.w3.org/2000/svg"
 width="100.000000pt" height="66.000000pt" viewBox="0 0 100.000000 66.000000"
 preserveAspectRatio="xMidYMid meet">
<metadata>
Created by potrace 1.16, written by Peter Selinger 2001-2019
</metadata>
<g transform="translate(0.000000,66.000000) scale(0.100000,-0.100000)"
fill="#000000" stroke="none">
<path d="M138 614 c-30 -16 -60 -67 -89 -153 -29 -83 -26 -239 5 -307 29 -62
82 -124 106 -124 27 0 75 53 101 110 13 28 28 49 33 47 6 -2 20 -29 31 -60 12
-31 28 -64 37 -73 15 -15 19 -13 48 27 44 61 72 118 66 135 -9 25 -26 15 -57
-33 -16 -27 -35 -48 -42 -48 -7 0 -27 41 -46 90 l-33 90 16 52 c24 75 55 143
66 143 5 0 18 -17 29 -38 23 -45 46 -66 61 -57 18 11 11 29 -36 104 -30 46
-52 71 -62 69 -8 -2 -27 -32 -41 -68 -15 -36 -31 -64 -36 -62 -6 1 -16 20 -23
41 -12 37 -85 132 -100 131 -4 -1 -19 -8 -34 -16z m72 -91 c40 -63 50 -102 50
-201 0 -75 -3 -89 -35 -153 -38 -74 -56 -89 -81 -68 -22 18 -70 117 -78 159
-15 88 56 310 100 310 8 0 28 -21 44 -47z"/>
<path d="M774 598 c-15 -18 -38 -57 -51 -85 -14 -29 -28 -53 -33 -53 -4 0 -18
27 -30 60 -32 86 -42 91 -80 38 -45 -61 -72 -117 -66 -135 9 -23 28 -10 56 38
15 24 33 44 40 44 21 0 69 -122 70 -176 0 -30 -11 -74 -30 -120 -16 -41 -30
-75 -30 -76 0 -2 -4 -3 -9 -3 -6 0 -22 22 -37 50 -27 50 -50 63 -60 35 -9 -22
84 -167 104 -163 10 2 27 32 43 73 14 38 30 70 36 72 5 2 18 -17 28 -42 18
-48 82 -125 104 -125 23 0 70 60 107 136 36 73 37 75 31 163 -9 146 -85 301
-146 301 -11 0 -32 -15 -47 -32z m81 -51 c8 -13 26 -57 40 -97 34 -101 34
-197 0 -266 -31 -63 -61 -95 -80 -88 -8 4 -31 39 -51 80 -36 73 -37 74 -32
176 5 105 11 127 55 186 28 38 47 40 68 9z"/>
</g>
</svg>
