<?xml version="1.0" standalone="no"?>
<!DOCTYPE svg PUBLIC "-//W3C//DTD SVG 20010904//EN"
 "http://www.w3.org/TR/2001/REC-SVG-20010904/DTD/svg10.dtd">
<svg version="1.0" xmlns="http://www.w3.org/2000/svg"
 width="898.000000pt" height="590.000000pt" viewBox="0 0 898.000000 590.000000"
 preserveAspectRatio="xMidYMid meet">
<metadata>
Created by potrace 1.16, written by Peter Selinger 2001-2019
</metadata>
<g transform="translate(0.000000,590.000000) scale(0.500000,-0.500000)"
fill="#000000" stroke="none">
<path d="M1469 1125 c-3 -2 -9 -7 -13 -11 -4 -5 -12 -11 -17 -15 -30 -18 -46
-35 -68 -74 -6 -11 -16 -26 -21 -34 -5 -8 -12 -19 -15 -25 -3 -6 -13 -24 -22
-39 -26 -44 -38 -75 -43 -117 -4 -36 -5 -40 -9 -40 -7 0 -38 48 -45 71 -1 4
-5 13 -8 20 -8 14 -16 37 -22 58 -2 9 -8 22 -12 30 -9 17 -18 38 -26 63 -23
68 -42 70 -77 8 -5 -9 -16 -27 -25 -40 -15 -22 -22 -34 -41 -63 -5 -9 -12 -19
-14 -22 -3 -3 -6 -9 -8 -13 -4 -9 -21 -34 -32 -47 -27 -31 -30 -53 -9 -71 18
-15 25 -12 41 14 9 15 47 76 88 142 29 46 33 50 39 42 3 -4 70 -162 111 -263
6 -15 14 -33 18 -39 20 -33 13 -133 -13 -175 -2 -3 -6 -13 -8 -23 -2 -9 -10
-31 -18 -50 -8 -18 -20 -46 -26 -62 -71 -174 -66 -168 -95 -121 -6 11 -17 29
-24 39 -15 23 -45 71 -64 103 -24 40 -29 43 -47 29 -25 -20 -24 -37 2 -68 17
-19 27 -33 37 -51 4 -8 12 -21 18 -29 5 -8 14 -22 20 -31 5 -9 15 -23 20 -31
11 -16 36 -57 41 -67 19 -39 45 -32 63 19 11 32 21 56 29 71 4 8 10 22 13 32
6 22 13 41 20 56 3 5 7 15 9 21 2 6 10 21 17 34 7 13 13 27 14 32 5 34 18 26
31 -20 5 -18 12 -35 21 -58 2 -6 6 -14 7 -18 1 -5 7 -15 12 -23 6 -8 14 -24
19 -34 5 -10 12 -22 16 -27 4 -5 10 -16 14 -24 11 -22 98 -108 116 -114 24 -8
52 8 77 43 7 11 19 28 26 37 7 9 19 28 28 41 9 13 23 34 31 47 26 37 46 75 50
95 2 8 6 19 10 25 5 8 8 17 10 26 1 8 5 20 7 27 9 26 9 25 10 115 0 87 0 87
-5 111 -3 15 -6 35 -7 53 -2 30 -5 45 -14 74 -3 9 -7 23 -9 30 -2 7 -5 17 -8
22 -3 6 -7 18 -10 28 -3 11 -9 27 -14 37 -5 10 -11 24 -14 31 -3 7 -14 34 -24
60 -22 52 -31 68 -49 84 -7 6 -26 22 -41 36 -42 39 -50 42 -68 33z m27 -73 c4
0 37 -34 43 -45 4 -7 10 -15 13 -19 3 -4 8 -12 12 -19 24 -50 31 -63 35 -79 3
-9 7 -20 10 -24 8 -12 12 -23 14 -31 1 -4 5 -17 10 -29 5 -12 9 -24 10 -29 1
-4 3 -11 5 -17 8 -17 14 -41 15 -60 1 -14 3 -24 7 -36 5 -16 6 -19 7 -60 0
-32 2 -46 4 -55 4 -13 3 -32 -2 -64 -2 -10 -3 -24 -3 -32 0 -13 -1 -18 -10
-39 -5 -14 -16 -41 -23 -61 -8 -20 -16 -39 -19 -43 -3 -4 -24 -36 -48 -72 -54
-80 -67 -96 -81 -96 -13 0 -76 57 -88 80 -7 12 -30 51 -52 89 -11 17 -13 25
-31 83 -3 7 -9 28 -15 46 l-11 33 1 43 c1 24 2 73 3 110 1 39 3 76 5 90 2 13
4 35 6 49 2 25 5 43 9 63 2 10 28 65 35 75 3 3 6 10 8 14 2 4 6 11 9 15 3 4 8
12 11 18 26 48 89 109 107 103 1 -1 3 -1 4 -1z"/>
<path d="M286 1116 c-3 -1 -19 -15 -35 -30 -17 -15 -36 -32 -43 -38 -18 -16
-28 -32 -46 -78 -9 -23 -19 -48 -23 -56 -4 -8 -7 -17 -8 -20 -1 -3 -5 -11 -9
-19 -4 -8 -10 -23 -14 -35 -3 -12 -8 -27 -12 -34 -3 -7 -6 -14 -6 -16 0 -1 -3
-13 -8 -27 -11 -35 -16 -59 -17 -86 0 -16 -3 -32 -6 -48 -10 -43 -8 -192 3
-221 3 -9 7 -22 8 -29 1 -9 5 -18 10 -28 4 -8 9 -20 11 -28 3 -12 8 -24 28
-61 4 -6 13 -20 20 -31 8 -11 16 -23 18 -27 2 -4 6 -10 9 -14 3 -4 8 -11 11
-16 3 -5 11 -17 18 -26 7 -9 20 -27 28 -39 41 -61 82 -64 124 -11 3 4 19 19
34 34 25 23 30 29 35 40 4 7 10 19 15 26 5 7 14 22 19 33 6 11 14 25 18 31 4
7 10 18 13 25 3 8 8 22 12 32 4 10 10 27 13 38 15 48 26 57 32 25 1 -7 6 -19
14 -33 6 -12 14 -28 17 -35 2 -7 7 -18 10 -24 6 -12 13 -31 20 -55 3 -10 8
-24 12 -31 9 -16 19 -40 25 -59 11 -34 26 -57 36 -57 12 0 23 12 43 47 6 11
20 32 30 47 30 46 56 87 60 94 6 12 18 28 33 45 28 33 29 50 2 71 -15 12 -22
9 -38 -17 -20 -33 -62 -100 -73 -119 -7 -10 -18 -27 -25 -38 -26 -42 -24 -42
-51 23 -6 15 -19 45 -27 65 -9 21 -16 38 -16 39 0 0 -7 17 -15 36 -20 46 -25
59 -29 76 -2 8 -5 17 -7 19 -25 40 -33 146 -12 177 3 6 12 24 19 40 6 17 17
43 24 59 7 16 15 37 19 46 12 31 63 151 66 155 6 9 9 6 28 -25 8 -12 21 -32
29 -45 13 -21 32 -52 69 -112 16 -26 24 -30 38 -19 26 18 24 41 -4 74 -11 13
-27 36 -33 48 -3 5 -7 12 -9 15 -3 4 -13 19 -22 33 -9 14 -23 36 -32 49 -8 13
-20 31 -25 41 -35 62 -52 60 -77 -10 -5 -15 -15 -38 -21 -52 -7 -14 -15 -33
-17 -42 -3 -10 -9 -26 -13 -37 -4 -10 -11 -27 -16 -37 -32 -78 -48 -87 -55
-33 -6 44 -17 74 -43 118 -8 14 -18 32 -22 39 -4 7 -10 18 -15 25 -5 7 -12 19
-17 27 -14 25 -30 50 -32 50 -1 0 -8 6 -15 13 -8 7 -18 14 -22 17 -5 2 -13 8
-18 14 -15 16 -33 21 -45 12z m23 -76 c7 -2 15 -6 20 -9 8 -6 66 -78 71 -90 3
-4 8 -13 13 -20 5 -7 9 -14 9 -15 0 -2 2 -6 5 -9 3 -4 12 -21 20 -39 18 -36
17 -34 28 -125 2 -14 4 -33 6 -42 1 -9 2 -39 2 -67 0 -28 1 -76 3 -106 2 -53
2 -55 -2 -66 -3 -6 -12 -37 -22 -68 -21 -66 -18 -59 -57 -126 -38 -65 -34 -60
-63 -86 -60 -56 -56 -57 -130 53 -24 36 -46 70 -50 75 -3 4 -11 22 -17 38 -6
16 -17 44 -24 61 -12 31 -13 34 -13 49 0 10 -1 26 -3 36 -4 25 -4 43 0 62 2
11 3 25 3 52 0 36 0 37 6 54 5 13 7 23 8 40 1 17 3 27 8 40 7 21 11 32 15 45
1 6 5 16 8 23 3 7 7 19 9 27 2 7 7 19 12 27 4 7 10 21 13 30 12 40 57 117 81
141 22 21 23 21 41 15z"/>
</g>
</svg>
