<?xml version="1.0" standalone="no"?>
<!DOCTYPE svg PUBLIC "-//W3C//DTD SVG 20010904//EN"
 "http://www.w3.org/TR/2001/REC-SVG-20010904/DTD/svg10.dtd">
<svg version="1.0" xmlns="http://www.w3.org/2000/svg"
 width="330.000000pt" height="590.000000pt" viewBox="0 0 330.000000 590.000000"
 preserveAspectRatio="xMidYMid meet">
<metadata>
Created by potrace 1.16, written by Peter Selinger 2001-2019
</metadata>
<g transform="translate(0.000000,590.000000) scale(0.500000,-0.500000)"
fill="#000000" stroke="none">
<path d="M125 1133 c-21 -12 -12 -30 29 -57 46 -28 46 -33 6 -84 -21 -26 -57
-89 -67 -118 -9 -25 -13 -36 -16 -42 -2 -4 -4 -12 -5 -19 -1 -7 -2 -19 -4 -27
-1 -8 -3 -25 -4 -38 -1 -13 -3 -35 -4 -49 -5 -53 -4 -226 2 -239 5 -11 15 -49
19 -70 6 -30 12 -46 28 -67 6 -8 13 -19 15 -24 7 -19 19 -42 28 -52 4 -6 9
-14 12 -19 4 -8 30 -41 44 -57 13 -14 9 -24 -13 -33 -5 -3 -15 -10 -22 -15 -7
-6 -17 -14 -22 -17 -13 -7 -18 -13 -19 -28 -1 -23 16 -31 37 -17 12 8 16 10
27 15 5 2 17 10 26 17 33 27 31 27 49 10 53 -46 71 -54 81 -34 10 17 7 29 -11
37 -4 3 -13 9 -20 15 -7 6 -13 11 -14 11 -3 0 -10 8 -15 17 -5 10 -4 14 9 30
12 15 35 53 43 72 15 33 22 41 31 33 8 -7 52 -57 80 -88 33 -40 35 -41 51 -30
12 8 15 12 21 26 2 7 14 36 27 63 27 62 27 65 7 74 -20 10 -28 6 -39 -20 -34
-82 -31 -79 -57 -52 -79 80 -83 86 -67 116 10 18 10 21 12 40 2 29 5 46 10 55
3 7 4 12 4 39 0 20 1 37 3 45 4 18 4 89 0 108 -1 7 -4 20 -5 28 -1 8 -3 18 -4
21 -1 3 -3 12 -4 20 -2 14 -10 40 -21 67 -7 18 -7 17 13 45 8 10 28 38 45 62
63 88 53 84 83 33 25 -42 29 -44 49 -33 20 12 20 18 -6 60 -11 17 -25 41 -31
53 -14 26 -21 35 -29 38 -12 5 -33 -7 -37 -23 -4 -12 -103 -154 -109 -156 -5
-2 -10 4 -14 16 -4 15 -25 53 -35 65 -4 5 -12 16 -17 26 -5 9 -15 23 -22 31
-21 25 -21 25 24 63 38 33 41 35 37 44 -6 15 -33 19 -49 7 -22 -15 -30 -22
-44 -35 -19 -18 -32 -16 -60 10 -6 6 -14 11 -18 13 -4 2 -10 6 -13 9 -14 12
-24 14 -35 9z m114 -160 c3 -5 13 -15 22 -24 9 -9 19 -19 21 -23 3 -4 7 -9 9
-12 3 -3 11 -17 18 -31 24 -49 25 -52 25 -65 0 -7 2 -16 4 -22 6 -15 10 -28
13 -40 2 -6 6 -17 9 -23 4 -7 6 -14 6 -20 0 -4 2 -18 4 -31 7 -33 8 -132 3
-146 -3 -7 -4 -15 -4 -34 0 -42 -5 -79 -13 -96 -2 -5 -4 -13 -4 -18 0 -5 -2
-13 -3 -17 -2 -4 -4 -13 -6 -18 -1 -6 -4 -12 -5 -15 -1 -3 -3 -10 -4 -17 -1
-10 -3 -14 -9 -22 -4 -5 -7 -11 -7 -13 0 -12 -27 -56 -36 -59 -3 -1 -11 -9
-21 -22 -7 -9 -14 -5 -23 10 -3 7 -12 18 -20 26 -11 12 -14 16 -16 24 -2 7 -5
13 -13 22 -7 8 -11 15 -12 20 -1 4 -3 11 -5 15 -2 4 -4 10 -4 12 0 5 -3 11
-10 20 -3 4 -7 12 -8 17 -1 5 -6 13 -9 17 -8 9 -11 19 -11 33 0 5 -2 12 -3 16
-3 4 -4 12 -4 30 0 25 0 25 -6 32 -7 7 -7 9 -10 32 -6 42 0 173 7 180 9 9 10
15 10 45 0 27 0 27 8 34 7 7 8 8 9 25 1 10 3 20 4 23 2 3 4 12 5 19 2 13 17
46 25 55 3 3 10 16 16 29 18 36 35 47 48 32z"/>
</g>
</svg>
