<?xml version="1.0" standalone="no"?>
<!DOCTYPE svg PUBLIC "-//W3C//DTD SVG 20010904//EN"
 "http://www.w3.org/TR/2001/REC-SVG-20010904/DTD/svg10.dtd">
<svg version="1.0" xmlns="http://www.w3.org/2000/svg"
 width="82.000000pt" height="148.000000pt" viewBox="0 0 82.000000 148.000000"
 preserveAspectRatio="xMidYMid meet">
<metadata>
Created by potrace 1.16, written by Peter Selinger 2001-2019
</metadata>
<g transform="translate(0.000000,148.000000) scale(0.100000,-0.100000)"
fill="#000000" stroke="none">
<path d="M143 1403 c-6 -17 34 -57 69 -68 31 -10 27 -34 -15 -97 -39 -57 -77
-129 -98 -183 -34 -86 -37 -436 -5 -555 9 -36 24 -76 34 -90 9 -14 27 -46 40
-72 12 -25 41 -67 63 -92 22 -25 39 -50 37 -55 -1 -5 -25 -24 -53 -43 -51 -33
-68 -64 -44 -79 16 -9 61 14 105 54 l31 28 49 -41 c51 -42 76 -47 82 -16 4 19
-42 65 -65 66 -28 0 -23 40 10 87 18 26 40 63 47 81 7 17 18 32 24 31 10 0
116 -117 136 -149 16 -26 48 1 71 58 12 31 31 72 41 89 17 33 17 33 -8 49 -30
20 -36 16 -62 -56 -11 -30 -25 -55 -32 -55 -7 0 -40 30 -72 67 -59 66 -60 67
-45 95 23 43 39 154 41 276 1 89 -4 131 -23 204 -23 87 -24 93 -8 111 10 11
42 55 72 98 31 43 58 79 61 79 3 0 18 -22 33 -49 15 -27 31 -51 37 -53 17 -6
48 23 41 38 -20 44 -96 154 -108 157 -9 1 -45 -44 -89 -113 -41 -63 -80 -115
-86 -115 -7 0 -14 10 -18 23 -3 13 -28 57 -56 98 -27 41 -50 79 -50 86 0 6 20
28 45 49 25 20 45 45 45 55 0 32 -43 22 -91 -20 -49 -43 -51 -43 -121 12 -40
31 -56 34 -65 10z m180 -215 c44 -56 87 -130 87 -153 0 -9 9 -45 19 -79 33
-102 43 -169 37 -231 -3 -33 -8 -94 -11 -135 -3 -41 -10 -79 -15 -84 -6 -6
-10 -19 -10 -30 0 -20 -15 -73 -33 -116 -13 -30 -79 -120 -88 -120 -11 0 -61
80 -106 169 -37 73 -62 158 -55 185 2 4 -3 15 -10 24 -17 20 -16 258 1 275 6
6 11 30 11 53 0 24 4 45 9 48 4 3 11 24 15 46 7 44 68 169 88 182 21 13 25 10
61 -34z"/>
</g>
</svg>
