<?xml version="1.0" standalone="no"?>
<!DOCTYPE svg PUBLIC "-//W3C//DTD SVG 20010904//EN"
 "http://www.w3.org/TR/2001/REC-SVG-20010904/DTD/svg10.dtd">
<svg version="1.0" xmlns="http://www.w3.org/2000/svg"
 width="55.000000pt" height="100.000000pt" viewBox="0 0 55.000000 100.000000"
 preserveAspectRatio="xMidYMid meet">
<metadata>
Created by potrace 1.16, written by Peter Selinger 2001-2019
</metadata>
<g transform="translate(0.000000,100.000000) scale(0.100000,-0.100000)"
fill="#000000" stroke="none">
<path d="M93 954 c-4 -11 4 -25 25 -43 18 -14 32 -29 32 -34 0 -4 -16 -30 -35
-58 -55 -80 -69 -142 -69 -304 -1 -163 11 -208 80 -312 24 -36 44 -69 44 -73
0 -5 -16 -17 -35 -29 -19 -11 -35 -27 -35 -36 0 -19 28 -31 45 -19 66 49 62
48 96 20 36 -30 53 -29 57 2 2 15 -4 25 -22 34 -15 6 -26 20 -26 30 0 18 47
98 58 98 3 0 26 -23 52 -52 29 -32 51 -49 58 -44 17 10 62 101 62 125 0 44
-48 35 -57 -10 -9 -45 -23 -46 -61 -5 -27 30 -33 43 -28 64 3 15 11 69 17 120
10 79 9 106 -5 180 l-17 86 39 55 c21 30 44 57 50 59 6 2 18 -11 27 -28 17
-33 32 -35 49 -8 7 12 1 28 -23 66 -17 28 -38 53 -46 56 -10 3 -29 -17 -59
-63 -24 -38 -49 -72 -55 -75 -6 -4 -20 10 -31 31 -12 21 -29 51 -38 66 -17 28
-17 28 16 55 36 30 40 47 16 56 -15 6 -29 -1 -80 -39 -9 -7 -21 -2 -42 18 -32
31 -50 34 -59 11z m142 -184 c49 -74 68 -169 62 -312 -3 -91 -10 -139 -26
-184 -23 -64 -52 -101 -71 -89 -21 13 -88 162 -99 220 -21 115 -5 244 46 357
31 70 45 72 88 8z"/>
</g>
</svg>
