<?xml version="1.0" standalone="no"?>
<!DOCTYPE svg PUBLIC "-//W3C//DTD SVG 20010904//EN"
 "http://www.w3.org/TR/2001/REC-SVG-20010904/DTD/svg10.dtd">
<svg version="1.0" xmlns="http://www.w3.org/2000/svg"
 width="65.000000pt" height="100.000000pt" viewBox="0 0 65.000000 100.000000"
 preserveAspectRatio="xMidYMid meet">
<metadata>
Created by potrace 1.16, written by Peter Selinger 2001-2019
</metadata>
<g transform="translate(0.000000,100.000000) scale(0.100000,-0.100000)"
fill="#000000" stroke="none">
<path d="M290 963 c-81 -31 -198 -178 -237 -301 -22 -67 -24 -90 -20 -177 6
-126 25 -185 87 -278 38 -56 67 -86 118 -121 99 -68 133 -62 237 41 142 140
171 386 71 592 -73 150 -195 266 -256 244z m50 -68 c36 -19 98 -95 145 -178
87 -157 89 -354 4 -484 -45 -69 -117 -140 -129 -126 -4 4 -4 69 -1 143 7 132
8 136 39 180 42 58 65 172 40 197 -25 24 -36 8 -43 -65 -14 -127 -43 -139 -47
-19 -3 74 -5 82 -23 82 -19 0 -20 -6 -17 -79 5 -102 -14 -100 -44 5 -22 76
-39 94 -64 64 -18 -22 29 -148 72 -192 l32 -33 4 -129 c6 -177 2 -181 -85 -87
-112 122 -151 225 -140 371 9 117 61 218 170 327 42 43 46 44 87 23z"/>
</g>
</svg>
