<?xml version="1.0" standalone="no"?>
<!DOCTYPE svg PUBLIC "-//W3C//DTD SVG 20010904//EN"
 "http://www.w3.org/TR/2001/REC-SVG-20010904/DTD/svg10.dtd">
<svg version="1.0" xmlns="http://www.w3.org/2000/svg"
 width="386.000000pt" height="590.000000pt" viewBox="0 0 386.000000 590.000000"
 preserveAspectRatio="xMidYMid meet">
<metadata>
Created by potrace 1.16, written by Peter Selinger 2001-2019
</metadata>
<g transform="translate(0.000000,590.000000) scale(0.500000,-0.500000)"
fill="#000000" stroke="none">
<path d="M341 1137 c-3 -2 -8 -5 -11 -8 -3 -2 -21 -15 -41 -28 -44 -29 -58
-41 -81 -76 -10 -15 -21 -29 -24 -31 -7 -6 -17 -20 -23 -33 -3 -6 -11 -18 -19
-26 -8 -8 -14 -17 -15 -20 -1 -2 -4 -7 -6 -10 -3 -3 -6 -9 -8 -13 -2 -4 -6
-11 -10 -16 -4 -6 -7 -13 -8 -19 0 -5 -4 -13 -7 -18 -3 -6 -6 -13 -6 -16 0 -4
-2 -10 -5 -14 -3 -4 -6 -12 -7 -17 -1 -6 -3 -11 -3 -12 -1 -2 -2 -9 -3 -17 -1
-12 -3 -16 -7 -22 -6 -7 -6 -9 -7 -29 0 -18 -1 -22 -6 -29 -8 -12 -8 -145 0
-159 5 -8 6 -12 7 -31 0 -17 2 -26 6 -37 3 -8 6 -20 7 -26 1 -6 4 -14 7 -19 4
-6 5 -10 5 -20 0 -10 1 -17 6 -28 3 -8 7 -18 8 -24 3 -15 34 -65 44 -71 2 -1
6 -7 9 -14 14 -30 60 -91 80 -104 10 -7 32 -23 42 -32 5 -5 14 -11 19 -13 4
-2 8 -4 8 -5 0 -4 25 -20 38 -24 13 -4 15 -6 21 -14 10 -13 14 -15 53 -13 34
1 35 1 47 11 4 3 10 6 12 6 13 0 42 24 59 48 6 8 12 14 23 21 8 5 17 12 20 15
2 3 8 8 12 11 10 5 13 10 23 29 4 7 12 19 19 26 9 9 15 19 22 33 5 11 11 22
14 24 2 3 7 11 11 19 4 7 11 20 16 28 9 14 9 15 10 37 1 22 5 34 12 46 5 8 5
14 0 22 -5 7 -5 7 0 17 4 8 5 13 6 34 1 23 1 26 6 32 8 11 9 97 1 109 -3 4 -6
10 -6 14 -1 3 -3 9 -4 12 -3 4 -3 7 -1 11 3 10 2 17 -2 23 -6 8 -10 28 -12 60
-1 24 -2 29 -5 34 -11 15 -15 23 -19 33 -2 5 -6 14 -9 20 -2 5 -5 12 -6 16 -1
4 -6 14 -11 21 -14 19 -16 23 -16 35 1 13 -34 66 -52 80 -5 4 -13 13 -19 21
-6 8 -18 22 -28 31 -12 12 -19 20 -23 29 -5 10 -8 14 -16 19 -5 3 -13 11 -17
16 -4 6 -11 13 -16 16 -5 3 -13 8 -17 11 -5 4 -11 8 -15 9 -4 1 -10 4 -13 6
-9 7 -59 8 -69 3z m36 -44 c2 -1 5 -6 8 -11 7 -12 11 -15 23 -17 6 -1 11 -4
17 -9 4 -4 12 -9 16 -11 13 -5 32 -26 41 -45 6 -12 11 -18 18 -24 5 -5 12 -13
15 -18 3 -6 9 -13 13 -17 11 -8 27 -28 30 -38 1 -4 5 -10 9 -13 4 -4 7 -10 9
-16 1 -5 5 -14 9 -19 9 -14 16 -29 22 -50 3 -9 8 -20 11 -25 12 -15 18 -25 18
-30 0 -3 1 -10 3 -15 1 -6 3 -17 4 -26 1 -11 3 -19 7 -28 4 -8 6 -15 6 -21 0
-5 1 -12 2 -17 2 -6 2 -9 -1 -16 -3 -8 -3 -9 2 -19 6 -12 7 -91 1 -105 -2 -4
-3 -22 -4 -53 -1 -47 -1 -47 -11 -67 -5 -11 -9 -23 -9 -27 0 -8 -3 -15 -10
-23 -3 -3 -9 -13 -13 -20 -9 -16 -27 -47 -37 -64 -4 -7 -10 -16 -13 -21 -3 -5
-10 -14 -16 -19 -6 -6 -13 -14 -16 -19 -4 -9 -7 -12 -40 -37 -8 -6 -16 -12
-18 -15 -17 -19 -43 -29 -48 -18 -6 11 1 319 7 329 5 11 18 28 23 33 3 3 8 9
12 14 3 5 10 14 15 19 11 12 15 19 18 33 2 6 5 16 7 22 6 13 10 30 14 52 1 9
4 20 5 24 14 44 1 97 -24 98 -27 1 -28 -1 -28 -40 0 -16 -1 -32 -2 -35 -2 -5
-4 -21 -8 -58 -1 -9 -2 -18 -4 -20 -1 -2 -2 -8 -3 -13 -1 -7 -4 -12 -8 -17 -3
-5 -9 -11 -12 -15 -6 -9 -9 -10 -13 -5 -2 3 -3 18 -3 78 0 117 -1 120 -33 119
-24 -1 -36 -80 -19 -128 9 -26 3 -72 -8 -64 -12 8 -16 15 -31 57 -4 9 -9 22
-11 29 -17 43 -19 51 -19 67 0 30 -8 39 -34 39 -27 0 -36 -20 -25 -58 2 -6 4
-15 5 -20 1 -5 6 -17 11 -27 5 -11 9 -20 9 -20 0 -1 3 -9 7 -17 11 -26 15 -37
19 -51 4 -14 4 -14 41 -51 l37 -37 0 -165 c1 -200 2 -188 -16 -179 -22 11
-124 114 -135 136 -4 6 -13 20 -22 29 -8 9 -15 17 -15 18 0 1 -3 5 -7 9 -16
19 -39 60 -43 79 -1 5 -4 14 -7 20 -11 23 -19 57 -19 85 0 20 -2 27 -9 35 -6
7 -8 164 -2 173 1 2 4 7 6 11 4 6 5 10 5 22 0 18 4 32 12 44 3 5 7 14 8 18 1
5 4 13 7 16 3 4 7 15 10 27 6 25 6 26 17 34 8 6 12 14 12 22 0 9 6 16 18 25 7
5 15 13 20 20 4 6 12 14 16 18 5 4 9 10 11 15 2 5 6 10 9 13 7 5 22 27 24 35
2 8 19 23 32 29 5 2 11 6 12 9 3 6 26 22 34 24 3 1 9 4 14 8 10 7 10 8 15 6z"/>
</g>
</svg>
