<?xml version="1.0" standalone="no"?>
<!DOCTYPE svg PUBLIC "-//W3C//DTD SVG 20010904//EN"
 "http://www.w3.org/TR/2001/REC-SVG-20010904/DTD/svg10.dtd">
<svg version="1.0" xmlns="http://www.w3.org/2000/svg"
 width="434.000000pt" height="590.000000pt" viewBox="0 0 434.000000 590.000000"
 preserveAspectRatio="xMidYMid meet">
<metadata>
Created by potrace 1.16, written by Peter Selinger 2001-2019
</metadata>
<g transform="translate(0.000000,590.000000) scale(0.500000,-0.500000)"
fill="#000000" stroke="none">
<path d="M62 1138 c-23 -2 -23 -2 -24 -71 0 -73 -2 -69 33 -72 37 -3 39 -1 43
44 8 99 4 105 -52 99z"/>
<path d="M396 1138 c-2 -1 -8 -5 -12 -8 -4 -3 -24 -17 -44 -30 -45 -30 -56
-41 -79 -75 -9 -14 -20 -28 -23 -31 -7 -6 -18 -21 -25 -35 -3 -5 -10 -15 -16
-21 -10 -11 -20 -26 -29 -43 -2 -5 -7 -12 -11 -17 -5 -5 -7 -12 -9 -20 -1 -6
-5 -14 -7 -17 -3 -4 -6 -11 -7 -17 -1 -6 -4 -13 -6 -16 -5 -6 -11 -31 -13 -48
-1 -7 -3 -13 -7 -18 -4 -6 -5 -9 -6 -28 -1 -18 -2 -22 -7 -30 -8 -15 -8 -145
1 -163 5 -10 6 -14 6 -29 0 -14 1 -21 6 -35 3 -10 6 -22 7 -28 1 -5 4 -12 7
-17 4 -5 5 -11 6 -23 1 -11 3 -20 8 -30 3 -8 6 -17 6 -19 0 -10 26 -52 42 -69
5 -5 10 -13 13 -19 3 -5 11 -19 19 -30 7 -12 16 -25 20 -31 8 -12 29 -33 41
-42 22 -15 26 -19 37 -29 7 -5 16 -12 21 -14 4 -2 13 -9 20 -14 9 -8 16 -12
27 -16 10 -3 15 -6 19 -11 15 -18 15 -18 58 -16 33 1 33 1 42 9 6 5 12 8 15 8
13 0 40 23 58 48 5 8 12 14 23 21 8 6 18 14 23 18 4 4 11 11 15 14 4 3 10 11
14 20 5 8 13 19 20 27 7 7 15 18 18 24 3 5 7 15 10 21 3 5 8 13 11 17 3 4 7
11 9 15 2 5 8 15 15 25 11 16 11 16 12 38 2 22 6 40 14 49 5 7 5 15 0 21 -5 7
-5 11 1 20 3 6 4 11 5 32 1 23 1 26 6 32 8 11 9 96 1 109 -8 14 -13 32 -11 38
3 9 2 16 -3 23 -3 3 -5 9 -6 14 -1 5 -3 13 -4 19 -2 6 -3 19 -3 31 0 23 -1 25
-11 39 -4 5 -9 16 -13 24 -4 9 -8 18 -9 20 -2 2 -4 8 -5 14 -1 6 -5 13 -9 18
-14 18 -19 27 -19 39 0 12 2 8 -33 58 -3 5 -12 15 -20 23 -8 8 -17 17 -19 21
-3 4 -14 17 -26 29 -14 14 -22 25 -24 29 -2 7 -18 24 -22 24 -1 0 -6 5 -10 11
-5 6 -12 14 -17 17 -5 3 -13 8 -17 11 -5 4 -11 8 -15 9 -4 1 -10 4 -13 6 -8 6
-56 8 -66 4z m41 -55 c8 -12 13 -16 24 -18 5 -1 11 -4 17 -10 6 -5 13 -9 17
-10 8 -2 33 -27 37 -38 4 -11 15 -27 23 -34 4 -3 10 -10 13 -16 4 -6 10 -14
15 -17 5 -4 9 -7 9 -8 0 -1 4 -5 8 -11 4 -5 9 -12 10 -17 1 -4 5 -10 9 -14 4
-4 8 -11 10 -17 1 -5 5 -13 8 -17 9 -13 17 -31 23 -51 5 -16 8 -22 16 -32 6
-7 10 -15 11 -19 1 -4 3 -14 5 -23 2 -9 4 -21 4 -27 0 -8 2 -14 6 -23 4 -8 6
-15 6 -21 0 -5 1 -12 2 -17 2 -6 2 -9 -1 -16 -3 -8 -3 -9 2 -19 6 -13 7 -95 1
-106 -2 -4 -3 -18 -4 -52 -1 -47 -1 -47 -9 -65 -5 -11 -10 -23 -11 -30 -1 -10
-3 -14 -8 -21 -4 -5 -11 -16 -16 -25 -5 -9 -12 -21 -16 -28 -4 -7 -13 -21 -20
-33 -14 -25 -21 -34 -31 -41 -4 -3 -9 -10 -11 -16 -5 -10 -10 -14 -45 -40 -5
-4 -14 -11 -18 -15 -20 -19 -39 -27 -45 -19 -4 5 -3 268 1 287 2 7 3 20 3 28
0 17 8 31 28 53 5 6 11 13 13 16 1 3 6 10 11 14 9 9 17 23 19 34 1 4 4 14 7
22 3 7 6 15 6 17 0 2 2 9 4 16 2 7 4 16 4 21 0 4 1 12 3 17 3 11 5 79 3 89 -3
10 -9 13 -25 13 -27 0 -27 -1 -29 -43 -1 -32 -5 -66 -7 -69 -1 -1 -2 -10 -3
-20 -3 -25 -9 -45 -15 -53 -4 -3 -9 -9 -12 -13 -14 -19 -15 -12 -15 72 0 45
-1 73 -2 77 -1 3 -2 10 -2 16 0 22 -5 27 -27 27 -15 0 -22 -3 -25 -10 -3 -8
-1 -105 3 -118 17 -55 -8 -87 -28 -36 -2 7 -7 20 -11 29 -25 64 -30 80 -30 97
0 29 -8 38 -34 38 -35 0 -38 -43 -8 -106 4 -9 8 -19 9 -22 1 -3 4 -10 7 -16 6
-13 17 -42 20 -54 2 -8 7 -14 39 -46 28 -28 37 -39 37 -42 0 -3 0 -78 1 -168
1 -194 2 -181 -18 -171 -21 11 -123 114 -134 135 -3 7 -12 19 -20 27 -34 41
-63 86 -66 107 -1 4 -4 13 -7 21 -14 33 -18 51 -19 86 -2 24 -2 26 -7 32 -12
14 -12 167 -1 183 6 8 7 11 8 29 2 22 5 32 12 42 3 4 6 11 7 16 1 5 4 12 7 17
3 4 7 15 10 28 5 20 6 21 16 32 10 10 11 12 13 23 2 11 3 13 10 19 8 7 14 12
41 41 7 7 14 16 15 19 1 4 6 10 10 14 4 3 8 7 8 9 0 1 3 6 7 11 4 5 7 10 7 13
0 5 18 22 29 27 5 2 11 7 15 11 8 9 27 22 34 24 3 1 9 4 14 8 12 9 15 9 23 -4z"/>
<path d="M766 1138 c-15 -4 -15 -4 -17 -70 -1 -75 -3 -71 39 -73 37 -2 37 -3
39 85 2 59 -10 70 -61 58z"/>
<path d="M52 192 c-18 -6 -23 -132 -5 -139 21 -8 58 -5 62 5 6 16 10 115 4
126 -5 9 -39 14 -61 8z"/>
<path d="M769 192 c-19 -5 -19 -4 -19 -71 -1 -73 -3 -68 32 -71 38 -3 39 -2
43 47 8 92 -2 109 -56 95z"/>
</g>
</svg>
