<?xml version="1.0" standalone="no"?>
<!DOCTYPE svg PUBLIC "-//W3C//DTD SVG 20010904//EN"
 "http://www.w3.org/TR/2001/REC-SVG-20010904/DTD/svg10.dtd">
<svg version="1.0" xmlns="http://www.w3.org/2000/svg"
 width="73.000000pt" height="100.000000pt" viewBox="0 0 73.000000 100.000000"
 preserveAspectRatio="xMidYMid meet">
<metadata>
Created by potrace 1.16, written by Peter Selinger 2001-2019
</metadata>
<g transform="translate(0.000000,100.000000) scale(0.100000,-0.100000)"
fill="#000000" stroke="none">
<path d="M42 961 c-9 -5 -12 -25 -10 -61 5 -96 68 -91 68 5 0 55 -24 78 -58
56z"/>
<path d="M312 953 c-42 -20 -90 -71 -147 -152 -89 -131 -115 -276 -76 -430 11
-46 33 -104 48 -130 60 -103 179 -201 245 -201 60 0 145 76 215 192 26 43 35
72 45 150 16 129 2 222 -53 337 -58 124 -179 252 -236 251 -4 0 -23 -8 -41
-17z m89 -66 c47 -40 125 -152 155 -223 27 -65 29 -77 29 -204 0 -135 0 -135
-34 -198 -37 -68 -118 -162 -140 -162 -11 0 -13 26 -7 143 6 121 10 146 27
167 33 42 51 92 57 156 4 52 2 62 -13 68 -25 9 -28 4 -36 -75 -8 -70 -23 -104
-41 -93 -5 3 -6 34 -2 73 5 55 3 69 -10 80 -12 10 -19 11 -29 2 -10 -8 -12
-26 -5 -78 4 -36 5 -69 3 -72 -13 -12 -36 30 -51 92 -15 59 -20 67 -40 67 -20
0 -24 -5 -24 -32 1 -44 41 -134 79 -180 l31 -37 0 -140 c0 -78 -4 -141 -9
-141 -14 0 -105 101 -144 160 -50 76 -70 160 -65 274 5 116 31 182 104 273 90
110 115 122 165 80z"/>
<path d="M637 963 c-4 -3 -7 -32 -7 -64 0 -58 12 -75 44 -63 19 7 30 88 16
114 -10 19 -40 27 -53 13z"/>
<path d="M37 163 c-4 -3 -7 -30 -7 -59 0 -42 4 -55 19 -64 15 -7 23 -6 35 6
16 15 22 78 10 108 -6 16 -45 22 -57 9z"/>
<path d="M637 164 c-4 -4 -7 -34 -7 -66 0 -58 0 -58 29 -58 28 0 30 3 37 47 4
26 3 53 -3 62 -11 17 -45 26 -56 15z"/>
</g>
</svg>
