<?xml version="1.0" standalone="no"?>
<!DOCTYPE svg PUBLIC "-//W3C//DTD SVG 20010904//EN"
 "http://www.w3.org/TR/2001/REC-SVG-20010904/DTD/svg10.dtd">
<svg version="1.0" xmlns="http://www.w3.org/2000/svg"
 width="61.000000pt" height="100.000000pt" viewBox="0 0 61.000000 100.000000"
 preserveAspectRatio="xMidYMid meet">
<metadata>
Created by potrace 1.16, written by Peter Selinger 2001-2019
</metadata>
<g transform="translate(0.000000,100.000000) scale(0.100000,-0.100000)"
fill="#000000" stroke="none">
<path d="M176 898 c-63 -65 -108 -142 -125 -219 -15 -65 -13 -275 3 -335 20
-74 63 -149 125 -217 98 -106 146 -111 237 -25 106 100 147 206 147 383 1 105
-3 131 -27 205 -30 91 -75 159 -152 229 -39 37 -49 41 -95 41 -49 0 -53 -2
-113 -62z m202 -53 c105 -112 150 -239 137 -389 -11 -127 -43 -215 -105 -286
-32 -37 -60 -60 -72 -60 -19 0 -20 4 -14 52 3 29 6 102 6 161 l0 108 66 70
c65 69 65 70 62 122 -2 38 -7 52 -18 52 -10 0 -16 -12 -18 -32 -4 -40 -8 -41
-34 -8 -40 52 -62 15 -24 -41 14 -21 23 -41 20 -46 -11 -18 -31 -6 -56 37 -15
25 -32 45 -38 45 -24 0 -20 -32 9 -72 31 -42 41 -83 19 -76 -7 3 -26 24 -44
49 -17 24 -38 45 -47 47 -28 6 -20 -35 16 -86 l32 -47 3 -167 c2 -109 0 -168
-7 -168 -33 0 -145 175 -168 263 -27 107 -11 295 34 382 26 50 133 155 158
155 15 0 44 -23 83 -65z"/>
</g>
</svg>
