<?xml version="1.0" standalone="no"?>
<!DOCTYPE svg PUBLIC "-//W3C//DTD SVG 20010904//EN"
 "http://www.w3.org/TR/2001/REC-SVG-20010904/DTD/svg10.dtd">
<svg version="1.0" xmlns="http://www.w3.org/2000/svg"
 width="360.000000pt" height="590.000000pt" viewBox="0 0 360.000000 590.000000"
 preserveAspectRatio="xMidYMid meet">
<metadata>
Created by potrace 1.16, written by Peter Selinger 2001-2019
</metadata>
<g transform="translate(0.000000,590.000000) scale(0.500000,-0.500000)"
fill="#000000" stroke="none">
<path d="M333 1137 c0 -1 -9 -2 -20 -3 -16 -1 -21 -3 -27 -7 -4 -3 -12 -9 -18
-13 -23 -15 -86 -76 -99 -94 -3 -5 -12 -18 -20 -28 -8 -11 -18 -26 -23 -33
-15 -27 -42 -80 -45 -90 -1 -6 -5 -16 -8 -24 -3 -8 -6 -18 -7 -24 -7 -33 -8
-41 -8 -48 0 -5 -2 -14 -4 -21 -14 -42 -14 -262 0 -294 5 -12 15 -49 19 -71 6
-30 12 -44 27 -64 6 -7 12 -19 15 -25 8 -21 19 -42 27 -52 4 -5 10 -13 12 -18
2 -5 8 -13 13 -19 4 -5 10 -13 13 -17 3 -4 13 -16 24 -27 10 -11 22 -24 25
-29 11 -15 67 -62 83 -69 3 -1 10 -6 16 -10 17 -11 62 -8 82 5 5 3 12 7 16 9
4 2 11 5 16 8 5 2 19 14 32 26 13 12 30 28 38 35 9 8 20 21 31 37 10 13 20 28
24 33 14 18 57 110 62 132 2 7 7 21 13 31 9 19 10 21 11 41 1 29 4 44 8 52 7
12 11 168 5 197 -4 22 -8 47 -11 66 -2 10 -5 25 -8 32 -3 8 -5 17 -5 18 0 2
-3 10 -6 17 -3 7 -9 24 -13 39 -4 14 -10 31 -13 36 -3 6 -7 15 -8 20 -6 23
-27 57 -59 97 -6 7 -13 17 -16 22 -9 13 -69 72 -79 78 -4 3 -10 8 -13 13 -4 5
-10 9 -18 13 -6 4 -15 9 -19 12 -12 10 -58 18 -65 11z m33 -52 c2 -2 11 -10
22 -18 10 -7 23 -19 29 -25 5 -7 18 -18 28 -25 10 -8 21 -19 26 -25 4 -6 12
-15 17 -21 4 -5 14 -18 21 -27 6 -9 16 -22 21 -29 18 -23 45 -82 47 -99 1 -8
3 -18 5 -22 2 -4 4 -9 4 -11 0 -2 1 -6 3 -9 2 -3 4 -11 5 -16 2 -6 5 -16 8
-21 5 -9 7 -16 9 -32 2 -11 4 -27 6 -36 6 -27 4 -122 -2 -138 -5 -11 -5 -12
-3 -26 2 -12 2 -17 0 -25 -1 -6 -2 -15 -2 -21 0 -14 -6 -42 -12 -52 -2 -5 -5
-15 -6 -23 -1 -8 -3 -18 -5 -21 -2 -3 -3 -8 -3 -10 0 -2 -2 -8 -4 -12 -2 -5
-4 -13 -5 -19 -1 -9 -3 -14 -9 -22 -5 -6 -8 -13 -8 -16 0 -9 -19 -41 -31 -52
-3 -3 -16 -14 -28 -26 -17 -15 -24 -23 -29 -32 -5 -8 -10 -15 -15 -18 -4 -3
-11 -8 -16 -12 -21 -19 -45 -27 -54 -19 -3 3 -3 373 0 381 0 2 27 28 58 59 48
46 69 70 100 108 4 5 4 9 5 48 1 73 -3 83 -28 80 -22 -2 -23 -5 -15 -64 6 -45
-1 -48 -27 -13 -37 48 -49 56 -64 45 -19 -14 -18 -19 10 -54 48 -60 49 -61 31
-78 -17 -17 -18 -16 -47 29 -10 16 -21 32 -25 36 -3 4 -9 12 -13 17 -13 21
-22 24 -37 14 -18 -13 -17 -16 11 -57 61 -87 61 -86 45 -101 -19 -18 -26 -12
-77 73 -21 36 -31 43 -48 34 -24 -12 -21 -22 22 -87 8 -12 22 -34 32 -49 l17
-27 0 -195 c1 -164 1 -194 -2 -195 -5 -2 -25 5 -31 10 -3 2 -9 6 -13 9 -8 4
-14 9 -20 19 -2 3 -10 13 -19 23 -8 9 -18 22 -21 27 -2 6 -10 15 -17 22 -13
13 -17 18 -19 29 0 4 -5 12 -12 19 -7 9 -11 16 -13 22 -1 5 -3 11 -5 14 -1 2
-3 8 -4 13 -1 5 -4 11 -8 16 -4 5 -8 12 -9 17 -2 5 -6 13 -9 18 -9 12 -11 17
-11 29 0 5 -2 15 -4 20 -4 9 -5 15 -4 32 0 21 -1 26 -9 33 -7 6 -10 37 -10 90
0 34 3 112 5 114 0 1 3 4 7 8 6 8 6 8 7 40 1 29 1 32 5 34 10 6 12 10 14 27 0
11 2 20 5 26 2 5 4 12 4 17 0 9 16 44 26 55 3 4 11 17 17 29 9 19 12 23 22 31
6 4 15 13 20 19 6 6 14 13 19 16 5 3 11 8 13 11 3 4 8 8 12 11 5 2 11 8 15 13
5 7 11 12 21 17 7 5 19 13 25 19 13 11 28 14 34 7z"/>
</g>
</svg>
