<?xml version="1.0" standalone="no"?>
<!DOCTYPE svg PUBLIC "-//W3C//DTD SVG 20010904//EN"
 "http://www.w3.org/TR/2001/REC-SVG-20010904/DTD/svg10.dtd">
<svg version="1.0" xmlns="http://www.w3.org/2000/svg"
 width="90.000000pt" height="148.000000pt" viewBox="0 0 90.000000 148.000000"
 preserveAspectRatio="xMidYMid meet">
<metadata>
Created by potrace 1.16, written by Peter Selinger 2001-2019
</metadata>
<g transform="translate(0.000000,148.000000) scale(0.100000,-0.100000)"
fill="#000000" stroke="none">
<path d="M297 1360 c-135 -125 -203 -248 -231 -423 -25 -151 -20 -285 14 -422
36 -143 174 -341 298 -427 37 -25 49 -29 83 -23 55 9 79 23 142 81 58 54 118
134 143 193 9 20 20 44 25 53 5 10 9 25 9 33 0 9 6 26 14 38 29 46 47 264 32
377 -9 62 -23 126 -35 155 -5 11 -22 54 -37 95 -31 80 -72 141 -147 217 -97
99 -121 113 -190 113 -52 0 -56 -2 -120 -60z m198 -34 c121 -100 198 -207 230
-323 9 -32 23 -80 32 -108 11 -38 13 -84 9 -195 -6 -161 -23 -245 -67 -332 -5
-10 -9 -24 -9 -31 0 -16 -147 -171 -178 -186 -12 -7 -26 -10 -31 -7 -5 3 -7
115 -5 248 l3 243 101 103 101 103 -3 77 c-3 75 -4 77 -28 77 -24 0 -25 -2
-22 -62 2 -36 0 -63 -6 -63 -5 0 -22 18 -37 41 -34 48 -57 63 -73 47 -18 -18
-15 -27 28 -78 45 -53 48 -69 22 -94 -18 -16 -21 -13 -68 58 -30 46 -56 75
-67 76 -36 0 -29 -31 23 -107 41 -59 51 -79 43 -92 -20 -31 -44 -17 -85 49
-52 87 -63 97 -82 80 -25 -20 -20 -35 35 -116 l51 -76 3 -249 c1 -137 -1 -252
-6 -254 -25 -16 -136 104 -187 201 -61 118 -73 148 -79 196 -3 29 -11 59 -17
67 -14 18 -12 259 3 274 6 6 11 30 11 53 0 24 4 45 9 48 4 3 11 24 15 47 9 59
68 158 122 207 25 23 49 42 55 42 5 0 9 4 9 10 0 12 70 60 89 60 8 0 33 -15
56 -34z"/>
</g>
</svg>
