<?xml version="1.0" standalone="no"?>
<!DOCTYPE svg PUBLIC "-//W3C//DTD SVG 20010904//EN"
 "http://www.w3.org/TR/2001/REC-SVG-20010904/DTD/svg10.dtd">
<svg version="1.0" xmlns="http://www.w3.org/2000/svg"
 width="94.000000pt" height="148.000000pt" viewBox="0 0 94.000000 148.000000"
 preserveAspectRatio="xMidYMid meet">
<metadata>
Created by potrace 1.16, written by Peter Selinger 2001-2019
</metadata>
<g transform="translate(0.000000,148.000000) scale(0.100000,-0.100000)"
fill="#000000" stroke="none">
<path d="M349 1357 c-41 -35 -92 -84 -114 -109 -40 -46 -125 -201 -125 -229 0
-8 -4 -19 -9 -25 -5 -5 -19 -37 -30 -71 -30 -88 -30 -296 -2 -347 11 -18 23
-56 27 -82 4 -27 18 -66 30 -86 13 -21 24 -43 24 -50 0 -7 9 -24 20 -38 11
-14 20 -32 20 -41 0 -9 9 -24 20 -34 11 -10 20 -24 20 -32 0 -7 3 -13 8 -13 4
0 34 -25 67 -55 33 -30 67 -55 76 -55 8 0 19 -4 25 -9 20 -18 89 -27 124 -17
101 31 186 105 241 211 14 28 31 60 37 70 6 11 23 49 38 84 23 59 26 76 26
211 0 88 -5 156 -11 168 -6 11 -10 29 -9 39 4 26 -47 177 -87 258 -19 39 -50
87 -70 107 -19 20 -35 40 -35 44 0 11 -91 94 -144 132 -25 17 -56 32 -69 32
-15 0 -52 -24 -98 -63z m198 -74 c41 -36 78 -76 83 -87 4 -12 28 -48 52 -81
24 -33 47 -66 52 -72 23 -39 88 -299 86 -343 -1 -8 -2 -55 -3 -105 -3 -101
-28 -178 -98 -295 -56 -94 -88 -129 -141 -156 -72 -37 -73 -36 -73 64 -1 48
-4 159 -8 247 l-7 161 85 74 c101 89 104 103 42 171 -23 26 -56 64 -74 85 -27
33 -35 37 -50 28 -34 -21 -26 -44 37 -105 62 -60 73 -90 36 -97 -12 -3 -38 18
-79 63 -50 52 -65 63 -75 53 -22 -22 -13 -45 43 -101 60 -59 63 -68 39 -91
-24 -24 -35 -20 -94 39 -29 30 -57 55 -61 55 -4 0 -12 -7 -19 -15 -22 -27 -3
-63 50 -96 30 -18 52 -40 56 -54 3 -13 8 -79 10 -147 2 -68 6 -176 9 -240 4
-70 2 -118 -3 -118 -5 0 -21 9 -35 20 -14 11 -30 20 -35 20 -34 0 -212 277
-212 329 0 17 -18 75 -34 109 -6 14 -10 83 -10 160 1 122 3 141 22 172 12 19
22 44 22 55 0 10 19 56 42 102 38 77 79 127 179 219 64 60 76 58 166 -23z"/>
</g>
</svg>
