<?xml version="1.0" standalone="no"?>
<!DOCTYPE svg PUBLIC "-//W3C//DTD SVG 20010904//EN"
 "http://www.w3.org/TR/2001/REC-SVG-20010904/DTD/svg10.dtd">
<svg version="1.0" xmlns="http://www.w3.org/2000/svg"
 width="64.000000pt" height="100.000000pt" viewBox="0 0 64.000000 100.000000"
 preserveAspectRatio="xMidYMid meet">
<metadata>
Created by potrace 1.16, written by Peter Selinger 2001-2019
</metadata>
<g transform="translate(0.000000,100.000000) scale(0.100000,-0.100000)"
fill="#000000" stroke="none">
<path d="M203 888 c-152 -147 -208 -341 -152 -524 49 -161 127 -269 222 -309
106 -44 208 22 288 188 37 78 39 85 39 182 0 217 -82 396 -234 507 -60 43 -78
38 -163 -44z m166 -28 c26 -22 67 -74 93 -117 59 -98 88 -200 88 -311 0 -74
-4 -92 -34 -155 -18 -40 -47 -91 -64 -114 -36 -48 -90 -82 -96 -61 -3 7 -7 81
-10 165 l-6 152 55 47 c66 56 69 76 18 137 -43 51 -70 70 -83 62 -19 -12 -9
-42 25 -75 36 -35 45 -60 22 -60 -7 0 -28 16 -47 35 -19 19 -40 35 -47 35 -24
0 -13 -36 22 -70 19 -19 35 -40 35 -47 0 -23 -36 -14 -65 17 -32 33 -68 37
-73 8 -2 -11 12 -27 38 -44 22 -15 42 -36 45 -48 2 -12 7 -87 10 -169 8 -172
5 -176 -69 -97 -76 81 -146 253 -146 355 1 108 62 247 147 334 32 34 67 61 77
61 9 0 39 -18 65 -40z"/>
</g>
</svg>
