<?xml version="1.0" standalone="no"?>
<!DOCTYPE svg PUBLIC "-//W3C//DTD SVG 20010904//EN"
 "http://www.w3.org/TR/2001/REC-SVG-20010904/DTD/svg10.dtd">
<svg version="1.0" xmlns="http://www.w3.org/2000/svg"
 width="378.000000pt" height="590.000000pt" viewBox="0 0 378.000000 590.000000"
 preserveAspectRatio="xMidYMid meet">
<metadata>
Created by potrace 1.16, written by Peter Selinger 2001-2019
</metadata>
<g transform="translate(0.000000,590.000000) scale(0.500000,-0.500000)"
fill="#000000" stroke="none">
<path d="M345 1134 c-5 -3 -14 -8 -20 -11 -5 -3 -17 -13 -26 -21 -9 -9 -20
-18 -25 -21 -5 -3 -13 -10 -18 -16 -5 -5 -13 -13 -17 -17 -20 -17 -64 -62 -68
-69 -3 -4 -9 -12 -12 -16 -4 -4 -12 -19 -18 -32 -6 -13 -13 -26 -15 -29 -2 -3
-7 -13 -10 -21 -6 -17 -9 -22 -19 -34 -4 -5 -6 -10 -7 -20 -1 -7 -4 -17 -6
-22 -4 -8 -10 -23 -20 -52 -2 -5 -5 -14 -8 -19 -2 -5 -4 -12 -4 -16 0 -3 -2
-9 -3 -14 -3 -6 -4 -13 -3 -48 0 -31 -1 -43 -3 -52 -4 -15 -4 -20 0 -33 2 -8
3 -19 3 -48 -1 -39 -1 -39 5 -46 3 -5 5 -10 5 -11 0 -2 3 -9 7 -16 4 -8 7 -17
8 -24 0 -6 3 -14 6 -19 4 -8 5 -11 5 -26 0 -19 3 -29 11 -37 3 -3 6 -9 8 -13
2 -4 5 -10 7 -12 2 -2 7 -12 10 -22 3 -12 8 -22 14 -29 9 -12 22 -39 22 -45 0
-7 5 -15 13 -21 9 -7 15 -16 19 -27 3 -10 5 -12 15 -17 4 -2 11 -8 16 -13 4
-4 15 -14 24 -21 8 -7 17 -16 20 -20 3 -5 8 -10 13 -12 4 -2 9 -5 10 -7 4 -4
18 -11 23 -11 3 0 10 -3 16 -6 7 -3 16 -7 21 -7 5 -1 13 -4 18 -7 12 -8 51 -9
68 -1 5 3 13 5 18 6 4 1 11 4 15 7 4 3 11 6 14 7 3 1 9 3 13 6 4 2 12 6 17 9
6 2 12 6 15 9 3 2 10 7 15 10 10 5 23 17 23 21 0 1 10 12 22 25 18 18 22 24
23 30 2 11 4 15 12 21 4 4 7 9 9 15 2 9 8 19 24 46 11 17 22 42 22 48 0 3 4
14 8 23 20 43 29 69 27 79 -4 25 -3 128 1 137 4 9 4 9 0 19 -3 8 -4 13 -4 36
0 27 0 27 -7 40 -7 13 -7 14 -7 35 0 19 -1 22 -5 30 -3 4 -7 16 -9 27 -2 10
-7 26 -11 36 -4 11 -7 21 -7 27 0 7 -3 16 -23 55 -13 25 -26 52 -28 59 -6 16
-19 34 -29 42 -17 14 -41 42 -44 53 -2 5 -6 10 -11 14 -17 14 -24 20 -30 30
-10 14 -21 24 -32 27 -6 2 -13 6 -21 13 -6 6 -15 13 -21 16 -5 3 -15 10 -21
15 -20 17 -35 19 -53 8z m37 -60 c13 -7 18 -11 28 -24 5 -5 12 -12 16 -14 5
-2 16 -11 26 -20 9 -9 21 -19 25 -22 11 -9 26 -27 30 -38 4 -9 31 -53 40 -62
2 -3 9 -12 14 -20 5 -8 14 -19 18 -24 5 -5 10 -11 12 -14 3 -6 23 -65 23 -71
0 -2 3 -10 6 -17 4 -7 7 -19 8 -26 1 -7 4 -15 6 -18 8 -11 12 -26 14 -50 1
-13 2 -25 3 -27 2 -2 3 -11 4 -19 0 -10 2 -18 5 -25 5 -8 5 -10 2 -23 -1 -8
-2 -17 -2 -21 0 -3 -1 -10 -3 -15 -2 -9 -2 -26 2 -86 1 -24 -3 -41 -16 -62 -8
-13 -15 -32 -15 -39 0 -5 -20 -47 -27 -56 -2 -3 -7 -11 -10 -17 -4 -6 -12 -20
-19 -32 -6 -12 -13 -24 -14 -29 -8 -26 -70 -76 -127 -100 -18 -8 -27 1 -17 17
5 8 5 20 1 35 -2 6 -3 23 -4 49 -2 73 -4 115 -6 121 -3 7 -5 157 -3 166 2 7
20 25 24 25 2 0 18 15 37 34 23 23 37 35 44 39 34 17 38 63 9 85 -16 13 -19
15 -23 22 -3 4 -9 12 -14 18 -5 5 -12 14 -16 20 -8 13 -38 43 -46 46 -27 10
-49 -19 -32 -42 4 -4 8 -9 9 -12 7 -10 29 -32 40 -40 34 -23 47 -48 32 -61
-14 -11 -19 -8 -80 56 -33 35 -37 37 -49 32 -7 -3 -15 -19 -15 -31 0 -6 14
-25 34 -43 7 -7 16 -16 21 -20 4 -4 12 -13 18 -19 14 -14 16 -26 4 -39 -15
-18 -23 -17 -46 8 -7 8 -18 18 -23 21 -5 4 -17 15 -27 24 -30 29 -74 5 -49
-27 3 -4 6 -9 6 -10 0 -7 6 -15 14 -18 5 -2 11 -5 14 -8 3 -2 9 -7 14 -9 45
-23 48 -32 50 -157 1 -81 2 -93 5 -101 4 -12 5 -174 0 -178 -4 -3 -25 7 -36
17 -5 3 -13 9 -19 12 -13 5 -40 33 -45 45 -2 4 -7 11 -12 16 -4 5 -12 14 -16
19 -4 5 -12 13 -17 16 -8 6 -10 9 -12 16 -4 15 -8 25 -16 35 -9 11 -24 41 -24
47 0 2 -2 7 -4 12 -17 30 -22 42 -23 51 -1 5 -2 13 -4 17 -2 4 -3 9 -3 12 0 2
-3 9 -6 15 -4 8 -6 15 -6 24 -1 11 -3 16 -8 23 -6 10 -6 11 -7 43 0 21 -2 37
-4 44 -5 16 -4 56 1 77 3 12 4 23 4 44 l0 28 13 20 c7 11 13 21 13 22 0 2 1 6
3 9 2 3 4 12 5 19 1 11 8 30 21 58 2 5 9 18 15 27 6 9 15 27 21 38 8 16 14 25
26 38 8 9 15 17 15 18 0 5 44 47 52 50 8 3 13 7 30 29 12 16 22 22 35 24 6 1
13 3 16 5 7 5 6 5 17 -2z"/>
</g>
</svg>
