<?xml version="1.0" standalone="no"?>
<!DOCTYPE svg PUBLIC "-//W3C//DTD SVG 20010904//EN"
 "http://www.w3.org/TR/2001/REC-SVG-20010904/DTD/svg10.dtd">
<svg version="1.0" xmlns="http://www.w3.org/2000/svg"
 width="434.000000pt" height="590.000000pt" viewBox="0 0 434.000000 590.000000"
 preserveAspectRatio="xMidYMid meet">
<metadata>
Created by potrace 1.16, written by Peter Selinger 2001-2019
</metadata>
<g transform="translate(0.000000,590.000000) scale(0.500000,-0.500000)"
fill="#000000" stroke="none">
<path d="M46 1138 c-10 -4 -13 -144 -3 -155 9 -11 58 -8 64 3 3 6 5 133 2 144
-3 9 -46 15 -63 8z"/>
<path d="M402 1136 c-29 -15 -38 -22 -55 -38 -10 -10 -20 -18 -21 -18 -3 0
-99 -96 -104 -104 -3 -4 -7 -10 -10 -13 -3 -3 -8 -11 -11 -18 -3 -6 -6 -13 -8
-15 -2 -2 -4 -7 -6 -11 -1 -4 -5 -12 -9 -18 -3 -5 -8 -15 -10 -22 -3 -8 -9
-19 -15 -27 -9 -12 -11 -16 -11 -23 0 -4 -1 -11 -3 -15 -1 -4 -6 -16 -11 -28
-5 -12 -10 -26 -12 -31 -2 -6 -5 -14 -8 -19 -2 -4 -4 -12 -5 -18 -1 -6 -2 -13
-4 -16 -2 -5 -3 -14 -3 -49 0 -35 -1 -46 -3 -54 -3 -10 -3 -12 -1 -20 2 -5 3
-24 4 -52 1 -43 1 -44 6 -53 3 -5 6 -11 7 -14 0 -4 4 -10 7 -15 4 -7 6 -12 6
-18 0 -5 2 -12 5 -18 5 -8 6 -13 7 -31 1 -21 1 -22 9 -31 4 -5 9 -12 10 -16 2
-5 5 -10 8 -13 2 -3 7 -13 10 -22 3 -12 7 -20 12 -26 10 -11 23 -37 24 -48 1
-7 4 -11 13 -19 8 -8 13 -15 18 -25 5 -12 9 -16 14 -18 4 -2 10 -7 14 -11 4
-5 16 -15 26 -24 10 -9 20 -19 22 -22 3 -4 8 -9 12 -11 4 -2 9 -5 10 -7 4 -4
18 -11 23 -11 3 0 10 -3 16 -6 7 -3 16 -7 21 -7 5 -1 13 -4 18 -7 12 -8 49 -9
66 -1 6 3 14 6 18 6 5 1 11 4 15 6 4 3 12 7 18 9 6 2 11 5 12 6 1 1 8 5 16 9
8 3 15 8 16 10 1 1 7 5 12 8 10 4 23 17 23 21 0 1 9 12 21 24 21 22 25 28 25
37 0 4 3 8 8 13 8 8 12 14 12 19 0 4 9 20 24 44 11 18 21 39 23 48 1 4 6 16
10 27 5 10 9 19 9 20 0 1 3 9 7 17 10 21 12 32 9 48 -3 20 -3 112 1 122 4 10
4 20 0 30 -2 6 -3 15 -3 34 0 26 0 26 -6 36 -7 10 -7 11 -8 35 -1 21 -2 26 -6
33 -2 4 -5 11 -6 15 -3 16 -9 34 -14 47 -3 8 -6 19 -7 27 0 8 -2 14 -5 18 -5
7 -45 87 -48 97 -4 11 -17 30 -27 38 -5 5 -11 10 -13 12 -16 18 -27 32 -32 42
-5 9 -9 14 -17 19 -5 4 -13 12 -17 17 -14 20 -25 30 -38 35 -9 3 -15 7 -21 13
-4 5 -13 12 -20 16 -6 3 -16 10 -22 15 -16 15 -32 18 -47 10z m33 -62 c6 -4
17 -13 24 -20 6 -8 16 -16 20 -18 4 -3 15 -11 23 -19 8 -8 19 -18 25 -22 16
-12 33 -33 33 -42 0 -3 30 -49 37 -57 2 -3 10 -13 17 -24 7 -10 17 -23 21 -28
9 -10 22 -44 30 -77 2 -7 5 -17 8 -23 2 -5 5 -15 7 -23 1 -7 3 -15 6 -19 7
-11 12 -28 12 -45 0 -11 1 -21 4 -29 2 -7 4 -17 4 -23 0 -6 2 -14 4 -20 5 -11
4 -33 -1 -56 -4 -13 -4 -32 -1 -63 4 -47 2 -64 -14 -90 -7 -12 -16 -36 -16
-44 0 -5 -17 -39 -25 -51 -3 -4 -7 -12 -10 -18 -3 -5 -8 -14 -11 -18 -8 -12
-19 -33 -22 -42 -6 -18 -54 -63 -83 -78 -14 -8 -27 -14 -28 -15 -23 -17 -46
-11 -34 9 6 10 6 19 2 34 -2 6 -3 23 -4 49 -2 74 -4 115 -6 120 -4 9 -6 162
-2 170 3 7 19 24 23 24 1 0 18 15 37 34 23 23 37 35 44 39 36 18 38 65 3 90
-5 4 -15 13 -21 22 -6 8 -12 15 -13 16 -1 1 -6 7 -10 13 -12 17 -37 44 -47 48
-25 13 -52 -14 -36 -36 3 -4 8 -11 12 -17 8 -13 27 -32 38 -38 33 -21 47 -48
33 -61 -13 -12 -22 -6 -70 45 -48 51 -58 55 -69 32 -10 -21 -5 -31 28 -63 8
-7 17 -16 21 -21 4 -4 12 -13 19 -19 15 -15 15 -27 2 -42 -13 -15 -20 -13 -48
14 -74 69 -69 66 -84 54 -16 -11 -21 -26 -13 -37 3 -3 6 -9 8 -15 3 -8 5 -10
14 -15 6 -3 13 -7 17 -10 3 -3 8 -6 12 -8 42 -18 47 -34 49 -158 1 -80 2 -93
5 -101 5 -12 4 -173 -1 -177 -5 -2 -23 6 -36 18 -6 5 -13 9 -17 10 -9 2 -40
33 -46 46 -3 5 -8 13 -12 17 -4 4 -10 11 -14 16 -3 5 -11 13 -18 18 -6 5 -12
11 -13 14 -1 3 -3 9 -4 15 -2 6 -7 15 -12 22 -5 7 -10 15 -12 19 -1 4 -4 9 -6
12 -2 3 -5 10 -6 15 -1 5 -7 19 -14 32 -7 13 -12 25 -12 28 0 2 -1 10 -3 16
-2 7 -4 16 -5 21 -1 4 -4 11 -6 14 -3 5 -5 11 -6 21 -1 11 -3 17 -8 25 -6 11
-6 11 -6 40 0 20 -1 32 -3 39 -4 13 -4 74 -1 82 2 4 3 21 4 41 l1 35 11 16
c12 17 20 35 22 53 2 17 23 66 37 87 4 6 12 20 18 33 9 17 15 27 24 36 7 7 15
17 18 22 10 16 41 45 53 51 9 4 13 7 18 14 15 22 32 36 45 38 6 1 14 3 17 5 9
5 7 5 19 -2z"/>
<path d="M753 1135 c-7 -5 -9 -138 -3 -150 8 -14 64 -13 70 2 6 15 1 143 -5
148 -8 8 -54 8 -62 0z"/>
<path d="M753 215 c-8 -8 -8 -144 0 -152 7 -8 54 -8 62 0 10 8 9 150 -1 155
-9 5 -56 2 -61 -3z"/>
<path d="M47 210 c-9 -4 -9 -7 -9 -81 1 -85 -1 -78 30 -80 44 -3 42 -5 42 83
-1 86 2 79 -35 79 -13 1 -26 0 -28 -1z"/>
</g>
</svg>
