<?xml version="1.0" standalone="no"?>
<!DOCTYPE svg PUBLIC "-//W3C//DTD SVG 20010904//EN"
 "http://www.w3.org/TR/2001/REC-SVG-20010904/DTD/svg10.dtd">
<svg version="1.0" xmlns="http://www.w3.org/2000/svg"
 width="108.000000pt" height="148.000000pt" viewBox="0 0 108.000000 148.000000"
 preserveAspectRatio="xMidYMid meet">
<metadata>
Created by potrace 1.16, written by Peter Selinger 2001-2019
</metadata>
<g transform="translate(0.000000,148.000000) scale(0.100000,-0.100000)"
fill="#000000" stroke="none">
<path d="M49 1413 c-3 -38 1 -175 6 -183 7 -12 62 -14 69 -2 2 4 6 48 7 97 l2
90 -41 3 c-23 2 -42 0 -43 -5z"/>
<path d="M470 1403 c-93 -62 -260 -260 -260 -307 0 -7 -9 -21 -20 -31 -11 -10
-20 -24 -20 -31 0 -8 -11 -48 -25 -89 -21 -62 -26 -98 -28 -203 -2 -87 1 -135
10 -153 20 -42 43 -112 43 -134 0 -11 9 -31 20 -45 11 -14 20 -32 20 -40 0 -8
9 -26 20 -40 11 -14 20 -31 20 -38 0 -20 36 -64 108 -134 130 -127 251 -127
393 0 26 24 51 53 55 65 4 12 10 24 14 27 3 3 13 19 22 35 8 17 24 48 36 70
57 112 63 143 59 296 -2 79 -10 167 -16 194 -7 28 -14 62 -18 78 -3 15 -9 30
-14 33 -5 3 -9 15 -9 27 0 25 -85 203 -102 214 -7 4 -38 37 -68 73 -56 67
-165 150 -197 150 -10 0 -30 -8 -43 -17z m100 -84 c0 -3 27 -27 60 -53 33 -26
60 -52 60 -58 0 -5 25 -46 55 -89 61 -89 125 -259 125 -333 0 -23 5 -47 11
-53 8 -8 9 -23 2 -50 -5 -22 -7 -64 -3 -94 7 -53 1 -86 -27 -139 -7 -14 -13
-31 -13 -38 0 -23 -100 -188 -133 -218 -65 -62 -167 -102 -138 -55 5 7 6 47 4
89 -2 42 -6 148 -10 234 l-6 157 58 53 c32 29 68 58 80 65 25 14 38 49 26 70
-9 17 -62 81 -113 137 -31 34 -40 39 -55 30 -33 -20 -25 -42 36 -102 62 -60
74 -88 44 -99 -12 -5 -33 11 -74 55 -63 66 -83 75 -93 40 -4 -18 6 -35 50 -79
57 -58 65 -82 32 -103 -15 -9 -28 -1 -78 49 -50 50 -63 58 -78 49 -19 -12 -29
-54 -13 -54 6 0 11 -6 11 -12 0 -7 21 -25 45 -40 25 -15 49 -38 54 -50 13 -34
26 -508 14 -508 -18 0 -97 67 -133 111 -19 24 -42 50 -52 57 -10 7 -18 18 -18
24 0 5 -18 48 -40 94 -22 47 -40 90 -40 97 0 7 -9 37 -20 67 -26 72 -30 329
-5 350 8 7 20 31 26 54 24 93 82 189 169 278 47 48 93 88 102 88 9 0 20 5 23
10 6 10 54 -18 55 -31z"/>
<path d="M932 1323 l3 -98 40 0 40 0 0 95 0 95 -43 3 -43 3 3 -98z"/>
<path d="M930 170 l0 -101 43 3 42 3 0 95 0 95 -42 3 -43 3 0 -101z"/>
<path d="M48 250 c-1 -5 -2 -50 0 -100 l3 -90 40 0 39 0 0 100 0 100 -39 0
c-22 0 -41 -4 -43 -10z"/>
</g>
</svg>
