<?xml version="1.0" standalone="no"?>
<!DOCTYPE svg PUBLIC "-//W3C//DTD SVG 20010904//EN"
 "http://www.w3.org/TR/2001/REC-SVG-20010904/DTD/svg10.dtd">
<svg version="1.0" xmlns="http://www.w3.org/2000/svg"
 width="370.000000pt" height="590.000000pt" viewBox="0 0 370.000000 590.000000"
 preserveAspectRatio="xMidYMid meet">
<metadata>
Created by potrace 1.16, written by Peter Selinger 2001-2019
</metadata>
<g transform="translate(0.000000,590.000000) scale(0.500000,-0.500000)"
fill="#000000" stroke="none">
<path d="M328 1131 c-6 -4 -14 -9 -18 -10 -10 -3 -17 -8 -27 -17 -5 -4 -12 -9
-15 -11 -4 -2 -9 -8 -11 -12 -5 -11 -11 -17 -16 -17 -4 0 -17 -12 -17 -16 0
-5 -7 -10 -16 -13 -9 -2 -10 -3 -29 -37 -2 -5 -9 -13 -15 -18 -6 -5 -12 -12
-15 -19 -2 -5 -9 -15 -14 -22 -12 -15 -17 -26 -18 -37 -1 -7 -3 -12 -9 -19
-11 -15 -19 -31 -21 -42 -2 -13 -6 -25 -13 -40 -3 -6 -6 -14 -6 -18 0 -3 -3
-11 -6 -18 -5 -10 -6 -14 -6 -28 0 -14 -1 -19 -5 -27 -3 -7 -5 -14 -6 -28 -1
-11 -2 -22 -3 -25 -3 -9 -2 -100 1 -113 2 -7 3 -21 3 -41 0 -27 0 -30 5 -39 2
-5 5 -15 6 -21 0 -8 3 -17 6 -22 3 -6 5 -14 6 -20 1 -5 4 -13 8 -19 14 -21 21
-37 23 -49 1 -10 3 -15 9 -22 4 -5 8 -12 8 -15 2 -11 9 -22 17 -28 9 -8 25
-33 27 -42 2 -10 6 -17 13 -22 3 -2 10 -11 16 -18 7 -9 12 -14 16 -15 11 -3
16 -6 18 -11 1 -3 7 -10 12 -15 6 -6 12 -14 14 -19 2 -4 11 -16 20 -25 12 -12
16 -19 18 -25 4 -16 10 -20 35 -29 41 -14 78 -4 116 33 15 14 23 20 35 26 15
7 15 7 19 18 4 15 29 40 43 44 10 3 18 9 18 14 0 7 6 15 15 19 9 5 19 21 19
31 0 3 4 8 11 15 9 9 11 12 14 23 2 7 6 17 11 24 16 24 20 34 25 64 1 6 4 11
11 17 7 7 10 13 12 19 1 5 5 14 7 20 5 9 5 13 6 38 1 15 2 30 3 33 3 8 2 52
-1 64 -2 7 -3 21 -3 58 0 48 0 48 -5 56 -4 7 -5 11 -5 23 0 10 -1 20 -4 26 -2
6 -5 18 -7 26 -2 9 -6 20 -11 28 -5 8 -9 18 -10 25 -1 6 -4 14 -6 17 -12 18
-24 45 -24 56 0 10 -4 18 -13 23 -8 6 -9 7 -14 23 -8 24 -8 25 -14 29 -12 7
-15 11 -16 21 -2 9 -7 16 -19 23 -6 3 -8 7 -11 16 -4 11 -5 12 -12 16 -17 7
-18 8 -21 16 -2 7 -7 13 -23 27 -34 31 -39 35 -46 38 -4 2 -13 9 -21 16 -12
11 -19 15 -34 23 -10 6 -28 4 -40 -4z m57 -79 c6 -5 15 -12 22 -15 6 -3 13 -8
15 -12 5 -7 38 -39 40 -39 1 0 4 -4 8 -10 4 -5 9 -12 13 -15 3 -3 8 -9 11 -14
2 -4 7 -11 10 -15 3 -4 7 -11 8 -16 1 -4 5 -12 9 -16 4 -4 9 -12 10 -17 3 -7
6 -11 13 -16 6 -4 10 -9 11 -13 1 -3 4 -9 6 -13 3 -4 8 -16 11 -27 5 -17 7
-20 16 -29 11 -11 18 -38 18 -69 0 -14 2 -20 9 -28 3 -4 5 -9 5 -12 0 -3 2
-10 5 -15 5 -9 6 -12 7 -41 1 -19 2 -33 4 -35 3 -6 3 -104 0 -112 -1 -3 -3
-14 -4 -25 -1 -13 -3 -21 -6 -25 -2 -4 -5 -11 -6 -16 -1 -5 -4 -12 -7 -15 -3
-4 -6 -9 -6 -12 -3 -13 -8 -24 -13 -31 -3 -5 -6 -11 -7 -14 -1 -3 -3 -8 -5
-12 -3 -3 -7 -11 -9 -18 -3 -6 -7 -15 -10 -18 -2 -3 -5 -10 -7 -15 -2 -6 -6
-11 -12 -15 -6 -4 -11 -10 -13 -15 -3 -6 -7 -11 -10 -13 -7 -4 -21 -21 -27
-33 -2 -4 -13 -16 -23 -27 -11 -10 -27 -25 -36 -34 -13 -14 -18 -17 -22 -17
-3 0 -12 -3 -19 -6 -26 -13 -46 -8 -67 15 -7 8 -17 17 -22 19 -9 6 -21 22 -34
46 -5 10 -14 23 -21 31 -6 7 -13 17 -16 20 -6 8 -20 21 -31 28 -7 4 -9 7 -11
13 -1 5 -7 15 -12 23 -5 8 -11 18 -13 23 -3 5 -12 20 -21 33 -12 19 -16 27
-18 35 -1 7 -4 15 -7 19 -3 5 -5 10 -5 15 0 10 -3 18 -9 24 -3 3 -5 9 -6 14
-2 16 -6 84 -5 102 0 9 -2 27 -3 39 -3 19 -3 24 -1 31 1 5 3 12 4 16 1 4 2 21
2 37 0 31 0 31 7 38 9 11 11 15 11 25 0 11 14 55 21 65 2 4 5 11 6 15 1 5 3
12 6 15 7 9 10 17 12 27 1 7 3 11 7 15 4 3 9 11 11 16 3 7 8 13 14 18 6 5 10
10 12 16 2 6 6 12 14 19 6 6 14 15 17 20 12 16 62 63 71 66 4 1 11 5 15 7 14
10 51 7 63 -5z"/>
<path d="M347 787 c-4 -3 -11 -6 -16 -8 -5 -2 -10 -6 -14 -10 -3 -4 -11 -13
-17 -20 -7 -7 -14 -17 -17 -22 -2 -6 -7 -13 -10 -17 -3 -4 -5 -8 -5 -8 0 -1
-2 -6 -5 -10 -5 -7 -6 -11 -7 -27 -1 -11 -3 -23 -4 -26 -2 -6 -2 -35 1 -99 1
-30 12 -65 27 -81 6 -7 8 -12 8 -21 0 -10 5 -21 9 -23 2 0 9 -1 14 -2 9 -1 11
-3 20 -13 22 -23 73 -17 87 10 5 9 8 13 15 16 11 5 13 8 15 20 1 6 4 15 7 20
3 5 5 10 5 12 0 2 3 7 6 12 5 8 6 11 6 25 0 9 1 22 3 29 2 10 2 14 0 24 -2 6
-3 22 -3 37 0 24 0 27 -5 33 -2 4 -5 10 -6 13 -2 3 -5 9 -7 13 -3 5 -6 12 -7
17 -1 6 -3 11 -9 17 -8 8 -8 8 -8 21 0 13 0 14 -6 19 -7 6 -34 29 -45 40 -17
16 -21 17 -32 9z m17 -69 c8 -5 10 -8 13 -16 2 -5 5 -11 7 -13 6 -5 21 -33 23
-41 1 -4 4 -12 7 -17 9 -16 9 -122 0 -134 -3 -5 -6 -11 -7 -14 -9 -37 -52 -51
-67 -21 -11 23 -19 35 -30 46 -12 12 -12 12 -12 30 0 11 -1 23 -3 30 -3 11 -3
13 0 27 3 13 3 16 1 26 -4 15 3 32 21 54 3 3 5 8 5 12 0 7 12 33 17 35 5 4 16
2 25 -4z"/>
</g>
</svg>
