<?xml version="1.0" standalone="no"?>
<!DOCTYPE svg PUBLIC "-//W3C//DTD SVG 20010904//EN"
 "http://www.w3.org/TR/2001/REC-SVG-20010904/DTD/svg10.dtd">
<svg version="1.0" xmlns="http://www.w3.org/2000/svg"
 width="92.000000pt" height="148.000000pt" viewBox="0 0 92.000000 148.000000"
 preserveAspectRatio="xMidYMid meet">
<metadata>
Created by potrace 1.16, written by Peter Selinger 2001-2019
</metadata>
<g transform="translate(0.000000,148.000000) scale(0.100000,-0.100000)"
fill="#000000" stroke="none">
<path d="M388 1404 c-14 -8 -49 -37 -77 -64 -28 -28 -55 -50 -60 -50 -5 0 -12
-8 -15 -18 -4 -10 -14 -27 -24 -38 -31 -36 -62 -83 -62 -96 0 -7 -9 -24 -20
-38 -11 -14 -20 -33 -20 -42 0 -9 -9 -37 -20 -63 -11 -26 -20 -60 -20 -75 0
-16 -4 -32 -10 -35 -14 -9 -13 -270 1 -314 28 -86 97 -241 108 -241 5 0 16
-17 25 -38 10 -21 40 -58 67 -82 27 -23 49 -48 49 -54 1 -6 18 -30 39 -54 61
-70 118 -69 199 3 71 62 171 165 176 183 4 11 13 23 21 26 8 3 15 12 15 20 0
9 9 30 20 48 11 18 20 42 20 52 0 11 7 27 16 37 15 16 38 132 35 174 0 11 -3
53 -6 94 -7 124 -26 200 -70 284 -8 16 -15 37 -15 46 0 10 -9 26 -20 36 -11
10 -20 26 -20 36 0 11 -9 24 -20 31 -11 7 -20 18 -20 23 0 6 -18 30 -40 53
-22 22 -40 44 -40 47 0 7 -58 59 -109 97 -40 30 -63 33 -103 12z m146 -135
c36 -34 78 -82 93 -108 15 -25 37 -59 50 -74 13 -16 26 -41 29 -55 4 -15 15
-39 25 -54 11 -14 19 -42 19 -61 0 -18 8 -49 17 -68 25 -51 25 -298 -1 -354
-59 -127 -85 -174 -118 -210 -21 -22 -38 -43 -38 -46 0 -20 -95 -98 -130 -107
-37 -9 -43 -8 -79 22 -22 17 -49 48 -61 69 -12 21 -40 57 -63 80 -23 23 -46
51 -52 62 -47 82 -85 159 -85 174 0 9 -5 22 -11 28 -15 15 -17 336 -3 354 6 8
14 29 17 47 8 40 67 170 93 202 10 13 48 54 85 92 59 62 69 68 106 68 35 0 48
-7 107 -61z"/>
<path d="M425 980 c-25 -10 -65 -54 -93 -103 -18 -32 -22 -54 -22 -135 0 -84
3 -105 27 -159 16 -34 33 -63 40 -63 7 0 20 -8 30 -19 26 -27 77 -21 113 15
16 16 30 34 30 39 0 6 7 24 16 40 26 50 20 178 -11 243 -14 28 -25 58 -25 64
-1 7 -20 29 -43 49 -32 27 -47 34 -62 29z m19 -76 c8 -3 29 -32 45 -64 27 -51
31 -70 31 -135 0 -51 -5 -87 -16 -108 -34 -65 -61 -63 -108 9 -32 50 -36 63
-36 122 0 62 21 128 53 170 11 14 11 14 31 6z"/>
</g>
</svg>
