<?xml version="1.0" standalone="no"?>
<!DOCTYPE svg PUBLIC "-//W3C//DTD SVG 20010904//EN"
 "http://www.w3.org/TR/2001/REC-SVG-20010904/DTD/svg10.dtd">
<svg version="1.0" xmlns="http://www.w3.org/2000/svg"
 width="61.000000pt" height="100.000000pt" viewBox="0 0 61.000000 100.000000"
 preserveAspectRatio="xMidYMid meet">
<metadata>
Created by potrace 1.16, written by Peter Selinger 2001-2019
</metadata>
<g transform="translate(0.000000,100.000000) scale(0.100000,-0.100000)"
fill="#000000" stroke="none">
<path d="M224 942 c-81 -59 -143 -150 -168 -247 -20 -75 -21 -280 -2 -351 22
-82 65 -153 141 -231 76 -79 105 -89 163 -59 43 22 130 121 153 173 113 258
50 558 -149 710 -54 41 -87 42 -138 5z m158 -101 c65 -70 90 -118 119 -226 49
-189 -23 -421 -154 -500 -39 -23 -42 -23 -70 -7 -41 24 -102 103 -144 189 -34
70 -37 82 -41 186 -7 184 26 274 137 380 71 68 70 68 153 -22z"/>
<path d="M212 618 c-13 -13 -17 -193 -6 -236 6 -22 10 -23 103 -20 l96 3 0
130 0 130 -90 3 c-62 2 -94 -1 -103 -10z m148 -123 l0 -85 -55 0 -55 0 0 85 0
85 55 0 55 0 0 -85z"/>
</g>
</svg>
