<?xml version="1.0" standalone="no"?>
<!DOCTYPE svg PUBLIC "-//W3C//DTD SVG 20010904//EN"
 "http://www.w3.org/TR/2001/REC-SVG-20010904/DTD/svg10.dtd">
<svg version="1.0" xmlns="http://www.w3.org/2000/svg"
 width="360.000000pt" height="590.000000pt" viewBox="0 0 360.000000 590.000000"
 preserveAspectRatio="xMidYMid meet">
<metadata>
Created by potrace 1.16, written by Peter Selinger 2001-2019
</metadata>
<g transform="translate(0.000000,590.000000) scale(0.500000,-0.500000)"
fill="#000000" stroke="none">
<path d="M326 1147 c-5 -4 -14 -9 -20 -11 -17 -7 -49 -29 -68 -46 -9 -9 -17
-16 -18 -16 -3 0 -49 -52 -68 -78 -36 -49 -88 -156 -88 -183 0 -3 -1 -12 -3
-19 -2 -7 -3 -17 -3 -22 0 -5 -2 -15 -4 -21 -3 -8 -5 -20 -6 -37 -1 -14 -2
-27 -3 -28 -2 -3 -1 -157 1 -167 1 -6 2 -19 3 -29 0 -16 1 -21 5 -32 3 -7 8
-21 10 -30 18 -80 19 -82 37 -106 5 -7 14 -23 19 -36 6 -13 13 -28 18 -34 4
-6 10 -15 13 -21 4 -5 9 -14 13 -18 3 -4 9 -13 14 -19 4 -6 16 -20 26 -31 11
-11 22 -24 26 -30 14 -19 67 -60 105 -81 15 -8 65 0 82 13 4 3 12 7 18 9 10 4
16 9 35 27 13 12 32 29 41 38 11 10 23 23 30 34 7 10 15 22 19 27 20 25 62
112 69 142 2 7 7 20 12 30 9 18 10 20 11 41 3 33 5 45 9 53 4 7 5 27 8 133 1
45 -1 73 -10 110 -2 7 -3 15 -3 18 0 10 -14 57 -23 78 -2 7 -7 21 -10 32 -3
11 -8 26 -12 33 -3 7 -8 18 -10 24 -5 20 -21 46 -45 77 -5 7 -16 22 -24 32
-18 24 -70 76 -82 83 -5 3 -12 10 -17 15 -4 5 -11 11 -16 13 -4 2 -15 9 -24
16 -9 7 -20 14 -23 16 -4 1 -10 4 -14 5 -11 5 -20 4 -30 -4z m45 -66 c5 -3 14
-11 21 -17 8 -5 19 -16 25 -22 6 -7 19 -19 29 -26 18 -14 34 -33 82 -99 20
-26 47 -83 48 -101 1 -8 3 -18 4 -22 4 -8 9 -23 13 -37 1 -6 5 -16 9 -23 5 -9
7 -16 8 -28 2 -17 5 -36 8 -46 5 -17 2 -115 -3 -128 -5 -12 -5 -14 -3 -24 1
-6 2 -16 1 -20 0 -5 -2 -18 -3 -30 -2 -25 -6 -43 -12 -52 -2 -4 -4 -13 -5 -20
-1 -7 -3 -17 -5 -21 -2 -5 -4 -10 -4 -12 0 -2 -2 -8 -4 -12 -2 -5 -4 -13 -5
-19 -1 -7 -3 -13 -7 -18 -7 -9 -10 -15 -10 -19 0 -11 -24 -49 -35 -56 -16 -10
-48 -43 -54 -54 -4 -8 -8 -13 -14 -17 -4 -3 -12 -9 -17 -13 -13 -12 -30 -20
-43 -22 -9 -1 -12 -3 -17 -8 -11 -12 -28 -10 -41 4 -7 8 -11 11 -18 13 -4 1
-11 5 -15 8 -4 3 -11 7 -15 10 -6 2 -12 8 -17 16 -5 6 -15 18 -23 27 -8 8 -16
19 -19 25 -2 5 -11 16 -19 24 -8 8 -15 17 -16 19 0 2 -1 6 -2 9 -1 3 -6 11
-12 18 -7 8 -11 15 -12 20 -1 4 -3 10 -5 14 -2 4 -4 11 -5 15 -1 4 -4 11 -8
15 -4 4 -8 13 -10 19 -1 5 -6 14 -10 18 -7 8 -12 23 -10 30 1 2 -1 9 -3 15 -4
9 -5 15 -5 34 0 23 0 23 -6 31 -7 7 -7 9 -10 33 -6 44 0 171 7 179 9 9 10 15
10 44 0 28 3 37 12 37 3 0 6 10 7 25 0 8 2 17 4 20 2 4 4 13 5 20 2 14 14 40
25 54 4 4 12 18 18 30 10 20 12 24 24 33 7 6 16 14 20 19 4 5 11 11 15 13 4 2
10 7 13 11 3 4 10 9 14 12 5 3 12 9 15 15 5 6 11 11 20 16 7 4 19 11 26 17 16
14 27 15 39 4z"/>
<path d="M253 735 c-6 -5 -6 -37 -5 -287 0 -15 -2 -15 97 -14 57 0 95 0 103
-2 16 -2 27 0 33 6 5 7 4 284 -2 292 -6 10 -9 10 -118 10 -103 0 -103 0 -108
-5z m181 -41 c7 -5 8 -212 1 -217 -7 -6 -138 -4 -142 1 -4 6 -5 209 0 214 4 6
5 6 72 6 61 0 65 0 69 -4z"/>
</g>
</svg>
