<?xml version="1.0" standalone="no"?>
<!DOCTYPE svg PUBLIC "-//W3C//DTD SVG 20010904//EN"
 "http://www.w3.org/TR/2001/REC-SVG-20010904/DTD/svg10.dtd">
<svg version="1.0" xmlns="http://www.w3.org/2000/svg"
 width="90.000000pt" height="148.000000pt" viewBox="0 0 90.000000 148.000000"
 preserveAspectRatio="xMidYMid meet">
<metadata>
Created by potrace 1.16, written by Peter Selinger 2001-2019
</metadata>
<g transform="translate(0.000000,148.000000) scale(0.100000,-0.100000)"
fill="#000000" stroke="none">
<path d="M344 1400 c-66 -50 -158 -152 -195 -215 -71 -123 -105 -288 -96 -475
5 -120 34 -254 64 -299 9 -14 29 -50 45 -80 51 -96 173 -227 250 -267 41 -21
100 2 185 75 49 41 124 142 152 206 7 17 17 38 22 47 5 10 9 26 9 36 0 10 5
23 11 29 17 17 38 145 41 246 3 120 -11 215 -41 292 -5 11 -14 38 -21 60 -23
71 -38 100 -78 153 -92 124 -220 232 -272 231 -14 0 -48 -18 -76 -39z m150
-74 c70 -59 90 -79 133 -136 51 -68 83 -125 83 -148 0 -9 9 -42 21 -72 34 -88
41 -147 36 -280 -6 -143 -26 -239 -68 -322 -5 -10 -9 -24 -9 -31 0 -23 -144
-164 -189 -186 -45 -21 -81 -27 -81 -13 0 4 -16 16 -35 26 -39 21 -130 129
-162 191 -61 119 -75 154 -80 200 -3 27 -11 56 -17 64 -15 19 -12 259 3 274 6
6 11 30 11 53 0 24 4 45 9 48 4 3 11 24 15 47 9 59 68 158 122 207 25 23 49
42 55 42 5 0 9 4 9 10 0 12 70 60 89 60 8 0 32 -15 55 -34z"/>
<path d="M407 973 c-19 -32 -62 -102 -96 -156 -33 -54 -61 -107 -61 -117 0
-11 29 -59 64 -109 36 -49 81 -114 101 -145 20 -31 39 -56 44 -56 13 0 35 30
68 90 16 30 56 99 87 153 32 54 55 104 53 111 -3 6 -41 60 -86 119 -45 59 -81
111 -81 115 0 12 -39 52 -50 52 -5 0 -24 -26 -43 -57z m121 -154 l64 -91 -35
-56 c-19 -31 -46 -80 -61 -109 -16 -32 -31 -50 -39 -47 -13 5 -120 160 -125
181 -2 7 20 52 49 100 58 98 69 113 78 113 3 -1 35 -42 69 -91z"/>
</g>
</svg>
