<?xml version="1.0" standalone="no"?>
<!DOCTYPE svg PUBLIC "-//W3C//DTD SVG 20010904//EN"
 "http://www.w3.org/TR/2001/REC-SVG-20010904/DTD/svg10.dtd">
<svg version="1.0" xmlns="http://www.w3.org/2000/svg"
 width="360.000000pt" height="590.000000pt" viewBox="0 0 360.000000 590.000000"
 preserveAspectRatio="xMidYMid meet">
<metadata>
Created by potrace 1.16, written by Peter Selinger 2001-2019
</metadata>
<g transform="translate(0.000000,590.000000) scale(0.500000,-0.500000)"
fill="#000000" stroke="none">
<path d="M320 1149 c-11 -3 -18 -6 -18 -9 0 -2 -21 -18 -38 -28 -6 -4 -16 -12
-22 -18 -6 -6 -17 -16 -25 -23 -15 -13 -43 -44 -57 -63 -6 -7 -14 -19 -20 -26
-9 -13 -24 -40 -46 -84 -4 -8 -11 -25 -16 -39 -5 -13 -10 -27 -11 -30 -3 -5
-5 -17 -9 -53 -1 -9 -3 -21 -5 -26 -12 -31 -12 -268 0 -290 3 -6 15 -49 20
-75 6 -29 13 -46 29 -66 4 -5 10 -14 12 -20 7 -18 20 -43 28 -54 4 -5 10 -14
12 -19 3 -5 8 -13 13 -19 4 -5 11 -14 14 -18 3 -4 13 -15 21 -24 8 -9 20 -22
26 -30 16 -19 64 -60 83 -70 3 -1 11 -6 17 -10 17 -11 68 -6 88 8 3 3 11 7 17
9 13 6 19 10 43 33 12 11 28 27 37 35 10 9 23 24 32 38 9 12 19 27 23 33 16
21 56 108 62 132 1 6 7 19 12 28 8 17 9 19 10 38 2 25 5 45 10 58 6 16 10 173
5 203 -4 23 -7 39 -9 55 -1 8 -5 22 -8 31 -3 9 -6 20 -7 23 -1 3 -4 13 -7 20
-3 8 -8 24 -11 34 -3 11 -8 27 -12 35 -4 8 -9 21 -11 27 -4 13 -17 38 -28 55
-7 9 -9 12 -27 34 -5 7 -14 19 -19 26 -5 7 -19 23 -31 34 -12 12 -25 25 -28
29 -3 4 -10 9 -15 12 -5 3 -13 9 -17 14 -5 5 -12 12 -18 14 -13 7 -41 27 -42
30 -4 9 -36 12 -57 6z m50 -67 c4 -4 14 -12 22 -18 8 -7 19 -17 25 -23 5 -6
15 -15 22 -20 16 -13 30 -26 38 -37 3 -5 10 -14 16 -21 6 -7 17 -21 25 -32 8
-12 15 -21 16 -22 7 -4 41 -78 41 -91 1 -7 3 -17 5 -22 5 -13 10 -28 12 -37 1
-4 5 -14 9 -22 4 -8 7 -20 8 -25 2 -19 7 -48 9 -53 5 -13 2 -114 -3 -127 -5
-12 -5 -13 -3 -27 2 -12 2 -17 0 -25 -1 -6 -2 -15 -2 -20 0 -13 -7 -44 -11
-52 -2 -4 -4 -13 -5 -22 -1 -8 -4 -18 -6 -22 -2 -4 -4 -10 -4 -12 0 -2 -2 -8
-4 -12 -2 -4 -4 -12 -5 -19 -1 -8 -3 -13 -7 -18 -7 -8 -10 -14 -10 -18 0 -6
-12 -29 -19 -38 -7 -9 -13 -15 -43 -41 -15 -14 -24 -23 -27 -30 -3 -5 -9 -13
-13 -16 -5 -4 -12 -10 -17 -14 -13 -11 -33 -21 -44 -23 -8 -1 -12 -3 -17 -8
-13 -12 -27 -11 -42 5 -7 8 -13 12 -19 14 -4 1 -10 4 -14 7 -3 3 -10 7 -14 9
-6 3 -11 7 -15 13 -4 6 -14 18 -22 27 -9 9 -18 22 -21 27 -2 6 -12 17 -20 25
-11 11 -15 17 -16 22 -2 10 -4 14 -14 24 -6 6 -10 13 -12 19 -1 6 -4 13 -6 16
-1 3 -3 9 -4 13 -1 4 -4 12 -8 16 -4 5 -8 12 -9 17 -2 5 -5 13 -9 18 -9 12
-10 13 -11 28 -1 8 -3 18 -5 23 -2 6 -3 16 -4 31 0 22 0 22 -6 30 -10 13 -18
107 -11 138 1 5 3 23 3 40 2 30 2 30 8 37 6 7 6 7 7 37 1 31 1 31 9 38 8 8 8
8 10 25 0 10 2 20 4 24 2 4 4 12 5 18 2 13 17 45 26 55 3 3 10 17 17 30 9 19
13 24 20 29 4 3 14 12 21 19 7 7 16 15 19 16 6 3 10 7 40 37 8 7 19 16 24 19
6 3 16 10 21 15 17 15 27 16 40 6z"/>
<path d="M355 820 c-5 -2 -13 -15 -30 -43 -13 -22 -45 -75 -71 -117 -67 -109
-66 -92 -12 -169 49 -70 70 -100 95 -137 22 -32 27 -38 36 -38 9 0 28 21 38
42 2 6 14 27 25 47 12 20 35 59 51 87 65 111 60 99 45 117 -11 13 -23 28 -78
104 -22 30 -46 65 -55 77 -22 34 -30 39 -44 30z m27 -109 c6 -8 15 -19 19 -25
4 -6 21 -28 36 -49 38 -51 37 -50 27 -68 -8 -16 -55 -95 -72 -124 -22 -38 -19
-39 -65 27 -18 25 -37 52 -43 62 -21 29 -21 29 -8 50 3 5 22 36 42 68 52 84
48 80 64 59z"/>
</g>
</svg>
