<?xml version="1.0" standalone="no"?>
<!DOCTYPE svg PUBLIC "-//W3C//DTD SVG 20010904//EN"
 "http://www.w3.org/TR/2001/REC-SVG-20010904/DTD/svg10.dtd">
<svg version="1.0" xmlns="http://www.w3.org/2000/svg"
 width="61.000000pt" height="100.000000pt" viewBox="0 0 61.000000 100.000000"
 preserveAspectRatio="xMidYMid meet">
<metadata>
Created by potrace 1.16, written by Peter Selinger 2001-2019
</metadata>
<g transform="translate(0.000000,100.000000) scale(0.100000,-0.100000)"
fill="#000000" stroke="none">
<path d="M224 941 c-78 -57 -130 -130 -165 -233 -31 -91 -32 -274 -2 -373 28
-88 83 -174 156 -242 68 -64 100 -69 168 -24 89 60 158 183 180 323 30 192
-32 390 -158 509 -83 78 -117 86 -179 40z m156 -98 c79 -86 140 -234 140 -338
0 -55 -16 -149 -37 -214 -22 -72 -131 -191 -173 -191 -39 0 -129 99 -176 195
-35 71 -38 84 -42 183 -5 122 13 220 52 287 13 22 51 66 85 98 71 68 71 68
151 -20z"/>
<path d="M289 684 c-23 -28 -109 -178 -115 -201 -5 -17 9 -45 52 -108 65 -96
78 -109 97 -102 17 6 127 200 127 224 0 19 -127 203 -140 203 -4 0 -14 -7 -21
-16z m70 -138 l35 -49 -35 -66 c-19 -36 -41 -66 -48 -66 -7 0 -28 25 -47 56
l-35 56 33 62 c20 36 39 60 47 59 8 -2 31 -25 50 -52z"/>
</g>
</svg>
