<?xml version="1.0" standalone="no"?>
<!DOCTYPE svg PUBLIC "-//W3C//DTD SVG 20010904//EN"
 "http://www.w3.org/TR/2001/REC-SVG-20010904/DTD/svg10.dtd">
<svg version="1.0" xmlns="http://www.w3.org/2000/svg"
 width="360.000000pt" height="590.000000pt" viewBox="0 0 360.000000 590.000000"
 preserveAspectRatio="xMidYMid meet">
<metadata>
Created by potrace 1.16, written by Peter Selinger 2001-2019
</metadata>
<g transform="translate(0.000000,590.000000) scale(0.500000,-0.500000)"
fill="#000000" stroke="none">
<path d="M325 1140 c-5 -2 -15 -5 -21 -6 -10 -2 -16 -5 -25 -12 -7 -5 -15 -11
-18 -13 -15 -9 -81 -73 -91 -88 -3 -4 -9 -13 -13 -18 -21 -27 -28 -39 -47 -75
-21 -40 -46 -102 -46 -115 0 -3 -1 -12 -3 -19 -2 -7 -3 -17 -3 -22 0 -5 -2
-15 -4 -21 -12 -35 -12 -264 0 -292 4 -10 14 -48 19 -71 6 -32 11 -42 27 -65
6 -9 13 -19 14 -23 8 -20 21 -45 30 -57 5 -7 10 -15 10 -16 0 -1 3 -5 6 -9 23
-31 30 -39 45 -56 10 -10 21 -23 25 -29 10 -14 57 -52 81 -67 5 -3 13 -8 18
-11 19 -11 67 -6 87 10 5 3 11 6 15 7 11 3 22 12 43 32 9 9 26 25 36 34 17 16
24 25 60 76 4 6 10 15 12 19 32 65 45 96 47 108 1 4 6 17 12 28 9 19 10 21 11
41 3 31 5 49 9 56 6 10 11 167 7 192 -1 7 -3 22 -5 33 -2 11 -4 21 -4 22 -1 1
-2 8 -3 16 -1 8 -4 21 -7 29 -2 8 -6 20 -8 25 -1 6 -5 15 -8 22 -2 7 -7 21
-10 32 -3 11 -8 26 -12 33 -3 7 -8 18 -10 25 -4 13 -22 47 -31 59 -11 14 -24
31 -39 51 -9 12 -27 31 -38 43 -12 12 -24 23 -25 25 -2 3 -9 8 -15 12 -7 4
-15 11 -18 15 -4 5 -11 10 -18 14 -7 4 -15 9 -18 11 -20 17 -55 24 -74 15z
m44 -57 c2 -2 11 -9 20 -16 8 -7 21 -18 27 -25 7 -7 20 -19 29 -26 20 -14 27
-23 84 -100 19 -25 46 -83 47 -101 1 -9 2 -18 4 -20 2 -5 14 -40 14 -43 0 -2
3 -9 7 -16 5 -9 7 -18 8 -25 1 -15 4 -32 8 -49 6 -24 3 -118 -3 -130 -5 -10
-5 -10 -2 -25 2 -11 2 -19 0 -25 -1 -5 -2 -16 -3 -25 -2 -22 -6 -41 -11 -51
-2 -4 -5 -14 -5 -20 -1 -7 -3 -16 -5 -20 -2 -4 -4 -11 -5 -15 -1 -5 -2 -9 -3
-10 -1 -1 -3 -6 -4 -13 -1 -6 -3 -13 -3 -15 -1 -2 -4 -8 -7 -12 -3 -4 -7 -11
-8 -16 -3 -11 -10 -26 -18 -37 -7 -9 -10 -11 -44 -42 -16 -15 -23 -22 -27 -31
-4 -8 -8 -13 -14 -17 -4 -3 -11 -8 -16 -12 -14 -12 -31 -21 -43 -23 -10 -1
-13 -2 -18 -8 -11 -12 -28 -11 -41 4 -7 9 -11 11 -20 14 -6 2 -12 5 -14 7 -2
3 -8 7 -13 9 -7 3 -13 9 -18 17 -5 6 -15 18 -23 26 -7 8 -16 20 -18 25 -3 6
-11 16 -20 25 -11 11 -15 16 -16 22 -2 10 -4 14 -14 24 -6 6 -10 13 -12 19 -1
6 -4 13 -6 16 -1 3 -3 9 -4 13 -1 4 -4 12 -8 16 -4 5 -8 12 -9 17 -2 5 -6 13
-9 18 -9 12 -11 17 -11 29 0 5 -2 15 -4 20 -4 9 -5 15 -4 32 0 22 0 22 -7 30
-5 6 -7 10 -8 20 -1 6 -2 18 -3 26 -2 15 -2 62 1 129 2 32 2 33 7 38 9 9 10
15 10 44 0 27 3 37 12 37 3 0 6 11 7 26 0 9 2 17 3 20 2 3 5 11 6 18 2 15 14
41 25 55 4 4 12 18 18 30 10 20 12 24 24 33 7 6 16 14 20 19 4 5 12 11 17 14
5 3 11 8 13 11 2 4 8 9 12 11 5 3 12 10 16 15 5 7 11 11 20 16 7 4 18 11 25
17 15 13 28 15 37 6z"/>
<path d="M332 856 c-12 -4 -13 -9 -11 -73 2 -74 12 -59 -79 -122 -68 -48 -69
-49 -52 -70 13 -15 16 -14 54 14 65 48 68 49 72 49 5 -1 5 -1 4 -165 -1 -198
-2 -184 25 -184 26 0 26 -2 24 110 -4 271 -9 247 48 203 45 -35 46 -36 58 -26
24 21 20 28 -30 64 -87 62 -78 46 -77 125 1 80 -1 85 -36 75z"/>
</g>
</svg>
