<?xml version="1.0" standalone="no"?>
<!DOCTYPE svg PUBLIC "-//W3C//DTD SVG 20010904//EN"
 "http://www.w3.org/TR/2001/REC-SVG-20010904/DTD/svg10.dtd">
<svg version="1.0" xmlns="http://www.w3.org/2000/svg"
 width="61.000000pt" height="100.000000pt" viewBox="0 0 61.000000 100.000000"
 preserveAspectRatio="xMidYMid meet">
<metadata>
Created by potrace 1.16, written by Peter Selinger 2001-2019
</metadata>
<g transform="translate(0.000000,100.000000) scale(0.100000,-0.100000)"
fill="#000000" stroke="none">
<path d="M245 956 c-70 -30 -171 -174 -194 -277 -15 -65 -13 -275 3 -336 22
-82 78 -172 149 -241 91 -86 127 -85 223 8 55 53 85 103 115 190 18 53 22 88
22 185 1 105 -3 131 -27 205 -29 89 -68 150 -133 211 -76 71 -101 80 -158 55z
m132 -110 c70 -74 95 -121 123 -231 39 -149 5 -330 -81 -432 -84 -99 -118
-106 -185 -37 -99 102 -163 273 -150 398 9 78 33 170 56 215 23 47 133 151
158 151 11 0 45 -27 79 -64z"/>
<path d="M269 718 c-1 -7 -2 -35 -3 -63 -1 -49 -2 -50 -58 -88 -37 -25 -58
-45 -58 -58 0 -27 32 -24 68 6 52 43 55 38 52 -102 -4 -164 -4 -163 19 -163
29 0 33 28 25 154 -3 63 -3 119 0 125 5 8 17 3 38 -14 17 -14 38 -25 47 -23
30 6 16 38 -34 76 l-50 38 0 59 c0 55 -2 60 -22 63 -14 2 -24 -2 -24 -10z"/>
</g>
</svg>
