<?xml version="1.0" standalone="no"?>
<!DOCTYPE svg PUBLIC "-//W3C//DTD SVG 20010904//EN"
 "http://www.w3.org/TR/2001/REC-SVG-20010904/DTD/svg10.dtd">
<svg version="1.0" xmlns="http://www.w3.org/2000/svg"
 width="90.000000pt" height="148.000000pt" viewBox="0 0 90.000000 148.000000"
 preserveAspectRatio="xMidYMid meet">
<metadata>
Created by potrace 1.16, written by Peter Selinger 2001-2019
</metadata>
<g transform="translate(0.000000,148.000000) scale(0.100000,-0.100000)"
fill="#000000" stroke="none">
<path d="M386 1423 c-19 -3 -57 -33 -120 -96 -148 -148 -201 -278 -213 -522
-9 -191 17 -314 97 -450 16 -27 33 -59 39 -70 31 -61 198 -222 235 -226 94
-10 258 132 322 280 9 20 20 44 25 53 5 10 9 25 9 33 0 9 6 26 14 38 29 46 48
274 32 382 -10 69 -27 138 -37 149 -5 6 -9 18 -9 28 0 28 -64 159 -100 203
-29 37 -94 106 -138 146 -25 24 -94 59 -112 58 -8 -1 -28 -4 -44 -6z m109 -97
c67 -55 114 -106 154 -165 44 -65 48 -74 73 -161 11 -36 26 -87 34 -115 12
-38 14 -83 10 -190 -6 -155 -23 -241 -67 -327 -5 -10 -9 -24 -9 -32 0 -22
-167 -186 -189 -186 -11 0 -23 -5 -26 -10 -9 -14 -52 -12 -62 3 -4 6 -21 19
-36 26 -32 17 -124 127 -154 186 -62 119 -74 149 -80 197 -3 29 -11 59 -17 67
-15 19 -12 259 3 274 6 6 11 30 11 53 0 24 4 45 9 48 4 3 11 24 15 47 9 59 68
158 122 207 25 23 49 42 55 42 5 0 9 4 9 10 0 12 70 60 89 60 8 0 33 -15 56
-34z"/>
<path d="M399 1058 c-1 -7 0 -47 1 -88 l2 -75 -92 -64 c-60 -43 -89 -69 -85
-79 3 -7 5 -16 5 -18 0 -7 48 -4 52 4 5 11 100 82 111 82 5 0 8 -85 7 -207 -1
-115 -2 -214 -1 -221 1 -8 11 -12 29 -10 l27 3 1 210 c0 116 2 214 2 219 1 5
26 -12 56 -38 60 -51 71 -55 85 -27 13 24 2 38 -76 90 -35 23 -63 47 -64 54 0
7 -1 48 -2 92 -2 79 -2 80 -29 83 -18 2 -28 -2 -29 -10z"/>
</g>
</svg>
