<?xml version="1.0" standalone="no"?>
<!DOCTYPE svg PUBLIC "-//W3C//DTD SVG 20010904//EN"
 "http://www.w3.org/TR/2001/REC-SVG-20010904/DTD/svg10.dtd">
<svg version="1.0" xmlns="http://www.w3.org/2000/svg"
 width="65.000000pt" height="100.000000pt" viewBox="0 0 65.000000 100.000000"
 preserveAspectRatio="xMidYMid meet">
<metadata>
Created by potrace 1.16, written by Peter Selinger 2001-2019
</metadata>
<g transform="translate(0.000000,100.000000) scale(0.100000,-0.100000)"
fill="#000000" stroke="none">
<path d="M250 894 c-80 -62 -108 -94 -148 -172 -39 -75 -55 -144 -65 -272 -8
-104 128 -332 240 -401 54 -34 90 -21 176 64 44 44 83 94 101 128 34 70 50
178 42 284 -5 66 -12 94 -46 161 -22 45 -60 104 -85 132 -49 55 -129 112 -154
111 -9 0 -36 -16 -61 -35z m99 -48 c51 -27 112 -106 158 -204 l45 -97 -5 -90
c-6 -105 -29 -172 -87 -250 -44 -60 -118 -110 -148 -101 -31 10 -137 127 -165
181 -44 89 -57 147 -46 217 25 169 69 257 164 328 47 34 47 34 84 16z"/>
<path d="M280 577 c-41 -24 -76 -49 -78 -57 -1 -8 13 -51 31 -95 26 -62 39
-81 56 -83 26 -4 171 76 171 94 0 15 -59 155 -72 172 -15 18 -26 15 -108 -31z
m107 -68 c27 -54 28 -69 5 -69 -27 0 -80 99 -61 111 22 14 32 6 56 -42z m-95
-6 c29 -33 50 -85 40 -95 -17 -17 -40 -2 -62 42 -29 58 -14 94 22 53z"/>
</g>
</svg>
