<?xml version="1.0" standalone="no"?>
<!DOCTYPE svg PUBLIC "-//W3C//DTD SVG 20010904//EN"
 "http://www.w3.org/TR/2001/REC-SVG-20010904/DTD/svg10.dtd">
<svg version="1.0" xmlns="http://www.w3.org/2000/svg"
 width="94.000000pt" height="148.000000pt" viewBox="0 0 94.000000 148.000000"
 preserveAspectRatio="xMidYMid meet">
<metadata>
Created by potrace 1.16, written by Peter Selinger 2001-2019
</metadata>
<g transform="translate(0.000000,148.000000) scale(0.100000,-0.100000)"
fill="#000000" stroke="none">
<path d="M349 1357 c-41 -35 -92 -84 -114 -109 -40 -46 -125 -201 -125 -229 0
-8 -4 -19 -9 -25 -5 -5 -19 -37 -30 -71 -30 -88 -30 -296 -2 -347 11 -18 23
-56 27 -82 4 -27 18 -66 30 -86 13 -21 24 -43 24 -50 0 -7 9 -24 20 -38 11
-14 20 -32 20 -41 0 -9 9 -24 20 -34 11 -10 20 -24 20 -32 0 -7 4 -13 8 -13 4
0 34 -24 65 -53 34 -32 74 -59 99 -67 24 -7 47 -17 52 -22 18 -15 50 -8 131
32 89 43 136 90 186 184 14 29 31 61 37 71 6 11 23 49 38 84 23 59 26 76 26
211 0 88 -5 156 -11 168 -6 11 -10 29 -9 39 4 26 -47 177 -87 258 -19 39 -50
87 -70 107 -19 20 -35 40 -35 44 0 11 -91 94 -144 132 -25 17 -56 32 -69 32
-15 0 -52 -24 -98 -63z m198 -74 c41 -36 78 -76 83 -87 4 -12 28 -48 52 -81
24 -33 47 -66 52 -72 23 -39 88 -299 86 -343 -1 -8 -2 -55 -3 -105 -2 -72 -8
-104 -31 -160 -33 -81 -90 -180 -134 -229 -69 -79 -185 -110 -242 -66 -14 11
-29 20 -34 20 -14 0 -56 42 -56 55 0 6 -16 27 -36 46 -41 40 -117 190 -135
269 -7 30 -17 61 -23 68 -5 8 -10 76 -10 155 1 128 3 145 22 177 12 19 22 44
22 55 0 10 19 56 42 102 38 77 79 127 179 219 64 60 76 58 166 -23z"/>
<path d="M311 935 c-3 -5 -6 -107 -5 -225 l1 -215 158 0 158 0 -1 219 c-1 120
-3 221 -6 223 -9 10 -298 8 -305 -2z m127 -44 c8 -5 12 -23 10 -47 l-3 -39
-45 0 -45 0 -3 39 c-4 43 8 56 48 56 14 0 31 -4 38 -9z m130 -3 c14 -12 16
-56 3 -76 -5 -8 -23 -12 -47 -10 -37 3 -39 5 -42 42 -2 22 2 42 8 46 18 11 63
9 78 -2z m-123 -168 l0 -45 -45 0 c-44 0 -45 1 -48 33 -5 54 2 64 50 60 l43
-3 0 -45z m131 26 c3 -13 4 -35 2 -47 -3 -21 -8 -24 -48 -24 -44 0 -45 1 -48
33 -5 52 3 62 47 62 35 0 42 -4 47 -24z m-131 -156 l0 -45 -45 0 c-44 0 -45 1
-48 33 -5 54 2 64 50 60 l43 -3 0 -45z m133 21 c2 -12 1 -34 -2 -47 -6 -21
-12 -24 -51 -24 l-45 0 0 43 c0 24 3 47 7 51 4 4 25 6 48 4 33 -3 41 -7 43
-27z"/>
</g>
</svg>
