<?xml version="1.0" standalone="no"?>
<!DOCTYPE svg PUBLIC "-//W3C//DTD SVG 20010904//EN"
 "http://www.w3.org/TR/2001/REC-SVG-20010904/DTD/svg10.dtd">
<svg version="1.0" xmlns="http://www.w3.org/2000/svg"
 width="378.000000pt" height="590.000000pt" viewBox="0 0 378.000000 590.000000"
 preserveAspectRatio="xMidYMid meet">
<metadata>
Created by potrace 1.16, written by Peter Selinger 2001-2019
</metadata>
<g transform="translate(0.000000,590.000000) scale(0.500000,-0.500000)"
fill="#000000" stroke="none">
<path d="M345 1134 c-5 -3 -14 -8 -20 -11 -5 -3 -17 -12 -26 -21 -9 -8 -20
-18 -25 -22 -5 -3 -13 -10 -18 -15 -5 -6 -13 -14 -19 -19 -46 -41 -81 -82 -88
-101 -2 -4 -4 -9 -5 -10 -5 -6 -28 -53 -29 -58 -1 -3 -4 -10 -7 -14 -3 -5 -8
-13 -12 -18 -4 -7 -6 -12 -6 -19 0 -6 -2 -13 -5 -20 -3 -6 -7 -16 -9 -22 -4
-12 -9 -25 -18 -46 -3 -7 -6 -17 -6 -21 0 -4 -1 -10 -3 -13 -2 -4 -3 -15 -3
-49 0 -33 -1 -47 -3 -54 -4 -12 -4 -18 0 -28 2 -6 3 -18 3 -49 0 -38 0 -41 4
-46 3 -4 6 -10 7 -16 2 -5 5 -12 8 -16 3 -4 5 -12 6 -19 1 -7 4 -16 6 -20 4
-6 5 -12 5 -28 1 -19 2 -22 7 -29 3 -5 9 -13 12 -19 3 -6 8 -13 10 -17 3 -4 5
-8 5 -10 0 -8 8 -27 16 -37 9 -12 21 -37 23 -48 1 -6 3 -10 13 -19 11 -11 18
-20 18 -27 0 -4 10 -15 13 -15 2 0 8 -4 13 -9 5 -6 17 -16 26 -24 9 -8 19 -17
22 -22 2 -4 8 -9 12 -11 4 -3 10 -7 14 -10 4 -3 13 -7 20 -9 7 -2 15 -5 18 -7
6 -4 17 -8 24 -8 3 0 9 -3 14 -6 12 -8 47 -9 66 -1 6 3 16 6 21 7 5 1 12 4 16
7 3 2 8 5 11 6 3 1 9 4 14 7 5 3 14 7 20 10 6 3 12 7 14 9 1 2 8 6 14 9 8 4
14 9 18 14 3 5 14 18 26 30 20 22 24 28 24 37 0 3 3 9 9 15 6 7 10 13 11 18 1
5 4 12 7 16 21 33 39 68 39 78 0 3 3 12 8 21 4 9 8 20 10 24 1 4 5 13 7 19 9
19 12 33 9 43 -4 18 -3 121 2 132 4 8 4 8 0 18 -3 8 -4 13 -4 36 0 27 0 27 -7
40 -7 13 -7 14 -7 35 0 19 -1 22 -5 30 -3 4 -7 16 -9 27 -2 10 -7 26 -11 35
-5 12 -7 21 -7 27 0 9 -3 17 -24 57 -13 27 -26 53 -28 59 -5 16 -19 34 -33 45
-7 6 -13 11 -13 12 0 1 -5 8 -12 15 -7 8 -13 17 -14 22 -2 5 -6 10 -11 14 -17
14 -24 20 -31 31 -10 15 -20 23 -31 26 -6 2 -13 6 -21 13 -6 6 -16 13 -22 17
-7 3 -16 10 -21 15 -18 16 -34 18 -52 7z m37 -60 c13 -7 18 -11 28 -24 5 -6
12 -12 17 -14 4 -2 16 -13 28 -23 11 -10 22 -20 24 -21 9 -6 25 -26 28 -35 4
-10 32 -54 40 -63 2 -3 10 -13 17 -23 6 -10 14 -20 17 -23 10 -9 33 -68 33
-83 0 -2 3 -10 6 -17 4 -7 7 -19 8 -26 1 -7 4 -15 6 -18 8 -11 12 -26 14 -50
1 -13 2 -25 3 -27 2 -2 3 -11 4 -19 0 -10 2 -18 5 -24 5 -9 4 -27 -2 -57 -2
-10 -2 -29 1 -89 1 -26 -2 -40 -16 -62 -8 -13 -15 -32 -15 -39 0 -5 -17 -41
-26 -54 -3 -4 -9 -14 -13 -21 -4 -7 -12 -21 -17 -30 -6 -9 -12 -22 -15 -27
-10 -26 -54 -64 -97 -86 l-38 -19 -32 0 c-33 1 -47 6 -73 27 -4 3 -12 8 -16
10 -11 4 -37 31 -43 43 -2 5 -8 13 -13 18 -4 5 -11 13 -14 17 -3 4 -10 11 -16
15 -12 9 -13 10 -18 28 -2 6 -7 16 -12 23 -5 6 -11 16 -14 22 -3 5 -6 12 -8
15 -2 3 -3 7 -3 9 0 4 -16 38 -22 47 -2 3 -4 10 -5 16 -1 6 -3 14 -4 17 -1 3
-3 10 -4 14 -1 4 -4 12 -6 17 -4 5 -6 12 -6 22 -1 11 -3 16 -8 24 -6 9 -6 9
-7 44 -1 19 -2 38 -4 42 -3 10 -3 65 1 76 2 6 3 21 4 41 l0 33 12 17 c13 20
18 31 22 52 1 8 4 18 6 22 3 4 6 12 7 16 3 10 18 40 25 50 3 4 11 19 19 33 9
18 16 29 25 38 7 7 14 16 17 20 7 12 46 49 54 51 4 1 8 4 12 9 22 27 27 33 34
37 4 3 12 5 17 6 6 1 13 3 16 5 7 5 6 5 17 -2z"/>
<path d="M255 756 c-7 -4 -7 -1 -7 -181 0 -184 0 -175 7 -179 10 -4 242 -3
247 2 5 3 5 3 4 177 0 187 0 177 -7 181 -7 3 -238 3 -244 0z m103 -44 c6 -6 6
-57 0 -64 -5 -7 -61 -7 -66 0 -23 27 -3 68 33 68 26 0 29 0 33 -4z m102 0 c7
-5 8 -57 2 -63 -9 -8 -64 -6 -68 2 -5 12 -2 59 5 63 5 4 56 2 61 -2z m-101
-103 c4 -5 4 -59 0 -64 -4 -6 -63 -6 -68 0 -5 4 -6 59 -1 63 6 7 65 7 69 1z
m103 1 c5 -4 5 -58 0 -64 -8 -10 -64 -8 -68 2 -4 10 -2 60 3 63 5 4 61 3 65
-1z m-104 -104 c24 -24 2 -70 -33 -70 -35 0 -60 57 -31 71 9 5 59 4 64 -1z
m103 -1 c7 -6 6 -60 -1 -65 -6 -5 -57 -6 -63 -1 -6 4 -6 64 0 68 6 5 59 3 64
-2z"/>
</g>
</svg>
