<?xml version="1.0" standalone="no"?>
<!DOCTYPE svg PUBLIC "-//W3C//DTD SVG 20010904//EN"
 "http://www.w3.org/TR/2001/REC-SVG-20010904/DTD/svg10.dtd">
<svg version="1.0" xmlns="http://www.w3.org/2000/svg"
 width="64.000000pt" height="100.000000pt" viewBox="0 0 64.000000 100.000000"
 preserveAspectRatio="xMidYMid meet">
<metadata>
Created by potrace 1.16, written by Peter Selinger 2001-2019
</metadata>
<g transform="translate(0.000000,100.000000) scale(0.100000,-0.100000)"
fill="#000000" stroke="none">
<path d="M203 888 c-152 -147 -208 -341 -152 -524 79 -258 234 -382 370 -296
60 39 95 82 141 176 36 77 38 84 38 181 0 217 -82 396 -234 507 -60 43 -78 38
-163 -44z m178 -41 c107 -104 169 -256 169 -413 0 -91 -20 -150 -82 -247 -33
-51 -99 -97 -140 -97 -61 0 -152 102 -202 226 -59 146 -57 247 7 387 39 85
138 197 174 197 11 0 44 -23 74 -53z"/>
<path d="M223 640 c-22 -9 -23 -14 -23 -128 0 -66 3 -134 6 -151 l7 -32 106 3
106 3 3 144 c1 80 -2 149 -7 154 -13 13 -171 19 -198 7z"/>
</g>
</svg>
