<?xml version="1.0" standalone="no"?>
<!DOCTYPE svg PUBLIC "-//W3C//DTD SVG 20010904//EN"
 "http://www.w3.org/TR/2001/REC-SVG-20010904/DTD/svg10.dtd">
<svg version="1.0" xmlns="http://www.w3.org/2000/svg"
 width="64.000000pt" height="100.000000pt" viewBox="0 0 64.000000 100.000000"
 preserveAspectRatio="xMidYMid meet">
<metadata>
Created by potrace 1.16, written by Peter Selinger 2001-2019
</metadata>
<g transform="translate(0.000000,100.000000) scale(0.100000,-0.100000)"
fill="#000000" stroke="none">
<path d="M203 888 c-152 -147 -208 -341 -152 -524 79 -258 234 -382 370 -296
60 39 95 82 141 176 36 77 38 84 38 181 0 217 -82 396 -234 507 -60 43 -78 38
-163 -44z m163 -26 c57 -51 127 -157 154 -233 15 -44 24 -96 27 -169 5 -98 3
-109 -21 -165 -58 -131 -130 -205 -198 -205 -56 0 -137 83 -188 193 -74 157
-77 269 -11 411 43 93 140 206 176 206 11 -1 39 -18 61 -38z"/>
<path d="M246 590 c-97 -102 -107 -121 -84 -163 24 -46 100 -137 114 -137 22
0 214 190 214 212 0 19 -93 166 -114 180 -22 15 -36 6 -130 -92z m134 10 c0
-16 -122 -144 -154 -162 -8 -5 -19 -1 -27 8 -11 13 0 27 71 99 80 80 110 95
110 55z m58 -85 c4 -30 -44 -73 -65 -59 -26 16 -26 28 2 58 28 31 59 31 63 1z
m-99 -79 c25 -30 -45 -100 -75 -75 -20 17 -18 29 13 61 30 31 45 35 62 14z"/>
</g>
</svg>
