<?xml version="1.0" standalone="no"?>
<!DOCTYPE svg PUBLIC "-//W3C//DTD SVG 20010904//EN"
 "http://www.w3.org/TR/2001/REC-SVG-20010904/DTD/svg10.dtd">
<svg version="1.0" xmlns="http://www.w3.org/2000/svg"
 width="94.000000pt" height="148.000000pt" viewBox="0 0 94.000000 148.000000"
 preserveAspectRatio="xMidYMid meet">
<metadata>
Created by potrace 1.16, written by Peter Selinger 2001-2019
</metadata>
<g transform="translate(0.000000,148.000000) scale(0.100000,-0.100000)"
fill="#000000" stroke="none">
<path d="M349 1357 c-41 -35 -92 -84 -114 -109 -40 -46 -125 -201 -125 -229 0
-8 -4 -19 -9 -25 -5 -5 -19 -37 -30 -71 -30 -90 -30 -296 -1 -349 11 -19 23
-57 27 -82 3 -26 17 -64 30 -84 12 -21 23 -43 23 -50 0 -7 9 -24 20 -38 11
-14 20 -32 20 -41 0 -9 9 -24 20 -34 11 -10 20 -24 20 -32 0 -7 4 -13 8 -13 4
0 34 -24 65 -53 34 -32 74 -59 99 -67 24 -7 47 -17 52 -22 18 -15 50 -8 131
32 89 43 136 90 186 184 14 29 31 61 37 71 6 11 23 49 38 84 23 59 26 76 26
211 0 88 -5 156 -11 168 -6 11 -10 29 -9 39 4 26 -47 177 -87 258 -19 39 -50
87 -70 107 -19 20 -35 40 -35 44 0 11 -91 94 -144 132 -25 17 -56 32 -69 32
-15 0 -52 -24 -98 -63z m198 -74 c41 -36 78 -76 83 -87 4 -12 28 -48 52 -81
24 -33 47 -66 52 -72 23 -39 88 -299 86 -343 -1 -8 -2 -55 -3 -105 -2 -72 -8
-104 -31 -160 -33 -81 -90 -180 -134 -229 -69 -79 -185 -110 -242 -66 -14 11
-29 20 -34 20 -14 0 -56 42 -56 55 0 6 -16 27 -36 46 -40 38 -113 183 -139
274 -40 140 -42 337 -4 399 11 17 19 40 19 51 0 10 19 56 42 102 38 77 79 127
179 219 64 60 76 58 166 -23z"/>
<path d="M381 874 c-176 -183 -178 -186 -158 -218 9 -13 22 -29 29 -37 7 -8
34 -41 58 -75 25 -33 54 -72 65 -87 11 -15 24 -27 30 -27 15 0 315 303 315
318 0 11 -122 186 -172 246 l-24 28 -143 -148z m177 43 c12 -18 22 -38 22 -44
0 -13 -254 -253 -268 -253 -6 0 -20 14 -32 30 l-21 30 127 135 c71 74 133 135
139 135 5 0 20 -15 33 -33z m85 -121 c15 -19 27 -38 27 -43 0 -4 -23 -31 -52
-60 l-52 -53 -33 32 c-18 18 -33 37 -33 42 0 11 100 116 110 116 3 0 17 -16
33 -34z m-139 -149 l30 -37 -50 -51 c-73 -75 -77 -76 -113 -27 l-31 42 57 58
c32 32 62 57 67 55 5 -2 23 -20 40 -40z"/>
</g>
</svg>
