<?xml version="1.0" standalone="no"?>
<!DOCTYPE svg PUBLIC "-//W3C//DTD SVG 20010904//EN"
 "http://www.w3.org/TR/2001/REC-SVG-20010904/DTD/svg10.dtd">
<svg version="1.0" xmlns="http://www.w3.org/2000/svg"
 width="360.000000pt" height="590.000000pt" viewBox="0 0 360.000000 590.000000"
 preserveAspectRatio="xMidYMid meet">
<metadata>
Created by potrace 1.16, written by Peter Selinger 2001-2019
</metadata>
<g transform="translate(0.000000,590.000000) scale(0.500000,-0.500000)"
fill="#000000" stroke="none">
<path d="M333 1137 c-6 -2 -16 -3 -24 -4 -15 -1 -17 -2 -43 -20 -19 -12 -88
-80 -99 -97 -5 -7 -12 -17 -16 -22 -21 -27 -59 -96 -68 -122 -2 -5 -6 -17 -9
-26 -4 -9 -7 -22 -8 -29 -1 -7 -4 -17 -5 -23 -2 -6 -3 -17 -4 -24 0 -7 -2 -19
-5 -27 -3 -12 -9 -98 -8 -129 0 -2 1 -25 2 -53 1 -27 2 -58 2 -67 0 -18 0 -20
9 -43 3 -8 7 -20 8 -28 2 -8 4 -18 6 -22 1 -4 3 -11 3 -14 0 -17 14 -49 28
-67 5 -7 11 -15 12 -18 8 -22 20 -46 29 -58 5 -7 11 -16 12 -19 2 -3 7 -10 12
-16 4 -5 10 -14 13 -18 3 -4 14 -17 25 -29 11 -11 22 -24 26 -29 3 -6 12 -15
20 -21 23 -20 52 -41 59 -45 4 -2 12 -7 18 -11 14 -9 22 -11 36 -7 6 1 18 4
26 5 10 2 17 4 24 9 6 4 15 9 20 10 9 3 15 7 36 28 14 13 33 30 41 38 10 9 21
21 29 33 8 11 17 24 21 30 11 14 21 30 30 51 5 10 11 22 14 26 2 5 5 11 6 14
1 3 5 13 9 22 3 9 8 21 9 27 2 7 7 21 13 32 9 18 10 21 10 34 0 25 4 51 8 60
4 7 4 12 4 40 0 22 1 34 3 41 4 14 4 101 0 112 -1 5 -3 15 -4 24 -1 9 -3 20
-4 25 -2 4 -4 15 -5 24 -1 8 -4 20 -6 26 -2 6 -4 15 -5 19 -1 4 -4 13 -7 19
-6 12 -13 34 -15 48 -1 4 -5 15 -9 23 -4 8 -9 20 -11 26 -5 19 -24 51 -44 75
-10 12 -21 27 -24 32 -10 14 -72 78 -83 85 -5 3 -13 10 -17 15 -4 5 -11 10
-15 12 -4 1 -10 5 -14 8 -20 16 -46 21 -71 15z m30 -52 c11 -6 38 -28 57 -46
12 -11 27 -25 35 -32 14 -12 49 -55 63 -76 4 -7 10 -15 13 -18 14 -18 43 -81
44 -97 1 -8 3 -17 4 -19 1 -2 4 -9 6 -15 5 -19 9 -31 17 -46 6 -11 8 -18 8
-24 0 -11 4 -35 7 -47 5 -17 4 -118 -1 -131 -3 -8 -4 -14 -4 -33 1 -39 -4 -76
-14 -94 -2 -5 -4 -14 -5 -21 -1 -7 -3 -17 -5 -21 -2 -4 -4 -10 -4 -12 0 -2 -2
-7 -4 -11 -2 -4 -4 -12 -5 -18 -2 -13 -3 -17 -11 -25 -3 -4 -6 -10 -7 -14 -3
-17 -23 -48 -38 -59 -16 -11 -44 -41 -48 -50 -5 -10 -12 -17 -24 -24 -4 -3
-10 -7 -12 -10 -6 -7 -27 -17 -40 -18 -10 -1 -12 -3 -18 -9 -9 -9 -26 -10 -34
-2 -11 13 -16 17 -25 20 -5 2 -13 6 -17 9 -5 4 -11 8 -15 10 -4 2 -11 8 -14
13 -4 6 -14 18 -23 29 -9 10 -18 21 -20 25 -2 4 -9 14 -18 23 -11 12 -15 17
-17 25 -2 7 -5 13 -13 21 -8 8 -11 14 -12 19 -1 4 -3 11 -5 15 -2 4 -4 10 -5
14 -1 4 -4 12 -8 16 -4 5 -8 11 -8 14 -2 8 -5 14 -11 22 -7 9 -12 24 -11 31 1
3 -1 10 -3 17 -4 11 -4 17 -4 34 0 20 0 20 -7 27 -4 4 -7 9 -8 12 -9 44 -4
195 7 206 7 7 7 7 8 37 1 30 3 37 10 39 5 2 7 9 9 27 1 8 3 18 5 23 2 4 4 11
4 16 0 8 17 44 26 54 3 4 10 17 17 29 9 19 13 25 20 30 5 3 15 13 21 20 7 8
15 16 18 17 3 2 10 7 16 12 5 4 12 10 15 12 3 2 8 8 12 13 6 8 10 11 20 16 8
4 17 10 22 14 14 13 25 17 34 11z"/>
<path d="M229 758 c-29 -2 -26 20 -26 -179 1 -93 1 -172 1 -173 0 -10 6 -12
34 -12 33 0 44 9 29 23 -5 5 -7 5 -23 8 -23 4 -20 81 2 81 19 0 28 7 25 21 -2
9 -8 13 -21 13 -20 0 -20 1 -20 39 0 38 0 38 21 41 33 4 28 34 -5 34 -15 0
-16 3 -16 34 0 36 1 38 22 38 8 0 11 1 15 5 10 10 4 27 -9 27 -3 0 -7 0 -8 1
-2 0 -11 0 -21 -1z"/>
<path d="M338 746 c-4 -3 -7 -322 -3 -336 2 -7 8 -8 89 -8 85 0 87 0 90 11 2
7 1 324 -1 329 -3 7 -9 8 -91 8 -74 0 -80 0 -84 -4z m64 -29 c4 -4 6 -101 2
-111 -4 -9 -25 -12 -34 -4 -5 4 -7 94 -3 111 2 9 27 12 35 4z m83 0 c7 -6 6
-274 -1 -279 -7 -6 -39 -5 -43 1 -4 5 -4 269 -1 275 5 9 38 11 45 3z m-84
-154 c7 -5 6 -120 -1 -125 -6 -5 -24 -5 -30 0 -8 6 -9 117 -1 125 4 4 27 4 32
0z"/>
</g>
</svg>
