<?xml version="1.0" standalone="no"?>
<!DOCTYPE svg PUBLIC "-//W3C//DTD SVG 20010904//EN"
 "http://www.w3.org/TR/2001/REC-SVG-20010904/DTD/svg10.dtd">
<svg version="1.0" xmlns="http://www.w3.org/2000/svg"
 width="90.000000pt" height="148.000000pt" viewBox="0 0 90.000000 148.000000"
 preserveAspectRatio="xMidYMid meet">
<metadata>
Created by potrace 1.16, written by Peter Selinger 2001-2019
</metadata>
<g transform="translate(0.000000,148.000000) scale(0.100000,-0.100000)"
fill="#000000" stroke="none">
<path d="M292 1354 c-75 -69 -147 -167 -183 -250 -47 -110 -72 -356 -49 -489
20 -112 40 -179 64 -214 14 -20 26 -42 26 -47 0 -17 93 -144 140 -192 23 -23
65 -59 94 -78 57 -38 50 -38 141 2 48 21 146 124 193 202 23 40 42 79 42 87 0
7 5 17 10 20 6 3 10 15 10 26 0 11 6 30 14 42 14 22 26 91 32 177 1 25 5 68 8
95 3 28 2 68 -3 90 -5 22 -15 67 -21 100 -7 32 -16 66 -20 75 -4 8 -21 49 -36
90 -33 85 -86 160 -171 240 -82 79 -103 90 -166 90 -53 0 -56 -2 -125 -66z
m203 -28 c88 -72 141 -135 194 -229 11 -21 21 -45 21 -55 0 -9 9 -42 21 -72
34 -89 41 -147 36 -285 -6 -143 -25 -232 -68 -317 -5 -10 -9 -24 -9 -31 0 -23
-144 -164 -189 -186 -48 -22 -81 -27 -81 -11 0 5 -16 17 -35 26 -44 21 -140
137 -176 214 -6 14 -22 46 -36 72 -13 26 -27 71 -30 100 -3 29 -11 59 -17 67
-15 19 -12 259 3 274 6 6 11 30 11 53 0 24 4 45 9 48 4 3 11 24 15 47 4 23 22
70 41 104 34 59 113 145 134 145 6 0 11 4 11 10 0 12 70 59 89 59 8 1 33 -14
56 -33z"/>
<path d="M255 938 c-3 -7 -4 -110 -3 -228 l3 -215 43 -3 c51 -4 58 17 12 35
-27 10 -30 15 -30 56 0 42 2 46 28 49 19 2 27 9 27 23 0 14 -8 21 -27 23 -26
3 -28 7 -28 47 0 40 2 44 28 47 39 4 38 42 -1 46 -26 3 -28 6 -25 45 3 38 6
42 31 45 20 3 27 8 25 20 -4 22 -76 30 -83 10z"/>
<path d="M415 928 c-3 -8 -4 -106 -3 -218 l3 -205 110 0 110 0 0 215 0 215
-108 3 c-81 2 -109 0 -112 -10z m95 -102 c0 -67 -15 -94 -45 -82 -11 4 -15 22
-15 74 0 74 12 97 42 81 15 -8 18 -22 18 -73z m100 -106 l0 -180 -35 0 -35 0
0 173 c0 96 3 177 7 180 3 4 19 7 35 7 l28 0 0 -180z m-106 -26 c3 -9 6 -47 6
-85 l0 -69 -30 0 -30 0 0 78 c0 43 3 82 7 85 12 13 41 7 47 -9z"/>
</g>
</svg>
