<?xml version="1.0" standalone="no"?>
<!DOCTYPE svg PUBLIC "-//W3C//DTD SVG 20010904//EN"
 "http://www.w3.org/TR/2001/REC-SVG-20010904/DTD/svg10.dtd">
<svg version="1.0" xmlns="http://www.w3.org/2000/svg"
 width="61.000000pt" height="100.000000pt" viewBox="0 0 61.000000 100.000000"
 preserveAspectRatio="xMidYMid meet">
<metadata>
Created by potrace 1.16, written by Peter Selinger 2001-2019
</metadata>
<g transform="translate(0.000000,100.000000) scale(0.100000,-0.100000)"
fill="#000000" stroke="none">
<path d="M254 959 c-36 -10 -119 -94 -157 -159 -14 -25 -33 -72 -41 -105 -20
-76 -21 -280 -2 -352 22 -82 78 -172 149 -241 92 -88 128 -86 228 13 90 89
132 209 133 380 1 154 -41 275 -129 373 -78 86 -121 108 -181 91z m120 -109
c98 -102 153 -255 142 -390 -10 -120 -41 -209 -96 -276 -27 -32 -63 -66 -81
-76 -30 -16 -34 -16 -62 0 -70 40 -155 181 -183 302 -14 62 -15 86 -5 161 17
129 44 191 119 271 42 44 72 68 87 68 14 0 43 -22 79 -60z"/>
<path d="M171 628 c-4 -13 -5 -86 -2 -163 6 -136 7 -140 29 -143 29 -4 40 23
18 47 -20 22 -20 30 1 53 15 17 15 19 0 36 -10 10 -17 25 -17 32 0 7 7 22 17
32 15 17 15 19 -2 38 -17 19 -17 21 -2 38 26 28 22 52 -8 52 -17 0 -28 -7 -34
-22z"/>
<path d="M282 488 l3 -153 69 -3 c49 -2 72 1 77 10 10 15 12 258 3 282 -5 13
-22 16 -80 16 l-75 0 3 -152z m122 96 c9 -24 7 -187 -3 -203 -5 -7 -14 -10
-20 -7 -12 8 -16 208 -4 219 11 11 20 8 27 -9z"/>
</g>
</svg>
