<?xml version="1.0" standalone="no"?>
<!DOCTYPE svg PUBLIC "-//W3C//DTD SVG 20010904//EN"
 "http://www.w3.org/TR/2001/REC-SVG-20010904/DTD/svg10.dtd">
<svg version="1.0" xmlns="http://www.w3.org/2000/svg"
 width="360.000000pt" height="590.000000pt" viewBox="0 0 360.000000 590.000000"
 preserveAspectRatio="xMidYMid meet">
<metadata>
Created by potrace 1.16, written by Peter Selinger 2001-2019
</metadata>
<g transform="translate(0.000000,590.000000) scale(0.500000,-0.500000)"
fill="#000000" stroke="none">
<path d="M327 1154 c-4 -3 -40 -26 -61 -41 -24 -16 -86 -77 -99 -96 -4 -5 -11
-15 -16 -21 -4 -6 -11 -15 -15 -20 -3 -5 -9 -14 -12 -20 -3 -6 -10 -20 -16
-31 -18 -34 -22 -43 -28 -62 -4 -10 -9 -23 -11 -29 -3 -7 -5 -15 -5 -19 0 -5
-1 -13 -3 -19 -2 -6 -3 -16 -3 -21 0 -6 -2 -16 -4 -23 -13 -39 -14 -268 -1
-291 3 -8 16 -53 20 -75 6 -29 15 -50 29 -67 4 -5 10 -14 12 -20 7 -18 22 -47
28 -55 3 -3 8 -11 11 -16 3 -5 8 -13 11 -16 3 -4 9 -12 14 -19 5 -7 17 -21 27
-31 10 -11 21 -23 24 -28 11 -15 63 -59 83 -69 4 -2 11 -6 15 -9 18 -13 77 -7
91 9 1 1 7 5 14 7 14 6 19 9 44 33 12 11 28 26 36 34 11 9 21 20 31 36 8 12
19 27 24 34 16 22 57 109 63 134 1 5 7 18 12 30 10 19 10 21 11 38 2 28 5 48
8 55 7 12 11 173 6 203 -2 10 -4 23 -5 29 -1 7 -2 13 -3 14 0 1 -2 9 -3 17 -1
9 -4 23 -7 31 -3 8 -5 16 -5 18 0 2 -3 10 -7 19 -4 8 -9 25 -12 37 -3 11 -9
28 -13 36 -4 9 -9 20 -10 25 -4 18 -24 51 -48 81 -7 8 -18 23 -26 33 -8 10
-23 27 -35 38 -11 11 -22 23 -24 26 -2 3 -8 8 -14 11 -6 4 -15 11 -20 16 -4 5
-12 12 -17 14 -5 3 -17 10 -26 17 -31 21 -53 29 -65 23z m44 -73 c5 -5 15 -12
22 -18 7 -5 18 -15 24 -22 5 -6 15 -16 22 -21 16 -12 30 -25 38 -36 3 -5 10
-14 16 -21 6 -7 16 -20 22 -29 6 -9 14 -19 16 -22 12 -13 43 -79 44 -94 1 -8
3 -19 5 -24 5 -14 10 -28 12 -38 2 -5 6 -15 9 -22 6 -10 8 -15 9 -32 2 -20 2
-24 7 -43 6 -21 3 -117 -3 -130 -4 -9 -4 -10 -2 -23 2 -10 2 -17 0 -25 -1 -7
-2 -17 -2 -22 0 -13 -7 -41 -12 -51 -2 -4 -5 -14 -5 -21 -1 -8 -3 -17 -4 -20
-2 -3 -5 -10 -6 -15 -1 -5 -4 -13 -6 -17 -1 -4 -3 -11 -3 -15 0 -6 -2 -10 -7
-17 -4 -5 -9 -14 -10 -19 -4 -16 -28 -54 -33 -54 -2 0 -16 -12 -39 -34 -6 -6
-13 -14 -16 -20 -3 -5 -9 -13 -13 -16 -5 -4 -12 -10 -17 -14 -13 -12 -31 -21
-44 -22 -10 -1 -12 -3 -18 -9 -12 -13 -29 -10 -41 8 -3 3 -9 6 -15 9 -7 2 -14
6 -18 9 -3 3 -10 7 -15 10 -7 4 -12 8 -17 16 -3 5 -13 17 -22 27 -8 9 -16 19
-18 23 -2 5 -10 15 -19 24 -13 14 -16 18 -17 25 -1 6 -4 11 -12 20 -6 7 -12
16 -13 20 -1 4 -4 12 -6 17 -2 6 -4 12 -5 15 0 3 -4 10 -9 15 -4 6 -8 14 -9
18 0 5 -4 11 -8 17 -8 9 -11 17 -11 31 0 5 -1 12 -3 16 -3 4 -4 13 -5 32 -1
25 -1 25 -7 32 -4 4 -7 10 -8 14 -3 23 -5 74 -4 99 1 16 2 44 3 61 1 33 1 33
8 40 7 7 7 7 8 38 1 31 1 31 9 38 7 6 8 7 9 24 1 10 3 21 5 25 2 3 4 11 5 18
2 14 15 42 26 56 3 4 11 17 17 30 9 16 13 23 18 26 4 2 13 11 21 19 7 8 17 17
22 20 8 4 11 7 39 35 8 7 19 16 24 19 6 2 15 9 21 15 17 15 27 16 41 5z"/>
<path d="M346 814 c-6 -3 -40 -20 -75 -38 -85 -42 -83 -38 -59 -102 3 -9 7
-21 9 -25 3 -8 13 -37 30 -85 5 -14 11 -30 13 -37 12 -36 20 -37 84 -1 26 15
77 40 88 43 24 8 26 15 13 46 -6 13 -8 18 -16 39 -9 24 -34 90 -42 111 -3 7
-6 17 -7 22 -6 30 -18 39 -38 27z m5 -49 c3 -4 19 -43 49 -118 18 -48 18 -48
-3 -59 -23 -12 -18 -19 -65 93 -32 73 -31 69 -14 78 23 12 29 13 33 6z m-78
-36 c3 -5 10 -19 35 -76 10 -23 22 -51 27 -62 13 -28 12 -30 -12 -42 -26 -13
-28 -12 -40 23 -9 28 -13 39 -29 84 -22 62 -22 62 -7 70 12 7 21 7 26 3z"/>
<path d="M474 571 c-12 -6 -29 -15 -38 -20 -9 -6 -25 -15 -35 -20 -10 -5 -21
-11 -24 -13 -11 -7 -58 -31 -83 -44 -39 -20 -40 -20 -21 -59 14 -32 20 -39 30
-39 18 0 22 13 10 37 -10 22 -9 26 6 34 17 10 19 9 30 -14 12 -26 21 -30 36
-19 7 6 6 11 -4 33 -13 28 -13 29 16 44 19 10 23 9 33 -10 12 -22 19 -25 33
-16 8 5 8 11 -2 31 -11 22 -10 24 6 33 23 13 24 12 37 -14 10 -21 17 -25 27
-20 16 7 15 12 -3 48 -14 29 -17 34 -24 37 -9 3 -8 3 -30 -9z"/>
</g>
</svg>
