<?xml version="1.0" standalone="no"?>
<!DOCTYPE svg PUBLIC "-//W3C//DTD SVG 20010904//EN"
 "http://www.w3.org/TR/2001/REC-SVG-20010904/DTD/svg10.dtd">
<svg version="1.0" xmlns="http://www.w3.org/2000/svg"
 width="90.000000pt" height="148.000000pt" viewBox="0 0 90.000000 148.000000"
 preserveAspectRatio="xMidYMid meet">
<metadata>
Created by potrace 1.16, written by Peter Selinger 2001-2019
</metadata>
<g transform="translate(0.000000,148.000000) scale(0.100000,-0.100000)"
fill="#000000" stroke="none">
<path d="M344 1396 c-161 -120 -247 -263 -280 -467 -20 -125 -15 -319 10 -389
9 -25 16 -53 16 -64 0 -29 97 -195 153 -261 59 -71 87 -97 145 -135 45 -30 73
-29 134 3 75 39 184 165 227 262 7 17 17 38 22 47 5 10 9 25 9 33 0 9 6 26 14
38 28 44 52 300 36 376 -6 25 -16 69 -22 96 -6 28 -14 55 -18 60 -4 6 -13 31
-20 58 -7 26 -17 50 -21 53 -5 3 -9 13 -9 22 0 29 -120 176 -197 242 -36 31
-104 70 -122 70 -10 0 -45 -20 -77 -44z m150 -70 c70 -59 90 -79 133 -136 51
-68 83 -125 83 -148 0 -9 12 -49 27 -87 26 -66 27 -79 27 -230 0 -179 -15
-259 -65 -357 -5 -10 -9 -24 -9 -31 0 -23 -144 -164 -189 -186 -48 -22 -81
-27 -81 -11 0 5 -15 16 -34 25 -44 21 -143 142 -177 215 -6 14 -22 47 -36 75
-13 27 -27 72 -30 100 -3 27 -11 56 -17 64 -15 19 -12 259 3 274 6 6 11 30 11
53 0 24 4 45 9 48 4 3 11 24 15 47 9 59 68 158 122 207 25 23 49 42 55 42 5 0
9 4 9 10 0 12 70 60 89 60 8 0 32 -15 55 -34z"/>
<path d="M345 976 c-108 -55 -114 -65 -85 -131 5 -11 18 -49 30 -85 26 -78 48
-127 59 -134 5 -3 55 18 113 48 119 60 113 41 58 186 -18 47 -35 96 -37 110
-7 33 -22 50 -42 49 -9 -1 -52 -20 -96 -43z m135 -125 c22 -57 40 -105 38
-106 -10 -8 -50 -26 -53 -23 -9 9 -85 195 -85 209 0 17 41 41 52 30 3 -3 25
-53 48 -110z m-119 16 c7 -18 25 -61 41 -96 31 -68 29 -81 -17 -95 -18 -5 -24
7 -59 106 -37 106 -38 112 -21 125 23 16 38 5 56 -40z"/>
<path d="M570 701 c-14 -11 -74 -45 -135 -76 -60 -32 -111 -59 -113 -60 -2 -2
6 -24 18 -49 14 -32 26 -46 40 -46 23 0 25 12 8 40 -9 15 -10 25 -2 37 17 28
32 26 49 -6 16 -32 45 -42 45 -16 0 8 -5 24 -12 34 -6 10 -8 26 -5 34 7 19 59
35 64 20 2 -6 10 -19 18 -29 11 -15 16 -16 26 -7 10 10 10 18 0 39 -9 20 -9
30 0 40 20 24 46 16 58 -16 10 -29 34 -40 46 -21 3 5 -5 30 -17 55 -25 51 -46
58 -88 27z"/>
</g>
</svg>
