<?xml version="1.0" standalone="no"?>
<!DOCTYPE svg PUBLIC "-//W3C//DTD SVG 20010904//EN"
 "http://www.w3.org/TR/2001/REC-SVG-20010904/DTD/svg10.dtd">
<svg version="1.0" xmlns="http://www.w3.org/2000/svg"
 width="61.000000pt" height="100.000000pt" viewBox="0 0 61.000000 100.000000"
 preserveAspectRatio="xMidYMid meet">
<metadata>
Created by potrace 1.16, written by Peter Selinger 2001-2019
</metadata>
<g transform="translate(0.000000,100.000000) scale(0.100000,-0.100000)"
fill="#000000" stroke="none">
<path d="M224 942 c-130 -94 -188 -225 -188 -422 0 -185 47 -302 167 -418 59
-56 69 -62 107 -62 37 0 48 6 104 60 107 103 149 212 150 390 0 100 -4 126
-28 200 -31 94 -63 145 -128 206 -88 84 -121 92 -184 46z m158 -101 c67 -74
93 -126 120 -237 20 -77 21 -95 11 -173 -15 -113 -44 -189 -99 -253 -75 -88
-111 -97 -167 -43 -46 45 -91 111 -125 183 -25 53 -27 67 -27 187 0 184 20
243 120 343 85 86 83 86 167 -7z"/>
<path d="M234 665 c-34 -19 -64 -41 -67 -48 -7 -20 41 -158 62 -180 18 -18 20
-18 59 2 65 33 63 24 -3 -13 -63 -34 -76 -57 -55 -95 16 -30 40 -27 40 5 0 21
4 25 18 19 33 -13 37 -10 34 23 -2 26 2 32 17 32 11 0 23 -4 26 -10 12 -19 25
-10 25 16 0 21 3 25 18 19 39 -16 52 -17 52 -3 0 22 -29 56 -51 60 -16 2 -26
21 -49 91 -26 82 -44 117 -59 117 -3 0 -34 -16 -67 -35z m79 -69 c27 -56 33
-96 15 -96 -16 0 -58 89 -58 122 0 30 23 16 43 -26z m-57 -42 c25 -56 28 -87
9 -88 -13 -1 -41 60 -50 107 -11 57 12 46 41 -19z"/>
</g>
</svg>
