<?xml version="1.0" standalone="no"?>
<!DOCTYPE svg PUBLIC "-//W3C//DTD SVG 20010904//EN"
 "http://www.w3.org/TR/2001/REC-SVG-20010904/DTD/svg10.dtd">
<svg version="1.0" xmlns="http://www.w3.org/2000/svg"
 width="374.000000pt" height="590.000000pt" viewBox="0 0 374.000000 590.000000"
 preserveAspectRatio="xMidYMid meet">
<metadata>
Created by potrace 1.16, written by Peter Selinger 2001-2019
</metadata>
<g transform="translate(0.000000,590.000000) scale(0.500000,-0.500000)"
fill="#000000" stroke="none">
<path d="M340 1139 c-7 -3 -30 -20 -45 -33 -9 -8 -22 -18 -30 -24 -8 -5 -15
-11 -17 -13 -1 -2 -6 -5 -10 -7 -4 -2 -12 -10 -18 -18 -5 -7 -13 -16 -17 -18
-3 -2 -10 -9 -16 -15 -5 -6 -14 -14 -19 -18 -9 -6 -17 -15 -31 -34 -4 -5 -11
-15 -16 -21 -10 -11 -15 -22 -18 -42 -1 -4 -4 -12 -7 -18 -3 -6 -6 -12 -6 -15
0 -2 -3 -8 -6 -12 -6 -7 -6 -9 -6 -23 0 -21 -7 -47 -13 -54 -4 -4 -6 -9 -7
-19 -1 -9 -3 -16 -6 -20 -5 -6 -5 -9 -6 -39 -1 -21 -2 -35 -4 -39 -5 -10 -5
-137 -1 -152 2 -6 3 -13 3 -16 0 -3 2 -12 5 -20 3 -8 6 -18 7 -23 2 -10 14
-35 25 -52 4 -6 7 -15 8 -20 1 -5 3 -13 6 -17 2 -4 7 -15 10 -24 6 -15 17 -35
26 -45 3 -3 7 -10 10 -16 3 -7 9 -17 15 -23 5 -6 10 -12 10 -14 0 -8 56 -64
100 -101 5 -4 12 -13 16 -20 5 -10 7 -12 17 -16 6 -3 11 -6 13 -9 2 -3 8 -8
14 -11 7 -4 14 -9 17 -14 14 -19 36 -23 60 -8 8 4 17 8 20 9 4 1 14 10 26 21
12 11 26 22 34 27 13 7 16 10 33 33 5 5 11 12 15 13 8 4 39 40 48 56 15 26 22
37 28 41 4 3 10 8 13 13 4 5 9 10 12 13 3 2 8 8 10 13 3 4 7 11 9 14 2 3 5 10
6 15 1 5 3 12 6 16 5 7 13 28 13 34 0 2 2 6 5 10 4 7 5 11 7 38 2 26 3 32 7
41 5 9 6 12 6 42 0 18 2 35 3 38 5 13 1 35 -10 49 -5 7 -5 8 -6 39 0 37 0 39
-7 46 -7 9 -11 29 -13 58 -1 24 -1 27 -6 32 -4 5 -6 10 -7 17 0 5 -3 14 -6 18
-2 5 -5 12 -6 17 -1 4 -5 11 -9 16 -8 10 -9 11 -12 29 -1 11 -7 22 -25 46 -3
4 -5 9 -5 13 0 10 -3 17 -16 30 -11 12 -14 16 -18 33 -2 7 -5 12 -18 23 -8 8
-36 35 -62 61 -38 39 -49 48 -56 51 -4 2 -12 6 -16 9 -12 9 -51 14 -66 9z m77
-81 c12 -11 24 -23 26 -27 2 -4 8 -9 12 -13 5 -3 21 -18 36 -33 14 -16 29 -31
32 -34 9 -7 24 -38 27 -56 3 -15 3 -15 -11 -31 -8 -10 -17 -21 -28 -37 -4 -5
-10 -13 -14 -17 -6 -7 -11 -13 -29 -37 -4 -6 -11 -14 -15 -19 -5 -5 -10 -12
-13 -16 -3 -4 -9 -12 -14 -17 -9 -10 -24 -30 -33 -44 -6 -8 -20 -21 -24 -21
-15 0 -52 31 -63 52 -7 14 -13 21 -25 29 -6 4 -14 12 -18 18 -15 21 -24 30
-42 44 -12 10 -18 16 -20 21 -9 20 -12 25 -22 31 -24 16 -34 36 -24 53 6 11
74 76 85 82 9 4 12 7 16 14 3 8 6 11 15 15 5 3 13 9 18 12 4 4 8 7 9 7 3 0 30
24 39 34 l9 10 25 0 25 0 21 -20z m-278 -248 c3 -5 8 -10 10 -12 13 -10 50
-48 52 -53 2 -3 9 -12 17 -20 7 -8 18 -21 25 -29 7 -8 29 -32 49 -53 21 -21
39 -41 41 -44 7 -14 29 -31 41 -31 7 0 30 24 34 37 5 13 17 29 25 32 7 3 12 8
14 15 1 2 7 11 14 18 7 8 16 20 19 26 7 12 8 14 22 23 5 3 8 7 12 17 4 9 9 16
20 27 8 9 17 20 21 25 10 13 25 25 29 23 6 -4 18 -31 18 -42 0 -7 2 -13 6 -21
4 -8 6 -14 6 -20 0 -12 7 -34 14 -46 4 -8 5 -12 6 -41 2 -38 4 -52 9 -60 7
-13 4 -115 -3 -129 -6 -9 -7 -13 -8 -30 -1 -14 -2 -21 -5 -24 -12 -17 -13 -20
-15 -31 -1 -8 -4 -14 -12 -27 -19 -29 -32 -51 -33 -58 -2 -10 -8 -18 -19 -27
-6 -4 -11 -10 -13 -13 -2 -3 -7 -8 -12 -11 -7 -4 -10 -8 -15 -17 -3 -7 -7 -12
-8 -12 -3 0 -20 -16 -26 -26 -6 -9 -9 -11 -19 -16 -9 -4 -15 -9 -21 -16 -5 -5
-13 -12 -17 -15 -5 -3 -11 -7 -12 -10 -10 -15 -28 -15 -42 1 -9 9 -15 13 -26
15 -7 1 -12 6 -38 31 -16 16 -34 32 -39 36 -13 8 -23 19 -28 31 -4 7 -7 10
-14 14 -10 5 -18 17 -18 27 0 7 -9 20 -27 40 -19 20 -26 36 -50 104 -3 10 -10
26 -14 34 -26 52 -33 203 -10 238 5 8 5 8 2 21 -3 12 -3 13 1 26 2 8 4 15 4
17 0 2 2 7 5 12 3 7 5 14 6 27 2 28 8 33 22 17z"/>
</g>
</svg>
