<?xml version="1.0" standalone="no"?>
<!DOCTYPE svg PUBLIC "-//W3C//DTD SVG 20010904//EN"
 "http://www.w3.org/TR/2001/REC-SVG-20010904/DTD/svg10.dtd">
<svg version="1.0" xmlns="http://www.w3.org/2000/svg"
 width="94.000000pt" height="148.000000pt" viewBox="0 0 94.000000 148.000000"
 preserveAspectRatio="xMidYMid meet">
<metadata>
Created by potrace 1.16, written by Peter Selinger 2001-2019
</metadata>
<g transform="translate(0.000000,148.000000) scale(0.100000,-0.100000)"
fill="#000000" stroke="none">
<path d="M355 1371 c-120 -98 -225 -210 -225 -240 0 -6 -9 -31 -21 -56 -12
-25 -19 -51 -16 -58 5 -12 -9 -51 -34 -99 -5 -10 -9 -84 -9 -165 0 -147 8
-191 40 -243 9 -14 22 -43 29 -65 24 -68 96 -166 183 -250 97 -93 157 -145
166 -145 34 0 198 142 245 210 17 25 47 64 66 86 57 66 87 160 98 308 3 42 1
72 -6 79 -6 6 -11 32 -11 57 0 25 -5 51 -11 57 -6 6 -11 28 -11 50 0 22 -12
63 -29 98 -16 33 -29 67 -29 75 0 8 -9 26 -20 40 -11 14 -20 32 -20 41 0 9 -9
24 -20 34 -11 10 -20 23 -20 30 0 14 -145 164 -182 188 -50 32 -96 23 -163
-32z m187 -64 c107 -107 148 -159 148 -185 0 -18 -20 -51 -56 -97 -31 -38 -81
-103 -112 -142 -30 -40 -59 -73 -64 -73 -6 0 -27 17 -47 38 -109 115 -171 182
-171 188 0 3 -14 19 -30 34 -17 15 -30 35 -30 43 0 16 126 138 187 180 23 16
44 35 47 43 3 9 20 14 45 14 33 0 46 -7 83 -43z m-331 -335 c30 -31 97 -103
149 -160 52 -56 99 -102 103 -102 11 0 37 26 37 37 0 4 23 33 50 63 27 30 50
58 50 62 0 4 10 18 22 32 13 14 39 45 58 70 54 69 62 63 87 -64 2 -14 8 -34
13 -45 13 -31 23 -121 23 -215 0 -106 -10 -151 -50 -220 -8 -14 -23 -43 -33
-66 -11 -22 -34 -54 -52 -71 -18 -17 -45 -45 -60 -62 -15 -17 -31 -31 -35 -31
-5 0 -23 -16 -42 -35 -36 -38 -61 -44 -81 -20 -7 8 -18 15 -24 15 -15 0 -186
164 -186 179 0 7 -13 29 -29 49 -16 20 -37 59 -46 86 -8 27 -27 74 -41 105
-24 51 -25 63 -21 156 3 55 10 125 16 155 6 30 14 74 17 98 4 23 10 42 14 42
4 0 31 -26 61 -58z"/>
</g>
</svg>
