<?xml version="1.0" standalone="no"?>
<!DOCTYPE svg PUBLIC "-//W3C//DTD SVG 20010904//EN"
 "http://www.w3.org/TR/2001/REC-SVG-20010904/DTD/svg10.dtd">
<svg version="1.0" xmlns="http://www.w3.org/2000/svg"
 width="64.000000pt" height="100.000000pt" viewBox="0 0 64.000000 100.000000"
 preserveAspectRatio="xMidYMid meet">
<metadata>
Created by potrace 1.16, written by Peter Selinger 2001-2019
</metadata>
<g transform="translate(0.000000,100.000000) scale(0.100000,-0.100000)"
fill="#000000" stroke="none">
<path d="M238 800 c-41 -12 -114 -68 -142 -109 -59 -84 -71 -184 -35 -289 51
-151 248 -241 379 -172 72 37 118 80 145 134 21 42 25 64 25 139 0 121 -13
161 -76 224 -38 38 -65 55 -104 67 -57 17 -147 20 -192 6z m73 -135 c4 -55 3
-109 -2 -122 -8 -22 -14 -23 -101 -23 -51 0 -99 4 -107 9 -17 11 0 69 37 124
26 39 137 120 156 114 6 -2 14 -45 17 -102z m119 75 c70 -35 160 -174 132
-202 -5 -5 -47 -10 -93 -11 -80 -2 -83 -1 -90 23 -9 32 -11 195 -2 203 9 10 9
10 53 -13z m-118 -351 c8 -141 -1 -153 -83 -100 -69 45 -129 117 -129 158 0
21 4 22 93 26 50 1 97 4 103 5 7 1 13 -30 16 -89z m256 76 c19 -19 -84 -155
-140 -184 -48 -25 -58 -11 -58 79 0 117 1 118 106 114 47 -1 89 -5 92 -9z"/>
</g>
</svg>
