<?xml version="1.0" standalone="no"?>
<!DOCTYPE svg PUBLIC "-//W3C//DTD SVG 20010904//EN"
 "http://www.w3.org/TR/2001/REC-SVG-20010904/DTD/svg10.dtd">
<svg version="1.0" xmlns="http://www.w3.org/2000/svg"
 width="378.000000pt" height="590.000000pt" viewBox="0 0 378.000000 590.000000"
 preserveAspectRatio="xMidYMid meet">
<metadata>
Created by potrace 1.16, written by Peter Selinger 2001-2019
</metadata>
<g transform="translate(0.000000,590.000000) scale(0.500000,-0.500000)"
fill="#000000" stroke="none">
<path d="M352 961 c-6 -2 -20 -5 -32 -7 -93 -17 -177 -84 -231 -186 -10 -17
-26 -71 -29 -94 -1 -9 -3 -19 -4 -21 -3 -8 -2 -78 1 -94 1 -8 4 -22 5 -31 2
-12 5 -23 10 -35 5 -9 9 -21 10 -27 11 -44 25 -68 68 -111 16 -16 33 -32 38
-34 5 -3 14 -9 19 -13 6 -4 18 -11 27 -16 9 -4 22 -11 28 -15 5 -4 14 -7 18
-8 4 -1 11 -4 17 -6 5 -3 13 -5 17 -5 3 0 10 -2 14 -4 22 -11 27 -12 84 -12
52 0 52 0 59 7 11 10 26 18 40 20 15 2 37 13 51 26 6 6 14 12 17 14 3 1 15 11
26 21 11 11 25 23 31 28 9 8 21 23 41 55 55 87 68 205 34 314 -1 6 -5 18 -8
27 -3 11 -7 21 -10 25 -4 5 -9 12 -12 17 -32 56 -95 114 -151 137 -7 3 -17 7
-22 9 -16 7 -41 14 -55 15 -8 1 -19 3 -25 4 -14 4 -61 4 -76 0z m17 -53 c6 -6
7 -19 7 -151 1 -159 5 -142 -36 -140 -15 0 -72 1 -128 1 -114 0 -108 -1 -108
15 0 5 2 15 5 22 3 7 5 17 5 21 0 5 2 12 4 17 2 4 7 17 10 28 7 25 28 60 40
68 4 3 10 9 13 14 11 19 50 55 64 60 3 1 11 6 19 12 39 29 92 45 105 33z m99
-8 c5 -2 13 -5 17 -6 9 -2 49 -22 61 -30 31 -21 47 -37 52 -51 2 -5 6 -10 16
-18 15 -13 28 -30 33 -45 4 -13 10 -29 17 -43 3 -6 6 -14 6 -17 0 -3 2 -12 4
-20 7 -26 4 -39 -11 -48 -10 -6 -215 -8 -220 -1 -4 6 -3 275 1 280 3 4 12 4
24 -1z m-96 -338 c6 -4 5 12 5 -148 -1 -114 -1 -110 -14 -110 -9 0 -52 10 -60
14 -2 1 -12 6 -23 10 -80 35 -166 141 -166 207 0 29 -6 28 110 29 53 1 107 1
120 2 21 0 24 0 28 -4z m303 -1 c4 -6 4 -16 -2 -36 -3 -10 -6 -21 -7 -25 -1
-4 -6 -13 -11 -21 -5 -8 -9 -15 -9 -17 0 -5 -10 -20 -22 -33 -5 -6 -12 -14
-14 -18 -24 -47 -154 -120 -167 -95 -4 8 -5 239 0 244 3 5 2 5 119 5 105 0
111 -1 113 -4z"/>
</g>
</svg>
