<?xml version="1.0" standalone="no"?>
<!DOCTYPE svg PUBLIC "-//W3C//DTD SVG 20010904//EN"
 "http://www.w3.org/TR/2001/REC-SVG-20010904/DTD/svg10.dtd">
<svg version="1.0" xmlns="http://www.w3.org/2000/svg"
 width="94.000000pt" height="148.000000pt" viewBox="0 0 94.000000 148.000000"
 preserveAspectRatio="xMidYMid meet">
<metadata>
Created by potrace 1.16, written by Peter Selinger 2001-2019
</metadata>
<g transform="translate(0.000000,148.000000) scale(0.100000,-0.100000)"
fill="#000000" stroke="none">
<path d="M350 1179 c-70 -28 -103 -51 -164 -113 -86 -91 -119 -179 -118 -316
2 -91 13 -136 56 -229 65 -139 347 -265 463 -207 15 8 43 20 62 27 44 16 182
153 206 204 68 148 58 342 -25 467 -44 66 -102 115 -179 151 -89 42 -217 49
-301 16z m118 -226 l2 -183 -175 0 c-133 0 -175 3 -175 13 0 6 10 45 23 85 29
91 88 169 164 218 72 46 91 54 128 51 l30 -2 3 -182z m110 178 c9 -6 39 -20
65 -33 93 -44 187 -181 190 -278 l2 -45 -147 -3 -148 -3 0 179 c0 158 3 192
17 192 2 0 11 -4 21 -9z m-113 -591 l0 -165 -32 2 c-120 10 -269 150 -297 280
-11 48 7 53 179 50 l150 -2 0 -165z m368 128 c-6 -95 -114 -225 -227 -272 -68
-28 -66 -34 -66 149 l0 166 148 -3 147 -3 -2 -37z"/>
</g>
</svg>
