<?xml version="1.0" standalone="no"?>
<!DOCTYPE svg PUBLIC "-//W3C//DTD SVG 20010904//EN"
 "http://www.w3.org/TR/2001/REC-SVG-20010904/DTD/svg10.dtd">
<svg version="1.0" xmlns="http://www.w3.org/2000/svg"
 width="64.000000pt" height="100.000000pt" viewBox="0 0 64.000000 100.000000"
 preserveAspectRatio="xMidYMid meet">
<metadata>
Created by potrace 1.16, written by Peter Selinger 2001-2019
</metadata>
<g transform="translate(0.000000,100.000000) scale(0.100000,-0.100000)"
fill="#000000" stroke="none">
<path d="M255 946 c-70 -31 -177 -184 -211 -301 -27 -94 -22 -223 11 -310 60
-157 183 -285 275 -285 78 0 129 44 213 188 64 107 72 146 59 273 -7 69 -18
105 -52 180 -93 201 -204 297 -295 255z m29 -209 c5 -119 4 -146 -7 -140 -24
16 -127 130 -127 142 0 13 70 119 96 146 9 9 20 13 24 8 4 -4 10 -75 14 -156z
m136 72 c33 -44 60 -86 60 -92 0 -7 -29 -43 -64 -82 -45 -49 -66 -66 -69 -55
-8 22 -16 298 -9 304 13 13 25 2 82 -75z m-216 -210 c47 -44 86 -84 86 -88 0
-16 -183 -172 -191 -164 -35 35 -25 333 11 333 4 0 46 -36 94 -81z m313 29
c29 -36 45 -122 39 -197 -4 -42 -10 -79 -14 -83 -4 -4 -46 30 -92 77 l-84 85
64 65 c35 36 67 65 71 65 4 0 11 -6 16 -12z m-206 -467 c3 -33 0 -55 -7 -58
-11 -4 -126 105 -151 143 -18 29 -15 34 72 125 l70 74 6 -115 c4 -63 8 -139
10 -169z m123 205 c36 -41 66 -81 66 -91 0 -21 -74 -130 -102 -150 -22 -15
-23 -14 -29 17 -11 58 -19 298 -10 298 5 0 38 -33 75 -74z"/>
</g>
</svg>
