<?xml version="1.0" standalone="no"?>
<!DOCTYPE svg PUBLIC "-//W3C//DTD SVG 20010904//EN"
 "http://www.w3.org/TR/2001/REC-SVG-20010904/DTD/svg10.dtd">
<svg version="1.0" xmlns="http://www.w3.org/2000/svg"
 width="378.000000pt" height="590.000000pt" viewBox="0 0 378.000000 590.000000"
 preserveAspectRatio="xMidYMid meet">
<metadata>
Created by potrace 1.16, written by Peter Selinger 2001-2019
</metadata>
<g transform="translate(0.000000,590.000000) scale(0.500000,-0.500000)"
fill="#000000" stroke="none">
<path d="M379 1134 c-2 -2 -9 -2 -20 -1 -21 2 -43 -3 -53 -10 -18 -14 -31 -25
-43 -35 -7 -6 -14 -12 -17 -13 -2 -1 -8 -6 -12 -12 -5 -5 -13 -14 -19 -18 -8
-6 -11 -11 -14 -18 -4 -11 -20 -29 -33 -36 -6 -3 -10 -10 -13 -20 -1 -3 -5
-10 -9 -14 -4 -5 -9 -11 -10 -16 -1 -5 -3 -9 -4 -10 -2 -1 -5 -7 -8 -15 -4 -7
-9 -16 -13 -20 -3 -4 -8 -10 -10 -14 -2 -3 -8 -11 -12 -18 -7 -9 -9 -15 -11
-24 -4 -23 -10 -50 -18 -75 -4 -10 -7 -25 -8 -33 -1 -9 -4 -19 -7 -27 -9 -18
-9 -204 0 -222 3 -6 5 -14 6 -19 1 -4 6 -19 10 -33 5 -14 10 -31 12 -39 2 -7
4 -15 6 -17 3 -5 13 -36 13 -42 0 -8 11 -28 20 -37 5 -4 10 -11 12 -16 3 -9 7
-13 15 -17 3 -2 7 -7 11 -16 3 -6 7 -13 9 -15 2 -2 6 -9 9 -16 4 -8 10 -16 20
-26 8 -8 14 -15 14 -17 0 -6 7 -15 17 -19 4 -3 13 -8 19 -13 5 -4 15 -12 21
-16 5 -5 13 -10 16 -12 3 -2 11 -9 18 -14 7 -6 17 -13 23 -16 6 -3 15 -8 19
-12 10 -8 16 -11 21 -11 3 0 8 -2 13 -4 4 -2 9 -4 11 -4 2 0 8 2 12 4 6 3 12
4 25 4 13 0 19 1 25 4 4 2 11 4 15 4 5 0 9 2 13 6 4 3 13 9 21 13 16 8 20 11
22 21 1 6 31 36 44 44 9 5 15 13 18 24 4 15 10 25 23 39 6 7 12 16 14 22 2 6
9 15 15 22 6 7 13 18 16 24 3 7 9 17 12 22 4 6 10 17 13 25 4 9 10 18 15 25
11 12 19 27 26 50 8 25 8 223 0 240 -4 9 -6 17 -7 29 -1 15 -2 19 -7 25 -3 5
-6 12 -7 17 -1 5 -4 13 -7 17 -3 4 -5 11 -5 14 0 4 -1 10 -3 14 -1 5 -3 13 -4
20 -1 8 -3 13 -7 18 -3 4 -6 7 -6 8 0 1 -3 5 -6 10 -4 5 -6 11 -7 18 -1 14 -7
25 -20 39 -9 10 -11 13 -12 23 -2 19 -8 30 -22 41 -13 12 -33 37 -41 51 -16
28 -26 42 -36 50 -7 5 -14 12 -17 17 -4 5 -10 10 -16 12 -5 3 -10 7 -11 9 -4
7 -23 25 -29 28 -3 2 -11 8 -18 13 -21 16 -24 18 -31 18 -4 0 -9 -1 -11 -2z
m-53 -60 c1 -2 2 -16 3 -33 0 -21 2 -33 4 -38 2 -7 3 -18 3 -64 0 -46 1 -58 3
-65 3 -7 4 -21 4 -61 1 -36 2 -55 4 -62 4 -14 4 -54 0 -57 -9 -7 -184 175
-178 185 7 15 24 45 28 50 3 3 8 13 13 22 4 9 13 22 19 29 6 7 12 15 14 19 1
4 7 9 12 13 6 4 11 10 14 16 7 14 15 22 35 36 18 13 19 13 22 10z m95 -17 c4
-3 10 -9 13 -13 7 -9 9 -11 24 -24 4 -3 10 -11 13 -18 6 -11 21 -28 41 -47 9
-8 20 -25 24 -35 2 -4 7 -13 13 -21 21 -25 27 -56 15 -72 -6 -9 -27 -29 -30
-29 -2 0 -13 -14 -28 -35 -14 -20 -83 -89 -88 -89 -12 0 -15 7 -14 41 0 19 -1
30 -3 39 -3 11 -3 27 -3 119 1 97 1 107 -2 115 -5 12 -5 48 -1 60 7 17 13 19
26 9z m-288 -243 c3 -1 130 -125 183 -177 34 -34 36 -39 18 -52 -3 -2 -31 -28
-61 -57 -30 -29 -58 -55 -62 -57 -4 -3 -24 -21 -44 -41 -48 -47 -43 -47 -61 6
-13 37 -13 37 -14 75 -1 38 -1 38 -6 45 -9 10 -9 95 0 113 5 10 6 14 6 28 0
14 2 24 9 52 2 6 5 18 7 28 7 27 17 43 25 37z m474 -49 c3 -2 6 -8 8 -14 2 -5
9 -21 15 -34 7 -13 12 -25 12 -27 0 -1 5 -12 10 -24 7 -16 10 -24 10 -30 0 -5
1 -14 3 -20 3 -14 5 -78 3 -91 -1 -5 -3 -26 -3 -45 -1 -35 -2 -37 -11 -54 -2
-4 -4 -9 -4 -12 0 -14 -8 -21 -17 -15 -11 7 -30 27 -43 44 -8 11 -30 34 -54
57 -124 119 -120 90 -25 183 92 90 89 87 96 82z m-250 -254 c2 -8 4 -17 5 -21
1 -5 2 -25 1 -59 -1 -45 -1 -53 2 -61 2 -7 3 -18 3 -65 0 -40 1 -58 2 -62 2
-4 3 -26 4 -64 1 -32 2 -62 2 -67 1 -14 -15 -12 -28 4 -3 4 -11 10 -17 14 -6
3 -16 12 -23 19 -8 7 -17 15 -22 17 -5 3 -11 9 -15 14 -4 6 -8 10 -15 12 -7 3
-10 6 -15 15 -3 6 -9 14 -13 17 -8 7 -24 30 -24 34 0 1 -4 7 -10 13 -40 44
-41 51 -13 81 10 10 20 22 23 26 2 4 24 27 49 52 25 25 47 47 49 50 26 37 52
51 55 31z m75 9 c9 -6 55 -55 61 -63 3 -5 10 -12 16 -17 6 -4 13 -11 16 -15 2
-4 8 -10 12 -13 22 -16 65 -63 66 -73 4 -24 -3 -44 -22 -64 -5 -7 -14 -19 -18
-27 -4 -8 -11 -18 -16 -22 -4 -4 -9 -11 -11 -16 -5 -14 -15 -27 -25 -35 -6 -3
-18 -14 -28 -23 -43 -42 -51 -37 -51 33 0 33 -1 44 -3 52 -3 7 -3 13 -2 23 3
22 0 52 -6 71 -2 8 -3 20 -3 59 0 27 -1 56 -2 64 -2 8 -3 20 -3 27 0 7 -1 15
-2 19 -4 17 9 29 21 20z"/>
</g>
</svg>
