<?xml version="1.0" standalone="no"?>
<!DOCTYPE svg PUBLIC "-//W3C//DTD SVG 20010904//EN"
 "http://www.w3.org/TR/2001/REC-SVG-20010904/DTD/svg10.dtd">
<svg version="1.0" xmlns="http://www.w3.org/2000/svg"
 width="100.000000pt" height="90.000000pt" viewBox="0 0 100.000000 90.000000"
 preserveAspectRatio="xMidYMid meet">
<metadata>
Created by potrace 1.16, written by Peter Selinger 2001-2019
</metadata>
<g transform="translate(0.000000,90.000000) scale(0.100000,-0.100000)"
fill="#000000" stroke="none">
<path d="M155 818 c-83 -97 -125 -217 -125 -361 0 -158 41 -270 135 -364 45
-44 60 -53 90 -53 70 0 165 121 200 255 34 134 9 281 -74 431 -52 92 -99 134
-151 134 -33 0 -44 -6 -75 -42z m65 -86 c0 -43 5 -104 11 -136 6 -33 7 -62 2
-67 -9 -9 -113 122 -113 143 0 19 78 138 90 138 6 0 10 -31 10 -78z m105 -3
c19 -33 35 -69 35 -81 0 -20 -67 -118 -81 -118 -7 0 -19 251 -12 263 8 13 22
-2 58 -64z m-170 -186 c31 -38 59 -73 62 -80 5 -13 -103 -153 -118 -153 -17 0
-29 51 -31 124 -2 81 10 176 22 176 5 0 34 -30 65 -67z m249 30 c22 -73 32
-227 17 -252 -13 -20 -22 -13 -86 63 -40 47 -55 72 -49 81 43 57 100 125 106
125 4 0 9 -8 12 -17z m-164 -287 c0 -57 3 -124 6 -150 5 -36 4 -46 -7 -46 -22
0 -119 125 -119 154 0 17 99 146 112 146 4 0 8 -47 8 -104z m140 -46 c-1 -27
-58 -131 -76 -137 -14 -5 -24 75 -23 187 l0 85 49 -55 c32 -35 50 -64 50 -80z"/>
<path d="M648 812 c-138 -154 -168 -411 -71 -607 27 -55 50 -84 106 -133 71
-60 141 -33 206 81 100 177 94 393 -16 575 -58 95 -98 132 -143 132 -33 0 -44
-7 -82 -48z m68 -83 c0 -41 4 -102 8 -136 5 -37 4 -63 -1 -63 -12 0 -116 137
-111 147 15 37 83 133 92 130 7 -2 11 -34 12 -78z m103 -4 c24 -41 41 -82 38
-90 -12 -29 -81 -115 -88 -107 -6 5 -14 234 -10 265 3 21 22 0 60 -68z m-165
-186 c31 -36 56 -74 56 -83 0 -20 -97 -139 -116 -144 -19 -5 -28 40 -28 148
-1 97 8 154 23 148 5 -2 34 -33 65 -69z m256 -18 c17 -93 12 -211 -10 -211 -4
0 -34 32 -65 71 -66 81 -66 74 9 161 22 26 44 44 48 40 4 -4 12 -32 18 -61z
m-175 -208 c-3 -43 -2 -107 3 -143 14 -89 1 -98 -53 -36 -24 26 -51 63 -60 80
l-18 33 54 71 c71 95 82 94 74 -5z m99 3 c25 -33 46 -63 46 -68 0 -30 -79
-154 -90 -141 -11 12 -22 275 -11 271 5 -1 30 -30 55 -62z"/>
</g>
</svg>
