<?xml version="1.0" standalone="no"?>
<!DOCTYPE svg PUBLIC "-//W3C//DTD SVG 20010904//EN"
 "http://www.w3.org/TR/2001/REC-SVG-20010904/DTD/svg10.dtd">
<svg version="1.0" xmlns="http://www.w3.org/2000/svg"
 width="652.000000pt" height="590.000000pt" viewBox="0 0 652.000000 590.000000"
 preserveAspectRatio="xMidYMid meet">
<metadata>
Created by potrace 1.16, written by Peter Selinger 2001-2019
</metadata>
<g transform="translate(0.000000,590.000000) scale(0.500000,-0.500000)"
fill="#000000" stroke="none">
<path d="M282 1132 c-15 -3 -25 -9 -40 -26 -8 -9 -21 -23 -28 -30 -8 -7 -15
-17 -18 -21 -2 -5 -6 -10 -9 -12 -3 -2 -8 -10 -12 -18 -5 -10 -11 -19 -22 -30
-9 -9 -15 -18 -16 -21 -1 -3 -4 -11 -8 -16 -11 -17 -19 -33 -22 -45 -2 -6 -5
-15 -8 -19 -13 -20 -15 -25 -18 -37 -4 -17 -8 -31 -12 -43 -2 -5 -3 -11 -3
-15 0 -7 -8 -36 -12 -47 -2 -4 -5 -14 -6 -22 -1 -8 -4 -20 -6 -26 -6 -20 -5
-208 1 -220 5 -7 8 -20 12 -45 1 -4 4 -13 6 -19 3 -7 5 -16 5 -20 0 -6 2 -14
7 -24 5 -11 8 -19 9 -30 1 -8 3 -19 5 -23 3 -4 5 -10 6 -14 1 -3 4 -8 8 -13 4
-4 8 -11 9 -16 1 -5 6 -12 11 -18 9 -9 19 -26 28 -44 3 -6 9 -15 13 -21 4 -5
11 -15 14 -22 6 -13 28 -35 42 -42 3 -2 14 -12 23 -23 12 -13 20 -21 28 -25 5
-3 15 -10 20 -15 13 -12 28 -17 44 -15 5 1 16 2 23 3 7 1 15 2 18 4 45 25 113
91 117 114 2 11 7 21 19 36 7 8 16 24 27 45 26 53 28 58 33 85 2 13 6 24 9 30
10 17 19 49 20 70 1 14 3 22 6 30 7 18 8 151 1 165 -4 6 -5 13 -6 30 -1 19 -2
24 -6 31 -3 5 -6 13 -7 17 -1 4 -3 11 -5 15 -2 4 -5 13 -6 20 -6 35 -8 42 -16
56 -6 11 -8 17 -8 24 0 11 -6 24 -18 42 -8 11 -10 16 -11 25 -2 16 -7 27 -19
41 -12 15 -26 35 -42 66 -7 13 -16 29 -21 34 -4 5 -10 13 -13 17 -2 5 -9 11
-15 16 -6 4 -15 12 -19 18 -9 13 -11 14 -21 17 -7 2 -10 4 -15 12 -8 13 -44
20 -76 14z m8 -55 c4 -3 4 -4 4 -48 0 -31 1 -47 3 -56 2 -9 3 -28 3 -81 0 -68
0 -68 5 -80 4 -10 5 -15 5 -34 0 -13 1 -39 2 -59 3 -60 -9 -65 -39 -14 -4 8
-13 20 -20 27 -7 7 -16 18 -21 24 -4 6 -16 21 -25 33 -10 12 -20 27 -23 33 -3
6 -12 17 -19 25 -27 28 -28 56 -4 77 6 5 11 12 16 21 4 8 12 21 20 30 7 10 14
20 15 24 1 4 5 9 9 13 5 3 10 9 12 16 7 15 42 51 51 52 1 0 3 -1 6 -3z m72
-21 c4 -3 9 -8 11 -11 2 -3 8 -10 13 -15 10 -10 13 -15 20 -32 4 -10 13 -23
30 -41 7 -6 10 -12 11 -17 1 -4 2 -10 2 -13 1 -4 5 -10 9 -15 37 -43 39 -72 5
-107 -6 -6 -13 -15 -15 -20 -2 -4 -14 -21 -26 -36 -12 -15 -28 -36 -35 -45
-36 -48 -38 -45 -39 67 -1 47 -3 126 -5 175 -4 120 -3 126 19 110z m-236 -240
c2 -1 7 -7 11 -14 9 -14 43 -51 54 -59 4 -3 9 -10 13 -17 7 -13 24 -34 45 -55
9 -8 15 -16 19 -25 3 -7 10 -18 16 -24 16 -17 16 -31 -2 -50 -5 -6 -18 -23
-30 -37 -11 -14 -26 -32 -33 -39 -7 -7 -16 -18 -20 -24 -9 -15 -23 -32 -44
-54 -9 -10 -19 -21 -22 -25 -20 -23 -47 44 -48 117 0 35 0 35 -6 45 -9 15 -9
101 0 115 5 7 6 11 7 27 3 38 17 100 26 115 4 6 8 7 14 4z m394 -24 c11 -9 21
-42 23 -70 0 -12 2 -20 4 -25 3 -4 5 -13 6 -18 1 -6 3 -16 6 -21 4 -8 5 -14 5
-24 0 -7 1 -17 3 -23 3 -9 3 -18 2 -53 -2 -66 -2 -68 -1 -88 1 -28 -8 -58 -24
-82 -9 -12 -21 -3 -45 34 -7 11 -15 21 -18 23 -3 2 -11 10 -18 19 -6 8 -17 21
-22 27 -6 7 -13 16 -15 21 -3 4 -5 8 -6 8 -1 0 -5 4 -8 10 -4 5 -11 14 -17 19
-36 35 -43 52 -29 68 4 4 10 12 13 16 3 4 14 16 24 26 45 46 58 63 73 95 14
28 34 46 44 38z m-202 -260 c3 -6 4 -34 5 -142 1 -125 3 -215 7 -246 5 -43
-10 -60 -28 -32 -3 5 -10 12 -14 14 -8 6 -49 46 -55 55 -2 3 -7 7 -11 10 -5 3
-9 8 -13 15 -2 6 -10 17 -17 25 -6 7 -12 15 -12 16 0 9 -5 18 -19 32 -32 31
-24 61 33 120 5 6 13 15 17 21 6 10 28 33 42 43 3 2 9 12 14 24 17 36 43 59
51 45z m57 -30 c6 -6 19 -21 29 -33 10 -12 25 -30 34 -40 87 -101 92 -115 57
-159 -5 -7 -11 -17 -13 -23 -2 -7 -7 -14 -12 -20 -5 -5 -9 -13 -11 -19 -12
-40 -51 -82 -77 -83 -12 0 -17 30 -12 69 2 15 2 20 -1 33 -3 19 -4 33 -1 43 2
6 1 9 -1 15 -2 6 -3 24 -4 62 -1 30 -2 69 -3 87 -2 29 -3 64 -2 75 0 6 7 3 17
-7z"/>
<path d="M930 1133 c-14 -3 -18 -5 -26 -17 -5 -7 -12 -14 -16 -17 -4 -3 -10
-9 -13 -13 -3 -4 -8 -9 -11 -11 -11 -5 -16 -11 -18 -19 -2 -6 -4 -9 -10 -13
-9 -6 -10 -8 -15 -20 -2 -6 -9 -15 -19 -26 -11 -12 -16 -18 -17 -24 -1 -4 -4
-11 -8 -15 -4 -5 -8 -11 -8 -14 -1 -3 -4 -9 -6 -15 -3 -5 -7 -15 -10 -21 -3
-6 -9 -18 -14 -26 -5 -9 -9 -18 -9 -21 0 -10 -7 -38 -11 -44 -3 -4 -4 -11 -5
-26 -1 -20 -2 -21 -9 -33 -7 -12 -8 -15 -9 -31 -1 -12 -3 -21 -6 -27 -7 -15
-6 -199 1 -217 2 -7 6 -19 8 -28 2 -9 5 -21 7 -27 2 -7 5 -19 7 -29 2 -11 5
-21 9 -29 5 -9 7 -16 8 -27 1 -9 3 -17 6 -22 2 -4 4 -9 4 -11 0 -2 3 -8 8 -13
4 -5 8 -12 10 -17 1 -6 5 -12 9 -17 4 -4 10 -13 13 -20 3 -7 6 -13 8 -14 1 0
4 -6 6 -13 3 -7 8 -15 15 -22 7 -7 12 -14 13 -20 2 -5 5 -11 8 -13 17 -15 24
-21 32 -26 5 -2 16 -14 26 -24 13 -15 20 -22 29 -26 6 -4 15 -10 19 -15 12
-14 38 -22 50 -15 3 2 10 3 18 3 23 0 66 23 77 40 7 10 13 19 30 40 11 14 18
25 24 38 5 13 11 22 21 34 9 11 15 20 19 29 3 8 8 18 11 23 3 5 8 14 10 20 2
6 5 15 8 20 2 4 4 9 4 11 0 2 2 8 4 15 2 6 5 17 7 24 1 8 5 17 8 21 14 24 19
39 19 63 0 18 1 25 4 34 6 16 6 154 0 170 -3 8 -4 15 -4 29 0 14 -1 20 -4 27
-3 5 -5 13 -6 19 -1 5 -4 12 -6 15 -5 6 -8 22 -12 49 -1 10 -4 17 -11 28 -7
12 -10 19 -11 28 -2 15 -5 23 -16 39 -6 8 -9 16 -10 24 -4 19 -8 28 -19 40 -6
6 -13 16 -17 21 -4 6 -10 12 -13 15 -8 7 -14 20 -18 34 -4 14 -9 25 -14 27 -1
0 -7 7 -13 14 -6 7 -14 15 -18 18 -5 3 -10 9 -15 18 -8 15 -9 16 -23 21 -9 3
-12 6 -16 12 -7 12 -45 20 -74 15z m7 -61 c2 -4 3 -17 3 -47 0 -32 1 -46 3
-54 2 -9 3 -26 3 -79 0 -62 0 -69 4 -78 3 -9 4 -19 5 -49 1 -21 2 -47 3 -58 4
-48 -5 -48 -38 0 -7 10 -17 23 -23 30 -23 26 -59 73 -65 84 -4 6 -13 18 -20
26 -18 18 -18 19 -18 42 l0 19 15 16 c10 11 15 18 18 25 2 6 8 15 14 23 6 7
14 18 16 23 3 6 9 14 13 18 6 6 10 12 13 19 8 26 47 54 54 40z m73 -15 c3 -3
9 -10 12 -15 3 -6 9 -13 13 -16 6 -4 10 -8 12 -15 8 -22 15 -33 34 -52 5 -4
10 -12 12 -16 7 -16 10 -22 16 -31 31 -44 32 -74 5 -103 -13 -13 -16 -18 -19
-27 -2 -10 -7 -16 -24 -36 -11 -13 -24 -30 -28 -37 -22 -32 -29 -38 -40 -33
-11 5 -11 6 -11 160 -1 137 -1 143 -5 150 -17 31 2 88 23 71z m-235 -243 c3
-2 9 -10 14 -18 5 -7 12 -16 17 -20 4 -4 10 -10 13 -14 3 -5 9 -11 15 -15 7
-5 11 -10 16 -20 7 -13 18 -27 47 -57 10 -10 15 -18 17 -23 1 -6 6 -13 13 -21
20 -21 20 -38 1 -59 -5 -5 -17 -20 -27 -33 -10 -13 -25 -30 -34 -39 -9 -9 -19
-20 -21 -25 -7 -12 -25 -33 -52 -62 -33 -35 -33 -35 -53 51 -6 24 -8 36 -9 59
-1 26 -2 30 -6 37 -8 12 -8 102 0 114 4 7 5 12 6 29 3 42 6 64 10 72 2 5 5 13
6 18 4 23 16 34 27 26z m400 -35 c8 -13 13 -35 13 -54 0 -14 1 -18 6 -29 3 -7
6 -15 6 -18 0 -3 2 -11 5 -18 4 -9 5 -16 5 -25 0 -8 1 -19 3 -26 3 -14 4 -77
1 -90 -1 -4 -2 -24 -3 -44 -1 -30 -2 -37 -5 -44 -3 -4 -5 -13 -6 -19 -2 -12
-9 -25 -16 -27 -3 -2 -16 11 -35 36 -6 9 -19 24 -27 34 -8 10 -21 26 -29 36
-8 10 -19 24 -25 31 -6 8 -21 25 -33 39 -37 44 -38 40 18 99 34 37 45 50 55
66 37 57 55 72 67 53z m-216 -245 c7 -4 7 -13 7 -119 0 -87 1 -108 3 -117 2
-8 3 -24 3 -69 0 -45 1 -61 3 -69 12 -47 -6 -79 -27 -48 -5 8 -11 14 -17 17
-5 3 -13 10 -17 16 -5 6 -13 14 -18 18 -5 4 -11 10 -14 15 -2 5 -8 10 -13 13
-6 4 -9 7 -12 14 -2 6 -9 15 -15 22 -8 9 -12 15 -14 21 -3 14 -6 17 -18 28
-14 12 -14 12 -21 48 -3 12 26 50 50 68 7 5 12 11 15 17 9 19 22 37 38 51 11
10 18 18 23 28 15 29 37 51 44 46z m64 -18 c4 -2 9 -9 13 -16 3 -6 11 -18 17
-25 6 -8 13 -17 15 -21 2 -4 8 -11 13 -15 5 -4 11 -10 12 -14 2 -3 9 -12 16
-19 7 -7 15 -17 19 -22 4 -5 12 -15 18 -22 20 -24 20 -42 0 -83 -4 -9 -8 -18
-8 -20 0 -6 -6 -16 -15 -27 -5 -5 -13 -17 -17 -26 -13 -27 -50 -71 -64 -78
-25 -12 -29 2 -25 77 1 18 1 24 -2 30 -2 5 -3 14 -3 28 0 11 -1 28 -2 37 -1 9
-3 49 -4 89 -1 40 -2 84 -3 99 -1 32 3 38 20 28z"/>
</g>
</svg>
