<?xml version="1.0" standalone="no"?>
<!DOCTYPE svg PUBLIC "-//W3C//DTD SVG 20010904//EN"
 "http://www.w3.org/TR/2001/REC-SVG-20010904/DTD/svg10.dtd">
<svg version="1.0" xmlns="http://www.w3.org/2000/svg"
 width="164.000000pt" height="148.000000pt" viewBox="0 0 164.000000 148.000000"
 preserveAspectRatio="xMidYMid meet">
<metadata>
Created by potrace 1.16, written by Peter Selinger 2001-2019
</metadata>
<g transform="translate(0.000000,148.000000) scale(0.100000,-0.100000)"
fill="#000000" stroke="none">
<path d="M314 1392 c-34 -32 -132 -155 -151 -190 -43 -75 -62 -122 -88 -219
-34 -125 -36 -335 -4 -446 11 -39 25 -89 30 -111 9 -34 41 -92 100 -178 11
-15 19 -31 19 -36 0 -6 10 -17 23 -25 12 -8 47 -38 77 -66 48 -45 60 -51 98
-51 64 0 150 69 203 163 45 80 89 173 89 187 0 8 7 27 15 43 32 62 46 260 25
367 -14 72 -41 164 -51 174 -5 6 -9 17 -9 26 0 8 -9 32 -20 53 -11 20 -20 41
-20 47 0 5 -15 31 -33 57 -18 27 -39 61 -47 78 -13 25 -48 63 -121 130 -8 8
-35 18 -60 21 -39 5 -47 3 -75 -24z m56 -203 c0 -88 4 -168 9 -178 12 -22 18
-168 7 -178 -4 -4 -15 2 -25 15 -9 12 -53 70 -98 128 -65 82 -83 112 -83 137
0 21 7 36 20 45 11 7 20 17 20 22 0 13 64 106 98 143 48 51 52 42 52 -134z
m109 106 c17 -20 31 -42 31 -49 0 -7 11 -23 25 -36 14 -13 25 -29 25 -36 0 -7
11 -30 25 -50 28 -41 32 -85 11 -103 -7 -6 -42 -50 -77 -96 -34 -47 -67 -85
-71 -85 -15 0 -16 19 -22 258 -5 257 -4 262 53 197z m-306 -294 c9 -16 31 -41
47 -55 17 -13 30 -28 30 -33 0 -4 18 -28 40 -52 22 -24 40 -47 40 -51 0 -4 9
-15 20 -25 11 -10 20 -27 20 -37 0 -32 -210 -275 -228 -264 -44 27 -62 318
-29 455 25 105 31 111 60 62z m496 -48 c5 -21 15 -60 22 -88 7 -27 14 -113 16
-189 4 -120 2 -144 -14 -173 -10 -18 -21 -33 -25 -33 -3 0 -17 15 -29 33 -24
34 -99 124 -161 194 -21 24 -38 46 -38 51 0 5 34 45 75 91 41 45 77 92 81 104
18 60 59 65 73 10z m-265 -530 c4 -136 9 -257 12 -270 4 -16 1 -25 -11 -29
-12 -5 -36 13 -89 67 -39 41 -78 88 -86 104 -8 17 -22 39 -31 50 -41 48 -36
67 43 155 40 44 80 95 90 111 21 39 49 70 58 64 4 -2 10 -116 14 -252z m146
111 c47 -58 89 -113 94 -124 6 -13 0 -33 -23 -72 -43 -73 -47 -79 -62 -111
-19 -41 -55 -77 -77 -77 -18 0 -19 12 -26 188 -3 103 -9 213 -13 245 -4 45 -3
57 8 56 8 0 52 -47 99 -105z"/>
<path d="M1095 1354 c-36 -37 -65 -71 -65 -76 0 -6 -11 -24 -25 -40 -46 -54
-115 -217 -115 -269 0 -14 -5 -30 -12 -37 -7 -7 -13 -63 -16 -152 -5 -142 -1
-171 41 -315 13 -47 89 -200 112 -225 8 -9 15 -21 15 -27 0 -6 12 -19 28 -28
15 -10 47 -38 72 -63 25 -24 54 -48 66 -52 26 -10 92 2 124 23 26 16 100 108
100 122 0 5 11 22 24 39 41 55 99 197 119 296 13 67 13 217 -1 285 -20 95 -72
249 -92 269 -5 5 -10 17 -10 25 0 8 -18 38 -40 67 -22 29 -40 58 -40 65 0 13
-87 111 -105 118 -5 2 -15 11 -21 19 -6 8 -29 17 -52 19 -40 4 -44 1 -107 -63z
m90 -151 c3 -82 10 -195 15 -253 8 -103 0 -145 -20 -110 -10 17 -38 55 -127
170 -36 46 -63 90 -63 103 0 13 11 34 25 47 14 13 25 27 25 32 0 11 42 72 53
76 4 2 7 9 7 16 0 17 49 66 65 66 10 0 15 -39 20 -147z m148 30 c35 -54 69
-108 76 -120 17 -33 13 -72 -10 -101 -20 -27 -45 -62 -94 -135 -16 -24 -32
-37 -43 -35 -15 3 -18 28 -23 238 -3 129 -4 238 -2 243 12 21 37 -3 96 -90z
m-300 -287 c18 -21 48 -57 67 -80 55 -64 80 -104 80 -125 0 -18 -33 -62 -95
-127 -11 -12 -40 -47 -65 -78 -25 -31 -52 -55 -60 -54 -16 3 -26 38 -41 143
-18 124 -21 197 -10 208 6 6 11 34 11 63 0 48 17 108 36 127 5 5 17 -2 27 -15
10 -13 33 -41 50 -62z m442 33 c4 -5 11 -34 16 -62 4 -29 15 -83 24 -122 14
-58 15 -88 7 -176 -6 -59 -16 -117 -22 -130 l-13 -23 -26 31 c-14 16 -55 67
-90 111 -35 45 -75 91 -88 103 -32 31 -29 49 18 94 23 22 65 73 95 113 54 72
67 82 79 61z m-262 -526 c4 -120 10 -244 13 -275 6 -51 5 -58 -11 -58 -20 0
-118 99 -160 162 -16 23 -36 52 -46 63 -36 44 -27 78 40 148 33 34 84 98 111
139 14 21 30 38 36 38 7 0 13 -71 17 -217z m91 165 c17 -28 108 -140 144 -177
20 -20 -3 -115 -39 -158 -8 -10 -21 -30 -28 -45 -21 -42 -77 -92 -96 -84 -13
4 -16 19 -14 68 1 35 -3 142 -8 238 -5 96 -8 178 -6 183 9 16 30 5 47 -25z"/>
</g>
</svg>
