<?xml version="1.0" standalone="no"?>
<!DOCTYPE svg PUBLIC "-//W3C//DTD SVG 20010904//EN"
 "http://www.w3.org/TR/2001/REC-SVG-20010904/DTD/svg10.dtd">
<svg version="1.0" xmlns="http://www.w3.org/2000/svg"
 width="626.000000pt" height="590.000000pt" viewBox="0 0 626.000000 590.000000"
 preserveAspectRatio="xMidYMid meet">
<metadata>
Created by potrace 1.16, written by Peter Selinger 2001-2019
</metadata>
<g transform="translate(0.000000,590.000000) scale(0.500000,-0.500000)"
fill="#000000" stroke="none">
<path d="M595 1132 c-4 -3 -17 -15 -28 -26 -11 -11 -25 -24 -32 -28 -6 -5 -13
-11 -16 -15 -2 -4 -8 -9 -14 -12 -8 -3 -13 -8 -19 -15 -4 -6 -11 -14 -15 -17
-4 -3 -11 -11 -16 -19 -5 -7 -16 -19 -23 -26 -10 -10 -14 -15 -15 -21 -1 -5
-4 -10 -9 -15 -5 -4 -9 -11 -10 -16 -1 -4 -3 -9 -5 -10 -1 -1 -4 -6 -6 -11 -2
-8 -16 -30 -26 -42 -3 -3 -5 -9 -6 -15 -2 -14 -7 -30 -12 -38 -3 -4 -6 -12 -7
-20 -1 -8 -3 -16 -5 -19 -5 -10 -21 -60 -21 -66 0 -2 -1 -11 -3 -18 -4 -16 -2
-187 1 -197 2 -3 3 -16 4 -29 1 -23 1 -25 7 -33 7 -10 17 -41 17 -51 0 -3 2
-12 4 -20 2 -8 4 -17 4 -20 0 -7 6 -18 18 -33 5 -8 12 -18 15 -24 4 -8 16 -22
43 -49 21 -22 39 -42 41 -45 3 -9 8 -13 17 -16 4 -1 9 -4 11 -7 1 -2 10 -9 20
-16 10 -6 25 -18 33 -26 8 -8 18 -15 22 -17 3 -1 9 -3 12 -4 3 -1 9 -6 14 -11
5 -6 11 -10 17 -11 4 -1 9 -3 11 -3 2 -1 6 -5 10 -10 16 -23 59 -17 90 12 10
9 22 19 29 23 16 8 52 43 60 58 3 6 11 19 17 28 6 9 14 22 17 27 3 6 9 14 12
18 4 4 10 15 14 23 4 8 10 19 14 25 4 5 10 19 13 30 8 24 10 29 20 42 5 5 8
11 8 12 0 1 2 5 3 8 14 26 23 44 23 49 0 3 2 10 3 15 5 14 7 188 2 204 -1 5
-4 17 -5 25 -4 29 -12 56 -23 74 -5 9 -10 21 -12 29 -2 8 -5 17 -8 20 -10 13
-17 31 -19 46 -1 13 -3 17 -8 23 -3 4 -8 12 -11 17 -11 24 -22 41 -29 48 -5 4
-9 9 -11 12 -11 19 -21 33 -26 39 -4 4 -9 12 -11 16 -12 24 -73 92 -82 92 -1
0 -14 12 -29 26 -39 37 -63 46 -84 30z m0 -83 c0 -2 1 -22 1 -45 0 -27 1 -43
2 -48 2 -5 3 -31 4 -78 1 -71 1 -71 7 -81 7 -12 10 -129 3 -133 -5 -3 -6 -3
-23 15 -10 10 -27 28 -40 41 -12 13 -24 25 -25 28 -1 3 -14 17 -28 31 -14 15
-29 31 -33 37 -5 6 -11 13 -15 15 -22 14 -24 19 -13 32 4 6 8 13 9 17 8 31 61
103 89 124 6 3 20 16 31 27 21 21 28 25 31 18z m76 -12 c6 -2 16 -12 24 -24 1
-3 6 -6 10 -8 7 -4 17 -19 17 -26 0 -2 9 -12 20 -24 21 -23 22 -25 28 -41 3
-8 8 -14 17 -23 20 -20 32 -48 28 -68 -1 -6 -15 -22 -36 -41 -9 -8 -26 -28
-32 -37 -8 -13 -72 -77 -78 -77 -16 0 -17 6 -17 156 0 91 -1 133 -2 137 -3 7
-8 31 -9 45 -3 21 14 38 30 31z m-248 -255 c7 -8 16 -17 20 -20 5 -3 11 -9 15
-14 3 -4 10 -11 15 -14 5 -3 12 -11 16 -17 3 -5 20 -23 37 -40 17 -16 35 -35
39 -41 5 -6 13 -15 19 -20 23 -20 20 -30 -20 -69 -17 -16 -34 -35 -38 -41 -6
-9 -10 -13 -19 -17 -9 -4 -12 -7 -16 -15 -6 -12 -38 -46 -51 -54 -5 -4 -14
-12 -21 -19 -24 -26 -45 -1 -45 54 0 10 -1 21 -2 25 -3 9 -8 51 -10 87 -1 15
-3 31 -4 34 -1 3 -2 21 -2 46 l0 40 14 41 c25 76 30 81 53 54z m429 -9 c9 -12
28 -54 29 -66 0 -8 2 -16 6 -21 2 -5 5 -13 6 -18 1 -5 3 -12 6 -17 3 -5 5 -14
7 -26 1 -10 3 -23 4 -29 3 -18 2 -64 -1 -81 -2 -9 -3 -17 -2 -18 3 -8 -2 -58
-7 -66 -3 -4 -6 -11 -7 -15 -3 -13 -13 -30 -18 -30 -5 0 -103 97 -103 102 0 1
-23 25 -50 52 -59 57 -56 52 -33 76 9 9 18 20 21 24 2 3 9 10 15 14 6 5 13 12
16 16 3 5 10 11 16 15 8 5 16 13 30 33 35 46 57 65 65 55z m-232 -245 c8 -15
9 -23 7 -119 -1 -75 0 -95 2 -103 2 -7 3 -31 4 -70 1 -43 2 -60 4 -65 9 -22 2
-48 -10 -39 -5 3 -13 7 -18 10 -7 3 -17 11 -35 29 -27 26 -30 29 -40 29 -10 0
-16 4 -31 18 -8 7 -18 16 -23 20 -11 7 -14 11 -18 23 -2 7 -5 11 -17 21 -18
15 -19 16 -20 34 l-2 13 33 33 c19 18 36 37 38 41 7 11 35 40 49 51 7 5 13 13
18 21 8 14 51 58 55 57 2 -1 3 -3 4 -4z m85 -34 c13 -14 27 -29 30 -34 3 -5
29 -33 58 -62 61 -61 59 -57 45 -80 -4 -7 -8 -17 -9 -21 -2 -13 -17 -39 -33
-59 -4 -5 -9 -13 -12 -19 -2 -5 -6 -12 -9 -15 -3 -3 -8 -11 -12 -18 -8 -15
-33 -41 -46 -47 -5 -3 -13 -9 -18 -13 -13 -12 -17 -3 -20 37 -1 19 -1 26 2 35
5 16 3 36 -3 43 -5 7 -5 7 -7 105 -1 80 -2 101 -4 110 -3 10 -3 14 -1 21 2 7
2 12 0 16 -3 8 -2 17 2 21 8 8 12 5 37 -20z"/>
<path d="M1034 1134 c-19 -2 -18 6 -16 -166 2 -196 2 -639 0 -776 -2 -72 -1
-109 0 -112 6 -13 45 -13 52 -1 1 3 1 74 0 214 -2 136 -2 318 0 519 1 210 1
310 0 313 -4 7 -21 12 -36 9z"/>
<path d="M49 1132 c-2 -1 -5 -3 -7 -5 -5 -6 -3 -1047 2 -1051 5 -4 33 -6 40
-2 7 4 7 14 5 141 -1 69 -1 302 0 517 1 452 4 401 -21 401 -8 1 -17 0 -19 -1z"/>
<path d="M189 1129 c-1 0 -4 -1 -7 -2 -3 -1 -7 -3 -8 -5 -2 -3 -4 -1026 -2
-1050 0 -9 38 -11 47 -3 6 5 6 5 5 87 -1 46 -1 239 -1 429 0 190 0 388 1 439
1 94 1 94 -4 99 -5 5 -24 9 -31 6z"/>
<path d="M1156 1124 c-2 -2 -4 -6 -4 -7 -1 -39 0 -1043 1 -1045 3 -9 37 -11
45 -3 7 7 6 1047 0 1054 -6 7 -36 7 -42 1z"/>
</g>
</svg>
