<?xml version="1.0" standalone="no"?>
<!DOCTYPE svg PUBLIC "-//W3C//DTD SVG 20010904//EN"
 "http://www.w3.org/TR/2001/REC-SVG-20010904/DTD/svg10.dtd">
<svg version="1.0" xmlns="http://www.w3.org/2000/svg"
 width="156.000000pt" height="148.000000pt" viewBox="0 0 156.000000 148.000000"
 preserveAspectRatio="xMidYMid meet">
<metadata>
Created by potrace 1.16, written by Peter Selinger 2001-2019
</metadata>
<g transform="translate(0.000000,148.000000) scale(0.100000,-0.100000)"
fill="#000000" stroke="none">
<path d="M50 1413 c0 -4 0 -303 0 -663 l-1 -655 31 -3 30 -3 -2 663 -3 663
-27 3 c-16 2 -28 0 -28 -5z"/>
<path d="M699 1377 c-103 -94 -125 -116 -151 -145 -16 -17 -28 -33 -28 -36 0
-3 -17 -34 -38 -68 -21 -35 -52 -106 -70 -158 -30 -89 -32 -103 -32 -230 1
-135 4 -159 36 -280 20 -75 37 -103 113 -185 69 -74 206 -185 228 -185 4 0 17
-9 29 -21 20 -19 23 -19 55 -5 114 53 163 114 279 340 l61 120 0 151 c0 157
-4 176 -53 286 -13 30 -29 68 -35 86 -6 17 -41 77 -78 132 -77 114 -207 241
-247 241 -13 0 -43 -19 -69 -43z m45 -194 c4 -76 11 -185 16 -242 10 -101 6
-128 -15 -113 -6 4 -48 50 -95 102 -47 52 -95 103 -107 115 l-22 20 43 70 c38
62 150 185 167 185 4 0 10 -62 13 -137z m128 77 c12 -17 34 -45 48 -63 49 -63
87 -122 93 -147 5 -20 -2 -33 -37 -70 -24 -25 -66 -69 -93 -99 -30 -32 -55
-51 -61 -47 -8 5 -12 58 -12 172 0 91 -5 185 -11 210 -15 59 0 101 30 84 11
-5 30 -24 43 -40z m-250 -382 c64 -68 117 -131 118 -140 0 -19 -228 -258 -247
-258 -19 0 -22 11 -38 126 -21 149 -19 248 5 318 21 62 28 76 38 76 3 0 59
-55 124 -122z m474 -1 c39 -117 45 -290 14 -362 l-21 -49 -129 134 c-71 74
-129 138 -130 141 0 4 35 42 78 86 42 43 90 96 105 116 37 49 48 40 83 -66z
m-317 -356 c-2 -126 2 -201 17 -323 5 -40 3 -48 -10 -48 -9 0 -16 5 -16 10 0
6 -6 10 -14 10 -8 0 -27 15 -44 34 -16 19 -40 37 -53 41 -13 5 -50 35 -81 68
-60 64 -72 99 -40 116 9 5 64 61 121 125 57 64 107 113 113 110 6 -4 9 -62 7
-143z m117 72 c27 -32 73 -80 102 -108 50 -48 64 -77 42 -90 -5 -3 -10 -14
-10 -24 0 -24 -90 -158 -133 -200 -49 -46 -61 -35 -55 49 3 37 2 74 -2 81 -9
16 -20 336 -12 344 11 11 22 3 68 -52z"/>
<path d="M1270 1411 c0 -6 -1 -305 -1 -663 l0 -653 31 -3 30 -3 -2 663 -3 663
-27 3 c-16 2 -28 -1 -28 -7z"/>
<path d="M217 1404 c-4 -4 -7 -304 -7 -666 0 -601 1 -659 16 -665 46 -18 46
-29 46 672 l0 660 -24 3 c-13 2 -27 0 -31 -4z"/>
<path d="M1430 745 c0 -607 1 -666 16 -672 46 -17 45 -28 45 672 l1 660 -31 3
-31 3 0 -666z"/>
</g>
</svg>
