<?xml version="1.0" standalone="no"?>
<!DOCTYPE svg PUBLIC "-//W3C//DTD SVG 20010904//EN"
 "http://www.w3.org/TR/2001/REC-SVG-20010904/DTD/svg10.dtd">
<svg version="1.0" xmlns="http://www.w3.org/2000/svg"
 width="100.000000pt" height="95.000000pt" viewBox="0 0 100.000000 95.000000"
 preserveAspectRatio="xMidYMid meet">
<metadata>
Created by potrace 1.16, written by Peter Selinger 2001-2019
</metadata>
<g transform="translate(0.000000,95.000000) scale(0.100000,-0.100000)"
fill="#000000" stroke="none">
<path d="M37 914 c-4 -4 -7 -200 -7 -436 0 -409 1 -428 18 -428 18 0 19 16 24
243 6 296 -3 619 -18 624 -5 2 -13 0 -17 -3z"/>
<path d="M475 910 c-30 -12 -138 -129 -167 -180 -57 -101 -71 -160 -66 -277 6
-132 29 -202 88 -273 52 -62 164 -140 201 -140 47 0 120 77 175 186 48 94 49
99 52 198 3 90 1 109 -23 171 -68 181 -199 339 -260 315z m-5 -139 c0 -33 5
-94 11 -137 6 -42 7 -80 2 -85 -7 -7 -104 91 -126 128 -5 7 -1 26 8 43 19 36
83 110 96 110 5 0 9 -27 9 -59z m120 -8 c27 -38 50 -77 50 -89 0 -24 -99 -139
-110 -127 -4 4 -10 70 -12 146 -4 110 -2 137 9 137 7 0 36 -30 63 -67z m-192
-206 c39 -40 72 -77 72 -82 0 -20 -149 -160 -159 -150 -16 16 -25 214 -12 263
7 23 15 42 19 42 4 0 40 -33 80 -73z m300 8 c18 -49 22 -219 5 -236 -8 -8 -30
8 -87 65 -42 43 -76 81 -76 86 0 5 17 23 38 39 20 17 46 44 57 61 26 39 44 35
63 -15z m-201 -283 c1 -70 3 -136 5 -147 2 -11 -2 -20 -9 -20 -14 0 -153 122
-153 135 0 13 143 170 150 164 2 -3 6 -63 7 -132z m107 61 c31 -32 56 -66 56
-77 0 -23 -52 -116 -80 -141 -12 -11 -24 -15 -29 -9 -11 11 -20 284 -10 284 4
0 32 -26 63 -57z"/>
<path d="M812 903 c-7 -14 -10 -804 -3 -845 0 -5 10 -8 21 -8 20 0 20 7 20
435 0 375 -2 435 -15 435 -8 0 -18 -8 -23 -17z"/>
<path d="M137 903 c-10 -10 -8 -836 2 -852 5 -8 16 -11 25 -8 14 6 16 51 16
437 0 410 -1 430 -18 430 -10 0 -22 -3 -25 -7z"/>
<path d="M915 678 c-9 -303 4 -633 25 -633 13 0 15 56 18 433 2 419 2 432 -17
432 -18 0 -19 -13 -26 -232z"/>
</g>
</svg>
