<?xml version="1.0" standalone="no"?>
<!DOCTYPE svg PUBLIC "-//W3C//DTD SVG 20010904//EN"
 "http://www.w3.org/TR/2001/REC-SVG-20010904/DTD/svg10.dtd">
<svg version="1.0" xmlns="http://www.w3.org/2000/svg"
 width="61.000000pt" height="100.000000pt" viewBox="0 0 61.000000 100.000000"
 preserveAspectRatio="xMidYMid meet">
<metadata>
Created by potrace 1.16, written by Peter Selinger 2001-2019
</metadata>
<g transform="translate(0.000000,100.000000) scale(0.100000,-0.100000)"
fill="#000000" stroke="none">
<path d="M200 923 c-58 -50 -116 -142 -141 -225 -18 -58 -20 -89 -17 -206 l3
-139 44 -88 c31 -62 63 -108 105 -151 91 -93 133 -96 217 -17 97 91 166 282
156 428 -8 105 -59 249 -113 319 -97 123 -174 147 -254 79z m193 -87 c21 -24
37 -51 37 -60 0 -8 -12 -36 -27 -61 -47 -77 -69 -57 -82 75 -6 51 -8 97 -5
102 8 13 38 -8 77 -56z m-125 -53 c-3 -125 -12 -134 -65 -65 -43 57 -42 87 4
134 59 60 64 54 61 -69z m-83 -99 c33 -50 40 -84 17 -84 -16 0 -84 109 -78
125 9 26 23 17 61 -41z m285 13 c0 -29 -46 -97 -66 -97 -19 0 -11 29 23 83 26
42 43 48 43 14z m-319 -106 c22 -41 26 -57 19 -77 -7 -17 -5 -34 7 -58 13 -29
14 -39 4 -65 -16 -38 -46 -65 -64 -58 -30 11 -46 266 -20 310 10 16 27 0 54
-52z m206 -27 l42 -80 -41 -62 c-22 -34 -47 -62 -54 -62 -14 0 -84 112 -84
135 0 17 46 123 62 142 19 23 31 10 75 -73z m157 9 c9 -54 0 -210 -14 -232
-11 -18 -26 -7 -57 42 -25 39 -25 41 -8 69 14 25 15 34 4 60 -11 27 -10 35 12
74 31 58 51 54 63 -13z m-77 -247 c33 -48 40 -81 16 -81 -16 0 -83 95 -83 118
0 32 31 15 67 -37z m-197 25 c0 -23 -68 -113 -81 -106 -17 11 -9 38 27 81 38
47 54 55 54 25z m147 -92 c18 -30 32 -59 33 -66 0 -17 -59 -83 -75 -83 -20 0
-22 17 -17 118 3 61 8 92 15 89 7 -2 26 -28 44 -58z m-107 -54 c0 -60 -4 -95
-11 -95 -19 0 -69 64 -69 88 0 23 56 102 72 102 4 0 8 -43 8 -95z"/>
</g>
</svg>
