<?xml version="1.0" standalone="no"?>
<!DOCTYPE svg PUBLIC "-//W3C//DTD SVG 20010904//EN"
 "http://www.w3.org/TR/2001/REC-SVG-20010904/DTD/svg10.dtd">
<svg version="1.0" xmlns="http://www.w3.org/2000/svg"
 width="360.000000pt" height="590.000000pt" viewBox="0 0 360.000000 590.000000"
 preserveAspectRatio="xMidYMid meet">
<metadata>
Created by potrace 1.16, written by Peter Selinger 2001-2019
</metadata>
<g transform="translate(0.000000,590.000000) scale(0.500000,-0.500000)"
fill="#000000" stroke="none">
<path d="M328 1134 c-3 -1 -11 -2 -18 -2 -12 0 -26 -5 -29 -10 -1 -1 -7 -6
-13 -10 -20 -13 -84 -73 -96 -91 -5 -8 -10 -15 -29 -39 -9 -11 -47 -83 -55
-101 -11 -28 -22 -61 -22 -66 0 -3 -1 -11 -3 -18 -2 -7 -3 -17 -3 -22 0 -6 -2
-16 -4 -23 -14 -40 -14 -263 0 -296 4 -11 15 -51 18 -66 5 -28 13 -47 30 -69
5 -7 11 -16 12 -20 1 -5 4 -11 6 -15 2 -4 6 -11 8 -17 2 -5 8 -14 13 -21 5 -6
11 -15 13 -20 2 -5 8 -13 13 -19 4 -5 10 -13 13 -17 3 -4 14 -17 25 -29 11
-11 22 -25 25 -30 8 -11 62 -56 79 -64 3 -2 10 -7 16 -11 17 -13 67 -9 88 7 4
4 12 8 16 9 11 4 17 8 41 31 12 11 29 27 38 35 11 9 21 21 31 37 8 12 19 27
24 34 5 7 12 18 15 25 4 7 11 23 17 35 15 31 28 63 30 72 1 4 6 18 12 30 10
19 11 22 11 35 0 17 6 53 11 61 2 5 3 12 3 35 0 15 1 39 3 53 4 26 3 87 -1
106 -1 6 -3 17 -4 25 -1 8 -3 18 -4 21 -1 3 -3 12 -4 20 -2 16 -11 46 -21 70
-4 9 -9 25 -12 37 -3 11 -8 27 -12 34 -4 7 -8 17 -9 22 -5 18 -23 51 -45 79
-6 7 -17 21 -25 32 -8 11 -26 31 -39 44 -14 14 -25 26 -25 27 0 1 -6 5 -14 10
-8 5 -15 11 -19 16 -3 5 -9 9 -15 12 -5 2 -12 7 -17 10 -16 13 -52 19 -73 12z
m69 -71 c6 -5 16 -15 23 -22 7 -7 18 -17 25 -22 14 -10 26 -22 36 -36 5 -6 14
-18 22 -27 25 -31 25 -37 3 -73 -5 -9 -12 -21 -14 -27 -3 -8 -8 -16 -17 -26
-9 -9 -13 -16 -13 -19 0 -5 -11 -21 -18 -27 -14 -12 -37 3 -48 32 -2 6 -7 15
-11 21 -7 11 -8 25 -10 169 -1 74 -1 76 22 57z m-75 -2 c4 -3 4 -3 3 -47 -1
-51 -1 -55 -1 -68 0 -5 0 -14 0 -19 -1 -21 4 -62 8 -75 5 -13 5 -13 -4 -30
-27 -50 -35 -55 -50 -30 -3 6 -10 14 -14 18 -5 4 -12 11 -16 14 -5 4 -12 14
-18 26 -6 10 -14 24 -19 31 -32 42 -18 97 32 127 9 5 13 9 40 36 19 19 29 23
39 17z m-153 -186 c7 -2 12 -9 67 -86 33 -46 34 -53 19 -77 -14 -24 -18 -25
-26 -8 -3 4 -8 12 -12 16 -4 4 -8 11 -9 16 -1 4 -5 11 -8 15 -3 4 -7 11 -8 14
-2 10 -15 26 -23 31 -8 5 -15 17 -15 26 0 2 -3 10 -7 17 -11 20 -9 32 6 37 6
2 8 1 16 -1z m389 -12 c4 -8 7 -37 4 -49 -1 -9 -4 -14 -48 -80 -3 -5 -9 -12
-11 -13 -3 -2 -7 -8 -10 -14 -6 -13 -12 -17 -20 -13 -11 5 -13 31 -3 46 3 5 8
14 11 19 16 34 29 55 35 62 4 4 11 16 16 26 12 26 19 30 26 16z m-428 -81 c4
-4 12 -14 17 -23 13 -20 32 -50 38 -61 3 -5 9 -14 13 -19 22 -29 25 -48 10
-72 -15 -25 -16 -41 -2 -50 10 -7 16 -16 18 -29 1 -6 4 -16 6 -21 10 -21 6
-35 -15 -58 -10 -10 -20 -23 -23 -28 -28 -48 -85 -49 -73 -2 1 2 -1 9 -3 15
-4 9 -4 15 -4 34 0 22 0 22 -7 29 -9 11 -12 70 -8 172 0 13 1 27 1 31 0 6 2
10 7 15 6 8 6 8 7 39 1 39 4 44 18 28z m236 -6 c8 -9 94 -152 95 -159 1 -3 5
-10 10 -15 20 -21 18 -37 -6 -62 -7 -7 -16 -17 -19 -22 -3 -5 -14 -18 -24 -29
-10 -11 -22 -27 -27 -36 -27 -45 -38 -46 -62 -7 -3 6 -10 16 -15 23 -72 93
-81 119 -56 157 4 7 8 14 8 15 0 1 2 6 5 11 3 5 9 17 14 27 5 10 11 22 14 25
2 4 11 19 19 34 22 42 32 51 44 38z m221 -11 c0 -2 1 -6 1 -8 0 -3 3 -8 8 -14
11 -11 14 -17 15 -33 1 -7 2 -17 3 -22 9 -45 9 -44 7 -96 -1 -48 -1 -52 -5
-60 -4 -8 -4 -10 -3 -21 3 -19 0 -53 -5 -82 -2 -12 -20 -52 -24 -54 -7 -4 -30
21 -44 48 -8 16 -20 33 -27 41 -33 36 -32 46 4 84 11 12 12 15 11 28 0 7 -15
35 -23 46 -13 16 -10 27 14 54 7 8 15 18 17 24 19 41 46 76 51 65z m-121 -306
c4 -5 12 -14 17 -20 6 -5 14 -16 20 -24 19 -29 30 -46 32 -52 2 -4 6 -10 10
-14 22 -22 21 -56 -1 -69 -12 -6 -42 24 -49 50 -4 14 -8 19 -16 24 -4 3 -9 9
-12 15 -3 5 -9 14 -14 19 -18 21 -22 31 -17 41 2 4 4 10 5 14 1 3 1 7 2 10 3
17 13 19 23 6z m-185 -13 c15 -9 6 -51 -15 -73 -6 -6 -10 -12 -10 -15 0 -10
-4 -16 -15 -21 -6 -3 -11 -6 -12 -9 -17 -37 -21 -41 -38 -41 -23 0 -31 20 -16
38 4 3 7 11 9 16 2 7 5 12 12 20 17 18 26 29 31 40 10 24 44 52 54 45z m129
-60 c5 -2 29 -37 52 -74 7 -13 17 -28 21 -33 4 -4 7 -9 7 -10 0 -1 2 -7 5 -14
14 -38 14 -40 -5 -58 -8 -8 -16 -18 -18 -22 -4 -8 -17 -23 -20 -23 -1 0 -6 -3
-11 -8 -38 -34 -69 -27 -55 13 2 8 2 10 -1 18 -4 12 -4 27 0 44 3 12 3 23 2
74 -2 84 3 102 23 93z m-77 -23 c4 -5 4 -7 4 -107 0 -55 1 -106 2 -112 3 -19
-18 -23 -35 -7 -3 3 -10 7 -16 10 -8 4 -13 9 -18 16 -4 6 -14 18 -22 27 -30
33 -30 63 2 94 6 6 14 15 18 20 11 16 25 34 31 44 17 23 25 27 34 15z"/>
</g>
</svg>
