<?xml version="1.0" standalone="no"?>
<!DOCTYPE svg PUBLIC "-//W3C//DTD SVG 20010904//EN"
 "http://www.w3.org/TR/2001/REC-SVG-20010904/DTD/svg10.dtd">
<svg version="1.0" xmlns="http://www.w3.org/2000/svg"
 width="90.000000pt" height="148.000000pt" viewBox="0 0 90.000000 148.000000"
 preserveAspectRatio="xMidYMid meet">
<metadata>
Created by potrace 1.16, written by Peter Selinger 2001-2019
</metadata>
<g transform="translate(0.000000,148.000000) scale(0.100000,-0.100000)"
fill="#000000" stroke="none">
<path d="M344 1398 c-196 -146 -295 -366 -293 -647 1 -165 26 -262 104 -402
61 -108 148 -209 223 -259 40 -26 53 -30 85 -24 21 3 49 12 62 18 34 18 111
90 151 142 35 46 104 183 104 207 0 7 4 17 10 23 16 16 39 163 41 259 4 182
-59 388 -157 515 -46 60 -133 146 -176 173 -40 25 -118 23 -154 -5z m224 -138
c40 -40 75 -83 78 -95 6 -23 -15 -68 -69 -152 -30 -47 -46 -53 -69 -25 -29 35
-36 72 -43 217 -9 173 -14 171 103 55z m-162 -48 c-2 -64 0 -127 5 -140 7 -18
4 -34 -13 -63 -12 -21 -25 -39 -30 -39 -12 0 -66 63 -100 116 -17 28 -28 59
-28 82 -1 33 7 44 72 103 39 37 78 65 85 62 10 -4 12 -32 9 -121z m-150 -174
c25 -35 53 -77 61 -95 15 -29 15 -34 -1 -57 -9 -14 -20 -26 -24 -26 -4 0 -18
23 -32 51 -14 28 -34 61 -46 73 -26 27 -48 81 -40 101 11 29 36 14 82 -47z
m444 10 c0 -34 -10 -57 -47 -115 -51 -76 -69 -88 -78 -50 -4 16 5 42 29 82 20
33 43 75 53 93 24 46 43 42 43 -10z m-486 -151 c60 -100 63 -111 41 -141 -20
-27 -19 -48 4 -68 10 -9 22 -35 26 -58 6 -36 4 -45 -18 -68 -13 -15 -32 -39
-42 -54 -9 -15 -26 -30 -38 -34 -30 -9 -47 20 -47 82 0 29 -4 55 -9 59 -17 10
-23 128 -12 210 6 44 11 99 11 123 -1 66 21 53 84 -51z m278 15 c21 -35 50
-85 64 -112 14 -28 30 -53 35 -56 26 -16 2 -56 -123 -207 l-23 -29 -63 90
c-89 130 -88 123 -35 228 60 120 83 156 96 151 6 -2 28 -31 49 -65z m272 -197
c-1 -144 -5 -188 -18 -218 -9 -21 -21 -37 -26 -35 -5 2 -34 41 -65 87 -59 89
-59 83 -12 135 22 25 22 26 -5 76 -18 33 -20 44 -11 58 7 9 31 48 54 86 l42
69 21 -39 c19 -36 21 -54 20 -219z m-109 -243 c48 -67 53 -87 31 -117 -14 -19
-15 -19 -36 0 -13 11 -29 35 -37 53 -7 17 -18 32 -23 32 -6 0 -10 5 -10 11 0
6 -11 24 -25 41 -18 21 -22 34 -16 46 5 9 12 26 16 37 6 19 8 18 31 -10 14
-16 45 -58 69 -93z m-297 58 c2 -12 -6 -35 -17 -51 -12 -15 -21 -33 -21 -38 0
-5 -8 -16 -18 -23 -9 -7 -25 -25 -35 -40 -19 -31 -38 -35 -56 -14 -10 11 -9
22 5 48 9 18 20 35 23 38 4 3 20 23 37 45 50 69 76 80 82 35z m210 -133 c71
-117 72 -123 20 -181 -44 -49 -92 -81 -107 -71 -9 5 -5 296 4 323 10 29 35 7
83 -71z m-146 -88 c2 -111 0 -153 -9 -156 -18 -7 -64 25 -100 69 -41 51 -44
94 -8 128 14 14 38 44 53 67 15 24 35 43 44 43 15 0 17 -17 20 -151z"/>
</g>
</svg>
