<?xml version="1.0" standalone="no"?>
<!DOCTYPE svg PUBLIC "-//W3C//DTD SVG 20010904//EN"
 "http://www.w3.org/TR/2001/REC-SVG-20010904/DTD/svg10.dtd">
<svg version="1.0" xmlns="http://www.w3.org/2000/svg"
 width="386.000000pt" height="590.000000pt" viewBox="0 0 386.000000 590.000000"
 preserveAspectRatio="xMidYMid meet">
<metadata>
Created by potrace 1.16, written by Peter Selinger 2001-2019
</metadata>
<g transform="translate(0.000000,590.000000) scale(0.500000,-0.500000)"
fill="#000000" stroke="none">
<path d="M359 1139 c-12 -3 -28 -10 -35 -14 -4 -3 -14 -8 -23 -12 -48 -20
-115 -78 -132 -113 -3 -8 -12 -23 -18 -33 -7 -10 -14 -22 -16 -27 -2 -5 -6
-12 -10 -16 -4 -5 -10 -15 -15 -24 -4 -8 -10 -19 -13 -23 -2 -4 -5 -11 -6 -15
-1 -5 -4 -13 -6 -17 -4 -6 -6 -12 -7 -24 -3 -22 -6 -35 -13 -44 -4 -6 -5 -9
-6 -26 -1 -16 -2 -22 -6 -28 -4 -7 -5 -13 -6 -25 -1 -10 -3 -20 -4 -25 -4 -11
-4 -54 0 -65 2 -6 3 -18 3 -49 0 -38 0 -41 6 -64 3 -13 6 -26 6 -29 0 -6 12
-37 24 -64 4 -9 8 -19 9 -22 2 -8 18 -40 24 -49 3 -4 12 -21 21 -38 8 -16 19
-35 24 -41 5 -7 13 -17 18 -24 5 -7 13 -17 17 -23 4 -5 10 -13 13 -17 3 -4 11
-14 20 -23 14 -15 20 -22 35 -45 8 -10 12 -13 40 -27 11 -6 25 -15 31 -20 14
-13 16 -14 35 -20 24 -9 45 -4 71 13 3 2 9 5 14 7 12 4 30 17 43 32 7 7 14 13
16 13 4 0 50 46 56 56 3 4 8 10 11 13 4 3 10 11 14 17 5 7 11 14 16 16 6 4 12
10 21 23 6 10 15 22 18 26 4 4 8 11 9 15 1 4 7 17 13 30 8 15 12 26 13 35 3
18 10 47 18 73 5 18 9 43 12 72 1 9 3 21 4 25 10 28 2 147 -11 167 -10 16 -17
38 -17 55 0 16 -13 59 -23 75 -3 6 -8 16 -9 22 -1 5 -3 11 -4 11 -1 1 -5 7 -8
14 -3 6 -7 13 -9 15 -1 2 -5 8 -7 14 -15 40 -42 83 -61 96 -4 3 -10 9 -13 15
-4 5 -9 11 -11 12 -2 1 -14 14 -26 27 -22 23 -27 30 -47 58 -19 27 -42 39 -81
39 -15 0 -30 0 -32 0z m30 -43 c2 -1 7 -5 10 -8 3 -3 12 -9 18 -13 7 -4 15
-10 17 -13 3 -4 9 -11 14 -16 11 -11 29 -34 36 -43 2 -4 5 -7 6 -7 6 0 24 -21
24 -28 0 -7 -113 -123 -125 -128 -7 -3 1 -9 -98 84 -28 26 -52 50 -52 53 -2 7
7 23 17 31 4 3 10 11 13 16 5 9 8 11 15 14 13 5 41 24 52 35 19 19 41 29 53
23z m-180 -190 c8 -6 47 -44 88 -83 78 -77 81 -79 90 -79 6 0 1 -5 113 105 57
56 62 60 68 51 23 -30 38 -58 38 -72 0 -9 1 -12 6 -18 21 -26 27 -18 -83 -126
-107 -106 -104 -101 -64 -136 50 -45 132 -120 170 -156 14 -13 15 -26 4 -42
-4 -5 -9 -13 -12 -19 -2 -5 -6 -12 -9 -14 -2 -2 -6 -7 -8 -11 -14 -23 -23 -24
-43 -7 -18 15 -94 83 -127 114 -51 48 -47 48 -98 -5 -126 -128 -136 -138 -143
-132 -4 3 -18 23 -23 34 -3 5 -7 12 -9 15 -7 9 -19 35 -19 40 0 6 13 21 68 79
25 26 49 51 54 57 5 5 19 20 31 33 50 53 56 40 -71 167 -118 118 -112 110 -96
134 3 4 10 16 15 26 8 16 27 45 35 54 5 6 11 4 25 -9z m-26 -256 c40 -40 63
-65 63 -67 0 -7 -5 -12 -61 -71 -55 -57 -60 -62 -66 -62 -4 0 -15 29 -16 44
-1 8 -3 16 -6 22 -16 28 -26 101 -17 125 1 3 3 14 4 24 1 19 6 28 20 44 10 10
10 10 79 -59z m477 37 c2 -8 5 -19 6 -26 1 -7 3 -15 4 -18 1 -3 2 -15 2 -27 0
-12 1 -26 3 -33 4 -15 4 -62 0 -77 -2 -6 -3 -18 -3 -28 0 -26 1 -26 -52 21
-47 42 -84 77 -86 81 -3 7 2 13 43 54 80 78 75 75 83 53z m-256 -351 c7 -4 16
-12 22 -17 5 -4 12 -10 16 -13 4 -3 13 -10 20 -17 8 -7 15 -13 16 -13 4 0 45
-42 48 -48 4 -10 1 -15 -33 -47 -19 -18 -37 -35 -40 -39 -37 -41 -59 -46 -89
-19 -9 9 -20 18 -24 21 -4 3 -10 7 -14 11 -4 3 -9 6 -12 8 -3 1 -11 7 -18 14
-7 6 -19 15 -26 21 -21 15 -20 18 10 50 104 107 99 104 124 88z"/>
</g>
</svg>
