<?xml version="1.0" standalone="no"?>
<!DOCTYPE svg PUBLIC "-//W3C//DTD SVG 20010904//EN"
 "http://www.w3.org/TR/2001/REC-SVG-20010904/DTD/svg10.dtd">
<svg version="1.0" xmlns="http://www.w3.org/2000/svg"
 width="65.000000pt" height="100.000000pt" viewBox="0 0 65.000000 100.000000"
 preserveAspectRatio="xMidYMid meet">
<metadata>
Created by potrace 1.16, written by Peter Selinger 2001-2019
</metadata>
<g transform="translate(0.000000,100.000000) scale(0.100000,-0.100000)"
fill="#000000" stroke="none">
<path d="M224 927 c-72 -49 -146 -167 -173 -273 -48 -191 -6 -348 138 -515
106 -123 157 -127 263 -19 92 95 117 135 139 232 23 101 24 186 4 235 -8 19
-15 43 -15 53 0 33 -70 155 -131 230 -34 41 -66 78 -73 82 -6 4 -32 8 -57 8
-37 0 -57 -7 -95 -33z m148 -54 c26 -26 48 -52 48 -59 0 -16 -36 -60 -70 -84
l-30 -21 -60 57 c-44 42 -57 61 -51 72 10 17 91 80 106 81 5 1 31 -20 57 -46z
m-136 -173 c39 -39 78 -70 86 -70 7 0 42 29 78 65 35 35 68 61 73 58 5 -3 18
-26 29 -51 l20 -45 -76 -76 c-42 -42 -76 -83 -76 -90 0 -8 36 -48 80 -88 51
-47 80 -82 80 -96 0 -21 -26 -57 -42 -57 -4 0 -40 29 -79 65 -39 36 -76 65
-83 65 -6 0 -43 -32 -81 -70 -38 -39 -73 -70 -77 -70 -8 0 -38 54 -38 69 0 6
34 46 75 90 41 44 75 86 75 93 0 7 -39 52 -87 100 l-87 88 22 45 c12 25 25 45
29 45 3 0 39 -31 79 -70z m-82 -159 l49 -49 -21 -29 c-31 -43 -69 -76 -81 -69
-16 10 -31 75 -31 132 0 81 16 84 84 15z m404 -54 c1 -48 -1 -87 -5 -87 -5 0
-30 19 -57 43 -43 38 -48 45 -38 64 16 28 72 75 86 70 7 -2 12 -37 14 -90z
m-166 -246 l53 -49 -40 -42 c-55 -57 -73 -59 -134 -15 -28 20 -51 41 -51 46 0
15 91 109 106 109 7 0 37 -22 66 -49z"/>
</g>
</svg>
