<?xml version="1.0" standalone="no"?>
<!DOCTYPE svg PUBLIC "-//W3C//DTD SVG 20010904//EN"
 "http://www.w3.org/TR/2001/REC-SVG-20010904/DTD/svg10.dtd">
<svg version="1.0" xmlns="http://www.w3.org/2000/svg"
 width="66.000000pt" height="100.000000pt" viewBox="0 0 66.000000 100.000000"
 preserveAspectRatio="xMidYMid meet">
<metadata>
Created by potrace 1.16, written by Peter Selinger 2001-2019
</metadata>
<g transform="translate(0.000000,100.000000) scale(0.100000,-0.100000)"
fill="#000000" stroke="none">
<path d="M202 873 c-63 -64 -97 -108 -122 -158 -35 -70 -35 -70 -34 -205 1
-124 3 -141 29 -205 22 -53 44 -85 89 -130 67 -67 194 -140 225 -130 42 13
141 133 184 222 l42 88 -2 132 -1 132 -49 82 c-28 48 -84 119 -133 171 -112
116 -113 116 -228 1z m99 -70 l21 -34 -29 -37 c-40 -49 -56 -50 -82 -9 -28 46
-27 63 8 98 35 34 52 31 82 -18z m154 -34 c30 -36 30 -73 0 -77 -32 -4 -81 79
-58 101 13 14 32 6 58 -24z m-83 -66 c38 -44 40 -61 12 -98 -14 -19 -32 -35
-39 -35 -14 0 -65 55 -65 70 0 12 60 80 69 80 5 0 15 -8 23 -17z m-182 -25
c25 -42 26 -41 -11 -77 -25 -25 -34 -29 -50 -21 -23 13 -25 47 -5 95 19 44 41
44 66 3z m355 -50 c44 -94 26 -125 -29 -52 -38 49 -44 72 -24 92 20 20 28 14
53 -40z m-265 -68 c25 -35 21 -56 -16 -91 l-26 -24 -29 33 c-16 18 -29 36 -29
41 0 16 51 71 65 71 8 0 23 -13 35 -30z m200 -12 c16 -22 30 -44 30 -48 0 -13
-45 -73 -57 -77 -13 -5 -73 72 -73 93 0 15 48 74 61 74 5 0 22 -19 39 -42z
m-301 -104 c28 -35 26 -48 -8 -86 -24 -27 -31 -30 -44 -20 -20 17 -30 74 -17
106 12 34 42 34 69 0z m199 -18 c18 -24 32 -48 32 -53 0 -13 -54 -63 -67 -63
-13 0 -63 71 -63 90 0 14 48 70 60 70 4 0 21 -20 38 -44z m188 -2 c7 -29 -10
-99 -28 -110 -10 -7 -58 38 -58 54 0 12 61 82 71 82 5 0 12 -12 15 -26z m-292
-114 c33 -50 33 -60 -4 -95 l-30 -29 -42 41 -41 41 32 41 c18 23 38 41 46 41
7 0 24 -18 39 -40z m200 -11 c14 -17 26 -35 26 -40 0 -16 -28 -65 -45 -79 -15
-12 -19 -11 -35 10 -44 57 -45 66 -16 105 15 19 31 35 36 35 4 0 20 -14 34
-31z m-95 -126 c17 -21 31 -43 31 -49 0 -22 -33 -25 -68 -6 -50 26 -61 46 -38
71 27 29 40 26 75 -16z"/>
</g>
</svg>
