<?xml version="1.0" standalone="no"?>
<!DOCTYPE svg PUBLIC "-//W3C//DTD SVG 20010904//EN"
 "http://www.w3.org/TR/2001/REC-SVG-20010904/DTD/svg10.dtd">
<svg version="1.0" xmlns="http://www.w3.org/2000/svg"
 width="98.000000pt" height="148.000000pt" viewBox="0 0 98.000000 148.000000"
 preserveAspectRatio="xMidYMid meet">
<metadata>
Created by potrace 1.16, written by Peter Selinger 2001-2019
</metadata>
<g transform="translate(0.000000,148.000000) scale(0.100000,-0.100000)"
fill="#000000" stroke="none">
<path d="M405 1390 c-81 -65 -192 -177 -216 -220 -14 -25 -42 -74 -63 -108
-65 -115 -80 -213 -57 -396 6 -49 8 -92 6 -96 -5 -9 49 -148 63 -162 7 -7 12
-21 12 -31 0 -23 146 -187 166 -187 8 0 14 -5 14 -10 0 -6 26 -23 58 -39 31
-16 80 -41 109 -56 36 -19 58 -25 75 -19 12 4 64 48 113 98 80 80 97 104 143
198 82 171 85 185 80 371 -4 156 -6 165 -35 227 -59 124 -189 298 -286 383
-101 89 -123 94 -182 47z m130 -100 c37 -38 38 -41 24 -66 -19 -37 -36 -40
-59 -13 -79 95 -49 165 35 79z m-97 -80 c23 -32 42 -64 42 -70 0 -7 -22 -37
-50 -68 -27 -31 -50 -60 -50 -64 0 -17 -30 -7 -41 15 -7 12 -27 42 -46 66
l-33 44 23 40 c18 34 87 95 108 97 3 0 24 -27 47 -60z m218 -42 c17 -18 40
-49 52 -69 l22 -36 -36 -34 c-34 -32 -37 -33 -48 -15 -6 10 -28 40 -48 66 -21
26 -38 51 -38 55 0 14 42 65 54 65 7 0 26 -15 42 -32z m-82 -148 c54 -79 55
-70 -18 -147 -22 -24 -46 -43 -54 -43 -15 0 -35 21 -78 82 l-27 38 34 38 c19
22 46 53 61 70 14 18 28 32 30 32 3 0 26 -32 52 -70z m-291 -13 c21 -30 37
-56 37 -60 0 -11 -71 -87 -92 -98 -27 -15 -78 26 -78 63 0 42 56 148 78 148
11 0 34 -22 55 -53z m525 -69 c29 -60 39 -94 38 -123 -2 -52 -26 -58 -53 -13
-11 18 -39 58 -61 89 l-41 56 36 36 c19 21 37 37 38 37 2 0 21 -37 43 -82z
m-389 -110 l41 -57 -47 -66 c-26 -36 -51 -65 -57 -64 -6 0 -33 30 -59 66 l-48
66 23 26 c62 71 93 100 99 93 3 -4 25 -33 48 -64z m292 0 c24 -35 47 -70 51
-79 8 -21 -71 -144 -92 -144 -8 0 -40 34 -72 75 -55 72 -69 100 -49 100 6 0
29 25 53 55 23 30 48 55 53 55 6 0 31 -28 56 -62z m-548 -18 c21 -25 22 -44 0
-69 -24 -28 -33 -17 -33 40 0 54 7 59 33 29z m101 -152 c25 -29 46 -57 46 -62
0 -10 -66 -95 -88 -113 -33 -27 -72 45 -72 130 0 39 33 95 57 96 6 1 32 -23
57 -51z m284 -6 c23 -32 48 -64 56 -72 9 -7 16 -18 16 -24 0 -15 -100 -116
-114 -116 -6 0 -18 11 -27 23 -9 12 -32 45 -53 73 l-36 52 51 61 c29 33 55 61
59 61 4 0 26 -26 48 -58z m296 -35 c8 -40 6 -56 -14 -105 -13 -31 -28 -63 -33
-70 -11 -15 -17 -9 -73 70 l-26 38 53 59 c30 33 61 59 69 58 9 -1 18 -20 24
-50z m-457 -119 c16 -22 39 -61 52 -85 l24 -44 -49 -50 c-26 -27 -53 -49 -59
-49 -14 0 -125 108 -125 123 0 7 14 28 31 47 17 19 42 50 56 68 14 17 29 32
34 32 5 0 21 -19 36 -42z m326 -60 c38 -54 39 -58 27 -90 -15 -38 -70 -118
-80 -118 -8 0 -110 135 -110 145 0 14 103 126 113 122 6 -2 28 -28 50 -59z
m-145 -184 c26 -36 47 -71 47 -77 0 -6 -11 -18 -25 -25 -23 -13 -31 -12 -83
12 -58 28 -87 50 -87 67 0 15 71 89 86 89 8 0 35 -30 62 -66z"/>
</g>
</svg>
