<?xml version="1.0" standalone="no"?>
<!DOCTYPE svg PUBLIC "-//W3C//DTD SVG 20010904//EN"
 "http://www.w3.org/TR/2001/REC-SVG-20010904/DTD/svg10.dtd">
<svg version="1.0" xmlns="http://www.w3.org/2000/svg"
 width="312.000000pt" height="590.000000pt" viewBox="0 0 312.000000 590.000000"
 preserveAspectRatio="xMidYMid meet">
<metadata>
Created by potrace 1.16, written by Peter Selinger 2001-2019
</metadata>
<g transform="translate(0.000000,590.000000) scale(0.500000,-0.500000)"
fill="#000000" stroke="none">
<path d="M486 1115 c-6 -6 -9 -12 -58 -104 -38 -72 -38 -72 -59 -51 -15 16
-16 14 17 74 37 68 37 68 22 78 -20 12 -22 9 -57 -61 -40 -80 -43 -80 -43 4 0
57 0 57 -15 60 -23 5 -26 -2 -23 -63 3 -54 2 -61 -4 -64 -9 -5 -14 2 -43 61
-33 64 -37 69 -52 61 -19 -10 -18 -16 11 -67 45 -81 43 -75 35 -87 -21 -30
-23 -28 -71 62 -10 19 -23 42 -28 50 -4 8 -12 20 -15 27 -12 21 -20 25 -35 17
-10 -5 -14 -14 -12 -22 2 -8 25 -47 34 -59 4 -5 10 -14 14 -20 69 -116 64
-100 36 -136 -22 -30 -23 -31 -43 -69 -15 -28 -20 -39 -33 -76 -2 -6 -6 -22
-7 -36 -2 -14 -4 -29 -6 -33 -11 -26 -11 -224 1 -252 2 -5 6 -20 9 -33 13 -57
15 -62 29 -80 4 -5 10 -17 15 -28 5 -12 13 -26 17 -32 4 -6 10 -15 13 -21 32
-53 106 -125 153 -149 38 -19 129 34 178 103 6 9 14 20 18 26 13 16 53 99 57
119 1 3 5 14 10 24 7 14 8 19 9 35 2 21 5 38 8 46 3 6 5 35 7 112 1 33 1 39
-4 67 -3 17 -6 36 -7 42 -2 12 -13 49 -21 69 -3 7 -6 18 -8 25 -2 7 -7 21 -11
30 -4 9 -9 21 -11 26 -4 11 -20 38 -29 49 -3 4 -14 18 -24 31 -10 13 -22 27
-28 32 -14 15 -16 11 47 116 48 80 49 82 38 92 -11 10 -23 12 -31 5z m-152
-182 c39 -30 39 -24 -9 -107 -29 -50 -36 -57 -45 -44 -14 20 -56 95 -56 100 0
6 4 13 9 16 3 1 9 7 15 13 6 6 14 13 19 15 4 3 13 9 20 14 17 15 21 14 47 -7z
m82 -78 c43 -56 73 -110 76 -135 1 -15 16 -62 24 -77 2 -5 4 -14 5 -21 1 -7 3
-22 5 -33 5 -26 6 -89 1 -105 -2 -7 -4 -19 -4 -32 0 -37 -5 -69 -13 -86 -2 -5
-4 -12 -4 -15 0 -3 -3 -14 -6 -24 -4 -10 -7 -23 -8 -29 -1 -6 -4 -14 -7 -18
-2 -4 -6 -11 -7 -15 -7 -20 -18 -35 -46 -60 -12 -11 -23 -23 -26 -27 -12 -21
-51 -50 -66 -50 -3 0 -9 -3 -14 -6 -13 -9 -23 -8 -34 4 -3 3 -9 7 -13 9 -13 6
-34 21 -41 30 -4 4 -12 13 -17 20 -6 6 -13 15 -16 21 -3 5 -11 15 -18 22 -8 9
-13 16 -15 22 -2 4 -6 12 -9 16 -7 7 -21 39 -21 45 0 1 -3 6 -6 11 -4 5 -8 12
-9 17 -2 4 -6 12 -9 17 -4 6 -6 13 -7 20 -1 6 -3 15 -4 21 -2 5 -3 17 -3 26 0
14 -1 17 -6 25 -13 21 -13 162 1 181 5 8 5 9 5 30 0 23 1 26 11 40 2 4 4 10 5
18 0 6 2 16 3 21 2 4 3 10 3 13 0 7 14 37 23 49 3 5 10 17 15 26 11 25 26 34
33 22 4 -6 33 -58 46 -83 25 -46 27 -49 48 -45 20 3 29 13 54 61 53 100 51 99
71 74z"/>
</g>
</svg>
