<?xml version="1.0" standalone="no"?>
<!DOCTYPE svg PUBLIC "-//W3C//DTD SVG 20010904//EN"
 "http://www.w3.org/TR/2001/REC-SVG-20010904/DTD/svg10.dtd">
<svg version="1.0" xmlns="http://www.w3.org/2000/svg"
 width="78.000000pt" height="148.000000pt" viewBox="0 0 78.000000 148.000000"
 preserveAspectRatio="xMidYMid meet">
<metadata>
Created by potrace 1.16, written by Peter Selinger 2001-2019
</metadata>
<g transform="translate(0.000000,148.000000) scale(0.100000,-0.100000)"
fill="#000000" stroke="none">
<path d="M77 1393 c-13 -12 -7 -45 12 -71 34 -49 111 -180 111 -190 0 -5 -14
-27 -31 -48 -42 -51 -91 -157 -103 -219 -5 -27 -9 -115 -10 -195 -1 -152 16
-243 53 -300 9 -14 22 -36 28 -50 19 -46 130 -176 182 -214 l51 -38 45 15 c56
19 114 67 163 132 37 50 82 131 82 147 0 4 9 27 19 51 11 24 24 89 31 155 13
124 5 203 -31 296 -10 27 -19 55 -19 62 0 24 -55 120 -98 171 l-43 50 66 110
c62 106 73 143 40 143 -17 0 -25 -11 -80 -115 -26 -49 -52 -94 -56 -99 -8 -9
-49 19 -49 35 0 4 18 39 41 78 41 71 45 101 14 101 -11 0 -30 -28 -53 -80 -20
-44 -42 -80 -49 -80 -8 0 -13 25 -15 78 -3 69 -5 77 -23 77 -19 0 -20 -6 -17
-82 3 -71 1 -83 -12 -83 -11 0 -29 27 -52 77 -19 42 -36 79 -39 81 -6 6 -45
-9 -45 -17 0 -5 20 -43 45 -84 41 -67 44 -78 33 -96 -7 -12 -18 -21 -25 -21
-9 0 -103 158 -125 213 -7 17 -29 23 -41 10z m350 -235 l31 -33 -45 -77 c-25
-43 -50 -78 -56 -78 -7 0 -29 31 -50 68 l-39 67 48 43 c27 23 56 42 64 42 9 0
30 -15 47 -32z m126 -139 c26 -39 50 -83 52 -98 3 -14 13 -46 21 -71 9 -25 21
-67 26 -95 10 -55 2 -258 -11 -290 -5 -11 -14 -40 -21 -65 -21 -74 -37 -102
-92 -161 -56 -60 -111 -99 -140 -99 -41 0 -149 107 -192 190 -45 87 -66 146
-81 225 -16 83 -16 99 -2 195 17 121 42 213 65 250 10 14 22 34 28 45 19 34
36 22 79 -58 23 -43 47 -83 53 -89 20 -20 56 17 102 106 25 47 50 86 55 86 6
0 32 -32 58 -71z"/>
</g>
</svg>
