<?xml version="1.0" standalone="no"?>
<!DOCTYPE svg PUBLIC "-//W3C//DTD SVG 20010904//EN"
 "http://www.w3.org/TR/2001/REC-SVG-20010904/DTD/svg10.dtd">
<svg version="1.0" xmlns="http://www.w3.org/2000/svg"
 width="53.000000pt" height="100.000000pt" viewBox="0 0 53.000000 100.000000"
 preserveAspectRatio="xMidYMid meet">
<metadata>
Created by potrace 1.16, written by Peter Selinger 2001-2019
</metadata>
<g transform="translate(0.000000,100.000000) scale(0.100000,-0.100000)"
fill="#000000" stroke="none">
<path d="M47 943 c-13 -13 -6 -30 39 -102 l47 -72 -20 -28 c-38 -50 -62 -108
-73 -172 -31 -192 9 -333 130 -461 49 -51 60 -58 94 -58 33 0 46 8 101 61 52
50 70 75 92 133 25 63 28 84 28 186 0 134 -23 218 -81 294 -19 25 -34 50 -34
57 0 6 18 41 41 76 22 36 38 71 35 80 -12 30 -42 7 -76 -59 -34 -67 -60 -87
-60 -48 0 11 9 34 20 52 24 39 26 68 5 68 -9 0 -24 -20 -35 -45 -11 -25 -24
-45 -30 -45 -5 0 -10 20 -10 45 0 33 -4 45 -15 45 -11 0 -15 -12 -15 -49 0
-28 -4 -52 -8 -55 -5 -3 -21 20 -36 51 -25 51 -29 55 -43 40 -15 -15 -14 -19
10 -56 28 -43 36 -85 15 -79 -7 2 -30 36 -51 76 -35 66 -53 83 -70 65z m238
-163 c15 -17 16 -24 5 -49 -6 -16 -20 -37 -30 -46 -17 -15 -19 -14 -39 11 -28
36 -27 58 5 83 33 26 36 26 59 1z m92 -105 c47 -81 66 -169 60 -269 -7 -116
-27 -173 -85 -237 -55 -61 -78 -72 -112 -52 -33 19 -96 104 -128 171 -46 101
-39 270 16 381 24 50 39 49 61 -1 21 -50 44 -73 66 -64 8 3 27 30 42 61 32 65
48 67 80 10z"/>
</g>
</svg>
