<?xml version="1.0" standalone="no"?>
<!DOCTYPE svg PUBLIC "-//W3C//DTD SVG 20010904//EN"
 "http://www.w3.org/TR/2001/REC-SVG-20010904/DTD/svg10.dtd">
<svg version="1.0" xmlns="http://www.w3.org/2000/svg"
 width="72.000000pt" height="148.000000pt" viewBox="0 0 72.000000 148.000000"
 preserveAspectRatio="xMidYMid meet">
<metadata>
Created by potrace 1.16, written by Peter Selinger 2001-2019
</metadata>
<g transform="translate(0.000000,148.000000) scale(0.100000,-0.100000)"
fill="#000000" stroke="none">
<path d="M327 1418 c-2 -7 -2 -28 1 -45 6 -44 -10 -42 -42 7 -14 22 -31 40
-36 40 -24 0 -20 -32 10 -74 31 -42 35 -76 10 -76 -5 0 -26 25 -47 55 -22 35
-42 55 -52 53 -30 -6 -23 -38 18 -81 47 -49 50 -61 18 -82 -26 -17 -84 -98
-115 -160 -34 -69 -46 -144 -46 -285 -1 -139 14 -233 43 -280 9 -14 26 -46 39
-71 12 -25 44 -69 69 -98 l47 -54 -19 -31 c-49 -83 -77 -146 -72 -160 13 -33
36 -14 70 57 19 39 42 81 50 92 14 18 16 18 22 4 4 -10 -9 -47 -30 -90 -35
-68 -36 -74 -20 -86 10 -7 21 -10 25 -8 4 3 20 35 35 72 49 123 67 125 119 13
36 -78 59 -99 73 -64 3 9 0 26 -7 38 -42 65 -70 125 -60 131 17 10 29 -3 65
-76 25 -49 41 -69 55 -69 31 0 31 14 0 64 -17 26 -30 49 -30 52 0 3 -9 18 -20
33 l-19 28 38 42 c76 84 127 213 140 353 13 137 -2 248 -49 353 -5 11 -12 30
-15 42 -11 40 -100 143 -169 198 l-29 23 41 50 c23 27 42 57 42 66 0 30 -37
16 -65 -24 -15 -22 -31 -40 -36 -40 -4 0 -9 21 -11 47 -2 35 -7 49 -19 51 -10
2 -19 -3 -22 -10z m100 -230 c69 -71 130 -158 139 -197 3 -14 15 -51 25 -82
19 -54 31 -251 16 -265 -5 -5 -368 167 -477 225 -22 12 -24 37 -5 100 32 108
71 164 168 242 27 22 54 39 61 39 6 0 39 -28 73 -62z m-74 -480 l247 -123 -6
-30 c-5 -29 -17 -61 -35 -97 -5 -10 -9 -24 -9 -31 0 -21 -114 -133 -157 -156
-38 -19 -41 -19 -64 -3 -103 74 -195 225 -223 368 -17 85 -21 194 -8 194 4 0
118 -55 255 -122z"/>
</g>
</svg>
