<?xml version="1.0" standalone="no"?>
<!DOCTYPE svg PUBLIC "-//W3C//DTD SVG 20010904//EN"
 "http://www.w3.org/TR/2001/REC-SVG-20010904/DTD/svg10.dtd">
<svg version="1.0" xmlns="http://www.w3.org/2000/svg"
 width="49.000000pt" height="100.000000pt" viewBox="0 0 49.000000 100.000000"
 preserveAspectRatio="xMidYMid meet">
<metadata>
Created by potrace 1.16, written by Peter Selinger 2001-2019
</metadata>
<g transform="translate(0.000000,100.000000) scale(0.100000,-0.100000)"
fill="#000000" stroke="none">
<path d="M222 954 c-7 -13 -13 -14 -30 -5 -11 6 -23 11 -26 11 -12 0 -5 -38 9
-50 17 -14 20 -40 5 -40 -5 0 -16 13 -24 29 -15 29 -39 45 -50 34 -13 -14 -5
-41 20 -62 22 -19 24 -25 12 -40 -7 -10 -28 -37 -46 -61 -18 -24 -39 -66 -47
-94 -21 -71 -21 -257 0 -316 20 -56 57 -119 84 -144 27 -25 27 -48 -3 -94 -14
-20 -26 -46 -28 -57 -2 -17 2 -20 29 -18 17 2 35 -2 38 -7 15 -23 35 -7 48 38
10 34 20 48 34 50 17 2 25 -6 38 -43 10 -25 21 -48 25 -50 7 -5 90 32 90 40 0
2 -14 26 -31 53 l-31 50 40 52 c119 157 103 431 -34 579 -30 32 -54 63 -54 68
0 5 9 16 20 26 22 18 27 57 8 57 -6 0 -22 -10 -34 -21 l-23 -22 -7 27 c-7 30
-19 33 -32 10z m88 -186 c59 -69 84 -127 100 -223 10 -61 6 -95 -10 -95 -5 0
-79 34 -165 75 -115 56 -155 80 -155 94 0 58 128 230 163 218 7 -2 37 -33 67
-69z m-76 -294 c87 -42 160 -82 163 -90 14 -37 -109 -204 -150 -204 -50 0
-160 177 -175 280 -7 49 -6 90 2 90 2 0 74 -34 160 -76z"/>
</g>
</svg>
