<?xml version="1.0" standalone="no"?>
<!DOCTYPE svg PUBLIC "-//W3C//DTD SVG 20010904//EN"
 "http://www.w3.org/TR/2001/REC-SVG-20010904/DTD/svg10.dtd">
<svg version="1.0" xmlns="http://www.w3.org/2000/svg"
 width="94.000000pt" height="148.000000pt" viewBox="0 0 94.000000 148.000000"
 preserveAspectRatio="xMidYMid meet">
<metadata>
Created by potrace 1.16, written by Peter Selinger 2001-2019
</metadata>
<g transform="translate(0.000000,148.000000) scale(0.100000,-0.100000)"
fill="#000000" stroke="none">
<path d="M349 1357 c-41 -35 -92 -84 -114 -109 -40 -46 -125 -201 -125 -229 0
-8 -4 -19 -9 -25 -5 -5 -19 -37 -30 -71 -30 -88 -30 -296 -2 -347 11 -18 23
-56 27 -82 4 -27 18 -66 30 -86 13 -21 24 -43 24 -50 0 -7 9 -24 20 -38 11
-14 20 -32 20 -41 0 -9 9 -24 20 -34 11 -10 20 -24 20 -32 0 -7 4 -13 8 -13 4
0 34 -24 65 -53 34 -32 74 -59 99 -67 24 -7 47 -17 52 -22 18 -15 50 -8 131
32 89 43 136 90 186 184 14 29 31 61 37 71 6 11 23 49 38 84 23 59 26 76 26
211 0 88 -5 156 -11 168 -6 11 -10 29 -9 39 4 26 -47 177 -87 258 -19 39 -50
87 -70 107 -19 20 -35 40 -35 44 0 11 -91 94 -144 132 -25 17 -56 32 -69 32
-15 0 -52 -24 -98 -63z m197 -73 c41 -36 81 -80 89 -97 8 -18 35 -59 60 -92
25 -33 50 -78 56 -100 5 -22 17 -60 26 -85 16 -47 44 -184 43 -210 -1 -8 -2
-55 -3 -105 -2 -72 -8 -104 -31 -160 -33 -81 -90 -180 -134 -229 -69 -79 -185
-110 -242 -66 -14 11 -29 20 -34 20 -14 0 -56 42 -56 55 0 6 -16 27 -36 46
-34 33 -124 198 -124 228 0 17 -18 76 -34 109 -6 14 -10 83 -10 160 1 122 3
141 22 172 12 19 22 44 22 55 0 10 19 56 42 102 38 77 79 127 179 219 64 60
76 58 165 -22z"/>
<path d="M246 845 c-22 -34 -20 -42 14 -60 16 -8 100 -61 187 -116 87 -56 166
-107 176 -113 15 -9 22 -7 38 13 10 13 19 27 19 31 0 5 -66 50 -147 101 -82
50 -168 106 -193 123 -65 46 -76 49 -94 21z"/>
</g>
</svg>
