<?xml version="1.0" standalone="no"?>
<!DOCTYPE svg PUBLIC "-//W3C//DTD SVG 20010904//EN"
 "http://www.w3.org/TR/2001/REC-SVG-20010904/DTD/svg10.dtd">
<svg version="1.0" xmlns="http://www.w3.org/2000/svg"
 width="90.000000pt" height="148.000000pt" viewBox="0 0 90.000000 148.000000"
 preserveAspectRatio="xMidYMid meet">
<metadata>
Created by potrace 1.16, written by Peter Selinger 2001-2019
</metadata>
<g transform="translate(0.000000,148.000000) scale(0.100000,-0.100000)"
fill="#000000" stroke="none">
<path d="M322 1381 c-60 -47 -138 -136 -171 -194 -101 -177 -129 -440 -71
-672 37 -147 175 -344 301 -429 55 -37 65 -37 144 0 67 31 182 162 221 253 9
20 20 44 25 53 5 10 9 26 9 36 0 10 5 23 11 29 16 16 38 153 40 253 3 110 -12
218 -40 285 -5 11 -22 54 -37 95 -31 80 -72 141 -147 217 -96 97 -121 113
-186 113 -42 0 -56 -6 -99 -39z m173 -55 c67 -56 114 -106 154 -165 45 -68 56
-92 72 -156 6 -27 19 -63 28 -80 24 -46 22 -323 -3 -425 -10 -41 -22 -79 -26
-85 -3 -5 -13 -29 -20 -53 -16 -51 -167 -212 -199 -212 -11 0 -23 -5 -26 -10
-8 -13 -55 -13 -55 0 0 5 -16 16 -35 26 -80 38 -230 277 -242 388 -3 28 -11
57 -17 65 -15 19 -12 259 3 274 6 6 11 30 11 53 0 24 4 45 9 48 4 3 11 24 15
47 15 91 119 225 234 301 37 25 49 23 97 -16z"/>
<path d="M300 925 c-15 -18 -7 -43 17 -51 24 -8 137 -60 190 -87 35 -18 44
-19 57 -8 28 23 17 41 -41 67 -32 14 -90 41 -128 60 -81 39 -79 39 -95 19z"/>
<path d="M286 715 c-11 -29 -7 -34 42 -56 26 -12 78 -37 117 -55 85 -41 115
-44 115 -11 0 20 -16 31 -111 75 -136 64 -154 69 -163 47z"/>
</g>
</svg>
