<?xml version="1.0" standalone="no"?>
<!DOCTYPE svg PUBLIC "-//W3C//DTD SVG 20010904//EN"
 "http://www.w3.org/TR/2001/REC-SVG-20010904/DTD/svg10.dtd">
<svg version="1.0" xmlns="http://www.w3.org/2000/svg"
 width="61.000000pt" height="100.000000pt" viewBox="0 0 61.000000 100.000000"
 preserveAspectRatio="xMidYMid meet">
<metadata>
Created by potrace 1.16, written by Peter Selinger 2001-2019
</metadata>
<g transform="translate(0.000000,100.000000) scale(0.100000,-0.100000)"
fill="#000000" stroke="none">
<path d="M261 959 c-67 -14 -172 -147 -205 -258 -24 -82 -22 -289 4 -373 25
-82 81 -168 153 -235 81 -77 126 -72 219 24 91 93 133 216 132 383 -1 171 -51
294 -161 403 -54 52 -91 67 -142 56z m100 -96 c93 -97 126 -163 150 -297 13
-75 -1 -198 -31 -279 -26 -69 -86 -145 -137 -174 l-39 -22 -35 23 c-41 28
-109 122 -147 203 -25 54 -27 67 -27 193 0 133 9 180 46 254 20 39 133 146
154 146 12 0 41 -21 66 -47z"/>
<path d="M202 627 c-16 -19 -4 -31 75 -71 74 -37 107 -44 118 -26 11 18 -15
39 -93 75 -85 40 -86 40 -100 22z"/>
<path d="M194 485 c-4 -8 -1 -21 4 -28 17 -21 160 -80 177 -73 35 13 13 38
-67 76 -90 44 -106 47 -114 25z"/>
</g>
</svg>
