<?xml version="1.0" standalone="no"?>
<!DOCTYPE svg PUBLIC "-//W3C//DTD SVG 20010904//EN"
 "http://www.w3.org/TR/2001/REC-SVG-20010904/DTD/svg10.dtd">
<svg version="1.0" xmlns="http://www.w3.org/2000/svg"
 width="360.000000pt" height="590.000000pt" viewBox="0 0 360.000000 590.000000"
 preserveAspectRatio="xMidYMid meet">
<metadata>
Created by potrace 1.16, written by Peter Selinger 2001-2019
</metadata>
<g transform="translate(0.000000,590.000000) scale(0.500000,-0.500000)"
fill="#000000" stroke="none">
<path d="M329 1136 c-3 -1 -11 -2 -17 -2 -26 0 -114 -71 -142 -113 -3 -4 -9
-13 -13 -18 -21 -27 -28 -39 -47 -74 -20 -39 -23 -44 -35 -78 -10 -27 -14 -44
-17 -79 -1 -8 -3 -19 -5 -24 -13 -33 -12 -259 1 -290 5 -12 15 -49 19 -71 6
-30 14 -48 28 -66 4 -4 13 -21 20 -37 7 -15 16 -32 20 -37 4 -5 10 -14 13 -21
4 -6 9 -14 12 -17 3 -3 9 -11 14 -18 5 -7 17 -20 26 -30 9 -10 20 -22 24 -28
10 -13 58 -54 81 -67 5 -3 13 -8 18 -11 18 -11 68 -5 88 10 4 3 11 7 17 9 13
5 21 11 41 31 9 9 25 24 35 33 12 11 23 24 34 38 8 12 19 28 24 36 17 23 58
112 61 130 1 5 6 17 12 28 9 18 10 20 11 40 2 30 5 49 9 56 7 12 11 175 5 206
-1 8 -3 20 -4 25 -7 41 -18 84 -27 103 -3 6 -8 22 -11 34 -3 13 -9 28 -12 35
-4 6 -8 18 -10 25 -6 18 -23 48 -41 72 -9 11 -23 29 -31 40 -8 11 -26 30 -39
44 -14 13 -25 25 -25 26 0 1 -4 4 -10 7 -10 5 -18 12 -23 19 -2 3 -9 8 -16 12
-6 4 -15 9 -18 11 -16 12 -47 17 -70 11z m39 -54 c4 -3 14 -11 23 -17 8 -7 21
-18 27 -24 6 -7 18 -18 26 -24 16 -12 24 -21 34 -35 4 -5 11 -13 15 -19 5 -5
16 -19 24 -31 8 -12 16 -22 17 -23 8 -5 40 -78 42 -94 1 -9 3 -19 5 -22 2 -4
3 -8 3 -10 0 -2 1 -7 3 -10 2 -3 4 -10 5 -15 1 -5 5 -15 9 -23 6 -11 8 -18 9
-32 2 -18 4 -28 8 -46 5 -21 2 -114 -4 -125 -5 -10 -5 -10 -2 -26 2 -13 2 -19
0 -25 -1 -4 -2 -12 -2 -17 0 -14 -8 -50 -12 -57 -3 -4 -5 -13 -6 -21 -1 -8 -3
-18 -4 -22 -6 -12 -12 -33 -13 -42 -2 -10 -4 -14 -11 -24 -3 -4 -6 -11 -7 -15
-1 -8 -10 -26 -19 -37 -6 -8 -10 -12 -40 -38 -16 -15 -24 -24 -30 -34 -6 -10
-10 -15 -17 -19 -4 -3 -10 -7 -13 -10 -9 -9 -30 -20 -42 -22 -9 -1 -13 -2 -18
-8 -12 -12 -28 -11 -41 4 -7 8 -11 11 -18 13 -4 1 -11 5 -15 8 -4 3 -11 7 -16
10 -5 3 -12 9 -16 15 -4 6 -14 18 -22 27 -9 9 -17 20 -19 25 -1 4 -10 15 -19
24 -12 13 -16 18 -18 26 -1 6 -5 12 -12 20 -6 7 -11 14 -13 21 -1 5 -4 12 -6
15 -1 3 -3 9 -4 13 0 4 -4 12 -9 17 -4 6 -8 14 -9 18 0 5 -4 11 -8 17 -8 9
-11 17 -11 29 0 5 -2 14 -4 20 -4 9 -4 16 -4 32 0 21 0 21 -7 29 -16 19 -17
198 -1 215 7 7 7 7 8 39 1 30 1 33 5 35 11 6 12 10 13 27 1 10 3 20 5 24 2 3
4 12 5 19 2 14 14 40 26 54 3 5 10 18 17 30 10 20 12 23 25 34 8 6 17 15 21
19 3 5 10 11 15 13 5 3 11 8 13 11 3 4 8 8 12 11 4 2 11 8 15 13 4 6 12 12 20
17 8 4 19 13 26 19 15 12 25 14 36 4z"/>
<path d="M249 746 c-23 -25 -16 -35 33 -58 19 -8 52 -23 73 -33 21 -10 47 -22
59 -27 30 -14 38 -12 47 8 9 21 6 23 -66 56 -31 14 -72 33 -92 42 -39 18 -47
19 -54 12z"/>
<path d="M242 583 c-30 -21 -19 -36 49 -68 30 -13 71 -33 93 -43 53 -25 57
-25 67 -3 10 21 6 27 -31 43 -14 6 -53 24 -88 40 -83 38 -81 37 -90 31z"/>
</g>
</svg>
