<?xml version="1.0" standalone="no"?>
<!DOCTYPE svg PUBLIC "-//W3C//DTD SVG 20010904//EN"
 "http://www.w3.org/TR/2001/REC-SVG-20010904/DTD/svg10.dtd">
<svg version="1.0" xmlns="http://www.w3.org/2000/svg"
 width="360.000000pt" height="590.000000pt" viewBox="0 0 360.000000 590.000000"
 preserveAspectRatio="xMidYMid meet">
<metadata>
Created by potrace 1.16, written by Peter Selinger 2001-2019
</metadata>
<g transform="translate(0.000000,590.000000) scale(0.500000,-0.500000)"
fill="#000000" stroke="none">
<path d="M318 1145 c-14 -3 -23 -9 -37 -21 -4 -4 -12 -10 -17 -13 -18 -11 -81
-72 -96 -92 -4 -6 -14 -20 -22 -31 -28 -38 -72 -129 -80 -165 -4 -20 -8 -43
-8 -50 0 -5 -2 -14 -4 -21 -14 -43 -13 -263 1 -297 2 -7 6 -19 8 -27 2 -8 5
-19 6 -23 2 -4 3 -12 4 -17 3 -23 14 -50 28 -67 4 -5 9 -14 12 -20 15 -33 22
-46 30 -57 5 -6 11 -16 14 -21 3 -6 6 -11 7 -12 1 -1 7 -8 13 -16 6 -9 20 -24
30 -35 10 -11 20 -23 23 -26 7 -12 60 -56 81 -68 4 -2 13 -7 19 -11 18 -12 77
-4 90 12 1 1 7 4 12 6 13 4 24 12 43 32 9 9 25 24 35 33 12 11 23 24 32 36 7
10 17 25 22 31 16 22 62 118 65 137 1 5 6 17 12 28 9 18 10 20 11 40 3 31 5
49 9 56 3 6 4 14 6 46 3 81 3 137 1 147 -1 6 -3 18 -4 27 -1 9 -3 20 -4 23 -1
3 -3 12 -4 20 -2 15 -14 56 -23 76 -2 7 -7 21 -10 32 -3 11 -8 25 -11 32 -4 6
-8 18 -10 25 -5 14 -23 48 -32 60 -14 19 -24 31 -38 49 -18 24 -69 76 -82 83
-5 3 -13 10 -17 15 -4 5 -11 11 -15 12 -4 2 -12 7 -17 11 -6 4 -13 9 -17 11
-4 1 -10 5 -13 7 -7 6 -33 7 -53 3z m51 -61 c2 -3 11 -10 19 -16 8 -7 21 -18
28 -25 7 -8 21 -20 30 -27 11 -9 22 -20 29 -30 7 -8 15 -19 19 -23 4 -4 13
-17 21 -28 7 -11 16 -22 18 -25 12 -14 41 -78 43 -95 1 -9 3 -19 5 -22 2 -4 3
-8 3 -10 0 -2 1 -7 3 -10 2 -3 4 -10 5 -16 1 -5 5 -15 8 -21 4 -7 7 -15 8 -25
3 -22 6 -39 9 -52 6 -21 3 -115 -3 -127 -4 -8 -4 -10 -3 -21 2 -16 2 -21 -1
-44 -4 -37 -7 -48 -11 -59 -3 -6 -6 -16 -6 -22 -1 -6 -3 -15 -5 -20 -6 -16
-14 -42 -14 -47 0 -4 -2 -8 -4 -11 -10 -16 -12 -19 -13 -25 -1 -8 -11 -27 -19
-37 -6 -7 -12 -13 -41 -40 -15 -13 -23 -22 -29 -32 -5 -9 -11 -15 -15 -18 -5
-3 -12 -8 -16 -12 -12 -11 -28 -19 -41 -21 -10 -1 -13 -2 -18 -8 -11 -12 -28
-11 -41 4 -7 8 -11 11 -18 13 -4 2 -11 5 -15 8 -4 3 -11 7 -16 10 -5 2 -11 8
-15 13 -3 6 -13 17 -22 27 -8 9 -17 22 -20 27 -3 6 -12 17 -20 25 -8 8 -15 16
-15 17 0 8 -6 19 -14 28 -6 7 -11 14 -13 21 -1 5 -4 12 -6 15 -1 3 -3 9 -4 13
0 4 -4 12 -9 17 -4 6 -8 14 -9 18 0 5 -4 11 -8 17 -8 9 -11 17 -11 29 0 5 -2
14 -4 20 -4 9 -4 16 -4 32 0 20 -1 24 -9 33 -12 15 -11 199 2 212 6 6 6 6 7
38 1 30 1 33 5 35 10 6 12 10 14 27 0 11 2 20 5 26 2 5 4 13 4 17 0 9 17 45
26 55 3 4 10 17 17 29 10 20 12 23 25 34 8 6 17 15 20 19 4 4 10 10 16 13 5 3
11 8 13 11 2 4 8 9 12 11 5 3 12 10 16 15 5 7 11 12 21 17 7 4 18 11 25 17 13
12 27 14 36 6z"/>
<path d="M346 900 c-14 -2 -14 1 -14 -115 -1 -121 -2 -113 19 -115 15 -1 24 3
28 11 4 9 3 204 -1 211 -4 7 -18 11 -32 8z"/>
<path d="M345 533 c-9 -5 -9 -8 -9 -104 0 -115 0 -113 26 -113 27 0 26 -2 26
120 -1 90 -1 90 -5 94 -6 6 -29 8 -38 3z"/>
</g>
</svg>
