<?xml version="1.0" standalone="no"?>
<!DOCTYPE svg PUBLIC "-//W3C//DTD SVG 20010904//EN"
 "http://www.w3.org/TR/2001/REC-SVG-20010904/DTD/svg10.dtd">
<svg version="1.0" xmlns="http://www.w3.org/2000/svg"
 width="90.000000pt" height="148.000000pt" viewBox="0 0 90.000000 148.000000"
 preserveAspectRatio="xMidYMid meet">
<metadata>
Created by potrace 1.16, written by Peter Selinger 2001-2019
</metadata>
<g transform="translate(0.000000,148.000000) scale(0.100000,-0.100000)"
fill="#000000" stroke="none">
<path d="M321 1380 c-70 -58 -152 -154 -181 -210 -93 -181 -116 -433 -60 -655
36 -147 179 -350 303 -432 51 -33 76 -33 141 1 68 35 185 169 222 255 9 20 20
44 25 53 5 10 9 26 9 36 0 10 5 23 11 29 16 16 38 156 41 254 2 107 -13 215
-41 284 -4 11 -14 36 -21 55 -6 19 -18 50 -25 69 -22 59 -104 161 -203 252
-36 33 -91 59 -125 59 -28 0 -49 -11 -96 -50z m175 -56 c85 -68 140 -133 193
-227 11 -21 21 -45 21 -55 0 -9 12 -49 27 -87 26 -66 27 -79 27 -230 0 -179
-15 -259 -65 -357 -5 -10 -9 -24 -9 -31 0 -23 -144 -164 -189 -186 -48 -22
-81 -27 -81 -11 0 5 -16 16 -35 26 -37 17 -129 124 -162 189 -62 119 -74 149
-80 197 -3 29 -10 59 -16 66 -14 18 -12 261 2 275 6 6 11 30 11 53 0 24 4 45
9 48 4 3 11 24 15 47 9 59 68 158 122 207 25 23 49 42 55 42 5 0 9 4 9 9 0 15
83 70 95 63 6 -3 28 -20 51 -38z"/>
<path d="M422 1122 c-20 -13 -13 -286 8 -289 37 -7 42 11 42 147 0 101 -3 135
-13 141 -17 11 -21 11 -37 1z"/>
<path d="M429 658 c-11 -11 -13 -37 -9 -138 l5 -125 25 0 25 0 3 129 c2 97 -1
131 -10 138 -17 11 -22 10 -39 -4z"/>
</g>
</svg>
