<?xml version="1.0" standalone="no"?>
<!DOCTYPE svg PUBLIC "-//W3C//DTD SVG 20010904//EN"
 "http://www.w3.org/TR/2001/REC-SVG-20010904/DTD/svg10.dtd">
<svg version="1.0" xmlns="http://www.w3.org/2000/svg"
 width="61.000000pt" height="100.000000pt" viewBox="0 0 61.000000 100.000000"
 preserveAspectRatio="xMidYMid meet">
<metadata>
Created by potrace 1.16, written by Peter Selinger 2001-2019
</metadata>
<g transform="translate(0.000000,100.000000) scale(0.100000,-0.100000)"
fill="#000000" stroke="none">
<path d="M224 942 c-81 -59 -143 -150 -168 -247 -20 -75 -21 -280 -2 -351 22
-82 65 -153 141 -231 61 -63 75 -73 105 -73 42 0 83 24 134 76 170 175 179
530 18 729 -59 74 -125 125 -161 125 -16 0 -46 -13 -67 -28z m121 -64 c94 -85
154 -202 171 -327 7 -58 -11 -193 -36 -266 -22 -65 -84 -143 -138 -173 l-38
-21 -31 20 c-43 27 -106 111 -144 194 -30 62 -33 81 -37 180 -5 122 12 210 53
280 21 37 135 155 149 155 4 0 27 -19 51 -42z"/>
<path d="M280 751 c-11 -21 -14 -132 -4 -168 8 -30 40 -30 48 0 8 29 8 151 0
171 -8 22 -31 20 -44 -3z"/>
<path d="M285 447 c-3 -7 -5 -52 -3 -98 3 -76 5 -84 23 -84 19 0 20 7 20 95 0
82 -2 95 -18 98 -9 2 -19 -3 -22 -11z"/>
</g>
</svg>
