<?xml version="1.0" standalone="no"?>
<!DOCTYPE svg PUBLIC "-//W3C//DTD SVG 20010904//EN"
 "http://www.w3.org/TR/2001/REC-SVG-20010904/DTD/svg10.dtd">
<svg version="1.0" xmlns="http://www.w3.org/2000/svg"
 width="90.000000pt" height="148.000000pt" viewBox="0 0 90.000000 148.000000"
 preserveAspectRatio="xMidYMid meet">
<metadata>
Created by potrace 1.16, written by Peter Selinger 2001-2019
</metadata>
<g transform="translate(0.000000,148.000000) scale(0.100000,-0.100000)"
fill="#000000" stroke="none">
<path d="M358 1363 c-25 -21 -56 -55 -68 -75 -12 -21 -25 -38 -29 -38 -15 0
-110 -137 -139 -200 -47 -103 -52 -119 -52 -153 0 -18 -6 -39 -12 -45 -18 -18
-18 -216 -1 -233 8 -8 13 -39 13 -75 0 -42 5 -65 15 -74 8 -7 32 -47 52 -89
21 -42 42 -78 46 -80 17 -7 57 -57 79 -97 12 -23 36 -50 52 -60 17 -9 47 -30
66 -46 22 -18 46 -28 67 -28 35 0 107 41 117 66 3 8 14 14 24 14 18 0 52 29
52 44 0 5 23 35 51 69 27 33 57 74 66 91 8 17 21 38 27 46 31 38 48 109 53
215 7 156 -9 302 -40 362 -14 26 -32 64 -41 83 -24 51 -70 124 -93 148 -7 7
-13 18 -13 23 0 5 -11 15 -25 21 -14 6 -25 15 -25 19 0 10 -57 69 -67 69 -5 0
-22 14 -38 30 -40 42 -78 40 -137 -7z m142 -102 c43 -27 105 -100 149 -172 22
-38 41 -74 41 -80 0 -7 13 -35 29 -63 34 -61 54 -173 53 -296 -1 -103 -29
-180 -110 -305 -7 -11 -21 -34 -32 -50 -27 -43 -119 -119 -159 -133 -31 -11
-38 -10 -73 13 -21 14 -38 30 -38 37 0 6 -24 35 -52 64 -29 30 -60 62 -68 72
-30 37 -90 169 -106 232 -8 36 -19 80 -24 99 -8 33 -4 67 20 161 5 19 13 53
19 74 23 90 90 202 175 291 80 84 84 87 117 80 18 -4 45 -15 59 -24z"/>
<path d="M500 941 c-14 -11 -58 -35 -98 -55 -75 -38 -89 -60 -56 -87 14 -11
23 -9 62 14 26 15 71 40 100 55 48 24 53 29 50 57 -4 36 -24 42 -58 16z"/>
<path d="M515 814 c-11 -8 -53 -32 -92 -52 -75 -38 -88 -57 -57 -83 13 -11 19
-10 37 1 12 7 56 32 97 53 41 22 77 42 79 44 8 6 -22 53 -33 53 -6 0 -20 -7
-31 -16z"/>
<path d="M525 689 c-16 -11 -61 -36 -98 -55 -55 -28 -68 -39 -65 -56 6 -41 31
-44 84 -10 27 17 73 43 102 57 54 26 63 43 36 69 -20 20 -23 20 -59 -5z"/>
</g>
</svg>
