<?xml version="1.0" standalone="no"?>
<!DOCTYPE svg PUBLIC "-//W3C//DTD SVG 20010904//EN"
 "http://www.w3.org/TR/2001/REC-SVG-20010904/DTD/svg10.dtd">
<svg version="1.0" xmlns="http://www.w3.org/2000/svg"
 width="356.000000pt" height="590.000000pt" viewBox="0 0 356.000000 590.000000"
 preserveAspectRatio="xMidYMid meet">
<metadata>
Created by potrace 1.16, written by Peter Selinger 2001-2019
</metadata>
<g transform="translate(0.000000,590.000000) scale(0.500000,-0.500000)"
fill="#000000" stroke="none">
<path d="M316 1116 c-3 -1 -10 -6 -16 -10 -7 -5 -14 -11 -16 -15 -2 -4 -8 -10
-13 -12 -17 -11 -29 -23 -32 -32 -1 -5 -6 -13 -10 -17 -4 -4 -8 -11 -9 -16 -2
-8 -7 -12 -19 -15 -4 -1 -6 -4 -11 -13 -4 -9 -8 -14 -15 -20 -7 -5 -12 -11
-16 -20 -4 -7 -11 -17 -17 -23 -5 -6 -11 -14 -14 -19 -2 -4 -5 -8 -6 -9 -1 -1
-3 -5 -5 -11 -2 -5 -7 -13 -10 -19 -4 -5 -8 -13 -9 -18 -1 -4 -4 -10 -6 -13
-2 -3 -5 -10 -6 -15 -1 -5 -4 -13 -7 -17 -3 -4 -5 -12 -6 -18 -1 -6 -3 -14 -6
-18 -3 -5 -4 -12 -5 -26 -2 -26 -7 -45 -13 -54 -4 -6 -5 -10 -6 -26 -1 -14 -2
-21 -6 -27 -7 -13 -7 -68 0 -84 3 -9 5 -17 6 -28 0 -13 1 -18 7 -28 5 -9 6
-15 6 -23 0 -6 1 -16 3 -22 2 -7 3 -20 3 -35 0 -26 1 -30 14 -41 5 -5 8 -10 9
-15 1 -3 3 -10 6 -13 15 -25 35 -64 41 -83 5 -15 9 -19 20 -23 7 -2 9 -4 13
-13 3 -6 8 -13 11 -15 4 -3 9 -9 13 -15 4 -5 9 -12 12 -15 3 -3 6 -8 6 -13 2
-8 18 -35 25 -40 13 -8 28 -18 36 -22 5 -3 17 -11 26 -18 8 -8 18 -16 21 -18
3 -1 9 -5 12 -7 15 -10 54 -8 67 3 5 4 10 7 11 7 1 0 8 4 15 9 7 4 15 10 19
12 3 2 8 8 11 14 7 12 8 12 26 14 9 0 12 1 16 7 11 13 14 18 17 26 2 6 8 14
15 21 6 7 13 15 15 19 2 4 11 15 20 24 9 10 19 22 22 27 2 6 6 12 8 13 2 2 6
8 9 15 10 20 21 39 25 43 7 8 17 32 19 44 1 7 4 15 6 18 6 8 14 32 14 42 0 5
2 11 3 15 5 8 5 185 0 197 -2 5 -3 20 -4 45 0 28 -1 40 -4 47 -2 5 -3 11 -3
15 0 4 -4 13 -10 23 -5 9 -12 21 -14 26 -2 4 -7 12 -10 17 -6 7 -7 11 -8 25
-1 16 -4 22 -20 44 -12 16 -20 30 -23 39 -2 6 -5 12 -9 16 -3 3 -8 9 -10 14
-2 4 -9 13 -15 19 -8 8 -12 13 -14 21 -3 12 -7 15 -19 20 -13 5 -18 9 -24 20
-4 8 -7 11 -13 14 -7 3 -9 5 -13 14 -5 13 -12 20 -23 23 -6 1 -13 6 -25 19
-25 25 -68 37 -88 23z m43 -93 c7 -1 21 -7 34 -15 12 -6 24 -13 27 -15 4 -2 8
-8 12 -15 5 -10 9 -15 19 -22 6 -5 14 -12 16 -16 2 -3 8 -11 13 -17 6 -5 14
-17 18 -26 4 -8 11 -19 14 -23 3 -4 6 -8 6 -9 0 -2 4 -9 23 -41 4 -6 7 -15 8
-20 1 -11 14 -37 30 -63 11 -17 12 -19 13 -36 1 -15 3 -21 7 -28 4 -7 5 -11 5
-25 0 -9 1 -21 3 -27 3 -10 7 -47 7 -64 0 -5 1 -15 2 -23 3 -13 3 -15 -2 -27
-3 -9 -4 -16 -4 -31 0 -23 -4 -41 -12 -55 -4 -7 -6 -13 -6 -18 0 -5 -2 -11 -6
-17 -3 -5 -8 -15 -10 -22 -2 -8 -6 -17 -10 -21 -3 -4 -9 -15 -14 -24 -4 -8 -9
-17 -11 -19 -1 -2 -5 -8 -7 -14 -3 -9 -7 -14 -18 -24 -10 -9 -14 -14 -16 -20
-6 -20 -38 -58 -53 -62 -5 -2 -10 -6 -14 -11 -15 -20 -28 -30 -42 -32 -4 -1
-12 -4 -16 -6 -15 -8 -36 -7 -48 2 -34 26 -37 30 -42 44 -3 9 -29 37 -58 62
-8 7 -13 13 -16 20 -3 7 -9 15 -15 20 -7 7 -13 14 -17 23 -3 7 -9 19 -14 26
-5 7 -10 18 -12 23 -4 15 -6 19 -16 29 -9 9 -9 11 -11 24 -1 8 -3 19 -5 24 -2
6 -3 13 -3 15 0 2 -2 9 -5 14 -4 8 -6 14 -7 27 -1 14 -2 19 -7 25 -4 7 -5 11
-6 26 -1 11 -3 21 -5 25 -5 10 -5 12 -1 21 3 4 4 13 5 27 1 20 2 23 7 30 5 7
6 11 7 28 1 15 2 21 5 24 4 5 10 25 14 46 1 8 4 19 7 23 2 4 4 9 4 11 0 2 3 7
6 12 3 4 7 11 8 15 1 5 5 12 9 18 4 5 7 12 8 15 2 11 15 35 22 42 4 4 7 10 8
13 3 11 7 17 16 22 6 4 12 9 16 17 4 6 26 30 49 52 48 49 51 50 81 43z"/>
<path d="M408 759 c-5 -2 -14 -6 -18 -9 -25 -15 -38 -23 -49 -30 -14 -9 -38
-21 -46 -23 -25 -6 -36 -26 -24 -45 13 -23 21 -24 44 -10 8 5 23 14 34 20 12
7 23 13 26 16 4 2 18 9 32 17 42 21 46 25 41 49 -4 20 -17 25 -40 15z"/>
<path d="M425 662 c-5 -2 -12 -6 -16 -9 -4 -3 -18 -11 -30 -17 -13 -7 -26 -14
-30 -17 -3 -2 -17 -10 -31 -17 -44 -22 -49 -31 -30 -56 12 -15 19 -15 46 3 16
10 44 26 80 45 48 25 53 31 43 50 -12 22 -16 24 -32 18z"/>
<path d="M433 563 c-5 -3 -12 -7 -16 -10 -3 -2 -15 -9 -27 -15 -12 -6 -23 -12
-26 -14 -5 -4 -42 -24 -63 -35 -17 -9 -19 -29 -3 -45 11 -13 24 -11 49 6 5 3
14 9 21 11 6 3 17 9 24 14 7 5 26 16 42 24 41 21 46 27 38 48 -8 20 -21 25
-39 16z"/>
</g>
</svg>
