<?xml version="1.0" standalone="no"?>
<!DOCTYPE svg PUBLIC "-//W3C//DTD SVG 20010904//EN"
 "http://www.w3.org/TR/2001/REC-SVG-20010904/DTD/svg10.dtd">
<svg version="1.0" xmlns="http://www.w3.org/2000/svg"
 width="61.000000pt" height="100.000000pt" viewBox="0 0 61.000000 100.000000"
 preserveAspectRatio="xMidYMid meet">
<metadata>
Created by potrace 1.16, written by Peter Selinger 2001-2019
</metadata>
<g transform="translate(0.000000,100.000000) scale(0.100000,-0.100000)"
fill="#000000" stroke="none">
<path d="M248 930 c-40 -31 -133 -151 -161 -205 -28 -56 -57 -175 -57 -232 0
-116 39 -216 133 -341 46 -62 122 -115 151 -106 75 23 175 128 228 242 29 61
30 65 26 195 l-3 134 -44 89 c-34 69 -61 106 -121 167 -84 83 -108 92 -152 57z
m123 -118 c98 -102 156 -253 147 -384 -6 -77 -64 -192 -133 -263 -73 -75 -88
-74 -160 13 -76 91 -110 152 -131 236 -19 78 -12 136 27 243 30 77 140 213
175 213 10 0 43 -26 75 -58z"/>
<path d="M288 617 c-57 -32 -74 -50 -62 -68 9 -16 37 -9 99 24 43 23 60 38 60
52 0 31 -33 28 -97 -8z"/>
<path d="M297 524 c-66 -34 -80 -55 -43 -62 10 -2 41 8 70 24 73 39 78 44 65
60 -15 18 -13 19 -92 -22z"/>
<path d="M319 450 c-72 -37 -88 -55 -67 -77 14 -14 22 -12 82 22 75 42 83 50
66 70 -16 19 -15 19 -81 -15z"/>
</g>
</svg>
