<?xml version="1.0" standalone="no"?>
<!DOCTYPE svg PUBLIC "-//W3C//DTD SVG 20010904//EN"
 "http://www.w3.org/TR/2001/REC-SVG-20010904/DTD/svg10.dtd">
<svg version="1.0" xmlns="http://www.w3.org/2000/svg"
 width="92.000000pt" height="148.000000pt" viewBox="0 0 92.000000 148.000000"
 preserveAspectRatio="xMidYMid meet">
<metadata>
Created by potrace 1.16, written by Peter Selinger 2001-2019
</metadata>
<g transform="translate(0.000000,148.000000) scale(0.100000,-0.100000)"
fill="#000000" stroke="none">
<path d="M333 1354 c-46 -36 -83 -69 -83 -72 0 -4 -31 -47 -70 -96 -38 -48
-70 -94 -70 -100 0 -7 -12 -41 -27 -77 -24 -58 -27 -78 -30 -224 -5 -195 5
-246 72 -374 62 -117 64 -119 100 -156 17 -17 67 -70 112 -117 77 -81 84 -86
120 -84 24 1 53 13 79 31 22 17 56 41 75 54 19 13 51 45 72 71 21 27 47 57 58
69 11 11 41 65 67 118 l47 98 -1 125 c-2 249 -28 392 -92 497 -46 76 -166 204
-227 244 -74 48 -94 59 -107 59 -7 0 -50 -30 -95 -66z m150 -41 c50 -26 155
-132 203 -205 24 -37 44 -72 44 -77 0 -6 9 -39 19 -73 50 -161 68 -352 41
-423 -11 -29 -71 -158 -94 -202 -33 -62 -196 -203 -236 -203 -61 0 -309 316
-310 396 0 11 -4 24 -10 30 -8 8 -23 83 -37 187 -3 22 0 44 6 50 6 6 11 24 11
39 0 16 7 45 15 65 8 19 15 52 15 72 0 66 126 263 193 301 21 12 43 30 50 41
15 23 48 24 90 2z"/>
<path d="M422 908 c-6 -8 -9 -75 -8 -163 l1 -150 33 -3 32 -3 0 165 0 166 -24
0 c-13 0 -28 -6 -34 -12z"/>
</g>
</svg>
