<?xml version="1.0" standalone="no"?>
<!DOCTYPE svg PUBLIC "-//W3C//DTD SVG 20010904//EN"
 "http://www.w3.org/TR/2001/REC-SVG-20010904/DTD/svg10.dtd">
<svg version="1.0" xmlns="http://www.w3.org/2000/svg"
 width="364.000000pt" height="590.000000pt" viewBox="0 0 364.000000 590.000000"
 preserveAspectRatio="xMidYMid meet">
<metadata>
Created by potrace 1.16, written by Peter Selinger 2001-2019
</metadata>
<g transform="translate(0.000000,590.000000) scale(0.500000,-0.500000)"
fill="#000000" stroke="none">
<path d="M333 1134 c-5 -2 -13 -6 -17 -9 -4 -4 -10 -8 -13 -10 -3 -2 -10 -8
-15 -12 -5 -5 -12 -10 -15 -12 -3 -2 -11 -8 -17 -13 -6 -5 -15 -12 -20 -16
-25 -19 -37 -29 -40 -37 -3 -8 -7 -13 -25 -37 -4 -5 -13 -17 -20 -27 -7 -10
-16 -21 -20 -25 -3 -4 -8 -10 -11 -14 -3 -4 -9 -12 -14 -18 -6 -6 -11 -15 -13
-20 -1 -5 -7 -22 -12 -38 -5 -15 -12 -34 -15 -40 -10 -19 -14 -36 -15 -56 -1
-14 -3 -21 -6 -28 -6 -11 -10 -180 -5 -201 3 -13 8 -44 10 -63 1 -8 3 -18 4
-22 1 -4 2 -11 2 -15 0 -12 3 -20 11 -30 4 -5 20 -36 37 -69 16 -33 33 -64 37
-69 4 -4 8 -12 10 -17 2 -5 7 -11 12 -14 4 -3 10 -10 13 -14 4 -4 9 -10 13
-12 4 -2 11 -11 16 -19 6 -8 29 -34 59 -64 27 -28 52 -54 55 -57 7 -9 20 -11
58 -9 29 1 29 1 49 20 7 7 24 20 36 28 32 20 54 37 59 44 2 3 9 11 16 19 7 7
14 16 17 20 3 4 10 13 17 20 7 8 13 14 13 16 0 1 6 8 13 15 12 15 37 59 45 84
2 6 11 25 20 44 17 34 17 34 16 50 0 8 0 20 0 26 2 167 2 167 -1 178 -2 6 -3
18 -3 28 0 10 -1 22 -2 27 -1 5 -2 12 -2 16 0 3 0 10 0 15 1 11 -3 31 -9 54
-8 28 -9 33 -13 59 -3 18 -5 26 -9 33 -3 5 -9 15 -13 22 -10 18 -35 59 -49 81
-9 14 -20 26 -51 57 -22 21 -42 41 -44 45 -9 13 -17 20 -28 26 -7 3 -17 10
-22 15 -6 5 -15 12 -21 14 -11 5 -39 22 -51 30 -8 6 -13 6 -27 1z m48 -85 c31
-15 129 -109 147 -140 5 -8 12 -17 15 -22 4 -4 11 -15 15 -24 5 -9 10 -18 12
-21 3 -4 5 -12 6 -21 1 -9 3 -17 6 -20 2 -3 5 -10 6 -15 1 -5 4 -13 7 -17 3
-5 5 -13 6 -21 1 -7 3 -18 5 -25 8 -23 14 -52 14 -63 0 -8 2 -14 6 -23 6 -12
6 -12 6 -63 0 -42 1 -54 3 -64 3 -11 3 -13 0 -27 -2 -8 -3 -21 -3 -29 0 -10
-1 -15 -6 -24 -3 -6 -6 -14 -7 -18 -1 -4 -3 -9 -5 -12 -6 -9 -11 -21 -13 -29
-1 -4 -6 -15 -12 -24 -13 -20 -24 -42 -28 -58 -6 -21 -17 -35 -63 -81 -14 -14
-27 -28 -28 -32 -2 -5 -8 -10 -23 -21 -33 -23 -49 -34 -55 -39 -10 -7 -39 -6
-49 2 -11 8 -75 74 -86 89 -4 7 -11 15 -15 18 -3 3 -9 10 -13 15 -3 5 -13 17
-23 27 -15 15 -18 20 -21 29 -2 6 -6 16 -11 21 -14 19 -50 92 -51 107 -1 10
-3 15 -7 21 -3 4 -6 12 -7 17 -1 5 -3 17 -6 27 -3 10 -5 27 -6 37 -1 12 -4 25
-7 36 -9 25 -9 58 0 72 5 8 6 12 7 27 0 13 2 21 5 30 3 7 6 16 7 21 1 4 4 12
7 16 5 6 5 8 6 40 1 29 2 35 7 47 3 7 5 14 5 14 0 1 4 5 9 11 6 7 9 12 11 20
3 14 8 23 18 29 6 4 9 8 13 16 2 5 7 14 11 18 20 26 34 45 40 57 6 12 31 34
42 38 12 4 36 22 42 31 13 18 25 18 61 0z"/>
<path d="M349 735 c-19 -7 -18 2 -19 -134 0 -142 -2 -131 25 -133 35 -1 32
-10 32 138 0 120 0 120 -5 125 -7 7 -21 8 -33 4z"/>
</g>
</svg>
