<?xml version="1.0" standalone="no"?>
<!DOCTYPE svg PUBLIC "-//W3C//DTD SVG 20010904//EN"
 "http://www.w3.org/TR/2001/REC-SVG-20010904/DTD/svg10.dtd">
<svg version="1.0" xmlns="http://www.w3.org/2000/svg"
 width="63.000000pt" height="100.000000pt" viewBox="0 0 63.000000 100.000000"
 preserveAspectRatio="xMidYMid meet">
<metadata>
Created by potrace 1.16, written by Peter Selinger 2001-2019
</metadata>
<g transform="translate(0.000000,100.000000) scale(0.100000,-0.100000)"
fill="#000000" stroke="none">
<path d="M228 922 c-65 -52 -144 -158 -170 -228 -17 -49 -21 -82 -22 -190 l-1
-131 42 -84 c31 -62 64 -107 126 -173 81 -86 85 -88 118 -81 77 17 172 110
235 231 l36 69 -7 140 c-11 210 -27 256 -136 379 -49 55 -122 106 -153 106
-12 0 -42 -17 -68 -38z m138 -67 c101 -83 159 -211 171 -376 6 -83 4 -94 -23
-161 -31 -78 -120 -185 -177 -215 l-30 -15 -62 67 c-80 86 -125 162 -147 244
-22 87 -22 113 3 218 22 94 44 134 123 220 58 64 82 67 142 18z"/>
<path d="M293 623 c-9 -3 -13 -36 -13 -114 0 -89 3 -111 15 -115 34 -13 45 15
45 115 0 108 -9 130 -47 114z"/>
</g>
</svg>
