<?xml version="1.0" standalone="no"?>
<!DOCTYPE svg PUBLIC "-//W3C//DTD SVG 20010904//EN"
 "http://www.w3.org/TR/2001/REC-SVG-20010904/DTD/svg10.dtd">
<svg version="1.0" xmlns="http://www.w3.org/2000/svg"
 width="61.000000pt" height="100.000000pt" viewBox="0 0 61.000000 100.000000"
 preserveAspectRatio="xMidYMid meet">
<metadata>
Created by potrace 1.16, written by Peter Selinger 2001-2019
</metadata>
<g transform="translate(0.000000,100.000000) scale(0.100000,-0.100000)"
fill="#000000" stroke="none">
<path d="M268 962 c-35 -4 -117 -78 -158 -142 -53 -83 -72 -158 -73 -295 -1
-143 14 -207 71 -303 22 -37 67 -93 100 -124 73 -69 104 -75 173 -29 122 82
201 277 186 466 -8 101 -51 230 -97 290 -84 109 -137 145 -202 137z m111 -118
c69 -75 101 -137 126 -241 15 -61 16 -85 7 -163 -17 -139 -38 -195 -101 -263
-30 -32 -66 -64 -81 -72 -25 -13 -30 -12 -63 11 -43 29 -115 128 -147 204 -18
43 -24 79 -28 165 -5 123 12 209 53 280 30 53 128 145 154 145 11 0 44 -28 80
-66z"/>
<path d="M319 654 c-19 -14 -51 -34 -71 -45 -39 -20 -54 -59 -23 -59 24 0 165
80 165 94 0 13 -20 36 -30 36 -3 0 -22 -12 -41 -26z"/>
<path d="M291 547 c-41 -23 -76 -48 -79 -54 -8 -27 28 -22 91 12 77 42 93 58
75 73 -10 8 -33 -1 -87 -31z"/>
<path d="M283 463 c-63 -37 -81 -59 -64 -76 12 -12 155 74 159 97 5 26 -27 19
-95 -21z"/>
<path d="M280 379 c-67 -40 -80 -58 -57 -77 19 -16 152 65 152 93 0 31 -25 27
-95 -16z"/>
</g>
</svg>
