<?xml version="1.0" standalone="no"?>
<!DOCTYPE svg PUBLIC "-//W3C//DTD SVG 20010904//EN"
 "http://www.w3.org/TR/2001/REC-SVG-20010904/DTD/svg10.dtd">
<svg version="1.0" xmlns="http://www.w3.org/2000/svg"
 width="360.000000pt" height="590.000000pt" viewBox="0 0 360.000000 590.000000"
 preserveAspectRatio="xMidYMid meet">
<metadata>
Created by potrace 1.16, written by Peter Selinger 2001-2019
</metadata>
<g transform="translate(0.000000,590.000000) scale(0.500000,-0.500000)"
fill="#000000" stroke="none">
<path d="M322 1137 c-20 -2 -30 -5 -42 -14 -6 -5 -14 -10 -18 -12 -10 -5 -59
-51 -80 -75 -12 -15 -17 -20 -34 -44 -4 -5 -9 -13 -12 -16 -6 -7 -30 -52 -43
-79 -9 -19 -27 -68 -29 -80 -5 -22 -6 -33 -6 -41 0 -6 -2 -15 -4 -22 -13 -40
-14 -266 0 -297 4 -11 15 -51 18 -69 5 -28 13 -47 29 -68 5 -6 11 -15 13 -21
8 -20 19 -41 27 -53 5 -6 11 -15 13 -20 3 -5 8 -13 13 -19 4 -5 11 -14 14 -18
3 -4 15 -17 25 -29 11 -12 23 -25 26 -30 11 -15 53 -48 86 -69 4 -2 10 -6 14
-9 14 -8 66 -1 85 12 5 3 13 7 17 9 11 4 23 13 37 27 7 7 22 21 35 33 18 16
26 24 38 43 9 13 20 28 24 34 15 21 57 110 62 131 1 6 6 20 12 31 9 18 10 21
10 33 0 8 1 19 3 26 2 7 3 15 3 19 0 4 2 11 4 16 4 8 5 13 5 42 1 18 1 57 2
86 1 54 1 59 -6 102 -2 9 -4 23 -5 30 -2 14 -11 43 -22 73 -4 11 -10 28 -12
38 -2 10 -8 25 -12 33 -4 8 -9 20 -10 25 -5 20 -48 89 -60 96 -1 1 -6 7 -10
14 -12 17 -71 77 -80 82 -5 2 -12 8 -17 14 -5 6 -12 12 -16 13 -3 2 -11 6 -18
11 -20 13 -33 15 -79 12z m47 -56 c5 -3 12 -9 16 -12 4 -3 17 -15 29 -26 12
-11 26 -24 31 -28 11 -8 24 -20 32 -32 3 -4 10 -13 16 -20 6 -7 15 -20 22 -29
6 -9 14 -19 16 -22 13 -14 43 -79 44 -95 1 -9 3 -19 5 -23 2 -4 4 -9 4 -11 0
-2 2 -8 4 -13 2 -4 4 -11 5 -16 1 -4 5 -13 8 -21 4 -8 7 -17 7 -21 0 -4 2 -16
4 -28 7 -30 8 -138 3 -148 -3 -6 -4 -12 -4 -33 0 -43 -5 -80 -13 -96 -2 -4 -5
-13 -5 -21 -1 -7 -3 -16 -4 -19 -2 -3 -5 -10 -6 -15 -1 -5 -4 -13 -6 -17 -1
-4 -3 -11 -3 -15 0 -6 -2 -10 -7 -17 -4 -5 -9 -14 -10 -19 -5 -18 -23 -46 -36
-56 -26 -19 -53 -47 -53 -54 0 -3 -12 -16 -18 -19 -3 -1 -8 -6 -12 -9 -10 -10
-32 -22 -40 -22 -9 0 -16 -3 -21 -10 -10 -11 -26 -9 -41 6 -8 8 -13 12 -19 14
-5 1 -10 4 -12 6 -2 3 -9 7 -15 10 -7 3 -12 7 -16 14 -4 5 -14 17 -22 26 -9 9
-17 21 -20 26 -2 5 -11 16 -20 25 -9 9 -16 17 -16 18 0 7 -6 19 -14 28 -6 7
-11 15 -13 21 -1 5 -4 12 -6 15 -1 3 -3 9 -4 14 -1 4 -4 10 -7 14 -7 8 -9 12
-11 21 0 4 -5 11 -9 17 -4 5 -8 10 -8 11 0 0 -1 8 -2 16 -1 8 -3 19 -5 23 -2
6 -3 15 -3 30 0 23 0 23 -7 31 -14 16 -15 196 -1 212 7 8 8 9 8 43 1 27 1 27
9 34 8 7 11 15 11 34 0 5 2 13 4 17 2 4 4 11 4 16 0 9 17 45 26 55 3 3 11 17
17 30 8 17 13 24 18 27 3 2 13 11 21 19 8 8 18 17 21 18 6 3 13 10 40 37 8 7
19 16 25 19 6 3 14 9 19 13 18 17 28 18 40 7z"/>
<path d="M411 785 c-6 -4 -15 -10 -20 -14 -21 -14 -95 -58 -110 -65 -32 -15
-41 -32 -24 -50 12 -13 25 -12 46 4 21 16 113 69 126 73 24 7 35 26 25 45 -8
16 -26 19 -43 7z"/>
<path d="M402 682 c-19 -12 -74 -45 -120 -73 -26 -15 -31 -21 -30 -33 3 -27
25 -30 53 -9 18 14 103 64 118 70 30 12 40 38 21 54 -11 9 -18 7 -42 -9z"/>
<path d="M416 594 c-4 -2 -18 -11 -32 -20 -14 -10 -43 -28 -66 -42 -54 -33
-63 -42 -62 -57 3 -27 21 -30 48 -8 18 14 93 61 117 72 29 14 35 32 18 50 -9
10 -13 11 -23 5z"/>
<path d="M414 495 c-4 -2 -13 -8 -21 -14 -12 -9 -61 -38 -107 -63 -32 -18 -40
-38 -23 -55 11 -11 27 -9 45 7 10 9 78 50 106 64 30 15 38 29 29 49 -7 14 -16
18 -29 12z"/>
</g>
</svg>
