<?xml version="1.0" standalone="no"?>
<!DOCTYPE svg PUBLIC "-//W3C//DTD SVG 20010904//EN"
 "http://www.w3.org/TR/2001/REC-SVG-20010904/DTD/svg10.dtd">
<svg version="1.0" xmlns="http://www.w3.org/2000/svg"
 width="378.000000pt" height="590.000000pt" viewBox="0 0 378.000000 590.000000"
 preserveAspectRatio="xMidYMid meet">
<metadata>
Created by potrace 1.16, written by Peter Selinger 2001-2019
</metadata>
<g transform="translate(0.000000,590.000000) scale(0.500000,-0.500000)"
fill="#000000" stroke="none">
<path d="M351 1136 c-4 -1 -13 -6 -21 -11 -9 -4 -21 -13 -31 -23 -9 -8 -20
-18 -25 -21 -5 -4 -15 -13 -22 -20 -7 -8 -25 -25 -40 -39 -38 -36 -54 -56 -71
-91 -6 -13 -14 -27 -16 -31 -3 -4 -7 -13 -9 -20 -5 -14 -7 -19 -18 -31 -5 -7
-7 -11 -8 -23 -1 -8 -4 -18 -7 -23 -2 -6 -5 -12 -6 -15 -2 -8 -15 -40 -20 -52
-3 -6 -5 -15 -5 -19 0 -4 -2 -10 -3 -14 -4 -5 -4 -12 -4 -52 -1 -27 -2 -48 -3
-52 -3 -7 -3 -17 0 -24 2 -4 3 -22 3 -48 0 -42 0 -42 5 -50 3 -5 6 -11 7 -15
1 -4 4 -11 7 -16 4 -6 6 -11 6 -17 0 -6 2 -12 6 -20 5 -9 6 -13 6 -31 1 -21 1
-21 11 -34 5 -7 9 -14 9 -15 0 -1 3 -6 6 -10 3 -4 6 -10 7 -14 2 -12 9 -28 15
-35 9 -12 20 -33 23 -46 3 -11 5 -14 16 -25 10 -9 13 -15 17 -24 3 -11 5 -13
12 -16 4 -2 11 -8 16 -13 5 -5 16 -15 25 -22 8 -7 18 -17 21 -22 4 -4 10 -10
14 -12 4 -2 8 -5 10 -7 4 -5 12 -8 24 -11 5 -1 13 -4 18 -7 4 -3 12 -6 17 -6
6 -1 14 -4 19 -7 12 -8 47 -9 66 -1 6 3 16 6 21 7 5 1 12 4 16 7 3 3 7 5 8 5
4 0 46 22 51 27 3 3 10 7 16 10 6 3 12 8 16 13 3 5 15 19 26 31 19 20 22 24
24 33 2 8 4 13 11 20 5 6 9 12 10 17 1 4 3 11 6 15 24 39 39 68 39 78 0 3 4
13 8 22 4 9 9 20 11 26 1 5 6 17 11 26 l9 16 -1 52 c0 46 0 54 3 62 3 9 4 12
1 27 -1 9 -2 19 -2 23 0 4 -1 11 -3 16 -2 5 -4 19 -5 32 -1 21 -2 24 -7 32 -6
8 -6 10 -7 34 -1 22 -2 26 -5 31 -3 4 -6 10 -7 14 -7 29 -11 43 -15 51 -3 5
-5 15 -6 22 -1 8 -3 16 -7 22 -14 25 -16 33 -10 42 5 8 29 63 32 74 3 12 0
116 -4 125 -1 3 -4 13 -6 23 -10 45 -32 46 -57 2 -12 -20 -55 -61 -72 -67 -8
-3 -29 13 -39 29 -10 16 -23 27 -36 32 -9 3 -14 6 -18 12 -4 4 -13 11 -20 15
-7 4 -18 12 -23 17 -15 15 -32 18 -46 10z m35 -63 c11 -7 23 -19 28 -27 1 -2
7 -6 13 -9 5 -3 19 -14 31 -24 11 -11 21 -19 22 -19 4 0 27 -29 30 -37 3 -10
26 -46 39 -62 3 -4 11 -15 16 -23 5 -8 14 -20 19 -25 6 -6 10 -14 13 -21 9
-28 17 -56 17 -60 0 -3 3 -11 7 -20 4 -9 7 -19 7 -23 0 -5 2 -12 5 -18 9 -17
13 -29 14 -51 1 -12 3 -24 4 -28 2 -3 3 -11 3 -17 0 -7 2 -15 5 -23 5 -12 5
-14 3 -27 -1 -8 -3 -18 -3 -24 -2 -13 -2 -68 0 -95 2 -25 -2 -41 -15 -63 -9
-14 -15 -29 -17 -42 -1 -8 -16 -39 -25 -52 -15 -23 -43 -72 -45 -80 -5 -19
-55 -62 -95 -83 l-40 -20 -29 0 c-32 0 -51 7 -73 25 -5 4 -13 9 -19 12 -12 6
-37 31 -43 43 -5 11 -34 44 -50 56 -5 4 -7 8 -9 16 -3 13 -7 22 -15 31 -3 3
-8 11 -11 17 -3 6 -7 14 -9 18 -2 4 -4 9 -4 11 0 3 -11 26 -23 48 -2 3 -3 8
-3 11 0 3 -2 11 -4 18 -2 7 -4 15 -4 17 0 2 -2 8 -5 13 -4 6 -6 14 -7 23 -1
12 -3 17 -8 25 -6 9 -6 9 -6 38 0 19 -1 33 -3 41 -4 16 -4 74 0 88 2 5 3 17 3
27 0 20 10 52 22 73 4 7 10 28 12 39 1 10 7 24 20 55 1 4 9 17 16 29 7 12 17
30 22 40 7 14 14 24 25 36 8 9 15 17 15 18 0 6 43 46 53 51 9 4 13 7 21 19 15
21 28 32 40 33 5 1 12 3 16 5 10 5 11 5 24 -3z m227 -74 c12 -31 -6 -84 -21
-62 -3 3 -10 11 -16 17 -12 13 -12 16 -1 25 31 24 35 26 38 20z"/>
<path d="M353 796 c-8 -5 -8 -3 -8 -206 0 -228 -4 -203 31 -204 22 0 22 0 28
6 l6 6 0 195 c-1 228 3 205 -33 205 -11 0 -22 -1 -24 -2z"/>
</g>
</svg>
