<?xml version="1.0" standalone="no"?>
<!DOCTYPE svg PUBLIC "-//W3C//DTD SVG 20010904//EN"
 "http://www.w3.org/TR/2001/REC-SVG-20010904/DTD/svg10.dtd">
<svg version="1.0" xmlns="http://www.w3.org/2000/svg"
 width="64.000000pt" height="100.000000pt" viewBox="0 0 64.000000 100.000000"
 preserveAspectRatio="xMidYMid meet">
<metadata>
Created by potrace 1.16, written by Peter Selinger 2001-2019
</metadata>
<g transform="translate(0.000000,100.000000) scale(0.100000,-0.100000)"
fill="#000000" stroke="none">
<path d="M203 888 c-152 -148 -208 -341 -152 -524 79 -258 234 -382 370 -296
60 38 95 82 141 177 l40 80 -5 130 c-4 108 -9 142 -30 199 -24 66 -25 71 -10
108 18 44 14 161 -5 180 -10 10 -22 2 -57 -37 l-45 -49 -38 36 c-95 90 -112
89 -209 -4z m164 -24 c105 -86 171 -236 180 -409 5 -93 3 -104 -21 -160 -58
-129 -130 -205 -196 -205 -93 0 -231 215 -247 385 -7 75 6 132 52 232 36 78
137 193 169 193 11 0 39 -16 63 -36z"/>
<path d="M294 667 c-2 -7 -3 -87 -2 -177 3 -159 4 -165 24 -168 15 -2 23 4 28
20 8 30 8 302 0 322 -7 19 -43 21 -50 3z"/>
</g>
</svg>
