<?xml version="1.0" standalone="no"?>
<!DOCTYPE svg PUBLIC "-//W3C//DTD SVG 20010904//EN"
 "http://www.w3.org/TR/2001/REC-SVG-20010904/DTD/svg10.dtd">
<svg version="1.0" xmlns="http://www.w3.org/2000/svg"
 width="94.000000pt" height="148.000000pt" viewBox="0 0 94.000000 148.000000"
 preserveAspectRatio="xMidYMid meet">
<metadata>
Created by potrace 1.16, written by Peter Selinger 2001-2019
</metadata>
<g transform="translate(0.000000,148.000000) scale(0.100000,-0.100000)"
fill="#000000" stroke="none">
<path d="M349 1357 c-41 -35 -92 -84 -114 -109 -40 -46 -125 -201 -125 -229 0
-8 -4 -19 -9 -25 -5 -5 -18 -37 -30 -72 -30 -87 -31 -294 -2 -346 11 -18 23
-56 27 -82 4 -27 18 -66 30 -86 13 -21 24 -43 24 -50 0 -7 9 -24 20 -38 11
-14 20 -32 20 -41 0 -9 9 -24 20 -34 11 -10 20 -24 20 -32 0 -7 4 -13 8 -13 4
0 34 -24 65 -53 34 -32 74 -59 99 -67 24 -7 47 -17 52 -22 18 -15 50 -8 131
31 82 40 140 95 175 166 8 17 24 46 36 65 12 19 25 46 29 60 4 14 18 47 31 74
20 41 24 65 24 150 1 56 -4 126 -10 156 -6 30 -13 66 -14 80 -2 28 -51 182
-66 210 -7 13 -2 32 17 71 24 50 25 61 20 152 -7 126 -32 161 -70 97 -22 -36
-88 -100 -104 -100 -6 0 -23 14 -37 31 -39 46 -143 119 -170 119 -14 0 -52
-25 -97 -63z m189 -63 c37 -32 76 -72 87 -90 27 -45 75 -115 96 -139 27 -33
102 -307 99 -365 -1 -8 -2 -55 -3 -105 -2 -72 -8 -104 -31 -160 -33 -81 -90
-180 -134 -229 -69 -79 -185 -110 -242 -66 -14 11 -29 20 -34 20 -14 0 -56 42
-56 55 0 6 -16 27 -36 46 -34 33 -124 198 -124 228 0 17 -18 75 -33 109 -6 12
-11 80 -10 150 0 108 3 134 21 175 12 27 22 56 22 65 0 9 19 53 42 99 38 77
79 127 179 219 62 58 74 57 157 -12z m226 -50 c9 -22 8 -39 -4 -70 l-11 -27
-29 28 -30 29 27 28 c31 32 38 34 47 12z"/>
<path d="M435 988 c-3 -7 -4 -124 -3 -258 l3 -245 30 0 30 0 0 255 0 255 -28
3 c-16 2 -29 -2 -32 -10z"/>
</g>
</svg>
