<?xml version="1.0" standalone="no"?>
<!DOCTYPE svg PUBLIC "-//W3C//DTD SVG 20010904//EN"
 "http://www.w3.org/TR/2001/REC-SVG-20010904/DTD/svg10.dtd">
<svg version="1.0" xmlns="http://www.w3.org/2000/svg"
 width="360.000000pt" height="590.000000pt" viewBox="0 0 360.000000 590.000000"
 preserveAspectRatio="xMidYMid meet">
<metadata>
Created by potrace 1.16, written by Peter Selinger 2001-2019
</metadata>
<g transform="translate(0.000000,590.000000) scale(0.500000,-0.500000)"
fill="#000000" stroke="none">
<path d="M325 1134 c-3 -1 -11 -2 -17 -2 -11 0 -19 -3 -31 -13 -4 -3 -11 -8
-14 -10 -16 -10 -83 -75 -94 -91 -3 -5 -13 -19 -21 -30 -9 -11 -18 -24 -21
-29 -3 -6 -10 -19 -16 -30 -21 -39 -24 -46 -41 -94 -6 -18 -9 -35 -12 -63 -1
-8 -3 -19 -5 -24 -13 -33 -12 -259 1 -290 5 -12 15 -49 19 -71 6 -30 12 -44
27 -64 6 -7 13 -19 15 -25 9 -22 18 -39 27 -51 5 -7 12 -17 15 -23 3 -5 6 -10
7 -11 1 -1 7 -8 14 -17 6 -8 19 -23 29 -34 10 -10 21 -23 25 -28 8 -12 66 -61
78 -65 2 -1 8 -5 14 -10 15 -10 24 -11 46 -8 27 5 34 7 45 14 6 4 13 8 17 9
10 4 17 9 39 30 11 10 29 27 39 36 12 11 23 23 31 35 6 10 14 20 16 23 19 21
65 113 72 145 2 6 7 20 13 30 8 17 9 19 10 38 2 29 5 48 9 55 6 10 11 172 7
194 -1 6 -3 20 -5 31 -2 11 -4 21 -4 21 -1 1 -2 9 -3 17 -1 8 -4 22 -7 30 -2
7 -6 19 -8 24 -1 6 -5 16 -8 22 -3 7 -7 21 -10 32 -3 11 -8 26 -12 33 -4 7 -8
18 -10 24 -2 6 -9 21 -16 33 -11 21 -20 32 -42 60 -6 6 -13 16 -17 21 -9 14
-68 72 -78 78 -5 3 -12 9 -15 14 -3 5 -9 9 -15 12 -5 2 -12 7 -17 10 -16 13
-51 18 -76 12z m41 -47 c3 -2 6 -4 6 -5 0 0 7 -6 15 -12 24 -17 22 -12 21 -78
0 -70 -2 -67 24 -68 33 -1 33 0 35 38 0 28 2 32 11 23 3 -4 9 -11 14 -17 5 -6
16 -20 23 -31 8 -11 16 -23 18 -26 13 -15 41 -79 43 -96 1 -9 3 -19 4 -23 5
-10 10 -25 13 -37 1 -5 5 -15 9 -21 4 -8 6 -16 7 -25 1 -8 4 -26 6 -40 8 -37
7 -122 -1 -137 -4 -8 -4 -10 -3 -21 2 -16 2 -22 -1 -45 -5 -39 -7 -49 -11 -58
-3 -5 -6 -14 -7 -23 -1 -8 -3 -17 -4 -20 -2 -3 -4 -10 -5 -14 -1 -4 -3 -10 -4
-13 -1 -3 -3 -10 -4 -16 -1 -9 -3 -14 -9 -22 -4 -6 -8 -13 -8 -15 0 -13 -23
-49 -37 -59 -4 -3 -16 -14 -28 -25 -26 -24 -26 -24 -26 13 0 40 -1 41 -33 40
-28 -1 -27 2 -26 -69 1 -65 2 -61 -15 -64 -6 -1 -10 -3 -15 -8 -5 -7 -6 -7
-19 -7 -14 0 -13 -1 -25 14 -4 5 -10 9 -16 11 -16 5 -16 6 -16 64 0 61 2 58
-29 58 -27 0 -28 -1 -30 -25 -1 -25 -5 -28 -13 -11 -3 4 -11 15 -20 24 -13 13
-16 17 -17 24 -1 6 -4 12 -11 20 -6 7 -11 16 -12 20 -1 4 -4 12 -6 17 -2 5 -5
13 -6 17 -1 5 -4 10 -6 12 -6 5 -9 12 -11 21 0 4 -4 11 -8 15 -9 11 -11 17
-11 29 0 5 -2 15 -4 21 -4 9 -4 16 -4 32 0 20 -2 27 -10 34 -3 3 -4 6 -4 13 0
5 -1 16 -3 25 -4 22 -4 79 0 101 2 9 3 28 3 40 0 24 0 24 7 31 6 8 6 8 7 40 1
29 1 32 5 34 11 6 12 10 13 27 1 10 3 20 5 24 2 3 4 12 4 18 2 12 17 47 26 56
3 3 10 16 16 28 11 23 12 24 29 39 10 8 18 16 18 17 0 1 2 3 4 4 8 4 10 -1 10
-35 0 -41 0 -40 29 -40 31 0 30 -4 28 64 -2 71 -5 64 39 97 8 5 18 5 26 1z"/>
</g>
</svg>
