<?xml version="1.0" standalone="no"?>
<!DOCTYPE svg PUBLIC "-//W3C//DTD SVG 20010904//EN"
 "http://www.w3.org/TR/2001/REC-SVG-20010904/DTD/svg10.dtd">
<svg version="1.0" xmlns="http://www.w3.org/2000/svg"
 width="61.000000pt" height="100.000000pt" viewBox="0 0 61.000000 100.000000"
 preserveAspectRatio="xMidYMid meet">
<metadata>
Created by potrace 1.16, written by Peter Selinger 2001-2019
</metadata>
<g transform="translate(0.000000,100.000000) scale(0.100000,-0.100000)"
fill="#000000" stroke="none">
<path d="M181 901 c-117 -117 -145 -200 -139 -416 3 -140 3 -142 41 -218 26
-53 60 -100 111 -152 63 -65 77 -75 108 -75 40 0 93 34 150 98 79 87 111 188
112 352 0 101 -3 125 -28 195 -33 97 -55 132 -135 213 -59 60 -63 62 -111 62
-48 0 -53 -3 -109 -59z m148 0 c10 -7 14 -26 12 -65 -2 -50 0 -56 18 -56 11 0
25 9 31 20 6 11 14 20 18 20 11 0 52 -77 73 -138 45 -131 45 -259 -2 -399 -31
-96 -83 -147 -91 -90 -2 14 -10 22 -23 22 -18 0 -20 -7 -20 -54 0 -46 -4 -56
-22 -64 -17 -7 -28 -6 -45 5 -19 12 -22 23 -19 61 3 54 -17 71 -49 42 -17 -16
-19 -15 -34 7 -8 12 -29 54 -47 93 -29 62 -33 81 -37 180 -3 82 0 126 13 174
34 132 105 229 105 145 0 -19 5 -24 25 -24 24 0 25 2 24 54 -1 29 1 58 5 65 9
13 45 14 65 2z"/>
</g>
</svg>
