<?xml version="1.0" standalone="no"?>
<!DOCTYPE svg PUBLIC "-//W3C//DTD SVG 20010904//EN"
 "http://www.w3.org/TR/2001/REC-SVG-20010904/DTD/svg10.dtd">
<svg version="1.0" xmlns="http://www.w3.org/2000/svg"
 width="360.000000pt" height="590.000000pt" viewBox="0 0 360.000000 590.000000"
 preserveAspectRatio="xMidYMid meet">
<metadata>
Created by potrace 1.16, written by Peter Selinger 2001-2019
</metadata>
<g transform="translate(0.000000,590.000000) scale(0.500000,-0.500000)"
fill="#000000" stroke="none">
<path d="M329 1136 c-3 -1 -11 -2 -18 -2 -14 0 -22 -3 -36 -15 -6 -5 -12 -9
-13 -9 -1 0 -10 -8 -21 -18 -11 -10 -20 -18 -21 -18 -16 0 -105 -127 -130
-186 -10 -21 -26 -69 -26 -75 0 -3 -1 -12 -3 -19 -2 -7 -3 -17 -3 -22 0 -5 -2
-15 -4 -21 -8 -23 -11 -88 -8 -176 3 -90 4 -106 11 -120 2 -7 7 -20 9 -30 2
-10 5 -22 6 -26 1 -4 4 -17 6 -27 5 -22 10 -32 24 -51 5 -7 12 -18 14 -25 7
-17 20 -42 27 -51 3 -4 9 -13 12 -19 3 -5 8 -13 12 -18 3 -4 9 -11 12 -16 4
-5 16 -19 28 -31 11 -13 22 -26 25 -30 6 -9 62 -56 78 -64 3 -1 10 -6 16 -10
20 -13 69 -10 90 7 4 3 13 8 19 10 9 4 16 9 34 26 12 11 31 29 41 38 12 11 23
24 31 35 7 10 15 22 19 27 20 25 62 112 69 143 2 6 7 20 13 30 9 17 9 19 10
39 2 29 5 46 9 54 6 11 10 166 5 196 -1 6 -3 19 -5 29 -1 10 -4 21 -5 24 -1 3
-2 9 -2 13 0 4 -2 13 -4 21 -2 8 -6 20 -8 27 -2 7 -6 19 -9 26 -3 7 -8 23 -11
36 -3 12 -9 27 -12 33 -3 5 -7 15 -9 22 -7 24 -31 64 -56 93 -5 6 -12 15 -17
21 -11 16 -67 73 -78 80 -6 3 -12 9 -15 13 -4 5 -10 10 -17 13 -6 3 -14 8 -17
11 -14 12 -50 18 -72 12z m41 -54 c4 -4 13 -11 20 -16 7 -5 18 -15 25 -22 7
-8 21 -20 30 -28 19 -14 23 -18 63 -72 9 -12 19 -25 24 -31 4 -5 11 -17 15
-25 28 -55 28 -55 30 -71 1 -9 3 -18 5 -23 3 -5 4 -12 5 -19 l0 -12 -37 -20
c-20 -11 -65 -35 -99 -54 -78 -42 -158 -87 -229 -127 -30 -17 -66 -37 -80 -45
-36 -20 -43 -20 -45 1 -1 6 -2 17 -3 25 -2 10 -2 28 0 59 1 25 3 58 4 74 1 28
1 30 6 35 9 10 10 13 10 43 0 30 0 30 12 38 4 3 5 5 6 21 1 11 3 21 6 27 2 5
4 13 4 17 0 10 15 41 25 54 4 4 12 18 18 30 10 20 12 23 24 33 7 5 16 14 20
19 4 5 12 11 17 14 5 3 11 8 13 11 2 3 8 8 13 11 4 3 11 10 15 15 5 7 11 11
20 16 7 4 18 11 25 17 16 14 27 15 38 5z m242 -392 c12 -15 14 -134 3 -159 -5
-11 -5 -11 -3 -26 2 -11 2 -17 0 -25 -1 -6 -2 -15 -2 -20 0 -14 -7 -44 -12
-54 -2 -5 -5 -14 -5 -20 -1 -6 -3 -15 -5 -20 -6 -16 -14 -42 -14 -47 0 -5 -2
-9 -12 -25 -2 -2 -4 -8 -5 -11 -1 -8 -11 -27 -19 -37 -6 -8 -10 -11 -40 -39
-18 -16 -25 -23 -29 -32 -4 -8 -8 -13 -14 -17 -4 -3 -12 -9 -17 -13 -14 -12
-30 -21 -43 -22 -9 -1 -12 -3 -16 -7 -11 -14 -28 -13 -42 3 -7 8 -11 11 -18
13 -4 1 -11 5 -15 8 -4 3 -11 7 -15 10 -6 2 -12 8 -17 16 -5 6 -15 18 -23 26
-7 8 -15 19 -17 24 -2 4 -11 15 -20 24 -13 13 -16 17 -18 25 -2 8 -5 14 -13
23 -6 6 -11 15 -12 18 -1 4 -4 11 -6 17 -3 5 -5 12 -5 14 0 3 -4 9 -8 14 -4 6
-9 14 -10 19 -1 5 -4 12 -8 16 -24 28 -19 37 35 66 19 10 38 21 42 23 4 2 16
9 26 14 70 38 211 115 302 167 65 36 70 39 75 34z"/>
</g>
</svg>
