<?xml version="1.0" standalone="no"?>
<!DOCTYPE svg PUBLIC "-//W3C//DTD SVG 20010904//EN"
 "http://www.w3.org/TR/2001/REC-SVG-20010904/DTD/svg10.dtd">
<svg version="1.0" xmlns="http://www.w3.org/2000/svg"
 width="90.000000pt" height="148.000000pt" viewBox="0 0 90.000000 148.000000"
 preserveAspectRatio="xMidYMid meet">
<metadata>
Created by potrace 1.16, written by Peter Selinger 2001-2019
</metadata>
<g transform="translate(0.000000,148.000000) scale(0.100000,-0.100000)"
fill="#000000" stroke="none">
<path d="M267 1327 c-127 -128 -174 -221 -203 -399 -30 -185 3 -455 64 -533
12 -15 22 -33 22 -39 0 -19 87 -137 141 -193 80 -81 132 -113 172 -103 48 11
80 31 140 86 57 52 117 133 143 193 9 20 20 44 25 53 5 10 9 26 9 36 0 10 5
23 11 29 32 32 50 300 29 414 -14 75 -48 183 -80 254 -29 64 -65 113 -136 185
-94 96 -118 110 -189 110 l-56 0 -92 -93z m228 -1 c118 -98 203 -214 230 -318
14 -54 14 -53 -55 -91 -25 -13 -72 -39 -105 -57 -113 -62 -330 -183 -378 -212
-59 -34 -65 -35 -73 -2 -9 34 5 236 17 248 5 6 9 29 9 52 0 24 4 45 9 48 4 3
11 24 15 47 15 91 119 225 234 301 37 25 49 23 97 -16z m270 -467 c8 -11 7
-120 0 -231 -6 -93 -31 -191 -66 -260 -5 -10 -9 -24 -9 -31 0 -23 -165 -187
-188 -187 -11 0 -24 -4 -27 -10 -9 -14 -52 -12 -62 3 -4 6 -21 19 -36 26 -43
23 -132 140 -187 247 -28 54 -50 101 -50 105 0 9 8 14 300 174 118 65 235 131
260 146 50 32 56 34 65 18z"/>
</g>
</svg>
