<?xml version="1.0" standalone="no"?>
<!DOCTYPE svg PUBLIC "-//W3C//DTD SVG 20010904//EN"
 "http://www.w3.org/TR/2001/REC-SVG-20010904/DTD/svg10.dtd">
<svg version="1.0" xmlns="http://www.w3.org/2000/svg"
 width="90.000000pt" height="148.000000pt" viewBox="0 0 90.000000 148.000000"
 preserveAspectRatio="xMidYMid meet">
<metadata>
Created by potrace 1.16, written by Peter Selinger 2001-2019
</metadata>
<g transform="translate(0.000000,148.000000) scale(0.100000,-0.100000)"
fill="#000000" stroke="none">
<path d="M267 1328 c-130 -131 -174 -217 -203 -402 -29 -177 -2 -431 53 -515
9 -14 29 -50 45 -80 62 -117 221 -270 281 -271 43 0 95 28 156 83 63 56 96
100 135 177 16 30 32 63 37 72 5 10 9 25 9 33 0 9 6 26 14 38 29 47 51 281 34
372 -16 96 -31 156 -40 161 -4 3 -8 13 -8 23 0 60 -86 203 -175 291 -100 99
-119 110 -190 110 l-56 0 -92 -92z m278 -46 c28 -26 57 -57 65 -68 56 -72 100
-147 100 -172 0 -9 12 -49 27 -87 26 -66 27 -79 27 -230 -1 -179 -15 -260 -65
-357 -5 -10 -9 -24 -9 -31 0 -29 -191 -210 -206 -194 -2 2 -6 179 -9 393 -2
214 -7 485 -11 603 -8 244 -13 235 81 143z m-134 -359 c0 -230 4 -499 9 -598
4 -99 7 -181 6 -182 -1 -1 -13 4 -26 12 -14 8 -33 18 -42 21 -10 3 -18 9 -18
13 0 3 -24 36 -53 72 -28 36 -59 81 -68 100 -9 19 -28 59 -43 89 -15 30 -30
77 -33 105 -3 27 -11 56 -17 64 -14 18 -12 259 3 274 6 6 11 30 11 53 0 24 4
45 9 48 4 3 11 24 15 47 11 68 70 161 142 226 70 62 85 73 97 73 4 0 7 -188 8
-417z"/>
</g>
</svg>
