<?xml version="1.0" standalone="no"?>
<!DOCTYPE svg PUBLIC "-//W3C//DTD SVG 20010904//EN"
 "http://www.w3.org/TR/2001/REC-SVG-20010904/DTD/svg10.dtd">
<svg version="1.0" xmlns="http://www.w3.org/2000/svg"
 width="61.000000pt" height="100.000000pt" viewBox="0 0 61.000000 100.000000"
 preserveAspectRatio="xMidYMid meet">
<metadata>
Created by potrace 1.16, written by Peter Selinger 2001-2019
</metadata>
<g transform="translate(0.000000,100.000000) scale(0.100000,-0.100000)"
fill="#000000" stroke="none">
<path d="M192 915 c-63 -57 -108 -127 -134 -208 -26 -82 -29 -275 -6 -360 23
-83 87 -185 158 -251 90 -82 131 -77 232 32 64 69 102 154 119 264 15 99 7
187 -26 297 -24 77 -38 103 -85 159 -71 85 -111 112 -165 112 -37 0 -50 -7
-93 -45z m84 -104 c-3 -42 -2 -213 2 -381 5 -168 5 -309 0 -314 -11 -13 -43
18 -90 87 -72 106 -90 159 -96 279 -6 137 14 225 70 309 41 61 96 112 111 102
5 -3 6 -40 3 -82z m123 18 c51 -64 84 -134 106 -226 15 -62 16 -85 6 -165 -15
-131 -40 -198 -102 -269 -28 -32 -57 -59 -65 -59 -11 0 -14 31 -14 168 0 93
-3 271 -7 397 l-6 227 20 -11 c12 -6 39 -34 62 -62z"/>
</g>
</svg>
