<?xml version="1.0" standalone="no"?>
<!DOCTYPE svg PUBLIC "-//W3C//DTD SVG 20010904//EN"
 "http://www.w3.org/TR/2001/REC-SVG-20010904/DTD/svg10.dtd">
<svg version="1.0" xmlns="http://www.w3.org/2000/svg"
 width="360.000000pt" height="590.000000pt" viewBox="0 0 360.000000 590.000000"
 preserveAspectRatio="xMidYMid meet">
<metadata>
Created by potrace 1.16, written by Peter Selinger 2001-2019
</metadata>
<g transform="translate(0.000000,590.000000) scale(0.500000,-0.500000)"
fill="#000000" stroke="none">
<path d="M335 1136 c-4 -1 -12 -2 -18 -2 -14 0 -23 -3 -34 -11 -6 -4 -13 -9
-18 -11 -15 -8 -80 -71 -94 -90 -3 -5 -9 -13 -12 -17 -15 -18 -27 -35 -37 -54
-6 -11 -14 -24 -17 -30 -11 -20 -19 -39 -28 -64 -5 -14 -10 -27 -11 -29 -2 -4
-4 -19 -8 -52 -1 -9 -3 -21 -5 -25 -13 -29 -12 -268 1 -295 2 -5 6 -17 8 -26
2 -9 5 -20 6 -23 1 -3 3 -11 4 -18 5 -29 13 -48 29 -69 5 -6 11 -16 13 -21 7
-19 21 -45 27 -53 4 -4 9 -12 12 -18 3 -5 8 -13 12 -18 3 -4 10 -12 14 -18 5
-6 17 -21 28 -32 11 -12 22 -25 25 -28 7 -12 50 -46 91 -73 26 -17 68 -13 96
8 3 2 9 5 12 6 10 2 19 9 41 30 12 11 29 27 39 36 11 10 23 24 32 37 8 11 19
26 24 33 16 21 58 111 63 132 1 6 6 20 12 31 8 16 10 22 10 30 0 6 1 16 2 23
1 7 3 17 4 24 1 7 3 15 5 19 8 15 9 171 2 216 -3 17 -6 36 -7 43 -1 11 -9 38
-18 63 -6 14 -15 42 -19 57 -2 7 -6 18 -10 25 -4 7 -8 18 -10 25 -4 15 -22 45
-40 69 -8 10 -21 27 -30 39 -9 11 -26 30 -38 42 -12 11 -23 23 -25 26 -1 3 -8
8 -14 11 -7 3 -15 10 -19 15 -4 5 -12 12 -18 14 -5 3 -13 7 -16 10 -17 13 -41
17 -66 13z m61 -74 c7 -5 17 -15 23 -21 5 -6 16 -16 24 -22 16 -12 25 -21 37
-38 5 -7 12 -16 16 -21 36 -42 76 -115 79 -143 1 -9 3 -19 5 -24 4 -10 10 -25
13 -38 1 -5 5 -16 9 -23 4 -8 6 -16 6 -21 0 -4 2 -18 4 -30 7 -34 8 -135 2
-147 -3 -7 -4 -12 -4 -19 2 -38 -4 -90 -12 -108 -3 -4 -5 -13 -5 -20 -1 -7 -3
-16 -5 -21 -7 -18 -10 -29 -13 -42 -3 -15 -3 -16 -11 -26 -3 -4 -6 -10 -7 -14
-1 -9 -12 -31 -15 -33 -1 -1 -5 -6 -8 -11 -3 -4 -8 -10 -11 -12 -15 -9 -46
-40 -53 -52 -3 -7 -9 -14 -13 -18 -4 -3 -12 -9 -18 -14 -57 -49 -54 -64 -56
265 0 152 -2 305 -3 340 -1 35 -3 121 -4 190 -3 150 -5 142 20 123z m-69 3 c1
-2 2 -55 2 -117 1 -195 5 -554 7 -633 5 -218 7 -196 -9 -187 -4 2 -9 4 -11 4
-2 0 -7 3 -11 6 -5 4 -12 9 -17 11 -7 3 -12 8 -15 14 -3 4 -13 16 -22 26 -8 9
-17 21 -19 25 -1 4 -10 15 -19 24 -13 14 -17 19 -18 25 -2 11 -4 15 -13 24 -8
8 -20 34 -23 51 0 3 -4 9 -8 14 -3 5 -8 14 -10 20 -1 6 -5 13 -7 15 -7 6 -10
15 -12 30 -1 8 -3 19 -5 25 -2 7 -3 19 -3 30 0 19 0 20 -6 27 -15 19 -16 198
-1 213 6 6 6 6 7 38 1 32 1 32 9 39 8 8 8 8 10 26 1 10 3 20 4 24 2 3 4 11 5
17 2 13 15 43 25 55 4 5 11 18 17 29 9 19 12 23 26 35 8 7 18 17 22 21 3 5 9
10 13 11 6 3 12 9 39 36 19 19 40 29 43 22z"/>
</g>
</svg>
