<?xml version="1.0" standalone="no"?>
<!DOCTYPE svg PUBLIC "-//W3C//DTD SVG 20010904//EN"
 "http://www.w3.org/TR/2001/REC-SVG-20010904/DTD/svg10.dtd">
<svg version="1.0" xmlns="http://www.w3.org/2000/svg"
 width="378.000000pt" height="590.000000pt" viewBox="0 0 378.000000 590.000000"
 preserveAspectRatio="xMidYMid meet">
<metadata>
Created by potrace 1.16, written by Peter Selinger 2001-2019
</metadata>
<g transform="translate(0.000000,590.000000) scale(0.500000,-0.500000)"
fill="#000000" stroke="none">
<path d="M365 1126 c-4 -2 -17 -9 -27 -16 -10 -7 -33 -22 -51 -34 -17 -11 -35
-25 -39 -29 -4 -4 -11 -12 -17 -17 -17 -16 -50 -50 -55 -58 -2 -4 -8 -11 -12
-16 -5 -5 -12 -17 -17 -26 -5 -9 -14 -23 -19 -30 -9 -12 -25 -46 -30 -64 -2
-4 -6 -11 -9 -16 -8 -9 -13 -18 -13 -25 0 -8 -13 -66 -18 -79 -2 -5 -4 -13 -4
-16 0 -3 -2 -11 -4 -18 -10 -31 -13 -130 -6 -167 2 -11 4 -25 4 -30 0 -5 3
-17 6 -27 3 -9 8 -23 10 -31 2 -8 7 -19 10 -24 3 -6 6 -15 7 -19 2 -12 12 -41
18 -51 2 -4 12 -20 21 -35 10 -16 19 -32 21 -36 2 -4 7 -12 11 -18 24 -33 30
-41 40 -53 24 -29 61 -67 75 -77 8 -5 18 -12 23 -17 5 -4 17 -11 26 -16 9 -5
20 -11 24 -14 17 -11 44 -13 62 -4 5 3 18 9 30 15 12 6 25 14 30 18 5 4 15 11
23 17 36 24 105 107 140 169 5 9 15 26 22 37 12 20 23 48 26 64 0 4 4 14 8 21
4 7 9 20 11 28 2 8 6 21 9 29 3 8 5 19 5 24 0 6 2 19 4 29 8 34 4 137 -6 168
-2 7 -4 15 -4 18 0 3 -2 11 -4 17 -5 16 -13 49 -17 72 -2 10 -4 19 -5 21 -2 2
-6 7 -9 11 -3 4 -8 15 -12 24 -10 28 -18 43 -28 57 -6 8 -14 20 -18 28 -4 8
-11 20 -16 25 -5 6 -11 14 -14 18 -5 8 -34 38 -54 57 -6 5 -13 13 -17 17 -4 4
-23 19 -43 32 -20 13 -42 28 -49 33 -24 17 -35 21 -49 14z m32 -78 c9 -6 20
-15 26 -19 5 -5 16 -13 23 -17 7 -4 15 -10 18 -13 3 -3 12 -11 21 -18 8 -8 18
-18 22 -24 4 -5 14 -17 22 -26 8 -10 16 -19 17 -21 2 -3 11 -18 21 -34 22 -34
29 -48 36 -69 3 -9 9 -24 14 -34 9 -18 10 -22 18 -67 2 -10 6 -27 9 -37 11
-37 12 -45 11 -75 -4 -102 -32 -195 -84 -279 -5 -8 -12 -22 -16 -31 -29 -66
-162 -189 -170 -157 -1 3 -1 58 0 123 4 422 7 374 -22 374 -27 0 -26 3 -25
-124 6 -430 12 -385 -48 -328 -56 53 -76 78 -90 110 -4 8 -12 24 -19 36 -54
91 -79 174 -82 275 -1 32 -1 38 11 77 3 10 7 28 9 38 7 42 9 49 18 66 5 9 10
22 12 27 5 18 14 38 27 57 6 11 17 28 24 39 7 11 20 28 28 37 9 10 18 21 21
25 2 5 10 12 16 18 7 5 17 14 22 20 6 5 16 12 22 16 6 3 17 11 24 17 34 29 33
28 41 28 6 0 12 -3 23 -10z"/>
</g>
</svg>
