<?xml version="1.0" standalone="no"?>
<!DOCTYPE svg PUBLIC "-//W3C//DTD SVG 20010904//EN"
 "http://www.w3.org/TR/2001/REC-SVG-20010904/DTD/svg10.dtd">
<svg version="1.0" xmlns="http://www.w3.org/2000/svg"
 width="64.000000pt" height="100.000000pt" viewBox="0 0 64.000000 100.000000"
 preserveAspectRatio="xMidYMid meet">
<metadata>
Created by potrace 1.16, written by Peter Selinger 2001-2019
</metadata>
<g transform="translate(0.000000,100.000000) scale(0.100000,-0.100000)"
fill="#000000" stroke="none">
<path d="M264 926 c-195 -132 -285 -390 -205 -593 36 -90 107 -192 168 -238
86 -66 120 -61 215 34 52 53 78 90 110 157 38 79 43 96 46 178 5 107 -14 190
-61 281 -36 67 -123 158 -184 192 l-39 22 -50 -33z m154 -120 c96 -101 146
-250 124 -367 -17 -93 -72 -200 -138 -270 -32 -33 -62 -58 -67 -56 -6 2 -9 82
-8 210 l2 207 -26 0 -27 0 3 -200 c2 -110 0 -202 -3 -205 -12 -12 -101 102
-140 181 -34 69 -42 96 -46 158 -9 150 54 295 169 386 48 38 52 39 77 26 15
-8 51 -39 80 -70z"/>
</g>
</svg>
