<?xml version="1.0" standalone="no"?>
<!DOCTYPE svg PUBLIC "-//W3C//DTD SVG 20010904//EN"
 "http://www.w3.org/TR/2001/REC-SVG-20010904/DTD/svg10.dtd">
<svg version="1.0" xmlns="http://www.w3.org/2000/svg"
 width="378.000000pt" height="590.000000pt" viewBox="0 0 378.000000 590.000000"
 preserveAspectRatio="xMidYMid meet">
<metadata>
Created by potrace 1.16, written by Peter Selinger 2001-2019
</metadata>
<g transform="translate(0.000000,590.000000) scale(0.500000,-0.500000)"
fill="#000000" stroke="none">
<path d="M352 1141 c-2 -1 -7 -4 -11 -7 -4 -3 -12 -7 -17 -10 -5 -2 -16 -11
-25 -20 -9 -8 -21 -19 -27 -22 -6 -4 -15 -12 -19 -17 -5 -5 -11 -12 -14 -15
-19 -16 -66 -64 -70 -72 -3 -5 -8 -12 -11 -15 -3 -3 -8 -11 -11 -18 -4 -7 -8
-15 -9 -18 -5 -8 -22 -45 -28 -59 -3 -6 -8 -15 -12 -20 -8 -9 -9 -11 -11 -28
0 -6 -2 -12 -3 -13 -2 -2 -6 -11 -9 -22 -6 -16 -11 -31 -20 -53 -2 -4 -3 -9
-3 -11 0 -2 -2 -9 -4 -16 -4 -10 -4 -16 -4 -53 0 -32 -1 -43 -3 -50 -4 -10 -4
-20 -1 -27 2 -4 3 -22 4 -49 1 -43 1 -43 6 -51 3 -4 6 -11 7 -15 0 -4 3 -11 6
-16 4 -6 6 -12 7 -20 1 -8 3 -15 6 -19 4 -5 5 -9 6 -28 1 -22 1 -23 7 -30 4
-5 9 -13 12 -18 2 -6 6 -12 9 -14 2 -2 5 -7 5 -11 3 -13 9 -27 16 -37 9 -13
20 -35 24 -49 2 -9 5 -13 12 -18 5 -5 11 -12 14 -19 3 -7 6 -14 8 -17 1 -2 5
-6 10 -8 4 -3 11 -8 16 -12 10 -10 44 -43 47 -47 8 -9 35 -25 45 -26 4 -1 12
-4 16 -6 4 -3 13 -5 19 -6 7 -1 12 -3 18 -8 11 -9 55 -10 71 -1 5 2 13 5 19 6
6 1 13 5 17 8 3 3 9 6 12 7 4 1 10 4 14 6 4 3 12 7 18 10 5 2 11 6 13 8 1 2 8
6 14 9 9 4 14 9 20 17 5 7 18 21 28 32 17 18 20 21 21 29 2 11 4 15 11 21 4 3
7 9 9 15 1 6 5 13 7 16 2 3 6 10 9 16 3 6 8 14 10 17 7 9 17 31 19 44 2 10 9
27 27 67 7 17 8 21 8 32 -3 62 -2 133 2 139 4 8 4 17 0 25 -2 3 -3 15 -3 35
-1 31 -1 31 -8 40 -7 10 -7 10 -8 35 -1 21 -2 26 -5 32 -3 4 -6 12 -7 17 -3
18 -10 41 -14 48 -3 4 -5 13 -6 23 -1 11 -3 17 -6 22 -6 8 -39 78 -44 92 -6
17 -23 39 -38 48 -3 3 -9 8 -12 13 -3 5 -10 13 -14 18 -4 5 -8 12 -9 15 -1 4
-5 9 -10 14 -20 15 -25 21 -31 31 -7 12 -20 22 -35 28 -6 2 -13 7 -18 12 -4 5
-14 12 -22 17 -8 4 -19 12 -25 17 -11 10 -31 14 -42 10z m35 -71 c5 -4 14 -12
19 -19 7 -7 14 -14 20 -16 5 -3 16 -12 26 -22 9 -9 20 -18 24 -21 4 -3 8 -7
10 -9 1 -2 6 -7 10 -11 3 -3 8 -11 10 -17 4 -10 29 -49 41 -63 14 -16 14 -15
-24 -63 -29 -38 -88 -114 -119 -155 -28 -37 -21 -39 -76 27 -24 28 -67 79 -96
113 -63 73 -64 81 -20 129 6 7 17 19 23 27 20 24 41 43 53 48 8 4 12 7 17 15
15 23 33 37 49 37 3 0 7 1 10 3 8 4 13 4 23 -3z m-224 -248 c5 -5 25 -29 46
-54 21 -25 60 -70 86 -101 61 -71 58 -60 28 -97 -41 -53 -90 -116 -123 -159
-44 -57 -54 -67 -54 -50 0 1 -3 6 -6 11 -4 7 -6 11 -6 18 0 5 -2 13 -3 17 -2
4 -4 12 -5 18 -1 5 -4 13 -7 16 -3 4 -4 10 -5 21 -1 12 -3 17 -6 22 -5 6 -5
10 -6 40 -1 24 -2 35 -5 42 -4 12 -4 67 0 78 3 5 4 16 5 43 1 36 1 36 11 50 5
8 11 18 12 22 2 4 4 12 6 16 1 4 3 11 3 15 0 26 17 44 29 32z m431 0 c5 -9 18
-49 18 -54 0 -2 4 -12 8 -23 5 -11 8 -22 8 -26 0 -5 2 -12 6 -18 7 -13 12 -33
12 -51 0 -9 1 -18 3 -23 2 -4 3 -13 3 -19 0 -10 1 -16 5 -24 6 -12 5 -38 -1
-59 -2 -6 -3 -12 -3 -13 1 -1 2 -13 2 -26 1 -14 2 -29 3 -35 5 -23 -2 -57 -15
-73 -2 -4 -6 -11 -9 -16 -7 -14 -6 -14 -73 66 -25 29 -67 79 -94 110 -65 75
-63 60 -17 119 18 23 53 68 78 100 48 63 55 71 60 71 2 0 5 -3 6 -6z m-202
-269 c5 -6 27 -32 49 -58 22 -26 65 -77 96 -113 31 -36 59 -69 63 -73 7 -10 8
-17 1 -26 -2 -3 -6 -10 -9 -15 -2 -5 -7 -13 -11 -19 -13 -21 -21 -35 -24 -43
-4 -12 -54 -63 -68 -70 -72 -37 -66 -35 -98 -35 -28 0 -28 0 -40 7 -7 4 -15 8
-19 10 -4 3 -10 7 -13 10 -3 3 -9 7 -13 8 -10 3 -42 35 -47 48 -3 5 -7 10 -10
12 -3 2 -7 6 -9 10 -4 8 -14 18 -29 28 -7 5 -9 8 -11 15 -5 20 -7 24 -13 32
-15 19 -16 16 20 62 15 20 43 54 60 77 18 23 48 61 66 86 49 64 45 61 59 47z"/>
</g>
</svg>
