<?xml version="1.0" standalone="no"?>
<!DOCTYPE svg PUBLIC "-//W3C//DTD SVG 20010904//EN"
 "http://www.w3.org/TR/2001/REC-SVG-20010904/DTD/svg10.dtd">
<svg version="1.0" xmlns="http://www.w3.org/2000/svg"
 width="94.000000pt" height="148.000000pt" viewBox="0 0 94.000000 148.000000"
 preserveAspectRatio="xMidYMid meet">
<metadata>
Created by potrace 1.16, written by Peter Selinger 2001-2019
</metadata>
<g transform="translate(0.000000,148.000000) scale(0.100000,-0.100000)"
fill="#000000" stroke="none">
<path d="M410 1411 c-40 -22 -240 -223 -240 -242 0 -7 -14 -43 -32 -79 -17
-36 -35 -75 -40 -87 -9 -27 -21 -57 -37 -96 -6 -16 -11 -86 -11 -162 0 -114 3
-140 19 -169 11 -18 23 -56 27 -82 3 -27 15 -61 25 -76 11 -14 19 -29 19 -33
0 -14 61 -134 71 -141 6 -3 13 -14 17 -23 10 -26 115 -117 154 -134 72 -31 90
-37 112 -37 33 0 153 63 193 102 38 36 93 113 93 129 0 6 8 23 18 37 10 15 24
43 31 62 17 47 31 81 42 102 13 25 11 315 -1 323 -5 3 -10 22 -10 41 0 19 -4
42 -9 52 -15 29 -31 87 -31 110 0 12 -4 22 -9 22 -4 0 -23 33 -41 73 -17 39
-46 86 -63 103 -18 17 -52 57 -76 88 -24 31 -47 56 -51 56 -3 0 -31 18 -60 40
-29 22 -58 40 -64 40 -6 -1 -27 -9 -46 -19z m92 -91 c12 -16 27 -30 33 -30 13
0 95 -82 95 -94 0 -5 16 -30 35 -57 19 -27 30 -51 24 -54 -5 -4 -27 -30 -49
-58 -99 -130 -136 -179 -154 -204 l-19 -26 -19 24 c-40 53 -126 155 -175 209
-29 31 -53 64 -53 72 0 32 32 76 112 154 104 102 133 113 170 64z m-286 -303
c26 -39 174 -216 197 -236 23 -18 21 -33 -5 -59 -13 -12 -66 -80 -118 -151
-52 -72 -100 -130 -106 -131 -7 0 -20 35 -29 78 -10 42 -22 81 -27 86 -4 6 -8
75 -8 155 0 130 3 149 20 171 11 14 20 37 20 52 0 15 4 29 10 33 5 3 7 12 3
20 -10 28 22 15 43 -18z m529 1 c4 -18 18 -67 30 -108 31 -100 38 -144 39
-280 2 -118 -14 -190 -41 -190 -7 0 -13 3 -13 8 0 8 -99 128 -192 234 -32 36
-58 70 -58 77 0 6 27 45 61 87 95 117 139 177 139 191 0 28 29 11 35 -19z
m-225 -365 c25 -31 63 -77 85 -102 106 -121 145 -171 145 -183 0 -8 -14 -35
-30 -61 -16 -26 -30 -51 -30 -55 0 -16 -79 -84 -125 -108 -59 -30 -103 -30
-152 -3 -50 28 -92 62 -92 74 -1 6 -19 29 -41 50 -22 21 -40 46 -40 54 0 8 -8
23 -17 33 -15 17 -15 21 13 57 16 21 71 94 122 161 50 67 92 126 92 131 0 23
29 4 70 -48z"/>
</g>
</svg>
