<?xml version="1.0" standalone="no"?>
<!DOCTYPE svg PUBLIC "-//W3C//DTD SVG 20010904//EN"
 "http://www.w3.org/TR/2001/REC-SVG-20010904/DTD/svg10.dtd">
<svg version="1.0" xmlns="http://www.w3.org/2000/svg"
 width="64.000000pt" height="100.000000pt" viewBox="0 0 64.000000 100.000000"
 preserveAspectRatio="xMidYMid meet">
<metadata>
Created by potrace 1.16, written by Peter Selinger 2001-2019
</metadata>
<g transform="translate(0.000000,100.000000) scale(0.100000,-0.100000)"
fill="#000000" stroke="none">
<path d="M284 957 c-91 -53 -165 -148 -220 -281 -29 -69 -34 -93 -34 -162 0
-182 117 -410 235 -460 50 -21 94 -17 153 12 60 30 95 75 148 189 32 70 34 80
34 183 0 121 -18 200 -70 303 -36 71 -113 161 -170 199 -51 34 -48 33 -76 17z
m98 -109 c62 -62 87 -103 73 -122 -84 -113 -128 -166 -138 -166 -7 0 -18 9
-24 19 -7 11 -40 51 -73 90 -33 38 -60 77 -60 86 0 25 122 145 147 145 13 0
44 -22 75 -52z m-194 -220 c27 -35 59 -72 71 -82 30 -27 27 -39 -25 -102 -25
-31 -56 -74 -70 -95 -13 -21 -29 -39 -34 -39 -31 0 -58 251 -33 315 6 17 14
38 17 48 9 28 22 20 74 -45z m339 -29 c15 -57 22 -115 22 -181 1 -94 -4 -114
-25 -100 -20 13 -164 186 -164 197 0 6 18 32 39 58 22 26 50 64 62 83 11 19
26 33 33 31 6 -2 21 -41 33 -88z m-114 -234 c48 -58 87 -110 87 -117 0 -29
-55 -102 -98 -129 -54 -34 -83 -36 -126 -9 -42 26 -116 114 -116 138 0 11 19
44 43 74 24 29 58 74 77 101 18 26 36 47 40 47 4 0 46 -47 93 -105z"/>
</g>
</svg>
