<?xml version="1.0" standalone="no"?>
<!DOCTYPE svg PUBLIC "-//W3C//DTD SVG 20010904//EN"
 "http://www.w3.org/TR/2001/REC-SVG-20010904/DTD/svg10.dtd">
<svg version="1.0" xmlns="http://www.w3.org/2000/svg"
 width="99.000000pt" height="100.000000pt" viewBox="0 0 99.000000 100.000000"
 preserveAspectRatio="xMidYMid meet">
<metadata>
Created by potrace 1.16, written by Peter Selinger 2001-2019
</metadata>
<g transform="translate(0.000000,100.000000) scale(0.100000,-0.100000)"
fill="#000000" stroke="none">
<path d="M285 951 c-71 -43 -185 -197 -222 -299 -30 -82 -39 -184 -23 -253 22
-93 87 -207 166 -286 96 -98 108 -98 213 2 43 41 81 75 84 75 4 0 19 -18 33
-40 34 -51 113 -110 147 -110 36 0 186 147 220 215 59 119 62 265 8 403 -58
147 -162 272 -227 272 -17 0 -48 -23 -101 -75 -42 -41 -79 -75 -83 -75 -4 0
-11 10 -17 23 -18 39 -93 128 -126 148 -39 23 -35 23 -72 0z m86 -88 c62 -67
99 -117 99 -135 0 -8 -15 -44 -32 -78 -29 -56 -33 -74 -36 -159 -3 -88 -1
-102 27 -171 17 -41 31 -80 31 -86 0 -7 -32 -40 -70 -74 -64 -57 -73 -62 -95
-52 -33 15 -136 147 -171 219 -26 52 -29 68 -28 158 0 88 4 108 29 165 16 36
41 84 57 106 32 49 127 154 138 154 4 0 27 -21 51 -47z m357 -18 c44 -37 96
-120 131 -209 27 -67 31 -89 31 -175 0 -93 -2 -102 -36 -169 -26 -53 -53 -87
-102 -132 -37 -33 -74 -60 -84 -60 -20 0 -118 107 -118 130 0 8 11 32 25 52
33 49 49 127 42 213 -6 74 -23 124 -63 185 -20 31 -23 42 -15 58 14 27 131
132 147 132 7 0 26 -11 42 -25z m-193 -233 c13 -27 20 -66 22 -142 4 -90 1
-110 -15 -140 -39 -71 -62 -48 -84 81 -8 54 -8 86 1 135 22 122 40 138 76 66z"/>
</g>
</svg>
