<?xml version="1.0" standalone="no"?>
<!DOCTYPE svg PUBLIC "-//W3C//DTD SVG 20010904//EN"
 "http://www.w3.org/TR/2001/REC-SVG-20010904/DTD/svg10.dtd">
<svg version="1.0" xmlns="http://www.w3.org/2000/svg"
 width="146.000000pt" height="148.000000pt" viewBox="0 0 146.000000 148.000000"
 preserveAspectRatio="xMidYMid meet">
<metadata>
Created by potrace 1.16, written by Peter Selinger 2001-2019
</metadata>
<g transform="translate(0.000000,148.000000) scale(0.100000,-0.100000)"
fill="#000000" stroke="none">
<path d="M398 1381 c-47 -34 -168 -167 -168 -185 0 -3 -16 -27 -35 -52 -58
-75 -108 -191 -135 -313 -17 -71 -7 -245 16 -298 71 -161 119 -239 212 -345
98 -113 156 -142 217 -109 40 21 143 117 190 175 33 42 56 42 78 0 22 -41 138
-153 182 -175 57 -28 82 -21 149 44 30 28 74 71 99 94 46 43 129 162 148 211
20 51 38 179 39 278 1 91 -2 107 -38 209 -75 212 -148 328 -258 411 -51 39
-77 52 -90 48 -42 -15 -191 -152 -231 -211 -24 -37 -45 -27 -82 37 -48 83
-180 220 -213 220 -13 0 -49 -18 -80 -39z m155 -97 c67 -71 157 -196 157 -219
0 -6 -16 -33 -36 -60 -44 -62 -64 -108 -64 -149 0 -18 -5 -37 -11 -43 -7 -7
-10 -50 -7 -125 3 -88 9 -123 25 -158 12 -25 26 -63 32 -85 6 -22 17 -49 25
-60 9 -11 16 -26 16 -33 0 -14 -133 -152 -182 -188 -18 -13 -42 -24 -54 -24
-24 0 -89 59 -165 150 -42 50 -56 73 -110 167 -31 55 -49 135 -50 233 -2 112
11 199 41 266 70 156 92 191 191 297 55 59 105 107 111 107 5 0 42 -34 81 -76z
m527 -30 c112 -85 230 -329 247 -511 9 -98 -13 -220 -57 -310 -22 -46 -40 -86
-40 -91 0 -23 -220 -212 -247 -212 -16 0 -51 34 -140 135 -52 58 -62 78 -44
90 6 3 29 40 52 81 52 96 67 177 54 314 -3 36 -9 74 -14 85 -37 86 -69 153
-88 178 -41 55 -33 72 82 185 57 56 111 102 119 102 9 0 43 -21 76 -46z m-300
-315 c49 -95 63 -166 57 -289 -3 -64 -10 -127 -15 -140 -14 -36 -77 -104 -89
-97 -14 9 -76 164 -70 174 3 4 1 32 -5 62 -7 41 -6 77 7 150 30 175 72 226
115 140z"/>
</g>
</svg>
