<?xml version="1.0" standalone="no"?>
<!DOCTYPE svg PUBLIC "-//W3C//DTD SVG 20010904//EN"
 "http://www.w3.org/TR/2001/REC-SVG-20010904/DTD/svg10.dtd">
<svg version="1.0" xmlns="http://www.w3.org/2000/svg"
 width="170.000000pt" height="148.000000pt" viewBox="0 0 170.000000 148.000000"
 preserveAspectRatio="xMidYMid meet">
<metadata>
Created by potrace 1.16, written by Peter Selinger 2001-2019
</metadata>
<g transform="translate(0.000000,148.000000) scale(0.100000,-0.100000)"
fill="#000000" stroke="none">
<path d="M399 1377 c-31 -23 -69 -58 -85 -77 -16 -19 -31 -37 -35 -40 -3 -3
-30 -40 -60 -83 -132 -191 -177 -329 -165 -511 3 -54 12 -110 20 -125 7 -14
24 -51 37 -81 38 -89 94 -177 166 -259 62 -70 154 -141 182 -141 30 0 95 47
183 134 56 55 103 93 111 90 7 -2 21 -18 31 -35 30 -51 138 -153 183 -173 56
-25 82 -16 147 47 30 28 75 72 101 97 81 77 165 219 165 278 0 17 5 34 10 37
14 9 13 288 -1 302 -8 8 12 44 76 135 48 67 103 142 121 165 48 59 57 87 36
111 -33 36 -110 92 -128 92 -17 0 -43 -27 -44 -46 0 -6 23 -25 50 -42 52 -32
61 -51 35 -72 -12 -10 -23 -5 -64 24 l-49 36 -16 -25 c-20 -31 -16 -40 35 -65
25 -13 39 -27 39 -40 0 -33 -21 -33 -68 0 -34 24 -50 30 -61 23 -23 -15 -26
-50 -4 -57 10 -3 31 -17 47 -29 l30 -24 -30 -41 c-16 -23 -33 -40 -37 -39 -5
1 -25 43 -46 92 -21 50 -50 108 -64 130 -15 22 -38 57 -52 77 -14 20 -35 42
-47 49 -12 6 -33 23 -47 36 -14 13 -38 31 -52 38 -24 13 -30 12 -75 -16 -27
-17 -90 -73 -141 -126 l-91 -95 -18 29 c-87 143 -198 263 -243 263 -15 0 -50
-18 -82 -43z m158 -89 c75 -76 167 -213 156 -232 -4 -6 -19 -29 -33 -51 -41
-60 -70 -125 -70 -156 0 -15 -5 -31 -10 -34 -6 -3 -10 -46 -9 -95 1 -88 13
-150 42 -206 8 -16 17 -44 20 -62 4 -19 16 -47 28 -63 25 -36 19 -61 -24 -89
-18 -11 -45 -37 -61 -58 -37 -46 -110 -102 -134 -102 -60 0 -239 214 -302 360
-18 43 -24 79 -28 167 -5 134 9 226 48 308 15 33 35 76 44 96 30 64 225 289
251 289 6 0 43 -33 82 -72z m526 -30 c99 -73 203 -261 247 -447 14 -59 7 -231
-12 -291 -29 -92 -94 -202 -149 -253 -78 -73 -161 -137 -179 -137 -19 0 -179
169 -187 198 -3 15 1 31 14 45 66 73 95 173 95 322 -1 119 -26 199 -96 304
-20 29 -36 59 -36 66 0 7 13 29 29 49 37 47 191 186 206 186 6 0 37 -19 68
-42z m-299 -316 c13 -22 30 -59 36 -83 7 -24 17 -54 23 -66 14 -31 3 -240 -16
-284 -8 -19 -24 -44 -36 -57 -21 -21 -23 -22 -45 -5 -70 53 -110 240 -76 358
4 17 13 52 19 78 13 55 37 97 57 97 8 0 25 -17 38 -38z"/>
</g>
</svg>
