<?xml version="1.0" standalone="no"?>
<!DOCTYPE svg PUBLIC "-//W3C//DTD SVG 20010904//EN"
 "http://www.w3.org/TR/2001/REC-SVG-20010904/DTD/svg10.dtd">
<svg version="1.0" xmlns="http://www.w3.org/2000/svg"
 width="100.000000pt" height="87.000000pt" viewBox="0 0 100.000000 87.000000"
 preserveAspectRatio="xMidYMid meet">
<metadata>
Created by potrace 1.16, written by Peter Selinger 2001-2019
</metadata>
<g transform="translate(0.000000,87.000000) scale(0.100000,-0.100000)"
fill="#000000" stroke="none">
<path d="M233 819 c-42 -27 -124 -136 -166 -219 -30 -61 -32 -71 -32 -175 0
-109 0 -111 39 -184 43 -79 122 -173 166 -196 24 -12 31 -12 69 7 23 11 59 40
80 64 21 24 42 44 45 44 4 0 30 -24 57 -54 53 -58 91 -78 126 -65 42 15 152
135 181 195 24 52 27 72 29 172 l3 112 65 87 c36 47 65 96 65 109 0 28 -55 76
-83 72 -31 -5 -31 -23 -1 -52 33 -30 28 -42 -10 -25 -21 10 -29 10 -39 0 -9
-10 -7 -17 12 -32 29 -24 20 -36 -14 -21 -14 7 -28 12 -30 12 -12 0 -4 -39 10
-50 20 -17 20 -52 -1 -48 -8 2 -26 29 -39 61 -29 72 -65 120 -116 154 -51 34
-72 27 -144 -47 -33 -33 -63 -60 -67 -60 -4 0 -14 13 -22 28 -23 45 -110 132
-132 132 -10 0 -34 -10 -51 -21z m117 -101 c33 -40 60 -78 60 -84 0 -7 -13
-38 -30 -69 -27 -51 -30 -67 -30 -146 0 -73 4 -99 25 -145 14 -31 25 -62 25
-68 0 -6 -27 -35 -60 -64 -45 -40 -65 -52 -80 -47 -27 9 -114 117 -146 182
-53 107 -39 246 36 361 42 65 117 152 131 152 5 0 36 -33 69 -72z m310 -14
c23 -25 58 -80 78 -122 35 -72 37 -83 37 -172 0 -123 -22 -175 -110 -259 -35
-34 -69 -61 -76 -61 -17 0 -109 90 -109 107 0 8 11 30 25 51 34 51 49 137 36
207 -10 55 -42 128 -61 140 -5 3 -10 16 -10 28 0 25 105 127 131 127 9 0 35
-21 59 -46z m-188 -190 c31 -90 18 -244 -21 -244 -40 0 -67 110 -50 204 20
110 42 123 71 40z"/>
</g>
</svg>
