<?xml version="1.0" standalone="no"?>
<!DOCTYPE svg PUBLIC "-//W3C//DTD SVG 20010904//EN"
 "http://www.w3.org/TR/2001/REC-SVG-20010904/DTD/svg10.dtd">
<svg version="1.0" xmlns="http://www.w3.org/2000/svg"
 width="678.000000pt" height="590.000000pt" viewBox="0 0 678.000000 590.000000"
 preserveAspectRatio="xMidYMid meet">
<metadata>
Created by potrace 1.16, written by Peter Selinger 2001-2019
</metadata>
<g transform="translate(0.000000,590.000000) scale(0.500000,-0.500000)"
fill="#000000" stroke="none">
<path d="M365 1135 c-4 -2 -16 -10 -26 -17 -17 -12 -22 -15 -56 -41 -8 -6 -17
-15 -20 -19 -3 -4 -6 -8 -7 -9 -1 -1 -6 -7 -10 -14 -5 -6 -15 -18 -22 -26 -8
-8 -14 -16 -14 -17 0 0 -4 -6 -9 -12 -5 -6 -12 -15 -14 -21 -3 -5 -9 -14 -13
-19 -4 -5 -12 -16 -18 -25 -6 -9 -12 -18 -14 -20 -14 -16 -29 -43 -36 -65 -3
-11 -7 -19 -13 -25 -8 -11 -15 -25 -15 -32 0 -5 -5 -22 -17 -57 -5 -14 -9 -29
-9 -33 0 -3 -1 -11 -3 -17 -2 -6 -3 -14 -3 -18 0 -4 -1 -11 -3 -16 -4 -12 -4
-98 0 -113 6 -23 9 -38 9 -54 0 -16 0 -17 6 -23 6 -8 14 -28 14 -36 0 -6 6
-20 13 -29 6 -9 13 -21 18 -38 3 -8 9 -20 14 -27 4 -7 12 -22 17 -32 9 -19 24
-42 33 -52 2 -3 7 -9 11 -15 4 -5 13 -16 20 -23 8 -8 16 -18 19 -22 3 -5 16
-19 29 -32 12 -13 24 -26 26 -30 2 -3 8 -9 13 -12 25 -15 39 -24 47 -30 23
-19 45 -19 76 0 7 4 16 9 20 10 6 2 16 10 45 39 21 21 40 38 43 40 6 3 28 26
28 29 0 5 40 44 47 45 12 2 26 -9 37 -31 5 -9 14 -20 29 -35 12 -13 31 -32 42
-44 57 -61 118 -82 153 -52 4 3 13 9 19 13 8 4 14 10 21 20 12 17 52 53 66 60
6 3 13 8 15 12 3 4 9 11 14 16 5 5 10 12 13 16 3 4 9 12 14 17 16 18 41 55 52
76 5 9 10 19 13 22 12 16 26 60 27 84 1 16 2 20 7 27 4 6 6 11 6 22 1 8 3 21
4 28 7 26 2 172 -5 183 -10 15 -10 18 -7 26 4 6 86 121 151 211 43 59 42 57
43 78 2 19 -1 24 -19 38 -7 5 -26 19 -42 31 -54 40 -54 40 -74 11 -16 -23 -15
-27 23 -53 46 -33 47 -34 37 -49 -10 -14 -12 -14 -50 11 -42 28 -43 28 -58 3
-15 -24 -15 -25 26 -50 34 -21 37 -24 31 -35 -8 -18 -13 -17 -52 10 -41 29
-41 29 -58 3 -13 -20 -12 -23 11 -38 58 -40 57 -36 31 -71 -26 -35 -28 -35
-36 -13 -3 7 -7 18 -9 23 -3 6 -6 15 -9 21 -2 6 -6 13 -7 16 -3 5 -22 50 -22
53 0 1 -5 9 -11 18 -6 9 -13 21 -16 27 -3 6 -10 16 -15 22 -9 11 -18 23 -35
50 -13 20 -18 25 -32 32 -6 4 -16 11 -23 17 -6 5 -16 13 -21 17 -45 33 -48 34
-58 30 -3 -1 -10 -3 -16 -4 -6 -1 -12 -4 -16 -8 -7 -7 -23 -18 -36 -25 -5 -3
-12 -9 -15 -14 -3 -5 -10 -11 -15 -14 -9 -5 -30 -26 -36 -36 -2 -3 -7 -9 -12
-13 -5 -3 -15 -14 -23 -23 -48 -59 -55 -61 -74 -23 -15 29 -48 76 -70 99 -13
14 -24 26 -24 27 0 5 -44 47 -59 57 -28 19 -41 21 -56 12z m35 -59 c4 -6 27
-30 51 -53 23 -24 46 -48 51 -54 4 -7 12 -18 17 -26 6 -8 14 -21 19 -30 5 -9
10 -19 13 -22 9 -12 17 -32 17 -43 0 -3 -8 -17 -22 -38 -21 -31 -39 -62 -44
-79 -1 -4 -5 -12 -7 -18 -4 -8 -5 -13 -5 -27 0 -14 -2 -23 -6 -26 -8 -6 -8 -8
-8 -86 0 -62 1 -77 3 -84 2 -5 3 -11 3 -14 0 -9 10 -36 23 -62 9 -18 13 -29
13 -34 0 -4 2 -12 4 -19 2 -6 4 -13 4 -15 0 -4 12 -28 23 -46 13 -20 2 -40
-33 -63 -7 -4 -15 -11 -18 -16 -12 -16 -57 -63 -67 -69 -5 -4 -13 -10 -18 -14
-40 -34 -79 -21 -125 40 -6 8 -21 25 -33 38 -15 16 -24 26 -27 32 -2 5 -6 11
-9 13 -6 5 -21 24 -27 37 -2 5 -12 20 -22 35 -15 22 -30 51 -36 69 -1 3 -4 10
-6 15 -4 10 -11 31 -14 49 -1 4 -3 10 -4 13 -5 8 -5 147 0 163 2 7 4 17 4 23
0 6 1 14 3 18 2 4 3 10 3 13 0 15 10 44 25 73 8 17 15 32 15 33 0 2 4 12 9 22
5 10 11 22 12 27 2 4 5 10 8 14 2 3 8 13 12 21 10 19 18 31 33 46 7 6 17 17
22 24 19 25 35 43 74 83 53 54 56 55 70 37z m429 -44 c4 -3 12 -8 17 -13 6 -5
19 -15 29 -22 18 -11 49 -40 49 -45 0 -1 4 -6 8 -11 4 -5 12 -17 17 -27 5 -10
13 -22 17 -27 5 -5 9 -12 11 -17 2 -4 5 -12 9 -17 7 -10 15 -26 18 -36 1 -4 4
-10 6 -13 2 -2 6 -11 8 -19 11 -35 13 -42 29 -77 8 -18 9 -21 9 -35 0 -12 1
-18 6 -29 7 -17 9 -106 3 -127 -2 -6 -3 -18 -3 -36 0 -18 -1 -29 -3 -35 -4
-11 -8 -29 -11 -43 -2 -10 -21 -49 -30 -63 -4 -4 -8 -13 -10 -19 -13 -37 -27
-59 -58 -89 -46 -45 -48 -47 -61 -55 -7 -3 -15 -10 -19 -13 -4 -4 -11 -10 -15
-13 -5 -4 -14 -11 -20 -16 -31 -27 -41 -30 -59 -18 -14 10 -47 42 -52 51 -6
12 -28 36 -38 42 -5 4 -12 10 -14 14 -3 4 -8 11 -12 16 -20 22 -21 38 -5 53 5
4 14 19 26 42 10 21 21 40 24 43 13 15 21 48 21 83 0 23 0 26 7 44 7 21 9 41
5 50 -2 2 -3 17 -4 34 -1 18 -3 32 -4 35 -2 3 -3 12 -4 21 -1 10 -3 20 -6 24
-2 5 -5 14 -7 21 -3 15 -47 103 -56 112 -32 35 -33 57 -3 93 22 28 108 111
118 115 5 2 12 7 16 11 16 15 26 18 41 11z m-217 -256 c4 -3 8 -9 10 -14 3 -5
9 -17 15 -26 6 -9 12 -21 13 -26 1 -5 4 -16 7 -25 3 -9 6 -21 7 -28 1 -8 3
-15 7 -20 6 -8 8 -145 3 -158 -1 -3 -3 -15 -3 -27 -2 -38 -11 -58 -39 -86
l-14 -15 -10 5 c-12 7 -25 18 -31 30 -3 5 -13 20 -21 33 l-16 24 0 24 c0 19
-1 27 -4 37 -2 7 -4 16 -4 20 0 4 -1 11 -3 15 -4 8 -4 38 -1 46 2 3 3 15 4 25
1 15 3 22 8 33 5 12 6 17 6 30 0 11 2 19 6 32 3 10 6 22 7 26 1 4 3 10 6 14 2
3 7 10 9 15 12 23 22 28 38 16z"/>
</g>
</svg>
