<?xml version="1.0" standalone="no"?>
<!DOCTYPE svg PUBLIC "-//W3C//DTD SVG 20010904//EN"
 "http://www.w3.org/TR/2001/REC-SVG-20010904/DTD/svg10.dtd">
<svg version="1.0" xmlns="http://www.w3.org/2000/svg"
 width="586.000000pt" height="590.000000pt" viewBox="0 0 586.000000 590.000000"
 preserveAspectRatio="xMidYMid meet">
<metadata>
Created by potrace 1.16, written by Peter Selinger 2001-2019
</metadata>
<g transform="translate(0.000000,590.000000) scale(0.500000,-0.500000)"
fill="#000000" stroke="none">
<path d="M1075 1140 c-13 -3 -13 -2 -13 -71 0 -78 -1 -75 28 -75 29 0 30 2 32
42 6 103 1 114 -47 104z"/>
<path d="M43 1135 c-5 -5 -5 -5 -5 -69 1 -75 0 -71 24 -72 28 -1 34 5 34 31 0
9 2 19 4 28 6 18 2 77 -6 83 -8 7 -44 6 -51 -1z"/>
<path d="M365 1135 c-10 -5 -40 -26 -48 -32 -10 -8 -23 -18 -35 -27 -7 -4 -15
-12 -18 -18 -4 -5 -10 -12 -13 -17 -4 -4 -7 -8 -7 -9 0 -1 -7 -9 -14 -18 -18
-18 -32 -37 -43 -56 -4 -7 -9 -15 -12 -18 -4 -4 -19 -25 -47 -66 -6 -10 -13
-22 -15 -27 -10 -29 -13 -35 -21 -45 -7 -11 -14 -26 -14 -34 0 -2 -5 -20 -12
-40 -7 -21 -12 -40 -12 -43 0 -3 -1 -10 -2 -14 -1 -4 -3 -14 -4 -21 -1 -7 -3
-18 -5 -24 -4 -15 -4 -89 0 -103 6 -22 9 -39 9 -55 0 -16 1 -18 5 -24 6 -7 12
-21 15 -35 2 -11 5 -19 19 -42 4 -6 9 -18 12 -27 3 -8 9 -19 13 -25 3 -5 12
-21 19 -35 13 -24 20 -36 34 -53 3 -4 8 -10 9 -13 1 -3 11 -14 21 -24 11 -11
19 -21 19 -22 0 -1 11 -13 24 -27 13 -13 26 -28 30 -33 4 -7 10 -12 19 -17 17
-9 30 -18 41 -28 21 -17 44 -18 68 -3 9 6 21 12 26 13 7 2 15 9 45 39 20 20
39 38 43 40 11 7 21 18 31 32 34 52 60 55 83 12 4 -8 11 -18 19 -25 6 -7 26
-27 43 -45 65 -69 124 -93 157 -64 4 3 13 10 20 14 9 6 16 13 24 23 12 16 56
56 67 61 7 4 23 20 38 41 5 7 12 16 17 21 15 17 41 54 49 71 3 7 9 18 14 24
13 20 26 62 27 85 1 16 2 20 6 27 4 6 6 12 7 27 1 10 3 24 4 29 1 6 2 45 2 88
l0 77 -9 17 c-5 9 -9 19 -9 21 0 5 -8 31 -16 49 -2 6 -7 21 -11 34 -4 13 -10
28 -12 33 -2 5 -6 13 -7 17 -1 4 -4 10 -6 13 -3 5 -9 19 -19 44 -3 7 -11 21
-17 31 -7 10 -14 21 -16 26 -3 4 -9 13 -15 20 -6 7 -18 24 -28 38 -21 32 -25
36 -40 43 -6 4 -16 11 -23 17 -6 5 -16 13 -21 17 -5 4 -14 11 -21 15 -20 15
-26 18 -37 14 -6 -1 -13 -3 -17 -4 -5 -1 -12 -4 -17 -9 -6 -5 -17 -13 -26 -19
-9 -6 -19 -14 -22 -18 -3 -4 -11 -12 -19 -17 -13 -9 -27 -24 -32 -33 -1 -3 -7
-9 -13 -13 -6 -5 -18 -17 -27 -29 -40 -52 -51 -55 -68 -19 -13 27 -46 75 -67
96 -11 12 -24 26 -29 33 -32 48 -89 82 -113 68z m33 -57 c3 -5 24 -28 47 -50
24 -23 46 -45 49 -50 12 -14 37 -53 44 -66 3 -7 10 -18 15 -25 20 -30 20 -37
-8 -78 -22 -33 -36 -58 -42 -77 -2 -6 -5 -14 -7 -17 -2 -4 -3 -14 -4 -28 -1
-19 -2 -24 -5 -27 -9 -10 -9 -12 -9 -62 1 -46 1 -48 -3 -51 -5 -4 -1 -5 -88
33 -71 32 -148 66 -214 93 -42 18 -51 22 -52 28 -3 11 5 35 22 69 9 18 17 34
17 35 0 2 4 10 8 19 5 10 10 20 11 25 2 4 6 12 10 18 3 5 9 16 13 23 7 14 20
32 26 36 4 4 24 25 36 41 68 87 120 130 134 111z m429 -46 c5 -2 15 -9 22 -15
7 -7 19 -16 26 -21 15 -9 42 -34 49 -46 2 -4 6 -9 8 -11 3 -2 9 -13 14 -23 5
-10 13 -23 18 -29 4 -5 9 -13 11 -18 1 -4 5 -12 8 -16 3 -4 8 -15 12 -23 4 -8
10 -20 13 -27 3 -7 7 -17 9 -23 7 -26 16 -49 29 -75 7 -13 8 -19 9 -33 1 -13
3 -20 8 -30 6 -13 6 -13 7 -56 1 -60 5 -58 -58 -28 -73 35 -113 53 -167 78
-90 41 -110 49 -122 54 -12 5 -12 5 -37 55 -14 28 -28 54 -32 59 -31 37 -31
55 -4 88 24 29 109 112 119 117 6 2 12 7 14 9 14 16 30 21 44 14z m-222 -251
c9 -5 17 -13 19 -21 2 -4 8 -15 14 -25 7 -9 12 -20 13 -24 1 -3 4 -15 8 -26 4
-11 7 -24 8 -29 0 -5 3 -13 6 -17 9 -15 9 -43 -1 -45 -5 0 -42 16 -102 44 -30
14 -34 27 -21 68 4 10 7 22 8 26 1 4 3 10 6 13 2 3 7 12 11 19 10 19 18 23 31
17z m-472 -153 c10 -4 35 -15 55 -25 66 -30 187 -83 262 -114 31 -13 31 -13
39 -35 3 -10 11 -29 18 -42 8 -17 11 -26 11 -32 0 -4 1 -11 3 -15 1 -3 3 -10
4 -15 2 -10 12 -33 20 -43 18 -24 11 -44 -27 -68 -11 -6 -26 -21 -26 -25 0 -4
-51 -55 -62 -63 -6 -4 -15 -11 -20 -15 -32 -26 -39 -26 -71 -4 -24 15 -43 33
-52 47 -3 4 -17 19 -30 33 -16 17 -26 29 -29 34 -2 5 -8 14 -14 20 -6 6 -14
17 -18 24 -4 7 -15 25 -26 41 -17 26 -29 49 -38 74 -2 6 -5 13 -7 16 -3 6 -5
14 -12 43 -1 6 -4 14 -5 17 -3 9 -6 144 -2 151 3 6 6 5 27 -4z m645 -25 c56
-27 154 -73 215 -100 74 -34 74 -34 66 -61 -7 -23 -11 -38 -11 -41 0 -4 -22
-48 -31 -62 -4 -6 -8 -14 -9 -18 -10 -31 -30 -61 -57 -88 -42 -41 -50 -48 -64
-57 -8 -4 -17 -11 -20 -14 -3 -4 -11 -10 -17 -14 -6 -4 -14 -10 -17 -14 -33
-35 -83 -19 -111 35 -6 13 -23 31 -34 39 -6 4 -14 11 -17 17 -4 5 -9 12 -13
16 -17 18 -19 37 -5 50 6 6 13 18 26 43 10 19 21 40 26 47 12 18 19 47 19 82
0 24 1 28 6 45 7 21 7 32 1 54 -4 16 -4 55 1 58 4 3 6 2 46 -17z m-228 -16
c127 -53 140 -65 125 -109 -2 -5 -3 -15 -3 -24 0 -16 -6 -40 -13 -54 -10 -18
-39 -49 -46 -47 -14 3 -29 18 -48 48 -5 9 -12 19 -15 24 -13 18 -13 19 -14 45
0 14 -1 28 -3 32 -1 4 -3 12 -4 19 -1 7 -3 15 -4 18 -4 8 -4 40 -1 46 5 9 9 9
26 2z"/>
<path d="M1069 199 c-9 -6 -11 -126 -2 -136 7 -9 37 -9 47 -1 10 8 13 127 4
136 -5 5 -43 6 -49 1z"/>
<path d="M43 189 c-5 -5 -5 -5 -5 -67 0 -73 0 -72 22 -74 29 -2 36 4 36 28 0
11 1 22 4 30 3 13 2 69 -3 80 -4 10 -45 12 -54 3z"/>
</g>
</svg>
