<?xml version="1.0" standalone="no"?>
<!DOCTYPE svg PUBLIC "-//W3C//DTD SVG 20010904//EN"
 "http://www.w3.org/TR/2001/REC-SVG-20010904/DTD/svg10.dtd">
<svg version="1.0" xmlns="http://www.w3.org/2000/svg"
 width="99.000000pt" height="100.000000pt" viewBox="0 0 99.000000 100.000000"
 preserveAspectRatio="xMidYMid meet">
<metadata>
Created by potrace 1.16, written by Peter Selinger 2001-2019
</metadata>
<g transform="translate(0.000000,100.000000) scale(0.100000,-0.100000)"
fill="#000000" stroke="none">
<path d="M29 943 c-11 -29 -6 -90 9 -105 5 -5 16 -6 25 -2 20 7 34 90 20 113
-17 27 -42 25 -54 -6z"/>
<path d="M274 942 c-50 -37 -88 -80 -148 -171 -78 -117 -112 -263 -86 -372 21
-92 86 -204 165 -285 97 -100 108 -100 214 1 43 41 81 75 84 75 2 0 22 -23 43
-50 46 -61 100 -100 137 -100 37 0 184 145 220 216 29 57 47 148 47 235 0 118
-111 343 -202 409 -62 46 -79 41 -165 -45 -42 -41 -79 -75 -83 -75 -4 0 -11
10 -17 23 -28 60 -132 167 -164 167 -3 0 -24 -13 -45 -28z m97 -79 c62 -67 99
-117 99 -135 0 -9 -14 -42 -30 -73 -21 -40 -30 -71 -30 -105 0 -88 -11 -95
-88 -56 -26 13 -84 38 -130 56 -45 18 -85 37 -88 41 -11 18 87 186 147 252 33
37 64 67 68 67 5 0 28 -21 52 -47z m368 -28 c88 -80 208 -392 144 -372 -10 3
-76 32 -148 65 -108 50 -133 66 -149 94 -10 18 -27 46 -38 61 -11 16 -17 36
-13 47 8 24 133 140 151 140 8 0 32 -16 53 -35z m-199 -231 c31 -72 35 -94 16
-94 -24 0 -96 39 -96 52 0 6 5 28 12 49 16 55 43 52 68 -7z m-295 -136 c66
-30 129 -59 140 -65 20 -11 75 -134 75 -166 0 -8 -31 -43 -70 -77 -53 -47 -74
-60 -90 -55 -29 9 -132 134 -171 208 -27 50 -33 76 -37 141 -6 93 -21 92 153
14z m476 8 c52 -24 111 -51 132 -60 46 -19 47 -32 3 -122 -25 -53 -50 -85
-102 -132 -38 -34 -76 -62 -86 -62 -19 0 -118 107 -118 127 0 7 14 38 32 69
27 49 31 67 33 138 1 44 3 82 4 84 2 4 9 1 102 -42z m-211 -2 c52 -21 61 -39
49 -93 -26 -116 -70 -105 -104 26 -24 92 -20 97 55 67z"/>
<path d="M897 964 c-14 -14 -8 -111 8 -124 28 -23 46 6 43 69 -3 48 -6 56 -23
59 -12 2 -24 0 -28 -4z"/>
<path d="M906 164 c-12 -12 -16 -30 -14 -68 3 -47 5 -51 28 -51 24 0 25 2 25
64 0 68 -11 84 -39 55z"/>
<path d="M35 160 c-12 -19 -10 -109 2 -121 7 -7 18 -9 27 -6 18 7 33 94 19
116 -13 20 -39 26 -48 11z"/>
</g>
</svg>
