<?xml version="1.0" standalone="no"?>
<!DOCTYPE svg PUBLIC "-//W3C//DTD SVG 20010904//EN"
 "http://www.w3.org/TR/2001/REC-SVG-20010904/DTD/svg10.dtd">
<svg version="1.0" xmlns="http://www.w3.org/2000/svg"
 width="146.000000pt" height="148.000000pt" viewBox="0 0 146.000000 148.000000"
 preserveAspectRatio="xMidYMid meet">
<metadata>
Created by potrace 1.16, written by Peter Selinger 2001-2019
</metadata>
<g transform="translate(0.000000,148.000000) scale(0.100000,-0.100000)"
fill="#000000" stroke="none">
<path d="M72 1421 c-22 -6 -24 -11 -24 -84 -1 -89 8 -107 47 -89 25 12 26 14
23 94 -2 45 -7 82 -13 84 -5 1 -20 -1 -33 -5z"/>
<path d="M1330 1421 c-22 -13 -16 -167 7 -175 39 -15 51 2 58 80 4 42 4 79 -1
84 -16 14 -49 20 -64 11z"/>
<path d="M398 1381 c-48 -35 -168 -167 -168 -185 0 -4 -18 -30 -39 -59 -53
-70 -94 -164 -121 -272 -19 -76 -22 -106 -16 -192 6 -106 10 -120 79 -258 48
-97 62 -118 148 -218 106 -123 160 -152 226 -117 35 18 141 118 195 183 26 32
51 29 71 -9 22 -41 138 -153 182 -175 57 -28 82 -21 149 44 29 28 75 72 100
96 91 87 151 196 171 310 17 97 22 286 7 304 -5 6 -19 42 -30 80 -57 183 -150
332 -259 414 l-73 55 -44 -26 c-45 -26 -174 -149 -203 -192 -24 -38 -45 -29
-82 36 -48 83 -180 220 -213 220 -13 0 -49 -18 -80 -39z m155 -97 c68 -71 157
-196 157 -220 0 -5 -12 -26 -26 -45 -36 -47 -74 -134 -74 -169 0 -16 -4 -31
-10 -35 -5 -3 -7 -32 -3 -69 3 -35 2 -66 -3 -69 -5 -3 -39 8 -74 25 -75 35
-140 64 -190 85 -19 8 -44 19 -55 24 -11 4 -46 20 -79 34 -70 30 -70 25 9 188
48 98 68 126 156 220 55 59 105 107 111 107 5 0 42 -34 81 -76z m527 -30 c43
-32 72 -66 102 -117 46 -77 88 -163 88 -178 0 -5 9 -28 19 -52 11 -23 22 -58
26 -77 9 -46 18 -170 12 -170 -2 0 -78 35 -168 78 -90 43 -189 90 -221 103
-48 20 -60 31 -78 69 -12 25 -35 66 -51 91 -46 72 -42 81 76 197 57 56 111
102 119 102 9 0 43 -21 76 -46z m-298 -316 c14 -24 30 -63 38 -88 7 -25 17
-49 22 -54 12 -14 10 -54 -3 -58 -5 -2 -46 14 -91 35 l-80 39 5 37 c2 21 14
59 25 84 27 61 51 62 84 5z m-531 -192 c63 -29 165 -75 227 -101 l114 -48 23
-53 c13 -28 26 -67 30 -85 4 -19 16 -48 26 -65 10 -17 19 -37 19 -43 0 -13
-136 -153 -182 -187 -18 -13 -40 -24 -50 -24 -56 0 -221 194 -291 343 -42 89
-65 317 -32 317 2 0 54 -24 116 -54z m761 -13 c51 -25 140 -68 198 -94 l105
-47 -2 -38 c-4 -52 -79 -210 -122 -258 -51 -55 -190 -166 -208 -166 -9 0 -32
17 -52 38 -78 81 -141 154 -141 162 0 5 11 26 25 46 14 21 39 66 56 100 29 59
31 69 31 183 0 67 4 121 8 121 5 0 50 -21 102 -47z m-257 -33 l87 -40 -7 -73
c-8 -77 -21 -111 -54 -141 -21 -19 -21 -19 -42 0 -32 29 -79 116 -79 147 0 16
-5 48 -11 72 -11 45 -7 75 10 75 5 0 48 -18 96 -40z"/>
<path d="M1327 243 c-4 -3 -7 -44 -7 -90 l0 -84 33 3 c32 3 32 3 41 75 5 39 6
79 3 87 -6 16 -57 22 -70 9z"/>
<path d="M48 233 c-2 -4 -2 -45 0 -90 4 -87 14 -103 53 -82 18 9 19 19 17 92
l-3 82 -32 3 c-17 2 -33 -1 -35 -5z"/>
</g>
</svg>
