<?xml version="1.0" standalone="no"?>
<!DOCTYPE svg PUBLIC "-//W3C//DTD SVG 20010904//EN"
 "http://www.w3.org/TR/2001/REC-SVG-20010904/DTD/svg10.dtd">
<svg version="1.0" xmlns="http://www.w3.org/2000/svg"
 width="100.000000pt" height="72.000000pt" viewBox="0 0 100.000000 72.000000"
 preserveAspectRatio="xMidYMid meet">
<metadata>
Created by potrace 1.16, written by Peter Selinger 2001-2019
</metadata>
<g transform="translate(0.000000,72.000000) scale(0.100000,-0.100000)"
fill="#000000" stroke="none">
<path d="M291 642 c-26 -27 -62 -80 -81 -118 -33 -65 -35 -75 -35 -169 0 -88
3 -107 27 -158 15 -31 50 -82 79 -112 69 -73 91 -73 164 -4 l55 52 48 -52 c68
-72 96 -71 170 5 76 78 96 128 97 239 0 123 -37 228 -106 297 -63 63 -85 63
-153 -2 l-52 -49 -53 59 c-68 78 -93 80 -160 12z m139 -53 c22 -28 40 -56 40
-62 0 -7 -11 -39 -25 -72 -32 -79 -32 -138 2 -222 l27 -67 -49 -43 c-27 -24
-55 -43 -61 -43 -20 0 -101 98 -130 156 -23 48 -26 63 -22 127 5 79 27 133 86
207 68 86 77 88 132 19z m277 -42 c78 -115 93 -229 44 -333 -26 -56 -101 -134
-128 -134 -5 0 -26 18 -48 40 l-38 39 28 62 c24 54 27 71 23 130 -4 49 -13 80
-33 114 -24 42 -26 50 -14 72 7 13 31 37 53 54 35 25 42 27 60 16 12 -8 35
-35 53 -60z m-178 -124 c15 -54 14 -165 -2 -187 -13 -17 -15 -17 -36 10 -21
26 -23 37 -19 109 2 45 8 86 12 93 14 23 35 12 45 -25z"/>
<path d="M26 517 c-9 -207 2 -487 19 -487 16 0 25 235 18 471 -4 130 -9 179
-18 179 -9 0 -14 -46 -19 -163z"/>
<path d="M97 673 c-4 -3 -7 -149 -7 -324 0 -312 4 -349 32 -321 11 11 15 622
4 641 -8 12 -19 14 -29 4z"/>
<path d="M849 668 c0 -7 -1 -152 -1 -323 0 -265 2 -310 14 -313 12 -2 16 13
21 65 9 86 9 546 1 567 -7 19 -34 21 -35 4z"/>
<path d="M915 668 c-3 -7 -4 -155 -3 -328 3 -272 5 -315 18 -315 13 0 15 43
15 324 0 251 -3 325 -12 328 -7 3 -15 -1 -18 -9z"/>
</g>
</svg>
