<?xml version="1.0" standalone="no"?>
<!DOCTYPE svg PUBLIC "-//W3C//DTD SVG 20010904//EN"
 "http://www.w3.org/TR/2001/REC-SVG-20010904/DTD/svg10.dtd">
<svg version="1.0" xmlns="http://www.w3.org/2000/svg"
 width="826.000000pt" height="590.000000pt" viewBox="0 0 826.000000 590.000000"
 preserveAspectRatio="xMidYMid meet">
<metadata>
Created by potrace 1.16, written by Peter Selinger 2001-2019
</metadata>
<g transform="translate(0.000000,590.000000) scale(0.500000,-0.500000)"
fill="#000000" stroke="none">
<path d="M605 1138 c-5 -2 -45 -29 -65 -44 -7 -6 -18 -14 -25 -18 -6 -5 -13
-12 -16 -17 -3 -4 -9 -11 -12 -16 -4 -4 -7 -8 -7 -9 0 -1 -7 -9 -15 -18 -8 -8
-17 -19 -20 -23 -2 -5 -8 -12 -12 -17 -4 -5 -9 -13 -11 -17 -2 -5 -6 -11 -10
-15 -3 -4 -11 -15 -18 -26 -6 -10 -15 -22 -18 -26 -18 -23 -25 -35 -32 -59 -4
-13 -8 -21 -14 -29 -9 -11 -16 -25 -16 -32 0 -3 -5 -22 -12 -42 -7 -20 -13
-43 -14 -50 -1 -7 -3 -16 -4 -20 -1 -4 -2 -10 -2 -14 0 -4 -1 -11 -3 -15 -3
-10 -4 -97 -1 -106 5 -12 9 -35 10 -55 1 -19 2 -22 5 -26 6 -7 12 -21 15 -35
2 -11 6 -19 19 -42 4 -6 9 -18 12 -25 6 -16 10 -25 15 -32 2 -3 9 -15 15 -27
10 -22 21 -39 37 -59 4 -6 8 -11 8 -12 0 -1 9 -11 19 -22 10 -11 19 -21 19
-22 0 -1 12 -14 26 -29 14 -14 27 -29 30 -33 3 -5 9 -10 18 -15 13 -7 36 -23
46 -31 17 -14 41 -14 64 0 9 6 21 12 26 14 8 3 17 11 46 39 19 19 39 37 43 40
12 9 19 15 29 30 36 52 62 56 83 14 3 -7 11 -17 18 -24 7 -7 26 -27 44 -46 69
-73 122 -94 162 -63 6 5 15 11 20 14 5 3 13 11 17 17 16 21 57 59 71 65 5 2
11 7 16 13 4 6 11 15 16 21 23 28 29 36 37 46 17 23 29 43 35 55 3 7 9 17 13
24 12 19 25 58 26 82 1 18 2 21 7 28 4 7 5 10 5 22 0 7 1 17 4 22 3 9 3 19 3
94 l0 84 -8 13 c-5 8 -8 16 -9 24 -1 6 -3 14 -5 17 -2 3 -3 8 -3 10 0 2 -4 13
-9 25 -5 12 -11 28 -14 37 -8 26 -19 52 -24 60 -3 4 -5 9 -5 10 0 1 -3 10 -8
19 -4 9 -9 21 -11 26 -2 5 -8 14 -12 21 -5 7 -11 17 -14 22 -2 6 -9 15 -14 21
-6 6 -19 24 -30 40 -20 31 -23 34 -40 43 -6 2 -15 9 -21 14 -19 18 -54 43 -65
47 -4 2 -7 2 -17 -1 -6 -1 -13 -3 -16 -4 -3 -1 -10 -5 -15 -9 -6 -5 -16 -13
-24 -18 -8 -4 -19 -14 -26 -21 -7 -6 -17 -16 -23 -20 -6 -4 -16 -14 -22 -22
-6 -8 -15 -18 -19 -21 -5 -3 -16 -16 -26 -28 -40 -51 -49 -53 -66 -19 -3 5
-10 17 -16 26 -6 9 -15 23 -20 32 -6 9 -19 26 -32 39 -13 13 -25 27 -27 31
-26 40 -89 82 -111 73z m28 -60 c6 -10 61 -66 72 -75 16 -12 50 -57 68 -91 5
-8 12 -20 16 -26 9 -13 16 -35 13 -42 -2 -5 -7 -12 -31 -48 -11 -16 -33 -57
-33 -61 0 -2 -3 -9 -6 -16 -4 -11 -6 -18 -7 -33 -1 -18 -2 -21 -7 -27 -9 -12
-12 -151 -3 -172 1 -4 3 -11 3 -15 0 -9 10 -36 23 -60 7 -15 11 -24 12 -32 0
-6 2 -15 4 -19 2 -4 3 -9 3 -12 0 -6 14 -35 22 -45 16 -21 6 -44 -30 -66 -8
-4 -19 -16 -26 -26 -10 -14 -49 -54 -64 -63 -7 -5 -14 -10 -15 -11 -23 -38
-87 -15 -127 44 -3 4 -16 18 -29 32 -17 17 -26 28 -28 34 -2 4 -6 11 -10 14
-8 6 -21 24 -27 36 -2 5 -12 21 -22 35 -10 14 -20 31 -22 36 -2 6 -6 14 -8 18
-11 23 -20 51 -26 77 -1 5 -3 13 -5 17 -4 12 -4 147 0 159 2 5 4 16 5 24 1 8
3 19 4 23 1 4 3 13 4 20 1 7 3 16 4 20 1 5 9 23 18 40 8 18 16 34 17 37 1 3 5
13 10 23 5 10 9 20 10 23 1 3 4 9 7 13 3 4 8 14 12 21 10 19 17 29 37 50 10
11 22 24 27 31 68 87 122 132 135 113z m430 -46 c4 -2 13 -8 19 -13 6 -6 19
-15 28 -22 16 -10 48 -40 48 -44 0 -2 4 -6 8 -11 4 -5 12 -18 18 -29 6 -10 14
-23 18 -28 4 -5 8 -12 9 -15 1 -3 4 -9 7 -14 9 -14 20 -36 20 -40 0 -1 3 -7 6
-12 3 -5 7 -14 9 -21 9 -31 17 -52 29 -76 8 -14 9 -18 10 -35 1 -15 3 -22 7
-31 7 -14 10 -104 5 -118 -2 -3 -3 -20 -4 -38 -1 -21 -2 -35 -4 -42 -4 -11 -7
-21 -11 -39 -1 -7 -9 -24 -17 -38 -18 -34 -18 -35 -37 -73 -19 -38 -72 -95
-108 -117 -7 -3 -16 -10 -21 -15 -5 -5 -13 -11 -18 -15 -5 -3 -11 -8 -14 -11
-10 -11 -33 -25 -41 -25 -14 0 -60 38 -70 58 -7 14 -24 33 -35 40 -6 3 -13 10
-17 15 -3 5 -9 14 -14 18 -17 21 -18 37 -4 50 6 6 13 17 24 40 9 18 22 39 28
49 7 11 11 19 12 26 1 5 3 12 4 17 2 5 3 17 3 34 0 25 0 27 7 46 9 27 10 37 5
53 -3 10 -4 18 -4 37 0 16 -1 25 -3 31 -2 4 -4 14 -4 22 -1 10 -3 18 -6 24 -3
5 -6 14 -7 20 -2 13 -46 100 -56 112 -30 35 -32 52 -13 80 12 20 114 122 125
127 5 2 13 7 18 12 17 15 27 18 41 11z m-221 -253 c7 -4 13 -11 17 -20 2 -4 8
-15 14 -25 6 -9 11 -21 12 -25 1 -4 4 -15 7 -24 3 -9 6 -21 7 -27 1 -6 4 -15
7 -20 6 -11 9 -135 3 -158 -2 -7 -3 -20 -3 -28 0 -30 -13 -62 -33 -80 -5 -4
-10 -10 -13 -14 -7 -8 -10 -7 -26 4 -11 7 -14 11 -41 53 -19 30 -19 29 -19 57
0 17 -1 26 -3 31 -2 4 -3 11 -3 15 0 4 -2 13 -4 20 -5 15 -5 36 -1 47 2 4 4
17 5 28 1 15 3 23 7 31 4 9 5 14 5 25 0 9 2 20 5 31 3 9 7 22 8 28 2 6 5 13 7
16 2 3 6 10 9 16 10 21 19 26 33 19z"/>
<path d="M167 1104 c-12 -3 -11 5 -9 -207 2 -193 1 -682 -1 -789 -2 -60 -2
-59 24 -61 39 -3 37 -12 35 137 -3 170 -2 624 0 779 1 70 2 130 1 133 -2 9
-31 13 -50 8z"/>
<path d="M1416 1104 c-10 -4 -10 -5 -8 -127 2 -133 2 -716 0 -825 -2 -97 -3
-94 28 -94 19 0 27 2 29 9 1 2 2 226 2 499 1 272 1 503 2 512 0 25 -24 37 -53
26z"/>
<path d="M1521 1103 c-9 -4 -9 13 -7 -274 2 -251 1 -546 -1 -701 -1 -70 -1
-70 3 -75 9 -8 42 -9 52 -1 3 2 7 961 4 1046 0 7 -37 11 -51 5z"/>
<path d="M57 1101 c-6 -4 -5 -1032 1 -1038 4 -4 30 -6 43 -2 11 3 11 -1 9 180
-2 165 -1 705 1 803 2 63 4 60 -29 60 -14 0 -22 -1 -25 -3z"/>
</g>
</svg>
