<?xml version="1.0" standalone="no"?>
<!DOCTYPE svg PUBLIC "-//W3C//DTD SVG 20010904//EN"
 "http://www.w3.org/TR/2001/REC-SVG-20010904/DTD/svg10.dtd">
<svg version="1.0" xmlns="http://www.w3.org/2000/svg"
 width="99.000000pt" height="100.000000pt" viewBox="0 0 99.000000 100.000000"
 preserveAspectRatio="xMidYMid meet">
<metadata>
Created by potrace 1.16, written by Peter Selinger 2001-2019
</metadata>
<g transform="translate(0.000000,100.000000) scale(0.100000,-0.100000)"
fill="#000000" stroke="none">
<path d="M285 951 c-71 -43 -185 -197 -222 -299 -30 -82 -39 -184 -23 -253 22
-93 87 -207 166 -286 97 -99 108 -99 215 4 l81 77 29 -34 c16 -19 29 -38 29
-42 0 -15 100 -78 123 -78 36 0 186 147 220 215 59 119 62 265 8 403 -41 104
-103 197 -159 239 -65 49 -82 45 -169 -42 -42 -41 -79 -75 -83 -75 -4 0 -11
10 -17 23 -18 39 -93 128 -126 148 -39 23 -35 23 -72 0z m98 -101 c29 -33 62
-76 73 -95 l19 -35 -35 -63 c-34 -60 -35 -65 -35 -172 0 -99 3 -116 28 -169
15 -32 27 -66 27 -76 0 -10 -32 -46 -70 -80 -64 -57 -73 -62 -95 -52 -33 15
-136 147 -171 219 -26 52 -29 68 -28 158 0 88 4 108 29 165 16 36 41 84 57
106 33 50 127 154 138 154 5 0 33 -27 63 -60z m345 -5 c44 -37 96 -120 131
-209 27 -67 31 -89 31 -175 0 -93 -2 -102 -36 -169 -26 -53 -53 -87 -102 -132
-37 -33 -74 -60 -82 -60 -9 0 -36 21 -61 48 -77 80 -75 74 -35 137 35 54 36
57 36 158 0 117 -10 160 -52 228 l-30 49 22 29 c26 38 121 121 137 121 6 0 25
-11 41 -25z m-181 -253 c25 -65 25 -213 0 -260 -24 -44 -46 -38 -75 20 -29 59
-33 158 -9 237 27 87 51 87 84 3z"/>
<path d="M277 564 c-4 -4 -7 -44 -7 -89 0 -87 11 -112 44 -99 14 5 16 20 14
98 -3 83 -5 91 -23 94 -12 2 -24 0 -28 -4z"/>
<path d="M654 547 c-3 -8 -4 -49 -2 -93 3 -72 5 -79 24 -82 19 -3 22 3 28 66
9 85 1 122 -25 122 -11 0 -22 -6 -25 -13z"/>
<path d="M485 528 c-3 -18 -5 -56 -3 -83 3 -42 6 -50 23 -50 18 0 20 7 20 80
0 67 -3 80 -17 83 -12 2 -19 -6 -23 -30z"/>
</g>
</svg>
