<?xml version="1.0" standalone="no"?>
<!DOCTYPE svg PUBLIC "-//W3C//DTD SVG 20010904//EN"
 "http://www.w3.org/TR/2001/REC-SVG-20010904/DTD/svg10.dtd">
<svg version="1.0" xmlns="http://www.w3.org/2000/svg"
 width="146.000000pt" height="148.000000pt" viewBox="0 0 146.000000 148.000000"
 preserveAspectRatio="xMidYMid meet">
<metadata>
Created by potrace 1.16, written by Peter Selinger 2001-2019
</metadata>
<g transform="translate(0.000000,148.000000) scale(0.100000,-0.100000)"
fill="#000000" stroke="none">
<path d="M398 1381 c-47 -34 -168 -167 -168 -185 0 -3 -16 -27 -35 -52 -58
-75 -108 -191 -135 -313 -17 -71 -7 -245 16 -298 71 -161 119 -239 212 -345
99 -114 155 -142 219 -108 35 18 141 118 195 183 26 32 51 29 71 -9 22 -41
138 -153 182 -175 57 -28 82 -21 149 44 30 28 74 71 99 94 46 43 129 162 148
211 20 51 38 179 39 278 1 91 -2 107 -38 209 -76 213 -148 328 -259 412 l-73
55 -44 -26 c-45 -26 -174 -149 -203 -192 -24 -38 -45 -29 -82 36 -48 83 -180
220 -213 220 -13 0 -49 -18 -80 -39z m155 -97 c66 -70 157 -196 157 -219 0 -5
-18 -35 -40 -66 -22 -32 -40 -64 -40 -72 0 -9 -5 -19 -10 -22 -5 -3 -10 -24
-10 -45 0 -21 -4 -42 -10 -45 -19 -12 -11 -195 11 -255 11 -30 26 -76 33 -102
8 -25 21 -57 30 -69 9 -13 16 -29 16 -36 0 -15 -133 -154 -182 -189 -18 -13
-42 -24 -54 -24 -24 0 -89 59 -165 150 -42 50 -56 73 -110 167 -31 55 -49 135
-50 233 -2 112 11 199 41 266 70 156 92 191 191 297 55 59 105 107 111 107 5
0 42 -34 81 -76z m527 -30 c112 -85 230 -329 247 -511 9 -98 -13 -220 -57
-310 -22 -46 -40 -86 -40 -91 0 -23 -220 -212 -247 -212 -15 0 -44 27 -140
134 -52 56 -63 79 -44 90 5 4 28 40 51 82 44 81 53 128 51 264 -2 120 -33 216
-100 315 -38 55 -30 71 84 183 57 56 111 102 119 102 9 0 43 -21 76 -46z
m-300 -311 c48 -82 63 -158 58 -294 -6 -130 -16 -166 -57 -203 -20 -18 -22
-18 -41 -1 -38 34 -80 111 -80 146 0 19 -4 50 -10 69 -13 47 13 194 49 276 25
56 51 58 81 7z"/>
<path d="M415 828 c-3 -8 -4 -70 -3 -139 l3 -124 30 0 30 0 0 135 0 135 -28 3
c-16 2 -29 -2 -32 -10z"/>
<path d="M959 813 c-4 -42 4 -250 11 -257 5 -5 20 -6 34 -2 l26 6 0 130 0 130
-35 0 c-19 0 -35 -3 -36 -7z"/>
<path d="M714 817 c-2 -7 -3 -65 -2 -128 l3 -114 30 0 30 0 3 105 c4 131 -1
150 -34 150 -13 0 -27 -6 -30 -13z"/>
</g>
</svg>
