<?xml version="1.0" standalone="no"?>
<!DOCTYPE svg PUBLIC "-//W3C//DTD SVG 20010904//EN"
 "http://www.w3.org/TR/2001/REC-SVG-20010904/DTD/svg10.dtd">
<svg version="1.0" xmlns="http://www.w3.org/2000/svg"
 width="586.000000pt" height="590.000000pt" viewBox="0 0 586.000000 590.000000"
 preserveAspectRatio="xMidYMid meet">
<metadata>
Created by potrace 1.16, written by Peter Selinger 2001-2019
</metadata>
<g transform="translate(0.000000,590.000000) scale(0.500000,-0.500000)"
fill="#000000" stroke="none">
<path d="M368 1137 c-23 -11 -98 -68 -106 -79 -12 -17 -19 -26 -32 -41 -8 -8
-17 -19 -20 -25 -4 -5 -9 -12 -12 -16 -3 -3 -8 -11 -11 -17 -3 -5 -9 -14 -14
-20 -4 -5 -12 -15 -16 -22 -4 -7 -9 -14 -11 -17 -26 -35 -32 -45 -38 -66 -5
-16 -9 -23 -17 -32 -7 -8 -11 -17 -14 -34 -2 -7 -8 -28 -14 -46 -6 -18 -11
-36 -11 -40 0 -4 -1 -12 -3 -17 -2 -6 -3 -13 -3 -17 0 -4 -1 -11 -3 -16 -4
-12 -4 -98 0 -113 6 -23 9 -38 9 -54 0 -16 0 -17 6 -23 6 -7 14 -28 14 -37 0
-5 6 -19 13 -28 6 -8 14 -23 19 -40 2 -7 8 -18 12 -23 3 -6 11 -20 17 -32 10
-21 25 -44 34 -54 2 -3 8 -10 12 -16 4 -6 12 -16 18 -22 6 -6 15 -16 20 -22 4
-6 18 -21 30 -34 12 -13 25 -26 28 -31 3 -4 9 -9 14 -11 11 -6 35 -21 44 -29
6 -5 12 -8 26 -11 20 -5 17 -6 54 15 7 4 14 7 16 7 2 0 20 17 41 37 21 21 41
39 44 41 11 7 21 18 31 32 34 52 60 55 83 12 4 -8 11 -18 19 -25 6 -7 26 -27
43 -45 68 -72 122 -93 161 -62 6 5 15 11 20 14 5 3 13 11 17 17 15 20 54 56
70 64 9 5 22 18 39 41 5 7 13 16 16 20 14 15 42 55 52 76 4 8 10 19 14 25 11
17 24 56 25 80 1 17 2 21 7 28 4 7 5 10 5 21 0 7 1 18 3 23 2 8 3 25 3 95 l0
85 -7 12 c-4 6 -8 16 -9 21 -3 13 -10 34 -14 42 -2 4 -7 19 -12 34 -9 28 -18
53 -28 73 -7 15 -19 42 -22 51 -1 4 -7 13 -12 21 -5 8 -13 19 -16 26 -4 6 -10
16 -15 21 -5 5 -17 22 -28 38 -24 36 -25 37 -42 46 -7 4 -18 11 -24 16 -41 37
-63 50 -80 45 -7 -1 -14 -3 -17 -4 -3 -1 -10 -5 -15 -9 -6 -5 -17 -13 -26 -19
-9 -6 -19 -14 -23 -19 -3 -4 -11 -11 -17 -15 -10 -7 -26 -24 -34 -35 -1 -3 -7
-9 -12 -12 -5 -4 -17 -16 -26 -28 -42 -53 -52 -56 -69 -20 -13 27 -46 75 -67
96 -11 12 -24 26 -29 33 -30 45 -88 82 -110 70z m30 -59 c3 -5 24 -28 47 -50
24 -23 46 -45 49 -50 12 -14 37 -53 44 -66 3 -7 10 -18 15 -25 20 -30 20 -37
-8 -78 -22 -33 -36 -58 -42 -77 -2 -6 -5 -14 -7 -18 -3 -6 -4 -12 -4 -22 0
-19 -2 -28 -9 -36 -6 -8 -8 -145 -2 -165 2 -6 3 -13 3 -16 0 -10 9 -35 22 -61
9 -19 12 -27 12 -33 0 -5 1 -12 3 -16 1 -3 3 -10 4 -15 2 -10 13 -33 20 -43
18 -25 10 -44 -29 -69 -11 -7 -24 -20 -24 -24 0 -4 -51 -55 -62 -63 -6 -4 -15
-11 -20 -15 -17 -14 -29 -20 -39 -20 -17 0 -69 39 -85 65 -3 4 -17 19 -30 33
-15 15 -26 28 -28 34 -2 4 -8 12 -13 18 -6 5 -14 17 -20 26 -5 9 -14 24 -20
32 -5 8 -13 20 -17 25 -7 11 -18 34 -24 52 -2 6 -5 14 -8 18 -2 4 -4 11 -5 15
-1 7 -4 18 -11 41 -5 19 -6 150 -1 166 2 5 4 16 5 25 1 8 3 18 4 21 1 3 2 8 2
12 0 4 1 9 2 12 1 3 3 10 4 16 1 5 9 23 17 39 8 16 15 31 16 34 5 18 43 92 57
112 3 4 12 14 20 22 8 8 20 22 27 31 7 9 14 17 16 19 2 2 5 6 8 9 7 11 76 81
85 87 13 9 18 8 26 -2z m429 -46 c5 -2 14 -8 20 -14 7 -6 20 -16 29 -22 17
-11 41 -34 46 -44 1 -3 6 -9 10 -14 4 -5 11 -17 16 -26 5 -9 11 -20 15 -25 6
-7 14 -22 30 -55 5 -10 11 -22 13 -27 6 -10 14 -34 14 -39 0 -2 2 -8 5 -14 2
-5 7 -15 9 -22 3 -7 8 -19 12 -26 6 -11 7 -15 8 -32 1 -16 2 -21 7 -30 7 -14
10 -103 4 -122 -2 -6 -3 -16 -3 -36 0 -27 0 -28 -11 -64 -1 -5 -3 -13 -4 -17
-2 -9 -19 -46 -30 -62 -4 -6 -7 -12 -8 -15 -11 -40 -31 -66 -102 -134 -5 -5
-14 -12 -20 -15 -5 -3 -14 -10 -20 -15 -5 -5 -14 -12 -19 -16 -5 -3 -11 -8
-14 -11 -33 -36 -78 -23 -111 34 -10 16 -24 32 -36 39 -5 3 -12 10 -16 15 -3
5 -9 14 -14 18 -17 21 -18 36 -4 51 6 6 14 20 27 44 10 20 20 39 23 42 13 18
17 36 19 80 1 30 2 35 8 53 7 21 7 29 1 51 -2 7 -3 19 -3 33 0 15 -1 25 -3 31
-2 5 -3 14 -3 21 0 9 -1 15 -5 22 -3 6 -6 16 -7 22 -2 13 -45 100 -56 113 -31
37 -31 55 -4 88 22 27 109 112 118 117 5 2 13 7 18 12 17 15 27 18 41 11z
m-221 -252 c9 -5 15 -11 18 -20 1 -4 8 -15 14 -24 6 -9 12 -21 13 -27 2 -5 5
-18 9 -29 3 -10 6 -21 6 -25 0 -3 3 -10 6 -16 7 -12 9 -146 3 -164 -2 -4 -3
-15 -3 -24 0 -28 -15 -64 -33 -79 -4 -3 -9 -8 -12 -12 -10 -14 -36 -2 -52 24
-2 4 -11 19 -21 33 l-17 26 -1 28 c-1 15 -2 30 -3 33 -2 3 -3 10 -4 16 -1 6
-3 15 -4 20 -4 11 -4 37 0 48 1 4 3 15 4 24 1 12 3 21 7 30 4 9 6 18 7 30 1
12 3 23 7 35 3 9 6 18 6 20 0 2 2 7 4 11 25 47 29 51 46 42z"/>
<path d="M343 669 c-14 -3 -13 -1 -13 -108 0 -119 -3 -110 37 -109 27 1 25 -8
25 108 0 116 -2 120 -49 109z"/>
<path d="M785 661 c-15 -2 -15 0 -15 -107 0 -115 -2 -108 34 -108 29 0 27 -7
27 108 0 118 2 113 -46 107z"/>
<path d="M576 659 c-6 -8 -6 -192 1 -198 6 -7 42 -6 47 1 7 8 6 191 -1 198 -7
7 -41 6 -47 -1z"/>
</g>
</svg>
