<?xml version="1.0" standalone="no"?>
<!DOCTYPE svg PUBLIC "-//W3C//DTD SVG 20010904//EN"
 "http://www.w3.org/TR/2001/REC-SVG-20010904/DTD/svg10.dtd">
<svg version="1.0" xmlns="http://www.w3.org/2000/svg"
 width="586.000000pt" height="590.000000pt" viewBox="0 0 586.000000 590.000000"
 preserveAspectRatio="xMidYMid meet">
<metadata>
Created by potrace 1.16, written by Peter Selinger 2001-2019
</metadata>
<g transform="translate(0.000000,590.000000) scale(0.500000,-0.500000)"
fill="#000000" stroke="none">
<path d="M368 1137 c-23 -11 -98 -68 -106 -79 -12 -17 -19 -26 -33 -41 -7 -9
-16 -19 -18 -24 -3 -4 -9 -11 -12 -15 -4 -5 -9 -13 -12 -18 -3 -6 -9 -15 -13
-20 -4 -5 -12 -17 -19 -26 -7 -10 -18 -27 -26 -39 -12 -17 -16 -24 -21 -40 -4
-15 -8 -23 -14 -31 -9 -10 -16 -27 -16 -35 0 -2 -5 -21 -12 -41 -7 -20 -12
-40 -12 -43 0 -3 -1 -10 -2 -14 -1 -4 -3 -14 -4 -21 -1 -7 -3 -18 -5 -24 -4
-15 -4 -89 0 -103 6 -23 9 -39 9 -55 0 -16 2 -25 9 -30 3 -3 10 -24 12 -36 1
-4 5 -13 9 -20 11 -16 17 -28 22 -44 2 -8 8 -18 12 -24 4 -6 12 -21 17 -32 10
-20 24 -44 34 -54 2 -3 8 -10 12 -16 4 -6 12 -16 18 -22 6 -6 15 -16 20 -22 4
-6 18 -21 30 -34 12 -13 25 -26 28 -31 3 -4 9 -9 14 -11 11 -6 35 -21 44 -29
6 -5 12 -8 26 -11 20 -5 17 -6 54 15 7 4 14 7 16 7 2 0 20 17 41 37 21 21 41
39 44 41 11 7 21 18 31 32 34 52 60 55 83 12 4 -8 11 -18 19 -25 6 -7 26 -27
43 -45 68 -72 122 -93 161 -62 6 5 15 11 20 14 5 3 13 11 17 17 15 20 55 56
70 64 9 4 29 26 42 45 2 4 9 12 14 17 5 6 11 13 13 16 1 4 4 8 6 9 5 4 23 32
33 52 5 9 10 18 11 20 10 12 27 65 27 87 0 14 1 17 5 23 5 7 6 11 7 27 1 11 3
24 4 29 1 5 2 42 2 88 l0 78 -9 17 c-5 9 -9 19 -9 21 0 5 -8 30 -16 49 -2 6
-7 21 -12 35 -9 28 -15 45 -24 63 -8 17 -16 34 -20 46 -2 6 -9 18 -15 27 -6 9
-14 21 -16 27 -3 5 -9 14 -14 19 -5 5 -17 22 -28 38 -24 36 -25 37 -41 45 -7
4 -18 11 -24 16 -42 38 -64 51 -81 46 -7 -1 -14 -3 -17 -4 -3 -1 -10 -5 -15
-9 -6 -5 -17 -13 -26 -19 -9 -6 -19 -14 -22 -18 -3 -4 -11 -12 -19 -17 -13 -9
-27 -24 -32 -33 -1 -3 -7 -9 -13 -13 -6 -5 -18 -17 -27 -29 -40 -52 -51 -55
-68 -19 -13 27 -46 75 -67 96 -11 12 -24 26 -29 33 -30 45 -88 82 -110 70z
m30 -59 c3 -5 24 -28 47 -50 24 -23 46 -45 49 -50 12 -14 37 -53 44 -66 3 -7
10 -18 15 -25 20 -30 20 -37 -8 -78 -22 -33 -36 -58 -42 -77 -2 -6 -5 -14 -7
-17 -2 -4 -3 -14 -4 -28 -1 -19 -2 -24 -5 -27 -9 -10 -9 -12 -9 -62 1 -46 1
-48 -3 -51 -5 -4 -1 -5 -88 33 -71 32 -148 66 -214 93 -42 18 -51 22 -52 28
-3 11 5 35 22 68 9 18 17 34 17 36 0 2 3 10 8 18 4 8 9 19 11 24 2 6 6 13 8
16 2 3 8 13 12 21 10 19 19 32 36 50 8 7 21 22 28 32 8 9 15 18 17 20 2 2 6 5
8 8 6 10 75 80 84 86 13 9 18 8 26 -2z m429 -46 c5 -2 14 -8 20 -14 7 -6 20
-16 29 -22 17 -11 41 -34 46 -44 1 -3 6 -9 10 -14 4 -5 11 -16 16 -26 4 -9 12
-21 17 -27 5 -6 9 -13 9 -15 0 -2 3 -7 6 -13 8 -12 18 -31 21 -42 2 -4 5 -10
7 -13 4 -6 12 -29 12 -35 0 -2 3 -10 7 -18 3 -8 7 -17 9 -21 1 -4 6 -14 10
-23 6 -12 8 -17 9 -32 1 -13 3 -21 8 -31 6 -13 6 -13 7 -56 1 -60 5 -58 -59
-27 -74 35 -113 53 -166 77 -90 41 -110 49 -122 54 -12 5 -12 5 -37 55 -14 28
-28 54 -32 59 -31 37 -31 55 -4 88 22 27 109 112 118 117 5 2 13 7 18 12 17
15 27 18 41 11z m-222 -251 c9 -5 17 -13 19 -21 2 -4 8 -15 14 -25 7 -9 12
-20 13 -24 1 -3 4 -15 8 -26 4 -11 7 -24 8 -29 0 -5 3 -13 6 -17 9 -15 9 -43
-1 -45 -5 0 -42 16 -102 44 -30 14 -34 27 -21 68 4 10 7 22 8 26 1 4 3 10 6
13 2 3 7 12 11 19 10 19 18 23 31 17z m-472 -153 c10 -4 35 -15 55 -25 66 -30
187 -83 262 -114 31 -13 31 -13 39 -35 3 -10 11 -29 18 -42 8 -17 11 -26 11
-32 0 -4 1 -11 3 -15 1 -3 3 -10 4 -15 2 -10 12 -33 20 -43 18 -24 11 -44 -27
-68 -11 -6 -26 -21 -26 -25 0 -4 -51 -55 -62 -63 -6 -4 -15 -11 -20 -15 -31
-25 -39 -26 -69 -6 -24 16 -42 31 -53 48 -4 6 -19 22 -32 36 -16 17 -26 28
-29 35 -2 6 -7 12 -10 14 -4 3 -11 12 -17 22 -6 9 -20 31 -31 47 -10 16 -20
33 -22 38 -1 4 -4 11 -6 14 -2 4 -6 12 -8 19 -3 7 -6 17 -9 22 -4 10 -5 16
-11 39 -1 6 -4 14 -5 17 -3 9 -6 144 -2 151 3 6 6 5 27 -4z m645 -25 c56 -27
154 -73 215 -100 77 -35 74 -32 63 -71 -2 -8 -6 -20 -7 -27 -3 -13 -16 -39
-30 -62 -5 -8 -10 -19 -12 -23 -12 -35 -28 -58 -59 -89 -48 -46 -50 -48 -61
-54 -5 -3 -14 -10 -20 -15 -5 -5 -14 -12 -19 -16 -5 -3 -11 -8 -14 -11 -33
-36 -78 -23 -111 34 -10 16 -23 31 -35 39 -6 4 -14 11 -17 17 -4 5 -9 12 -13
16 -17 18 -19 37 -5 50 6 6 13 17 26 43 10 19 21 40 26 47 12 18 19 47 19 82
0 24 1 28 6 45 7 21 7 32 1 54 -4 16 -4 55 1 58 4 3 6 2 46 -17z m-228 -16
c127 -53 140 -65 125 -109 -2 -5 -3 -15 -3 -24 0 -16 -6 -40 -13 -54 -10 -18
-39 -49 -46 -47 -14 3 -29 18 -48 48 -5 9 -12 19 -15 24 -13 18 -13 19 -14 45
0 14 -1 28 -3 32 -1 4 -3 12 -4 19 -1 7 -3 15 -4 18 -4 8 -4 40 -1 46 5 9 9 9
26 2z"/>
</g>
</svg>
