<?xml version="1.0" standalone="no"?>
<!DOCTYPE svg PUBLIC "-//W3C//DTD SVG 20010904//EN"
 "http://www.w3.org/TR/2001/REC-SVG-20010904/DTD/svg10.dtd">
<svg version="1.0" xmlns="http://www.w3.org/2000/svg"
 width="99.000000pt" height="100.000000pt" viewBox="0 0 99.000000 100.000000"
 preserveAspectRatio="xMidYMid meet">
<metadata>
Created by potrace 1.16, written by Peter Selinger 2001-2019
</metadata>
<g transform="translate(0.000000,100.000000) scale(0.100000,-0.100000)"
fill="#000000" stroke="none">
<path d="M285 951 c-76 -47 -195 -211 -225 -308 -28 -90 -35 -180 -20 -244 22
-93 87 -207 166 -286 97 -99 108 -99 215 4 l81 77 29 -34 c16 -19 29 -38 29
-42 0 -15 100 -78 124 -78 20 0 48 22 114 88 98 96 126 145 141 242 20 122 15
172 -29 284 -47 119 -97 196 -158 243 -65 49 -82 45 -169 -42 -42 -41 -79 -75
-83 -75 -4 0 -11 10 -17 23 -18 39 -93 128 -126 148 -39 23 -35 23 -72 0z m86
-88 c62 -67 99 -117 99 -135 0 -9 -14 -42 -30 -73 -21 -40 -30 -71 -30 -105 0
-88 -11 -95 -88 -56 -26 13 -84 38 -130 56 -45 18 -85 37 -88 41 -11 18 87
186 147 252 33 37 64 67 68 67 5 0 28 -21 52 -47z m368 -28 c88 -80 208 -392
144 -372 -10 3 -76 32 -148 65 -108 50 -133 66 -149 94 -10 18 -27 46 -38 61
-11 16 -17 36 -13 47 8 24 133 140 151 140 8 0 32 -16 53 -35z m-199 -231 c31
-72 35 -94 16 -94 -24 0 -96 39 -96 52 0 6 5 28 12 49 16 55 43 52 68 -7z
m-295 -136 c66 -30 129 -59 140 -65 20 -11 75 -134 75 -166 0 -8 -31 -43 -70
-77 -53 -47 -74 -60 -90 -55 -29 9 -132 134 -171 208 -27 50 -33 76 -37 141
-6 93 -21 92 153 14z m476 8 c52 -24 111 -51 132 -60 47 -19 47 -33 1 -124
-26 -53 -53 -87 -102 -132 -37 -33 -74 -60 -84 -60 -19 0 -118 107 -118 127 0
7 14 38 32 69 27 49 31 67 33 138 1 44 3 82 4 84 2 4 9 1 102 -42z m-211 -2
c52 -21 61 -39 49 -93 -26 -116 -70 -105 -104 26 -24 92 -20 97 55 67z"/>
</g>
</svg>
