<?xml version="1.0" standalone="no"?>
<!DOCTYPE svg PUBLIC "-//W3C//DTD SVG 20010904//EN"
 "http://www.w3.org/TR/2001/REC-SVG-20010904/DTD/svg10.dtd">
<svg version="1.0" xmlns="http://www.w3.org/2000/svg"
 width="116.000000pt" height="148.000000pt" viewBox="0 0 116.000000 148.000000"
 preserveAspectRatio="xMidYMid meet">
<metadata>
Created by potrace 1.16, written by Peter Selinger 2001-2019
</metadata>
<g transform="translate(0.000000,148.000000) scale(0.100000,-0.100000)"
fill="#000000" stroke="none">
<path d="M517 1353 c-29 -38 -98 -126 -152 -198 -55 -71 -129 -168 -166 -215
-73 -93 -129 -182 -129 -206 0 -8 27 -51 60 -95 33 -44 60 -81 60 -83 0 -2 18
-23 39 -46 51 -56 69 -89 54 -98 -25 -16 -153 -144 -154 -155 -4 -30 3 -46 20
-52 15 -5 37 12 97 75 42 44 82 80 89 80 7 0 29 -24 49 -52 20 -29 57 -80 81
-112 25 -33 45 -65 45 -71 0 -6 13 -24 29 -39 l28 -27 31 38 c29 35 233 296
292 373 14 18 62 80 107 139 49 63 83 116 83 130 0 13 -17 46 -37 74 -37 50
-137 195 -268 389 -36 53 -72 102 -80 108 -8 7 -15 18 -15 24 -1 20 -68 86
-89 86 -13 0 -39 -23 -74 -67z m171 -146 c84 -125 263 -384 295 -427 25 -36
22 -53 -26 -112 -24 -29 -85 -108 -135 -174 -51 -67 -103 -133 -115 -146 -25
-27 -42 -50 -92 -125 -19 -29 -38 -53 -42 -53 -5 0 -26 26 -48 57 -22 31 -61
83 -87 114 -27 32 -48 64 -48 72 0 7 33 43 74 78 80 68 91 93 56 124 -20 18
-22 17 -97 -59 -42 -42 -82 -75 -89 -72 -6 2 -36 40 -67 83 -30 43 -69 95 -86
117 -17 21 -31 45 -31 52 0 22 84 144 159 231 39 45 71 85 71 90 0 4 16 28 36
53 20 25 66 84 101 133 36 48 70 87 76 87 7 0 49 -56 95 -123z"/>
</g>
</svg>
