<?xml version="1.0" standalone="no"?>
<!DOCTYPE svg PUBLIC "-//W3C//DTD SVG 20010904//EN"
 "http://www.w3.org/TR/2001/REC-SVG-20010904/DTD/svg10.dtd">
<svg version="1.0" xmlns="http://www.w3.org/2000/svg"
 width="78.000000pt" height="100.000000pt" viewBox="0 0 78.000000 100.000000"
 preserveAspectRatio="xMidYMid meet">
<metadata>
Created by potrace 1.16, written by Peter Selinger 2001-2019
</metadata>
<g transform="translate(0.000000,100.000000) scale(0.100000,-0.100000)"
fill="#000000" stroke="none">
<path d="M218 753 c-86 -115 -161 -219 -168 -232 -11 -21 -7 -30 34 -90 26
-36 61 -83 79 -105 l32 -38 -58 -52 c-59 -53 -68 -74 -41 -96 13 -11 24 -5 75
46 48 48 62 56 69 44 42 -70 129 -185 140 -185 20 0 349 425 349 452 1 12 -22
54 -50 95 -27 40 -95 139 -150 221 -88 128 -104 147 -127 147 -24 0 -48 -27
-184 -207z m317 -49 c69 -102 125 -194 125 -204 0 -14 -143 -210 -248 -339
l-28 -35 -57 72 c-31 39 -57 77 -57 85 0 7 20 28 44 45 49 35 64 65 46 87 -19
23 -30 18 -82 -37 -56 -60 -41 -66 -124 49 -24 35 -44 68 -44 75 0 12 49 80
138 195 16 21 55 73 86 116 31 42 60 77 66 77 5 0 65 -84 135 -186z"/>
</g>
</svg>
