<?xml version="1.0" standalone="no"?>
<!DOCTYPE svg PUBLIC "-//W3C//DTD SVG 20010904//EN"
 "http://www.w3.org/TR/2001/REC-SVG-20010904/DTD/svg10.dtd">
<svg version="1.0" xmlns="http://www.w3.org/2000/svg"
 width="460.000000pt" height="590.000000pt" viewBox="0 0 460.000000 590.000000"
 preserveAspectRatio="xMidYMid meet">
<metadata>
Created by potrace 1.16, written by Peter Selinger 2001-2019
</metadata>
<g transform="translate(0.000000,590.000000) scale(0.500000,-0.500000)"
fill="#000000" stroke="none">
<path d="M456 1134 c-5 -3 -14 -11 -18 -17 -5 -6 -13 -16 -19 -22 -5 -6 -14
-19 -20 -29 -7 -9 -15 -21 -20 -26 -8 -9 -10 -11 -31 -39 -6 -8 -17 -20 -24
-28 -7 -8 -16 -19 -19 -25 -3 -5 -9 -13 -12 -18 -3 -4 -9 -11 -13 -16 -3 -5
-11 -15 -16 -22 -5 -7 -13 -17 -16 -22 -4 -5 -11 -13 -15 -19 -5 -5 -20 -25
-34 -44 -14 -19 -28 -37 -32 -41 -3 -4 -9 -12 -13 -17 -4 -5 -11 -14 -15 -20
-4 -6 -11 -15 -15 -20 -4 -5 -12 -15 -17 -21 -13 -16 -22 -31 -26 -43 -1 -6
-7 -18 -15 -28 -16 -24 -17 -31 -8 -43 4 -5 12 -17 19 -26 6 -9 14 -20 16 -23
14 -17 23 -30 36 -47 7 -11 14 -20 15 -21 1 -1 4 -6 7 -11 3 -5 9 -13 14 -17
5 -4 11 -10 14 -14 2 -3 9 -13 16 -22 43 -56 50 -39 -61 -146 l-34 -32 0 -16
c0 -16 0 -16 12 -28 19 -19 15 -21 90 55 35 35 64 64 66 64 4 0 20 -18 24 -28
3 -6 7 -11 12 -15 5 -3 9 -8 12 -14 5 -10 14 -23 26 -35 3 -4 12 -16 19 -25 6
-10 17 -24 22 -31 7 -7 12 -16 14 -22 16 -54 49 -76 75 -49 24 25 30 31 44 52
22 31 27 37 37 49 6 7 12 14 14 17 1 4 4 8 6 9 2 2 7 8 11 14 5 6 12 16 18 23
5 7 13 18 18 24 5 7 12 16 17 21 4 5 10 13 13 17 4 5 10 14 16 21 5 7 13 17
16 22 10 13 22 28 30 35 3 3 10 12 16 20 5 8 12 18 16 23 4 5 10 13 14 18 3 5
11 15 16 22 5 7 14 18 18 24 4 6 12 17 18 23 5 7 12 17 15 21 3 5 11 14 17 21
30 35 26 68 -15 113 -5 6 -32 47 -40 60 -2 5 -9 14 -14 19 -4 6 -21 29 -36 52
-15 23 -31 46 -34 50 -4 4 -10 14 -14 20 -4 7 -10 16 -14 21 -4 5 -10 13 -12
19 -3 5 -10 15 -15 20 -9 10 -29 39 -42 61 -4 6 -10 15 -13 19 -4 4 -7 11 -8
14 -1 3 -7 12 -14 19 -13 14 -28 34 -30 42 -1 2 -4 8 -8 12 -3 4 -10 12 -13
17 -22 32 -45 42 -64 29z m30 -83 c5 -7 18 -26 29 -43 12 -17 26 -39 32 -48
37 -53 73 -105 100 -146 17 -25 34 -49 37 -53 5 -5 28 -39 48 -69 4 -6 10 -16
13 -21 3 -6 7 -12 9 -13 2 -1 6 -7 10 -12 3 -6 10 -15 14 -20 19 -24 19 -39
-2 -67 -9 -12 -18 -25 -21 -28 -2 -3 -9 -10 -14 -17 -6 -6 -12 -14 -14 -17 -2
-3 -8 -11 -12 -16 -4 -6 -12 -17 -18 -24 -16 -22 -27 -36 -36 -47 -4 -6 -12
-15 -16 -21 -4 -6 -13 -17 -20 -26 -7 -9 -15 -19 -18 -24 -10 -14 -22 -29 -29
-34 -3 -3 -9 -11 -13 -18 -4 -8 -10 -14 -14 -17 -7 -4 -13 -13 -19 -26 -2 -5
-10 -15 -18 -23 -8 -8 -14 -17 -15 -20 -1 -4 -4 -10 -8 -14 -3 -5 -8 -11 -10
-14 -7 -11 -22 -27 -25 -27 -4 0 -23 22 -42 50 -4 5 -11 14 -15 20 -5 6 -12
15 -16 20 -4 5 -9 12 -12 15 -4 6 -10 14 -38 51 -27 34 -30 26 44 95 54 49 58
53 58 61 0 19 -23 46 -38 46 -8 0 -4 4 -71 -65 -58 -60 -55 -59 -77 -28 -5 8
-10 15 -32 45 -7 9 -18 25 -25 35 -7 10 -16 22 -20 26 -4 4 -10 13 -14 20 -4
7 -12 18 -17 24 -25 29 -25 27 16 89 11 16 23 34 26 38 3 5 11 16 17 24 7 8
14 18 17 23 3 4 12 15 21 24 8 9 18 20 21 26 4 5 10 12 16 15 5 3 11 9 13 12
1 4 6 10 9 14 4 4 9 12 12 19 6 14 15 29 23 39 4 3 8 10 11 14 7 10 21 29 33
43 6 7 22 28 37 48 62 83 59 80 73 62z"/>
</g>
</svg>
