<?xml version="1.0" standalone="no"?>
<!DOCTYPE svg PUBLIC "-//W3C//DTD SVG 20010904//EN"
 "http://www.w3.org/TR/2001/REC-SVG-20010904/DTD/svg10.dtd">
<svg version="1.0" xmlns="http://www.w3.org/2000/svg"
 width="116.000000pt" height="148.000000pt" viewBox="0 0 116.000000 148.000000"
 preserveAspectRatio="xMidYMid meet">
<metadata>
Created by potrace 1.16, written by Peter Selinger 2001-2019
</metadata>
<g transform="translate(0.000000,148.000000) scale(0.100000,-0.100000)"
fill="#000000" stroke="none">
<path d="M502 1381 c-18 -22 -32 -44 -32 -49 0 -5 -7 -15 -16 -23 -8 -7 -36
-44 -61 -83 -25 -39 -48 -73 -52 -76 -3 -3 -20 -25 -36 -50 -17 -25 -76 -111
-132 -192 -58 -83 -103 -158 -103 -170 0 -13 36 -69 83 -129 45 -59 92 -119
104 -135 111 -145 261 -337 290 -373 l36 -44 26 31 c14 16 39 51 54 76 16 25
43 63 60 85 18 21 41 51 52 66 92 128 169 225 177 225 5 0 8 4 8 10 0 5 27 45
60 89 33 44 60 87 60 95 0 22 -50 104 -119 192 -34 44 -94 122 -134 174 -195
257 -249 320 -271 320 -14 0 -34 -15 -54 -39z m119 -123 c29 -40 70 -93 90
-118 20 -25 45 -59 55 -77 11 -17 52 -70 92 -116 39 -46 72 -88 72 -92 0 -4
16 -29 35 -55 41 -56 43 -69 11 -107 -23 -28 -346 -455 -379 -503 -16 -23 -19
-23 -30 -8 -7 9 -30 41 -52 73 -22 31 -53 70 -68 88 -16 18 -69 86 -120 152
-50 66 -110 144 -134 173 -24 30 -43 62 -43 72 0 9 16 39 36 66 44 61 214 307
297 431 34 51 67 93 74 93 6 0 35 -33 64 -72z"/>
</g>
</svg>
