<?xml version="1.0" standalone="no"?>
<!DOCTYPE svg PUBLIC "-//W3C//DTD SVG 20010904//EN"
 "http://www.w3.org/TR/2001/REC-SVG-20010904/DTD/svg10.dtd">
<svg version="1.0" xmlns="http://www.w3.org/2000/svg"
 width="460.000000pt" height="590.000000pt" viewBox="0 0 460.000000 590.000000"
 preserveAspectRatio="xMidYMid meet">
<metadata>
Created by potrace 1.16, written by Peter Selinger 2001-2019
</metadata>
<g transform="translate(0.000000,590.000000) scale(0.500000,-0.500000)"
fill="#000000" stroke="none">
<path d="M432 1139 c-5 -2 -25 -22 -33 -33 -4 -6 -11 -14 -14 -18 -4 -4 -7
-10 -8 -12 -3 -8 -14 -25 -29 -40 -7 -9 -14 -18 -15 -21 -1 -3 -5 -11 -10 -17
-5 -6 -11 -15 -14 -21 -10 -17 -31 -48 -40 -57 -5 -5 -11 -14 -14 -19 -3 -6
-8 -14 -11 -17 -3 -4 -9 -13 -13 -20 -4 -7 -11 -17 -14 -21 -4 -4 -19 -26 -34
-49 -14 -23 -32 -47 -38 -54 -6 -7 -12 -16 -14 -20 -4 -9 -34 -54 -39 -59 -4
-4 -13 -17 -27 -38 -15 -22 -12 -49 6 -69 8 -9 27 -34 38 -49 3 -4 7 -10 10
-13 2 -3 7 -9 10 -13 3 -4 10 -14 15 -21 5 -7 13 -17 16 -22 4 -5 9 -12 12
-15 3 -4 11 -15 17 -24 6 -9 13 -18 15 -20 5 -3 17 -18 30 -35 4 -6 13 -17 18
-24 6 -7 12 -16 16 -21 3 -4 9 -12 13 -17 9 -9 21 -25 32 -41 4 -5 9 -12 12
-15 2 -3 7 -9 11 -14 12 -17 23 -32 32 -41 11 -13 19 -24 35 -48 56 -82 90
-81 120 2 2 6 8 14 13 20 5 5 15 18 21 27 7 9 18 24 25 32 8 8 16 20 20 26 4
8 9 14 14 17 5 3 9 9 12 15 2 5 6 11 9 14 2 3 9 12 15 21 6 9 17 23 24 32 7 9
21 27 31 40 10 13 20 27 22 30 3 3 8 11 12 16 3 6 10 13 15 16 5 3 9 8 11 14
2 4 5 10 8 13 2 3 11 15 20 27 8 12 20 28 25 35 5 7 14 20 20 28 6 8 14 20 18
26 12 14 11 20 -7 46 -8 12 -14 23 -15 29 -2 10 -13 28 -25 41 -5 5 -11 12
-13 16 -3 4 -10 14 -17 23 -7 8 -15 20 -19 25 -3 5 -9 12 -12 15 -5 6 -43 55
-53 70 -3 4 -9 11 -12 15 -4 4 -10 11 -14 16 -3 5 -8 13 -11 16 -7 9 -34 44
-40 53 -2 3 -6 10 -8 14 -3 4 -12 15 -20 24 -9 10 -18 19 -20 23 -4 7 -18 25
-32 40 -5 7 -15 20 -21 29 -6 9 -15 22 -20 28 -6 6 -14 16 -19 22 -15 19 -33
27 -48 22z m24 -86 c10 -12 15 -18 49 -64 15 -20 31 -41 37 -48 29 -34 62 -82
67 -97 2 -5 6 -12 9 -15 3 -3 8 -10 11 -14 3 -5 8 -11 13 -14 9 -5 14 -11 21
-23 3 -5 13 -16 21 -25 8 -9 20 -23 26 -31 6 -8 15 -19 19 -25 5 -5 10 -14 13
-18 2 -5 8 -15 13 -22 47 -68 47 -68 21 -96 -5 -6 -12 -15 -15 -21 -3 -6 -10
-15 -16 -22 -6 -6 -12 -14 -13 -16 -2 -3 -12 -17 -23 -32 -11 -14 -23 -30 -26
-35 -4 -5 -9 -11 -11 -14 -2 -3 -7 -9 -11 -14 -13 -20 -20 -29 -30 -40 -6 -7
-15 -19 -21 -27 -6 -8 -23 -31 -38 -51 -30 -40 -37 -49 -47 -64 -4 -5 -11 -16
-17 -22 -5 -7 -12 -17 -15 -21 -11 -16 -29 -36 -32 -36 -5 0 -37 43 -43 57 -2
5 -9 13 -15 19 -7 7 -13 16 -18 25 -5 10 -10 17 -17 23 -6 5 -12 12 -14 16 -2
5 -11 16 -19 25 -9 9 -19 21 -23 27 -14 19 -39 52 -53 69 -5 7 -14 19 -20 26
-5 7 -14 19 -19 25 -5 7 -13 18 -19 25 -5 8 -14 18 -18 24 -5 5 -16 19 -24 30
-8 11 -18 23 -22 28 -17 20 -15 37 6 65 5 6 10 14 12 17 1 4 5 8 8 11 3 2 9
10 13 18 9 15 22 34 45 68 18 24 44 63 62 90 9 13 17 25 19 27 4 5 37 53 89
131 51 76 51 76 65 61z"/>
</g>
</svg>
