<?xml version="1.0" standalone="no"?>
<!DOCTYPE svg PUBLIC "-//W3C//DTD SVG 20010904//EN"
 "http://www.w3.org/TR/2001/REC-SVG-20010904/DTD/svg10.dtd">
<svg version="1.0" xmlns="http://www.w3.org/2000/svg"
 width="78.000000pt" height="100.000000pt" viewBox="0 0 78.000000 100.000000"
 preserveAspectRatio="xMidYMid meet">
<metadata>
Created by potrace 1.16, written by Peter Selinger 2001-2019
</metadata>
<g transform="translate(0.000000,100.000000) scale(0.100000,-0.100000)"
fill="#000000" stroke="none">
<path d="M338 943 c-21 -25 -272 -393 -287 -421 -11 -21 -9 -29 14 -65 36 -53
305 -400 318 -409 17 -11 31 1 69 60 20 31 91 129 157 216 67 88 121 167 121
176 0 22 -34 72 -193 280 -144 188 -163 204 -199 163z m54 -66 c7 -8 33 -42
58 -77 25 -35 60 -81 77 -104 77 -97 133 -180 133 -197 0 -9 -24 -48 -53 -85
-30 -38 -89 -117 -131 -176 -43 -60 -81 -108 -86 -108 -4 0 -28 28 -53 63 -25
34 -86 114 -136 177 -50 63 -91 122 -91 130 0 8 36 67 81 130 44 63 101 148
126 188 26 39 50 72 54 72 4 0 14 -6 21 -13z"/>
</g>
</svg>
