<?xml version="1.0" standalone="no"?>
<!DOCTYPE svg PUBLIC "-//W3C//DTD SVG 20010904//EN"
 "http://www.w3.org/TR/2001/REC-SVG-20010904/DTD/svg10.dtd">
<svg version="1.0" xmlns="http://www.w3.org/2000/svg"
 width="78.000000pt" height="100.000000pt" viewBox="0 0 78.000000 100.000000"
 preserveAspectRatio="xMidYMid meet">
<metadata>
Created by potrace 1.16, written by Peter Selinger 2001-2019
</metadata>
<g transform="translate(0.000000,100.000000) scale(0.100000,-0.100000)"
fill="#000000" stroke="none">
<path d="M338 943 c-21 -25 -272 -393 -287 -421 -11 -21 -9 -29 15 -65 36 -55
304 -400 317 -409 18 -11 31 2 91 93 32 49 64 92 69 96 6 4 34 -20 62 -52 38
-42 57 -56 69 -52 36 14 30 38 -28 96 -31 31 -56 60 -56 64 0 5 24 38 53 75
30 37 63 81 75 98 l21 31 -32 51 c-18 29 -94 133 -170 232 -144 188 -163 204
-199 163z m54 -66 c7 -8 33 -42 58 -77 25 -35 60 -81 77 -104 76 -96 133 -180
133 -196 0 -15 -18 -43 -88 -138 l-24 -34 -53 52 c-57 56 -85 61 -85 16 0 -17
16 -38 52 -69 l52 -44 -23 -29 c-12 -16 -38 -50 -57 -76 -20 -27 -40 -48 -44
-48 -5 0 -28 28 -53 63 -25 34 -86 114 -136 177 -50 63 -91 122 -91 130 0 8
36 67 81 130 44 63 101 148 126 188 26 39 50 72 54 72 4 0 14 -6 21 -13z"/>
</g>
</svg>
