<?xml version="1.0" standalone="no"?>
<!DOCTYPE svg PUBLIC "-//W3C//DTD SVG 20010904//EN"
 "http://www.w3.org/TR/2001/REC-SVG-20010904/DTD/svg10.dtd">
<svg version="1.0" xmlns="http://www.w3.org/2000/svg"
 width="116.000000pt" height="148.000000pt" viewBox="0 0 116.000000 148.000000"
 preserveAspectRatio="xMidYMid meet">
<metadata>
Created by potrace 1.16, written by Peter Selinger 2001-2019
</metadata>
<g transform="translate(0.000000,148.000000) scale(0.100000,-0.100000)"
fill="#000000" stroke="none">
<path d="M502 1381 c-18 -22 -32 -44 -32 -49 0 -5 -7 -15 -16 -23 -8 -7 -36
-44 -61 -83 -25 -39 -48 -73 -52 -76 -3 -3 -20 -25 -36 -50 -17 -25 -76 -111
-132 -192 -58 -83 -103 -158 -103 -170 0 -13 36 -69 83 -129 45 -59 92 -119
104 -135 110 -144 261 -337 290 -372 34 -42 36 -43 55 -25 11 10 27 31 35 47
26 50 167 236 179 236 6 0 46 -36 88 -80 60 -63 82 -80 97 -75 10 4 19 10 19
15 0 5 2 15 6 23 4 12 -63 85 -143 155 -13 11 -23 23 -23 28 0 5 25 41 56 79
98 122 164 214 164 229 0 23 -51 104 -119 192 -34 44 -94 122 -134 174 -195
257 -249 320 -271 320 -14 0 -34 -15 -54 -39z m119 -123 c29 -40 70 -93 90
-118 20 -25 45 -59 55 -77 11 -17 52 -70 92 -116 39 -46 72 -88 72 -92 0 -4
16 -29 35 -55 19 -26 35 -54 35 -63 0 -8 -21 -42 -47 -76 -27 -33 -70 -90 -96
-126 l-48 -65 -78 82 c-79 83 -79 83 -100 64 -12 -11 -21 -28 -21 -38 0 -17
81 -101 131 -136 19 -13 26 -48 11 -54 -8 -3 -106 -129 -155 -198 -16 -23 -19
-23 -30 -8 -7 9 -30 41 -52 73 -22 31 -53 70 -68 88 -16 18 -69 86 -120 152
-50 66 -110 144 -134 173 -24 30 -43 62 -43 72 0 9 16 39 36 66 44 61 214 307
297 431 34 51 67 93 74 93 6 0 35 -33 64 -72z"/>
</g>
</svg>
