<?xml version="1.0" standalone="no"?>
<!DOCTYPE svg PUBLIC "-//W3C//DTD SVG 20010904//EN"
 "http://www.w3.org/TR/2001/REC-SVG-20010904/DTD/svg10.dtd">
<svg version="1.0" xmlns="http://www.w3.org/2000/svg"
 width="116.000000pt" height="148.000000pt" viewBox="0 0 116.000000 148.000000"
 preserveAspectRatio="xMidYMid meet">
<metadata>
Created by potrace 1.16, written by Peter Selinger 2001-2019
</metadata>
<g transform="translate(0.000000,148.000000) scale(0.100000,-0.100000)"
fill="#000000" stroke="none">
<path d="M502 1381 c-18 -22 -32 -44 -32 -49 0 -5 -7 -16 -16 -23 -9 -8 -28
-32 -42 -54 -13 -22 -55 -83 -92 -135 -191 -272 -250 -362 -250 -382 0 -14 39
-72 95 -143 52 -66 95 -122 95 -125 0 -3 -29 -35 -65 -70 -36 -35 -65 -68 -65
-73 0 -14 28 -37 45 -37 10 0 27 12 39 28 11 15 36 44 55 65 32 36 35 37 52
21 29 -26 23 -44 -33 -101 -51 -51 -51 -53 -33 -73 27 -30 39 -25 81 30 21 28
43 50 49 50 5 0 16 -10 24 -22 21 -36 123 -169 152 -201 l27 -28 21 28 c12 15
38 53 58 83 20 30 49 71 65 90 16 19 32 40 36 45 46 65 168 223 179 231 7 6
13 14 13 17 0 4 27 42 60 86 33 44 60 87 60 95 0 31 -35 82 -257 372 -267 349
-264 346 -321 275z m133 -142 c37 -50 91 -119 120 -153 29 -34 58 -73 65 -87
7 -13 35 -49 62 -80 26 -30 48 -59 48 -63 0 -5 16 -30 35 -56 19 -26 35 -55
35 -63 0 -8 -19 -39 -43 -69 -23 -29 -114 -149 -202 -265 -98 -131 -166 -213
-177 -213 -9 0 -27 15 -39 33 -12 17 -42 55 -66 84 -51 61 -50 66 21 131 25
23 46 47 46 52 0 5 -12 17 -26 27 -30 19 -28 20 -96 -67 -23 -29 -31 -33 -45
-24 -35 21 -26 48 32 103 30 29 55 55 55 58 0 12 -33 43 -46 43 -7 0 -30 -22
-51 -49 -21 -28 -43 -52 -49 -55 -14 -5 -164 192 -164 215 0 9 15 36 32 60 18
24 56 80 85 124 29 44 61 89 73 101 11 11 28 34 38 51 41 73 168 252 179 253
6 0 42 -41 78 -91z"/>
</g>
</svg>
