<?xml version="1.0" standalone="no"?>
<!DOCTYPE svg PUBLIC "-//W3C//DTD SVG 20010904//EN"
 "http://www.w3.org/TR/2001/REC-SVG-20010904/DTD/svg10.dtd">
<svg version="1.0" xmlns="http://www.w3.org/2000/svg"
 width="460.000000pt" height="590.000000pt" viewBox="0 0 460.000000 590.000000"
 preserveAspectRatio="xMidYMid meet">
<metadata>
Created by potrace 1.16, written by Peter Selinger 2001-2019
</metadata>
<g transform="translate(0.000000,590.000000) scale(0.500000,-0.500000)"
fill="#000000" stroke="none">
<path d="M432 1139 c-5 -2 -25 -22 -33 -33 -4 -6 -11 -14 -14 -18 -4 -4 -7
-10 -8 -12 -3 -8 -14 -25 -29 -40 -7 -9 -14 -18 -15 -21 -1 -3 -4 -10 -8 -14
-4 -5 -10 -14 -14 -21 -12 -21 -33 -50 -42 -60 -5 -5 -11 -14 -14 -20 -3 -6
-8 -14 -11 -17 -3 -3 -9 -12 -14 -20 -5 -8 -10 -16 -13 -19 -6 -6 -28 -41 -57
-86 -4 -6 -11 -15 -16 -21 -5 -5 -11 -14 -14 -18 -4 -9 -32 -52 -38 -58 -5 -6
-29 -41 -33 -48 -9 -18 -2 -44 17 -64 8 -10 14 -17 30 -39 3 -5 8 -11 11 -14
3 -3 8 -10 12 -15 8 -11 28 -36 38 -49 47 -58 48 -50 -12 -110 -59 -59 -58
-58 -34 -80 23 -20 25 -20 61 24 63 72 62 72 79 48 13 -19 14 -18 -35 -69 -40
-42 -41 -44 -17 -64 22 -19 25 -18 56 20 29 36 38 45 43 45 5 0 20 -19 45 -56
4 -5 11 -14 16 -20 9 -11 21 -27 37 -51 6 -9 18 -23 26 -32 8 -9 19 -20 23
-26 16 -17 55 18 67 61 2 5 7 13 12 19 5 5 15 18 21 27 6 9 16 22 21 27 14 15
23 27 28 36 2 5 8 11 12 15 4 4 10 10 12 15 6 10 13 20 31 39 7 8 13 15 13 16
0 2 3 7 8 13 4 5 13 19 21 29 7 10 18 25 23 32 5 7 13 18 17 23 3 6 10 12 14
15 4 3 9 9 11 14 3 5 7 11 9 14 2 3 11 14 18 25 7 11 16 23 19 26 5 7 13 17
29 40 5 8 13 19 17 25 12 14 11 20 -7 46 -8 12 -14 23 -15 29 -2 10 -13 28
-25 41 -5 5 -11 12 -13 16 -3 4 -10 14 -17 23 -7 8 -16 21 -21 28 -5 7 -12 16
-15 19 -2 3 -11 13 -18 23 -7 10 -16 21 -19 25 -3 4 -7 10 -10 14 -3 4 -9 11
-13 16 -5 6 -10 12 -11 15 -2 3 -6 10 -11 15 -5 5 -10 11 -11 13 -2 3 -11 15
-20 27 -10 13 -19 26 -21 30 -2 4 -11 14 -19 23 -9 10 -18 19 -20 23 -4 7 -18
25 -32 40 -5 7 -15 20 -21 29 -6 9 -15 22 -20 28 -6 6 -14 16 -19 22 -15 19
-33 27 -48 22z m24 -86 c9 -11 15 -19 40 -52 24 -32 31 -40 39 -51 23 -30 55
-72 60 -80 3 -5 14 -18 25 -29 14 -14 22 -24 27 -34 16 -30 20 -37 36 -53 9
-10 21 -24 27 -32 6 -8 15 -19 19 -25 5 -5 10 -14 13 -19 3 -5 9 -15 14 -22
45 -66 46 -68 20 -95 -5 -6 -12 -15 -15 -21 -3 -6 -10 -15 -16 -22 -6 -6 -12
-14 -13 -16 -1 -3 -12 -17 -23 -32 -11 -14 -24 -32 -28 -38 -5 -6 -12 -15 -16
-21 -4 -5 -13 -17 -22 -27 -8 -9 -15 -17 -15 -18 0 -1 -4 -6 -9 -12 -5 -6 -12
-16 -16 -23 -4 -7 -16 -23 -26 -36 -10 -13 -21 -28 -25 -34 -4 -5 -10 -13 -13
-18 -3 -4 -9 -11 -12 -16 -16 -23 -26 -37 -31 -42 -3 -3 -8 -10 -10 -14 -8
-15 -32 -18 -41 -6 -2 3 -9 10 -14 17 -6 6 -12 15 -14 19 -2 4 -9 13 -16 20
-7 7 -14 16 -17 22 -6 13 -10 18 -20 25 -24 17 -21 24 24 73 49 53 49 52 33
68 -26 24 -32 24 -52 -1 -25 -32 -54 -64 -57 -65 -11 -3 -30 21 -26 34 0 2 18
22 40 44 52 53 51 50 28 72 -24 22 -21 23 -75 -39 -33 -37 -34 -37 -54 -8 -6
8 -14 20 -18 25 -4 6 -11 16 -17 24 -5 7 -12 16 -15 20 -4 3 -9 10 -13 15 -9
13 -14 20 -22 30 -20 25 -20 41 1 68 6 8 12 16 14 19 1 3 6 9 9 12 4 3 8 9 9
13 4 8 45 69 62 92 14 17 20 28 22 37 1 7 6 12 17 19 13 7 24 20 25 31 1 5 3
12 6 15 2 3 7 10 11 14 8 11 34 50 75 112 51 76 51 76 65 61z"/>
</g>
</svg>
