<?xml version="1.0" standalone="no"?>
<!DOCTYPE svg PUBLIC "-//W3C//DTD SVG 20010904//EN"
 "http://www.w3.org/TR/2001/REC-SVG-20010904/DTD/svg10.dtd">
<svg version="1.0" xmlns="http://www.w3.org/2000/svg"
 width="118.000000pt" height="148.000000pt" viewBox="0 0 118.000000 148.000000"
 preserveAspectRatio="xMidYMid meet">
<metadata>
Created by potrace 1.16, written by Peter Selinger 2001-2019
</metadata>
<g transform="translate(0.000000,148.000000) scale(0.100000,-0.100000)"
fill="#000000" stroke="none">
<path d="M484 1334 c-33 -48 -68 -98 -80 -111 l-20 -26 -79 102 c-44 55 -87
101 -95 101 -19 0 -40 -19 -40 -36 0 -6 41 -57 90 -113 82 -92 89 -104 79
-124 -22 -42 -50 -77 -62 -77 -7 1 -50 50 -97 110 -47 60 -90 110 -96 110 -16
0 -34 -22 -34 -43 0 -17 39 -68 138 -177 23 -26 42 -55 42 -64 0 -16 -73 -125
-151 -227 -32 -41 -30 -45 43 -126 21 -24 38 -47 38 -53 0 -6 19 -31 41 -55
l41 -45 -25 -32 c-14 -18 -33 -42 -43 -53 -11 -11 -31 -36 -45 -55 -15 -19
-36 -46 -48 -59 -11 -13 -21 -29 -21 -36 0 -12 47 -42 53 -34 2 2 39 50 81
106 43 57 81 103 85 103 4 0 24 -23 45 -50 l38 -50 -23 -29 c-13 -16 -57 -69
-96 -117 -40 -49 -73 -92 -73 -97 0 -4 11 -12 25 -19 32 -14 41 -7 127 110 37
50 72 92 77 92 5 0 42 -45 83 -99 40 -55 82 -103 92 -107 23 -8 63 34 140 145
27 39 52 68 57 66 4 -3 44 -53 89 -111 85 -109 112 -126 118 -71 3 22 -14 47
-82 129 -47 57 -86 106 -86 109 0 12 73 99 84 99 6 -1 36 -37 66 -82 30 -44
71 -99 91 -121 32 -36 39 -39 53 -28 9 7 16 20 16 29 0 8 -40 68 -90 133 -49
65 -90 123 -90 128 0 6 28 45 63 88 124 155 120 148 103 180 -8 15 -25 39 -38
53 -60 65 -138 171 -138 187 1 10 43 72 95 138 87 111 92 121 78 137 -9 10
-23 18 -32 18 -14 0 -124 -144 -159 -207 -17 -30 -38 -29 -67 5 -44 50 -43 56
45 164 92 113 97 122 80 143 -24 29 -45 14 -103 -68 -32 -45 -68 -95 -81 -111
l-23 -28 -93 121 c-56 74 -99 121 -110 121 -11 0 -40 -33 -76 -86z m283 -259
c174 -221 241 -307 262 -335 12 -18 7 -27 -45 -94 -33 -40 -93 -117 -134 -170
-41 -54 -86 -109 -98 -124 -13 -15 -55 -68 -94 -119 -38 -50 -75 -90 -81 -87
-7 2 -34 37 -62 76 -27 39 -72 99 -100 133 -27 35 -67 84 -87 111 -21 27 -72
93 -114 146 -82 105 -83 113 -40 166 13 15 60 81 104 147 93 138 190 278 246
355 l39 54 23 -30 c13 -16 95 -119 181 -229z"/>
</g>
</svg>
