<?xml version="1.0" standalone="no"?>
<!DOCTYPE svg PUBLIC "-//W3C//DTD SVG 20010904//EN"
 "http://www.w3.org/TR/2001/REC-SVG-20010904/DTD/svg10.dtd">
<svg version="1.0" xmlns="http://www.w3.org/2000/svg"
 width="80.000000pt" height="100.000000pt" viewBox="0 0 80.000000 100.000000"
 preserveAspectRatio="xMidYMid meet">
<metadata>
Created by potrace 1.16, written by Peter Selinger 2001-2019
</metadata>
<g transform="translate(0.000000,100.000000) scale(0.100000,-0.100000)"
fill="#000000" stroke="none">
<path d="M318 895 c-23 -36 -48 -65 -54 -65 -7 0 -32 26 -56 58 -45 58 -83 78
-94 48 -4 -10 8 -33 32 -62 92 -109 88 -101 70 -129 -9 -14 -21 -25 -26 -25
-5 0 -34 32 -65 71 -57 71 -87 85 -93 44 -2 -13 19 -44 58 -87 33 -36 60 -72
60 -80 0 -7 -25 -48 -55 -90 -30 -42 -55 -83 -55 -91 0 -8 25 -45 55 -83 30
-38 55 -74 55 -81 0 -7 -25 -40 -55 -74 -37 -41 -55 -70 -53 -83 6 -42 36 -29
88 38 54 69 73 79 90 47 16 -30 12 -56 -11 -77 -12 -10 -39 -41 -61 -68 -30
-38 -36 -51 -27 -62 6 -8 17 -14 24 -14 15 0 62 51 94 103 12 20 26 37 31 37
5 0 29 -30 55 -66 58 -81 81 -83 133 -14 67 91 62 87 86 58 12 -13 36 -46 54
-72 21 -31 39 -46 50 -44 35 7 24 44 -34 113 -56 65 -58 68 -43 93 25 44 41
37 98 -43 52 -72 72 -87 86 -64 12 19 -4 54 -54 114 -28 33 -51 67 -51 77 0 9
20 40 43 70 44 53 67 90 67 105 0 5 -27 42 -60 82 -33 41 -60 80 -60 88 0 8
28 50 61 94 61 79 70 109 30 109 -12 0 -38 -26 -73 -75 -54 -76 -65 -84 -86
-63 -22 22 -13 46 43 114 58 70 65 97 28 102 -18 3 -32 -11 -69 -67 -26 -39
-51 -71 -56 -71 -4 0 -23 21 -41 47 -53 77 -78 103 -97 103 -12 0 -34 -24 -62
-65z m118 -68 c22 -28 88 -114 147 -189 59 -75 107 -142 107 -150 -1 -18 -280
-373 -293 -373 -15 0 -287 353 -287 372 0 11 205 320 253 381 17 21 31 13 73
-41z"/>
</g>
</svg>
