<?xml version="1.0" standalone="no"?>
<!DOCTYPE svg PUBLIC "-//W3C//DTD SVG 20010904//EN"
 "http://www.w3.org/TR/2001/REC-SVG-20010904/DTD/svg10.dtd">
<svg version="1.0" xmlns="http://www.w3.org/2000/svg"
 width="474.000000pt" height="590.000000pt" viewBox="0 0 474.000000 590.000000"
 preserveAspectRatio="xMidYMid meet">
<metadata>
Created by potrace 1.16, written by Peter Selinger 2001-2019
</metadata>
<g transform="translate(0.000000,590.000000) scale(0.500000,-0.500000)"
fill="#000000" stroke="none">
<path d="M440 1132 c-4 -3 -12 -11 -17 -18 -5 -7 -12 -16 -16 -20 -4 -4 -7 -8
-7 -9 0 -2 -15 -25 -29 -44 -5 -7 -17 -24 -26 -38 -30 -45 -32 -45 -59 -9 -6
8 -15 20 -21 26 -6 7 -11 13 -11 14 0 1 -5 7 -11 14 -5 6 -13 16 -17 21 -4 6
-12 15 -18 22 -6 7 -14 16 -17 20 -12 16 -16 17 -34 5 -21 -14 -25 -22 -16
-33 13 -19 23 -31 33 -41 6 -7 16 -17 21 -24 6 -7 13 -16 17 -21 4 -4 9 -11
11 -15 2 -3 7 -9 12 -12 4 -4 11 -10 15 -15 4 -5 12 -14 18 -21 14 -17 13 -28
-4 -48 -5 -5 -13 -16 -19 -25 -13 -20 -19 -23 -27 -13 -3 4 -11 13 -18 21 -8
8 -14 16 -14 17 0 1 -7 9 -16 19 -8 9 -18 20 -21 25 -3 4 -10 14 -16 20 -6 6
-12 13 -13 16 -1 2 -8 12 -16 21 -8 9 -16 19 -19 23 -16 19 -55 -17 -45 -43 3
-7 22 -28 34 -35 9 -7 22 -24 25 -32 1 -3 6 -9 11 -15 5 -5 12 -14 16 -20 4
-5 19 -22 33 -37 36 -37 36 -46 -2 -90 -3 -4 -14 -19 -24 -33 -9 -14 -25 -36
-34 -49 -9 -13 -23 -31 -29 -41 -7 -10 -15 -21 -18 -25 -8 -8 -8 -16 0 -24 3
-4 9 -12 13 -19 3 -7 16 -22 27 -34 22 -23 31 -35 47 -64 7 -12 13 -20 18 -24
16 -12 31 -33 31 -42 0 -8 -27 -43 -55 -73 -9 -9 -21 -24 -27 -32 -11 -16 -25
-34 -43 -54 -19 -22 -15 -36 14 -48 14 -6 21 -3 29 11 3 4 10 13 16 20 5 6 10
12 10 13 0 1 4 6 10 12 8 10 13 17 36 48 4 6 11 14 16 19 4 5 9 11 11 14 10
21 43 21 43 1 0 -1 4 -6 9 -12 35 -38 37 -49 10 -74 -4 -4 -11 -12 -16 -18 -4
-6 -10 -13 -13 -15 -3 -3 -9 -10 -12 -16 -4 -5 -14 -18 -24 -29 -9 -10 -19
-23 -22 -28 -4 -5 -11 -14 -17 -20 -28 -30 -25 -54 8 -56 22 -1 35 11 86 83 6
7 15 19 20 26 6 6 12 15 14 18 2 3 8 11 13 16 5 6 11 13 13 16 8 9 18 0 37
-30 3 -4 8 -11 12 -14 3 -3 8 -9 10 -13 3 -4 6 -9 9 -11 4 -5 19 -27 28 -40 3
-4 9 -12 14 -17 5 -5 10 -12 13 -17 8 -14 36 -21 51 -12 12 6 47 47 50 58 2 8
6 15 13 22 5 6 11 13 13 17 1 3 4 7 6 8 2 2 7 8 11 15 35 51 41 49 93 -27 7
-10 20 -27 29 -36 8 -9 20 -24 25 -32 15 -24 22 -30 36 -30 35 0 38 36 7 70
-24 25 -37 41 -42 48 -3 4 -9 12 -15 18 -49 56 -61 74 -55 86 5 9 31 42 46 58
12 13 18 10 38 -17 7 -9 40 -54 58 -78 4 -5 9 -14 12 -19 12 -23 49 -64 59
-64 30 0 34 35 9 68 -21 27 -32 43 -37 53 -3 5 -11 16 -19 24 -13 14 -34 40
-53 67 -15 22 -14 36 5 57 5 5 11 13 14 17 3 4 9 12 14 17 5 6 12 14 15 19 7
9 18 23 33 40 51 60 54 77 21 113 -4 5 -11 13 -15 19 -12 17 -25 32 -35 44 -6
7 -13 15 -16 19 -2 5 -6 10 -9 12 -2 2 -8 8 -12 14 -3 5 -10 14 -14 18 -25 27
-30 43 -17 56 3 5 8 12 11 16 2 4 8 13 13 19 4 6 11 16 15 21 4 5 10 13 13 17
8 9 34 43 43 56 3 5 11 14 17 21 27 32 31 45 14 61 -22 20 -34 15 -60 -25 -11
-18 -17 -26 -30 -41 -4 -4 -15 -19 -25 -35 -44 -64 -47 -68 -54 -71 -7 -4 -18
-3 -18 2 0 1 -5 7 -11 13 -27 30 -32 45 -20 63 10 17 60 81 66 86 2 2 9 10 15
18 11 15 17 22 32 40 20 25 19 33 -3 48 -22 16 -26 13 -61 -36 -9 -13 -19 -26
-22 -29 -3 -3 -9 -11 -13 -17 -4 -6 -11 -16 -16 -23 -5 -7 -12 -16 -15 -20 -9
-15 -29 -35 -34 -35 -5 0 -26 24 -42 50 -4 6 -11 15 -16 20 -12 14 -28 33 -35
44 -4 5 -10 12 -14 16 -3 4 -8 10 -10 13 -20 33 -43 47 -59 35z m36 -95 c9 -9
16 -18 16 -19 0 -1 6 -8 13 -16 7 -8 13 -15 13 -16 0 -1 3 -5 7 -10 4 -5 8
-12 10 -15 2 -4 8 -12 14 -19 17 -16 29 -31 41 -49 6 -9 14 -19 17 -22 7 -7
18 -21 38 -45 6 -8 15 -20 20 -26 5 -6 12 -14 15 -19 3 -4 9 -12 14 -18 5 -5
11 -13 13 -16 2 -4 8 -11 13 -16 4 -6 11 -14 15 -19 4 -5 14 -18 22 -29 9 -11
16 -22 17 -25 1 -3 5 -8 9 -11 4 -3 11 -10 15 -16 4 -5 13 -15 19 -22 21 -22
21 -32 -1 -58 -13 -16 -33 -40 -45 -57 -6 -6 -14 -17 -18 -22 -4 -6 -12 -15
-16 -21 -4 -6 -11 -14 -15 -19 -9 -11 -19 -23 -29 -36 -3 -5 -10 -13 -14 -18
-5 -5 -10 -12 -13 -16 -3 -4 -8 -11 -12 -15 -7 -7 -20 -25 -31 -42 -3 -3 -9
-12 -15 -18 -6 -7 -14 -16 -17 -20 -3 -4 -9 -10 -13 -12 -5 -4 -9 -8 -11 -15
-2 -5 -9 -15 -17 -23 -7 -8 -17 -20 -21 -27 -4 -7 -12 -17 -16 -23 -5 -5 -11
-12 -12 -15 -27 -41 -36 -38 -79 26 -5 7 -12 17 -16 21 -4 4 -9 12 -11 16 -2
4 -7 12 -11 16 -5 5 -8 10 -8 12 0 2 -9 13 -21 25 -12 12 -21 23 -21 24 0 1
-6 8 -13 16 -7 7 -18 21 -25 31 -6 10 -13 19 -14 20 -1 1 -9 10 -17 20 -28 38
-33 44 -41 55 -13 17 -21 28 -31 40 -9 11 -15 19 -28 37 -3 5 -10 13 -14 18
-29 34 -32 39 -27 57 2 9 19 35 27 42 3 3 8 10 11 17 4 7 12 17 18 24 7 7 15
18 19 27 4 8 12 20 17 25 5 6 12 16 16 23 8 15 18 32 26 41 3 3 10 13 16 22 6
9 15 21 20 26 5 6 14 19 20 29 6 10 13 22 16 25 3 3 12 17 21 30 9 13 17 26
20 28 4 5 19 27 50 72 19 29 32 42 36 40 1 -1 10 -10 19 -20z"/>
</g>
</svg>
