<?xml version="1.0" standalone="no"?>
<!DOCTYPE svg PUBLIC "-//W3C//DTD SVG 20010904//EN"
 "http://www.w3.org/TR/2001/REC-SVG-20010904/DTD/svg10.dtd">
<svg version="1.0" xmlns="http://www.w3.org/2000/svg"
 width="78.000000pt" height="100.000000pt" viewBox="0 0 78.000000 100.000000"
 preserveAspectRatio="xMidYMid meet">
<metadata>
Created by potrace 1.16, written by Peter Selinger 2001-2019
</metadata>
<g transform="translate(0.000000,100.000000) scale(0.100000,-0.100000)"
fill="#000000" stroke="none">
<path d="M47 959 c-12 -7 -17 -23 -17 -53 0 -52 18 -73 49 -56 16 8 21 20 21
55 0 49 -21 71 -53 54z"/>
<path d="M322 918 c-115 -157 -272 -399 -272 -419 0 -14 48 -86 122 -184 179
-235 212 -275 225 -275 7 0 25 19 40 42 15 24 83 117 152 208 143 191 148 201
133 234 -18 39 -312 425 -332 436 -27 14 -26 15 -68 -42z m193 -203 c70 -93
132 -181 138 -194 14 -30 11 -36 -137 -234 -82 -109 -121 -155 -131 -150 -11
7 -194 244 -254 329 l-24 35 118 177 c130 193 145 214 156 210 3 -2 64 -79
134 -173z"/>
<path d="M686 957 c-13 -9 -17 -24 -14 -56 6 -84 68 -79 68 5 0 50 -24 73 -54
51z"/>
<path d="M47 149 c-25 -15 -24 -105 2 -112 34 -8 51 11 51 58 0 49 -21 71 -53
54z"/>
<path d="M686 144 c-24 -24 -21 -91 5 -104 31 -17 49 4 49 56 0 51 -27 76 -54
48z"/>
</g>
</svg>
