<?xml version="1.0" standalone="no"?>
<!DOCTYPE svg PUBLIC "-//W3C//DTD SVG 20010904//EN"
 "http://www.w3.org/TR/2001/REC-SVG-20010904/DTD/svg10.dtd">
<svg version="1.0" xmlns="http://www.w3.org/2000/svg"
 width="460.000000pt" height="590.000000pt" viewBox="0 0 460.000000 590.000000"
 preserveAspectRatio="xMidYMid meet">
<metadata>
Created by potrace 1.16, written by Peter Selinger 2001-2019
</metadata>
<g transform="translate(0.000000,590.000000) scale(0.500000,-0.500000)"
fill="#000000" stroke="none">
<path d="M431 1137 c-12 -5 -40 -40 -54 -66 -4 -7 -15 -21 -23 -31 -9 -10 -18
-21 -19 -25 -2 -4 -6 -11 -10 -16 -3 -4 -11 -16 -17 -26 -14 -23 -27 -42 -37
-53 -5 -5 -11 -14 -14 -19 -3 -6 -7 -13 -10 -16 -2 -3 -10 -14 -17 -24 -7 -10
-19 -27 -27 -39 -7 -12 -21 -33 -31 -47 -9 -15 -20 -31 -25 -36 -5 -6 -13 -18
-19 -27 -5 -9 -16 -26 -24 -37 -58 -81 -59 -91 -26 -128 5 -6 14 -17 20 -26 6
-8 15 -21 20 -27 13 -17 27 -35 34 -46 4 -5 11 -14 15 -20 5 -6 15 -20 22 -30
7 -11 15 -21 17 -22 4 -4 23 -26 32 -38 3 -5 15 -21 27 -36 11 -15 28 -36 36
-47 8 -11 19 -25 25 -32 5 -7 14 -19 20 -27 6 -8 15 -19 19 -24 11 -12 34 -43
44 -59 46 -73 89 -72 113 4 3 9 11 22 18 28 2 2 10 12 17 23 8 10 19 25 26 33
8 8 16 19 19 24 3 6 10 14 16 20 5 5 10 11 10 12 0 4 18 28 30 40 6 6 13 15
16 20 9 14 26 39 38 54 5 7 15 21 23 32 8 11 18 23 22 26 4 3 9 8 10 12 2 4 5
9 8 12 2 3 11 16 20 29 9 12 20 27 24 33 4 6 14 19 21 30 7 10 16 22 20 27 9
13 8 20 -8 44 -7 10 -14 23 -15 28 -3 12 -10 24 -21 38 -9 10 -13 15 -41 53
-9 12 -20 26 -24 31 -4 5 -13 17 -20 26 -7 9 -16 21 -20 27 -4 5 -10 13 -13
17 -3 4 -8 11 -12 15 -4 5 -9 12 -12 16 -2 5 -6 10 -8 12 -2 2 -9 9 -14 16 -5
7 -14 19 -21 28 -7 9 -14 20 -17 25 -3 5 -12 17 -21 26 -8 9 -17 19 -19 22 -1
3 -6 10 -11 15 -4 6 -10 13 -12 16 -2 3 -7 10 -12 15 -5 5 -14 17 -20 26 -6
10 -12 19 -14 20 -2 2 -8 9 -14 17 -24 32 -41 41 -60 32z m24 -82 c4 -5 10
-11 12 -16 3 -4 8 -10 12 -15 4 -4 12 -15 19 -24 25 -33 44 -59 51 -68 4 -5
11 -15 17 -22 5 -7 13 -17 17 -23 4 -5 11 -15 15 -21 4 -6 15 -19 25 -29 17
-17 24 -27 36 -52 3 -6 13 -19 21 -28 9 -9 18 -20 22 -25 4 -5 13 -18 21 -28
8 -11 17 -23 20 -28 3 -5 13 -21 23 -35 35 -51 35 -54 10 -81 -5 -6 -12 -16
-16 -22 -3 -6 -10 -16 -14 -21 -5 -5 -15 -18 -22 -28 -30 -42 -64 -87 -79
-103 -10 -10 -17 -19 -17 -21 0 -1 -4 -7 -9 -13 -5 -6 -12 -16 -16 -23 -7 -10
-26 -36 -49 -67 -7 -9 -18 -24 -27 -37 -4 -5 -12 -17 -19 -26 -7 -9 -15 -21
-19 -26 -8 -13 -12 -15 -25 -15 -13 0 -15 1 -22 12 -4 5 -9 11 -12 13 -2 2 -7
9 -10 16 -3 7 -10 16 -16 22 -6 6 -13 16 -17 23 -6 12 -19 28 -23 28 -1 0 -5
6 -9 13 -4 6 -11 16 -16 21 -13 12 -53 66 -57 77 -3 9 -20 32 -28 37 -10 7
-15 14 -31 35 -7 10 -16 21 -19 25 -3 4 -8 11 -11 16 -4 5 -9 11 -11 13 -4 3
-37 46 -49 64 -9 12 -5 33 9 52 5 6 11 15 13 19 3 4 7 9 10 12 3 3 7 9 10 14
6 11 48 75 61 91 12 16 20 27 21 34 3 11 7 17 16 22 15 9 26 23 29 36 2 8 4
14 11 21 5 6 12 15 15 21 3 5 12 19 20 30 13 19 39 58 63 95 28 42 33 46 44
35z"/>
<path d="M55 1135 c-16 -2 -16 -4 -18 -59 -1 -72 -2 -70 38 -70 41 0 39 -2 39
62 0 68 -3 72 -59 67z"/>
<path d="M811 1134 c-10 -4 -11 -10 -11 -64 0 -67 -2 -64 37 -64 36 0 54 56
36 116 -2 11 -47 19 -62 12z"/>
<path d="M55 176 c-14 -4 -16 -15 -17 -89 0 -41 -1 -40 39 -39 45 1 65 128 20
128 -3 0 -13 0 -21 1 -8 0 -18 0 -21 -1z"/>
<path d="M811 175 c-13 -6 -17 -111 -4 -122 8 -7 52 -8 60 0 14 12 13 113 -1
121 -7 4 -48 5 -55 1z"/>
</g>
</svg>
