<?xml version="1.0" standalone="no"?>
<!DOCTYPE svg PUBLIC "-//W3C//DTD SVG 20010904//EN"
 "http://www.w3.org/TR/2001/REC-SVG-20010904/DTD/svg10.dtd">
<svg version="1.0" xmlns="http://www.w3.org/2000/svg"
 width="116.000000pt" height="148.000000pt" viewBox="0 0 116.000000 148.000000"
 preserveAspectRatio="xMidYMid meet">
<metadata>
Created by potrace 1.16, written by Peter Selinger 2001-2019
</metadata>
<g transform="translate(0.000000,148.000000) scale(0.100000,-0.100000)"
fill="#000000" stroke="none">
<path d="M57 1413 c-5 -8 -10 -106 -8 -141 1 -9 14 -12 44 -10 l42 3 0 75 0
75 -37 3 c-20 2 -38 -1 -41 -5z"/>
<path d="M522 1405 c-7 -8 -26 -34 -42 -57 -80 -114 -215 -309 -246 -357 -20
-29 -65 -94 -100 -144 -35 -50 -64 -99 -64 -109 0 -14 107 -169 130 -188 3 -3
17 -21 30 -40 13 -19 27 -37 30 -40 3 -3 44 -54 90 -115 151 -199 165 -216
201 -257 21 -24 41 -38 47 -34 7 4 24 28 39 54 15 26 61 91 102 145 71 91 138
180 221 293 19 26 54 73 78 104 41 56 52 93 32 105 -6 4 -16 21 -24 38 -12 28
-144 205 -330 442 -30 39 -73 94 -96 123 -42 54 -72 66 -98 37z m112 -164 c36
-49 92 -122 126 -161 33 -40 60 -76 60 -81 0 -5 15 -26 33 -46 48 -55 147
-200 147 -216 0 -7 -44 -71 -97 -141 -120 -157 -161 -212 -238 -320 -66 -93
-90 -105 -122 -61 -33 46 -73 100 -85 115 -45 51 -108 134 -108 141 0 5 -15
25 -34 46 -58 64 -166 206 -166 217 0 14 172 271 204 306 13 14 25 30 27 36
10 29 165 254 176 254 6 0 41 -40 77 -89z"/>
<path d="M1017 1414 c-4 -4 -7 -41 -7 -81 l0 -74 43 3 42 3 0 75 0 75 -35 3
c-20 2 -39 0 -43 -4z"/>
<path d="M57 214 c-4 -4 -7 -40 -7 -81 l0 -73 45 0 46 0 -3 77 -3 78 -35 3
c-20 2 -39 0 -43 -4z"/>
<path d="M1017 214 c-4 -4 -7 -41 -7 -81 l0 -74 43 3 42 3 0 75 0 75 -35 3
c-20 2 -39 0 -43 -4z"/>
</g>
</svg>
