<?xml version="1.0" standalone="no"?>
<!DOCTYPE svg PUBLIC "-//W3C//DTD SVG 20010904//EN"
 "http://www.w3.org/TR/2001/REC-SVG-20010904/DTD/svg10.dtd">
<svg version="1.0" xmlns="http://www.w3.org/2000/svg"
 width="652.000000pt" height="590.000000pt" viewBox="0 0 652.000000 590.000000"
 preserveAspectRatio="xMidYMid meet">
<metadata>
Created by potrace 1.16, written by Peter Selinger 2001-2019
</metadata>
<g transform="translate(0.000000,590.000000) scale(0.500000,-0.500000)"
fill="#000000" stroke="none">
<path d="M104 1138 c-10 -4 -10 -4 -13 -104 -2 -51 -3 -97 -4 -103 -1 -5 -2
-41 -3 -80 -1 -38 -3 -86 -4 -105 -1 -19 -3 -64 -4 -100 -1 -36 -3 -89 -5
-119 -2 -30 -4 -81 -5 -115 -1 -34 -3 -75 -4 -92 -1 -17 -3 -58 -4 -92 -1 -34
-4 -79 -5 -100 -6 -79 -5 -81 22 -81 21 1 23 3 23 38 0 15 1 54 3 88 2 34 4
91 5 127 1 36 3 80 4 98 1 18 2 52 3 76 1 24 3 68 4 99 2 31 4 80 5 110 1 30
3 78 5 108 2 30 4 78 5 107 1 29 3 74 5 99 5 71 6 129 3 134 -4 8 -24 11 -36
7z"/>
<path d="M191 1137 c-10 -4 -11 -10 -12 -67 -1 -28 -2 -77 -4 -109 -2 -32 -4
-83 -5 -114 -1 -31 -3 -71 -4 -89 -1 -18 -2 -51 -3 -73 -1 -22 -3 -71 -5 -109
-2 -38 -4 -83 -5 -100 -1 -17 -2 -51 -4 -75 -2 -24 -3 -60 -4 -80 -1 -20 -3
-63 -5 -97 -11 -181 -12 -176 14 -178 27 -1 26 -4 30 116 1 37 3 81 4 98 1 17
3 57 4 89 1 32 3 76 4 98 1 22 3 67 4 100 1 33 3 79 5 103 2 24 4 65 5 91 1
26 3 67 5 90 1 23 3 57 4 76 1 19 3 59 5 89 7 95 7 132 3 138 -5 6 -26 8 -36
3z"/>
<path d="M624 1139 c-11 -5 -42 -42 -58 -70 -5 -9 -16 -23 -24 -31 -7 -8 -15
-19 -17 -23 -2 -4 -7 -12 -11 -18 -4 -5 -10 -14 -13 -20 -10 -17 -31 -47 -40
-57 -5 -5 -11 -14 -14 -20 -3 -6 -9 -15 -13 -20 -4 -5 -9 -13 -12 -17 -2 -5
-8 -14 -14 -21 -9 -12 -20 -30 -50 -75 -7 -11 -17 -24 -21 -30 -5 -5 -12 -14
-14 -20 -5 -9 -26 -40 -50 -74 -31 -44 -32 -63 -4 -93 4 -5 13 -16 19 -24 11
-16 17 -24 31 -44 5 -6 11 -15 14 -19 6 -9 17 -22 30 -40 5 -5 13 -18 20 -27
6 -10 12 -18 13 -18 2 0 20 -22 34 -41 4 -5 11 -14 15 -20 4 -6 11 -14 14 -19
3 -5 10 -13 14 -18 8 -8 16 -19 33 -42 17 -23 21 -29 27 -36 4 -4 8 -10 11
-14 3 -4 9 -12 14 -17 9 -10 13 -16 36 -48 21 -30 59 -71 66 -71 5 0 38 32 38
36 0 2 3 7 6 12 3 5 8 14 10 21 3 7 8 16 14 22 5 5 15 18 21 27 7 9 18 24 26
32 7 8 16 20 19 27 4 7 9 13 14 17 5 3 10 9 12 14 5 10 12 20 29 37 7 8 14 17
17 22 6 10 34 51 48 69 5 7 13 18 17 23 4 6 11 14 16 18 5 4 10 10 11 14 1 4
5 10 8 14 3 3 12 15 20 27 8 12 18 26 23 33 5 7 15 21 23 33 8 12 17 24 19 27
8 9 7 16 -12 43 -6 9 -11 19 -12 25 -3 11 -13 27 -26 44 -8 8 -25 30 -31 40
-2 2 -6 8 -10 13 -4 5 -8 11 -10 14 -1 2 -6 8 -11 14 -4 5 -11 14 -15 19 -4 5
-11 15 -15 21 -5 6 -13 16 -17 23 -5 7 -12 16 -17 21 -5 5 -10 12 -12 15 -2 3
-6 9 -9 13 -3 4 -12 15 -19 24 -7 10 -16 22 -20 26 -3 5 -9 13 -11 18 -2 5
-11 16 -20 25 -9 9 -17 19 -19 22 -4 7 -18 24 -34 43 -6 7 -15 20 -21 28 -5 9
-14 20 -19 27 -6 6 -13 14 -16 19 -14 20 -36 31 -51 25z m22 -84 c4 -5 9 -11
12 -15 3 -4 8 -11 13 -16 4 -5 18 -24 31 -41 13 -17 27 -36 31 -41 5 -5 10
-12 13 -16 3 -4 9 -12 13 -17 23 -29 35 -47 42 -61 2 -4 8 -12 14 -18 6 -6 12
-15 14 -18 2 -4 8 -11 13 -16 5 -5 11 -13 14 -17 2 -4 10 -14 17 -21 7 -7 16
-17 20 -22 3 -5 9 -13 12 -17 16 -19 28 -34 30 -39 2 -5 28 -44 37 -56 21 -27
21 -40 -1 -62 -5 -5 -12 -15 -17 -23 -5 -8 -13 -19 -18 -24 -5 -6 -15 -18 -22
-28 -6 -10 -17 -24 -23 -32 -6 -8 -17 -23 -25 -34 -8 -11 -22 -27 -30 -36 -9
-9 -16 -18 -16 -19 0 -1 -4 -7 -9 -13 -5 -6 -13 -16 -17 -23 -6 -9 -29 -41
-48 -66 -13 -17 -22 -30 -29 -39 -11 -16 -39 -54 -44 -60 -7 -9 -32 -8 -37 1
-1 4 -8 12 -13 18 -6 6 -11 14 -12 17 -1 3 -8 12 -15 20 -8 8 -16 19 -18 25
-6 12 -12 19 -19 24 -4 3 -10 10 -14 17 -4 7 -10 15 -13 18 -6 5 -22 23 -32
37 -3 5 -11 15 -16 22 -6 7 -12 16 -16 21 -3 4 -9 13 -15 19 -5 6 -13 16 -17
21 -4 5 -11 14 -15 20 -4 6 -11 15 -15 20 -4 5 -10 13 -13 17 -4 4 -8 10 -11
14 -3 4 -9 12 -14 17 -5 6 -14 17 -20 25 -6 8 -15 19 -19 24 -18 22 -18 39 2
65 6 8 12 17 14 20 1 4 6 9 9 11 3 3 7 9 10 14 2 4 10 16 17 27 28 41 42 60
46 65 2 3 17 24 33 48 16 24 30 45 32 47 5 5 35 50 93 135 51 76 49 74 61 61z"/>
<path d="M1077 1135 c-6 -6 -6 -45 0 -128 2 -21 4 -60 5 -87 1 -27 3 -68 5
-91 2 -23 4 -63 5 -89 1 -26 3 -68 5 -93 2 -25 4 -73 5 -106 1 -33 3 -75 4
-94 1 -19 2 -53 3 -77 1 -24 2 -66 4 -94 2 -28 4 -82 5 -121 3 -112 3 -111 32
-109 23 2 23 0 12 184 -2 35 -5 84 -6 110 -1 26 -3 73 -5 105 -8 158 -11 211
-12 245 -1 20 -2 62 -4 92 -2 30 -4 84 -5 119 -1 35 -3 65 -3 65 -1 1 -2 35
-3 76 -2 89 -2 89 -11 94 -10 6 -30 6 -36 -1z"/>
<path d="M1170 1139 c-12 -3 -13 -30 -5 -145 2 -25 4 -70 5 -100 1 -30 3 -78
5 -107 2 -29 4 -78 5 -110 1 -32 3 -72 4 -89 1 -17 3 -60 4 -95 1 -35 3 -90 5
-122 1 -32 3 -78 4 -103 1 -25 3 -71 4 -102 2 -31 3 -68 3 -82 0 -34 2 -37 23
-37 28 0 28 1 22 82 -2 23 -4 69 -5 102 -1 33 -3 75 -4 93 -1 18 -3 60 -4 92
-1 32 -3 84 -5 114 -2 30 -4 85 -5 122 -1 37 -3 72 -3 78 -1 6 -2 50 -4 98 -2
47 -4 107 -5 134 -1 26 -3 74 -4 106 -2 74 -4 77 -40 71z"/>
</g>
</svg>
