<?xml version="1.0" standalone="no"?>
<!DOCTYPE svg PUBLIC "-//W3C//DTD SVG 20010904//EN"
 "http://www.w3.org/TR/2001/REC-SVG-20010904/DTD/svg10.dtd">
<svg version="1.0" xmlns="http://www.w3.org/2000/svg"
 width="78.000000pt" height="100.000000pt" viewBox="0 0 78.000000 100.000000"
 preserveAspectRatio="xMidYMid meet">
<metadata>
Created by potrace 1.16, written by Peter Selinger 2001-2019
</metadata>
<g transform="translate(0.000000,100.000000) scale(0.100000,-0.100000)"
fill="#000000" stroke="none">
<path d="M338 943 c-22 -27 -273 -395 -287 -421 -10 -19 -9 -28 6 -51 38 -59
319 -420 331 -425 14 -6 342 426 342 452 0 26 -27 65 -185 272 -153 199 -171
214 -207 173z m61 -75 c61 -72 252 -337 257 -356 5 -17 -2 -35 -25 -65 -17
-23 -75 -102 -128 -174 -98 -135 -122 -153 -143 -114 -12 24 -123 171 -198
264 -34 42 -53 74 -50 85 3 9 54 87 113 172 59 85 113 167 121 183 18 33 28
34 53 5z"/>
<path d="M354 572 c-46 -30 -30 -95 24 -100 41 -4 62 12 62 48 0 44 -51 76
-86 52z"/>
</g>
</svg>
