<?xml version="1.0" standalone="no"?>
<!DOCTYPE svg PUBLIC "-//W3C//DTD SVG 20010904//EN"
 "http://www.w3.org/TR/2001/REC-SVG-20010904/DTD/svg10.dtd">
<svg version="1.0" xmlns="http://www.w3.org/2000/svg"
 width="460.000000pt" height="590.000000pt" viewBox="0 0 460.000000 590.000000"
 preserveAspectRatio="xMidYMid meet">
<metadata>
Created by potrace 1.16, written by Peter Selinger 2001-2019
</metadata>
<g transform="translate(0.000000,590.000000) scale(0.500000,-0.500000)"
fill="#000000" stroke="none">
<path d="M432 1139 c-6 -3 -25 -22 -33 -33 -4 -6 -11 -14 -14 -18 -4 -4 -7
-10 -8 -12 -3 -8 -14 -25 -29 -41 -7 -8 -14 -18 -15 -21 -1 -3 -4 -9 -8 -13
-3 -5 -10 -14 -14 -21 -13 -22 -33 -50 -42 -60 -5 -5 -11 -14 -14 -20 -3 -6
-9 -15 -13 -21 -5 -5 -12 -16 -17 -22 -4 -7 -15 -23 -24 -35 -8 -13 -22 -34
-31 -48 -9 -14 -20 -30 -26 -36 -5 -6 -11 -15 -14 -19 -4 -10 -31 -50 -41 -62
-39 -50 -43 -75 -17 -104 5 -6 11 -13 14 -17 3 -4 8 -12 13 -17 4 -6 12 -16
17 -23 5 -7 13 -18 18 -24 5 -7 11 -15 14 -19 4 -5 10 -14 16 -21 5 -7 16 -22
23 -33 8 -10 15 -20 17 -22 6 -4 45 -53 67 -84 3 -5 10 -13 14 -17 4 -5 11
-13 14 -18 4 -5 11 -15 17 -22 5 -7 13 -18 18 -24 4 -6 9 -12 11 -14 2 -1 5
-5 6 -9 2 -3 8 -11 14 -17 12 -14 21 -25 37 -49 11 -15 46 -56 59 -67 12 -11
48 28 62 67 2 6 8 14 13 20 5 5 12 14 15 18 8 13 21 30 34 45 7 8 15 18 18 24
3 6 8 12 13 15 5 4 10 10 12 15 5 10 14 22 29 38 6 6 13 15 16 20 6 10 35 51
51 72 5 7 13 18 17 23 3 6 10 12 14 15 4 3 9 9 11 14 3 5 7 11 9 14 2 3 10 14
18 25 7 11 15 22 17 24 5 5 15 19 33 45 7 10 15 22 18 26 8 11 6 19 -10 42 -8
12 -14 23 -15 29 -2 10 -13 28 -25 41 -5 5 -11 12 -13 16 -3 4 -10 14 -17 23
-7 8 -15 20 -19 25 -3 5 -9 12 -12 15 -6 7 -45 58 -52 69 -2 4 -8 11 -13 16
-5 5 -10 12 -12 16 -2 4 -7 11 -11 15 -4 4 -9 10 -10 12 -2 3 -11 15 -20 27
-10 13 -19 26 -21 30 -2 4 -11 14 -19 23 -9 10 -18 19 -20 23 -5 8 -20 27 -30
39 -5 5 -15 18 -22 28 -7 11 -16 24 -21 30 -6 6 -13 15 -17 20 -15 20 -35 30
-50 24z m24 -86 c10 -12 15 -19 49 -64 15 -20 31 -41 37 -48 12 -14 26 -33 33
-43 3 -4 7 -11 11 -14 3 -4 7 -10 9 -14 2 -3 13 -17 26 -30 19 -20 23 -26 33
-45 8 -16 14 -25 24 -34 11 -12 18 -21 39 -48 4 -5 10 -13 14 -18 4 -4 9 -12
12 -18 3 -5 15 -25 28 -44 29 -42 29 -46 6 -71 -4 -5 -12 -15 -16 -22 -4 -7
-11 -17 -15 -21 -4 -4 -13 -16 -20 -26 -7 -10 -18 -25 -25 -34 -16 -21 -27
-36 -37 -49 -4 -6 -14 -18 -22 -26 -7 -8 -14 -16 -15 -19 -1 -2 -5 -8 -10 -14
-5 -5 -11 -14 -14 -19 -3 -5 -14 -21 -25 -35 -11 -14 -23 -32 -29 -39 -5 -7
-12 -16 -15 -20 -3 -4 -7 -11 -10 -15 -4 -4 -10 -14 -16 -21 -5 -7 -14 -19
-19 -26 -15 -22 -49 -24 -49 -3 0 1 -4 7 -10 12 -5 5 -10 12 -11 16 -1 3 -7
12 -15 20 -9 9 -16 19 -19 26 -5 10 -17 25 -21 25 -1 0 -6 6 -10 14 -5 8 -11
16 -14 19 -7 5 -19 20 -30 35 -3 5 -10 14 -14 19 -4 6 -10 15 -13 21 -3 5 -8
13 -11 17 -3 4 -6 9 -8 13 -2 3 -7 8 -12 11 -7 4 -16 14 -24 26 -7 11 -39 53
-45 59 -4 4 -10 12 -15 18 -4 6 -15 20 -23 30 -25 34 -26 45 -4 74 6 8 12 16
14 19 1 3 6 9 9 12 4 3 8 9 9 13 3 7 47 72 68 100 6 8 12 19 14 25 3 11 7 15
19 23 13 7 24 21 25 31 1 5 3 12 6 15 2 3 7 10 10 14 9 11 36 51 76 112 51 76
51 76 65 61z"/>
<path d="M435 683 c-70 -24 -57 -127 16 -131 59 -3 92 63 55 110 -16 19 -47
29 -71 21z"/>
</g>
</svg>
