<?xml version="1.0" standalone="no"?>
<!DOCTYPE svg PUBLIC "-//W3C//DTD SVG 20010904//EN"
 "http://www.w3.org/TR/2001/REC-SVG-20010904/DTD/svg10.dtd">
<svg version="1.0" xmlns="http://www.w3.org/2000/svg"
 width="116.000000pt" height="148.000000pt" viewBox="0 0 116.000000 148.000000"
 preserveAspectRatio="xMidYMid meet">
<metadata>
Created by potrace 1.16, written by Peter Selinger 2001-2019
</metadata>
<g transform="translate(0.000000,148.000000) scale(0.100000,-0.100000)"
fill="#000000" stroke="none">
<path d="M502 1381 c-18 -22 -32 -44 -32 -49 0 -5 -7 -16 -16 -23 -9 -8 -28
-32 -42 -54 -13 -22 -55 -83 -92 -135 -192 -273 -250 -362 -250 -382 0 -19 68
-114 191 -268 11 -14 75 -96 142 -184 67 -87 136 -174 153 -193 l32 -34 21 28
c12 15 38 53 58 83 20 30 49 71 65 90 16 19 32 40 36 45 46 65 168 223 179
231 7 6 13 14 13 17 0 4 27 42 60 86 33 44 60 87 60 95 0 31 -35 82 -257 372
-267 349 -264 346 -321 275z m133 -142 c37 -50 91 -119 120 -153 29 -34 58
-73 65 -87 7 -13 35 -49 62 -80 26 -30 48 -59 48 -63 0 -5 16 -30 35 -56 19
-26 35 -55 35 -63 0 -8 -19 -39 -43 -69 -24 -29 -115 -149 -202 -266 -96 -127
-166 -212 -176 -212 -9 0 -36 27 -60 61 -24 34 -51 68 -59 78 -39 41 -99 119
-114 148 -9 18 -22 36 -29 40 -24 15 -167 206 -167 223 0 9 15 37 32 61 18 24
56 80 85 124 29 44 61 89 73 101 11 11 28 34 38 51 41 73 168 252 179 253 6 0
42 -41 78 -91z"/>
<path d="M529 837 c-27 -18 -35 -30 -37 -60 -8 -99 135 -119 154 -22 7 41 -8
70 -46 90 -36 19 -31 19 -71 -8z"/>
</g>
</svg>
