<?xml version="1.0" standalone="no"?>
<!DOCTYPE svg PUBLIC "-//W3C//DTD SVG 20010904//EN"
 "http://www.w3.org/TR/2001/REC-SVG-20010904/DTD/svg10.dtd">
<svg version="1.0" xmlns="http://www.w3.org/2000/svg"
 width="458.000000pt" height="590.000000pt" viewBox="0 0 458.000000 590.000000"
 preserveAspectRatio="xMidYMid meet">
<metadata>
Created by potrace 1.16, written by Peter Selinger 2001-2019
</metadata>
<g transform="translate(0.000000,590.000000) scale(0.500000,-0.500000)"
fill="#000000" stroke="none">
<path d="M430 1139 c-5 -2 -26 -23 -34 -34 -4 -5 -10 -13 -13 -18 -4 -4 -7 -8
-7 -10 0 -4 -15 -26 -28 -40 -7 -7 -14 -17 -16 -22 -2 -4 -6 -11 -8 -14 -3 -3
-11 -15 -18 -27 -15 -26 -24 -38 -37 -52 -5 -6 -12 -16 -15 -22 -3 -7 -9 -15
-12 -18 -3 -4 -9 -13 -13 -20 -4 -7 -10 -15 -13 -19 -5 -6 -34 -49 -59 -89 -3
-4 -10 -13 -15 -19 -5 -6 -12 -15 -14 -19 -5 -11 -30 -48 -39 -59 -41 -51 -43
-73 -14 -108 7 -8 16 -20 22 -27 5 -7 12 -17 16 -22 4 -5 9 -13 12 -17 3 -4 8
-11 12 -15 3 -4 9 -11 12 -16 3 -5 10 -14 14 -20 5 -6 15 -20 23 -31 8 -12 16
-22 18 -23 4 -3 16 -18 28 -34 11 -16 33 -43 62 -82 8 -10 18 -23 22 -28 25
-35 40 -54 49 -64 11 -12 17 -20 36 -48 11 -15 50 -60 59 -67 11 -10 47 30 60
66 1 5 7 14 13 21 6 6 15 19 21 28 7 9 19 25 27 34 8 9 17 21 19 25 2 5 8 12
12 15 5 4 10 11 13 16 6 11 17 25 31 40 6 6 13 16 17 21 6 11 24 38 46 67 8
10 17 22 20 27 3 5 10 11 14 15 4 4 9 10 10 13 2 4 6 10 9 13 3 4 11 15 18 25
6 10 17 24 23 32 5 8 15 22 22 31 6 10 15 22 20 28 11 14 10 20 -8 46 -8 13
-13 23 -14 28 -2 9 -14 29 -25 41 -4 4 -12 14 -17 21 -5 7 -13 18 -17 23 -4 6
-11 15 -15 21 -5 6 -11 15 -16 20 -8 9 -15 18 -40 53 -7 9 -17 22 -22 28 -5 5
-10 14 -13 18 -2 5 -6 10 -8 11 -2 2 -7 8 -11 14 -5 6 -14 17 -20 25 -6 8 -14
20 -18 27 -4 6 -14 19 -21 27 -8 7 -18 19 -22 25 -18 25 -24 33 -32 41 -4 5
-13 16 -18 24 -6 9 -15 21 -20 28 -6 7 -15 18 -20 25 -16 18 -33 26 -48 21z
m25 -87 c4 -5 10 -12 12 -15 1 -4 4 -8 6 -9 2 -2 10 -11 17 -21 13 -18 17 -23
34 -46 4 -5 11 -14 16 -19 4 -6 10 -14 13 -18 3 -4 12 -16 20 -26 8 -10 17
-23 19 -27 3 -4 14 -17 25 -29 16 -17 22 -25 33 -44 8 -15 18 -28 29 -41 9
-10 21 -25 27 -33 6 -8 15 -19 19 -25 5 -6 11 -14 13 -19 2 -4 11 -18 19 -30
33 -48 33 -48 33 -56 0 -10 -6 -22 -17 -34 -5 -5 -12 -15 -16 -22 -4 -7 -11
-17 -15 -21 -4 -4 -13 -16 -19 -25 -7 -9 -16 -23 -22 -30 -13 -18 -18 -23 -35
-46 -7 -10 -19 -25 -26 -32 -7 -7 -14 -16 -15 -19 -2 -3 -7 -10 -11 -15 -4 -5
-11 -14 -15 -21 -4 -7 -10 -15 -13 -19 -3 -4 -8 -10 -11 -15 -7 -9 -15 -20
-32 -43 -11 -15 -17 -23 -34 -46 -4 -5 -11 -15 -16 -23 -16 -23 -17 -23 -31
-23 -15 0 -19 2 -24 12 -2 4 -7 10 -10 13 -4 3 -9 11 -11 16 -3 7 -9 15 -16
21 -8 8 -14 16 -19 26 -5 10 -9 16 -15 21 -5 3 -12 12 -16 19 -4 6 -10 14 -14
17 -3 3 -10 11 -16 18 -5 7 -15 20 -22 28 -6 8 -14 20 -17 26 -11 20 -24 39
-32 44 -8 5 -16 13 -21 22 -4 6 -16 22 -27 35 -3 4 -7 10 -10 14 -3 4 -8 10
-12 14 -3 4 -11 13 -16 21 -5 7 -15 20 -21 28 -24 32 -25 45 -2 75 6 8 11 15
11 16 0 1 4 6 9 12 5 6 10 13 11 15 2 6 48 74 62 92 13 17 17 25 20 34 2 10 7
16 18 21 13 7 22 19 26 35 1 7 5 13 11 20 5 5 11 13 12 16 3 5 31 47 41 59 2
3 16 24 31 47 47 70 47 71 62 55z"/>
<path d="M396 781 c-6 -3 -19 -19 -22 -28 -1 -3 -7 -13 -13 -22 -27 -38 -72
-101 -81 -112 -21 -28 -20 -30 28 -67 20 -16 45 -35 55 -43 10 -8 30 -24 46
-36 15 -12 33 -26 39 -32 30 -27 31 -26 70 29 16 21 41 56 56 76 44 59 44 57
-2 96 -49 41 -117 101 -135 118 -24 23 -31 27 -41 21z m25 -70 c42 -29 42 -30
2 -83 -54 -72 -49 -69 -75 -49 -28 20 -29 16 13 73 49 69 47 68 60 59z m101
-87 c32 -27 31 -26 7 -60 -8 -12 -21 -29 -27 -38 -31 -42 -30 -42 -57 -23 -39
29 -39 29 -17 58 68 94 63 90 94 63z"/>
</g>
</svg>
