<?xml version="1.0" standalone="no"?>
<!DOCTYPE svg PUBLIC "-//W3C//DTD SVG 20010904//EN"
 "http://www.w3.org/TR/2001/REC-SVG-20010904/DTD/svg10.dtd">
<svg version="1.0" xmlns="http://www.w3.org/2000/svg"
 width="77.000000pt" height="100.000000pt" viewBox="0 0 77.000000 100.000000"
 preserveAspectRatio="xMidYMid meet">
<metadata>
Created by potrace 1.16, written by Peter Selinger 2001-2019
</metadata>
<g transform="translate(0.000000,100.000000) scale(0.100000,-0.100000)"
fill="#000000" stroke="none">
<path d="M204 752 c-172 -253 -168 -246 -153 -274 18 -33 317 -426 331 -434 7
-5 19 3 29 17 10 13 79 107 155 209 75 102 141 195 147 208 15 33 3 53 -166
279 -127 169 -156 203 -177 203 -21 0 -46 -30 -166 -208z m273 7 c51 -68 113
-154 139 -191 l47 -67 -25 -33 c-13 -18 -73 -99 -132 -180 -60 -82 -114 -148
-122 -148 -7 0 -21 11 -31 25 -10 14 -69 92 -130 173 -62 81 -113 155 -113
166 0 10 13 35 29 55 15 20 72 102 126 184 54 81 103 146 109 144 5 -2 52 -59
103 -128z"/>
<path d="M318 652 c-27 -31 -98 -141 -98 -151 0 -16 171 -150 185 -145 18 7
105 129 105 147 0 14 -131 140 -165 159 -7 4 -19 0 -27 -10z m52 -81 c0 -24
-46 -81 -65 -81 -32 0 -26 39 13 83 21 23 52 22 52 -2z m76 -55 c6 -16 -17
-66 -40 -85 -11 -9 -20 -10 -35 -1 -27 14 -26 26 5 67 26 34 61 44 70 19z"/>
</g>
</svg>
