<?xml version="1.0" standalone="no"?>
<!DOCTYPE svg PUBLIC "-//W3C//DTD SVG 20010904//EN"
 "http://www.w3.org/TR/2001/REC-SVG-20010904/DTD/svg10.dtd">
<svg version="1.0" xmlns="http://www.w3.org/2000/svg"
 width="114.000000pt" height="148.000000pt" viewBox="0 0 114.000000 148.000000"
 preserveAspectRatio="xMidYMid meet">
<metadata>
Created by potrace 1.16, written by Peter Selinger 2001-2019
</metadata>
<g transform="translate(0.000000,148.000000) scale(0.100000,-0.100000)"
fill="#000000" stroke="none">
<path d="M508 1403 c-9 -10 -27 -36 -41 -58 -14 -22 -61 -92 -105 -155 -252
-368 -292 -431 -292 -454 0 -13 12 -39 27 -57 15 -18 55 -69 88 -114 33 -45
103 -138 155 -206 52 -68 121 -159 154 -202 32 -43 65 -81 73 -84 18 -7 48 21
64 60 8 18 19 39 26 47 73 91 193 249 354 469 30 41 53 79 51 85 -10 35 -50
107 -82 146 -20 25 -42 55 -50 66 -8 12 -49 66 -90 120 -41 55 -84 111 -95
126 -177 235 -199 255 -237 211z m159 -219 c65 -86 128 -172 141 -191 13 -19
35 -48 50 -64 42 -48 122 -172 122 -191 0 -17 -51 -90 -162 -231 -34 -43 -80
-104 -102 -136 -125 -180 -127 -182 -149 -179 -13 2 -39 29 -68 71 -26 38 -58
81 -71 96 -40 47 -88 110 -88 116 0 3 -25 36 -56 73 -31 37 -61 74 -67 82 -56
74 -67 91 -67 107 0 17 152 256 186 293 8 8 58 81 111 163 53 81 98 147 99
147 2 0 56 -70 121 -156z"/>
<path d="M459 933 c-18 -26 -54 -78 -81 -114 -52 -72 -58 -93 -29 -108 10 -6
67 -49 126 -96 59 -47 112 -84 117 -83 5 2 45 51 88 108 60 81 75 108 67 120
-11 16 -234 213 -247 218 -5 2 -23 -19 -41 -45z m84 -61 l27 -28 -51 -69 c-28
-39 -54 -71 -58 -73 -13 -5 -62 40 -58 52 9 22 98 146 106 146 4 0 19 -13 34
-28z m110 -97 c15 -14 27 -29 27 -33 0 -4 -22 -37 -49 -74 l-48 -67 -42 30
c-24 18 -38 36 -34 42 23 40 96 127 106 127 7 0 25 -11 40 -25z"/>
</g>
</svg>
