<?xml version="1.0" standalone="no"?>
<!DOCTYPE svg PUBLIC "-//W3C//DTD SVG 20010904//EN"
 "http://www.w3.org/TR/2001/REC-SVG-20010904/DTD/svg10.dtd">
<svg version="1.0" xmlns="http://www.w3.org/2000/svg"
 width="78.000000pt" height="100.000000pt" viewBox="0 0 78.000000 100.000000"
 preserveAspectRatio="xMidYMid meet">
<metadata>
Created by potrace 1.16, written by Peter Selinger 2001-2019
</metadata>
<g transform="translate(0.000000,100.000000) scale(0.100000,-0.100000)"
fill="#000000" stroke="none">
<path d="M327 928 c-21 -29 -86 -124 -244 -356 -24 -35 -43 -68 -43 -73 0 -9
142 -199 267 -357 42 -52 81 -92 91 -92 10 0 33 25 54 58 20 31 91 129 157
216 67 88 121 166 121 175 0 25 -28 65 -185 270 -162 211 -173 219 -218 159z
m58 -46 c26 -18 275 -363 275 -380 0 -10 -35 -66 -78 -123 -43 -57 -97 -132
-121 -167 -23 -34 -46 -60 -51 -57 -5 3 -8 65 -7 138 l2 132 65 5 65 5 3 78
c2 50 -1 84 -9 93 -17 20 -291 20 -308 0 -8 -9 -11 -43 -9 -93 l3 -78 68 -3
c44 -2 67 -7 67 -15 2 -44 10 -160 15 -199 3 -29 2 -48 -4 -48 -11 0 -203 249
-236 305 l-20 34 65 93 c35 51 93 137 129 190 36 54 68 98 71 98 3 0 10 -4 15
-8z m-35 -358 l0 -45 -47 3 -48 3 -3 43 -3 42 50 0 51 0 0 -46z m142 24 c2
-13 2 -33 0 -45 -3 -20 -9 -23 -48 -23 l-44 0 0 45 0 45 44 0 c37 0 44 -3 48
-22z"/>
</g>
</svg>
