<?xml version="1.0" standalone="no"?>
<!DOCTYPE svg PUBLIC "-//W3C//DTD SVG 20010904//EN"
 "http://www.w3.org/TR/2001/REC-SVG-20010904/DTD/svg10.dtd">
<svg version="1.0" xmlns="http://www.w3.org/2000/svg"
 width="116.000000pt" height="148.000000pt" viewBox="0 0 116.000000 148.000000"
 preserveAspectRatio="xMidYMid meet">
<metadata>
Created by potrace 1.16, written by Peter Selinger 2001-2019
</metadata>
<g transform="translate(0.000000,148.000000) scale(0.100000,-0.100000)"
fill="#000000" stroke="none">
<path d="M502 1381 c-18 -22 -32 -44 -32 -49 0 -5 -7 -15 -15 -22 -9 -7 -40
-49 -69 -94 -30 -45 -72 -106 -93 -136 -21 -30 -70 -100 -107 -155 -38 -55
-79 -114 -92 -131 -13 -17 -24 -42 -24 -55 0 -15 33 -66 83 -130 45 -59 93
-121 107 -139 64 -83 264 -339 293 -372 30 -36 32 -37 50 -20 11 9 27 33 38
53 15 31 38 62 126 174 8 9 109 144 255 337 32 42 58 84 58 92 0 24 -51 104
-134 212 -42 54 -103 133 -134 174 -31 41 -97 126 -145 188 -102 129 -115 135
-165 73z m135 -143 c157 -211 199 -266 243 -318 57 -68 120 -165 120 -184 0
-8 -11 -27 -23 -43 -35 -42 -234 -306 -306 -405 -35 -48 -66 -86 -70 -84 -3 2
-6 102 -6 223 l0 218 81 -3 c123 -6 124 -5 124 131 0 62 -4 118 -8 125 -7 9
-62 12 -243 10 l-234 -3 0 -130 0 -130 108 0 c59 1 108 -2 108 -5 1 -3 3 -44
4 -92 1 -48 5 -145 9 -215 6 -124 6 -127 -11 -105 -29 38 -170 220 -280 362
-57 73 -103 139 -103 148 0 18 53 99 236 359 61 87 122 175 135 195 13 21 29
38 35 38 7 0 43 -42 81 -92z m-144 -388 l37 0 0 -75 0 -75 -80 0 c-69 0 -80 2
-81 18 -10 134 -5 147 51 138 19 -3 52 -6 73 -6z m247 -74 l0 -74 -71 -4 c-39
-2 -74 -1 -78 2 -4 3 -8 38 -9 78 l-1 72 80 0 79 0 0 -74z"/>
</g>
</svg>
