<?xml version="1.0" standalone="no"?>
<!DOCTYPE svg PUBLIC "-//W3C//DTD SVG 20010904//EN"
 "http://www.w3.org/TR/2001/REC-SVG-20010904/DTD/svg10.dtd">
<svg version="1.0" xmlns="http://www.w3.org/2000/svg"
 width="460.000000pt" height="590.000000pt" viewBox="0 0 460.000000 590.000000"
 preserveAspectRatio="xMidYMid meet">
<metadata>
Created by potrace 1.16, written by Peter Selinger 2001-2019
</metadata>
<g transform="translate(0.000000,590.000000) scale(0.500000,-0.500000)"
fill="#000000" stroke="none">
<path d="M432 1139 c-5 -2 -25 -22 -33 -33 -4 -6 -11 -14 -14 -18 -4 -4 -7
-10 -8 -12 -3 -8 -16 -27 -27 -39 -7 -7 -14 -16 -16 -21 -2 -5 -6 -12 -9 -16
-4 -4 -9 -11 -12 -17 -11 -19 -34 -52 -44 -63 -5 -6 -11 -15 -13 -20 -3 -5 -8
-13 -12 -18 -4 -5 -10 -13 -13 -19 -3 -5 -9 -15 -14 -21 -7 -9 -30 -43 -55
-82 -4 -6 -11 -16 -16 -22 -6 -6 -13 -15 -15 -21 -5 -10 -24 -37 -36 -54 -47
-61 -50 -80 -20 -114 6 -5 13 -14 16 -18 6 -9 16 -23 24 -33 3 -3 8 -10 11
-14 3 -4 17 -23 31 -42 15 -19 30 -40 34 -45 3 -6 14 -19 22 -28 9 -10 18 -21
21 -25 3 -4 10 -14 17 -23 7 -8 15 -20 19 -25 3 -5 9 -12 12 -15 6 -6 19 -23
34 -43 4 -6 13 -17 18 -24 6 -7 13 -17 17 -22 3 -5 10 -13 15 -18 10 -11 18
-22 38 -52 36 -52 64 -74 76 -60 4 4 10 9 14 12 3 3 8 10 10 14 3 5 7 12 9 16
3 4 6 12 8 18 2 7 7 14 14 22 6 6 13 15 16 19 11 17 18 27 31 41 8 8 16 20 20
26 4 7 9 13 13 16 4 3 9 8 12 14 6 12 25 36 32 41 3 2 9 9 13 16 5 8 12 19 16
25 5 6 11 16 15 21 4 6 10 14 14 19 4 5 11 14 15 21 5 6 15 17 21 24 7 7 13
14 14 17 1 3 5 9 9 14 4 5 12 17 19 26 6 9 14 21 18 26 29 38 53 72 53 77 0 6
-5 15 -18 35 -7 11 -12 21 -12 24 0 6 -12 26 -25 41 -5 6 -13 15 -16 20 -3 5
-11 16 -18 24 -7 9 -15 20 -18 25 -4 4 -9 11 -12 15 -8 7 -22 26 -44 57 -3 5
-11 14 -17 22 -6 7 -14 17 -18 22 -3 5 -11 15 -16 22 -5 7 -13 17 -16 22 -4 5
-9 12 -12 16 -3 3 -8 11 -11 16 -3 6 -11 16 -17 23 -7 6 -17 17 -22 24 -5 7
-13 18 -18 24 -5 7 -13 16 -17 21 -5 5 -13 17 -20 26 -6 10 -15 23 -21 29 -5
6 -10 12 -10 13 0 2 -21 24 -28 28 -7 4 -21 5 -28 3z m25 -87 c5 -5 9 -11 9
-12 0 -1 4 -6 10 -12 8 -10 39 -50 54 -72 3 -4 9 -12 14 -17 9 -10 15 -19 30
-39 3 -5 8 -11 11 -14 4 -5 20 -29 25 -37 1 -3 7 -10 13 -17 6 -7 13 -16 15
-20 2 -4 7 -10 10 -12 3 -2 9 -9 12 -14 4 -6 13 -17 20 -25 8 -8 17 -18 21
-23 3 -5 14 -20 25 -34 10 -13 18 -25 18 -26 0 -1 11 -19 25 -39 31 -47 32
-53 8 -79 -5 -5 -12 -15 -16 -22 -4 -7 -11 -17 -15 -21 -4 -4 -13 -16 -19 -25
-7 -9 -16 -22 -20 -28 -27 -34 -33 -42 -41 -54 -3 -5 -12 -15 -20 -23 -7 -8
-15 -17 -17 -21 -2 -4 -7 -11 -11 -16 -4 -5 -11 -14 -15 -20 -4 -7 -14 -21
-23 -32 -8 -12 -18 -25 -21 -29 -3 -4 -9 -13 -14 -19 -15 -21 -32 -45 -38 -53
-27 -38 -27 -37 -29 69 -2 78 -4 153 -7 216 -2 37 -9 34 74 34 99 -1 91 -7 91
70 0 165 29 143 -195 143 -225 0 -193 18 -193 -107 1 -122 -12 -106 90 -106
102 0 88 21 92 -138 1 -42 3 -101 4 -129 3 -70 -1 -82 -18 -46 -3 5 -9 13 -14
17 -7 6 -12 13 -18 24 -5 11 -11 18 -17 23 -5 4 -12 13 -16 20 -4 7 -10 15
-12 16 -5 4 -24 27 -32 39 -3 4 -6 8 -7 9 -1 1 -6 6 -10 13 -16 22 -24 32 -31
41 -5 4 -11 13 -15 18 -4 5 -11 14 -15 20 -4 6 -11 14 -15 19 -16 23 -27 36
-42 54 -55 69 -58 79 -32 113 5 7 11 15 13 18 1 3 5 8 8 11 3 3 7 9 10 14 6
11 49 76 59 88 7 9 31 43 54 78 7 10 14 21 18 24 3 4 16 22 28 41 13 19 25 37
28 40 3 4 20 28 37 53 50 75 47 72 62 56z m-46 -369 c12 -2 20 -108 9 -119
-40 -40 -126 0 -126 58 0 65 22 76 117 61z m175 -4 c3 -3 6 -100 3 -110 -2 -8
-12 -9 -64 -9 -62 0 -56 -7 -57 64 0 56 0 56 11 59 9 2 104 -1 107 -4z"/>
</g>
</svg>
