<?xml version="1.0" standalone="no"?>
<!DOCTYPE svg PUBLIC "-//W3C//DTD SVG 20010904//EN"
 "http://www.w3.org/TR/2001/REC-SVG-20010904/DTD/svg10.dtd">
<svg version="1.0" xmlns="http://www.w3.org/2000/svg"
 width="460.000000pt" height="590.000000pt" viewBox="0 0 460.000000 590.000000"
 preserveAspectRatio="xMidYMid meet">
<metadata>
Created by potrace 1.16, written by Peter Selinger 2001-2019
</metadata>
<g transform="translate(0.000000,590.000000) scale(0.500000,-0.500000)"
fill="#000000" stroke="none">
<path d="M432 1139 c-5 -2 -25 -22 -33 -33 -4 -6 -11 -14 -14 -19 -4 -4 -7 -8
-7 -9 0 -5 -15 -27 -27 -40 -7 -7 -15 -18 -17 -23 -2 -6 -7 -13 -10 -16 -3 -3
-8 -11 -12 -18 -11 -19 -32 -49 -43 -61 -5 -6 -11 -15 -13 -20 -2 -4 -8 -13
-12 -19 -5 -5 -13 -17 -19 -25 -5 -9 -14 -21 -19 -28 -5 -7 -19 -28 -31 -47
-12 -19 -26 -39 -31 -44 -5 -6 -12 -16 -16 -22 -6 -12 -26 -42 -37 -56 -9 -11
-28 -39 -32 -46 -9 -18 -3 -42 15 -63 6 -6 14 -15 17 -20 19 -26 58 -79 78
-104 4 -5 12 -17 18 -26 7 -9 17 -22 22 -27 9 -10 30 -36 44 -56 3 -3 12 -15
20 -25 20 -25 36 -47 45 -58 26 -36 33 -45 45 -59 15 -17 30 -38 42 -56 7 -9
18 -23 27 -32 8 -9 19 -20 23 -26 17 -18 50 13 68 63 2 5 8 15 14 21 6 7 15
19 21 27 5 8 16 22 24 31 8 9 17 21 20 27 3 6 9 13 13 16 4 3 10 9 12 15 6 11
19 28 32 40 4 4 11 13 15 19 7 13 30 45 40 58 9 12 14 19 24 32 4 7 12 15 17
19 5 4 10 11 12 15 2 4 6 11 9 15 4 5 12 15 17 23 6 8 14 20 18 25 29 38 55
75 55 80 0 6 -5 15 -18 35 -7 10 -12 21 -12 24 0 6 -13 28 -25 42 -6 6 -13 15
-17 20 -3 5 -11 15 -16 22 -6 7 -12 16 -16 21 -3 4 -9 11 -13 16 -4 5 -11 13
-14 18 -3 5 -8 12 -11 15 -3 4 -13 17 -22 30 -10 13 -19 24 -21 26 -2 1 -5 6
-7 11 -3 4 -8 12 -13 17 -4 5 -12 15 -18 23 -5 7 -13 17 -18 22 -4 6 -10 15
-12 20 -3 6 -12 17 -20 25 -8 8 -18 19 -21 24 -15 21 -25 33 -33 42 -5 5 -13
17 -20 26 -6 10 -15 23 -21 29 -5 6 -10 12 -10 13 0 2 -21 24 -28 28 -7 4 -21
5 -28 3z m25 -87 c5 -5 9 -11 9 -12 0 -1 4 -6 9 -12 9 -10 23 -28 48 -62 7 -9
15 -21 20 -25 7 -9 15 -18 31 -41 4 -7 9 -12 10 -13 1 -1 7 -9 13 -18 6 -9 19
-24 28 -33 10 -9 19 -20 21 -24 15 -29 23 -42 39 -58 9 -10 21 -23 26 -31 6
-7 14 -19 20 -26 5 -6 11 -15 13 -20 2 -4 14 -23 27 -42 29 -43 30 -49 6 -75
-5 -5 -12 -15 -16 -22 -4 -7 -12 -18 -17 -23 -5 -6 -14 -18 -21 -27 -6 -9 -16
-23 -21 -30 -6 -7 -12 -16 -16 -21 -3 -4 -8 -11 -12 -16 -4 -4 -9 -11 -11 -15
-3 -4 -12 -15 -20 -24 -8 -9 -15 -17 -15 -18 0 -1 -4 -6 -8 -12 -5 -6 -13 -16
-17 -23 -4 -7 -16 -24 -27 -37 -26 -35 -29 -40 -37 -50 -3 -4 -10 -13 -14 -20
-5 -6 -12 -16 -17 -22 -4 -6 -9 -12 -11 -14 -2 -1 -6 -8 -10 -14 -10 -16 -32
-20 -42 -7 -2 3 -8 10 -13 16 -5 5 -12 15 -15 21 -3 7 -9 14 -15 19 -6 6 -12
14 -18 25 -6 11 -11 19 -17 22 -4 4 -11 11 -14 18 -4 6 -11 15 -15 19 -15 14
-51 62 -59 78 -9 18 -20 33 -26 37 -9 5 -21 20 -42 49 -4 5 -9 12 -12 15 -2 3
-6 8 -9 12 -2 4 -7 10 -10 13 -4 3 -10 11 -14 17 -5 6 -13 17 -18 24 -17 22
-21 29 -23 33 -2 8 4 29 12 40 5 6 10 14 12 17 2 4 8 11 13 17 5 6 10 13 11
15 2 5 47 73 67 101 6 9 13 20 14 25 3 11 8 17 18 22 8 4 23 19 25 25 0 2 1 7
2 11 1 6 5 12 11 19 6 7 12 15 14 19 5 9 29 43 34 49 2 2 18 26 36 52 51 76
48 73 63 57z"/>
<path d="M340 809 c-23 -8 -28 -19 -19 -43 2 -4 6 -16 9 -28 4 -12 10 -34 15
-49 11 -34 29 -94 43 -141 6 -19 11 -37 12 -40 1 -3 7 -24 14 -47 17 -57 33
-111 47 -157 10 -32 14 -35 44 -24 22 8 21 19 -12 119 -3 8 -7 22 -10 31 -2 9
-7 24 -10 34 -9 29 -10 28 46 50 145 55 137 51 141 70 3 15 3 18 -4 28 -3 5
-6 12 -7 15 -1 4 -4 9 -8 12 -17 15 -35 25 -49 30 -8 3 -19 7 -23 10 -40 22
-94 29 -131 17 -28 -9 -32 -9 -36 6 -1 5 -4 14 -6 21 -2 7 -8 27 -13 45 -13
46 -18 50 -43 41z m160 -166 c22 -6 75 -31 79 -37 4 -7 -11 -14 -97 -47 -33
-13 -34 -13 -43 14 -18 58 -18 59 8 66 6 2 16 5 20 6 11 4 9 4 33 -2z"/>
</g>
</svg>
