<?xml version="1.0" standalone="no"?>
<!DOCTYPE svg PUBLIC "-//W3C//DTD SVG 20010904//EN"
 "http://www.w3.org/TR/2001/REC-SVG-20010904/DTD/svg10.dtd">
<svg version="1.0" xmlns="http://www.w3.org/2000/svg"
 width="116.000000pt" height="148.000000pt" viewBox="0 0 116.000000 148.000000"
 preserveAspectRatio="xMidYMid meet">
<metadata>
Created by potrace 1.16, written by Peter Selinger 2001-2019
</metadata>
<g transform="translate(0.000000,148.000000) scale(0.100000,-0.100000)"
fill="#000000" stroke="none">
<path d="M502 1381 c-18 -22 -32 -44 -32 -49 0 -5 -7 -16 -16 -23 -9 -8 -28
-32 -42 -54 -13 -22 -55 -83 -92 -135 -192 -273 -250 -362 -250 -382 0 -20 54
-95 194 -273 13 -16 76 -97 140 -180 64 -82 131 -167 148 -187 31 -36 33 -37
51 -20 11 9 27 33 38 53 10 20 40 64 66 97 26 33 57 73 68 88 11 15 29 39 41
53 83 103 264 352 264 365 0 31 -35 81 -257 372 -267 349 -264 346 -321 275z
m133 -142 c37 -50 91 -119 120 -153 29 -34 58 -73 65 -87 7 -13 34 -49 59 -79
62 -73 121 -163 121 -182 0 -9 -19 -40 -43 -70 -23 -29 -114 -149 -201 -265
-104 -140 -165 -213 -177 -213 -10 0 -26 11 -36 25 -33 47 -73 100 -85 115
-53 60 -118 147 -118 157 0 6 -8 18 -18 25 -30 22 -172 211 -172 228 0 9 15
37 32 61 18 24 56 80 84 124 29 44 64 91 78 105 14 14 26 31 26 37 0 7 21 40
48 75 26 35 65 91 87 125 22 35 45 63 52 63 6 0 42 -41 78 -91z"/>
<path d="M414 1004 l-22 -15 25 -77 c25 -77 72 -235 136 -452 33 -113 34 -115
62 -113 16 1 32 6 36 10 4 4 -10 62 -32 128 -22 70 -34 124 -29 129 5 5 55 26
112 48 56 21 109 45 117 52 18 18 8 59 -21 86 -34 31 -177 83 -210 76 -15 -3
-40 -9 -56 -12 -27 -5 -28 -4 -46 63 -17 65 -31 94 -45 92 -3 0 -16 -7 -27
-15z m277 -224 c21 -11 39 -24 39 -29 0 -12 -162 -73 -170 -64 -10 11 -30 72
-30 90 0 37 91 38 161 3z"/>
</g>
</svg>
