<?xml version="1.0" standalone="no"?>
<!DOCTYPE svg PUBLIC "-//W3C//DTD SVG 20010904//EN"
 "http://www.w3.org/TR/2001/REC-SVG-20010904/DTD/svg10.dtd">
<svg version="1.0" xmlns="http://www.w3.org/2000/svg"
 width="512.000000pt" height="590.000000pt" viewBox="0 0 512.000000 590.000000"
 preserveAspectRatio="xMidYMid meet">
<metadata>
Created by potrace 1.16, written by Peter Selinger 2001-2019
</metadata>
<g transform="translate(0.000000,590.000000) scale(0.500000,-0.500000)"
fill="#000000" stroke="none">
<path d="M432 1139 c-5 -2 -25 -22 -33 -33 -4 -6 -11 -14 -14 -18 -4 -4 -7
-10 -8 -12 -3 -8 -13 -23 -27 -38 -8 -9 -15 -19 -16 -22 -2 -4 -6 -12 -11 -18
-5 -6 -11 -15 -14 -21 -10 -17 -31 -48 -40 -57 -5 -5 -11 -14 -14 -19 -2 -6
-8 -14 -12 -19 -4 -5 -10 -14 -14 -21 -4 -6 -9 -14 -12 -17 -5 -5 -26 -37 -47
-70 -7 -11 -18 -26 -24 -34 -6 -7 -13 -16 -15 -20 -4 -9 -34 -54 -39 -59 -4
-4 -13 -17 -27 -38 -15 -22 -12 -49 7 -70 5 -6 11 -13 14 -17 3 -4 8 -12 13
-17 4 -6 11 -14 14 -19 3 -5 10 -13 14 -19 4 -6 11 -15 15 -20 4 -6 11 -15 15
-21 5 -6 12 -15 17 -21 4 -5 12 -16 17 -24 5 -8 11 -16 13 -18 5 -3 21 -23 32
-37 3 -5 11 -15 16 -22 6 -7 12 -16 16 -21 3 -4 9 -12 14 -18 5 -5 12 -14 16
-19 3 -5 11 -15 16 -22 6 -7 13 -17 17 -22 3 -5 9 -13 14 -17 4 -5 7 -10 7
-11 0 -1 5 -7 12 -15 13 -15 21 -25 39 -52 12 -16 26 -33 56 -64 13 -13 53 29
63 65 2 5 7 13 13 20 6 6 14 16 18 22 9 14 17 25 32 42 7 8 15 18 18 24 3 5 8
12 13 15 4 3 10 10 12 15 5 10 15 23 30 38 6 7 13 16 16 21 6 11 26 40 37 54
8 10 11 14 28 39 5 6 12 14 16 17 4 3 9 9 11 14 3 4 7 12 11 16 3 4 11 16 18
25 19 29 27 39 38 49 5 6 16 19 23 29 7 10 17 23 21 29 11 14 14 22 16 41 2
43 14 78 62 184 27 62 27 79 -6 89 -14 5 -20 1 -26 -14 -28 -73 -31 -74 -31
-14 0 50 0 49 -29 49 -28 0 -28 0 -29 -39 -1 -42 -6 -43 -19 -4 -11 33 -31 43
-56 28 -28 -17 -28 -18 8 -72 47 -72 62 -99 66 -112 2 -7 6 -17 9 -22 5 -11 5
-11 1 -25 -7 -27 -8 -28 -24 -8 -6 7 -12 14 -14 16 -2 2 -7 8 -11 14 -5 6 -13
17 -18 24 -5 7 -14 19 -20 27 -5 8 -11 15 -13 17 -2 2 -7 8 -11 14 -5 6 -13
18 -19 26 -6 8 -13 19 -16 23 -3 4 -9 12 -13 16 -4 5 -10 13 -12 17 -3 5 -8
13 -13 18 -4 5 -13 16 -19 25 -6 9 -13 18 -16 22 -3 3 -8 11 -12 18 -4 7 -12
17 -17 23 -10 9 -22 24 -41 50 -4 6 -11 14 -15 19 -5 4 -13 16 -20 26 -6 9
-15 22 -20 28 -6 6 -14 16 -19 22 -15 19 -33 27 -48 22z m22 -84 c4 -5 9 -11
12 -15 3 -4 8 -11 13 -16 4 -5 18 -24 31 -41 13 -17 27 -36 31 -41 5 -5 11
-13 15 -18 3 -5 11 -16 18 -24 7 -8 16 -21 21 -29 5 -8 17 -21 27 -31 15 -14
19 -19 31 -41 10 -18 17 -28 30 -41 9 -9 19 -21 23 -27 14 -19 21 -29 28 -36
3 -4 8 -11 10 -15 1 -4 12 -20 23 -36 35 -51 36 -61 8 -86 -3 -3 -9 -10 -12
-17 -4 -7 -11 -16 -15 -20 -4 -4 -14 -17 -21 -27 -8 -11 -19 -26 -26 -35 -16
-21 -27 -36 -35 -47 -4 -5 -13 -16 -21 -24 -8 -8 -16 -18 -18 -22 -2 -4 -7
-11 -11 -16 -4 -5 -10 -13 -13 -18 -3 -5 -17 -24 -31 -43 -14 -19 -28 -38 -32
-44 -4 -5 -11 -14 -15 -21 -17 -23 -25 -33 -36 -48 l-10 -15 -16 0 c-16 0 -16
0 -20 7 -2 3 -8 11 -13 17 -5 5 -10 13 -11 16 -1 3 -8 12 -15 20 -9 9 -16 19
-20 28 -5 10 -9 15 -15 19 -5 4 -12 11 -16 19 -4 7 -10 15 -13 18 -6 5 -20 21
-28 33 -3 4 -9 12 -14 19 -5 6 -12 15 -14 21 -12 23 -24 39 -33 44 -6 3 -23
24 -40 48 -10 14 -33 44 -35 45 -1 1 -9 10 -17 21 -8 11 -18 24 -22 29 -17 20
-15 37 6 65 5 6 10 14 12 17 1 4 5 8 8 11 3 2 9 11 14 20 9 16 19 29 46 68 27
38 31 44 32 50 2 10 6 15 17 22 17 11 25 22 27 33 1 5 3 12 6 15 2 3 7 10 10
14 8 10 30 43 78 114 51 76 49 74 61 61z"/>
</g>
</svg>
