<?xml version="1.0" standalone="no"?>
<!DOCTYPE svg PUBLIC "-//W3C//DTD SVG 20010904//EN"
 "http://www.w3.org/TR/2001/REC-SVG-20010904/DTD/svg10.dtd">
<svg version="1.0" xmlns="http://www.w3.org/2000/svg"
 width="86.000000pt" height="100.000000pt" viewBox="0 0 86.000000 100.000000"
 preserveAspectRatio="xMidYMid meet">
<metadata>
Created by potrace 1.16, written by Peter Selinger 2001-2019
</metadata>
<g transform="translate(0.000000,100.000000) scale(0.100000,-0.100000)"
fill="#000000" stroke="none">
<path d="M341 946 c-6 -7 -74 -105 -151 -216 -93 -134 -140 -212 -140 -229 0
-17 25 -60 73 -122 202 -266 260 -339 267 -339 5 0 17 12 27 26 10 14 52 71
94 127 189 254 236 325 243 366 3 23 20 73 37 111 17 38 29 76 26 85 -10 24
-35 18 -51 -12 l-15 -28 -1 26 c0 15 -6 32 -14 39 -12 9 -18 7 -32 -9 -17 -19
-19 -19 -36 -5 -19 18 -48 12 -48 -9 0 -8 18 -42 40 -76 43 -67 57 -105 42
-115 -12 -7 -54 43 -146 177 -133 193 -184 241 -215 203z m179 -243 c77 -104
140 -193 140 -199 0 -6 -42 -67 -92 -136 -51 -68 -109 -148 -128 -176 -19 -29
-42 -52 -50 -52 -15 0 -271 330 -278 357 -2 7 48 88 110 180 62 93 119 179
126 191 7 12 17 22 22 22 6 0 73 -84 150 -187z"/>
</g>
</svg>
