<?xml version="1.0" standalone="no"?>
<!DOCTYPE svg PUBLIC "-//W3C//DTD SVG 20010904//EN"
 "http://www.w3.org/TR/2001/REC-SVG-20010904/DTD/svg10.dtd">
<svg version="1.0" xmlns="http://www.w3.org/2000/svg"
 width="128.000000pt" height="148.000000pt" viewBox="0 0 128.000000 148.000000"
 preserveAspectRatio="xMidYMid meet">
<metadata>
Created by potrace 1.16, written by Peter Selinger 2001-2019
</metadata>
<g transform="translate(0.000000,148.000000) scale(0.100000,-0.100000)"
fill="#000000" stroke="none">
<path d="M508 1392 c-36 -44 -99 -136 -258 -372 -35 -52 -66 -97 -70 -100 -23
-20 -110 -165 -110 -185 0 -13 13 -39 28 -57 15 -18 60 -76 99 -128 138 -182
225 -295 247 -320 12 -14 32 -41 45 -60 13 -19 40 -52 59 -72 34 -36 36 -37
53 -19 9 10 25 33 34 52 10 18 54 80 99 137 44 57 102 133 128 170 26 36 56
77 68 91 123 155 180 238 180 263 0 37 29 123 74 221 20 42 36 81 36 87 0 13
-39 32 -55 26 -7 -2 -16 -20 -20 -38 -8 -35 -22 -58 -35 -58 -5 0 -8 28 -7 63
l2 62 -30 0 c-30 0 -30 0 -28 -52 1 -29 1 -53 -2 -53 -12 0 -35 35 -35 54 0
32 -40 50 -69 30 -11 -8 -21 -19 -21 -24 0 -5 20 -38 44 -73 69 -98 99 -162
91 -198 -4 -16 -11 -29 -15 -27 -5 2 -86 107 -181 233 -94 127 -181 242 -193
257 -11 15 -36 47 -55 72 -40 55 -68 59 -103 18z m142 -178 c47 -64 104 -138
128 -166 23 -27 42 -53 42 -58 0 -5 19 -31 43 -58 23 -28 64 -82 91 -121 l48
-71 -175 -233 c-96 -127 -185 -249 -198 -269 -38 -60 -71 -62 -103 -6 -11 18
-25 40 -33 48 -24 28 -98 122 -130 168 -18 25 -46 62 -62 81 -81 97 -151 192
-151 208 0 9 30 61 68 116 37 55 77 115 88 134 12 20 28 39 35 44 7 4 20 21
28 38 33 63 172 261 184 260 6 0 50 -52 97 -115z"/>
</g>
</svg>
