<?xml version="1.0" standalone="no"?>
<!DOCTYPE svg PUBLIC "-//W3C//DTD SVG 20010904//EN"
 "http://www.w3.org/TR/2001/REC-SVG-20010904/DTD/svg10.dtd">
<svg version="1.0" xmlns="http://www.w3.org/2000/svg"
 width="116.000000pt" height="148.000000pt" viewBox="0 0 116.000000 148.000000"
 preserveAspectRatio="xMidYMid meet">
<metadata>
Created by potrace 1.16, written by Peter Selinger 2001-2019
</metadata>
<g transform="translate(0.000000,148.000000) scale(0.100000,-0.100000)"
fill="#000000" stroke="none">
<path d="M502 1381 c-18 -22 -32 -43 -32 -47 0 -4 -9 -17 -19 -28 -11 -12 -54
-73 -98 -137 -43 -64 -124 -183 -180 -263 -58 -82 -103 -156 -103 -169 0 -12
37 -69 83 -128 45 -59 92 -119 104 -135 111 -145 261 -337 290 -373 l36 -44
26 31 c14 16 39 51 54 76 16 25 43 63 60 85 18 21 41 51 52 66 92 128 169 225
177 225 5 0 8 4 8 10 0 5 27 45 60 89 33 44 60 87 60 95 0 32 -72 137 -236
346 -41 52 -117 150 -170 218 -109 140 -122 146 -172 83z m119 -123 c29 -39
68 -89 86 -111 41 -49 41 -73 0 -123 -18 -21 -57 -72 -87 -113 -44 -60 -55
-71 -64 -58 -6 8 -29 41 -51 72 -22 32 -59 78 -82 104 -23 25 -43 50 -43 54 0
4 29 49 65 99 36 50 73 103 82 119 10 16 23 29 29 29 7 0 36 -32 65 -72z
m-228 -295 c72 -101 171 -223 182 -223 13 0 36 27 55 65 8 17 46 72 85 124
l69 93 19 -23 c22 -28 57 -66 87 -94 29 -26 110 -152 110 -170 0 -7 -11 -26
-24 -42 -23 -28 -346 -455 -379 -503 -16 -23 -19 -23 -30 -8 -7 9 -30 41 -52
73 -22 31 -53 70 -68 88 -16 18 -69 86 -120 152 -50 66 -110 144 -134 173 -24
30 -43 62 -43 72 0 10 15 38 33 62 17 24 54 77 81 118 57 85 77 112 83 106 3
-2 23 -31 46 -63z"/>
</g>
</svg>
