<?xml version="1.0" standalone="no"?>
<!DOCTYPE svg PUBLIC "-//W3C//DTD SVG 20010904//EN"
 "http://www.w3.org/TR/2001/REC-SVG-20010904/DTD/svg10.dtd">
<svg version="1.0" xmlns="http://www.w3.org/2000/svg"
 width="460.000000pt" height="590.000000pt" viewBox="0 0 460.000000 590.000000"
 preserveAspectRatio="xMidYMid meet">
<metadata>
Created by potrace 1.16, written by Peter Selinger 2001-2019
</metadata>
<g transform="translate(0.000000,590.000000) scale(0.500000,-0.500000)"
fill="#000000" stroke="none">
<path d="M432 1139 c-5 -2 -25 -22 -33 -33 -4 -6 -11 -14 -14 -19 -4 -4 -7 -8
-7 -10 0 -4 -19 -32 -29 -41 -5 -5 -12 -14 -14 -20 -3 -6 -7 -13 -10 -16 -2
-3 -10 -14 -17 -26 -15 -25 -30 -46 -40 -58 -5 -4 -10 -12 -12 -17 -2 -4 -7
-12 -11 -17 -4 -5 -10 -14 -14 -21 -4 -6 -10 -16 -14 -20 -3 -4 -19 -27 -35
-51 -16 -24 -33 -48 -38 -53 -5 -6 -12 -15 -15 -21 -5 -10 -24 -38 -38 -56
-28 -37 -35 -51 -35 -67 0 -17 4 -27 17 -40 4 -6 10 -13 13 -17 3 -4 8 -12 13
-17 4 -6 11 -14 14 -19 3 -5 10 -13 14 -19 4 -6 11 -15 15 -20 4 -6 11 -15 15
-21 5 -6 12 -15 17 -21 4 -5 12 -16 17 -24 5 -8 11 -16 13 -18 5 -3 17 -18 30
-35 4 -6 13 -17 18 -24 6 -7 12 -16 16 -21 3 -4 9 -12 13 -17 5 -5 12 -14 17
-21 5 -6 13 -16 17 -22 4 -6 11 -15 15 -20 4 -5 9 -12 12 -16 3 -3 7 -9 10
-13 3 -4 9 -12 14 -17 9 -11 15 -18 36 -48 58 -84 90 -84 121 0 2 6 8 14 13
20 5 5 15 18 21 27 7 9 18 24 25 32 8 8 16 20 20 26 4 8 9 14 14 17 5 3 9 9
12 15 2 5 6 11 9 14 2 3 9 12 15 21 6 9 17 23 24 32 7 9 21 27 31 40 10 13 20
27 22 30 3 3 8 11 12 16 3 6 10 13 15 16 5 3 9 8 11 14 2 4 5 10 8 13 2 3 9
12 15 21 6 9 15 21 19 27 11 14 27 35 38 52 5 7 12 16 14 20 8 11 6 18 -10 42
-8 12 -14 22 -15 29 -2 10 -14 28 -27 43 -5 5 -10 11 -11 14 -2 3 -7 10 -11
15 -5 4 -12 15 -18 22 -5 7 -13 18 -18 23 -4 6 -9 14 -11 19 -2 4 -20 29 -40
54 -20 25 -41 51 -46 57 -5 7 -15 19 -23 27 -7 9 -16 20 -18 26 -3 5 -13 18
-21 27 -15 16 -21 24 -37 46 -3 5 -10 13 -15 19 -5 5 -15 18 -21 27 -6 10 -12
19 -14 20 -2 1 -8 9 -14 17 -24 32 -41 42 -59 36z m23 -85 c5 -5 10 -12 13
-16 3 -4 8 -10 11 -14 4 -4 10 -11 14 -16 11 -17 47 -64 49 -65 2 -1 16 -19
36 -46 12 -16 13 -37 3 -50 -3 -3 -8 -10 -11 -15 -4 -5 -16 -22 -28 -37 -12
-15 -24 -31 -27 -36 -3 -5 -8 -11 -11 -14 -2 -3 -8 -12 -14 -18 -38 -50 -36
-49 -52 -29 -6 8 -14 18 -18 22 -3 5 -8 13 -11 19 -3 6 -9 15 -16 21 -7 7 -14
16 -18 24 -5 9 -10 16 -17 22 -5 4 -13 13 -16 19 -3 6 -9 13 -13 16 -26 23
-22 38 28 102 4 5 21 30 38 54 48 72 47 71 60 57z m-173 -244 c3 -3 9 -11 15
-18 5 -7 12 -17 16 -22 3 -4 10 -13 14 -20 5 -6 12 -15 16 -21 4 -5 12 -16 18
-23 6 -7 11 -13 11 -14 0 -1 3 -5 6 -8 3 -4 11 -16 18 -26 7 -10 22 -28 32
-40 11 -11 20 -21 20 -22 0 -3 10 -8 14 -6 13 4 45 48 52 71 1 5 7 14 12 19 5
6 15 19 21 29 7 10 19 25 26 33 7 8 15 20 18 25 3 6 9 14 15 19 5 4 11 11 12
14 6 13 10 10 40 -28 22 -28 28 -34 35 -34 7 0 40 -40 50 -60 2 -4 14 -23 27
-43 30 -44 30 -48 7 -73 -4 -5 -12 -15 -16 -22 -4 -7 -11 -17 -15 -21 -4 -4
-13 -16 -20 -26 -7 -10 -18 -25 -25 -34 -7 -9 -15 -20 -19 -25 -4 -5 -9 -13
-12 -16 -3 -4 -12 -16 -20 -27 -8 -11 -18 -24 -22 -28 -4 -4 -10 -11 -13 -16
-3 -5 -8 -12 -11 -15 -10 -13 -59 -79 -65 -87 -7 -10 -23 -33 -43 -59 -32 -43
-34 -44 -44 -32 -13 15 -30 40 -33 48 -2 4 -9 13 -16 20 -8 8 -15 18 -19 27
-5 10 -9 15 -15 19 -5 4 -11 11 -16 19 -4 7 -10 15 -13 17 -6 5 -21 24 -32 39
-4 5 -11 14 -15 20 -4 6 -11 15 -15 20 -4 5 -10 13 -14 18 -4 4 -15 19 -25 32
-40 54 -50 67 -60 78 -5 6 -12 14 -14 17 -2 3 -11 15 -19 26 -27 34 -27 44 -5
74 6 8 11 15 11 16 0 1 4 6 9 12 5 5 10 13 13 18 7 13 84 128 93 138 5 5 8 5
15 -2z"/>
</g>
</svg>
