<?xml version="1.0" standalone="no"?>
<!DOCTYPE svg PUBLIC "-//W3C//DTD SVG 20010904//EN"
 "http://www.w3.org/TR/2001/REC-SVG-20010904/DTD/svg10.dtd">
<svg version="1.0" xmlns="http://www.w3.org/2000/svg"
 width="78.000000pt" height="100.000000pt" viewBox="0 0 78.000000 100.000000"
 preserveAspectRatio="xMidYMid meet">
<metadata>
Created by potrace 1.16, written by Peter Selinger 2001-2019
</metadata>
<g transform="translate(0.000000,100.000000) scale(0.100000,-0.100000)"
fill="#000000" stroke="none">
<path d="M338 943 c-8 -10 -44 -61 -78 -113 -35 -52 -93 -138 -130 -190 -98
-139 -97 -134 -65 -183 36 -53 305 -400 318 -409 17 -11 31 1 69 60 20 31 91
129 157 216 67 88 121 167 121 176 0 23 -36 74 -193 280 -145 188 -164 203
-199 163z m99 -124 c29 -35 53 -72 53 -81 0 -22 -91 -148 -106 -148 -7 0 -29
23 -51 51 -74 99 -72 86 -18 173 26 42 53 75 59 73 6 -2 35 -32 63 -68z m-157
-195 c68 -97 96 -128 112 -121 9 3 41 44 72 91 30 47 59 86 62 86 20 0 134
-154 134 -181 0 -10 -24 -48 -53 -85 -30 -38 -89 -117 -131 -176 -43 -60 -81
-108 -86 -108 -4 0 -28 28 -53 63 -25 34 -86 114 -136 177 -50 63 -91 122 -91
130 0 21 112 181 124 177 6 -2 27 -26 46 -53z"/>
</g>
</svg>
