<?xml version="1.0" standalone="no"?>
<!DOCTYPE svg PUBLIC "-//W3C//DTD SVG 20010904//EN"
 "http://www.w3.org/TR/2001/REC-SVG-20010904/DTD/svg10.dtd">
<svg version="1.0" xmlns="http://www.w3.org/2000/svg"
 width="108.000000pt" height="148.000000pt" viewBox="0 0 108.000000 148.000000"
 preserveAspectRatio="xMidYMid meet">
<metadata>
Created by potrace 1.16, written by Peter Selinger 2001-2019
</metadata>
<g transform="translate(0.000000,148.000000) scale(0.100000,-0.100000)"
fill="#000000" stroke="none">
<path d="M874 1368 c-4 -6 7 -23 27 -40 31 -27 32 -29 9 -23 -45 11 -54 10
-58 -8 -2 -12 3 -20 17 -24 12 -3 21 -12 21 -20 0 -13 -3 -13 -24 0 -20 14
-26 14 -36 2 -8 -10 -6 -18 11 -33 l21 -21 -37 -63 c-56 -92 -55 -91 -76 -72
-11 10 -19 23 -19 30 0 7 -12 26 -27 42 -16 16 -54 63 -86 105 -32 41 -66 77
-76 80 -12 3 -27 -7 -45 -29 -14 -18 -26 -36 -26 -40 0 -5 -11 -19 -24 -33
-13 -15 -32 -42 -43 -61 -26 -50 -75 -120 -82 -120 -10 0 -101 127 -101 142 0
7 9 19 20 26 23 14 26 40 5 48 -8 4 -25 -6 -39 -23 -19 -20 -25 -24 -26 -12 0
9 7 22 15 29 8 7 15 18 15 26 0 22 -20 27 -41 8 -28 -25 -37 -8 -10 19 22 24
20 57 -3 57 -7 0 -29 -18 -51 -40 l-39 -40 30 -37 c17 -21 54 -69 84 -108 29
-38 66 -85 82 -103 15 -18 28 -38 28 -45 0 -11 -48 -78 -84 -119 -9 -10 -16
-22 -16 -27 0 -5 -11 -22 -24 -38 -13 -16 -34 -48 -46 -71 -22 -43 -23 -44 -4
-67 10 -13 46 -59 79 -102 33 -43 106 -133 162 -200 56 -67 108 -134 117 -150
8 -15 23 -37 33 -48 11 -11 28 -33 37 -48 10 -15 24 -27 30 -27 7 0 30 26 52
57 21 32 57 83 80 113 39 52 242 337 291 409 14 21 20 38 14 45 -5 6 -19 28
-30 50 -24 42 -130 176 -140 176 -3 0 -14 14 -23 31 -22 38 -32 16 122 256 29
46 50 89 47 97 -3 7 -19 20 -36 27 -17 8 -31 17 -31 21 0 12 -38 9 -46 -4z
m-299 -170 c17 -23 58 -77 93 -119 34 -43 62 -83 62 -90 0 -14 -36 -76 -61
-104 -9 -11 -25 -34 -36 -50 -50 -83 -59 -95 -73 -95 -8 0 -31 23 -50 51 -19
28 -61 81 -92 119 -32 38 -58 72 -58 75 0 14 165 254 175 254 6 0 24 -18 40
-41z m308 -398 c31 -41 57 -83 57 -93 0 -11 -15 -38 -34 -61 -18 -23 -36 -51
-40 -63 -4 -12 -17 -30 -29 -40 -13 -10 -36 -38 -53 -63 -83 -124 -116 -169
-129 -180 -8 -7 -15 -18 -15 -24 0 -6 -8 -19 -17 -27 -10 -9 -26 -26 -36 -39
l-19 -22 -24 23 c-13 12 -27 32 -30 43 -7 22 -66 100 -95 126 -9 8 -55 65
-103 125 -47 61 -97 123 -111 140 -30 36 -32 74 -5 105 11 12 40 58 66 101 25
44 52 79 59 79 8 0 25 -15 38 -32 13 -18 45 -62 71 -98 79 -110 110 -149 123
-154 16 -7 43 3 43 16 0 5 17 35 37 66 42 63 61 94 99 167 l26 49 32 -35 c17
-19 57 -68 89 -109z"/>
</g>
</svg>
