<?xml version="1.0" standalone="no"?>
<!DOCTYPE svg PUBLIC "-//W3C//DTD SVG 20010904//EN"
 "http://www.w3.org/TR/2001/REC-SVG-20010904/DTD/svg10.dtd">
<svg version="1.0" xmlns="http://www.w3.org/2000/svg"
 width="430.000000pt" height="590.000000pt" viewBox="0 0 430.000000 590.000000"
 preserveAspectRatio="xMidYMid meet">
<metadata>
Created by potrace 1.16, written by Peter Selinger 2001-2019
</metadata>
<g transform="translate(0.000000,590.000000) scale(0.500000,-0.500000)"
fill="#000000" stroke="none">
<path d="M705 1099 c-4 -4 -7 -9 -8 -12 -2 -8 1 -12 25 -30 17 -12 12 -14 -13
-5 -23 8 -39 -9 -27 -30 5 -8 5 -7 -3 -7 -16 -1 -27 -23 -16 -33 2 -2 7 -7 11
-10 14 -11 11 -18 -25 -76 -4 -5 -8 -12 -9 -15 -13 -35 -39 -41 -50 -10 -8 20
-13 29 -24 39 -13 12 -27 29 -34 43 -2 5 -7 10 -10 13 -9 5 -21 21 -24 31 -2
7 -5 11 -13 18 -6 5 -14 15 -18 21 -16 26 -61 35 -61 12 0 -1 -6 -8 -13 -16
-8 -9 -14 -19 -16 -24 -6 -18 -12 -26 -24 -37 -9 -8 -14 -14 -19 -24 -3 -7 -7
-13 -9 -15 -4 -3 -11 -18 -17 -33 -2 -6 -6 -12 -8 -13 -3 -3 -25 -29 -34 -41
-7 -10 -10 -9 -23 8 -7 8 -16 20 -21 26 -51 65 -50 63 -21 92 12 12 12 23 -1
31 -14 8 -24 4 -36 -13 -4 -6 -8 -9 -10 -9 -6 2 -4 6 7 17 18 17 18 29 1 40
-9 7 -13 6 -25 -5 -19 -17 -23 -10 -5 8 19 21 20 28 6 41 -13 12 -29 2 -73
-46 -10 -11 -1 -30 34 -68 4 -5 11 -13 15 -19 7 -9 37 -49 48 -63 15 -19 30
-39 36 -47 3 -5 10 -13 14 -17 10 -11 18 -23 18 -28 0 -9 -11 -30 -20 -37 -5
-4 -11 -11 -12 -14 -2 -4 -5 -10 -7 -13 -3 -3 -7 -10 -10 -16 -2 -6 -9 -14
-16 -19 -7 -7 -11 -13 -13 -17 -5 -16 -16 -35 -23 -39 -9 -6 -17 -15 -19 -24
-1 -4 -6 -12 -11 -18 -24 -29 -22 -48 11 -85 16 -18 31 -37 46 -58 7 -9 17
-23 22 -30 6 -6 15 -19 20 -27 6 -8 15 -20 22 -26 6 -6 15 -16 19 -22 4 -6 12
-16 17 -22 19 -22 33 -39 43 -51 21 -27 46 -58 57 -70 6 -6 14 -18 17 -26 4
-8 11 -18 16 -24 5 -5 11 -14 13 -18 2 -4 8 -12 13 -17 5 -4 13 -15 19 -23 24
-35 33 -34 61 7 8 11 20 29 27 40 8 11 23 32 34 48 12 15 26 35 32 43 5 9 12
18 14 20 2 2 11 14 19 27 9 13 18 27 22 31 6 8 19 27 49 69 9 14 20 29 24 33
4 4 10 13 13 18 3 6 8 14 12 18 3 4 13 18 22 31 51 75 48 69 48 80 0 6 -2 12
-6 19 -13 21 -15 25 -19 36 -3 10 -7 16 -22 31 -9 10 -20 24 -23 30 -4 7 -10
14 -15 17 -5 4 -13 13 -20 23 -7 10 -18 23 -25 29 -9 8 -14 15 -19 24 -3 6 -8
15 -11 19 -8 11 -6 20 13 48 5 7 8 12 8 13 0 1 4 7 9 14 5 8 9 14 9 15 0 1 3
7 7 12 3 5 10 16 15 23 18 30 32 53 39 64 4 7 14 23 22 36 28 44 28 41 -18 72
-36 22 -39 23 -50 12z m-263 -122 c4 -5 11 -14 16 -20 5 -5 13 -15 18 -22 8
-11 25 -33 54 -69 63 -81 63 -78 2 -160 -17 -24 -23 -32 -28 -43 -6 -12 -15
-25 -30 -41 -4 -6 -10 -14 -13 -18 -12 -19 -52 18 -79 71 -6 12 -11 19 -20 27
-9 8 -15 15 -20 24 -4 9 -9 15 -14 19 -7 5 -25 26 -31 36 -7 11 -11 4 76 133
57 85 55 83 69 63z m-163 -244 c6 -7 11 -13 11 -13 0 -1 9 -13 19 -27 11 -14
21 -30 23 -34 3 -4 10 -14 18 -22 7 -8 15 -18 18 -23 3 -4 7 -11 9 -15 2 -3 8
-13 13 -21 5 -8 12 -16 16 -19 4 -3 12 -12 18 -20 30 -38 48 -32 76 25 2 4 9
13 15 21 10 13 17 25 32 54 3 7 8 15 11 19 3 4 7 11 9 16 2 6 7 12 12 17 6 6
9 10 9 13 0 13 18 40 27 40 6 0 27 -22 53 -58 35 -47 56 -75 65 -85 22 -24 23
-44 4 -64 -8 -7 -14 -15 -16 -21 -2 -7 -6 -12 -14 -19 -11 -9 -13 -12 -18 -31
-2 -9 -5 -13 -11 -17 -21 -16 -47 -49 -55 -69 -2 -7 -7 -13 -14 -19 -7 -6 -13
-14 -16 -20 -7 -15 -17 -30 -27 -40 -4 -4 -9 -12 -10 -16 -1 -5 -7 -13 -14
-20 -21 -23 -30 -33 -31 -39 -1 -4 -7 -12 -14 -20 -6 -7 -17 -20 -24 -28 -17
-20 -22 -21 -35 -3 -4 6 -11 15 -16 20 -4 5 -9 12 -9 15 -3 11 -6 17 -15 24
-7 6 -12 13 -17 23 -5 10 -9 16 -15 20 -6 4 -11 11 -15 18 -4 8 -8 12 -15 17
-7 4 -12 9 -16 15 -3 5 -11 16 -18 24 -19 21 -30 35 -37 44 -3 4 -10 13 -16
19 -5 6 -14 17 -20 25 -5 7 -14 18 -20 24 -5 6 -12 18 -16 26 -5 9 -10 17 -14
20 -20 15 -36 47 -31 59 1 3 3 9 4 13 2 7 6 14 19 27 15 17 21 26 21 35 0 2
34 55 54 85 13 20 19 21 33 5z"/>
</g>
</svg>
