<?xml version="1.0" standalone="no"?>
<!DOCTYPE svg PUBLIC "-//W3C//DTD SVG 20010904//EN"
 "http://www.w3.org/TR/2001/REC-SVG-20010904/DTD/svg10.dtd">
<svg version="1.0" xmlns="http://www.w3.org/2000/svg"
 width="73.000000pt" height="100.000000pt" viewBox="0 0 73.000000 100.000000"
 preserveAspectRatio="xMidYMid meet">
<metadata>
Created by potrace 1.16, written by Peter Selinger 2001-2019
</metadata>
<g transform="translate(0.000000,100.000000) scale(0.100000,-0.100000)"
fill="#000000" stroke="none">
<path d="M594 923 c-4 -10 -13 -33 -21 -51 -8 -18 -12 -40 -9 -48 7 -19 -30
-94 -47 -93 -6 0 -38 36 -70 80 -31 44 -64 82 -72 86 -22 8 -40 -11 -97 -99
-28 -43 -54 -78 -58 -78 -10 0 -46 43 -53 63 -4 10 -2 27 3 37 8 15 6 22 -9
32 -11 8 -25 26 -32 41 -7 15 -20 27 -30 27 -19 0 -49 -35 -49 -58 0 -7 32
-53 71 -103 l71 -90 -27 -37 c-59 -80 -95 -142 -95 -162 0 -20 303 -410 319
-410 4 0 15 8 24 18 30 33 277 384 277 393 0 20 -31 68 -85 134 -31 38 -54 73
-52 79 3 6 30 51 61 100 31 50 56 97 56 106 0 9 -13 23 -29 33 -36 21 -40 21
-47 0z m-165 -172 c28 -35 51 -72 51 -83 0 -21 -86 -158 -99 -158 -6 0 -18 12
-28 26 -10 14 -37 50 -61 80 -27 33 -40 59 -35 67 40 65 98 137 108 135 7 -2
35 -32 64 -67z m-113 -248 c30 -40 62 -73 70 -73 14 0 64 70 103 148 12 23 25
42 30 42 10 0 99 -112 108 -135 2 -8 -22 -49 -54 -93 -32 -44 -86 -118 -120
-165 -64 -89 -80 -98 -100 -54 -6 12 -58 81 -117 154 -58 73 -106 138 -106
144 0 13 53 102 79 132 18 21 6 33 107 -100z"/>
</g>
</svg>
