<?xml version="1.0" standalone="no"?>
<!DOCTYPE svg PUBLIC "-//W3C//DTD SVG 20010904//EN"
 "http://www.w3.org/TR/2001/REC-SVG-20010904/DTD/svg10.dtd">
<svg version="1.0" xmlns="http://www.w3.org/2000/svg"
 width="82.000000pt" height="148.000000pt" viewBox="0 0 82.000000 148.000000"
 preserveAspectRatio="xMidYMid meet">
<metadata>
Created by potrace 1.16, written by Peter Selinger 2001-2019
</metadata>
<g transform="translate(0.000000,148.000000) scale(0.100000,-0.100000)"
fill="#000000" stroke="none">
<path d="M234 1322 c7 -131 -7 -148 -28 -36 -17 91 -39 134 -52 100 -4 -9 4
-52 16 -96 12 -43 20 -84 18 -91 -2 -7 -24 31 -48 84 -31 68 -50 97 -62 97
-33 0 -28 -21 28 -122 31 -57 74 -135 95 -174 l38 -70 -36 -70 c-20 -38 -41
-79 -47 -91 -6 -13 -14 -23 -18 -23 -5 0 -8 -9 -8 -20 0 -11 -4 -20 -10 -20
-5 0 -10 -6 -10 -14 0 -8 -14 -40 -31 -71 -46 -83 -43 -96 46 -226 43 -63 125
-182 182 -266 57 -84 108 -155 112 -158 12 -7 41 22 41 42 0 8 8 27 18 41 10
15 26 43 35 63 9 20 23 42 32 49 8 7 15 17 15 22 0 16 85 179 120 228 9 14 23
42 31 63 8 22 22 43 31 48 24 13 23 32 -6 82 -22 40 -88 166 -234 447 -72 140
-69 135 -99 144 -20 6 -27 -4 -77 -109 -32 -68 -60 -114 -66 -110 -5 3 -8 16
-5 28 2 12 7 58 10 102 3 44 8 113 11 153 l7 72 -27 0 -27 0 5 -98z m184 -124
c24 -31 52 -91 57 -126 5 -31 0 -46 -33 -94 l-38 -57 -37 69 c-20 39 -37 74
-37 79 0 16 62 141 70 141 4 0 12 -6 18 -12z m-62 -282 c27 -59 44 -86 56 -86
12 0 29 25 54 80 21 44 42 80 48 80 6 0 16 -10 22 -23 6 -12 21 -40 32 -62 45
-86 122 -254 122 -267 0 -8 -4 -18 -9 -23 -12 -13 -40 -64 -119 -215 -118
-228 -133 -252 -147 -242 -14 10 -55 70 -55 80 0 4 -8 17 -18 28 -16 16 -129
177 -157 223 -5 9 -27 39 -47 67 -21 28 -38 59 -38 69 0 14 40 97 88 180 6 11
28 54 47 95 37 77 63 113 75 105 3 -2 24 -42 46 -89z"/>
</g>
</svg>
