<?xml version="1.0" standalone="no"?>
<!DOCTYPE svg PUBLIC "-//W3C//DTD SVG 20010904//EN"
 "http://www.w3.org/TR/2001/REC-SVG-20010904/DTD/svg10.dtd">
<svg version="1.0" xmlns="http://www.w3.org/2000/svg"
 width="55.000000pt" height="100.000000pt" viewBox="0 0 55.000000 100.000000"
 preserveAspectRatio="xMidYMid meet">
<metadata>
Created by potrace 1.16, written by Peter Selinger 2001-2019
</metadata>
<g transform="translate(0.000000,100.000000) scale(0.100000,-0.100000)"
fill="#000000" stroke="none">
<path d="M152 928 c-9 -41 -9 -42 -17 -15 -4 15 -13 27 -21 27 -9 0 -14 -11
-14 -27 l-1 -28 -15 28 c-16 29 -41 36 -50 13 -3 -8 22 -62 55 -120 34 -58 61
-109 61 -113 0 -5 -27 -62 -60 -127 -33 -65 -60 -130 -60 -145 0 -34 228 -379
252 -380 18 -1 74 90 173 283 l60 116 -104 203 c-57 111 -108 208 -114 215
-23 29 -47 13 -74 -48 -14 -33 -30 -60 -34 -60 -11 0 -11 78 0 145 9 55 6 75
-14 75 -8 0 -18 -18 -23 -42z m142 -150 c29 -40 15 -128 -19 -128 -14 0 -45
48 -45 70 0 20 29 80 39 80 5 0 17 -10 25 -22z m-72 -129 c4 -8 15 -31 23 -51
20 -50 40 -48 67 7 12 25 27 45 33 45 12 0 105 -191 105 -215 0 -7 -20 -49
-44 -93 -25 -44 -61 -113 -81 -152 -36 -71 -37 -72 -55 -54 -27 29 -190 274
-190 287 0 21 115 247 124 244 5 -2 13 -10 18 -18z"/>
</g>
</svg>
