<?xml version="1.0" standalone="no"?>
<!DOCTYPE svg PUBLIC "-//W3C//DTD SVG 20010904//EN"
 "http://www.w3.org/TR/2001/REC-SVG-20010904/DTD/svg10.dtd">
<svg version="1.0" xmlns="http://www.w3.org/2000/svg"
 width="330.000000pt" height="590.000000pt" viewBox="0 0 330.000000 590.000000"
 preserveAspectRatio="xMidYMid meet">
<metadata>
Created by potrace 1.16, written by Peter Selinger 2001-2019
</metadata>
<g transform="translate(0.000000,590.000000) scale(0.500000,-0.500000)"
fill="#000000" stroke="none">
<path d="M199 1136 c-5 -4 -7 -31 -8 -112 0 -48 -1 -58 -3 -57 -1 1 -2 3 -2 6
0 2 -2 11 -5 20 -3 9 -6 22 -8 30 -2 8 -5 19 -6 26 -2 7 -4 19 -6 27 -5 28
-11 36 -23 36 -14 0 -18 -17 -11 -42 3 -11 7 -26 14 -54 2 -7 5 -18 6 -23 12
-41 0 -25 -41 59 -27 53 -33 60 -51 52 -15 -7 -11 -24 24 -83 6 -10 11 -19 11
-20 0 -1 4 -9 10 -19 5 -9 14 -24 19 -34 5 -9 11 -22 15 -27 3 -6 12 -23 20
-38 8 -16 20 -38 26 -49 14 -24 14 -26 6 -37 -7 -10 -26 -47 -26 -51 0 -3 -21
-41 -26 -47 -2 -2 -7 -10 -10 -16 -3 -7 -8 -16 -11 -20 -3 -4 -6 -10 -7 -14
-1 -4 -3 -9 -6 -13 -2 -3 -6 -10 -8 -16 -2 -6 -15 -32 -29 -58 -25 -48 -25
-48 -25 -66 l0 -17 45 -68 c25 -37 47 -70 50 -73 5 -6 15 -20 49 -71 30 -44
40 -58 56 -79 12 -16 29 -41 67 -98 30 -47 65 -60 65 -26 0 7 12 35 20 48 4 7
10 16 13 22 2 5 8 14 12 20 4 6 9 16 11 21 3 7 8 15 16 23 9 9 12 15 14 22 1
5 3 11 5 13 1 3 3 8 4 12 2 8 5 16 11 25 17 24 29 45 31 53 4 12 10 24 18 33
4 4 8 11 10 14 1 4 7 12 11 19 15 18 22 32 26 46 2 7 5 15 7 18 3 3 6 10 7 15
2 6 6 12 14 20 14 13 16 37 5 54 -3 5 -11 20 -18 33 -34 66 -58 113 -64 123
-4 6 -11 21 -18 33 -6 12 -14 27 -18 34 -4 6 -7 12 -7 13 0 1 -4 9 -10 19 -5
9 -13 23 -17 31 -3 7 -10 20 -14 28 -22 39 -66 126 -78 150 -5 10 -15 20 -24
22 -26 6 -35 -1 -50 -40 -4 -11 -25 -53 -56 -112 -12 -23 -18 -23 -16 1 1 15
2 39 5 138 4 117 4 117 -2 121 -6 5 -12 5 -19 0z m137 -176 c2 -2 5 -7 7 -10
2 -4 6 -10 8 -13 5 -6 22 -38 26 -47 13 -29 11 -63 -4 -83 -2 -3 -8 -12 -13
-20 -9 -15 -28 -41 -30 -41 -6 0 -22 28 -25 41 -1 4 -4 10 -8 15 -18 19 -29
53 -22 66 1 3 3 8 4 12 1 4 8 20 15 36 8 16 15 31 17 34 6 13 17 18 25 10z
m-81 -161 c3 -3 42 -81 44 -88 6 -22 26 -47 37 -47 12 0 14 3 46 67 38 75 38
76 47 46 2 -7 5 -13 9 -15 13 -11 40 -63 49 -94 2 -9 10 -27 16 -40 6 -13 16
-31 20 -41 5 -10 13 -24 17 -30 15 -23 18 -43 9 -57 -3 -6 -16 -29 -27 -50
-31 -58 -33 -62 -40 -74 -3 -6 -8 -15 -11 -20 -3 -5 -12 -22 -20 -38 -8 -16
-24 -47 -35 -68 -11 -21 -21 -40 -22 -41 -1 -1 -5 -8 -9 -16 -4 -8 -11 -19
-15 -23 -4 -5 -10 -14 -13 -21 -11 -22 -18 -23 -29 -5 -3 4 -11 16 -19 27 -8
11 -17 25 -20 32 -3 7 -10 17 -16 23 -6 6 -18 23 -28 37 -10 14 -20 29 -24 33
-8 9 -70 102 -80 121 -4 8 -14 20 -21 28 -7 8 -17 19 -21 26 -19 28 -19 33 -5
61 6 10 18 33 27 50 8 17 19 36 24 43 4 6 14 25 21 41 8 16 15 31 16 33 4 6
22 43 22 44 0 1 28 47 32 54 5 6 14 7 19 2z"/>
</g>
</svg>
