<?xml version="1.0" standalone="no"?>
<!DOCTYPE svg PUBLIC "-//W3C//DTD SVG 20010904//EN"
 "http://www.w3.org/TR/2001/REC-SVG-20010904/DTD/svg10.dtd">
<svg version="1.0" xmlns="http://www.w3.org/2000/svg"
 width="94.000000pt" height="148.000000pt" viewBox="0 0 94.000000 148.000000"
 preserveAspectRatio="xMidYMid meet">
<metadata>
Created by potrace 1.16, written by Peter Selinger 2001-2019
</metadata>
<g transform="translate(0.000000,148.000000) scale(0.100000,-0.100000)"
fill="#000000" stroke="none">
<path d="M471 1416 c-10 -11 -6 -21 18 -45 17 -18 31 -36 31 -41 0 -19 -26
-10 -48 15 -13 14 -27 23 -32 20 -15 -9 -12 -17 20 -55 33 -38 35 -46 19 -56
-6 -3 -25 8 -43 25 -57 55 -64 36 -10 -27 21 -25 34 -49 30 -57 -10 -26 -25
-16 -57 36 -19 30 -37 49 -46 47 -16 -3 -50 -58 -73 -118 -13 -35 -103 -230
-121 -262 -5 -10 -9 -24 -9 -32 0 -8 -22 -58 -50 -113 -54 -107 -59 -131 -32
-156 10 -10 29 -41 42 -70 41 -91 89 -191 104 -217 8 -14 28 -53 45 -87 17
-34 34 -70 39 -80 5 -10 15 -31 23 -48 16 -33 55 -41 70 -15 15 26 194 352
234 425 21 39 42 74 46 80 16 16 9 79 -11 113 -23 37 -25 63 -8 80 19 19 32
14 51 -18 18 -30 40 -39 51 -21 4 5 -5 23 -19 39 -29 35 -31 45 -9 63 14 11
20 9 45 -19 16 -18 33 -32 38 -32 22 0 20 20 -4 48 -29 34 -31 45 -11 62 15
12 21 8 61 -45 12 -16 16 -17 24 -6 9 14 4 51 -8 51 -3 0 -12 12 -19 28 -7 15
-25 42 -40 59 -26 30 -30 32 -48 19 -19 -14 -18 -15 5 -40 20 -21 22 -28 11
-41 -18 -21 -36 -19 -57 8 -10 13 -24 22 -31 19 -17 -5 -15 -15 7 -41 35 -41
-5 -78 -44 -41 -21 20 -45 27 -45 13 0 -4 10 -17 21 -29 23 -25 20 -54 -6 -54
-17 0 -67 100 -67 135 0 23 52 114 66 115 6 0 20 -9 32 -21 23 -21 44 -19 44
6 0 7 -11 22 -26 32 -17 13 -23 24 -18 36 8 23 27 22 49 -3 10 -11 24 -20 32
-20 21 0 15 26 -12 46 -14 10 -25 27 -25 36 0 19 15 24 25 8 3 -5 15 -15 26
-20 37 -20 33 16 -7 59 -20 22 -43 50 -51 61 -17 24 -43 27 -43 5 0 -9 9 -25
20 -37 11 -12 20 -26 20 -30 0 -18 -31 -20 -49 -4 -26 24 -37 2 -16 -30 24
-36 13 -57 -25 -49 -23 5 -30 3 -30 -9 0 -8 5 -18 10 -21 6 -3 10 -13 10 -21
0 -20 -43 -84 -57 -84 -16 0 -63 107 -65 147 -2 45 14 59 37 33 18 -20 45 -27
45 -12 0 5 -11 19 -25 32 -25 24 -33 50 -15 50 6 0 19 -9 30 -20 42 -42 55
-15 15 32 -14 16 -25 33 -25 38 0 21 23 20 46 -1 18 -17 27 -20 36 -11 12 12
-29 63 -97 123 -27 24 -34 27 -44 15z m-59 -312 c33 -70 39 -90 29 -103 -6 -9
-18 -30 -25 -46 -8 -17 -24 -39 -35 -49 -20 -18 -21 -17 -60 45 -23 35 -41 71
-41 80 0 8 14 43 30 77 17 34 30 67 30 72 0 6 7 10 15 10 10 0 32 -34 57 -86z
m-130 -176 c14 -18 36 -52 49 -75 37 -66 59 -59 99 32 18 41 39 75 47 75 7 0
13 -4 13 -10 0 -5 26 -62 58 -127 31 -65 64 -137 71 -161 16 -48 16 -49 -55
-159 -19 -28 -34 -56 -34 -62 0 -15 -38 -81 -66 -113 -12 -16 -26 -38 -29 -50
-9 -32 -45 -109 -61 -132 -12 -17 -19 -8 -72 105 -32 68 -65 140 -72 159 -7
19 -35 76 -61 126 -49 91 -59 137 -39 172 5 9 23 46 38 82 65 149 76 170 83
170 3 0 18 -15 31 -32z"/>
</g>
</svg>
