<?xml version="1.0" standalone="no"?>
<!DOCTYPE svg PUBLIC "-//W3C//DTD SVG 20010904//EN"
 "http://www.w3.org/TR/2001/REC-SVG-20010904/DTD/svg10.dtd">
<svg version="1.0" xmlns="http://www.w3.org/2000/svg"
 width="64.000000pt" height="100.000000pt" viewBox="0 0 64.000000 100.000000"
 preserveAspectRatio="xMidYMid meet">
<metadata>
Created by potrace 1.16, written by Peter Selinger 2001-2019
</metadata>
<g transform="translate(0.000000,100.000000) scale(0.100000,-0.100000)"
fill="#000000" stroke="none">
<path d="M323 958 c-20 -24 -24 -57 -11 -79 10 -17 10 -23 1 -26 -7 -3 -13
-14 -13 -26 0 -20 -3 -19 -25 10 -31 39 -48 35 -74 -20 -125 -268 -161 -348
-166 -368 -4 -18 20 -73 91 -212 52 -104 102 -191 111 -194 8 -3 21 1 28 8 23
23 193 329 200 358 3 15 -1 43 -10 64 -8 20 -15 39 -15 42 0 9 39 5 45 -5 14
-22 26 -9 20 20 -7 33 -4 36 25 18 24 -15 35 -6 21 20 -14 27 -2 36 21 15 13
-12 22 -13 29 -6 18 18 -42 113 -71 113 -5 0 -10 -14 -10 -31 0 -29 -2 -31
-26 -25 -24 6 -26 5 -20 -19 6 -22 3 -25 -19 -25 -16 0 -25 -6 -25 -15 0 -23
-16 -18 -28 10 -15 33 -15 78 0 93 7 7 25 12 41 12 26 0 29 3 24 26 -4 22 -2
25 15 20 14 -3 22 1 25 15 3 10 9 19 14 19 18 0 8 31 -22 65 -37 41 -49 44
-49 11 0 -14 -4 -28 -10 -31 -5 -3 -10 -15 -10 -25 0 -10 -6 -23 -13 -27 -7
-4 -18 -23 -23 -42 -12 -43 -28 -49 -48 -19 -26 41 -31 77 -10 85 31 12 55 39
49 55 -4 10 1 17 14 21 30 7 26 18 -22 65 -34 34 -46 40 -54 30z m-37 -234
c17 -44 16 -46 -3 -72 -27 -36 -44 -34 -68 10 l-20 37 23 46 c27 55 41 51 68
-21z m-72 -139 c15 -25 33 -45 42 -45 8 0 24 20 36 45 12 25 27 44 33 42 12
-4 80 -140 90 -179 5 -23 -7 -51 -64 -150 -38 -68 -74 -135 -80 -150 -16 -41
-36 -34 -56 20 -10 26 -42 95 -71 154 -30 59 -54 113 -54 120 0 25 75 188 86
188 7 0 24 -20 38 -45z"/>
</g>
</svg>
