<?xml version="1.0" standalone="no"?>
<!DOCTYPE svg PUBLIC "-//W3C//DTD SVG 20010904//EN"
 "http://www.w3.org/TR/2001/REC-SVG-20010904/DTD/svg10.dtd">
<svg version="1.0" xmlns="http://www.w3.org/2000/svg"
 width="390.000000pt" height="590.000000pt" viewBox="0 0 390.000000 590.000000"
 preserveAspectRatio="xMidYMid meet">
<metadata>
Created by potrace 1.16, written by Peter Selinger 2001-2019
</metadata>
<g transform="translate(0.000000,590.000000) scale(0.500000,-0.500000)"
fill="#000000" stroke="none">
<path d="M196 1136 c-17 -12 -19 -35 -4 -55 12 -16 20 -32 23 -45 1 -6 5 -15
8 -19 2 -3 6 -10 7 -15 1 -5 5 -11 9 -15 7 -6 8 -7 9 -23 1 -16 2 -18 13 -35
35 -52 41 -82 21 -112 -12 -19 -27 -32 -33 -30 -16 5 -38 27 -40 40 -1 6 -4
14 -6 18 -3 5 -5 10 -5 12 0 2 -8 12 -18 23 -11 11 -22 25 -27 31 -4 5 -10 13
-13 16 -3 3 -7 9 -8 13 -1 4 -5 10 -9 14 -3 4 -10 13 -14 20 -5 10 -9 15 -15
18 -4 2 -9 8 -13 12 -15 23 -43 3 -43 -31 0 -20 -1 -18 75 -112 109 -134 107
-131 107 -137 0 -7 -6 -22 -13 -32 -4 -5 -8 -13 -11 -17 -2 -4 -18 -31 -36
-60 -75 -119 -75 -119 -66 -132 6 -9 33 -48 50 -71 22 -32 58 -85 58 -86 0 -4
18 -30 27 -40 6 -6 12 -16 15 -21 2 -6 9 -16 15 -24 6 -8 13 -19 16 -24 2 -6
10 -16 17 -22 9 -10 12 -14 13 -20 3 -17 15 -37 28 -45 10 -6 22 -21 26 -31 2
-6 7 -14 11 -19 5 -5 8 -11 9 -16 6 -36 66 -11 72 30 1 11 10 30 18 39 2 3 17
25 32 48 15 23 33 48 40 55 8 9 14 18 16 25 3 7 9 17 14 23 5 6 13 18 18 26 5
8 15 23 24 32 8 9 15 18 15 20 0 2 3 8 7 14 4 6 9 15 12 20 3 6 11 15 22 24
16 13 21 21 21 31 0 2 4 7 8 12 13 15 11 31 -6 50 -8 9 -11 14 -14 25 -2 7 -6
17 -9 21 -3 4 -7 12 -10 18 -3 6 -9 16 -15 23 -7 9 -10 14 -11 21 -2 19 -23
53 -38 62 -6 4 -12 9 -12 11 -1 1 -4 6 -7 11 -13 20 -12 23 74 142 7 9 22 30
34 47 12 17 26 37 32 45 14 19 16 23 16 53 0 38 -4 44 -21 31 -5 -4 -10 -7
-11 -7 -1 0 -5 -6 -8 -12 -7 -15 -33 -47 -44 -56 -5 -4 -8 -9 -10 -14 -1 -5
-5 -12 -8 -16 -3 -4 -7 -11 -10 -15 -2 -4 -7 -12 -10 -16 -3 -4 -10 -15 -15
-24 -7 -12 -12 -18 -17 -21 -11 -6 -26 -23 -26 -29 0 -26 -23 -30 -31 -6 -2 5
-8 17 -13 26 -14 25 -14 23 3 49 5 7 9 14 9 15 0 8 33 63 44 73 4 4 6 9 8 17
2 9 4 13 12 22 6 7 11 14 13 21 5 14 7 18 21 34 15 17 18 24 18 41 0 23 -6 29
-29 29 -19 0 -20 -1 -39 -34 -5 -8 -12 -19 -15 -25 -4 -5 -7 -13 -8 -17 -1 -4
-13 -30 -27 -59 -14 -29 -28 -56 -30 -62 -14 -33 -46 -34 -46 0 0 10 -39 37
-55 37 -6 0 -14 -9 -31 -37 -15 -25 -20 -27 -27 -15 -7 13 -39 83 -42 95 -2 7
-5 14 -7 17 -9 13 -24 49 -25 60 -4 32 -38 56 -59 42z m212 -243 c3 -4 13 -19
23 -36 10 -16 25 -42 34 -57 39 -67 39 -65 16 -90 -2 -3 -6 -8 -7 -13 -1 -4
-7 -12 -14 -19 -9 -8 -12 -13 -14 -20 -5 -19 -10 -31 -17 -37 -3 -3 -10 -10
-14 -16 -17 -21 -29 -15 -57 25 -3 4 -8 11 -13 16 -4 5 -12 17 -18 25 -5 9
-13 19 -17 24 -3 4 -8 10 -9 14 -2 3 -5 9 -7 12 -2 3 -4 8 -4 11 0 11 39 74
46 74 1 0 6 9 11 20 34 70 46 83 61 67z m-144 -221 c10 -8 25 -31 27 -39 1 -4
6 -12 14 -20 7 -8 14 -16 14 -19 4 -19 5 -20 13 -24 10 -5 16 -12 20 -24 3
-10 4 -12 13 -17 9 -5 12 -8 15 -15 13 -27 49 -16 55 17 2 8 3 10 28 47 12 18
27 41 34 51 38 59 33 60 74 -13 15 -27 36 -63 46 -80 22 -38 24 -48 14 -65 -4
-6 -9 -14 -12 -20 -3 -5 -12 -19 -19 -29 -8 -10 -19 -26 -24 -35 -6 -9 -18
-25 -27 -36 -9 -11 -21 -27 -26 -36 -5 -9 -17 -28 -27 -42 -9 -14 -19 -28 -21
-32 -2 -3 -8 -13 -14 -22 -6 -9 -13 -20 -16 -26 -2 -5 -9 -16 -14 -23 -5 -7
-12 -18 -16 -24 -11 -15 -15 -15 -23 0 -2 4 -9 14 -15 21 -6 8 -14 20 -18 27
-4 7 -9 15 -12 18 -3 3 -8 10 -11 16 -3 6 -11 18 -19 27 -7 8 -17 23 -23 33
-6 10 -15 24 -21 31 -6 8 -14 18 -16 24 -3 5 -9 15 -14 20 -5 6 -12 16 -16 23
-4 6 -8 12 -9 13 -1 1 -5 7 -8 14 -4 7 -9 16 -14 20 -5 4 -10 11 -14 19 -3 7
-8 16 -11 20 -12 14 -6 50 14 74 11 13 14 19 18 33 3 10 9 22 14 30 5 7 9 16
10 20 1 5 18 36 23 43 2 1 4 2 7 2 2 0 6 -1 7 -2z"/>
</g>
</svg>
