<?xml version="1.0" standalone="no"?>
<!DOCTYPE svg PUBLIC "-//W3C//DTD SVG 20010904//EN"
 "http://www.w3.org/TR/2001/REC-SVG-20010904/DTD/svg10.dtd">
<svg version="1.0" xmlns="http://www.w3.org/2000/svg"
 width="66.000000pt" height="100.000000pt" viewBox="0 0 66.000000 100.000000"
 preserveAspectRatio="xMidYMid meet">
<metadata>
Created by potrace 1.16, written by Peter Selinger 2001-2019
</metadata>
<g transform="translate(0.000000,100.000000) scale(0.100000,-0.100000)"
fill="#000000" stroke="none">
<path d="M163 963 c-22 -8 -14 -41 32 -133 48 -96 55 -130 29 -151 -18 -15
-11 -22 -104 106 -57 80 -83 92 -88 42 -3 -23 11 -45 72 -117 42 -49 76 -93
76 -98 0 -5 -22 -46 -50 -91 -28 -45 -50 -91 -50 -101 0 -10 46 -87 103 -171
56 -83 110 -165 121 -181 21 -33 53 -35 70 -3 19 36 128 198 180 269 l50 69
-33 63 c-18 35 -46 80 -62 100 -16 20 -29 40 -29 44 0 4 27 43 61 86 67 86 92
134 83 158 -12 31 -34 15 -89 -68 -69 -105 -82 -117 -100 -92 -18 23 -9 45 56
146 53 84 59 113 21 118 -20 3 -28 -9 -68 -93 l-46 -97 -27 26 c-33 31 -39 32
-66 6 -27 -26 -33 -19 -65 70 -22 61 -46 101 -59 99 -3 0 -12 -3 -18 -6z m215
-267 c17 -30 32 -61 32 -69 0 -22 -51 -108 -68 -115 -17 -6 -79 59 -88 94 -6
24 60 144 79 144 7 0 27 -24 45 -54z m-106 -206 c56 -82 78 -88 109 -28 28 55
58 98 69 98 10 0 80 -128 80 -145 0 -19 -181 -285 -193 -285 -9 0 -156 213
-192 278 -11 20 58 157 75 150 4 -2 28 -32 52 -68z"/>
</g>
</svg>
