<?xml version="1.0" standalone="no"?>
<!DOCTYPE svg PUBLIC "-//W3C//DTD SVG 20010904//EN"
 "http://www.w3.org/TR/2001/REC-SVG-20010904/DTD/svg10.dtd">
<svg version="1.0" xmlns="http://www.w3.org/2000/svg"
 width="96.000000pt" height="148.000000pt" viewBox="0 0 96.000000 148.000000"
 preserveAspectRatio="xMidYMid meet">
<metadata>
Created by potrace 1.16, written by Peter Selinger 2001-2019
</metadata>
<g transform="translate(0.000000,148.000000) scale(0.100000,-0.100000)"
fill="#000000" stroke="none">
<path d="M430 1406 c-6 -8 -17 -13 -23 -11 -19 7 -40 -12 -34 -29 4 -9 19 -17
34 -17 l28 -1 -30 -7 c-38 -8 -40 -35 -2 -39 16 -2 27 -9 27 -18 0 -11 -8 -14
-27 -12 -36 4 -38 -24 -3 -32 33 -8 40 -62 12 -94 -10 -11 -34 -45 -52 -73
-18 -29 -37 -53 -41 -53 -4 0 -19 14 -34 31 l-26 32 22 23 c13 14 19 29 15 40
-6 15 -9 15 -29 -5 -13 -11 -29 -21 -35 -21 -17 0 -15 25 3 40 8 7 15 19 15
26 0 19 -27 17 -38 -3 -6 -10 -16 -14 -27 -9 -16 6 -15 9 10 35 39 42 15 72
-27 34 -11 -10 -29 -18 -41 -18 -17 0 -22 -6 -23 -29 -1 -16 -8 -33 -18 -38
-19 -11 -22 -48 -3 -48 8 0 22 9 32 20 10 11 22 20 27 20 16 0 8 -32 -13 -49
-19 -15 -19 -18 -6 -29 13 -11 19 -9 35 9 21 21 42 19 42 -5 0 -8 -7 -19 -15
-26 -18 -15 -20 -40 -3 -40 6 0 20 8 30 17 22 20 41 12 65 -29 16 -25 15 -28
-10 -61 -59 -77 -207 -301 -207 -313 0 -7 28 -50 63 -96 34 -46 69 -93 77
-105 25 -35 173 -228 180 -233 3 -3 20 -26 37 -51 58 -85 74 -85 113 -5 11 22
67 102 125 176 58 74 129 168 158 209 29 40 56 80 62 87 7 10 6 20 -3 32 -6 9
-16 27 -22 39 -9 22 -149 209 -202 271 -31 36 -30 41 17 97 22 26 27 28 45 17
11 -6 24 -12 30 -12 16 0 12 30 -5 36 -19 8 -20 44 -1 44 7 0 19 -7 26 -15 7
-8 16 -15 21 -15 14 0 10 26 -6 40 -8 7 -15 19 -15 27 0 11 9 7 31 -11 45 -38
72 -10 29 29 -13 12 -20 29 -18 44 3 23 -1 26 -29 29 -18 2 -33 7 -33 13 0 5
-9 9 -20 9 -24 0 -26 -22 -5 -40 8 -7 15 -19 15 -28 0 -12 -5 -11 -23 6 -13
12 -29 22 -35 22 -19 0 -14 -25 8 -45 24 -21 25 -34 6 -41 -8 -3 -24 4 -36 16
-16 16 -25 19 -33 11 -8 -8 -5 -17 11 -34 12 -13 22 -29 22 -37 0 -17 -50 -82
-60 -78 -5 2 -31 34 -59 71 -38 50 -51 77 -51 102 0 29 4 34 28 37 15 2 27 8
27 13 0 6 -12 11 -27 13 -16 2 -28 9 -28 17 0 8 12 15 28 17 37 4 35 31 -3 39
l-30 7 28 1 c15 0 30 8 34 17 7 18 -13 35 -32 28 -6 -3 -18 2 -25 11 -16 19
-34 19 -50 1z m74 -355 c25 -33 46 -65 46 -72 0 -7 -19 -36 -42 -66 l-41 -54
-54 53 c-29 29 -53 56 -53 60 0 11 84 137 92 138 4 0 27 -27 52 -59z m171
-227 c111 -158 135 -194 135 -200 0 -6 -109 -157 -173 -240 -18 -23 -58 -78
-90 -123 -34 -48 -65 -81 -75 -81 -9 1 -34 24 -54 53 -38 53 -70 95 -209 275
-43 57 -79 109 -79 116 0 6 36 63 80 126 44 63 87 130 97 148 9 17 20 32 24
32 4 0 29 -26 56 -57 57 -68 73 -82 89 -76 6 2 33 36 60 75 l48 70 30 -37 c17
-21 45 -58 61 -81z"/>
</g>
</svg>
