<?xml version="1.0" standalone="no"?>
<!DOCTYPE svg PUBLIC "-//W3C//DTD SVG 20010904//EN"
 "http://www.w3.org/TR/2001/REC-SVG-20010904/DTD/svg10.dtd">
<svg version="1.0" xmlns="http://www.w3.org/2000/svg"
 width="386.000000pt" height="590.000000pt" viewBox="0 0 386.000000 590.000000"
 preserveAspectRatio="xMidYMid meet">
<metadata>
Created by potrace 1.16, written by Peter Selinger 2001-2019
</metadata>
<g transform="translate(0.000000,590.000000) scale(0.500000,-0.500000)"
fill="#000000" stroke="none">
<path d="M358 1137 c-3 -1 -7 -6 -9 -11 -4 -9 -5 -9 -27 -12 -32 -4 -31 -30 2
-34 22 -3 24 -8 3 -8 -33 0 -38 -29 -6 -33 20 -2 23 -3 25 -7 4 -8 -4 -12 -21
-12 -35 0 -33 -26 2 -30 27 -4 34 -36 14 -60 -12 -16 -21 -29 -29 -42 -3 -6
-11 -17 -17 -24 -6 -7 -12 -15 -14 -19 -9 -23 -22 -27 -36 -12 -27 29 -29 35
-18 48 16 20 19 28 14 36 -6 9 -15 7 -30 -8 -14 -14 -17 -15 -23 -9 -5 5 -5
12 1 18 26 24 16 58 -10 35 -19 -16 -21 -17 -26 -12 -5 6 -4 12 7 22 18 17 21
29 10 39 -9 9 -16 7 -31 -8 -12 -12 -17 -14 -25 -11 -19 8 -39 -10 -31 -28 5
-11 4 -12 -10 -27 -19 -20 -21 -25 -10 -35 11 -11 17 -10 33 7 14 15 19 17 25
10 5 -5 4 -7 -11 -23 -28 -29 -9 -52 21 -25 27 25 45 9 19 -19 -28 -30 -6 -51
23 -23 18 17 18 17 38 -5 29 -33 29 -34 17 -47 -4 -5 -9 -13 -12 -17 -6 -10
-24 -36 -32 -45 -3 -4 -16 -23 -28 -41 -13 -19 -26 -38 -31 -44 -5 -5 -11 -15
-15 -21 -4 -6 -15 -23 -25 -37 -40 -56 -43 -70 -18 -99 5 -5 12 -14 16 -20 5
-6 23 -30 40 -54 18 -24 34 -46 37 -50 3 -4 10 -13 17 -21 7 -8 23 -28 36 -45
12 -17 27 -36 32 -42 4 -6 18 -24 31 -41 12 -16 25 -33 28 -36 3 -3 14 -18 25
-33 54 -76 69 -79 100 -17 6 13 13 24 14 25 2 2 9 10 16 20 6 9 17 23 23 30 5
7 13 17 16 22 3 5 9 12 13 16 4 3 9 10 11 14 2 4 10 14 18 22 8 9 15 19 17 22
8 15 57 81 67 91 3 3 8 8 9 12 3 5 26 37 47 66 38 51 38 51 21 77 -6 9 -12 20
-13 25 -1 4 -5 13 -9 18 -14 19 -56 73 -67 87 -6 7 -19 24 -29 37 -10 13 -23
30 -29 37 -6 8 -19 24 -28 36 -24 29 -24 26 13 73 21 26 21 27 39 11 25 -23
41 -2 18 23 -13 14 -14 19 -9 27 4 6 11 5 17 -1 15 -16 26 -20 35 -13 10 8 7
17 -11 37 -15 17 -7 18 12 2 31 -27 52 -2 23 29 -15 15 -16 18 -12 27 9 22
-12 40 -35 30 -3 -1 -7 1 -14 9 -18 16 -26 17 -34 7 -7 -10 -4 -19 11 -38 11
-13 8 -22 -3 -10 -16 17 -30 21 -38 12 -7 -9 -4 -18 11 -35 15 -16 15 -21 5
-29 -6 -4 -14 0 -20 9 -12 16 -27 20 -35 10 -5 -8 -3 -14 14 -31 20 -21 15
-35 -25 -77 -10 -12 -27 3 -62 56 -4 7 -11 16 -14 19 -32 34 -35 77 -6 80 37
4 40 31 4 31 -9 0 -13 1 -16 4 -7 7 0 14 16 14 33 0 36 31 3 34 -21 2 -19 8 3
8 33 0 33 31 0 34 -23 3 -23 3 -27 12 -4 12 -19 17 -31 11z m21 -258 c2 -4 8
-11 12 -16 5 -6 17 -23 28 -37 36 -48 36 -38 -7 -93 -35 -45 -35 -45 -48 -31
-29 31 -66 72 -67 76 -2 5 -1 6 29 51 37 58 41 61 53 50z m105 -140 c3 -4 8
-10 11 -15 3 -5 12 -15 20 -24 10 -11 17 -21 24 -34 5 -10 14 -23 19 -29 14
-16 45 -57 55 -73 4 -8 15 -24 23 -36 17 -25 18 -37 2 -51 -3 -2 -9 -11 -15
-20 -6 -9 -14 -20 -19 -26 -4 -5 -21 -28 -38 -51 -17 -22 -35 -46 -41 -52 -5
-6 -12 -14 -14 -18 -14 -20 -21 -31 -33 -47 -7 -10 -22 -30 -33 -45 -52 -72
-49 -68 -63 -68 -8 0 -32 23 -32 31 0 2 -5 8 -11 15 -6 6 -13 16 -16 21 -2 6
-8 13 -12 17 -4 4 -10 11 -13 16 -4 5 -10 13 -14 17 -11 11 -41 53 -45 61 -5
11 -18 28 -27 35 -4 4 -18 21 -31 38 -13 16 -28 36 -34 44 -43 55 -43 55 -18
90 7 10 15 22 18 27 6 9 44 66 58 87 5 7 10 15 11 19 1 5 7 12 17 21 8 7 15
15 16 17 0 1 2 7 3 11 3 10 14 23 21 23 4 0 12 -9 44 -46 61 -70 64 -71 97
-24 58 80 59 81 70 69z"/>
</g>
</svg>
