<?xml version="1.0" standalone="no"?>
<!DOCTYPE svg PUBLIC "-//W3C//DTD SVG 20010904//EN"
 "http://www.w3.org/TR/2001/REC-SVG-20010904/DTD/svg10.dtd">
<svg version="1.0" xmlns="http://www.w3.org/2000/svg"
 width="148.000000pt" height="232.000000pt" viewBox="0 0 148.000000 232.000000"
 preserveAspectRatio="xMidYMid meet">
<metadata>
Created by potrace 1.16, written by Peter Selinger 2001-2019
</metadata>
<g transform="translate(0.000000,232.000000) scale(0.100000,-0.100000)"
fill="#000000" stroke="none">
<path d="M679 2283 c-6 -20 -25 -60 -42 -87 -16 -28 -38 -64 -47 -81 -10 -16
-42 -73 -72 -125 -30 -52 -67 -115 -80 -140 -14 -25 -50 -85 -79 -135 -279
-477 -359 -624 -359 -660 0 -14 30 -68 67 -122 70 -103 79 -116 143 -200 22
-29 40 -55 40 -58 0 -3 17 -27 38 -54 20 -27 66 -90 102 -141 36 -51 82 -115
102 -144 84 -114 114 -158 130 -188 9 -17 28 -42 41 -57 13 -14 30 -41 38 -58
8 -18 19 -33 26 -33 12 0 40 32 83 95 14 20 34 48 46 63 11 15 45 63 76 107
30 44 103 148 162 230 59 83 131 186 161 230 30 44 70 103 90 130 20 28 54 78
76 113 23 34 45 62 50 62 5 0 9 18 9 40 0 22 -4 40 -8 40 -5 0 -19 21 -32 48
-12 26 -33 61 -46 79 -13 17 -24 37 -24 43 0 7 -9 24 -21 38 -28 36 -89 135
-89 144 0 4 -18 35 -40 69 -22 34 -40 66 -40 71 0 8 -36 64 -104 163 -28 41
-84 133 -136 220 -98 166 -182 299 -206 323 -22 22 -42 13 -55 -25z m68 -120
c9 -25 192 -332 220 -369 35 -47 45 -23 -111 -244 l-60 -85 -7 -150 c-5 -118
-3 -155 8 -172 16 -27 58 -31 68 -5 4 9 6 73 6 142 -2 122 -1 126 26 167 15
23 40 55 55 72 15 16 39 53 53 81 17 33 31 50 41 48 9 -2 29 -28 46 -58 16
-30 50 -89 74 -131 24 -42 44 -81 44 -87 0 -6 9 -16 20 -22 11 -6 20 -15 20
-19 0 -11 -65 -144 -96 -196 -39 -66 -33 -127 21 -236 l46 -90 -29 -37 c-15
-20 -34 -47 -42 -59 -8 -11 -62 -87 -120 -168 -158 -221 -166 -233 -226 -323
-61 -92 -76 -98 -105 -43 -10 19 -32 51 -49 72 -16 21 -30 40 -30 43 0 2 -27
42 -60 88 -34 46 -79 108 -100 138 -22 30 -58 80 -80 110 -22 30 -56 78 -74
105 -19 28 -75 106 -125 175 -102 141 -110 168 -66 226 14 18 25 35 25 39 0 3
32 60 71 128 39 67 79 136 88 152 38 66 97 171 106 190 13 26 45 26 59 0 6
-11 41 -59 78 -106 65 -84 67 -89 78 -170 7 -46 9 -110 5 -142 -7 -65 3 -87
40 -87 44 0 56 95 34 274 -11 90 -26 123 -79 176 -9 9 -38 47 -64 83 -26 37
-52 67 -57 67 -26 0 0 64 89 216 53 93 103 181 109 197 14 31 40 36 50 10z
m611 -1012 c23 -39 42 -75 42 -81 0 -5 -20 -36 -44 -67 -23 -32 -48 -68 -55
-80 -19 -37 -35 -27 -64 40 -30 70 -34 99 -13 117 8 6 23 33 32 58 21 57 44
93 53 88 4 -3 26 -36 49 -75z"/>
</g>
</svg>
