<?xml version="1.0" standalone="no"?>
<!DOCTYPE svg PUBLIC "-//W3C//DTD SVG 20010904//EN"
 "http://www.w3.org/TR/2001/REC-SVG-20010904/DTD/svg10.dtd">
<svg version="1.0" xmlns="http://www.w3.org/2000/svg"
 width="982.000000pt" height="1550.000000pt" viewBox="0 0 982.000000 1550.000000"
 preserveAspectRatio="xMidYMid meet">
<metadata>
Created by potrace 1.16, written by Peter Selinger 2001-2019
</metadata>
<g transform="translate(0.000000,1550.000000) scale(0.500000,-0.500000)"
fill="#000000" stroke="none">
<path d="M928 3096 c0 -2 -4 -8 -9 -14 -13 -15 -17 -25 -19 -48 -1 -15 -2 -21
-5 -25 -17 -22 -23 -31 -26 -39 -2 -6 -6 -14 -9 -18 -4 -4 -8 -12 -9 -16 -2
-5 -8 -16 -15 -24 -6 -9 -13 -21 -16 -27 -3 -7 -9 -17 -13 -23 -10 -12 -21
-33 -21 -37 0 -1 -3 -7 -8 -12 -10 -14 -17 -25 -21 -35 -2 -5 -8 -15 -13 -22
-6 -7 -12 -18 -14 -24 -3 -6 -8 -15 -11 -20 -4 -6 -8 -14 -10 -20 -2 -5 -7
-15 -12 -21 -5 -7 -13 -19 -17 -29 -4 -9 -11 -21 -16 -26 -4 -6 -8 -11 -8 -13
0 -4 -15 -30 -21 -38 -4 -5 -9 -14 -12 -21 -3 -6 -7 -16 -11 -20 -3 -5 -8 -14
-10 -20 -2 -6 -7 -15 -11 -19 -3 -5 -8 -12 -10 -15 -3 -4 -6 -11 -8 -17 -2 -5
-6 -14 -10 -19 -12 -16 -19 -27 -19 -31 0 -5 -4 -12 -17 -29 -6 -8 -12 -18
-14 -24 -2 -6 -6 -14 -10 -19 -12 -16 -18 -26 -22 -36 -1 -5 -6 -13 -9 -17 -3
-4 -7 -12 -8 -17 -2 -6 -6 -14 -15 -25 -9 -10 -14 -18 -16 -25 -2 -6 -7 -15
-13 -23 -11 -13 -16 -22 -20 -34 -1 -4 -5 -11 -10 -16 -4 -6 -12 -18 -17 -28
-5 -11 -12 -21 -14 -24 -2 -3 -10 -15 -16 -27 -6 -12 -13 -24 -15 -27 -2 -3
-5 -9 -6 -13 -2 -5 -7 -15 -14 -24 -6 -9 -14 -21 -16 -27 -2 -7 -8 -17 -13
-23 -5 -6 -12 -17 -15 -25 -3 -8 -10 -20 -15 -26 -5 -7 -11 -17 -13 -22 -2 -6
-6 -14 -10 -20 -3 -5 -9 -15 -12 -23 -4 -8 -11 -20 -16 -26 -5 -7 -11 -16 -12
-20 -3 -11 -10 -22 -20 -34 -5 -6 -9 -13 -10 -19 -2 -7 -6 -15 -15 -27 -8 -9
-14 -20 -15 -25 -1 -5 -7 -15 -13 -23 -6 -8 -13 -20 -16 -27 -3 -7 -8 -17 -11
-22 -3 -5 -7 -14 -9 -19 -2 -6 -9 -18 -15 -27 -7 -9 -13 -20 -13 -24 -2 -9 -4
-13 -14 -25 -12 -15 -13 -18 -16 -36 -4 -22 -8 -33 -14 -34 -7 -2 -8 -60 -1
-62 2 -1 5 -4 7 -8 2 -4 8 -10 12 -14 6 -5 11 -12 18 -25 6 -14 18 -32 45 -68
39 -51 50 -67 50 -71 0 -8 9 -21 70 -98 20 -26 27 -36 30 -47 3 -9 18 -30 48
-67 40 -50 51 -64 58 -80 6 -12 15 -26 31 -47 63 -79 67 -85 71 -97 2 -8 12
-21 66 -90 26 -33 30 -40 34 -52 1 -4 4 -10 6 -12 3 -5 77 -98 84 -107 2 -3 5
-10 7 -16 3 -10 13 -25 56 -78 36 -45 51 -65 55 -78 3 -7 9 -17 16 -26 64 -78
70 -87 70 -105 0 -19 3 -26 13 -33 5 -3 10 -8 11 -10 1 -2 7 -7 12 -11 5 -3
13 -10 16 -15 3 -4 10 -10 14 -13 9 -6 13 -14 15 -30 1 -10 2 -12 10 -18 11
-10 19 -29 21 -49 l1 -14 16 0 c16 0 17 0 18 5 3 8 16 23 28 32 14 10 25 24
32 42 3 8 10 19 17 28 7 9 18 22 23 29 5 7 13 17 17 22 5 5 9 12 10 18 2 9 5
13 62 85 8 10 16 21 17 24 4 13 7 19 20 35 7 9 18 24 25 32 6 8 18 23 26 33 8
10 16 21 17 25 11 26 12 26 68 96 16 21 22 30 24 38 3 8 10 18 32 47 44 57 45
58 48 69 2 6 8 16 17 27 7 9 17 21 21 27 4 6 16 20 25 32 18 23 24 33 29 46 5
14 48 69 62 79 5 3 10 9 12 13 8 16 24 44 31 51 4 5 9 12 10 16 2 9 4 11 29
43 12 16 18 25 20 33 3 9 10 20 41 60 27 34 40 53 46 65 9 17 19 31 52 73 12
15 21 29 27 42 13 28 74 110 84 113 10 4 11 107 2 109 -3 1 -7 4 -10 9 -3 4
-8 11 -12 17 -5 6 -7 12 -7 16 0 10 -2 12 -9 17 -13 8 -19 20 -19 39 0 16 0
16 -10 25 -6 6 -12 15 -15 20 -2 5 -7 12 -11 15 -3 3 -8 10 -10 14 -3 4 -8 12
-12 16 -9 9 -17 28 -20 46 -2 17 -6 23 -19 34 -21 18 -27 24 -30 36 -2 7 -7
15 -14 24 -6 8 -12 17 -13 21 -3 11 -9 22 -25 41 -20 25 -25 34 -29 50 -2 7
-8 21 -14 31 -5 9 -12 22 -15 28 -2 6 -7 14 -10 18 -14 15 -25 33 -28 43 -2 6
-4 12 -6 13 -7 6 -21 28 -24 37 -1 5 -6 13 -10 17 -3 5 -8 12 -9 17 -1 5 -4
14 -7 19 -2 5 -5 11 -6 14 0 3 -5 10 -10 17 -5 7 -13 19 -17 28 -13 26 -24 43
-33 51 -11 10 -18 22 -23 40 -3 12 -6 17 -14 25 -5 5 -11 12 -12 14 -1 3 -5 7
-10 9 -11 6 -30 32 -39 56 -2 5 -11 18 -19 30 -11 15 -17 24 -18 31 -2 6 -6
13 -15 25 -8 8 -18 24 -23 35 -6 11 -12 23 -15 27 -2 4 -6 12 -8 17 -2 6 -9
17 -19 30 -12 15 -16 22 -18 30 -1 5 -5 12 -8 16 -13 15 -20 26 -23 36 -2 7
-8 16 -17 28 -8 10 -16 21 -17 25 -2 4 -5 11 -7 15 -2 5 -8 13 -13 19 -10 13
-13 18 -13 24 0 4 -12 22 -27 40 -7 9 -12 17 -15 26 -3 8 -8 16 -13 23 -5 5
-13 17 -16 25 -4 8 -11 20 -15 25 -4 6 -11 17 -15 25 -4 9 -14 25 -23 36 -10
12 -16 23 -18 28 -3 12 -34 52 -48 62 -5 4 -9 9 -10 12 -1 6 -46 7 -46 0z m46
-176 c8 -3 21 -20 25 -33 2 -6 8 -18 15 -27 6 -10 13 -22 16 -28 2 -7 9 -18
14 -26 6 -8 13 -21 15 -27 3 -8 9 -18 16 -27 7 -8 16 -24 21 -34 5 -10 13 -23
18 -29 4 -5 10 -15 12 -22 2 -7 9 -18 16 -27 8 -10 13 -19 14 -25 2 -7 7 -15
15 -25 16 -20 22 -29 27 -43 2 -5 8 -15 13 -21 5 -6 11 -17 14 -24 3 -7 10
-19 16 -27 7 -8 12 -17 13 -22 1 -5 7 -14 14 -23 23 -29 28 -35 30 -43 3 -9
11 -22 19 -29 12 -11 9 -20 -17 -52 -10 -12 -18 -23 -18 -25 0 -6 -13 -26 -30
-47 -17 -22 -22 -30 -28 -46 -1 -3 -6 -9 -10 -12 -5 -4 -12 -13 -17 -20 -5 -8
-13 -18 -18 -23 -6 -6 -9 -10 -10 -16 -1 -4 -2 -10 -2 -13 -1 -3 -7 -10 -14
-17 -8 -7 -14 -15 -16 -21 -3 -6 -7 -11 -14 -16 -8 -6 -11 -10 -14 -17 -2 -6
-9 -18 -19 -30 -12 -15 -18 -24 -23 -38 l-7 -18 -1 -155 c0 -155 0 -155 -6
-166 -10 -18 -10 -64 -1 -81 3 -6 6 -13 6 -14 0 -13 24 -25 52 -26 34 -2 48 6
48 26 0 5 1 12 3 17 2 7 3 30 1 169 -2 175 -2 167 9 181 2 4 6 12 9 19 6 15
16 27 28 35 8 5 10 7 13 17 6 16 22 36 40 50 5 4 8 8 9 15 2 8 6 12 24 30 20
20 22 22 26 35 5 17 16 41 23 50 3 3 9 14 14 24 24 52 50 50 74 -5 3 -7 11
-21 18 -30 7 -9 14 -21 15 -26 1 -4 8 -16 14 -26 7 -10 15 -24 17 -31 3 -6 8
-15 11 -19 10 -13 18 -25 19 -31 2 -9 6 -15 18 -30 6 -8 15 -22 20 -32 5 -10
13 -23 18 -30 5 -6 10 -14 11 -19 1 -4 5 -11 7 -16 2 -5 8 -18 12 -29 8 -22
17 -34 29 -41 29 -18 30 -38 6 -76 -4 -6 -11 -21 -16 -33 -5 -12 -10 -23 -12
-26 -5 -6 -14 -25 -28 -60 -7 -16 -14 -29 -19 -36 -18 -22 -25 -33 -28 -42 -1
-5 -5 -13 -9 -17 -4 -4 -8 -12 -9 -17 -2 -5 -5 -12 -7 -16 -21 -35 -21 -140 1
-178 2 -4 6 -14 9 -22 2 -8 9 -22 15 -32 6 -10 13 -22 15 -27 2 -6 6 -13 9
-16 3 -3 6 -11 8 -18 2 -6 6 -15 9 -21 3 -5 7 -15 9 -22 2 -7 5 -15 8 -18 27
-36 27 -47 -7 -85 -29 -33 -46 -56 -50 -68 -5 -12 -13 -23 -49 -68 -21 -25
-35 -48 -35 -55 0 -2 -10 -15 -21 -29 -20 -25 -47 -60 -55 -71 -2 -2 -5 -8 -7
-14 -4 -11 -13 -24 -44 -63 -31 -39 -33 -42 -35 -50 -3 -10 -12 -23 -44 -64
-15 -19 -31 -39 -35 -45 -4 -5 -10 -16 -13 -23 -3 -8 -11 -21 -18 -30 -6 -8
-24 -31 -39 -50 -20 -26 -28 -37 -30 -45 -2 -5 -7 -15 -12 -21 -52 -70 -63
-85 -65 -93 -4 -15 -45 -71 -53 -73 -11 -2 -56 55 -70 88 -2 6 -9 17 -14 24
-32 42 -41 54 -52 68 -19 23 -25 32 -29 44 -4 11 -11 22 -35 52 -7 8 -15 19
-18 23 -7 9 -20 26 -32 41 -13 17 -23 32 -26 42 -2 5 -10 17 -19 28 -58 73
-73 93 -77 106 -2 6 -10 18 -17 27 -7 9 -21 28 -32 41 -10 14 -25 33 -33 43
-10 12 -15 21 -17 28 -4 11 -13 23 -64 88 -28 36 -32 42 -36 54 -3 8 -14 25
-48 67 -8 9 -23 29 -34 43 -11 14 -21 27 -22 28 -1 2 -3 7 -5 12 -2 10 -6 15
-44 63 -42 53 -52 67 -56 78 -3 8 -11 20 -25 37 -36 44 -42 52 -44 59 -2 4 -5
11 -7 17 -9 16 -7 91 2 102 4 4 10 15 13 23 4 9 13 22 20 31 16 19 23 31 28
48 4 15 9 23 21 37 5 6 9 13 10 17 2 9 6 17 17 30 6 7 13 19 16 26 3 8 10 20
16 28 6 8 13 20 15 25 2 6 7 15 10 20 4 5 7 12 8 16 2 9 3 12 15 26 7 8 12 17
15 25 2 7 9 19 16 28 7 9 14 20 16 26 1 5 7 14 12 21 5 6 13 19 17 29 5 10 10
20 12 23 2 2 5 9 7 15 2 7 6 15 11 20 12 14 17 23 20 32 1 5 7 15 14 24 6 9
13 20 15 26 2 6 7 17 13 24 5 7 11 17 12 21 4 11 9 20 18 32 4 6 9 14 10 19
18 65 80 77 94 17 2 -10 27 -45 59 -86 8 -9 22 -27 31 -40 23 -31 44 -57 73
-93 31 -39 31 -39 31 -65 0 -18 1 -22 6 -35 6 -15 6 -15 5 -44 -2 -27 -1 -30
3 -41 6 -16 6 -149 0 -162 -10 -21 -7 -66 5 -78 20 -22 62 -31 80 -18 1 2 8
16 14 32 l12 29 -1 49 c-1 179 -1 187 -6 195 -5 7 -5 11 -6 47 -1 35 -1 40 -6
47 -4 8 -4 12 -4 35 0 32 -5 53 -16 68 -22 29 -32 40 -47 51 -7 4 -16 20 -19
29 -2 9 -13 22 -27 32 -15 11 -34 35 -39 49 -3 10 -6 14 -17 24 -9 8 -14 15
-17 22 -2 5 -10 16 -16 25 -7 8 -14 19 -16 25 -6 16 -12 22 -26 32 -26 17 -28
20 -28 40 0 22 2 31 10 41 3 4 8 12 10 18 2 6 7 14 9 17 3 4 8 13 11 20 3 8
10 19 16 26 11 14 15 21 17 30 1 4 4 10 8 14 14 18 21 27 22 35 1 5 5 12 13
22 7 9 14 20 16 26 2 6 7 14 9 19 3 4 8 13 11 21 3 7 10 19 15 26 5 7 12 18
15 26 3 7 11 20 17 28 6 8 12 19 14 25 2 5 7 14 11 20 7 9 11 17 19 37 2 3 7
10 12 17 5 7 10 16 11 21 1 5 4 12 7 16 3 4 9 15 14 25 12 25 18 30 33 25z
m782 -1287 c5 -5 9 -15 11 -20 2 -6 7 -16 12 -23 5 -6 12 -18 16 -27 4 -8 11
-21 16 -27 5 -7 10 -15 11 -19 4 -11 10 -21 25 -39 16 -19 19 -25 19 -39 0
-12 0 -12 -32 -51 -21 -24 -28 -34 -31 -46 -2 -5 -8 -14 -13 -21 -28 -35 -55
-72 -60 -79 -2 -4 -5 -12 -7 -18 -5 -17 -24 -30 -31 -20 -4 4 -18 37 -18 41 0
1 -3 7 -7 13 -4 6 -9 16 -11 21 -2 6 -6 14 -10 20 -3 5 -8 15 -10 21 -2 6 -7
14 -9 17 -6 8 -17 33 -20 45 -4 18 8 44 35 80 7 9 12 18 13 23 1 4 4 10 6 14
3 3 6 9 8 12 9 19 15 35 18 46 3 12 11 30 20 43 3 4 6 12 8 18 9 27 27 34 41
15z"/>
<path d="M1953 3090 c2 -19 5 -174 5 -318 0 -125 0 -142 3 -142 3 0 3 27 3
235 l0 235 -6 0 c-6 0 -6 0 -5 -10z"/>
<path d="M1958 275 c0 -216 0 -245 3 -245 3 0 3 29 3 245 0 216 0 245 -3 245
-3 0 -3 -29 -3 -245z"/>
</g>
</svg>
