<?xml version="1.0" standalone="no"?>
<!DOCTYPE svg PUBLIC "-//W3C//DTD SVG 20010904//EN"
 "http://www.w3.org/TR/2001/REC-SVG-20010904/DTD/svg10.dtd">
<svg version="1.0" xmlns="http://www.w3.org/2000/svg"
 width="64.000000pt" height="100.000000pt" viewBox="0 0 64.000000 100.000000"
 preserveAspectRatio="xMidYMid meet">
<metadata>
Created by potrace 1.16, written by Peter Selinger 2001-2019
</metadata>
<g transform="translate(0.000000,100.000000) scale(0.100000,-0.100000)"
fill="#000000" stroke="none">
<path d="M293 988 c-35 -47 -284 -490 -289 -516 -8 -38 -6 -40 173 -289 69
-95 131 -173 138 -173 8 0 29 19 48 43 42 52 192 265 232 329 17 27 33 48 38
48 21 0 0 59 -56 156 -141 240 -252 414 -266 414 -5 0 -13 -6 -18 -12z m76
-153 l51 -84 -40 -62 c-37 -58 -40 -67 -40 -136 0 -66 2 -73 20 -73 21 0 26
21 22 84 -2 28 34 102 61 124 12 10 21 0 51 -57 l37 -70 -27 -53 -27 -52 19
-54 c12 -35 15 -58 8 -67 -145 -212 -178 -255 -187 -252 -7 2 -58 68 -115 148
-168 236 -157 217 -146 247 17 44 124 222 134 222 6 0 22 -19 37 -42 20 -30
29 -58 33 -102 4 -53 8 -61 25 -61 18 0 20 6 17 75 -3 76 -5 81 -68 167 -14
20 -13 25 12 75 26 52 62 108 69 108 2 0 26 -38 54 -85z m221 -345 c13 -25 6
-51 -20 -75 -19 -17 -20 -16 -31 8 -9 20 -9 33 1 57 14 35 35 39 50 10z"/>
<path d="M619 993 c-1 -10 2 -69 11 -213 l7 -115 1 168 c1 106 -2 167 -8 167
-5 0 -10 -3 -11 -7z"/>
</g>
</svg>
