<?xml version="1.0" standalone="no"?>
<!DOCTYPE svg PUBLIC "-//W3C//DTD SVG 20010904//EN"
 "http://www.w3.org/TR/2001/REC-SVG-20010904/DTD/svg10.dtd">
<svg version="1.0" xmlns="http://www.w3.org/2000/svg"
 width="116.000000pt" height="148.000000pt" viewBox="0 0 116.000000 148.000000"
 preserveAspectRatio="xMidYMid meet">
<metadata>
Created by potrace 1.16, written by Peter Selinger 2001-2019
</metadata>
<g transform="translate(0.000000,148.000000) scale(0.100000,-0.100000)"
fill="#000000" stroke="none">
<path d="M502 1381 c-18 -22 -32 -43 -32 -47 0 -4 -9 -17 -19 -28 -10 -12 -57
-77 -103 -146 -46 -69 -102 -150 -123 -180 -21 -30 -56 -80 -77 -110 -20 -30
-46 -66 -57 -80 -11 -14 -21 -35 -21 -48 0 -14 37 -72 92 -145 51 -67 95 -124
98 -127 8 -6 195 -249 239 -309 18 -25 45 -58 59 -73 25 -27 26 -27 45 -10 10
9 27 33 38 53 10 20 40 64 66 97 26 33 57 73 68 88 49 67 63 85 115 153 30 39
58 71 62 71 5 0 8 4 8 10 0 5 27 45 60 89 33 44 60 87 60 95 0 35 -55 111
-406 564 -109 140 -122 146 -172 83z m132 -138 c36 -49 81 -109 100 -134 l36
-46 -63 -79 c-34 -44 -78 -103 -97 -132 -19 -28 -38 -52 -42 -52 -4 0 -20 19
-35 43 -15 23 -60 82 -100 130 l-73 89 30 41 c17 23 59 84 93 134 34 51 67 93
74 93 6 0 41 -39 77 -87z m-241 -323 c117 -157 160 -212 174 -217 18 -7 41 13
64 58 21 42 117 172 130 177 5 2 9 9 9 15 1 20 40 61 50 51 4 -5 24 -31 44
-59 107 -150 136 -196 136 -209 0 -8 -11 -27 -23 -43 -39 -46 -240 -314 -276
-366 -18 -26 -36 -45 -41 -42 -5 3 -58 70 -118 148 -60 78 -159 204 -220 279
l-110 137 56 81 c30 44 59 77 62 73 4 -5 32 -42 63 -83z m-78 -286 c55 -71
147 -187 204 -258 57 -71 105 -135 107 -140 5 -16 -42 -70 -54 -62 -5 3 -27
31 -47 62 -21 31 -63 87 -94 124 -31 37 -81 100 -111 140 -30 40 -81 105 -112
145 -61 77 -69 106 -41 138 17 18 18 18 33 -1 8 -11 60 -77 115 -148z"/>
</g>
</svg>
