<?xml version="1.0" standalone="no"?>
<!DOCTYPE svg PUBLIC "-//W3C//DTD SVG 20010904//EN"
 "http://www.w3.org/TR/2001/REC-SVG-20010904/DTD/svg10.dtd">
<svg version="1.0" xmlns="http://www.w3.org/2000/svg"
 width="78.000000pt" height="100.000000pt" viewBox="0 0 78.000000 100.000000"
 preserveAspectRatio="xMidYMid meet">
<metadata>
Created by potrace 1.16, written by Peter Selinger 2001-2019
</metadata>
<g transform="translate(0.000000,100.000000) scale(0.100000,-0.100000)"
fill="#000000" stroke="none">
<path d="M357 958 c-10 -5 -49 -57 -89 -116 -39 -59 -102 -151 -140 -204 -79
-113 -90 -136 -75 -164 15 -27 318 -418 331 -426 14 -9 32 7 70 64 17 26 86
120 153 208 68 89 123 169 123 179 0 9 -12 36 -27 58 -56 84 -302 401 -316
406 -7 3 -21 1 -30 -5z m86 -146 c75 -95 74 -87 29 -145 -22 -29 -47 -64 -57
-79 -9 -16 -23 -28 -30 -28 -12 0 -125 145 -125 161 0 11 91 151 105 161 13
10 19 4 78 -70z m167 -224 c28 -39 50 -79 50 -88 0 -10 -14 -35 -31 -56 -17
-22 -63 -83 -101 -136 -38 -54 -75 -98 -82 -98 -6 0 -41 39 -76 87 -36 48 -98
128 -138 177 -39 49 -72 94 -72 100 0 16 49 86 60 86 5 0 42 -43 81 -95 46
-61 78 -95 88 -93 8 2 26 19 38 38 68 101 115 160 124 155 5 -4 32 -38 59 -77z
m-428 -124 c26 -32 87 -111 137 -174 87 -110 111 -160 76 -160 -22 0 -285 347
-285 377 0 36 18 25 72 -43z"/>
</g>
</svg>
