<?xml version="1.0" standalone="no"?>
<!DOCTYPE svg PUBLIC "-//W3C//DTD SVG 20010904//EN"
 "http://www.w3.org/TR/2001/REC-SVG-20010904/DTD/svg10.dtd">
<svg version="1.0" xmlns="http://www.w3.org/2000/svg"
 width="416.000000pt" height="590.000000pt" viewBox="0 0 416.000000 590.000000"
 preserveAspectRatio="xMidYMid meet">
<metadata>
Created by potrace 1.16, written by Peter Selinger 2001-2019
</metadata>
<g transform="translate(0.000000,590.000000) scale(0.500000,-0.500000)"
fill="#000000" stroke="none">
<path d="M376 1138 c-10 -1 -12 -3 -21 -22 -4 -9 -10 -21 -14 -26 -4 -5 -7
-11 -8 -14 0 -3 -4 -9 -8 -14 -4 -5 -7 -10 -7 -11 0 -4 -10 -24 -17 -32 -3 -4
-8 -12 -10 -17 -3 -5 -16 -29 -31 -53 -40 -67 -49 -81 -56 -94 -3 -7 -10 -17
-15 -23 -5 -5 -10 -14 -12 -19 -2 -6 -7 -14 -11 -20 -4 -5 -11 -15 -14 -22 -3
-7 -15 -28 -27 -47 -12 -19 -23 -39 -25 -43 -4 -8 -18 -30 -46 -76 -18 -29
-18 -48 -2 -62 6 -4 9 -8 10 -14 2 -8 15 -29 31 -48 4 -6 13 -17 19 -26 6 -9
15 -20 19 -26 5 -6 14 -18 20 -27 11 -15 24 -34 45 -60 4 -5 12 -16 18 -25 6
-9 14 -20 18 -24 4 -5 11 -14 15 -19 4 -6 11 -17 17 -23 5 -7 17 -23 27 -36
10 -13 20 -27 23 -31 3 -3 8 -10 11 -15 8 -11 40 -55 52 -69 4 -6 10 -14 13
-18 25 -37 59 -47 70 -21 9 20 25 50 35 65 6 8 13 19 15 24 3 5 9 16 15 24 6
8 19 28 29 43 25 39 63 99 75 117 15 22 48 74 51 80 3 6 17 25 24 33 3 3 11
16 18 29 14 25 17 31 41 66 30 47 29 58 -16 120 -6 8 -19 27 -29 42 -10 15
-21 32 -26 37 -4 6 -13 18 -19 27 -7 9 -17 25 -24 34 -7 10 -24 35 -39 56 -14
22 -28 41 -30 44 -10 13 -58 84 -63 93 -3 6 -9 14 -13 18 -13 14 -47 64 -53
79 -13 29 -46 49 -75 46z m23 -82 c4 -2 21 -26 42 -57 11 -16 27 -39 34 -50 8
-11 24 -33 34 -48 11 -15 22 -30 24 -33 16 -17 13 -40 -10 -71 -7 -10 -15 -22
-19 -28 -3 -5 -10 -15 -15 -20 -5 -6 -11 -15 -12 -20 -4 -10 -7 -15 -22 -39
-5 -8 -13 -21 -18 -28 -21 -33 -19 -33 -52 16 -12 17 -27 39 -34 48 -6 10 -23
34 -36 53 -15 22 -28 39 -33 43 -20 17 -17 25 26 96 20 31 40 66 47 78 21 37
37 62 41 62 0 0 2 -1 3 -2z m192 -274 c4 -4 10 -14 13 -20 3 -7 9 -17 14 -22
5 -5 10 -11 11 -14 1 -3 6 -10 12 -17 8 -8 12 -14 14 -22 2 -8 6 -15 13 -22 5
-6 11 -14 13 -17 2 -4 9 -13 16 -21 28 -29 27 -38 -1 -81 -9 -14 -29 -44 -43
-66 -14 -22 -31 -47 -36 -56 -6 -8 -14 -21 -19 -28 -4 -7 -16 -25 -25 -39 -23
-35 -39 -61 -57 -89 -97 -155 -85 -145 -120 -97 -7 10 -17 24 -22 30 -25 34
-31 43 -33 57 -3 13 -8 20 -14 20 -3 0 -9 7 -14 17 -3 5 -7 10 -12 13 -8 5
-16 14 -54 65 -4 6 -17 23 -27 37 -11 15 -25 34 -32 42 -27 36 -38 50 -40 54
-1 3 -6 8 -10 13 -7 7 -15 18 -27 37 -9 12 -7 23 9 46 4 6 10 15 12 20 2 5 8
14 12 21 5 6 10 15 11 18 3 7 49 85 64 109 15 23 24 24 32 2 2 -9 6 -14 20
-28 11 -11 19 -20 21 -26 2 -5 6 -11 9 -14 2 -3 6 -9 9 -14 2 -5 7 -13 9 -18
3 -6 8 -11 12 -14 4 -2 10 -9 13 -15 3 -5 12 -18 19 -28 15 -21 15 -19 6 -28
-3 -5 -8 -12 -11 -16 -2 -4 -6 -11 -10 -14 -3 -3 -8 -10 -11 -15 -3 -5 -8 -12
-11 -15 -25 -27 -28 -31 -28 -40 0 -17 18 -29 31 -22 6 3 8 5 15 22 2 6 7 13
10 16 3 3 7 9 9 13 3 8 18 23 22 21 1 0 2 -18 3 -52 1 -59 1 -59 20 -59 20 0
20 1 20 65 0 72 -5 72 55 3 28 -32 43 -40 55 -28 12 12 1 26 -70 98 -18 18
-19 30 -4 47 6 7 12 16 14 20 2 5 6 11 10 15 3 4 9 14 14 23 5 9 13 23 18 31
5 8 14 22 19 31 41 64 40 64 52 51z"/>
</g>
</svg>
