<?xml version="1.0" standalone="no"?>
<!DOCTYPE svg PUBLIC "-//W3C//DTD SVG 20010904//EN"
 "http://www.w3.org/TR/2001/REC-SVG-20010904/DTD/svg10.dtd">
<svg version="1.0" xmlns="http://www.w3.org/2000/svg"
 width="104.000000pt" height="148.000000pt" viewBox="0 0 104.000000 148.000000"
 preserveAspectRatio="xMidYMid meet">
<metadata>
Created by potrace 1.16, written by Peter Selinger 2001-2019
</metadata>
<g transform="translate(0.000000,148.000000) scale(0.100000,-0.100000)"
fill="#000000" stroke="none">
<path d="M420 1353 c-19 -38 -39 -75 -46 -83 -6 -8 -23 -35 -36 -60 -14 -25
-84 -143 -157 -264 -117 -194 -150 -266 -123 -266 5 0 13 -10 19 -22 6 -13 93
-133 194 -268 101 -135 195 -262 208 -282 42 -61 83 -72 95 -24 5 20 85 149
264 423 144 219 145 223 133 249 -6 13 -73 113 -149 222 -170 242 -244 349
-258 374 -23 40 -58 68 -84 68 -23 0 -32 -9 -60 -67z m145 -125 c38 -57 79
-116 92 -131 31 -39 29 -55 -15 -118 -21 -30 -55 -84 -77 -121 -21 -38 -42
-68 -46 -68 -4 0 -36 44 -73 98 -36 53 -77 110 -91 126 -14 16 -25 34 -25 40
0 6 16 38 36 71 46 76 68 113 94 164 11 23 24 41 28 41 5 0 39 -46 77 -102z
m-241 -278 c14 -19 34 -48 43 -63 10 -16 37 -53 61 -84 23 -30 42 -58 42 -62
0 -4 -23 -31 -50 -61 -36 -40 -49 -62 -48 -80 5 -43 34 -36 59 15 12 25 31 52
40 61 17 15 18 12 16 -63 -2 -74 -1 -78 21 -81 21 -3 22 -1 22 77 0 45 3 81 8
80 4 0 29 -27 55 -60 48 -60 73 -72 84 -43 4 11 -15 36 -58 80 -62 62 -63 65
-49 88 8 14 44 72 80 130 36 58 70 106 76 106 6 0 16 -12 23 -27 7 -15 25 -43
42 -64 16 -20 29 -40 29 -44 0 -4 18 -30 40 -57 22 -28 40 -55 40 -61 0 -6
-41 -74 -92 -151 -148 -229 -192 -298 -228 -358 -19 -32 -40 -60 -47 -62 -11
-5 -113 132 -113 152 0 5 -15 25 -34 44 -36 37 -236 300 -253 333 -9 17 3 43
69 158 45 76 84 137 89 135 4 -2 19 -19 33 -38z"/>
</g>
</svg>
