<?xml version="1.0" standalone="no"?>
<!DOCTYPE svg PUBLIC "-//W3C//DTD SVG 20010904//EN"
 "http://www.w3.org/TR/2001/REC-SVG-20010904/DTD/svg10.dtd">
<svg version="1.0" xmlns="http://www.w3.org/2000/svg"
 width="416.000000pt" height="590.000000pt" viewBox="0 0 416.000000 590.000000"
 preserveAspectRatio="xMidYMid meet">
<metadata>
Created by potrace 1.16, written by Peter Selinger 2001-2019
</metadata>
<g transform="translate(0.000000,590.000000) scale(0.500000,-0.500000)"
fill="#000000" stroke="none">
<path d="M45 1135 c-9 -7 -10 -113 -2 -123 14 -16 58 -13 63 5 5 22 4 114 -1
119 -9 7 -52 6 -60 -1z"/>
<path d="M719 1136 c-8 -6 -8 -117 0 -125 14 -14 56 -12 62 4 6 14 3 116 -3
121 -7 6 -51 6 -59 0z"/>
<path d="M367 1136 c-3 -2 -17 -30 -17 -34 0 0 -3 -4 -6 -8 -3 -4 -8 -12 -10
-17 -2 -6 -6 -12 -8 -14 -2 -2 -6 -10 -9 -17 -3 -7 -9 -18 -13 -24 -5 -6 -10
-14 -12 -19 -3 -6 -10 -19 -17 -30 -24 -39 -61 -100 -70 -117 -5 -9 -13 -21
-17 -26 -4 -4 -9 -13 -11 -18 -2 -5 -7 -13 -11 -19 -4 -5 -12 -18 -16 -27 -5
-9 -18 -30 -28 -47 -10 -16 -20 -34 -23 -39 -3 -5 -13 -23 -24 -41 -11 -18
-23 -37 -26 -43 -12 -20 -10 -42 4 -53 5 -4 8 -8 9 -14 3 -10 12 -23 69 -99 4
-6 14 -19 21 -29 7 -10 20 -27 28 -38 18 -24 34 -46 41 -55 2 -4 8 -11 12 -16
5 -5 14 -18 22 -29 8 -11 17 -24 22 -29 4 -5 9 -11 11 -14 4 -6 37 -51 49 -66
4 -6 14 -19 21 -29 7 -10 15 -21 18 -24 3 -3 8 -10 12 -16 25 -38 62 -52 71
-26 4 12 27 55 37 69 5 7 12 18 15 24 3 6 9 15 12 19 4 4 10 13 13 19 4 6 13
19 19 29 7 10 23 37 38 58 14 22 36 57 50 78 13 21 28 44 33 52 10 17 20 31
28 40 3 3 13 19 22 35 19 35 33 57 40 66 26 33 23 55 -11 103 -11 15 -28 40
-37 54 -10 14 -20 29 -24 33 -3 4 -16 22 -28 40 -12 18 -27 39 -32 45 -5 7
-13 18 -18 25 -16 25 -41 61 -63 93 -13 17 -27 39 -31 47 -5 8 -13 19 -18 25
-12 13 -47 64 -52 76 -7 15 -33 42 -45 46 -11 3 -34 4 -40 1z m32 -80 c4 -2
21 -26 42 -57 11 -16 27 -39 34 -50 8 -11 24 -33 34 -48 11 -15 22 -31 25 -34
16 -19 10 -44 -20 -83 -3 -4 -8 -11 -11 -16 -2 -5 -9 -14 -14 -20 -5 -5 -11
-14 -12 -19 -4 -11 -4 -10 -22 -39 -8 -12 -17 -26 -21 -32 -18 -28 -16 -29
-48 19 -11 16 -22 32 -24 34 -2 2 -15 21 -29 42 -14 21 -28 42 -32 47 -3 5
-11 14 -18 21 -12 11 -12 11 -12 24 0 14 -4 6 47 89 18 29 29 48 46 78 17 30
28 46 32 46 1 0 2 -1 3 -2z m192 -274 c4 -4 10 -14 13 -21 3 -7 9 -16 13 -20
5 -4 10 -11 12 -15 2 -4 8 -12 13 -18 7 -7 11 -14 13 -21 2 -8 6 -15 13 -22 5
-6 11 -14 13 -17 2 -3 9 -13 17 -21 26 -29 26 -38 -1 -78 -17 -27 -38 -60 -96
-149 -14 -22 -33 -51 -42 -65 -9 -14 -20 -32 -25 -40 -5 -8 -25 -38 -43 -67
-67 -106 -62 -103 -88 -66 -8 12 -18 25 -22 30 -19 21 -39 54 -41 67 -1 8 -3
13 -5 14 -13 7 -17 11 -21 19 -3 7 -6 11 -12 14 -4 2 -11 9 -17 17 -16 22 -38
51 -47 62 -4 6 -15 19 -23 31 -8 12 -20 28 -27 36 -26 34 -38 50 -40 54 -1 3
-6 8 -10 13 -7 7 -15 18 -27 37 -9 12 -7 23 9 46 4 6 10 15 12 20 2 5 8 14 12
21 5 6 10 15 12 20 4 8 47 81 63 107 15 23 25 24 31 2 2 -7 6 -13 21 -27 10
-11 19 -22 21 -27 2 -5 6 -11 9 -14 2 -3 6 -9 9 -14 2 -5 7 -13 9 -18 3 -6 8
-11 12 -14 4 -2 9 -8 12 -14 3 -5 9 -13 12 -17 4 -4 8 -11 10 -14 1 -4 4 -7 6
-9 5 -4 4 -13 -2 -18 -3 -3 -7 -9 -10 -14 -3 -5 -7 -12 -11 -15 -3 -3 -8 -10
-11 -15 -3 -5 -8 -12 -11 -15 -25 -27 -28 -31 -28 -40 0 -17 18 -29 31 -22 6
3 8 5 15 22 2 6 7 13 10 16 3 3 7 9 9 13 3 8 18 23 22 21 1 0 2 -18 3 -52 1
-59 1 -59 20 -59 20 0 20 1 20 65 0 72 -5 72 55 3 28 -32 43 -40 55 -28 12 12
1 26 -70 98 -18 18 -19 30 -4 47 6 7 12 16 14 20 2 5 6 11 10 15 3 4 9 14 14
23 5 9 13 23 18 31 5 8 14 22 19 31 41 64 40 64 52 51z"/>
<path d="M43 181 c-8 -8 -7 -116 1 -124 13 -14 53 -12 60 3 7 14 8 116 1 122
-9 7 -55 6 -62 -1z"/>
<path d="M719 181 c-8 -8 -8 -116 0 -124 13 -13 54 -12 61 1 6 11 5 117 -1
123 -7 8 -52 8 -60 0z"/>
</g>
</svg>
