<?xml version="1.0" standalone="no"?>
<!DOCTYPE svg PUBLIC "-//W3C//DTD SVG 20010904//EN"
 "http://www.w3.org/TR/2001/REC-SVG-20010904/DTD/svg10.dtd">
<svg version="1.0" xmlns="http://www.w3.org/2000/svg"
 width="70.000000pt" height="100.000000pt" viewBox="0 0 70.000000 100.000000"
 preserveAspectRatio="xMidYMid meet">
<metadata>
Created by potrace 1.16, written by Peter Selinger 2001-2019
</metadata>
<g transform="translate(0.000000,100.000000) scale(0.100000,-0.100000)"
fill="#000000" stroke="none">
<path d="M34 956 c-3 -7 -4 -35 -2 -62 3 -45 5 -49 28 -49 22 0 26 5 30 47 3
26 2 55 -3 63 -10 19 -46 20 -53 1z"/>
<path d="M604 957 c-3 -8 -4 -36 -2 -63 3 -45 5 -49 28 -49 24 0 25 3 25 60 0
55 -2 60 -23 63 -12 2 -24 -3 -28 -11z"/>
<path d="M264 893 c-20 -38 -82 -143 -137 -236 -93 -156 -99 -169 -88 -194 7
-15 78 -116 159 -225 98 -133 152 -198 164 -198 11 0 27 14 36 30 9 17 70 113
135 213 64 100 120 193 124 205 4 18 -8 43 -51 105 -32 45 -101 146 -154 224
-84 123 -101 143 -124 143 -22 0 -32 -10 -64 -67z m134 -93 c28 -44 52 -86 52
-94 0 -7 -8 -24 -18 -37 -11 -13 -31 -45 -46 -71 -16 -27 -32 -48 -36 -48 -15
0 -121 163 -116 177 16 40 89 153 99 153 7 0 36 -36 65 -80z m-134 -230 l48
-70 -36 -40 c-40 -45 -44 -58 -19 -67 10 -4 23 2 34 15 24 30 27 28 31 -15 4
-55 32 -52 36 5 2 23 6 42 10 42 3 0 20 -14 38 -31 32 -31 54 -32 54 -3 0 9
-16 30 -35 47 -19 17 -35 36 -35 43 0 22 92 164 102 158 5 -3 25 -29 44 -58
19 -28 41 -61 50 -73 19 -26 29 -5 -115 -233 -51 -80 -98 -151 -106 -159 -12
-12 -20 -4 -59 55 -26 38 -84 118 -131 179 -47 60 -85 113 -85 116 0 4 15 31
33 62 17 30 40 69 50 87 21 39 25 36 91 -60z"/>
<path d="M42 158 c-18 -18 -16 -114 3 -122 33 -12 45 4 45 64 0 44 -4 59 -16
64 -20 8 -18 8 -32 -6z"/>
<path d="M613 163 c-9 -3 -13 -26 -13 -64 0 -60 0 -60 28 -57 25 3 27 6 30 57
4 61 -9 79 -45 64z"/>
</g>
</svg>
