<?xml version="1.0" standalone="no"?>
<!DOCTYPE svg PUBLIC "-//W3C//DTD SVG 20010904//EN"
 "http://www.w3.org/TR/2001/REC-SVG-20010904/DTD/svg10.dtd">
<svg version="1.0" xmlns="http://www.w3.org/2000/svg"
 width="104.000000pt" height="148.000000pt" viewBox="0 0 104.000000 148.000000"
 preserveAspectRatio="xMidYMid meet">
<metadata>
Created by potrace 1.16, written by Peter Selinger 2001-2019
</metadata>
<g transform="translate(0.000000,148.000000) scale(0.100000,-0.100000)"
fill="#000000" stroke="none">
<path d="M899 1419 c-6 -3 -9 -39 -7 -85 l3 -79 30 -3 c19 -3 33 2 42 14 17
23 17 140 1 150 -15 10 -56 12 -69 3z"/>
<path d="M52 1338 c3 -81 4 -83 29 -86 37 -4 47 14 51 93 l3 70 -43 3 -43 3 3
-83z"/>
<path d="M420 1352 c-19 -37 -40 -74 -46 -82 -6 -8 -23 -35 -36 -60 -14 -25
-71 -121 -128 -215 -56 -93 -111 -186 -122 -205 -11 -19 -24 -39 -29 -44 -11
-12 -12 -66 -1 -66 5 0 13 -10 19 -22 6 -13 93 -133 194 -268 101 -135 195
-262 208 -282 28 -40 57 -62 72 -53 5 4 18 24 29 45 11 21 58 98 106 172 80
124 158 244 256 396 35 55 39 67 30 88 -10 21 -233 345 -364 527 -26 37 -48
71 -48 75 0 18 -58 62 -81 62 -20 0 -30 -12 -59 -68z m145 -124 c38 -57 79
-116 92 -131 31 -39 29 -55 -15 -118 -21 -30 -55 -84 -77 -121 -21 -38 -42
-68 -46 -68 -4 0 -36 44 -73 98 -36 53 -77 110 -91 126 -14 16 -25 34 -25 41
0 6 21 44 46 85 25 41 59 101 75 133 16 31 33 57 37 57 5 0 39 -46 77 -102z
m-246 -270 c19 -30 50 -75 125 -178 l28 -40 -52 -59 c-36 -42 -50 -67 -48 -83
6 -41 34 -33 59 17 12 25 31 52 40 61 17 15 18 12 16 -63 -2 -74 -1 -78 21
-81 25 -4 24 -6 22 91 -1 37 2 67 7 66 4 0 30 -27 56 -60 48 -60 73 -72 84
-43 4 11 -15 36 -58 80 -62 62 -63 65 -49 89 8 13 44 71 80 129 35 58 70 106
77 106 7 0 13 -4 13 -8 0 -10 103 -167 129 -197 38 -43 35 -52 -60 -199 -149
-228 -193 -298 -229 -358 -19 -32 -40 -60 -46 -62 -11 -4 -114 133 -114 152 0
5 -15 24 -33 43 -31 33 -49 56 -184 234 -92 122 -92 100 -1 258 44 75 84 137
88 137 4 0 17 -15 29 -32z"/>
<path d="M57 223 c-4 -3 -7 -39 -7 -79 0 -63 3 -75 20 -84 14 -7 26 -8 39 0
15 8 20 23 23 77 2 38 2 74 0 81 -4 12 -64 17 -75 5z"/>
<path d="M897 224 c-4 -4 -7 -40 -7 -81 0 -69 1 -74 25 -83 52 -20 68 6 63
105 l-3 60 -35 3 c-20 2 -39 0 -43 -4z"/>
</g>
</svg>
