<?xml version="1.0" standalone="no"?>
<!DOCTYPE svg PUBLIC "-//W3C//DTD SVG 20010904//EN"
 "http://www.w3.org/TR/2001/REC-SVG-20010904/DTD/svg10.dtd">
<svg version="1.0" xmlns="http://www.w3.org/2000/svg"
 width="96.000000pt" height="146.000000pt" viewBox="0 0 96.000000 146.000000"
 preserveAspectRatio="xMidYMid meet">
<metadata>
Created by potrace 1.16, written by Peter Selinger 2001-2019
</metadata>
<g transform="translate(0.000000,146.000000) scale(0.100000,-0.100000)"
fill="#000000" stroke="none">
<path d="M444 1408 c-5 -7 -18 -31 -29 -53 -12 -22 -32 -58 -45 -80 -13 -22
-40 -69 -60 -105 -56 -100 -74 -131 -123 -211 -24 -41 -57 -96 -72 -124 -16
-27 -41 -72 -57 -100 -15 -27 -28 -58 -28 -68 0 -10 29 -59 65 -110 36 -51 85
-119 108 -152 23 -32 70 -97 104 -142 35 -46 63 -87 63 -92 0 -4 9 -16 20 -26
11 -10 20 -24 20 -30 0 -7 7 -19 16 -26 9 -7 20 -23 25 -36 16 -43 21 -38 176
182 38 55 84 120 101 145 18 25 60 86 93 135 34 50 70 99 80 111 27 29 23 70
-11 121 -16 24 -30 46 -30 49 0 3 -8 18 -19 32 -17 25 -30 47 -83 142 -33 57
-62 105 -68 110 -6 5 -57 87 -90 145 -98 170 -136 215 -156 183z m72 -145 c20
-38 54 -93 75 -125 l38 -56 -25 -39 c-15 -21 -41 -58 -59 -83 -30 -42 -33 -52
-37 -142 -5 -102 2 -125 36 -112 13 5 16 22 16 90 0 90 4 99 85 200 l20 25 40
-68 c21 -37 47 -83 57 -101 l19 -33 -36 -67 c-42 -80 -44 -110 -8 -178 l26
-51 -79 -112 c-83 -116 -179 -255 -195 -281 -11 -18 -15 -13 -99 107 -72 104
-130 185 -216 302 -39 54 -75 107 -78 119 -7 22 -3 31 64 147 44 77 91 160
107 193 9 17 21 32 27 32 12 -1 83 -97 103 -139 7 -14 12 -56 11 -92 -1 -70 5
-89 27 -89 21 0 28 42 23 135 l-6 82 -61 81 c-33 44 -61 83 -61 88 0 4 13 28
29 53 15 25 45 76 65 114 20 37 41 67 46 67 4 0 25 -30 46 -67z m333 -547 l23
-45 -31 -45 c-18 -25 -35 -46 -39 -46 -4 0 -16 16 -27 35 l-19 36 27 54 c15
30 30 55 34 55 5 0 19 -20 32 -44z"/>
</g>
</svg>
