<?xml version="1.0" standalone="no"?>
<!DOCTYPE svg PUBLIC "-//W3C//DTD SVG 20010904//EN"
 "http://www.w3.org/TR/2001/REC-SVG-20010904/DTD/svg10.dtd">
<svg version="1.0" xmlns="http://www.w3.org/2000/svg"
 width="66.000000pt" height="100.000000pt" viewBox="0 0 66.000000 100.000000"
 preserveAspectRatio="xMidYMid meet">
<metadata>
Created by potrace 1.16, written by Peter Selinger 2001-2019
</metadata>
<g transform="translate(0.000000,100.000000) scale(0.100000,-0.100000)"
fill="#000000" stroke="none">
<path d="M218 823 c-47 -81 -108 -188 -137 -238 -29 -49 -55 -103 -58 -120 -4
-30 14 -59 264 -399 l35 -48 29 28 c15 16 84 110 153 208 97 137 126 187 126
211 0 45 -276 499 -306 503 -18 3 -35 -21 -106 -145z m161 -11 l44 -72 -35
-57 c-30 -49 -36 -69 -39 -128 -4 -66 -3 -70 19 -73 21 -3 22 0 22 54 0 45 6
66 28 100 15 24 30 44 34 44 13 0 68 -94 68 -116 0 -12 -9 -42 -20 -67 -19
-43 -20 -49 -5 -83 8 -20 15 -43 15 -51 0 -8 -31 -59 -70 -112 -38 -53 -77
-106 -85 -118 -9 -13 -21 -23 -28 -23 -7 0 -52 58 -102 127 -49 70 -105 149
-124 175 l-33 47 63 115 c35 64 69 116 74 116 24 0 60 -74 65 -134 4 -53 8
-61 25 -61 44 0 30 132 -21 199 -19 25 -34 49 -34 55 0 21 73 142 84 138 6 -2
31 -36 55 -75z"/>
</g>
</svg>
