<?xml version="1.0" standalone="no"?>
<!DOCTYPE svg PUBLIC "-//W3C//DTD SVG 20010904//EN"
 "http://www.w3.org/TR/2001/REC-SVG-20010904/DTD/svg10.dtd">
<svg version="1.0" xmlns="http://www.w3.org/2000/svg"
 width="116.000000pt" height="148.000000pt" viewBox="0 0 116.000000 148.000000"
 preserveAspectRatio="xMidYMid meet">
<metadata>
Created by potrace 1.16, written by Peter Selinger 2001-2019
</metadata>
<g transform="translate(0.000000,148.000000) scale(0.100000,-0.100000)"
fill="#000000" stroke="none">
<path d="M502 1381 c-18 -22 -32 -43 -32 -47 0 -3 -12 -20 -26 -38 -73 -89
-374 -539 -374 -559 0 -19 48 -85 194 -272 137 -175 217 -278 248 -320 20 -28
45 -58 56 -68 19 -17 20 -17 41 10 12 15 38 53 58 83 20 30 48 69 62 86 14 17
35 44 46 59 84 117 169 225 177 225 5 0 8 4 8 10 0 5 27 45 60 89 33 44 60 87
60 95 0 21 -50 104 -108 178 -27 35 -89 115 -138 179 -287 375 -274 363 -332
290z m124 -127 c33 -43 67 -88 77 -100 18 -23 18 -25 0 -48 -10 -13 -44 -58
-76 -100 -31 -42 -59 -76 -61 -76 -2 0 -16 19 -32 43 -16 23 -48 65 -71 93
-24 28 -43 58 -43 67 0 9 25 51 56 94 31 43 59 84 61 91 10 25 32 10 89 -64z
m-175 -281 c99 -132 116 -150 137 -137 9 6 28 31 42 56 35 63 120 173 133 173
7 0 25 -21 42 -46 16 -25 51 -70 78 -101 26 -30 47 -59 47 -63 0 -4 16 -29 35
-55 19 -26 35 -54 35 -63 0 -8 -21 -41 -47 -74 -27 -33 -120 -157 -208 -276
-88 -119 -163 -216 -167 -216 -4 -1 -24 23 -44 53 l-35 54 18 93 19 94 55 0
c51 0 54 1 54 25 0 22 -5 26 -45 30 -37 4 -45 9 -45 25 0 18 6 20 53 17 50 -4
52 -3 52 22 0 22 -4 25 -42 28 -38 3 -43 6 -43 28 0 22 5 25 43 28 27 2 45 9
49 18 9 23 -6 31 -73 39 -71 8 -71 8 -84 -95 -14 -106 -47 -271 -57 -281 -6
-6 -42 34 -94 103 -46 62 -112 148 -146 192 -35 44 -63 87 -63 97 0 10 15 37
33 61 31 42 126 184 161 241 9 15 20 27 25 27 5 0 42 -44 82 -97z"/>
</g>
</svg>
