<?xml version="1.0" standalone="no"?>
<!DOCTYPE svg PUBLIC "-//W3C//DTD SVG 20010904//EN"
 "http://www.w3.org/TR/2001/REC-SVG-20010904/DTD/svg10.dtd">
<svg version="1.0" xmlns="http://www.w3.org/2000/svg"
 width="460.000000pt" height="590.000000pt" viewBox="0 0 460.000000 590.000000"
 preserveAspectRatio="xMidYMid meet">
<metadata>
Created by potrace 1.16, written by Peter Selinger 2001-2019
</metadata>
<g transform="translate(0.000000,590.000000) scale(0.500000,-0.500000)"
fill="#000000" stroke="none">
<path d="M433 1139 c-5 -2 -25 -21 -33 -33 -4 -5 -10 -13 -14 -18 -5 -5 -8
-10 -8 -11 0 -5 -17 -28 -29 -41 -7 -8 -13 -16 -14 -20 -1 -3 -4 -10 -8 -14
-4 -4 -10 -13 -13 -20 -11 -19 -30 -46 -40 -57 -5 -5 -12 -16 -16 -22 -3 -7
-9 -16 -13 -20 -3 -5 -10 -14 -14 -21 -4 -7 -11 -17 -15 -22 -4 -5 -20 -28
-36 -52 -16 -24 -32 -47 -37 -52 -5 -5 -11 -13 -13 -18 -5 -10 -32 -50 -38
-57 -5 -6 -29 -41 -33 -48 -8 -17 -2 -43 14 -60 4 -6 10 -13 13 -17 3 -4 9
-12 13 -17 8 -10 20 -27 33 -45 4 -5 11 -14 15 -20 5 -6 12 -16 17 -22 4 -7 9
-12 10 -13 1 -1 7 -9 14 -19 6 -9 17 -22 23 -29 6 -7 17 -19 23 -27 6 -8 15
-19 19 -25 4 -6 11 -15 15 -20 4 -5 11 -14 16 -20 8 -10 19 -23 36 -47 4 -5
11 -14 15 -20 5 -6 12 -16 17 -22 4 -6 9 -12 11 -14 4 -3 33 -42 44 -59 4 -7
14 -19 22 -27 8 -8 19 -20 24 -27 18 -19 56 13 69 59 2 5 7 13 12 18 5 6 15
19 22 29 7 10 20 26 28 35 8 9 16 21 18 25 2 5 8 12 13 16 5 4 11 11 13 15 1
4 5 11 9 15 3 4 12 16 18 25 7 9 17 23 23 30 6 7 16 19 21 27 5 8 12 16 14 19
3 3 8 9 11 14 20 28 24 34 32 40 4 3 10 10 12 15 4 8 24 37 55 77 4 5 13 18
20 29 8 10 16 22 19 26 7 9 5 18 -11 41 -8 12 -14 22 -15 28 -2 11 -13 29 -25
42 -5 5 -11 13 -15 18 -3 5 -11 15 -17 23 -6 8 -15 19 -19 25 -4 6 -9 12 -11
14 -5 4 -22 27 -41 54 -8 12 -19 27 -25 34 -5 6 -14 18 -20 24 -5 7 -16 21
-24 32 -7 10 -18 25 -23 32 -6 8 -16 21 -24 29 -8 9 -17 20 -21 25 -3 5 -9 13
-13 17 -5 5 -8 10 -8 11 0 1 -5 7 -12 15 -6 7 -15 18 -19 25 -4 7 -11 17 -15
21 -4 4 -11 13 -16 19 -20 28 -36 37 -55 33z m25 -88 c5 -6 10 -12 10 -13 0
-1 5 -7 11 -13 5 -6 13 -15 16 -20 14 -20 47 -62 51 -66 3 -2 9 -11 14 -19 12
-18 12 -17 -14 -50 -3 -4 -7 -10 -10 -14 -3 -4 -7 -10 -10 -13 -3 -4 -10 -13
-16 -22 -52 -72 -56 -75 -72 -55 -22 28 -26 33 -30 42 -2 6 -9 15 -16 21 -7 7
-14 18 -19 26 -5 10 -10 16 -16 21 -24 17 -24 41 0 68 3 3 18 25 34 49 51 75
51 75 67 58z m-148 -208 c5 -6 12 -15 15 -20 4 -5 8 -11 11 -14 2 -2 7 -8 10
-13 3 -4 10 -13 15 -20 12 -14 20 -25 36 -48 6 -9 17 -23 25 -31 7 -8 17 -18
21 -23 16 -17 16 -17 36 2 14 14 24 31 36 59 2 4 6 11 11 16 4 4 13 16 19 25
6 9 19 25 27 35 9 10 17 21 19 25 13 25 42 13 48 -20 1 -5 4 -11 11 -18 5 -5
12 -14 14 -18 2 -5 11 -15 19 -24 8 -8 17 -19 21 -24 6 -8 14 -19 30 -40 3 -5
7 -11 8 -14 1 -2 13 -21 27 -41 31 -46 31 -50 7 -76 -5 -6 -12 -16 -15 -22 -4
-7 -10 -15 -13 -18 -4 -3 -11 -12 -16 -20 -10 -15 -68 -94 -77 -105 -3 -3 -8
-10 -11 -15 -3 -4 -7 -9 -9 -11 -2 -2 -11 -13 -21 -26 -9 -13 -28 -39 -43 -58
-14 -19 -27 -37 -29 -39 -4 -6 -24 -34 -36 -49 -5 -7 -13 -18 -18 -24 -12 -17
-25 -30 -28 -29 -5 2 -42 50 -42 54 0 2 -3 7 -7 13 -9 14 -10 19 -6 32 1 6 3
16 4 21 4 29 20 106 23 109 5 5 10 5 38 0 37 -6 44 -5 48 10 7 25 1 31 -35 34
-37 4 -42 7 -40 20 2 10 8 13 28 11 51 -4 57 -2 57 22 0 20 -3 22 -40 24 -35
2 -38 5 -27 27 6 12 7 12 38 12 30 0 33 2 33 23 0 19 -3 22 -29 24 -11 0 -25
2 -31 3 -44 8 -55 1 -60 -40 -1 -8 -3 -21 -5 -28 -2 -7 -3 -18 -3 -24 0 -11
-1 -19 -13 -82 -23 -119 -24 -126 -32 -129 -2 0 -4 1 -6 4 -2 3 -11 13 -19 22
-8 9 -19 22 -24 30 -6 8 -13 18 -16 22 -3 4 -10 13 -15 20 -4 7 -11 15 -15 20
-4 4 -12 14 -17 22 -12 16 -23 31 -36 47 -4 6 -11 15 -14 20 -3 5 -10 13 -15
19 -5 5 -16 19 -24 30 -8 11 -17 23 -20 27 -18 20 -17 38 3 64 6 8 12 16 14
19 1 3 5 8 8 11 3 3 7 9 9 13 5 8 50 76 70 105 7 9 15 23 18 30 21 45 36 56
50 37z"/>
</g>
</svg>
