<?xml version="1.0" standalone="no"?>
<!DOCTYPE svg PUBLIC "-//W3C//DTD SVG 20010904//EN"
 "http://www.w3.org/TR/2001/REC-SVG-20010904/DTD/svg10.dtd">
<svg version="1.0" xmlns="http://www.w3.org/2000/svg"
 width="78.000000pt" height="100.000000pt" viewBox="0 0 78.000000 100.000000"
 preserveAspectRatio="xMidYMid meet">
<metadata>
Created by potrace 1.16, written by Peter Selinger 2001-2019
</metadata>
<g transform="translate(0.000000,100.000000) scale(0.100000,-0.100000)"
fill="#000000" stroke="none">
<path d="M338 943 c-8 -10 -44 -61 -78 -113 -35 -52 -93 -138 -130 -190 -94
-132 -95 -136 -74 -168 26 -41 311 -407 326 -420 18 -15 28 -6 71 58 20 30 90
127 157 214 66 88 120 167 120 175 0 25 -34 74 -189 275 -150 194 -168 209
-203 169z m132 -176 c0 -24 -71 -117 -90 -117 -15 1 -90 99 -90 119 0 12 59
103 74 114 14 9 106 -91 106 -116z m-167 -114 c55 -71 83 -97 96 -89 5 4 31
38 56 76 48 73 67 84 85 50 6 -10 35 -54 65 -96 30 -42 55 -84 55 -93 0 -21
-255 -366 -271 -366 -7 0 -21 12 -32 27 -18 25 -19 30 -6 85 14 57 15 58 52
61 46 4 50 28 7 43 -36 13 -30 29 11 29 37 0 35 19 -4 38 -30 14 -27 32 4 32
24 0 37 29 18 41 -20 13 -77 11 -85 -3 -4 -6 -15 -60 -25 -120 -10 -61 -21
-113 -24 -116 -8 -8 -34 22 -130 150 -36 48 -65 93 -65 99 0 6 27 51 60 101
33 49 60 94 60 99 0 25 33 3 73 -48z"/>
</g>
</svg>
