<?xml version="1.0" standalone="no"?>
<!DOCTYPE svg PUBLIC "-//W3C//DTD SVG 20010904//EN"
 "http://www.w3.org/TR/2001/REC-SVG-20010904/DTD/svg10.dtd">
<svg version="1.0" xmlns="http://www.w3.org/2000/svg"
 width="104.000000pt" height="148.000000pt" viewBox="0 0 104.000000 148.000000"
 preserveAspectRatio="xMidYMid meet">
<metadata>
Created by potrace 1.16, written by Peter Selinger 2001-2019
</metadata>
<g transform="translate(0.000000,148.000000) scale(0.100000,-0.100000)"
fill="#000000" stroke="none">
<path d="M416 1348 c-21 -40 -71 -127 -111 -193 -41 -66 -106 -176 -146 -245
-40 -69 -81 -137 -91 -152 -10 -14 -18 -33 -18 -41 0 -29 44 -93 220 -327 103
-136 146 -195 186 -252 52 -74 77 -93 103 -79 10 6 21 21 23 34 4 23 32 67
239 386 154 237 161 250 155 268 -5 17 -216 324 -357 523 -30 41 -60 86 -67
99 -17 33 -42 50 -72 51 -21 0 -31 -11 -64 -72z m112 -65 c38 -61 101 -151
130 -188 12 -15 22 -35 22 -43 0 -8 -31 -63 -68 -121 -38 -58 -71 -114 -75
-123 -3 -10 -10 -18 -15 -18 -5 0 -38 44 -74 98 -37 53 -78 108 -92 121 -14
14 -26 33 -26 42 0 10 20 49 43 86 24 37 59 96 78 131 18 34 36 62 40 62 3 0
20 -21 37 -47z m-209 -325 c48 -76 133 -191 144 -196 16 -8 5 -30 -43 -82 -52
-58 -63 -90 -31 -90 19 0 71 52 71 71 0 5 5 9 10 9 6 0 10 -30 10 -70 0 -68 1
-70 25 -70 28 0 28 0 25 93 -1 37 2 67 7 67 4 -1 25 -23 46 -50 23 -29 46 -50
58 -50 33 0 21 32 -33 87 -45 46 -51 56 -41 71 7 9 43 68 80 130 37 61 71 112
75 112 4 0 15 -12 25 -27 9 -16 30 -43 45 -61 33 -39 34 -55 8 -107 -26 -52
-25 -85 5 -129 14 -20 25 -39 25 -42 0 -5 -24 -43 -152 -239 -47 -72 -92 -144
-101 -160 -8 -17 -24 -38 -35 -48 -20 -18 -21 -18 -49 25 -15 23 -65 93 -110
153 -45 61 -102 137 -127 170 -24 33 -66 89 -92 123 -39 53 -46 67 -36 80 6
10 43 72 83 140 39 67 75 122 79 122 5 0 17 -15 29 -32z m570 -190 c14 -24 14
-30 -2 -64 -17 -35 -19 -36 -36 -20 -25 23 -29 44 -19 84 11 40 35 40 57 0z"/>
</g>
</svg>
