<?xml version="1.0" standalone="no"?>
<!DOCTYPE svg PUBLIC "-//W3C//DTD SVG 20010904//EN"
 "http://www.w3.org/TR/2001/REC-SVG-20010904/DTD/svg10.dtd">
<svg version="1.0" xmlns="http://www.w3.org/2000/svg"
 width="416.000000pt" height="590.000000pt" viewBox="0 0 416.000000 590.000000"
 preserveAspectRatio="xMidYMid meet">
<metadata>
Created by potrace 1.16, written by Peter Selinger 2001-2019
</metadata>
<g transform="translate(0.000000,590.000000) scale(0.500000,-0.500000)"
fill="#000000" stroke="none">
<path d="M367 1137 c-5 -2 -7 -4 -9 -13 -1 -5 -7 -17 -12 -26 -5 -9 -10 -18
-11 -20 -1 -3 -5 -8 -9 -13 -5 -5 -9 -13 -12 -21 -3 -10 -7 -17 -13 -24 -5 -5
-11 -14 -13 -20 -2 -5 -6 -14 -9 -18 -3 -5 -10 -17 -16 -27 -7 -10 -16 -26
-22 -35 -5 -9 -13 -23 -18 -29 -5 -7 -9 -13 -9 -14 0 -4 -20 -38 -27 -46 -4
-4 -9 -14 -13 -22 -3 -7 -9 -17 -13 -22 -4 -4 -10 -14 -13 -21 -4 -7 -10 -17
-13 -23 -8 -12 -21 -35 -33 -57 -5 -9 -11 -20 -13 -23 -3 -3 -8 -12 -11 -20
-4 -8 -11 -20 -16 -27 -12 -16 -22 -36 -22 -43 0 -9 7 -27 13 -32 4 -3 7 -7 8
-10 4 -15 27 -50 54 -81 6 -7 11 -13 11 -14 0 -1 3 -6 7 -10 8 -9 26 -34 48
-66 7 -10 22 -31 34 -46 38 -49 62 -81 71 -94 9 -13 21 -30 41 -55 30 -37 54
-70 58 -79 22 -43 68 -52 81 -16 7 18 17 37 30 55 5 8 12 19 15 25 3 6 8 14
11 17 3 3 8 11 11 16 3 6 9 15 14 21 8 11 16 22 54 85 9 17 25 42 35 56 27 40
39 60 42 65 3 7 26 38 28 38 2 0 7 9 25 42 4 8 17 29 29 47 32 49 31 68 -6
117 -17 22 -22 29 -33 45 -7 10 -14 22 -17 27 -3 5 -9 13 -14 19 -6 5 -12 14
-15 20 -7 12 -32 50 -47 69 -5 7 -16 22 -23 32 -7 10 -17 24 -22 31 -13 17
-38 55 -42 63 -5 10 -28 43 -38 55 -7 9 -14 18 -39 54 -5 6 -10 15 -11 20 -11
32 -61 60 -86 48z m55 -112 c18 -27 34 -50 58 -83 21 -29 36 -50 41 -57 3 -4
9 -11 12 -15 13 -14 13 -38 0 -56 -4 -7 -7 -13 -7 -13 0 -1 -4 -7 -8 -12 -5
-5 -10 -14 -12 -18 -3 -4 -9 -14 -14 -21 -5 -7 -13 -20 -17 -28 -13 -23 -50
-80 -55 -82 -5 -3 -7 0 -27 28 -8 13 -19 28 -24 35 -9 12 -30 42 -47 66 -21
30 -27 38 -39 50 -22 21 -19 30 25 95 5 8 12 19 15 24 5 9 13 24 24 41 4 6 10
17 14 25 7 13 25 42 33 50 4 6 6 3 28 -29z m168 -244 c4 -5 11 -15 15 -23 5
-11 10 -18 15 -22 4 -4 8 -8 8 -9 0 -2 6 -9 13 -16 10 -10 13 -14 14 -20 1 -4
2 -11 3 -14 3 -8 0 -15 -10 -28 -30 -38 -26 -94 9 -134 9 -9 9 -14 -2 -30 -5
-8 -9 -15 -9 -16 0 -1 -4 -7 -10 -15 -5 -7 -16 -25 -25 -39 -8 -14 -19 -30
-23 -36 -4 -5 -9 -14 -12 -18 -2 -4 -8 -14 -14 -22 -6 -8 -14 -20 -19 -27 -4
-7 -12 -19 -16 -26 -43 -65 -60 -93 -67 -104 -3 -7 -10 -16 -13 -20 -4 -4 -8
-10 -10 -14 -9 -17 -28 -3 -46 32 -3 6 -9 14 -13 19 -4 4 -10 12 -13 17 -3 5
-11 15 -17 24 -6 8 -15 20 -20 27 -4 6 -12 16 -16 20 -4 4 -9 11 -11 14 -2 3
-7 10 -11 15 -4 5 -10 14 -14 21 -4 6 -12 17 -17 23 -6 6 -12 14 -14 17 -2 3
-7 9 -11 14 -4 4 -11 14 -16 21 -5 7 -13 18 -18 24 -5 6 -17 22 -26 35 -19 28
-24 35 -39 53 -28 34 -30 36 -30 46 0 9 8 24 18 36 3 3 6 9 8 13 2 4 8 15 13
23 6 9 10 16 10 17 0 1 5 10 11 20 6 10 14 22 16 27 12 22 46 76 50 78 8 6 15
0 19 -14 2 -7 5 -12 19 -24 11 -11 18 -19 22 -26 2 -6 7 -13 10 -16 3 -2 6 -8
7 -12 3 -8 11 -20 23 -32 5 -5 10 -12 12 -16 5 -10 21 -32 27 -38 8 -7 8 -13
0 -20 -3 -3 -7 -9 -10 -13 -2 -5 -8 -11 -12 -15 -4 -4 -10 -11 -13 -16 -3 -5
-7 -10 -9 -11 -2 -2 -6 -7 -9 -11 -3 -5 -9 -13 -13 -17 -14 -16 -8 -33 11 -30
18 2 24 5 28 15 3 5 8 12 11 14 3 2 8 9 11 14 5 10 15 19 19 17 1 -1 2 -19 2
-49 0 -58 0 -58 21 -58 22 0 21 -2 21 64 0 60 1 67 10 54 2 -3 8 -10 15 -17 7
-7 20 -21 29 -31 22 -25 27 -28 42 -19 13 9 9 18 -16 44 -10 11 -22 23 -25 28
-3 4 -10 12 -15 17 -17 18 -18 30 -3 45 5 5 12 14 14 20 3 5 10 17 16 25 5 8
11 19 13 23 2 4 8 14 13 20 9 14 19 31 33 55 13 23 16 27 22 31 7 4 6 4 14 -4z
m107 -145 c23 -26 28 -46 15 -65 -3 -4 -7 -11 -10 -16 -9 -14 -19 -10 -30 10
-17 30 5 92 25 71z"/>
</g>
</svg>
