<?xml version="1.0" standalone="no"?>
<!DOCTYPE svg PUBLIC "-//W3C//DTD SVG 20010904//EN"
 "http://www.w3.org/TR/2001/REC-SVG-20010904/DTD/svg10.dtd">
<svg version="1.0" xmlns="http://www.w3.org/2000/svg"
 width="70.000000pt" height="100.000000pt" viewBox="0 0 70.000000 100.000000"
 preserveAspectRatio="xMidYMid meet">
<metadata>
Created by potrace 1.16, written by Peter Selinger 2001-2019
</metadata>
<g transform="translate(0.000000,100.000000) scale(0.100000,-0.100000)"
fill="#000000" stroke="none">
<path d="M284 928 c-9 -18 -71 -125 -137 -237 l-121 -204 21 -39 c12 -21 83
-122 159 -223 102 -138 143 -185 158 -185 16 1 36 26 79 98 31 53 93 153 137
221 44 68 80 131 80 140 0 9 -59 102 -131 206 -72 105 -140 205 -151 223 -15
24 -27 32 -49 32 -22 0 -32 -7 -45 -32z m114 -127 c28 -43 52 -84 52 -91 0
-17 -90 -160 -101 -160 -4 0 -26 26 -48 58 -21 32 -46 64 -55 71 -9 7 -16 20
-16 27 0 22 91 174 104 174 6 -1 35 -36 64 -79z m-134 -231 l48 -70 -36 -41
c-21 -22 -36 -45 -33 -52 6 -20 26 -19 44 2 25 29 31 26 35 -16 2 -26 8 -38
18 -38 11 0 16 13 18 48 2 26 5 47 8 47 2 0 17 -14 33 -32 16 -18 33 -28 39
-24 19 12 14 31 -18 61 -16 16 -30 34 -30 41 0 6 21 46 47 88 50 83 54 84 93
20 20 -31 20 -35 6 -63 -20 -38 -20 -56 0 -90 16 -28 16 -29 -66 -162 -46 -74
-91 -142 -100 -153 -17 -17 -18 -17 -34 5 -9 13 -69 95 -132 181 l-116 158 33
57 c64 116 70 124 83 114 6 -5 33 -42 60 -81z"/>
</g>
</svg>
