<?xml version="1.0" standalone="no"?>
<!DOCTYPE svg PUBLIC "-//W3C//DTD SVG 20010904//EN"
 "http://www.w3.org/TR/2001/REC-SVG-20010904/DTD/svg10.dtd">
<svg version="1.0" xmlns="http://www.w3.org/2000/svg"
 width="78.000000pt" height="100.000000pt" viewBox="0 0 78.000000 100.000000"
 preserveAspectRatio="xMidYMid meet">
<metadata>
Created by potrace 1.16, written by Peter Selinger 2001-2019
</metadata>
<g transform="translate(0.000000,100.000000) scale(0.100000,-0.100000)"
fill="#000000" stroke="none">
<path d="M327 928 c-21 -29 -86 -124 -244 -356 -24 -35 -43 -68 -43 -73 0 -4
37 -57 83 -117 45 -59 120 -158 167 -220 47 -61 91 -114 98 -116 15 -6 342
426 342 452 0 24 -32 71 -193 282 -153 200 -165 208 -210 148z m110 -109 c29
-35 55 -72 59 -82 6 -19 -92 -157 -112 -157 -10 0 -93 97 -118 137 -9 15 94
175 109 170 5 -2 34 -32 62 -68z m-153 -213 c31 -40 56 -78 56 -84 0 -6 -10
-12 -22 -14 -15 -2 -24 -11 -26 -25 -2 -13 -10 -23 -18 -23 -8 0 -14 -7 -14
-15 0 -8 -9 -23 -20 -32 -11 -10 -20 -23 -20 -30 0 -30 -20 -17 -63 41 -26 35
-47 69 -47 76 0 11 108 180 115 180 2 0 29 -33 59 -74z m323 -15 c29 -41 53
-82 53 -91 0 -10 -27 -53 -61 -96 -33 -44 -90 -121 -127 -171 -66 -95 -91
-111 -111 -74 -6 10 -35 49 -66 86 -30 37 -55 71 -55 76 0 5 11 9 25 9 20 0
25 5 25 25 0 18 5 25 20 25 13 0 20 7 20 20 0 15 7 20 26 20 24 0 26 3 21 30
-5 24 -2 33 17 45 13 9 47 51 77 95 31 46 60 79 68 77 8 -1 39 -35 68 -76z"/>
</g>
</svg>
