<?xml version="1.0" standalone="no"?>
<!DOCTYPE svg PUBLIC "-//W3C//DTD SVG 20010904//EN"
 "http://www.w3.org/TR/2001/REC-SVG-20010904/DTD/svg10.dtd">
<svg version="1.0" xmlns="http://www.w3.org/2000/svg"
 width="460.000000pt" height="590.000000pt" viewBox="0 0 460.000000 590.000000"
 preserveAspectRatio="xMidYMid meet">
<metadata>
Created by potrace 1.16, written by Peter Selinger 2001-2019
</metadata>
<g transform="translate(0.000000,590.000000) scale(0.500000,-0.500000)"
fill="#000000" stroke="none">
<path d="M432 1139 c-5 -2 -25 -22 -33 -33 -4 -6 -11 -14 -14 -19 -4 -4 -7 -8
-7 -10 0 -4 -19 -32 -29 -41 -6 -5 -12 -14 -15 -21 -3 -7 -7 -13 -9 -15 -2 -1
-9 -12 -16 -25 -16 -27 -31 -47 -41 -58 -4 -4 -10 -12 -12 -17 -2 -5 -6 -12
-10 -16 -3 -4 -10 -15 -17 -24 -6 -9 -17 -25 -23 -34 -7 -10 -22 -32 -33 -49
-11 -17 -23 -34 -27 -38 -5 -5 -12 -14 -16 -22 -7 -13 -20 -32 -53 -77 -28
-40 -29 -65 -2 -90 3 -3 9 -10 13 -16 9 -13 19 -25 29 -38 4 -5 10 -13 14 -18
3 -4 10 -14 15 -21 6 -6 14 -17 18 -23 4 -7 9 -12 10 -13 1 -1 8 -9 14 -19 6
-10 16 -22 21 -27 6 -6 18 -21 29 -35 10 -14 21 -29 25 -34 12 -16 20 -26 47
-61 26 -35 27 -36 42 -56 5 -7 12 -15 15 -19 8 -8 17 -20 35 -47 11 -15 46
-56 59 -67 11 -11 51 32 61 66 2 5 7 13 13 20 6 6 13 15 16 19 8 13 21 30 34
45 7 8 15 18 18 24 3 5 8 12 13 15 4 3 10 10 12 15 5 10 14 21 31 41 7 7 13
14 13 15 0 2 3 7 8 13 4 5 13 19 21 29 16 23 20 28 29 40 4 5 9 12 12 16 2 4
8 11 13 15 5 4 11 11 12 15 2 4 6 10 10 15 3 4 12 16 19 26 12 18 22 31 31 42
2 3 10 14 17 25 7 10 15 21 18 25 7 9 5 18 -11 41 -8 12 -14 22 -15 28 -2 12
-12 27 -25 42 -6 6 -13 15 -16 19 -3 4 -10 15 -17 23 -7 8 -15 19 -18 24 -4 5
-10 13 -15 18 -4 5 -12 15 -18 23 -5 7 -14 18 -18 24 -4 5 -10 13 -13 17 -3 4
-9 12 -14 18 -6 6 -10 12 -10 13 0 2 -4 7 -9 13 -11 12 -47 61 -52 70 -2 4
-10 14 -18 23 -14 15 -18 21 -37 46 -4 6 -11 14 -16 20 -5 5 -14 18 -20 27 -6
9 -15 22 -20 27 -5 6 -11 13 -14 17 -19 25 -37 35 -54 29z m25 -87 c4 -5 10
-12 12 -15 1 -3 6 -9 9 -12 4 -3 10 -11 14 -17 5 -6 13 -17 18 -24 5 -7 13
-17 16 -22 4 -5 10 -13 14 -17 4 -4 11 -12 14 -17 4 -5 12 -16 19 -25 33 -43
33 -42 1 -83 -7 -8 -16 -20 -20 -26 -4 -6 -13 -17 -18 -24 -6 -7 -13 -17 -16
-22 -4 -5 -12 -17 -19 -25 -7 -9 -17 -22 -22 -29 -16 -21 -38 -23 -48 -3 -2 3
-7 9 -11 13 -5 4 -9 9 -10 15 -2 5 -7 12 -16 21 -9 9 -16 18 -19 26 -5 9 -10
16 -17 22 -5 4 -12 13 -16 19 -3 6 -10 14 -14 18 -26 25 -31 37 -17 52 4 6 10
12 11 15 1 3 11 17 22 32 10 15 33 47 50 72 51 75 48 72 63 56z m-178 -255 c3
-3 9 -11 13 -16 4 -5 11 -14 15 -20 8 -11 15 -20 31 -41 5 -7 14 -17 19 -24 6
-6 12 -14 14 -17 2 -3 6 -9 9 -12 9 -10 32 -45 32 -50 0 -8 -11 -21 -18 -21
-1 0 -6 4 -12 9 -14 12 -23 11 -35 -3 -7 -9 -6 -18 5 -34 15 -20 4 -34 -17
-23 -21 11 -46 -12 -32 -31 10 -13 10 -16 6 -23 -6 -11 -19 -12 -26 -1 -5 7
-26 -4 -31 -16 -2 -6 -2 -7 5 -18 17 -28 -8 -45 -26 -18 -3 5 -9 13 -13 18 -4
5 -10 13 -13 17 -14 21 -20 29 -28 37 -4 5 -13 16 -19 25 -6 8 -16 22 -22 29
-17 23 -15 39 7 68 5 6 10 14 12 17 2 4 5 8 7 9 2 1 7 7 10 14 9 16 28 45 70
106 6 7 11 17 12 21 4 15 11 15 25 -2z m367 4 c4 -2 11 -10 16 -17 4 -7 13
-18 20 -25 6 -7 16 -17 20 -24 19 -26 23 -32 30 -40 3 -4 8 -11 10 -16 3 -4
12 -19 22 -33 37 -56 37 -58 12 -85 -5 -6 -12 -16 -15 -22 -4 -7 -10 -15 -13
-18 -4 -3 -10 -11 -15 -18 -4 -7 -15 -22 -25 -35 -9 -12 -20 -26 -23 -31 -4
-5 -10 -13 -13 -17 -4 -5 -9 -12 -11 -15 -2 -3 -9 -12 -17 -20 -7 -8 -15 -16
-16 -19 -1 -3 -7 -11 -13 -18 -6 -7 -12 -16 -15 -21 -2 -4 -17 -24 -32 -45
-16 -20 -31 -41 -34 -45 -3 -4 -11 -15 -17 -23 -6 -8 -15 -20 -20 -27 -5 -7
-11 -15 -13 -19 -9 -13 -33 -13 -41 0 -2 3 -8 11 -13 16 -6 6 -10 13 -11 16
-1 4 -6 11 -14 19 -8 8 -16 19 -20 27 -5 9 -11 17 -17 22 -5 4 -12 13 -17 20
-5 8 -11 15 -14 18 -3 2 -11 10 -17 18 -6 8 -14 18 -18 23 -24 29 -26 36 -13
48 10 11 12 10 26 -4 12 -12 19 -12 32 0 13 12 12 16 -7 38 -19 21 1 40 22 22
13 -12 19 -12 31 -1 14 13 14 18 -2 37 -10 13 -11 16 -5 24 7 8 12 7 26 -6 16
-14 22 -15 35 -2 13 12 11 25 -6 39 -17 14 -9 38 12 35 10 -1 33 16 41 32 3 4
6 10 8 13 2 2 6 11 9 18 4 10 9 18 16 26 6 6 15 18 20 26 5 8 16 22 24 31 8 9
17 21 20 27 3 6 9 13 14 17 5 4 11 11 13 16 8 19 18 25 28 18z"/>
</g>
</svg>
