<?xml version="1.0" standalone="no"?>
<!DOCTYPE svg PUBLIC "-//W3C//DTD SVG 20010904//EN"
 "http://www.w3.org/TR/2001/REC-SVG-20010904/DTD/svg10.dtd">
<svg version="1.0" xmlns="http://www.w3.org/2000/svg"
 width="116.000000pt" height="148.000000pt" viewBox="0 0 116.000000 148.000000"
 preserveAspectRatio="xMidYMid meet">
<metadata>
Created by potrace 1.16, written by Peter Selinger 2001-2019
</metadata>
<g transform="translate(0.000000,148.000000) scale(0.100000,-0.100000)"
fill="#000000" stroke="none">
<path d="M502 1381 c-18 -22 -32 -43 -32 -47 0 -3 -12 -20 -26 -38 -70 -85
-374 -539 -374 -558 0 -17 59 -103 137 -198 27 -32 113 -144 213 -275 58 -75
119 -153 136 -172 l32 -34 21 28 c12 15 38 53 58 83 20 30 49 71 65 90 16 19
32 40 36 45 46 65 168 223 179 231 7 6 13 14 13 17 0 4 27 42 60 86 33 44 60
87 60 95 0 23 -50 104 -119 192 -34 44 -96 124 -138 179 -266 349 -264 348
-321 276z m119 -123 c30 -40 73 -97 96 -126 24 -29 43 -55 43 -57 0 -2 -19
-28 -43 -57 -23 -29 -63 -81 -87 -115 -25 -34 -53 -63 -62 -63 -9 0 -25 11
-35 26 -10 14 -47 61 -83 106 -36 44 -69 86 -74 92 -6 8 11 39 50 92 33 43 73
100 89 126 17 27 35 48 42 48 6 0 35 -33 64 -72z m-241 -300 c25 -34 62 -81
84 -106 49 -59 63 -89 48 -104 -9 -9 -18 -8 -37 2 -34 18 -56 0 -37 -30 6 -11
12 -27 12 -35 0 -17 -25 -21 -35 -5 -3 5 -12 7 -20 4 -22 -9 -27 -35 -9 -48
15 -11 15 -14 -1 -30 -13 -13 -20 -14 -31 -5 -11 9 -18 9 -29 -1 -12 -10 -12
-15 1 -35 13 -20 13 -24 -1 -35 -10 -8 -19 -9 -25 -4 -33 34 -150 201 -150
215 0 9 14 36 32 60 60 82 120 174 129 197 5 12 12 22 16 22 5 -1 28 -28 53
-62z m451 30 c7 -13 32 -46 56 -74 23 -28 43 -55 43 -59 0 -4 16 -29 35 -55
19 -26 35 -55 35 -63 0 -8 -19 -39 -43 -69 -24 -29 -115 -149 -202 -265 -96
-128 -166 -213 -176 -213 -9 0 -36 27 -60 61 -24 34 -51 68 -59 78 -9 9 -40
44 -68 78 -46 54 -52 65 -42 83 13 24 18 25 41 4 20 -18 49 -12 49 9 0 8 -7
20 -15 27 -8 7 -15 18 -15 26 0 22 20 27 40 9 38 -35 68 8 33 47 -12 13 -14
21 -5 30 8 8 18 5 38 -11 20 -16 30 -18 40 -10 18 15 18 34 -1 49 -23 19 -18
49 9 56 27 6 56 35 77 76 26 50 151 208 165 208 7 0 19 -10 25 -22z"/>
</g>
</svg>
