<?xml version="1.0" standalone="no"?>
<!DOCTYPE svg PUBLIC "-//W3C//DTD SVG 20010904//EN"
 "http://www.w3.org/TR/2001/REC-SVG-20010904/DTD/svg10.dtd">
<svg version="1.0" xmlns="http://www.w3.org/2000/svg"
 width="474.000000pt" height="590.000000pt" viewBox="0 0 474.000000 590.000000"
 preserveAspectRatio="xMidYMid meet">
<metadata>
Created by potrace 1.16, written by Peter Selinger 2001-2019
</metadata>
<g transform="translate(0.000000,590.000000) scale(0.500000,-0.500000)"
fill="#000000" stroke="none">
<path d="M442 1139 c-5 -2 -25 -22 -33 -33 -4 -6 -10 -14 -13 -17 -3 -3 -7
-10 -9 -14 -5 -11 -17 -29 -28 -39 -5 -5 -12 -14 -14 -20 -3 -6 -8 -14 -11
-17 -3 -4 -8 -11 -10 -16 -8 -14 -34 -53 -44 -64 -6 -6 -12 -15 -14 -20 -2 -5
-7 -12 -11 -16 -3 -5 -10 -14 -14 -21 -4 -7 -10 -15 -13 -19 -6 -7 -27 -37
-50 -73 -8 -13 -19 -27 -24 -33 -5 -5 -13 -16 -18 -24 -4 -8 -14 -23 -23 -35
-42 -59 -47 -66 -48 -75 -3 -20 2 -36 19 -54 5 -5 12 -15 16 -20 10 -13 22
-29 28 -37 16 -20 60 -80 68 -92 5 -7 16 -20 24 -29 8 -9 17 -20 21 -25 3 -5
11 -16 18 -25 7 -8 15 -19 18 -24 3 -4 11 -13 16 -20 6 -7 15 -19 21 -27 6 -8
15 -20 20 -26 5 -7 14 -18 19 -25 6 -7 14 -18 18 -23 10 -11 39 -50 49 -65 16
-25 46 -51 58 -51 11 0 38 21 38 29 0 1 3 6 6 11 3 5 8 14 10 20 3 7 8 16 14
22 5 6 15 19 21 29 7 10 15 20 18 23 8 8 24 28 29 37 2 5 8 12 13 16 4 4 10
10 11 13 3 9 21 32 30 39 3 3 10 11 14 19 12 18 39 58 57 81 5 5 11 14 14 19
4 5 9 10 12 12 3 2 8 8 11 14 3 7 7 12 8 13 1 1 8 10 15 21 8 10 18 24 22 30
5 6 11 14 13 17 3 3 11 14 18 24 7 10 16 22 19 27 12 16 11 26 -8 46 -11 11
-15 17 -16 22 -2 10 -11 26 -24 40 -6 7 -13 15 -14 18 -2 3 -8 10 -13 17 -15
19 -31 40 -55 71 -10 13 -20 26 -23 30 -3 3 -8 10 -11 15 -3 5 -10 13 -15 19
-6 6 -10 12 -10 13 0 2 -5 8 -10 15 -16 18 -52 67 -52 70 0 1 -8 10 -17 21
-10 10 -20 21 -22 26 -3 4 -8 10 -12 15 -3 4 -8 10 -10 13 -2 3 -7 10 -12 15
-5 5 -13 16 -18 24 -5 8 -14 20 -19 25 -6 6 -10 12 -10 13 0 15 -42 40 -58 35z
m23 -85 c5 -5 10 -12 13 -16 3 -4 8 -11 13 -16 4 -5 13 -16 19 -24 6 -8 15
-19 19 -25 4 -5 10 -13 13 -17 2 -4 8 -11 13 -16 21 -22 21 -29 -1 -56 -5 -6
-17 -23 -27 -36 -10 -14 -21 -29 -24 -33 -4 -5 -9 -13 -12 -17 -24 -38 -36
-34 -74 24 -4 6 -11 15 -15 19 -4 5 -13 16 -19 26 -7 10 -15 20 -17 22 -21 18
-20 34 2 58 3 3 18 24 33 47 48 71 51 74 64 60z m156 -187 c2 -1 9 -9 14 -17
13 -19 28 -40 49 -68 31 -41 32 -35 -30 -104 -9 -10 -24 -27 -33 -37 -9 -10
-22 -25 -30 -33 -33 -35 -33 -34 33 -102 74 -76 72 -72 58 -89 -4 -5 -8 -10
-8 -11 0 -1 -7 -10 -16 -19 -10 -9 -19 -20 -23 -25 -3 -5 -9 -15 -15 -21 -5
-7 -14 -20 -20 -28 -6 -9 -15 -21 -20 -27 -13 -17 -26 -35 -37 -50 -5 -7 -13
-17 -17 -23 -8 -11 -21 -30 -37 -55 -16 -24 -18 -23 -49 22 -8 11 -20 27 -26
35 -6 7 -15 21 -20 28 -6 8 -14 19 -18 24 -5 5 -11 14 -15 21 -4 6 -12 16 -17
21 -12 14 -42 53 -50 67 -14 24 -22 34 -37 49 -9 9 -19 20 -23 26 -4 5 -11 14
-15 20 -4 6 -11 15 -15 20 -4 5 -11 14 -16 20 -5 6 -14 17 -20 25 -6 8 -15 19
-19 25 -20 24 -19 39 1 67 7 9 12 17 12 18 0 1 4 7 10 13 5 6 10 13 11 15 1 5
39 62 66 101 6 8 12 20 14 26 3 9 4 11 13 17 5 3 11 9 14 14 17 31 35 33 48 5
6 -12 5 -13 -33 -62 -39 -50 -43 -56 -43 -62 0 -8 9 -15 18 -15 8 1 5 -3 57
69 27 36 30 37 48 11 14 -21 19 -13 -49 -83 -27 -27 -29 -37 -10 -45 9 -4 14
0 36 24 53 59 52 58 64 46 12 -11 10 -14 -30 -52 -43 -42 -48 -52 -30 -61 13
-7 13 -6 64 46 52 52 67 70 123 142 9 11 22 28 30 37 8 9 17 21 20 25 7 12 12
15 18 10z m126 -182 c11 -14 56 -80 58 -88 2 -8 -4 -22 -16 -36 -6 -7 -14 -18
-18 -25 -4 -7 -11 -17 -16 -23 -5 -5 -12 -14 -16 -19 -12 -17 -15 -14 -67 45
-35 41 -36 33 4 80 58 69 63 74 71 66z"/>
</g>
</svg>
