<?xml version="1.0" standalone="no"?>
<!DOCTYPE svg PUBLIC "-//W3C//DTD SVG 20010904//EN"
 "http://www.w3.org/TR/2001/REC-SVG-20010904/DTD/svg10.dtd">
<svg version="1.0" xmlns="http://www.w3.org/2000/svg"
 width="118.000000pt" height="148.000000pt" viewBox="0 0 118.000000 148.000000"
 preserveAspectRatio="xMidYMid meet">
<metadata>
Created by potrace 1.16, written by Peter Selinger 2001-2019
</metadata>
<g transform="translate(0.000000,148.000000) scale(0.100000,-0.100000)"
fill="#000000" stroke="none">
<path d="M523 1398 c-18 -21 -114 -158 -215 -308 -40 -59 -77 -113 -177 -256
-68 -99 -68 -102 -21 -157 11 -12 52 -66 92 -119 194 -258 340 -446 361 -466
31 -29 52 -21 79 32 11 22 57 88 102 145 45 56 86 110 91 119 10 15 216 296
233 317 23 29 22 38 -14 93 -21 31 -44 63 -50 72 -7 8 -42 54 -78 102 -36 48
-89 118 -118 156 -29 38 -91 119 -137 181 -91 119 -110 131 -148 89z m131
-177 c67 -85 69 -65 -19 -190 -27 -39 -55 -71 -62 -71 -11 0 -130 150 -140
177 -5 12 73 136 116 186 15 18 16 18 31 -4 8 -13 42 -57 74 -98z m147 -178
c18 -27 43 -61 56 -76 13 -16 23 -33 23 -37 0 -5 -37 -50 -82 -100 -46 -50
-86 -99 -89 -108 -5 -12 15 -40 74 -99 90 -92 89 -74 12 -171 -58 -73 -158
-212 -180 -249 -11 -18 -24 -33 -30 -33 -6 0 -34 33 -61 72 -27 40 -74 105
-106 144 -31 39 -63 85 -72 103 -9 17 -20 31 -24 31 -4 0 -26 24 -47 53 -22
28 -56 73 -77 98 -21 26 -38 55 -38 65 0 10 24 54 54 98 29 45 69 106 89 136
20 30 47 68 60 85 21 25 27 28 41 16 27 -22 19 -49 -34 -113 -28 -33 -49 -65
-47 -72 8 -25 34 -8 75 52 24 34 48 62 53 62 4 0 16 -12 25 -26 17 -25 17 -26
-34 -77 -51 -51 -66 -87 -38 -87 8 0 33 23 56 50 40 48 68 60 77 33 3 -7 -18
-33 -46 -59 -51 -48 -61 -67 -40 -80 20 -12 208 193 283 309 10 15 22 27 27
27 4 0 23 -21 40 -47z m163 -238 c20 -30 36 -61 36 -68 0 -16 -88 -137 -100
-137 -4 0 -31 27 -60 60 l-51 59 58 70 c32 39 63 71 69 71 6 0 28 -25 48 -55z"/>
</g>
</svg>
