<?xml version="1.0" standalone="no"?>
<!DOCTYPE svg PUBLIC "-//W3C//DTD SVG 20010904//EN"
 "http://www.w3.org/TR/2001/REC-SVG-20010904/DTD/svg10.dtd">
<svg version="1.0" xmlns="http://www.w3.org/2000/svg"
 width="80.000000pt" height="100.000000pt" viewBox="0 0 80.000000 100.000000"
 preserveAspectRatio="xMidYMid meet">
<metadata>
Created by potrace 1.16, written by Peter Selinger 2001-2019
</metadata>
<g transform="translate(0.000000,100.000000) scale(0.100000,-0.100000)"
fill="#000000" stroke="none">
<path d="M343 938 c-11 -13 -47 -63 -80 -113 -33 -49 -95 -139 -137 -199 -42
-60 -76 -115 -76 -123 0 -17 22 -49 193 -273 87 -114 141 -176 154 -178 16 -2
30 9 54 45 19 26 91 126 161 221 70 96 128 180 128 187 0 13 -270 376 -318
428 -31 33 -52 34 -79 5z m86 -99 c23 -29 41 -58 41 -66 0 -21 -69 -113 -84
-113 -13 0 -86 98 -86 115 0 13 72 115 81 115 4 0 26 -23 48 -51z m-149 -138
c0 -10 -14 -35 -30 -56 -23 -28 -28 -41 -19 -49 8 -8 14 -6 23 8 22 35 48 66
56 66 4 0 11 -8 14 -17 5 -11 -5 -28 -29 -53 l-36 -37 32 -34 31 -33 39 44
c22 25 63 75 91 113 29 37 58 67 65 67 7 0 26 -20 43 -45 36 -52 37 -45 -37
-127 -24 -26 -43 -54 -43 -63 0 -9 20 -38 45 -64 25 -26 45 -53 45 -60 0 -6
-21 -37 -46 -68 -25 -31 -62 -80 -81 -109 -20 -30 -41 -54 -47 -54 -6 0 -39
40 -74 88 -34 49 -93 129 -132 178 -38 49 -70 95 -70 103 0 8 19 44 42 80 22
36 52 83 65 104 25 39 53 49 53 18z m369 -157 c27 -35 26 -50 -5 -91 -30 -40
-38 -41 -69 -7 -32 34 -31 43 3 87 33 44 44 45 71 11z"/>
</g>
</svg>
