<?xml version="1.0" standalone="no"?>
<!DOCTYPE svg PUBLIC "-//W3C//DTD SVG 20010904//EN"
 "http://www.w3.org/TR/2001/REC-SVG-20010904/DTD/svg10.dtd">
<svg version="1.0" xmlns="http://www.w3.org/2000/svg"
 width="114.000000pt" height="148.000000pt" viewBox="0 0 114.000000 148.000000"
 preserveAspectRatio="xMidYMid meet">
<metadata>
Created by potrace 1.16, written by Peter Selinger 2001-2019
</metadata>
<g transform="translate(0.000000,148.000000) scale(0.100000,-0.100000)"
fill="#000000" stroke="none">
<path d="M472 1353 c-26 -36 -61 -85 -77 -107 -17 -23 -71 -97 -119 -166 -49
-69 -120 -168 -158 -221 -42 -59 -68 -106 -68 -122 0 -17 14 -41 39 -67 22
-23 42 -48 45 -56 6 -15 203 -274 266 -348 19 -23 44 -55 55 -70 11 -15 35
-48 53 -71 17 -24 32 -48 32 -53 0 -6 7 -13 16 -16 19 -7 143 118 144 144 0 9
37 66 83 127 92 125 253 349 280 393 15 24 16 33 6 52 -10 18 -139 187 -215
281 -52 64 -216 271 -249 315 -54 72 -72 70 -133 -15z m118 -75 c8 -19 17 -81
20 -148 l5 -115 33 -3 34 -3 -3 75 c-2 41 -1 77 2 81 3 3 19 -14 34 -37 16
-24 46 -64 67 -89 l39 -46 -82 -109 c-44 -60 -84 -118 -89 -129 -4 -11 -5 -58
-1 -105 l6 -85 34 -3 c38 -4 55 12 40 39 -5 10 -9 46 -9 81 0 58 3 67 40 116
22 29 52 70 66 92 15 22 30 40 34 40 4 0 38 -39 75 -87 77 -99 79 -75 -12
-206 -29 -42 -53 -79 -53 -82 0 -4 -21 -32 -46 -63 -26 -31 -60 -81 -76 -109
-17 -29 -34 -56 -39 -59 -13 -8 -31 45 -27 80 3 25 -1 31 -27 38 -16 4 -33 4
-37 0 -5 -5 -4 -55 1 -113 8 -95 7 -107 -11 -137 -44 -72 -74 -27 -83 126 l-7
113 -32 -3 -31 -3 2 -57 c1 -32 -1 -58 -5 -58 -12 0 -62 54 -62 67 0 7 -24 41
-52 75 -71 84 -108 135 -108 146 0 5 7 16 16 23 57 47 62 184 9 239 -17 18
-23 30 -16 34 6 4 11 15 11 25 0 10 11 28 24 40 13 12 33 42 46 66 12 24 30
45 39 48 15 4 26 20 50 80 22 54 33 31 30 -60 l-4 -88 35 0 35 0 -4 131 c-4
160 -1 174 42 174 27 0 35 -6 47 -32z m-356 -532 c-4 -28 -11 -59 -16 -69 -13
-25 -47 -18 -71 15 l-21 28 31 42 c16 24 33 52 37 63 7 19 8 19 27 -4 16 -19
18 -33 13 -75z"/>
</g>
</svg>
