<?xml version="1.0" standalone="no"?>
<!DOCTYPE svg PUBLIC "-//W3C//DTD SVG 20010904//EN"
 "http://www.w3.org/TR/2001/REC-SVG-20010904/DTD/svg10.dtd">
<svg version="1.0" xmlns="http://www.w3.org/2000/svg"
 width="77.000000pt" height="100.000000pt" viewBox="0 0 77.000000 100.000000"
 preserveAspectRatio="xMidYMid meet">
<metadata>
Created by potrace 1.16, written by Peter Selinger 2001-2019
</metadata>
<g transform="translate(0.000000,100.000000) scale(0.100000,-0.100000)"
fill="#000000" stroke="none">
<path d="M191 743 c-84 -119 -156 -224 -158 -234 -5 -17 24 -58 268 -377 39
-50 76 -92 83 -92 17 0 63 49 105 114 20 30 82 118 139 196 56 78 102 150 102
160 0 10 -55 87 -123 171 -67 85 -144 182 -170 217 -33 43 -55 62 -70 62 -17
0 -56 -48 -176 -217z m206 125 c4 -7 10 -51 13 -98 5 -79 7 -85 28 -88 20 -3
22 1 22 37 0 22 4 42 9 45 9 6 71 -75 71 -93 0 -5 -25 -45 -56 -88 l-56 -78 7
-60 c7 -69 14 -80 45 -70 20 6 22 11 15 61 -6 50 -4 59 24 103 17 26 40 56 50
65 18 17 21 15 60 -40 35 -49 39 -60 29 -75 -7 -10 -50 -73 -96 -139 -45 -67
-84 -115 -87 -108 -22 63 -26 69 -43 66 -15 -3 -17 -16 -17 -93 0 -89 0 -90
-25 -90 -24 0 -25 3 -30 77 -7 87 -22 115 -46 84 -8 -11 -14 -28 -14 -38 0
-30 -15 -20 -47 30 -17 26 -43 64 -59 85 -27 37 -28 38 -10 67 23 41 24 101 1
143 l-19 35 60 88 c59 87 59 87 62 53 5 -67 11 -81 35 -77 21 3 22 6 18 95 -2
50 0 96 4 102 9 15 42 14 52 -1z m-239 -353 c4 -38 -17 -68 -41 -59 -20 7 -22
32 -5 69 15 34 42 28 46 -10z"/>
</g>
</svg>
