<?xml version="1.0" standalone="no"?>
<!DOCTYPE svg PUBLIC "-//W3C//DTD SVG 20010904//EN"
 "http://www.w3.org/TR/2001/REC-SVG-20010904/DTD/svg10.dtd">
<svg version="1.0" xmlns="http://www.w3.org/2000/svg"
 width="456.000000pt" height="590.000000pt" viewBox="0 0 456.000000 590.000000"
 preserveAspectRatio="xMidYMid meet">
<metadata>
Created by potrace 1.16, written by Peter Selinger 2001-2019
</metadata>
<g transform="translate(0.000000,590.000000) scale(0.500000,-0.500000)"
fill="#000000" stroke="none">
<path d="M416 1133 c-5 -3 -13 -13 -21 -25 -8 -12 -15 -23 -18 -25 -4 -5 -21
-29 -46 -66 -8 -12 -21 -29 -27 -37 -7 -8 -19 -25 -28 -38 -8 -12 -18 -27 -23
-33 -4 -5 -12 -16 -17 -24 -6 -8 -13 -18 -16 -23 -15 -18 -40 -53 -63 -86 -25
-37 -45 -64 -48 -69 -3 -2 -8 -10 -13 -18 -5 -8 -11 -17 -14 -20 -3 -3 -11
-15 -19 -26 -8 -12 -16 -24 -19 -27 -9 -13 -5 -43 7 -54 3 -3 8 -9 12 -14 13
-19 24 -31 32 -35 8 -5 11 -9 14 -22 3 -12 27 -47 54 -75 5 -6 13 -15 17 -21
4 -5 10 -14 13 -19 4 -5 9 -11 13 -15 3 -3 11 -14 18 -24 7 -10 18 -24 25 -32
17 -20 30 -37 34 -45 2 -4 7 -10 10 -15 4 -4 7 -8 7 -9 0 -1 4 -4 8 -7 5 -3
13 -13 20 -22 6 -9 14 -18 16 -20 2 -2 7 -9 11 -16 4 -7 12 -16 17 -22 5 -5
11 -15 13 -20 3 -6 8 -12 11 -14 3 -3 9 -10 13 -16 4 -7 11 -16 15 -20 4 -4 9
-12 10 -17 7 -28 43 -17 67 20 9 13 19 26 22 29 29 22 39 34 43 51 3 16 12 34
21 42 4 4 11 12 15 18 4 6 10 15 15 20 10 11 21 27 27 37 2 5 6 11 10 14 4 3
8 10 10 14 3 4 10 14 17 21 7 7 14 17 17 23 4 11 18 32 32 49 16 21 26 34 35
49 5 8 13 18 16 22 4 4 11 15 17 24 6 9 12 18 14 20 2 2 9 12 16 22 7 10 17
25 23 34 17 24 15 49 -8 76 -25 32 -32 40 -47 60 -9 12 -19 25 -23 29 -3 4 -8
10 -10 13 -2 3 -7 10 -12 15 -4 5 -10 12 -12 15 -2 3 -8 11 -13 16 -5 6 -15
19 -22 31 -8 13 -15 21 -19 24 -4 2 -9 8 -13 13 -4 6 -11 15 -16 20 -6 6 -10
12 -10 13 0 1 -6 8 -12 16 -12 13 -17 19 -31 39 -3 5 -10 13 -15 19 -9 10 -22
25 -34 42 -4 6 -11 14 -15 19 -5 4 -13 15 -19 24 -6 8 -16 21 -21 28 -6 6 -14
17 -18 23 -25 33 -44 41 -65 27z m45 -92 c3 -3 5 -8 6 -15 1 -8 3 -12 10 -19
8 -10 8 -10 9 -44 1 -19 2 -36 4 -40 1 -3 2 -21 2 -55 0 -27 1 -50 2 -51 6
-10 51 -9 56 1 3 5 3 71 0 88 -5 24 18 13 30 -15 4 -10 11 -18 34 -43 7 -9 14
-17 14 -18 0 -1 4 -7 10 -13 19 -21 20 -27 6 -39 -6 -5 -12 -12 -16 -21 -4 -8
-10 -16 -14 -19 -4 -3 -9 -11 -13 -19 -5 -9 -13 -19 -21 -28 -7 -8 -15 -17
-17 -21 -2 -4 -7 -11 -11 -15 -4 -5 -9 -12 -11 -15 -2 -4 -7 -11 -11 -16 -14
-17 -19 -43 -13 -67 2 -8 3 -23 3 -42 0 -59 9 -71 50 -66 20 2 22 6 16 33 -1
5 -2 22 -2 37 0 20 -1 31 -3 37 -7 19 -3 39 10 54 4 4 9 10 11 14 6 9 24 33
38 52 6 7 12 17 15 21 4 4 10 13 14 19 5 6 11 13 13 17 7 9 16 6 24 -6 3 -5
12 -15 20 -24 8 -9 16 -18 18 -20 2 -6 37 -53 47 -64 11 -14 12 -17 7 -24 -3
-3 -8 -11 -13 -18 -4 -6 -12 -16 -17 -22 -5 -6 -13 -17 -18 -25 -5 -8 -12 -19
-16 -24 -13 -16 -34 -50 -35 -57 -2 -12 -6 -17 -18 -28 -8 -7 -15 -15 -20 -25
-5 -9 -10 -16 -15 -19 -5 -3 -11 -10 -15 -15 -3 -5 -8 -12 -11 -15 -2 -3 -7
-11 -9 -16 -3 -6 -8 -15 -12 -20 -4 -4 -8 -11 -9 -16 -6 -20 -32 -34 -32 -17
0 3 -1 10 -3 15 -2 6 -3 18 -3 32 0 30 -41 50 -57 28 -4 -5 -4 -38 -1 -46 2
-4 3 -25 4 -56 1 -27 2 -55 3 -61 1 -12 -2 -19 -25 -47 -14 -17 -18 -16 -37
11 l-10 13 -1 45 c-1 25 -2 48 -4 52 -1 4 -2 21 -2 40 0 42 0 42 -30 42 -33 0
-40 -20 -27 -68 6 -19 0 -29 -10 -18 -2 3 -10 9 -17 14 -15 12 -17 14 -20 26
-3 12 -13 29 -24 41 -5 6 -11 13 -12 15 -4 8 -20 26 -33 39 -13 13 -25 28 -34
44 -3 5 -9 13 -12 17 -17 19 -16 22 2 42 12 13 15 18 18 27 2 7 6 18 9 25 17
43 6 111 -24 142 -16 18 -16 19 -8 31 4 5 6 12 7 19 2 12 1 10 23 31 11 10 22
26 27 40 8 19 20 35 34 43 13 8 21 15 26 26 1 4 5 9 7 12 3 3 5 10 6 18 3 19
16 34 19 21 1 -3 1 -30 1 -61 -2 -69 -3 -67 24 -68 39 -1 35 -15 35 115 0 134
-2 127 31 127 14 0 17 -1 21 -5z m-285 -380 c22 -19 17 -102 -7 -122 -15 -14
-30 -7 -49 22 -10 16 -7 30 14 52 7 8 20 30 23 39 4 14 9 17 19 9z"/>
</g>
</svg>
