<?xml version="1.0" standalone="no"?>
<!DOCTYPE svg PUBLIC "-//W3C//DTD SVG 20010904//EN"
 "http://www.w3.org/TR/2001/REC-SVG-20010904/DTD/svg10.dtd">
<svg version="1.0" xmlns="http://www.w3.org/2000/svg"
 width="77.000000pt" height="100.000000pt" viewBox="0 0 77.000000 100.000000"
 preserveAspectRatio="xMidYMid meet">
<metadata>
Created by potrace 1.16, written by Peter Selinger 2001-2019
</metadata>
<g transform="translate(0.000000,100.000000) scale(0.100000,-0.100000)"
fill="#000000" stroke="none">
<path d="M289 883 c-29 -43 -100 -143 -156 -222 -57 -79 -103 -150 -103 -158
0 -19 23 -54 115 -169 44 -55 113 -144 153 -197 40 -53 80 -97 89 -97 19 0 16
-3 135 165 51 72 118 165 150 208 32 43 58 87 58 97 0 10 -37 64 -83 121 -45
57 -122 155 -170 217 -110 140 -114 141 -188 35z m136 -58 l47 -55 -38 -56
c-21 -30 -42 -58 -47 -61 -11 -7 -49 29 -83 79 l-27 38 38 55 c20 30 43 55 50
55 8 0 35 -25 60 -55z m-122 -176 c27 -35 57 -68 65 -73 17 -10 43 15 100 98
35 51 52 54 66 14 8 -23 2 -36 -42 -96 -32 -43 -52 -80 -52 -96 0 -18 17 -48
50 -87 50 -60 55 -73 44 -103 -11 -29 -32 -17 -84 49 -31 39 -59 65 -71 65
-13 0 -34 -23 -64 -70 -25 -39 -49 -70 -55 -70 -5 0 -17 11 -26 25 -19 30 -14
41 61 125 25 28 45 55 45 59 0 5 -29 46 -65 92 -36 45 -65 86 -65 91 0 19 22
49 33 45 6 -2 33 -32 60 -68z m314 -66 c55 -70 56 -74 18 -131 -19 -28 -39
-53 -44 -56 -5 -3 -30 17 -56 45 l-47 50 18 27 c55 85 67 102 74 102 4 0 20
-17 37 -37z m-387 -26 c22 -30 40 -60 40 -68 0 -8 -21 -35 -46 -59 l-46 -45
-39 45 c-21 25 -39 50 -39 57 0 20 64 123 77 123 7 0 30 -24 53 -53z m199
-260 c22 -30 41 -59 41 -66 0 -15 -72 -111 -84 -111 -9 0 -18 10 -62 72 l-26
37 37 61 c20 33 40 60 45 60 4 0 26 -24 49 -53z"/>
</g>
</svg>
