<?xml version="1.0" standalone="no"?>
<!DOCTYPE svg PUBLIC "-//W3C//DTD SVG 20010904//EN"
 "http://www.w3.org/TR/2001/REC-SVG-20010904/DTD/svg10.dtd">
<svg version="1.0" xmlns="http://www.w3.org/2000/svg"
 width="114.000000pt" height="148.000000pt" viewBox="0 0 114.000000 148.000000"
 preserveAspectRatio="xMidYMid meet">
<metadata>
Created by potrace 1.16, written by Peter Selinger 2001-2019
</metadata>
<g transform="translate(0.000000,148.000000) scale(0.100000,-0.100000)"
fill="#000000" stroke="none">
<path d="M445 1318 c-41 -57 -124 -173 -184 -258 -60 -85 -133 -187 -160 -226
-28 -39 -51 -81 -51 -93 0 -24 61 -117 123 -188 64 -72 177 -221 194 -254 8
-16 18 -29 22 -29 10 0 151 -187 151 -199 0 -5 7 -12 16 -15 12 -5 30 8 60 41
24 26 44 51 44 55 0 4 28 45 63 91 34 47 79 109 100 138 40 58 181 257 230
325 26 37 28 44 17 65 -11 19 -141 190 -217 283 -8 10 -47 60 -87 110 -39 50
-73 93 -77 96 -3 3 -25 32 -50 65 -95 128 -95 128 -194 -7z m137 -32 c7 -14
39 -54 72 -90 l59 -66 -26 -26 c-15 -14 -47 -57 -73 -95 -26 -38 -51 -69 -55
-69 -7 0 -89 98 -136 163 -18 24 -20 34 -11 51 11 21 67 97 79 106 3 3 11 15
18 28 16 30 56 29 73 -2z m-199 -229 c2 -7 39 -56 81 -110 90 -113 112 -122
146 -59 40 76 117 177 135 177 10 0 31 -16 47 -37 l30 -36 -39 -50 c-159 -209
-161 -215 -85 -299 26 -29 64 -75 85 -103 l38 -50 -22 -32 c-41 -60 -49 -62
-78 -20 -135 198 -168 218 -217 135 -15 -27 -47 -79 -72 -117 l-44 -69 -34 39
c-38 45 -42 73 -14 99 11 10 20 23 20 30 0 7 29 39 64 72 35 32 66 68 70 79 7
23 -5 41 -111 173 -46 56 -83 104 -83 107 0 3 9 23 20 44 20 40 53 54 63 27z
m552 -213 c59 -76 66 -89 56 -108 -18 -33 -117 -171 -122 -170 -2 1 -39 38
-83 82 l-78 81 73 100 c41 56 77 101 80 101 3 0 36 -39 74 -86z m-572 -43 c26
-32 47 -67 47 -78 -1 -10 -34 -54 -75 -98 -64 -68 -77 -77 -85 -63 -5 9 -29
40 -53 70 -67 82 -69 88 -43 123 13 16 35 55 50 85 15 30 35 61 44 68 19 14
16 17 115 -107z m251 -328 c19 -32 48 -71 65 -87 17 -17 31 -34 31 -38 0 -16
-125 -187 -136 -187 -7 -1 -31 25 -54 57 -24 31 -54 69 -68 84 l-25 27 63 100
c34 56 68 101 75 101 8 0 29 -26 49 -57z"/>
</g>
</svg>
