<?xml version="1.0" standalone="no"?>
<!DOCTYPE svg PUBLIC "-//W3C//DTD SVG 20010904//EN"
 "http://www.w3.org/TR/2001/REC-SVG-20010904/DTD/svg10.dtd">
<svg version="1.0" xmlns="http://www.w3.org/2000/svg"
 width="456.000000pt" height="590.000000pt" viewBox="0 0 456.000000 590.000000"
 preserveAspectRatio="xMidYMid meet">
<metadata>
Created by potrace 1.16, written by Peter Selinger 2001-2019
</metadata>
<g transform="translate(0.000000,590.000000) scale(0.500000,-0.500000)"
fill="#000000" stroke="none">
<path d="M424 1138 c-9 -2 -20 -14 -31 -32 -6 -8 -13 -19 -16 -23 -8 -9 -23
-30 -45 -63 -8 -12 -16 -23 -18 -25 -6 -6 -17 -22 -41 -57 -24 -36 -46 -67
-59 -83 -4 -7 -14 -21 -22 -31 -7 -11 -16 -23 -20 -27 -3 -5 -11 -17 -18 -26
-23 -34 -40 -58 -45 -63 -2 -3 -8 -10 -12 -17 -4 -7 -14 -20 -21 -30 -7 -10
-16 -22 -19 -26 -3 -4 -8 -12 -11 -16 -11 -14 -9 -41 4 -56 6 -7 13 -15 15
-19 3 -4 8 -11 11 -14 3 -4 8 -13 11 -21 5 -11 7 -15 15 -20 6 -4 13 -12 17
-18 7 -11 20 -27 38 -47 12 -12 23 -26 36 -46 4 -5 10 -12 14 -16 3 -4 12 -16
19 -26 7 -10 17 -23 22 -29 11 -12 29 -34 33 -44 2 -3 7 -9 10 -14 4 -4 7 -10
8 -14 1 -7 9 -15 14 -15 2 0 6 -4 10 -9 5 -5 12 -14 18 -21 5 -6 12 -16 15
-22 4 -6 11 -15 15 -20 5 -6 11 -14 13 -19 3 -4 9 -13 14 -18 5 -6 12 -15 16
-20 3 -6 8 -12 11 -15 4 -3 7 -9 8 -15 8 -27 45 -16 68 20 9 12 19 26 23 30 4
4 9 12 11 16 2 4 8 13 13 19 12 14 20 26 27 39 2 6 9 16 15 22 6 7 15 18 20
24 4 7 12 16 16 22 4 5 11 16 15 24 5 7 10 15 13 17 2 1 7 7 9 13 3 5 11 15
17 22 7 7 14 18 18 25 3 7 11 20 17 29 7 9 15 21 19 26 4 5 10 13 13 17 4 4
11 14 16 22 5 8 12 17 15 21 3 3 11 14 18 24 27 39 39 57 46 65 25 30 27 61 4
85 -3 3 -8 10 -11 14 -3 4 -10 13 -16 20 -5 7 -15 19 -21 27 -6 8 -16 20 -21
27 -6 6 -14 17 -19 23 -16 21 -29 38 -36 45 -4 5 -11 15 -16 23 -5 8 -15 21
-22 28 -8 7 -14 14 -14 15 0 2 -5 9 -12 16 -7 7 -12 14 -12 15 0 1 -5 7 -11
13 -6 7 -12 15 -14 18 -5 8 -30 40 -46 60 -7 9 -16 20 -20 25 -3 5 -10 13 -14
18 -5 5 -11 13 -15 18 -6 9 -15 20 -33 44 -4 6 -12 15 -17 21 -5 5 -11 13 -14
16 -6 10 -21 13 -38 9z m36 -97 c2 -3 5 -9 6 -16 2 -14 2 -13 16 -23 14 -11
36 -33 44 -46 4 -5 12 -15 19 -22 23 -24 25 -33 12 -41 -4 -3 -10 -9 -13 -13
-3 -4 -8 -11 -12 -16 -4 -5 -12 -16 -17 -24 -5 -8 -12 -18 -16 -22 -3 -4 -9
-13 -15 -21 -33 -50 -35 -51 -64 -12 -8 10 -19 25 -26 33 -7 8 -15 19 -18 24
-4 5 -11 13 -16 19 -5 5 -11 12 -13 16 -2 4 -7 10 -10 14 -13 16 -8 35 16 60
7 7 13 16 14 19 1 6 19 29 31 37 5 5 9 10 11 16 8 21 11 23 32 22 12 0 16 -1
19 -4z m153 -193 c5 -5 13 -14 18 -21 5 -6 11 -14 13 -16 14 -13 14 -22 0 -35
-7 -5 -12 -13 -16 -21 -3 -8 -8 -14 -13 -18 -4 -3 -9 -10 -13 -18 -3 -8 -11
-18 -20 -28 -8 -8 -16 -19 -18 -23 -2 -5 -7 -12 -11 -16 -3 -4 -9 -11 -12 -16
-2 -5 -6 -11 -8 -12 -24 -20 -16 -63 18 -98 13 -13 23 -25 23 -26 0 -1 5 -5
11 -10 9 -7 11 -9 16 -23 4 -12 7 -16 12 -19 11 -6 17 -13 21 -22 2 -5 8 -13
13 -18 6 -7 9 -11 8 -13 -3 -7 -10 -18 -21 -33 -6 -8 -14 -19 -18 -23 -7 -11
-12 -13 -15 -8 -1 2 -7 9 -13 16 -10 12 -17 20 -31 40 -4 5 -9 12 -13 16 -6 6
-16 20 -27 36 -3 4 -9 12 -13 16 -4 5 -12 15 -18 23 -22 30 -72 26 -72 -6 0
-1 -5 -10 -12 -20 -6 -9 -14 -21 -17 -27 -3 -5 -11 -19 -18 -29 -7 -11 -13
-20 -13 -21 0 -2 -32 -50 -36 -52 -7 -6 -16 3 -47 44 -16 21 -12 42 11 62 2 2
7 9 9 15 4 9 14 20 55 61 54 55 53 53 52 76 -1 12 -9 26 -25 43 -6 6 -13 15
-17 20 -17 23 -25 34 -33 42 -5 5 -11 13 -14 17 -3 4 -10 15 -17 23 -47 59
-48 60 -38 83 11 28 25 45 37 45 7 0 27 -21 35 -37 1 -3 6 -10 11 -15 15 -15
34 -38 41 -48 3 -5 9 -12 13 -16 4 -4 10 -12 14 -18 24 -35 28 -38 46 -38 18
0 25 5 34 23 3 5 11 17 17 26 6 8 17 24 24 34 20 28 34 48 44 61 5 7 11 15 12
18 4 5 15 12 20 12 1 0 6 -4 11 -8z m83 -110 c2 -1 9 -9 15 -17 6 -7 14 -18
19 -22 5 -4 11 -12 15 -18 15 -22 30 -42 47 -62 12 -16 6 -33 -24 -65 -4 -4
-10 -13 -14 -20 -4 -7 -11 -18 -17 -26 -5 -7 -13 -19 -18 -27 -21 -31 -15 -34
-84 37 -68 68 -69 71 -45 93 2 2 6 7 8 11 3 4 8 12 13 17 4 6 12 16 17 22 4 7
12 17 17 23 11 15 22 29 29 40 9 13 16 17 22 14z m-464 -20 c7 -7 16 -19 20
-27 5 -8 15 -20 22 -28 7 -8 17 -19 21 -25 14 -20 22 -30 29 -38 5 -7 6 -10 6
-18 0 -19 -1 -19 -54 -74 -10 -11 -28 -29 -40 -41 -23 -25 -24 -25 -37 -7 -3
4 -10 13 -16 20 -5 6 -13 16 -17 22 -18 25 -25 33 -31 40 -7 8 -20 25 -22 31
-2 5 11 29 20 37 4 4 9 10 10 14 2 4 5 9 7 12 2 3 5 10 7 15 2 6 6 15 10 21 3
7 9 16 12 22 22 38 34 44 53 24z m231 -296 c3 -2 7 -6 8 -8 2 -3 7 -10 11 -15
4 -6 9 -14 11 -19 2 -5 6 -12 9 -16 3 -4 7 -10 9 -13 1 -3 13 -17 26 -30 39
-40 39 -42 8 -81 -4 -5 -13 -17 -19 -26 -7 -9 -17 -23 -23 -31 -5 -8 -12 -17
-13 -20 -8 -12 -24 -30 -27 -31 -6 0 -20 16 -63 73 -5 7 -12 16 -16 20 -4 4
-11 13 -14 18 -4 6 -10 12 -13 15 -9 8 -6 15 21 58 12 19 23 37 44 72 4 7 9
14 12 17 2 2 5 7 7 10 5 11 12 13 22 7z"/>
</g>
</svg>
