<?xml version="1.0" standalone="no"?>
<!DOCTYPE svg PUBLIC "-//W3C//DTD SVG 20010904//EN"
 "http://www.w3.org/TR/2001/REC-SVG-20010904/DTD/svg10.dtd">
<svg version="1.0" xmlns="http://www.w3.org/2000/svg"
 width="72.000000pt" height="100.000000pt" viewBox="0 0 72.000000 100.000000"
 preserveAspectRatio="xMidYMid meet">
<metadata>
Created by potrace 1.16, written by Peter Selinger 2001-2019
</metadata>
<g transform="translate(0.000000,100.000000) scale(0.100000,-0.100000)"
fill="#000000" stroke="none">
<path d="M42 948 c-17 -17 -16 -142 1 -157 10 -8 18 -7 31 2 23 17 20 160 -4
165 -9 1 -21 -3 -28 -10z"/>
<path d="M308 943 c-8 -10 -48 -74 -88 -143 -41 -69 -96 -159 -122 -200 -26
-41 -48 -84 -48 -96 0 -33 282 -458 307 -462 17 -3 35 20 99 125 43 70 109
175 146 232 37 58 68 110 68 117 0 6 -31 54 -68 105 -38 52 -92 130 -122 174
-107 161 -138 188 -172 148z m86 -118 c33 -47 37 -59 29 -78 -13 -27 -62 -87
-72 -87 -10 0 -81 97 -81 111 0 25 67 122 79 115 4 -3 24 -30 45 -61z m-104
-170 c27 -41 49 -65 58 -63 8 2 36 30 61 62 54 69 68 77 77 42 5 -19 -5 -38
-45 -92 -28 -37 -51 -76 -51 -86 0 -10 23 -52 50 -93 50 -74 55 -89 44 -119
-11 -30 -32 -16 -73 49 -22 36 -44 65 -49 65 -12 0 -44 -37 -77 -87 -29 -45
-49 -54 -59 -27 -12 31 -5 51 39 114 25 35 45 71 45 80 0 9 -22 48 -50 87 -27
39 -50 80 -50 90 0 19 17 43 31 43 4 0 26 -29 49 -65z m270 -67 c46 -63 47
-79 9 -142 -19 -31 -39 -56 -45 -56 -16 0 -87 127 -81 143 10 25 67 97 77 97
5 0 24 -19 40 -42z m-337 -26 c19 -35 27 -60 23 -75 -8 -32 -49 -92 -64 -92
-6 0 -25 22 -42 49 -29 45 -30 51 -19 80 22 53 51 97 62 93 6 -2 23 -27 40
-55z m173 -268 l38 -57 -30 -54 c-34 -63 -40 -69 -59 -53 -17 14 -65 98 -65
112 0 10 68 108 75 108 2 0 21 -25 41 -56z"/>
<path d="M624 947 c-3 -8 -4 -43 -2 -78 3 -62 4 -64 31 -67 l28 -3 -3 78 c-3
72 -5 78 -26 81 -12 2 -24 -3 -28 -11z"/>
<path d="M34 197 c-3 -8 -4 -45 -2 -83 3 -58 6 -69 22 -72 10 -2 22 2 27 10
10 15 12 102 3 136 -7 24 -41 31 -50 9z"/>
<path d="M620 131 c0 -80 0 -81 25 -81 30 0 37 23 33 101 -3 51 -5 54 -30 57
l-28 3 0 -80z"/>
</g>
</svg>
