<?xml version="1.0" standalone="no"?>
<!DOCTYPE svg PUBLIC "-//W3C//DTD SVG 20010904//EN"
 "http://www.w3.org/TR/2001/REC-SVG-20010904/DTD/svg10.dtd">
<svg version="1.0" xmlns="http://www.w3.org/2000/svg"
 width="426.000000pt" height="590.000000pt" viewBox="0 0 426.000000 590.000000"
 preserveAspectRatio="xMidYMid meet">
<metadata>
Created by potrace 1.16, written by Peter Selinger 2001-2019
</metadata>
<g transform="translate(0.000000,590.000000) scale(0.500000,-0.500000)"
fill="#000000" stroke="none">
<path d="M388 1137 c-4 -1 -18 -20 -28 -38 -9 -17 -23 -40 -33 -55 -5 -7 -12
-20 -17 -28 -5 -9 -14 -20 -22 -28 -12 -12 -14 -14 -14 -21 0 -10 -4 -18 -15
-31 -5 -6 -10 -14 -10 -17 -1 -4 -6 -14 -11 -22 -5 -8 -18 -28 -28 -46 -10
-18 -25 -42 -33 -54 -8 -13 -18 -29 -23 -37 -4 -8 -13 -23 -19 -32 -6 -9 -15
-23 -19 -31 -5 -8 -18 -29 -30 -48 -25 -40 -29 -61 -14 -83 17 -25 22 -35 27
-45 3 -7 9 -16 14 -21 5 -6 12 -16 17 -23 4 -6 12 -19 18 -27 6 -8 18 -27 27
-41 9 -14 20 -30 23 -35 5 -7 27 -40 48 -73 15 -23 33 -53 36 -58 1 -3 6 -10
10 -16 5 -5 21 -30 37 -54 15 -25 31 -49 34 -54 3 -5 12 -18 19 -29 7 -10 14
-22 16 -26 6 -12 13 -16 25 -16 20 0 21 2 60 66 9 16 21 35 26 42 22 36 31 50
52 83 25 40 31 50 46 73 6 8 15 23 20 32 5 9 13 22 17 27 8 11 24 36 47 73 7
13 16 27 19 31 9 12 36 54 44 68 4 7 11 19 17 27 20 30 21 53 1 79 -5 7 -15
21 -23 31 -7 10 -16 23 -19 27 -5 7 -36 51 -67 94 -18 26 -30 43 -34 50 -3 4
-8 12 -12 17 -5 5 -15 20 -24 33 -9 13 -26 37 -36 52 -11 15 -22 33 -26 38 -8
11 -14 20 -26 37 -5 6 -11 15 -14 20 -3 5 -9 13 -12 17 -6 7 -20 27 -30 43
-18 27 -23 30 -43 30 -8 0 -17 -1 -18 -1z m32 -84 c3 -4 8 -12 11 -18 2 -5 11
-18 20 -28 8 -9 15 -18 15 -19 0 -1 22 -32 33 -45 26 -33 25 -46 -3 -81 -4 -5
-15 -21 -25 -35 -15 -23 -29 -41 -44 -57 -10 -11 -24 -2 -35 20 -2 5 -7 11
-10 14 -3 4 -9 12 -13 18 -4 6 -10 16 -14 22 -4 6 -11 15 -15 20 -4 5 -9 12
-10 15 -2 3 -7 10 -11 15 -13 14 -12 19 11 54 6 9 15 24 20 32 43 76 56 89 70
73z m-126 -194 c5 -4 13 -17 15 -24 1 -3 6 -10 10 -15 5 -6 12 -14 15 -19 2
-4 9 -13 15 -19 5 -6 13 -19 18 -28 4 -9 11 -21 14 -25 4 -4 7 -9 7 -10 0 -27
39 -17 64 17 5 7 15 20 21 29 7 9 13 18 15 20 1 3 7 12 14 21 7 9 15 19 17 22
27 41 29 42 53 10 23 -30 24 -34 11 -48 -5 -5 -10 -12 -11 -15 -2 -3 -7 -12
-13 -20 -20 -28 -28 -38 -52 -73 -3 -4 -8 -12 -12 -18 -4 -6 -10 -14 -13 -17
-17 -18 -21 -36 -12 -51 2 -4 7 -13 11 -21 4 -8 11 -19 17 -25 5 -6 13 -19 18
-27 6 -9 13 -21 18 -27 4 -6 10 -16 12 -22 3 -7 7 -14 13 -19 5 -5 10 -12 12
-16 1 -3 7 -12 12 -19 16 -21 15 -25 -4 -54 -5 -7 -11 -18 -15 -25 -11 -18
-23 -16 -36 6 -4 7 -9 15 -12 19 -3 4 -12 17 -19 30 -13 21 -21 34 -45 72 -22
35 -28 35 -51 1 -12 -18 -25 -33 -32 -36 -2 -1 -4 -6 -6 -10 -4 -11 -14 -27
-48 -75 -19 -27 -20 -27 -46 13 -23 34 -24 53 -4 71 3 3 9 12 12 20 7 14 23
39 42 62 5 6 15 19 21 29 7 10 15 22 18 27 13 17 6 47 -14 66 -7 7 -12 13 -13
17 -1 7 -2 9 -26 40 -8 10 -17 23 -21 29 -4 6 -11 16 -15 23 -28 38 -30 52
-12 85 19 33 25 37 37 29z m333 -104 c2 -2 9 -11 15 -20 6 -9 15 -20 19 -25 5
-6 10 -12 11 -15 2 -4 6 -11 10 -16 4 -6 11 -17 15 -24 4 -8 9 -16 11 -18 19
-16 21 -31 7 -48 -3 -3 -5 -7 -5 -9 0 -6 -16 -34 -36 -63 -11 -15 -21 -32 -24
-37 -5 -9 -19 -30 -23 -32 -7 -5 -13 -2 -20 10 -5 7 -11 16 -14 21 -4 5 -12
17 -18 27 -6 11 -14 24 -18 30 -3 6 -8 14 -9 19 -1 4 -5 9 -7 10 -3 2 -8 8
-12 14 -4 5 -10 13 -14 17 -14 12 -10 29 10 50 7 7 14 16 16 20 7 13 20 31 35
48 8 9 18 22 22 28 11 18 20 22 29 13z m-403 -17 c7 -5 26 -32 39 -55 6 -11
14 -23 18 -28 3 -4 8 -11 10 -15 2 -4 7 -12 11 -18 13 -20 11 -50 -5 -63 -9
-7 -23 -31 -23 -38 0 -2 -3 -7 -7 -12 -11 -14 -24 -33 -28 -40 -14 -28 -22
-28 -41 2 -8 13 -26 40 -40 61 -40 60 -39 57 -19 90 8 11 16 26 18 33 7 18 17
38 27 53 4 6 10 15 13 20 8 15 17 18 27 10z m218 -328 c7 -10 13 -23 15 -30 4
-12 10 -23 17 -29 2 -2 6 -7 8 -11 3 -4 7 -10 11 -14 33 -36 33 -44 5 -88 -7
-12 -44 -68 -64 -98 -8 -14 -14 -10 -41 31 -8 13 -27 42 -42 65 -16 23 -27 42
-27 45 0 7 15 35 24 46 4 4 11 13 15 20 4 7 12 18 17 26 6 8 15 21 20 28 24
35 24 35 42 9z"/>
<path d="M749 1132 c-9 -4 -9 -9 -9 -92 1 -97 -1 -90 32 -90 33 0 30 -9 30 90
0 82 0 88 -7 92 -3 3 -41 2 -46 0z"/>
<path d="M68 1122 c-27 -2 -25 7 -25 -90 0 -100 -3 -91 32 -91 35 0 32 -8 33
90 0 100 3 94 -40 91z"/>
<path d="M739 241 c-9 -8 -8 -168 0 -174 7 -5 48 -4 54 2 8 7 8 165 0 173 -8
6 -47 6 -54 -1z"/>
<path d="M47 238 c-14 -7 -13 -175 0 -180 20 -8 53 0 53 12 1 20 -1 160 -2
162 -4 7 -40 11 -51 6z"/>
</g>
</svg>
