<?xml version="1.0" standalone="no"?>
<!DOCTYPE svg PUBLIC "-//W3C//DTD SVG 20010904//EN"
 "http://www.w3.org/TR/2001/REC-SVG-20010904/DTD/svg10.dtd">
<svg version="1.0" xmlns="http://www.w3.org/2000/svg"
 width="106.000000pt" height="148.000000pt" viewBox="0 0 106.000000 148.000000"
 preserveAspectRatio="xMidYMid meet">
<metadata>
Created by potrace 1.16, written by Peter Selinger 2001-2019
</metadata>
<g transform="translate(0.000000,148.000000) scale(0.100000,-0.100000)"
fill="#000000" stroke="none">
<path d="M425 1338 c-26 -45 -56 -89 -66 -99 -9 -9 -20 -27 -24 -40 -7 -23
-63 -117 -187 -319 -35 -58 -67 -115 -70 -126 -6 -24 7 -49 123 -224 42 -63
124 -189 182 -280 58 -91 112 -173 121 -182 20 -23 43 -13 63 26 9 17 35 60
58 96 23 36 100 157 170 270 70 113 141 224 157 247 27 40 28 44 14 75 -7 18
-31 56 -52 85 -22 29 -59 82 -84 118 -25 36 -61 87 -80 114 -19 27 -77 110
-129 185 -119 172 -125 174 -196 54z m95 -17 c0 -5 27 -45 60 -89 33 -45 60
-90 60 -101 0 -22 -74 -134 -110 -166 -19 -17 -23 -18 -30 -4 -5 9 -34 50 -65
93 -30 42 -55 80 -55 83 0 19 114 193 126 193 8 0 14 -4 14 -9z m-123 -297
c21 -31 42 -63 48 -72 5 -9 20 -32 33 -49 22 -31 24 -32 46 -18 21 14 46 46
124 161 12 19 26 34 31 34 5 0 21 -16 36 -35 l26 -35 -48 -66 c-26 -36 -52
-74 -58 -83 -5 -9 -23 -33 -39 -54 l-29 -38 19 -34 c39 -68 98 -161 128 -199
l30 -39 -26 -46 c-15 -25 -32 -46 -39 -46 -7 0 -39 43 -71 95 -32 52 -63 102
-68 110 -8 13 -13 11 -32 -11 -29 -32 -48 -59 -98 -136 -22 -35 -42 -63 -44
-63 -12 0 -56 77 -56 97 0 19 83 152 127 204 27 32 23 42 -89 202 -27 37 -48
77 -48 90 0 25 35 87 49 87 6 0 27 -25 48 -56z m441 -165 c34 -50 62 -95 62
-99 0 -28 -119 -212 -134 -207 -6 2 -31 38 -57 80 -25 42 -53 85 -62 95 -10
10 -17 26 -17 35 0 16 57 104 87 135 7 8 18 22 23 33 6 10 16 19 23 19 8 0 41
-41 75 -91z m-509 -14 c48 -78 67 -145 42 -145 -6 0 -27 -31 -48 -70 -21 -38
-43 -72 -50 -74 -11 -4 -123 161 -123 182 0 9 25 58 77 150 13 23 30 42 38 42
7 0 36 -38 64 -85z m237 -370 c3 -11 24 -43 46 -72 24 -32 37 -57 32 -65 -46
-81 -118 -187 -125 -182 -5 3 -21 26 -36 52 -15 26 -40 66 -56 90 -16 24 -27
51 -24 60 2 9 30 55 62 101 l58 83 18 -23 c10 -13 22 -33 25 -44z"/>
<path d="M927 1413 c-3 -5 -7 -55 -8 -113 l-3 -105 39 0 40 0 0 110 0 110 -32
3 c-17 2 -33 -1 -36 -5z"/>
<path d="M52 1288 l3 -113 35 0 35 0 3 113 3 112 -41 0 -41 0 3 -112z"/>
<path d="M57 294 c-4 -4 -7 -56 -7 -116 l0 -108 35 0 36 0 -3 113 c-3 112 -3
112 -28 115 -14 2 -29 0 -33 -4z"/>
<path d="M910 190 c0 -120 4 -129 55 -116 l26 7 -3 107 -3 107 -37 3 -38 3 0
-111z"/>
</g>
</svg>
