<?xml version="1.0" standalone="no"?>
<!DOCTYPE svg PUBLIC "-//W3C//DTD SVG 20010904//EN"
 "http://www.w3.org/TR/2001/REC-SVG-20010904/DTD/svg10.dtd">
<svg version="1.0" xmlns="http://www.w3.org/2000/svg"
 width="422.000000pt" height="590.000000pt" viewBox="0 0 422.000000 590.000000"
 preserveAspectRatio="xMidYMid meet">
<metadata>
Created by potrace 1.16, written by Peter Selinger 2001-2019
</metadata>
<g transform="translate(0.000000,590.000000) scale(0.500000,-0.500000)"
fill="#000000" stroke="none">
<path d="M382 1135 c-6 -3 -17 -17 -32 -41 -6 -10 -15 -26 -21 -34 -5 -8 -16
-24 -23 -35 -18 -28 -50 -78 -61 -93 -5 -7 -12 -17 -15 -22 -3 -5 -8 -12 -11
-16 -3 -4 -7 -11 -9 -15 -3 -4 -9 -13 -15 -19 -5 -6 -14 -19 -19 -28 -5 -9
-11 -20 -14 -24 -3 -5 -6 -11 -7 -15 -2 -10 -5 -16 -15 -28 -4 -5 -12 -17 -17
-26 -10 -19 -17 -30 -31 -46 -5 -6 -11 -15 -13 -21 -4 -10 -18 -32 -29 -45
-12 -14 -14 -48 -4 -61 10 -13 32 -43 44 -59 6 -10 16 -24 21 -31 5 -7 11 -17
13 -21 2 -5 7 -12 12 -17 4 -4 11 -13 16 -21 4 -8 10 -16 13 -19 3 -3 8 -11
12 -18 4 -7 13 -21 21 -30 8 -10 15 -20 16 -22 1 -2 6 -8 10 -13 5 -5 11 -16
15 -24 4 -8 8 -15 9 -16 2 -1 6 -6 9 -11 4 -5 8 -10 10 -12 2 -2 6 -8 9 -14 3
-6 9 -14 13 -18 6 -6 36 -46 57 -77 4 -5 8 -14 9 -20 2 -8 6 -13 17 -24 7 -8
15 -17 16 -20 10 -25 50 -39 59 -20 2 3 7 10 11 15 4 5 9 13 11 17 2 4 6 11 9
14 3 3 7 10 9 14 4 9 29 47 38 57 4 5 10 14 14 22 4 8 14 24 23 37 8 13 21 33
28 44 8 11 24 36 37 56 60 92 70 107 83 127 8 12 19 29 26 39 33 49 55 85 56
92 2 11 0 27 -4 33 -2 3 -6 10 -9 15 -3 6 -10 17 -17 26 -7 9 -18 25 -25 35
-7 10 -21 30 -31 44 -33 45 -37 51 -42 59 -2 4 -6 10 -8 12 -2 2 -8 9 -12 15
-4 6 -12 16 -16 22 -4 6 -15 21 -24 34 -15 22 -20 28 -43 59 -5 7 -16 22 -24
34 -8 12 -20 28 -25 35 -9 12 -48 67 -67 93 -18 26 -43 37 -63 26z m26 -76
c10 -8 18 -19 18 -29 0 -6 -21 -50 -40 -83 -21 -35 -17 -63 9 -63 17 0 23 5
34 28 33 74 36 77 57 47 4 -6 14 -21 23 -34 9 -12 19 -27 21 -33 2 -6 6 -13 9
-16 14 -15 14 -15 -27 -77 -6 -10 -16 -24 -21 -32 -81 -129 -72 -122 -102 -78
-10 14 -24 35 -32 47 -8 12 -22 30 -30 42 -36 52 -47 68 -55 75 -12 11 -10 18
8 35 7 6 18 22 51 75 58 94 66 103 77 96z m195 -253 c4 -4 7 -9 7 -11 0 -6 19
-37 42 -69 82 -111 84 -116 68 -134 -3 -4 -7 -10 -8 -14 -3 -9 -16 -32 -21
-39 -3 -3 -5 -6 -5 -8 0 -1 -4 -5 -8 -10 -5 -5 -10 -14 -15 -25 -4 -9 -10 -19
-13 -23 -3 -4 -7 -11 -10 -16 -2 -5 -6 -10 -8 -11 -2 -1 -7 -8 -11 -15 -19
-35 -25 -35 -47 -3 -14 21 -40 57 -59 84 -9 12 -22 31 -29 41 -7 10 -16 22
-19 26 -21 26 -22 22 22 89 11 17 29 45 40 62 35 53 54 81 56 82 5 4 11 2 18
-6z m-362 0 c3 -1 16 -20 45 -61 8 -11 22 -31 32 -45 10 -14 24 -34 32 -45 8
-11 18 -26 23 -33 14 -20 19 -9 -49 -112 -12 -19 -27 -42 -33 -51 -41 -64 -43
-67 -48 -67 -5 0 -36 40 -82 108 -13 19 -33 47 -50 69 -17 23 -17 25 8 62 6
10 20 31 30 47 34 54 46 71 53 79 4 5 12 17 17 27 13 25 15 27 22 22z m185
-259 c3 -4 12 -15 20 -27 7 -12 21 -31 30 -44 9 -13 22 -32 30 -43 8 -11 22
-31 31 -44 9 -13 19 -27 22 -31 9 -13 5 -23 -17 -48 -4 -6 -9 -14 -11 -19 -2
-6 -9 -18 -15 -27 -7 -9 -18 -27 -26 -39 -8 -12 -19 -30 -26 -40 -7 -10 -17
-25 -22 -34 -17 -25 -20 -24 -44 12 -12 19 -12 18 -2 31 5 6 11 16 15 22 4 5
14 17 22 26 25 27 27 43 8 63 -22 23 -39 18 -50 -15 -4 -13 -24 -45 -33 -53
-6 -6 -13 1 -34 31 -4 6 -12 17 -19 24 -11 13 -27 40 -27 47 0 2 18 31 40 65
5 8 14 22 20 31 6 9 20 31 32 50 12 19 25 39 29 46 14 23 18 25 27 16z"/>
<path d="M608 703 c-8 -5 -10 -13 -10 -29 0 -7 -1 -17 -3 -21 -6 -17 -7 -24
-4 -41 2 -10 3 -22 3 -29 0 -35 37 -45 46 -12 6 23 8 99 4 118 -4 17 -24 25
-36 14z"/>
<path d="M177 655 c-10 -8 -11 -13 -10 -48 3 -84 5 -92 24 -94 21 -3 28 11 26
53 -1 16 -1 32 -1 36 2 38 -6 55 -24 57 -8 1 -10 1 -15 -4z"/>
</g>
</svg>
