<?xml version="1.0" standalone="no"?>
<!DOCTYPE svg PUBLIC "-//W3C//DTD SVG 20010904//EN"
 "http://www.w3.org/TR/2001/REC-SVG-20010904/DTD/svg10.dtd">
<svg version="1.0" xmlns="http://www.w3.org/2000/svg"
 width="72.000000pt" height="100.000000pt" viewBox="0 0 72.000000 100.000000"
 preserveAspectRatio="xMidYMid meet">
<metadata>
Created by potrace 1.16, written by Peter Selinger 2001-2019
</metadata>
<g transform="translate(0.000000,100.000000) scale(0.100000,-0.100000)"
fill="#000000" stroke="none">
<path d="M181 752 c-74 -114 -139 -219 -145 -234 -9 -25 -4 -36 51 -115 34
-49 106 -150 158 -226 64 -90 103 -137 115 -137 12 0 64 71 170 232 140 213
151 233 140 257 -12 26 -219 316 -277 389 -58 71 -61 69 -212 -166z m175 123
c3 -8 -3 -31 -15 -50 -12 -20 -21 -47 -21 -61 0 -38 31 -26 53 20 l18 38 24
-22 c13 -12 29 -34 35 -49 10 -25 7 -35 -37 -104 -26 -42 -54 -77 -60 -77 -7
0 -20 12 -30 28 -10 15 -35 50 -56 79 -24 33 -36 57 -31 65 48 80 96 148 104
148 6 0 13 -7 16 -15z m203 -270 c28 -42 51 -83 51 -91 0 -23 -90 -164 -104
-164 -10 1 -116 149 -116 163 0 11 103 167 110 167 4 0 31 -34 59 -75z m-294
-16 l57 -80 -56 -85 c-66 -98 -61 -98 -133 3 -26 37 -43 71 -41 81 7 26 98
162 108 162 5 0 34 -36 65 -81z m154 -214 c28 -42 51 -81 51 -88 0 -17 -98
-167 -109 -167 -5 0 -14 7 -21 15 -10 12 -9 20 6 41 33 47 42 67 37 80 -9 24
-42 15 -58 -16 -9 -16 -19 -30 -24 -30 -11 0 -61 58 -61 70 0 18 111 181 119
176 5 -3 32 -40 60 -81z"/>
<path d="M507 584 c-11 -11 -8 -112 3 -119 6 -4 18 -1 26 6 21 17 16 113 -6
117 -9 1 -19 0 -23 -4z"/>
<path d="M147 544 c-10 -10 -8 -76 2 -93 5 -8 16 -11 26 -8 22 9 18 100 -5
105 -9 1 -19 0 -23 -4z"/>
</g>
</svg>
