<?xml version="1.0" standalone="no"?>
<!DOCTYPE svg PUBLIC "-//W3C//DTD SVG 20010904//EN"
 "http://www.w3.org/TR/2001/REC-SVG-20010904/DTD/svg10.dtd">
<svg version="1.0" xmlns="http://www.w3.org/2000/svg"
 width="106.000000pt" height="148.000000pt" viewBox="0 0 106.000000 148.000000"
 preserveAspectRatio="xMidYMid meet">
<metadata>
Created by potrace 1.16, written by Peter Selinger 2001-2019
</metadata>
<g transform="translate(0.000000,148.000000) scale(0.100000,-0.100000)"
fill="#000000" stroke="none">
<path d="M454 1393 c-43 -70 -200 -309 -212 -322 -7 -7 -22 -32 -34 -55 -11
-22 -43 -74 -69 -115 -27 -41 -49 -77 -49 -80 0 -3 -9 -17 -20 -31 -20 -25
-27 -86 -11 -92 4 -1 30 -35 57 -74 74 -107 171 -245 245 -348 37 -50 73 -104
82 -121 21 -41 73 -95 90 -95 8 0 64 75 123 167 60 91 160 243 221 337 62 94
113 180 113 192 0 11 -55 98 -122 191 -68 94 -159 221 -203 282 -44 62 -93
130 -108 151 -36 50 -77 55 -103 13z m74 -84 c11 -18 8 -28 -23 -85 -40 -72
-44 -119 -10 -119 15 0 28 16 49 63 16 34 33 62 38 62 10 0 110 -150 106 -159
-11 -25 -163 -251 -169 -251 -4 0 -38 43 -74 96 -37 53 -81 111 -97 130 l-30
34 27 32 c15 18 54 75 86 126 32 50 64 92 71 92 7 0 19 -9 26 -21z m238 -321
c9 -18 46 -73 81 -122 34 -48 63 -94 63 -102 0 -14 -31 -73 -61 -116 -11 -14
-19 -29 -19 -32 0 -7 -80 -126 -85 -126 -1 0 -15 19 -30 43 -15 23 -57 82 -93
131 -62 83 -65 90 -51 111 106 171 156 244 166 245 7 0 20 -15 29 -32z m-432
-23 c15 -25 55 -81 87 -125 33 -43 59 -82 59 -85 0 -3 -33 -56 -73 -118 -41
-61 -79 -122 -86 -134 -6 -13 -15 -23 -19 -23 -4 0 -27 30 -52 66 -25 36 -64
90 -87 121 -24 30 -43 63 -43 72 0 9 32 63 71 121 39 58 74 115 79 128 14 33
32 27 64 -23z m256 -362 c33 -49 74 -107 91 -131 l31 -43 -25 -37 c-13 -20
-52 -81 -87 -134 -34 -54 -66 -98 -70 -98 -11 0 -50 49 -50 63 0 5 20 34 44
63 47 57 51 85 15 105 -26 14 -32 8 -64 -58 l-28 -57 -39 45 c-22 24 -46 57
-54 73 -16 28 -15 30 33 100 27 39 66 99 87 134 21 34 42 62 46 62 5 0 37 -39
70 -87z"/>
<path d="M756 868 c-2 -7 -8 -29 -14 -48 -5 -19 -7 -55 -4 -80 6 -40 10 -45
32 -45 21 0 26 6 30 35 3 19 3 60 0 90 -4 42 -9 56 -23 58 -9 2 -19 -2 -21
-10z"/>
<path d="M214 808 c-9 -14 -7 -122 2 -150 8 -26 42 -22 49 5 4 13 4 48 1 77
-2 30 -5 61 -5 68 -1 16 -37 16 -47 0z"/>
</g>
</svg>
