<?xml version="1.0" standalone="no"?>
<!DOCTYPE svg PUBLIC "-//W3C//DTD SVG 20010904//EN"
 "http://www.w3.org/TR/2001/REC-SVG-20010904/DTD/svg10.dtd">
<svg version="1.0" xmlns="http://www.w3.org/2000/svg"
 width="77.000000pt" height="100.000000pt" viewBox="0 0 77.000000 100.000000"
 preserveAspectRatio="xMidYMid meet">
<metadata>
Created by potrace 1.16, written by Peter Selinger 2001-2019
</metadata>
<g transform="translate(0.000000,100.000000) scale(0.100000,-0.100000)"
fill="#000000" stroke="none">
<path d="M315 918 c-16 -24 -67 -95 -115 -158 -143 -191 -170 -233 -170 -267
0 -24 25 -64 114 -179 218 -283 232 -298 260 -275 9 8 53 66 98 130 45 64 114
162 155 219 40 57 73 112 73 123 0 11 -37 66 -82 123 -46 56 -123 152 -173
213 -104 129 -118 135 -160 71z m75 -49 c26 -48 -12 -98 -49 -65 -26 24 -26
27 0 60 25 31 35 33 49 5z m91 -111 c13 -18 44 -59 71 -91 26 -32 48 -64 48
-70 0 -7 -9 -23 -20 -37 -25 -32 -25 -65 0 -97 11 -14 20 -32 20 -40 0 -16
-137 -223 -148 -223 -4 0 -22 17 -39 37 l-33 38 -17 -21 c-10 -12 -23 -30 -29
-40 -6 -11 -17 -15 -26 -11 -23 8 -138 167 -138 189 0 10 9 32 20 50 26 44 25
53 -10 98 -16 21 -30 43 -30 48 0 12 118 179 132 188 5 4 25 -8 43 -26 39 -38
67 -35 90 11 20 38 38 37 66 -3z m-347 -234 c20 -19 21 -58 1 -74 -18 -15 -33
-6 -46 27 -19 50 11 82 45 47z"/>
<path d="M302 604 c-88 -53 -83 -158 11 -203 71 -35 121 -27 180 27 39 37 38
89 -4 137 -62 70 -116 81 -187 39z"/>
</g>
</svg>
