<?xml version="1.0" standalone="no"?>
<!DOCTYPE svg PUBLIC "-//W3C//DTD SVG 20010904//EN"
 "http://www.w3.org/TR/2001/REC-SVG-20010904/DTD/svg10.dtd">
<svg version="1.0" xmlns="http://www.w3.org/2000/svg"
 width="114.000000pt" height="148.000000pt" viewBox="0 0 114.000000 148.000000"
 preserveAspectRatio="xMidYMid meet">
<metadata>
Created by potrace 1.16, written by Peter Selinger 2001-2019
</metadata>
<g transform="translate(0.000000,148.000000) scale(0.100000,-0.100000)"
fill="#000000" stroke="none">
<path d="M533 1423 c-7 -2 -59 -68 -115 -145 -57 -77 -138 -188 -181 -247 -43
-58 -89 -122 -103 -141 -13 -19 -40 -57 -59 -85 -56 -80 -55 -85 102 -287 40
-51 107 -138 148 -193 42 -55 88 -113 103 -130 16 -16 48 -56 71 -87 68 -91
76 -88 205 97 42 61 84 121 93 134 26 35 97 136 154 221 28 41 68 95 88 120
60 72 60 71 -26 177 -43 53 -100 123 -126 157 -27 33 -58 72 -70 86 -45 52
-164 198 -215 263 -30 37 -54 67 -55 66 -1 0 -8 -3 -14 -6z m39 -125 c40 -53
40 -72 3 -115 l-33 -38 -36 34 c-20 19 -36 41 -36 49 0 16 60 102 71 102 3 0
18 -15 31 -32z m125 -154 c15 -20 67 -84 116 -142 48 -59 87 -109 87 -113 0
-3 -18 -34 -40 -68 -22 -34 -40 -67 -40 -74 0 -7 20 -37 45 -67 41 -50 43 -56
30 -75 -8 -11 -22 -33 -31 -50 -9 -16 -23 -34 -30 -38 -8 -4 -14 -14 -14 -22
0 -7 -17 -35 -39 -62 -21 -27 -41 -58 -45 -69 -4 -10 -20 -35 -36 -53 l-30
-35 -31 30 c-17 16 -38 41 -47 56 -9 16 -22 28 -28 28 -7 0 -30 -26 -51 -57
-21 -31 -44 -58 -49 -60 -6 -2 -62 63 -124 144 l-113 148 44 82 43 82 -22 28
c-58 72 -82 107 -82 118 0 7 25 45 55 84 30 40 76 103 102 141 25 39 49 70 52
70 4 0 29 -22 56 -50 56 -57 85 -63 112 -24 35 50 65 84 73 84 5 0 22 -16 37
-36z m286 -356 c17 -34 17 -39 3 -67 -24 -45 -35 -47 -72 -10 l-33 34 27 43
c32 50 50 50 75 0z m-743 -62 c0 -12 -50 -86 -58 -86 -12 0 -52 44 -52 57 0 7
-5 22 -12 32 -10 16 -7 25 16 56 l28 36 38 -43 c22 -24 39 -47 40 -52z m390
-509 c0 -15 -52 -77 -65 -77 -13 0 -65 55 -65 69 0 4 15 26 33 50 l32 42 32
-38 c18 -21 33 -42 33 -46z"/>
<path d="M495 914 c-87 -43 -118 -71 -135 -124 -24 -73 17 -146 112 -198 87
-49 159 -37 242 39 51 47 56 55 56 94 0 67 -74 152 -165 191 -43 18 -72 17
-110 -2z m39 -69 c11 -59 -4 -64 -59 -21 -20 16 -20 16 5 36 36 28 47 25 54
-15z m92 14 c41 -25 42 -32 9 -53 -42 -28 -55 -21 -55 29 0 25 3 45 6 45 4 0
22 -9 40 -21z m-156 -79 c21 -11 41 -24 45 -29 6 -11 -64 -51 -90 -51 -22 0
-37 44 -25 75 11 30 19 31 70 5z m244 -12 c20 -28 20 -57 2 -64 -15 -6 -96 31
-96 44 0 8 56 40 72 41 4 1 14 -9 22 -21z m-164 -114 c0 -30 -3 -53 -7 -51 -5
2 -25 12 -45 22 -21 9 -38 23 -38 31 0 12 62 52 83 54 4 0 7 -25 7 -56z m130
7 c0 -13 -49 -51 -65 -51 -13 0 -29 75 -20 91 7 10 85 -27 85 -40z"/>
</g>
</svg>
