<?xml version="1.0" standalone="no"?>
<!DOCTYPE svg PUBLIC "-//W3C//DTD SVG 20010904//EN"
 "http://www.w3.org/TR/2001/REC-SVG-20010904/DTD/svg10.dtd">
<svg version="1.0" xmlns="http://www.w3.org/2000/svg"
 width="452.000000pt" height="590.000000pt" viewBox="0 0 452.000000 590.000000"
 preserveAspectRatio="xMidYMid meet">
<metadata>
Created by potrace 1.16, written by Peter Selinger 2001-2019
</metadata>
<g transform="translate(0.000000,590.000000) scale(0.500000,-0.500000)"
fill="#000000" stroke="none">
<path d="M423 1139 c-5 -1 -17 -14 -28 -30 -12 -18 -33 -47 -48 -67 -9 -11
-18 -23 -20 -27 -8 -13 -36 -50 -42 -57 -2 -3 -10 -13 -16 -23 -7 -10 -15 -20
-18 -23 -3 -3 -10 -12 -16 -21 -6 -9 -13 -19 -17 -22 -3 -3 -7 -7 -8 -10 -2
-6 -17 -27 -32 -47 -5 -7 -14 -20 -19 -28 -10 -14 -24 -34 -39 -53 -4 -5 -10
-14 -14 -21 -4 -6 -10 -15 -13 -19 -7 -8 -10 -12 -36 -49 -32 -47 -33 -67 -6
-106 15 -21 22 -31 30 -40 4 -5 13 -17 20 -26 7 -9 16 -21 20 -26 9 -11 21
-27 33 -44 4 -6 12 -16 16 -21 5 -6 14 -18 20 -26 6 -9 15 -20 19 -25 5 -5 11
-12 13 -16 9 -13 22 -31 30 -39 4 -4 13 -16 19 -25 6 -9 15 -21 19 -25 9 -10
17 -22 26 -38 4 -8 9 -15 15 -19 5 -3 12 -10 15 -15 4 -4 10 -12 15 -17 4 -5
11 -13 14 -18 3 -5 8 -11 11 -15 2 -3 9 -11 14 -18 6 -7 13 -16 17 -21 13 -18
37 -26 52 -17 15 9 21 15 41 46 11 16 22 32 24 34 2 2 12 16 21 30 10 14 20
28 22 31 3 3 14 19 26 37 12 18 25 36 29 41 4 5 14 19 22 31 8 12 16 24 19 27
3 3 13 18 24 34 11 16 32 48 48 71 16 23 37 55 48 70 29 43 38 55 49 66 23 24
27 49 9 70 -6 7 -13 16 -16 20 -2 4 -7 10 -10 13 -3 3 -10 11 -15 19 -6 8 -11
15 -12 16 -1 1 -7 8 -13 16 -6 8 -12 16 -15 18 -2 2 -8 9 -12 15 -4 6 -10 13
-12 15 -3 2 -8 9 -12 15 -3 6 -12 16 -18 23 -11 13 -23 27 -37 46 -4 5 -10 13
-14 17 -3 4 -8 10 -11 14 -3 4 -11 13 -18 21 -8 8 -14 15 -14 17 0 1 -5 8 -12
15 -7 7 -12 14 -12 15 0 1 -7 9 -15 19 -15 16 -23 25 -39 46 -4 5 -11 14 -16
20 -6 6 -12 14 -14 18 -2 5 -6 10 -8 12 -6 5 -27 31 -42 51 -18 24 -26 28 -41
25z m15 -83 c2 -1 7 -6 10 -12 4 -5 11 -13 16 -18 19 -21 20 -46 3 -67 -5 -5
-9 -11 -9 -12 0 -5 -21 -23 -27 -23 -8 0 -34 26 -43 42 -3 7 -7 12 -8 13 -6 4
-1 15 20 43 4 5 11 15 16 23 10 13 14 15 22 11z m103 -126 c6 -6 14 -15 18
-21 4 -6 12 -16 17 -22 6 -7 10 -12 10 -13 0 -1 5 -7 11 -14 6 -6 15 -18 21
-26 5 -8 17 -22 26 -32 8 -9 17 -20 19 -23 2 -3 9 -11 15 -18 38 -40 40 -48
17 -84 -6 -10 -13 -23 -17 -29 -3 -6 -10 -17 -15 -25 -16 -24 -11 -38 25 -78
3 -3 7 -9 10 -13 2 -4 6 -9 9 -12 12 -12 14 -20 4 -32 -11 -13 -20 -28 -26
-45 -5 -13 -7 -16 -13 -19 -11 -6 -13 -10 -19 -25 -3 -8 -9 -19 -13 -24 -4 -6
-10 -14 -13 -19 -6 -10 -20 -28 -27 -34 -3 -2 -8 -10 -11 -18 -6 -16 -20 -37
-29 -43 -4 -3 -9 -9 -12 -15 -5 -11 -13 -16 -19 -12 -7 3 -44 43 -51 54 -21
32 -44 35 -53 6 -1 -3 -5 -9 -9 -15 -4 -5 -11 -15 -15 -21 -29 -38 -38 -41
-55 -16 -3 4 -8 11 -12 15 -4 5 -12 15 -18 24 -6 8 -15 20 -19 25 -11 14 -26
33 -33 44 -4 5 -15 19 -24 30 -10 12 -20 26 -23 32 -3 5 -8 12 -11 14 -19 14
-21 32 -6 56 3 6 8 15 10 21 2 5 7 15 11 21 37 62 37 62 -2 103 -55 58 -57 73
-12 130 7 9 17 23 24 32 16 22 23 32 31 42 3 4 12 17 20 28 8 11 18 25 22 31
4 6 13 18 18 26 16 22 24 18 70 -35 27 -31 73 -29 86 3 7 17 31 47 43 54 6 3
8 3 20 -8z m219 -271 c25 -13 37 -61 20 -87 -20 -29 -24 -29 -52 -1 -26 26
-26 26 5 69 16 22 18 24 27 19z m-619 -16 c3 -4 11 -13 17 -20 14 -15 31 -37
33 -43 1 -3 -5 -14 -18 -30 -5 -6 -12 -14 -16 -20 -16 -20 -43 1 -52 41 -1 3
-4 10 -7 16 -12 23 28 75 43 56z m324 -422 c37 -39 41 -51 22 -65 -6 -4 -10
-8 -11 -14 -9 -30 -30 -33 -50 -6 -5 7 -12 16 -14 19 -21 26 31 91 53 66z"/>
<path d="M430 742 c-19 -1 -46 -12 -64 -25 -5 -3 -13 -9 -18 -11 -5 -3 -14
-10 -19 -16 -6 -6 -13 -12 -17 -15 -45 -31 -35 -124 18 -167 31 -26 62 -42
100 -53 23 -7 67 -1 88 12 6 4 15 8 19 11 5 2 10 6 11 7 2 2 8 8 15 14 18 15
42 37 45 43 5 7 6 66 1 77 -11 25 -40 62 -58 73 -4 2 -13 9 -19 14 -13 11 -44
28 -62 34 -12 4 -13 4 -40 2z m-11 -41 c19 -28 6 -65 -18 -52 -40 21 -40 27 1
51 11 7 13 7 17 1z m76 -11 c33 -19 35 -24 15 -39 -38 -28 -46 -24 -46 18 0
38 1 39 31 21z m-125 -63 c29 -16 42 -24 42 -27 0 -6 -57 -37 -72 -39 -19 -3
-30 32 -19 60 9 26 10 26 49 6z m194 -6 c18 -20 21 -55 6 -60 -7 -2 -68 30
-71 37 -6 16 53 36 65 23z m-130 -60 c3 -7 6 -69 4 -72 -7 -9 -72 27 -72 39 0
12 63 42 68 33z m73 -9 c41 -20 42 -22 19 -41 -30 -25 -43 -25 -46 -1 -1 8 -3
18 -4 22 -9 31 -2 36 31 20z"/>
</g>
</svg>
