<?xml version="1.0" standalone="no"?>
<!DOCTYPE svg PUBLIC "-//W3C//DTD SVG 20010904//EN"
 "http://www.w3.org/TR/2001/REC-SVG-20010904/DTD/svg10.dtd">
<svg version="1.0" xmlns="http://www.w3.org/2000/svg"
 width="344.000000pt" height="590.000000pt" viewBox="0 0 344.000000 590.000000"
 preserveAspectRatio="xMidYMid meet">
<metadata>
Created by potrace 1.16, written by Peter Selinger 2001-2019
</metadata>
<g transform="translate(0.000000,590.000000) scale(0.500000,-0.500000)"
fill="#000000" stroke="none">
<path d="M68 1133 c-2 -1 -5 -3 -7 -6 -3 -4 -3 -57 -8 -766 0 -24 1 -81 2
-127 1 -73 1 -85 -2 -100 -4 -25 -4 -64 1 -69 11 -10 167 -1 192 12 3 1 9 3
14 4 6 1 14 4 20 8 13 9 24 15 35 17 13 3 34 15 42 24 6 7 9 9 20 12 20 5 44
20 54 35 5 8 12 14 19 18 6 4 24 19 39 34 15 15 31 30 34 32 4 3 10 10 14 17
4 6 11 15 15 19 5 5 8 11 9 16 1 6 3 10 8 15 4 4 10 11 12 16 3 5 7 13 10 17
3 4 5 9 5 11 0 5 6 18 14 29 22 32 20 26 20 63 0 24 1 36 3 43 5 18 6 53 1 67
-3 12 -4 19 -4 75 -1 63 -1 63 -7 73 -3 7 -7 18 -8 28 -2 9 -5 20 -7 24 -2 4
-4 10 -5 14 -1 7 -14 39 -21 52 -10 18 -14 27 -14 33 0 10 -13 36 -24 49 -25
28 -37 41 -42 45 -3 2 -10 9 -16 17 -6 7 -15 16 -21 20 -5 4 -15 13 -21 19 -8
8 -14 12 -22 15 -14 5 -21 10 -26 19 -3 4 -8 9 -15 12 -5 3 -11 7 -13 8 -3 3
-33 12 -43 14 -4 0 -10 3 -14 6 -10 6 -32 14 -48 17 -6 1 -17 4 -24 6 -11 3
-19 4 -46 4 -17 0 -34 1 -37 2 -10 3 -76 9 -88 7z m93 -67 c7 -3 13 -4 24 -4
10 0 18 -1 25 -4 14 -6 28 -10 41 -13 42 -9 47 -11 90 -38 31 -20 72 -58 91
-85 3 -6 11 -14 17 -18 9 -7 13 -11 15 -17 2 -5 9 -16 17 -25 8 -10 17 -25 23
-36 5 -11 11 -20 12 -21 1 -1 6 -8 9 -17 4 -8 11 -22 15 -30 9 -20 10 -24 12
-68 1 -38 2 -42 11 -52 6 -6 6 -142 0 -165 -2 -8 -4 -16 -4 -18 -1 -2 -14 -23
-29 -46 -15 -23 -29 -45 -30 -50 -1 -4 -5 -11 -9 -15 -4 -4 -10 -11 -13 -16
-12 -22 -21 -33 -50 -61 -20 -20 -33 -31 -39 -34 -4 -2 -10 -5 -12 -7 -2 -2
-9 -5 -15 -7 -7 -2 -13 -6 -18 -11 -4 -5 -13 -10 -19 -13 -8 -3 -14 -8 -20
-14 -5 -6 -10 -10 -16 -11 -4 -1 -16 -8 -26 -14 -26 -17 -39 -21 -79 -24 -13
-1 -29 -3 -37 -5 -40 -9 -36 -29 -34 192 2 102 2 188 1 192 -1 5 -1 11 1 18 4
15 4 218 0 232 -5 18 -5 190 0 199 4 6 4 12 5 58 1 41 2 50 4 52 5 3 26 1 37
-4z"/>
</g>
</svg>
