<?xml version="1.0" standalone="no"?>
<!DOCTYPE svg PUBLIC "-//W3C//DTD SVG 20010904//EN"
 "http://www.w3.org/TR/2001/REC-SVG-20010904/DTD/svg10.dtd">
<svg version="1.0" xmlns="http://www.w3.org/2000/svg"
 width="58.000000pt" height="100.000000pt" viewBox="0 0 58.000000 100.000000"
 preserveAspectRatio="xMidYMid meet">
<metadata>
Created by potrace 1.16, written by Peter Selinger 2001-2019
</metadata>
<g transform="translate(0.000000,100.000000) scale(0.100000,-0.100000)"
fill="#000000" stroke="none">
<path d="M47 879 c-4 -46 -7 -252 -7 -458 l0 -374 83 5 c68 4 93 10 147 38 82
42 188 144 229 220 29 54 31 64 31 167 0 175 -37 271 -144 370 -77 72 -140
100 -254 109 l-79 7 -6 -84z m173 0 c80 -27 164 -109 211 -205 29 -59 33 -77
37 -175 l5 -109 -53 -80 c-44 -68 -66 -89 -129 -131 -73 -48 -164 -84 -182
-73 -10 6 -12 777 -2 787 12 12 48 7 113 -14z"/>
</g>
</svg>
