<?xml version="1.0" standalone="no"?>
<!DOCTYPE svg PUBLIC "-//W3C//DTD SVG 20010904//EN"
 "http://www.w3.org/TR/2001/REC-SVG-20010904/DTD/svg10.dtd">
<svg version="1.0" xmlns="http://www.w3.org/2000/svg"
 width="86.000000pt" height="148.000000pt" viewBox="0 0 86.000000 148.000000"
 preserveAspectRatio="xMidYMid meet">
<metadata>
Created by potrace 1.16, written by Peter Selinger 2001-2019
</metadata>
<g transform="translate(0.000000,148.000000) scale(0.100000,-0.100000)"
fill="#000000" stroke="none">
<path d="M77 1413 c-3 -5 -7 -308 -9 -673 l-3 -665 60 -3 c106 -6 179 16 342
101 38 21 81 57 174 151 22 21 62 80 91 130 l52 91 -2 170 c-2 163 -3 173 -33
255 -17 47 -36 101 -42 120 -12 34 -170 210 -189 210 -6 0 -23 11 -40 25 -16
14 -42 28 -56 31 -15 4 -40 13 -55 21 -16 8 -65 18 -110 23 -45 5 -103 12
-128 16 -26 3 -49 2 -52 -3z m148 -82 c94 -21 156 -42 197 -68 77 -50 185
-180 243 -293 24 -45 37 -148 39 -285 l1 -110 -69 -108 c-61 -95 -152 -197
-177 -197 -5 0 -31 -15 -57 -33 -66 -46 -133 -77 -168 -77 -16 0 -44 -4 -62
-9 -17 -5 -32 -7 -32 -3 0 4 0 255 0 557 1 303 1 565 0 583 -1 55 7 59 85 43z"/>
</g>
</svg>
