<?xml version="1.0" standalone="no"?>
<!DOCTYPE svg PUBLIC "-//W3C//DTD SVG 20010904//EN"
 "http://www.w3.org/TR/2001/REC-SVG-20010904/DTD/svg10.dtd">
<svg version="1.0" xmlns="http://www.w3.org/2000/svg"
 width="64.000000pt" height="148.000000pt" viewBox="0 0 64.000000 148.000000"
 preserveAspectRatio="xMidYMid meet">
<metadata>
Created by potrace 1.16, written by Peter Selinger 2001-2019
</metadata>
<g transform="translate(0.000000,148.000000) scale(0.100000,-0.100000)"
fill="#000000" stroke="none">
<path d="M134 1393 c-3 -10 -21 -57 -39 -104 l-34 -86 -1 -284 c-1 -156 -1
-411 -1 -566 l1 -283 24 0 c25 0 180 77 226 111 77 60 148 117 171 139 29 28
59 84 59 110 0 9 5 21 11 27 7 7 10 72 7 194 l-3 184 -38 67 c-38 67 -112 143
-174 181 -18 10 -33 21 -33 23 0 3 20 47 45 97 51 106 54 120 23 115 -18 -2
-31 -22 -63 -95 -37 -87 -55 -108 -70 -83 -3 5 15 50 40 100 26 49 44 94 40
100 -13 21 -37 9 -51 -27 -44 -107 -68 -153 -80 -153 -26 0 -23 20 21 109 25
51 45 96 45 101 0 6 -11 10 -24 10 -17 0 -26 -7 -30 -25 -11 -45 -75 -175 -85
-175 -19 0 -12 33 25 117 20 45 34 89 31 97 -8 21 -36 20 -43 -1z m40 -282 c3
-4 34 -22 68 -38 35 -17 74 -42 87 -57 14 -14 29 -26 35 -26 15 0 86 -72 86
-87 0 -7 12 -38 26 -70 24 -53 26 -70 27 -188 0 -196 -21 -246 -145 -347 -18
-14 -49 -39 -68 -56 -51 -43 -150 -96 -160 -86 -6 7 -16 901 -11 957 1 10 49
9 55 -2z"/>
</g>
</svg>
