<?xml version="1.0" standalone="no"?>
<!DOCTYPE svg PUBLIC "-//W3C//DTD SVG 20010904//EN"
 "http://www.w3.org/TR/2001/REC-SVG-20010904/DTD/svg10.dtd">
<svg version="1.0" xmlns="http://www.w3.org/2000/svg"
 width="252.000000pt" height="590.000000pt" viewBox="0 0 252.000000 590.000000"
 preserveAspectRatio="xMidYMid meet">
<metadata>
Created by potrace 1.16, written by Peter Selinger 2001-2019
</metadata>
<g transform="translate(0.000000,590.000000) scale(0.500000,-0.500000)"
fill="#000000" stroke="none">
<path d="M119 1125 c-7 -3 -9 -7 -27 -56 -14 -38 -20 -53 -34 -88 l-11 -26 0
-416 c-1 -459 -1 -471 6 -479 12 -13 55 1 108 36 4 3 22 12 38 20 25 12 32 16
42 26 7 6 20 16 29 22 9 6 21 14 25 18 5 5 15 13 22 18 7 5 17 12 22 16 31 22
72 68 75 82 1 6 5 14 8 19 4 6 6 11 7 21 1 9 4 17 10 29 l9 17 0 117 c0 124 0
122 -9 156 -2 6 -3 13 -3 16 0 5 -13 34 -21 44 -2 3 -9 15 -14 25 -5 10 -13
23 -17 28 -4 5 -9 12 -12 16 -3 5 -8 10 -12 13 -3 2 -8 7 -10 10 -2 3 -13 12
-25 20 -11 8 -24 18 -28 23 -4 4 -14 11 -21 15 -19 10 -27 18 -25 23 3 9 15
37 40 88 31 63 32 67 19 76 -20 12 -28 6 -44 -33 -41 -101 -51 -119 -61 -112
-11 7 -11 7 28 86 33 67 34 70 25 79 -19 19 -26 12 -54 -51 -40 -93 -43 -98
-55 -90 -9 6 -4 18 35 101 30 62 30 67 7 74 -14 4 -17 0 -31 -33 -10 -25 -46
-110 -48 -115 -4 -7 -12 -11 -17 -8 -9 4 -9 3 34 105 20 48 22 56 15 63 -9 7
-16 9 -25 5z m3 -234 c9 -1 14 -3 19 -7 7 -6 51 -28 54 -28 9 0 52 -28 60 -39
5 -7 26 -21 39 -28 24 -10 58 -51 61 -71 1 -5 4 -15 7 -22 3 -8 6 -15 6 -18 0
-6 4 -15 9 -20 14 -15 19 -31 19 -64 0 -25 1 -34 3 -41 5 -14 5 -53 1 -65 -3
-7 -4 -14 -4 -45 0 -39 -2 -48 -13 -72 -3 -6 -6 -14 -6 -18 -4 -25 -43 -74
-72 -91 -6 -3 -15 -12 -22 -19 -6 -7 -16 -16 -21 -20 -19 -13 -31 -22 -42 -33
-21 -22 -98 -64 -113 -62 -6 1 -7 4 -5 164 1 135 0 153 -3 164 -4 17 -6 432
-2 436 1 1 4 2 7 1 3 0 11 -1 18 -2z"/>
</g>
</svg>
