<?xml version="1.0" standalone="no"?>
<!DOCTYPE svg PUBLIC "-//W3C//DTD SVG 20010904//EN"
 "http://www.w3.org/TR/2001/REC-SVG-20010904/DTD/svg10.dtd">
<svg version="1.0" xmlns="http://www.w3.org/2000/svg"
 width="54.000000pt" height="100.000000pt" viewBox="0 0 54.000000 100.000000"
 preserveAspectRatio="xMidYMid meet">
<metadata>
Created by potrace 1.16, written by Peter Selinger 2001-2019
</metadata>
<g transform="translate(0.000000,100.000000) scale(0.100000,-0.100000)"
fill="#000000" stroke="none">
<path d="M35 958 c-3 -7 -4 -218 -3 -468 l3 -455 23 -3 c68 -10 241 85 328
180 67 72 77 112 73 285 -4 147 -4 148 -37 201 -17 29 -32 57 -32 64 0 6 27
40 61 75 62 64 67 78 35 97 -15 9 -27 0 -81 -59 l-63 -69 -35 31 c-46 40 -113
80 -175 103 -81 30 -92 32 -97 18z m130 -95 c57 -28 136 -87 133 -99 -2 -6
-47 -58 -102 -114 -74 -78 -100 -99 -107 -89 -10 16 -12 312 -2 322 8 8 35 1
78 -20z m206 -201 c19 -39 23 -70 27 -180 l4 -132 -32 -51 c-32 -49 -99 -107
-194 -168 -88 -55 -86 -58 -86 150 l0 180 123 128 c67 71 125 126 129 124 4
-2 17 -25 29 -51z"/>
</g>
</svg>
