<?xml version="1.0" standalone="no"?>
<!DOCTYPE svg PUBLIC "-//W3C//DTD SVG 20010904//EN"
 "http://www.w3.org/TR/2001/REC-SVG-20010904/DTD/svg10.dtd">
<svg version="1.0" xmlns="http://www.w3.org/2000/svg"
 width="322.000000pt" height="590.000000pt" viewBox="0 0 322.000000 590.000000"
 preserveAspectRatio="xMidYMid meet">
<metadata>
Created by potrace 1.16, written by Peter Selinger 2001-2019
</metadata>
<g transform="translate(0.000000,590.000000) scale(0.500000,-0.500000)"
fill="#000000" stroke="none">
<path d="M44 1140 c-8 -4 -8 5 -7 -552 2 -540 2 -540 7 -546 8 -10 29 -11 52
-3 10 2 21 5 26 6 5 1 12 3 17 5 4 2 11 4 15 4 6 0 10 2 15 6 7 7 15 10 22 10
3 0 9 2 13 4 4 2 10 4 13 4 2 0 13 4 23 9 10 5 20 9 23 9 3 0 7 2 10 6 3 3 6
6 8 8 2 2 12 10 22 15 3 2 9 7 14 10 5 3 13 8 18 11 4 3 11 7 15 10 4 3 10 7
14 9 4 2 14 10 23 17 8 8 16 14 18 14 5 0 95 91 99 101 2 6 6 11 7 13 2 2 8
18 14 35 6 18 14 38 17 46 7 20 8 319 1 341 -3 6 -5 13 -5 15 0 2 -2 6 -4 11
-2 4 -4 12 -5 19 -1 13 -17 45 -26 55 -5 5 -9 12 -23 41 -5 8 -11 18 -14 22
-10 11 -9 13 27 48 18 18 34 35 36 39 2 3 20 23 40 43 46 44 45 43 21 70 -23
27 -17 32 -125 -87 -35 -38 -49 -52 -54 -52 -6 0 -20 9 -26 18 -3 4 -10 10
-14 12 -9 4 -13 9 -19 19 -2 4 -8 8 -17 13 -8 4 -17 9 -20 12 -3 3 -17 11 -31
18 -14 7 -27 15 -30 17 -7 7 -63 34 -72 35 -4 1 -14 5 -22 9 -9 4 -18 7 -20 7
-2 0 -7 2 -12 4 -4 2 -12 4 -19 5 -7 1 -18 4 -27 9 -16 7 -30 9 -38 6z m82
-87 c20 -7 108 -42 116 -46 3 -2 13 -9 21 -17 8 -8 23 -19 33 -25 11 -6 24
-15 30 -20 6 -5 14 -10 17 -12 10 -4 21 -19 21 -25 0 -5 -13 -19 -80 -89 -43
-45 -98 -102 -121 -127 -46 -49 -54 -57 -59 -56 -5 1 -5 417 0 420 4 3 4 3 22
-3z m293 -219 c11 -16 57 -110 58 -121 1 -5 3 -14 4 -19 3 -9 3 -11 5 -215 0
-28 0 -35 -5 -55 -5 -24 -7 -27 -21 -45 -4 -6 -13 -20 -19 -31 -11 -22 -35
-52 -51 -66 -6 -5 -20 -17 -31 -25 -11 -9 -26 -21 -33 -28 -7 -6 -17 -13 -22
-16 -5 -3 -12 -8 -16 -12 -4 -4 -11 -9 -15 -11 -4 -3 -10 -6 -13 -9 -6 -5 -26
-17 -36 -20 -4 -1 -17 -9 -28 -16 -25 -17 -66 -35 -78 -35 -9 0 -9 -5 -9 206
0 184 0 200 -4 208 -4 12 2 32 13 39 13 8 227 225 235 238 5 9 42 47 48 49 4
2 5 1 18 -16z"/>
</g>
</svg>
