<?xml version="1.0" standalone="no"?>
<!DOCTYPE svg PUBLIC "-//W3C//DTD SVG 20010904//EN"
 "http://www.w3.org/TR/2001/REC-SVG-20010904/DTD/svg10.dtd">
<svg version="1.0" xmlns="http://www.w3.org/2000/svg"
 width="80.000000pt" height="148.000000pt" viewBox="0 0 80.000000 148.000000"
 preserveAspectRatio="xMidYMid meet">
<metadata>
Created by potrace 1.16, written by Peter Selinger 2001-2019
</metadata>
<g transform="translate(0.000000,148.000000) scale(0.100000,-0.100000)"
fill="#000000" stroke="none">
<path d="M47 1423 c-9 -8 -9 -1346 -1 -1367 3 -9 16 -16 28 -16 48 0 229 62
261 89 11 10 47 35 80 57 32 21 92 70 132 107 63 60 76 79 103 148 30 79 31
82 30 257 -1 127 -6 193 -17 232 -15 55 -62 149 -91 182 -14 16 -10 23 43 80
32 35 76 80 97 100 21 21 38 41 38 45 -1 13 -37 53 -48 53 -5 0 -49 -45 -98
-100 -49 -55 -93 -100 -99 -100 -5 0 -30 19 -55 43 -73 70 -224 151 -319 172
-17 4 -33 11 -36 16 -7 10 -39 12 -48 2z m168 -129 c49 -20 104 -48 121 -62
18 -15 51 -40 74 -56 22 -15 40 -34 38 -41 -2 -6 -60 -72 -129 -146 -70 -74
-140 -150 -157 -169 -19 -22 -34 -31 -39 -25 -7 9 -7 535 1 535 1 0 42 -16 91
-36z m336 -311 l44 -88 0 -195 0 -195 -46 -70 c-58 -90 -143 -162 -294 -250
-70 -42 -107 -57 -116 -48 -4 5 -9 130 -10 278 l-1 270 144 150 c80 83 162
169 183 193 20 23 41 42 45 42 3 0 27 -39 51 -87z"/>
</g>
</svg>
