<?xml version="1.0" standalone="no"?>
<!DOCTYPE svg PUBLIC "-//W3C//DTD SVG 20010904//EN"
 "http://www.w3.org/TR/2001/REC-SVG-20010904/DTD/svg10.dtd">
<svg version="1.0" xmlns="http://www.w3.org/2000/svg"
 width="100.000000pt" height="91.000000pt" viewBox="0 0 100.000000 91.000000"
 preserveAspectRatio="xMidYMid meet">
<metadata>
Created by potrace 1.16, written by Peter Selinger 2001-2019
</metadata>
<g transform="translate(0.000000,91.000000) scale(0.100000,-0.100000)"
fill="#000000" stroke="none">
<path d="M38 874 c-13 -12 -10 -832 2 -839 17 -11 140 31 194 65 74 47 163
137 178 179 8 23 12 85 11 170 -1 129 -2 136 -32 193 l-32 59 56 61 c60 67 65
82 36 98 -17 9 -27 1 -72 -50 -29 -33 -55 -60 -59 -60 -4 0 -25 14 -46 31 -72
58 -215 115 -236 93z m176 -117 c27 -18 54 -35 59 -39 10 -6 -168 -208 -184
-208 -10 0 -12 293 -3 303 9 9 69 -18 128 -56z m131 -152 c16 -32 21 -65 23
-158 4 -118 4 -118 -28 -167 -41 -64 -195 -180 -240 -180 -6 0 -10 58 -10 167
l0 167 103 107 c56 58 109 106 117 105 8 0 24 -19 35 -41z"/>
<path d="M530 461 c0 -380 2 -422 16 -428 24 -9 143 32 197 68 79 52 144 117
167 166 20 42 22 59 18 182 -3 132 -4 138 -36 194 l-33 58 56 58 c57 60 67 87
38 98 -12 5 -31 -9 -68 -50 -29 -31 -57 -57 -63 -57 -7 0 -31 15 -54 33 -50
38 -147 83 -200 92 l-38 7 0 -421z m133 324 c29 -14 67 -38 86 -53 l34 -29
-94 -101 c-76 -83 -95 -99 -101 -85 -8 22 -10 240 -2 271 8 28 14 28 77 -3z
m187 -184 c19 -42 23 -67 24 -163 1 -130 -8 -154 -93 -230 -55 -49 -170 -120
-183 -112 -4 3 -8 77 -8 166 l0 160 108 114 c59 62 112 113 118 113 6 1 21
-21 34 -48z"/>
</g>
</svg>
