<?xml version="1.0" standalone="no"?>
<!DOCTYPE svg PUBLIC "-//W3C//DTD SVG 20010904//EN"
 "http://www.w3.org/TR/2001/REC-SVG-20010904/DTD/svg10.dtd">
<svg version="1.0" xmlns="http://www.w3.org/2000/svg"
 width="650.000000pt" height="590.000000pt" viewBox="0 0 650.000000 590.000000"
 preserveAspectRatio="xMidYMid meet">
<metadata>
Created by potrace 1.16, written by Peter Selinger 2001-2019
</metadata>
<g transform="translate(0.000000,590.000000) scale(0.500000,-0.500000)"
fill="#000000" stroke="none">
<path d="M46 1150 c-1 -1 -3 -5 -4 -10 -1 -6 -1 -876 0 -1080 0 -17 29 -23 60
-13 8 2 19 5 24 6 5 1 13 3 17 5 4 2 11 4 15 4 6 0 10 2 15 6 7 7 15 10 23 10
3 0 9 2 13 4 4 2 10 4 13 4 2 0 12 4 22 9 9 5 20 9 24 10 6 1 10 3 14 9 4 4 7
8 8 8 1 0 7 4 12 8 6 4 11 8 13 8 1 0 6 3 10 7 4 3 11 8 15 10 4 2 10 6 14 9
4 3 10 7 14 9 7 4 19 13 31 24 4 4 8 7 10 7 5 0 95 93 100 103 2 4 6 11 8 15
3 4 9 20 14 36 5 15 10 29 11 31 1 1 3 8 6 15 6 19 6 317 0 334 -2 6 -4 14 -5
18 0 4 -2 10 -4 13 -2 3 -4 11 -4 17 -2 12 -19 48 -28 58 -3 3 -10 16 -17 29
-7 13 -15 27 -19 32 -10 13 -10 13 28 50 19 19 35 36 35 38 0 2 17 21 38 42
47 48 47 46 20 74 -21 21 -17 24 -97 -63 -55 -60 -73 -78 -79 -78 -7 0 -15 5
-24 16 -5 5 -13 12 -18 14 -5 2 -10 7 -12 10 -5 11 -11 16 -24 22 -7 4 -16 9
-19 12 -3 3 -18 12 -32 19 -15 7 -28 14 -29 16 -4 5 -66 35 -72 35 -2 0 -11 4
-21 8 -10 4 -20 8 -22 8 -3 0 -8 2 -12 3 -3 2 -11 4 -18 5 -8 1 -17 4 -27 9
-15 7 -33 10 -40 5z m87 -87 c21 -7 108 -41 115 -45 2 -1 11 -9 20 -17 9 -8
24 -19 33 -25 10 -6 22 -14 27 -18 5 -4 14 -10 19 -13 11 -5 23 -20 23 -27 0
-3 -9 -14 -31 -36 -47 -48 -128 -132 -174 -182 -50 -53 -57 -59 -60 -50 -2 8
0 414 3 417 3 4 3 4 25 -4z m286 -211 c2 -5 6 -10 8 -12 5 -4 55 -106 55 -112
0 -3 1 -10 3 -16 5 -17 9 -107 7 -157 -1 -13 -1 -41 0 -61 1 -55 -5 -81 -25
-104 -5 -6 -14 -20 -19 -31 -15 -30 -43 -62 -75 -86 -9 -7 -25 -20 -35 -29
-10 -9 -22 -18 -26 -20 -5 -2 -13 -9 -20 -15 -7 -6 -14 -11 -15 -11 -1 0 -7
-3 -11 -7 -5 -4 -11 -9 -14 -10 -3 -1 -7 -3 -10 -5 -2 -2 -8 -5 -12 -6 -4 -1
-18 -9 -31 -17 -21 -14 -57 -31 -72 -34 -14 -3 -13 -16 -14 207 0 176 -1 202
-3 209 -5 11 2 31 12 38 10 6 226 223 232 234 22 35 57 60 65 45z"/>
<path d="M699 1147 c-4 -3 -8 -1076 -4 -1092 4 -18 32 -23 65 -12 7 3 16 5 19
5 3 0 10 2 17 5 7 3 15 5 19 5 5 0 9 2 15 7 6 5 11 7 18 8 5 1 12 3 16 5 4 2
9 4 12 4 3 0 13 4 21 8 8 5 19 9 24 10 5 2 11 5 15 10 9 9 24 20 35 26 5 2 10
5 11 7 2 2 7 5 12 8 5 3 12 7 15 10 3 2 9 6 13 8 7 4 15 10 30 22 4 4 10 8 13
10 3 1 15 12 26 23 11 11 31 31 43 44 16 14 25 26 28 32 3 5 7 12 9 16 3 4 9
20 14 35 5 15 11 33 14 39 9 19 9 29 8 188 -1 163 -1 151 -13 185 -2 6 -5 15
-5 21 -2 12 -17 43 -28 57 -4 4 -12 18 -18 31 -6 13 -15 26 -18 31 -10 11 -10
11 27 47 18 18 35 36 37 39 1 3 19 22 39 42 46 46 46 46 22 72 -24 26 -20 29
-107 -67 -75 -83 -75 -83 -98 -55 -5 5 -12 11 -17 13 -5 3 -9 6 -12 10 -5 11
-10 15 -25 23 -8 4 -16 9 -19 12 -3 3 -16 10 -30 17 -14 7 -27 15 -30 17 -7 7
-63 34 -72 36 -4 0 -14 4 -22 8 -8 4 -17 7 -19 7 -2 0 -8 2 -12 4 -5 2 -14 4
-20 5 -7 1 -14 3 -17 4 -22 11 -26 13 -37 13 -6 0 -12 -1 -14 -3z m89 -89 c9
-3 29 -10 43 -16 75 -29 71 -27 94 -48 8 -7 22 -17 31 -23 9 -5 21 -13 26 -17
5 -4 13 -9 17 -12 15 -7 28 -25 24 -33 -1 -1 -19 -20 -39 -40 -50 -51 -126
-131 -163 -170 -46 -50 -56 -59 -60 -52 -2 2 -1 407 0 414 2 4 8 4 27 -3z
m283 -208 c3 -4 7 -10 10 -14 3 -4 10 -17 16 -30 6 -13 13 -27 15 -31 15 -28
22 -45 24 -56 1 -6 4 -16 5 -21 6 -18 6 -238 0 -265 -6 -29 -6 -29 -21 -48 -7
-9 -16 -23 -20 -32 -4 -9 -14 -25 -24 -36 -15 -20 -25 -29 -60 -57 -8 -6 -21
-17 -29 -24 -8 -7 -18 -14 -22 -16 -4 -3 -12 -8 -17 -13 -5 -5 -12 -10 -16
-12 -4 -2 -11 -7 -15 -10 -5 -4 -9 -7 -10 -7 -1 0 -5 -2 -9 -5 -4 -2 -11 -6
-16 -8 -5 -1 -19 -9 -31 -17 -40 -25 -77 -38 -81 -27 -1 2 -2 92 -2 200 0 178
0 196 -3 206 -5 14 0 33 10 39 10 6 229 229 237 241 10 16 47 52 51 51 2 -1 6
-4 8 -8z"/>
</g>
</svg>
