<?xml version="1.0" standalone="no"?>
<!DOCTYPE svg PUBLIC "-//W3C//DTD SVG 20010904//EN"
 "http://www.w3.org/TR/2001/REC-SVG-20010904/DTD/svg10.dtd">
<svg version="1.0" xmlns="http://www.w3.org/2000/svg"
 width="162.000000pt" height="148.000000pt" viewBox="0 0 162.000000 148.000000"
 preserveAspectRatio="xMidYMid meet">
<metadata>
Created by potrace 1.16, written by Peter Selinger 2001-2019
</metadata>
<g transform="translate(0.000000,148.000000) scale(0.100000,-0.100000)"
fill="#000000" stroke="none">
<path d="M50 750 c0 -621 2 -691 16 -697 16 -6 114 13 144 27 8 4 29 13 45 20
98 39 246 142 322 223 43 47 64 79 81 128 22 61 23 77 19 279 -2 118 -8 229
-13 245 -8 26 -53 107 -87 158 -10 15 -7 22 24 50 20 18 64 62 98 99 62 66 63
66 46 92 -10 14 -25 26 -34 25 -9 0 -54 -43 -100 -95 -46 -52 -91 -94 -101
-94 -9 0 -32 16 -51 36 -52 55 -182 129 -279 159 -30 10 -63 21 -72 26 -10 5
-27 9 -38 9 -20 0 -20 -5 -20 -690z m178 555 c46 -19 99 -47 120 -63 20 -16
54 -41 75 -56 20 -15 37 -33 37 -40 0 -7 -26 -37 -58 -67 -32 -30 -105 -105
-162 -166 -57 -62 -107 -113 -110 -113 -4 0 -4 493 0 538 0 6 23 -1 98 -33z
m333 -312 l44 -88 0 -195 0 -195 -27 -36 c-16 -20 -28 -40 -28 -45 -1 -34
-173 -177 -293 -242 -130 -71 -119 -93 -119 233 l0 280 142 140 c78 77 157
161 177 188 19 26 40 47 47 47 7 0 33 -39 57 -87z"/>
<path d="M867 1433 c-4 -3 -7 -313 -7 -688 0 -772 -6 -717 78 -695 98 27 208
74 248 107 23 18 44 33 48 33 13 0 119 86 163 132 26 27 54 71 73 117 30 73
30 75 30 262 0 222 -9 269 -75 372 l-45 72 32 31 c18 16 63 62 100 100 l67 70
-23 27 c-13 15 -26 27 -30 27 -6 0 -94 -91 -156 -162 -17 -21 -37 -38 -44 -38
-6 0 -28 17 -47 38 -20 20 -46 43 -59 50 -22 14 -58 34 -122 70 -27 16 -206
82 -220 82 -3 0 -8 -3 -11 -7z m178 -133 c44 -19 91 -43 105 -55 14 -12 46
-36 72 -54 26 -17 49 -35 52 -39 2 -4 -32 -46 -76 -92 -44 -47 -118 -127 -166
-178 -47 -51 -88 -89 -91 -85 -3 5 -5 129 -3 276 2 204 6 268 15 264 7 -2 48
-19 92 -37z m325 -302 c33 -69 42 -99 49 -173 12 -132 8 -285 -10 -316 -7 -15
-24 -45 -37 -67 -29 -53 -76 -100 -172 -172 -87 -64 -236 -145 -244 -132 -3 5
-6 132 -6 283 l-1 274 153 156 c84 86 166 173 181 193 16 20 33 36 38 36 5 0
27 -37 49 -82z"/>
</g>
</svg>
