<?xml version="1.0" standalone="no"?>
<!DOCTYPE svg PUBLIC "-//W3C//DTD SVG 20010904//EN"
 "http://www.w3.org/TR/2001/REC-SVG-20010904/DTD/svg10.dtd">
<svg version="1.0" xmlns="http://www.w3.org/2000/svg"
 width="61.000000pt" height="100.000000pt" viewBox="0 0 61.000000 100.000000"
 preserveAspectRatio="xMidYMid meet">
<metadata>
Created by potrace 1.16, written by Peter Selinger 2001-2019
</metadata>
<g transform="translate(0.000000,100.000000) scale(0.100000,-0.100000)"
fill="#000000" stroke="none">
<path d="M518 843 c-4 -105 -8 -137 -27 -180 -28 -63 -92 -125 -164 -159 -59
-27 -85 -30 -111 -11 -17 12 -14 16 31 49 190 137 69 433 -169 416 l-43 -3 0
-460 0 -460 70 2 c91 3 147 31 191 97 60 86 66 168 18 253 -13 23 -24 46 -24
50 0 5 27 17 59 27 76 23 117 53 163 121 44 66 60 148 56 285 -3 88 -5 95 -24
98 -21 3 -22 -1 -26 -125z m-293 14 c70 -55 83 -172 27 -238 -43 -52 -101 -89
-139 -89 l-33 0 0 183 c0 123 4 187 11 194 15 15 87 -12 134 -50z m-45 -409
c67 -35 103 -86 108 -157 6 -88 -44 -163 -134 -197 -74 -28 -74 -29 -74 180 0
138 3 186 13 189 24 10 43 7 87 -15z"/>
</g>
</svg>
