<?xml version="1.0" standalone="no"?>
<!DOCTYPE svg PUBLIC "-//W3C//DTD SVG 20010904//EN"
 "http://www.w3.org/TR/2001/REC-SVG-20010904/DTD/svg10.dtd">
<svg version="1.0" xmlns="http://www.w3.org/2000/svg"
 width="360.000000pt" height="590.000000pt" viewBox="0 0 360.000000 590.000000"
 preserveAspectRatio="xMidYMid meet">
<metadata>
Created by potrace 1.16, written by Peter Selinger 2001-2019
</metadata>
<g transform="translate(0.000000,590.000000) scale(0.500000,-0.500000)"
fill="#000000" stroke="none">
<path d="M633 1141 c-12 -3 -13 -7 -13 -47 0 -30 1 -40 3 -46 3 -7 3 -12 2
-30 -2 -31 -2 -40 0 -51 2 -7 2 -12 0 -20 -1 -5 -3 -17 -4 -25 -1 -8 -2 -19
-3 -23 -1 -4 -3 -16 -5 -25 -2 -9 -4 -23 -6 -29 -2 -7 -3 -15 -3 -17 0 -9 -14
-46 -23 -60 -5 -8 -11 -19 -14 -25 -3 -6 -9 -17 -14 -24 -8 -13 -15 -21 -39
-48 -4 -4 -13 -12 -21 -18 -7 -5 -16 -13 -20 -16 -4 -3 -12 -8 -19 -11 -7 -4
-19 -10 -27 -15 -8 -5 -19 -11 -25 -14 -6 -2 -20 -9 -31 -14 -14 -6 -23 -9
-28 -9 -5 0 -14 -2 -21 -4 -24 -8 -40 -5 -74 14 -30 15 -26 22 24 47 26 13 27
13 37 27 5 7 12 15 14 16 8 4 36 36 44 51 31 52 29 46 30 122 1 80 0 88 -16
112 -6 9 -14 23 -17 30 -34 85 -133 132 -305 148 -21 2 -22 -6 -19 -328 1
-217 1 -222 0 -426 -2 -201 0 -328 4 -331 9 -10 140 -4 159 7 8 5 18 8 41 13
26 6 92 57 100 79 3 6 14 23 33 48 14 19 14 20 16 38 1 18 5 30 11 40 6 8 8
38 3 52 -1 6 -3 22 -4 38 -1 41 -23 93 -43 106 -1 1 -6 6 -10 13 -4 6 -11 15
-15 20 -13 16 -6 25 24 28 8 1 17 3 20 4 3 2 10 4 16 6 5 1 12 4 15 5 4 2 11
4 17 5 7 1 15 4 19 7 4 2 12 6 17 8 6 2 14 6 18 9 4 3 11 7 16 8 18 5 40 22
58 46 5 6 11 12 15 14 5 2 9 7 11 11 2 4 5 9 8 12 2 3 8 12 13 19 5 7 12 18
16 23 14 18 36 72 36 88 0 2 1 8 3 12 1 5 3 13 4 19 1 6 3 16 6 21 6 16 8 273
1 282 -6 7 -22 11 -35 8z m-493 -60 c61 -18 92 -30 112 -44 31 -21 67 -64 77
-94 1 -5 6 -14 9 -20 18 -27 7 -143 -16 -173 -3 -4 -8 -12 -11 -17 -10 -19
-53 -56 -97 -83 -21 -14 -40 -20 -59 -20 -5 0 -16 -1 -24 -3 -46 -10 -46 -8
-45 115 1 64 1 81 -1 89 -3 10 -3 13 0 23 3 9 3 23 3 108 -1 128 1 134 52 119z
m46 -536 c8 -4 20 -8 27 -10 6 -1 16 -5 20 -8 4 -3 9 -5 10 -5 14 0 45 -29 63
-58 6 -9 13 -21 18 -28 27 -39 36 -90 25 -141 -2 -8 -5 -21 -6 -29 -7 -32 -32
-73 -59 -97 -3 -2 -10 -9 -17 -15 -7 -7 -17 -14 -23 -17 -6 -3 -16 -8 -22 -12
-6 -4 -15 -7 -21 -8 -12 -2 -17 -4 -29 -14 -10 -8 -76 -11 -82 -4 -2 3 -3 45
-3 217 l-1 213 7 10 c8 14 6 13 45 13 34 0 34 0 48 -7z"/>
</g>
</svg>
