<?xml version="1.0" standalone="no"?>
<!DOCTYPE svg PUBLIC "-//W3C//DTD SVG 20010904//EN"
 "http://www.w3.org/TR/2001/REC-SVG-20010904/DTD/svg10.dtd">
<svg version="1.0" xmlns="http://www.w3.org/2000/svg"
 width="90.000000pt" height="148.000000pt" viewBox="0 0 90.000000 148.000000"
 preserveAspectRatio="xMidYMid meet">
<metadata>
Created by potrace 1.16, written by Peter Selinger 2001-2019
</metadata>
<g transform="translate(0.000000,148.000000) scale(0.100000,-0.100000)"
fill="#000000" stroke="none">
<path d="M778 1423 c-1 -5 -2 -73 -3 -153 -1 -168 -14 -239 -60 -330 -40 -80
-97 -134 -191 -182 -105 -55 -150 -64 -202 -41 -23 10 -42 23 -42 30 0 7 19
22 43 34 47 25 111 91 145 153 18 34 22 56 22 131 0 78 -3 97 -27 140 -35 66
-80 121 -118 145 -54 34 -190 70 -261 70 l-34 0 2 -682 3 -683 65 0 c93 0 206
37 256 83 89 84 126 169 124 286 -2 83 -9 105 -60 169 -22 27 -40 53 -40 58 0
5 12 11 28 14 127 27 184 55 257 126 116 112 155 232 155 471 l0 148 -26 10
c-30 12 -33 12 -36 3z m-547 -89 c69 -23 86 -34 129 -81 28 -30 50 -63 50 -73
0 -10 5 -22 10 -25 6 -3 10 -40 10 -81 0 -55 -6 -86 -21 -119 -38 -81 -152
-165 -240 -178 -65 -9 -64 -15 -67 277 -3 269 1 306 34 306 8 0 51 -12 95 -26z
m19 -660 c72 -25 95 -43 140 -113 52 -79 61 -134 36 -230 -13 -49 -26 -73 -63
-112 -48 -50 -92 -79 -123 -79 -10 0 -23 -7 -30 -15 -7 -8 -27 -15 -45 -15
-69 0 -65 -16 -65 284 0 198 3 275 12 284 17 17 84 15 138 -4z"/>
</g>
</svg>
