<?xml version="1.0" standalone="no"?>
<!DOCTYPE svg PUBLIC "-//W3C//DTD SVG 20010904//EN"
 "http://www.w3.org/TR/2001/REC-SVG-20010904/DTD/svg10.dtd">
<svg version="1.0" xmlns="http://www.w3.org/2000/svg"
 width="134.000000pt" height="148.000000pt" viewBox="0 0 134.000000 148.000000"
 preserveAspectRatio="xMidYMid meet">
<metadata>
Created by potrace 1.16, written by Peter Selinger 2001-2019
</metadata>
<g transform="translate(0.000000,148.000000) scale(0.100000,-0.100000)"
fill="#000000" stroke="none">
<path d="M1221 1421 c-8 -5 -11 -28 -9 -67 3 -51 6 -59 23 -59 18 0 20 8 23
61 3 63 -8 82 -37 65z"/>
<path d="M67 1414 c-4 -4 -7 -33 -7 -65 0 -50 3 -57 22 -63 33 -8 39 4 36 70
-3 51 -6 59 -23 62 -12 2 -24 0 -28 -4z"/>
<path d="M157 1414 c-4 -4 -7 -33 -7 -65 0 -43 4 -58 16 -63 31 -12 45 13 42
73 -3 48 -6 56 -23 59 -12 2 -24 0 -28 -4z"/>
<path d="M310 740 l0 -680 83 0 c71 0 87 3 102 20 9 10 33 24 52 31 19 6 67
35 106 65 40 30 76 54 80 54 19 0 147 139 147 158 0 12 5 24 10 27 6 3 10 16
10 28 0 12 9 36 20 52 18 27 20 47 20 208 0 97 -4 185 -9 195 -6 9 -12 33 -16
52 -5 35 -58 128 -90 162 -16 15 -10 23 82 118 78 80 99 108 104 138 4 20 5
40 2 45 -9 14 -50 7 -68 -13 -10 -11 -24 -20 -31 -20 -7 0 -20 -15 -29 -32 -8
-18 -42 -62 -75 -97 l-60 -64 -41 41 c-53 51 -186 125 -291 163 -46 16 -88 29
-95 29 -10 0 -13 -140 -13 -680z m210 527 c82 -39 164 -97 174 -123 3 -7 -43
-62 -102 -122 -59 -60 -129 -135 -156 -166 -27 -31 -51 -54 -54 -51 -3 3 -5
119 -4 258 1 139 2 253 2 255 0 8 66 -16 140 -51z m264 -214 c8 -16 20 -39 27
-53 6 -14 19 -41 29 -60 33 -65 34 -387 2 -446 -6 -10 -13 -32 -17 -47 -6 -32
-90 -127 -111 -127 -7 0 -18 -9 -24 -20 -6 -10 -32 -34 -58 -52 -52 -36 -210
-118 -229 -118 -8 0 -12 73 -15 278 -2 152 -2 282 0 289 2 6 9 13 16 15 14 3
263 262 314 327 18 22 37 41 42 41 5 0 16 -12 24 -27z"/>
<path d="M1119 1418 c0 -2 -2 -25 -3 -52 -2 -58 12 -81 43 -71 20 6 22 12 19
63 -3 54 -5 57 -30 60 -16 2 -28 2 -29 0z"/>
<path d="M67 184 c-4 -4 -7 -31 -7 -59 0 -56 17 -82 45 -71 13 4 15 19 13 68
-3 55 -6 63 -23 66 -12 2 -24 0 -28 -4z"/>
<path d="M157 184 c-4 -4 -7 -34 -7 -66 0 -43 4 -60 15 -64 30 -12 46 16 43
75 -3 48 -6 56 -23 59 -12 2 -24 0 -28 -4z"/>
<path d="M1116 175 c-12 -33 -6 -102 10 -116 30 -25 49 1 49 67 0 56 -1 59
-26 62 -17 2 -29 -3 -33 -13z"/>
<path d="M1208 178 c-3 -7 -2 -38 1 -68 5 -46 9 -55 26 -55 18 0 20 8 23 68 3
65 2 67 -21 67 -14 0 -27 -6 -29 -12z"/>
</g>
</svg>
