<?xml version="1.0" standalone="no"?>
<!DOCTYPE svg PUBLIC "-//W3C//DTD SVG 20010904//EN"
 "http://www.w3.org/TR/2001/REC-SVG-20010904/DTD/svg10.dtd">
<svg version="1.0" xmlns="http://www.w3.org/2000/svg"
 width="534.000000pt" height="590.000000pt" viewBox="0 0 534.000000 590.000000"
 preserveAspectRatio="xMidYMid meet">
<metadata>
Created by potrace 1.16, written by Peter Selinger 2001-2019
</metadata>
<g transform="translate(0.000000,590.000000) scale(0.500000,-0.500000)"
fill="#000000" stroke="none">
<path d="M978 1140 c-15 -2 -16 -4 -16 -51 0 -51 2 -55 26 -55 24 0 25 3 24
55 0 52 -3 56 -34 51z"/>
<path d="M775 1138 c-2 -1 -11 -8 -19 -17 -12 -11 -18 -15 -23 -16 -12 -2 -14
-4 -17 -15 -2 -8 -5 -13 -12 -22 -6 -6 -12 -14 -13 -17 -5 -11 -82 -91 -88
-91 -2 0 -7 3 -12 8 -4 4 -12 10 -18 13 -6 4 -12 9 -15 15 -3 6 -8 10 -20 16
-8 5 -18 11 -21 14 -3 3 -17 11 -30 17 -13 7 -27 15 -31 18 -8 7 -59 33 -69
34 -3 1 -13 5 -22 9 -9 5 -18 8 -20 8 -2 0 -8 2 -13 4 -4 2 -13 4 -19 5 -5 1
-17 5 -26 9 -19 9 -29 10 -35 4 -7 -7 -7 -1072 0 -1081 4 -4 5 -4 57 -5 71 0
67 -1 88 18 13 12 18 16 23 16 3 0 12 4 22 8 9 4 20 9 25 10 7 2 10 4 15 11 1
3 16 13 32 23 8 4 14 9 15 10 1 1 5 4 10 6 4 3 12 8 16 11 4 4 9 7 10 7 1 0 7
4 13 8 6 5 14 9 19 9 9 2 19 10 22 19 2 4 19 23 44 48 42 42 45 46 45 61 0 6
2 9 11 22 3 4 4 11 5 21 2 17 7 29 19 45 l7 9 0 151 c0 144 0 152 -4 160 -2 4
-4 13 -5 19 -1 6 -3 13 -4 15 -2 3 -4 11 -5 18 -2 13 -16 44 -28 57 -3 4 -11
17 -17 30 -7 12 -16 27 -20 32 -14 15 -14 14 26 53 21 21 36 37 39 42 2 5 17
21 38 41 41 39 40 38 42 68 1 40 -10 53 -37 42z m-452 -89 c4 -2 13 -3 20 -3
11 0 13 -1 22 -7 12 -10 61 -34 70 -36 9 -2 49 -21 53 -26 1 -2 6 -5 10 -7 5
-2 9 -7 11 -10 4 -7 13 -15 20 -18 31 -12 31 -49 0 -64 -4 -2 -9 -7 -11 -10
-1 -3 -5 -7 -7 -8 -3 -1 -7 -5 -10 -10 -5 -8 -13 -15 -19 -17 -2 -1 -6 -5 -8
-9 -2 -4 -21 -25 -43 -47 -24 -24 -41 -43 -44 -49 -6 -12 -71 -77 -76 -76 -6
1 -6 5 -5 203 1 215 -1 201 17 194z m295 -193 c2 -2 4 -7 5 -12 1 -6 3 -9 8
-13 9 -7 25 -39 25 -50 0 -10 4 -18 9 -21 3 -2 6 -6 8 -12 2 -6 6 -14 9 -19 7
-8 7 -8 8 -56 1 -40 2 -49 5 -56 5 -10 4 -62 -1 -68 -2 -3 -3 -13 -4 -55 -1
-41 -2 -52 -4 -57 -2 -3 -4 -9 -5 -13 -1 -4 -5 -14 -9 -23 -4 -10 -8 -22 -9
-27 -4 -34 -53 -94 -92 -114 -14 -7 -18 -10 -20 -16 -4 -8 -28 -32 -32 -32 -2
0 -9 -6 -16 -12 -8 -7 -16 -13 -19 -15 -3 -1 -9 -5 -13 -8 -10 -8 -31 -19 -36
-19 -3 0 -12 -4 -22 -9 -10 -5 -20 -9 -22 -9 -3 0 -9 -3 -14 -8 -19 -14 -55
-25 -60 -17 -1 1 -2 91 -2 200 0 198 0 198 -5 208 -4 10 -4 10 0 20 2 5 4 12
5 14 1 3 3 5 8 6 9 1 47 39 53 51 3 7 24 30 89 94 65 65 86 87 91 96 6 12 49
56 55 56 2 0 5 -2 7 -4z"/>
<path d="M900 1138 c-11 -6 -12 -88 -1 -97 13 -12 41 -6 44 10 12 62 -8 103
-43 87z"/>
<path d="M60 1133 c-9 -5 -10 -9 -10 -53 0 -49 2 -54 26 -54 23 0 24 4 24 58
-1 51 -12 65 -40 49z"/>
<path d="M135 1135 c-13 -3 -14 -8 -15 -51 0 -53 1 -56 26 -56 22 0 22 1 22
53 0 55 -3 60 -33 54z"/>
<path d="M898 152 c-7 -6 -7 -6 -8 -45 -1 -56 2 -61 29 -61 24 0 24 1 24 56 0
46 0 46 -6 51 -8 8 -30 7 -39 -1z"/>
<path d="M973 156 c-28 -12 -16 -110 14 -110 25 0 25 1 25 57 0 54 -9 65 -39
53z"/>
<path d="M56 150 c-9 -8 -9 -88 0 -97 6 -7 30 -8 38 -1 6 4 9 82 4 94 -5 12
-32 14 -42 4z"/>
<path d="M133 154 c-15 -5 -20 -89 -6 -101 30 -26 65 64 37 96 -6 6 -20 8 -31
5z"/>
</g>
</svg>
