<?xml version="1.0" standalone="no"?>
<!DOCTYPE svg PUBLIC "-//W3C//DTD SVG 20010904//EN"
 "http://www.w3.org/TR/2001/REC-SVG-20010904/DTD/svg10.dtd">
<svg version="1.0" xmlns="http://www.w3.org/2000/svg"
 width="91.000000pt" height="100.000000pt" viewBox="0 0 91.000000 100.000000"
 preserveAspectRatio="xMidYMid meet">
<metadata>
Created by potrace 1.16, written by Peter Selinger 2001-2019
</metadata>
<g transform="translate(0.000000,100.000000) scale(0.100000,-0.100000)"
fill="#000000" stroke="none">
<path d="M621 928 c-22 -24 -55 -60 -73 -81 l-33 -39 -40 33 c-46 37 -185 106
-233 115 l-32 7 2 -459 3 -459 48 -3 c39 -3 59 3 117 34 38 21 102 65 142 98
99 84 118 132 118 301 -1 143 -8 179 -49 241 l-30 47 65 73 c52 58 65 78 62
100 -5 42 -24 40 -67 -8z m-242 -91 c41 -23 78 -49 84 -57 7 -12 -14 -38 -90
-118 -55 -56 -102 -102 -106 -102 -4 0 -7 72 -7 160 0 159 0 160 23 159 12 0
55 -19 96 -42z m179 -182 c22 -52 26 -73 25 -161 -1 -148 -19 -200 -91 -264
-61 -55 -180 -130 -206 -130 -14 0 -16 20 -16 153 0 83 -3 161 -6 173 -4 17
21 50 118 157 68 76 129 136 136 134 8 -1 26 -29 40 -62z"/>
<path d="M760 956 c-14 -14 -12 -63 2 -73 21 -12 92 -12 100 0 12 19 9 65 -4
74 -19 11 -86 11 -98 -1z"/>
<path d="M36 935 c-9 -36 10 -79 32 -70 9 4 31 8 47 9 28 1 30 4 30 41 l0 40
-52 1 c-46 2 -52 0 -57 -21z"/>
<path d="M40 114 c-17 -44 5 -95 33 -77 6 4 26 8 42 8 27 0 30 4 33 33 4 44
-13 65 -40 51 -14 -8 -23 -8 -31 0 -17 17 -27 13 -37 -15z"/>
<path d="M760 126 c-14 -14 -13 -69 2 -84 8 -8 17 -8 30 -1 14 7 23 7 33 -1 8
-7 18 -9 23 -6 14 9 23 66 13 84 -10 18 -85 24 -101 8z"/>
</g>
</svg>
