<?xml version="1.0" standalone="no"?>
<!DOCTYPE svg PUBLIC "-//W3C//DTD SVG 20010904//EN"
 "http://www.w3.org/TR/2001/REC-SVG-20010904/DTD/svg10.dtd">
<svg version="1.0" xmlns="http://www.w3.org/2000/svg"
 width="244.000000pt" height="590.000000pt" viewBox="0 0 244.000000 590.000000"
 preserveAspectRatio="xMidYMid meet">
<metadata>
Created by potrace 1.16, written by Peter Selinger 2001-2019
</metadata>
<g transform="translate(0.000000,590.000000) scale(0.500000,-0.500000)"
fill="#000000" stroke="none">
<path d="M89 1106 c-37 -17 -55 -42 -46 -66 2 -5 5 -14 7 -21 2 -6 6 -15 9
-20 7 -11 8 -22 11 -75 1 -18 2 -36 4 -39 1 -3 2 -20 2 -46 0 -34 1 -42 3 -50
3 -9 4 -16 3 -47 0 -30 0 -41 3 -54 3 -13 3 -24 3 -51 -1 -29 -1 -36 2 -48 4
-12 4 -21 4 -52 0 -28 0 -40 2 -44 2 -4 3 -21 4 -52 5 -122 5 -140 8 -147 1
-4 2 -22 2 -47 0 -35 1 -42 4 -52 6 -16 4 -50 -3 -59 -28 -32 -37 -78 -19 -87
18 -9 36 -2 47 19 4 7 10 17 13 21 3 4 10 16 15 26 5 10 12 21 14 24 2 3 11
18 19 32 8 14 18 31 22 37 4 6 11 18 16 27 5 9 11 20 15 25 3 5 13 22 22 37 9
15 18 30 20 33 3 3 8 13 13 21 11 20 26 45 29 49 2 2 6 10 11 18 8 15 10 19
19 53 2 10 6 21 7 24 5 12 2 50 -4 70 -11 35 -16 48 -18 50 -1 1 -4 9 -7 17
-3 8 -7 19 -9 23 -3 4 -6 14 -8 21 -2 7 -10 24 -17 38 -7 14 -16 34 -20 44 -8
20 -23 52 -28 60 -4 6 -40 90 -43 101 -1 4 -7 18 -13 30 -6 13 -11 23 -11 24
0 1 -9 21 -21 43 -11 23 -23 47 -25 53 -13 36 -35 49 -61 37z m36 -203 c16
-29 17 -31 21 -48 3 -14 4 -23 4 -57 0 -31 1 -41 3 -47 2 -5 3 -14 3 -33 0
-15 1 -30 2 -34 2 -4 3 -23 4 -43 4 -89 5 -100 9 -109 2 -6 3 -15 3 -35 0 -16
1 -29 2 -32 2 -4 3 -20 3 -39 0 -20 1 -35 3 -39 1 -3 2 -16 2 -33 0 -18 1 -30
3 -35 7 -20 6 -53 -2 -64 -4 -6 -9 -14 -12 -19 -19 -32 -23 -26 -25 38 -1 27
-2 47 -4 51 -1 3 -2 20 -2 46 0 34 -1 42 -4 51 -3 9 -4 17 -4 51 0 29 -1 43
-3 51 -2 8 -3 22 -3 49 0 25 -1 41 -2 44 -2 4 -3 24 -4 52 -1 29 -2 47 -3 50
-2 3 -3 21 -4 48 -1 24 -2 46 -4 49 -2 5 -5 101 -3 105 2 4 8 -2 17 -18z m73
-135 c1 -4 4 -9 6 -12 32 -48 35 -59 36 -166 1 -71 2 -97 4 -101 6 -16 2 -135
-6 -147 -12 -19 -20 -6 -20 36 0 16 -1 29 -3 35 -2 7 -3 19 -3 40 0 22 -1 32
-3 38 -2 5 -4 19 -5 40 -1 18 -2 33 -3 35 0 2 -1 16 -2 31 0 15 -2 31 -3 35
-1 4 -2 21 -3 39 0 22 -2 35 -4 41 -3 9 -5 66 -2 69 3 2 9 -5 11 -13z m92
-178 c19 -43 27 -116 15 -138 -11 -20 -23 -33 -26 -28 -3 4 -8 176 -6 181 3 8
10 2 17 -15z"/>
</g>
</svg>
