<?xml version="1.0" standalone="no"?>
<!DOCTYPE svg PUBLIC "-//W3C//DTD SVG 20010904//EN"
 "http://www.w3.org/TR/2001/REC-SVG-20010904/DTD/svg10.dtd">
<svg version="1.0" xmlns="http://www.w3.org/2000/svg"
 width="42.000000pt" height="100.000000pt" viewBox="0 0 42.000000 100.000000"
 preserveAspectRatio="xMidYMid meet">
<metadata>
Created by potrace 1.16, written by Peter Selinger 2001-2019
</metadata>
<g transform="translate(0.000000,100.000000) scale(0.100000,-0.100000)"
fill="#000000" stroke="none">
<path d="M50 920 c-15 -15 -20 -28 -15 -43 19 -65 25 -99 25 -167 0 -41 7
-189 17 -329 13 -195 14 -258 5 -272 -15 -23 -16 -66 -2 -74 6 -4 18 -1 26 6
14 11 160 253 198 326 31 61 22 94 -87 338 -110 248 -121 261 -167 215z m69
-182 c5 -13 15 -102 21 -198 7 -96 15 -206 19 -243 5 -48 4 -73 -5 -85 -7 -9
-15 -14 -18 -11 -5 5 -46 499 -46 552 0 16 21 5 29 -15z m75 -132 c12 -26 16
-66 16 -169 0 -133 -13 -190 -24 -105 -8 63 -26 258 -26 285 0 33 15 28 34
-11z"/>
</g>
</svg>
