<?xml version="1.0" standalone="no"?>
<!DOCTYPE svg PUBLIC "-//W3C//DTD SVG 20010904//EN"
 "http://www.w3.org/TR/2001/REC-SVG-20010904/DTD/svg10.dtd">
<svg version="1.0" xmlns="http://www.w3.org/2000/svg"
 width="42.000000pt" height="100.000000pt" viewBox="0 0 42.000000 100.000000"
 preserveAspectRatio="xMidYMid meet">
<metadata>
Created by potrace 1.16, written by Peter Selinger 2001-2019
</metadata>
<g transform="translate(0.000000,100.000000) scale(0.100000,-0.100000)"
fill="#000000" stroke="none">
<path d="M295 917 c-27 -41 -197 -431 -202 -463 -3 -19 2 -48 14 -75 26 -57
191 -332 205 -340 35 -22 50 24 22 66 -14 22 -15 38 -5 138 6 61 16 214 21
339 5 125 15 248 22 274 12 44 11 47 -11 65 -31 25 -47 24 -66 -4z m25 -199
c0 -24 -4 -95 -9 -158 -5 -63 -13 -170 -16 -237 -5 -92 -11 -123 -20 -123 -23
0 -26 34 -15 142 6 57 15 169 19 250 5 80 12 151 15 157 15 23 26 9 26 -31z
m-63 -115 c-3 -21 -11 -98 -18 -170 -11 -122 -19 -154 -32 -120 -11 28 6 282
19 305 22 35 37 27 31 -15z"/>
</g>
</svg>
