<?xml version="1.0" standalone="no"?>
<!DOCTYPE svg PUBLIC "-//W3C//DTD SVG 20010904//EN"
 "http://www.w3.org/TR/2001/REC-SVG-20010904/DTD/svg10.dtd">
<svg version="1.0" xmlns="http://www.w3.org/2000/svg"
 width="62.000000pt" height="148.000000pt" viewBox="0 0 62.000000 148.000000"
 preserveAspectRatio="xMidYMid meet">
<metadata>
Created by potrace 1.16, written by Peter Selinger 2001-2019
</metadata>
<g transform="translate(0.000000,148.000000) scale(0.100000,-0.100000)"
fill="#000000" stroke="none">
<path d="M447 1372 c-9 -10 -17 -21 -17 -24 0 -3 -25 -57 -55 -121 -30 -63
-55 -118 -55 -121 0 -3 -25 -58 -56 -123 -31 -65 -72 -158 -91 -208 -31 -79
-35 -97 -29 -149 3 -34 16 -77 29 -100 83 -145 280 -463 291 -470 17 -12 46 9
46 33 0 9 -11 33 -25 53 l-25 37 15 188 c9 103 20 271 25 373 23 439 28 498
44 528 22 42 20 65 -6 90 -34 31 -70 37 -91 14z m33 -251 c0 -21 -11 -180 -24
-352 -14 -173 -25 -357 -26 -409 0 -52 -4 -97 -6 -100 -3 -3 -17 9 -30 25 -24
29 -25 35 -19 125 3 52 12 169 20 260 9 91 19 221 24 290 8 121 28 200 51 200
6 0 10 -17 10 -39z m-105 -251 c-7 -63 -16 -153 -19 -200 -18 -270 -22 -294
-46 -250 -8 15 -9 86 -5 238 6 186 10 222 26 250 10 18 19 39 19 47 0 11 31
39 36 32 1 -1 -5 -54 -11 -117z m-106 -197 c-3 -43 -4 -95 -1 -115 3 -29 1
-38 -10 -38 -16 0 -39 41 -44 80 -8 55 38 189 55 162 4 -6 4 -46 0 -89z"/>
</g>
</svg>
