<?xml version="1.0" standalone="no"?>
<!DOCTYPE svg PUBLIC "-//W3C//DTD SVG 20010904//EN"
 "http://www.w3.org/TR/2001/REC-SVG-20010904/DTD/svg10.dtd">
<svg version="1.0" xmlns="http://www.w3.org/2000/svg"
 width="244.000000pt" height="590.000000pt" viewBox="0 0 244.000000 590.000000"
 preserveAspectRatio="xMidYMid meet">
<metadata>
Created by potrace 1.16, written by Peter Selinger 2001-2019
</metadata>
<g transform="translate(0.000000,590.000000) scale(0.500000,-0.500000)"
fill="#000000" stroke="none">
<path d="M355 1100 c-10 -12 -19 -25 -19 -30 0 -1 -10 -21 -21 -45 -12 -23
-24 -49 -28 -58 -4 -9 -10 -23 -14 -30 -4 -7 -7 -15 -7 -16 0 -2 -9 -25 -20
-50 -11 -26 -20 -48 -20 -48 0 -1 -3 -5 -6 -10 -3 -4 -8 -13 -10 -20 -3 -7 -9
-21 -14 -33 -5 -12 -14 -32 -21 -46 -7 -13 -14 -30 -16 -37 -2 -6 -5 -16 -8
-21 -3 -5 -6 -15 -9 -22 -2 -7 -5 -15 -7 -17 -19 -29 -30 -97 -21 -127 2 -7 7
-23 10 -36 6 -21 17 -45 26 -55 2 -2 6 -8 9 -14 21 -38 30 -53 33 -56 2 -2 10
-17 19 -32 9 -15 19 -32 22 -37 4 -5 10 -16 15 -25 5 -9 11 -19 13 -22 3 -4
13 -20 22 -37 10 -17 19 -34 22 -37 2 -3 9 -14 14 -24 5 -10 12 -22 15 -26 3
-4 9 -14 13 -21 10 -19 13 -21 30 -22 37 -2 36 37 0 89 -8 11 -10 45 -4 63 2
6 3 18 3 49 0 28 1 43 2 46 3 6 3 17 7 147 2 36 3 48 5 52 2 4 3 14 3 48 0 35
1 45 4 53 2 8 3 17 3 50 -1 27 0 43 2 48 1 5 2 22 2 48 0 31 1 43 3 49 2 7 3
18 3 50 0 28 1 44 2 47 2 3 3 20 4 38 2 49 5 65 10 74 5 8 15 34 18 48 5 19
-23 58 -41 59 -1 0 -6 2 -10 4 -16 8 -24 6 -38 -8z m24 -181 c0 -2 1 -4 0 -5
0 -1 -1 -22 -2 -46 0 -26 -2 -48 -3 -52 -1 -4 -3 -26 -3 -50 -1 -26 -2 -45 -4
-47 -2 -4 -6 -63 -9 -146 -1 -25 -3 -49 -4 -53 -1 -4 -2 -23 -2 -47 0 -32 -1
-40 -3 -47 -3 -6 -4 -16 -5 -54 0 -26 -2 -48 -3 -50 -1 -2 -2 -23 -3 -47 -1
-48 -4 -63 -11 -57 -4 3 -24 32 -29 43 -5 7 -3 44 1 58 2 5 3 17 3 34 0 14 1
29 2 33 2 4 3 23 4 43 1 20 3 50 4 68 1 22 2 34 4 37 2 3 3 15 4 38 1 18 3 49
4 69 1 20 3 39 4 43 1 4 2 19 2 33 0 19 1 29 3 34 2 6 3 20 4 52 1 50 3 62 19
88 4 8 8 15 8 16 0 7 13 17 15 12z m-79 -169 c0 -22 -1 -32 -3 -38 -3 -6 -4
-19 -5 -44 0 -19 -2 -36 -3 -38 -1 -1 -2 -18 -3 -36 -5 -86 -6 -95 -9 -103 -2
-6 -3 -16 -3 -38 0 -22 -1 -33 -3 -39 -2 -6 -3 -17 -3 -35 0 -29 -4 -46 -11
-46 -14 0 -26 128 -15 156 2 4 3 30 4 101 1 106 0 97 18 133 4 7 8 16 11 20 2
4 5 10 7 13 2 2 5 8 6 12 8 23 12 17 12 -18z m-86 -185 c0 -21 -1 -41 -2 -44
-1 -3 -2 -21 -2 -40 -1 -63 -3 -69 -19 -46 -15 23 -21 62 -13 95 1 5 3 15 5
23 15 67 32 73 31 12z"/>
</g>
</svg>
