<?xml version="1.0" standalone="no"?>
<!DOCTYPE svg PUBLIC "-//W3C//DTD SVG 20010904//EN"
 "http://www.w3.org/TR/2001/REC-SVG-20010904/DTD/svg10.dtd">
<svg version="1.0" xmlns="http://www.w3.org/2000/svg"
 width="54.000000pt" height="100.000000pt" viewBox="0 0 54.000000 100.000000"
 preserveAspectRatio="xMidYMid meet">
<metadata>
Created by potrace 1.16, written by Peter Selinger 2001-2019
</metadata>
<g transform="translate(0.000000,100.000000) scale(0.100000,-0.100000)"
fill="#000000" stroke="none">
<path d="M401 939 c-76 -31 -142 -72 -175 -108 -11 -11 -25 -21 -32 -21 -7 0
-36 29 -64 66 -39 48 -58 64 -74 62 -39 -6 -29 -37 33 -107 l61 -69 -32 -51
c-28 -47 -32 -62 -40 -169 -17 -212 -3 -257 110 -364 79 -74 194 -137 265
-145 l44 -5 5 236 c7 333 -2 706 -16 705 -6 0 -44 -13 -85 -30z m49 -219 c0
-93 -3 -170 -8 -170 -11 0 -202 207 -202 219 0 21 162 119 198 121 9 0 12 -40
12 -170z m-121 -137 l115 -125 0 -176 c0 -209 0 -208 -104 -140 -81 53 -170
141 -194 192 -41 87 1 378 53 375 9 0 67 -57 130 -126z"/>
</g>
</svg>
