<?xml version="1.0" standalone="no"?>
<!DOCTYPE svg PUBLIC "-//W3C//DTD SVG 20010904//EN"
 "http://www.w3.org/TR/2001/REC-SVG-20010904/DTD/svg10.dtd">
<svg version="1.0" xmlns="http://www.w3.org/2000/svg"
 width="322.000000pt" height="590.000000pt" viewBox="0 0 322.000000 590.000000"
 preserveAspectRatio="xMidYMid meet">
<metadata>
Created by potrace 1.16, written by Peter Selinger 2001-2019
</metadata>
<g transform="translate(0.000000,590.000000) scale(0.500000,-0.500000)"
fill="#000000" stroke="none">
<path d="M576 1141 c-2 -1 -9 -4 -17 -8 -8 -4 -19 -7 -26 -8 -6 -1 -15 -3 -20
-5 -4 -2 -10 -4 -13 -4 -2 0 -8 -2 -12 -4 -15 -8 -26 -12 -30 -12 -5 0 -63
-29 -70 -35 -3 -2 -16 -10 -30 -17 -13 -7 -27 -15 -31 -18 -3 -3 -12 -8 -20
-12 -9 -4 -15 -9 -17 -13 -6 -10 -10 -15 -19 -19 -4 -2 -10 -7 -13 -11 -5 -8
-21 -19 -26 -19 -6 0 -66 62 -137 142 -17 18 -26 18 -44 -4 -23 -26 -23 -25
22 -69 20 -20 38 -39 40 -43 2 -4 18 -21 36 -39 37 -35 37 -36 27 -49 -3 -4
-11 -17 -17 -29 -6 -12 -15 -26 -19 -32 -12 -16 -25 -43 -27 -55 -1 -6 -3 -15
-5 -21 -13 -36 -12 -22 -13 -193 0 -165 0 -164 9 -183 2 -4 8 -20 13 -36 5
-15 11 -30 13 -33 2 -3 6 -10 8 -14 4 -10 94 -102 99 -102 2 0 10 -6 18 -14 9
-7 19 -15 23 -17 4 -2 10 -6 14 -9 4 -3 11 -7 15 -10 5 -3 13 -8 18 -11 5 -3
11 -8 14 -10 10 -5 20 -13 23 -16 1 -1 5 -5 7 -8 3 -3 7 -5 10 -5 3 0 13 -4
23 -9 9 -5 20 -9 22 -9 3 0 9 -2 14 -4 5 -2 11 -4 13 -4 7 0 15 -4 22 -10 5
-4 9 -6 15 -6 4 0 11 -2 16 -4 5 -2 12 -5 17 -5 4 -1 15 -4 24 -6 27 -9 48 -6
55 6 5 9 7 1087 2 1092 -4 4 -20 6 -26 4z m-37 -89 c4 -6 4 -413 1 -415 -5 -3
-13 5 -69 64 -32 34 -88 93 -124 130 -73 75 -72 74 -68 82 4 7 17 21 20 21 1
0 10 6 20 13 9 6 23 16 31 21 8 5 21 15 29 23 18 15 22 17 83 41 75 29 73 28
77 20z m-291 -206 c11 -10 36 -37 43 -47 7 -12 223 -231 233 -236 11 -6 18
-27 13 -38 -4 -7 -4 -22 -4 -209 -1 -218 0 -207 -12 -205 -15 2 -50 18 -72 32
-13 8 -27 16 -31 18 -9 3 -35 18 -37 21 -1 1 -5 4 -9 6 -5 2 -13 9 -19 14 -6
5 -14 11 -17 13 -4 1 -16 11 -27 20 -11 10 -27 23 -35 29 -33 25 -58 55 -74
86 -6 10 -15 25 -21 33 -12 15 -15 22 -21 55 -3 14 -4 25 -3 33 1 7 1 58 2
114 1 81 1 104 4 109 1 4 3 12 4 18 2 16 53 119 69 138 3 3 5 3 14 -4z"/>
</g>
</svg>
