<?xml version="1.0" standalone="no"?>
<!DOCTYPE svg PUBLIC "-//W3C//DTD SVG 20010904//EN"
 "http://www.w3.org/TR/2001/REC-SVG-20010904/DTD/svg10.dtd">
<svg version="1.0" xmlns="http://www.w3.org/2000/svg"
 width="80.000000pt" height="148.000000pt" viewBox="0 0 80.000000 148.000000"
 preserveAspectRatio="xMidYMid meet">
<metadata>
Created by potrace 1.16, written by Peter Selinger 2001-2019
</metadata>
<g transform="translate(0.000000,148.000000) scale(0.100000,-0.100000)"
fill="#000000" stroke="none">
<path d="M640 1401 c-41 -15 -88 -33 -104 -40 -56 -23 -151 -85 -196 -128 -25
-24 -50 -43 -56 -43 -5 0 -49 45 -98 100 -49 55 -92 100 -96 100 -16 0 -50
-48 -44 -63 3 -10 9 -17 13 -17 4 0 45 -41 90 -90 75 -82 82 -93 69 -108 -30
-35 -71 -117 -89 -176 -15 -49 -19 -95 -19 -238 0 -172 1 -179 30 -254 36 -95
89 -152 237 -260 84 -60 121 -80 207 -109 124 -42 153 -44 161 -12 3 12 4 323
3 692 -3 586 -5 670 -18 672 -8 0 -49 -11 -90 -26z m27 -606 c-4 -5 -37 24
-74 65 -37 41 -109 118 -160 171 -51 52 -93 100 -93 107 0 6 21 26 48 43 26
18 63 45 82 60 19 15 71 40 115 57 l80 30 5 -261 c3 -144 2 -266 -3 -272z
m-337 238 c18 -21 100 -108 183 -193 l149 -155 -1 -270 c-1 -148 -6 -273 -10
-278 -13 -13 -107 36 -227 117 -64 44 -184 159 -184 177 0 6 -10 25 -23 42
-21 31 -22 41 -22 227 l0 195 44 88 c24 48 47 87 51 87 4 0 23 -17 40 -37z"/>
</g>
</svg>
