<?xml version="1.0" standalone="no"?>
<!DOCTYPE svg PUBLIC "-//W3C//DTD SVG 20010904//EN"
 "http://www.w3.org/TR/2001/REC-SVG-20010904/DTD/svg10.dtd">
<svg version="1.0" xmlns="http://www.w3.org/2000/svg"
 width="208.000000pt" height="590.000000pt" viewBox="0 0 208.000000 590.000000"
 preserveAspectRatio="xMidYMid meet">
<metadata>
Created by potrace 1.16, written by Peter Selinger 2001-2019
</metadata>
<g transform="translate(0.000000,590.000000) scale(0.500000,-0.500000)"
fill="#000000" stroke="none">
<path d="M302 1129 c-7 -3 -30 -25 -40 -40 -4 -5 -14 -17 -23 -26 -9 -9 -20
-21 -24 -28 -4 -7 -14 -20 -20 -28 -7 -8 -14 -18 -16 -21 -2 -4 -12 -15 -22
-25 -12 -12 -20 -21 -22 -26 -2 -5 -6 -13 -9 -20 -3 -7 -7 -15 -8 -19 -2 -3
-8 -14 -14 -24 -14 -21 -24 -41 -29 -56 -2 -6 -7 -17 -10 -24 -4 -7 -8 -18 -9
-24 -1 -6 -3 -14 -4 -17 -1 -3 -2 -8 -2 -11 0 -8 -6 -39 -9 -47 -3 -10 -4
-129 0 -145 1 -7 3 -18 4 -25 1 -7 3 -19 6 -28 2 -9 5 -19 6 -24 1 -4 4 -13 7
-20 4 -8 6 -15 6 -23 0 -9 3 -23 8 -44 1 -4 5 -12 9 -18 8 -12 26 -48 28 -57
2 -8 35 -73 40 -79 2 -2 9 -12 14 -21 26 -45 32 -52 65 -86 23 -23 39 -37 52
-47 10 -7 22 -15 25 -18 30 -26 42 -26 58 0 10 17 9 25 -5 32 -30 15 -87 63
-102 86 -3 4 -10 12 -16 19 -6 7 -13 15 -15 18 -2 3 -7 10 -10 14 -4 4 -10 15
-14 23 -3 9 -9 20 -12 24 -7 10 -22 39 -24 46 -2 6 -17 39 -24 52 -3 5 -6 15
-8 22 -2 7 -5 18 -7 25 -17 48 -26 79 -26 87 0 5 -2 15 -4 22 -2 7 -4 18 -4
25 0 7 -1 16 -3 21 -4 11 -4 69 -1 77 2 3 3 20 4 38 1 22 3 34 5 39 2 5 3 13
3 19 0 8 1 13 6 22 3 6 6 13 6 15 0 5 4 13 15 28 9 14 24 42 26 50 1 3 7 12
15 20 7 8 15 18 18 22 8 12 22 30 31 40 4 5 14 18 22 29 8 11 18 24 22 29 5 5
11 13 15 18 8 12 39 43 51 51 37 24 10 76 -31 58z"/>
</g>
</svg>
