<?xml version="1.0" standalone="no"?>
<!DOCTYPE svg PUBLIC "-//W3C//DTD SVG 20010904//EN"
 "http://www.w3.org/TR/2001/REC-SVG-20010904/DTD/svg10.dtd">
<svg version="1.0" xmlns="http://www.w3.org/2000/svg"
 width="52.000000pt" height="148.000000pt" viewBox="0 0 52.000000 148.000000"
 preserveAspectRatio="xMidYMid meet">
<metadata>
Created by potrace 1.16, written by Peter Selinger 2001-2019
</metadata>
<g transform="translate(0.000000,148.000000) scale(0.100000,-0.100000)"
fill="#000000" stroke="none">
<path d="M327 1360 c-31 -33 -57 -62 -57 -66 0 -4 -21 -32 -47 -62 -45 -52
-57 -72 -113 -182 -50 -98 -60 -147 -60 -286 0 -94 4 -131 20 -174 11 -30 20
-68 20 -85 0 -16 9 -41 20 -55 11 -14 20 -29 20 -33 0 -19 64 -136 103 -192
48 -67 170 -175 199 -175 22 0 35 27 22 47 -5 8 -22 22 -38 31 -40 24 -96 76
-96 90 0 6 -8 16 -18 21 -17 9 -46 56 -84 136 -10 22 -28 57 -38 78 -11 22
-20 48 -20 58 0 11 -4 27 -9 37 -21 41 -33 103 -34 187 -2 109 4 205 14 225 4
8 10 22 13 30 24 64 225 331 264 349 12 6 25 18 28 26 7 17 -22 55 -41 55 -6
0 -37 -27 -68 -60z"/>
</g>
</svg>
