<?xml version="1.0" standalone="no"?>
<!DOCTYPE svg PUBLIC "-//W3C//DTD SVG 20010904//EN"
 "http://www.w3.org/TR/2001/REC-SVG-20010904/DTD/svg10.dtd">
<svg version="1.0" xmlns="http://www.w3.org/2000/svg"
 width="35.000000pt" height="100.000000pt" viewBox="0 0 35.000000 100.000000"
 preserveAspectRatio="xMidYMid meet">
<metadata>
Created by potrace 1.16, written by Peter Selinger 2001-2019
</metadata>
<g transform="translate(0.000000,100.000000) scale(0.100000,-0.100000)"
fill="#000000" stroke="none">
<path d="M179 878 c-83 -106 -116 -164 -134 -235 -45 -174 23 -410 160 -550
61 -63 97 -79 109 -48 3 10 -7 26 -26 43 -83 71 -140 162 -184 292 -28 83 -25
231 5 293 24 49 110 168 163 223 32 35 30 64 -6 64 -17 0 -41 -23 -87 -82z"/>
</g>
</svg>
