<?xml version="1.0" standalone="no"?>
<!DOCTYPE svg PUBLIC "-//W3C//DTD SVG 20010904//EN"
 "http://www.w3.org/TR/2001/REC-SVG-20010904/DTD/svg10.dtd">
<svg version="1.0" xmlns="http://www.w3.org/2000/svg"
 width="35.000000pt" height="100.000000pt" viewBox="0 0 35.000000 100.000000"
 preserveAspectRatio="xMidYMid meet">
<metadata>
Created by potrace 1.16, written by Peter Selinger 2001-2019
</metadata>
<g transform="translate(0.000000,100.000000) scale(0.100000,-0.100000)"
fill="#000000" stroke="none">
<path d="M37 963 c-17 -16 -3 -42 48 -86 129 -113 208 -362 165 -519 -13 -45
-93 -166 -155 -236 -25 -27 -45 -57 -45 -65 0 -17 24 -29 43 -21 24 10 151
180 181 244 27 57 31 78 34 170 5 129 -12 200 -74 321 -61 117 -168 222 -197
192z"/>
</g>
</svg>
