<?xml version="1.0" standalone="no"?>
<!DOCTYPE svg PUBLIC "-//W3C//DTD SVG 20010904//EN"
 "http://www.w3.org/TR/2001/REC-SVG-20010904/DTD/svg10.dtd">
<svg version="1.0" xmlns="http://www.w3.org/2000/svg"
 width="52.000000pt" height="148.000000pt" viewBox="0 0 52.000000 148.000000"
 preserveAspectRatio="xMidYMid meet">
<metadata>
Created by potrace 1.16, written by Peter Selinger 2001-2019
</metadata>
<g transform="translate(0.000000,148.000000) scale(0.100000,-0.100000)"
fill="#000000" stroke="none">
<path d="M66 1411 c-25 -27 -19 -45 20 -66 40 -21 145 -133 171 -181 73 -135
110 -237 133 -373 9 -53 7 -150 -5 -256 -2 -21 -15 -49 -55 -120 -32 -56 -142
-197 -203 -259 -57 -57 -57 -59 -42 -83 9 -13 24 -23 33 -21 23 4 206 222 239
283 93 175 103 213 103 374 0 81 -5 123 -20 167 -11 32 -20 70 -20 84 0 14 -6
34 -14 45 -7 11 -26 49 -42 85 -54 125 -143 238 -245 313 -35 25 -37 25 -53 8z"/>
</g>
</svg>
