<?xml version="1.0" standalone="no"?>
<!DOCTYPE svg PUBLIC "-//W3C//DTD SVG 20010904//EN"
 "http://www.w3.org/TR/2001/REC-SVG-20010904/DTD/svg10.dtd">
<svg version="1.0" xmlns="http://www.w3.org/2000/svg"
 width="208.000000pt" height="590.000000pt" viewBox="0 0 208.000000 590.000000"
 preserveAspectRatio="xMidYMid meet">
<metadata>
Created by potrace 1.16, written by Peter Selinger 2001-2019
</metadata>
<g transform="translate(0.000000,590.000000) scale(0.500000,-0.500000)"
fill="#000000" stroke="none">
<path d="M57 1136 c-18 -15 -24 -48 -8 -48 12 0 88 -63 103 -86 3 -4 10 -12
16 -19 6 -7 13 -15 15 -18 2 -3 7 -10 10 -14 4 -5 9 -14 12 -20 3 -7 10 -20
16 -31 6 -10 15 -26 18 -35 8 -17 13 -29 26 -57 5 -9 9 -21 10 -25 1 -4 5 -20
10 -34 17 -49 23 -69 23 -79 0 -6 1 -13 3 -18 2 -4 4 -16 5 -26 1 -10 3 -22 4
-25 3 -7 3 -67 0 -74 -2 -3 -3 -20 -4 -38 -1 -21 -2 -34 -4 -37 -1 -3 -3 -12
-4 -20 -1 -11 -3 -17 -6 -22 -2 -3 -5 -9 -5 -13 -2 -10 -5 -15 -16 -31 -9 -13
-17 -29 -26 -48 -2 -6 -10 -17 -16 -24 -11 -12 -16 -18 -32 -42 -4 -5 -10 -12
-14 -16 -3 -4 -10 -12 -14 -18 -4 -6 -9 -13 -12 -16 -2 -3 -6 -8 -9 -12 -2 -4
-7 -10 -10 -13 -4 -3 -9 -10 -12 -15 -8 -13 -43 -47 -54 -54 -18 -12 -24 -25
-16 -41 16 -32 53 -25 81 16 3 5 14 18 24 28 10 10 22 24 26 30 4 7 14 20 21
28 7 9 14 19 17 23 2 4 12 15 23 26 10 10 20 22 21 26 2 4 6 12 9 19 3 7 7 15
8 19 2 3 8 14 14 23 13 20 25 43 29 57 2 6 6 17 10 24 4 7 7 16 8 20 1 4 3 13
4 20 2 7 4 22 6 33 2 11 5 25 6 32 4 17 4 124 0 139 -1 6 -3 17 -4 25 -1 8 -3
20 -5 27 -3 7 -6 18 -7 24 -1 6 -5 16 -8 23 -3 8 -5 16 -5 23 0 5 -1 16 -3 23
-2 6 -4 15 -5 19 -1 4 -6 13 -10 20 -9 14 -25 46 -27 55 -3 11 -31 68 -40 79
-5 6 -10 15 -13 20 -21 42 -79 107 -120 135 -9 7 -21 15 -26 19 -21 17 -33 21
-43 14z"/>
</g>
</svg>
