<?xml version="1.0" standalone="no"?>
<!DOCTYPE svg PUBLIC "-//W3C//DTD SVG 20010904//EN"
 "http://www.w3.org/TR/2001/REC-SVG-20010904/DTD/svg10.dtd">
<svg version="1.0" xmlns="http://www.w3.org/2000/svg"
 width="35.000000pt" height="100.000000pt" viewBox="0 0 35.000000 100.000000"
 preserveAspectRatio="xMidYMid meet">
<metadata>
Created by potrace 1.16, written by Peter Selinger 2001-2019
</metadata>
<g transform="translate(0.000000,100.000000) scale(0.100000,-0.100000)"
fill="#000000" stroke="none">
<path d="M37 963 c-16 -16 -3 -37 68 -106 93 -92 94 -104 20 -177 -60 -59 -65
-74 -35 -90 17 -9 26 -4 67 40 25 27 52 50 58 50 19 0 45 -131 45 -224 0 -64
-5 -91 -24 -131 -24 -53 -128 -197 -164 -229 -36 -31 -20 -77 21 -60 24 10
151 180 181 244 27 57 31 78 34 165 6 182 -54 343 -173 462 -59 59 -82 72 -98
56z"/>
</g>
</svg>
