<?xml version="1.0" standalone="no"?>
<!DOCTYPE svg PUBLIC "-//W3C//DTD SVG 20010904//EN"
 "http://www.w3.org/TR/2001/REC-SVG-20010904/DTD/svg10.dtd">
<svg version="1.0" xmlns="http://www.w3.org/2000/svg"
 width="47.000000pt" height="100.000000pt" viewBox="0 0 47.000000 100.000000"
 preserveAspectRatio="xMidYMid meet">
<metadata>
Created by potrace 1.16, written by Peter Selinger 2001-2019
</metadata>
<g transform="translate(0.000000,100.000000) scale(0.100000,-0.100000)"
fill="#000000" stroke="none">
<path d="M253 941 c-91 -66 -185 -233 -209 -374 -29 -167 5 -279 135 -443 66
-85 86 -100 107 -83 21 17 17 33 -15 66 -57 61 -143 183 -162 232 -30 79 -26
179 12 298 17 54 36 104 43 111 7 7 58 16 128 21 125 9 138 13 138 39 0 23
-101 156 -121 160 -8 1 -34 -11 -56 -27z m82 -68 c14 -21 21 -41 16 -46 -16
-16 -127 -21 -136 -7 -8 13 64 90 84 90 6 0 22 -17 36 -37z"/>
</g>
</svg>
