<?xml version="1.0" standalone="no"?>
<!DOCTYPE svg PUBLIC "-//W3C//DTD SVG 20010904//EN"
 "http://www.w3.org/TR/2001/REC-SVG-20010904/DTD/svg10.dtd">
<svg version="1.0" xmlns="http://www.w3.org/2000/svg"
 width="282.000000pt" height="590.000000pt" viewBox="0 0 282.000000 590.000000"
 preserveAspectRatio="xMidYMid meet">
<metadata>
Created by potrace 1.16, written by Peter Selinger 2001-2019
</metadata>
<g transform="translate(0.000000,590.000000) scale(0.500000,-0.500000)"
fill="#000000" stroke="none">
<path d="M347 1137 c-4 -1 -12 -7 -19 -13 -7 -6 -20 -16 -29 -22 -39 -26 -99
-94 -121 -136 -3 -5 -8 -13 -12 -18 -8 -9 -37 -66 -42 -81 -3 -10 -19 -42 -30
-58 -8 -13 -13 -34 -16 -61 -1 -8 -3 -18 -7 -25 -3 -6 -5 -13 -5 -15 0 -2 -3
-12 -6 -22 -3 -11 -6 -23 -6 -29 0 -6 -1 -15 -3 -20 -4 -12 -4 -141 -1 -150 1
-3 3 -12 4 -20 1 -8 3 -18 4 -24 3 -19 9 -40 17 -60 5 -11 10 -24 12 -30 4
-12 12 -27 27 -49 7 -10 13 -21 14 -25 1 -5 5 -12 7 -17 3 -5 7 -13 9 -18 2
-6 11 -16 22 -27 10 -10 20 -21 22 -25 2 -4 10 -15 18 -24 8 -9 17 -21 20 -27
4 -6 11 -15 16 -19 10 -9 19 -20 35 -41 26 -33 49 -43 69 -29 23 17 21 39 -6
58 -15 10 -40 33 -47 45 -3 4 -10 13 -15 19 -9 10 -20 25 -32 42 -4 5 -10 13
-15 18 -8 9 -21 26 -34 45 -3 4 -11 14 -17 20 -7 7 -12 14 -12 15 0 6 -16 37
-28 54 -7 10 -12 20 -13 25 -1 4 -3 12 -6 16 -3 5 -5 13 -6 22 -1 7 -2 17 -4
21 -2 4 -3 14 -3 33 0 21 -1 29 -3 36 -3 8 -4 17 -4 43 0 26 1 35 4 43 2 5 3
15 3 23 0 8 1 16 2 19 2 2 3 11 4 19 2 15 7 35 23 80 4 12 9 27 10 34 2 7 6
18 10 26 3 7 8 16 9 21 1 4 5 11 7 16 3 4 5 9 5 10 0 6 23 49 27 52 5 3 7 3
26 -1 19 -4 23 -4 34 -2 6 1 21 2 31 3 10 1 25 2 33 3 7 1 30 3 50 5 20 2 41
4 47 5 6 1 21 2 33 3 29 2 35 3 46 14 15 14 13 26 -12 59 -8 10 -33 45 -56 78
-50 69 -60 76 -90 63z m28 -61 c10 -13 63 -88 66 -94 4 -11 1 -12 -49 -17 -16
-2 -39 -4 -51 -6 -26 -3 -39 -4 -49 -1 -4 1 -15 3 -25 5 -23 4 -26 6 -18 15 3
4 11 15 19 25 8 11 18 22 23 25 5 4 13 11 17 16 23 28 57 44 67 32z"/>
</g>
</svg>
