<?xml version="1.0" standalone="no"?>
<!DOCTYPE svg PUBLIC "-//W3C//DTD SVG 20010904//EN"
 "http://www.w3.org/TR/2001/REC-SVG-20010904/DTD/svg10.dtd">
<svg version="1.0" xmlns="http://www.w3.org/2000/svg"
 width="480.000000pt" height="1364.000000pt" viewBox="0 0 480.000000 1364.000000"
 preserveAspectRatio="xMidYMid meet">
<metadata>
Created by potrace 1.16, written by Peter Selinger 2001-2019
</metadata>
<g transform="translate(0.000000,1364.000000) scale(0.500000,-0.500000)"
fill="#000000" stroke="none">
<path d="M313 2618 c-6 -5 -13 -26 -26 -79 -5 -21 -12 -46 -15 -56 -3 -10 -7
-25 -9 -34 -1 -9 -5 -23 -9 -32 -3 -9 -7 -22 -8 -29 -2 -7 -6 -21 -9 -31 -4
-10 -8 -25 -10 -34 -9 -47 -23 -74 -37 -72 -20 3 -26 1 -39 -19 -5 -7 -11 -16
-15 -19 -17 -16 -12 -32 15 -42 8 -3 21 -10 29 -15 7 -6 17 -12 21 -14 4 -3
16 -10 26 -17 10 -7 22 -14 27 -17 5 -3 13 -11 19 -20 7 -9 16 -19 21 -22 16
-12 50 -46 57 -59 10 -17 17 -25 38 -47 10 -10 23 -26 28 -34 5 -8 14 -20 20
-27 13 -13 16 -18 19 -33 2 -11 14 -35 22 -46 14 -18 45 -81 52 -105 2 -8 6
-17 9 -21 9 -13 15 -24 15 -29 0 -4 7 -20 29 -63 6 -11 8 -18 9 -31 1 -9 4
-21 7 -28 2 -7 5 -15 6 -20 1 -4 3 -12 6 -18 2 -6 5 -14 6 -17 1 -4 4 -12 6
-19 3 -6 7 -18 9 -25 2 -7 5 -17 8 -23 11 -28 15 -45 14 -65 0 -18 0 -21 6
-35 6 -15 7 -17 8 -51 1 -35 1 -35 8 -46 10 -19 10 -138 -1 -161 -8 -15 -8
-15 -8 -73 0 -57 0 -57 -6 -69 -5 -11 -6 -14 -7 -39 -1 -27 -1 -27 -12 -43
-10 -14 -11 -16 -12 -28 0 -16 -3 -21 -14 -37 -32 -44 -51 -78 -63 -114 -6
-16 -7 -18 -28 -40 -12 -13 -27 -31 -33 -40 -6 -9 -16 -22 -22 -29 -6 -7 -13
-17 -17 -23 -3 -6 -14 -20 -25 -31 -11 -11 -21 -24 -24 -29 -2 -5 -11 -17 -19
-26 -8 -10 -18 -23 -22 -30 -4 -7 -16 -21 -26 -32 -10 -11 -21 -25 -25 -31
-10 -20 -82 -91 -101 -100 -42 -22 -49 -54 -16 -86 23 -23 46 -25 70 -7 17 13
48 45 55 57 4 6 14 19 23 29 9 9 20 22 24 28 5 9 11 14 19 19 15 9 24 21 38
47 7 14 13 22 19 27 5 4 12 12 16 18 4 5 12 15 18 21 8 8 12 14 14 23 3 9 6
14 12 19 67 62 75 71 81 90 2 8 8 21 13 28 6 9 9 17 11 25 3 15 29 59 49 84 3
3 8 11 11 18 4 7 9 17 13 23 4 6 8 16 10 23 5 20 11 32 27 64 13 28 15 32 16
46 1 11 3 19 6 25 4 7 5 13 6 31 1 15 3 26 6 34 3 8 5 18 5 29 0 14 2 20 6 30
9 21 9 270 0 289 -5 11 -6 14 -6 36 0 23 -1 25 -10 51 -5 15 -11 36 -13 48 -2
11 -6 25 -9 30 -2 5 -7 14 -11 21 -6 11 -6 12 -6 37 0 22 -1 26 -5 37 -3 7 -6
19 -7 27 -2 21 -10 38 -23 55 -13 16 -49 86 -53 102 -1 6 -10 26 -20 45 -23
47 -24 58 -6 103 4 11 15 40 24 64 9 24 18 49 20 54 3 6 7 18 10 27 3 9 8 22
10 27 3 6 8 18 11 28 3 10 7 22 10 27 2 5 6 16 9 24 2 8 7 19 9 25 3 5 8 17
10 25 6 18 23 62 29 73 2 5 5 12 6 17 2 10 13 40 23 60 12 26 8 42 -13 49 -5
1 -14 5 -21 8 -22 10 -36 -3 -46 -42 -2 -8 -6 -18 -8 -23 -3 -5 -7 -18 -10
-28 -3 -11 -7 -23 -9 -28 -4 -10 -10 -25 -30 -82 -8 -21 -18 -50 -23 -64 -5
-14 -13 -35 -17 -47 -4 -12 -10 -26 -12 -32 -3 -5 -7 -16 -9 -23 -2 -7 -5 -17
-8 -22 -2 -5 -7 -17 -10 -27 -16 -52 -30 -63 -45 -33 -4 7 -10 17 -14 23 -13
21 -13 25 15 102 10 26 19 55 22 63 2 8 7 21 10 29 4 8 8 20 10 27 2 7 5 17 8
22 3 5 7 17 9 25 3 9 7 21 9 27 3 5 6 16 8 23 2 6 7 18 10 26 4 8 9 20 11 28
3 8 10 29 17 47 7 18 13 33 13 34 0 1 4 10 8 20 18 38 12 58 -20 64 -29 5 -45
-6 -53 -37 -2 -10 -7 -25 -10 -34 -4 -9 -8 -22 -11 -30 -5 -18 -13 -43 -28
-86 -7 -19 -14 -39 -16 -45 -2 -6 -8 -25 -14 -42 -6 -17 -13 -38 -15 -46 -3
-8 -8 -22 -11 -30 -4 -8 -9 -23 -11 -32 -17 -56 -37 -68 -55 -33 -9 18 -8 23
21 111 4 12 8 27 10 35 1 8 5 19 8 25 3 6 7 18 9 28 2 9 7 24 10 31 3 8 8 22
10 31 2 9 7 23 10 31 3 7 8 20 9 28 2 7 12 40 23 72 27 78 27 79 -15 99 -29
14 -38 9 -45 -30 -2 -11 -6 -26 -8 -32 -2 -6 -6 -18 -8 -28 -2 -9 -6 -24 -9
-32 -3 -8 -8 -26 -11 -39 -3 -13 -10 -34 -13 -46 -4 -12 -10 -31 -13 -43 -3
-12 -8 -28 -12 -37 -3 -9 -7 -22 -8 -29 -1 -7 -4 -18 -7 -24 -3 -6 -6 -16 -7
-22 -11 -54 -28 -62 -61 -32 -19 18 -20 23 -12 53 3 10 7 27 10 37 3 10 8 27
11 36 4 9 8 25 10 35 2 10 7 25 10 34 4 9 8 24 10 33 2 10 7 25 10 34 3 9 7
23 9 31 2 7 6 20 9 27 3 7 8 22 10 32 2 10 7 25 10 32 17 39 14 46 -26 58 -22
7 -30 7 -37 2z"/>
</g>
</svg>
