<?xml version="1.0" standalone="no"?>
<!DOCTYPE svg PUBLIC "-//W3C//DTD SVG 20010904//EN"
 "http://www.w3.org/TR/2001/REC-SVG-20010904/DTD/svg10.dtd">
<svg version="1.0" xmlns="http://www.w3.org/2000/svg"
 width="120.000000pt" height="342.000000pt" viewBox="0 0 120.000000 342.000000"
 preserveAspectRatio="xMidYMid meet">
<metadata>
Created by potrace 1.16, written by Peter Selinger 2001-2019
</metadata>
<g transform="translate(0.000000,342.000000) scale(0.100000,-0.100000)"
fill="#000000" stroke="none">
<path d="M381 3258 c-5 -13 -19 -61 -31 -108 -36 -136 -71 -262 -85 -300 -10
-27 -18 -35 -38 -35 -16 -1 -35 -12 -49 -30 -28 -36 -29 -45 -3 -59 81 -44
159 -103 210 -158 98 -106 175 -204 187 -240 6 -18 17 -40 24 -48 12 -15 76
-149 118 -250 45 -106 105 -316 117 -405 22 -168 5 -523 -26 -572 -8 -12 -15
-30 -15 -40 0 -10 -18 -45 -40 -78 -22 -33 -45 -76 -51 -95 -7 -19 -28 -53
-48 -76 -34 -38 -56 -67 -201 -257 -49 -63 -153 -173 -217 -227 -30 -25 -29
-36 6 -71 42 -41 67 -37 120 19 93 98 251 294 251 311 0 5 20 26 45 47 40 32
95 120 95 150 0 5 23 43 50 83 28 41 53 86 57 100 3 14 15 44 26 66 22 43 37
92 43 140 2 17 9 53 16 80 15 66 15 364 0 440 -16 82 -40 165 -51 179 -5 6
-11 31 -14 56 -9 77 -23 124 -48 160 -13 20 -32 56 -42 80 -11 25 -30 68 -43
96 -13 28 -24 59 -24 69 0 10 30 98 66 194 82 218 121 323 141 381 8 25 19 49
24 55 20 21 9 46 -28 61 -45 19 -52 13 -82 -80 -10 -33 -38 -113 -61 -176 -23
-63 -59 -162 -80 -220 -20 -57 -42 -106 -48 -108 -10 -3 -62 68 -62 85 0 5 13
42 29 83 16 41 57 154 91 250 34 96 71 196 82 222 16 36 17 51 8 67 -12 24
-64 29 -77 9 -7 -13 -119 -336 -149 -433 -32 -102 -62 -129 -83 -77 -10 24 -8
40 12 103 13 41 41 128 61 194 20 66 50 155 66 199 l28 78 -24 25 c-34 34 -66
28 -78 -17 -5 -19 -27 -96 -48 -170 -22 -74 -50 -172 -62 -218 -29 -103 -37
-113 -73 -86 -48 36 -48 42 -10 165 19 63 43 141 52 174 10 33 28 92 41 130
l24 70 -21 18 c-30 24 -67 22 -78 -5z"/>
</g>
</svg>
