<?xml version="1.0" standalone="no"?>
<!DOCTYPE svg PUBLIC "-//W3C//DTD SVG 20010904//EN"
 "http://www.w3.org/TR/2001/REC-SVG-20010904/DTD/svg10.dtd">
<svg version="1.0" xmlns="http://www.w3.org/2000/svg"
 width="35.000000pt" height="100.000000pt" viewBox="0 0 35.000000 100.000000"
 preserveAspectRatio="xMidYMid meet">
<metadata>
Created by potrace 1.16, written by Peter Selinger 2001-2019
</metadata>
<g transform="translate(0.000000,100.000000) scale(0.100000,-0.100000)"
fill="#000000" stroke="none">
<path d="M96 944 c-3 -9 -6 -24 -6 -33 0 -10 -10 -38 -23 -64 l-24 -46 50 -48
c84 -81 141 -220 141 -343 1 -94 -25 -151 -119 -263 -54 -64 -64 -81 -54 -93
6 -8 17 -14 25 -14 17 0 112 119 155 195 34 59 34 62 34 180 -1 109 -4 126
-29 188 l-28 68 31 85 c35 98 38 117 15 112 -10 -2 -26 -29 -39 -67 -25 -69
-45 -98 -45 -66 0 11 14 51 30 89 30 71 31 86 3 86 -9 0 -21 7 -28 17 -19 25
-31 9 -44 -56 -12 -62 -31 -91 -31 -48 0 14 7 44 15 68 9 24 13 49 11 56 -7
18 -33 16 -40 -3z"/>
</g>
</svg>
