<?xml version="1.0" standalone="no"?>
<!DOCTYPE svg PUBLIC "-//W3C//DTD SVG 20010904//EN"
 "http://www.w3.org/TR/2001/REC-SVG-20010904/DTD/svg10.dtd">
<svg version="1.0" xmlns="http://www.w3.org/2000/svg"
 width="944.000000pt" height="1500.000000pt" viewBox="0 0 944.000000 1500.000000"
 preserveAspectRatio="xMidYMid meet">
<metadata>
Created by potrace 1.16, written by Peter Selinger 2001-2019
</metadata>
<g transform="translate(0.000000,1500.000000) scale(0.500000,-0.500000)"
fill="#000000" stroke="none">
<path d="M217 2816 c-8 -3 -16 -11 -27 -32 -5 -9 -13 -21 -17 -26 -24 -26 -16
-49 21 -58 17 -4 26 -8 30 -13 5 -6 23 -18 37 -26 8 -4 19 -11 25 -16 5 -4 17
-12 26 -17 18 -10 28 -20 41 -41 6 -11 10 -14 21 -21 20 -12 62 -55 69 -72 6
-13 35 -45 62 -70 6 -6 12 -14 17 -26 7 -13 12 -20 23 -31 19 -19 21 -22 23
-38 1 -9 3 -16 8 -23 3 -5 7 -14 10 -20 2 -6 8 -15 14 -22 7 -7 14 -18 22 -34
6 -12 13 -27 16 -32 3 -5 7 -13 9 -19 2 -5 6 -14 10 -20 5 -7 7 -12 7 -18 0
-14 4 -23 15 -35 11 -12 15 -22 15 -36 0 -4 2 -10 6 -15 4 -5 8 -14 10 -20 3
-5 6 -12 8 -15 14 -21 24 -47 24 -63 0 -15 1 -19 6 -29 3 -6 6 -17 8 -23 1 -7
5 -18 8 -25 3 -6 7 -18 9 -27 2 -9 5 -19 7 -22 9 -14 10 -18 12 -31 1 -8 4
-16 7 -22 3 -6 5 -12 5 -17 0 -5 3 -13 7 -23 8 -15 8 -15 7 -43 0 -35 1 -41 9
-53 9 -13 9 -14 10 -62 0 -41 0 -41 8 -52 l8 -11 0 -88 c0 -96 1 -87 -12 -108
-5 -8 -5 -8 -5 -82 l0 -74 -9 -14 c-9 -14 -9 -14 -9 -47 1 -38 -1 -44 -14 -54
-11 -9 -14 -17 -14 -37 0 -21 -2 -25 -19 -45 -7 -8 -14 -18 -16 -23 -2 -6 -7
-14 -14 -21 -6 -7 -11 -15 -13 -20 -1 -5 -5 -13 -9 -19 -11 -18 -25 -49 -27
-63 -2 -15 -3 -17 -38 -51 -19 -19 -30 -31 -32 -37 -6 -12 -15 -25 -30 -41 -8
-8 -17 -21 -22 -30 -7 -12 -14 -22 -32 -40 -18 -19 -25 -27 -30 -38 -5 -9 -12
-19 -25 -33 -14 -15 -19 -22 -22 -30 -3 -9 -8 -16 -31 -40 -25 -25 -29 -30
-33 -42 -8 -21 -103 -115 -125 -123 -60 -23 -66 -80 -14 -120 33 -25 77 -18
100 17 5 8 11 14 21 20 15 10 22 19 27 35 2 6 10 15 27 33 18 18 26 28 29 35
6 13 9 16 23 23 15 8 37 30 41 41 1 4 5 12 8 17 3 5 8 14 11 20 4 10 7 13 16
19 7 5 13 11 19 21 5 7 14 18 21 25 15 15 23 28 23 37 0 12 4 18 16 24 32 19
94 88 94 106 0 12 1 15 16 32 10 10 14 20 14 32 0 4 2 11 5 16 3 5 8 14 10 21
3 7 9 16 16 23 6 7 13 17 16 23 3 6 10 17 16 23 7 8 11 15 13 21 1 5 6 15 11
21 5 7 9 14 9 14 0 1 4 10 8 21 4 10 8 22 8 26 0 5 4 15 14 34 8 16 14 29 14
30 0 2 4 8 9 15 8 13 8 13 9 35 1 21 2 23 8 33 7 11 7 11 7 37 0 26 0 26 7 40
7 14 7 14 6 37 0 20 0 24 4 30 13 23 12 7 12 186 0 173 1 167 -9 179 -6 8 -6
8 -6 42 0 34 0 34 -7 51 -4 10 -8 22 -9 26 -1 5 -4 13 -7 18 -4 8 -5 13 -6 31
-1 21 -1 22 -9 34 -5 7 -10 15 -11 19 -1 4 -4 10 -7 13 -7 11 -9 21 -8 51 2
28 2 28 -5 41 -6 13 -7 16 -7 33 0 18 -1 20 -7 31 -4 7 -9 16 -12 21 -2 6 -10
16 -17 24 -8 9 -13 17 -15 22 -1 5 -7 18 -13 29 -5 11 -12 24 -14 29 -2 5 -7
14 -10 20 -6 9 -8 15 -9 25 -1 12 -3 17 -8 26 -4 7 -10 18 -13 26 -3 8 -8 19
-12 25 -3 6 -11 22 -18 35 -6 13 -14 29 -16 34 -3 6 -9 16 -12 23 -4 8 -10 17
-15 21 -16 14 -27 28 -31 38 -7 20 -17 38 -27 51 -6 7 -13 17 -15 23 -2 5 -10
17 -18 28 -8 10 -16 23 -19 28 -9 19 -171 181 -190 190 -9 4 -19 11 -23 15 -4
5 -14 11 -21 15 -10 5 -19 12 -34 27 -14 14 -23 21 -31 25 -7 3 -14 9 -19 14
-11 13 -24 17 -39 13z"/>
<path d="M1014 2816 c-10 -2 -12 -5 -35 -46 -3 -5 -8 -12 -10 -13 -25 -17 -12
-49 23 -57 15 -4 20 -6 28 -13 20 -15 29 -22 39 -26 6 -3 15 -9 20 -13 6 -5
18 -13 28 -19 18 -10 34 -25 41 -39 6 -12 11 -17 26 -26 20 -12 59 -53 67 -72
6 -11 12 -19 39 -46 27 -28 33 -36 39 -48 5 -10 12 -20 24 -32 19 -19 23 -27
23 -41 0 -6 2 -11 7 -19 4 -6 8 -15 10 -20 2 -6 8 -15 14 -22 10 -11 47 -79
47 -87 0 -1 4 -8 9 -16 8 -11 9 -15 9 -23 0 -13 2 -18 15 -33 11 -13 12 -15
14 -31 0 -7 3 -13 7 -20 4 -6 8 -13 9 -16 1 -3 8 -18 17 -34 15 -29 15 -29 15
-47 1 -15 2 -20 7 -31 3 -7 6 -16 6 -20 0 -5 3 -14 8 -23 4 -10 9 -22 11 -32
1 -8 4 -18 6 -21 8 -9 10 -17 12 -29 0 -8 3 -16 7 -24 4 -7 6 -14 6 -19 0 -6
2 -12 7 -20 6 -11 6 -11 7 -48 1 -37 1 -37 9 -49 8 -12 8 -12 8 -53 0 -52 0
-47 9 -60 l8 -11 0 -88 c0 -88 0 -88 -5 -96 -14 -23 -14 -18 -12 -94 2 -76 2
-74 -12 -93 -5 -6 -5 -8 -5 -39 0 -39 -1 -43 -15 -57 -12 -13 -16 -23 -14 -41
2 -14 -1 -20 -18 -40 -10 -11 -16 -20 -18 -26 -2 -7 -6 -13 -11 -18 -8 -8 -16
-20 -16 -25 0 -2 -3 -8 -7 -13 -4 -6 -7 -11 -7 -12 0 0 -4 -9 -9 -20 -5 -11
-10 -23 -11 -31 -3 -16 -1 -13 -35 -49 -21 -21 -32 -33 -36 -41 -8 -15 -21
-33 -32 -43 -5 -5 -14 -17 -20 -28 -8 -14 -17 -25 -33 -41 -16 -16 -23 -25
-28 -35 -4 -8 -13 -20 -25 -35 -15 -16 -21 -24 -24 -32 -3 -9 -8 -15 -31 -39
-24 -25 -28 -29 -32 -40 -5 -14 -14 -24 -82 -89 -29 -29 -34 -32 -44 -35 -77
-23 -49 -140 33 -135 22 2 44 15 55 34 5 7 9 12 17 16 16 9 22 16 27 30 4 11
8 17 29 38 17 17 26 29 31 37 6 14 9 17 23 24 16 8 30 21 37 37 4 7 10 18 13
23 4 6 8 14 11 19 2 7 7 12 15 18 7 5 14 13 20 22 5 7 13 17 18 22 15 14 25
31 25 41 0 10 3 15 16 23 11 6 76 68 87 82 4 6 6 11 7 23 1 14 1 15 11 25 13
14 15 18 17 34 1 9 3 16 7 21 3 5 7 13 9 19 3 6 9 16 15 23 6 6 14 17 17 24 3
7 10 17 16 23 5 7 11 16 13 21 2 6 8 16 12 23 5 7 9 13 9 14 0 2 3 9 7 18 4 8
7 20 8 26 1 11 9 27 20 46 3 5 6 13 8 18 2 5 6 14 11 20 7 10 7 11 8 32 1 21
2 25 11 37 3 5 4 8 4 33 0 27 0 27 7 41 7 13 7 14 5 34 -1 20 -1 20 8 37 l8
17 1 162 c0 178 1 167 -12 183 -4 5 -4 8 -5 41 0 34 0 37 -6 49 -3 6 -6 18 -8
25 -2 7 -5 17 -8 22 -5 9 -6 13 -7 31 -1 19 -2 22 -6 28 -20 26 -28 52 -27 85
0 32 0 32 -6 43 -5 10 -6 14 -7 32 -1 25 -14 51 -36 76 -8 10 -13 18 -17 28
-3 8 -9 21 -13 28 -5 8 -10 18 -12 24 -2 6 -7 15 -10 21 -5 7 -7 12 -8 24 -1
13 -3 17 -9 26 -3 5 -10 18 -14 28 -4 10 -9 21 -12 25 -4 7 -18 34 -31 62 -14
30 -21 41 -38 58 -13 13 -18 20 -21 27 -7 19 -19 42 -28 53 -5 6 -12 17 -16
25 -4 8 -13 21 -20 30 -6 9 -14 20 -16 25 -4 7 -18 23 -46 52 -23 23 -62 61
-86 86 -38 38 -45 45 -57 50 -7 4 -18 11 -23 16 -6 5 -16 13 -23 16 -9 5 -19
13 -34 27 -14 14 -25 22 -31 25 -5 2 -13 8 -18 14 -12 13 -22 16 -39 12z"/>
</g>
</svg>
