<?xml version="1.0" standalone="no"?>
<!DOCTYPE svg PUBLIC "-//W3C//DTD SVG 20010904//EN"
 "http://www.w3.org/TR/2001/REC-SVG-20010904/DTD/svg10.dtd">
<svg version="1.0" xmlns="http://www.w3.org/2000/svg"
 width="236.000000pt" height="376.000000pt" viewBox="0 0 236.000000 376.000000"
 preserveAspectRatio="xMidYMid meet">
<metadata>
Created by potrace 1.16, written by Peter Selinger 2001-2019
</metadata>
<g transform="translate(0.000000,376.000000) scale(0.100000,-0.100000)"
fill="#000000" stroke="none">
<path d="M249 3498 c-6 -13 -20 -33 -31 -45 -26 -28 -19 -56 17 -68 38 -13
195 -114 195 -125 0 -5 28 -38 63 -73 56 -59 103 -113 186 -217 15 -19 31 -47
34 -61 4 -14 18 -43 33 -65 15 -21 40 -68 56 -104 16 -36 38 -83 48 -105 10
-22 32 -68 49 -102 17 -34 31 -72 31 -85 1 -24 43 -154 54 -165 3 -4 6 -17 6
-29 0 -13 4 -25 9 -28 12 -8 26 -83 22 -119 -1 -16 5 -40 14 -54 13 -19 16
-38 12 -73 -4 -33 -1 -54 8 -66 20 -26 21 -232 1 -259 -10 -14 -12 -41 -8
-105 4 -71 1 -91 -13 -113 -12 -19 -15 -37 -11 -60 5 -26 1 -40 -14 -60 -11
-14 -20 -39 -20 -55 0 -17 -5 -34 -10 -37 -24 -15 -110 -166 -110 -192 0 -7
-21 -38 -48 -68 -68 -79 -97 -117 -112 -145 -7 -14 -21 -30 -30 -37 -9 -6 -29
-32 -45 -57 -16 -25 -32 -46 -37 -46 -4 0 -15 -16 -24 -35 -9 -20 -25 -40 -35
-46 -11 -5 -28 -26 -38 -47 -23 -45 -123 -144 -168 -166 -61 -30 -69 -78 -22
-125 45 -46 77 -42 139 17 27 26 50 52 50 56 0 5 18 28 40 52 22 24 40 47 40
51 0 5 13 16 29 25 17 9 39 34 49 55 11 21 41 61 66 88 25 28 46 57 46 65 0 8
32 43 70 78 43 39 70 71 70 84 0 11 9 31 20 45 11 14 20 33 20 43 0 9 25 54
55 99 30 46 62 104 71 130 8 25 27 70 42 99 14 30 25 63 25 75 -1 12 2 26 6
32 5 5 11 30 15 55 14 109 19 136 27 144 13 14 12 433 -1 441 -5 3 -10 27 -10
53 0 26 -9 71 -20 100 -11 29 -20 61 -20 72 0 12 -8 33 -17 47 -10 15 -21 54
-25 87 -10 95 -24 146 -47 175 -24 29 -81 142 -81 159 0 21 -111 236 -134 262
-13 14 -39 55 -59 91 -20 36 -43 72 -52 79 -8 7 -15 18 -15 24 0 17 -218 228
-270 261 -25 16 -68 49 -96 72 -58 49 -78 53 -95 21z"/>
<path d="M1243 3493 c-9 -16 -25 -37 -35 -49 -25 -28 -14 -52 28 -60 19 -3 37
-10 40 -15 2 -5 31 -25 62 -46 103 -67 372 -366 372 -412 0 -9 15 -39 33 -67
17 -28 45 -80 61 -115 15 -35 32 -71 37 -79 5 -8 14 -26 20 -40 6 -14 24 -54
41 -90 16 -36 28 -70 27 -75 -3 -13 10 -66 22 -87 5 -10 9 -24 9 -32 0 -8 7
-27 14 -43 25 -47 46 -129 46 -177 0 -25 5 -48 10 -51 6 -3 10 -34 10 -69 0
-34 5 -67 11 -73 14 -14 15 -241 0 -256 -7 -7 -11 -51 -11 -113 0 -58 -4 -106
-10 -109 -5 -3 -10 -30 -10 -59 0 -40 -5 -57 -20 -71 -13 -12 -18 -25 -14 -40
4 -15 -3 -32 -20 -52 -14 -17 -26 -33 -26 -36 0 -4 -11 -22 -24 -42 -14 -20
-33 -57 -42 -83 -10 -26 -36 -68 -58 -93 -59 -67 -106 -127 -106 -135 0 -4
-17 -26 -37 -50 -21 -23 -51 -61 -68 -84 -90 -124 -234 -284 -274 -303 -13 -7
-33 -24 -44 -38 -16 -22 -17 -30 -7 -50 44 -85 94 -91 163 -22 60 61 127 141
127 153 0 5 13 16 30 25 17 9 40 36 55 63 13 26 43 65 65 87 23 22 44 52 47
67 3 15 17 35 31 44 47 31 101 91 108 120 4 16 12 36 19 44 7 8 15 27 19 41 3
15 22 48 41 75 49 69 142 262 157 329 18 77 29 140 32 175 1 19 8 45 14 57 8
15 12 89 12 226 0 174 -2 207 -16 218 -11 9 -14 22 -10 44 4 19 -1 54 -14 91
-11 32 -20 68 -20 79 0 11 -9 35 -21 54 -11 19 -22 56 -24 85 -4 74 -20 134
-43 165 -25 34 -92 166 -92 182 0 22 -101 213 -131 246 -16 19 -29 39 -29 45
0 49 -244 333 -340 396 -30 20 -80 58 -111 84 -30 26 -63 48 -72 48 -9 0 -24
-12 -34 -27z"/>
</g>
</svg>
