<?xml version="1.0" standalone="no"?>
<!DOCTYPE svg PUBLIC "-//W3C//DTD SVG 20010904//EN"
 "http://www.w3.org/TR/2001/REC-SVG-20010904/DTD/svg10.dtd">
<svg version="1.0" xmlns="http://www.w3.org/2000/svg"
 width="63.000000pt" height="100.000000pt" viewBox="0 0 63.000000 100.000000"
 preserveAspectRatio="xMidYMid meet">
<metadata>
Created by potrace 1.16, written by Peter Selinger 2001-2019
</metadata>
<g transform="translate(0.000000,100.000000) scale(0.100000,-0.100000)"
fill="#000000" stroke="none">
<path d="M50 925 c-11 -13 -2 -25 54 -76 109 -100 171 -255 164 -408 -4 -78
-7 -93 -40 -147 -20 -32 -66 -94 -102 -136 -59 -70 -64 -78 -50 -92 11 -12 20
-13 34 -6 29 16 138 157 172 224 28 54 32 73 36 164 5 120 -4 161 -62 282 -29
59 -59 103 -102 147 -64 65 -83 74 -104 48z"/>
<path d="M320 925 c-11 -13 -3 -25 51 -78 151 -145 213 -398 132 -536 -32 -57
-74 -111 -130 -173 -24 -26 -43 -51 -43 -56 0 -16 27 -33 43 -27 27 11 146
172 180 242 56 119 48 282 -20 417 -44 88 -94 156 -141 192 -51 39 -55 40 -72
19z"/>
</g>
</svg>
