<?xml version="1.0" standalone="no"?>
<!DOCTYPE svg PUBLIC "-//W3C//DTD SVG 20010904//EN"
 "http://www.w3.org/TR/2001/REC-SVG-20010904/DTD/svg10.dtd">
<svg version="1.0" xmlns="http://www.w3.org/2000/svg"
 width="56.000000pt" height="100.000000pt" viewBox="0 0 56.000000 100.000000"
 preserveAspectRatio="xMidYMid meet">
<metadata>
Created by potrace 1.16, written by Peter Selinger 2001-2019
</metadata>
<g transform="translate(0.000000,100.000000) scale(0.100000,-0.100000)"
fill="#000000" stroke="none">
<path d="M59 934 c-11 -14 -5 -22 43 -65 70 -61 113 -128 149 -232 24 -67 29
-99 29 -175 0 -58 -5 -105 -14 -127 -21 -49 -87 -143 -146 -209 -43 -47 -50
-59 -40 -71 25 -30 47 -15 118 77 125 163 158 272 129 421 -21 104 -49 174
-104 258 -40 62 -119 139 -141 139 -5 0 -15 -7 -23 -16z"/>
<path d="M226 934 c-4 -12 12 -34 54 -75 102 -100 165 -256 164 -404 0 -82 -3
-95 -33 -152 -19 -34 -65 -101 -103 -148 -67 -83 -79 -115 -43 -115 33 0 155
155 202 256 24 52 27 71 27 164 0 90 -4 115 -28 180 -21 57 -28 94 -29 157 -2
62 -6 86 -19 99 -15 15 -17 14 -33 -15 l-16 -32 -55 50 c-59 54 -78 61 -88 35z"/>
</g>
</svg>
