<?xml version="1.0" standalone="no"?>
<!DOCTYPE svg PUBLIC "-//W3C//DTD SVG 20010904//EN"
 "http://www.w3.org/TR/2001/REC-SVG-20010904/DTD/svg10.dtd">
<svg version="1.0" xmlns="http://www.w3.org/2000/svg"
 width="212.000000pt" height="376.000000pt" viewBox="0 0 212.000000 376.000000"
 preserveAspectRatio="xMidYMid meet">
<metadata>
Created by potrace 1.16, written by Peter Selinger 2001-2019
</metadata>
<g transform="translate(0.000000,376.000000) scale(0.100000,-0.100000)"
fill="#000000" stroke="none">
<path d="M274 3508 c-9 -18 -23 -41 -31 -50 -20 -22 -11 -44 20 -52 34 -8 155
-85 186 -118 50 -53 56 -59 94 -90 21 -17 45 -44 53 -59 14 -28 79 -110 127
-159 13 -14 32 -48 41 -77 9 -28 23 -57 31 -63 17 -14 85 -154 85 -174 0 -8 7
-19 15 -26 8 -7 15 -19 15 -27 0 -8 15 -45 34 -82 18 -36 38 -88 43 -116 6
-27 29 -103 52 -168 30 -84 41 -126 36 -147 -4 -19 -1 -37 11 -55 12 -19 15
-38 11 -74 -4 -34 -2 -54 8 -67 19 -25 21 -244 3 -262 -9 -9 -12 -42 -10 -106
3 -71 0 -102 -12 -124 -10 -20 -14 -42 -10 -62 5 -23 1 -39 -15 -60 -11 -16
-21 -43 -21 -59 0 -16 -4 -32 -9 -36 -26 -16 -111 -162 -111 -190 0 -8 -18
-35 -40 -59 -41 -44 -68 -80 -116 -150 -14 -22 -39 -50 -55 -63 -16 -14 -29
-30 -29 -37 0 -7 -13 -25 -30 -41 -16 -16 -30 -35 -30 -42 0 -8 -16 -31 -36
-51 -20 -20 -42 -48 -49 -62 -16 -31 -140 -148 -186 -175 -49 -29 -51 -65 -6
-110 19 -19 44 -35 56 -35 30 0 70 21 76 40 3 9 17 22 30 28 14 6 25 18 25 26
0 7 18 32 40 55 22 22 40 45 40 50 0 5 16 19 35 31 20 13 42 38 53 63 11 23
42 66 71 96 28 30 50 59 49 65 -2 7 30 42 70 80 48 46 72 76 72 91 0 12 6 28
14 34 7 6 16 24 19 39 3 15 31 65 61 111 31 46 65 108 76 138 11 29 31 76 45
103 14 27 25 63 25 79 0 16 4 33 10 36 5 3 9 20 9 38 -1 47 11 118 27 154 21
48 20 402 -2 445 -9 17 -14 44 -11 62 2 17 -4 52 -14 79 -11 26 -19 58 -19 71
0 13 -11 44 -25 67 -18 31 -25 59 -25 96 0 28 -5 55 -10 58 -6 4 -8 15 -5 25
6 20 -15 70 -44 105 -9 11 -30 49 -45 85 -70 158 -141 302 -159 318 -11 9 -28
35 -39 57 -65 128 -242 333 -348 403 -30 20 -80 58 -111 84 -66 57 -92 61
-115 16z"/>
<path d="M902 3528 c-7 -7 -12 -17 -12 -23 0 -7 -9 -20 -20 -30 -33 -29 -20
-75 21 -75 20 0 199 -118 199 -131 0 -6 28 -38 63 -73 55 -57 95 -103 186
-216 15 -19 31 -47 34 -61 4 -14 18 -42 32 -63 32 -47 95 -174 95 -191 0 -7 7
-18 15 -25 8 -7 15 -21 15 -30 0 -10 16 -48 35 -85 20 -36 33 -70 31 -74 -5
-7 5 -46 25 -96 4 -11 17 -51 29 -90 12 -38 26 -80 31 -93 5 -13 9 -41 9 -63
0 -22 5 -50 12 -62 6 -12 11 -47 10 -78 -2 -40 2 -60 13 -69 22 -18 21 -219
-1 -261 -11 -23 -15 -54 -13 -117 2 -55 -1 -95 -9 -109 -7 -12 -11 -43 -10
-68 1 -35 -4 -50 -20 -66 -15 -14 -20 -27 -16 -43 4 -15 -2 -32 -18 -52 -45
-55 -88 -128 -100 -169 -6 -22 -32 -63 -57 -91 -25 -29 -59 -71 -76 -94 -16
-22 -48 -63 -70 -90 -22 -27 -53 -67 -70 -90 -16 -23 -49 -63 -72 -91 -24 -27
-43 -53 -43 -57 0 -13 -151 -162 -164 -162 -21 0 -56 -45 -56 -72 0 -17 11
-35 30 -51 40 -34 64 -41 92 -26 32 17 86 69 103 99 7 14 44 57 83 95 38 39
76 84 85 100 8 17 36 53 61 80 25 28 46 58 46 67 0 10 7 23 16 30 72 58 124
114 124 133 0 12 9 30 20 40 11 10 20 26 20 35 0 20 14 48 55 109 54 80 74
116 81 146 3 17 20 57 37 90 17 33 32 71 33 85 3 25 12 70 35 180 16 73 23
490 9 504 -5 5 -10 31 -10 56 0 25 -9 70 -20 100 -11 30 -20 64 -20 75 0 11
-9 34 -19 51 -10 17 -21 55 -24 85 -7 80 -21 133 -45 170 -38 60 -92 168 -92
184 0 8 -9 29 -20 47 -25 41 -25 69 -1 100 11 14 25 46 32 72 15 62 7 207 -16
266 -10 25 -20 70 -22 100 -5 58 -27 94 -65 103 -31 8 -58 -26 -58 -74 0 -38
-49 -172 -71 -194 -13 -13 -97 82 -101 115 -2 17 -18 35 -52 57 -27 17 -65 47
-85 65 -20 19 -58 49 -86 68 -27 19 -51 38 -53 42 -5 12 -92 68 -106 68 -6 0
-17 -5 -24 -12z m655 -365 c3 -16 7 -69 7 -120 1 -74 -2 -95 -16 -109 -16 -17
-18 -17 -38 1 -12 10 -20 31 -20 48 0 18 -9 41 -22 54 -18 20 -20 27 -10 41 6
9 23 38 37 65 29 53 51 60 62 20z"/>
<path d="M1434 205 c-3 -8 -3 -19 1 -25 12 -20 75 -8 75 15 0 26 -67 35 -76
10z"/>
</g>
</svg>
