<?xml version="1.0" standalone="no"?>
<!DOCTYPE svg PUBLIC "-//W3C//DTD SVG 20010904//EN"
 "http://www.w3.org/TR/2001/REC-SVG-20010904/DTD/svg10.dtd">
<svg version="1.0" xmlns="http://www.w3.org/2000/svg"
 width="846.000000pt" height="1500.000000pt" viewBox="0 0 846.000000 1500.000000"
 preserveAspectRatio="xMidYMid meet">
<metadata>
Created by potrace 1.16, written by Peter Selinger 2001-2019
</metadata>
<g transform="translate(0.000000,1500.000000) scale(0.500000,-0.500000)"
fill="#000000" stroke="none">
<path d="M239 2832 c-6 -2 -12 -11 -25 -34 -6 -10 -14 -23 -18 -27 -23 -24
-12 -47 25 -56 18 -4 20 -6 36 -18 9 -7 23 -17 31 -21 8 -4 19 -11 25 -16 5
-4 17 -12 27 -18 18 -10 29 -21 39 -39 8 -14 12 -18 26 -26 18 -10 61 -54 68
-70 7 -15 13 -23 47 -58 23 -23 29 -31 36 -44 6 -12 12 -20 23 -31 18 -18 23
-26 23 -40 0 -7 1 -12 6 -19 4 -6 9 -15 11 -22 3 -7 9 -16 15 -22 7 -8 14 -18
21 -35 7 -12 14 -27 17 -32 4 -5 8 -14 10 -21 2 -6 7 -15 11 -21 6 -9 7 -12 7
-20 0 -13 4 -23 15 -34 11 -12 13 -15 14 -29 1 -9 3 -15 8 -23 4 -7 8 -16 10
-20 2 -5 5 -12 8 -16 16 -25 24 -44 25 -66 1 -17 2 -23 6 -30 3 -5 6 -14 7
-20 0 -7 4 -16 8 -25 5 -8 8 -19 10 -29 2 -9 5 -19 7 -23 9 -14 10 -18 11 -30
1 -8 3 -15 7 -22 3 -5 6 -15 7 -20 0 -6 4 -16 7 -23 7 -13 7 -13 7 -47 0 -37
-1 -32 14 -60 5 -10 5 -10 5 -51 -1 -44 -1 -42 10 -59 6 -8 6 -8 6 -97 0 -96
1 -92 -10 -108 l-7 -11 0 -76 c0 -83 1 -77 -12 -94 -6 -9 -8 -21 -6 -44 3 -32
1 -40 -13 -54 -15 -15 -16 -19 -16 -42 0 -21 -1 -23 -20 -44 -7 -9 -13 -17
-15 -24 -2 -6 -7 -13 -14 -20 -7 -8 -12 -14 -14 -21 -2 -6 -7 -15 -10 -20 -4
-5 -7 -10 -7 -11 0 0 -4 -8 -8 -18 -5 -9 -9 -23 -11 -32 -4 -19 -1 -15 -38
-52 -21 -22 -31 -33 -35 -41 -8 -17 -19 -31 -31 -43 -6 -5 -15 -18 -20 -27 -7
-13 -16 -23 -34 -42 -18 -19 -26 -28 -30 -36 -6 -14 -12 -23 -31 -43 -12 -12
-16 -19 -18 -26 -2 -9 -7 -14 -32 -40 -26 -27 -29 -31 -33 -42 -6 -20 -107
-120 -128 -126 -36 -11 -61 -55 -47 -81 32 -62 101 -76 131 -28 9 13 13 18 21
22 14 7 22 16 30 34 7 14 11 19 30 39 16 16 25 27 30 37 6 12 8 14 21 20 17
10 39 31 43 43 1 4 5 13 9 19 4 6 9 15 11 20 2 5 6 11 10 14 3 3 9 7 12 10 4
3 10 10 14 16 3 6 13 18 21 26 19 20 22 24 23 39 2 13 4 15 21 27 11 6 84 79
88 86 2 3 3 10 3 15 0 12 4 20 14 32 12 13 16 21 16 32 0 6 2 13 9 26 5 9 9
18 9 20 0 2 5 9 12 16 6 7 15 18 18 25 4 7 11 18 16 25 6 6 12 16 15 23 2 6 8
16 12 22 3 5 8 13 9 17 1 5 5 12 7 18 3 5 7 16 8 24 3 15 9 30 17 42 3 3 7 12
11 21 4 9 10 20 13 25 7 9 7 10 7 30 0 17 1 21 5 27 11 18 11 18 10 43 0 24 0
25 6 39 7 14 7 16 7 40 0 25 0 25 8 38 l8 13 0 171 0 171 -7 10 c-5 5 -8 12
-8 15 0 3 -1 19 -1 36 0 31 0 31 -7 49 -5 11 -8 21 -8 25 0 3 -3 11 -6 17 -6
11 -7 14 -8 33 -1 20 -2 22 -8 31 -3 5 -8 14 -11 20 -3 6 -7 15 -10 19 -6 9
-6 9 -6 45 0 36 0 36 -6 48 -6 12 -7 15 -7 30 0 21 -15 54 -36 78 -10 11 -14
18 -19 30 -3 9 -9 21 -12 27 -4 6 -9 16 -12 23 -3 7 -8 17 -11 23 -5 8 -7 13
-8 24 -1 15 -3 20 -11 31 -3 3 -7 13 -11 22 -3 9 -10 22 -14 29 -4 7 -9 16
-10 20 -2 4 -5 10 -7 14 -2 4 -11 21 -19 37 -14 28 -16 31 -34 50 -16 17 -20
23 -23 31 -5 17 -18 40 -28 52 -5 6 -12 17 -15 24 -3 6 -12 20 -19 29 -7 9
-15 21 -18 27 -4 10 -22 28 -139 146 -37 37 -42 42 -55 48 -8 3 -18 10 -23 15
-5 5 -15 12 -22 15 -9 5 -19 13 -34 28 -15 15 -24 23 -32 26 -7 4 -14 9 -19
15 -10 12 -29 17 -44 11z"/>
<path d="M730 2830 c-6 -2 -9 -7 -19 -26 -7 -13 -17 -27 -22 -33 -22 -23 -11
-46 25 -55 15 -4 20 -6 27 -12 14 -12 27 -21 41 -28 7 -4 17 -10 23 -15 5 -5
16 -12 25 -17 20 -10 34 -25 43 -42 5 -10 11 -16 25 -24 13 -8 68 -61 68 -66
0 -8 11 -23 42 -55 28 -29 35 -37 41 -49 5 -11 12 -20 26 -34 20 -20 23 -27
23 -43 0 -6 2 -11 7 -19 4 -6 8 -14 9 -18 1 -5 7 -13 13 -20 11 -13 49 -84 49
-92 0 -2 4 -9 8 -16 7 -11 9 -14 10 -27 1 -15 5 -21 14 -30 8 -7 13 -18 14
-30 1 -9 3 -15 10 -26 4 -8 8 -15 8 -17 0 -2 4 -9 8 -16 19 -34 24 -46 24 -64
0 -15 1 -18 6 -28 3 -7 7 -17 8 -24 1 -8 4 -18 9 -27 4 -9 8 -19 9 -28 2 -10
4 -17 9 -26 6 -9 8 -15 9 -25 1 -9 4 -17 8 -25 4 -7 6 -14 6 -19 0 -5 2 -13 7
-22 7 -13 7 -13 7 -47 0 -36 0 -37 13 -58 5 -8 5 -9 5 -52 0 -46 0 -46 11 -60
7 -9 10 -181 3 -193 -2 -3 -6 -10 -9 -15 -6 -9 -6 -9 -5 -83 0 -79 0 -79 -10
-92 -7 -8 -7 -8 -8 -47 -1 -43 -1 -43 -16 -57 -11 -11 -15 -21 -13 -38 2 -16
-1 -23 -18 -43 -9 -11 -16 -20 -17 -25 -2 -6 -7 -13 -14 -21 -7 -7 -13 -16
-15 -21 -1 -6 -5 -14 -9 -18 -9 -14 -24 -48 -26 -61 -1 -7 -3 -14 -3 -16 -1
-2 -16 -19 -34 -37 -23 -24 -34 -36 -37 -42 -5 -13 -15 -27 -29 -42 -7 -7 -17
-21 -24 -32 -8 -12 -18 -26 -33 -41 -17 -17 -24 -25 -29 -36 -5 -10 -13 -20
-25 -33 -14 -16 -18 -22 -22 -32 -4 -11 -8 -16 -22 -30 -36 -37 -42 -43 -44
-53 -5 -18 -107 -119 -127 -126 -30 -11 -51 -36 -51 -61 0 -66 103 -100 137
-44 6 9 10 13 21 20 15 9 19 14 26 31 4 10 9 16 29 37 19 19 26 29 32 39 7 14
8 15 20 21 26 13 34 23 62 79 6 12 9 16 18 22 6 4 13 11 16 15 3 4 7 11 10 16
3 4 9 10 14 14 14 12 25 31 25 41 0 12 2 16 15 23 30 17 95 87 96 104 2 18 3
20 13 31 12 12 18 25 18 36 0 6 3 14 9 26 5 9 9 18 9 20 0 2 5 9 12 15 6 7 14
19 18 26 4 7 11 18 16 23 6 7 11 15 13 21 2 6 7 15 10 20 4 6 10 16 13 23 2 7
6 15 8 19 2 4 5 14 6 21 2 10 6 20 16 40 8 15 14 28 14 30 0 1 3 7 7 12 10 13
11 17 11 38 0 17 0 18 8 30 7 12 7 12 7 39 0 27 0 27 7 41 7 14 7 14 6 38 0
24 0 24 7 36 11 18 11 18 11 187 0 169 0 165 -11 181 -8 11 -8 11 -6 39 1 30
0 38 -9 59 -3 8 -6 18 -7 23 -1 5 -4 14 -7 20 -5 10 -6 14 -6 26 0 18 -3 29
-9 37 -3 4 -10 17 -16 28 l-12 22 1 34 c0 34 0 34 -7 48 -6 13 -7 15 -7 31 0
21 -14 53 -36 77 -8 10 -13 17 -17 28 -3 8 -9 20 -13 27 -4 7 -10 18 -12 24
-3 6 -6 13 -8 16 -7 11 -11 19 -12 33 -2 12 -3 16 -11 27 -22 33 -24 58 -7 84
15 23 15 22 24 57 10 36 14 106 8 144 -4 28 -18 83 -26 104 -8 19 -9 21 -10
53 -3 52 -27 84 -62 84 -28 0 -38 -16 -42 -63 -3 -34 -8 -53 -20 -78 -5 -11
-13 -29 -18 -40 -17 -40 -33 -42 -52 -7 -3 7 -13 19 -22 29 -18 18 -22 24 -22
38 0 13 -22 36 -42 43 -10 3 -16 8 -50 41 -31 30 -40 38 -51 43 -7 3 -17 10
-22 15 -5 5 -15 11 -22 15 -8 4 -19 14 -34 28 -17 16 -26 23 -35 28 -7 3 -16
10 -21 14 -11 12 -27 15 -41 8z m506 -297 c15 -20 25 -130 13 -160 -17 -45
-56 -33 -56 17 0 20 0 20 -7 27 -20 21 -22 36 -9 53 5 7 14 21 19 31 18 33 31
44 40 32z"/>
<path d="M1156 173 c-15 -7 -15 -20 0 -27 16 -9 58 1 58 13 0 11 -43 22 -58
14z"/>
</g>
</svg>
