<?xml version="1.0" standalone="no"?>
<!DOCTYPE svg PUBLIC "-//W3C//DTD SVG 20010904//EN"
 "http://www.w3.org/TR/2001/REC-SVG-20010904/DTD/svg10.dtd">
<svg version="1.0" xmlns="http://www.w3.org/2000/svg"
 width="1200.000000pt" height="1500.000000pt" viewBox="0 0 1200.000000 1500.000000"
 preserveAspectRatio="xMidYMid meet">
<metadata>
Created by potrace 1.16, written by Peter Selinger 2001-2019
</metadata>
<g transform="translate(0.000000,1500.000000) scale(0.500000,-0.500000)"
fill="#000000" stroke="none">
<path d="M282 2896 c-5 -2 -9 -6 -13 -14 -17 -32 -20 -37 -28 -45 -25 -22 -14
-50 24 -58 20 -4 23 -6 39 -20 6 -6 20 -15 30 -20 10 -5 22 -13 28 -18 6 -5
17 -13 26 -17 18 -9 37 -27 46 -46 6 -12 10 -15 29 -25 15 -8 58 -56 67 -75 8
-15 11 -19 44 -52 33 -32 36 -36 40 -48 4 -11 7 -16 23 -32 23 -24 25 -27 25
-39 0 -10 3 -18 11 -30 2 -4 6 -12 8 -17 2 -7 8 -15 15 -23 7 -9 15 -21 24
-38 7 -14 15 -30 18 -35 3 -5 7 -14 9 -19 2 -6 6 -15 10 -20 7 -9 8 -11 9 -26
1 -9 2 -16 2 -17 0 0 5 -6 11 -12 13 -14 17 -22 17 -36 0 -8 1 -11 8 -21 4 -7
9 -16 11 -22 2 -5 6 -14 9 -18 16 -23 24 -46 24 -65 0 -17 1 -19 6 -29 4 -6 6
-15 8 -24 1 -11 3 -18 9 -26 5 -9 7 -16 10 -30 2 -14 4 -20 10 -29 7 -9 8 -13
9 -25 1 -12 3 -17 7 -23 4 -6 6 -13 7 -21 1 -8 4 -16 8 -25 7 -13 7 -13 7 -48
0 -39 1 -41 11 -55 7 -10 7 -10 8 -58 1 -51 1 -53 11 -63 11 -12 11 -196 0
-209 -12 -15 -11 -11 -11 -95 0 -82 0 -87 -9 -94 -9 -7 -10 -13 -9 -47 0 -42
-1 -47 -16 -61 -14 -13 -17 -22 -15 -42 2 -17 0 -21 -20 -44 -10 -11 -15 -20
-17 -26 -2 -6 -7 -13 -14 -21 -8 -8 -13 -15 -15 -22 -2 -6 -6 -15 -9 -19 -4
-5 -8 -13 -11 -19 -2 -5 -6 -14 -9 -20 -3 -5 -7 -16 -8 -23 -1 -7 -3 -15 -3
-17 -1 -3 -16 -20 -35 -38 -25 -26 -35 -37 -38 -44 -5 -12 -16 -27 -31 -43
-12 -12 -18 -21 -30 -43 -3 -5 -16 -20 -29 -33 -19 -19 -25 -26 -32 -40 -6
-13 -13 -22 -26 -35 -18 -19 -22 -25 -25 -37 -1 -5 -9 -14 -32 -38 -29 -29
-31 -32 -34 -43 -3 -12 -106 -119 -121 -126 -3 -2 -10 -5 -16 -7 -55 -20 -63
-70 -20 -117 34 -36 94 -29 116 13 6 10 8 12 20 19 15 8 22 15 27 31 4 12 13
23 36 46 16 15 23 24 26 32 7 14 10 18 23 23 18 9 40 31 46 47 1 4 6 12 10 19
4 7 9 15 10 20 1 4 5 10 10 14 19 15 22 18 27 27 3 5 12 16 20 24 20 20 27 32
27 44 0 12 3 16 17 24 11 6 68 60 87 81 10 12 12 16 12 27 0 14 2 20 15 34 13
14 17 23 17 37 0 6 2 11 6 18 4 6 8 15 10 21 3 7 7 14 16 23 7 7 15 18 19 27
4 8 11 19 17 25 5 5 10 13 12 17 5 14 8 21 14 28 3 4 7 12 10 19 2 6 6 15 9
21 2 5 5 14 6 21 1 12 9 31 19 46 3 6 8 15 10 21 2 6 8 16 12 22 7 10 7 11 8
34 1 23 1 24 8 34 9 14 10 18 8 37 -2 17 0 28 7 43 7 17 9 26 7 45 -2 19 -3
16 13 46 4 8 4 8 4 181 0 190 1 175 -12 191 -4 5 -4 8 -5 45 -1 39 -1 39 -7
53 -4 8 -8 19 -9 26 -1 6 -4 16 -7 21 -5 8 -6 12 -7 31 -1 22 -1 23 -8 33 -4
6 -12 21 -18 33 l-11 22 1 34 c0 34 0 34 -7 49 -6 13 -7 16 -7 33 0 13 -1 20
-3 24 -2 3 -7 14 -12 23 -5 10 -14 23 -23 33 -11 12 -15 18 -18 29 -2 7 -8 20
-13 29 -5 8 -11 20 -13 25 -2 6 -7 16 -11 22 -6 9 -8 15 -9 27 -2 14 -8 30
-14 34 -1 0 -5 10 -9 20 -4 11 -10 24 -13 28 -3 5 -8 14 -11 21 -3 7 -7 16
-10 20 -3 5 -7 13 -9 19 -2 5 -7 15 -11 22 -4 6 -8 14 -9 19 -2 4 -9 13 -17
21 -21 20 -29 30 -31 40 -4 13 -20 42 -31 55 -7 8 -12 17 -14 22 -2 6 -7 15
-12 21 -19 24 -21 28 -26 38 -4 9 -14 20 -46 53 -23 22 -61 61 -85 85 -47 48
-60 59 -76 66 -6 3 -15 10 -21 15 -6 5 -16 12 -22 15 -9 4 -17 10 -34 27 -15
15 -25 23 -34 28 -9 4 -16 10 -19 14 -8 13 -34 19 -50 10z"/>
<path d="M2070 2897 c-4 -1 -9 -5 -12 -10 -3 -5 -9 -10 -17 -14 -8 -4 -19 -13
-35 -28 -17 -17 -26 -24 -35 -28 -6 -3 -16 -10 -22 -15 -6 -5 -15 -12 -21 -15
-16 -7 -30 -19 -76 -66 -23 -23 -60 -61 -84 -84 -32 -33 -43 -45 -46 -53 -3
-6 -12 -20 -21 -31 -8 -11 -16 -23 -18 -29 -2 -5 -7 -14 -13 -21 -11 -13 -26
-39 -32 -56 -4 -11 -19 -32 -34 -43 -4 -4 -10 -11 -12 -17 -3 -5 -8 -14 -11
-20 -4 -5 -8 -15 -11 -21 -2 -6 -6 -16 -10 -21 -3 -5 -7 -13 -9 -18 -2 -6 -7
-15 -10 -21 -4 -6 -10 -18 -13 -27 -4 -9 -9 -20 -12 -24 -9 -13 -11 -17 -12
-32 -1 -12 -3 -17 -9 -27 -3 -6 -8 -16 -10 -21 -3 -6 -8 -16 -12 -24 -5 -7
-11 -20 -14 -29 -5 -14 -8 -19 -19 -32 -24 -26 -36 -52 -38 -79 -1 -19 -2 -24
-8 -35 -6 -13 -6 -13 -6 -47 l1 -34 -11 -22 c-6 -12 -14 -27 -18 -33 -7 -10
-7 -11 -8 -33 -1 -19 -2 -23 -7 -31 -3 -5 -6 -15 -7 -21 -1 -7 -5 -18 -9 -26
-6 -14 -6 -14 -7 -53 -1 -37 -1 -40 -5 -45 -13 -16 -12 -2 -13 -185 0 -182 0
-179 12 -199 7 -12 7 -12 6 -36 0 -24 0 -25 6 -38 9 -20 10 -29 8 -48 -2 -19
-1 -23 8 -37 7 -10 7 -11 8 -34 1 -24 1 -24 10 -36 3 -4 7 -12 9 -17 2 -6 6
-16 10 -22 12 -19 18 -35 20 -48 1 -7 4 -16 6 -22 3 -5 7 -15 9 -21 2 -6 7
-14 10 -18 6 -7 9 -14 14 -28 2 -4 7 -12 12 -17 6 -6 13 -17 17 -25 4 -9 12
-20 19 -27 8 -8 13 -16 16 -23 2 -7 7 -16 10 -20 4 -6 6 -12 6 -17 0 -15 4
-24 17 -39 7 -8 13 -16 13 -19 1 -15 2 -26 4 -29 7 -13 82 -86 97 -94 14 -8
16 -10 17 -25 2 -14 9 -26 28 -44 7 -6 14 -16 18 -22 3 -6 10 -14 14 -18 19
-15 22 -18 24 -25 1 -4 6 -12 10 -19 4 -7 9 -17 11 -22 5 -13 27 -35 44 -43
14 -6 17 -10 23 -23 3 -7 12 -18 30 -36 17 -18 27 -29 30 -36 11 -26 13 -28
24 -34 17 -10 22 -15 27 -25 32 -63 140 -30 143 43 1 27 -22 56 -51 64 -21 6
-128 111 -134 132 -3 11 -5 14 -33 42 -17 17 -30 33 -32 36 -1 4 -3 10 -4 13
-2 4 -11 16 -21 26 -14 14 -21 23 -27 36 -7 14 -13 21 -32 41 -13 13 -26 27
-29 33 -12 21 -18 30 -30 42 -15 16 -26 31 -31 43 -3 6 -11 16 -24 30 -52 52
-48 47 -51 64 -2 10 -6 22 -11 32 -4 9 -8 17 -8 19 0 1 -3 6 -7 12 -4 6 -10
16 -12 23 -3 7 -9 16 -15 23 -7 7 -12 15 -14 20 -1 5 -8 15 -17 25 -20 24 -22
28 -20 45 2 20 -1 29 -15 42 -15 15 -17 20 -15 56 1 32 0 41 -9 51 -10 11 -10
10 -10 94 0 85 0 82 -11 96 -9 11 -11 197 -2 207 4 4 7 9 9 11 2 3 3 14 4 53
1 49 1 49 6 56 12 16 13 18 13 57 0 36 0 36 7 49 4 8 7 17 8 25 1 8 3 15 7 21
4 6 6 12 7 23 1 13 3 17 9 26 6 8 8 14 10 28 3 14 5 21 10 30 6 8 8 15 9 26 2
9 4 18 8 24 5 10 6 12 6 29 0 19 11 48 25 67 2 3 6 11 8 16 2 6 7 15 11 22 7
10 8 13 8 21 0 14 4 22 16 35 12 12 14 18 14 32 0 9 1 12 8 23 4 6 10 17 12
23 2 6 6 15 10 19 3 5 8 14 10 20 11 23 20 39 31 51 6 8 12 16 14 23 2 5 6 13
8 17 8 11 11 20 11 29 0 12 3 17 23 38 15 16 21 23 26 36 6 13 10 18 36 43 34
34 41 42 48 58 8 17 52 65 68 72 17 9 21 13 27 26 9 18 28 36 46 45 9 4 20 12
26 17 6 5 18 13 26 17 9 5 24 15 33 22 16 13 19 14 36 18 39 9 52 37 27 59 -8
6 -20 26 -29 45 -8 17 -29 23 -51 15z"/>
</g>
</svg>
