<?xml version="1.0" standalone="no"?>
<!DOCTYPE svg PUBLIC "-//W3C//DTD SVG 20010904//EN"
 "http://www.w3.org/TR/2001/REC-SVG-20010904/DTD/svg10.dtd">
<svg version="1.0" xmlns="http://www.w3.org/2000/svg"
 width="300.000000pt" height="376.000000pt" viewBox="0 0 300.000000 376.000000"
 preserveAspectRatio="xMidYMid meet">
<metadata>
Created by potrace 1.16, written by Peter Selinger 2001-2019
</metadata>
<g transform="translate(0.000000,376.000000) scale(0.100000,-0.100000)"
fill="#000000" stroke="none">
<path d="M349 3613 c-74 -92 -77 -133 -9 -133 9 0 23 -6 29 -14 7 -8 44 -33
82 -57 40 -24 76 -54 84 -70 8 -15 27 -35 42 -44 16 -10 42 -35 58 -57 17 -22
54 -66 83 -97 28 -32 52 -62 52 -68 0 -5 14 -22 30 -38 17 -16 30 -36 30 -45
0 -20 27 -77 40 -85 11 -7 90 -168 90 -185 0 -6 9 -23 20 -37 11 -14 20 -33
20 -42 1 -9 14 -41 30 -71 17 -30 30 -63 30 -74 0 -19 33 -129 55 -181 31 -73
48 -141 46 -182 -1 -26 5 -53 14 -66 11 -16 13 -35 9 -69 -5 -35 -2 -54 10
-72 23 -36 23 -246 0 -281 -13 -21 -15 -40 -9 -109 5 -67 3 -90 -9 -114 -9
-17 -16 -53 -16 -80 0 -37 -5 -54 -21 -68 -13 -12 -18 -25 -15 -40 4 -15 -2
-32 -17 -51 -43 -55 -107 -173 -107 -199 0 -10 -24 -43 -52 -75 -29 -31 -66
-76 -83 -99 -16 -23 -46 -60 -65 -83 -20 -23 -44 -55 -55 -72 -10 -16 -27 -36
-37 -43 -10 -7 -18 -20 -18 -28 0 -8 -20 -37 -45 -63 -25 -26 -45 -52 -45 -57
0 -12 -152 -164 -164 -164 -4 0 -21 -9 -37 -21 -40 -28 -39 -67 5 -113 18 -20
43 -36 54 -36 32 0 71 21 78 42 3 10 19 25 35 33 16 9 29 22 29 30 0 18 93
125 129 147 15 10 35 35 44 56 9 21 39 63 67 93 29 31 50 63 50 77 0 12 4 22
10 22 5 0 39 28 75 61 49 47 65 68 65 89 0 15 9 35 20 45 11 10 20 25 20 34 1
19 23 61 65 122 54 80 85 140 85 165 0 8 14 38 30 67 17 30 30 67 30 83 0 17
4 34 9 40 9 9 17 58 25 152 2 24 9 49 15 55 7 7 11 83 11 233 0 184 -3 224
-15 234 -11 9 -13 23 -9 50 4 26 0 55 -15 94 -12 31 -21 68 -21 82 0 13 -12
43 -26 66 -20 32 -25 49 -20 77 3 23 0 47 -9 64 -8 15 -12 34 -9 41 6 15 -18
70 -43 97 -17 20 -83 156 -83 172 0 22 -112 231 -141 264 -16 19 -29 38 -29
43 0 9 -48 91 -85 145 -30 44 -257 275 -270 275 -7 0 -20 9 -30 20 -10 11 -22
20 -27 20 -6 0 -38 25 -71 55 -34 30 -67 55 -73 55 -6 0 -17 -8 -25 -17z"/>
<path d="M2535 3577 c-33 -28 -68 -56 -76 -62 -69 -44 -107 -77 -199 -172 -58
-60 -114 -122 -125 -138 -36 -52 -85 -136 -85 -145 0 -4 -16 -27 -35 -49 -32
-39 -135 -236 -135 -259 0 -15 -66 -151 -83 -171 -26 -29 -49 -82 -43 -98 4
-9 1 -22 -5 -30 -7 -7 -11 -36 -10 -63 1 -38 -5 -59 -24 -90 -14 -22 -25 -51
-25 -64 0 -14 -10 -51 -21 -82 -13 -35 -19 -68 -16 -89 3 -21 0 -40 -8 -52
-18 -23 -22 -452 -4 -470 5 -5 12 -30 14 -54 10 -100 17 -145 26 -153 5 -6 9
-21 9 -35 0 -15 13 -53 29 -86 16 -33 37 -81 45 -106 9 -25 35 -74 59 -109 71
-106 76 -114 76 -138 1 -12 10 -30 21 -39 11 -10 20 -29 20 -43 0 -27 82 -116
128 -139 12 -7 22 -21 22 -34 0 -12 22 -45 49 -75 27 -29 59 -72 70 -95 11
-23 34 -50 51 -60 16 -10 35 -28 41 -39 6 -12 24 -32 39 -45 15 -12 33 -36 40
-52 7 -17 20 -33 31 -36 10 -3 21 -15 24 -26 7 -22 54 -49 86 -49 31 0 89 65
89 99 0 28 -36 71 -59 71 -15 0 -171 149 -171 163 0 6 -20 32 -45 58 -25 26
-45 53 -45 60 0 6 -15 29 -33 50 -17 21 -50 61 -72 89 -22 28 -55 68 -72 89
-18 21 -33 43 -33 48 0 5 -22 31 -50 58 -27 27 -50 57 -50 68 0 24 -33 88 -86
168 -28 41 -42 72 -38 82 4 10 -4 29 -20 48 -22 25 -25 37 -20 68 4 26 1 48
-10 70 -13 25 -16 50 -12 120 4 67 2 93 -9 107 -22 29 -21 246 1 279 12 19 15
37 10 69 -5 32 -3 54 8 75 9 16 16 49 16 73 0 41 17 106 45 173 22 52 55 162
55 181 0 11 13 44 30 74 16 30 29 64 30 76 0 11 9 29 20 39 11 10 20 25 20 34
0 17 72 164 93 191 21 27 37 59 37 76 0 9 15 34 33 55 17 22 55 66 82 99 28
32 66 79 85 104 19 24 45 49 57 55 12 5 29 23 37 39 9 17 44 47 85 71 38 24
75 49 82 57 6 8 22 14 35 14 22 0 54 23 54 39 0 5 -7 14 -16 22 -8 7 -22 26
-31 43 -31 60 -42 60 -118 -7z"/>
</g>
</svg>
