<?xml version="1.0" standalone="no"?>
<!DOCTYPE svg PUBLIC "-//W3C//DTD SVG 20010904//EN"
 "http://www.w3.org/TR/2001/REC-SVG-20010904/DTD/svg10.dtd">
<svg version="1.0" xmlns="http://www.w3.org/2000/svg"
 width="80.000000pt" height="100.000000pt" viewBox="0 0 80.000000 100.000000"
 preserveAspectRatio="xMidYMid meet">
<metadata>
Created by potrace 1.16, written by Peter Selinger 2001-2019
</metadata>
<g transform="translate(0.000000,100.000000) scale(0.100000,-0.100000)"
fill="#000000" stroke="none">
<path d="M77 963 c-10 -10 -8 -43 2 -43 5 0 32 -21 60 -46 59 -53 130 -186
157 -294 20 -79 14 -212 -12 -262 -29 -57 -91 -143 -144 -202 -52 -56 -60 -86
-22 -86 35 0 164 158 208 254 35 78 44 217 20 318 -29 124 -111 266 -189 328
-49 39 -67 47 -80 33z"/>
<path d="M643 937 c-132 -102 -223 -322 -210 -509 4 -62 13 -94 41 -154 48
-102 164 -244 198 -244 33 0 32 29 -3 68 -125 138 -175 226 -184 324 -15 169
84 406 200 478 26 16 35 28 33 44 -5 31 -28 29 -75 -7z"/>
</g>
</svg>
