<?xml version="1.0" standalone="no"?>
<!DOCTYPE svg PUBLIC "-//W3C//DTD SVG 20010904//EN"
 "http://www.w3.org/TR/2001/REC-SVG-20010904/DTD/svg10.dtd">
<svg version="1.0" xmlns="http://www.w3.org/2000/svg"
 width="74.000000pt" height="100.000000pt" viewBox="0 0 74.000000 100.000000"
 preserveAspectRatio="xMidYMid meet">
<metadata>
Created by potrace 1.16, written by Peter Selinger 2001-2019
</metadata>
<g transform="translate(0.000000,100.000000) scale(0.100000,-0.100000)"
fill="#000000" stroke="none">
<path d="M59 934 c-11 -13 -4 -23 48 -69 128 -115 205 -354 163 -507 -14 -48
-79 -145 -148 -219 -57 -62 -62 -89 -18 -89 19 0 40 20 94 92 105 138 124 183
130 298 6 122 -21 226 -85 336 -44 76 -134 174 -158 174 -7 0 -18 -7 -26 -16z"/>
<path d="M571 892 c-64 -66 -132 -188 -156 -277 -17 -68 -20 -222 -4 -278 12
-44 115 -202 169 -258 24 -25 43 -37 53 -33 34 13 26 36 -33 99 -69 74 -121
153 -140 210 -23 68 -17 179 14 270 39 113 78 176 148 239 53 47 60 57 49 70
-22 26 -41 19 -100 -42z"/>
<path d="M262 863 c2 -46 7 -59 21 -61 15 -3 17 5 17 57 0 55 -2 61 -20 61
-19 0 -21 -5 -18 -57z"/>
<path d="M346 881 c-3 -22 -1 -52 4 -66 9 -23 13 -25 26 -14 21 17 16 113 -7
117 -12 2 -18 -8 -23 -37z"/>
<path d="M430 873 c0 -92 38 -99 42 -8 3 45 1 50 -19 53 -21 3 -23 -1 -23 -45z"/>
<path d="M271 166 c-7 -8 -11 -36 -9 -63 2 -36 7 -49 21 -51 15 -3 17 5 17 57
0 62 -10 81 -29 57z"/>
<path d="M349 159 c-17 -32 -3 -111 19 -107 12 2 18 15 20 42 6 74 -15 109
-39 65z"/>
<path d="M437 163 c-4 -3 -7 -28 -7 -55 0 -35 4 -50 16 -55 27 -10 37 12 29
66 -6 47 -20 63 -38 44z"/>
</g>
</svg>
