<?xml version="1.0" standalone="no"?>
<!DOCTYPE svg PUBLIC "-//W3C//DTD SVG 20010904//EN"
 "http://www.w3.org/TR/2001/REC-SVG-20010904/DTD/svg10.dtd">
<svg version="1.0" xmlns="http://www.w3.org/2000/svg"
 width="280.000000pt" height="376.000000pt" viewBox="0 0 280.000000 376.000000"
 preserveAspectRatio="xMidYMid meet">
<metadata>
Created by potrace 1.16, written by Peter Selinger 2001-2019
</metadata>
<g transform="translate(0.000000,376.000000) scale(0.100000,-0.100000)"
fill="#000000" stroke="none">
<path d="M295 3533 c-71 -81 -80 -111 -35 -123 42 -12 201 -121 212 -146 6
-13 15 -24 20 -24 13 0 98 -86 98 -98 0 -6 21 -32 46 -58 25 -27 52 -60 59
-74 7 -14 22 -34 34 -44 12 -11 21 -26 21 -35 0 -9 11 -34 25 -56 42 -69 95
-178 95 -195 0 -9 9 -25 20 -35 11 -10 20 -25 20 -32 0 -8 13 -42 29 -76 16
-34 35 -88 42 -120 7 -32 16 -60 21 -63 4 -3 8 -16 8 -29 0 -13 5 -27 10 -30
6 -3 10 -15 10 -26 0 -10 4 -27 9 -37 18 -36 31 -90 31 -130 0 -22 5 -44 10
-47 6 -3 10 -35 10 -70 0 -35 5 -67 10 -70 13 -8 13 -252 0 -260 -6 -3 -10
-52 -10 -110 0 -58 -4 -107 -10 -110 -6 -3 -10 -31 -10 -61 0 -42 -5 -58 -20
-71 -12 -10 -20 -30 -20 -47 0 -25 -38 -98 -61 -116 -12 -10 -59 -110 -59
-125 0 -9 -20 -37 -45 -62 -25 -25 -50 -55 -57 -66 -12 -25 -45 -67 -100 -131
-21 -24 -38 -48 -38 -53 0 -5 -13 -22 -30 -38 -16 -16 -30 -33 -30 -38 0 -19
-216 -257 -233 -257 -24 0 -67 -43 -67 -67 0 -60 74 -114 121 -89 32 17 99 80
99 92 0 6 14 23 31 40 17 16 37 41 45 57 8 15 20 27 28 27 17 0 50 38 66 78 7
18 20 38 29 45 29 22 81 91 81 109 0 9 7 21 15 25 38 22 125 117 125 137 0 13
9 31 20 41 12 10 19 24 17 30 -5 11 16 49 68 126 35 52 75 129 75 146 0 7 14
38 30 68 17 30 30 69 30 85 0 16 5 32 11 36 6 3 9 20 6 38 -2 17 2 44 10 59 8
15 11 37 8 47 -3 10 1 33 9 49 24 45 23 432 0 452 -11 9 -14 24 -12 48 3 20
-4 59 -14 88 -10 29 -18 62 -18 73 0 12 -10 40 -22 63 -13 23 -24 62 -25 87
-2 74 -19 139 -42 168 -27 35 -91 157 -91 176 0 23 -99 214 -129 249 -15 18
-31 40 -34 51 -20 53 -113 178 -202 269 -92 95 -174 167 -189 167 -4 0 -36 25
-71 55 -36 30 -67 55 -70 55 -3 0 -12 -8 -20 -17z"/>
<path d="M2410 3524 c-26 -25 -94 -78 -140 -110 -53 -37 -225 -211 -269 -271
-16 -22 -44 -67 -62 -100 -18 -32 -42 -69 -55 -83 -25 -27 -134 -237 -134
-258 0 -17 -67 -149 -79 -157 -27 -16 -55 -117 -52 -188 1 -24 -7 -53 -24 -81
-14 -23 -25 -55 -25 -69 0 -14 -8 -48 -19 -74 -11 -28 -16 -61 -14 -80 3 -20
-1 -40 -11 -55 -23 -32 -24 -412 -1 -445 8 -11 14 -36 13 -55 -1 -19 3 -41 7
-48 5 -8 10 -30 11 -49 5 -66 15 -106 39 -151 13 -25 31 -68 40 -95 10 -28 30
-69 46 -93 16 -24 29 -47 29 -51 0 -5 7 -14 15 -21 19 -16 45 -68 45 -90 0 -9
9 -25 20 -35 11 -10 20 -28 20 -40 0 -15 24 -45 70 -89 39 -36 70 -72 70 -79
0 -7 20 -35 45 -63 25 -27 57 -70 70 -96 15 -27 38 -54 55 -63 17 -9 30 -20
30 -26 0 -5 18 -29 40 -51 22 -23 40 -46 40 -51 0 -13 82 -88 108 -98 30 -12
65 3 91 39 29 41 27 76 -5 101 -15 12 -32 21 -38 21 -13 0 -156 141 -156 154
0 5 -17 28 -37 52 -21 23 -51 61 -68 84 -16 22 -48 63 -70 90 -81 100 -92 115
-104 139 -7 13 -33 44 -57 69 -24 25 -44 52 -44 60 0 22 -46 117 -65 132 -8 7
-15 17 -15 22 0 5 -9 18 -20 30 -11 12 -20 36 -20 53 0 20 -8 39 -21 51 -17
15 -20 27 -16 61 3 27 0 49 -9 60 -9 12 -13 50 -14 120 0 57 -4 105 -10 108
-13 8 -13 252 0 260 6 3 10 35 10 70 0 35 5 67 10 70 6 3 10 30 10 59 0 28 4
56 8 61 5 6 14 30 21 55 7 25 17 54 22 65 19 46 49 146 49 166 0 11 14 46 30
76 17 30 30 62 30 72 0 10 9 26 20 36 11 10 20 26 20 35 0 21 57 138 80 165
10 11 24 38 31 60 7 22 26 54 41 70 15 17 28 35 28 41 0 6 16 26 36 45 20 18
47 51 61 72 33 53 73 96 93 102 9 3 22 16 28 30 12 25 157 125 207 142 36 12
43 37 19 64 -9 10 -22 29 -28 42 -13 26 -54 32 -76 11z"/>
<path d="M1017 3434 c-4 -4 -7 -97 -7 -206 l0 -198 65 0 65 0 -2 203 -3 202
-55 3 c-31 2 -59 0 -63 -4z"/>
<path d="M1337 3434 c-4 -4 -7 -97 -7 -206 l0 -198 65 0 65 0 -2 203 -3 202
-55 3 c-31 2 -59 0 -63 -4z"/>
<path d="M1656 3431 c-4 -6 -7 -97 -7 -203 l-1 -193 64 0 63 0 0 200 0 200
-57 3 c-31 2 -59 -2 -62 -7z"/>
<path d="M1017 634 c-4 -4 -7 -97 -7 -206 l0 -199 63 3 62 3 0 200 0 200 -55
3 c-31 2 -59 0 -63 -4z"/>
<path d="M1337 634 c-4 -4 -7 -97 -7 -206 l0 -199 63 3 62 3 0 200 0 200 -55
3 c-31 2 -59 0 -63 -4z"/>
<path d="M1648 631 c-1 -6 -2 -99 0 -206 l3 -196 62 3 62 3 0 200 0 200 -62 3
c-36 2 -62 -1 -65 -7z"/>
</g>
</svg>
