<?xml version="1.0" standalone="no"?>
<!DOCTYPE svg PUBLIC "-//W3C//DTD SVG 20010904//EN"
 "http://www.w3.org/TR/2001/REC-SVG-20010904/DTD/svg10.dtd">
<svg version="1.0" xmlns="http://www.w3.org/2000/svg"
 width="338.000000pt" height="376.000000pt" viewBox="0 0 338.000000 376.000000"
 preserveAspectRatio="xMidYMid meet">
<metadata>
Created by potrace 1.16, written by Peter Selinger 2001-2019
</metadata>
<g transform="translate(0.000000,376.000000) scale(0.100000,-0.100000)"
fill="#000000" stroke="none">
<path d="M384 3428 c-10 -18 -24 -38 -32 -44 -22 -16 -10 -46 23 -58 53 -19
148 -88 227 -166 43 -41 78 -79 78 -84 0 -5 21 -33 48 -62 75 -84 102 -121
102 -138 0 -9 12 -35 27 -59 37 -56 83 -148 83 -165 0 -8 9 -25 20 -39 11 -14
20 -33 20 -42 0 -9 14 -38 30 -66 16 -27 30 -60 30 -72 0 -13 20 -83 45 -157
25 -75 45 -152 45 -174 0 -21 4 -42 9 -47 19 -20 39 -375 22 -375 -7 0 -11
-36 -11 -99 0 -56 -4 -103 -10 -106 -5 -3 -10 -30 -10 -59 0 -40 -5 -57 -20
-71 -11 -10 -20 -30 -20 -45 0 -15 -9 -39 -20 -53 -11 -14 -20 -30 -20 -36 0
-6 -4 -11 -10 -11 -10 0 -60 -99 -60 -120 0 -7 -21 -36 -47 -65 -27 -29 -61
-71 -78 -95 -16 -24 -46 -62 -65 -86 -40 -49 -69 -87 -90 -119 -45 -69 -187
-223 -223 -242 -36 -18 -67 -49 -67 -67 0 -20 49 -76 74 -86 13 -4 31 -2 46 5
26 14 100 90 100 104 0 4 31 39 69 77 37 38 75 83 84 99 8 17 33 48 55 70 21
23 42 52 46 65 3 14 34 48 67 75 38 32 62 60 66 77 3 15 12 33 19 39 8 6 14
19 14 29 0 22 26 74 45 90 8 7 15 16 15 21 0 4 13 27 29 51 15 24 34 61 41 83
7 22 23 60 36 84 13 24 24 56 24 72 0 15 4 30 9 33 8 5 17 60 25 141 1 17 8
40 14 52 19 34 16 383 -3 419 -8 16 -12 38 -9 50 3 13 -4 49 -15 81 -12 33
-21 67 -21 77 0 9 -8 28 -17 43 -10 14 -21 53 -25 87 -12 101 -24 146 -46 169
-22 24 -82 140 -82 158 0 22 -89 197 -117 231 -16 18 -36 49 -46 68 -17 34
-24 45 -79 126 -35 52 -202 213 -258 249 -25 16 -54 38 -65 48 -87 79 -97 81
-121 35z"/>
<path d="M834 3428 c-9 -18 -23 -41 -31 -50 -18 -20 -10 -48 13 -48 29 0 156
-91 236 -169 43 -42 78 -80 78 -85 0 -5 21 -33 48 -62 73 -82 98 -117 105
-145 4 -14 18 -43 32 -64 31 -45 75 -134 75 -151 0 -6 9 -23 20 -37 11 -14 20
-32 20 -40 0 -9 14 -40 30 -70 17 -30 30 -64 30 -75 0 -19 24 -108 40 -147 28
-68 50 -147 50 -181 0 -22 4 -44 9 -49 19 -20 39 -351 22 -368 -6 -6 -11 -53
-11 -108 0 -55 -4 -101 -10 -104 -5 -3 -10 -30 -10 -58 0 -40 -5 -57 -20 -70
-12 -10 -20 -29 -20 -48 0 -20 -12 -46 -33 -72 -38 -48 -77 -122 -77 -144 0
-9 -21 -39 -47 -68 -27 -29 -61 -71 -78 -95 -16 -24 -46 -62 -65 -86 -40 -49
-69 -87 -90 -119 -50 -77 -195 -230 -239 -253 -32 -17 -36 -23 -36 -58 0 -32
5 -42 34 -61 19 -13 42 -23 52 -23 23 0 104 68 118 100 12 27 88 112 113 126
9 5 25 27 36 49 12 22 39 60 61 84 22 24 43 53 47 63 3 11 26 38 52 61 69 63
82 79 82 98 0 9 7 22 15 29 8 7 15 20 15 30 0 22 26 74 45 90 8 7 15 16 15 21
0 4 13 27 29 51 16 24 36 63 44 88 9 25 23 60 33 79 18 37 32 89 41 156 3 22
9 45 14 50 4 6 7 24 7 41 -1 16 4 39 11 51 18 34 15 383 -4 419 -8 16 -12 38
-9 50 3 13 -4 49 -15 81 -12 33 -21 68 -21 79 0 10 -9 33 -19 50 -17 27 -24
64 -34 165 -1 15 -16 48 -33 75 -43 69 -84 149 -84 164 0 22 -96 214 -114 229
-10 8 -24 28 -33 45 -64 127 -228 315 -347 397 -27 19 -60 43 -72 54 -87 77
-96 79 -120 33z"/>
<path d="M1250 3414 c-37 -55 -36 -73 5 -88 84 -30 221 -149 338 -292 26 -33
60 -75 76 -94 15 -19 34 -53 41 -75 7 -22 21 -49 30 -60 16 -17 37 -59 95
-190 7 -16 27 -58 44 -93 17 -34 31 -70 31 -78 0 -16 33 -127 51 -169 24 -59
39 -121 39 -160 0 -24 5 -47 10 -50 6 -3 10 -31 10 -61 0 -31 5 -65 11 -77 15
-26 14 -236 -1 -251 -5 -5 -10 -53 -10 -107 0 -55 -4 -101 -10 -104 -5 -3 -10
-28 -10 -54 0 -31 -5 -53 -15 -61 -8 -7 -15 -27 -15 -45 0 -18 -6 -38 -14 -44
-21 -18 -82 -123 -96 -167 -7 -22 -33 -62 -59 -90 -25 -28 -62 -73 -81 -100
-19 -26 -44 -58 -55 -70 -11 -12 -38 -48 -60 -80 -22 -33 -55 -74 -72 -93 -18
-19 -33 -38 -33 -43 0 -17 -94 -108 -148 -144 -29 -20 -56 -42 -59 -50 -15
-40 26 -89 85 -100 22 -4 36 3 75 39 26 24 47 47 47 51 0 5 18 28 40 52 22 24
40 48 40 54 0 5 6 10 13 10 15 0 57 41 57 56 0 6 25 40 55 77 30 36 55 72 55
78 0 6 29 38 65 71 36 33 65 68 65 78 0 9 9 29 20 43 11 14 20 32 20 41 0 9
27 58 60 109 34 51 63 103 66 117 2 14 18 52 34 85 17 34 30 72 30 86 0 14 3
29 8 33 4 4 8 22 9 39 1 18 7 57 14 87 15 71 23 448 10 475 -6 11 -12 40 -15
65 -7 68 -31 161 -51 200 -10 19 -19 53 -21 75 -5 76 -21 134 -46 167 -29 38
-78 135 -78 154 0 19 -108 230 -125 244 -9 8 -25 31 -36 51 -54 107 -232 309
-333 377 -28 20 -74 55 -102 79 -28 23 -56 43 -62 43 -6 0 -25 -21 -42 -46z"/>
<path d="M1684 3428 c-9 -18 -23 -41 -32 -50 -12 -14 -12 -20 -2 -33 7 -8 18
-15 24 -15 6 0 43 -21 81 -46 69 -46 190 -164 273 -266 23 -29 56 -69 72 -89
17 -20 30 -43 30 -51 0 -9 12 -32 26 -54 31 -45 84 -153 84 -169 0 -7 8 -23
18 -36 10 -13 24 -42 31 -64 8 -22 22 -52 32 -67 11 -14 19 -38 19 -52 0 -14
20 -86 45 -160 25 -75 45 -152 45 -174 0 -21 4 -42 9 -47 19 -20 38 -347 22
-379 -6 -12 -13 -61 -15 -111 -9 -156 -16 -202 -37 -221 -11 -10 -19 -30 -19
-49 0 -19 -8 -39 -20 -50 -11 -10 -20 -24 -20 -32 0 -7 -4 -13 -10 -13 -10 0
-60 -102 -60 -122 0 -6 -19 -32 -42 -59 -24 -26 -56 -66 -73 -89 -16 -22 -48
-63 -70 -90 -44 -53 -72 -91 -95 -125 -42 -65 -208 -245 -225 -245 -24 0 -57
-47 -53 -76 3 -31 56 -74 91 -74 24 0 187 165 187 189 0 6 14 18 30 26 18 9
37 31 46 53 8 20 35 57 60 82 25 25 48 57 51 73 3 15 9 27 12 27 17 0 121 109
121 127 0 11 7 26 15 33 8 7 15 21 15 32 0 11 27 61 60 111 33 50 67 112 74
137 7 25 22 61 33 80 11 20 23 51 27 70 4 19 11 58 17 85 6 28 11 66 13 85 1
19 8 45 14 57 19 34 16 383 -3 419 -8 16 -12 38 -9 50 3 13 -4 49 -15 81 -12
33 -21 68 -21 79 0 10 -9 33 -19 50 -10 17 -21 55 -24 85 -8 90 -16 123 -37
149 -20 25 -90 164 -90 179 0 18 -99 207 -114 221 -10 7 -29 34 -42 59 -24 45
-32 58 -85 137 -45 66 -270 273 -349 319 -9 6 -24 18 -34 28 -26 25 -43 21
-62 -15z"/>
<path d="M2100 3414 c-34 -51 -36 -77 -5 -82 34 -7 186 -113 197 -138 6 -13
19 -26 29 -29 17 -6 42 -33 129 -140 92 -112 110 -138 110 -155 0 -9 11 -34
25 -55 33 -48 80 -143 89 -177 3 -16 11 -28 16 -28 6 0 10 -7 10 -15 0 -9 14
-42 30 -75 17 -33 30 -67 30 -76 0 -8 23 -83 50 -165 31 -92 48 -158 45 -172
-3 -12 0 -35 8 -51 9 -17 13 -42 10 -65 -3 -22 0 -48 8 -62 18 -34 18 -225 1
-251 -9 -13 -13 -45 -11 -106 2 -56 -1 -95 -9 -110 -8 -13 -10 -36 -7 -55 5
-25 2 -37 -14 -51 -13 -12 -21 -31 -21 -51 0 -18 -6 -38 -14 -44 -21 -17 -82
-123 -97 -168 -7 -21 -29 -56 -49 -78 -33 -36 -79 -94 -198 -253 -23 -31 -53
-68 -66 -82 -13 -14 -32 -39 -42 -55 -32 -51 -105 -124 -155 -155 -53 -33 -67
-61 -48 -97 15 -27 57 -53 88 -53 19 0 121 90 121 107 0 5 28 38 63 74 34 35
71 78 81 94 11 17 39 53 63 81 23 28 43 56 43 63 0 6 29 39 65 72 36 34 65 69
65 79 0 9 9 29 20 43 11 14 20 30 20 37 0 12 29 72 39 80 19 14 72 108 87 153
9 28 26 66 37 85 20 34 36 88 43 152 2 19 9 60 15 90 15 72 23 448 10 475 -6
11 -12 40 -14 65 -5 61 -25 135 -52 195 -14 33 -20 62 -17 86 2 21 -1 40 -7
43 -6 4 -11 22 -11 39 0 18 -10 48 -23 67 -34 53 -87 154 -87 166 0 20 -107
229 -125 244 -9 7 -26 32 -37 54 -37 74 -99 158 -177 239 -68 71 -170 157
-186 157 -4 0 -32 23 -64 50 -32 28 -63 50 -69 50 -6 0 -25 -21 -42 -46z"/>
</g>
</svg>
