<?xml version="1.0" standalone="no"?>
<!DOCTYPE svg PUBLIC "-//W3C//DTD SVG 20010904//EN"
 "http://www.w3.org/TR/2001/REC-SVG-20010904/DTD/svg10.dtd">
<svg version="1.0" xmlns="http://www.w3.org/2000/svg"
 width="1350.000000pt" height="1500.000000pt" viewBox="0 0 1350.000000 1500.000000"
 preserveAspectRatio="xMidYMid meet">
<metadata>
Created by potrace 1.16, written by Peter Selinger 2001-2019
</metadata>
<g transform="translate(0.000000,1500.000000) scale(0.500000,-0.500000)"
fill="#000000" stroke="none">
<path d="M320 2762 c-4 -3 -11 -12 -18 -26 -7 -12 -15 -24 -19 -27 -23 -21
-12 -48 24 -56 12 -3 17 -6 24 -11 12 -11 27 -21 39 -27 6 -3 15 -9 20 -13 5
-4 16 -11 24 -16 18 -10 30 -21 38 -36 7 -13 11 -17 27 -27 18 -10 56 -51 63
-67 5 -10 12 -19 37 -44 27 -28 32 -34 38 -46 5 -11 10 -18 21 -29 16 -16 21
-24 23 -39 1 -7 4 -15 8 -22 4 -6 8 -14 9 -19 1 -4 7 -12 12 -18 10 -10 40
-66 46 -84 1 -3 5 -11 9 -17 5 -8 7 -13 7 -19 0 -12 5 -22 14 -32 9 -9 14 -20
14 -31 0 -5 2 -10 6 -17 3 -5 8 -15 11 -21 3 -7 7 -15 9 -18 11 -16 20 -40 20
-55 0 -12 1 -17 5 -25 3 -6 6 -16 7 -22 1 -7 5 -18 9 -26 4 -8 8 -18 9 -27 1
-8 4 -17 6 -20 8 -12 12 -22 12 -31 0 -6 2 -12 5 -17 3 -5 6 -13 6 -18 1 -6 4
-16 8 -23 6 -13 6 -13 6 -44 0 -34 1 -37 10 -50 6 -8 6 -8 7 -53 1 -44 1 -44
9 -54 l7 -10 0 -84 -1 -85 -7 -9 c-7 -10 -7 -10 -8 -84 -1 -41 -2 -75 -3 -77
-1 -2 -5 -6 -8 -11 -6 -7 -6 -7 -6 -42 0 -38 -1 -43 -13 -51 -10 -7 -14 -18
-14 -37 0 -18 -3 -25 -18 -41 -5 -7 -13 -17 -16 -24 -3 -7 -9 -16 -13 -20 -4
-4 -9 -11 -11 -18 -2 -6 -6 -13 -9 -17 -7 -10 -23 -45 -26 -60 -3 -15 -1 -13
-37 -49 -16 -17 -27 -30 -30 -35 -5 -11 -18 -30 -30 -41 -5 -5 -13 -17 -19
-26 -7 -12 -16 -24 -31 -39 -16 -16 -23 -26 -29 -37 -5 -10 -14 -21 -25 -33
-14 -15 -18 -20 -20 -28 -2 -9 -6 -13 -29 -37 -15 -14 -28 -29 -29 -32 -1 -3
-3 -9 -4 -12 -5 -14 -102 -107 -116 -112 -58 -21 -64 -81 -14 -118 32 -23 76
-15 96 18 4 7 10 12 18 17 15 9 19 13 26 30 5 11 10 18 28 36 15 16 24 26 27
34 6 12 10 17 24 24 14 7 29 23 38 40 17 35 23 45 33 52 5 3 13 12 17 18 4 7
14 18 21 26 16 17 20 23 21 36 2 12 5 16 16 21 25 13 89 85 89 101 0 11 2 15
12 27 10 10 16 23 16 33 0 5 2 11 6 17 3 5 7 13 9 19 2 5 8 15 14 21 6 7 14
17 17 24 3 6 10 17 16 23 5 6 10 14 12 19 1 4 5 12 9 18 4 6 9 15 11 21 2 6 5
13 7 17 2 3 4 11 5 18 2 7 7 20 15 35 7 13 13 26 14 29 0 3 4 10 8 16 8 11 8
12 9 32 1 19 2 22 7 30 6 9 6 10 7 36 1 24 2 28 7 39 6 11 6 14 6 35 0 23 0
23 8 37 l7 13 0 157 0 157 -7 10 c-8 11 -8 11 -8 43 0 31 0 32 -6 48 -4 9 -8
20 -9 26 -1 5 -4 14 -7 19 -4 7 -5 13 -5 22 0 17 -3 29 -9 37 -18 26 -24 43
-24 76 0 31 0 32 -6 44 -5 10 -6 16 -7 31 -2 23 -13 47 -32 70 -13 15 -16 21
-20 33 -1 4 -6 14 -10 21 -4 7 -9 17 -11 22 -2 5 -7 14 -10 20 -5 8 -7 14 -8
24 -1 10 -3 16 -9 26 -4 7 -10 18 -12 23 -3 8 -26 54 -34 68 -1 2 -5 10 -8 17
-13 29 -20 39 -36 56 -14 13 -18 20 -22 29 -7 19 -18 38 -28 50 -5 6 -11 14
-12 18 -3 9 -6 14 -21 33 -6 7 -13 17 -15 22 -3 7 -22 28 -55 61 -90 93 -112
114 -125 120 -6 3 -15 9 -20 14 -5 5 -15 11 -22 15 -8 4 -18 12 -31 25 -13 12
-24 21 -31 25 -7 3 -14 9 -17 13 -10 13 -32 17 -45 9z"/>
<path d="M687 2764 c-9 -3 -12 -7 -24 -29 -6 -11 -14 -23 -17 -26 -21 -20 -13
-44 19 -53 15 -4 21 -7 40 -22 5 -4 15 -11 22 -14 6 -4 16 -11 22 -15 6 -5 17
-13 26 -18 19 -10 30 -22 39 -38 6 -10 10 -14 24 -23 23 -15 57 -52 66 -70 5
-11 12 -20 37 -45 25 -26 32 -35 37 -45 3 -9 10 -18 21 -30 19 -20 21 -23 23
-38 1 -8 4 -15 7 -20 2 -4 7 -12 9 -18 2 -6 7 -14 12 -19 8 -8 41 -68 46 -84
2 -5 6 -13 10 -18 4 -8 7 -14 7 -20 2 -16 3 -19 10 -27 13 -14 17 -22 17 -32
0 -7 2 -12 7 -21 4 -6 8 -14 9 -18 1 -3 5 -12 9 -18 17 -27 24 -46 22 -60 -1
-11 -1 -13 4 -22 3 -5 6 -16 8 -24 2 -8 5 -19 9 -26 4 -7 7 -16 8 -24 2 -10 4
-17 9 -26 6 -8 8 -15 9 -24 1 -7 4 -16 7 -22 3 -6 5 -14 5 -17 0 -4 3 -13 6
-20 7 -13 7 -14 8 -47 1 -34 1 -34 8 -46 7 -12 7 -12 8 -55 1 -41 1 -44 5 -49
11 -14 11 -11 11 -98 0 -88 0 -86 -9 -99 -6 -8 -6 -8 -7 -83 l-1 -74 -7 -10
c-9 -10 -9 -9 -8 -52 0 -25 -2 -32 -14 -43 -11 -11 -14 -18 -14 -40 0 -17 -2
-22 -20 -41 -5 -6 -11 -15 -13 -20 -1 -5 -7 -14 -13 -20 -5 -6 -10 -14 -12
-18 -1 -5 -4 -12 -7 -16 -9 -14 -25 -50 -27 -63 -2 -13 -2 -13 -32 -43 -21
-21 -31 -33 -35 -41 -7 -14 -13 -22 -27 -37 -6 -7 -16 -20 -22 -30 -7 -13 -16
-24 -32 -40 -16 -16 -23 -26 -29 -36 -4 -9 -13 -21 -24 -32 -12 -14 -17 -21
-20 -29 -3 -8 -8 -15 -30 -38 -23 -23 -27 -29 -30 -38 -5 -17 -101 -111 -119
-118 -59 -22 -62 -83 -7 -114 35 -19 68 -13 89 17 4 5 12 13 20 18 15 10 18
14 27 35 2 5 12 17 25 31 15 15 24 27 28 35 6 11 8 13 19 19 6 3 16 10 22 16
10 9 12 12 35 57 4 8 9 14 16 19 5 5 14 14 19 22 6 8 13 17 18 21 9 8 23 29
23 35 0 12 4 19 15 25 6 3 25 20 48 44 41 40 43 43 43 61 0 8 1 10 10 20 12
13 15 20 17 34 1 5 5 16 9 24 4 8 8 17 8 18 0 2 5 9 12 16 7 7 14 18 17 23 2
6 9 16 15 23 5 6 11 16 13 21 2 5 7 14 11 21 5 6 8 13 8 14 0 1 3 8 6 15 4 7
8 19 9 27 2 10 6 20 14 33 6 10 11 22 13 26 1 4 5 11 7 15 9 13 11 20 11 36 0
14 1 18 7 30 7 13 7 14 7 35 -1 20 -1 22 6 36 6 14 7 16 7 39 0 24 0 24 7 35
l7 11 0 159 0 160 -7 9 c-7 10 -7 10 -7 40 0 29 -2 41 -8 53 -2 3 -5 12 -7 21
-2 8 -6 18 -8 21 -3 5 -4 12 -5 27 -1 18 -1 20 -8 31 -22 36 -25 47 -24 79 0
30 0 30 -6 41 -5 9 -6 14 -7 30 -2 24 -14 51 -34 73 -7 8 -13 17 -15 24 -2 5
-8 19 -14 30 -6 11 -11 22 -12 25 -1 3 -5 10 -8 16 -5 8 -7 15 -9 25 -1 11 -3
17 -8 24 -3 5 -9 17 -13 26 -4 10 -9 20 -11 23 -2 3 -7 11 -9 18 -3 7 -7 16
-10 20 -3 4 -6 11 -8 16 -2 5 -6 12 -8 16 -2 4 -7 12 -10 18 -3 6 -13 19 -23
29 -10 11 -18 21 -19 24 -2 11 -19 42 -28 52 -5 5 -11 15 -14 21 -2 6 -7 14
-10 18 -12 14 -23 29 -26 38 -3 6 -15 20 -40 45 -20 20 -53 53 -73 74 -41 42
-55 54 -68 61 -5 2 -13 8 -18 13 -6 5 -15 11 -21 14 -8 3 -17 11 -33 25 -11
12 -25 23 -29 25 -4 2 -12 8 -18 13 -14 14 -23 16 -38 12z"/>
<path d="M1028 2764 c-9 -2 -13 -6 -25 -30 -6 -11 -15 -24 -19 -28 -19 -19 -8
-41 23 -49 13 -4 16 -5 36 -21 7 -5 19 -13 27 -18 8 -4 18 -11 21 -14 3 -3 13
-9 21 -14 19 -10 35 -26 42 -40 6 -12 9 -15 24 -24 16 -9 57 -52 64 -66 7 -15
10 -18 41 -51 23 -23 28 -30 35 -42 5 -11 11 -20 21 -30 19 -19 21 -22 23 -38
1 -8 3 -15 7 -20 3 -4 6 -12 8 -17 2 -5 8 -15 14 -22 8 -9 16 -22 28 -47 24
-49 25 -51 30 -61 3 -5 5 -12 5 -16 0 -11 3 -17 12 -27 10 -11 14 -19 14 -28
0 -5 2 -12 5 -17 3 -5 7 -14 10 -20 3 -6 7 -14 9 -18 16 -27 23 -45 23 -61 0
-13 1 -18 5 -26 3 -6 6 -15 7 -21 1 -6 4 -16 8 -23 4 -8 8 -18 9 -26 2 -14 4
-20 13 -35 3 -5 5 -12 5 -17 0 -5 2 -12 5 -18 3 -6 6 -15 7 -21 1 -6 4 -15 7
-21 5 -9 6 -12 7 -45 1 -35 1 -35 8 -46 7 -11 7 -11 8 -55 1 -44 1 -44 9 -55
l8 -11 1 -77 c0 -84 0 -89 -11 -104 -6 -8 -6 -8 -7 -83 -1 -74 -1 -74 -8 -83
-7 -9 -7 -9 -8 -46 -1 -20 -2 -37 -2 -38 0 0 -5 -6 -11 -12 -12 -12 -12 -12
-13 -33 -1 -23 -3 -27 -20 -46 -6 -8 -13 -18 -15 -23 -2 -5 -7 -14 -12 -19 -5
-5 -11 -14 -13 -20 -2 -6 -6 -14 -9 -18 -7 -10 -22 -45 -25 -58 -3 -15 -1 -13
-34 -46 -15 -16 -30 -32 -32 -37 -5 -12 -18 -30 -29 -41 -6 -6 -15 -18 -20
-27 -7 -12 -16 -24 -31 -39 -16 -17 -23 -26 -29 -37 -5 -10 -13 -20 -25 -33
-13 -14 -18 -21 -21 -29 -3 -9 -8 -15 -30 -38 -23 -23 -27 -29 -31 -39 -6 -18
-100 -111 -119 -119 -60 -22 -60 -83 -1 -114 34 -17 62 -11 84 19 5 7 13 14
21 19 13 9 18 15 24 31 3 7 10 16 27 34 17 17 25 27 28 35 5 10 7 13 16 17 27
15 36 26 60 75 4 8 9 15 16 20 6 5 16 15 21 24 6 8 13 17 16 19 9 7 23 28 23
36 0 10 4 17 14 23 33 18 92 86 92 104 0 10 0 9 19 33 4 5 6 11 7 20 2 9 5 18
9 25 4 5 7 13 8 16 1 3 6 11 12 18 6 7 14 18 17 24 3 7 10 16 15 22 5 6 12 16
15 23 3 7 8 16 10 19 6 9 21 46 23 57 1 6 6 19 14 34 7 13 13 26 14 29 1 3 5
10 9 16 7 10 7 11 8 31 1 18 2 21 8 32 6 11 6 12 6 33 -1 20 -1 22 6 37 6 15
7 17 7 39 0 23 0 23 7 34 l7 11 0 159 0 159 -8 12 c-8 11 -8 11 -6 34 1 27 -1
41 -8 56 -2 6 -6 15 -7 21 -1 6 -4 15 -7 20 -4 8 -5 14 -6 29 -1 15 -2 21 -5
26 -22 35 -27 49 -27 81 0 31 0 31 -6 45 -6 11 -7 17 -8 31 -1 21 -13 48 -33
71 -8 10 -13 19 -17 28 -3 7 -8 19 -12 25 -3 6 -8 17 -11 23 -3 7 -7 15 -9 18
-6 8 -7 12 -9 27 -1 10 -3 16 -8 23 -3 5 -9 17 -13 26 -4 10 -8 19 -9 20 -2 2
-28 55 -33 65 -10 21 -21 39 -37 55 -11 12 -18 21 -20 26 -5 15 -18 40 -27 50
-5 6 -11 16 -14 21 -2 6 -10 18 -17 27 -7 9 -16 21 -19 27 -4 9 -19 25 -55 61
-27 28 -60 61 -73 75 -30 30 -42 41 -53 46 -5 2 -13 7 -18 12 -5 5 -14 11 -21
14 -8 4 -19 13 -32 26 -13 12 -24 22 -32 26 -7 3 -15 9 -19 14 -8 11 -19 14
-34 10z"/>
<path d="M1367 2764 c-9 -3 -13 -8 -25 -31 -6 -11 -14 -23 -18 -28 -18 -17 -9
-39 19 -47 20 -6 21 -6 39 -21 9 -7 21 -16 28 -19 6 -3 16 -10 22 -14 6 -5 17
-13 24 -17 16 -8 32 -24 39 -38 5 -11 8 -14 24 -23 17 -10 55 -51 64 -69 6
-11 12 -20 37 -45 26 -26 32 -33 38 -46 5 -10 11 -19 21 -29 19 -19 21 -22 23
-37 1 -9 4 -16 9 -25 4 -6 7 -14 8 -17 1 -3 6 -11 12 -18 9 -11 42 -71 46 -85
1 -3 4 -10 8 -15 6 -9 8 -13 9 -25 1 -11 3 -15 8 -21 13 -15 17 -22 18 -34 1
-8 4 -15 8 -22 3 -5 7 -13 9 -18 2 -5 6 -14 10 -20 16 -28 20 -36 21 -55 0
-13 2 -20 5 -27 2 -5 5 -15 7 -21 1 -7 5 -18 8 -25 3 -7 7 -19 9 -27 2 -9 5
-18 9 -25 5 -7 7 -13 8 -22 1 -8 3 -17 7 -23 3 -5 5 -13 5 -16 0 -3 3 -12 6
-19 7 -13 7 -14 8 -48 1 -35 1 -35 8 -47 7 -12 7 -12 8 -55 1 -43 1 -43 9 -54
l8 -10 0 -84 0 -84 -8 -12 -8 -13 -1 -72 c-1 -72 -1 -72 -8 -84 -8 -12 -8 -12
-8 -42 0 -37 -1 -41 -14 -54 -11 -11 -15 -23 -13 -38 1 -12 -3 -22 -17 -38 -6
-7 -13 -17 -16 -23 -2 -6 -8 -15 -13 -21 -5 -5 -10 -13 -12 -19 -2 -5 -6 -13
-9 -17 -9 -14 -22 -43 -25 -58 -4 -18 -3 -17 -36 -49 -19 -20 -28 -30 -33 -39
-7 -14 -17 -29 -29 -40 -4 -4 -13 -16 -18 -25 -7 -12 -17 -24 -31 -39 -16 -17
-24 -26 -29 -37 -5 -10 -13 -20 -25 -33 -13 -14 -18 -21 -21 -29 -3 -8 -8 -15
-30 -38 -23 -24 -27 -29 -31 -40 -6 -17 -101 -112 -118 -117 -53 -18 -61 -87
-13 -109 4 -2 13 -7 19 -10 24 -14 56 -4 76 23 5 7 13 14 21 19 13 9 18 15 24
31 3 7 10 15 26 33 15 16 25 28 29 36 6 11 8 13 19 19 17 9 33 25 43 45 5 9
11 22 14 28 4 8 9 15 16 20 6 5 15 14 20 22 5 7 14 19 21 25 13 13 19 23 19
32 0 10 4 17 15 23 6 3 25 21 48 44 41 40 43 43 43 61 0 9 0 9 19 32 3 4 6 10
7 19 1 7 5 18 10 27 4 8 8 16 8 18 0 1 5 8 11 15 6 7 14 17 17 24 3 6 10 17
16 23 5 6 11 15 13 20 2 6 7 15 11 22 5 6 8 12 8 13 0 1 3 9 6 16 3 8 7 19 8
25 2 8 7 21 15 36 7 13 13 26 14 29 1 3 4 8 6 12 9 10 11 19 11 36 0 15 1 17
7 29 7 13 7 14 7 36 -1 21 -1 23 6 36 6 13 7 15 7 38 0 24 0 24 7 35 l7 11 0
159 0 160 -7 9 c-7 10 -7 10 -7 42 0 31 0 32 -6 47 -4 8 -8 21 -10 28 -1 6 -5
15 -7 19 -2 5 -4 15 -5 27 -1 17 -2 20 -9 32 -4 7 -9 15 -10 18 -1 3 -4 10 -7
14 -6 9 -6 9 -6 41 0 32 0 32 -7 46 -5 11 -6 17 -7 31 -1 21 -13 49 -33 71 -8
10 -13 19 -17 28 -3 8 -8 19 -12 25 -3 6 -7 14 -9 18 -1 4 -6 13 -10 21 -6 11
-9 18 -10 29 -1 10 -3 16 -8 23 -3 5 -9 16 -12 24 -3 8 -7 16 -8 18 -6 9 -29
55 -32 64 -2 5 -7 13 -10 18 -3 4 -7 11 -8 15 -2 4 -11 16 -21 26 -13 14 -19
21 -21 27 -4 13 -18 39 -27 50 -5 6 -11 15 -14 21 -2 6 -11 19 -18 28 -7 9
-15 22 -18 27 -8 16 -164 173 -179 180 -6 2 -15 8 -20 13 -5 5 -14 11 -21 14
-7 4 -19 14 -32 26 -12 11 -25 22 -31 25 -6 3 -14 9 -19 14 -10 12 -21 15 -36
11z"/>
<path d="M1705 2763 c-8 -3 -11 -7 -23 -30 -6 -11 -14 -23 -18 -27 -18 -17 -9
-40 19 -48 8 -2 16 -5 18 -5 2 -1 8 -5 13 -10 11 -10 23 -19 37 -26 6 -2 15
-8 20 -13 6 -4 15 -11 22 -15 16 -8 33 -24 40 -37 8 -15 12 -19 24 -25 16 -9
58 -52 66 -70 5 -12 11 -19 38 -46 26 -27 32 -35 37 -46 4 -9 10 -18 22 -29
18 -20 20 -23 22 -38 1 -8 4 -16 7 -20 3 -4 7 -13 9 -19 3 -6 8 -15 14 -21 9
-10 41 -69 45 -84 1 -3 5 -9 8 -15 5 -7 7 -13 8 -20 2 -17 3 -19 12 -29 12
-13 14 -17 15 -30 1 -8 4 -16 9 -23 3 -7 8 -15 9 -19 1 -4 5 -12 8 -17 15 -23
22 -43 21 -59 0 -13 1 -16 4 -22 3 -4 6 -14 8 -23 2 -10 5 -19 9 -25 4 -6 6
-14 8 -24 2 -11 4 -18 9 -27 6 -8 8 -15 9 -24 1 -7 4 -16 7 -22 3 -6 5 -14 5
-17 0 -4 3 -13 6 -20 7 -13 7 -14 8 -48 1 -36 1 -36 8 -45 7 -10 7 -10 8 -54
1 -43 1 -45 5 -50 12 -15 12 -11 11 -99 0 -87 0 -85 -9 -98 -6 -8 -6 -8 -7
-82 l-1 -73 -8 -12 c-8 -11 -8 -11 -7 -42 0 -36 -1 -40 -15 -55 -12 -12 -15
-22 -12 -38 2 -11 -3 -21 -19 -39 -7 -8 -13 -19 -15 -23 -2 -5 -7 -13 -13 -19
-5 -6 -10 -14 -12 -19 -1 -5 -5 -12 -7 -15 -8 -11 -25 -49 -27 -63 -3 -13 -3
-13 -32 -43 -21 -21 -31 -33 -35 -41 -7 -14 -13 -21 -28 -38 -7 -7 -16 -21
-22 -30 -7 -12 -16 -24 -31 -39 -16 -16 -23 -26 -28 -36 -5 -9 -12 -20 -24
-32 -14 -14 -18 -21 -21 -29 -3 -9 -8 -15 -30 -38 -23 -23 -27 -29 -30 -38 -5
-17 -98 -109 -119 -118 -60 -28 -62 -85 -3 -115 35 -18 64 -12 86 19 3 4 12
13 20 18 13 8 15 10 23 26 7 14 12 21 30 39 15 15 23 24 27 34 6 11 7 13 20
20 19 10 31 22 41 42 19 38 23 44 32 50 4 3 12 11 16 18 5 6 14 18 21 25 16
17 23 27 23 35 0 11 3 17 15 24 11 7 58 51 77 72 10 11 12 15 12 26 0 12 3 18
13 29 11 12 13 16 15 31 1 8 4 16 6 19 2 3 6 12 9 18 3 8 9 16 15 23 6 6 12
16 15 22 3 6 10 16 16 23 6 7 12 16 14 22 2 5 6 13 9 17 8 11 22 46 24 58 1 6
6 20 15 37 7 15 13 28 13 28 0 1 4 7 8 14 8 12 8 13 8 30 0 16 1 19 7 31 7 13
7 14 7 35 0 21 0 23 7 40 7 17 7 17 6 37 -1 20 -1 20 5 30 4 5 7 12 8 15 1 3
2 68 2 161 0 166 1 160 -9 172 -5 5 -5 7 -5 36 0 27 -1 31 -5 44 -3 8 -7 21
-9 28 -2 8 -6 19 -9 24 -4 8 -5 12 -5 25 0 17 -2 26 -11 36 -2 4 -6 11 -8 16
-2 5 -5 11 -7 14 -7 10 -8 17 -7 45 2 26 2 26 -6 42 -6 15 -7 18 -7 32 0 20
-13 48 -33 71 -8 9 -13 18 -18 29 -3 9 -9 21 -12 26 -3 6 -7 13 -9 17 -1 4 -6
13 -10 21 -5 10 -8 18 -9 27 -1 10 -3 15 -8 23 -4 6 -9 17 -12 23 -4 11 -23
50 -33 67 -1 2 -5 11 -9 19 -15 32 -20 40 -37 57 -14 15 -18 20 -21 29 -5 15
-18 38 -27 48 -4 5 -10 14 -13 21 -3 6 -11 18 -18 27 -7 10 -15 22 -18 27 -8
17 -164 173 -181 181 -7 3 -16 9 -21 14 -5 4 -14 11 -21 14 -9 4 -20 13 -33
26 -12 11 -24 21 -28 23 -5 2 -12 8 -18 13 -14 14 -26 17 -40 11z"/>
</g>
</svg>
