<?xml version="1.0" standalone="no"?>
<!DOCTYPE svg PUBLIC "-//W3C//DTD SVG 20010904//EN"
 "http://www.w3.org/TR/2001/REC-SVG-20010904/DTD/svg10.dtd">
<svg version="1.0" xmlns="http://www.w3.org/2000/svg"
 width="90.000000pt" height="100.000000pt" viewBox="0 0 90.000000 100.000000"
 preserveAspectRatio="xMidYMid meet">
<metadata>
Created by potrace 1.16, written by Peter Selinger 2001-2019
</metadata>
<g transform="translate(0.000000,100.000000) scale(0.100000,-0.100000)"
fill="#000000" stroke="none">
<path d="M86 903 c-5 -12 1 -23 21 -37 54 -38 97 -92 129 -161 104 -220 82
-355 -86 -538 -43 -48 -52 -62 -43 -75 5 -10 16 -17 24 -17 20 0 142 158 181
234 31 61 33 71 32 166 0 82 -5 112 -26 167 -33 89 -81 166 -140 228 -49 52
-81 63 -92 33z"/>
<path d="M215 910 c-4 -6 20 -40 53 -75 105 -111 159 -256 149 -398 -6 -90
-23 -125 -124 -249 -61 -76 -73 -108 -40 -108 15 0 118 120 154 180 34 55 63
154 63 212 0 140 -89 332 -197 422 -33 28 -48 32 -58 16z"/>
<path d="M330 904 c0 -10 21 -38 48 -63 53 -51 111 -156 137 -245 12 -42 16
-83 13 -145 -5 -98 -25 -146 -106 -245 -26 -32 -56 -69 -66 -82 -16 -19 -17
-27 -8 -36 18 -18 38 -2 104 83 87 112 122 188 126 274 5 98 -12 170 -64 275
-64 128 -184 247 -184 184z"/>
<path d="M444 905 c-4 -9 11 -30 40 -57 97 -91 160 -239 160 -378 0 -117 -23
-166 -146 -309 -41 -47 -49 -81 -20 -81 23 0 147 158 181 230 34 72 41 209 16
297 -25 87 -83 189 -143 255 -55 59 -78 70 -88 43z"/>
<path d="M555 910 c-4 -6 20 -39 52 -73 119 -128 174 -306 142 -457 -11 -51
-86 -168 -151 -237 -31 -32 -33 -63 -4 -63 16 0 104 101 152 175 96 151 83
338 -39 532 -39 63 -109 133 -133 133 -7 0 -16 -5 -19 -10z"/>
</g>
</svg>
