<?xml version="1.0" standalone="no"?>
<!DOCTYPE svg PUBLIC "-//W3C//DTD SVG 20010904//EN"
 "http://www.w3.org/TR/2001/REC-SVG-20010904/DTD/svg10.dtd">
<svg version="1.0" xmlns="http://www.w3.org/2000/svg"
 width="1142.000000pt" height="1500.000000pt" viewBox="0 0 1142.000000 1500.000000"
 preserveAspectRatio="xMidYMid meet">
<metadata>
Created by potrace 1.16, written by Peter Selinger 2001-2019
</metadata>
<g transform="translate(0.000000,1500.000000) scale(0.500000,-0.500000)"
fill="#000000" stroke="none">
<path d="M1072 2926 c-513 -47 -903 -496 -910 -1050 -1 -49 -12 -44 87 -43
122 2 110 -3 113 44 29 463 340 840 726 880 434 45 827 -362 856 -887 2 -39
-2 -36 53 -36 23 0 61 -1 84 -1 58 -2 57 -5 47 110 -50 596 -518 1031 -1056
983z"/>
<path d="M1088 2113 c-1 0 -14 -2 -29 -3 -509 -39 -901 -502 -907 -1070 -1
-67 -15 -59 99 -57 110 2 97 -4 99 42 30 674 597 1106 1105 841 280 -145 467
-473 480 -842 2 -46 -9 -41 94 -42 104 0 94 -7 92 66 -16 572 -387 1009 -902
1062 -21 2 -129 5 -131 3z"/>
<path d="M1101 1223 c-518 -29 -904 -431 -951 -991 -4 -47 -4 -133 0 -137 4
-4 180 -5 190 -2 5 2 6 4 7 42 22 667 595 1105 1102 841 280 -145 471 -479
480 -837 1 -41 1 -44 7 -46 15 -5 173 -2 176 3 10 12 2 162 -14 255 -80 471
-444 829 -883 868 -34 3 -94 5 -114 4z"/>
</g>
</svg>
