<?xml version="1.0" standalone="no"?>
<!DOCTYPE svg PUBLIC "-//W3C//DTD SVG 20010904//EN"
 "http://www.w3.org/TR/2001/REC-SVG-20010904/DTD/svg10.dtd">
<svg version="1.0" xmlns="http://www.w3.org/2000/svg"
 width="76.000000pt" height="100.000000pt" viewBox="0 0 76.000000 100.000000"
 preserveAspectRatio="xMidYMid meet">
<metadata>
Created by potrace 1.16, written by Peter Selinger 2001-2019
</metadata>
<g transform="translate(0.000000,100.000000) scale(0.100000,-0.100000)"
fill="#000000" stroke="none">
<path d="M275 958 c-114 -41 -209 -167 -222 -295 l-6 -53 31 0 c30 0 32 3 52
69 25 85 71 156 128 195 59 41 150 48 216 16 72 -34 122 -99 152 -196 25 -80
39 -97 72 -87 30 11 -4 150 -57 226 -63 93 -149 137 -261 136 -41 0 -88 -5
-105 -11z"/>
<path d="M318 700 c-62 -11 -101 -36 -170 -107 -61 -64 -94 -136 -99 -218 -4
-50 -4 -50 26 -50 32 0 30 -3 60 107 30 110 123 198 219 206 70 6 119 -11 173
-61 58 -54 80 -92 101 -178 17 -67 21 -74 45 -77 36 -4 43 16 27 86 -44 198
-205 321 -382 292z"/>
<path d="M277 394 c-36 -11 -66 -32 -116 -82 -73 -72 -104 -133 -117 -230 -6
-45 -4 -50 17 -55 38 -10 56 8 62 61 11 97 75 190 157 232 44 22 131 27 177 9
82 -31 152 -126 173 -236 13 -65 28 -80 61 -62 16 8 19 17 14 47 -13 77 -38
141 -73 188 -93 122 -222 169 -355 128z"/>
</g>
</svg>
