<?xml version="1.0" standalone="no"?>
<!DOCTYPE svg PUBLIC "-//W3C//DTD SVG 20010904//EN"
 "http://www.w3.org/TR/2001/REC-SVG-20010904/DTD/svg10.dtd">
<svg version="1.0" xmlns="http://www.w3.org/2000/svg"
 width="54.000000pt" height="100.000000pt" viewBox="0 0 54.000000 100.000000"
 preserveAspectRatio="xMidYMid meet">
<metadata>
Created by potrace 1.16, written by Peter Selinger 2001-2019
</metadata>
<g transform="translate(0.000000,100.000000) scale(0.100000,-0.100000)"
fill="#000000" stroke="none">
<path d="M44 936 c-3 -13 -4 -38 -2 -57 2 -26 8 -34 23 -34 15 0 21 8 23 34 5
46 -5 81 -23 81 -8 0 -17 -11 -21 -24z"/>
<path d="M447 953 c-4 -3 -7 -30 -7 -59 0 -53 16 -74 39 -51 12 12 15 75 5
101 -6 16 -26 21 -37 9z"/>
<path d="M130 932 c0 -11 21 -37 48 -59 94 -80 172 -258 172 -394 0 -127 -35
-204 -155 -338 -34 -38 -52 -67 -49 -76 9 -23 38 -18 64 10 l24 25 26 -25 c28
-27 60 -33 60 -12 0 8 -11 24 -25 37 -27 25 -34 60 -12 60 8 0 26 -14 41 -30
15 -17 31 -28 36 -25 17 11 11 38 -16 66 l-25 27 29 59 c47 93 65 167 59 239
-8 80 -32 163 -68 236 -16 32 -29 63 -29 71 0 7 14 26 30 42 34 32 37 43 14
52 -9 3 -27 -5 -44 -22 -38 -36 -52 -24 -17 13 15 16 27 36 27 45 0 26 -37 21
-56 -8 -9 -14 -21 -25 -26 -25 -5 0 -24 11 -42 25 -39 30 -66 32 -66 7z"/>
<path d="M47 164 c-13 -13 -8 -101 7 -113 22 -18 38 11 34 66 -2 34 -8 49 -18
51 -9 1 -19 0 -23 -4z"/>
<path d="M447 163 c-11 -10 -8 -111 3 -118 30 -18 53 59 34 109 -6 16 -26 21
-37 9z"/>
</g>
</svg>
