<?xml version="1.0" standalone="no"?>
<!DOCTYPE svg PUBLIC "-//W3C//DTD SVG 20010904//EN"
 "http://www.w3.org/TR/2001/REC-SVG-20010904/DTD/svg10.dtd">
<svg version="1.0" xmlns="http://www.w3.org/2000/svg"
 width="804.000000pt" height="1500.000000pt" viewBox="0 0 804.000000 1500.000000"
 preserveAspectRatio="xMidYMid meet">
<metadata>
Created by potrace 1.16, written by Peter Selinger 2001-2019
</metadata>
<g transform="translate(0.000000,1500.000000) scale(0.500000,-0.500000)"
fill="#000000" stroke="none">
<path d="M171 2854 c-26 -2 -24 9 -24 -149 0 -171 -5 -156 55 -156 57 0 57 0
56 68 -1 60 -1 141 0 186 1 50 2 50 -43 51 -16 1 -36 0 -44 0z"/>
<path d="M1346 2854 c-22 -4 -22 -6 -20 -79 1 -33 2 -93 2 -134 -1 -97 -4 -92
55 -92 60 0 55 -14 55 156 1 145 1 140 -11 146 -7 4 -67 6 -81 3z"/>
<path d="M435 2851 c-8 -3 -11 -7 -23 -30 -6 -11 -15 -24 -20 -29 -22 -22 -12
-43 23 -53 10 -3 20 -7 22 -9 3 -1 10 -7 16 -12 7 -6 19 -14 28 -18 9 -5 20
-13 26 -17 5 -5 16 -12 25 -17 18 -10 33 -24 43 -43 7 -13 9 -14 22 -21 21
-11 64 -56 73 -74 6 -14 14 -24 55 -66 15 -15 20 -22 25 -33 4 -10 11 -18 24
-32 21 -22 22 -23 23 -39 1 -10 3 -16 8 -24 4 -6 8 -15 9 -20 2 -5 7 -13 12
-19 11 -12 17 -21 26 -41 4 -8 10 -20 13 -27 4 -6 9 -16 11 -21 2 -6 7 -15 11
-21 5 -8 7 -13 8 -22 2 -19 2 -20 14 -33 11 -12 15 -21 15 -34 0 -5 2 -11 6
-17 4 -6 9 -15 11 -21 3 -7 6 -14 9 -18 14 -19 24 -47 24 -64 0 -15 1 -19 5
-27 3 -6 6 -16 7 -23 1 -8 5 -17 9 -25 5 -9 8 -18 10 -29 2 -12 5 -19 10 -28
6 -9 8 -15 9 -26 1 -9 3 -16 7 -21 4 -6 6 -12 6 -20 1 -8 4 -16 8 -23 6 -11 6
-11 7 -49 1 -38 1 -38 9 -50 8 -12 8 -12 8 -56 0 -47 0 -47 12 -63 6 -8 6 -8
5 -98 l0 -90 -8 -15 -9 -14 1 -72 c0 -78 0 -80 -10 -93 -7 -9 -7 -9 -8 -47 -1
-43 -1 -43 -16 -57 -12 -11 -14 -19 -13 -40 0 -18 -3 -24 -23 -47 -7 -8 -13
-17 -14 -22 -1 -4 -6 -12 -12 -18 -6 -6 -12 -15 -15 -22 -2 -7 -8 -17 -12 -23
-4 -6 -7 -11 -7 -13 0 -1 -3 -8 -7 -16 -4 -8 -8 -21 -10 -30 -3 -15 -33 -52
-60 -73 -3 -3 -8 -10 -11 -17 -9 -17 -20 -32 -31 -43 -5 -5 -15 -19 -22 -30
-10 -17 -18 -27 -34 -43 -15 -16 -24 -26 -30 -37 -4 -8 -13 -21 -20 -28 -20
-22 -24 -27 -29 -39 -4 -10 -8 -16 -32 -40 -15 -16 -28 -31 -30 -34 -1 -4 -3
-10 -4 -13 -2 -6 -36 -41 -91 -94 -20 -20 -26 -24 -36 -28 -47 -17 -62 -58
-34 -97 35 -49 92 -49 124 1 2 4 9 10 14 13 20 14 20 14 32 39 3 8 11 18 27
34 17 18 23 27 28 37 8 18 17 21 28 7 4 -5 18 -20 31 -34 14 -14 46 -48 72
-76 52 -56 54 -57 78 -59 17 -2 27 2 33 12 2 4 6 8 9 10 6 4 27 32 27 36 0 6
-3 9 -18 22 -22 19 -96 89 -131 123 -27 27 -31 30 -39 31 -19 3 -13 33 10 50
6 4 14 13 18 20 5 6 14 18 21 25 7 7 15 16 18 20 12 13 24 9 48 -19 9 -10 33
-37 53 -59 20 -23 47 -53 60 -68 37 -43 42 -48 50 -50 9 -3 18 0 23 7 2 3 6 8
10 11 10 9 11 12 13 26 1 10 3 14 10 21 13 15 18 8 -53 80 -61 61 -120 122
-126 131 -7 10 -4 18 11 32 17 17 22 25 22 34 0 14 3 20 13 32 13 14 16 18 17
33 1 9 3 15 8 22 4 5 8 14 10 20 3 6 9 15 15 22 6 6 14 18 18 25 4 7 11 19 17
25 6 7 11 16 14 23 2 6 7 15 10 19 3 4 8 12 10 18 2 5 6 15 9 21 2 6 5 16 6
22 0 7 5 18 14 36 7 14 15 29 17 34 2 5 7 13 10 17 6 8 6 9 7 29 0 20 0 22 8
34 7 13 7 13 6 38 0 25 0 25 7 39 7 14 7 14 7 40 0 26 0 26 6 35 11 16 11 10
11 186 0 174 0 169 -10 182 -7 8 -7 8 -7 44 0 35 0 35 -6 50 -4 7 -8 20 -9 26
-1 7 -5 17 -8 22 -4 8 -5 12 -6 30 -1 21 -1 22 -8 32 -4 6 -9 14 -11 19 -2 4
-6 12 -10 18 -6 10 -6 10 -6 46 0 36 0 36 -7 49 -6 12 -7 14 -6 29 0 21 -15
54 -36 79 -9 10 -14 19 -20 33 -4 10 -10 22 -14 28 -3 5 -7 13 -8 17 -1 4 -6
13 -10 20 -7 12 -9 17 -10 29 -2 14 -3 18 -10 27 -4 7 -10 17 -13 24 -5 13
-27 59 -34 68 -2 3 -5 11 -8 18 -2 6 -7 16 -10 20 -4 5 -8 13 -10 18 -3 6 -10
14 -21 24 -35 32 -37 29 99 166 98 99 95 96 95 110 0 11 -1 12 -28 39 -34 35
-37 35 -68 -1 -43 -49 -68 -77 -111 -124 -18 -19 -34 -37 -37 -41 -8 -8 -23
-19 -29 -19 -7 0 -31 28 -31 37 0 2 -5 8 -11 15 -12 13 -13 18 -8 28 3 6 66
67 160 156 43 39 43 41 5 80 -39 40 -36 41 -107 -35 -39 -42 -109 -115 -120
-124 -15 -14 -17 -14 -45 16 -38 41 -49 51 -64 57 -7 4 -17 11 -23 16 -5 5
-15 12 -21 15 -7 3 -19 13 -32 26 -14 14 -25 23 -34 27 -7 3 -14 9 -18 14 -11
13 -27 18 -41 11z"/>
<path d="M159 473 c-13 -5 -12 2 -12 -146 1 -172 -5 -156 55 -156 59 0 57 -3
55 88 0 36 0 96 1 133 2 74 2 75 -11 81 -9 4 -78 4 -88 0z"/>
<path d="M1339 473 c-10 -4 -14 -10 -13 -20 0 -6 0 -67 0 -137 1 -159 -4 -145
53 -146 63 -1 59 -13 59 145 0 68 1 129 1 135 0 23 -67 38 -100 23z"/>
</g>
</svg>
