<?xml version="1.0" standalone="no"?>
<!DOCTYPE svg PUBLIC "-//W3C//DTD SVG 20010904//EN"
 "http://www.w3.org/TR/2001/REC-SVG-20010904/DTD/svg10.dtd">
<svg version="1.0" xmlns="http://www.w3.org/2000/svg"
 width="586.000000pt" height="1500.000000pt" viewBox="0 0 586.000000 1500.000000"
 preserveAspectRatio="xMidYMid meet">
<metadata>
Created by potrace 1.16, written by Peter Selinger 2001-2019
</metadata>
<g transform="translate(0.000000,1500.000000) scale(0.500000,-0.500000)"
fill="#000000" stroke="none">
<path d="M555 2897 c-214 -26 -384 -224 -396 -461 -2 -41 -2 -42 30 -42 63 1
63 0 65 33 11 135 84 267 186 335 221 149 489 -13 532 -321 7 -50 3 -46 48
-47 50 -1 50 -1 39 81 -35 270 -253 453 -504 422z"/>
<path d="M575 2527 c-237 -27 -412 -223 -420 -475 -2 -51 -4 -49 51 -46 42 1
40 0 42 29 34 433 489 562 673 192 30 -61 43 -115 50 -204 1 -20 82 -30 86
-10 16 82 -26 228 -95 324 -89 126 -250 205 -387 190z"/>
<path d="M554 2117 c-218 -25 -393 -230 -401 -471 -2 -43 -5 -41 45 -39 50 1
45 -2 48 33 12 168 113 320 249 375 220 88 453 -100 474 -382 2 -27 2 -27 50
-27 40 0 38 -3 36 45 -9 280 -241 495 -501 466z"/>
<path d="M551 1775 c-199 -24 -367 -204 -395 -423 -11 -91 -13 -89 44 -87 47
2 44 0 46 29 24 299 273 482 501 368 120 -60 209 -207 220 -361 3 -37 0 -35
46 -36 48 -2 52 8 38 99 -40 260 -259 440 -500 411z"/>
<path d="M555 1385 c-177 -21 -342 -173 -385 -352 -2 -9 -5 -19 -6 -23 -6 -22
-15 -107 -13 -121 2 -15 3 -16 48 -15 48 1 45 -1 47 31 41 526 676 526 722 0
3 -32 0 -30 44 -31 48 -1 45 -4 44 42 -7 279 -243 500 -501 469z"/>
<path d="M550 1002 c-221 -29 -395 -239 -399 -481 0 -31 -1 -30 47 -28 50 1
45 -2 48 33 12 157 101 302 221 363 227 113 473 -66 501 -363 3 -35 -1 -32 46
-34 45 -1 42 -3 42 37 0 278 -244 507 -506 473z"/>
<path d="M551 634 c-193 -25 -362 -197 -393 -401 -17 -112 -17 -112 42 -111
52 0 48 -2 50 35 30 526 681 521 715 -6 4 -59 94 -46 92 13 -9 283 -247 503
-506 470z"/>
</g>
</svg>
