<?xml version="1.0" standalone="no"?>
<!DOCTYPE svg PUBLIC "-//W3C//DTD SVG 20010904//EN"
 "http://www.w3.org/TR/2001/REC-SVG-20010904/DTD/svg10.dtd">
<svg version="1.0" xmlns="http://www.w3.org/2000/svg"
 width="146.000000pt" height="376.000000pt" viewBox="0 0 146.000000 376.000000"
 preserveAspectRatio="xMidYMid meet">
<metadata>
Created by potrace 1.16, written by Peter Selinger 2001-2019
</metadata>
<g transform="translate(0.000000,376.000000) scale(0.100000,-0.100000)"
fill="#000000" stroke="none">
<path d="M675 3620 c-193 -29 -374 -189 -444 -392 -25 -74 -47 -216 -35 -228
5 -5 33 -7 62 -3 50 6 52 7 52 37 0 50 27 144 65 224 47 100 127 182 224 230
67 33 82 37 155 37 114 0 189 -30 272 -108 103 -95 166 -222 181 -356 l6 -59
43 -7 c63 -9 68 -3 60 77 -25 275 -229 508 -476 548 -72 11 -92 11 -165 0z"/>
<path d="M633 3146 c-158 -39 -308 -166 -383 -328 -34 -72 -60 -186 -60 -259
l0 -50 53 3 52 3 8 50 c25 155 71 261 148 348 237 266 615 153 728 -217 12
-37 21 -89 21 -115 0 -65 8 -73 66 -69 l49 3 -3 60 c-4 87 -29 179 -70 265
-46 94 -158 211 -248 258 -111 58 -246 76 -361 48z"/>
<path d="M633 2636 c-233 -54 -424 -289 -441 -544 l-5 -83 54 3 53 3 12 75
c21 133 66 229 149 318 65 70 117 103 199 127 133 39 278 -4 386 -114 87 -89
160 -249 160 -352 0 -53 7 -59 72 -59 l41 0 -7 79 c-17 202 -122 379 -289 485
-98 62 -265 89 -384 62z"/>
<path d="M620 2206 c-174 -49 -342 -213 -399 -393 -22 -71 -42 -198 -33 -221
3 -9 21 -12 55 -10 l51 3 12 75 c16 105 47 184 100 263 53 78 92 112 178 159
58 31 66 33 166 33 96 0 110 -3 165 -29 81 -39 180 -141 222 -226 37 -77 52
-130 61 -214 l7 -61 54 -3 54 -3 -7 83 c-13 153 -75 285 -186 398 -70 70 -160
124 -244 146 -62 17 -195 17 -256 0z"/>
<path d="M634 1720 c-23 -5 -72 -23 -110 -41 -87 -42 -214 -166 -262 -256 -48
-91 -79 -229 -73 -321 1 -9 16 -12 53 -10 l52 3 12 75 c16 105 46 184 100 262
51 75 103 122 184 164 51 27 64 29 160 29 99 0 109 -2 173 -34 149 -75 276
-283 277 -452 0 -42 11 -49 71 -49 l39 0 0 48 c0 79 -27 183 -71 272 -74 151
-210 265 -365 305 -62 16 -172 18 -240 5z"/>
<path d="M677 1249 c-198 -26 -394 -200 -458 -410 -20 -65 -40 -207 -32 -222
5 -9 40 -9 81 -1 28 6 30 9 36 65 4 32 16 87 27 121 117 358 481 466 717 213
87 -93 152 -243 152 -353 0 -44 12 -52 79 -52 l34 0 -6 78 c-13 165 -81 307
-200 418 -124 116 -267 163 -430 143z"/>
<path d="M613 775 c-90 -24 -155 -64 -234 -144 -119 -119 -181 -255 -190 -416
l-4 -60 56 -3 57 -3 7 58 c27 232 154 410 332 468 77 25 201 18 273 -16 148
-69 256 -229 283 -417 l13 -87 49 -3 c27 -2 51 1 55 8 9 14 -7 130 -26 200
-56 196 -236 379 -414 419 -63 15 -195 12 -257 -4z"/>
</g>
</svg>
