<?xml version="1.0" standalone="no"?>
<!DOCTYPE svg PUBLIC "-//W3C//DTD SVG 20010904//EN"
 "http://www.w3.org/TR/2001/REC-SVG-20010904/DTD/svg10.dtd">
<svg version="1.0" xmlns="http://www.w3.org/2000/svg"
 width="84.000000pt" height="100.000000pt" viewBox="0 0 84.000000 100.000000"
 preserveAspectRatio="xMidYMid meet">
<metadata>
Created by potrace 1.16, written by Peter Selinger 2001-2019
</metadata>
<g transform="translate(0.000000,100.000000) scale(0.100000,-0.100000)"
fill="#000000" stroke="none">
<path d="M304 986 c-8 -22 7 -44 62 -85 53 -40 62 -57 42 -84 -13 -17 -18 -16
-86 20 -65 33 -74 36 -87 22 -25 -25 -8 -45 71 -83 l75 -36 -8 -37 c-11 -54
-8 -274 6 -362 7 -46 8 -78 2 -84 -5 -5 -33 -12 -61 -15 -61 -8 -85 -31 -59
-57 15 -15 22 -15 79 0 56 14 65 15 78 1 22 -22 9 -42 -53 -77 -62 -35 -68
-41 -59 -63 9 -24 42 -19 96 15 27 17 51 29 54 26 3 -3 13 -20 22 -39 19 -36
54 -45 60 -15 2 10 -12 55 -32 100 -59 139 -70 198 -70 412 -1 184 0 192 25
245 14 30 44 76 67 103 43 49 46 77 9 77 -12 0 -36 -14 -54 -32 l-32 -31 -55
46 c-56 48 -83 58 -92 33z"/>
<path d="M757 974 c-4 -4 -7 -58 -7 -119 0 -83 4 -116 14 -124 28 -23 37 12
34 130 -2 93 -6 114 -18 117 -9 1 -19 0 -23 -4z"/>
<path d="M65 958 c-3 -8 -4 -63 -3 -124 3 -109 3 -109 28 -109 l25 0 0 120 c0
117 -1 120 -23 123 -12 2 -24 -3 -27 -10z"/>
<path d="M750 281 c-11 -21 -12 -196 -1 -246 8 -37 36 -45 45 -13 11 43 7 253
-6 266 -17 17 -26 15 -38 -7z"/>
<path d="M65 278 c-3 -8 -4 -72 -3 -144 3 -126 4 -129 26 -132 l23 -3 -3 143
c-3 127 -5 143 -21 146 -9 2 -19 -3 -22 -10z"/>
</g>
</svg>
