<?xml version="1.0" standalone="no"?>
<!DOCTYPE svg PUBLIC "-//W3C//DTD SVG 20010904//EN"
 "http://www.w3.org/TR/2001/REC-SVG-20010904/DTD/svg10.dtd">
<svg version="1.0" xmlns="http://www.w3.org/2000/svg"
 width="494.000000pt" height="588.000000pt" viewBox="0 0 494.000000 588.000000"
 preserveAspectRatio="xMidYMid meet">
<metadata>
Created by potrace 1.16, written by Peter Selinger 2001-2019
</metadata>
<g transform="translate(0.000000,588.000000) scale(0.500000,-0.500000)"
fill="#000000" stroke="none">
<path d="M359 1167 c-14 -24 -6 -41 33 -70 6 -4 14 -11 19 -14 4 -4 14 -11 21
-17 70 -54 67 -48 47 -89 -17 -34 -12 -35 -134 28 -53 27 -81 22 -81 -16 0
-23 27 -42 101 -71 21 -9 74 -35 77 -39 3 -3 2 -6 -5 -37 -2 -7 -4 -25 -5 -40
-1 -15 -3 -39 -4 -53 -4 -46 -2 -172 4 -227 3 -31 9 -89 12 -123 2 -25 3 -30
11 -64 8 -33 11 -31 -54 -40 -40 -6 -50 -7 -65 -9 -28 -3 -41 -15 -41 -36 0
-31 21 -40 71 -30 10 2 27 5 37 7 17 3 22 4 47 9 33 6 34 6 42 -17 13 -38 8
-43 -97 -100 -38 -21 -48 -50 -24 -68 18 -14 31 -10 77 19 72 46 78 50 83 46
2 -2 12 -21 23 -43 23 -47 26 -51 46 -53 39 -2 45 28 16 85 -10 19 -18 36 -18
38 0 1 -8 18 -17 37 -10 19 -19 40 -21 47 -2 7 -8 26 -13 43 -5 18 -11 36 -13
40 -7 14 -18 61 -20 87 -4 49 -9 107 -12 134 -6 57 -8 168 -4 216 1 17 3 41 4
55 1 15 4 36 7 52 4 15 7 32 8 39 1 9 5 19 15 40 8 15 16 32 17 38 6 19 25 43
82 105 37 40 28 80 -16 73 -9 -1 -43 -32 -50 -45 -5 -9 -28 -30 -34 -30 -8 0
-125 93 -125 99 0 9 -42 3 -47 -6z"/>
<path d="M899 1156 c-7 -3 -17 -14 -19 -22 -4 -15 -3 -244 2 -251 12 -21 37
-23 51 -4 7 9 7 7 6 139 l-2 122 -8 8 c-9 9 -21 12 -30 8z"/>
<path d="M87 1146 c-17 -11 -16 -4 -17 -142 0 -123 0 -123 4 -130 15 -21 39
-21 54 0 7 11 6 251 -2 261 -10 14 -27 19 -39 11z"/>
<path d="M887 346 c-14 -12 -13 -2 -12 -165 1 -146 1 -147 5 -154 13 -21 39
-19 51 3 6 12 5 300 -2 309 -11 15 -29 18 -42 7z"/>
<path d="M83 340 c-18 -11 -17 -2 -16 -172 l2 -146 7 -7 c15 -16 27 -16 42 0
l8 9 0 48 c0 27 1 94 1 149 1 100 1 100 -3 107 -11 15 -28 20 -41 12z"/>
</g>
</svg>
