<?xml version="1.0" standalone="no"?>
<!DOCTYPE svg PUBLIC "-//W3C//DTD SVG 20010904//EN"
 "http://www.w3.org/TR/2001/REC-SVG-20010904/DTD/svg10.dtd">
<svg version="1.0" xmlns="http://www.w3.org/2000/svg"
 width="124.000000pt" height="148.000000pt" viewBox="0 0 124.000000 148.000000"
 preserveAspectRatio="xMidYMid meet">
<metadata>
Created by potrace 1.16, written by Peter Selinger 2001-2019
</metadata>
<g transform="translate(0.000000,148.000000) scale(0.100000,-0.100000)"
fill="#000000" stroke="none">
<path d="M454 1453 c-9 -36 0 -48 94 -121 l82 -63 -16 -37 c-8 -20 -19 -41
-23 -45 -8 -8 -165 63 -185 84 -16 15 -42 10 -60 -10 -32 -35 -12 -55 105
-109 l112 -52 -7 -43 c-24 -155 -13 -514 19 -629 17 -59 12 -64 -85 -73 -83
-8 -120 -25 -120 -55 0 -37 40 -45 132 -25 46 10 88 20 95 22 13 5 46 -64 37
-78 -3 -5 -38 -27 -78 -49 -88 -48 -115 -74 -100 -97 25 -40 39 -39 124 15 45
29 85 52 90 52 4 0 18 -25 30 -55 25 -62 49 -82 80 -65 29 16 25 39 -25 142
-96 198 -128 367 -128 688 0 172 11 246 44 311 11 20 19 42 19 49 0 15 109
150 120 150 19 0 21 42 4 61 -26 29 -39 24 -86 -31 -24 -27 -49 -50 -56 -50
-15 0 -162 119 -162 131 0 5 -11 9 -25 9 -18 0 -26 -7 -31 -27z"/>
<path d="M1127 1439 c-15 -9 -17 -29 -17 -176 0 -146 2 -167 18 -179 14 -10
20 -10 35 3 15 14 17 37 17 179 0 146 -2 164 -18 173 -11 6 -24 6 -35 0z"/>
<path d="M107 1422 c-14 -16 -17 -43 -17 -173 0 -160 4 -179 42 -179 31 0 38
35 38 189 0 123 -3 152 -16 165 -20 20 -27 20 -47 -2z"/>
<path d="M1112 418 c-8 -8 -12 -66 -12 -194 0 -165 2 -184 19 -205 18 -22 21
-23 37 -7 14 14 17 43 19 205 1 112 -2 193 -8 201 -12 15 -39 16 -55 0z"/>
<path d="M97 414 c-9 -9 -9 -376 -1 -398 10 -25 53 -20 59 7 3 12 4 105 3 207
l-3 185 -25 3 c-14 2 -29 0 -33 -4z"/>
</g>
</svg>
