<?xml version="1.0" standalone="no"?>
<!DOCTYPE svg PUBLIC "-//W3C//DTD SVG 20010904//EN"
 "http://www.w3.org/TR/2001/REC-SVG-20010904/DTD/svg10.dtd">
<svg version="1.0" xmlns="http://www.w3.org/2000/svg"
 width="76.000000pt" height="100.000000pt" viewBox="0 0 76.000000 100.000000"
 preserveAspectRatio="xMidYMid meet">
<metadata>
Created by potrace 1.16, written by Peter Selinger 2001-2019
</metadata>
<g transform="translate(0.000000,100.000000) scale(0.100000,-0.100000)"
fill="#000000" stroke="none">
<path d="M300 697 c-62 -17 -112 -50 -159 -103 -49 -56 -76 -112 -92 -193 -11
-59 -11 -65 6 -77 23 -17 27 -17 48 -1 10 7 19 33 23 62 8 58 44 138 82 179
15 16 50 39 77 52 97 46 188 23 270 -68 44 -49 67 -103 80 -190 6 -40 26 -53
56 -38 51 28 -9 208 -99 296 -73 72 -199 107 -292 81z"/>
</g>
</svg>
