<?xml version="1.0" standalone="no"?>
<!DOCTYPE svg PUBLIC "-//W3C//DTD SVG 20010904//EN"
 "http://www.w3.org/TR/2001/REC-SVG-20010904/DTD/svg10.dtd">
<svg version="1.0" xmlns="http://www.w3.org/2000/svg"
 width="1142.000000pt" height="1500.000000pt" viewBox="0 0 1142.000000 1500.000000"
 preserveAspectRatio="xMidYMid meet">
<metadata>
Created by potrace 1.16, written by Peter Selinger 2001-2019
</metadata>
<g transform="translate(0.000000,1500.000000) scale(0.500000,-0.500000)"
fill="#000000" stroke="none">
<path d="M1069 2112 c-483 -47 -850 -425 -909 -934 -11 -98 -12 -191 -2 -195
9 -4 187 -1 190 3 3 3 4 12 5 48 8 265 111 514 287 690 458 460 1176 150 1281
-554 9 -60 11 -80 12 -137 1 -35 2 -44 5 -47 3 -4 168 -7 176 -3 11 5 9 97 -4
214 -62 539 -543 963 -1041 915z"/>
</g>
</svg>
