<?xml version="1.0" standalone="no"?>
<!DOCTYPE svg PUBLIC "-//W3C//DTD SVG 20010904//EN"
 "http://www.w3.org/TR/2001/REC-SVG-20010904/DTD/svg10.dtd">
<svg version="1.0" xmlns="http://www.w3.org/2000/svg"
 width="82.000000pt" height="108.000000pt" viewBox="0 0 82.000000 108.000000"
 preserveAspectRatio="xMidYMid meet">
<metadata>
Created by potrace 1.16, written by Peter Selinger 2001-2019
</metadata>
<g transform="translate(0.000000,108.000000) scale(0.100000,-0.100000)"
fill="#000000" stroke="none">
<path d="M309 747 c-55 -15 -139 -76 -180 -130 -48 -64 -81 -160 -77 -223 3
-45 5 -49 30 -51 35 -2 44 11 51 76 9 73 51 154 108 205 52 46 103 66 171 66
121 0 243 -118 263 -255 12 -81 21 -97 53 -93 26 3 27 5 26 58 -1 77 -18 128
-65 199 -86 128 -239 188 -380 148z"/>
</g>
</svg>
