<?xml version="1.0" standalone="no"?>
<!DOCTYPE svg PUBLIC "-//W3C//DTD SVG 20010904//EN"
 "http://www.w3.org/TR/2001/REC-SVG-20010904/DTD/svg10.dtd">
<svg version="1.0" xmlns="http://www.w3.org/2000/svg"
 width="116.000000pt" height="148.000000pt" viewBox="0 0 116.000000 148.000000"
 preserveAspectRatio="xMidYMid meet">
<metadata>
Created by potrace 1.16, written by Peter Selinger 2001-2019
</metadata>
<g transform="translate(0.000000,148.000000) scale(0.100000,-0.100000)"
fill="#000000" stroke="none">
<path d="M142 1348 c-20 -20 -13 -32 40 -68 57 -39 123 -118 161 -195 44 -89
67 -144 67 -164 0 -11 5 -23 10 -26 6 -3 10 -21 10 -40 0 -19 5 -37 10 -40 12
-8 14 -232 2 -239 -5 -3 -9 -19 -10 -36 0 -17 -5 -37 -10 -43 -6 -7 -19 -28
-30 -48 -37 -66 -180 -244 -211 -262 -36 -21 -39 -37 -10 -63 27 -24 39 -16
117 82 35 43 72 89 83 101 19 21 37 52 100 169 14 28 30 70 34 95 12 73 10
211 -3 264 -7 28 -17 66 -21 85 -4 19 -17 53 -29 75 -11 22 -28 58 -38 80 -38
85 -125 196 -207 263 -31 25 -47 28 -65 10z"/>
<path d="M319 1344 c-14 -17 -5 -28 65 -77 14 -9 45 -43 69 -75 39 -50 56 -79
112 -192 7 -14 16 -41 20 -60 4 -19 11 -39 15 -45 19 -25 39 -281 24 -314 -4
-9 -9 -28 -10 -42 -7 -55 -196 -318 -253 -352 -17 -10 -31 -25 -31 -33 0 -19
44 -39 63 -28 21 12 182 216 207 262 11 20 25 44 30 52 20 31 49 106 55 145
12 65 10 186 -2 235 -7 25 -16 65 -22 90 -11 51 -78 191 -127 266 -36 55 -168
184 -189 184 -7 0 -19 -7 -26 -16z"/>
<path d="M486 1341 c-16 -17 -14 -19 26 -46 74 -48 136 -123 187 -230 82 -170
95 -220 94 -373 0 -127 -3 -145 -36 -207 -6 -11 -17 -32 -24 -46 -7 -15 -20
-32 -28 -39 -8 -7 -15 -17 -15 -22 0 -12 -107 -142 -149 -182 -36 -34 -38 -47
-13 -69 17 -16 22 -13 75 43 31 33 57 62 57 66 0 3 23 33 50 66 28 33 50 64
50 70 0 5 14 29 30 53 17 24 30 50 30 58 0 7 3 17 7 21 28 27 48 316 23 331
-5 3 -10 17 -10 30 0 13 -4 27 -10 30 -5 3 -10 18 -10 32 0 28 -73 183 -117
249 -36 54 -89 111 -141 152 -47 37 -53 38 -76 13z"/>
<path d="M657 1353 c-15 -15 -5 -40 23 -56 65 -39 150 -145 197 -247 30 -67
42 -97 49 -125 4 -16 10 -34 14 -40 4 -5 13 -48 20 -95 17 -117 1 -242 -42
-320 -41 -75 -162 -233 -209 -274 -44 -37 -48 -51 -19 -66 27 -15 54 -5 75 27
10 14 27 37 40 52 67 77 135 168 135 182 0 9 9 24 20 34 11 10 20 23 20 30 0
6 10 31 22 56 20 39 22 60 23 191 0 105 -4 151 -12 159 -7 7 -13 26 -13 42 0
31 -85 213 -133 284 -15 23 -60 72 -100 108 -66 60 -94 75 -110 58z"/>
</g>
</svg>
