<?xml version="1.0" standalone="no"?>
<!DOCTYPE svg PUBLIC "-//W3C//DTD SVG 20010904//EN"
 "http://www.w3.org/TR/2001/REC-SVG-20010904/DTD/svg10.dtd">
<svg version="1.0" xmlns="http://www.w3.org/2000/svg"
 width="78.000000pt" height="100.000000pt" viewBox="0 0 78.000000 100.000000"
 preserveAspectRatio="xMidYMid meet">
<metadata>
Created by potrace 1.16, written by Peter Selinger 2001-2019
</metadata>
<g transform="translate(0.000000,100.000000) scale(0.100000,-0.100000)"
fill="#000000" stroke="none">
<path d="M91 916 c-16 -19 -6 -37 40 -68 76 -54 155 -218 166 -349 10 -116
-26 -198 -143 -328 -46 -51 -56 -66 -47 -80 18 -28 35 -18 100 59 85 101 132
196 140 281 12 139 -58 326 -165 439 -60 63 -72 69 -91 46z"/>
<path d="M210 906 c0 -8 16 -27 35 -42 48 -36 118 -153 150 -249 23 -67 27
-93 23 -160 -5 -96 -38 -166 -130 -275 -60 -72 -69 -94 -43 -103 29 -12 174
183 207 278 22 62 23 152 3 230 -36 141 -164 335 -221 335 -14 0 -24 -6 -24
-14z"/>
<path d="M324 909 c-4 -7 11 -27 36 -48 100 -82 170 -246 170 -394 0 -59 -6
-94 -20 -124 -24 -53 -88 -146 -134 -196 -34 -36 -39 -67 -12 -67 26 0 131
131 176 219 82 164 33 397 -121 565 -49 54 -80 69 -95 45z"/>
<path d="M440 907 c0 -7 25 -38 55 -69 60 -63 86 -109 122 -213 34 -100 39
-169 18 -241 -20 -71 -40 -105 -123 -207 -62 -77 -68 -97 -32 -97 44 0 191
215 211 310 32 148 -46 379 -165 488 -44 41 -86 55 -86 29z"/>
</g>
</svg>
