<?xml version="1.0" standalone="no"?>
<!DOCTYPE svg PUBLIC "-//W3C//DTD SVG 20010904//EN"
 "http://www.w3.org/TR/2001/REC-SVG-20010904/DTD/svg10.dtd">
<svg version="1.0" xmlns="http://www.w3.org/2000/svg"
 width="1170.000000pt" height="1500.000000pt" viewBox="0 0 1170.000000 1500.000000"
 preserveAspectRatio="xMidYMid meet">
<metadata>
Created by potrace 1.16, written by Peter Selinger 2001-2019
</metadata>
<g transform="translate(0.000000,1500.000000) scale(0.500000,-0.500000)"
fill="#000000" stroke="none">
<path d="M320 2762 c-4 -3 -11 -12 -18 -26 -7 -12 -15 -24 -19 -27 -23 -21
-12 -48 24 -56 12 -3 17 -6 24 -11 12 -11 27 -21 39 -27 6 -3 15 -9 20 -13 5
-4 16 -11 24 -16 18 -10 30 -21 38 -36 7 -13 11 -17 27 -27 18 -10 56 -51 63
-67 5 -10 12 -19 37 -44 27 -28 32 -34 38 -46 5 -11 10 -18 21 -29 16 -16 21
-24 23 -39 1 -7 4 -15 8 -22 4 -6 8 -14 9 -19 1 -4 7 -12 12 -18 10 -10 40
-66 46 -84 1 -3 5 -11 9 -17 5 -8 7 -13 7 -19 0 -12 5 -22 14 -32 9 -9 14 -20
14 -31 0 -5 2 -10 6 -17 3 -5 8 -15 11 -21 3 -7 7 -15 9 -18 11 -16 20 -40 20
-55 0 -12 1 -17 5 -25 3 -6 6 -16 7 -22 1 -7 5 -18 9 -26 4 -8 8 -18 9 -27 1
-8 4 -17 6 -20 8 -12 12 -22 12 -31 0 -6 2 -12 5 -17 3 -5 6 -13 6 -18 1 -6 4
-16 8 -23 6 -13 6 -13 6 -44 0 -34 1 -37 10 -50 6 -8 6 -8 7 -53 1 -44 1 -44
9 -54 l7 -10 0 -84 -1 -85 -7 -9 c-7 -10 -7 -10 -8 -84 -1 -41 -2 -75 -3 -77
-1 -2 -5 -6 -8 -11 -6 -7 -6 -7 -6 -42 0 -38 -1 -43 -13 -51 -10 -7 -14 -18
-14 -37 0 -18 -3 -25 -18 -41 -5 -7 -13 -17 -16 -24 -3 -7 -9 -16 -13 -20 -4
-4 -9 -11 -11 -18 -2 -6 -6 -13 -9 -17 -7 -10 -23 -45 -26 -60 -3 -15 -1 -13
-37 -49 -16 -17 -27 -30 -30 -35 -5 -11 -18 -30 -30 -41 -5 -5 -13 -17 -19
-26 -7 -12 -16 -24 -31 -39 -16 -16 -23 -26 -29 -37 -5 -10 -14 -21 -25 -33
-14 -15 -18 -20 -20 -28 -2 -9 -6 -13 -29 -37 -15 -14 -28 -29 -29 -32 -1 -3
-3 -9 -4 -12 -5 -14 -102 -107 -116 -112 -58 -21 -64 -81 -14 -118 32 -23 76
-15 96 18 4 7 10 12 18 17 15 9 19 13 26 30 5 11 10 18 28 36 15 16 24 26 27
34 6 12 10 17 24 24 14 7 29 23 38 40 17 35 23 45 33 52 5 3 13 12 17 18 4 7
14 18 21 26 16 17 20 23 21 36 2 12 5 16 16 21 25 13 89 85 89 101 0 11 2 15
12 27 10 10 16 23 16 33 0 5 2 11 6 17 3 5 7 13 9 19 2 5 8 15 14 21 6 7 14
17 17 24 3 6 10 17 16 23 5 6 10 14 12 19 1 4 5 12 9 17 8 12 22 46 24 59 1 5
7 20 14 33 7 13 13 26 14 29 0 3 4 10 8 16 8 11 8 12 9 32 1 19 2 22 7 30 6 9
6 10 7 36 1 24 2 28 7 39 6 11 6 14 6 35 0 23 0 23 8 37 l7 13 0 157 0 157 -7
10 c-8 11 -8 11 -8 43 0 31 0 32 -6 48 -4 9 -8 20 -9 26 -1 5 -4 14 -7 19 -4
7 -5 13 -5 22 0 17 -3 29 -9 37 -18 26 -24 43 -24 76 0 31 0 32 -6 44 -5 10
-6 16 -7 31 -2 23 -13 47 -32 70 -13 15 -16 21 -20 33 -1 4 -6 14 -10 21 -4 7
-9 17 -11 22 -2 5 -7 14 -10 20 -5 8 -7 14 -8 24 -1 10 -3 16 -9 26 -4 7 -10
18 -12 23 -3 8 -26 54 -34 68 -1 2 -5 10 -8 17 -13 29 -20 39 -36 56 -14 13
-18 20 -22 29 -7 19 -18 38 -28 50 -5 6 -11 14 -12 18 -3 9 -6 14 -21 33 -6 7
-13 17 -15 22 -3 7 -22 28 -55 61 -90 93 -112 114 -125 120 -6 3 -15 9 -20 14
-5 5 -15 11 -22 15 -8 4 -18 12 -31 25 -13 12 -24 21 -31 25 -7 3 -14 9 -17
13 -10 13 -32 17 -45 9z"/>
<path d="M687 2764 c-8 -3 -12 -7 -23 -28 -6 -10 -14 -23 -19 -28 -20 -22 -11
-43 21 -52 15 -4 20 -7 39 -22 6 -4 15 -11 22 -14 6 -4 16 -10 22 -15 6 -5 18
-13 26 -17 18 -10 30 -23 39 -39 6 -10 10 -14 24 -23 23 -15 57 -52 66 -70 5
-11 12 -20 37 -45 25 -26 32 -35 37 -45 3 -9 10 -18 21 -30 19 -20 21 -23 23
-38 1 -8 4 -15 7 -20 2 -4 7 -12 9 -18 2 -6 8 -15 14 -21 9 -10 40 -69 45 -85
1 -3 5 -9 8 -15 5 -7 7 -13 8 -20 2 -17 3 -19 10 -27 13 -14 17 -22 17 -32 0
-7 2 -12 7 -21 4 -6 8 -14 9 -18 1 -3 5 -12 9 -18 17 -27 24 -46 22 -60 -1
-11 -1 -13 4 -22 3 -5 6 -16 8 -24 2 -8 5 -19 9 -26 3 -6 7 -16 8 -23 2 -13 4
-19 13 -34 3 -6 5 -12 5 -17 0 -6 2 -13 6 -21 3 -7 6 -15 6 -18 0 -4 3 -13 7
-22 7 -16 7 -16 7 -46 0 -30 0 -30 8 -43 7 -14 7 -14 8 -57 1 -41 1 -44 5 -49
12 -15 11 -11 11 -98 0 -88 0 -86 -9 -99 -6 -8 -6 -8 -7 -83 l-1 -74 -7 -10
c-8 -9 -8 -9 -8 -41 0 -38 -1 -42 -14 -54 -11 -11 -14 -19 -14 -39 1 -17 -1
-21 -18 -40 -7 -8 -13 -17 -15 -22 -1 -5 -7 -14 -13 -20 -5 -6 -10 -14 -12
-19 -1 -5 -5 -13 -8 -17 -9 -13 -24 -48 -26 -61 -2 -13 -2 -13 -32 -43 -21
-21 -31 -33 -35 -41 -7 -14 -13 -22 -27 -37 -6 -7 -16 -20 -22 -30 -7 -13 -17
-24 -32 -40 -16 -17 -23 -26 -29 -37 -5 -9 -13 -20 -24 -32 -12 -13 -17 -20
-20 -28 -3 -8 -8 -15 -30 -38 -23 -23 -27 -29 -30 -38 -6 -17 -101 -111 -119
-118 -59 -22 -62 -83 -7 -114 35 -19 68 -13 89 17 4 5 12 13 20 18 15 10 18
14 27 35 2 5 12 17 25 30 13 15 23 27 28 36 6 11 8 13 19 19 6 3 17 11 22 16
11 10 13 14 35 57 4 8 9 15 16 19 5 5 14 14 19 22 5 8 13 17 18 21 9 8 23 29
23 35 0 12 4 19 15 25 6 3 25 20 48 44 41 40 43 43 43 61 0 8 1 10 10 20 12
13 15 19 17 34 1 5 5 16 9 24 4 8 8 17 8 18 0 2 5 8 11 15 6 6 13 17 17 23 3
7 10 18 16 24 5 6 11 16 13 21 2 5 6 13 9 17 9 13 22 45 25 60 2 9 6 20 14 33
6 10 12 23 13 27 1 4 5 11 7 15 8 10 11 19 11 35 0 14 1 18 7 30 7 13 7 14 7
35 -1 20 -1 22 6 36 6 14 7 16 7 39 0 24 0 24 7 35 l7 11 0 159 0 160 -7 9
c-7 10 -7 10 -7 40 0 29 -2 42 -8 53 -2 3 -5 12 -7 21 -2 8 -6 18 -8 21 -3 6
-4 12 -5 27 -1 18 -2 21 -8 31 -22 36 -25 47 -24 79 0 30 0 30 -6 41 -5 9 -6
14 -7 30 -2 23 -14 51 -33 73 -8 9 -14 18 -19 30 -4 10 -9 22 -12 26 -3 4 -6
11 -8 15 -1 4 -6 13 -10 21 -6 11 -9 18 -10 29 -1 10 -3 16 -8 23 -4 5 -10 17
-13 27 -4 9 -9 19 -11 22 -2 3 -9 18 -17 33 -7 15 -14 30 -15 32 -2 2 -6 11
-11 19 -5 10 -14 21 -25 33 -10 11 -18 21 -19 24 -2 11 -19 42 -28 52 -5 5
-11 15 -14 21 -2 6 -7 14 -10 18 -14 16 -20 26 -25 35 -4 8 -17 23 -54 61 -27
27 -60 61 -74 75 -30 30 -42 41 -54 47 -5 2 -13 8 -18 13 -6 5 -15 11 -21 14
-8 4 -17 11 -33 26 -12 12 -25 22 -29 24 -5 2 -12 8 -18 13 -14 14 -23 16 -38
12z"/>
<path d="M1028 2764 c-9 -2 -13 -6 -25 -30 -6 -11 -15 -24 -19 -28 -7 -7 -8
-9 -8 -18 0 -20 5 -24 36 -33 8 -2 15 -6 20 -11 14 -11 28 -21 39 -27 6 -3 15
-8 20 -13 5 -4 15 -11 22 -15 18 -10 34 -25 41 -39 6 -13 8 -15 25 -25 18 -10
56 -51 65 -69 6 -11 13 -20 37 -44 25 -26 30 -32 37 -45 5 -11 11 -19 21 -30
19 -19 21 -22 23 -38 1 -8 3 -15 7 -20 3 -4 6 -12 8 -17 2 -5 8 -15 14 -22 10
-11 42 -70 46 -85 1 -3 4 -9 8 -15 4 -6 7 -13 8 -18 1 -5 2 -12 2 -16 1 -3 5
-10 10 -16 11 -13 15 -20 15 -29 0 -5 2 -12 5 -17 3 -5 7 -14 10 -20 3 -6 7
-14 9 -18 16 -27 23 -45 23 -61 0 -13 1 -18 5 -27 3 -6 6 -15 7 -21 1 -5 5
-16 8 -24 4 -7 8 -19 9 -26 2 -12 4 -18 13 -33 3 -5 5 -12 5 -17 0 -5 2 -12 5
-18 3 -6 6 -15 7 -21 1 -6 4 -15 7 -21 5 -9 6 -12 7 -45 1 -37 2 -38 10 -51 5
-8 5 -9 6 -51 1 -43 1 -43 9 -54 l8 -11 0 -78 c0 -84 0 -89 -10 -103 -6 -8 -6
-8 -7 -83 -1 -74 -1 -74 -8 -83 -7 -9 -7 -9 -8 -46 -1 -20 -2 -37 -2 -38 0 0
-5 -6 -11 -12 -12 -12 -12 -12 -13 -33 -1 -23 -3 -27 -20 -46 -6 -8 -13 -18
-15 -23 -2 -6 -7 -13 -11 -17 -11 -11 -43 -75 -47 -96 -4 -18 -2 -14 -35 -48
-15 -16 -30 -32 -31 -36 -6 -13 -19 -31 -30 -42 -6 -6 -15 -18 -20 -27 -7 -12
-16 -24 -31 -39 -16 -17 -23 -26 -29 -37 -5 -10 -13 -20 -25 -33 -13 -14 -18
-21 -21 -29 -3 -9 -8 -15 -30 -38 -23 -24 -27 -29 -31 -39 -6 -18 -101 -112
-118 -118 -44 -15 -59 -62 -30 -96 33 -37 85 -37 112 0 5 7 13 14 21 19 13 9
18 15 24 31 3 7 10 16 27 34 16 17 25 27 28 35 5 10 7 12 18 18 18 10 34 26
43 44 18 36 22 43 32 50 5 4 14 14 19 21 5 8 15 20 21 27 13 12 19 22 19 31 0
10 4 17 15 23 6 3 26 21 48 44 41 40 43 43 43 61 0 9 0 9 19 32 4 5 6 11 7 20
2 9 5 18 9 25 4 5 7 13 8 16 1 3 6 11 12 18 6 7 14 18 17 24 3 7 10 16 15 22
5 6 12 16 15 23 3 7 8 16 10 19 6 8 21 46 23 56 1 8 21 50 40 86 4 7 5 12 5
26 0 15 1 17 7 29 7 13 7 14 7 35 -1 20 -1 22 6 37 6 15 7 17 7 39 0 23 0 23
7 34 l7 11 0 159 0 160 -7 9 c-7 10 -7 10 -7 40 0 32 0 32 -9 55 -3 9 -6 18
-6 21 0 2 -3 10 -6 16 -5 10 -6 14 -7 31 -1 14 -2 20 -5 25 -22 35 -27 49 -27
81 0 30 0 31 -6 43 -4 9 -6 16 -7 31 -2 23 -14 50 -34 73 -8 10 -13 18 -17 28
-3 8 -8 19 -12 25 -3 6 -7 14 -9 18 -1 4 -6 14 -11 22 -6 11 -8 18 -9 28 -1
10 -3 16 -8 23 -3 5 -9 17 -13 26 -4 10 -8 19 -9 20 -2 2 -28 55 -33 65 -10
21 -21 39 -37 55 -11 12 -18 21 -20 26 -5 15 -18 40 -27 50 -5 6 -11 15 -14
21 -2 7 -10 18 -17 27 -7 8 -15 20 -19 27 -5 9 -22 28 -77 84 -39 40 -71 73
-72 74 -3 4 -25 20 -31 23 -4 2 -12 7 -18 12 -5 5 -15 12 -22 15 -8 4 -19 13
-32 26 -11 11 -24 22 -30 25 -6 3 -15 9 -19 14 -11 12 -20 15 -36 11z"/>
<path d="M1365 2763 c-8 -3 -11 -7 -23 -30 -6 -11 -14 -23 -18 -27 -19 -19 -9
-40 23 -50 16 -5 20 -7 33 -17 8 -7 20 -16 28 -20 8 -4 18 -10 22 -14 4 -4 15
-11 24 -17 20 -11 31 -22 40 -39 6 -10 10 -14 23 -22 23 -16 57 -52 66 -70 5
-12 11 -19 38 -46 26 -27 32 -35 37 -46 4 -9 10 -18 22 -30 17 -17 22 -26 22
-39 0 -5 2 -10 6 -17 3 -5 8 -14 10 -19 2 -6 8 -15 13 -20 8 -9 37 -62 45 -84
2 -4 6 -12 10 -18 4 -6 6 -13 7 -19 2 -17 3 -19 12 -29 12 -13 14 -17 15 -30
1 -7 4 -16 7 -21 3 -6 8 -15 10 -20 2 -6 7 -16 11 -22 16 -25 19 -35 19 -52 0
-12 2 -18 5 -25 2 -4 5 -14 7 -22 2 -8 6 -20 9 -26 3 -6 7 -18 9 -27 2 -10 5
-19 9 -25 4 -7 7 -13 8 -23 1 -9 4 -17 7 -23 3 -5 5 -12 5 -15 0 -4 3 -13 6
-20 7 -14 7 -15 8 -48 1 -34 1 -34 8 -46 7 -12 7 -12 8 -55 1 -43 1 -43 9 -54
4 -6 7 -11 7 -13 1 -39 0 -161 -1 -165 -1 -3 -4 -9 -8 -14 -6 -8 -6 -8 -7 -82
-1 -74 -1 -74 -8 -83 -8 -11 -10 -24 -9 -49 2 -28 1 -35 -12 -48 -13 -12 -15
-19 -15 -40 0 -17 -1 -20 -22 -44 -5 -5 -9 -13 -11 -18 -2 -5 -7 -13 -13 -19
-5 -6 -10 -14 -12 -18 -1 -5 -4 -12 -7 -16 -9 -14 -25 -50 -27 -63 -2 -13 -2
-13 -32 -43 -18 -18 -31 -34 -34 -39 -7 -14 -16 -26 -28 -39 -6 -7 -16 -20
-22 -30 -7 -12 -17 -25 -31 -39 -15 -15 -23 -25 -28 -36 -5 -10 -14 -21 -25
-33 -13 -14 -18 -21 -21 -29 -3 -9 -8 -15 -30 -38 -23 -23 -27 -29 -30 -38 -5
-17 -98 -109 -118 -118 -42 -19 -59 -56 -39 -86 20 -30 65 -49 89 -37 12 7 27
19 32 27 3 4 11 12 19 17 14 9 16 11 24 27 7 14 12 21 29 38 15 15 23 25 27
34 6 12 8 14 20 20 25 13 32 22 58 74 4 9 9 14 17 20 6 5 13 12 18 19 4 7 11
16 15 20 15 14 26 31 26 38 0 11 3 16 15 24 13 8 82 75 86 84 2 3 4 12 5 19 1
13 2 14 10 23 12 13 14 17 16 32 1 8 4 16 6 19 2 3 6 12 9 18 3 8 9 16 15 23
5 6 12 16 16 23 3 7 10 16 14 21 4 4 11 14 14 22 3 7 8 16 11 20 7 9 23 49 23
58 0 5 9 26 18 41 3 5 7 13 8 17 1 4 6 13 10 20 8 11 8 12 8 29 0 16 1 19 7
31 7 13 7 14 7 35 0 21 0 23 7 39 7 17 7 18 7 39 -1 21 -1 21 6 32 9 14 9 14
8 184 l-1 149 -6 9 c-7 9 -7 9 -7 39 0 28 0 32 -5 44 -3 8 -7 21 -10 30 -2 9
-6 19 -8 22 -3 4 -4 11 -5 26 -1 19 -2 21 -8 31 -4 6 -8 14 -10 18 -2 4 -5 10
-7 14 -7 12 -7 14 -7 45 0 29 0 29 -7 45 -6 13 -7 18 -7 31 0 20 -13 48 -33
71 -9 11 -14 18 -17 27 -2 7 -7 18 -12 25 -4 7 -8 16 -10 20 -1 4 -6 13 -10
21 -5 10 -8 18 -9 27 -1 10 -3 15 -8 23 -4 6 -10 18 -13 26 -3 9 -9 20 -12 25
-3 5 -7 13 -9 18 -2 5 -5 12 -8 17 -3 4 -7 12 -9 18 -2 5 -7 14 -10 19 -3 5
-7 13 -9 17 -2 4 -11 16 -21 26 -14 15 -18 20 -21 29 -5 15 -18 38 -27 49 -5
5 -10 14 -13 20 -3 6 -11 19 -18 28 -7 9 -15 21 -18 26 -3 8 -15 21 -41 46
-19 20 -52 53 -72 74 -43 44 -56 55 -69 61 -6 3 -14 8 -19 13 -5 5 -15 12 -22
15 -9 4 -19 13 -32 25 -11 11 -23 21 -29 24 -6 3 -15 9 -19 14 -12 12 -26 16
-39 10z"/>
</g>
</svg>
