<?xml version="1.0" standalone="no"?>
<!DOCTYPE svg PUBLIC "-//W3C//DTD SVG 20010904//EN"
 "http://www.w3.org/TR/2001/REC-SVG-20010904/DTD/svg10.dtd">
<svg version="1.0" xmlns="http://www.w3.org/2000/svg"
 width="308.000000pt" height="376.000000pt" viewBox="0 0 308.000000 376.000000"
 preserveAspectRatio="xMidYMid meet">
<metadata>
Created by potrace 1.16, written by Peter Selinger 2001-2019
</metadata>
<g transform="translate(0.000000,376.000000) scale(0.100000,-0.100000)"
fill="#000000" stroke="none">
<path d="M315 3535 c-32 -42 -29 -65 10 -79 59 -21 171 -106 245 -185 132
-140 240 -276 240 -301 0 -9 10 -32 23 -51 35 -51 97 -171 97 -187 0 -8 9 -25
20 -39 11 -14 20 -32 20 -40 0 -7 14 -40 30 -73 17 -33 30 -67 30 -77 0 -10 9
-43 20 -73 11 -30 20 -58 20 -63 0 -5 -28 -21 -62 -37 -67 -30 -97 -58 -171
-157 -83 -112 -87 -124 -87 -280 0 -141 5 -167 49 -263 41 -91 201 -230 282
-247 35 -7 47 -26 29 -48 -7 -8 -14 -30 -16 -47 -2 -18 -15 -44 -29 -58 -14
-14 -25 -29 -25 -33 0 -3 -11 -22 -24 -42 -14 -20 -33 -57 -42 -83 -10 -26
-36 -68 -58 -93 -23 -26 -57 -68 -76 -94 -19 -26 -51 -67 -70 -91 -19 -24 -48
-62 -65 -84 -16 -23 -49 -63 -72 -91 -24 -27 -43 -54 -43 -60 0 -15 -141 -159
-155 -159 -28 0 -65 -42 -65 -72 0 -37 57 -98 91 -98 27 0 150 124 201 202 10
15 27 29 38 33 11 3 32 27 47 53 15 26 48 72 75 103 26 31 48 62 48 68 0 6 31
41 70 77 41 39 70 75 70 86 0 11 9 31 20 45 11 14 20 33 20 43 0 10 21 48 46
86 53 80 94 157 94 179 0 8 14 39 30 68 17 30 30 68 30 85 0 17 5 34 10 37 6
4 9 18 8 33 -1 15 3 43 7 62 5 19 8 43 6 53 -1 10 5 29 13 42 24 36 24 436 0
456 -11 9 -14 24 -11 48 2 20 -4 60 -15 90 -10 30 -18 64 -18 76 0 13 -11 43
-25 68 -15 26 -25 60 -25 79 3 66 -17 138 -52 191 -35 51 -78 138 -78 156 0
18 -118 247 -135 261 -9 7 -29 36 -43 63 -62 115 -99 162 -220 277 -227 217
-303 257 -357 185z m809 -1311 c3 -9 6 -40 6 -69 0 -30 5 -57 10 -60 6 -3 10
-35 10 -70 0 -35 5 -67 10 -70 14 -9 13 -252 -1 -260 -6 -4 -10 -40 -9 -88 2
-119 2 -117 -20 -117 -11 0 -20 5 -20 10 0 6 -11 10 -24 10 -31 0 -98 56 -122
101 -98 189 -96 184 -92 266 4 88 38 176 87 228 16 17 36 44 45 62 30 60 105
96 120 57z"/>
<path d="M1081 3538 c-11 -18 -28 -44 -38 -57 -16 -22 -16 -24 2 -37 10 -8 25
-14 32 -14 20 0 191 -120 197 -138 3 -9 26 -33 50 -52 25 -19 56 -53 71 -76
14 -22 44 -58 65 -79 22 -22 40 -44 40 -50 0 -6 14 -24 30 -40 17 -16 30 -38
30 -50 0 -12 11 -37 24 -56 31 -43 96 -171 96 -188 0 -7 9 -24 20 -38 11 -14
20 -33 20 -42 0 -9 14 -40 30 -70 17 -30 30 -64 30 -75 0 -22 20 -82 33 -104
16 -24 -3 -48 -54 -67 -69 -27 -179 -147 -233 -252 -24 -49 -26 -62 -26 -184
0 -132 4 -155 44 -257 34 -90 232 -262 301 -262 23 0 30 -28 11 -49 -9 -10
-16 -27 -16 -39 0 -11 -25 -58 -55 -103 -30 -45 -58 -97 -61 -117 -4 -22 -26
-57 -58 -93 -28 -32 -64 -76 -81 -99 -16 -22 -48 -63 -70 -90 -22 -27 -53 -68
-70 -90 -16 -23 -46 -60 -66 -83 -20 -23 -38 -48 -40 -54 -6 -19 -151 -163
-164 -163 -6 0 -24 -13 -39 -29 -32 -33 -30 -53 11 -101 39 -47 80 -42 143 18
27 26 50 52 50 56 0 5 18 28 40 52 22 24 40 48 40 54 0 5 6 10 13 10 17 0 48
34 73 79 10 18 38 54 62 80 23 25 45 58 49 74 3 15 10 27 15 27 21 0 128 113
128 135 0 13 6 28 14 34 8 7 17 25 21 40 3 16 31 66 60 112 30 46 62 104 71
129 8 25 28 72 44 105 28 60 39 100 44 165 1 19 8 45 15 58 7 12 9 31 6 42 -3
10 1 33 9 49 23 43 23 421 1 455 -9 13 -13 37 -11 57 2 19 -4 56 -15 84 -10
28 -19 60 -19 71 0 12 -12 42 -26 68 -18 32 -24 56 -21 74 9 46 -22 155 -56
199 -23 28 -77 138 -77 155 0 21 -112 233 -141 265 -16 19 -29 39 -29 46 0 7
-23 46 -50 87 -64 98 -228 270 -310 326 -36 24 -87 62 -113 84 -27 22 -55 40
-62 40 -7 0 -22 -15 -34 -32z m787 -1330 c9 -12 14 -45 28 -208 3 -36 10 -69
15 -75 12 -13 12 -252 -1 -260 -6 -3 -10 -48 -10 -100 0 -52 -4 -96 -9 -100
-13 -7 -77 23 -122 57 -36 28 -49 48 -115 181 -28 55 -34 79 -34 130 0 93 38
191 100 262 14 17 32 43 40 58 8 16 30 37 50 47 42 23 45 23 58 8z"/>
<path d="M1842 3558 c-7 -7 -12 -17 -12 -23 0 -7 -9 -20 -20 -30 -29 -26 -23
-68 10 -75 38 -7 194 -116 210 -145 7 -13 21 -27 31 -30 19 -6 89 -85 89 -100
0 -4 21 -31 48 -60 77 -85 112 -132 112 -153 0 -11 11 -36 25 -56 36 -53 95
-167 95 -183 0 -8 9 -26 20 -40 11 -14 20 -32 20 -40 0 -7 14 -40 30 -73 17
-33 30 -70 30 -82 0 -13 9 -43 20 -67 11 -24 18 -52 15 -61 -3 -10 -27 -25
-53 -35 -57 -21 -97 -57 -170 -155 -86 -113 -92 -130 -92 -283 0 -72 5 -147
12 -166 38 -119 52 -142 136 -222 75 -72 127 -106 205 -132 21 -8 22 -30 2
-47 -8 -7 -15 -24 -15 -37 0 -14 -15 -46 -34 -72 -35 -49 -78 -129 -91 -171
-4 -14 -28 -48 -54 -76 -25 -29 -59 -71 -76 -94 -16 -22 -48 -63 -70 -90 -22
-27 -53 -68 -70 -90 -16 -23 -47 -61 -67 -84 -21 -24 -38 -47 -38 -52 0 -13
-153 -164 -166 -164 -20 0 -54 -46 -54 -72 0 -15 12 -40 26 -57 39 -47 78 -43
143 16 28 25 51 51 51 58 0 6 34 45 74 87 41 42 83 91 93 110 10 18 38 53 61
78 24 25 45 57 49 73 3 15 10 27 15 27 21 0 128 114 128 136 0 13 4 25 9 29 5
3 15 22 22 43 6 20 33 69 59 107 56 83 90 148 90 171 0 9 13 42 29 73 29 55
39 92 45 161 2 19 8 47 14 62 6 15 9 34 6 42 -3 8 2 28 10 45 24 45 23 420 0
456 -10 16 -14 36 -11 54 4 17 -2 49 -13 80 -11 28 -20 63 -20 77 0 14 -12 45
-26 70 -18 30 -25 53 -21 72 9 46 -22 155 -56 199 -22 27 -77 138 -77 154 0
21 -111 233 -139 265 -17 19 -31 39 -31 44 0 6 -24 47 -54 93 -74 111 -296
337 -332 337 -6 0 -42 30 -110 91 -25 22 -45 24 -62 7z m775 -1350 c8 -14 21
-101 29 -208 3 -36 10 -69 15 -75 13 -13 12 -252 -2 -260 -7 -5 -10 -40 -8
-96 3 -93 -8 -126 -33 -101 -7 7 -19 12 -29 12 -26 0 -105 66 -127 107 -82
153 -92 181 -92 250 0 101 33 182 107 266 18 20 33 42 33 48 0 14 24 37 57 54
34 18 40 18 50 3z"/>
</g>
</svg>
