<?xml version="1.0" standalone="no"?>
<!DOCTYPE svg PUBLIC "-//W3C//DTD SVG 20010904//EN"
 "http://www.w3.org/TR/2001/REC-SVG-20010904/DTD/svg10.dtd">
<svg version="1.0" xmlns="http://www.w3.org/2000/svg"
 width="82.000000pt" height="100.000000pt" viewBox="0 0 82.000000 100.000000"
 preserveAspectRatio="xMidYMid meet">
<metadata>
Created by potrace 1.16, written by Peter Selinger 2001-2019
</metadata>
<g transform="translate(0.000000,100.000000) scale(0.100000,-0.100000)"
fill="#000000" stroke="none">
<path d="M83 953 c-22 -8 -15 -22 50 -86 61 -60 137 -184 137 -222 0 -9 -11
-26 -25 -37 -73 -57 -73 -167 1 -223 19 -14 34 -32 34 -39 0 -21 -72 -124
-136 -195 -45 -50 -55 -66 -48 -79 18 -27 30 -24 68 16 110 115 161 210 178
331 11 71 10 94 -6 169 -24 120 -84 240 -157 314 -54 55 -68 63 -96 51z m215
-461 c2 -68 0 -82 -12 -82 -19 0 -46 50 -46 85 0 34 28 87 43 82 8 -2 13 -33
15 -85z"/>
<path d="M273 935 c-4 -11 14 -33 53 -69 41 -37 72 -78 102 -133 23 -44 42
-86 42 -93 0 -7 -16 -30 -35 -51 -20 -23 -36 -51 -37 -67 -4 -80 14 -129 56
-152 14 -7 26 -21 26 -31 0 -19 -67 -114 -143 -202 -50 -58 -56 -87 -18 -87
26 0 156 158 189 230 15 31 30 89 35 136 21 161 -48 360 -164 477 -58 57 -94
72 -106 42z m227 -444 c0 -44 -4 -82 -9 -85 -14 -9 -41 29 -47 66 -7 40 18 98
41 98 12 0 15 -16 15 -79z"/>
<path d="M473 934 c-4 -10 12 -31 50 -65 52 -46 105 -127 137 -207 12 -31 11
-35 -17 -65 -47 -49 -56 -72 -48 -129 7 -50 28 -82 69 -105 13 -7 16 -16 11
-32 -8 -25 -111 -167 -155 -213 -34 -35 -37 -50 -15 -68 14 -11 23 -5 66 41
121 130 179 253 179 380 0 139 -73 318 -171 420 -57 60 -94 74 -106 43z m222
-447 c0 -42 -4 -78 -9 -79 -16 -5 -49 50 -49 81 0 34 29 84 46 78 8 -2 12 -30
12 -80z"/>
</g>
</svg>
