<?xml version="1.0" standalone="no"?>
<!DOCTYPE svg PUBLIC "-//W3C//DTD SVG 20010904//EN"
 "http://www.w3.org/TR/2001/REC-SVG-20010904/DTD/svg10.dtd">
<svg version="1.0" xmlns="http://www.w3.org/2000/svg"
 width="1232.000000pt" height="1500.000000pt" viewBox="0 0 1232.000000 1500.000000"
 preserveAspectRatio="xMidYMid meet">
<metadata>
Created by potrace 1.16, written by Peter Selinger 2001-2019
</metadata>
<g transform="translate(0.000000,1500.000000) scale(0.500000,-0.500000)"
fill="#000000" stroke="none">
<path d="M272 2850 c-6 -3 -10 -7 -14 -13 -3 -5 -10 -15 -16 -22 -23 -26 -14
-48 24 -56 13 -3 18 -5 26 -12 19 -15 31 -23 42 -29 6 -3 16 -9 20 -13 5 -5
16 -12 25 -17 19 -10 33 -23 45 -42 6 -11 10 -15 23 -24 24 -17 63 -58 71 -75
5 -11 11 -18 39 -47 30 -30 35 -37 42 -51 6 -11 11 -19 23 -31 18 -18 22 -24
24 -41 1 -8 3 -15 8 -22 3 -5 7 -14 9 -19 2 -6 8 -15 15 -23 9 -10 16 -20 22
-35 6 -11 13 -24 16 -30 3 -5 8 -14 9 -19 2 -6 5 -14 8 -17 9 -12 10 -17 12
-30 1 -14 3 -18 14 -31 11 -13 15 -22 15 -33 0 -6 2 -11 6 -17 4 -5 9 -15 11
-21 3 -7 7 -15 9 -18 14 -19 24 -46 24 -62 0 -15 1 -18 7 -31 4 -8 7 -17 7
-21 0 -5 3 -13 8 -23 13 -25 10 -39 -11 -47 -7 -2 -17 -7 -23 -11 -6 -4 -17
-8 -23 -11 -23 -9 -29 -13 -56 -41 -26 -27 -38 -43 -50 -61 -6 -9 -13 -18 -35
-44 -13 -15 -16 -21 -27 -44 -3 -6 -7 -15 -10 -20 -11 -20 -12 -33 -12 -142
l0 -99 8 -16 c4 -8 8 -22 10 -30 3 -18 4 -20 12 -33 4 -6 9 -17 10 -23 6 -23
9 -27 56 -77 48 -50 55 -56 90 -80 24 -17 77 -44 95 -49 18 -5 21 -14 8 -28
-11 -12 -12 -16 -13 -35 -1 -21 -2 -25 -21 -46 -9 -10 -15 -19 -18 -26 -2 -7
-8 -15 -14 -21 -6 -6 -11 -14 -13 -20 -1 -5 -5 -12 -8 -16 -7 -9 -24 -46 -27
-57 -1 -5 -2 -12 -3 -16 -1 -7 -6 -13 -33 -40 -23 -23 -34 -36 -37 -42 -5 -12
-17 -28 -32 -44 -7 -7 -17 -21 -23 -31 -7 -13 -17 -25 -33 -41 -16 -17 -24
-27 -29 -37 -5 -9 -13 -20 -24 -32 -13 -14 -20 -22 -25 -33 -6 -13 -11 -19
-34 -43 -24 -25 -27 -29 -30 -39 -6 -19 -108 -121 -128 -127 -59 -19 -64 -81
-10 -122 32 -24 77 -14 98 23 4 5 10 11 17 15 17 11 20 15 27 31 6 12 11 19
32 40 13 14 25 28 27 32 5 12 12 20 23 25 16 8 34 25 41 41 4 7 10 18 14 25 5
6 8 12 8 14 0 6 8 16 16 21 7 5 13 11 20 21 5 8 15 20 22 26 16 16 24 30 24
40 0 10 2 13 17 24 8 5 30 25 52 47 41 41 43 44 43 63 0 9 2 13 12 25 11 11
16 23 16 34 0 8 2 12 7 20 4 5 9 15 11 21 3 6 9 16 15 23 6 7 13 17 16 23 3 5
10 16 16 23 6 7 12 17 14 22 2 5 7 15 12 23 5 7 9 15 9 17 0 2 3 9 7 17 3 8 7
19 8 25 2 13 8 30 17 44 3 5 8 15 11 22 3 7 8 17 12 22 7 9 8 10 7 33 0 13 0
15 8 30 8 16 8 16 7 38 -2 22 -2 22 6 40 7 17 7 18 7 40 -1 22 -1 22 8 37 l9
15 0 168 c0 158 0 168 -4 173 -14 20 -13 15 -13 52 0 33 0 34 -6 50 -3 10 -7
23 -9 30 -2 7 -5 16 -8 20 -3 6 -4 11 -5 28 -1 21 -1 22 -8 32 -4 6 -10 16
-13 23 -4 7 -8 16 -11 21 -4 8 -5 11 -5 44 0 34 0 35 -5 46 -5 10 -6 14 -6 29
0 25 -12 51 -38 80 -7 8 -12 17 -16 28 -4 9 -10 22 -14 29 -4 7 -9 18 -11 23
-2 6 -5 12 -7 15 -6 9 -10 18 -12 34 -1 11 -3 16 -9 24 -4 6 -10 17 -13 25 -3
7 -13 28 -22 46 -9 18 -18 37 -20 42 -3 6 -6 13 -9 16 -3 4 -7 12 -10 18 -3 8
-10 16 -23 29 -13 14 -19 21 -21 28 -6 16 -22 46 -31 56 -4 6 -10 15 -13 21
-3 5 -11 19 -19 29 -8 10 -17 24 -20 30 -10 19 -175 184 -192 192 -8 3 -18 10
-23 15 -5 5 -15 12 -21 14 -7 4 -17 11 -31 25 -36 35 -76 47 -109 32z m620
-1067 c11 -10 13 -16 13 -57 0 -37 0 -37 8 -50 8 -13 8 -13 8 -58 0 -46 0 -46
6 -53 11 -14 11 -11 11 -105 0 -97 1 -92 -10 -108 l-7 -10 1 -66 c0 -82 -2
-88 -27 -73 -5 3 -14 6 -20 7 -18 3 -27 6 -35 13 -4 3 -13 11 -20 16 -30 24
-33 27 -44 55 -4 9 -11 21 -18 29 -6 8 -13 20 -15 25 -2 6 -7 16 -10 23 -4 6
-9 16 -11 21 -2 5 -6 15 -10 23 -13 32 -16 94 -6 135 7 27 21 67 29 78 3 6 8
15 10 20 5 12 9 18 30 41 16 16 21 22 28 39 21 43 68 72 89 55z"/>
<path d="M882 2850 c-5 -3 -9 -8 -18 -24 -8 -14 -15 -25 -23 -32 -24 -24 -14
-46 25 -56 11 -3 19 -7 25 -11 20 -17 29 -23 40 -29 7 -3 18 -10 25 -16 7 -6
19 -13 27 -17 16 -9 32 -24 41 -40 7 -14 11 -18 26 -27 18 -10 58 -53 68 -72
6 -13 12 -20 40 -49 28 -29 35 -37 41 -49 5 -11 12 -20 24 -32 18 -19 23 -27
23 -40 0 -6 2 -13 8 -23 4 -8 9 -17 10 -21 1 -4 7 -13 13 -20 7 -7 15 -19 22
-34 6 -12 13 -26 16 -30 3 -5 7 -14 10 -21 2 -7 8 -17 12 -23 6 -9 7 -12 7
-20 0 -13 4 -22 16 -35 10 -11 14 -20 14 -33 0 -5 2 -11 6 -17 4 -6 9 -15 11
-21 3 -7 6 -14 9 -17 14 -20 24 -47 24 -62 0 -14 1 -18 6 -29 4 -7 7 -18 8
-24 1 -6 5 -16 8 -23 11 -23 7 -41 -12 -47 -4 -1 -15 -6 -24 -11 -9 -5 -24
-11 -32 -14 -11 -5 -18 -9 -25 -16 -34 -35 -50 -52 -62 -71 -15 -21 -25 -35
-45 -58 -6 -7 -13 -19 -16 -26 -4 -7 -8 -17 -10 -21 -3 -4 -7 -12 -9 -17 -14
-27 -16 -229 -4 -253 4 -7 9 -21 11 -31 3 -12 7 -24 12 -33 4 -8 9 -18 10 -24
5 -19 10 -27 31 -50 44 -48 72 -76 84 -85 7 -5 19 -14 27 -21 17 -12 77 -43
95 -48 21 -6 24 -14 11 -28 -11 -12 -14 -20 -14 -38 0 -19 -2 -24 -19 -43 -7
-8 -15 -19 -18 -26 -3 -6 -9 -15 -14 -20 -6 -6 -11 -14 -14 -21 -2 -7 -7 -16
-10 -19 -7 -10 -24 -50 -26 -60 -3 -18 -5 -21 -37 -53 -24 -24 -33 -35 -37
-42 -6 -14 -12 -22 -28 -39 -7 -7 -17 -22 -24 -32 -9 -15 -16 -25 -33 -42 -17
-17 -23 -25 -30 -37 -5 -11 -14 -22 -27 -36 -14 -16 -19 -23 -22 -31 -3 -9 -8
-15 -32 -40 -26 -27 -29 -30 -32 -41 -7 -21 -107 -120 -130 -129 -37 -13 -57
-52 -43 -80 25 -49 65 -66 104 -44 20 11 20 11 29 24 4 8 10 13 15 16 14 7 22
16 30 33 7 14 11 20 31 40 18 18 25 27 30 37 7 13 8 15 20 20 18 8 33 23 42
42 4 8 10 19 13 23 3 5 6 9 6 10 0 6 10 20 18 25 7 4 13 11 21 23 6 9 15 19
19 23 14 12 24 27 25 40 2 15 3 17 16 23 30 16 94 88 97 109 1 15 2 17 11 27
15 18 15 18 17 33 1 10 3 16 9 25 3 7 8 15 9 20 1 4 7 13 14 20 7 7 14 17 17
24 3 6 10 17 16 24 6 7 13 18 15 23 2 6 7 15 11 21 4 5 8 14 10 20 2 5 6 14 8
19 2 5 5 14 6 21 1 9 4 18 13 35 7 13 14 27 16 33 2 5 7 14 11 19 7 10 7 11 7
30 0 19 0 20 8 35 8 15 8 15 7 36 -2 22 -2 22 6 39 8 17 8 17 8 42 0 25 0 25
8 38 l8 13 1 167 0 167 -8 13 c-9 13 -9 13 -9 47 0 34 0 34 -7 52 -4 10 -8 22
-9 26 -1 4 -4 13 -7 20 -6 10 -6 14 -7 31 0 18 -1 20 -6 29 -4 6 -11 19 -17
30 l-11 20 0 36 c0 36 0 36 -6 48 -6 12 -7 14 -7 31 0 22 -15 55 -36 78 -8 10
-13 18 -18 30 -3 9 -9 21 -12 26 -3 5 -8 15 -11 22 -3 7 -8 18 -12 24 -6 9 -7
15 -9 26 -1 13 -3 17 -9 26 -4 6 -10 19 -14 28 -4 10 -9 21 -11 25 -3 5 -11
20 -18 34 -7 14 -15 31 -17 36 -3 6 -8 15 -12 22 -3 8 -12 19 -24 31 -15 16
-19 22 -23 31 -7 20 -18 40 -29 52 -5 7 -12 17 -15 24 -3 7 -12 20 -19 30 -8
10 -17 23 -19 28 -10 21 -175 184 -196 194 -6 2 -14 8 -18 12 -4 4 -13 11 -21
14 -10 5 -20 13 -35 28 -14 14 -26 23 -34 27 -6 3 -15 9 -18 14 -13 14 -29 18
-44 10z m603 -1084 c7 -2 13 -10 17 -19 2 -4 3 -20 3 -42 0 -36 0 -36 6 -47
10 -15 10 -19 9 -62 -1 -43 0 -45 13 -61 4 -5 4 -5 4 -98 l0 -92 -8 -12 -8
-12 1 -63 c1 -83 -1 -88 -28 -76 -7 3 -19 7 -26 8 -16 3 -24 7 -40 21 -7 6
-16 14 -21 17 -12 8 -22 21 -27 34 -5 16 -10 26 -23 42 -6 8 -13 20 -15 26 -2
6 -7 16 -11 23 -39 71 -43 128 -13 214 5 16 12 32 15 37 3 4 8 15 12 23 6 12
12 20 28 37 17 19 23 27 32 44 16 32 33 47 63 56 6 2 11 4 11 4 0 0 3 -1 6 -2z"/>
<path d="M1485 2852 c-7 -3 -31 -37 -31 -44 0 -1 -5 -7 -12 -14 -8 -9 -12 -14
-12 -18 -1 -23 5 -30 35 -37 19 -5 19 -6 39 -22 7 -6 19 -14 26 -18 8 -4 18
-10 23 -15 5 -4 16 -11 26 -16 18 -11 38 -30 46 -45 5 -12 8 -14 24 -24 19
-11 62 -57 70 -75 6 -11 12 -19 40 -47 27 -29 34 -36 40 -49 5 -11 12 -20 24
-32 18 -19 23 -27 23 -40 0 -7 2 -12 7 -20 3 -6 8 -16 10 -22 3 -7 8 -15 16
-24 8 -9 14 -19 21 -34 6 -11 13 -26 17 -32 4 -6 8 -15 9 -19 1 -5 5 -13 10
-19 6 -9 8 -12 9 -24 1 -17 2 -18 15 -33 10 -12 14 -21 14 -33 0 -5 2 -11 7
-18 4 -6 9 -15 11 -21 2 -6 6 -14 9 -17 12 -17 23 -46 23 -62 0 -13 1 -17 6
-28 4 -7 7 -18 8 -24 1 -6 5 -16 8 -22 13 -25 9 -40 -11 -48 -7 -2 -18 -8 -26
-12 -8 -4 -18 -9 -22 -10 -17 -5 -25 -11 -53 -40 -20 -21 -34 -36 -43 -51 -15
-22 -22 -31 -42 -54 -7 -9 -16 -22 -19 -29 -4 -7 -10 -21 -15 -30 -14 -27 -15
-41 -15 -154 l1 -93 7 -16 c5 -8 9 -22 11 -32 2 -11 5 -20 11 -29 4 -7 9 -19
11 -25 6 -25 16 -37 84 -106 27 -28 37 -36 71 -59 16 -10 72 -37 83 -40 20 -5
23 -15 8 -29 -10 -11 -13 -18 -13 -38 0 -17 -2 -22 -20 -42 -9 -10 -15 -19
-17 -25 -2 -6 -7 -13 -14 -21 -8 -8 -12 -14 -13 -20 -1 -5 -5 -13 -9 -18 -9
-12 -26 -50 -28 -62 -1 -5 -2 -12 -2 -14 -1 -2 -17 -19 -35 -38 -20 -21 -34
-37 -36 -41 -4 -10 -19 -32 -29 -41 -5 -4 -15 -18 -23 -31 -10 -16 -20 -28
-35 -44 -15 -15 -23 -25 -28 -35 -5 -9 -14 -21 -26 -33 -15 -16 -20 -22 -24
-33 -5 -13 -8 -17 -33 -42 -26 -27 -28 -30 -31 -40 -5 -18 -110 -123 -128
-128 -59 -17 -64 -80 -9 -122 30 -23 77 -12 97 22 3 6 9 12 17 16 17 11 20 15
28 32 6 14 11 20 31 39 17 18 24 27 29 37 7 13 8 14 21 21 20 10 34 23 42 42
4 8 10 19 13 23 3 4 7 12 9 18 2 6 6 11 11 15 12 9 18 15 25 26 4 6 13 16 19
22 16 16 24 28 25 40 2 15 3 17 16 24 8 4 25 20 52 47 43 42 45 45 45 64 0 9
2 13 13 26 12 14 13 18 15 33 1 10 3 15 7 21 3 3 7 12 10 19 3 9 8 16 16 24 6
7 13 17 16 23 2 5 9 15 14 21 5 6 13 18 16 26 4 8 10 18 12 22 3 3 7 11 9 17
2 5 5 14 8 19 2 4 6 15 7 23 3 14 8 26 23 54 2 4 6 13 9 19 3 6 7 14 10 18 5
6 5 8 5 27 0 19 0 20 7 33 8 13 8 13 8 40 0 27 0 27 7 41 7 13 7 14 6 37 0 23
0 23 8 35 5 8 9 16 10 23 4 20 2 328 -2 333 -2 3 -6 8 -9 12 -6 8 -6 8 -6 41
0 33 -2 42 -10 58 -1 3 -4 12 -6 20 -2 8 -5 18 -8 22 -3 5 -4 11 -5 28 -1 17
-2 23 -6 28 -2 4 -10 18 -17 32 l-14 25 1 34 c0 34 0 34 -6 47 -5 11 -6 15 -6
30 0 25 -16 58 -41 84 -5 5 -10 14 -14 26 -4 10 -9 21 -11 24 -2 3 -8 14 -13
24 -5 11 -11 22 -13 27 -3 4 -5 13 -6 21 -2 14 -3 19 -11 29 -3 4 -8 15 -12
24 -4 10 -13 31 -22 47 -8 16 -17 33 -19 38 -2 5 -7 15 -12 23 -4 8 -8 15 -8
17 0 1 -8 11 -19 22 -16 17 -27 32 -27 38 0 4 -21 40 -28 49 -4 5 -10 14 -13
20 -3 7 -12 20 -20 31 -8 10 -17 24 -20 30 -3 7 -8 14 -11 16 -3 3 -38 38 -78
79 -77 78 -90 90 -105 97 -5 2 -14 8 -19 13 -5 4 -15 11 -21 14 -8 4 -19 12
-34 27 -15 14 -27 24 -34 28 -7 3 -16 9 -20 14 -12 13 -27 18 -40 12z m606
-1089 c11 -7 14 -19 13 -56 0 -34 0 -34 8 -50 9 -16 9 -16 9 -61 0 -45 0 -45
8 -55 10 -13 9 -7 9 -107 l-1 -90 -8 -11 -8 -12 0 -67 c0 -83 -1 -85 -25 -73
-6 3 -19 7 -29 9 -19 4 -23 6 -37 19 -5 4 -15 13 -23 19 -16 13 -23 23 -29 38
-5 16 -8 21 -21 37 -6 8 -12 18 -14 24 -2 6 -6 15 -10 21 -40 66 -45 132 -18
214 7 18 14 38 18 43 3 6 10 17 14 25 5 12 12 21 28 38 17 18 22 25 30 41 20
41 64 68 86 54z"/>
</g>
</svg>
