<?xml version="1.0" standalone="no"?>
<!DOCTYPE svg PUBLIC "-//W3C//DTD SVG 20010904//EN"
 "http://www.w3.org/TR/2001/REC-SVG-20010904/DTD/svg10.dtd">
<svg version="1.0" xmlns="http://www.w3.org/2000/svg"
 width="246.000000pt" height="376.000000pt" viewBox="0 0 246.000000 376.000000"
 preserveAspectRatio="xMidYMid meet">
<metadata>
Created by potrace 1.16, written by Peter Selinger 2001-2019
</metadata>
<g transform="translate(0.000000,376.000000) scale(0.100000,-0.100000)"
fill="#000000" stroke="none">
<path d="M188 3540 c-42 -56 -41 -76 6 -88 36 -10 146 -83 185 -124 14 -14 31
-31 36 -37 6 -5 31 -29 57 -52 27 -23 48 -48 48 -56 0 -7 19 -33 43 -56 24
-23 53 -58 65 -78 12 -19 30 -44 42 -54 11 -10 20 -26 20 -35 0 -20 27 -77 40
-85 12 -7 80 -150 80 -168 0 -8 9 -24 20 -37 11 -13 20 -29 20 -37 0 -7 16
-45 36 -84 20 -39 34 -73 31 -75 -3 -3 3 -31 14 -61 28 -83 27 -86 -44 -117
-48 -21 -73 -40 -107 -82 -25 -31 -60 -74 -78 -96 -63 -78 -72 -112 -72 -264
0 -136 4 -159 43 -262 28 -72 159 -200 248 -242 35 -16 70 -30 77 -30 17 0 15
-25 -3 -40 -8 -7 -15 -25 -15 -40 0 -16 -11 -42 -25 -58 -14 -17 -25 -32 -25
-35 0 -3 -16 -29 -35 -58 -19 -29 -37 -66 -41 -83 -3 -17 -27 -54 -53 -82 -25
-28 -64 -77 -86 -109 -22 -32 -56 -78 -75 -101 -19 -24 -48 -62 -65 -84 -90
-123 -259 -310 -280 -310 -14 0 -50 -38 -57 -60 -8 -22 23 -69 59 -91 29 -18
35 -19 60 -5 15 8 38 26 50 40 13 14 27 26 32 26 5 0 14 13 21 29 6 16 44 62
84 102 40 41 81 89 90 108 10 19 38 55 63 80 24 25 47 58 50 74 3 15 9 27 14
27 19 0 129 115 129 135 0 12 8 33 18 46 11 13 22 36 25 50 4 14 27 57 53 94
53 79 84 138 84 158 0 8 16 45 35 82 20 38 33 75 31 82 -3 8 0 26 8 41 7 15
11 41 9 58 -3 18 0 35 6 38 6 4 11 26 11 49 0 23 7 51 15 61 22 29 22 438 0
456 -9 8 -15 30 -15 59 0 25 -7 66 -16 91 -9 25 -16 56 -16 70 0 14 -10 41
-21 60 -12 19 -25 62 -29 95 -10 95 -23 142 -51 183 -33 51 -87 158 -87 174 0
25 -103 223 -136 262 -19 22 -34 44 -34 50 0 5 -11 27 -25 48 -14 21 -37 57
-52 81 -27 42 -251 277 -265 277 -11 0 -72 43 -131 93 -30 26 -60 47 -68 47
-8 0 -31 -23 -51 -50z m829 -1411 c-4 -33 -1 -53 10 -69 11 -16 14 -34 9 -71
-5 -37 -3 -55 9 -71 20 -30 21 -244 1 -271 -10 -13 -12 -41 -8 -107 4 -78 3
-90 -12 -96 -10 -4 -22 -2 -29 5 -6 6 -18 11 -27 11 -28 0 -108 69 -130 113
-82 158 -84 162 -88 234 -6 101 30 202 98 278 15 17 35 44 45 61 10 18 34 41
54 53 l36 21 19 -23 c14 -17 17 -32 13 -68z"/>
<path d="M1291 3558 c-11 -18 -26 -41 -33 -50 -16 -23 -1 -49 33 -59 13 -3 54
-27 91 -52 91 -61 294 -271 346 -359 13 -20 29 -39 37 -42 8 -3 15 -16 15 -28
0 -13 11 -41 25 -63 36 -59 105 -197 105 -211 0 -6 7 -17 15 -24 8 -7 15 -21
15 -33 0 -11 14 -44 31 -74 31 -55 59 -149 62 -212 2 -32 -1 -35 -50 -54 -54
-20 -108 -71 -186 -175 -68 -92 -77 -121 -77 -272 0 -138 4 -159 49 -264 31
-71 160 -197 242 -236 35 -16 70 -30 77 -30 17 0 15 -37 -3 -44 -9 -3 -15 -18
-15 -40 0 -19 -4 -37 -9 -41 -27 -16 -121 -180 -121 -211 0 -9 -20 -36 -45
-60 -25 -23 -45 -46 -45 -49 0 -11 -104 -147 -129 -169 -11 -11 -21 -24 -21
-31 0 -6 -13 -24 -30 -40 -16 -16 -30 -34 -30 -40 0 -6 -14 -24 -31 -41 -17
-16 -39 -41 -48 -55 -29 -47 -124 -145 -176 -181 -72 -50 -72 -101 1 -149 24
-15 32 -16 59 -5 35 15 111 87 119 114 4 10 20 28 36 40 17 13 30 29 30 38 0
8 15 24 34 35 19 11 44 39 56 62 12 23 44 68 71 99 27 31 49 65 49 77 0 11 8
22 19 26 29 9 132 121 126 137 -3 8 3 23 15 33 11 10 20 26 20 35 0 22 25 70
81 155 26 39 54 93 63 120 10 28 28 70 42 94 13 24 24 58 24 77 0 18 5 36 11
40 6 3 9 18 6 33 -3 14 1 41 9 60 8 19 12 43 8 53 -3 10 1 30 10 43 22 34 24
428 2 471 -8 15 -12 39 -10 53 3 15 -4 51 -15 81 -12 30 -21 66 -21 80 0 14
-11 45 -25 69 -16 28 -25 57 -24 85 1 70 -16 134 -53 189 -19 28 -47 81 -62
117 -66 150 -137 292 -161 318 -14 15 -25 30 -25 34 0 7 -52 94 -85 143 -40
58 -232 248 -290 288 -33 22 -83 60 -111 84 -28 24 -58 43 -67 43 -8 0 -24
-15 -36 -32z m822 -1438 c4 -36 10 -94 13 -130 3 -36 10 -69 15 -75 13 -13 12
-262 -2 -270 -6 -4 -10 -42 -9 -93 1 -48 1 -93 1 -99 -1 -15 -37 -17 -46 -3
-3 6 -14 10 -24 10 -25 0 -101 62 -120 98 -91 170 -94 178 -99 243 -6 92 33
208 91 270 14 14 32 39 40 55 18 35 50 65 85 80 35 14 44 0 55 -86z"/>
</g>
</svg>
