<?xml version="1.0" standalone="no"?>
<!DOCTYPE svg PUBLIC "-//W3C//DTD SVG 20010904//EN"
 "http://www.w3.org/TR/2001/REC-SVG-20010904/DTD/svg10.dtd">
<svg version="1.0" xmlns="http://www.w3.org/2000/svg"
 width="65.000000pt" height="100.000000pt" viewBox="0 0 65.000000 100.000000"
 preserveAspectRatio="xMidYMid meet">
<metadata>
Created by potrace 1.16, written by Peter Selinger 2001-2019
</metadata>
<g transform="translate(0.000000,100.000000) scale(0.100000,-0.100000)"
fill="#000000" stroke="none">
<path d="M39 944 c-11 -14 -5 -22 44 -65 57 -51 112 -130 143 -208 l17 -44
-24 -21 c-45 -39 -59 -68 -59 -125 0 -52 2 -57 46 -98 34 -33 44 -49 39 -64
-9 -27 -114 -166 -159 -208 -20 -19 -36 -41 -36 -48 0 -15 30 -32 47 -26 19 7
147 172 172 220 29 59 51 147 51 211 0 109 -66 296 -138 391 -26 33 -108 101
-122 101 -4 0 -13 -7 -21 -16z m225 -390 c3 -9 6 -47 6 -85 0 -54 -3 -69 -15
-69 -41 0 -62 97 -32 144 20 30 32 33 41 10z"/>
<path d="M330 945 c-11 -13 -3 -25 52 -78 49 -47 75 -83 108 -150 l44 -87 -42
-41 c-31 -29 -42 -48 -43 -72 -3 -82 7 -107 59 -152 l34 -30 -50 -75 c-28 -41
-73 -101 -101 -133 -28 -32 -51 -60 -51 -62 0 -12 33 -33 44 -29 18 7 135 156
169 214 33 57 57 149 57 218 0 152 -93 357 -209 459 -41 36 -53 40 -71 18z
m224 -391 c3 -9 6 -47 6 -85 0 -80 -16 -91 -51 -36 -23 37 -20 88 7 118 21 23
30 24 38 3z"/>
</g>
</svg>
