<?xml version="1.0" standalone="no"?>
<!DOCTYPE svg PUBLIC "-//W3C//DTD SVG 20010904//EN"
 "http://www.w3.org/TR/2001/REC-SVG-20010904/DTD/svg10.dtd">
<svg version="1.0" xmlns="http://www.w3.org/2000/svg"
 width="986.000000pt" height="1500.000000pt" viewBox="0 0 986.000000 1500.000000"
 preserveAspectRatio="xMidYMid meet">
<metadata>
Created by potrace 1.16, written by Peter Selinger 2001-2019
</metadata>
<g transform="translate(0.000000,1500.000000) scale(0.500000,-0.500000)"
fill="#000000" stroke="none">
<path d="M1063 2872 c-10 -2 -15 -8 -27 -30 -7 -12 -15 -23 -22 -30 -24 -25
-14 -47 25 -58 15 -4 19 -6 35 -18 9 -8 24 -18 32 -22 8 -4 20 -12 26 -17 5
-5 17 -13 26 -17 19 -10 32 -24 44 -44 6 -11 9 -14 18 -19 19 -10 67 -59 76
-77 9 -17 16 -26 52 -61 21 -22 25 -27 31 -40 5 -12 11 -19 25 -34 19 -20 24
-28 24 -41 0 -6 2 -13 8 -23 4 -8 9 -17 10 -21 1 -5 8 -14 14 -21 10 -10 15
-20 24 -37 5 -13 13 -28 17 -34 4 -6 7 -14 8 -17 1 -4 5 -13 10 -20 7 -11 9
-16 9 -22 0 -14 4 -23 14 -34 12 -13 16 -22 16 -33 0 -7 2 -12 8 -22 4 -7 9
-17 11 -22 2 -4 5 -11 7 -14 16 -23 27 -49 27 -67 0 -16 1 -20 6 -30 4 -7 7
-16 8 -22 0 -5 4 -16 8 -24 12 -24 5 -49 -13 -49 -2 0 -13 -5 -25 -11 -12 -6
-28 -13 -36 -16 -11 -5 -16 -8 -26 -19 -7 -7 -19 -20 -28 -29 -8 -9 -22 -26
-30 -38 -9 -12 -22 -30 -30 -39 -27 -31 -29 -35 -35 -48 -3 -7 -8 -17 -11 -22
-18 -31 -19 -41 -20 -147 -1 -97 0 -111 9 -130 3 -7 8 -21 10 -32 3 -12 6 -22
11 -29 4 -6 10 -20 13 -30 7 -21 11 -28 29 -45 6 -7 26 -27 42 -45 29 -32 40
-41 72 -64 18 -13 86 -47 99 -50 22 -5 26 -17 11 -32 -12 -11 -13 -15 -13 -35
0 -20 -3 -27 -21 -47 -7 -8 -15 -19 -18 -26 -3 -6 -9 -15 -14 -20 -6 -6 -11
-14 -14 -21 -2 -7 -7 -16 -10 -19 -8 -12 -25 -50 -28 -66 -3 -15 -15 -29 -58
-71 -6 -6 -13 -14 -15 -20 -6 -13 -15 -26 -30 -42 -7 -8 -18 -23 -25 -33 -8
-15 -16 -25 -34 -42 -19 -19 -24 -26 -31 -40 -6 -12 -13 -21 -27 -36 -15 -15
-19 -21 -22 -30 -3 -9 -8 -15 -29 -37 -31 -32 -35 -37 -39 -50 -6 -18 -110
-120 -131 -128 -59 -22 -65 -79 -13 -120 35 -28 84 -18 104 19 5 8 8 12 19 18
16 9 21 16 28 33 4 10 9 16 30 38 18 19 27 29 30 36 6 13 11 19 24 24 16 8 35
27 44 46 20 40 25 48 37 57 6 5 14 13 18 20 4 6 15 18 23 27 17 18 24 29 24
40 0 11 3 15 18 25 37 24 96 90 96 107 0 12 4 20 14 32 12 13 14 17 16 33 1
10 3 15 8 23 4 6 9 15 10 20 2 7 6 13 14 22 6 7 14 18 18 24 3 7 11 18 17 25
7 8 12 17 14 23 2 5 7 14 10 19 11 15 27 57 27 70 0 2 7 17 15 33 8 16 15 30
15 32 0 1 4 8 9 16 9 14 9 14 9 34 0 19 0 21 7 34 7 13 7 13 7 37 -1 25 -1 25
7 41 8 16 8 16 8 42 0 26 0 26 8 37 11 17 11 19 11 192 0 167 0 167 -10 179
-10 11 -10 15 -9 45 2 29 0 41 -9 59 -3 4 -6 13 -7 21 -2 7 -5 18 -8 23 -5 8
-6 13 -6 24 0 24 -1 26 -8 37 -4 5 -8 14 -10 18 -2 5 -7 14 -11 21 -7 12 -7
12 -6 47 0 35 0 35 -7 50 -6 13 -7 16 -7 32 0 23 -15 55 -36 79 -9 9 -14 17
-18 28 -3 7 -10 24 -16 35 -6 12 -12 24 -14 28 -2 4 -6 11 -9 16 -4 7 -6 14
-7 25 -1 13 -3 17 -9 26 -4 6 -10 18 -14 28 -4 10 -9 21 -12 25 -3 5 -7 13 -9
19 -2 5 -7 14 -10 19 -3 5 -8 14 -10 20 -2 7 -7 15 -9 19 -3 5 -8 13 -10 19
-4 8 -11 17 -25 31 -15 15 -20 22 -22 29 -4 14 -23 48 -31 57 -4 4 -10 14 -14
22 -4 8 -12 21 -19 29 -7 8 -15 21 -19 28 -5 11 -13 20 -45 52 -21 22 -57 58
-81 82 -46 47 -58 57 -77 67 -7 4 -16 10 -20 14 -4 4 -13 11 -21 14 -10 6 -20
13 -35 28 -14 14 -25 22 -33 27 -8 3 -15 9 -19 14 -10 12 -21 17 -37 14z m615
-1113 c13 -12 15 -18 15 -60 0 -38 0 -38 8 -51 8 -12 8 -12 8 -59 l0 -46 9
-13 8 -13 0 -94 -1 -94 -8 -12 -8 -12 1 -64 c1 -85 -2 -93 -29 -78 -4 3 -14 6
-21 7 -18 3 -31 10 -45 23 -7 6 -17 13 -22 17 -13 9 -24 23 -28 35 -5 15 -10
25 -22 40 -6 8 -13 20 -16 26 -3 7 -11 24 -18 38 -38 78 -36 169 6 244 4 7 10
20 15 29 7 13 13 22 29 38 18 19 23 25 30 41 15 30 34 48 62 58 18 6 19 6 27
0z"/>
<path d="M176 2867 c-3 -3 -9 -11 -12 -17 -11 -22 -17 -29 -27 -41 -23 -23
-13 -44 24 -54 18 -5 22 -7 37 -20 7 -6 20 -15 29 -19 9 -5 20 -13 26 -17 5
-5 18 -13 28 -18 19 -11 34 -26 43 -43 6 -12 11 -18 23 -23 16 -9 63 -57 72
-74 10 -20 13 -23 46 -57 27 -27 31 -33 38 -47 6 -12 11 -18 24 -32 18 -18 25
-29 25 -43 0 -6 2 -11 6 -18 3 -6 8 -16 11 -22 3 -8 9 -17 15 -23 10 -11 17
-22 24 -39 3 -6 9 -18 13 -26 5 -9 10 -20 12 -25 1 -5 6 -13 10 -19 7 -9 8
-12 9 -26 1 -8 2 -15 2 -16 0 0 5 -6 11 -12 13 -14 17 -22 17 -35 0 -8 1 -12
7 -21 4 -5 9 -14 10 -19 2 -4 6 -13 10 -19 20 -32 25 -46 25 -64 0 -16 1 -19
7 -30 3 -7 7 -17 8 -23 0 -6 4 -17 8 -25 12 -25 7 -41 -14 -48 -4 -1 -15 -6
-24 -11 -9 -5 -20 -10 -24 -11 -17 -5 -31 -15 -43 -28 -6 -7 -18 -20 -26 -28
-8 -8 -21 -24 -29 -36 -15 -22 -27 -37 -44 -56 -42 -46 -52 -89 -51 -220 l1
-91 8 -18 c5 -10 10 -25 12 -34 2 -11 6 -20 11 -29 4 -7 9 -20 12 -28 7 -24
19 -39 89 -109 40 -40 112 -85 154 -96 21 -5 25 -18 8 -31 -9 -7 -12 -15 -12
-35 -1 -23 -2 -25 -19 -45 -8 -9 -17 -22 -20 -29 -3 -7 -9 -16 -15 -21 -6 -6
-10 -12 -12 -19 -2 -5 -7 -15 -11 -21 -5 -6 -8 -12 -8 -13 0 -1 -4 -9 -8 -18
-5 -10 -9 -23 -11 -32 -3 -15 -29 -47 -62 -75 -3 -2 -8 -11 -12 -18 -8 -16
-15 -26 -32 -44 -7 -7 -17 -21 -22 -30 -7 -12 -16 -24 -33 -41 -18 -19 -25
-28 -32 -40 -5 -11 -14 -22 -23 -32 -20 -20 -24 -26 -28 -38 -3 -8 -10 -16
-32 -39 -26 -27 -29 -31 -32 -41 -6 -19 -111 -124 -132 -132 -38 -14 -61 -53
-47 -79 36 -69 107 -77 140 -16 2 3 8 8 16 12 15 8 20 14 26 30 4 11 8 16 30
39 21 21 27 29 33 40 7 14 7 15 22 22 19 9 38 29 44 44 2 6 6 14 10 20 3 5 8
14 11 20 3 7 9 13 16 19 7 5 14 13 19 20 4 6 14 19 23 27 17 18 24 30 24 42 0
10 2 14 15 21 33 18 99 92 99 109 0 13 3 20 15 33 11 11 15 21 15 33 0 8 2 12
7 21 4 6 8 15 10 20 2 6 8 15 15 23 7 7 15 19 18 26 4 6 11 17 16 24 6 6 12
16 15 23 3 7 7 16 10 19 8 10 23 48 25 61 2 12 10 32 21 50 4 6 8 14 9 19 1 4
6 13 11 19 8 13 8 13 8 34 0 20 0 21 8 34 7 13 7 13 7 39 -1 26 -1 26 7 41 7
16 7 16 7 40 0 25 0 25 9 39 l8 14 0 173 0 173 -7 10 c-10 12 -11 18 -9 46 1
26 -1 37 -9 56 -3 7 -7 17 -8 24 -1 6 -4 16 -7 21 -5 8 -6 12 -7 31 -1 21 -1
23 -7 31 -4 5 -9 15 -13 22 -3 7 -8 17 -10 21 -5 7 -5 10 -5 44 0 36 0 36 -7
49 -6 12 -6 15 -7 32 0 27 -12 52 -39 83 -8 9 -12 16 -16 27 -3 8 -8 20 -12
27 -5 7 -10 17 -12 23 -2 6 -7 16 -11 22 -6 9 -7 14 -9 27 -1 12 -3 17 -10 29
-4 7 -10 18 -12 24 -2 6 -8 18 -13 27 -5 9 -10 19 -11 23 -2 4 -5 10 -8 14 -2
4 -7 14 -10 22 -3 8 -8 18 -12 23 -3 4 -7 12 -9 17 -2 6 -9 15 -22 28 -13 13
-20 21 -22 28 -10 23 -23 48 -32 59 -6 6 -12 15 -14 21 -4 10 -8 16 -23 34 -5
7 -13 18 -16 24 -4 10 -18 25 -87 95 -85 86 -96 96 -116 107 -7 3 -15 9 -19
13 -4 4 -13 10 -21 14 -10 5 -19 12 -35 28 -16 15 -26 23 -33 26 -6 3 -14 8
-18 14 -15 16 -36 21 -49 10z m626 -1108 c13 -11 16 -24 14 -74 0 -22 1 -26
11 -40 4 -5 4 -9 5 -55 1 -50 1 -50 7 -57 11 -14 11 -10 11 -108 0 -92 0 -92
-5 -100 -14 -24 -13 -17 -12 -85 2 -83 -1 -93 -28 -77 -4 2 -15 6 -23 8 -20 4
-27 7 -41 19 -6 5 -16 14 -23 19 -15 12 -25 23 -29 35 -7 19 -13 29 -24 43 -6
8 -12 18 -14 23 -2 5 -7 16 -12 25 -45 84 -44 186 2 263 3 6 9 17 13 25 5 9
12 19 27 36 18 18 23 25 31 42 22 43 70 74 90 58z"/>
</g>
</svg>
