<?xml version="1.0" standalone="no"?>
<!DOCTYPE svg PUBLIC "-//W3C//DTD SVG 20010904//EN"
 "http://www.w3.org/TR/2001/REC-SVG-20010904/DTD/svg10.dtd">
<svg version="1.0" xmlns="http://www.w3.org/2000/svg"
 width="38.000000pt" height="100.000000pt" viewBox="0 0 38.000000 100.000000"
 preserveAspectRatio="xMidYMid meet">
<metadata>
Created by potrace 1.16, written by Peter Selinger 2001-2019
</metadata>
<g transform="translate(0.000000,100.000000) scale(0.100000,-0.100000)"
fill="#000000" stroke="none">
<path d="M47 953 c-15 -14 -6 -40 19 -54 41 -22 108 -101 147 -177 43 -82 45
-94 14 -119 -42 -34 -57 -65 -57 -122 0 -52 2 -57 46 -98 34 -33 44 -49 39
-64 -9 -27 -114 -166 -159 -208 -39 -38 -44 -52 -22 -70 21 -18 40 -5 106 76
92 112 128 178 147 269 18 88 10 165 -27 271 -54 154 -211 338 -253 296z m235
-439 c8 -61 0 -114 -18 -114 -39 0 -59 104 -28 148 23 33 38 22 46 -34z"/>
</g>
</svg>
