<?xml version="1.0" standalone="no"?>
<!DOCTYPE svg PUBLIC "-//W3C//DTD SVG 20010904//EN"
 "http://www.w3.org/TR/2001/REC-SVG-20010904/DTD/svg10.dtd">
<svg version="1.0" xmlns="http://www.w3.org/2000/svg"
 width="38.000000pt" height="100.000000pt" viewBox="0 0 38.000000 100.000000"
 preserveAspectRatio="xMidYMid meet">
<metadata>
Created by potrace 1.16, written by Peter Selinger 2001-2019
</metadata>
<g transform="translate(0.000000,100.000000) scale(0.100000,-0.100000)"
fill="#000000" stroke="none">
<path d="M225 898 c-108 -111 -185 -287 -185 -423 0 -142 55 -254 199 -407 40
-43 56 -47 71 -18 9 17 6 25 -23 53 -45 44 -141 165 -161 204 l-16 32 36 28
c81 61 85 171 9 231 -34 27 -31 55 14 137 41 74 83 123 141 166 30 23 33 28
21 43 -23 27 -43 19 -106 -46z m-80 -358 c21 -40 19 -82 -6 -114 -35 -45 -49
-34 -49 37 0 107 23 139 55 77z"/>
</g>
</svg>
