<?xml version="1.0" standalone="no"?>
<!DOCTYPE svg PUBLIC "-//W3C//DTD SVG 20010904//EN"
 "http://www.w3.org/TR/2001/REC-SVG-20010904/DTD/svg10.dtd">
<svg version="1.0" xmlns="http://www.w3.org/2000/svg"
 width="548.000000pt" height="1500.000000pt" viewBox="0 0 548.000000 1500.000000"
 preserveAspectRatio="xMidYMid meet">
<metadata>
Created by potrace 1.16, written by Peter Selinger 2001-2019
</metadata>
<g transform="translate(0.000000,1500.000000) scale(0.500000,-0.500000)"
fill="#000000" stroke="none">
<path d="M887 2871 c-4 -2 -12 -7 -17 -13 -5 -5 -14 -12 -20 -15 -7 -4 -19
-13 -32 -26 -16 -15 -25 -22 -33 -26 -6 -3 -16 -9 -22 -15 -6 -5 -16 -13 -23
-16 -19 -9 -25 -15 -108 -99 -41 -42 -78 -78 -81 -81 -3 -2 -8 -11 -12 -19 -4
-8 -12 -21 -19 -29 -7 -8 -15 -21 -18 -28 -4 -7 -10 -17 -15 -23 -9 -10 -26
-41 -31 -57 -2 -7 -8 -14 -22 -29 -19 -19 -24 -27 -40 -61 -6 -13 -9 -19 -18
-35 -2 -4 -6 -12 -9 -18 -2 -5 -7 -14 -10 -19 -3 -5 -7 -15 -10 -23 -2 -7 -8
-18 -13 -25 -6 -9 -8 -15 -8 -20 0 -13 -3 -24 -10 -36 -4 -6 -9 -15 -11 -20
-2 -5 -7 -15 -11 -22 -4 -7 -10 -20 -13 -28 -4 -13 -8 -19 -18 -30 -23 -27
-35 -53 -37 -79 -1 -19 -2 -24 -8 -35 -6 -13 -6 -13 -6 -48 1 -35 1 -35 -6
-47 -4 -7 -9 -15 -10 -19 -2 -4 -6 -12 -10 -19 -8 -12 -10 -20 -10 -42 0 -8
-1 -13 -5 -21 -3 -5 -6 -14 -7 -20 -1 -6 -6 -18 -10 -27 -7 -16 -7 -16 -7 -50
0 -42 0 -39 -8 -49 -11 -13 -11 -11 -11 -178 0 -175 0 -177 11 -194 8 -11 8
-11 8 -37 0 -26 0 -26 8 -42 8 -16 8 -16 7 -41 0 -24 0 -24 7 -37 7 -13 7 -15
7 -34 0 -20 0 -20 9 -34 5 -8 9 -15 9 -16 0 -1 7 -16 15 -32 10 -18 15 -31 15
-36 0 -12 16 -52 27 -67 3 -5 8 -14 10 -19 2 -6 7 -15 14 -23 6 -7 14 -19 18
-26 3 -7 11 -18 17 -24 6 -7 12 -16 15 -23 2 -7 7 -16 11 -22 5 -7 6 -12 6
-19 0 -14 4 -22 16 -35 11 -11 14 -19 14 -31 0 -16 4 -21 55 -70 20 -19 38
-36 44 -39 11 -6 15 -11 15 -22 0 -11 7 -22 23 -39 9 -9 19 -21 24 -28 4 -7
13 -17 20 -22 9 -7 13 -12 19 -25 5 -9 12 -23 16 -31 9 -19 27 -37 43 -44 14
-6 17 -9 24 -24 4 -7 14 -20 31 -37 23 -24 26 -28 31 -40 6 -16 13 -24 29 -32
8 -5 12 -8 16 -16 32 -57 117 -42 139 24 10 28 -13 65 -45 76 -18 6 -123 105
-131 123 -1 4 -4 10 -5 14 -2 4 -14 18 -31 36 -23 23 -29 31 -32 39 -5 13 -10
20 -28 39 -10 10 -17 20 -23 31 -7 13 -13 21 -32 40 -17 18 -26 28 -32 40 -5
9 -15 23 -23 31 -17 18 -26 30 -32 45 -2 5 -8 14 -13 18 -47 44 -58 57 -61 73
-1 8 -6 23 -11 32 -4 10 -8 18 -8 20 0 1 -4 6 -8 12 -4 6 -9 15 -11 21 -2 7
-5 13 -12 19 -6 5 -12 15 -16 23 -4 8 -13 20 -21 29 -15 17 -19 28 -17 41 2
12 -2 26 -13 38 -15 17 -13 24 11 31 46 14 112 55 154 97 70 70 82 86 88 110
2 6 7 18 11 25 6 9 9 17 12 32 3 11 7 24 12 33 l7 14 1 94 c0 130 -10 174 -50
218 -18 20 -30 34 -46 58 -26 38 -68 80 -88 88 -8 3 -23 9 -33 14 -10 5 -22
11 -27 13 -19 7 -22 22 -11 45 4 8 8 21 9 27 1 6 4 17 8 23 5 11 6 14 6 29 0
17 6 33 25 64 4 6 8 15 10 19 1 5 6 14 10 19 5 9 7 13 7 20 0 12 5 23 18 37 5
6 10 11 10 12 0 0 1 7 2 15 1 14 2 17 9 26 4 5 9 15 11 21 2 6 6 16 10 21 3 5
10 19 16 32 8 17 15 27 22 35 7 7 13 16 15 22 2 6 7 15 10 21 5 8 7 15 8 23 2
17 5 22 24 40 13 13 18 20 24 32 7 14 11 20 41 50 29 30 35 36 41 49 9 19 54
68 71 77 15 8 19 12 26 25 9 16 30 36 47 45 8 3 18 10 23 15 5 4 14 10 20 13
13 7 29 17 43 29 9 8 14 10 28 14 26 7 33 11 37 27 3 10 0 19 -10 29 -7 6 -15
17 -23 32 -16 29 -28 37 -48 29z m-553 -1119 c17 -8 35 -27 47 -51 8 -16 13
-23 30 -41 15 -16 23 -26 27 -36 4 -7 11 -20 15 -28 45 -80 47 -177 3 -257 -4
-8 -10 -19 -12 -25 -2 -7 -9 -18 -15 -25 -13 -17 -20 -30 -23 -40 -3 -13 -13
-26 -25 -35 -6 -5 -18 -15 -26 -21 -17 -15 -22 -18 -42 -22 -8 -2 -20 -5 -25
-8 -25 -13 -27 -8 -27 74 0 77 1 68 -8 81 l-8 11 -1 92 c0 103 -1 97 9 110 8
10 8 10 9 58 1 48 1 48 9 62 7 14 7 14 7 49 -1 38 0 43 11 55 8 10 19 9 45 -3z"/>
</g>
</svg>
