<?xml version="1.0" standalone="no"?>
<!DOCTYPE svg PUBLIC "-//W3C//DTD SVG 20010904//EN"
 "http://www.w3.org/TR/2001/REC-SVG-20010904/DTD/svg10.dtd">
<svg version="1.0" xmlns="http://www.w3.org/2000/svg"
 width="138.000000pt" height="376.000000pt" viewBox="0 0 138.000000 376.000000"
 preserveAspectRatio="xMidYMid meet">
<metadata>
Created by potrace 1.16, written by Peter Selinger 2001-2019
</metadata>
<g transform="translate(0.000000,376.000000) scale(0.100000,-0.100000)"
fill="#000000" stroke="none">
<path d="M1100 3582 c0 -9 -56 -52 -149 -115 -73 -49 -241 -216 -287 -287 -76
-113 -84 -126 -84 -138 0 -7 -15 -29 -34 -49 -31 -36 -136 -234 -136 -259 0
-16 -59 -130 -95 -183 -16 -23 -30 -55 -32 -70 -2 -14 -6 -53 -9 -86 -3 -35
-16 -80 -30 -106 -13 -26 -24 -60 -24 -76 0 -16 -4 -33 -8 -38 -16 -19 -35
-94 -29 -117 4 -13 0 -36 -8 -52 -20 -38 -22 -445 -3 -464 7 -7 14 -29 15 -50
6 -81 15 -137 24 -146 5 -6 9 -24 9 -42 0 -18 11 -52 25 -75 14 -24 32 -66 41
-94 9 -27 43 -90 76 -139 32 -50 63 -107 68 -127 6 -20 17 -42 25 -49 8 -7 15
-23 15 -35 0 -15 21 -42 61 -79 33 -31 64 -56 68 -56 5 0 11 -12 14 -27 3 -16
25 -48 49 -73 24 -25 53 -61 63 -80 26 -47 56 -80 71 -80 7 0 19 -10 25 -23 7
-12 29 -42 51 -67 21 -25 53 -62 71 -82 18 -20 47 -44 65 -53 30 -15 34 -15
61 1 32 19 61 62 61 91 0 22 -39 63 -59 63 -20 0 -151 131 -172 172 -10 20
-29 44 -42 55 -13 10 -30 30 -37 43 -13 25 -31 49 -105 139 -22 26 -56 70 -75
96 -19 26 -56 71 -82 100 -27 28 -48 58 -48 66 0 30 -81 171 -114 198 -9 7
-16 28 -16 46 0 18 -7 38 -15 45 -25 21 -17 36 27 49 99 30 249 161 293 256
53 118 58 139 53 278 -5 145 -15 176 -94 277 -89 114 -111 135 -173 159 -53
21 -61 27 -61 51 0 14 4 30 8 35 13 15 34 86 28 92 -3 3 10 36 29 74 19 38 35
75 35 82 0 8 9 22 20 32 11 10 20 27 20 37 0 21 57 138 95 193 14 21 25 46 25
55 0 20 41 76 118 159 28 32 52 62 52 67 0 5 40 48 88 95 85 84 215 179 244
179 8 0 23 9 32 19 17 18 17 20 -3 40 -11 11 -27 34 -36 50 -11 22 -23 31 -40
31 -14 0 -25 -4 -25 -8z m-680 -1388 c15 -9 35 -31 45 -48 10 -17 30 -44 45
-61 53 -57 92 -151 104 -248 6 -51 -17 -127 -61 -202 -13 -22 -30 -54 -38 -71
-17 -37 -74 -85 -129 -108 -63 -26 -68 -19 -65 81 2 55 -1 96 -9 110 -18 33
-16 236 3 273 10 20 13 43 9 68 -4 27 -1 49 10 70 11 22 14 44 10 70 -7 44 8
82 32 82 9 0 28 -7 44 -16z"/>
</g>
</svg>
