<?xml version="1.0" standalone="no"?>
<!DOCTYPE svg PUBLIC "-//W3C//DTD SVG 20010904//EN"
 "http://www.w3.org/TR/2001/REC-SVG-20010904/DTD/svg10.dtd">
<svg version="1.0" xmlns="http://www.w3.org/2000/svg"
 width="38.000000pt" height="100.000000pt" viewBox="0 0 38.000000 100.000000"
 preserveAspectRatio="xMidYMid meet">
<metadata>
Created by potrace 1.16, written by Peter Selinger 2001-2019
</metadata>
<g transform="translate(0.000000,100.000000) scale(0.100000,-0.100000)"
fill="#000000" stroke="none">
<path d="M47 953 c-10 -10 -8 -43 2 -43 17 0 131 -111 131 -127 0 -9 -14 -31
-31 -50 -34 -39 -35 -66 -2 -71 15 -2 27 6 39 28 23 38 35 34 54 -19 l15 -43
-32 -26 c-42 -37 -53 -61 -53 -123 0 -49 3 -55 45 -96 25 -23 45 -48 45 -54 0
-18 -88 -138 -147 -200 -29 -31 -53 -60 -53 -66 0 -17 26 -34 43 -27 21 8 132
145 173 214 78 130 78 304 0 458 -14 28 -26 56 -26 62 0 5 16 28 36 50 30 33
34 43 24 55 -19 22 -32 19 -61 -17 l-27 -32 -65 67 c-61 61 -92 78 -110 60z
m235 -439 c8 -61 0 -114 -18 -114 -39 0 -59 104 -28 148 23 33 38 22 46 -34z"/>
</g>
</svg>
