<?xml version="1.0" standalone="no"?>
<!DOCTYPE svg PUBLIC "-//W3C//DTD SVG 20010904//EN"
 "http://www.w3.org/TR/2001/REC-SVG-20010904/DTD/svg10.dtd">
<svg version="1.0" xmlns="http://www.w3.org/2000/svg"
 width="138.000000pt" height="376.000000pt" viewBox="0 0 138.000000 376.000000"
 preserveAspectRatio="xMidYMid meet">
<metadata>
Created by potrace 1.16, written by Peter Selinger 2001-2019
</metadata>
<g transform="translate(0.000000,376.000000) scale(0.100000,-0.100000)"
fill="#000000" stroke="none">
<path d="M204 3558 c-9 -17 -25 -40 -35 -51 -18 -19 -18 -22 -2 -39 9 -10 26
-18 39 -18 13 0 26 -5 29 -10 3 -6 42 -33 86 -61 43 -28 79 -55 79 -60 0 -5
30 -40 68 -78 37 -38 90 -97 117 -131 28 -33 65 -76 83 -94 56 -57 49 -78 -86
-250 -64 -82 -123 -156 -130 -166 -12 -16 -6 -23 48 -65 33 -26 66 -45 73 -42
10 4 163 211 192 262 16 27 53 3 61 -40 3 -19 12 -39 20 -46 8 -6 14 -20 14
-31 0 -10 16 -50 35 -87 20 -38 35 -73 34 -77 -4 -16 13 -84 22 -90 17 -10 10
-64 -8 -71 -71 -23 -112 -50 -153 -100 -25 -30 -59 -71 -76 -91 -65 -78 -77
-115 -82 -260 -4 -106 -1 -140 11 -170 8 -20 26 -63 38 -95 30 -77 160 -204
252 -248 34 -16 68 -29 75 -29 17 0 15 -37 -3 -44 -9 -3 -15 -18 -15 -39 0
-23 -8 -41 -25 -57 -14 -13 -25 -27 -25 -31 0 -5 -13 -27 -29 -51 -15 -24 -34
-61 -42 -83 -7 -22 -34 -63 -59 -91 -25 -28 -65 -80 -90 -115 -24 -35 -52 -70
-61 -76 -10 -7 -31 -35 -48 -63 -17 -27 -35 -50 -39 -50 -5 0 -14 -12 -21 -27
-26 -57 -203 -248 -253 -274 -63 -32 -73 -70 -31 -119 62 -74 96 -59 238 108
25 29 45 57 45 62 0 5 13 16 30 25 17 9 40 35 54 63 13 26 33 54 43 64 37 33
63 67 76 95 6 16 37 51 67 78 65 57 79 75 80 96 0 9 9 28 20 42 11 14 20 32
20 41 0 20 13 44 61 111 40 56 89 152 89 173 0 7 12 34 27 59 25 43 38 90 48
173 8 74 22 136 33 157 8 15 12 87 12 228 0 172 -3 210 -16 230 -10 15 -14 34
-10 48 3 13 -3 49 -14 80 -11 31 -20 68 -20 83 0 15 -10 43 -22 63 -13 20 -26
62 -30 96 -14 117 -20 140 -47 175 -14 19 -41 69 -60 110 -18 41 -50 110 -71
152 -37 75 -38 78 -22 106 19 32 156 211 215 280 30 35 35 47 26 58 -17 21
-105 84 -117 84 -6 0 -49 -53 -95 -117 -109 -151 -127 -173 -137 -173 -5 0
-18 17 -31 38 -55 93 -79 124 -178 225 -93 96 -139 135 -200 172 -10 6 -42 31
-73 58 -30 26 -62 47 -71 47 -9 0 -24 -14 -33 -32z m817 -1369 c6 -12 9 -38 6
-58 -2 -20 3 -53 11 -74 8 -22 12 -54 9 -77 -3 -25 0 -46 10 -59 11 -17 13
-46 9 -144 -10 -232 -17 -322 -26 -331 -25 -25 -154 57 -189 121 -68 127 -95
190 -99 232 -7 79 46 229 98 276 12 11 31 37 41 58 20 39 70 77 101 77 10 0
22 -10 29 -21z"/>
</g>
</svg>
