<?xml version="1.0" standalone="no"?>
<!DOCTYPE svg PUBLIC "-//W3C//DTD SVG 20010904//EN"
 "http://www.w3.org/TR/2001/REC-SVG-20010904/DTD/svg10.dtd">
<svg version="1.0" xmlns="http://www.w3.org/2000/svg"
 width="548.000000pt" height="1500.000000pt" viewBox="0 0 548.000000 1500.000000"
 preserveAspectRatio="xMidYMid meet">
<metadata>
Created by potrace 1.16, written by Peter Selinger 2001-2019
</metadata>
<g transform="translate(0.000000,1500.000000) scale(0.500000,-0.500000)"
fill="#000000" stroke="none">
<path d="M185 2870 c-8 -3 -12 -7 -23 -27 -5 -10 -14 -23 -20 -30 -18 -19 -20
-28 -9 -42 5 -7 8 -8 33 -16 14 -4 19 -7 29 -15 14 -13 25 -20 39 -27 6 -3 15
-9 21 -14 6 -5 17 -12 25 -16 17 -8 36 -27 44 -43 6 -12 15 -20 26 -25 13 -6
63 -58 72 -75 6 -13 11 -19 42 -50 29 -30 36 -38 41 -49 5 -11 11 -18 26 -33
33 -32 36 -65 9 -97 -5 -7 -13 -17 -18 -23 -4 -6 -14 -18 -21 -27 -7 -9 -17
-21 -21 -27 -18 -24 -26 -34 -41 -53 -22 -27 -36 -44 -43 -55 -4 -5 -11 -14
-17 -21 -32 -37 -32 -46 2 -68 16 -11 46 -34 54 -40 14 -13 30 -8 46 15 5 7
15 21 22 31 7 10 15 22 18 27 4 4 11 14 16 22 6 8 15 20 20 28 6 8 14 20 20
27 5 6 11 15 13 19 2 4 7 12 11 17 4 6 9 13 12 18 14 20 45 -6 45 -39 0 -10 2
-14 13 -26 10 -12 15 -23 15 -33 0 -7 2 -13 5 -19 3 -5 6 -12 8 -15 1 -3 4
-10 7 -16 33 -64 30 -56 31 -76 0 -15 1 -20 6 -28 3 -6 6 -17 7 -24 1 -7 4
-17 7 -21 14 -26 9 -46 -14 -53 -5 -2 -15 -7 -21 -10 -7 -4 -17 -9 -22 -11
-23 -8 -30 -13 -60 -43 -18 -19 -33 -38 -42 -50 -7 -11 -20 -29 -29 -39 -21
-24 -32 -39 -36 -51 -2 -6 -7 -16 -11 -23 -17 -29 -18 -45 -18 -161 l1 -94 7
-15 c5 -9 9 -22 11 -32 3 -11 6 -20 11 -29 4 -6 10 -20 13 -29 5 -19 18 -38
29 -47 4 -2 10 -9 15 -15 55 -67 135 -125 196 -143 15 -4 18 -6 21 -12 3 -8 3
-8 -7 -19 -12 -13 -15 -21 -15 -40 0 -19 -3 -26 -21 -46 -8 -8 -14 -18 -17
-24 -2 -6 -8 -15 -15 -22 -7 -7 -11 -14 -13 -19 -1 -5 -5 -13 -9 -19 -4 -6 -9
-15 -11 -20 -3 -5 -7 -14 -9 -20 -3 -6 -6 -15 -7 -21 -1 -5 -3 -12 -3 -15 -1
-3 -15 -19 -35 -39 -24 -24 -35 -37 -38 -43 -6 -14 -15 -27 -31 -44 -8 -9 -18
-22 -23 -32 -8 -13 -15 -22 -32 -39 -18 -18 -24 -25 -31 -38 -5 -11 -14 -22
-27 -37 -16 -16 -21 -24 -24 -33 -4 -10 -9 -16 -34 -42 -27 -28 -30 -31 -33
-42 -6 -20 -110 -123 -133 -131 -60 -22 -62 -82 -5 -123 22 -16 37 -16 67 -1
18 10 20 12 30 28 4 7 9 11 18 16 15 8 21 14 26 31 4 11 8 15 31 39 19 20 28
30 31 37 6 13 10 18 23 24 16 7 35 26 42 42 3 6 8 16 11 20 4 5 7 13 9 17 4
11 5 13 18 22 6 4 14 13 18 19 4 7 15 19 23 28 18 19 24 29 24 42 0 10 2 13
20 25 37 23 96 90 96 108 0 13 2 18 12 28 12 13 14 17 16 32 1 11 3 16 8 25 4
5 9 15 11 20 2 7 7 14 14 22 6 6 13 17 17 24 3 7 11 18 17 25 7 8 12 17 15 24
2 6 7 15 10 19 10 14 26 55 26 66 0 7 8 26 19 43 4 6 9 16 11 22 2 6 7 15 11
21 7 10 7 10 7 30 0 20 0 21 7 34 7 13 8 15 7 29 -1 30 -1 36 7 52 8 15 8 15
8 40 0 25 0 25 9 40 l9 15 1 170 c0 189 2 168 -13 189 -3 4 -4 11 -5 42 -1 37
-1 37 -8 51 -3 8 -8 20 -9 28 -2 7 -5 17 -7 22 -4 6 -5 12 -6 29 -1 19 -2 22
-7 31 -4 6 -10 17 -15 26 -5 9 -10 19 -12 22 -2 5 -3 12 -2 40 0 34 0 34 -7
49 -6 13 -7 16 -7 32 0 23 -13 52 -35 77 -10 12 -15 19 -21 34 -4 10 -10 22
-12 26 -3 4 -8 14 -11 21 -3 7 -7 15 -9 18 -7 11 -10 19 -12 32 -1 12 -3 17
-11 28 -5 7 -11 18 -13 23 -2 6 -11 24 -19 39 -19 36 -17 52 9 79 3 3 9 10 12
15 4 5 14 18 23 29 9 11 19 24 23 29 4 5 10 13 14 18 11 16 29 39 36 47 4 4
13 15 19 24 19 25 29 38 43 55 21 25 20 30 -27 63 -15 11 -32 23 -38 28 -18
16 -35 11 -52 -17 -3 -5 -11 -16 -17 -25 -7 -9 -18 -24 -25 -34 -22 -32 -34
-49 -50 -71 -9 -13 -22 -32 -29 -42 -22 -32 -37 -37 -50 -14 -4 7 -10 16 -14
20 -3 4 -8 13 -10 19 -2 6 -11 19 -18 30 -8 10 -17 24 -20 31 -6 13 -21 29
-65 73 -8 8 -33 34 -57 58 -47 48 -62 61 -77 68 -6 2 -16 9 -22 15 -6 5 -16
12 -22 15 -8 4 -18 11 -33 26 -14 13 -26 22 -33 26 -6 3 -14 9 -19 14 -13 15
-24 19 -39 15z m620 -1113 c11 -12 13 -22 13 -60 -1 -34 -1 -34 5 -44 11 -18
12 -22 10 -64 -1 -41 0 -48 9 -58 8 -9 8 -10 9 -107 l0 -94 -9 -12 c-4 -7 -8
-15 -8 -17 0 -2 0 -32 0 -67 0 -68 0 -70 -10 -76 -5 -2 -6 -2 -17 3 -7 4 -16
7 -22 8 -19 3 -28 7 -43 20 -8 6 -21 16 -28 22 -15 11 -23 22 -27 36 -4 13
-11 25 -24 42 -6 7 -13 18 -15 24 -2 6 -8 18 -12 26 -44 80 -42 177 4 259 5 9
10 19 11 22 3 9 13 22 33 43 15 16 21 24 28 38 22 46 73 77 93 56z"/>
</g>
</svg>
