<?xml version="1.0" standalone="no"?>
<!DOCTYPE svg PUBLIC "-//W3C//DTD SVG 20010904//EN"
 "http://www.w3.org/TR/2001/REC-SVG-20010904/DTD/svg10.dtd">
<svg version="1.0" xmlns="http://www.w3.org/2000/svg"
 width="53.000000pt" height="100.000000pt" viewBox="0 0 53.000000 100.000000"
 preserveAspectRatio="xMidYMid meet">
<metadata>
Created by potrace 1.16, written by Peter Selinger 2001-2019
</metadata>
<g transform="translate(0.000000,100.000000) scale(0.100000,-0.100000)"
fill="#000000" stroke="none">
<path d="M101 910 c-34 -28 -61 -57 -61 -65 0 -7 11 -26 24 -42 13 -15 62 -81
110 -147 63 -87 86 -126 86 -149 0 -40 -75 -167 -145 -244 -30 -34 -55 -70
-55 -81 0 -25 112 -132 139 -132 14 0 39 25 79 78 32 42 81 107 109 144 125
163 110 307 -52 503 -36 44 -82 99 -101 122 -57 70 -64 70 -133 13z m159 -130
c121 -156 142 -197 148 -284 3 -49 0 -82 -10 -106 -18 -42 -184 -259 -204
-267 -21 -8 -64 24 -64 48 0 11 26 53 58 92 84 103 122 178 122 242 0 49 -5
59 -82 169 -128 181 -123 170 -97 195 13 12 28 21 33 21 6 0 49 -50 96 -110z"/>
</g>
</svg>
