<?xml version="1.0" standalone="no"?>
<!DOCTYPE svg PUBLIC "-//W3C//DTD SVG 20010904//EN"
 "http://www.w3.org/TR/2001/REC-SVG-20010904/DTD/svg10.dtd">
<svg version="1.0" xmlns="http://www.w3.org/2000/svg"
 width="792.000000pt" height="1500.000000pt" viewBox="0 0 792.000000 1500.000000"
 preserveAspectRatio="xMidYMid meet">
<metadata>
Created by potrace 1.16, written by Peter Selinger 2001-2019
</metadata>
<g transform="translate(0.000000,1500.000000) scale(0.500000,-0.500000)"
fill="#000000" stroke="none">
<path d="M463 2850 c-3 -2 -10 -5 -16 -8 -5 -3 -14 -7 -18 -8 -11 -3 -16 -9
-24 -24 -8 -15 -22 -32 -38 -46 -6 -5 -23 -19 -37 -32 -15 -13 -31 -26 -36
-29 -5 -3 -19 -15 -31 -26 -12 -11 -28 -24 -34 -29 -88 -71 -80 -59 -82 -127
-2 -44 2 -53 26 -61 15 -5 23 -11 60 -48 38 -37 40 -39 40 -62 1 -22 3 -26 15
-35 11 -8 14 -12 14 -21 0 -12 28 -48 38 -48 11 0 38 -24 43 -38 2 -7 7 -15
12 -20 11 -11 12 -15 14 -28 2 -12 7 -21 17 -27 18 -12 25 -19 33 -32 4 -9 11
-17 15 -21 8 -6 12 -10 40 -48 16 -22 35 -50 42 -63 2 -4 8 -13 13 -19 5 -6
12 -16 15 -23 4 -9 9 -15 17 -22 13 -12 28 -35 36 -55 8 -20 8 -20 30 -43 12
-13 21 -24 22 -27 2 -10 9 -18 18 -23 12 -6 16 -9 21 -22 2 -6 9 -19 16 -28
16 -22 21 -30 24 -40 1 -4 8 -13 14 -20 19 -22 21 -27 20 -61 0 -30 0 -30 7
-43 10 -18 10 -27 1 -47 -5 -12 -7 -18 -8 -38 -2 -26 -3 -31 -18 -51 -5 -7
-11 -17 -12 -21 -8 -31 -7 -28 -27 -49 -12 -13 -19 -23 -21 -28 -1 -4 -5 -13
-9 -20 -5 -9 -7 -16 -8 -25 -2 -19 -9 -31 -28 -45 -24 -18 -31 -27 -34 -41 -2
-12 -3 -13 -14 -22 -13 -10 -30 -41 -32 -58 -2 -16 -3 -18 -13 -29 -5 -6 -11
-14 -13 -19 -2 -5 -7 -14 -13 -20 -15 -18 -24 -32 -24 -39 0 -19 -31 -57 -57
-69 -15 -7 -18 -11 -21 -24 -3 -15 -10 -26 -30 -48 -9 -11 -29 -33 -44 -50
-68 -78 -151 -170 -188 -209 -22 -23 -22 -24 -14 -43 3 -9 7 -22 8 -29 5 -29
78 -98 106 -101 13 -1 17 -4 22 -16 2 -5 8 -13 12 -17 4 -4 11 -15 15 -23 10
-22 31 -43 55 -57 14 -7 22 -14 38 -30 15 -15 24 -23 31 -26 5 -2 18 -11 28
-19 10 -8 23 -17 28 -19 12 -5 18 -11 22 -22 8 -20 12 -23 30 -23 12 0 16 2
35 12 4 2 9 4 12 4 10 0 27 8 35 16 4 5 14 11 20 14 13 7 19 14 19 24 0 10 9
19 23 23 19 6 25 15 25 40 0 9 1 10 12 21 9 8 13 14 16 21 6 17 35 55 61 83 8
8 17 20 21 27 3 7 14 21 23 31 10 10 19 22 20 25 8 14 26 36 56 67 29 29 33
34 36 44 5 15 16 32 37 57 9 11 19 25 21 31 12 26 25 38 44 39 20 2 23 6 25
28 2 23 4 28 22 42 14 11 16 14 26 33 8 17 14 26 28 41 23 26 32 39 44 62 12
23 13 25 27 31 12 6 16 11 21 28 3 7 7 18 10 23 3 6 8 17 10 26 5 18 7 21 18
29 12 9 14 16 13 39 -1 21 3 37 26 95 2 7 7 20 10 28 10 31 22 64 34 92 5 12
5 12 6 90 2 87 2 85 -13 96 -10 7 -13 18 -15 45 -1 13 -3 41 -4 61 -2 23 -3
45 -2 58 2 25 -1 34 -17 54 -11 15 -22 38 -25 54 -3 11 -5 16 -13 25 -14 16
-16 21 -18 43 -2 23 -5 30 -15 36 -10 6 -16 15 -18 24 -2 10 -5 16 -16 28 -10
10 -28 47 -30 61 -1 8 -4 13 -20 38 -3 5 -8 13 -11 18 -4 6 -9 11 -16 14 -15
9 -26 18 -32 31 -4 8 -8 13 -15 17 -11 6 -15 13 -17 29 -2 16 -6 20 -22 29
-11 6 -15 10 -20 18 -4 5 -11 14 -16 20 -4 5 -10 12 -11 16 -2 4 -6 12 -11 19
-4 6 -9 17 -12 24 -4 11 -8 16 -29 38 -13 14 -29 31 -34 37 -7 10 -12 14 -23
20 -16 8 -22 16 -35 40 -4 9 -14 22 -26 34 -37 41 -53 62 -53 69 0 15 -23 42
-54 66 -12 9 -118 141 -178 221 -17 23 -24 29 -34 29 -4 0 -13 2 -21 4 -16 5
-63 5 -74 2z m46 -153 c24 -4 61 -41 73 -74 2 -7 5 -14 6 -17 2 -5 26 -30 40
-41 6 -5 18 -21 63 -80 11 -14 26 -33 35 -42 8 -9 18 -20 22 -26 10 -13 24
-31 42 -53 8 -11 19 -25 24 -32 6 -8 17 -19 31 -30 21 -18 22 -19 30 -37 6
-13 12 -22 22 -33 8 -8 18 -20 22 -27 5 -7 14 -20 21 -30 7 -10 15 -22 18 -27
17 -29 35 -48 44 -48 27 0 34 -8 34 -36 -1 -40 17 -70 48 -77 22 -5 27 -11 29
-42 1 -19 5 -27 17 -37 13 -10 16 -13 26 -35 5 -10 15 -29 22 -43 13 -24 13
-26 15 -43 1 -19 4 -25 13 -30 15 -8 16 -10 16 -61 0 -46 0 -46 9 -61 8 -16 8
-16 7 -46 0 -33 1 -39 10 -51 7 -8 7 -8 8 -62 1 -53 1 -53 8 -64 8 -13 9 -22
2 -37 -3 -8 -4 -15 -4 -26 0 -16 -3 -24 -12 -36 -10 -13 -12 -19 -12 -43 0
-22 0 -23 -7 -37 -4 -7 -9 -20 -10 -28 -4 -19 -6 -24 -17 -51 -6 -13 -11 -28
-12 -34 -3 -13 -14 -36 -23 -47 -8 -10 -12 -18 -14 -27 -1 -4 -6 -11 -12 -18
-10 -11 -19 -23 -50 -63 -16 -20 -20 -26 -58 -74 -18 -24 -46 -61 -76 -100
-18 -23 -49 -63 -62 -78 -8 -8 -18 -21 -22 -28 -4 -7 -20 -28 -34 -46 -14 -18
-28 -36 -30 -39 -2 -3 -20 -26 -40 -52 -20 -26 -44 -57 -53 -69 -9 -12 -20
-26 -24 -30 -4 -4 -10 -12 -13 -17 -3 -5 -13 -19 -22 -31 -9 -12 -21 -29 -28
-38 -48 -66 -52 -66 -114 -13 -20 17 -43 38 -53 46 -9 8 -21 18 -27 23 -5 4
-23 19 -40 32 -52 42 -57 56 -31 84 13 14 15 19 17 38 2 26 2 26 22 47 12 13
21 24 26 33 4 8 13 21 21 31 8 9 15 19 17 23 4 9 12 16 23 20 17 6 38 28 45
45 10 26 8 24 97 124 25 28 50 57 57 64 15 16 45 51 48 56 2 2 5 11 7 21 5 22
26 65 35 72 4 4 10 8 14 12 8 6 10 12 12 33 2 25 39 95 63 121 10 11 11 13 13
34 1 9 8 26 35 76 4 8 6 14 5 18 0 3 -1 10 -2 14 -1 7 0 10 5 19 6 11 6 11 6
114 0 119 1 111 -21 121 -20 9 -26 17 -31 45 -2 8 -4 14 -11 22 -5 6 -10 15
-12 20 -2 5 -11 19 -19 32 -9 13 -22 33 -29 45 -8 12 -17 26 -21 30 -8 9 -27
35 -45 61 -7 11 -12 20 -13 28 -2 9 -4 12 -14 21 -23 22 -27 27 -39 44 -10 15
-24 35 -58 82 -5 7 -11 16 -14 20 -3 4 -15 20 -25 35 -11 15 -24 35 -31 44 -6
9 -16 23 -21 30 -5 7 -11 17 -14 22 -2 6 -8 14 -12 19 -13 14 -24 28 -34 42
-4 7 -13 19 -19 28 -7 9 -16 22 -21 29 -9 13 -31 44 -55 77 -7 9 -17 24 -24
33 -7 9 -18 24 -25 33 -23 29 -23 39 0 55 6 4 15 11 19 15 4 4 14 10 21 13 11
5 18 12 60 53 47 48 54 54 65 52 3 -1 12 -3 20 -4z"/>
</g>
</svg>
