<?xml version="1.0" standalone="no"?>
<!DOCTYPE svg PUBLIC "-//W3C//DTD SVG 20010904//EN"
 "http://www.w3.org/TR/2001/REC-SVG-20010904/DTD/svg10.dtd">
<svg version="1.0" xmlns="http://www.w3.org/2000/svg"
 width="198.000000pt" height="376.000000pt" viewBox="0 0 198.000000 376.000000"
 preserveAspectRatio="xMidYMid meet">
<metadata>
Created by potrace 1.16, written by Peter Selinger 2001-2019
</metadata>
<g transform="translate(0.000000,376.000000) scale(0.100000,-0.100000)"
fill="#000000" stroke="none">
<path d="M555 3551 c-22 -10 -46 -30 -52 -43 -10 -22 -205 -194 -289 -255 -25
-18 -27 -26 -28 -89 -1 -63 1 -69 24 -81 14 -7 49 -33 77 -59 44 -39 53 -52
53 -80 0 -23 6 -37 20 -44 11 -6 20 -21 20 -33 0 -15 13 -31 40 -49 44 -28 83
-79 93 -121 4 -14 16 -29 27 -32 11 -3 20 -10 20 -14 0 -4 14 -23 31 -42 17
-19 60 -77 94 -130 35 -52 70 -101 78 -107 8 -7 21 -27 28 -45 7 -18 36 -59
64 -92 54 -64 105 -136 105 -149 0 -5 12 -22 26 -39 21 -25 24 -37 19 -64 -4
-21 -2 -40 6 -49 7 -8 9 -27 5 -46 -4 -18 -8 -46 -10 -63 -3 -35 -50 -130 -82
-165 -12 -14 -30 -48 -39 -77 -10 -32 -27 -58 -42 -68 -13 -9 -29 -30 -35 -46
-5 -16 -14 -29 -19 -29 -12 0 -39 -55 -39 -80 0 -11 -7 -23 -15 -26 -8 -4 -15
-11 -15 -16 0 -6 -11 -23 -25 -40 -14 -16 -25 -39 -25 -51 -1 -14 -19 -36 -50
-61 -28 -22 -50 -46 -50 -53 0 -14 -139 -176 -278 -326 -48 -51 -72 -84 -68
-94 3 -8 9 -27 12 -41 8 -35 99 -122 127 -122 16 0 30 -14 49 -48 37 -63 46
-72 96 -105 23 -15 42 -31 42 -35 0 -4 29 -27 64 -50 36 -23 68 -51 71 -62 10
-31 46 -27 115 12 8 4 25 12 36 17 12 5 24 21 28 35 4 16 16 28 31 32 19 5 25
13 25 35 0 18 7 32 20 39 11 6 20 16 20 23 0 7 25 44 56 82 31 39 76 97 100
131 24 33 56 71 72 85 16 13 39 42 51 64 46 84 92 140 119 145 21 4 28 12 30
35 2 17 16 44 31 60 15 17 38 47 50 68 13 20 26 37 30 37 4 0 20 23 35 50 15
28 33 50 40 50 7 0 23 26 36 58 12 31 29 64 36 73 8 8 14 29 14 45 0 16 14 67
31 114 17 47 36 99 41 115 6 17 15 34 19 39 5 6 9 58 9 117 0 95 -2 108 -20
120 -18 12 -20 27 -22 128 -2 86 -6 119 -18 135 -9 12 -22 37 -30 56 -7 19
-19 42 -27 51 -7 8 -13 28 -13 42 0 15 -9 36 -19 46 -21 21 -39 52 -71 121
-42 89 -55 110 -71 115 -19 6 -79 79 -79 95 0 6 -19 31 -43 54 -23 23 -51 60
-62 82 -25 48 -101 136 -126 146 -10 4 -26 22 -35 40 -9 18 -36 54 -60 80 -24
26 -44 54 -44 63 0 8 -26 41 -57 73 -32 32 -102 115 -155 183 -82 107 -103
127 -136 137 -51 15 -69 14 -117 -7z m133 -208 c13 -16 30 -43 39 -62 8 -19
26 -43 40 -54 14 -11 48 -50 77 -87 107 -141 198 -249 221 -264 14 -9 25 -23
25 -30 0 -8 12 -29 28 -47 15 -18 47 -62 72 -98 35 -51 52 -67 75 -71 28 -5
30 -8 30 -52 1 -53 25 -88 60 -88 25 0 35 -17 35 -60 0 -19 7 -33 19 -40 23
-12 81 -124 81 -156 0 -13 9 -29 19 -36 15 -10 21 -30 25 -83 9 -123 18 -180
27 -189 5 -6 9 -43 9 -82 0 -40 5 -76 10 -79 14 -9 3 -92 -16 -122 -8 -12 -14
-35 -14 -50 0 -15 -12 -59 -26 -98 -14 -38 -28 -81 -32 -95 -9 -42 -50 -99
-281 -399 -41 -53 -117 -152 -170 -221 -52 -69 -113 -147 -136 -175 -23 -27
-70 -89 -104 -138 -42 -58 -69 -87 -82 -87 -10 0 -70 43 -132 96 -61 52 -122
104 -134 114 -29 23 -30 66 -3 80 14 7 20 21 20 44 0 22 8 40 25 56 13 12 38
46 56 74 18 28 46 60 63 71 17 11 40 37 51 57 12 21 72 94 134 163 83 93 118
140 132 177 10 28 30 63 44 78 14 14 25 35 25 46 0 25 40 108 74 153 14 19 26
44 26 55 0 12 10 37 21 56 27 43 31 72 32 240 l2 135 -27 13 c-19 9 -29 23
-34 47 -3 19 -12 39 -20 46 -8 6 -14 15 -14 19 0 9 -48 81 -108 162 -23 31
-42 63 -42 71 0 7 -12 24 -26 38 -23 22 -62 75 -195 267 -45 64 -78 110 -244
340 -41 56 -75 106 -75 111 0 5 26 26 58 47 31 21 82 64 112 96 54 56 57 58
90 48 19 -5 46 -22 58 -37z"/>
</g>
</svg>
