<?xml version="1.0" standalone="no"?>
<!DOCTYPE svg PUBLIC "-//W3C//DTD SVG 20010904//EN"
 "http://www.w3.org/TR/2001/REC-SVG-20010904/DTD/svg10.dtd">
<svg version="1.0" xmlns="http://www.w3.org/2000/svg"
 width="47.000000pt" height="100.000000pt" viewBox="0 0 47.000000 100.000000"
 preserveAspectRatio="xMidYMid meet">
<metadata>
Created by potrace 1.16, written by Peter Selinger 2001-2019
</metadata>
<g transform="translate(0.000000,100.000000) scale(0.100000,-0.100000)"
fill="#000000" stroke="none">
<path d="M118 908 c-52 -34 -78 -58 -78 -71 0 -10 25 -47 56 -80 66 -72 89
-118 103 -207 20 -124 15 -167 -29 -247 -23 -40 -52 -80 -66 -89 -30 -20 -46
-47 -39 -67 9 -21 130 -107 152 -107 43 0 142 121 187 227 23 56 26 75 26 190
0 136 -18 231 -59 315 -23 48 -146 188 -164 188 -7 0 -47 -24 -89 -52z m109
-35 c4 -12 -26 -44 -66 -71 -22 -15 -24 -15 -37 3 -20 26 -18 29 24 58 38 27
72 31 79 10z m57 -59 c23 -23 21 -29 -29 -70 -37 -30 -48 -34 -60 -24 -8 7
-15 17 -15 23 0 8 78 87 86 87 1 0 10 -7 18 -16z m66 -135 c0 -33 -27 -49 -86
-49 -51 0 -45 31 13 69 52 35 73 29 73 -20z m25 -119 l0 -35 -57 -3 c-50 -3
-57 -1 -63 19 -8 26 0 34 45 47 60 18 75 12 75 -28z m9 -104 c12 -47 -2 -59
-56 -53 -60 8 -68 12 -68 42 0 26 13 32 76 34 36 1 43 -2 48 -23z m-44 -105
c30 -8 35 -48 8 -65 -13 -8 -28 -5 -63 12 -42 20 -55 39 -38 55 8 9 60 7 93
-2z m-60 -101 c41 -21 49 -37 28 -58 -19 -19 -40 -14 -77 17 -23 19 -32 33
-28 45 8 21 29 20 77 -4z m-58 -89 c28 -25 30 -31 19 -45 -19 -22 -32 -20 -71
12 -23 20 -31 34 -27 45 10 26 43 20 79 -12z"/>
</g>
</svg>
