<?xml version="1.0" standalone="no"?>
<!DOCTYPE svg PUBLIC "-//W3C//DTD SVG 20010904//EN"
 "http://www.w3.org/TR/2001/REC-SVG-20010904/DTD/svg10.dtd">
<svg version="1.0" xmlns="http://www.w3.org/2000/svg"
 width="156.000000pt" height="376.000000pt" viewBox="0 0 156.000000 376.000000"
 preserveAspectRatio="xMidYMid meet">
<metadata>
Created by potrace 1.16, written by Peter Selinger 2001-2019
</metadata>
<g transform="translate(0.000000,376.000000) scale(0.100000,-0.100000)"
fill="#000000" stroke="none">
<path d="M762 3573 c-24 -21 -112 -182 -112 -205 0 -9 -6 -21 -14 -27 -8 -7
-22 -33 -30 -59 -9 -25 -25 -55 -35 -66 -11 -12 -30 -41 -42 -66 -13 -25 -31
-52 -40 -60 -9 -8 -22 -44 -29 -80 -7 -36 -20 -74 -29 -85 -24 -29 -51 -81
-51 -97 0 -7 -14 -40 -32 -73 -17 -33 -37 -72 -45 -86 -7 -15 -20 -32 -28 -39
-8 -7 -15 -20 -15 -29 0 -9 -7 -25 -15 -35 -8 -11 -15 -28 -15 -38 0 -10 -9
-27 -20 -38 -25 -25 -26 -64 -1 -99 11 -15 30 -52 41 -82 12 -30 28 -61 36
-70 8 -8 14 -22 14 -30 0 -9 16 -42 35 -74 37 -61 75 -141 75 -157 0 -6 11
-23 25 -40 14 -16 25 -38 25 -47 0 -10 8 -29 18 -42 11 -13 30 -46 44 -74 14
-27 54 -105 88 -172 l63 -121 -67 -134 c-36 -74 -66 -138 -66 -142 0 -17 -93
-192 -111 -209 -10 -10 -19 -30 -19 -45 0 -27 -31 -104 -52 -129 -6 -8 -26
-50 -44 -94 -18 -43 -44 -100 -58 -125 -18 -32 -26 -62 -26 -95 0 -53 -10 -43
134 -144 47 -33 129 -93 183 -132 94 -69 100 -73 153 -73 l55 0 60 131 c33 72
79 161 103 197 23 37 47 85 53 106 6 22 22 54 35 71 13 18 24 41 24 52 0 11 9
28 20 38 11 10 20 27 20 38 0 19 39 104 183 396 l81 163 -3 101 c-2 98 -17
153 -62 227 -37 61 -259 521 -259 537 0 11 -8 27 -19 37 -21 19 -44 72 -59
134 -9 41 -7 49 43 150 29 59 97 197 150 307 128 268 140 288 163 300 20 9 30
42 24 82 -2 13 -27 38 -64 65 -34 24 -75 55 -91 71 -16 15 -38 32 -49 38 -11
6 -72 51 -135 100 -98 76 -121 89 -153 89 -22 0 -47 -8 -58 -17z m173 -213
c47 -38 115 -90 150 -116 61 -43 80 -73 56 -88 -5 -4 -23 -34 -41 -69 -17 -34
-41 -82 -54 -107 -36 -67 -84 -172 -91 -197 -3 -12 -18 -31 -31 -42 -16 -13
-32 -43 -44 -81 -10 -33 -34 -92 -54 -131 -51 -101 -50 -152 7 -262 23 -46 47
-94 53 -107 6 -14 18 -38 27 -55 79 -146 307 -625 307 -645 0 -14 -9 -38 -20
-55 -11 -16 -29 -59 -40 -94 -11 -35 -29 -80 -39 -100 -11 -20 -41 -81 -66
-136 -26 -55 -91 -190 -145 -300 -161 -329 -190 -390 -190 -403 0 -19 -38 -33
-75 -26 -19 3 -56 22 -82 42 -26 20 -64 47 -83 62 -19 14 -52 36 -73 49 -41
25 -47 52 -22 88 23 33 68 126 121 249 25 60 54 120 63 134 10 14 41 79 69
145 28 66 74 165 101 219 43 85 51 108 51 156 0 32 -6 64 -14 76 -8 11 -111
211 -229 446 l-215 426 137 274 c154 312 283 576 313 646 25 57 36 72 54 72 8
0 52 -31 99 -70z"/>
</g>
</svg>
