<?xml version="1.0" standalone="no"?>
<!DOCTYPE svg PUBLIC "-//W3C//DTD SVG 20010904//EN"
 "http://www.w3.org/TR/2001/REC-SVG-20010904/DTD/svg10.dtd">
<svg version="1.0" xmlns="http://www.w3.org/2000/svg"
 width="624.000000pt" height="1500.000000pt" viewBox="0 0 624.000000 1500.000000"
 preserveAspectRatio="xMidYMid meet">
<metadata>
Created by potrace 1.16, written by Peter Selinger 2001-2019
</metadata>
<g transform="translate(0.000000,1500.000000) scale(0.500000,-0.500000)"
fill="#000000" stroke="none">
<path d="M631 2868 c-23 -6 -41 -22 -46 -42 0 -3 -6 -13 -12 -21 -13 -18 -12
-17 -35 -64 -9 -19 -17 -39 -18 -45 -2 -13 -5 -17 -14 -28 -9 -9 -13 -17 -24
-50 -10 -27 -16 -39 -31 -54 -6 -6 -13 -16 -16 -21 -2 -6 -7 -13 -9 -16 -2 -3
-6 -13 -9 -21 -6 -17 -9 -22 -23 -30 -12 -8 -17 -17 -20 -39 -1 -9 -3 -20 -5
-25 -2 -5 -4 -17 -5 -26 -2 -20 -5 -27 -20 -43 -9 -10 -12 -15 -14 -24 -2 -7
-7 -17 -12 -24 -5 -7 -9 -17 -11 -25 -6 -24 -7 -27 -15 -40 -9 -14 -15 -26
-19 -40 -2 -5 -8 -16 -14 -25 -6 -8 -15 -23 -18 -32 -6 -12 -10 -19 -18 -27
-10 -10 -12 -14 -15 -25 -2 -7 -6 -16 -9 -20 -8 -10 -10 -17 -14 -35 -3 -16
-5 -20 -16 -30 -21 -18 -24 -45 -7 -74 5 -9 13 -23 18 -31 8 -15 22 -49 30
-71 3 -10 8 -18 15 -27 6 -8 12 -17 13 -22 4 -16 8 -26 14 -34 2 -4 7 -14 11
-21 10 -22 21 -40 31 -52 6 -8 10 -15 11 -19 2 -11 6 -24 14 -39 4 -7 8 -19 9
-26 3 -17 4 -19 17 -28 13 -9 14 -11 20 -33 6 -20 12 -32 27 -52 12 -17 18
-27 22 -40 3 -10 25 -51 31 -60 3 -3 8 -12 11 -20 17 -38 22 -47 30 -60 6 -8
10 -15 10 -16 0 -1 5 -12 12 -25 31 -65 31 -70 4 -109 -6 -8 -12 -19 -13 -23
-2 -5 -6 -14 -10 -21 -4 -6 -9 -18 -12 -25 -5 -15 -20 -47 -30 -66 -3 -7 -8
-17 -9 -21 -1 -4 -7 -17 -12 -28 -5 -11 -13 -28 -18 -38 -14 -31 -16 -36 -24
-49 -4 -7 -11 -20 -14 -29 -6 -14 -9 -18 -21 -30 -18 -17 -21 -24 -21 -45 0
-16 -5 -34 -14 -49 -2 -3 -6 -12 -9 -20 -3 -9 -10 -20 -17 -29 -9 -11 -13 -19
-18 -33 -4 -10 -10 -25 -13 -33 -4 -8 -12 -24 -16 -36 -5 -12 -12 -27 -15 -34
-11 -26 -22 -48 -28 -56 -14 -22 -15 -24 -15 -58 0 -43 4 -51 41 -74 31 -19
37 -23 56 -39 11 -8 23 -16 26 -18 3 -2 11 -7 17 -13 6 -6 18 -14 27 -19 8 -5
19 -12 24 -15 5 -4 14 -10 19 -14 5 -4 15 -11 21 -16 18 -15 35 -27 45 -33 5
-3 17 -12 27 -20 29 -23 31 -24 72 -25 52 -1 52 -1 68 39 5 14 12 30 15 35 16
27 32 58 38 74 11 28 25 58 33 71 5 6 12 19 16 28 4 10 13 22 21 32 7 9 15 21
17 27 3 6 7 16 10 22 3 7 7 19 9 27 4 20 7 26 23 47 17 22 20 28 20 40 0 14 5
25 18 37 12 11 14 16 14 28 0 7 2 13 10 27 5 11 11 24 12 29 4 15 13 34 25 52
6 9 11 19 12 22 1 3 5 13 10 22 5 9 11 22 13 29 2 7 7 17 9 22 3 5 7 14 9 19
3 6 8 15 12 21 8 12 24 45 35 74 11 28 29 62 38 73 6 6 11 15 15 27 4 9 8 20
9 24 2 6 3 26 3 81 1 82 2 70 -14 114 -3 7 -8 17 -13 24 -5 7 -9 18 -12 28 -5
20 -7 23 -18 36 -5 6 -11 15 -14 22 -4 7 -13 25 -22 40 -8 16 -17 35 -20 42
-3 8 -6 15 -7 16 -1 1 -5 10 -9 19 -4 9 -9 20 -12 23 -5 8 -28 50 -30 57 -2 6
-16 39 -28 63 -5 10 -10 22 -12 27 -2 4 -7 14 -12 22 -13 19 -31 63 -33 80 -2
16 -5 22 -16 33 -24 23 -38 52 -40 83 -1 18 -2 23 -8 36 -8 18 -7 25 3 43 4 7
9 19 12 26 3 7 7 16 10 21 2 4 7 13 10 21 3 8 12 25 20 38 8 13 17 30 20 37 2
7 8 20 12 29 4 9 11 25 15 35 5 10 12 25 17 32 5 7 14 24 20 38 6 14 14 30 16
36 3 6 9 19 12 28 4 9 10 22 15 29 15 25 22 37 29 53 13 32 27 63 33 71 3 4
10 16 15 26 9 18 9 18 22 26 23 11 22 10 22 50 0 41 0 40 -36 62 -11 6 -28 19
-38 27 -11 10 -23 19 -32 23 -13 6 -29 20 -29 25 0 5 -13 16 -23 19 -12 3 -36
20 -53 36 -10 9 -51 41 -74 56 -5 4 -17 13 -26 21 -46 39 -47 40 -80 40 -14 0
-28 -1 -33 -2z m54 -133 c3 -1 12 -8 19 -14 12 -11 27 -23 58 -47 6 -4 16 -13
21 -18 6 -5 17 -14 26 -20 8 -6 19 -13 23 -17 4 -3 10 -8 14 -11 4 -3 13 -10
21 -16 8 -6 22 -17 32 -23 24 -16 26 -23 12 -43 -4 -5 -11 -18 -15 -27 -21
-50 -30 -66 -49 -92 -12 -16 -26 -47 -34 -74 -6 -19 -11 -31 -19 -41 -6 -7
-21 -40 -31 -65 -7 -18 -14 -28 -29 -39 -18 -13 -24 -23 -25 -42 -1 -11 -4
-21 -9 -35 -5 -10 -9 -23 -10 -29 -1 -5 -7 -17 -12 -26 -12 -21 -21 -39 -26
-52 -2 -6 -8 -18 -12 -27 -14 -28 -13 -82 2 -115 5 -13 10 -24 10 -26 0 -1 5
-9 11 -18 13 -19 28 -50 38 -78 4 -11 12 -27 19 -37 12 -19 20 -34 23 -43 1
-3 5 -11 8 -19 4 -8 9 -19 11 -24 2 -6 7 -16 12 -22 8 -13 25 -47 37 -75 19
-43 27 -60 33 -69 7 -10 22 -41 29 -61 6 -15 20 -41 33 -62 6 -8 10 -16 10
-17 0 -1 4 -11 10 -22 5 -11 11 -25 13 -30 2 -6 8 -18 13 -26 19 -29 19 -28
19 -61 l0 -29 -12 -19 c-8 -11 -14 -23 -16 -30 -2 -6 -7 -18 -10 -26 -4 -9 -8
-22 -10 -33 -4 -25 -8 -35 -17 -47 -12 -16 -23 -38 -49 -99 -18 -42 -29 -65
-39 -80 -5 -8 -11 -20 -13 -26 -2 -5 -7 -18 -12 -27 -5 -9 -9 -19 -10 -22 -3
-11 -20 -44 -29 -56 -4 -7 -10 -16 -11 -21 -2 -5 -6 -16 -11 -24 -4 -9 -11
-23 -14 -31 -4 -9 -10 -22 -14 -28 -5 -7 -15 -27 -22 -44 -8 -17 -17 -37 -21
-45 -3 -8 -8 -19 -10 -25 -2 -6 -7 -16 -11 -22 -12 -17 -30 -55 -47 -98 -22
-55 -26 -58 -63 -58 -31 0 -36 1 -50 14 -16 14 -41 32 -62 45 -11 6 -29 20
-42 30 -13 10 -26 20 -30 22 -8 5 -30 21 -38 29 -13 12 -7 31 27 83 5 8 10 18
13 23 2 5 7 16 10 24 4 8 8 17 9 20 1 3 4 11 8 18 4 7 12 26 18 41 6 15 13 32
16 36 3 5 8 15 11 24 3 9 8 18 9 21 2 2 6 11 9 19 3 8 13 28 23 44 9 15 19 34
22 42 2 8 11 28 19 44 8 17 16 35 19 42 2 7 7 17 10 23 10 22 15 35 20 47 6
17 20 44 30 59 5 7 10 17 12 21 3 9 19 43 34 73 21 42 15 109 -12 146 -11 15
-17 26 -22 41 -3 10 -18 37 -30 56 -4 6 -11 21 -16 33 -12 31 -26 60 -34 73
-7 11 -27 51 -31 63 -1 4 -5 12 -9 16 -7 11 -28 51 -34 67 -2 7 -8 17 -12 24
-10 15 -19 31 -28 53 -4 9 -13 26 -19 38 -6 12 -17 33 -24 48 -16 35 -29 60
-39 76 -5 6 -10 15 -11 20 -1 4 -6 15 -11 24 -22 44 -23 51 -8 74 6 9 13 21
15 28 3 6 9 18 14 28 5 9 10 22 12 27 2 6 7 16 12 23 11 16 26 47 45 92 9 20
19 42 23 48 11 16 26 48 33 65 5 15 20 43 32 61 4 6 7 11 7 13 0 1 4 10 8 19
5 9 11 23 13 30 3 7 9 20 14 28 16 29 27 50 35 69 4 11 11 27 14 35 4 8 9 19
11 24 2 5 10 19 17 31 7 12 16 31 21 42 19 44 25 58 27 62 2 2 5 9 8 14 11 19
22 25 37 18z"/>
</g>
</svg>
