<?xml version="1.0" standalone="no"?>
<!DOCTYPE svg PUBLIC "-//W3C//DTD SVG 20010904//EN"
 "http://www.w3.org/TR/2001/REC-SVG-20010904/DTD/svg10.dtd">
<svg version="1.0" xmlns="http://www.w3.org/2000/svg"
 width="41.000000pt" height="100.000000pt" viewBox="0 0 41.000000 100.000000"
 preserveAspectRatio="xMidYMid meet">
<metadata>
Created by potrace 1.16, written by Peter Selinger 2001-2019
</metadata>
<g transform="translate(0.000000,100.000000) scale(0.100000,-0.100000)"
fill="#000000" stroke="none">
<path d="M157 886 c-56 -102 -107 -217 -107 -242 0 -13 26 -75 57 -138 l57
-114 -58 -122 c-35 -74 -55 -128 -51 -140 8 -24 108 -93 131 -88 20 3 163 282
171 333 3 22 -9 56 -46 133 -28 57 -51 116 -51 131 0 15 20 67 45 116 25 50
43 95 41 102 -9 22 -108 93 -131 93 -18 0 -31 -14 -58 -64z m106 -20 l27 -25
-45 -92 c-25 -51 -45 -100 -45 -108 0 -9 25 -69 55 -135 l55 -118 -63 -141
c-35 -77 -68 -142 -74 -144 -6 -2 -24 7 -39 20 l-28 25 52 109 c29 61 52 121
52 134 0 13 -25 76 -56 139 l-55 115 57 122 c31 68 62 123 69 123 7 0 24 -11
38 -24z"/>
</g>
</svg>
