<?xml version="1.0" standalone="no"?>
<!DOCTYPE svg PUBLIC "-//W3C//DTD SVG 20010904//EN"
 "http://www.w3.org/TR/2001/REC-SVG-20010904/DTD/svg10.dtd">
<svg version="1.0" xmlns="http://www.w3.org/2000/svg"
 width="214.000000pt" height="356.000000pt" viewBox="0 0 214.000000 356.000000"
 preserveAspectRatio="xMidYMid meet">
<metadata>
Created by potrace 1.16, written by Peter Selinger 2001-2019
</metadata>
<g transform="translate(0.000000,356.000000) scale(0.100000,-0.100000)"
fill="#000000" stroke="none">
<path d="M1550 3465 c-8 -10 -12 -84 -12 -267 0 -139 1 -258 1 -263 1 -10 52
-45 65 -45 11 0 65 59 79 86 10 21 12 48 7 99 -3 39 -3 142 1 230 4 88 5 163
2 168 -8 14 -130 8 -143 -8z"/>
<path d="M1868 3461 c-10 -14 -13 -80 -13 -276 l0 -257 37 -22 37 -21 30 32
c57 62 63 81 54 158 -5 39 -5 140 -1 225 4 85 5 161 3 168 -3 8 -26 12 -69 12
-52 0 -67 -4 -78 -19z"/>
<path d="M149 3443 c-12 -15 -15 -65 -14 -276 l0 -258 38 -22 38 -21 38 44 39
45 1 223 c0 123 3 227 6 233 4 5 3 18 0 29 -5 17 -15 20 -69 20 -48 0 -66 -4
-77 -17z"/>
<path d="M469 3443 c-12 -15 -14 -67 -14 -278 l1 -259 38 -20 38 -20 29 34
c53 63 59 80 51 158 -5 38 -4 139 0 224 4 84 6 159 3 166 -7 20 -129 16 -146
-5z"/>
<path d="M1109 3404 c-7 -9 -13 -24 -14 -34 -1 -9 -16 -35 -33 -56 -18 -21
-32 -43 -32 -49 0 -5 -14 -28 -30 -49 -17 -22 -30 -44 -30 -49 0 -6 -11 -24
-24 -41 -40 -54 -57 -95 -55 -139 2 -63 -16 -135 -41 -162 -16 -18 -21 -31
-16 -50 4 -15 0 -37 -9 -55 -12 -24 -15 -79 -14 -327 0 -290 1 -299 22 -329
37 -54 81 -108 107 -134 14 -14 34 -43 45 -65 11 -22 28 -49 38 -59 9 -11 15
-27 12 -37 -7 -21 42 -119 71 -142 13 -10 26 -28 30 -40 4 -12 20 -41 37 -64
21 -29 28 -49 24 -65 -4 -13 0 -36 8 -52 8 -16 15 -40 15 -54 0 -13 8 -30 17
-37 16 -12 17 -32 15 -181 -4 -222 -20 -327 -53 -344 -32 -18 -91 -103 -85
-124 6 -23 -27 -81 -66 -116 -15 -13 -28 -28 -28 -33 0 -5 -12 -24 -26 -42
-14 -19 -35 -62 -45 -97 -11 -34 -26 -69 -33 -78 -30 -34 -46 -81 -46 -135 0
-76 11 -95 58 -95 52 0 64 11 72 66 8 47 19 81 39 114 4 8 18 38 30 65 28 61
64 117 112 171 20 22 42 58 49 80 7 21 28 59 46 85 51 73 86 148 79 170 -4 11
0 30 9 44 13 20 16 62 16 262 0 228 -1 238 -21 259 -23 24 -40 84 -43 145 0
20 -8 45 -17 55 -9 11 -26 38 -38 61 -11 23 -25 44 -30 48 -21 12 -73 101 -75
126 -1 14 -12 38 -24 54 -12 15 -22 36 -22 45 0 10 -7 24 -16 31 -9 7 -36 43
-60 79 -25 36 -57 82 -73 104 l-28 39 3 226 c3 269 9 316 41 355 15 18 22 37
19 50 -3 12 2 30 9 40 11 14 13 34 9 70 -5 44 -2 56 20 86 14 19 35 54 46 77
11 23 25 45 30 48 6 4 20 25 31 48 12 23 33 54 47 69 27 29 52 88 52 124 0 11
-8 28 -18 37 -24 22 -95 22 -113 1z"/>
<path d="M1550 655 c-10 -12 -13 -80 -13 -278 l1 -262 28 -17 c39 -24 52 -23
65 6 6 13 20 26 30 29 25 7 35 56 29 135 -3 37 -3 137 1 222 3 85 4 161 2 168
-8 19 -127 16 -143 -3z"/>
<path d="M1869 653 c-11 -15 -14 -69 -14 -278 l1 -260 37 -20 37 -20 36 40
c48 54 53 68 45 150 -3 39 -3 135 1 215 10 196 12 190 -66 190 -48 0 -66 -4
-77 -17z"/>
<path d="M533 652 c-32 -2 -56 -9 -65 -19 -10 -12 -13 -75 -14 -275 -1 -251
-1 -259 20 -273 31 -23 66 -18 95 13 43 45 50 67 45 135 -7 75 -6 213 2 324 7
95 3 100 -83 95z"/>
</g>
</svg>
