<?xml version="1.0" standalone="no"?>
<!DOCTYPE svg PUBLIC "-//W3C//DTD SVG 20010904//EN"
 "http://www.w3.org/TR/2001/REC-SVG-20010904/DTD/svg10.dtd">
<svg version="1.0" xmlns="http://www.w3.org/2000/svg"
 width="60.000000pt" height="100.000000pt" viewBox="0 0 60.000000 100.000000"
 preserveAspectRatio="xMidYMid meet">
<metadata>
Created by potrace 1.16, written by Peter Selinger 2001-2019
</metadata>
<g transform="translate(0.000000,100.000000) scale(0.100000,-0.100000)"
fill="#000000" stroke="none">
<path d="M42 968 c-14 -14 -16 -136 -3 -157 5 -8 16 -11 25 -8 14 6 16 20 14
89 -3 80 -12 100 -36 76z"/>
<path d="M425 957 c-4 -13 -5 -50 -3 -82 3 -52 6 -60 23 -60 16 0 21 10 28 50
11 68 2 115 -23 115 -12 0 -22 -9 -25 -23z"/>
<path d="M526 968 c-13 -40 -15 -71 -10 -112 5 -35 11 -46 25 -46 22 0 32 42
27 115 -2 38 -7 51 -21 53 -9 2 -19 -2 -21 -10z"/>
<path d="M125 916 c-8 -65 1 -116 21 -116 21 0 34 43 34 111 0 56 -1 59 -24
59 -22 0 -25 -5 -31 -54z"/>
<path d="M301 957 c-19 -24 -58 -121 -70 -175 -6 -29 -11 -85 -11 -125 0 -63
4 -77 30 -116 56 -82 84 -152 88 -217 4 -58 1 -67 -47 -160 -51 -96 -62 -149
-32 -149 7 0 40 50 73 110 l58 110 -3 85 c-3 92 -26 157 -86 244 -27 38 -31
54 -31 108 0 78 18 147 55 214 29 50 29 84 2 84 -8 0 -20 -6 -26 -13z"/>
<path d="M526 192 c-11 -19 -18 -86 -12 -127 8 -48 28 -60 46 -26 14 27 13
134 -2 149 -14 14 -25 15 -32 4z"/>
<path d="M124 177 c-3 -8 -4 -45 -2 -83 3 -62 5 -69 25 -72 18 -3 23 3 28 30
3 18 5 56 3 83 -3 43 -6 50 -26 53 -12 2 -24 -3 -28 -11z"/>
<path d="M426 168 c-3 -13 -6 -49 -6 -81 0 -43 4 -59 16 -64 25 -9 32 7 36 87
3 70 2 75 -18 78 -15 2 -23 -4 -28 -20z"/>
</g>
</svg>
