<?xml version="1.0" standalone="no"?>
<!DOCTYPE svg PUBLIC "-//W3C//DTD SVG 20010904//EN"
 "http://www.w3.org/TR/2001/REC-SVG-20010904/DTD/svg10.dtd">
<svg version="1.0" xmlns="http://www.w3.org/2000/svg"
 width="43.000000pt" height="100.000000pt" viewBox="0 0 43.000000 100.000000"
 preserveAspectRatio="xMidYMid meet">
<metadata>
Created by potrace 1.16, written by Peter Selinger 2001-2019
</metadata>
<g transform="translate(0.000000,100.000000) scale(0.100000,-0.100000)"
fill="#000000" stroke="none">
<path d="M167 953 c-16 -15 -4 -33 44 -68 97 -70 112 -158 54 -336 -46 -143
-52 -199 -30 -289 20 -83 95 -195 130 -195 34 0 28 32 -18 88 -82 101 -89 201
-27 392 36 112 40 134 34 184 -10 85 -31 126 -91 181 -51 46 -80 60 -96 43z"/>
<path d="M36 925 c-9 -24 2 -38 57 -75 39 -26 55 -46 66 -75 22 -66 16 -141
-17 -220 -69 -161 -78 -267 -29 -367 31 -64 109 -152 129 -146 26 9 20 40 -15
77 -20 20 -50 67 -68 104 -28 60 -31 75 -25 123 3 31 16 81 27 112 72 196 71
192 64 256 -12 99 -32 134 -119 197 -44 33 -61 36 -70 14z"/>
</g>
</svg>
