<?xml version="1.0" standalone="no"?>
<!DOCTYPE svg PUBLIC "-//W3C//DTD SVG 20010904//EN"
 "http://www.w3.org/TR/2001/REC-SVG-20010904/DTD/svg10.dtd">
<svg version="1.0" xmlns="http://www.w3.org/2000/svg"
 width="646.000000pt" height="1500.000000pt" viewBox="0 0 646.000000 1500.000000"
 preserveAspectRatio="xMidYMid meet">
<metadata>
Created by potrace 1.16, written by Peter Selinger 2001-2019
</metadata>
<g transform="translate(0.000000,1500.000000) scale(0.500000,-0.500000)"
fill="#000000" stroke="none">
<path d="M525 2871 c-20 -5 -22 -10 -19 -41 2 -13 2 -30 1 -40 -2 -26 13 -46
36 -46 10 0 20 -5 32 -15 10 -8 18 -12 28 -15 7 -3 17 -7 22 -11 28 -21 41
-29 53 -32 10 -2 14 -4 19 -9 31 -36 65 -71 74 -77 5 -4 16 -13 24 -21 8 -8
23 -24 35 -35 20 -21 20 -21 22 -36 1 -9 4 -21 6 -27 2 -7 4 -14 4 -17 0 -6 9
-16 19 -23 9 -6 14 -17 16 -34 1 -7 4 -20 6 -29 5 -16 6 -19 2 -45 -1 -8 -1
-11 5 -22 6 -11 7 -14 8 -36 1 -25 1 -25 15 -44 6 -9 6 -9 6 -125 l0 -116 -8
-11 c-9 -11 -13 -23 -13 -37 0 -11 -3 -18 -11 -27 -6 -7 -11 -18 -11 -27 0 -1
-5 -8 -11 -15 -17 -18 -20 -26 -18 -43 1 -14 1 -16 -6 -30 -6 -12 -8 -18 -9
-32 -1 -9 -3 -19 -4 -21 -2 -2 -6 -7 -9 -12 -5 -6 -7 -11 -9 -25 -2 -14 -4
-19 -10 -30 -4 -7 -9 -18 -11 -26 -2 -9 -6 -17 -10 -23 -8 -11 -12 -33 -14
-80 0 -17 -1 -18 -9 -32 -4 -7 -9 -18 -11 -23 -3 -11 -8 -22 -11 -24 -2 -1 -6
-13 -11 -30 -2 -7 -6 -14 -10 -19 -11 -12 -12 -15 -13 -48 -1 -30 -1 -31 -8
-44 -6 -11 -6 -14 -5 -23 4 -30 4 -29 -3 -45 -4 -10 -10 -20 -16 -27 -6 -6
-10 -13 -10 -16 -1 -59 0 -273 2 -276 1 -3 6 -8 11 -12 20 -16 28 -38 29 -85
1 -45 2 -48 14 -63 7 -7 7 -7 8 -39 2 -43 5 -58 14 -70 2 -4 6 -13 8 -20 2 -7
6 -15 8 -19 13 -17 13 -18 15 -36 1 -17 3 -22 13 -36 5 -7 7 -11 8 -23 2 -19
3 -21 22 -42 12 -13 18 -21 21 -30 10 -26 49 -62 67 -62 8 0 20 -5 20 -8 0 -1
5 -6 11 -12 9 -10 11 -12 12 -23 1 -10 3 -13 10 -21 6 -6 10 -14 13 -21 2 -6
7 -15 11 -21 5 -5 10 -12 11 -16 3 -4 8 -8 16 -12 15 -7 18 -10 24 -23 23 -63
69 -57 111 15 21 35 1 83 -43 100 -20 8 -120 114 -127 137 -2 6 -7 13 -14 20
-18 18 -28 32 -31 42 -2 6 -6 13 -11 18 -6 6 -9 12 -10 16 -1 4 -1 10 -2 14
-1 4 -3 10 -6 13 -11 15 -13 19 -15 30 -1 8 -4 14 -10 21 -10 11 -12 19 -12
40 0 20 -3 29 -10 38 -13 14 -13 16 -13 66 0 48 -1 53 -10 61 -8 6 -10 14 -11
44 -1 27 -2 30 -7 41 -6 12 -6 12 -7 150 -1 150 -2 141 10 168 2 6 5 13 6 17
2 3 6 10 9 14 9 11 12 22 10 38 -2 19 2 45 6 51 16 20 15 18 17 37 2 17 3 20
11 34 5 8 9 18 10 23 0 4 2 16 3 25 1 9 2 21 2 26 0 7 1 11 6 17 9 13 10 17
12 36 1 12 3 19 5 22 16 20 16 18 17 38 1 16 2 20 7 27 12 17 13 20 15 35 1
13 3 16 10 26 8 10 10 16 13 37 1 5 4 12 9 18 9 11 12 19 12 32 0 13 3 22 11
32 7 8 10 16 12 31 1 5 4 10 10 17 7 8 9 12 11 21 1 7 4 18 6 25 4 12 4 15 2
28 -2 11 -2 52 -2 135 1 131 0 145 -11 160 -18 23 -16 16 -17 69 -1 46 -1 47
-7 60 -3 8 -6 19 -7 29 -2 19 -6 29 -19 41 -8 9 -13 19 -13 28 0 2 -4 9 -9 17
-5 7 -9 15 -10 18 0 4 -1 9 -2 14 -1 5 -4 10 -10 17 -7 7 -9 12 -11 20 -3 14
-60 76 -87 94 -5 4 -21 18 -34 31 -17 17 -27 26 -34 29 -10 4 -38 26 -42 33
-2 3 -9 9 -16 14 -7 5 -18 15 -24 22 -11 11 -20 19 -41 34 -6 5 -22 9 -32 9
-5 0 -9 2 -16 9 -13 12 -61 18 -91 12z"/>
<path d="M133 2802 c-6 -6 -6 -6 -6 -54 0 -62 2 -66 24 -66 10 0 36 -13 51
-26 3 -3 10 -8 15 -10 4 -3 11 -7 14 -10 3 -2 12 -7 20 -11 8 -4 23 -14 34
-23 16 -13 23 -17 35 -21 15 -5 17 -6 29 -20 8 -9 18 -18 25 -22 14 -8 20 -14
56 -49 19 -19 28 -30 30 -35 1 -5 5 -11 8 -15 10 -13 11 -16 12 -42 1 -26 1
-26 12 -37 15 -16 22 -36 18 -53 -3 -17 -3 -21 5 -30 6 -9 7 -12 9 -26 1 -14
3 -18 10 -30 6 -10 9 -17 10 -27 1 -8 3 -21 5 -29 2 -12 3 -37 3 -115 0 -101
0 -103 -7 -135 -1 -2 -5 -8 -9 -13 -10 -10 -12 -16 -12 -31 0 -16 -3 -24 -11
-34 -5 -5 -11 -13 -14 -18 -3 -5 -9 -13 -12 -18 -6 -8 -6 -10 -7 -36 -2 -29
-4 -36 -14 -54 -5 -9 -6 -15 -8 -30 -2 -16 -3 -20 -8 -27 -3 -4 -8 -12 -11
-18 -3 -5 -9 -14 -14 -19 -7 -8 -9 -12 -11 -22 -2 -11 -3 -14 -11 -22 -5 -5
-9 -12 -10 -15 -5 -22 -8 -30 -14 -39 -3 -5 -8 -14 -9 -19 -1 -6 -6 -16 -10
-23 -7 -14 -7 -13 -12 -76 -2 -28 -2 -27 -12 -40 -4 -5 -8 -13 -10 -23 -3 -8
-7 -19 -10 -24 -9 -16 -10 -21 -12 -59 -1 -32 -1 -36 -5 -41 -18 -22 -16 -14
-17 -67 -1 -47 -1 -47 -7 -59 -6 -12 -6 -12 -3 -39 2 -28 2 -28 -5 -49 -7 -21
-7 -21 -7 -91 0 -75 0 -74 11 -88 2 -3 5 -14 7 -24 5 -25 5 -25 13 -34 8 -8
13 -19 13 -26 0 -3 2 -10 5 -16 5 -10 5 -12 4 -34 -2 -32 6 -54 26 -72 5 -4 8
-13 12 -30 1 -3 4 -9 7 -13 8 -9 12 -19 12 -31 0 -15 3 -25 11 -34 9 -9 10
-13 12 -25 2 -14 5 -17 21 -28 15 -10 36 -34 44 -50 2 -5 12 -19 22 -31 16
-19 18 -22 21 -35 4 -16 5 -18 14 -30 4 -5 7 -11 7 -12 0 -5 12 -15 22 -17 5
-1 14 -5 18 -9 5 -3 15 -8 23 -12 18 -7 20 -9 24 -23 4 -12 9 -18 21 -24 19
-10 54 -47 63 -67 13 -28 55 -25 55 4 0 8 4 15 11 23 37 39 35 56 -10 105 -11
12 -29 33 -39 45 -36 43 -41 47 -54 50 -11 2 -13 3 -29 21 -45 46 -73 80 -80
96 -2 6 -8 14 -12 18 -5 6 -8 11 -9 19 -2 12 -5 17 -13 26 -5 6 -7 10 -8 18
-1 9 -3 12 -12 21 -10 10 -10 10 -12 25 -1 17 -2 21 -11 32 -7 9 -9 15 -11 29
-1 7 -3 11 -10 19 -5 6 -10 13 -11 18 -1 5 -3 11 -3 13 -1 2 -4 7 -8 11 -9 10
-11 16 -11 33 0 19 -2 26 -12 36 -8 9 -9 11 -11 33 -1 6 -3 15 -5 20 -7 15 -7
179 0 198 4 11 5 18 6 43 1 31 1 31 8 39 12 17 14 22 14 51 0 20 1 30 4 41 3
11 4 19 4 32 -1 16 -1 17 6 27 3 5 6 13 7 17 2 15 3 17 12 25 4 5 13 14 20 21
l12 12 1 49 c1 49 1 49 9 60 5 7 10 18 13 26 2 9 7 18 11 23 4 5 9 15 11 22 2
8 7 17 11 22 4 5 8 13 10 18 2 5 5 12 8 14 7 6 12 17 14 27 2 9 6 17 13 27 3
4 7 11 8 15 1 4 7 12 12 17 8 9 9 11 11 26 2 12 4 19 8 24 13 17 13 19 13 52
0 36 1 43 12 55 6 7 8 12 10 21 2 8 5 15 9 20 3 5 7 10 9 13 7 9 5 193 -2 203
-7 11 -8 17 -1 27 11 14 10 54 -1 69 -11 17 -15 37 -15 82 0 34 0 34 -7 44 -4
6 -8 12 -9 14 -1 1 -3 13 -4 26 -2 21 -3 25 -8 32 -3 5 -8 11 -9 14 -2 2 -4
10 -5 17 -2 14 -3 17 -13 28 -5 6 -8 11 -9 17 -3 18 -3 20 -11 30 -4 5 -9 13
-12 18 -2 4 -13 18 -24 30 -53 59 -71 76 -85 80 -5 1 -12 5 -16 9 -5 3 -11 9
-15 12 -8 5 -29 26 -38 37 -3 3 -9 7 -16 9 -9 2 -14 6 -30 22 -11 10 -26 24
-35 31 -8 7 -19 18 -24 23 -7 8 -11 12 -18 13 -4 1 -14 6 -21 10 -16 10 -25
11 -73 13 -33 1 -33 1 -40 -5z"/>
</g>
</svg>
