<?xml version="1.0" standalone="no"?>
<!DOCTYPE svg PUBLIC "-//W3C//DTD SVG 20010904//EN"
 "http://www.w3.org/TR/2001/REC-SVG-20010904/DTD/svg10.dtd">
<svg version="1.0" xmlns="http://www.w3.org/2000/svg"
 width="162.000000pt" height="376.000000pt" viewBox="0 0 162.000000 376.000000"
 preserveAspectRatio="xMidYMid meet">
<metadata>
Created by potrace 1.16, written by Peter Selinger 2001-2019
</metadata>
<g transform="translate(0.000000,376.000000) scale(0.100000,-0.100000)"
fill="#000000" stroke="none">
<path d="M635 3578 c-2 -7 -3 -37 -2 -67 2 -55 6 -60 57 -81 14 -6 45 -22 70
-37 25 -14 59 -33 75 -42 17 -9 76 -62 131 -116 87 -86 103 -106 108 -140 3
-22 14 -46 25 -55 19 -15 33 -65 38 -130 4 -63 15 -115 29 -135 21 -29 20
-308 -1 -325 -8 -7 -15 -21 -15 -32 0 -21 -22 -65 -52 -107 -11 -14 -16 -32
-12 -46 3 -13 1 -26 -5 -29 -6 -4 -11 -20 -11 -35 0 -16 -7 -34 -15 -41 -8 -7
-15 -21 -15 -31 0 -16 -17 -62 -40 -109 -4 -9 -11 -40 -14 -70 -7 -54 -18 -83
-59 -165 -21 -43 -38 -127 -37 -186 0 -22 -8 -46 -20 -62 -18 -23 -20 -40 -20
-196 0 -165 1 -171 25 -207 19 -28 25 -50 25 -93 1 -33 7 -64 15 -75 8 -11 15
-39 15 -62 0 -26 12 -68 30 -107 17 -36 30 -74 30 -86 0 -11 5 -23 10 -26 6
-3 10 -15 10 -27 0 -11 12 -35 28 -53 15 -19 39 -52 54 -74 19 -29 35 -41 51
-41 27 0 57 -28 57 -53 0 -9 5 -19 10 -22 6 -4 19 -24 31 -46 11 -22 31 -44
44 -49 14 -5 25 -16 25 -23 0 -7 13 -26 30 -42 l30 -29 40 43 c33 34 40 49 40
81 0 32 -5 42 -27 57 -40 26 -193 182 -193 197 0 7 -10 22 -22 34 -13 11 -30
36 -39 54 -9 18 -30 61 -48 96 -17 34 -31 75 -31 90 0 15 -6 34 -13 40 -6 7
-15 45 -19 85 -3 40 -12 95 -18 122 -7 28 -15 135 -19 239 -6 182 -5 190 16
235 13 25 23 64 23 86 0 22 7 49 15 59 8 11 15 29 15 40 0 12 7 30 15 40 8 11
15 38 15 61 0 23 7 50 15 61 8 10 15 31 15 46 0 15 5 30 10 33 6 3 10 16 10
29 0 12 7 31 15 42 8 10 15 29 15 40 0 12 7 27 15 34 8 7 15 22 15 34 0 11 7
30 15 40 8 11 15 27 15 37 0 9 13 43 30 75 l30 59 0 199 c0 184 -2 201 -21
232 -14 23 -20 48 -18 76 2 48 -18 155 -31 163 -5 3 -19 27 -31 53 -12 26 -25
54 -30 62 -5 8 -13 24 -18 36 -20 45 -343 324 -376 324 -12 0 -28 7 -35 15
-16 19 -119 21 -125 3z"/>
<path d="M158 3498 c-3 -7 -2 -40 1 -73 5 -48 10 -60 26 -65 25 -6 140 -76
178 -107 16 -13 33 -23 39 -23 18 0 149 -122 174 -162 13 -21 24 -51 24 -68 0
-17 9 -39 20 -50 12 -12 20 -33 20 -53 0 -18 10 -57 21 -87 30 -76 40 -370 15
-421 -9 -18 -16 -40 -16 -49 0 -9 -13 -34 -30 -56 -18 -24 -30 -51 -30 -72 0
-40 -35 -147 -59 -182 -10 -14 -30 -52 -45 -85 -16 -33 -34 -73 -42 -89 -8
-16 -14 -49 -14 -74 0 -29 -11 -67 -30 -109 -19 -39 -30 -79 -30 -106 0 -24
-5 -48 -12 -55 -7 -7 -18 -76 -26 -154 -24 -254 -25 -288 -7 -332 21 -51 45
-106 55 -126 4 -8 5 -30 2 -48 -3 -23 2 -43 20 -70 39 -61 48 -81 48 -106 0
-13 7 -29 15 -36 8 -7 15 -22 15 -35 0 -12 10 -27 23 -34 27 -14 80 -89 119
-167 15 -30 34 -54 42 -54 24 0 85 -40 91 -60 3 -11 15 -22 25 -25 20 -6 80
-76 80 -93 0 -16 31 -23 46 -11 8 6 14 16 14 21 0 5 11 24 25 42 14 18 25 40
25 48 0 20 -147 188 -164 188 -25 0 -165 170 -167 203 0 7 -9 26 -20 42 -19
31 -21 35 -44 95 -23 61 -25 64 -47 100 -11 19 -22 46 -24 59 -1 14 -7 34 -12
45 -27 59 -34 107 -29 211 6 117 17 201 31 224 8 12 17 89 17 136 -1 30 36
103 59 117 16 11 20 24 20 74 0 60 14 94 99 254 74 138 91 179 91 218 0 24 12
64 29 98 27 56 28 65 25 173 -1 62 -7 118 -12 123 -6 6 -5 19 4 36 18 35 18
52 -2 81 -10 14 -17 47 -18 87 -1 35 -7 69 -14 76 -7 7 -12 26 -12 43 0 16 -7
39 -15 49 -8 11 -15 27 -15 37 0 9 -6 22 -14 28 -7 6 -16 24 -19 39 -7 33
-117 156 -159 178 -16 9 -45 31 -63 50 -18 19 -37 34 -41 34 -4 0 -34 24 -68
54 -34 29 -75 60 -93 70 -38 19 -139 22 -145 4z"/>
</g>
</svg>
