<?xml version="1.0" standalone="no"?>
<!DOCTYPE svg PUBLIC "-//W3C//DTD SVG 20010904//EN"
 "http://www.w3.org/TR/2001/REC-SVG-20010904/DTD/svg10.dtd">
<svg version="1.0" xmlns="http://www.w3.org/2000/svg"
 width="48.000000pt" height="100.000000pt" viewBox="0 0 48.000000 100.000000"
 preserveAspectRatio="xMidYMid meet">
<metadata>
Created by potrace 1.16, written by Peter Selinger 2001-2019
</metadata>
<g transform="translate(0.000000,100.000000) scale(0.100000,-0.100000)"
fill="#000000" stroke="none">
<path d="M167 953 c-15 -15 -5 -31 44 -67 99 -74 112 -160 52 -340 -43 -128
-49 -223 -21 -316 22 -69 92 -165 121 -165 35 0 32 32 -7 75 -57 63 -69 96
-74 195 -4 84 -1 99 32 199 30 90 36 122 36 192 0 74 2 84 18 84 50 0 81 62
46 91 -13 10 -21 10 -47 0 -60 -24 -63 -23 -111 18 -44 38 -74 50 -89 34z"/>
<path d="M33 923 c-5 -12 3 -24 27 -42 81 -62 96 -83 108 -150 12 -69 14 -61
-58 -256 -16 -43 -23 -84 -24 -145 -1 -77 2 -91 31 -150 36 -74 103 -146 127
-137 26 10 18 41 -18 76 -19 18 -48 64 -66 103 -29 62 -32 77 -26 125 4 30 25
105 49 167 68 180 55 280 -49 376 -57 52 -90 62 -101 33z"/>
</g>
</svg>
