<?xml version="1.0" standalone="no"?>
<!DOCTYPE svg PUBLIC "-//W3C//DTD SVG 20010904//EN"
 "http://www.w3.org/TR/2001/REC-SVG-20010904/DTD/svg10.dtd">
<svg version="1.0" xmlns="http://www.w3.org/2000/svg"
 width="180.000000pt" height="376.000000pt" viewBox="0 0 180.000000 376.000000"
 preserveAspectRatio="xMidYMid meet">
<metadata>
Created by potrace 1.16, written by Peter Selinger 2001-2019
</metadata>
<g transform="translate(0.000000,376.000000) scale(0.100000,-0.100000)"
fill="#000000" stroke="none">
<path d="M637 3583 c-12 -11 -8 -128 5 -141 7 -7 21 -12 33 -12 12 0 26 -5 32
-11 11 -11 58 -38 109 -63 16 -8 78 -61 136 -118 90 -87 107 -109 113 -143 4
-22 15 -49 25 -60 22 -25 39 -80 39 -125 0 -45 11 -112 22 -125 14 -18 13
-307 -1 -351 -20 -62 -34 -89 -62 -121 -9 -10 -18 -39 -20 -65 -5 -43 -20 -88
-69 -208 -10 -25 -21 -70 -25 -100 -3 -30 -15 -72 -25 -92 -11 -21 -19 -44
-19 -51 0 -8 -6 -20 -14 -26 -8 -7 -17 -35 -20 -64 -4 -29 -9 -74 -12 -102 -4
-27 -15 -61 -25 -74 -17 -21 -19 -42 -19 -196 0 -146 2 -175 16 -186 23 -19
36 -55 45 -124 16 -122 29 -186 45 -218 10 -18 21 -45 25 -62 29 -114 103
-229 163 -255 27 -11 47 -29 59 -51 9 -19 26 -47 37 -64 11 -16 23 -36 26 -42
3 -7 11 -13 18 -13 6 0 19 -15 29 -33 23 -43 52 -61 76 -47 43 22 76 121 53
156 -4 6 -21 20 -38 30 -37 23 -144 140 -200 220 -49 71 -104 187 -104 221 0
13 -9 42 -21 65 -15 30 -20 53 -16 83 2 24 -1 51 -6 61 -19 33 -27 115 -28
305 -1 155 1 193 15 220 9 17 16 47 16 66 0 19 8 50 19 71 10 20 26 69 35 107
29 119 38 149 51 180 7 17 19 50 26 75 7 25 18 54 24 65 7 11 21 48 33 81 12
34 34 91 51 126 28 63 29 66 29 243 0 168 -2 183 -24 226 -14 28 -21 55 -17
68 3 13 0 47 -7 78 -15 60 -7 76 32 65 38 -10 206 57 242 97 22 24 50 135 42
166 -26 103 -261 95 -356 -13 -22 -25 -40 -49 -40 -53 0 -22 -32 -5 -65 34
-31 38 -96 95 -281 250 -25 20 -54 37 -64 37 -10 0 -22 5 -25 10 -7 11 -108
14 -118 3z m843 -273 c27 -27 25 -50 -7 -93 -26 -33 -107 -76 -120 -63 -3 3
-19 -2 -35 -10 -16 -8 -41 -14 -56 -12 -23 3 -27 8 -30 38 -2 30 3 41 40 77
43 42 123 81 166 82 12 1 31 -8 42 -19z"/>
<path d="M162 3505 c-4 -8 -5 -44 -2 -82 5 -63 7 -68 30 -71 14 -2 56 -25 93
-50 37 -26 81 -54 98 -63 47 -26 168 -138 195 -180 13 -21 24 -50 24 -63 0
-14 9 -40 20 -59 12 -20 18 -42 14 -51 -4 -10 -2 -27 3 -39 41 -88 53 -154 53
-282 0 -108 -4 -137 -20 -174 -11 -24 -20 -50 -20 -58 0 -8 -11 -31 -25 -51
-14 -20 -25 -46 -25 -57 0 -47 -48 -168 -109 -275 -25 -43 -51 -121 -57 -169
-3 -29 -17 -77 -30 -105 -36 -78 -64 -264 -80 -521 -6 -99 -5 -101 30 -182 24
-54 36 -96 36 -127 0 -24 5 -48 11 -52 15 -9 59 -109 59 -133 0 -10 7 -24 15
-31 8 -7 15 -21 15 -31 0 -10 11 -26 25 -35 28 -18 90 -107 117 -166 11 -25
30 -44 58 -58 50 -25 155 -126 164 -157 12 -40 59 -40 72 0 4 12 15 33 25 46
33 41 24 66 -53 149 -39 42 -79 80 -88 84 -43 16 -180 202 -180 244 0 8 -9 23
-20 34 -11 11 -20 26 -20 34 0 19 -58 143 -70 151 -6 3 -10 21 -10 40 0 19 -4
36 -8 39 -32 20 -40 260 -12 381 14 64 29 150 34 196 4 43 20 75 53 111 22 23
25 32 19 71 -7 48 -6 53 133 321 46 92 61 130 61 162 0 27 10 61 26 91 24 46
25 54 21 173 -3 69 -5 130 -6 135 -1 6 2 26 5 46 4 22 1 46 -7 60 -7 13 -16
53 -20 89 -10 85 -23 138 -42 175 -9 17 -25 52 -37 79 -25 56 -119 167 -164
194 -17 10 -79 59 -138 109 -59 50 -122 96 -140 101 -59 18 -117 21 -126 7z"/>
</g>
</svg>
