<?xml version="1.0" standalone="no"?>
<!DOCTYPE svg PUBLIC "-//W3C//DTD SVG 20010904//EN"
 "http://www.w3.org/TR/2001/REC-SVG-20010904/DTD/svg10.dtd">
<svg version="1.0" xmlns="http://www.w3.org/2000/svg"
 width="1532.000000pt" height="1500.000000pt" viewBox="0 0 1532.000000 1500.000000"
 preserveAspectRatio="xMidYMid meet">
<metadata>
Created by potrace 1.16, written by Peter Selinger 2001-2019
</metadata>
<g transform="translate(0.000000,1500.000000) scale(0.500000,-0.500000)"
fill="#000000" stroke="none">
<path d="M1477 2866 c-4 -2 -11 -7 -15 -12 -4 -5 -11 -10 -19 -14 -16 -8 -30
-20 -51 -43 -60 -66 -123 -126 -139 -133 -16 -7 -19 -10 -62 -54 -45 -45 -46
-46 -58 -49 -12 -3 -13 -4 -54 -46 -49 -49 -60 -59 -73 -62 -20 -6 -143 -134
-151 -156 -3 -11 -11 -20 -53 -60 -22 -21 -27 -25 -36 -28 -22 -6 -304 -287
-308 -306 -2 -11 -4 -12 -35 -44 -30 -29 -33 -33 -34 -41 -1 -4 -4 -11 -6 -15
-8 -11 -13 -23 -12 -28 3 -12 -1 -19 -20 -39 -18 -18 -18 -18 -18 -31 0 -26
-27 -81 -50 -104 -36 -36 -36 -35 -34 -57 1 -24 0 -29 -16 -46 -13 -14 -15
-18 -15 -31 0 -13 -2 -17 -12 -28 -8 -9 -8 -9 -8 -40 0 -35 0 -35 -16 -52 -17
-19 -18 -21 -17 -53 2 -27 2 -27 -7 -43 -6 -12 -8 -17 -8 -26 0 -10 -1 -12 -9
-21 -11 -12 -9 16 -10 -179 l-1 -166 13 -25 c14 -30 67 -87 84 -92 21 -5 79 0
93 9 18 11 31 11 45 1 12 -8 20 -9 31 0 9 6 9 6 29 6 29 0 40 7 48 30 8 24 4
29 -46 70 -31 24 -34 29 -32 43 2 18 11 20 70 17 126 -7 493 -8 753 -3 100 2
183 3 266 2 l122 -2 15 8 16 8 120 0 c66 0 205 -1 309 -3 280 -4 537 -2 630 6
46 4 59 -7 54 -44 -1 -8 -2 -22 -2 -30 0 -14 -1 -16 -8 -27 -4 -7 -8 -15 -10
-19 -4 -11 -10 -16 -21 -19 -19 -5 -28 -24 -21 -42 3 -7 29 -33 34 -33 15 -2
161 1 166 2 17 7 28 23 28 42 0 12 1 14 8 24 4 6 8 12 8 14 2 14 -1 324 -2
326 -1 2 -7 8 -13 12 -18 13 -24 27 -21 55 4 43 3 60 -4 72 -5 8 -7 13 -8 24
-1 12 -2 16 -7 24 -4 5 -8 14 -10 20 -3 8 -6 15 -13 22 -9 9 -9 9 -9 34 0 25
0 25 -7 32 -8 10 -11 16 -16 35 -5 15 -16 33 -33 49 -4 4 -9 12 -11 17 -10 22
-25 51 -31 58 -4 4 -9 13 -13 20 -8 16 -20 32 -28 38 -18 14 -36 34 -40 44 -5
13 -17 31 -30 43 -7 8 -10 13 -13 22 -3 8 -6 13 -13 20 -12 11 -15 16 -19 28
-2 7 -7 15 -14 23 -7 8 -14 18 -16 24 -4 12 -8 15 -20 19 -13 4 -16 7 -20 20
-2 8 -6 14 -14 23 -8 9 -11 14 -13 22 -2 10 -4 13 -34 42 -31 30 -36 37 -36
49 0 2 -4 7 -8 13 -4 6 -10 16 -11 22 -3 9 -7 14 -30 37 -22 21 -28 29 -33 39
-8 16 -10 19 -23 23 -9 4 -10 5 -18 20 -7 15 -12 20 -62 70 -54 54 -60 59 -72
62 -11 2 -14 6 -19 20 -6 18 -27 41 -42 46 -21 7 -24 10 -43 30 -17 18 -20 21
-30 24 -14 4 -18 7 -23 20 -6 16 0 10 -132 143 -114 114 -121 120 -132 124
-14 5 -16 7 -22 22 -5 12 -9 16 -23 19 -4 1 -9 4 -12 7 -13 12 -75 78 -85 90
-18 20 -14 19 -70 20 -45 0 -50 0 -57 -4z m13 -319 c9 -6 9 -50 0 -71 -5 -10
-5 -15 -2 -23 2 -4 3 -48 3 -147 0 -94 1 -157 3 -190 4 -76 1 -80 -48 -64 -14
4 -28 8 -31 9 -12 3 -19 16 -19 37 0 13 -1 15 -16 32 -12 13 -14 15 -38 19
-17 3 -23 6 -25 14 -4 13 -8 17 -21 24 -7 4 -19 12 -26 19 -7 7 -16 15 -20 19
-4 3 -15 13 -24 22 -9 9 -22 20 -29 24 -13 8 -18 17 -16 29 2 13 5 16 27 21 3
0 10 5 17 11 7 6 14 11 20 12 4 1 10 3 13 4 5 2 83 80 125 125 23 24 25 25 35
28 12 3 23 13 37 34 11 16 23 20 35 12z m168 1 c4 -2 9 -6 10 -8 1 -3 12 -15
23 -27 26 -29 35 -40 42 -52 4 -7 10 -11 19 -17 7 -4 19 -14 27 -22 14 -15 46
-43 61 -56 16 -13 10 -26 -25 -58 -13 -12 -46 -44 -73 -71 -50 -51 -53 -55
-61 -78 -6 -17 -37 -45 -51 -45 -14 0 -19 9 -17 36 5 91 5 129 4 219 0 54 -2
112 -3 129 -4 50 11 67 44 50z m343 -347 c4 -2 12 -9 17 -16 11 -14 30 -29 42
-34 13 -5 20 -12 22 -25 3 -14 3 -14 36 -48 28 -29 29 -30 33 -48 0 -3 21 -25
54 -57 75 -73 83 -80 100 -86 33 -13 26 -59 -10 -73 -25 -9 -84 -63 -90 -82
-5 -14 -8 -17 -21 -21 -11 -3 -85 -75 -124 -120 -34 -40 -35 -40 -59 -18 -8 8
-22 18 -29 22 -11 6 -20 14 -42 38 -37 38 -39 40 -52 44 -10 4 -14 7 -54 46
-38 37 -45 43 -56 49 -19 8 -30 16 -54 38 -12 11 -25 22 -29 26 -23 16 -25 41
-4 49 20 7 26 11 57 40 12 10 14 14 17 24 5 16 22 33 35 37 14 4 18 7 25 23 9
19 41 53 59 61 16 7 17 8 25 25 10 21 30 42 46 48 15 5 19 13 24 39 5 25 13
30 32 19z m-931 -32 c2 -2 8 -10 13 -16 20 -28 40 -47 53 -50 10 -3 13 -6 49
-42 35 -36 39 -39 54 -46 14 -7 19 -11 55 -46 38 -37 51 -47 63 -50 30 -7 59
-46 44 -60 -4 -2 -18 -16 -34 -29 -17 -16 -28 -27 -28 -30 -4 -17 -6 -20 -13
-26 -9 -9 -59 -57 -111 -108 -42 -41 -43 -43 -52 -60 -8 -18 -11 -21 -43 -54
-19 -19 -50 -51 -68 -71 -49 -52 -46 -52 -94 1 -19 21 -65 69 -101 105 -37 37
-67 68 -67 70 0 9 -6 20 -16 28 -8 8 -11 11 -13 21 -3 9 -6 14 -21 29 -20 21
-22 24 -22 36 0 11 -2 15 -11 26 -11 12 -8 29 7 41 13 10 32 27 90 84 55 53
61 58 71 62 21 7 73 59 86 86 4 10 12 21 20 30 8 9 24 27 36 40 28 32 41 39
53 29z m1319 -461 c16 -7 50 -49 56 -68 3 -9 6 -13 30 -37 33 -33 35 -36 35
-53 0 -18 3 -23 34 -55 26 -25 30 -30 37 -44 5 -12 11 -20 23 -32 9 -9 18 -21
22 -28 3 -7 8 -15 11 -19 3 -4 7 -12 8 -17 2 -6 7 -17 12 -23 8 -12 12 -22 17
-42 1 -4 5 -12 9 -16 8 -9 11 -17 11 -31 0 -9 1 -11 8 -19 11 -13 12 -16 12
-55 0 -39 1 -42 12 -54 9 -9 9 -9 10 -28 3 -43 5 -42 -90 -39 -106 4 -617 4
-734 0 -127 -4 -133 -4 -139 3 -11 12 -5 26 18 46 10 9 13 13 17 23 3 10 7 15
20 27 9 9 21 20 25 25 8 8 20 14 26 14 12 0 25 15 37 42 4 7 8 14 13 17 4 3
37 35 73 70 60 61 65 65 75 68 12 3 17 8 22 22 2 5 7 13 11 18 4 5 9 13 10 18
1 4 3 10 4 11 0 2 36 39 78 82 93 93 133 136 151 158 17 21 21 23 36 16z
m-869 -6 c10 -6 14 -15 16 -37 1 -10 3 -21 4 -26 2 -7 2 -8 -4 -22 -10 -20
-10 -42 0 -62 6 -14 6 -14 4 -44 -1 -17 -2 -55 -2 -87 0 -56 0 -56 -6 -67 -11
-20 -9 -112 4 -135 12 -22 18 -69 10 -82 -7 -11 -29 -17 -48 -11 -12 3 -14 6
-54 50 -13 15 -15 17 -25 20 -10 3 -14 6 -22 14 -12 12 -23 18 -39 20 -9 1
-41 15 -56 26 -3 1 -10 5 -17 7 -7 2 -15 7 -20 12 -6 5 -11 8 -16 9 -18 3 -27
10 -31 25 -3 11 -6 13 -21 19 -37 15 -30 42 21 89 48 45 49 46 62 53 12 6 14
7 20 20 5 11 13 20 38 45 32 33 84 87 101 106 6 6 19 21 29 33 26 30 35 34 52
25z m-898 -41 c6 -5 8 -11 11 -24 1 -3 10 -15 21 -27 19 -20 21 -23 23 -34 4
-16 8 -20 157 -170 111 -111 115 -116 124 -117 12 -2 15 -4 28 -17 11 -11 50
-34 63 -37 10 -3 16 -7 26 -17 6 -5 13 -10 16 -11 8 -2 23 -9 23 -11 0 -3 15
-12 25 -14 5 -1 20 -8 32 -14 12 -7 27 -14 33 -16 30 -10 41 -17 69 -41 7 -7
12 -9 21 -11 37 -7 54 -24 46 -44 -5 -12 -9 -13 -44 -12 -63 2 -61 2 -76 -7
-13 -8 -13 -8 -47 -8 -19 0 -158 1 -310 2 -311 1 -281 0 -294 11 l-10 9 -52
-2 c-57 -1 -58 -2 -71 -15 -32 -30 -59 -10 -57 44 1 19 2 44 2 54 0 17 1 20 7
33 6 12 7 17 8 34 1 19 2 21 9 34 5 10 8 18 10 31 3 15 4 18 10 24 10 10 12
16 10 35 -2 19 0 24 11 36 4 5 9 13 10 17 1 4 5 12 7 19 4 9 5 14 5 29 -1 23
3 31 18 44 9 8 12 12 13 18 2 10 6 19 14 27 4 5 8 13 10 20 2 9 5 13 13 21 8
8 14 19 14 27 0 3 20 42 25 49 2 3 5 10 6 14 4 23 25 32 41 17z m1054 3 c4 -2
9 -7 15 -14 22 -30 72 -81 89 -90 14 -7 21 -13 52 -44 37 -36 42 -39 58 -43
13 -3 28 -22 28 -36 0 -8 -6 -16 -46 -52 -17 -16 -52 -51 -78 -78 -77 -82 -71
-77 -113 -92 -25 -9 -28 2 -25 82 3 75 2 248 -2 311 -3 50 -3 51 15 58 0 0 3
-1 7 -2z"/>
<path d="M1970 778 c-14 -1 -61 -2 -104 -1 -104 1 -93 10 -92 -74 2 -131 1
-465 -2 -513 -4 -70 -19 -62 132 -62 151 -1 135 -8 132 61 -3 75 -5 309 -2
446 3 163 9 148 -64 143z"/>
<path d="M1206 759 c-7 -7 -8 -16 -6 -89 3 -99 2 -348 0 -434 -4 -102 -4 -97
2 -103 6 -6 232 -9 246 -3 14 5 14 8 10 60 -4 45 -5 384 -2 479 3 81 2 85 -11
91 -10 5 -233 4 -239 -1z"/>
</g>
</svg>
