<?xml version="1.0" standalone="no"?>
<!DOCTYPE svg PUBLIC "-//W3C//DTD SVG 20010904//EN"
 "http://www.w3.org/TR/2001/REC-SVG-20010904/DTD/svg10.dtd">
<svg version="1.0" xmlns="http://www.w3.org/2000/svg"
 width="100.000000pt" height="98.000000pt" viewBox="0 0 100.000000 98.000000"
 preserveAspectRatio="xMidYMid meet">
<metadata>
Created by potrace 1.16, written by Peter Selinger 2001-2019
</metadata>
<g transform="translate(0.000000,98.000000) scale(0.100000,-0.100000)"
fill="#000000" stroke="none">
<path d="M368 836 c-187 -171 -239 -231 -283 -325 -32 -71 -39 -98 -43 -166
-5 -94 4 -108 65 -103 32 2 38 6 36 24 -2 21 0 21 352 29 194 4 363 4 374 0
16 -5 19 -12 14 -36 -5 -27 -3 -29 25 -29 48 0 54 17 43 110 -20 155 -96 268
-334 498 -58 56 -113 102 -121 102 -8 0 -66 -47 -128 -104z m214 -52 c10 -20
8 -29 -8 -51 -11 -15 -25 -28 -31 -30 -13 -5 -29 99 -18 116 9 16 43 -5 57
-35z m-98 -22 c6 -57 1 -92 -13 -92 -4 0 -24 18 -46 40 l-38 39 37 36 c21 19
41 35 45 35 5 0 11 -26 15 -58z m219 -105 l46 -54 -42 -41 c-24 -23 -47 -42
-53 -42 -16 0 -104 71 -104 83 0 12 90 107 101 107 4 0 27 -24 52 -53z m-304
1 c28 -23 51 -46 51 -51 0 -14 -112 -127 -126 -127 -14 0 -94 89 -94 105 0 10
100 115 111 115 3 0 29 -19 58 -42z m101 -205 c0 -95 2 -93 -69 -48 -23 14
-41 31 -41 37 0 17 91 108 102 102 4 -3 8 -44 8 -91z m328 34 c47 -78 64 -124
50 -133 -17 -11 -219 -18 -264 -10 l-37 7 98 99 c54 54 103 96 110 94 6 -3 25
-28 43 -57z m-578 -9 c26 -29 75 -68 109 -87 33 -19 61 -38 61 -43 0 -12 -288
-10 -295 2 -11 18 49 180 67 180 5 0 31 -24 58 -52z m332 25 c15 -15 28 -32
28 -38 0 -16 -55 -67 -63 -58 -9 8 -9 123 0 123 4 0 20 -12 35 -27z"/>
<path d="M397 244 c-4 -4 -7 -52 -7 -106 l0 -98 40 0 c36 0 40 2 45 33 3 17 2
64 -2 102 -8 69 -9 70 -38 73 -17 2 -34 0 -38 -4z"/>
<path d="M576 219 c-8 -40 -8 -143 0 -163 4 -11 19 -16 45 -16 l39 0 0 105 0
105 -39 0 c-35 0 -39 -3 -45 -31z"/>
</g>
</svg>
