<?xml version="1.0" standalone="no"?>
<!DOCTYPE svg PUBLIC "-//W3C//DTD SVG 20010904//EN"
 "http://www.w3.org/TR/2001/REC-SVG-20010904/DTD/svg10.dtd">
<svg version="1.0" xmlns="http://www.w3.org/2000/svg"
 width="81.000000pt" height="100.000000pt" viewBox="0 0 81.000000 100.000000"
 preserveAspectRatio="xMidYMid meet">
<metadata>
Created by potrace 1.16, written by Peter Selinger 2001-2019
</metadata>
<g transform="translate(0.000000,100.000000) scale(0.100000,-0.100000)"
fill="#000000" stroke="none">
<path d="M358 927 c-173 -153 -284 -359 -307 -570 -17 -146 -14 -302 4 -317
11 -9 18 -10 29 -1 10 9 15 54 18 189 5 193 15 239 82 386 29 63 150 224 199
264 26 21 48 7 113 -76 78 -97 105 -141 142 -228 49 -117 65 -195 71 -369 5
-146 8 -160 25 -163 32 -7 37 18 30 163 -11 253 -48 383 -152 538 -53 80 -182
217 -203 217 -8 0 -30 -15 -51 -33z"/>
<path d="M231 606 c-7 -8 -13 -54 -14 -108 l-2 -93 30 0 30 0 3 85 c2 47 0 95
-3 108 -6 25 -27 29 -44 8z"/>
<path d="M360 605 c-9 -11 -11 -41 -8 -110 3 -53 8 -98 11 -101 3 -4 18 -3 32
0 l26 7 -3 107 c-3 100 -4 107 -24 110 -11 2 -27 -4 -34 -13z"/>
<path d="M500 591 c-11 -21 -14 -142 -4 -179 5 -18 13 -22 33 -20 25 3 26 5
29 78 4 101 -4 140 -28 140 -11 0 -24 -9 -30 -19z"/>
<path d="M255 257 c-3 -7 -4 -56 -3 -108 l3 -94 30 0 30 0 0 105 0 105 -28 3
c-16 2 -29 -2 -32 -11z"/>
<path d="M450 165 c0 -113 7 -128 49 -105 19 9 21 20 21 95 0 103 -4 115 -41
115 l-29 0 0 -105z"/>
</g>
</svg>
