<?xml version="1.0" standalone="no"?>
<!DOCTYPE svg PUBLIC "-//W3C//DTD SVG 20010904//EN"
 "http://www.w3.org/TR/2001/REC-SVG-20010904/DTD/svg10.dtd">
<svg version="1.0" xmlns="http://www.w3.org/2000/svg"
 width="1216.000000pt" height="1500.000000pt" viewBox="0 0 1216.000000 1500.000000"
 preserveAspectRatio="xMidYMid meet">
<metadata>
Created by potrace 1.16, written by Peter Selinger 2001-2019
</metadata>
<g transform="translate(0.000000,1500.000000) scale(0.500000,-0.500000)"
fill="#000000" stroke="none">
<path d="M1173 2870 c-8 -3 -13 -8 -18 -19 -15 -34 -124 -148 -150 -157 -18
-6 -72 -61 -84 -85 -9 -19 -54 -65 -69 -70 -23 -8 -94 -80 -108 -110 -6 -14
-10 -17 -26 -21 -15 -4 -44 -35 -44 -47 0 -1 -4 -7 -8 -13 -4 -6 -10 -16 -12
-23 -3 -7 -8 -15 -15 -23 -6 -6 -14 -17 -17 -24 -4 -7 -11 -18 -17 -24 -7 -8
-12 -15 -14 -22 -3 -8 -7 -15 -14 -22 -13 -13 -17 -24 -17 -42 0 -23 -9 -36
-31 -47 -15 -7 -15 -7 -21 -20 -3 -7 -10 -17 -15 -22 -8 -9 -13 -18 -13 -28 0
-11 -6 -24 -17 -35 -9 -10 -11 -13 -13 -23 -1 -7 -5 -18 -8 -25 -3 -7 -7 -17
-8 -21 -1 -5 -5 -12 -9 -17 -10 -13 -39 -77 -40 -89 -1 -6 -4 -14 -8 -21 -15
-25 -23 -45 -27 -62 -2 -10 -6 -22 -9 -27 -2 -6 -6 -16 -7 -23 -3 -15 -8 -27
-18 -42 -4 -6 -10 -16 -12 -22 -2 -6 -8 -19 -14 -29 -24 -41 -30 -57 -32 -78
-2 -16 -3 -23 -9 -35 -6 -12 -8 -18 -9 -34 -1 -16 -3 -22 -9 -34 -6 -12 -8
-19 -9 -32 -1 -11 -3 -21 -7 -30 -5 -12 -6 -16 -6 -40 -1 -26 -1 -26 -8 -38
-8 -13 -8 -13 -8 -47 0 -34 0 -34 -7 -46 -11 -17 -10 -16 -10 -67 0 -52 0 -54
-12 -71 -19 -28 -18 -12 -18 -317 l0 -276 -8 -16 -9 -17 0 -85 0 -85 7 -11 c7
-11 7 -11 7 -48 0 -44 0 -45 23 -67 62 -61 155 53 110 135 -13 23 -14 27 -15
52 -2 31 1 49 9 64 l7 10 -1 275 0 274 7 21 c5 14 7 25 7 33 0 8 2 14 8 28 9
18 9 18 10 55 1 37 1 37 9 48 8 11 8 11 8 54 0 43 0 43 7 56 7 13 7 14 7 36 0
21 1 24 7 39 5 11 7 20 8 34 1 15 2 20 8 29 3 7 7 19 10 29 2 10 6 23 9 29 4
8 6 15 7 28 2 20 9 40 19 55 8 11 11 20 11 32 0 9 2 12 19 32 11 14 15 22 15
32 0 5 2 12 5 18 3 6 6 15 7 23 1 9 3 16 8 23 4 7 7 15 9 26 1 10 5 21 9 28 3
7 8 17 11 23 2 6 8 17 13 24 4 7 10 18 12 25 2 7 6 17 10 22 10 15 24 42 25
50 3 14 15 46 23 59 4 7 8 14 8 15 0 1 4 7 8 15 5 7 10 17 11 22 2 5 6 14 10
20 8 12 14 25 30 60 10 23 10 23 48 62 34 35 39 41 43 51 3 10 8 16 24 32 16
17 20 22 23 31 3 9 7 14 21 29 14 14 19 21 24 32 5 12 10 18 33 40 23 23 27
27 30 37 3 9 7 15 23 31 15 15 21 22 23 29 2 5 4 11 5 14 3 5 26 21 41 28 11
5 17 13 22 27 2 8 7 14 23 30 15 16 20 23 23 31 7 20 57 71 81 82 7 4 16 10
22 16 13 14 17 16 46 16 21 0 26 1 37 5 15 6 17 5 30 -7 6 -5 16 -12 22 -15
19 -9 63 -54 76 -78 7 -11 16 -24 27 -36 11 -12 18 -21 20 -26 5 -17 12 -23
36 -37 19 -11 25 -16 29 -29 3 -8 9 -15 24 -31 17 -17 21 -23 24 -32 3 -10 7
-15 33 -41 26 -26 30 -32 34 -42 3 -10 8 -16 22 -30 13 -14 19 -21 24 -31 4
-10 10 -18 22 -30 8 -10 17 -20 19 -24 9 -17 22 -33 52 -63 31 -31 33 -33 37
-46 2 -7 7 -17 10 -23 9 -16 25 -47 32 -63 3 -8 8 -18 12 -22 3 -4 9 -17 14
-27 4 -11 11 -25 15 -33 5 -10 8 -18 9 -27 1 -9 3 -14 8 -21 3 -5 7 -12 9 -16
4 -12 25 -52 31 -61 3 -5 8 -15 11 -24 3 -9 7 -19 10 -22 9 -13 12 -19 13 -33
1 -12 3 -16 9 -25 5 -8 7 -13 7 -18 0 -5 2 -14 5 -20 3 -7 6 -17 7 -24 3 -15
10 -29 22 -41 10 -10 14 -20 14 -32 0 -3 6 -19 14 -36 14 -28 15 -31 16 -48 1
-15 2 -20 8 -31 4 -7 7 -18 8 -25 2 -14 5 -20 13 -30 3 -4 4 -9 5 -28 1 -20 2
-23 9 -37 7 -14 7 -15 6 -32 -1 -16 -1 -18 5 -32 9 -22 9 -22 9 -64 0 -39 0
-39 8 -53 8 -14 8 -14 9 -51 1 -37 1 -37 9 -49 8 -12 8 -13 9 -33 1 -18 2 -23
7 -32 6 -11 6 -11 6 -289 l0 -278 7 -17 c14 -32 14 -76 -1 -99 -10 -15 -16
-99 -7 -118 11 -25 41 -46 65 -46 48 0 72 28 71 84 -1 32 -1 32 6 45 7 13 7
13 7 99 l0 86 -8 14 -8 14 0 280 0 280 -15 29 -15 29 0 48 c0 48 0 48 -9 66
-9 17 -9 17 -9 51 0 35 0 35 -12 56 -5 8 -5 10 -4 27 1 17 1 19 -5 35 -4 11
-7 23 -8 35 -1 15 -3 20 -9 32 -6 13 -7 16 -8 34 -1 18 -2 20 -9 31 -6 10 -7
13 -8 32 -1 20 -2 22 -10 38 -5 9 -12 23 -14 30 -3 7 -9 18 -13 25 -5 6 -11
16 -13 22 -2 7 -9 22 -16 34 -9 17 -12 25 -13 34 0 8 -3 14 -7 21 -5 8 -7 13
-8 24 -1 11 -3 17 -9 26 -3 6 -8 15 -9 19 -1 4 -5 13 -9 20 -4 7 -7 16 -8 23
-1 8 -3 15 -8 23 -10 17 -17 30 -21 42 -2 6 -8 16 -12 23 -9 13 -15 27 -24 59
-4 14 -6 17 -16 27 -8 9 -12 14 -15 23 -6 19 -22 44 -39 62 -18 19 -21 24 -24
42 -2 17 -2 17 -36 51 -20 19 -32 32 -35 39 -9 17 -19 30 -51 62 -19 19 -32
34 -33 37 0 3 -1 9 -2 15 -1 6 -4 14 -9 23 -4 7 -9 17 -10 21 -1 4 -7 13 -13
19 -7 7 -12 15 -14 22 -7 22 -79 90 -110 105 -14 7 -60 56 -65 70 -7 18 -67
79 -84 84 -12 5 -38 28 -90 82 -29 30 -44 43 -61 52 -6 2 -14 8 -18 13 -13 13
-15 14 -47 14 -16 0 -32 -1 -35 -2z"/>
<path d="M1177 1857 c-27 -1 -69 -17 -76 -29 -13 -21 -17 -45 -15 -97 3 -69 1
-433 -2 -482 -4 -59 -4 -59 66 -58 55 0 56 1 67 16 3 4 11 11 16 14 12 8 26
22 31 30 4 7 4 9 2 78 -3 94 -3 304 0 389 l2 66 -8 17 c-4 9 -9 20 -11 26 -5
13 -30 32 -42 31 -2 -1 -16 -1 -30 -1z"/>
<path d="M744 1854 c-51 -3 -82 -31 -88 -79 -2 -11 -4 -16 -10 -26 -11 -16
-11 -40 2 -58 10 -15 10 -16 10 -118 -1 -104 -2 -92 11 -111 6 -8 6 -13 -3
-25 -3 -4 -7 -12 -9 -17 -2 -6 -6 -13 -10 -17 -15 -19 -15 -28 0 -48 12 -16
10 -90 -3 -108 -17 -23 -8 -26 73 -25 69 0 73 1 88 10 5 3 13 8 17 10 15 8 14
5 12 107 -2 62 -2 141 -1 253 1 90 2 169 2 175 0 11 -2 16 -8 29 -5 10 -9 20
-11 23 -8 20 -29 28 -72 25z"/>
<path d="M1556 1819 c-33 -15 -56 -42 -56 -69 0 -4 -3 -12 -6 -19 -13 -27 -13
-49 0 -75 l9 -17 0 -92 c1 -91 1 -91 7 -106 10 -24 9 -31 -9 -54 -18 -23 -19
-41 -7 -69 7 -15 7 -15 5 -51 -3 -72 1 -75 87 -76 99 -1 100 0 96 106 -2 44
-2 131 -2 263 l1 197 -11 22 c-20 42 -22 43 -72 43 -26 0 -37 -1 -42 -3z"/>
<path d="M1374 806 c-22 -4 -22 -4 -18 -131 3 -101 2 -377 -2 -432 -4 -57 -11
-53 99 -53 114 0 107 -3 103 53 -1 17 -3 104 -4 191 -1 157 -1 159 -6 170 -5
15 -5 17 1 29 9 16 8 34 -2 51 -9 17 -9 25 0 35 18 21 16 54 -4 72 -15 14 -11
14 -86 14 -37 0 -69 1 -71 1 -2 1 -6 1 -10 0z"/>
<path d="M915 790 c-13 -1 -50 -2 -82 -2 -78 1 -73 7 -69 -75 3 -69 3 -403 0
-469 -3 -79 -14 -71 101 -71 108 0 100 -3 100 34 0 12 -1 111 -2 219 -1 197
-1 197 -6 206 -6 12 -6 15 0 27 9 16 9 47 0 59 -10 14 -10 18 0 30 23 30 8 45
-42 42z"/>
</g>
</svg>
