<?xml version="1.0" standalone="no"?>
<!DOCTYPE svg PUBLIC "-//W3C//DTD SVG 20010904//EN"
 "http://www.w3.org/TR/2001/REC-SVG-20010904/DTD/svg10.dtd">
<svg version="1.0" xmlns="http://www.w3.org/2000/svg"
 width="304.000000pt" height="376.000000pt" viewBox="0 0 304.000000 376.000000"
 preserveAspectRatio="xMidYMid meet">
<metadata>
Created by potrace 1.16, written by Peter Selinger 2001-2019
</metadata>
<g transform="translate(0.000000,376.000000) scale(0.100000,-0.100000)"
fill="#000000" stroke="none">
<path d="M1436 3553 c-24 -38 -155 -166 -216 -212 -17 -13 -44 -42 -58 -65
-42 -63 -64 -86 -103 -107 -40 -20 -116 -100 -130 -136 -5 -13 -17 -23 -27
-23 -23 0 -43 -22 -72 -80 -13 -25 -30 -55 -39 -66 -9 -12 -23 -32 -31 -44 -8
-13 -25 -35 -37 -50 -13 -16 -23 -42 -23 -59 0 -16 -7 -36 -16 -43 -45 -36
-84 -84 -84 -105 0 -13 -9 -31 -20 -40 -11 -10 -20 -25 -20 -34 0 -9 -18 -53
-40 -97 -22 -44 -40 -86 -40 -93 0 -8 -8 -27 -18 -44 -10 -16 -24 -52 -32 -80
-7 -27 -33 -88 -58 -135 -25 -47 -49 -103 -53 -125 -11 -54 -24 -109 -43 -178
-9 -32 -16 -71 -16 -87 0 -16 -4 -32 -10 -35 -5 -3 -10 -30 -10 -60 0 -30 -5
-57 -10 -60 -6 -3 -10 -39 -10 -78 0 -55 -5 -79 -20 -102 -19 -29 -20 -48 -20
-392 0 -230 -4 -364 -10 -368 -13 -8 -13 -232 0 -240 6 -3 10 -29 10 -58 0
-42 5 -56 27 -79 35 -37 71 -36 107 1 27 28 27 32 21 102 -3 41 -5 106 -5 144
11 821 11 821 38 872 7 12 12 44 12 70 0 27 4 53 9 59 5 5 11 38 14 74 9 97
31 208 55 270 12 30 22 63 22 73 0 20 21 74 45 117 24 43 33 63 55 135 20 64
37 106 59 145 28 49 61 120 61 131 0 8 7 28 16 44 9 17 37 71 62 120 24 50 65
113 91 142 51 57 88 103 111 138 24 36 52 73 95 125 49 59 75 94 95 128 9 14
30 33 48 41 17 9 32 21 32 27 0 26 145 194 166 194 8 0 19 9 26 20 9 14 24 20
51 20 21 0 47 4 57 10 31 17 108 -51 195 -171 27 -37 43 -55 94 -102 9 -9 30
-34 46 -57 17 -23 49 -63 73 -89 23 -27 42 -52 42 -56 0 -4 12 -22 28 -41 15
-18 41 -52 57 -75 17 -22 53 -67 80 -98 28 -31 64 -85 80 -121 16 -36 34 -72
40 -80 17 -23 45 -89 45 -104 0 -8 17 -45 38 -83 33 -59 65 -126 68 -143 3
-25 47 -147 56 -157 15 -19 58 -124 58 -143 0 -8 9 -40 21 -70 34 -88 44 -139
55 -265 3 -38 10 -74 15 -79 5 -6 9 -32 9 -59 0 -26 5 -58 12 -70 23 -44 28
-108 32 -452 2 -192 7 -379 11 -414 4 -41 3 -67 -4 -74 -6 -6 -11 -43 -11 -83
0 -69 2 -73 32 -99 36 -30 68 -28 106 7 17 17 22 32 22 74 0 29 5 56 10 59 6
4 10 55 10 120 0 65 -4 116 -10 120 -6 4 -10 135 -10 361 0 335 -1 357 -20
396 -14 29 -20 62 -20 109 0 37 -4 71 -10 74 -5 3 -10 30 -10 59 0 28 -4 56
-9 62 -5 5 -11 27 -14 49 -3 22 -11 60 -17 85 -6 25 -14 62 -17 83 -3 20 -9
40 -14 43 -5 3 -9 18 -9 33 0 16 -20 67 -45 114 -25 47 -57 121 -71 164 -14
43 -30 82 -35 88 -5 5 -9 15 -9 22 0 7 -18 50 -39 96 -21 45 -44 93 -50 107
-22 49 -67 119 -89 140 -12 11 -22 31 -22 45 0 15 -15 37 -45 63 -25 22 -45
44 -45 50 0 6 -24 35 -52 66 -32 33 -58 72 -66 96 -20 67 -95 162 -158 200
-44 28 -97 81 -110 110 -6 14 -30 41 -53 60 -23 19 -82 71 -130 115 -128 115
-143 125 -190 125 -36 0 -43 -4 -65 -37z"/>
<path d="M876 2306 c-30 -14 -55 -49 -56 -79 0 -10 -7 -29 -17 -43 -15 -23
-15 -28 0 -60 13 -26 17 -64 17 -157 0 -79 4 -127 11 -134 12 -12 -2 -50 -33
-95 -10 -13 -9 -21 6 -37 14 -15 17 -31 13 -73 -2 -29 -8 -63 -12 -75 -7 -23
-6 -23 78 -23 50 0 98 6 118 14 l34 14 -2 345 c-2 410 -3 419 -96 416 -18 0
-45 -6 -61 -13z"/>
<path d="M1403 2303 c-17 -9 -34 -26 -37 -39 -3 -12 -7 -191 -7 -396 l-2 -373
69 -3 c57 -2 72 0 84 15 8 10 26 25 39 33 l23 16 0 339 c0 353 -5 395 -42 415
-27 15 -90 11 -127 -7z"/>
<path d="M1930 2261 c-29 -15 -39 -30 -59 -86 -23 -65 -24 -70 -8 -97 13 -23
17 -56 17 -149 0 -75 4 -126 12 -138 10 -16 7 -26 -16 -59 -27 -39 -27 -41
-11 -78 11 -26 14 -52 9 -81 -10 -68 8 -82 111 -82 60 0 87 4 95 14 15 18 16
678 1 717 -23 60 -83 76 -151 39z"/>
<path d="M1699 993 c0 -5 -1 -176 -2 -380 -1 -243 1 -373 8 -374 53 -3 221 4
226 9 3 4 3 126 -1 272 -3 146 -2 273 2 283 6 11 3 27 -8 47 -17 27 -17 30 -1
48 22 24 22 65 -1 85 -15 14 -40 17 -120 17 -56 0 -102 -3 -103 -7z"/>
<path d="M960 978 c-1 -2 -1 -174 -1 -383 l-1 -380 118 1 119 1 -2 276 c-1
152 -4 285 -8 296 -3 10 0 30 6 44 9 20 9 33 -1 57 -10 23 -10 34 -1 43 6 6
11 19 11 29 0 16 -11 18 -120 18 -66 0 -120 -1 -120 -2z"/>
</g>
</svg>
