<?xml version="1.0" standalone="no"?>
<!DOCTYPE svg PUBLIC "-//W3C//DTD SVG 20010904//EN"
 "http://www.w3.org/TR/2001/REC-SVG-20010904/DTD/svg10.dtd">
<svg version="1.0" xmlns="http://www.w3.org/2000/svg"
 width="85.000000pt" height="100.000000pt" viewBox="0 0 85.000000 100.000000"
 preserveAspectRatio="xMidYMid meet">
<metadata>
Created by potrace 1.16, written by Peter Selinger 2001-2019
</metadata>
<g transform="translate(0.000000,100.000000) scale(0.100000,-0.100000)"
fill="#000000" stroke="none">
<path d="M235 862 c-120 -73 -161 -103 -163 -120 -6 -41 37 -25 183 68 78 50
149 90 157 90 9 0 91 -45 184 -100 172 -102 218 -119 212 -78 -2 16 -49 47
-193 129 -104 60 -197 108 -205 108 -8 0 -87 -44 -175 -97z"/>
<path d="M346 798 c-31 -36 -61 -88 -91 -159 -25 -59 -45 -112 -45 -119 0 -10
-14 -11 -54 -6 -30 3 -60 8 -68 11 -7 3 -22 -1 -33 -10 -17 -13 -18 -16 -5
-25 8 -5 40 -10 71 -10 68 0 88 -16 70 -56 -8 -17 -17 -24 -27 -20 -37 14
-121 18 -129 6 -15 -25 12 -34 119 -39 l28 -1 -7 -165 c-7 -164 -7 -165 14
-165 33 0 41 37 41 186 l0 135 48 -3 47 -3 -5 -115 c-8 -198 -8 -195 18 -198
12 -2 23 -2 23 0 1 2 4 69 8 150 6 155 15 183 49 162 14 -9 19 -37 27 -165 9
-144 11 -154 30 -154 19 0 20 7 20 150 l0 150 43 3 c49 4 47 14 47 -173 0
-109 2 -120 19 -123 10 -2 22 2 27 10 5 7 9 73 9 147 0 133 0 133 23 128 12
-3 46 -9 74 -13 44 -5 54 -4 59 10 10 26 -1 31 -84 36 l-77 5 -3 33 -3 34 85
-7 c74 -6 86 -5 86 8 0 24 -16 29 -104 36 l-81 6 -28 99 c-16 55 -41 118 -57
140 -43 64 -110 136 -125 136 -7 0 -34 -24 -59 -52z m85 -113 c1 -44 2 -108 1
-143 -2 -60 -3 -63 -24 -60 -23 3 -23 6 -23 138 0 147 7 183 29 159 9 -9 15
-43 17 -94z m-98 -135 c-8 -50 -11 -55 -33 -55 -23 0 -25 4 -24 40 1 22 14 67
30 100 l28 60 4 -45 c1 -25 -1 -70 -5 -100z m176 103 c24 -59 49 -168 41 -177
-5 -5 -20 -6 -33 -2 -29 7 -37 36 -37 137 0 73 10 87 29 42z m-184 -223 c0
-38 -16 -47 -61 -36 -18 5 -24 13 -24 35 0 37 7 43 50 39 33 -3 35 -5 35 -38z
m110 -10 c0 -30 -4 -35 -26 -38 -20 -2 -28 2 -32 17 -10 39 3 62 32 59 22 -3
26 -8 26 -38z m126 20 c12 -7 19 -21 19 -41 0 -29 -1 -30 -42 -27 -42 3 -43 4
-46 41 -3 34 -1 37 23 37 14 0 35 -5 46 -10z"/>
</g>
</svg>
