<?xml version="1.0" standalone="no"?>
<!DOCTYPE svg PUBLIC "-//W3C//DTD SVG 20010904//EN"
 "http://www.w3.org/TR/2001/REC-SVG-20010904/DTD/svg10.dtd">
<svg version="1.0" xmlns="http://www.w3.org/2000/svg"
 width="1282.000000pt" height="1500.000000pt" viewBox="0 0 1282.000000 1500.000000"
 preserveAspectRatio="xMidYMid meet">
<metadata>
Created by potrace 1.16, written by Peter Selinger 2001-2019
</metadata>
<g transform="translate(0.000000,1500.000000) scale(0.500000,-0.500000)"
fill="#000000" stroke="none">
<path d="M1213 2870 c-3 -1 -10 -6 -15 -11 -5 -5 -12 -10 -16 -12 -3 -2 -12
-7 -19 -12 -7 -5 -17 -10 -23 -12 -7 -2 -14 -7 -23 -15 -12 -12 -23 -18 -45
-25 -6 -2 -14 -7 -21 -13 -11 -10 -32 -23 -60 -37 -11 -6 -23 -14 -30 -21 -10
-9 -15 -12 -29 -17 -18 -5 -21 -7 -41 -23 -7 -6 -26 -17 -43 -26 -21 -11 -34
-20 -41 -26 -8 -8 -13 -11 -26 -15 -16 -5 -27 -12 -44 -26 -5 -5 -17 -12 -24
-16 -8 -4 -18 -9 -21 -12 -4 -2 -11 -6 -17 -8 -5 -2 -13 -7 -19 -13 -5 -5 -12
-10 -16 -12 -16 -5 -45 -22 -54 -29 -6 -5 -14 -11 -19 -13 -5 -2 -14 -7 -19
-11 -5 -4 -15 -9 -21 -11 -8 -3 -15 -7 -23 -15 -8 -8 -17 -12 -35 -21 -18 -8
-28 -14 -37 -21 -7 -6 -14 -11 -16 -12 -3 -1 -11 -5 -18 -10 -7 -5 -18 -10
-23 -12 -7 -2 -17 -9 -27 -17 -13 -11 -18 -14 -35 -19 -16 -6 -22 -9 -32 -17
-7 -6 -15 -12 -19 -14 -26 -10 -29 -18 -31 -60 -2 -52 0 -55 54 -53 55 2 54 2
67 15 7 6 17 13 23 16 20 10 57 34 68 44 9 9 15 12 34 18 10 3 16 7 26 16 8 8
19 15 31 21 24 11 46 25 58 36 6 5 12 10 14 11 3 1 13 5 23 8 14 6 20 9 30 19
10 9 17 14 26 17 6 2 16 7 21 11 5 3 13 9 18 11 5 3 14 9 19 14 6 5 14 11 18
12 18 6 42 19 52 28 6 6 14 11 20 14 6 2 14 6 19 10 4 3 13 9 20 12 7 3 18 10
23 15 12 10 31 21 48 27 8 3 16 8 22 14 6 5 15 12 20 14 6 2 13 6 16 9 3 2 12
8 20 12 8 3 20 11 27 17 17 14 26 19 43 24 10 4 16 7 25 15 7 7 20 15 33 22
27 14 45 26 58 38 26 23 49 24 77 6 10 -7 23 -14 28 -16 14 -5 36 -17 50 -29
7 -6 16 -12 21 -14 5 -2 15 -8 22 -13 7 -5 14 -9 15 -9 8 0 34 -14 48 -25 8
-7 19 -14 25 -17 6 -2 16 -8 22 -12 6 -4 18 -11 26 -14 24 -9 50 -23 75 -42
17 -13 26 -18 40 -23 9 -4 21 -9 25 -11 4 -3 11 -7 16 -9 4 -2 11 -7 17 -12 5
-4 12 -9 17 -11 4 -3 12 -7 17 -11 6 -4 14 -8 19 -10 19 -7 39 -17 52 -28 7
-6 18 -14 25 -17 7 -3 16 -8 19 -10 8 -7 12 -9 32 -16 12 -5 20 -9 28 -16 14
-13 20 -17 31 -21 5 -2 14 -7 21 -12 7 -5 18 -10 26 -13 19 -6 23 -9 35 -20 6
-6 17 -13 28 -18 9 -5 22 -12 29 -16 7 -4 18 -10 25 -12 15 -5 41 -19 54 -30
5 -4 14 -10 19 -13 6 -3 15 -9 20 -12 6 -4 16 -9 24 -12 17 -6 24 -11 43 -26
8 -6 19 -14 25 -16 6 -3 14 -7 17 -11 12 -10 15 -11 57 -12 62 -3 60 -4 60 52
0 52 -2 55 -38 66 -16 5 -21 7 -29 15 -6 5 -19 13 -34 21 -14 7 -28 14 -32 17
-4 3 -14 7 -22 10 -11 4 -17 7 -24 14 -6 7 -15 12 -32 20 -13 6 -28 15 -35 19
-7 4 -19 10 -26 13 -20 6 -25 9 -41 23 -8 7 -20 15 -27 18 -7 3 -17 9 -23 13
-6 4 -16 9 -23 11 -17 5 -19 7 -35 20 -8 6 -21 15 -30 20 -10 4 -22 11 -29 15
-7 4 -18 9 -25 11 -10 3 -15 7 -24 15 -7 7 -18 14 -32 21 -12 6 -26 13 -32 17
-7 4 -17 9 -23 11 -8 3 -15 7 -22 14 -7 6 -19 14 -38 24 -16 7 -32 16 -36 19
-4 2 -12 6 -17 8 -7 2 -13 6 -18 11 -5 5 -18 13 -37 23 -17 9 -34 18 -39 21
-5 3 -17 9 -27 12 -14 5 -19 8 -29 16 -13 13 -72 46 -90 51 -8 2 -13 5 -20 12
-6 6 -18 14 -34 22 -14 8 -30 17 -36 20 -6 4 -16 9 -22 11 -9 3 -14 7 -18 12
-4 5 -11 11 -20 15 -7 3 -16 8 -19 11 -11 8 -67 12 -86 6z"/>
<path d="M1188 2560 c-6 -2 -12 -6 -23 -16 -14 -14 -17 -18 -28 -42 -1 -3 -25
-28 -53 -56 -33 -33 -53 -55 -56 -60 -3 -5 -7 -13 -10 -18 -4 -4 -8 -14 -11
-21 -3 -9 -8 -17 -15 -24 -6 -7 -13 -18 -17 -26 -4 -7 -12 -18 -17 -23 -16
-16 -28 -31 -34 -43 -3 -7 -9 -15 -15 -20 -6 -6 -10 -12 -12 -19 -2 -6 -7 -17
-12 -25 -11 -18 -17 -33 -17 -44 0 -6 -2 -11 -6 -18 -3 -5 -8 -15 -11 -21 -2
-6 -7 -15 -9 -18 -12 -16 -22 -42 -23 -60 0 -13 -2 -20 -6 -29 -2 -6 -5 -14
-6 -18 0 -3 -1 -9 -2 -14 -1 -5 -4 -11 -14 -21 -11 -12 -24 -34 -28 -46 -1 -3
-5 -10 -8 -15 -4 -6 -9 -16 -11 -23 -3 -7 -8 -17 -12 -22 -5 -8 -7 -14 -8 -23
-1 -13 -5 -21 -12 -26 -7 -4 -11 -13 -15 -30 -2 -13 -4 -19 -10 -27 -7 -11 -8
-11 -8 -33 0 -10 -2 -19 -7 -35 -10 -28 -18 -55 -18 -62 0 -3 -4 -13 -9 -23
-8 -16 -9 -19 -8 -27 3 -23 -6 -31 -27 -23 -16 5 -22 5 -110 8 -29 1 -29 1
-40 8 -17 10 -25 11 -96 11 -68 0 -70 0 -79 10 -8 9 -12 10 -65 10 -66 1 -71
-1 -73 -39 -3 -33 6 -40 53 -40 33 0 33 0 49 -8 17 -7 17 -7 87 -7 l69 0 15
-7 c16 -9 59 -10 126 -5 56 5 65 -7 62 -82 -1 -43 -1 -43 -7 -51 -9 -12 -9
-13 -9 -59 0 -55 0 -55 -38 -53 -14 1 -44 2 -68 3 -47 2 -50 2 -65 12 -13 8
-12 8 -85 9 l-64 0 -17 9 c-18 9 -18 9 -66 11 -63 2 -65 1 -67 -38 -1 -41 5
-46 58 -42 23 1 23 1 34 -6 14 -9 16 -9 97 -9 71 1 71 1 78 -5 16 -13 14 -13
115 -7 60 4 75 -3 64 -31 -2 -6 -4 -18 -5 -28 -2 -16 -3 -20 -9 -27 -10 -14
-10 -2 -10 -380 0 -395 1 -358 -13 -377 -7 -11 -9 -23 -9 -80 -1 -70 -5 -67
67 -67 72 0 70 -1 70 55 0 36 0 36 7 49 5 10 7 15 7 24 -5 279 -4 714 1 722 4
7 5 13 6 31 1 22 2 23 9 35 7 11 8 15 9 27 1 16 3 19 17 29 10 8 19 8 27 0 13
-10 12 -10 87 -11 l70 -1 17 -8 c16 -9 16 -9 43 -7 52 4 48 10 47 -86 0 -90
-1 -99 -7 -108 -14 -19 -13 4 -13 -213 l0 -194 -8 -16 c-8 -15 -8 -15 -7 -39
2 -30 -2 -211 -5 -236 -5 -47 2 -53 71 -53 69 -1 64 -7 63 79 -2 133 -2 133 7
145 l8 11 0 196 0 196 7 13 c8 14 9 100 4 224 -3 72 -5 71 64 69 45 -2 45 -2
58 -8 12 -7 12 -7 46 -7 52 1 52 2 48 -70 l-2 -50 8 -16 9 -16 0 -251 0 -250
6 -10 c4 -5 7 -13 8 -16 3 -7 1 -128 -3 -205 -3 -64 -6 -61 66 -61 76 0 70 -7
66 82 -1 30 -2 108 -3 174 -1 121 -1 121 -7 135 -6 15 -6 15 -7 237 -2 293 -1
260 -7 271 -14 23 -7 29 31 28 67 -1 84 -3 92 -8 16 -10 19 -11 82 -9 89 3 81
3 91 -4 19 -14 19 -13 16 -107 l-2 -81 6 -16 c11 -24 11 -181 1 -205 -7 -15
-7 -15 -8 -180 0 -91 -2 -188 -3 -215 -4 -75 -5 -73 63 -75 74 -2 72 -4 69 81
-1 29 -2 111 -2 183 l-1 131 9 13 c4 7 8 15 8 18 0 3 0 72 0 155 0 164 0 155
-12 170 -7 8 -13 74 -9 101 3 19 23 27 40 15 20 -13 20 -14 93 -16 82 -2 72 0
95 -19 0 -1 33 -1 73 -2 73 -1 73 -1 89 -8 56 -26 100 -10 99 35 -2 34 -7 39
-41 41 -15 1 -25 3 -30 5 -7 3 -14 4 -81 4 l-73 0 -15 8 -15 8 -54 -1 c-88 -2
-84 -2 -100 5 -13 5 -16 5 -38 5 -41 0 -42 1 -42 49 0 34 0 34 -6 47 -6 10 -7
14 -7 25 0 10 -1 16 -7 30 -8 20 -11 73 -4 86 8 16 72 15 102 -1 l16 -9 68 -1
68 -1 16 -9 c19 -10 19 -10 102 -11 54 0 54 0 67 -7 19 -10 47 -12 62 -4 17 9
16 59 -2 75 -16 13 -25 14 -106 13 -72 0 -72 0 -83 6 -15 11 -13 10 -92 10
l-74 0 -12 8 c-14 10 -7 9 -98 4 -50 -3 -53 -2 -56 25 -1 8 -4 17 -8 25 -7 12
-7 14 -6 25 2 17 -1 26 -14 39 -14 14 -15 18 -15 41 0 19 -2 25 -12 33 -10 7
-16 23 -16 39 0 13 -1 17 -7 29 -4 8 -7 16 -7 18 0 8 -7 27 -13 36 -6 9 -6 9
-6 34 0 24 -1 26 -7 40 -6 13 -7 15 -7 37 0 22 0 25 -6 36 -4 10 -6 16 -7 31
-1 18 -2 20 -8 30 -10 14 -10 17 -11 38 0 24 -12 46 -40 74 -20 22 -20 22 -29
45 -3 9 -8 20 -11 24 -3 4 -7 12 -9 18 -5 12 -10 18 -27 36 -10 9 -15 16 -18
23 -3 10 -21 31 -34 42 -9 8 -11 12 -14 28 -4 21 -7 26 -34 51 -39 39 -42 42
-47 55 -4 11 -8 16 -47 55 -48 48 -60 61 -63 73 -2 7 -8 15 -35 41 -17 18 -32
34 -33 35 -3 10 -55 16 -82 10z m44 -171 c8 -3 78 -75 82 -83 2 -4 2 -38 2
-163 l-1 -158 8 -13 c8 -13 8 -13 7 -58 -3 -144 0 -429 4 -442 10 -29 0 -41
-23 -29 -13 7 -42 9 -107 7 -70 -1 -65 -8 -64 86 0 77 -1 71 13 90 7 10 6 -16
5 227 l0 175 7 12 7 12 -2 138 -2 139 10 21 c17 39 32 50 54 39z m-180 -218
c6 -8 5 -21 -2 -34 -4 -9 -6 -14 -7 -28 -2 -34 -5 -156 -7 -261 -1 -105 -1
-105 -8 -119 l-7 -14 2 -117 c1 -116 1 -118 -3 -123 -9 -11 -28 -11 -49 2 -15
9 -20 10 -90 9 -58 -1 -60 -1 -74 3 -9 3 -18 5 -21 5 -27 0 -27 31 1 39 18 5
18 3 19 69 l1 57 9 17 c6 9 12 23 15 31 3 7 8 17 12 21 4 5 8 12 9 16 1 4 8
18 14 31 10 19 13 27 14 38 1 10 3 16 8 22 3 5 8 14 10 20 3 6 8 15 12 20 12
13 12 14 14 28 1 10 3 16 8 23 7 10 7 12 8 34 1 24 1 24 9 33 17 20 31 48 33
66 2 13 3 17 9 26 4 5 9 16 11 24 4 17 7 22 14 30 3 4 7 12 9 17 6 21 17 27
27 15z m401 -45 c10 -4 15 -10 19 -24 4 -11 6 -16 22 -33 13 -14 19 -22 21
-29 1 -5 6 -17 11 -26 5 -10 13 -25 17 -34 4 -9 13 -22 19 -29 14 -15 14 -17
14 -47 0 -29 0 -31 14 -45 9 -9 10 -11 11 -23 1 -9 4 -17 10 -28 8 -15 8 -15
9 -43 1 -28 1 -28 8 -39 7 -11 7 -11 6 -32 0 -18 1 -24 4 -33 2 -7 5 -18 7
-25 2 -6 7 -19 11 -28 4 -9 8 -19 8 -22 0 -9 4 -21 11 -32 4 -7 7 -15 8 -21 1
-5 4 -17 7 -25 3 -8 6 -18 7 -22 1 -6 5 -12 16 -24 19 -21 22 -28 15 -47 -7
-16 -43 -17 -63 -2 -12 10 -35 12 -108 10 -52 -2 -57 -1 -77 12 -16 12 -17 12
-16 66 1 46 1 46 -7 59 l-8 13 -1 184 c-1 101 -3 212 -4 246 l-2 62 -9 17
c-17 33 -7 54 20 44z m-681 -692 c16 -11 15 -11 89 -12 70 -1 70 -1 82 -8 13
-8 13 -8 38 -8 43 0 46 -3 44 -49 -2 -29 -2 -31 -8 -38 -11 -15 -12 -16 -11
-86 1 -77 3 -74 -31 -73 -19 1 -21 1 -29 7 -20 14 -12 13 -88 13 -68 0 -70 0
-87 5 -9 3 -22 5 -29 5 -31 0 -42 47 -22 95 6 16 6 16 6 62 -1 46 -1 46 5 56
4 6 9 15 11 21 6 18 15 20 30 10z m503 -47 c15 -6 27 -9 42 -9 13 0 21 -4 25
-11 3 -8 3 -218 -1 -225 -8 -15 -26 -17 -57 -6 -19 7 -19 7 -81 7 -56 0 -63 0
-68 4 -15 9 -17 36 -4 57 l8 13 0 79 c0 86 0 89 11 95 10 6 110 3 125 -4z
m291 -29 c56 -1 57 -1 71 -7 18 -7 24 -8 53 -5 37 3 48 -2 61 -29 6 -13 6 -15
5 -73 -1 -38 -1 -36 12 -58 3 -4 5 -12 6 -24 2 -14 3 -20 9 -31 10 -20 8 -31
-8 -34 -22 -4 -122 3 -134 10 -19 10 -59 12 -151 7 -27 -2 -26 -8 -26 122 0
134 -2 127 32 125 7 -1 39 -2 70 -3z"/>
</g>
</svg>
