<?xml version="1.0" standalone="no"?>
<!DOCTYPE svg PUBLIC "-//W3C//DTD SVG 20010904//EN"
 "http://www.w3.org/TR/2001/REC-SVG-20010904/DTD/svg10.dtd">
<svg version="1.0" xmlns="http://www.w3.org/2000/svg"
 width="320.000000pt" height="376.000000pt" viewBox="0 0 320.000000 376.000000"
 preserveAspectRatio="xMidYMid meet">
<metadata>
Created by potrace 1.16, written by Peter Selinger 2001-2019
</metadata>
<g transform="translate(0.000000,376.000000) scale(0.100000,-0.100000)"
fill="#000000" stroke="none">
<path d="M1497 3577 c-2 -7 -25 -23 -51 -35 -25 -13 -48 -28 -52 -33 -3 -6
-25 -19 -48 -30 -22 -11 -68 -37 -101 -59 -33 -22 -73 -46 -90 -55 -16 -8 -57
-33 -90 -55 -33 -21 -78 -49 -100 -60 -22 -11 -67 -38 -100 -60 -33 -22 -69
-44 -81 -49 -11 -5 -41 -23 -66 -40 -25 -17 -49 -31 -53 -31 -3 0 -21 -11 -39
-25 -18 -14 -36 -25 -41 -25 -4 0 -32 -16 -61 -35 -29 -19 -57 -35 -62 -35 -5
0 -17 -9 -26 -19 -10 -11 -28 -22 -41 -25 -13 -3 -42 -18 -64 -33 -42 -27 -42
-27 -39 -83 l3 -55 63 3 c37 2 71 10 80 18 26 22 124 85 148 94 12 5 52 29 89
55 37 25 81 52 99 59 17 7 37 20 45 29 7 10 19 17 26 17 6 0 31 14 55 31 24
17 57 38 74 45 17 8 58 32 91 54 33 22 71 46 85 53 14 7 44 25 67 40 24 15 45
27 49 27 3 0 19 11 36 25 16 14 36 25 43 25 7 0 26 10 42 23 15 12 44 31 63
41 19 11 48 30 63 43 35 28 58 29 82 3 10 -11 23 -20 29 -20 7 0 43 -20 81
-45 39 -25 75 -45 82 -45 6 0 24 -10 40 -23 15 -13 51 -34 78 -47 28 -13 73
-38 101 -57 28 -18 55 -33 59 -33 4 0 36 -18 71 -40 35 -22 67 -40 72 -40 4 0
39 -20 77 -45 39 -25 74 -45 78 -45 5 0 23 -10 40 -23 18 -13 50 -32 72 -42
22 -11 47 -25 55 -31 8 -7 49 -30 90 -51 41 -22 100 -55 130 -73 30 -17 60
-35 66 -39 6 -3 29 -18 50 -32 25 -17 58 -28 92 -31 69 -7 85 7 78 69 -6 52
-2 47 -46 67 -44 19 -141 73 -200 111 -24 15 -68 38 -96 51 -29 13 -55 27 -58
33 -4 5 -28 20 -54 33 -26 12 -61 33 -78 45 -16 12 -51 32 -77 43 -25 11 -49
25 -52 30 -3 6 -35 24 -71 41 -35 17 -66 35 -69 39 -3 4 -33 22 -67 40 -35 18
-70 38 -78 45 -8 6 -44 26 -79 43 -35 18 -70 37 -78 44 -8 6 -40 25 -72 42
-99 53 -195 109 -227 133 -35 26 -128 33 -137 10z"/>
<path d="M1485 3201 c-20 -4 -36 -18 -50 -41 -11 -19 -51 -65 -88 -102 -38
-38 -77 -87 -88 -111 -22 -45 -43 -77 -100 -147 -34 -41 -79 -126 -79 -148 0
-5 -13 -35 -29 -68 -16 -32 -32 -80 -35 -106 -4 -26 -16 -59 -28 -73 -24 -31
-88 -155 -88 -171 0 -6 -7 -17 -15 -24 -8 -7 -15 -23 -15 -36 0 -12 -5 -26
-10 -29 -5 -3 -10 -15 -10 -27 0 -11 -12 -59 -27 -107 -15 -47 -27 -97 -28
-111 0 -19 -4 -24 -20 -21 -11 2 -61 6 -111 10 -51 3 -98 12 -107 19 -10 9
-44 12 -107 11 -57 -1 -96 3 -103 10 -6 6 -42 11 -79 11 -64 0 -69 -2 -80 -26
-18 -40 0 -58 58 -62 27 -1 58 -7 69 -12 21 -10 156 -20 316 -23 122 -3 129
-8 129 -96 0 -39 -5 -72 -12 -79 -6 -6 -12 -40 -12 -74 l-1 -63 -100 4 c-55 2
-108 7 -117 12 -9 5 -57 9 -105 9 -49 0 -93 4 -98 9 -6 5 -42 11 -81 15 -77 6
-84 2 -84 -48 0 -35 18 -46 65 -39 26 3 45 1 49 -6 5 -7 43 -11 102 -11 56 0
104 -5 117 -12 14 -8 56 -11 115 -9 114 3 123 -2 108 -63 -7 -25 -15 -48 -19
-52 -4 -4 -7 -214 -7 -466 0 -397 -2 -462 -15 -482 -12 -17 -15 -44 -13 -97
l3 -74 78 -3 c57 -2 77 0 78 10 9 84 11 179 15 578 4 456 8 522 33 568 6 12 9
27 6 32 -3 5 5 16 17 24 20 14 25 14 45 1 15 -10 50 -15 112 -15 56 0 92 -4
97 -11 4 -8 25 -9 60 -5 37 4 54 2 57 -7 7 -21 -5 -242 -14 -251 -5 -6 -9
-123 -9 -261 0 -147 -4 -255 -10 -261 -12 -12 -15 -383 -2 -396 5 -5 40 -8 78
-6 l69 3 -4 127 c-3 94 0 132 9 143 10 12 14 82 16 268 7 465 11 604 18 616 9
14 111 13 141 -2 11 -6 45 -11 75 -11 l55 -1 -3 -81 c-3 -52 0 -84 7 -88 8 -5
11 -105 11 -322 0 -233 3 -322 13 -342 9 -20 11 -67 7 -177 -3 -82 -2 -154 2
-159 11 -14 136 -16 145 -2 5 6 5 119 0 251 -4 132 -11 380 -16 550 -4 171 -9
319 -12 330 -4 19 1 20 71 17 41 -1 88 -7 103 -13 18 -8 58 -10 116 -5 73 5
90 4 101 -9 20 -24 24 -305 12 -780 -5 -181 -4 -295 2 -303 6 -9 30 -12 75
-10 l66 3 1 248 c1 171 5 252 13 260 18 18 15 396 -4 421 -21 27 -20 139 0
156 12 10 20 9 42 -5 20 -13 51 -19 120 -21 52 -1 99 -7 106 -12 11 -9 62 -14
267 -24 l55 -3 0 40 c0 38 -1 40 -40 48 -42 9 -150 19 -394 36 -80 6 -151 13
-158 15 -9 4 -13 21 -12 53 0 27 -4 68 -11 93 -7 25 -13 72 -14 105 l-1 60 54
-1 c29 -1 63 -7 75 -13 11 -6 62 -13 111 -15 50 -3 137 -10 195 -16 204 -19
195 -20 198 19 2 18 -2 39 -8 45 -10 10 -98 18 -344 32 -55 3 -107 11 -117 18
-12 8 -41 10 -96 5 -43 -4 -81 -5 -85 -2 -10 5 -28 72 -28 104 0 14 -9 34 -20
44 -12 11 -20 31 -20 50 0 18 -8 39 -19 49 -11 10 -16 25 -14 40 3 13 0 27 -6
30 -6 4 -11 16 -11 27 0 11 -7 31 -16 44 -9 14 -14 35 -11 47 3 12 1 31 -5 42
-6 12 -13 37 -14 56 -6 69 -16 120 -25 126 -5 3 -9 19 -9 35 0 30 -20 69 -54
102 -10 11 -29 42 -42 71 -13 29 -35 63 -49 76 -14 13 -25 29 -25 35 0 6 -13
24 -30 40 -16 16 -30 38 -30 50 0 12 -21 42 -50 70 -27 27 -50 54 -50 60 0 6
-25 35 -56 65 -31 30 -64 67 -73 81 -9 14 -34 46 -56 71 -42 47 -76 60 -130
49z m103 -262 l54 -60 -3 -198 c-3 -141 -1 -202 8 -212 14 -17 23 -679 10
-679 -5 0 -18 5 -29 11 -12 6 -63 11 -114 10 -111 -1 -107 -6 -92 129 5 52 12
208 14 345 3 158 8 258 15 272 8 15 10 77 7 195 -5 173 -2 189 31 231 23 28
43 20 99 -44z m-270 -228 c2 -12 -2 -36 -8 -51 -13 -30 -32 -405 -34 -665 -1
-157 -1 -160 -23 -163 -12 -2 -32 4 -46 12 -18 12 -49 16 -136 14 -119 -1
-145 7 -125 40 6 9 21 18 33 20 19 3 21 9 21 81 0 72 3 83 45 163 25 48 45 94
45 102 0 9 12 35 27 59 32 48 53 102 53 134 0 12 11 39 25 59 14 20 25 44 25
53 0 18 25 91 39 119 5 9 12 25 15 35 8 26 40 17 44 -12z m510 -53 c7 -7 12
-20 12 -29 0 -9 7 -22 15 -29 9 -7 31 -45 49 -84 18 -39 40 -77 49 -84 11 -10
14 -23 10 -48 -4 -25 -1 -40 13 -55 24 -26 44 -85 44 -131 0 -20 5 -40 10 -43
6 -3 10 -22 10 -41 0 -19 12 -67 26 -107 14 -39 32 -92 41 -117 8 -25 24 -55
35 -67 11 -12 18 -31 16 -45 -2 -18 -10 -24 -39 -26 -23 -2 -40 2 -49 12 -10
13 -34 16 -112 16 -134 0 -140 4 -137 90 1 38 -3 75 -9 82 -7 9 -12 119 -14
318 -3 267 -5 309 -20 337 -10 17 -15 39 -12 47 7 19 45 21 62 4z m-863 -868
c3 -5 48 -10 99 -10 50 0 96 -4 101 -9 6 -6 33 -11 60 -13 l50 -3 3 -42 c2
-27 -3 -51 -13 -67 -13 -20 -16 -44 -14 -108 l4 -83 -40 2 c-129 8 -274 22
-300 30 -33 11 -32 -3 -21 180 5 83 22 133 46 133 10 0 22 -4 25 -10z m669
-67 l40 -8 -1 -150 0 -150 -39 3 c-21 2 -79 4 -129 5 -49 2 -96 6 -102 10 -18
11 -16 48 3 76 14 19 16 41 11 122 -4 77 -2 101 8 107 15 8 146 -1 209 -15z
m469 -37 c74 -3 86 -19 87 -105 0 -66 11 -113 36 -165 11 -21 12 -32 4 -40
-14 -14 -165 -8 -197 9 -18 10 -51 12 -119 8 l-94 -6 0 156 c0 93 4 157 10
159 5 2 56 -1 112 -5 57 -4 129 -9 161 -11z"/>
</g>
</svg>
