<?xml version="1.0" standalone="no"?>
<!DOCTYPE svg PUBLIC "-//W3C//DTD SVG 20010904//EN"
 "http://www.w3.org/TR/2001/REC-SVG-20010904/DTD/svg10.dtd">
<svg version="1.0" xmlns="http://www.w3.org/2000/svg"
 width="432.000000pt" height="702.000000pt" viewBox="0 0 432.000000 702.000000"
 preserveAspectRatio="xMidYMid meet">
<metadata>
Created by potrace 1.16, written by Peter Selinger 2001-2019
</metadata>
<g transform="translate(0.000000,702.000000) scale(0.500000,-0.500000)"
fill="#000000" stroke="none">
<path d="M418 1346 c-32 -9 -32 -40 0 -74 20 -22 65 -72 91 -100 11 -12 22
-24 24 -27 27 -27 28 -34 14 -51 -6 -7 -17 -20 -24 -28 -38 -46 -44 -52 -49
-52 -5 0 -17 13 -63 74 -4 6 -11 14 -14 18 -3 4 -10 12 -14 18 -4 6 -13 17
-19 24 -16 19 -23 28 -42 54 -37 50 -52 58 -76 46 -25 -13 -23 -39 7 -75 10
-11 25 -29 34 -40 9 -11 21 -25 26 -31 6 -6 15 -18 21 -25 6 -7 14 -18 19 -23
8 -9 25 -30 37 -45 4 -5 12 -15 19 -23 21 -25 21 -26 7 -44 -5 -7 -17 -23 -26
-36 -39 -53 -54 -72 -69 -93 -9 -12 -21 -28 -26 -36 -6 -7 -13 -17 -16 -22 -3
-4 -15 -20 -26 -35 -10 -16 -20 -28 -21 -29 -3 -2 -12 -21 -23 -47 -5 -11 -12
-28 -16 -36 -6 -13 -20 -47 -34 -80 -3 -7 -7 -17 -10 -23 -2 -7 -9 -23 -15
-37 -6 -14 -13 -32 -17 -40 -4 -8 -12 -28 -19 -43 l-12 -28 -1 -115 c-2 -205
-2 -201 2 -209 8 -15 29 -21 46 -13 21 10 22 13 20 162 -2 152 -14 132 76 132
90 0 78 21 76 -135 -1 -70 -1 -131 -1 -134 1 -22 27 -36 49 -25 21 10 22 13
20 162 -2 152 -15 132 82 132 93 0 94 -2 79 -137 -11 -107 -1 -157 31 -157 32
0 38 16 37 102 0 100 2 188 6 190 6 4 135 2 139 -1 3 -4 4 -12 2 -126 -1 -157
1 -166 42 -160 27 4 26 0 25 168 -2 150 -2 153 -13 177 -4 8 -10 21 -12 28 -3
7 -8 22 -12 32 -3 10 -11 33 -18 50 -6 17 -13 39 -17 48 -3 9 -9 26 -13 36
-37 104 -53 146 -69 170 -4 7 -10 17 -13 22 -2 5 -12 21 -20 35 -19 30 -30 48
-50 81 -18 31 -24 39 -37 53 -25 28 -27 33 -13 49 14 16 29 33 42 48 7 8 19
21 27 31 8 10 25 28 37 42 12 13 25 30 29 36 6 13 10 17 35 36 59 45 57 58
-17 122 -10 9 -25 22 -33 29 -22 20 -38 25 -52 14 -18 -15 -6 -40 34 -70 5 -3
10 -8 13 -11 3 -3 10 -9 16 -14 14 -11 17 -17 10 -24 -11 -12 -38 -35 -43 -36
-4 -1 -9 -4 -13 -6 -9 -6 -14 -5 -20 4 -3 3 -10 12 -17 19 -15 17 -34 40 -54
63 -78 93 -81 96 -105 89z m64 -451 c14 -15 21 -25 48 -76 6 -10 16 -28 23
-40 8 -12 17 -28 21 -35 4 -7 12 -22 18 -32 20 -33 32 -63 71 -170 4 -10 11
-29 16 -41 5 -12 11 -28 14 -35 2 -7 7 -20 11 -29 15 -38 19 -50 16 -54 -4 -5
-538 -5 -543 0 -4 4 -4 3 4 21 4 8 13 29 20 45 20 44 37 82 43 97 3 7 11 24
17 38 6 14 13 29 15 34 9 22 21 43 43 74 36 51 39 56 50 70 9 13 37 52 69 99
30 44 32 46 44 34z"/>
</g>
</svg>
