<?xml version="1.0" standalone="no"?>
<!DOCTYPE svg PUBLIC "-//W3C//DTD SVG 20010904//EN"
 "http://www.w3.org/TR/2001/REC-SVG-20010904/DTD/svg10.dtd">
<svg version="1.0" xmlns="http://www.w3.org/2000/svg"
 width="63.000000pt" height="100.000000pt" viewBox="0 0 63.000000 100.000000"
 preserveAspectRatio="xMidYMid meet">
<metadata>
Created by potrace 1.16, written by Peter Selinger 2001-2019
</metadata>
<g transform="translate(0.000000,100.000000) scale(0.100000,-0.100000)"
fill="#000000" stroke="none">
<path d="M291 946 c-12 -15 22 -68 78 -120 17 -17 31 -35 31 -42 0 -13 -38
-64 -49 -64 -4 0 -37 39 -74 86 -46 57 -73 84 -85 82 -36 -7 -24 -43 39 -114
33 -38 65 -76 69 -85 7 -11 -8 -37 -51 -95 -60 -78 -142 -235 -173 -327 -18
-53 -22 -232 -6 -257 7 -12 13 -12 27 -4 15 9 19 28 21 106 l3 96 28 5 c15 3
38 3 50 0 20 -5 21 -12 21 -97 0 -101 9 -127 37 -110 15 9 19 28 21 107 3 93
3 95 29 102 14 3 38 3 54 0 l29 -7 0 -98 c0 -82 3 -99 17 -104 27 -11 33 5 40
106 6 93 7 96 31 101 14 3 35 2 46 -2 18 -7 20 -16 18 -93 -3 -89 9 -117 43
-104 12 4 15 26 15 111 0 98 -3 112 -41 218 -48 131 -83 203 -133 272 -20 27
-36 55 -36 62 0 6 36 50 81 97 90 95 91 101 24 152 -57 43 -88 14 -40 -36 26
-27 26 -60 0 -60 -7 0 -39 29 -70 65 -59 67 -74 75 -94 51z m108 -392 c38 -69
121 -261 121 -277 0 -4 -85 -7 -190 -7 -104 0 -190 2 -190 5 0 38 187 355 209
355 5 0 28 -34 50 -76z"/>
</g>
</svg>
