<?xml version="1.0" standalone="no"?>
<!DOCTYPE svg PUBLIC "-//W3C//DTD SVG 20010904//EN"
 "http://www.w3.org/TR/2001/REC-SVG-20010904/DTD/svg10.dtd">
<svg version="1.0" xmlns="http://www.w3.org/2000/svg"
 width="92.000000pt" height="148.000000pt" viewBox="0 0 92.000000 148.000000"
 preserveAspectRatio="xMidYMid meet">
<metadata>
Created by potrace 1.16, written by Peter Selinger 2001-2019
</metadata>
<g transform="translate(0.000000,148.000000) scale(0.100000,-0.100000)"
fill="#000000" stroke="none">
<path d="M432 1398 c-7 -7 -12 -18 -12 -25 0 -7 41 -57 90 -110 50 -54 90
-100 90 -103 0 -4 -21 -30 -47 -59 l-48 -53 -55 73 c-30 39 -73 96 -95 125
-42 56 -61 69 -89 58 -34 -13 -15 -51 89 -174 58 -68 105 -127 105 -130 0 -3
-34 -50 -76 -105 -125 -163 -147 -202 -223 -379 l-71 -169 2 -166 3 -166 27
-3 c43 -5 51 23 47 172 l-4 131 82 3 82 3 3 -153 3 -153 30 0 30 0 3 153 3
153 87 -3 87 -3 0 -150 0 -150 28 -3 c16 -2 29 2 32 10 3 10 12 183 15 291 0
4 34 7 77 5 l76 -3 -2 -136 c-2 -115 0 -139 14 -153 19 -18 24 -19 44 -7 11 7
13 42 12 167 l-2 159 -70 190 c-52 142 -87 219 -139 306 -38 64 -76 121 -84
129 -9 7 -16 19 -16 27 0 15 115 150 188 218 23 23 42 50 42 61 0 23 -110 124
-135 124 -8 0 -19 -8 -22 -17 -5 -12 7 -29 40 -59 26 -23 47 -47 47 -52 0 -15
-50 -52 -69 -51 -9 0 -51 43 -94 95 -77 91 -100 107 -125 82z m154 -573 c55
-95 184 -393 184 -424 0 -8 -87 -11 -291 -11 -273 0 -291 1 -286 18 20 68 133
284 191 367 107 154 117 166 128 163 6 -2 39 -53 74 -113z"/>
</g>
</svg>
