<?xml version="1.0" standalone="no"?>
<!DOCTYPE svg PUBLIC "-//W3C//DTD SVG 20010904//EN"
 "http://www.w3.org/TR/2001/REC-SVG-20010904/DTD/svg10.dtd">
<svg version="1.0" xmlns="http://www.w3.org/2000/svg"
 width="1730.000000pt" height="1500.000000pt" viewBox="0 0 1730.000000 1500.000000"
 preserveAspectRatio="xMidYMid meet">
<metadata>
Created by potrace 1.16, written by Peter Selinger 2001-2019
</metadata>
<g transform="translate(0.000000,1500.000000) scale(0.500000,-0.500000)"
fill="#000000" stroke="none">
<path d="M480 2867 c-13 -7 -48 -46 -48 -54 0 -1 -3 -8 -7 -16 -4 -7 -9 -19
-12 -25 -16 -38 -43 -89 -54 -100 -11 -12 -24 -38 -30 -60 -3 -9 -8 -20 -10
-25 -3 -4 -9 -15 -13 -25 -5 -9 -10 -19 -13 -24 -3 -4 -6 -12 -7 -20 -1 -7 -4
-18 -7 -23 -3 -7 -5 -15 -5 -25 -1 -9 -3 -20 -7 -28 -2 -7 -10 -29 -16 -49
-11 -33 -12 -36 -21 -46 -11 -13 -14 -18 -14 -29 0 -4 -3 -13 -7 -21 -7 -14
-7 -14 -7 -42 0 -27 0 -29 -5 -40 -4 -8 -6 -17 -7 -28 -1 -13 -3 -19 -9 -31
-7 -16 -7 -16 -8 -44 0 -29 0 -29 -7 -44 -6 -14 -7 -17 -8 -42 -1 -23 -2 -29
-7 -42 -5 -14 -5 -14 -6 -278 l0 -263 -8 -15 -7 -15 0 -72 1 -72 9 -18 c4 -10
8 -19 8 -21 0 -1 2 -9 5 -18 6 -15 6 -15 6 -77 0 -62 0 -62 7 -77 4 -8 9 -20
10 -27 1 -7 5 -17 10 -25 18 -30 19 -33 17 -67 -2 -38 0 -46 15 -62 10 -11 14
-18 14 -26 0 -3 3 -13 7 -21 7 -15 7 -17 7 -36 -1 -20 0 -22 6 -35 7 -14 7
-14 7 -44 0 -34 0 -34 16 -53 8 -10 13 -22 13 -31 0 -2 3 -10 7 -17 3 -7 8
-19 9 -26 1 -6 5 -18 8 -26 3 -7 6 -16 7 -20 2 -10 12 -30 19 -39 6 -8 10 -18
10 -28 0 -7 5 -16 15 -33 4 -6 8 -16 10 -24 1 -7 9 -26 16 -41 7 -15 15 -35
18 -44 7 -24 11 -33 16 -41 2 -4 7 -13 11 -19 3 -7 9 -17 13 -22 4 -6 14 -22
21 -38 28 -56 49 -71 99 -71 54 0 75 15 75 52 0 26 -5 35 -32 59 -13 12 -19
19 -25 30 -5 9 -16 22 -29 36 -22 23 -27 32 -33 55 -2 7 -6 18 -8 25 -3 7 -7
18 -9 26 -5 17 -20 46 -27 53 -9 9 -13 15 -15 27 -1 6 -5 18 -8 25 -6 13 -6
17 -7 36 0 24 -2 29 -27 75 -12 23 -13 25 -14 42 -1 15 -3 21 -8 32 -7 13 -7
16 -7 37 -1 24 -1 26 -15 41 -12 12 -14 21 -15 44 0 19 -1 21 -8 34 -7 14 -7
14 -7 52 0 46 -1 50 -13 63 -18 21 -20 25 -19 67 1 53 1 52 -10 85 -6 17 -15
45 -21 63 l-11 32 1 197 1 197 -7 14 -7 14 -1 129 c0 112 1 130 4 135 1 3 4
10 7 14 4 7 4 11 4 37 0 27 0 29 6 42 6 13 6 14 6 48 0 35 0 35 7 49 6 11 8
17 9 32 1 14 3 21 8 31 6 12 6 13 6 40 0 30 1 32 17 50 4 5 10 13 13 20 4 7 9
16 11 20 4 5 5 11 6 23 1 16 15 61 24 80 2 3 4 14 5 24 1 17 2 19 9 32 5 8 11
20 14 28 3 8 7 16 9 19 8 11 22 43 24 55 3 15 31 70 43 83 11 14 23 37 31 61
6 19 15 38 35 69 34 53 -23 119 -79 91z"/>
<path d="M2814 2855 c-5 -2 -14 -7 -19 -11 -5 -5 -14 -10 -21 -13 -24 -9 -26
-16 -10 -32 9 -10 10 -12 10 -21 0 -17 13 -43 33 -65 5 -7 11 -16 13 -21 2 -5
8 -13 13 -19 5 -5 12 -14 14 -20 3 -5 12 -18 19 -28 8 -10 17 -26 22 -35 5
-11 11 -20 16 -25 14 -13 16 -19 18 -40 2 -19 2 -20 15 -45 26 -47 37 -69 42
-86 2 -9 7 -22 10 -28 4 -10 5 -14 5 -32 0 -25 1 -29 12 -42 20 -22 31 -49 31
-73 0 -24 2 -30 14 -45 6 -7 16 -22 25 -39 2 -4 4 -14 5 -24 0 -10 3 -21 5
-27 3 -6 5 -17 6 -25 2 -17 6 -26 18 -40 14 -15 14 -16 16 -29 1 -7 5 -18 8
-25 7 -12 7 -12 5 -51 -1 -39 -1 -39 6 -54 7 -14 7 -17 9 -40 1 -23 2 -26 8
-38 7 -13 7 -13 7 -93 0 -80 0 -80 7 -92 6 -13 6 -13 6 -140 l0 -128 7 -14 c7
-14 7 -14 8 -45 0 -31 0 -31 8 -44 11 -20 10 -102 -1 -125 l-7 -14 0 -109 0
-109 -8 -15 c-8 -14 -8 -14 -7 -58 2 -44 2 -44 -5 -64 -7 -19 -7 -19 -7 -110
0 -108 1 -104 -27 -119 -20 -10 -32 -35 -34 -68 -1 -19 -2 -24 -8 -38 -4 -9
-8 -21 -10 -27 -3 -11 -6 -14 -77 -84 -80 -79 -80 -79 -80 -100 0 -35 27 -59
66 -59 27 0 32 2 45 13 7 6 15 12 19 14 9 5 14 10 21 23 3 7 15 20 35 38 22
22 31 31 36 41 3 7 11 18 16 25 6 8 13 18 16 25 3 6 10 16 15 22 6 7 12 17 15
23 3 7 9 20 14 31 10 18 10 18 10 41 0 21 0 23 7 36 4 8 7 17 7 21 0 4 3 13 6
19 3 7 7 18 8 24 1 6 4 16 8 21 4 9 6 14 7 27 0 13 2 19 8 32 l8 16 0 91 c0
91 0 91 6 104 6 13 6 13 5 118 l0 105 7 14 8 14 0 107 0 107 -7 11 c-7 11 -7
11 -8 41 -1 26 -2 32 -7 45 -5 15 -5 15 -5 133 l1 118 -8 13 -8 13 0 87 0 87
-7 14 c-6 11 -8 18 -10 31 -1 10 -4 23 -7 30 -5 12 -5 14 -5 55 0 42 0 42 -7
56 -3 8 -7 18 -8 23 -1 5 -4 14 -7 20 -5 9 -6 15 -6 23 0 25 -12 51 -35 75
-23 24 -22 21 -22 65 l0 38 -14 27 c-8 15 -15 31 -16 36 -2 12 -5 17 -17 31
-10 12 -14 22 -14 40 0 5 -2 13 -6 21 -3 7 -7 17 -8 22 -2 8 -10 26 -39 85 -4
7 -7 16 -7 19 0 3 -2 13 -5 21 -3 7 -6 18 -7 23 -1 6 -6 14 -13 23 -6 8 -16
24 -21 36 -7 14 -14 26 -19 31 -5 6 -11 15 -14 20 -2 6 -9 17 -16 25 -10 13
-12 17 -20 47 -1 2 -9 11 -18 20 -10 10 -19 22 -23 29 -19 38 -48 52 -80 42z"/>
<path d="M1903 2810 c-23 -7 -44 -36 -42 -57 3 -38 32 -61 78 -61 26 1 29 0
43 -5 14 -5 17 -6 45 -6 32 0 33 0 63 -16 13 -6 23 -22 26 -38 1 -8 6 -19 13
-33 8 -15 11 -25 13 -35 1 -8 4 -17 7 -23 15 -25 19 -34 19 -45 0 -23 3 -30
13 -41 18 -20 22 -49 10 -80 -4 -9 -7 -21 -8 -29 -1 -9 -3 -18 -7 -27 -6 -11
-7 -16 -8 -38 -1 -21 -2 -27 -7 -37 -4 -8 -6 -17 -7 -27 -1 -11 -3 -18 -7 -27
-5 -10 -6 -14 -7 -37 -1 -22 -2 -27 -8 -40 -4 -11 -6 -19 -6 -26 0 -7 -2 -15
-6 -25 -5 -14 -6 -18 -6 -36 0 -21 0 -22 -6 -33 -7 -10 -7 -13 -8 -38 -2 -25
-2 -27 -8 -39 -5 -9 -7 -16 -8 -28 -1 -9 -4 -19 -7 -27 -5 -9 -6 -15 -7 -34
-1 -19 -2 -25 -7 -34 -4 -9 -6 -17 -7 -31 -1 -17 -2 -20 -9 -30 -8 -12 -8 -12
-9 -36 -1 -19 -2 -27 -7 -38 -3 -8 -6 -20 -6 -28 -1 -10 -3 -17 -8 -26 -6 -11
-6 -13 -6 -34 0 -22 0 -23 -7 -34 -10 -16 -10 -16 -11 -61 0 -41 0 -41 6 -52
4 -7 9 -19 11 -28 8 -31 28 -66 51 -89 22 -23 33 -41 39 -67 4 -18 8 -23 23
-32 16 -9 22 -18 46 -71 3 -7 12 -18 24 -31 23 -24 22 -14 20 -134 -1 -110 -1
-108 -15 -120 -16 -15 -17 -17 -17 -46 0 -24 0 -25 -7 -39 -5 -11 -7 -17 -8
-32 -1 -15 -2 -20 -8 -29 -6 -11 -6 -12 -6 -40 0 -27 0 -29 -7 -45 -3 -9 -7
-20 -9 -24 -1 -5 -6 -11 -12 -18 -21 -20 -26 -30 -28 -53 -2 -18 -3 -23 -10
-37 -4 -9 -8 -17 -8 -19 0 -16 -11 -33 -27 -43 -22 -14 -29 -57 -12 -73 7 -7
34 -21 42 -23 18 -4 39 20 39 44 0 15 2 20 15 33 16 17 25 39 40 98 3 12 16
36 19 36 5 0 20 19 22 30 1 6 5 16 9 23 6 12 6 12 6 46 0 33 1 35 7 52 5 15 6
22 6 35 0 14 1 19 6 32 6 13 7 18 8 39 1 27 2 28 16 37 15 11 15 15 9 104 -3
36 18 44 42 14 23 -29 77 -81 94 -91 17 -9 21 -14 30 -30 2 -6 13 -18 23 -29
39 -40 48 -82 20 -97 -16 -8 -17 -10 -18 -37 -1 -21 -1 -24 -8 -35 -3 -6 -8
-19 -11 -28 -3 -9 -9 -22 -13 -30 -11 -17 -14 -25 -14 -40 0 -16 -2 -19 -15
-29 -14 -10 -21 -22 -27 -43 -3 -8 -8 -22 -11 -31 -6 -16 -7 -20 -7 -36 0 -24
-3 -31 -18 -39 -18 -10 -20 -13 -23 -25 -6 -25 -28 -50 -56 -64 -27 -13 -30
-54 -5 -68 29 -16 44 -16 62 1 5 5 14 11 19 14 16 8 23 16 35 41 13 28 17 34
32 44 14 10 19 17 21 30 1 6 4 16 8 24 7 13 7 13 6 29 -2 20 3 35 15 54 4 7 9
17 10 23 3 16 7 21 18 29 16 11 26 34 28 61 1 15 2 21 6 26 2 4 5 13 7 20 1 7
4 20 7 28 2 8 4 17 5 20 3 14 22 28 38 28 13 0 20 -6 35 -32 8 -13 19 -27 24
-33 19 -21 28 -36 32 -54 1 -7 5 -18 9 -25 4 -7 8 -18 9 -24 3 -13 6 -18 17
-29 9 -8 10 -10 24 -48 3 -6 4 -16 3 -45 0 -37 0 -37 7 -51 7 -14 7 -14 5 -60
l-3 -46 9 -28 c21 -68 69 -47 69 29 0 32 0 32 27 49 10 6 14 15 15 32 1 11 3
21 7 30 6 14 6 16 6 40 -1 26 -1 26 5 37 6 11 6 11 7 81 l1 70 8 13 c7 11 8
13 9 35 1 18 3 25 8 37 4 12 6 19 6 28 0 9 1 14 6 23 4 7 7 17 8 24 2 7 5 16
9 23 l7 12 0 93 0 94 -7 14 c-6 11 -8 17 -9 30 -1 9 -2 18 -4 20 -1 3 -4 11
-6 20 -2 8 -6 20 -9 25 -4 7 -6 16 -7 28 -3 23 -3 25 -11 36 -7 10 -7 10 -7
55 0 50 2 41 -17 76 -4 7 -11 17 -16 22 -16 19 -37 74 -37 100 0 18 -2 23 -13
35 -7 7 -15 21 -30 52 -17 34 -23 44 -31 52 -5 5 -14 16 -21 24 -9 13 -14 17
-25 24 -18 10 -25 21 -29 40 -3 14 -3 14 -34 46 -26 26 -32 33 -36 44 -8 16
-26 34 -42 41 -18 8 -59 48 -68 66 -8 17 -49 59 -72 73 -35 22 -34 20 -51 49
-11 18 -17 25 -32 34 -19 11 -26 17 -54 44 -26 25 -31 29 -49 35 -15 4 -16 9
-11 30 2 9 4 20 4 26 0 5 2 16 6 26 3 9 7 23 7 30 1 9 4 17 9 26 6 13 7 16 8
37 1 23 2 25 8 37 7 11 8 16 10 31 1 14 3 21 8 30 6 12 6 14 6 31 -1 18 -1 20
6 34 10 22 11 126 1 149 -4 9 -7 18 -8 26 -1 13 -12 40 -23 56 -3 5 -9 14 -11
20 -3 7 -8 16 -11 20 -10 15 -13 25 -15 45 -1 16 -2 21 -8 31 -4 7 -7 15 -7
18 0 29 -29 53 -63 53 -16 0 -22 1 -29 4 -21 10 -24 10 -58 10 -27 0 -35 1
-42 3 -28 10 -28 10 -69 12 -34 1 -42 0 -50 -3z m310 -913 c5 -5 13 -16 18
-25 17 -26 27 -35 47 -38 24 -5 34 -23 24 -45 -4 -10 -95 -97 -112 -107 -6 -4
-15 -11 -20 -15 -28 -23 -44 6 -26 47 5 12 7 19 8 37 1 17 3 24 7 33 4 8 6 18
7 30 1 13 3 21 7 29 5 9 6 12 6 32 0 24 1 28 10 31 8 3 16 0 24 -9z m194 -197
c5 -2 23 -17 42 -36 57 -53 56 -47 2 -99 -32 -31 -42 -42 -47 -52 -4 -8 -15
-20 -29 -35 -18 -19 -24 -27 -29 -36 -7 -18 -76 -88 -98 -102 -8 -5 -20 -12
-26 -17 -20 -13 -29 -10 -38 10 -3 7 -9 18 -14 24 -17 24 -28 47 -31 62 -3 16
-2 15 -24 38 -24 24 -13 43 28 46 21 2 25 5 74 53 48 47 56 54 75 65 10 5 21
15 45 40 41 42 51 48 70 39z m183 -202 c6 -7 23 -25 37 -40 26 -27 39 -45 39
-56 0 -7 9 -27 17 -40 14 -19 11 -31 -9 -48 -33 -27 -37 -33 -40 -49 -3 -16
-20 -50 -32 -64 -6 -6 -12 -16 -14 -21 -6 -13 -22 -28 -44 -41 -23 -14 -100
-90 -109 -108 -11 -23 -24 -19 -40 12 -4 9 -13 21 -20 29 -6 7 -15 18 -18 25
-4 10 -13 19 -43 49 -50 51 -50 43 -1 90 108 104 132 128 140 144 6 10 15 22
32 39 17 18 27 30 33 41 27 48 51 61 72 38z m171 -301 c14 -12 22 -35 22 -67
0 -29 0 -29 7 -44 13 -30 11 -50 -8 -59 -19 -10 -46 -38 -62 -64 -3 -4 -14
-18 -26 -30 -21 -21 -26 -28 -26 -38 0 -8 -10 -25 -23 -39 -7 -8 -15 -18 -17
-23 -9 -20 -30 -19 -46 1 -4 5 -11 13 -15 18 -7 8 -9 11 -10 21 -2 16 -5 21
-22 39 -27 28 -23 36 48 107 45 44 51 50 64 56 17 8 34 26 43 45 3 6 9 14 13
18 7 7 10 13 12 27 4 26 31 45 46 32z m75 -289 c10 -10 9 -82 -2 -107 -4 -10
-7 -21 -8 -32 -1 -11 -3 -19 -7 -27 -4 -8 -6 -16 -7 -28 -1 -9 -4 -24 -7 -32
-3 -10 -5 -19 -5 -28 0 -21 -11 -28 -30 -18 -9 5 -14 11 -28 34 -7 14 -14 22
-30 37 -27 27 -27 36 -2 57 6 5 21 20 34 33 24 24 26 27 29 46 1 4 5 13 10 21
6 7 13 19 16 27 10 19 27 27 37 17z"/>
<path d="M945 2808 c-14 -6 -40 -34 -48 -51 -5 -11 -9 -16 -15 -20 -17 -11
-25 -21 -31 -33 -6 -13 -20 -36 -29 -48 -3 -4 -14 -22 -23 -41 -10 -19 -19
-36 -21 -39 -2 -3 -7 -12 -11 -21 -5 -9 -12 -21 -16 -27 -4 -6 -7 -11 -7 -12
0 -1 -5 -12 -11 -24 -6 -11 -12 -27 -14 -35 -1 -8 -5 -20 -8 -25 -5 -10 -5
-12 -4 -32 1 -21 1 -22 -6 -43 -5 -15 -7 -24 -7 -33 0 -11 -1 -14 -7 -25 -8
-12 -8 -12 -8 -35 -1 -22 -1 -25 -7 -38 -7 -15 -7 -15 -7 -42 1 -30 1 -31 -12
-40 -15 -9 -16 -11 -17 -46 -1 -29 -1 -32 -7 -43 -6 -12 -6 -12 -6 -65 0 -60
-1 -63 -9 -81 -7 -14 -9 -184 -3 -201 1 -4 7 -18 12 -32 13 -36 13 -34 13 -71
0 -27 1 -37 3 -46 7 -21 5 -42 -4 -65 -4 -10 -8 -23 -9 -29 -1 -6 -4 -14 -7
-19 -3 -5 -6 -13 -7 -22 -2 -9 -4 -16 -9 -25 -5 -8 -8 -15 -9 -24 -2 -12 -6
-21 -17 -40 -5 -8 -8 -16 -10 -29 0 -4 -4 -12 -8 -18 -4 -6 -8 -16 -10 -24 -1
-8 -5 -18 -7 -22 -2 -4 -5 -13 -6 -18 -1 -6 -8 -22 -15 -36 -7 -15 -15 -32
-16 -39 -2 -7 -8 -26 -14 -44 -6 -18 -11 -34 -11 -36 0 -2 -3 -10 -6 -17 -4
-7 -8 -20 -11 -29 -3 -9 -7 -22 -10 -30 -6 -17 -8 -72 -2 -83 7 -14 60 -17 82
-6 6 3 16 7 24 10 19 5 24 10 33 29 6 13 10 19 19 26 10 8 11 10 19 33 l9 25
-1 59 0 59 13 26 c10 21 17 31 27 42 17 18 17 21 14 61 -2 35 0 49 10 54 11 6
20 1 28 -16 5 -10 7 -12 18 -18 19 -10 33 -32 42 -65 3 -14 44 -98 58 -122 4
-6 8 -22 11 -37 1 -5 5 -11 11 -19 5 -6 13 -17 16 -24 5 -10 11 -17 36 -41 43
-40 53 -90 29 -141 -8 -18 -8 -18 -8 -41 1 -29 0 -33 -15 -46 -12 -12 -16 -21
-16 -37 0 -8 -5 -15 -17 -22 -13 -7 -13 -11 -13 -57 1 -46 1 -45 -14 -63 -13
-15 -14 -20 -14 -45 1 -21 1 -22 -6 -32 -3 -7 -7 -16 -7 -21 -2 -16 -15 -38
-29 -50 -15 -14 -16 -19 -16 -57 1 -30 1 -31 -5 -41 -3 -6 -6 -17 -8 -24 -3
-16 -18 -39 -30 -47 -22 -15 -23 -35 -4 -48 4 -3 12 -10 17 -15 11 -14 15 -15
46 -15 46 0 78 29 75 68 -2 20 0 24 12 31 15 9 16 11 16 53 0 37 0 37 10 63 5
14 11 33 14 42 3 9 9 26 13 38 4 12 11 33 15 46 4 13 9 27 11 32 2 4 7 16 10
26 3 10 8 24 11 31 3 7 8 22 10 34 3 12 7 27 10 33 3 7 6 17 8 24 2 7 6 20 9
29 3 9 7 22 9 29 10 37 39 26 62 -24 5 -11 13 -27 17 -36 7 -14 8 -18 8 -29 0
-19 3 -27 14 -39 14 -15 30 -38 37 -55 4 -8 9 -17 11 -20 2 -3 7 -12 10 -20 4
-8 9 -18 11 -22 15 -24 46 -91 49 -105 2 -10 18 -45 60 -130 10 -19 14 -32 16
-41 6 -35 19 -45 62 -47 50 -2 53 1 52 53 0 44 -2 55 -16 72 -3 4 -9 14 -13
23 -11 21 -27 51 -32 58 -3 3 -7 12 -10 18 -3 7 -8 16 -11 21 -8 12 -23 48
-27 64 -2 7 -7 19 -11 27 -36 66 -56 110 -56 122 0 15 -5 25 -15 34 -9 7 -27
35 -35 54 -2 5 -6 12 -9 16 -5 8 -22 39 -33 61 -5 9 -11 20 -14 24 -13 16 -14
22 -14 59 0 41 -1 46 -14 60 -23 24 -24 41 -6 76 7 13 17 33 22 43 5 11 14 25
20 32 18 22 20 24 24 39 2 8 7 20 9 27 3 7 8 21 11 31 4 10 10 24 14 31 8 13
8 15 9 32 0 17 1 18 12 40 11 21 12 23 13 42 1 15 3 21 7 30 3 6 5 13 5 15 0
38 42 38 53 -1 1 -3 6 -11 12 -19 10 -13 26 -47 30 -61 2 -8 11 -19 22 -25 11
-6 18 -14 22 -25 2 -5 8 -15 14 -22 6 -7 11 -14 11 -15 0 -5 23 -46 30 -54 3
-4 8 -12 10 -17 3 -5 9 -15 14 -22 5 -7 12 -18 15 -23 2 -6 8 -15 13 -21 5 -6
11 -16 15 -22 11 -19 12 -19 63 -21 51 -1 52 -1 69 16 24 23 18 37 -41 89 -11
10 -20 20 -27 31 -6 9 -13 18 -16 21 -3 3 -9 12 -12 20 -7 14 -14 26 -28 48
-4 5 -10 15 -15 22 -4 7 -10 17 -14 21 -3 4 -9 13 -12 19 -3 6 -10 16 -15 22
-5 6 -11 15 -14 20 -3 5 -10 16 -16 23 -6 8 -14 19 -17 26 -4 6 -10 15 -14 20
-4 5 -10 13 -12 18 -2 5 -10 16 -17 23 -10 11 -16 20 -23 35 -6 11 -13 25 -17
29 -4 5 -13 18 -20 29 -7 10 -18 24 -25 31 -23 23 -27 41 -13 68 8 14 8 16 9
39 1 23 1 24 8 35 l7 11 1 95 c0 95 0 95 -5 103 -12 17 -11 16 -11 93 l1 71
-8 15 c-7 14 -7 15 -6 31 1 16 1 17 -6 33 -7 17 -7 17 -7 46 0 30 0 30 -7 43
-6 12 -8 17 -9 32 -3 36 -33 104 -57 132 -4 4 -9 12 -12 17 -3 6 -8 15 -13 21
-10 13 -20 40 -21 58 -2 16 -12 41 -25 56 -15 18 -17 23 -17 49 0 26 1 24 -30
43 -22 13 -26 18 -28 32 -2 16 -41 60 -62 70 -14 7 -51 7 -64 1z m32 -183 c26
-14 48 -48 55 -84 4 -20 44 -97 59 -114 15 -16 22 -28 24 -42 1 -6 8 -23 20
-46 21 -42 21 -42 22 -75 0 -23 1 -26 7 -41 6 -15 7 -17 6 -42 0 -25 0 -25 7
-37 6 -11 6 -11 7 -135 l1 -124 9 -17 8 -17 0 -48 c-1 -48 -1 -48 -9 -62 -6
-12 -8 -18 -9 -31 -1 -11 -4 -20 -8 -29 -10 -22 -9 -85 1 -106 11 -22 11 -45
1 -66 -6 -14 -6 -14 -6 -45 1 -34 -5 -54 -22 -80 -11 -15 -20 -37 -21 -52 -1
-8 -7 -31 -16 -59 -8 -25 -15 -48 -16 -52 -1 -3 -7 -12 -15 -20 -14 -16 -24
-32 -24 -40 0 -9 -5 -15 -16 -22 -6 -4 -18 -14 -26 -22 -27 -26 -37 -20 -64
37 -9 19 -20 41 -23 49 -4 7 -7 17 -7 20 0 10 -3 17 -13 27 -6 6 -9 13 -11 18
-7 30 -17 52 -33 69 -9 11 -20 35 -27 60 -4 12 -7 17 -14 25 -8 9 -10 13 -12
22 -4 17 -6 24 -14 38 -4 7 -10 19 -12 27 -2 8 -6 20 -10 26 -3 7 -7 19 -9 26
-2 7 -9 25 -16 39 l-12 25 0 65 0 65 -8 13 c-12 20 -12 67 0 90 8 15 8 15 8
43 0 26 0 29 6 41 5 11 6 16 6 34 0 20 1 22 8 35 7 13 8 14 9 38 1 23 1 25 8
35 7 10 7 12 8 34 1 18 3 27 8 41 6 17 6 19 5 38 -1 21 -1 21 6 37 7 16 8 19
9 41 1 22 2 25 8 37 7 13 7 14 7 37 0 27 -1 24 18 55 3 5 6 17 8 25 5 26 28
71 44 86 l13 12 -1 41 c-1 46 0 51 14 57 8 4 48 4 54 0z"/>
</g>
</svg>
