<?xml version="1.0" standalone="no"?>
<!DOCTYPE svg PUBLIC "-//W3C//DTD SVG 20010904//EN"
 "http://www.w3.org/TR/2001/REC-SVG-20010904/DTD/svg10.dtd">
<svg version="1.0" xmlns="http://www.w3.org/2000/svg"
 width="100.000000pt" height="87.000000pt" viewBox="0 0 100.000000 87.000000"
 preserveAspectRatio="xMidYMid meet">
<metadata>
Created by potrace 1.16, written by Peter Selinger 2001-2019
</metadata>
<g transform="translate(0.000000,87.000000) scale(0.100000,-0.100000)"
fill="#000000" stroke="none">
<path d="M122 827 c-6 -7 -25 -48 -42 -91 -28 -69 -33 -98 -41 -220 -11 -154
-2 -222 45 -357 30 -86 51 -119 76 -119 31 0 30 12 -5 85 -50 104 -75 220 -75
339 1 121 10 166 56 269 29 62 33 81 24 93 -15 17 -24 18 -38 1z"/>
<path d="M794 816 c-3 -8 6 -34 20 -58 33 -56 75 -168 87 -232 14 -76 13 -327
-1 -373 -7 -21 -24 -53 -38 -71 -19 -24 -22 -36 -14 -44 20 -20 58 7 83 58 19
40 23 68 27 180 7 190 -9 305 -58 422 -22 53 -48 104 -57 114 -19 22 -42 23
-49 4z"/>
<path d="M255 804 c-49 -49 -85 -179 -85 -310 0 -54 -7 -100 -20 -139 -27 -77
-26 -97 2 -93 17 2 25 13 33 47 6 25 15 46 21 48 6 2 23 -20 39 -48 l27 -51
-32 -95 c-29 -85 -31 -96 -17 -110 13 -14 17 -13 30 8 8 13 20 47 26 74 21 88
26 88 70 -8 22 -48 44 -87 49 -87 5 0 15 7 22 15 11 13 4 33 -40 120 l-53 105
20 52 c11 28 25 54 31 56 6 2 18 -12 28 -30 22 -43 44 -68 61 -68 32 0 23 33
-28 101 l-52 71 -2 91 c-3 101 -25 173 -70 233 -29 38 -37 41 -60 18z m60
-125 c34 -101 16 -349 -25 -349 -18 0 -63 111 -68 165 -4 51 21 203 40 238 14
26 33 7 53 -54z"/>
<path d="M533 805 c-7 -20 0 -27 40 -40 51 -17 55 -51 22 -213 l-29 -138 33
-58 c39 -68 38 -101 -3 -191 -26 -58 -26 -75 0 -75 18 0 53 74 54 111 0 14 6
33 13 43 13 17 14 17 30 1 25 -25 21 -51 -19 -123 -28 -49 -33 -66 -24 -72 27
-17 45 7 80 102 5 16 14 28 19 28 11 0 28 -43 37 -93 14 -82 36 -51 54 76 22
155 -5 236 -116 355 l-75 81 11 58 c20 98 -17 162 -93 163 -16 0 -30 -7 -34
-15z m173 -336 c9 -15 -60 -84 -75 -75 -19 12 -12 44 15 65 30 23 49 27 60 10z
m54 -77 c0 -32 -44 -85 -68 -80 -29 6 -25 39 9 74 40 41 59 43 59 6z"/>
</g>
</svg>
