<?xml version="1.0" standalone="no"?>
<!DOCTYPE svg PUBLIC "-//W3C//DTD SVG 20010904//EN"
 "http://www.w3.org/TR/2001/REC-SVG-20010904/DTD/svg10.dtd">
<svg version="1.0" xmlns="http://www.w3.org/2000/svg"
 width="400.000000pt" height="376.000000pt" viewBox="0 0 400.000000 376.000000"
 preserveAspectRatio="xMidYMid meet">
<metadata>
Created by potrace 1.16, written by Peter Selinger 2001-2019
</metadata>
<g transform="translate(0.000000,376.000000) scale(0.100000,-0.100000)"
fill="#000000" stroke="none">
<path d="M577 3483 c-4 -3 -7 -13 -7 -21 0 -8 -11 -27 -25 -44 -17 -20 -25
-42 -25 -67 0 -21 -11 -59 -26 -87 -38 -73 -86 -204 -89 -241 -1 -17 -6 -38
-11 -45 -17 -21 -64 -198 -71 -263 -2 -22 -8 -49 -13 -60 -5 -11 -11 -47 -14
-80 -3 -33 -10 -89 -16 -125 -7 -36 -14 -114 -16 -175 -2 -60 -9 -119 -14
-130 -14 -26 -6 -902 9 -1010 6 -44 15 -111 20 -150 13 -101 26 -151 45 -179
9 -14 16 -40 16 -58 0 -18 10 -58 21 -88 55 -141 78 -216 73 -235 -3 -13 1
-27 10 -34 11 -9 16 -30 16 -65 0 -68 14 -86 70 -89 36 -2 50 2 73 23 l29 26
-25 30 c-30 35 -58 104 -62 152 -2 18 -8 46 -15 62 -7 16 -10 40 -6 54 4 18 0
28 -20 41 -22 14 -25 21 -19 52 5 26 0 48 -18 87 -40 84 -50 115 -44 137 4 14
-2 28 -19 44 -22 20 -24 30 -24 102 0 43 -5 84 -10 89 -7 7 -9 163 -6 465 7
593 17 828 39 899 10 30 20 71 22 91 2 20 5 41 7 45 1 5 -2 24 -6 43 -6 26 -4
39 13 62 12 15 21 38 21 51 1 13 7 34 15 48 8 14 14 36 15 51 0 14 5 30 12 37
13 13 56 129 68 187 18 83 36 132 73 199 50 90 54 114 27 149 -16 19 -30 27
-54 27 -18 0 -36 -3 -39 -7z"/>
<path d="M3276 3439 c-33 -26 -35 -70 -4 -99 12 -11 28 -20 35 -20 19 0 53
-60 53 -95 0 -16 9 -41 20 -55 11 -14 20 -36 20 -49 0 -30 48 -170 65 -191 12
-14 18 -38 32 -120 3 -19 16 -48 29 -63 26 -31 31 -66 12 -85 -9 -9 -9 -18 0
-37 7 -14 12 -38 12 -53 0 -15 9 -56 20 -91 15 -52 19 -93 19 -232 0 -100 4
-176 10 -188 7 -13 11 -166 11 -461 0 -371 -2 -446 -15 -470 -11 -21 -13 -46
-9 -94 5 -58 4 -66 -15 -78 -16 -10 -21 -23 -21 -55 0 -23 -4 -45 -10 -48 -5
-3 -10 -14 -10 -24 0 -10 -12 -39 -26 -65 -20 -37 -24 -54 -19 -84 6 -35 3
-41 -20 -56 -21 -14 -26 -23 -22 -44 3 -15 -1 -38 -8 -52 -8 -14 -14 -39 -15
-56 0 -37 -28 -123 -46 -145 -8 -8 -14 -31 -14 -51 0 -65 64 -92 97 -41 18 27
40 81 48 117 2 10 12 27 21 37 9 10 14 25 10 34 -6 15 19 108 34 130 4 6 10
19 13 30 3 11 15 45 26 75 12 30 21 64 21 75 1 11 8 38 16 60 22 56 34 109 44
185 5 36 14 106 21 155 8 61 12 236 11 545 0 442 -9 636 -32 770 -6 36 -14 94
-17 129 -2 36 -11 74 -19 86 -8 12 -12 29 -9 37 3 8 -2 41 -11 74 -9 32 -20
75 -24 94 -4 19 -17 59 -29 89 -11 30 -18 57 -16 61 6 10 -11 63 -41 124 -13
28 -24 55 -24 62 0 7 -11 32 -25 55 -14 24 -25 59 -25 77 0 34 -29 72 -56 72
-9 0 -29 11 -46 25 -36 30 -38 30 -72 4z"/>
<path d="M2563 3308 c-33 -38 -83 -121 -89 -148 -3 -14 -14 -43 -24 -65 -10
-22 -28 -64 -41 -92 -12 -29 -31 -60 -41 -70 -14 -13 -18 -31 -18 -89 0 -60
-3 -75 -19 -86 -12 -9 -20 -30 -23 -68 -3 -35 -16 -73 -34 -105 -19 -33 -29
-66 -30 -95 -4 -100 -8 -107 -104 -155 -58 -29 -89 -51 -93 -64 -3 -13 -13
-21 -26 -21 -12 0 -41 -18 -64 -40 -24 -21 -73 -52 -109 -69 -74 -33 -88 -53
-60 -91 23 -31 82 -39 117 -16 14 9 32 16 42 16 10 0 27 7 37 15 11 8 28 15
37 15 10 0 31 11 47 25 17 14 34 25 38 25 5 0 22 7 38 15 17 9 33 12 40 6 6
-4 23 -11 38 -15 24 -5 27 -11 32 -68 2 -35 10 -92 16 -128 6 -36 14 -92 18
-126 5 -44 14 -69 35 -93 17 -21 27 -44 27 -65 0 -20 8 -40 20 -51 11 -10 20
-28 20 -40 0 -30 22 -79 64 -145 21 -32 36 -67 36 -85 0 -24 13 -42 65 -91 63
-59 65 -63 65 -110 0 -50 -27 -135 -61 -190 -10 -17 -23 -54 -30 -83 -6 -28
-22 -64 -35 -80 -13 -16 -24 -36 -24 -45 0 -8 -9 -30 -20 -48 -11 -18 -20 -47
-20 -65 0 -17 -4 -35 -10 -38 -6 -3 -10 -27 -10 -52 0 -49 -12 -96 -37 -150
-27 -55 -15 -64 79 -61 l83 3 2 40 c10 150 16 191 33 210 10 11 20 38 24 60
20 141 24 158 54 225 9 19 23 58 32 85 23 67 43 69 70 8 12 -26 25 -57 30 -68
5 -11 12 -31 16 -45 3 -14 14 -34 24 -45 10 -11 20 -36 24 -56 3 -20 15 -44
26 -54 11 -10 20 -23 20 -29 0 -7 20 -32 45 -56 25 -24 45 -53 45 -63 0 -10 8
-26 18 -35 24 -22 45 -87 37 -113 -4 -12 0 -30 10 -45 14 -22 22 -25 68 -22
l52 3 2 58 c1 51 -4 67 -38 127 -21 38 -39 74 -39 80 0 7 -24 37 -54 68 -67
72 -76 89 -76 151 0 41 -4 52 -21 61 -11 7 -27 26 -35 43 -8 18 -33 60 -57 94
-23 34 -55 84 -71 110 -17 26 -36 52 -43 56 -24 15 -14 51 22 80 23 18 35 36
35 53 0 26 33 98 49 108 25 16 121 254 121 301 0 11 9 34 20 50 24 37 26 87 3
121 -15 24 -15 27 0 54 19 31 23 133 8 173 -5 14 -7 47 -3 73 8 57 28 67 65
32 13 -13 41 -34 61 -48 21 -14 43 -30 50 -36 16 -15 73 -44 85 -44 6 0 33
-16 60 -35 26 -19 57 -35 68 -35 23 0 73 50 73 73 0 24 -47 97 -63 97 -6 0
-38 18 -70 40 -31 22 -61 40 -66 40 -5 0 -36 30 -70 66 -42 44 -79 73 -115 89
-64 28 -67 32 -72 93 -6 87 -16 147 -25 156 -5 6 -9 24 -9 41 0 16 -9 55 -20
85 -11 30 -20 62 -20 71 0 9 -7 22 -16 30 -23 19 -51 81 -46 102 5 22 -14 46
-45 58 -19 7 -23 16 -23 53 0 27 -6 48 -16 57 -20 17 -84 113 -84 127 0 36
-97 43 -127 10z m98 -205 c6 -16 17 -41 25 -57 8 -16 14 -36 14 -46 0 -9 15
-31 34 -49 19 -18 37 -45 41 -60 3 -14 18 -48 32 -76 25 -46 42 -118 47 -190
1 -16 6 -39 11 -50 32 -78 35 -94 35 -215 0 -94 -4 -135 -15 -156 -11 -22 -13
-47 -9 -105 6 -68 4 -85 -20 -146 -28 -74 -27 -96 8 -124 17 -14 18 -20 9 -45
-6 -16 -14 -42 -18 -59 -3 -16 -19 -47 -36 -67 -21 -27 -29 -48 -29 -77 0 -22
-4 -42 -9 -46 -6 -3 -20 -27 -33 -53 -12 -26 -36 -63 -53 -83 -16 -19 -35 -44
-41 -55 -15 -25 -35 -9 -53 43 -7 21 -19 45 -26 53 -7 8 -23 35 -35 59 -12 25
-29 51 -36 59 -8 7 -14 32 -14 54 0 22 -6 52 -14 66 -33 62 -66 146 -66 171 0
14 -9 40 -20 56 -16 24 -20 47 -20 112 0 45 -4 85 -10 88 -5 3 -10 43 -10 88
-1 56 -5 88 -15 101 -19 25 -19 53 0 90 8 15 15 46 15 67 0 21 5 41 10 44 6 3
10 13 10 22 0 8 12 38 26 67 41 81 74 191 93 309 7 47 22 67 49 67 8 0 12 16
12 46 0 37 6 53 33 84 38 47 63 51 78 13z"/>
<path d="M996 3181 c-30 -31 -35 -85 -11 -110 36 -37 76 -96 82 -120 11 -44
50 -126 67 -140 9 -7 16 -21 16 -30 0 -9 16 -46 35 -81 19 -36 35 -72 35 -81
0 -9 9 -24 20 -34 15 -13 20 -31 20 -66 0 -26 4 -50 9 -53 5 -4 12 -24 16 -47
5 -30 3 -45 -9 -58 -9 -10 -16 -22 -16 -28 0 -5 -9 -18 -20 -28 -11 -10 -20
-23 -20 -30 0 -7 -9 -20 -20 -30 -11 -10 -20 -23 -20 -29 0 -7 -21 -32 -46
-56 -101 -98 -116 -143 -118 -355 0 -95 3 -139 14 -163 19 -41 9 -59 -53 -93
-26 -14 -60 -37 -75 -52 -15 -15 -31 -27 -35 -27 -3 0 -18 -11 -32 -26 -14
-14 -29 -22 -34 -19 -17 10 -42 69 -46 105 -2 20 -17 66 -34 103 l-31 67 -65
0 c-53 0 -66 -3 -75 -19 -16 -31 -12 -107 6 -122 24 -20 74 -111 74 -136 0
-13 16 -54 36 -93 l35 -70 67 0 c59 1 71 4 102 30 19 17 40 30 47 30 7 0 20
11 29 25 11 17 25 25 46 25 29 0 30 -1 23 -38 -9 -48 -31 -82 -54 -82 -10 0
-26 -9 -35 -19 -10 -11 -32 -25 -49 -32 -18 -7 -50 -28 -72 -46 -101 -84 -91
-78 -114 -64 -15 10 -41 75 -41 104 0 11 -9 30 -20 44 -11 14 -20 32 -20 39 0
7 -11 21 -24 29 -13 9 -26 25 -29 35 -8 32 -81 28 -103 -5 -21 -31 -14 -97 13
-128 25 -29 50 -85 57 -125 3 -18 21 -66 40 -106 l34 -74 66 3 c51 1 72 7 89
22 12 11 36 28 54 37 18 9 53 31 78 48 45 32 107 71 133 84 25 13 43 -7 82
-93 25 -53 58 -106 84 -133 76 -80 77 -81 70 -205 -6 -89 -4 -116 9 -140 11
-23 14 -51 10 -123 -5 -80 -3 -95 12 -112 25 -27 61 -25 80 4 14 21 14 40 5
152 -22 255 -23 289 -6 303 8 7 35 11 63 9 l48 -3 3 -180 c2 -152 0 -186 -14
-218 -17 -37 -17 -38 6 -62 30 -32 50 -32 83 3 l27 28 0 232 0 232 25 27 c54
60 115 154 115 178 0 14 4 33 10 43 5 9 19 46 31 82 12 36 25 69 30 74 5 6 9
24 9 41 0 17 4 35 9 41 14 13 17 370 4 386 -10 12 -16 37 -30 118 -3 19 -16
52 -29 72 -13 21 -24 51 -24 66 0 16 -11 46 -25 66 -14 20 -25 43 -25 51 0 8
-13 29 -28 47 -15 18 -41 53 -57 78 -27 41 -79 104 -155 188 -24 26 -30 42
-30 78 0 24 7 56 16 69 13 20 14 28 5 39 -17 21 -3 85 26 121 98 122 103 130
103 167 0 21 -4 46 -9 56 -6 9 -12 29 -15 44 -4 19 -15 30 -38 37 -18 6 -58
29 -88 51 -30 22 -71 47 -90 55 -19 9 -44 24 -55 34 -11 10 -30 22 -43 26 -12
3 -43 24 -67 45 -37 32 -52 38 -89 38 -35 0 -49 -5 -70 -27z m329 -271 c10
-11 26 -22 36 -25 30 -10 22 -46 -18 -87 -41 -42 -54 -46 -74 -22 -12 15 -38
80 -39 96 0 14 46 58 61 58 9 0 24 -9 34 -20z m76 -742 c11 -13 36 -47 55 -76
20 -30 51 -63 70 -74 19 -11 34 -27 34 -36 0 -9 12 -33 26 -53 14 -21 24 -46
22 -56 -4 -24 -60 -29 -90 -9 -12 9 -43 16 -68 16 -25 0 -53 7 -63 15 -10 7
-33 12 -50 10 -18 -2 -60 -7 -95 -9 -60 -6 -63 -5 -73 20 -11 32 -4 45 69 124
29 30 52 60 52 65 0 18 61 85 77 85 8 0 24 -10 34 -22z m-203 -430 c9 -9 48
-13 112 -14 65 -1 105 -6 115 -14 12 -10 42 -11 119 -7 107 6 126 1 126 -35 0
-9 7 -37 15 -60 17 -53 24 -193 9 -208 -7 -7 -21 -6 -46 5 -23 9 -57 13 -90
11 -34 -3 -63 1 -82 11 -17 9 -41 13 -60 9 -18 -3 -42 1 -56 8 -18 10 -49 13
-115 9 -115 -7 -118 -4 -116 110 1 60 7 96 24 134 24 57 27 59 45 41z m96
-450 c10 -6 87 -8 175 -7 86 2 162 0 169 -4 6 -5 12 -18 12 -30 0 -28 -116
-255 -146 -286 -13 -13 -24 -29 -24 -35 0 -15 -48 -66 -62 -66 -14 0 -167 161
-168 176 0 6 -8 19 -19 28 -10 9 -22 31 -25 48 -3 18 -12 39 -20 47 -17 20
-26 113 -14 136 8 13 19 15 56 9 26 -4 55 -11 66 -16z"/>
</g>
</svg>
