<?xml version="1.0" standalone="no"?>
<!DOCTYPE svg PUBLIC "-//W3C//DTD SVG 20010904//EN"
 "http://www.w3.org/TR/2001/REC-SVG-20010904/DTD/svg10.dtd">
<svg version="1.0" xmlns="http://www.w3.org/2000/svg"
 width="100.000000pt" height="94.000000pt" viewBox="0 0 100.000000 94.000000"
 preserveAspectRatio="xMidYMid meet">
<metadata>
Created by potrace 1.16, written by Peter Selinger 2001-2019
</metadata>
<g transform="translate(0.000000,94.000000) scale(0.100000,-0.100000)"
fill="#000000" stroke="none">
<path d="M119 833 c-49 -115 -64 -207 -63 -403 1 -163 4 -196 26 -274 24 -91
46 -122 69 -99 10 10 5 34 -21 108 l-33 96 5 187 c5 183 6 189 42 296 20 61
34 116 32 123 -11 28 -37 12 -57 -34z"/>
<path d="M805 861 c-3 -6 7 -39 23 -73 51 -108 65 -197 60 -381 -5 -138 -9
-175 -32 -251 -23 -76 -25 -91 -13 -103 20 -20 32 -2 64 98 26 80 27 94 27
274 -1 198 -19 316 -62 405 -17 35 -54 52 -67 31z"/>
<path d="M620 808 c-11 -18 -32 -72 -47 -121 -26 -83 -31 -91 -76 -123 -50
-36 -58 -62 -16 -55 69 11 73 9 81 -39 4 -25 24 -78 44 -118 39 -81 39 -80 -1
-190 -27 -76 -26 -92 6 -92 22 0 33 23 46 94 4 27 13 51 18 53 6 2 27 -31 48
-72 36 -73 58 -92 71 -59 6 14 -10 57 -36 99 -7 11 -25 41 -41 67 l-28 46 30
58 c25 46 31 69 31 120 0 35 4 64 9 64 6 0 26 -9 45 -21 35 -21 56 -19 56 5 0
7 -22 32 -50 55 -37 31 -52 52 -60 84 -23 91 -73 177 -104 177 -4 0 -15 -14
-26 -32z m76 -120 c21 -66 16 -243 -10 -303 l-17 -40 -18 22 c-19 22 -61 162
-61 200 0 21 43 163 55 183 11 19 32 -7 51 -62z"/>
<path d="M243 794 c-3 -8 11 -50 31 -93 20 -42 36 -86 36 -97 0 -11 -13 -38
-30 -60 -24 -32 -29 -49 -30 -95 0 -80 -35 -107 -65 -49 -16 31 -39 40 -48 18
-2 -7 4 -33 15 -57 18 -42 20 -43 53 -38 41 7 45 -4 10 -27 -33 -22 -43 -20
-57 9 -10 23 -48 36 -48 16 0 -18 29 -78 44 -90 13 -11 21 -9 49 8 19 12 41
21 48 21 24 0 52 -62 58 -130 l6 -65 40 0 40 0 5 65 c3 38 15 85 29 113 48
101 38 193 -33 300 -39 58 -45 92 -21 123 33 43 18 69 -66 118 -53 30 -58 31
-66 10z m162 -384 c8 -7 15 -21 15 -32 0 -17 -6 -19 -61 -16 -70 3 -94 23 -69
53 16 20 89 16 115 -5z m-7 -104 c9 -10 -29 -76 -44 -76 -12 0 -64 55 -64 69
0 17 17 23 58 18 24 -3 46 -8 50 -11z"/>
</g>
</svg>
