<?xml version="1.0" standalone="no"?>
<!DOCTYPE svg PUBLIC "-//W3C//DTD SVG 20010904//EN"
 "http://www.w3.org/TR/2001/REC-SVG-20010904/DTD/svg10.dtd">
<svg version="1.0" xmlns="http://www.w3.org/2000/svg"
 width="1598.000000pt" height="1500.000000pt" viewBox="0 0 1598.000000 1500.000000"
 preserveAspectRatio="xMidYMid meet">
<metadata>
Created by potrace 1.16, written by Peter Selinger 2001-2019
</metadata>
<g transform="translate(0.000000,1500.000000) scale(0.500000,-0.500000)"
fill="#000000" stroke="none">
<path d="M475 2791 c-13 -6 -20 -14 -24 -28 -2 -8 -6 -15 -12 -21 -22 -25 -24
-30 -24 -60 0 -25 -1 -28 -6 -40 -7 -18 -24 -50 -31 -61 -3 -6 -7 -14 -8 -18
-1 -4 -6 -14 -10 -21 -5 -9 -8 -16 -9 -25 -1 -7 -4 -16 -7 -22 -4 -7 -6 -13
-6 -18 0 -5 -3 -13 -7 -23 -7 -13 -8 -17 -9 -33 0 -23 -1 -24 -8 -36 -4 -6 -7
-14 -9 -23 -2 -8 -6 -21 -10 -30 -5 -12 -8 -21 -9 -33 -1 -9 -4 -23 -8 -33 -4
-12 -6 -21 -6 -30 0 -10 -1 -14 -7 -26 -8 -14 -8 -14 -9 -45 -1 -25 -2 -31 -5
-35 -14 -21 -13 -14 -13 -63 0 -43 0 -43 -7 -55 -9 -14 -12 -31 -10 -52 2 -18
-1 -35 -8 -52 -5 -13 -5 -13 -5 -83 1 -91 1 -85 -8 -104 l-7 -16 0 -359 0
-359 9 -19 c8 -18 8 -18 8 -63 -1 -44 -1 -44 6 -63 6 -19 6 -20 7 -58 0 -39 0
-39 7 -55 6 -13 8 -19 9 -33 1 -18 7 -34 26 -65 8 -13 8 -13 8 -41 0 -26 0
-28 6 -41 4 -8 7 -19 8 -25 1 -8 4 -14 10 -24 5 -7 9 -13 9 -15 0 -1 3 -8 7
-16 4 -8 8 -21 10 -30 1 -8 5 -19 8 -25 3 -5 6 -15 7 -22 1 -6 4 -15 6 -20 5
-10 5 -13 1 -26 -5 -13 -2 -23 10 -36 13 -14 13 -14 13 -54 -1 -58 8 -68 64
-68 36 0 37 0 58 20 23 22 22 31 -2 58 -15 15 -20 25 -27 51 -3 11 -8 24 -11
30 -7 10 -7 11 -8 37 -1 26 -1 28 -8 40 -7 12 -7 14 -8 40 -1 31 -2 33 -18 41
-13 7 -13 6 -14 46 -1 37 -8 57 -29 88 -3 4 -5 12 -6 18 -1 8 -3 16 -8 23 -6
11 -6 12 -7 40 -2 32 -3 35 -19 44 -17 9 -16 5 -17 72 -1 59 -1 59 -9 76 l-7
16 0 78 c0 42 1 150 2 239 1 89 2 212 2 274 l0 111 7 18 8 17 1 140 1 140 8
14 c7 12 8 15 9 34 1 18 2 22 9 35 8 15 8 15 8 37 0 19 1 24 5 34 5 12 5 14
-3 34 -8 21 -4 42 11 58 11 13 16 23 16 36 0 17 4 31 10 42 6 9 7 12 8 31 2
24 5 32 15 39 7 4 12 14 15 27 1 6 5 19 9 28 4 9 8 23 9 31 1 7 4 16 7 20 9
13 10 16 11 37 1 20 2 22 9 35 4 7 7 15 7 19 0 4 3 14 7 21 4 9 7 18 7 22 0 8
2 14 13 32 1 3 5 10 7 15 6 14 21 40 27 50 7 9 20 40 22 52 6 38 -49 80 -84
63z"/>
<path d="M2639 2764 c-57 -14 -54 -94 5 -116 14 -5 19 -10 23 -22 2 -5 6 -14
10 -19 9 -12 11 -18 11 -38 0 -17 2 -24 13 -38 11 -15 15 -29 16 -50 1 -16 2
-20 8 -30 4 -7 8 -17 9 -26 1 -8 5 -19 9 -27 4 -7 8 -20 10 -29 3 -16 6 -22
18 -32 8 -8 11 -18 11 -35 0 -11 1 -15 7 -27 8 -15 11 -30 11 -46 0 -13 5 -23
20 -40 16 -19 19 -39 7 -61 -6 -12 -6 -18 1 -33 6 -11 6 -13 5 -29 -1 -15 -1
-19 4 -32 7 -20 11 -35 11 -46 0 -6 2 -13 6 -21 3 -7 7 -15 8 -18 2 -5 3 -37
4 -144 l1 -138 8 -15 8 -15 -1 -353 c0 -370 0 -360 -9 -374 -9 -14 -9 -22 -9
-79 1 -59 2 -56 -18 -68 -12 -7 -14 -14 -14 -43 0 -24 0 -25 -6 -36 -5 -8 -7
-14 -8 -25 -1 -13 -2 -16 -9 -25 -5 -6 -10 -14 -11 -18 -1 -4 -6 -14 -10 -22
-7 -15 -7 -15 -5 -44 1 -33 0 -36 -13 -43 -15 -8 -17 -11 -18 -44 -1 -28 -1
-28 -9 -41 -8 -13 -8 -13 -9 -40 -1 -24 -2 -28 -6 -37 -3 -5 -9 -22 -14 -36
-4 -14 -10 -29 -13 -33 -15 -21 -16 -24 -17 -45 -3 -79 75 -87 102 -10 4 10
10 25 14 33 7 12 8 16 8 25 0 13 2 17 13 29 13 14 16 25 11 37 -5 13 -5 19 2
29 4 5 7 12 8 19 2 13 13 42 22 59 5 7 7 15 8 24 1 12 3 16 9 25 6 9 8 13 9
23 1 10 3 17 8 26 7 12 8 15 9 32 1 14 2 21 6 29 3 6 6 16 7 22 1 5 5 17 9 25
6 13 7 18 9 36 1 16 2 23 5 27 12 16 12 17 13 64 1 44 1 44 10 63 9 19 9 19 7
59 -1 39 -1 39 6 62 l7 22 0 352 0 352 -7 22 c-7 22 -7 22 -7 99 l1 77 -8 15
c-8 15 -8 15 -9 53 -1 40 -1 40 -13 57 -5 7 -5 7 -5 49 0 45 -1 49 -10 62 -5
7 -5 9 -6 36 -1 25 -2 29 -7 43 -5 11 -7 19 -8 31 0 13 -2 17 -8 30 -7 12 -8
16 -9 34 -1 17 -2 21 -9 33 -5 10 -8 19 -9 28 -1 8 -4 17 -8 24 -6 9 -7 13 -7
27 -1 18 -3 25 -10 42 -3 5 -5 14 -5 18 0 6 -2 11 -5 15 -3 4 -8 13 -11 20 -4
7 -9 18 -12 25 -3 7 -7 18 -8 26 -2 14 -6 23 -16 38 -3 5 -8 15 -11 22 -3 8
-8 18 -11 23 -4 7 -5 13 -6 31 -3 36 -13 48 -44 54 -14 3 -27 10 -40 24 -9 10
-26 15 -39 11z"/>
<path d="M2067 2660 c-13 -6 -38 -34 -46 -52 -5 -9 -11 -19 -17 -25 -7 -7 -11
-14 -13 -21 -2 -6 -6 -16 -10 -23 -5 -9 -7 -15 -7 -21 0 -6 -3 -14 -14 -35
-10 -19 -14 -30 -17 -43 -3 -13 -6 -22 -17 -40 -15 -27 -20 -37 -20 -40 0 -1
-5 -8 -12 -15 -17 -18 -17 -17 -16 -73 0 -56 1 -55 -18 -65 -15 -9 -17 -14
-17 -53 0 -38 -3 -46 -19 -70 -5 -7 -10 -17 -12 -23 -2 -7 -7 -16 -11 -22 -6
-10 -6 -10 -6 -46 0 -35 0 -36 -5 -47 -3 -6 -6 -16 -7 -22 -2 -14 -14 -27 -37
-37 -15 -7 -24 -12 -35 -18 -3 -1 -18 -8 -32 -15 -32 -16 -36 -19 -40 -33 -5
-15 -11 -20 -27 -22 -19 -2 -23 -4 -50 -31 -15 -15 -29 -27 -34 -29 -19 -10
-61 -29 -66 -30 -39 -11 -51 -51 -24 -79 17 -18 67 -20 92 -4 6 5 13 7 24 9 9
1 19 4 22 6 4 3 12 8 19 12 7 4 17 8 27 10 20 5 25 7 39 21 14 13 20 16 35 20
6 1 17 5 24 8 17 7 19 7 31 0 6 -3 13 -6 17 -6 27 0 30 -6 30 -52 -1 -35 -1
-35 7 -50 8 -15 8 -15 7 -48 0 -36 0 -40 11 -55 5 -7 5 -8 5 -38 0 -49 4 -61
31 -93 17 -20 19 -25 19 -47 0 -18 3 -25 14 -36 11 -10 14 -18 15 -38 1 -12 3
-20 8 -31 4 -8 7 -17 8 -20 1 -2 5 -8 8 -13 4 -6 10 -16 14 -23 3 -8 10 -18
17 -25 15 -17 28 -45 28 -63 0 -31 -1 -30 66 -93 37 -33 36 -32 36 -82 0 -33
0 -33 -7 -49 -3 -8 -8 -22 -10 -30 -3 -15 -17 -45 -28 -59 -9 -12 -21 -45 -23
-62 -2 -22 -13 -50 -24 -62 -18 -20 -25 -32 -27 -44 -1 -9 -4 -19 -15 -40 -14
-27 -14 -28 -16 -48 -1 -18 -2 -22 -9 -35 -8 -15 -8 -15 -9 -51 -1 -36 -1 -36
-10 -48 -8 -11 -8 -11 -9 -30 0 -18 -1 -19 -9 -32 -10 -18 -12 -27 -6 -40 7
-16 9 -16 70 -15 76 1 75 0 75 47 0 28 0 31 6 44 5 14 5 14 5 54 -1 45 -1 44
15 61 16 16 18 22 17 51 0 25 0 25 7 38 8 14 8 14 9 44 1 28 2 31 8 43 4 8 6
16 6 22 0 6 2 11 8 21 4 8 8 15 8 17 0 2 6 16 14 32 9 19 15 32 16 40 7 44 38
26 56 -33 2 -6 6 -16 9 -20 10 -17 15 -28 15 -37 0 -12 7 -26 21 -42 10 -13
11 -15 13 -27 1 -7 4 -18 7 -25 2 -6 6 -14 7 -18 1 -4 8 -14 15 -22 8 -9 14
-18 16 -24 3 -10 14 -23 45 -54 20 -21 19 -20 21 -33 2 -14 4 -18 15 -30 10
-11 14 -18 17 -28 1 -3 4 -13 8 -22 8 -16 8 -16 6 -36 -3 -45 12 -63 54 -65
57 -2 61 3 59 66 -1 42 -1 42 -8 50 -3 5 -8 13 -10 18 -9 20 -25 52 -31 61 -4
5 -9 17 -12 26 -7 21 -15 30 -58 74 -16 15 -29 29 -31 32 -18 37 -18 38 -18
72 0 38 -1 42 -17 51 -15 8 -23 19 -30 41 -2 7 -7 15 -14 23 -6 7 -13 16 -15
21 -5 9 -16 24 -27 37 -4 5 -11 15 -14 23 -4 8 -11 21 -15 29 -4 8 -12 19 -17
24 -6 6 -10 12 -12 18 -2 6 -7 14 -14 21 -24 25 -23 30 15 63 22 21 26 27 28
51 2 22 16 52 31 69 13 14 26 35 31 48 2 6 6 15 8 19 11 19 21 38 24 43 2 3 6
13 8 23 3 10 7 23 9 30 3 7 6 18 8 25 2 7 5 16 8 21 2 6 4 14 5 27 2 21 12 46
26 67 14 19 14 64 0 81 -13 17 -14 31 -2 49 12 18 13 103 1 137 -6 18 -6 27
-1 40 2 6 4 15 4 23 0 32 18 39 42 16 8 -9 16 -15 23 -18 6 -3 18 -11 27 -19
9 -8 21 -16 27 -19 5 -3 15 -10 21 -16 7 -7 15 -12 22 -15 6 -2 15 -7 21 -11
8 -6 13 -8 24 -9 13 -2 20 -5 27 -15 2 -2 10 -8 18 -12 7 -4 15 -8 16 -10 39
-47 115 27 84 80 -5 8 -11 19 -15 25 -7 11 -13 16 -27 20 -5 2 -13 7 -18 11
-5 5 -19 14 -30 21 -12 7 -25 16 -31 21 -6 5 -15 10 -21 13 -11 3 -15 7 -61
54 -46 45 -51 50 -64 56 -7 3 -17 8 -21 11 -4 3 -12 7 -19 9 -35 12 -42 23
-40 64 1 31 1 31 -7 44 -9 13 -9 13 -10 45 -1 32 -1 32 -8 42 -7 10 -7 10 -8
38 -1 20 -2 30 -5 36 -2 4 -6 17 -9 28 -4 11 -8 26 -11 32 -3 7 -5 15 -5 18 0
9 -6 20 -17 31 -19 20 -33 50 -33 71 0 26 -12 44 -35 54 -16 7 -17 10 -17 37
1 31 0 34 -25 60 -18 18 -21 23 -24 33 -3 7 -7 15 -14 23 -6 7 -12 15 -13 19
-8 21 -19 35 -33 39 -14 4 -53 2 -62 -2z m48 -166 c5 -3 7 -6 19 -34 5 -10 11
-25 15 -33 5 -9 7 -16 7 -22 0 -13 7 -24 32 -50 19 -20 24 -26 26 -33 10 -36
17 -55 26 -67 5 -7 11 -17 12 -22 1 -5 5 -14 9 -21 6 -11 6 -12 6 -34 0 -21 1
-24 6 -37 5 -13 6 -17 7 -43 1 -28 1 -30 7 -37 7 -10 11 -19 11 -30 0 -7 2
-11 8 -21 l9 -13 2 -59 c3 -118 1 -156 -7 -169 -11 -16 -12 -21 -12 -95 l0
-66 -9 -22 c-5 -11 -9 -25 -10 -29 -1 -4 -4 -15 -7 -23 -11 -27 -6 -55 12 -70
16 -13 17 -25 4 -44 -6 -10 -7 -11 -8 -28 -1 -27 -12 -51 -35 -76 -13 -14 -13
-15 -13 -45 0 -31 0 -30 -15 -48 -4 -5 -9 -13 -11 -19 -2 -6 -7 -14 -10 -19
-3 -4 -8 -14 -11 -21 -4 -12 -9 -17 -28 -37 -12 -13 -24 -28 -27 -33 -12 -24
-25 -25 -34 -3 -3 7 -8 17 -11 23 -4 6 -9 16 -10 22 -2 7 -7 14 -14 23 -7 8
-13 18 -18 29 -9 20 -27 51 -35 59 -11 10 -12 14 -12 44 0 30 -2 39 -13 55
-10 14 -13 21 -15 35 -1 7 -5 19 -9 27 -3 7 -8 16 -9 20 -2 4 -6 12 -10 18 -8
11 -8 11 -8 30 0 22 -2 29 -13 43 -15 20 -16 25 -17 92 -1 60 -1 60 -7 69 -14
19 -13 16 -13 76 0 60 -1 65 -11 81 -10 16 -9 51 1 68 10 16 12 25 12 52 0 23
0 23 8 35 6 8 8 15 9 21 2 14 23 62 38 87 5 7 8 16 10 26 1 9 6 21 9 28 3 7 8
20 10 29 2 9 5 21 8 26 3 6 5 17 6 28 1 12 4 22 7 31 5 12 6 15 6 39 1 36 6
45 31 57 15 6 17 10 17 42 0 31 0 30 21 54 32 36 38 40 51 34z"/>
<path d="M817 2563 c-46 -22 -58 -78 -24 -112 9 -9 13 -15 16 -23 2 -8 6 -14
14 -21 9 -9 14 -16 31 -49 2 -4 4 -11 4 -17 0 -8 1 -12 7 -21 4 -6 9 -15 11
-21 5 -14 21 -43 29 -51 12 -13 15 -20 17 -34 1 -11 3 -16 10 -26 4 -7 9 -15
10 -19 1 -5 9 -19 16 -33 10 -19 14 -28 14 -33 0 -11 8 -27 21 -41 13 -14 13
-13 13 -48 1 -27 1 -27 9 -40 4 -9 8 -19 10 -29 2 -8 4 -17 5 -20 4 -11 -1
-26 -13 -41 -3 -3 -8 -13 -11 -20 -4 -10 -10 -18 -18 -27 -7 -8 -12 -15 -14
-21 -2 -6 -6 -13 -14 -21 -8 -8 -14 -17 -18 -26 -6 -13 -10 -18 -46 -54 -34
-35 -40 -41 -43 -50 -2 -7 -6 -13 -12 -19 -14 -13 -15 -17 -15 -50 0 -26 0
-28 -5 -34 -13 -18 -12 -10 -11 -116 0 -108 -1 -96 14 -125 7 -11 8 -38 2 -48
-4 -9 -22 -27 -27 -27 -11 0 -51 -25 -70 -44 -16 -16 -22 -20 -31 -23 -8 -3
-12 -6 -19 -13 -20 -25 -40 -26 -48 -5 -2 6 -7 15 -11 22 -11 17 -12 21 -12
43 0 11 -1 22 -3 26 -1 4 -6 17 -11 29 -4 12 -11 25 -14 30 -3 5 -8 14 -10 20
-10 30 -19 35 -66 35 -62 0 -69 -7 -69 -67 1 -41 1 -43 14 -55 23 -22 55 -83
57 -109 2 -20 8 -34 28 -66 5 -7 11 -21 15 -31 10 -28 8 -27 59 -28 58 -1 60
0 74 13 18 17 37 29 58 36 8 3 12 5 17 12 6 9 22 19 30 19 37 0 21 -81 -17
-90 -8 -2 -13 -5 -23 -14 -12 -11 -26 -19 -59 -34 -13 -6 -21 -11 -31 -20 -18
-17 -34 -29 -45 -34 -5 -2 -12 -7 -16 -12 -19 -22 -54 -15 -54 10 0 1 -4 12
-10 24 -9 19 -10 23 -10 35 0 15 -2 21 -13 31 -4 4 -8 11 -11 19 -6 18 -16 33
-28 43 -7 5 -13 12 -17 20 -9 17 -27 23 -58 19 -44 -5 -55 -87 -17 -125 9 -9
12 -14 15 -22 1 -6 6 -16 10 -22 15 -24 18 -31 19 -55 1 -20 2 -23 8 -32 3 -5
7 -14 9 -20 25 -74 37 -86 96 -86 54 -1 56 0 76 20 10 10 16 14 26 19 18 7 44
22 55 33 6 5 15 11 21 14 7 3 17 10 25 18 13 12 42 29 49 29 2 0 8 5 15 10 23
18 56 8 56 -17 0 -1 4 -8 8 -15 4 -7 9 -18 11 -24 2 -6 9 -23 17 -37 7 -14 15
-30 17 -35 3 -8 10 -16 36 -42 27 -26 34 -34 39 -44 3 -7 9 -17 13 -23 6 -10
6 -10 5 -66 -2 -126 -2 -131 7 -147 9 -17 9 -24 5 -112 -3 -59 0 -69 27 -84
17 -10 31 -7 49 9 17 16 17 17 14 88 -1 33 -2 70 -2 82 0 28 -2 42 -10 58 -8
16 -12 116 -5 130 10 21 82 23 92 2 4 -9 4 -8 2 -133 -2 -146 -2 -148 -13
-168 -33 -63 39 -98 86 -41 18 22 16 15 15 79 -5 277 -6 293 -1 301 5 11 18
26 29 34 5 5 10 11 13 17 2 5 8 13 13 18 5 5 11 13 14 19 5 10 20 30 33 46 7
7 7 8 8 30 1 22 2 23 9 35 6 10 8 16 9 26 1 9 3 16 7 22 4 6 6 13 7 21 1 7 3
16 5 20 3 3 7 13 10 20 3 8 6 15 7 16 6 4 10 18 11 37 1 13 2 21 5 26 14 28
13 10 13 162 l0 137 -9 15 c-8 14 -9 16 -10 34 -2 21 -2 23 -11 36 -5 8 -6 11
-7 29 -2 24 -4 30 -14 46 -15 21 -24 42 -24 55 0 23 -10 49 -26 67 -7 8 -12
16 -13 20 -4 23 -10 33 -24 49 -22 24 -28 32 -32 42 -2 6 -8 15 -14 22 -8 9
-12 15 -13 22 -2 8 -6 12 -38 44 -32 31 -36 37 -44 52 -7 13 -12 19 -25 31
-28 26 -36 86 -15 115 11 16 12 25 3 37 -7 12 -8 19 -3 28 2 5 5 14 6 21 2 15
8 26 20 39 6 6 12 15 15 22 4 8 10 16 25 31 42 43 56 98 33 133 -4 4 -6 12 -7
19 -4 24 -13 36 -32 42 -7 2 -17 7 -21 10 -5 3 -13 8 -20 10 -6 2 -15 8 -20
13 -6 5 -16 11 -23 15 -7 3 -19 12 -27 19 -11 10 -18 14 -29 18 -20 7 -38 18
-52 30 -7 7 -20 15 -37 23 -24 12 -27 14 -46 33 -28 27 -83 40 -112 26z m240
-234 c15 -13 27 -23 35 -28 18 -11 10 -32 -25 -68 -25 -25 -29 -26 -49 -9 -10
9 -15 18 -17 33 0 5 -3 13 -6 19 -18 34 34 78 62 53z m49 -584 c3 -1 8 -6 11
-10 3 -5 12 -15 20 -23 20 -21 31 -35 36 -48 7 -14 33 -41 54 -55 18 -12 22
-17 25 -34 1 -7 4 -14 8 -20 8 -11 22 -36 24 -46 7 -25 -40 -34 -71 -13 -12 8
-22 10 -45 9 -27 -2 -41 1 -55 10 l-11 7 -72 -2 c-88 -2 -88 -2 -93 22 -3 16
13 47 34 63 5 4 11 12 15 17 3 6 14 20 24 30 14 15 20 23 25 34 17 37 54 68
71 59z m-142 -360 c7 -4 9 -4 82 -5 78 -1 80 -1 91 -11 11 -9 13 -9 92 -7 99
2 103 1 103 -25 0 -7 2 -14 7 -25 4 -8 7 -17 7 -22 0 -4 3 -13 7 -21 8 -15 8
-15 9 -66 2 -77 -5 -91 -39 -76 -12 6 -12 6 -70 7 -62 1 -60 1 -76 13 -9 6 -9
6 -41 4 -31 -1 -31 -1 -46 7 -17 8 -39 9 -111 4 -42 -3 -47 -2 -61 12 -15 16
-15 14 -13 81 3 67 4 73 20 98 4 6 10 17 13 24 7 15 13 17 26 8z m70 -352 l17
-8 126 0 c69 0 127 -1 129 -2 13 -8 13 -48 1 -67 -3 -4 -7 -14 -11 -23 -4 -8
-10 -21 -15 -28 -5 -7 -12 -19 -14 -27 -3 -7 -8 -18 -12 -24 -4 -6 -7 -12 -7
-13 0 -1 -3 -7 -6 -12 -4 -6 -9 -15 -11 -22 -4 -8 -10 -16 -24 -32 -16 -17
-20 -22 -23 -32 -17 -50 -51 -59 -84 -22 -10 11 -34 36 -53 55 -31 31 -36 37
-42 50 -5 9 -12 20 -18 26 -7 8 -11 14 -13 20 -5 22 -19 54 -25 62 -18 21 -20
95 -2 106 12 8 66 4 87 -7z"/>
</g>
</svg>
