<?xml version="1.0" standalone="no"?>
<!DOCTYPE svg PUBLIC "-//W3C//DTD SVG 20010904//EN"
 "http://www.w3.org/TR/2001/REC-SVG-20010904/DTD/svg10.dtd">
<svg version="1.0" xmlns="http://www.w3.org/2000/svg"
 width="400.000000pt" height="376.000000pt" viewBox="0 0 400.000000 376.000000"
 preserveAspectRatio="xMidYMid meet">
<metadata>
Created by potrace 1.16, written by Peter Selinger 2001-2019
</metadata>
<g transform="translate(0.000000,376.000000) scale(0.100000,-0.100000)"
fill="#000000" stroke="none">
<path d="M588 3479 c-10 -5 -18 -16 -18 -23 0 -6 -11 -27 -25 -46 -17 -23 -23
-41 -19 -57 4 -15 -7 -50 -34 -105 -44 -89 -82 -193 -82 -223 0 -10 -8 -43
-19 -74 -34 -103 -41 -127 -41 -148 0 -11 -7 -33 -15 -49 -8 -16 -12 -39 -9
-51 4 -13 0 -33 -9 -46 -8 -12 -17 -56 -21 -97 -4 -41 -9 -91 -12 -110 -3 -19
-7 -89 -10 -155 -3 -72 -11 -132 -19 -151 -19 -41 -22 -882 -3 -917 11 -20 19
-87 32 -247 6 -79 20 -133 44 -175 12 -20 22 -53 22 -73 0 -20 12 -64 26 -97
39 -93 64 -174 64 -210 0 -18 7 -39 16 -46 12 -10 14 -23 10 -52 -10 -59 12
-87 67 -87 33 0 49 6 65 23 27 29 27 37 -1 63 -31 30 -58 119 -74 242 -3 27
-12 48 -24 55 -14 9 -19 23 -19 58 0 25 -8 61 -17 80 -28 54 -43 102 -43 137
0 20 -8 39 -20 49 -16 14 -20 30 -20 86 0 37 -6 83 -14 101 -11 27 -13 113
-10 476 3 261 8 450 14 460 6 10 10 100 10 199 0 109 4 182 10 186 6 3 10 20
10 36 0 17 5 40 11 51 7 12 12 58 11 102 0 58 4 86 15 98 9 10 19 34 24 55 4
21 12 58 18 83 5 24 14 46 19 48 6 2 18 29 27 60 9 31 21 65 26 74 5 10 9 28
9 42 0 30 30 107 86 223 48 99 49 115 2 147 -26 18 -36 19 -60 5z"/>
<path d="M3277 3432 c-10 -10 -17 -33 -17 -50 0 -27 6 -35 35 -49 38 -18 75
-77 75 -118 0 -14 9 -39 20 -57 11 -18 20 -42 20 -54 0 -28 49 -167 62 -175
10 -7 25 -63 35 -131 3 -20 14 -44 24 -54 21 -19 26 -73 8 -91 -8 -8 -8 -13 0
-17 6 -4 11 -20 11 -36 0 -16 8 -55 17 -87 24 -82 34 -360 34 -913 1 -546 -4
-635 -32 -650 -14 -8 -19 -21 -19 -55 0 -24 -4 -47 -10 -50 -5 -3 -10 -15 -10
-25 0 -11 -9 -34 -20 -52 -13 -22 -20 -51 -20 -85 0 -42 -4 -53 -19 -58 -13
-4 -21 -18 -24 -48 -16 -124 -44 -223 -74 -258 -20 -24 -16 -63 10 -87 13 -12
28 -22 34 -22 17 0 40 32 63 90 12 30 28 69 37 86 8 17 13 37 12 45 -4 18 31
128 42 135 5 3 9 15 9 28 0 12 4 26 8 32 5 5 14 29 21 54 32 114 53 187 63
215 10 31 24 129 34 245 7 77 7 971 0 1115 -7 149 -17 227 -32 257 -8 15 -14
52 -14 82 0 30 -4 58 -10 61 -5 3 -10 21 -10 39 0 35 -37 191 -64 266 -9 25
-16 55 -16 68 0 12 -13 52 -30 89 -16 36 -30 72 -30 80 0 7 -13 37 -30 66 -16
30 -30 67 -30 83 0 34 -16 54 -41 54 -10 0 -31 11 -47 25 -36 30 -53 31 -75 7z"/>
<path d="M2564 3298 c-37 -44 -64 -87 -84 -137 -11 -28 -29 -74 -40 -102 -30
-75 -56 -123 -75 -139 -13 -10 -16 -28 -13 -80 2 -57 -1 -69 -20 -88 -16 -16
-22 -34 -22 -65 0 -29 -10 -62 -29 -98 -19 -37 -30 -75 -34 -119 -3 -36 -8
-72 -12 -81 -3 -8 -44 -34 -91 -57 -60 -30 -87 -49 -94 -67 -6 -17 -17 -25
-33 -25 -13 0 -36 -14 -53 -31 -16 -17 -62 -46 -102 -65 -78 -36 -91 -52 -74
-90 10 -21 18 -24 61 -24 27 0 53 5 56 10 3 6 15 10 25 10 11 0 34 9 52 20 18
11 40 20 49 20 9 0 28 11 43 25 15 14 35 25 45 25 9 0 22 5 28 11 8 8 21 7 50
-2 53 -18 56 -22 59 -81 4 -74 18 -171 27 -186 5 -7 9 -36 10 -65 2 -40 9 -61
30 -88 15 -21 27 -49 27 -66 0 -17 8 -38 20 -48 11 -10 20 -28 20 -40 0 -30
22 -79 64 -145 20 -30 36 -67 36 -83 0 -22 16 -45 65 -96 64 -66 65 -69 65
-122 0 -58 -23 -131 -58 -189 -12 -19 -22 -49 -22 -66 0 -18 -13 -50 -30 -75
-16 -24 -30 -50 -30 -57 0 -7 -7 -23 -14 -35 -18 -27 -46 -124 -57 -197 -11
-76 -19 -111 -31 -137 -21 -43 -5 -54 74 -51 l73 3 8 55 c4 30 8 83 10 118 1
50 6 67 21 78 12 9 23 33 28 66 5 29 12 76 17 103 9 56 13 67 47 143 13 29 24
59 24 66 0 28 12 46 31 46 14 0 29 -20 54 -73 19 -41 35 -81 35 -90 0 -10 9
-26 20 -37 11 -11 20 -28 20 -37 0 -10 11 -36 25 -58 13 -22 28 -49 34 -60 5
-11 25 -36 45 -54 20 -19 36 -43 36 -53 0 -9 8 -22 18 -27 21 -11 42 -73 42
-124 0 -49 22 -69 74 -65 l41 3 3 55 c3 49 -3 67 -42 146 -26 51 -65 111 -91
138 -60 63 -76 95 -73 153 1 29 -3 48 -11 51 -16 5 -28 20 -49 58 -9 18 -33
56 -53 85 -20 30 -54 80 -75 113 -21 32 -43 65 -49 72 -7 11 1 24 33 53 31 29
42 46 42 69 0 17 14 50 33 78 55 82 127 253 127 302 0 8 12 39 27 69 l27 54
-17 49 c-13 37 -15 55 -7 69 6 12 9 74 8 150 -2 110 0 133 14 147 15 15 20 14
65 -23 70 -58 152 -112 181 -120 14 -3 46 -21 70 -40 24 -18 47 -33 52 -33 5
0 22 12 39 26 37 31 40 68 8 105 -19 23 -102 83 -159 115 -11 7 -47 38 -80 70
-33 33 -87 72 -121 89 l-62 30 -2 50 c-3 70 -17 146 -31 172 -7 12 -12 33 -12
48 0 41 -40 154 -71 200 -16 24 -29 56 -29 74 0 22 -8 36 -30 53 -24 17 -30
29 -30 60 0 28 -7 46 -27 68 -16 16 -43 54 -62 85 -32 53 -35 55 -76 55 -31 0
-47 -6 -61 -22z m111 -220 c14 -28 25 -59 25 -68 0 -9 18 -35 40 -58 22 -22
40 -50 40 -60 0 -11 12 -41 27 -68 25 -47 38 -96 50 -194 3 -25 9 -49 14 -54
5 -6 9 -20 9 -32 0 -13 5 -26 10 -29 6 -4 10 -67 10 -155 0 -88 -4 -151 -10
-155 -6 -3 -10 -50 -10 -105 0 -76 -5 -113 -20 -152 -25 -67 -25 -90 0 -113
21 -19 26 -50 10 -60 -5 -3 -10 -21 -10 -39 0 -21 -11 -48 -30 -74 -19 -27
-30 -54 -30 -76 0 -18 -8 -44 -17 -57 -10 -13 -27 -40 -37 -59 -10 -19 -29
-46 -41 -60 -12 -14 -30 -37 -40 -52 -9 -16 -23 -28 -30 -28 -7 0 -24 26 -39
58 -33 71 -73 142 -92 163 -8 8 -14 33 -14 55 0 22 -9 52 -20 69 -11 17 -20
36 -20 44 0 7 -11 36 -25 63 -14 27 -22 54 -19 59 3 5 -4 28 -15 50 -16 30
-21 58 -21 113 0 47 -6 84 -16 106 -12 23 -15 48 -11 89 3 38 0 65 -9 82 -18
32 -17 89 1 113 8 11 15 34 15 51 0 36 31 131 54 167 25 39 74 207 81 281 4
42 20 67 41 67 16 0 16 0 19 55 1 30 10 50 35 78 46 51 65 48 95 -15z"/>
<path d="M1003 3185 c-12 -8 -24 -29 -28 -45 -5 -25 0 -40 32 -86 66 -96 73
-109 73 -125 0 -22 45 -113 64 -128 9 -7 16 -21 16 -31 0 -10 14 -44 30 -75
17 -31 30 -63 30 -70 0 -7 9 -24 20 -38 12 -15 20 -40 20 -64 0 -21 4 -43 8
-49 4 -5 14 -26 21 -47 11 -33 10 -40 -8 -66 -12 -16 -21 -33 -21 -38 0 -6 -9
-18 -20 -28 -11 -10 -20 -22 -20 -27 0 -13 -35 -59 -97 -127 -29 -32 -53 -62
-53 -68 0 -6 -7 -16 -15 -23 -9 -7 -15 -29 -15 -54 0 -23 -6 -48 -12 -55 -9
-8 -13 -52 -14 -139 -1 -193 -18 -272 -59 -272 -6 0 -24 -14 -40 -30 -16 -17
-34 -30 -40 -30 -6 0 -22 -11 -35 -25 -13 -14 -28 -25 -34 -25 -17 0 -56 81
-56 115 0 17 -15 59 -33 95 l-32 65 -53 3 c-71 4 -82 -7 -82 -78 0 -45 4 -61
21 -76 27 -24 59 -87 59 -115 0 -12 11 -42 25 -68 13 -25 29 -58 34 -73 10
-26 14 -28 70 -28 50 0 67 5 112 35 30 19 65 43 78 55 39 33 61 27 61 -18 0
-37 -22 -82 -41 -82 -5 0 -28 -13 -51 -30 -22 -16 -47 -30 -54 -30 -11 0 -69
-43 -121 -91 -12 -11 -30 -19 -40 -17 -20 4 -52 61 -53 95 0 26 -46 107 -81
144 -32 34 -81 44 -103 20 -21 -23 -22 -114 -2 -130 22 -19 66 -108 66 -134 0
-13 16 -56 35 -95 l34 -71 66 1 c55 0 71 4 95 24 15 13 31 24 34 24 4 0 43 25
87 55 44 30 84 55 88 55 5 0 14 7 21 15 7 8 25 15 41 15 26 0 32 -8 74 -97 30
-63 58 -106 81 -126 69 -60 75 -93 88 -465 4 -108 13 -132 51 -132 42 0 47 19
41 162 -4 73 -7 174 -9 223 l-2 90 60 0 60 0 3 -185 c1 -119 -1 -194 -9 -212
-27 -65 30 -101 83 -52 l30 29 -5 220 c-3 174 -1 226 10 248 7 15 17 27 22 27
5 0 21 19 37 43 15 23 38 53 50 67 12 14 24 41 27 60 9 61 27 121 52 175 14
28 25 63 25 76 0 14 5 30 10 35 7 7 10 72 7 185 -4 167 -16 262 -37 283 -6 6
-10 22 -10 37 0 16 -9 43 -19 61 -11 18 -22 52 -26 75 -4 23 -17 54 -31 68
-13 14 -24 34 -24 44 0 10 -7 24 -15 31 -18 15 -75 97 -75 108 0 4 -24 33 -52
64 -111 120 -118 131 -118 187 0 28 5 60 12 70 8 14 9 26 2 42 -12 26 2 77 29
107 9 10 17 23 17 29 0 5 12 20 26 34 32 30 64 90 64 122 0 13 -7 32 -15 43
-8 10 -15 29 -15 42 0 17 -12 28 -52 47 -29 14 -71 38 -93 55 -22 16 -56 36
-75 45 -19 9 -44 24 -55 34 -11 10 -35 24 -53 31 -18 7 -43 26 -57 41 -20 25
-31 29 -72 29 -27 0 -58 -7 -70 -15z m331 -275 c16 -17 33 -30 38 -30 23 0 4
-50 -32 -85 -42 -41 -63 -42 -80 -4 -4 8 -12 24 -18 36 -19 36 -14 60 19 87
17 14 34 26 37 26 4 0 20 -14 36 -30z m86 -763 c20 -23 46 -58 60 -79 13 -20
37 -44 52 -53 15 -9 28 -22 28 -30 0 -8 11 -31 25 -51 14 -20 25 -49 25 -63 0
-15 7 -36 15 -47 8 -10 15 -36 15 -57 0 -22 6 -51 14 -65 24 -47 44 -125 50
-193 4 -55 2 -71 -16 -100 -17 -27 -20 -48 -19 -105 2 -57 -2 -75 -18 -96 -11
-14 -41 -68 -67 -119 -26 -52 -58 -107 -71 -124 -13 -16 -34 -46 -47 -65 -35
-56 -52 -51 -136 38 -88 94 -120 135 -120 155 0 8 -16 45 -36 83 l-36 69 3
130 c2 89 -1 137 -9 152 -18 32 -7 128 18 163 17 24 20 44 20 152 l0 124 60
70 c33 38 60 73 60 77 0 19 57 77 75 77 11 -1 36 -20 55 -43z"/>
</g>
</svg>
