<?xml version="1.0" standalone="no"?>
<!DOCTYPE svg PUBLIC "-//W3C//DTD SVG 20010904//EN"
 "http://www.w3.org/TR/2001/REC-SVG-20010904/DTD/svg10.dtd">
<svg version="1.0" xmlns="http://www.w3.org/2000/svg"
 width="1598.000000pt" height="1500.000000pt" viewBox="0 0 1598.000000 1500.000000"
 preserveAspectRatio="xMidYMid meet">
<metadata>
Created by potrace 1.16, written by Peter Selinger 2001-2019
</metadata>
<g transform="translate(0.000000,1500.000000) scale(0.500000,-0.500000)"
fill="#000000" stroke="none">
<path d="M479 2787 c-10 -4 -22 -17 -25 -28 -1 -5 -6 -13 -13 -21 -20 -24 -22
-29 -22 -59 0 -27 -6 -49 -19 -67 -2 -3 -8 -15 -14 -27 -26 -51 -30 -60 -30
-68 0 -6 -2 -12 -6 -20 -4 -7 -7 -17 -8 -24 -1 -8 -4 -15 -8 -23 -6 -10 -7
-12 -8 -33 -1 -22 -2 -24 -8 -32 -4 -7 -7 -14 -9 -24 -2 -8 -6 -21 -9 -29 -4
-10 -7 -21 -8 -31 -1 -10 -4 -21 -7 -29 -4 -9 -6 -19 -7 -31 -1 -16 -2 -20 -9
-33 -8 -15 -8 -15 -9 -44 -1 -31 -1 -32 -13 -48 -5 -6 -5 -7 -5 -49 0 -41 0
-41 -7 -58 -8 -16 -8 -16 -8 -47 -1 -30 -1 -32 -8 -51 -7 -20 -7 -20 -7 -97
l1 -77 -9 -18 -8 -19 0 -354 c0 -384 -1 -357 11 -380 6 -11 6 -11 6 -57 0 -47
1 -49 10 -75 5 -14 5 -16 5 -50 -1 -35 -1 -35 6 -51 5 -11 7 -21 8 -33 2 -18
14 -50 25 -65 9 -13 10 -15 11 -46 1 -29 2 -31 8 -43 3 -7 6 -16 6 -20 0 -4 2
-11 5 -16 13 -24 26 -52 28 -66 2 -8 7 -21 10 -28 4 -8 7 -17 7 -21 0 -4 3
-14 6 -21 7 -14 7 -14 3 -24 -6 -16 -4 -25 8 -38 12 -13 13 -18 12 -52 -3 -54
10 -68 62 -68 31 0 34 1 53 19 20 20 19 25 -2 51 -15 18 -21 28 -26 50 -2 9
-7 23 -11 31 -8 14 -8 15 -8 38 0 21 -1 25 -5 33 -13 25 -13 23 -13 51 0 28
-2 31 -21 41 -9 5 -10 11 -10 45 0 32 -9 59 -28 86 -4 6 -6 12 -7 19 -1 6 -4
16 -8 23 -5 11 -6 14 -7 40 -1 31 -3 34 -18 43 -16 9 -16 10 -16 70 0 57 0 55
-13 85 -5 12 -5 12 -3 364 l1 352 8 16 8 16 1 140 1 140 8 15 c7 13 8 17 9 34
1 16 3 23 8 34 6 14 7 18 8 40 1 18 2 27 5 31 4 8 4 19 -1 29 -10 22 -5 49 10
65 14 15 16 21 18 44 2 21 2 23 10 37 5 7 6 13 7 25 2 27 2 28 14 41 6 7 11
14 12 17 1 2 2 9 3 14 1 6 6 18 10 27 4 10 8 22 9 29 1 7 4 15 9 23 6 10 7 13
8 32 1 18 2 23 8 33 3 7 7 18 8 25 1 6 4 15 7 20 4 6 6 13 7 22 1 11 3 15 9
24 3 5 8 13 9 17 2 7 9 20 29 55 28 50 28 64 -1 93 -19 19 -32 23 -53 16z"/>
<path d="M2642 2760 c-13 -4 -28 -17 -36 -31 -3 -6 -3 -31 0 -42 3 -11 17 -24
37 -33 18 -9 24 -14 28 -26 2 -5 6 -14 10 -20 7 -10 8 -12 9 -32 2 -24 2 -26
11 -38 15 -21 19 -33 21 -55 1 -17 2 -22 8 -31 3 -7 6 -16 8 -24 1 -7 4 -19 8
-26 3 -7 8 -19 9 -28 4 -18 5 -21 16 -32 11 -12 15 -20 17 -42 1 -12 3 -20 7
-28 5 -9 6 -15 7 -31 2 -24 4 -30 20 -48 19 -21 22 -40 10 -65 -7 -15 -7 -16
0 -30 5 -10 6 -13 6 -32 0 -19 1 -24 6 -38 4 -10 7 -23 8 -33 1 -12 3 -20 8
-31 8 -17 9 -54 10 -227 l0 -66 8 -17 8 -18 0 -352 c0 -195 -1 -356 -2 -359
-1 -3 -5 -13 -9 -21 -7 -15 -7 -15 -7 -71 0 -61 0 -60 -14 -69 -14 -9 -16 -13
-16 -42 0 -24 0 -24 -8 -39 -5 -10 -8 -18 -9 -26 -2 -13 -3 -17 -12 -28 -3 -4
-7 -11 -8 -16 -1 -4 -5 -14 -8 -20 -5 -12 -5 -15 -5 -43 0 -35 -1 -38 -14 -45
-16 -8 -18 -12 -18 -38 0 -27 -2 -36 -11 -49 -6 -11 -6 -12 -7 -37 -1 -21 -2
-28 -6 -37 -2 -6 -7 -19 -10 -30 -8 -25 -15 -39 -23 -49 -27 -33 -6 -93 33
-93 20 0 42 24 52 57 2 8 6 18 9 22 8 12 10 17 12 31 1 14 3 18 13 29 11 12
14 23 9 35 -4 13 -4 17 3 29 3 5 6 14 7 20 2 11 15 44 25 61 4 7 6 15 7 24 1
9 3 15 9 22 5 8 7 14 8 24 1 9 4 18 8 26 6 10 7 15 8 31 1 16 2 22 7 31 3 5 6
14 6 20 1 5 5 16 9 25 7 15 9 19 10 37 1 18 2 21 9 33 8 14 8 14 9 58 1 44 1
44 8 59 7 15 7 15 7 60 0 45 0 45 7 62 l7 17 0 358 0 358 -7 16 c-7 16 -7 16
-7 97 0 81 0 81 -7 95 -7 14 -7 14 -8 51 -1 34 -1 38 -5 44 -13 19 -12 16 -13
65 -1 47 -1 47 -8 55 -9 11 -11 17 -9 33 2 18 -2 37 -8 52 -4 8 -6 17 -7 29
-1 13 -3 20 -8 31 -5 11 -7 18 -8 32 -1 15 -2 21 -9 33 -4 8 -8 21 -9 28 -1 7
-4 17 -8 24 -6 10 -7 13 -8 31 -1 17 -2 22 -8 34 -3 7 -6 16 -6 20 0 4 -6 18
-16 37 -13 25 -16 34 -19 48 -2 11 -5 21 -10 29 -4 7 -10 19 -14 27 -4 8 -10
20 -13 27 -6 10 -7 15 -8 34 -2 34 -12 46 -40 49 -14 2 -14 2 -29 15 -25 22
-34 27 -47 23z"/>
<path d="M2067 2654 c-13 -5 -34 -30 -43 -49 -5 -10 -11 -19 -17 -25 -7 -7
-10 -12 -13 -22 -3 -7 -7 -17 -10 -23 -4 -7 -6 -14 -6 -19 0 -6 -4 -15 -14
-35 -11 -20 -15 -31 -18 -44 -2 -12 -6 -21 -12 -31 -10 -17 -24 -45 -24 -48 0
-1 -5 -8 -12 -14 -18 -20 -17 -16 -17 -73 0 -56 0 -55 -15 -66 -16 -11 -17
-13 -18 -52 -1 -38 -3 -43 -21 -72 -5 -8 -11 -19 -12 -24 -2 -5 -6 -14 -10
-20 -6 -10 -6 -10 -6 -45 0 -33 0 -36 -5 -46 -3 -6 -6 -16 -7 -22 -2 -20 -14
-30 -47 -44 -8 -3 -17 -8 -20 -10 -3 -2 -12 -7 -20 -10 -8 -3 -18 -8 -22 -11
-4 -3 -11 -6 -15 -8 -12 -5 -19 -12 -22 -24 -4 -15 -10 -19 -27 -21 -20 -3
-26 -7 -51 -32 -24 -24 -28 -27 -44 -34 -6 -2 -15 -7 -21 -10 -5 -3 -16 -8
-23 -11 -38 -12 -57 -36 -47 -58 11 -26 20 -31 53 -31 28 -1 32 0 50 12 6 4
12 6 17 6 11 0 22 4 34 12 16 11 22 14 38 17 21 4 26 7 41 21 15 14 20 16 37
20 6 1 16 5 22 8 15 8 19 7 31 0 7 -5 13 -7 22 -8 26 -3 28 -7 28 -53 0 -36 0
-36 8 -51 7 -15 7 -15 7 -49 -1 -35 -1 -35 8 -47 9 -14 9 -12 9 -55 0 -34 5
-50 20 -69 28 -35 26 -30 27 -55 2 -25 3 -28 15 -39 11 -10 15 -20 17 -40 1
-12 3 -22 8 -31 3 -8 6 -16 7 -19 1 -3 5 -9 8 -14 4 -5 10 -15 13 -22 3 -7 11
-18 17 -25 16 -18 27 -43 29 -69 2 -26 2 -26 49 -71 56 -53 70 -101 46 -151
-4 -7 -9 -21 -11 -31 -2 -10 -7 -22 -11 -29 -19 -33 -24 -41 -30 -57 -5 -13
-8 -23 -9 -35 -2 -22 -14 -49 -30 -67 -13 -15 -20 -29 -20 -38 0 -6 -4 -16
-15 -38 -15 -30 -16 -31 -17 -50 -1 -17 -3 -21 -9 -35 -8 -15 -8 -15 -9 -50
-1 -32 -1 -36 -5 -42 -11 -16 -13 -23 -13 -38 0 -14 -1 -17 -8 -31 -13 -25 -8
-48 11 -49 100 -6 116 0 116 42 0 25 1 28 6 42 6 15 6 15 6 57 0 48 0 48 16
63 16 15 18 21 18 50 0 24 0 25 7 39 6 13 7 16 8 43 1 27 1 30 7 39 4 7 6 14
7 23 1 11 3 15 8 23 4 6 8 15 10 19 1 5 8 20 15 34 8 16 13 28 13 32 0 33 30
45 41 17 2 -4 6 -12 10 -18 4 -5 8 -15 10 -21 4 -13 9 -22 18 -38 5 -8 7 -15
9 -25 2 -18 7 -28 21 -43 11 -12 12 -14 14 -30 2 -17 16 -47 28 -60 7 -8 12
-16 15 -24 4 -11 8 -16 33 -42 30 -31 33 -34 33 -44 0 -10 6 -21 17 -31 9 -7
11 -11 14 -20 2 -7 5 -16 7 -22 9 -22 10 -27 9 -46 -3 -49 47 -80 90 -56 17 9
20 83 5 109 -4 7 -12 23 -18 36 -6 13 -15 29 -19 35 -5 7 -11 19 -13 26 -8 24
-12 29 -48 66 -52 52 -58 65 -60 116 -1 42 -2 43 -18 52 -12 7 -21 20 -28 40
-3 10 -7 16 -15 25 -6 6 -12 15 -15 19 -2 4 -10 16 -17 25 -7 9 -16 23 -20 30
-4 8 -9 17 -12 21 -3 4 -6 11 -8 17 -2 6 -6 12 -12 18 -6 5 -12 14 -15 21 -3
7 -9 16 -14 20 -24 22 -22 33 10 62 27 24 30 29 32 55 2 21 14 48 30 67 16 18
31 43 36 60 1 4 6 14 11 21 9 14 23 43 23 49 0 1 4 15 9 30 5 15 9 29 9 31 0
2 3 9 6 16 5 11 7 17 8 34 2 18 2 22 9 32 29 48 34 83 16 112 -11 18 -12 33 0
51 l7 13 -1 53 c0 52 -1 55 -6 70 -6 18 -6 24 -1 37 2 6 4 16 4 21 0 22 9 37
22 37 8 0 14 -4 30 -20 7 -7 14 -12 20 -14 5 -2 15 -8 24 -15 8 -7 22 -17 30
-22 9 -5 18 -12 21 -16 6 -7 18 -15 24 -15 1 0 8 -4 15 -8 9 -6 16 -9 22 -9
16 -2 18 -3 29 -13 5 -5 15 -12 22 -16 7 -4 16 -10 21 -13 44 -32 100 31 72
79 -20 34 -22 36 -37 43 -8 3 -18 9 -23 13 -5 4 -18 13 -29 19 -10 6 -24 16
-30 21 -7 7 -15 11 -22 13 -9 3 -13 6 -28 21 -48 50 -88 87 -97 90 -5 2 -13 5
-17 9 -5 3 -15 7 -22 10 -38 14 -43 22 -43 65 1 33 1 33 -6 44 -7 11 -7 11 -8
42 -1 31 -1 31 -10 45 -8 14 -8 14 -8 37 0 22 0 25 -7 41 -4 10 -9 25 -11 33
-2 9 -6 19 -8 24 -2 5 -4 14 -5 19 -2 13 -4 16 -15 28 -8 9 -15 20 -31 51 -4
7 -5 12 -5 26 0 25 -7 35 -33 49 -15 7 -17 12 -17 38 1 32 -1 36 -22 57 -15
14 -19 20 -25 33 -4 9 -11 20 -16 25 -5 6 -13 17 -17 27 -13 27 -56 40 -87 25z
m52 -160 c5 -5 13 -21 23 -46 2 -5 7 -14 10 -19 4 -8 7 -14 8 -24 2 -14 11
-31 21 -39 18 -14 35 -36 39 -50 12 -42 14 -47 22 -58 4 -6 10 -16 12 -22 2
-6 7 -16 11 -22 6 -11 6 -12 6 -35 1 -22 1 -25 7 -40 6 -15 7 -18 7 -42 1 -25
2 -27 7 -36 5 -7 7 -14 8 -24 2 -11 3 -16 9 -24 11 -16 18 -218 8 -237 -1 -3
-5 -9 -8 -15 -6 -10 -6 -10 -7 -84 -1 -74 -1 -74 -8 -91 -4 -9 -9 -24 -11 -32
-3 -8 -7 -20 -9 -27 -8 -22 -3 -46 11 -59 18 -16 20 -29 8 -48 -6 -9 -7 -12
-7 -29 -2 -26 -14 -49 -40 -80 -9 -9 -9 -9 -10 -40 -1 -33 -1 -34 -16 -50 -5
-6 -10 -14 -12 -19 -1 -5 -6 -13 -9 -18 -4 -6 -9 -15 -11 -22 -4 -12 -7 -16
-28 -37 -15 -16 -25 -27 -30 -37 -13 -23 -24 -22 -37 3 -4 9 -9 19 -11 21 -2
3 -6 12 -9 20 -4 10 -9 18 -17 27 -8 9 -12 16 -16 25 -2 7 -8 21 -14 30 -8 15
-14 23 -29 41 -3 4 -4 9 -4 33 0 32 -2 37 -18 62 -4 6 -8 16 -9 21 -5 24 -20
60 -30 74 -7 9 -7 10 -8 32 -1 23 -2 25 -14 43 -15 20 -17 29 -18 95 -1 59 -1
59 -8 68 -7 10 -7 10 -8 70 -1 65 -1 64 -11 80 -8 13 -10 24 -8 45 1 16 1 18
12 37 5 9 6 12 7 38 1 28 2 31 11 44 2 4 5 12 6 17 2 15 22 61 39 88 4 6 7 16
9 25 2 9 6 22 9 29 3 7 8 22 11 33 3 10 6 21 8 24 1 4 3 13 4 22 0 13 2 20 7
31 6 14 7 17 8 43 1 37 6 44 31 56 15 7 16 9 16 41 0 33 0 34 32 66 26 28 36
32 48 22z"/>
<path d="M819 2559 c-44 -25 -54 -74 -23 -106 8 -8 13 -16 16 -24 3 -8 7 -13
14 -19 7 -6 12 -13 17 -23 4 -8 10 -19 13 -25 4 -7 6 -13 6 -20 0 -7 2 -12 6
-19 4 -6 9 -15 11 -22 7 -19 22 -45 31 -54 10 -11 15 -20 16 -34 1 -10 3 -15
7 -20 3 -4 8 -12 10 -19 8 -17 23 -46 27 -53 3 -3 6 -12 7 -20 3 -16 9 -29 19
-38 11 -10 13 -16 12 -39 0 -27 2 -37 11 -52 5 -8 8 -15 9 -23 1 -7 3 -17 5
-22 5 -14 2 -23 -12 -42 -4 -6 -10 -16 -13 -24 -4 -9 -10 -17 -17 -25 -6 -7
-11 -15 -14 -21 -2 -7 -7 -14 -14 -21 -7 -7 -14 -16 -18 -26 -6 -13 -12 -19
-46 -54 -34 -35 -39 -41 -42 -50 -2 -7 -6 -13 -12 -18 -15 -15 -15 -16 -15
-46 0 -29 -1 -35 -12 -48 -6 -7 -7 -10 -7 -21 0 -6 0 -52 1 -100 0 -89 0 -89
-6 -103 -7 -15 -7 -16 -7 -42 0 -36 -8 -49 -36 -61 -9 -4 -17 -10 -31 -24 -16
-16 -21 -20 -31 -23 -9 -3 -14 -7 -25 -18 -23 -24 -39 -24 -47 1 -2 6 -7 15
-11 21 -11 14 -14 25 -14 46 1 14 0 19 -4 27 -2 6 -7 18 -10 27 -3 9 -9 22
-13 27 -3 6 -9 16 -11 23 -9 25 -21 31 -68 30 -51 -1 -59 -8 -60 -56 -1 -43 0
-46 13 -60 27 -29 55 -82 57 -110 1 -18 10 -39 28 -66 7 -10 16 -31 16 -36 0
-19 10 -22 64 -22 52 0 53 0 67 14 15 14 33 25 51 32 11 4 18 7 20 10 6 10 16
18 26 20 44 10 33 -76 -11 -89 -9 -3 -14 -6 -20 -12 -10 -11 -28 -22 -48 -30
-22 -10 -32 -16 -48 -31 -17 -16 -25 -22 -40 -30 -7 -3 -15 -9 -18 -13 -9 -12
-26 -16 -40 -10 -7 4 -10 7 -16 24 -2 6 -8 19 -12 28 -6 13 -7 18 -7 30 0 15
-2 19 -12 29 -4 5 -8 12 -11 18 -5 18 -17 36 -30 46 -7 5 -14 13 -17 19 -8 15
-31 21 -59 16 -37 -7 -45 -83 -12 -119 9 -10 13 -16 16 -24 2 -6 7 -17 12 -24
13 -20 17 -32 18 -54 1 -16 2 -19 8 -31 3 -6 8 -16 9 -20 2 -7 24 -50 35 -69
7 -12 8 -13 60 -13 53 0 51 0 74 21 9 8 16 14 25 17 15 6 47 25 56 34 4 4 12
9 19 12 7 3 17 10 23 16 17 16 24 21 43 28 10 4 21 10 24 13 18 17 44 13 54
-7 2 -4 8 -15 12 -23 5 -8 10 -20 12 -26 3 -10 23 -50 27 -55 1 -1 4 -8 7 -15
5 -12 8 -16 39 -46 27 -27 34 -34 36 -41 1 -5 5 -12 8 -16 13 -15 12 -12 11
-111 -2 -96 -2 -97 9 -113 7 -12 8 -14 6 -90 -3 -83 -3 -83 17 -96 36 -24 67
4 64 56 -1 11 -2 51 -3 88 -1 68 -1 68 -9 83 -9 19 -12 120 -4 134 13 22 87
23 96 0 4 -9 4 -9 2 -150 -2 -131 -2 -134 -12 -156 -11 -22 -9 -34 8 -50 21
-21 40 -17 67 11 22 24 20 8 18 156 -3 232 -3 221 0 228 7 12 21 29 30 35 5 4
10 11 13 16 3 5 9 14 14 19 5 5 12 14 15 21 3 6 12 19 20 29 8 10 16 19 17 21
1 1 2 13 3 25 1 21 1 22 9 34 5 9 7 14 7 21 0 6 2 14 7 24 4 8 7 17 7 21 0 6
6 20 21 51 2 4 5 11 8 15 4 7 5 13 7 29 1 19 2 23 9 35 l7 13 0 136 0 136 -8
15 c-8 15 -9 18 -10 36 -1 19 -2 22 -9 33 -7 11 -8 14 -9 33 -2 22 -5 33 -16
49 -15 22 -20 36 -22 54 -3 31 -9 45 -25 62 -11 12 -12 14 -19 39 -4 15 -6 17
-20 32 -22 25 -27 31 -32 43 -2 6 -8 15 -14 21 -6 6 -11 14 -13 20 -3 11 -13
21 -52 59 -17 16 -22 23 -28 35 -6 13 -12 20 -27 35 -24 23 -24 24 -24 68 0
35 1 37 12 56 6 9 5 18 -2 32 l-7 12 6 16 c3 8 5 17 5 20 0 9 11 29 21 38 6 6
12 14 15 22 5 9 11 18 26 33 39 41 53 97 32 126 -6 7 -8 12 -9 20 -3 26 -11
36 -29 42 -6 2 -16 6 -23 11 -7 4 -16 9 -20 10 -4 1 -12 7 -18 11 -5 5 -15 12
-22 15 -8 3 -18 11 -27 19 -11 10 -17 14 -30 19 -23 8 -41 20 -54 33 -8 7 -15
12 -22 14 -21 7 -44 22 -64 43 -16 16 -21 20 -29 22 -12 3 -69 3 -74 -1z m245
-234 c11 -9 23 -18 28 -21 23 -12 9 -47 -34 -83 -23 -20 -58 0 -58 33 0 4 -2
12 -6 19 -23 42 34 85 70 52z m49 -584 c39 -42 54 -59 61 -76 8 -17 31 -41 52
-55 18 -11 21 -16 23 -26 1 -4 2 -10 2 -14 1 -4 5 -10 12 -18 14 -15 21 -30
21 -43 0 -21 7 -43 22 -66 7 -9 7 -10 8 -41 1 -31 1 -31 9 -43 6 -9 8 -13 9
-24 1 -10 3 -17 8 -24 3 -5 6 -14 7 -19 1 -5 4 -15 8 -23 6 -14 6 -14 7 -67 0
-60 1 -59 -15 -76 -16 -17 -15 -15 -15 -79 0 -66 0 -64 -18 -85 -9 -10 -13
-17 -17 -28 -3 -7 -10 -21 -15 -29 -6 -9 -11 -20 -13 -26 -2 -5 -11 -23 -19
-40 -9 -16 -16 -30 -16 -31 0 -5 -8 -16 -23 -32 -20 -21 -22 -24 -26 -37 -11
-38 -57 -57 -75 -32 -3 4 -22 24 -43 45 -53 54 -61 63 -66 77 -4 8 -8 15 -15
22 -11 10 -10 9 -22 47 -6 18 -10 30 -14 35 -4 4 -12 18 -19 31 l-12 23 0 107
0 107 -8 18 c-16 41 -9 100 17 137 12 18 12 19 12 118 -1 73 0 90 2 94 6 11
21 30 29 37 5 4 11 12 14 18 3 5 11 15 17 22 21 23 28 31 31 41 14 41 62 74
80 55z"/>
</g>
</svg>
