<?xml version="1.0" standalone="no"?>
<!DOCTYPE svg PUBLIC "-//W3C//DTD SVG 20010904//EN"
 "http://www.w3.org/TR/2001/REC-SVG-20010904/DTD/svg10.dtd">
<svg version="1.0" xmlns="http://www.w3.org/2000/svg"
 width="100.000000pt" height="94.000000pt" viewBox="0 0 100.000000 94.000000"
 preserveAspectRatio="xMidYMid meet">
<metadata>
Created by potrace 1.16, written by Peter Selinger 2001-2019
</metadata>
<g transform="translate(0.000000,94.000000) scale(0.100000,-0.100000)"
fill="#000000" stroke="none">
<path d="M120 837 c-47 -106 -64 -212 -64 -402 0 -158 3 -190 23 -265 28 -102
37 -120 57 -120 28 0 26 29 -8 117 -32 86 -33 92 -31 225 2 171 16 269 49 361
32 90 35 120 11 125 -13 3 -23 -9 -37 -41z"/>
<path d="M807 856 c-3 -7 0 -22 8 -32 7 -11 25 -57 41 -104 28 -82 29 -92 29
-280 0 -185 -1 -199 -28 -282 -25 -79 -27 -118 -7 -118 31 0 79 162 87 295 8
142 -10 322 -42 425 -15 47 -32 91 -37 98 -14 16 -45 15 -51 -2z"/>
<path d="M625 818 c-9 -13 -29 -66 -46 -119 -29 -90 -34 -98 -80 -133 -27 -20
-49 -41 -49 -46 0 -18 20 -20 56 -5 20 8 39 13 42 11 2 -3 8 -27 13 -53 5 -26
25 -80 45 -120 40 -79 40 -80 1 -187 -27 -74 -26 -96 4 -96 23 0 27 10 43 87
6 31 16 58 21 60 6 2 28 -31 48 -72 40 -80 67 -97 67 -44 0 19 -19 61 -50 113
l-51 82 31 65 c22 48 30 78 30 122 0 31 4 57 9 57 6 0 26 -9 45 -21 36 -21 56
-19 56 5 0 8 -25 35 -55 61 -31 26 -55 55 -55 65 0 52 -73 190 -100 190 -5 0
-16 -10 -25 -22z m72 -131 c13 -37 17 -77 16 -137 -2 -88 -28 -190 -50 -197
-13 -5 -45 75 -64 160 -11 53 -10 65 11 140 13 45 27 88 33 95 15 19 33 -2 54
-61z"/>
<path d="M243 794 c-3 -10 9 -48 30 -90 21 -41 37 -85 37 -97 0 -13 -13 -41
-29 -63 -20 -27 -30 -56 -35 -98 -4 -32 -9 -63 -12 -67 -11 -18 -34 -8 -49 21
-16 32 -39 39 -48 16 -3 -8 4 -32 15 -55 18 -36 24 -41 55 -41 30 0 34 -2 23
-15 -24 -29 -51 -29 -76 1 -17 22 -25 26 -34 18 -9 -9 -7 -21 7 -50 21 -44 50
-54 85 -30 12 9 29 16 38 16 27 0 55 -60 60 -129 l5 -64 40 -1 40 -1 5 65 c3
39 15 85 29 115 48 99 39 191 -29 293 -43 63 -48 92 -25 132 25 44 18 58 -47
100 -69 45 -76 47 -85 24z m121 -283 c25 -28 45 -89 46 -139 0 -48 -36 -142
-54 -142 -7 0 -23 12 -37 26 -22 23 -24 34 -24 117 0 93 16 157 40 157 6 0 20
-9 29 -19z"/>
</g>
</svg>
