<?xml version="1.0" standalone="no"?>
<!DOCTYPE svg PUBLIC "-//W3C//DTD SVG 20010904//EN"
 "http://www.w3.org/TR/2001/REC-SVG-20010904/DTD/svg10.dtd">
<svg version="1.0" xmlns="http://www.w3.org/2000/svg"
 width="510.000000pt" height="376.000000pt" viewBox="0 0 510.000000 376.000000"
 preserveAspectRatio="xMidYMid meet">
<metadata>
Created by potrace 1.16, written by Peter Selinger 2001-2019
</metadata>
<g transform="translate(0.000000,376.000000) scale(0.100000,-0.100000)"
fill="#000000" stroke="none">
<path d="M3135 3591 c-3 -6 -29 -11 -56 -11 l-50 0 2 -485 c1 -267 -1 -489 -5
-493 -4 -4 -91 -7 -192 -7 l-184 0 -3 -1053 c-2 -928 0 -1053 13 -1057 8 -2
41 -4 72 -3 67 1 83 14 74 59 -6 34 -9 1899 -2 1906 2 2 183 6 402 8 220 2
548 8 729 12 182 5 332 8 334 7 1 -2 4 -449 5 -995 l1 -992 83 -2 c45 -1 85 2
88 6 3 5 5 313 4 685 0 580 -3 679 -15 697 -19 27 -19 58 0 83 18 24 22 303 4
321 -8 8 -11 60 -10 161 2 130 0 152 -15 167 -16 15 -37 17 -203 14 l-186 -4
-2 469 -1 468 -27 14 c-21 11 -110 14 -423 16 -218 2 -404 7 -413 11 -10 5
-20 4 -24 -2z m727 -559 c0 -222 -3 -406 -7 -410 -4 -4 -85 -5 -181 -3 -104 2
-179 -1 -187 -7 -17 -13 -297 -25 -297 -12 -1 13 -1 829 0 833 0 1 151 2 336
2 l336 0 0 -403z"/>
<path d="M4770 3555 c-4 -53 0 -497 5 -505 3 -5 21 -10 40 -10 68 0 65 -14 65
266 l0 254 -55 0 c-30 0 -55 -2 -55 -5z"/>
<path d="M151 3517 c-7 -7 -11 -89 -11 -258 0 -270 -3 -259 60 -259 63 0 60
-11 60 261 0 191 -3 251 -12 253 -37 12 -87 13 -97 3z"/>
<path d="M1122 3425 c-29 -30 -52 -63 -52 -73 0 -10 -20 -38 -45 -61 -29 -27
-45 -51 -45 -66 0 -14 -8 -29 -20 -35 -11 -6 -20 -21 -20 -33 0 -12 -12 -40
-25 -62 -14 -22 -25 -49 -25 -60 0 -11 -7 -28 -15 -38 -7 -11 -11 -25 -8 -33
3 -7 -7 -34 -21 -60 -14 -26 -26 -55 -26 -65 0 -10 -4 -21 -10 -24 -5 -3 -10
-18 -10 -33 0 -30 -26 -110 -42 -129 -6 -7 -7 -29 -3 -52 5 -29 2 -46 -11 -66
-15 -23 -16 -47 -11 -220 l5 -193 -24 -23 c-18 -17 -24 -33 -24 -64 0 -31 -6
-47 -25 -65 -14 -13 -25 -28 -25 -33 0 -5 -11 -22 -25 -38 -13 -16 -22 -35
-19 -43 3 -7 -16 -31 -41 -54 -171 -153 -189 -173 -189 -207 0 -50 18 -65 78
-65 l51 0 92 93 c50 50 99 108 110 127 43 82 100 135 104 98 1 -7 3 -20 4 -28
2 -24 17 -53 42 -83 13 -16 23 -33 23 -38 0 -5 16 -23 35 -40 20 -18 35 -40
35 -53 0 -13 9 -31 20 -41 11 -10 20 -23 20 -30 0 -6 11 -22 25 -35 33 -31
118 -187 112 -205 -3 -7 1 -21 8 -32 19 -24 18 -113 -1 -138 -13 -16 -14 -38
-9 -120 6 -86 5 -103 -9 -114 -9 -7 -16 -28 -16 -47 0 -18 -4 -36 -10 -39 -5
-3 -10 -17 -10 -30 0 -13 -4 -27 -10 -30 -5 -3 -10 -17 -10 -30 0 -13 -20 -53
-45 -89 -25 -37 -45 -72 -45 -79 0 -20 -28 -93 -51 -133 -41 -73 -49 -89 -49
-106 0 -9 -5 -20 -10 -23 -6 -3 -10 -26 -10 -50 0 -36 5 -48 31 -69 47 -40 86
-35 138 18 33 33 41 49 37 64 -8 25 24 92 52 109 11 7 30 34 42 60 12 26 31
67 43 91 11 24 20 51 19 60 0 9 10 40 23 67 30 64 65 176 65 207 0 13 7 34 16
46 13 18 19 21 30 11 8 -6 14 -24 14 -38 0 -17 10 -37 26 -52 14 -13 34 -42
44 -64 10 -22 51 -71 90 -110 39 -38 83 -91 96 -117 13 -27 28 -48 33 -48 4 0
16 -20 27 -45 10 -25 24 -45 30 -45 17 0 74 -49 74 -64 0 -6 22 -33 48 -59 41
-40 53 -47 88 -47 82 0 128 101 69 152 -14 12 -25 27 -25 33 0 7 -9 20 -21 31
-12 10 -36 48 -54 84 -34 67 -139 180 -168 180 -22 0 -40 27 -34 50 6 22 -31
98 -68 140 -12 14 -29 41 -39 60 -9 19 -28 50 -42 69 -13 19 -28 50 -34 70 -5
20 -16 45 -24 56 -17 23 -22 130 -6 140 5 3 10 28 10 54 0 26 4 51 9 57 29 30
81 147 81 183 0 22 5 43 10 46 6 3 10 16 10 28 0 12 7 30 14 40 10 13 12 36 9
78 -5 48 -2 63 12 79 10 11 24 20 31 20 7 0 32 -38 55 -85 34 -68 48 -87 68
-91 14 -3 34 -9 43 -15 10 -5 24 -9 31 -9 7 0 32 -9 55 -20 46 -22 131 -27
150 -8 7 7 12 28 12 48 0 43 -24 70 -63 70 -14 0 -29 5 -32 11 -4 5 -31 21
-61 35 -30 13 -54 30 -54 37 0 7 -13 26 -30 42 -16 16 -30 38 -30 50 0 12 -14
34 -31 51 -16 16 -43 53 -60 83 -24 45 -29 66 -29 124 0 47 5 78 17 98 16 28
16 31 -1 61 -17 28 -18 47 -13 198 5 136 3 171 -8 186 -8 11 -15 29 -15 41 0
12 -4 25 -10 28 -5 3 -10 26 -10 50 0 24 -4 47 -10 50 -5 3 -10 16 -10 28 0
12 -7 31 -15 41 -8 11 -15 28 -15 38 0 9 -9 32 -20 50 -11 18 -20 47 -20 64 0
16 -4 34 -8 40 -5 5 -14 29 -21 54 -7 25 -16 50 -19 56 -32 52 -69 98 -125
152 l-65 62 -64 0 -64 0 -52 -55z m158 -210 c0 -7 7 -18 15 -25 18 -15 45 -68
45 -88 0 -8 12 -35 26 -60 15 -26 24 -52 20 -64 -2 -12 2 -34 10 -49 9 -18 14
-58 14 -111 0 -79 18 -156 42 -185 7 -8 8 -38 4 -81 -6 -56 -4 -71 9 -82 12
-10 15 -37 15 -136 0 -69 -4 -132 -8 -142 -5 -9 -16 -32 -25 -50 -11 -22 -17
-58 -17 -107 0 -41 -5 -77 -10 -80 -6 -3 -10 -28 -10 -56 0 -27 -4 -57 -9 -67
-38 -71 -61 -134 -61 -165 0 -20 -9 -51 -20 -69 -11 -19 -20 -51 -20 -74 0
-50 -28 -91 -55 -81 -12 5 -15 14 -11 30 4 16 -2 32 -19 53 -41 49 -74 97 -95
140 -10 22 -28 49 -40 59 -11 10 -20 24 -20 31 0 7 -6 17 -13 21 -19 12 -47
60 -47 81 0 10 -6 27 -14 38 -8 10 -12 29 -9 42 3 14 -1 30 -11 40 -9 10 -15
33 -14 53 0 19 -4 44 -10 56 -18 34 -16 333 3 369 8 16 12 39 9 51 -4 14 1 34
10 48 12 19 16 44 14 95 -1 44 2 74 10 82 7 7 12 27 12 44 0 18 5 36 10 39 6
3 10 20 10 36 0 34 12 61 46 102 13 16 24 39 24 51 0 12 4 26 9 31 20 22 51
87 51 109 0 12 9 31 19 40 11 10 25 30 31 46 7 16 19 31 28 33 18 4 52 -27 52
-48z m67 -1851 c-23 -64 -21 -182 4 -263 23 -76 20 -118 -9 -128 -9 -4 -22
-14 -29 -22 -10 -14 -12 -14 -19 2 -4 10 -13 16 -21 13 -14 -6 -35 32 -26 47
3 4 0 14 -7 22 -7 9 -8 15 0 20 5 3 10 19 10 34 0 15 3 30 6 34 12 12 13 86 1
83 -7 -2 -9 -1 -4 1 10 6 9 51 -2 57 -5 3 -9 24 -9 47 -1 32 2 39 14 35 8 -3
17 1 20 9 4 8 14 15 24 15 9 0 25 9 35 20 25 27 28 20 12 -26z m48 -387 c0
-26 -20 -25 -23 2 -3 16 1 22 10 19 7 -3 13 -12 13 -21z"/>
<path d="M150 885 c-7 -8 -9 -104 -8 -281 l3 -269 55 0 55 0 3 277 2 278 -22
4 c-43 7 -77 4 -88 -9z"/>
<path d="M4845 826 c-13 -9 -15 -49 -13 -261 l3 -250 55 0 55 0 3 249 c1 163
-1 253 -8 260 -14 14 -77 15 -95 2z"/>
</g>
</svg>
