<?xml version="1.0" standalone="no"?>
<!DOCTYPE svg PUBLIC "-//W3C//DTD SVG 20010904//EN"
 "http://www.w3.org/TR/2001/REC-SVG-20010904/DTD/svg10.dtd">
<svg version="1.0" xmlns="http://www.w3.org/2000/svg"
 width="100.000000pt" height="74.000000pt" viewBox="0 0 100.000000 74.000000"
 preserveAspectRatio="xMidYMid meet">
<metadata>
Created by potrace 1.16, written by Peter Selinger 2001-2019
</metadata>
<g transform="translate(0.000000,74.000000) scale(0.100000,-0.100000)"
fill="#000000" stroke="none">
<path d="M596 702 c-3 -5 -9 -48 -12 -95 l-7 -86 -31 -3 -31 -3 -3 -213 c-2
-185 0 -213 13 -218 9 -4 19 -3 23 1 4 4 7 89 7 190 0 101 3 187 8 191 4 4 65
8 135 8 l127 1 3 -193 c2 -165 5 -194 18 -199 9 -3 20 0 25 8 10 16 10 347 0
394 -5 25 -12 31 -39 33 -37 4 -41 13 -44 117 l-3 70 -92 3 c-50 1 -94 -1 -97
-6z m142 -41 c9 -5 12 -27 10 -72 l-3 -64 -57 -3 -58 -3 0 69 c0 38 3 72 7 75
9 10 85 8 101 -2z"/>
<path d="M927 703 c-4 -3 -7 -30 -7 -59 0 -56 21 -80 40 -44 26 49 -2 135 -33
103z"/>
<path d="M20 641 c0 -48 3 -61 15 -61 38 0 39 111 2 118 -14 3 -17 -6 -17 -57z"/>
<path d="M202 662 c-27 -37 -61 -145 -68 -213 -4 -46 -11 -62 -40 -93 -19 -21
-33 -43 -31 -49 7 -22 36 -18 58 7 13 14 26 26 31 26 5 0 22 -21 39 -47 35
-56 34 -88 -6 -174 -32 -70 -33 -102 -2 -97 17 2 28 17 46 66 14 34 28 62 32
62 4 0 27 -26 51 -57 43 -57 79 -75 86 -43 1 9 -23 49 -54 90 -60 79 -64 100
-35 173 10 27 11 27 40 12 67 -34 82 -8 24 41 -35 30 -36 33 -43 120 -13 164
-76 251 -128 176z m60 -64 c16 -31 16 -234 0 -272 -10 -24 -15 -26 -28 -15
-42 35 -56 139 -30 236 21 80 35 92 58 51z"/>
<path d="M24 177 c-3 -8 -4 -39 -2 -68 2 -40 7 -54 18 -54 20 0 22 126 3 132
-7 3 -15 -2 -19 -10z"/>
<path d="M936 144 c-9 -34 3 -94 19 -94 16 0 25 22 25 60 0 59 -32 84 -44 34z"/>
</g>
</svg>
