<?xml version="1.0" standalone="no"?>
<!DOCTYPE svg PUBLIC "-//W3C//DTD SVG 20010904//EN"
 "http://www.w3.org/TR/2001/REC-SVG-20010904/DTD/svg10.dtd">
<svg version="1.0" xmlns="http://www.w3.org/2000/svg"
 width="2040.000000pt" height="1506.000000pt" viewBox="0 0 2040.000000 1506.000000"
 preserveAspectRatio="xMidYMid meet">
<metadata>
Created by potrace 1.16, written by Peter Selinger 2001-2019
</metadata>
<g transform="translate(0.000000,1506.000000) scale(0.500000,-0.500000)"
fill="#000000" stroke="none">
<path d="M2511 2883 c-10 -7 -10 -7 -37 -6 -39 2 -51 -3 -51 -22 1 -4 2 -166
3 -360 1 -194 3 -362 3 -374 0 -40 -2 -41 -260 -32 -38 1 -38 1 -45 -4 l-6 -6
0 -789 c0 -434 -1 -810 -2 -836 -3 -70 -6 -66 67 -66 76 1 70 -6 67 86 -1 41
-2 316 -2 687 0 340 -1 657 -2 704 -2 114 -13 102 88 102 39 -1 178 -2 308 -2
l237 -1 13 8 13 9 116 1 c336 4 394 3 398 -7 3 -6 0 -1496 -3 -1535 -3 -53 -6
-51 77 -51 76 0 74 -1 74 28 -1 9 -1 254 -2 544 -1 290 -2 530 -2 533 -1 2 -5
8 -9 12 -12 12 -14 47 -4 60 15 19 14 10 14 136 0 122 1 116 -10 130 -9 11 -9
16 -8 132 2 120 2 116 -11 129 -14 14 -7 13 -144 11 -68 -1 -131 -2 -139 -3
-13 0 -17 1 -21 4 -11 8 -11 5 -9 127 1 62 2 226 2 365 1 283 2 256 -16 261
-5 1 -12 5 -16 8 -4 3 -8 6 -10 7 -2 1 -128 2 -319 3 l-316 1 -9 7 c-11 8 -15
8 -27 -1z m576 -132 c3 -2 5 -4 5 -6 0 -1 1 -137 1 -302 1 -165 1 -306 1 -314
0 -27 -4 -29 -69 -27 -26 1 -88 2 -136 2 l-88 0 -12 -7 c-18 -11 -210 -19
-227 -10 -9 5 -9 -5 -8 336 0 354 -1 330 11 331 19 3 518 0 522 -3z"/>
<path d="M3826 2861 c-11 -5 -15 -12 -15 -27 0 -7 1 -63 2 -124 1 -67 1 -138
-1 -178 -2 -79 1 -92 22 -92 85 -1 78 -11 76 116 -2 61 -2 128 0 190 2 110 2
107 -13 114 -11 5 -60 6 -71 1z"/>
<path d="M124 2828 c-11 -9 -11 -3 -9 -148 1 -62 0 -144 -1 -181 -2 -97 -5
-92 49 -91 58 1 53 -9 51 113 -2 69 -2 124 0 191 2 126 6 118 -52 120 -31 0
-33 0 -38 -4z"/>
<path d="M939 2791 c-11 -5 -46 -43 -49 -54 -3 -10 -9 -16 -20 -19 -12 -3 -15
-8 -15 -24 0 -18 -1 -19 -35 -52 -31 -29 -35 -35 -33 -48 2 -9 -5 -22 -19 -34
-15 -13 -18 -19 -18 -31 0 -14 -3 -24 -11 -33 -4 -4 -8 -11 -9 -16 -1 -4 -6
-12 -10 -18 -6 -9 -7 -13 -8 -25 -1 -13 -2 -16 -8 -22 -9 -10 -10 -15 -10 -36
0 -22 -2 -27 -14 -44 -4 -6 -8 -12 -8 -13 0 -1 -3 -7 -7 -14 -6 -9 -8 -15 -9
-27 -1 -13 -2 -16 -9 -24 -7 -10 -7 -10 -7 -31 0 -20 0 -22 -6 -31 -9 -13 -12
-23 -12 -35 0 -8 -1 -11 -7 -19 -11 -15 -12 -16 -10 -55 1 -35 1 -35 -6 -44
-3 -5 -8 -12 -9 -14 -3 -5 -3 -233 -1 -287 2 -34 -1 -42 -18 -55 -18 -14 -18
-15 -18 -48 0 -38 -1 -39 -17 -55 -9 -8 -16 -16 -20 -25 -4 -8 -12 -19 -22
-29 -16 -16 -16 -16 -17 -32 -2 -21 -2 -21 -29 -45 -13 -12 -33 -31 -46 -43
-13 -12 -37 -34 -54 -50 -59 -52 -56 -48 -56 -80 0 -40 21 -56 71 -55 35 2 37
3 68 35 14 14 47 46 72 71 46 45 47 45 49 56 1 7 5 15 9 20 4 5 8 14 10 20 3
8 7 14 14 21 5 5 14 15 20 22 21 25 43 23 40 -3 -1 -10 0 -12 5 -22 3 -6 7
-15 8 -19 3 -10 8 -17 23 -33 10 -11 13 -15 15 -24 3 -11 2 -10 37 -44 14 -14
17 -19 17 -33 0 -15 1 -18 20 -37 13 -14 16 -19 18 -27 2 -8 5 -11 23 -29 17
-15 23 -21 27 -31 3 -7 8 -15 11 -20 3 -4 6 -11 7 -16 1 -4 5 -12 8 -17 4 -4
9 -14 12 -21 4 -6 9 -15 12 -19 5 -6 5 -9 6 -30 1 -23 1 -23 9 -32 10 -12 11
-14 11 -55 0 -40 2 -34 -16 -61 -4 -5 -4 -12 -4 -84 0 -86 0 -86 -11 -98 -9
-10 -10 -15 -8 -32 1 -16 -1 -23 -11 -36 -5 -6 -6 -10 -8 -24 -2 -14 -3 -18
-9 -27 -6 -9 -7 -12 -7 -21 0 -7 -1 -14 -4 -18 -2 -4 -5 -10 -7 -13 -1 -3 -5
-10 -7 -15 -2 -5 -11 -17 -19 -26 -9 -9 -15 -19 -17 -23 -1 -5 -6 -13 -9 -19
-6 -8 -8 -13 -9 -24 -1 -11 -2 -15 -9 -25 -7 -10 -10 -23 -11 -42 0 -2 -3 -7
-7 -11 -4 -4 -9 -13 -11 -18 -3 -6 -7 -15 -11 -20 -4 -5 -7 -10 -7 -11 0 -1
-4 -9 -9 -17 -8 -13 -10 -16 -11 -30 -1 -8 -2 -15 -2 -16 0 0 -4 -4 -8 -9 -9
-9 -15 -48 -11 -69 3 -12 42 -51 54 -53 37 -7 55 0 87 32 30 30 31 33 29 59
-1 18 -1 18 6 29 4 6 9 16 10 21 4 11 5 13 30 36 16 13 19 18 22 26 2 5 6 13
9 17 9 11 12 19 12 32 0 13 2 18 11 29 4 4 8 11 9 16 1 4 6 12 10 18 7 11 7
11 6 31 0 23 1 26 10 36 4 4 7 11 9 16 1 6 6 15 10 21 6 9 7 12 7 23 0 9 1 14
6 23 5 9 7 14 8 28 1 14 3 18 8 26 6 8 7 11 7 22 1 24 19 62 30 62 14 0 19 -7
19 -25 0 -16 4 -22 27 -44 16 -14 25 -28 25 -36 0 -2 4 -10 9 -18 5 -7 9 -16
10 -20 1 -6 6 -11 22 -28 82 -78 91 -88 98 -101 3 -7 8 -17 10 -21 3 -4 6 -12
9 -17 2 -6 10 -17 19 -26 12 -12 15 -17 17 -25 1 -5 6 -13 9 -18 4 -5 9 -14
12 -20 5 -11 8 -13 23 -17 13 -4 41 -31 45 -45 6 -18 67 -83 84 -89 12 -4 48
-4 57 1 14 6 43 37 46 47 8 31 0 67 -18 82 -12 9 -13 11 -20 26 -2 5 -11 16
-21 26 -14 14 -17 18 -18 25 -1 6 -4 12 -9 18 -4 6 -9 14 -11 19 -2 5 -5 12
-7 15 -2 3 -7 12 -11 19 -7 13 -19 26 -83 88 -21 19 -25 22 -35 25 -22 6 -25
12 -25 43 0 20 0 20 -8 29 -4 6 -9 14 -11 19 -1 6 -6 14 -10 19 -3 6 -9 15
-11 20 -3 8 -8 14 -16 21 -10 8 -13 12 -16 22 -3 7 -8 16 -11 21 -4 5 -9 13
-10 19 -3 9 -6 13 -17 23 -3 3 -10 11 -14 18 -4 7 -10 17 -13 22 -4 7 -6 14
-8 27 -2 15 -4 19 -11 29 -4 6 -8 13 -8 14 0 1 -4 8 -8 15 -9 13 -9 13 -10 48
0 46 0 49 11 62 l9 11 -1 27 c-2 30 0 37 11 47 2 2 5 8 7 14 2 6 6 15 10 19 3
5 10 17 15 27 4 10 12 25 17 33 11 16 13 27 11 50 -2 19 0 31 8 42 5 7 7 12 8
23 1 13 3 17 10 28 l8 12 -1 46 c-1 53 -1 53 13 68 19 20 40 10 52 -25 2 -4 4
-9 6 -13 3 -3 6 -10 9 -17 2 -6 7 -15 11 -20 3 -5 6 -10 6 -13 0 -18 26 -41
46 -41 6 0 14 -2 25 -8 11 -5 20 -8 28 -9 8 -1 15 -3 23 -8 6 -4 15 -8 19 -9
4 -1 13 -5 19 -9 12 -9 49 -13 75 -8 61 10 53 106 -10 110 -18 2 -20 2 -30 11
-17 15 -22 18 -34 21 -6 2 -14 5 -19 8 -4 2 -11 6 -16 7 -12 4 -14 6 -22 21
-5 10 -10 16 -26 31 -22 20 -26 26 -26 42 1 14 -3 21 -14 31 -29 25 -36 33
-39 43 -2 6 -6 14 -9 18 -3 5 -8 12 -10 17 -2 5 -7 15 -11 21 -8 12 -8 12 -7
73 0 66 0 67 11 80 14 19 14 33 0 49 -12 14 -12 9 -10 158 1 147 2 140 -11
156 -6 7 -7 10 -8 23 -1 13 -2 15 -8 23 -10 10 -10 10 -10 46 -1 30 -1 30 -9
41 -7 10 -8 14 -9 26 -1 9 -3 16 -5 19 -2 3 -5 8 -8 12 -3 4 -5 9 -5 15 0 13
-4 25 -12 37 -20 29 -24 41 -24 64 0 22 0 21 -11 37 -2 4 -4 11 -5 19 -1 11
-3 16 -9 26 -7 10 -8 14 -9 28 -1 16 -1 16 -17 32 -13 14 -17 20 -21 29 -4 12
-6 15 -32 38 -15 14 -40 38 -55 53 -22 21 -30 28 -36 30 -12 3 -94 3 -102 -1z
m69 -179 c2 -2 9 -14 15 -26 8 -16 13 -24 19 -28 9 -7 14 -15 14 -22 0 -2 4
-9 9 -16 7 -12 8 -15 9 -28 2 -16 13 -41 29 -62 6 -8 6 -8 7 -41 1 -32 3 -42
10 -46 8 -5 9 -11 8 -85 0 -79 -1 -70 13 -89 3 -5 5 -11 6 -23 1 -15 2 -17 8
-24 11 -13 11 -12 11 -71 -1 -59 -1 -58 11 -72 l7 -7 0 -100 0 -99 -8 -10 c-8
-9 -9 -10 -10 -25 -2 -14 -3 -18 -8 -25 -13 -16 -13 -17 -11 -72 2 -55 2 -56
-11 -73 -7 -8 -7 -8 -6 -45 0 -40 0 -43 -11 -56 -6 -8 -7 -11 -9 -24 -1 -12
-2 -16 -7 -22 -3 -4 -7 -12 -9 -18 -3 -5 -7 -13 -10 -17 -10 -13 -11 -15 -9
-43 1 -28 -6 -50 -27 -82 -5 -7 -5 -9 -5 -31 0 -48 -23 -80 -44 -61 -5 5 -5 6
-4 17 2 16 -1 19 -26 46 -19 20 -25 29 -25 39 0 2 -6 9 -14 17 -10 10 -16 18
-20 27 -3 7 -8 16 -10 19 -2 3 -6 10 -7 16 -3 8 -7 14 -20 28 -10 10 -17 20
-18 23 -3 12 -6 17 -16 27 -6 6 -13 14 -14 18 -2 4 -7 13 -11 19 -7 11 -9 15
-11 31 -2 15 -3 19 -9 26 -8 10 -10 18 -8 33 2 15 0 21 -8 31 -10 13 -11 15
-11 47 0 30 0 30 -6 39 -13 17 -12 7 -11 151 0 132 0 132 6 140 13 18 13 20
12 47 0 29 1 34 12 48 7 8 7 8 7 64 0 55 0 55 5 64 14 24 14 24 13 42 -1 17
-1 17 6 27 11 15 11 18 10 36 -2 21 14 56 36 79 14 14 17 21 17 36 0 5 2 12 4
15 1 4 6 13 10 21 5 7 10 17 13 21 3 4 6 11 7 15 1 4 4 10 7 14 3 4 6 9 8 11
2 3 4 11 5 23 1 18 1 18 17 35 11 10 17 19 19 24 9 27 30 40 44 27z"/>
<path d="M123 720 c-5 -3 -9 -14 -9 -24 -1 -5 0 -71 1 -146 1 -75 1 -164 0
-198 -3 -89 -5 -85 46 -84 58 1 55 -4 53 87 -2 90 -2 185 0 277 3 95 6 89 -51
90 -23 0 -37 -1 -40 -2z"/>
<path d="M3909 674 c-30 -1 -35 -3 -42 -13 -5 -7 -5 -4 -2 -136 1 -62 1 -125
-1 -177 -3 -104 -6 -96 46 -98 60 -2 56 -8 54 85 -1 36 -1 118 0 182 1 160 1
161 -23 159 -2 -1 -17 -1 -32 -2z"/>
</g>
</svg>
