<?xml version="1.0" standalone="no"?>
<!DOCTYPE svg PUBLIC "-//W3C//DTD SVG 20010904//EN"
 "http://www.w3.org/TR/2001/REC-SVG-20010904/DTD/svg10.dtd">
<svg version="1.0" xmlns="http://www.w3.org/2000/svg"
 width="430.000000pt" height="376.000000pt" viewBox="0 0 430.000000 376.000000"
 preserveAspectRatio="xMidYMid meet">
<metadata>
Created by potrace 1.16, written by Peter Selinger 2001-2019
</metadata>
<g transform="translate(0.000000,376.000000) scale(0.100000,-0.100000)"
fill="#000000" stroke="none">
<path d="M2665 3566 c-81 -47 -122 -80 -233 -184 -235 -223 -397 -394 -467
-492 -16 -23 -46 -60 -66 -83 -45 -51 -81 -118 -85 -159 -2 -16 -10 -44 -18
-61 -7 -18 -24 -59 -36 -92 -12 -33 -26 -70 -31 -83 -5 -13 -9 -61 -9 -106 0
-69 -4 -91 -22 -124 -23 -39 -23 -42 -18 -345 4 -272 7 -307 23 -324 9 -11 17
-29 17 -41 0 -11 5 -24 10 -27 6 -3 10 -19 10 -35 0 -16 9 -48 21 -70 13 -25
19 -49 15 -64 -4 -16 1 -33 16 -51 20 -26 24 -39 35 -117 3 -24 13 -42 29 -53
13 -8 24 -21 24 -27 0 -12 85 -140 146 -218 19 -25 42 -57 52 -71 29 -43 149
-169 161 -169 7 0 37 -19 68 -42 30 -24 65 -50 77 -58 12 -8 42 -31 67 -50 24
-20 65 -46 92 -59 26 -12 47 -26 47 -30 0 -4 28 -26 63 -49 34 -23 85 -60 112
-81 61 -49 100 -53 136 -15 13 15 56 42 94 61 39 19 90 49 115 68 25 18 55 34
66 34 12 1 26 7 32 14 11 12 12 17 12 41 0 8 26 33 58 55 32 23 74 61 95 85
20 25 54 54 75 66 21 12 47 37 57 56 10 19 39 53 63 76 40 37 112 158 112 189
0 7 6 20 14 28 26 31 88 161 83 175 -3 8 1 22 8 33 8 10 15 27 15 38 0 11 7
29 15 39 8 11 15 30 15 42 0 12 6 37 14 56 8 19 14 49 14 67 -1 17 4 37 10 43
9 9 12 88 12 270 l0 258 -26 12 c-26 12 -26 14 -21 84 6 62 4 75 -13 97 -11
14 -20 35 -20 46 0 12 -9 38 -19 59 -10 20 -26 60 -34 88 -17 57 -62 149 -87
179 -10 11 -20 36 -24 56 -7 38 -27 62 -62 73 -21 7 -58 81 -48 97 11 18 -28
77 -71 109 -25 19 -45 38 -45 42 0 5 -22 33 -48 61 -27 29 -65 80 -85 114 -27
44 -46 64 -68 72 -34 12 -69 46 -69 68 0 7 -5 13 -11 13 -15 0 -149 130 -149
145 0 11 -60 71 -96 96 -12 8 -47 33 -77 57 -64 48 -86 51 -142 18z m130 -204
c34 -28 47 -49 35 -57 -10 -6 -70 51 -70 67 0 13 13 9 35 -10z m-100 -559 c0
-285 2 -556 5 -603 5 -80 4 -85 -15 -83 -11 1 -38 23 -59 50 -22 26 -143 153
-270 281 -184 185 -236 232 -257 232 -18 0 -29 8 -37 25 -18 39 12 86 118 190
51 50 103 107 117 128 13 21 32 41 41 44 24 8 62 44 62 58 0 7 25 34 56 61 30
27 74 68 97 91 38 38 47 42 92 43 l50 0 0 -517z m257 390 c18 -21 80 -88 138
-149 58 -61 119 -130 135 -154 17 -23 47 -61 67 -84 21 -24 47 -63 59 -87 11
-24 34 -66 50 -94 16 -27 29 -57 29 -66 0 -9 -17 -24 -37 -35 -53 -27 -106
-73 -119 -104 -6 -14 -28 -39 -49 -55 -20 -17 -95 -87 -166 -157 -71 -71 -133
-128 -139 -128 -5 0 -13 0 -16 0 -5 0 -9 1108 -5 1145 2 14 24 1 53 -32z
m-957 -646 c8 -13 26 -30 40 -37 14 -7 34 -28 44 -46 11 -18 38 -44 60 -58 21
-14 42 -35 46 -46 4 -12 15 -24 25 -28 10 -4 120 -107 244 -230 199 -195 248
-252 218 -252 -4 0 -45 -36 -90 -80 -45 -44 -94 -86 -110 -94 -15 -8 -70 -58
-121 -113 -52 -54 -107 -105 -122 -113 -15 -8 -71 -62 -125 -120 -53 -58 -105
-106 -115 -108 -25 -4 -46 33 -54 93 -6 51 -21 114 -35 150 -7 18 -37 112 -61
191 -12 40 -12 87 1 100 5 5 11 95 14 199 6 265 17 386 39 418 9 14 17 35 17
46 0 11 4 22 9 26 6 3 10 23 9 44 -1 72 36 104 67 58z m1577 -177 c55 -147 67
-187 68 -216 0 -17 7 -37 16 -44 11 -10 14 -23 9 -52 -5 -27 -2 -46 9 -63 12
-18 15 -45 14 -104 -2 -63 0 -83 15 -98 14 -16 17 -40 17 -146 0 -69 -4 -128
-9 -131 -4 -3 -11 -42 -15 -86 -4 -45 -11 -89 -15 -98 -5 -9 -15 -37 -21 -62
-7 -25 -14 -51 -16 -58 -11 -40 -43 -14 -318 265 -156 158 -305 304 -330 323
-52 40 -69 77 -41 92 56 32 464 409 542 501 18 21 38 37 44 35 6 -2 20 -28 31
-58z m-756 -282 c41 -28 90 -108 73 -118 -14 -10 -39 -76 -39 -108 0 -13 7
-37 17 -55 9 -18 22 -54 29 -82 14 -50 9 -64 -22 -65 -7 0 -15 -7 -18 -16 -3
-9 -12 -14 -20 -11 -7 3 -18 1 -23 -4 -13 -13 -71 59 -79 98 -3 17 2 46 15 76
12 27 21 58 21 69 0 18 -34 109 -60 159 -5 10 2 25 26 47 18 18 37 32 41 32 4
0 21 -10 39 -22z m-92 -495 c3 -32 5 -169 5 -304 -1 -167 3 -249 10 -253 7 -5
11 -82 11 -237 0 -178 3 -236 14 -257 12 -24 20 -85 17 -129 -2 -21 -39 -15
-55 8 -8 12 -31 31 -49 43 -71 43 -143 94 -179 127 -57 53 -105 89 -116 89 -5
0 -34 18 -63 40 -30 22 -56 40 -60 40 -3 0 -21 24 -39 53 -19 28 -46 68 -62
87 -16 19 -33 40 -37 46 -5 6 -18 29 -30 51 -11 22 -27 43 -36 46 -8 4 -15 18
-15 32 0 22 4 25 38 25 35 0 46 8 133 96 51 52 105 101 119 109 14 7 72 61
130 120 58 59 116 113 130 120 14 7 40 34 59 59 48 64 68 61 75 -11z m251 0
c33 -50 506 -521 530 -527 27 -7 39 -52 21 -81 -7 -11 -18 -39 -24 -62 -10
-33 -18 -43 -40 -48 -21 -4 -34 -18 -50 -50 -11 -24 -33 -51 -47 -62 -15 -10
-34 -25 -42 -35 -41 -45 -216 -217 -252 -247 -53 -43 -110 -52 -141 -21 -12
12 -18 26 -13 33 13 21 18 254 8 331 -5 31 -3 56 5 71 8 16 9 28 2 41 -8 15
-20 653 -13 697 2 14 38 -11 56 -40z m-85 -1233 c0 -5 -2 -10 -4 -10 -3 0 -8
5 -11 10 -3 6 -1 10 4 10 6 0 11 -4 11 -10z"/>
<path d="M3899 3505 c0 -3 -1 -116 -1 -252 l-1 -248 98 -3 c54 -1 102 1 107 6
6 6 12 351 8 490 0 9 -28 12 -105 12 -58 0 -105 -2 -106 -5z"/>
<path d="M184 3488 c-4 -6 -7 -387 -4 -496 0 -10 25 -12 106 -10 l107 3 0 248
c0 136 -3 251 -7 254 -9 9 -197 10 -202 1z"/>
<path d="M630 3335 c0 -3 0 -665 0 -1472 l-1 -1468 106 -3 c80 -2 105 0 105
10 0 7 0 656 0 1441 0 1293 -2 1430 -16 1453 -10 14 -26 24 -40 24 -12 0 -26
5 -29 10 -6 10 -125 15 -125 5z"/>
<path d="M1170 1865 l0 -1476 108 3 107 3 3 1430 c1 1057 -1 1437 -9 1458 -8
19 -21 30 -41 34 -15 3 -31 10 -34 14 -3 5 -34 9 -70 9 l-64 0 0 -1475z"/>
<path d="M3919 706 c-2 -2 -4 -118 -3 -258 l0 -253 105 0 104 0 3 258 2 257
-103 0 c-57 0 -106 -2 -108 -4z"/>
<path d="M160 676 c-3 -94 0 -489 3 -493 7 -7 197 -7 204 0 3 4 6 118 6 254
l0 248 -106 1 c-72 1 -107 -2 -107 -10z"/>
</g>
</svg>
