<?xml version="1.0" standalone="no"?>
<!DOCTYPE svg PUBLIC "-//W3C//DTD SVG 20010904//EN"
 "http://www.w3.org/TR/2001/REC-SVG-20010904/DTD/svg10.dtd">
<svg version="1.0" xmlns="http://www.w3.org/2000/svg"
 width="100.000000pt" height="87.000000pt" viewBox="0 0 100.000000 87.000000"
 preserveAspectRatio="xMidYMid meet">
<metadata>
Created by potrace 1.16, written by Peter Selinger 2001-2019
</metadata>
<g transform="translate(0.000000,87.000000) scale(0.100000,-0.100000)"
fill="#000000" stroke="none">
<path d="M530 754 c-50 -48 -89 -96 -105 -128 -32 -66 -47 -189 -33 -266 11
-58 55 -161 85 -197 27 -32 164 -123 185 -123 55 0 185 130 219 218 49 128 29
249 -65 390 -48 72 -162 182 -190 182 -9 0 -52 -34 -96 -76z m90 -119 c0 -69
-4 -125 -8 -125 -11 0 -122 116 -122 126 0 11 112 124 122 124 4 0 8 -56 8
-125z m157 -23 c4 -19 -4 -34 -42 -72 -27 -27 -52 -47 -57 -44 -9 6 -11 178
-1 213 6 24 8 24 50 -25 24 -27 46 -60 50 -72z m-234 -106 l78 -73 -74 -66
c-41 -37 -79 -67 -85 -67 -15 0 -33 110 -27 165 10 88 16 115 23 115 4 -1 42
-34 85 -74z m291 19 c15 -40 27 -182 17 -208 l-11 -28 -75 67 c-41 37 -75 70
-75 73 0 10 115 110 126 111 7 0 14 -7 18 -15z m-201 -287 c4 -67 5 -123 2
-126 -11 -12 -145 100 -145 121 0 15 111 127 126 127 7 0 13 -42 17 -122z
m141 36 c29 -34 35 -48 27 -61 -18 -33 -99 -105 -110 -99 -7 5 -11 51 -11 127
l0 120 29 -22 c15 -11 45 -40 65 -65z"/>
<path d="M47 813 c-4 -3 -7 -35 -7 -70 0 -61 1 -64 22 -61 43 6 46 138 4 138
-7 0 -16 -3 -19 -7z"/>
<path d="M905 810 c-10 -17 -8 -111 3 -122 6 -6 18 -8 28 -6 16 3 19 13 19 68
0 59 -2 65 -22 68 -11 2 -24 -2 -28 -8z"/>
<path d="M146 764 c-9 -24 -7 -657 3 -672 5 -8 17 -12 27 -10 18 3 19 19 22
337 2 336 0 361 -33 361 -7 0 -16 -7 -19 -16z"/>
<path d="M275 768 c-3 -7 -4 -164 -3 -348 3 -332 3 -335 24 -338 19 -3 22 3
28 59 7 74 6 383 -3 529 -5 89 -9 105 -24 108 -9 2 -19 -3 -22 -10z"/>
<path d="M43 163 c-16 -6 -18 -119 -3 -128 6 -3 19 -3 30 0 17 5 20 15 20 59
0 28 -5 57 -12 64 -13 13 -16 13 -35 5z"/>
<path d="M904 147 c-3 -13 -4 -41 -2 -63 3 -34 6 -39 31 -42 l27 -3 0 65 c0
64 -1 66 -25 66 -17 0 -26 -7 -31 -23z"/>
</g>
</svg>
