<?xml version="1.0" standalone="no"?>
<!DOCTYPE svg PUBLIC "-//W3C//DTD SVG 20010904//EN"
 "http://www.w3.org/TR/2001/REC-SVG-20010904/DTD/svg10.dtd">
<svg version="1.0" xmlns="http://www.w3.org/2000/svg"
 width="1718.000000pt" height="1500.000000pt" viewBox="0 0 1718.000000 1500.000000"
 preserveAspectRatio="xMidYMid meet">
<metadata>
Created by potrace 1.16, written by Peter Selinger 2001-2019
</metadata>
<g transform="translate(0.000000,1500.000000) scale(0.500000,-0.500000)"
fill="#000000" stroke="none">
<path d="M2158 2867 c-5 -2 -12 -5 -16 -9 -5 -3 -18 -10 -29 -15 -13 -7 -23
-13 -34 -23 -11 -10 -17 -14 -24 -16 -8 -2 -17 -10 -97 -90 -76 -76 -89 -88
-97 -91 -23 -8 -135 -119 -150 -149 -4 -9 -18 -23 -60 -66 -51 -51 -55 -56
-57 -65 -2 -8 -6 -13 -22 -30 -16 -16 -21 -24 -26 -34 -5 -12 -10 -18 -29 -37
-22 -22 -51 -64 -51 -74 0 -2 -4 -11 -8 -20 -7 -14 -8 -19 -8 -30 0 -16 -9
-42 -18 -54 -8 -11 -10 -15 -11 -29 -1 -11 -3 -14 -9 -23 -6 -7 -8 -12 -9 -21
0 -6 -3 -16 -6 -22 -3 -7 -6 -15 -6 -20 -1 -4 -5 -15 -9 -23 -7 -15 -7 -15 -7
-81 -1 -65 -1 -65 -7 -78 -4 -6 -8 -15 -10 -19 -1 -4 -6 -12 -10 -18 l-6 -12
-1 -232 0 -233 9 -20 c4 -11 10 -23 14 -27 8 -10 9 -14 11 -27 0 -9 2 -16 7
-24 6 -10 7 -14 8 -32 1 -20 1 -20 13 -41 17 -29 16 -25 17 -58 l1 -29 12 -13
c14 -15 19 -27 19 -44 0 -7 2 -16 6 -26 5 -11 7 -19 7 -32 2 -21 4 -26 16 -33
12 -7 15 -11 23 -31 4 -11 13 -24 24 -39 10 -13 20 -29 23 -34 3 -6 8 -15 13
-19 4 -5 11 -15 14 -23 4 -10 9 -17 19 -26 8 -7 17 -19 23 -30 6 -10 17 -24
24 -32 8 -8 15 -18 18 -24 6 -14 21 -32 57 -67 23 -23 33 -34 37 -42 7 -14 16
-21 25 -23 4 -1 10 -2 14 -2 5 -1 11 -4 19 -12 6 -6 16 -13 22 -16 13 -7 23
-14 42 -31 8 -8 19 -17 26 -20 7 -3 20 -13 32 -24 19 -17 26 -22 36 -25 3 0
10 -5 16 -11 7 -6 15 -12 22 -14 6 -2 13 -6 16 -8 3 -2 12 -7 21 -11 12 -6 17
-10 28 -21 12 -14 20 -20 32 -23 3 0 10 -6 16 -11 6 -5 15 -12 19 -14 15 -8
26 -16 43 -32 9 -8 21 -18 27 -22 7 -3 17 -11 23 -16 14 -13 21 -16 41 -16 26
0 30 2 46 21 17 19 20 21 32 27 6 2 14 6 18 9 5 4 14 8 19 10 6 2 16 7 23 11
7 4 20 10 28 13 10 4 19 9 29 19 8 7 20 14 26 17 6 3 16 9 22 15 6 5 13 10 15
11 3 0 11 2 18 3 17 3 21 7 24 25 3 23 27 50 51 57 6 2 18 13 62 58 47 46 57
55 67 59 18 8 36 25 44 39 11 21 21 33 56 68 19 19 35 37 37 40 2 4 6 11 9 15
5 7 23 46 28 60 2 3 6 11 10 18 6 9 8 14 8 20 0 10 5 21 15 33 4 5 9 13 12 17
3 5 7 13 10 19 3 5 9 17 12 26 4 9 11 23 16 31 5 7 9 16 9 19 0 3 1 13 1 22 0
16 0 18 6 25 9 11 11 16 11 24 0 12 3 21 12 32 9 12 17 35 19 55 1 11 3 18 9
29 7 13 7 14 8 43 1 24 2 30 5 34 15 21 13 -4 13 223 -1 233 1 210 -19 221
-18 10 -18 7 -16 68 2 60 2 57 -15 77 -13 16 -14 19 -14 31 0 20 -3 31 -10 43
-12 19 -20 35 -21 45 -1 5 -4 14 -7 21 -3 7 -7 18 -8 25 -1 6 -4 17 -8 24 -3
6 -8 16 -11 23 -2 7 -8 18 -13 25 -5 7 -12 20 -15 29 -5 12 -8 18 -18 28 -11
13 -12 14 -18 38 -11 41 -23 57 -48 67 -23 8 -40 41 -43 77 -2 33 -18 62 -41
75 -6 4 -15 11 -19 16 -5 5 -13 12 -18 16 -7 4 -11 9 -15 17 -4 9 -13 20 -40
47 -29 30 -35 37 -38 45 -2 7 -7 15 -13 21 -5 6 -11 15 -13 20 -14 35 -37 58
-67 67 -15 4 -38 27 -43 42 -4 12 -9 17 -23 22 -16 5 -103 92 -107 108 -6 18
-46 59 -76 77 -14 8 -24 16 -31 24 -6 6 -18 16 -27 22 -9 6 -21 15 -27 20 -17
14 -45 19 -66 11z m-10 -216 c14 -7 14 -12 10 -88 -11 -193 -7 -742 6 -829 5
-34 -26 -50 -43 -22 -8 11 -20 26 -75 84 -87 94 -330 336 -347 346 -3 2 -10 4
-14 4 -55 0 -43 68 23 129 84 80 124 121 130 135 8 17 25 35 40 40 17 6 38 28
45 46 7 19 69 83 89 92 13 5 29 20 51 47 16 19 62 28 85 16z m197 -85 c6 -4
19 -18 31 -31 21 -24 84 -91 143 -151 28 -29 33 -34 36 -44 3 -9 8 -15 24 -32
17 -18 21 -23 23 -31 2 -9 6 -14 31 -39 31 -31 35 -38 55 -85 4 -9 11 -22 16
-28 4 -5 9 -14 11 -19 2 -5 6 -13 9 -17 9 -15 16 -32 16 -40 0 -11 -22 -32
-42 -38 -8 -3 -15 -7 -28 -20 -11 -10 -21 -17 -29 -21 -15 -7 -17 -9 -20 -25
-5 -24 -34 -58 -62 -71 -16 -7 -43 -33 -124 -120 -24 -25 -48 -49 -54 -53 -5
-4 -18 -13 -28 -21 -39 -31 -43 -23 -37 76 8 157 8 553 0 749 -3 69 3 82 29
61z m-755 -524 c2 -2 5 -7 7 -11 4 -8 4 -8 31 -25 25 -16 27 -19 34 -33 8 -16
34 -42 48 -49 25 -13 31 -20 44 -48 2 -5 6 -10 9 -12 2 -1 9 -4 16 -7 10 -4
19 -13 73 -66 114 -114 210 -207 258 -250 46 -41 46 -44 0 -84 -13 -11 -91
-85 -100 -94 -4 -4 -17 -13 -29 -20 -22 -13 -24 -14 -104 -95 -78 -78 -82 -81
-97 -89 -17 -8 -52 -43 -155 -154 -34 -36 -63 -27 -69 23 -1 7 -4 18 -7 25 -5
10 -5 12 -4 31 1 18 1 20 -4 32 -3 7 -7 21 -9 30 -2 9 -7 24 -11 32 -4 9 -8
21 -9 27 -1 7 -4 17 -7 23 -2 6 -5 15 -6 20 0 4 -4 13 -7 19 -4 8 -6 14 -6 21
0 17 -4 32 -10 42 -12 18 -12 57 -1 71 11 15 11 9 11 159 l0 138 8 19 c7 18 7
18 6 75 0 67 3 84 20 109 7 10 8 13 10 27 1 13 3 18 7 25 5 7 6 10 7 31 2 44
27 77 46 58z m1247 -113 c5 -5 20 -39 28 -61 4 -10 9 -21 11 -24 7 -10 10 -18
10 -28 0 -7 2 -13 6 -22 3 -6 7 -17 8 -23 1 -7 4 -16 6 -20 4 -7 5 -12 6 -31
1 -23 1 -24 7 -31 11 -13 11 -15 11 -50 0 -34 0 -34 8 -47 7 -13 7 -13 7 -68
0 -69 2 -75 24 -103 10 -13 9 -182 -1 -201 -7 -13 -7 -13 -8 -47 -1 -28 -2
-37 -7 -51 -3 -9 -5 -22 -5 -28 0 -8 -2 -14 -6 -24 -3 -6 -7 -19 -9 -28 -2 -9
-6 -22 -9 -30 -3 -8 -7 -18 -7 -23 -3 -17 -12 -27 -26 -27 -13 0 -19 5 -77 67
-111 119 -406 409 -444 436 -11 8 -16 18 -16 30 0 8 1 10 27 31 9 7 25 22 36
32 27 26 39 35 53 40 10 4 17 10 88 80 66 66 79 77 90 83 19 10 56 46 144 143
25 27 36 33 45 25z m-670 -615 c7 -4 9 -11 8 -38 0 -25 0 -25 7 -38 8 -16 8
-12 4 -152 -4 -174 -3 -243 5 -257 l7 -12 1 -148 c1 -193 2 -208 12 -228 8
-17 14 -84 9 -98 -6 -15 -20 -14 -36 2 -8 9 -16 14 -31 21 -14 7 -25 14 -39
26 -10 8 -23 18 -29 21 -5 3 -14 9 -19 13 -5 4 -14 10 -19 13 -13 7 -28 19
-46 39 -15 16 -24 23 -38 28 -4 1 -14 10 -24 20 -14 13 -22 19 -34 25 -43 22
-47 25 -65 42 -12 12 -19 17 -26 19 -10 3 -17 10 -20 20 -2 5 -8 14 -14 21 -6
6 -13 18 -16 24 -4 10 -11 19 -26 34 -13 13 -21 25 -25 32 -3 6 -10 16 -16 22
-6 7 -12 15 -14 21 -6 15 -17 34 -27 45 -15 17 -18 21 -18 29 0 16 9 21 29 19
23 -3 45 13 115 85 51 52 83 81 96 86 12 5 14 7 95 90 86 89 89 91 107 102 11
6 28 24 52 53 18 22 22 25 35 19z m191 -16 c2 -1 7 -6 11 -11 28 -37 184 -199
328 -341 77 -76 91 -88 106 -94 23 -9 30 -43 13 -67 -5 -8 -8 -16 -10 -23 -6
-34 -20 -53 -41 -59 -18 -5 -23 -11 -36 -38 -12 -25 -35 -50 -61 -66 -10 -6
-14 -10 -23 -23 -16 -25 -146 -155 -163 -164 -9 -5 -19 -13 -31 -25 -51 -52
-147 -27 -108 28 6 10 6 13 0 25 -8 16 -7 64 2 79 12 21 11 18 11 60 -1 38 -1
38 -9 52 -11 21 -10 75 2 90 9 12 9 15 1 28 -9 17 -10 23 -11 197 -1 155 -2
226 -7 300 -3 47 5 63 26 52z"/>
<path d="M3194 2810 c-90 -1 -88 0 -84 -47 4 -41 5 -226 2 -282 -5 -91 -12
-85 92 -85 97 -1 92 -4 88 64 -3 56 -3 230 0 287 4 69 10 65 -98 63z"/>
<path d="M156 2796 c-13 -5 -17 -20 -14 -62 4 -46 4 -245 0 -296 -4 -61 -9
-58 91 -57 99 1 90 -6 87 77 -3 68 -2 220 2 277 4 64 8 62 -89 62 -40 0 -75
-1 -77 -1z"/>
<path d="M946 2671 c-12 -6 -13 -11 -10 -68 4 -74 5 -1946 2 -2121 -4 -157 -4
-152 1 -160 6 -13 4 -13 87 -12 83 0 81 0 88 13 4 7 4 10 0 144 -2 90 -2 1977
1 2115 0 43 -17 72 -42 72 -8 0 -12 1 -17 5 -18 13 -18 13 -37 13 -10 0 -29 0
-42 1 -19 1 -25 1 -31 -2z"/>
<path d="M510 2669 c-11 -6 -11 -7 -8 -109 3 -123 3 -1930 0 -2107 -3 -161
-15 -142 89 -142 100 -1 90 -12 87 104 -2 95 -3 2034 0 2125 2 84 -7 110 -43
114 -10 1 -15 3 -20 8 -14 10 -14 10 -58 10 -32 0 -43 -1 -47 -3z"/>
<path d="M3138 568 c-13 -6 -13 -7 -10 -80 3 -82 3 -147 0 -239 -3 -105 -13
-95 91 -96 83 0 81 0 85 11 6 14 3 398 -3 403 -7 7 -150 8 -163 1z"/>
<path d="M135 552 c-9 -6 -9 -7 -7 -108 2 -72 2 -114 0 -188 -3 -129 -14 -115
89 -115 100 0 92 -7 89 77 -3 70 -3 231 0 279 3 60 8 57 -93 57 -47 0 -75 -1
-78 -2z"/>
</g>
</svg>
