<?xml version="1.0" standalone="no"?>
<!DOCTYPE svg PUBLIC "-//W3C//DTD SVG 20010904//EN"
 "http://www.w3.org/TR/2001/REC-SVG-20010904/DTD/svg10.dtd">
<svg version="1.0" xmlns="http://www.w3.org/2000/svg"
 width="1642.000000pt" height="1500.000000pt" viewBox="0 0 1642.000000 1500.000000"
 preserveAspectRatio="xMidYMid meet">
<metadata>
Created by potrace 1.16, written by Peter Selinger 2001-2019
</metadata>
<g transform="translate(0.000000,1500.000000) scale(0.500000,-0.500000)"
fill="#000000" stroke="none">
<path d="M3061 2872 c-8 -1 -14 -4 -23 -10 -6 -5 -14 -10 -18 -12 -12 -7 -13
-9 -10 -57 4 -87 4 -98 -3 -110 -13 -20 -13 -19 -13 -84 0 -67 1 -71 12 -84 9
-9 9 -9 8 -40 0 -30 0 -30 7 -44 7 -12 8 -16 7 -27 0 -7 -1 -58 -2 -113 -1
-55 -3 -112 -4 -127 -4 -46 -3 -47 71 -47 66 0 64 -1 64 31 0 10 -1 101 -2
200 l-2 182 -10 10 c-14 14 -16 28 -4 43 15 19 14 9 15 121 1 56 2 109 2 118
1 42 -31 59 -95 50z"/>
<path d="M2430 2869 c-3 -2 -8 -6 -11 -9 -4 -3 -10 -6 -15 -7 -5 -1 -11 -3
-14 -7 -8 -7 -8 2 -4 -96 1 -38 2 -94 2 -124 -1 -63 -1 -62 15 -66 20 -6 24
-10 24 -23 0 -9 -7 -16 -18 -18 -21 -4 -23 -8 -23 -50 0 -42 3 -48 23 -54 20
-6 19 1 19 -123 l-1 -107 -10 -16 c-6 -9 -12 -18 -14 -21 -2 -2 -8 -6 -13 -9
-6 -3 -17 -11 -25 -19 -13 -12 -16 -14 -26 -16 -9 -2 -14 -4 -20 -11 -5 -4
-16 -11 -24 -15 -13 -7 -14 -8 -20 -19 -3 -7 -12 -19 -19 -27 -18 -20 -23 -27
-26 -37 -2 -5 -8 -14 -20 -26 -14 -14 -20 -22 -24 -32 -4 -7 -9 -18 -13 -23
-7 -10 -11 -28 -8 -35 3 -8 -3 -27 -12 -39 -8 -12 -23 -43 -23 -48 0 -3 -14
-32 -20 -41 -4 -5 -8 -15 -10 -21 -3 -9 -6 -15 -13 -22 -6 -7 -9 -12 -9 -15 0
-3 0 -24 0 -47 0 -44 -1 -50 -11 -64 -9 -13 -9 -12 -9 -50 0 -34 0 -34 5 -42
3 -5 7 -11 9 -13 2 -3 4 -11 5 -19 2 -16 5 -24 13 -33 12 -14 12 -44 -2 -64
-10 -14 -8 -19 10 -32 6 -4 11 -10 13 -14 2 -4 7 -16 12 -26 20 -41 22 -46 22
-69 0 -22 2 -26 10 -37 3 -3 7 -10 10 -16 2 -6 11 -17 19 -25 14 -16 14 -17
17 -38 1 -11 5 -15 26 -28 20 -13 43 -37 58 -59 12 -19 18 -23 32 -23 6 0 13
-2 23 -7 40 -20 48 -24 63 -25 30 -2 43 -20 31 -44 l-7 -13 -2 -304 c-1 -167
-2 -312 -2 -322 0 -18 0 -18 13 -43 21 -42 24 -44 64 -46 54 -1 58 3 54 66 -1
21 -3 63 -4 93 l-2 55 9 16 c12 25 12 69 0 92 -11 19 -11 22 -3 30 11 13 11 9
10 114 0 53 -1 126 -1 161 -2 75 -2 75 21 79 15 2 20 7 27 21 7 13 10 17 19
21 4 2 12 7 17 12 9 7 13 9 30 13 9 2 37 30 39 40 3 13 5 15 17 28 8 10 13 13
20 15 16 5 20 7 34 21 12 12 15 17 18 26 2 6 6 15 11 20 5 6 9 15 11 20 4 13
7 16 21 20 13 5 18 12 18 29 0 8 2 14 6 22 5 8 6 14 6 22 0 8 1 13 7 24 8 12
8 14 9 36 1 23 1 23 10 38 9 15 9 15 9 42 0 36 2 39 24 48 14 7 14 2 13 119
l0 106 -8 16 c-9 16 -9 16 -9 37 0 21 -3 30 -10 36 -2 2 -6 9 -10 17 -5 9 -12
19 -20 27 -13 13 -13 14 -15 28 -3 24 -11 45 -23 61 -4 5 -8 14 -10 20 -2 6
-7 17 -12 24 -13 21 -22 37 -25 48 -4 14 -121 132 -133 134 -5 1 -15 5 -23 9
-12 7 -16 8 -26 8 -17 0 -40 18 -46 35 -3 12 -9 19 -18 21 -22 7 -26 45 -9 80
l10 19 0 126 0 126 -8 13 -8 12 2 108 c1 59 2 111 2 116 0 7 -2 12 -7 20 -7
13 -7 18 -5 38 2 18 1 19 -13 36 -13 18 -14 18 -55 18 -31 0 -37 -1 -41 -3z
m122 -853 c4 -2 9 -4 13 -6 3 -3 11 -7 18 -9 10 -4 15 -8 34 -28 18 -18 23
-23 29 -24 16 -3 21 -8 25 -28 1 -3 7 -11 16 -20 30 -30 45 -48 49 -59 3 -10
8 -16 24 -32 15 -15 22 -23 25 -32 3 -6 8 -17 11 -23 6 -12 6 -13 6 -49 0 -36
0 -36 7 -45 13 -17 13 -13 13 -136 0 -120 0 -120 -11 -129 -6 -5 -8 -11 -9
-32 -1 -19 -2 -22 -9 -37 -8 -16 -8 -16 -8 -44 0 -26 0 -29 -5 -38 -3 -6 -7
-14 -8 -18 -5 -19 -67 -82 -85 -87 -9 -2 -13 -5 -31 -23 -12 -11 -25 -23 -31
-26 -14 -8 -35 -23 -43 -33 -5 -4 -11 -8 -16 -10 -5 -1 -13 -5 -17 -8 -15 -10
-21 -12 -43 -12 -35 0 -37 1 -69 36 -10 12 -16 17 -26 22 -10 5 -14 8 -19 16
-7 12 -14 16 -27 16 -16 0 -40 22 -45 40 -3 13 -22 47 -30 57 -13 14 -14 17
-14 30 0 13 -2 17 -11 27 -4 5 -7 10 -8 13 -3 14 -6 20 -13 28 -8 10 -8 9 -8
37 0 17 0 17 -8 30 -9 12 -9 12 -8 42 0 29 0 29 -8 42 -12 21 -13 94 -1 120 7
16 8 19 8 35 0 17 1 20 8 34 7 15 8 17 9 39 1 23 1 23 10 34 6 8 8 12 8 19 0
12 3 22 11 31 4 4 7 10 8 12 0 1 2 7 3 11 1 5 6 14 10 21 9 14 12 21 17 39 5
17 67 81 85 87 15 5 34 25 43 43 12 24 82 40 121 27z"/>
<path d="M2485 1690 c-8 -2 -38 -33 -40 -40 0 -3 -2 -12 -3 -20 -1 -13 -3 -18
-9 -27 -8 -14 -13 -153 -6 -170 18 -44 131 -35 138 12 2 10 8 16 20 18 13 2
45 32 49 46 3 13 3 113 -1 122 -5 11 -34 40 -45 43 -5 1 -16 6 -24 10 -15 8
-60 11 -79 6z"/>
<path d="M192 2852 c-4 -1 -13 -4 -19 -7 -7 -3 -15 -5 -20 -5 -27 0 -28 -4
-25 -100 1 -42 2 -110 2 -149 0 -79 0 -78 12 -93 l8 -10 -1 -124 c-1 -67 -2
-163 -3 -213 -3 -109 -3 -105 1 -112 5 -8 12 -9 57 -9 75 0 71 -8 65 122 -1
25 -1 25 5 33 13 14 12 6 12 151 0 143 -1 139 10 152 10 11 10 11 10 122 0
113 1 112 -10 123 -9 9 -10 14 -9 43 3 64 -28 89 -95 76z"/>
<path d="M1012 2650 c-5 -1 -13 -5 -19 -9 -13 -8 -23 -11 -42 -11 -17 0 -23
-2 -33 -10 -10 -10 -39 -22 -57 -25 -22 -4 -25 -6 -33 -27 -6 -15 -10 -19 -25
-24 -7 -2 -15 -7 -21 -12 -6 -6 -11 -8 -20 -10 -14 -3 -22 -10 -27 -24 -4 -11
-9 -16 -20 -21 -4 -2 -11 -7 -16 -11 -5 -5 -12 -9 -17 -10 -15 -4 -16 -4 -22
-9 -10 -9 -16 -23 -16 -37 0 -20 -33 -56 -56 -62 -19 -5 -27 -15 -30 -44 -2
-17 -2 -17 -16 -31 -18 -19 -20 -22 -20 -34 0 -16 -2 -20 -16 -27 -13 -7 -14
-8 -25 -32 -5 -14 -7 -21 -7 -29 0 -12 -1 -15 -11 -28 -4 -5 -8 -13 -9 -17 -1
-4 -5 -12 -9 -18 -9 -14 -9 -15 -10 -36 0 -23 -3 -28 -17 -35 -14 -7 -16 -12
-16 -35 1 -19 1 -19 -7 -30 -6 -9 -7 -12 -7 -22 0 -13 -3 -21 -10 -27 -9 -8
-10 -15 -10 -62 0 -53 0 -54 -11 -66 -10 -11 -10 -7 -9 -58 1 -46 1 -45 -15
-57 -18 -14 -17 2 -17 -204 0 -207 -1 -191 17 -204 15 -12 15 -12 15 -57 0
-22 0 -42 0 -45 0 -2 4 -9 10 -14 l9 -10 1 -45 1 -45 10 -10 c10 -10 10 -10 8
-28 -1 -20 1 -27 10 -42 8 -10 8 -10 6 -26 -1 -22 1 -28 15 -35 14 -7 17 -12
17 -34 0 -21 2 -26 9 -35 4 -4 8 -13 10 -19 2 -6 5 -13 7 -15 13 -19 13 -18
13 -31 0 -9 2 -15 7 -27 4 -9 7 -16 7 -17 0 -5 9 -13 18 -18 13 -6 16 -11 16
-25 0 -13 1 -15 20 -36 15 -16 17 -19 20 -32 7 -25 14 -35 30 -42 25 -11 53
-45 53 -64 0 -23 12 -38 37 -45 7 -2 13 -5 16 -8 6 -6 19 -13 25 -13 7 0 15
-8 19 -20 6 -15 11 -21 24 -24 12 -3 15 -6 18 -20 2 -9 4 -12 13 -21 6 -6 13
-15 17 -24 10 -19 13 -21 39 -23 24 -2 27 -3 41 -12 9 -7 22 -14 39 -23 28
-16 118 -6 139 15 16 16 23 20 39 20 12 0 20 5 27 15 14 24 23 30 51 33 28 3
49 20 63 50 3 7 8 16 11 20 2 3 6 11 7 16 3 12 7 17 21 21 13 4 22 11 28 23 3
5 8 14 11 19 3 5 7 14 8 20 4 18 25 40 42 45 9 3 18 12 22 24 2 5 7 13 13 20
8 8 12 14 14 22 2 6 6 15 10 20 4 5 7 10 7 11 0 4 12 17 17 18 8 3 17 11 19
18 1 5 6 14 9 21 6 11 7 14 7 24 -1 10 0 12 8 24 4 7 8 14 8 17 0 5 7 21 10
21 5 0 10 12 11 25 1 16 2 18 16 24 13 6 14 8 18 26 1 9 5 21 8 28 5 10 6 16
7 36 1 24 1 24 9 35 8 11 8 11 9 35 1 25 1 25 8 32 12 12 12 14 12 52 0 43 1
46 18 56 16 10 16 8 15 69 l-2 53 8 11 c10 15 9 0 9 198 l-1 179 -8 15 c-7 14
-7 14 -7 68 1 62 1 60 -18 71 -15 8 -15 9 -14 47 0 37 0 37 -13 58 -7 10 -7
12 -7 28 0 22 -3 31 -12 42 -6 8 -7 10 -8 24 -1 12 -2 17 -8 26 -6 11 -6 12
-5 30 2 21 0 26 -13 31 -18 8 -17 7 -21 31 -2 13 -4 18 -9 25 -3 4 -9 13 -11
19 -3 6 -8 14 -10 18 -3 5 -6 13 -7 24 -4 33 -15 51 -34 59 -22 10 -36 28 -36
46 0 21 -24 52 -48 61 -13 5 -19 10 -22 19 -4 12 -25 50 -32 58 -3 4 -9 13
-13 22 -8 17 -11 19 -35 24 -17 3 -17 3 -41 27 -22 21 -25 24 -33 25 -32 5
-33 6 -39 23 -6 19 -15 25 -44 27 -13 1 -13 1 -29 17 -22 23 -45 29 -80 22z
m51 -116 c3 -1 11 -5 16 -9 9 -6 14 -7 27 -9 21 -3 25 -6 33 -21 7 -15 12 -21
21 -24 4 -2 11 -7 17 -12 7 -7 12 -9 21 -11 16 -4 38 -24 45 -44 8 -21 27 -40
43 -45 20 -5 28 -17 28 -40 0 -17 31 -53 60 -68 11 -6 11 -6 12 -19 1 -10 3
-16 7 -24 4 -6 8 -15 9 -19 1 -4 6 -13 9 -19 6 -9 7 -14 8 -26 2 -13 2 -15 10
-24 6 -6 10 -14 12 -20 2 -7 5 -11 10 -15 19 -15 21 -18 21 -28 0 -8 1 -12 6
-20 6 -8 7 -13 8 -24 1 -12 3 -17 7 -23 12 -17 12 -17 13 -50 1 -28 1 -32 5
-37 2 -3 6 -9 9 -13 5 -6 5 -8 6 -35 0 -34 1 -37 15 -46 16 -11 16 -9 16 -70
l0 -54 9 -16 8 -15 0 -175 0 -174 -6 -10 c-4 -5 -8 -12 -10 -14 -2 -3 -2 -15
-1 -56 1 -61 2 -55 -13 -64 -16 -10 -19 -16 -18 -48 1 -32 1 -30 -7 -39 -11
-12 -13 -18 -13 -51 0 -29 0 -29 -7 -38 -10 -13 -11 -16 -12 -37 0 -31 -13
-58 -30 -67 -14 -8 -17 -12 -18 -25 0 -5 -1 -11 -1 -13 0 -2 -3 -9 -8 -14 -4
-6 -9 -15 -10 -21 -2 -6 -5 -13 -10 -19 -8 -9 -9 -10 -10 -25 -1 -10 -3 -18
-6 -25 -3 -5 -6 -13 -7 -16 -2 -8 -10 -16 -19 -18 -16 -4 -42 -39 -52 -70 -5
-16 -11 -22 -27 -31 -15 -7 -16 -8 -22 -20 -12 -23 -49 -62 -64 -67 -11 -3
-15 -7 -25 -23 -4 -7 -9 -11 -16 -15 -6 -3 -17 -12 -25 -19 -14 -14 -15 -14
-28 -16 -35 -6 -49 -13 -59 -32 -10 -19 -9 -19 -62 -20 -62 0 -78 3 -83 20 -2
5 -32 27 -44 31 -13 5 -18 9 -21 19 -3 12 -11 18 -27 20 -16 3 -20 5 -25 17
-6 12 -11 16 -22 20 -13 4 -21 13 -25 27 -3 12 -12 22 -19 22 -6 0 -16 8 -21
18 -3 6 -8 12 -15 17 -6 4 -12 11 -15 17 -4 6 -11 16 -17 23 -6 6 -14 18 -18
27 -4 8 -9 16 -11 18 -1 1 -5 8 -7 15 -5 14 -7 16 -21 24 -12 5 -13 8 -13 21
1 7 -1 12 -5 20 -4 6 -8 16 -10 22 -2 6 -5 13 -8 16 -8 7 -11 15 -11 26 0 12
-4 21 -11 28 -3 3 -6 9 -8 15 -4 14 -9 20 -21 26 -12 6 -12 7 -12 32 1 18 1
19 -5 26 -11 13 -11 15 -11 47 0 32 -1 37 -10 45 -9 8 -10 13 -10 45 1 32 0
34 -12 46 -5 6 -7 10 -7 15 0 5 1 25 1 45 0 43 0 45 -15 57 -16 14 -15 -2 -15
197 0 199 -2 181 17 198 l12 12 0 45 c0 25 1 47 1 48 0 2 3 6 7 10 11 13 11
15 12 49 0 32 0 32 7 39 12 12 12 14 12 48 0 30 0 30 9 43 8 13 8 13 8 32 -1
22 0 24 13 31 13 7 14 9 17 28 2 14 4 19 10 28 3 5 8 14 10 18 2 4 6 12 10 16
7 8 8 12 10 28 3 17 8 35 14 44 2 3 8 7 15 11 14 8 18 12 18 24 0 20 3 25 27
48 24 24 27 28 27 41 0 12 3 17 18 26 18 13 56 50 62 63 6 11 16 22 21 22 1 0
11 8 22 18 13 11 24 20 32 23 6 3 14 7 17 9 3 2 11 6 17 8 9 4 12 6 17 14 3 5
7 11 10 14 6 8 28 18 44 20 21 4 22 4 29 10 13 12 15 12 58 12 24 0 43 -1 46
-2z"/>
<path d="M913 1729 c-15 -6 -15 -10 -11 -86 3 -53 3 -236 0 -270 -2 -26 -2
-26 5 -40 3 -8 7 -17 8 -21 3 -15 10 -21 28 -26 10 -2 12 -5 16 -20 9 -29 98
-27 109 2 2 6 7 16 10 22 8 13 8 7 4 101 -3 78 -2 222 2 259 3 25 1 30 -12 37
-13 8 -16 11 -19 21 -7 24 -6 24 -77 24 -44 0 -58 -1 -63 -3z"/>
<path d="M158 932 c-9 -4 -15 -15 -15 -29 0 -5 1 -52 3 -103 1 -51 2 -166 2
-254 l0 -161 -10 -11 -9 -12 -2 -68 c-2 -77 -2 -73 15 -88 16 -14 16 -14 46
-14 32 0 39 1 50 10 5 4 13 9 19 12 15 8 18 15 15 37 -3 17 -1 24 7 31 9 7 9
7 8 131 -1 65 -1 120 -1 121 0 2 -4 8 -9 14 l-9 11 0 102 c0 56 1 135 2 176 3
102 7 96 -68 98 -31 0 -37 0 -44 -3z"/>
<path d="M3025 933 c-15 -6 -20 -20 -17 -50 1 -12 3 -103 4 -202 1 -99 2 -201
2 -227 1 -45 1 -48 -3 -53 -18 -22 -16 -13 -16 -79 l0 -59 9 -16 8 -15 -2 -44
c-4 -65 -6 -63 60 -64 49 0 56 1 64 9 6 6 6 2 2 93 -2 68 -3 66 10 79 l7 7 1
115 c0 131 0 128 -10 140 -4 4 -9 10 -10 13 -1 5 1 165 4 266 3 94 5 90 -62
90 -33 0 -47 -1 -51 -3z"/>
</g>
</svg>
