<?xml version="1.0" standalone="no"?>
<!DOCTYPE svg PUBLIC "-//W3C//DTD SVG 20010904//EN"
 "http://www.w3.org/TR/2001/REC-SVG-20010904/DTD/svg10.dtd">
<svg version="1.0" xmlns="http://www.w3.org/2000/svg"
 width="410.000000pt" height="376.000000pt" viewBox="0 0 410.000000 376.000000"
 preserveAspectRatio="xMidYMid meet">
<metadata>
Created by potrace 1.16, written by Peter Selinger 2001-2019
</metadata>
<g transform="translate(0.000000,376.000000) scale(0.100000,-0.100000)"
fill="#000000" stroke="none">
<path d="M3005 3571 l-29 -17 3 -170 c2 -93 5 -172 8 -176 2 -5 13 -8 24 -8
14 0 19 -7 19 -25 0 -20 -5 -25 -25 -25 -14 0 -25 -3 -26 -7 -1 -14 -1 -88 0
-99 0 -7 12 -15 26 -18 l25 -6 0 -142 c0 -124 -2 -144 -20 -174 -12 -18 -30
-36 -40 -39 -11 -4 -20 -10 -20 -15 0 -5 -9 -12 -21 -15 -33 -11 -87 -49 -98
-70 -6 -11 -27 -40 -46 -65 -63 -81 -85 -119 -85 -146 0 -28 -83 -208 -100
-219 -6 -4 -10 -38 -9 -76 1 -43 -3 -75 -11 -84 -16 -19 -17 -102 -1 -118 6
-6 11 -20 11 -31 0 -12 7 -30 15 -40 19 -26 19 -56 -1 -84 -14 -20 -14 -23 1
-28 21 -8 75 -116 75 -149 0 -30 21 -75 44 -94 8 -7 18 -25 21 -41 4 -18 21
-38 45 -54 22 -14 46 -39 55 -56 9 -18 26 -32 43 -36 15 -4 44 -15 64 -25 21
-11 46 -19 57 -19 25 0 47 -36 33 -53 -7 -7 -11 -169 -13 -417 -2 -381 -1
-407 17 -445 19 -39 20 -40 74 -40 l55 0 -4 136 c-2 94 0 138 8 143 15 9 14
91 -1 116 -9 15 -9 24 0 42 8 15 13 92 15 228 2 204 2 205 25 208 12 2 27 13
34 25 12 24 37 44 83 67 16 8 35 25 41 37 15 31 45 63 59 63 17 0 49 39 71 86
10 23 28 45 39 50 14 6 23 25 30 61 5 28 13 55 18 59 4 4 7 21 7 39 0 17 7 40
15 51 8 10 15 39 15 62 0 35 4 45 19 49 11 3 21 10 23 16 5 18 -9 276 -18 322
-7 39 -43 107 -64 120 -5 3 -10 16 -10 28 0 12 -21 63 -46 112 -62 122 -171
235 -251 260 -40 13 -57 24 -69 46 -8 16 -21 29 -28 29 -8 0 -17 7 -20 16 -8
20 3 82 15 90 12 7 12 337 0 350 -8 7 -12 80 -20 368 -1 45 -27 66 -80 65 -25
0 -59 -8 -76 -18z m203 -1060 c20 -10 48 -31 61 -45 14 -14 31 -26 38 -26 8 0
16 -8 20 -17 3 -10 24 -37 45 -60 21 -24 38 -47 38 -52 0 -5 18 -30 40 -55 40
-47 57 -98 45 -135 -4 -12 0 -30 9 -43 23 -33 23 -308 0 -343 -9 -13 -13 -29
-10 -34 4 -6 0 -27 -9 -47 -8 -20 -12 -46 -9 -59 11 -44 -56 -133 -141 -185
-19 -12 -35 -25 -35 -30 0 -5 -8 -11 -19 -15 -10 -3 -30 -16 -43 -28 -41 -37
-84 -57 -122 -57 -28 0 -44 9 -78 41 -68 64 -74 69 -90 69 -19 0 -51 35 -77
87 -11 23 -25 44 -31 48 -5 3 -10 15 -10 25 0 10 -11 40 -25 66 -14 26 -25 60
-25 75 0 15 -4 31 -10 34 -5 3 -10 28 -10 54 0 26 -5 52 -11 58 -13 13 -7 112
11 188 6 28 14 67 17 87 3 21 11 42 19 49 8 6 14 19 14 29 0 9 13 44 30 76 16
32 30 64 30 70 0 11 69 75 130 122 16 13 30 30 30 37 0 35 120 45 178 16z"/>
<path d="M3072 2087 c-12 -13 -22 -31 -22 -41 0 -9 -5 -27 -12 -39 -6 -12 -13
-66 -14 -119 -3 -90 -2 -99 19 -113 43 -30 147 -13 147 25 0 13 10 24 27 31
51 19 63 44 63 134 0 66 -3 85 -17 97 -60 52 -155 64 -191 25z"/>
<path d="M3780 3570 c-24 -18 -25 -23 -21 -110 2 -59 -1 -95 -9 -105 -14 -17
-17 -190 -3 -207 19 -22 26 -107 27 -303 l1 -190 78 -3 77 -3 0 254 c0 214 -2
257 -15 267 -8 7 -15 23 -15 35 0 12 7 28 15 35 12 10 15 42 15 165 0 134 -2
154 -18 168 -26 24 -100 22 -132 -3z"/>
<path d="M208 3556 c-20 -6 -40 -14 -43 -18 -13 -13 -5 -391 8 -407 9 -10 12
-93 12 -300 l0 -286 66 -3 c45 -2 69 1 76 10 6 8 7 43 3 88 -5 55 -3 81 7 97
9 16 13 68 13 196 0 118 4 177 12 185 17 17 18 279 1 294 -7 6 -13 30 -13 55
0 44 -13 81 -34 95 -15 11 -64 8 -108 -6z"/>
<path d="M1240 3300 c-8 -5 -29 -10 -46 -10 -17 0 -37 -6 -43 -14 -7 -8 -32
-20 -57 -28 -32 -9 -50 -21 -60 -40 -8 -16 -21 -28 -28 -28 -7 0 -19 -7 -26
-15 -7 -8 -21 -15 -31 -15 -10 0 -24 -12 -31 -27 -7 -15 -33 -37 -60 -50 -37
-18 -48 -29 -48 -47 0 -32 -36 -76 -77 -92 -26 -11 -33 -20 -33 -42 0 -17 -10
-38 -25 -52 -14 -13 -25 -31 -25 -41 0 -10 -11 -29 -25 -43 -13 -13 -27 -37
-30 -53 -4 -15 -18 -49 -31 -74 -13 -26 -24 -58 -24 -73 0 -15 -8 -30 -21 -36
-16 -9 -19 -18 -14 -39 4 -19 1 -32 -10 -41 -8 -7 -15 -23 -15 -36 0 -12 -5
-26 -10 -29 -6 -3 -10 -37 -10 -74 0 -48 -4 -72 -15 -81 -11 -9 -13 -26 -8
-70 5 -51 3 -59 -17 -73 -22 -15 -22 -18 -22 -253 1 -227 2 -238 22 -260 19
-19 21 -29 15 -76 -5 -43 -4 -57 9 -67 11 -10 16 -31 16 -71 0 -39 5 -62 15
-70 9 -8 13 -21 9 -37 -4 -15 0 -30 10 -42 11 -12 15 -27 11 -44 -5 -19 -2
-28 14 -37 14 -7 21 -21 21 -41 0 -16 11 -47 25 -69 14 -22 25 -45 25 -52 0
-28 25 -78 42 -84 10 -3 18 -15 18 -27 0 -11 11 -32 24 -46 13 -15 27 -38 32
-52 5 -15 29 -42 54 -61 34 -26 46 -41 48 -66 3 -28 11 -36 63 -62 33 -17 59
-37 59 -45 0 -9 11 -20 25 -25 15 -6 25 -17 25 -29 0 -11 6 -24 14 -28 7 -4
18 -18 25 -31 8 -15 21 -22 41 -22 16 0 46 -11 66 -25 31 -21 49 -25 106 -25
60 0 74 4 100 25 16 14 40 25 54 25 13 0 24 5 24 10 0 20 41 50 69 50 34 0 72
40 92 94 8 21 21 37 34 40 20 5 45 44 59 88 3 10 19 26 37 37 17 11 36 28 43
39 6 11 20 35 30 53 10 19 34 52 52 73 19 22 34 48 34 57 0 10 11 39 25 65 14
26 25 53 25 60 0 7 8 18 19 23 18 10 26 34 38 114 3 20 9 40 14 43 5 3 9 20 9
37 0 18 7 41 16 52 10 14 13 32 8 61 -5 38 -3 45 21 66 25 22 26 26 20 86 -5
44 -3 67 6 78 18 22 19 449 1 488 -10 21 -12 47 -7 92 6 60 5 63 -20 80 -24
16 -27 22 -21 59 3 29 1 48 -9 61 -8 10 -15 34 -15 52 0 18 -4 40 -8 50 -5 9
-16 31 -24 48 -9 18 -14 43 -11 57 4 18 -1 28 -16 36 -12 7 -21 19 -21 29 0 9
-12 35 -25 57 -14 22 -25 48 -25 58 0 27 -29 77 -44 77 -20 0 -46 34 -46 62 0
25 -37 68 -58 68 -6 0 -24 23 -39 51 -16 29 -34 62 -41 75 -8 14 -22 24 -36
24 -12 0 -37 15 -56 35 -19 20 -44 35 -57 35 -15 0 -28 10 -38 30 -11 22 -23
30 -43 30 -16 0 -37 11 -51 25 -24 26 -82 34 -111 15z m104 -135 c11 -8 30
-15 43 -15 13 0 27 -9 34 -22 13 -25 37 -44 83 -68 17 -8 39 -32 51 -54 13
-22 35 -44 53 -52 25 -10 32 -19 32 -42 0 -29 46 -83 83 -95 10 -4 15 -12 12
-17 -4 -6 3 -31 14 -55 12 -25 21 -53 21 -64 0 -10 7 -24 15 -31 8 -7 15 -18
15 -26 0 -7 9 -16 20 -19 11 -3 20 -14 20 -23 0 -10 9 -42 20 -72 11 -30 20
-71 20 -90 0 -19 7 -43 15 -53 8 -12 11 -31 8 -52 -4 -28 -1 -36 21 -51 26
-16 27 -20 21 -79 -5 -42 -3 -70 5 -85 17 -32 17 -474 0 -495 -8 -10 -10 -33
-5 -75 7 -57 6 -62 -20 -86 -23 -21 -26 -30 -21 -58 5 -23 2 -37 -9 -46 -10
-8 -15 -30 -15 -61 0 -26 -4 -51 -10 -54 -5 -3 -10 -21 -10 -38 0 -34 -33 -97
-50 -97 -5 0 -13 -12 -16 -27 -4 -16 -14 -44 -24 -63 -10 -19 -23 -54 -30 -77
-7 -24 -18 -43 -25 -43 -18 0 -51 -40 -69 -82 -8 -21 -26 -43 -40 -49 -14 -7
-28 -20 -31 -30 -3 -9 -35 -44 -72 -76 -36 -32 -73 -65 -82 -74 -9 -9 -33 -19
-53 -23 -25 -5 -44 -16 -58 -36 -20 -28 -25 -30 -90 -30 -62 0 -72 3 -102 30
-18 17 -41 33 -51 36 -10 3 -22 17 -27 30 -6 14 -18 24 -29 24 -17 0 -71 46
-107 92 -5 7 -23 24 -40 38 -33 29 -60 66 -89 123 -11 21 -28 43 -38 48 -9 5
-17 17 -17 25 0 8 -9 34 -20 56 -11 23 -20 47 -20 54 0 20 -39 82 -55 88 -9 3
-15 19 -15 40 0 19 -5 38 -10 41 -6 4 -10 27 -9 51 2 24 -3 50 -9 56 -7 7 -12
31 -12 54 0 25 -6 47 -15 54 -12 10 -14 25 -9 70 5 50 4 60 -14 76 -20 19 -21
31 -23 253 -1 228 -1 233 21 253 20 18 22 28 16 73 -4 37 -2 57 9 71 8 10 15
38 15 61 0 23 5 45 10 48 6 3 10 28 10 55 0 27 5 52 10 55 5 3 10 22 10 40 0
24 6 38 20 45 11 6 20 18 20 28 0 9 11 35 24 58 13 23 26 58 30 78 5 26 15 40
32 48 16 7 24 19 24 35 0 14 14 38 32 56 17 18 32 39 33 48 2 22 165 179 212
204 21 11 50 32 65 47 14 16 37 28 50 28 12 0 32 7 42 15 26 20 125 19 150 0z"/>
<path d="M1129 2153 c-4 -36 2 -476 7 -501 5 -22 14 -34 29 -38 12 -3 27 -16
34 -30 9 -20 18 -24 54 -24 83 0 81 -5 87 281 5 252 5 253 -17 276 -13 12 -23
27 -23 33 0 12 -169 14 -171 3z"/>
<path d="M188 1153 c-7 -8 -9 -129 -7 -348 3 -247 1 -338 -8 -343 -6 -4 -12
-42 -14 -94 -3 -73 0 -90 15 -107 24 -26 82 -28 125 -3 26 14 31 23 31 54 0
20 4 40 10 43 6 4 10 69 10 161 0 127 -3 158 -16 171 -8 9 -13 22 -10 29 4 11
9 325 6 426 0 13 -13 17 -66 20 -44 2 -69 -1 -76 -9z"/>
<path d="M3759 1153 c0 -4 0 -154 1 -332 1 -229 -2 -326 -10 -331 -17 -10 -19
-147 -2 -178 10 -19 12 -45 8 -88 -5 -45 -3 -63 6 -66 11 -3 96 -3 136 1 10 1
11 24 6 104 -6 88 -4 104 10 116 24 20 24 302 0 326 -14 14 -16 43 -13 233 l4
217 -72 3 c-40 2 -73 -1 -74 -5z"/>
</g>
</svg>
