<?xml version="1.0" standalone="no"?>
<!DOCTYPE svg PUBLIC "-//W3C//DTD SVG 20010904//EN"
 "http://www.w3.org/TR/2001/REC-SVG-20010904/DTD/svg10.dtd">
<svg version="1.0" xmlns="http://www.w3.org/2000/svg"
 width="100.000000pt" height="92.000000pt" viewBox="0 0 100.000000 92.000000"
 preserveAspectRatio="xMidYMid meet">
<metadata>
Created by potrace 1.16, written by Peter Selinger 2001-2019
</metadata>
<g transform="translate(0.000000,92.000000) scale(0.100000,-0.100000)"
fill="#000000" stroke="none">
<path d="M42 868 c-6 -8 -8 -60 -4 -135 4 -96 8 -123 19 -123 22 0 32 41 35
149 2 82 0 104 -12 111 -20 13 -26 12 -38 -2z"/>
<path d="M723 864 c-3 -8 -3 -56 1 -106 l7 -90 -39 -37 c-54 -52 -79 -134 -63
-205 14 -64 43 -113 76 -128 24 -11 24 -14 27 -127 3 -108 4 -116 23 -116 18
0 20 8 25 101 l5 102 46 49 c47 50 69 108 69 182 0 43 -46 123 -85 149 l-35
22 0 94 c0 52 -3 101 -6 110 -8 21 -43 21 -51 0z m88 -290 c32 -34 34 -38 34
-109 0 -65 -3 -77 -25 -100 -53 -57 -78 -55 -115 10 -43 73 -30 179 27 219 32
22 40 20 79 -20z"/>
<path d="M740 499 c-25 -45 9 -89 45 -59 20 17 19 66 -1 74 -25 10 -33 7 -44
-15z"/>
<path d="M917 873 c-4 -3 -7 -55 -7 -113 0 -82 3 -110 15 -120 28 -23 35 0 35
121 0 109 -2 119 -18 119 -10 0 -22 -3 -25 -7z"/>
<path d="M270 804 c-70 -30 -116 -92 -155 -208 -53 -156 -17 -356 83 -460 52
-54 93 -70 135 -53 61 26 133 127 162 231 26 91 18 253 -17 328 -36 78 -73
124 -123 153 -49 29 -41 28 -85 9z m98 -81 c132 -141 130 -410 -5 -551 -55
-57 -79 -56 -136 8 -123 137 -122 402 2 530 60 63 89 66 139 13z"/>
<path d="M277 533 c-4 -3 -7 -37 -7 -73 0 -71 14 -98 45 -86 22 8 22 151 -1
160 -20 8 -29 8 -37 -1z"/>
<path d="M922 291 c-9 -6 -12 -41 -10 -132 3 -116 4 -124 23 -124 19 0 20 8
23 121 3 123 -6 154 -36 135z"/>
<path d="M36 187 c-7 -107 -3 -137 18 -137 27 0 36 25 35 100 -2 95 -10 134
-30 138 -13 2 -17 -14 -23 -101z"/>
</g>
</svg>
