<?xml version="1.0" standalone="no"?>
<!DOCTYPE svg PUBLIC "-//W3C//DTD SVG 20010904//EN"
 "http://www.w3.org/TR/2001/REC-SVG-20010904/DTD/svg10.dtd">
<svg version="1.0" xmlns="http://www.w3.org/2000/svg"
 width="100.000000pt" height="66.000000pt" viewBox="0 0 100.000000 66.000000"
 preserveAspectRatio="xMidYMid meet">
<metadata>
Created by potrace 1.16, written by Peter Selinger 2001-2019
</metadata>
<g transform="translate(0.000000,66.000000) scale(0.100000,-0.100000)"
fill="#000000" stroke="none">
<path d="M820 627 c0 -7 16 -28 35 -47 48 -46 59 -91 40 -161 -48 -172 -49
-178 -37 -242 13 -69 57 -140 91 -145 31 -5 27 26 -11 78 -46 61 -50 137 -14
241 41 120 30 208 -33 259 -37 31 -71 39 -71 17z"/>
<path d="M24 619 c-3 -6 14 -30 40 -53 60 -56 63 -87 20 -213 -44 -129 -28
-239 45 -308 29 -27 32 -28 48 -12 16 16 15 18 -8 44 -42 46 -69 90 -69 112 0
19 3 20 21 11 12 -7 41 -9 74 -5 l53 7 7 -43 c10 -59 33 -121 48 -131 23 -15
58 -8 81 16 22 21 42 87 61 207 4 28 12 39 40 52 47 23 125 95 125 117 0 37
-25 43 -101 26 -39 -9 -75 -13 -80 -10 -5 3 -9 17 -9 32 0 15 -9 46 -20 70
-16 36 -23 42 -50 42 -16 0 -39 -9 -49 -19 -18 -18 -51 -135 -51 -180 0 -13
-24 -37 -70 -70 -79 -58 -84 -53 -45 39 28 67 33 142 11 193 -24 60 -102 108
-122 76z m351 -136 c12 -31 15 -51 8 -61 -9 -16 -83 -46 -91 -38 -5 6 17 105
30 129 15 29 35 19 53 -30z m183 -75 c-6 -18 -98 -79 -109 -72 -5 3 -9 18 -9
34 0 26 5 30 43 38 61 14 79 14 75 0z m-152 -62 c3 -14 3 -30 -1 -36 -9 -14
-54 -36 -92 -45 -32 -6 -33 -6 -33 29 0 31 5 38 38 55 52 28 80 27 88 -3z
m-156 -71 c0 -29 -26 -45 -74 -45 -46 0 -45 11 2 43 49 34 72 34 72 2z m146
-62 c-19 -145 -63 -186 -91 -88 -23 78 -18 94 35 115 63 25 63 25 56 -27z"/>
<path d="M687 616 c-33 -34 -67 -187 -67 -307 0 -60 -3 -68 -30 -94 -43 -41
-37 -67 17 -78 36 -7 43 -13 53 -41 23 -71 75 -84 105 -26 26 50 45 152 45
242 0 77 3 94 27 136 32 57 27 82 -16 82 -27 0 -34 6 -53 48 -25 51 -54 65
-81 38z m67 -107 c26 -72 27 -247 2 -339 -19 -75 -29 -88 -50 -71 -48 40 -63
256 -27 383 11 37 22 72 26 78 13 21 30 3 49 -51z"/>
</g>
</svg>
