<?xml version="1.0" standalone="no"?>
<!DOCTYPE svg PUBLIC "-//W3C//DTD SVG 20010904//EN"
 "http://www.w3.org/TR/2001/REC-SVG-20010904/DTD/svg10.dtd">
<svg version="1.0" xmlns="http://www.w3.org/2000/svg"
 width="560.000000pt" height="368.000000pt" viewBox="0 0 560.000000 368.000000"
 preserveAspectRatio="xMidYMid meet">
<metadata>
Created by potrace 1.16, written by Peter Selinger 2001-2019
</metadata>
<g transform="translate(0.000000,368.000000) scale(0.100000,-0.100000)"
fill="#000000" stroke="none">
<path d="M4592 3548 c-16 -16 -15 -68 1 -72 6 -3 23 -7 37 -10 14 -3 48 -26
75 -51 28 -25 67 -55 88 -67 23 -13 37 -29 37 -41 0 -19 28 -49 147 -158 42
-39 52 -54 57 -93 5 -28 14 -50 25 -55 18 -10 46 -106 35 -123 -6 -9 3 -51 27
-123 14 -42 14 -317 0 -343 -6 -11 -9 -27 -6 -34 3 -8 -3 -23 -15 -33 -11 -10
-20 -23 -20 -30 0 -7 -9 -20 -20 -30 -13 -11 -20 -31 -20 -54 -1 -20 -8 -54
-16 -76 -9 -22 -24 -64 -35 -94 -10 -30 -23 -59 -28 -65 -5 -6 -12 -38 -16
-71 -7 -56 -26 -112 -62 -180 -18 -34 -34 -108 -37 -177 -1 -28 -9 -54 -19
-66 -15 -16 -17 -42 -17 -200 0 -122 4 -183 11 -188 24 -14 50 -93 43 -129 -4
-22 -2 -41 6 -49 6 -8 13 -35 14 -59 2 -38 22 -97 72 -215 8 -18 14 -41 14
-51 0 -10 7 -25 16 -32 9 -7 31 -37 49 -65 24 -38 42 -54 63 -59 36 -7 52 -24
86 -90 15 -27 41 -64 59 -81 18 -18 40 -43 50 -58 29 -42 61 -35 97 22 39 62
39 94 -2 124 -43 32 -188 180 -188 194 0 6 -12 21 -26 35 -29 26 -114 198
-114 230 0 11 -8 34 -17 52 -10 18 -21 61 -25 97 -4 36 -12 90 -19 120 -6 30
-14 140 -16 243 -4 176 -2 191 17 224 11 19 20 49 20 66 0 18 14 65 30 106 17
40 33 92 36 115 7 44 28 114 43 143 5 10 17 44 26 75 9 32 21 60 25 63 4 3 16
31 25 63 10 31 33 89 51 128 l34 71 0 182 c0 157 -3 187 -19 219 -11 23 -20
70 -24 126 -5 73 -10 94 -32 121 -14 19 -25 36 -25 40 0 26 -68 139 -107 178
-95 94 -301 267 -319 267 -11 0 -37 7 -59 15 -49 18 -97 19 -113 3z"/>
<path d="M185 3498 c-3 -8 -5 -43 -3 -78 3 -61 3 -62 39 -74 20 -7 52 -25 71
-39 19 -15 37 -27 40 -27 3 0 30 -16 59 -36 152 -101 239 -195 239 -257 0 -16
9 -41 21 -55 12 -16 18 -34 15 -47 -3 -12 8 -58 24 -104 28 -77 30 -93 30
-225 0 -123 -3 -145 -20 -174 -11 -18 -20 -42 -20 -54 0 -12 -11 -36 -25 -54
-14 -18 -25 -43 -25 -56 0 -27 -26 -110 -47 -153 -39 -77 -56 -106 -64 -111
-5 -3 -9 -12 -9 -20 0 -8 -8 -33 -19 -57 -10 -23 -24 -69 -31 -102 -6 -33 -23
-88 -36 -122 -13 -34 -24 -79 -24 -100 0 -22 -4 -43 -9 -49 -5 -5 -12 -38 -15
-74 -3 -36 -10 -96 -16 -135 -29 -193 -24 -246 37 -367 18 -36 22 -57 17 -82
-5 -28 -1 -42 18 -68 31 -42 58 -100 58 -126 0 -11 7 -25 15 -32 8 -7 15 -20
15 -30 0 -10 11 -25 24 -33 31 -20 78 -87 109 -153 21 -43 32 -54 76 -73 34
-14 55 -30 61 -46 5 -14 13 -25 18 -25 14 0 74 -63 83 -87 15 -41 52 -30 88
28 17 28 31 60 31 71 0 18 -129 166 -155 177 -21 9 -109 99 -132 134 -42 67
-63 107 -63 123 0 8 -6 17 -14 20 -8 3 -18 19 -21 35 -8 37 -61 145 -74 154
-6 3 -11 17 -11 30 0 14 -11 57 -24 97 -19 59 -23 92 -22 170 1 54 5 101 9
104 4 4 7 24 7 45 0 20 6 49 14 64 8 15 17 59 21 99 9 88 18 113 57 153 28 28
30 35 24 80 -5 43 -1 56 34 123 21 41 55 107 74 145 20 39 39 77 44 85 31 53
42 87 42 122 0 25 11 63 30 100 27 53 30 67 30 158 0 54 -5 110 -11 124 -9 19
-9 32 1 55 10 26 10 37 -6 73 -9 24 -21 70 -26 103 -16 126 -20 145 -34 156
-8 6 -14 19 -14 28 0 10 -7 26 -15 37 -8 10 -15 27 -15 36 0 23 -117 147 -184
196 -28 20 -58 43 -66 50 -8 7 -44 38 -80 68 -84 72 -111 85 -181 91 -46 5
-60 3 -64 -9z"/>
<path d="M3933 3478 c-34 -23 -43 -36 -43 -58 0 -21 -9 -36 -30 -52 -23 -16
-30 -30 -30 -54 0 -25 -7 -38 -30 -54 -27 -19 -30 -27 -30 -75 0 -41 -4 -57
-18 -67 -10 -7 -22 -29 -26 -48 -3 -19 -21 -63 -38 -99 -20 -42 -32 -83 -34
-115 -1 -28 -7 -67 -13 -86 -6 -19 -11 -50 -11 -68 0 -19 -6 -46 -14 -60 -27
-54 -39 -98 -43 -157 -14 -238 -24 -330 -38 -352 -14 -20 -16 -72 -15 -364 0
-244 4 -345 12 -359 11 -17 -5 -36 -148 -177 -89 -87 -173 -178 -187 -203 -24
-41 -25 -50 -15 -83 26 -83 122 -153 229 -164 44 -4 72 1 147 26 51 17 95 31
96 31 2 0 6 -20 9 -45 2 -25 13 -55 22 -65 10 -11 22 -43 26 -72 5 -28 20 -75
34 -103 15 -28 25 -55 24 -61 -5 -26 3 -44 19 -44 25 0 42 -20 42 -48 0 -13
16 -42 35 -65 19 -22 35 -46 35 -52 0 -7 11 -24 25 -39 19 -20 33 -26 67 -26
24 0 53 6 64 14 11 8 38 16 60 18 36 3 39 5 42 38 2 19 13 44 25 57 45 46 64
69 75 93 7 14 23 44 36 66 13 23 26 63 28 89 4 31 14 56 31 73 20 22 26 42 31
100 4 40 13 90 20 110 7 20 17 64 21 97 4 33 13 68 21 79 8 11 14 32 14 46 0
14 5 31 10 36 6 6 15 80 19 166 6 98 15 168 25 191 10 26 17 88 21 200 6 168
-8 621 -20 669 -7 25 -4 29 36 47 56 24 179 143 208 200 34 65 52 165 44 244
-5 59 -10 71 -35 92 -24 21 -40 25 -92 25 -70 0 -77 -4 -182 -97 -93 -82 -98
-82 -94 -1 2 47 -25 141 -45 158 -8 7 -15 22 -15 34 0 19 -9 41 -38 91 -6 11
-19 45 -27 76 -9 32 -26 68 -39 82 -13 14 -31 48 -41 76 -13 40 -25 56 -68 85
-69 48 -131 49 -194 4z m137 -151 c24 -19 66 -89 74 -122 4 -16 16 -40 27 -51
28 -30 79 -159 79 -201 0 -23 9 -46 25 -65 21 -25 24 -37 19 -65 -5 -27 -2
-41 15 -63 11 -16 21 -39 21 -52 0 -13 7 -43 15 -67 9 -24 13 -51 10 -62 -3
-10 1 -31 9 -46 10 -20 16 -83 21 -213 5 -112 12 -195 20 -210 34 -69 45 -130
45 -248 0 -94 -3 -122 -15 -132 -10 -8 -15 -31 -15 -69 -1 -31 -7 -67 -15 -81
-10 -18 -14 -61 -15 -156 0 -97 -5 -151 -20 -209 -11 -43 -20 -106 -20 -139 0
-56 -3 -64 -31 -89 -29 -25 -31 -31 -26 -74 6 -54 -15 -125 -50 -167 -16 -19
-23 -37 -19 -50 9 -34 -31 -141 -59 -156 -13 -7 -29 -27 -36 -44 -7 -17 -20
-40 -30 -51 -9 -11 -19 -31 -21 -45 -6 -48 -87 -53 -96 -5 -4 17 -46 79 -97
141 -14 18 -25 42 -25 55 0 13 -16 51 -36 83 -29 48 -35 69 -35 113 0 48 -4
57 -40 94 -21 22 -40 46 -40 52 -1 7 -3 44 -4 82 -2 39 -13 97 -24 130 -12 36
-21 86 -21 126 0 40 -8 89 -21 125 -17 49 -19 74 -15 149 3 50 5 104 4 120 -4
49 0 366 5 420 2 28 9 64 14 80 5 17 11 66 12 110 1 44 5 84 9 90 4 5 10 37
14 70 13 108 20 140 38 162 9 12 23 44 30 70 7 26 19 67 26 91 8 23 14 71 14
107 0 54 4 68 26 94 14 17 28 49 31 70 4 26 16 49 34 67 16 15 29 32 29 36 0
5 16 32 35 61 19 28 35 61 35 73 0 28 37 74 58 74 9 0 24 -6 32 -13z m630
-526 c0 -56 -32 -106 -122 -193 -50 -48 -94 -85 -99 -82 -5 3 -9 14 -9 25 0
11 -9 37 -19 58 l-20 38 75 64 c86 73 173 131 186 123 4 -3 8 -18 8 -33z
m-1120 -1635 c0 -13 6 -36 14 -52 8 -17 11 -47 9 -72 -5 -38 -10 -45 -47 -64
-22 -12 -57 -25 -76 -30 -19 -5 -50 -13 -68 -18 -24 -6 -36 -4 -47 7 -19 19
-11 35 59 110 29 32 72 79 96 105 44 49 60 53 60 14z"/>
<path d="M1835 3170 c-24 -12 -51 -17 -67 -14 -29 6 -48 -16 -48 -56 0 -12 -9
-24 -24 -29 -28 -11 -36 -29 -36 -85 0 -29 -6 -47 -20 -59 -11 -9 -20 -29 -20
-44 0 -14 -14 -55 -31 -91 -19 -38 -35 -91 -40 -130 -18 -142 -27 -189 -50
-242 -15 -37 -25 -88 -30 -155 -4 -55 -12 -125 -17 -155 -6 -30 -11 -78 -11
-106 -1 -61 -11 -72 -101 -109 -36 -15 -92 -48 -125 -73 -32 -25 -83 -56 -112
-69 -29 -14 -53 -28 -53 -32 0 -9 -90 -72 -137 -95 -17 -9 -51 -33 -76 -53
-41 -35 -79 -64 -178 -136 -21 -16 -39 -34 -39 -41 0 -7 -11 -23 -26 -36 -22
-21 -24 -30 -18 -65 8 -52 49 -131 73 -145 11 -5 29 -10 40 -10 11 0 28 -11
37 -25 14 -22 23 -25 75 -25 32 0 77 7 99 16 22 9 54 14 71 12 17 -3 56 4 87
14 61 20 213 62 302 84 30 7 65 16 77 20 33 9 38 -16 19 -94 -22 -90 -21 -102
13 -185 18 -43 29 -88 29 -112 -1 -38 6 -65 38 -143 8 -18 14 -49 14 -70 0
-21 13 -63 30 -97 16 -33 30 -71 30 -84 0 -13 11 -49 24 -80 14 -31 27 -69 31
-85 3 -15 14 -30 24 -33 10 -3 24 -15 31 -28 19 -35 83 -55 178 -55 91 0 134
13 171 54 15 15 35 26 51 26 29 0 70 37 70 63 0 9 6 20 14 24 8 5 15 32 18 66
4 54 13 69 41 80 5 1 10 25 12 52 5 59 7 69 35 200 12 55 28 112 36 127 8 14
14 38 14 51 0 14 5 29 10 32 6 4 10 56 10 122 0 64 5 134 11 157 27 102 40
139 59 163 22 29 25 72 10 153 -6 30 -8 62 -5 72 6 17 216 128 242 128 12 0
37 21 119 100 23 22 49 40 57 40 9 0 28 11 44 24 15 13 58 38 95 55 36 17 95
56 130 86 34 30 81 69 103 88 22 19 65 50 95 70 31 19 61 47 68 61 30 66 4
142 -70 211 -42 39 -45 40 -118 42 -41 1 -80 -3 -86 -8 -7 -5 -34 -10 -60 -11
-27 0 -60 -6 -74 -13 -14 -7 -57 -15 -97 -18 -39 -3 -84 -12 -100 -20 -15 -8
-53 -20 -83 -28 -30 -7 -67 -19 -82 -26 -15 -7 -44 -13 -66 -13 -44 0 -135
-25 -167 -46 -25 -17 -52 -10 -59 14 -2 10 -7 60 -11 112 -4 52 -13 107 -21
122 -8 15 -14 56 -14 91 0 65 -16 119 -50 167 -9 14 -20 40 -24 59 -3 19 -12
42 -19 50 -16 19 -37 89 -37 123 0 35 -36 77 -84 99 -58 26 -196 26 -251 -1z
m220 -140 c3 -11 3 -25 0 -30 -4 -6 5 -29 20 -52 34 -51 66 -140 72 -200 3
-28 12 -53 24 -64 13 -12 19 -31 19 -62 0 -25 6 -53 14 -61 22 -26 56 -155 56
-213 0 -56 -12 -78 -41 -78 -9 0 -42 -11 -73 -25 -31 -14 -69 -25 -85 -25 -26
0 -63 -14 -199 -76 -29 -13 -80 -36 -115 -50 -34 -15 -88 -39 -119 -55 -79
-40 -91 -39 -82 9 4 20 11 46 17 57 6 11 14 61 19 110 11 131 19 166 40 195
28 38 68 195 68 266 0 43 5 65 15 74 11 9 15 32 15 81 0 47 5 72 15 83 8 8 15
21 15 29 0 20 60 77 81 77 9 0 19 7 23 15 4 12 25 15 100 15 86 0 95 -2 101
-20z m1128 -618 c35 -14 55 -29 72 -58 33 -53 31 -69 -10 -94 -19 -12 -35 -26
-35 -30 0 -11 -137 -112 -173 -128 -15 -6 -30 -19 -34 -27 -3 -9 -28 -27 -56
-42 -28 -14 -59 -35 -68 -47 -10 -12 -60 -44 -113 -71 -53 -27 -96 -52 -96
-56 0 -3 -30 -21 -67 -38 -37 -18 -79 -41 -94 -52 -41 -29 -59 -25 -59 14 -1
100 -26 268 -53 370 -9 32 -14 63 -11 70 9 24 95 48 237 67 69 9 84 13 197 50
36 12 86 26 112 30 25 5 60 16 78 25 17 9 50 20 73 25 23 4 44 8 47 9 3 0 27
-7 53 -17z m-900 -262 c-1 -14 7 -64 18 -111 10 -48 19 -104 19 -125 0 -22 7
-57 15 -79 17 -47 19 -109 5 -135 -12 -22 -142 -111 -190 -130 -19 -7 -63 -26
-98 -42 -34 -15 -68 -28 -75 -28 -7 0 -53 -18 -102 -40 -61 -27 -104 -40 -135
-40 -29 0 -68 -11 -109 -30 -36 -17 -70 -29 -78 -26 -10 4 -13 60 -13 270 0
305 -11 274 110 317 36 12 74 28 85 35 11 6 88 40 170 74 83 34 165 69 184 77
19 8 57 17 85 20 28 3 58 10 66 14 26 15 45 5 43 -21z m-830 -556 c-1 -141 -5
-260 -10 -264 -4 -4 -30 -13 -58 -20 -27 -7 -58 -19 -69 -26 -12 -8 -36 -11
-65 -7 -37 4 -57 0 -90 -16 -27 -14 -69 -24 -114 -28 -40 -2 -89 -11 -110 -19
-21 -8 -42 -12 -46 -10 -4 3 -38 10 -76 16 -71 11 -120 34 -130 59 -7 17 40
87 73 110 13 9 49 38 79 64 30 27 75 57 98 67 26 11 53 33 66 53 21 32 78 77
98 77 11 0 107 58 152 93 20 15 47 27 62 27 23 0 52 19 111 72 11 10 22 15 25
13 2 -3 4 -121 4 -261z m901 -23 c3 -5 -1 -31 -9 -57 -8 -27 -15 -82 -15 -122
0 -59 -4 -79 -24 -110 -20 -31 -24 -50 -24 -119 -1 -45 -8 -107 -18 -139 -9
-33 -16 -89 -16 -130 1 -70 0 -74 -28 -94 -26 -19 -30 -27 -30 -72 0 -64 -25
-150 -50 -173 -13 -12 -20 -31 -20 -57 0 -35 -7 -46 -72 -112 -136 -136 -163
-143 -238 -66 -35 36 -50 61 -55 90 -4 22 -11 42 -16 46 -24 14 -49 86 -49
139 0 49 -3 58 -31 82 -41 36 -51 63 -54 148 -2 39 -13 96 -24 129 -11 32 -17
63 -13 70 4 6 7 65 7 131 l0 120 38 19 c55 26 234 76 276 76 31 0 96 24 106
39 3 5 31 22 63 36 31 15 104 51 162 80 109 55 125 61 134 46z"/>
</g>
</svg>
