<?xml version="1.0" standalone="no"?>
<!DOCTYPE svg PUBLIC "-//W3C//DTD SVG 20010904//EN"
 "http://www.w3.org/TR/2001/REC-SVG-20010904/DTD/svg10.dtd">
<svg version="1.0" xmlns="http://www.w3.org/2000/svg"
 width="2242.000000pt" height="1472.000000pt" viewBox="0 0 2242.000000 1472.000000"
 preserveAspectRatio="xMidYMid meet">
<metadata>
Created by potrace 1.16, written by Peter Selinger 2001-2019
</metadata>
<g transform="translate(0.000000,1472.000000) scale(0.500000,-0.500000)"
fill="#000000" stroke="none">
<path d="M3691 2849 c-21 -5 -32 -46 -16 -65 5 -5 9 -7 32 -12 10 -2 24 -12
51 -35 22 -20 68 -55 80 -63 21 -13 25 -16 33 -36 9 -23 45 -62 74 -81 34 -22
76 -67 78 -82 1 -6 3 -16 5 -23 2 -7 4 -17 5 -22 2 -12 8 -22 18 -30 11 -7 12
-10 22 -44 7 -25 7 -25 6 -49 -1 -25 -1 -25 7 -43 7 -15 8 -19 8 -31 0 -14 2
-20 12 -44 4 -10 4 -14 4 -122 l0 -112 -7 -14 c-6 -12 -7 -15 -7 -28 0 -19 -2
-25 -14 -35 -7 -6 -10 -10 -12 -17 -4 -14 -7 -19 -19 -29 -15 -11 -17 -18 -16
-38 2 -21 -9 -64 -24 -96 -6 -13 -14 -34 -18 -47 -5 -14 -11 -32 -17 -43 -10
-17 -10 -20 -12 -38 -1 -11 -4 -26 -7 -34 -3 -9 -5 -19 -5 -26 0 -15 -5 -30
-19 -58 -6 -11 -11 -25 -12 -30 -2 -13 -6 -21 -14 -31 -11 -13 -13 -20 -13
-46 0 -23 0 -24 -8 -41 -8 -17 -8 -17 -8 -47 1 -32 -1 -40 -12 -50 -15 -14
-14 -6 -15 -160 0 -154 -1 -145 13 -160 20 -21 31 -53 31 -94 0 -34 0 -34 8
-50 7 -14 7 -16 6 -27 -2 -18 -1 -29 4 -41 3 -6 6 -17 7 -24 2 -13 4 -18 10
-27 6 -8 22 -50 24 -62 2 -11 8 -27 19 -46 3 -5 6 -15 7 -22 2 -18 6 -24 23
-42 10 -11 17 -20 22 -30 6 -15 27 -41 39 -50 5 -3 13 -6 33 -12 13 -3 35 -27
40 -42 2 -7 6 -16 12 -22 5 -6 10 -14 12 -20 4 -15 24 -39 39 -50 10 -7 15
-12 20 -22 31 -54 82 -62 98 -15 3 9 7 15 15 26 11 12 15 47 9 67 -5 15 -27
36 -46 43 -17 6 -116 111 -127 134 -5 11 -12 20 -25 35 -20 22 -39 52 -47 75
-2 6 -13 29 -22 49 -18 37 -18 37 -19 55 -1 18 -2 20 -14 45 l-13 27 0 41 c0
41 0 41 -8 55 -8 14 -8 14 -9 41 -1 25 -2 28 -8 42 -6 14 -6 14 -6 158 0 162
-2 148 21 190 10 19 10 19 9 40 0 28 2 38 14 58 7 12 10 20 12 30 1 7 5 20 9
28 4 8 9 23 11 33 2 9 5 21 7 25 2 5 3 14 3 20 0 8 2 16 5 25 3 6 7 20 9 29 2
10 8 23 13 33 5 10 10 23 13 35 3 10 7 23 9 29 4 7 11 35 11 42 0 1 4 6 9 12
9 12 13 20 16 34 1 4 4 14 7 20 3 7 7 20 9 29 2 12 5 20 11 30 4 7 10 20 13
28 3 8 8 18 11 23 3 5 10 18 14 29 l9 21 -1 145 0 145 -15 31 -16 31 1 37 c0
37 0 37 -6 56 -4 14 -6 22 -6 33 0 16 -1 17 -24 47 -4 6 -9 16 -11 21 -2 6 -7
17 -11 25 -4 8 -9 20 -11 25 -2 6 -6 15 -9 20 -4 6 -9 15 -12 22 -4 8 -11 17
-23 30 -9 10 -25 27 -35 38 -13 15 -22 23 -33 30 -8 5 -24 19 -37 31 -13 13
-29 27 -36 32 -7 5 -21 17 -31 27 -10 9 -23 21 -30 25 -7 5 -17 14 -24 21 -25
26 -35 31 -61 34 -9 1 -17 3 -25 8 -18 10 -72 16 -96 10z"/>
<path d="M154 2813 c-10 -7 -11 -12 -10 -63 0 -66 3 -74 29 -74 9 0 33 -10 44
-19 16 -13 36 -26 53 -34 9 -5 25 -15 34 -23 12 -9 21 -15 31 -19 17 -7 24
-12 39 -27 6 -6 20 -18 32 -26 23 -17 62 -57 75 -78 22 -33 20 -29 21 -54 1
-25 2 -27 13 -40 14 -17 18 -27 16 -50 -1 -19 -1 -19 5 -31 3 -7 7 -18 8 -25
1 -7 4 -17 7 -23 3 -5 9 -23 14 -40 l9 -29 0 -108 c1 -122 1 -119 -17 -147 -5
-7 -9 -15 -9 -16 -1 -22 -11 -47 -31 -73 -12 -16 -15 -23 -15 -41 0 -11 -2
-20 -12 -50 -6 -20 -13 -41 -14 -48 -2 -12 -3 -15 -25 -48 -7 -11 -14 -25 -16
-30 -2 -6 -6 -14 -10 -19 -13 -18 -15 -21 -18 -32 -5 -16 -20 -54 -27 -67 -5
-10 -6 -16 -8 -32 -1 -11 -3 -24 -5 -29 -2 -5 -4 -17 -5 -27 -1 -13 -3 -21 -7
-29 -23 -46 -38 -94 -36 -121 2 -17 2 -17 -7 -35 -9 -17 -9 -17 -9 -58 0 -41
0 -41 -8 -55 -7 -15 -7 -15 -7 -51 1 -37 1 -37 -5 -53 -7 -16 -7 -16 -7 -79 0
-65 0 -67 9 -87 3 -7 5 -15 5 -19 0 -3 7 -18 15 -34 25 -50 28 -57 26 -88 -2
-34 -1 -36 13 -54 7 -8 15 -22 19 -30 4 -8 11 -22 15 -31 4 -9 9 -23 11 -31 2
-8 3 -17 4 -19 1 -3 5 -9 10 -15 9 -10 13 -20 13 -31 0 -9 5 -16 18 -24 19
-12 33 -26 43 -47 6 -11 14 -22 24 -34 13 -14 15 -18 20 -33 5 -15 13 -32 21
-43 4 -6 35 -23 61 -34 17 -8 20 -10 28 -26 7 -14 11 -19 25 -27 17 -10 49
-44 54 -58 12 -33 56 -37 69 -7 7 17 14 30 22 40 29 34 23 54 -31 109 -22 22
-46 47 -54 56 -17 19 -19 20 -36 29 -20 11 -88 83 -100 107 -4 9 -12 21 -17
27 -10 12 -27 51 -27 61 0 7 -1 9 -13 20 -13 12 -13 12 -16 28 -2 10 -6 22
-12 33 -5 9 -11 23 -14 30 -3 7 -8 17 -11 22 -3 5 -7 13 -10 18 -2 5 -7 13
-11 18 -11 13 -12 15 -13 36 -1 17 -2 21 -8 33 -4 8 -9 19 -10 25 -1 6 -4 16
-6 21 -8 22 -13 50 -11 73 1 12 2 44 2 72 0 51 0 51 7 69 5 16 6 21 6 40 0 18
1 21 5 29 11 19 12 22 13 48 1 23 2 26 8 40 6 14 7 16 7 36 0 32 9 53 33 79
27 30 25 25 25 73 0 41 0 41 7 56 8 15 32 67 35 76 2 3 6 9 10 15 11 15 25 38
30 53 7 17 26 52 35 65 10 14 10 13 12 27 2 13 9 27 15 32 12 10 15 25 13 65
-1 18 -1 19 7 33 4 8 9 20 11 26 2 6 7 15 10 19 17 24 17 22 16 120 0 87 0 87
-6 102 -7 14 -7 14 -3 23 16 40 16 41 -11 107 -7 18 -7 19 -8 54 -1 36 -1 36
-9 51 -6 14 -7 17 -7 31 0 19 -4 28 -15 39 -10 9 -13 16 -13 27 0 10 -5 23
-12 33 -2 3 -6 13 -9 22 -10 29 -93 123 -130 146 -34 21 -49 32 -64 47 -9 9
-21 19 -26 22 -6 2 -16 11 -24 19 -8 8 -23 21 -35 30 -12 9 -26 21 -31 27 -24
25 -66 37 -143 39 -2 0 -5 -1 -8 -3z"/>
<path d="M3191 2812 c-11 -2 -18 -6 -26 -16 -5 -6 -11 -11 -23 -17 -21 -10
-26 -18 -28 -44 -3 -25 -4 -27 -26 -39 -15 -9 -20 -21 -22 -49 -2 -25 -3 -28
-23 -36 -22 -9 -24 -13 -25 -61 -1 -44 -1 -45 -16 -54 -14 -9 -16 -13 -18 -36
-1 -11 -3 -23 -6 -29 -2 -5 -5 -14 -6 -18 -1 -5 -6 -13 -10 -19 -20 -25 -35
-69 -34 -103 0 -25 -4 -45 -17 -93 -4 -13 -5 -21 -5 -38 0 -24 -2 -31 -11 -41
-6 -8 -10 -19 -13 -37 -1 -8 -4 -18 -9 -27 -10 -21 -11 -29 -11 -97 0 -61 0
-61 -6 -79 -6 -18 -6 -18 -6 -57 1 -36 0 -40 -4 -53 -2 -8 -4 -19 -4 -26 0
-16 -3 -25 -11 -35 -14 -16 -13 6 -13 -285 0 -278 0 -274 10 -288 10 -14 8
-25 -5 -33 -4 -2 -12 -11 -19 -19 -13 -14 -73 -73 -125 -121 -56 -53 -120
-128 -129 -153 -13 -35 10 -96 47 -126 11 -8 18 -13 54 -32 45 -25 113 -30
165 -14 12 4 28 8 37 10 20 4 41 12 56 20 16 9 23 2 23 -23 0 -7 2 -17 5 -24
2 -7 6 -17 7 -22 1 -5 6 -12 13 -20 12 -13 12 -13 16 -48 2 -19 4 -29 9 -41 4
-9 9 -22 11 -29 3 -8 9 -19 13 -26 9 -13 9 -13 10 -36 2 -31 8 -40 27 -40 17
0 23 -9 23 -32 0 -20 4 -29 15 -39 24 -21 26 -23 49 -71 7 -15 25 -32 37 -34
32 -7 84 -1 94 10 6 7 16 10 34 10 38 0 46 7 44 39 -1 21 1 25 19 36 6 4 11
10 18 27 1 4 6 8 11 11 13 8 18 15 24 34 5 15 8 20 17 30 9 10 12 16 15 25 2
8 6 15 11 21 11 12 12 16 12 41 0 22 3 41 9 55 2 4 8 10 15 15 19 13 21 19 21
52 0 23 1 29 5 38 2 5 4 15 4 21 0 15 12 67 20 86 1 3 3 14 4 23 1 9 3 21 5
26 2 5 4 18 5 30 1 16 2 22 6 26 13 16 15 20 17 41 2 16 3 22 9 32 9 15 10 29
12 129 1 75 1 80 6 90 2 6 4 15 4 19 0 15 4 29 14 56 l10 26 -1 38 c-1 38 -1
38 5 58 9 27 10 219 2 248 -7 24 -8 58 -8 181 1 109 1 109 -5 124 -10 29 -5
41 21 47 16 3 35 17 65 45 11 10 30 28 42 39 58 54 76 87 96 186 9 40 1 131
-12 151 -36 53 -135 46 -202 -15 -105 -94 -107 -95 -105 -34 0 32 0 35 -5 49
-2 8 -6 21 -8 28 -4 17 -13 35 -23 49 -19 24 -18 22 -18 38 0 18 -5 32 -17 50
-12 17 -14 22 -19 41 -3 9 -8 24 -11 32 -4 9 -8 22 -9 29 -2 17 -9 28 -24 41
-15 13 -32 45 -32 61 0 20 -30 56 -61 71 -4 3 -12 8 -17 12 -16 13 -16 13 -53
13 -19 1 -38 0 -42 -1z m66 -147 c15 -9 23 -18 32 -37 3 -6 9 -16 13 -22 11
-13 15 -24 18 -39 2 -17 4 -20 19 -38 21 -26 38 -58 44 -83 2 -7 8 -23 14 -36
10 -23 10 -23 10 -49 1 -31 2 -34 17 -50 17 -18 17 -18 17 -51 0 -33 2 -41 17
-58 11 -13 12 -18 13 -40 0 -12 2 -22 4 -28 11 -28 14 -41 15 -69 1 -28 1 -28
10 -45 l9 -17 0 -60 c0 -58 0 -60 5 -72 4 -12 4 -13 4 -85 0 -80 0 -80 12 -96
7 -9 7 -10 11 -34 2 -15 5 -23 12 -39 l10 -19 -1 -96 c0 -53 -1 -98 -2 -100 0
-2 -5 -10 -10 -18 -12 -17 -12 -21 -12 -61 1 -30 1 -30 -7 -46 -14 -27 -13
-23 -14 -121 0 -109 -2 -125 -13 -164 -5 -16 -9 -36 -10 -45 -1 -9 -3 -22 -5
-29 -3 -10 -4 -22 -4 -55 0 -51 -1 -53 -27 -70 -16 -10 -21 -25 -19 -66 2 -45
-11 -90 -37 -122 -18 -22 -19 -23 -18 -41 1 -27 0 -33 -6 -50 -3 -9 -8 -22 -9
-29 -6 -22 -15 -38 -27 -45 -22 -12 -30 -23 -44 -62 -6 -15 -7 -17 -18 -24
-13 -9 -14 -11 -14 -23 0 -27 -7 -33 -34 -33 -29 0 -36 5 -39 26 -2 18 -2 18
-23 37 -11 10 -30 37 -40 58 -6 11 -9 15 -17 21 -13 9 -16 14 -18 29 -4 32 -9
48 -22 64 -4 4 -9 14 -13 21 -4 7 -9 16 -11 20 -8 11 -11 33 -12 67 -1 41 -4
48 -29 63 -19 11 -42 62 -38 82 3 13 3 42 0 49 -1 3 -4 17 -6 31 -2 15 -7 34
-10 44 -3 9 -6 19 -6 22 0 2 -3 11 -6 20 -7 15 -7 15 -7 68 0 58 -2 68 -22
122 -9 24 -10 132 -1 165 5 17 5 17 0 37 -8 36 -7 265 2 289 7 20 7 23 3 44
-4 16 -4 16 4 39 6 18 8 28 9 46 1 13 3 30 4 37 2 9 2 24 1 42 -1 27 -1 27 7
53 8 23 8 27 10 58 1 24 2 35 5 41 9 20 11 31 13 52 1 21 1 21 9 30 18 18 29
47 39 100 1 6 5 17 8 24 9 21 12 40 13 93 1 52 1 54 13 65 21 19 36 52 39 85
2 17 4 21 22 37 11 10 16 15 18 23 7 19 11 25 22 40 19 23 37 56 40 76 7 40
39 63 64 47z m502 -405 c7 -7 2 -44 -8 -72 -8 -22 -34 -58 -50 -70 -17 -13
-51 -44 -73 -66 -28 -28 -33 -30 -38 -14 -1 5 -4 14 -6 19 -3 6 -6 15 -8 21
-3 6 -7 15 -10 20 -12 18 -9 29 8 38 4 2 15 12 24 21 10 10 23 23 30 28 35 28
46 37 63 47 10 6 23 14 30 18 20 15 31 17 38 10z m-895 -1309 c1 -2 3 -11 4
-20 1 -15 3 -19 11 -34 11 -20 14 -69 5 -87 -4 -9 -64 -40 -87 -45 -8 -2 -27
-7 -42 -11 -56 -16 -78 5 -45 44 4 4 10 13 14 18 4 6 16 18 27 29 11 10 27 27
35 37 32 43 71 77 78 69z"/>
<path d="M1501 2554 c-10 -2 -21 -6 -26 -9 -26 -16 -24 -16 -51 -17 -35 -2
-38 -4 -42 -30 -3 -24 -6 -28 -23 -37 -23 -13 -27 -22 -27 -61 0 -33 -2 -38
-17 -53 -14 -13 -19 -25 -19 -44 0 -16 -10 -46 -19 -60 -21 -30 -31 -60 -33
-105 -1 -22 -3 -35 -6 -44 -7 -26 -14 -59 -16 -83 -1 -23 -2 -25 -10 -40 -4
-10 -10 -25 -13 -37 -3 -11 -7 -24 -10 -30 -10 -20 -12 -32 -12 -96 0 -59 0
-59 -6 -74 -4 -11 -6 -21 -7 -39 -1 -16 -3 -28 -6 -36 -4 -10 -5 -17 -5 -50
-2 -53 -7 -62 -48 -76 -8 -3 -20 -8 -27 -11 -6 -3 -20 -9 -32 -14 -12 -5 -25
-12 -31 -16 -5 -4 -14 -10 -19 -13 -14 -9 -45 -32 -47 -37 -3 -4 -32 -22 -45
-27 -27 -9 -55 -26 -62 -36 -5 -6 -12 -12 -19 -16 -17 -9 -32 -20 -45 -32 -11
-10 -21 -15 -49 -25 -12 -5 -24 -14 -58 -46 -11 -11 -22 -21 -25 -22 -16 -8
-69 -47 -83 -61 -10 -10 -22 -20 -33 -26 -18 -11 -28 -21 -34 -35 -8 -17 -9
-18 -21 -28 -18 -14 -22 -28 -12 -46 3 -4 5 -11 5 -15 0 -50 39 -103 85 -114
21 -5 24 -7 33 -20 9 -16 36 -23 73 -19 12 1 27 3 32 3 11 1 39 10 58 18 14 6
23 6 35 2 14 -5 24 -4 57 7 54 17 63 20 92 27 15 4 32 8 36 10 4 2 21 6 37 10
16 4 36 9 43 13 17 7 30 9 55 11 16 1 22 3 32 7 41 19 47 1 28 -80 -11 -44
-10 -76 2 -101 3 -8 8 -20 10 -29 2 -9 8 -24 13 -34 10 -19 10 -19 9 -50 0
-37 2 -47 12 -63 8 -12 8 -14 10 -31 1 -14 3 -20 7 -27 3 -5 7 -13 10 -18 6
-9 6 -12 7 -43 1 -24 2 -35 5 -40 1 -4 5 -13 7 -21 3 -12 5 -16 11 -20 10 -8
14 -18 20 -48 5 -33 18 -73 28 -90 14 -22 16 -29 18 -46 2 -26 13 -41 30 -41
4 0 10 -8 16 -21 7 -13 12 -17 30 -22 7 -2 16 -6 21 -9 18 -11 32 -13 105 -10
79 3 90 6 124 41 21 21 25 23 44 23 15 0 22 3 38 19 14 14 16 17 20 35 0 3 5
9 9 14 9 9 10 10 11 42 1 41 7 57 23 67 19 11 22 18 22 57 0 19 1 25 5 37 3 8
5 19 5 25 0 6 2 18 5 27 3 8 5 19 6 24 1 4 3 15 6 23 3 8 5 21 6 29 1 8 3 18
5 24 3 7 5 17 6 33 1 22 1 22 8 30 12 10 13 13 14 34 1 18 2 21 9 32 10 16 11
27 13 133 1 80 1 80 7 94 3 8 5 18 5 24 0 7 3 19 9 35 5 14 10 31 11 37 3 16
6 20 19 33 16 17 20 64 10 124 -11 65 -6 73 57 96 7 3 22 11 34 19 30 21 53
31 96 44 25 8 31 12 40 29 3 7 8 10 21 15 11 3 20 12 26 23 9 18 31 35 55 43
13 4 28 14 43 26 6 5 12 10 15 11 31 19 45 26 58 30 9 3 21 9 32 15 9 6 22 14
27 18 6 3 22 18 37 33 17 18 31 29 37 33 15 7 27 17 52 40 23 21 51 42 72 53
41 22 57 42 63 78 8 50 -17 114 -53 135 -16 10 -19 13 -23 22 -5 12 -14 19
-26 21 -11 2 -15 1 -39 -2 -12 -2 -16 -2 -23 1 -18 7 -49 6 -60 -2 -17 -12
-22 -14 -62 -15 -37 -1 -37 -1 -55 -10 -22 -9 -36 -12 -73 -12 -31 0 -60 -4
-69 -10 -13 -9 -20 -12 -32 -14 -7 -1 -23 -6 -36 -10 -13 -4 -32 -9 -42 -11
-19 -3 -22 -5 -35 -14 -8 -6 -9 -6 -37 -7 -29 -1 -58 -7 -87 -17 -7 -3 -17 -6
-23 -7 -14 -2 -16 -4 -29 -12 -38 -26 -56 -10 -56 48 0 22 -1 33 -4 45 -2 9
-5 30 -6 49 -2 35 -2 33 -17 61 -4 7 -4 12 -5 59 -1 42 -2 53 -5 60 -2 5 -6
16 -9 25 -11 30 -14 37 -25 50 -14 17 -15 18 -18 40 -3 22 -11 42 -20 52 -3 5
-7 9 -9 11 -1 2 -3 10 -5 19 -2 8 -6 23 -10 33 -6 15 -7 20 -7 34 0 38 -29 70
-79 87 -30 10 -122 13 -160 5z m141 -120 c3 -4 4 -8 4 -21 0 -23 3 -35 11 -46
4 -4 9 -12 12 -17 3 -5 9 -14 12 -19 7 -11 12 -23 15 -42 1 -6 6 -19 10 -27
12 -23 14 -33 14 -60 0 -29 1 -31 18 -49 17 -18 18 -21 16 -51 -1 -29 2 -42
14 -55 11 -13 13 -17 18 -41 2 -11 6 -24 8 -28 11 -22 17 -64 18 -133 1 -11
-12 -19 -38 -24 -12 -2 -21 -5 -30 -11 -8 -5 -18 -9 -25 -10 -6 -1 -16 -5 -21
-8 -15 -10 -25 -12 -53 -14 -25 -1 -26 -1 -38 -8 -7 -4 -17 -9 -24 -11 -7 -2
-19 -7 -28 -12 -9 -5 -21 -10 -27 -12 -6 -2 -16 -6 -23 -10 -8 -4 -19 -9 -26
-11 -7 -2 -18 -7 -24 -11 -7 -4 -19 -9 -27 -12 -8 -3 -20 -8 -27 -12 -6 -3
-16 -8 -20 -9 -4 -1 -18 -7 -30 -13 -46 -22 -97 -45 -101 -45 -13 0 -10 31 5
73 14 38 16 48 16 98 0 44 0 44 8 67 4 13 8 29 9 40 2 16 3 19 8 26 16 19 34
63 43 109 2 8 6 20 8 27 8 16 13 62 13 102 -1 34 0 37 12 51 9 10 10 14 10 62
0 51 1 57 12 67 7 6 8 9 11 22 3 13 4 16 12 23 4 5 13 13 18 19 16 17 21 20
35 22 11 1 13 2 21 11 l9 9 69 0 c69 -1 69 -1 73 -6z m895 -499 c8 -2 18 -6
22 -8 4 -3 13 -6 19 -7 14 -3 19 -8 22 -21 1 -5 6 -13 9 -18 8 -11 18 -40 17
-49 -1 -4 -4 -7 -17 -14 -14 -7 -21 -13 -39 -33 -22 -22 -44 -41 -58 -48 -3
-2 -15 -10 -25 -19 -22 -18 -29 -23 -41 -26 -20 -5 -35 -17 -46 -35 -5 -8 -24
-20 -46 -29 -23 -9 -29 -13 -39 -24 -5 -6 -9 -12 -9 -12 0 -3 -30 -24 -42 -30
-6 -3 -14 -8 -17 -11 -7 -6 -15 -10 -32 -16 -26 -10 -62 -31 -80 -47 -13 -12
-24 -18 -39 -23 -6 -2 -16 -7 -22 -10 -6 -4 -16 -9 -23 -12 -7 -2 -18 -9 -26
-14 -45 -33 -55 -31 -55 9 0 19 -1 23 -7 41 -7 19 -7 19 -6 52 1 25 1 35 -2
47 -4 21 -10 52 -13 72 -3 20 -6 33 -13 54 -4 13 -11 40 -14 61 -2 15 4 25 21
31 4 1 16 7 27 12 17 8 22 9 40 10 15 1 25 3 41 9 20 6 22 7 38 6 13 -1 22 -1
38 3 12 2 26 4 33 5 6 1 18 4 26 7 8 3 19 6 25 7 22 3 59 13 78 22 10 5 21 9
24 10 3 1 10 4 15 7 10 5 13 6 30 6 24 0 44 6 73 23 13 7 33 12 52 12 12 0 20
1 27 4 11 5 10 5 34 -4z m-709 -196 c1 -3 2 -14 2 -24 0 -24 3 -43 10 -67 7
-25 14 -60 16 -88 5 -56 6 -64 13 -83 28 -78 16 -126 -40 -154 -8 -4 -19 -11
-23 -15 -29 -24 -45 -33 -85 -49 -34 -14 -72 -29 -97 -41 -15 -7 -28 -11 -39
-13 -22 -4 -26 -6 -55 -20 -14 -7 -27 -13 -28 -13 -1 0 -10 -4 -20 -8 -44 -21
-63 -27 -89 -26 -33 0 -49 -3 -78 -18 -37 -19 -59 -27 -66 -24 -10 4 -10 6 -9
133 0 65 -1 154 -2 199 -2 100 -3 99 41 116 10 4 25 10 34 14 8 3 23 9 33 11
11 3 23 8 31 13 13 8 28 15 77 35 12 5 25 11 30 13 5 3 20 9 34 14 13 6 26 11
29 13 2 2 9 5 16 7 6 2 16 6 21 9 13 8 52 22 70 27 10 2 22 7 32 13 18 11 35
14 79 17 22 1 26 2 36 7 15 8 23 9 27 2z m-664 -261 c3 -2 3 8 1 -148 -1 -121
0 -222 4 -241 3 -14 -12 -26 -37 -30 -9 -2 -19 -4 -23 -6 -5 -2 -18 -7 -31
-11 -12 -5 -25 -10 -28 -12 -11 -8 -16 -8 -30 -4 -27 8 -58 3 -94 -16 -10 -6
-20 -9 -34 -12 -10 -2 -26 -6 -35 -8 -14 -4 -18 -4 -31 -3 -30 4 -39 3 -61 -7
-28 -12 -39 -14 -56 -9 -8 3 -24 6 -36 7 -36 4 -46 6 -67 13 -51 19 -66 44
-41 70 4 4 11 14 16 21 10 16 29 34 42 41 14 7 34 22 41 31 9 13 32 33 43 38
5 2 13 7 17 10 8 6 16 10 34 17 24 9 34 18 64 61 4 7 11 13 19 17 7 4 16 11
21 14 5 4 15 9 23 11 10 3 24 10 40 20 14 9 31 19 37 22 6 3 22 15 36 26 27
21 34 24 59 28 18 3 32 9 45 21 5 5 13 11 16 12 3 2 10 8 15 13 14 13 25 18
31 14z m717 -220 c5 -5 3 -32 -4 -49 -8 -19 -9 -29 -10 -91 0 -63 -1 -69 -12
-78 -20 -17 -28 -38 -26 -75 3 -59 -3 -112 -15 -139 -3 -5 -5 -16 -6 -27 -1
-10 -3 -23 -5 -30 -3 -9 -3 -21 -3 -56 0 -53 -1 -57 -18 -66 -27 -14 -31 -25
-28 -87 1 -19 0 -22 -5 -33 -2 -6 -7 -21 -10 -32 -6 -23 -7 -26 -28 -49 -14
-16 -14 -13 -14 -49 0 -32 -3 -39 -25 -54 -15 -11 -25 -21 -50 -52 -13 -15
-65 -55 -82 -63 -34 -14 -67 0 -89 36 -7 12 -14 19 -24 25 -10 5 -13 11 -15
32 -4 30 -7 39 -18 52 -3 3 -8 12 -11 18 -3 7 -7 15 -10 18 -11 15 -14 30 -17
82 -2 40 -3 42 -30 62 -20 14 -38 58 -34 83 3 23 3 34 -3 51 -3 9 -6 24 -7 34
-1 10 -3 21 -4 24 -1 3 -4 12 -5 19 -2 7 -6 19 -9 26 -8 18 -8 21 1 40 9 18
11 50 4 72 -19 64 -5 128 31 137 7 2 21 7 31 12 15 7 21 9 36 11 12 1 22 4 33
9 8 3 20 7 25 8 6 1 22 4 36 8 24 7 27 7 45 6 21 -1 25 0 51 10 28 11 38 17
51 29 12 11 64 39 80 43 3 1 13 5 23 10 26 13 78 38 92 45 62 32 71 36 78 28z"/>
</g>
</svg>
