<?xml version="1.0" standalone="no"?>
<!DOCTYPE svg PUBLIC "-//W3C//DTD SVG 20010904//EN"
 "http://www.w3.org/TR/2001/REC-SVG-20010904/DTD/svg10.dtd">
<svg version="1.0" xmlns="http://www.w3.org/2000/svg"
 width="59.000000pt" height="100.000000pt" viewBox="0 0 59.000000 100.000000"
 preserveAspectRatio="xMidYMid meet">
<metadata>
Created by potrace 1.16, written by Peter Selinger 2001-2019
</metadata>
<g transform="translate(0.000000,100.000000) scale(0.100000,-0.100000)"
fill="#000000" stroke="none">
<path d="M51 946 c-8 -9 -10 -139 -9 -462 l3 -449 25 0 25 0 3 212 2 213 223
2 222 3 0 25 c0 24 -2 25 -90 30 -82 5 -90 7 -90 25 0 19 7 20 90 20 89 0 90
0 90 25 0 25 -1 25 -92 28 -91 3 -93 3 -93 27 0 24 2 24 93 27 86 3 92 4 95
25 3 21 0 22 -90 25 l-93 3 0 30 0 30 85 0 c84 0 85 0 85 25 0 24 -2 25 -85
28 -47 2 -89 7 -93 11 -5 5 -4 18 2 30 10 18 22 21 99 23 76 3 87 5 90 22 2
10 -2 22 -10 27 -7 5 -117 9 -244 9 -184 0 -234 -3 -243 -14z m247 -238 l-3
-193 -95 0 -95 0 -3 180 c-1 98 0 185 2 192 4 9 32 13 101 13 l95 0 -2 -192z"/>
</g>
</svg>
