<?xml version="1.0" standalone="no"?>
<!DOCTYPE svg PUBLIC "-//W3C//DTD SVG 20010904//EN"
 "http://www.w3.org/TR/2001/REC-SVG-20010904/DTD/svg10.dtd">
<svg version="1.0" xmlns="http://www.w3.org/2000/svg"
 width="222.000000pt" height="376.000000pt" viewBox="0 0 222.000000 376.000000"
 preserveAspectRatio="xMidYMid meet">
<metadata>
Created by potrace 1.16, written by Peter Selinger 2001-2019
</metadata>
<g transform="translate(0.000000,376.000000) scale(0.100000,-0.100000)"
fill="#000000" stroke="none">
<path d="M184 3575 c-3 -8 -3 -19 1 -25 4 -6 0 -22 -9 -35 -14 -22 -16 -190
-16 -1686 0 -914 2 -1664 4 -1666 3 -4 140 -6 191 -3 7 0 9 263 7 775 -3 706
-2 778 13 801 l16 25 816 -2 c673 -1 818 1 828 13 8 7 15 44 17 88 l3 75 -294
2 c-180 1 -303 6 -315 12 -12 6 -34 12 -51 13 l-30 3 0 83 c-1 45 2 88 6 93 6
11 208 12 319 3 25 -2 56 -4 70 -4 14 0 84 0 157 -1 l131 0 4 83 c2 46 2 88 0
93 -2 7 -115 11 -344 10 l-342 0 0 98 c-1 55 2 104 6 109 4 7 43 9 115 5 59
-4 202 -7 318 -8 169 -1 210 1 213 12 3 8 10 21 17 29 18 21 27 127 12 137 -7
4 -158 6 -337 3 -179 -3 -330 -2 -336 2 -7 5 -9 39 -6 93 4 69 1 94 -14 126
-15 35 -16 42 -3 50 8 5 21 6 29 3 8 -4 80 -8 160 -11 80 -2 158 -9 173 -15
22 -9 31 -8 37 2 6 10 37 12 138 8 93 -4 132 -2 134 6 2 6 4 47 3 91 l0 80
-340 1 -340 0 -3 84 c-3 76 -1 85 21 109 14 14 28 36 32 49 3 12 12 22 18 23
72 3 491 -3 554 -7 l81 -7 4 87 c2 48 2 91 0 96 -2 6 -337 10 -933 10 -804 0
-930 -2 -935 -15z m964 -548 c2 -326 4 -387 17 -397 19 -16 19 -34 0 -50 -13
-11 -15 -61 -15 -341 l0 -329 -378 0 c-353 0 -380 1 -395 18 -15 17 -17 86
-17 747 0 439 3 731 9 734 5 3 182 5 393 4 l383 -2 3 -384z m157 -777 c3 -5
-1 -10 -9 -10 -9 0 -16 5 -16 10 0 6 4 10 9 10 6 0 13 -4 16 -10z"/>
</g>
</svg>
