<?xml version="1.0" standalone="no"?>
<!DOCTYPE svg PUBLIC "-//W3C//DTD SVG 20010904//EN"
 "http://www.w3.org/TR/2001/REC-SVG-20010904/DTD/svg10.dtd">
<svg version="1.0" xmlns="http://www.w3.org/2000/svg"
 width="1138.000000pt" height="1500.000000pt" viewBox="0 0 1138.000000 1500.000000"
 preserveAspectRatio="xMidYMid meet">
<metadata>
Created by potrace 1.16, written by Peter Selinger 2001-2019
</metadata>
<g transform="translate(0.000000,1500.000000) scale(0.500000,-0.500000)"
fill="#000000" stroke="none">
<path d="M811 2833 c-9 -2 -10 -6 -10 -37 0 -16 2 -33 3 -37 1 -5 3 -49 4
-128 1 -66 3 -134 4 -151 2 -35 1 -44 -7 -49 -11 -8 -20 0 -22 19 -2 14 -6 20
-14 20 -19 0 -26 7 -29 25 -1 13 -2 14 -10 21 -7 6 -9 8 -9 17 -2 17 -3 19
-11 27 -8 7 -12 16 -12 29 0 9 -7 14 -21 16 -13 2 -84 68 -85 80 -1 2 -1 6 -1
8 0 2 -1 6 -1 9 0 2 -8 12 -20 25 -21 20 -31 31 -60 62 -17 18 -15 17 -56 17
l-32 -1 -17 -18 c-9 -10 -17 -18 -17 -19 0 -2 -10 -6 -21 -7 -9 -1 -45 -34
-93 -87 -6 -6 -10 -8 -16 -9 -13 -2 -20 -8 -21 -17 -2 -9 -18 -28 -35 -40 -17
-12 -17 -61 -1 -71 17 -11 35 -33 35 -42 0 -18 8 -25 28 -25 12 0 16 -5 17
-20 2 -13 2 -13 22 -33 20 -19 20 -19 21 -32 2 -18 7 -22 23 -24 17 -2 20 -4
21 -21 2 -12 2 -13 11 -21 9 -8 10 -9 11 -21 1 -13 5 -22 8 -22 9 0 36 -35 36
-48 0 -10 0 -10 16 -26 46 -43 50 -47 50 -65 0 -6 1 -9 6 -13 44 -38 80 -78
81 -90 2 -13 2 -13 18 -29 53 -50 48 -44 49 -59 1 -11 2 -14 8 -19 34 -30 35
-30 36 -45 2 -12 2 -13 12 -22 10 -10 10 -10 10 -33 l0 -23 17 -17 c10 -9 18
-17 19 -17 5 0 8 -13 8 -29 -2 -22 0 -26 21 -45 25 -23 23 -18 22 -67 l-2 -43
19 -18 c10 -10 20 -18 21 -18 5 0 7 -14 6 -44 l-2 -30 12 -11 11 -10 0 -23 c0
-26 -3 -20 28 -49 l17 -15 0 -23 c0 -23 0 -23 11 -33 10 -10 10 -10 10 -31 0
-24 2 -29 12 -36 8 -5 9 -7 11 -24 1 -9 2 -11 11 -19 10 -9 10 -9 10 -32 0
-25 -1 -22 17 -38 5 -5 6 -6 5 -30 0 -18 3 -26 13 -32 4 -2 8 -6 9 -8 1 -2 6
-7 11 -10 13 -10 13 -9 13 -66 0 -50 -2 -64 -8 -64 -1 0 -7 -5 -13 -11 -7 -7
-20 -19 -29 -27 -19 -18 -20 -21 -19 -45 l2 -17 -17 -15 c-8 -9 -18 -19 -22
-22 -4 -4 -6 -7 -6 -12 0 -17 -2 -19 -38 -53 -5 -5 -6 -7 -6 -15 0 -9 -4 -23
-7 -23 -1 0 -10 -8 -19 -17 -20 -18 -19 -17 -18 -43 1 -21 -3 -28 -16 -28 -24
0 -28 -6 -28 -35 l0 -23 -17 -16 c-9 -10 -24 -23 -32 -31 -15 -15 -15 -15 -17
-28 -1 -13 -2 -14 -11 -22 -9 -8 -9 -9 -11 -22 -1 -13 -2 -14 -10 -21 -9 -8
-12 -15 -12 -26 0 -8 -35 -47 -56 -62 -9 -7 -11 -11 -10 -34 l0 -20 -15 -15
c-8 -8 -18 -17 -22 -20 -7 -5 -8 -7 -9 -19 -1 -12 -2 -13 -12 -22 -16 -14 -17
-43 -1 -51 6 -4 78 -5 94 -2 13 3 39 33 39 45 0 12 1 15 12 25 7 7 8 9 9 21 1
12 2 13 10 21 8 7 9 9 10 18 2 19 0 17 46 61 19 18 21 20 21 31 0 13 2 16 22
34 19 17 22 22 22 36 0 9 2 12 11 19 7 5 11 14 11 27 0 7 17 27 34 39 6 4 10
14 10 25 0 8 1 9 9 16 10 8 13 16 13 30 0 4 1 8 4 11 2 1 11 10 20 19 17 15
17 15 18 29 1 12 2 14 10 20 10 9 12 14 12 24 0 8 5 20 8 20 6 0 35 33 35 42
2 15 3 17 12 26 8 8 9 10 11 23 1 13 1 13 21 32 19 19 20 21 22 38 0 9 2 11
10 18 9 8 9 8 10 21 1 13 2 14 11 23 9 8 10 10 10 18 0 12 4 22 11 26 14 9 13
49 -1 65 -10 10 -10 10 -10 32 0 23 0 23 -10 32 -10 9 -11 10 -12 23 -1 13 -2
14 -11 22 l-10 9 0 30 c0 17 -1 33 -1 36 0 3 -4 8 -10 14 -8 7 -10 10 -10 16
0 12 -4 20 -13 29 -9 8 -9 8 -9 31 0 23 0 23 -10 32 -11 10 -11 10 -11 33 0
22 -3 33 -9 33 -1 0 -9 7 -18 16 l-17 16 0 23 c0 24 -1 27 -12 35 -9 6 -11 14
-10 33 2 18 -1 26 -10 32 -9 6 -11 9 -11 19 0 11 -5 20 -12 25 -9 5 -11 10
-10 33 0 21 0 21 -10 31 -11 9 -11 9 -12 33 -1 24 -1 24 -8 30 -4 4 -14 13
-22 21 l-16 15 0 19 c0 22 -2 27 -11 33 -11 7 -14 24 -5 24 9 0 14 12 14 34 0
36 -2 35 66 33 62 -2 183 -3 253 -1 45 1 47 1 51 -3 4 -4 9 -705 6 -919 l0
-52 10 -10 c18 -16 17 -54 -1 -65 -12 -9 -12 -16 0 -26 9 -8 9 -9 11 -21 1
-12 71 -90 80 -90 3 0 6 -11 6 -20 0 -10 0 -10 65 -75 62 -62 65 -65 65 -73 0
-20 7 -28 26 -28 14 0 20 -7 20 -25 0 -7 1 -9 21 -28 21 -20 21 -21 21 -30 0
-10 4 -23 8 -23 8 0 58 -57 58 -66 0 -18 5 -23 23 -25 14 -1 84 -66 85 -78 1
-2 1 -6 1 -8 0 -2 1 -6 1 -9 0 -3 2 -8 5 -10 3 -3 13 -13 22 -22 55 -57 44
-52 101 -52 57 0 56 -1 56 47 0 34 -2 44 -11 49 -19 12 -35 31 -36 44 -2 15
-7 22 -17 22 -24 0 -48 21 -50 43 -1 13 -1 13 -17 28 -52 50 -49 46 -49 57 0
19 -4 23 -25 25 -15 2 -19 6 -19 20 0 13 -2 15 -23 35 -10 9 -20 19 -22 22 -2
3 -5 6 -7 7 -9 7 -77 76 -78 80 -1 3 -2 9 -2 14 0 9 3 6 -37 44 -4 3 -5 7 -5
12 0 21 -7 29 -27 29 -13 0 -17 4 -19 20 -1 15 3 10 -60 70 -16 16 -27 28 -28
31 -2 8 0 39 3 48 4 9 4 21 1 28 -2 5 -3 100 -4 445 l-1 438 -11 10 c-13 12
-14 18 -2 26 11 7 12 11 12 34 0 33 -6 31 86 30 87 -1 79 1 99 -19 67 -70 68
-71 83 -71 9 0 16 -7 16 -15 0 -10 5 -20 14 -30 4 -5 8 -10 8 -12 0 -5 24 -28
32 -32 7 -2 8 -4 11 -13 4 -14 16 -27 28 -30 16 -3 37 -26 39 -43 1 -13 2 -14
10 -22 8 -7 10 -9 11 -18 1 -13 8 -20 25 -25 20 -6 38 -26 40 -43 2 -13 2 -13
32 -44 75 -75 76 -76 76 -87 0 -13 4 -22 12 -27 3 -2 8 -7 11 -11 7 -10 12
-12 38 -12 33 0 35 2 38 30 1 7 2 10 10 17 l10 8 1 30 c1 39 -1 45 -8 52 -18
16 -90 86 -133 129 -37 36 -37 36 -37 45 0 13 -3 18 -20 35 -9 8 -19 18 -22
21 -3 3 -8 8 -11 11 -3 3 -9 8 -12 12 -29 31 -53 53 -65 58 -12 5 -14 7 -23
19 -5 8 -14 20 -19 27 -6 8 -12 15 -18 18 -6 3 -10 7 -13 14 -6 12 -11 18 -24
27 -12 8 -36 30 -38 35 0 2 0 43 1 91 4 182 3 785 -1 793 -4 8 -8 9 -56 7 -67
-3 -750 -3 -761 0 -10 3 -50 5 -57 4z m453 -125 c4 -4 4 -7 3 -60 -3 -88 -2
-565 1 -606 3 -54 6 -52 -67 -50 -64 2 -183 2 -242 0 -69 -2 -66 -5 -63 57 1
22 2 178 2 348 0 325 -1 311 8 315 13 4 354 1 358 -4z m326 1 c4 -4 4 -4 4
-346 l0 -341 -13 -13 c-7 -7 -15 -14 -16 -15 -10 -4 -223 -3 -227 2 -6 5 -6 4
-2 86 3 74 3 470 0 555 -2 64 -2 67 4 73 7 7 244 5 250 -1z m-1145 -34 c17
-19 50 -51 51 -51 3 0 6 -11 7 -21 0 -11 0 -11 33 -43 32 -31 32 -31 32 -41 0
-12 27 -47 36 -47 4 0 8 -12 8 -22 0 -10 28 -44 36 -44 3 0 8 -12 8 -20 0 -16
7 -22 24 -22 16 0 42 -28 42 -45 0 -11 0 -11 44 -54 l43 -43 -1 -39 c0 -21 1
-75 2 -119 3 -103 4 -100 -39 -97 -25 2 -28 4 -30 27 -1 10 -2 12 -9 18 -24
22 -31 31 -32 45 -2 15 -5 20 -16 22 -23 4 -25 6 -27 24 -2 12 -2 12 -22 32
-21 20 -21 21 -21 30 0 9 -5 23 -8 23 -3 0 -98 97 -100 102 -1 2 -2 7 -2 11 0
7 -5 19 -8 19 -9 0 -36 35 -36 47 0 9 -1 10 -9 18 -10 9 -13 16 -13 27 0 8 -1
10 -22 30 -22 21 -22 22 -22 31 0 9 -3 19 -6 19 -4 0 -60 58 -60 62 0 8 0 51
0 57 0 9 7 14 21 16 14 1 18 5 57 47 20 20 20 20 39 1z"/>
</g>
</svg>
