<?xml version="1.0" standalone="no"?>
<!DOCTYPE svg PUBLIC "-//W3C//DTD SVG 20010904//EN"
 "http://www.w3.org/TR/2001/REC-SVG-20010904/DTD/svg10.dtd">
<svg version="1.0" xmlns="http://www.w3.org/2000/svg"
 width="76.000000pt" height="100.000000pt" viewBox="0 0 76.000000 100.000000"
 preserveAspectRatio="xMidYMid meet">
<metadata>
Created by potrace 1.16, written by Peter Selinger 2001-2019
</metadata>
<g transform="translate(0.000000,100.000000) scale(0.100000,-0.100000)"
fill="#000000" stroke="none">
<path d="M285 941 c-15 -6 -21 -20 -25 -62 l-5 -54 -44 58 c-24 31 -49 57 -56
57 -24 0 -95 -60 -95 -81 0 -12 35 -67 79 -123 89 -115 100 -135 140 -243 15
-43 36 -99 46 -124 l19 -47 -83 -132 c-81 -130 -91 -160 -53 -160 21 0 93 110
153 232 l33 67 -48 128 c-64 171 -64 168 4 168 l55 0 7 -164 c4 -90 9 -175 13
-189 3 -14 44 -72 91 -129 66 -79 91 -103 110 -103 39 0 30 34 -29 98 -28 31
-69 78 -90 103 l-37 47 2 168 c3 163 4 169 24 172 16 2 41 -20 104 -93 45 -53
87 -94 93 -92 7 2 13 16 15 31 3 22 -10 40 -67 100 l-71 73 0 141 c0 102 -3
143 -12 149 -18 11 -248 15 -273 4z m111 -51 c11 0 14 -22 14 -111 l0 -110
-52 3 -53 3 -3 107 -3 107 28 4 c15 2 34 2 41 0 8 -1 20 -3 28 -3z m124 -50
c3 -30 4 -80 2 -112 l-4 -58 -34 0 -34 0 0 108 c0 60 3 112 7 116 4 4 19 6 33
4 23 -3 26 -8 30 -58z m-315 -29 c43 -55 55 -77 55 -105 0 -20 -3 -36 -8 -36
-8 0 -101 122 -121 158 -13 25 -9 52 8 52 6 0 35 -31 66 -69z"/>
</g>
</svg>
