<?xml version="1.0" standalone="no"?>
<!DOCTYPE svg PUBLIC "-//W3C//DTD SVG 20010904//EN"
 "http://www.w3.org/TR/2001/REC-SVG-20010904/DTD/svg10.dtd">
<svg version="1.0" xmlns="http://www.w3.org/2000/svg"
 width="284.000000pt" height="376.000000pt" viewBox="0 0 284.000000 376.000000"
 preserveAspectRatio="xMidYMid meet">
<metadata>
Created by potrace 1.16, written by Peter Selinger 2001-2019
</metadata>
<g transform="translate(0.000000,376.000000) scale(0.100000,-0.100000)"
fill="#000000" stroke="none">
<path d="M1003 3535 c-15 -11 -15 -19 -5 -66 6 -30 12 -139 14 -244 3 -188 3
-190 -19 -193 -17 -3 -22 3 -25 25 -2 20 -9 29 -25 31 -13 2 -23 10 -23 19 0
8 -6 27 -14 41 -15 30 -31 68 -40 95 -3 9 -14 17 -24 17 -21 0 -112 89 -112
111 0 8 -28 43 -63 77 -56 55 -67 62 -103 62 -33 0 -44 -5 -62 -30 -13 -16
-30 -30 -40 -30 -10 0 -44 -27 -77 -60 -33 -33 -65 -60 -72 -60 -6 0 -14 -9
-18 -20 -3 -11 -17 -28 -31 -39 -34 -27 -34 -82 1 -105 14 -9 25 -25 25 -36 0
-10 6 -22 13 -27 12 -8 17 -9 37 -12 6 0 10 -9 10 -18 0 -9 12 -29 26 -44 14
-14 27 -35 28 -45 2 -10 14 -21 27 -24 15 -4 25 -14 27 -27 2 -12 10 -27 18
-33 8 -7 14 -20 14 -29 0 -10 11 -28 25 -41 14 -13 25 -31 25 -40 0 -9 18 -33
40 -53 22 -19 40 -42 40 -51 0 -8 25 -38 55 -67 30 -28 55 -60 55 -70 0 -10
20 -37 45 -60 25 -23 44 -48 41 -55 -3 -7 8 -24 24 -38 17 -14 30 -31 30 -39
0 -8 7 -20 16 -28 10 -8 14 -23 12 -41 -3 -21 3 -34 24 -55 19 -18 28 -37 28
-58 0 -24 8 -38 31 -55 28 -22 30 -27 27 -81 -2 -52 0 -59 25 -79 23 -18 27
-29 27 -71 0 -35 4 -51 15 -55 9 -4 15 -19 15 -38 0 -22 8 -40 25 -56 17 -16
25 -34 25 -57 0 -21 6 -36 15 -39 9 -4 15 -19 15 -39 0 -18 7 -38 15 -45 8 -7
15 -20 15 -30 0 -10 7 -23 15 -30 9 -8 12 -22 8 -41 -4 -21 -1 -30 11 -35 10
-4 16 -18 16 -39 0 -25 8 -40 30 -58 28 -24 30 -30 30 -98 l0 -71 -46 -41
c-38 -33 -44 -44 -39 -66 4 -21 -1 -33 -25 -56 -16 -16 -30 -35 -30 -43 0 -8
-11 -23 -25 -34 -14 -11 -25 -27 -25 -37 0 -9 -13 -30 -30 -46 -21 -20 -30
-38 -30 -61 0 -27 -4 -32 -31 -38 -28 -5 -30 -8 -24 -36 6 -27 1 -35 -39 -73
-25 -23 -46 -50 -46 -58 0 -9 -6 -22 -14 -29 -8 -6 -13 -17 -10 -24 3 -7 -2
-19 -11 -26 -8 -7 -15 -20 -15 -29 0 -9 -21 -35 -45 -59 -34 -33 -44 -49 -39
-65 3 -16 -4 -30 -26 -52 -16 -16 -30 -36 -30 -46 0 -9 -7 -20 -16 -23 -10 -4
-14 -15 -12 -33 3 -27 5 -28 62 -28 61 0 106 21 106 49 0 7 11 34 25 60 14 26
25 53 25 61 0 8 20 33 45 56 25 23 45 49 45 59 0 9 11 27 25 40 14 13 25 31
25 41 0 9 7 19 15 23 8 3 15 15 15 27 0 12 11 30 25 41 14 11 25 28 25 38 0 9
7 23 15 30 8 7 15 20 15 29 0 10 11 28 25 41 14 13 25 32 25 42 0 10 7 21 15
24 8 4 15 16 15 28 0 12 9 27 20 34 19 12 60 85 60 107 0 6 14 24 30 40 17 16
30 34 30 41 0 7 19 49 42 94 42 81 43 81 25 111 -9 17 -17 41 -17 53 0 12 -7
31 -15 42 -8 10 -15 26 -15 35 0 9 -7 19 -15 23 -11 4 -13 16 -9 49 5 32 2 46
-10 56 -9 7 -16 19 -16 26 0 7 -7 18 -15 25 -8 7 -15 27 -15 45 0 18 -7 38
-15 45 -11 9 -14 22 -10 39 5 22 0 31 -25 49 -23 17 -30 30 -30 56 0 18 -7 39
-15 46 -8 7 -15 26 -15 42 0 16 -7 36 -16 45 -8 9 -13 21 -10 28 3 8 -2 16
-10 19 -8 3 -14 19 -14 41 0 22 -6 38 -15 41 -9 4 -15 19 -15 41 0 26 -7 40
-31 60 -20 17 -29 33 -27 48 2 13 -5 32 -15 43 -16 17 -16 21 -2 32 8 7 15 28
15 46 0 19 5 34 10 34 13 1 448 1 458 0 4 0 7 -275 6 -610 0 -492 2 -613 13
-622 19 -15 16 -68 -4 -84 -17 -13 -17 -15 0 -28 9 -7 17 -20 17 -27 0 -8 25
-39 55 -69 30 -30 55 -61 55 -70 0 -9 36 -51 79 -93 44 -43 81 -88 83 -100 2
-16 11 -23 31 -25 19 -2 27 -9 27 -24 0 -11 11 -29 25 -40 14 -11 25 -29 25
-40 0 -12 17 -36 39 -55 22 -18 41 -43 43 -56 2 -12 12 -23 23 -26 26 -5 115
-91 115 -111 0 -9 20 -38 44 -64 44 -46 46 -47 108 -49 l63 -2 3 49 c3 42 -1
53 -26 80 -16 17 -32 39 -35 49 -4 9 -15 17 -25 17 -22 0 -52 30 -52 51 0 8
-18 32 -40 54 -21 21 -40 47 -42 59 -2 12 -13 23 -28 26 -14 3 -25 13 -25 23
0 9 -37 54 -83 100 -45 45 -82 89 -82 97 0 7 -12 27 -27 42 -15 16 -28 37 -28
46 0 11 -10 18 -27 20 -22 3 -28 9 -28 26 0 15 -19 40 -54 72 l-55 49 0 605
c-1 522 -3 607 -16 616 -20 15 -19 30 1 38 11 4 14 13 10 29 -11 45 5 52 116
49 l103 -3 45 -49 c25 -27 57 -54 73 -60 16 -6 27 -17 27 -29 0 -10 17 -36 38
-57 21 -22 41 -47 45 -56 3 -10 12 -18 20 -18 18 0 57 -42 57 -63 0 -9 6 -20
14 -24 8 -4 15 -17 18 -28 2 -11 12 -21 23 -23 27 -5 55 -31 55 -51 0 -9 32
-48 70 -86 39 -38 70 -78 70 -88 0 -32 34 -59 71 -55 26 2 35 8 37 25 2 12 10
27 18 33 8 7 14 30 14 52 0 37 -7 46 -109 146 -60 59 -112 117 -115 129 -4 11
-50 64 -104 116 -53 52 -126 124 -161 161 l-63 67 -2 556 -1 556 -500 -2
c-275 0 -517 3 -537 8 -27 6 -42 5 -55 -4z m577 -590 l0 -455 -235 0 -234 0
-1 448 c0 247 3 452 7 455 3 4 109 7 235 7 l228 0 0 -455z m410 17 c0 -415 -1
-440 -19 -456 -16 -14 -39 -16 -167 -14 -112 2 -149 6 -148 16 1 6 2 210 3
452 l1 440 165 0 165 0 0 -438z m-1406 357 c25 -28 43 -55 40 -61 -4 -5 14
-29 40 -52 25 -24 46 -50 46 -58 0 -8 11 -25 25 -38 14 -13 25 -31 25 -40 0
-9 11 -27 24 -39 13 -13 27 -34 30 -47 4 -13 14 -24 23 -24 22 0 63 -39 63
-61 0 -9 25 -39 55 -67 l54 -50 2 -155 c0 -86 -2 -161 -6 -166 -7 -12 -44 -14
-69 -5 -9 3 -16 16 -16 28 0 13 -11 33 -24 45 -14 13 -26 33 -28 45 -2 13 -12
22 -25 24 -14 2 -25 12 -29 27 -3 13 -17 33 -30 46 -13 12 -24 30 -24 39 0 8
-31 47 -70 85 -38 38 -70 77 -70 85 0 9 -11 27 -25 40 -14 13 -25 31 -25 41 0
9 -7 19 -15 23 -8 3 -15 14 -15 24 0 10 -11 29 -25 42 -14 13 -25 31 -25 41 0
9 -21 35 -46 57 -43 39 -45 43 -42 89 3 41 6 48 25 51 12 2 37 21 55 42 18 21
38 39 44 39 7 1 32 -22 58 -50z"/>
</g>
</svg>
