<?xml version="1.0" standalone="no"?>
<!DOCTYPE svg PUBLIC "-//W3C//DTD SVG 20010904//EN"
 "http://www.w3.org/TR/2001/REC-SVG-20010904/DTD/svg10.dtd">
<svg version="1.0" xmlns="http://www.w3.org/2000/svg"
 width="416.000000pt" height="376.000000pt" viewBox="0 0 416.000000 376.000000"
 preserveAspectRatio="xMidYMid meet">
<metadata>
Created by potrace 1.16, written by Peter Selinger 2001-2019
</metadata>
<g transform="translate(0.000000,376.000000) scale(0.100000,-0.100000)"
fill="#000000" stroke="none">
<path d="M1776 3575 c-4 -12 -31 -15 -149 -15 l-144 0 -26 -30 c-18 -20 -37
-30 -56 -30 -16 0 -34 -6 -40 -14 -9 -11 -26 -13 -64 -9 -41 4 -56 2 -66 -11
-7 -9 -21 -16 -31 -16 -10 0 -23 -7 -30 -15 -7 -8 -20 -15 -30 -15 -10 0 -21
-7 -24 -16 -5 -12 -14 -15 -35 -11 -23 5 -35 -1 -72 -39 -24 -24 -51 -44 -60
-44 -10 0 -26 -11 -37 -25 -11 -14 -27 -25 -35 -25 -8 0 -20 -7 -27 -15 -7 -8
-27 -15 -45 -15 -26 0 -43 -12 -99 -70 -37 -38 -73 -70 -79 -70 -5 0 -28 -8
-49 -17 -28 -13 -38 -22 -36 -37 2 -13 -4 -22 -19 -25 -30 -8 -173 -149 -173
-171 0 -10 -7 -20 -15 -24 -8 -3 -15 -14 -15 -25 0 -11 -4 -23 -10 -26 -5 -3
-10 -14 -10 -24 0 -10 -7 -24 -15 -31 -8 -7 -15 -27 -15 -45 0 -18 -7 -38 -15
-45 -8 -7 -15 -19 -15 -27 0 -8 -12 -24 -27 -37 -24 -21 -26 -28 -24 -94 2
-58 -1 -73 -13 -78 -14 -5 -16 -50 -16 -385 0 -328 2 -380 15 -385 12 -5 15
-33 15 -164 0 -131 3 -160 16 -171 9 -8 13 -21 10 -35 -4 -13 0 -29 9 -38 8
-8 15 -21 15 -29 0 -8 7 -20 15 -27 8 -7 15 -28 15 -47 0 -21 6 -36 15 -39 10
-4 15 -17 13 -40 -2 -25 4 -38 25 -54 15 -12 27 -30 27 -40 0 -10 13 -30 30
-43 16 -14 30 -32 30 -40 0 -8 7 -20 15 -27 11 -9 14 -22 10 -39 -5 -22 3 -34
40 -71 25 -24 45 -52 45 -62 0 -11 7 -18 18 -18 10 0 42 -25 72 -55 30 -30 62
-55 71 -55 10 0 29 -13 42 -30 14 -16 35 -30 46 -30 12 0 21 -4 21 -10 0 -5 8
-10 19 -10 10 0 24 -7 31 -15 7 -8 20 -15 29 -15 10 0 30 -13 46 -30 16 -16
35 -30 43 -30 7 0 20 -7 28 -15 9 -9 25 -13 37 -10 16 4 30 -3 52 -25 23 -24
37 -30 71 -30 25 0 47 -6 54 -15 8 -10 30 -15 60 -15 28 0 50 -5 52 -12 3 -7
24 -11 59 -9 40 1 59 -2 69 -14 11 -13 47 -15 240 -15 193 0 229 -2 234 -15 8
-22 454 -22 462 0 5 12 31 15 148 15 139 0 143 1 166 25 14 15 35 25 51 25 14
0 32 7 39 15 7 8 27 15 45 15 18 0 38 7 45 15 7 8 21 15 31 15 12 0 19 9 21
28 3 24 7 27 34 25 19 -2 37 4 44 12 7 8 20 15 29 15 10 0 30 14 46 30 16 17
37 30 46 30 10 0 26 11 37 25 11 14 24 25 29 25 27 0 97 49 163 114 41 41 84
76 95 78 11 2 22 14 25 28 3 14 14 26 25 28 27 5 55 32 55 52 0 9 18 34 40 55
22 21 40 45 40 52 0 20 60 83 80 83 20 0 43 23 33 33 -3 4 8 20 25 37 18 17
32 38 32 47 0 9 18 31 40 50 31 27 40 42 40 67 0 23 9 41 30 61 21 20 28 35
24 50 -3 13 1 27 10 34 12 10 16 32 16 86 0 52 4 76 15 85 13 10 15 54 15 275
0 221 -2 265 -15 275 -8 7 -15 20 -15 30 0 10 -7 21 -16 24 -13 5 -15 16 -12
51 4 31 1 48 -8 56 -8 6 -14 19 -14 29 0 10 -7 20 -15 24 -12 4 -15 23 -15 85
0 44 -4 82 -9 86 -13 7 -41 64 -41 82 0 7 -7 16 -15 19 -10 4 -15 20 -15 44 0
41 -21 66 -60 72 -21 2 -25 8 -25 35 0 24 -10 43 -42 75 -24 24 -43 51 -43 59
0 8 -18 33 -40 54 -22 21 -40 46 -40 55 0 23 -32 50 -58 50 -19 0 -22 6 -22
40 0 40 -4 44 -45 41 -12 -1 -37 15 -60 39 -21 22 -46 40 -55 40 -21 0 -90 71
-90 93 0 10 -8 20 -17 23 -10 3 -26 10 -35 15 -10 5 -31 9 -47 9 -22 0 -37 10
-61 40 -25 32 -38 40 -65 40 -18 0 -38 7 -45 15 -7 8 -20 15 -29 15 -10 0 -28
14 -40 31 l-24 32 -97 -7 -98 -6 -25 30 c-18 21 -35 30 -55 30 -16 0 -35 7
-42 15 -10 12 -37 15 -127 15 -92 0 -115 3 -119 15 -5 13 -43 15 -259 15 -216
0 -254 -2 -259 -15z m464 -190 c8 -10 31 -15 70 -15 39 0 62 -5 70 -15 7 -8
25 -15 40 -15 15 0 33 -6 39 -14 9 -11 26 -13 64 -9 41 4 56 2 66 -11 9 -11
29 -16 60 -16 41 0 50 -4 71 -32 21 -29 24 -30 36 -13 12 16 16 16 30 4 10 -8
31 -14 48 -14 26 0 31 -4 34 -27 2 -19 9 -28 21 -28 10 0 24 -7 31 -15 7 -8
20 -15 29 -15 10 0 28 -11 41 -25 16 -17 34 -25 57 -25 23 0 35 -5 39 -17 12
-38 33 -68 51 -71 44 -8 87 -37 152 -104 39 -40 71 -80 71 -89 0 -12 9 -19 28
-21 24 -3 27 -7 30 -46 2 -32 9 -46 27 -58 13 -8 25 -25 27 -37 2 -13 13 -23
28 -27 15 -4 26 -14 28 -27 2 -11 14 -31 28 -44 16 -15 24 -33 24 -56 0 -19 5
-33 13 -34 6 -1 19 -2 27 -3 11 -1 15 -15 16 -56 0 -53 29 -140 46 -140 4 0 8
-8 8 -19 0 -10 7 -24 15 -31 11 -9 15 -33 15 -85 0 -52 4 -76 15 -85 12 -10
15 -45 15 -192 0 -150 -2 -180 -15 -184 -13 -5 -15 -36 -15 -194 l0 -188 -30
-25 c-17 -14 -30 -35 -30 -46 0 -12 -4 -21 -9 -21 -5 0 -11 -12 -13 -28 -2
-15 -10 -28 -18 -28 -8 -1 -21 -2 -27 -3 -7 0 -13 -9 -13 -20 0 -10 -31 -49
-70 -86 -38 -38 -67 -72 -63 -78 8 -13 -68 -87 -89 -87 -11 0 -18 -7 -18 -19
0 -12 -14 -26 -37 -38 -27 -13 -39 -27 -46 -51 -7 -31 -10 -33 -45 -30 -34 3
-37 1 -40 -25 -2 -19 -9 -27 -23 -27 -12 0 -40 -21 -63 -46 -35 -37 -47 -44
-67 -39 -19 5 -31 -1 -54 -25 -16 -16 -35 -30 -43 -30 -7 0 -20 -7 -28 -15 -9
-8 -24 -15 -35 -15 -10 0 -19 -4 -19 -10 0 -5 -8 -10 -19 -10 -10 0 -24 -7
-31 -15 -7 -8 -21 -15 -32 -15 -10 0 -21 -7 -24 -15 -4 -10 -21 -15 -54 -15
-32 0 -52 -5 -61 -16 -12 -15 -37 -16 -224 -12 -115 3 -216 4 -222 1 -7 -3
-13 -15 -13 -28 0 -47 -56 -44 -62 3 -2 18 -9 27 -21 27 -10 0 -21 5 -25 12
-15 23 -57 25 -82 3 -21 -18 -25 -19 -32 -5 -12 20 -86 20 -112 0 -27 -21
-139 -20 -156 0 -10 12 -45 15 -195 15 -150 0 -185 3 -195 15 -7 8 -21 15 -31
15 -10 0 -20 4 -23 9 -14 22 -83 48 -117 43 -30 -3 -40 1 -62 27 -14 17 -31
31 -36 31 -6 0 -21 5 -34 12 -12 6 -29 14 -37 18 -8 4 -17 16 -19 26 -4 26
-31 54 -51 54 -9 0 -27 11 -40 24 -14 16 -36 26 -59 28 -27 2 -37 8 -39 23 -2
11 -11 27 -19 36 -9 11 -12 26 -7 43 8 34 -28 68 -69 63 -34 -4 -51 15 -43 47
5 20 -2 31 -39 64 -35 31 -45 46 -45 70 0 17 -4 34 -10 37 -5 3 -10 14 -10 24
0 9 -14 30 -30 46 -26 25 -30 35 -30 86 0 40 -5 60 -16 70 -13 11 -15 26 -11
80 5 57 3 70 -13 84 -16 15 -18 27 -13 79 4 49 2 65 -11 78 -14 15 -16 53 -16
321 0 268 2 306 16 318 12 10 15 24 10 55 -4 30 -1 45 9 54 8 7 15 18 15 25 0
7 7 18 15 25 8 7 15 27 15 45 0 25 8 40 30 58 16 14 30 34 30 44 0 10 18 33
40 52 22 19 40 41 40 50 0 9 7 24 14 34 8 10 12 27 9 38 -6 23 32 69 57 69 9
0 34 18 55 40 21 22 46 40 54 40 23 0 51 31 51 55 0 26 21 38 55 29 18 -4 28
1 46 25 12 17 27 31 33 31 18 0 93 40 111 60 10 11 30 20 45 20 15 0 33 7 40
15 7 8 28 15 46 15 27 0 34 4 34 19 0 28 18 36 79 36 50 0 55 2 61 25 3 14 14
26 25 28 11 2 27 11 36 18 9 8 32 14 52 12 19 -1 42 4 51 11 14 12 19 11 36
-4 25 -22 50 -13 50 20 l0 25 104 0 c80 0 106 3 116 15 10 12 46 15 205 15
159 0 195 -3 205 -15z"/>
<path d="M2599 2864 c-6 -8 -25 -14 -41 -14 -35 0 -98 -56 -98 -88 0 -11 -7
-22 -15 -26 -8 -3 -15 -16 -15 -30 0 -19 -6 -25 -27 -28 -25 -3 -28 -7 -25
-34 2 -25 -4 -37 -28 -57 -21 -18 -30 -35 -30 -56 0 -18 -7 -34 -17 -40 -17
-9 -17 -10 0 -28 9 -11 17 -31 17 -46 0 -17 10 -33 30 -47 l30 -21 0 -104 c0
-82 3 -104 15 -109 25 -9 17 -45 -20 -81 -42 -43 -63 -44 -100 -5 -18 19 -39
30 -56 30 -14 0 -32 6 -39 14 -6 8 -18 12 -26 9 -7 -3 -17 2 -20 11 -4 10 -18
16 -38 16 -23 0 -41 9 -61 30 -29 30 -29 30 -141 30 -87 0 -114 3 -124 15 -10
12 -45 15 -200 15 -155 0 -190 -3 -200 -15 -9 -11 -32 -15 -83 -15 -88 0 -147
23 -147 57 0 23 -2 23 -103 23 -122 0 -134 -7 -139 -85 -3 -43 -6 -50 -25 -53
-15 -2 -23 -10 -23 -22 0 -26 -17 -34 -70 -35 l-45 0 0 -80 c0 -80 0 -80 27
-83 30 -4 58 -35 58 -66 0 -16 5 -18 34 -13 30 5 38 0 85 -47 35 -35 51 -60
51 -78 0 -28 -20 -50 -41 -46 -8 2 -15 -7 -17 -20 -2 -13 -10 -26 -18 -29 -9
-3 -14 -20 -14 -44 0 -34 -3 -39 -23 -39 -26 0 -57 -28 -57 -52 0 -19 -69 -88
-89 -88 -38 -1 -51 -25 -51 -91 0 -62 1 -65 37 -93 22 -18 49 -30 67 -30 26
-1 31 -5 34 -28 2 -16 7 -28 12 -28 5 0 10 -10 12 -22 2 -14 12 -24 28 -28 17
-4 26 -14 28 -30 7 -44 84 -86 166 -88 42 -2 64 2 77 14 15 13 47 16 200 16
127 0 184 -3 187 -11 2 -6 12 -11 22 -11 9 0 23 -7 30 -15 7 -8 28 -15 47 -15
21 0 36 -6 39 -15 5 -12 31 -15 149 -15 114 0 145 -3 155 -15 19 -22 441 -22
460 0 7 9 29 15 55 15 26 0 48 6 55 15 7 8 28 15 46 15 30 0 34 3 34 25 0 14
6 26 13 26 29 3 34 5 49 20 9 9 18 27 20 40 3 21 9 24 46 27 37 3 43 6 40 25
-2 14 4 23 17 26 37 11 65 36 65 58 0 18 6 23 24 23 22 0 25 5 28 43 3 35 7
43 26 45 13 2 27 14 32 27 5 13 14 26 19 30 17 10 14 250 -3 264 -8 7 -17 23
-20 36 -4 14 -11 25 -16 25 -6 0 -10 15 -10 34 0 18 -7 39 -15 46 -11 9 -15
32 -15 82 0 48 -5 74 -15 84 -20 20 -22 164 -2 165 76 4 174 -5 188 -17 22
-20 142 -19 159 1 7 8 20 15 30 15 10 0 34 18 53 39 20 22 46 41 59 43 22 3
23 6 23 108 0 97 -1 105 -20 108 -11 2 -34 17 -51 33 -29 28 -35 30 -81 24
l-49 -7 -62 63 c-34 35 -62 71 -62 80 0 20 -39 56 -65 61 -11 2 -20 11 -20 21
0 9 -30 47 -67 84 -36 38 -68 77 -70 88 -3 17 -12 20 -52 21 -28 1 -52 7 -56
15 -12 19 -145 22 -161 3z m157 -176 c21 -2 30 -10 34 -28 3 -14 14 -26 25
-28 27 -5 55 -32 55 -52 0 -9 13 -29 29 -44 16 -16 27 -34 25 -41 -6 -14 13
-29 36 -30 8 0 16 -10 18 -22 2 -12 10 -27 18 -33 8 -7 14 -21 14 -31 0 -12 7
-19 19 -19 23 0 37 -18 32 -44 -1 -10 7 -28 19 -41 12 -13 20 -31 18 -42 -3
-17 -17 -18 -198 -18 l-195 0 0 -117 c0 -98 3 -120 17 -132 12 -11 15 -25 11
-55 -4 -32 -2 -42 11 -47 12 -4 16 -19 16 -54 0 -30 6 -52 15 -60 10 -8 15
-31 15 -70 0 -39 5 -62 15 -70 12 -10 15 -37 15 -121 0 -82 -4 -111 -15 -123
-8 -8 -15 -21 -15 -29 0 -18 -39 -54 -65 -59 -11 -2 -19 -10 -17 -17 4 -18
-37 -61 -58 -61 -9 0 -27 -11 -39 -24 -13 -13 -34 -27 -47 -30 -17 -5 -24 -13
-24 -31 0 -22 -4 -25 -34 -25 -18 0 -39 -7 -46 -15 -7 -9 -30 -15 -54 -15 -22
0 -50 -7 -60 -15 -29 -22 -134 -20 -158 2 -16 15 -21 15 -28 3 -7 -11 -13 -12
-32 -2 -15 8 -84 13 -188 15 l-165 2 -3 25 c-2 14 -11 33 -20 43 -15 17 -38
18 -362 15 l-345 -3 -34 33 c-24 23 -34 41 -35 64 -1 24 -6 34 -21 36 -23 5
-45 21 -45 33 0 5 16 23 35 40 19 18 35 39 35 47 0 24 31 52 57 52 20 0 23 5
23 39 0 40 22 64 65 72 18 4 20 13 18 134 l-1 129 -39 35 c-120 108 -134 123
-131 144 2 13 13 23 28 27 14 3 25 13 25 23 0 9 6 22 13 29 11 11 20 6 48 -27
18 -22 34 -43 34 -47 0 -5 40 -8 89 -8 69 0 91 4 102 16 9 11 23 14 45 11 20
-3 40 0 54 10 32 23 329 22 342 -1 7 -13 23 -14 103 -9 l94 6 30 -32 c16 -17
38 -31 49 -31 17 0 21 -7 24 -42 l3 -41 50 -1 c47 -1 50 -3 53 -28 l3 -28 98
0 c75 0 101 4 111 15 7 8 20 15 30 15 10 0 23 7 30 15 7 8 19 15 28 15 22 0
52 30 52 51 0 9 14 29 31 44 l32 26 -7 79 c-6 72 -5 81 14 97 27 24 25 35 -14
70 -31 29 -33 34 -29 80 4 37 1 52 -11 62 -21 18 -21 84 0 102 9 7 13 21 10
35 -4 13 0 27 9 34 8 7 15 19 15 26 0 21 70 94 90 94 10 0 21 7 24 16 6 15 8
15 30 1 12 -8 36 -17 52 -19z m424 -434 c0 -23 -3 -25 -32 -22 -25 2 -34 8
-36 26 -3 19 1 22 32 22 32 0 36 -3 36 -26z"/>
<path d="M2683 2539 c-6 -6 -9 -18 -6 -25 3 -8 -2 -17 -11 -20 -12 -5 -16 -20
-16 -60 0 -46 3 -54 19 -54 10 0 24 -7 31 -15 19 -23 73 -19 98 8 26 27 30 88
7 111 -8 8 -15 21 -15 28 0 8 -5 19 -12 26 -15 15 -80 16 -95 1z"/>
</g>
</svg>
