<?xml version="1.0" standalone="no"?>
<!DOCTYPE svg PUBLIC "-//W3C//DTD SVG 20010904//EN"
 "http://www.w3.org/TR/2001/REC-SVG-20010904/DTD/svg10.dtd">
<svg version="1.0" xmlns="http://www.w3.org/2000/svg"
 width="1664.000000pt" height="1500.000000pt" viewBox="0 0 1664.000000 1500.000000"
 preserveAspectRatio="xMidYMid meet">
<metadata>
Created by potrace 1.16, written by Peter Selinger 2001-2019
</metadata>
<g transform="translate(0.000000,1500.000000) scale(0.500000,-0.500000)"
fill="#000000" stroke="none">
<path d="M1422 2858 l-10 -11 -109 0 c-70 0 -111 -1 -113 -2 -2 -1 -11 -11
-21 -21 -21 -22 -19 -22 -43 -22 -21 0 -24 -1 -34 -13 l-8 -8 -40 0 c-23 0
-43 0 -46 -1 -2 0 -8 -4 -14 -10 -8 -8 -11 -10 -19 -11 -15 -2 -16 -3 -26 -12
-7 -7 -10 -9 -18 -10 -15 -2 -16 -3 -26 -13 -9 -9 -9 -9 -27 -9 -11 0 -21 0
-24 -1 -3 0 -15 -11 -35 -32 -32 -32 -32 -32 -44 -33 -12 -2 -12 -2 -32 -22
-21 -20 -21 -20 -33 -22 -12 -1 -13 -2 -23 -11 -9 -10 -9 -10 -31 -10 -26 0
-23 1 -55 -32 -58 -60 -75 -76 -79 -77 -3 0 -9 -1 -14 -2 -7 -1 -10 -2 -17 -9
-9 -9 -14 -12 -24 -12 -15 0 -21 -7 -21 -25 0 -13 -5 -17 -21 -19 -13 -1 -13
-1 -64 -53 -29 -28 -55 -54 -58 -56 -8 -6 -11 -14 -11 -26 0 -9 0 -10 -15 -22
-4 -4 -5 -7 -5 -18 -1 -13 -1 -14 -12 -22 -9 -9 -10 -10 -10 -18 0 -12 -4 -22
-11 -26 -11 -6 -12 -10 -11 -34 0 -21 0 -21 -10 -31 -10 -9 -11 -10 -12 -23
-2 -14 1 -11 -37 -45 l-8 -8 1 -53 c0 -58 0 -62 -10 -68 -13 -7 -12 17 -12
-308 0 -316 -1 -299 10 -306 13 -8 13 8 11 -240 0 -13 0 -13 12 -24 11 -11 11
-11 11 -28 -1 -27 -1 -27 10 -37 9 -8 11 -10 11 -19 2 -14 4 -19 13 -25 9 -7
11 -14 9 -33 -1 -18 1 -26 11 -32 10 -7 13 -13 11 -32 -2 -22 -1 -24 21 -44
21 -19 24 -24 24 -38 0 -7 1 -9 22 -29 22 -22 22 -22 22 -33 0 -11 0 -12 11
-21 10 -10 10 -10 9 -31 0 -23 2 -30 11 -36 21 -14 55 -53 55 -64 0 -16 5 -21
23 -23 13 -1 13 -1 55 -44 42 -42 42 -42 55 -44 13 -1 13 -1 32 -22 18 -18 21
-20 29 -21 16 -2 18 -3 26 -12 8 -8 10 -9 22 -10 11 -1 13 -2 22 -11 8 -9 11
-10 18 -10 13 0 17 -3 37 -23 19 -19 25 -23 38 -23 4 0 8 -3 16 -10 11 -11 12
-11 35 -10 15 1 25 -3 31 -11 9 -12 31 -33 34 -33 2 -1 18 -1 35 -1 l30 0 9
-10 9 -10 35 -1 35 -1 10 -10 9 -11 45 0 45 0 9 -11 10 -10 173 0 c94 0 174
-1 177 -1 3 0 8 -4 14 -11 l10 -10 175 -1 175 0 11 11 11 11 110 0 c67 -1 110
0 112 1 2 1 11 11 21 21 21 23 19 22 45 22 20 0 20 0 30 10 7 7 12 10 15 10 3
0 14 1 23 1 18 0 18 0 28 10 9 9 11 10 22 11 17 2 22 7 22 23 0 19 4 22 34 23
24 1 24 1 32 9 8 9 10 10 26 12 8 1 11 3 29 22 19 20 21 21 29 21 13 0 18 3
37 23 18 18 19 20 28 20 14 2 20 5 25 11 5 8 15 12 26 12 8 0 9 1 73 65 64 64
64 64 77 66 17 2 21 5 23 23 1 16 4 19 21 21 12 2 13 2 25 13 6 7 12 12 13 12
2 0 6 10 7 21 0 11 0 11 33 43 32 32 32 32 32 43 0 18 48 65 67 65 14 0 21 8
21 23 0 10 27 45 36 45 3 0 8 14 8 23 0 9 50 65 58 65 5 0 8 13 8 33 l-1 21
18 17 c9 9 18 17 19 17 5 0 8 14 7 31 -2 20 0 25 11 32 10 7 13 15 11 30 0 5
-1 28 -1 51 l-1 41 11 9 11 10 1 206 c1 226 2 217 -11 224 -8 5 -11 11 -11 23
0 9 -1 10 -11 20 l-11 10 0 34 0 35 -10 8 c-9 8 -10 10 -11 19 -2 14 -5 20
-12 25 -12 8 -13 17 -10 93 l2 27 -12 11 c-9 8 -11 11 -11 17 0 13 -4 21 -13
29 -8 7 -9 9 -10 18 -2 17 -3 19 -11 24 -11 7 -13 13 -11 34 1 17 -1 29 -5 29
-1 0 -7 5 -14 12 -11 11 -12 11 -26 13 -20 2 -23 6 -21 30 1 24 0 26 -18 44
-43 39 -47 44 -47 54 0 11 -4 21 -10 25 -21 14 -56 54 -56 64 0 21 -26 46 -47
46 -16 0 -19 5 -19 33 1 32 0 33 -30 33 -27 0 -24 -2 -60 34 -29 30 -29 30
-42 31 -20 2 -62 45 -64 66 -2 17 -7 23 -21 23 -11 0 -16 2 -24 11 -7 8 -17
11 -32 10 -19 -2 -24 0 -41 17 -8 9 -22 23 -30 32 l-15 15 -24 1 c-23 1 -23 1
-33 12 -8 8 -11 10 -16 10 -15 0 -20 3 -38 22 -23 26 -13 24 -100 23 l-76 -2
-15 17 c-9 8 -18 18 -21 22 -6 5 -6 6 -29 6 -23 1 -23 1 -33 12 -7 7 -11 10
-15 10 -3 0 -44 0 -89 1 l-84 0 -10 11 -9 10 -199 0 -199 0 -9 -10z m364 -147
c3 -1 7 -5 9 -9 6 -9 10 -10 55 -10 l43 0 9 -10 c12 -11 12 -12 39 -12 19 -1
19 -1 28 -11 l9 -10 46 -1 46 -1 8 -8 c10 -12 14 -13 48 -13 l30 1 13 -13 c7
-8 15 -17 18 -21 8 -10 12 -10 22 0 11 12 15 12 26 0 8 -9 8 -9 29 -9 30 0 33
-2 35 -26 1 -14 5 -17 22 -19 11 -2 13 -2 21 -11 8 -9 11 -10 18 -10 13 0 18
-3 38 -24 l18 -19 24 -1 c31 -2 34 -4 34 -26 0 -12 27 -40 38 -40 12 0 21 -4
28 -12 6 -7 9 -8 16 -9 5 -1 11 -2 14 -2 13 -3 121 -117 122 -131 2 -16 5 -19
22 -21 20 -2 22 -5 22 -33 l0 -22 22 -22 c22 -22 22 -22 22 -33 0 -15 4 -19
21 -21 18 -2 23 -7 23 -21 0 -13 2 -15 21 -33 25 -23 23 -19 23 -44 0 -30 3
-34 26 -34 5 0 10 -2 13 -5 6 -5 6 -5 5 -57 -1 -38 0 -40 9 -46 9 -6 13 -13
13 -25 0 -9 1 -10 10 -19 10 -9 11 -10 12 -23 1 -13 2 -13 12 -23 l10 -10 0
-55 -1 -55 11 -10 11 -10 0 -141 c0 -155 1 -149 -12 -157 -12 -7 -12 -3 -10
-155 l2 -139 -19 -18 c-10 -10 -19 -18 -20 -18 -3 0 -8 -13 -8 -22 0 -8 -1
-10 -9 -17 -10 -10 -13 -16 -13 -28 0 -12 -5 -15 -22 -17 -17 -2 -22 -7 -22
-23 0 -10 -76 -93 -100 -109 -6 -4 -10 -14 -10 -25 0 -16 -46 -60 -65 -62 -16
-2 -21 -7 -21 -21 0 -17 -8 -24 -27 -24 -13 0 -39 -28 -39 -43 0 -18 -3 -21
-32 -21 -30 -1 -34 -4 -34 -23 0 -15 -5 -20 -22 -22 -12 -1 -12 -1 -44 -33
l-31 -32 -21 0 c-25 0 -24 0 -48 -24 -18 -19 -20 -20 -28 -20 -11 0 -16 -2
-25 -12 -8 -8 -10 -9 -21 -10 -11 -1 -13 -2 -23 -12 -9 -8 -12 -10 -18 -10
-10 0 -17 -3 -26 -13 -7 -7 -10 -9 -15 -9 -12 0 -20 -4 -29 -13 l-8 -9 -31 0
c-34 0 -37 -1 -49 -13 -6 -6 -10 -9 -14 -9 -3 0 -82 0 -176 -1 -194 0 -179 2
-179 -23 0 -33 -43 -33 -46 0 -2 18 -5 21 -21 23 -11 2 -13 2 -22 12 -16 16
-48 17 -63 1 -11 -12 -30 -10 -30 4 0 4 -13 6 -40 6 l-31 0 -9 -10 c-20 -21
-117 -22 -135 -1 l-9 10 -143 0 -143 0 -10 10 c-9 10 -10 11 -22 12 -12 1 -13
2 -21 10 -8 9 -17 13 -28 13 -4 0 -8 3 -16 11 l-11 10 -28 -1 c-39 0 -37 -1
-61 23 -20 20 -20 20 -32 22 -12 1 -13 2 -21 10 -9 9 -10 9 -23 11 -17 2 -21
6 -21 19 0 20 -25 47 -43 47 -11 0 -16 3 -36 23 l-19 20 -25 1 c-30 1 -33 3
-33 27 0 6 -1 9 -10 17 -10 10 -10 10 -10 33 l0 23 -15 15 c-9 8 -18 15 -20
15 -2 0 -13 1 -23 1 -29 0 -31 3 -30 33 l0 22 -28 28 c-16 15 -29 28 -30 28
-5 0 -8 12 -8 33 0 22 0 22 -10 31 -10 9 -11 10 -12 23 -1 13 -1 13 -17 27
-31 29 -28 20 -27 68 0 22 0 43 0 45 0 2 -5 8 -10 13 l-11 10 1 55 0 55 -10
10 c-13 12 -13 13 -12 66 1 55 1 56 -12 68 l-10 9 0 234 c-1 282 -2 248 11
260 l12 11 -1 29 c-2 35 -1 37 11 48 8 7 9 9 10 18 2 17 3 19 11 24 10 7 12
12 11 36 l0 21 15 14 c9 8 18 18 22 21 5 4 6 7 6 13 0 14 3 19 19 34 50 48 47
45 48 57 2 15 4 19 11 24 10 5 12 13 11 35 l-2 20 17 16 c14 14 17 16 23 16
16 0 18 2 50 33 29 29 31 31 39 32 16 2 17 3 32 17 15 14 15 14 16 28 2 20 3
21 33 22 l24 1 20 20 c20 21 20 21 33 23 11 1 13 2 21 10 8 8 17 12 28 12 6 0
30 21 40 36 4 5 15 8 36 8 17 0 17 0 27 10 10 10 10 10 34 10 30 1 32 3 32 22
0 22 1 23 56 23 54 0 54 0 54 21 0 16 4 21 20 23 13 2 15 3 25 13 7 7 10 8 16
8 59 0 58 0 68 11 10 10 15 11 22 4 11 -14 12 -15 24 -15 18 0 23 5 23 24 0
21 -4 20 86 20 l78 0 11 11 10 11 152 0 c127 0 152 0 157 -3z"/>
<path d="M2078 2290 c-10 -11 -10 -11 -29 -12 -28 0 -26 1 -53 -26 -28 -29
-28 -28 -28 -42 0 -10 -1 -11 -10 -20 -9 -8 -10 -11 -10 -17 0 -20 -6 -27 -23
-27 -19 0 -24 -7 -23 -31 1 -28 4 -22 -28 -51 l-16 -16 0 -20 c0 -22 -2 -28
-10 -32 -14 -8 -15 -21 -2 -29 11 -7 12 -10 12 -31 0 -18 3 -30 8 -30 2 0 14
-11 32 -28 6 -6 6 -6 6 -77 0 -82 0 -84 13 -92 8 -7 13 -15 13 -25 0 -5 -6
-20 -8 -20 -1 0 -12 -10 -24 -22 -34 -35 -42 -35 -72 -3 -21 23 -19 22 -45 23
-21 1 -21 1 -30 10 -9 10 -10 11 -26 13 -6 1 -11 4 -18 12 -11 10 -11 10 -34
11 l-23 1 -14 16 c-24 25 -25 27 -31 27 -3 0 -41 0 -84 0 -86 -1 -89 0 -98 11
-3 4 -7 8 -10 9 -5 3 -304 3 -310 0 -2 -1 -7 -6 -12 -11 -9 -10 -25 -12 -87
-11 l-32 1 -9 9 c-9 10 -11 11 -26 13 -13 2 -17 6 -17 20 0 25 3 24 -90 25
l-78 1 -16 -17 -16 -16 1 -35 c1 -42 0 -45 -25 -45 -12 0 -16 -5 -18 -21 -2
-21 -3 -22 -45 -20 -50 2 -46 7 -46 -67 0 -67 0 -68 19 -68 21 0 48 -23 48
-40 0 -21 5 -24 35 -24 24 0 24 0 34 -10 5 -6 22 -22 37 -36 29 -29 30 -30 30
-52 0 -27 -3 -32 -24 -34 -17 -2 -22 -7 -22 -22 0 -10 -1 -11 -11 -21 -11 -11
-11 -11 -11 -33 0 -28 -2 -31 -22 -33 -19 -2 -44 -25 -44 -40 0 -14 -3 -19
-22 -36 -9 -9 -20 -19 -24 -23 -5 -6 -9 -8 -13 -8 -16 0 -21 -2 -37 -18 l-16
-16 0 -43 c0 -49 0 -51 14 -60 4 -3 8 -6 8 -7 0 0 8 -8 17 -17 l18 -16 22 0
c28 0 33 -3 33 -19 0 -12 2 -17 13 -27 9 -8 9 -9 9 -19 0 -17 4 -21 21 -23 18
-2 21 -5 23 -22 1 -15 22 -41 35 -44 2 0 7 -1 12 -2 5 -1 10 -3 18 -11 l11
-10 55 0 56 0 8 9 c13 14 3 13 157 13 l140 1 10 -11 c10 -9 11 -10 23 -11 11
-1 13 -2 20 -10 10 -11 15 -13 38 -13 18 0 18 0 29 -11 l12 -11 109 0 110 0 8
-9 c13 -14 0 -13 191 -13 l175 0 9 10 10 11 35 1 35 1 9 10 c9 10 9 10 33 11
29 1 30 2 32 21 2 17 5 21 22 23 20 2 44 27 44 45 0 18 3 20 29 21 33 0 37 3
37 23 0 15 7 21 25 21 15 0 41 29 41 47 0 12 5 17 16 17 24 0 28 6 28 37 -1
25 1 29 17 29 19 0 27 7 27 24 0 8 1 11 5 15 19 17 17 4 17 117 -1 103 -1 103
-7 107 -11 8 -15 13 -15 19 0 13 -4 22 -12 27 -10 7 -13 14 -11 31 1 17 0 25
-7 31 -18 16 -16 9 -16 69 l0 55 -11 10 c-14 13 -13 8 -13 70 -1 71 -9 64 76
63 71 -1 69 0 81 -14 l8 -9 56 -1 55 0 9 9 c9 10 16 13 27 13 8 0 10 1 39 31
32 33 36 35 53 35 16 0 16 0 15 87 0 92 0 91 -24 91 -10 0 -13 2 -33 23 l-19
18 -42 0 c-23 0 -44 0 -46 1 -2 0 -15 12 -29 27 -14 14 -36 36 -48 48 -22 22
-22 23 -22 32 0 19 -23 45 -41 46 -16 2 -19 3 -22 9 -2 3 -3 9 -3 14 0 8 -5
20 -8 20 -1 0 -22 21 -41 40 -1 1 -10 9 -19 19 -36 35 -40 40 -40 51 0 22 -2
23 -45 24 l-35 1 -10 11 -9 10 -57 0 -56 0 -10 -10z m91 -132 c10 -9 10 -9 31
-11 29 -1 34 -4 34 -24 0 -13 5 -18 21 -20 19 -2 42 -26 45 -45 1 -13 1 -13
22 -34 17 -17 20 -21 20 -26 0 -20 4 -25 23 -27 16 -2 21 -7 22 -21 2 -14 4
-18 11 -23 8 -4 12 -14 12 -25 0 -11 5 -15 18 -17 24 -3 27 -6 26 -33 0 -21 1
-24 13 -35 13 -13 15 -34 3 -43 -7 -5 2 -5 -157 -3 -72 1 -133 1 -136 0 -10
-2 -10 -5 -10 -99 l1 -87 10 -9 c5 -5 10 -11 10 -13 0 -2 0 -18 0 -34 l0 -31
11 -11 12 -11 -2 -29 c-1 -35 0 -37 13 -49 l11 -10 -2 -40 c-1 -46 0 -51 12
-58 11 -7 11 -5 11 -99 l0 -87 -11 -11 c-10 -10 -11 -11 -11 -20 0 -9 -3 -19
-6 -19 -1 0 -7 -5 -14 -12 -11 -11 -12 -12 -21 -12 -17 0 -25 -6 -25 -19 0
-13 -3 -18 -17 -32 -13 -13 -15 -14 -31 -16 -8 -1 -10 -3 -28 -21 -11 -11 -22
-20 -25 -21 -2 0 -8 -1 -13 -2 -13 -1 -18 -8 -18 -22 0 -18 -5 -21 -29 -21
-23 0 -26 -1 -38 -13 l-8 -9 -32 0 c-35 0 -35 0 -48 -13 l-8 -9 -54 0 -53 0
-10 10 c-12 12 -14 12 -26 1 -11 -10 -14 -10 -22 1 -9 11 -4 10 -144 10 -151
-1 -138 -3 -140 22 -1 15 1 12 -27 40 -4 4 -5 4 -280 4 l-275 -1 -27 26 c-19
19 -27 28 -27 31 0 3 0 13 -1 24 0 22 -3 26 -19 26 -34 0 -36 28 -4 57 23 21
24 22 24 32 0 12 3 18 11 23 4 2 9 7 12 11 5 7 15 11 28 11 14 0 17 6 17 32
l0 23 15 14 c15 14 15 15 27 16 28 3 26 -6 25 110 -1 103 -2 104 -12 111 -6 4
-11 9 -35 32 -5 5 -20 19 -33 31 -13 12 -28 26 -33 31 -5 5 -12 11 -15 14 -21
14 -13 47 13 50 16 2 18 5 20 21 3 27 15 28 37 4 9 -10 20 -22 24 -26 4 -4 10
-10 12 -13 8 -10 11 -11 70 -12 70 -3 70 -3 82 10 l9 10 34 0 c34 1 34 1 42 9
12 14 5 13 134 13 l119 0 9 -10 c13 -13 12 -13 93 -11 79 1 72 2 96 -22 19
-20 19 -20 32 -21 20 -3 23 -8 21 -33 -3 -33 0 -35 44 -35 42 0 42 0 44 -22 2
-23 -4 -22 86 -22 84 0 80 -1 93 13 7 7 10 9 16 9 10 0 17 3 26 13 7 7 10 9
15 9 23 0 50 27 50 49 0 9 1 10 21 30 17 16 21 22 21 26 0 3 0 33 0 67 l0 61
11 10 c22 20 19 29 -26 68 -7 6 -7 6 -7 49 0 46 -1 50 -12 56 -18 12 -17 59 1
70 9 5 10 9 10 34 0 20 0 20 10 29 9 9 13 16 13 30 0 4 5 10 26 31 26 26 32
30 45 30 4 0 8 2 14 9 7 8 11 10 15 11 1 0 7 -4 13 -10z m367 -340 c10 -8 8
-24 -4 -28 -15 -5 -33 -1 -37 8 -6 15 3 24 23 24 10 0 15 -1 18 -4z"/>
<path d="M2161 2035 c-10 -2 -14 -8 -16 -22 -1 -11 -2 -13 -10 -20 -22 -20
-18 -89 4 -89 11 0 20 -4 28 -13 8 -9 8 -9 32 -9 l23 0 17 16 c18 18 17 12 15
61 0 22 0 22 -9 30 -10 10 -13 15 -13 24 0 8 -4 18 -9 20 -4 1 -55 3 -62 2z"/>
</g>
</svg>
