<?xml version="1.0" standalone="no"?>
<!DOCTYPE svg PUBLIC "-//W3C//DTD SVG 20010904//EN"
 "http://www.w3.org/TR/2001/REC-SVG-20010904/DTD/svg10.dtd">
<svg version="1.0" xmlns="http://www.w3.org/2000/svg"
 width="100.000000pt" height="90.000000pt" viewBox="0 0 100.000000 90.000000"
 preserveAspectRatio="xMidYMid meet">
<metadata>
Created by potrace 1.16, written by Peter Selinger 2001-2019
</metadata>
<g transform="translate(0.000000,90.000000) scale(0.100000,-0.100000)"
fill="#000000" stroke="none">
<path d="M360 850 c-112 -24 -255 -121 -295 -201 -23 -45 -25 -59 -25 -194 0
-145 0 -147 33 -218 70 -150 192 -203 454 -195 124 3 130 4 193 38 74 40 180
141 212 203 32 62 32 219 0 299 -45 113 -159 221 -265 253 -64 19 -246 28
-307 15z m211 -55 c111 -14 239 -107 292 -214 24 -49 27 -66 27 -153 0 -66 -5
-108 -14 -127 -22 -42 -140 -148 -198 -177 -50 -25 -55 -26 -213 -22 l-161 3
-57 35 c-66 39 -114 95 -135 154 -8 23 -17 89 -19 148 -6 103 -5 109 23 164
15 31 43 68 61 83 52 42 175 100 234 109 53 8 69 8 160 -3z"/>
<path d="M602 683 c-7 -3 -22 -23 -33 -45 -18 -36 -19 -46 -9 -84 16 -57 8
-68 -38 -47 -21 9 -80 20 -137 24 -55 4 -112 10 -126 14 -21 6 -32 1 -58 -27
-37 -40 -38 -51 -6 -76 32 -26 32 -41 -5 -87 -16 -21 -30 -41 -30 -44 1 -3 16
-24 35 -45 33 -38 37 -39 102 -41 38 -1 109 -7 158 -14 110 -16 158 -6 214 45
57 50 66 80 47 145 -25 83 -23 89 27 89 72 0 102 53 50 87 -15 10 -48 39 -73
66 -45 46 -77 57 -118 40z m92 -83 c47 -52 47 -70 1 -70 -47 0 -51 -14 -35
-113 l13 -80 -42 -39 -42 -39 -84 5 c-47 3 -123 9 -169 12 -106 7 -119 19 -82
72 31 46 33 66 5 100 l-21 27 108 3 c101 3 109 1 143 -23 21 -14 45 -25 55
-25 50 0 79 52 70 124 -7 46 8 86 30 86 8 0 30 -18 50 -40z"/>
</g>
</svg>
