<?xml version="1.0" standalone="no"?>
<!DOCTYPE svg PUBLIC "-//W3C//DTD SVG 20010904//EN"
 "http://www.w3.org/TR/2001/REC-SVG-20010904/DTD/svg10.dtd">
<svg version="1.0" xmlns="http://www.w3.org/2000/svg"
 width="47.000000pt" height="100.000000pt" viewBox="0 0 47.000000 100.000000"
 preserveAspectRatio="xMidYMid meet">
<metadata>
Created by potrace 1.16, written by Peter Selinger 2001-2019
</metadata>
<g transform="translate(0.000000,100.000000) scale(0.100000,-0.100000)"
fill="#000000" stroke="none">
<path d="M84 945 c-4 -10 18 -37 65 -81 39 -36 71 -69 71 -74 0 -4 -38 -10
-85 -12 -85 -4 -114 -15 -100 -38 6 -9 31 -11 95 -6 77 7 88 5 94 -10 9 -25
-10 -34 -74 -34 -74 0 -100 -8 -100 -31 0 -15 7 -19 38 -19 20 0 57 5 81 11
24 5 48 6 52 2 4 -4 10 -40 14 -80 l7 -72 -78 -3 c-63 -2 -79 -6 -82 -19 -4
-24 20 -29 89 -18 38 6 66 6 71 1 16 -16 -12 -27 -82 -32 -57 -4 -65 -8 -65
-25 0 -22 12 -24 107 -11 l57 8 21 -33 c25 -41 22 -58 -30 -143 -70 -116 -88
-186 -48 -194 12 -2 26 16 51 70 18 41 55 106 81 146 27 40 57 99 67 131 16
53 16 65 4 126 -8 37 -26 104 -40 150 -14 46 -25 89 -25 97 0 8 20 34 45 58
34 34 45 51 43 70 -3 25 -4 25 -123 30 -106 4 -124 8 -149 28 -33 25 -64 29
-72 7z"/>
</g>
</svg>
