<?xml version="1.0" standalone="no"?>
<!DOCTYPE svg PUBLIC "-//W3C//DTD SVG 20010904//EN"
 "http://www.w3.org/TR/2001/REC-SVG-20010904/DTD/svg10.dtd">
<svg version="1.0" xmlns="http://www.w3.org/2000/svg"
 width="700.000000pt" height="1500.000000pt" viewBox="0 0 700.000000 1500.000000"
 preserveAspectRatio="xMidYMid meet">
<metadata>
Created by potrace 1.16, written by Peter Selinger 2001-2019
</metadata>
<g transform="translate(0.000000,1500.000000) scale(0.500000,-0.500000)"
fill="#000000" stroke="none">
<path d="M309 2872 c-34 -8 -60 -56 -47 -84 10 -22 40 -46 70 -56 15 -5 26
-11 41 -24 6 -4 14 -10 20 -12 7 -2 16 -9 34 -25 32 -30 33 -31 42 -56 7 -21
7 -21 26 -42 13 -13 22 -25 26 -33 6 -12 46 -52 88 -88 4 -4 10 -12 13 -18 5
-10 15 -21 44 -48 29 -27 14 -50 -30 -47 -41 3 -48 2 -65 -4 -15 -5 -15 -5
-46 -3 -94 6 -97 6 -115 -3 -13 -7 -135 -12 -144 -6 -5 3 -21 -2 -30 -9 l-11
-8 -43 1 c-59 2 -57 4 -58 -48 -1 -63 -26 -57 197 -50 16 0 17 0 29 9 l13 8
73 0 c57 0 75 1 80 3 4 1 13 5 20 8 11 5 16 5 50 7 48 3 50 2 57 -27 3 -11 5
-15 13 -22 28 -27 32 -98 6 -111 -26 -13 -34 -14 -79 -12 -87 5 -98 4 -114 -5
l-14 -8 -81 1 -81 0 -11 -7 c-14 -10 -14 -9 -55 -7 -57 4 -59 2 -59 -53 0 -55
-6 -51 99 -49 89 1 79 0 104 15 8 5 8 5 80 5 78 0 83 1 99 10 10 7 11 7 43 8
17 1 39 3 47 4 46 6 52 -1 48 -65 -1 -20 -3 -58 -3 -85 l-2 -50 8 -12 c8 -13
11 -27 11 -55 0 -17 2 -23 11 -34 7 -9 6 4 9 -139 1 -47 10 -44 -118 -38 -46
2 -47 2 -62 -9 l-9 -7 -73 1 -73 2 -16 -8 c-16 -7 -16 -7 -47 -4 -59 7 -67 -1
-66 -59 2 -51 -3 -49 106 -45 74 2 74 2 88 12 l13 8 70 1 c70 1 70 1 81 7 27
14 24 14 63 16 56 2 60 -1 61 -48 2 -72 1 -72 -86 -69 l-60 2 -17 -8 -16 -8
-71 0 c-71 1 -71 1 -85 -6 -18 -8 -25 -9 -58 -5 -48 5 -53 0 -55 -51 -1 -48 5
-56 42 -53 10 1 45 2 79 3 60 1 60 1 69 8 5 4 10 8 12 9 2 1 36 2 76 3 79 1
74 0 91 13 6 4 10 5 36 6 17 1 35 2 42 3 30 5 52 -11 55 -40 1 -14 6 -25 24
-45 4 -5 11 -15 14 -22 4 -8 8 -14 15 -20 5 -4 15 -17 24 -30 11 -16 18 -25
27 -32 16 -13 21 -23 20 -38 0 -3 -4 -8 -8 -13 -16 -16 -24 -37 -26 -67 -1
-23 -2 -28 -8 -39 -4 -10 -6 -16 -6 -24 0 -11 -1 -15 -12 -40 -8 -19 -13 -25
-43 -52 -13 -13 -26 -26 -29 -30 -15 -24 -20 -32 -25 -43 -3 -7 -8 -18 -12
-26 -4 -8 -7 -15 -7 -16 0 -1 -3 -6 -7 -12 -4 -6 -7 -12 -7 -16 0 -13 -3 -19
-13 -32 -6 -7 -14 -18 -16 -25 -3 -6 -8 -14 -11 -18 -3 -4 -7 -11 -9 -17 -2
-6 -8 -15 -14 -21 -6 -6 -12 -16 -14 -21 -2 -6 -6 -14 -9 -19 -3 -5 -6 -10 -6
-11 0 -1 -3 -7 -8 -15 -5 -8 -8 -16 -9 -23 0 -6 -3 -15 -6 -20 -3 -6 -6 -16
-7 -23 -1 -10 -3 -16 -9 -24 -4 -5 -8 -13 -9 -17 -1 -5 -6 -14 -10 -22 -5 -8
-9 -19 -10 -26 -1 -6 -4 -16 -7 -22 -20 -46 1 -125 37 -135 46 -13 88 17 89
62 0 16 1 19 7 28 3 7 6 14 6 18 0 12 4 23 10 33 3 5 8 16 11 25 3 8 9 21 14
29 5 7 10 18 12 23 3 9 8 15 21 28 19 20 22 24 24 41 1 10 3 15 8 22 3 4 8 13
11 20 2 6 9 15 14 21 11 12 13 17 13 38 0 18 0 18 11 30 6 7 14 19 18 27 6 10
15 21 34 42 21 21 29 31 33 41 5 9 11 17 20 26 17 17 24 29 25 43 1 7 4 17 6
22 3 6 5 14 5 19 0 11 3 16 24 39 11 11 18 21 22 30 5 11 11 18 40 47 36 35
36 36 40 60 2 15 8 27 28 54 6 8 14 19 16 24 3 5 7 12 10 16 4 6 5 9 6 30 1
21 1 24 7 33 14 22 16 26 20 44 3 10 7 23 10 27 3 5 7 18 10 28 3 10 7 24 10
30 5 12 5 12 5 109 l-1 98 -7 10 c-7 9 -7 10 -8 31 -1 19 -2 23 -6 29 -14 19
-13 12 -13 67 0 53 -1 57 -21 90 -4 5 -5 11 -6 26 -1 17 -2 21 -9 34 -7 13 -8
17 -9 32 -1 17 -2 19 -15 45 -13 26 -14 29 -15 45 -1 13 -3 20 -8 31 -3 8 -7
20 -8 26 -1 7 -6 18 -10 26 -8 15 -8 15 -7 45 2 33 1 37 -15 58 -7 9 -9 14
-11 28 -2 12 -5 20 -10 29 -7 11 -8 14 -9 31 -1 17 -2 21 -9 33 -7 13 -7 15
-7 33 0 32 -1 34 -24 56 -25 25 -26 27 -8 45 13 13 15 17 17 37 1 16 3 19 24
34 12 8 39 33 84 76 60 58 66 64 76 67 17 5 36 22 45 39 4 8 10 17 13 20 24
29 13 138 -18 166 -26 25 -28 26 -42 27 -44 0 -145 -4 -151 -6 -4 -1 -12 -4
-18 -7 -11 -4 -16 -4 -205 -4 l-194 -1 -17 7 c-16 6 -17 6 -36 5 -18 -1 -19
-1 -27 4 -4 3 -14 9 -22 12 -13 7 -17 10 -38 33 -23 25 -26 28 -45 36 -6 2
-13 6 -17 10 -5 3 -14 8 -20 11 -7 2 -19 8 -27 13 -18 11 -53 15 -75 10z m768
-290 c18 -10 -17 -59 -50 -69 -10 -3 -14 -7 -39 -33 -24 -23 -31 -29 -42 -34
-7 -4 -16 -8 -19 -11 -12 -9 -26 -10 -39 -3 -3 1 -23 20 -44 41 -21 21 -47 45
-56 54 -19 17 -21 21 -15 33 4 9 12 10 48 10 32 -1 32 -1 45 7 l13 8 85 1 c97
1 105 1 113 -4z m-95 -1026 c4 -9 8 -19 8 -22 0 -3 1 -6 2 -7 1 -1 2 -3 2 -6
0 -3 1 -5 2 -6 1 -1 2 -3 2 -6 0 -3 1 -5 2 -6 1 -1 2 -25 2 -66 0 -41 1 -65 2
-66 1 -1 2 -3 2 -6 0 -3 1 -5 2 -6 1 -1 2 -4 2 -8 0 -4 -1 -7 -2 -8 -1 -1 -2
-4 -2 -8 0 -7 0 -7 -30 -7 -32 0 -40 2 -40 11 0 1 -2 4 -4 6 -2 2 -4 6 -4 10
0 4 -2 8 -4 10 -2 2 -4 5 -4 7 0 2 -3 9 -6 15 -3 6 -6 13 -6 15 0 2 -1 4 -2 5
-1 1 -2 24 -2 62 0 38 1 61 2 62 1 1 2 4 2 8 0 4 1 7 2 8 1 1 2 3 2 6 0 3 1 5
2 6 1 1 2 4 2 8 0 7 0 7 29 7 l28 0 9 -18z"/>
</g>
</svg>
