<?xml version="1.0" standalone="no"?>
<!DOCTYPE svg PUBLIC "-//W3C//DTD SVG 20010904//EN"
 "http://www.w3.org/TR/2001/REC-SVG-20010904/DTD/svg10.dtd">
<svg version="1.0" xmlns="http://www.w3.org/2000/svg"
 width="810.000000pt" height="1500.000000pt" viewBox="0 0 810.000000 1500.000000"
 preserveAspectRatio="xMidYMid meet">
<metadata>
Created by potrace 1.16, written by Peter Selinger 2001-2019
</metadata>
<g transform="translate(0.000000,1500.000000) scale(0.500000,-0.500000)"
fill="#000000" stroke="none">
<path d="M904 2852 c-14 -4 -26 -20 -34 -44 -2 -7 -6 -16 -9 -20 -9 -15 -11
-20 -13 -40 -1 -19 -2 -21 -10 -32 -5 -7 -9 -16 -10 -22 -1 -6 -6 -18 -11 -26
-8 -16 -8 -16 -9 -52 -2 -51 -11 -89 -29 -124 -10 -20 -33 -89 -35 -104 -3
-30 -11 -37 -29 -25 -8 6 -12 13 -15 27 -2 6 -5 14 -11 22 -6 8 -11 18 -16 32
-10 32 -21 56 -30 69 -7 11 -14 26 -27 59 -4 8 -9 19 -12 25 -4 5 -9 16 -11
23 -5 12 -24 41 -34 50 -5 5 -10 14 -13 27 -1 5 -9 17 -18 29 -8 12 -18 26
-21 31 -3 6 -8 13 -10 16 -3 3 -7 11 -10 18 -11 25 -32 29 -54 9 -4 -3 -13
-10 -21 -15 -8 -5 -15 -12 -18 -17 -12 -19 -14 -21 -27 -29 -16 -9 -36 -24
-62 -47 -9 -7 -20 -16 -25 -18 -4 -2 -12 -7 -17 -12 -5 -4 -13 -10 -19 -13
-19 -11 -19 -32 0 -51 10 -10 19 -25 21 -36 2 -11 18 -43 26 -51 3 -5 8 -12
11 -17 2 -5 7 -13 11 -17 9 -11 10 -14 13 -28 1 -7 5 -16 9 -22 4 -6 8 -15 9
-20 3 -12 7 -20 14 -29 3 -4 7 -12 9 -17 3 -13 5 -17 14 -28 4 -5 8 -15 11
-23 2 -9 8 -21 14 -30 6 -8 11 -19 13 -24 2 -5 8 -16 15 -24 6 -8 13 -19 15
-24 2 -5 9 -20 16 -34 12 -25 12 -26 14 -46 1 -12 3 -29 5 -39 5 -23 3 -30
-18 -62 -9 -14 -19 -32 -22 -41 -4 -8 -11 -25 -17 -37 -10 -20 -11 -24 -13
-41 -1 -14 -3 -22 -7 -30 -3 -6 -5 -15 -5 -19 0 -4 -1 -13 -3 -20 -7 -29 -3
-214 5 -232 2 -6 7 -16 9 -24 3 -8 9 -19 13 -25 4 -6 10 -17 13 -23 2 -7 8
-18 13 -25 11 -16 17 -30 20 -46 4 -18 13 -32 26 -39 16 -9 37 -31 46 -49 7
-15 7 -15 21 -22 8 -4 23 -13 34 -20 26 -18 28 -18 70 -20 20 -1 39 -3 43 -4
9 -4 17 -2 44 12 14 6 28 12 32 13 5 1 13 5 20 10 14 11 19 13 37 14 19 2 24
5 36 22 8 14 27 32 45 44 11 8 16 19 18 40 1 9 3 22 5 29 3 9 3 17 2 29 -1 14
0 17 6 37 9 30 11 172 2 195 -2 6 -7 19 -9 28 -2 9 -8 25 -13 36 -10 19 -10
19 -8 37 1 15 1 19 -4 34 -3 9 -6 25 -7 36 -1 16 -3 22 -8 31 -20 37 -13 77
21 113 13 14 16 19 20 40 2 9 5 22 8 29 2 6 6 17 7 23 2 9 5 13 18 26 23 23
27 32 39 78 2 7 7 23 12 35 5 12 13 31 17 43 4 11 10 23 12 27 2 3 7 18 11 32
6 20 10 29 17 39 11 17 17 30 20 44 5 28 9 40 17 58 5 11 10 26 12 34 2 8 7
22 11 31 7 14 8 19 9 33 1 14 3 20 10 34 9 19 10 29 4 36 -9 10 -47 37 -64 46
-5 2 -14 8 -22 14 -7 5 -15 10 -16 10 -1 0 -10 4 -19 8 -11 5 -21 9 -31 10
-39 6 -58 15 -77 39 -11 14 -23 18 -42 13z m85 -122 c25 -12 36 -17 49 -19 39
-8 59 -36 42 -58 -10 -11 -12 -20 -12 -43 0 -25 -2 -33 -11 -47 -4 -6 -9 -15
-11 -21 -2 -5 -7 -15 -11 -20 -4 -6 -9 -15 -11 -21 -2 -6 -7 -16 -11 -23 -5
-11 -7 -16 -8 -33 -1 -21 -4 -27 -14 -40 -5 -6 -8 -12 -11 -26 -2 -10 -6 -23
-9 -29 -3 -6 -8 -17 -10 -24 -3 -6 -8 -18 -11 -24 -4 -7 -8 -21 -10 -33 -3
-15 -6 -23 -12 -33 -4 -7 -10 -19 -12 -26 -3 -7 -8 -17 -15 -25 -14 -17 -20
-33 -23 -56 -6 -50 -37 -65 -54 -26 -23 54 -33 72 -50 88 -10 10 -12 17 -12
42 0 34 1 38 22 61 24 27 38 68 38 108 0 13 3 20 18 42 12 18 21 43 26 76 1 6
3 14 5 19 6 13 11 40 13 62 3 41 25 95 53 131 14 18 11 18 52 -2z m-545 -27
c4 -3 8 -12 36 -69 8 -16 12 -23 31 -49 12 -15 21 -33 29 -57 7 -22 16 -37 33
-56 14 -16 27 -42 35 -73 4 -14 9 -26 13 -32 4 -6 10 -16 13 -23 4 -7 9 -16
12 -20 3 -3 8 -11 11 -17 3 -5 9 -15 13 -21 21 -29 17 -42 -22 -80 -19 -19
-31 -32 -35 -40 -13 -23 -33 -21 -46 5 -3 5 -9 13 -13 18 -5 6 -10 13 -12 20
-6 19 -23 60 -29 69 -3 4 -7 13 -9 19 -3 7 -8 17 -12 24 -3 6 -8 17 -10 24 -2
6 -7 16 -11 22 -4 6 -9 17 -11 25 -4 16 -21 54 -34 74 -4 7 -9 17 -10 24 -1 6
-6 17 -10 25 -4 8 -9 21 -11 28 -4 19 -16 45 -26 61 -15 22 -14 26 19 57 12
12 24 25 26 29 8 16 19 20 30 13z m267 -685 c16 -4 24 -16 31 -44 3 -12 7 -20
13 -29 7 -11 9 -16 12 -30 2 -10 6 -27 10 -39 4 -12 9 -29 12 -38 3 -9 8 -23
12 -32 17 -39 20 -210 5 -255 -2 -7 -4 -15 -4 -19 0 -42 -82 -94 -125 -78 -18
7 -61 53 -68 74 -3 7 -9 17 -20 29 -8 10 -17 20 -18 22 -6 9 -6 249 0 273 3
10 5 23 5 28 0 12 2 16 19 41 8 12 13 21 15 29 10 46 59 78 101 68z"/>
<path d="M1026 1357 c-3 -1 -13 -2 -23 -4 -10 -2 -25 -4 -33 -5 -20 -2 -49
-15 -79 -35 -24 -16 -28 -17 -41 -11 -16 7 -34 5 -44 -5 -10 -10 -46 -17 -81
-17 -24 0 -32 -3 -49 -22 -19 -20 -20 -23 -20 -35 0 -6 -2 -17 -4 -25 -5 -18
-5 -41 -1 -56 5 -15 3 -29 -4 -41 -18 -28 -16 -18 -15 -96 0 -71 0 -71 -6 -86
-4 -9 -6 -19 -6 -25 0 -5 -2 -16 -5 -25 -4 -13 -5 -21 -6 -42 -1 -17 -2 -32
-5 -45 -6 -26 -8 -85 -3 -102 6 -18 5 -27 -4 -47 -8 -18 -8 -19 -8 -43 0 -44
-21 -74 -58 -85 -36 -11 -64 -29 -75 -48 -9 -15 -28 -30 -46 -35 -17 -6 -49
-23 -54 -30 -2 -3 -6 -10 -9 -15 -10 -20 -17 -24 -55 -28 -27 -3 -43 -10 -65
-28 -14 -11 -19 -14 -29 -16 -4 -1 -13 -4 -19 -8 -7 -4 -19 -9 -26 -11 -48
-14 -41 -87 9 -94 39 -6 74 -1 97 13 14 8 34 16 47 18 12 2 19 6 28 19 13 18
28 31 42 35 20 6 28 9 37 17 6 5 14 9 21 11 8 2 15 6 21 11 12 10 16 12 29 12
18 0 49 17 61 34 8 11 13 13 38 19 11 2 20 6 37 16 45 28 47 29 52 41 3 6 10
21 16 33 14 28 15 41 7 66 -6 17 -6 17 -1 27 4 10 5 14 6 58 1 43 1 48 6 57 2
6 5 15 6 22 1 6 4 14 6 18 2 5 3 13 4 43 1 34 2 38 6 47 5 10 7 36 9 110 0 13
2 42 3 65 2 23 3 65 3 95 0 78 7 92 48 95 33 3 48 7 63 20 16 13 11 12 116 32
49 10 88 7 111 -7 11 -6 21 -10 31 -12 15 -4 15 -4 37 -25 23 -22 42 -35 60
-41 6 -2 15 -7 21 -11 18 -14 26 -18 40 -21 17 -4 32 -13 42 -25 42 -50 110
-48 136 4 4 8 10 17 12 19 25 22 14 67 -19 78 -8 2 -19 8 -25 12 -12 8 -23 11
-55 13 -39 3 -59 10 -72 25 -4 5 -13 13 -21 18 -7 5 -22 15 -32 22 -14 10 -22
13 -30 15 -14 3 -19 5 -29 13 -4 4 -13 9 -18 12 -6 2 -14 8 -19 12 -5 4 -13 8
-20 10 -6 2 -17 6 -25 8 -8 3 -18 7 -24 9 -9 4 -30 5 -45 3z"/>
<path d="M930 1176 c-12 -3 -13 -6 -10 -21 4 -23 1 -159 -5 -172 -3 -8 -4 -16
-5 -42 -1 -30 -2 -33 -7 -44 -6 -12 -6 -12 -5 -75 0 -58 0 -64 -4 -82 -4 -19
-4 -19 0 -38 7 -28 5 -44 -12 -86 -4 -10 -4 -11 -2 -68 2 -31 3 -68 3 -81 0
-17 1 -28 4 -37 5 -18 3 -24 -14 -28 -39 -11 -54 -16 -59 -21 -5 -5 -22 -15
-47 -27 -7 -4 -22 -8 -36 -11 -19 -3 -29 -7 -46 -15 -14 -7 -28 -11 -40 -14
-28 -6 -44 -14 -67 -36 -14 -13 2 -65 26 -83 11 -9 13 -12 18 -27 7 -23 35
-27 62 -7 5 4 15 9 22 12 7 3 19 9 27 12 7 4 20 9 28 10 8 2 18 5 22 7 4 3 15
8 24 13 9 4 22 11 29 15 7 4 20 10 29 13 9 3 20 8 26 10 7 4 15 6 27 7 9 1 22
3 28 6 6 2 14 4 18 5 35 7 48 32 49 90 0 38 0 38 8 54 10 21 10 27 5 43 -4 12
-4 12 0 27 6 21 5 66 -2 83 -5 12 -4 17 11 59 4 9 5 17 5 28 0 8 1 18 3 23 8
22 9 29 7 121 -1 48 -3 108 -4 131 -2 47 -1 57 8 62 10 5 32 0 47 -11 6 -4 15
-10 21 -13 6 -4 16 -11 22 -16 19 -16 30 -24 41 -27 16 -6 28 -12 51 -29 35
-24 32 -25 87 12 8 5 13 14 17 28 1 5 5 14 8 19 12 21 9 26 -28 45 -33 18 -57
31 -64 36 -2 2 -12 7 -20 10 -9 3 -23 11 -31 16 -8 5 -19 13 -26 16 -6 4 -17
12 -24 18 -7 7 -16 13 -20 15 -4 2 -12 7 -18 11 -12 9 -16 11 -38 15 -9 2 -25
6 -34 9 -26 9 -57 18 -63 18 -2 0 -10 3 -17 6 -14 7 -25 9 -35 6z"/>
</g>
</svg>
