<?xml version="1.0" standalone="no"?>
<!DOCTYPE svg PUBLIC "-//W3C//DTD SVG 20010904//EN"
 "http://www.w3.org/TR/2001/REC-SVG-20010904/DTD/svg10.dtd">
<svg version="1.0" xmlns="http://www.w3.org/2000/svg"
 width="54.000000pt" height="100.000000pt" viewBox="0 0 54.000000 100.000000"
 preserveAspectRatio="xMidYMid meet">
<metadata>
Created by potrace 1.16, written by Peter Selinger 2001-2019
</metadata>
<g transform="translate(0.000000,100.000000) scale(0.100000,-0.100000)"
fill="#000000" stroke="none">
<path d="M270 898 c-18 -81 -21 -88 -31 -88 -6 0 -21 24 -33 53 -39 86 -60 92
-114 34 l-24 -25 42 -81 c35 -66 41 -87 35 -114 -15 -70 -17 -139 -5 -168 7
-16 28 -43 47 -58 l35 -29 -11 -53 c-6 -30 -13 -82 -17 -116 -7 -70 -12 -77
-99 -125 -61 -35 -73 -53 -44 -71 13 -8 33 -1 87 32 39 23 76 48 81 55 6 7 16
62 22 122 7 79 15 112 27 122 27 20 93 15 133 -12 46 -31 69 -35 82 -14 12 19
-6 48 -30 48 -7 0 -32 9 -54 21 -32 16 -50 19 -82 14 l-40 -7 23 36 c20 34 22
45 16 119 -7 81 -6 84 33 172 52 116 53 146 6 168 -60 29 -71 24 -85 -35z m72
-32 c-4 -39 -52 -156 -63 -156 -28 0 -21 50 23 163 15 38 44 32 40 -7z m-161
-37 c37 -60 45 -94 24 -103 -12 -4 -22 7 -40 47 -50 110 -39 147 16 56z m68
-187 c7 -16 11 -55 9 -88 -2 -49 -6 -59 -22 -62 -28 -6 -46 25 -46 79 0 86 35
128 59 71z"/>
<path d="M309 378 c0 -2 -6 -57 -12 -123 l-12 -120 -47 -23 c-76 -36 -56 -78
24 -51 72 24 77 32 84 152 4 59 9 107 11 107 2 0 18 -7 34 -16 34 -17 59 -13
59 11 0 21 -135 81 -141 63z"/>
</g>
</svg>
