<?xml version="1.0" standalone="no"?>
<!DOCTYPE svg PUBLIC "-//W3C//DTD SVG 20010904//EN"
 "http://www.w3.org/TR/2001/REC-SVG-20010904/DTD/svg10.dtd">
<svg version="1.0" xmlns="http://www.w3.org/2000/svg"
 width="95.000000pt" height="100.000000pt" viewBox="0 0 95.000000 100.000000"
 preserveAspectRatio="xMidYMid meet">
<metadata>
Created by potrace 1.16, written by Peter Selinger 2001-2019
</metadata>
<g transform="translate(0.000000,100.000000) scale(0.100000,-0.100000)"
fill="#000000" stroke="none">
<path d="M231 916 c-10 -11 6 -41 85 -160 100 -152 104 -165 70 -211 -13 -18
-16 -18 -30 -5 -8 8 -59 85 -113 170 -84 132 -102 155 -123 155 -48 0 -33 -36
94 -228 l124 -187 -5 -98 -6 -98 33 -37 c17 -20 38 -37 45 -37 23 0 45 -30 45
-63 0 -61 -2 -61 211 -48 107 7 200 14 207 16 6 3 12 13 12 23 0 36 -19 39
-189 30 -90 -5 -170 -7 -177 -4 -21 8 -17 50 12 103 14 26 28 51 32 55 4 4 76
14 161 23 85 9 158 18 163 21 11 7 10 51 -1 59 -5 3 -64 -2 -131 -10 -67 -9
-136 -15 -153 -13 -30 3 -32 5 -37 53 -6 55 -51 140 -195 370 -82 131 -107
154 -134 121z m256 -422 c33 -74 41 -159 18 -205 -37 -72 -66 -86 -101 -48
-16 18 -19 36 -19 118 1 79 5 104 24 144 12 26 29 47 37 47 9 0 27 -25 41 -56z"/>
</g>
</svg>
