<?xml version="1.0" standalone="no"?>
<!DOCTYPE svg PUBLIC "-//W3C//DTD SVG 20010904//EN"
 "http://www.w3.org/TR/2001/REC-SVG-20010904/DTD/svg10.dtd">
<svg version="1.0" xmlns="http://www.w3.org/2000/svg"
 width="1424.000000pt" height="1500.000000pt" viewBox="0 0 1424.000000 1500.000000"
 preserveAspectRatio="xMidYMid meet">
<metadata>
Created by potrace 1.16, written by Peter Selinger 2001-2019
</metadata>
<g transform="translate(0.000000,1500.000000) scale(0.500000,-0.500000)"
fill="#000000" stroke="none">
<path d="M796 2803 c-10 -5 -14 -9 -15 -17 -3 -19 -7 -22 -33 -24 -10 -1 -17
-2 -20 -5 -20 -14 -18 -13 -32 -12 -29 3 -36 -20 -11 -38 5 -3 9 -9 12 -16 5
-11 17 -26 34 -42 8 -8 11 -12 12 -19 1 -4 4 -12 8 -18 4 -5 10 -15 13 -22 4
-8 11 -18 20 -27 11 -12 14 -16 16 -25 2 -8 5 -13 15 -24 7 -7 15 -18 17 -23
5 -12 22 -34 31 -41 7 -6 10 -12 12 -26 1 -5 4 -11 9 -17 5 -5 10 -14 12 -20
3 -8 7 -15 15 -23 7 -7 11 -14 12 -18 2 -11 6 -16 21 -33 11 -13 16 -21 29
-47 13 -26 18 -34 31 -49 13 -14 17 -20 19 -29 3 -8 6 -14 15 -23 8 -8 12 -15
14 -21 1 -5 6 -14 10 -19 7 -9 9 -13 13 -30 1 -3 6 -10 11 -15 15 -15 23 -26
30 -40 3 -7 11 -18 18 -25 8 -9 12 -14 14 -21 4 -18 24 -52 38 -67 11 -11 14
-17 17 -25 1 -6 5 -13 7 -15 6 -6 29 -33 33 -39 1 -3 5 -12 8 -22 6 -17 6 -18
22 -21 23 -5 2 -39 -33 -53 -20 -8 -27 -14 -35 -31 -4 -8 -10 -18 -13 -23 -5
-8 -7 -13 -8 -27 -2 -17 -7 -30 -15 -37 -2 -1 -5 -10 -8 -20 -3 -9 -9 -23 -13
-30 -9 -16 -12 -22 -12 -31 0 -27 -39 -14 -46 16 -3 13 -6 19 -17 29 -6 6 -13
16 -19 28 -5 10 -14 24 -20 31 -11 13 -15 18 -18 31 -1 5 -6 12 -14 21 -9 9
-13 16 -16 24 -3 9 -8 16 -23 32 -17 19 -19 21 -21 32 -1 8 -5 17 -10 25 -5 7
-10 16 -12 21 -2 4 -8 12 -13 16 -9 7 -10 11 -14 28 -1 3 -8 12 -17 22 -12 12
-18 21 -23 31 -4 10 -10 18 -17 25 -11 11 -17 20 -19 32 -1 5 -5 11 -13 20 -6
6 -14 18 -18 25 -7 15 -22 34 -29 39 -6 4 -10 12 -12 23 -1 7 -4 11 -13 21
-13 14 -21 25 -29 41 -3 6 -10 16 -16 22 -9 9 -11 13 -12 21 -1 9 -3 12 -17
26 -10 11 -18 21 -23 30 -3 8 -9 18 -12 23 -2 5 -6 13 -7 18 -2 5 -7 13 -12
19 -11 12 -20 24 -28 40 -3 7 -9 16 -14 20 -10 9 -13 15 -15 25 -1 6 -6 13
-20 29 -15 17 -19 23 -23 33 -3 9 -7 16 -15 24 -8 8 -11 13 -13 21 -2 8 -6 15
-16 27 -17 22 -19 25 -23 37 -11 40 -59 51 -80 20 -10 -16 -13 -17 -41 -18
-34 0 -36 -3 -36 -48 0 -37 1 -41 21 -61 13 -13 17 -19 21 -28 3 -7 7 -14 11
-18 14 -14 29 -36 36 -54 6 -19 14 -31 32 -50 9 -10 13 -16 14 -21 2 -11 4
-14 18 -29 8 -8 15 -19 21 -29 4 -9 13 -22 19 -29 7 -8 12 -17 15 -25 4 -9 8
-16 18 -26 10 -10 14 -17 17 -25 3 -8 8 -15 21 -30 16 -18 22 -28 22 -38 0 -1
5 -7 11 -14 6 -6 13 -16 16 -23 5 -12 19 -30 32 -43 4 -5 8 -11 10 -19 3 -10
6 -15 17 -26 14 -15 36 -53 39 -67 2 -10 8 -19 16 -25 4 -3 10 -11 15 -22 6
-13 13 -22 24 -34 14 -15 16 -17 18 -28 2 -10 4 -13 12 -21 9 -9 23 -29 32
-45 2 -5 7 -12 12 -16 10 -10 13 -15 15 -27 1 -7 4 -11 17 -25 11 -12 18 -21
22 -30 4 -9 11 -19 21 -29 11 -12 15 -18 16 -23 2 -11 7 -21 17 -30 4 -4 11
-14 15 -22 4 -9 12 -20 23 -31 16 -18 17 -19 19 -33 1 -6 4 -10 13 -19 14 -15
30 -40 35 -59 2 -8 6 -17 9 -21 10 -13 11 -15 10 -47 0 -32 -1 -35 -12 -51 -7
-10 -7 -10 -8 -72 -1 -61 -1 -61 -9 -74 l-8 -13 1 -142 0 -143 7 -11 c6 -9 8
-14 9 -26 2 -20 5 -24 26 -34 20 -10 27 -17 30 -28 1 -4 3 -10 3 -12 1 -2 5
-8 10 -13 6 -7 9 -12 10 -19 2 -11 4 -14 34 -43 14 -14 34 -34 44 -44 19 -18
25 -23 37 -25 3 0 12 -4 18 -8 14 -9 15 -9 53 -5 60 6 58 11 55 -114 -3 -117
-3 -115 16 -132 14 -11 15 -17 13 -51 -2 -54 -2 -54 77 -51 31 1 74 2 94 2
l37 -1 14 9 14 9 63 0 c35 0 73 0 86 -1 29 -1 40 4 40 19 0 6 6 15 12 18 7 4
149 4 381 2 129 -2 128 -2 140 9 14 13 7 12 114 9 149 -3 152 -3 158 3 13 12
12 70 -2 92 -7 12 -7 12 -7 32 1 42 -5 46 -67 42 -24 -1 -80 -3 -124 -3 -80
-1 -80 -1 -87 -6 -20 -14 10 -13 -298 -13 l-278 0 -14 -9 c-15 -9 -15 -9 -44
-9 -17 0 -59 -1 -95 -2 -72 -3 -76 -2 -82 10 -4 8 -4 3 -1 98 2 74 2 74 -24
74 -23 0 -32 13 -17 26 62 54 62 53 64 79 2 19 19 38 50 55 25 13 25 14 25 59
0 41 3 52 19 67 12 10 13 15 15 35 2 27 4 29 33 29 22 0 28 2 42 11 12 8 16 8
86 7 79 -1 82 -1 99 10 13 8 13 8 38 7 82 -4 105 -3 116 6 17 11 18 11 99 11
l74 -1 15 9 15 9 69 0 70 0 8 8 c14 14 13 14 86 12 95 -3 92 -3 110 11 6 4 9
5 23 6 29 1 28 -3 28 139 0 39 -24 47 -65 23 l-15 -9 -75 -1 -76 -1 -12 -9
-13 -9 -67 1 -67 0 -14 -9 c-18 -12 -19 -12 -98 -11 -73 1 -78 1 -89 -9 -13
-12 -11 -11 -83 -11 -71 1 -68 1 -83 -11 -11 -9 -11 -9 -93 -10 -78 0 -77 0
-92 -12 -29 -24 -34 -12 -31 74 7 203 6 214 -13 218 -20 4 -22 7 -23 38 -1 25
-1 25 -12 36 -19 20 -24 28 -24 40 0 6 -2 14 -5 21 -3 6 -6 15 -8 21 -1 6 -6
15 -11 21 -4 6 -9 16 -11 22 -4 14 -7 17 -20 21 -12 4 -15 6 -22 21 -2 6 -5
12 -7 13 -1 0 -4 7 -7 15 -3 7 -9 18 -13 24 -5 6 -9 13 -9 16 -3 11 -4 13 -15
25 -14 14 -15 18 -17 38 -2 16 -2 16 -28 42 -40 40 -48 54 -38 76 8 17 7 29
-5 42 -4 6 -9 15 -11 20 -2 6 -7 13 -15 21 -7 7 -12 13 -12 15 0 7 -5 18 -11
25 -8 10 -10 13 -13 26 -2 6 -6 12 -17 24 -10 11 -16 19 -21 29 -4 8 -10 18
-17 25 -14 15 -18 21 -23 37 -7 23 -24 49 -38 61 -8 6 -10 10 -13 27 -1 3 -7
11 -14 19 -19 20 -37 51 -37 65 0 4 -9 16 -21 29 -6 7 -14 18 -18 27 -5 10
-11 20 -21 30 -11 12 -14 16 -17 26 -2 9 -6 14 -14 23 -16 18 -24 30 -30 47
-8 23 -17 36 -36 56 -7 7 -9 11 -11 20 -2 10 -4 13 -14 23 -11 10 -17 20 -36
55 -2 4 -5 12 -6 17 -2 6 -6 12 -13 20 -7 7 -14 18 -17 25 -7 15 -13 24 -27
39 -10 10 -11 12 -13 24 -4 28 -39 51 -62 41z m549 -1088 c9 -6 51 -53 54 -61
2 -3 4 -9 5 -14 2 -8 7 -13 34 -41 27 -28 32 -33 34 -41 1 -5 4 -13 7 -19 3
-5 10 -19 16 -30 6 -11 12 -23 13 -27 1 -4 6 -11 10 -17 9 -11 9 -11 12 -35 2
-14 3 -18 8 -25 10 -14 13 -20 11 -34 -2 -19 0 -27 10 -40 9 -12 9 -12 9 -42
0 -31 0 -31 8 -46 l8 -15 2 -143 c1 -170 3 -157 -24 -182 -11 -11 -11 -11 -13
-28 -2 -14 -4 -20 -10 -29 -3 -6 -8 -15 -9 -20 -2 -6 -7 -13 -20 -28 -16 -17
-19 -22 -21 -31 -3 -9 -6 -14 -12 -21 -9 -9 -13 -17 -16 -27 -3 -12 -54 -70
-68 -78 -5 -2 -13 -2 -53 -1 l-47 1 -22 12 c-11 6 -24 13 -29 17 -4 3 -12 7
-18 9 -33 9 -68 64 -72 110 -1 20 -3 25 -9 38 -7 15 -7 17 -7 36 0 20 0 21 -6
29 -4 5 -8 10 -10 13 -3 4 -3 322 0 331 0 2 4 7 8 12 5 7 7 11 8 22 1 7 4 19
8 27 3 8 7 21 8 30 1 10 4 19 8 27 4 9 6 14 6 23 0 9 1 12 8 24 9 14 9 14 10
39 2 28 2 29 12 44 7 10 7 11 8 35 1 30 3 32 23 36 19 4 46 38 48 61 1 12 3
17 12 30 3 3 5 11 6 16 1 7 4 13 8 19 4 5 10 15 12 22 8 18 17 22 32 12z"/>
</g>
</svg>
