<?xml version="1.0" standalone="no"?>
<!DOCTYPE svg PUBLIC "-//W3C//DTD SVG 20010904//EN"
 "http://www.w3.org/TR/2001/REC-SVG-20010904/DTD/svg10.dtd">
<svg version="1.0" xmlns="http://www.w3.org/2000/svg"
 width="356.000000pt" height="376.000000pt" viewBox="0 0 356.000000 376.000000"
 preserveAspectRatio="xMidYMid meet">
<metadata>
Created by potrace 1.16, written by Peter Selinger 2001-2019
</metadata>
<g transform="translate(0.000000,376.000000) scale(0.100000,-0.100000)"
fill="#000000" stroke="none">
<path d="M979 3481 c-8 -22 -18 -30 -42 -35 -105 -18 -116 -27 -79 -64 44 -47
68 -81 89 -124 12 -27 26 -48 32 -48 5 0 14 -12 20 -27 6 -16 26 -48 45 -73
19 -25 47 -67 61 -95 32 -64 44 -83 75 -121 14 -17 39 -55 55 -84 17 -29 35
-60 40 -69 6 -9 23 -35 38 -58 15 -24 27 -49 27 -56 0 -8 9 -22 19 -31 11 -10
35 -42 53 -73 18 -30 43 -69 55 -86 12 -18 28 -45 36 -62 8 -16 24 -39 36 -49
11 -11 21 -27 21 -38 0 -17 10 -22 37 -19 46 6 4 -60 -54 -84 -31 -13 -63 -59
-63 -90 0 -10 -6 -29 -13 -43 -8 -15 -21 -42 -30 -60 -9 -19 -17 -42 -17 -52
0 -45 -57 -28 -67 20 -3 16 -14 37 -24 46 -11 9 -19 23 -19 29 0 7 -7 18 -16
25 -8 8 -22 27 -30 44 -22 47 -39 75 -61 99 -11 12 -30 42 -42 66 -12 24 -28
50 -36 58 -8 8 -15 20 -15 27 0 7 -11 23 -25 36 -14 13 -25 28 -25 33 0 5 -11
22 -25 39 -14 16 -25 36 -25 43 0 7 -3 15 -8 17 -10 4 -142 198 -163 239 -8
17 -20 34 -26 37 -6 4 -20 26 -31 49 -12 23 -36 62 -54 88 -18 26 -42 62 -53
80 -11 18 -45 71 -75 117 -30 46 -60 92 -66 103 -5 10 -20 25 -32 33 -19 13
-23 12 -45 -11 -15 -17 -36 -27 -62 -29 l-40 -3 -3 -48 c-3 -40 1 -54 23 -80
54 -66 85 -110 85 -122 0 -7 13 -30 28 -51 16 -21 31 -46 35 -54 4 -8 23 -35
42 -60 19 -25 39 -54 44 -65 5 -12 16 -27 25 -34 9 -7 16 -17 16 -22 0 -5 28
-49 63 -99 34 -50 68 -103 76 -118 8 -15 18 -29 23 -30 5 -2 20 -25 33 -52 13
-26 39 -69 57 -95 18 -26 42 -62 53 -80 51 -82 68 -105 76 -105 5 0 9 -7 9
-16 0 -15 16 -40 73 -108 15 -19 27 -38 27 -44 0 -14 54 -95 75 -112 8 -7 15
-17 15 -23 0 -6 7 -18 15 -27 8 -9 29 -43 45 -75 32 -62 39 -122 18 -143 -17
-16 -28 -149 -34 -381 -3 -121 -1 -188 6 -195 5 -5 10 -20 10 -33 0 -15 11
-30 31 -42 17 -10 40 -38 51 -62 27 -56 123 -156 168 -175 24 -10 50 -13 86
-8 36 4 54 2 59 -6 4 -7 7 -76 6 -152 -2 -134 -1 -141 19 -155 19 -14 21 -22
16 -64 -5 -33 -3 -50 6 -56 18 -11 249 -3 273 10 11 6 68 9 132 8 110 -2 111
-2 115 21 l3 23 324 3 c227 1 328 6 338 14 10 8 65 11 178 9 90 -1 165 2 169
7 3 5 1 33 -5 63 -6 30 -12 69 -14 87 -2 18 -6 36 -10 40 -10 10 -328 2 -340
-9 -5 -5 -165 -9 -365 -9 -221 0 -360 -4 -366 -10 -5 -5 -70 -11 -144 -12
l-135 -3 0 110 0 110 -32 3 c-50 5 -48 27 7 67 40 29 50 43 50 65 0 20 10 36
33 54 68 54 69 54 62 100 -6 36 -3 47 18 72 14 16 27 43 29 59 3 27 7 30 43
33 22 2 44 8 50 13 5 5 57 9 116 9 61 0 111 4 114 10 3 6 44 10 91 10 47 0 95
5 107 12 13 7 58 11 114 9 60 -1 100 2 115 10 15 9 53 12 109 10 69 -2 88 1
99 14 11 13 32 15 117 14 66 -1 109 3 116 10 6 6 24 11 39 11 l28 0 0 105 0
105 -29 0 c-16 0 -34 -7 -41 -15 -10 -12 -36 -15 -116 -15 -58 0 -106 -4 -109
-10 -3 -5 -48 -10 -99 -10 -59 0 -96 -4 -104 -12 -8 -8 -45 -11 -115 -10 -84
3 -106 0 -117 -12 -10 -12 -33 -16 -104 -16 -55 0 -97 -5 -103 -11 -7 -7 -47
-11 -105 -10 -83 2 -97 -1 -121 -19 -53 -42 -56 -30 -50 169 l6 180 -26 12
c-22 10 -27 19 -27 49 0 26 -7 43 -25 60 -14 13 -25 33 -25 44 0 33 -47 126
-64 126 -8 0 -29 30 -48 67 -18 37 -41 76 -51 86 -10 10 -16 25 -13 33 3 9
-10 32 -32 57 -64 71 -64 72 -51 101 11 22 8 31 -17 68 -16 24 -38 61 -49 83
-22 44 -46 79 -86 128 -14 18 -29 44 -32 58 -4 14 -18 38 -32 53 -14 15 -25
32 -25 38 0 6 -13 26 -30 45 -16 18 -30 39 -30 46 0 15 -57 106 -82 131 -10
10 -18 23 -18 30 0 7 -9 21 -19 30 -11 10 -31 41 -44 70 -14 28 -32 58 -41 65
-9 7 -16 19 -16 26 0 7 -7 19 -17 26 -9 8 -26 34 -37 59 -12 25 -27 52 -34 60
-25 30 -72 105 -72 117 0 14 -39 43 -58 43 -7 0 -18 -13 -23 -29z m734 -1365
c20 -25 37 -50 37 -56 0 -6 20 -32 44 -58 24 -26 56 -73 70 -104 15 -32 31
-60 37 -63 5 -4 9 -18 9 -33 0 -15 7 -36 15 -46 8 -11 15 -34 15 -52 0 -18 5
-36 10 -39 6 -3 10 -28 10 -54 0 -26 4 -51 9 -57 6 -5 11 -96 12 -202 2 -182
1 -194 -19 -215 -11 -12 -25 -41 -31 -64 -7 -23 -22 -55 -34 -70 -38 -48 -67
-92 -67 -102 0 -5 -21 -32 -46 -60 -46 -51 -46 -51 -106 -51 -49 0 -71 6 -117
32 -108 60 -124 88 -148 251 -3 20 -9 40 -14 43 -12 7 -12 419 0 442 8 16 15
37 41 132 6 25 16 53 21 62 5 10 9 30 9 46 0 15 7 37 15 48 8 10 15 36 15 56
0 32 4 39 25 44 31 8 65 49 65 78 0 12 4 26 9 32 4 5 16 30 26 57 22 59 40 60
88 3z"/>
</g>
</svg>
