<?xml version="1.0" standalone="no"?>
<!DOCTYPE svg PUBLIC "-//W3C//DTD SVG 20010904//EN"
 "http://www.w3.org/TR/2001/REC-SVG-20010904/DTD/svg10.dtd">
<svg version="1.0" xmlns="http://www.w3.org/2000/svg"
 width="1896.000000pt" height="1500.000000pt" viewBox="0 0 1896.000000 1500.000000"
 preserveAspectRatio="xMidYMid meet">
<metadata>
Created by potrace 1.16, written by Peter Selinger 2001-2019
</metadata>
<g transform="translate(0.000000,1500.000000) scale(0.500000,-0.500000)"
fill="#000000" stroke="none">
<path d="M1841 2858 c-19 -6 -22 -6 -46 -6 -44 1 -49 1 -55 -3 -11 -9 -11 -8
-8 -92 2 -66 5 -289 8 -645 4 -445 8 -566 19 -670 5 -43 1 -54 -17 -54 -8 0
-6 -2 -40 34 -52 56 -135 138 -217 214 -22 20 -55 52 -74 70 -19 18 -53 51
-75 72 -22 21 -44 42 -49 46 -8 6 -171 157 -191 176 -4 4 -21 20 -38 36 -32
30 -93 87 -107 101 -5 4 -17 16 -28 26 -11 10 -28 25 -37 34 -9 9 -31 29 -49
45 -33 30 -36 34 -34 46 2 14 -15 34 -41 47 -4 2 -11 7 -15 11 -5 4 -11 9 -14
11 -3 2 -11 8 -17 13 -6 5 -14 11 -17 13 -8 5 -26 21 -42 36 -26 26 -54 20
-72 -15 -5 -11 -17 -27 -34 -48 -5 -6 -12 -15 -16 -21 -17 -22 -28 -37 -40
-49 -16 -18 -21 -27 -23 -43 -1 -7 -2 -14 -3 -15 -5 -9 -22 -31 -31 -41 -26
-28 -32 -37 -49 -71 -7 -15 -17 -31 -21 -36 -4 -5 -11 -14 -15 -21 -4 -6 -12
-17 -17 -24 -5 -7 -15 -21 -22 -31 -14 -21 -22 -31 -38 -49 -14 -15 -28 -34
-35 -49 -8 -15 -22 -38 -33 -52 -5 -6 -12 -15 -15 -20 -3 -5 -8 -12 -11 -15
-10 -11 -28 -40 -28 -45 0 -7 23 -25 50 -39 5 -2 11 -6 13 -9 2 -2 8 -7 14
-10 5 -4 14 -10 18 -13 4 -4 13 -9 18 -12 6 -2 12 -7 14 -9 2 -2 8 -7 13 -10
5 -4 16 -14 25 -23 25 -25 39 -21 59 18 4 6 11 19 17 27 13 20 21 33 26 41 2
3 11 18 21 32 9 14 20 30 24 37 5 6 13 18 19 27 40 59 68 101 88 133 38 60 32
57 107 55 58 -1 52 1 90 -37 52 -53 129 -126 236 -224 27 -25 52 -48 56 -52 4
-4 21 -20 38 -36 17 -16 32 -30 34 -32 2 -2 12 -11 22 -21 10 -10 28 -27 40
-38 21 -20 39 -37 147 -136 30 -27 63 -58 73 -68 10 -10 33 -31 50 -47 17 -16
34 -31 37 -35 9 -9 89 -84 103 -96 6 -5 25 -23 43 -39 18 -16 35 -32 39 -35
20 -16 62 -56 64 -61 3 -7 4 -750 2 -837 -3 -86 -3 -79 4 -85 3 -4 8 -6 10 -6
227 -8 239 -5 236 57 -6 121 -7 173 -6 498 1 54 0 114 -2 140 -6 119 -8 111
24 111 22 0 20 -1 54 28 6 5 16 13 23 18 18 13 40 30 56 44 40 34 64 53 90 68
17 10 28 20 55 46 32 31 65 48 94 48 19 0 27 7 44 35 10 18 27 35 43 43 10 5
15 9 25 22 18 23 33 38 50 48 10 7 21 16 34 30 10 11 27 27 38 35 10 7 30 24
44 37 14 13 31 28 39 33 8 5 25 20 39 33 14 13 35 30 46 38 12 8 29 22 39 31
10 9 23 20 29 25 6 5 20 16 31 25 25 20 30 24 53 43 11 8 25 20 33 26 23 20
45 38 82 67 15 12 24 19 61 52 13 10 30 25 38 32 8 6 25 22 38 34 31 28 34 28
52 7 12 -14 17 -21 40 -56 8 -13 16 -23 43 -60 6 -8 16 -22 22 -30 5 -9 15
-23 22 -32 25 -34 37 -51 45 -64 24 -40 37 -44 66 -17 15 14 23 16 34 10 16
-9 44 8 49 30 6 23 33 54 59 67 19 10 17 31 -4 53 -9 9 -25 31 -39 52 -10 15
-34 45 -37 45 -2 0 -29 32 -35 42 -3 4 -13 18 -23 29 -21 27 -34 43 -44 57 -4
6 -14 19 -21 28 -16 20 -44 58 -52 69 -3 4 -10 14 -16 22 -33 45 -41 57 -47
67 -25 44 -35 44 -83 1 -13 -12 -27 -23 -32 -25 -4 -3 -12 -7 -17 -11 -5 -4
-13 -8 -17 -11 -4 -2 -12 -8 -18 -12 -5 -5 -14 -12 -19 -16 -25 -19 -40 -31
-50 -41 -6 -6 -19 -18 -29 -26 -10 -8 -25 -20 -33 -27 -8 -7 -19 -16 -25 -20
-21 -17 -35 -27 -86 -69 -10 -9 -29 -24 -51 -41 -13 -10 -43 -35 -62 -51 -7
-6 -17 -14 -22 -17 -5 -4 -13 -10 -18 -14 -5 -4 -20 -17 -34 -28 -14 -11 -31
-25 -38 -31 -14 -12 -38 -31 -74 -59 -8 -6 -20 -15 -26 -21 -24 -21 -35 -30
-46 -39 -29 -22 -37 -28 -55 -43 -11 -9 -22 -18 -25 -20 -3 -2 -9 -7 -14 -12
-5 -5 -14 -12 -21 -17 -6 -5 -18 -14 -26 -20 -8 -7 -20 -17 -28 -23 -8 -6 -19
-15 -25 -21 -32 -26 -42 -34 -55 -44 -8 -7 -18 -15 -23 -18 -5 -4 -13 -11 -19
-16 -6 -5 -18 -16 -28 -24 -10 -8 -22 -19 -28 -24 -5 -5 -14 -12 -18 -15 -4
-3 -12 -9 -16 -13 -5 -4 -16 -13 -24 -20 -15 -12 -22 -19 -50 -46 -14 -13 -21
-16 -46 -16 -36 0 -36 1 -33 65 4 95 6 233 6 459 l-1 233 -7 24 -7 24 0 304
c0 196 1 314 2 333 3 30 2 42 -4 73 -2 10 -4 31 -4 46 -1 45 -3 46 -46 49 -67
5 -74 5 -96 -2z"/>
</g>
</svg>
