<?xml version="1.0" standalone="no"?>
<!DOCTYPE svg PUBLIC "-//W3C//DTD SVG 20010904//EN"
 "http://www.w3.org/TR/2001/REC-SVG-20010904/DTD/svg10.dtd">
<svg version="1.0" xmlns="http://www.w3.org/2000/svg"
 width="100.000000pt" height="79.000000pt" viewBox="0 0 100.000000 79.000000"
 preserveAspectRatio="xMidYMid meet">
<metadata>
Created by potrace 1.16, written by Peter Selinger 2001-2019
</metadata>
<g transform="translate(0.000000,79.000000) scale(0.100000,-0.100000)"
fill="#000000" stroke="none">
<path d="M466 748 c-16 -9 -17 -26 -10 -187 4 -111 3 -180 -3 -184 -5 -3 -70
55 -144 129 -73 73 -138 134 -144 134 -6 0 -31 -30 -55 -66 -77 -113 -76 -110
-60 -129 22 -26 52 -14 80 35 15 25 33 45 42 45 8 0 77 -56 152 -124 l136
-124 0 -122 c0 -103 3 -124 16 -129 8 -3 24 -1 35 4 17 10 19 22 19 113 l1
102 52 35 c28 19 86 64 127 100 90 79 130 110 140 110 5 0 17 -16 29 -35 11
-19 27 -35 35 -35 21 0 48 30 42 46 -12 31 -82 113 -97 113 -9 1 -72 -45 -139
-101 -179 -151 -178 -150 -189 -144 -6 4 -8 50 -4 124 8 163 -3 289 -26 295
-10 2 -26 0 -35 -5z"/>
</g>
</svg>
