<?xml version="1.0" standalone="no"?>
<!DOCTYPE svg PUBLIC "-//W3C//DTD SVG 20010904//EN"
 "http://www.w3.org/TR/2001/REC-SVG-20010904/DTD/svg10.dtd">
<svg version="1.0" xmlns="http://www.w3.org/2000/svg"
 width="474.000000pt" height="376.000000pt" viewBox="0 0 474.000000 376.000000"
 preserveAspectRatio="xMidYMid meet">
<metadata>
Created by potrace 1.16, written by Peter Selinger 2001-2019
</metadata>
<g transform="translate(0.000000,376.000000) scale(0.100000,-0.100000)"
fill="#000000" stroke="none">
<path d="M2296 3569 c-11 -7 -38 -9 -65 -6 -26 3 -52 3 -57 -1 -7 -5 -8 -259
-3 -747 7 -722 13 -941 25 -1037 5 -38 4 -48 -8 -48 -8 0 -84 69 -169 153 -85
84 -224 217 -309 297 -85 79 -191 178 -235 219 -215 202 -366 343 -420 391
-42 38 -59 60 -57 75 2 13 -7 26 -27 38 -31 18 -133 99 -163 130 -10 9 -21 17
-26 17 -14 0 -52 -31 -52 -43 0 -7 -31 -50 -69 -96 -38 -46 -71 -96 -74 -110
-3 -14 -22 -44 -42 -66 -20 -22 -47 -60 -60 -85 -13 -25 -49 -79 -79 -120 -31
-41 -68 -94 -84 -118 -15 -24 -51 -76 -79 -117 -53 -73 -63 -95 -42 -95 16 0
146 -89 188 -128 19 -18 38 -31 43 -30 5 2 32 40 61 85 45 70 253 381 263 392
2 2 39 3 82 2 l79 -2 74 -72 c41 -40 139 -133 219 -207 80 -74 186 -173 235
-220 50 -47 153 -144 230 -215 77 -71 181 -168 230 -216 50 -48 134 -126 187
-174 l98 -88 2 -580 3 -579 150 -1 149 0 -2 454 c-1 250 -5 478 -8 508 l-7 53
32 -7 c29 -6 40 0 127 72 53 43 116 92 139 108 23 17 63 49 89 73 49 45 82 62
122 62 16 0 30 10 43 31 19 31 229 225 355 328 38 31 100 81 137 111 37 30
125 102 195 159 71 58 170 140 221 183 51 43 96 78 101 78 5 0 22 -19 37 -41
32 -49 197 -274 226 -308 l20 -24 28 27 c21 20 34 26 53 21 22 -6 29 0 53 40
15 26 42 56 61 67 19 11 34 26 34 33 0 8 -16 33 -36 57 -104 126 -337 432
-377 496 -31 49 -53 53 -87 17 -13 -14 -58 -49 -99 -77 -42 -28 -105 -77 -141
-108 -36 -31 -148 -124 -250 -206 -187 -150 -225 -181 -496 -400 -218 -176
-260 -210 -373 -304 -129 -106 -142 -115 -172 -107 l-24 6 -2 478 c-2 576 -16
1509 -23 1516 -12 12 -156 17 -174 6z m35 -708 c2 -218 6 -294 17 -325 15 -41
16 -71 27 -616 4 -234 12 -297 45 -347 8 -13 23 -23 33 -23 11 0 17 -6 15 -16
-5 -27 78 -67 122 -59 44 7 110 35 110 47 0 4 9 8 19 8 20 0 80 43 136 97 18
17 36 29 39 26 11 -11 54 38 50 55 -6 21 67 74 74 54 2 -7 23 8 53 38 27 27
56 50 64 50 8 0 15 9 15 20 0 15 7 20 28 20 24 -1 25 -2 10 -14 -10 -7 -18
-18 -18 -24 0 -6 -9 -14 -20 -17 -11 -3 -20 -12 -20 -19 0 -7 -18 -25 -39 -42
-22 -16 -41 -38 -43 -48 -2 -11 -19 -28 -38 -39 -19 -10 -51 -34 -71 -53 -24
-23 -41 -33 -52 -28 -9 3 -17 2 -17 -4 0 -6 -13 -15 -30 -21 -16 -5 -30 -14
-30 -20 0 -5 -9 -12 -20 -16 -11 -3 -43 -29 -72 -57 -29 -27 -72 -66 -95 -85
-29 -24 -40 -40 -36 -51 5 -13 3 -14 -6 -6 -22 20 -163 -118 -202 -197 -13
-27 -30 -49 -36 -49 -7 0 -13 3 -13 8 0 4 -9 55 -19 113 -19 108 -46 174 -84
214 -12 12 -44 48 -71 81 -27 32 -63 73 -80 90 -42 43 -76 84 -76 93 0 13 98
7 112 -7 15 -15 38 -16 38 -1 0 6 8 8 19 4 12 -3 21 0 25 10 3 8 10 15 17 15
33 0 86 102 94 181 5 54 14 696 15 1058 0 107 2 192 4 190 3 -2 6 -132 7 -288z
m-1502 -22 c17 -6 31 -17 31 -25 0 -8 6 -11 15 -8 9 4 15 0 15 -8 0 -8 18 -32
40 -53 22 -21 40 -45 40 -51 0 -7 10 -14 23 -16 14 -2 21 -9 19 -20 -1 -9 2
-19 8 -23 5 -3 10 -12 10 -19 0 -10 -12 -10 -52 -3 -29 5 -60 12 -68 16 -30
15 -120 12 -136 -4 -9 -8 -24 -15 -34 -15 -10 0 -22 -4 -25 -10 -3 -5 -15 -10
-25 -10 -14 0 -18 -5 -13 -16 4 -12 1 -15 -15 -12 -13 2 -29 -8 -46 -27 -30
-35 -42 -29 -21 11 8 16 15 36 15 45 0 29 160 258 181 259 3 0 20 -5 38 -11z
m221 -199 c0 -5 -4 -10 -10 -10 -5 0 -10 5 -10 10 0 6 5 10 10 10 6 0 10 -4
10 -10z m28 -58 c2 -7 -6 -12 -17 -12 -21 0 -27 11 -14 24 9 9 26 2 31 -12z
m3039 -37 c19 -19 39 -35 44 -35 4 0 6 -7 3 -15 -5 -11 -2 -13 11 -9 14 6 16
3 11 -13 -4 -12 -1 -25 9 -33 8 -7 15 -18 15 -25 0 -8 6 -15 13 -18 6 -2 9 -8
5 -12 -11 -11 -47 5 -84 38 -27 23 -38 27 -44 18 -6 -10 -15 -8 -38 9 -24 18
-34 21 -45 12 -10 -9 -16 -9 -25 0 -8 8 -15 6 -28 -6 -14 -15 -19 -15 -30 -4
-23 22 -22 62 1 66 11 2 26 11 33 20 15 20 59 40 91 41 14 1 37 -13 58 -34z
m-2982 -44 c-11 -10 -35 11 -35 30 0 21 0 21 19 -2 11 -13 18 -26 16 -28z m25
40 c0 -6 -4 -13 -10 -16 -5 -3 -10 1 -10 9 0 9 5 16 10 16 6 0 10 -4 10 -9z
m-626 -76 c-4 -8 -10 -12 -15 -9 -11 6 -2 24 11 24 5 0 7 -7 4 -15z m3364 -3
c2 -7 -6 -12 -17 -12 -21 0 -27 11 -14 24 9 9 26 2 31 -12z m-34 -31 c3 -5 -1
-14 -8 -20 -16 -13 -32 2 -21 19 8 12 22 13 29 1z m56 -1 c0 -12 -28 -25 -36
-17 -9 9 6 27 22 27 8 0 14 -5 14 -10z m-110 -55 c-7 -8 -18 -15 -25 -15 -7 0
-15 -7 -19 -15 -3 -8 -12 -15 -21 -15 -25 0 -17 17 15 30 17 7 30 16 30 21 0
5 7 9 16 9 14 0 14 -3 4 -15z m-3310 -5 c0 -5 -4 -10 -10 -10 -5 0 -10 5 -10
10 0 6 5 10 10 10 6 0 10 -4 10 -10z m-46 -51 c-3 -5 -10 -7 -15 -3 -5 3 -7
10 -3 15 3 5 10 7 15 3 5 -3 7 -10 3 -15z m3844 -18 c3 -8 -1 -12 -9 -9 -7 2
-15 10 -17 17 -3 8 1 12 9 9 7 -2 15 -10 17 -17z m-2851 -113 c-3 -8 -6 -5 -6
6 -1 11 2 17 5 13 3 -3 4 -12 1 -19z m223 -128 c0 -5 -4 -10 -10 -10 -5 0 -10
5 -10 10 0 6 5 10 10 10 6 0 10 -4 10 -10z m60 -102 c0 -18 -2 -20 -9 -8 -6 8
-7 18 -5 22 9 14 14 9 14 -14z m70 -56 c0 -4 12 -15 28 -24 20 -13 22 -18 10
-18 -10 0 -18 3 -18 8 0 4 -12 15 -27 24 -21 13 -23 18 -10 18 9 0 17 -3 17
-8z m100 -102 c6 -11 7 -20 2 -20 -10 0 -32 21 -32 32 0 16 19 8 30 -12z"/>
<path d="M2980 1721 c0 -6 5 -13 10 -16 6 -3 10 1 10 9 0 9 -4 16 -10 16 -5 0
-10 -4 -10 -9z"/>
</g>
</svg>
