<?xml version="1.0" standalone="no"?>
<!DOCTYPE svg PUBLIC "-//W3C//DTD SVG 20010904//EN"
 "http://www.w3.org/TR/2001/REC-SVG-20010904/DTD/svg10.dtd">
<svg version="1.0" xmlns="http://www.w3.org/2000/svg"
 width="83.000000pt" height="100.000000pt" viewBox="0 0 83.000000 100.000000"
 preserveAspectRatio="xMidYMid meet">
<metadata>
Created by potrace 1.16, written by Peter Selinger 2001-2019
</metadata>
<g transform="translate(0.000000,100.000000) scale(0.100000,-0.100000)"
fill="#000000" stroke="none">
<path d="M355 947 c-11 -7 -65 -46 -119 -87 -54 -41 -120 -91 -147 -110 -51
-36 -62 -63 -31 -79 10 -5 67 -12 127 -14 75 -4 110 -9 117 -19 22 -32 38 -68
38 -84 0 -9 -38 -118 -85 -242 -47 -123 -85 -233 -85 -244 0 -15 6 -19 27 -16
23 3 29 12 50 73 13 38 26 72 31 77 6 6 40 -5 246 -87 47 -18 62 -30 72 -55
26 -61 43 -38 121 160 40 102 72 192 70 200 -1 9 -37 27 -87 45 -63 23 -86 35
-88 50 -5 26 -152 341 -186 400 -28 47 -38 52 -71 32z m108 -242 c48 -96 87
-177 87 -180 0 -12 -39 -3 -88 20 -34 16 -59 35 -70 56 -9 17 -29 51 -45 75
l-27 45 -93 -6 -92 -6 30 25 c58 49 190 145 200 145 6 1 50 -78 98 -174z m89
-245 c157 -55 182 -71 157 -95 -13 -13 -32 -9 -173 45 -88 33 -161 61 -163 63
-8 8 10 37 22 37 8 0 78 -23 157 -50z m-12 -98 c119 -44 135 -53 138 -75 6
-50 -16 -49 -159 4 -187 70 -179 65 -179 92 0 50 13 49 200 -21z m-61 -103
c80 -27 150 -54 154 -58 4 -5 5 -20 1 -35 -8 -34 -20 -33 -154 18 -52 20 -114
44 -137 52 -33 12 -43 21 -43 38 0 24 8 36 23 36 5 0 75 -23 156 -51z"/>
</g>
</svg>
