<?xml version="1.0" standalone="no"?>
<!DOCTYPE svg PUBLIC "-//W3C//DTD SVG 20010904//EN"
 "http://www.w3.org/TR/2001/REC-SVG-20010904/DTD/svg10.dtd">
<svg version="1.0" xmlns="http://www.w3.org/2000/svg"
 width="1248.000000pt" height="1500.000000pt" viewBox="0 0 1248.000000 1500.000000"
 preserveAspectRatio="xMidYMid meet">
<metadata>
Created by potrace 1.16, written by Peter Selinger 2001-2019
</metadata>
<g transform="translate(0.000000,1500.000000) scale(0.100000,-0.100000)"
fill="#000000" stroke="none">
<path d="M5492 14327 c-23 -24 -31 -100 -13 -111 12 -8 23 -73 16 -96 -9 -29
-111 -29 -148 0 -14 11 -29 20 -34 20 -17 0 -69 -59 -87 -99 -19 -41 -20 -42
-65 -40 -63 3 -87 -7 -100 -40 -12 -27 -38 -57 -101 -116 -18 -16 -37 -42 -42
-57 -7 -19 -22 -30 -58 -42 -27 -9 -58 -16 -68 -16 -11 0 -27 -11 -35 -24 -13
-19 -28 -25 -77 -31 -51 -6 -64 -11 -77 -34 -9 -14 -68 -76 -130 -137 -62 -61
-113 -119 -113 -128 0 -23 -47 -39 -96 -31 -40 6 -43 4 -74 -35 -18 -22 -30
-46 -27 -54 6 -16 -34 -48 -87 -70 -20 -8 -39 -22 -42 -31 -3 -8 -16 -15 -28
-15 -25 0 -105 -61 -120 -93 -9 -18 -22 -23 -71 -27 -58 -5 -61 -6 -90 -51
-16 -25 -42 -52 -57 -58 -16 -7 -39 -30 -51 -52 -12 -21 -35 -44 -51 -50 -34
-15 -64 -45 -77 -77 -5 -12 -21 -27 -36 -33 -40 -15 -81 -57 -88 -90 -8 -35
-31 -49 -80 -49 -39 0 -75 -15 -88 -36 -4 -8 -14 -14 -21 -14 -8 0 -19 -6 -25
-14 -6 -8 -40 -24 -74 -36 -34 -13 -74 -36 -89 -52 -16 -17 -37 -28 -53 -28
-39 0 -74 -28 -100 -80 -25 -49 -46 -60 -115 -60 -15 0 -33 -7 -40 -15 -7 -8
-23 -15 -37 -15 -36 0 -61 -16 -135 -88 -61 -59 -69 -72 -85 -133 -9 -37 -21
-65 -25 -62 -5 2 -14 1 -21 -4 -7 -5 -32 -15 -57 -22 -64 -18 -110 -56 -110
-89 0 -34 -35 -111 -52 -116 -7 -2 -35 -10 -62 -18 -37 -10 -57 -23 -80 -52
-17 -22 -66 -75 -108 -117 -43 -43 -78 -82 -78 -87 0 -5 -9 -17 -20 -27 -15
-13 -30 -16 -61 -12 -35 5 -47 1 -75 -21 -21 -16 -34 -36 -34 -50 0 -17 -10
-26 -39 -38 -37 -14 -91 -75 -91 -101 0 -13 -22 -23 -75 -33 -106 -21 -160
-43 -198 -84 -61 -65 -67 -72 -67 -83 0 -21 -31 -35 -72 -35 -24 1 -59 -4 -78
-10 -19 -7 -42 -11 -51 -10 -16 3 -69 -50 -69 -69 0 -5 -12 -12 -27 -15 -24
-6 -113 -88 -113 -104 0 -4 -18 -15 -41 -25 -22 -10 -45 -27 -50 -37 -5 -10
-10 -86 -10 -169 0 -196 5 -204 98 -196 l64 6 27 -47 c35 -59 98 -122 151
-150 49 -26 68 -27 107 -8 62 31 68 27 75 -42 5 -50 12 -69 32 -89 24 -25 27
-26 84 -15 64 13 1388 19 1434 7 18 -4 33 -20 45 -46 12 -25 26 -39 39 -40 11
0 364 0 784 1 635 1 768 4 785 16 15 10 23 11 33 2 14 -11 92 -28 148 -33 33
-2 37 -15 35 -114 0 -34 7 -55 32 -92 18 -26 43 -53 55 -60 24 -13 33 -37 33
-90 0 -21 7 -42 16 -50 8 -7 26 -34 40 -61 29 -57 88 -118 114 -118 25 0 40
-29 40 -80 0 -22 7 -51 16 -65 8 -13 14 -29 13 -37 -5 -43 3 -58 45 -83 26
-15 49 -38 56 -56 7 -17 24 -37 37 -46 12 -8 23 -22 23 -29 0 -8 6 -17 14 -20
12 -5 22 -50 31 -138 1 -10 16 -31 33 -45 17 -14 42 -49 56 -77 32 -65 60 -91
80 -75 8 7 25 9 39 6 14 -4 28 -2 31 4 8 13 -192 417 -238 481 -23 31 -39 44
-52 42 -15 -3 -16 -1 -7 8 9 10 5 23 -17 59 -15 25 -31 56 -35 69 -3 12 -13
22 -21 22 -10 0 -13 6 -9 19 3 12 -8 37 -32 72 -93 136 -141 212 -173 277 -19
40 -41 72 -47 72 -7 0 -13 9 -13 20 0 46 -110 229 -137 230 -7 0 -13 4 -13 9
0 25 -171 94 -178 72 -5 -16 -22 -13 -22 4 0 13 -85 15 -704 15 -425 0 -707
-4 -711 -9 -3 -6 -17 -4 -33 5 -15 7 -37 14 -48 14 -12 0 -66 14 -120 32 l-99
32 -685 6 c-629 5 -688 6 -712 22 -15 10 -34 15 -43 12 -18 -7 -47 14 -39 28
9 14 -15 28 -48 28 -18 0 -28 5 -28 14 0 8 -25 26 -56 40 -77 35 -264 183
-279 221 -16 39 -6 110 23 157 46 74 165 163 292 217 30 13 89 47 130 76 41
28 116 73 165 100 113 61 152 87 248 169 43 36 109 84 147 107 39 23 70 47 70
54 0 8 9 15 19 17 39 6 581 515 581 545 0 7 6 13 13 13 7 0 21 15 32 33 10 17
28 40 40 50 41 36 142 102 200 132 33 17 107 62 164 100 58 38 118 76 135 85
165 88 211 115 234 137 8 7 17 11 21 8 5 -2 16 4 26 15 10 11 23 20 29 20 17
0 86 58 203 169 59 56 107 101 108 101 1 0 28 25 61 56 32 30 68 59 79 65 33
15 60 33 68 47 4 6 12 12 18 12 23 0 290 186 324 225 6 7 43 34 84 61 114 76
114 76 174 128 31 28 57 56 57 63 0 7 4 13 9 13 5 0 36 22 68 48 32 27 73 57
91 67 17 11 32 26 32 33 0 10 7 12 21 9 46 -12 161 65 319 212 30 28 70 62 90
75 115 76 180 115 220 130 68 27 110 56 110 76 0 24 27 51 44 44 7 -3 20 6 30
20 9 14 25 30 36 36 73 39 275 31 333 -13 34 -26 113 -157 158 -262 40 -93 59
-133 116 -234 29 -51 53 -96 53 -98 0 -2 23 -52 51 -111 28 -59 55 -117 60
-129 5 -13 15 -23 23 -23 9 0 13 -6 10 -13 -5 -14 81 -180 96 -185 6 -2 10
-14 10 -26 0 -13 9 -31 20 -41 11 -10 20 -23 20 -28 0 -6 11 -24 24 -41 24
-32 66 -117 66 -135 0 -5 20 -39 45 -76 45 -68 51 -80 85 -200 23 -80 89 -214
104 -212 6 1 16 -19 22 -45 7 -26 22 -61 33 -77 12 -16 21 -32 21 -35 0 -16
54 -86 67 -86 8 0 13 -6 12 -12 -3 -21 12 -48 27 -48 8 0 14 -10 14 -25 0 -14
9 -34 20 -45 12 -12 18 -25 15 -30 -3 -5 1 -23 10 -39 8 -17 15 -37 15 -45 0
-42 117 -236 142 -236 5 0 21 -21 37 -46 23 -35 31 -63 36 -118 9 -96 21 -113
30 -45 11 77 25 34 18 -56 -5 -65 -2 -75 27 -130 18 -33 53 -87 78 -119 47
-61 72 -129 72 -197 0 -47 8 -69 25 -69 16 0 29 -35 20 -51 -9 -13 185 -409
199 -406 5 1 13 -14 16 -33 4 -19 104 -228 223 -465 118 -236 281 -563 362
-725 80 -162 154 -298 162 -301 9 -3 12 -8 7 -12 -13 -7 182 -401 201 -405 8
-2 12 -9 9 -16 -4 -11 14 -61 36 -96 5 -8 19 -36 31 -62 12 -27 28 -48 35 -48
8 0 11 -6 8 -14 -3 -7 39 -103 93 -212 l98 -199 3 -202 c4 -196 5 -201 26
-207 19 -6 19 -7 4 -16 -22 -13 -12 -40 14 -40 16 0 18 3 9 13 -6 8 -8 17 -4
20 12 13 23 7 23 -12 0 -22 25 -46 34 -32 3 5 2 20 -3 33 -6 16 -2 40 10 77
14 40 19 84 19 165 1 77 5 119 15 136 28 49 19 83 -35 133 -44 41 -50 51 -50
87 0 31 -7 48 -33 77 -46 51 -91 146 -82 172 5 16 -4 31 -35 63 -49 47 -79
108 -80 156 0 31 -36 82 -57 82 -12 0 -41 79 -49 132 -6 45 -49 108 -73 108
-12 0 -41 80 -41 114 0 16 -12 44 -29 65 -15 20 -31 46 -35 57 -4 12 -15 29
-26 39 -14 13 -20 31 -20 60 0 34 -6 47 -30 68 -40 36 -82 121 -74 151 4 17 0
28 -14 37 -10 8 -26 28 -35 46 -9 17 -24 38 -33 47 -9 9 -19 42 -23 73 -8 52
-25 80 -59 95 -12 5 -52 103 -52 127 0 31 -21 69 -47 86 -12 9 -23 21 -23 29
0 7 -9 21 -20 31 -14 13 -20 31 -20 64 0 37 -6 54 -32 86 -18 22 -43 48 -54
57 -16 13 -24 34 -29 77 -5 44 -13 65 -31 82 -13 12 -24 28 -24 36 0 7 -8 21
-17 31 -31 32 -43 61 -43 101 0 32 -5 43 -29 60 -34 25 -57 69 -72 142 -7 33
-21 64 -36 79 -13 14 -47 63 -74 110 -27 47 -55 92 -61 101 -9 13 -8 21 5 34
9 9 17 24 17 33 0 10 12 39 26 65 14 27 24 58 22 69 -5 34 -51 61 -100 60 -24
-1 -58 6 -78 16 -32 16 -35 22 -46 89 -7 39 -19 86 -28 104 -9 18 -16 39 -16
47 0 8 -6 12 -15 8 -18 -7 -20 15 -3 32 7 7 23 47 38 90 25 78 25 79 6 114
-18 34 -20 36 -75 36 -97 0 -130 5 -137 22 -4 8 -10 49 -15 90 -11 108 -19
142 -40 169 -11 13 -19 35 -19 50 -1 45 -42 114 -75 124 -52 17 -75 45 -75 93
0 36 -6 49 -34 76 -21 20 -41 55 -52 88 -21 65 -43 99 -65 100 -44 1 -68 107
-36 155 28 41 36 82 21 104 -13 17 -26 21 -74 21 -70 0 -86 17 -76 81 3 21 9
56 12 77 5 35 2 42 -26 65 -17 15 -42 27 -56 27 -33 0 -56 39 -53 90 3 36 -1
44 -27 65 -21 16 -41 51 -65 109 -19 47 -41 88 -50 91 -24 8 -81 137 -74 168
5 20 -1 34 -31 67 -36 39 -74 123 -74 162 0 10 -13 24 -30 33 -31 16 -67 61
-57 72 4 3 0 21 -8 40 -8 20 -15 55 -15 79 0 41 -3 46 -34 61 -37 17 -47 36
-69 118 -21 81 -42 113 -85 124 -20 6 -132 11 -249 11 -130 0 -214 4 -218 10
-11 17 -41 11 -63 -13z"/>
<path d="M5546 13521 c-3 -4 5 -6 18 -4 17 4 25 -1 29 -16 3 -12 2 -23 -2 -25
-12 -8 -95 14 -103 27 -5 8 -8 6 -8 -5 0 -12 -7 -17 -22 -16 -27 2 -234 -134
-353 -232 -90 -73 -140 -110 -152 -110 -4 0 -60 -43 -123 -95 -63 -53 -137
-108 -165 -124 -27 -16 -90 -62 -140 -103 -49 -41 -119 -94 -155 -118 -36 -24
-97 -71 -137 -106 -40 -34 -94 -75 -120 -90 -64 -37 -103 -66 -197 -146 -43
-37 -99 -80 -125 -94 -67 -40 -193 -145 -199 -166 -2 -10 -10 -17 -16 -15 -17
7 -46 -12 -46 -29 0 -10 -6 -14 -14 -11 -8 3 -44 -18 -83 -48 -150 -118 -209
-163 -240 -179 -18 -9 -33 -21 -33 -26 0 -5 -16 -16 -35 -24 -19 -8 -35 -22
-35 -30 0 -9 -5 -16 -10 -16 -6 0 -38 -22 -73 -48 -34 -27 -80 -59 -102 -72
-62 -36 -175 -131 -175 -146 0 -8 -8 -14 -19 -14 -10 0 -24 -7 -32 -16 -7 -8
-29 -24 -48 -34 -20 -11 -76 -53 -126 -95 -49 -42 -109 -88 -132 -102 -24 -13
-43 -31 -43 -38 0 -7 -8 -11 -17 -9 -12 3 -51 -23 -108 -72 -49 -42 -126 -100
-170 -129 -44 -29 -106 -77 -138 -107 -57 -52 -58 -54 -47 -85 l12 -32 51 20
c73 29 114 56 120 79 4 17 14 20 60 20 51 0 57 3 84 35 15 19 62 70 104 115
73 76 108 96 124 70 12 -19 37 -10 68 27 18 20 55 59 82 87 28 28 59 64 70 79
16 23 30 30 79 36 50 7 63 13 87 42 16 19 29 39 29 45 0 7 15 23 34 38 19 14
37 34 40 44 9 27 66 52 88 39 13 -8 21 -7 35 4 10 9 25 18 33 21 9 3 22 18 30
34 8 16 36 50 63 75 27 25 54 56 61 70 11 22 17 24 67 21 53 -3 56 -2 89 38
19 22 44 49 54 58 27 24 53 52 80 86 17 22 34 30 74 37 52 8 101 35 102 55 0
6 23 35 51 64 27 28 54 63 59 76 9 23 13 24 61 18 l51 -7 54 58 c30 32 54 62
54 67 0 4 6 8 13 8 13 0 39 42 51 82 6 20 50 27 89 14 35 -10 69 11 106 67 13
20 29 37 35 38 6 0 33 27 59 59 43 53 53 60 95 66 65 9 74 15 118 83 21 33 45
60 52 61 7 0 17 11 23 24 13 27 35 36 90 36 28 0 44 8 68 32 17 17 33 39 36
47 3 9 18 24 35 33 16 9 44 40 61 68 l31 51 60 -3 c56 -3 61 -1 81 27 12 17
48 56 79 87 32 32 58 63 58 70 0 14 44 38 71 38 36 0 91 32 107 63 47 89 146
145 208 118 39 -16 73 -48 108 -99 17 -25 35 -41 42 -38 18 7 25 -7 29 -62 9
-109 23 -154 57 -183 25 -20 40 -46 57 -98 17 -52 31 -77 52 -92 16 -11 29
-29 29 -39 0 -11 9 -35 20 -55 11 -20 20 -53 20 -74 0 -37 31 -81 57 -81 5 0
23 -41 39 -91 16 -52 36 -94 44 -97 23 -8 50 -44 50 -68 0 -11 7 -29 15 -40 8
-10 15 -38 15 -61 0 -36 6 -48 43 -85 34 -33 47 -55 57 -98 9 -40 23 -66 51
-96 22 -22 37 -43 34 -46 -3 -3 3 -21 14 -39 13 -22 21 -51 21 -81 0 -42 3
-49 28 -62 32 -17 67 -75 77 -129 5 -23 23 -57 46 -83 22 -25 39 -56 39 -69 0
-13 7 -30 15 -38 10 -10 13 -25 9 -44 -5 -23 1 -36 31 -68 44 -48 60 -77 76
-139 8 -34 21 -54 45 -73 19 -14 34 -33 34 -43 0 -10 7 -31 15 -46 8 -16 15
-47 15 -69 0 -46 23 -85 49 -85 21 0 46 -45 56 -101 10 -52 41 -99 65 -99 15
0 20 -7 20 -27 0 -27 18 -116 43 -213 6 -25 10 -49 9 -53 -1 -5 16 -25 38 -46
30 -28 40 -45 40 -69 0 -39 28 -100 49 -107 39 -13 65 -47 72 -93 16 -103 23
-124 54 -158 22 -24 34 -49 38 -78 8 -59 36 -104 69 -111 30 -7 37 -20 49 -85
19 -108 31 -140 63 -167 26 -22 34 -38 40 -77 8 -60 29 -95 66 -109 32 -12 50
-44 50 -86 0 -16 7 -45 15 -64 8 -20 15 -48 15 -62 0 -14 4 -25 9 -25 22 0 61
-51 61 -80 0 -45 33 -103 80 -140 33 -26 40 -38 40 -68 0 -21 7 -46 15 -56 8
-11 15 -35 15 -53 0 -22 9 -42 30 -63 17 -17 30 -38 30 -48 0 -9 11 -41 25
-70 18 -40 32 -56 55 -63 37 -13 50 -35 50 -86 1 -21 7 -49 14 -63 9 -15 11
-32 6 -46 -9 -22 4 -44 25 -44 6 0 24 -14 40 -30 l30 -31 2 -167 c1 -92 4
-195 6 -229 l5 -62 -49 -10 c-76 -17 -93 -14 -117 19 -12 16 -22 36 -22 43 0
23 -24 37 -71 42 -31 3 -48 11 -65 32 -13 15 -23 35 -24 43 0 9 -13 31 -28 50
l-29 34 -89 -17 c-50 -10 -128 -17 -177 -16 l-88 2 -19 36 c-20 40 -70 71
-127 80 -26 4 -41 14 -50 31 -11 23 -58 56 -113 81 -18 8 -57 8 -145 0 -141
-13 -195 -14 -195 -3 0 17 -66 74 -102 89 -37 15 -41 22 -83 142 -5 14 -23 12
-100 -8 -22 -6 -66 -11 -97 -11 -57 0 -58 1 -77 38 -36 71 -82 90 -149 63 -16
-7 -51 -11 -78 -9 l-49 3 -6 42 c-4 30 -16 54 -47 87 -23 25 -42 54 -42 65 0
11 -14 30 -31 43 -70 53 -79 65 -79 110 0 24 -6 52 -14 63 -7 11 -16 32 -20
48 -7 29 -115 145 -153 166 -18 9 -23 20 -23 54 0 23 -7 55 -15 71 -9 16 -17
43 -19 60 -2 17 -4 34 -5 38 0 4 -14 14 -31 23 -21 11 -30 23 -30 40 0 37 -47
135 -64 135 -8 0 -26 10 -41 23 -23 20 -27 33 -34 104 0 6 -16 20 -34 31 -25
15 -38 32 -51 71 -9 28 -14 62 -11 74 8 31 -34 82 -73 90 -23 5 -33 17 -56 69
-16 35 -32 70 -36 78 -3 8 -16 19 -28 25 -18 8 -22 18 -22 58 0 49 -31 127
-51 127 -5 0 -23 14 -39 30 -22 22 -30 40 -30 65 0 49 0 48 -14 65 -8 8 -19
31 -25 50 -11 35 -84 120 -102 120 -6 0 -21 12 -34 28 -19 22 -23 34 -18 64
14 92 -38 132 -152 118 -86 -11 -921 -12 -1025 -1 -41 4 -83 4 -92 0 -17 -9
-48 -63 -48 -85 0 -7 -12 -22 -27 -34 -26 -21 -29 -21 -767 -20 -722 0 -840
-4 -885 -31 -21 -14 -28 -29 -12 -29 5 0 8 -7 7 -17 0 -10 10 -19 29 -25 17
-4 372 -8 790 -8 852 0 789 -6 930 75 l70 40 507 0 c502 0 507 0 530 -21 13
-12 29 -19 36 -17 7 3 12 -3 12 -15 0 -10 14 -37 31 -58 17 -22 42 -56 55 -76
13 -21 31 -38 38 -38 9 0 12 -7 9 -20 -4 -16 -2 -19 12 -14 12 5 16 2 14 -12
-3 -18 25 -77 112 -244 19 -36 44 -89 57 -117 12 -29 28 -53 36 -53 9 0 12 -7
9 -18 -4 -16 70 -129 103 -157 7 -5 14 -17 16 -25 1 -8 30 -66 63 -129 38 -72
68 -117 82 -124 13 -6 23 -19 23 -29 0 -10 25 -60 55 -110 30 -50 55 -95 55
-100 0 -4 6 -8 14 -8 8 0 17 -15 21 -37 11 -59 78 -191 144 -283 34 -47 82
-125 108 -175 25 -49 52 -94 60 -98 7 -4 13 -14 13 -21 0 -22 118 -174 146
-188 15 -7 35 -26 44 -42 18 -34 64 -60 135 -77 28 -7 89 -27 136 -45 47 -18
110 -39 139 -45 73 -16 130 -41 171 -76 68 -57 110 -85 124 -80 7 3 15 -2 17
-11 7 -26 97 -50 223 -61 112 -10 173 -26 229 -60 51 -31 180 -95 195 -98 8
-1 17 -6 20 -12 11 -17 117 -40 215 -47 100 -7 159 -30 232 -89 54 -44 148
-92 212 -106 43 -10 57 -10 95 5 29 11 44 22 43 33 0 8 13 23 31 32 17 9 39
31 48 50 37 78 44 309 11 426 -14 52 -122 296 -135 305 -4 3 -34 60 -66 128
-32 67 -65 122 -72 122 -8 0 -13 11 -13 28 1 32 -149 332 -164 329 -5 -1 -13
14 -16 33 -3 19 -48 119 -99 222 -71 141 -97 185 -108 181 -12 -5 -14 -1 -9
14 4 13 -8 50 -33 104 -21 46 -48 106 -60 132 -11 27 -33 67 -48 90 -16 23
-39 66 -52 95 -14 29 -31 52 -40 52 -11 0 -12 3 -4 11 8 8 7 18 -2 37 -7 15
-29 62 -50 105 -20 42 -41 77 -46 77 -5 0 -9 6 -9 13 0 7 -31 74 -69 148 -38
74 -87 191 -109 260 -40 121 -157 361 -189 386 -8 6 -12 17 -8 23 8 14 -155
340 -169 337 -6 -1 -10 5 -8 13 5 21 -39 110 -54 110 -8 0 -11 6 -8 15 4 8
-22 72 -57 141 -35 69 -73 143 -83 164 -11 22 -25 40 -32 40 -7 0 -10 8 -8 18
5 20 -407 846 -440 882 -13 14 -22 30 -19 36 5 14 -46 132 -91 212 -19 34 -72
137 -117 228 -61 123 -87 168 -105 174 -14 6 -21 15 -18 23 5 15 -98 99 -119
96 -39 -5 -77 2 -77 15 0 22 -62 37 -74 17z"/>
<path d="M1797 10713 c-11 -10 -8 -101 3 -108 6 -4 10 17 10 54 0 62 -1 66
-13 54z"/>
<path d="M5419 8478 c4 -28 6 -29 9 -9 2 13 0 27 -5 32 -6 6 -7 -3 -4 -23z"/>
<path d="M5362 8466 c-6 -13 -19 -27 -29 -30 -10 -3 -28 -21 -40 -39 -18 -26
-23 -47 -23 -101 0 -81 -9 -100 -60 -126 -44 -22 -47 -31 -25 -74 19 -35 19
-56 1 -82 -8 -11 -17 -37 -21 -57 -4 -21 -16 -43 -26 -50 -10 -7 -23 -25 -28
-40 -6 -15 -15 -27 -20 -27 -21 0 -42 -68 -46 -149 -5 -85 -20 -121 -52 -121
-7 0 -13 -9 -13 -20 0 -12 -7 -32 -16 -45 -11 -17 -14 -35 -10 -58 13 -65 -32
-187 -74 -197 -31 -7 -63 -52 -62 -87 0 -15 3 -55 7 -89 l7 -61 -38 -15 c-22
-9 -50 -28 -63 -42 l-24 -25 27 -31 c31 -38 34 -80 6 -105 -11 -10 -20 -26
-20 -36 0 -10 -27 -44 -60 -76 -64 -61 -73 -88 -50 -148 13 -33 -16 -94 -54
-114 -33 -18 -39 -37 -24 -77 10 -28 9 -42 -5 -81 -9 -27 -17 -55 -17 -64 0
-9 -9 -26 -20 -39 -11 -13 -20 -27 -20 -33 0 -5 -14 -22 -32 -39 -25 -23 -34
-43 -43 -93 -7 -35 -10 -85 -8 -112 5 -48 4 -50 -25 -62 -41 -17 -79 -102 -63
-138 8 -18 7 -32 -4 -60 -8 -19 -15 -46 -15 -59 0 -24 -45 -74 -67 -74 -7 0
-25 -18 -39 -40 l-27 -41 18 -52 c17 -49 17 -55 1 -85 -9 -18 -21 -32 -26 -32
-6 0 -26 -10 -45 -22 -42 -28 -46 -59 -10 -82 14 -9 25 -22 25 -29 0 -27 -71
-144 -119 -197 -43 -46 -50 -59 -45 -83 16 -77 -4 -142 -52 -174 -23 -15 -25
-20 -19 -63 7 -51 -5 -110 -37 -175 -34 -68 -43 -83 -68 -103 -29 -23 -50
-104 -43 -166 6 -47 -9 -86 -32 -86 -8 0 -26 -20 -40 -44 -23 -40 -25 -49 -15
-84 7 -27 7 -48 0 -67 -5 -14 -10 -36 -10 -48 -1 -30 -30 -62 -63 -71 -41 -10
-70 -61 -62 -111 4 -22 9 -55 12 -74 6 -37 -16 -64 -75 -95 -40 -21 -42 -56
-7 -89 l25 -23 -24 -44 c-14 -25 -33 -58 -42 -74 -9 -16 -36 -49 -60 -75 l-44
-46 0 -80 c0 -79 -1 -82 -36 -119 -32 -33 -36 -43 -31 -75 2 -21 -1 -55 -8
-75 -8 -21 -16 -60 -20 -87 -5 -32 -12 -49 -21 -49 -8 0 -14 -7 -14 -16 0 -9
-19 -34 -42 -55 l-42 -38 -2 -98 c-2 -120 0 -113 -22 -113 -20 0 -42 -21 -61
-58 -10 -18 -10 -34 0 -71 17 -67 3 -105 -39 -108 -46 -2 -85 -25 -101 -58
-13 -26 -13 -42 2 -128 20 -115 16 -127 -46 -158 -23 -12 -45 -27 -50 -33 -12
-19 2 -60 31 -84 l27 -23 -27 -20 c-16 -11 -28 -27 -28 -34 0 -7 -11 -20 -25
-29 -30 -20 -31 -35 -5 -78 11 -18 20 -49 20 -70 0 -34 -2 -37 -39 -43 -45 -7
-74 -35 -90 -87 -7 -21 -23 -46 -37 -57 -41 -32 -48 -68 -28 -143 7 -26 36
-30 79 -12 38 16 40 15 57 -6 10 -12 18 -35 18 -51 0 -16 11 -39 25 -55 l24
-26 247 -2 246 -1 15 28 c8 16 15 46 15 68 0 32 6 44 29 61 25 19 29 29 29 68
0 45 11 91 31 135 5 11 8 47 7 80 -3 50 1 65 21 92 14 18 33 35 43 39 23 7 38
43 38 93 0 38 23 75 83 132 31 31 33 47 12 75 -21 28 -19 44 15 110 30 60 38
108 20 119 -17 10 -12 55 6 55 25 0 81 64 94 107 7 22 29 53 53 74 l41 36 -21
48 -21 48 21 38 c12 22 31 46 44 54 28 19 29 42 4 69 -30 34 -35 72 -11 96 11
11 25 18 32 15 32 -11 79 63 80 126 0 24 5 39 13 39 24 0 37 29 61 135 31 138
35 292 8 312 -10 7 -23 12 -29 10 -12 -4 -133 -362 -134 -399 -1 -14 -5 -28
-9 -30 -13 -5 -72 -126 -72 -148 0 -11 -6 -20 -14 -20 -18 0 -57 -134 -65
-225 -5 -54 -8 -65 -15 -47 -4 13 -10 22 -12 19 -2 -2 -12 -36 -23 -75 -10
-38 -37 -104 -60 -146 -22 -41 -41 -84 -41 -95 0 -11 -7 -26 -15 -35 -8 -8
-15 -19 -15 -25 0 -6 -11 -45 -25 -88 -17 -55 -21 -81 -14 -90 14 -16 3 -50
-20 -63 -10 -5 -21 -23 -25 -40 -6 -34 -8 -38 -85 -207 -28 -61 -51 -122 -51
-135 0 -13 -4 -28 -9 -34 -14 -14 -43 -125 -37 -140 3 -8 -1 -14 -9 -14 -8 0
-18 -12 -21 -28 -4 -15 -17 -50 -30 -77 -33 -72 -65 -88 -178 -88 -115 0 -171
15 -213 59 -51 55 -52 88 -5 191 22 48 49 121 61 162 11 40 23 76 26 79 3 3
-2 13 -11 23 -9 10 -13 23 -8 30 5 9 10 7 20 -5 11 -16 14 -14 23 21 6 21 11
44 11 51 0 7 9 38 20 70 23 64 62 233 69 300 0 6 7 12 14 12 19 0 60 59 53 76
-3 8 1 14 9 14 20 0 30 21 14 31 -12 7 -11 9 1 9 11 0 30 44 64 153 27 83 65
186 84 227 59 127 72 161 72 188 0 42 11 72 25 72 8 0 16 15 20 32 19 96 82
269 131 363 47 91 54 111 46 134 -9 27 4 51 28 51 5 0 10 8 10 18 0 11 8 43
19 73 10 30 21 77 26 104 4 28 10 52 14 55 21 14 109 220 114 264 3 28 11 55
19 60 18 14 41 72 72 184 14 49 45 131 70 183 75 159 98 222 84 231 -10 6 -8
8 4 8 10 0 19 12 23 33 21 99 73 253 111 328 24 47 44 97 44 111 0 14 11 37
25 52 28 30 31 46 13 64 -9 9 -9 12 3 12 13 0 39 69 75 200 7 25 35 91 64 148
28 56 48 107 45 112 -11 18 6 70 22 70 11 0 14 6 9 25 -4 14 -2 25 3 25 6 0
28 56 50 124 22 68 49 142 60 165 46 90 114 260 133 331 35 138 80 262 121
334 31 54 40 80 38 109 -1 31 2 40 18 44 14 4 22 17 27 42 10 62 85 284 114
336 46 85 80 181 80 225 0 26 5 43 14 46 9 3 33 63 57 137 23 73 64 178 90
234 37 76 48 109 43 128 -5 21 -2 27 14 32 23 6 48 88 37 122 -5 15 -2 21 9
21 9 0 16 2 16 4 0 2 13 53 29 114 18 70 25 114 19 120 -5 5 -9 32 -10 61 0
56 -9 65 -26 27z m-2492 -6882 c0 -8 -5 -12 -10 -9 -6 4 -8 11 -5 16 9 14 15
11 15 -7z"/>
<path d="M5890 7874 c-8 -3 -24 -9 -35 -13 -11 -5 -33 -14 -48 -20 -22 -9 -27
-16 -22 -32 6 -18 3 -20 -22 -17 -27 3 -31 -2 -159 -258 -99 -200 -133 -277
-142 -329 -9 -45 -10 -71 -3 -79 6 -7 8 -22 5 -33 l-6 -21 41 20 c68 33 97 90
71 138 -19 35 -1 68 46 90 46 20 74 62 74 113 0 13 15 37 35 57 22 21 35 44
35 59 0 15 7 44 14 66 8 23 11 46 6 55 -10 19 -1 108 12 116 12 8 174 7 198
-1 10 -3 20 -18 23 -33 3 -16 15 -39 25 -53 19 -22 27 -24 109 -25 85 0 89 -1
122 -33 29 -27 41 -32 76 -30 31 2 54 -4 88 -24 47 -28 111 -37 154 -23 16 5
27 1 42 -15 12 -13 21 -29 21 -36 0 -25 79 -53 149 -52 77 1 117 -12 126 -40
7 -24 44 -36 81 -27 17 5 34 0 52 -12 46 -33 97 -44 165 -37 l63 7 14 -37 c12
-32 25 -42 98 -76 55 -26 86 -46 89 -59 6 -23 33 -27 33 -6 0 8 8 17 19 21 10
3 26 14 36 25 27 29 40 25 55 -19 7 -22 28 -54 46 -72 l33 -32 41 17 c55 22
109 21 116 -1 14 -42 41 -86 61 -100 19 -13 27 -12 70 8 l48 22 35 -20 c19
-11 41 -32 48 -47 18 -37 55 -34 92 6 16 17 27 35 24 40 -3 4 2 8 10 8 9 0 16
-8 16 -18 0 -23 70 -120 92 -127 9 -3 30 0 45 8 57 29 81 29 105 1 13 -14 30
-39 38 -56 24 -49 41 -55 100 -34 48 17 100 16 100 -3 0 -15 63 -81 77 -81 7
0 24 18 38 40 29 45 65 55 65 18 0 -22 72 -108 90 -108 5 0 36 7 69 16 66 16
101 8 101 -24 0 -10 14 -34 31 -55 23 -28 38 -37 61 -37 17 0 48 -5 70 -12 31
-9 44 -9 59 0 32 20 54 14 70 -20 21 -48 69 -67 173 -71 69 -2 90 -6 97 -19 5
-10 20 -30 34 -46 22 -26 32 -30 99 -35 44 -3 85 -12 98 -21 26 -19 50 -20 92
-5 30 10 34 8 91 -46 l60 -56 61 5 c62 6 124 -7 124 -26 0 -6 13 -23 29 -39
26 -24 37 -28 88 -27 43 0 72 -6 115 -27 45 -21 60 -24 77 -16 32 18 58 13 78
-15 13 -18 36 -30 74 -38 63 -15 169 -10 169 8 0 23 -27 49 -44 43 -10 -4 -16
-1 -16 7 0 15 -89 59 -110 54 -8 -2 -14 2 -13 8 2 13 -58 38 -128 53 -26 6
-82 22 -127 36 -44 14 -87 22 -96 19 -10 -4 -16 -1 -16 9 0 14 -57 39 -155 67
-22 7 -79 27 -126 46 -48 19 -97 34 -111 34 -13 0 -28 4 -33 9 -15 13 -142 42
-159 35 -8 -3 -19 2 -25 14 -7 12 -49 31 -128 56 -65 21 -156 53 -203 72 -47
18 -110 40 -141 47 -30 8 -100 38 -155 65 -55 28 -122 56 -148 62 -27 6 -74
22 -104 36 -30 14 -89 33 -131 43 -42 10 -102 26 -134 36 -32 9 -67 15 -78 12
-10 -3 -19 -1 -19 4 0 13 -138 76 -194 89 -27 6 -73 22 -102 35 -30 14 -75 30
-101 36 -120 28 -273 75 -329 99 -33 15 -87 35 -119 45 -33 9 -80 27 -105 40
-25 12 -81 32 -124 44 -44 12 -102 33 -129 46 -27 13 -56 21 -63 18 -8 -3 -14
1 -14 10 0 19 -119 61 -143 51 -10 -3 -17 -1 -17 4 0 6 -10 14 -22 18 -13 3
-42 15 -64 25 -23 10 -115 39 -205 65 -90 25 -169 50 -175 55 -6 5 -60 25
-120 44 -60 20 -136 47 -170 60 -33 13 -120 41 -193 61 -73 19 -151 44 -174
55 -23 10 -53 19 -67 19 -15 0 -30 4 -35 9 -13 12 -66 21 -85 15z"/>
<path d="M9245 7288 c-7 -15 -17 -22 -29 -20 -32 6 35 -45 91 -69 26 -12 71
-31 98 -43 76 -34 159 -53 270 -64 74 -7 113 -17 151 -36 29 -14 57 -26 63
-26 38 0 149 -51 231 -105 53 -36 112 -67 133 -70 20 -4 37 -13 37 -20 0 -19
24 -25 108 -25 65 -1 86 -5 137 -30 33 -17 70 -30 82 -30 14 0 23 -6 23 -15 0
-30 121 -72 230 -80 98 -7 120 -12 215 -47 129 -49 159 -61 185 -79 76 -51
142 -78 231 -93 57 -10 105 -24 121 -36 15 -11 32 -20 37 -20 12 0 26 -97 25
-180 -1 -50 -10 -86 -37 -155 -37 -94 -97 -281 -97 -302 0 -7 -8 -17 -18 -22
-21 -11 -78 -182 -68 -206 3 -9 -4 -24 -19 -37 -13 -11 -30 -37 -38 -57 -8
-20 -32 -72 -52 -116 -21 -44 -44 -107 -52 -140 -12 -51 -45 -129 -108 -255
-7 -14 -23 -59 -35 -100 -12 -41 -34 -100 -48 -130 -14 -30 -31 -80 -37 -110
-7 -30 -16 -54 -22 -53 -5 1 -18 -25 -27 -58 -9 -33 -37 -100 -61 -150 -38
-75 -50 -109 -54 -161 -1 -5 -7 -8 -15 -8 -8 0 -19 -26 -30 -67 -9 -38 -39
-112 -66 -165 -28 -54 -50 -106 -50 -117 0 -11 -4 -21 -8 -23 -14 -6 -41 -122
-31 -134 12 -15 -18 -94 -35 -94 -11 0 -28 -48 -43 -122 -3 -16 -9 -28 -13
-28 -11 0 -30 -49 -30 -80 0 -19 -5 -30 -14 -30 -16 0 -40 -53 -91 -205 -21
-60 -48 -130 -60 -155 -13 -25 -33 -79 -45 -120 -12 -41 -45 -119 -72 -173
-27 -54 -47 -104 -44 -112 3 -8 -2 -18 -10 -23 -8 -5 -20 -28 -25 -53 -11 -49
-47 -144 -90 -235 -16 -34 -29 -73 -29 -87 0 -16 -6 -27 -14 -27 -8 0 -20 -25
-31 -63 -9 -34 -35 -102 -57 -152 -45 -103 -109 -280 -111 -310 -1 -11 -8 -24
-15 -28 -7 -5 -28 -40 -48 -79 -26 -52 -32 -73 -23 -78 15 -10 3 -60 -15 -60
-7 0 -18 -19 -25 -42 -7 -23 -39 -101 -71 -172 -31 -72 -65 -156 -75 -186 -11
-33 -32 -69 -54 -91 -32 -32 -44 -37 -103 -43 -67 -6 -151 6 -175 26 -7 6 -16
28 -19 50 -4 22 -14 46 -22 55 -12 12 -15 33 -14 86 2 49 -1 73 -10 79 -10 6
-9 12 7 24 18 13 20 29 23 135 2 67 1 132 -2 145 -10 40 -26 17 -26 -37 0 -62
-14 -63 -26 -2 -9 46 -34 72 -34 36 0 -11 -4 -23 -9 -28 -16 -19 -30 -101 -28
-166 2 -64 1 -68 -30 -95 -46 -40 -43 -68 13 -125 38 -39 44 -50 36 -65 -6
-11 -15 -37 -20 -59 -5 -22 -18 -61 -28 -87 -16 -43 -16 -48 -1 -71 19 -30 65
-35 240 -27 62 3 146 3 187 0 84 -6 148 4 169 25 8 8 19 45 24 82 10 86 10 90
2 136 -7 36 -6 39 49 90 40 36 57 60 58 77 1 56 12 84 55 137 39 48 44 59 38
87 -15 66 -9 119 19 161 15 22 38 45 51 50 13 6 36 28 50 49 25 37 26 39 10
80 -9 24 -15 60 -13 82 2 32 8 41 33 53 70 32 87 73 86 211 -1 58 9 79 46 99
29 15 63 81 63 120 0 39 35 98 68 113 31 15 42 67 21 105 -23 44 28 168 78
189 58 25 76 74 52 143 -18 50 2 102 48 132 29 18 40 33 47 64 4 22 14 52 22
66 12 23 12 32 -1 62 -13 32 -13 36 5 52 11 10 20 23 20 30 0 7 13 26 29 43
27 28 51 85 51 121 0 8 23 41 51 73 44 50 50 62 44 88 -4 16 -11 32 -16 35
-15 10 -10 46 11 72 11 14 20 32 20 40 0 7 7 25 16 38 14 22 14 26 -2 54 -15
25 -16 34 -6 56 7 14 16 24 21 21 27 -17 60 25 92 114 11 31 22 46 38 50 12 3
29 17 38 31 15 25 15 28 -5 54 -27 34 -27 41 -2 93 11 23 25 52 30 65 14 31
29 53 73 100 l37 42 0 93 c0 92 1 94 30 120 17 15 30 31 30 37 0 6 11 26 25
45 14 18 28 50 31 69 4 20 11 41 16 48 6 7 3 25 -7 48 -18 46 -20 85 -2 85 38
0 67 28 99 95 23 48 42 74 61 83 33 16 35 44 7 87 -10 16 -16 34 -11 40 4 5
18 37 31 70 13 33 34 68 47 78 13 10 23 25 23 33 0 8 12 27 27 42 20 20 27 38
28 67 4 148 3 146 39 179 39 36 68 91 85 158 11 48 6 124 -10 134 -19 11 -7
22 35 33 73 18 78 33 79 250 1 170 0 189 -19 226 -15 28 -30 42 -52 49 -18 5
-32 13 -32 17 0 24 -154 38 -218 19 -60 -17 -87 -4 -126 60 -32 52 -43 61 -94
81 -31 12 -77 23 -102 24 -65 3 -62 2 -99 34 -46 39 -91 46 -182 27 -131 -28
-138 -25 -201 76 -15 24 -24 27 -75 30 -54 3 -59 5 -74 35 -33 67 -49 83 -79
83 -34 0 -71 -45 -75 -89 -3 -38 -10 -48 -40 -54 -31 -5 -60 30 -51 61 8 25
-56 83 -76 70 -2 0 -17 6 -35 16 -32 16 -40 34 -58 119 -5 26 -8 27 -70 27
-56 0 -68 -4 -97 -28 -30 -26 -35 -27 -58 -16 -14 7 -25 19 -25 26 0 22 -37
76 -60 88 -17 9 -39 9 -96 0 -41 -7 -98 -14 -127 -16 -53 -5 -53 -5 -101 47
l-47 51 -71 1 c-38 0 -75 -3 -81 -7 -6 -3 -13 -2 -17 4 -10 16 -19 12 -30 -12z
m2115 -2065 c0 -10 -20 -40 -20 -31 0 3 -3 13 -6 22 -4 11 -1 16 10 16 9 0 16
-3 16 -7z"/>
<path d="M5610 6980 c-41 -5 -78 -6 -82 -4 -5 3 -11 -2 -14 -10 -8 -20 13 -46
36 -46 9 0 29 -9 44 -21 15 -12 46 -24 69 -27 23 -3 47 -11 52 -19 15 -20 176
-73 202 -67 13 4 23 2 23 -4 0 -5 21 -15 48 -23 26 -7 77 -25 113 -40 36 -14
108 -39 160 -54 52 -15 135 -47 184 -70 50 -24 115 -51 145 -60 30 -9 78 -25
105 -36 56 -23 160 -60 220 -79 22 -7 57 -20 77 -30 21 -10 61 -23 90 -30 29
-7 109 -38 178 -70 69 -32 139 -60 157 -63 17 -4 71 -22 120 -41 104 -40 239
-79 338 -96 39 -7 78 -16 87 -21 10 -5 22 -9 28 -9 6 0 47 -24 93 -53 114 -73
127 -78 248 -107 80 -20 193 -62 295 -111 34 -16 74 -29 89 -29 18 0 29 -6 32
-20 3 -13 19 -24 43 -30 148 -40 225 -56 228 -49 2 5 8 9 14 9 6 0 8 -6 5 -14
-4 -10 4 -17 26 -22 18 -3 55 -17 82 -29 28 -12 87 -34 133 -49 45 -14 97 -35
115 -46 17 -11 47 -20 65 -20 19 0 32 -5 32 -12 0 -7 42 -27 93 -44 50 -18
135 -46 187 -64 52 -18 131 -48 175 -66 85 -36 215 -86 355 -137 111 -40 232
-44 295 -10 74 40 142 88 138 98 -1 6 18 17 45 25 28 9 47 21 47 30 0 8 8 21
18 28 9 7 18 23 18 35 1 17 2 18 6 5 2 -10 8 -18 13 -18 10 0 35 39 45 70 4
14 15 33 23 43 10 11 16 35 16 58 -1 30 2 39 12 35 24 -9 55 144 34 169 -7 8
-8 15 -3 15 6 0 18 18 28 40 10 22 24 45 32 51 32 27 5 40 -91 46 -49 2 -75
-1 -91 -11 -30 -20 -40 -61 -20 -89 8 -12 15 -31 15 -43 0 -12 7 -27 15 -34
19 -16 20 -84 1 -99 -8 -7 -17 -24 -21 -38 -3 -15 -15 -33 -25 -40 -15 -10
-18 -24 -16 -64 1 -45 -1 -52 -21 -60 -13 -5 -23 -12 -23 -16 0 -5 -9 -14 -20
-21 -17 -10 -24 -10 -43 3 -12 8 -31 12 -42 9 -21 -6 -70 -67 -98 -120 -20
-40 -29 -43 -110 -39 -72 3 -99 17 -129 65 -18 30 -23 32 -58 27 -29 -4 -60 3
-112 23 -123 47 -152 61 -181 88 -26 24 -36 27 -110 28 -133 2 -127 1 -133 33
-8 40 -57 74 -102 71 -147 -9 -202 5 -202 51 0 11 -19 33 -42 50 -37 26 -48
29 -78 23 -19 -5 -55 -8 -80 -9 -45 0 -45 0 -69 53 -30 65 -57 75 -113 43 -34
-20 -40 -20 -65 -7 -16 8 -41 28 -57 45 -37 39 -49 39 -83 1 -35 -39 -60 -36
-87 12 -35 62 -52 76 -110 88 -46 9 -59 17 -71 41 -9 16 -19 29 -23 30 -4 0
-34 1 -68 3 -39 1 -75 10 -102 24 -50 26 -75 28 -92 7 -7 -8 -25 -15 -39 -15
-22 0 -30 7 -41 34 -11 28 -23 38 -64 54 -46 17 -54 25 -78 75 -32 67 -57 78
-121 53 -58 -22 -99 -20 -181 6 -49 16 -71 29 -79 45 -11 26 -27 29 -45 11
-10 -10 -24 -6 -65 14 -97 49 -104 51 -151 44 -48 -8 -96 12 -96 40 0 8 -6 14
-14 14 -7 0 -20 7 -27 16 -8 9 -34 25 -59 36 -25 10 -50 26 -56 34 -7 8 -25
16 -40 17 -22 2 -31 -4 -42 -25 -20 -42 -64 -39 -80 5 -7 17 -25 47 -41 66
l-29 35 -53 -13 c-84 -20 -111 -13 -133 34 -36 79 -64 92 -116 54 -39 -29 -93
-19 -129 23 -55 66 -70 78 -100 78 -16 0 -33 5 -36 10 -3 6 -37 10 -75 10 -69
0 -70 1 -113 43 -40 40 -48 44 -108 50 -35 3 -84 13 -108 22 -34 11 -52 13
-80 5 -54 -15 -69 -12 -77 13 -9 31 -34 57 -55 57 -9 0 -19 4 -21 9 -5 15 -68
19 -148 11z m5361 -1367 c-13 -23 -24 2 -16 35 l7 27 9 -23 c5 -14 5 -30 0
-39z m-908 -250 c-7 -2 -19 -2 -25 0 -7 3 -2 5 12 5 14 0 19 -2 13 -5z"/>
<path d="M5413 6574 c-68 -19 -183 -91 -183 -114 0 -5 -7 -16 -16 -25 -9 -8
-49 -82 -90 -163 -77 -152 -138 -323 -135 -379 1 -22 -4 -33 -13 -33 -8 0 -18
-19 -25 -47 -6 -27 -37 -99 -68 -161 -56 -113 -75 -189 -58 -229 5 -10 7 -27
6 -38 -2 -25 39 -89 59 -93 13 -2 14 14 12 95 -5 132 4 164 49 176 47 12 55
21 67 70 11 40 43 87 61 87 5 0 14 14 21 30 11 26 10 33 -4 49 -9 9 -16 27
-16 38 0 30 28 79 55 97 34 22 32 86 -2 86 -10 0 -13 10 -11 37 3 33 8 40 39
55 52 24 79 72 79 141 0 46 3 55 20 60 13 3 31 29 50 71 34 77 38 79 174 96
77 10 119 10 207 0 l111 -13 16 -33 c9 -19 19 -34 23 -34 5 0 11 -17 15 -37
11 -59 26 -88 61 -117 27 -23 38 -26 75 -21 64 9 120 13 255 20 139 8 173 -1
191 -47 15 -41 69 -61 138 -52 88 11 118 0 153 -54 17 -26 46 -57 64 -70 l34
-22 44 20 c65 29 119 25 119 -10 0 -9 14 -36 31 -59 29 -41 33 -43 67 -36 20
4 42 11 49 17 7 6 30 7 53 3 37 -6 44 -12 61 -52 17 -39 22 -44 46 -41 23 2
30 10 37 41 9 35 12 38 40 35 25 -2 31 -7 29 -24 -3 -32 56 -83 113 -98 39
-10 50 -17 52 -35 5 -33 57 -51 149 -52 78 -1 123 -17 123 -44 0 -7 7 -15 15
-19 8 -3 20 -17 25 -30 14 -38 51 -58 86 -47 50 16 176 28 240 22 6 -1 17 -15
24 -31 14 -34 59 -70 87 -70 29 0 126 -40 149 -61 22 -20 73 -26 90 -9 7 7 19
4 36 -10 15 -11 32 -20 38 -20 7 0 24 -7 39 -16 23 -14 38 -15 86 -7 l57 10
14 -33 c7 -18 28 -43 46 -55 29 -21 41 -23 134 -20 100 2 102 2 108 -22 7 -30
41 -66 89 -96 36 -22 39 -22 77 -7 74 29 94 23 130 -40 38 -66 68 -82 113 -59
61 30 115 14 148 -44 21 -39 53 -58 94 -59 77 -2 124 -22 176 -72 53 -51 55
-51 99 -44 86 14 149 9 164 -12 12 -16 28 -19 107 -20 103 -1 120 6 112 50 -4
18 -16 31 -37 40 -41 17 -238 66 -265 66 -37 0 -186 59 -376 150 -60 29 -121
54 -135 55 -28 2 -53 11 -160 60 -41 19 -102 42 -135 51 -33 9 -85 29 -115 45
-75 38 -118 55 -189 73 -33 9 -88 30 -123 47 -39 20 -78 32 -107 33 -30 1 -45
5 -44 13 2 7 -20 16 -52 23 -30 6 -55 15 -55 20 0 5 -19 14 -42 20 -110 28
-180 54 -300 109 -76 35 -121 46 -223 56 -72 7 -114 22 -177 63 -24 16 -44 22
-57 17 -14 -4 -21 -2 -21 7 0 8 -17 20 -37 27 -76 25 -120 44 -248 107 -121
60 -160 72 -242 73 -21 1 -33 6 -33 14 0 9 -27 20 -72 31 -39 9 -96 30 -127
46 -66 33 -156 61 -174 54 -8 -2 -22 4 -32 16 -14 15 -21 17 -32 9 -10 -9 -13
-8 -13 5 0 9 -19 24 -45 36 -43 20 -189 66 -245 78 -14 3 -29 11 -35 17 -22
27 -117 47 -267 54 -84 5 -165 13 -180 19 -15 6 -62 43 -103 82 -42 39 -88 76
-103 84 -106 53 -283 66 -409 30z m3182 -1064 c3 -5 -1 -10 -10 -10 -9 0 -13
5 -10 10 3 6 8 10 10 10 2 0 7 -4 10 -10z"/>
<path d="M11095 5980 c-8 -37 3 -79 16 -59 12 18 11 76 0 83 -5 4 -12 -7 -16
-24z"/>
<path d="M5124 5336 c-11 -8 -56 -18 -100 -22 -77 -6 -114 -22 -114 -49 0 -23
110 -60 178 -59 34 0 62 -3 62 -8 0 -17 182 -88 226 -88 12 0 24 -3 26 -7 6
-14 101 -53 168 -69 36 -9 105 -36 154 -60 49 -24 121 -53 160 -64 40 -11 97
-32 127 -46 89 -44 212 -86 251 -88 22 -1 43 -9 50 -18 7 -10 69 -36 138 -59
69 -22 159 -57 200 -76 138 -65 157 -72 169 -60 12 12 61 -6 61 -23 0 -5 5
-10 10 -10 6 0 70 -29 143 -65 123 -61 252 -105 405 -140 34 -8 71 -23 82 -33
10 -10 36 -24 57 -31 21 -7 71 -28 111 -47 99 -46 152 -63 229 -74 37 -5 69
-14 73 -20 4 -6 42 -24 86 -39 43 -16 97 -38 118 -50 31 -18 41 -20 47 -9 7
10 9 9 9 -3 0 -19 41 -49 65 -49 9 0 26 -6 38 -14 12 -8 47 -19 77 -26 30 -7
89 -30 130 -51 69 -35 187 -79 214 -79 6 0 34 -11 62 -24 38 -18 55 -21 63
-13 8 8 11 7 11 -5 0 -19 30 -31 52 -23 9 4 22 0 29 -7 8 -8 34 -20 59 -28 25
-7 73 -27 107 -42 34 -16 109 -44 166 -63 57 -19 135 -50 173 -68 98 -49 161
-75 225 -91 31 -8 71 -22 89 -31 24 -13 35 -14 46 -4 13 10 18 6 15 -13 -2
-15 139 -8 177 7 63 27 109 81 143 170 17 44 47 109 67 144 19 35 37 78 38 95
4 53 27 126 39 126 16 0 66 172 77 265 9 80 29 147 52 175 24 29 16 54 -29 83
-41 26 -46 27 -77 14 -72 -31 -80 -59 -59 -225 11 -90 0 -150 -33 -178 -26
-23 -66 -90 -66 -111 0 -8 6 -22 12 -33 10 -16 10 -26 -1 -52 -7 -18 -16 -45
-18 -61 -3 -16 -18 -36 -37 -49 -88 -60 -101 -90 -70 -163 18 -44 15 -95 -7
-118 -9 -9 -18 -14 -20 -12 -3 2 -46 5 -96 7 -102 4 -109 8 -139 80 -20 48
-47 54 -102 22 l-44 -26 -29 21 c-15 12 -32 21 -38 21 -5 0 -23 17 -41 37 -52
58 -93 75 -190 78 -97 2 -134 11 -126 30 8 21 -36 52 -84 58 -24 3 -49 12 -55
19 -5 8 -40 22 -78 32 -56 15 -70 16 -83 5 -14 -11 -19 -9 -37 15 -32 45 -95
66 -172 59 -46 -4 -65 -3 -65 6 0 16 -59 68 -100 87 -19 9 -52 27 -72 41 l-37
25 -45 -32 c-51 -37 -74 -35 -82 9 -8 38 -60 91 -90 91 -39 0 -74 19 -91 49
-16 27 -21 29 -100 34 -48 3 -90 11 -100 18 -10 9 -42 14 -88 14 -69 0 -73 1
-100 33 -32 39 -73 61 -121 67 -51 7 -104 32 -104 49 0 8 -9 18 -20 21 -11 3
-20 13 -20 21 0 17 -62 19 -89 3 -14 -9 -25 -8 -51 5 -18 9 -40 16 -48 16 -9
0 -26 10 -39 22 -21 20 -27 21 -55 10 -29 -11 -35 -9 -59 14 -14 14 -55 34
-91 45 -59 17 -67 23 -82 58 -24 52 -53 65 -108 45 -59 -21 -130 -4 -155 36
-10 16 -36 41 -58 56 -35 25 -50 29 -120 30 -103 1 -121 8 -141 50 -12 25 -23
34 -43 35 -74 3 -101 8 -154 27 -32 12 -66 21 -75 20 -39 -3 -52 4 -67 32 -24
46 -95 73 -171 64 -61 -6 -62 -6 -85 25 -12 17 -31 31 -41 31 -10 0 -18 6 -18
14 0 8 -8 17 -18 20 -10 4 -45 22 -78 42 -36 21 -60 31 -62 24 -2 -6 -14 -23
-26 -37 -18 -21 -28 -25 -49 -19 -15 3 -27 13 -27 22 0 16 -29 63 -61 97 -16
17 -19 17 -68 1 -75 -24 -108 -12 -140 51 -22 41 -31 50 -56 53 -16 1 -39 -4
-51 -12z"/>
<path d="M4762 4935 c-55 -15 -102 -41 -102 -56 0 -5 -6 -9 -12 -9 -18 -1 -75
-79 -84 -115 -3 -16 -12 -37 -19 -45 -7 -8 -20 -40 -30 -70 -10 -30 -42 -106
-71 -168 -30 -62 -54 -123 -54 -137 0 -13 -4 -25 -8 -27 -4 -1 -17 -31 -28
-66 -19 -57 -19 -64 -5 -72 14 -8 13 -11 -6 -16 -30 -8 -36 -31 -10 -39 l22
-8 -22 -4 c-17 -3 -23 -14 -29 -50 -7 -51 1 -248 11 -275 10 -24 25 -23 25 2
0 16 5 19 28 14 25 -5 28 -2 45 46 26 74 30 154 10 193 -21 42 -25 77 -8 77 7
0 16 11 19 25 4 14 17 31 30 36 13 6 29 21 36 33 10 19 8 28 -15 61 -36 53
-30 75 27 102 42 20 81 66 77 90 -6 38 5 74 32 102 20 21 28 38 24 50 -3 11 1
24 11 32 12 9 14 23 10 53 -7 50 7 116 28 132 20 14 279 26 310 14 13 -5 33
-25 46 -44 38 -62 60 -65 132 -14 37 26 188 -34 188 -76 0 -12 12 -39 26 -60
l26 -38 77 5 c42 4 99 9 126 12 56 6 77 -6 105 -60 25 -48 81 -70 173 -68 92
2 127 -8 127 -37 0 -11 4 -20 10 -20 5 0 18 -9 28 -20 13 -14 41 -24 83 -31
58 -9 68 -14 106 -55 32 -35 47 -44 60 -39 10 4 31 13 47 19 17 6 46 26 65 43
20 18 41 33 47 33 13 0 54 -42 54 -56 0 -9 28 -28 115 -77 27 -16 66 -43 85
-61 30 -27 42 -31 85 -30 28 1 68 6 90 13 66 18 92 15 99 -14 4 -14 11 -25 16
-25 6 0 10 -8 10 -17 1 -32 43 -68 92 -79 36 -9 66 -8 124 2 95 17 146 20 162
10 7 -4 19 -22 27 -39 30 -69 62 -84 127 -61 46 16 121 4 113 -19 -8 -19 33
-77 54 -77 23 0 71 54 71 80 0 10 7 20 15 24 13 4 14 2 5 -14 -16 -30 12 -61
92 -104 37 -20 82 -52 100 -70 31 -31 39 -33 122 -40 109 -8 136 -14 136 -32
0 -7 17 -20 38 -29 20 -9 49 -23 64 -31 54 -29 128 -45 173 -38 43 6 45 5 61
-30 10 -20 23 -36 30 -36 6 0 17 -7 24 -15 10 -12 32 -15 102 -13 70 2 91 0
98 -12 9 -13 11 -13 21 0 9 13 10 13 6 -1 -6 -18 88 -113 121 -121 10 -3 37 3
58 13 22 10 53 18 70 19 27 0 33 -5 39 -27 3 -16 18 -45 32 -65 21 -31 32 -38
57 -38 17 0 40 7 50 15 45 34 100 14 145 -52 16 -24 30 -33 51 -33 16 0 32 5
35 10 3 6 10 10 16 10 12 0 12 -47 -1 -55 -14 -9 -12 -38 3 -59 9 -12 39 -23
92 -32 43 -7 83 -18 88 -23 17 -17 19 -86 4 -123 -15 -36 -15 -38 12 -75 45
-63 46 -91 2 -154 -20 -30 -49 -60 -64 -67 -14 -7 -36 -25 -47 -40 -18 -22
-21 -34 -14 -67 4 -22 7 -60 8 -84 0 -37 -4 -46 -29 -64 -52 -37 -85 -78 -85
-106 0 -14 -4 -32 -9 -39 -4 -7 -2 -35 5 -63 16 -59 11 -75 -27 -95 -16 -8
-29 -21 -29 -29 0 -8 -8 -18 -17 -24 -15 -8 -18 -21 -15 -70 1 -33 -2 -62 -7
-65 -10 -7 -2 -54 11 -62 5 -3 17 4 26 17 9 12 25 32 36 43 11 11 30 38 42 60
13 23 31 55 40 71 10 17 36 84 59 150 56 159 69 190 81 206 6 8 21 48 34 89
12 41 37 102 55 135 31 56 53 150 47 199 -1 10 2 24 7 30 11 13 -21 171 -44
215 -8 17 -22 31 -30 31 -8 0 -12 6 -9 13 6 17 -156 179 -173 173 -7 -3 -10 1
-6 11 5 12 1 14 -16 8 -27 -8 -56 12 -41 30 7 9 -3 19 -41 39 -28 14 -58 26
-67 26 -10 0 -26 7 -36 15 -11 8 -32 15 -46 15 -14 0 -43 9 -65 20 -22 11 -47
20 -56 20 -9 0 -28 9 -43 21 -14 11 -59 30 -99 41 -39 11 -101 35 -137 53 -77
39 -136 59 -149 51 -5 -4 -12 -2 -15 3 -4 5 -30 17 -59 26 -28 10 -68 26 -87
36 -37 19 -173 63 -228 74 -18 4 -36 13 -38 20 -7 16 -51 35 -190 79 -61 20
-146 54 -189 77 -43 22 -84 38 -91 35 -20 -8 -66 15 -60 29 5 15 -47 32 -126
41 -32 4 -58 10 -58 14 0 11 -69 29 -75 19 -3 -4 -34 6 -68 25 -96 51 -144 65
-254 76 -84 8 -110 15 -155 40 -92 54 -134 70 -220 85 -79 14 -181 49 -210 72
-7 6 -32 20 -56 32 -32 16 -47 19 -61 11 -27 -14 -30 -13 -24 8 6 24 -48 39
-168 46 -62 3 -105 13 -160 34 -41 16 -89 33 -106 37 -18 3 -33 11 -33 16 0
16 -68 40 -95 33 -19 -5 -25 -2 -25 9 0 9 -13 18 -32 22 -18 4 -69 24 -113 45
-92 43 -127 54 -210 70 -82 15 -111 27 -177 73 -51 35 -60 38 -101 32 -28 -4
-47 -3 -51 4 -5 7 2 11 18 11 14 0 27 4 31 9 7 12 -40 26 -135 41 -41 7 -108
21 -149 31 -87 22 -204 24 -279 4z"/>
<path d="M10486 4744 c-10 -25 -7 -144 3 -144 18 0 41 -32 41 -56 0 -19 5 -25
17 -22 21 4 34 66 24 122 -8 49 -22 51 -38 6 l-12 -35 0 57 c-1 59 -8 88 -21
88 -4 0 -11 -7 -14 -16z"/>
<path d="M10460 4490 c-20 -28 -20 -30 -3 -30 25 0 63 28 63 46 0 25 -38 15
-60 -16z"/>
<path d="M10535 4480 c3 -5 8 -10 11 -10 2 0 4 5 4 10 0 6 -5 10 -11 10 -5 0
-7 -4 -4 -10z"/>
<path d="M4390 3722 c0 -10 -5 -23 -11 -29 -18 -18 92 -90 166 -107 16 -4 48
-16 71 -27 85 -38 173 -66 182 -57 5 5 14 3 22 -7 7 -8 16 -15 21 -15 5 0 32
-11 61 -25 28 -14 59 -25 69 -25 9 0 19 -6 22 -14 7 -18 94 -47 122 -40 12 3
51 -4 85 -15 35 -12 73 -18 83 -15 15 5 19 3 14 -9 -4 -11 17 -25 81 -56 48
-23 106 -52 128 -65 23 -14 88 -39 145 -56 57 -18 122 -40 144 -50 65 -29 95
-38 185 -56 47 -9 92 -22 100 -29 37 -30 112 -66 198 -94 51 -17 106 -38 122
-46 16 -8 85 -31 152 -50 174 -50 305 -103 433 -176 86 -49 172 -82 187 -73 5
3 17 -1 26 -9 9 -8 76 -34 147 -57 72 -23 170 -60 218 -82 121 -54 163 -68
208 -68 22 0 39 -4 39 -10 0 -5 -6 -10 -12 -11 -23 -2 134 -50 223 -69 48 -10
109 -28 135 -41 27 -12 55 -23 62 -25 8 -1 19 -9 25 -16 24 -29 64 -47 76 -35
8 8 11 6 11 -7 0 -14 5 -17 22 -13 12 4 26 0 32 -7 6 -8 76 -35 156 -61 80
-26 172 -62 205 -80 46 -26 472 -177 553 -197 19 -4 23 70 6 103 -22 43 -60
62 -110 55 -55 -7 -104 2 -104 20 0 8 -13 28 -28 46 -26 28 -34 31 -78 28
-139 -8 -165 0 -209 65 -43 66 -66 81 -103 66 -26 -10 -79 -16 -113 -12 -8 0
-26 20 -39 44 -40 73 -48 79 -81 61 -16 -8 -29 -18 -29 -23 0 -18 -32 -20 -68
-3 -25 11 -44 30 -57 58 -11 22 -36 53 -55 68 -33 27 -38 28 -100 20 -87 -11
-164 -7 -169 8 -2 7 -17 25 -32 40 -22 22 -37 28 -72 28 -24 0 -72 9 -106 21
-38 12 -74 18 -91 14 -24 -5 -30 -1 -48 29 -35 59 -74 77 -166 74 -64 -1 -81
1 -91 15 -7 9 -17 17 -24 17 -6 0 -11 6 -11 13 0 8 -11 24 -25 37 -23 22 -29
23 -79 14 -29 -6 -62 -7 -72 -3 -10 4 -36 10 -57 14 -31 5 -41 12 -52 38 -21
51 -56 77 -107 80 -35 2 -51 10 -71 31 -14 15 -28 33 -30 39 -2 6 -20 10 -39
9 -39 -3 -89 8 -152 31 -28 10 -49 12 -71 6 -44 -12 -70 -1 -129 56 l-48 47
-94 -4 c-87 -3 -95 -1 -100 17 -4 11 -18 34 -33 50 -15 17 -35 42 -44 57 -25
40 -51 44 -107 15 -73 -38 -122 -29 -176 32 l-42 46 -83 1 c-95 1 -149 12
-127 25 21 14 -45 60 -120 85 -41 13 -69 29 -76 42 -6 12 -34 33 -61 48 -47
25 -55 26 -135 20 -47 -4 -96 -7 -110 -6 -25 0 -80 45 -80 66 0 7 -11 22 -25
33 -31 24 -149 39 -176 23 -21 -13 -59 -4 -59 14 0 8 -5 14 -11 14 -5 0 -25
17 -44 37 l-34 38 -103 -3 c-94 -3 -105 -2 -122 17 -23 26 -36 27 -36 3z"/>
<path d="M4135 3348 c-16 -5 -37 -12 -45 -14 -13 -5 -13 -6 0 -14 8 -6 26 -10
40 -10 19 0 21 -3 12 -12 -16 -16 -15 -28 1 -28 8 0 27 -6 43 -14 40 -19 135
-29 166 -17 16 6 28 19 30 33 2 15 11 24 26 26 20 3 23 0 20 -24 -2 -21 4 -31
27 -45 52 -32 79 -42 133 -47 30 -2 52 -9 52 -16 0 -21 63 -73 103 -86 21 -7
54 -9 76 -5 22 4 60 3 85 0 36 -6 46 -11 46 -26 0 -22 42 -62 94 -90 33 -18
39 -18 72 -4 20 8 52 15 70 15 28 0 36 -5 44 -25 5 -14 14 -31 20 -38 5 -6 20
-25 34 -42 l24 -30 55 19 c74 25 96 18 130 -44 32 -56 49 -61 87 -25 15 14 40
29 58 34 46 14 62 -9 56 -79 -4 -45 -1 -61 16 -89 24 -37 22 -37 188 -12 74
11 155 -7 172 -39 8 -15 21 -20 53 -20 40 0 139 -31 164 -52 7 -5 22 -9 35 -8
53 5 66 -1 86 -34 31 -52 89 -78 156 -70 66 8 146 -12 146 -36 0 -23 49 -65
92 -81 31 -11 43 -10 78 4 24 9 54 13 74 10 30 -5 35 -10 40 -42 3 -21 16 -47
29 -59 23 -21 24 -22 247 -11 246 11 264 8 274 -41 3 -18 27 -47 66 -80 33
-29 60 -59 60 -66 0 -7 25 -34 55 -59 30 -26 55 -53 55 -59 0 -6 8 -21 18 -34
l18 -23 149 14 c156 15 195 11 195 -20 1 -10 17 -30 37 -45 34 -26 43 -28 134
-28 94 0 97 -1 103 -24 3 -14 15 -28 26 -31 11 -3 20 -10 20 -15 0 -5 19 -16
43 -25 32 -12 46 -25 60 -56 18 -37 46 -57 102 -73 11 -3 43 -2 72 3 62 9 99
-9 132 -65 11 -19 27 -34 34 -34 8 0 32 14 53 31 32 26 45 30 76 26 21 -3 41
-1 44 5 4 5 21 -4 38 -21 35 -34 50 -32 37 3 -5 11 -6 26 -4 33 3 8 -8 10 -32
9 -19 -2 -38 1 -41 5 -3 5 -26 10 -52 10 -44 2 -45 2 -12 8 51 9 53 38 3 46
-54 9 -225 53 -281 71 -26 9 -74 35 -107 57 -136 93 -160 106 -238 131 -45 15
-128 45 -184 67 -76 29 -126 42 -199 49 -59 6 -115 18 -139 30 -22 11 -79 58
-128 105 -48 47 -91 85 -95 85 -4 0 -12 8 -19 18 -35 58 -180 117 -246 103
-20 -5 -39 -6 -42 -1 -2 4 -57 9 -122 12 -107 5 -124 8 -180 36 -34 18 -97 41
-140 53 -43 12 -112 38 -153 59 -41 20 -104 45 -140 55 -36 9 -96 32 -135 50
-38 18 -106 47 -150 65 -44 17 -93 37 -110 45 -56 25 -180 55 -288 70 -110 15
-137 26 -184 77 -22 23 -57 29 -80 15 -7 -4 -14 -3 -17 2 -3 5 -15 7 -26 4
-11 -3 -20 0 -20 6 0 6 6 11 14 11 13 0 31 28 23 36 -2 2 -35 13 -73 23 -38
11 -100 28 -138 39 -38 11 -74 18 -81 16 -6 -3 -18 2 -25 11 -19 22 -93 55
-174 76 -38 10 -89 30 -114 44 -24 14 -55 25 -68 25 -13 0 -24 4 -24 10 0 5
-39 21 -87 36 -49 15 -125 44 -169 65 -45 22 -85 39 -89 39 -3 0 -31 11 -61
25 -62 29 -70 30 -77 13 -4 -8 -6 -7 -6 3 -1 9 -11 19 -23 23 -37 9 -270 5
-303 -6z"/>
</g>
</svg>
