<?xml version="1.0" standalone="no"?>
<!DOCTYPE svg PUBLIC "-//W3C//DTD SVG 20010904//EN"
 "http://www.w3.org/TR/2001/REC-SVG-20010904/DTD/svg10.dtd">
<svg version="1.0" xmlns="http://www.w3.org/2000/svg"
 width="97.000000pt" height="100.000000pt" viewBox="0 0 97.000000 100.000000"
 preserveAspectRatio="xMidYMid meet">
<metadata>
Created by potrace 1.16, written by Peter Selinger 2001-2019
</metadata>
<g transform="translate(0.000000,100.000000) scale(0.100000,-0.100000)"
fill="#000000" stroke="none">
<path d="M386 888 c-14 -24 -48 -94 -76 -157 -28 -62 -65 -138 -83 -169 -30
-54 -121 -304 -154 -424 -24 -90 -27 -89 144 -86 174 3 169 -2 130 122 -14 45
-37 132 -51 195 l-26 113 80 164 c45 90 84 164 89 164 11 0 36 -30 55 -67 8
-17 44 -69 79 -115 113 -148 119 -166 126 -393 l6 -180 47 -3 48 -3 -5 128
c-9 225 -13 253 -40 304 -49 94 -23 107 49 23 53 -60 88 -70 94 -25 4 27 -46
84 -115 132 -24 17 -43 35 -43 42 0 7 25 31 55 55 64 49 85 83 65 107 -7 8
-19 15 -27 15 -8 0 -52 -36 -98 -80 -46 -44 -85 -80 -88 -80 -2 0 -24 28 -48
63 -83 120 -149 197 -169 197 -12 0 -28 -16 -44 -42z m-140 -573 c8 -57 0 -77
-28 -73 -28 4 -33 24 -18 77 15 55 37 53 46 -4z m15 -135 c23 -13 25 -55 3
-64 -32 -12 -114 -7 -120 8 -10 25 14 55 49 59 17 2 36 5 40 5 5 1 17 -3 28
-8z"/>
</g>
</svg>
