<?xml version="1.0" standalone="no"?>
<!DOCTYPE svg PUBLIC "-//W3C//DTD SVG 20010904//EN"
 "http://www.w3.org/TR/2001/REC-SVG-20010904/DTD/svg10.dtd">
<svg version="1.0" xmlns="http://www.w3.org/2000/svg"
 width="364.000000pt" height="376.000000pt" viewBox="0 0 364.000000 376.000000"
 preserveAspectRatio="xMidYMid meet">
<metadata>
Created by potrace 1.16, written by Peter Selinger 2001-2019
</metadata>
<g transform="translate(0.000000,376.000000) scale(0.100000,-0.100000)"
fill="#000000" stroke="none">
<path d="M1568 3493 c-10 -2 -27 -23 -38 -46 -11 -23 -34 -60 -50 -82 -36 -47
-80 -129 -80 -147 0 -14 -50 -125 -76 -168 -8 -14 -29 -54 -46 -90 -16 -36
-50 -105 -74 -155 -25 -49 -44 -93 -44 -98 0 -4 -18 -44 -39 -90 -22 -45 -56
-120 -76 -167 -40 -94 -99 -205 -155 -290 -53 -81 -90 -155 -90 -178 0 -11
-16 -40 -35 -64 -51 -63 -85 -143 -96 -223 -9 -62 -40 -163 -59 -190 -11 -15
-67 -173 -79 -220 -30 -121 -60 -233 -69 -255 -6 -14 -22 -68 -37 -120 -17
-64 -40 -117 -70 -163 -35 -55 -45 -80 -50 -130 -8 -83 -8 -96 0 -134 7 -29 3
-37 -29 -69 -46 -46 -56 -65 -56 -103 0 -34 41 -88 77 -102 13 -5 241 -9 508
-9 531 -1 521 -2 564 59 31 43 29 139 -4 206 -14 28 -25 56 -25 63 0 8 -9 25
-19 38 -11 14 -23 44 -26 67 -4 23 -16 65 -26 92 -32 90 -48 159 -59 260 -6
55 -17 123 -25 150 -8 28 -26 104 -40 170 -15 66 -35 145 -45 175 -11 30 -28
97 -39 149 -12 52 -30 109 -41 128 -11 19 -20 43 -20 53 0 22 70 160 125 245
35 55 165 306 165 320 0 5 59 132 145 310 24 50 46 101 49 115 3 14 23 54 44
90 21 36 49 91 62 123 19 46 28 57 47 57 30 0 138 -112 154 -160 6 -19 49 -88
95 -152 46 -65 101 -150 121 -189 21 -40 61 -95 88 -123 85 -86 154 -171 208
-259 29 -47 86 -136 128 -198 88 -131 115 -190 123 -273 8 -72 54 -212 92
-280 l27 -49 -17 -66 c-17 -64 -17 -70 0 -134 16 -61 17 -73 4 -144 -12 -62
-14 -157 -12 -453 2 -206 5 -376 7 -378 6 -7 332 -5 343 2 16 10 3 196 -16
226 -14 21 -16 54 -13 213 2 167 0 198 -20 282 -22 90 -22 99 -8 172 9 51 14
145 14 273 0 188 -1 198 -29 285 -28 86 -105 253 -131 285 -7 8 -16 26 -20 40
-4 14 -16 36 -25 50 -10 14 -22 43 -26 65 l-7 39 -23 -30 c-20 -24 -24 -41
-24 -98 0 -71 28 -175 56 -207 8 -8 14 -25 14 -36 0 -11 7 -26 15 -33 8 -7 15
-21 15 -32 0 -10 6 -29 14 -41 19 -29 36 -121 32 -172 -4 -55 -4 -55 -20 -55
-12 0 -66 104 -66 128 0 5 -7 15 -16 23 -9 8 -13 21 -10 35 4 13 1 26 -5 29
-6 4 -8 14 -5 22 8 20 -4 64 -15 57 -5 -3 -9 15 -9 41 0 25 -4 53 -9 63 -5 9
-16 34 -25 55 -20 47 -102 174 -133 206 -13 13 -23 28 -23 32 0 12 -92 153
-102 157 -5 2 -8 9 -9 15 0 7 -16 32 -35 57 -18 25 -46 63 -61 85 -16 22 -33
45 -39 50 -32 30 -74 95 -61 95 7 0 22 -9 32 -20 10 -11 29 -20 42 -20 16 0
23 -6 23 -20 0 -13 7 -20 20 -20 10 0 23 -6 27 -14 12 -21 107 -65 134 -62 32
4 95 31 103 45 4 6 14 11 23 11 8 0 26 9 40 20 25 20 63 27 63 13 0 -5 -4 -14
-9 -22 -11 -17 21 -110 42 -126 7 -5 17 -17 21 -25 11 -24 29 -53 54 -87 26
-37 21 -58 -20 -79 l-29 -15 49 -42 c27 -23 94 -94 149 -157 55 -64 119 -128
142 -144 22 -16 49 -41 59 -57 27 -44 81 -79 120 -79 27 0 43 9 74 40 40 40
40 40 36 105 -5 77 -17 97 -110 175 -35 30 -102 97 -148 148 -59 66 -112 112
-179 157 -117 77 -171 126 -171 153 0 15 34 46 116 107 120 90 245 210 317
304 34 44 42 62 42 97 0 79 -88 141 -160 114 -16 -6 -79 -60 -140 -119 -60
-60 -135 -128 -166 -152 -123 -96 -188 -157 -240 -223 -88 -113 -89 -113 -128
-43 -46 82 -90 143 -136 187 -49 47 -96 113 -138 191 -38 74 -52 91 -208 271
-25 29 -54 68 -63 85 -9 18 -30 40 -46 48 -16 8 -37 30 -46 48 -50 97 -113
132 -196 110z m150 -258 c34 -38 62 -74 62 -81 0 -6 7 -17 15 -24 8 -7 15 -19
15 -26 0 -21 -31 -17 -37 4 -3 11 -21 23 -49 30 -59 16 -91 15 -148 -4 -26 -9
-50 -14 -53 -11 -11 12 8 75 37 121 28 44 61 68 86 63 6 -1 39 -33 72 -72z
m169 -237 c-3 -8 -6 -5 -6 6 -1 11 2 17 5 13 3 -3 4 -12 1 -19z m180 -270 c-3
-8 -6 -5 -6 6 -1 11 2 17 5 13 3 -3 4 -12 1 -19z m47 -13 c3 -8 1 -15 -4 -15
-6 0 -10 7 -10 15 0 8 2 15 4 15 2 0 6 -7 10 -15z m33 -82 c-3 -3 -11 -2 -17
2 -8 5 -7 11 2 22 12 15 13 14 16 -1 2 -10 1 -20 -1 -23z m-1252 -875 c7 -18
23 -71 35 -118 12 -47 25 -92 27 -100 7 -19 3 -87 -6 -112 -7 -19 -7 -19 -32
1 -40 31 -74 35 -124 16 -25 -9 -48 -14 -53 -11 -14 8 12 151 29 162 5 3 9 18
9 33 0 26 40 121 62 149 18 21 39 13 53 -20z m-8 -378 c7 -14 13 -53 13 -86 0
-34 9 -90 19 -125 11 -35 25 -99 32 -143 17 -101 17 -101 -132 -101 -113 0
-114 0 -117 24 -2 13 8 58 22 100 32 93 62 211 71 277 4 27 15 57 23 67 21 24
54 18 69 -13z m-228 -495 c53 -60 45 -77 -55 -119 -48 -20 -89 -34 -92 -32 -7
7 18 105 40 152 28 64 49 64 107 -1z m431 -2 c29 -66 37 -121 17 -129 -17 -6
-58 13 -100 48 -26 21 -28 27 -20 58 6 22 15 35 26 35 9 0 24 8 34 18 9 9 18
17 20 17 1 0 11 -21 23 -47z m1729 -31 c5 -20 11 -129 13 -242 3 -182 1 -205
-13 -208 -10 -2 -19 6 -23 20 -9 32 -20 442 -13 463 10 24 25 10 36 -33z
m-1816 -164 c21 -16 77 -177 77 -220 l0 -33 -278 0 -277 1 2 37 c6 94 41 159
99 183 18 8 88 19 156 24 68 6 128 13 133 15 23 8 72 4 88 -7z m215 -250 c17
-17 15 -49 -4 -76 -11 -16 -25 -22 -55 -22 -48 0 -50 12 -9 68 31 43 47 51 68
30z m-743 -66 c8 -21 -9 -35 -34 -27 -19 6 -29 34 -15 47 9 10 42 -3 49 -20z"/>
</g>
</svg>
