<?xml version="1.0" standalone="no"?>
<!DOCTYPE svg PUBLIC "-//W3C//DTD SVG 20010904//EN"
 "http://www.w3.org/TR/2001/REC-SVG-20010904/DTD/svg10.dtd">
<svg version="1.0" xmlns="http://www.w3.org/2000/svg"
 width="1456.000000pt" height="1500.000000pt" viewBox="0 0 1456.000000 1500.000000"
 preserveAspectRatio="xMidYMid meet">
<metadata>
Created by potrace 1.16, written by Peter Selinger 2001-2019
</metadata>
<g transform="translate(0.000000,1500.000000) scale(0.500000,-0.500000)"
fill="#000000" stroke="none">
<path d="M1269 2796 c-24 -4 -36 -15 -42 -37 -4 -14 -9 -22 -24 -39 -6 -7 -14
-17 -16 -23 -8 -14 -18 -31 -25 -38 -14 -15 -34 -59 -43 -91 -8 -31 -13 -43
-24 -61 -5 -7 -11 -20 -15 -30 -7 -19 -11 -26 -27 -50 -5 -8 -9 -16 -9 -17 0
-1 -5 -10 -11 -20 -13 -22 -24 -46 -31 -68 -6 -19 -34 -80 -45 -95 -12 -17
-16 -26 -26 -55 -5 -15 -12 -32 -16 -40 -3 -7 -11 -24 -17 -37 -6 -13 -14 -30
-18 -37 -5 -7 -12 -23 -16 -36 -5 -12 -10 -26 -12 -31 -7 -13 -22 -47 -29 -66
-4 -9 -10 -23 -14 -29 -4 -7 -11 -20 -16 -30 -5 -11 -14 -27 -21 -37 -6 -11
-14 -24 -16 -30 -3 -7 -10 -19 -16 -28 -6 -9 -16 -24 -22 -34 -6 -10 -14 -23
-19 -30 -5 -7 -11 -17 -14 -23 -3 -5 -8 -15 -12 -21 -12 -18 -21 -38 -28 -62
-12 -41 -27 -67 -57 -100 -6 -7 -9 -11 -27 -50 -14 -31 -20 -51 -23 -79 -6
-53 -9 -68 -13 -80 -11 -32 -26 -67 -38 -94 -8 -16 -17 -38 -21 -49 -4 -11
-11 -30 -16 -43 -10 -26 -15 -44 -24 -80 -3 -14 -8 -30 -10 -37 -6 -16 -17
-61 -21 -81 -4 -24 -12 -50 -22 -73 -5 -13 -12 -34 -18 -60 -20 -86 -35 -123
-68 -173 -33 -48 -33 -48 -43 -108 -7 -44 -8 -76 -3 -103 5 -27 3 -30 -29 -65
-59 -63 -40 -143 39 -163 13 -3 438 -6 733 -5 53 0 78 9 104 37 23 23 28 34
33 71 3 28 -8 78 -24 109 -6 11 -13 27 -15 35 -6 19 -13 35 -23 52 -11 17 -16
31 -21 58 -3 14 -9 36 -18 60 -7 20 -14 40 -15 44 -1 4 -5 20 -10 35 -11 34
-14 47 -19 100 -11 106 -10 100 -25 157 -5 19 -13 53 -17 76 -5 23 -11 50 -15
62 -4 12 -10 39 -15 60 -9 41 -17 68 -29 95 -9 20 -9 24 -18 71 -11 60 -29
117 -45 144 -10 15 -10 28 -2 44 3 7 9 21 13 31 4 10 13 27 20 39 6 12 15 28
19 37 4 9 11 21 16 28 12 16 26 38 26 40 0 1 5 9 12 18 6 9 14 22 18 29 3 7
11 21 17 31 6 9 14 23 16 30 3 6 11 23 18 36 7 13 17 35 23 48 6 13 14 30 17
37 4 8 11 24 16 36 5 13 13 30 18 38 5 9 13 24 17 35 4 11 11 26 15 33 7 12
23 52 29 68 1 4 7 15 12 24 6 10 14 24 17 34 4 9 10 22 14 29 12 19 16 29 26
62 10 33 24 62 43 92 14 21 19 29 22 41 1 4 10 24 20 43 33 66 36 66 103 -2
42 -43 51 -54 59 -80 7 -23 10 -28 23 -46 6 -8 12 -18 15 -23 2 -4 10 -15 17
-23 17 -23 40 -54 53 -74 6 -10 16 -25 23 -34 7 -9 17 -25 23 -36 16 -31 27
-52 31 -62 7 -16 39 -57 58 -74 32 -29 69 -68 82 -87 4 -6 14 -18 21 -26 17
-19 41 -53 53 -74 5 -10 14 -24 19 -32 6 -8 14 -22 19 -31 4 -9 14 -24 21 -33
7 -9 16 -22 20 -28 13 -22 35 -53 46 -68 7 -8 15 -22 20 -30 5 -8 12 -19 16
-25 10 -13 17 -28 25 -51 4 -10 9 -24 12 -31 6 -15 10 -38 13 -72 2 -29 8 -53
18 -79 5 -10 12 -33 17 -51 11 -40 12 -42 29 -69 28 -45 31 -64 17 -107 -12
-35 -12 -60 -1 -102 13 -47 13 -81 -1 -148 -15 -78 -20 -209 -8 -241 7 -17 8
-214 3 -315 -6 -95 -10 -90 81 -87 43 1 79 1 124 0 79 -3 86 -1 86 29 0 88 -6
134 -21 164 -14 28 -13 16 -13 187 0 172 2 149 -18 219 -9 30 -9 109 0 141 9
34 9 31 9 182 0 179 -1 185 -24 238 -3 8 -8 22 -10 33 -2 10 -7 25 -11 33 -4
8 -15 31 -24 50 -9 19 -20 40 -24 45 -4 6 -11 20 -16 31 -5 12 -15 29 -21 38
-9 12 -14 22 -19 36 -4 10 -12 29 -19 42 -27 53 -13 101 22 74 3 -2 15 -11 27
-20 20 -14 41 -35 58 -56 8 -10 29 -33 47 -53 8 -9 17 -19 20 -23 19 -28 59
-70 81 -87 24 -18 42 -36 58 -57 52 -70 106 -81 159 -33 60 56 36 167 -51 226
-44 30 -72 57 -144 140 -23 25 -65 64 -82 75 -8 5 -20 14 -28 20 -8 5 -20 13
-28 17 -8 3 -19 10 -24 14 -6 5 -17 12 -25 17 -8 5 -21 14 -28 21 -7 7 -19 16
-26 22 -35 27 -31 60 9 86 8 5 18 12 22 16 5 3 15 11 23 16 8 5 24 17 35 25
11 8 29 21 40 29 62 44 199 188 221 233 32 63 -13 139 -84 142 -50 1 -67 -10
-150 -97 -55 -58 -84 -85 -109 -104 -10 -8 -23 -18 -29 -23 -6 -6 -18 -16 -28
-23 -9 -8 -23 -20 -31 -28 -8 -8 -21 -19 -29 -25 -25 -17 -85 -78 -99 -101
-41 -66 -72 -84 -91 -55 -4 6 -13 20 -21 31 -7 11 -14 23 -15 26 -1 3 -9 16
-17 28 -8 12 -16 24 -18 27 -1 3 -15 19 -31 34 -15 16 -30 33 -34 38 -4 5 -13
16 -20 24 -8 8 -17 20 -20 26 -4 6 -12 19 -19 28 -7 10 -16 25 -20 33 -4 9
-10 20 -13 25 -4 4 -9 15 -13 23 -4 8 -13 22 -20 32 -7 9 -16 22 -20 29 -4 6
-21 25 -36 41 -16 17 -35 39 -42 49 -12 16 -49 58 -65 73 -3 3 -10 14 -15 24
-19 36 -25 43 -46 56 -15 9 -21 13 -24 20 -3 4 -10 17 -16 27 -41 69 -78 90
-142 80z m-574 -1680 c19 -9 26 -29 31 -99 3 -32 8 -59 15 -77 6 -17 14 -49
18 -76 2 -12 5 -32 8 -46 16 -73 12 -76 -96 -79 -126 -2 -126 -2 -84 120 7 21
14 43 15 50 5 25 16 70 19 79 5 13 14 51 19 77 9 48 27 64 55 51z m101 -558
c19 -6 24 -14 40 -61 6 -19 15 -42 18 -52 12 -33 17 -73 11 -85 -7 -14 -19
-16 -85 -12 -66 3 -181 4 -233 1 -125 -7 -130 -5 -121 58 10 68 37 109 84 124
29 9 42 11 130 19 14 1 45 4 69 7 46 5 74 5 87 1z"/>
</g>
</svg>
